<svg id="Layer_1" data-name="Layer 1" xmlns="http://www.w3.org/2000/svg" viewBox="0 0 444 110"><defs><style>.cls-1{fill:#415947;}.cls-2{fill:#84e895;}.cls-3{fill:#96eba5;}.cls-4{fill:#5c7061;}.cls-5{fill:#f3d632;}.cls-6{fill:#f7e270;}.cls-7{fill:#faefb1;}</style></defs><title>rio</title><path class="cls-1" d="M31.34,93.51l-4,2.15-15.59.84L9.84,98.62A27.22,27.22,0,0,1,6,101.05l-3.69-.71,3-2S20,89.19,17.07,84,1.83,81,1.83,81L5.3,79.68l24.26-5.43Z"/><polygon class="cls-1" points="31.34 93.51 153.98 75.72 140.01 55.6 27.8 74.97 31.34 93.51"/><path class="cls-2" d="M400,85.78s-41.64,13.49-83.13,15a494.88,494.88,0,0,1-76-3.21S194,92.29,159.72,78.73s-30.16-29-30.16-29,0-16.11,5.64-21.09S421.31,54.09,421.31,54.09L410.12,82.6Z"/><path class="cls-1" d="M314.83,98.31s46.35-2,76.9-13.79c8.86-3.46,9.57-5.78,9.57-5.78l-1.16-6L362.59,82.84,331.06,86.2l-15.67.11Z"/><path class="cls-1" d="M171.77,74.19l.42,7.8s45.38,13,69.21,12.48L243.18,81l-60.37-8.74Z"/><path class="cls-1" d="M137.63,53.29s7.08,8.9,14.1,11.1,16.71,4.45,16.71,4.45l3.22-.17,2.89-.85-11.33-4.76L140.73,52.51Z"/><polygon class="cls-3" points="415.96 56.14 408.94 63.71 409.65 63.67 416.8 55.71 415.96 56.14"/><path class="cls-4" d="M409.77,58.68a48.47,48.47,0,0,0-7.23,10.92c3.16.76,6.39-5.89,6.39-5.89l7-7.57Z"/><path class="cls-4" d="M388.61,64.29s-4,5.14-5.51,9.18l-.38-7.12-2.69.15,1.17,21.62,1.5,1.32.6-4.13,1.1-6.07,2.36-6.39,3.1-5.11,3.08-4.2Z"/><path class="cls-4" d="M394.38,63l.35,6.47s3.32-6.86,6-8.36a14.52,14.52,0,0,1,5.84-1.59S393.83,69.27,394.08,85a7,7,0,0,1-2.35-.5l-.66-20.66Z"/><path class="cls-3" d="M394.08,85l1.45-.7S393.67,71.9,406.2,60.57c-1,.22-1.15.22-1.15.22S393.79,70.18,394.08,85Z"/><path class="cls-3" d="M382.68,89.43a32.82,32.82,0,0,1,10.24-25.9c1-.76,1.46-.49,1.46-.49s-11.81,11.78-10.68,26.33Z"/><path class="cls-4" d="M160.66,58.57s7.94,8,7.78,10.28l3.22-.17-6.49-9.52Z"/><polygon class="cls-4" points="240.61 79.6 237.32 71.92 235.76 72.19 238.22 79.48 240.61 79.6"/><path class="cls-3" d="M233.75,71.39s3,6.6,3.67,8.79a2.57,2.57,0,0,0,1.65-.09s-3.15-9.39-4.6-10S233.75,71.39,233.75,71.39Z"/><rect class="cls-5" x="19.74" y="86.63" width="0.87" height="5.55" transform="translate(-4.78 1.22) rotate(-3.08)"/><rect class="cls-5" x="21.97" y="83.67" width="0.87" height="8.39" transform="translate(-4.7 1.33) rotate(-3.08)"/><rect class="cls-5" x="1.26" y="75.77" width="0.42" height="5.24" transform="translate(-4.22 0.19) rotate(-3.08)"/><rect class="cls-5" x="4.43" y="76.22" width="0.35" height="5.01" transform="translate(-4.23 0.36) rotate(-3.08)"/><rect class="cls-5" x="8.67" y="77.49" width="0.35" height="3.27" transform="translate(-4.24 0.59) rotate(-3.08)"/><rect class="cls-3" x="5.21" y="76.49" width="0.45" height="3.18" transform="translate(-4.19 0.41) rotate(-3.08)"/><rect class="cls-5" x="5.88" y="95.2" width="0.57" height="5.84" transform="translate(-5.27 0.47) rotate(-3.08)"/><rect class="cls-5" x="1.66" y="94.61" width="0.53" height="5.75" transform="translate(-5.24 0.25) rotate(-3.08)"/><rect class="cls-5" x="9.7" y="93.35" width="0.53" height="5.25" transform="translate(-5.15 0.68) rotate(-3.08)"/><rect class="cls-3" x="30.18" y="78.09" width="0.75" height="15.45" transform="translate(-4.57 1.77) rotate(-3.08)"/><polygon class="cls-3" points="37.71 92.58 36.73 92.73 35.89 77.23 36.88 77.18 37.71 92.58"/><polygon class="cls-3" points="34.34 93.07 33.54 93.19 32.69 77.4 33.49 77.36 34.34 93.07"/><polygon class="cls-3" points="46.6 91.3 45.76 91.42 44.98 76.98 45.83 76.93 46.6 91.3"/><polygon class="cls-3" points="55.58 89.99 54.74 90.11 54.02 76.77 54.87 76.73 55.58 89.99"/><polygon class="cls-2" points="131.85 78.93 131.19 79.02 130.91 73.82 131.57 73.78 131.85 78.93"/><polygon class="cls-2" points="123.89 80.08 123.24 80.18 122.92 74.25 123.58 74.21 123.89 80.08"/><polygon class="cls-2" points="115.94 81.24 115.28 81.33 114.92 74.68 115.58 74.64 115.94 81.24"/><polygon class="cls-2" points="106.66 82.58 106 82.68 105.58 74.86 106.24 74.82 106.66 82.58"/><polygon class="cls-2" points="98.75 83.73 98.09 83.83 97.62 75.05 98.28 75.01 98.75 83.73"/><polygon class="cls-2" points="90.39 84.94 89.73 85.04 89.22 75.5 89.88 75.46 90.39 84.94"/><polygon class="cls-2" points="82.3 86.12 81.64 86.21 81.08 75.69 81.74 75.66 82.3 86.12"/><polygon class="cls-2" points="73.08 87.45 72.43 87.55 71.8 75.95 72.46 75.92 73.08 87.45"/><polygon class="cls-3" points="64.52 88.69 63.68 88.82 62.95 75.39 63.8 75.35 64.52 88.69"/><rect class="cls-2" x="126.05" y="51.53" width="0.76" height="17.53" transform="translate(-3.06 6.89) rotate(-3.08)"/><rect class="cls-2" x="117.96" y="53.45" width="0.76" height="16.04" transform="translate(-3.14 6.46) rotate(-3.08)"/><rect class="cls-2" x="110.11" y="55.14" width="0.88" height="14.08" transform="matrix(1, -0.05, 0.05, 1, -3.19, 6.04)"/><rect class="cls-2" x="102.14" y="56.26" width="0.88" height="14.08" transform="translate(-3.26 5.61) rotate(-3.08)"/><rect class="cls-2" x="93.93" y="57.01" width="0.88" height="14.08" transform="translate(-3.31 5.17) rotate(-3.08)"/><rect class="cls-2" x="85.68" y="57.98" width="0.88" height="14.08" transform="translate(-3.37 4.73) rotate(-3.08)"/><rect class="cls-2" x="77.28" y="58.43" width="0.88" height="14.08" transform="translate(-3.41 4.28) rotate(-3.08)"/><rect class="cls-2" x="69" y="62.19" width="0.88" height="8.78" transform="translate(-3.48 3.83) rotate(-3.08)"/><rect class="cls-2" x="60.55" y="64" width="0.88" height="8.78" transform="translate(-3.59 3.38) rotate(-3.08)"/><rect class="cls-2" x="51.91" y="65.3" width="0.88" height="8.78" transform="matrix(1, -0.05, 0.05, 1, -3.67, 2.92)"/><path class="cls-3" d="M1.25,93.82l0,.85,4.7.88s11.69-5,15.1-9.22,2.16-7.64,2.16-7.64S10.74,73,5.23,73.6C3.07,74.31,1,75,1,75v.82a35.83,35.83,0,0,1,5.17,1c2.54.72,9.79,3.42,9.16,6.22S11.57,89.43,1.25,93.82Z"/><path class="cls-5" d="M1.43,74.9s13.4,2.3,14.11,6.24c.39,2.28-.34,3.88-2.38,5.95S7,91.55,2.28,93.72c3.33.5,4.06.64,4.06.64S17.12,89.94,20.42,86c2.36-3.22,2.22-5.62.59-6.89-2-2.22-6.87-3.39-6.87-3.39L5.23,73.6Z"/><polygon class="cls-3" points="25.43 79.16 28.86 78.98 29.7 94.4 27.31 95.66 25.43 79.16"/><path class="cls-2" d="M421.31,54.09s10.05-6.52,8.22-13.65S418.46,25.68,412.2,24.13s-7.56,7.73-7.56,7.73L380.47,48.34l6,3Z"/><polygon class="cls-4" points="190.29 56.2 195.36 56.66 195.22 53.96 192.72 54.45 190.29 56.2"/><path class="cls-4" d="M188.05,63.45s-1.15-4.1,1-6.46c-.77.19-2.25,2.28-2.25,2.28l-.77,2.9.26.84Z"/><polygon class="cls-4" points="204.51 58.36 208.32 59 208.19 56.55 205.84 56.96 204.51 58.36"/><path class="cls-4" d="M201,66.38l2.34.07s-2.81-3.38,1.21-8.08c-.49-.23-1.64.73-1.64.73l-1.57,3.42-.41,2.61Z"/><path class="cls-2" d="M236.2,70.13l1-1.21a10,10,0,0,1,.48-6.38c.13-1.13-1.06.65-1.06.65l-1.17,3.52.11,2.07Z"/><polygon class="cls-3" points="222.67 56.74 222.72 58.46 223.46 58.42 223.37 56.71 222.67 56.74"/><path class="cls-4" d="M218.65,69.09l1-.76s-1.67-2.09-.3-5.52a6,6,0,0,1,5.11-3.55l-.07-1.32-1.69.52L220,60.32l-2.36,2.9-.53,3.11.6,1.8Z"/><polygon class="cls-4" points="241.12 59.18 241.3 62.52 237.69 62.53 238.61 60.78 240.07 59.56 241.12 59.18"/><polygon class="cls-4" points="258.86 60.69 259.05 64.19 256.58 64.5 257.67 61.72 258.86 60.69"/><polygon class="cls-4" points="277.7 60.76 277.9 64.43 277 64.47 277.22 61.81 277.7 60.76"/><polygon class="cls-4" points="158.37 46.95 164.31 45.73 164.36 50.47 158.37 46.95"/><polygon class="cls-4" points="156.92 43.05 157.13 46.97 151.4 44.3 156.92 43.05"/><polygon class="cls-4" points="145.84 41.12 152.06 40.41 150.89 44.04 145.53 41.26 145.84 41.12"/><polygon class="cls-4" points="141.69 38.11 147.15 37.82 148.29 38.96 145.31 40.4 141.69 38.11"/><polygon class="cls-4" points="139.34 35.05 144.25 34.92 145.6 36.66 141.5 37.75 139.34 35.05"/><polygon class="cls-4" points="138.36 32.28 141.64 32.11 142.74 34.33 138.82 33.4 138.36 32.28"/><polygon class="cls-4" points="295.15 61.61 295.31 64.58 296.85 64.5 296.52 62.16 295.15 61.61"/><polygon class="cls-4" points="174.97 60.52 173.44 59.99 173.26 58.84 174.73 56.05 174.97 60.52"/><path class="cls-4" d="M333.19,72.65l.26,24.06,1.51-.08,2.12-15.55,2.86-8.79-2.38.13a35.63,35.63,0,0,0-2.22,7.32l.11-7.73Z"/><path class="cls-4" d="M352.44,94.72,351,94l-.92-22.75,3-.16.31,5.74s1.51-5.69,3.34-7,2,.64,2,.64L358.49,72l-1.71,3.5-1.91,5.77-1.21,5.32-.76,6.94Z"/><path class="cls-4" d="M365.88,68.65l.9,22.27,1.73,1.19.58-4.73,1.3-6.81,2.75-7.65,3.41-4.47-.1-1.77-2.55.47-1.38,1.14a36.48,36.48,0,0,0-3.38,7.5l-.39-7.3Z"/><path class="cls-3" d="M339.94,72.29s-6,9.61-5,24.35l1.36-.07a47.11,47.11,0,0,1,5.13-24.35Z"/><path class="cls-3" d="M361.08,69.59s-7.83,9.41-7.51,25.07l-1.13.06s-.49-14.68,6.91-25A1.34,1.34,0,0,1,361.08,69.59Z"/><path class="cls-3" d="M368.51,92.11l1.44-.08s-2.17-12.23,8.54-24.93c-.9-.56-1.91.47-1.91.47A36.5,36.5,0,0,0,368.51,92.11Z"/><path class="cls-6" d="M315.39,86.31s29.33-1.38,47.21-4.62c20.27-4,38.92-9.1,41.48-11.14s-.9,2.22-.9,2.22S386.46,80.08,357,84.61c-31.39,3.7-43.45,4.11-43.45,4.11Z"/><path class="cls-4" d="M175.73,62.71s8.8,4.11,9.75,21.83l-2.46.13-.19-1-1.21-6.12-2.54-6.19-3.13-4.87-3.18-3.44-.05-1Z"/><path class="cls-6" d="M313.72,91.51s29.74-.15,57.88-6.89c18.11-4.46,31.54-9,31.54-9l.08,1.43S386.79,84.57,359.81,89A340.85,340.85,0,0,1,313,93.71Z"/><path class="cls-3" d="M172.06,62l0,.91s10,8.68,10.22,21.79l.68,0s.49-11.86-10.07-21.81l0-.9Z"/><path class="cls-4" d="M187.64,65.33s8.8,4.11,9.75,21.83l-3.29.18-.41-3.52-.93-4.41L190.61,74l-2.76-4.81-3.18-3.44-.05-1Z"/><path class="cls-3" d="M184,64.63l0,.91s9.14,8.73,9.4,21.83l.68,0a33.28,33.28,0,0,0-9.24-21.86l0-.9Z"/><path class="cls-4" d="M202.36,67.88s8.61,4.48,8.8,22.23l-3.3,0-.26-3.53-.73-4.45L205,76.63l-2.55-4.93-3-3.58v-1Z"/><path class="cls-3" d="M198.73,67v.91s8.75,9.11,8.44,22.22h.68a33.28,33.28,0,0,0-8.29-22.24V67Z"/><path class="cls-4" d="M218.65,69.09s7.27,10.83,9.27,22.42l-2.54.14L223,84.51l-3.06-6.83L217,71.6l-.71-2.39Z"/><path class="cls-3" d="M215.4,69.9s7.57,13.33,8.91,21.81l1.09-.06s-2.8-12.86-8.42-21.28C215.92,69.24,215.4,69.9,215.4,69.9Z"/><path class="cls-6" d="M181.55,70.06s39.95,8.45,60,9.24c6,4.1-1.45,3.34-1.45,3.34S193,76.2,181.68,72.59Z"/><path class="cls-6" d="M173.28,74.73S215.88,86,240.8,86.86c.35-1.7-.12-2.32-.12-2.32s-41.89-4.39-63.43-11.4Z"/><path class="cls-3" d="M421.4,36a11.4,11.4,0,0,1,7.67,6.38l-.22.57s-1.21-6.44-12.09-7.23l.11-.64Z"/><path class="cls-3" d="M417.35,32.88s7.08-.86,10.08,3.68a31.25,31.25,0,0,1,2.09,3.88s-1.22-4.45-3.12-5.76S421.2,31.94,416,31.91C416.26,32.54,417.35,32.88,417.35,32.88Z"/><polygon class="cls-4" points="314.11 62.48 314.19 63.94 317.14 64.07 317.05 62.28 314.11 62.48"/><path class="cls-3" d="M171.79,60.44s1-4,2.45-5.35a20.45,20.45,0,0,1,6.85-3.71,13,13,0,0,1,2.17-.12l.19,3.58-6.81.54-.72-.12a8.21,8.21,0,0,0-2.53,5.1C172.32,61,171.79,60.44,171.79,60.44Z"/><path class="cls-6" d="M171.88,76.2s42.83,12.5,69.81,13.45l.09,1.75A282.62,282.62,0,0,1,206,86.65c-18.81-3.8-34-8.13-34-8.13Z"/><polygon class="cls-4" points="255.86 72.98 258.35 72.85 260.87 82.37 257.97 82.2 255.86 72.98"/><polygon class="cls-4" points="295.48 73.74 296.09 84.97 297.17 82.71 298.21 73.6 295.48 73.74"/><path class="cls-4" d="M319,73s-3.58,11-3.26,20-1.66-8.28-1.66-8.28l.5-1.23.1-10.23Z"/><polygon class="cls-4" points="332.89 61.04 332.97 62.5 336.57 62.6 336.47 60.81 332.89 61.04"/><polygon class="cls-4" points="179.3 52.91 183.29 51.31 183.45 54.37 180.59 54.31 179.3 52.91"/><path class="cls-3" d="M316,83.34l.94,17.43s-.32,7.41-17.6,7.89-48.63-.89-48.63-.89-9.18.22-9.74-10.2l-.8-14.92,1.45-3.34Z"/><polygon class="cls-4" points="163.81 53.31 164.14 57.65 162.16 56.78 162.78 54.74 163.81 53.31"/><polygon class="cls-4" points="154.62 50.58 154.95 54.92 152.97 54.05 153.59 52.01 154.62 50.58"/><polygon class="cls-4" points="147.19 47.04 147.52 51.38 145.24 50.83 145.87 48.78 147.19 47.04"/><path class="cls-3" d="M145.52,51A6.87,6.87,0,0,1,147.35,47a3.16,3.16,0,0,0-1.23-.3,7.84,7.84,0,0,0-1.59,4C145.08,51.42,145.52,51,145.52,51Z"/><polygon class="cls-4" points="141.82 43.67 141.78 48.7 139.57 47.28 140.36 45.3 141.82 43.67"/><path class="cls-4" d="M159.19,64l2.32-.13s-3.23-5.71-5.38-7a11.15,11.15,0,0,0-3.72-1.56l.06,1.11,2.33,2.48,2.39,2.31Z"/><path class="cls-3" d="M139.84,47.44A6.87,6.87,0,0,1,142,43.67a3.16,3.16,0,0,0-1.2-.41,7.84,7.84,0,0,0-1.92,3.84C139.36,47.87,139.84,47.44,139.84,47.44Z"/><path class="cls-4" d="M133.37,41.69a6.85,6.85,0,0,1,1.68-3.94c.35,1.07.36.91.36.91a5,5,0,0,0-.61,3.3l-1.55.08Z"/><path class="cls-2" d="M159.19,64l-.36,0C158,61.74,152,56.47,152,56.47l-.06-1.15.48,0,.06,1.11S159,62,159.19,64Z"/><path class="cls-4" d="M132.32,38.92A6.85,6.85,0,0,1,134,35c.35,1.07.36.91.36.91a5,5,0,0,0-.61,3.3l-1.55.08Z"/><path class="cls-4" d="M138.59,49.49s8.4,6.45,9,11.89l3.52-.19-3.46-8.05-7.16-3.75Z"/><rect class="cls-6" x="170.36" y="60.96" width="0.33" height="12.72" transform="translate(20.2 -37.63) rotate(13.38)"/><path class="cls-4" d="M153.52,64.3l2.54-.14s-3.7-7.71-6.59-10.8a7.26,7.26,0,0,0-4.67-1.3l0,.89,4.48,4.91,2.93,4Z"/><path class="cls-2" d="M144.49,51.91l.06,1.06s7.42,7.11,8.7,11.35h.27a22,22,0,0,0-4-6.22c-2.87-3.41-4.67-5.14-4.67-5.14l0-.89Z"/><rect class="cls-6" x="159.18" y="58.43" width="0.33" height="12.72" transform="translate(19.31 -35.11) rotate(13.38)"/><rect class="cls-6" x="150.09" y="55.1" width="0.33" height="13.22" transform="translate(18.35 -33.09) rotate(13.38)"/><rect class="cls-6" x="142.65" y="51.82" width="0.33" height="14.02" transform="translate(17.49 -31.44) rotate(13.38)"/><polygon class="cls-4" points="400.25 45.77 400.75 48.96 408.22 47.45 401.65 45.69 400.25 45.77"/><polygon class="cls-4" points="407.73 42.68 407.89 45.59 414.99 44.28 414.96 43.69 413.04 43.18 411.07 42.65 408.81 42.23 407.73 42.68"/><polygon class="cls-4" points="428.61 39.49 427.43 39.56 426.74 37.73 426.87 36.16 428.34 37.93 428.61 39.49"/><polygon class="cls-4" points="428.81 43.21 426.51 43.34 426.32 39.74 426.96 39.58 427.77 40.36 428.52 41.77 428.81 43.21"/><polygon class="cls-4" points="426.67 47.16 424.36 47.28 424.16 43.58 425.11 43.14 426.21 45.13 426.67 47.16"/><polygon class="cls-4" points="422.02 51.07 419.84 51.19 419.64 47.54 420.59 47.08 421.23 48.29 421.98 50.28 422.02 51.07"/><polygon class="cls-4" points="414.6 54.45 412.42 54.57 412.22 50.92 413.16 50.46 413.81 51.67 414.56 53.66 414.6 54.45"/><path class="cls-4" d="M419.44,40.63,413.16,42l-.62-2.44,1.23-.84,2,.31s2.09.59,2.18.58,1.66.41,1.66.41Z"/><polygon class="cls-4" points="418.56 32.42 418.68 34.66 422.56 34.76 421.68 32.95 420.16 32.73 418.56 32.42"/><polygon class="cls-4" points="417.05 35.41 417.17 37.66 421.06 37.76 421.6 36.45 418.65 35.73 417.05 35.41"/><path class="cls-4" d="M132.59,35.31a6.43,6.43,0,0,1,1.11-2.78c.25,1.07.26.91.26.91s-.59,0-.41,2.16l-1,.06Z"/><polygon class="cls-4" points="172.49 49.03 172.65 52.01 168.44 50.74 169 49.78 170.82 49.12 172.49 49.03"/><ellipse class="cls-3" cx="279.11" cy="29.98" rx="28.67" ry="138.9" transform="translate(244.91 308.6) rotate(-89.13)"/><path class="cls-3" d="M303.47,92l-55.26-3.49a7.3,7.3,0,0,1-6.72-7.8l.11-1.44,74,2.91.43,1.13C314.55,86.45,307.46,92.33,303.47,92Z"/><path class="cls-3" d="M399.23,70.55,400,85.78s25.27,5.1,32-.61S443,75.44,443,73.88s-.7-13-.7-13,.59-3.49-8.74-4.88-12.25-1.9-12.25-1.9Z"/><path class="cls-3" d="M413.31,38.45a27.91,27.91,0,0,1,9.57,2.64c3.23,1.44,4.34,5.59,4.34,5.59l-.56.49s-.85-4-3.75-5.49a29.54,29.54,0,0,0-10.19-2.81C412.41,38.73,413.31,38.45,413.31,38.45Z"/><path class="cls-3" d="M407.9,42.22s-.64,0,.36-.35c5.87,1.17,7.66,1.57,10.48,3s3.77,5.79,3.77,5.79l-.49.36s-1.35-5.21-4.5-6.21A49.12,49.12,0,0,0,407.9,42.22Z"/><path class="cls-3" d="M400.84,45s7.07.89,11.5,4.08c3.19,3.11,2.85,5.79,2.85,5.79l-.72.39a7.58,7.58,0,0,0-4.33-6.81,45.64,45.64,0,0,0-11.06-2.91Z"/><path class="cls-3" d="M405.45,58a10.46,10.46,0,0,0-4.14-6.45c-3.43-2.22-9.86-3.85-9.86-3.85l-1.22.5s7.26,1.85,10.11,4a9.53,9.53,0,0,1,4,6.4C404.57,60.4,405.45,58,405.45,58Z"/><path class="cls-3" d="M379.35,50.62s13.1,2.37,13.47,11.09c-1.26.74-1.51.56-1.51.56a6.36,6.36,0,0,0-1.51-4.77c-1.89-2.11-3.89-4.35-11.68-6.38C376.48,50.77,379.35,50.62,379.35,50.62Z"/><path class="cls-3" d="M362.66,53.77s7.59,1.8,11,5.27c1.92,1.82,2.57,6.68,2.57,6.68l1.63-.09s-.45-4.73-2.88-7.1-8.63-5.06-10.57-5.34S362.66,53.77,362.66,53.77Z"/><path class="cls-3" d="M360.34,67.83s-.39-4.59-2.85-7.44c-3.1-2.84-8.58-4.88-8.58-4.88l-2.66.14s7.65,1.59,10.61,6.77a10.73,10.73,0,0,1,1.74,6.12Z"/><path class="cls-3" d="M340.86,69.5s-.32-5.13-2.21-7.25a17.89,17.89,0,0,0-3.52-3.12l-.05-.95-2.66.14.48,2.94s3.43-.08,4.37,1.65a16.89,16.89,0,0,1,1.91,7C340.46,70.35,340.86,69.5,340.86,69.5Z"/><path class="cls-3" d="M314,60.12l.13,2.36s2.32-.9,3.21,2.09c.51,1.6.62,2.59.9,6.65,1.6,1.26,2.27.17,2.27.17a24.28,24.28,0,0,0-1.11-6.3c-.93-2.32-2.77-5-3.38-5.09,0-.79-.17-1.57-.17-1.57l-1.06.06.09,1.58Z"/><path class="cls-3" d="M295.11,60.75l1.81-.1a34,34,0,0,1,1.68,7.6l.2,3.76-2,.11s-.28-7.93-.77-9a8.29,8.29,0,0,0-.92-1.55Z"/><polygon class="cls-3" points="295.66 59.66 295.74 61.15 296.47 61.11 296.38 59.48 295.66 59.66"/><path class="cls-3" d="M277.7,60.76l-1.81.1a43.5,43.5,0,0,0-.75,8.22l.2,3.76,2-.11s-.57-7.91-.19-9a11.62,11.62,0,0,0,.51-2Z"/><polygon class="cls-3" points="277.11 59.85 277.19 61.33 276.47 61.37 276.38 59.74 277.11 59.85"/><path class="cls-3" d="M258.86,60.68s-2.81,1.71-2.68,11l-1.66.09s-.25-5.74.75-7.89A37.16,37.16,0,0,1,257,60.49l1.84-.21Z"/><polygon class="cls-3" points="258.06 59.23 258.14 60.58 257.35 60.62 257.27 59.17 258.06 59.23"/><path class="cls-3" d="M236.2,70.13s-1-6.77,4.42-10.42c.64-.38.49-.52.49-.52l-2,.11a9.53,9.53,0,0,0-3.47,4.24,16.19,16.19,0,0,0-1.18,6.61Z"/><rect class="cls-3" x="239.75" y="58.42" width="0.6" height="1.32" transform="translate(-2.83 13) rotate(-3.08)"/><path class="cls-3" d="M215.87,68.21s0-4.26,1.85-6.62a13.48,13.48,0,0,1,4.59-3.54l2.1-.11s-4.08,1.73-5.88,5.22a5.56,5.56,0,0,0,.12,5.93Z"/><path class="cls-3" d="M201,66.38s1.3-7,4.24-8.49a18.81,18.81,0,0,1,3-1.33l0-.58-1.48.08s-3.91,1.34-5.42,4.43a12,12,0,0,0-1.44,5.15Z"/><polygon class="cls-3" points="206.99 54.55 207.09 56.45 208.18 56.39 208.09 54.64 206.99 54.55"/><path class="cls-3" d="M186.32,63s.48-3.62,2.07-5.39S195.22,54,195.22,54l-2.46.13a15.26,15.26,0,0,0-4.42,2.13A10.9,10.9,0,0,0,185,62.9C186,63.35,186.32,63,186.32,63Z"/><polygon class="cls-3" points="193.37 52.13 193.49 54.3 194.26 54.26 194.14 52.17 193.37 52.13"/><polygon class="cls-3" points="181.48 50.42 181.54 51.64 182.02 51.61 181.94 50.28 181.48 50.42"/><path class="cls-3" d="M161.47,56.82a13.08,13.08,0,0,1,1.5-4A19.38,19.38,0,0,1,166.3,50s4-1.6,5.1-1.28l1.08-.06,0,.33a11.82,11.82,0,0,0-4.3,1.59c-2.6,1.45-4,2.31-4.48,3a20.3,20.3,0,0,0-1.14,3.72Z"/><rect class="cls-3" x="171.04" y="47.88" width="0.45" height="1.13" transform="matrix(1, -0.05, 0.05, 1, -2.36, 9.29)"/><path class="cls-3" d="M153.25,54.19a6.87,6.87,0,0,1,1.82-3.94,3.16,3.16,0,0,0-1.23-.3,7.84,7.84,0,0,0-1.59,4C152.81,54.65,153.25,54.19,153.25,54.19Z"/><rect class="cls-5" x="8.73" y="80.33" width="2.79" height="10.14" transform="translate(-4.58 0.67) rotate(-3.08)"/><rect class="cls-5" x="7.98" y="66.4" width="3.62" height="9.85" transform="translate(-3.82 0.63) rotate(-3.08)"/><rect class="cls-5" x="12.52" y="67.15" width="1.03" height="9.87" transform="translate(-3.86 0.81) rotate(-3.08)"/><path class="cls-3" d="M320.59,73.28s-3.89,13.89-3.84,24.34c-5.12-.53-.64-11.29-.64-11.29S317.17,77.89,319,73C320.55,72.6,320.59,73.28,320.59,73.28Z"/><rect class="cls-5" x="15.05" y="67.91" width="1.09" height="8.03" transform="translate(-3.85 0.94) rotate(-3.08)"/><rect class="cls-5" x="16.75" y="69.72" width="0.76" height="4.1" transform="translate(-3.84 1.03) rotate(-3.08)"/><rect class="cls-5" x="24.92" y="80.29" width="1.98" height="15.44" transform="translate(-4.7 1.52) rotate(-3.08)"/><polygon class="cls-5" points="8.46 80.41 10.09 79.42 10.29 80.8 8.9 80.87 8.46 80.41"/><polygon class="cls-3" points="13.53 95.31 11.72 96.5 10.87 80.77 12.74 80.67 13.53 95.31"/><rect class="cls-2" x="133.9" y="49.73" width="0.85" height="19.67" transform="translate(-3.01 7.31) rotate(-3.08)"/><path class="cls-5" d="M9.31,64.86l.08,1.55s17.74,3.18.7,13l.13,2.45,14.28.25L30,78.35l6.15-.84L139.86,74l17.57-1.57-9-3.18-8.24-2.35-4.62,1L44.77,70.76,133.7,50.35l7.72-.82-6-5.22-5.91.89L32.67,66.75S30,63.24,21.25,61.25C15.48,62.83,9.31,64.86,9.31,64.86Z"/><path class="cls-6" d="M12,65.45s16.37,5-.84,13.87c9.5.14,13.06.25,13.06.25L29.61,76l6.84-.37L139,72.13,150.36,70,140,67.62l-4.28,1.1L34.1,72.34l0-1.48L135,48.16,132,45.85,32.85,68.18A22.61,22.61,0,0,0,21.5,62.79c-3.89,1-9.47,2.65-9.47,2.65Z"/><path class="cls-3" d="M144.83,66.59c7.87,2.75,18.41,6.11,23.77,6.39a1.47,1.47,0,0,0,.59-.09c4.23-1.55,9.1-2.84,10.18-3.09a1.19,1.19,0,0,1,1.45.46h0c.48,1,.4,1.92-.52,2.32L174,74.82l-.17.06L169,76.27a1.43,1.43,0,0,1-.68,0c-2.77-.54-21.69-4.34-30-9.44-9-5.52-9-15.51-9-15.51l1,2.56A25.58,25.58,0,0,0,144.83,66.59Z"/><polygon class="cls-5" points="11.72 96.5 9.69 95.95 9.44 91.19 11.42 91.08 11.72 96.5"/><rect class="cls-3" x="5.31" y="95.23" width="0.5" height="3.11" transform="translate(-5.2 0.44) rotate(-3.08)"/><polygon class="cls-5" points="7.71 66.5 9.69 65.83 9.76 67.07 8.78 67.66 7.71 66.5"/><polygon class="cls-3" points="253.94 73.09 256.4 81.56 258.25 81.46 255.86 72.98 253.94 73.09"/><polygon class="cls-3" points="275.35 72.84 276.29 83.31 278.01 83.21 276.9 73.71 275.35 72.84"/><polygon class="cls-3" points="297.37 74.12 296.35 83.87 298.27 83.77 298.91 74.04 297.37 74.12"/><path class="cls-1" d="M264.35,108.27l-13.66-.5s-9.17.48-9.74-10.2l-.19-3.44h1.38s-.29,5.91,4.46,7.29,17.5,2.26,17.5,2.26Z"/><path class="cls-1" d="M243.65,94.35l.13,2.37s1.69,2.43,16,3.69,40.77,3.32,40.77,3.32,8.31.15,11-3.47l3.2-4.31-.12-2.21L311,97.93s-2.71,3.28-10.61,2.87-49.86-4.08-49.86-4.08S244.68,95.57,243.65,94.35Z"/><path class="cls-1" d="M314.81,87.08l0,3.31-3.43,3.95s-1.55,3.51-12.35,3.16C290.24,97,264.18,95,264.18,95l-13.75-1.6s-6.58-1-7-3.58c0,0,3.51,1.67,12.1,2.16S293,94.3,293,94.3s11,1.32,14.95-.63S314.81,87.08,314.81,87.08Z"/><path class="cls-1" d="M399.3,72.6l.18,3.26,17.17,1.42s10.7,1.86,16.87-4.11c5.75-5.55,7.57-7.37,7.57-7.37l-.11-2-9.65,8.55s-4.19,2.93-12.55,2.24S399.3,72.6,399.3,72.6Z"/><path class="cls-1" d="M399.67,78.72l.16,3L420.36,83s7.9.28,11.69-3.27,9.27-9.38,9.27-9.38L441.22,68s-6.64,7.76-9.59,9.65-4.15,2.13-6.39,2.34S399.67,78.72,399.67,78.72Z"/><path class="cls-3" d="M281.14,5C198.81,3.76,131.83,18.35,131.54,37.6s66.22,35.86,148.55,37.1S429.39,61.35,429.68,42.1,363.47,6.25,281.14,5ZM428.47,41.23c-.27,17.63-66.83,30.91-148.68,29.67s-148-16.53-147.71-34.15S198.92,5.84,280.76,7.07,428.74,23.6,428.47,41.23Z"/><path class="cls-3" d="M412.56,39.88S405.81,46.95,376,52.47a477.73,477.73,0,0,1-83.69,7.86,611.33,611.33,0,0,1-64.75-2.6c-26.48-2.28-64.16-9.2-77.53-17.33s-9.84-12.53-9.84-12.53Z"/><path class="cls-3" d="M413.53,24.69c4.68,3.18,8.07,6.5,8,10-.26,17.22-63.75,30.23-141.81,29S138.62,47.61,138.88,30.38c.05-3.34,2.49-6.52,6.94-9.47-7.94,3.83-12.39,8.13-12.46,12.71-.13,8.74,15.63,16.92,41.33,23.11,26.59,6.41,63.82,10.7,105.07,11.33,81.12,1.23,147.1-12.2,147.37-30C427.21,33.35,421.78,28.86,413.53,24.69Z"/><ellipse class="cls-7" cx="278.02" cy="30.03" rx="27.25" ry="134.1" transform="translate(243.79 307.57) rotate(-89.13)"/><ellipse class="cls-6" cx="272.63" cy="21.08" rx="17.29" ry="87.06" transform="translate(247.42 293.36) rotate(-89.13)"/><ellipse class="cls-3" cx="272.18" cy="22.12" rx="13.82" ry="65.92" transform="translate(243.08 293.65) rotate(-88.53)"/><ellipse class="cls-4" cx="271.85" cy="21.78" rx="12.76" ry="64.04" transform="translate(243.1 292.98) rotate(-88.53)"/></svg>