<svg id="Layer_1" data-name="Layer 1" xmlns="http://www.w3.org/2000/svg" xmlns:xlink="http://www.w3.org/1999/xlink" viewBox="0 0 460 169"><defs><style>.cls-1{fill:#84e895;}.cls-2{fill:#415947;}.cls-3{fill:#f7e476;}.cls-4{fill:#f3d632;}.cls-5{fill:#9dedaa;}.cls-6{fill:#f7f7f7;}.cls-7{fill:#f1f1f1;}.cls-8{fill:url(#linear-gradient);}.cls-9{fill:url(#linear-gradient-2);}.cls-10{fill:url(#linear-gradient-3);}.cls-11{fill:url(#linear-gradient-4);}.cls-12{fill:url(#linear-gradient-5);}.cls-13{fill:url(#linear-gradient-6);}.cls-14{fill:url(#linear-gradient-7);}.cls-15{fill:url(#linear-gradient-8);}.cls-16{fill:url(#linear-gradient-9);}.cls-17{fill:url(#linear-gradient-10);}.cls-18{fill:url(#linear-gradient-11);}.cls-19{fill:url(#linear-gradient-12);}.cls-20{fill:url(#linear-gradient-13);}.cls-21{fill:url(#linear-gradient-14);}.cls-22{fill:url(#linear-gradient-15);}.cls-23{fill:url(#linear-gradient-16);}.cls-24{fill:url(#linear-gradient-17);}.cls-25{fill:url(#linear-gradient-18);}.cls-26{fill:url(#linear-gradient-19);}.cls-27{fill:url(#linear-gradient-20);}.cls-28{fill:url(#linear-gradient-21);}.cls-29{fill:url(#linear-gradient-22);}.cls-30{fill:url(#linear-gradient-23);}.cls-31{fill:url(#linear-gradient-24);}.cls-32{fill:url(#linear-gradient-25);}.cls-33{fill:url(#linear-gradient-26);}.cls-34{fill:url(#linear-gradient-27);}.cls-35{fill:url(#linear-gradient-28);}.cls-36{fill:url(#linear-gradient-29);}.cls-37{fill:url(#linear-gradient-30);}.cls-38{fill:url(#linear-gradient-31);}.cls-39{fill:url(#linear-gradient-32);}.cls-40{fill:url(#linear-gradient-33);}.cls-41{fill:url(#linear-gradient-34);}.cls-42{fill:url(#linear-gradient-35);}.cls-43{fill:url(#linear-gradient-36);}.cls-44{fill:url(#linear-gradient-37);}.cls-45{fill:url(#linear-gradient-38);}.cls-46{fill:url(#linear-gradient-39);}.cls-47{fill:url(#linear-gradient-40);}.cls-48{fill:url(#linear-gradient-41);}.cls-49{fill:url(#linear-gradient-42);}.cls-50{fill:url(#linear-gradient-43);}.cls-51{fill:url(#linear-gradient-44);}.cls-52{fill:url(#linear-gradient-45);}.cls-53{fill:url(#linear-gradient-46);}.cls-54{fill:url(#linear-gradient-47);}.cls-55{fill:url(#linear-gradient-48);}</style><linearGradient id="linear-gradient" x1="72.88" y1="39.8" x2="72.88" y2="34.13" gradientUnits="userSpaceOnUse"><stop offset="0" stop-color="#fff" stop-opacity="0"/><stop offset="1" stop-color="#f3d632"/></linearGradient><linearGradient id="linear-gradient-2" x1="81.39" y1="39.8" x2="81.39" y2="34.13" xlink:href="#linear-gradient"/><linearGradient id="linear-gradient-3" x1="89.9" y1="39.8" x2="89.9" y2="34.13" xlink:href="#linear-gradient"/><linearGradient id="linear-gradient-4" x1="98.41" y1="39.8" x2="98.41" y2="34.13" xlink:href="#linear-gradient"/><linearGradient id="linear-gradient-5" x1="106.92" y1="39.8" x2="106.92" y2="34.13" xlink:href="#linear-gradient"/><linearGradient id="linear-gradient-6" x1="115.43" y1="39.8" x2="115.43" y2="34.13" xlink:href="#linear-gradient"/><linearGradient id="linear-gradient-7" x1="18.89" y1="39.8" x2="18.89" y2="34.13" xlink:href="#linear-gradient"/><linearGradient id="linear-gradient-8" x1="27.4" y1="39.8" x2="27.4" y2="34.13" xlink:href="#linear-gradient"/><linearGradient id="linear-gradient-9" x1="35.91" y1="39.8" x2="35.91" y2="34.13" xlink:href="#linear-gradient"/><linearGradient id="linear-gradient-10" x1="44.42" y1="39.8" x2="44.42" y2="34.13" xlink:href="#linear-gradient"/><linearGradient id="linear-gradient-11" x1="52.94" y1="39.8" x2="52.94" y2="34.13" xlink:href="#linear-gradient"/><linearGradient id="linear-gradient-12" x1="61.45" y1="39.8" x2="61.45" y2="34.13" xlink:href="#linear-gradient"/><linearGradient id="linear-gradient-13" x1="182.08" y1="39.8" x2="182.08" y2="34.13" xlink:href="#linear-gradient"/><linearGradient id="linear-gradient-14" x1="190.59" y1="39.8" x2="190.59" y2="34.13" xlink:href="#linear-gradient"/><linearGradient id="linear-gradient-15" x1="199.11" y1="39.8" x2="199.11" y2="34.13" xlink:href="#linear-gradient"/><linearGradient id="linear-gradient-16" x1="207.62" y1="39.8" x2="207.62" y2="34.13" xlink:href="#linear-gradient"/><linearGradient id="linear-gradient-17" x1="216.13" y1="39.8" x2="216.13" y2="34.13" xlink:href="#linear-gradient"/><linearGradient id="linear-gradient-18" x1="224.64" y1="39.8" x2="224.64" y2="34.13" xlink:href="#linear-gradient"/><linearGradient id="linear-gradient-19" x1="127.38" y1="39.8" x2="127.38" y2="34.13" xlink:href="#linear-gradient"/><linearGradient id="linear-gradient-20" x1="135.89" y1="39.8" x2="135.89" y2="34.13" xlink:href="#linear-gradient"/><linearGradient id="linear-gradient-21" x1="144.4" y1="39.8" x2="144.4" y2="34.13" xlink:href="#linear-gradient"/><linearGradient id="linear-gradient-22" x1="152.91" y1="39.8" x2="152.91" y2="34.13" xlink:href="#linear-gradient"/><linearGradient id="linear-gradient-23" x1="161.42" y1="39.8" x2="161.42" y2="34.13" xlink:href="#linear-gradient"/><linearGradient id="linear-gradient-24" x1="169.93" y1="39.8" x2="169.93" y2="34.13" xlink:href="#linear-gradient"/><linearGradient id="linear-gradient-25" x1="290.77" y1="39.8" x2="290.77" y2="34.13" xlink:href="#linear-gradient"/><linearGradient id="linear-gradient-26" x1="299.28" y1="39.8" x2="299.28" y2="34.13" xlink:href="#linear-gradient"/><linearGradient id="linear-gradient-27" x1="307.79" y1="39.8" x2="307.79" y2="34.13" xlink:href="#linear-gradient"/><linearGradient id="linear-gradient-28" x1="316.3" y1="39.8" x2="316.3" y2="34.13" xlink:href="#linear-gradient"/><linearGradient id="linear-gradient-29" x1="324.81" y1="39.8" x2="324.81" y2="34.13" xlink:href="#linear-gradient"/><linearGradient id="linear-gradient-30" x1="333.32" y1="39.8" x2="333.32" y2="34.13" xlink:href="#linear-gradient"/><linearGradient id="linear-gradient-31" x1="236.79" y1="39.8" x2="236.79" y2="34.13" xlink:href="#linear-gradient"/><linearGradient id="linear-gradient-32" x1="245.3" y1="39.8" x2="245.3" y2="34.13" xlink:href="#linear-gradient"/><linearGradient id="linear-gradient-33" x1="253.81" y1="39.8" x2="253.81" y2="34.13" xlink:href="#linear-gradient"/><linearGradient id="linear-gradient-34" x1="262.32" y1="39.8" x2="262.32" y2="34.13" xlink:href="#linear-gradient"/><linearGradient id="linear-gradient-35" x1="270.83" y1="39.8" x2="270.83" y2="34.13" xlink:href="#linear-gradient"/><linearGradient id="linear-gradient-36" x1="279.34" y1="39.8" x2="279.34" y2="34.13" xlink:href="#linear-gradient"/><linearGradient id="linear-gradient-37" x1="399.46" y1="39.8" x2="399.46" y2="34.13" xlink:href="#linear-gradient"/><linearGradient id="linear-gradient-38" x1="407.97" y1="39.8" x2="407.97" y2="34.13" xlink:href="#linear-gradient"/><linearGradient id="linear-gradient-39" x1="416.48" y1="39.8" x2="416.48" y2="34.13" xlink:href="#linear-gradient"/><linearGradient id="linear-gradient-40" x1="424.99" y1="39.8" x2="424.99" y2="34.13" xlink:href="#linear-gradient"/><linearGradient id="linear-gradient-41" x1="433.5" y1="39.8" x2="433.5" y2="34.13" xlink:href="#linear-gradient"/><linearGradient id="linear-gradient-42" x1="442.01" y1="39.8" x2="442.01" y2="34.13" xlink:href="#linear-gradient"/><linearGradient id="linear-gradient-43" x1="344.75" y1="39.8" x2="344.75" y2="34.13" xlink:href="#linear-gradient"/><linearGradient id="linear-gradient-44" x1="353.26" y1="39.8" x2="353.26" y2="34.13" xlink:href="#linear-gradient"/><linearGradient id="linear-gradient-45" x1="361.77" y1="39.8" x2="361.77" y2="34.13" xlink:href="#linear-gradient"/><linearGradient id="linear-gradient-46" x1="370.28" y1="39.8" x2="370.28" y2="34.13" xlink:href="#linear-gradient"/><linearGradient id="linear-gradient-47" x1="378.79" y1="39.8" x2="378.79" y2="34.13" xlink:href="#linear-gradient"/><linearGradient id="linear-gradient-48" x1="387.3" y1="39.8" x2="387.3" y2="34.13" xlink:href="#linear-gradient"/></defs><title>rio</title><rect class="cls-1" x="209.24" y="27.2" width="97.42" height="3.21"/><polygon class="cls-2" points="201.54 29.16 201.54 30.76 214.79 30.95 214.57 28.05 201.54 29.16"/><rect class="cls-2" x="308.25" y="20.41" width="1.34" height="2.61" rx="0.67" ry="0.67"/><rect class="cls-1" x="307.86" y="19.53" width="1.34" height="4.36" rx="0.67" ry="0.67"/><path class="cls-2" d="M204.1,13s1.72,1,8.43.21C217.49,14,224,13,224,13a3.54,3.54,0,0,0,2.49.54c1.42-.24,1.21-.84,7.41-.25h.77a40.78,40.78,0,0,1,7-.36c1.15.11,1.69.23,1.69.23a18.45,18.45,0,0,1,7,.09c.77,0,1.61,0,1.61,0a20,20,0,0,1,7.42,0h1.19a29,29,0,0,1,7.66,0l1,.19a20.35,20.35,0,0,1,7.81.32,19.4,19.4,0,0,1,9.35.55,19.24,19.24,0,0,1,8.64,0l.63.15h9.93L308,12.49,307.53,9l-9.3-1.13L278.41,6.73l-21.28-.12H233.52l-22.84.15L204,7.63Z"/><path class="cls-2" d="M201.93,8.91s-.16,7.31-.16,8.67,1.26.09,1.26.09l.19-8.84-1-.65Z"/><path class="cls-3" d="M307.07,4.41s-6.89-.27-7.92-.34-.72,1-.72,1L283,4.66V4.36a.73.73,0,0,0-.73-.73h-32.9c-.33-.08-.7-.16-1.13-.22-2.68-.39-19.78-.31-20.5-.22s0,.44,0,.44a1.38,1.38,0,0,1,0,.74H212.06V3.64h-8.84a1,1,0,0,0-1,.74,1.06,1.06,0,0,0,0,.2h-.38s-.36-.05-.21.2a1.64,1.64,0,0,0,1.6.9h104.1a1,1,0,0,0,1-.76A1.57,1.57,0,0,0,307.07,4.41Z"/><path class="cls-3" d="M207.38,18.6h3.72A3.92,3.92,0,0,1,215,22.52V27a2.19,2.19,0,0,1-2.19,2.19h-7.2A2.19,2.19,0,0,1,203.45,27V22.52a3.92,3.92,0,0,1,3.92-3.92Z"/><rect class="cls-3" x="214.17" y="7.86" width="1.26" height="22.89"/><rect class="cls-3" x="223.21" y="7.86" width="1.26" height="23.34"/><rect class="cls-3" x="232.26" y="7.86" width="1.26" height="23.34"/><rect class="cls-3" x="241.31" y="7.86" width="1.26" height="23.34"/><rect class="cls-2" x="266.99" y="31.2" width="0.72" height="4.3"/><rect class="cls-2" x="287.14" y="31.2" width="0.72" height="4.3"/><rect class="cls-3" x="249.95" y="7.86" width="1.26" height="23.34"/><rect class="cls-2" x="222.58" y="31.2" width="0.72" height="4.3"/><rect class="cls-2" x="228.05" y="35.53" width="1.13" height="5.69" transform="translate(33.81 164.03) rotate(-42.35)"/><rect class="cls-2" x="241.97" y="27.88" width="1.13" height="24.83" transform="translate(202.24 282.83) rotate(-90)"/><rect class="cls-2" x="280.72" y="35.53" width="1.13" height="5.69" transform="translate(463.3 256.23) rotate(-137.65)"/><rect class="cls-2" x="266.8" y="27.88" width="1.13" height="24.83" transform="translate(227.07 307.66) rotate(-90)"/><rect class="cls-2" x="242.73" y="31.2" width="0.72" height="4.3"/><rect class="cls-4" x="276.9" y="23.38" width="1.26" height="23.34" rx="0.63" ry="0.63" transform="translate(312.59 -242.48) rotate(90)"/><rect class="cls-3" x="258.99" y="7.86" width="1.26" height="23.34"/><rect class="cls-3" x="267.63" y="7.86" width="1.26" height="23.34"/><rect class="cls-3" x="276.68" y="7.86" width="1.26" height="23.34"/><rect class="cls-3" x="285.73" y="7.86" width="1.26" height="23.34"/><rect class="cls-3" x="294.36" y="7.86" width="1.26" height="23.34"/><rect class="cls-3" x="305.19" y="7.86" width="1.67" height="22.91"/><path class="cls-3" d="M305.62,9.46a32.93,32.93,0,0,0-10.44-.18,19.35,19.35,0,0,0-8.68-.33,19.29,19.29,0,0,0-9.19-.35c-1.2-.4-6.48-1-9,.12a13.42,13.42,0,0,0-8.64-.1,15,15,0,0,0-9-.18c-2.7-1.2-7.11-.64-8.64-.1-1.55-.61-7.13-1-9,.26-2.3-1.33-6.52-1.2-9.15,0-2-1.38-7.07-.87-8.95,0,0,0-6.32-.85-10.22.12V28.81l-3.06,1.47a1.89,1.89,0,0,1-.24-.54,4.63,4.63,0,0,1-.12-1.25V25.26a1.38,1.38,0,0,1,.61-.88V17.57s.43-.39.8-.06,0-6.71.38-8.33c-.45-1.2-1-.28-1-.28a2.48,2.48,0,0,1-.2-1.49c.11-1,.34-1.74,1.13-1.74H305.19s3.45-.47,3.53,1.76a10.2,10.2,0,0,1-.24,3.22Z"/><path class="cls-3" d="M308.48,10.65v15s.83.23.83.81.17,3.5-.35,3.82a5.54,5.54,0,0,1-2.31,0V18h.81V9.67Z"/><rect class="cls-4" x="268.89" y="4.07" width="12.2" height="0.31" rx="0.15" ry="0.15"/><rect class="cls-4" x="260.25" y="4.07" width="7.69" height="0.31" rx="0.15" ry="0.15"/><rect class="cls-4" x="251.62" y="4.07" width="7.69" height="0.31" rx="0.15" ry="0.15"/><rect class="cls-4" x="242.98" y="4.07" width="7.69" height="0.31" rx="0.15" ry="0.15"/><rect class="cls-4" x="229.67" y="4.07" width="7.69" height="0.31" rx="0.15" ry="0.15"/><rect class="cls-4" x="238.45" y="4.07" width="3.19" height="0.31" rx="0.15" ry="0.15"/><rect class="cls-4" x="203.2" y="4.07" width="7.59" height="0.31" rx="0.15" ry="0.15"/><path class="cls-5" d="M243.29,3.22l-1.13-1.13a.81.81,0,0,0,0-.27.83.83,0,0,0-.82-.82H238a.83.83,0,0,0-.82.82.81.81,0,0,0,0,.24L236,3.22l.26.26,1.09-1.09a.82.82,0,0,0,.6.26h3.41a.82.82,0,0,0,.58-.24L243,3.48Z"/><rect class="cls-4" x="232.49" y="23.38" width="1.26" height="23.34" rx="0.63" ry="0.63" transform="translate(268.17 -198.07) rotate(90)"/><rect class="cls-5" x="206.88" y="1.77" width="4.58" height="1.86" rx="0.93" ry="0.93"/><path class="cls-2" d="M309,30.25H201.55s-1.79,1.08-1.39,1.27a5.33,5.33,0,0,0,1.39.22v.41H309v-.41a5.33,5.33,0,0,0,1.39-.22C310.76,31.34,309,30.25,309,30.25Z"/><rect class="cls-2" x="265.95" y="36.69" width="9.45" height="3.6"/><rect class="cls-2" x="235.34" y="36.69" width="9.45" height="3.6"/><rect class="cls-1" x="219.6" y="35.68" width="71.59" height="1.01"/><path class="cls-6" d="M454.79,63V32.63H4.79V62.13A22,22,0,0,1,7.66,73v42.17H4.79v19.09a22,22,0,0,1,2.87,10.87V167.3H4.79v.83h450v-.83h-2.43V145.13a21.93,21.93,0,0,1,2.43-10V115.17h-2.43V73A21.93,21.93,0,0,1,454.79,63ZM12.64,59.65a5.53,5.53,0,1,1,5.53-5.53A5.53,5.53,0,0,1,12.64,59.65ZM62,167.3H17.62V145.13a22.26,22.26,0,0,1,22.19-22.19h0A22.26,22.26,0,0,1,62,145.13Zm0-52.13H17.62V73A22.26,22.26,0,0,1,39.81,50.81h0A22.26,22.26,0,0,1,62,73Zm5-55.52a5.53,5.53,0,1,1,5.53-5.53A5.53,5.53,0,0,1,67,59.65ZM116.35,167.3H72V145.13a22.26,22.26,0,0,1,22.19-22.19h0a22.26,22.26,0,0,1,22.19,22.19Zm0-52.13H72V73A22.26,22.26,0,0,1,94.15,50.81h0A22.26,22.26,0,0,1,116.35,73Zm4.84-55.52a5.53,5.53,0,1,1,5.53-5.53A5.53,5.53,0,0,1,121.19,59.65Zm49.5,107.65H126.3V145.13a22.26,22.26,0,0,1,22.19-22.19h0a22.26,22.26,0,0,1,22.19,22.19Zm0-52.13H126.3V73A22.26,22.26,0,0,1,148.5,50.81h0A22.26,22.26,0,0,1,170.69,73Zm4.84-55.52a5.53,5.53,0,1,1,5.53-5.53A5.53,5.53,0,0,1,175.53,59.65ZM225,167.3H180.65V145.13a22.26,22.26,0,0,1,22.19-22.19h0A22.26,22.26,0,0,1,225,145.13Zm0-52.13H180.65V73a22.26,22.26,0,0,1,22.19-22.19h0A22.26,22.26,0,0,1,225,73Zm4.84-55.52a5.53,5.53,0,1,1,5.53-5.53A5.53,5.53,0,0,1,229.87,59.65Zm49.5,107.65H235V145.13a22.26,22.26,0,0,1,22.19-22.19h0a22.26,22.26,0,0,1,22.19,22.19Zm0-52.13H235V73a22.26,22.26,0,0,1,22.19-22.19h0A22.26,22.26,0,0,1,279.37,73Zm4.84-55.52a5.53,5.53,0,1,1,5.53-5.53A5.53,5.53,0,0,1,284.22,59.65Zm49.5,107.65H289.33V145.13a22.26,22.26,0,0,1,22.19-22.19h0a22.26,22.26,0,0,1,22.19,22.19Zm0-52.13H289.33V73a22.26,22.26,0,0,1,22.19-22.19h0A22.26,22.26,0,0,1,333.72,73Zm4.84-55.52a5.53,5.53,0,1,1,5.53-5.53A5.53,5.53,0,0,1,338.56,59.65Zm49.5,107.65H343.67V145.13a22.26,22.26,0,0,1,22.19-22.19h0a22.26,22.26,0,0,1,22.19,22.19Zm0-52.13H343.67V73a22.26,22.26,0,0,1,22.19-22.19h0A22.26,22.26,0,0,1,388.06,73Zm5-55.52a5.53,5.53,0,1,1,5.53-5.53A5.53,5.53,0,0,1,393,59.65ZM442.4,167.3H398V145.13a22.26,22.26,0,0,1,22.19-22.19h0a22.26,22.26,0,0,1,22.19,22.19Zm0-52.13H398V73a22.26,22.26,0,0,1,22.19-22.19h0A22.26,22.26,0,0,1,442.4,73Zm5.1-55.52A5.53,5.53,0,1,1,453,54.12,5.53,5.53,0,0,1,447.5,59.65Z"/><rect class="cls-7" x="6.01" y="145.12" width="13.02" height="22.18"/><rect class="cls-7" x="60.35" y="145.12" width="13.02" height="22.18"/><rect class="cls-7" x="114.7" y="145.12" width="13.02" height="22.18"/><rect class="cls-7" x="169.04" y="145.12" width="13.02" height="22.18"/><rect class="cls-7" x="223.38" y="145.12" width="13.02" height="22.18"/><rect class="cls-7" x="277.73" y="145.12" width="13.02" height="22.18"/><rect class="cls-7" x="332.07" y="145.12" width="13.02" height="22.18"/><rect class="cls-7" x="386.5" y="145.12" width="13.02" height="22.18"/><rect class="cls-7" x="440.99" y="145.12" width="13.02" height="22.18"/><rect class="cls-7" x="5.99" y="78.54" width="13.02" height="36.64"/><rect class="cls-7" x="60.34" y="78.54" width="13.02" height="36.64"/><rect class="cls-7" x="114.68" y="78.54" width="13.02" height="36.64"/><rect class="cls-7" x="169.02" y="78.54" width="13.02" height="36.64"/><rect class="cls-7" x="223.36" y="78.54" width="13.02" height="36.64"/><rect class="cls-7" x="277.71" y="78.54" width="13.02" height="36.64"/><rect class="cls-7" x="332.05" y="78.54" width="13.02" height="36.64"/><rect class="cls-7" x="386.48" y="78.54" width="13.02" height="36.64"/><rect class="cls-7" x="440.98" y="78.54" width="13.02" height="36.64"/><path class="cls-8" d="M70.65,39.8s.31-5.67,2.28-5.67S75.1,39.8,75.1,39.8Z"/><path class="cls-9" d="M79.16,39.8s.31-5.67,2.28-5.67,2.17,5.67,2.17,5.67Z"/><path class="cls-10" d="M87.67,39.8s.31-5.67,2.28-5.67,2.17,5.67,2.17,5.67Z"/><path class="cls-11" d="M96.18,39.8s.31-5.67,2.28-5.67,2.17,5.67,2.17,5.67Z"/><path class="cls-12" d="M104.69,39.8s.31-5.67,2.28-5.67,2.17,5.67,2.17,5.67Z"/><path class="cls-13" d="M113.2,39.8s.31-5.67,2.28-5.67,2.17,5.67,2.17,5.67Z"/><path class="cls-14" d="M16.67,39.8s.31-5.67,2.28-5.67,2.17,5.67,2.17,5.67Z"/><path class="cls-15" d="M25.18,39.8s.31-5.67,2.28-5.67,2.17,5.67,2.17,5.67Z"/><path class="cls-16" d="M33.69,39.8S34,34.13,36,34.13s2.17,5.67,2.17,5.67Z"/><path class="cls-17" d="M42.2,39.8s.31-5.67,2.28-5.67,2.17,5.67,2.17,5.67Z"/><path class="cls-18" d="M50.71,39.8S51,34.13,53,34.13s2.17,5.67,2.17,5.67Z"/><path class="cls-19" d="M59.22,39.8s.31-5.67,2.28-5.67,2.17,5.67,2.17,5.67Z"/><path class="cls-20" d="M179.86,39.8s.31-5.67,2.28-5.67,2.17,5.67,2.17,5.67Z"/><path class="cls-21" d="M188.37,39.8s.31-5.67,2.28-5.67,2.17,5.67,2.17,5.67Z"/><path class="cls-22" d="M196.88,39.8s.31-5.67,2.28-5.67,2.17,5.67,2.17,5.67Z"/><path class="cls-23" d="M205.39,39.8s.31-5.67,2.28-5.67,2.17,5.67,2.17,5.67Z"/><path class="cls-24" d="M213.9,39.8s.31-5.67,2.28-5.67,2.17,5.67,2.17,5.67Z"/><path class="cls-25" d="M222.41,39.8s.31-5.67,2.28-5.67,2.17,5.67,2.17,5.67Z"/><path class="cls-26" d="M125.15,39.8s.31-5.67,2.28-5.67,2.17,5.67,2.17,5.67Z"/><path class="cls-27" d="M133.66,39.8s.31-5.67,2.28-5.67,2.17,5.67,2.17,5.67Z"/><path class="cls-28" d="M142.17,39.8s.31-5.67,2.28-5.67,2.17,5.67,2.17,5.67Z"/><path class="cls-29" d="M150.68,39.8s.31-5.67,2.28-5.67,2.17,5.67,2.17,5.67Z"/><path class="cls-30" d="M159.19,39.8s.31-5.67,2.28-5.67,2.17,5.67,2.17,5.67Z"/><path class="cls-31" d="M167.7,39.8s.31-5.67,2.28-5.67,2.17,5.67,2.17,5.67Z"/><path class="cls-32" d="M288.54,39.8s.31-5.67,2.28-5.67S293,39.8,293,39.8Z"/><path class="cls-33" d="M297.05,39.8s.31-5.67,2.28-5.67,2.17,5.67,2.17,5.67Z"/><path class="cls-34" d="M305.57,39.8s.31-5.67,2.28-5.67S310,39.8,310,39.8Z"/><path class="cls-35" d="M314.08,39.8s.31-5.67,2.28-5.67,2.17,5.67,2.17,5.67Z"/><path class="cls-36" d="M322.59,39.8s.31-5.67,2.28-5.67S327,39.8,327,39.8Z"/><path class="cls-37" d="M331.1,39.8s.31-5.67,2.28-5.67,2.17,5.67,2.17,5.67Z"/><path class="cls-38" d="M234.56,39.8s.31-5.67,2.28-5.67S239,39.8,239,39.8Z"/><path class="cls-39" d="M243.07,39.8s.31-5.67,2.28-5.67,2.17,5.67,2.17,5.67Z"/><path class="cls-40" d="M251.58,39.8s.31-5.67,2.28-5.67S256,39.8,256,39.8Z"/><path class="cls-41" d="M260.09,39.8s.31-5.67,2.28-5.67,2.17,5.67,2.17,5.67Z"/><path class="cls-42" d="M268.6,39.8s.31-5.67,2.28-5.67,2.17,5.67,2.17,5.67Z"/><path class="cls-43" d="M277.11,39.8s.31-5.67,2.28-5.67,2.17,5.67,2.17,5.67Z"/><path class="cls-44" d="M397.23,39.8s.31-5.67,2.28-5.67,2.17,5.67,2.17,5.67Z"/><path class="cls-45" d="M405.74,39.8s.31-5.67,2.28-5.67,2.17,5.67,2.17,5.67Z"/><path class="cls-46" d="M414.25,39.8s.31-5.67,2.28-5.67,2.17,5.67,2.17,5.67Z"/><path class="cls-47" d="M422.76,39.8s.31-5.67,2.28-5.67,2.17,5.67,2.17,5.67Z"/><path class="cls-48" d="M431.27,39.8s.31-5.67,2.28-5.67,2.17,5.67,2.17,5.67Z"/><path class="cls-49" d="M439.78,39.8s.31-5.67,2.28-5.67,2.17,5.67,2.17,5.67Z"/><path class="cls-50" d="M342.52,39.8s.31-5.67,2.28-5.67S347,39.8,347,39.8Z"/><path class="cls-51" d="M351,39.8s.31-5.67,2.28-5.67,2.17,5.67,2.17,5.67Z"/><path class="cls-52" d="M359.54,39.8s.31-5.67,2.28-5.67S364,39.8,364,39.8Z"/><path class="cls-53" d="M368.05,39.8s.31-5.67,2.28-5.67,2.17,5.67,2.17,5.67Z"/><path class="cls-54" d="M376.56,39.8s.31-5.67,2.28-5.67S381,39.8,381,39.8Z"/><path class="cls-55" d="M385.08,39.8s.31-5.67,2.28-5.67,2.17,5.67,2.17,5.67Z"/></svg>