<svg id="Layer_1" data-name="Layer 1" xmlns="http://www.w3.org/2000/svg" viewBox="0 0 446 200"><defs><style>.cls-1{fill:#415947;}.cls-2{fill:#f8e680;}.cls-3{fill:#84e895;}.cls-4{fill:#bdf3c6;}.cls-5{fill:#1a1a1a;}.cls-6{fill:#f3d632;}</style></defs><title>rio</title><path class="cls-1" d="M150,119.82s2-14.47,3.56-18.79,9-26.11,16.6-40.64,16.74-26.91,23.16-31.47,7.81-4.37,11-4.37c0,0,.65-2.23,1.49-2.33a24.68,24.68,0,0,1,2.7,0s1.67-.84,2.51,2.88c6,3.44,16.56,12.37,20.37,16.46s7.91,11.25,8.74,15.53c4.37,3.63,5.29,10.42,6.41,12s5.31,17.15,7.71,33.17C239,111.75,150,119.82,150,119.82Z"/><path class="cls-2" d="M2.29,163.25S90.6,140.64,119.79,131s43-17.43,49.73-19.67,38.29-13.28,46-15.37,11.32-3.63,15.79-3.21,33.54,14.39,33.54,14.39-24.46,5-30.6,18c0,0-5.93,10.88-6.22,20.18a131.29,131.29,0,0,0-8.13,17.87l-63.12,3.67L2.29,163.25H219.87"/><path class="cls-1" d="M350,198.18l-146.75-9s15.46-12.35,16.12-18.33.45-7.63.45-7.63,4.67-14.66,8.13-17.87c-1-5.95,6.22-20.18,6.22-20.18s2.62-10.74,30.6-18c17.37-12.07,34.49-7.56,39.4-9.28s6.9-8,10.09-8.89,4.11,2.39,6.11,2.12,6.11-3.58,9.29-3.32,6.5,3.85,9.82,3.85S350,88.73,362,93.11c0,2,2.39,7.57,7,10.49s40.18,34.26,74.72,82.21C387.8,199.54,350,198.18,350,198.18Z"/><path class="cls-2" d="M305.51,130.21s9.73-6.54,8.84-14.86c-.71-4.77-12.91-.53-13.62-2.3s4.07-6,4.07-8.14-.58-7-.58-7-28.1-1.2-39.4,9.28c-17.31,2.31-24.51,9.72-27.14,13,0,0,11.93-3.85,19.6-1.82,3.38,1.13.23,6.42.68,9.63s.45,7.16-1.69,5.92-9.12-1.62-9.74,1,4.22,6-3.11,13.55c-4.06,4.62-14.65,15-14.65,15s17-8.14,33.07-5.66,19.45,10.08,19.45,10.08,8.67-5,32,4.07c0,0-2.65-15-10.08-27.23C298.79,137.64,305.51,130.21,305.51,130.21ZM294.67,143c1.41,6.1,3.52,13.31-1.23,14.72s-27.95-7-32-9.14l-1.93-1a2.52,2.52,0,0,1-1-3.55c1.91-3.07,6.9-8,19.28-8.63,16.52-10.49,21.27-7.4,21.27-7.4S293.27,136.88,294.67,143Z"/><path class="cls-2" d="M362.65,95.69s-33-1.66-41.78,5.08-8.79,10.25-1.76,16.4,7.32,10.57,7.32,17.73S335.22,145,335.22,145s-10.83-13.51-.59-17c0,0,6.62,2.5,7.7.6s-5.53-4.46-4-5.68,2.5-.41,3.71-1.35,3-.68,5.68,2,6.09-1.35,8.93.68,11.91,11.8,28.23,16.11,23.85,7.08,33.77,16.32l9.92,9.24s-20.34-26.07-33.82-38.58c-12.8-13.13-17.43-17.22-21.61-20.48C368.66,102.91,365.17,101.66,362.65,95.69Z"/><path class="cls-1" d="M109.79,163.25s1.31-9.42,12.47-12.92,18.38-9.63,19.47-11.81c0,0,1.09,3.06,9.85,2.41,0,0-25.38,14.25-26.91,22.33Z"/><path class="cls-2" d="M219.87,163.25a32.68,32.68,0,0,1-.45,7.63c-.73,3.17-3.54,7.39-7.67,11.48-6.86,0-11.6-10.42-11.6-10.42l1.19-10.42Z"/><path class="cls-1" d="M200.15,171.94s11.81-12,11.6-18.77-3.94-4.16-10.5-3.72-28.44,16.61-28.44,16.61,6.78,4.17,13.57,4.61S200.15,171.94,200.15,171.94Z"/><rect class="cls-3" x="204.75" y="22.22" width="9.53" height="5.46"/><rect class="cls-4" x="206.93" y="26.32" width="1.37" height="1.37"/><rect class="cls-4" x="209.29" y="26.32" width="1.37" height="1.37"/><rect class="cls-4" x="211.64" y="26.32" width="1.37" height="1.37"/><rect class="cls-3" x="353.1" y="90.22" width="9.53" height="5.46"/><rect class="cls-4" x="355.28" y="94.32" width="1.37" height="1.37"/><rect class="cls-4" x="357.63" y="94.32" width="1.37" height="1.37"/><rect class="cls-4" x="359.98" y="94.32" width="1.37" height="1.37"/><path class="cls-5" d="M213.22,23.12S258,63.93,360,91.52v.34s-93.09-23.45-146.77-68.4Z"/><rect class="cls-6" x="263.85" y="64.84" width="0.26" height="0.78"/><rect class="cls-6" x="266.06" y="64.99" width="0.26" height="0.78"/><rect class="cls-6" x="269" y="64.77" width="0.26" height="0.78"/><rect class="cls-6" x="271.21" y="64.91" width="0.26" height="0.78"/><rect class="cls-6" x="263.27" y="65.54" width="9.1" height="0.32"/><polygon class="cls-6" points="264.92 60.66 266.83 58.13 266.63 58.13 266.61 57.74 268.94 58.09 268.94 58.46 270.86 60.66 270.37 60.66 268.56 58.59 268.54 60.84 268.2 60.84 268.2 58.45 267.38 58.34 267.38 60.84 267.09 60.84 267.09 58.44 265.3 60.66 264.92 60.66"/><path class="cls-3" d="M263.07,62.31v1.25a1.65,1.65,0,0,0,1.64,1.64h6.15a1.65,1.65,0,0,0,1.64-1.64V62.31a1.65,1.65,0,0,0-1.64-1.64h-6.15A1.65,1.65,0,0,0,263.07,62.31Zm.29,0A1.35,1.35,0,0,1,264.71,61h6.15a1.35,1.35,0,0,1,1.35,1.35v1.25a1.35,1.35,0,0,1-1.35,1.35h-6.15a1.35,1.35,0,0,1-1.35-1.35Z"/><path class="cls-3" d="M271.85,61.21a1.3,1.3,0,0,0-1-.55h-6.15a1.3,1.3,0,0,0-1,.55Z"/><path class="cls-3" d="M263.27,64.34a1.65,1.65,0,0,0,1.44.86h6.15a1.65,1.65,0,0,0,1.44-.86Z"/><rect class="cls-3" x="265.3" y="60.83" width="0.17" height="3.65"/><rect class="cls-3" x="263.85" y="60.96" width="0.17" height="3.52"/><polygon class="cls-3" points="263.07 62.95 263.07 62.78 263.96 62.57 264 62.73 263.07 62.95"/><rect class="cls-3" x="268.16" y="58.48" width="0.17" height="8.52" transform="translate(330.99 -205.5) rotate(90)"/><rect class="cls-3" x="266.75" y="60.83" width="0.17" height="3.65"/><rect class="cls-3" x="268.2" y="60.83" width="0.17" height="3.65"/><rect class="cls-3" x="269.65" y="60.83" width="0.17" height="3.65"/><rect class="cls-3" x="271.09" y="60.83" width="0.17" height="3.65"/><rect class="cls-6" x="267.25" y="57.29" width="1.27" height="0.32"/><rect class="cls-6" x="267.58" y="57.29" width="0.62" height="0.87"/></svg>