<svg xmlns="http://www.w3.org/2000/svg" xmlns:xlink="http://www.w3.org/1999/xlink" viewBox="0 0 213.7 170.52"><defs><style>.cls-1{isolation:isolate;}.cls-2{fill:#ffd800;}.cls-3{fill:#f2f2f2;}.cls-4,.cls-7,.cls-8,.cls-9{mix-blend-mode:multiply;}.cls-4{fill:url(#linear-gradient);}.cls-5{fill:#4d4d4d;}.cls-6{fill:#ffc17a;}.cls-7{fill:url(#linear-gradient-2);}.cls-8{fill:url(#linear-gradient-3);}.cls-9{fill:url(#linear-gradient-4);}.cls-10{fill:#b2edcf;}.cls-11{fill:#305944;}</style><linearGradient id="linear-gradient" x1="113.62" y1="104.71" x2="104.89" y2="119.84" gradientUnits="userSpaceOnUse"><stop offset="0" stop-color="#fff"/><stop offset="0.37" stop-color="#fdfdfd"/><stop offset="0.5" stop-color="#f7f7f7" stop-opacity="0.98"/><stop offset="0.6" stop-color="#ececec" stop-opacity="0.95"/><stop offset="0.68" stop-color="#dcdcdc" stop-opacity="0.91"/><stop offset="0.75" stop-color="#c7c7c7" stop-opacity="0.85"/><stop offset="0.81" stop-color="#adadad" stop-opacity="0.79"/><stop offset="0.86" stop-color="#8f8f8f" stop-opacity="0.71"/><stop offset="0.91" stop-color="#6b6b6b" stop-opacity="0.61"/><stop offset="0.96" stop-color="#444" stop-opacity="0.51"/><stop offset="1" stop-color="#1a1a1a" stop-opacity="0.4"/></linearGradient><linearGradient id="linear-gradient-2" x1="107.19" y1="58.71" x2="107.19" y2="54.93" xlink:href="#linear-gradient"/><linearGradient id="linear-gradient-3" x1="107.53" y1="42.25" x2="107.53" y2="38.47" xlink:href="#linear-gradient"/><linearGradient id="linear-gradient-4" x1="107.82" y1="52.25" x2="107.82" y2="46.94" xlink:href="#linear-gradient"/></defs><title>watsaket</title><g class="cls-1"><g id="Layer_1" data-name="Layer 1"><rect class="cls-2" x="168.27" y="115.33" width="1" height="4"/><rect class="cls-2" x="173.27" y="117.33" width="1" height="4"/><rect class="cls-2" x="177.27" y="119.33" width="1" height="4"/><rect class="cls-2" x="180.27" y="120.49" width="1" height="3.84"/><rect class="cls-2" x="183.27" y="121.9" width="1" height="3.43"/><polygon class="cls-3" points="164.27 118.33 134.3 118.88 111.67 119.3 56.27 120.33 55.27 91.33 161.27 91.33 164.27 118.33"/><rect class="cls-2" x="163.27" y="115.33" width="1" height="4"/><rect class="cls-2" x="158.27" y="115.33" width="1" height="4"/><rect class="cls-2" x="153.27" y="115.33" width="1" height="4"/><rect class="cls-2" x="148.27" y="115.33" width="1" height="4"/><rect class="cls-2" x="143.27" y="115.33" width="1" height="4"/><rect class="cls-2" x="138.27" y="115.33" width="1" height="4"/><rect class="cls-2" x="133.27" y="115.33" width="1" height="4"/><rect class="cls-3" x="55.27" y="79.86" width="105.37" height="24.86"/><rect class="cls-2" x="128.27" y="115.33" width="1" height="4"/><polygon class="cls-4" points="162.44 132.9 157.78 142.27 111.67 119.3 55.5 91.33 78.97 91.33 134.3 118.88 162.44 132.9"/><rect class="cls-2" x="123.27" y="115.33" width="1" height="4"/><rect class="cls-3" x="41.27" y="137.33" width="153" height="24"/><rect class="cls-2" x="122.27" y="115.33" width="48" height="1"/><rect class="cls-2" x="120.56" y="157.33" width="1" height="4"/><rect class="cls-2" x="115.56" y="157.33" width="1" height="4"/><rect class="cls-2" x="110.56" y="157.33" width="1" height="4"/><rect class="cls-2" x="105.56" y="157.33" width="1" height="4"/><rect class="cls-2" x="100.56" y="157.33" width="1" height="4"/><rect class="cls-2" x="95.56" y="157.33" width="1" height="4"/><rect class="cls-2" x="154.27" y="79.86" width="6.37" height="11.47"/><rect class="cls-2" x="60.76" y="79.86" width="2.47" height="11.47"/><rect class="cls-2" x="55.27" y="79.86" width="2.47" height="11.47"/><rect class="cls-2" x="90.56" y="157.33" width="1" height="4"/><rect class="cls-2" x="85.56" y="157.33" width="1" height="4"/><rect class="cls-2" x="80.56" y="157.33" width="1" height="4"/><rect class="cls-2" x="79.56" y="157.33" width="48" height="1"/><rect class="cls-2" x="169.27" y="118.83" width="17" height="1" transform="translate(65.76 -63.14) rotate(24.58)"/><rect class="cls-2" x="55.5" y="89.18" width="107.77" height="2.15"/><rect class="cls-2" x="90.69" y="79.86" width="2.78" height="10.39"/><rect class="cls-2" x="106.68" y="79.86" width="2.78" height="10.39"/><rect class="cls-2" x="122.67" y="79.86" width="2.78" height="10.39"/><rect class="cls-2" x="143.58" y="79.4" width="2.78" height="10.39"/><path class="cls-2" d="M124.06,67.64l-2.47,2.21-.81,2.67H92.07l1-5.74.2-1.08,1.19-6.55.26-.44a13.29,13.29,0,0,0,1.6-3.78.81.81,0,0,0-.14-.69.93.93,0,0,1,0-1.45L97.28,52l.13-.1.86-4.92.57-3.24.25-1.45.15-.87V40.09l.16-.1h0a7.26,7.26,0,0,0,1.22-1,.62.62,0,0,0,.14-.49.75.75,0,0,0-.14-.37V37l2.64,0,.48-2-.81-.16c.42-.3.89-1.7,1.37-3.77,0-.17.08-.34.11-.51.09-.38.17-.78.25-1.19,0-.17.08-.34.11-.52.08-.38.15-.77.23-1.18l.09-.52c.07-.38.14-.78.21-1.18l.09-.52c.07-.39.13-.78.2-1.18,0-.17,0-.34.08-.52.06-.39.13-.78.19-1.18,0-.17,0-.35.08-.52l.18-1.18c0-.17.05-.34.08-.52.05-.39.11-.79.17-1.18,0-.17.05-.35.08-.52.05-.39.11-.79.16-1.18,0-.18,0-.35.07-.52.06-.4.11-.79.17-1.18,0-.17,0-.35.07-.52l.15-1.18c0-.18,0-.35.07-.52l.15-1.18c0-.17.05-.35.07-.52l.15-1.18c0-.18,0-.35.07-.52C108.3,4.41,108.77,0,108.77,0c0,3.62.13,7,.34,10.1,0,.17,0,.35,0,.52,0,.4.05.79.09,1.18,0,.18,0,.35,0,.52,0,.4.07.79.11,1.18,0,.17,0,.35,0,.52,0,.4.07.79.12,1.18,0,.17,0,.35.05.52,0,.4.09.79.14,1.18,0,.17,0,.35.06.52L110,18.6c0,.18,0,.35.07.52.05.4.11.8.16,1.18,0,.18.06.35.08.52l.18,1.18.09.52c.07.41.14.8.2,1.18,0,.18.07.35.09.52.08.41.15.8.23,1.18,0,.18.07.35.1.52.08.41.16.8.24,1.18,0,.18.07.35.11.52.09.41.18.8.26,1.18,0,.18.08.35.13.52.09.42.19.82.28,1.19.05.18.09.35.13.51.65,2.52,1.12,3.84,1.12,3.84h-.94l.44,1.88h1.71l-.88,1.73v0a5.59,5.59,0,0,1,2.07,2.76,3.27,3.27,0,0,1,.15,1,2.35,2.35,0,0,1,0,.26,2.58,2.58,0,0,1,.6,1.19c.24.8.48,1.93.73,3.24.32,1.59.66,3.45,1.06,5.31a.43.43,0,0,0,0,.11c1,1.41,0,2.21,0,2.21l.11.36,1.13,3.78,1.17,3.9,1.89.81-1.53,2.28-.36.53,1.28.55Z"/><polyline class="cls-5" points="121.97 69.51 94.87 69.51 94.87 70.59 121.37 70.59"/><rect class="cls-6" x="148.7" y="69.41" width="8.99" height="4.95"/><rect class="cls-6" x="150.81" y="64.19" width="4.55" height="4.55"/><polygon class="cls-2" points="148.7 69.41 147.65 68.06 158.89 68.06 157.69 69.41 148.7 69.41"/><rect class="cls-2" x="150.81" y="62.82" width="4.55" height="1.37"/><rect class="cls-5" x="152.62" y="56.23" width="1.62" height="6.59"/><rect class="cls-2" x="151.5" y="61.68" width="3.55" height="0.69"/><rect class="cls-2" x="152.03" y="60.55" width="2.49" height="0.69"/><rect class="cls-2" x="152.03" y="59.41" width="2.49" height="0.69"/><rect class="cls-2" x="152.03" y="57.97" width="2.49" height="0.69"/><rect class="cls-2" x="152.03" y="56.87" width="2.49" height="0.69"/><rect class="cls-2" x="152.62" y="55.76" width="1.62" height="0.69"/><rect class="cls-2" x="152.86" y="52.88" width="1.15" height="3.35" rx="0.58" ry="0.58"/><rect class="cls-6" x="58.43" y="70.29" width="8.99" height="4.95"/><rect class="cls-6" x="60.54" y="65.07" width="4.55" height="4.55"/><polygon class="cls-2" points="58.43 70.29 57.38 68.94 68.62 68.94 67.42 70.29 58.43 70.29"/><rect class="cls-2" x="60.54" y="63.7" width="4.55" height="1.37"/><rect class="cls-5" x="62.35" y="57.11" width="1.62" height="6.59"/><rect class="cls-2" x="61.23" y="62.56" width="3.55" height="0.69"/><rect class="cls-2" x="61.76" y="61.43" width="2.49" height="0.69"/><rect class="cls-2" x="61.76" y="60.3" width="2.49" height="0.69"/><rect class="cls-2" x="61.76" y="58.85" width="2.49" height="0.69"/><rect class="cls-2" x="61.76" y="57.75" width="2.49" height="0.69"/><rect class="cls-2" x="62.35" y="56.64" width="1.62" height="0.69"/><rect class="cls-2" x="62.58" y="53.76" width="1.15" height="3.35" rx="0.58" ry="0.58"/><rect class="cls-6" x="88.97" y="67.57" width="8.99" height="4.95"/><polygon class="cls-5" points="122.06 66.78 92.89 66.78 92.89 65.7 121.14 65.7 120.78 66.23 122.06 66.78"/><polyline class="cls-5" points="120.13 60.44 94.27 60.44 92.6 60.44 92.6 61.52 94.07 61.52 120.45 61.52"/><polygon class="cls-2" points="49.42 79.86 165.95 79.86 160.64 77.3 160.64 73.81 85.56 71.39 55.27 73.42 54.45 77.1 49.42 78.79 49.42 79.86"/><rect class="cls-6" x="91.08" y="62.35" width="4.55" height="4.55"/><polygon class="cls-2" points="88.97 67.57 87.92 66.22 99.16 66.22 97.96 67.57 88.97 67.57"/><path class="cls-7" d="M119.61,58.71H94.76a13.29,13.29,0,0,0,1.6-3.78h22.12Z"/><path class="cls-8" d="M116,42.25H99.09l.15-.87v-1c.06-.12.11-.23.16-.35h0a7.26,7.26,0,0,0,1.22-1,.62.62,0,0,0,.14-.49h13v0S116,40,116,42.25Z"/><path class="cls-9" d="M97.68,52.25v0s-.16-.09-.41-.26l.13-.1.86-4.92h19c.32,1.59.66,3.45,1.06,5.31Z"/><rect class="cls-2" x="91.08" y="60.98" width="4.55" height="1.37"/><rect class="cls-5" x="92.89" y="54.39" width="1.62" height="6.59"/><rect class="cls-2" x="91.76" y="59.84" width="3.55" height="0.69"/><rect class="cls-2" x="92.3" y="58.71" width="2.49" height="0.69"/><rect class="cls-2" x="92.3" y="57.58" width="2.49" height="0.69"/><rect class="cls-2" x="92.3" y="56.13" width="2.49" height="0.69"/><rect class="cls-2" x="92.3" y="55.03" width="2.49" height="0.69"/><rect class="cls-2" x="92.89" y="53.92" width="1.62" height="0.69"/><rect class="cls-2" x="93.12" y="51.04" width="1.15" height="3.35" rx="0.58" ry="0.58"/><polygon class="cls-5" points="112.31 31.02 104.31 31.02 104.42 30.51 112.18 30.51 112.31 31.02"/><path class="cls-5" d="M111.9,29.32h-7.23c0-.17.08-.34.11-.52h7C111.81,29,111.85,29.15,111.9,29.32Z"/><path class="cls-5" d="M105,27.62h6.5c0-.17-.07-.34-.11-.52h-6.3"/><path class="cls-5" d="M111.16,25.92h-5.85l.09-.52h5.66C111.09,25.58,111.13,25.75,111.16,25.92Z"/><path class="cls-5" d="M110.83,24.22H105.6c0-.17,0-.34.08-.52h5.06C110.77,23.88,110.81,24,110.83,24.22Z"/><path class="cls-5" d="M110.54,22.52h-4.67c0-.17,0-.35.08-.52h4.5Z"/><path class="cls-5" d="M110.27,20.82h-4.14c0-.17.05-.34.08-.52h4C110.22,20.48,110.25,20.65,110.27,20.82Z"/><path class="cls-5" d="M110,19.12h-3.65c0-.17.05-.35.08-.52H110C110,18.78,110,19,110,19.12Z"/><path class="cls-5" d="M109.81,17.42h-3.19c0-.18,0-.35.07-.52h3.06C109.76,17.07,109.79,17.25,109.81,17.42Z"/><rect class="cls-2" x="116.89" y="113.48" width="1" height="4" transform="translate(49.44 -34.52) rotate(21.1)"/><rect class="cls-2" x="112.22" y="111.68" width="1" height="4" transform="translate(48.48 -32.96) rotate(21.1)"/><rect class="cls-2" x="107.56" y="109.88" width="1" height="4" transform="translate(47.52 -31.4) rotate(21.1)"/><rect class="cls-2" x="102.89" y="108.08" width="1" height="4" transform="translate(46.56 -29.84) rotate(21.1)"/><rect class="cls-2" x="98.23" y="106.28" width="1" height="4" transform="translate(45.6 -28.28) rotate(21.1)"/><rect class="cls-2" x="93.56" y="104.48" width="1" height="4" transform="translate(44.64 -26.72) rotate(21.1)"/><rect class="cls-2" x="88.9" y="102.68" width="1" height="4" transform="translate(43.68 -25.16) rotate(21.1)"/><rect class="cls-2" x="84.24" y="100.88" width="1" height="4" transform="translate(42.72 -23.61) rotate(21.1)"/><rect class="cls-2" x="79.57" y="99.08" width="1" height="4" transform="translate(41.76 -22.05) rotate(21.1)"/><rect class="cls-2" x="77.6" y="107.28" width="48" height="1" transform="translate(45.61 -29.35) rotate(21.1)"/><path class="cls-5" d="M109.61,15.72h-2.75c0-.17,0-.35.07-.52h2.63C109.57,15.37,109.59,15.55,109.61,15.72Z"/><path class="cls-5" d="M109.44,14h-2.36c0-.18,0-.35.07-.52h2.24C109.4,13.67,109.42,13.85,109.44,14Z"/><path class="cls-5" d="M109.28,12.32h-2c0-.17.05-.35.07-.52h1.87C109.25,12,109.26,12.15,109.28,12.32Z"/><path class="cls-5" d="M109.15,10.62h-1.63c0-.18,0-.35.07-.52h1.52C109.12,10.27,109.13,10.45,109.15,10.62Z"/><rect class="cls-5" x="107.3" y="34.48" width="1.43" height="1.78"/><rect class="cls-5" x="104.89" y="34.48" width="1.43" height="1.78"/><rect class="cls-5" x="109.4" y="34.48" width="1.43" height="1.78"/><path class="cls-6" d="M116.56,43.7H98.84l.25-1.45.15-.87v-.13h16.58a3.27,3.27,0,0,1,.15,1,2.35,2.35,0,0,1,0,.26A2.58,2.58,0,0,1,116.56,43.7Z"/><rect class="cls-5" x="65.52" y="80.5" width="4.95" height="6.98"/><path class="cls-3" d="M34.27,128.33l7-25s10-18,23-9c9,6,52,24,63,23,11,0,42,1,42,1s19,6,20,10,3,15,3,15-129,0-146-4S34.27,128.33,34.27,128.33Z"/><rect class="cls-5" x="73.17" y="80.5" width="4.95" height="6.98"/><rect class="cls-5" x="80.82" y="80.5" width="4.95" height="6.98"/><rect class="cls-5" x="97.6" y="80.5" width="4.95" height="6.98"/><rect class="cls-5" x="113.59" y="80.5" width="4.95" height="6.98"/><rect class="cls-5" x="132.04" y="80.5" width="4.95" height="6.98"/><rect class="cls-5" x="148.34" y="80.5" width="4.95" height="6.98"/><path class="cls-10" d="M58.07,170.43c0-.41.05-.79.05-1.21,0-16.5-22.92-39-22.92-39s-20.91,22.59-20.91,39.09c0,.38,0,.73,0,1.09Z"/><path class="cls-11" d="M58.08,170.43c0-.41.05-.79.05-1.21,0-16.5-22.92-39-22.92-39v40.19Z"/><path class="cls-10" d="M32.57,170.43c0-.29,0-.57,0-.87,0-11.85-17.05-28-17.05-28S0,157.79,0,169.64c0,.27,0,.52,0,.79Z"/><path class="cls-11" d="M32.57,170.43c0-.29,0-.57,0-.87,0-11.85-17.05-28-17.05-28v28.86Z"/><path class="cls-10" d="M68.59,170.43c0-.21,0-.42,0-.64,0-8.73-12.46-20.62-12.46-20.62s-11.37,12-11.37,20.68c0,.2,0,.38,0,.58Z"/><path class="cls-11" d="M68.59,170.43c0-.21,0-.42,0-.64,0-8.73-12.46-20.62-12.46-20.62v21.26Z"/><path class="cls-10" d="M203.18,171.24c0-.36,0-.7,0-1.08,0-14.72-21.61-34.77-21.61-34.77s-19.72,20.16-19.72,34.87c0,.34,0,.65,0,1Z"/><path class="cls-11" d="M203.18,171.24c0-.36.05-.7.05-1.08,0-14.72-21.61-34.77-21.61-34.77v35.85Z"/><path class="cls-10" d="M179.13,171.24c0-.26,0-.51,0-.78,0-10.57-16.08-25-16.08-25s-14.67,14.47-14.67,25c0,.24,0,.47,0,.7Z"/><path class="cls-11" d="M179.13,171.24c0-.26,0-.51,0-.78,0-10.57-16.08-25-16.08-25v25.74Z"/><path class="cls-10" d="M213.1,171.24c0-.19,0-.37,0-.57,0-7.79-11.75-18.39-11.75-18.39s-10.72,10.66-10.72,18.45c0,.18,0,.34,0,.52Z"/><path class="cls-11" d="M213.1,171.24c0-.19,0-.37,0-.57,0-7.79-11.75-18.39-11.75-18.39v19Z"/><path class="cls-10" d="M73.34,170.23c0-.36,0-.7,0-1.08,0-14.72-21.61-34.77-21.61-34.77s-19.72,20.16-19.72,34.87c0,.34,0,.65,0,1Z"/><path class="cls-11" d="M73.35,170.23c0-.36.05-.7.05-1.08,0-14.72-21.61-34.77-21.61-34.77v35.85Z"/><path class="cls-10" d="M49.29,170.23c0-.26,0-.51,0-.78,0-10.57-16.08-25-16.08-25s-14.67,14.47-14.67,25c0,.24,0,.47,0,.7Z"/><path class="cls-11" d="M49.3,170.23c0-.26,0-.51,0-.78,0-10.57-16.08-25-16.08-25v25.74Z"/><path class="cls-10" d="M83.26,170.23c0-.19,0-.37,0-.57,0-7.79-11.75-18.39-11.75-18.39s-10.72,10.66-10.72,18.45c0,.18,0,.34,0,.52Z"/><path class="cls-11" d="M83.26,170.23c0-.19,0-.37,0-.57,0-7.79-11.75-18.39-11.75-18.39v19Z"/><path class="cls-10" d="M130.17,170.85h29.52a7,7,0,0,0-8.41-10.22,7,7,0,0,0-13-1.45,7,7,0,0,0-7.59,11.25C130.48,170.56,130.32,170.7,130.17,170.85Z"/><path class="cls-11" d="M159.69,170.85a7,7,0,0,0-8.41-10.22,7,7,0,0,0-6.35-5.28v15.5Z"/><path class="cls-10" d="M101.93,170.52h29.52A7,7,0,0,0,123,160.3a7,7,0,0,0-13-1.45,7,7,0,0,0-7.59,11.25C102.25,170.23,102.09,170.37,101.93,170.52Z"/><path class="cls-11" d="M131.45,170.52A7,7,0,0,0,123,160.3a7,7,0,0,0-6.35-5.28v15.5Z"/><path class="cls-10" d="M71.93,170.52h29.52A7,7,0,0,0,93,160.3a7,7,0,0,0-13-1.45,7,7,0,0,0-7.59,11.25C72.25,170.23,72.09,170.37,71.93,170.52Z"/><path class="cls-11" d="M101.45,170.52A7,7,0,0,0,93,160.3,7,7,0,0,0,86.69,155v15.5Z"/></g></g></svg>