<svg id="Layer_1" data-name="Layer 1" xmlns="http://www.w3.org/2000/svg" xmlns:xlink="http://www.w3.org/1999/xlink" viewBox="0 0 240 272"><defs><style>.cls-1{fill:#ffd800;}.cls-2{fill:url(#linear-gradient);}.cls-3{fill:#c9a52f;}.cls-4{fill:none;stroke:#c9a52f;stroke-linecap:round;stroke-miterlimit:10;stroke-width:0.58px;}</style><linearGradient id="linear-gradient" x1="2541.18" y1="-729.44" x2="2541.18" y2="-711.97" gradientTransform="translate(2661.76 -491.96) rotate(180)" gradientUnits="userSpaceOnUse"><stop offset="0" stop-color="#fff" stop-opacity="0"/><stop offset="1" stop-color="#c19710" stop-opacity="0.9"/></linearGradient></defs><title>Untitled-1</title><rect class="cls-1" x="8.7" y="219.82" width="223.38" height="17.66"/><rect class="cls-2" x="9.08" y="220.01" width="223" height="17.48"/><path class="cls-1" d="M230.46,200.44a29,29,0,0,0-2-6.62c-2.79-12.67-28.83-5.07-31.62-4.37,1.16-3-1-3.57-2.93-5.84.79-.79.93-3.65.66-7.72-.95-14-6.82-42.11-8.3-49.69-.32-17.68-8-22.86-10-24.87S153,94.21,153,94.21l-1.22-.54c-4.61-3.49-10.43-1.21-12.19,0-6.1-5-1.49-15-1.49-15v0a75.44,75.44,0,0,0,1.62,8.42c1.34,2.21,2.67,2.83,3.82,2.67,1.65-.22,2.91-2,3.23-3.07-7,.4.54-21.48,2.3-26.45a8.1,8.1,0,0,0,.46-2,3.21,3.21,0,0,0-.68-2.56,6.16,6.16,0,0,0-2.09-1.26c.78-3.88,1.81-8.13,1.71-11-.06-1.76-1-2.47-1.32-3.91-2.25-10.64-10.32-13.19-12.31-13.78-1.49-6.58-8.23-11.92-8.23-11.92a5,5,0,0,0,2.09-2,3,3,0,0,0,.29-1.47c-.22-4.08-8-8.63-7.7-10,0,0-4.79,3.08-6.87,6.63-1.17,2-1.48,4.13.39,6a7.12,7.12,0,0,0,1.17.92s-6.73,5.34-8.23,11.92a20.8,20.8,0,0,0-4.2,2.11c-.34.21.08,1.4-.27,1.66s-1.72-.54-2.12-.2c-3,2.57-3.33,4.32-2,3.84.28-.1,0,.62-.12.88s-1.71.19-1.93.63A13.46,13.46,0,0,0,96,37.39c0,.11.62,1.44.58,1.56s-1.09.47-1.09.47c-1.91,3.8-1.24,8.55.33,15.06a1.56,1.56,0,0,1-.26.13c-1,.4-3.62,1.19-2,5.64l.08.22c1.89,5.36,9.17,26.62,2.22,26.23.51,1.64,3.41,5.29,6.46,1.28a10.16,10.16,0,0,0,.59-.87c0-.1.07-.22.11-.35.67-2.23,1.51-8.11,1.51-8.11s4.61,10.07-1.49,15c-1.76-1.21-7.59-3.49-12.19,0l-1.22.54s-21.13,5.1-23.17,7.12a26.19,26.19,0,0,0-6,7.05c-2.1,3.76-3.95,9.35-4.1,17.82-.28,1.42-.54,3.19-.77,5.2,0,.29-.07.58-.1.88-1.35,12-2.13,31.4-2.68,36.47a7.61,7.61,0,0,0-1.92.22c-5.33,1.17-16.43,6.45-15.42,9.07-4.67,3.61-2.85,8.33-3.73,10-.74,1.38-5.57-1.52-12.38,7-.31.72-.63,1.5-.93,2.34v0c-2.56,7.11-3.94,18,7.88,26.63l.44.31,3.19.21,2,.12h0c23,1.22,69,1.55,76.34-1.85,9.53-1.38,13-.46,13-.46s3.42-.92,13,.46c7.8,3.64,60,3,80.8,1.59l.24,0h.2l.36,0a39.19,39.19,0,0,0,5.09-2.94h0a29.08,29.08,0,0,0,3.27-2.61A19.35,19.35,0,0,0,230.46,200.44ZM92,167.69c-3.83,11.63-6,19.74-6,19.74S74.52,184.55,73.56,185c.24-2.85,10.54-41.58,10.78-43.46C87.69,146.33,94.16,153.45,92,167.69Z"/><path class="cls-3" d="M140.28,170.25s-33-2.73-37-1.56c-7.1,2.06-19.61,17.92-12.65,20.24l-4.49-1.5s13-27.87-1.68-45.86c0,0-10.82-26.29-5.5-33.8a14.17,14.17,0,0,1,2.63,1.16s13.94,19.3,29.45,11.35c2.63-.78,2.24,10.29,2.24,10.29s-9.86,4.94-14.33,6.05c3.81,7.63-1.31,21.44,29.19,25.22"/><path class="cls-3" d="M59.93,196.74s-3.72.59-3.72-1.57,2.55-4.73,1.86-6.38S56.21,185,56.21,185s-3.14,6.05-3.33,8.41S53.27,200.86,59.93,196.74Z"/><path class="cls-3" d="M52.84,197.4s.49,13.75-5,8.14c.13-1.07,1.93-.27,2.5-1.07A11.33,11.33,0,0,0,52.84,197.4Z"/><path class="cls-3" d="M48.52,206s-1.43,5.94-3.75,5.69c-2.32-.49-2.69-1.58-2.44-4.76a3.06,3.06,0,0,1-4-1.34,8.64,8.64,0,0,1,0-3.4S34,203.63,33.89,199,33,187.4,33,187.4s1.59,10,2.2,10.9.61,4.15,3.3,2.39c1.71.69.12,4,1.34,4.11s2.08-.24,2.69.12-1,6.73,3.31,4.9c1-1.56,1.16-2.81,2-4.29C47.74,204,48.52,206,48.52,206Z"/><path class="cls-3" d="M50.36,184.34s-1.6,7.78-1.45,10.12c-.68-3.4.5-10-.39-10.58Z"/><path class="cls-3" d="M44.52,183.93s-1.32,7.83-1.08,10.17c-.8-3.37.14-10.06-.77-10.55Z"/><path class="cls-3" d="M38.63,193.71s1.59-9.29-1.13-10.65c-1.36.15,0,.83,0,.83Z"/><path class="cls-3" d="M73.65,185s-2.47,0-2.82.79a14.74,14.74,0,0,1-1.28,2.1H64.66s-4.32-11.42-8.28-11.53l4,.12,6,9.2,2.1-.12L71,183.89l2.7-.35Z"/><path class="cls-3" d="M59.93,196.74A1.81,1.81,0,0,0,61,195a10,10,0,0,0,3.7-7.05h1.15s-2.42,6.68-3.73,7.33C61.8,195.8,61.23,197.22,59.93,196.74Z"/><path class="cls-3" d="M61.87,108.38l-3.52,32.83-2.72-8.93c.27-2.37.56-4.46.88-6.07.15-8.46,2-14.06,4.1-17.82Z"/><path class="cls-3" d="M72.71,178.83s-1.46-8.65-16.33-9.38a8.4,8.4,0,0,1,2.74-1.1s13.59,1.95,13.59,6.21Z"/><path class="cls-3" d="M78.46,165.18a26.49,26.49,0,0,0-2.8-4.12c-1.34-1.46-.65-2.19-.65-2.19l2.11-19L75,136.57l5.15-17.79s2.11,18.91,5.62,20.85C83.09,145.7,78.46,165.18,78.46,165.18Z"/><path class="cls-3" d="M58.74,144.44l-2.36,25L50.93,169a7.61,7.61,0,0,1,1.92-.22c.55-5.07,1.33-24.49,2.68-36.47,0-.3.07-.59.1-.88l.86-5.2Z"/><path class="cls-3" d="M171.69,171.27l-3.76,1.47s-9.67-34.34-11.29-31.52-10.75,15.17-10.48,18.27,1.64,19.54,2.43,20.05c-3.83-2.32-9.59-14.61-4.69-28.88q.41-1.18.91-2.38c7-15,11.29-24.13,16.12-27.36a73.85,73.85,0,0,0,5.91-8S164.71,163,171.69,171.27Z"/><path class="cls-3" d="M127.35,122s16.12,20,17.47,26.28c4.91-10.4,11.29-22.07,11.29-22.07S147.24,116.62,127.35,122Z"/><path class="cls-3" d="M132.32,185a61.33,61.33,0,0,1-22.44-.57c-1.92-1.37-4.3-3.65-1.7-4.9,3.42.11,3.07,2.42,5,3.11S126.29,186.12,132.32,185Z"/><path class="cls-3" d="M118.36,179.64a51.75,51.75,0,0,1,21.21,1.78c2.6.82,6.3,1.13,7.25.7s1.77-2.6,1.77-2.6l-1.4-1.21a4.56,4.56,0,0,1-3.79,2c-2.6,0-14.45-3.32-23.13-2C113.57,178.68,118.36,179.64,118.36,179.64Z"/><path class="cls-3" d="M127.35,186.38s-8.06,1-8.45,1.49c-2.08-.69-9-1.08-10-.44.91-.65,7.85-.93,9.46-.56a2.44,2.44,0,0,0,.53-1.23h8Z"/><path class="cls-3" d="M109.47,186.09s-1.79.43-1.86,1.33l-.37.23-.21-1.57s-5.33-2.57-5.62-2.49c.13-2.19-3.71-6.72-9-3.36,1.59-1.64,3.28-6,3.28-6l.47-1.77,1.35.82L97,178s4.9,2.69,5,4.63c1.06.22,5.68,2.23,5.68,3a5.73,5.73,0,0,0,2.19-1.2l1.69-.2Z"/><path class="cls-3" d="M91,180.92s2.94.06,5.68,3.82c5.13,4.12,3.33,5.84,17.71,5.81,7.59.55,13,.55,13,.55L126,190l-12.29-.65s-10.27.65-13.45-3c-3.25-3.18-7.22-6.7-8.89-6.17S91,180.92,91,180.92Z"/><path class="cls-3" d="M131.58,192.35s.93,2.34,0,2.9a26.13,26.13,0,0,1-3.92,1.4s-9.06-.93-10.75-.56-6.17-1.31-9.06-2.43-6.45-2.16-6.45-2.16l.93-.83s11.16,4.2,14.36,3.64,3.11-1.5,6.94-1.78S129.62,193.47,131.58,192.35Z"/><path class="cls-3" d="M193.88,183.61s-4.83-1.41-6.94,2c-1.59-.26-6.34-.81-8.06,1.12-3.3-2.7-4.36-3.43-4.36-3.43s19.16-1.7,20.15-3.79Z"/><path class="cls-3" d="M133.27,189.38s2.64-2.81,14.14-.7c3.3-.53,25.91-4.36,25.91-4.36v-1.17l-25.78,3.61S133.27,185.84,133.27,189.38Z"/><path class="cls-3" d="M114.85,222.16l22.23-10.34,17-10.27s-3.16,4-5.49,6.44-17.12,13-14.32,14.85C132.15,222.56,114.85,222.16,114.85,222.16Z"/><path class="cls-3" d="M224.25,218.81c-12.17-3.57-77.4-7.34-86.41-3.52,1.21-4.63,6-5.09,6-5.09s69.72-14.63,86.63-9.75A19.35,19.35,0,0,1,224.25,218.81Z"/><path class="cls-3" d="M102.34,191.78c-5.41-.75-11.89-2.34-15.27-4.23l1.4-.17,13.87,3.29Z"/><path class="cls-3" d="M68,188.82s31.23,2.43,43.6,6.2c-8.28-1.12-44.39-4.91-44.71-4.35Z"/><path class="cls-3" d="M196.81,189.45S155.63,200,152.12,204l2-2.42,43-13.65Z"/><path class="cls-3" d="M221,221.42h0l-5.09,2.94-.36,0h-.2l-.24,0c-20.79,1.43-73,2.05-80.8-1.59a7.38,7.38,0,0,0,0-3S184.31,228,221,221.42Z"/><path class="cls-3" d="M124.44,207.05s21.1-5,22.92-7.61a33.3,33.3,0,0,0-3.35,5.09s-17.7,5.87-19.56,5.45Z"/><path class="cls-3" d="M129.24,195.94v1.33s-4.85-.5-4.8,2.18a12.85,12.85,0,0,1-.68,4.53l-2-9Z"/><path class="cls-3" d="M147.85,117.29s-.73,2.85-2.12,0C146.15,117.29,147,118.56,147.85,117.29Z"/><path class="cls-3" d="M98.23,118.55s-.73,2.85-2.12,0C96.53,118.55,97.38,119.83,98.23,118.55Z"/><path class="cls-3" d="M144.86,91.89l-2,7s-4.12.72-4.83,0,1.63-5.2,1.63-5.2S143.68,91.52,144.86,91.89Z"/><path class="cls-3" d="M143.17,99.48s-3.61.84-5,0c.37,1.12.66,1,.66,1s4.36,1.4,6.65.94c2.25-.28,3.09-.8,3.09-1.12s1.31-4.21,1.17-5.76c-.33.33-1.22,5.24-1.69,5.39S144.38,100.51,143.17,99.48Z"/><path class="cls-3" d="M150.75,103.13l-4.59,1.22s-1.17-.94,2.9-1.64c1-.14,1.5-.19,1.69-.52l.23,0Z"/><path class="cls-3" d="M152.2,95.15A5.75,5.75,0,0,1,151,99.41a4.21,4.21,0,0,1,0,2.13l-.36-.78-.27-1.56a5.61,5.61,0,0,0,1.39-4.05Z"/><path class="cls-3" d="M144,105.16s5.82,2.16,7,1.75c.14-.09.32-.8-1.21-.85s-2.92-.14-3.55-.72-1.53-1.13-2-1a15.87,15.87,0,0,1-1.35-1.93v-1.57h-.45v2.07Z"/><path class="cls-3" d="M150.36,112.27l-.88.38s-3.37-1.19-4.1-2.3a16.79,16.79,0,0,1-1.4-3.22l-.44-1.53H144s1.13,4.21,2.39,4.86S150.36,112.27,150.36,112.27Z"/><path class="cls-3" d="M147.13,109.93a24,24,0,0,1,3.23-.46c1.38-.06,2.48-.37,2.14-2.09-.43,1.11-.86,1.17-1.87,1.27s-2.91-.57-3.68.94C146.7,109.81,147.13,109.93,147.13,109.93Z"/><path class="cls-3" d="M152.72,114s-.72,1-2.94,0c-.1.12-.13,2.36,2.14,1.47A3.93,3.93,0,0,0,152.72,114Z"/><path class="cls-3" d="M134.35,103.54l4.59,1.22s1.17-.94-2.9-1.64c-1-.14-1.5-.19-1.69-.52l-.23,0Z"/><path class="cls-3" d="M141.11,105.57s-5.82,2.16-7,1.75c-.14-.09-.32-.8,1.21-.85s2.92-.14,3.55-.72,1.53-1.13,2-1a15.87,15.87,0,0,0,1.35-1.93v-1.57h.45v2.07Z"/><path class="cls-3" d="M134.74,112.68l.88.38s3.37-1.19,4.1-2.3a16.79,16.79,0,0,0,1.4-3.22l.44-1.53h-.44s-1.13,4.21-2.39,4.86S134.74,112.68,134.74,112.68Z"/><path class="cls-3" d="M138,110.34a24,24,0,0,0-3.23-.46c-1.38-.06-2.48-.37-2.14-2.09.43,1.11.86,1.17,1.87,1.27s2.91-.57,3.68.94C138.4,110.21,138,110.34,138,110.34Z"/><path class="cls-3" d="M132.38,114.36s.72,1,2.94,0c.1.12.13,2.36-2.14,1.47A3.93,3.93,0,0,1,132.38,114.36Z"/><path class="cls-3" d="M136.6,94.56s-.83,5.08-1.25,5.35a4.77,4.77,0,0,1-1.24.45s4.5-6.72-3.51-5.8c.18-.89,2.69-3,6-1.25Z"/><path class="cls-3" d="M129.6,95.52s-6.33-.6-8.14,5.74c-4.34-3.7-9-6.89-13.84-6.7,7.05-.26,24.12-1.27,24.12-1.27Z"/><path class="cls-3" d="M124.44,207.05l-1.86,4.6s-2.47.79-15,.54c-16.81,5.15-78.55,3.63-82.62,5.21s7,7.29,7,7.29h0c-.71,0-1.39-.06-2-.12a28.81,28.81,0,0,1-3.62-.52c-11.82-8.59-10.44-19.52-7.88-26.63v0h0S27,199.34,28.62,204s3.16,2.91,3.16,2.91l16.07,2.2s7-2.07,10.88-1.17,29.06-.22,39.49-2S124.44,207.05,124.44,207.05Z"/><path class="cls-3" d="M153.3,178.83s14.28,1.36,20-6.39l2.48-3Z"/><path class="cls-3" d="M104,49.12s.93.08,6.12,2.29a31.29,31.29,0,0,0,7.48-2s-1.19-1.78-4-.93C108.15,49,105.52,48.27,104,49.12Z"/><path class="cls-3" d="M140.44,50.74s-2.21-.93-3.74,0c-3.14.76-8.41-.23-9.18-.88s-1-2.3,3.31-1.56a12.47,12.47,0,0,0,6.63.91A12.63,12.63,0,0,1,140.44,50.74Z"/><path class="cls-3" d="M119.64,45.43l-1.72.41s-3.65-5.79-8.82-2.76c-3.38,2.83-7.17,6.34-7.17,9,.55-4.14,1.45-10.89,7-12.48C110.61,39.16,117.16,37,119.64,45.43Z"/><path class="cls-3" d="M126.39,46.67l-1.79-3.1s8.41-8.82,13.85-1.93c1.86,2.76,3.17,4.14,3.45,10.48-.9-1.24-2.41-4-2.41-4S134.87,37.23,126.39,46.67Z"/><path class="cls-3" d="M125.54,59.74l-.37,2.48a5.09,5.09,0,0,1-5.53.21,25.35,25.35,0,0,1-.56-3.45s4.2,1.81,6.18.29Z"/><path class="cls-3" d="M116.18,58.77s.16-1.47,2.27-.38a2.86,2.86,0,0,1,0,1.26s-2.31,1.13-3.24-.67C116.14,59.36,116.39,59.27,116.18,58.77Z"/><path class="cls-3" d="M125.26,59.27A1.62,1.62,0,0,1,127.9,59c.38,0,.8,0,.92-.6s.55-.39.55-.39a1.51,1.51,0,0,1-1.34,1.5c-.46.25-.63.37-.71.52A11.27,11.27,0,0,1,125,60Z"/><path class="cls-3" d="M124,50.63s.68,5.27,2,4.95c-.21-1.69.16-1.74.53-1.21s0-4.11,0-4.11S123.33,47.53,124,50.63Z"/><path class="cls-3" d="M118.52,55.6s3.23-4.67,0-5.74a1.78,1.78,0,0,0-.33,2.87C118.62,53.64,119.33,54.56,118.52,55.6Z"/><path class="cls-3" d="M129.37,65.8s-3.78-1.17-5.29,0c-1.94.23-2.57.59-4.13,0a7,7,0,0,0-4.38-.52c.41-.36,3.93-.87,6.22-.18C122.58,65.09,128,63.8,129.37,65.8Z"/><path class="cls-3" d="M128.2,66.79s-1.26,1.7-5.88.94c-1.22,0-5.82.53-7.1-1.35.48-.18,1.77-.86,5.76.77A8.93,8.93,0,0,0,122.8,67C123.09,67,126.73,66.33,128.2,66.79Z"/><path class="cls-3" d="M113.35,66.5s.38,3,5.45,2.82c0,0,6.65-.12,7.35.35l2.52.76.71-2.5a5.67,5.67,0,0,1-2.29,1c-1.12.12-8-.12-8-.12S113.64,68.56,113.35,66.5Z"/><path class="cls-3" d="M109.81,82.15c-1.7.07-5.27-3.51-5.27-3.51s-.85,5.89-1.51,8.11l-.7,1.22c-3,4-5.95.36-6.46-1.28,9.59,2.71,5.37-16.9,5.17-17.79C103,76.44,105.73,77.67,109.81,82.15Z"/><path class="cls-3" d="M99,63.52s-2.55-9.07-4.14-6.72a15.2,15.2,0,0,0-.7,3.73l-.49-.06-.08-.22C92,55.8,94.64,55,95.6,54.61,97.38,56.37,99.63,59.47,99,63.52Z"/><path class="cls-3" d="M107.63,56.91s1.28,16.35,9.24,16.73c5.71-.62,8.57-1.24,9.81-.87s9.25.12,6.92-7.5c2,.31,5.6,3.78,3.61,11.21-2.85,5.58-3.1,4.83-3.1,4.83l-1.58.74s-2.07-7.19-5.32-6.94-18.34.74-18.34.74-3.5.62-3.5-4.21S102.77,62.76,107.63,56.91Z"/><path class="cls-3" d="M107.63,85.4s8.82,3.35,12.33,2.85,12.92-2,13.29-2.35,2.13-2,2.13-2-18.44,4.58-27.75-1.12Z"/><path class="cls-3" d="M141.77,73.27A8.63,8.63,0,0,1,141.9,72,3,3,0,0,1,141.77,73.27Z"/><path class="cls-3" d="M146.79,86.7c-.32,1-1.58,2.85-3.23,3.07-1.15.16-2.48-.46-3.82-2.67a75.44,75.44,0,0,1-1.62-8.42v0s3-3,3.66-5.37C141.5,77.06,141.33,88.06,146.79,86.7Z"/><path class="cls-3" d="M144.49,63.52s5.35-5.41,4.6-3.27c-.47-1.5.07-1.27.07-1.27L146,59a.92.92,0,0,1-1.52,0C143.76,58,144.49,63.52,144.49,63.52Z"/><path class="cls-3" d="M149.55,58.29c0,.05-.41.65-.84-.31s-1.93.89-1.93.89c-.37-2,.65-2.47,2.09-3.15A3.21,3.21,0,0,1,149.55,58.29Z"/><path class="cls-3" d="M137.79,30a3.22,3.22,0,0,1-6.36-1,3.16,3.16,0,0,1,.26-.85,3.22,3.22,0,0,0,6.12,1A3.31,3.31,0,0,1,137.79,30Z"/><path class="cls-3" d="M133.09,28.82a1.64,1.64,0,0,1,.13-.42,1.61,1.61,0,0,0,3.06.5,1.57,1.57,0,0,1,0,.44,1.61,1.61,0,0,1-3.18-.52Z"/><path class="cls-3" d="M134,28.23a.82.82,0,0,1,.06-.21.81.81,0,0,0,1.53.25.78.78,0,0,1,0,.22.81.81,0,0,1-1.59-.26Z"/><path class="cls-3" d="M141.82,33.52a3.22,3.22,0,0,1-4.42-4.68,3.16,3.16,0,0,1,.73-.52,3.22,3.22,0,0,0,4.25,4.51A3.31,3.31,0,0,1,141.82,33.52Z"/><path class="cls-3" d="M138.83,29.7a1.64,1.64,0,0,1,.36-.26,1.61,1.61,0,0,0,2.13,2.25A1.57,1.57,0,0,1,141,32a1.61,1.61,0,0,1-2.21-2.34Z"/><path class="cls-3" d="M139.91,29.78a.82.82,0,0,1,.18-.13.81.81,0,0,0,1.06,1.13A.78.78,0,0,1,141,31a.81.81,0,0,1-1.1-1.17Z"/><path class="cls-3" d="M145.11,38.64A3.22,3.22,0,0,1,142,33a3.16,3.16,0,0,1,.84-.31,3.22,3.22,0,0,0,2.95,5.45A3.31,3.31,0,0,1,145.11,38.64Z"/><path class="cls-3" d="M143.2,34.18a1.64,1.64,0,0,1,.42-.16,1.61,1.61,0,0,0,1.47,2.73,1.57,1.57,0,0,1-.36.26,1.61,1.61,0,0,1-1.53-2.83Z"/><path class="cls-3" d="M144.23,34.54a.82.82,0,0,1,.21-.08.81.81,0,0,0,.74,1.36A.78.78,0,0,1,145,36a.81.81,0,0,1-.77-1.42Z"/><path class="cls-3" d="M145.86,46a3.22,3.22,0,0,1-.63-6.41,3.16,3.16,0,0,1,.89,0,3.22,3.22,0,0,0,.6,6.17A3.31,3.31,0,0,1,145.86,46Z"/><path class="cls-3" d="M145.83,41.1a1.64,1.64,0,0,1,.44,0,1.61,1.61,0,0,0,.3,3.08,1.57,1.57,0,0,1-.43.1,1.61,1.61,0,0,1-.31-3.2Z"/><path class="cls-3" d="M146.64,41.83a.82.82,0,0,1,.22,0,.81.81,0,0,0,.15,1.54.78.78,0,0,1-.22.05.81.81,0,0,1-.16-1.6Z"/><path class="cls-3" d="M146.36,51.5a3.22,3.22,0,0,1-.63-6.41,3.16,3.16,0,0,1,.89,0,3.22,3.22,0,0,0,.6,6.17A3.31,3.31,0,0,1,146.36,51.5Z"/><path class="cls-3" d="M146.33,46.65a1.64,1.64,0,0,1,.44,0,1.61,1.61,0,0,0,.3,3.08,1.57,1.57,0,0,1-.43.1,1.61,1.61,0,0,1-.31-3.2Z"/><path class="cls-3" d="M147.14,47.38a.82.82,0,0,1,.22,0,.81.81,0,0,0,.15,1.54.78.78,0,0,1-.22.05.81.81,0,0,1-.16-1.6Z"/><path class="cls-3" d="M125.7,30.53a3.22,3.22,0,0,1-6.44,0,3.16,3.16,0,0,1,.12-.88,3.22,3.22,0,0,0,6.2,0A3.31,3.31,0,0,1,125.7,30.53Z"/><path class="cls-3" d="M120.87,30.09a1.64,1.64,0,0,1,.06-.44,1.61,1.61,0,0,0,3.1,0,1.57,1.57,0,0,1,.06.44,1.61,1.61,0,0,1-3.22,0Z"/><path class="cls-3" d="M121.67,29.35a.82.82,0,0,1,0-.22.81.81,0,0,0,1.55,0,.78.78,0,0,1,0,.22.81.81,0,0,1-1.61,0Z"/><path class="cls-3" d="M132.06,29.5a3.22,3.22,0,0,1-6.44,0,3.16,3.16,0,0,1,.12-.88,3.22,3.22,0,0,0,6.2,0A3.31,3.31,0,0,1,132.06,29.5Z"/><path class="cls-3" d="M127.23,29.06a1.64,1.64,0,0,1,.06-.44,1.61,1.61,0,0,0,3.1,0,1.57,1.57,0,0,1,.06.44,1.61,1.61,0,0,1-3.22,0Z"/><path class="cls-3" d="M128,28.33a.82.82,0,0,1,0-.22.81.81,0,0,0,1.55,0,.78.78,0,0,1,0,.22.81.81,0,0,1-1.61,0Z"/><path class="cls-3" d="M131.08,19.33a2.51,2.51,0,0,1,1.48,4.8,2.46,2.46,0,0,1-.69.11,2.51,2.51,0,0,0-1.42-4.62A2.58,2.58,0,0,1,131.08,19.33Z"/><path class="cls-3" d="M131.86,23a1.28,1.28,0,0,1-.34.06,1.26,1.26,0,0,0-.71-2.31,1.22,1.22,0,0,1,.31-.15,1.26,1.26,0,0,1,.74,2.4Z"/><path class="cls-3" d="M131.13,22.6l-.17,0a.63.63,0,0,0-.36-1.15l.16-.07a.63.63,0,0,1,.37,1.2Z"/><path class="cls-3" d="M128.34,16.23a2.51,2.51,0,0,1,1.48,4.8,2.46,2.46,0,0,1-.69.11,2.51,2.51,0,0,0-1.42-4.62A2.58,2.58,0,0,1,128.34,16.23Z"/><path class="cls-3" d="M129.12,19.93a1.28,1.28,0,0,1-.34.06,1.26,1.26,0,0,0-.71-2.31,1.22,1.22,0,0,1,.31-.15,1.26,1.26,0,0,1,.74,2.4Z"/><path class="cls-3" d="M128.39,19.5l-.17,0a.63.63,0,0,0-.36-1.15l.16-.07a.63.63,0,0,1,.37,1.2Z"/><path class="cls-3" d="M107.28,26.33A2.51,2.51,0,0,1,109.86,22a2.46,2.46,0,0,1,.54.44,2.51,2.51,0,0,0-2.48,4.15A2.58,2.58,0,0,1,107.28,26.33Z"/><path class="cls-3" d="M109.51,23.27a1.28,1.28,0,0,1,.27.22,1.26,1.26,0,0,0-1.24,2.07,1.22,1.22,0,0,1-.32-.13,1.26,1.26,0,0,1,1.29-2.16Z"/><path class="cls-3" d="M109.68,24.11a.64.64,0,0,1,.14.11.63.63,0,0,0-.62,1l-.16-.07a.63.63,0,0,1,.64-1.08Z"/><path class="cls-3" d="M110.51,22.18a2.51,2.51,0,0,1,2.58-4.31,2.46,2.46,0,0,1,.54.44,2.51,2.51,0,0,0-2.48,4.15A2.58,2.58,0,0,1,110.51,22.18Z"/><path class="cls-3" d="M112.74,19.12a1.28,1.28,0,0,1,.27.22,1.26,1.26,0,0,0-1.24,2.07,1.22,1.22,0,0,1-.32-.13,1.26,1.26,0,0,1,1.29-2.16Z"/><path class="cls-3" d="M112.9,20a.64.64,0,0,1,.14.11.63.63,0,0,0-.62,1l-.16-.07A.63.63,0,0,1,112.9,20Z"/><path class="cls-3" d="M95.43,49a2.51,2.51,0,0,1,.23-5,2.46,2.46,0,0,1,.68.13A2.51,2.51,0,0,0,96.12,49,2.58,2.58,0,0,1,95.43,49Z"/><path class="cls-3" d="M95.95,45.28a1.28,1.28,0,0,1,.34.06,1.26,1.26,0,0,0-.11,2.41,1.22,1.22,0,0,1-.34,0,1.26,1.26,0,0,1,.12-2.51Z"/><path class="cls-3" d="M96.49,45.94l.17,0a.63.63,0,0,0-.06,1.21l-.17,0a.63.63,0,0,1,.06-1.25Z"/><path class="cls-3" d="M133.24,26.75A2.51,2.51,0,0,1,138.1,28a2.46,2.46,0,0,1-.27.64,2.51,2.51,0,0,0-4.67-1.24A2.58,2.58,0,0,1,133.24,26.75Z"/><path class="cls-3" d="M136.79,28.06a1.28,1.28,0,0,1-.13.32,1.26,1.26,0,0,0-2.34-.62,1.22,1.22,0,0,1,0-.34,1.26,1.26,0,0,1,2.43.64Z"/><path class="cls-3" d="M136,28.45a.64.64,0,0,1-.07.16.63.63,0,0,0-1.17-.31.61.61,0,0,1,0-.17.63.63,0,0,1,1.21.32Z"/><path class="cls-3" d="M137.82,27.94a3.6,3.6,0,0,1,4.35,5.74,3.53,3.53,0,0,1-.87.49,3.6,3.6,0,0,0-4.18-5.52A3.7,3.7,0,0,1,137.82,27.94Z"/><path class="cls-3" d="M141.85,32.87a3.6,3.6,0,0,1,4.35,5.74,3.53,3.53,0,0,1-.87.49,3.6,3.6,0,0,0-4.18-5.52A3.7,3.7,0,0,1,141.85,32.87Z"/><path class="cls-3" d="M145,38.42a3.6,3.6,0,0,1,2.32,6.82,3.53,3.53,0,0,1-1,.19,3.6,3.6,0,0,0-2.23-6.56A3.7,3.7,0,0,1,145,38.42Z"/><path class="cls-3" d="M146.83,44.52a3.6,3.6,0,0,1-1.24,7.09,3.53,3.53,0,0,1-.95-.31,3.6,3.6,0,0,0,1.19-6.83A3.7,3.7,0,0,1,146.83,44.52Z"/><path class="cls-3" d="M96,53.93a2.51,2.51,0,0,1,.23-5A2.46,2.46,0,0,1,97,49a2.51,2.51,0,0,0-.22,4.83A2.58,2.58,0,0,1,96,53.93Z"/><path class="cls-3" d="M96.56,50.18a1.28,1.28,0,0,1,.34.06,1.26,1.26,0,0,0-.11,2.41,1.22,1.22,0,0,1-.34,0,1.26,1.26,0,0,1,.12-2.51Z"/><path class="cls-3" d="M97.1,50.83l.17,0a.63.63,0,0,0-.06,1.21l-.17,0a.63.63,0,0,1,.06-1.25Z"/><path class="cls-3" d="M119.31,29.25a3.22,3.22,0,0,1-6.44,0,3.16,3.16,0,0,1,.12-.88,3.22,3.22,0,0,0,6.2,0A3.31,3.31,0,0,1,119.31,29.25Z"/><path class="cls-3" d="M114.48,28.81a1.64,1.64,0,0,1,.06-.44,1.61,1.61,0,0,0,3.1,0,1.57,1.57,0,0,1,.06.44,1.61,1.61,0,0,1-3.22,0Z"/><path class="cls-3" d="M115.29,28.07a.82.82,0,0,1,0-.22.81.81,0,0,0,1.55,0,.78.78,0,0,1,0,.22.81.81,0,0,1-1.61,0Z"/><path class="cls-3" d="M112.87,29.63a2.84,2.84,0,0,1-5.68,0,2.78,2.78,0,0,1,.11-.78,2.84,2.84,0,0,0,5.46,0A2.91,2.91,0,0,1,112.87,29.63Z"/><path class="cls-3" d="M108.62,29.24a1.44,1.44,0,0,1,.05-.39,1.42,1.42,0,0,0,2.73,0,1.38,1.38,0,0,1,.05.39,1.42,1.42,0,0,1-2.84,0Z"/><path class="cls-3" d="M109.33,28.6a.72.72,0,0,1,0-.19.71.71,0,0,0,1.37,0,.69.69,0,0,1,0,.19.71.71,0,0,1-1.42,0Z"/><path class="cls-3" d="M107.77,29.48A2.84,2.84,0,0,1,103,32.56a2.78,2.78,0,0,1-.33-.71,2.84,2.84,0,0,0,4.59-3A2.91,2.91,0,0,1,107.77,29.48Z"/><path class="cls-3" d="M104,31.46a1.44,1.44,0,0,1-.17-.35,1.42,1.42,0,0,0,2.29-1.48,1.38,1.38,0,0,1,.26.3A1.42,1.42,0,0,1,104,31.46Z"/><path class="cls-3" d="M104.23,30.54a.72.72,0,0,1-.08-.18.71.71,0,0,0,1.15-.74.69.69,0,0,1,.13.15.71.71,0,0,1-1.19.77Z"/><path class="cls-3" d="M101.76,33.68a2.84,2.84,0,0,1-2.76,5,2.78,2.78,0,0,1-.63-.47A2.84,2.84,0,0,0,101,33.4,2.91,2.91,0,0,1,101.76,33.68Z"/><path class="cls-3" d="M99.34,37.21A1.44,1.44,0,0,1,99,37a1.42,1.42,0,0,0,1.33-2.39,1.38,1.38,0,0,1,.36.14,1.42,1.42,0,0,1-1.38,2.48Z"/><path class="cls-3" d="M99.13,36.28a.72.72,0,0,1-.16-.12A.71.71,0,0,0,99.63,35a.69.69,0,0,1,.18.07.71.71,0,0,1-.69,1.24Z"/><path class="cls-3" d="M98.31,39a2.84,2.84,0,0,1-.25,5.67,2.78,2.78,0,0,1-.77-.14,2.84,2.84,0,0,0,.24-5.46A2.91,2.91,0,0,1,98.31,39Z"/><path class="cls-3" d="M97.74,43.22a1.44,1.44,0,0,1-.38-.07,1.42,1.42,0,0,0,.12-2.73,1.38,1.38,0,0,1,.39,0,1.42,1.42,0,0,1-.12,2.84Z"/><path class="cls-3" d="M97.62,45.28a2.84,2.84,0,0,1-.25,5.67,2.78,2.78,0,0,1-.77-.14,2.84,2.84,0,0,0,.24-5.46A2.91,2.91,0,0,1,97.62,45.28Z"/><path class="cls-3" d="M97,49.51a1.44,1.44,0,0,1-.38-.07,1.42,1.42,0,0,0,.12-2.73,1.38,1.38,0,0,1,.39,0A1.42,1.42,0,0,1,97,49.51Z"/><path class="cls-3" d="M96.43,48.78l-.19,0a.71.71,0,0,0,.06-1.36l.19,0a.71.71,0,0,1-.06,1.42Z"/><path class="cls-3" d="M97.62,51.57a2.84,2.84,0,0,1-.25,5.67,2.78,2.78,0,0,1-.77-.14,2.84,2.84,0,0,0,.24-5.46A2.91,2.91,0,0,1,97.62,51.57Z"/><path class="cls-3" d="M97,55.81a1.44,1.44,0,0,1-.38-.07A1.42,1.42,0,0,0,96.78,53a1.38,1.38,0,0,1,.39,0A1.42,1.42,0,0,1,97,55.81Z"/><path class="cls-3" d="M96.43,55.07l-.19,0a.71.71,0,0,0,.06-1.36l.19,0a.71.71,0,0,1-.06,1.42Z"/><path class="cls-3" d="M145,56a2.84,2.84,0,0,1,2.13-5.26,2.78,2.78,0,0,1,.68.39,2.84,2.84,0,0,0-2,5.06A2.91,2.91,0,0,1,145,56Z"/><path class="cls-3" d="M146.92,52.22a1.44,1.44,0,0,1,.34.19,1.42,1.42,0,0,0-1,2.53,1.38,1.38,0,0,1-.38-.09,1.42,1.42,0,0,1,1.06-2.63Z"/><path class="cls-3" d="M147.25,53.12a.72.72,0,0,1,.17.1.71.71,0,0,0-.51,1.27l-.19,0a.71.71,0,0,1,.53-1.32Z"/><path class="cls-4" d="M112.87,64a2.22,2.22,0,0,0,1.94,0,11.54,11.54,0,0,1,6.89-.44c1.47.08,3.67-.68,4.46-.34a8.06,8.06,0,0,0,5.11.46"/><path class="cls-3" d="M122.48,25.24c-1.58,0-2.86.77-2.86,1.73s1.28,1.73,2.86,1.73,2.86-.77,2.86-1.73S124.05,25.24,122.48,25.24Zm0,2.88c-1.2,0-2.17-.59-2.17-1.31s1-1.31,2.17-1.31,2.17.59,2.17,1.31S123.68,28.12,122.48,28.12Z"/><path class="cls-3" d="M122.48,25.39c-.95,0-1.72.46-1.72,1s.77,1,1.72,1,1.72-.47,1.72-1S123.42,25.39,122.48,25.39Zm0,1.73c-.72,0-1.31-.35-1.31-.79s.59-.79,1.31-.79,1.31.35,1.31.79S123.2,27.12,122.48,27.12Z"/><path class="cls-3" d="M122.48,25.24c-.57,0-1,.28-1,.62s.46.62,1,.62,1-.28,1-.62S123,25.24,122.48,25.24Zm0,1c-.43,0-.78-.21-.78-.47s.35-.47.78-.47.78.21.78.47S122.91,26.27,122.48,26.27Z"/><path class="cls-3" d="M119.69,16.11c-1.58,0-2.86.77-2.86,1.73s1.28,1.73,2.86,1.73,2.86-.77,2.86-1.73S121.27,16.11,119.69,16.11Zm0,2.88c-1.2,0-2.17-.59-2.17-1.31s1-1.31,2.17-1.31,2.17.59,2.17,1.31S120.89,19,119.69,19Z"/><path class="cls-3" d="M119.69,16.26c-.95,0-1.72.46-1.72,1s.77,1,1.72,1,1.72-.47,1.72-1S120.64,16.26,119.69,16.26Zm0,1.73c-.72,0-1.31-.35-1.31-.79s.59-.79,1.31-.79,1.31.35,1.31.79S120.41,18,119.69,18Z"/><path class="cls-3" d="M119.69,16.11c-.57,0-1,.28-1,.62s.46.62,1,.62,1-.28,1-.62S120.26,16.11,119.69,16.11Zm0,1c-.43,0-.78-.21-.78-.47s.35-.47.78-.47.78.21.78.47S120.12,17.14,119.69,17.14Z"/><path class="cls-3" d="M116.1,15.17c-1.58,0-2.86.77-2.86,1.73s1.28,1.73,2.86,1.73S119,17.85,119,16.9,117.67,15.17,116.1,15.17Zm0,2.88c-1.2,0-2.17-.59-2.17-1.31s1-1.31,2.17-1.31,2.17.59,2.17,1.31S117.3,18.05,116.1,18.05Z"/><path class="cls-3" d="M116.1,15.32c-.95,0-1.72.46-1.72,1s.77,1,1.72,1,1.72-.47,1.72-1S117,15.32,116.1,15.32Zm0,1.73c-.72,0-1.31-.35-1.31-.79s.59-.79,1.31-.79,1.31.35,1.31.79S116.82,17.06,116.1,17.06Z"/><path class="cls-3" d="M116.1,15.17c-.57,0-1,.28-1,.62s.46.62,1,.62,1-.28,1-.62S116.66,15.17,116.1,15.17Zm0,1c-.43,0-.78-.21-.78-.47s.35-.47.78-.47.78.21.78.47S116.53,16.21,116.1,16.21Z"/><path class="cls-3" d="M126.68,18c-1.13,0-2.05.56-2.05,1.24s.92,1.24,2.05,1.24,2.05-.56,2.05-1.24S127.81,18,126.68,18Zm0,2.07c-.86,0-1.56-.42-1.56-.94s.7-.94,1.56-.94,1.56.42,1.56.94S127.54,20.05,126.68,20.05Z"/><path class="cls-3" d="M126.68,18.09c-.68,0-1.23.33-1.23.75s.55.75,1.23.75,1.23-.33,1.23-.75S127.36,18.09,126.68,18.09Zm0,1.24c-.52,0-.94-.25-.94-.57s.42-.57.94-.57.94.25.94.57S127.2,19.33,126.68,19.33Z"/><path class="cls-3" d="M126.68,18c-.41,0-.74.2-.74.45s.33.45.74.45.74-.2.74-.45S127.08,18,126.68,18Zm0,.74c-.31,0-.56-.15-.56-.34s.25-.34.56-.34.56.15.56.34S127,18.72,126.68,18.72Z"/><path class="cls-3" d="M125.34,14.65c-1.58,0-2.86.77-2.86,1.73s1.28,1.73,2.86,1.73,2.86-.77,2.86-1.73S126.92,14.65,125.34,14.65Zm0,2.88c-1.2,0-2.17-.59-2.17-1.31s1-1.31,2.17-1.31,2.17.59,2.17,1.31S126.55,17.53,125.34,17.53Z"/><path class="cls-3" d="M125.34,14.8c-.95,0-1.72.46-1.72,1s.77,1,1.72,1,1.72-.47,1.72-1S126.29,14.8,125.34,14.8Zm0,1.73c-.72,0-1.31-.35-1.31-.79s.59-.79,1.31-.79,1.31.35,1.31.79S126.07,16.53,125.34,16.53Z"/><path class="cls-3" d="M125.34,14.65c-.57,0-1,.28-1,.62s.46.62,1,.62,1-.28,1-.62S125.91,14.65,125.34,14.65Zm0,1c-.43,0-.78-.21-.78-.47s.35-.47.78-.47.78.21.78.47S125.78,15.68,125.34,15.68Z"/><path class="cls-3" d="M119.69,13.48c-1.58,0-2.86.77-2.86,1.73s1.28,1.73,2.86,1.73,2.86-.77,2.86-1.73S121.27,13.48,119.69,13.48Zm0,2.88c-1.2,0-2.17-.59-2.17-1.31s1-1.31,2.17-1.31,2.17.59,2.17,1.31S120.89,16.36,119.69,16.36Z"/><path class="cls-3" d="M119.69,13.63c-.95,0-1.72.46-1.72,1s.77,1,1.72,1,1.72-.47,1.72-1S120.64,13.63,119.69,13.63Zm0,1.73c-.72,0-1.31-.35-1.31-.79s.59-.79,1.31-.79,1.31.35,1.31.79S120.41,15.36,119.69,15.36Z"/><path class="cls-3" d="M119.69,13.48c-.57,0-1,.28-1,.62s.46.62,1,.62,1-.28,1-.62S120.26,13.48,119.69,13.48Zm0,1c-.43,0-.78-.21-.78-.47s.35-.47.78-.47.78.21.78.47S120.12,14.51,119.69,14.51Z"/><path class="cls-3" d="M128.14,23.66c-1.58,0-2.86.77-2.86,1.73s1.28,1.73,2.86,1.73,2.86-.77,2.86-1.73S129.72,23.66,128.14,23.66Zm0,2.88c-1.2,0-2.17-.59-2.17-1.31s1-1.31,2.17-1.31,2.17.59,2.17,1.31S129.34,26.54,128.14,26.54Z"/><path class="cls-3" d="M128.14,23.82c-.95,0-1.72.46-1.72,1s.77,1,1.72,1,1.72-.47,1.72-1S129.09,23.82,128.14,23.82Zm0,1.73c-.72,0-1.31-.35-1.31-.79s.59-.79,1.31-.79,1.31.35,1.31.79S128.87,25.55,128.14,25.55Z"/><path class="cls-3" d="M128.14,23.66c-.57,0-1,.28-1,.62s.46.62,1,.62,1-.28,1-.62S128.71,23.66,128.14,23.66Zm0,1c-.43,0-.78-.21-.78-.47s.35-.47.78-.47.78.21.78.47S128.57,24.7,128.14,24.7Z"/><path class="cls-3" d="M132.93,24.32c-.95,0-1.72.46-1.72,1s.77,1,1.72,1,1.72-.47,1.72-1S133.88,24.32,132.93,24.32Zm0,1.73c-.72,0-1.31-.35-1.31-.79s.59-.79,1.31-.79,1.31.35,1.31.79S133.66,26,132.93,26Z"/><path class="cls-3" d="M132.6,24.62c-.57,0-1,.28-1,.62s.46.62,1,.62,1-.28,1-.62S133.17,24.62,132.6,24.62Zm0,1c-.43,0-.78-.21-.78-.47s.35-.47.78-.47.78.21.78.47S133,25.65,132.6,25.65Z"/><path class="cls-3" d="M127.82,20.36c-1.58,0-2.86.77-2.86,1.73s1.28,1.73,2.86,1.73,2.86-.77,2.86-1.73S129.4,20.36,127.82,20.36Zm0,2.88c-1.2,0-2.17-.59-2.17-1.31s1-1.31,2.17-1.31,2.17.59,2.17,1.31S129,23.24,127.82,23.24Z"/><path class="cls-3" d="M127.82,20.51c-.95,0-1.72.46-1.72,1s.77,1,1.72,1,1.72-.47,1.72-1S128.77,20.51,127.82,20.51Zm0,1.73c-.72,0-1.31-.35-1.31-.79s.59-.79,1.31-.79,1.31.35,1.31.79S128.54,22.25,127.82,22.25Z"/><path class="cls-3" d="M127.82,20.36c-.57,0-1,.28-1,.62s.46.62,1,.62,1-.28,1-.62S128.39,20.36,127.82,20.36Zm0,1c-.43,0-.78-.21-.78-.47s.35-.47.78-.47.78.21.78.47S128.25,21.4,127.82,21.4Z"/><path class="cls-3" d="M122.11,18.79c-1.58,0-2.86.77-2.86,1.73s1.28,1.73,2.86,1.73,2.86-.77,2.86-1.73S123.69,18.79,122.11,18.79Zm0,2.88c-1.2,0-2.17-.59-2.17-1.31s1-1.31,2.17-1.31,2.17.59,2.17,1.31S123.31,21.67,122.11,21.67Z"/><path class="cls-3" d="M122.11,18.94c-.95,0-1.72.46-1.72,1s.77,1,1.72,1,1.72-.47,1.72-1S123.06,18.94,122.11,18.94Zm0,1.73c-.72,0-1.31-.35-1.31-.79s.59-.79,1.31-.79,1.31.35,1.31.79S122.83,20.67,122.11,20.67Z"/><path class="cls-3" d="M122.11,18.79c-.57,0-1,.28-1,.62s.46.62,1,.62,1-.28,1-.62S122.68,18.79,122.11,18.79Zm0,1c-.43,0-.78-.21-.78-.47s.35-.47.78-.47.78.21.78.47S122.54,19.82,122.11,19.82Z"/><path class="cls-3" d="M116.9,20.87c-1.58,0-2.86.77-2.86,1.73s1.28,1.73,2.86,1.73,2.86-.77,2.86-1.73S118.48,20.87,116.9,20.87Zm0,2.88c-1.2,0-2.17-.59-2.17-1.31s1-1.31,2.17-1.31,2.17.59,2.17,1.31S118.1,23.74,116.9,23.74Z"/><path class="cls-3" d="M116.9,21c-.95,0-1.72.46-1.72,1s.77,1,1.72,1,1.72-.47,1.72-1S117.85,21,116.9,21Zm0,1.73c-.72,0-1.31-.35-1.31-.79s.59-.79,1.31-.79,1.31.35,1.31.79S117.62,22.75,116.9,22.75Z"/><path class="cls-3" d="M116.9,20.87c-.57,0-1,.28-1,.62s.46.62,1,.62,1-.28,1-.62S117.47,20.87,116.9,20.87Zm0,1c-.43,0-.78-.21-.78-.47s.35-.47.78-.47.78.21.78.47S117.33,21.9,116.9,21.9Z"/><path class="cls-3" d="M115.18,18c-1.58,0-2.86.77-2.86,1.73s1.28,1.73,2.86,1.73,2.86-.77,2.86-1.73S116.76,18,115.18,18Zm0,2.88c-1.2,0-2.17-.59-2.17-1.31s1-1.31,2.17-1.31,2.17.59,2.17,1.31S116.38,20.91,115.18,20.91Z"/><path class="cls-3" d="M115.18,18.18c-.95,0-1.72.46-1.72,1s.77,1,1.72,1,1.72-.47,1.72-1S116.13,18.18,115.18,18.18Zm0,1.73c-.72,0-1.31-.35-1.31-.79s.59-.79,1.31-.79,1.31.35,1.31.79S115.91,19.91,115.18,19.91Z"/><path class="cls-3" d="M115.18,18c-.57,0-1,.28-1,.62s.46.62,1,.62,1-.28,1-.62S115.75,18,115.18,18Zm0,1c-.43,0-.78-.21-.78-.47s.35-.47.78-.47.78.21.78.47S115.61,19.06,115.18,19.06Z"/><path class="cls-3" d="M111.77,21.37c-1.58,0-2.86.77-2.86,1.73s1.28,1.73,2.86,1.73,2.86-.77,2.86-1.73S113.35,21.37,111.77,21.37Zm0,2.88c-1.2,0-2.17-.59-2.17-1.31s1-1.31,2.17-1.31,2.17.59,2.17,1.31S113,24.25,111.77,24.25Z"/><path class="cls-3" d="M111.77,21.52c-.95,0-1.72.46-1.72,1s.77,1,1.72,1,1.72-.47,1.72-1S112.72,21.52,111.77,21.52Zm0,1.73c-.72,0-1.31-.35-1.31-.79s.59-.79,1.31-.79,1.31.35,1.31.79S112.49,23.25,111.77,23.25Z"/><path class="cls-3" d="M111.77,21.37c-.57,0-1,.28-1,.62s.46.62,1,.62,1-.28,1-.62S112.34,21.37,111.77,21.37Zm0,1c-.43,0-.78-.21-.78-.47s.35-.47.78-.47.78.21.78.47S112.2,22.4,111.77,22.4Z"/><path class="cls-3" d="M122.11,21.94c-1.58,0-2.86.77-2.86,1.73s1.28,1.73,2.86,1.73,2.86-.77,2.86-1.73S123.69,21.94,122.11,21.94Zm0,2.88c-1.2,0-2.17-.59-2.17-1.31s1-1.31,2.17-1.31,2.17.59,2.17,1.31S123.31,24.82,122.11,24.82Z"/><path class="cls-3" d="M122.11,22.09c-.95,0-1.72.46-1.72,1s.77,1,1.72,1,1.72-.47,1.72-1S123.06,22.09,122.11,22.09Zm0,1.73c-.72,0-1.31-.35-1.31-.79s.59-.79,1.31-.79,1.31.35,1.31.79S122.83,23.82,122.11,23.82Z"/><path class="cls-3" d="M122.11,21.94c-.57,0-1,.28-1,.62s.46.62,1,.62,1-.28,1-.62S122.68,21.94,122.11,21.94Zm0,1c-.43,0-.78-.21-.78-.47s.35-.47.78-.47.78.21.78.47S122.54,23,122.11,23Z"/><path class="cls-3" d="M116.4,24.13c-1.58,0-2.86.77-2.86,1.73s1.28,1.73,2.86,1.73,2.86-.77,2.86-1.73S118,24.13,116.4,24.13Zm0,2.88c-1.2,0-2.17-.59-2.17-1.31s1-1.31,2.17-1.31,2.17.59,2.17,1.31S117.6,27,116.4,27Z"/><path class="cls-3" d="M116.4,24.28c-.95,0-1.72.46-1.72,1s.77,1,1.72,1,1.72-.47,1.72-1S117.35,24.28,116.4,24.28Zm0,1.73c-.72,0-1.31-.35-1.31-.79s.59-.79,1.31-.79,1.31.35,1.31.79S117.12,26,116.4,26Z"/><path class="cls-3" d="M116.4,24.13c-.57,0-1,.28-1,.62s.46.62,1,.62,1-.28,1-.62S117,24.13,116.4,24.13Zm0,1c-.43,0-.78-.21-.78-.47s.35-.47.78-.47.78.21.78.47S116.83,25.16,116.4,25.16Z"/><path class="cls-3" d="M110.75,24.4c-1.58,0-2.86.77-2.86,1.73s1.28,1.73,2.86,1.73,2.86-.77,2.86-1.73S112.32,24.4,110.75,24.4Zm0,2.88c-1.2,0-2.17-.59-2.17-1.31s1-1.31,2.17-1.31,2.17.59,2.17,1.31S111.95,27.28,110.75,27.28Z"/><path class="cls-3" d="M110.75,24.55c-.95,0-1.72.46-1.72,1s.77,1,1.72,1,1.72-.47,1.72-1S111.69,24.55,110.75,24.55Zm0,1.73c-.72,0-1.31-.35-1.31-.79s.59-.79,1.31-.79,1.31.35,1.31.79S111.47,26.28,110.75,26.28Z"/><path class="cls-3" d="M110.75,24.4c-.57,0-1,.28-1,.62s.46.62,1,.62,1-.28,1-.62S111.31,24.4,110.75,24.4Zm0,1c-.43,0-.78-.21-.78-.47s.35-.47.78-.47.78.21.78.47S111.18,25.43,110.75,25.43Z"/><path class="cls-3" d="M105,26.63c-1.38.76-2.13,2-1.68,2.88s1.95.9,3.33.15,2.13-2,1.68-2.88S106.38,25.87,105,26.63Zm1.38,2.53c-1.05.58-2.19.53-2.54-.11s.22-1.62,1.28-2.2,2.19-.53,2.54.11S107.43,28.58,106.38,29.15Z"/><path class="cls-3" d="M105.07,26.76c-.83.45-1.28,1.23-1,1.73s1.17.54,2,.09,1.28-1.23,1-1.74S105.9,26.31,105.07,26.76Zm.83,1.52c-.63.35-1.32.32-1.53-.07s.13-1,.77-1.32,1.32-.32,1.53.07S106.53,27.93,105.9,28.28Z"/><path class="cls-3" d="M105,26.63c-.5.27-.77.73-.6,1s.7.32,1.2.05.77-.73.6-1S105.49,26.36,105,26.63Zm.5.91c-.38.21-.79.19-.91,0s.08-.58.46-.79.79-.19.91,0S105.87,27.33,105.49,27.53Z"/><path class="cls-3" d="M99.55,30.5c-1,1.22-1.42,2.59-.73,3.25s2.13.27,3.22-.86,1.37-2.55.73-3.26S100.59,29.22,99.55,30.5Zm2.08,2c-.83.87-1.93,1.16-2.45.66s-.27-1.61.56-2.48,1.93-1.16,2.45-.66S102.45,31.63,101.62,32.49Z"/><path class="cls-3" d="M99.66,30.61c-.66.68-.85,1.56-.44,2s1.28.16,1.94-.52.85-1.56.44-2S100.31,29.92,99.66,30.61Zm1.25,1.2c-.5.52-1.16.7-1.48.4s-.17-1,.33-1.49,1.16-.7,1.48-.4S101.41,31.28,100.9,31.8Z"/><path class="cls-3" d="M99.55,30.5c-.39.41-.51.93-.26,1.17s.76.1,1.16-.31.51-.93.26-1.17S99.94,30.09,99.55,30.5Zm.75.71c-.3.31-.69.42-.88.24s-.1-.58.2-.89.69-.42.88-.24S100.59,30.9,100.29,31.22Z"/><path class="cls-3" d="M96.39,36.05c-.58,1.47-.33,2.94.56,3.29s2.08-.55,2.66-2S99.93,34.38,99,34,97,34.58,96.39,36.05Zm2.68,1.06c-.44,1.12-1.34,1.81-2,1.54s-.86-1.39-.42-2.5,1.35-1.81,2-1.54S99.51,36,99.07,37.11Z"/><path class="cls-3" d="M96.53,36.11c-.35.88-.2,1.77.33,2s1.25-.33,1.6-1.22.2-1.77-.34-2S96.88,35.22,96.53,36.11Zm1.61.64c-.27.67-.81,1.09-1.22.93s-.52-.83-.26-1.51.81-1.09,1.22-.93S98.41,36.07,98.14,36.74Z"/><path class="cls-3" d="M96.39,36.05c-.21.53-.12,1.05.2,1.18s.74-.2,1-.73.12-1.05-.2-1.18S96.6,35.52,96.39,36.05Zm1,.38c-.16.4-.48.65-.72.55s-.31-.5-.15-.9.48-.65.73-.55S97.51,36,97.35,36.43Z"/><path class="cls-3" d="M94.61,41.61c-.16,1.57.47,2.92,1.42,3s1.85-1.09,2-2.66-.47-2.92-1.42-3S94.77,40,94.61,41.61Zm2.86.3c-.12,1.19-.81,2.1-1.53,2s-1.21-1.1-1.08-2.3.81-2.1,1.53-2S97.59,40.71,97.47,41.91Z"/><path class="cls-3" d="M94.76,41.62c-.1.94.28,1.76.85,1.82s1.11-.66,1.21-1.6S96.54,40.08,96,40,94.86,40.68,94.76,41.62Zm1.72.18c-.07.72-.49,1.26-.92,1.22s-.73-.66-.65-1.38.49-1.26.92-1.22S96.55,41.08,96.48,41.8Z"/><path class="cls-3" d="M94.61,41.61c-.06.56.17,1,.51,1.08s.66-.39.72-1-.17-1-.51-1.08S94.67,41,94.61,41.61Zm1,.11c0,.43-.29.75-.55.73s-.43-.4-.39-.82.29-.75.55-.73S95.68,41.29,95.63,41.72Z"/><path class="cls-3" d="M194.54,175.89c-4.64,1.09-14.79-59.39-15.32-65.55a21.93,21.93,0,0,0-3-9c2,2,9.73,7.19,10,24.87C187.72,133.78,193.59,161.94,194.54,175.89Z"/><path class="cls-3" d="M129.24,10.6s-.27,2.12-.51,1.2-4.56-.64-9.65.14a9.87,9.87,0,0,1-4.24,1c-1.87-1.83-1.55-4-.39-6,3.19,2,3.92,1.09,7.62.41s6.2,2.07,6.95,3C129.17,10.5,129.24,10.6,129.24,10.6Z"/><rect class="cls-3" x="-0.39" y="236.4" width="240.36" height="35.96"/></svg>