<svg id="Layer_1" data-name="Layer 1" xmlns="http://www.w3.org/2000/svg" viewBox="0 0 237 262"><defs><style>.cls-1{fill:#383838;}.cls-2{fill:#ff9b29;}.cls-3{fill:#f5f5f5;}.cls-4{fill:#c9a52f;}</style></defs><title>Untitled-1</title><g id="Layer_1-2" data-name="Layer 1"><rect class="cls-1" x="124.65" y="6.3" width="2.25" height="12.09" rx="1.02" ry="1.02"/><circle class="cls-2" cx="125.76" cy="8.25" r="1.92"/><circle class="cls-2" cx="125.78" cy="14.04" r="2.66"/><polygon class="cls-3" points="125.78 9.25 124.43 6.94 122.06 5.73 124.36 4.38 125.58 2 126.92 4.31 129.3 5.52 126.99 6.87 125.78 9.25"/><path class="cls-2" d="M136.83,30.58V78.9l-3.34,1.41-15,.16-3.89-1.59V30.58s.27-1.61.45-2.41c0-.05.07-.09.09-.14a14.46,14.46,0,0,1,.79-2.37c1.75-4.15,5.46-7.68,9.73-7.68s8.2,3.75,9.87,8.06a13.46,13.46,0,0,1,.62,2c0,.19.22.38.24.56C136.51,29.28,136.83,30.58,136.83,30.58Z"/><polygon class="cls-1" points="114.59 67.17 117.36 68.46 134.18 68.72 136.83 67.63 136.83 70.53 134.24 71.62 117.42 71.35 114.59 70.07 114.59 67.17"/><polygon class="cls-3" points="136.83 66.18 136.83 69.08 134.24 70.16 117.42 69.91 114.59 68.62 114.59 65.72 117.36 67.01 134.18 67.27 136.83 66.18"/><polygon class="cls-1" points="114.59 55.57 117.36 56.86 134.18 57.12 136.83 56.03 136.83 58.93 134.24 60.02 117.42 59.76 114.59 58.47 114.59 55.57"/><polygon class="cls-3" points="136.83 54.58 136.83 57.48 134.24 58.56 117.42 58.3 114.59 57.02 114.59 54.12 117.36 55.41 134.18 55.67 136.83 54.58"/><polygon class="cls-1" points="114.59 32.37 117.36 33.65 134.18 33.91 136.83 32.83 136.83 35.73 134.24 36.82 117.42 36.55 114.59 35.27 114.59 32.37"/><polygon class="cls-1" points="114.59 43.97 117.36 45.26 134.18 45.52 136.83 44.43 136.83 47.33 134.24 48.42 117.42 48.16 114.59 46.87 114.59 43.97"/><polygon class="cls-3" points="136.83 42.98 136.83 45.88 134.24 46.97 117.42 46.7 114.59 45.42 114.59 42.52 117.36 43.81 134.18 44.07 136.83 42.98"/><polygon class="cls-3" points="114.59 30.92 117.36 32.21 134.18 32.47 136.83 31.38 136.83 34.28 134.24 35.37 117.42 35.1 114.59 33.82 114.59 30.92"/><path class="cls-1" d="M136.14,27.7c-1.15-5.08-5.4-10-10.48-10s-9.33,5-10.48,10l0,.48,2.32,1.11,16.64.26,2.16-.94C136.23,28.42,136.14,27.7,136.14,27.7Z"/><rect class="cls-1" x="118" y="49.43" width="1.27" height="4.69"/><rect class="cls-1" x="120.83" y="49.43" width="1.27" height="4.69"/><rect class="cls-1" x="123.65" y="49.43" width="1.27" height="4.69"/><rect class="cls-1" x="126.48" y="49.43" width="1.27" height="4.69"/><rect class="cls-1" x="129.31" y="49.43" width="1.27" height="4.69"/><rect class="cls-1" x="132.13" y="49.43" width="1.27" height="4.69"/><rect class="cls-1" x="118" y="61.03" width="1.27" height="4.69"/><rect class="cls-1" x="120.83" y="61.03" width="1.27" height="4.69"/><rect class="cls-1" x="123.65" y="61.03" width="1.27" height="4.69"/><rect class="cls-1" x="126.48" y="61.03" width="1.27" height="4.69"/><rect class="cls-1" x="129.31" y="61.03" width="1.27" height="4.69"/><rect class="cls-1" x="132.13" y="61.03" width="1.27" height="4.69"/><rect class="cls-1" x="117.95" y="73.25" width="1.27" height="4.69"/><rect class="cls-1" x="120.77" y="73.25" width="1.27" height="4.69"/><rect class="cls-1" x="123.6" y="73.25" width="1.27" height="4.69"/><rect class="cls-1" x="126.43" y="73.25" width="1.27" height="4.69"/><rect class="cls-1" x="129.25" y="73.25" width="1.27" height="4.69"/><rect class="cls-1" x="132.08" y="73.25" width="1.27" height="4.69"/><rect class="cls-1" x="118.01" y="37.72" width="1.27" height="4.69"/><rect class="cls-1" x="120.83" y="37.72" width="1.27" height="4.69"/><rect class="cls-1" x="123.66" y="37.72" width="1.27" height="4.69"/><rect class="cls-1" x="126.49" y="37.72" width="1.27" height="4.69"/><rect class="cls-1" x="129.31" y="37.72" width="1.27" height="4.69"/><rect class="cls-1" x="132.14" y="37.72" width="1.27" height="4.69"/><polygon class="cls-2" points="144.02 85.51 141.02 81.99 137.94 78.5 137.94 78.44 113.6 78.47 110.82 82.04 107.95 85.51 108.3 96.2 143.83 96.2 144.02 85.51"/><rect class="cls-1" x="107.96" y="85.63" width="36.07" height="0.83"/><rect class="cls-1" x="107.6" y="88.93" width="36.07" height="0.83"/><rect class="cls-2" x="127.67" y="98.8" width="10.78" height="29.29"/><rect class="cls-2" x="102.71" y="98.8" width="42.71" height="35.51"/><rect class="cls-3" x="138.44" y="108.8" width="10.48" height="2.22"/><rect class="cls-3" x="145.43" y="108.8" width="3.5" height="25.52"/><rect class="cls-3" x="137.07" y="98.8" width="1.75" height="29.29"/><rect class="cls-3" x="100.48" y="108.8" width="3.5" height="25.52"/><rect class="cls-2" x="110.99" y="98.8" width="10.78" height="29.29"/><rect class="cls-1" x="107.67" y="91.86" width="36.07" height="0.83"/><polygon class="cls-1" points="142.95 96.22 142.95 94.53 106.8 94.53 106.8 96.25 100.46 96.93 100.91 100.85 123.41 98.26 123.23 96.2 123.93 96.2 123.76 98.27 146.28 100.36 146.6 96.49 142.95 96.22"/><path class="cls-1" d="M107.87,70h0a.25.25,0,0,1,.25.26v3.28a.25.25,0,0,1-.25.26h0a.25.25,0,0,1-.25-.26V70.28A.25.25,0,0,1,107.87,70Z"/><ellipse class="cls-2" cx="107.87" cy="70.63" rx="0.43" ry="0.6"/><ellipse class="cls-2" cx="107.87" cy="72.44" rx="0.6" ry="0.83"/><polygon class="cls-3" points="107.88 70.94 107.57 70.22 107.03 69.84 107.55 69.41 107.83 68.67 108.13 69.39 108.67 69.78 108.15 70.2 107.88 70.94"/><path class="cls-2" d="M110.14,77.63V92.78l-.63.44-3.16.05-.66-.5V77.63a2.84,2.84,0,0,1-.07-.76s-.07,0-.07,0a5.69,5.69,0,0,1,.13-.75c.39-1.3,1.21-2.41,2.18-2.41s1.84,1.17,2.22,2.52a5.46,5.46,0,0,1,.13.62c0,.06-.07.12-.07.18A3.53,3.53,0,0,1,110.14,77.63Z"/><polygon class="cls-1" points="105.69 89.11 106.15 89.5 109.74 89.58 110.14 89.24 110.14 90.16 109.67 90.5 106.1 90.41 105.69 90.01 105.69 89.11"/><polygon class="cls-3" points="110.14 88.79 110.14 89.7 109.67 90.04 106.1 89.96 105.69 89.56 105.69 88.65 106.15 89.05 109.74 89.13 110.14 88.79"/><polygon class="cls-1" points="105.69 85.46 106.15 85.87 109.74 85.95 110.14 85.61 110.14 86.52 109.67 86.86 106.1 86.78 105.69 86.37 105.69 85.46"/><polygon class="cls-3" points="110.14 85.15 110.14 86.06 109.67 86.4 106.1 86.32 105.69 85.92 105.69 85.01 106.15 85.41 109.74 85.5 110.14 85.15"/><polygon class="cls-1" points="105.69 78.19 106.15 78.59 109.74 78.68 110.14 78.33 110.14 79.25 109.67 79.58 106.1 79.5 105.69 79.1 105.69 78.19"/><polygon class="cls-1" points="105.69 81.83 106.15 82.23 109.74 82.31 110.14 81.97 110.14 82.88 109.67 83.22 106.1 83.14 105.69 82.74 105.69 81.83"/><polygon class="cls-3" points="110.14 81.51 110.14 82.43 109.67 82.77 106.1 82.69 105.69 82.28 105.69 81.38 106.15 81.78 109.74 81.86 110.14 81.51"/><polygon class="cls-3" points="105.69 77.74 106.15 78.14 109.74 78.22 110.14 77.88 110.14 78.79 109.67 79.13 106.1 79.05 105.69 78.64 105.69 77.74"/><path class="cls-1" d="M110.22,76.74c-.26-1.59-1.22-3.15-2.37-3.15s-2.11,1.56-2.37,3.15v.15l.52.35,3.76.08.48-.3Z"/><rect class="cls-1" x="106.12" y="83.54" width="0.29" height="1.47"/><rect class="cls-1" x="106.76" y="83.54" width="0.29" height="1.47"/><rect class="cls-1" x="107.4" y="83.54" width="0.29" height="1.47"/><rect class="cls-1" x="108.03" y="83.54" width="0.29" height="1.47"/><rect class="cls-1" x="108.67" y="83.54" width="0.29" height="1.47"/><rect class="cls-1" x="109.31" y="83.54" width="0.29" height="1.47"/><rect class="cls-1" x="106.12" y="87.17" width="0.29" height="1.47"/><rect class="cls-1" x="106.76" y="87.17" width="0.29" height="1.47"/><rect class="cls-1" x="107.4" y="87.17" width="0.29" height="1.47"/><rect class="cls-1" x="108.03" y="87.17" width="0.29" height="1.47"/><rect class="cls-1" x="108.67" y="87.17" width="0.29" height="1.47"/><rect class="cls-1" x="109.31" y="87.17" width="0.29" height="1.47"/><rect class="cls-1" x="106.11" y="91.01" width="0.29" height="1.47"/><rect class="cls-1" x="106.75" y="91.01" width="0.29" height="1.47"/><rect class="cls-1" x="107.38" y="91.01" width="0.29" height="1.47"/><rect class="cls-1" x="108.02" y="91.01" width="0.29" height="1.47"/><rect class="cls-1" x="108.66" y="91.01" width="0.29" height="1.47"/><rect class="cls-1" x="109.3" y="91.01" width="0.29" height="1.47"/><rect class="cls-1" x="106.12" y="79.87" width="0.29" height="1.47"/><rect class="cls-1" x="106.76" y="79.87" width="0.29" height="1.47"/><rect class="cls-1" x="107.4" y="79.87" width="0.29" height="1.47"/><rect class="cls-1" x="108.04" y="79.87" width="0.29" height="1.47"/><rect class="cls-1" x="108.68" y="79.87" width="0.29" height="1.47"/><rect class="cls-1" x="109.32" y="79.87" width="0.29" height="1.47"/><rect class="cls-3" x="105.06" y="92.77" width="5.93" height="4.02"/><path class="cls-1" d="M124.55,73.64h0a.25.25,0,0,1,.25.26v3.28a.25.25,0,0,1-.25.26h0a.25.25,0,0,1-.25-.26V73.9A.25.25,0,0,1,124.55,73.64Z"/><ellipse class="cls-2" cx="124.55" cy="74.26" rx="0.43" ry="0.6"/><ellipse class="cls-2" cx="124.55" cy="76.07" rx="0.6" ry="0.83"/><polygon class="cls-3" points="124.55 74.57 124.25 73.85 123.71 73.46 124.23 73.04 124.5 72.29 124.81 73.02 125.35 73.4 124.82 73.82 124.55 74.57"/><path class="cls-2" d="M127.38,81.26V96.41l-.91.44-3.58.05-1.07-.5V81.26a7.33,7.33,0,0,0,.21-.76s.07,0,.07,0a5.94,5.94,0,0,1,.21-.75c.39-1.3,1.25-2.41,2.22-2.41s1.86,1.17,2.22,2.52a5.49,5.49,0,0,1,.14.62c0,.06.22.12.22.18A2.59,2.59,0,0,0,127.38,81.26Z"/><polygon class="cls-1" points="121.82 92.72 122.54 93.13 126.56 93.21 127.38 92.87 127.38 93.78 126.63 94.12 122.64 94.04 121.82 93.64 121.82 92.72"/><polygon class="cls-3" points="127.38 92.41 127.38 93.33 126.63 93.66 122.64 93.58 121.82 93.18 121.82 92.27 122.54 92.67 126.56 92.76 127.38 92.41"/><polygon class="cls-1" points="121.82 89.09 122.54 89.49 126.56 89.57 127.38 89.23 127.38 90.14 126.63 90.48 122.64 90.4 121.82 90 121.82 89.09"/><polygon class="cls-3" points="127.38 88.78 127.38 89.69 126.63 90.03 122.64 89.94 121.82 89.54 121.82 88.64 122.54 89.04 126.56 89.12 127.38 88.78"/><polygon class="cls-1" points="121.82 81.81 122.54 82.22 126.56 82.3 127.38 81.96 127.38 82.87 126.63 83.21 122.64 83.13 121.82 82.73 121.82 81.81"/><polygon class="cls-1" points="121.82 85.45 122.54 85.86 126.56 85.94 127.38 85.6 127.38 86.51 126.63 86.85 122.64 86.76 121.82 86.36 121.82 85.45"/><polygon class="cls-3" points="127.38 85.14 127.38 86.05 126.63 86.39 122.64 86.31 121.82 85.91 121.82 85 122.54 85.4 126.56 85.48 127.38 85.14"/><polygon class="cls-3" points="121.82 81.36 122.54 81.76 126.56 81.85 127.38 81.5 127.38 82.42 126.63 82.75 122.64 82.68 121.82 82.27 121.82 81.36"/><path class="cls-1" d="M126.89,80.35c-.26-1.59-1.22-3.15-2.37-3.15s-2.11,1.56-2.37,3.15v.15l.52.35,3.76.08.48-.3Z"/><rect class="cls-1" x="122.79" y="87.16" width="0.29" height="1.47"/><rect class="cls-1" x="123.43" y="87.16" width="0.29" height="1.47"/><rect class="cls-1" x="124.07" y="87.16" width="0.29" height="1.47"/><rect class="cls-1" x="124.71" y="87.16" width="0.29" height="1.47"/><rect class="cls-1" x="125.35" y="87.16" width="0.29" height="1.47"/><rect class="cls-1" x="125.99" y="87.16" width="0.29" height="1.47"/><rect class="cls-1" x="122.79" y="90.8" width="0.29" height="1.47"/><rect class="cls-1" x="123.43" y="90.8" width="0.29" height="1.47"/><rect class="cls-1" x="124.07" y="90.8" width="0.29" height="1.47"/><rect class="cls-1" x="124.71" y="90.8" width="0.29" height="1.47"/><rect class="cls-1" x="125.35" y="90.8" width="0.29" height="1.47"/><rect class="cls-1" x="125.99" y="90.8" width="0.29" height="1.47"/><rect class="cls-1" x="122.78" y="94.63" width="0.29" height="1.47"/><rect class="cls-1" x="123.42" y="94.63" width="0.29" height="1.47"/><rect class="cls-1" x="124.06" y="94.63" width="0.29" height="1.47"/><rect class="cls-1" x="124.7" y="94.63" width="0.29" height="1.47"/><rect class="cls-1" x="125.34" y="94.63" width="0.29" height="1.47"/><rect class="cls-1" x="125.98" y="94.63" width="0.29" height="1.47"/><rect class="cls-1" x="122.79" y="83.49" width="0.29" height="1.47"/><rect class="cls-1" x="123.43" y="83.49" width="0.29" height="1.47"/><rect class="cls-1" x="124.07" y="83.49" width="0.29" height="1.47"/><rect class="cls-1" x="124.71" y="83.49" width="0.29" height="1.47"/><rect class="cls-1" x="125.35" y="83.49" width="0.29" height="1.47"/><rect class="cls-1" x="125.99" y="83.49" width="0.29" height="1.47"/><rect class="cls-3" x="121.73" y="96.4" width="5.93" height="4.02"/><path class="cls-1" d="M141.95,70h0a.25.25,0,0,1,.25.26v3.28a.25.25,0,0,1-.25.26h0a.25.25,0,0,1-.25-.26V70.28A.25.25,0,0,1,141.95,70Z"/><ellipse class="cls-2" cx="141.95" cy="70.63" rx="0.43" ry="0.6"/><ellipse class="cls-2" cx="141.95" cy="72.44" rx="0.6" ry="0.83"/><polygon class="cls-3" points="141.95 70.94 141.65 70.22 141.11 69.84 141.63 69.41 141.91 68.67 142.21 69.39 142.75 69.78 142.22 70.2 141.95 70.94"/><path class="cls-2" d="M144.62,77.63V92.78l-.83.44-3.34.05-.84-.5V77.63a4.67,4.67,0,0,1,0-.76s0,0,0,0a5.74,5.74,0,0,1,.16-.75c.39-1.3,1.22-2.41,2.19-2.41s1.85,1.17,2.22,2.52a5.47,5.47,0,0,1,.14.62c0,.06.13.12.14.18A4.16,4.16,0,0,0,144.62,77.63Z"/><polygon class="cls-1" points="139.61 89.11 140.14 89.5 143.98 89.58 144.62 89.24 144.62 90.16 143.95 90.5 140.2 90.41 139.61 90.01 139.61 89.11"/><polygon class="cls-3" points="144.62 88.79 144.62 89.7 143.95 90.04 140.2 89.96 139.61 89.56 139.61 88.65 140.14 89.05 143.98 89.13 144.62 88.79"/><polygon class="cls-1" points="139.61 85.46 140.14 85.87 143.98 85.95 144.62 85.61 144.62 86.52 143.95 86.86 140.2 86.78 139.61 86.37 139.61 85.46"/><polygon class="cls-3" points="144.62 85.15 144.62 86.06 143.95 86.4 140.2 86.32 139.61 85.92 139.61 85.01 140.14 85.41 143.98 85.5 144.62 85.15"/><polygon class="cls-1" points="139.61 78.19 140.14 78.59 143.98 78.68 144.62 78.33 144.62 79.25 143.95 79.58 140.2 79.5 139.61 79.1 139.61 78.19"/><polygon class="cls-1" points="139.61 81.83 140.14 82.23 143.98 82.31 144.62 81.97 144.62 82.88 143.95 83.22 140.2 83.14 139.61 82.74 139.61 81.83"/><polygon class="cls-3" points="144.62 81.51 144.62 82.43 143.95 82.77 140.2 82.69 139.61 82.28 139.61 81.38 140.14 81.78 143.98 81.86 144.62 81.51"/><polygon class="cls-3" points="139.61 77.74 140.14 78.14 143.98 78.22 144.62 77.88 144.62 78.79 143.95 79.13 140.2 79.05 139.61 78.64 139.61 77.74"/><path class="cls-1" d="M144.29,76.74c-.26-1.59-1.22-3.15-2.37-3.15s-2.11,1.56-2.37,3.15v.15l.52.35,3.76.08.48-.3Z"/><rect class="cls-1" x="140.19" y="83.54" width="0.29" height="1.47"/><rect class="cls-1" x="140.83" y="83.54" width="0.29" height="1.47"/><rect class="cls-1" x="141.47" y="83.54" width="0.29" height="1.47"/><rect class="cls-1" x="142.11" y="83.54" width="0.29" height="1.47"/><rect class="cls-1" x="142.75" y="83.54" width="0.29" height="1.47"/><rect class="cls-1" x="143.39" y="83.54" width="0.29" height="1.47"/><rect class="cls-1" x="140.19" y="87.17" width="0.29" height="1.47"/><rect class="cls-1" x="140.83" y="87.17" width="0.29" height="1.47"/><rect class="cls-1" x="141.47" y="87.17" width="0.29" height="1.47"/><rect class="cls-1" x="142.11" y="87.17" width="0.29" height="1.47"/><rect class="cls-1" x="142.75" y="87.17" width="0.29" height="1.47"/><rect class="cls-1" x="143.39" y="87.17" width="0.29" height="1.47"/><rect class="cls-1" x="140.18" y="91.01" width="0.29" height="1.47"/><rect class="cls-1" x="140.82" y="91.01" width="0.29" height="1.47"/><rect class="cls-1" x="141.46" y="91.01" width="0.29" height="1.47"/><rect class="cls-1" x="142.1" y="91.01" width="0.29" height="1.47"/><rect class="cls-1" x="142.74" y="91.01" width="0.29" height="1.47"/><rect class="cls-1" x="143.38" y="91.01" width="0.29" height="1.47"/><rect class="cls-1" x="140.19" y="79.87" width="0.29" height="1.47"/><rect class="cls-1" x="140.83" y="79.87" width="0.29" height="1.47"/><rect class="cls-1" x="141.47" y="79.87" width="0.29" height="1.47"/><rect class="cls-1" x="142.11" y="79.87" width="0.29" height="1.47"/><rect class="cls-1" x="142.75" y="79.87" width="0.29" height="1.47"/><rect class="cls-1" x="143.39" y="79.87" width="0.29" height="1.47"/><rect class="cls-3" x="139.13" y="92.77" width="5.93" height="4.02"/><rect class="cls-1" x="117.31" y="100.04" width="14.77" height="3.35"/><rect class="cls-3" x="117.61" y="125.64" width="14.77" height="3.35"/><rect class="cls-3" x="100.48" y="108.8" width="10.5" height="2.22"/><rect class="cls-3" x="110.99" y="98.8" width="1.75" height="29.29"/><rect class="cls-3" x="119.95" y="97.62" width="1.75" height="30.47"/><rect class="cls-3" x="127.67" y="98.41" width="1.75" height="29.29"/><rect class="cls-3" x="110.99" y="126.59" width="27.45" height="1.51"/><polygon class="cls-3" points="97.9 145.88 97.9 139.63 114.14 134.57 136.69 134.57 152.96 139.63 152.96 145.88 136.69 140.69 114.14 140.69 97.9 145.88"/><polygon class="cls-2" points="97.9 141.53 97.9 135.28 114.14 130.12 136.69 130.12 152.96 135.28 152.96 141.53 136.69 136.24 114.14 136.24 97.9 141.53"/><rect class="cls-4" x="121.7" y="111.02" width="5.97" height="9.74"/><polygon class="cls-2" points="97.9 151.68 97.9 145.43 114.14 139.57 136.69 139.57 152.96 145.43 152.96 151.68 136.69 146.8 114.14 146.8 97.9 151.68"/><polygon class="cls-3" points="97.9 157.47 97.9 151.22 114.14 145.69 136.69 145.69 152.96 151.22 152.96 157.47 136.69 152.36 114.14 152.36 97.9 157.47"/><polygon class="cls-2" points="97.9 161.82 97.9 155.57 114.14 150.14 136.69 150.14 152.96 155.57 152.96 161.82 136.69 156.81 114.14 156.81 97.9 161.82"/><polygon class="cls-2" points="159.07 163.43 159.07 174.82 155.29 175.99 138.79 181.28 110.2 181.28 90.12 174.82 90.12 163.43 96.66 161.31 110.44 156.81 139.03 156.81 152.62 161.31 159.07 163.43"/><rect class="cls-2" x="85.63" y="174.6" width="77.78" height="9.22"/><rect class="cls-2" x="82.78" y="182.02" width="83.12" height="18.93"/><polygon class="cls-2" points="179.09 214.65 179.09 205.19 177.42 205.19 177.42 197.41 68.43 197.41 68.43 205.19 65.1 205.19 65.1 214.65 60.65 214.65 60.65 223.54 184.65 223.54 184.65 214.65 179.09 214.65"/><polygon class="cls-2" points="186.32 233 186.32 223.54 184.65 223.54 184.65 215.76 60.65 215.76 60.65 223.54 56.75 223.54 56.75 233 51.75 233 51.75 241.34 192.44 241.34 192.44 233 186.32 233"/><rect class="cls-3" x="85.63" y="174.6" width="77.78" height="1.42"/><rect class="cls-3" x="85.63" y="180.69" width="77.78" height="1.42"/><rect class="cls-3" x="64.79" y="213.34" width="114.55" height="1.42" transform="translate(-0.26 0.15) rotate(-0.07)"/><rect class="cls-3" x="68.49" y="203.91" width="108.79" height="1.42"/><polygon class="cls-1" points="90.64 163.49 158.59 163.49 158.63 163.49 159.07 163.49 159.07 163.43 158.64 163.36 152.61 161.26 152.07 161.26 97.24 161.26 90.64 163.49"/><rect class="cls-3" x="155.32" y="165.72" width="1.75" height="6.71"/><rect class="cls-3" x="151.65" y="165.72" width="1.75" height="6.71"/><rect class="cls-3" x="147.99" y="165.72" width="1.75" height="6.71"/><rect class="cls-3" x="144.31" y="165.72" width="1.75" height="6.71"/><rect class="cls-3" x="140.64" y="165.72" width="1.75" height="6.71"/><rect class="cls-3" x="136.98" y="165.72" width="1.75" height="6.71"/><rect class="cls-3" x="133.31" y="165.72" width="1.75" height="6.71"/><rect class="cls-3" x="129.65" y="165.72" width="1.75" height="6.71"/><rect class="cls-3" x="125.98" y="165.72" width="1.75" height="6.71"/><rect class="cls-3" x="122.31" y="165.72" width="1.75" height="6.71"/><rect class="cls-3" x="118.64" y="165.72" width="1.75" height="6.71"/><rect class="cls-3" x="114.97" y="165.72" width="1.75" height="6.71"/><rect class="cls-3" x="111.3" y="165.72" width="1.75" height="6.71"/><rect class="cls-3" x="107.64" y="165.72" width="1.75" height="6.71"/><rect class="cls-3" x="103.97" y="165.72" width="1.75" height="6.71"/><rect class="cls-3" x="100.3" y="165.72" width="1.75" height="6.71"/><rect class="cls-3" x="96.63" y="165.72" width="1.75" height="6.71"/><rect class="cls-3" x="92.96" y="165.72" width="1.75" height="6.71"/><path class="cls-1" d="M99,155.62h0a.49.49,0,0,1,.49.49v5.42A.49.49,0,0,1,99,162h0a.49.49,0,0,1-.49-.49v-5.42A.49.49,0,0,1,99,155.62Z"/><path class="cls-1" d="M128.79,155.62h0a.49.49,0,0,1,.49.49v5.42a.49.49,0,0,1-.49.49h0a.49.49,0,0,1-.49-.49v-5.42A.49.49,0,0,1,128.79,155.62Z"/><path class="cls-1" d="M132.28,155.62h0a.49.49,0,0,1,.49.49v5.42a.49.49,0,0,1-.49.49h0a.49.49,0,0,1-.49-.49v-5.42A.49.49,0,0,1,132.28,155.62Z"/><path class="cls-1" d="M135.76,155.62h0a.49.49,0,0,1,.49.49v5.42a.49.49,0,0,1-.49.49h0a.49.49,0,0,1-.49-.49v-5.42A.49.49,0,0,1,135.76,155.62Z"/><path class="cls-1" d="M139.25,155.62h0a.49.49,0,0,1,.49.49v5.42a.49.49,0,0,1-.49.49h0a.49.49,0,0,1-.49-.49v-5.42A.49.49,0,0,1,139.25,155.62Z"/><path class="cls-1" d="M142.74,155.62h0a.49.49,0,0,1,.49.49v5.42a.49.49,0,0,1-.49.49h0a.49.49,0,0,1-.49-.49v-5.42A.49.49,0,0,1,142.74,155.62Z"/><path class="cls-1" d="M146.22,155.62h0a.49.49,0,0,1,.49.49v5.42a.49.49,0,0,1-.49.49h0a.49.49,0,0,1-.49-.49v-5.42A.49.49,0,0,1,146.22,155.62Z"/><path class="cls-1" d="M149.7,155.62h0a.49.49,0,0,1,.49.49v5.42a.49.49,0,0,1-.49.49h0a.49.49,0,0,1-.49-.49v-5.42A.49.49,0,0,1,149.7,155.62Z"/><path class="cls-1" d="M153.19,155.62h0a.49.49,0,0,1,.49.49v5.42a.49.49,0,0,1-.49.49h0a.49.49,0,0,1-.49-.49v-5.42A.49.49,0,0,1,153.19,155.62Z"/><path class="cls-1" d="M125.31,155.62h0a.49.49,0,0,1,.49.49v5.42a.49.49,0,0,1-.49.49h0a.49.49,0,0,1-.49-.49v-5.42A.49.49,0,0,1,125.31,155.62Z"/><path class="cls-1" d="M121.55,155.62h0a.49.49,0,0,1,.49.49v5.42a.49.49,0,0,1-.49.49h0a.49.49,0,0,1-.49-.49v-5.42A.49.49,0,0,1,121.55,155.62Z"/><path class="cls-1" d="M117.8,155.62h0a.49.49,0,0,1,.49.49v5.42a.49.49,0,0,1-.49.49h0a.49.49,0,0,1-.49-.49v-5.42A.49.49,0,0,1,117.8,155.62Z"/><path class="cls-1" d="M114,155.62h0a.49.49,0,0,1,.49.49v5.42a.49.49,0,0,1-.49.49h0a.49.49,0,0,1-.49-.49v-5.42A.49.49,0,0,1,114,155.62Z"/><path class="cls-1" d="M110.29,155.62h0a.49.49,0,0,1,.49.49v5.42a.49.49,0,0,1-.49.49h0a.49.49,0,0,1-.49-.49v-5.42A.49.49,0,0,1,110.29,155.62Z"/><path class="cls-1" d="M106.54,155.62h0a.49.49,0,0,1,.49.49v5.42a.49.49,0,0,1-.49.49h0a.49.49,0,0,1-.49-.49v-5.42A.49.49,0,0,1,106.54,155.62Z"/><path class="cls-1" d="M102.78,155.62h0a.49.49,0,0,1,.49.49v5.42a.49.49,0,0,1-.49.49h0a.49.49,0,0,1-.49-.49v-5.42A.49.49,0,0,1,102.78,155.62Z"/><rect class="cls-1" x="98.69" y="156.99" width="54.49" height="1.84"/><path class="cls-3" d="M92,191.77h0a.49.49,0,0,1,.49.49v5.42a.49.49,0,0,1-.49.49h0a.49.49,0,0,1-.49-.49v-5.42A.49.49,0,0,1,92,191.77Z"/><path class="cls-3" d="M95.47,191.77h0a.49.49,0,0,1,.49.49v5.42a.49.49,0,0,1-.49.49h0a.49.49,0,0,1-.49-.49v-5.42A.49.49,0,0,1,95.47,191.77Z"/><path class="cls-3" d="M99,191.77h0a.49.49,0,0,1,.49.49v5.42a.49.49,0,0,1-.49.49h0a.49.49,0,0,1-.49-.49v-5.42A.49.49,0,0,1,99,191.77Z"/><path class="cls-3" d="M102.44,191.77h0a.49.49,0,0,1,.49.49v5.42a.49.49,0,0,1-.49.49h0a.49.49,0,0,1-.49-.49v-5.42A.49.49,0,0,1,102.44,191.77Z"/><path class="cls-3" d="M105.92,191.77h0a.49.49,0,0,1,.49.49v5.42a.49.49,0,0,1-.49.49h0a.49.49,0,0,1-.49-.49v-5.42A.49.49,0,0,1,105.92,191.77Z"/><path class="cls-3" d="M109.41,191.77h0a.49.49,0,0,1,.49.49v5.42a.49.49,0,0,1-.49.49h0a.49.49,0,0,1-.49-.49v-5.42A.49.49,0,0,1,109.41,191.77Z"/><path class="cls-3" d="M112.89,191.77h0a.49.49,0,0,1,.49.49v5.42a.49.49,0,0,1-.49.49h0a.49.49,0,0,1-.49-.49v-5.42A.49.49,0,0,1,112.89,191.77Z"/><path class="cls-3" d="M116.38,191.77h0a.49.49,0,0,1,.49.49v5.42a.49.49,0,0,1-.49.49h0a.49.49,0,0,1-.49-.49v-5.42A.49.49,0,0,1,116.38,191.77Z"/><path class="cls-3" d="M88.5,191.77h0a.49.49,0,0,1,.49.49v5.42a.49.49,0,0,1-.49.49h0a.49.49,0,0,1-.49-.49v-5.42A.49.49,0,0,1,88.5,191.77Z"/><path class="cls-3" d="M84.74,191.77h0a.49.49,0,0,1,.49.49v5.42a.49.49,0,0,1-.49.49h0a.49.49,0,0,1-.49-.49v-5.42A.49.49,0,0,1,84.74,191.77Z"/><path class="cls-3" d="M81,191.77h0a.49.49,0,0,1,.49.49v5.42a.49.49,0,0,1-.49.49h0a.49.49,0,0,1-.49-.49v-5.42A.49.49,0,0,1,81,191.77Z"/><path class="cls-3" d="M77.23,191.77h0a.49.49,0,0,1,.49.49v5.42a.49.49,0,0,1-.49.49h0a.49.49,0,0,1-.49-.49v-5.42A.49.49,0,0,1,77.23,191.77Z"/><path class="cls-3" d="M73.48,191.77h0a.49.49,0,0,1,.49.49v5.42a.49.49,0,0,1-.49.49h0a.49.49,0,0,1-.49-.49v-5.42A.49.49,0,0,1,73.48,191.77Z"/><path class="cls-3" d="M69.73,191.77h0a.49.49,0,0,1,.49.49v5.42a.49.49,0,0,1-.49.49h0a.49.49,0,0,1-.49-.49v-5.42A.49.49,0,0,1,69.73,191.77Z"/><rect class="cls-3" x="69.23" y="193.13" width="47.14" height="1.84"/><rect class="cls-1" x="116.03" y="197.69" width="6.97" height="25.77"/><path class="cls-3" d="M122.62,191.77h0a.49.49,0,0,1,.49.49v5.42a.49.49,0,0,1-.49.49h0a.49.49,0,0,1-.49-.49v-5.42A.49.49,0,0,1,122.62,191.77Z"/><path class="cls-3" d="M152.39,191.77h0a.49.49,0,0,1,.49.49v5.42a.49.49,0,0,1-.49.49h0a.49.49,0,0,1-.49-.49v-5.42A.49.49,0,0,1,152.39,191.77Z"/><path class="cls-3" d="M155.88,191.77h0a.49.49,0,0,1,.49.49v5.42a.49.49,0,0,1-.49.49h0a.49.49,0,0,1-.49-.49v-5.42A.49.49,0,0,1,155.88,191.77Z"/><path class="cls-3" d="M159.36,191.77h0a.49.49,0,0,1,.49.49v5.42a.49.49,0,0,1-.49.49h0a.49.49,0,0,1-.49-.49v-5.42A.49.49,0,0,1,159.36,191.77Z"/><path class="cls-3" d="M162.84,191.77h0a.49.49,0,0,1,.49.49v5.42a.49.49,0,0,1-.49.49h0a.49.49,0,0,1-.49-.49v-5.42A.49.49,0,0,1,162.84,191.77Z"/><path class="cls-3" d="M166.33,191.77h0a.49.49,0,0,1,.49.49v5.42a.49.49,0,0,1-.49.49h0a.49.49,0,0,1-.49-.49v-5.42A.49.49,0,0,1,166.33,191.77Z"/><path class="cls-3" d="M169.81,191.77h0a.49.49,0,0,1,.49.49v5.42a.49.49,0,0,1-.49.49h0a.49.49,0,0,1-.49-.49v-5.42A.49.49,0,0,1,169.81,191.77Z"/><path class="cls-3" d="M173.3,191.77h0a.49.49,0,0,1,.49.49v5.42a.49.49,0,0,1-.49.49h0a.49.49,0,0,1-.49-.49v-5.42A.49.49,0,0,1,173.3,191.77Z"/><path class="cls-3" d="M176.78,191.77h0a.49.49,0,0,1,.49.49v5.42a.49.49,0,0,1-.49.49h0a.49.49,0,0,1-.49-.49v-5.42A.49.49,0,0,1,176.78,191.77Z"/><path class="cls-3" d="M148.9,191.77h0a.49.49,0,0,1,.49.49v5.42a.49.49,0,0,1-.49.49h0a.49.49,0,0,1-.49-.49v-5.42A.49.49,0,0,1,148.9,191.77Z"/><path class="cls-3" d="M145.15,191.77h0a.49.49,0,0,1,.49.49v5.42a.49.49,0,0,1-.49.49h0a.49.49,0,0,1-.49-.49v-5.42A.49.49,0,0,1,145.15,191.77Z"/><path class="cls-3" d="M141.4,191.77h0a.49.49,0,0,1,.49.49v5.42a.49.49,0,0,1-.49.49h0a.49.49,0,0,1-.49-.49v-5.42A.49.49,0,0,1,141.4,191.77Z"/><path class="cls-3" d="M137.64,191.77h0a.49.49,0,0,1,.49.49v5.42a.49.49,0,0,1-.49.49h0a.49.49,0,0,1-.49-.49v-5.42A.49.49,0,0,1,137.64,191.77Z"/><path class="cls-3" d="M133.89,191.77h0a.49.49,0,0,1,.49.49v5.42a.49.49,0,0,1-.49.49h0a.49.49,0,0,1-.49-.49v-5.42A.49.49,0,0,1,133.89,191.77Z"/><path class="cls-3" d="M130.13,191.77h0a.49.49,0,0,1,.49.49v5.42a.49.49,0,0,1-.49.49h0a.49.49,0,0,1-.49-.49v-5.42A.49.49,0,0,1,130.13,191.77Z"/><path class="cls-3" d="M126.38,191.77h0a.49.49,0,0,1,.49.49v5.42a.49.49,0,0,1-.49.49h0a.49.49,0,0,1-.49-.49v-5.42A.49.49,0,0,1,126.38,191.77Z"/><rect class="cls-3" x="122.29" y="193.13" width="54.49" height="1.84"/><path class="cls-3" d="M84.43,225.32h0a.6.6,0,0,1,.6.6v6.55a.6.6,0,0,1-.6.6h0a.6.6,0,0,1-.6-.6v-6.55A.6.6,0,0,1,84.43,225.32Z"/><path class="cls-3" d="M88.63,225.32h0a.6.6,0,0,1,.6.6v6.55a.6.6,0,0,1-.6.6h0a.6.6,0,0,1-.6-.6v-6.55A.6.6,0,0,1,88.63,225.32Z"/><path class="cls-3" d="M92.83,225.32h0a.6.6,0,0,1,.6.6v6.55a.6.6,0,0,1-.6.6h0a.6.6,0,0,1-.6-.6v-6.55A.6.6,0,0,1,92.83,225.32Z"/><path class="cls-3" d="M97,225.32h0a.6.6,0,0,1,.6.6v6.55a.6.6,0,0,1-.6.6h0a.6.6,0,0,1-.6-.6v-6.55A.6.6,0,0,1,97,225.32Z"/><path class="cls-3" d="M101.25,225.32h0a.6.6,0,0,1,.6.6v6.55a.6.6,0,0,1-.6.6h0a.6.6,0,0,1-.6-.6v-6.55A.6.6,0,0,1,101.25,225.32Z"/><path class="cls-3" d="M105.45,225.32h0a.6.6,0,0,1,.6.6v6.55a.6.6,0,0,1-.6.6h0a.6.6,0,0,1-.6-.6v-6.55A.6.6,0,0,1,105.45,225.32Z"/><path class="cls-3" d="M109.66,225.32h0a.6.6,0,0,1,.6.6v6.55a.6.6,0,0,1-.6.6h0a.6.6,0,0,1-.6-.6v-6.55A.6.6,0,0,1,109.66,225.32Z"/><path class="cls-3" d="M113.86,225.32h0a.6.6,0,0,1,.6.6v6.55a.6.6,0,0,1-.6.6h0a.6.6,0,0,1-.6-.6v-6.55A.6.6,0,0,1,113.86,225.32Z"/><path class="cls-3" d="M80.22,225.32h0a.6.6,0,0,1,.6.6v6.55a.6.6,0,0,1-.6.6h0a.6.6,0,0,1-.6-.6v-6.55A.6.6,0,0,1,80.22,225.32Z"/><path class="cls-3" d="M75.68,225.32h0a.6.6,0,0,1,.6.6v6.55a.6.6,0,0,1-.6.6h0a.6.6,0,0,1-.6-.6v-6.55A.6.6,0,0,1,75.68,225.32Z"/><path class="cls-3" d="M71.16,225.32h0a.6.6,0,0,1,.6.6v6.55a.6.6,0,0,1-.6.6h0a.6.6,0,0,1-.6-.6v-6.55A.6.6,0,0,1,71.16,225.32Z"/><path class="cls-3" d="M66.62,225.32h0a.6.6,0,0,1,.6.6v6.55a.6.6,0,0,1-.6.6h0a.6.6,0,0,1-.6-.6v-6.55A.6.6,0,0,1,66.62,225.32Z"/><path class="cls-3" d="M62.09,225.32h0a.6.6,0,0,1,.6.6v6.55a.6.6,0,0,1-.6.6h0a.6.6,0,0,1-.6-.6v-6.55A.6.6,0,0,1,62.09,225.32Z"/><path class="cls-3" d="M57.56,225.32h0a.6.6,0,0,1,.6.6v6.55a.6.6,0,0,1-.6.6h0a.6.6,0,0,1-.6-.6v-6.55A.6.6,0,0,1,57.56,225.32Z"/><rect class="cls-3" x="56.97" y="226.96" width="56.9" height="2.22"/><path class="cls-3" d="M121.4,225.32h0a.6.6,0,0,1,.6.6v6.55a.6.6,0,0,1-.6.6h0a.6.6,0,0,1-.6-.6v-6.55A.6.6,0,0,1,121.4,225.32Z"/><path class="cls-3" d="M157.32,225.32h0a.6.6,0,0,1,.6.6v6.55a.6.6,0,0,1-.6.6h0a.6.6,0,0,1-.6-.6v-6.55A.6.6,0,0,1,157.32,225.32Z"/><path class="cls-3" d="M161.53,225.32h0a.6.6,0,0,1,.6.6v6.55a.6.6,0,0,1-.6.6h0a.6.6,0,0,1-.6-.6v-6.55A.6.6,0,0,1,161.53,225.32Z"/><path class="cls-3" d="M165.74,225.32h0a.6.6,0,0,1,.6.6v6.55a.6.6,0,0,1-.6.6h0a.6.6,0,0,1-.6-.6v-6.55A.6.6,0,0,1,165.74,225.32Z"/><path class="cls-3" d="M169.94,225.32h0a.6.6,0,0,1,.6.6v6.55a.6.6,0,0,1-.6.6h0a.6.6,0,0,1-.6-.6v-6.55A.6.6,0,0,1,169.94,225.32Z"/><path class="cls-3" d="M174.15,225.32h0a.6.6,0,0,1,.6.6v6.55a.6.6,0,0,1-.6.6h0a.6.6,0,0,1-.6-.6v-6.55A.6.6,0,0,1,174.15,225.32Z"/><path class="cls-3" d="M178.35,225.32h0a.6.6,0,0,1,.6.6v6.55a.6.6,0,0,1-.6.6h0a.6.6,0,0,1-.6-.6v-6.55A.6.6,0,0,1,178.35,225.32Z"/><path class="cls-3" d="M182.56,225.32h0a.6.6,0,0,1,.6.6v6.55a.6.6,0,0,1-.6.6h0a.6.6,0,0,1-.6-.6v-6.55A.6.6,0,0,1,182.56,225.32Z"/><path class="cls-3" d="M186.77,225.32h0a.6.6,0,0,1,.6.6v6.55a.6.6,0,0,1-.6.6h0a.6.6,0,0,1-.6-.6v-6.55A.6.6,0,0,1,186.77,225.32Z"/><path class="cls-3" d="M153.12,225.32h0a.6.6,0,0,1,.6.6v6.55a.6.6,0,0,1-.6.6h0a.6.6,0,0,1-.6-.6v-6.55A.6.6,0,0,1,153.12,225.32Z"/><path class="cls-3" d="M148.59,225.32h0a.6.6,0,0,1,.6.6v6.55a.6.6,0,0,1-.6.6h0a.6.6,0,0,1-.6-.6v-6.55A.6.6,0,0,1,148.59,225.32Z"/><path class="cls-3" d="M144.05,225.32h0a.6.6,0,0,1,.6.6v6.55a.6.6,0,0,1-.6.6h0a.6.6,0,0,1-.6-.6v-6.55A.6.6,0,0,1,144.05,225.32Z"/><path class="cls-3" d="M139.53,225.32h0a.6.6,0,0,1,.6.6v6.55a.6.6,0,0,1-.6.6h0a.6.6,0,0,1-.6-.6v-6.55A.6.6,0,0,1,139.53,225.32Z"/><path class="cls-3" d="M135,225.32h0a.6.6,0,0,1,.6.6v6.55a.6.6,0,0,1-.6.6h0a.6.6,0,0,1-.6-.6v-6.55A.6.6,0,0,1,135,225.32Z"/><path class="cls-3" d="M130.46,225.32h0a.6.6,0,0,1,.6.6v6.55a.6.6,0,0,1-.6.6h0a.6.6,0,0,1-.6-.6v-6.55A.6.6,0,0,1,130.46,225.32Z"/><path class="cls-3" d="M125.93,225.32h0a.6.6,0,0,1,.6.6v6.55a.6.6,0,0,1-.6.6h0a.6.6,0,0,1-.6-.6v-6.55A.6.6,0,0,1,125.93,225.32Z"/><rect class="cls-3" x="121" y="226.96" width="65.76" height="2.22"/><rect class="cls-3" x="116.03" y="220.76" width="6.97" height="1.3"/><path class="cls-1" d="M45.6,164.44h0a.71.71,0,0,1,.71.71v8.3a.71.71,0,0,1-.71.71h0a.71.71,0,0,1-.71-.71v-8.3A.71.71,0,0,1,45.6,164.44Z"/><ellipse class="cls-2" cx="45.59" cy="166.01" rx="1.22" ry="1.54"/><ellipse class="cls-2" cx="45.6" cy="170.66" rx="1.68" ry="2.14"/><polygon class="cls-3" points="45.6 166.81 44.75 164.95 43.24 163.97 44.7 162.89 45.47 160.98 46.33 162.83 47.84 163.81 46.37 164.89 45.6 166.81"/><path class="cls-2" d="M52.86,184v38.86L50.64,224l-9.63.13-2.61-1.26V184l.33-1.94s.07-.08.08-.12a13.94,13.94,0,0,1,.51-1.91c1.11-3.34,3.46-6.18,6.18-6.18s5.2,3,6.27,6.48a13,13,0,0,1,.39,1.6c0,.16.26.31.28.47A15.08,15.08,0,0,0,52.86,184Z"/><polygon class="cls-1" points="38.4 213.4 40.21 214.43 51.04 214.65 52.86 213.77 52.86 216.1 51.1 216.98 40.31 216.76 38.4 215.74 38.4 213.4"/><polygon class="cls-3" points="52.86 212.6 52.86 214.94 51.1 215.81 40.31 215.6 38.4 214.57 38.4 212.23 40.21 213.27 51.04 213.48 52.86 212.6"/><polygon class="cls-1" points="38.4 204.07 40.21 205.1 51.04 205.31 52.86 204.44 52.86 206.77 51.1 207.64 40.31 207.43 38.4 206.4 38.4 204.07"/><polygon class="cls-3" points="52.86 203.27 52.86 205.6 51.1 206.48 40.31 206.27 38.4 205.24 38.4 202.9 40.21 203.94 51.04 204.15 52.86 203.27"/><polygon class="cls-1" points="38.4 185.41 40.21 186.44 51.04 186.65 52.86 185.77 52.86 188.11 51.1 188.98 40.31 188.77 38.4 187.74 38.4 185.41"/><polygon class="cls-1" points="38.4 194.74 40.21 195.77 51.04 195.98 52.86 195.1 52.86 197.44 51.1 198.31 40.31 198.1 38.4 197.07 38.4 194.74"/><polygon class="cls-3" points="52.86 193.94 52.86 196.27 51.1 197.15 40.31 196.93 38.4 195.91 38.4 193.57 40.21 194.6 51.04 194.82 52.86 193.94"/><polygon class="cls-3" points="38.4 184.24 40.21 185.27 51.04 185.49 52.86 184.61 52.86 186.94 51.1 187.81 40.31 187.6 38.4 186.57 38.4 184.24"/><path class="cls-1" d="M52.18,181.65c-.73-4.08-3.43-8.09-6.67-8.09s-5.92,4-6.67,8.09V182l1.47.91,10.57.21,1.38-.76Z"/><rect class="cls-1" x="40.67" y="199.13" width="0.81" height="3.77"/><rect class="cls-1" x="42.46" y="199.13" width="0.81" height="3.77"/><rect class="cls-1" x="44.25" y="199.13" width="0.81" height="3.77"/><rect class="cls-1" x="46.04" y="199.13" width="0.81" height="3.77"/><rect class="cls-1" x="47.84" y="199.13" width="0.81" height="3.77"/><rect class="cls-1" x="49.63" y="199.13" width="0.81" height="3.77"/><rect class="cls-1" x="40.67" y="208.46" width="0.81" height="3.77"/><rect class="cls-1" x="42.46" y="208.46" width="0.81" height="3.77"/><rect class="cls-1" x="44.25" y="208.46" width="0.81" height="3.77"/><rect class="cls-1" x="46.04" y="208.46" width="0.81" height="3.77"/><rect class="cls-1" x="47.84" y="208.46" width="0.81" height="3.77"/><rect class="cls-1" x="49.63" y="208.46" width="0.81" height="3.77"/><rect class="cls-1" x="40.63" y="218.29" width="0.81" height="3.77"/><rect class="cls-1" x="42.42" y="218.29" width="0.81" height="3.77"/><rect class="cls-1" x="44.22" y="218.29" width="0.81" height="3.77"/><rect class="cls-1" x="46.01" y="218.29" width="0.81" height="3.77"/><rect class="cls-1" x="47.81" y="218.29" width="0.81" height="3.77"/><rect class="cls-1" x="49.6" y="218.29" width="0.81" height="3.77"/><rect class="cls-1" x="40.67" y="189.71" width="0.81" height="3.77"/><rect class="cls-1" x="42.46" y="189.71" width="0.81" height="3.77"/><rect class="cls-1" x="44.26" y="189.71" width="0.81" height="3.77"/><rect class="cls-1" x="46.05" y="189.71" width="0.81" height="3.77"/><rect class="cls-1" x="47.85" y="189.71" width="0.81" height="3.77"/><rect class="cls-1" x="49.64" y="189.71" width="0.81" height="3.77"/><polygon class="cls-1" points="45.52 225.81 37.61 225.81 37.14 224.64 45.52 224.64 45.52 225.81"/><polygon class="cls-1" points="45.52 225.81 53.44 225.81 53.91 224.64 45.52 224.64 45.52 225.81"/><polygon class="cls-2" points="45.52 224.64 36.62 224.64 36.1 222.31 45.52 222.31 45.52 224.64"/><polygon class="cls-2" points="45.52 224.64 54.42 224.64 54.94 222.31 45.52 222.31 45.52 224.64"/><polygon class="cls-1" points="45.52 229.18 37.61 229.18 37.14 228.01 45.52 228.01 45.52 229.18"/><polygon class="cls-1" points="45.52 229.18 53.44 229.18 53.91 228.01 45.52 228.01 45.52 229.18"/><polygon class="cls-2" points="45.52 231.51 36.62 231.51 36.1 229.18 45.52 229.18 45.52 231.51"/><polygon class="cls-2" points="45.52 231.51 54.42 231.51 54.94 229.18 45.52 229.18 45.52 231.51"/><polygon class="cls-1" points="45.52 232.67 37.61 232.67 37.14 231.51 45.52 231.51 45.52 232.67"/><polygon class="cls-1" points="45.52 232.67 53.44 232.67 53.91 231.51 45.52 231.51 45.52 232.67"/><polygon class="cls-2" points="45.52 234.99 36.62 234.99 36.11 232.67 45.52 232.67 45.52 234.99"/><polygon class="cls-2" points="45.52 234.99 54.42 234.99 54.94 232.67 45.52 232.67 45.52 234.99"/><polygon class="cls-1" points="45.53 236.16 37.61 236.16 37.14 234.99 45.53 234.99 45.53 236.16"/><polygon class="cls-1" points="45.53 236.16 53.44 236.16 53.91 234.99 45.53 234.99 45.53 236.16"/><polygon class="cls-2" points="45.52 238.49 36.63 238.49 36.11 236.16 45.52 236.16 45.52 238.49"/><polygon class="cls-2" points="45.52 238.49 54.42 238.49 54.94 236.16 45.52 236.16 45.52 238.49"/><polygon class="cls-1" points="45.03 243.13 35.81 243.13 35.26 241.97 45.03 241.97 45.03 243.13"/><polygon class="cls-1" points="45.03 243.13 54.25 243.13 54.79 241.97 45.03 241.97 45.03 243.13"/><polygon class="cls-1" points="45.53 239.65 37.61 239.65 37.14 238.49 45.53 238.49 45.53 239.65"/><polygon class="cls-1" points="45.53 239.65 53.44 239.65 53.91 238.49 45.53 238.49 45.53 239.65"/><polygon class="cls-2" points="45.26 241.97 34.52 241.97 33.89 239.65 45.26 239.65 45.26 241.97"/><polygon class="cls-2" points="45.26 241.97 56 241.97 56.63 239.65 45.26 239.65 45.26 241.97"/><polygon class="cls-2" points="45.26 245.46 34.52 245.46 33.89 243.13 45.26 243.13 45.26 245.46"/><polygon class="cls-2" points="45.26 245.46 56 245.46 56.63 243.13 45.26 243.13 45.26 245.46"/><polygon class="cls-1" points="45.03 246.63 35.81 246.63 35.26 245.46 45.03 245.46 45.03 246.63"/><polygon class="cls-1" points="45.03 246.63 54.25 246.63 54.79 245.46 45.03 245.46 45.03 246.63"/><polygon class="cls-2" points="45.26 248.95 34.52 248.95 33.89 246.63 45.26 246.63 45.26 248.95"/><polygon class="cls-2" points="45.26 248.95 56 248.95 56.63 246.63 45.26 246.63 45.26 248.95"/><polygon class="cls-2" points="45.03 252.73 32.24 252.73 31.49 248.91 45.03 248.91 45.03 252.73"/><polygon class="cls-2" points="45.03 252.73 57.8 252.73 58.56 248.91 45.03 248.91 45.03 252.73"/><polygon class="cls-2" points="45.03 256.55 32.24 256.55 31.49 252.73 45.03 252.73 45.03 256.55"/><polygon class="cls-2" points="45.03 256.55 57.8 256.55 58.56 252.73 45.03 252.73 45.03 256.55"/><polygon class="cls-2" points="45.52 228.13 36.62 228.13 36.1 225.81 45.52 225.81 45.52 228.13"/><polygon class="cls-2" points="45.52 228.13 54.42 228.13 54.94 225.81 45.52 225.81 45.52 228.13"/><path class="cls-1" d="M198.58,163h0a.71.71,0,0,1,.71.71V172a.71.71,0,0,1-.71.71h0a.71.71,0,0,1-.71-.71v-8.3A.71.71,0,0,1,198.58,163Z"/><ellipse class="cls-2" cx="198.57" cy="164.55" rx="1.22" ry="1.54"/><ellipse class="cls-2" cx="198.58" cy="169.21" rx="1.68" ry="2.14"/><polygon class="cls-3" points="198.58 165.35 197.73 163.5 196.22 162.52 197.68 161.44 198.46 159.53 199.31 161.38 200.82 162.36 199.36 163.44 198.58 165.35"/><path class="cls-2" d="M205.23,182.53v38.86l-1.92,1.11-9.2.15-2.22-1.28V182.53a13.71,13.71,0,0,1,.09-1.94s-.06-.08,0-.12a13.7,13.7,0,0,1,.45-1.91c1.11-3.34,3.44-6.18,6.15-6.18s5.19,3,6.25,6.48a13,13,0,0,1,.39,1.6,4.39,4.39,0,0,0,0,.47A12.71,12.71,0,0,1,205.23,182.53Z"/><polygon class="cls-1" points="191.88 211.95 193.44 212.98 203.83 213.19 205.23 212.32 205.23 214.65 203.77 215.52 193.39 215.32 191.88 214.28 191.88 211.95"/><polygon class="cls-3" points="205.23 211.15 205.23 213.48 203.77 214.36 193.39 214.15 191.88 213.12 191.88 210.79 193.44 211.81 203.83 212.03 205.23 211.15"/><polygon class="cls-1" points="191.88 202.62 193.44 203.65 203.83 203.86 205.23 202.99 205.23 205.32 203.77 206.19 193.39 205.99 191.88 204.95 191.88 202.62"/><polygon class="cls-3" points="205.23 201.82 205.23 204.15 203.77 205.03 193.39 204.82 191.88 203.78 191.88 201.46 193.44 202.48 203.83 202.69 205.23 201.82"/><polygon class="cls-1" points="191.88 183.96 193.44 184.99 203.83 185.2 205.23 184.32 205.23 186.66 203.77 187.53 193.39 187.32 191.88 186.29 191.88 183.96"/><polygon class="cls-1" points="191.88 193.29 193.44 194.32 203.83 194.53 205.23 193.65 205.23 195.99 203.77 196.86 193.39 196.65 191.88 195.62 191.88 193.29"/><polygon class="cls-3" points="205.23 192.49 205.23 194.82 203.77 195.69 193.39 195.49 191.88 194.45 191.88 192.12 193.44 193.15 203.83 193.36 205.23 192.49"/><polygon class="cls-3" points="191.88 182.79 193.44 183.82 203.83 184.03 205.23 183.16 205.23 185.49 203.77 186.36 193.39 186.16 191.88 185.12 191.88 182.79"/><path class="cls-1" d="M205.16,180.17c-.73-4.08-3.43-8.09-6.67-8.09s-5.92,4-6.67,8.09v.39l1.47.91,10.57.21,1.36-.76A5.87,5.87,0,0,0,205.16,180.17Z"/><rect class="cls-1" x="193.64" y="197.68" width="0.81" height="3.77"/><rect class="cls-1" x="195.44" y="197.68" width="0.81" height="3.77"/><rect class="cls-1" x="197.23" y="197.68" width="0.81" height="3.77"/><rect class="cls-1" x="199.03" y="197.68" width="0.81" height="3.77"/><rect class="cls-1" x="200.82" y="197.68" width="0.81" height="3.77"/><rect class="cls-1" x="202.61" y="197.68" width="0.81" height="3.77"/><rect class="cls-1" x="193.64" y="207.01" width="0.81" height="3.77"/><rect class="cls-1" x="195.44" y="207.01" width="0.81" height="3.77"/><rect class="cls-1" x="197.23" y="207.01" width="0.81" height="3.77"/><rect class="cls-1" x="199.03" y="207.01" width="0.81" height="3.77"/><rect class="cls-1" x="200.82" y="207.01" width="0.81" height="3.77"/><rect class="cls-1" x="202.61" y="207.01" width="0.81" height="3.77"/><rect class="cls-1" x="193.61" y="216.84" width="0.81" height="3.77"/><rect class="cls-1" x="195.41" y="216.84" width="0.81" height="3.77"/><rect class="cls-1" x="197.2" y="216.84" width="0.81" height="3.77"/><rect class="cls-1" x="198.99" y="216.84" width="0.81" height="3.77"/><rect class="cls-1" x="200.79" y="216.84" width="0.81" height="3.77"/><rect class="cls-1" x="202.58" y="216.84" width="0.81" height="3.77"/><rect class="cls-1" x="193.65" y="188.26" width="0.81" height="3.77"/><rect class="cls-1" x="195.44" y="188.26" width="0.81" height="3.77"/><rect class="cls-1" x="197.24" y="188.26" width="0.81" height="3.77"/><rect class="cls-1" x="199.03" y="188.26" width="0.81" height="3.77"/><rect class="cls-1" x="200.82" y="188.26" width="0.81" height="3.77"/><rect class="cls-1" x="202.62" y="188.26" width="0.81" height="3.77"/><polygon class="cls-1" points="198.5 224.35 190.59 224.35 190.12 223.19 198.5 223.19 198.5 224.35"/><polygon class="cls-1" points="198.5 224.35 206.42 224.35 206.88 223.19 198.5 223.19 198.5 224.35"/><polygon class="cls-2" points="198.5 223.19 189.61 223.19 189.09 220.87 198.5 220.87 198.5 223.19"/><polygon class="cls-2" points="198.5 223.19 207.4 223.19 207.92 220.87 198.5 220.87 198.5 223.19"/><polygon class="cls-1" points="198.5 227.72 190.59 227.72 190.12 226.56 198.5 226.56 198.5 227.72"/><polygon class="cls-1" points="198.5 227.72 206.42 227.72 206.88 226.56 198.5 226.56 198.5 227.72"/><polygon class="cls-2" points="198.5 230.06 189.61 230.06 189.09 227.72 198.5 227.72 198.5 230.06"/><polygon class="cls-2" points="198.5 230.06 207.4 230.06 207.92 227.72 198.5 227.72 198.5 230.06"/><polygon class="cls-1" points="198.5 231.22 190.59 231.22 190.12 230.06 198.5 230.06 198.5 231.22"/><polygon class="cls-1" points="198.5 231.22 206.42 231.22 206.88 230.06 198.5 230.06 198.5 231.22"/><polygon class="cls-2" points="198.5 233.54 189.61 233.54 189.09 231.22 198.5 231.22 198.5 233.54"/><polygon class="cls-2" points="198.5 233.54 207.4 233.54 207.93 231.22 198.5 231.22 198.5 233.54"/><polygon class="cls-1" points="198.5 234.71 190.59 234.71 190.13 233.54 198.5 233.54 198.5 234.71"/><polygon class="cls-1" points="198.5 234.71 206.42 234.71 206.88 233.54 198.5 233.54 198.5 234.71"/><polygon class="cls-2" points="198.5 237.03 189.61 237.03 189.09 234.71 198.5 234.71 198.5 237.03"/><polygon class="cls-2" points="198.5 237.03 207.4 237.03 207.93 234.71 198.5 234.71 198.5 237.03"/><polygon class="cls-1" points="198 241.69 188.78 241.69 188.25 240.53 198 240.53 198 241.69"/><polygon class="cls-1" points="198 241.69 207.22 241.69 207.76 240.53 198 240.53 198 241.69"/><polygon class="cls-1" points="198.5 238.2 190.59 238.2 190.13 237.03 198.5 237.03 198.5 238.2"/><polygon class="cls-1" points="198.5 238.2 206.42 238.2 206.88 237.03 198.5 237.03 198.5 238.2"/><polygon class="cls-2" points="198.24 240.53 187.5 240.53 186.87 238.2 198.24 238.2 198.24 240.53"/><polygon class="cls-2" points="198.24 240.53 208.98 240.53 209.61 238.2 198.24 238.2 198.24 240.53"/><polygon class="cls-2" points="198.24 244.01 187.5 244.01 186.87 241.69 198.24 241.69 198.24 244.01"/><polygon class="cls-2" points="198.24 244.01 208.98 244.01 209.61 241.69 198.24 241.69 198.24 244.01"/><polygon class="cls-1" points="198 245.17 188.78 245.17 188.25 244.01 198 244.01 198 245.17"/><polygon class="cls-1" points="198 245.17 207.22 245.17 207.76 244.01 198 244.01 198 245.17"/><polygon class="cls-2" points="198.24 247.5 187.5 247.5 186.87 245.17 198.24 245.17 198.24 247.5"/><polygon class="cls-2" points="198.24 247.5 208.98 247.5 209.61 245.17 198.24 245.17 198.24 247.5"/><polygon class="cls-2" points="198 251.28 185.22 251.28 184.47 247.46 198 247.46 198 251.28"/><polygon class="cls-2" points="198 251.28 210.79 251.28 211.54 247.46 198 247.46 198 251.28"/><polygon class="cls-2" points="198 255.09 185.22 255.09 184.47 251.28 198 251.28 198 255.09"/><polygon class="cls-2" points="198 255.09 210.79 255.09 211.54 251.28 198 251.28 198 255.09"/><polygon class="cls-2" points="198.5 226.68 189.61 226.68 189.09 224.35 198.5 224.35 198.5 226.68"/><polygon class="cls-2" points="198.5 226.68 207.4 226.68 207.92 224.35 198.5 224.35 198.5 226.68"/><rect class="cls-3" x="116.03" y="217.4" width="6.97" height="1.3"/><rect class="cls-3" x="116.03" y="214.04" width="6.97" height="1.3"/><rect class="cls-3" x="116.03" y="210.69" width="6.97" height="1.3"/><rect class="cls-3" x="116.03" y="207.33" width="6.97" height="1.3"/><rect class="cls-3" x="116.03" y="203.97" width="6.97" height="1.3"/><rect class="cls-3" x="116.03" y="200.62" width="6.97" height="1.3"/><rect class="cls-3" x="116.03" y="197.26" width="6.97" height="1.3"/><rect class="cls-1" x="23.47" y="153.13" width="2.17" height="11.6" rx="0.95" ry="0.95"/><circle class="cls-2" cx="24.66" cy="155.22" r="1.79"/><circle class="cls-2" cx="24.67" cy="160.61" r="2.48"/><polygon class="cls-3" points="24.67 156.15 23.42 154 21.2 152.87 23.35 151.61 24.48 149.39 25.74 151.54 27.96 152.68 25.81 153.93 24.67 156.15"/><path class="cls-2" d="M34.34,176.05v45l-2.78,1.31L18,222.56l-3.25-1.49V176a13.65,13.65,0,0,1,.16-2.22c0-.05-.06-.09-.05-.13a13.17,13.17,0,0,1,.67-2.22c1.63-3.89,5-7.16,9-7.16s7.63,3.5,9.19,7.51a12.51,12.51,0,0,1,.56,1.86c0,.18-.12.36-.09.56A13,13,0,0,1,34.34,176.05Z"/><polygon class="cls-1" points="14.77 210.16 17.09 211.35 32.33 211.6 34.34 210.59 34.34 213.29 32.25 214.3 16.99 214.06 14.77 212.87 14.77 210.16"/><polygon class="cls-3" points="34.34 209.24 34.34 211.94 32.25 212.95 16.99 212.71 14.77 211.51 14.77 208.81 17.09 210 32.33 210.25 34.34 209.24"/><polygon class="cls-1" points="14.77 199.34 17.09 200.54 32.33 200.78 34.34 199.77 34.34 202.47 32.25 203.49 16.99 203.25 14.77 202.04 14.77 199.34"/><polygon class="cls-3" points="34.34 198.41 34.34 201.12 32.25 202.13 16.99 201.89 14.77 200.69 14.77 197.99 17.09 199.19 32.33 199.43 34.34 198.41"/><polygon class="cls-1" points="14.77 177.71 17.09 178.91 32.33 179.15 34.34 178.13 34.34 180.84 32.25 181.85 16.99 181.61 14.77 180.41 14.77 177.71"/><polygon class="cls-1" points="14.77 188.53 17.09 189.72 32.33 189.97 34.34 188.96 34.34 191.66 32.25 192.67 16.99 192.43 14.77 191.23 14.77 188.53"/><polygon class="cls-3" points="34.34 187.6 34.34 190.31 32.25 191.32 16.99 191.07 14.77 189.88 14.77 187.18 17.09 188.37 32.33 188.62 34.34 187.6"/><polygon class="cls-3" points="14.77 176.36 17.09 177.56 32.33 177.8 34.34 176.78 34.34 179.49 32.25 180.5 16.99 180.26 14.77 179.06 14.77 176.36"/><path class="cls-1" d="M34.34,173.35c-1.07-4.73-5-9.37-9.77-9.37s-8.7,4.64-9.77,9.37v.45l2.16,1,15.51.24,2-.88A7.93,7.93,0,0,1,34.34,173.35Z"/><rect class="cls-1" x="17.67" y="193.73" width="0.72" height="4.35"/><rect class="cls-1" x="19.85" y="193.73" width="1.45" height="4.35"/><rect class="cls-1" x="22.74" y="193.73" width="1.45" height="4.35"/><rect class="cls-1" x="25.65" y="193.73" width="0.72" height="4.35"/><rect class="cls-1" x="27.82" y="193.73" width="1.45" height="4.35"/><rect class="cls-1" x="30.72" y="193.73" width="0.72" height="4.35"/><rect class="cls-1" x="17.67" y="204.6" width="0.72" height="4.35"/><rect class="cls-1" x="19.85" y="204.6" width="1.45" height="4.35"/><rect class="cls-1" x="22.74" y="204.6" width="1.45" height="4.35"/><rect class="cls-1" x="25.65" y="204.6" width="0.72" height="4.35"/><rect class="cls-1" x="27.82" y="204.6" width="1.45" height="4.35"/><rect class="cls-1" x="30.72" y="204.6" width="0.72" height="4.35"/><rect class="cls-1" x="17.67" y="215.47" width="0.72" height="5.08"/><rect class="cls-1" x="19.85" y="215.47" width="1.45" height="5.08"/><rect class="cls-1" x="22.74" y="215.47" width="0.72" height="5.08"/><rect class="cls-1" x="24.92" y="215.47" width="1.45" height="5.08"/><rect class="cls-1" x="27.82" y="215.47" width="1.45" height="5.08"/><rect class="cls-1" x="30.72" y="215.47" width="0.72" height="5.08"/><rect class="cls-1" x="17.67" y="182.85" width="0.72" height="4.35"/><rect class="cls-1" x="19.85" y="182.85" width="1.45" height="4.35"/><rect class="cls-1" x="22.74" y="182.85" width="1.45" height="4.35"/><rect class="cls-1" x="25.65" y="182.85" width="0.72" height="4.35"/><rect class="cls-1" x="27.82" y="182.85" width="1.45" height="4.35"/><rect class="cls-1" x="30.72" y="182.85" width="0.72" height="4.35"/><polygon class="cls-1" points="24.92 224.18 12.92 224.18 12.25 223.45 24.92 223.45 24.92 224.18"/><polygon class="cls-1" points="24.92 224.18 36.19 224.18 36.87 223.45 24.92 223.45 24.92 224.18"/><polygon class="cls-2" points="24.2 223.45 11.48 223.45 10.72 220.55 24.2 220.55 24.2 223.45"/><polygon class="cls-2" points="24.2 223.45 37.63 223.45 38.4 220.55 24.2 220.55 24.2 223.45"/><polygon class="cls-1" points="24.92 228.53 12.92 228.53 12.25 227.08 24.92 227.08 24.92 228.53"/><polygon class="cls-1" points="24.92 228.53 36.19 228.53 36.87 227.08 24.92 227.08 24.92 228.53"/><polygon class="cls-2" points="24.2 231.43 11.48 231.43 10.72 228.53 24.2 228.53 24.2 231.43"/><polygon class="cls-2" points="24.2 231.43 37.63 231.43 38.4 228.53 24.2 228.53 24.2 231.43"/><polygon class="cls-1" points="24.92 232.15 12.92 232.15 12.25 231.43 24.92 231.43 24.92 232.15"/><polygon class="cls-1" points="24.92 232.15 36.2 232.15 36.87 231.43 24.92 231.43 24.92 232.15"/><polygon class="cls-2" points="24.92 235.05 11.48 235.05 10.72 232.15 24.92 232.15 24.92 235.05"/><polygon class="cls-2" points="24.92 235.05 37.63 235.05 38.4 232.15 24.92 232.15 24.92 235.05"/><polygon class="cls-1" points="24.92 236.5 12.93 236.5 12.25 235.05 24.92 235.05 24.92 236.5"/><polygon class="cls-1" points="24.92 236.5 36.2 236.5 36.87 235.05 24.92 235.05 24.92 236.5"/><polygon class="cls-2" points="24.92 239.4 11.49 239.4 10.72 236.5 24.92 236.5 24.92 239.4"/><polygon class="cls-2" points="24.92 239.4 37.63 239.4 38.4 236.5 24.92 236.5 24.92 239.4"/><polygon class="cls-1" points="23.47 244.48 10.28 244.48 9.49 243.03 23.47 243.03 23.47 244.48"/><polygon class="cls-1" points="23.47 244.48 37.38 244.48 38.17 243.03 23.47 243.03 23.47 244.48"/><polygon class="cls-1" points="24.92 240.85 12.93 240.85 12.25 239.4 24.92 239.4 24.92 240.85"/><polygon class="cls-1" points="24.92 240.85 36.2 240.85 36.88 239.4 24.92 239.4 24.92 240.85"/><polygon class="cls-2" points="24.2 243.03 8.39 243.03 7.46 240.85 24.2 240.85 24.2 243.03"/><polygon class="cls-2" points="24.2 243.03 39.95 243.03 40.88 240.85 24.2 240.85 24.2 243.03"/><polygon class="cls-2" points="24.2 247.38 8.39 247.38 7.46 244.48 24.2 244.48 24.2 247.38"/><polygon class="cls-2" points="24.2 247.38 39.95 247.38 40.88 244.48 24.2 244.48 24.2 247.38"/><polygon class="cls-1" points="23.47 248.83 10.28 248.83 9.49 247.38 23.47 247.38 23.47 248.83"/><polygon class="cls-1" points="23.47 248.83 37.38 248.83 38.17 247.38 23.47 247.38 23.47 248.83"/><polygon class="cls-2" points="24.2 251.73 8.39 251.73 7.46 248.83 24.2 248.83 24.2 251.73"/><polygon class="cls-2" points="24.2 251.73 39.95 251.73 40.88 248.83 24.2 248.83 24.2 251.73"/><polygon class="cls-2" points="23.47 256.08 5.04 256.08 3.94 251 23.47 251 23.47 256.08"/><polygon class="cls-2" points="23.47 256.08 42.61 256.08 43.71 251 23.47 251 23.47 256.08"/><polygon class="cls-2" points="23.47 260.43 5.04 260.43 3.94 256.08 23.47 256.08 23.47 260.43"/><polygon class="cls-2" points="23.47 260.43 42.61 260.43 43.71 256.08 23.47 256.08 23.47 260.43"/><polygon class="cls-2" points="24.2 227.08 11.48 227.08 10.72 224.18 24.2 224.18 24.2 227.08"/><polygon class="cls-2" points="24.2 227.08 37.63 227.08 38.4 224.18 24.2 224.18 24.2 227.08"/><rect class="cls-1" x="217.47" y="158.01" width="2.17" height="11.6" rx="0.95" ry="0.95"/><circle class="cls-2" cx="218.66" cy="160.11" r="1.79"/><circle class="cls-2" cx="218.68" cy="165.5" r="2.48"/><polygon class="cls-3" points="218.68 161.03 217.42 158.88 215.2 157.75 217.36 156.49 218.49 154.28 219.75 156.42 221.96 157.56 219.81 158.81 218.68 161.03"/><path class="cls-2" d="M228.35,180.94v45l-2.78,1.31-13.56.15L208.76,226v-45a13.65,13.65,0,0,1,.16-2.22c0-.05-.06-.09-.05-.13a13.17,13.17,0,0,1,.67-2.22c1.63-3.89,5-7.16,9-7.16s7.63,3.5,9.19,7.51a12.51,12.51,0,0,1,.56,1.86c0,.18-.12.36-.09.56A13,13,0,0,1,228.35,180.94Z"/><polygon class="cls-1" points="208.78 215.04 211.09 216.24 226.34 216.48 228.35 215.47 228.35 218.17 226.26 219.19 211 218.94 208.78 217.75 208.78 215.04"/><polygon class="cls-3" points="228.35 214.12 228.35 216.82 226.26 217.84 211 217.59 208.78 216.4 208.78 213.69 211.09 214.89 226.34 215.13 228.35 214.12"/><polygon class="cls-1" points="208.78 204.22 211.09 205.43 226.34 205.66 228.35 204.65 228.35 207.35 226.26 208.37 211 208.13 208.78 206.93 208.78 204.22"/><polygon class="cls-3" points="228.35 203.3 228.35 206 226.26 207.02 211 206.78 208.78 205.58 208.78 202.87 211.09 204.07 226.34 204.31 228.35 203.3"/><polygon class="cls-1" points="208.78 182.59 211.09 183.79 226.34 184.03 228.35 183.02 228.35 185.72 226.26 186.74 211 186.5 208.78 185.3 208.78 182.59"/><polygon class="cls-1" points="208.78 193.41 211.09 194.6 226.34 194.85 228.35 193.84 228.35 196.54 226.26 197.55 211 197.31 208.78 196.11 208.78 193.41"/><polygon class="cls-3" points="228.35 192.49 228.35 195.19 226.26 196.2 211 195.96 208.78 194.76 208.78 192.06 211.09 193.25 226.34 193.5 228.35 192.49"/><polygon class="cls-3" points="208.78 181.24 211.09 182.44 226.34 182.68 228.35 181.66 228.35 184.37 226.26 185.38 211 185.14 208.78 183.94 208.78 181.24"/><path class="cls-1" d="M228.34,178.23c-1.07-4.73-5-9.37-9.77-9.37s-8.7,4.64-9.77,9.37v.45l2.16,1,15.51.24,2-.88C228.42,178.91,228.34,178.23,228.34,178.23Z"/><rect class="cls-1" x="211.67" y="198.61" width="0.72" height="4.35"/><rect class="cls-1" x="213.85" y="198.61" width="1.45" height="4.35"/><rect class="cls-1" x="216.75" y="198.61" width="1.45" height="4.35"/><rect class="cls-1" x="219.65" y="198.61" width="0.72" height="4.35"/><rect class="cls-1" x="221.83" y="198.61" width="1.45" height="4.35"/><rect class="cls-1" x="224.72" y="198.61" width="0.72" height="4.35"/><rect class="cls-1" x="211.67" y="209.49" width="0.72" height="4.35"/><rect class="cls-1" x="213.85" y="209.49" width="1.45" height="4.35"/><rect class="cls-1" x="216.75" y="209.49" width="1.45" height="4.35"/><rect class="cls-1" x="219.65" y="209.49" width="0.72" height="4.35"/><rect class="cls-1" x="221.83" y="209.49" width="1.45" height="4.35"/><rect class="cls-1" x="224.72" y="209.49" width="0.72" height="4.35"/><rect class="cls-1" x="211.67" y="220.36" width="0.72" height="5.08"/><rect class="cls-1" x="213.85" y="220.36" width="1.45" height="5.08"/><rect class="cls-1" x="216.75" y="220.36" width="0.72" height="5.08"/><rect class="cls-1" x="218.92" y="220.36" width="1.45" height="5.08"/><rect class="cls-1" x="221.83" y="220.36" width="1.45" height="5.08"/><rect class="cls-1" x="224.72" y="220.36" width="0.72" height="5.08"/><rect class="cls-1" x="211.67" y="187.73" width="0.72" height="4.35"/><rect class="cls-1" x="213.85" y="187.73" width="1.45" height="4.35"/><rect class="cls-1" x="216.75" y="187.73" width="1.45" height="4.35"/><rect class="cls-1" x="219.65" y="187.73" width="0.72" height="4.35"/><rect class="cls-1" x="221.83" y="187.73" width="1.45" height="4.35"/><rect class="cls-1" x="224.72" y="187.73" width="0.72" height="4.35"/><polygon class="cls-1" points="218.92 229.06 206.93 229.06 206.25 228.34 218.92 228.34 218.92 229.06"/><polygon class="cls-1" points="218.92 229.06 230.2 229.06 230.88 228.34 218.92 228.34 218.92 229.06"/><polygon class="cls-2" points="218.2 228.34 205.49 228.34 204.72 225.43 218.2 225.43 218.2 228.34"/><polygon class="cls-2" points="218.2 228.34 231.64 228.34 232.4 225.43 218.2 225.43 218.2 228.34"/><polygon class="cls-1" points="218.92 233.41 206.93 233.41 206.25 231.96 218.92 231.96 218.92 233.41"/><polygon class="cls-1" points="218.92 233.41 230.2 233.41 230.88 231.96 218.92 231.96 218.92 233.41"/><polygon class="cls-2" points="218.2 236.31 205.49 236.31 204.72 233.41 218.2 233.41 218.2 236.31"/><polygon class="cls-2" points="218.2 236.31 231.64 236.31 232.4 233.41 218.2 233.41 218.2 236.31"/><polygon class="cls-1" points="218.92 237.03 206.93 237.03 206.25 236.31 218.92 236.31 218.92 237.03"/><polygon class="cls-1" points="218.92 237.03 230.2 237.03 230.88 236.31 218.92 236.31 218.92 237.03"/><polygon class="cls-2" points="218.92 239.94 205.49 239.94 204.72 237.03 218.92 237.03 218.92 239.94"/><polygon class="cls-2" points="218.92 239.94 231.64 239.94 232.4 237.03 218.92 237.03 218.92 239.94"/><polygon class="cls-1" points="218.92 241.39 206.93 241.39 206.25 239.94 218.92 239.94 218.92 241.39"/><polygon class="cls-1" points="218.92 241.39 230.2 241.39 230.88 239.94 218.92 239.94 218.92 241.39"/><polygon class="cls-2" points="218.92 244.28 205.49 244.28 204.72 241.39 218.92 241.39 218.92 244.28"/><polygon class="cls-2" points="218.92 244.28 231.64 244.28 232.4 241.39 218.92 241.39 218.92 244.28"/><polygon class="cls-1" points="217.47 249.36 204.28 249.36 203.49 247.91 217.47 247.91 217.47 249.36"/><polygon class="cls-1" points="217.47 249.36 231.38 249.36 232.18 247.91 217.47 247.91 217.47 249.36"/><polygon class="cls-1" points="218.92 245.74 206.94 245.74 206.25 244.28 218.92 244.28 218.92 245.74"/><polygon class="cls-1" points="218.92 245.74 230.2 245.74 230.88 244.28 218.92 244.28 218.92 245.74"/><polygon class="cls-2" points="218.2 247.91 202.39 247.91 201.47 245.74 218.2 245.74 218.2 247.91"/><polygon class="cls-2" points="218.2 247.91 233.96 247.91 234.89 245.74 218.2 245.74 218.2 247.91"/><polygon class="cls-2" points="218.2 252.26 202.39 252.26 201.47 249.36 218.2 249.36 218.2 252.26"/><polygon class="cls-2" points="218.2 252.26 233.96 252.26 234.89 249.36 218.2 249.36 218.2 252.26"/><polygon class="cls-1" points="217.47 253.71 204.28 253.71 203.49 252.26 217.47 252.26 217.47 253.71"/><polygon class="cls-1" points="217.47 253.71 231.38 253.71 232.18 252.26 217.47 252.26 217.47 253.71"/><polygon class="cls-2" points="218.2 256.61 202.39 256.61 201.47 253.71 218.2 253.71 218.2 256.61"/><polygon class="cls-2" points="218.2 256.61 233.96 256.61 234.89 253.71 218.2 253.71 218.2 256.61"/><polygon class="cls-2" points="217.09 260.39 198.66 260.39 197.56 256.04 217.09 256.04 217.09 260.39"/><polygon class="cls-2" points="217.09 260.39 236.23 260.39 237.33 256.04 217.09 256.04 217.09 260.39"/><polygon class="cls-2" points="218.2 231.96 205.49 231.96 204.72 229.06 218.2 229.06 218.2 231.96"/><polygon class="cls-2" points="218.2 231.96 231.64 231.96 232.4 229.06 218.2 229.06 218.2 231.96"/><polygon class="cls-2" points="195.22 251.35 195.22 242.45 192.44 242.45 192.44 234.66 51.75 234.66 51.75 242.45 48.41 242.45 48.41 251.35 42.3 251.35 42.3 260.24 201.89 260.24 201.89 251.35 195.22 251.35"/><rect class="cls-3" x="88.81" y="247.76" width="35.71" height="4.73"/><rect class="cls-3" x="86.2" y="252.49" width="40.76" height="4.73"/><rect class="cls-3" x="82.86" y="255.89" width="48.46" height="4.73"/><rect class="cls-3" x="51.08" y="240.98" width="141.32" height="1.42"/><rect class="cls-3" x="48.21" y="247.39" width="147.09" height="1.42"/><rect class="cls-2" x="92.07" y="226" width="29.53" height="21.76"/><rect class="cls-3" x="106.74" y="191.14" width="0.69" height="8.82"/><path class="cls-1" d="M107.09,195.18c-3.63,16.94-9.35,26.47-16.08,32.46h16.08Z"/><path class="cls-1" d="M107.09,195.18c3.63,16.94,9.35,26.47,16.08,32.46H107.09Z"/><rect class="cls-3" x="88.72" y="223.93" width="35.63" height="3.74"/><rect class="cls-3" x="106.19" y="205.59" width="0.69" height="8.82"/><ellipse class="cls-3" cx="106.53" cy="205.59" rx="0.55" ry="0.81"/><polygon class="cls-3" points="106.28 205.04 106.53 202.44 106.79 205.04 106.28 205.04"/><rect class="cls-3" x="99.05" y="226.71" width="4.43" height="21.06"/><rect class="cls-3" x="109.55" y="226.71" width="4.43" height="21.06"/><rect class="cls-3" x="118.73" y="227.77" width="2.87" height="19.99"/><rect class="cls-3" x="92.07" y="227.77" width="2.87" height="19.99"/><rect class="cls-4" x="103.48" y="231.29" width="6.07" height="14.67"/><rect class="cls-1" x="92.07" y="245.96" width="29.53" height="1.8"/><path class="cls-4" d="M106.52,210c-1.79,8.37-4.62,13.08-7.95,16h7.95Z"/><path class="cls-4" d="M106.52,210c1.79,8.37,4.62,13.08,7.95,16h-7.95Z"/><rect class="cls-1" x="98.57" y="226" width="15.89" height="1.77"/><ellipse class="cls-3" cx="106.53" cy="210.23" rx="0.55" ry="0.81"/><path class="cls-1" d="M180.84,255h0a.49.49,0,0,1,.49.49v5.42a.49.49,0,0,1-.49.49h0a.49.49,0,0,1-.49-.49V255.5A.49.49,0,0,1,180.84,255Z"/><path class="cls-1" d="M210.61,255h0a.49.49,0,0,1,.49.49v5.42a.49.49,0,0,1-.49.49h0a.49.49,0,0,1-.49-.49V255.5A.49.49,0,0,1,210.61,255Z"/><path class="cls-1" d="M214.09,255h0a.49.49,0,0,1,.49.49v5.42a.49.49,0,0,1-.49.49h0a.49.49,0,0,1-.49-.49V255.5A.49.49,0,0,1,214.09,255Z"/><path class="cls-1" d="M217.58,255h0a.49.49,0,0,1,.49.49v5.42a.49.49,0,0,1-.49.49h0a.49.49,0,0,1-.49-.49V255.5A.49.49,0,0,1,217.58,255Z"/><path class="cls-1" d="M221.07,255h0a.49.49,0,0,1,.49.49v5.42a.49.49,0,0,1-.49.49h0a.49.49,0,0,1-.49-.49V255.5A.49.49,0,0,1,221.07,255Z"/><path class="cls-1" d="M224.55,255h0a.49.49,0,0,1,.49.49v5.42a.49.49,0,0,1-.49.49h0a.49.49,0,0,1-.49-.49V255.5A.49.49,0,0,1,224.55,255Z"/><path class="cls-1" d="M228,255h0a.49.49,0,0,1,.49.49v5.42a.49.49,0,0,1-.49.49h0a.49.49,0,0,1-.49-.49V255.5A.49.49,0,0,1,228,255Z"/><path class="cls-1" d="M231.52,255h0a.49.49,0,0,1,.49.49v5.42a.49.49,0,0,1-.49.49h0a.49.49,0,0,1-.49-.49V255.5A.49.49,0,0,1,231.52,255Z"/><path class="cls-1" d="M235,255h0a.49.49,0,0,1,.49.49v5.42a.49.49,0,0,1-.49.49h0a.49.49,0,0,1-.49-.49V255.5A.49.49,0,0,1,235,255Z"/><path class="cls-1" d="M207.12,255h0a.49.49,0,0,1,.49.49v5.42a.49.49,0,0,1-.49.49h0a.49.49,0,0,1-.49-.49V255.5A.49.49,0,0,1,207.12,255Z"/><path class="cls-1" d="M203.37,255h0a.49.49,0,0,1,.49.49v5.42a.49.49,0,0,1-.49.49h0a.49.49,0,0,1-.49-.49V255.5A.49.49,0,0,1,203.37,255Z"/><path class="cls-1" d="M199.62,255h0a.49.49,0,0,1,.49.49v5.42a.49.49,0,0,1-.49.49h0a.49.49,0,0,1-.49-.49V255.5A.49.49,0,0,1,199.62,255Z"/><path class="cls-1" d="M195.86,255h0a.49.49,0,0,1,.49.49v5.42a.49.49,0,0,1-.49.49h0a.49.49,0,0,1-.49-.49V255.5A.49.49,0,0,1,195.86,255Z"/><path class="cls-1" d="M192.1,255h0a.49.49,0,0,1,.49.49v5.42a.49.49,0,0,1-.49.49h0a.49.49,0,0,1-.49-.49V255.5A.49.49,0,0,1,192.1,255Z"/><path class="cls-1" d="M188.35,255h0a.49.49,0,0,1,.49.49v5.42a.49.49,0,0,1-.49.49h0a.49.49,0,0,1-.49-.49V255.5A.49.49,0,0,1,188.35,255Z"/><path class="cls-1" d="M184.6,255h0a.49.49,0,0,1,.49.49v5.42a.49.49,0,0,1-.49.49h0a.49.49,0,0,1-.49-.49V255.5A.49.49,0,0,1,184.6,255Z"/><rect class="cls-1" x="180.51" y="256.37" width="54.49" height="1.84"/><path class="cls-1" d="M5.46,254.09h0a.49.49,0,0,1,.49.49V260a.49.49,0,0,1-.49.49h0A.49.49,0,0,1,5,260v-5.42A.49.49,0,0,1,5.46,254.09Z"/><path class="cls-1" d="M35.23,254.09h0a.49.49,0,0,1,.49.49V260a.49.49,0,0,1-.49.49h0a.49.49,0,0,1-.49-.49v-5.42A.49.49,0,0,1,35.23,254.09Z"/><path class="cls-1" d="M38.71,254.09h0a.49.49,0,0,1,.49.49V260a.49.49,0,0,1-.49.49h0a.49.49,0,0,1-.49-.49v-5.42A.49.49,0,0,1,38.71,254.09Z"/><path class="cls-1" d="M42.2,254.09h0a.49.49,0,0,1,.49.49V260a.49.49,0,0,1-.49.49h0a.49.49,0,0,1-.49-.49v-5.42A.49.49,0,0,1,42.2,254.09Z"/><path class="cls-1" d="M45.68,254.09h0a.49.49,0,0,1,.49.49V260a.49.49,0,0,1-.49.49h0a.49.49,0,0,1-.49-.49v-5.42A.49.49,0,0,1,45.68,254.09Z"/><path class="cls-1" d="M49.16,254.09h0a.49.49,0,0,1,.49.49V260a.49.49,0,0,1-.49.49h0a.49.49,0,0,1-.49-.49v-5.42A.49.49,0,0,1,49.16,254.09Z"/><rect class="cls-1" x="52.16" y="254.09" width="0.99" height="6.41" rx="0.49" ry="0.49"/><path class="cls-1" d="M56.14,254.09h0a.49.49,0,0,1,.49.49V260a.49.49,0,0,1-.49.49h0a.49.49,0,0,1-.49-.49v-5.42A.49.49,0,0,1,56.14,254.09Z"/><path class="cls-1" d="M59.62,254.09h0a.49.49,0,0,1,.49.49V260a.49.49,0,0,1-.49.49h0a.49.49,0,0,1-.49-.49v-5.42A.49.49,0,0,1,59.62,254.09Z"/><path class="cls-1" d="M31.74,254.09h0a.49.49,0,0,1,.49.49V260a.49.49,0,0,1-.49.49h0a.49.49,0,0,1-.49-.49v-5.42A.49.49,0,0,1,31.74,254.09Z"/><path class="cls-1" d="M28,254.09h0a.49.49,0,0,1,.49.49V260a.49.49,0,0,1-.49.49h0a.49.49,0,0,1-.49-.49v-5.42A.49.49,0,0,1,28,254.09Z"/><path class="cls-1" d="M24.23,254.09h0a.49.49,0,0,1,.49.49V260a.49.49,0,0,1-.49.49h0a.49.49,0,0,1-.49-.49v-5.42A.49.49,0,0,1,24.23,254.09Z"/><path class="cls-1" d="M20.48,254.09h0a.49.49,0,0,1,.49.49V260a.49.49,0,0,1-.49.49h0A.49.49,0,0,1,20,260v-5.42A.49.49,0,0,1,20.48,254.09Z"/><path class="cls-1" d="M16.72,254.09h0a.49.49,0,0,1,.49.49V260a.49.49,0,0,1-.49.49h0a.49.49,0,0,1-.49-.49v-5.42A.49.49,0,0,1,16.72,254.09Z"/><path class="cls-1" d="M13,254.09h0a.49.49,0,0,1,.49.49V260a.49.49,0,0,1-.49.49h0a.49.49,0,0,1-.49-.49v-5.42A.49.49,0,0,1,13,254.09Z"/><path class="cls-1" d="M9.21,254.09h0a.49.49,0,0,1,.49.49V260a.49.49,0,0,1-.49.49h0a.49.49,0,0,1-.49-.49v-5.42A.49.49,0,0,1,9.21,254.09Z"/><rect class="cls-1" x="5.13" y="255.45" width="54.49" height="1.84"/><rect class="cls-1" x="86.2" y="254.94" width="40.76" height="1.02"/><rect class="cls-1" x="88.85" y="251.46" width="35.68" height="1.02"/></g></svg>