<svg id="Layer_1" data-name="Layer 1" xmlns="http://www.w3.org/2000/svg" viewBox="0 0 420 208"><defs><style>.cls-1{fill:#17ea92;}.cls-2{fill:#305944;opacity:0.19;}.cls-3{fill:#ffd800;}</style></defs><title>wf</title><path class="cls-1" d="M150.42,206.16l-37.63-79.84,16.46-7.76,14.35-6.76a46.51,46.51,0,0,0,5.41-3,60,60,0,0,0,7.19-5.46,83,83,0,0,0,6.26-6.16,120.4,120.4,0,0,0,9.4-11.84c10.64-15.13,19.13-33,26.41-46.48.62-1.15,1.23-2.25,1.83-3.33a32.49,32.49,0,0,1,7.54-8.76l.09-.08a65.34,65.34,0,0,1,9.66-6.6c.58-.34,1.17-.67,1.78-1,1.34-.72,2.7-1.42,4.1-2.09,2.32-1.12,4.7-2.18,7.11-3.18a212.74,212.74,0,0,1,30.16-9.58c6.62-1.62,11-2.4,11-2.4L293.8,49,307.21,77.5l-.31.11c-2.06.71-14.12,4.9-27.08,10-2.77,1.09-5.57,2.22-8.34,3.37-1.5.62-3,1.25-4.44,1.87l-1.65.71c-3.58,1.57-7,3.13-9.9,4.63-.64.32-1.24.64-1.84,1-.85.44-1.65.89-2.39,1.31a13.34,13.34,0,0,0-2.1,1.53,18.33,18.33,0,0,0-1.54,1.47c-7.18,7.55-14.1,24.28-19.33,39.55a89.59,89.59,0,0,1-7.91,17,90.9,90.9,0,0,1-16.47,20.27,92.11,92.11,0,0,1-32.16,19.25l-.22.07-.34.12C159.54,203.71,150.42,206.16,150.42,206.16Z"/><ellipse class="cls-2" cx="203.37" cy="103.96" rx="19.43" ry="35.43" transform="translate(-11.39 26.21) rotate(-7.17)"/><path class="cls-3" d="M203.82,88.72a2.62,2.62,0,0,0-1.15.08,11.32,11.32,0,0,0-1.73.57,12.06,12.06,0,0,0-2,1.06,10.16,10.16,0,0,0-2,1.68l5,8.37.9-.71a32.79,32.79,0,0,1,3.61-2.33,7,7,0,0,1,3.25-.95,5.13,5.13,0,0,1,3,1,10.64,10.64,0,0,1,2.87,3.35,17.43,17.43,0,0,1,2.17,5.33,17.1,17.1,0,0,1,.33,5.22,18.48,18.48,0,0,1-1.15,4.92,22.93,22.93,0,0,1-2.27,4.42L218,126l-1.74,2.4L213,123.05a18.8,18.8,0,0,1-4.79,4.1A13.59,13.59,0,0,1,202.9,129l-1.7-8.2a5.08,5.08,0,0,0,1.41-.08,9.67,9.67,0,0,0,2.13-.64,15,15,0,0,0,2.46-1.32,13.09,13.09,0,0,0,2.43-2.08l-5-8.32-1.36,1a19.93,19.93,0,0,1-3.45,2.07,6.42,6.42,0,0,1-2.93.64,4.56,4.56,0,0,1-2.6-1,10.49,10.49,0,0,1-2.43-2.94,18.35,18.35,0,0,1-2.13-5.08,19,19,0,0,1-.56-5.16,19.19,19.19,0,0,1,.83-5,20.42,20.42,0,0,1,2-4.61l-3-4.94,1.74-2.4,2.94,4.89A14,14,0,0,1,198,82.31a15,15,0,0,1,4.29-1.46Zm-8.5,12.65q1,1.65,2.19,1.53a6.84,6.84,0,0,0,3-1.36l-4.72-7.84Q193.19,97.83,195.32,101.37Zm16.5,6q-1-1.69-2.38-1.49a8.82,8.82,0,0,0-3.28,1.43l4.72,7.84Q213.85,110.76,211.81,107.37Z"/><path class="cls-2" d="M253.64,99.12c-6-28.07-24.36-50.84-36.24-79,.58-.34,1.17-.67,1.78-1,1.34-.72,2.7-1.42,4.1-2.09,2.32-1.12,4.7-2.18,7.11-3.18a212.74,212.74,0,0,1,30.16-9.58c6.62-1.62,11-2.4,11-2.4L293.8,49,306.9,77.6c-2.06.71-14.12,4.9-27.08,10-2.77,1.09-5.57,2.22-8.34,3.37-1.5.62-3,1.25-4.44,1.87l-1.65.71c-3.58,1.57-7,3.13-9.9,4.63C254.84,98.49,254.24,98.8,253.64,99.12Z"/><path class="cls-2" d="M150.42,206.16l-37.63-79.84,16.46-7.76,14.35-6.76a46.51,46.51,0,0,0,5.41-3c10.33,31,25.63,57.8,37.64,84a92.93,92.93,0,0,1-14.92,6.73l-.22.07-.34.12C159.54,203.71,150.42,206.16,150.42,206.16Z"/></svg>