<svg id="Layer_1" data-name="Layer 1" xmlns="http://www.w3.org/2000/svg" viewBox="0 0 420 208"><defs><style>.cls-1{fill:#f80;}.cls-2{fill:#bf6310;}.cls-3{fill:#914d0a;}.cls-4{fill:#c19710;}.cls-5{fill:#ffd800;}.cls-6{fill:#a30000;}.cls-7{fill:red;}.cls-8{fill:#b2edcf;}.cls-9{fill:#f2f2f2;}.cls-10{fill:#f7e89f;}</style></defs><title>wf</title><path class="cls-1" d="M121,157.6c5.28,27.48,42.79,48.78,88.29,48.78s83-21.3,88.29-48.78Z"/><path class="cls-2" d="M298.48,157.72c-5.27,27.48-42.8,48.78-88.3,48.78A141.06,141.06,0,0,1,191,205.21c36.53-5,64.64-24,69.15-47.49Z"/><rect class="cls-3" x="111.18" y="107.88" width="195.72" height="34.57" rx="14.65" ry="14.65"/><rect class="cls-4" x="112.14" y="93.25" width="195.72" height="17.29" rx="7.32" ry="7.32"/><path class="cls-5" d="M244.85,101.9A10.61,10.61,0,0,1,243,108a5.51,5.51,0,0,1-4.39,2.53H118.34c-3.43,0-6.21-3.87-6.21-8.64A10.61,10.61,0,0,1,114,95.78a5.51,5.51,0,0,1,4.39-2.53h120.3C242.07,93.25,244.85,97.12,244.85,101.9Z"/><rect class="cls-6" x="112.14" y="141.05" width="195.72" height="17.29" rx="7.32" ry="7.32"/><path class="cls-7" d="M244.85,149.69a10.61,10.61,0,0,1-1.81,6.12,5.51,5.51,0,0,1-4.39,2.53H118.34c-3.43,0-6.21-3.87-6.21-8.64a10.61,10.61,0,0,1,1.81-6.12,5.51,5.51,0,0,1,4.39-2.53h120.3C242.07,141,244.85,144.92,244.85,149.69Z"/><path class="cls-8" d="M315.5,93.25h-211q17.19-7.31,0-14.63h211Q298.31,85.94,315.5,93.25Z"/><path class="cls-9" d="M134.56,67.64h0c-1.26-.54-2-2.7-1.71-4.83l1-7c.32-2.13,1.6-3.42,2.86-2.88h0c1.26.54,2,2.7,1.71,4.83l-1,7C137.1,66.88,135.82,68.17,134.56,67.64Z"/><path class="cls-1" d="M305,83.95H120.4C125.91,37.5,165.13,1.5,212.7,1.5A92.8,92.8,0,0,1,293,48q2.23,3.84,4.09,7.91A93.37,93.37,0,0,1,305,83.95Z"/><path class="cls-2" d="M227.71,3.27C187.1,9.9,155.32,43,150.4,84.5h-30C125.91,38,165.13,2,212.7,2A92.78,92.78,0,0,1,227.71,3.27Z"/><circle class="cls-10" cx="257" cy="55" r="2.5"/><circle class="cls-10" cx="150" cy="182" r="2.5"/><circle class="cls-10" cx="265.5" cy="50.5" r="1"/><circle class="cls-10" cx="158.5" cy="179.5" r="1"/><circle class="cls-10" cx="269" cy="43" r="2.5"/></svg>