<?xml version="1.0" encoding="utf-8"?>
<!-- Generator: Adobe Illustrator 20.1.0, SVG Export Plug-In . SVG Version: 6.00 Build 0)  -->
<!DOCTYPE svg PUBLIC "-//W3C//DTD SVG 1.1//EN" "http://www.w3.org/Graphics/SVG/1.1/DTD/svg11.dtd">
<svg version="1.1" id="Layer_1" xmlns="http://www.w3.org/2000/svg" xmlns:xlink="http://www.w3.org/1999/xlink" x="0px" y="0px"
	 viewBox="0 0 212 208" style="enable-background:new 0 0 212 208;" xml:space="preserve">
<style type="text/css">
	.st0{fill:#213B5C;}
	.st1{fill:#FFFFFF;}
	.st2{font-family:'AvenirNext-Bold';}
	.st3{font-size:20px;}
	.st4{letter-spacing:1;}
	.st5{fill:none;stroke:#FFFFFF;stroke-width:0.5;stroke-miterlimit:10;}
	.st6{letter-spacing:3;}
	.st7{letter-spacing:2;}
</style>
<title>icons</title>
<path class="st0" d="M146.8,0.1L52.2,27.9c-0.1,0-0.3,0.1-0.4,0.1C45.3,28.1,40,33.5,40,40v151.5c0,7.5,6.1,13.5,13.5,13.5h92
	c7.4,0,13.5-6.1,13.5-13.5V12c0-6.5-5.2-11.9-11.8-12C147.1,0,146.9,0,146.8,0.1z M145.5,193h-92c-0.8,0-1.5-0.7-1.5-1.5v-150
	c0-0.8,0.7-1.5,1.5-1.5c0,0,0,0,0,0l0,0c0.1,0,0.3,0,0.4-0.1l91.1-26.9c0.8-0.2,1.6,0.2,1.9,1c0,0.1,0.1,0.3,0.1,0.4v177
	C147,192.3,146.3,193,145.5,193z"/>
<path class="st0" d="M52,31h108c6.6,0,12,5.4,12,12v153c0,6.6-5.4,12-12,12H52c-6.6,0-12-5.4-12-12V43C40,36.4,45.4,31,52,31z"/>
<text transform="matrix(1 0 0 1 54.26 81.11)" class="st1 st2 st3 st4">P</text>
<text transform="matrix(1 0 0 1 54.26 81.11)" class="st5 st2 st3 st4">P</text>
<text transform="matrix(1 0 0 1 65.96 81.11)" class="st1 st2 st3 st6">A</text>
<text transform="matrix(1 0 0 1 65.96 81.11)" class="st5 st2 st3 st6">A</text>
<text transform="matrix(1 0 0 1 79.88 81.11)" class="st1 st2 st3 st6">SSP</text>
<text transform="matrix(1 0 0 1 79.88 81.11)" class="st5 st2 st3 st6">SSP</text>
<text transform="matrix(1 0 0 1 117.94 81.11)" class="st1 st2 st3 st6">OR</text>
<text transform="matrix(1 0 0 1 117.94 81.11)" class="st5 st2 st3 st6">OR</text>
<text transform="matrix(1 0 0 1 146.02 81.11)" class="st1 st2 st3 st7">T</text>
<text transform="matrix(1 0 0 1 146.02 81.11)" class="st5 st2 st3 st7">T</text>
<path class="st1" d="M105.1,99.7c-20.7,0-37.5,16.8-37.5,37.5s16.8,37.5,37.5,37.5c20.6,0,37.4-16.7,37.5-37.4
	c0.1-20.7-16.7-37.6-37.4-37.6C105.2,99.7,105.2,99.7,105.1,99.7z M97.5,104.7c-2,2.3-3.8,4.3-5.4,6.5c-1.3,1.9-2.6,3.8-3.7,5.8
	c-0.5,0.8-0.9,1.1-1.8,0.7c-2.1-0.9-4.2-1.7-6.6-2.7C84.7,109.8,90.8,106.2,97.5,104.7L97.5,104.7z M77.9,155.7
	c-0.2,0.1-0.9-0.3-1.2-0.7c-2.2-3.4-3.8-7.2-4.6-11.2c-1.7-8.3-0.1-17,4.4-24.2c0.6-1,1.1-1.2,2.3-0.6c2,1.1,4.2,1.9,6.3,2.8
	c0.7,0.3,1,0.5,0.7,1.3c-3.1,9.1-3.1,19,0.2,28c0.1,0.3,0.1,0.6,0.2,0.8C83.4,153.1,80.7,154.5,77.9,155.7L77.9,155.7z M80.1,159.1
	l7.9-3.4c2.5,5.1,5.9,9.7,9.9,13.7C93.1,169.5,82.9,163.5,80.1,159.1L80.1,159.1z M102.8,167.9c-4.4-3.6-8-8.2-10.6-13.3
	c3.6-0.3,6.7-0.6,9.9-0.9c0.4,0.1,0.7,0.4,0.8,0.8C103,158.9,103,163.4,102.8,167.9L102.8,167.9z M102.9,137.1L102.9,137.1
	c0,3.7,0,7.4,0,11c0,1-0.3,1.3-1.3,1.4c-3.4,0.4-6.9,0.8-10.3,1.2c-0.7,0.1-1,0-1.3-0.7c-3.1-8.3-3.2-17.5-0.2-25.9
	c0.2-0.7,0.6-0.9,1.4-0.8c3.5,0.5,6.9,1,10.4,1.4c1.1,0.1,1.3,0.5,1.3,1.5C102.9,129.8,103,133.5,102.9,137.1L102.9,137.1z
	 M101.7,120.6c-2.8-0.4-5.6-0.7-8.4-1.1c-0.4-0.1-0.7-0.2-1.1-0.4c2.6-5,6.2-9.5,10.6-13c0.1,0.4,0.1,0.7,0.1,1.1
	c0,4.1,0,8.1,0,12.2C103,120.4,102.7,120.7,101.7,120.6L101.7,120.6z M113.6,105c6.3,1.6,12.1,5.1,16.4,10l-0.8,0.3l-5.6,2.4
	c-0.6,0.2-1.1,0.2-1.4-0.4c-2.2-4.3-5.1-8.2-8.5-11.6c-0.1-0.1-0.2-0.3-0.3-0.4C113.4,105.2,113.5,105.1,113.6,105z M107.2,105.5
	c4.6,3.7,8.5,8.3,11.3,13.5c-0.1,0.2-0.1,0.3-0.2,0.5c-3.4,0.4-6.8,0.8-10.2,1.1c-0.4-0.1-0.7-0.4-0.9-0.8
	C107.2,115.2,107.2,110.6,107.2,105.5L107.2,105.5z M108.6,124.8c3.6-0.4,7.1-0.9,10.6-1.4c0.9-0.1,1.3,0.1,1.5,0.9
	c1.9,6.1,2.4,12.5,1.4,18.8c-0.4,2.3-1.1,4.6-1.7,6.9c-0.2,0.9-0.6,1.1-1.5,1c-3.5-0.5-7-1-10.5-1.4c-1-0.1-1.3-0.5-1.2-1.4
	c0-3.7,0-7.4,0-11s0-7.2,0-10.9C107.2,125.2,107.5,124.9,108.6,124.8L108.6,124.8z M107.4,168.7c-0.1-0.3-0.2-0.7-0.2-1
	c0-4.2,0-8.4,0-12.6c0-1.1,0.3-1.4,1.4-1.3c3.1,0.4,6.3,0.8,9.7,1.2C115.6,160.2,111.9,164.8,107.4,168.7z M112.9,169.2
	c0.9-0.9,1.7-1.8,2.4-2.7c2.2-3,4.3-6.1,6.4-9.3c0.5-0.7,0.8-1,1.7-0.6c2.1,0.9,4.2,1.7,6.7,2.7C125.1,164.5,119.7,168,112.9,169.2
	L112.9,169.2z M131.2,155.4c-2-1-4-1.8-6-2.6c-1-0.4-1.2-0.7-0.9-1.8c3.2-9,3.3-18.8,0.3-27.9c-0.2-0.6-0.4-1.1,0.4-1.4
	c2.5-1,4.9-2.1,7.6-3.3c2,2.8,3.4,5.8,4.4,9.1c2.8,9.2,1.5,19.2-3.6,27.3C132.8,155.9,132.3,156,131.2,155.4L131.2,155.4z"/>
</svg>
