<svg id="Layer_1" data-name="Layer 1" xmlns="http://www.w3.org/2000/svg" viewBox="0 0 231 208"><defs><style>.cls-1{fill:#a100e2;}.cls-2{fill:#d9a0fb;}.cls-3{fill:#fff;}</style></defs><title>icons</title><path class="cls-1" d="M230.23,69.46c0,37.82-39.79,68.53-89,68.86a45.75,45.75,0,0,0,.14-16.15c-4.81-28.47-36-50.45-73.85-50.45a94.39,94.39,0,0,0-16.82,1.49c-.09-1.24-.13-2.49-.13-3.75,0-38,40.22-68.88,89.84-68.88a113.26,113.26,0,0,1,35.26,5.51C207.74,16.6,230.23,41,230.23,69.46Z"/><path class="cls-2" d="M204.23,56.46c0,30.83-26.44,56.94-62.88,65.71-4.81-28.47-36-50.45-73.85-50.45a94.39,94.39,0,0,0-16.82,1.49c-.09-1.24-.13-2.49-.13-3.75,0-38,40.22-68.88,89.84-68.88a113.26,113.26,0,0,1,35.26,5.51C193.24,18.66,204.23,36.57,204.23,56.46Z"/><polygon class="cls-1" points="154 127.75 201.04 167 201.04 88.49 154 127.75"/><path class="cls-1" d="M134.28,128.9c0,28.26-29.88,51.18-66.75,51.18-21.8,0-41.16-8-53.34-20.4C5.76,151.11.77,140.45.77,128.9c0-28.27,29.89-51.18,66.76-51.18a80.36,80.36,0,0,1,40.33,10.4C123.92,97.46,134.28,112.25,134.28,128.9Z"/><path class="cls-2" d="M121.28,118.9c0,28.26-29.88,51.18-66.75,51.18a80.42,80.42,0,0,1-40.34-10.4C5.76,151.11.77,140.45.77,128.9c0-28.27,29.89-51.18,66.76-51.18a80.36,80.36,0,0,1,40.33,10.4C116.29,96.68,121.28,107.34,121.28,118.9Z"/><polygon class="cls-1" points="71.98 175.23 33.41 207.42 33.41 170 71.98 175.23"/><circle class="cls-3" cx="40" cy="129" r="8"/><circle class="cls-3" cx="68" cy="129" r="8"/><circle class="cls-3" cx="95" cy="129" r="8"/><circle class="cls-3" cx="112" cy="65" r="8"/><circle class="cls-3" cx="140" cy="65" r="8"/><circle class="cls-3" cx="167" cy="65" r="8"/></svg>