<?xml version="1.0" encoding="utf-8"?>
<!-- Generator: Adobe Illustrator 20.1.0, SVG Export Plug-In . SVG Version: 6.00 Build 0)  -->
<!DOCTYPE svg PUBLIC "-//W3C//DTD SVG 1.1//EN" "http://www.w3.org/Graphics/SVG/1.1/DTD/svg11.dtd">
<svg version="1.1" id="Layer_1" xmlns="http://www.w3.org/2000/svg" xmlns:xlink="http://www.w3.org/1999/xlink" x="0px" y="0px"
	 viewBox="0 0 294 208" style="enable-background:new 0 0 294 208;" xml:space="preserve">
<style type="text/css">
	.st0{fill:#5FBBFF;}
	.st1{fill:#00AAFF;}
	.st2{fill:#FFFFFF;}
</style>
<title>icons</title>
<circle class="st0" cx="147" cy="104" r="104"/>
<path class="st1" d="M217.4,27.4l-140.9,153c42.7,38.5,108.4,35,146.9-7.6C261.3,130.7,258.6,66.1,217.4,27.4z"/>
<path class="st2" d="M147,0C89.6,0,43,46.6,43,104s46.6,104,104,104s104-46.6,104-104S204.4,0,147,0z M147,198
	c-51.9,0-94-42.1-94-94s42.1-94,94-94s94,42.1,94,94C240.9,155.9,198.9,197.9,147,198z"/>
<path class="st2" d="M147,19.5L147,19.5c1.1,0,2,0.9,2,2v16c0,1.1-0.9,2-2,2l0,0c-1.1,0-2-0.9-2-2v-16C145,20.4,145.9,19.5,147,19.5
	z"/>
<path class="st2" d="M147,168.5L147,168.5c1.1,0,2,0.9,2,2v16c0,1.1-0.9,2-2,2l0,0c-1.1,0-2-0.9-2-2v-16
	C145,169.4,145.9,168.5,147,168.5z"/>
<path class="st2" d="M231.5,104L231.5,104c0,1.1-0.9,2-2,2h-16c-1.1,0-2-0.9-2-2l0,0c0-1.1,0.9-2,2-2h16
	C230.6,102,231.5,102.9,231.5,104z"/>
<path class="st2" d="M82.5,104L82.5,104c0,1.1-0.9,2-2,2h-16c-1.1,0-2-0.9-2-2l0,0c0-1.1,0.9-2,2-2h16C81.6,102,82.5,102.9,82.5,104
	z"/>
<circle class="st2" cx="147" cy="104" r="6.5"/>
<path class="st2" d="M145.7,104.9l-49-40c-1.1-0.9-1.2-2.4-0.4-3.5l0,0c0.9-1.1,2.4-1.2,3.5-0.4l49,40c1.1,0.9,1.2,2.4,0.4,3.5l0,0
	C148.4,105.7,146.8,105.8,145.7,104.9z"/>
<path class="st2" d="M148.2,108.1l-42.3,9.9c-1.3,0.3-2.7-0.5-3-1.9l0,0c-0.3-1.3,0.5-2.7,1.9-3l42.3-9.9c1.3-0.3,2.7,0.5,3,1.9l0,0
	C150.3,106.4,149.5,107.8,148.2,108.1z"/>
</svg>
