<!--?xml version="1.0" encoding="utf-8"?-->
<!-- Generator: Adobe Illustrator 15.0.0, SVG Export Plug-In . SVG Version: 6.00 Build 0)  -->

<svg xmlns="http://www.w3.org/2000/svg" xmlns:xlink="http://www.w3.org/1999/xlink" width="500px" height="500px" viewBox="0 0 500 500">
<ellipse fill="#F15B5A" stroke="#8DC63F" stroke-width="0.1" cx="249.991" cy="250.016" rx="200.327" ry="194.376" id="ellipse-0" style="position: relative;"></ellipse>
<radialGradient id="SVGID_1_" cx="250.0112" cy="249.978" r="140.3857" gradientUnits="userSpaceOnUse">
	<stop offset="0.6868" style="stop-color:#FFFFFF"></stop>
	<stop offset="1" style="stop-color:#EFEFF0"></stop>
</radialGradient>
<ellipse fill="url(#SVGID_1_)" stroke="#FFFFFF" cx="250.011" cy="249.978" rx="142.108" ry="138.642" id="ellipse-1" style="position: relative;"></ellipse>
<rect x="247.701" y="116.535" width="4.622" height="19.641" id="rect-0"></rect>
<rect x="247.701" y="360.892" width="4.622" height="19.641" id="rect-1"></rect>
<rect x="188.923" y="135.215" transform="matrix(0.866 -0.5 0.5 0.866 -46.8972 115.0487)" width="4.621" height="19.641" id="rect-2"></rect>
<rect x="311.101" y="346.833" transform="matrix(0.8661 -0.4999 0.4999 0.8661 -136.3219 204.4423)" width="4.622" height="19.641" id="rect-3" style="position: relative;"></rect>
<rect x="144.203" y="179.935" transform="matrix(0.4998 -0.8661 0.8661 0.4998 -91.0704 221.8049)" width="4.621" height="19.642" id="rect-4" style="position: relative;"></rect>
<rect x="353.415" y="301.391" transform="matrix(0.5001 -0.866 0.866 0.5001 -91.6663 463.6375)" width="4.622" height="19.641" id="rect-5" style="position: relative;"></rect>
<rect x="115.703" y="246.223" width="19.641" height="4.621" id="rect-6" style="position: relative;"></rect>
<rect x="360.059" y="246.224" width="19.641" height="4.621" id="rect-7" style="position: relative;"></rect>
<rect x="141.892" y="299.802" transform="matrix(-0.5 -0.866 0.866 -0.5 -51.8381 589.3141)" width="4.622" height="19.64" id="rect-8" style="position: relative;"></rect>
<rect x="353.509" y="177.624" transform="matrix(-0.5 -0.866 0.866 -0.5 371.4102 589.317)" width="4.623" height="19.642" id="rect-9" style="position: relative;"></rect>
<rect x="186.613" y="344.522" transform="matrix(-0.8661 -0.4999 0.4999 -0.8661 175.4063 755.674)" width="4.622" height="19.641" id="rect-10" style="position: relative;"></rect>
<rect x="308.79" y="132.904" transform="matrix(-0.866 -0.5 0.5 -0.866 509.1631 421.8766)" width="4.622" height="19.642" id="rect-11" style="position: relative;"></rect>
<path d="M188.938,181.505c-0.971-1.158-0.67-3.01,0.675-4.139l0,0c1.345-1.128,3.223-1.103,4.193,0.054l58.528,69.75
	c0.97,1.157,0.67,3.01-0.675,4.139l0,0c-1.345,1.128-3.223,1.104-4.194-0.055L188.938,181.505z" id="path-0"></path>
<path fill="#B3B3B3" d="M144.693,255.691c-1.754,0.061-3.208-0.844-3.251-2.026l0,0c-0.04-1.178,1.348-2.185,3.102-2.245
	l105.649-3.692c1.753-0.061,3.211,0.848,3.251,2.028l0,0c0.039,1.181-1.349,2.188-3.103,2.248L144.693,255.691z" id="path-1"></path>
<path fill="#00AEEF" d="M142.773,264.695c-1.742,0.212-3.227-0.208-3.318-0.943l0,0c-0.089-0.735,1.249-1.505,2.99-1.72
	l104.927-12.884c1.742-0.213,3.227,0.209,3.317,0.946l0,0c0.09,0.735-1.25,1.505-2.991,1.719L142.773,264.695z" id="path-2" style="position: relative;"></path>
<linearGradient id="SVGID_2_" gradientUnits="userSpaceOnUse" x1="242.3354" y1="256.5" x2="258.2662" y2="240.5692">
	<stop offset="0.0165" style="stop-color:#EAEAEA"></stop>
	<stop offset="1" style="stop-color:#BFBFBF"></stop>
</linearGradient>
<circle fill="url(#SVGID_2_)" stroke="#B3B3B3" stroke-width="0.1" cx="250.301" cy="248.534" r="11.265" id="circle-0"></circle>
</svg>
