<svg id="Layer_1" data-name="Layer 1" xmlns="http://www.w3.org/2000/svg" viewBox="0 0 420 208"><defs><style>.cls-1{fill:#f2f2f2;}.cls-2{fill:#d8d6d6;}.cls-3{fill:#c19710;}.cls-4{fill:#ffd800;}.cls-5{fill:#f7e89f;opacity:0.85;}</style></defs><title>wf</title><path class="cls-1" d="M281.27,50.82V183.36A24.63,24.63,0,0,1,256.63,208H163.37a24.63,24.63,0,0,1-24.64-24.64V50.82a24.63,24.63,0,0,1,24.64-24.64h-3.55a6.55,6.55,0,0,1,0-13.09,6.55,6.55,0,0,1,0-13.09h97.45a6.55,6.55,0,0,1,0,13.09,6.55,6.55,0,0,1,0,13.09h-.64A24.63,24.63,0,0,1,281.27,50.82Z"/><path class="cls-2" d="M281.27,50.82V183.36A24.63,24.63,0,0,1,256.63,208H163.37a24.63,24.63,0,0,1-24.64-24.64v-5.8L250,0h7.27a6.55,6.55,0,0,1,0,13.09,6.55,6.55,0,0,1,0,13.09h-.64A24.63,24.63,0,0,1,281.27,50.82Z"/><rect class="cls-1" x="150.36" y="33.45" width="117.82" height="161.45" rx="27.47" ry="27.47"/><ellipse class="cls-3" cx="206.35" cy="174.2" rx="18.52" ry="22.13" transform="translate(10.15 359.75) rotate(-83.57)"/><rect class="cls-3" x="202.28" y="147.86" width="9.1" height="44.25" transform="translate(398.9 -16.51) rotate(96.43)"/><ellipse class="cls-4" cx="207.28" cy="165.93" rx="18.05" ry="22.13" transform="translate(19.19 353.34) rotate(-83.57)"/><path class="cls-5" d="M219.82,181.29l-24.66-30.93A25.33,25.33,0,0,1,209.3,148c12.14,1.37,21.08,10.51,20,20.41C228.65,173.94,225,178.54,219.82,181.29Z"/><ellipse class="cls-3" cx="239.35" cy="168.2" rx="18.52" ry="22.13" transform="translate(45.42 387.21) rotate(-83.57)"/><rect class="cls-3" x="235.27" y="141.86" width="9.1" height="44.25" transform="translate(429.63 -55.97) rotate(96.43)"/><ellipse class="cls-4" cx="240.28" cy="159.93" rx="18.05" ry="22.13" transform="translate(54.46 380.8) rotate(-83.57)"/><path class="cls-5" d="M252.82,175.29l-24.66-30.93A25.33,25.33,0,0,1,242.3,142c12.14,1.37,21.08,10.51,20,20.41C261.65,167.94,258,172.54,252.82,175.29Z"/><ellipse class="cls-3" cx="188.36" cy="167.19" rx="22.13" ry="18.52" transform="translate(-49.96 248.66) rotate(-60.47)"/><rect class="cls-3" x="180.12" y="142.98" width="9.1" height="44.25" transform="translate(105.38 -69.58) rotate(29.53)"/><ellipse class="cls-4" cx="181.12" cy="163.09" rx="22.13" ry="18.05" transform="translate(-50.06 240.29) rotate(-60.47)"/><path class="cls-5" d="M200.17,157.58,162,168.13a25.33,25.33,0,0,1,3.38-13.94c6-10.63,17.94-15.27,26.61-10.36C196.87,146.58,199.68,151.72,200.17,157.58Z"/><ellipse class="cls-3" cx="206.63" cy="151.78" rx="18.52" ry="22.13" transform="translate(48.28 353.42) rotate(-88.15)"/><rect class="cls-3" x="202.22" y="125.42" width="9.1" height="44.25" transform="translate(360.9 -54.36) rotate(91.85)"/><ellipse class="cls-4" cx="206.9" cy="143.47" rx="18.05" ry="22.13" transform="translate(56.84 345.64) rotate(-88.15)"/><path class="cls-5" d="M220.63,157.77l-27.06-28.86a25.33,25.33,0,0,1,13.91-3.49c12.22.39,21.86,8.79,21.53,18.75C228.84,149.75,225.59,154.62,220.63,157.77Z"/></svg>