<svg id="Layer_1" data-name="Layer 1" xmlns="http://www.w3.org/2000/svg" viewBox="0 0 420 208"><defs><style>.cls-1{fill:#ff5c5c;}.cls-2{fill:#c94141;}.cls-3{fill:#fff;}.cls-4{fill:#4d4d4d;}.cls-5{fill:#b9e3ff;}</style></defs><title>wf</title><rect class="cls-1" x="97.93" y="6.62" width="222.92" height="199.65" rx="43.87" ry="43.87"/><path class="cls-2" d="M322.07,51.72v111.9A43.88,43.88,0,0,1,278.2,207.5H143a43.78,43.78,0,0,1-28.76-10.73L305.48,17.37A43.77,43.77,0,0,1,322.07,51.72Z"/><rect class="cls-3" x="118.75" y="28.67" width="183.73" height="154.33" rx="21.03" ry="21.03"/><rect class="cls-4" x="123.65" y="0.5" width="18.37" height="41.64" rx="9.19" ry="9.19"/><rect class="cls-4" x="155.49" y="0.5" width="18.37" height="41.64" rx="9.19" ry="9.19"/><rect class="cls-4" x="187.34" y="0.5" width="18.37" height="41.64" rx="9.19" ry="9.19"/><rect class="cls-4" x="219.19" y="0.5" width="18.37" height="41.64" rx="9.19" ry="9.19"/><rect class="cls-4" x="251.03" y="0.5" width="18.37" height="41.64" rx="9.19" ry="9.19"/><rect class="cls-4" x="282.88" y="0.5" width="18.37" height="41.64" rx="9.19" ry="9.19"/><polygon class="cls-4" points="292.68 152.38 133.45 151.16 164.02 91.52 164.55 90.48 183.67 53.17 207.48 96.04 213.37 106.62 214.29 108.29 240.01 93.59 265.73 122.3 292.68 152.38"/><polygon class="cls-5" points="207.48 96.04 187.34 88.69 172.64 103.39 164.55 90.48 183.67 53.17 207.48 96.04"/><polygon class="cls-5" points="265.73 122.3 237.56 108.29 232.66 127.89 213.06 108.29 213.37 106.62 214.29 108.29 240.01 93.59 265.73 122.3"/></svg>