<svg id="Layer_1" data-name="Layer 1" xmlns="http://www.w3.org/2000/svg" viewBox="0 0 420 208"><defs><style>.cls-1{fill:#f3d632;}.cls-2{fill:#f2f2f2;}.cls-3{fill:#333;}.cls-4{fill:#f1e6a0;}.cls-5{fill:#1a1a1a;}.cls-6{fill:#adadad;}.cls-7{fill:#fff;}</style></defs><title>icons</title><path class="cls-1" d="M354.52,98.28H123.67L139.21,27.6a16.13,16.13,0,0,1,4.49-6.69,20.43,20.43,0,0,1,11.15-4.83H323.31a20,20,0,0,1,11.15,4.83,15.67,15.67,0,0,1,4.27,6.47Z"/><path class="cls-2" d="M135,94.37l13.28-62.55c.46-1.16,1.18-1.18,2.11-2,1.74-1.57,3.85-1.39,5.19-1.39H322.62c1.21,0,4.21-.17,5.61.84,1,1,1.13,2.55,1.46,3.36l13.51,61.75Z"/><rect class="cls-1" x="34.97" y="86.31" width="350.19" height="87.3" rx="19.35" ry="19.35"/><rect class="cls-1" x="239.1" y="18.61" width="8.08" height="80.51"/><polygon class="cls-2" points="258.73 16.09 227.53 16.09 233.38 0 252.9 0 258.73 16.09"/><rect class="cls-3" x="210.07" y="99.82" width="24.46" height="10.14" rx="1.22" ry="1.22"/><path class="cls-4" d="M56.61,105.89H35V130H56.61c5.48,0,10-4.64,10-11.54S62.1,105.89,56.61,105.89Z"/><path class="cls-4" d="M369.78,130h15.38V104.89H369.78c-3.87,0-7,5.64-7,12.54S365.9,130,369.78,130Z"/><path class="cls-3" d="M135.41,173.79a42.12,42.12,0,0,0-84,0Z"/><path class="cls-3" d="M368.71,173.79a42.12,42.12,0,0,0-84,0Z"/><circle class="cls-5" cx="93.42" cy="177.24" r="30.76"/><circle class="cls-6" cx="93.42" cy="177.24" r="18.66"/><circle class="cls-5" cx="326.72" cy="177.24" r="30.76"/><circle class="cls-6" cx="326.72" cy="177.24" r="18.66"/><path class="cls-7" d="M266.63,108h-6.85V104.7h17.57V108h-6.85v18.51h-3.86Z"/><path class="cls-7" d="M293.7,120.58h-7.26l-1.7,5.89h-3.92l7.06-21.77h4.53l7.05,21.77h-4.09Zm-.87-3-.76-2.67-1-3.56c-.33-1.22-.65-2.43-1-3.63H290q-.47,1.83-1,3.64t-1,3.54l-.77,2.67Z"/><path class="cls-7" d="M312.06,115.25l-6-10.55h4.29l2.56,4.83c.26.51.53,1,.8,1.56l.9,1.76h.13l.8-1.76c.24-.53.49-1.05.73-1.56l2.46-4.83h4.1l-6,10.72,6.39,11.05H319l-2.83-5.13q-.46-.87-.9-1.71l-.93-1.85h-.13l-.87,1.85c-.26.56-.54,1.13-.83,1.71l-2.73,5.13h-4.1Z"/><path class="cls-7" d="M330.57,123.21h5.26V108h-5.26V104.7h14.38V108h-5.26v15.24h5.26v3.26H330.57Z"/></svg>