<?xml version="1.0" encoding="utf-8"?>
<!-- Generator: Adobe Illustrator 20.1.0, SVG Export Plug-In . SVG Version: 6.00 Build 0)  -->
<!DOCTYPE svg PUBLIC "-//W3C//DTD SVG 1.1//EN" "http://www.w3.org/Graphics/SVG/1.1/DTD/svg11.dtd">
<svg version="1.1" id="Layer_1" xmlns="http://www.w3.org/2000/svg" xmlns:xlink="http://www.w3.org/1999/xlink" x="0px" y="0px"
	 viewBox="0 0 221.1 139.9" style="enable-background:new 0 0 221.1 139.9;" xml:space="preserve">
<style type="text/css">
	.st0{fill:#FFD800;}
	.st1{fill:#5697FB;}
	.st2{fill:#C4E1FD;}
</style>
<title>icons</title>
<ellipse transform="matrix(0.1755 -0.9845 0.9845 0.1755 -10.5611 113.4693)" class="st0" cx="62.5" cy="63" rx="42" ry="42"/>
<path class="st0" d="M73.7,0L73.7,0c1.1,0.2,1.8,1.2,1.6,2.3l-2.8,15.8c-0.2,1.1-1.2,1.8-2.3,1.6l0,0c-1.1-0.2-1.8-1.2-1.6-2.3
	l2.8-15.8C71.6,0.6,72.6-0.2,73.7,0z"/>
<path class="st0" d="M19.2,55.3L19.2,55.3c-0.2,1.1-1.2,1.8-2.3,1.6L1.1,54.1c-1.1-0.2-1.8-1.2-1.6-2.3l0,0c0.2-1.1,1.2-1.8,2.3-1.6
	L17.5,53C18.6,53.2,19.4,54.2,19.2,55.3z"/>
<path class="st0" d="M25.4,39.2L25.4,39.2c-0.6,0.9-1.8,1.2-2.8,0.6L9.2,31.2c-0.9-0.6-1.2-1.8-0.6-2.8l0,0c0.6-0.9,1.8-1.2,2.8-0.6
	l13.5,8.6C25.7,37.1,26,38.3,25.4,39.2z"/>
<path class="st0" d="M53.3,19.7L53.3,19.7c-1.1,0.2-2.1-0.4-2.4-1.5L47.5,2.6c-0.2-1.1,0.4-2.1,1.5-2.4l0,0c1.1-0.2,2.1,0.4,2.4,1.5
	l3.5,15.6C55.1,18.4,54.4,19.5,53.3,19.7z"/>
<path class="st0" d="M86.9,25.6L86.9,25.6c-0.9-0.6-1.2-1.8-0.6-2.8l8.6-13.5c0.6-0.9,1.8-1.2,2.8-0.6l0,0c0.9,0.6,1.2,1.8,0.6,2.8
	L89.6,25C89,25.9,87.8,26.2,86.9,25.6z"/>
<path class="st0" d="M0,77.1L0,77.1c-0.2-1.1,0.4-2.1,1.5-2.4l15.6-3.5c1.1-0.2,2.1,0.4,2.4,1.5l0,0c0.2,1.1-0.4,2.1-1.5,2.4
	L2.4,78.6C1.3,78.9,0.2,78.2,0,77.1z"/>
<path class="st0" d="M106.4,53.5L106.4,53.5c-0.2-1.1,0.4-2.1,1.5-2.4l15.6-3.5c1.1-0.2,2.1,0.4,2.4,1.5l0,0
	c0.2,1.1-0.4,2.1-1.5,2.4L108.8,55C107.7,55.3,106.6,54.6,106.4,53.5z"/>
<path class="st0" d="M37.5,26.6L37.5,26.6c-0.9,0.6-2.2,0.4-2.8-0.5L25.6,13c-0.6-0.9-0.4-2.2,0.5-2.8l0,0c0.9-0.6,2.2-0.4,2.8,0.5
	L38,23.9C38.6,24.8,38.4,26,37.5,26.6z"/>
<path class="st0" d="M10,100L10,100c-0.6-0.9-0.4-2.2,0.5-2.8l13.1-9.2c0.9-0.6,2.2-0.4,2.8,0.5l0,0c0.6,0.9,0.4,2.2-0.5,2.8
	l-13.1,9.2C11.9,101.2,10.7,100.9,10,100z"/>
<path class="st0" d="M99.5,37.7L99.5,37.7c-0.6-0.9-0.4-2.2,0.5-2.8l13.1-9.2c0.9-0.6,2.2-0.4,2.8,0.5l0,0c0.6,0.9,0.4,2.2-0.5,2.8
	l-13.1,9.2C101.3,38.8,100.1,38.6,99.5,37.7z"/>
<path class="st1" d="M214.4,108.2c0,10.9-6.8,20.9-16.4,24.6c-2,1.1-4.2,2.4-6.6,2.4H44.6c-0.5,0-1.1-0.8-1.6-0.9
	c-3.4-0.3-6.7-1.2-9.7-2.8c-0.1,0-0.1,0-0.1,0c-1.7-0.9-3.4-2-4.9-3.3l-3.4-3.4l-0.2-0.2c-4.2-5-6.6-11.4-6.6-18
	c0-14.9,12.1-27,27-27c4.4,0,8.7,1.1,12.5,3.1c5.4-12.1,17-20.3,30.3-21.3c0.9-0.1,1.8-0.1,2.7-0.1c8.3,0,16.3,2.8,22.7,8
	C120.7,61,131.5,56,142.8,56c9,0,17.8,3.1,24.7,8.9c6,5,10.4,11.7,12.6,19.2c1.5-0.5,3-1,4.6-1.2c1.3-0.3,2.7-0.4,4.1-0.4
	c5.1,0,10.1,1.5,14.4,4.4c0.1,0.1,0.1,0.1,0.2,0.2c1,0.7,1.9,1.4,2.8,2.3c1.4,1.3,2.6,2.7,3.7,4.2c0,0.1,0.1,0.2,0.2,0.2
	C212.9,98.1,214.4,103.1,214.4,108.2z"/>
<path class="st2" d="M221.2,112.8c0,10.9-8,19.1-16.4,24.4c-1.9,1.1-4.2,2.7-6.6,2.7h-147c-0.9,0-1.9-0.1-2.8-0.2
	c-4.9-1.1-7.2-0.8-13.2-5.8l-2-2c-2.6-2.7-4.7-5.9-6.2-9.4c-1.5-3.5-2.2-7.3-2.1-11.2c0.8-19.1,16.2-27.4,27-27
	c3.8,0,7.5,0.8,10.9,2.4c0.5,0.2,1.1,0.5,1.6,0.8c0.8-1.8,1.8-3.5,2.9-5.2c2.7-4.1,6.3-7.6,10.4-10.3c13.1-8.6,30.3-7.7,42.5,2.2
	c14-16.2,38.5-18,54.7-4c4.2,3.6,7.5,8,9.8,13c0.9,1.8,1.6,3.8,2.2,5.7c2.8-1,5.8-1.5,8.7-1.5c3.3,0,6.6,0.7,9.6,1.9
	c0.3,0.1,0.6,0.2,0.9,0.4C215.3,93.7,221.1,102.8,221.2,112.8L221.2,112.8z"/>
</svg>
