<svg id="Layer_1" data-name="Layer 1" xmlns="http://www.w3.org/2000/svg" viewBox="0 0 460 460"><defs><style>.cls-1{fill:#e54d4d;}.cls-2{fill:#f4b3b3;}.cls-3{fill:#6ea6fc;}.cls-4{fill:#dd1514;}.cls-5{fill:#e86463;}.cls-6{fill:#213b5c;}.cls-7{fill:#4d627d;}.cls-8{fill:#da0100;}.cls-9{fill:#405673;}.cls-10{fill:#5697fb;}.cls-11{fill:#f19c9c;}</style></defs><title>london</title><rect class="cls-1" x="138.49" y="50.95" width="2.31" height="169.61"/><path class="cls-2" d="M261.83,138.85a28.54,28.54,0,0,0-8-5.62c-3.67-2.92-9.73-9.56-9.73-21.64h-5c0,14-8.12,20.69-11.26,22.75q-.53.31-1.05.64l-.16.09h0a28.27,28.27,0,0,0-13,23.71v12.8l8-2.61h48.48V158.78A28.06,28.06,0,0,0,261.83,138.85Z"/><path class="cls-3" d="M140.52,50.95s35.9,15,38.31,18.82c-3.39,5.3-5.15,7.69-9.94,11.22-1.37-3.54-1-6.56-4-6.93s-7.24.88-10.81.25-5.27-1.76-13.24-.82Z"/><polygon class="cls-4" points="82.92 142.5 67.04 146.01 67.04 419.47 82.92 419.47 82.92 142.5"/><rect class="cls-4" x="121.82" y="210.1" width="231.06" height="209.28"/><rect class="cls-4" x="82.92" y="142.42" width="38.9" height="276.96"/><rect class="cls-5" x="118.47" y="142.42" width="3.36" height="276.96"/><rect class="cls-5" x="82.85" y="142.5" width="3.36" height="276.96"/><polygon class="cls-5" points="82.92 419.47 76.86 417.34 76.86 143.84 82.92 142.5 82.92 419.47"/><rect class="cls-4" x="352.89" y="138.24" width="38.91" height="281.15"/><rect class="cls-4" x="121.82" y="193.59" width="9.59" height="16.51"/><rect class="cls-4" x="136.37" y="193.59" width="21.17" height="16.51"/><rect class="cls-4" x="163.03" y="193.59" width="21.17" height="16.51"/><rect class="cls-6" x="211.51" y="166" width="61.84" height="44.1"/><rect class="cls-4" x="187.27" y="193.59" width="21.17" height="16.51"/><rect class="cls-4" x="211.51" y="193.59" width="21.17" height="16.51"/><rect class="cls-4" x="235.75" y="193.59" width="21.17" height="16.51"/><rect class="cls-4" x="259.99" y="193.59" width="21.17" height="16.51"/><rect class="cls-4" x="284.23" y="193.59" width="21.17" height="16.51"/><rect class="cls-4" x="308.47" y="193.59" width="21.17" height="16.51"/><rect class="cls-5" x="166.51" y="238.62" width="12.22" height="67.37"/><rect class="cls-5" x="168.28" y="222.51" width="8.67" height="16.11"/><rect class="cls-5" x="226.46" y="222.51" width="8.67" height="16.11"/><rect class="cls-5" x="284.64" y="222.51" width="8.67" height="16.11"/><rect class="cls-5" x="340.39" y="222.51" width="8.67" height="16.11"/><rect class="cls-7" x="121.82" y="222.51" width="46.46" height="4"/><rect class="cls-7" x="178.73" y="240.63" width="46.46" height="4"/><rect class="cls-7" x="236.76" y="240.63" width="46.46" height="4"/><rect class="cls-7" x="293.31" y="242.63" width="46.46" height="4"/><rect class="cls-7" x="342.47" y="244.62" width="46.46" height="4"/><rect class="cls-7" x="121.82" y="276.99" width="46.46" height="4"/><rect class="cls-7" x="178.73" y="276.99" width="46.46" height="4"/><rect class="cls-5" x="224.69" y="238.62" width="12.22" height="67.37"/><rect class="cls-5" x="338.61" y="238.62" width="12.22" height="67.37"/><rect class="cls-5" x="388.86" y="222.51" width="2.93" height="16.1"/><rect class="cls-5" x="387.09" y="238.61" width="4.7" height="67.39"/><rect class="cls-5" x="282.86" y="238.62" width="12.22" height="67.37"/><polygon class="cls-4" points="352.89 138.24 332.07 142.43 332.07 210.1 352.88 210.1 352.89 138.24"/><polygon class="cls-5" points="334.81 141.88 332.07 142.43 332.07 210.1 334.67 210.14 334.81 141.88"/><rect class="cls-5" x="384.71" y="138.24" width="7.08" height="71.86"/><polygon class="cls-5" points="352.89 200.2 345.81 200.2 345.81 139.72 349.35 138.95 352.89 138.24 352.89 200.2"/><rect class="cls-5" x="359.12" y="140.58" width="12.44" height="13.57"/><path class="cls-6" d="M367.95,147v6.54h-5.23V147a2.62,2.62,0,0,1,5.23,0Z"/><rect class="cls-5" x="359.9" y="203.63" width="12.44" height="15.99"/><path class="cls-6" d="M369.69,208.94v8.91h-7.14v-8.91a3.57,3.57,0,0,1,7.14,0Z"/><rect class="cls-8" x="97.98" y="278.99" width="9.79" height="16.9"/><path class="cls-6" d="M105.68,284.6V294h-5.62V284.6c0-2.06,1.27-3.76,2.82-3.76S105.68,282.55,105.68,284.6Z"/><path class="cls-5" d="M377.71,288.7V272.13c0-4.7-4.6-8.59-8-8.59s-7.94,3.89-7.94,8.59V288.7Z"/><path class="cls-6" d="M372.37,272.27v12.95h-7.14V272.27c0-2.83,1.61-5.16,3.58-5.16S372.37,269.44,372.37,272.27Z"/><path class="cls-5" d="M322,286.28V269.71c0-4.7-4.6-8.59-8-8.59s-7.94,3.89-7.94,8.59v16.57Z"/><path class="cls-6" d="M316.62,269.85v12.95h-7.14V269.85c0-2.83,1.61-5.16,3.58-5.16S316.62,267,316.62,269.85Z"/><path class="cls-5" d="M266.21,286.28V269.71c0-4.7-4.6-8.59-8-8.59s-7.94,3.89-7.94,8.59v16.57Z"/><path class="cls-6" d="M260.87,269.85v12.95h-7.14V269.85c0-2.83,1.61-5.16,3.58-5.16S260.87,267,260.87,269.85Z"/><path class="cls-5" d="M266.21,329.91V313.34c0-4.7-4.6-8.59-8-8.59s-7.94,3.89-7.94,8.59v16.57Z"/><path class="cls-6" d="M261.93,315.32v12.95h-8.19V315.32c0-2.83,1.85-5.16,4.11-5.16S261.93,312.49,261.93,315.32Z"/><path class="cls-5" d="M322,332.34V315.76c0-4.7-4.6-8.59-8-8.59s-7.94,3.89-7.94,8.59v16.57Z"/><path class="cls-6" d="M317.68,317.75v12.95h-8.19V317.75c0-2.83,1.85-5.16,4.11-5.16S317.68,314.92,317.68,317.75Z"/><path class="cls-5" d="M181.7,349.91V316.49a18.18,18.18,0,0,1,36.36,0v33.43h2.42V316.49a20.6,20.6,0,1,0-41.21,0v33.42Z"/><path class="cls-5" d="M298.06,349.91V316.49a18.18,18.18,0,0,1,36.36,0v33.43h2.42V316.49a20.6,20.6,0,0,0-41.21,0v33.42Z"/><path class="cls-5" d="M354.22,352.34V318.91c0-10,7-18.18,15.71-18.18s15.71,8.15,15.71,18.18v33.43h2.09V318.91c0-11.33-8-20.6-17.81-20.6s-17.81,9.27-17.81,20.6v33.42Z"/><path class="cls-5" d="M239.88,349.91V316.49a18.18,18.18,0,0,1,36.36,0v33.43h2.42V316.49a20.6,20.6,0,1,0-41.21,0v33.42Z"/><path class="cls-5" d="M377.71,332.34V315.76c0-4.7-4.6-8.59-8-8.59s-7.94,3.89-7.94,8.59v16.57Z"/><path class="cls-6" d="M373.43,317.75v12.95h-8.19V317.75c0-2.83,1.85-5.16,4.11-5.16S373.43,314.92,373.43,317.75Z"/><path class="cls-5" d="M377.71,395.36V378.79c0-4.7-4.6-8.59-8-8.59s-7.94,3.89-7.94,8.59v16.57Z"/><path class="cls-6" d="M373.43,380.77v12.95h-8.19V380.77c0-2.83,1.85-5.16,4.11-5.16S373.43,377.94,373.43,380.77Z"/><path class="cls-5" d="M324.38,392.94V376.36c0-4.7-4.6-8.59-8-8.59s-7.94,3.89-7.94,8.59v16.57Z"/><path class="cls-6" d="M320.1,378.35v12.95h-8.19V378.35c0-2.83,1.85-5.16,4.11-5.16S320.1,375.52,320.1,378.35Z"/><path class="cls-5" d="M266.21,392.94V376.36c0-4.7-4.6-8.59-8-8.59s-7.94,3.89-7.94,8.59v16.57Z"/><path class="cls-6" d="M261.93,378.35v12.95h-8.19V378.35c0-2.83,1.85-5.16,4.11-5.16S261.93,375.52,261.93,378.35Z"/><polygon class="cls-5" points="336.77 143.44 341.97 142.43 341.97 154.62 336.77 155.55 336.77 143.44"/><path class="cls-5" d="M209.79,393.61v-24.4a9.4,9.4,0,0,0-18.81,0v24.4Z"/><path class="cls-6" d="M206,390.05V368.78a6.1,6.1,0,0,0-12.2,0v21.27Z"/><path class="cls-5" d="M207.53,329.48V309.74a7.61,7.61,0,1,0-15.22,0v19.75Z"/><path class="cls-6" d="M204.44,326.6V310.89a5,5,0,0,0-9.87,0V326.6Z"/><path class="cls-5" d="M149.35,329.48V309.74a7.61,7.61,0,1,0-15.22,0v19.75Z"/><path class="cls-6" d="M146.26,326.6V310.89a5,5,0,0,0-9.87,0V326.6Z"/><path class="cls-5" d="M156.66,415.42V369.68a14.23,14.23,0,1,0-28.47,0v45.75Z"/><path class="cls-6" d="M152.75,412.16v-42a10.32,10.32,0,0,0-20.65,0v42Z"/><rect class="cls-9" x="126.39" y="371.64" width="6.52" height="4.04"/><path class="cls-5" d="M124.25,347.49V314.06a18.18,18.18,0,0,1,36.36,0v33.43H163V314.07a20.6,20.6,0,0,0-41.21,0v33.42Z"/><rect class="cls-7" x="178.58" y="347.28" width="46.46" height="4"/><rect class="cls-7" x="121.82" y="347.28" width="47.47" height="4"/><rect class="cls-7" x="293.31" y="347.28" width="46.46" height="4"/><rect class="cls-7" x="342.47" y="347.28" width="46.46" height="4"/><rect class="cls-7" x="236.76" y="347.28" width="46.46" height="4"/><rect class="cls-9" x="139.16" y="355.76" width="6.52" height="4.04" transform="translate(500.21 215.36) rotate(90)"/><rect class="cls-9" x="151.49" y="371.64" width="6.52" height="4.04"/><rect class="cls-5" x="163.03" y="305.99" width="19.18" height="113.39"/><rect class="cls-5" x="221.21" y="305.99" width="19.18" height="113.39"/><rect class="cls-5" x="279.38" y="305.99" width="19.18" height="113.39"/><rect class="cls-5" x="335.13" y="305.99" width="19.18" height="113.39"/><rect class="cls-5" x="383.62" y="306" width="8.17" height="113.39"/><path class="cls-2" d="M378.87,131.69v6.54h-26l-8,1.6h-4.8l-6.42,2.08V131.69a22.54,22.54,0,0,1,10.37-18.93l.12-.07.82-.51c2.52-1.65,9-7,9-18.18h4c0,9.65,4.85,15,7.78,17.28a22.59,22.59,0,0,1,13.07,20.41Z"/><path class="cls-10" d="M361.17,87.09c0-2.29-2.33-4.14-5.19-4.14s-5.19,1.86-5.19,4.14a4.24,4.24,0,0,0,3.14,3.8V94H358V90.9A4.24,4.24,0,0,0,361.17,87.09Z"/><rect class="cls-10" x="355.18" y="62.3" width="1.59" height="18.41"/><rect class="cls-11" x="355.18" y="51.11" width="1.59" height="11.18"/><rect class="cls-10" x="355.54" y="62.18" width="0.86" height="13.82" transform="translate(425.06 -286.89) rotate(90)"/><path class="cls-1" d="M359.85,84.36h0l-.11-.09-.21-.17c-3.14-2.45-2.77-3.39-2.77-3.39h-1.59s.37.94-2.77,3.39l-.21.17-.11.09h0a3.69,3.69,0,0,0-1.32,2.74,3.21,3.21,0,0,0,.06.32h10.27a3.21,3.21,0,0,0,.06-.32A3.69,3.69,0,0,0,359.85,84.36Z"/><rect class="cls-1" x="356.77" y="53.24" width="8.27" height="9.06"/><rect class="cls-1" x="346.24" y="57.01" width="8.94" height="1.13"/><rect class="cls-1" x="347.52" y="55.58" width="1.28" height="3.89"/><rect class="cls-1" x="346.24" y="67.19" width="2.82" height="3.68"/><rect class="cls-1" x="362.89" y="67.19" width="2.82" height="3.68"/><rect class="cls-1" x="352.96" y="46.22" width="6.04" height="4.9" rx="1.01" ry="1.01"/><path class="cls-2" d="M112.28,115.28a24.5,24.5,0,0,0-6.9-4.82C102.23,108,97,102.25,97,91.88h-4.3c0,12-7,17.77-9.67,19.54l-.9.55L82,112h0A24.27,24.27,0,0,0,70.89,132.4v11l6.9-2.24h41.63V132.4A24.1,24.1,0,0,0,112.28,115.28Z"/><path class="cls-10" d="M100.4,84.47C100.4,82,97.9,80,94.81,80s-5.58,2-5.58,4.45a4.55,4.55,0,0,0,3.37,4.09v3.32H97V88.55A4.55,4.55,0,0,0,100.4,84.47Z"/><rect class="cls-10" x="93.96" y="57.82" width="1.71" height="19.78"/><rect class="cls-11" x="93.96" y="45.8" width="1.71" height="12.02"/><rect class="cls-10" x="94.35" y="57.69" width="0.93" height="14.85" transform="translate(159.93 -29.7) rotate(90)"/><path class="cls-1" d="M99,81.52h0l-.12-.1-.22-.18c-3.37-2.63-3-3.64-3-3.64H94s.4,1-3,3.64l-.22.18-.12.1h0a4,4,0,0,0-1.42,2.94,3.45,3.45,0,0,0,.06.34h11a3.45,3.45,0,0,0,.06-.34A4,4,0,0,0,99,81.52Z"/><rect class="cls-1" x="95.67" y="48.08" width="8.88" height="9.74"/><rect class="cls-1" x="84.35" y="52.13" width="9.61" height="1.21"/><rect class="cls-1" x="85.73" y="50.59" width="1.37" height="4.18"/><rect class="cls-1" x="84.35" y="63.07" width="3.03" height="3.96"/><rect class="cls-1" x="102.24" y="63.07" width="3.03" height="3.96"/><rect class="cls-1" x="91.57" y="40.53" width="6.49" height="5.26" rx="1.01" ry="1.01"/><polygon class="cls-2" points="63.07 139.65 72.25 133.72 119.42 132.4 127.04 136.4 94.81 138.94 64.47 141.9 63.07 139.65"/><polygon class="cls-6" points="67.04 146.01 63.07 139.65 76.86 135.41 127.04 136.4 121.82 142.42 82.92 142.5 67.04 146.01"/><polygon class="cls-2" points="328.2 135.76 336.12 128.89 378.2 126.25 396.92 132.26 358.57 134.21 328.2 135.76"/><polygon class="cls-6" points="396.93 132.27 391.79 138.23 352.89 138.23 344.94 139.83 332.06 142.43 328.21 135.76 333.71 134.52 343.77 132.27 396.93 132.27"/><path class="cls-10" d="M248,103c0-2.86-2.91-5.19-6.5-5.19S235,100.1,235,103c0,2.13,1.62,4,3.92,4.76v3.87h5.15v-3.87C246.37,106.93,248,105.1,248,103Z"/><rect class="cls-10" x="240.49" y="74.36" width="1.99" height="23.04"/><rect class="cls-11" x="240.49" y="65.21" width="1.99" height="14"/><rect class="cls-10" x="240.95" y="79.05" width="1.08" height="17.3" transform="translate(329.19 -153.79) rotate(90)"/><path class="cls-1" d="M246.34,99.54h0l-.14-.11-.26-.21C242,96.14,242.49,95,242.49,95h-2s.47,1.17-3.46,4.24l-.26.21-.14.11h0A4.62,4.62,0,0,0,235,103a4,4,0,0,0,.07.4h12.85a4,4,0,0,0,.07-.4A4.62,4.62,0,0,0,246.34,99.54Z"/><rect class="cls-1" x="242.49" y="67.86" width="10.35" height="11.34"/><rect class="cls-1" x="229.31" y="72.59" width="11.19" height="1.41"/><rect class="cls-1" x="230.91" y="70.79" width="1.6" height="4.87"/><rect class="cls-1" x="229.31" y="85.33" width="3.53" height="4.61"/><rect class="cls-1" x="250.14" y="85.33" width="3.53" height="4.61"/><rect class="cls-1" x="237.71" y="60.57" width="7.55" height="6.13" rx="1.26" ry="1.26"/><rect class="cls-1" x="137.2" y="47.79" width="4.9" height="3.16" rx="0.65" ry="0.65"/><rect class="cls-1" x="139.15" y="44.24" width="0.98" height="4.57"/><path class="cls-6" d="M210.68,157.35s7.63-3.12,31.81-3.12,29.37,1.73,30.86,2.33-2.37,3.09-2.37,3.09v2.83s-7.78-3.17-28.55-3.17S212.91,162,212.91,162v-2.4S209.77,158.2,210.68,157.35Z"/></svg>