<svg id="Layer_1" data-name="Layer 1" xmlns="http://www.w3.org/2000/svg" viewBox="0 0 460 460"><defs><style>.cls-1{fill:#da0100;}.cls-2{fill:#213b5c;}.cls-3,.cls-4{fill:none;stroke:#da0100;stroke-miterlimit:10;}.cls-4{stroke-width:0.5px;}.cls-5{fill:#5697fb;}.cls-6{fill:#405673;}</style></defs><title>london</title><path class="cls-1" d="M143.81,309.79V351c0-15.13,40.23-27.39,86.21-27.39s86.21,12.26,86.21,27.39V309.79Z"/><rect class="cls-1" x="127.93" y="190.63" width="204.18" height="19.39"/><polygon class="cls-2" points="101.47 108.99 117.55 181.38 85.4 181.38 101.47 108.99"/><rect class="cls-1" x="75.01" y="157.64" width="14.23" height="20.11"/><rect class="cls-1" x="80.21" y="171.07" width="42.53" height="6.67"/><rect class="cls-1" x="113.7" y="157.64" width="14.23" height="20.11"/><polygon class="cls-2" points="82.13 125.58 89.25 157.64 75.02 157.64 82.13 125.58"/><polygon class="cls-2" points="120.82 125.58 127.93 157.64 113.7 157.64 120.82 125.58"/><path class="cls-1" d="M94.27,172.1v-8.63c.95-2.23,2.22-5.38,3.52-9.23,2.51-7.42,3.08-11.32,3.62-11.27s1,5.7,0,29.13Z"/><path class="cls-1" d="M108.68,172.1v-8.63c-.95-2.23-2.22-5.38-3.52-9.23-2.52-7.43-3.06-11.32-3.62-11.27s-1.13,5.68-.34,29.13Z"/><polygon class="cls-2" points="358.57 108.99 374.65 181.38 342.5 181.38 358.57 108.99"/><rect class="cls-1" x="332.11" y="157.64" width="14.23" height="20.11"/><rect class="cls-1" x="337.31" y="171.07" width="42.53" height="6.67"/><rect class="cls-1" x="370.8" y="157.64" width="14.23" height="20.11"/><polygon class="cls-2" points="339.23 125.58 346.35 157.64 332.12 157.64 339.23 125.58"/><polygon class="cls-2" points="377.92 125.58 385.03 157.64 370.8 157.64 377.92 125.58"/><path class="cls-1" d="M351.37,172.1v-8.63c.95-2.23,2.22-5.38,3.52-9.23,2.51-7.42,3.08-11.32,3.62-11.27s1,5.7,0,29.13Z"/><path class="cls-1" d="M365.78,172.1v-8.63c-.95-2.23-2.22-5.38-3.52-9.23-2.52-7.43-3.06-11.32-3.62-11.27s-1.13,5.68-.34,29.13Z"/><path class="cls-3" d="M-1.29,269.17C29,253,55,230,78.37,203.7"/><path class="cls-3" d="M-1.49,329.79c22.49.21,43.49.21,65.85,0"/><line class="cls-4" x1="3.5" y1="267" x2="3.33" y2="330"/><line class="cls-4" x1="24.75" y1="253" x2="24.75" y2="330"/><line class="cls-4" x1="46.18" y1="236.11" x2="46.18" y2="330"/><line class="cls-4" x1="67.6" y1="215.75" x2="67.6" y2="328.15"/><rect class="cls-5" x="75.01" y="177.75" width="52.92" height="132.04"/><path class="cls-3" d="M462.46,268.8a287.83,287.83,0,0,1-43.22-29,285.37,285.37,0,0,1-28-25.94q-4.71-5-9.16-10.22"/><path class="cls-3" d="M462.43,330.57c-22.43.43-44.43.43-66.36,0"/><line class="cls-4" x1="457.02" y1="266" x2="457.02" y2="331"/><line class="cls-4" x1="435.5" y1="252" x2="435.5" y2="331"/><line class="cls-4" x1="413.99" y1="235.03" x2="413.99" y2="331"/><line class="cls-4" x1="392.48" y1="215" x2="392.48" y2="327.03"/><rect class="cls-2" x="59.13" y="309.79" width="84.68" height="41.22"/><rect class="cls-5" x="332.11" y="177.75" width="52.92" height="132.04"/><rect class="cls-2" x="316.24" y="309.79" width="84.68" height="41.22"/><rect class="cls-6" x="75.01" y="203.7" width="52.92" height="6.32"/><rect class="cls-6" x="75.01" y="231.04" width="52.92" height="1.89"/><rect class="cls-6" x="75.01" y="237.78" width="52.92" height="1.89"/><rect class="cls-6" x="75.01" y="262.14" width="52.92" height="1.89"/><rect class="cls-6" x="75.01" y="268.89" width="52.92" height="1.89"/><rect class="cls-6" x="75.01" y="298.12" width="52.92" height="11.67"/><rect class="cls-6" x="332.11" y="203.7" width="52.92" height="6.32"/><rect class="cls-6" x="332.11" y="231.04" width="52.92" height="1.89"/><rect class="cls-6" x="332.11" y="237.78" width="52.92" height="1.89"/><rect class="cls-6" x="332.11" y="262.14" width="52.92" height="1.89"/><rect class="cls-6" x="332.11" y="268.89" width="52.92" height="1.89"/><rect class="cls-6" x="332.11" y="298.12" width="52.92" height="11.67"/></svg>