<svg xmlns="http://www.w3.org/2000/svg" xmlns:xlink="http://www.w3.org/1999/xlink" viewBox="0 0 65 472"><defs><style>.cls-1{isolation:isolate;}.cls-2{fill:#f48bbe;}.cls-3{fill:#1a1a1a;}.cls-4{fill:#fffefd;}.cls-5,.cls-6{mix-blend-mode:multiply;}.cls-5{fill:url(#linear-gradient);}.cls-6{fill:url(#linear-gradient-2);}.cls-7{fill:#4d4d4d;}</style><linearGradient id="linear-gradient" x1="31.45" y1="239.48" x2="31.45" y2="233.48" gradientUnits="userSpaceOnUse"><stop offset="0" stop-color="#fff"/><stop offset="1" stop-color="#fffafc" stop-opacity="0.4"/></linearGradient><linearGradient id="linear-gradient-2" x1="31.32" y1="155.48" x2="31.32" y2="149.48" xlink:href="#linear-gradient"/></defs><title>Untitled-1</title><g class="cls-1"><g id="Layer_1" data-name="Layer 1"><rect class="cls-2" x="27.22" y="74.25" width="6.03" height="4.34"/><rect class="cls-3" x="27.35" y="85.09" width="5.79" height="2.22"/><rect class="cls-3" x="28.56" y="111.07" width="0.86" height="24.33"/><rect class="cls-3" x="32.24" y="111.07" width="0.72" height="24.33"/><polygon class="cls-3" points="32.24 114.32 28.84 111.86 29.2 111.39 32.6 113.85 32.24 114.32"/><rect class="cls-3" x="28.6" y="114.03" width="4.24" height="0.59" transform="matrix(1, -0.01, 0.01, 1, -1.25, 0.34)"/><polygon class="cls-3" points="32.24 116.93 28.84 114.47 29.2 114 32.6 116.46 32.24 116.93"/><rect class="cls-3" x="28.6" y="116.64" width="4.24" height="0.59" transform="translate(-1.28 0.34) rotate(-0.63)"/><polygon class="cls-3" points="32.24 119.54 28.84 117.09 29.2 116.61 32.6 119.07 32.24 119.54"/><rect class="cls-3" x="28.6" y="119.25" width="4.24" height="0.59" transform="translate(-1.31 0.34) rotate(-0.63)"/><polygon class="cls-3" points="32.24 122.16 28.84 119.7 29.2 119.23 32.6 121.68 32.24 122.16"/><rect class="cls-3" x="28.6" y="121.86" width="4.24" height="0.59" transform="translate(-1.33 0.34) rotate(-0.63)"/><polygon class="cls-3" points="32.24 124.77 28.84 122.31 29.2 121.84 32.6 124.3 32.24 124.77"/><rect class="cls-3" x="28.6" y="124.47" width="4.24" height="0.59" transform="translate(-1.36 0.34) rotate(-0.63)"/><polygon class="cls-3" points="32.24 127.38 28.84 124.92 29.2 124.45 32.6 126.91 32.24 127.38"/><rect class="cls-3" x="28.6" y="127.09" width="4.24" height="0.59" transform="matrix(1, -0.01, 0.01, 1, -1.39, 0.34)"/><polygon class="cls-3" points="32.24 129.99 28.84 127.53 29.2 127.06 32.6 129.52 32.24 129.99"/><rect class="cls-3" x="28.6" y="129.7" width="4.24" height="0.59" transform="translate(-1.42 0.34) rotate(-0.63)"/><polygon class="cls-3" points="32.24 132.6 28.84 130.15 29.2 129.68 32.6 132.13 32.24 132.6"/><rect class="cls-3" x="28.6" y="132.31" width="4.24" height="0.59" transform="translate(-1.45 0.34) rotate(-0.63)"/><polygon class="cls-3" points="32.24 135.22 28.84 132.76 29.2 132.29 32.6 134.74 32.24 135.22"/><rect class="cls-3" x="28.6" y="134.92" width="4.24" height="0.59" transform="translate(-1.48 0.34) rotate(-0.63)"/><rect class="cls-3" x="28.6" y="111.1" width="4.24" height="0.59" transform="translate(-1.22 0.34) rotate(-0.63)"/><rect class="cls-3" x="34.54" y="111.2" width="0.86" height="24.33"/><rect class="cls-3" x="38.21" y="111.2" width="0.72" height="24.33"/><polygon class="cls-3" points="38.21 114.45 34.81 111.99 35.17 111.52 38.58 113.98 38.21 114.45"/><rect class="cls-3" x="34.58" y="114.16" width="4.24" height="0.59" transform="matrix(1, -0.01, 0.01, 1, -1.25, 0.41)"/><polygon class="cls-3" points="38.21 117.06 34.81 114.61 35.17 114.13 38.58 116.59 38.21 117.06"/><rect class="cls-3" x="34.58" y="116.77" width="4.24" height="0.59" transform="translate(-1.28 0.41) rotate(-0.63)"/><polygon class="cls-3" points="38.21 119.67 34.81 117.22 35.17 116.75 38.58 119.2 38.21 119.67"/><rect class="cls-3" x="34.58" y="119.38" width="4.24" height="0.59" transform="translate(-1.31 0.41) rotate(-0.63)"/><polygon class="cls-3" points="38.21 122.29 34.81 119.83 35.17 119.36 38.58 121.81 38.21 122.29"/><rect class="cls-3" x="34.58" y="121.99" width="4.24" height="0.59" transform="translate(-1.34 0.41) rotate(-0.63)"/><polygon class="cls-3" points="38.21 124.9 34.81 122.44 35.17 121.97 38.58 124.43 38.21 124.9"/><rect class="cls-3" x="34.58" y="124.6" width="4.24" height="0.59" transform="matrix(1, -0.01, 0.01, 1, -1.36, 0.41)"/><polygon class="cls-3" points="38.21 127.51 34.81 125.05 35.17 124.58 38.58 127.04 38.21 127.51"/><rect class="cls-3" x="34.58" y="127.22" width="4.24" height="0.59" transform="translate(-1.39 0.41) rotate(-0.63)"/><polygon class="cls-3" points="38.21 130.12 34.81 127.67 35.17 127.19 38.58 129.65 38.21 130.12"/><rect class="cls-3" x="34.58" y="129.83" width="4.24" height="0.59" transform="translate(-1.42 0.41) rotate(-0.63)"/><polygon class="cls-3" points="38.21 132.74 34.81 130.28 35.17 129.81 38.58 132.26 38.21 132.74"/><rect class="cls-3" x="34.58" y="132.44" width="4.24" height="0.59" transform="matrix(1, -0.01, 0.01, 1, -1.45, 0.41)"/><polygon class="cls-3" points="38.21 135.35 34.81 132.89 35.17 132.42 38.58 134.88 38.21 135.35"/><rect class="cls-3" x="34.58" y="135.05" width="4.24" height="0.59" transform="translate(-1.48 0.41) rotate(-0.63)"/><rect class="cls-3" x="34.58" y="111.23" width="4.24" height="0.59" transform="translate(-1.22 0.41) rotate(-0.63)"/><rect class="cls-3" x="22.55" y="111.14" width="0.86" height="24.33"/><rect class="cls-3" x="26.23" y="111.14" width="0.72" height="24.33"/><polygon class="cls-3" points="26.23 114.39 22.83 111.93 23.19 111.46 26.59 113.91 26.23 114.39"/><rect class="cls-3" x="22.59" y="114.09" width="4.24" height="0.59" transform="matrix(1, -0.01, 0.01, 1, -1.25, 0.28)"/><polygon class="cls-3" points="26.23 117 22.83 114.54 23.19 114.07 26.59 116.53 26.23 117"/><rect class="cls-3" x="22.59" y="116.7" width="4.24" height="0.59" transform="translate(-1.28 0.28) rotate(-0.63)"/><polygon class="cls-3" points="26.23 119.61 22.83 117.15 23.19 116.68 26.59 119.14 26.23 119.61"/><rect class="cls-3" x="22.59" y="119.32" width="4.24" height="0.59" transform="translate(-1.31 0.28) rotate(-0.63)"/><polygon class="cls-3" points="26.23 122.22 22.83 119.77 23.19 119.29 26.59 121.75 26.23 122.22"/><rect class="cls-3" x="22.59" y="121.93" width="4.24" height="0.59" transform="matrix(1, -0.01, 0.01, 1, -1.34, 0.28)"/><polygon class="cls-3" points="26.23 124.83 22.83 122.38 23.19 121.9 26.59 124.36 26.23 124.83"/><rect class="cls-3" x="22.59" y="124.54" width="4.24" height="0.59" transform="translate(-1.36 0.28) rotate(-0.63)"/><polygon class="cls-3" points="26.23 127.45 22.83 124.99 23.19 124.52 26.59 126.97 26.23 127.45"/><rect class="cls-3" x="22.59" y="127.15" width="4.24" height="0.59" transform="translate(-1.39 0.28) rotate(-0.63)"/><polygon class="cls-3" points="26.23 130.06 22.83 127.6 23.19 127.13 26.59 129.59 26.23 130.06"/><rect class="cls-3" x="22.59" y="129.76" width="4.24" height="0.59" transform="matrix(1, -0.01, 0.01, 1, -1.42, 0.28)"/><polygon class="cls-3" points="26.23 132.67 22.83 130.21 23.19 129.74 26.59 132.2 26.23 132.67"/><rect class="cls-3" x="22.59" y="132.38" width="4.24" height="0.59" transform="translate(-1.45 0.28) rotate(-0.63)"/><polygon class="cls-3" points="26.23 135.28 22.83 132.82 23.19 132.35 26.59 134.81 26.23 135.28"/><rect class="cls-3" x="22.59" y="134.99" width="4.24" height="0.59" transform="translate(-1.48 0.28) rotate(-0.63)"/><rect class="cls-3" x="22.59" y="111.16" width="4.24" height="0.59" transform="translate(-1.22 0.28) rotate(-0.63)"/><rect class="cls-3" x="20.09" y="134.54" width="21.34" height="6.58"/><rect class="cls-3" x="20.57" y="156.43" width="21.29" height="40.09"/><polygon class="cls-2" points="18.76 203.54 18.76 195.48 43.76 195.48 43.76 204.48 18.76 204.48 18.76 203.54"/><rect class="cls-4" x="19.08" y="201.39" width="24.72" height="3.2"/><path class="cls-3" d="M31.76,203.54v28.94H15.93l-4.54-12.82L9.71,215l-1.28-3.53h1.71l-.26-1.08-1.45-5.9a125,125,0,0,1,23-1Z"/><path class="cls-3" d="M52.61,211.48h1.7L53,215.13l-1.67,4.54-4.54,12.81H30.76V203.54l.47,0a125.62,125.62,0,0,1,23.05,1l-1.51,6.13Z"/><path class="cls-4" d="M10.31,207.42l1.78,0,0-1.53q-.94,0-2.18,0Z"/><path class="cls-4" d="M17.46,207.43l-3.62,0v-1.53c1.44-.06,2.65-.07,3.62,0Z"/><path class="cls-4" d="M22.82,207.45l-3.62,0v-1.53c1.44-.06,2.65-.07,3.62,0Z"/><path class="cls-4" d="M28.18,207.46l-3.62,0V206c1.44-.06,2.65-.07,3.62,0Z"/><path class="cls-4" d="M33.54,207.48l-3.62,0V206c1.44-.06,2.65-.07,3.62,0Z"/><path class="cls-4" d="M38.9,207.5l-3.62,0V206c1.44-.06,2.65-.07,3.62,0Z"/><path class="cls-4" d="M44.26,207.52l-3.62,0V206c1.44-.06,2.65-.07,3.62,0Z"/><path class="cls-4" d="M49.62,207.54l-3.62,0V206c1.44-.06,2.65-.07,3.62,0Z"/><path class="cls-3" d="M46.82,232.48a2.08,2.08,0,0,1-.24.58c0,.06-.09.25-.14.33-.15.23-.34.58-.54.94a17.31,17.31,0,0,0-1.9,5,15.29,15.29,0,0,0-.31,3.22v-.38c-6.2.39-24.77,0-24.77,0a17.05,17.05,0,0,0-.29-2.76s0,0,0-.06a14.7,14.7,0,0,0-2.31-5.78c0-.07-.09-.39-.14-.46s-.17-.58-.26-.58Z"/><path class="cls-4" d="M53.5,206l-.43,1.57-1.71,0v-1.53C52.14,206,52.85,206,53.5,206Z"/><polygon class="cls-4" points="19.76 228.48 19.76 230.48 16.48 230.48 15.94 228.48 19.76 228.48"/><rect class="cls-4" x="21.08" y="228.84" width="4.92" height="2.07"/><rect class="cls-4" x="26.99" y="228.84" width="4.92" height="2.07"/><rect class="cls-4" x="32.89" y="228.84" width="4.92" height="2.07"/><rect class="cls-4" x="38.79" y="228.84" width="4.92" height="2.07"/><polygon class="cls-4" points="47.35 228.48 46.79 230.48 44.76 230.48 44.76 228.48 47.35 228.48"/><polygon class="cls-4" points="12.76 215.48 12.76 219.48 11.38 219.48 9.71 215.48 12.76 215.48"/><rect class="cls-4" x="14.03" y="215.11" width="4.81" height="4.81"/><rect class="cls-4" x="20.15" y="215.11" width="4.81" height="4.81"/><rect class="cls-4" x="26.26" y="215.11" width="4.81" height="4.81"/><rect class="cls-4" x="32.38" y="215.11" width="4.81" height="4.81"/><rect class="cls-4" x="38.49" y="215.11" width="4.81" height="4.81"/><rect class="cls-4" x="44.6" y="215.11" width="4.81" height="4.81"/><polygon class="cls-4" points="53.04 215.48 51.37 219.48 50.76 219.48 50.76 215.48 53.04 215.48"/><path class="cls-3" d="M8.43,204.49c20.28-1.15,20.28-1.15,23.27-.95"/><path class="cls-5" d="M46.58,233.48c-.16,0-.4.56-.68,1a10.21,10.21,0,0,0-1.9,5H18.63c-.32-2-1-5-2.31-6Z"/><path class="cls-3" d="M44.48,149.48a2.54,2.54,0,0,1-.21.35s-.08.14-.12.21-.29.46-.46.76a14.67,14.67,0,0,0-1.63,4.27,13,13,0,0,0-.26,2.75v-.33c-5.31.33-21.2,0-21.2,0a14.6,14.6,0,0,0-.25-2.37V155a12.59,12.59,0,0,0-2-5c0-.06-.08-.19-.12-.24s-.14-.35-.22-.35Z"/><path class="cls-6" d="M44.27,149.48c-.14,0-.35.91-.58,1.27a15.29,15.29,0,0,0-1.63,4.73H20.35c-.27-2-.83-3-2-6Z"/><path class="cls-3" d="M53.93,468.31a60.2,60.2,0,0,1-6.9.38H43.14c-2.33,0-4.67-.08-6.71-.15h-.18l-3.89-.15h-.14l-1.05-.05c-1.22.06-3.27.15-5.69.23h-.09l-2.39.06-1.4,0c-2.29,0-4.69.06-6.88,0-1.4,0-2.72-.06-3.89-.14-.9-.06-1.71-.14-2.39-.23,0-.85,1-23.17,2.39-53.5,1.15-24.86,2.57-55.33,3.89-83.53,2.24-47.71,4.22-89.8,4.22-89.8H43.42s0,.67.06,1.54c.32,6.67,1.8,38.12,3.55,75.39C50.09,383.44,54,466.66,53.93,468.31Z"/><polygon class="cls-2" points="52.83 209.48 52.61 211.48 10.14 211.48 9.88 209.48 52.83 209.48"/><rect class="cls-2" x="34.25" y="149.37" width="0.56" height="50.75"/><rect class="cls-2" x="39.15" y="149.37" width="0.56" height="50.75"/><rect class="cls-2" x="28.11" y="149.37" width="0.56" height="50.75"/><rect class="cls-2" x="23.02" y="149.37" width="0.56" height="50.75"/><path class="cls-2" d="M46,148a3.38,3.38,0,0,0-1.72,1.39L18,151.15a8.25,8.25,0,0,1-.87-.64c-1.23-1-2.93-3.14.87-4.06.44-1.17-1.58-8-1.58-8H44.33l-1,5.63S46.92,144,46,148Z"/><polygon class="cls-4" points="18.03 146.64 43.3 144.29 43.7 142.91 17.82 144.15 18.03 146.64"/><path class="cls-4" d="M46,148a3.38,3.38,0,0,0-1.72,1.39L18,151.15a8.25,8.25,0,0,1-.87-.64Z"/><rect class="cls-3" x="27.06" y="87.8" width="6.43" height="21.93"/><rect class="cls-7" x="28.45" y="87.61" width="0.71" height="22.19"/><rect class="cls-7" x="31.49" y="87.61" width="0.6" height="22.19"/><polygon class="cls-7" points="31.49 90.57 28.68 88.33 28.98 87.9 31.79 90.14 31.49 90.57"/><polygon class="cls-7" points="31.99 90.82 28.49 90.86 28.48 90.32 31.98 90.28 31.99 90.82"/><polygon class="cls-7" points="31.49 92.95 28.68 90.71 28.98 90.28 31.79 92.52 31.49 92.95"/><polygon class="cls-7" points="31.99 93.2 28.49 93.24 28.48 92.71 31.98 92.66 31.99 93.2"/><polygon class="cls-7" points="31.49 95.34 28.68 93.09 28.98 92.66 31.79 94.91 31.49 95.34"/><polygon class="cls-7" points="31.99 95.58 28.49 95.63 28.48 95.09 31.98 95.05 31.99 95.58"/><polygon class="cls-7" points="31.49 97.72 28.68 95.48 28.98 95.05 31.79 97.29 31.49 97.72"/><polygon class="cls-7" points="31.99 97.97 28.49 98.01 28.48 97.47 31.98 97.43 31.99 97.97"/><polygon class="cls-7" points="31.49 100.1 28.68 97.86 28.98 97.43 31.79 99.67 31.49 100.1"/><polygon class="cls-7" points="31.99 100.35 28.49 100.39 28.48 99.86 31.98 99.81 31.99 100.35"/><polygon class="cls-7" points="31.49 102.48 28.68 100.24 28.98 99.81 31.79 102.05 31.49 102.48"/><polygon class="cls-7" points="31.99 102.73 28.49 102.78 28.48 102.24 31.98 102.19 31.99 102.73"/><polygon class="cls-7" points="31.49 104.87 28.68 102.63 28.98 102.19 31.79 104.44 31.49 104.87"/><polygon class="cls-7" points="31.99 105.11 28.49 105.16 28.48 104.62 31.98 104.58 31.99 105.11"/><polygon class="cls-7" points="31.49 107.25 28.68 105.01 28.98 104.58 31.79 106.82 31.49 107.25"/><polygon class="cls-7" points="31.99 107.5 28.49 107.54 28.48 107 31.98 106.96 31.99 107.5"/><polygon class="cls-7" points="31.49 109.63 28.68 107.39 28.98 106.96 31.79 109.2 31.49 109.63"/><polygon class="cls-7" points="31.99 109.88 28.49 109.92 28.48 109.39 31.98 109.34 31.99 109.88"/><polygon class="cls-7" points="31.99 88.15 28.49 88.19 28.48 87.65 31.98 87.61 31.99 88.15"/><rect class="cls-2" x="21.99" y="109.73" width="17.54" height="1.8"/><rect class="cls-2" x="25.88" y="86.75" width="8.79" height="1.15"/><polygon class="cls-3" points="33.62 79.03 26.86 79.03 25.84 77.36 34.63 77.36 33.62 79.03"/><rect class="cls-3" x="26.86" y="78.5" width="6.76" height="6.71" rx="0.89" ry="0.89"/><rect class="cls-7" x="27.35" y="85.09" width="5.79" height="0.44"/><rect class="cls-7" x="27.22" y="76.92" width="6.07" height="0.44"/><rect class="cls-7" x="27.63" y="60.03" width="5.21" height="3.2"/><rect class="cls-7" x="27.63" y="55.74" width="5.21" height="3.2"/><rect class="cls-7" x="27.63" y="47.03" width="5.21" height="3.2"/><rect class="cls-7" x="27.63" y="33.12" width="5.21" height="3.2"/><rect class="cls-7" x="27.28" y="12.6" width="5.92" height="10.12"/><rect class="cls-7" x="27.63" y="28.83" width="5.21" height="3.2"/><rect class="cls-3" x="25.84" y="21.93" width="8.65" height="7.91" rx="0.97" ry="0.97"/><rect class="cls-2" x="25.98" y="31.38" width="8.51" height="1.74" rx="0.87" ry="0.87"/><rect class="cls-2" x="25.09" y="18.26" width="10.28" height="1.74" rx="0.87" ry="0.87"/><rect class="cls-2" x="25.09" y="15.94" width="10.28" height="1.74" rx="0.87" ry="0.87"/><rect class="cls-7" x="27.63" y="42.74" width="5.21" height="3.2"/><rect class="cls-3" x="25.84" y="35.84" width="8.65" height="7.91" rx="0.97" ry="0.97"/><rect class="cls-2" x="25.98" y="45.29" width="8.51" height="1.74" rx="0.87" ry="0.87"/><rect class="cls-3" x="25.84" y="62.46" width="8.79" height="12.41" rx="1.22" ry="1.22"/><rect class="cls-3" x="25.84" y="48.84" width="8.65" height="7.91" rx="0.97" ry="0.97"/><rect class="cls-2" x="25.98" y="58.29" width="8.51" height="1.74" rx="0.87" ry="0.87"/><polygon class="cls-3" points="33.2 14.95 27.28 14.95 24.86 7.19 35.61 7.19 33.2 14.95"/><rect class="cls-2" x="22.66" y="7.19" width="15.02" height="1.98" rx="0.99" ry="0.99"/><path class="cls-2" d="M14.76,331.51v137h-4V414.81C10.76,389.94,13.76,359.7,14.76,331.51Z"/><rect class="cls-2" x="21.76" y="241.48" width="3" height="227"/><rect class="cls-2" x="32.76" y="241.48" width="4" height="227"/><path class="cls-2" d="M46.76,318.52v150h-4v-227h.66S44.76,276.44,46.76,318.52Z"/></g></g></svg>