<svg id="Layer_1" data-name="Layer 1" xmlns="http://www.w3.org/2000/svg" viewBox="0 0 811 293"><defs><style>.cls-1{fill:#b2edcf;}.cls-2{fill:#09f;}.cls-3{fill:#f7e89f;}.cls-4{fill:#f66;}.cls-5{fill:#f48bbe;}.cls-6{fill:#f2f2f2;}.cls-7{fill:#4d4d4d;}.cls-8{fill:#305944;}.cls-9{fill:#ff5c5c;}</style></defs><title>landmark</title><path class="cls-1" d="M456.41,49C300.71,49,173.94,157.34,169.1,292.59H743.72C738.87,157.34,612.1,49,456.41,49"/><path class="cls-2" d="M661.66,293c-3.46-96.62-94-174-205.25-174s-201.79,77.4-205.25,174Z"/><path class="cls-3" d="M157.21,292.91h32L180.41,275S167.24,290.78,157.21,292.91Z"/><path class="cls-3" d="M240.08,292.91h-62L110.46,167.77l25.17-6.95C172.66,232,193.82,280.55,240.08,292.91Z"/><path class="cls-3" d="M149,229.83l4.31,8.63c44.38-10.52,63.12-44.45,75.73-83l-8-3.41C202,194.49,180.14,220.76,149,229.83Z"/><rect class="cls-3" x="158.1" y="118.56" width="10.03" height="98.83" transform="translate(394.68 202.6) rotate(142.66)"/><polygon class="cls-3" points="127.87 200.84 134.36 195.94 71.69 71.89 61.99 76.79 127.87 200.84"/><polygon class="cls-3" points="139.22 200.14 143.24 193.07 36.62 103.92 29.64 112.26 139.22 200.14"/><rect class="cls-3" x="194.03" y="180.15" width="69.82" height="4.25" transform="translate(520.51 207.31) rotate(146.38)"/><path class="cls-3" d="M112.18,152s6.15,10.81,8.85,0,22-99.28,22-99.28l20.1,4.51L137.65,171.92l-22.93-.9Z"/><path class="cls-4" d="M6.72,79.44a35.4,35.4,0,0,1,70.74,2.47Z"/><path class="cls-4" d="M245.49,101.55H52.93c.55-54,43.43-95.28,96.28-95.28S244.94,47.51,245.49,101.55Z"/><path class="cls-5" d="M245.49,101.55H147.21V5C201.24,5,244.94,47.51,245.49,101.55Z"/><path class="cls-4" d="M.21,122.89a56,56,0,0,1,112,0Z"/><path class="cls-4" d="M114.76,160.08H307.31C306.76,106,263.88,64.8,211,64.8S115.3,106,114.76,160.08Z"/><path class="cls-5" d="M114.33,160.08h95.91V63.84C156.21,63.84,114.88,106,114.33,160.08Z"/><path class="cls-6" d="M229.1,168.86a35.4,35.4,0,0,1,70.74,2.47Z"/><path class="cls-5" d="M125.51,169.74a35.78,35.78,0,0,1,71.56,0Z"/><rect class="cls-6" x="226" y="228" width="450" height="20"/><rect class="cls-6" x="647" y="228" width="32" height="65"/><rect class="cls-6" x="223" y="228" width="32" height="65"/><rect class="cls-6" x="331" y="228" width="43" height="65"/><rect class="cls-7" x="223" y="196" width="32" height="32"/><rect class="cls-3" x="641.91" y="180.46" width="9.53" height="46.51"/><path class="cls-8" d="M686.36,161.19a39.68,39.68,0,1,1-79.36,0c0-21.91,17.76-103,39.68-103S686.36,139.28,686.36,161.19Z"/><path class="cls-1" d="M647.84,58.17V200.86a39.68,39.68,0,0,0,39.52-39.67C687.36,139.33,669.68,58.57,647.84,58.17Z"/><rect class="cls-7" x="647" y="196" width="32" height="32"/><rect class="cls-6" x="541" y="231" width="35" height="62"/><rect class="cls-6" x="223" y="196" width="456" height="12"/><rect class="cls-6" x="487" y="207" width="6" height="23"/><rect class="cls-6" x="406" y="207" width="6" height="23"/><rect class="cls-6" x="325" y="207" width="6" height="23"/><rect class="cls-6" x="582" y="207" width="6" height="23"/><rect class="cls-3" x="456" y="238" width="17" height="7"/><rect class="cls-3" x="335" y="258" width="17" height="7"/><rect class="cls-3" x="563" y="235" width="17" height="7"/><rect class="cls-3" x="647" y="273" width="17" height="7"/><rect class="cls-3" x="660" y="244" width="17" height="7"/><rect class="cls-3" x="422" y="227" width="17" height="7"/><rect class="cls-3" x="223" y="273" width="17" height="7"/><rect class="cls-3" x="708.83" y="214.49" width="7.98" height="42.89"/><path class="cls-9" d="M760.21,181.34a21.36,21.36,0,0,0-25.7-31.23,21.37,21.37,0,0,0-39.82-4.42,21.37,21.37,0,0,0-23.18,34.37,21.38,21.38,0,0,0,19.25,37.38,34,34,0,0,0,45.52-1.26,21.37,21.37,0,0,0,23.93-34.84Z"/><path class="cls-5" d="M760.21,181.34a21.36,21.36,0,0,0-25.7-31.23A21.38,21.38,0,0,0,715.1,134v91.5a33.91,33.91,0,0,0,21.18-9.3,21.37,21.37,0,0,0,23.93-34.84Z"/><path class="cls-1" d="M788.89,291.46c0-.8.11-1.57.11-2.41,0-32.71-48-77.27-48-77.27s-43.82,44.79-43.82,77.51c0,.76.06,1.44.08,2.17Z"/><path class="cls-8" d="M788.9,291.46c0-.8.11-1.57.11-2.41,0-32.71-48-77.27-48-77.27v79.68Z"/><path class="cls-1" d="M735.44,291.46c0-.58.08-1.12.08-1.73,0-23.49-35.73-55.48-35.73-55.48s-32.6,32.16-32.6,55.65c0,.54,0,1,.06,1.56Z"/><path class="cls-8" d="M735.45,291.46c0-.58.08-1.12.08-1.73,0-23.49-35.73-55.48-35.73-55.48v57.21Z"/><path class="cls-1" d="M810.93,291.46c0-.43.06-.83.06-1.27,0-17.31-26.11-40.88-26.11-40.88s-23.82,23.7-23.82,41c0,.4,0,.76,0,1.15Z"/><path class="cls-8" d="M810.94,291.46c0-.43.06-.83.06-1.27,0-17.31-26.11-40.88-26.11-40.88v42.15Z"/><path class="cls-1" d="M233.89,292.46c0-.8.11-1.57.11-2.41,0-32.71-48-77.27-48-77.27s-43.82,44.79-43.82,77.51c0,.76.06,1.44.08,2.17Z"/><path class="cls-8" d="M233.9,292.46c0-.8.11-1.57.11-2.41,0-32.71-48-77.27-48-77.27v79.68Z"/><path class="cls-1" d="M180.44,292.46c0-.58.08-1.12.08-1.73,0-23.49-35.73-55.48-35.73-55.48s-32.6,32.16-32.6,55.65c0,.54,0,1,.06,1.56Z"/><path class="cls-8" d="M180.45,292.46c0-.58.08-1.12.08-1.73,0-23.49-35.73-55.48-35.73-55.48v57.21Z"/><path class="cls-1" d="M255.93,292.46c0-.43.06-.83.06-1.27,0-17.31-26.11-40.88-26.11-40.88s-23.82,23.7-23.82,41c0,.4,0,.76,0,1.15Z"/><path class="cls-8" d="M255.94,292.46c0-.43.06-.83.06-1.27,0-17.31-26.11-40.88-26.11-40.88v42.15Z"/></svg>