<svg xmlns="http://www.w3.org/2000/svg" xmlns:xlink="http://www.w3.org/1999/xlink" viewBox="0 0 261 180"><defs><style>.cls-1{isolation:isolate;}.cls-2{fill:#fffcfd;}.cls-3{fill:#1a1a1a;}.cls-4{fill:#f7e89f;}.cls-5{fill:#f66;}.cls-6{fill:#f48bbe;}.cls-7{fill:#4d4d4d;}.cls-8{mix-blend-mode:multiply;fill:url(#linear-gradient);}</style><linearGradient id="linear-gradient" x1="133.2" y1="18.73" x2="133.2" y2="10.67" gradientUnits="userSpaceOnUse"><stop offset="0" stop-color="#fff"/><stop offset="1" stop-color="#1a1a1a" stop-opacity="0.4"/></linearGradient></defs><title>Untitled-1</title><g class="cls-1"><g id="Layer_1" data-name="Layer 1"><rect class="cls-2" x="59.09" y="71.94" width="144.43" height="77.02"/><rect class="cls-3" x="110.05" y="86.54" width="23.76" height="49.98"/><rect class="cls-4" x="131.44" y="86.54" width="21.21" height="49.98"/><rect class="cls-5" x="49.58" y="145.11" width="163.73" height="7.68"/><rect class="cls-5" x="58.61" y="134.79" width="145.25" height="7.68"/><rect class="cls-5" x="103.44" y="86.54" width="10.63" height="52.09"/><rect class="cls-5" x="150.17" y="86.54" width="10.63" height="52.09"/><polygon class="cls-5" points="172.56 86.54 91.59 86.54 90.9 80.34 171.87 80.34 172.56 86.54"/><polygon class="cls-6" points="81.22 34.56 96.22 53.14 111.22 71.72 81.22 71.72 51.22 71.72 66.22 53.14 81.22 34.56"/><polygon class="cls-6" points="181.67 34.56 196.67 53.14 211.67 71.72 181.67 71.72 151.66 71.72 166.67 53.14 181.67 34.56"/><path class="cls-5" d="M181.67,71.76H81.22V34.56c36.2,10.8,70.08,12.67,100.44,0Z"/><rect class="cls-5" x="56.14" y="25.93" width="19.9" height="143.98" transform="matrix(1, 0, 0, 1, -0.22, 0.15)"/><rect class="cls-7" x="49.14" y="169.93" width="27.06" height="5.47"/><rect class="cls-3" x="24.46" y="44" width="108.93" height="11.9"/><path class="cls-3" d="M134.08,15.89V26.8H22.19l-2.55-7.27-2.41-6.71-.11-.41s103.23,3.77,116,3.55C133.35,16,132.93,15.9,134.08,15.89Z"/><rect class="cls-5" x="190.28" y="25.93" width="19.9" height="143.98" transform="translate(400.25 196.28) rotate(-179.87)"/><rect class="cls-7" x="190.12" y="169.93" width="27.06" height="5.47" transform="translate(407.31 345.33) rotate(-180)"/><rect class="cls-3" x="132.93" y="44" width="108.93" height="11.9" transform="translate(374.79 99.89) rotate(-180)"/><path class="cls-3" d="M249.21,12.31l-.11.32-2.4,6.86-2.56,7.31H132.93V15.89h.57C146.11,16.13,249.21,12.31,249.21,12.31Z"/><rect class="cls-3" x="125.69" y="22.77" width="11.34" height="27.18"/><path class="cls-8" d="M254.47,10.67l-1,1.88a27.85,27.85,0,0,0-4.41,0l-2.4,6.19H19.64l-2.41-6.31a34.77,34.77,0,0,0-4.41,0l-.89-1.71Z"/><path class="cls-4" d="M258.84.77l-4.37,9.51-1,2.08-4.41.27c-16.7,1-77.05,4.31-115.61,3.28h-.56V8.58S232.57,6.2,258.84.77Z"/><path class="cls-4" d="M12,10.42,7.84.77C34.11,6.2,134.08,8.58,134.08,8.58v7.31a7.45,7.45,0,0,0-.92,0c-38.73,1-99.09-2.29-115.76-3.28"/><rect class="cls-5" x="212.44" y="172.9" width="25.03" height="2.03"/><rect class="cls-5" x="212.44" y="156.57" width="25.03" height="2.03"/><rect class="cls-4" x="217.04" y="152.01" width="2.35" height="26.66"/><rect class="cls-4" x="212.44" y="152.01" width="2.35" height="26.66"/><rect class="cls-4" x="221.56" y="152.01" width="2.35" height="26.66"/><rect class="cls-4" x="226.08" y="152.01" width="2.35" height="26.66"/><rect class="cls-4" x="230.6" y="152.01" width="2.35" height="26.66"/><rect class="cls-4" x="235.12" y="152.01" width="2.35" height="26.66"/><rect class="cls-5" x="189.76" y="172.9" width="25.03" height="2.03"/><rect class="cls-5" x="189.76" y="156.57" width="25.03" height="2.03"/><rect class="cls-4" x="194.36" y="152.01" width="2.35" height="26.66"/><rect class="cls-4" x="189.74" y="152.01" width="2.35" height="26.66"/><rect class="cls-4" x="198.88" y="152.01" width="2.35" height="26.66"/><rect class="cls-4" x="203.4" y="152.01" width="2.35" height="26.66"/><rect class="cls-4" x="207.92" y="152.01" width="2.35" height="26.66"/><rect class="cls-4" x="212.44" y="152.01" width="2.35" height="26.66"/><rect class="cls-5" x="53.71" y="172.9" width="25.03" height="2.03"/><rect class="cls-5" x="53.71" y="156.57" width="25.03" height="2.03"/><rect class="cls-4" x="58.3" y="152.01" width="2.35" height="26.66"/><rect class="cls-4" x="53.71" y="152.01" width="2.35" height="26.66"/><rect class="cls-4" x="62.82" y="152.01" width="2.35" height="26.66"/><rect class="cls-4" x="67.34" y="152.01" width="2.35" height="26.66"/><rect class="cls-4" x="71.86" y="152.01" width="2.35" height="26.66"/><rect class="cls-4" x="76.39" y="152.01" width="2.35" height="26.66"/><rect class="cls-5" x="31.03" y="172.9" width="25.03" height="2.03"/><rect class="cls-5" x="31.03" y="156.57" width="25.03" height="2.03"/><rect class="cls-4" x="35.63" y="152.01" width="2.35" height="26.66"/><rect class="cls-4" x="31.01" y="152.01" width="2.35" height="26.66"/><rect class="cls-4" x="40.15" y="152.01" width="2.35" height="26.66"/><rect class="cls-4" x="44.67" y="152.01" width="2.35" height="26.66"/><rect class="cls-4" x="49.19" y="152.01" width="2.35" height="26.66"/><rect class="cls-4" x="53.71" y="152.01" width="2.35" height="26.66"/></g></g></svg>