<svg id="Layer_1" data-name="Layer 1" xmlns="http://www.w3.org/2000/svg" xmlns:xlink="http://www.w3.org/1999/xlink" viewBox="0 0 277 347"><defs><style>.cls-1{fill:url(#linear-gradient);}.cls-2{fill:url(#linear-gradient-2);}.cls-3{fill:url(#linear-gradient-3);}.cls-4{fill:url(#linear-gradient-4);}.cls-5{fill:url(#linear-gradient-5);}.cls-6{fill:url(#linear-gradient-6);}.cls-7{fill:url(#linear-gradient-7);}.cls-8{fill:url(#linear-gradient-8);}.cls-9{fill:url(#linear-gradient-9);}.cls-10{fill:url(#linear-gradient-10);}.cls-11{fill:url(#linear-gradient-11);}.cls-12{fill:url(#linear-gradient-12);}.cls-13{fill:url(#linear-gradient-13);}.cls-14{fill:#f9f9f9;}.cls-15{fill:#fffcfd;}.cls-16{fill:#f48bbe;}.cls-17{fill:#f66;}.cls-18{fill:#f7e89f;}.cls-19{fill:#1a1a1a;}.cls-20{fill:#f48cbf;}.cls-21{fill:#f2f2f2;}.cls-22{fill:#09f;}.cls-23{fill:#4d4d4d;}.cls-24{clip-path:url(#clip-path);}.cls-25{mask:url(#mask);}.cls-26{opacity:0.75;}.cls-27{fill:#a30000;}.cls-28{fill:#4f4f4f;}.cls-29{clip-path:url(#clip-path-2);}.cls-30{mask:url(#mask-2);}.cls-31{clip-path:url(#clip-path-3);}.cls-32{mask:url(#mask-3);}.cls-33{fill:#fff;}.cls-34{fill:#fef7fa;}.cls-35{clip-path:url(#clip-path-4);}.cls-36{mask:url(#mask-4);}.cls-37{clip-path:url(#clip-path-5);}.cls-38{mask:url(#mask-5);}.cls-39{clip-path:url(#clip-path-6);}.cls-40{mask:url(#mask-6);}.cls-41{clip-path:url(#clip-path-7);}.cls-42{mask:url(#mask-7);}.cls-43{clip-path:url(#clip-path-8);}.cls-44{mask:url(#mask-8);}.cls-45{clip-path:url(#clip-path-9);}.cls-46{mask:url(#mask-9);}.cls-47{clip-path:url(#clip-path-10);}.cls-48{mask:url(#mask-10);}.cls-49{clip-path:url(#clip-path-11);}.cls-50{mask:url(#mask-11);}.cls-51{clip-path:url(#clip-path-12);}.cls-52{mask:url(#mask-12);}.cls-53{clip-path:url(#clip-path-13);}.cls-54{mask:url(#mask-13);}</style><linearGradient id="linear-gradient" x1="-1732.88" y1="-2351.82" x2="-1732.02" y2="-2351.82" gradientTransform="matrix(0, -3.06, -3.06, 0, -7094.63, -4990.62)" gradientUnits="userSpaceOnUse"><stop offset="0"/><stop offset="0.15" stop-color="#030303"/><stop offset="0.28" stop-color="#0e0e0e"/><stop offset="0.4" stop-color="#202020"/><stop offset="0.51" stop-color="#393939"/><stop offset="0.63" stop-color="#5a5a5a"/><stop offset="0.74" stop-color="#828282"/><stop offset="0.85" stop-color="#b2b2b2"/><stop offset="0.96" stop-color="#e7e7e7"/><stop offset="1" stop-color="#fff"/></linearGradient><linearGradient id="linear-gradient-2" x1="-1736.42" y1="-2358.07" x2="-1735.5" y2="-2358.07" gradientTransform="matrix(0, -3.06, -3.06, 0, -7091.83, -5001.61)" xlink:href="#linear-gradient"/><linearGradient id="linear-gradient-3" x1="-1754.11" y1="-2388.57" x2="-1753.19" y2="-2388.57" gradientTransform="translate(5529.99 7608.29) scale(3.06)" xlink:href="#linear-gradient"/><linearGradient id="linear-gradient-4" x1="-1744.62" y1="-2370.78" x2="-1743.89" y2="-2370.78" gradientTransform="matrix(0, -3.06, -3.06, 0, -7084.35, -5024.43)" xlink:href="#linear-gradient"/><linearGradient id="linear-gradient-5" x1="-1738.09" y1="-2359.95" x2="-1737.36" y2="-2359.95" gradientTransform="matrix(0, -3.06, -3.06, 0, -7089.89, -5005.2)" xlink:href="#linear-gradient"/><linearGradient id="linear-gradient-6" x1="-1739.14" y1="-2361.8" x2="-1738.38" y2="-2361.8" gradientTransform="matrix(0, -3.06, -3.06, 0, -7089.07, -5008.46)" xlink:href="#linear-gradient"/><linearGradient id="linear-gradient-7" x1="-1747.89" y1="-2377.68" x2="-1747.04" y2="-2377.68" gradientTransform="translate(5485.64 7575.28) scale(3.06)" xlink:href="#linear-gradient"/><linearGradient id="linear-gradient-8" x1="-1749.42" y1="-2379.08" x2="-1748.68" y2="-2379.08" gradientTransform="translate(5484.38 7581.61) scale(3.06)" xlink:href="#linear-gradient"/><linearGradient id="linear-gradient-9" x1="-1735.4" y1="-2355.61" x2="-1734.66" y2="-2355.61" gradientTransform="matrix(0, -3.06, -3.06, 0, -7092.23, -4997.47)" xlink:href="#linear-gradient"/><linearGradient id="linear-gradient-10" x1="-1743.4" y1="-2370.2" x2="-1742.48" y2="-2370.2" gradientTransform="matrix(0, -3.06, -3.06, 0, -7086.12, -5023)" xlink:href="#linear-gradient"/><linearGradient id="linear-gradient-11" x1="-1757.64" y1="-2393.83" x2="-1756.9" y2="-2393.83" gradientTransform="translate(5457.87 7625.94) scale(3.06)" xlink:href="#linear-gradient"/><linearGradient id="linear-gradient-12" x1="-1742.38" y1="-2367.73" x2="-1741.65" y2="-2367.73" gradientTransform="matrix(0, -3.06, -3.06, 0, -7086.52, -5018.86)" xlink:href="#linear-gradient"/><linearGradient id="linear-gradient-13" x1="-1744.53" y1="-2370.44" x2="-1743.79" y2="-2370.44" gradientTransform="matrix(0, -3.06, -3.06, 0, -7084.35, -5023.87)" xlink:href="#linear-gradient"/><clipPath id="clip-path"><path class="cls-14" d="M95.38,304.71l-1,.3a.68.68,0,0,0,.22.62,1.57,1.57,0,0,1,.46.91c0,.15.12.35.27.29s.12-.23.07-.38a1.29,1.29,0,0,1-.06-.38l.37.77s.23.23.34,0c0,0,.39.22.43-.15,0,0,0-.18-.08-.23s.23,0,.22-.21a1.61,1.61,0,0,0-.32-.68,6.2,6.2,0,0,1-.59-.73.28.28,0,0,0-.26-.13h-.06"/></clipPath><mask id="mask" x="93.27" y="303.7" width="4.38" height="4.39" maskUnits="userSpaceOnUse"><rect class="cls-1" x="93.86" y="304.29" width="3.2" height="3.22" transform="translate(-140.16 88.71) rotate(-30)"/></mask><clipPath id="clip-path-2"><path class="cls-14" d="M117.28,304.36l-1.09.32a.74.74,0,0,0,.24.67,1.69,1.69,0,0,1,.49,1c0,.16.13.37.29.31s.13-.25.07-.41a1.39,1.39,0,0,1-.06-.41l.4.83s.25.25.37,0c0,0,.42.24.47-.17,0,0,0-.19-.08-.25s.25,0,.24-.23a1.73,1.73,0,0,0-.35-.73,6.67,6.67,0,0,1-.63-.79.3.3,0,0,0-.28-.14h-.07"/></clipPath><mask id="mask-2" x="115.01" y="303.27" width="4.71" height="4.72" maskUnits="userSpaceOnUse"><rect class="cls-2" x="115.65" y="303.9" width="3.44" height="3.46" transform="translate(-137.09 99.63) rotate(-30)"/></mask><clipPath id="clip-path-3"><path class="cls-14" d="M131.46,306.31l-.9.27a.6.6,0,0,0,.2.55,1.39,1.39,0,0,1,.4.81c0,.13.11.31.24.26s.11-.21.06-.33a1.14,1.14,0,0,1-.05-.33l.33.68s.21.2.31,0c0,0,.34.2.38-.14,0,0,0-.16-.07-.21s.21,0,.2-.19a1.42,1.42,0,0,0-.29-.6,5.49,5.49,0,0,1-.52-.65.24.24,0,0,0-.23-.11h-.06"/></clipPath><mask id="mask-3" x="129.6" y="305.41" width="3.88" height="3.88" maskUnits="userSpaceOnUse"><rect class="cls-6" x="130.12" y="305.93" width="2.83" height="2.85" transform="translate(-136.05 106.95) rotate(-30)"/></mask><clipPath id="clip-path-4"><path class="cls-15" d="M143.3,304.94l1,.3a.68.68,0,0,1-.22.62,1.57,1.57,0,0,0-.46.91c0,.15-.12.35-.27.29s-.12-.23-.07-.38a1.29,1.29,0,0,0,.06-.38l-.37.77s-.23.23-.34,0c0,0-.39.22-.43-.15,0,0,0-.18.08-.23s-.23,0-.22-.21a1.61,1.61,0,0,1,.32-.68,6.2,6.2,0,0,0,.59-.73.28.28,0,0,1,.26-.13h.06"/></clipPath><mask id="mask-4" x="141.02" y="303.93" width="4.38" height="4.39" maskUnits="userSpaceOnUse"><rect class="cls-7" x="141.61" y="304.52" width="3.22" height="3.2" transform="translate(-193.5 277.09) rotate(-60)"/></mask><clipPath id="clip-path-5"><path class="cls-15" d="M137.18,307.18l.87.26a.59.59,0,0,1-.19.54,1.35,1.35,0,0,0-.39.78c0,.13-.11.3-.23.25s-.1-.2-.06-.33a1.11,1.11,0,0,0,0-.33l-.32.66s-.2.2-.3,0c0,0-.33.19-.37-.13,0,0,0-.15.07-.2s-.2,0-.19-.18a1.38,1.38,0,0,1,.28-.58,5.33,5.33,0,0,0,.51-.63.24.24,0,0,1,.22-.11h.05"/></clipPath><mask id="mask-5" x="135.22" y="306.31" width="3.77" height="3.77" maskUnits="userSpaceOnUse"><rect class="cls-8" x="135.72" y="306.82" width="2.77" height="2.75" transform="translate(-198.35 272.83) rotate(-60)"/></mask><clipPath id="clip-path-6"><path class="cls-14" d="M109.37,305.93l-.87.26a.59.59,0,0,0,.19.54,1.35,1.35,0,0,1,.39.78c0,.13.11.3.23.25s.1-.2.06-.33a1.11,1.11,0,0,1,0-.33l.32.66s.2.2.3,0c0,0,.33.19.37-.13,0,0,0-.15-.07-.2s.2,0,.19-.18a1.38,1.38,0,0,0-.28-.58,5.33,5.33,0,0,1-.51-.63.24.24,0,0,0-.22-.11h-.05"/></clipPath><mask id="mask-6" x="107.56" y="305.06" width="3.77" height="3.77" maskUnits="userSpaceOnUse"><rect class="cls-9" x="108.06" y="305.56" width="2.75" height="2.77" transform="translate(-138.81 95.84) rotate(-30)"/></mask><clipPath id="clip-path-7"><path class="cls-15" d="M160.06,304.32l-1.09.32a.74.74,0,0,0,.24.67,1.69,1.69,0,0,1,.49,1c0,.16.13.37.29.31s.13-.25.07-.41a1.39,1.39,0,0,1-.06-.41l.4.83s.25.25.37,0c0,0,.42.24.47-.17,0,0,0-.19-.08-.25s.25,0,.24-.23a1.73,1.73,0,0,0-.35-.73,6.67,6.67,0,0,1-.63-.79.3.3,0,0,0-.28-.14h-.07"/></clipPath><mask id="mask-7" x="157.79" y="303.23" width="4.71" height="4.72" maskUnits="userSpaceOnUse"><rect class="cls-10" x="158.42" y="303.86" width="3.44" height="3.46" transform="translate(-131.34 121.01) rotate(-30)"/></mask><clipPath id="clip-path-8"><path class="cls-14" d="M85.54,306.39l.87.26a.59.59,0,0,1-.19.54,1.35,1.35,0,0,0-.39.78c0,.13-.11.3-.23.25s-.1-.2-.06-.33a1.11,1.11,0,0,0,0-.33l-.32.66s-.2.2-.3,0c0,0-.33.19-.37-.13,0,0,0-.15.07-.2s-.2,0-.19-.18a1.38,1.38,0,0,1,.28-.58,5.33,5.33,0,0,0,.51-.63.24.24,0,0,1,.22-.11h.05"/></clipPath><mask id="mask-8" x="83.58" y="305.52" width="3.77" height="3.77" maskUnits="userSpaceOnUse"><rect class="cls-11" x="84.08" y="306.03" width="2.77" height="2.75" transform="translate(-223.49 227.72) rotate(-60)"/></mask><clipPath id="clip-path-9"><path class="cls-15" d="M152.14,305.89l-.87.26a.59.59,0,0,0,.19.54,1.35,1.35,0,0,1,.39.78c0,.13.11.3.23.25s.1-.2.06-.33a1.11,1.11,0,0,1,0-.33l.32.66s.2.2.3,0c0,0,.33.19.37-.13,0,0,0-.15-.07-.2s.2,0,.19-.18a1.38,1.38,0,0,0-.28-.58,5.33,5.33,0,0,1-.51-.63.24.24,0,0,0-.22-.11h-.05"/></clipPath><mask id="mask-9" x="150.33" y="305.02" width="3.77" height="3.77" maskUnits="userSpaceOnUse"><rect class="cls-12" x="150.84" y="305.52" width="2.75" height="2.77" transform="translate(-133.06 117.22) rotate(-30)"/></mask><clipPath id="clip-path-10"><path class="cls-15" d="M162.59,307.43l-.87.26a.59.59,0,0,0,.19.54,1.35,1.35,0,0,1,.39.78c0,.13.11.3.23.25s.1-.2.06-.33a1.11,1.11,0,0,1,0-.33l.32.66s.2.2.3,0c0,0,.33.19.37-.13,0,0,0-.15-.07-.2s.2,0,.19-.18a1.38,1.38,0,0,0-.28-.58,5.33,5.33,0,0,1-.51-.63.24.24,0,0,0-.22-.11h-.05"/></clipPath><mask id="mask-10" x="160.77" y="306.56" width="3.77" height="3.77" maskUnits="userSpaceOnUse"><rect class="cls-13" x="161.28" y="307.06" width="2.75" height="2.77" transform="translate(-132.43 122.65) rotate(-30)"/></mask><clipPath id="clip-path-11"><path class="cls-14" d="M168.76,304.57l1.09.32a.74.74,0,0,1-.24.67,1.69,1.69,0,0,0-.49,1c0,.16-.13.37-.29.31s-.13-.25-.07-.41a1.39,1.39,0,0,0,.06-.41l-.4.83s-.25.25-.37,0c0,0-.42.24-.47-.17,0,0,0-.19.08-.25s-.25,0-.24-.23a1.73,1.73,0,0,1,.35-.73,6.67,6.67,0,0,0,.63-.79.3.3,0,0,1,.28-.14h.07"/></clipPath><mask id="mask-11" x="166.31" y="303.48" width="4.71" height="4.72" maskUnits="userSpaceOnUse"><rect class="cls-3" x="166.94" y="304.12" width="3.46" height="3.44" transform="translate(-180.53 298.99) rotate(-60)"/></mask><clipPath id="clip-path-12"><path class="cls-15" d="M163.63,307.16l-.87.26a.59.59,0,0,0,.19.54,1.35,1.35,0,0,1,.39.78c0,.13.11.3.23.25s.1-.2.06-.33a1.11,1.11,0,0,1,0-.33l.32.66s.2.2.3,0c0,0,.33.19.37-.13,0,0,0-.15-.07-.2s.2,0,.19-.18a1.38,1.38,0,0,0-.28-.58,5.33,5.33,0,0,1-.51-.63.24.24,0,0,0-.22-.11h-.05"/></clipPath><mask id="mask-12" x="161.82" y="306.29" width="3.77" height="3.77" maskUnits="userSpaceOnUse"><rect class="cls-4" x="162.33" y="306.79" width="2.75" height="2.77" transform="translate(-132.16 123.14) rotate(-30)"/></mask><clipPath id="clip-path-13"><path class="cls-14" d="M125,306.43l-.87.26a.59.59,0,0,0,.19.54,1.35,1.35,0,0,1,.39.78c0,.13.11.3.23.25s.1-.2.06-.33a1.11,1.11,0,0,1,0-.33l.32.66s.2.2.3,0c0,0,.33.19.37-.13,0,0,0-.15-.07-.2s.2,0,.19-.18a1.38,1.38,0,0,0-.28-.58,5.33,5.33,0,0,1-.51-.63.24.24,0,0,0-.22-.11H125"/></clipPath><mask id="mask-13" x="123.15" y="305.56" width="3.77" height="3.77" maskUnits="userSpaceOnUse"><rect class="cls-5" x="123.66" y="306.06" width="2.75" height="2.77" transform="translate(-136.97 103.71) rotate(-30)"/></mask></defs><title>Untitled-1</title><rect class="cls-16" x="175.4" y="238.87" width="22.78" height="3.58"/><rect class="cls-16" x="175.4" y="248.27" width="22.78" height="3.58"/><rect class="cls-16" x="175.4" y="257.75" width="22.78" height="3.58"/><rect class="cls-16" x="175.4" y="266.39" width="22.78" height="3.58"/><rect class="cls-16" x="175.4" y="275.12" width="22.78" height="3.58"/><rect class="cls-16" x="175.4" y="283.85" width="22.78" height="3.58"/><rect class="cls-16" x="175.4" y="292.58" width="22.78" height="3.58"/><rect class="cls-16" x="175.4" y="301.23" width="22.78" height="3.58"/><polygon class="cls-17" points="276.41 97.61 276.41 317.11 166.66 317.11 166.66 97.61 179.97 97.61 179.97 43.57 189.94 43.57 189.94 2 253.13 2 253.13 43.57 261.45 43.57 261.45 97.61 276.41 97.61"/><rect class="cls-18" x="214.72" y="43.99" width="13.14" height="9.06"/><rect class="cls-18" x="214.72" y="58.37" width="13.14" height="9.06"/><rect class="cls-18" x="214.72" y="72.67" width="13.14" height="9.06"/><rect class="cls-18" x="214.72" y="115.82" width="13.14" height="9.06"/><rect class="cls-18" x="214.72" y="130.21" width="13.14" height="9.06"/><rect class="cls-18" x="214.72" y="144.51" width="13.14" height="9.06"/><rect class="cls-18" x="214.72" y="158.89" width="13.14" height="9.06"/><rect class="cls-18" x="214.72" y="173.27" width="13.14" height="9.06"/><rect class="cls-18" x="214.72" y="187.66" width="13.14" height="9.06"/><rect class="cls-18" x="214.72" y="202.04" width="13.14" height="9.06"/><rect class="cls-18" x="214.72" y="216.34" width="13.14" height="9.06"/><rect class="cls-18" x="214.72" y="230.72" width="13.14" height="9.06"/><rect class="cls-18" x="214.72" y="245.11" width="13.14" height="9.06"/><rect class="cls-18" x="214.72" y="259.49" width="13.14" height="9.06"/><rect class="cls-18" x="214.72" y="273.87" width="13.14" height="9.06"/><rect class="cls-15" x="208.15" y="288.18" width="13.14" height="28.85"/><rect class="cls-15" x="221.29" y="288.18" width="13.14" height="28.85"/><rect class="cls-19" x="235.51" y="42.16" width="26.44" height="53.88"/><rect class="cls-19" x="180.3" y="42.82" width="26.44" height="53.21"/><rect class="cls-18" x="189.61" y="106.59" width="13.39" height="4.32"/><rect class="cls-18" x="189.61" y="115.16" width="13.39" height="4.32"/><rect class="cls-18" x="189.61" y="123.8" width="13.39" height="4.32"/><rect class="cls-18" x="189.61" y="132.45" width="13.39" height="4.32"/><rect class="cls-18" x="189.61" y="141.1" width="13.39" height="4.32"/><rect class="cls-18" x="189.61" y="149.74" width="13.39" height="4.32"/><rect class="cls-18" x="189.61" y="158.39" width="13.39" height="4.32"/><rect class="cls-18" x="189.61" y="166.95" width="13.39" height="4.32"/><rect class="cls-18" x="189.61" y="175.6" width="13.39" height="4.32"/><rect class="cls-18" x="189.61" y="184.25" width="13.39" height="4.32"/><rect class="cls-18" x="189.61" y="192.89" width="13.39" height="4.32"/><rect class="cls-18" x="189.61" y="201.54" width="13.39" height="4.32"/><rect class="cls-18" x="189.61" y="210.19" width="13.39" height="4.32"/><rect class="cls-18" x="189.61" y="218.75" width="13.39" height="4.32"/><rect class="cls-18" x="189.61" y="227.4" width="13.39" height="4.32"/><rect class="cls-18" x="189.61" y="236.05" width="13.39" height="4.32"/><rect class="cls-18" x="189.61" y="244.69" width="13.39" height="4.32"/><rect class="cls-18" x="189.61" y="253.34" width="13.39" height="4.32"/><rect class="cls-18" x="189.61" y="261.99" width="13.39" height="4.32"/><rect class="cls-18" x="189.61" y="270.55" width="13.39" height="4.32"/><rect class="cls-18" x="189.61" y="279.2" width="13.39" height="4.32"/><rect class="cls-18" x="189.61" y="287.84" width="13.39" height="4.32"/><rect class="cls-18" x="189.61" y="296.49" width="13.39" height="4.32"/><rect class="cls-18" x="239.75" y="104.93" width="13.97" height="4.49"/><rect class="cls-18" x="239.75" y="113.91" width="13.97" height="4.49"/><rect class="cls-18" x="239.75" y="122.97" width="13.97" height="4.49"/><rect class="cls-18" x="239.75" y="132.03" width="13.97" height="4.49"/><rect class="cls-18" x="239.75" y="141.01" width="13.97" height="4.49"/><rect class="cls-18" x="239.75" y="150.08" width="13.97" height="4.49"/><rect class="cls-18" x="239.75" y="159.14" width="13.97" height="4.49"/><rect class="cls-18" x="239.75" y="168.12" width="13.97" height="4.49"/><rect class="cls-18" x="239.75" y="177.18" width="13.97" height="4.49"/><rect class="cls-18" x="239.75" y="186.16" width="13.97" height="4.49"/><rect class="cls-18" x="239.75" y="195.22" width="13.97" height="4.49"/><rect class="cls-18" x="239.75" y="204.28" width="13.97" height="4.49"/><rect class="cls-18" x="239.75" y="213.26" width="13.97" height="4.49"/><rect class="cls-18" x="239.75" y="222.33" width="13.97" height="4.49"/><rect class="cls-18" x="239.75" y="231.39" width="13.97" height="4.49"/><rect class="cls-18" x="239.75" y="240.37" width="13.97" height="4.49"/><rect class="cls-18" x="239.75" y="249.43" width="13.97" height="4.49"/><rect class="cls-18" x="239.75" y="258.49" width="13.97" height="4.49"/><rect class="cls-18" x="239.75" y="267.47" width="13.97" height="4.49"/><rect class="cls-18" x="239.75" y="276.54" width="13.97" height="4.49"/><rect class="cls-18" x="239.75" y="285.51" width="13.97" height="4.49"/><rect class="cls-18" x="239.75" y="294.58" width="13.97" height="4.49"/><rect class="cls-18" x="239.75" y="303.64" width="13.97" height="4.49"/><rect class="cls-18" x="189.28" y="303.64" width="13.97" height="4.49"/><rect class="cls-15" x="189.28" y="54.8" width="13.97" height="28.77"/><rect class="cls-15" x="189.28" y="47.65" width="13.97" height="4.49"/><rect class="cls-15" x="239.75" y="54.8" width="13.97" height="28.77"/><rect class="cls-15" x="239.75" y="47.65" width="13.97" height="4.49"/><rect class="cls-19" x="166.25" y="96.12" width="110.16" height="5.4"/><rect class="cls-20" x="262.86" y="106.51" width="6.73" height="8.9"/><rect class="cls-20" x="262.86" y="120.39" width="6.73" height="8.9"/><rect class="cls-20" x="262.86" y="134.28" width="6.73" height="8.9"/><rect class="cls-20" x="262.86" y="148.16" width="6.73" height="8.9"/><rect class="cls-20" x="262.86" y="162.05" width="6.73" height="8.9"/><rect class="cls-20" x="262.86" y="175.93" width="6.73" height="8.9"/><rect class="cls-20" x="262.86" y="189.82" width="6.73" height="8.9"/><rect class="cls-20" x="262.86" y="203.7" width="6.73" height="8.9"/><rect class="cls-20" x="262.86" y="217.59" width="6.73" height="8.9"/><rect class="cls-20" x="262.86" y="231.47" width="6.73" height="8.9"/><rect class="cls-20" x="262.86" y="246.52" width="6.73" height="8.9"/><rect class="cls-20" x="262.86" y="261.65" width="6.73" height="8.9"/><rect class="cls-20" x="262.86" y="276.7" width="6.73" height="8.9"/><rect class="cls-18" x="213.72" y="17.38" width="13.97" height="17.21"/><rect class="cls-18" x="193.44" y="17.38" width="13.97" height="17.21"/><rect class="cls-18" x="232.76" y="17.38" width="13.97" height="17.21"/><rect class="cls-19" x="189.28" y="31.93" width="64.44" height="5.4"/><polygon class="cls-19" points="276.41 281.27 276.41 317.11 258.45 317.11 276.41 281.27"/><rect class="cls-19" x="255.54" y="97.53" width="4.66" height="219.5"/><polygon class="cls-17" points="200.09 156.64 180.8 156.64 180.8 140.02 180.63 140.02 200.09 156.64"/><rect class="cls-21" x="178.39" y="204.12" width="31.76" height="3.66"/><rect class="cls-20" x="202" y="219.42" width="5.57" height="3.08"/><rect class="cls-20" x="202" y="227.23" width="5.57" height="3.08"/><rect class="cls-20" x="202" y="235.13" width="5.57" height="3.08"/><rect class="cls-20" x="202" y="243.03" width="5.57" height="3.08"/><rect class="cls-20" x="202" y="250.93" width="5.57" height="3.08"/><rect class="cls-20" x="202" y="258.83" width="5.57" height="3.08"/><rect class="cls-20" x="202" y="266.72" width="5.57" height="3.08"/><rect class="cls-20" x="202" y="274.54" width="5.57" height="3.08"/><rect class="cls-20" x="202" y="282.44" width="5.57" height="3.08"/><rect class="cls-20" x="202" y="290.34" width="5.57" height="3.08"/><rect class="cls-20" x="209.98" y="219.33" width="5.57" height="3.08"/><rect class="cls-20" x="209.98" y="227.23" width="5.57" height="3.08"/><rect class="cls-20" x="209.98" y="235.13" width="5.57" height="3.08"/><rect class="cls-20" x="209.98" y="243.03" width="5.57" height="3.08"/><rect class="cls-20" x="209.98" y="250.93" width="5.57" height="3.08"/><rect class="cls-20" x="209.98" y="258.74" width="5.57" height="3.08"/><rect class="cls-20" x="209.98" y="266.64" width="5.57" height="3.08"/><rect class="cls-20" x="209.98" y="274.54" width="5.57" height="3.08"/><rect class="cls-20" x="209.98" y="282.44" width="5.57" height="3.08"/><rect class="cls-20" x="209.98" y="290.34" width="5.57" height="3.08"/><rect class="cls-20" x="202" y="298.15" width="5.57" height="3.08"/><rect class="cls-20" x="209.98" y="298.15" width="5.57" height="3.08"/><rect class="cls-20" x="202" y="306.05" width="5.57" height="3.08"/><rect class="cls-20" x="209.98" y="305.97" width="5.57" height="3.08"/><path class="cls-17" d="M224.74,223.06h-60c-8-19.39-9.35-38.09,0-55.67h60Z"/><path class="cls-15" d="M221,170.62v49.69H162.36c-7.83-17.31-9.15-34,0-49.69Z"/><path class="cls-22" d="M221,170.62v5.67l-58,44h-.7c-7.83-17.31-9.15-34,0-49.69Z"/><rect class="cls-19" x="17.19" y="113.91" width="90.42" height="203.11"/><path class="cls-17" d="M89.33,240.93H12.64c-10.23-24.8-12-48.71,0-71.19H89.33Z"/><path class="cls-15" d="M84.58,173.87v63.55h-75c-10-22.13-11.7-43.48,0-63.55Z"/><path class="cls-17" d="M67,304.12h48.16c6.43-15.57,7.51-30.59,0-44.7H67Z"/><rect class="cls-17" x="23.68" y="86" width="6.14" height="27.91"/><path class="cls-17" d="M57.74,155.48l-.38-48.15c-15.62-6.3-30.64-7.27-44.7.35L13,155.83Z"/><rect class="cls-17" x="95.07" y="127.65" width="21.03" height="87.82"/><rect class="cls-15" x="98.24" y="131.04" width="22.12" height="77.4"/><polygon class="cls-22" points="120.33 134.74 120.33 208.38 98.28 208.38 120.33 134.74"/><rect class="cls-17" x="98.24" y="86" width="6.14" height="27.91"/><rect class="cls-17" x="12.65" y="34.29" width="103.45" height="57.35"/><rect class="cls-15" x="20.48" y="37.97" width="87.8" height="48.67"/><polygon class="cls-22" points="108.19 39.46 108.19 86.45 34.3 86.45 108.19 39.46"/><path class="cls-22" d="M84.58,173.87v7.25l-74.14,56.3h-.9c-10-22.13-11.7-43.48,0-63.55Z"/><path class="cls-15" d="M70.49,259.91v42.47h50.15c6.69-14.79,7.82-29.06,0-42.47Z"/><path class="cls-22" d="M70.49,259.91v4.85L120,302.38h.6c6.69-14.79,7.82-29.06,0-42.47Z"/><path class="cls-15" d="M16.09,151.25H58.56V101.1c-14.79-6.69-29.06-7.82-42.47,0Z"/><path class="cls-22" d="M16.09,151.25h4.85L58.56,101.7v-.6c-14.79-6.69-29.06-7.82-42.47,0Z"/><rect class="cls-22" x="18.93" y="242.65" width="8.55" height="9.21"/><rect class="cls-15" x="19.7" y="243.85" width="7.01" height="6.37"/><rect class="cls-22" x="30.52" y="242.65" width="8.55" height="9.21"/><rect class="cls-15" x="31.29" y="243.85" width="7.01" height="6.37"/><rect class="cls-22" x="18.93" y="253.87" width="8.55" height="9.21"/><rect class="cls-15" x="19.7" y="255.07" width="7.01" height="6.37"/><rect class="cls-22" x="42.11" y="253.87" width="8.55" height="9.21"/><rect class="cls-15" x="42.88" y="255.07" width="7.01" height="6.37"/><rect class="cls-22" x="30.95" y="266.74" width="8.55" height="9.21"/><rect class="cls-15" x="31.72" y="267.94" width="7.01" height="6.37"/><rect class="cls-22" x="54.13" y="266.74" width="8.55" height="9.21"/><rect class="cls-15" x="54.9" y="267.94" width="7.01" height="6.37"/><rect class="cls-22" x="30.95" y="277.96" width="8.55" height="9.21"/><rect class="cls-15" x="31.72" y="279.16" width="7.01" height="6.37"/><rect class="cls-22" x="42.54" y="277.96" width="8.55" height="9.21"/><rect class="cls-15" x="43.31" y="279.16" width="7.01" height="6.37"/><rect class="cls-22" x="71.28" y="120.68" width="8.55" height="9.21" transform="translate(151.12 250.56) rotate(-180)"/><rect class="cls-15" x="72.05" y="121.88" width="7.01" height="6.37" transform="translate(151.12 250.12) rotate(-180)"/><rect class="cls-22" x="82.87" y="131.9" width="8.55" height="9.21" transform="translate(174.29 273.01) rotate(-180)"/><rect class="cls-15" x="83.64" y="133.1" width="7.01" height="6.37" transform="translate(174.29 272.57) rotate(-180)"/><rect class="cls-22" x="70.85" y="144.77" width="8.55" height="9.21" transform="translate(150.24 298.74) rotate(-180)"/><rect class="cls-15" x="71.62" y="145.97" width="7.01" height="6.37" transform="translate(150.24 298.3) rotate(-180)"/><rect class="cls-22" x="70.85" y="155.99" width="8.55" height="9.21" transform="translate(150.24 321.19) rotate(-180)"/><rect class="cls-15" x="71.62" y="157.19" width="7.01" height="6.37" transform="translate(150.24 320.74) rotate(-180)"/><rect class="cls-22" x="59.26" y="155.99" width="8.55" height="9.21" transform="translate(127.07 321.19) rotate(-180)"/><rect class="cls-15" x="60.03" y="157.19" width="7.01" height="6.37" transform="translate(127.07 320.74) rotate(-180)"/><rect class="cls-23" x="-2.24" y="316.19" width="279.65" height="30.83"/><rect class="cls-14" x="88.45" y="317.66" width="9.01" height="19.65"/><rect class="cls-14" x="107.14" y="317.66" width="9.01" height="19.65"/><rect class="cls-14" x="125.83" y="317.66" width="9.01" height="19.65"/><rect class="cls-14" x="144.52" y="317.66" width="9.01" height="19.65"/><rect class="cls-14" x="163.2" y="317.66" width="9.01" height="19.65"/><path class="cls-19" d="M96.47,315.85s0,.64.17.68,2.82-.57,2.82-.57.49-.14.39-.32-.33-.47-.54-.44a9.32,9.32,0,0,0-1.75.2c-.32.15-1.09.45-1.09.45"/><polygon class="cls-21" points="97.73 315.65 96.21 316.06 91.83 304.03 93.35 303.62 97.73 315.65"/><path class="cls-21" d="M98.59,315.33a6,6,0,0,0-.75-1.4,4.3,4.3,0,0,1-.34-.93,1.16,1.16,0,0,0-.48-.58c-.29-.22-.55-1.22-.55-1.22a.23.23,0,0,1-.22-.2c0-.18.16-.29.13-.41s-.32-1.48-.53-2.22c-.06-.3-.87-3.32-.87-3.32l-.94.2.4,2.06.35,0,1,4.6s.25,0,.42.59.23.54,0,.88c.13.6.44,1.77.44,1.77l.16.7a.07.07,0,0,0,.09,0l1.64-.43a.08.08,0,0,0,.06-.1"/><polygon class="cls-14" points="95.31 305.72 91.55 304.94 92.13 300.74 95.54 301.29 95.31 305.72"/><ellipse class="cls-19" cx="94.42" cy="291.53" rx="1.83" ry="1.71"/><path class="cls-19" d="M90.75,316.6s-.23.6,0,.7,3.31.25,3.31.25.59,0,.53-.2-.93-.4-1.16-.47a4,4,0,0,0-1.32-.41c-.4.05-1.35.12-1.35.12"/><path class="cls-14" d="M94.41,293.48s.6.87,1.27.66c.29-.06.22-.49.22-.49s.12-.18.08-.22a.24.24,0,0,0,0-.19s0-.22,0-.23.26,0,.28,0,.12-.14-.13-.49-.13-.22-.13-.22a.24.24,0,0,0,0-.27.78.78,0,0,0-.06-.3.24.24,0,0,0-.24-.14H94.59l-.56,0Z"/><polygon class="cls-14" points="93.18 293.04 93.18 293.79 94.47 294.2 94.47 293.65 94.06 291.46 94.03 291.42 93.01 292.1 93.18 293.04"/><path class="cls-21" d="M91.55,304.94a14.52,14.52,0,0,1-.32,5.2,19.55,19.55,0,0,0-.59,5.08c.07.22-.16.57-.21.85s-.19.82-.1.83a7.8,7.8,0,0,0,1.45.11c.18-.07.79-.18.85-.42s.3-1.81.37-1.93.22-.13.26-.38.17-1.22,0-1.25-.44,0-.42-.18S94.07,308,94.07,308l.57-2.44Z"/><path class="cls-19" d="M94,291.85a.81.81,0,0,1,.6.42l.17-.12s-.11-.46.06-.54a2.9,2.9,0,0,1,1.14,0l-.17-.34-.88,0-1,.08Z"/><path class="cls-19" d="M92.88,292.33s0,.74.27.88c0,0,.39-.12.4-.23s0-.6.13-.79a2.85,2.85,0,0,1,.35-.35l-.13-.54-1.07,1Z"/><path class="cls-18" d="M95.67,299.76s.25,0,.27-.24a9.4,9.4,0,0,0,0-1.3,2.21,2.21,0,0,0-.12-.64.18.18,0,0,0-.16-.08Z"/><path class="cls-14" d="M95.75,301.15l.1-3.25a2.72,2.72,0,0,0-.22-1.05,14.2,14.2,0,0,0-.91-1.85,8.43,8.43,0,0,0-.81-.59l-.26.36v1.66l.24,3.34.21,1.6.9.31Z"/><path class="cls-18" d="M94.37,305a.68.68,0,0,0,.22.62,1.57,1.57,0,0,1,.46.91c0,.14.12.34.27.29s.12-.23.07-.38a1.32,1.32,0,0,1-.06-.38l.37.77s.23.23.35,0c0,0,.39.22.43-.15,0,0,0-.18-.08-.23s.23,0,.22-.21a1.61,1.61,0,0,0-.32-.68,6.17,6.17,0,0,1-.59-.73c-.08-.16-.32-.12-.32-.12Z"/><path class="cls-14" d="M95.38,304.71l-1,.3a.68.68,0,0,0,.22.62,1.57,1.57,0,0,1,.46.91c0,.15.12.35.27.29s.12-.23.07-.38a1.29,1.29,0,0,1-.06-.38l.37.77s.23.23.34,0c0,0,.39.22.43-.15,0,0,0-.18-.08-.23s.23,0,.22-.21a1.61,1.61,0,0,0-.32-.68,6.2,6.2,0,0,1-.59-.73.28.28,0,0,0-.26-.13h-.06"/><g class="cls-24"><g class="cls-25"><rect class="cls-14" x="93.86" y="304.29" width="3.2" height="3.22" transform="translate(-140.16 88.71) rotate(-30)"/></g></g><path class="cls-18" d="M92.8,294.2a3.52,3.52,0,0,0-1.38,3.32,18.36,18.36,0,0,0,2.73,7.78,2.68,2.68,0,0,0,1.47-.63,19.39,19.39,0,0,1-1.15-4.92c-.08-2.09.08-4.08-.63-4.3a1.22,1.22,0,0,0-.61-.1l0-1Z"/><path class="cls-14" d="M93.36,295.36a1.4,1.4,0,0,0-1.51,1.23,13.27,13.27,0,0,0,.28,4.16l0,.07a11.81,11.81,0,0,1-.71-3.78,4,4,0,0,1,.81-2.42,1.86,1.86,0,0,0,.5-.7h.58l.38.72Z"/><path class="cls-18" d="M92.64,294.17a.76.76,0,0,1,.37-.64c.41-.31,1.46.67,1.46.67s.59.55.52,1-.15.87-.24.79-.46-1.08-1.15-1.47a2.67,2.67,0,0,0-1-.4"/><path class="cls-21" d="M93.35,294.4l0,1,.85.22v-.66s-.52-.5-.86-.51"/><path class="cls-21" d="M93.38,313.24c-.07.74.16-2.85,0-3.44-.25-.91-1.58,3.44-1.58,3.44Z"/><path class="cls-27" d="M118.45,316.35s0,.69.19.73,3-.62,3-.62.53-.15.42-.34-.36-.5-.59-.48a10,10,0,0,0-1.88.22c-.35.16-1.18.48-1.18.48"/><polygon class="cls-19" points="119.81 316.13 118.17 316.57 113.46 303.62 115.1 303.18 119.81 316.13"/><path class="cls-19" d="M120.59,315.7a6.41,6.41,0,0,0-.81-1.5,4.63,4.63,0,0,1-.37-1,1.25,1.25,0,0,0-.52-.62c-.31-.23-.59-1.32-.59-1.32a.25.25,0,0,1-.23-.21c0-.2.17-.31.14-.45s-.34-1.59-.57-2.39c-.07-.32-.93-3.57-.93-3.57l-1,.21.43,2.22.38-.05,1,5s.26,0,.45.64.25.58,0,.95c.13.64.48,1.91.48,1.91l.17.76a.07.07,0,0,0,.09,0l1.76-.46a.08.08,0,0,0,.06-.11"/><polygon class="cls-27" points="117.21 305.44 113.16 304.6 113.78 300.08 117.45 300.68 117.21 305.44"/><ellipse class="cls-28" cx="116.25" cy="290.17" rx="1.97" ry="1.84"/><path class="cls-27" d="M112.29,317.16s-.25.65,0,.76,3.56.26,3.56.26.63,0,.58-.21-1-.43-1.25-.5a4.3,4.3,0,0,0-1.42-.44c-.43.06-1.46.13-1.46.13"/><path class="cls-14" d="M116.23,292.27s.65.93,1.37.71c.31-.06.23-.53.23-.53s.13-.19.09-.24a.25.25,0,0,0,0-.2s0-.23,0-.25.28,0,.3,0,.12-.15-.14-.53S118,291,118,291a.26.26,0,0,0,0-.29.84.84,0,0,0-.06-.32.26.26,0,0,0-.26-.15h-1.23l-.6,0Z"/><polygon class="cls-14" points="114.91 291.79 114.91 292.6 116.31 293.05 116.31 292.46 115.86 290.1 115.83 290.05 114.73 290.79 114.91 291.79"/><path class="cls-19" d="M113.16,304.6a15.62,15.62,0,0,1-.35,5.59,21,21,0,0,0-.64,5.47c.07.24-.17.62-.23.91s-.2.88-.11.89a8.39,8.39,0,0,0,1.56.12c.19-.08.85-.19.92-.45s.32-1.95.4-2.08.23-.14.28-.41.18-1.31,0-1.35-.48,0-.45-.19,1.35-5.21,1.35-5.21l.62-2.62Z"/><path class="cls-28" d="M115.83,290.51a.87.87,0,0,1,.65.45l.18-.13s-.12-.49.06-.58a3.12,3.12,0,0,1,1.22,0l-.19-.37-.95,0-1.11.09Z"/><path class="cls-28" d="M114.59,291s0,.8.29,1c0,0,.42-.13.44-.25s0-.64.14-.85a3.07,3.07,0,0,1,.37-.37l-.14-.58-1.15,1Z"/><path class="cls-19" d="M117.59,299s.27,0,.3-.26a10.11,10.11,0,0,0,0-1.4,2.38,2.38,0,0,0-.12-.69.19.19,0,0,0-.17-.09Z"/><path class="cls-27" d="M117.68,300.52l.11-3.5a2.93,2.93,0,0,0-.24-1.13,15.28,15.28,0,0,0-1-2,9.07,9.07,0,0,0-.87-.63l-.28.39v1.78l.26,3.59.23,1.72,1,.33Z"/><path class="cls-18" d="M116.19,304.69a.74.74,0,0,0,.24.67,1.69,1.69,0,0,1,.49,1c0,.16.13.37.29.31s.13-.25.07-.41a1.42,1.42,0,0,1-.06-.41l.39.83s.25.25.37,0c0,0,.42.24.47-.17,0,0,0-.19-.08-.25s.25,0,.24-.23a1.73,1.73,0,0,0-.35-.73,6.64,6.64,0,0,1-.63-.79c-.09-.17-.35-.13-.35-.13Z"/><path class="cls-14" d="M117.28,304.36l-1.09.32a.74.74,0,0,0,.24.67,1.69,1.69,0,0,1,.49,1c0,.16.13.37.29.31s.13-.25.07-.41a1.39,1.39,0,0,1-.06-.41l.4.83s.25.25.37,0c0,0,.42.24.47-.17,0,0,0-.19-.08-.25s.25,0,.24-.23a1.73,1.73,0,0,0-.35-.73,6.67,6.67,0,0,1-.63-.79.3.3,0,0,0-.28-.14h-.07"/><g class="cls-29"><g class="cls-30"><rect class="cls-14" x="115.65" y="303.9" width="3.44" height="3.46" transform="translate(-137.09 99.63) rotate(-30)"/></g></g><path class="cls-27" d="M114.5,293.05a3.78,3.78,0,0,0-1.48,3.57A19.76,19.76,0,0,0,116,305a2.88,2.88,0,0,0,1.58-.68,20.87,20.87,0,0,1-1.24-5.3c-.08-2.25.09-4.39-.68-4.63a1.32,1.32,0,0,0-.66-.11l0-1Z"/><path class="cls-19" d="M113,296.62A19.78,19.78,0,0,0,116,305a2.88,2.88,0,0,0,1.58-.68,20.87,20.87,0,0,1-1.24-5.3c-.08-2.25.09-4.39-.68-4.62a1.31,1.31,0,0,0-.66-.11l0-1-.49-.2a3.79,3.79,0,0,0-1.48,3.57"/><path class="cls-27" d="M115.11,294.29a1.51,1.51,0,0,0-1.63,1.32,14.28,14.28,0,0,0,.3,4.47l0,.07a12.71,12.71,0,0,1-.77-4.06,4.26,4.26,0,0,1,.88-2.6,2,2,0,0,0,.54-.75H115l.4.78Z"/><path class="cls-19" d="M114.33,293a.81.81,0,0,1,.4-.68c.44-.33,1.57.72,1.57.72s.64.59.55,1.12-.16.93-.26.85-.49-1.16-1.23-1.58a2.87,2.87,0,0,0-1-.43"/><path class="cls-19" d="M115.09,293.26l0,1,.91.23v-.71s-.56-.54-.93-.55"/><path class="cls-19" d="M115.12,313.53c-.08.8.18-3.07,0-3.7-.27-1-1.7,3.7-1.7,3.7Z"/><path class="cls-19" d="M132.43,316.16s0,.57.15.6,2.49-.51,2.49-.51.43-.13.35-.28-.29-.41-.48-.39a8.25,8.25,0,0,0-1.55.18c-.28.13-1,.4-1,.4"/><polygon class="cls-19" points="133.54 315.99 132.2 316.35 128.32 305.7 129.67 305.34 133.54 315.99"/><path class="cls-19" d="M134.18,315.74a5.27,5.27,0,0,0-.66-1.24,3.81,3.81,0,0,1-.3-.82,1,1,0,0,0-.43-.51c-.26-.19-.49-1.08-.49-1.08a.21.21,0,0,1-.19-.17c0-.16.14-.25.12-.37s-.28-1.31-.47-2c-.06-.26-.77-2.94-.77-2.94l-.83.17.36,1.82.31,0,.85,4.07s.22,0,.37.53.2.48,0,.78c.11.53.39,1.57.39,1.57l.14.62a.06.06,0,0,0,.08,0l1.45-.38a.07.07,0,0,0,.05-.09"/><polygon class="cls-21" points="131.4 307.2 128.07 306.5 128.59 302.79 131.6 303.28 131.4 307.2"/><ellipse class="cls-28" cx="130.61" cy="294.64" rx="1.62" ry="1.51"/><path class="cls-19" d="M127.36,316.83s-.21.53,0,.62,2.93.22,2.93.22.52,0,.47-.17-.82-.36-1-.41a3.53,3.53,0,0,0-1.17-.36c-.36,0-1.2.11-1.2.11"/><path class="cls-14" d="M130.6,296.36s.53.77,1.13.58c.25-.05.19-.44.19-.44s.11-.16.07-.2a.21.21,0,0,0,0-.17s0-.19,0-.21.23,0,.25,0,.1-.12-.11-.43-.11-.19-.11-.19a.21.21,0,0,0,0-.24.69.69,0,0,0-.05-.26.22.22,0,0,0-.21-.12h-1l-.5,0Z"/><polygon class="cls-14" points="129.52 295.97 129.52 296.64 130.66 297.01 130.66 296.52 130.29 294.58 130.27 294.54 129.37 295.14 129.52 295.97"/><path class="cls-19" d="M128.07,306.5a12.85,12.85,0,0,1-.28,4.6,17.3,17.3,0,0,0-.53,4.49c.06.2-.14.51-.19.75s-.17.72-.09.73a6.9,6.9,0,0,0,1.28.1c.16-.07.7-.16.75-.37s.26-1.6.33-1.71.19-.11.23-.34.15-1.08,0-1.11-.39,0-.37-.16,1.11-4.28,1.11-4.28l.51-2.16Z"/><path class="cls-28" d="M130.27,294.92a.72.72,0,0,1,.53.37l.15-.11s-.1-.4.05-.48a2.56,2.56,0,0,1,1,0l-.15-.3-.78,0-.92.07Z"/><path class="cls-28" d="M129.25,295.35s0,.66.24.78c0,0,.35-.11.36-.21s0-.53.12-.7a2.52,2.52,0,0,1,.31-.31l-.11-.48-.94.84Z"/><path class="cls-21" d="M131.72,301.92s.22,0,.24-.21a8.32,8.32,0,0,0,0-1.15,2,2,0,0,0-.1-.57.16.16,0,0,0-.14-.07Z"/><path class="cls-21" d="M131.79,303.15l.09-2.88a2.41,2.41,0,0,0-.2-.93,12.56,12.56,0,0,0-.81-1.64,7.46,7.46,0,0,0-.71-.52l-.23.32V299l.22,3,.19,1.42.8.27Z"/><path class="cls-18" d="M130.57,306.57a.61.61,0,0,0,.2.55,1.39,1.39,0,0,1,.4.81c0,.13.11.31.24.26s.11-.21.06-.33a1.17,1.17,0,0,1,0-.34l.32.68s.21.2.31,0c0,0,.34.2.38-.14,0,0,0-.16-.07-.21s.21,0,.2-.19a1.42,1.42,0,0,0-.29-.6,5.46,5.46,0,0,1-.52-.65c-.07-.14-.29-.11-.29-.11Z"/><path class="cls-14" d="M131.46,306.31l-.9.27a.6.6,0,0,0,.2.55,1.39,1.39,0,0,1,.4.81c0,.13.11.31.24.26s.11-.21.06-.33a1.14,1.14,0,0,1-.05-.33l.33.68s.21.2.31,0c0,0,.34.2.38-.14,0,0,0-.16-.07-.21s.21,0,.2-.19a1.42,1.42,0,0,0-.29-.6,5.49,5.49,0,0,1-.52-.65.24.24,0,0,0-.23-.11h-.06"/><g class="cls-31"><g class="cls-32"><rect class="cls-14" x="130.12" y="305.93" width="2.83" height="2.85" transform="translate(-136.05 106.95) rotate(-30)"/></g></g><path class="cls-33" d="M129.18,297a3.11,3.11,0,0,0-1.22,2.94,16.25,16.25,0,0,0,2.42,6.89,2.37,2.37,0,0,0,1.3-.56,17.16,17.16,0,0,1-1-4.36c-.07-1.85.07-3.61-.56-3.8a1.08,1.08,0,0,0-.54-.09l0-.85Z"/><path class="cls-19" d="M128,299.94a16.27,16.27,0,0,0,2.42,6.89,2.37,2.37,0,0,0,1.3-.56,17.16,17.16,0,0,1-1-4.36c-.07-1.85.07-3.61-.56-3.8a1.08,1.08,0,0,0-.54-.09l0-.85-.41-.16a3.11,3.11,0,0,0-1.22,2.94"/><path class="cls-19" d="M129.68,298a1.24,1.24,0,0,0-1.34,1.09,11.74,11.74,0,0,0,.25,3.68l0,.06a10.45,10.45,0,0,1-.63-3.34,3.5,3.5,0,0,1,.72-2.14,1.64,1.64,0,0,0,.44-.62h.52l.33.64Z"/><path class="cls-21" d="M129,297a.67.67,0,0,1,.33-.56c.37-.27,1.29.59,1.29.59s.53.48.46.92-.13.77-.21.7-.41-1-1-1.3A2.36,2.36,0,0,0,129,297"/><path class="cls-19" d="M129.66,297.18V298l.75.19v-.59s-.46-.44-.76-.45"/><path class="cls-19" d="M129.69,313.85c-.07.66.14-2.52,0-3-.22-.8-1.4,3-1.4,3Z"/><polygon class="cls-14" points="97.95 317.68 97.02 317.68 97.02 310.09 98.88 310.09 97.95 317.68"/><polygon class="cls-14" points="99.78 315.3 98.94 314.9 100.88 310.8 102.56 311.6 99.78 315.3"/><path class="cls-16" d="M98.13,302.65l-4.2,7.44s1.39-.12,1.45.42c.3.48,2.74,1.51,3.09.85s2.26-.36,2.85-.12,2.65.6,2.77,0,1.51-.79,1.51-.79l-4.55-7.39Z"/><path class="cls-18" d="M97,317.62s-.26.66,0,.78,3.65.27,3.65.27.65,0,.59-.22-1-.44-1.28-.51a4.4,4.4,0,0,0-1.46-.45c-.44.06-1.49.14-1.49.14"/><path class="cls-14" d="M100.68,294.58s.66,1,1.4.73c.32-.06.24-.54.24-.54s.14-.2.09-.25a.26.26,0,0,0,0-.21s0-.24,0-.26.29,0,.31,0,.13-.15-.14-.54-.14-.24-.14-.24a.26.26,0,0,0,0-.29.86.86,0,0,0-.06-.33.27.27,0,0,0-.27-.15h-1.26l-.62,0Z"/><polygon class="cls-14" points="99.33 294.09 99.33 294.92 100.75 295.38 100.75 294.77 100.29 292.35 100.26 292.31 99.14 293.06 99.33 294.09"/><path class="cls-19" d="M100.09,293.24l1-.14s-.12-.5.06-.6a3.19,3.19,0,0,1,1.25,0l-.19-.38-1,0-1.14.09Z"/><path class="cls-28" d="M99,293.32s0,.82.29,1c0,0,.43-.13.45-.26s0-.66.15-.87a3.14,3.14,0,0,1,.38-.38l-.14-.59L99,293.24Z"/><path class="cls-28" d="M101.05,303.07l1.21-3.63a3,3,0,0,0-.25-1.16,15.64,15.64,0,0,0-1-2,9.29,9.29,0,0,0-.89-.65l-.28.4v1.82l.27,3.68.23,1.76h0Z"/><path class="cls-14" d="M101.5,307l-.87.26a.59.59,0,0,0,.19.54,1.35,1.35,0,0,1,.39.78c0,.13.11.3.23.25s.1-.2.06-.33a1.11,1.11,0,0,1,0-.33l.32.66s.2.2.3,0c0,0,.33.19.37-.13,0,0,0-.15-.07-.2s.2,0,.19-.18a1.38,1.38,0,0,0-.28-.58,5.33,5.33,0,0,1-.51-.63.24.24,0,0,0-.22-.11h-.05"/><path class="cls-16" d="M98.9,295.38A3.87,3.87,0,0,0,97.39,299a20.23,20.23,0,0,0,3,8.58,3,3,0,0,0,1.62-.69,21.36,21.36,0,0,1-1.27-5.42c-.08-2.3.09-4.49-.69-4.74a1.35,1.35,0,0,0-.68-.12l0-1.06Z"/><path class="cls-28" d="M99.52,296.65A1.55,1.55,0,0,0,97.86,298a14.62,14.62,0,0,0,.31,4.58l0,.08a13,13,0,0,1-.79-4.16,4.36,4.36,0,0,1,.9-2.67,2,2,0,0,0,.55-.77h.64l.41.8Z"/><path class="cls-18" d="M98.73,295.34a.83.83,0,0,1,.41-.7c.45-.34,1.61.74,1.61.74s.65.6.57,1.15-.17,1-.26.87-.51-1.19-1.26-1.62a2.94,2.94,0,0,0-1.06-.44"/><path class="cls-19" d="M99.51,295.59l0,1.06.93.24v-.73s-.58-.55-1-.57"/><path class="cls-18" d="M98.95,314.36s-.57.41-.46.62,2.46,2,2.46,2,.47.32.55.11.16-.61,0-.77a10.27,10.27,0,0,0-1.4-1.34c-.35-.17-1.15-.61-1.15-.61"/><path class="cls-19" d="M100.7,292.16a4.16,4.16,0,0,0,.29,3.22l-2-.32a4.93,4.93,0,0,1,0-3.25,1.14,1.14,0,0,1,.92-.67c.8-.09,2.15-.07,2.49,1a7.12,7.12,0,0,1-1.06.37l-1.82-.2"/><path class="cls-19" d="M101.11,293.1l1.67-.08s.12-1.31-.84-1.38-1.2-.07-1.2-.07Z"/><path class="cls-19" d="M142.21,316.08s0,.64-.17.68-2.82-.57-2.82-.57-.49-.14-.39-.32.33-.47.54-.44a9.32,9.32,0,0,1,1.75.2c.32.15,1.09.45,1.09.45"/><polygon class="cls-34" points="140.95 315.88 142.47 316.29 146.85 304.26 145.32 303.85 140.95 315.88"/><path class="cls-34" d="M140.08,315.56a6,6,0,0,1,.75-1.4,4.3,4.3,0,0,0,.34-.93,1.16,1.16,0,0,1,.48-.58c.29-.22.55-1.22.55-1.22a.23.23,0,0,0,.22-.2c0-.18-.16-.29-.13-.41s.32-1.48.53-2.22c.06-.3.87-3.32.87-3.32l.94.2-.4,2.06-.35,0-1,4.6s-.25,0-.42.59-.23.54,0,.88c-.13.6-.44,1.77-.44,1.77l-.16.7a.07.07,0,0,1-.09,0l-1.64-.43a.08.08,0,0,1-.06-.1"/><polygon class="cls-15" points="143.37 305.95 147.13 305.16 146.55 300.97 143.14 301.52 143.37 305.95"/><ellipse class="cls-19" cx="144.26" cy="291.76" rx="1.83" ry="1.71"/><path class="cls-19" d="M147.93,316.83s.23.6,0,.7-3.31.25-3.31.25-.59,0-.53-.2.93-.4,1.16-.47a4,4,0,0,1,1.32-.41c.4.05,1.35.12,1.35.12"/><path class="cls-15" d="M144.27,293.71s-.6.87-1.27.66c-.29-.06-.22-.49-.22-.49s-.12-.18-.08-.22a.24.24,0,0,1,0-.19s0-.22,0-.23-.26,0-.28,0-.12-.14.13-.49.13-.22.13-.22a.24.24,0,0,1,0-.27.78.78,0,0,1,.06-.3.24.24,0,0,1,.24-.14h1.14l.56,0Z"/><polygon class="cls-15" points="145.5 293.26 145.5 294.01 144.2 294.43 144.2 293.88 144.62 291.69 144.65 291.64 145.67 292.33 145.5 293.26"/><path class="cls-34" d="M147.13,305.16a14.52,14.52,0,0,0,.32,5.2,19.55,19.55,0,0,1,.59,5.08c-.07.22.16.57.21.85s.19.82.1.83a7.8,7.8,0,0,1-1.45.11c-.18-.07-.79-.18-.85-.42s-.3-1.81-.37-1.93-.22-.13-.26-.38-.17-1.22,0-1.25.44,0,.42-.18-1.25-4.84-1.25-4.84l-.57-2.44Z"/><path class="cls-19" d="M144.65,292.07a.81.81,0,0,0-.6.42l-.17-.12s.11-.46-.06-.54a2.9,2.9,0,0,0-1.14,0l.17-.34.88,0,1,.08Z"/><path class="cls-19" d="M145.8,292.56s0,.74-.27.88c0,0-.39-.12-.4-.23s0-.6-.13-.79a2.85,2.85,0,0,0-.35-.35l.13-.54,1.07,1Z"/><path class="cls-22" d="M143,300s-.25,0-.27-.24a9.4,9.4,0,0,1,0-1.3,2.21,2.21,0,0,1,.12-.64.18.18,0,0,1,.16-.08Z"/><path class="cls-15" d="M142.93,301.37l-.1-3.25a2.72,2.72,0,0,1,.22-1.05,14.2,14.2,0,0,1,.91-1.85,8.43,8.43,0,0,1,.81-.59l.26.36v1.66l-.24,3.34-.21,1.6-.9.31Z"/><path class="cls-22" d="M144.31,305.24a.68.68,0,0,1-.22.62,1.57,1.57,0,0,0-.46.91c0,.14-.12.34-.27.29s-.12-.23-.07-.38a1.32,1.32,0,0,0,.06-.38l-.37.77s-.23.23-.35,0c0,0-.39.22-.43-.15,0,0,0-.18.08-.23s-.23,0-.22-.21a1.61,1.61,0,0,1,.32-.68,6.17,6.17,0,0,0,.59-.73c.08-.16.32-.12.32-.12Z"/><path class="cls-15" d="M143.3,304.94l1,.3a.68.68,0,0,1-.22.62,1.57,1.57,0,0,0-.46.91c0,.15-.12.35-.27.29s-.12-.23-.07-.38a1.29,1.29,0,0,0,.06-.38l-.37.77s-.23.23-.34,0c0,0-.39.22-.43-.15,0,0,0-.18.08-.23s-.23,0-.22-.21a1.61,1.61,0,0,1,.32-.68,6.2,6.2,0,0,0,.59-.73.28.28,0,0,1,.26-.13h.06"/><g class="cls-35"><g class="cls-36"><rect class="cls-15" x="141.61" y="304.52" width="3.22" height="3.2" transform="translate(-193.5 277.09) rotate(-60)"/></g></g><path class="cls-22" d="M145.88,294.43a3.52,3.52,0,0,1,1.38,3.32,18.36,18.36,0,0,1-2.73,7.78,2.68,2.68,0,0,1-1.47-.63A19.39,19.39,0,0,0,144.2,300c.08-2.09-.08-4.08.63-4.3a1.22,1.22,0,0,1,.61-.1l0-1Z"/><path class="cls-15" d="M145.32,295.59a1.4,1.4,0,0,1,1.51,1.23,13.27,13.27,0,0,1-.28,4.16l0,.07a11.81,11.81,0,0,0,.71-3.78,4,4,0,0,0-.81-2.42,1.86,1.86,0,0,1-.5-.7h-.58l-.38.72Z"/><path class="cls-22" d="M146,294.4a.76.76,0,0,0-.37-.64c-.41-.31-1.46.67-1.46.67s-.59.55-.52,1,.15.87.24.79.46-1.08,1.15-1.47a2.67,2.67,0,0,1,1-.4"/><path class="cls-34" d="M145.33,294.63l0,1-.85.22v-.66s.52-.5.86-.51"/><path class="cls-34" d="M145.3,313.47c.07.74-.16-2.85,0-3.44.25-.91,1.58,3.44,1.58,3.44Z"/><polygon class="cls-15" points="140.73 317.91 141.66 317.91 141.66 310.32 139.8 310.32 140.73 317.91"/><polygon class="cls-15" points="138.9 315.53 139.74 315.13 137.79 311.03 136.12 311.83 138.9 315.53"/><path class="cls-18" d="M140.55,302.88l4.2,7.44s-1.39-.12-1.45.42c-.3.48-2.74,1.51-3.09.85s-2.26-.36-2.85-.12-2.65.6-2.77,0-1.51-.79-1.51-.79l4.55-7.39Z"/><path class="cls-19" d="M141.69,317.85s.26.66,0,.78-3.65.27-3.65.27-.65,0-.59-.22,1-.44,1.28-.51a4.4,4.4,0,0,1,1.46-.45c.44.06,1.49.14,1.49.14"/><path class="cls-15" d="M138,294.8s-.66,1-1.4.73c-.32-.06-.24-.54-.24-.54s-.14-.2-.09-.25a.26.26,0,0,1,0-.21s0-.24,0-.26-.29,0-.31,0-.13-.15.14-.54.14-.24.14-.24a.26.26,0,0,1,0-.29.86.86,0,0,1,.06-.33.27.27,0,0,1,.27-.15h1.26l.62,0Z"/><polygon class="cls-15" points="139.35 294.31 139.35 295.14 137.93 295.6 137.93 294.99 138.39 292.58 138.41 292.53 139.54 293.29 139.35 294.31"/><path class="cls-19" d="M138.59,293.46l-1-.14s.12-.5-.06-.6a3.19,3.19,0,0,0-1.25,0l.19-.38,1,0,1.14.09Z"/><path class="cls-20" d="M139.69,293.54s0,.82-.29,1c0,0-.43-.13-.45-.26s0-.66-.15-.87a3.14,3.14,0,0,0-.38-.38l.14-.59,1.17,1.05Z"/><path class="cls-20" d="M137.62,303.29l-1.21-3.63a3,3,0,0,1,.25-1.16,15.64,15.64,0,0,1,1-2,9.29,9.29,0,0,1,.89-.65l.28.4V298l-.27,3.68-.23,1.76h0Z"/><path class="cls-22" d="M138,307.51a.75.75,0,0,1-.25.69,1.73,1.73,0,0,0-.5,1c0,.16-.13.38-.29.32s-.13-.26-.07-.42a1.45,1.45,0,0,0,.06-.42l-.4.84s-.26.26-.38,0c0,0-.43.25-.48-.17,0,0,0-.2.08-.26s-.26,0-.24-.23a1.77,1.77,0,0,1,.36-.75,6.79,6.79,0,0,0,.65-.81c.09-.18.36-.14.36-.14Z"/><path class="cls-15" d="M137.18,307.18l.87.26a.59.59,0,0,1-.19.54,1.35,1.35,0,0,0-.39.78c0,.13-.11.3-.23.25s-.1-.2-.06-.33a1.11,1.11,0,0,0,0-.33l-.32.66s-.2.2-.3,0c0,0-.33.19-.37-.13,0,0,0-.15.07-.2s-.2,0-.19-.18a1.38,1.38,0,0,1,.28-.58,5.33,5.33,0,0,0,.51-.63.24.24,0,0,1,.22-.11h.05"/><g class="cls-37"><g class="cls-38"><rect class="cls-15" x="135.72" y="306.82" width="2.77" height="2.75" transform="translate(-198.35 272.83) rotate(-60)"/></g></g><path class="cls-19" d="M139.77,295.6a3.87,3.87,0,0,1,1.52,3.65,20.23,20.23,0,0,1-3,8.58,3,3,0,0,1-1.62-.69,21.36,21.36,0,0,0,1.27-5.42c.08-2.3-.09-4.49.69-4.74a1.35,1.35,0,0,1,.68-.12l0-1.06Z"/><path class="cls-20" d="M139.15,296.87a1.55,1.55,0,0,1,1.67,1.35,14.62,14.62,0,0,1-.31,4.58l0,.08a13,13,0,0,0,.79-4.16,4.36,4.36,0,0,0-.9-2.67,2,2,0,0,1-.55-.77h-.64l-.41.8Z"/><path class="cls-22" d="M140,295.57a.83.83,0,0,0-.41-.7c-.45-.34-1.61.74-1.61.74s-.65.6-.57,1.15.17,1,.26.87.51-1.19,1.26-1.62a2.94,2.94,0,0,1,1.06-.44"/><path class="cls-19" d="M139.17,295.82l0,1.06-.93.24v-.73s.58-.55,1-.57"/><path class="cls-19" d="M139.73,314.59s.57.41.46.62-2.46,2-2.46,2-.47.32-.55.11-.16-.61,0-.77a10.27,10.27,0,0,1,1.4-1.34c.35-.17,1.15-.61,1.15-.61"/><path class="cls-19" d="M138,292.39a4.16,4.16,0,0,1-.29,3.22l2-.32a4.93,4.93,0,0,0,0-3.25,1.14,1.14,0,0,0-.92-.67c-.8-.09-2.15-.07-2.49,1a7.12,7.12,0,0,0,1.06.37l1.82-.2"/><path class="cls-19" d="M137.57,293.33l-1.67-.08s-.12-1.31.84-1.38,1.2-.07,1.2-.07Z"/><polygon class="cls-14" points="105.81 316.66 104.89 316.66 104.89 309.07 106.74 309.07 105.81 316.66"/><polygon class="cls-14" points="107.64 314.28 106.8 313.88 108.75 309.78 110.43 310.58 107.64 314.28"/><path class="cls-28" d="M106,301.63l-4.2,7.44s1.39-.12,1.45.42c.3.48,2.74,1.51,3.09.85s2.26-.36,2.85-.12,2.65.6,2.77,0,1.51-.79,1.51-.79L108.92,302Z"/><path class="cls-19" d="M104.86,316.6s-.26.66,0,.78,3.65.27,3.65.27.65,0,.59-.22-1-.44-1.28-.51a4.4,4.4,0,0,0-1.46-.45c-.44.06-1.49.14-1.49.14"/><path class="cls-14" d="M108.54,293.55s.66,1,1.4.73c.32-.06.24-.54.24-.54s.14-.2.09-.25a.26.26,0,0,0,0-.21s0-.24,0-.26.29,0,.31,0,.13-.15-.14-.54-.14-.24-.14-.24a.26.26,0,0,0,0-.29.86.86,0,0,0-.06-.33.27.27,0,0,0-.27-.15h-1.26l-.62,0Z"/><polygon class="cls-14" points="107.19 293.07 107.19 293.89 108.61 294.35 108.61 293.74 108.15 291.33 108.13 291.28 107 292.04 107.19 293.07"/><path class="cls-19" d="M108,292.21l1-.14s-.12-.5.06-.6a3.19,3.19,0,0,1,1.25,0l-.19-.38-1,0-1.14.09Z"/><path class="cls-28" d="M106.86,292.29s0,.82.29,1c0,0,.43-.13.45-.26s0-.66.15-.87a3.14,3.14,0,0,1,.38-.38l-.14-.59-1.17,1.05Z"/><path class="cls-28" d="M108.92,302l1.21-3.63a3,3,0,0,0-.25-1.16,15.64,15.64,0,0,0-1-2,9.29,9.29,0,0,0-.89-.65l-.28.4v1.82l.27,3.68.23,1.76h0Z"/><path class="cls-14" d="M109.37,305.93l-.87.26a.59.59,0,0,0,.19.54,1.35,1.35,0,0,1,.39.78c0,.13.11.3.23.25s.1-.2.06-.33a1.11,1.11,0,0,1,0-.33l.32.66s.2.2.3,0c0,0,.33.19.37-.13,0,0,0-.15-.07-.2s.2,0,.19-.18a1.38,1.38,0,0,0-.28-.58,5.33,5.33,0,0,1-.51-.63.24.24,0,0,0-.22-.11h-.05"/><g class="cls-39"><g class="cls-40"><rect class="cls-14" x="108.06" y="305.56" width="2.75" height="2.77" transform="translate(-138.81 95.84) rotate(-30)"/></g></g><path class="cls-21" d="M106.77,294.35a3.87,3.87,0,0,0-1.52,3.65,20.23,20.23,0,0,0,3,8.58,3,3,0,0,0,1.62-.69,21.36,21.36,0,0,1-1.27-5.42c-.08-2.3.09-4.49-.69-4.74a1.35,1.35,0,0,0-.68-.12l0-1.06Z"/><path class="cls-28" d="M107.39,295.62a1.55,1.55,0,0,0-1.67,1.35,14.62,14.62,0,0,0,.31,4.58l0,.08a13,13,0,0,1-.79-4.16,4.36,4.36,0,0,1,.9-2.67,2,2,0,0,0,.55-.77h.64l.41.8Z"/><path class="cls-21" d="M106.59,294.32a.83.83,0,0,1,.41-.7c.45-.34,1.61.74,1.61.74s.65.6.57,1.15-.17,1-.26.87-.51-1.19-1.26-1.62a2.94,2.94,0,0,0-1.06-.44"/><path class="cls-21" d="M107.37,294.57l0,1.06.93.24v-.73s-.58-.55-1-.57"/><path class="cls-19" d="M106.81,313.34s-.57.41-.46.62,2.46,2,2.46,2,.47.32.55.11.16-.61,0-.77A10.27,10.27,0,0,0,108,314c-.35-.17-1.15-.61-1.15-.61"/><path class="cls-19" d="M108.56,291.14a4.16,4.16,0,0,0,.29,3.22l-2-.32a4.93,4.93,0,0,1,0-3.25,1.14,1.14,0,0,1,.92-.67c.8-.09,2.15-.07,2.49,1a7.12,7.12,0,0,1-1.06.37l-1.82-.2"/><path class="cls-19" d="M109,292.08l1.67-.08s.12-1.31-.84-1.38-1.2-.07-1.2-.07Z"/><path class="cls-20" d="M161.23,316.3s0,.69.19.73,3-.62,3-.62.53-.15.42-.34-.36-.5-.59-.48a10,10,0,0,0-1.88.22c-.35.16-1.18.48-1.18.48"/><polygon class="cls-20" points="162.59 316.09 160.95 316.53 156.24 303.58 157.87 303.14 162.59 316.09"/><path class="cls-20" d="M163.51,315.74a6.41,6.41,0,0,0-.81-1.5,4.63,4.63,0,0,1-.37-1,1.25,1.25,0,0,0-.52-.62c-.31-.23-.59-1.32-.59-1.32a.25.25,0,0,1-.23-.21c0-.2.17-.31.14-.45s-.34-1.59-.57-2.39c-.07-.32-.93-3.57-.93-3.57l-1,.21.43,2.22.38-.05,1,5s.26,0,.45.64.25.58,0,.95c.13.64.48,1.91.48,1.91l.17.76a.07.07,0,0,0,.09,0l1.76-.46a.08.08,0,0,0,.06-.11"/><polygon class="cls-22" points="159.98 305.4 155.94 304.56 156.56 300.04 160.22 300.63 159.98 305.4"/><ellipse class="cls-20" cx="159.02" cy="290.13" rx="1.97" ry="1.84"/><path class="cls-19" d="M155.07,317.11s-.25.65,0,.76,3.56.26,3.56.26.63,0,.58-.21-1-.43-1.25-.5a4.3,4.3,0,0,0-1.42-.44c-.43.06-1.46.13-1.46.13"/><path class="cls-15" d="M159,292.23s.65.93,1.37.71c.31-.06.23-.53.23-.53s.13-.19.09-.24a.25.25,0,0,0,0-.2s0-.23,0-.25.28,0,.3,0,.12-.15-.14-.53-.14-.24-.14-.24a.26.26,0,0,0,0-.29.84.84,0,0,0-.06-.32.26.26,0,0,0-.26-.15h-1.23l-.6,0Z"/><polygon class="cls-15" points="157.69 291.75 157.69 292.56 159.08 293.01 159.08 292.41 158.63 290.06 158.6 290.01 157.51 290.75 157.69 291.75"/><path class="cls-20" d="M155.93,304.56a15.62,15.62,0,0,1-.35,5.59,21,21,0,0,0-.64,5.47c.07.24-.17.62-.23.91s-.2.88-.11.89a8.39,8.39,0,0,0,1.56.12c.19-.08.85-.19.92-.45s.32-1.95.4-2.08.23-.14.28-.41.18-1.31,0-1.35-.48,0-.45-.19,1.35-5.21,1.35-5.21l.62-2.62Z"/><path class="cls-20" d="M158.6,290.47a.87.87,0,0,1,.65.45l.18-.13s-.12-.49.06-.58a3.12,3.12,0,0,1,1.22,0l-.19-.37-.95,0-1.11.09Z"/><path class="cls-20" d="M157.36,291s0,.8.29,1c0,0,.42-.13.44-.25s0-.64.14-.85a3.07,3.07,0,0,1,.37-.37l-.14-.58-1.15,1Z"/><path class="cls-19" d="M160.37,299s.27,0,.3-.26a10.11,10.11,0,0,0,0-1.4,2.38,2.38,0,0,0-.12-.69.19.19,0,0,0-.17-.09Z"/><path class="cls-19" d="M160.45,300.48l.11-3.5a2.93,2.93,0,0,0-.24-1.13,15.28,15.28,0,0,0-1-2,9.07,9.07,0,0,0-.87-.63l-.28.39v1.78l.26,3.59.23,1.72,1,.33Z"/><path class="cls-22" d="M159,304.64a.74.74,0,0,0,.24.67,1.69,1.69,0,0,1,.49,1c0,.16.13.37.29.31s.13-.25.07-.41a1.42,1.42,0,0,1-.06-.41l.39.83s.25.25.37,0c0,0,.42.24.47-.17,0,0,0-.19-.08-.25s.25,0,.24-.23a1.73,1.73,0,0,0-.35-.73,6.64,6.64,0,0,1-.63-.79c-.09-.17-.35-.13-.35-.13Z"/><path class="cls-15" d="M160.06,304.32l-1.09.32a.74.74,0,0,0,.24.67,1.69,1.69,0,0,1,.49,1c0,.16.13.37.29.31s.13-.25.07-.41a1.39,1.39,0,0,1-.06-.41l.4.83s.25.25.37,0c0,0,.42.24.47-.17,0,0,0-.19-.08-.25s.25,0,.24-.23a1.73,1.73,0,0,0-.35-.73,6.67,6.67,0,0,1-.63-.79.3.3,0,0,0-.28-.14h-.07"/><g class="cls-41"><g class="cls-42"><rect class="cls-15" x="158.42" y="303.86" width="3.44" height="3.46" transform="translate(-131.34 121.01) rotate(-30)"/></g></g><path class="cls-22" d="M157.28,293a3.78,3.78,0,0,0-1.48,3.57,19.76,19.76,0,0,0,2.94,8.38,2.88,2.88,0,0,0,1.58-.68,20.87,20.87,0,0,1-1.24-5.3c-.08-2.25.09-4.39-.68-4.63a1.32,1.32,0,0,0-.66-.11l0-1Z"/><path class="cls-19" d="M155.79,296.58a19.78,19.78,0,0,0,2.94,8.38,2.88,2.88,0,0,0,1.58-.68,20.87,20.87,0,0,1-1.24-5.3c-.08-2.25.09-4.39-.68-4.62a1.31,1.31,0,0,0-.66-.11l0-1-.49-.2a3.79,3.79,0,0,0-1.48,3.57"/><path class="cls-19" d="M157.88,294.25a1.51,1.51,0,0,0-1.63,1.32,14.28,14.28,0,0,0,.3,4.47l0,.07a12.71,12.71,0,0,1-.77-4.06,4.26,4.26,0,0,1,.88-2.6,2,2,0,0,0,.54-.75h.63l.4.78Z"/><path class="cls-19" d="M157.1,293a.81.81,0,0,1,.4-.68c.44-.33,1.57.72,1.57.72s.64.59.55,1.12-.16.93-.26.85-.49-1.16-1.23-1.58a2.87,2.87,0,0,0-1-.43"/><path class="cls-19" d="M157.86,293.22l0,1,.91.23v-.71s-.56-.54-.93-.55"/><path class="cls-20" d="M157.9,313.49c-.08.8.18-3.07,0-3.7-.27-1-1.7,3.7-1.7,3.7Z"/><polygon class="cls-14" points="89.09 317.11 90.02 317.11 90.02 309.52 88.16 309.52 89.09 317.11"/><polygon class="cls-14" points="87.26 314.74 88.1 314.34 86.15 310.24 84.48 311.03 87.26 314.74"/><path class="cls-16" d="M88.91,302.09l4.2,7.44s-1.39-.12-1.45.42c-.3.48-2.74,1.51-3.09.85s-2.26-.36-2.85-.12-2.65.6-2.77,0-1.51-.79-1.51-.79L86,302.5Z"/><path class="cls-16" d="M90,317.05s.26.66,0,.78-3.65.27-3.65.27-.65,0-.59-.22,1-.44,1.28-.51a4.4,4.4,0,0,1,1.46-.45c.44.06,1.49.14,1.49.14"/><path class="cls-18" d="M86.36,294s-.66,1-1.4.73c-.32-.06-.24-.54-.24-.54s-.14-.2-.09-.25a.26.26,0,0,1,0-.21s0-.24,0-.26-.29,0-.31,0-.13-.15.14-.54.14-.24.14-.24a.26.26,0,0,1,0-.29.86.86,0,0,1,.06-.33.27.27,0,0,1,.27-.15h1.26l.62,0Z"/><polygon class="cls-14" points="87.71 293.52 87.71 294.35 86.29 294.81 86.29 294.2 86.75 291.79 86.78 291.74 87.9 292.49 87.71 293.52"/><path class="cls-19" d="M86.95,292.67l-1-.14s.12-.5-.06-.6a3.19,3.19,0,0,0-1.25,0l.19-.38,1,0,1.14.09Z"/><path class="cls-28" d="M88,292.75s0,.82-.29,1c0,0-.43-.13-.45-.26s0-.66-.15-.87a3.14,3.14,0,0,0-.38-.38l.14-.59,1.17,1.05Z"/><path class="cls-28" d="M86,302.5l-1.21-3.63a3,3,0,0,1,.25-1.16,15.64,15.64,0,0,1,1-2,9.29,9.29,0,0,1,.89-.65l.28.4v1.82l-.27,3.68-.23,1.76h0Z"/><path class="cls-14" d="M85.54,306.39l.87.26a.59.59,0,0,1-.19.54,1.35,1.35,0,0,0-.39.78c0,.13-.11.3-.23.25s-.1-.2-.06-.33a1.11,1.11,0,0,0,0-.33l-.32.66s-.2.2-.3,0c0,0-.33.19-.37-.13,0,0,0-.15.07-.2s-.2,0-.19-.18a1.38,1.38,0,0,1,.28-.58,5.33,5.33,0,0,0,.51-.63.24.24,0,0,1,.22-.11h.05"/><g class="cls-43"><g class="cls-44"><rect class="cls-14" x="84.08" y="306.03" width="2.77" height="2.75" transform="translate(-223.49 227.72) rotate(-60)"/></g></g><path class="cls-19" d="M88.13,294.81a3.87,3.87,0,0,1,1.52,3.65,20.23,20.23,0,0,1-3,8.58,3,3,0,0,1-1.62-.69,21.36,21.36,0,0,0,1.27-5.42c.08-2.3-.09-4.49.69-4.74a1.35,1.35,0,0,1,.68-.12l0-1.06Z"/><path class="cls-28" d="M87.51,296.08a1.55,1.55,0,0,1,1.67,1.35,14.62,14.62,0,0,1-.31,4.58l0,.08a13,13,0,0,0,.79-4.16,4.36,4.36,0,0,0-.9-2.67,2,2,0,0,1-.55-.77h-.64l-.41.8Z"/><path class="cls-18" d="M88.31,294.77a.83.83,0,0,0-.41-.7c-.45-.34-1.61.74-1.61.74s-.65.6-.57,1.15.17,1,.26.87.51-1.19,1.26-1.62a2.94,2.94,0,0,1,1.06-.44"/><path class="cls-19" d="M87.53,295l0,1.06-.93.24v-.73s.58-.55,1-.57"/><path class="cls-16" d="M88.09,313.79s.57.41.46.62-2.46,2-2.46,2-.47.32-.55.11-.16-.61,0-.77a10.27,10.27,0,0,1,1.4-1.34c.35-.17,1.15-.61,1.15-.61"/><path class="cls-19" d="M86.34,291.59a4.16,4.16,0,0,1-.29,3.22l2-.32a4.93,4.93,0,0,0,0-3.25,1.14,1.14,0,0,0-.92-.67c-.8-.09-2.15-.07-2.49,1a7.12,7.12,0,0,0,1.06.37l1.82-.2"/><path class="cls-19" d="M85.93,292.53l-1.67-.08s-.12-1.31.84-1.38,1.2-.07,1.2-.07Z"/><polygon class="cls-15" points="148.59 316.61 147.66 316.61 147.66 309.02 149.52 309.02 148.59 316.61"/><polygon class="cls-15" points="150.42 314.24 149.58 313.84 151.52 309.74 153.2 310.54 150.42 314.24"/><path class="cls-21" d="M148.77,301.59l-4.2,7.44s1.39-.12,1.45.42c.3.48,2.74,1.51,3.09.85s2.26-.36,2.85-.12,2.65.6,2.77,0,1.51-.79,1.51-.79L151.69,302Z"/><path class="cls-19" d="M147.63,316.55s-.26.66,0,.78,3.65.27,3.65.27.65,0,.59-.22-1-.44-1.28-.51a4.4,4.4,0,0,0-1.46-.45c-.44.06-1.49.14-1.49.14"/><path class="cls-15" d="M151.31,293.51s.66,1,1.4.73c.32-.06.24-.54.24-.54s.14-.2.09-.25a.26.26,0,0,0,0-.21s0-.24,0-.26.29,0,.31,0,.13-.15-.14-.54-.14-.24-.14-.24a.26.26,0,0,0,0-.29.86.86,0,0,0-.06-.33.27.27,0,0,0-.27-.15h-1.26l-.62,0Z"/><polygon class="cls-15" points="149.97 293.02 149.97 293.85 151.39 294.31 151.39 293.7 150.93 291.29 150.9 291.24 149.78 291.99 149.97 293.02"/><path class="cls-19" d="M150.73,292.17l1-.14s-.12-.5.06-.6a3.19,3.19,0,0,1,1.25,0l-.19-.38-1,0-1.14.09Z"/><path class="cls-20" d="M149.63,292.25s0,.82.29,1c0,0,.43-.13.45-.26s0-.66.15-.87a3.14,3.14,0,0,1,.38-.38l-.14-.59-1.17,1.05Z"/><path class="cls-21" d="M151.69,302l1.21-3.63a3,3,0,0,0-.25-1.16,15.64,15.64,0,0,0-1-2,9.29,9.29,0,0,0-.89-.65l-.28.4v1.82l.27,3.68.23,1.76h0Z"/><path class="cls-15" d="M152.14,305.89l-.87.26a.59.59,0,0,0,.19.54,1.35,1.35,0,0,1,.39.78c0,.13.11.3.23.25s.1-.2.06-.33a1.11,1.11,0,0,1,0-.33l.32.66s.2.2.3,0c0,0,.33.19.37-.13,0,0,0-.15-.07-.2s.2,0,.19-.18a1.38,1.38,0,0,0-.28-.58,5.33,5.33,0,0,1-.51-.63.24.24,0,0,0-.22-.11h-.05"/><g class="cls-45"><g class="cls-46"><rect class="cls-15" x="150.84" y="305.52" width="2.75" height="2.77" transform="translate(-133.06 117.22) rotate(-30)"/></g></g><path class="cls-34" d="M149.54,294.31A3.87,3.87,0,0,0,148,298a20.23,20.23,0,0,0,3,8.58,3,3,0,0,0,1.62-.69,21.36,21.36,0,0,1-1.27-5.42c-.08-2.3.09-4.49-.69-4.74a1.35,1.35,0,0,0-.68-.12l0-1.06Z"/><path class="cls-21" d="M150.16,295.58a1.55,1.55,0,0,0-1.67,1.35,14.62,14.62,0,0,0,.31,4.58l0,.08a13,13,0,0,1-.79-4.16,4.36,4.36,0,0,1,.9-2.67,2,2,0,0,0,.55-.77h.64l.41.8Z"/><path class="cls-34" d="M149.37,294.27a.83.83,0,0,1,.41-.7c.45-.34,1.61.74,1.61.74s.65.6.57,1.15-.17,1-.26.87-.51-1.19-1.26-1.62a2.94,2.94,0,0,0-1.06-.44"/><path class="cls-34" d="M150.15,294.53l0,1.06.93.24v-.73s-.58-.55-1-.57"/><path class="cls-19" d="M149.59,313.29s-.57.41-.46.62,2.46,2,2.46,2,.47.32.55.11.16-.61,0-.77a10.27,10.27,0,0,0-1.4-1.34c-.35-.17-1.15-.61-1.15-.61"/><path class="cls-19" d="M151.34,291.09a4.16,4.16,0,0,0,.29,3.22l-2-.32a4.93,4.93,0,0,1,0-3.25,1.14,1.14,0,0,1,.92-.67c.8-.09,2.15-.07,2.49,1a7.12,7.12,0,0,1-1.06.37l-1.82-.2"/><path class="cls-19" d="M151.75,292l1.67-.08s.12-1.31-.84-1.38-1.2-.07-1.2-.07Z"/><polygon class="cls-15" points="159.03 318.16 158.1 318.16 158.1 310.57 159.96 310.57 159.03 318.16"/><polygon class="cls-15" points="160.86 315.78 160.02 315.38 161.97 311.28 163.65 312.08 160.86 315.78"/><path class="cls-22" d="M159.21,303.13l-4.2,7.44s1.39-.12,1.45.42c.3.48,2.74,1.51,3.09.85s2.26-.36,2.85-.12,2.65.6,2.77,0,1.51-.79,1.51-.79l-4.55-7.39Z"/><path class="cls-20" d="M158.07,318.1s-.26.66,0,.78,3.65.27,3.65.27.65,0,.59-.22-1-.44-1.28-.51a4.4,4.4,0,0,0-1.46-.45c-.44.06-1.49.14-1.49.14"/><path class="cls-15" d="M161.76,295.06s.66,1,1.4.73c.32-.06.24-.54.24-.54s.14-.2.09-.25a.26.26,0,0,0,0-.21s0-.24,0-.26.29,0,.31,0,.13-.15-.14-.54-.14-.24-.14-.24a.26.26,0,0,0,0-.29.86.86,0,0,0-.06-.33.27.27,0,0,0-.27-.15H162l-.62,0Z"/><polygon class="cls-15" points="160.41 294.57 160.41 295.39 161.83 295.86 161.83 295.25 161.37 292.83 161.35 292.78 160.22 293.54 160.41 294.57"/><path class="cls-20" d="M161.17,293.72l1-.14s-.12-.5.06-.6a3.19,3.19,0,0,1,1.25,0l-.19-.38-1,0-1.14.09Z"/><path class="cls-20" d="M160.08,293.79s0,.82.29,1c0,0,.43-.13.45-.26s0-.66.15-.87a3.14,3.14,0,0,1,.38-.38l-.14-.59L160,293.72Z"/><path class="cls-20" d="M162.14,303.55l1.21-3.63a3,3,0,0,0-.25-1.16,15.64,15.64,0,0,0-1-2,9.29,9.29,0,0,0-.89-.65l-.28.4v1.82l.27,3.68.23,1.76h0Z"/><path class="cls-22" d="M161.72,307.76a.75.75,0,0,0,.25.69,1.73,1.73,0,0,1,.5,1c0,.16.13.38.29.32s.13-.26.07-.42a1.45,1.45,0,0,1-.06-.42l.4.84s.26.26.38,0c0,0,.43.25.48-.17,0,0,0-.2-.08-.26s.26,0,.24-.23a1.77,1.77,0,0,0-.36-.75,6.79,6.79,0,0,1-.65-.81c-.09-.18-.36-.14-.36-.14Z"/><path class="cls-15" d="M162.59,307.43l-.87.26a.59.59,0,0,0,.19.54,1.35,1.35,0,0,1,.39.78c0,.13.11.3.23.25s.1-.2.06-.33a1.11,1.11,0,0,1,0-.33l.32.66s.2.2.3,0c0,0,.33.19.37-.13,0,0,0-.15-.07-.2s.2,0,.19-.18a1.38,1.38,0,0,0-.28-.58,5.33,5.33,0,0,1-.51-.63.24.24,0,0,0-.22-.11h-.05"/><g class="cls-47"><g class="cls-48"><rect class="cls-15" x="161.28" y="307.06" width="2.75" height="2.77" transform="translate(-132.43 122.65) rotate(-30)"/></g></g><path class="cls-19" d="M160,295.86a3.87,3.87,0,0,0-1.52,3.65,20.23,20.23,0,0,0,3,8.58,3,3,0,0,0,1.62-.69,21.36,21.36,0,0,1-1.27-5.42c-.08-2.3.09-4.49-.69-4.74a1.35,1.35,0,0,0-.68-.12l0-1.06Z"/><path class="cls-20" d="M160.61,297.13a1.55,1.55,0,0,0-1.67,1.35,14.62,14.62,0,0,0,.31,4.58l0,.08a13,13,0,0,1-.79-4.16,4.36,4.36,0,0,1,.9-2.67,2,2,0,0,0,.55-.77h.64l.41.8Z"/><path class="cls-22" d="M159.81,295.82a.83.83,0,0,1,.41-.7c.45-.34,1.61.74,1.61.74s.65.6.57,1.15-.17,1-.26.87-.51-1.19-1.26-1.62a2.94,2.94,0,0,0-1.06-.44"/><path class="cls-19" d="M160.59,296.07l0,1.06.93.24v-.73s-.58-.55-1-.57"/><path class="cls-19" d="M160,314.84s-.57.41-.46.62,2.46,2,2.46,2,.47.32.55.11.16-.61,0-.77a10.27,10.27,0,0,0-1.4-1.34c-.35-.17-1.15-.61-1.15-.61"/><path class="cls-20" d="M161.78,292.64a4.16,4.16,0,0,0,.29,3.22l-2-.32a4.93,4.93,0,0,1,0-3.25,1.14,1.14,0,0,1,.92-.67c.8-.09,2.15-.07,2.49,1a7.12,7.12,0,0,1-1.06.37l-1.82-.2"/><path class="cls-20" d="M162.19,293.58l1.67-.08s.12-1.31-.84-1.38-1.2-.07-1.2-.07Z"/><path class="cls-19" d="M167.58,316.55s0,.69-.19.73-3-.62-3-.62-.53-.15-.42-.34.36-.5.59-.48a10,10,0,0,1,1.88.22c.35.16,1.18.48,1.18.48"/><polygon class="cls-28" points="166.23 316.34 167.86 316.78 172.58 303.83 170.94 303.39 166.23 316.34"/><path class="cls-28" d="M165.3,316a6.41,6.41,0,0,1,.81-1.5,4.63,4.63,0,0,0,.37-1,1.25,1.25,0,0,1,.52-.62c.31-.23.59-1.32.59-1.32a.25.25,0,0,0,.23-.21c0-.2-.17-.31-.14-.45s.34-1.59.57-2.39c.07-.32.93-3.57.93-3.57l1,.21-.43,2.22-.38-.05-1,5s-.26,0-.45.64-.25.58,0,.95c-.13.64-.48,1.91-.48,1.91l-.17.76a.07.07,0,0,1-.09,0l-1.76-.46a.08.08,0,0,1-.06-.11"/><polygon class="cls-19" points="168.83 305.65 172.88 304.81 172.25 300.29 168.59 300.88 168.83 305.65"/><ellipse class="cls-28" cx="169.79" cy="290.38" rx="1.97" ry="1.84"/><path class="cls-19" d="M173.74,317.37s.25.65,0,.76-3.56.26-3.56.26-.63,0-.58-.21,1-.43,1.25-.5a4.3,4.3,0,0,1,1.42-.44c.43.06,1.46.13,1.46.13"/><path class="cls-14" d="M169.81,292.48s-.65.93-1.37.71c-.31-.06-.23-.53-.23-.53s-.13-.19-.09-.24a.25.25,0,0,1,0-.2s0-.23,0-.25-.28,0-.3,0-.12-.15.14-.53.14-.24.14-.24a.26.26,0,0,1,0-.29.84.84,0,0,1,.06-.32.26.26,0,0,1,.26-.15h1.23l.6,0Z"/><polygon class="cls-14" points="171.12 292 171.12 292.81 169.73 293.26 169.73 292.67 170.18 290.31 170.21 290.26 171.31 291 171.12 292"/><path class="cls-28" d="M172.88,304.81a15.62,15.62,0,0,0,.35,5.59,21,21,0,0,1,.64,5.47c-.07.24.17.62.23.91s.2.88.11.89a8.39,8.39,0,0,1-1.56.12c-.19-.08-.85-.19-.92-.45s-.32-1.95-.4-2.08-.23-.14-.28-.41-.18-1.31,0-1.35.48,0,.45-.19-1.35-5.21-1.35-5.21l-.62-2.62Z"/><path class="cls-28" d="M170.21,290.72a.87.87,0,0,0-.65.45l-.18-.13s.12-.49-.06-.58a3.12,3.12,0,0,0-1.22,0l.19-.37.95,0,1.11.09Z"/><path class="cls-28" d="M171.45,291.25s0,.8-.29,1c0,0-.42-.13-.44-.25s0-.64-.14-.85a3.07,3.07,0,0,0-.37-.37l.14-.58,1.15,1Z"/><path class="cls-19" d="M168.45,299.23s-.27,0-.3-.26a10.11,10.11,0,0,1,0-1.4,2.38,2.38,0,0,1,.12-.69.19.19,0,0,1,.17-.09Z"/><path class="cls-19" d="M168.36,300.73l-.11-3.5a2.93,2.93,0,0,1,.24-1.13,15.28,15.28,0,0,1,1-2,9.07,9.07,0,0,1,.87-.63l.28.39v1.78l-.26,3.59-.23,1.72-1,.33Z"/><path class="cls-18" d="M169.85,304.89a.74.74,0,0,1-.24.67,1.69,1.69,0,0,0-.49,1c0,.16-.13.37-.29.31s-.13-.25-.07-.41a1.42,1.42,0,0,0,.06-.41l-.39.83s-.25.25-.37,0c0,0-.42.24-.47-.17,0,0,0-.19.08-.25s-.25,0-.24-.23a1.73,1.73,0,0,1,.35-.73,6.64,6.64,0,0,0,.63-.79c.09-.17.35-.13.35-.13Z"/><path class="cls-14" d="M168.76,304.57l1.09.32a.74.74,0,0,1-.24.67,1.69,1.69,0,0,0-.49,1c0,.16-.13.37-.29.31s-.13-.25-.07-.41a1.39,1.39,0,0,0,.06-.41l-.4.83s-.25.25-.37,0c0,0-.42.24-.47-.17,0,0,0-.19.08-.25s-.25,0-.24-.23a1.73,1.73,0,0,1,.35-.73,6.67,6.67,0,0,0,.63-.79.3.3,0,0,1,.28-.14h.07"/><g class="cls-49"><g class="cls-50"><rect class="cls-14" x="166.94" y="304.12" width="3.46" height="3.44" transform="translate(-180.53 298.99) rotate(-60)"/></g></g><path class="cls-19" d="M171.54,293.26a3.78,3.78,0,0,1,1.48,3.57,19.76,19.76,0,0,1-2.94,8.38,2.88,2.88,0,0,1-1.58-.68,20.87,20.87,0,0,0,1.24-5.3c.08-2.25-.09-4.39.68-4.63a1.32,1.32,0,0,1,.66-.11l0-1Z"/><path class="cls-19" d="M173,296.83a19.78,19.78,0,0,1-2.94,8.38,2.88,2.88,0,0,1-1.58-.68,20.87,20.87,0,0,0,1.24-5.3c.08-2.25-.09-4.39.68-4.62a1.31,1.31,0,0,1,.66-.11l0-1,.49-.2a3.79,3.79,0,0,1,1.48,3.57"/><path class="cls-19" d="M170.93,294.5a1.51,1.51,0,0,1,1.63,1.32,14.28,14.28,0,0,1-.3,4.47l0,.07a12.71,12.71,0,0,0,.77-4.06,4.26,4.26,0,0,0-.88-2.6,2,2,0,0,1-.54-.75H171l-.4.78Z"/><path class="cls-19" d="M171.71,293.22a.81.81,0,0,0-.4-.68c-.44-.33-1.57.72-1.57.72s-.64.59-.55,1.12.16.93.26.85.49-1.16,1.23-1.58a2.87,2.87,0,0,1,1-.43"/><path class="cls-19" d="M170.95,293.47l0,1-.91.23V294s.56-.54.93-.55"/><path class="cls-28" d="M170.91,313.74c.08.8-.18-3.07,0-3.7.27-1,1.7,3.7,1.7,3.7Z"/><polygon class="cls-15" points="160.08 317.89 159.15 317.89 159.15 310.3 161.01 310.3 160.08 317.89"/><polygon class="cls-15" points="161.91 315.51 161.07 315.11 163.01 311.01 164.69 311.81 161.91 315.51"/><path class="cls-22" d="M160.26,302.86l-4.2,7.44s1.39-.12,1.45.42c.3.48,2.74,1.51,3.09.85s2.26-.36,2.85-.12,2.65.6,2.77,0,1.51-.79,1.51-.79l-4.55-7.39Z"/><path class="cls-19" d="M159.12,317.83s-.26.66,0,.78,3.65.27,3.65.27.65,0,.59-.22-1-.44-1.28-.51a4.4,4.4,0,0,0-1.46-.45c-.44.06-1.49.14-1.49.14"/><path class="cls-15" d="M162.81,294.78s.66,1,1.4.73c.32-.06.24-.54.24-.54s.14-.2.09-.25a.26.26,0,0,0,0-.21s0-.24,0-.26.29,0,.31,0,.13-.15-.14-.54-.14-.24-.14-.24a.26.26,0,0,0,0-.29.86.86,0,0,0-.06-.33.27.27,0,0,0-.27-.15H163l-.62,0Z"/><polygon class="cls-15" points="161.46 294.3 161.46 295.12 162.88 295.58 162.88 294.98 162.42 292.56 162.39 292.51 161.27 293.27 161.46 294.3"/><path class="cls-20" d="M162.22,293.45l1-.14s-.12-.5.06-.6a3.19,3.19,0,0,1,1.25,0l-.19-.38-1,0-1.14.09Z"/><path class="cls-20" d="M161.12,293.52s0,.82.29,1c0,0,.43-.13.45-.26s0-.66.15-.87a3.14,3.14,0,0,1,.38-.38l-.14-.59-1.17,1.05Z"/><path class="cls-20" d="M163.18,303.27l1.21-3.63a3,3,0,0,0-.25-1.16,15.64,15.64,0,0,0-1-2,9.29,9.29,0,0,0-.89-.65l-.28.4V298l.27,3.68.23,1.76h0Z"/><path class="cls-22" d="M162.76,307.49a.75.75,0,0,0,.25.69,1.73,1.73,0,0,1,.5,1c0,.16.13.38.29.32s.13-.26.07-.42a1.45,1.45,0,0,1-.06-.42l.4.84s.26.26.38,0c0,0,.43.25.48-.17,0,0,0-.2-.08-.26s.26,0,.24-.23a1.77,1.77,0,0,0-.36-.75,6.79,6.79,0,0,1-.65-.81c-.09-.18-.36-.14-.36-.14Z"/><path class="cls-15" d="M163.63,307.16l-.87.26a.59.59,0,0,0,.19.54,1.35,1.35,0,0,1,.39.78c0,.13.11.3.23.25s.1-.2.06-.33a1.11,1.11,0,0,1,0-.33l.32.66s.2.2.3,0c0,0,.33.19.37-.13,0,0,0-.15-.07-.2s.2,0,.19-.18a1.38,1.38,0,0,0-.28-.58,5.33,5.33,0,0,1-.51-.63.24.24,0,0,0-.22-.11h-.05"/><g class="cls-51"><g class="cls-52"><rect class="cls-15" x="162.33" y="306.79" width="2.75" height="2.77" transform="translate(-132.16 123.14) rotate(-30)"/></g></g><path class="cls-19" d="M161,295.58a3.87,3.87,0,0,0-1.52,3.65,20.23,20.23,0,0,0,3,8.58,3,3,0,0,0,1.62-.69,21.36,21.36,0,0,1-1.27-5.42c-.08-2.3.09-4.49-.69-4.74a1.35,1.35,0,0,0-.68-.12l0-1.06Z"/><path class="cls-20" d="M161.65,296.85a1.55,1.55,0,0,0-1.67,1.35,14.62,14.62,0,0,0,.31,4.58l0,.08a13,13,0,0,1-.79-4.16,4.36,4.36,0,0,1,.9-2.67,2,2,0,0,0,.55-.77h.64l.41.8Z"/><path class="cls-22" d="M160.86,295.55a.83.83,0,0,1,.41-.7c.45-.34,1.61.74,1.61.74s.65.6.57,1.15-.17,1-.26.87-.51-1.19-1.26-1.62a2.94,2.94,0,0,0-1.06-.44"/><path class="cls-19" d="M161.64,295.8l0,1.06.93.24v-.73s-.58-.55-1-.57"/><path class="cls-19" d="M161.08,314.57s-.57.41-.46.62,2.46,2,2.46,2,.47.32.55.11.16-.61,0-.77a10.27,10.27,0,0,0-1.4-1.34c-.35-.17-1.15-.61-1.15-.61"/><path class="cls-20" d="M162.83,292.37a4.16,4.16,0,0,0,.29,3.22l-2-.32a4.93,4.93,0,0,1,0-3.25,1.14,1.14,0,0,1,.92-.67c.8-.09,2.15-.07,2.49,1a7.12,7.12,0,0,1-1.06.37l-1.82-.2"/><path class="cls-20" d="M163.24,293.31l1.67-.08s.12-1.31-.84-1.38-1.2-.07-1.2-.07Z"/><polygon class="cls-14" points="121.41 317.16 120.48 317.16 120.48 309.56 122.34 309.56 121.41 317.16"/><polygon class="cls-14" points="123.24 314.78 122.4 314.38 124.35 310.28 126.03 311.08 123.24 314.78"/><path class="cls-18" d="M121.59,302.13l-4.2,7.44s1.39-.12,1.45.42c.3.48,2.74,1.51,3.09.85s2.26-.36,2.85-.12,2.65.6,2.77,0,1.51-.79,1.51-.79l-4.55-7.39Z"/><path class="cls-18" d="M120.46,317.1s-.26.66,0,.78,3.65.27,3.65.27.65,0,.59-.22-1-.44-1.28-.51a4.4,4.4,0,0,0-1.46-.45c-.44.06-1.49.14-1.49.14"/><path class="cls-14" d="M124.14,294.05s.66,1,1.4.73c.32-.06.24-.54.24-.54s.14-.2.09-.25a.26.26,0,0,0,0-.21s0-.24,0-.26.29,0,.31,0,.13-.15-.14-.54-.14-.24-.14-.24a.26.26,0,0,0,0-.29.86.86,0,0,0-.06-.33.27.27,0,0,0-.27-.15h-1.26l-.62,0Z"/><polygon class="cls-14" points="122.79 293.56 122.79 294.39 124.21 294.85 124.21 294.24 123.75 291.83 123.73 291.78 122.6 292.53 122.79 293.56"/><path class="cls-28" d="M122.46,292.79s0,.82.29,1c0,0,.43-.13.45-.26s0-.66.15-.87a3.14,3.14,0,0,1,.38-.38l-.14-.59-1.17,1.05Z"/><path class="cls-21" d="M124.52,302.54l1.21-3.63a3,3,0,0,0-.25-1.16,15.64,15.64,0,0,0-1-2,9.29,9.29,0,0,0-.89-.65l-.28.4v1.82l.27,3.68.23,1.76h0Z"/><path class="cls-18" d="M124.1,306.76a.75.75,0,0,0,.25.69,1.73,1.73,0,0,1,.5,1c0,.16.13.38.29.32s.13-.26.07-.42a1.45,1.45,0,0,1-.06-.42l.4.84s.26.26.38,0c0,0,.43.25.48-.17,0,0,0-.2-.08-.26s.26,0,.24-.23a1.77,1.77,0,0,0-.36-.75,6.79,6.79,0,0,1-.65-.81c-.09-.18-.36-.14-.36-.14Z"/><path class="cls-14" d="M125,306.43l-.87.26a.59.59,0,0,0,.19.54,1.35,1.35,0,0,1,.39.78c0,.13.11.3.23.25s.1-.2.06-.33a1.11,1.11,0,0,1,0-.33l.32.66s.2.2.3,0c0,0,.33.19.37-.13,0,0,0-.15-.07-.2s.2,0,.19-.18a1.38,1.38,0,0,0-.28-.58,5.33,5.33,0,0,1-.51-.63.24.24,0,0,0-.22-.11H125"/><g class="cls-53"><g class="cls-54"><rect class="cls-14" x="123.66" y="306.06" width="2.75" height="2.77" transform="translate(-136.97 103.71) rotate(-30)"/></g></g><path class="cls-21" d="M122.37,294.85a3.87,3.87,0,0,0-1.52,3.65,20.23,20.23,0,0,0,3,8.58,3,3,0,0,0,1.62-.69,21.36,21.36,0,0,1-1.27-5.42c-.08-2.3.09-4.49-.69-4.74a1.35,1.35,0,0,0-.68-.12l0-1.06Z"/><path class="cls-21" d="M123,296.12a1.55,1.55,0,0,0-1.67,1.35,14.62,14.62,0,0,0,.31,4.58l0,.08a13,13,0,0,1-.79-4.16,4.36,4.36,0,0,1,.9-2.67,2,2,0,0,0,.55-.77h.64l.41.8Z"/><path class="cls-18" d="M122.19,294.81a.83.83,0,0,1,.41-.7c.45-.34,1.61.74,1.61.74s.65.6.57,1.15-.17,1-.26.87-.51-1.19-1.26-1.62a2.94,2.94,0,0,0-1.06-.44"/><polyline class="cls-21" points="122.97 295.07 122.99 296.12 123.92 296.36 123.92 295.63"/><path class="cls-18" d="M122.41,313.84s-.57.41-.46.62,2.46,2,2.46,2,.47.32.55.11.16-.61,0-.77a10.27,10.27,0,0,0-1.4-1.34c-.35-.17-1.15-.61-1.15-.61"/><path class="cls-19" d="M123.55,292.71l1-.14s-.12-.5.06-.6a3.19,3.19,0,0,1,1.25,0l-.19-.38-1,0-1.14.09Z"/><path class="cls-19" d="M124.16,291.63a4.16,4.16,0,0,0,.29,3.22l-2-.32a4.93,4.93,0,0,1,0-3.25,1.14,1.14,0,0,1,.92-.67c.8-.09,2.15-.07,2.49,1a7.12,7.12,0,0,1-1.06.37l-1.82-.2"/><path class="cls-19" d="M124.58,292.58l1.67-.08s.12-1.31-.84-1.38-1.2-.07-1.2-.07Z"/></svg>