<svg id="Layer_1" data-name="Layer 1" xmlns="http://www.w3.org/2000/svg" viewBox="0 0 409.19 88.39"><defs><style>.cls-1{fill:#dfcb8f;}.cls-2{fill:#fdd531;}.cls-3{fill:#fb5d60;}.cls-4{fill:#c39c31;}.cls-5{fill:#bf9526;}</style></defs><title>stp</title><rect class="cls-1" x="205.87" y="3.8" width="0.49" height="10.81"/><ellipse class="cls-1" cx="206.17" cy="7.3" rx="0.72" ry="0.73"/><ellipse class="cls-1" cx="206.17" cy="3.56" rx="0.72" ry="0.73"/><polygon class="cls-1" points="206.17 1.14 206.02 2.27 205.87 3.39 206.17 3.39 206.47 3.39 206.32 2.27 206.17 1.14"/><rect class="cls-1" x="199.98" y="5.47" width="12.29" height="0.41"/><ellipse class="cls-1" cx="208.23" cy="5.71" rx="0.87" ry="0.61"/><ellipse class="cls-1" cx="203.31" cy="5.71" rx="0.87" ry="0.61"/><ellipse class="cls-1" cx="212.64" cy="5.71" rx="0.87" ry="0.61"/><polygon class="cls-1" points="215.51 5.71 214.38 5.58 213.25 5.46 213.25 5.71 213.25 5.96 214.38 5.83 215.51 5.71"/><ellipse class="cls-1" cx="199.88" cy="5.71" rx="0.87" ry="0.61"/><polygon class="cls-1" points="197.02 5.71 198.25 5.83 199.48 5.96 199.48 5.71 199.48 5.46 198.25 5.58 197.02 5.71"/><rect class="cls-2" x="192.42" y="30.01" width="27.89" height="16.96"/><rect class="cls-3" x="192.42" y="26.62" width="28.73" height="4.75"/><rect class="cls-4" x="192.42" y="25.26" width="28.73" height="4.75"/><path class="cls-2" d="M190.94,28.2H222.1a7.8,7.8,0,0,0,.23-1.69c0-4.13-3.65-7.7-8.93-9.39a22.74,22.74,0,0,0-6.85-1,22.5,22.5,0,0,0-7.29,1.18c-.28.1-.53.2-.81.31l-1.74.77c-3.65,1.92-6,4.86-6,8.16a6.89,6.89,0,0,0,.2,1.67Z"/><path class="cls-2" d="M219.15,20.39l-25-.25c5.56-3.24,8.36-4.22,11.85-8.36C209,15.5,213.11,16.62,219.15,20.39Z"/><polygon class="cls-5" points="40.28 61.68 22.66 52.39 48.54 51.02 42.1 63.21 40.28 61.68"/><rect class="cls-1" x="207.67" y="22.15" width="3.35" height="2.21"/><rect class="cls-1" x="213.8" y="24.22" width="3.35" height="2.21"/><rect class="cls-2" x="10.98" y="49.9" width="14.81" height="38.2"/><rect class="cls-5" x="41.14" y="50.4" width="14.81" height="37.69"/><rect class="cls-2" x="9.98" y="41.58" width="45.84" height="10.32" transform="translate(-2.18 1.61) rotate(-2.72)"/><rect class="cls-2" x="10.98" y="32.58" width="44.96" height="5.22" transform="translate(-2.3 2.34) rotate(-3.87)"/><rect class="cls-3" x="12.7" y="24.8" width="42.5" height="8.64" transform="translate(-1.44 1.77) rotate(-2.93)"/><polygon class="cls-5" points="1.23 38.33 3.09 40.31 5.77 40.31 8.29 43.23 55.63 40.78 55.95 35.78 1.23 38.33"/><polygon class="cls-5" points="3.24 21.58 5.1 22.88 7.78 22.88 10.3 24.8 56.78 22.75 56.78 18.43 3.24 21.58"/><polygon class="cls-5" points="72.01 26.35 71.08 27.16 70.28 26.87 68.99 28.1 55.67 21.48 56.88 18.11 72.01 26.35"/><path class="cls-5" d="M117,63.21s-45.59-4.86-49.06-2-1.66-12.06-1.66-12.06Z"/><rect class="cls-2" x="53.61" y="22.75" width="3.17" height="13.03"/><path class="cls-2" d="M69,52.18c20.52,7,84.82,18.75,105.9,17.87-.08-3-.08-5.75-.08-5.75L67,42.33Z"/><rect class="cls-2" x="10.98" y="25.21" width="3.44" height="12.51"/><rect class="cls-2" x="10.98" y="23.21" width="45.8" height="2.11" transform="translate(-1.45 2.17) rotate(-3.59)"/><polygon class="cls-2" points="56.78 35.78 68.92 38.49 68.99 28.1 56.67 21.78 56.78 35.78"/><path class="cls-3" d="M68.92,45.43c2.07,2.88,58.39,17.83,106,19.45-.08-3-.08-5.75-.08-5.75L67,37.17Z"/><rect class="cls-2" x="55.19" y="35.78" width="13.8" height="52.31"/><path class="cls-2" d="M69,31s27,17,105.85,21.9a52.43,52.43,0,0,1,0,6.22s-76-5.39-105.9-21Z"/><polygon class="cls-5" points="25.79 88.1 32.9 87 33.46 56.18 25.83 52.11 25.79 88.1"/><rect class="cls-2" x="71.6" y="60.33" width="4.28" height="27.9"/><rect class="cls-2" x="100.74" y="61.86" width="4.28" height="26.36"/><rect class="cls-2" x="111.82" y="61.86" width="4.28" height="26.36"/><rect class="cls-2" x="122.9" y="61.86" width="4.28" height="26.36"/><rect class="cls-2" x="133.98" y="61.86" width="4.28" height="26.36"/><rect class="cls-2" x="145.06" y="66" width="4.28" height="22.23"/><rect class="cls-4" x="181.63" y="48.97" width="20.94" height="7.71"/><rect class="cls-2" x="156.14" y="66.39" width="4.28" height="21.84"/><rect class="cls-4" x="181.63" y="46.97" width="22.65" height="2.67"/><rect class="cls-2" x="170.62" y="66" width="4.28" height="22.55"/><rect class="cls-2" x="179.49" y="65.83" width="4.28" height="22.55"/><rect class="cls-2" x="188.38" y="65.83" width="4.28" height="22.55"/><rect class="cls-2" x="197.27" y="65.83" width="4.28" height="22.55"/><rect class="cls-2" x="92.66" y="61.21" width="4.28" height="27.02"/><rect class="cls-5" x="78.1" y="59.26" width="14.56" height="28.96"/><rect class="cls-2" x="173.85" y="51.03" width="7.78" height="7.78"/><polygon class="cls-2" points="206.14 46.1 176.93 57.23 176.93 58.8 206.14 58.8 206.14 46.1"/><rect class="cls-2" x="179.91" y="48.2" width="21.21" height="1.45"/><rect class="cls-2" x="179.91" y="59.92" width="26.23" height="5.92"/><rect class="cls-3" x="174.84" y="58.8" width="5.07" height="29.74"/><rect class="cls-4" x="179.91" y="58.8" width="26.23" height="1.89"/><path class="cls-2" d="M109.06,62.42s2.76,1,2.76,2.46,2.64,1,2.64,1V62.95Z"/><path class="cls-2" d="M98.41,61.45s2.76,1,2.76,2.46,2.64,1,2.64,1V62Z"/><path class="cls-2" d="M120.34,63.68s2.68,1.16,2.57,2.66,2.56,1.14,2.56,1.14l.21-2.88Z"/><path class="cls-2" d="M131.31,65.6s2.68,1.16,2.57,2.66,2.56,1.14,2.56,1.14l.21-2.88Z"/><path class="cls-2" d="M142.39,67.07s2.68,1.16,2.57,2.66,2.56,1.14,2.56,1.14l.21-2.88Z"/><path class="cls-2" d="M167.95,69.43s2.68,1.16,2.57,2.66,2.56,1.14,2.56,1.14l.21-2.88Z"/><path class="cls-2" d="M185.7,65.15s2.68,1.16,2.57,2.66S190.84,69,190.84,69l.21-2.88Z"/><path class="cls-2" d="M194.6,65.15s2.68,1.16,2.57,2.66S199.73,69,199.73,69l.21-2.88Z"/><path class="cls-2" d="M90.32,60.8s2.76,1,2.76,2.46,2.64,1,2.64,1V61.32Z"/><polygon class="cls-5" points="371.99 61.68 389.62 52.39 363.73 51.02 370.18 63.21 371.99 61.68"/><rect class="cls-2" x="386.48" y="49.9" width="14.81" height="38.2" transform="translate(787.78 137.99) rotate(-180)"/><rect class="cls-5" x="356.33" y="50.4" width="14.81" height="37.69" transform="translate(727.47 138.5) rotate(-180)"/><rect class="cls-2" x="356.45" y="41.58" width="45.84" height="10.32" transform="translate(756.1 111.43) rotate(-177.28)"/><rect class="cls-2" x="356.33" y="32.58" width="44.96" height="5.22" transform="translate(754.38 95.89) rotate(-176.13)"/><rect class="cls-3" x="357.08" y="24.8" width="42.5" height="8.64" transform="translate(754.67 77.54) rotate(-177.07)"/><polygon class="cls-5" points="411.05 38.33 409.19 40.31 406.51 40.31 403.99 43.23 356.64 40.78 356.33 35.78 411.05 38.33"/><polygon class="cls-5" points="409.04 21.58 407.17 22.88 404.49 22.88 401.97 24.8 355.5 22.75 355.5 18.43 409.04 21.58"/><polygon class="cls-5" points="340.27 26.35 341.19 27.16 341.99 26.87 343.28 28.1 356.61 21.48 355.39 18.11 340.27 26.35"/><path class="cls-5" d="M295.3,63.21s45.59-4.86,49.06-2S346,49.15,346,49.15Z"/><rect class="cls-2" x="355.5" y="22.75" width="3.17" height="13.03" transform="translate(714.16 58.53) rotate(-180)"/><path class="cls-2" d="M343.28,52.18c-20.52,7-84.82,18.75-105.9,17.87.08-3,.08-5.75.08-5.75l107.84-22Z"/><rect class="cls-2" x="397.86" y="25.21" width="3.44" height="12.51" transform="translate(799.15 62.93) rotate(-180)"/><rect class="cls-2" x="355.5" y="23.21" width="45.8" height="2.11" transform="matrix(-1, -0.06, 0.06, -1, 754.53, 72.16)"/><polygon class="cls-2" points="355.5 35.78 343.36 38.49 343.28 28.1 355.61 21.78 355.5 35.78"/><path class="cls-3" d="M343.36,45.43c-2.07,2.88-58.39,17.83-106,19.45.08-3,.08-5.75.08-5.75l107.84-22Z"/><rect class="cls-2" x="343.28" y="35.78" width="13.8" height="52.31" transform="translate(700.36 123.88) rotate(-180)"/><path class="cls-2" d="M343.31,31s-27,17-105.85,21.9a52.43,52.43,0,0,0,0,6.22s76-5.39,105.9-21Z"/><polygon class="cls-5" points="386.48 88.1 379.37 87 378.81 56.18 386.45 52.11 386.48 88.1"/><rect class="cls-2" x="336.4" y="60.33" width="4.28" height="27.9" transform="translate(677.07 148.55) rotate(-180)"/><rect class="cls-2" x="307.25" y="61.86" width="4.28" height="26.36" transform="translate(618.78 150.09) rotate(-180)"/><rect class="cls-2" x="296.18" y="61.86" width="4.28" height="26.36" transform="translate(596.63 150.09) rotate(-180)"/><rect class="cls-2" x="285.1" y="61.86" width="4.28" height="26.36" transform="translate(574.47 150.09) rotate(-180)"/><rect class="cls-2" x="274.02" y="61.86" width="4.28" height="26.36" transform="translate(552.31 150.09) rotate(-180)"/><rect class="cls-2" x="262.94" y="66" width="4.28" height="22.23" transform="translate(530.16 154.22) rotate(-180)"/><rect class="cls-4" x="209.71" y="48.97" width="20.94" height="7.71" transform="translate(440.36 105.65) rotate(-180)"/><rect class="cls-2" x="251.86" y="66.39" width="4.28" height="21.84" transform="translate(508 154.61) rotate(-180)"/><rect class="cls-4" x="208" y="46.97" width="22.65" height="2.67" transform="translate(438.65 96.61) rotate(-180)"/><rect class="cls-2" x="237.38" y="66" width="4.28" height="22.55" transform="translate(479.04 154.54) rotate(-180)"/><rect class="cls-2" x="228.51" y="65.83" width="4.28" height="22.55" transform="translate(461.3 154.22) rotate(-180)"/><rect class="cls-2" x="219.62" y="65.83" width="4.28" height="22.55" transform="translate(443.52 154.22) rotate(-180)"/><rect class="cls-2" x="210.73" y="65.83" width="4.28" height="22.55" transform="translate(425.74 154.22) rotate(-180)"/><rect class="cls-2" x="315.34" y="61.21" width="4.28" height="27.02" transform="translate(634.96 149.44) rotate(-180)"/><rect class="cls-5" x="319.62" y="59.26" width="14.56" height="28.96" transform="translate(653.79 147.49) rotate(-180)"/><rect class="cls-2" x="230.65" y="51.03" width="7.78" height="7.78" transform="translate(469.08 109.83) rotate(-180)"/><polygon class="cls-2" points="206.14 46.1 235.35 57.23 235.35 58.8 206.14 58.8 206.14 46.1"/><polygon class="cls-3" points="206.36 48.8 187.87 55.84 187.87 56.84 206.36 56.84 206.36 48.8"/><polygon class="cls-3" points="206.36 48.8 224.85 55.84 224.85 56.84 206.36 56.84 206.36 48.8"/><rect class="cls-2" x="211.16" y="48.2" width="21.21" height="1.45" transform="translate(443.52 97.84) rotate(-180)"/><rect class="cls-2" x="206.14" y="59.92" width="26.23" height="5.92" transform="translate(438.5 125.75) rotate(-180)"/><rect class="cls-3" x="232.37" y="58.8" width="5.07" height="29.74" transform="translate(469.81 147.35) rotate(-180)"/><rect class="cls-4" x="206.14" y="58.8" width="26.23" height="1.89" transform="translate(438.5 119.5) rotate(-180)"/><path class="cls-2" d="M303.21,62.42s-2.76,1-2.76,2.46-2.64,1-2.64,1V62.95Z"/><path class="cls-2" d="M313.87,61.45s-2.76,1-2.76,2.46-2.64,1-2.64,1V62Z"/><path class="cls-2" d="M291.94,63.68s-2.68,1.16-2.57,2.66-2.56,1.14-2.56,1.14l-.21-2.88Z"/><path class="cls-2" d="M281,65.6s-2.68,1.16-2.57,2.66-2.56,1.14-2.56,1.14l-.21-2.88Z"/><path class="cls-2" d="M269.89,67.07s-2.68,1.16-2.57,2.66-2.56,1.14-2.56,1.14L264.54,68Z"/><path class="cls-2" d="M244.33,69.43s-2.68,1.16-2.57,2.66-2.56,1.14-2.56,1.14L239,70.35Z"/><path class="cls-2" d="M226.57,65.15s-2.68,1.16-2.57,2.66S221.43,69,221.43,69l-.21-2.88Z"/><path class="cls-2" d="M217.68,65.15s-2.68,1.16-2.57,2.66S212.54,69,212.54,69l-.21-2.88Z"/><path class="cls-2" d="M322,60.8s-2.76,1-2.76,2.46-2.64,1-2.64,1V61.32Z"/><rect class="cls-4" x="204.4" y="31.37" width="1.8" height="15.6"/><rect class="cls-4" x="197.64" y="31.37" width="1.8" height="15.6"/><rect class="cls-4" x="193.69" y="31.37" width="1.8" height="15.6"/></svg>