<svg id="Layer_1" data-name="Layer 1" xmlns="http://www.w3.org/2000/svg" xmlns:xlink="http://www.w3.org/1999/xlink" viewBox="0 0 194 383"><defs><style>.cls-1{fill:#f66;}.cls-2{fill:#e1cd8c;}.cls-3{fill:#646464;}.cls-4{fill:#232323;}.cls-5{fill:#f3f3f3;}.cls-6{fill:none;}.cls-7{fill:url(#linear-gradient);}.cls-8{fill:#c59e21;}.cls-9{fill:url(#linear-gradient-2);}.cls-10{fill:url(#linear-gradient-3);}.cls-11{fill:url(#linear-gradient-4);}.cls-12{fill:url(#linear-gradient-5);}</style><linearGradient id="linear-gradient" x1="55.02" y1="-3796.61" x2="55.02" y2="-3787.02" gradientTransform="matrix(1, 0, 0, -1, 0, -3598)" gradientUnits="userSpaceOnUse"><stop offset="0" stop-color="#fff"/><stop offset="1" stop-color="#4d4d4d" stop-opacity="0.4"/></linearGradient><linearGradient id="linear-gradient-2" x1="78.05" y1="-3872.93" x2="78.05" y2="-3869.11" xlink:href="#linear-gradient"/><linearGradient id="linear-gradient-3" x1="148.53" y1="-3831.38" x2="148.53" y2="-3822.99" xlink:href="#linear-gradient"/><linearGradient id="linear-gradient-4" x1="143.14" y1="-3759.44" x2="143.14" y2="-3748.65" xlink:href="#linear-gradient"/><linearGradient id="linear-gradient-5" x1="97.58" y1="-3670.08" x2="97.58" y2="-3659.13" xlink:href="#linear-gradient"/></defs><title>Untitled-1</title><path class="cls-1" d="M61.29,117.06H61v51.55h.44a37.66,37.66,0,0,0,17,18.3c2.4,1.35,5,2.09,7.73,3.28h0c2.49,0,5.08,1.27,7.74,1.5,1.08.1,2.17.12,3.27.12A37.42,37.42,0,0,0,109.11,190c.64-.22,1.27-.41,1.89-.65l5.83-3,1.89-1.1a38.16,38.16,0,0,0,14.35-16.62h-.19V117.16C118.92,117.16,77.05,117.06,61.29,117.06Z"/><path class="cls-2" d="M136.48,173.41v24h.11A53.05,53.05,0,0,1,121,205l-2.07.41-6.37,1.38-2.06.3c-2.61.37-5.34.61-8.14.76q-2.4.12-4.87.12c-1.2,0-2.4-.13-3.6-.18-2.91-.11-5.74-.79-8.46-.79h0A36.51,36.51,0,0,1,77,205.65a64.08,64.08,0,0,1-18.62-8.27h.13v-24H58.4c6.91,6,21.82,10.79,39.08,10.79s32.18-4.8,39.1-10.79Z"/><path class="cls-3" d="M85.52,207h0a36.52,36.52,0,0,1-8.39-1.41v-7.33l8.39-.11Z"/><ellipse class="cls-3" cx="81.28" cy="198.47" rx="4.22" ry="4.11" transform="translate(-0.69 0.28) rotate(-0.2)"/><rect class="cls-3" x="93.99" y="198.68" width="8.44" height="9.59" transform="translate(-0.53 0.26) rotate(-0.15)"/><ellipse class="cls-3" cx="98.19" cy="198.83" rx="4.22" ry="4.11" transform="translate(-0.69 0.34) rotate(-0.2)"/><path class="cls-3" d="M118.79,205.37l-6.28,1.4a12.55,12.55,0,0,1-2,0v-9.41h8v.7Z"/><ellipse class="cls-3" cx="114.76" cy="198.1" rx="4.22" ry="4.11" transform="translate(-0.69 0.4) rotate(-0.2)"/><polygon class="cls-4" points="144.53 182.3 51.88 182.3 60.83 165.87 133.16 165.87 144.53 182.3"/><polygon class="cls-1" points="50.9 182.3 143.54 182.3 134.59 184.85 62.26 184.85 50.9 182.3"/><rect class="cls-5" x="86.94" y="136.76" width="18.8" height="17.95" transform="translate(-0.46 0.3) rotate(-0.18)"/><ellipse class="cls-5" cx="96.32" cy="137.07" rx="9.4" ry="7.68" transform="translate(-0.41 0.29) rotate(-0.17)"/><rect class="cls-3" x="88.55" y="138.72" width="15.79" height="17.95" transform="translate(-0.39 0.25) rotate(-0.15)"/><path class="cls-3" d="M104.32,139a7.9,7.9,0,1,1-8.14-7.66h.22A7.8,7.8,0,0,1,104.32,139Z"/><rect class="cls-5" x="86.94" y="134.93" width="1.69" height="23.16" transform="translate(-0.46 0.28) rotate(-0.18)"/><rect class="cls-5" x="104.37" y="134.93" width="1.69" height="23.35" transform="translate(-0.46 0.33) rotate(-0.18)"/><rect class="cls-5" x="86.55" y="156.2" width="19.73" height="2.66"/><rect class="cls-5" x="64.58" y="136.77" width="18.8" height="17.95" transform="translate(-0.46 0.23) rotate(-0.18)"/><ellipse class="cls-5" cx="73.95" cy="137.07" rx="9.4" ry="7.68" transform="translate(-0.41 0.22) rotate(-0.17)"/><rect class="cls-3" x="66.2" y="138.71" width="15.79" height="17.95" transform="translate(-0.39 0.19) rotate(-0.15)"/><path class="cls-3" d="M82,139a7.9,7.9,0,1,1-8.14-7.66H74A7.8,7.8,0,0,1,82,139Z"/><rect class="cls-5" x="64.58" y="134.92" width="1.69" height="23.16" transform="translate(-0.46 0.21) rotate(-0.18)"/><rect class="cls-5" x="82" y="134.93" width="1.69" height="23.35" transform="translate(-0.46 0.26) rotate(-0.18)"/><line class="cls-6" x1="86.5" y1="155.45" x2="86.51" y2="156.72"/><rect class="cls-5" x="64.19" y="156.2" width="19.73" height="2.66"/><rect class="cls-5" x="108.9" y="136.76" width="18.8" height="17.95" transform="translate(-0.46 0.37) rotate(-0.18)"/><ellipse class="cls-5" cx="118.28" cy="137.07" rx="9.4" ry="7.68" transform="translate(-0.41 0.35) rotate(-0.17)"/><rect class="cls-3" x="110.52" y="138.71" width="15.79" height="17.95" transform="translate(-0.39 0.31) rotate(-0.15)"/><path class="cls-3" d="M126.28,139a7.9,7.9,0,1,1-8.14-7.66h.22A7.8,7.8,0,0,1,126.28,139Z"/><rect class="cls-5" x="108.9" y="134.93" width="1.69" height="23.16" transform="translate(-0.46 0.35) rotate(-0.18)"/><rect class="cls-5" x="126.33" y="134.93" width="1.69" height="23.35" transform="translate(-0.46 0.4) rotate(-0.18)"/><rect class="cls-5" x="108.51" y="156.2" width="19.73" height="2.66"/><rect class="cls-2" x="52.57" y="132.68" width="1.23" height="19.6"/><ellipse class="cls-2" cx="53.17" cy="138.87" rx="1.35" ry="1.38"/><ellipse class="cls-2" cx="53.17" cy="131.84" rx="1.35" ry="1.38"/><polygon class="cls-2" points="53.17 127.29 52.88 129.21 52.61 131.12 53.17 131.12 53.73 131.12 53.45 129.21 53.17 127.29"/><rect class="cls-2" x="41.17" y="135.38" width="23.17" height="1.04"/><ellipse class="cls-2" cx="57.03" cy="135.88" rx="1.63" ry="1.15"/><ellipse class="cls-2" cx="47.79" cy="135.88" rx="1.63" ry="1.15"/><ellipse class="cls-2" cx="65.34" cy="135.88" rx="1.63" ry="1.15"/><polygon class="cls-2" points="70.72 135.88 68.44 135.64 66.18 135.4 66.18 135.88 66.18 136.35 68.44 136.11 70.72 135.88"/><ellipse class="cls-2" cx="41.35" cy="135.88" rx="1.63" ry="1.15"/><polygon class="cls-2" points="35.97 135.88 38.23 136.11 40.5 136.35 40.5 135.88 40.5 135.4 38.23 135.64 35.97 135.88"/><rect class="cls-2" x="43.03" y="191.42" width="23.98" height="15.59"/><rect class="cls-7" x="43.03" y="189.02" width="23.98" height="9.59"/><path class="cls-8" d="M40.47,158.87a18.31,18.31,0,0,0-8.2,15,16.78,16.78,0,0,0,.28,3.06A17.36,17.36,0,0,0,35,183.13,22.3,22.3,0,0,0,54,192.93a23.59,23.59,0,0,0,12.36-3.4q.38-.23.73-.47a20.12,20.12,0,0,0,5.32-5.13c.18-.26.36-.52.53-.78a17.23,17.23,0,0,0,2.75-9.32c0-7.58-5-14.12-12.26-17.22h0a24.35,24.35,0,0,0-19.41.28c-.38.17-.76.36-1.13.55Z"/><path class="cls-8" d="M71.29,162.56,37,162.1c7.62-6,11.49-7.76,16.27-15.29C57.35,153.61,63,155.65,71.29,162.56Z"/><path class="cls-4" d="M38.17,177v6H35c-1.2-2.4-2.06-3.6-2.47-6Z"/><rect class="cls-4" x="48.78" y="169.57" width="6.49" height="5.13"/><polygon class="cls-4" points="40.63 158.87 40.63 159.48 40.63 162.14 40.63 162.64 47.82 162.64 47.82 162.24 47.82 157.85 43.23 157.85 42.84 157.85 40.63 158.87"/><path class="cls-4" d="M72.94,183c-.17,0-.34.58-.53.83a19.36,19.36,0,0,1-5.32,4.92,1.28,1.28,0,0,1-.73.25h-3v-6Z"/><rect class="cls-2" x="55.27" y="165.78" width="4.59" height="4.05"/><rect class="cls-2" x="59.09" y="177.98" width="4.59" height="4.05"/><rect class="cls-2" x="37.46" y="167.81" width="4.59" height="4.05"/><rect class="cls-2" x="63.68" y="169.57" width="4.59" height="4.05"/><rect class="cls-1" x="129.18" y="221.76" width="64.4" height="88.36"/><rect class="cls-5" x="164.37" y="217.33" width="13.26" height="73.7"/><rect class="cls-2" x="115.15" y="205.42" width="72.41" height="17.98"/><path class="cls-4" d="M132.07,237.15h-108A39.7,39.7,0,0,1,29.22,218c.56-1,1.2-2,1.83-3,9.26-14,26.86-23.46,47-23.46s37.78,9.47,47,23.49c.66,1,1.27,1.92,1.83,2.95A39.72,39.72,0,0,1,132.07,237.15Z"/><rect class="cls-1" x="127.72" y="282.81" width="59.21" height="77.71"/><rect class="cls-5" x="125.45" y="282.81" width="63.52" height="3.01"/><rect class="cls-2" x="132.01" y="327.74" width="54.91" height="32.79"/><path class="cls-4" d="M187.57,282.51H108.14c.14-15.59,12.8-28.62,30.79-32.12v3.34h19.18v-3.12C174.85,254.39,187.42,268.12,187.57,282.51Z"/><rect class="cls-1" x="-0.36" y="277.34" width="59.21" height="77.71"/><rect class="cls-5" x="-2.4" y="277.34" width="63.52" height="3.01"/><path class="cls-4" d="M-1,276.51H78.42c-.14-15.59-12.61-28.1-30.6-31.6v4H28.58v-3.82C11.8,248.94-.85,262.13-1,276.51Z"/><polygon class="cls-5" points="141.96 303.94 142.01 317.73 125.5 317.77 125.45 303.99 141.96 303.94"/><path class="cls-5" d="M142,304.18c0,3.26-3.67,5.91-8.24,5.92s-8.26-2.63-8.27-5.87,3.67-5.91,8.24-5.92S141.95,300.92,142,304.18Z"/><rect class="cls-3" x="126.9" y="305.47" width="13.87" height="13.78" transform="translate(-0.93 0.4) rotate(-0.17)"/><ellipse class="cls-3" cx="133.78" cy="305.72" rx="6.93" ry="5.9" transform="translate(-0.91 0.4) rotate(-0.17)"/><rect class="cls-5" x="125.5" y="302.55" width="1.49" height="17.78" transform="translate(-0.87 0.35) rotate(-0.16)"/><rect class="cls-5" x="140.81" y="302.55" width="1.49" height="17.92" transform="translate(-0.87 0.4) rotate(-0.16)"/><rect class="cls-5" x="125.14" y="318.88" width="17.34" height="2.04"/><rect class="cls-5" x="132.01" y="327.74" width="54.91" height="3.01"/><rect class="cls-4" x="152.43" y="317.92" width="25.59" height="5.38" transform="translate(-155.84 484.94) rotate(-89.84)"/><rect class="cls-5" x="163.67" y="329.2" width="2.55" height="5.86" transform="translate(-167.64 496.15) rotate(-89.84)"/><rect class="cls-5" x="163.69" y="325.91" width="2.55" height="5.86" transform="translate(-164.34 492.88) rotate(-89.84)"/><rect class="cls-5" x="163.7" y="322.62" width="2.55" height="5.86" transform="translate(-161.04 489.61) rotate(-89.84)"/><rect class="cls-5" x="163.72" y="319.33" width="2.55" height="5.86" transform="translate(-157.73 486.35) rotate(-89.84)"/><rect class="cls-5" x="163.73" y="316.04" width="2.55" height="5.86" transform="translate(-154.43 483.08) rotate(-89.84)"/><rect class="cls-5" x="163.73" y="312.75" width="2.55" height="5.86" transform="translate(-151.14 479.8) rotate(-89.84)"/><rect class="cls-5" x="163.74" y="309.46" width="2.55" height="5.86" transform="translate(-147.84 476.53) rotate(-89.84)"/><rect class="cls-5" x="163.75" y="306.17" width="2.55" height="5.86" transform="translate(-144.54 473.26) rotate(-89.84)"/><rect class="cls-4" x="130.05" y="342.18" width="30.68" height="6.45" transform="translate(-200.41 489.83) rotate(-89.84)"/><rect class="cls-5" x="144.1" y="355.7" width="3.06" height="7.03" transform="translate(-213.99 503.84) rotate(-89.84)"/><rect class="cls-5" x="144.11" y="351.76" width="3.06" height="7.03" transform="translate(-210.03 499.92) rotate(-89.84)"/><rect class="cls-5" x="144.12" y="347.81" width="3.06" height="7.03" transform="translate(-206.08 496) rotate(-89.84)"/><rect class="cls-5" x="144.15" y="343.86" width="3.06" height="7.03" transform="translate(-202.1 492.08) rotate(-89.84)"/><rect class="cls-5" x="144.16" y="339.91" width="3.06" height="7.03" transform="matrix(0, -1, 1, 0, -198.15, 488.15)"/><rect class="cls-5" x="144.17" y="335.97" width="3.06" height="7.03" transform="matrix(0, -1, 1, 0, -194.19, 484.23)"/><rect class="cls-5" x="144.18" y="332.02" width="3.06" height="7.03" transform="translate(-190.23 480.31) rotate(-89.84)"/><rect class="cls-5" x="144.2" y="328.08" width="3.06" height="7.03" transform="matrix(0, -1, 1, 0, -186.27, 476.4)"/><rect class="cls-3" x="152.54" y="340.84" width="18.92" height="20.88" transform="translate(-189.74 512.3) rotate(-89.84)"/><ellipse class="cls-3" cx="162.03" cy="342.17" rx="8.1" ry="10.44" transform="translate(-180.58 503.24) rotate(-89.84)"/><path class="cls-1" d="M24.59,264.52h-.8v68.34h1a66.08,66.08,0,0,0,25.51,23c3.6,1.77,7.52,3.37,11.57,3.37h0c3.73,0,7.6,1.94,11.59,2.24,1.62.12,3.25.3,4.89.3a64.74,64.74,0,0,0,6.68-.24,63.42,63.42,0,0,0,11.15-2.09c1-.28,1.91-.52,2.83-.83l8.73-3.88,2.84-.8c9.21-5.38,16.64-13.88,21.36-21.08h.94V264.52l-.49-.08C111.39,264.45,48.18,264.52,24.59,264.52Z"/><path class="cls-2" d="M137.68,337.66v31.17h-.38c-5.14,4.8-13.27,7.62-23.32,10.12l-3.09.64-9.52,1.85-3.09.42c-3.91.48-8,.82-12.18,1q-3.6.16-7.29.16c-1.8,0-3.6,0-5.35-.1-4.36-.14-8.58-.9-12.66-.9h0c-4.42,0-8.66-1.2-12.64-2.05-12.14-2.51-22-6.34-27.85-11.14H19V337.66h1.32c10.33,8.39,32.65,14,58.49,14s48.22-5.65,58.55-14Z"/><ellipse class="cls-3" cx="54.48" cy="370.65" rx="6.32" ry="5.37" transform="translate(-1.1 0.16) rotate(-0.17)"/><ellipse class="cls-3" cx="79.77" cy="371.12" rx="6.32" ry="5.37" transform="translate(-1.1 0.24) rotate(-0.17)"/><ellipse class="cls-3" cx="104.56" cy="370.16" rx="6.32" ry="5.37" transform="translate(-1.1 0.31) rotate(-0.17)"/><polygon class="cls-4" points="149.14 349.48 10.51 349.48 23.92 327.98 132.15 327.98 149.14 349.48"/><polygon class="cls-1" points="9.05 349.48 147.69 349.48 134.28 352.8 26.05 352.8 9.05 349.48"/><polygon class="cls-5" points="91.04 289.89 91.13 313.37 63.01 313.44 62.93 289.96 91.04 289.89"/><path class="cls-5" d="M91.06,290.3c0,5.55-6.26,10.07-14,10.08s-14.08-4.46-14.1-10,6.26-10.07,14-10.08S91,284.75,91.06,290.3Z"/><rect class="cls-3" x="65.39" y="292.46" width="23.63" height="23.47" transform="translate(-0.9 0.23) rotate(-0.17)"/><ellipse class="cls-3" cx="77.14" cy="292.88" rx="11.81" ry="10.05" transform="translate(-0.87 0.23) rotate(-0.17)"/><rect class="cls-5" x="63" y="287.5" width="2.53" height="30.3" transform="translate(-0.84 0.18) rotate(-0.16)"/><rect class="cls-5" x="89.07" y="287.51" width="2.53" height="30.55" transform="translate(-0.85 0.25) rotate(-0.16)"/><line class="cls-6" x1="95.79" y1="314.35" x2="95.8" y2="316.02"/><rect class="cls-5" x="62.39" y="315.35" width="29.53" height="3.48"/><polygon class="cls-5" points="57.58 289.89 57.67 313.37 29.55 313.44 29.47 289.96 57.58 289.89"/><path class="cls-5" d="M57.58,290.3c0,5.55-6.26,10.07-14,10.08s-14.08-4.46-14.1-10,6.26-10.07,14-10.08S57.57,284.75,57.58,290.3Z"/><rect class="cls-3" x="31.92" y="292.46" width="23.63" height="23.47" transform="translate(-0.9 0.13) rotate(-0.17)"/><ellipse class="cls-3" cx="43.68" cy="292.88" rx="11.81" ry="10.05" transform="translate(-0.87 0.13) rotate(-0.17)"/><rect class="cls-5" x="29.54" y="287.51" width="2.53" height="30.3" transform="translate(-0.85 0.09) rotate(-0.16)"/><rect class="cls-5" x="55.61" y="287.52" width="2.53" height="30.55" transform="translate(-0.85 0.16) rotate(-0.16)"/><rect class="cls-5" x="28.93" y="315.35" width="29.53" height="3.48"/><polygon class="cls-5" points="123.92 289.89 124 313.37 95.88 313.44 95.79 289.96 123.92 289.89"/><path class="cls-5" d="M123.92,290.3c0,5.55-6.26,10.07-14,10.08s-14.08-4.46-14.1-10,6.26-10.07,14-10.08S123.89,284.75,123.92,290.3Z"/><rect class="cls-3" x="98.25" y="292.47" width="23.63" height="23.47" transform="matrix(1, 0, 0, 1, -0.9, 0.33)"/><ellipse class="cls-3" cx="110.02" cy="292.89" rx="11.81" ry="10.05" transform="translate(-0.87 0.33) rotate(-0.17)"/><rect class="cls-5" x="95.87" y="287.5" width="2.53" height="30.3" transform="translate(-0.84 0.27) rotate(-0.16)"/><rect class="cls-5" x="121.94" y="287.51" width="2.53" height="30.55" transform="translate(-0.85 0.35) rotate(-0.16)"/><line class="cls-6" x1="128.65" y1="314.35" x2="128.66" y2="316.02"/><rect class="cls-5" x="95.26" y="315.35" width="29.53" height="3.48"/><polygon class="cls-5" points="164.37 303.94 164.42 317.73 147.91 317.77 147.86 303.99 164.37 303.94"/><path class="cls-5" d="M164.37,304.18c0,3.26-3.67,5.91-8.24,5.92s-8.26-2.63-8.27-5.87,3.67-5.91,8.24-5.92S164.36,300.92,164.37,304.18Z"/><rect class="cls-3" x="149.3" y="305.46" width="13.87" height="13.78" transform="translate(-0.93 0.46) rotate(-0.17)"/><ellipse class="cls-3" cx="156.19" cy="305.71" rx="6.93" ry="5.9" transform="translate(-0.91 0.46) rotate(-0.17)"/><rect class="cls-5" x="147.9" y="302.55" width="1.49" height="17.78" transform="translate(-0.87 0.42) rotate(-0.16)"/><rect class="cls-5" x="163.21" y="302.54" width="1.49" height="17.92" transform="translate(-0.87 0.46) rotate(-0.16)"/><rect class="cls-5" x="147.55" y="318.88" width="17.34" height="2.04"/><polygon class="cls-5" points="21.03 301.2 21.09 323.52 4.58 323.6 4.53 301.26 21.03 301.2"/><path class="cls-5" d="M21,301.58c0,5.29-3.67,9.59-8.24,9.59s-8.26-4.24-8.27-9.53,3.67-9.59,8.24-9.59S21,296.3,21,301.58Z"/><polygon class="cls-3" points="19.82 303.6 19.86 325.93 5.99 326 5.96 303.67 19.82 303.6"/><path class="cls-3" d="M19.83,304c0,5.29-3.08,9.59-6.92,9.59S6,309.33,6,304s3.08-9.59,6.92-9.59S19.82,298.71,19.83,304Z"/><polygon class="cls-5" points="6.09 327.75 4.6 327.77 4.53 298.93 6.02 298.92 6.09 327.75"/><polygon class="cls-5" points="21.39 328 19.9 328 19.84 298.93 21.33 298.92 21.39 328"/><rect class="cls-5" x="4.22" y="325.42" width="17.34" height="3.31"/><polygon class="cls-5" points="185.94 303.94 186 317.73 169.49 317.77 169.44 303.99 185.94 303.94"/><path class="cls-5" d="M185.95,304.18c0,3.26-3.67,5.91-8.24,5.92s-8.26-2.63-8.27-5.87,3.67-5.91,8.24-5.92S185.94,300.92,185.95,304.18Z"/><rect class="cls-3" x="158.69" y="287.14" width="11.57" height="11.49" transform="translate(-0.87 0.49) rotate(-0.17)"/><ellipse class="cls-3" cx="164.44" cy="287.36" rx="5.78" ry="4.92" transform="translate(-0.85 0.49) rotate(-0.17)"/><rect class="cls-5" x="169.48" y="302.55" width="1.49" height="17.78" transform="translate(-0.87 0.48) rotate(-0.16)"/><rect class="cls-5" x="169.24" y="285.47" width="1.24" height="14.95"/><rect class="cls-5" x="169.13" y="318.88" width="17.34" height="2.04"/><rect class="cls-9" x="24.08" y="271.11" width="107.94" height="3.82"/><rect class="cls-2" x="24.08" y="237.15" width="107.94" height="34.92"/><rect class="cls-2" x="141.65" y="93.24" width="0.92" height="20.33"/><ellipse class="cls-2" cx="142.2" cy="99.8" rx="1.35" ry="1.38"/><ellipse class="cls-2" cx="142.2" cy="92.77" rx="1.35" ry="1.38"/><polygon class="cls-2" points="142.2 88.23 141.91 90.34 141.64 92.45 142.2 92.45 142.76 92.45 142.48 90.34 142.2 88.23"/><rect class="cls-2" x="130.55" y="96.36" width="23.11" height="0.78"/><ellipse class="cls-2" cx="146.06" cy="96.81" rx="1.63" ry="1.15"/><ellipse class="cls-2" cx="136.82" cy="96.81" rx="1.63" ry="1.15"/><ellipse class="cls-2" cx="154.37" cy="96.81" rx="1.63" ry="1.15"/><polygon class="cls-2" points="159.75 96.81 157.63 96.57 155.52 96.34 155.52 96.81 155.52 97.29 157.63 97.05 159.75 96.81"/><ellipse class="cls-2" cx="130.38" cy="96.81" rx="1.63" ry="1.15"/><polygon class="cls-2" points="125 96.81 127.31 97.05 129.62 97.29 129.62 96.81 129.62 96.34 127.31 96.57 125 96.81"/><rect class="cls-2" x="96.83" y="5" width="0.92" height="20.33"/><ellipse class="cls-2" cx="97.39" cy="11.57" rx="1.35" ry="1.38"/><ellipse class="cls-2" cx="97.39" cy="4.54" rx="1.35" ry="1.38"/><polygon class="cls-2" points="97.39 0 97.1 2.11 96.82 4.22 97.39 4.22 97.95 4.22 97.66 2.11 97.39 0"/><rect class="cls-2" x="85.74" y="8.13" width="23.11" height="0.78"/><ellipse class="cls-2" cx="101.25" cy="8.58" rx="1.63" ry="1.15"/><ellipse class="cls-2" cx="92" cy="8.58" rx="1.63" ry="1.15"/><ellipse class="cls-2" cx="109.55" cy="8.58" rx="1.63" ry="1.15"/><polygon class="cls-2" points="114.94 8.58 112.81 8.34 110.7 8.11 110.7 8.58 110.7 9.06 112.81 8.82 114.94 8.58"/><ellipse class="cls-2" cx="85.56" cy="8.58" rx="1.63" ry="1.15"/><polygon class="cls-2" points="80.18 8.58 82.5 8.82 84.81 9.06 84.81 8.58 84.81 8.11 82.5 8.34 80.18 8.58"/><polygon class="cls-5" points="72.59 225.9 72.62 233.53 60.99 233.56 60.95 225.92 72.59 225.9"/><path class="cls-5" d="M72.59,226c0,1.81-2.59,3.27-5.8,3.28S61,227.86,61,226.05s2.59-3.27,5.8-3.28S72.58,224.23,72.59,226Z"/><polygon class="cls-2" points="71.73 226.72 71.77 234.35 61.99 234.37 61.96 226.75 71.73 226.72"/><ellipse class="cls-2" cx="66.87" cy="226.85" rx="4.88" ry="3.27" transform="translate(-0.55 0.16) rotate(-0.14)"/><polygon class="cls-5" points="62.05 234.97 61 234.98 60.96 225.13 62.01 225.13 62.05 234.97"/><polygon class="cls-5" points="72.83 235.06 71.79 235.06 71.74 225.13 72.8 225.13 72.83 235.06"/><rect class="cls-5" x="60.74" y="234.18" width="12.22" height="1.13"/><polygon class="cls-5" points="41.05 225.9 41.09 233.53 29.46 233.56 29.42 225.92 41.05 225.9"/><path class="cls-5" d="M41,226c0,1.81-2.59,3.27-5.8,3.28s-5.83-1.45-5.83-3.26,2.59-3.27,5.8-3.28S41,224.23,41,226Z"/><polygon class="cls-2" points="40.2 226.72 40.22 234.35 30.45 234.37 30.43 226.75 40.2 226.72"/><ellipse class="cls-2" cx="35.32" cy="226.86" rx="4.88" ry="3.27" transform="translate(-0.55 0.09) rotate(-0.14)"/><polygon class="cls-5" points="30.51 234.97 29.47 234.98 29.42 225.13 30.48 225.13 30.51 234.97"/><polygon class="cls-5" points="41.3 235.06 40.26 235.06 40.21 225.13 41.25 225.13 41.3 235.06"/><rect class="cls-5" x="29.19" y="234.18" width="12.22" height="1.13"/><rect class="cls-4" x="24.08" y="269.76" width="107.89" height="3.01"/><rect class="cls-4" x="24.08" y="254.79" width="107.89" height="3.01"/><rect class="cls-4" x="24.18" y="250.09" width="107.89" height="3.01"/><path class="cls-5" d="M31.09,215.23h94q1,1.2,1.83,2.4H29.38Z"/><polygon class="cls-5" points="65.33 228.83 65.4 252.31 37.28 252.38 37.2 228.91 65.33 228.83"/><path class="cls-5" d="M65.33,229.24c0,5.55-6.26,10.07-14,10.08s-14.08-4.46-14.1-10,6.26-10.07,14-10.08S65.3,223.69,65.33,229.24Z"/><rect class="cls-2" x="39.66" y="231.41" width="23.63" height="23.47" transform="matrix(1, 0, 0, 1, -0.72, 0.15)"/><ellipse class="cls-2" cx="51.41" cy="231.82" rx="11.81" ry="10.05" transform="translate(-0.69 0.15) rotate(-0.17)"/><rect class="cls-5" x="37.28" y="226.44" width="2.53" height="30.3" transform="translate(-0.67 0.11) rotate(-0.16)"/><rect class="cls-5" x="63.34" y="226.45" width="2.53" height="30.55" transform="translate(-0.67 0.18) rotate(-0.16)"/><line class="cls-6" x1="70.06" y1="253.29" x2="70.07" y2="254.96"/><rect class="cls-5" x="36.66" y="254.29" width="29.53" height="3.48"/><polygon class="cls-5" points="124.88 225.9 124.9 233.53 113.27 233.56 113.23 225.92 124.88 225.9"/><path class="cls-5" d="M124.88,226c0,1.81-2.59,3.27-5.8,3.28s-5.83-1.45-5.83-3.26,2.59-3.27,5.8-3.28S124.86,224.23,124.88,226Z"/><polygon class="cls-2" points="124.01 226.72 124.05 234.35 114.28 234.37 114.24 226.75 124.01 226.72"/><ellipse class="cls-2" cx="119.15" cy="226.86" rx="4.88" ry="3.27" transform="translate(-0.55 0.29) rotate(-0.14)"/><polygon class="cls-5" points="114.34 234.97 113.3 234.98 113.25 225.13 114.29 225.13 114.34 234.97"/><polygon class="cls-5" points="125.12 235.06 124.07 235.06 124.03 225.13 125.08 225.13 125.12 235.06"/><rect class="cls-5" x="113.02" y="234.18" width="12.22" height="1.13"/><polygon class="cls-5" points="107.44 225.9 107.48 233.53 95.85 233.56 95.81 225.92 107.44 225.9"/><path class="cls-5" d="M107.44,226c0,1.81-2.59,3.27-5.8,3.28s-5.83-1.45-5.83-3.26,2.59-3.27,5.8-3.28S107.43,224.23,107.44,226Z"/><polygon class="cls-2" points="106.59 226.72 106.62 234.35 96.85 234.37 96.82 226.75 106.59 226.72"/><ellipse class="cls-2" cx="101.72" cy="226.85" rx="4.88" ry="3.27" transform="translate(-0.55 0.25) rotate(-0.14)"/><polygon class="cls-5" points="96.91 234.97 95.86 234.98 95.81 225.13 96.87 225.13 96.91 234.97"/><polygon class="cls-5" points="107.7 235.06 106.64 235.06 106.61 225.13 107.65 225.13 107.7 235.06"/><rect class="cls-5" x="95.59" y="234.18" width="12.22" height="1.13"/><rect class="cls-4" x="138.94" y="233.38" width="19.18" height="29.97"/><polygon class="cls-5" points="90.01 225.9 90.05 233.53 78.42 233.56 78.38 225.92 90.01 225.9"/><path class="cls-5" d="M90,226c0,1.81-2.59,3.27-5.8,3.28s-5.83-1.45-5.83-3.26,2.59-3.27,5.8-3.28S90,224.23,90,226Z"/><polygon class="cls-2" points="89.16 226.72 89.19 234.35 79.41 234.37 79.39 226.75 89.16 226.72"/><ellipse class="cls-2" cx="84.3" cy="226.86" rx="4.88" ry="3.27" transform="translate(-0.55 0.21) rotate(-0.14)"/><polygon class="cls-5" points="79.49 234.97 78.43 234.98 78.38 225.13 79.44 225.13 79.49 234.97"/><polygon class="cls-5" points="90.26 235.06 89.22 235.06 89.17 225.13 90.22 225.13 90.26 235.06"/><rect class="cls-5" x="78.17" y="234.18" width="12.22" height="1.13"/><path class="cls-2" d="M158.06,246.54v4A40.29,40.29,0,0,0,148,249.47a41.33,41.33,0,0,0-9.12.91v-3.84Z"/><rect class="cls-2" x="138.94" y="227.38" width="19.18" height="8.39"/><rect class="cls-10" x="138.94" y="224.99" width="19.18" height="8.39"/><polygon class="cls-2" points="184.11 203.63 177.63 218.63 164.37 218.63 161.27 203.63 184.11 203.63"/><rect class="cls-5" x="164.38" y="203.37" width="1.61" height="15.33"/><path class="cls-4" d="M177.82,205.78H106.27a22.4,22.4,0,0,1,3.39-11.16,20.23,20.23,0,0,1,1.2-1.74c6.14-8.15,17.79-13.64,31.17-13.64s25,5.51,31.17,13.67a17.69,17.69,0,0,1,1.2,1.71A22.41,22.41,0,0,1,177.82,205.78Z"/><rect class="cls-4" x="130.55" y="161.44" width="25.18" height="38.36"/><ellipse class="cls-8" cx="147.8" cy="215.23" rx="17.5" ry="14.81"/><path class="cls-8" d="M161.77,206.51l-27.68-.35c6.16-4.6,9.27-6,13.13-11.85C150.52,199.59,155.08,201.16,161.77,206.51Z"/><path class="cls-2" d="M155.66,178.2v5.26A65,65,0,0,0,142.48,182a58.74,58.74,0,0,0-12,1.2v-5Z"/><rect class="cls-2" x="130.55" y="154.25" width="25.18" height="9.59"/><rect class="cls-11" x="130.55" y="150.65" width="25.18" height="10.79"/><path class="cls-8" d="M124.79,122.89c-6.8,3.5-11.14,8.9-11.14,15a12.53,12.53,0,0,0,.38,3.06,15.09,15.09,0,0,0,3.36,6.26c5,5.84,14.66,9.79,25.73,9.79a41,41,0,0,0,16.78-3.4l1-.47a25.48,25.48,0,0,0,7.19-5.13c.25-.26.49-.52.71-.78a14.17,14.17,0,0,0,3.74-9.32c0-7.58-6.8-14.12-16.66-17.22h0a43.09,43.09,0,0,0-12.77-1.88,42.62,42.62,0,0,0-13.6,2.16c-.52.17-1,.36-1.52.55Z"/><path class="cls-8" d="M166.62,126.58l-46.53-.46c10.36-6,15.59-7.76,22.1-15.29C147.7,117.65,155.36,119.67,166.62,126.58Z"/><path class="cls-4" d="M120.9,141v6h-3.6c-1.65-2.4-2.81-3.6-3.36-6Z"/><rect class="cls-4" x="136.07" y="133.59" width="8.81" height="5.13"/><polygon class="cls-4" points="124.55 122.89 124.55 123.51 124.55 126.17 124.55 126.68 134.14 126.68 134.14 126.26 134.14 121.88 128.52 121.88 127.99 121.88 124.55 122.89"/><path class="cls-4" d="M168.85,147c-.23,0-.47.58-.71.83a25,25,0,0,1-7.19,4.92,2.19,2.19,0,0,1-1,.25h-4.29v-6Z"/><rect class="cls-2" x="144.89" y="129.8" width="6.23" height="4.05"/><rect class="cls-2" x="150.07" y="142" width="6.23" height="4.05"/><rect class="cls-2" x="120.69" y="131.83" width="6.23" height="4.05"/><rect class="cls-2" x="156.3" y="133.59" width="6.23" height="4.05"/><path class="cls-4" d="M133.08,117.44H61A21.77,21.77,0,0,1,64.38,106c.37-.61.78-1.2,1.2-1.77,6.19-8.39,18-14,31.42-14s25.24,5.65,31.42,14c.44.59.85,1.2,1.2,1.76A21.78,21.78,0,0,1,133.08,117.44Z"/><rect class="cls-4" x="85.56" y="72.08" width="24.04" height="39.1"/><path class="cls-2" d="M109.6,89.28v5.28a51,51,0,0,0-12.68-1.47,52.4,52.4,0,0,0-11.41,1.2v-5Z"/><rect class="cls-2" x="85.56" y="64.26" width="24.04" height="10.95"/><rect class="cls-12" x="85.56" y="61.13" width="24.04" height="10.95"/><path class="cls-8" d="M79.61,32.39C72.75,36,68.37,41.52,68.37,47.73a13.06,13.06,0,0,0,.38,3.14,15.59,15.59,0,0,0,3.38,6.41c5.08,6,14.78,10,25.94,10A40.76,40.76,0,0,0,115,63.83q.52-.23,1-.48a25.7,25.7,0,0,0,7.29-5.26c.25-.26.49-.53.72-.8a14.67,14.67,0,0,0,3.76-9.59c0-7.77-6.86-14.48-16.78-17.66h0a42.75,42.75,0,0,0-12.88-1.89,42.31,42.31,0,0,0-13.7,2.22c-.53.18-1,.37-1.53.58Z"/><path class="cls-8" d="M121.78,36.18l-46.91-.47C85.32,29.62,90.59,27.77,97.15,20,102.71,27,110.44,29.1,121.78,36.18Z"/><path class="cls-4" d="M124.36,57.12c-.23,0-.47.61-.72.88a25,25,0,0,1-7.29,5,2.09,2.09,0,0,1-1,.17h-5.24v-6Z"/><rect class="cls-2" x="100.21" y="39.49" width="6.29" height="4.16"/><rect class="cls-2" x="105.44" y="52" width="6.29" height="4.16"/><rect class="cls-2" x="111.72" y="43.38" width="6.29" height="4.16"/></svg>