<svg id="Layer_1" data-name="Layer 1" xmlns="http://www.w3.org/2000/svg" viewBox="0 0 408 382"><defs><style>.cls-1{fill:#ffd800;}.cls-2{fill:#305944;}.cls-3{fill:#f3f3f3;}.cls-4{fill:#252525;}.cls-5{fill:#484848;}.cls-6{fill:#c59e21;}.cls-7{fill:#e1cd8c;}.cls-8{fill:#232323;}.cls-9{fill:#646464;}.cls-10{fill:#17ea92;}</style></defs><title>Untitled-1</title><rect class="cls-1" x="241.26" y="364.99" width="4.04" height="15.71"/><polygon class="cls-2" points="256.18 368.8 230.38 368.8 231.17 364.8 241.47 364.8 241.47 362.8 231.57 362.8 232.18 359.8 238.47 359.8 238.47 357.8 232.58 357.8 243.28 305.03 256.18 368.8"/><ellipse class="cls-3" cx="241.15" cy="327.74" rx="9.94" ry="5.46" transform="translate(-160.8 391.02) rotate(-62.6)"/><ellipse class="cls-3" cx="239.47" cy="341.52" rx="7.34" ry="10.51"/><ellipse class="cls-3" cx="248.69" cy="351.45" rx="7.34" ry="10.51"/><ellipse class="cls-3" cx="247.98" cy="335.14" rx="7.34" ry="10.51" transform="translate(-110.61 122.47) rotate(-22.83)"/><rect class="cls-1" x="252.34" y="365.74" width="4.04" height="15.71"/><polygon class="cls-2" points="267.27 369.55 241.47 369.55 242.26 365.55 252.56 365.55 252.56 363.55 242.66 363.55 243.27 360.55 249.56 360.55 249.56 358.55 243.67 358.55 254.36 305.78 267.27 369.55"/><ellipse class="cls-3" cx="252.24" cy="328.49" rx="9.94" ry="5.46" transform="translate(-155.48 401.26) rotate(-62.6)"/><ellipse class="cls-3" cx="250.55" cy="342.27" rx="7.34" ry="10.51"/><ellipse class="cls-3" cx="259.78" cy="352.2" rx="7.34" ry="10.51"/><ellipse class="cls-3" cx="259.08" cy="335.89" rx="7.34" ry="10.51" transform="translate(-110.03 126.83) rotate(-22.83)"/><rect class="cls-1" x="273.06" y="366.7" width="4.04" height="15.71"/><polygon class="cls-2" points="262.18 370.51 287.98 370.51 287.18 366.51 276.89 366.51 276.89 364.51 286.79 364.51 286.18 361.51 279.89 361.51 279.89 359.51 285.78 359.51 275.08 306.75 262.18 370.51"/><ellipse class="cls-3" cx="277.21" cy="329.4" rx="5.46" ry="9.94" transform="translate(-120.49 164.53) rotate(-27.4)"/><ellipse class="cls-3" cx="278.89" cy="343.23" rx="7.34" ry="10.51"/><path class="cls-4" d="M25.88,366.79V366c0-9.49-3.75-17.19-8.38-17.19S9.12,356.48,9.12,366v.82Z"/><path class="cls-5" d="M25.87,366.79V366c0-9.49-3.72-17.19-8.38-17.19v18Z"/><rect class="cls-6" x="83.5" y="347.09" width="102.31" height="33.37"/><rect class="cls-7" x="37.73" y="179.9" width="46.65" height="43.44"/><rect class="cls-8" x="35.62" y="180.16" width="8.24" height="39.23" transform="translate(-0.56 0.11) rotate(-0.16)"/><rect class="cls-3" x="35.68" y="215.47" width="8.98" height="3.91" transform="translate(-0.61 0.11) rotate(-0.16)"/><rect class="cls-3" x="35.66" y="210.43" width="8.98" height="3.91" transform="translate(-0.59 0.11) rotate(-0.16)"/><rect class="cls-3" x="35.65" y="205.38" width="8.98" height="3.91" transform="translate(-0.58 0.11) rotate(-0.16)"/><rect class="cls-3" x="35.63" y="200.34" width="8.98" height="3.91" transform="translate(-0.56 0.11) rotate(-0.16)"/><rect class="cls-3" x="35.62" y="195.29" width="8.98" height="3.91" transform="translate(-0.55 0.11) rotate(-0.16)"/><rect class="cls-3" x="35.6" y="190.25" width="8.98" height="3.91" transform="translate(-0.54 0.11) rotate(-0.16)"/><rect class="cls-3" x="35.58" y="185.2" width="8.98" height="3.91" transform="translate(-0.52 0.11) rotate(-0.16)"/><rect class="cls-3" x="35.57" y="180.16" width="8.98" height="3.91" transform="translate(-0.51 0.11) rotate(-0.16)"/><rect class="cls-8" x="78.19" y="179.94" width="8.24" height="39.23" transform="translate(-0.56 0.23) rotate(-0.16)"/><rect class="cls-3" x="77.52" y="215.27" width="8.98" height="3.91" transform="translate(-0.61 0.23) rotate(-0.16)"/><rect class="cls-3" x="77.5" y="210.22" width="8.98" height="3.91" transform="translate(-0.59 0.23) rotate(-0.16)"/><rect class="cls-3" x="77.48" y="205.17" width="8.98" height="3.91" transform="translate(-0.58 0.23) rotate(-0.16)"/><rect class="cls-3" x="77.47" y="200.12" width="8.98" height="3.91" transform="translate(-0.56 0.23) rotate(-0.16)"/><rect class="cls-3" x="77.45" y="195.08" width="8.98" height="3.91" transform="translate(-0.55 0.23) rotate(-0.16)"/><rect class="cls-3" x="77.43" y="190.03" width="8.98" height="3.91" transform="translate(-0.54 0.23) rotate(-0.16)"/><rect class="cls-3" x="78.1" y="182.36" width="8.98" height="3.91"/><rect class="cls-3" x="77.4" y="179.93" width="8.98" height="3.91" transform="translate(-0.51 0.23) rotate(-0.16)"/><rect class="cls-9" x="47.77" y="194.93" width="26.71" height="24.2" transform="translate(-0.58 0.17) rotate(-0.16)"/><path class="cls-9" d="M74.43,195.35c0,5.72-5.94,10.38-13.32,10.4s-13.37-4.6-13.39-10.32S53.67,185,61,185,74.41,189.62,74.43,195.35Z"/><rect class="cls-7" x="37.03" y="217.66" width="49.01" height="162.8"/><polygon class="cls-8" points="94.02 284.66 31.06 284.66 37.14 296.02 86.3 296.02 94.02 284.66"/><polygon class="cls-8" points="93.02 217.66 30.06 217.66 36.14 229.02 85.3 229.02 93.02 217.66"/><rect class="cls-8" x="37.03" y="356.56" width="49.01" height="8.72"/><rect class="cls-6" x="72.22" y="315.97" width="13.83" height="10.24"/><path class="cls-6" d="M34.28,179.91c0-.52,0-1.05,0-1.59,0-9.94,6.14-18.52,15.06-22.58h0a28.14,28.14,0,0,1,23.83.36c.47.23.93.47,1.38.73l2.89,1.89a24.46,24.46,0,0,1,10.07,19.61,14.09,14.09,0,0,1-.06,1.59Z"/><rect class="cls-8" x="36.62" y="313.16" width="8.24" height="39.23" transform="translate(-0.93 0.12) rotate(-0.16)"/><rect class="cls-3" x="36.69" y="348.47" width="8.98" height="3.91" transform="translate(-0.98 0.12) rotate(-0.16)"/><rect class="cls-3" x="36.66" y="343.43" width="8.98" height="3.91" transform="translate(-0.96 0.12) rotate(-0.16)"/><rect class="cls-3" x="36.65" y="338.38" width="8.98" height="3.91" transform="translate(-0.95 0.12) rotate(-0.16)"/><rect class="cls-3" x="36.64" y="333.34" width="8.98" height="3.91" transform="translate(-0.94 0.12) rotate(-0.16)"/><rect class="cls-3" x="36.62" y="328.29" width="8.98" height="3.91" transform="translate(-0.92 0.12) rotate(-0.16)"/><rect class="cls-3" x="36.61" y="323.25" width="8.98" height="3.91" transform="translate(-0.91 0.12) rotate(-0.16)"/><rect class="cls-3" x="36.58" y="318.2" width="8.98" height="3.91" transform="translate(-0.89 0.12) rotate(-0.16)"/><rect class="cls-3" x="36.57" y="313.16" width="8.98" height="3.91" transform="translate(-0.88 0.12) rotate(-0.16)"/><rect class="cls-8" x="79.19" y="312.93" width="8.24" height="39.23" transform="translate(-0.93 0.23) rotate(-0.16)"/><rect class="cls-3" x="78.51" y="348.26" width="8.98" height="3.91" transform="translate(-0.98 0.23) rotate(-0.16)"/><rect class="cls-3" x="78.5" y="343.21" width="8.98" height="3.91" transform="translate(-0.96 0.23) rotate(-0.16)"/><rect class="cls-3" x="78.48" y="338.17" width="8.98" height="3.91" transform="translate(-0.95 0.23) rotate(-0.16)"/><rect class="cls-3" x="78.47" y="333.12" width="8.98" height="3.91" transform="translate(-0.94 0.23) rotate(-0.16)"/><rect class="cls-3" x="78.45" y="328.08" width="8.98" height="3.91" transform="translate(-0.92 0.23) rotate(-0.16)"/><rect class="cls-3" x="78.43" y="323.03" width="8.98" height="3.91" transform="translate(-0.91 0.23) rotate(-0.16)"/><rect class="cls-3" x="79.47" y="315.36" width="8.98" height="3.91"/><rect class="cls-3" x="78.39" y="312.94" width="8.98" height="3.91" transform="translate(-0.88 0.23) rotate(-0.16)"/><rect class="cls-9" x="48.77" y="327.94" width="26.71" height="24.2" transform="translate(-0.95 0.17) rotate(-0.16)"/><path class="cls-9" d="M75.43,328.35c0,5.72-5.94,10.38-13.32,10.4s-13.37-4.6-13.39-10.32S54.67,318,62,318,75.41,322.62,75.43,328.35Z"/><path class="cls-6" d="M65.85,144.13H55.23l5-142.63a.31.31,0,0,1,.31.3Z"/><path class="cls-6" d="M208.8,225.13h-2.63l1.24-35.35a.08.08,0,0,1,.08.07Z"/><ellipse class="cls-6" cx="207.49" cy="189.91" rx="1.32" ry="1.45"/><rect class="cls-6" x="48.72" y="144.13" width="23.5" height="15.15"/><rect class="cls-7" x="184.73" y="250.9" width="46.65" height="43.44"/><rect class="cls-8" x="182.63" y="251.15" width="8.24" height="39.23" transform="translate(-0.76 0.52) rotate(-0.16)"/><rect class="cls-3" x="182.68" y="286.46" width="8.98" height="3.91" transform="translate(-0.8 0.52) rotate(-0.16)"/><rect class="cls-3" x="182.66" y="281.42" width="8.98" height="3.91" transform="translate(-0.79 0.52) rotate(-0.16)"/><rect class="cls-3" x="182.66" y="276.37" width="8.98" height="3.91" transform="translate(-0.78 0.52) rotate(-0.16)"/><rect class="cls-3" x="182.63" y="271.33" width="8.98" height="3.91" transform="translate(-0.76 0.52) rotate(-0.16)"/><rect class="cls-3" x="182.62" y="266.28" width="8.98" height="3.91" transform="translate(-0.75 0.52) rotate(-0.16)"/><rect class="cls-3" x="182.6" y="261.24" width="8.98" height="3.91" transform="translate(-0.73 0.52) rotate(-0.16)"/><rect class="cls-3" x="182.58" y="256.19" width="8.98" height="3.91" transform="translate(-0.72 0.52) rotate(-0.16)"/><rect class="cls-3" x="182.58" y="251.15" width="8.98" height="3.91" transform="translate(-0.71 0.52) rotate(-0.16)"/><rect class="cls-8" x="225.2" y="250.94" width="8.24" height="39.23" transform="translate(-0.75 0.64) rotate(-0.16)"/><rect class="cls-3" x="224.52" y="286.27" width="8.98" height="3.91" transform="translate(-0.8 0.64) rotate(-0.16)"/><rect class="cls-3" x="224.49" y="281.22" width="8.98" height="3.91" transform="translate(-0.79 0.64) rotate(-0.16)"/><rect class="cls-3" x="224.48" y="276.18" width="8.98" height="3.91" transform="translate(-0.78 0.64) rotate(-0.16)"/><rect class="cls-3" x="224.47" y="271.13" width="8.98" height="3.91" transform="translate(-0.76 0.64) rotate(-0.16)"/><rect class="cls-3" x="224.44" y="266.09" width="8.98" height="3.91" transform="translate(-0.75 0.64) rotate(-0.16)"/><rect class="cls-3" x="224.44" y="261.04" width="8.98" height="3.91" transform="translate(-0.73 0.64) rotate(-0.16)"/><rect class="cls-3" x="225.3" y="252.96" width="8.98" height="3.91"/><rect class="cls-3" x="224.39" y="250.95" width="8.98" height="3.91" transform="translate(-0.71 0.64) rotate(-0.16)"/><rect class="cls-9" x="194.78" y="265.93" width="26.71" height="24.2" transform="translate(-0.78 0.58) rotate(-0.16)"/><path class="cls-9" d="M221.43,266.35c0,5.72-5.94,10.38-13.32,10.4s-13.37-4.6-13.39-10.32S200.67,256,208,256,221.41,260.62,221.43,266.35Z"/><rect class="cls-7" x="184.03" y="288.66" width="49.01" height="92.61"/><polygon class="cls-8" points="240.02 288.66 177.06 288.66 183.14 300.02 232.3 300.02 240.02 288.66"/><path class="cls-6" d="M181.28,250.91c0-.52-.05-1-.05-1.59,0-9.94,6.14-18.52,15.06-22.58h0a28.14,28.14,0,0,1,23.83.36c.47.23.93.47,1.38.73l2.89,1.89a24.46,24.46,0,0,1,10.07,19.61,14.07,14.07,0,0,1-.06,1.59Z"/><path class="cls-6" d="M341.1,301.13h-4.73l2.23-35.35c.08,0,.14,0,.14.07Z"/><ellipse class="cls-6" cx="338.74" cy="265.91" rx="2.36" ry="1.45"/><rect class="cls-7" x="294.55" y="326.9" width="92.72" height="43.44"/><polygon class="cls-8" points="397.19 354.66 287.06 354.66 298 366.02 383.33 366.02 397.19 354.66"/><path class="cls-6" d="M294.65,326.91a13.39,13.39,0,0,1-.1-1.59c0-9.94,8-18.52,24.07-22.58h0a85.53,85.53,0,0,1,20.74-2.47,84.43,84.43,0,0,1,22.08,2.83c.84.23,1.67.47,2.48.73l5.2,1.89c11,4.58,18.1,11.67,18.1,19.61a13.26,13.26,0,0,1-.1,1.59Z"/><rect class="cls-6" x="37.74" y="256.02" width="48.31" height="6"/><rect class="cls-9" x="185.81" y="313.17" width="8.26" height="24.96"/><rect class="cls-9" x="199.23" y="313.17" width="8.26" height="24.96"/><rect class="cls-9" x="226.05" y="313.02" width="7" height="25"/><path class="cls-10" d="M56.57,381.78v-1.27a26.55,26.55,0,1,0-53.09,0v1.27Z"/><path class="cls-5" d="M56.52,381.78v-1.27A26.47,26.47,0,0,0,30.09,354H30v27.81Z"/><path class="cls-10" d="M407.55,381.78v-1.27a26.54,26.54,0,1,0-53.09,0v1.27Z"/><path class="cls-5" d="M407.5,381.78v-1.27A26.47,26.47,0,0,0,381.07,354H381v27.81Z"/><path class="cls-4" d="M130.48,367.54v-.82c0-9.49-3.75-17.19-8.38-17.19s-8.38,7.7-8.38,17.19v.82Z"/><path class="cls-5" d="M130.46,367.54v-.82c0-9.49-3.72-17.19-8.38-17.19v18Z"/><path class="cls-10" d="M161.16,382.52v-1.27a26.55,26.55,0,1,0-53.09,0v1.27Z"/><path class="cls-5" d="M161.12,382.52v-1.27a26.47,26.47,0,0,0-26.4-26.54h-.14v27.81Z"/><path class="cls-10" d="M244.72,382.52v-1.27a26.54,26.54,0,1,0-53.09,0v1.27Z"/><path class="cls-5" d="M244.67,382.52v-1.27a26.47,26.47,0,0,0-26.4-26.54h-.14v27.81Z"/><path class="cls-10" d="M268,382.52v-1.66c0-19.12,11.88-34.62,26.54-34.62s23.55,15.5,23.55,34.62v1.66Z"/><path class="cls-5" d="M268.09,382.52v-1.66c0-19.12,11.78-34.62,26.54-34.62v36.28Z"/><path class="cls-10" d="M298.07,382.44v-1.6c0-18.38,9.53-33.29,21.29-33.29s21.29,14.91,21.29,33.29v1.6Z"/><path class="cls-5" d="M298.11,382.44v-1.6c0-18.38,9.45-33.29,21.29-33.29v34.88Z"/><path class="cls-10" d="M204.41,382.52v-.89a18.62,18.62,0,0,0-37.24,0v.89Z"/><path class="cls-5" d="M204.37,382.52v-.89A18.57,18.57,0,0,0,185.86,363h-.08v19.51Z"/></svg>