<svg id="Layer_1" data-name="Layer 1" xmlns="http://www.w3.org/2000/svg" viewBox="0 0 421 231"><defs><style>.cls-1{fill:#e1cd8c;}.cls-2{fill:#232323;}.cls-3{fill:#f3f3f3;}.cls-4{fill:#646464;}.cls-5{fill:#c59e21;}.cls-6{fill:#ffd800;}</style></defs><title>Untitled-1</title><rect class="cls-1" x="128.11" y="104.65" width="161.55" height="124.92"/><rect class="cls-1" x="6.12" y="158.98" width="37.4" height="66.25"/><polygon class="cls-2" points="0.28 182.24 47.98 182.24 43.37 188.1 6.13 188.1 0.28 182.24"/><polygon class="cls-2" points="0.28 163.57 47.98 163.57 43.37 169.43 6.13 169.43 0.28 163.57"/><rect class="cls-1" x="24.13" y="112.96" width="63.38" height="112.27"/><rect class="cls-1" x="88.96" y="49.78" width="40.78" height="37.97"/><rect class="cls-2" x="110.86" y="63.55" width="34.29" height="7.21" transform="translate(60.49 194.97) rotate(-89.84)"/><rect class="cls-3" x="125.92" y="78.66" width="3.42" height="7.85" transform="translate(44.69 209.98) rotate(-89.84)"/><rect class="cls-3" x="125.94" y="74.25" width="3.42" height="7.85" transform="translate(49.12 205.6) rotate(-89.84)"/><rect class="cls-3" x="125.94" y="69.84" width="3.42" height="7.85" transform="translate(53.53 201.21) rotate(-89.84)"/><rect class="cls-3" x="125.96" y="65.42" width="3.42" height="7.85" transform="translate(57.97 196.82) rotate(-89.84)"/><rect class="cls-3" x="125.98" y="61.01" width="3.42" height="7.85" transform="translate(62.4 192.44) rotate(-89.84)"/><rect class="cls-3" x="126" y="56.61" width="3.42" height="7.85" transform="translate(66.82 188.07) rotate(-89.84)"/><rect class="cls-3" x="126.01" y="52.2" width="3.42" height="7.85" transform="translate(71.24 183.69) rotate(-89.84)"/><rect class="cls-3" x="126.02" y="47.79" width="3.42" height="7.85" transform="translate(75.66 179.3) rotate(-89.84)"/><rect class="cls-2" x="73.61" y="63.34" width="34.29" height="7.21" transform="translate(23.55 157.52) rotate(-89.84)"/><rect class="cls-3" x="89.32" y="78.46" width="3.42" height="7.85" transform="translate(8.39 173.19) rotate(-89.84)"/><rect class="cls-3" x="89.33" y="74.05" width="3.42" height="7.85" transform="translate(12.81 168.79) rotate(-89.84)"/><rect class="cls-3" x="89.35" y="69.64" width="3.42" height="7.85" transform="translate(17.24 164.42) rotate(-89.84)"/><rect class="cls-3" x="89.36" y="65.23" width="3.42" height="7.85" transform="translate(21.66 160.03) rotate(-89.84)"/><rect class="cls-3" x="89.38" y="60.82" width="3.42" height="7.85" transform="translate(26.09 155.66) rotate(-89.84)"/><rect class="cls-3" x="89.39" y="56.41" width="3.42" height="7.85" transform="translate(30.52 151.27) rotate(-89.84)"/><rect class="cls-3" x="89.41" y="52" width="3.42" height="7.85" transform="translate(34.94 146.89) rotate(-89.84)"/><rect class="cls-3" x="89.42" y="47.59" width="3.42" height="7.85" transform="matrix(0, -1, 1, 0, 39.36, 142.5)"/><rect class="cls-4" x="98.75" y="61.82" width="21.15" height="23.35" transform="translate(35.52 182.62) rotate(-89.84)"/><ellipse class="cls-4" cx="109.35" cy="63.31" rx="9.06" ry="11.67" transform="translate(45.74 172.49) rotate(-89.84)"/><path class="cls-1" d="M212,0V1.9a17.9,17.9,0,0,0-5.26-.62,24.36,24.36,0,0,0-4.74.51V0Z"/><polygon class="cls-2" points="14.23 152.38 95.07 152.38 87.25 162.31 24.14 162.31 14.23 152.38"/><polygon class="cls-2" points="14.23 120.74 95.07 120.74 87.25 130.67 24.14 130.67 14.23 120.74"/><rect class="cls-1" x="87.51" y="82.78" width="42.85" height="142.32"/><polygon class="cls-2" points="80.54 141.36 135.58 141.36 130.26 151.29 87.29 151.29 80.54 141.36"/><polygon class="cls-2" points="81.42 82.78 136.46 82.78 131.14 92.71 88.16 92.71 81.42 82.78"/><rect class="cls-2" x="87.51" y="204.21" width="42.85" height="7.62"/><rect class="cls-5" x="87.51" y="168.73" width="12.09" height="8.95"/><rect class="cls-5" x="108.93" y="181.78" width="12.09" height="8.95"/><rect class="cls-5" x="31.07" y="168.73" width="12.09" height="8.95"/><rect class="cls-5" x="71.01" y="209.11" width="12.09" height="8.95"/><rect class="cls-5" x="111.7" y="100.18" width="12.09" height="8.95"/><path class="cls-5" d="M132.76,49.78V48.39a21.84,21.84,0,0,0-13.17-19.74h0A24.6,24.6,0,0,0,98.75,29c-.41.2-.81.41-1.21.64L95,31.24a21.39,21.39,0,0,0-8.81,17.14,12.83,12.83,0,0,0,0,1.39Z"/><path class="cls-5" d="M128.11,35.48,91.34,35c8.19-6.81,12.32-8.89,17.46-17.52C113.16,25.23,119.22,27.56,128.11,35.48Z"/><rect class="cls-1" x="163.1" y="34.68" width="88.4" height="69.97"/><rect class="cls-4" x="163.1" y="51.65" width="88.4" height="41.73"/><path class="cls-5" d="M251.41,34.68c.06-.67.09-1.34.09-2,0-12.61-10.2-23.5-25-28.64h0A59.88,59.88,0,0,0,187,4.5c-.78.29-1.54.6-2.29.92l-4.8,2.39c-10.2,5.82-16.72,14.81-16.72,24.88a13.2,13.2,0,0,0,.1,2Z"/><rect class="cls-5" x="24.13" y="110.88" width="63.38" height="2.08"/><polyline class="cls-4" points="63.82 208.99 63.86 195.86 50.65 195.81 50.62 208.95"/><path class="cls-4" d="M57.27,190.44c-3.65,0-6.61,2.5-6.62,5.6s2.94,5.63,6.58,5.64,6.61-2.5,6.62-5.6-2.94-5.63-6.58-5.64"/><polyline class="cls-2" points="47.51 187.53 47.51 205.48 45.39 205.48 45.39 187.53"/><rect class="cls-5" x="43.47" y="206.48" width="5.98" height="2.73"/><rect class="cls-2" x="44.03" y="206.93" width="4.85" height="1.83"/><polyline class="cls-5" points="43.24 210.39 43.24 209.61 49.74 209.61 49.74 210.39"/><rect class="cls-5" x="43.16" y="205.31" width="6.5" height="0.78"/><polygon class="cls-2" points="49.74 209.61 43.24 209.61 43.46 209.21 49.44 209.21 49.74 209.61"/><polygon class="cls-2" points="43.16 206.09 49.66 206.09 49.43 206.48 43.46 206.48 43.16 206.09"/><polyline class="cls-5" points="48.88 189.58 48.88 205.48 46.76 205.48 46.76 189.58"/><polyline class="cls-5" points="46.15 189.58 46.15 205.48 44.03 205.48 44.03 189.58"/><polyline class="cls-2" points="68.87 187.53 68.87 205.48 66.75 205.48 66.75 187.53"/><rect class="cls-5" x="64.82" y="206.48" width="5.98" height="2.73"/><rect class="cls-2" x="65.38" y="206.93" width="4.85" height="1.83"/><polyline class="cls-5" points="64.6 210.39 64.6 209.61 71.09 209.61 71.09 210.39"/><rect class="cls-5" x="64.52" y="205.31" width="6.5" height="0.78"/><polygon class="cls-2" points="71.09 209.61 64.6 209.61 64.82 209.21 70.8 209.21 71.09 209.61"/><polygon class="cls-2" points="64.52 206.09 71.01 206.09 70.79 206.48 64.81 206.48 64.52 206.09"/><polyline class="cls-5" points="70.23 189.58 70.23 205.48 68.11 205.48 68.11 189.58"/><rect class="cls-5" x="132.09" y="125.7" width="157.57" height="4.97"/><rect class="cls-5" x="129.75" y="102.17" width="159.91" height="4.97"/><polyline class="cls-5" points="67.5 189.58 67.5 205.48 65.38 205.48 65.38 189.58"/><rect class="cls-5" x="43.47" y="186.48" width="27.33" height="3.08"/><rect class="cls-1" x="375.59" y="158.98" width="37.4" height="66.25"/><polygon class="cls-2" points="418.83 182.24 371.13 182.24 375.74 188.1 412.99 188.1 418.83 182.24"/><polygon class="cls-2" points="418.83 163.57 371.13 163.57 375.74 169.43 412.99 169.43 418.83 163.57"/><rect class="cls-1" x="331.6" y="112.96" width="63.38" height="112.27"/><rect class="cls-1" x="289.37" y="49.77" width="40.78" height="37.97"/><rect class="cls-2" x="287.52" y="50" width="7.21" height="34.29" transform="translate(-0.19 0.81) rotate(-0.16)"/><rect class="cls-3" x="287.57" y="80.88" width="7.85" height="3.42" transform="translate(-0.23 0.81) rotate(-0.16)"/><rect class="cls-3" x="287.55" y="76.47" width="7.85" height="3.42" transform="translate(-0.22 0.81) rotate(-0.16)"/><rect class="cls-3" x="287.54" y="72.06" width="7.85" height="3.42" transform="translate(-0.2 0.81) rotate(-0.16)"/><rect class="cls-3" x="287.53" y="67.65" width="7.85" height="3.42" transform="translate(-0.19 0.81) rotate(-0.16)"/><rect class="cls-3" x="287.51" y="63.24" width="7.85" height="3.42" transform="translate(-0.18 0.81) rotate(-0.16)"/><rect class="cls-3" x="287.5" y="58.82" width="7.85" height="3.42" transform="translate(-0.17 0.81) rotate(-0.16)"/><rect class="cls-3" x="286.73" y="56.13" width="7.85" height="3.42"/><rect class="cls-3" x="286.73" y="51.72" width="7.85" height="3.42"/><rect class="cls-2" x="324.73" y="49.8" width="7.21" height="34.29" transform="translate(-0.19 0.92) rotate(-0.16)"/><rect class="cls-3" x="324.14" y="80.68" width="7.85" height="3.42" transform="translate(-0.23 0.92) rotate(-0.16)"/><rect class="cls-3" x="324.13" y="76.27" width="7.85" height="3.42" transform="translate(-0.22 0.92) rotate(-0.16)"/><rect class="cls-3" x="324.11" y="71.86" width="7.85" height="3.42" transform="translate(-0.2 0.92) rotate(-0.16)"/><rect class="cls-3" x="324.1" y="67.44" width="7.85" height="3.42" transform="translate(-0.19 0.92) rotate(-0.16)"/><rect class="cls-3" x="324.08" y="63.03" width="7.85" height="3.42" transform="translate(-0.18 0.92) rotate(-0.16)"/><rect class="cls-3" x="324.07" y="58.62" width="7.85" height="3.42" transform="translate(-0.17 0.92) rotate(-0.16)"/><rect class="cls-3" x="324.05" y="54.21" width="7.85" height="3.42" transform="translate(-0.15 0.92) rotate(-0.16)"/><rect class="cls-3" x="324.03" y="49.8" width="7.85" height="3.42" transform="translate(-0.14 0.92) rotate(-0.16)"/><rect class="cls-4" x="297.34" y="64.7" width="23.35" height="21.15"/><ellipse class="cls-4" cx="309.78" cy="63.29" rx="11.67" ry="9.06" transform="translate(-0.18 0.87) rotate(-0.16)"/><polygon class="cls-2" points="404.88 152.38 324.04 152.38 331.86 162.31 394.97 162.31 404.88 152.38"/><polygon class="cls-2" points="404.88 120.74 324.04 120.74 331.86 130.67 394.97 130.67 404.88 120.74"/><rect class="cls-1" x="288.75" y="82.79" width="42.85" height="142.32"/><polygon class="cls-2" points="338.57 141.36 283.52 141.36 288.85 151.29 331.82 151.29 338.57 141.36"/><polygon class="cls-2" points="337.69 82.78 282.65 82.78 287.97 92.71 330.95 92.71 337.69 82.78"/><rect class="cls-2" x="288.75" y="204.21" width="42.85" height="7.62"/><rect class="cls-5" x="319.51" y="168.74" width="12.09" height="8.95"/><rect class="cls-5" x="298.08" y="181.77" width="12.09" height="8.95"/><rect class="cls-5" x="375.94" y="168.74" width="12.09" height="8.95"/><rect class="cls-5" x="336.01" y="209.1" width="12.09" height="8.95"/><rect class="cls-5" x="295.32" y="100.18" width="12.09" height="8.95"/><path class="cls-5" d="M286.35,49.78V48.39a21.84,21.84,0,0,1,13.17-19.74h0a24.6,24.6,0,0,1,20.84.31c.41.2.81.41,1.21.64l2.53,1.65a21.39,21.39,0,0,1,8.81,17.14,12.83,12.83,0,0,1,0,1.39Z"/><path class="cls-5" d="M291,35.48,327.77,35c-8.19-6.81-12.32-8.89-17.46-17.52C306,25.23,299.89,27.56,291,35.48Z"/><rect class="cls-5" x="331.6" y="110.88" width="63.38" height="2.08"/><polyline class="cls-4" points="355.29 208.99 355.25 195.86 368.46 195.81 368.49 208.95"/><path class="cls-4" d="M361.84,190.44c3.65,0,6.61,2.5,6.62,5.6s-2.94,5.63-6.58,5.64-6.61-2.5-6.62-5.6,2.94-5.63,6.58-5.64"/><polyline class="cls-2" points="371.6 187.53 371.6 205.48 373.72 205.48 373.72 187.53"/><rect class="cls-5" x="369.66" y="206.48" width="5.98" height="2.73"/><rect class="cls-2" x="370.23" y="206.93" width="4.85" height="1.83"/><polyline class="cls-5" points="375.87 210.39 375.87 209.61 369.37 209.61 369.37 210.39"/><rect class="cls-5" x="369.45" y="205.31" width="6.5" height="0.78"/><polygon class="cls-2" points="369.37 209.61 375.87 209.61 375.64 209.21 369.67 209.21 369.37 209.61"/><polygon class="cls-2" points="375.95 206.09 369.45 206.09 369.68 206.48 375.65 206.48 375.95 206.09"/><polyline class="cls-5" points="370.23 189.58 370.23 205.48 372.35 205.48 372.35 189.58"/><polyline class="cls-5" points="372.96 189.58 372.96 205.48 375.08 205.48 375.08 189.58"/><polyline class="cls-2" points="350.24 187.53 350.24 205.48 352.36 205.48 352.36 187.53"/><rect class="cls-5" x="348.31" y="206.48" width="5.98" height="2.73"/><rect class="cls-2" x="348.88" y="206.93" width="4.85" height="1.83"/><polyline class="cls-5" points="354.51 210.39 354.51 209.61 348.02 209.61 348.02 210.39"/><rect class="cls-5" x="348.09" y="205.31" width="6.5" height="0.78"/><polygon class="cls-2" points="348.02 209.61 354.51 209.61 354.29 209.21 348.32 209.21 348.02 209.61"/><polygon class="cls-2" points="354.59 206.09 348.1 206.09 348.32 206.48 354.3 206.48 354.59 206.09"/><polyline class="cls-5" points="348.88 189.58 348.88 205.48 351 205.48 351 189.58"/><polyline class="cls-5" points="351.61 189.58 351.61 205.48 353.73 205.48 353.73 189.58"/><rect class="cls-5" x="348.31" y="186.48" width="27.33" height="3.08"/><polygon class="cls-3" points="125.96 156.02 208.62 116.33 291.27 156.02 125.96 156.02"/><rect class="cls-2" x="125.96" y="156.53" width="165.31" height="9.5"/><rect class="cls-6" x="125.96" y="166.03" width="165.31" height="63.55"/><rect class="cls-5" x="132.09" y="166.03" width="10.31" height="63.55"/><rect class="cls-5" x="155.76" y="166.03" width="10.31" height="63.55"/><rect class="cls-5" x="179.43" y="166.03" width="10.31" height="63.55"/><rect class="cls-5" x="203.1" y="166.03" width="10.31" height="63.55"/><rect class="cls-5" x="226.77" y="166.03" width="10.31" height="63.55"/><rect class="cls-5" x="250.44" y="166.03" width="10.31" height="63.55"/><rect class="cls-5" x="274.11" y="166.03" width="10.31" height="63.55"/><rect class="cls-1" x="166.73" y="48.89" width="7.14" height="44.43"/><rect class="cls-1" x="181.81" y="48.89" width="7.14" height="44.43"/><rect class="cls-1" x="196.89" y="48.89" width="7.14" height="44.43"/><rect class="cls-1" x="211.96" y="48.89" width="7.14" height="44.43"/><rect class="cls-1" x="227.04" y="48.89" width="7.14" height="44.43"/><rect class="cls-1" x="242.12" y="48.89" width="7.14" height="44.43"/><rect class="cls-3" x="163.1" y="34.68" width="88.4" height="3.45"/></svg>