<svg xmlns="http://www.w3.org/2000/svg" xmlns:xlink="http://www.w3.org/1999/xlink" viewBox="0 0 253 303"><defs><style>.cls-1{isolation:isolate;}.cls-2{fill:#535353;}.cls-3{fill:#ff8a8a;}.cls-4{fill:#f2f2f2;}.cls-5{fill:#212121;}.cls-6{fill:#ffa947;}.cls-7,.cls-8{mix-blend-mode:multiply;}.cls-7{fill:url(#linear-gradient);}.cls-8{fill:url(#linear-gradient-2);}</style><linearGradient id="linear-gradient" x1="122.38" y1="165" x2="122.38" y2="155" gradientUnits="userSpaceOnUse"><stop offset="0" stop-color="#fff"/><stop offset="1" stop-color="#b2edcf" stop-opacity="0.4"/></linearGradient><linearGradient id="linear-gradient-2" x1="121.8" y1="285.13" x2="121.8" y2="275.95" xlink:href="#linear-gradient"/></defs><title>Untitled-1</title><g class="cls-1"><g id="Layer_1" data-name="Layer 1"><rect class="cls-2" x="52.53" y="278.57" width="138.53" height="21.49"/><rect class="cls-3" x="52.53" y="285.22" width="138.34" height="3.42"/><rect class="cls-3" x="52.53" y="292.27" width="138.34" height="3.42"/><rect class="cls-4" x="123.88" y="280.54" width="12.96" height="19.67"/><rect class="cls-5" x="120.88" y="285.04" width="18.96" height="11.39" transform="translate(421.1 160.37) rotate(90)"/><rect class="cls-3" x="123.53" y="300.21" width="13.67" height="2.52"/><rect class="cls-4" x="126.02" y="290.18" width="3.81" height="3.81"/><rect class="cls-4" x="130.81" y="290.18" width="3.81" height="3.81"/><path class="cls-2" d="M172.83,152.9c-.45-28.77-22.59-52-49.85-52s-49.41,23.18-49.85,52Z"/><rect class="cls-5" x="87.2" y="179.14" width="8.59" height="14.63" rx="4.29" ry="4.29"/><path class="cls-2" d="M122,152V265H53.71c15.75-19,28.75-48.28,25.68-100.28-.18-3.12-.42-6.28-.73-9.56-.1-1.05-.2-1.17-.31-3.17Z"/><path class="cls-2" d="M166.44,152H122V265h69.07C174.08,244,160.28,212,166.44,152Z"/><path class="cls-3" d="M191.08,265H122V152h44.44c-.11,2-.22,2.39-.33,3.49-.29,3.13-.52,5.88-.7,8.87C162.28,216.53,175.31,246,191.08,265Z"/><path class="cls-6" d="M149.53,265H122V152h2.89C118.73,212,132.54,244,149.53,265Z"/><path class="cls-7" d="M166.11,155c-.18,2-.33,4.09-.46,6-.06.65-.1,1.38-.14,2s-.08,2-.11,2h-86c-.18-3-.42-5-.73-10Z"/><path class="cls-4" d="M73.07,8.36l39.77,92.72L140.2,92,100.43-.72ZM94.36,5.53l5.47-1.82L102.11,9l-5.47,1.82Zm3.41,7.95,5.47-1.82,2.27,5.3L100,18.78Zm3.41,7.95,5.47-1.82,2.5,5.83-5.47,1.82Zm3.41,7.95,5.47-1.82,2.5,5.83-5.47,1.82Zm3.64,8.48L113.7,36l2.27,5.3-5.47,1.82Zm3.41,7.95L117.1,44l2.27,5.3L113.9,51.1ZM115,53.75l5.47-1.82,2.27,5.3L117.31,59Zm3.41,7.95,5.47-1.82,2.27,5.3L120.72,67Zm3.41,7.95,5.47-1.82,2.5,5.83-5.47,1.82Zm6,22.81-5.47,1.82L120.15,89l5.47-1.82Zm-3.41-7.95L119,86.32l-2.5-5.83L122,78.68Zm-3.41-7.95-5.47,1.82-2.5-5.83,5.47-1.82Zm-3.64-8.48L112,69.9l-2.27-5.3,5.47-1.82ZM114,60.14,108.56,62l-2.27-5.3,5.47-1.82Zm-3.41-7.95L105.15,54l-2.27-5.3,5.47-1.82Zm-3.41-7.95-5.47,1.82-2.27-5.3,5.47-1.82Zm-3.41-7.95-5.47,1.82-2.5-5.83,5.47-1.82Zm-3.41-7.95-5.47,1.82-2.5-5.83,5.47-1.82Zm-3.64-8.48-5.47,1.82L89,16.38l5.47-1.82Zm-3.41-7.95-5.47,1.82-2.27-5.3,5.47-1.82Zm43.3,77.63-5.47,1.82-2.27-5.3,5.47-1.82Zm-3.41-7.95-5.47,1.82-2.5-5.83,5.47-1.82Z"/><polygon class="cls-4" points="120.58 98.7 112.78 101.29 72.92 8.35 80.72 5.77 120.58 98.7"/><polygon class="cls-4" points="131.76 124.62 96.8 43.1 89 45.69 123.88 127.03 131.76 124.62"/><path class="cls-4" d="M241.4,63.4l-88,49.41,11.94,26.24,88-49.41Zm5.08,20.87,2.39,5.25-5,2.82-2.39-5.25Zm-7.54,4.24,2.39,5.25-5,2.82-2.39-5.25Zm-7.54,4.24L233.79,98l-5.53,3.11-2.39-5.25ZM223.86,97l2.39,5.25-5.53,3.11-2.39-5.25Zm-8,4.52,2.39,5.25-5,2.82-2.39-5.25Zm-7.54,4.24,2.39,5.25-5,2.82-2.39-5.25ZM200.74,110l2.39,5.25-5,2.82-2.39-5.25Zm-7.54,4.24,2.39,5.25-5,2.82L188.17,117Zm-7.54,4.24,2.39,5.25-5.53,3.11-2.39-5.25Zm-22,8.43-2.39-5.25,5-2.82,2.39,5.25Zm7.54-4.24-2.39-5.25,5.53-3.11,2.39,5.25Zm7.54-4.24-2.39-5.25,5.53-3.11,2.39,5.25Zm8-4.52-2.39-5.25,5-2.82,2.39,5.25Zm7.54-4.24-2.39-5.25,5-2.82,2.39,5.25Zm7.54-4.24-2.39-5.25,5-2.82,2.39,5.25Zm7.54-4.24L207,95.92l5-2.82,2.39,5.25Zm7.54-4.24-2.39-5.25L220,88.58l2.39,5.25Zm7.54-4.24L222,87.45l5.53-3.11L230,89.59Zm8-4.52-2.39-5.25,5-2.82,2.39,5.25ZM240,83.95l-2.39-5.25,5-2.82L245,81.12Zm-72.59,51.31L165,130l5-2.82,2.39,5.25ZM175,131l-2.39-5.25,5.53-3.11,2.39,5.25Z"/><polygon class="cls-4" points="156.62 120.25 153.22 112.77 241.39 63.25 244.79 70.73 156.62 120.25"/><polygon class="cls-4" points="132.05 134.13 209.38 90.69 205.98 83.21 128.81 126.55 132.05 134.13"/><path class="cls-4" d="M11.84,197.33l88-49.31L88,121.77l-88,49.31ZM6.79,176.45,4.41,171.2l5-2.82,2.38,5.25Zm7.54-4.23L12,167l5-2.82,2.38,5.25ZM21.88,168l-2.38-5.25,5.53-3.1,2.38,5.25Zm7.54-4.23L27,158.52l5.53-3.1L35,160.67Zm8-4.51L35.09,154l5-2.82,2.38,5.25ZM45,155l-2.38-5.25,5-2.82L50,152.22Zm7.54-4.23-2.38-5.25,5-2.82L57.59,148Zm7.54-4.23-2.38-5.25,5-2.82,2.38,5.25Zm7.54-4.23-2.38-5.25,5.53-3.1,2.38,5.25ZM89.71,134l2.38,5.25-5,2.82-2.38-5.25Zm-7.54,4.23,2.38,5.25L79,146.53l-2.38-5.25Zm-7.54,4.23L77,147.66l-5.53,3.1-2.38-5.25Zm-8,4.51,2.38,5.25-5,2.82-2.38-5.25ZM59,151.15l2.38,5.25-5,2.82L54,154Zm-7.54,4.23,2.38,5.25-5,2.82-2.38-5.25Zm-7.54,4.23,2.38,5.25-5,2.82-2.38-5.25Zm-7.54,4.23,2.38,5.25-5.53,3.1-2.38-5.25Zm-7.54,4.23,2.38,5.25-5.53,3.1-2.38-5.25Zm-8,4.51,2.38,5.25-5,2.82-2.38-5.25Zm-7.54,4.23L15.63,182l-5,2.82L8.22,179.6ZM85.9,125.56l2.38,5.25-5,2.82-2.38-5.25Zm-7.54,4.23L80.73,135l-5.53,3.1-2.38-5.25Z"/><polygon class="cls-4" points="96.69 140.57 100.08 148.06 11.86 197.48 8.46 190 96.69 140.57"/><polygon class="cls-4" points="121.28 126.73 43.9 170.08 47.29 177.56 124.51 134.31 121.28 126.73"/><rect class="cls-8" x="52.53" y="275.95" width="138.53" height="9.18"/><rect class="cls-3" x="48.51" y="264.88" width="147.76" height="14.86"/><rect class="cls-6" x="84.8" y="218.4" width="18.76" height="28.01"/><rect class="cls-3" x="87.15" y="220.43" width="14.06" height="18.18"/><polygon class="cls-4" points="102 223.77 102 239 87 239 87 237.84 102 223.77"/><rect class="cls-6" x="67.02" y="152.49" width="109.79" height="6.34"/><rect class="cls-6" x="139.93" y="170.46" width="18.76" height="28.01"/><rect class="cls-3" x="142" y="173" width="14" height="18"/><polygon class="cls-4" points="156 176.23 156 191 142 191 142 189.9 156 176.23"/><path class="cls-4" d="M206.92,243.53l-56.79-83.39L125,174.28l56.79,83.39Zm-20.35,6.85-5,2.83-3.25-4.77,5-2.83Zm-4.87-7.15-5,2.83-3.25-4.77,5-2.83Zm-4.87-7.15-5,2.83-3.57-5.24,5-2.83ZM172,228.93l-5,2.83-3.57-5.24,5-2.83Zm-5.19-7.62-5,2.83-3.25-4.77,5-2.83Zm-4.87-7.15-5,2.83-3.25-4.77,5-2.83ZM157,207l-5,2.83-3.25-4.77,5-2.83Zm-4.87-7.15-5,2.83-3.25-4.77,5-2.83Zm-4.87-7.15-5,2.83-3.57-5.24,5-2.83ZM137,171.48l5-2.83,3.25,4.77-5,2.83Zm4.87,7.15,5-2.83,3.57,5.24-5,2.83Zm4.87,7.15,5-2.83,3.57,5.24-5,2.83Zm5.19,7.62,5-2.83,3.25,4.77-5,2.83Zm4.87,7.15,5-2.83,3.25,4.77-5,2.83Zm4.87,7.15,5-2.83,3.25,4.77-5,2.83Zm4.87,7.15,5-2.83,3.25,4.77-5,2.83Zm4.87,7.15,5-2.83,3.57,5.24-5,2.83Zm4.87,7.15,5-2.83,3.57,5.24-5,2.83Zm5.19,7.62,5-2.83,3.25,4.77-5,2.83Zm4.87,7.15,5-2.83,3.25,4.77-5,2.83ZM129,176l5-2.83,3.25,4.77-5,2.83Zm4.87,7.15,5-2.83,3.57,5.24-5,2.83Z"/><polygon class="cls-4" points="142.99 163.95 150.15 159.92 207.07 243.5 199.91 247.53 142.99 163.95"/><polygon class="cls-4" points="127.05 140.66 176.98 213.97 184.14 209.94 134.32 136.78 127.05 140.66"/><rect class="cls-4" x="125.72" y="283.08" width="4.11" height="4.11"/><rect class="cls-4" x="130.89" y="283.08" width="4.11" height="4.11"/><rect class="cls-6" x="89.91" y="142.71" width="68.56" height="6.34"/><path class="cls-6" d="M153.78,143.12c0-.1,0-.2,0-.3,0-15.26-13.07-27.64-29.2-27.64s-29.2,12.37-29.2,27.64c0,.1,0,.2,0,.3Z"/><path class="cls-4" d="M121,119.32V140H101.86s0-.58,0-.65a19.27,19.27,0,0,1,7.5-15A24.75,24.75,0,0,1,121,119.32Z"/><path class="cls-3" d="M121,119.32V140h.17l-11.86-15.53A25,25,0,0,1,121,119.32Z"/><path class="cls-4" d="M129,119.32V140h18.24s0-.58,0-.65a18.84,18.84,0,0,0-7-15A28.13,28.13,0,0,0,129,119.32Z"/><path class="cls-3" d="M129,119.32V140h-1.07l12.31-15.53A28.63,28.63,0,0,0,129,119.32Z"/></g></g></svg>