<svg id="Layer_1" data-name="Layer 1" xmlns="http://www.w3.org/2000/svg" viewBox="0 0 417 293"><defs><style>.cls-1{fill:#4d4d4d;}.cls-10,.cls-11,.cls-2,.cls-8{fill:#f2f2f2;}.cls-3,.cls-5,.cls-7{fill:none;}.cls-4{fill:#b9e3ff;}.cls-5,.cls-7{stroke:#4d4d4d;}.cls-11,.cls-5,.cls-7{stroke-miterlimit:10;}.cls-5{stroke-width:4px;}.cls-6{fill:#1a1a1a;}.cls-7{stroke-width:3px;}.cls-8{font-size:11.38px;}.cls-10,.cls-8{font-family:Helvetica-Bold, Helvetica;font-weight:700;}.cls-9{letter-spacing:-0.05em;}.cls-10{font-size:6.29px;}.cls-11{stroke:#f2f2f2;}</style></defs><title>vangoghmuseum</title><path class="cls-1" d="M215,3l-2.17,16.69-1.29,9.91S40,108,20,122c-8.84,0-10.63-9.77-12.16-19.31,0,0,0,0,0,0A94.38,94.38,0,0,0,6,93C32-26,215,3,215,3Z"/><polygon class="cls-2" points="266.26 164.53 265.97 167.52 254 290 183 290 194.31 158.64 198.22 158.55 198.23 159.1 266.26 164.53"/><path class="cls-2" d="M212.83,19.69l-1.29,9.91S40,108,20,122c-8.84,0-10.63-9.77-12.16-19.31,0,0,0,0,0,0C37.54-.55,192.63,17,212.83,19.69Z"/><path class="cls-1" d="M184,287S54,288,20,272V122s4-80,192-99C210,59,184,287,184,287Z"/><rect class="cls-3" x="196.55" y="198.63" width="51.8" height="79.76" transform="matrix(1, 0.07, -0.07, 1, 18.26, -15.81)"/><rect class="cls-3" x="221" y="168" width="62" height="18"/><polygon class="cls-4" points="255.32 221 255.1 222.61 254.06 230.38 247.79 277.21 192 277.21 194.57 255.43 198.63 221 255.32 221"/><polygon class="cls-2" points="255.1 222.61 254.06 230.38 205.31 277.21 192 277.21 194.57 255.43 229 221 249.97 221 255.1 222.61"/><polygon class="cls-5" points="258 201 255.32 221 247.79 277.21 192 277.21 198.63 221 200.88 201.94 258 201"/><rect class="cls-6" x="92" y="93" width="67" height="84" transform="translate(-1.49 1.4) rotate(-0.63)"/><path class="cls-2" d="M416,106V270c-2.19,1.64-9,3.39-18.73,5.15l-4,.7c-14.1,2.36-33,4.73-52.37,6.86l-4,.44h-.14c-30.75,3.33-61.86,6-75.93,7.2L253,291,291,17a112.23,112.23,0,0,1,56.17,14.37q2,1.08,3.92,2.24c21.52,12.85,37.72,30.89,48.55,45.74q2,2.8,3.83,5.43A169.66,169.66,0,0,1,416,106Z"/><path class="cls-4" d="M416,106v8.58L260.77,290.36,253,291,291,17a112.23,112.23,0,0,1,56.17,14.37q2,1.08,3.92,2.24c21.52,12.85,37.72,30.89,48.55,45.74q2,2.8,3.83,5.43A169.66,169.66,0,0,1,416,106Z"/><path class="cls-1" d="M351.09,33.61l-10.22,249.1-4,.44L347.17,31.37Q349.17,32.45,351.09,33.61Z"/><rect class="cls-1" x="267.93" y="15.52" width="5.48" height="275.63" transform="translate(21.81 -33.33) rotate(7.34)"/><path class="cls-4" d="M416,202.53V270c-2.19,1.64-9,3.39-18.73,5.15l-4,.7c-14.1,2.36-33,4.73-52.37,6.86l-4,.44h-.14Z"/><path class="cls-1" d="M403.47,84.78l-6.2,190.37-4,.7,6.4-196.5Q401.68,82.15,403.47,84.78Z"/><path class="cls-7" d="M417.5,184.5C377.3,157.67,276.19,161.76,270.89,162h-.22"/><path class="cls-7" d="M264,209.85s138.74,7.72,152.49,11.65"/><path class="cls-7" d="M254.84,284.76S397.5,283.5,415.5,269.5l1-163c4.3-4.63-50.48-91.87-131-90"/><line class="cls-7" x1="415.93" y1="256.91" x2="258" y2="261.15"/><path class="cls-7" d="M276.5,108.5s119,8.23,140,42.11"/><path class="cls-7" d="M283.5,58.5s115.87,13.88,132.43,51.94"/><polygon class="cls-1" points="283.18 284.78 266.27 283.09 288.82 58.22 306 61 283.18 284.78"/><rect class="cls-1" x="89" y="91" width="67" height="84" transform="translate(-1.46 1.36) rotate(-0.63)"/><text class="cls-8" transform="translate(129.04 111.02)"><tspan class="cls-9">V</tspan><tspan x="6.97" y="0">an</tspan><tspan x="-9.46" y="13.66">Gogh</tspan><tspan x="-25.92" y="27.32">Museum</tspan></text><polygon class="cls-1" points="271 164.91 270.77 167.9 265.97 167.52 198 162.09 198.23 159.1 266.26 164.53 271 164.91"/><rect class="cls-1" x="184" y="288" width="72" height="5"/><polygon class="cls-1" points="324 283 256 293 252 285 324 283 324 283"/><text class="cls-10" transform="translate(114.85 156.97)">Amsterdam</text><line class="cls-11" x1="36.79" y1="88.54" x2="36.79" y2="275.85"/></svg>