<svg xmlns="http://www.w3.org/2000/svg" xmlns:xlink="http://www.w3.org/1999/xlink" viewBox="0 0 215 265"><defs><style>.cls-1{isolation:isolate;}.cls-2{fill:#ffa947;}.cls-3{fill:#535353;}.cls-12,.cls-13,.cls-4{mix-blend-mode:multiply;}.cls-4{fill:url(#linear-gradient);}.cls-5{fill:#f2f2f2;}.cls-6{fill:#ff5c5c;}.cls-7{fill:#5d5d5d;}.cls-8{fill:#212121;}.cls-9{fill:#ffad4f;}.cls-10{fill:#ff8d8d;}.cls-11{fill:#232323;}.cls-12{fill:url(#linear-gradient-2);}.cls-13{fill:url(#linear-gradient-3);}.cls-14{fill:#1a1a1a;}.cls-15{fill:#ffd800;}.cls-16{fill:#4d4d4d;}.cls-17{fill:#f80;}.cls-18{fill:#b2edcf;}.cls-19{fill:#8dc6a7;}</style><linearGradient id="linear-gradient" x1="142.59" y1="177.4" x2="142.59" y2="169.94" gradientTransform="translate(-1.6 29.21)" gradientUnits="userSpaceOnUse"><stop offset="0" stop-color="#fff"/><stop offset="1" stop-color="#b2edcf" stop-opacity="0.4"/></linearGradient><linearGradient id="linear-gradient-2" x1="49.97" y1="190.08" x2="49.97" y2="182.61" gradientTransform="matrix(1, 0, 0, 1, 0, 0)" xlink:href="#linear-gradient"/><linearGradient id="linear-gradient-3" x1="50.06" y1="97.16" x2="50.06" y2="89.69" gradientTransform="matrix(1, 0, 0, 1, 0, 0)" xlink:href="#linear-gradient"/></defs><title>Untitled-1</title><g class="cls-1"><g id="Layer_1" data-name="Layer 1"><rect class="cls-2" x="75.03" y="195.72" width="130.69" height="65.35" transform="translate(5.45 -3.26) rotate(1.36)"/><rect class="cls-3" x="81.55" y="53.25" width="122.56" height="142.91" transform="translate(2.99 -3.35) rotate(1.36)"/><rect class="cls-2" x="75.85" y="190.53" width="130.69" height="6.68" transform="translate(4.63 -3.29) rotate(1.36)"/><rect class="cls-4" x="75.65" y="199.14" width="130.69" height="7.47" transform="translate(4.85 -3.28) rotate(1.36)"/><path class="cls-5" d="M156.13,255.43l-34.07-.81,1.13-47.57q17.24-8.19,34.07.81Z"/><path class="cls-6" d="M94.93,247.78l-.15,6.2,17,.4,1.13-47.57a16.39,16.39,0,0,0-1.39-.9,13.69,13.69,0,0,0-14.22-.34c-.47.26-1,.54-1.42.84l-.47,20L95.35,230h0v.32h0L95.28,233l0,.76L95,247"/><path class="cls-2" d="M116.12,181l-22.29-.53.75-31.69c7.85-3.66,15.6-3.48,22.29.53Z"/><path class="cls-6" d="M114.87,152,114.25,178l-18.42-.44.62-26.06c6.86-2.94,12.29-2.84,18.37.37C114.87,151.91,114.87,151.93,114.87,152Z"/><path class="cls-7" d="M114.87,152,114.25,178l-18.42-.44,0-1.74,19-24S114.87,151.93,114.87,152Z"/><rect class="cls-2" x="94.3" y="159.39" width="22.3" height="1.94" transform="translate(3.83 -2.45) rotate(1.36)"/><path class="cls-2" d="M153,181.85l-22.29-.53.75-31.69c7.85-3.66,15.6-3.48,22.29.53Z"/><path class="cls-6" d="M151.7,152.83l-.62,26.06-18.42-.44.62-26.06c6.86-2.94,12.29-2.84,18.37.37C151.7,152.79,151.7,152.81,151.7,152.83Z"/><path class="cls-7" d="M151.7,152.83l-.62,26.06-18.42-.44,0-1.74,19-24S151.7,152.81,151.7,152.83Z"/><rect class="cls-2" x="131.14" y="160.26" width="22.3" height="1.94" transform="translate(3.86 -3.33) rotate(1.36)"/><path class="cls-2" d="M189.79,182.72l-22.29-.53.75-31.69c7.85-3.66,15.6-3.48,22.29.53Z"/><path class="cls-6" d="M188.53,153.7l-.62,26.06-18.42-.44.62-26.06c6.86-2.94,12.29-2.84,18.37.37C188.54,153.66,188.53,153.68,188.53,153.7Z"/><path class="cls-7" d="M188.53,153.7l-.62,26.06-18.42-.44,0-1.74,19-24S188.53,153.68,188.53,153.7Z"/><rect class="cls-2" x="167.97" y="161.13" width="22.3" height="1.94" transform="translate(3.89 -4.2) rotate(1.36)"/><path class="cls-2" d="M117.18,136.39l-22.29-.53.75-31.69c7.85-3.66,15.6-3.48,22.29.53Z"/><path class="cls-6" d="M115.92,107.37l-.62,26.06L96.89,133l.62-26.06c6.86-2.94,12.29-2.84,18.37.37C115.93,107.33,115.92,107.34,115.92,107.37Z"/><path class="cls-7" d="M115.92,107.37l-.62,26.06L96.89,133l0-1.74,19-24S115.92,107.34,115.92,107.37Z"/><rect class="cls-2" x="95.36" y="114.8" width="22.3" height="1.94" transform="translate(2.77 -2.49) rotate(1.36)"/><path class="cls-2" d="M154,137.26l-22.29-.53.75-31.69c7.85-3.66,15.6-3.48,22.29.53Z"/><path class="cls-6" d="M152.76,108.24l-.62,26.06-18.42-.44.62-26.06c6.86-2.94,12.29-2.84,18.37.37C152.76,108.2,152.76,108.22,152.76,108.24Z"/><path class="cls-7" d="M152.76,108.24l-.62,26.06-18.42-.44,0-1.74,19-24S152.76,108.22,152.76,108.24Z"/><rect class="cls-2" x="132.19" y="115.67" width="22.3" height="1.94" transform="translate(2.8 -3.36) rotate(1.36)"/><path class="cls-2" d="M190.84,138.13l-22.29-.53.75-31.69c7.85-3.66,15.6-3.48,22.29.53Z"/><path class="cls-6" d="M189.59,109.12,189,135.18l-18.42-.44.62-26.06c6.86-2.94,12.29-2.84,18.37.37C189.59,109.07,189.59,109.09,189.59,109.12Z"/><path class="cls-7" d="M189.59,109.12,189,135.18l-18.42-.44,0-1.74,19-24S189.59,109.09,189.59,109.12Z"/><rect class="cls-2" x="169.03" y="116.54" width="22.3" height="1.94" transform="translate(2.83 -4.24) rotate(1.36)"/><path class="cls-2" d="M118.16,94.71l-22.29-.53.75-31.69c7.85-3.66,15.6-3.48,22.29.53Z"/><path class="cls-6" d="M116.91,65.69l-.62,26.06-18.42-.44.62-26.06c6.86-2.94,12.29-2.84,18.37.37C116.91,65.65,116.91,65.66,116.91,65.69Z"/><path class="cls-7" d="M116.91,65.69l-.62,26.06-18.42-.44,0-1.74,19-24S116.91,65.66,116.91,65.69Z"/><rect class="cls-2" x="96.35" y="73.12" width="22.3" height="1.94" transform="translate(1.79 -2.53) rotate(1.36)"/><path class="cls-2" d="M155,95.58l-22.29-.53.75-31.69c7.85-3.66,15.6-3.48,22.29.53Z"/><path class="cls-6" d="M153.74,66.56l-.62,26.06-18.42-.44.62-26.06c6.86-2.94,12.29-2.84,18.37.37C153.75,66.52,153.75,66.54,153.74,66.56Z"/><path class="cls-7" d="M153.74,66.56l-.62,26.06-18.42-.44,0-1.74,19-24S153.75,66.54,153.74,66.56Z"/><rect class="cls-2" x="133.18" y="73.99" width="22.3" height="1.94" transform="matrix(1, 0.02, -0.02, 1, 1.82, -3.4)"/><path class="cls-2" d="M191.83,96.45l-22.29-.53.75-31.69c7.85-3.66,15.6-3.48,22.29.53Z"/><path class="cls-6" d="M190.58,67.44,190,93.5l-18.42-.44L172.16,67c6.86-2.94,12.29-2.84,18.37.37C190.58,67.39,190.58,67.41,190.58,67.44Z"/><path class="cls-7" d="M190.58,67.44,190,93.5l-18.42-.44,0-1.74,19-24S190.58,67.41,190.58,67.44Z"/><rect class="cls-2" x="170.02" y="74.86" width="22.3" height="1.94" transform="translate(1.85 -4.27) rotate(1.36)"/><polygon class="cls-3" points="212.44 43.48 212.05 54.74 77.53 51.56 78.34 39.69 78.34 39.54 78.17 38.91 84.25 35.62 84.27 35.61 84.3 35.56 85.92 34.69 86.23 34.51 90.86 32.05 90.88 32.03 91.43 31.73 146.52 2.4 198.27 34.69 202.21 37.15 204.96 38.85 210.06 42.02 212.44 43.48"/><rect class="cls-5" x="76.33" y="40.55" width="137.34" height="12.73" transform="matrix(1, 0.02, -0.02, 1, 1.15, -3.42)"/><rect class="cls-7" x="103.23" y="31.91" width="8" height="10.36" rx="3.05" ry="3.05" transform="translate(0.91 -2.53) rotate(1.36)"/><rect class="cls-5" x="109.53" y="32.06" width="8" height="10.36" rx="3.05" ry="3.05" transform="translate(0.91 -2.68) rotate(1.36)"/><rect class="cls-7" x="142.91" y="32.85" width="8" height="10.36" rx="3.05" ry="3.05" transform="translate(0.94 -3.47) rotate(1.36)"/><rect class="cls-5" x="149.21" y="33" width="8" height="10.36" rx="3.05" ry="3.05" transform="translate(0.95 -3.62) rotate(1.36)"/><rect class="cls-7" x="129.59" y="32.54" width="8" height="10.36" rx="3.05" ry="3.05" transform="translate(0.93 -3.15) rotate(1.36)"/><rect class="cls-5" x="135.9" y="32.69" width="8" height="10.36" rx="3.05" ry="3.05" transform="translate(0.94 -3.3) rotate(1.36)"/><rect class="cls-7" x="117.53" y="32.25" width="8" height="10.36" rx="3.05" ry="3.05" transform="translate(0.92 -2.87) rotate(1.36)"/><rect class="cls-5" x="123.83" y="32.4" width="8" height="10.36" rx="3.05" ry="3.05" transform="translate(0.93 -3.02) rotate(1.36)"/><rect class="cls-7" x="170.59" y="33.51" width="8" height="10.36" rx="3.05" ry="3.05" transform="translate(0.97 -4.12) rotate(1.36)"/><rect class="cls-5" x="176.89" y="33.66" width="8" height="10.36" rx="3.05" ry="3.05" transform="translate(0.97 -4.27) rotate(1.36)"/><rect class="cls-7" x="157.27" y="33.2" width="8" height="10.36" rx="3.05" ry="3.05" transform="translate(0.95 -3.81) rotate(1.36)"/><rect class="cls-5" x="163.57" y="33.34" width="8" height="10.36" rx="3.05" ry="3.05" transform="translate(0.96 -3.96) rotate(1.36)"/><rect class="cls-7" x="145.21" y="32.91" width="8" height="10.36" rx="3.05" ry="3.05" transform="translate(0.94 -3.52) rotate(1.36)"/><rect class="cls-5" x="151.51" y="33.06" width="8" height="10.36" rx="3.05" ry="3.05" transform="translate(0.95 -3.67) rotate(1.36)"/><rect class="cls-7" x="184.89" y="33.85" width="8" height="10.36" rx="3.05" ry="3.05" transform="translate(0.98 -4.46) rotate(1.36)"/><rect class="cls-5" x="191.19" y="34" width="8" height="10.36" rx="3.05" ry="3.05" transform="translate(0.98 -4.61) rotate(1.36)"/><rect class="cls-5" x="138.36" y="25.77" width="8" height="10.36" rx="3.05" ry="3.05" transform="translate(0.77 -3.36) rotate(1.36)"/><rect class="cls-2" x="138.16" y="16.17" width="14.63" height="21.21" transform="translate(0.68 -3.44) rotate(1.36)"/><rect class="cls-2" x="130.75" y="17.35" width="29.45" height="18.51" transform="translate(0.67 -3.44) rotate(1.36)"/><rect class="cls-5" x="138.97" y="17.35" width="13" height="18.85" transform="translate(0.68 -3.44) rotate(1.36)"/><polygon class="cls-2" points="153.01 17.02 153.05 15.93 145.88 11.95 138.44 15.45 138.4 16.68 153.01 17.02"/><rect class="cls-2" x="139.31" y="202.44" width="1.47" height="53.53" transform="translate(5.47 -3.25) rotate(1.36)"/><rect class="cls-8" x="137.74" y="236.45" width="3.92" height="41.11" transform="translate(-120.54 390.58) rotate(-88.64)"/><rect class="cls-2" x="190.82" y="136.38" width="8.42" height="5.36" transform="matrix(1, 0.02, -0.02, 1, 3.35, -4.58)"/><rect class="cls-2" x="155.59" y="98.03" width="8.42" height="5.36" transform="translate(2.43 -3.76) rotate(1.36)"/><rect class="cls-2" x="159.87" y="93.12" width="8.42" height="5.36" transform="translate(2.32 -3.86) rotate(1.36)"/><rect class="cls-5" x="17.64" y="83.45" width="64.41" height="175.77"/><rect class="cls-9" x="23.57" y="134.59" width="23.36" height="31.39"/><rect class="cls-10" x="21.04" y="139.93" width="28.41" height="20.45" transform="translate(185.4 114.9) rotate(90)"/><polygon class="cls-11" points="25.2 164.36 45.47 164.36 45.47 135.94 41.45 135.94 25.2 164.36"/><rect class="cls-9" x="34.6" y="134.59" width="1.3" height="31.39"/><rect class="cls-9" x="34.59" y="139.15" width="1.49" height="22.27" transform="translate(185.62 114.95) rotate(90)"/><rect class="cls-9" x="22.92" y="193.88" width="18.19" height="34.11"/><rect class="cls-10" x="16.58" y="202.82" width="30.87" height="15.93" transform="translate(242.8 178.77) rotate(90)"/><polygon class="cls-11" points="24.19 226.22 39.98 226.22 39.98 195.34 36.84 195.34 24.19 226.22"/><rect class="cls-9" x="31.51" y="193.88" width="1.01" height="34.11"/><rect class="cls-9" x="31.27" y="202.26" width="1.62" height="17.35" transform="translate(243.01 178.85) rotate(90)"/><rect class="cls-9" x="52.77" y="134.59" width="23.36" height="31.39"/><rect class="cls-10" x="50.24" y="139.93" width="28.41" height="20.45" transform="translate(214.6 85.7) rotate(90)"/><polygon class="cls-11" points="54.4 164.36 74.67 164.36 74.67 135.94 70.64 135.94 54.4 164.36"/><rect class="cls-9" x="63.8" y="134.59" width="1.3" height="31.39"/><rect class="cls-9" x="63.79" y="139.15" width="1.49" height="22.27" transform="translate(214.82 85.75) rotate(90)"/><rect class="cls-9" x="23.57" y="98.44" width="23.36" height="31.39"/><rect class="cls-10" x="21.04" y="103.77" width="28.41" height="20.45" transform="translate(149.24 78.75) rotate(90)"/><polygon class="cls-11" points="25.2 128.2 45.47 128.2 45.47 99.79 41.45 99.79 25.2 128.2"/><rect class="cls-9" x="34.6" y="98.44" width="1.3" height="31.39"/><rect class="cls-9" x="34.59" y="103" width="1.49" height="22.27" transform="translate(149.47 78.8) rotate(90)"/><rect class="cls-9" x="52.77" y="98.44" width="23.36" height="31.39"/><rect class="cls-10" x="50.24" y="103.77" width="28.41" height="20.45" transform="translate(178.44 49.55) rotate(90)"/><polygon class="cls-11" points="54.4 128.2 74.67 128.2 74.67 99.79 70.64 99.79 54.4 128.2"/><rect class="cls-9" x="63.8" y="98.44" width="1.3" height="31.39"/><rect class="cls-9" x="63.79" y="103" width="1.49" height="22.27" transform="translate(178.66 49.6) rotate(90)"/><path class="cls-2" d="M79,259.22H46.77v-61.5q16.14-11.11,32.28,0Z"/><path class="cls-5" d="M76,202.94V253H50V202.94c9-6,17.24-6,25.93-.13A.12.12,0,0,1,76,202.94Z"/><path class="cls-7" d="M76,202.94V253H50v-3.22l25.93-47A.12.12,0,0,1,76,202.94Z"/><rect class="cls-2" x="46.77" y="218.26" width="32.28" height="2.95"/><polygon class="cls-3" points="85.75 86 14 86 16.75 81.53 16.91 81.29 25.97 65.77 26 65.68 31.65 56 68.11 56 73.73 65.75 73.76 65.82 75.92 69.52 83.28 82.03 85.75 86"/><rect class="cls-12" x="17.88" y="182.61" width="64.18" height="7.47"/><rect class="cls-13" x="17.97" y="89.69" width="64.18" height="7.47"/><rect class="cls-3" x="14" y="85.6" width="72.12" height="4.92"/><rect class="cls-3" x="17.64" y="180.91" width="64.42" height="4.92"/><rect class="cls-2" x="42.74" y="61.81" width="14.63" height="21.21"/><rect class="cls-5" x="43.56" y="63" width="13" height="18.85"/><polygon class="cls-2" points="57.36 62.49 57.37 61.4 50.11 57.59 42.76 61.26 42.74 62.49 57.36 62.49"/><circle class="cls-14" cx="9.16" cy="254.92" r="1.86"/><path class="cls-15" d="M10.26,255.25,4.7,248.43v-3.88c0-.08-.07-.07-.15-.07H4.36c-.08,0-.15,0-.15.07v4h0a.24.24,0,0,0,.06.18l5.58,6.84a.26.26,0,0,0,.37,0A.27.27,0,0,0,10.26,255.25Z"/><rect class="cls-15" x="31.46" y="256.11" width="8.64" height="0.16" transform="translate(-53.46 13.39) rotate(-12.23)"/><rect class="cls-15" x="39.79" y="254.23" width="8.64" height="0.16" transform="matrix(0.98, -0.21, 0.21, 0.98, -52.87, 15.11)"/><rect class="cls-15" x="36.74" y="259.61" width="8.64" height="0.16" transform="translate(282.97 156.71) rotate(75.93)"/><rect class="cls-15" x="34.57" y="251.02" width="8.64" height="0.16" transform="translate(272.99 152.32) rotate(75.93)"/><rect class="cls-15" x="34.57" y="259.61" width="8.64" height="0.16" transform="matrix(-0.25, 0.97, -0.97, -0.25, 299.96, 287.8)"/><rect class="cls-15" x="36.91" y="251.02" width="8.64" height="0.16" transform="matrix(-0.25, 0.97, -0.97, -0.25, 294.58, 274.77)"/><rect class="cls-15" x="39.04" y="255.98" width="8.64" height="0.16" transform="matrix(-0.97, -0.25, 0.25, -0.97, 20.5, 514.75)"/><rect class="cls-15" x="37.87" y="258.13" width="8.64" height="0.16" transform="translate(-146.16 439.8) rotate(-124.67)"/><rect class="cls-15" x="31.46" y="255.61" width="8.64" height="0.16" transform="translate(-53.35 13.38) rotate(-12.23)"/><path class="cls-14" d="M39.87,246.14A9.17,9.17,0,1,0,49,255.31,9.17,9.17,0,0,0,39.87,246.14Zm0,16.91a7.7,7.7,0,1,1,7.7-7.7A7.7,7.7,0,0,1,39.91,263.06Z"/><circle class="cls-14" cx="39.51" cy="255.18" r="1.86"/><circle class="cls-15" cx="39.46" cy="255.13" r="0.93"/><rect class="cls-15" x="1.11" y="255.86" width="8.64" height="0.16" transform="translate(-54.09 6.96) rotate(-12.23)"/><rect class="cls-15" x="9.44" y="253.97" width="8.64" height="0.16" transform="translate(-53.5 8.68) rotate(-12.23)"/><rect class="cls-15" x="6.39" y="259.36" width="8.64" height="0.16" transform="translate(259.76 185.95) rotate(75.93)"/><rect class="cls-15" x="4.22" y="250.77" width="8.64" height="0.16" transform="translate(249.78 181.57) rotate(75.93)"/><rect class="cls-15" x="4.22" y="259.36" width="8.64" height="0.16" transform="matrix(-0.25, 0.97, -0.97, -0.25, 261.69, 316.85)"/><rect class="cls-15" x="6.56" y="250.77" width="8.64" height="0.16" transform="matrix(-0.25, 0.97, -0.97, -0.25, 256.31, 303.82)"/><rect class="cls-15" x="8.69" y="255.73" width="8.64" height="0.16" transform="translate(-39.15 506.57) rotate(-165.34)"/><rect class="cls-15" x="7.52" y="257.88" width="8.64" height="0.16" transform="translate(-193.57 414.45) rotate(-124.67)"/><rect class="cls-15" x="1.11" y="255.35" width="8.64" height="0.16" transform="translate(-53.99 6.95) rotate(-12.23)"/><path class="cls-14" d="M9.52,245.89a9.17,9.17,0,1,0,9.17,9.17A9.17,9.17,0,0,0,9.52,245.89Zm0,16.91a7.7,7.7,0,1,1,7.7-7.7A7.7,7.7,0,0,1,9.56,262.8Z"/><circle class="cls-15" cx="9.11" cy="254.87" r="0.93"/><rect class="cls-15" x="16.76" y="241.9" width="0.89" height="4.32" rx="0.31" ry="0.31" transform="translate(-87.86 23.1) rotate(-21.4)"/><rect class="cls-15" x="31.12" y="235.72" width="0.99" height="5.6" rx="0.31" ry="0.31" transform="translate(152.48 446.57) rotate(157.4)"/><rect class="cls-15" x="31.72" y="234.23" width="0.99" height="3.24" rx="0.25" ry="0.25" transform="translate(-173.14 356.23) rotate(-112.6)"/><rect class="cls-16" x="29.28" y="231.55" width="0.99" height="8.78" rx="0.41" ry="0.41" transform="translate(-198.97 300.98) rotate(-98.68)"/><polygon class="cls-14" points="22.07 259.69 9.16 256.79 9.71 254.05 22.7 254.19 22.07 259.69"/><circle class="cls-15" cx="23.34" cy="256.89" r="3.07"/><path class="cls-17" d="M39.38,254.38l-6-13.56a.66.66,0,0,0-.87-.34l-.1.06h-.07l-14.15,4.72a.61.61,0,0,0-.29.21.62.62,0,0,0-.33.17l-9.13,9.21a.62.62,0,0,0,0,.88l.05.05a.62.62,0,0,0,.88,0l9.13-9.21a.62.62,0,0,0,.11-.16l13.77-4.59,5.79,13.07a.66.66,0,0,0,1.21-.54Z"/><rect class="cls-17" x="19.41" y="245.11" width="1" height="11.98" rx="0.5" ry="0.5" transform="translate(-90.24 24.58) rotate(-21.4)"/><rect class="cls-17" x="28.54" y="242.69" width="0.96" height="16.82" rx="0.48" ry="0.48" transform="translate(167.15 39.41) rotate(39.72)"/><rect class="cls-15" x="25.42" y="259.96" width="1.99" height="0.86"/><circle class="cls-14" cx="23.46" cy="257.02" r="1.67"/><rect class="cls-15" x="23.94" y="256.22" width="1.11" height="4.93" rx="0.56" ry="0.56" transform="matrix(0.83, -0.55, 0.55, 0.83, -139.42, 57.07)"/><rect class="cls-15" x="1.83" y="244.06" width="12.53" height="0.53" rx="0.26" ry="0.26"/><rect class="cls-15" x="13.79" y="244.46" width="4.09" height="0.53" rx="0.15" ry="0.15" transform="translate(52.14 2.19) rotate(12.22)"/><path class="cls-15" d="M8.75,255.25l-5.56-6.82v-3.88c0-.08-.07-.07-.15-.07H2.85c-.08,0-.15,0-.15.07v4h0a.24.24,0,0,0,.06.18l5.58,6.84a.26.26,0,0,0,.37,0A.27.27,0,0,0,8.75,255.25Z"/><path class="cls-16" d="M20.08,240.48H16.56c-.08,0-.16-.13-.24-.12l-3-.65a1.22,1.22,0,0,0-1.46.95l0,.11a1.24,1.24,0,0,0,1,1.45l3.08.68a1.36,1.36,0,0,0,.63.25h3.52a1.65,1.65,0,0,0,1.5-1.45v-.21C21.59,240.78,20.79,240.48,20.08,240.48Z"/><path class="cls-18" d="M67.14,246.56s-.14,1.5.07,1.72H67l0-2.24Z"/><path class="cls-18" d="M66.5,244.54s.4,1.45.68,1.58l-.23.1-.77-2.1Z"/><path class="cls-19" d="M67.16,244.54s-.14,1.5.07,1.72H67L67,244Z"/><path class="cls-18" d="M67.64,244.68s-.62,1.37-.49,1.65l-.24-.07.76-2.1Z"/><path class="cls-18" d="M71.07,246.37l-.31-.16.2.2-.3.07-.48-.1.22.15-.4.05-.4-.14.15.16-.57,0h-.08l-.28-.22.08.22-.56,0h0l-.25-.23,0,.21a4,4,0,0,1-1.24-.34,4,4,0,0,1,1.35-.37l-.07.22.26-.24.45,0-.07.24.26-.24h.45l-.13.19.36-.18.3,0-.12.18.31-.16h0l.28,0-.12.18.29-.15a3.33,3.33,0,0,1,.85.27C71.44,246.24,71.13,246.16,71.07,246.37Z"/><path class="cls-19" d="M72.47,242.36l.47.08-.35.4-.77.33h.45l-.5.46-.7.21.37.06q-.37.3-.78.6l-.11.08-.62,0,.33.22c-.28.19-.56.36-.83.51h0l-.58-.08.23.27a6.81,6.81,0,0,1-2.08.76,6.82,6.82,0,0,1,1.53-1.85l.12.38.13-.6.6-.49.13.4.13-.6.23-.17.4-.28v.4l.33-.62.45-.27v.36l.28-.53h0l.43-.22v.36l.26-.49a5.72,5.72,0,0,1,1.46-.46C73.07,241.79,72.17,242.41,72.47,242.36Z"/><path class="cls-18" d="M69.5,240.25l.37-.48.31.34-.05-.64h0l.39-.42.31.34,0-.6a7.06,7.06,0,0,1,1.55-1.16,2.64,2.64,0,0,1,0,.65l-.76.63.68-.16q-.06.27-.14.56l-.75.69.59-.23c-.08.22-.18.45-.29.69l-.75.54.54-.12c-.16.31-.35.63-.55,1l-.09.13-.83.27.61,0c-.22.31-.44.61-.68.89h0l-.82.21.52.14a8,8,0,0,1-2.11,1.75,5.12,5.12,0,0,1,.53-2.52l.47.3-.32-.64c.12-.25.25-.5.4-.76l.5.32-.31-.63.17-.28.31-.46"/><path class="cls-18" d="M65.64,246.83h0l.26-.22,0,.21a4,4,0,0,0,1.26-.27,4,4,0,0,0-1.33-.44l.06.23-.25-.26-.45-.05.06.24L65,246h-.45l.12.2-.35-.2H64l.11.18-.3-.17h0l-.28,0,.11.18-.28-.16a3.33,3.33,0,0,0-.86.23c.29,0,.48,0,.32.16l.45-.1-.21.19.3.09.48-.08-.22.14.39.07.41-.11-.16.15.57.05h.08l.29-.21"/><path class="cls-19" d="M60.92,243.39l-.45.16.42.33.82.19-.45.07.58.37.72.08-.35.13q.42.24.88.45l.12.06.6-.14-.29.28c.31.14.61.26.9.36h0l.56-.18-.18.31a6.81,6.81,0,0,0,2.18.39,6.82,6.82,0,0,0-1.83-1.56l-.06.4-.23-.57-.67-.38-.06.42-.23-.57-.26-.13-.45-.2.06.39-.43-.55-.49-.19.05.36-.37-.47h0l-.46-.14.05.36-.35-.44a5.72,5.72,0,0,0-1.52-.2A7.05,7.05,0,0,0,60.92,243.39Z"/><path class="cls-18" d="M60.51,238.16l1,.61-.87-.08q.08.3.2.62l1,.68-.75-.17c.11.24.24.49.39.75l1,.51-.68-.06a12.14,12.14,0,0,0,.73,1l.11.14,1.06.19-.78.15a11.61,11.61,0,0,0,.88.92h0l1.05.12-.66.24a8.83,8.83,0,0,0,2.73,1.69,5.1,5.1,0,0,0-.74-2.81l-.58.41.38-.78c-.15-.27-.33-.54-.52-.81l-.62.44.38-.77-.22-.29c-.13-.17-.27-.33-.41-.48l-.41.47.05-.87-.49-.49-.38.43,0-.74h0l-.5-.42-.38.43,0-.69a7.92,7.92,0,0,0-2-1.1A2.74,2.74,0,0,0,60.51,238.16Z"/><path class="cls-19" d="M66.54,235.26l.45,1-.74-.45q-.14.31-.26.66l.4,1.06-.56-.49c-.07.28-.13.57-.18.87l.51.9-.58-.35a10.89,10.89,0,0,0-.07,1.26c0,.06,0,.12,0,.18l.83.64-.81-.2a9.45,9.45,0,0,0,.14,1.25h0l.87.57-.77-.06A6.49,6.49,0,0,0,67,244.86a6.11,6.11,0,0,0,1.35-3l-.83.13.91-.56c.05-.32.09-.65.11-1l-.88.14.9-.55c0-.12,0-.24,0-.37s0-.42,0-.63l-.71.27.67-.79c0-.23-.05-.45-.09-.67l-.66.24.58-.67h0c0-.21-.1-.41-.16-.61l-.66.24.54-.63a5.77,5.77,0,0,0-1-1.89A3.81,3.81,0,0,0,66.54,235.26Z"/><path class="cls-18" d="M68.38,246.59h0Z"/><path class="cls-6" d="M185.25,236.42v-8h.07l.18-20.32q-8.47-5.8-17-.14l-.16,18.42,0,3.93v1.56h0v1.28l-.19,22.38,6.05,0,11,.09.16-19.17h0Z"/><path class="cls-7" d="M176.79,251.78a1.08,1.08,0,0,0,.69.83,1.2,1.2,0,0,0,.63.07,1.1,1.1,0,1,0-.35-2.17l-.12,0h0a4.16,4.16,0,0,1-.86,1.1A.84.84,0,0,0,176.79,251.78Z"/><path class="cls-5" d="M176.77,251.64l1.16-.11.38,0,.62-.06a1,1,0,0,1-.16-.19c-.61-.91.12-2.85,1-4.79h0c.43-1,.89-2,1.23-2.8v0l-3.49.56-.12,1.21h0Z"/><path class="cls-5" d="M174.12,254.72h0a3.91,3.91,0,0,0,2.84-1.08,1.2,1.2,0,0,1,.51-1,2.34,2.34,0,0,1,1.31-.42l-.48-.7-.07-.1-.59-.86h0c-.63,1-.48.74-.86,1.1s-1.1,1.19-2,2.15a2.46,2.46,0,0,0-.48.39.84.84,0,0,0-.22.36A.24.24,0,0,0,174.12,254.72Z"/><path class="cls-7" d="M174,254.21l.11.68a7.07,7.07,0,0,0,2.43-.58c.29-.81,1.9-1.69,1.9-1.69l.57,1.23s.41.08.41-.07-.41-2.57-.41-2.57l-.29,0c-.61-.91.12-2.85,1-4.79h0a18.09,18.09,0,0,0,1.23-2.8v0c.23-.64.45-1.29.67-1.9l.2-.55a4.49,4.49,0,0,0,.14-.92,7.61,7.61,0,0,1,.14-1.14.52.52,0,0,1,0-.1,18.3,18.3,0,0,0-1.34-3.33c-.12-.21-.24-.41-.34-.63-.72.28-1.37,1.34-1.88,2.8a17.05,17.05,0,0,0-.51,1.79c0,.19-.09.38-.13.58a25.32,25.32,0,0,0-.51,5.16h0l-.61,6.25c-.49.46-1.1,1.18-2,2.15a2.46,2.46,0,0,0-.48.39Z"/><path class="cls-11" d="M173.74,254.9h.41a11.7,11.7,0,0,0,2.21-.21,1.61,1.61,0,0,0,1-.73,8,8,0,0,1,1.17-1.33l.57,1.23s.41.08.41-.07-.41-2.57-.41-2.57l-.29,0a2.8,2.8,0,0,0-.53.14l-.31.14c-1,.55-1.46,1.65-1.94,2a3.84,3.84,0,0,1-1.67.62l-.28,0h0C173.74,254.23,173.74,254.9,173.74,254.9Z"/><path class="cls-15" d="M185.25,229l-.75.95-.07.08-1.27,1.6-.65.8h0l0,0-.79,1-1.28,1.6,1.73,4.06s0-.08.09-.2.12-.22.22-.37l.1-.15a5.19,5.19,0,0,1,.38-.51,2.85,2.85,0,0,1,.23-.26l.2-.2c.06-.06.12-.1.18-.17h0a2.94,2.94,0,0,1,.71-.4,1.58,1.58,0,0,1,.31-.09l0,0a2.14,2.14,0,0,0,.32-.08.53.53,0,0,0,.12,0l.09,0,.09,0Z"/><path class="cls-7" d="M185.25,236.35l-2.75-3.9-2.09,2.61c-.72.28-1.37,1.34-1.88,2.8l2.28,3.23,1.19-.84a7.61,7.61,0,0,1,.14-1.14s1-2.09,2.43-2.35a3.73,3.73,0,0,0,.68-.21Z"/><path class="cls-11" d="M185.25,235l0-.07-.53-.84h0l-.09-.14,0,0-.22-.36-1.19-1.92-.65.8h0l0,0,1.33,2.14h0l.32.51h0l.16.25.33.54.42.69h0l.09,0,.09,0Z"/></g></g></svg>