<svg id="Layer_1" data-name="Layer 1" xmlns="http://www.w3.org/2000/svg" viewBox="0 0 407 259"><defs><style>.cls-1{fill:#ffec80;}.cls-2{fill:#ff5c5c;}.cls-3{fill:#ffe761;}.cls-4{fill:#515151;}.cls-5{fill:#ff7d7d;}.cls-6{fill:#1a1a1a;}.cls-7{fill:#940048;}.cls-8{opacity:0.51;}.cls-9{fill:#f3f3f3;}.cls-10{fill:red;}.cls-11{fill:#ffda0a;}.cls-12{fill:#4d4d4d;}.cls-13{fill:#09f;}.cls-14{fill:#00385d;}</style></defs><title>Untitled-1</title><rect class="cls-1" x="8.62" y="113.04" width="80.74" height="121.29"/><rect class="cls-1" x="87.64" y="113.04" width="140.91" height="121.29"/><rect class="cls-2" x="101.76" y="126.35" width="21.23" height="34.4"/><rect class="cls-3" x="103.3" y="126.67" width="17.88" height="31.84"/><polygon class="cls-4" points="102.9 158.51 121.17 158.51 121.17 126.67 117.57 126.67 102.9 158.51"/><rect class="cls-2" x="111.79" y="126.35" width="1.18" height="34.4"/><rect class="cls-2" x="191.48" y="126.35" width="21.23" height="34.4"/><rect class="cls-3" x="191.69" y="126.67" width="19.86" height="31.84"/><polygon class="cls-4" points="192.62 158.51 211.55 158.51 211.55 126.67 207.28 126.67 192.62 158.51"/><rect class="cls-2" x="201.5" y="126.35" width="1.18" height="34.4"/><rect class="cls-2" x="21.71" y="126.35" width="22.85" height="37.01"/><rect class="cls-3" x="22.85" y="127.66" width="20.86" height="34.82"/><polygon class="cls-4" points="22.94 162.49 43.71 162.49 43.71 127.66 38.72 127.66 22.94 162.49"/><rect class="cls-2" x="32.5" y="124.35" width="1.27" height="37.01"/><rect class="cls-2" x="48.51" y="126.35" width="22.85" height="37.01"/><rect class="cls-3" x="49.67" y="127.66" width="19.86" height="34.82"/><polygon class="cls-4" points="49.74 162.49 69.53 162.49 69.53 127.66 65.52 127.66 49.74 162.49"/><rect class="cls-2" x="59.3" y="126.35" width="1.27" height="37.01"/><rect class="cls-2" x="16.62" y="185.63" width="18.24" height="29.55"/><rect class="cls-3" x="16.9" y="184.36" width="16.88" height="27.86"/><polygon class="cls-4" points="17.6 212.22 33.78 212.22 33.78 184.37 30.19 184.37 17.6 212.22"/><rect class="cls-2" x="25.23" y="183.63" width="1.01" height="29.55"/><rect class="cls-2" x="38.01" y="185.63" width="18.24" height="29.55"/><rect class="cls-3" x="39.74" y="186.36" width="14.9" height="27.86"/><polygon class="cls-4" points="38.99 214.22 54.63 214.22 54.63 186.37 51.59 186.37 38.99 214.22"/><rect class="cls-2" x="46.62" y="185.63" width="1.01" height="29.55"/><rect class="cls-2" x="59" y="185.63" width="18.24" height="29.55"/><rect class="cls-3" x="60.59" y="186.36" width="15.89" height="27.86"/><polygon class="cls-4" points="59.99 214.22 76.48 214.22 76.48 186.37 72.59 186.37 59.99 214.22"/><rect class="cls-2" x="67.62" y="185.63" width="1.01" height="29.55"/><rect class="cls-5" x="14.65" y="161.14" width="62.93" height="6.64"/><rect class="cls-5" x="73.88" y="151.43" width="3.69" height="16.19"/><rect class="cls-5" x="15.32" y="151.43" width="62.26" height="1.38"/><rect class="cls-1" x="227.49" y="113.04" width="80.74" height="121.29"/><rect class="cls-2" x="240.58" y="126.35" width="22.85" height="37.01"/><rect class="cls-3" x="241.34" y="127.66" width="19.86" height="34.82"/><polygon class="cls-4" points="241.81 162.49 261.21 162.49 261.21 127.66 257.59 127.66 241.81 162.49"/><rect class="cls-2" x="251.37" y="126.35" width="1.27" height="37.01"/><rect class="cls-2" x="267.38" y="126.35" width="22.85" height="37.01"/><rect class="cls-3" x="269.15" y="127.66" width="19.86" height="34.82"/><polygon class="cls-4" points="268.61 162.49 289.01 162.49 289.01 127.66 284.39 127.66 268.61 162.49"/><rect class="cls-2" x="278.17" y="126.35" width="1.27" height="37.01"/><rect class="cls-2" x="235.49" y="185.63" width="18.24" height="29.55"/><rect class="cls-3" x="236.38" y="186.36" width="15.89" height="27.86"/><polygon class="cls-4" points="236.48 214.22 252.27 214.22 252.27 186.37 249.07 186.37 236.48 214.22"/><rect class="cls-2" x="244.1" y="185.63" width="1.01" height="29.55"/><rect class="cls-2" x="256.89" y="185.63" width="18.24" height="29.55"/><rect class="cls-3" x="259.22" y="186.36" width="14.9" height="27.86"/><polygon class="cls-4" points="257.87 214.22 274.12 214.22 274.12 186.37 270.46 186.37 257.87 214.22"/><rect class="cls-2" x="265.5" y="185.63" width="1.01" height="29.55"/><rect class="cls-2" x="277.88" y="185.63" width="18.24" height="29.55"/><rect class="cls-3" x="278.09" y="186.36" width="17.88" height="27.86"/><polygon class="cls-4" points="278.86 214.22 295.96 214.22 295.96 186.37 291.46 186.37 278.86 214.22"/><rect class="cls-2" x="286.49" y="185.63" width="1.01" height="29.55"/><rect class="cls-5" x="233.52" y="161.14" width="62.93" height="6.64"/><rect class="cls-5" x="234.15" y="151.43" width="3.69" height="16.19"/><rect class="cls-5" x="293.3" y="151.43" width="3.69" height="16.19"/><rect class="cls-5" x="234.19" y="151.43" width="62.26" height="1.38"/><rect class="cls-2" x="138.54" y="128.9" width="17.71" height="28.68"/><rect class="cls-3" x="139.05" y="129.65" width="15.89" height="26.86"/><polygon class="cls-4" points="139.5 156.52 154.94 156.52 154.94 129.65 151.72 129.65 139.5 156.52"/><rect class="cls-2" x="146.91" y="128.9" width="0.98" height="28.68"/><rect class="cls-2" x="159.31" y="128.9" width="17.71" height="28.68"/><rect class="cls-3" x="160.9" y="129.65" width="14.9" height="26.86"/><polygon class="cls-4" points="160.26 156.52 175.8 156.52 175.8 129.65 172.49 129.65 160.26 156.52"/><rect class="cls-2" x="167.67" y="128.9" width="0.98" height="28.68"/><rect class="cls-5" x="133.07" y="155.86" width="48.76" height="5.13"/><rect class="cls-5" x="133.07" y="148.34" width="2.87" height="12.54"/><rect class="cls-5" x="178.97" y="148.34" width="2.87" height="12.54"/><rect class="cls-5" x="133.59" y="148.34" width="48.25" height="1.07"/><rect class="cls-2" x="101.76" y="180.52" width="21.23" height="34.4"/><rect class="cls-3" x="103.3" y="180.39" width="17.88" height="32.83"/><polygon class="cls-4" points="102.9 213.23 121.17 213.23 121.17 180.4 117.57 180.4 102.9 213.23"/><rect class="cls-2" x="111.79" y="180.52" width="1.18" height="34.4"/><rect class="cls-2" x="191.48" y="180.52" width="21.23" height="34.4"/><rect class="cls-3" x="191.69" y="180.39" width="19.86" height="32.83"/><polygon class="cls-4" points="192.62 213.23 211.55 213.23 211.55 180.4 207.28 180.4 192.62 213.23"/><rect class="cls-2" x="201.5" y="180.52" width="1.18" height="34.4"/><rect class="cls-2" x="138.54" y="183.08" width="17.71" height="28.68"/><rect class="cls-3" x="139.05" y="184.37" width="15.89" height="26.86"/><polygon class="cls-4" points="139.5 211.24 154.94 211.24 154.94 184.38 151.72 184.38 139.5 211.24"/><rect class="cls-2" x="146.91" y="183.08" width="0.98" height="28.68"/><rect class="cls-2" x="159.31" y="183.08" width="17.71" height="28.68"/><rect class="cls-3" x="160.9" y="184.37" width="14.9" height="26.86"/><polygon class="cls-4" points="160.26 211.24 175.8 211.24 175.8 184.38 172.49 184.38 160.26 211.24"/><rect class="cls-2" x="167.67" y="183.08" width="0.98" height="28.68"/><rect class="cls-5" x="133.07" y="210.03" width="48.76" height="5.13"/><rect class="cls-5" x="133.07" y="202.52" width="2.87" height="12.54"/><rect class="cls-5" x="178.97" y="202.52" width="2.87" height="12.54"/><rect class="cls-5" x="133.59" y="202.52" width="48.25" height="1.07"/><polygon class="cls-5" points="8.77 106.78 41.29 76.92 275.43 76.92 305.13 106.62 8.77 106.78"/><rect class="cls-6" x="8.62" y="106.68" width="299.62" height="6.36"/><rect class="cls-1" x="305.53" y="147.69" width="100.48" height="86.5"/><rect class="cls-2" x="315.61" y="157.18" width="15.15" height="24.53"/><rect class="cls-3" x="316.82" y="157.51" width="12.91" height="22.88"/><polygon class="cls-4" points="316.42 180.4 329.73 180.4 329.73 157.51 326.88 157.51 316.42 180.4"/><rect class="cls-2" x="322.76" y="157.18" width="0.84" height="24.53"/><rect class="cls-2" x="379.59" y="157.18" width="15.15" height="24.53"/><rect class="cls-3" x="379.39" y="157.51" width="13.9" height="22.88"/><polygon class="cls-4" points="380.4 180.4 393.29 180.4 393.29 157.51 390.86 157.51 380.4 180.4"/><rect class="cls-2" x="386.74" y="157.18" width="0.84" height="24.53"/><rect class="cls-2" x="341.84" y="159" width="12.62" height="20.46"/><rect class="cls-3" x="342.64" y="160.5" width="10.92" height="17.91"/><polygon class="cls-4" points="342.52 178.41 353.57 178.41 353.57 160.5 351.23 160.5 342.52 178.41"/><rect class="cls-2" x="347.8" y="159" width="0.71" height="20.46"/><rect class="cls-2" x="356.65" y="159" width="12.62" height="20.46"/><rect class="cls-3" x="357.54" y="160.5" width="10.92" height="17.91"/><polygon class="cls-4" points="357.33 178.41 368.46 178.41 368.46 160.5 366.05 160.5 357.33 178.41"/><rect class="cls-2" x="362.61" y="159" width="0.71" height="20.46"/><rect class="cls-5" x="337.93" y="178.23" width="34.78" height="3.66"/><rect class="cls-5" x="337.93" y="172.86" width="2.05" height="8.94"/><rect class="cls-5" x="370.67" y="172.86" width="2.05" height="8.94"/><rect class="cls-5" x="338.3" y="172.86" width="34.4" height="0.77"/><rect class="cls-2" x="315.61" y="195.83" width="15.15" height="24.53"/><rect class="cls-3" x="316.82" y="196.31" width="12.91" height="22.88"/><polygon class="cls-4" points="316.42 219.2 329.73 219.2 329.73 196.31 326.88 196.31 316.42 219.2"/><rect class="cls-2" x="322.76" y="195.83" width="0.84" height="24.53"/><rect class="cls-2" x="379.59" y="195.83" width="15.15" height="24.53"/><rect class="cls-3" x="379.39" y="196.31" width="13.9" height="22.88"/><polygon class="cls-4" points="380.4 219.2 393.29 219.2 393.29 196.31 390.86 196.31 380.4 219.2"/><rect class="cls-2" x="386.74" y="195.83" width="0.84" height="24.53"/><rect class="cls-2" x="341.84" y="197.64" width="12.62" height="20.46"/><rect class="cls-3" x="342.64" y="198.3" width="10.92" height="19.9"/><polygon class="cls-4" points="342.52 218.2 353.57 218.2 353.57 198.3 351.23 198.3 342.52 218.2"/><rect class="cls-2" x="347.8" y="197.64" width="0.71" height="20.46"/><rect class="cls-2" x="356.65" y="197.64" width="12.62" height="20.46"/><rect class="cls-3" x="357.54" y="198.3" width="10.92" height="19.9"/><polygon class="cls-4" points="357.33 218.2 368.46 218.2 368.46 198.3 366.05 198.3 357.33 218.2"/><rect class="cls-2" x="362.61" y="197.64" width="0.71" height="20.46"/><rect class="cls-5" x="337.93" y="216.87" width="34.78" height="3.66"/><rect class="cls-5" x="337.93" y="211.51" width="2.05" height="8.94"/><rect class="cls-5" x="370.67" y="211.51" width="2.05" height="8.94"/><rect class="cls-5" x="338.3" y="211.51" width="34.4" height="0.77"/><polygon class="cls-7" points="305.53 147.84 316.43 126.67 395.01 126.67 404.98 147.79 305.53 147.84"/><rect class="cls-6" x="305.48" y="147.64" width="100.54" height="4.54"/><g class="cls-8"><ellipse class="cls-9" cx="214.11" cy="126.68" rx="3.04" ry="3.81" transform="translate(-28.31 70.8) rotate(-17.63)"/><ellipse class="cls-9" cx="210.34" cy="124.86" rx="2.12" ry="2.65" transform="translate(-27.94 69.57) rotate(-17.63)"/><ellipse class="cls-9" cx="213.58" cy="129.97" rx="2.64" ry="3.83" transform="translate(-29.33 70.79) rotate(-17.63)"/></g><g class="cls-8"><ellipse class="cls-9" cx="28.48" cy="121.07" rx="3.83" ry="3.06" transform="translate(-45.11 20.8) rotate(-23.04)"/><ellipse class="cls-9" cx="29.96" cy="117.12" rx="2.66" ry="2.13" transform="translate(-43.45 21.07) rotate(-23.04)"/><ellipse class="cls-9" cx="25.16" cy="120.85" rx="3.85" ry="2.66" transform="translate(-45.29 19.49) rotate(-23.04)"/></g><g class="cls-8"><ellipse class="cls-9" cx="297.35" cy="174.87" rx="3.8" ry="3.04" transform="translate(-44.69 130.1) rotate(-23)"/><ellipse class="cls-9" cx="298.83" cy="170.94" rx="2.64" ry="2.12" transform="translate(-43.04 130.36) rotate(-23)"/><ellipse class="cls-9" cx="294.06" cy="174.65" rx="3.82" ry="2.65" transform="translate(-44.87 128.79) rotate(-23)"/></g><rect class="cls-9" x="121.72" y="37.05" width="144.16" height="126.72"/><rect class="cls-2" x="136.17" y="52.58" width="21.73" height="40.14"/><rect class="cls-3" x="137.06" y="53.04" width="18.87" height="37.81"/><polygon class="cls-4" points="137.34 90.85 155.93 90.85 155.93 53.04 152.34 53.04 137.34 90.85"/><rect class="cls-2" x="146.43" y="52.58" width="1.21" height="40.14"/><rect class="cls-2" x="227.96" y="52.58" width="21.73" height="40.14"/><rect class="cls-3" x="228.43" y="53.04" width="19.86" height="37.81"/><polygon class="cls-4" points="229.12 90.85 248.29 90.85 248.29 53.04 244.12 53.04 229.12 90.85"/><rect class="cls-2" x="238.21" y="52.58" width="1.21" height="40.14"/><rect class="cls-2" x="173.8" y="55.56" width="18.11" height="33.47"/><rect class="cls-3" x="174.8" y="57.02" width="15.89" height="30.84"/><polygon class="cls-4" points="174.77 87.86 190.69 87.86 190.69 57.02 187.29 57.02 174.77 87.86"/><rect class="cls-2" x="182.35" y="55.56" width="1.01" height="33.47"/><rect class="cls-2" x="195.04" y="55.56" width="18.11" height="33.47"/><rect class="cls-3" x="196.65" y="57.02" width="14.9" height="30.84"/><polygon class="cls-4" points="196.03 87.86 211.55 87.86 211.55 57.02 208.53 57.02 196.03 87.86"/><rect class="cls-2" x="203.6" y="55.56" width="1.01" height="33.47"/><rect class="cls-2" x="136.17" y="115.81" width="21.73" height="40.14"/><rect class="cls-3" x="137.06" y="116.72" width="18.87" height="36.81"/><polygon class="cls-4" points="137.34 153.53 155.93 153.53 155.93 116.72 152.34 116.72 137.34 153.53"/><rect class="cls-2" x="146.43" y="115.81" width="1.21" height="40.14"/><rect class="cls-2" x="227.96" y="115.81" width="21.73" height="40.14"/><rect class="cls-3" x="228.43" y="116.72" width="19.86" height="36.81"/><polygon class="cls-4" points="229.12 153.53 248.29 153.53 248.29 116.72 244.12 116.72 229.12 153.53"/><rect class="cls-2" x="238.21" y="115.81" width="1.21" height="40.14"/><rect class="cls-2" x="173.8" y="118.79" width="18.11" height="33.47"/><rect class="cls-3" x="174.8" y="119.7" width="15.89" height="31.84"/><polygon class="cls-4" points="174.77 151.54 190.69 151.54 190.69 119.7 187.29 119.7 174.77 151.54"/><rect class="cls-2" x="182.35" y="118.79" width="1.01" height="33.47"/><rect class="cls-2" x="195.04" y="118.79" width="18.11" height="33.47"/><rect class="cls-3" x="196.65" y="119.7" width="14.9" height="31.84"/><polygon class="cls-4" points="196.03 151.54 211.55 151.54 211.55 119.7 208.53 119.7 196.03 151.54"/><rect class="cls-2" x="203.6" y="118.79" width="1.01" height="33.47"/><polyline class="cls-10" points="250.08 2 264.38 36.72 121.71 36.97 137.36 2"/><rect class="cls-6" x="121.63" y="36.97" width="144.24" height="7.42"/><rect class="cls-1" x="207.65" y="94.32" width="184.35" height="142.08"/><rect class="cls-2" x="226.13" y="111.74" width="27.79" height="45"/><rect class="cls-3" x="227.44" y="112.74" width="24.83" height="41.79"/><polygon class="cls-4" points="227.63 154.53 252.27 154.53 252.27 112.74 246.81 112.74 227.63 154.53"/><rect class="cls-2" x="239.25" y="111.74" width="1.55" height="45"/><rect class="cls-2" x="343.51" y="111.74" width="27.79" height="45"/><rect class="cls-3" x="344.63" y="112.74" width="24.83" height="41.79"/><polygon class="cls-4" points="345.01 154.53 369.46 154.53 369.46 112.74 364.18 112.74 345.01 154.53"/><rect class="cls-2" x="356.63" y="111.74" width="1.55" height="45"/><rect class="cls-2" x="274.26" y="115.08" width="23.17" height="37.52"/><rect class="cls-3" x="275.11" y="116.72" width="20.86" height="34.82"/><polygon class="cls-4" points="275.51 151.54 295.96 151.54 295.96 116.72 291.5 116.72 275.51 151.54"/><rect class="cls-2" x="285.19" y="115.08" width="1.29" height="37.52"/><rect class="cls-2" x="301.43" y="115.08" width="23.17" height="37.52"/><rect class="cls-3" x="303.91" y="116.72" width="18.87" height="34.82"/><polygon class="cls-4" points="302.67 151.54 322.78 151.54 322.78 116.72 318.67 116.72 302.67 151.54"/><rect class="cls-2" x="312.36" y="115.08" width="1.29" height="37.52"/><rect class="cls-2" x="226.13" y="182.63" width="27.79" height="45"/><rect class="cls-3" x="227.44" y="183.38" width="24.83" height="41.79"/><polygon class="cls-4" points="227.63 225.17 252.27 225.17 252.27 183.38 246.81 183.38 227.63 225.17"/><rect class="cls-2" x="239.25" y="182.63" width="1.55" height="45"/><rect class="cls-2" x="343.51" y="182.63" width="27.79" height="45"/><rect class="cls-3" x="344.63" y="183.38" width="24.83" height="41.79"/><polygon class="cls-4" points="345.01 225.17 369.46 225.17 369.46 183.38 364.18 183.38 345.01 225.17"/><rect class="cls-2" x="356.63" y="182.63" width="1.55" height="45"/><rect class="cls-2" x="274.26" y="185.97" width="23.17" height="37.52"/><rect class="cls-3" x="275.11" y="187.36" width="20.86" height="34.82"/><polygon class="cls-4" points="275.51 222.18 295.96 222.18 295.96 187.36 291.5 187.36 275.51 222.18"/><rect class="cls-2" x="285.19" y="185.97" width="1.29" height="37.52"/><rect class="cls-2" x="301.43" y="185.97" width="23.17" height="37.52"/><rect class="cls-3" x="303.91" y="187.36" width="18.87" height="34.82"/><polygon class="cls-4" points="302.67 222.18 322.78 222.18 322.78 187.36 318.67 187.36 302.67 222.18"/><rect class="cls-2" x="312.36" y="185.97" width="1.29" height="37.52"/><polyline class="cls-7" points="371.81 55.03 390.09 93.96 207.64 94.24 227.65 55.03"/><rect class="cls-6" x="207.54" y="94.24" width="184.46" height="8.32"/><rect class="cls-11" x="345.11" y="134.85" width="23.45" height="15.18"/><rect class="cls-11" x="321.67" y="38.02" width="23.45" height="15.18"/><rect class="cls-9" x="65.51" y="152.81" width="69.59" height="104.54"/><rect class="cls-9" x="133.61" y="152.81" width="121.44" height="104.54"/><rect class="cls-2" x="145.78" y="164.29" width="18.3" height="29.64"/><rect class="cls-3" x="147" y="164.48" width="15.89" height="27.86"/><polygon class="cls-4" points="146.77 192.33 162.89 192.33 162.89 164.48 159.41 164.48 146.77 192.33"/><rect class="cls-2" x="154.42" y="164.29" width="1.02" height="29.64"/><rect class="cls-2" x="223.1" y="164.29" width="18.3" height="29.64"/><rect class="cls-3" x="223.47" y="164.48" width="16.88" height="27.86"/><polygon class="cls-4" points="224.09 192.33 240.35 192.33 240.35 164.48 236.72 164.48 224.09 192.33"/><rect class="cls-2" x="231.74" y="164.29" width="1.02" height="29.64"/><rect class="cls-2" x="76.79" y="164.29" width="19.69" height="31.9"/><rect class="cls-3" x="77.48" y="165.47" width="17.88" height="29.85"/><polygon class="cls-4" points="77.85 195.32 95.35 195.32 95.35 165.47 91.45 165.47 77.85 195.32"/><rect class="cls-2" x="86.09" y="164.29" width="1.09" height="31.9"/><rect class="cls-2" x="99.89" y="164.29" width="19.69" height="31.9"/><rect class="cls-3" x="101.31" y="165.47" width="16.88" height="29.85"/><polygon class="cls-4" points="100.94 195.32 118.19 195.32 118.19 165.47 114.55 165.47 100.94 195.32"/><rect class="cls-2" x="109.19" y="164.29" width="1.09" height="31.9"/><rect class="cls-2" x="72.4" y="215.38" width="15.72" height="25.46"/><rect class="cls-3" x="72.51" y="216.21" width="14.9" height="23.88"/><polygon class="cls-4" points="73.25 240.09 87.41 240.09 87.41 216.21 84.1 216.21 73.25 240.09"/><rect class="cls-2" x="79.83" y="215.38" width="0.87" height="25.46"/><rect class="cls-2" x="90.84" y="215.38" width="15.72" height="25.46"/><rect class="cls-3" x="92.37" y="216.21" width="12.91" height="23.88"/><polygon class="cls-4" points="91.69 240.09 105.28 240.09 105.28 216.21 102.54 216.21 91.69 240.09"/><rect class="cls-2" x="98.26" y="215.38" width="0.87" height="25.46"/><rect class="cls-2" x="108.94" y="215.38" width="15.72" height="25.46"/><rect class="cls-3" x="110.25" y="216.21" width="13.9" height="23.88"/><polygon class="cls-4" points="109.78 240.09 124.15 240.09 124.15 216.21 120.64 216.21 109.78 240.09"/><rect class="cls-2" x="116.36" y="215.38" width="0.87" height="25.46"/><rect class="cls-5" x="70.7" y="194.27" width="54.23" height="5.71"/><rect class="cls-5" x="70.7" y="185.92" width="3.19" height="13.95"/><rect class="cls-5" x="121.75" y="185.92" width="3.19" height="13.95"/><rect class="cls-5" x="71.28" y="185.92" width="53.66" height="1.19"/><rect class="cls-9" x="254.14" y="152.81" width="69.59" height="104.54"/><rect class="cls-2" x="265.43" y="164.29" width="19.69" height="31.9"/><rect class="cls-3" x="266.17" y="165.47" width="16.88" height="29.85"/><polygon class="cls-4" points="266.49 195.32 283.05 195.32 283.05 165.47 280.08 165.47 266.49 195.32"/><rect class="cls-2" x="274.72" y="164.29" width="1.09" height="31.9"/><rect class="cls-2" x="288.53" y="164.29" width="19.69" height="31.9"/><rect class="cls-3" x="290.01" y="165.47" width="16.88" height="29.85"/><polygon class="cls-4" points="289.58 195.32 306.89 195.32 306.89 165.47 303.18 165.47 289.58 195.32"/><rect class="cls-2" x="297.82" y="164.29" width="1.09" height="31.9"/><rect class="cls-2" x="261.04" y="215.38" width="15.72" height="25.46"/><rect class="cls-3" x="262.2" y="216.21" width="12.91" height="23.88"/><polygon class="cls-4" points="261.88 240.09 275.11 240.09 275.11 216.21 272.74 216.21 261.88 240.09"/><rect class="cls-2" x="268.47" y="215.38" width="0.87" height="25.46"/><rect class="cls-2" x="279.48" y="215.38" width="15.72" height="25.46"/><rect class="cls-3" x="281.07" y="216.21" width="12.91" height="23.88"/><polygon class="cls-4" points="280.32 240.09 293.98 240.09 293.98 216.21 291.18 216.21 280.32 240.09"/><rect class="cls-2" x="286.9" y="215.38" width="0.87" height="25.46"/><rect class="cls-2" x="297.57" y="215.38" width="15.72" height="25.46"/><rect class="cls-3" x="297.95" y="216.21" width="14.9" height="23.88"/><polygon class="cls-4" points="298.42 240.09 312.85 240.09 312.85 216.21 309.27 216.21 298.42 240.09"/><rect class="cls-2" x="304.99" y="215.38" width="0.87" height="25.46"/><rect class="cls-5" x="259.34" y="194.27" width="54.23" height="5.71"/><rect class="cls-5" x="259.88" y="185.92" width="3.19" height="13.95"/><rect class="cls-5" x="310.86" y="185.92" width="3.19" height="13.95"/><rect class="cls-5" x="259.91" y="185.92" width="53.66" height="1.19"/><rect class="cls-2" x="177.48" y="166.49" width="15.26" height="24.71"/><rect class="cls-3" x="177.78" y="167.46" width="13.9" height="22.88"/><polygon class="cls-4" points="178.31 190.34 191.69 190.34 191.69 167.46 188.85 167.46 178.31 190.34"/><rect class="cls-2" x="184.69" y="166.49" width="0.85" height="24.71"/><rect class="cls-2" x="195.38" y="166.49" width="15.26" height="24.71"/><rect class="cls-3" x="196.65" y="167.46" width="12.91" height="22.88"/><polygon class="cls-4" points="196.21 190.34 209.56 190.34 209.56 167.46 206.74 167.46 196.21 190.34"/><rect class="cls-2" x="202.59" y="166.49" width="0.85" height="24.71"/><rect class="cls-5" x="172.77" y="189.73" width="42.03" height="4.43"/><rect class="cls-5" x="172.77" y="183.24" width="2.47" height="10.81"/><rect class="cls-5" x="212.32" y="183.24" width="2.47" height="10.81"/><rect class="cls-5" x="173.21" y="183.24" width="41.58" height="0.93"/><rect class="cls-2" x="145.78" y="210.99" width="18.3" height="29.64"/><rect class="cls-3" x="147" y="211.24" width="15.89" height="27.86"/><polygon class="cls-4" points="146.77 239.1 162.89 239.1 162.89 211.24 159.41 211.24 146.77 239.1"/><rect class="cls-2" x="154.42" y="210.99" width="1.02" height="29.64"/><rect class="cls-2" x="223.1" y="210.99" width="18.3" height="29.64"/><rect class="cls-3" x="223.47" y="211.24" width="16.88" height="27.86"/><polygon class="cls-4" points="224.09 239.1 240.35 239.1 240.35 211.24 236.72 211.24 224.09 239.1"/><rect class="cls-2" x="231.74" y="210.99" width="1.02" height="29.64"/><rect class="cls-2" x="177.48" y="213.18" width="15.26" height="24.71"/><rect class="cls-3" x="177.78" y="214.22" width="13.9" height="22.88"/><polygon class="cls-4" points="178.31 237.11 191.69 237.11 191.69 214.22 188.85 214.22 178.31 237.11"/><rect class="cls-2" x="184.69" y="213.18" width="0.85" height="24.71"/><rect class="cls-2" x="195.38" y="213.18" width="15.26" height="24.71"/><rect class="cls-3" x="196.65" y="214.22" width="12.91" height="22.88"/><polygon class="cls-4" points="196.21 237.11 209.56 237.11 209.56 214.22 206.74 214.22 196.21 237.11"/><rect class="cls-2" x="202.59" y="213.18" width="0.85" height="24.71"/><rect class="cls-5" x="172.77" y="236.42" width="42.03" height="4.43"/><rect class="cls-5" x="172.77" y="229.94" width="2.47" height="10.81"/><rect class="cls-5" x="212.32" y="229.94" width="2.47" height="10.81"/><rect class="cls-5" x="173.21" y="229.94" width="41.58" height="0.93"/><polygon class="cls-10" points="65.64 147.43 93.67 121.69 295.46 121.69 321.05 147.29 65.64 147.43"/><rect class="cls-6" x="65.51" y="147.33" width="258.22" height="5.48"/><rect class="cls-1" x="321.4" y="182.68" width="86.6" height="74.55"/><rect class="cls-2" x="330.09" y="190.87" width="13.05" height="21.14"/><rect class="cls-3" x="330.72" y="191.34" width="11.92" height="19.9"/><polygon class="cls-4" points="330.78 211.24 342.64 211.24 342.64 191.34 339.8 191.34 330.78 211.24"/><rect class="cls-2" x="336.25" y="190.87" width="0.72" height="21.14"/><rect class="cls-2" x="385.23" y="190.87" width="13.05" height="21.14"/><rect class="cls-3" x="385.35" y="191.34" width="11.92" height="19.9"/><polygon class="cls-4" points="385.92 211.24 397.26 211.24 397.26 191.34 394.94 191.34 385.92 211.24"/><rect class="cls-2" x="391.38" y="190.87" width="0.72" height="21.14"/><rect class="cls-2" x="352.69" y="192.43" width="10.88" height="17.63"/><rect class="cls-3" x="353.57" y="193.33" width="8.94" height="15.92"/><polygon class="cls-4" points="353.28 209.25 362.5 209.25 362.5 193.33 360.8 193.33 353.28 209.25"/><rect class="cls-2" x="357.83" y="192.43" width="0.61" height="17.63"/><rect class="cls-2" x="365.45" y="192.43" width="10.88" height="17.63"/><rect class="cls-3" x="366.48" y="193.33" width="8.94" height="15.92"/><polygon class="cls-4" points="366.04 209.25 375.42 209.25 375.42 193.33 373.56 193.33 366.04 209.25"/><rect class="cls-2" x="370.59" y="192.43" width="0.61" height="17.63"/><rect class="cls-5" x="349.33" y="209.01" width="29.97" height="3.15"/><rect class="cls-5" x="349.33" y="204.38" width="1.76" height="7.71"/><rect class="cls-5" x="377.54" y="204.38" width="1.76" height="7.71"/><rect class="cls-5" x="349.64" y="204.38" width="29.65" height="0.66"/><rect class="cls-2" x="330.09" y="224.17" width="13.05" height="21.14"/><rect class="cls-3" x="330.72" y="224.17" width="11.92" height="19.9"/><polygon class="cls-4" points="330.78 244.07 342.64 244.07 342.64 224.17 339.8 224.17 330.78 244.07"/><rect class="cls-2" x="336.25" y="224.17" width="0.72" height="21.14"/><rect class="cls-2" x="385.23" y="224.17" width="13.05" height="21.14"/><rect class="cls-3" x="385.35" y="224.17" width="11.92" height="19.9"/><polygon class="cls-4" points="385.92 244.07 397.26 244.07 397.26 224.17 394.94 224.17 385.92 244.07"/><rect class="cls-2" x="391.38" y="224.17" width="0.72" height="21.14"/><rect class="cls-2" x="352.69" y="225.73" width="10.88" height="17.63"/><rect class="cls-3" x="353.57" y="226.16" width="8.94" height="16.91"/><polygon class="cls-4" points="353.28 243.08 362.5 243.08 362.5 226.16 360.8 226.16 353.28 243.08"/><rect class="cls-2" x="357.83" y="225.73" width="0.61" height="17.63"/><rect class="cls-2" x="365.45" y="225.73" width="10.88" height="17.63"/><rect class="cls-3" x="366.48" y="226.16" width="8.94" height="16.91"/><polygon class="cls-4" points="366.04 243.08 375.42 243.08 375.42 226.16 373.56 226.16 366.04 243.08"/><rect class="cls-2" x="370.59" y="225.73" width="0.61" height="17.63"/><rect class="cls-5" x="349.33" y="242.31" width="29.97" height="3.15"/><rect class="cls-5" x="349.33" y="237.68" width="1.76" height="7.71"/><rect class="cls-5" x="377.54" y="237.68" width="1.76" height="7.71"/><rect class="cls-5" x="349.64" y="237.68" width="29.65" height="0.66"/><polygon class="cls-7" points="321.4 182.77 330.8 164.48 398.52 164.48 407.11 182.7 321.4 182.77"/><rect class="cls-6" x="321.35" y="182.64" width="86.65" height="3.91"/><g class="cls-8"><ellipse class="cls-9" cx="242.61" cy="164.58" rx="2.62" ry="3.28" transform="translate(-38.45 81.21) rotate(-17.63)"/><ellipse class="cls-9" cx="239.36" cy="163" rx="1.82" ry="2.28" transform="translate(-38.13 80.15) rotate(-17.63)"/><ellipse class="cls-9" cx="242.16" cy="167.4" rx="2.27" ry="3.3" transform="translate(-39.33 81.2) rotate(-17.63)"/></g><g class="cls-8"><ellipse class="cls-9" cx="74.77" cy="162.05" rx="3.28" ry="2.63" transform="translate(-57.38 42.1) rotate(-23)"/><ellipse class="cls-9" cx="76.03" cy="158.67" rx="2.27" ry="1.82" transform="translate(-55.96 42.33) rotate(-23)"/><ellipse class="cls-9" cx="71.93" cy="161.86" rx="3.3" ry="2.28" transform="translate(-57.53 40.98) rotate(-23)"/></g><g class="cls-8"><ellipse class="cls-9" cx="314.36" cy="206.11" rx="3.28" ry="2.63" transform="translate(-55.54 139.23) rotate(-23)"/><ellipse class="cls-9" cx="315.62" cy="202.73" rx="2.27" ry="1.82" transform="translate(-54.12 139.45) rotate(-23)"/><ellipse class="cls-9" cx="311.51" cy="205.91" rx="3.3" ry="2.28" transform="translate(-55.69 138.1) rotate(-23)"/></g><path class="cls-12" d="M103.3,172c-55,0-99.77,38.34-101.48,86.19h203C203.07,210.38,158.29,172,103.3,172"/><path class="cls-13" d="M175.4,256.95c-1.22-34.19-33.21-61.58-72.5-61.58s-71.28,27.39-72.5,61.58Z"/><path class="cls-14" d="M91,217.27c-.19,5-5.2,9.64-11.35,9.64s-11.16-4.67-11.35-9.64h3.24c.17,3,3.73,6.84,8.1,6.84s7.95-3.85,8.1-6.84Z"/><path class="cls-14" d="M110.83,217.27c-.19,5-5.2,9.64-11.35,9.64s-11.16-4.67-11.35-9.64h3.26c.17,3,3.73,6.84,8.1,6.84s7.95-3.85,8.1-6.84Z"/></svg>