<svg id="Layer_1" data-name="Layer 1" xmlns="http://www.w3.org/2000/svg" viewBox="0 0 469 336"><defs><style>.cls-1{fill:#ffda0a;}.cls-2{fill:#f3f3f3;}.cls-3{fill:#ff5c5c;}.cls-4{fill:#ff7d7d;}.cls-5{fill:#940048;}.cls-6{fill:#515151;}</style></defs><title>Untitled-1</title><rect class="cls-1" x="2.79" y="269.92" width="43.86" height="21.62"/><rect class="cls-1" x="83.69" y="201.29" width="32.34" height="21.62"/><rect class="cls-1" x="176.73" y="248.3" width="33.45" height="21.62"/><polygon class="cls-2" points="270.29 114.46 232.04 114.46 232.04 160.98 260.26 182.08 263.43 161.21 270.29 161.21 270.29 114.46"/><path class="cls-3" d="M398.12,19.83v-.18a8,8,0,1,1,15.87,0v.18Z"/><rect class="cls-3" x="404.79" y="5.27" width="2.52" height="19.82"/><circle class="cls-3" cx="405.98" cy="6.87" r="2.96"/><circle class="cls-3" cx="405.98" cy="2.96" r="2.96"/><rect class="cls-3" x="390.17" y="33.99" width="31.75" height="42.84"/><path class="cls-3" d="M390.19,34v-.37c0-9.61,7.08-17.41,15.87-17.41S421.92,24,421.92,33.61V34Z"/><rect class="cls-4" x="390.17" y="52.7" width="31.75" height="2.69"/><rect class="cls-5" x="394.45" y="39.37" width="7.34" height="8.02"/><polygon class="cls-4" points="421.94 77.62 403.02 94.74 390.19 77.62 421.94 77.62"/><path class="cls-3" d="M307.59,19.83v-.18a8,8,0,1,1,15.87,0v.18Z"/><rect class="cls-3" x="314.26" y="5.27" width="2.52" height="19.82"/><circle class="cls-3" cx="315.44" cy="6.87" r="2.96"/><circle class="cls-3" cx="315.44" cy="2.96" r="2.96"/><rect class="cls-3" x="299.64" y="33.99" width="31.75" height="42.84"/><path class="cls-3" d="M299.66,34v-.37c0-9.61,7.08-17.41,15.87-17.41S331.39,24,331.39,33.61V34Z"/><rect class="cls-4" x="299.64" y="52.7" width="31.75" height="2.69"/><rect class="cls-5" x="303.91" y="39.37" width="7.34" height="8.02"/><polygon class="cls-4" points="331.39 77.62 312.49 94.74 299.64 77.62 331.39 77.62"/><polygon class="cls-2" points="427.39 45.72 427.39 199.99 285.4 199.99 285.4 45.72 299.22 45.72 299.22 57.24 318.4 57.24 318.4 45.72 333.76 45.72 333.76 57.24 352.18 57.24 352.18 45.72 365.22 45.72 365.22 57.24 385.17 57.24 385.17 45.72 397.45 45.72 397.45 57.24 417.4 57.24 417.4 45.72 427.39 45.72"/><rect class="cls-2" x="285.7" y="69.76" width="141.76" height="146.86"/><polygon class="cls-1" points="260.37 203.71 260.37 312.8 28.03 312.8 28.03 203.71 50.69 203.71 50.69 210.8 81.86 210.8 81.86 203.71 108.78 203.71 108.78 210.8 135.7 210.8 135.7 203.71 156.95 203.71 156.95 210.8 190.95 210.8 190.95 203.71 212.2 203.71 212.2 210.8 244.79 210.8 244.79 203.71 260.37 203.71"/><rect class="cls-1" x="28.15" y="232.71" width="232.47" height="99.09"/><polygon class="cls-1" points="450.57 102.02 450.57 308.82 260.23 308.82 260.23 102.02 278.75 102.02 278.75 117.45 304.47 117.45 304.47 102.02 325.05 102.02 325.05 117.45 349.74 117.45 349.74 102.02 367.24 102.02 367.24 117.45 393.98 117.45 393.98 102.02 410.45 102.02 410.45 117.45 437.19 117.45 437.19 102.02 450.57 102.02"/><rect class="cls-1" x="260.63" y="134.25" width="190.03" height="196.86"/><rect class="cls-2" x="40.44" y="228.01" width="197.96" height="2.1"/><rect class="cls-2" x="40.44" y="238.55" width="197.96" height="2.1"/><rect class="cls-2" x="260.63" y="133.22" width="190.03" height="2.1"/><rect class="cls-3" x="54.84" y="283.79" width="22.3" height="21.7"/><rect class="cls-3" x="101.21" y="283.79" width="22.3" height="21.7"/><rect class="cls-3" x="147.58" y="283.79" width="22.3" height="21.7"/><rect class="cls-3" x="193.95" y="283.79" width="22.3" height="21.7"/><rect class="cls-2" x="2.18" y="220.94" width="41.75" height="56.34"/><path class="cls-3" d="M43.92,220.94v-.48c0-12.64-9.35-22.89-20.88-22.89S2.16,207.81,2.16,220.46v.48Z"/><rect class="cls-4" x="2.18" y="245.58" width="41.75" height="3.54"/><polygon class="cls-4" points="2.19 277.38 27.05 299.88 43.94 277.38 2.19 277.38"/><rect class="cls-2" x="249.66" y="278.32" width="194.46" height="22.13"/><path class="cls-3" d="M437.66,203.36v-.24c0-6.32,4.68-11.45,10.44-11.45s10.44,5.13,10.44,11.45v.24Z"/><rect class="cls-3" x="446.43" y="184.22" width="3.32" height="26.07"/><circle class="cls-3" cx="448" cy="186.32" r="3.88"/><circle class="cls-3" cx="448" cy="181.17" r="3.88"/><rect class="cls-2" x="427.22" y="221.97" width="41.75" height="56.34"/><path class="cls-3" d="M427.23,222v-.48c0-12.64,9.35-22.89,20.88-22.89S469,208.84,469,221.49V222Z"/><rect class="cls-4" x="427.22" y="246.61" width="41.75" height="3.54"/><rect class="cls-5" x="432.83" y="229.04" width="9.65" height="10.55"/><polygon class="cls-4" points="468.97 277.38 444.12 299.88 427.22 277.38 468.97 277.38"/><path class="cls-3" d="M243.16,203.36v-.24c0-6.32,4.68-11.45,10.44-11.45S264,196.8,264,203.12v.24Z"/><rect class="cls-3" x="251.98" y="184.22" width="3.32" height="26.07"/><circle class="cls-3" cx="253.54" cy="186.32" r="3.88"/><circle class="cls-3" cx="253.54" cy="181.17" r="3.88"/><rect class="cls-2" x="232.76" y="221.97" width="41.75" height="56.34"/><path class="cls-3" d="M232.77,222v-.48c0-12.64,9.35-22.89,20.88-22.89s20.88,10.24,20.88,22.89V222Z"/><rect class="cls-4" x="232.76" y="246.61" width="41.75" height="3.54"/><rect class="cls-5" x="238.38" y="229.04" width="9.65" height="10.55"/><polygon class="cls-4" points="274.52 277.38 249.66 299.88 232.77 277.38 274.52 277.38"/><rect class="cls-3" x="323.73" y="156.28" width="23.46" height="29"/><ellipse class="cls-3" cx="335.46" cy="158.18" rx="11.73" ry="12.44"/><rect class="cls-3" x="366.71" y="156.28" width="23.46" height="29"/><ellipse class="cls-3" cx="378.46" cy="158.18" rx="11.73" ry="12.44"/><rect class="cls-3" x="345.11" y="230.36" width="23.46" height="29"/><ellipse class="cls-3" cx="356.84" cy="232.26" rx="11.73" ry="12.44"/><rect class="cls-5" x="237.21" y="135.75" width="16.34" height="14.88"/><rect class="cls-6" x="428.57" y="144.44" width="19.61" height="12.38"/><rect class="cls-6" x="297.77" y="223.92" width="19.61" height="12.38"/><rect class="cls-6" x="404.2" y="306.75" width="19.61" height="12.38"/><rect class="cls-6" x="195.3" y="251.7" width="12.13" height="7.66"/><rect class="cls-6" x="33.75" y="312.94" width="13.56" height="8.56"/><rect class="cls-6" x="129.61" y="265.61" width="14.79" height="9.34"/><rect class="cls-6" x="47.45" y="253.23" width="14.79" height="9.34"/><rect class="cls-6" x="58.61" y="211.96" width="14.79" height="9.34"/></svg>