<svg id="Layer_1" data-name="Layer 1" xmlns="http://www.w3.org/2000/svg" viewBox="0 0 400 209"><defs><style>.cls-1{fill:#515151;}.cls-2{fill:#f3f3f3;}.cls-3{fill:#ff7d7d;}.cls-4{fill:#ffda0a;}.cls-5{fill:#940048;}.cls-6{fill:#305944;}.cls-7{fill:red;}.cls-8{fill:#b2edcf;}</style></defs><title>Untitled-1</title><rect class="cls-1" x="158.38" y="1.61" width="2.44" height="104.91"/><rect class="cls-1" x="257.85" y="1.61" width="2.44" height="104.91"/><polygon class="cls-2" points="322.71 105.76 322.71 114.77 311.45 114.77 311.45 105.76 303.57 105.76 303.57 114.77 291.74 114.77 291.74 105.76 283.85 105.76 283.85 114.77 272.59 114.77 272.59 105.76 263.01 105.76 263.01 114.77 251.75 114.77 251.75 105.76 243.66 105.76 237.67 105.76 237.67 114.77 225.28 114.77 225.28 105.76 217.4 105.76 217.4 114.77 206.69 114.77 206.69 105.76 197.12 105.76 197.12 114.77 185.86 114.77 185.86 105.76 177.41 105.76 177.41 114.77 165.58 114.77 165.58 105.76 157.4 105.76 151.5 105.76 151.5 114.77 139.67 114.77 139.67 105.76 130.66 105.76 130.66 114.77 118.84 114.77 118.84 105.76 111.51 105.76 111.51 114.77 99.69 114.77 99.69 105.76 90.68 105.76 90.68 114.77 79.97 114.77 79.97 105.76 70.96 105.76 70.96 209.38 157.4 209.38 243.66 209.38 330.04 209.38 330.04 105.76 322.71 105.76"/><polygon class="cls-3" points="185.29 65.2 185.29 209.38 132.92 209.38 132.92 65.2 144.18 65.2 144.18 80.97 154.32 80.97 154.32 65.2 163.89 65.2 163.89 80.97 173.47 80.97 173.47 65.2 185.29 65.2"/><polygon class="cls-3" points="284.98 65.2 284.98 209.38 232.6 209.38 232.6 65.2 244.43 65.2 244.43 80.97 253.44 80.97 253.44 65.2 263.58 65.2 263.58 80.97 274.28 80.97 274.28 65.2 284.98 65.2"/><polygon class="cls-3" points="401 65.2 401 209.38 315.39 209.38 315.39 65.2 322.71 65.2 322.71 76.47 335.11 76.47 335.11 65.2 344.12 65.2 344.12 76.47 355.38 76.47 355.38 65.2 363.83 65.2 363.83 76.47 376.78 76.47 376.78 65.2 383.54 65.2 383.54 76.47 395.37 76.47 395.37 65.2 401 65.2"/><polygon class="cls-3" points="86.17 65.2 86.17 209.38 0 209.38 0 65.2 7.88 65.2 7.88 76.47 19.15 76.47 19.15 65.2 28.72 65.2 28.72 76.47 40.55 76.47 40.55 65.2 49 65.2 49 76.47 59.7 76.47 59.7 65.2 68.71 65.2 68.71 76.47 79.97 76.47 79.97 65.2 86.17 65.2"/><rect class="cls-4" x="315.58" y="184.67" width="17.44" height="8.59"/><rect class="cls-4" x="347.74" y="157.39" width="12.86" height="8.59"/><rect class="cls-4" x="329.54" y="117.29" width="13.3" height="8.59"/><rect class="cls-4" x="58.08" y="176.08" width="13.3" height="8.59"/><rect class="cls-4" x="58.08" y="112.99" width="13.3" height="8.59"/><rect class="cls-4" x="71.37" y="81.69" width="13.3" height="8.59"/><rect class="cls-4" x="138.45" y="184.67" width="13.3" height="8.59"/><rect class="cls-4" x="168.74" y="153.09" width="6.65" height="8.59"/><rect class="cls-4" x="143.05" y="94.91" width="9.2" height="5.69"/><rect class="cls-4" x="175.38" y="87.44" width="9.2" height="5.69"/><rect class="cls-4" x="245.07" y="118.74" width="9.2" height="5.69"/><rect class="cls-4" x="268.71" y="157.39" width="9.2" height="5.69"/><rect class="cls-4" x="238.38" y="186.13" width="9.2" height="5.69"/><rect class="cls-5" x="196.91" y="144.56" width="25.82" height="5.55" transform="translate(62.05 356.85) rotate(-89.88)"/><rect class="cls-5" x="288.15" y="144.55" width="25.82" height="5.55" transform="translate(153.11 448.09) rotate(-89.88)"/><rect class="cls-4" x="273.31" y="199.69" width="9.2" height="5.69"/><path class="cls-6" d="M184.73,2.48V23.8c-1.69,2.55-4.17,3.5-7.49,3.54a22,22,0,0,1-2.88-.16,46,46,0,0,1-5.42-1l-.56-.14c-3-.68-6.76-1.54-9-2.25V2.48a70.38,70.38,0,0,0,9,3h0a28,28,0,0,0,9,1.35h-.15A8.6,8.6,0,0,0,184.73,2.48Z"/><path class="cls-2" d="M285,1.05V22.37a6.84,6.84,0,0,1-4.35,3.18c-2.89.72-6.49.28-10.48-.56h.24C267,24.27,263,23.25,260.2,22.4V1.05a94.05,94.05,0,0,0,9.53,3.16,24.56,24.56,0,0,0,7.94,1.19C280.85,5.22,283.85,4,285,1.05Z"/><path class="cls-2" d="M177.41,6.81V27.34a21.89,21.89,0,0,1-3-.16,54.73,54.73,0,0,1-5.44-1,2.62,2.62,0,0,1-.6-.14V5.47a28.63,28.63,0,0,0,9,1.35Z"/><path class="cls-7" d="M285,15.8v6.57a6.83,6.83,0,0,1-4.35,3.18L275,13Z"/><path class="cls-7" d="M285,1.05V9l-9.52,4.45,1.95-8.07C280.59,5.22,283.85,4,285,1.05Z"/><path class="cls-7" d="M274.14,13.75,270.56,25c-3.38-.72-7.55-1.74-10.36-2.59V20.3Z"/><path class="cls-7" d="M273.93,13.71,260.2,8.88V1a96.2,96.2,0,0,0,9.64,3.16Z"/><rect class="cls-4" x="96.96" y="189.61" width="9.54" height="5.69"/><rect class="cls-3" x="315.34" y="175" width="16.6" height="1.41"/><path class="cls-8" d="M301,209.64c0-.3,0-.56,0-.9,0-12.15-17.85-28.72-17.85-28.72S267,196.68,267,208.82a7.33,7.33,0,0,0,0,.81Z"/><path class="cls-6" d="M301,209.64c0-.3,0-.56,0-.9,0-12.15-17.85-28.72-17.85-28.72v29.6Z"/><path class="cls-8" d="M281.16,209.64c0-.21,0-.42,0-.64,0-8.72-13.27-20.61-13.27-20.61s-12.11,12-12.11,20.68v.56Z"/><path class="cls-6" d="M281.16,209.64c0-.21,0-.42,0-.64,0-8.72-13.27-20.61-13.27-20.61v21.26Z"/><path class="cls-8" d="M309.2,209.64v-.47c0-6.43-9.7-15.21-9.7-15.21s-8.85,8.8-8.85,15.23v.43Z"/><path class="cls-6" d="M309.2,209.64v-.47c0-6.43-9.7-15.21-9.7-15.21v15.66Z"/></svg>