<svg xmlns="http://www.w3.org/2000/svg" xmlns:xlink="http://www.w3.org/1999/xlink" viewBox="0 0 179.69 275.06"><defs><style>.cls-1{isolation:isolate;}.cls-2{fill:#fb5d60;}.cls-3{fill:#fb0d1b;}.cls-4{fill:#95124f;}.cls-5{fill:#1e1e1e;}.cls-6{fill:#910848;}.cls-7{fill:#9a1c57;}.cls-8{fill:#9b1e58;}.cls-9{fill:#1c1c1c;}.cls-10{fill:#940f4d;}.cls-11{fill:#fdd531;}.cls-12{fill:#920a4a;}.cls-13{fill:#fdd83d;}.cls-14{fill:#f1f1f1;}.cls-15{fill:#4d4d4d;}.cls-16{mix-blend-mode:multiply;fill:url(#linear-gradient);}</style><linearGradient id="linear-gradient" x1="88.91" y1="244.19" x2="88.91" y2="232.45" gradientUnits="userSpaceOnUse"><stop offset="0" stop-color="#fff"/><stop offset="0.37" stop-color="#fdfdfd"/><stop offset="0.5" stop-color="#f7f7f7" stop-opacity="0.98"/><stop offset="0.6" stop-color="#ececec" stop-opacity="0.95"/><stop offset="0.68" stop-color="#dcdcdc" stop-opacity="0.91"/><stop offset="0.75" stop-color="#c7c7c7" stop-opacity="0.85"/><stop offset="0.81" stop-color="#adadad" stop-opacity="0.79"/><stop offset="0.86" stop-color="#8f8f8f" stop-opacity="0.71"/><stop offset="0.91" stop-color="#6b6b6b" stop-opacity="0.61"/><stop offset="0.96" stop-color="#444" stop-opacity="0.51"/><stop offset="1" stop-color="#1a1a1a" stop-opacity="0.4"/></linearGradient></defs><title>The Praça do Comércio</title><g class="cls-1"><g id="Layer_1" data-name="Layer 1"><path class="cls-2" d="M176.7,115.5l.88,1.15Z"/><polygon class="cls-3" points="58.24 152.34 57.82 152.47 58.18 152.7 58.24 152.34"/><path class="cls-3" d="M133.2,207.05a7.78,7.78,0,0,0-.4-.91l-1.8,1.78,2,0A4.52,4.52,0,0,1,133.2,207.05Z"/><path class="cls-3" d="M149,193s-5.69-6-7-7l-.93-1.07c.65-1.3.22-5.56-.1-5.88l0-3.08c.34,0,1.37-6,2-6.95.34,0,1-6.7,1-8l1-1c0-1.67-.07-3.34-.11-5a13.94,13.94,0,0,0,.93-10c-.26-.88-.52-1.75-.77-2.63-.05-.16-.09-.33-.14-.49l3.3-11.9c-.87-2.62-1.71-5.25-2.6-7.86-.7-2-1.46-4-2.18-6h0c2.37-1.81,2.77,1.84,4.56,1.65a7.81,7.81,0,0,1,.71-.7c-.93-2-1.87-4-2.8-6-2.22-2.4-4.37-4.87-6.71-7.15A14.41,14.41,0,0,0,136,102c-1.81-1.14-1.51-4.92-5-4l-3-4.17-4,0-2.32-1.94c.95-4.94,2.08-9.85,2.77-14.82.32-2.32-.21-4.75-.35-7.14q-.51-3-1-6L123,60.07,121.17,57c-.39-1.32-.79-2.64-1.18-4,0-.67,0-1.34,0-2l0-1,0-2.9-.77-1.12a50.92,50.92,0,0,1-4.26-3.3,36.51,36.51,0,0,1-3-3.64,1.58,1.58,0,0,0,.19-.64l3,.43,1.1-3.62,1.62-4.22a1.12,1.12,0,0,0,.28-.76v0c.13-.39.26-.78.4-1.17.2-.62.42-1.24.63-1.86s.53-1.44.79-2.17c.09-.64.19-1.29.28-1.94.23-1.36.47-2.72.7-4.07a1.2,1.2,0,0,0,.11-.4,1.08,1.08,0,0,0-.05-.47c-.29-1-.59-2.07-.89-3.11l-2-7c-.31-1-.63-2-1-3l-1-2L115,0H105l-1.17,3.89c-.25.75-.51,1.49-.81,2.39l1.84,1a4.67,4.67,0,0,0,.2.82c.42,1.27.85,2.53,1.27,3.8a2,2,0,0,0-.53.76L100,17.9,100,18h0l-1,3a1.69,1.69,0,0,0-.89.11l-5.87,2.84L93.95,26l1.16.95c0,1,0,2,0,3.06a1.8,1.8,0,0,0,0,.92l-.9,4Q95.11,37.5,96,40l.93,3c0,.35-.05.71-.08,1.07l-.78,1.1,0-.14L95,46.08l.11,0L94,47l-1.07,1-1,3-.05.1c0,.3,0,.6.05.9l-2.26.62v3.86l-2.54-2c.25,1.22.51,2.44.77,3.66,0,1.33.09,2.66.14,4,.36,2.68.73,5.35,1.09,8A2.14,2.14,0,0,0,89,71L89,73.15c0,.31,0,.62,0,.92l-.08.08.05-.06-1.75.82h-.07l-1.22.16L85,74.92,84,73l-1-1c-.42-1.27-.85-2.54-1.28-3.82L80.07,66a3.4,3.4,0,0,0-.26-.86l-.72-1.2-2-2a3.38,3.38,0,0,0-.3-.74l-2.68-2.28-1-1c-5.86-5.79-12.79-8.39-21-7.08L51,49c-.36-.93-.72-1.85-1.09-2.77l-1.71-1.07-.3,3.81-2,2.81-7.18,1L36.89,60,35.4,64.11,35.07,66l0,0q-.94,2.49-1.91,5a4.3,4.3,0,0,0-.08.95l-1,5.12L30.78,83l-.69,4.13c-.14,1.57-.27,3.15-.41,4.69.9,1.43,1.73,2.78,2.57,4.13,1.61,3.76,5.07,2.32,7.85,2.79l2.87.12.05.45,1.07.77a1.34,1.34,0,0,0,.18.83l.75-.73h0l-.75.72.9,2.11a1.54,1.54,0,0,0-.06.85l3.08,2,1.8,0L54,105.2l.71-.24.26-.08,1,.12.93,3.94-1.44,1.4-.57.56-1.08,2.26,0,.43c-3.1,2.23-.49,4.32.16,6.46.06.6.11,1.19.16,1.79l.68,1.14c.11.33.23.66.35,1l2.7,8.31c-.48.62-1,1.24-1.45,1.87l-2.29.88c-.07,4.08-1.95,7-5.38,9.24-1.43.93-2.43,2.54-3.63,3.84l.81,6L47.2,156l.79,1c0,1,.07,1.94.11,2.91,0,.68,0,1.35,0,2l.75.19a2.81,2.81,0,0,0,.19.81l.81,2a3.1,3.1,0,0,0,.2,1l2.83,5,2.17,2.94,2,1L59,175l1.05-.47,1.88-.66L66,172c-.23-.69-.47-1.38-.7-2.07A3.67,3.67,0,0,0,65,169l-2.54-2.77L58,167a3.86,3.86,0,0,0-.16-.9l-1.8-2-2.89-4.28c-.34-1.31-.69-2.61-1-3.92.62-2,1.23-3.91,1.85-5.86l6,.77,3.84,2.44,5.69,2.43c2.72-1.6,3.61-2.95,2.59-5L71.89,146c0-1.31,0-2.62,0-3.93.1-.32.18-.63.28-1,0,0,0,0,0,0l1.45.5c.67.23,1.34.46,2,.65,1.43.38,2.89.67,4.33,1-.06,2-.11,4-.17,6q.66,3.82,1.34,7.66Q81.08,163.43,81,170q.54,3.48,1.06,7-1,6.51-2.05,13l-2,1.1a7.22,7.22,0,0,0,0,.93l-3,3.87v3.7L72.9,200c2.84,2.2,6,1.43,9.12,1a9.12,9.12,0,0,0,.93.29l2.11-2.21c.65-.78,1.29-1.57,1.94-2.36l-.18-1.08,0-.26.27-.41c-.05-.34-.1-.68-.16-1V191c0-2.35,0-4.71,0-7.06.12-1.89.24-3.77.35-5.66L88,173a2.76,2.76,0,0,0,.13-.86l.78-14.19.33-3.6L91,149l2,.94a14.11,14.11,0,0,0,9.73-1.82l1.32,3.93c-.1.91-.61,2.06-.24,2.7l16.11,27.38q-1.38,5.05-2.74,10.11l-.36,2.66a.92.92,0,0,1,.13.08c-.37.69-.73,1.38-1.1,2.06l-3,3.88-1.83.66,1.79.66c-1.28,2.6-3.85,1.23-5.76,1.88L112,206l2-.12,1.91,0,2,.09.37.15h.39L123,207l1,1.12.46-.09h.47c2.52-1.63-.13-3.37.12-5l1.14,0L125,198h0c0-2.32-.05-4.64-.07-7a2.69,2.69,0,0,0,0-.85c.4-.69.8-1.37,1.19-2.06l1.79-4.17.15-1.11a.91.91,0,0,0,.2-.53l2.72-2.07c.57,1,1.47,2,1.65,3.07.09.55.16,1.11.21,1.67.15,1.67.16,3.37.26,5,0,1-.05,2-.07,2.93a2,2,0,0,0,0,1c-.1,1.66-.19,3.31-.29,5-.19,1.36-.39,2.72-.58,4.07l1.83,1.09-1.28,2.08a8.1,8.1,0,0,1,.4.91,4.69,4.69,0,0,0-.24.89H131a3.37,3.37,0,0,0-.16,1L132,209l1,0,4,0,3-.08c0,.35,0,.71,0,1.06.26-.27.53-.53.8-.8l.23-.39a2.3,2.3,0,0,0,.9.14l1.2.12H145c.3.53.59,1.06.88,1.59L147,210c.3-.05.59-.11.88-.18l.38-1,.57-1.3L148,205l-.15-1.55c-.23-.52-.47-1-.7-1.57-.05-.64-.11-1.29-.16-1.93a5.33,5.33,0,0,0,2-1A33.63,33.63,0,0,0,149,193ZM56.16,99,56,102l-1.46.77L54,103,52,103l-1-1.05L50,101l-.61-.89-1.33-.58q-.48-3.24-.94-6.48l.81-2L49,85l5.59-1.29c.56,4.54,1,8.39,1.49,12.23,0,.7.05,1.4.07,2.1ZM100,59h0l1.38-3.71C101,56.5,100.5,57.74,100,59ZM130,108.12h0l-2.09-2Zm8.13,76.77h0l0,0Z"/><path class="cls-4" d="M33.13,73.89a4.76,4.76,0,0,1,.09-1l1.91-5,.95,2.89.8.27L38,68.92l3.07,2-1.57,3,.9.77,5.6-2.8-2.29,3.62-4.67.46C37.33,74.57,35.65,73,33.13,73.89Z"/><path class="cls-5" d="M41.24,71.14l1.9-.24,3.08.22a6,6,0,0,1-.06.94l-5.6,2.8-.9-.77Z"/><path class="cls-6" d="M42.65,81.73l2.06-4.84q.48-.09,1-.14l1,3-1,3h0l3,3-1.08,6-6.92,2-.76.06-.46-.1.1-1,0-1.88.31-.08.81,0,.94,0,1-1.93q0-.49,0-1l.11-1.16C45.47,85,42.44,83.38,42.65,81.73Z"/><path class="cls-4" d="M52.34,51c8.24-1.31,15.17,1.29,21,7.08l-.12,2.14h0l-3.95-2-4-2-2-.94-2,0-3.06-.85-5,1.86-1,0h0Z"/><path class="cls-4" d="M79.33,64.18,80,65.39a1,1,0,0,0,.25.86L82,68.38l1.3,3.89-.06-.1v2.06l0,0-2-1-2-4-1-2.9Z"/><path class="cls-4" d="M79.33,64.18,78.25,66.3l-3.91-3.13q-.07-.42-.17-.84l-.92-2.07h0l1.11-1.13L77,61.41l-.26.39.57.35Z"/><path class="cls-6" d="M50.3,46.68l1.09,2.77,1,7.05h0l-1,2.05-1-1L48.22,56.5q-.4,0-.79-.07l-1-.92-.23-1,.18,0c2.08.16,2.08.16,2-1l-.09-4.06.31-3.82Z"/><path class="cls-6" d="M78.29,67.53l1,0,1,3.08-2,6.91-2.71,4.21-1.61-.16-3.68,4.95-1.93-4v0q0-.49-.06-1v-2h0c3.23-2.65,2.9-6.39,3-10l5,2.68Z"/><path class="cls-7" d="M89.36,86c-.58-1.48-1.18-2.94-1.73-4.43-.44-1.17-.82-2.37-1.22-3.55,2.24-1.18,2.75,1.13,4,2l1-2,1.92-1.57-.82,6.59-3.11,3Z"/><path class="cls-8" d="M85.33,77c-.26,1.28-.46,2.58-.8,3.84C84.23,82,83.77,83,83.38,84h0l-2-5,2-6.91,1,1,0,0L84.43,75Z"/><path class="cls-9" d="M91.3,23.74c3.38-2.27,6,1,9.11,1.17-.36,2.84-2.56,1.39-4,1.72l-4-1.94Z"/><path class="cls-6" d="M100.16,140.18c-1.39,1.16-2.82,2.29-4.17,3.5-1.64,1.48-3.22,3-4.83,4.54l-1,0-4-3,.08-1,2-12.37-2-.61,5.59-1.09A16.58,16.58,0,0,0,86,128.33l-5.72-1.08-.08-2,0,0q.5,0,1,.09l.92.9,3.06-1-.06-2.18,1.21-1.81,4.61,3.37,6.26-3.4,5.31,9.21Z"/><path class="cls-6" d="M93.31,84.06c3.46-.52,7.24,0,9.95-3,2.64,2.48,6.09,4.53,7.7,7.56,2.18,4.08,2.95,8.92,4.32,13.44l-1.92,1-1-3.06-.06-.07c-.93-1.51-1.76-3.09-2.82-4.49a7.29,7.29,0,0,0-2.18-1.35l-1.38.13L100.3,92c-2.6-1.38-4.54-.14-6.62,1.38a30.93,30.93,0,0,1-5.07,2.48l-.21-1.76.82-6.59-1.92,1.57h-1l-.77-4.21.81-.91a34.29,34.29,0,0,0,3.83.49A19.57,19.57,0,0,0,93.31,84.06Z"/><path class="cls-6" d="M87.87,57.77l-.77-3.66,2.54,2V52.26l2.26-.62,0,1.06,0,1.09-.82,1.07L92,56.78l6-1.94.83-.21,2.09-.86.92,0L100,58.78l-3.1-.06-3.9.15-2,1,1,2.92v1L90.54,66l2.43.7,1.9-.94.28-.19a3.82,3.82,0,0,0,.59.06l.42,1.93c0,.47-.26,1-.07,1.38A32.29,32.29,0,0,0,98,71.76l-2,0-2-1H93l-2-1-1.89,0-1.1-8C90.16,60.81,90.15,60.7,87.87,57.77Z"/><path class="cls-10" d="M102.41,39.55l5-.11,0,0,3.94-1a35.56,35.56,0,0,0,3,3.64,51.25,51.25,0,0,0,4.26,3.3l-3.42,1.9c-1.13-2.8-3.11-1.3-4.85-1l-1.4-.94-.46,2.05-1.14.05,0-1c-.64-2.82-2.5-.88-3.84-1l-1.07,0-1-2.07,0-1Z"/><path class="cls-6" d="M115.89,66.37l-1.1,1-4.91.29-3.05-.07-3,.8-2,1.82L98.93,71.5l-1.12-.14a32.29,32.29,0,0,1-1.87-2.78c-.19-.34,0-.91.07-1.38l3.89-1.57q.44-.21.87-.45a45.65,45.65,0,0,1,5.72-1.48,51.64,51.64,0,0,1,6.17-.12c-.67,2.1.56,2.64,2.28,2.78l.38,0A2.88,2.88,0,0,0,115.89,66.37Z"/><path class="cls-6" d="M103.92,155.07c-.37-.65.14-1.79.24-2.7l3.83-1.09,1.05-4.48,7.38-3.35,1.69.9c3.06,5.09,6,10.18,6.59,16.34.54,5.25,1.65,10.47,5.3,14.67l-1.65,2.93-2.24-1.13-2,3.06L120,182.44"/><path class="cls-7" d="M60.35,145l-2,1H57.23l.09-.08-.07,1-4,4.17-1.86,5.86L50.21,154l-.93-5A32.66,32.66,0,0,1,52,146.7a36.64,36.64,0,0,1,3.23-1.78h0L58.29,142l1-.09Z"/><path class="cls-11" d="M60.82,170.06h2.91l1.39-.06.71,2.07-4.11,1.82-1.88.66-1,.47-1.9-.06-2-1,1.62-2.7Z"/><path class="cls-12" d="M76.27,92.28l4-6h0L83.57,85a30.93,30.93,0,0,0,5.07-2.48c2.08-1.51,4-2.75,6.62-1.38l0,.13-2,2.94h0l-2,2,1,2c-.82,1.91-3.77,3.14-1.88,5.91q0,.42-.05.83l-.18,3.84-3.83,4.4L80,106.65l-4.61-3.37a11.54,11.54,0,0,0,1.09-2.61C76.91,97.88,78.9,95,76.27,92.28Z"/><path class="cls-13" d="M102.28,43l0,1-3.93,1.09h-1q-.11-.48-.23-1L97.18,43l-.93-3L94.47,35l.9-4,.89,0,1.93-1h.08l-.67,6.8,3.67,1.21q0,.45,0,.9l.06.12-1,2.95h0l1,1Z"/><path class="cls-4" d="M121,18.53a1.2,1.2,0,0,1-.11.4c-.23,1.35-.47,2.71-.7,4.07-.09.65-.19,1.3-.28,1.94-.26.73-.53,1.45-.79,2.17s-.43,1.24-.63,1.86L100,17.9l5.77-5.24a2,2,0,0,1,.53-.76Z"/><path class="cls-6" d="M75.67,142.2l-2-.65-1.46-.46-6.35-2a84.73,84.73,0,0,1-10.32-28.72l1.44-1.4L56,105l-1-.12-.26.08c-.08-.72-.15-1.45-.21-2.18L56,102l.15-3V98c0-.7,0-1.4-.07-2.1-.47-3.84-.93-7.69-1.49-12.23l8.19-4.4L74.25,132Z"/><polyline class="cls-6" points="132.21 97.93 102.48 130.42 121.7 91.92"/><path class="cls-6" d="M145,141.91c.05.16.09.33.14.49-10.38,3-27.82,6.28-27.82,6.28l-.93-5.24,27.12-27.3h0c.72,2,1.48,4,2.18,6,.89,2.61,1.73,5.24,2.6,7.86Z"/><rect class="cls-14" x="12.94" y="226.45" width="151.95" height="48.93"/><rect class="cls-14" x="159.76" y="230.68" width="19.93" height="4.85"/><rect class="cls-15" x="89.85" y="208.57" width="6.85" height="66.81"/><rect class="cls-15" x="83.35" y="208.57" width="3.43" height="66.81"/><rect class="cls-16" x="12.94" y="232.45" width="151.95" height="11.74"/><path class="cls-14" d="M179.69,235,0,232.32v-3.17a26.47,26.47,0,0,0,6.17-1.24c1.83-.65,3.47-1.63,3.94-3.08,0,0,.1-.43.31-1.15,1.05-3.51,4.77-14,12.51-15.74,9.33-2.14,47.85-9.06,59.09-7s65.87,8.81,65.87,8.81,7.62,7.88,14.22,13.89c1.76,1.61,3.44,3.08,4.89,4.23a19.92,19.92,0,0,0,3.2,2.21C175.25,232.61,179.69,235,179.69,235Z"/><polygon class="cls-15" points="162.11 223.68 10.42 223.68 6.17 227.91 167 227.91 162.11 223.68"/><rect class="cls-15" x="8.59" y="247.22" width="78.19" height="3.38"/><rect class="cls-15" x="89.85" y="247.22" width="79.87" height="3.38"/><rect class="cls-14" x="8.59" y="241.77" width="74.76" height="7.14"/><rect class="cls-14" x="96.7" y="240.62" width="72.78" height="7.14"/></g></g></svg>