<?xml version="1.0" encoding="utf-8"?>
<!-- Generator: Adobe Illustrator 20.1.0, SVG Export Plug-In . SVG Version: 6.00 Build 0)  -->
<!DOCTYPE svg PUBLIC "-//W3C//DTD SVG 1.1//EN" "http://www.w3.org/Graphics/SVG/1.1/DTD/svg11.dtd">
<svg version="1.1" id="Layer_1" xmlns="http://www.w3.org/2000/svg" xmlns:xlink="http://www.w3.org/1999/xlink" x="0px" y="0px"
	 viewBox="0 0 1280 357.1" style="enable-background:new 0 0 1280 357.1;" xml:space="preserve">
<style type="text/css">
	.st0{fill:#A2E8F9;}
	.st1{fill:none;stroke:#A2E8F9;stroke-linecap:square;stroke-linejoin:bevel;stroke-miterlimit:10;}
	.st2{fill:#B83230;}
	.st3{fill:#90151F;}
	.st4{fill:#B4ECFA;}
	.st5{fill:#DB233E;}
	.st6{fill:#A4E8F9;}
	.st7{fill:#F5A46C;}
	.st8{fill:#F3B6BF;}
	.st9{fill:#E66578;}
	.st10{fill:#EC8897;}
	.st11{fill:#DC2C46;}
	.st12{fill:#F49656;}
	.st13{fill:#E14B61;}
	.st14{fill:#E87082;}
	.st15{fill:#C2504E;}
	.st16{fill:#BA3836;}
	.st17{fill:#E7697C;}
	.st18{fill:#96212A;}
	.st19{fill:#8E101A;}
	.st20{fill:#BF4544;}
	.st21{fill:url(#SVGID_1_);}
	.st22{fill:#F2B2BB;}
	.st23{fill:url(#SVGID_2_);}
	.st24{fill:#E56174;}
	.st25{fill:url(#SVGID_3_);}
	.st26{fill:#BC3D3B;}
	.st27{fill:none;stroke:#FFFFFF;stroke-linecap:round;stroke-linejoin:round;}
	.st28{fill:none;stroke:#FFFFFF;stroke-linecap:round;stroke-linejoin:round;stroke-dasharray:6,8;}
	.st29{fill:#FC4C4C;}
	.st30{fill:#EE9AA6;}
	.st31{fill:#DE374F;}
	.st32{fill:#B42725;}
</style>
<g>
	<rect x="191.7" y="220.6" class="st0" width="8" height="173.9"/>
	<rect x="1054" y="220.6" class="st0" width="8" height="173.9"/>
	<rect x="1222.5" y="338.7" class="st0" width="15.9" height="55.7"/>
	<rect x="195.8" y="335.2" class="st0" width="863.8" height="6.9"/>
	<rect x="1054.7" y="336.2" class="st0" width="213.4" height="5.8"/>
	<polygon class="st0" points="1236.1,339.6 1230.3,339.6 1225.1,335.2 1060.6,224 1061.9,220.8 1231,335.3 	"/>
	<rect x="16" y="338.7" class="st0" width="15.9" height="55.7"/>
	<rect x="-13.3" y="336.2" class="st0" width="213.4" height="5.8"/>
	<polygon class="st0" points="17.6,338.7 23.3,338.7 28.5,334.8 193,223.8 191.7,220.7 22.8,334.9 	"/>
	<path class="st0" d="M198.8,220.5v3.5c0,0,284.7,109.6,456.6,107.2c172-2.4,293.2-44.8,298.6-46.9c5.4-2.2,57.6-20.8,100.1-60v-3.7
		c0,0-23.3,27.5-99.7,59.2s-251,50.2-299,46.1C655.5,325.8,527.1,339,198.8,220.5z"/>
	<polyline class="st1" points="198.8,335.5 212.3,227.2 218,338.7 227.5,232.8 236.6,338.7 242.7,238.1 253.4,338.7 259.5,243.4 
		268.9,338.7 275.3,249.2 282.7,338.7 290.2,254.1 299.6,338.7 305.5,259.5 312.4,338.7 321.1,263.8 329,338.7 336.9,268.7 
		344.1,338.7 352.4,273.4 358.5,338.7 368.3,277.7 373,338.7 383.1,282.9 390.5,338.7 399,286.9 405.7,338.7 415.4,292.7 
		421.8,338.7 429.8,296 437.5,338.7 445.1,299.6 453,338.7 460.4,302.9 467.4,338.7 475.9,306.2 484,338.7 491,309.2 498.2,338.7 
		506.7,312.2 512.7,338.7 521,314.6 527.3,338.7 536.6,317.2 540.6,338.7 551.1,319.8 556.6,338.7 566,322.5 573.6,338.7 
		581.5,324.2 589.1,338.7 595.8,325.7 603.6,338.7 610.6,327.7 617.9,336.8 624.9,328.1 633.4,338.7 640.4,328.5 655.9,338.7 
		671,328.5 679.3,338.7 685,328.1 693.2,338.7 699.2,328.4 706.4,338.7 713.5,327.3 721.5,338.7 727.8,326.2 736.5,338.7 742.4,325 
		749.5,338.7 756.3,324 763.5,338.7 770.3,321.9 777.3,338.7 784.8,320 790.3,338.7 798.1,317.6 804.3,338.7 812.3,316.5 
		819.6,338.7 825.8,314.4 833.9,338.7 839.7,311.7 845.8,338.7 853.6,308.9 859,338.7 867,307.6 872.4,338.7 880.4,303.3 
		886.7,338.7 894,300.1 898.8,338.7 907,297.1 912.7,338.7 920.5,294.5 926.6,338.7 933.8,289.8 938.7,338.7 945.8,285.5 
		953.2,338.7 959.9,280.6 965.3,338.7 971.9,275 979.6,338.7 985.5,269.1 992.3,338.7 998.2,262.3 1004.8,338.7 1010.5,255.1 
		1018.5,338.7 1022.3,247.7 1028.3,338.7 1034.3,239 1042.7,338.7 1046.1,231.2 1053.4,338.7 	"/>
</g>
<g>
	<g>
		<rect x="50.6" y="205.2" class="st2" width="90.5" height="187.8"/>
		<rect x="50.6" y="167.1" class="st2" width="90.5" height="30.2"/>
		<rect x="50.6" y="140.9" class="st2" width="90.5" height="20.1"/>
		<polygon class="st3" points="141.1,167.1 50.6,167.1 45.5,161 146.1,161 		"/>
		<polygon class="st3" points="141.1,205.2 50.6,205.2 45.5,197.2 146.1,197.2 		"/>
		<rect x="45.5" y="138.9" class="st3" width="100.6" height="2"/>
		<polygon class="st4" points="141.1,167.1 50.6,167.1 49.7,166 141.9,166 		"/>
		<polygon class="st4" points="141.1,205.2 50.6,205.2 49.9,204.2 141.7,204.2 		"/>
		<rect x="69.5" y="105.9" class="st3" width="7.4" height="10.2"/>
		<rect x="116.2" y="105.9" class="st3" width="6" height="10.2"/>
		<rect x="69.5" y="104.9" class="st5" width="4.6" height="2"/>
		<rect x="117.6" y="104.9" class="st5" width="4.6" height="2"/>
		<polygon class="st2" points="95.1,48.4 131.1,138.9 60.6,138.9 		"/>
		<polygon class="st3" points="100,115.6 94.8,115.6 94.8,106.7 97.5,105 100,106.7 		"/>
		<polygon class="st5" points="97.5,105.5 99.2,107.1 101,107.1 97.5,104 93.9,107.1 95.6,107.1 		"/>
		<rect x="95.6" y="107.7" class="st6" width="3.5" height="7"/>
		<polygon class="st7" points="94.8,110.9 94.1,110.9 93.9,110.9 93.9,107.1 94.8,107.1 		"/>
		<polygon class="st7" points="94.8,115.6 94.3,110.9 94.8,110.9 		"/>
		<circle class="st7" cx="95.2" cy="46" r="2.9"/>
		<polygon class="st7" points="97.5,39.4 93,39.4 93.9,30.6 96.6,30.6 		"/>
		<polygon class="st7" points="97.5,39.4 93,39.4 94.4,41.3 96.1,41.3 		"/>
		<rect x="95" y="41.3" class="st7" width="0.6" height="2.1"/>
		<rect x="94.7" y="16.4" class="st7" width="1" height="14.4"/>
		<circle class="st7" cx="95.2" cy="28.7" r="1.2"/>
		<circle class="st7" cx="95.2" cy="26.3" r="0.8"/>
		<g>
			<path class="st6" d="M111.6,219.8v-4.2c0-1.5,0.7-2.8,1.7-2.8c1,0,1.7,1.3,1.7,2.8v4.2H111.6z"/>
			<path class="st6" d="M129,219.8v-4.2c0-1.5,0.7-2.8,1.7-2.8c1,0,1.7,1.3,1.7,2.8v4.2H129z"/>
			<path class="st6" d="M110,242v-7c0-2.7,1.3-4.7,3.2-4.7c2,0,3.2,2.2,3.2,4.7v7H110z"/>
			<path class="st6" d="M75.5,242v-7c0-2.7,1.3-4.7,3.2-4.7s3.2,2.2,3.2,4.7v7H75.5z"/>
			<path class="st6" d="M94.1,219.8v-4.2c0-1.5,0.7-2.8,1.7-2.8s1.7,1.3,1.7,2.8v4.2H94.1z"/>
			<path class="st6" d="M76.7,219.8v-4.2c0-1.5,0.7-2.8,1.7-2.8c1,0,1.7,1.3,1.7,2.8v4.2H76.7z"/>
			<path class="st6" d="M59.3,219.8v-4.2c0-1.5,0.7-2.8,1.7-2.8c1,0,1.7,1.3,1.7,2.8v4.2H59.3z"/>
		</g>
		<g>
			<path class="st3" d="M78.7,193.6V178c0-4.2,3-7.4,7-7.4c4,0,7,3.3,7,7.4v15.6H78.7z"/>
			<path class="st6" d="M89.2,192.8h-6.8v-11.2c0-1.8,1.5-3.5,3.5-3.5l0,0c1.8,0,3.5,1.5,3.5,3.5v11.2H89.2z"/>
		</g>
		<g>
			<path class="st3" d="M58.6,193.6V178c0-4.2,3-7.4,7-7.4s7,3.3,7,7.4v15.6H58.6z"/>
			<path class="st6" d="M69,193h-6.8v-11.2c0-1.8,1.5-3.5,3.5-3.5l0,0c1.8,0,3.5,1.5,3.5,3.5V193H69z"/>
		</g>
		<g>
			<path class="st3" d="M50.6,172.7v20.9h2.1V178C52.6,175.9,51.8,174.1,50.6,172.7z"/>
		</g>
		<g>
			<path class="st3" d="M98.8,193.6V178c0-4.2,3-7.4,7-7.4s7,3.3,7,7.4v15.6H98.8z"/>
			<path class="st6" d="M109.3,192.8h-6.8v-11.2c0-1.8,1.5-3.5,3.5-3.5l0,0c1.8,0,3.5,1.5,3.5,3.5v11.2H109.3z"/>
		</g>
		<g>
			<path class="st3" d="M118.9,193.6V178c0-4.2,3-7.4,7-7.4s7,3.3,7,7.4v15.6H118.9z"/>
			<path class="st6" d="M129.3,192.8h-6.8v-11.2c0-1.8,1.5-3.5,3.5-3.5l0,0c1.8,0,3.5,1.5,3.5,3.5v11.2H129.3z"/>
		</g>
		<g>
			<path class="st3" d="M141.1,172.8c-1.3,1.4-2,3.2-2,5.2v15.6h2V172.8z"/>
		</g>
		<path class="st6" d="M92.4,156.8v-7c0-2.7,1.3-4.7,3.2-4.7s3.2,2.2,3.2,4.7v7H92.4z"/>
		<path class="st6" d="M109.3,156.8v-7c0-2.7,1.3-4.7,3.2-4.7s3.2,2.2,3.2,4.7v7H109.3z"/>
		<path class="st6" d="M125.8,156.8v-7c0-2.7,1.3-4.7,3.2-4.7c2,0,3.2,2.2,3.2,4.7v7H125.8z"/>
		<path class="st6" d="M59.3,156.8v-7c0-2.7,1.3-4.7,3.2-4.7c2,0,3.2,2.2,3.2,4.7v7H59.3z"/>
		<path class="st6" d="M75.8,156.8v-7c0-2.7,1.3-4.7,3.2-4.7s3.2,2.2,3.2,4.7v7H75.8z"/>
	</g>
	<rect x="91.7" y="236.2" class="st8" width="4.8" height="1.2"/>
	<rect x="95" y="268.6" class="st8" width="4.8" height="1.2"/>
	<rect x="97.4" y="270.2" class="st8" width="4.8" height="1.2"/>
	<rect x="64.7" y="286.7" class="st8" width="4.8" height="1.2"/>
	<rect x="67.2" y="288.3" class="st8" width="4.8" height="1.2"/>
	<rect x="124.7" y="260.8" class="st8" width="4.8" height="1.2"/>
	<rect x="79.2" y="318.5" class="st8" width="4.8" height="1.2"/>
	<rect x="84.2" y="318.5" class="st8" width="4.8" height="1.2"/>
	<rect x="81.8" y="317.1" class="st8" width="4.8" height="1.2"/>
	<rect x="70.4" y="350.7" class="st8" width="4.8" height="1.2"/>
	<rect x="75.5" y="350.7" class="st8" width="4.8" height="1.2"/>
	<rect x="50.6" y="254.1" class="st8" width="4.5" height="1.2"/>
	<rect x="55.3" y="254.1" class="st8" width="4.8" height="1.2"/>
	<rect x="131.4" y="373.9" class="st8" width="4.8" height="1.2"/>
	<rect x="134.2" y="372.5" class="st8" width="4.8" height="1.2"/>
	<rect x="112.1" y="339.6" class="st8" width="4.8" height="1.2"/>
	<rect x="109.7" y="338.1" class="st8" width="4.8" height="1.2"/>
	<rect x="122.3" y="311.9" class="st8" width="4.8" height="1.2"/>
	<rect x="114.9" y="289" class="st8" width="4.8" height="1.2"/>
	<rect x="117.3" y="290.6" class="st8" width="4.8" height="1.2"/>
	<rect x="102.8" y="126.1" class="st8" width="4.8" height="1.2"/>
	<rect x="77.3" y="101.1" class="st8" width="4.8" height="1.2"/>
	<rect x="105.2" y="127.7" class="st8" width="4.8" height="1.2"/>
	<rect x="98.8" y="75.7" class="st8" width="4.8" height="1.2"/>
	<rect x="101.2" y="77.3" class="st8" width="4.8" height="1.2"/>
</g>
<g>
	<rect x="250.9" y="250" class="st6" width="2" height="35.8"/>
	<rect x="180.5" y="292.9" class="st9" width="143" height="100.6"/>
	<rect x="132.4" y="232.5" class="st10" width="13" height="160.9"/>
	<rect x="167.6" y="232.5" class="st11" width="13" height="160.9"/>
	<rect x="145.5" y="232.5" class="st9" width="22.1" height="160.9"/>
	<rect x="130.5" y="290.8" class="st7" width="52.4" height="2"/>
	<polygon class="st2" points="132.4,232.2 156.5,169.9 145.5,232.2 	"/>
	<polygon class="st4" points="180.8,232.2 156.5,169.9 167.6,232.2 	"/>
	<polygon class="st3" points="145.5,232.2 167.6,232.2 156.5,169.9 	"/>
	<rect x="130.5" y="232.1" class="st7" width="52.4" height="2"/>
	<path class="st6" d="M154.1,246.8V242c0-1.7,0.9-3.2,2.5-3.2s2.5,1.4,2.5,3.2v4.7H154.1z"/>
	<path class="st6" d="M172.2,246.8V242c0-1.7,0.9-3.2,2.5-3.2s2.5,1.4,2.5,3.2v4.7H172.2z"/>
	<g>
		<rect x="130.4" y="251.3" class="st7" width="52.4" height="4"/>
		<path class="st10" d="M137.7,255.3v0.1h-2.3v-0.1c0-1,0.2-2,1.2-2C137.5,253.2,137.7,254.1,137.7,255.3z"/>
		<path class="st10" d="M144.7,255.3v0.1h-2.3v-0.1c0-1,0.2-2,1.2-2C144.4,253.2,144.7,254.1,144.7,255.3z"/>
		<path class="st9" d="M151.6,255.3v0.1h-3.5v-0.1c0-1,0.8-2,1.7-2C150.8,253.2,151.6,254.1,151.6,255.3z"/>
		<path class="st9" d="M158.5,255.3v0.1H155v-0.1c0-1,0.8-2,1.7-2C157.7,253.2,158.5,254.1,158.5,255.3z"/>
		<path class="st9" d="M165.4,255.3v0.1H162v-0.1c0-1,0.8-2,1.7-2C164.6,253.2,165.4,254.1,165.4,255.3z"/>
		<path class="st11" d="M172.4,255.3v0.1h-3.5v-0.1c0-1,0.8-2,1.7-2C171.5,253.2,172.4,254.1,172.4,255.3z"/>
		<path class="st11" d="M179.3,255.3v0.1h-3.5v-0.1c0-1,0.8-2,1.7-2C178.5,253.2,179.3,254.1,179.3,255.3z"/>
	</g>
	<path class="st6" d="M136,246.8V242c0-1.7,0.9-3.2,2.5-3.2c1.5,0,2.5,1.4,2.5,3.2v4.7H136z"/>
	<rect x="175.1" y="269.3" class="st6" width="0.7" height="5.9"/>
	<rect x="156.2" y="269.3" class="st6" width="0.7" height="5.9"/>
	<rect x="138.3" y="269.3" class="st6" width="0.7" height="5.9"/>
	<rect x="175.1" y="309.5" class="st6" width="0.7" height="5.9"/>
	<rect x="156.2" y="309.5" class="st6" width="0.7" height="5.9"/>
	<rect x="138.3" y="309.5" class="st6" width="0.7" height="5.9"/>
	<rect x="175.1" y="337.7" class="st6" width="0.7" height="5.9"/>
	<rect x="156.2" y="337.7" class="st6" width="0.7" height="5.9"/>
	<rect x="138.3" y="337.7" class="st6" width="0.7" height="5.9"/>
	<rect x="175.1" y="365.8" class="st6" width="0.7" height="5.9"/>
	<rect x="156.2" y="365.8" class="st6" width="0.7" height="5.9"/>
	<rect x="138.3" y="365.8" class="st6" width="0.7" height="5.9"/>
	<g>
		<rect x="180.5" y="278" class="st10" width="2" height="12.1"/>
		<rect x="187.2" y="278" class="st10" width="10" height="12.1"/>
		<rect x="202.1" y="278" class="st10" width="10" height="12.1"/>
		<rect x="217.1" y="278" class="st10" width="10" height="12.1"/>
		<rect x="232" y="278" class="st10" width="10" height="12.1"/>
		<rect x="246.9" y="278" class="st10" width="10" height="12.1"/>
		<rect x="261.9" y="278" class="st10" width="10" height="12.1"/>
		<rect x="276.7" y="278" class="st10" width="10" height="12.1"/>
		<rect x="291.7" y="278" class="st10" width="10" height="12.1"/>
		<rect x="306.6" y="278" class="st10" width="10" height="12.1"/>
		<rect x="321.6" y="278" class="st10" width="2" height="12.1"/>
	</g>
	<g>
		<rect x="187.2" y="276.3" class="st10" width="0.6" height="1.7"/>
		<rect x="182" y="276.3" class="st10" width="0.6" height="1.7"/>
		<rect x="196.7" y="276.3" class="st10" width="0.6" height="1.7"/>
		<rect x="202.1" y="276.3" class="st10" width="0.6" height="1.7"/>
		<rect x="211.7" y="276.3" class="st10" width="0.6" height="1.7"/>
		<rect x="217.1" y="276.3" class="st10" width="0.6" height="1.7"/>
		<rect x="226.6" y="276.3" class="st10" width="0.6" height="1.7"/>
		<rect x="232" y="276.3" class="st10" width="0.6" height="1.7"/>
		<rect x="241.6" y="276.3" class="st10" width="0.6" height="1.7"/>
		<rect x="246.9" y="276.3" class="st10" width="0.6" height="1.7"/>
		<rect x="256.4" y="276.3" class="st10" width="0.6" height="1.7"/>
		<rect x="261.9" y="276.3" class="st10" width="0.6" height="1.7"/>
		<rect x="271.4" y="276.3" class="st10" width="0.6" height="1.7"/>
		<rect x="276.7" y="276.3" class="st10" width="0.6" height="1.7"/>
		<rect x="286.3" y="276.3" class="st10" width="0.6" height="1.7"/>
		<rect x="291.7" y="276.3" class="st10" width="0.6" height="1.7"/>
		<rect x="301.2" y="276.3" class="st10" width="0.6" height="1.7"/>
		<rect x="306.6" y="276.3" class="st10" width="0.6" height="1.7"/>
		<rect x="316.2" y="276.3" class="st10" width="0.6" height="1.7"/>
		<rect x="321.6" y="276.3" class="st10" width="0.6" height="1.7"/>
	</g>
	<g>
		<rect x="180.8" y="289.8" class="st7" width="52.5" height="5.7"/>
		<path class="st9" d="M186.1,295.8L186.1,295.8l-3.2,0.1v-0.1c0-1.6,0.6-3,1.6-3C185.5,292.9,186.1,294.2,186.1,295.8z"/>
		<path class="st9" d="M193.6,295.8L193.6,295.8l-3.2,0.1v-0.1c0-1.6,0.6-3,1.6-3C193,292.9,193.6,294.2,193.6,295.8z"/>
		<path class="st9" d="M201.1,295.8L201.1,295.8l-3.2,0.1v-0.1c0-1.6,0.6-3,1.6-3C200.5,292.9,201.1,294.2,201.1,295.8z"/>
		<path class="st9" d="M208.6,295.8L208.6,295.8l-3.2,0.1v-0.1c0-1.6,0.6-3,1.6-3C208,292.9,208.6,294.2,208.6,295.8z"/>
		<path class="st9" d="M216.1,295.8L216.1,295.8l-3.2,0.1v-0.1c0-1.6,0.6-3,1.6-3C215.5,292.9,216.1,294.2,216.1,295.8z"/>
		<path class="st9" d="M223.6,295.8L223.6,295.8l-3.2,0.1v-0.1c0-1.6,0.6-3,1.6-3C223,292.9,223.6,294.2,223.6,295.8z"/>
		<path class="st9" d="M231.1,295.8L231.1,295.8l-3.2,0.1v-0.1c0-1.6,0.6-3,1.6-3C230.4,292.9,231.1,294.2,231.1,295.8z"/>
	</g>
	<g>
		<rect x="233.1" y="289.9" class="st7" width="52.5" height="5.7"/>
		<path class="st9" d="M238.6,295.8L238.6,295.8l-3.2,0.1v-0.1c0-1.6,0.6-3,1.6-3C238,292.9,238.6,294.2,238.6,295.8z"/>
		<path class="st9" d="M246.1,295.8L246.1,295.8l-3.2,0.1v-0.1c0-1.6,0.6-3,1.6-3C245.5,292.9,246.1,294.2,246.1,295.8z"/>
		<path class="st9" d="M253.6,295.8L253.6,295.8l-3.2,0.1v-0.1c0-1.6,0.6-3,1.6-3C253,292.9,253.6,294.2,253.6,295.8z"/>
		<path class="st9" d="M261,295.8L261,295.8l-3.2,0.1v-0.1c0-1.6,0.6-3,1.6-3C260.5,292.9,261,294.2,261,295.8z"/>
		<path class="st9" d="M268.5,295.8L268.5,295.8l-3.2,0.1v-0.1c0-1.6,0.6-3,1.6-3C268,292.9,268.5,294.2,268.5,295.8z"/>
		<path class="st9" d="M276,295.8L276,295.8l-3.2,0.1v-0.1c0-1.6,0.6-3,1.6-3C275.3,292.9,276,294.2,276,295.8z"/>
		<path class="st9" d="M283.5,295.8L283.5,295.8l-3.2,0.1v-0.1c0-1.6,0.6-3,1.6-3C282.8,292.9,283.5,294.2,283.5,295.8z"/>
	</g>
	<g>
		<rect x="285.5" y="289.9" class="st7" width="38.1" height="5.7"/>
		<path class="st9" d="M290.9,295.8L290.9,295.8l-3.2,0.1v-0.1c0-1.6,0.6-3,1.6-3C290.3,292.9,290.9,294.2,290.9,295.8z"/>
		<path class="st9" d="M298.4,295.8L298.4,295.8l-3.2,0.1v-0.1c0-1.6,0.6-3,1.6-3C297.8,292.9,298.4,294.2,298.4,295.8z"/>
		<path class="st9" d="M305.9,295.8L305.9,295.8l-3.2,0.1v-0.1c0-1.6,0.6-3,1.6-3C305.3,292.9,305.9,294.2,305.9,295.8z"/>
		<path class="st9" d="M313.4,295.8L313.4,295.8l-3.2,0.1v-0.1c0-1.6,0.6-3,1.6-3C312.7,292.9,313.4,294.2,313.4,295.8z"/>
		<path class="st9" d="M320.9,295.8L320.9,295.8l-3.2,0.1v-0.1c0-1.6,0.6-3,1.6-3C320.2,292.9,320.9,294.2,320.9,295.8z"/>
	</g>
	<rect x="192.1" y="283.2" class="st6" width="0.7" height="5.1"/>
	<rect x="221.9" y="283.2" class="st6" width="0.7" height="5.1"/>
	<rect x="251.7" y="283.2" class="st6" width="0.7" height="5.1"/>
	<rect x="281.6" y="283.2" class="st6" width="0.7" height="5.1"/>
	<rect x="311.6" y="283.2" class="st6" width="0.7" height="5.1"/>
	<rect x="253.1" y="250" class="st12" width="12.2" height="8.7"/>
	<path class="st4" d="M286.3,393.5v-45.7c0-18.9-15.5-34.4-34.4-34.4s-34.4,15.5-34.4,34.4v45.7H286.3z"/>
	<path class="st5" d="M268,393.5v-1v-0.1V357c0-7.7-6.6-13.3-14.3-13.3h-3.6c-7.7,0-14.3,5.4-14.3,13.3v35.2v1.3H268z"/>
	<path class="st7" d="M263.9,393.5v-0.1v-35.2c0-5.5-4.5-10-10-10h-3.6c-5.5,0-10,4.5-10,10v35.2v0.1H263.9z"/>
	<g>
		<rect x="224.4" y="357" class="st10" width="9" height="14.9"/>
		<rect x="270.3" y="357" class="st10" width="9" height="14.9"/>
	</g>
	<rect x="235.8" y="327.9" class="st10" width="32.1" height="10"/>
	<ellipse class="st10" cx="252.1" cy="343.5" rx="5.3" ry="3.7"/>
	<rect x="133.6" y="262.1" class="st8" width="4.8" height="1.2"/>
	<rect x="149.7" y="279.1" class="st8" width="4.8" height="1.2"/>
	<rect x="152.2" y="280.7" class="st8" width="4.8" height="1.2"/>
	<rect x="161.2" y="272" class="st8" width="4.8" height="1.2"/>
	<rect x="170" y="320.4" class="st8" width="4.8" height="1.2"/>
	<rect x="175.1" y="320.4" class="st8" width="4.8" height="1.2"/>
	<rect x="172.7" y="318.9" class="st8" width="4.8" height="1.2"/>
	<rect x="148.4" y="348.8" class="st8" width="4.8" height="1.2"/>
	<rect x="153.4" y="348.8" class="st8" width="4.8" height="1.2"/>
	<rect x="151.1" y="347.3" class="st8" width="4.8" height="1.2"/>
	<rect x="170.2" y="380.4" class="st8" width="4.8" height="1.2"/>
	<rect x="175.2" y="380.4" class="st8" width="4.8" height="1.2"/>
	<rect x="172.9" y="379.1" class="st8" width="4.8" height="1.2"/>
	<rect x="160.9" y="323.9" class="st8" width="4.8" height="1.2"/>
	<rect x="158.5" y="322.5" class="st8" width="4.8" height="1.2"/>
	<rect x="158.5" y="307.6" class="st8" width="4.8" height="1.2"/>
	<rect x="147.7" y="296.9" class="st8" width="4.8" height="1.2"/>
	<rect x="148.7" y="298.6" class="st8" width="4.8" height="1.2"/>
	<rect x="323.6" y="232.5" class="st10" width="13" height="160.9"/>
	<rect x="358.7" y="232.5" class="st11" width="13" height="160.9"/>
	<rect x="336.7" y="232.5" class="st9" width="22.1" height="160.9"/>
	<rect x="321.6" y="290.8" class="st7" width="52.4" height="2"/>
	<polygon class="st2" points="323.6,232.2 347.7,169.9 336.7,232.2 	"/>
	<polygon class="st4" points="371.9,232.2 347.7,169.9 358.7,232.2 	"/>
	<polygon class="st3" points="336.7,232.2 358.7,232.2 347.7,169.9 	"/>
	<rect x="321.6" y="232.1" class="st7" width="52.4" height="2"/>
	<path class="st6" d="M345.2,246.8V242c0-1.7,0.9-3.2,2.5-3.2c1.5,0,2.5,1.4,2.5,3.2v4.7H345.2z"/>
	<path class="st6" d="M363.4,246.8V242c0-1.7,0.9-3.2,2.5-3.2s2.5,1.4,2.5,3.2v4.7H363.4z"/>
	<g>
		<rect x="321.6" y="251.3" class="st7" width="52.4" height="4"/>
		<path class="st10" d="M329.2,255.3v0.1h-3.5v-0.1c0-1,0.8-2,1.7-2C328.4,253.2,329.2,254.1,329.2,255.3z"/>
		<path class="st10" d="M336.1,255.3v0.1h-3.5v-0.1c0-1,0.8-2,1.7-2C335.3,253.2,336.1,254.1,336.1,255.3z"/>
		<path class="st9" d="M343.1,255.3v0.1h-3.5v-0.1c0-1,0.8-2,1.7-2C342.2,253.2,343.1,254.1,343.1,255.3z"/>
		<path class="st9" d="M350,255.3v0.1h-3.5v-0.1c0-1,0.8-2,1.7-2C349.2,253.2,350,254.1,350,255.3z"/>
		<path class="st9" d="M355.7,255.3v0.1h-2.3v-0.1c0-1,0.2-2,1.2-2C355.5,253.2,355.7,254.1,355.7,255.3z"/>
		<path class="st11" d="M362.7,255.3v0.1h-2.3v-0.1c0-1,0.2-2,1.2-2C362.4,253.2,362.7,254.1,362.7,255.3z"/>
		<path class="st11" d="M369.6,255.3v0.1h-2.3v-0.1c0-1,0.2-2,1.2-2C369.4,253.2,369.6,254.1,369.6,255.3z"/>
	</g>
	<path class="st6" d="M327.1,246.8V242c0-1.7,0.9-3.2,2.5-3.2c1.5,0,2.5,1.4,2.5,3.2v4.7H327.1z"/>
	<rect x="366.2" y="269.3" class="st6" width="0.7" height="5.9"/>
	<rect x="347.3" y="269.3" class="st6" width="0.7" height="5.9"/>
	<rect x="329.4" y="269.3" class="st6" width="0.7" height="5.9"/>
	<rect x="366.2" y="309.5" class="st6" width="0.7" height="5.9"/>
	<rect x="347.3" y="309.5" class="st6" width="0.7" height="5.9"/>
	<rect x="329.4" y="309.5" class="st6" width="0.7" height="5.9"/>
	<rect x="366.2" y="337.7" class="st6" width="0.7" height="5.9"/>
	<rect x="347.3" y="337.7" class="st6" width="0.7" height="5.9"/>
	<rect x="329.4" y="337.7" class="st6" width="0.7" height="5.9"/>
	<rect x="366.2" y="365.8" class="st6" width="0.7" height="5.9"/>
	<rect x="347.3" y="365.8" class="st6" width="0.7" height="5.9"/>
	<rect x="329.4" y="365.8" class="st6" width="0.7" height="5.9"/>
	<rect x="324.7" y="262.1" class="st8" width="4.8" height="1.2"/>
	<rect x="341" y="279.1" class="st8" width="4.8" height="1.2"/>
	<rect x="343.3" y="280.7" class="st8" width="4.8" height="1.2"/>
	<rect x="352.3" y="272" class="st8" width="4.8" height="1.2"/>
	<rect x="325.2" y="304.9" class="st8" width="4.8" height="1.2"/>
	<rect x="330.3" y="304.9" class="st8" width="4.8" height="1.2"/>
	<rect x="327.8" y="303.5" class="st8" width="4.8" height="1.2"/>
	<rect x="339.6" y="348.8" class="st8" width="4.8" height="1.2"/>
	<rect x="344.7" y="348.8" class="st8" width="4.8" height="1.2"/>
	<rect x="361.4" y="380.4" class="st8" width="4.8" height="1.2"/>
	<rect x="364" y="379.1" class="st8" width="4.8" height="1.2"/>
	<rect x="352.1" y="323.9" class="st8" width="4.8" height="1.2"/>
	<rect x="349.6" y="322.5" class="st8" width="4.8" height="1.2"/>
	<rect x="349.6" y="307.6" class="st8" width="4.8" height="1.2"/>
	<rect x="360.9" y="295.6" class="st8" width="4.8" height="1.2"/>
	<rect x="361.9" y="297.2" class="st8" width="4.8" height="1.2"/>
</g>
<g>
	<g>
		<path class="st4" d="M719.2,291.6C719.2,291.5,719.2,291.5,719.2,291.6c0-7.3-12.5-13-27.8-13s-27.8,5.8-27.8,12.9v0.1
			L719.2,291.6L719.2,291.6z"/>
		<rect x="661.4" y="291.6" class="st5" width="55.5" height="20.9"/>
		<rect x="661.4" y="291.6" class="st3" width="39.1" height="3"/>
	</g>
	<g>
		<polygon class="st5" points="915.5,269.8 915.5,269.8 915.5,174 920.1,145.3 920.1,134.7 922.4,134.7 922.4,145.3 927,174 
			927,269.8 		"/>
		<polygon class="st5" points="927,269.8 915.5,269.8 910,301.8 932.4,301.8 		"/>
		<rect x="909.8" y="301.8" class="st5" width="22.6" height="31.3"/>
		<rect x="909.4" y="300.8" class="st3" width="23.6" height="1"/>
		<rect x="915" y="266.5" class="st3" width="12.3" height="1"/>
		<rect x="915" y="212.1" class="st3" width="12.3" height="1"/>
		<rect x="915" y="174" class="st6" width="12.3" height="1"/>
		<rect x="915" y="200.3" class="st3" width="12.3" height="6"/>
		<polygon class="st6" points="920.1,145.3 922.4,145.3 927,174 915.5,174 		"/>
	</g>
	<g>
		<polygon class="st2" points="889.2,274.3 889.2,274.2 889.2,178.5 893.8,149.8 893.8,139.2 896.1,139.2 896.1,149.8 900.6,178.5 
			900.6,274.2 		"/>
		<polygon class="st2" points="900.6,274.2 889.2,274.2 883.5,306.3 906.1,306.3 		"/>
		<rect x="883.6" y="306.2" class="st2" width="22.6" height="31.3"/>
		<rect x="883" y="305.3" class="st4" width="23.6" height="1"/>
		<rect x="888.6" y="270.9" class="st4" width="12.3" height="1"/>
		<rect x="888.6" y="216.5" class="st4" width="12.3" height="1"/>
		<rect x="888.6" y="178.4" class="st4" width="12.3" height="1"/>
		<rect x="888.6" y="204.8" class="st4" width="12.3" height="6"/>
		<polygon class="st12" points="893.8,149.8 896.1,149.8 900.6,178.5 889.2,178.5 		"/>
	</g>
	<g>
		<path class="st4" d="M819.3,291.6C819.3,291.5,819.3,291.5,819.3,291.6c0-7.3,12.5-13,27.8-13c15.3,0,27.8,5.8,27.8,12.9v0.1
			L819.3,291.6L819.3,291.6z"/>
		<rect x="821.6" y="291.5" class="st5" width="55.5" height="20.9"/>
		<rect x="837.9" y="291.5" class="st3" width="39.1" height="3"/>
	</g>
	<polygon class="st2" points="769.2,325.3 707,325.3 707,338.7 769.2,338.7 831.5,338.7 831.5,325.3 	"/>
	<polygon class="st10" points="767.6,341.9 578.4,341.9 578.4,392.7 767.6,392.7 956.7,392.7 956.7,341.9 	"/>
	<path class="st5" d="M773.7,214c0.2-2.2-1.3-3.9-1.7-4.5c-1-1.2-2.1-1.7-2.8-2c-0.7,0.2-1.8,0.8-3,2.1c-0.5,0.6-2.2,2.2-2.1,4.3
		c0.1,2.2,3.3,4.3,4.5,5v0.8h0.7h-0.1h0.1h-0.7v-0.8C771,218.2,773.5,216.2,773.7,214z"/>
	<rect x="625.3" y="320.7" class="st3" width="289.6" height="11.8"/>
	<polyline class="st2" points="595,331.5 577.8,338.9 577.8,343.4 614.3,343.4 614.3,331.5 595,331.5 	"/>
	<polygon class="st5" points="768.2,194.5 768.2,194.5 768.2,209.7 770.2,209.7 770.2,194.5 770.2,194.5 	"/>
	<path class="st4" d="M769.5,212.5c-0.1,0-0.1,0-0.2,0c-0.1,0-0.1,0-0.2,0c-30.3,0-54.9,22.6-54.9,50.6c0,0.1,0,0.3,0,0.3h55.1l0,0
		h55.1c0,0,0-0.2,0-0.3C824.4,235.2,799.8,212.5,769.5,212.5z"/>
	<polygon class="st10" points="769.2,264.5 707,264.5 707,315.2 769.2,315.2 831.5,315.2 831.5,264.5 	"/>
	<path class="st4" d="M769.2,281.7L769.2,281.7L769.2,281.7c-27.7,0-50.2,12.2-50.9,26.4h50.9h50.9
		C819.4,293.9,796.9,281.7,769.2,281.7z"/>
	<polygon class="st2" points="924.1,343.4 924.1,333.6 939.7,333.6 941.3,333.6 941.3,331.5 956.6,338.9 956.6,343.4 	"/>
	<polygon class="st2" points="771.9,331.5 602.2,331.5 602.2,343.4 771.9,343.4 941.4,343.4 941.4,331.5 	"/>
	<polygon class="st2" points="698,309.6 644.1,309.6 644.1,322.3 698,322.3 751.4,322.3 751.4,309.6 	"/>
	<polygon class="st3" points="769.2,261.2 706.4,261.2 706.4,265.8 769.2,265.8 832.1,265.8 832.1,261.2 	"/>
	<polygon class="st2" points="840.5,309.6 894.4,309.6 894.4,322.3 840.5,322.3 787.1,322.3 787.1,309.6 	"/>
	<polygon class="st10" points="769.2,311.4 707,311.4 707,325.3 769.2,325.3 831.5,325.3 831.5,311.4 	"/>
	<polygon class="st5" points="768.2,194.5 769.2,191.3 770.2,194.5 	"/>
	<path class="st13" d="M720.3,322.2V318c0-1.5,0.8-2.8,2.2-2.8c1.4,0,2.2,1.3,2.2,2.8v4.2H720.3z"/>
	<path class="st13" d="M735.8,322.2V318c0-1.5,0.8-2.8,2.2-2.8s2.2,1.3,2.2,2.8v4.2H735.8z"/>
	<path class="st13" d="M751.5,322.2V318c0-1.5,0.8-2.8,2.2-2.8s2.2,1.3,2.2,2.8v4.2H751.5z"/>
	<path class="st13" d="M767,322.2V318c0-1.5,0.8-2.8,2.2-2.8s2.2,1.3,2.2,2.8v4.2H767z"/>
	<path class="st13" d="M782.6,322.2V318c0-1.5,0.8-2.8,2.2-2.8s2.2,1.3,2.2,2.8v4.2H782.6z"/>
	<path class="st13" d="M798.2,322.2V318c0-1.5,0.8-2.8,2.2-2.8s2.2,1.3,2.2,2.8v4.2H798.2z"/>
	<path class="st13" d="M813.8,322.2V318c0-1.5,0.8-2.8,2.2-2.8s2.2,1.3,2.2,2.8v4.2H813.8z"/>
	<path class="st13" d="M720.3,277.6v-6.1c0-2.3,0.8-4.2,2.2-4.2c1.4,0,2.2,1.8,2.2,4.2v6.1H720.3z"/>
	<path class="st13" d="M735.8,277.6v-6.1c0-2.3,0.8-4.2,2.2-4.2s2.2,1.8,2.2,4.2v6.1H735.8z"/>
	<path class="st13" d="M751.5,277.6v-6.1c0-2.3,0.8-4.2,2.2-4.2s2.2,1.8,2.2,4.2v6.1H751.5z"/>
	<path class="st13" d="M767,277.6v-6.1c0-2.3,0.8-4.2,2.2-4.2s2.2,1.8,2.2,4.2v6.1H767z"/>
	<path class="st13" d="M782.6,277.6v-6.1c0-2.3,0.8-4.2,2.2-4.2s2.2,1.8,2.2,4.2v6.1H782.6z"/>
	<path class="st13" d="M798.2,277.6v-6.1c0-2.3,0.8-4.2,2.2-4.2s2.2,1.8,2.2,4.2v6.1H798.2z"/>
	<path class="st13" d="M813.8,277.6v-6.1c0-2.3,0.8-4.2,2.2-4.2s2.2,1.8,2.2,4.2v6.1H813.8z"/>
	<polygon class="st3" points="769.2,276.2 706.4,276.2 706.4,281.9 769.2,281.9 832.1,281.9 832.1,276.2 	"/>
	<g>
		<polygon class="st2" points="649.3,274.3 649.3,274.2 649.3,178.5 644.7,149.8 644.7,139.2 642.4,139.2 642.4,149.8 637.9,178.5 
			637.9,274.2 		"/>
		<polygon class="st2" points="637.9,274.2 649.3,274.2 654.9,306.3 632.3,306.3 		"/>
		<rect x="632.3" y="306.3" class="st2" width="22.6" height="31.3"/>
		<rect x="631.8" y="305.2" class="st4" width="23.6" height="1"/>
		<rect x="637.4" y="271" class="st4" width="12.3" height="1"/>
		<rect x="637.4" y="216.5" class="st4" width="12.3" height="1"/>
		<rect x="637.4" y="178.5" class="st4" width="12.3" height="1"/>
		<rect x="637.4" y="204.7" class="st4" width="12.3" height="6"/>
		<polygon class="st12" points="644.7,149.8 642.4,149.8 637.9,178.5 649.3,178.5 		"/>
	</g>
	<g>
		<polygon class="st5" points="623,269.8 622.9,269.8 622.9,174 618.4,145.3 618.4,134.7 616.1,134.7 616.1,145.3 611.5,174 
			611.5,269.8 		"/>
		<polygon class="st5" points="611.5,269.8 622.9,269.8 628.5,301.8 606,301.8 		"/>
		<rect x="606" y="301.8" class="st5" width="22.6" height="31.3"/>
		<rect x="605.5" y="300.9" class="st3" width="23.6" height="1"/>
		<rect x="611.1" y="266.5" class="st3" width="12.3" height="1"/>
		<rect x="611.1" y="212" class="st3" width="12.3" height="1"/>
		<rect x="611.1" y="174" class="st6" width="12.3" height="1"/>
		<rect x="611.1" y="200.3" class="st3" width="12.3" height="6"/>
		<polygon class="st6" points="618.4,145.3 616.1,145.3 611.5,174 622.9,174 		"/>
	</g>
	<g>
		<g>
			<path class="st14" d="M606.6,364.4v-10.7c0-3.7-2.9-6.8-6.3-6.8c-3.5,0-6.3,3.1-6.3,6.8v10.7H606.6z"/>
			<path class="st13" d="M595.5,363.3v-8.9c0-3.3,1.8-6,4.7-6c2.9,0,4.7,2.8,4.7,6v8.9H595.5z"/>
			<path class="st15" d="M596.1,363.3h8.9v-8.8c0-1.5-0.3-2.9-1-3.9L596.1,363.3z"/>
		</g>
		<g>
			<path class="st14" d="M631.3,364.4v-10.7c0-3.7-2.9-6.8-6.3-6.8c-3.5,0-6.3,3.1-6.3,6.8v10.7H631.3z"/>
			<path class="st13" d="M620.2,363.3v-8.9c0-3.3,1.8-6,4.7-6c2.9,0,4.7,2.8,4.7,6v8.9H620.2z"/>
			<path class="st15" d="M620.9,363.3h8.9v-8.8c0-1.5-0.3-2.9-1-3.9L620.9,363.3z"/>
		</g>
		<g>
			<path class="st14" d="M656.1,364.4v-10.7c0-3.7-2.9-6.8-6.3-6.8c-3.5,0-6.3,3.1-6.3,6.8v10.7H656.1z"/>
			<path class="st13" d="M644.9,363.3v-8.9c0-3.3,1.8-6,4.7-6s4.7,2.8,4.7,6v8.9H644.9z"/>
			<path class="st15" d="M645.6,363.3h8.9v-8.8c0-1.5-0.3-2.9-1-3.9L645.6,363.3z"/>
		</g>
	</g>
	<polygon class="st10" points="707.6,275.3 696.3,275.3 696.3,275.3 692.5,275.3 692.5,339.2 711.5,339.2 711.5,275.3 	"/>
	<rect x="695.2" y="315.3" class="st8" width="13.6" height="76.9"/>
	<path class="st4" d="M702,267.2L702,267.2L702,267.2c-5.2,0-9.3,3.9-9.5,8.4h9.5h9.5C711.3,271.1,707.2,267.2,702,267.2z"/>
	<g>
		<polygon class="st10" points="576.2,279.8 576.2,279.8 576.2,186.7 571.8,158.8 571.8,148.4 569.5,148.4 569.5,158.8 565.1,186.7 
			565.1,279.8 		"/>
		<polygon class="st10" points="565.1,279.8 576.2,279.8 581.7,310.9 559.7,310.9 		"/>
		<rect x="559.7" y="310.9" class="st10" width="21.9" height="82.1"/>
		<rect x="559.2" y="309.9" class="st2" width="23" height="1"/>
		<rect x="564.7" y="276.5" class="st2" width="12" height="1"/>
		<rect x="564.7" y="223.6" class="st2" width="12" height="1"/>
		<rect x="564.7" y="186.7" class="st6" width="12" height="1"/>
		<rect x="564.7" y="212.2" class="st2" width="12" height="5.9"/>
		<polygon class="st4" points="571.8,158.8 569.5,158.8 565.1,186.7 576.2,186.7 		"/>
	</g>
	<g>
		<path class="st4" d="M680.3,317.8L680.3,317.8L680.3,317.8c-7.2,0-12.8,6.6-13,13h13h13C693.1,324.4,687.3,317.8,680.3,317.8z"/>
		<polygon class="st10" points="679.2,333 664.2,333 664.2,351.7 679.2,351.7 695.4,351.7 695.4,333 		"/>
		<polygon class="st3" points="680.3,330.8 663.1,330.8 663.1,335.2 680.3,335.2 696.5,335.2 696.5,330.8 		"/>
		<path class="st13" d="M668.4,342.4v-2.3c0-0.8,0.6-1.5,1.5-1.5s1.5,0.7,1.5,1.5v2.3H668.4z"/>
		<path class="st13" d="M674.9,342.4v-2.3c0-0.8,0.6-1.5,1.5-1.5c0.9,0,1.5,0.7,1.5,1.5v2.3H674.9z"/>
		<path class="st13" d="M681.6,342.4v-2.3c0-0.8,0.6-1.5,1.5-1.5c0.9,0,1.5,0.7,1.5,1.5v2.3H681.6z"/>
		<path class="st13" d="M688.2,342.4v-2.3c0-0.8,0.6-1.5,1.5-1.5c0.9,0,1.5,0.7,1.5,1.5v2.3H688.2z"/>
	</g>
	<g>
		<g>
			<path class="st14" d="M931.9,364.4v-10.7c0-3.7,2.9-6.8,6.3-6.8s6.3,3.1,6.3,6.8v10.7H931.9z"/>
			<path class="st13" d="M942.9,363.3v-8.9c0-3.3-1.8-6-4.7-6s-4.7,2.8-4.7,6v8.9H942.9z"/>
			<path class="st15" d="M942.3,363.3h-8.9v-8.8c0-1.5,0.3-2.9,1-3.9L942.3,363.3z"/>
		</g>
		<g>
			<path class="st14" d="M907.2,364.4v-10.7c0-3.7,2.9-6.8,6.3-6.8c3.5,0,6.3,3.1,6.3,6.8v10.7H907.2z"/>
			<path class="st13" d="M918.3,363.3v-8.9c0-3.3-1.8-6-4.7-6c-2.9,0-4.7,2.8-4.7,6v8.9H918.3z"/>
			<path class="st15" d="M917.6,363.3h-8.9v-8.8c0-1.5,0.3-2.9,1-3.9L917.6,363.3z"/>
		</g>
		<g>
			<path class="st14" d="M882.4,364.4v-10.7c0-3.7,2.9-6.8,6.3-6.8s6.3,3.1,6.3,6.8v10.7H882.4z"/>
			<path class="st13" d="M893.6,363.3v-8.9c0-3.3-1.8-6-4.7-6c-2.9,0-4.7,2.8-4.7,6v8.9H893.6z"/>
			<path class="st15" d="M892.9,363.3H884v-8.8c0-1.5,0.3-2.9,1-3.9L892.9,363.3z"/>
		</g>
	</g>
	<polygon class="st10" points="830.8,275.3 842.1,275.3 842.1,275.3 845.9,275.3 845.9,339.2 827,339.2 827,275.3 	"/>
	<rect x="829.6" y="315.4" class="st8" width="13.6" height="76.9"/>
	<path class="st4" d="M836.5,267.2L836.5,267.2L836.5,267.2c5.2,0,9.3,3.9,9.5,8.4h-9.5H827C827.1,271.1,831.3,267.2,836.5,267.2z"
		/>
	<g>
		<polygon class="st10" points="961.2,279.8 961.2,279.8 961.2,186.7 965.7,158.8 965.7,148.4 967.9,148.4 967.9,158.8 972.4,186.7 
			972.4,279.8 		"/>
		<polygon class="st10" points="972.4,279.8 961.2,279.8 955.7,310.9 977.7,310.9 		"/>
		<rect x="955.7" y="310.9" class="st10" width="21.9" height="82.1"/>
		<rect x="955.3" y="310" class="st2" width="23" height="1"/>
		<rect x="960.7" y="276.6" class="st2" width="12" height="1"/>
		<rect x="960.7" y="223.7" class="st2" width="12" height="1"/>
		<rect x="960.7" y="186.6" class="st6" width="12" height="1"/>
		<rect x="960.7" y="212.1" class="st2" width="12" height="5.9"/>
		<polygon class="st4" points="965.7,158.8 967.9,158.8 972.4,186.7 961.2,186.7 		"/>
	</g>
	<g>
		<path class="st4" d="M858.6,317.5L858.6,317.5L858.6,317.5c7.2,0,12.8,6.6,13,13h-13h-13C845.8,323.9,851.6,317.5,858.6,317.5z"/>
		<polygon class="st10" points="859.8,332.7 874.8,332.7 874.8,339.2 859.8,339.2 843.6,339.2 843.6,332.7 		"/>
		<polygon class="st3" points="858.6,330.5 875.8,330.5 875.8,334.9 858.6,334.9 842.5,334.9 842.5,330.5 		"/>
		<path class="st13" d="M870.5,338.3v-1.5c0-0.6-0.3-1-1-1s-1,0.5-1,1v1.5H870.5z"/>
		<path class="st13" d="M863.4,338.3v-1.5c0-0.6-0.3-1-1-1s-1,0.5-1,1v1.5H863.4z"/>
		<path class="st13" d="M856.1,338.3v-1.5c0-0.6-0.3-1-1-1c-0.6,0-1,0.5-1,1v1.5H856.1z"/>
		<path class="st13" d="M848.8,338.3v-1.5c0-0.6-0.3-1-1-1c-0.7,0-1,0.5-1,1v1.5H848.8z"/>
	</g>
	<g>
		<g>
			<path class="st14" d="M724.9,342v-5.5c0-2-1.5-3.5-3.2-3.5c-1.8,0-3.2,1.6-3.2,3.5v5.5H724.9z"/>
			<path class="st13" d="M719.2,341.3v-4.6c0-1.7,0.9-3.1,2.4-3.1c1.5,0,2.4,1.4,2.4,3.1v4.6H719.2z"/>
			<path class="st15" d="M719.5,341.3h4.5v-4.5c0-0.8-0.1-1.5-0.5-2.1L719.5,341.3z"/>
		</g>
		<g>
			<path class="st14" d="M737.6,342v-5.5c0-2-1.5-3.5-3.2-3.5c-1.8,0-3.2,1.6-3.2,3.5v5.5H737.6z"/>
			<path class="st13" d="M731.9,341.3v-4.6c0-1.7,0.9-3.1,2.4-3.1c1.5,0,2.4,1.4,2.4,3.1v4.6H731.9z"/>
			<path class="st15" d="M732.2,341.3h4.5v-4.5c0-0.8-0.1-1.5-0.5-2.1L732.2,341.3z"/>
		</g>
		<g>
			<path class="st14" d="M803.5,342.2v-5.5c0-2-1.5-3.5-3.2-3.5c-1.8,0-3.2,1.6-3.2,3.5v5.5H803.5z"/>
			<path class="st13" d="M797.7,341.5v-4.6c0-1.7,0.9-3.1,2.4-3.1c1.5,0,2.4,1.4,2.4,3.1v4.6H797.7z"/>
			<path class="st15" d="M798.1,341.5h4.5V337c0-0.8-0.1-1.5-0.5-2.1L798.1,341.5z"/>
		</g>
		<g>
			<path class="st14" d="M816,342.2v-5.5c0-2-1.5-3.5-3.2-3.5c-1.8,0-3.2,1.6-3.2,3.5v5.5H816z"/>
			<path class="st13" d="M810.3,341.5v-4.6c0-1.7,0.9-3.1,2.4-3.1c1.5,0,2.4,1.4,2.4,3.1v4.6H810.3z"/>
			<path class="st15" d="M810.6,341.5h4.5V337c0-0.8-0.1-1.5-0.5-2.1L810.6,341.5z"/>
		</g>
	</g>
	<polygon class="st3" points="769.2,307.3 706.4,307.3 706.4,311.9 769.2,311.9 832.1,311.9 832.1,307.3 	"/>
	<g>
		<path class="st4" d="M769.1,326.4L769.1,326.4L769.1,326.4c-12.7,0-23.1,10.8-23.3,21.7h23.3h23.3
			C792.2,337.2,781.8,326.4,769.1,326.4z"/>
		<polygon class="st10" points="767.2,349.5 740.3,349.5 740.3,360.4 767.2,360.4 796.2,360.4 796.2,349.5 		"/>
		<polygon class="st3" points="769.1,348 738.3,348 738.3,349.6 769.1,349.6 798.2,349.6 798.2,348 		"/>
		<polygon class="st3" points="769.1,360.4 740.3,360.4 740.3,367.6 769.1,367.6 796.2,367.6 796.2,360.4 		"/>
		<path class="st13" d="M750,357v-2.5c0-0.9,0.6-1.7,1.5-1.7c0.9,0,1.5,0.8,1.5,1.7v2.5H750z"/>
		<path class="st13" d="M760.6,357v-2.5c0-0.9,0.6-1.7,1.5-1.7c0.9,0,1.5,0.8,1.5,1.7v2.5H760.6z"/>
		<path class="st13" d="M771.2,357v-2.5c0-0.9,0.6-1.7,1.5-1.7c0.9,0,1.5,0.8,1.5,1.7v2.5H771.2z"/>
		<path class="st13" d="M781.9,357v-2.5c0-0.9,0.6-1.7,1.5-1.7s1.5,0.8,1.5,1.7v2.5H781.9z"/>
		<polygon class="st10" points="767.2,363.5 740.3,363.5 740.3,386.1 767.2,386.1 796.2,386.1 796.2,363.5 		"/>
	</g>
	<path class="st4" d="M836.5,308.7L836.5,308.7L836.5,308.7c3.7,0,6.7,3.1,6.8,6.7h-6.8h-6.8C829.8,311.7,832.8,308.7,836.5,308.7z"
		/>
	<path class="st4" d="M702,308.7L702,308.7L702,308.7c-3.7,0-6.7,3.1-6.8,6.7h6.8h6.8C708.7,311.7,705.7,308.7,702,308.7z"/>
</g>
<g>
	<g>
		<polygon class="st16" points="1215.8,334.4 1215.8,334.4 1215.8,334.4 1215.8,334.4 1215.8,334.4 1174.7,334.4 1174.7,338.1 
			1215.8,338.1 1220.5,338.1 		"/>
		<path class="st16" d="M1215.1,334.4L1215.1,334.4L1215.1,334.4z"/>
	</g>
	<rect x="1108.9" y="265.5" class="st10" width="46.9" height="114.9"/>
	<rect x="1106.5" y="288.9" class="st13" width="9.7" height="68.9"/>
	<rect x="1108.9" y="265.5" class="st13" width="9.8" height="20.1"/>
	<rect x="1181.5" y="338.1" class="st5" width="38.1" height="42.1"/>
	<g>
		<polygon class="st16" points="1070.2,347.1 1070.2,347.1 1070.2,347.1 1070.2,347.1 1070.2,347.1 1100.8,347.1 1100.8,354.6 
			1070.2,354.6 1066.7,354.6 		"/>
		<path class="st16" d="M1070.6,347.1L1070.6,347.1L1070.6,347.1z"/>
	</g>
	<rect x="1114.8" y="335.1" class="st5" width="66.7" height="45.1"/>
	<polygon class="st16" points="1148.1,318 1181.9,335.1 1114.3,335.1 	"/>
	<rect x="1094" y="354.6" class="st10" width="34.6" height="25.6"/>
	<polygon class="st2" points="1108.7,342.7 1133.9,354.6 1083.5,354.6 	"/>
	<rect x="1083.5" y="354.6" class="st17" width="11.4" height="25.6"/>
	<rect x="1073.7" y="354.6" class="st5" width="10.4" height="25.6"/>
	<rect x="1127.3" y="340.4" class="st2" width="4.8" height="6.7"/>
	<rect x="1140.4" y="340.4" class="st2" width="4.8" height="6.7"/>
	<rect x="1153.4" y="340.4" class="st2" width="4.8" height="6.7"/>
	<rect x="1166.6" y="340.4" class="st2" width="4.8" height="6.7"/>
	<rect x="1107.5" y="261.3" class="st2" width="49.4" height="1.2"/>
	<rect x="1108.9" y="265.5" class="st2" width="46.9" height="1.2"/>
	<rect x="1101" y="357.7" class="st2" width="20.3" height="11.5"/>
	<polygon class="st5" points="1100.2,288.7 1110.8,299.9 1114.9,291.6 1135.6,299.7 1155.9,291.9 1155.9,297.7 1162.8,288.7 	"/>
	<path class="st13" d="M1144.6,244.5c-3.1-4.7-3.1-12-3.1-12h-9.1h-9.1c0,0,0,7.3-3.1,12c-9.7,8.2-9.1,16.8-9.1,16.8h21.5h21.5
		C1153.7,261.3,1154.2,252.6,1144.6,244.5z"/>
	<polygon class="st10" points="1155.9,265.5 1108.9,265.5 1107.5,262.5 1156.9,262.5 	"/>
	<polygon class="st13" points="1116.2,265.5 1108.9,265.5 1107.5,262.5 1116.2,262.5 	"/>
	<rect x="1121.6" y="226.7" class="st2" width="21.3" height="5.8"/>
	<g>
		<rect x="1128.3" y="220.9" class="st2" width="8.2" height="10.5"/>
		<polygon class="st2" points="1131.1,217.9 1128.3,220.9 1136.5,220.9 1133.7,217.9 		"/>
		<polygon class="st2" points="1133.7,217.9 1131.1,217.9 1131.6,165.3 1133.1,165.3 		"/>
		<rect x="1129" y="164.3" class="st2" width="6.5" height="1"/>
		<path class="st2" d="M1132.3,157c-1,0-2.8,1.7-2.8,4.2c0,1.5,0.7,3.5,1.5,3.5h1.4h1.4c0.8,0,1.5-2,1.5-3.5
			C1135.1,158.8,1133.4,157,1132.3,157z"/>
		<path class="st2" d="M1133.3,157.7h-1.8c-0.2,0-0.3-0.1-0.3-0.3l0.2-6.9c0-0.2,0.8-0.9,1-0.9l0,0c0.2,0,1,0.8,1,0.9l0.3,6.9
			C1133.7,157.6,1133.5,157.7,1133.3,157.7z"/>
		<path class="st2" d="M1132.3,150L1132.3,150c-0.2,0-0.3-0.1-0.3-0.3v-11.8c0-0.2,0.1-0.3,0.3-0.3l0,0c0.2,0,0.3,0.1,0.3,0.3v11.8
			C1132.7,149.8,1132.6,150,1132.3,150z"/>
	</g>
	<path class="st2" d="M1135.6,165v12c0,0,8.9,2.7,11,1.2c2.1-1.5-0.7-4.3-0.7-4.3l-1.3-0.7c0,0-0.2-2.9-3.1-4.4
		C1138.6,167.3,1135.6,165,1135.6,165z"/>
	<rect x="1018.5" y="380.2" class="st2" width="227.7" height="13.5"/>
	<rect x="1124.4" y="271" class="st5" width="8.7" height="14.3"/>
	<rect x="1111.7" y="271" class="st2" width="4.3" height="14.3"/>
	<rect x="1142.3" y="271" class="st5" width="8.7" height="14.3"/>
	<rect x="1100" y="282.1" class="st16" width="62.7" height="6.8"/>
</g>
<g>
	
		<rect x="128.7" y="359.6" transform="matrix(0.8162 -0.5777 0.5777 0.8162 -182.8487 147.1366)" class="st6" width="22.3" height="2.8"/>
	
		<rect x="121.4" y="348" transform="matrix(0.8162 -0.5777 0.5777 0.8162 -176.734 143.0896)" class="st6" width="30.3" height="2.8"/>
	
		<rect x="110.5" y="337.8" transform="matrix(0.8162 -0.5777 0.5777 0.8162 -172.863 134.905)" class="st6" width="30.3" height="2.8"/>
	
		<rect x="120" y="340.6" transform="matrix(0.7285 -0.685 0.685 0.7285 -210.8047 179.7533)" class="st6" width="2.8" height="30.6"/>
	<rect x="129.9" y="365.3" class="st6" width="2.8" height="27.6"/>
	<path class="st4" d="M128.1,346.8h-24.2c-3.1,0-5.8-2.5-5.8-5.8l0,0c0-3.1,2.5-5.8,5.8-5.8h24.2c3.1,0,5.8,2.5,5.8,5.8l0,0
		C133.7,344.2,131.2,346.8,128.1,346.8z"/>
	<path class="st4" d="M156.9,343.7h-18.1c-1.6,0-3-1.4-3-3l0,0c0-1.6,1.4-3,3-3h18.1c1.6,0,3,1.4,3,3l0,0
		C159.9,342.3,158.5,343.7,156.9,343.7z"/>
	<path class="st18" d="M157.6,358.1h-23.6c-2.9,0-5.2-2.3-5.2-5.2l0,0c0-2.9,2.3-5.2,5.2-5.2h23.6c2.9,0,5.2,2.3,5.2,5.2l0,0
		C162.8,355.8,160.5,358.1,157.6,358.1z"/>
	<path class="st18" d="M146.7,333.3h-28.1c-3,0-5.5-2.5-5.5-5.5l0,0c0-3,2.5-5.5,5.5-5.5h28.1c3,0,5.5,2.5,5.5,5.5l0,0
		C152.4,330.8,149.9,333.3,146.7,333.3z"/>
</g>
<g>
	<path class="st7" d="M1214.1,380.2h9.1c2.3-2.2,3.9-4.3,3.9-6.9c0-4-3.8-7.7-8.4-7.7s-8.4,3.8-8.4,7.8
		C1210.3,376.2,1211.8,378,1214.1,380.2z"/>
	<path class="st12" d="M1218.3,365.7v14.6h5.1c2.5-2,4-3.9,4-6.7C1227.5,369.3,1224.4,365.7,1218.3,365.7z"/>
</g>
<g>
	<path class="st7" d="M1207.8,380.2h6c1.5-1.5,2.5-2.9,2.5-4.6c0-2.7-2.5-5.1-5.7-5.1c-3.1,0-5.7,2.5-5.7,5.2
		C1205.1,377.6,1206.2,378.7,1207.8,380.2z"/>
	<path class="st12" d="M1210.2,370.5v9.7h3.7c1.7,0,2.5-2.5,2.5-4.4C1216.4,372.9,1214.2,370.6,1210.2,370.5z"/>
</g>
<g>
	<path class="st7" d="M1097,380.2h5.5c1.5-1.5,3-2.9,3-4.6c0-2.7-2.5-5.1-5.7-5.1c-3.1,0-5.7,2.5-5.7,5.2
		C1094.5,377.6,1095.5,378.7,1097,380.2z"/>
	<path class="st12" d="M1099.6,370.5v9.7h2.7c1.7,0,3.6-2.5,3.6-4.4C1105.8,372.9,1103.6,370.6,1099.6,370.5z"/>
</g>
<g>
	<polygon class="st19" points="1078,260.3 1078,383.7 987.5,383.7 987.5,260.6 1033.6,238.3 1044.9,244 	"/>
	<rect x="980.5" y="380.8" class="st5" width="104.3" height="12.9"/>
	<rect x="985.3" y="325" class="st20" width="95" height="4.7"/>
	<rect x="1010.6" y="376.1" class="st19" width="9.2" height="4.3"/>
	<rect x="1006" y="371.3" class="st19" width="9.2" height="4.3"/>
	<rect x="1001" y="376.1" class="st19" width="9.2" height="4.3"/>
	<rect x="996.3" y="371.3" class="st19" width="9.2" height="4.3"/>
	<rect x="985.3" y="328.9" class="st19" width="95" height="4.7"/>
	<rect x="989.5" y="374.8" class="st14" width="28.7" height="3.1"/>
	<rect x="989.5" y="377.9" class="st20" width="28.7" height="3.1"/>
	<rect x="987.1" y="381.1" class="st14" width="33.6" height="3.1"/>
	<rect x="987.1" y="384.3" class="st20" width="33.6" height="3.1"/>
	<rect x="984.8" y="387.4" class="st14" width="38.2" height="3.1"/>
	<rect x="984.8" y="390.6" class="st20" width="38.2" height="3.1"/>
	
		<linearGradient id="SVGID_1_" gradientUnits="userSpaceOnUse" x1="1032.7366" y1="-229.9524" x2="1032.7366" y2="-219.5903" gradientTransform="matrix(1 0 0 -1 0 114.11)">
		<stop  offset="0" style="stop-color:#FFFFFF"/>
		<stop  offset="1" style="stop-color:#F49758;stop-opacity:0.4"/>
	</linearGradient>
	<rect x="987.5" y="333.7" class="st21" width="90.5" height="10.4"/>
	<rect x="992" y="338.6" class="st22" width="23.9" height="36.2"/>
	<rect x="993.3" y="339.9" class="st14" width="21" height="34.9"/>
	<circle class="st20" cx="996.6" cy="356.2" r="1.2"/>
	<polygon class="st20" points="1014.3,374.8 1014.3,339.8 1010,339.8 993.3,374.8 	"/>
	<g>
		<rect x="1021.5" y="338.5" class="st22" width="22.7" height="30.5"/>
		<rect x="1022.9" y="339.8" class="st14" width="19.8" height="27.6"/>
		<polygon class="st20" points="1023.1,367.4 1042.7,367.4 1042.7,339.8 1038.8,339.8 		"/>
		<rect x="1032.2" y="338.5" class="st22" width="1.3" height="30.5"/>
		<rect x="1022" y="353" class="st22" width="21.6" height="1.5"/>
	</g>
	<g>
		<rect x="1049.4" y="338.5" class="st22" width="22.7" height="30.5"/>
		<rect x="1050.9" y="339.8" class="st14" width="19.8" height="27.6"/>
		<polygon class="st20" points="1051,367.4 1070.6,367.4 1070.6,339.8 1066.8,339.8 		"/>
		<rect x="1060.1" y="338.5" class="st22" width="1.3" height="30.5"/>
		<rect x="1050" y="353" class="st22" width="21.6" height="1.5"/>
	</g>
	<g>
		<rect x="1021.5" y="292.4" class="st22" width="22.7" height="30.5"/>
		<rect x="1022.9" y="293.7" class="st14" width="19.8" height="27.6"/>
		<polygon class="st20" points="1023,321.3 1042.7,321.3 1042.7,293.7 1038.8,293.7 		"/>
		<rect x="1032.1" y="292.4" class="st22" width="1.3" height="30.5"/>
		<rect x="1022.1" y="307" class="st22" width="21.6" height="1.5"/>
	</g>
	<g>
		<rect x="1021.4" y="265.9" class="st22" width="22.7" height="18.9"/>
		<rect x="1022.8" y="267.2" class="st14" width="19.8" height="16.4"/>
		<polygon class="st20" points="1023,283.6 1042.6,283.6 1042.6,267.2 1038.8,267.2 		"/>
		<rect x="1032" y="265.9" class="st22" width="1.5" height="18.9"/>
		<rect x="1022" y="274.7" class="st22" width="21.6" height="1.5"/>
	</g>
	<g>
		<rect x="1049.3" y="292.4" class="st22" width="22.7" height="30.5"/>
		<rect x="1050.8" y="293.7" class="st14" width="19.8" height="27.6"/>
		<polygon class="st20" points="1050.9,321.3 1070.6,321.3 1070.6,293.7 1066.7,293.7 		"/>
		<rect x="1060" y="292.4" class="st22" width="1.3" height="30.5"/>
		<rect x="1050" y="306.9" class="st22" width="21.6" height="1.5"/>
	</g>
	<g>
		<rect x="993.6" y="292.4" class="st22" width="22.7" height="30.5"/>
		<rect x="995" y="293.8" class="st14" width="19.8" height="27.6"/>
		<polygon class="st20" points="995.2,321.3 1014.8,321.3 1014.8,293.7 1010.9,293.7 		"/>
		<rect x="1004.3" y="292.4" class="st22" width="1.3" height="30.5"/>
		<rect x="994.2" y="306.9" class="st22" width="21.6" height="1.5"/>
	</g>
	
		<linearGradient id="SVGID_2_" gradientUnits="userSpaceOnUse" x1="1032.8519" y1="-162.4527" x2="1032.8519" y2="-133.912" gradientTransform="matrix(1 0 0 -1 0 114.11)">
		<stop  offset="0" style="stop-color:#B42725"/>
		<stop  offset="0.1384" style="stop-color:#B42B29"/>
		<stop  offset="0.2759" style="stop-color:#B43635"/>
		<stop  offset="0.4129" style="stop-color:#B34849"/>
		<stop  offset="0.5498" style="stop-color:#B36265"/>
		<stop  offset="0.6867" style="stop-color:#B38389"/>
		<stop  offset="0.8235" style="stop-color:#B2ACB5"/>
		<stop  offset="0.9579" style="stop-color:#B1DCE8"/>
		<stop  offset="1" style="stop-color:#B1ECFA"/>
	</linearGradient>
	<path class="st23" d="M1078.1,270.6v5.9l-45.3-22l-45.2,22v-5.9c16.1-7.5,30.6-15.1,45.9-22.6
		C1048.4,255.5,1064.1,263.1,1078.1,270.6z"/>
	<polygon class="st24" points="1078,259.6 1044.6,243.3 1033,237.7 987.5,259.9 978,264.5 978,275.7 987.5,271.1 1033,249 
		1078,270.9 1088.8,276.2 1088.8,264.9 	"/>
</g>
<g>
	<polygon class="st19" points="497,386.1 448.4,386.1 448.4,281.6 472.4,281.1 497,281.6 	"/>
	<polygon class="st19" points="448.4,387.1 399.7,387.1 399.7,295.2 423.7,294.9 448.4,295.2 	"/>
	<rect x="396" y="386.1" class="st5" width="104.5" height="6.9"/>
	<rect x="412.1" y="383.6" class="st19" width="5" height="2.3"/>
	<rect x="409.7" y="381" class="st19" width="5" height="2.3"/>
	<rect x="407" y="383.6" class="st19" width="5" height="2.3"/>
	<rect x="404.4" y="381" class="st19" width="5" height="2.3"/>
	<rect x="400.8" y="382.9" class="st14" width="15.5" height="1.7"/>
	<rect x="400.8" y="384.6" class="st20" width="15.5" height="1.7"/>
	<rect x="399.5" y="386.2" class="st14" width="18" height="1.7"/>
	<rect x="399.5" y="387.9" class="st20" width="18" height="1.7"/>
	<rect x="398.3" y="389.7" class="st14" width="20.5" height="1.7"/>
	<rect x="398.3" y="391.4" class="st20" width="20.5" height="1.7"/>
	<rect x="402.1" y="363.4" class="st22" width="12.8" height="19.5"/>
	<rect x="402.8" y="364.1" class="st14" width="11.3" height="18.8"/>
	<circle class="st20" cx="404.6" cy="372.8" r="0.6"/>
	<polygon class="st20" points="414.2,382.9 414.2,364.1 411.8,364.1 402.9,382.9 	"/>
	<g>
		<rect x="418" y="363.4" class="st22" width="12.2" height="16.4"/>
		<rect x="418.8" y="364" class="st14" width="10.6" height="14.9"/>
		<polygon class="st20" points="418.8,378.8 429.4,378.8 429.4,364.1 427.4,364.1 		"/>
		<rect x="423.8" y="363.4" class="st22" width="0.7" height="16.4"/>
		<rect x="418.3" y="371.1" class="st22" width="11.6" height="0.8"/>
	</g>
	<g>
		<rect x="433" y="363.4" class="st22" width="12.2" height="16.4"/>
		<rect x="433.8" y="364.1" class="st14" width="10.6" height="14.9"/>
		<polygon class="st20" points="433.8,378.8 444.4,378.8 444.4,364.1 442.4,364.1 		"/>
		<rect x="438.8" y="363.4" class="st22" width="0.7" height="16.4"/>
		<rect x="433.4" y="371.2" class="st22" width="11.6" height="0.8"/>
	</g>
	<g>
		<rect x="418" y="337.9" class="st22" width="12.2" height="16.4"/>
		<rect x="418.8" y="338.5" class="st14" width="10.6" height="14.9"/>
		<polygon class="st20" points="418.8,353.3 429.4,353.3 429.4,338.6 427.3,338.6 		"/>
		<rect x="423.7" y="337.9" class="st22" width="0.7" height="16.4"/>
		<rect x="418.3" y="345.6" class="st22" width="11.6" height="0.8"/>
	</g>
	<g>
		<rect x="433" y="337.9" class="st22" width="12.2" height="16.4"/>
		<rect x="433.8" y="338.5" class="st14" width="10.6" height="14.9"/>
		<polygon class="st20" points="433.8,353.3 444.4,353.3 444.4,338.6 442.2,338.6 		"/>
		<rect x="438.7" y="337.9" class="st22" width="0.7" height="16.4"/>
		<rect x="433.3" y="345.6" class="st22" width="11.6" height="0.8"/>
	</g>
	<g>
		<rect x="403" y="337.9" class="st22" width="12.2" height="16.4"/>
		<rect x="403.8" y="338.5" class="st14" width="10.6" height="14.9"/>
		<polygon class="st20" points="403.8,353.3 414.5,353.3 414.5,338.6 412.3,338.6 		"/>
		<rect x="408.7" y="337.9" class="st22" width="0.7" height="16.4"/>
		<rect x="403.3" y="345.6" class="st22" width="11.6" height="0.8"/>
	</g>
	<g>
		<rect x="418" y="312.6" class="st22" width="12.2" height="16.4"/>
		<rect x="418.8" y="313.3" class="st14" width="10.6" height="14.9"/>
		<polygon class="st20" points="418.8,328.2 429.4,328.2 429.4,313.3 427.3,313.3 		"/>
		<rect x="423.7" y="312.6" class="st22" width="0.7" height="16.4"/>
		<rect x="418.2" y="320.4" class="st22" width="11.6" height="0.8"/>
	</g>
	<g>
		<rect x="433" y="312.6" class="st22" width="12.2" height="16.4"/>
		<rect x="433.8" y="313.3" class="st14" width="10.6" height="14.9"/>
		<polygon class="st20" points="433.8,328.2 444.4,328.2 444.4,313.3 442.2,313.3 		"/>
		<rect x="438.7" y="312.6" class="st22" width="0.7" height="16.4"/>
		<rect x="433.3" y="320.4" class="st22" width="11.6" height="0.8"/>
	</g>
	<g>
		<rect x="403" y="312.6" class="st22" width="12.2" height="16.4"/>
		<rect x="403.8" y="313.3" class="st14" width="10.6" height="14.9"/>
		<polygon class="st20" points="403.8,328.2 414.5,328.2 414.5,313.3 412.3,313.3 		"/>
		<rect x="408.7" y="312.6" class="st22" width="0.7" height="16.4"/>
		<rect x="403.2" y="320.4" class="st22" width="11.6" height="0.8"/>
	</g>
	<rect x="399.7" y="287.4" class="st6" width="48.7" height="21.9"/>
	<rect x="447.8" y="287" class="st4" width="0.7" height="22.3"/>
	<rect x="399.7" y="287" class="st4" width="48.7" height="0.7"/>
	<rect x="399.7" y="308.6" class="st4" width="48.7" height="0.7"/>
	<rect x="399.7" y="287" class="st4" width="0.7" height="22.3"/>
	<rect x="453.1" y="380.1" class="st19" width="5" height="2.7"/>
	<g>
		<rect x="466.7" y="358.9" class="st22" width="12.2" height="18.6"/>
		<rect x="467.5" y="359.7" class="st14" width="10.6" height="16.8"/>
		<polygon class="st20" points="467.5,376.5 478.1,376.5 478.1,359.7 476,359.7 		"/>
		<rect x="472.5" y="358.9" class="st22" width="0.7" height="18.6"/>
		<rect x="466.9" y="367.8" class="st22" width="11.6" height="0.9"/>
	</g>
	<g>
		<rect x="451.6" y="358.9" class="st22" width="12.2" height="18.6"/>
		<rect x="452.5" y="359.7" class="st14" width="10.6" height="16.8"/>
		<polygon class="st20" points="452.5,376.5 463.1,376.5 463.1,359.7 460.9,359.7 		"/>
		<rect x="457.4" y="358.9" class="st22" width="0.7" height="18.6"/>
		<rect x="451.9" y="367.8" class="st22" width="11.6" height="0.9"/>
	</g>
	<g>
		<rect x="481.7" y="358.9" class="st22" width="12.2" height="18.6"/>
		<rect x="482.5" y="359.7" class="st14" width="10.6" height="16.8"/>
		<polygon class="st20" points="482.5,376.5 493.1,376.5 493.1,359.7 491,359.7 		"/>
		<rect x="487.5" y="358.9" class="st22" width="0.7" height="18.6"/>
		<rect x="481.9" y="367.7" class="st22" width="11.6" height="0.9"/>
	</g>
	<g>
		<rect x="466.7" y="329.9" class="st22" width="12.2" height="18.6"/>
		<rect x="467.5" y="330.6" class="st14" width="10.6" height="16.8"/>
		<polygon class="st20" points="467.5,347.6 478.1,347.6 478.1,330.7 475.9,330.7 		"/>
		<rect x="472.4" y="329.9" class="st22" width="0.7" height="18.6"/>
		<rect x="466.9" y="338.8" class="st22" width="11.6" height="0.9"/>
	</g>
	<g>
		<rect x="481.7" y="329.9" class="st22" width="12.2" height="18.6"/>
		<rect x="482.5" y="330.6" class="st14" width="10.6" height="16.8"/>
		<polygon class="st20" points="482.5,347.6 493.1,347.6 493.1,330.7 490.9,330.7 		"/>
		<rect x="487.3" y="329.9" class="st22" width="0.7" height="18.6"/>
		<rect x="481.9" y="338.8" class="st22" width="11.6" height="0.9"/>
	</g>
	<g>
		<rect x="451.7" y="329.9" class="st22" width="12.2" height="18.6"/>
		<rect x="452.6" y="330.7" class="st14" width="10.6" height="16.8"/>
		<polygon class="st20" points="452.5,347.6 463.1,347.6 463.1,330.7 461,330.7 		"/>
		<rect x="457.5" y="329.9" class="st22" width="0.7" height="18.6"/>
		<rect x="452" y="338.7" class="st22" width="11.6" height="0.9"/>
	</g>
	<g>
		<rect x="466.7" y="302.5" class="st22" width="12.2" height="18.6"/>
		<rect x="467.5" y="303.2" class="st14" width="10.6" height="16.8"/>
		<polygon class="st20" points="467.5,320.1 478.1,320.1 478.1,303.3 475.9,303.3 		"/>
		<rect x="472.4" y="302.5" class="st22" width="0.7" height="18.6"/>
		<rect x="466.9" y="311.3" class="st22" width="11.6" height="0.9"/>
	</g>
	<g>
		<rect x="481.7" y="302.5" class="st22" width="12.2" height="18.6"/>
		<rect x="482.5" y="303.2" class="st14" width="10.6" height="16.8"/>
		<polygon class="st20" points="482.5,320.1 493.1,320.1 493.1,303.3 490.9,303.3 		"/>
		<rect x="487.3" y="302.5" class="st22" width="0.7" height="18.6"/>
		<rect x="481.9" y="311.3" class="st22" width="11.6" height="0.9"/>
	</g>
	<g>
		<rect x="451.7" y="302.5" class="st22" width="12.2" height="18.6"/>
		<rect x="452.5" y="303.2" class="st14" width="10.6" height="16.8"/>
		<polygon class="st20" points="452.5,320.1 463.1,320.1 463.1,303.3 460.9,303.3 		"/>
		<rect x="457.4" y="302.5" class="st22" width="0.7" height="18.6"/>
		<rect x="451.9" y="311.3" class="st22" width="11.6" height="0.9"/>
	</g>
	<rect x="448.4" y="272.5" class="st6" width="48.7" height="24.9"/>
	<rect x="496.5" y="272.1" class="st4" width="0.7" height="25.4"/>
	<rect x="448.4" y="296.6" class="st4" width="48.7" height="0.8"/>
	<rect x="448.4" y="272.1" class="st4" width="0.7" height="25.4"/>
</g>
<g>
	<polygon class="st19" points="562,393 495.2,393 495.2,255.2 528.2,249 562,256.8 	"/>
	<g>
		<rect x="504.8" y="270.5" class="st22" width="19.6" height="19.6"/>
		<rect x="506" y="271.4" class="st14" width="17.2" height="17.8"/>
		<polygon class="st20" points="506.1,289.2 523.1,289.2 523.1,271.3 519.8,271.3 		"/>
		<rect x="514" y="270.5" class="st22" width="1" height="19.6"/>
		<rect x="505.3" y="279.9" class="st22" width="18.7" height="0.9"/>
	</g>
	<g>
		<rect x="533.1" y="270.6" class="st22" width="19.6" height="19.6"/>
		<rect x="534.4" y="271.6" class="st14" width="17.2" height="17.8"/>
		<polygon class="st20" points="534.4,289.3 551.5,289.3 551.5,271.6 548.1,271.6 		"/>
		<rect x="542.4" y="270.6" class="st22" width="1" height="19.6"/>
		<rect x="533.7" y="280.1" class="st22" width="18.7" height="0.9"/>
	</g>
	<g>
		<rect x="499.6" y="300.4" class="st22" width="22.5" height="30.2"/>
		<rect x="501.1" y="301.4" class="st14" width="19.6" height="27.9"/>
		<polygon class="st20" points="501.2,329.2 520.7,329.2 520.7,301.3 516.8,301.3 		"/>
		<rect x="510.2" y="300.4" class="st22" width="1.3" height="29.4"/>
		<rect x="500.1" y="305.1" class="st22" width="21.5" height="1"/>
		<rect x="500.1" y="321.4" class="st22" width="21.5" height="1"/>
	</g>
	<g>
		<rect x="526.4" y="335.1" class="st22" width="30.2" height="22.5"/>
		<rect x="528.3" y="336.5" class="st14" width="26.5" height="19.6"/>
		<polygon class="st20" points="533.8,356.1 554.8,356.1 554.8,336.5 550.7,336.5 		"/>
		<rect x="527.2" y="339.7" class="st22" width="29.4" height="1.3"/>
		<rect x="527.2" y="350.1" class="st22" width="29.4" height="1.3"/>
		<rect x="550.9" y="335.6" class="st22" width="1" height="21.5"/>
		<rect x="534.5" y="335.6" class="st22" width="1" height="21.5"/>
	</g>
	<g>
		<rect x="526.4" y="300.3" class="st22" width="30.2" height="30.3"/>
		<rect x="528.3" y="301.6" class="st14" width="26.5" height="27.5"/>
		<polygon class="st20" points="533.8,329 554.8,329 554.8,301.6 550.7,301.6 		"/>
		<rect x="541" y="300.3" class="st22" width="1" height="30.3"/>
		<rect x="527.2" y="305.2" class="st22" width="28.8" height="1"/>
		<rect x="527.3" y="321.5" class="st22" width="28.8" height="1"/>
	</g>
	
		<linearGradient id="SVGID_3_" gradientUnits="userSpaceOnUse" x1="528.5233" y1="-151.5714" x2="528.5233" y2="-130.5147" gradientTransform="matrix(1 0 0 -1 0 114.11)">
		<stop  offset="0" style="stop-color:#B42725"/>
		<stop  offset="0.1384" style="stop-color:#B42B29"/>
		<stop  offset="0.2759" style="stop-color:#B43635"/>
		<stop  offset="0.4129" style="stop-color:#B34849"/>
		<stop  offset="0.5498" style="stop-color:#B36265"/>
		<stop  offset="0.6867" style="stop-color:#B38389"/>
		<stop  offset="0.8235" style="stop-color:#B2ACB5"/>
		<stop  offset="0.9579" style="stop-color:#B1DCE8"/>
		<stop  offset="1" style="stop-color:#B1ECFA"/>
	</linearGradient>
	<path class="st25" d="M562,261.3v4.4l-33.4-16.3l-33.4,16.3v-4.4c11.9-5.5,22.6-11.2,33.9-16.7C540.1,250.2,551.6,255.8,562,261.3z
		"/>
	<polygon class="st24" points="561.9,253.7 537.2,241.7 528.8,237.5 495.1,253.9 488.5,257.1 488.5,265.5 495.1,262.2 528.8,245.8 
		561.9,262 568.8,265.3 568.8,257 	"/>
	<g>
		<rect x="499.6" y="388.4" class="st14" width="21.2" height="2.3"/>
		<rect x="499.6" y="390.7" class="st20" width="21.2" height="2.3"/>
		<rect x="501.3" y="361.6" class="st22" width="17.6" height="26.8"/>
		<rect x="502.5" y="362.6" class="st14" width="15.5" height="25.8"/>
		<circle class="st20" cx="504.9" cy="374.7" r="0.8"/>
		<polygon class="st20" points="517.9,388.4 517.9,362.6 514.7,362.6 502.5,388.4 		"/>
	</g>
	<g>
		<rect x="499.6" y="335" class="st22" width="6.5" height="6.5"/>
		<rect x="500.4" y="335.8" class="st26" width="5" height="5"/>
	</g>
	<g>
		<rect x="508.6" y="335" class="st22" width="6.5" height="6.5"/>
		<rect x="509.3" y="335.8" class="st26" width="5" height="5"/>
	</g>
</g>
<g>
	<path class="st19" d="M915.8,537.2L915.8,537.2c-8.1,0-14.8-6.6-14.8-14.8l0,0c0-8.1,6.6-14.8,14.8-14.8l0,0
		c8.1,0,14.8,6.6,14.8,14.8l0,0C930.6,530.6,924,537.2,915.8,537.2z"/>
	<path class="st19" d="M863.2,521.4v2.3c0,7.5-6.6,13.1-14.1,13.1H730.7c-1.8,0-2.5-0.1-4.2-0.8c-5-2.1-7.5-6.7-7.5-12.3v-2.3
		c0-7.5,4.2-14.5,11.6-14.5h118.6c1.2,0,2.3,0.7,3.3,0.9c4.7,1.3,8.8,5.2,9.9,9.9C862.9,518.9,863.2,520.2,863.2,521.4z"/>
	<path class="st19" d="M799.8,422.7h-15.7c-10.8,0-19.7,5.8-19.7,13.3s8.9,13.3,19.7,13.3h339.7c1,0,2.1-0.1,3.1,0
		c2.8,0.5,5.2,1.3,7.3,2.5c1,0.7,3.1,1.4,3.9,2.2c2.7,2.5,5.3,5.8,5.3,9.2v1.8c0,7.5-9.7,12-19.7,12H262c-2.9,0-5.5,0-8-0.7
		c-0.2,0-0.3-0.1-0.6-0.1c-0.6-0.2-1.3-0.5-1.7-0.8c-1.5-0.8-2.8-1.4-3.8-2.4c-0.9-0.9-0.8-1.7-1.4-2.9c-0.8-1.6-0.3-3.1-0.3-5v-1.8
		c0-7.5,5.9-14,15.8-14h110.8c10,0,16.3-6.3,16.3-13.8l0,0c0-7.5-6.3-15-16.3-15H17.4c-2.3,0-3.9,0.3-5.8-0.5
		c-5.7-2.3-8.9-6.8-8.9-12v-1.8c0-7.5,6.8-13.4,16.7-13.4h1227c4.7,0,9.2,1.3,12.6,3.5l1.6,1.5c2.7,2.3,3.8,5.2,3.8,8.4v1.8
		c0,0.9,0,5.8-5,9.2c-4,2.9-8.3,3.2-9.7,3.2c-0.9,0.1-1.7,0-2.8,0c-0.7,0-1.2-0.1-1.7-0.1H807.9"/>
</g>
<g>
	<g>
		<line class="st27" x1="28.2" y1="405.9" x2="31.6" y2="405.9"/>
		<line class="st28" x1="40.9" y1="405.9" x2="1231.2" y2="405.9"/>
		<line class="st27" x1="1235.8" y1="405.9" x2="1239.3" y2="405.9"/>
	</g>
</g>
<g>
	<path class="st29" d="M740.8,399.2h-57c1.3-5.8,2.5-11.6,3.8-17.4c0.1-0.3,0.5-1,1.2-1.6c1-0.9,2.3-1.2,2.8-1.2h41.6
		c0.5,0,1.7,0.2,2.8,1.2c0.7,0.6,0.9,1.3,1,1.6C738.2,387.6,739.5,393.4,740.8,399.2z"/>
	<path class="st30" d="M686.5,398.4l3.2-15.6c0.1-0.2,0.3-1.4,0.6-1.5c0.5-0.3,0.9-1.4,1.3-1.4h41.3c0.3,0,0.8,0.7,1.3,1
		c0.2,0.2,0.3,1.4,0.5,1.6l3.3,15.8H686.5z"/>
	<path class="st29" d="M744.6,417.8h-78.9c-2.1,0-3.8-1.7-3.8-3.8v-14c0-2.1,1.7-3.8,3.8-3.8h78.9c2.1,0,3.8,1.7,3.8,3.8v14
		C748.4,416.1,746.6,417.8,744.6,417.8z"/>
	<rect x="712.3" y="379.5" class="st29" width="2" height="19.8"/>
	<path class="st4" d="M709.8,402.1h-3.5c-0.7,0-1.3-0.6-1.3-1.3l0,0c0-0.7,0.6-1.3,1.3-1.3h3.6c0.7,0,1.3,0.6,1.3,1.3l0,0
		C711.1,401.6,710.5,402.1,709.8,402.1z"/>
	<path class="st31" d="M667.2,400.9h-5.4v6.2h5.4c1.4,0,2.4-1.4,2.4-3.1C669.7,402.2,668.5,400.9,667.2,400.9z"/>
	<path class="st31" d="M744.6,407.1h3.8v-6.2h-3.8c-0.9,0-1.7,1.4-1.7,3.1C742.8,405.7,743.6,407.1,744.6,407.1z"/>
	<g>
		<path class="st4" d="M686.7,417.9c-0.5-5.4-4.8-9.6-10.4-9.6c-5.5,0-9.9,4.3-10.4,9.6H686.7z"/>
	</g>
	<g>
		<path class="st4" d="M744.3,417.9c-0.5-5.4-4.8-9.6-10.4-9.6s-9.9,4.3-10.4,9.6H744.3z"/>
	</g>
	<g>
		<circle class="st7" cx="676.3" cy="418.7" r="7.6"/>
		<circle class="st26" cx="676.3" cy="418.7" r="4.6"/>
	</g>
	<g>
		<circle class="st7" cx="733.9" cy="418.7" r="7.6"/>
		<circle class="st26" cx="733.9" cy="418.7" r="4.6"/>
	</g>
</g>
<g>
	<rect x="570.4" y="378.7" class="st7" width="2.7" height="14.3"/>
	<path class="st32" d="M587.5,367.6c0.7-1,1-2.3,1-3.7c0-3.9-3.2-7.2-7.2-7.2c-0.9,0-1.7,0.1-2.5,0.5c-0.8-3.1-3.6-5.4-6.9-5.4
		c-2.8,0-5.2,1.6-6.3,3.9c-0.8-0.2-1.6-0.5-2.4-0.5c-3.9,0-7.2,3.2-7.2,7.2c0,1.8,0.7,3.5,1.8,4.7c-1.7,1.3-2.8,3.3-2.8,5.7
		c0,3.9,3.2,7.2,7.2,7.2c0.7,0,1.4-0.1,2.1-0.3c2,1.7,4.5,2.7,7.4,2.7c3,0,5.8-1.2,7.8-3.1c0.9,0.5,2,0.7,3.1,0.7
		c3.9,0,7.2-3.2,7.2-7.2C589.8,370.9,588.8,369,587.5,367.6z"/>
	<path class="st6" d="M587.5,367.6c0.7-1,1-2.3,1-3.7c0-3.9-3.2-7.2-7.2-7.2c-0.9,0-1.7,0.1-2.5,0.5c-0.7-3-3.3-5.2-6.5-5.4v30.5
		c2.8-0.2,5.2-1.3,7-3.1c0.9,0.5,2,0.7,3.1,0.7c3.9,0,7.2-3.2,7.2-7.2C589.8,370.9,588.8,369,587.5,367.6z"/>
</g>
<g>
	<rect x="375.4" y="374.8" class="st7" width="3.3" height="18.2"/>
	<path class="st4" d="M397.3,360.6c0.8-1.4,1.4-3,1.4-4.7c0-5.1-4-9.1-9.1-9.1c-1.2,0-2.2,0.2-3.2,0.6c-1-3.9-4.5-6.9-8.8-6.9
		c-3.6,0-6.6,2.1-8.1,5c-0.9-0.3-2-0.6-3.1-0.6c-5.1,0-9.1,4-9.1,9.1c0,2.3,0.9,4.5,2.3,6.1c-2.2,1.6-3.6,4.3-3.6,7.2
		c0,5.1,4,9.1,9.1,9.1c0.9,0,1.7-0.1,2.7-0.3c2.5,2.2,5.8,3.5,9.3,3.5c3.9,0,7.4-1.5,9.9-4c1.2,0.6,2.5,0.9,3.9,0.9
		c5.1,0,9.1-4,9.1-9.1C400.1,364.6,399,362.3,397.3,360.6z"/>
	<path class="st6" d="M397.3,360.6c0.8-1.4,1.4-3,1.4-4.7c0-5.1-4-9.1-9.1-9.1c-1.2,0-2.2,0.2-3.2,0.6c-0.9-3.8-4.3-6.6-8.3-6.8
		v38.9c3.5-0.2,6.6-1.7,9-3.9c1.2,0.6,2.5,0.9,3.9,0.9c5.1,0,9.1-4,9.1-9.1C400.1,364.6,399,362.3,397.3,360.6z"/>
</g>
<g>
	<rect x="369.1" y="380.7" class="st6" width="2.3" height="12.3"/>
	<path class="st32" d="M383.8,371.2c0.6-0.9,0.9-2.1,0.9-3.2c0-3.3-2.8-6.1-6.1-6.1c-0.8,0-1.5,0.1-2.2,0.3c-0.7-2.7-3.1-4.6-6-4.6
		c-2.4,0-4.5,1.4-5.4,3.3c-0.7-0.2-1.4-0.3-2.1-0.3c-3.3,0-6.1,2.8-6.1,6.1c0,1.6,0.6,3,1.6,4c-1.5,1.2-2.4,2.9-2.4,4.8
		c0,3.3,2.8,6.1,6.1,6.1c0.6,0,1.2-0.1,1.7-0.2c1.7,1.5,3.9,2.3,6.3,2.3c2.7,0,5-1,6.7-2.7c0.8,0.3,1.7,0.6,2.7,0.6
		c3.3,0,6.1-2.8,6.1-6.1C385.7,373.9,385,372.3,383.8,371.2z"/>
	<path class="st4" d="M383.8,371.2c0.6-0.9,0.9-2.1,0.9-3.2c0-3.3-2.8-6.1-6.1-6.1c-0.8,0-1.5,0.1-2.2,0.3c-0.7-2.5-2.9-4.5-5.5-4.6
		v26.3c2.3-0.1,4.5-1.2,6.1-2.7c0.8,0.3,1.7,0.6,2.7,0.6c3.3,0,6.1-2.8,6.1-6.1C385.7,373.9,385,372.3,383.8,371.2z"/>
</g>
</svg>
