<svg xmlns="http://www.w3.org/2000/svg" xmlns:xlink="http://www.w3.org/1999/xlink" viewBox="0 0 1280 515.64"><defs><style>.cls-1,.cls-56,.cls-57{fill:none;}.cls-2{fill:#da0100;}.cls-3{fill:#8a0000;}.cls-4{fill:#971c1c;}.cls-5{fill:#cc8f8f;}.cls-6{fill:#fff;}.cls-7{fill:#e13433;}.cls-8{fill:#e96766;}.cls-9{fill:#3d3d3d;}.cls-10{fill:#213b5c;}.cls-11{fill:#475c78;}.cls-12{fill:#61748b;}.cls-13{fill:url(#linear-gradient);}.cls-14{fill:#1a1a1a;}.cls-15{fill:#202020;}.cls-16{fill:#df2524;}.cls-17,.cls-31{fill:#ebb162;}.cls-18{fill:#425874;}.cls-19{fill:url(#linear-gradient-2);}.cls-20{fill:url(#linear-gradient-3);}.cls-21{fill:url(#linear-gradient-4);}.cls-22{fill:#f1c891;}.cls-23{fill:url(#linear-gradient-5);}.cls-24{fill:url(#linear-gradient-6);}.cls-25{fill:url(#linear-gradient-7);}.cls-26{fill:#a63d3d;}.cls-27{fill:#e02c2b;}.cls-28{fill:#415947;}.cls-29{fill:#84e895;}.cls-30{fill:#9e2b2b;}.cls-31{opacity:0.5;}.cls-32{fill:#df2221;}.cls-33{fill:#e38620;}.cls-34{fill:url(#linear-gradient-8);}.cls-35{fill:#f3d632;}.cls-36{fill:#f1e6a0;}.cls-37{fill:#c3ebce;}.cls-38{fill:#a9efb5;}.cls-39{fill:#f4b5b5;}.cls-40,.cls-46{fill:#eb7878;}.cls-41{fill:#992121;}.cls-42{fill:#f8d1d1;}.cls-43{fill:#a74040;}.cls-44{fill:url(#linear-gradient-9);}.cls-45{clip-path:url(#clip-path);}.cls-46{opacity:0.75;}.cls-47{fill:#e33e3d;}.cls-48{fill:url(#linear-gradient-10);}.cls-49{clip-path:url(#clip-path-2);}.cls-50{clip-path:url(#clip-path-3);}.cls-51{fill:#5697fb;}.cls-52{fill:#fafdfb;}.cls-53{fill:#8795a7;}.cls-54{fill:#b6bec9;}.cls-55{fill:#4d4d4d;}.cls-56,.cls-57{stroke:#fff;stroke-linecap:round;stroke-linejoin:round;}.cls-57{stroke-dasharray:5.97 7.96;}.cls-58{fill:#e13130;}.cls-59{fill:#c27a7a;}</style><linearGradient id="linear-gradient" x1="440.19" y1="130.66" x2="440.19" y2="124.38" gradientUnits="userSpaceOnUse"><stop offset="0" stop-color="#61748b" stop-opacity="0"/><stop offset="0.18" stop-color="#5c7087" stop-opacity="0.08"/><stop offset="0.43" stop-color="#4e637d" stop-opacity="0.29"/><stop offset="0.74" stop-color="#384f6d" stop-opacity="0.65"/><stop offset="1" stop-color="#213b5c"/></linearGradient><linearGradient id="linear-gradient-2" x1="963.24" y1="277.52" x2="963.24" y2="223.89" gradientUnits="userSpaceOnUse"><stop offset="0.43" stop-color="#425874" stop-opacity="0"/><stop offset="0.64" stop-color="#435873" stop-opacity="0.01"/><stop offset="0.72" stop-color="#485671" stop-opacity="0.04"/><stop offset="0.78" stop-color="#51536d" stop-opacity="0.09"/><stop offset="0.82" stop-color="#5d4f66" stop-opacity="0.17"/><stop offset="0.86" stop-color="#6c4a5e" stop-opacity="0.27"/><stop offset="0.9" stop-color="#804455" stop-opacity="0.39"/><stop offset="0.93" stop-color="#973d49" stop-opacity="0.54"/><stop offset="0.96" stop-color="#b1343b" stop-opacity="0.71"/><stop offset="0.99" stop-color="#cf2a2c" stop-opacity="0.9"/><stop offset="1" stop-color="#df2524"/></linearGradient><linearGradient id="linear-gradient-3" x1="1004.54" y1="277.52" x2="1004.54" y2="223.89" xlink:href="#linear-gradient-2"/><linearGradient id="linear-gradient-4" x1="1044.23" y1="277.52" x2="1044.23" y2="223.89" xlink:href="#linear-gradient-2"/><linearGradient id="linear-gradient-5" x1="1004.54" y1="313.98" x2="1004.54" y2="289.31" gradientUnits="userSpaceOnUse"><stop offset="0.43" stop-color="#425874" stop-opacity="0"/><stop offset="0.48" stop-color="#475671" stop-opacity="0.03"/><stop offset="0.56" stop-color="#55526a" stop-opacity="0.12"/><stop offset="0.66" stop-color="#6c4a5f" stop-opacity="0.27"/><stop offset="0.77" stop-color="#8c404e" stop-opacity="0.47"/><stop offset="0.89" stop-color="#b5333a" stop-opacity="0.73"/><stop offset="1" stop-color="#df2524"/></linearGradient><linearGradient id="linear-gradient-6" x1="860.81" y1="372.98" x2="860.81" y2="313.98" gradientUnits="userSpaceOnUse"><stop offset="0" stop-color="#425874" stop-opacity="0"/><stop offset="0.1" stop-color="#475671" stop-opacity="0.03"/><stop offset="0.24" stop-color="#55526a" stop-opacity="0.12"/><stop offset="0.41" stop-color="#6c4a5f" stop-opacity="0.27"/><stop offset="0.6" stop-color="#8c404e" stop-opacity="0.47"/><stop offset="0.81" stop-color="#b5333a" stop-opacity="0.73"/><stop offset="1" stop-color="#df2524"/></linearGradient><linearGradient id="linear-gradient-7" x1="127.8" y1="372.98" x2="127.8" y2="313.98" gradientTransform="matrix(-1, 0, 0, 1, 1278.26, 0)" xlink:href="#linear-gradient-6"/><linearGradient id="linear-gradient-8" x1="635.52" y1="322.96" x2="635.52" y2="303.99" gradientUnits="userSpaceOnUse"><stop offset="0" stop-color="#9d2929" stop-opacity="0"/><stop offset="1" stop-color="#8a0000"/></linearGradient><linearGradient id="linear-gradient-9" x1="419.89" y1="360.09" x2="418.25" y2="357.25" gradientUnits="userSpaceOnUse"><stop offset="0" stop-color="#f8d1d1" stop-opacity="0"/><stop offset="0.15" stop-color="#f8d0d0" stop-opacity="0.01"/><stop offset="0.29" stop-color="#f7cccc" stop-opacity="0.06"/><stop offset="0.41" stop-color="#f6c5c5" stop-opacity="0.14"/><stop offset="0.53" stop-color="#f5bbbb" stop-opacity="0.24"/><stop offset="0.65" stop-color="#f3afaf" stop-opacity="0.38"/><stop offset="0.77" stop-color="#f1a0a0" stop-opacity="0.55"/><stop offset="0.88" stop-color="#ee8e8e" stop-opacity="0.76"/><stop offset="0.99" stop-color="#eb7979" stop-opacity="0.98"/><stop offset="1" stop-color="#eb7878"/></linearGradient><clipPath id="clip-path"><path class="cls-1" d="M415.65,344.1a4.4,4.4,0,0,0-1.72,4.15,23,23,0,0,0,3.42,9.74,3.35,3.35,0,0,0,1.83-.79,24.23,24.23,0,0,1-1.44-6.15c-.1-2.61.1-5.1-.79-5.38a1.54,1.54,0,0,0-.77-.13l0-1.21Z"/></clipPath><linearGradient id="linear-gradient-10" x1="969.59" y1="360.09" x2="967.96" y2="357.25" gradientTransform="matrix(-1, 0, 0, 1, 1433.26, 0)" xlink:href="#linear-gradient-9"/><clipPath id="clip-path-2"><path class="cls-1" d="M467.91,344.1a4.4,4.4,0,0,1,1.72,4.15,23,23,0,0,1-3.42,9.74,3.35,3.35,0,0,1-1.83-.79,24.23,24.23,0,0,0,1.44-6.15c.1-2.61-.1-5.1.79-5.38a1.54,1.54,0,0,1,.77-.13l0-1.21Z"/></clipPath><clipPath id="clip-path-3"><rect class="cls-1" x="6.77" y="286.49" width="243.8" height="100.9"/></clipPath></defs><title>hanoi_colour</title><g id="Layer_1" data-name="Layer 1"><rect class="cls-2" x="1122.07" y="306.05" width="7.42" height="65.53" transform="translate(-18.94 70.86) rotate(-3.58)"/><polygon class="cls-3" points="1131.7 374.05 1131.05 363.54 1123.64 364 1124.27 374.05 1131.7 374.05"/><polygon class="cls-2" points="1054.62 374.05 1050.18 303.12 1042.78 303.58 1047.18 374.05 1054.62 374.05"/><polygon class="cls-3" points="1054.62 374.05 1054.12 366.36 1046.71 366.82 1047.18 374.05 1054.62 374.05"/><rect class="cls-2" x="971.62" y="299.91" width="7.42" height="72.65" transform="translate(-27.66 94.7) rotate(-5.48)"/><polygon class="cls-3" points="982.69 374.05 981.91 365.85 974.52 366.56 975.24 374.05 982.69 374.05"/><rect class="cls-2" x="896.32" y="297.93" width="7.42" height="74.45" transform="translate(-16.19 47.19) rotate(-2.98)"/><polygon class="cls-3" points="905.77 374.05 905.37 366.65 897.96 367.04 898.33 374.05 905.77 374.05"/><rect class="cls-2" x="826.34" y="294.57" width="7.42" height="74.45" transform="translate(-16.11 43.55) rotate(-2.98)"/><polygon class="cls-3" points="835.97 374.05 835.63 367.63 828.22 368.02 828.53 374.05 835.97 374.05"/><rect class="cls-2" x="757.85" y="292.58" width="7.42" height="74.45" transform="translate(-3.01 7.05) rotate(-0.53)"/><polygon class="cls-3" points="765.69 374.05 765.61 365.86 758.18 365.93 758.26 374.05 765.69 374.05"/><rect class="cls-2" x="684.1" y="290.3" width="7.42" height="74.45" transform="translate(-10.33 22.64) rotate(-1.87)"/><polygon class="cls-3" points="693.06 374.05 692.71 363.47 685.28 363.71 685.63 374.05 693.06 374.05"/><rect class="cls-2" x="620.8" y="288.5" width="7.42" height="77.64" transform="translate(-10.36 20.57) rotate(-1.87)"/><polygon class="cls-3" points="629.76 374.05 629.48 365.75 622.06 365.99 622.33 374.05 629.76 374.05"/><rect class="cls-2" x="556.11" y="286.17" width="7.42" height="80.66" transform="matrix(1, -0.06, 0.06, 1, -19.67, 36.34)"/><polygon class="cls-3" points="566.58 374.05 566.1 366.51 558.69 366.98 559.14 374.05 566.58 374.05"/><rect class="cls-2" x="494.18" y="283.65" width="7.42" height="84.39" transform="translate(-18.02 29.36) rotate(-3.32)"/><polygon class="cls-3" points="504.42 374.08 503.92 365.31 496.5 365.74 496.98 374.08 504.42 374.08"/><rect class="cls-2" x="431.64" y="280.81" width="7.42" height="88.63" transform="translate(-42.06 65.67) rotate(-8.23)"/><polygon class="cls-3" points="446.16 374.05 445.01 365.91 437.66 366.98 438.66 374.05 446.16 374.05"/><rect class="cls-2" x="374.46" y="279.81" width="7.42" height="87.33" transform="translate(-42.41 57.47) rotate(-8.23)"/><polygon class="cls-3" points="389.22 374.05 387.84 364.33 380.49 365.39 381.72 374.05 389.22 374.05"/><rect class="cls-2" x="317.44" y="278.29" width="7.42" height="88.17" transform="translate(-42.84 49.3) rotate(-8.23)"/><polygon class="cls-3" points="332.37 374.05 331.13 365.47 323.79 366.54 324.87 374.05 332.37 374.05"/><polygon class="cls-2" points="266.07 298.42 258.57 298.42 268.42 366.54 275.77 365.47 266.07 298.42"/><polygon class="cls-3" points="277.01 374.05 275.77 365.47 268.42 366.54 269.51 374.05 277.01 374.05"/><polygon class="cls-2" points="223.48 298.42 215.98 298.42 225.83 366.54 233.18 365.47 223.48 298.42"/><polygon class="cls-3" points="234.45 374.05 233.18 365.47 225.83 366.54 226.95 374.05 234.45 374.05"/><polygon class="cls-4" points="452.3 374.05 461.98 298.67 454.64 297.34 444.79 374.05 452.3 374.05"/><polygon class="cls-5" points="452.3 374.05 452.86 369.75 445.47 368.72 444.79 374.05 452.3 374.05"/><polygon class="cls-4" points="511.99 373.99 504.65 372.66 514.88 292.66 522.22 293.99 511.99 373.99"/><polygon class="cls-4" points="575.63 368.06 568.29 366.73 578.52 286.74 585.86 288.06 575.63 368.06"/><polygon class="cls-5" points="511.97 374.05 513.06 365.63 505.72 364.3 504.46 374.05 511.97 374.05"/><polygon class="cls-5" points="574.88 374.05 575.8 366.72 568.46 365.39 567.38 374.05 574.88 374.05"/><polygon class="cls-4" points="640.49 369.58 633.15 368.25 643.38 288.25 650.72 289.58 640.49 369.58"/><polygon class="cls-5" points="639.93 374.05 640.66 368.24 633.33 366.91 632.42 374.05 639.93 374.05"/><rect class="cls-4" x="714.97" y="292.46" width="7.42" height="74.45" transform="translate(57.78 -104.37) rotate(8.65)"/><polygon class="cls-5" points="715.68 374.05 716.92 365.92 709.58 364.8 708.17 374.05 715.68 374.05"/><rect class="cls-4" x="786" y="295.65" width="7.42" height="74.45" transform="translate(59.07 -115.02) rotate(8.65)"/><polygon class="cls-5" points="787.2 374.05 787.95 369.1 780.62 367.99 779.69 374.05 787.2 374.05"/><rect class="cls-4" x="824.95" y="329.12" width="71.34" height="7.42" transform="translate(414.93 1140.8) rotate(-82.26)"/><polygon class="cls-5" points="858.7 374.05 859.5 368.68 852.14 367.68 851.21 374.05 858.7 374.05"/><polygon class="cls-4" points="933.62 373.38 926.14 373.73 932.73 299.58 940.13 300.23 933.62 373.38"/><polygon class="cls-5" points="933.57 374.05 934.1 368.03 926.71 367.37 926.11 374.05 933.57 374.05"/><rect class="cls-4" x="1006.56" y="297.75" width="7.42" height="74.45" transform="translate(33.63 -88.13) rotate(5.08)"/><polygon class="cls-5" points="1010.49 374.05 1010.94 369.44 1003.54 368.79 1003.03 374.05 1010.49 374.05"/><polygon class="cls-4" points="1089.84 374.05 1095.8 307.29 1088.41 306.63 1082.38 374.05 1089.84 374.05"/><polygon class="cls-5" points="1089.84 374.05 1090.43 367.69 1083.04 367.03 1082.38 374.05 1089.84 374.05"/><polygon class="cls-4" points="391.11 371.95 383.77 370.62 394 290.62 401.33 291.95 391.11 371.95"/><polygon class="cls-5" points="390.87 374.05 392.17 363.59 384.83 362.26 383.33 374.05 390.87 374.05"/><polygon class="cls-4" points="335.53 373.19 328.19 371.87 338.42 291.87 345.76 293.2 335.53 373.19"/><polygon class="cls-5" points="335.42 374.05 336.6 364.84 329.26 363.51 327.92 374.05 335.42 374.05"/><polygon class="cls-4" points="279.3 371.04 271.96 369.71 282.19 289.71 289.53 291.04 279.3 371.04"/><polygon class="cls-5" points="278.93 374.05 280.37 362.68 273.03 361.35 271.42 374.05 278.93 374.05"/><polygon class="cls-4" points="229.25 371.04 221.92 369.71 232.15 289.71 239.49 291.04 229.25 371.04"/><polygon class="cls-5" points="228.9 374.05 230.32 362.68 222.99 361.35 221.39 374.05 228.9 374.05"/><path class="cls-6" d="M1145.09,330.28c-173.37-25.55-291.62-36.78-506.14-42-278.41,0-446.45,28.61-446.45,28.61L117,316.73v9.05h75s279.53-34.3,447-30c66.08,1.62,123,3.9,175.24,6.89l171.62,14.11c50.69,5.6,101.94,12.19,159.21,20.77h91.8v-7.14Z"/><path class="cls-7" d="M1145.18,330.28c-173.37-25.55-291.67-36.78-506.19-42-278.41,0-446.53,28.61-446.53,28.61l-93.17-.12v9.72l92.63,0s279.53-34.63,447-30.31c66.08,1.62,123,3.74,175.24,6.72l171.62,14.32c50.69,5.6,101.94,12.46,159.21,21h111.76v-7.72Z"/><path class="cls-8" d="M1145.18,302.6C971.82,277,853.52,265.82,639,260.57c-278.41,0-446.53,28.61-446.53,28.61L99.29,289v27.68l93.7.13s240.19-28.61,446-28.61c66.08,1.62,123.5,3.84,175.73,6.82l155.82,12.77c50.69,5.6,117.37,13.91,174.64,22.43,91.53,0,111.53.16,111.53.16V302.76Z"/><rect class="cls-3" x="184.47" y="341.26" width="7.52" height="32.79"/><rect class="cls-2" x="184.47" y="326.32" width="7.52" height="33.1"/><rect class="cls-3" x="141.88" y="341.26" width="7.52" height="32.79"/><rect class="cls-2" x="141.88" y="326.32" width="7.52" height="33.1"/><rect class="cls-3" x="99.29" y="341.26" width="7.52" height="32.79"/><rect class="cls-2" x="99.29" y="326.32" width="7.52" height="33.1"/><rect class="cls-5" x="1249.2" y="341.26" width="7.52" height="32.79"/><rect class="cls-2" x="1249.2" y="326.32" width="7.52" height="33.1"/><rect class="cls-5" x="1206.61" y="341.26" width="7.52" height="32.79"/><rect class="cls-2" x="1206.61" y="326.32" width="7.52" height="33.1"/><rect class="cls-5" x="1164.02" y="341.26" width="7.52" height="32.79"/><rect class="cls-2" x="1164.02" y="326.32" width="7.52" height="33.1"/><rect class="cls-9" x="340.33" y="119.07" width="200.59" height="126.99"/><rect class="cls-10" x="285.67" y="238.23" width="309.03" height="15.65"/><rect class="cls-11" x="244.6" y="253.88" width="391.17" height="120.17"/><rect class="cls-12" x="554.27" y="130.66" width="15.65" height="107.57"/><rect class="cls-12" x="505.37" y="130.66" width="15.65" height="107.57"/><rect class="cls-12" x="456.48" y="130.66" width="15.65" height="107.57"/><rect class="cls-12" x="407.58" y="130.66" width="15.65" height="107.57"/><rect class="cls-12" x="358.68" y="130.66" width="15.65" height="107.57"/><rect class="cls-12" x="309.79" y="130.66" width="15.65" height="107.57"/><rect class="cls-12" x="305.72" y="124.38" width="268.93" height="6.28"/><rect class="cls-13" x="305.72" y="124.38" width="268.93" height="6.28"/><polygon class="cls-12" points="294.47 94.06 585.89 94.06 577.1 124.38 303.27 124.38 294.47 94.06"/><rect class="cls-11" x="322.83" y="89.17" width="234.7" height="4.89"/><rect class="cls-12" x="354.62" y="81.35" width="171.14" height="7.82"/><rect class="cls-10" x="354.62" y="79.39" width="171.14" height="1.96"/><rect class="cls-10" x="244.6" y="253.88" width="391.17" height="31.29"/><rect class="cls-14" x="380.03" y="314.83" width="123.37" height="59.22"/><rect class="cls-15" x="395.84" y="314.83" width="91.75" height="59.22"/><rect class="cls-9" x="411.25" y="314.83" width="60.94" height="59.22"/><rect class="cls-12" x="426.07" y="324.8" width="31.29" height="49.25"/><rect class="cls-9" x="441.57" y="324.19" width="0.31" height="49.86"/><path class="cls-10" d="M383.22,110.22v10.13h-1.69v-4.22h-4.21v4.22h-1.69V110.22h1.69v4.2h4.21v-4.2Z"/><path class="cls-10" d="M396.43,115.29a5.06,5.06,0,1,1-5.06-5.06A5,5,0,0,1,396.43,115.29Zm-1.69,0a3.37,3.37,0,1,0-3.37,3.37A3.37,3.37,0,0,0,394.73,115.29Z"/><path class="cls-10" d="M412.05,117.83h-6.68v-1.68h6.68Z"/><path class="cls-10" d="M428.05,117.67l1.19,1.2a5.07,5.07,0,1,1,0-7.16l-1.19,1.19a3.37,3.37,0,1,0,0,4.77Z"/><path class="cls-10" d="M439.17,110.22v10.13h-1.69v-4.22h-4.21v4.22h-1.69V110.22h1.69v4.2h4.21v-4.2Z"/><path class="cls-10" d="M442,110.22h1.69v10.13H442Z"/><path class="cls-10" d="M459.26,117.83h-6.68v-1.68h6.68Z"/><path class="cls-10" d="M478.79,120.35H477.1v-6.22l-2.91,6.22H472.6l-3.1-6.35v6.35h-1.69V110.21h1.72l3.85,7.88,3.69-7.88h1.72Z"/><path class="cls-10" d="M481.85,110.22h1.69v10.13h-1.69Z"/><path class="cls-10" d="M493.1,120.35l-5-7.2v7.2h-1.69V110.22h1.71l5,7.21v-7.21h1.68v10.13Z"/><path class="cls-10" d="M505.84,110.22v10.13h-1.69v-4.22h-4.21v4.22h-1.69V110.22h1.69v4.2h4.21v-4.2Z"/><circle class="cls-10" cx="482.69" cy="107.86" r="0.84"/><path class="cls-10" d="M414.89,103.77l.72.73a3.09,3.09,0,1,1,0-4.36l-.72.72a2.05,2.05,0,1,0,0,2.91Z"/><path class="cls-10" d="M423.91,99.23v6.16h-1v-2.57h-2.56v2.57h-1V99.23h1v2.55h2.56V99.23Z"/><path class="cls-10" d="M428.36,104.09a3.1,3.1,0,0,1-.31-1.26V99.23h1v3.59a2,2,0,0,0,.21.83,1.36,1.36,0,0,0,1.32.71,1.35,1.35,0,0,0,1.32-.71,2.09,2.09,0,0,0,.22-.83V99.23h1v3.59a3.1,3.1,0,0,1-.31,1.26,2.6,2.6,0,0,1-4.52,0Z"/><path class="cls-10" d="M447.2,100.26h-1.54v5.13h-1v-5.13h-1.54v-1h4.11Z"/><path class="cls-10" d="M451.18,99.23h1v6.16h-1Z"/><path class="cls-10" d="M460.46,103.77l.72.73a3.09,3.09,0,1,1,0-4.36l-.72.72a2.05,2.05,0,1,0,0,2.91Z"/><path class="cls-10" d="M469.49,99.23v6.16h-1v-2.57h-2.56v2.57h-1V99.23h1v2.55h2.56V99.23Z"/><circle class="cls-10" cx="451.69" cy="97.87" r="0.51"/><circle class="cls-10" cx="451.69" cy="107.65" r="0.51"/><rect class="cls-3" x="975.79" y="293.83" width="57.77" height="21.19"/><rect class="cls-10" x="842.22" y="279.72" width="36.95" height="10.91"/><rect class="cls-16" x="844.12" y="282.81" width="7.19" height="4.84"/><rect class="cls-16" x="870.13" y="282.81" width="7.19" height="4.84"/><rect class="cls-2" x="853.12" y="282.81" width="15.16" height="4.84"/><rect class="cls-10" x="839.69" y="288.32" width="42.26" height="25.92"/><path class="cls-3" d="M842.75,286.68a3.67,3.67,0,0,1-3-3.87h-2.54a18.65,18.65,0,0,0,1.21,4.48c.74,1.48,1.13,5.5,1.13,5.5,0,.34.18,1,.18,1v-6.48s1.22,2.36,6.87,2.63,13.9.07,13.9.07v-2.69C854.32,287.35,846.15,287.54,842.75,286.68Z"/><path class="cls-3" d="M881.93,282.81a3.67,3.67,0,0,1-3,3.87c-3.4.86-12.29.67-18.43.67V290s9,.2,14.62-.07,6.87-2.63,6.87-2.63v6.48s.15-.7.18-1c0,0,.38-4,1.13-5.5a18.64,18.64,0,0,0,1.21-4.48Z"/><path class="cls-2" d="M839.51,294.17s-.38-4-1.13-5.5a19.16,19.16,0,0,1-1.37-6.4c.11-1.08.8-2.37,1.76-2.15s1.43,1.85,1.11,2.94a3.85,3.85,0,0,0,2.87,5c3.4.86,11.57.67,17.71.67v2.69s-8.25.2-13.9-.07-6.87-2.63-6.87-2.63v6.48S839.55,294.51,839.51,294.17Z"/><path class="cls-2" d="M882.13,294.17s.38-4,1.13-5.5a19.16,19.16,0,0,0,1.37-6.4c-.11-1.08-.8-2.37-1.76-2.15s-1.43,1.85-1.11,2.94a3.85,3.85,0,0,1-2.87,5c-3.4.86-12.29.67-18.43.67v2.69s9,.2,14.62-.07,6.87-2.63,6.87-2.63v6.48S882.1,294.51,882.13,294.17Z"/><path class="cls-3" d="M844.94,277a3.64,3.64,0,0,1-2.66-3.87H840a20.71,20.71,0,0,0,1.06,4.48,26.16,26.16,0,0,1,1,5.5c0,.34.16,1,.16,1V277.7s1.07,2.36,6,2.63,12.2.07,12.2.07V277.7C855.1,277.7,847.92,277.89,844.94,277Z"/><path class="cls-3" d="M879.33,273.16a3.64,3.64,0,0,1-2.66,3.87c-3,.86-10.79.67-16.18.67v2.69s7.88.2,12.84-.07,6-2.63,6-2.63v6.48s.13-.7.16-1a26.16,26.16,0,0,1,1-5.5,20.71,20.71,0,0,0,1.06-4.48Z"/><path class="cls-2" d="M842.09,284.52s-.4-2.94-.8-4.76a10.55,10.55,0,0,1-.22-1.43c-.28-3.44-2.37-6-2.28-7.06,2.4.92,2.06.36,2.9.59.26.35.34.44.53,1.46s-.27,4.23,2.72,5.09,10.16.67,15.55.67v2.69s-7.24.2-12.2-.07-6.06-2-6.06-2l0,5.84S842.12,284.86,842.09,284.52Z"/><path class="cls-2" d="M879.32,284.52s.4-2.94.8-4.76a10.55,10.55,0,0,0,.22-1.43c.28-3.44,2.37-6,2.28-7.06-2.4.92-2.06.36-2.9.59-.26.35-.34.44-.53,1.46s.27,4.23-2.72,5.09-10.6.67-16,.67v2.69s7.68.2,12.64-.07,6.06-2,6.06-2l0,5.84S879.29,284.86,879.32,284.52Z"/><rect class="cls-10" x="1131.79" y="279.72" width="36.95" height="10.91"/><rect class="cls-16" x="1133.69" y="282.81" width="7.19" height="4.84"/><rect class="cls-16" x="1159.7" y="282.81" width="7.19" height="4.84"/><rect class="cls-2" x="1142.69" y="282.81" width="15.16" height="4.84"/><rect class="cls-10" x="1129.26" y="288.32" width="42.26" height="25.92"/><path class="cls-3" d="M1132.32,286.68a3.67,3.67,0,0,1-3-3.87h-2.54a18.65,18.65,0,0,0,1.21,4.48c.74,1.48,1.13,5.5,1.13,5.5,0,.34.18,1,.18,1v-6.48s1.22,2.36,6.87,2.63,13.9.07,13.9.07v-2.69C1143.89,287.35,1135.72,287.54,1132.32,286.68Z"/><path class="cls-3" d="M1171.5,282.81a3.67,3.67,0,0,1-3,3.87c-3.4.86-12.29.67-18.43.67V290s9,.2,14.62-.07,6.87-2.63,6.87-2.63v6.48s.15-.7.18-1c0,0,.38-4,1.13-5.5a18.64,18.64,0,0,0,1.21-4.48Z"/><path class="cls-2" d="M1129.08,294.17s-.38-4-1.13-5.5a19.16,19.16,0,0,1-1.37-6.4c.11-1.08.8-2.37,1.76-2.15s1.43,1.85,1.11,2.94a3.85,3.85,0,0,0,2.87,5c3.4.86,11.57.67,17.71.67v2.69s-8.25.2-13.9-.07-6.87-2.63-6.87-2.63v6.48S1129.12,294.51,1129.08,294.17Z"/><path class="cls-2" d="M1171.71,294.17s.38-4,1.13-5.5a19.16,19.16,0,0,0,1.37-6.4c-.11-1.08-.8-2.37-1.76-2.15s-1.43,1.85-1.11,2.94a3.85,3.85,0,0,1-2.87,5c-3.4.86-12.29.67-18.43.67v2.69s9,.2,14.62-.07,6.87-2.63,6.87-2.63v6.48S1171.67,294.51,1171.71,294.17Z"/><path class="cls-3" d="M1134.51,277a3.64,3.64,0,0,1-2.66-3.87h-2.23a20.71,20.71,0,0,0,1.06,4.48,26.16,26.16,0,0,1,1,5.5c0,.34.16,1,.16,1V277.7s1.07,2.36,6,2.63,12.2.07,12.2.07V277.7C1144.67,277.7,1137.49,277.89,1134.51,277Z"/><path class="cls-3" d="M1168.91,273.16a3.64,3.64,0,0,1-2.66,3.87c-3,.86-10.79.67-16.18.67v2.69s7.88.2,12.84-.07,6-2.63,6-2.63v6.48s.13-.7.16-1a26.16,26.16,0,0,1,1-5.5,20.71,20.71,0,0,0,1.06-4.48Z"/><path class="cls-2" d="M1131.66,284.52s-.4-2.94-.8-4.76a10.55,10.55,0,0,1-.22-1.43c-.28-3.44-2.37-6-2.28-7.06,2.4.92,2.06.36,2.9.59.26.35.34.44.53,1.46s-.27,4.23,2.72,5.09,10.16.67,15.55.67v2.69s-7.24.2-12.2-.07-6.06-2-6.06-2l0,5.84S1131.7,284.86,1131.66,284.52Z"/><path class="cls-2" d="M1168.89,284.52s.4-2.94.8-4.76a10.55,10.55,0,0,0,.22-1.43c.28-3.44,2.37-6,2.28-7.06-2.4.92-2.06.36-2.9.59-.26.35-.34.44-.53,1.46s.27,4.23-2.72,5.09-10.6.67-16,.67v2.69s7.68.2,12.64-.07,6.06-2,6.06-2l0,5.84S1168.86,284.86,1168.89,284.52Z"/><rect class="cls-17" x="945.36" y="270.29" width="1.01" height="13.09" transform="translate(420.81 -557.2) rotate(41.49)"/><rect class="cls-17" x="949.59" y="270.06" width="1.01" height="13.09" transform="translate(421.72 -560.06) rotate(41.49)"/><rect class="cls-17" x="953.62" y="270.06" width="1.01" height="13.09" transform="translate(422.73 -562.73) rotate(41.49)"/><rect class="cls-17" x="957.39" y="270.36" width="1.01" height="13.09" transform="translate(423.88 -565.16) rotate(41.49)"/><rect class="cls-17" x="960.06" y="271.9" width="1.01" height="13.09" transform="translate(425.57 -566.54) rotate(41.49)"/><rect class="cls-17" x="962.75" y="273.43" width="1.01" height="13.09" transform="translate(427.25 -567.93) rotate(41.49)"/><rect class="cls-17" x="937.29" y="270.29" width="1.01" height="13.09" transform="translate(418.78 -551.85) rotate(41.49)"/><rect class="cls-17" x="933.26" y="270.29" width="1.01" height="13.09" transform="translate(417.77 -549.18) rotate(41.49)"/><rect class="cls-17" x="928.3" y="266.76" width="1.01" height="13.09" transform="translate(414.19 -546.78) rotate(41.49)"/><rect class="cls-17" x="929.16" y="270.36" width="1.01" height="13.09" transform="translate(416.79 -546.45) rotate(41.49)"/><rect class="cls-17" x="941.39" y="270.21" width="1.01" height="13.09" transform="translate(419.76 -554.59) rotate(41.49)"/><rect class="cls-17" x="944.57" y="271.17" width="1.01" height="13.09" transform="translate(421.2 -556.46) rotate(41.49)"/><rect class="cls-17" x="941.46" y="270.06" width="1.01" height="13.09" transform="translate(1830.78 -140.31) rotate(138.51)"/><rect class="cls-17" x="937.43" y="270.06" width="1.01" height="13.09" transform="translate(1823.72 -137.63) rotate(138.51)"/><rect class="cls-17" x="933.66" y="270.36" width="1.01" height="13.09" transform="translate(1817.32 -134.61) rotate(138.51)"/><rect class="cls-17" x="929.88" y="270.65" width="1.01" height="13.09" transform="translate(1810.91 -131.6) rotate(138.51)"/><rect class="cls-17" x="928.3" y="273.43" width="1.01" height="13.09" transform="translate(1810 -125.7) rotate(138.51)"/><rect class="cls-17" x="953.76" y="270.29" width="1.01" height="13.09" transform="translate(1852.44 -148.06) rotate(138.51)"/><rect class="cls-17" x="957.79" y="270.29" width="1.01" height="13.09" transform="translate(1859.5 -150.73) rotate(138.51)"/><rect class="cls-17" x="962.75" y="266.76" width="1.01" height="13.09" transform="translate(1865.83 -160.18) rotate(138.51)"/><rect class="cls-17" x="961.89" y="270.36" width="1.01" height="13.09" transform="translate(1866.71 -153.32) rotate(138.51)"/><rect class="cls-17" x="949.66" y="270.21" width="1.01" height="13.09" transform="translate(1845.22 -145.48) rotate(138.51)"/><rect class="cls-17" x="945.76" y="270.36" width="1.01" height="13.09" transform="translate(1838.49 -142.63) rotate(138.51)"/><rect class="cls-17" x="1065.21" y="270.29" width="1.01" height="13.09" transform="translate(450.89 -636.61) rotate(41.49)"/><rect class="cls-17" x="1069.44" y="270.06" width="1.01" height="13.09" transform="translate(451.8 -639.47) rotate(41.49)"/><rect class="cls-17" x="1073.48" y="270.06" width="1.01" height="13.09" transform="translate(452.81 -642.14) rotate(41.49)"/><rect class="cls-17" x="1077.25" y="270.36" width="1.01" height="13.09" transform="translate(453.96 -644.56) rotate(41.49)"/><rect class="cls-17" x="1079.92" y="271.9" width="1.01" height="13.09" transform="translate(455.65 -645.95) rotate(41.49)"/><rect class="cls-17" x="1082.6" y="273.43" width="1.01" height="13.09" transform="translate(457.33 -647.34) rotate(41.49)"/><rect class="cls-17" x="1057.14" y="270.29" width="1.01" height="13.09" transform="translate(448.86 -631.26) rotate(41.49)"/><rect class="cls-17" x="1053.11" y="270.29" width="1.01" height="13.09" transform="translate(447.85 -628.59) rotate(41.49)"/><rect class="cls-17" x="1048.16" y="266.76" width="1.01" height="13.09" transform="translate(444.27 -626.19) rotate(41.49)"/><rect class="cls-17" x="1049.01" y="270.36" width="1.01" height="13.09" transform="translate(446.87 -625.86) rotate(41.49)"/><rect class="cls-17" x="1061.24" y="270.21" width="1.01" height="13.09" transform="translate(449.84 -634) rotate(41.49)"/><rect class="cls-17" x="1064.42" y="271.17" width="1.01" height="13.09" transform="translate(451.28 -635.86) rotate(41.49)"/><rect class="cls-17" x="1061.31" y="270.06" width="1.01" height="13.09" transform="translate(2040.4 -219.71) rotate(138.51)"/><rect class="cls-17" x="1057.28" y="270.06" width="1.01" height="13.09" transform="translate(2033.35 -217.04) rotate(138.51)"/><rect class="cls-17" x="1053.51" y="270.36" width="1.01" height="13.09" transform="translate(2026.95 -214.02) rotate(138.51)"/><rect class="cls-17" x="1049.73" y="270.65" width="1.01" height="13.09" transform="translate(2020.53 -211.01) rotate(138.51)"/><rect class="cls-17" x="1048.16" y="273.43" width="1.01" height="13.09" transform="translate(2019.62 -205.11) rotate(138.51)"/><rect class="cls-17" x="1073.61" y="270.29" width="1.01" height="13.09" transform="translate(2062.07 -227.47) rotate(138.51)"/><rect class="cls-17" x="1077.65" y="270.29" width="1.01" height="13.09" transform="translate(2069.12 -230.14) rotate(138.51)"/><rect class="cls-17" x="1082.6" y="266.76" width="1.01" height="13.09" transform="translate(2075.45 -239.58) rotate(138.51)"/><rect class="cls-17" x="1081.75" y="270.36" width="1.01" height="13.09" transform="translate(2076.34 -232.73) rotate(138.51)"/><rect class="cls-17" x="1069.51" y="270.21" width="1.01" height="13.09" transform="translate(2054.84 -224.89) rotate(138.51)"/><rect class="cls-17" x="1065.61" y="270.36" width="1.01" height="13.09" transform="translate(2048.12 -222.04) rotate(138.51)"/><path class="cls-17" d="M1058,271.11h4.79V215.2H944.92v55.91H956V238.36a7.77,7.77,0,0,1,7.74-7.81,7.3,7.3,0,0,1,5.31,2.3,7.6,7.6,0,0,1,2.06,5.51v32.75h20.14V242.87a12.71,12.71,0,0,1,12.35-12.56h1.35a12.83,12.83,0,0,1,12.49,12.56v28.24h19.14V238.36a7.77,7.77,0,0,1,7.74-7.81,7.3,7.3,0,0,1,5.31,2.3,7.6,7.6,0,0,1,2.06,5.51v32.75Z"/><path class="cls-10" d="M991.25,268.72V242.87a12.71,12.71,0,0,1,12.35-12.56h1.35a12.83,12.83,0,0,1,12.49,12.56v25.85h2V243.33a15,15,0,0,0-4.54-10.4,15.42,15.42,0,0,0-10.68-4.32,15,15,0,0,0-15,14.72v25.38Z"/><rect class="cls-18" x="883.18" y="316.46" width="43.62" height="57.59"/><rect class="cls-16" x="924.36" y="280.67" width="164.03" height="5.03"/><rect class="cls-2" x="887.65" y="317.97" width="25.27" height="47.51"/><rect class="cls-2" x="969.35" y="268.55" width="70.56" height="13.21"/><rect class="cls-10" x="963.02" y="264.87" width="6.33" height="16.89"/><path class="cls-19" d="M975,223.89v53.63h-4.29V238.36a7.48,7.48,0,0,0-1.89-5.51,7.4,7.4,0,0,0-5.35-2.3,7.81,7.81,0,0,0-7.78,7.81v39.16h-4.29V223.89Z"/><path class="cls-20" d="M1025.46,223.89v53.63h-7.51V242.87c0-6.69-6.31-12.55-13-12.55h-1.35a12.81,12.81,0,0,0-12.47,12.55v34.65h-7.51V223.89Z"/><path class="cls-21" d="M1056.56,223.89v53.63h-5.36V238.36a7.08,7.08,0,0,0-7.21-7.81,7.84,7.84,0,0,0-7.81,7.81v39.16h-4.29V223.89Z"/><rect class="cls-17" x="910.46" y="284.11" width="16.34" height="62.92"/><rect class="cls-22" x="914.2" y="288.74" width="8.85" height="53.67"/><rect class="cls-10" x="911.34" y="281.02" width="13.74" height="3.1"/><polygon class="cls-10" points="925.08 281.02 911.34 281.02 909.62 278.93 926.79 278.93 925.08 281.02"/><rect class="cls-10" x="911.7" y="349.82" width="13.39" height="4.13"/><polygon class="cls-10" points="925.09 349.82 911.7 349.82 910.46 347.04 926.79 347.04 925.09 349.82"/><rect class="cls-18" x="909.62" y="261.72" width="17.17" height="17.21"/><path class="cls-17" d="M1084.45,280.73v93.32h-53c0-1,.43-2.52.43-4.11V324.13a26.47,26.47,0,0,0-2.33-10.57,25,25,0,0,0-5.37-7.81,25.51,25.51,0,0,0-41.66,7.81,26,26,0,0,0-2.13,10.57v45.82c0,1.59-.57,3.1-.27,4.11H926.78V280.73Z"/><rect class="cls-2" x="926.6" y="267.08" width="36.42" height="5.49"/><rect class="cls-2" x="911.34" y="258.77" width="13.74" height="2.95"/><polygon class="cls-2" points="925.08 258.77 911.34 258.77 909.21 254.73 927.22 254.73 925.08 258.77"/><rect class="cls-2" x="909.91" y="245.64" width="16.6" height="10.68" rx="4" ry="4"/><path class="cls-2" d="M911.07,251h14.29a1.86,1.86,0,0,1,1.86,1.86v1.89a0,0,0,0,1,0,0h-18a0,0,0,0,1,0,0v-1.89A1.86,1.86,0,0,1,911.07,251Z"/><rect class="cls-2" x="913.84" y="242.96" width="8.75" height="2.68"/><polygon class="cls-2" points="922.59 242.96 913.84 242.96 911.79 240.27 924.64 240.27 922.59 242.96"/><rect class="cls-10" x="909.64" y="365.82" width="17.98" height="8.17"/><path class="cls-10" d="M929,356.76s.27-2.82-3.49-2.82H911.73c-3.76,0-3.45,2.82-3.45,2.82s-.28,2.76,3.47,2.76c.2,4.77-2,5.11-2,5.11v1.65h17.94v-1.65s-2.32-.47-2.12-5.24C929.31,359.39,929,356.76,929,356.76Z"/><rect class="cls-10" x="935.45" y="290.64" width="25.12" height="14.12"/><rect class="cls-10" x="935.45" y="308.77" width="25.12" height="36.85"/><rect class="cls-17" x="937.34" y="310.66" width="21.33" height="33.06"/><rect class="cls-10" x="938.76" y="313.63" width="18.5" height="27.13"/><rect class="cls-17" x="940.16" y="315.02" width="15.71" height="24.35"/><rect class="cls-17" x="937.34" y="292.34" width="21.33" height="10.73"/><rect class="cls-10" x="935.45" y="350.07" width="25.12" height="14.12"/><rect class="cls-17" x="937.34" y="351.76" width="21.33" height="10.73"/><rect class="cls-17" x="951.97" y="195.45" width="103.04" height="23.91"/><rect class="cls-18" x="957.26" y="202.23" width="20.04" height="10.61"/><rect class="cls-18" x="1029.78" y="202.23" width="20.04" height="10.61"/><rect class="cls-10" x="982.36" y="202.23" width="42.27" height="10.61"/><rect class="cls-18" x="961.91" y="289.71" width="7.44" height="63.38"/><path class="cls-3" d="M953.45,210.72c-7.08-1.4-8.55-5.51-8.46-8.49H937.9c.69,3.41,2,7.72,3.38,9.83,2.07,3.23,3.14,12.06,3.14,12.06.1.74.5,2.27.5,2.27v-14.2s3.41,5.18,19.16,5.75,38.75.15,38.75.15v-5.9C985.71,212.18,962.93,212.59,953.45,210.72Z"/><path class="cls-3" d="M1062.69,202.23c.08,3-1.38,7.08-8.46,8.49-9.48,1.88-34.27,1.46-51.39,1.46v5.9s25,.43,40.76-.15,19.16-5.75,19.16-5.75v14.2s.41-1.53.5-2.27c0,0,1.07-8.82,3.14-12.06,1.35-2.11,2.69-6.42,3.38-9.83Z"/><path class="cls-23" d="M1038.33,289.31V314h-8.94a22.75,22.75,0,0,0-5.28-8,25.3,25.3,0,0,0-18.16-7.54A24.94,24.94,0,0,0,982.4,314H970.75V289.31Z"/><path class="cls-18" d="M1025.72,303.55a27.76,27.76,0,0,0-47.46,19.7v49.14c0,.6-.14.65-.14,1.66h2c0-1,.27-3.55.27-4.11V324.13a25.74,25.74,0,1,1,51.49,0v45.82c0,1.59-.42,3.1-.43,4.11H1034v-50.8A27.94,27.94,0,0,0,1025.72,303.55Z"/><rect class="cls-18" x="926.97" y="368.46" width="157.95" height="5.59"/><rect class="cls-2" x="883.18" y="310.66" width="27.09" height="5.79"/><path class="cls-18" d="M883.87,297.9v76.15h-15v-47a8.39,8.39,0,0,0-2.32-6,7.85,7.85,0,0,0-5.71-2.49c-4.66,0-8.06,3.82-8.06,8.48v47h-15V297.9Z"/><path class="cls-24" d="M872.07,314v59h-3.22V327.1a8.39,8.39,0,0,0-2.32-6,7.85,7.85,0,0,0-5.71-2.49c-4.66,0-8.06,3.82-8.06,8.48V373h-3.22V314Z"/><rect class="cls-10" x="849.24" y="301.66" width="23.17" height="10.17"/><rect class="cls-17" x="851.89" y="303.62" width="17.87" height="6.24"/><rect class="cls-18" x="1084.43" y="316.46" width="43.88" height="57.59" transform="translate(2212.73 690.51) rotate(-180)"/><rect class="cls-2" x="1045.3" y="267.08" width="40.07" height="5.49" transform="translate(2130.67 539.65) rotate(-180)"/><rect class="cls-2" x="1098.56" y="317.97" width="25.27" height="47.51" transform="translate(2222.39 683.44) rotate(-180)"/><rect class="cls-10" x="1039.91" y="264.87" width="6.33" height="16.89" transform="translate(2086.15 546.62) rotate(-180)"/><rect class="cls-17" x="1084.43" y="284.11" width="16.34" height="62.92" transform="translate(2185.19 631.15) rotate(-180)"/><rect class="cls-22" x="1088.17" y="288.74" width="8.85" height="53.67" transform="translate(2185.19 631.15) rotate(-180)"/><rect class="cls-10" x="1086.14" y="281.02" width="13.74" height="3.1" transform="translate(2186.02 565.13) rotate(-180)"/><polygon class="cls-10" points="1086.15 281.02 1099.88 281.02 1101.6 278.93 1084.43 278.93 1086.15 281.02"/><rect class="cls-10" x="1086.14" y="349.82" width="13.39" height="4.13" transform="translate(2185.67 703.76) rotate(-180)"/><polygon class="cls-10" points="1086.14 349.82 1099.53 349.82 1100.77 347.04 1084.43 347.04 1086.14 349.82"/><rect class="cls-18" x="1084.43" y="261.72" width="17.17" height="17.21" transform="translate(2186.03 540.66) rotate(-180)"/><rect class="cls-2" x="1086.14" y="258.77" width="13.74" height="2.95" transform="translate(2186.02 520.5) rotate(-180)"/><polygon class="cls-2" points="1086.14 258.77 1099.89 258.77 1102.01 254.73 1084 254.73 1086.14 258.77"/><rect class="cls-2" x="1084.71" y="245.64" width="16.6" height="10.68" rx="4" ry="4" transform="translate(2186.03 501.96) rotate(180)"/><path class="cls-2" d="M1084,251h18a0,0,0,0,1,0,0v1.89a1.86,1.86,0,0,1-1.86,1.86h-14.29a1.86,1.86,0,0,1-1.86-1.86V251A0,0,0,0,1,1084,251Z" transform="translate(2186.02 505.71) rotate(180)"/><rect class="cls-2" x="1088.63" y="242.96" width="8.75" height="2.68" transform="translate(2186.02 488.6) rotate(-180)"/><polygon class="cls-2" points="1088.63 242.96 1097.38 242.96 1099.44 240.27 1086.58 240.27 1088.63 242.96"/><rect class="cls-10" x="1083.61" y="365.82" width="17.98" height="8.23" transform="translate(2185.19 739.87) rotate(-180)"/><path class="cls-10" d="M1082.26,356.76s-.27-2.82,3.49-2.82h13.74c3.76,0,3.45,2.82,3.45,2.82s.28,2.76-3.47,2.76c-.2,4.77,2,5.11,2,5.11v1.65h-17.94v-1.65s2.32-.47,2.12-5.24C1081.92,359.39,1082.26,356.76,1082.26,356.76Z"/><rect class="cls-10" x="1051.4" y="290.64" width="25.12" height="14.12" transform="translate(2127.92 595.4) rotate(-180)"/><rect class="cls-10" x="1051.4" y="308.77" width="25.12" height="36.85" transform="translate(2127.92 654.39) rotate(-180)"/><rect class="cls-17" x="1053.3" y="310.66" width="21.33" height="33.06" transform="translate(2127.92 654.39) rotate(-180)"/><rect class="cls-10" x="1054.71" y="313.63" width="18.5" height="27.13" transform="translate(2127.92 654.39) rotate(-180)"/><rect class="cls-17" x="1056.11" y="315.02" width="15.71" height="24.35" transform="translate(2127.92 654.39) rotate(-180)"/><rect class="cls-17" x="1053.3" y="292.34" width="21.33" height="10.73" transform="translate(2127.92 595.4) rotate(-180)"/><rect class="cls-10" x="1051.4" y="350.07" width="25.12" height="14.12" transform="translate(2127.92 714.25) rotate(-180)"/><rect class="cls-17" x="1053.3" y="351.76" width="21.33" height="10.73" transform="translate(2127.92 714.25) rotate(-180)"/><rect class="cls-18" x="1039.35" y="289.71" width="7.44" height="63.38" transform="translate(2086.15 642.8) rotate(-180)"/><rect class="cls-2" x="1101.22" y="310.66" width="27.09" height="5.79" transform="translate(2229.52 627.12) rotate(-180)"/><path class="cls-18" d="M1127.93,297.9v76.15h13.94v-47a8.86,8.86,0,0,1,8.76-8.48,8.44,8.44,0,0,1,8.41,8.48v47H1173V297.9Z"/><path class="cls-25" d="M1138.66,314v59h3.22V327.1a8.86,8.86,0,0,1,8.76-8.48,8.44,8.44,0,0,1,8.41,8.48V373h3.22V314Z"/><rect class="cls-18" x="1139.07" y="301.66" width="23.17" height="10.17" transform="translate(2301.31 613.48) rotate(-180)"/><rect class="cls-10" x="1141.72" y="303.62" width="17.87" height="6.24" transform="translate(2301.31 613.48) rotate(-180)"/><path class="cls-2" d="M1014.95,189.92c-.12-1.45-1.56-2-3.09-2.09s-1.76.89-2.48,1.12-1.38.08-1.53-.58,1.58-1.11,2.16-2.23a2.14,2.14,0,0,0-.27-2.5c-.34-.14-.76-.25-.8-.71s-.28-.44-.67-.57-.28-.39,0-1.13a4.8,4.8,0,0,0,.53-1.83c-.05-.48-.48-.78-.57-1.19s-.35,0-.41.6a1.8,1.8,0,0,1-.3,1.14c-.3.48-.5.18-1,.85s-.27.9-.62,1.1-.59-.3-.39-.82a1,1,0,0,0-.07-1c-.18-.32-.21-.41-.41.21s-.85.41-1.12-.09.2-1.17,0-1.63a2.9,2.9,0,0,1-.6-2c0-.83-.12-.8-.3-1.1s.05-.78-.37-.73-.18,1.06-.27,1.77-.59,1-.67,1.58.23.73.28,1.08-.41.55-.5.94.14.59-.27.64-.5-.41-.57-.6.23-.55-.25-.3-.43,1.65-.63,1.77-.65-.29-.8-1.17-1.08-1.33-1.36-1.93-.19-1.43-.73-.63.41,3.33.19,4.05-1.81,1.77-1.43,3.42a4.79,4.79,0,0,0,1.52,2.54c.44.25.86.28.86.66s-.41.6-1.2.48-1.84-1.71-4-.92-2.91,3.47-2.91,3.47l.26,1.2h24.79A18.88,18.88,0,0,0,1014.95,189.92Zm-12-1.81a2.47,2.47,0,1,1,2.47-2.47A2.47,2.47,0,0,1,1002.9,188.11Z"/><ellipse class="cls-2" cx="966.39" cy="176.66" rx="5.27" ry="3.63"/><path class="cls-2" d="M964.14,178.1s.49.06-.39,3.65-.77,4.85.53,6.21,4.1,4.07,7.38,4.07c2.4,0,14.89.39,20,0,1.86-.14.61-1.37.61-1.37s-21.88-1.83-22.18-7.5c.24-2.48,1.75-3.61,1.53-6.51"/><ellipse class="cls-2" cx="972.19" cy="187.81" rx="5.33" ry="3.7"/><path class="cls-2" d="M977,187.42s1.63-1.76,1.18-2.49c-.18-.19-.1.16-.69.32a1.2,1.2,0,0,1-1.45-.42,2.94,2.94,0,0,1-.4-1.45c.05-.48-.42-.07-.53.37a2.64,2.64,0,0,0,0,1.88A9.8,9.8,0,0,0,977,187.42Z"/><path class="cls-2" d="M971.66,184.88a11.61,11.61,0,0,1-.31-3.49c.27-.86.58-1.15,1-1.1s.34.48.13.62a.64.64,0,0,0-.3.73,7.57,7.57,0,0,0,.4.71s.11.27.35,0,.07-.44.38-.61.71,0,.54.32a1.65,1.65,0,0,0-.2,1.07c.06.43.56.15.65.36a3.33,3.33,0,0,1-.11,1.36C974.11,184.9,971.66,184.88,971.66,184.88Z"/><ellipse class="cls-2" cx="1041.85" cy="176.66" rx="5.27" ry="3.63"/><path class="cls-2" d="M1044.1,178.1s-.49.06.39,3.65.77,4.85-.53,6.21-4.1,4.07-7.38,4.07c-2.4,0-14.89.39-20,0-1.86-.14-.61-1.37-.61-1.37s21.88-1.83,22.18-7.5c-.24-2.48-1.75-3.61-1.53-6.51"/><ellipse class="cls-2" cx="1036.05" cy="187.81" rx="5.33" ry="3.7"/><path class="cls-2" d="M1031.21,187.42s-1.63-1.76-1.18-2.49c.18-.19.1.16.69.32a1.2,1.2,0,0,0,1.45-.42,2.94,2.94,0,0,0,.4-1.45c-.05-.48.42-.07.53.37a2.64,2.64,0,0,1,0,1.88A9.8,9.8,0,0,1,1031.21,187.42Z"/><path class="cls-2" d="M1036.58,184.88a11.61,11.61,0,0,0,.31-3.49c-.27-.86-.58-1.15-1-1.1s-.34.48-.13.62a.64.64,0,0,1,.3.73,7.57,7.57,0,0,1-.4.71s-.11.27-.35,0-.07-.44-.38-.61-.71,0-.54.32a1.65,1.65,0,0,1,.2,1.07c-.06.43-.56.15-.65.36a3.33,3.33,0,0,0,.11,1.36C1034.13,184.9,1036.58,184.88,1036.58,184.88Z"/><path class="cls-2" d="M944.42,227.14s-1.07-8.82-3.14-12.06-4.12-11.67-3.82-14,2.24-5.2,4.9-4.71,4,4.06,3.09,6.43-1.48,9.09,8,11,32.26,1.46,49.38,1.46v5.9s-23,.43-38.75-.15-19.16-5.75-19.16-5.75v14.2S944.52,227.87,944.42,227.14Z"/><path class="cls-2" d="M1063.26,227.14s1.07-8.82,3.14-12.06,4.12-11.67,3.82-14-2.24-5.2-4.9-4.71-4,4.06-3.09,6.43,1.48,9.09-8,11-34.27,1.46-51.39,1.46v5.9s25,.43,40.76-.15,19.16-5.75,19.16-5.75v14.2S1063.16,227.87,1063.26,227.14Z"/><path class="cls-3" d="M959.55,189.56c-6.22-1.4-7.5-5.51-7.43-8.49h-6.23c.6,3.41,1.78,7.72,3,9.83,1.82,3.23,2.76,12.06,2.76,12.06.09.74.44,2.27.44,2.27V191s3,5.18,16.82,5.75,34,.15,34,.15V191C987.87,191,967.87,191.44,959.55,189.56Z"/><path class="cls-3" d="M1055.45,181.08c.07,3-1.21,7.08-7.43,8.49-8.32,1.88-30.09,1.46-45.12,1.46v5.9s22,.43,35.79-.15,16.82-5.75,16.82-5.75v14.2s.36-1.53.44-2.27c0,0,.94-8.82,2.76-12.06,1.19-2.11,2.36-6.42,3-9.83Z"/><path class="cls-2" d="M951.61,206s-1.11-6.45-2.24-10.43a18.56,18.56,0,0,1-.61-3.14c-.79-7.55-6.6-13.25-6.36-15.48,6.69,2,5.73.8,8.07,1.29.72.76.94,1,1.49,3.2.52,2.47-.75,9.28,7.57,11.16s28.33,1.46,43.36,1.46v5.9s-20.2.43-34-.15S952,195.45,952,195.45l.08,12.8S951.7,206.72,951.61,206Z"/><path class="cls-2" d="M1055.42,206s1.11-6.45,2.24-10.43a18.56,18.56,0,0,0,.61-3.14c.79-7.55,6.6-13.25,6.36-15.48-6.69,2-5.73.8-8.07,1.29-.72.76-.94,1-1.49,3.2-.52,2.47.75,9.28-7.57,11.16s-29.55,1.46-44.59,1.46v5.9s21.43.43,35.25-.15,16.91-4.35,16.91-4.35l-.08,12.8S1055.33,206.72,1055.42,206Z"/><path class="cls-16" d="M1002.9,182.53a3.11,3.11,0,1,0,3.11,3.11A3.11,3.11,0,0,0,1002.9,182.53Zm0,5.58a2.47,2.47,0,1,1,2.47-2.47A2.47,2.47,0,0,1,1002.9,188.11Z"/><circle class="cls-2" cx="1190.63" cy="11.18" r="6.42"/><path class="cls-26" d="M1183.71,11.41s-6-.15-7.71,10.15-1.23,27-1.23,27l-2.72,1.11V70.49l-2,2V93.67h-2.22v24.7H1165v26.45h-3.3v30.35h-2.19V209h-2.6v33H1153v36.89h-3.17v41.93h-3.25v46.76H1177l2.37-70.66,3.47-78.6,2.38-64.39.58-96.55,1.57-9.45-.55-10.64,3.77-25.91Z"/><path class="cls-26" d="M1197.54,11.41s6-.15,7.71,10.15,1.23,27,1.23,27l2.72,1.11V70.49l2,2V93.67h2.22v24.7h2.88v26.45h3.3v30.35h2.19V209h2.6v33h3.9v36.89h3.17v41.93h3.25v46.76h-32.53l-8.33-356.2Z"/><path class="cls-26" d="M1197.51,11.51h-13.8l-13.08,356.11h40Zm-9,27.91a2.13,2.13,0,0,1,2.13-2.09,2.16,2.16,0,0,1,1.51.62,2.11,2.11,0,0,1,.65,1.48V45.9h-4.29Zm-1.07,20.76a3,3,0,0,1,3-2.76,3.6,3.6,0,0,1,2.28.81,3.13,3.13,0,0,1,1.15,1.95v8.54h-6.44Zm0,21a3.24,3.24,0,0,1,3.23-3.22,3.22,3.22,0,0,1,3.21,3.22v10h-6.44Zm-1.07,24.71a4.28,4.28,0,0,1,7.29-3,4.22,4.22,0,0,1,1.3,3v13h-8.58Zm-1.07,24a5.1,5.1,0,0,1,5.12-4.83,5.75,5.75,0,0,1,3.79,1.42,5.2,5.2,0,0,1,1.81,3.41v14.94h-10.73Zm0,31.67a5.36,5.36,0,0,1,9.13-3.75,5.29,5.29,0,0,1,1.59,3.75V178h-4.48l-6.25,0Zm0,31.75a5.61,5.61,0,0,1,5.57-5.72,5,5,0,0,1,3.75,1.68,5.46,5.46,0,0,1,1.41,4V211h-4.41l-6.32,0Zm0,32a5.73,5.73,0,0,1,5.67-5.92,4.47,4.47,0,0,1,3.74,1.74,6.22,6.22,0,0,1,1.31,4.18v18.33h-4.38l-6.35,0ZM1184.2,261a6.53,6.53,0,0,1,6.51-6.51,6.28,6.28,0,0,1,4.52,1.92,6.4,6.4,0,0,1,1.84,4.6v22.52h-5.35l-7.52,0Zm13.94,94.81h-15V341.23a7.38,7.38,0,0,1,7.36-7.37,7.64,7.64,0,0,1,5.34,2.17,7.45,7.45,0,0,1,2.31,5.2Zm-6.28-29.88-8.74,0V300.47a7.38,7.38,0,0,1,7.36-7.37,7.64,7.64,0,0,1,5.34,2.17,7.45,7.45,0,0,1,2.31,5.2v25.47Z"/><polygon class="cls-26" points="1210.38 201.36 1193.36 201.36 1188.84 201.36 1170.64 201.36 1148.09 203.85 1156.66 210.44 1187.39 211.01 1188.84 211.01 1193.36 211.01 1194.82 211.01 1225.55 210.32 1233.7 203.85 1210.38 201.36"/><path class="cls-3" d="M1221.48,206.72c-10.54,0-10.82-8.09-10.82-8.09s.36,7-20,7h0c-20.38,0-20-7-20-7s-.27,8.09-10.81,8.09-14.07-5.3-14.07-5.3,4.32,10.66,15.76,11c5.34.18,17.6.19,29.14.15s23.8,0,29.15-.15c11.43-.39,15.76-11,15.76-11S1232,206.72,1221.48,206.72Z"/><polygon class="cls-26" points="1208.32 168.11 1193.06 168.11 1189.04 168.11 1172.88 168.11 1152.36 170.62 1160.44 176.3 1187.75 176.69 1189.04 176.69 1193.06 176.69 1194.35 176.69 1221.66 176.31 1229.28 170.49 1208.32 168.11"/><path class="cls-3" d="M1218,173.35c-9.36,0-9.62-7.19-9.62-7.19s.44,6.22-17.79,6.22h0c-18.23,0-17.8-6.22-17.8-6.22s-.24,7.19-9.61,7.19-12.5-4.71-12.5-4.71,3.84,9.48,14,9.82c4.75.16,15.64.17,25.9.14s21.15,0,25.9-.14c10.16-.34,14-9.82,14-9.82S1227.41,173.35,1218,173.35Z"/><polygon class="cls-26" points="1206.7 138.08 1192.83 138.08 1189.19 138.08 1174.56 138.01 1155.72 140.59 1163.31 146 1188.03 146.66 1189.19 146.66 1192.83 146.66 1194 146.66 1218.72 146.11 1225.61 140.54 1206.7 138.08"/><path class="cls-3" d="M1215.44,143.23c-8.47,0-8.7-6.5-8.7-6.5s0,5.63-16.1,5.63h0c-16.09,0-16.11-5.63-16.11-5.63s-.22,6.5-8.69,6.5-11.32-4.27-11.32-4.27,3.48,8.57,12.67,8.89c4.3.15,14.16.15,23.44.12s19.14,0,23.44-.12c9.2-.31,12.68-8.89,12.68-8.89S1223.92,143.23,1215.44,143.23Z"/><polygon class="cls-26" points="1204.49 113.41 1192.56 113.41 1189.38 113.41 1176.17 113.41 1160.7 115.26 1166.73 119.67 1188.35 119.84 1189.38 119.84 1192.56 119.84 1193.58 119.84 1215.2 119.63 1221.23 115.16 1204.49 113.41"/><path class="cls-3" d="M1212.33,117.38c-7.41,0-7.61-5.69-7.61-5.69s-.14,4.92-14.08,4.92h0c-13.94,0-14.09-4.92-14.09-4.92s-.19,5.69-7.6,5.69-9.9-3.73-9.9-3.73,3,7.5,11.08,7.77c3.76.13,12.38.14,20.5.11s16.74,0,20.5-.11c8-.27,11.09-7.77,11.09-7.77S1219.74,117.38,1212.33,117.38Z"/><polygon class="cls-26" points="1202.75 88.74 1192.31 88.74 1189.54 88.74 1178.5 88.74 1164.1 90.61 1169.78 94.71 1188.64 95.17 1189.54 95.17 1192.31 95.17 1193.2 95.17 1212.07 94.78 1217.33 90.57 1202.75 88.74"/><path class="cls-3" d="M1209.57,92.61c-6.47,0-6.64-5-6.64-5s-.49,4.3-12.29,4.3h0c-11.8,0-12.29-4.3-12.29-4.3s-.17,5-6.64,5-8.64-3.26-8.64-3.26,2.65,6.54,9.67,6.78c3.28.11,10.8.12,17.89.09s14.61,0,17.89-.09c7-.24,9.67-6.78,9.67-6.78S1216,92.61,1209.57,92.61Z"/><polygon class="cls-26" points="1201.88 67.28 1192.18 67.28 1189.62 67.28 1179.34 67.28 1165.98 69.16 1171.36 73.11 1188.79 73.72 1189.62 73.72 1192.18 73.72 1193.01 73.72 1210.44 73.24 1215.3 69.16 1201.88 67.28"/><path class="cls-3" d="M1208.13,71.11c-6,0-6.14-4.59-6.14-4.59s-.63,4-11.36,4h0c-10.73,0-11.36-4-11.36-4s-.16,4.59-6.13,4.59-8-3-8-3,2.45,6,8.94,6.27c3,.1,10,.11,16.53.09s13.5,0,16.53-.09c6.49-.22,8.94-6.27,8.94-6.27S1214.11,71.11,1208.13,71.11Z"/><polygon class="cls-26" points="1200.88 44.76 1192.04 44.76 1189.71 44.76 1180.36 44.76 1168.45 46.98 1173.17 50.42 1188.97 51.2 1189.71 51.2 1192.04 51.2 1192.79 51.2 1208.58 50.6 1212.99 46.69 1200.88 44.76"/><path class="cls-3" d="M1206.49,48.52c-5.42,0-5.56-4.16-5.56-4.16s-.64,3.6-10.29,3.6h0c-9.65,0-10.29-3.6-10.29-3.6s-.14,4.16-5.56,4.16-7.23-2.73-7.23-2.73,2.22,5.48,8.1,5.68c2.75.09,9,.1,15,.08s12.24,0,15-.08c5.88-.2,8.1-5.68,8.1-5.68S1211.91,48.52,1206.49,48.52Z"/><polygon class="cls-26" points="1199.76 23.31 1191.88 23.31 1189.82 23.31 1181.48 23.31 1170.88 25.46 1175.08 28.79 1189.15 29.74 1189.82 29.74 1191.88 29.74 1192.55 29.74 1206.62 29.04 1210.55 25.29 1199.76 23.31"/><path class="cls-3" d="M1204.76,27c-4.82,0-5-3.7-5-3.7s-.58,3.21-9.17,3.21h0c-8.58,0-9.17-3.21-9.17-3.21s-.13,3.7-4.95,3.7-6.44-2.43-6.44-2.43,2,4.88,7.21,5.06c2.45.08,8.06.09,13.34.07s10.9,0,13.35-.07c5.24-.18,7.22-5.06,7.22-5.06S1209.58,27,1204.76,27Z"/><polygon class="cls-26" points="1212.76 234.61 1193.65 234.61 1188.66 234.61 1167.91 234.61 1143.62 237.1 1153.09 243.69 1187.05 244.26 1188.66 244.26 1193.65 244.26 1195.26 244.26 1229.22 243.57 1238.69 237.15 1212.76 234.61"/><path class="cls-3" d="M1224.72,240c-11.64,0-12-8.09-12-8.09s.4,7-22.12,7h0c-22.52,0-22.13-7-22.13-7s-.3,8.09-11.95,8.09-15.55-5.3-15.55-5.3a20.18,20.18,0,0,0,17.41,11c5.9.18,19.45.19,32.21.15s26.3,0,32.21-.15a20.19,20.19,0,0,0,17.42-11S1236.36,240,1224.72,240Z"/><polygon class="cls-26" points="1216.1 270.01 1194.15 270.01 1188.33 270.01 1164.11 270.01 1135.76 273.09 1146.82 280.96 1186.45 281.81 1188.33 281.81 1194.15 281.81 1196.03 281.81 1235.66 280.91 1246.72 273.2 1216.1 270.01"/><path class="cls-3" d="M1230.41,276.62c-13.59,0-14-9.44-14-9.44s-.07,8.17-25.82,8.17h0c-26.82,0-25.82-8.17-25.82-8.17s-.35,9.44-13.94,9.44-18.14-6.19-18.14-6.19A23.55,23.55,0,0,0,1153,283.33c6.89.21,22.7.22,37.58.18s30.7,0,37.59-.18a23.56,23.56,0,0,0,20.32-12.89S1244,276.62,1230.41,276.62Z"/><polygon class="cls-26" points="1220.4 311.84 1194.41 311.84 1188.16 311.84 1162.17 311.84 1131.74 314.96 1143.61 323.06 1186.14 323.64 1188.16 323.64 1194.41 323.64 1196.42 323.64 1238.96 322.91 1250.83 314.95 1220.4 311.84"/><path class="cls-3" d="M1252.77,311.95a25.29,25.29,0,0,1-21.8,13.79c-6.46.19-20.2.24-34.21.2h-6.14l-8.59,0c-13.14,0-25.68,0-31.75-.21A25.26,25.26,0,0,1,1128.5,312a9.24,9.24,0,0,0,3.69,3h0c3,2.15,8,3.57,15.76,3.57,8.86,0,12.47-3.78,13.94-6.72a9.72,9.72,0,0,0,1-3.31,4.61,4.61,0,0,0,1.76,3.25c2.16,2,6.91,4.24,17.39,5,2.51.19,5.36.3,8.58.3q3.33,0,6.15-.16c11.66-.63,17-3.07,19.48-5.19,2.06-1.78,2.09-3.34,2.09-3.42a9.17,9.17,0,0,0,1,3.42c1.47,2.94,5.08,6.71,14,6.71,7.93,0,13-2,15.95-3.76A13.4,13.4,0,0,0,1252.77,311.95Z"/><rect class="cls-2" x="1149.52" y="361.69" width="82.24" height="12.36"/><rect class="cls-27" x="1141.88" y="358.5" width="97.51" height="9.11"/><path class="cls-28" d="M1152.45,374.08h-22.07a17.18,17.18,0,0,1-9.42-15c0-9.86,9.16-17.85,20.46-17.85s20.46,8,20.46,17.84A17.19,17.19,0,0,1,1152.45,374.08Z"/><path class="cls-29" d="M1140.17,341.23v32.85h-10.86a17.18,17.18,0,0,1-9.42-15C1119.89,349.26,1129,341.31,1140.17,341.23Z"/><rect class="cls-30" x="672.52" y="254.78" width="48.19" height="119.27"/><rect class="cls-17" x="598.51" y="229.07" width="74" height="144.98"/><rect class="cls-17" x="598.51" y="179.01" width="74" height="44.35"/><rect class="cls-31" x="604.39" y="192.08" width="62.18" height="31.28"/><rect class="cls-3" x="598.51" y="223.36" width="74" height="6.74"/><rect class="cls-32" x="612.28" y="233.23" width="3.61" height="3.61"/><rect class="cls-32" x="633.75" y="233.23" width="3.61" height="3.61"/><rect class="cls-32" x="655.23" y="233.23" width="3.61" height="3.61"/><rect class="cls-32" x="606.63" y="244" width="14.91" height="35.83"/><rect class="cls-32" x="628.1" y="244" width="14.91" height="35.83"/><rect class="cls-32" x="649.58" y="244" width="14.91" height="35.83"/><rect class="cls-32" x="612.28" y="184.91" width="3.61" height="3.61"/><rect class="cls-32" x="633.75" y="184.91" width="3.61" height="3.61"/><rect class="cls-32" x="655.23" y="184.91" width="3.61" height="3.61"/><rect class="cls-32" x="606.63" y="195.67" width="14.91" height="24.39"/><rect class="cls-32" x="628.1" y="195.67" width="14.91" height="24.39"/><rect class="cls-32" x="649.58" y="195.67" width="14.91" height="24.39"/><rect class="cls-3" x="598.51" y="171.07" width="74" height="7.94"/><rect class="cls-32" x="601.7" y="165.73" width="67.55" height="5.33"/><rect class="cls-33" x="665.48" y="147.99" width="1.99" height="17.75"/><rect class="cls-33" x="603.39" y="147.99" width="1.99" height="17.75"/><rect class="cls-33" x="607.93" y="328.31" width="13.6" height="41.51"/><rect class="cls-33" x="648.15" y="328.31" width="16.34" height="41.51"/><rect class="cls-3" x="598.51" y="300.14" width="74" height="3.85"/><rect class="cls-30" x="598.51" y="292.29" width="74" height="7.84"/><rect class="cls-3" x="598.51" y="286.14" width="74" height="0.44"/><rect class="cls-3" x="598.51" y="286.36" width="0.35" height="5.93"/><rect class="cls-3" x="600.21" y="286.36" width="0.35" height="5.93"/><rect class="cls-3" x="614.07" y="286.36" width="0.35" height="5.93"/><rect class="cls-3" x="612.28" y="286.36" width="0.35" height="5.93"/><rect class="cls-3" x="610.49" y="286.36" width="0.35" height="5.93"/><rect class="cls-3" x="620.54" y="286.36" width="0.35" height="5.93"/><rect class="cls-3" x="618.75" y="286.36" width="0.35" height="5.93"/><rect class="cls-3" x="616.96" y="286.36" width="0.35" height="5.93"/><rect class="cls-3" x="638.09" y="286.36" width="0.35" height="5.93"/><rect class="cls-3" x="636.3" y="286.36" width="0.35" height="5.93"/><rect class="cls-3" x="634.51" y="286.36" width="0.35" height="5.93"/><rect class="cls-3" x="644.63" y="286.36" width="0.35" height="5.93"/><rect class="cls-3" x="642.84" y="286.36" width="0.35" height="5.93"/><rect class="cls-3" x="641.05" y="286.36" width="0.35" height="5.93"/><rect class="cls-3" x="662.53" y="286.36" width="0.35" height="5.93"/><rect class="cls-3" x="660.74" y="286.36" width="0.35" height="5.93"/><rect class="cls-3" x="658.95" y="286.36" width="0.35" height="5.93"/><rect class="cls-3" x="669.69" y="286.36" width="0.35" height="5.93"/><rect class="cls-3" x="667.9" y="286.36" width="0.35" height="5.93"/><rect class="cls-3" x="666.11" y="286.36" width="0.35" height="5.93"/><rect class="cls-34" x="598.51" y="303.99" width="74" height="18.98"/><rect class="cls-32" x="672.52" y="215.04" width="48.19" height="21.8"/><rect class="cls-35" x="717.08" y="236.84" width="3.63" height="17.94"/><rect class="cls-35" x="672.52" y="236.84" width="3.63" height="17.94"/><rect class="cls-35" x="694.54" y="236.84" width="3.63" height="17.94"/><rect class="cls-35" x="674.33" y="248.53" width="44.57" height="6.25"/><rect class="cls-35" x="674.33" y="236.84" width="44.04" height="1.8"/><rect class="cls-33" x="679.12" y="262.59" width="34.46" height="32.27"/><rect class="cls-17" x="672.52" y="302.02" width="48.19" height="1.97"/><rect class="cls-35" x="673.55" y="254.78" width="1.61" height="47.24"/><rect class="cls-3" x="672.52" y="303.99" width="48.19" height="3.93"/><rect class="cls-35" x="718.29" y="254.78" width="1.61" height="47.24"/><rect class="cls-32" x="684.58" y="345.82" width="9.63" height="28.23"/><rect class="cls-3" x="672.52" y="286.36" width="48.19" height="0.63"/><rect class="cls-3" x="672.52" y="288.15" width="48.19" height="0.63"/><rect class="cls-3" x="672.52" y="300.36" width="48.19" height="0.63"/><rect class="cls-3" x="673.38" y="288.78" width="0.4" height="13.24"/><rect class="cls-3" x="676.96" y="288.78" width="0.4" height="13.24"/><rect class="cls-3" x="680.53" y="288.78" width="0.4" height="13.24"/><rect class="cls-3" x="684.11" y="288.78" width="0.4" height="13.24"/><rect class="cls-3" x="687.69" y="288.78" width="0.4" height="13.24"/><rect class="cls-3" x="691.27" y="288.78" width="0.4" height="13.24"/><rect class="cls-3" x="694.85" y="288.78" width="0.4" height="13.24"/><rect class="cls-3" x="698.43" y="288.78" width="0.4" height="13.24"/><rect class="cls-3" x="702.01" y="288.78" width="0.4" height="13.24"/><rect class="cls-3" x="705.59" y="288.78" width="0.4" height="13.24"/><rect class="cls-3" x="709.17" y="288.78" width="0.4" height="13.24"/><rect class="cls-3" x="712.75" y="288.78" width="0.4" height="13.24"/><rect class="cls-3" x="716.33" y="288.78" width="0.4" height="13.24"/><rect class="cls-3" x="719.91" y="288.78" width="0.4" height="13.24"/><rect class="cls-33" x="720.71" y="162.44" width="42.07" height="211.61"/><rect class="cls-33" x="720.71" y="162.44" width="42.07" height="1.38"/><rect class="cls-3" x="720.71" y="163.81" width="42.07" height="8.42"/><rect class="cls-36" x="720.71" y="172.23" width="42.07" height="23.52"/><rect class="cls-17" x="726.04" y="207.64" width="31.4" height="27.26"/><rect class="cls-36" x="726.87" y="208.53" width="29.74" height="5.63"/><rect class="cls-36" x="726.91" y="216.19" width="29.74" height="17.36"/><rect class="cls-17" x="733.93" y="208.07" width="0.86" height="6.09"/><rect class="cls-17" x="729.07" y="215.52" width="0.86" height="18.31"/><rect class="cls-17" x="734.71" y="215.52" width="0.86" height="18.31"/><rect class="cls-17" x="749.33" y="215.71" width="0.86" height="18.31"/><rect class="cls-17" x="745.43" y="215.71" width="0.86" height="18.31"/><rect class="cls-17" x="741.35" y="208.07" width="0.86" height="6.09"/><rect class="cls-17" x="749.33" y="208.3" width="0.86" height="6.09"/><rect class="cls-3" x="726.04" y="236.15" width="31.4" height="8.19"/><rect class="cls-3" x="724.46" y="266.11" width="34.84" height="13.17"/><rect class="cls-32" x="720.71" y="307.92" width="42.07" height="5.56"/><rect class="cls-36" x="724.54" y="293.69" width="35.35" height="10.29"/><rect class="cls-32" x="723.78" y="290.59" width="36.21" height="1.09"/><rect class="cls-32" x="732.7" y="339.93" width="12.58" height="34.08"/><rect class="cls-2" x="720.71" y="249.47" width="42.07" height="2.8"/><rect class="cls-36" x="720.71" y="247.68" width="42.07" height="2.8"/><rect class="cls-2" x="728.51" y="185.17" width="7.69" height="10.58"/><rect class="cls-36" x="724.46" y="254.78" width="34.74" height="10.77"/><rect class="cls-36" x="724.46" y="279.84" width="34.74" height="10.77"/><path class="cls-3" d="M279.44,327.85s1.91,6.83,7.16,10.25c-2-.29-3.21-.56-3.21-.56a18.5,18.5,0,0,1-5.59-9.81Z"/><path class="cls-29" d="M282.64,337a2,2,0,0,0,.21.87c.92,2,5.48,3.46,10.27,3.46,5.46,0,10.47-1.94,10.47-4.33V337c-1.07-2.35-5.07-4.24-10.47-4.24S282.64,334.66,282.64,337Z"/><path class="cls-37" d="M282.85,337.92c.92,2,5.48,3.46,10.27,3.46,5.46,0,10.47-1.94,10.47-4.33V337c-3.22-.22-5-.33-7.44-.33A62,62,0,0,0,282.85,337.92Z"/><path class="cls-3" d="M279.48,329.58s-2.4,6.48-6.84,9.13c1.54,0,2.51-.11,2.51-.11a19,19,0,0,0,5.6-8.93Z"/><path class="cls-29" d="M268.39,331.18a11.49,11.49,0,0,1-.19-2,11.79,11.79,0,0,1,23.58,0,11.49,11.49,0,0,1-.19,2Z"/><path class="cls-29" d="M257.22,336.07a1.89,1.89,0,0,0,.22.87c1,2,5.92,3.46,11.16,3.46,6,0,11.39-1.94,11.39-4.33V336c-1.07-2.35-5.47-4.24-11.39-4.24S257.22,333.68,257.22,336.07Z"/><path class="cls-37" d="M257.44,336.94c1,2,5.92,3.46,11.16,3.46,6,0,11.39-1.94,11.39-4.33V336c-3.22-.22-5.39-.33-8.06-.33A73.29,73.29,0,0,0,257.44,336.94Z"/><path class="cls-29" d="M280.71,344.2a1.3,1.3,0,0,0,.14.61c.66,1.39,3.85,2.52,7.5,2.64,4.18.14,7.79-1.08,7.84-2.73v-.05c-.63-1.64-3.51-3.05-7.64-3.19S280.76,342.55,280.71,344.2Z"/><path class="cls-3" d="M273.33,359.16H287l-5.12-5.87a10.2,10.2,0,0,1-2.51-6.71V342H275v6.39a19.84,19.84,0,0,1-.39,3.89Z"/><path class="cls-37" d="M280.84,344.8c.66,1.39,3.85,2.52,7.5,2.64,4.18.14,7.79-1.08,7.84-2.73v-.05c-2-.22-3.55-.35-5.41-.41A49.43,49.43,0,0,0,280.84,344.8Z"/><path class="cls-38" d="M264.45,340.4a1.9,1.9,0,0,0,.42,1.14c1.47,2,6.67,3.44,12.87,3.44s11.49-1.49,12.9-3.5a1.83,1.83,0,0,0,.38-1.09c0-2.53-5.95-4.59-13.28-4.59S264.45,337.87,264.45,340.4Z"/><rect class="cls-3" x="282.64" y="349.24" width="2.77" height="7.98" transform="translate(568.06 706.46) rotate(-180)"/><path class="cls-37" d="M264.87,341.54c1.47,2,6.67,3.44,12.87,3.44s11.49-1.49,12.9-3.5c-2.39-1-7.23-1.68-12.81-1.68S267.19,340.52,264.87,341.54Z"/><path class="cls-38" d="M278.13,349.64a1.27,1.27,0,0,0,.28.77c1,1.32,4.46,2.3,8.61,2.3s7.69-1,8.63-2.34a1.23,1.23,0,0,0,.26-.73c0-1.7-4-3.07-8.89-3.07S278.13,347.94,278.13,349.64Z"/><path class="cls-37" d="M278.41,350.41c1,1.32,4.46,2.3,8.61,2.3s7.69-1,8.63-2.34a25.87,25.87,0,0,0-8.57-1.13C283.26,349.24,280,349.72,278.41,350.41Z"/><rect class="cls-17" x="266.87" y="359.81" width="27.66" height="14.24"/><rect class="cls-2" x="265.05" y="356.99" width="31.32" height="2.83"/><path class="cls-3" d="M414.62,372.82s-.26.78.1.88,5-.11,5-.11.89-.07.78-.31a1.14,1.14,0,0,0-.81-.66,23,23,0,0,0-3.08-.11C416.05,372.61,414.62,372.82,414.62,372.82Z"/><path class="cls-39" d="M417.66,343.19s.75,1.09,1.59.82c.36-.07.27-.61.27-.61s.15-.22.1-.28a.3.3,0,0,0,0-.24s-.05-.27,0-.29.33.05.35,0,.14-.17-.16-.61-.16-.28-.16-.28a.3.3,0,0,0,0-.33,1,1,0,0,0-.07-.37.31.31,0,0,0-.3-.18h-1.43l-.7,0Z"/><polygon class="cls-39" points="416.13 342.64 416.13 343.58 417.75 344.1 417.75 343.41 417.22 340.67 417.19 340.62 415.92 341.47 416.13 342.64"/><path class="cls-40" d="M414.15,358.18a15.51,15.51,0,0,1,.44,6.5c-.32,3.53-.23,5.93,0,6.4.14.26-.13.73-.16,1.09s-.13,1,0,1a13.52,13.52,0,0,0,2.14-.07c.25-.12,1.13-.34,1.17-.65s.12-2.29.21-2.45.29-.19.31-.51,0-1.54-.23-1.56-.65.09-.65-.16,1-6.19,1-6.19l.41-3.11Z"/><path class="cls-14" d="M417.19,341.15a1,1,0,0,1,.75.52l.21-.16s-.14-.57.07-.68a3.61,3.61,0,0,1,1.42,0l-.22-.43-1.1,0-1.29.1Z"/><path class="cls-14" d="M415.75,341.76s0,.93.33,1.11c0,0,.49-.15.51-.29s0-.75.17-1a3.52,3.52,0,0,1,.43-.44l-.16-.67-1.33,1.19Z"/><path class="cls-41" d="M417.22,340.67a27,27,0,0,0,3.4-.16,10.11,10.11,0,0,0-1.22-.6,2.47,2.47,0,0,0-1.32.09A2.63,2.63,0,0,0,417.22,340.67Z"/><path class="cls-2" d="M419.24,351s.31,0,.34-.3a11.92,11.92,0,0,0,0-1.63,2.76,2.76,0,0,0-.15-.81.22.22,0,0,0-.2-.1Z"/><path class="cls-39" d="M414.84,353.64s-.72.19-1.13,2.32-.67,2-.57,2.11,6.73.54,6.73.54.42.12.37-.25-.37-3.6-1-4.42C419.24,353.52,414.84,353.64,414.84,353.64Z"/><path class="cls-39" d="M419.34,352.78l.12-4.07a3.4,3.4,0,0,0-.28-1.32,17.71,17.71,0,0,0-1.14-2.32,10.4,10.4,0,0,0-1-.74l-.32.45v2.07L417,351l.26,2,1.13.39Z"/><path class="cls-40" d="M419.29,354a20.78,20.78,0,0,0-4.64-.31c-.08-.17-.1-1.3.12-1.28a44.07,44.07,0,0,1,4.66.44C419.46,353,419.52,354,419.29,354Z"/><path class="cls-42" d="M418.72,337.48l-4,3.11s-.82,1,.16.79c.33-.15.53-.27.53-.27a7.21,7.21,0,0,1,3.47-2.12c.15-.07,0-1.34,0-1.34S418.86,337.37,418.72,337.48Z"/><polygon class="cls-3" points="418.16 344.56 417.81 344.14 416.96 340.65 417.18 340.6 418.16 344.56"/><path class="cls-43" d="M415.39,341.11l.36.66a7,7,0,0,1,3.64-1.85l-.53-.93A6.3,6.3,0,0,0,415.39,341.11Z"/><path class="cls-2" d="M419.85,373.43a8.61,8.61,0,0,0-.28-2.07,6.48,6.48,0,0,1,0-1.32,1.55,1.55,0,0,0-.31-.91,4.94,4.94,0,0,1-.13-1.78.28.28,0,0,1-.16-.33c0-.25.29-.32.31-.49s.23-2,.28-3.06c0-.41.34-4.6.34-4.6l-1.13-.07-.36,2.81.41.06L418,368s.26.14.24.91,0,.78-.31,1.15c-.1.81-.21,2.45-.21,2.45l-.1,1a.08.08,0,0,0,.08.09h2A.11.11,0,0,0,419.85,373.43Z"/><polygon class="cls-2" points="419.35 357.81 419.82 354.72 420.05 353.16 420.83 353.24 420.62 354.74 419.98 354.63 419.46 358.04 419.35 357.81"/><path class="cls-42" d="M417.61,357.62a.85.85,0,0,0,.28.78,2,2,0,0,1,.57,1.14c0,.18.15.43.33.36s.15-.29.08-.47a1.64,1.64,0,0,1-.07-.47l.46,1s.29.29.43,0c0,0,.48.28.54-.19,0,0,0-.22-.1-.29s.29,0,.28-.26a2,2,0,0,0-.4-.85,7.79,7.79,0,0,1-.74-.92c-.1-.2-.4-.15-.4-.15Z"/><path class="cls-44" d="M417.61,357.62a.85.85,0,0,0,.28.78,2,2,0,0,1,.57,1.14c0,.18.15.43.33.36s.15-.29.08-.47a1.64,1.64,0,0,1-.07-.47l.46,1s.29.29.43,0c0,0,.48.28.54-.19,0,0,0-.22-.1-.29s.29,0,.28-.26a2,2,0,0,0-.4-.85,7.79,7.79,0,0,1-.74-.92c-.1-.2-.4-.15-.4-.15Z"/><path class="cls-42" d="M415.65,344.1a4.4,4.4,0,0,0-1.72,4.15,23,23,0,0,0,3.42,9.74,3.35,3.35,0,0,0,1.83-.79,24.23,24.23,0,0,1-1.44-6.15c-.1-2.61.1-5.1-.79-5.38a1.54,1.54,0,0,0-.77-.13l0-1.21Z"/><g class="cls-45"><rect class="cls-43" x="415.62" y="354.78" width="3.03" height="0.28"/><rect class="cls-43" x="415.76" y="355.25" width="3.03" height="0.28"/></g><polygon class="cls-46" points="419.24 358.66 419.68 359.96 419.7 359.92 419.73 359.93 419.27 358.58 419.24 358.66"/><polygon class="cls-46" points="420.17 359.43 419.61 358.35 419.58 358.42 420.13 359.45 420.17 359.46 420.15 359.44 420.14 359.43 420.17 359.43"/><polygon class="cls-43" points="415.83 373.21 416.07 373.2 416.54 358.19 416.31 358.18 415.83 373.21"/><path class="cls-42" d="M420.52,353.23s.32-3.78.86-4.72h.1s.4,1.13-.64,4.73Z"/><path class="cls-3" d="M418,368s-.67.07-.65-.16,1-6.19,1-6.19l.41.06Z"/><path class="cls-39" d="M416.35,345.54a1.75,1.75,0,0,0-1.89,1.53,16.58,16.58,0,0,0,.35,5.2l0,.09a14.77,14.77,0,0,1-.89-4.72c.18-1.68.6-2.69,1-3a2.32,2.32,0,0,0,.62-.88h.73l.47.91Z"/><path class="cls-42" d="M415.45,344.06a.94.94,0,0,1,.47-.79c.52-.39,1.83.84,1.83.84s.74.68.64,1.31-.19,1.08-.3,1-.57-1.35-1.43-1.83A3.33,3.33,0,0,0,415.45,344.06Z"/><path class="cls-47" d="M416.33,344.35l0,1.2,1.06.27V345S416.76,344.36,416.33,344.35Z"/><path class="cls-3" d="M468.94,372.82s.26.78-.1.88-5-.11-5-.11-.89-.07-.78-.31a1.14,1.14,0,0,1,.81-.66,23,23,0,0,1,3.08-.11C467.51,372.61,468.94,372.82,468.94,372.82Z"/><path class="cls-39" d="M465.9,343.19s-.75,1.09-1.59.82c-.36-.07-.27-.61-.27-.61s-.15-.22-.1-.28a.3.3,0,0,1,0-.24s.05-.27,0-.29-.33.05-.35,0-.14-.17.16-.61.16-.28.16-.28a.3.3,0,0,1,0-.33,1,1,0,0,1,.07-.37.31.31,0,0,1,.3-.18h1.43l.7,0Z"/><polygon class="cls-39" points="467.43 342.64 467.43 343.58 465.81 344.1 465.81 343.41 466.34 340.67 466.37 340.62 467.64 341.47 467.43 342.64"/><path class="cls-40" d="M469.41,358.18a15.51,15.51,0,0,0-.44,6.5c.32,3.53.23,5.93,0,6.4-.14.26.13.73.16,1.09s.13,1,0,1a13.52,13.52,0,0,1-2.14-.07c-.25-.12-1.13-.34-1.17-.65s-.12-2.29-.21-2.45-.29-.19-.31-.51,0-1.54.23-1.56.65.09.65-.16-1-6.19-1-6.19l-.41-3.11Z"/><path class="cls-14" d="M466.37,341.15a1,1,0,0,0-.75.52l-.21-.16s.14-.57-.07-.68a3.61,3.61,0,0,0-1.42,0l.22-.43,1.1,0,1.29.1Z"/><path class="cls-14" d="M467.81,341.76s0,.93-.33,1.11c0,0-.49-.15-.51-.29s0-.75-.17-1a3.52,3.52,0,0,0-.43-.44l.16-.67,1.33,1.19Z"/><path class="cls-41" d="M466.34,340.67a27,27,0,0,1-3.4-.16,10.11,10.11,0,0,1,1.22-.6,2.47,2.47,0,0,1,1.32.09A2.63,2.63,0,0,1,466.34,340.67Z"/><path class="cls-2" d="M464.32,351s-.31,0-.34-.3a11.92,11.92,0,0,1,0-1.63,2.76,2.76,0,0,1,.15-.81.22.22,0,0,1,.2-.1Z"/><path class="cls-39" d="M468.72,353.64s.72.19,1.13,2.32.67,2,.57,2.11-6.73.54-6.73.54-.42.12-.37-.25.37-3.6,1-4.42C464.32,353.52,468.72,353.64,468.72,353.64Z"/><path class="cls-39" d="M464.22,352.78l-.12-4.07a3.4,3.4,0,0,1,.28-1.32,17.71,17.71,0,0,1,1.14-2.32,10.4,10.4,0,0,1,1-.74l.32.45v2.07l-.31,4.18-.26,2-1.13.39Z"/><path class="cls-40" d="M464.27,354a20.78,20.78,0,0,1,4.64-.31c.08-.17.1-1.3-.12-1.28a44.07,44.07,0,0,0-4.66.44C464.1,353,464,354,464.27,354Z"/><path class="cls-42" d="M464.84,337.48l4,3.11s.82,1-.16.79c-.33-.15-.53-.27-.53-.27a7.21,7.21,0,0,0-3.47-2.12c-.15-.07,0-1.34,0-1.34S464.7,337.37,464.84,337.48Z"/><polygon class="cls-3" points="465.4 344.56 465.75 344.14 466.6 340.65 466.38 340.6 465.4 344.56"/><path class="cls-43" d="M468.17,341.11l-.36.66a7,7,0,0,0-3.64-1.85l.53-.93A6.3,6.3,0,0,1,468.17,341.11Z"/><path class="cls-2" d="M463.71,373.43a8.61,8.61,0,0,1,.28-2.07,6.48,6.48,0,0,0,0-1.32,1.55,1.55,0,0,1,.31-.91,4.94,4.94,0,0,0,.13-1.78.28.28,0,0,0,.16-.33c0-.25-.29-.32-.31-.49s-.23-2-.28-3.06c0-.41-.34-4.6-.34-4.6l1.13-.07.36,2.81-.41.06.75,6.3s-.26.14-.24.91,0,.78.31,1.15c.1.81.21,2.45.21,2.45l.1,1a.08.08,0,0,1-.08.09h-2A.11.11,0,0,1,463.71,373.43Z"/><polygon class="cls-2" points="464.21 357.81 463.74 354.72 463.51 353.16 462.73 353.24 462.94 354.74 463.58 354.63 464.1 358.04 464.21 357.81"/><path class="cls-42" d="M465.95,357.62a.85.85,0,0,1-.28.78,2,2,0,0,0-.57,1.14c0,.18-.15.43-.33.36s-.15-.29-.08-.47a1.64,1.64,0,0,0,.07-.47l-.46,1s-.29.29-.43,0c0,0-.48.28-.54-.19,0,0,0-.22.1-.29s-.29,0-.28-.26a2,2,0,0,1,.4-.85,7.79,7.79,0,0,0,.74-.92c.1-.2.4-.15.4-.15Z"/><path class="cls-48" d="M465.95,357.62a.85.85,0,0,1-.28.78,2,2,0,0,0-.57,1.14c0,.18-.15.43-.33.36s-.15-.29-.08-.47a1.64,1.64,0,0,0,.07-.47l-.46,1s-.29.29-.43,0c0,0-.48.28-.54-.19,0,0,0-.22.1-.29s-.29,0-.28-.26a2,2,0,0,1,.4-.85,7.79,7.79,0,0,0,.74-.92c.1-.2.4-.15.4-.15Z"/><path class="cls-42" d="M467.91,344.1a4.4,4.4,0,0,1,1.72,4.15,23,23,0,0,1-3.42,9.74,3.35,3.35,0,0,1-1.83-.79,24.23,24.23,0,0,0,1.44-6.15c.1-2.61-.1-5.1.79-5.38a1.54,1.54,0,0,1,.77-.13l0-1.21Z"/><g class="cls-49"><rect class="cls-43" x="464.9" y="354.78" width="3.03" height="0.28" transform="translate(932.84 709.84) rotate(-180)"/><rect class="cls-43" x="464.77" y="355.25" width="3.03" height="0.28" transform="translate(932.57 710.78) rotate(-180)"/></g><polygon class="cls-46" points="464.32 358.66 463.88 359.96 463.86 359.92 463.83 359.93 464.29 358.58 464.32 358.66"/><polygon class="cls-46" points="463.39 359.43 463.95 358.35 463.98 358.42 463.43 359.45 463.39 359.46 463.4 359.44 463.42 359.43 463.39 359.43"/><polygon class="cls-43" points="467.73 373.21 467.49 373.2 467.01 358.19 467.25 358.18 467.73 373.21"/><path class="cls-42" d="M463,353.23s-.32-3.78-.86-4.72h-.1s-.4,1.13.64,4.73Z"/><path class="cls-3" d="M465.51,368s.67.07.65-.16-1-6.19-1-6.19l-.41.06Z"/><path class="cls-39" d="M467.21,345.54a1.75,1.75,0,0,1,1.89,1.53,16.58,16.58,0,0,1-.35,5.2l0,.09a14.77,14.77,0,0,0,.89-4.72c-.18-1.68-.6-2.69-1-3a2.32,2.32,0,0,1-.62-.88h-.73l-.47.91Z"/><path class="cls-42" d="M468.11,344.06a.94.94,0,0,0-.47-.79c-.52-.39-1.83.84-1.83.84s-.74.68-.64,1.31.19,1.08.3,1,.57-1.35,1.43-1.83A3.33,3.33,0,0,1,468.11,344.06Z"/><path class="cls-47" d="M467.23,344.35l0,1.2-1.06.27V345S466.8,344.36,467.23,344.35Z"/><rect class="cls-1" x="135.03" y="385.75" width="219.2" height="92.92"/><g class="cls-50"><path class="cls-29" d="M128.67,286.49c-66.06,0-119.85,44.88-121.9,100.9h243.8c-2.05-56-55.84-100.9-121.9-100.9"/><path class="cls-51" d="M224.68,387.39c-1.62-42.91-44-77.28-96-77.28s-94.39,34.37-96,77.28Z"/><path class="cls-52" d="M159.37,359.39c-.23,5.82-6.25,11.29-13.64,11.29s-13.41-5.46-13.63-11.29H136c.21,3.49,4.49,8,9.74,8s9.54-4.51,9.74-8Z"/><path class="cls-52" d="M183.15,359.39c-.23,5.82-6.25,11.29-13.64,11.29s-13.41-5.46-13.63-11.29h3.89c.21,3.49,4.49,8,9.74,8s9.54-4.51,9.74-8Z"/></g><path class="cls-53" d="M60.42,281.66V331h41.83v-7.51h7.51V331h85.81V281.66Zm34.32,46.12H77.59V301.85c0-6.48,7.8-12.07,8.58-12.56.78.49,8.58,6.09,8.58,12.56Zm48.27,0H110.84V303.84c0-7,16.09-14.33,16.09-14.33S143,296.83,143,303.84Zm38.61,0H164.47V301.85c0-6.48,7.8-12.07,8.58-12.56.78.49,8.58,6.09,8.58,12.56Z"/><path class="cls-53" d="M63.64,229.1v34.32h15V245.53c0-4.72,6.87-8.8,7.51-9.16.64.36,7.51,4.44,7.51,9.16v17.89H116.2V245.53c0-4.72,10.72-8.8,11.8-9.16,1.08.36,11.8,4.44,11.8,9.16v17.89h21.45V245.53c0-4.72,6.33-8.8,7-9.16.64.36,7,4.44,7,9.16v17.89h16.09V229.1Z"/><rect class="cls-10" x="57.37" y="329.99" width="44.74" height="3.58"/><rect class="cls-10" x="52.82" y="333.57" width="49.29" height="8.11"/><rect class="cls-10" x="109.97" y="329.99" width="85.94" height="3.58" transform="translate(305.88 663.56) rotate(-180)"/><rect class="cls-10" x="109.98" y="333.57" width="93.05" height="8.15" transform="translate(313 675.29) rotate(-180)"/><rect class="cls-47" x="99.96" y="170.16" width="55.93" height="14.78"/><rect class="cls-10" x="93.39" y="193.39" width="69.07" height="29.73"/><polygon class="cls-2" points="162.46 193.39 93.39 193.39 99.95 182.44 155.9 182.44 162.46 193.39"/><rect class="cls-47" x="57.92" y="275.61" width="140.01" height="5.14"/><rect class="cls-30" x="60.32" y="264.33" width="135.22" height="11.27"/><rect class="cls-30" x="98.22" y="218.08" width="59.41" height="10.06"/><rect class="cls-3" x="64.38" y="227.19" width="127.09" height="1.91"/><rect class="cls-53" x="76.24" y="216.56" width="1.44" height="8.95"/><rect class="cls-53" x="79.37" y="216.56" width="1.44" height="8.95"/><rect class="cls-53" x="82.49" y="216.56" width="1.44" height="8.95"/><rect class="cls-53" x="85.62" y="216.56" width="1.44" height="8.95"/><rect class="cls-53" x="88.75" y="216.56" width="1.44" height="8.95"/><rect class="cls-47" x="73.44" y="215.04" width="19.54" height="3.04"/><rect class="cls-53" x="74.45" y="224.85" width="18.53" height="2.33"/><rect class="cls-53" x="66.4" y="213.35" width="8.16" height="13.83"/><path class="cls-2" d="M74.45,211.82c0-1.65-1.78-3-4-3s-4,1.34-4,3"/><polygon class="cls-47" points="73.06 213.35 67.89 213.35 66.5 211.82 74.45 211.82 73.06 213.35"/><rect class="cls-53" x="92.19" y="213.35" width="8.16" height="13.83"/><path class="cls-2" d="M100.25,211.82c0-1.65-1.78-3-4-3s-4,1.34-4,3"/><polygon class="cls-47" points="98.85 213.35 93.69 213.35 92.29 211.82 100.25 211.82 98.85 213.35"/><rect class="cls-53" x="165.34" y="216.56" width="1.44" height="8.95"/><rect class="cls-53" x="168.47" y="216.56" width="1.44" height="8.95"/><rect class="cls-53" x="171.6" y="216.56" width="1.44" height="8.95"/><rect class="cls-53" x="174.72" y="216.56" width="1.44" height="8.95"/><rect class="cls-53" x="177.85" y="216.56" width="1.44" height="8.95"/><rect class="cls-47" x="162.55" y="215.04" width="19.54" height="3.04"/><rect class="cls-53" x="163.56" y="224.85" width="18.53" height="2.33"/><rect class="cls-53" x="155.5" y="213.35" width="8.16" height="13.83"/><path class="cls-2" d="M163.56,211.82c0-1.65-1.78-3-4-3s-4,1.34-4,3"/><polygon class="cls-47" points="162.16 213.35 157 213.35 155.6 211.82 163.56 211.82 162.16 213.35"/><rect class="cls-53" x="181.3" y="213.35" width="8.16" height="13.83"/><path class="cls-2" d="M189.35,211.82c0-1.65-1.78-3-4-3s-4,1.34-4,3"/><polygon class="cls-47" points="187.96 213.35 182.79 213.35 181.4 211.82 189.35 211.82 187.96 213.35"/><circle class="cls-17" cx="127.93" cy="210.71" r="7.11"/><rect class="cls-30" x="75.18" y="282.81" width="23" height="3.32"/><rect class="cls-30" x="97.09" y="286.13" width="1.09" height="43.58"/><rect class="cls-30" x="108.47" y="282.81" width="37.03" height="3.32"/><rect class="cls-30" x="161.9" y="282.81" width="22.69" height="3.32"/><rect class="cls-30" x="143.99" y="286.13" width="1.52" height="43.58"/><path class="cls-54" d="M93.34,158.85s-1.15,11.36,7.35,11.36,7-6.09,8.83-8.5,4-2.53,5.74-.8c0,0,3.1,2.18,4,4.13s4.25-1.49,4.25-1.49-4.93-6.2-10.79-7.92-7.57,6.43-9.29,7.29-6.54,1.55-4.25-4.3,2-6.89,0-6.77c-1.16,0-1.24.95-3,.63s-4.73-.39-5.52.32S86.21,158.52,93.34,158.85Z"/><path class="cls-54" d="M162.61,158.85s1.15,11.36-7.35,11.36-7-6.09-8.83-8.5-4-2.53-5.74-.8c0,0-3.1,2.18-4,4.13s-4.25-1.49-4.25-1.49,4.93-6.2,10.79-7.92,7.57,6.43,9.29,7.29,6.54,1.55,4.25-4.3-2-6.89,0-6.77c1.16,0,1.24.95,3,.63s4.73-.39,5.52.32S169.75,158.52,162.61,158.85Z"/><path class="cls-10" d="M132.54,151c0-4.49-4.55-7.08-4.55-7.76v-.15s.06,0,0,.07,0-.07,0-.07v.15a9.46,9.46,0,0,0-4.33,7.76c0,7.54-25.28,19.11-25.28,19.11H158S132.54,158.54,132.54,151Z"/><rect class="cls-10" x="187.39" y="261.77" width="8.16" height="13.83"/><path class="cls-2" d="M195.45,260.24c0-1.65-1.78-3-4-3s-4,1.34-4,3"/><polygon class="cls-47" points="194.05 261.77 188.89 261.77 187.49 260.24 195.45 260.24 194.05 261.77"/><rect class="cls-10" x="148.31" y="261.77" width="8.16" height="13.83"/><path class="cls-2" d="M156.37,260.24c0-1.65-1.78-3-4-3s-4,1.34-4,3"/><polygon class="cls-47" points="154.97 261.77 149.81 261.77 148.41 260.24 156.37 260.24 154.97 261.77"/><rect class="cls-10" x="99.4" y="261.77" width="8.16" height="13.83"/><path class="cls-2" d="M107.45,260.24c0-1.65-1.78-3-4-3s-4,1.34-4,3"/><polygon class="cls-47" points="106.06 261.77 100.89 261.77 99.5 260.24 107.45 260.24 106.06 261.77"/><rect class="cls-10" x="60.32" y="261.77" width="8.16" height="13.83"/><path class="cls-2" d="M68.37,260.24c0-1.65-1.78-3-4-3s-4,1.34-4,3"/><polygon class="cls-47" points="66.98 261.77 61.81 261.77 60.42 260.24 68.37 260.24 66.98 261.77"/><path class="cls-55" d="M1273.23,386.93v1.72c0,.88-.19,5.4-5.18,8.76a19.52,19.52,0,0,1-9.83,3.1c-.9.08-1.8.25-2.86.26-.64,0-1.16.1-1.74.1H814.12c-6,.29-4.11.11-9.61.46-2.11.06-6.72.22-7.07.22l-6.72.39c-10.88,0-19.76,5.82-19.76,12.87s8.88,12.87,19.76,12.87h340.76a21.23,21.23,0,0,1,3.1,0,20.59,20.59,0,0,1,7.32,2.39c1.08.6,3.18,1.3,4,2.07,2.71,2.38,5.42,5.43,5.42,8.67v1.7c0,7-9.84,10.88-19.88,10.88H266.85c-2.88,0-5.59.15-8-.5-.19,0-.37,0-.57,0a10.83,10.83,0,0,1-1.79-.67,14.94,14.94,0,0,1-3.8-2.32,7.91,7.91,0,0,1-1.61-2.73c-.81-1.48-.62-2.92-.62-4.63v-1.7c0-7,6.32-13.16,16.35-13.16H378.08c10,0,15.92-6,15.92-13v-.05c0-7-5.87-13.72-15.92-13.72H21.51c-2.26,0-3.93.1-5.78-.63-5.64-2.2-8.95-6.68-8.95-11.59v-1.72c0-7,6.81-12.88,16.82-12.88H1254.67a24.7,24.7,0,0,1,12.61,3.38l1.84,1.47A10.23,10.23,0,0,1,1273.23,386.93Z"/><rect class="cls-55" x="908.12" y="483.07" width="29.52" height="27.8" rx="12.96" ry="12.96"/><line class="cls-56" x1="27.28" y1="388" x2="30.28" y2="388"/><line class="cls-57" x1="38.24" y1="388" x2="1245.48" y2="388"/><line class="cls-56" x1="1249.46" y1="388" x2="1252.46" y2="388"/><path class="cls-55" d="M870.06,495.89v2.16c0,7-6.58,12.22-14.06,12.22H737.08a9.31,9.31,0,0,1-4.17-.66c-4.94-1.92-7.48-6.22-7.48-11.56v-2.16c0-7,4.17-13.51,11.66-13.51H856a14,14,0,0,1,3.4.78,13.77,13.77,0,0,1,10,9.36A13,13,0,0,1,870.06,495.89Z"/><path class="cls-18" d="M555.72,360.66l-.65-.18a2.33,2.33,0,0,1-1.64-2.87l3.64-13.35a2.34,2.34,0,0,1,2.87-1.64l.65.18a2.34,2.34,0,0,1,1.64,2.87L558.59,359a2.34,2.34,0,0,1-2.87,1.64"/><path class="cls-58" d="M561.58,369.11a9.4,9.4,0,1,1-9.4-9.4,9.4,9.4,0,0,1,9.4,9.4"/><path class="cls-2" d="M557.31,361.24l-10.09,15.86a9.4,9.4,0,1,1,10.09-15.86"/><path class="cls-3" d="M557.66,369.12a5.49,5.49,0,1,1-5.49-5.49,5.49,5.49,0,0,1,5.49,5.49"/><rect class="cls-3" x="495.45" y="362.58" width="21.92" height="6.53"/><path class="cls-18" d="M516.59,363.11H499.2a2.14,2.14,0,0,1-2.14-2.14v-.27a2.14,2.14,0,0,1,2.14-2.14h17.39a2.14,2.14,0,0,1,2.14,2.14V361a2.14,2.14,0,0,1-2.14,2.14"/><path class="cls-18" d="M514,361.9l-1.15-.31a2.08,2.08,0,0,1-1.46-2.55l2.73-10a2.08,2.08,0,0,1,2.55-1.46l1.15.31a2.08,2.08,0,0,1,1.46,2.55l-2.73,10A2.08,2.08,0,0,1,514,361.9"/><rect class="cls-2" x="517.73" y="361.22" width="22.63" height="2.44"/><rect class="cls-59" x="505.71" y="351.67" width="24.75" height="1.09" transform="translate(137.17 849.59) rotate(-86.76)"/><rect class="cls-59" x="511.05" y="351.67" width="24.75" height="1.09" transform="translate(142.21 854.92) rotate(-86.76)"/><path class="cls-18" d="M560.34,361.78H540.4a2.28,2.28,0,1,1,0-4.55h19.94a2.28,2.28,0,0,1,0,4.55"/><rect class="cls-18" x="517.73" y="363.66" width="22.63" height="4.65"/><polygon class="cls-59" points="565.34 360.34 565.34 368.38 526.26 368.42 531.15 363.74 533.45 361.37 534.5 360.34 565.34 360.34"/><polygon class="cls-3" points="565.34 360.34 565.34 363.5 531.37 363.5 534.5 360.34 565.34 360.34"/><polygon class="cls-17" points="565.34 360.34 565.34 361.92 533.15 361.7 534.5 360.34 565.34 360.34"/><rect class="cls-3" x="553.65" y="368.3" width="13.64" height="2.32"/><rect class="cls-3" x="517.73" y="368.3" width="22.63" height="2.32"/><path class="cls-58" d="M551.79,370.7,541.7,386.55a9.4,9.4,0,1,1,10.09-15.86"/><path class="cls-14" d="M556.06,378.57a9.4,9.4,0,1,1-9.4-9.4,9.4,9.4,0,0,1,9.4,9.4"/><path class="cls-3" d="M560.52,373.74h-4.2c-1.49-3.15-5.23-5.1-9.6-5.1s-8.11,2-9.6,5.1h-4.2c1.53-4.73,7.13-8.38,13.8-8.38s12.27,3.65,13.8,8.38"/><path d="M551.79,370.7,541.7,386.55a9.4,9.4,0,1,1,10.09-15.86"/><path class="cls-3" d="M552.14,378.58a5.49,5.49,0,1,1-5.49-5.49,5.49,5.49,0,0,1,5.49,5.49"/><path class="cls-58" d="M494.2,368.19l-9.72,15.27a9.05,9.05,0,1,1,9.72-15.27"/><path class="cls-14" d="M498.31,375.78a9.05,9.05,0,1,1-9.05-9.05,9.05,9.05,0,0,1,9.05,9.05"/><path d="M494.2,368.19l-9.72,15.27a9.05,9.05,0,1,1,9.72-15.27"/><path class="cls-3" d="M494.54,375.78a5.29,5.29,0,1,1-5.29-5.29,5.29,5.29,0,0,1,5.29,5.29"/><path class="cls-17" d="M491.67,359.43a8.56,8.56,0,0,0-8.18,8.55c3.13-2,6-2.87,8.18,0Z"/><rect class="cls-3" x="517.73" y="368.36" width="2.6" height="7.22"/><rect class="cls-3" x="515.12" y="363.66" width="2.6" height="7.22"/><polygon class="cls-59" points="563.76 354.82 563.76 355.61 532.56 355.61 533.4 354.82 563.76 354.82"/><polygon class="cls-59" points="563.76 357.98 563.76 358.77 532.56 358.77 533.4 357.98 563.76 357.98"/><polygon class="cls-3" points="497.24 356.86 491.17 354.41 499.72 339.57 502.94 340.71 497.24 356.86"/><polygon class="cls-3" points="494.73 356.86 488.65 354.41 497.2 339.57 500.43 340.71 494.73 356.86"/><polygon class="cls-59" points="495.88 356.86 489.81 354.41 498.36 339.57 501.59 340.71 495.88 356.86"/><rect class="cls-59" x="535.22" y="354.8" width="1.08" height="6.57"/><path class="cls-17" d="M565.45,339.86l-65.65,1.43-1.73,0a5.31,5.31,0,0,1-5.41-5c0-.08,0-.15,0-.22v-.56h.27l1.63,0,54.89-1.19c6.27-.14,12.09,1.66,15.19,4.7Z"/><rect class="cls-2" x="495.45" y="368.26" width="22.63" height="6.39"/><rect class="cls-18" x="495.45" y="373.02" width="22.63" height="4.65"/><path class="cls-3" d="M498.33,354v24.89c-2.36,0-4.19-1.24-5.7-2h0a8.8,8.8,0,0,1-3-6.53V354Z"/><path class="cls-17" d="M492.81,354V376.9h-.2c-2.49-1.58-4.53-4-4.53-6.53V354Z"/><rect class="cls-3" x="496.09" y="375.53" width="24.25" height="2.32"/><rect class="cls-1" x="480.21" y="334.34" width="87.08" height="53.63"/><rect class="cls-1" x="480.21" y="334.34" width="87.08" height="53.63"/><path class="cls-3" d="M599.08,327.85s1.91,6.83,7.16,10.25c-2-.29-3.21-.56-3.21-.56a18.5,18.5,0,0,1-5.59-9.81Z"/><path class="cls-29" d="M602.28,337a2,2,0,0,0,.21.87c.92,2,5.48,3.46,10.27,3.46,5.46,0,10.47-1.94,10.47-4.33V337c-1.07-2.35-5.07-4.24-10.47-4.24S602.28,334.66,602.28,337Z"/><path class="cls-37" d="M602.49,337.92c.92,2,5.48,3.46,10.27,3.46,5.46,0,10.47-1.94,10.47-4.33V337c-3.22-.22-5-.33-7.44-.33A62,62,0,0,0,602.49,337.92Z"/><path class="cls-3" d="M599.12,329.58s-2.4,6.48-6.84,9.13c1.54,0,2.51-.11,2.51-.11a19,19,0,0,0,5.6-8.93Z"/><path class="cls-29" d="M588,331.18a11.49,11.49,0,0,1-.19-2,11.79,11.79,0,0,1,23.58,0,11.49,11.49,0,0,1-.19,2Z"/><path class="cls-29" d="M576.85,336.07a1.89,1.89,0,0,0,.22.87c1,2,5.92,3.46,11.16,3.46,6,0,11.39-1.94,11.39-4.33V336c-1.07-2.35-5.47-4.24-11.39-4.24S576.85,333.68,576.85,336.07Z"/><path class="cls-37" d="M577.08,336.94c1,2,5.92,3.46,11.16,3.46,6,0,11.39-1.94,11.39-4.33V336c-3.22-.22-5.39-.33-8.06-.33A73.29,73.29,0,0,0,577.08,336.94Z"/><path class="cls-29" d="M600.34,344.2a1.3,1.3,0,0,0,.14.61c.66,1.39,3.85,2.52,7.5,2.64,4.18.14,7.79-1.08,7.84-2.73v-.05c-.63-1.64-3.51-3.05-7.64-3.19S600.4,342.55,600.34,344.2Z"/><path class="cls-3" d="M593,359.16h13.7l-5.12-5.87a10.2,10.2,0,0,1-2.51-6.71V342h-4.39v6.39a19.84,19.84,0,0,1-.39,3.89Z"/><path class="cls-37" d="M600.48,344.8c.66,1.39,3.85,2.52,7.5,2.64,4.18.14,7.79-1.08,7.84-2.73v-.05c-2-.22-3.55-.35-5.41-.41A49.43,49.43,0,0,0,600.48,344.8Z"/><path class="cls-38" d="M584.09,340.4a1.9,1.9,0,0,0,.42,1.14c1.47,2,6.67,3.44,12.87,3.44s11.49-1.49,12.9-3.5a1.83,1.83,0,0,0,.38-1.09c0-2.53-5.95-4.59-13.28-4.59S584.09,337.87,584.09,340.4Z"/><rect class="cls-3" x="602.28" y="349.24" width="2.77" height="7.98" transform="translate(1207.33 706.46) rotate(-180)"/><path class="cls-37" d="M584.51,341.54c1.47,2,6.67,3.44,12.87,3.44s11.49-1.49,12.9-3.5c-2.39-1-7.23-1.68-12.81-1.68S586.83,340.52,584.51,341.54Z"/><path class="cls-38" d="M597.77,349.64a1.27,1.27,0,0,0,.28.77c1,1.32,4.46,2.3,8.61,2.3s7.69-1,8.63-2.34a1.23,1.23,0,0,0,.26-.73c0-1.7-4-3.07-8.89-3.07S597.77,347.94,597.77,349.64Z"/><path class="cls-37" d="M598,350.41c1,1.32,4.46,2.3,8.61,2.3s7.69-1,8.63-2.34a25.87,25.87,0,0,0-8.57-1.13C602.9,349.24,599.6,349.72,598,350.41Z"/><rect class="cls-17" x="586.51" y="359.81" width="27.66" height="14.24"/><rect class="cls-2" x="584.68" y="356.99" width="31.32" height="2.83"/><path class="cls-28" d="M1226.85,374.05h22.65a17.63,17.63,0,0,0,9.67-15.4c0-10.12-9.4-18.31-21-18.31s-21,8.18-21,18.3A17.64,17.64,0,0,0,1226.85,374.05Z"/><path class="cls-29" d="M1239.46,340.34v33.71h11.14a17.63,17.63,0,0,0,9.67-15.4C1260.27,348.58,1251,340.43,1239.46,340.34Z"/></g></svg>