<svg xmlns="http://www.w3.org/2000/svg" xmlns:xlink="http://www.w3.org/1999/xlink" viewBox="0 0 1180.73 471.85"><defs><style>.cls-1,.cls-56,.cls-57{fill:none;}.cls-2{fill:#415947;}.cls-3{fill:#84e895;}.cls-4{fill:#da0100;}.cls-5{fill:#8a0000;}.cls-6{fill:#971c1c;}.cls-7{fill:#cc8f8f;}.cls-8{fill:#fff;}.cls-9{fill:#e13433;}.cls-10{fill:#e96766;}.cls-11{fill:#3d3d3d;}.cls-12{fill:#213b5c;}.cls-13{fill:#475c78;}.cls-14{fill:#61748b;}.cls-15{fill:url(#linear-gradient);}.cls-16{fill:#1a1a1a;}.cls-17{fill:#202020;}.cls-18{fill:#df2524;}.cls-19,.cls-33{fill:#ebb162;}.cls-20{fill:#425874;}.cls-21{fill:url(#linear-gradient-2);}.cls-22{fill:url(#linear-gradient-3);}.cls-23{fill:url(#linear-gradient-4);}.cls-24{fill:#f1c891;}.cls-25{fill:url(#linear-gradient-5);}.cls-26{fill:url(#linear-gradient-6);}.cls-27{fill:url(#linear-gradient-7);}.cls-28{fill:#a63d3d;}.cls-29{fill:#e02c2b;}.cls-30{fill:#c3ebce;}.cls-31{fill:#a9efb5;}.cls-32{fill:#9e2b2b;}.cls-33{opacity:0.5;}.cls-34{fill:#df2221;}.cls-35{fill:#e38620;}.cls-36{fill:url(#linear-gradient-8);}.cls-37{fill:#f3d632;}.cls-38{fill:#f1e6a0;}.cls-39{fill:#f4b5b5;}.cls-40,.cls-46{fill:#eb7878;}.cls-41{fill:#992121;}.cls-42{fill:#f8d1d1;}.cls-43{fill:#a74040;}.cls-44{fill:url(#linear-gradient-9);}.cls-45{clip-path:url(#clip-path);}.cls-46{opacity:0.75;}.cls-47{fill:#e33e3d;}.cls-48{fill:url(#linear-gradient-10);}.cls-49{clip-path:url(#clip-path-2);}.cls-50{clip-path:url(#clip-path-3);}.cls-51{fill:#5697fb;}.cls-52{fill:#fafdfb;}.cls-53{fill:#8795a7;}.cls-54{fill:#b6bec9;}.cls-55{fill:#4d4d4d;}.cls-56,.cls-57{stroke:#fff;stroke-linecap:round;stroke-linejoin:round;}.cls-57{stroke-dasharray:5.97 7.96;}.cls-58{fill:#e13130;}.cls-59{fill:#c27a7a;}</style><linearGradient id="linear-gradient" x1="404.07" y1="117.37" x2="404.07" y2="111.52" gradientUnits="userSpaceOnUse"><stop offset="0" stop-color="#61748b" stop-opacity="0"/><stop offset="0.18" stop-color="#5c7087" stop-opacity="0.08"/><stop offset="0.43" stop-color="#4e637d" stop-opacity="0.29"/><stop offset="0.74" stop-color="#384f6d" stop-opacity="0.65"/><stop offset="1" stop-color="#213b5c"/></linearGradient><linearGradient id="linear-gradient-2" x1="941.36" y1="318.36" x2="941.36" y2="268.36" gradientUnits="userSpaceOnUse"><stop offset="0.43" stop-color="#425874" stop-opacity="0"/><stop offset="0.64" stop-color="#435873" stop-opacity="0.01"/><stop offset="0.72" stop-color="#485671" stop-opacity="0.04"/><stop offset="0.78" stop-color="#51536d" stop-opacity="0.09"/><stop offset="0.82" stop-color="#5d4f66" stop-opacity="0.17"/><stop offset="0.86" stop-color="#6c4a5e" stop-opacity="0.27"/><stop offset="0.9" stop-color="#804455" stop-opacity="0.39"/><stop offset="0.93" stop-color="#973d49" stop-opacity="0.54"/><stop offset="0.96" stop-color="#b1343b" stop-opacity="0.71"/><stop offset="0.99" stop-color="#cf2a2c" stop-opacity="0.9"/><stop offset="1" stop-color="#df2524"/></linearGradient><linearGradient id="linear-gradient-3" x1="979.86" y1="318.36" x2="979.86" y2="268.36" xlink:href="#linear-gradient-2"/><linearGradient id="linear-gradient-4" x1="1016.86" y1="318.36" x2="1016.86" y2="268.36" xlink:href="#linear-gradient-2"/><linearGradient id="linear-gradient-5" x1="979.86" y1="352.36" x2="979.86" y2="329.36" gradientUnits="userSpaceOnUse"><stop offset="0.43" stop-color="#425874" stop-opacity="0"/><stop offset="0.48" stop-color="#475671" stop-opacity="0.03"/><stop offset="0.56" stop-color="#55526a" stop-opacity="0.12"/><stop offset="0.66" stop-color="#6c4a5f" stop-opacity="0.27"/><stop offset="0.77" stop-color="#8c404e" stop-opacity="0.47"/><stop offset="0.89" stop-color="#b5333a" stop-opacity="0.73"/><stop offset="1" stop-color="#df2524"/></linearGradient><linearGradient id="linear-gradient-6" x1="845.86" y1="407.36" x2="845.86" y2="352.36" gradientUnits="userSpaceOnUse"><stop offset="0" stop-color="#425874" stop-opacity="0"/><stop offset="0.1" stop-color="#475671" stop-opacity="0.03"/><stop offset="0.24" stop-color="#55526a" stop-opacity="0.12"/><stop offset="0.41" stop-color="#6c4a5f" stop-opacity="0.27"/><stop offset="0.6" stop-color="#8c404e" stop-opacity="0.47"/><stop offset="0.81" stop-color="#b5333a" stop-opacity="0.73"/><stop offset="1" stop-color="#df2524"/></linearGradient><linearGradient id="linear-gradient-7" x1="162.35" y1="407.36" x2="162.35" y2="352.36" gradientTransform="matrix(-1, 0, 0, 1, 1278.26, 0)" xlink:href="#linear-gradient-6"/><linearGradient id="linear-gradient-8" x1="586.18" y1="296.66" x2="586.18" y2="278.97" gradientUnits="userSpaceOnUse"><stop offset="0" stop-color="#9d2929" stop-opacity="0"/><stop offset="1" stop-color="#8a0000"/></linearGradient><linearGradient id="linear-gradient-9" x1="434.79" y1="395.35" x2="433.26" y2="392.7" gradientUnits="userSpaceOnUse"><stop offset="0" stop-color="#f8d1d1" stop-opacity="0"/><stop offset="0.15" stop-color="#f8d0d0" stop-opacity="0.01"/><stop offset="0.29" stop-color="#f7cccc" stop-opacity="0.06"/><stop offset="0.41" stop-color="#f6c5c5" stop-opacity="0.14"/><stop offset="0.53" stop-color="#f5bbbb" stop-opacity="0.24"/><stop offset="0.65" stop-color="#f3afaf" stop-opacity="0.38"/><stop offset="0.77" stop-color="#f1a0a0" stop-opacity="0.55"/><stop offset="0.88" stop-color="#ee8e8e" stop-opacity="0.76"/><stop offset="0.99" stop-color="#eb7979" stop-opacity="0.98"/><stop offset="1" stop-color="#eb7878"/></linearGradient><clipPath id="clip-path" transform="translate(-49.64 -64.07)"><path class="cls-1" d="M430.84,380.44a4.1,4.1,0,0,0-1.61,3.87,21.4,21.4,0,0,0,3.19,9.08,3.12,3.12,0,0,0,1.71-.73,22.59,22.59,0,0,1-1.34-5.74c-.09-2.44.09-4.75-.73-5a1.44,1.44,0,0,0-.72-.12l0-1.12Z"/></clipPath><linearGradient id="linear-gradient-10" x1="957.66" y1="395.35" x2="956.13" y2="392.7" gradientTransform="matrix(-1, 0, 0, 1, 1433.26, 0)" xlink:href="#linear-gradient-9"/><clipPath id="clip-path-2" transform="translate(-49.64 -64.07)"><path class="cls-1" d="M479.56,380.44a4.1,4.1,0,0,1,1.61,3.87,21.4,21.4,0,0,1-3.19,9.08,3.12,3.12,0,0,1-1.71-.73,22.59,22.59,0,0,0,1.34-5.74c.09-2.44-.09-4.75.73-5a1.44,1.44,0,0,1,.72-.12l0-1.12Z"/></clipPath><clipPath id="clip-path-3" transform="translate(-49.64 -64.07)"><rect class="cls-1" x="49.64" y="326.73" width="227.3" height="94.07"/></clipPath></defs><title>hanoi_colour</title><g id="Layer_1" data-name="Layer 1"><path class="cls-2" d="M1186.19,408.39h20.58a16,16,0,0,0,8.78-14c0-9.2-8.54-16.64-19.07-16.64s-19.07,7.44-19.07,16.63A16,16,0,0,0,1186.19,408.39Z" transform="translate(-49.64 -64.07)"/><path class="cls-3" d="M1197.64,377.77v30.63h10.12a16,16,0,0,0,8.78-14C1216.55,385.25,1208.1,377.84,1197.64,377.77Z" transform="translate(-49.64 -64.07)"/><rect class="cls-4" x="1089.44" y="344.97" width="6.92" height="61.09" transform="translate(-70.93 4.8) rotate(-3.58)"/><polygon class="cls-5" points="1048.79 344.29 1048.17 334.49 1041.27 334.92 1041.85 344.29 1048.79 344.29"/><polygon class="cls-4" points="976.92 344.29 972.78 278.16 965.88 278.59 969.98 344.29 976.92 344.29"/><polygon class="cls-5" points="976.92 344.29 976.45 337.12 969.54 337.55 969.98 344.29 976.92 344.29"/><rect class="cls-4" x="949.18" y="339.25" width="6.92" height="67.73" transform="translate(-80.92 28.63) rotate(-5.48)"/><polygon class="cls-5" points="909.86 344.29 909.13 336.64 902.24 337.3 902.91 344.29 909.86 344.29"/><rect class="cls-4" x="878.97" y="337.4" width="6.92" height="69.41" transform="translate(-67.77 -17.75) rotate(-2.98)"/><polygon class="cls-5" points="838.14 344.29 837.77 337.39 830.86 337.75 831.21 344.29 838.14 344.29"/><rect class="cls-4" x="813.73" y="334.26" width="6.92" height="69.41" transform="translate(-67.69 -21.14) rotate(-2.98)"/><polygon class="cls-5" points="773.07 344.29 772.75 338.31 765.84 338.67 766.13 344.29 773.07 344.29"/><rect class="cls-4" x="749.87" y="332.41" width="6.92" height="69.41" transform="matrix(1, -0.01, 0.01, 1, -52.99, -57.1)"/><polygon class="cls-5" points="707.54 344.29 707.47 336.65 700.55 336.71 700.62 344.29 707.54 344.29"/><rect class="cls-4" x="681.12" y="330.28" width="6.92" height="69.41" transform="translate(-61.19 -41.52) rotate(-1.87)"/><polygon class="cls-5" points="639.83 344.29 639.5 334.43 632.58 334.65 632.91 344.29 639.83 344.29"/><rect class="cls-4" x="622.1" y="328.61" width="6.92" height="72.38" transform="translate(-61.22 -43.45) rotate(-1.87)"/><polygon class="cls-5" points="580.82 344.29 580.55 336.55 573.64 336.77 573.89 344.29 580.82 344.29"/><rect class="cls-4" x="561.79" y="326.43" width="6.92" height="75.2" transform="translate(-71.69 -27.31) rotate(-3.65)"/><polygon class="cls-5" points="521.91 344.29 521.47 337.26 514.56 337.7 514.97 344.29 521.91 344.29"/><rect class="cls-4" x="504.05" y="324.08" width="6.92" height="78.68" transform="translate(-69.82 -34.09) rotate(-3.32)"/><polygon class="cls-5" points="463.96 344.32 463.49 336.14 456.58 336.55 457.03 344.32 463.96 344.32"/><rect class="cls-4" x="445.75" y="321.44" width="6.92" height="82.63" transform="translate(-96.94 3.97) rotate(-8.23)"/><polygon class="cls-5" points="409.65 344.29 408.57 336.7 401.72 337.69 402.65 344.29 409.65 344.29"/><rect class="cls-4" x="392.44" y="320.5" width="6.92" height="81.41" transform="translate(-97.27 -3.68) rotate(-8.23)"/><polygon class="cls-5" points="356.56 344.29 355.27 335.23 348.42 336.22 349.57 344.29 356.56 344.29"/><rect class="cls-4" x="339.27" y="319.09" width="6.92" height="82.2" transform="translate(-97.67 -11.3) rotate(-8.23)"/><polygon class="cls-5" points="303.56 344.29 302.4 336.3 295.56 337.29 296.57 344.29 303.56 344.29"/><polygon class="cls-4" points="241.74 273.78 234.75 273.78 243.94 337.29 250.79 336.3 241.74 273.78"/><polygon class="cls-5" points="251.95 344.29 250.79 336.3 243.94 337.29 244.95 344.29 251.95 344.29"/><polygon class="cls-4" points="202.04 273.78 195.04 273.78 204.23 337.29 211.08 336.3 202.04 273.78"/><polygon class="cls-5" points="212.27 344.29 211.08 336.3 204.23 337.29 205.27 344.29 212.27 344.29"/><polygon class="cls-6" points="415.37 344.29 424.4 274.01 417.55 272.77 408.37 344.29 415.37 344.29"/><polygon class="cls-7" points="415.37 344.29 415.89 340.28 409 339.32 408.37 344.29 415.37 344.29"/><polygon class="cls-6" points="471.02 344.23 464.18 342.99 473.71 268.41 480.56 269.64 471.02 344.23"/><polygon class="cls-6" points="530.35 338.71 523.51 337.47 533.05 262.88 539.89 264.12 530.35 338.71"/><polygon class="cls-7" points="471 344.29 472.02 336.44 465.17 335.2 464 344.29 471 344.29"/><polygon class="cls-7" points="529.66 344.29 530.51 337.46 523.67 336.22 522.66 344.29 529.66 344.29"/><polygon class="cls-6" points="590.82 340.12 583.98 338.88 593.52 264.3 600.36 265.54 590.82 340.12"/><polygon class="cls-7" points="590.3 344.29 590.98 338.87 584.14 337.63 583.3 344.29 590.3 344.29"/><rect class="cls-6" x="709.89" y="332.3" width="6.92" height="69.41" transform="translate(13.7 -167.22) rotate(8.65)"/><polygon class="cls-7" points="660.92 344.29 662.07 336.71 655.23 335.67 653.92 344.29 660.92 344.29"/><rect class="cls-6" x="776.12" y="335.27" width="6.92" height="69.41" transform="translate(14.9 -177.15) rotate(8.65)"/><polygon class="cls-7" points="727.6 344.29 728.3 339.68 721.46 338.64 720.6 344.29 727.6 344.29"/><rect class="cls-6" x="812.43" y="366.48" width="66.51" height="6.92" transform="matrix(0.13, -0.99, 0.99, 0.13, 315.6, 1094.03)"/><polygon class="cls-7" points="794.26 344.29 795 339.28 788.14 338.35 787.28 344.29 794.26 344.29"/><polygon class="cls-6" points="864.11 343.67 857.13 343.99 863.28 274.86 870.17 275.47 864.11 343.67"/><polygon class="cls-7" points="864.06 344.29 864.56 338.67 857.66 338.06 857.11 344.29 864.06 344.29"/><rect class="cls-6" x="981.75" y="337.23" width="6.92" height="69.41" transform="translate(-12.84 -149.84) rotate(5.08)"/><polygon class="cls-7" points="935.77 344.29 936.19 340 929.3 339.38 928.82 344.29 935.77 344.29"/><polygon class="cls-6" points="1009.75 344.29 1015.31 282.05 1008.42 281.43 1002.8 344.29 1009.75 344.29"/><polygon class="cls-7" points="1009.75 344.29 1010.31 338.36 1003.41 337.75 1002.8 344.29 1009.75 344.29"/><polygon class="cls-6" points="358.32 342.33 351.47 341.09 361.01 266.51 367.85 267.75 358.32 342.33"/><polygon class="cls-7" points="358.09 344.29 359.31 334.54 352.47 333.3 351.07 344.29 358.09 344.29"/><polygon class="cls-6" points="306.51 343.49 299.66 342.25 309.2 267.67 316.04 268.91 306.51 343.49"/><polygon class="cls-7" points="306.4 344.29 307.5 335.7 300.66 334.46 299.4 344.29 306.4 344.29"/><polygon class="cls-6" points="254.08 341.48 247.24 340.24 256.77 265.66 263.62 266.9 254.08 341.48"/><polygon class="cls-7" points="253.74 344.29 255.07 333.69 248.23 332.45 246.74 344.29 253.74 344.29"/><polygon class="cls-6" points="207.42 341.48 200.58 340.24 210.12 265.66 216.96 266.9 207.42 341.48"/><polygon class="cls-7" points="207.09 344.29 208.42 333.69 201.58 332.45 200.09 344.29 207.09 344.29"/><path class="cls-8" d="M639,356.17" transform="translate(-49.64 -64.07)"/><path class="cls-8" d="M1110.9,367.56C949.27,343.73,839,333.27,639,328.37c-259.57,0-416.23,26.68-416.23,26.68l-70.42-.13v8.44h69.89s260.61-32,416.7-27.95c61.61,1.51,114.68,3.64,163.38,6.42l160,13.16c47.26,5.22,95,11.37,148.43,19.37h85.59v-6.65Z" transform="translate(-49.64 -64.07)"/><path class="cls-9" d="M1111,367.56c-161.63-23.82-271.93-34.29-471.93-39.18-259.57,0-416.3,26.68-416.3,26.68l-86.86-.11V364h86.36S482.87,331.7,639,335.73c61.61,1.51,114.68,3.48,163.38,6.27l160,13.35c47.26,5.22,95,11.62,148.43,19.56H1215v-7.19Z" transform="translate(-49.64 -64.07)"/><path class="cls-8" d="M1123,369.38" transform="translate(-49.64 -64.07)"/><path class="cls-10" d="M1111,341.75c-161.63-23.82-271.93-34.29-471.93-39.18-259.57,0-416.3,26.68-416.3,26.68l-86.86-.13v25.81l87.35.13s223.93-26.68,415.81-26.68c61.61,1.51,115.14,3.58,163.83,6.36l145.27,11.91c47.26,5.22,109.43,13,162.82,20.91,85.33,0,104,.15,104,.15V341.9Z" transform="translate(-49.64 -64.07)"/><rect class="cls-5" x="165.67" y="313.72" width="7.01" height="30.57"/><rect class="cls-4" x="165.67" y="299.79" width="7.01" height="30.86"/><rect class="cls-5" x="125.97" y="313.72" width="7.01" height="30.57"/><rect class="cls-4" x="125.97" y="299.79" width="7.01" height="30.86"/><rect class="cls-5" x="86.26" y="313.72" width="7.01" height="30.57"/><rect class="cls-4" x="86.26" y="299.79" width="7.01" height="30.86"/><rect class="cls-7" x="1158.32" y="313.72" width="7.01" height="30.57"/><rect class="cls-4" x="1158.32" y="299.79" width="7.01" height="30.86"/><rect class="cls-7" x="1118.62" y="313.72" width="7.01" height="30.57"/><rect class="cls-4" x="1118.62" y="299.79" width="7.01" height="30.86"/><rect class="cls-7" x="1078.91" y="313.72" width="7.01" height="30.57"/><rect class="cls-4" x="1078.91" y="299.79" width="7.01" height="30.86"/><rect class="cls-11" x="310.97" y="106.57" width="187.01" height="118.39"/><rect class="cls-12" x="260.02" y="217.67" width="288.11" height="14.59"/><rect class="cls-13" x="221.73" y="232.25" width="364.7" height="112.04"/><rect class="cls-14" x="510.44" y="117.37" width="14.59" height="100.29"/><rect class="cls-14" x="464.85" y="117.37" width="14.59" height="100.29"/><rect class="cls-14" x="419.26" y="117.37" width="14.59" height="100.29"/><rect class="cls-14" x="373.68" y="117.37" width="14.59" height="100.29"/><rect class="cls-14" x="328.09" y="117.37" width="14.59" height="100.29"/><rect class="cls-14" x="282.5" y="117.37" width="14.59" height="100.29"/><rect class="cls-14" x="278.71" y="111.52" width="250.73" height="5.86"/><rect class="cls-15" x="278.71" y="111.52" width="250.73" height="5.86"/><polygon class="cls-14" points="268.23 83.25 539.92 83.25 531.72 111.52 276.43 111.52 268.23 83.25"/><rect class="cls-13" x="294.67" y="78.69" width="218.82" height="4.56"/><rect class="cls-14" x="324.3" y="71.4" width="159.55" height="7.29"/><rect class="cls-12" x="324.3" y="69.58" width="159.55" height="1.82"/><rect class="cls-12" x="221.73" y="232.25" width="364.7" height="29.18"/><rect class="cls-16" x="348" y="289.08" width="115.02" height="55.21"/><rect class="cls-17" x="362.74" y="289.08" width="85.54" height="55.21"/><rect class="cls-11" x="377.1" y="289.08" width="56.81" height="55.21"/><rect class="cls-14" x="390.92" y="298.37" width="29.18" height="45.92"/><rect class="cls-11" x="405.36" y="297.81" width="0.29" height="46.48"/><path class="cls-12" d="M400.6,162.39v9.44H399V167.9h-3.93v3.94h-1.58v-9.44h1.58v3.91H399v-3.91Z" transform="translate(-49.64 -64.07)"/><path class="cls-12" d="M412.91,167.12a4.71,4.71,0,1,1-4.72-4.72A4.71,4.71,0,0,1,412.91,167.12Zm-1.58,0a3.14,3.14,0,1,0-3.14,3.14A3.14,3.14,0,0,0,411.33,167.12Z" transform="translate(-49.64 -64.07)"/><path class="cls-12" d="M427.48,169.49h-6.23v-1.56h6.23Z" transform="translate(-49.64 -64.07)"/><path class="cls-12" d="M442.4,169.34l1.11,1.12a4.73,4.73,0,1,1,0-6.68l-1.11,1.11a3.14,3.14,0,1,0,0,4.45Z" transform="translate(-49.64 -64.07)"/><path class="cls-12" d="M452.76,162.39v9.44h-1.58V167.9h-3.93v3.94h-1.58v-9.44h1.58v3.91h3.93v-3.91Z" transform="translate(-49.64 -64.07)"/><path class="cls-12" d="M455.36,162.39h1.58v9.44h-1.58Z" transform="translate(-49.64 -64.07)"/><path class="cls-12" d="M471.5,169.49h-6.23v-1.56h6.23Z" transform="translate(-49.64 -64.07)"/><path class="cls-12" d="M489.71,171.84h-1.58V166l-2.71,5.8h-1.48L481,165.92v5.92h-1.58v-9.46h1.6l3.59,7.35,3.44-7.35h1.6Z" transform="translate(-49.64 -64.07)"/><path class="cls-12" d="M492.55,162.39h1.58v9.44h-1.58Z" transform="translate(-49.64 -64.07)"/><path class="cls-12" d="M503,171.84l-4.69-6.72v6.72h-1.58v-9.44h1.59l4.71,6.72v-6.72h1.56v9.44Z" transform="translate(-49.64 -64.07)"/><path class="cls-12" d="M514.92,162.39v9.44h-1.58V167.9h-3.93v3.94h-1.58v-9.44h1.58v3.91h3.93v-3.91Z" transform="translate(-49.64 -64.07)"/><circle class="cls-12" cx="443.7" cy="96.12" r="0.79"/><path class="cls-12" d="M430.13,156.38l.67.68a2.88,2.88,0,1,1,0-4.06l-.67.67a1.91,1.91,0,1,0,0,2.71Z" transform="translate(-49.64 -64.07)"/><path class="cls-12" d="M438.54,152.15v5.75h-1v-2.4h-2.39v2.4h-1v-5.75h1v2.38h2.39v-2.38Z" transform="translate(-49.64 -64.07)"/><path class="cls-12" d="M442.69,156.67a2.89,2.89,0,0,1-.29-1.17v-3.35h1v3.35a1.86,1.86,0,0,0,.2.77,1.27,1.27,0,0,0,1.23.67,1.26,1.26,0,0,0,1.23-.67,2,2,0,0,0,.21-.77v-3.35h1v3.35a2.89,2.89,0,0,1-.29,1.17,2.42,2.42,0,0,1-4.21,0Z" transform="translate(-49.64 -64.07)"/><path class="cls-12" d="M460.25,153.11h-1.44v4.79h-1v-4.79h-1.44v-1h3.83Z" transform="translate(-49.64 -64.07)"/><path class="cls-12" d="M464,152.15h1v5.75h-1Z" transform="translate(-49.64 -64.07)"/><path class="cls-12" d="M472.62,156.38l.67.68a2.88,2.88,0,1,1,0-4.06l-.67.67a1.91,1.91,0,1,0,0,2.71Z" transform="translate(-49.64 -64.07)"/><path class="cls-12" d="M481,152.15v5.75h-1v-2.4h-2.39v2.4h-1v-5.75h1v2.38h2.39v-2.38Z" transform="translate(-49.64 -64.07)"/><circle class="cls-12" cx="414.8" cy="86.81" r="0.48"/><circle class="cls-12" cx="414.8" cy="95.92" r="0.48"/><rect class="cls-5" x="903.42" y="269.5" width="53.86" height="19.76"/><rect class="cls-12" x="778.9" y="256.34" width="34.45" height="10.17"/><rect class="cls-18" x="780.66" y="259.22" width="6.7" height="4.51"/><rect class="cls-18" x="804.91" y="259.22" width="6.7" height="4.51"/><rect class="cls-4" x="789.06" y="259.22" width="14.13" height="4.51"/><rect class="cls-12" x="776.54" y="264.36" width="39.4" height="24.16"/><path class="cls-5" d="M829,326.91a3.43,3.43,0,0,1-2.83-3.61h-2.37a17.38,17.38,0,0,0,1.13,4.18,21.7,21.7,0,0,1,1.05,5.13c0,.31.17,1,.17,1v-6s1.14,2.2,6.41,2.45,13,.06,13,.06v-2.51C839.81,327.53,832.2,327.71,829,326.91Z" transform="translate(-49.64 -64.07)"/><path class="cls-5" d="M865.55,323.3a3.43,3.43,0,0,1-2.83,3.61c-3.17.8-11.46.62-17.18.62V330s8.36.18,13.63-.06,6.41-2.45,6.41-2.45v6s.14-.65.17-1a21.7,21.7,0,0,1,1.05-5.13,17.38,17.38,0,0,0,1.13-4.18Z" transform="translate(-49.64 -64.07)"/><path class="cls-4" d="M826,333.89a21.7,21.7,0,0,0-1.05-5.13,17.86,17.86,0,0,1-1.28-6c.1-1,.75-2.21,1.64-2s1.33,1.73,1,2.74a3.59,3.59,0,0,0,2.68,4.67c3.17.8,10.79.62,16.51.62v2.51s-7.69.18-13-.06-6.41-2.45-6.41-2.45v6S826,334.21,826,333.89Z" transform="translate(-49.64 -64.07)"/><path class="cls-4" d="M865.74,333.89a21.7,21.7,0,0,1,1.05-5.13,17.86,17.86,0,0,0,1.28-6c-.1-1-.75-2.21-1.64-2s-1.33,1.73-1,2.74a3.59,3.59,0,0,1-2.68,4.67c-3.17.8-11.46.62-17.18.62v2.51s8.36.18,13.63-.06,6.41-2.45,6.41-2.45v6S865.71,334.21,865.74,333.89Z" transform="translate(-49.64 -64.07)"/><path class="cls-5" d="M831.06,317.91a3.4,3.4,0,0,1-2.48-3.61H826.5a19.31,19.31,0,0,0,1,4.18,24.39,24.39,0,0,1,.92,5.13c0,.31.15,1,.15,1v-6s1,2.2,5.62,2.45,11.38.06,11.38.06v-2.51C840.54,318.53,833.85,318.71,831.06,317.91Z" transform="translate(-49.64 -64.07)"/><path class="cls-5" d="M863.13,314.3a3.4,3.4,0,0,1-2.48,3.61c-2.78.8-10.06.62-15.09.62V321s7.34.18,12-.06,5.62-2.45,5.62-2.45v6s.12-.65.15-1a24.39,24.39,0,0,1,.92-5.13,19.31,19.31,0,0,0,1-4.18Z" transform="translate(-49.64 -64.07)"/><path class="cls-4" d="M828.41,324.9s-.37-2.74-.75-4.44a9.83,9.83,0,0,1-.2-1.33c-.27-3.21-2.21-5.64-2.13-6.58,2.24.85,1.92.34,2.7.55.24.33.32.41.5,1.36s-.25,3.95,2.53,4.75,9.47.62,14.5.62v2.51s-6.75.18-11.38-.06-5.65-1.85-5.65-1.85l0,5.45S828.44,325.21,828.41,324.9Z" transform="translate(-49.64 -64.07)"/><path class="cls-4" d="M863.12,324.9s.37-2.74.75-4.44a9.83,9.83,0,0,0,.2-1.33c.27-3.21,2.21-5.64,2.13-6.58-2.24.85-1.92.34-2.7.55-.24.33-.32.41-.5,1.36s.25,3.95-2.53,4.75-9.88.62-14.91.62v2.51s7.16.18,11.79-.06,5.65-1.85,5.65-1.85l0,5.45S863.09,325.21,863.12,324.9Z" transform="translate(-49.64 -64.07)"/><rect class="cls-12" x="1048.87" y="256.34" width="34.45" height="10.17"/><rect class="cls-18" x="1050.64" y="259.22" width="6.7" height="4.51"/><rect class="cls-18" x="1074.88" y="259.22" width="6.7" height="4.51"/><rect class="cls-4" x="1059.03" y="259.22" width="14.13" height="4.51"/><rect class="cls-12" x="1046.51" y="264.36" width="39.4" height="24.16"/><path class="cls-5" d="M1099,326.91a3.43,3.43,0,0,1-2.83-3.61h-2.37a17.38,17.38,0,0,0,1.13,4.18,21.7,21.7,0,0,1,1.05,5.13c0,.31.17,1,.17,1v-6s1.14,2.2,6.41,2.45,13,.06,13,.06v-2.51C1109.79,327.53,1102.17,327.71,1099,326.91Z" transform="translate(-49.64 -64.07)"/><path class="cls-5" d="M1135.52,323.3a3.43,3.43,0,0,1-2.83,3.61c-3.17.8-11.46.62-17.18.62V330s8.36.18,13.63-.06,6.41-2.45,6.41-2.45v6s.14-.65.17-1a21.7,21.7,0,0,1,1.05-5.13,17.38,17.38,0,0,0,1.13-4.18Z" transform="translate(-49.64 -64.07)"/><path class="cls-4" d="M1096,333.89a21.7,21.7,0,0,0-1.05-5.13,17.86,17.86,0,0,1-1.28-6c.1-1,.75-2.21,1.64-2s1.33,1.73,1,2.74a3.59,3.59,0,0,0,2.68,4.67c3.17.8,10.79.62,16.51.62v2.51s-7.69.18-13-.06-6.41-2.45-6.41-2.45v6S1096,334.21,1096,333.89Z" transform="translate(-49.64 -64.07)"/><path class="cls-4" d="M1135.71,333.89a21.7,21.7,0,0,1,1.05-5.13,17.86,17.86,0,0,0,1.28-6c-.1-1-.75-2.21-1.64-2s-1.33,1.73-1,2.74a3.59,3.59,0,0,1-2.68,4.67c-3.17.8-11.46.62-17.18.62v2.51s8.36.18,13.63-.06,6.41-2.45,6.41-2.45v6S1135.68,334.21,1135.71,333.89Z" transform="translate(-49.64 -64.07)"/><path class="cls-5" d="M1101,317.91a3.4,3.4,0,0,1-2.48-3.61h-2.08a19.31,19.31,0,0,0,1,4.18,24.39,24.39,0,0,1,.92,5.13c0,.31.15,1,.15,1v-6s1,2.2,5.62,2.45,11.38.06,11.38.06v-2.51C1110.51,318.53,1103.82,318.71,1101,317.91Z" transform="translate(-49.64 -64.07)"/><path class="cls-5" d="M1133.1,314.3a3.4,3.4,0,0,1-2.48,3.61c-2.78.8-10.06.62-15.09.62V321s7.34.18,12-.06,5.62-2.45,5.62-2.45v6s.12-.65.15-1a24.39,24.39,0,0,1,.92-5.13,19.31,19.31,0,0,0,1-4.18Z" transform="translate(-49.64 -64.07)"/><path class="cls-4" d="M1098.38,324.9s-.37-2.74-.75-4.44a9.83,9.83,0,0,1-.2-1.33c-.27-3.21-2.21-5.64-2.13-6.58,2.24.85,1.92.34,2.7.55.24.33.32.41.5,1.36s-.25,3.95,2.53,4.75,9.47.62,14.5.62v2.51s-6.75.18-11.38-.06-5.65-1.85-5.65-1.85l0,5.45S1098.41,325.21,1098.38,324.9Z" transform="translate(-49.64 -64.07)"/><path class="cls-4" d="M1133.09,324.9s.37-2.74.75-4.44a9.83,9.83,0,0,0,.2-1.33c.27-3.21,2.21-5.64,2.13-6.58-2.24.85-1.92.34-2.7.55-.24.33-.32.41-.5,1.36s.25,3.95-2.53,4.75-9.88.62-14.91.62v2.51s7.16.18,11.79-.06,5.65-1.85,5.65-1.85l0,5.45S1133.06,325.21,1133.09,324.9Z" transform="translate(-49.64 -64.07)"/><rect class="cls-19" x="924.69" y="311.62" width="0.94" height="12.21" transform="translate(393.07 -597.29) rotate(41.49)"/><rect class="cls-19" x="928.63" y="311.41" width="0.94" height="12.21" transform="translate(393.92 -599.96) rotate(41.49)"/><rect class="cls-19" x="932.39" y="311.41" width="0.94" height="12.21" transform="translate(394.86 -602.45) rotate(41.49)"/><rect class="cls-19" x="935.91" y="311.69" width="0.94" height="12.21" transform="translate(395.93 -604.71) rotate(41.49)"/><rect class="cls-19" x="938.4" y="313.13" width="0.94" height="12.21" transform="translate(397.51 -606) rotate(41.49)"/><rect class="cls-19" x="940.9" y="314.55" width="0.94" height="12.21" transform="translate(399.08 -607.3) rotate(41.49)"/><rect class="cls-19" x="917.17" y="311.62" width="0.94" height="12.21" transform="translate(391.18 -592.31) rotate(41.49)"/><rect class="cls-19" x="913.4" y="311.62" width="0.94" height="12.21" transform="translate(390.24 -589.82) rotate(41.49)"/><rect class="cls-19" x="908.79" y="308.34" width="0.94" height="12.21" transform="translate(386.9 -587.58) rotate(41.49)"/><rect class="cls-19" x="909.58" y="311.69" width="0.94" height="12.21" transform="translate(389.32 -587.27) rotate(41.49)"/><rect class="cls-19" x="920.99" y="311.55" width="0.94" height="12.21" transform="translate(392.09 -594.86) rotate(41.49)"/><rect class="cls-19" x="923.95" y="312.45" width="0.94" height="12.21" transform="translate(393.43 -596.6) rotate(41.49)"/><rect class="cls-19" x="921.05" y="311.41" width="0.94" height="12.21" transform="translate(1772.5 -119.28) rotate(138.51)"/><rect class="cls-19" x="917.29" y="311.41" width="0.94" height="12.21" transform="translate(1765.92 -116.79) rotate(138.51)"/><rect class="cls-19" x="913.78" y="311.69" width="0.94" height="12.21" transform="translate(1759.95 -113.98) rotate(138.51)"/><rect class="cls-19" x="910.25" y="311.96" width="0.94" height="12.21" transform="translate(1753.97 -111.17) rotate(138.51)"/><rect class="cls-19" x="908.79" y="314.55" width="0.94" height="12.21" transform="translate(1753.12 -105.67) rotate(138.51)"/><rect class="cls-19" x="932.52" y="311.62" width="0.94" height="12.21" transform="matrix(-0.75, 0.66, -0.66, -0.75, 1792.69, -126.52)"/><rect class="cls-19" x="936.28" y="311.62" width="0.94" height="12.21" transform="matrix(-0.75, 0.66, -0.66, -0.75, 1799.27, -129.01)"/><rect class="cls-19" x="940.9" y="308.34" width="0.94" height="12.21" transform="translate(1805.17 -137.81) rotate(138.51)"/><rect class="cls-19" x="940.1" y="311.69" width="0.94" height="12.21" transform="translate(1806 -131.42) rotate(138.51)"/><rect class="cls-19" x="928.7" y="311.55" width="0.94" height="12.21" transform="translate(1785.96 -124.11) rotate(138.51)"/><rect class="cls-19" x="925.06" y="311.69" width="0.94" height="12.21" transform="translate(1779.69 -121.45) rotate(138.51)"/><rect class="cls-19" x="1036.43" y="311.62" width="0.94" height="12.21" transform="translate(421.11 -671.33) rotate(41.49)"/><rect class="cls-19" x="1040.37" y="311.41" width="0.94" height="12.21" transform="translate(421.97 -673.99) rotate(41.49)"/><rect class="cls-19" x="1044.14" y="311.41" width="0.94" height="12.21" transform="translate(422.91 -676.48) rotate(41.49)"/><rect class="cls-19" x="1047.65" y="311.69" width="0.94" height="12.21" transform="translate(423.98 -678.74) rotate(41.49)"/><rect class="cls-19" x="1050.14" y="313.13" width="0.94" height="12.21" transform="translate(425.55 -680.03) rotate(41.49)"/><rect class="cls-19" x="1052.64" y="314.55" width="0.94" height="12.21" transform="translate(427.12 -681.33) rotate(41.49)"/><rect class="cls-19" x="1028.91" y="311.62" width="0.94" height="12.21" transform="translate(419.23 -666.34) rotate(41.49)"/><rect class="cls-19" x="1025.15" y="311.62" width="0.94" height="12.21" transform="translate(418.28 -663.85) rotate(41.49)"/><rect class="cls-19" x="1020.53" y="308.34" width="0.94" height="12.21" transform="translate(414.95 -661.61) rotate(41.49)"/><rect class="cls-19" x="1021.32" y="311.69" width="0.94" height="12.21" transform="translate(417.37 -661.3) rotate(41.49)"/><rect class="cls-19" x="1032.73" y="311.55" width="0.94" height="12.21" transform="translate(420.14 -668.89) rotate(41.49)"/><rect class="cls-19" x="1035.7" y="312.45" width="0.94" height="12.21" transform="translate(421.48 -670.63) rotate(41.49)"/><rect class="cls-19" x="1032.79" y="311.41" width="0.94" height="12.21" transform="translate(1967.93 -193.32) rotate(138.51)"/><rect class="cls-19" x="1029.03" y="311.41" width="0.94" height="12.21" transform="translate(1961.35 -190.83) rotate(138.51)"/><rect class="cls-19" x="1025.52" y="311.69" width="0.94" height="12.21" transform="translate(1955.39 -188.01) rotate(138.51)"/><rect class="cls-19" x="1022" y="311.96" width="0.94" height="12.21" transform="translate(1949.41 -185.21) rotate(138.51)"/><rect class="cls-19" x="1020.53" y="314.55" width="0.94" height="12.21" transform="translate(1948.56 -179.7) rotate(138.51)"/><rect class="cls-19" x="1044.26" y="311.62" width="0.94" height="12.21" transform="translate(1988.13 -200.55) rotate(138.51)"/><rect class="cls-19" x="1048.02" y="311.62" width="0.94" height="12.21" transform="translate(1994.71 -203.04) rotate(138.51)"/><rect class="cls-19" x="1052.64" y="308.34" width="0.94" height="12.21" transform="translate(2000.61 -211.84) rotate(138.51)"/><rect class="cls-19" x="1051.84" y="311.69" width="0.94" height="12.21" transform="translate(2001.44 -205.45) rotate(138.51)"/><rect class="cls-19" x="1040.44" y="311.55" width="0.94" height="12.21" transform="translate(1981.39 -198.14) rotate(138.51)"/><rect class="cls-19" x="1036.8" y="311.69" width="0.94" height="12.21" transform="translate(1975.12 -195.49) rotate(138.51)"/><path class="cls-19" d="M1029.68,312.39h4.47V260.27H924.28v52.12h10.33V281.86a7.25,7.25,0,0,1,7.21-7.28,6.81,6.81,0,0,1,4.95,2.14,7.09,7.09,0,0,1,1.92,5.14v30.54h18.78V286.06A11.85,11.85,0,0,1,979,274.35h1.26a12,12,0,0,1,11.64,11.71v26.33h17.84V281.86a7.25,7.25,0,0,1,7.21-7.28,6.81,6.81,0,0,1,4.95,2.14,7.09,7.09,0,0,1,1.92,5.14v30.54Z" transform="translate(-49.64 -64.07)"/><path class="cls-12" d="M967.48,310.16v-24.1A11.85,11.85,0,0,1,979,274.35h1.26a12,12,0,0,1,11.64,11.71v24.1h1.88V286.49a13.94,13.94,0,0,0-4.23-9.7,14.37,14.37,0,0,0-10-4,14,14,0,0,0-14,13.73v23.67Z" transform="translate(-49.64 -64.07)"/><rect class="cls-20" x="817.08" y="290.59" width="40.66" height="53.7"/><rect class="cls-18" x="855.47" y="257.23" width="152.92" height="4.69"/><rect class="cls-4" x="821.25" y="292" width="23.56" height="44.3"/><rect class="cls-4" x="897.42" y="245.93" width="65.78" height="12.31"/><rect class="cls-12" x="891.52" y="242.5" width="5.91" height="15.75"/><path class="cls-21" d="M952.36,268.36v50h-4V281.86a7,7,0,0,0-1.76-5.14,6.9,6.9,0,0,0-5-2.14,7.28,7.28,0,0,0-7.25,7.28v36.51h-4v-50Z" transform="translate(-49.64 -64.07)"/><path class="cls-22" d="M999.36,268.36v50h-7v-32.3c0-6.23-5.88-11.7-12.12-11.7H979a11.94,11.94,0,0,0-11.62,11.7v32.3h-7v-50Z" transform="translate(-49.64 -64.07)"/><path class="cls-23" d="M1028.36,268.36v50h-5V281.86a6.6,6.6,0,0,0-6.72-7.28,7.31,7.31,0,0,0-7.28,7.28v36.51h-4v-50Z" transform="translate(-49.64 -64.07)"/><rect class="cls-19" x="842.51" y="260.44" width="15.23" height="58.66"/><rect class="cls-24" x="846" y="264.75" width="8.25" height="50.04"/><rect class="cls-12" x="843.34" y="257.55" width="12.81" height="2.89"/><polygon class="cls-12" points="856.14 257.56 843.34 257.56 841.73 255.61 857.75 255.61 856.14 257.56"/><rect class="cls-12" x="843.67" y="321.7" width="12.48" height="3.85"/><polygon class="cls-12" points="856.15 321.7 843.67 321.7 842.51 319.11 857.75 319.11 856.15 321.7"/><rect class="cls-20" x="841.73" y="239.57" width="16.01" height="16.04"/><path class="cls-19" d="M1054.36,321.36v87H1005c0-.94.4-2.35.4-3.83V361.82a24.67,24.67,0,0,0-2.17-9.85,23.31,23.31,0,0,0-5-7.28A23.79,23.79,0,0,0,959.35,352a24.24,24.24,0,0,0-2,9.85v42.72c0,1.48-.53,2.89-.25,3.83H907.36v-87Z" transform="translate(-49.64 -64.07)"/><rect class="cls-4" x="857.56" y="244.56" width="33.96" height="5.12"/><rect class="cls-4" x="843.34" y="236.82" width="12.81" height="2.75"/><polygon class="cls-4" points="856.15 236.82 843.33 236.82 841.35 233.05 858.14 233.05 856.15 236.82"/><rect class="cls-4" x="842" y="224.57" width="15.48" height="9.96" rx="4" ry="4"/><path class="cls-4" d="M843.21,229.55h13.07a1.86,1.86,0,0,1,1.86,1.86V233a0,0,0,0,1,0,0H841.35a0,0,0,0,1,0,0v-1.63A1.86,1.86,0,0,1,843.21,229.55Z"/><rect class="cls-4" x="845.67" y="222.07" width="8.16" height="2.5"/><polygon class="cls-4" points="853.83 222.07 845.67 222.07 843.75 219.57 855.74 219.57 853.83 222.07"/><rect class="cls-12" x="841.75" y="336.62" width="16.76" height="7.62"/><path class="cls-12" d="M909.4,392.25s.25-2.63-3.25-2.63H893.34c-3.51,0-3.22,2.63-3.22,2.63s-.26,2.57,3.23,2.57c.19,4.45-1.88,4.77-1.88,4.77v1.53H908.2v-1.53s-2.16-.44-2-4.89C909.72,394.7,909.4,392.25,909.4,392.25Z" transform="translate(-49.64 -64.07)"/><rect class="cls-12" x="865.81" y="266.53" width="23.42" height="13.16"/><rect class="cls-12" x="865.81" y="283.43" width="23.42" height="34.35"/><rect class="cls-19" x="867.58" y="285.19" width="19.89" height="30.82"/><rect class="cls-12" x="868.9" y="287.96" width="17.24" height="25.29"/><rect class="cls-19" x="870.2" y="289.26" width="14.64" height="22.7"/><rect class="cls-19" x="867.58" y="268.11" width="19.89" height="10"/><rect class="cls-12" x="865.81" y="321.93" width="23.42" height="13.16"/><rect class="cls-19" x="867.58" y="323.51" width="19.89" height="10"/><rect class="cls-19" x="881.22" y="177.78" width="96.07" height="22.3"/><rect class="cls-20" x="886.15" y="184.1" width="18.68" height="9.89"/><rect class="cls-20" x="953.76" y="184.1" width="18.68" height="9.89"/><rect class="cls-12" x="909.55" y="184.1" width="39.41" height="9.89"/><rect class="cls-20" x="890.48" y="265.66" width="6.94" height="59.09"/><path class="cls-5" d="M932.23,256.09c-6.6-1.31-8-5.14-7.89-7.91h-6.61c.64,3.18,1.89,7.2,3.15,9.16,1.93,3,2.93,11.24,2.93,11.24.09.69.47,2.12.47,2.12V257.45s3.18,4.83,17.86,5.36,36.13.14,36.13.14v-5.5C962.31,257.45,941.07,257.83,932.23,256.09Z" transform="translate(-49.64 -64.07)"/><path class="cls-5" d="M1034.07,248.17c.08,2.77-1.28,6.6-7.89,7.91-8.84,1.75-31.95,1.36-47.91,1.36V263s23.32.4,38-.14,17.86-5.36,17.86-5.36v13.24s.38-1.43.47-2.12c0,0,1-8.23,2.93-11.24,1.26-2,2.51-6,3.15-9.16Z" transform="translate(-49.64 -64.07)"/><path class="cls-25" d="M1011.36,329.36v23H1003a21.21,21.21,0,0,0-4.92-7.47,23.58,23.58,0,0,0-16.93-7,23.25,23.25,0,0,0-22,14.5H948.36v-23Z" transform="translate(-49.64 -64.07)"/><path class="cls-20" d="M999.61,342.64A25.88,25.88,0,0,0,955.36,361v45.81c0,.56-.13.61-.13,1.55h1.88c0-.94.25-3.31.25-3.83V361.82a24,24,0,1,1,48,0v42.72c0,1.48-.39,2.89-.4,3.83h2.4V361A26,26,0,0,0,999.61,342.64Z" transform="translate(-49.64 -64.07)"/><rect class="cls-20" x="857.9" y="339.08" width="147.26" height="5.21"/><rect class="cls-4" x="817.08" y="285.19" width="25.25" height="5.4"/><path class="cls-20" d="M867.36,337.36v71h-14V364.59A7.82,7.82,0,0,0,851.2,359a7.32,7.32,0,0,0-5.32-2.32,7.6,7.6,0,0,0-7.51,7.91v43.77h-14v-71Z" transform="translate(-49.64 -64.07)"/><path class="cls-26" d="M856.36,352.36v55h-3V364.59A7.82,7.82,0,0,0,851.2,359a7.32,7.32,0,0,0-5.32-2.32,7.6,7.6,0,0,0-7.51,7.91v42.77h-3v-55Z" transform="translate(-49.64 -64.07)"/><rect class="cls-12" x="785.44" y="276.8" width="21.6" height="9.48"/><rect class="cls-19" x="787.91" y="278.63" width="16.66" height="5.82"/><rect class="cls-20" x="1054.34" y="354.67" width="40.91" height="53.7" transform="translate(2099.95 698.96) rotate(-180)"/><rect class="cls-4" x="1017.86" y="308.64" width="37.36" height="5.12" transform="translate(2023.45 558.32) rotate(-180)"/><rect class="cls-4" x="1067.52" y="356.08" width="23.56" height="44.3" transform="translate(2108.96 692.37) rotate(-180)"/><rect class="cls-12" x="1012.84" y="306.57" width="5.91" height="15.75" transform="translate(1981.95 564.81) rotate(-180)"/><rect class="cls-19" x="1054.34" y="324.52" width="15.23" height="58.66" transform="translate(2074.28 643.62) rotate(-180)"/><rect class="cls-24" x="1057.83" y="328.83" width="8.25" height="50.04" transform="translate(2074.28 643.62) rotate(-180)"/><rect class="cls-12" x="1055.94" y="321.63" width="12.81" height="2.89" transform="translate(2075.05 582.07) rotate(-180)"/><polygon class="cls-12" points="1006.31 257.56 1019.12 257.56 1020.72 255.61 1004.71 255.61 1006.31 257.56"/><rect class="cls-12" x="1055.94" y="385.77" width="12.48" height="3.85" transform="translate(2074.72 711.32) rotate(-180)"/><polygon class="cls-12" points="1006.3 321.7 1018.79 321.7 1019.94 319.11 1004.71 319.11 1006.3 321.7"/><rect class="cls-20" x="1054.34" y="303.64" width="16.01" height="16.04" transform="translate(2075.06 559.25) rotate(-180)"/><rect class="cls-4" x="1055.94" y="300.89" width="12.81" height="2.75" transform="translate(2075.05 540.46) rotate(-180)"/><polygon class="cls-4" points="1006.31 236.82 1019.12 236.82 1021.1 233.05 1004.31 233.05 1006.31 236.82"/><rect class="cls-4" x="1054.61" y="288.65" width="15.48" height="9.96" rx="4" ry="4" transform="translate(2075.06 523.18) rotate(180)"/><path class="cls-4" d="M1053.95,293.62h16.79a0,0,0,0,1,0,0v1.63a1.86,1.86,0,0,1-1.86,1.86h-13.07a1.86,1.86,0,0,1-1.86-1.86v-1.63A0,0,0,0,1,1053.95,293.62Z" transform="translate(2075.05 526.67) rotate(180)"/><rect class="cls-4" x="1058.27" y="286.14" width="8.16" height="2.5" transform="translate(2075.05 510.72) rotate(-180)"/><polygon class="cls-4" points="1008.63 222.07 1016.78 222.07 1018.7 219.57 1006.72 219.57 1008.63 222.07"/><rect class="cls-12" x="1053.58" y="400.69" width="16.76" height="7.67" transform="translate(2074.28 744.98) rotate(-180)"/><path class="cls-12" d="M1052.32,392.25s-.25-2.63,3.25-2.63h12.81c3.51,0,3.22,2.63,3.22,2.63s.26,2.57-3.23,2.57c-.19,4.45,1.88,4.77,1.88,4.77v1.53h-16.72v-1.53s2.16-.44,2-4.89C1052,394.7,1052.32,392.25,1052.32,392.25Z" transform="translate(-49.64 -64.07)"/><rect class="cls-12" x="1023.56" y="330.6" width="23.42" height="13.16" transform="translate(2020.89 610.29) rotate(-180)"/><rect class="cls-12" x="1023.56" y="347.5" width="23.42" height="34.35" transform="translate(2020.89 665.28) rotate(-180)"/><rect class="cls-19" x="1025.32" y="349.27" width="19.89" height="30.82" transform="translate(2020.89 665.28) rotate(-180)"/><rect class="cls-12" x="1026.64" y="352.03" width="17.24" height="25.29" transform="translate(2020.89 665.28) rotate(-180)"/><rect class="cls-19" x="1027.94" y="353.33" width="14.64" height="22.7" transform="translate(2020.89 665.28) rotate(-180)"/><rect class="cls-19" x="1025.32" y="332.18" width="19.89" height="10" transform="translate(2020.89 610.29) rotate(-180)"/><rect class="cls-12" x="1023.56" y="386" width="23.42" height="13.16" transform="translate(2020.89 721.09) rotate(-180)"/><rect class="cls-19" x="1025.32" y="387.58" width="19.89" height="10" transform="translate(2020.89 721.09) rotate(-180)"/><rect class="cls-20" x="1012.32" y="329.74" width="6.94" height="59.09" transform="translate(1981.95 654.48) rotate(-180)"/><rect class="cls-4" x="1070" y="349.27" width="25.25" height="5.4" transform="translate(2115.61 639.86) rotate(-180)"/><path class="cls-20" d="M1094.9,337.36v71h13V364.59a8.26,8.26,0,0,1,8.16-7.91,7.87,7.87,0,0,1,7.84,7.91v43.77h13v-71Z" transform="translate(-49.64 -64.07)"/><path class="cls-27" d="M1104.9,352.36v55h3V364.59a8.26,8.26,0,0,1,8.16-7.91,7.87,7.87,0,0,1,7.84,7.91v42.77h3v-55Z" transform="translate(-49.64 -64.07)"/><rect class="cls-20" x="1105.29" y="340.87" width="21.6" height="9.48" transform="translate(2182.54 627.15) rotate(-180)"/><rect class="cls-12" x="1107.76" y="342.7" width="16.66" height="5.82" transform="translate(2182.54 627.15) rotate(-180)"/><path class="cls-4" d="M989.57,236.69c-.12-1.36-1.46-1.87-2.88-1.95s-1.64.83-2.31,1-1.29.07-1.42-.54,1.47-1,2-2.08a2,2,0,0,0-.25-2.33c-.31-.13-.71-.23-.74-.66s-.26-.41-.63-.53-.26-.36,0-1.06a4.48,4.48,0,0,0,.5-1.7c0-.45-.45-.73-.53-1.11s-.33,0-.38.56a1.68,1.68,0,0,1-.28,1.06c-.28.45-.46.17-.91.79s-.25.84-.58,1-.55-.28-.36-.77a.93.93,0,0,0-.07-1c-.17-.3-.2-.38-.38.2s-.79.38-1-.08.18-1.09,0-1.52a2.7,2.7,0,0,1-.56-1.84c0-.78-.12-.74-.28-1s0-.73-.35-.68-.17,1-.25,1.65-.55,1-.63,1.47.21.68.26,1-.38.51-.46.88.13.55-.25.6-.46-.38-.53-.56.21-.51-.24-.28-.4,1.53-.59,1.65-.6-.27-.75-1.09-1-1.24-1.27-1.8-.18-1.33-.68-.59.38,3.1.18,3.78-1.68,1.65-1.33,3.19A4.47,4.47,0,0,0,973,234.8c.41.24.8.27.8.62s-.38.56-1.12.44-1.71-1.59-3.75-.86-2.72,3.24-2.72,3.24l.24,1.11h23.11A17.6,17.6,0,0,0,989.57,236.69ZM978.34,235a2.3,2.3,0,1,1,2.3-2.3A2.3,2.3,0,0,1,978.34,235Z" transform="translate(-49.64 -64.07)"/><ellipse class="cls-4" cx="894.66" cy="160.26" rx="4.91" ry="3.39"/><path class="cls-4" d="M942.2,225.68s.45.05-.36,3.4-.72,4.52.5,5.79,3.83,3.79,6.88,3.79c2.24,0,13.88.37,18.69,0,1.74-.13.57-1.28.57-1.28s-20.4-1.71-20.68-7c.22-2.31,1.63-3.36,1.43-6.07" transform="translate(-49.64 -64.07)"/><ellipse class="cls-4" cx="900.06" cy="170.66" rx="4.97" ry="3.45"/><path class="cls-4" d="M954.22,234.37s1.52-1.64,1.1-2.32c-.17-.18-.09.15-.64.3a1.12,1.12,0,0,1-1.35-.39,2.74,2.74,0,0,1-.37-1.36c0-.45-.39-.06-.5.35a2.47,2.47,0,0,0,0,1.75A9.13,9.13,0,0,0,954.22,234.37Z" transform="translate(-49.64 -64.07)"/><path class="cls-4" d="M949.21,232a10.82,10.82,0,0,1-.29-3.25c.25-.8.54-1.07.93-1s.32.45.12.58a.59.59,0,0,0-.28.68,7.06,7.06,0,0,0,.37.66s.11.25.33,0,.07-.41.36-.57.66,0,.5.3a1.54,1.54,0,0,0-.18,1c.05.4.53.14.61.34a3.1,3.1,0,0,1-.11,1.26C951.49,232,949.21,232,949.21,232Z" transform="translate(-49.64 -64.07)"/><ellipse class="cls-4" cx="965.01" cy="160.26" rx="4.91" ry="3.39"/><path class="cls-4" d="M1016.74,225.68s-.45.05.36,3.4.72,4.52-.5,5.79-3.83,3.79-6.88,3.79c-2.24,0-13.88.37-18.69,0-1.74-.13-.57-1.28-.57-1.28s20.4-1.71,20.68-7c-.22-2.31-1.63-3.36-1.43-6.07" transform="translate(-49.64 -64.07)"/><ellipse class="cls-4" cx="959.61" cy="170.66" rx="4.97" ry="3.45"/><path class="cls-4" d="M1004.72,234.37s-1.52-1.64-1.1-2.32c.17-.18.09.15.64.3a1.12,1.12,0,0,0,1.35-.39,2.74,2.74,0,0,0,.37-1.36c0-.45.39-.06.5.35a2.47,2.47,0,0,1,0,1.75A9.13,9.13,0,0,1,1004.72,234.37Z" transform="translate(-49.64 -64.07)"/><path class="cls-4" d="M1009.73,232a10.82,10.82,0,0,0,.29-3.25c-.25-.8-.54-1.07-.93-1s-.32.45-.12.58a.59.59,0,0,1,.28.68,7.06,7.06,0,0,1-.37.66s-.11.25-.33,0-.07-.41-.36-.57-.66,0-.5.3a1.54,1.54,0,0,1,.18,1c-.05.4-.53.14-.61.34a3.1,3.1,0,0,0,.11,1.26C1007.45,232,1009.73,232,1009.73,232Z" transform="translate(-49.64 -64.07)"/><path class="cls-4" d="M923.81,271.39s-1-8.23-2.93-11.24-3.84-10.88-3.57-13.08,2.08-4.85,4.57-4.39,3.71,3.79,2.88,6-1.38,8.48,7.46,10.23,30.08,1.37,46,1.37v5.5s-21.45.4-36.13-.14-17.86-5.36-17.86-5.36v13.24S923.9,272.08,923.81,271.39Z" transform="translate(-49.64 -64.07)"/><path class="cls-4" d="M1034.61,271.39s1-8.23,2.93-11.24,3.84-10.88,3.57-13.08-2.08-4.85-4.57-4.39-3.71,3.79-2.88,6,1.38,8.48-7.46,10.23-31.95,1.37-47.91,1.37v5.5s23.32.4,38-.14,17.86-5.36,17.86-5.36v13.24S1034.52,272.08,1034.61,271.39Z" transform="translate(-49.64 -64.07)"/><path class="cls-5" d="M937.91,236.37c-5.8-1.31-7-5.14-6.93-7.91h-5.8a35,35,0,0,0,2.76,9.16c1.7,3,2.57,11.24,2.57,11.24.08.69.41,2.12.41,2.12V237.73s2.79,4.83,15.68,5.36,31.72.14,31.72.14v-5.5C964.32,237.73,945.67,238.12,937.91,236.37Z" transform="translate(-49.64 -64.07)"/><path class="cls-5" d="M1027.33,228.45c.07,2.77-1.13,6.6-6.93,7.91-7.76,1.75-28.05,1.36-42.07,1.36v5.5s20.48.4,33.37-.14,15.68-5.36,15.68-5.36V251s.33-1.43.41-2.12c0,0,.87-8.23,2.57-11.24a35,35,0,0,0,2.76-9.16Z" transform="translate(-49.64 -64.07)"/><path class="cls-4" d="M930.52,251.68s-1-6-2.09-9.73a17.31,17.31,0,0,1-.56-2.92c-.74-7-6.16-12.36-5.93-14.43,6.24,1.87,5.34.74,7.53,1.2.67.71.88.89,1.39,3,.49,2.3-.7,8.65,7.06,10.4s26.41,1.37,40.42,1.37V246s-18.83.4-31.72-.14-15.76-4.06-15.76-4.06l.08,11.94S930.6,252.36,930.52,251.68Z" transform="translate(-49.64 -64.07)"/><path class="cls-4" d="M1027.3,251.68s1-6,2.09-9.73A17.31,17.31,0,0,0,1030,239c.74-7,6.16-12.36,5.93-14.43-6.24,1.87-5.34.74-7.53,1.2-.67.71-.88.89-1.39,3-.49,2.3.7,8.65-7.06,10.4s-27.55,1.37-41.57,1.37V246s20,.4,32.87-.14,15.76-4.06,15.76-4.06l-.08,11.94S1027.22,252.36,1027.3,251.68Z" transform="translate(-49.64 -64.07)"/><path class="cls-18" d="M978.34,229.81a2.9,2.9,0,1,0,2.9,2.9A2.9,2.9,0,0,0,978.34,229.81Zm0,5.2a2.3,2.3,0,1,1,2.3-2.3A2.3,2.3,0,0,1,978.34,235Z" transform="translate(-49.64 -64.07)"/><circle class="cls-4" cx="1103.72" cy="5.98" r="5.98"/><path class="cls-28" d="M1146.91,70.28s-5.58-.14-7.18,9.46-1.14,25.13-1.14,25.13l-2.53,1v19.45l-1.87,1.87V147h-2.07v23h-2.68v24.66h-3.07v28.29h-2v31.59h-2.42v30.76h-3.64v34.39h-3v39.09h-3v43.6h28.42l2.21-65.88,3.23-73.28,2.22-60,.54-90,1.46-8.81-.52-9.92,3.52-24.16Z" transform="translate(-49.64 -64.07)"/><path class="cls-28" d="M1159.8,70.28s5.58-.14,7.18,9.46,1.14,25.13,1.14,25.13l2.53,1v19.45l1.87,1.87V147h2.07v23h2.68v24.66h3.07v28.29h2v31.59h2.42v30.76h3.64v34.39h3v39.09h3v43.6h-30.32l-7.76-332.09Z" transform="translate(-49.64 -64.07)"/><path class="cls-28" d="M1159.77,70.36h-12.87l-12.19,332H1172Zm-8.41,26a2,2,0,0,1,2-2,2,2,0,0,1,1.41.57,2,2,0,0,1,.61,1.38v6h-4Zm-1,19.35a2.78,2.78,0,0,1,2.8-2.57,3.36,3.36,0,0,1,2.13.76,2.92,2.92,0,0,1,1.07,1.82v8h-6Zm0,19.55a3,3,0,0,1,3-3,3,3,0,0,1,3,3v9.28h-6Zm-1,23a4,4,0,0,1,6.79-2.76,3.94,3.94,0,0,1,1.21,2.76v12.12h-8Zm-1,22.39a4.75,4.75,0,0,1,4.77-4.5,5.36,5.36,0,0,1,3.54,1.32,4.85,4.85,0,0,1,1.69,3.18v13.93h-10Zm0,29.53a5,5,0,0,1,8.52-3.49,4.94,4.94,0,0,1,1.48,3.49v15.32h-10Zm0,29.6a5.23,5.23,0,0,1,5.19-5.33,4.69,4.69,0,0,1,3.5,1.57,5.09,5.09,0,0,1,1.31,3.76v16.49h-4.11l-5.89,0Zm0,29.8a5.34,5.34,0,0,1,5.29-5.52,4.17,4.17,0,0,1,3.49,1.62,5.8,5.8,0,0,1,1.22,3.9v17.09h-4.08l-5.92,0Zm-1,33.32a6.09,6.09,0,0,1,6.07-6.07,5.85,5.85,0,0,1,4.21,1.79,6,6,0,0,1,1.72,4.29v21h-5l-7,0Zm13,88.4h-14v-13.6a6.88,6.88,0,0,1,6.86-6.87,7.12,7.12,0,0,1,5,2,6.94,6.94,0,0,1,2.16,4.85Zm-5.85-27.86-8.15,0V339.76a6.88,6.88,0,0,1,6.86-6.87,7.12,7.12,0,0,1,5,2,6.94,6.94,0,0,1,2.16,4.85v23.75Z" transform="translate(-49.64 -64.07)"/><polygon class="cls-28" points="1122.14 183.29 1106.27 183.29 1102.06 183.29 1085.08 183.29 1064.06 185.61 1072.05 191.75 1100.7 192.29 1102.06 192.29 1106.27 192.29 1107.63 192.29 1136.28 191.64 1143.88 185.62 1122.14 183.29"/><path class="cls-5" d="M1182.12,252.36c-9.82,0-10.09-7.54-10.09-7.54s.34,6.53-18.66,6.53h0c-19,0-18.67-6.53-18.67-6.53s-.25,7.54-10.08,7.54-13.12-4.95-13.12-4.95,4,9.94,14.69,10.3c5,.17,16.41.18,27.17.14s22.19,0,27.17-.14c10.66-.36,14.69-10.3,14.69-10.3S1191.94,252.36,1182.12,252.36Z" transform="translate(-49.64 -64.07)"/><polygon class="cls-28" points="1120.21 152.29 1105.99 152.29 1102.24 152.29 1087.17 152.29 1068.04 154.63 1075.57 159.93 1101.04 160.29 1102.24 160.29 1105.99 160.29 1107.19 160.29 1132.65 159.94 1139.76 154.51 1120.21 152.29"/><path class="cls-5" d="M1178.92,221.25c-8.73,0-9-6.7-9-6.7s.41,5.8-16.59,5.8h0c-17,0-16.59-5.8-16.59-5.8s-.23,6.7-9,6.7-11.66-4.39-11.66-4.39,3.58,8.83,13.06,9.15c4.43.15,14.58.16,24.15.13s19.72,0,24.15-.13c9.47-.32,13.06-9.15,13.06-9.15S1187.65,221.25,1178.92,221.25Z" transform="translate(-49.64 -64.07)"/><polygon class="cls-28" points="1118.7 124.29 1105.77 124.29 1102.38 124.29 1088.74 124.23 1071.17 126.64 1078.25 131.67 1101.29 132.29 1102.38 132.29 1105.77 132.29 1106.86 132.29 1129.91 131.78 1136.34 126.58 1118.7 124.29"/><path class="cls-5" d="M1176.49,193.17c-7.9,0-8.11-6.06-8.11-6.06s0,5.25-15,5.25h0c-15,0-15-5.25-15-5.25s-.2,6.06-8.11,6.06-10.55-4-10.55-4,3.24,8,11.81,8.28c4,.14,13.2.14,21.85.12s17.85,0,21.85-.12c8.57-.29,11.82-8.28,11.82-8.28S1184.39,193.17,1176.49,193.17Z" transform="translate(-49.64 -64.07)"/><polygon class="cls-28" points="1116.64 101.29 1105.52 101.29 1102.55 101.29 1090.24 101.29 1075.82 103.02 1081.44 107.13 1101.6 107.29 1102.55 107.29 1105.52 107.29 1106.47 107.29 1126.63 107.09 1132.25 102.92 1116.64 101.29"/><path class="cls-5" d="M1173.59,169.06c-6.91,0-7.1-5.3-7.1-5.3s-.13,4.59-13.13,4.59h0c-13,0-13.13-4.59-13.13-4.59s-.18,5.3-7.09,5.3-9.23-3.48-9.23-3.48,2.83,7,10.33,7.25c3.5.12,11.54.13,19.11.1s15.61,0,19.12-.1c7.5-.25,10.34-7.25,10.34-7.25S1180.5,169.06,1173.59,169.06Z" transform="translate(-49.64 -64.07)"/><polygon class="cls-28" points="1115.02 78.29 1105.29 78.29 1102.7 78.29 1092.42 78.29 1078.99 80.04 1084.28 83.86 1101.87 84.29 1102.7 84.29 1105.29 84.29 1106.12 84.29 1123.71 83.92 1128.61 80 1115.02 78.29"/><path class="cls-5" d="M1171,146c-6,0-6.19-4.63-6.19-4.63s-.46,4-11.46,4h0c-11,0-11.46-4-11.46-4s-.16,4.63-6.19,4.63-8.05-3-8.05-3,2.47,6.1,9,6.32c3.06.1,10.07.11,16.68.09s13.62,0,16.68-.09c6.54-.22,9-6.32,9-6.32S1177,146,1171,146Z" transform="translate(-49.64 -64.07)"/><polygon class="cls-28" points="1114.21 58.29 1105.17 58.29 1102.78 58.29 1093.19 58.29 1080.74 60.04 1085.76 63.72 1102.01 64.29 1102.78 64.29 1105.17 64.29 1105.94 64.29 1122.19 63.84 1126.72 60.04 1114.21 58.29"/><path class="cls-5" d="M1169.67,125.93c-5.57,0-5.72-4.28-5.72-4.28s-.59,3.7-10.59,3.7h0c-10,0-10.59-3.7-10.59-3.7s-.14,4.28-5.72,4.28-7.44-2.81-7.44-2.81,2.29,5.64,8.33,5.84c2.83.1,9.31.1,15.41.08s12.59,0,15.41-.08c6-.2,8.33-5.84,8.33-5.84S1175.25,125.93,1169.67,125.93Z" transform="translate(-49.64 -64.07)"/><polygon class="cls-28" points="1113.28 37.29 1105.03 37.29 1102.87 37.29 1094.15 37.29 1083.05 39.36 1087.44 42.56 1102.17 43.29 1102.87 43.29 1105.03 43.29 1105.73 43.29 1120.46 42.74 1124.57 39.09 1113.28 37.29"/><path class="cls-5" d="M1168.14,104.87c-5.05,0-5.19-3.88-5.19-3.88s-.59,3.36-9.59,3.36h0c-9,0-9.6-3.36-9.6-3.36s-.13,3.88-5.18,3.88-6.74-2.54-6.74-2.54,2.07,5.11,7.55,5.3c2.56.09,8.44.09,14,.07s11.41,0,14-.07c5.48-.19,7.55-5.3,7.55-5.3S1173.19,104.87,1168.14,104.87Z" transform="translate(-49.64 -64.07)"/><polygon class="cls-28" points="1112.23 17.29 1104.89 17.29 1102.96 17.29 1095.19 17.29 1085.31 19.29 1089.22 22.4 1102.34 23.29 1102.96 23.29 1104.89 23.29 1105.51 23.29 1118.63 22.64 1122.29 19.14 1112.23 17.29"/><path class="cls-5" d="M1166.53,84.82c-4.5,0-4.62-3.45-4.62-3.45s-.55,3-8.55,3h0c-8,0-8.55-3-8.55-3s-.12,3.45-4.61,3.45-6-2.26-6-2.26,1.84,4.55,6.73,4.72c2.28.08,7.51.08,12.44.07s10.16,0,12.44-.07c4.88-.16,6.73-4.72,6.73-4.72S1171,84.82,1166.53,84.82Z" transform="translate(-49.64 -64.07)"/><polygon class="cls-28" points="1124.35 214.29 1106.54 214.29 1101.88 214.29 1082.54 214.29 1059.89 216.61 1068.72 222.75 1100.38 223.29 1101.88 223.29 1106.54 223.29 1108.04 223.29 1139.7 222.64 1148.53 216.66 1124.35 214.29"/><path class="cls-5" d="M1185.14,283.36c-10.86,0-11.15-7.54-11.15-7.54s.38,6.53-20.62,6.53h0c-21,0-20.63-6.53-20.63-6.53s-.28,7.54-11.14,7.54-14.5-4.95-14.5-4.95a18.81,18.81,0,0,0,16.23,10.3c5.5.17,18.13.18,30,.14s24.52,0,30-.14a18.82,18.82,0,0,0,16.24-10.3S1196,283.36,1185.14,283.36Z" transform="translate(-49.64 -64.07)"/><polygon class="cls-28" points="1127.46 247.29 1107.01 247.29 1101.57 247.29 1079 247.29 1052.57 250.17 1062.88 257.5 1099.83 258.29 1101.57 258.29 1107.01 258.29 1108.75 258.29 1145.7 257.45 1156.01 250.26 1127.46 247.29"/><path class="cls-5" d="M1190.44,317.53c-12.67,0-13-8.8-13-8.8s-.07,7.62-24.07,7.62h0c-25,0-24.07-7.62-24.07-7.62s-.33,8.8-13,8.8-16.92-5.77-16.92-5.77a22,22,0,0,0,18.94,12c6.42.2,21.16.21,35,.17s28.62,0,35-.17a22,22,0,0,0,18.95-12S1203.11,317.53,1190.44,317.53Z" transform="translate(-49.64 -64.07)"/><polygon class="cls-28" points="1131.47 286.29 1107.25 286.29 1101.41 286.29 1077.19 286.29 1048.82 289.2 1059.88 296.75 1099.54 297.29 1101.41 297.29 1107.25 297.29 1109.12 297.29 1148.78 296.61 1159.85 289.19 1131.47 286.29"/><path class="cls-5" d="M1211.29,350.46A23.58,23.58,0,0,1,1191,363.32c-6,.18-18.83.22-31.89.19h-5.72l-8,0c-12.25,0-23.94,0-29.6-.2a23.55,23.55,0,0,1-20.32-12.79,8.62,8.62,0,0,0,3.44,2.84h0c2.79,2,7.47,3.33,14.69,3.33,8.26,0,11.63-3.52,13-6.26a9.06,9.06,0,0,0,.93-3.09,4.3,4.3,0,0,0,1.64,3c2,1.85,6.44,4,16.21,4.71,2.34.18,5,.28,8,.28q3.11,0,5.73-.15c10.87-.59,15.87-2.86,18.16-4.84,1.92-1.66,2-3.11,2-3.19a8.55,8.55,0,0,0,.93,3.19c1.37,2.74,4.74,6.26,13,6.26,7.39,0,12.11-1.83,14.87-3.51A12.49,12.49,0,0,0,1211.29,350.46Z" transform="translate(-49.64 -64.07)"/><rect class="cls-4" x="1065.39" y="332.77" width="76.67" height="11.52"/><rect class="cls-29" x="1058.27" y="329.79" width="90.91" height="8.5"/><path class="cls-2" d="M1117.76,408.39h-20.58a16,16,0,0,1-8.78-14c0-9.2,8.54-16.64,19.07-16.64s19.07,7.44,19.07,16.63A16,16,0,0,1,1117.76,408.39Z" transform="translate(-49.64 -64.07)"/><path class="cls-3" d="M1106.31,377.77v30.63h-10.12a16,16,0,0,1-8.78-14C1087.41,385.25,1095.86,377.84,1106.31,377.77Z" transform="translate(-49.64 -64.07)"/><path class="cls-5" d="M601.85,365.29s1.78,6.36,6.67,9.55c-1.84-.27-3-.52-3-.52a17.25,17.25,0,0,1-5.21-9.15Z" transform="translate(-49.64 -64.07)"/><path class="cls-3" d="M604.83,373.86a1.9,1.9,0,0,0,.19.81c.86,1.84,5.11,3.23,9.57,3.23,5.09,0,9.77-1.81,9.77-4v-.07c-1-2.19-4.73-4-9.77-4S604.83,371.64,604.83,373.86Z" transform="translate(-49.64 -64.07)"/><path class="cls-30" d="M605,374.68c.86,1.84,5.11,3.23,9.57,3.23,5.09,0,9.77-1.81,9.77-4v-.07c-3-.2-4.66-.31-6.93-.31A57.84,57.84,0,0,0,605,374.68Z" transform="translate(-49.64 -64.07)"/><path class="cls-5" d="M601.88,366.9s-2.23,6-6.38,8.52c1.43,0,2.34-.1,2.34-.1a17.67,17.67,0,0,0,5.22-8.32Z" transform="translate(-49.64 -64.07)"/><path class="cls-3" d="M591.55,368.4a10.72,10.72,0,0,1-.18-1.84,11,11,0,0,1,22,0,10.72,10.72,0,0,1-.18,1.84Z" transform="translate(-49.64 -64.07)"/><path class="cls-3" d="M581.13,373a1.76,1.76,0,0,0,.21.81c.94,1.84,5.52,3.23,10.41,3.23,5.58,0,10.62-1.81,10.62-4v-.07c-1-2.19-5.1-4-10.62-4S581.13,370.73,581.13,373Z" transform="translate(-49.64 -64.07)"/><path class="cls-30" d="M581.34,373.76c.94,1.84,5.52,3.23,10.41,3.23,5.58,0,10.62-1.81,10.62-4v-.07c-3-.2-5-.31-7.52-.31A68.33,68.33,0,0,0,581.34,373.76Z" transform="translate(-49.64 -64.07)"/><path class="cls-3" d="M603,380.53a1.21,1.21,0,0,0,.13.57c.61,1.29,3.59,2.35,7,2.46,3.89.13,7.26-1,7.31-2.55V381c-.59-1.53-3.28-2.84-7.13-3S603.08,379,603,380.53Z" transform="translate(-49.64 -64.07)"/><path class="cls-5" d="M596.15,394.48h12.77L604.15,389a9.51,9.51,0,0,1-2.34-6.25v-4.22h-4.09v6a18.5,18.5,0,0,1-.36,3.63Z" transform="translate(-49.64 -64.07)"/><path class="cls-30" d="M603.16,381.1c.61,1.29,3.59,2.35,7,2.46,3.89.13,7.26-1,7.31-2.55V381c-1.9-.2-3.31-.32-5-.38A46.09,46.09,0,0,0,603.16,381.1Z" transform="translate(-49.64 -64.07)"/><path class="cls-31" d="M587.87,377a1.77,1.77,0,0,0,.39,1.07c1.37,1.84,6.22,3.21,12,3.21s10.71-1.39,12-3.26a1.71,1.71,0,0,0,.36-1c0-2.36-5.54-4.28-12.38-4.28S587.87,374.63,587.87,377Z" transform="translate(-49.64 -64.07)"/><rect class="cls-5" x="604.83" y="385.23" width="2.59" height="7.44" transform="translate(1162.62 713.83) rotate(-180)"/><path class="cls-30" d="M588.27,378.06c1.37,1.84,6.22,3.21,12,3.21s10.71-1.39,12-3.26c-2.22-.93-6.74-1.57-11.94-1.57S590.43,377.1,588.27,378.06Z" transform="translate(-49.64 -64.07)"/><path class="cls-31" d="M600.63,385.61a1.19,1.19,0,0,0,.26.71c.92,1.23,4.16,2.15,8,2.15s7.17-.93,8-2.18a1.14,1.14,0,0,0,.24-.68c0-1.58-3.71-2.86-8.29-2.86S600.63,384,600.63,385.61Z" transform="translate(-49.64 -64.07)"/><path class="cls-30" d="M600.89,386.32c.92,1.23,4.16,2.15,8,2.15s7.17-.93,8-2.18a24.12,24.12,0,0,0-8-1A23.55,23.55,0,0,0,600.89,386.32Z" transform="translate(-49.64 -64.07)"/><rect class="cls-19" x="540.49" y="331.02" width="25.79" height="13.27"/><rect class="cls-4" x="538.79" y="328.38" width="29.2" height="2.64"/><rect class="cls-32" x="620.68" y="233.09" width="44.93" height="111.2"/><rect class="cls-19" x="551.69" y="209.13" width="68.99" height="135.16"/><rect class="cls-19" x="551.69" y="162.45" width="68.99" height="41.35"/><rect class="cls-33" x="557.16" y="174.64" width="57.97" height="29.16"/><rect class="cls-5" x="551.69" y="203.8" width="68.99" height="6.28"/><rect class="cls-34" x="564.52" y="213" width="3.36" height="3.36"/><rect class="cls-34" x="584.54" y="213" width="3.36" height="3.36"/><rect class="cls-34" x="604.56" y="213" width="3.36" height="3.36"/><rect class="cls-34" x="559.25" y="223.04" width="13.9" height="33.41"/><rect class="cls-34" x="579.27" y="223.04" width="13.9" height="33.41"/><rect class="cls-34" x="599.29" y="223.04" width="13.9" height="33.41"/><rect class="cls-34" x="564.52" y="167.95" width="3.36" height="3.36"/><rect class="cls-34" x="584.54" y="167.95" width="3.36" height="3.36"/><rect class="cls-34" x="604.56" y="167.95" width="3.36" height="3.36"/><rect class="cls-34" x="559.25" y="177.99" width="13.9" height="22.74"/><rect class="cls-34" x="579.27" y="177.99" width="13.9" height="22.74"/><rect class="cls-34" x="599.29" y="177.99" width="13.9" height="22.74"/><rect class="cls-5" x="551.69" y="155.05" width="68.99" height="7.4"/><rect class="cls-34" x="554.66" y="150.08" width="62.98" height="4.97"/><rect class="cls-35" x="614.12" y="133.53" width="1.85" height="16.55"/><rect class="cls-35" x="556.24" y="133.53" width="1.85" height="16.55"/><rect class="cls-35" x="560.47" y="301.65" width="12.68" height="38.7"/><rect class="cls-35" x="597.96" y="301.65" width="15.23" height="38.7"/><rect class="cls-5" x="551.69" y="275.38" width="68.99" height="3.59"/><rect class="cls-32" x="551.69" y="268.07" width="68.99" height="7.31"/><rect class="cls-5" x="551.69" y="262.33" width="68.99" height="0.41"/><rect class="cls-5" x="551.69" y="262.53" width="0.32" height="5.53"/><rect class="cls-5" x="553.27" y="262.53" width="0.32" height="5.53"/><rect class="cls-5" x="566.19" y="262.53" width="0.32" height="5.53"/><rect class="cls-5" x="564.52" y="262.53" width="0.32" height="5.53"/><rect class="cls-5" x="562.85" y="262.53" width="0.32" height="5.53"/><rect class="cls-5" x="572.22" y="262.53" width="0.32" height="5.53"/><rect class="cls-5" x="570.56" y="262.53" width="0.32" height="5.53"/><rect class="cls-5" x="568.89" y="262.53" width="0.32" height="5.53"/><rect class="cls-5" x="588.59" y="262.53" width="0.32" height="5.53"/><rect class="cls-5" x="586.92" y="262.53" width="0.32" height="5.53"/><rect class="cls-5" x="585.25" y="262.53" width="0.32" height="5.53"/><rect class="cls-5" x="594.68" y="262.53" width="0.32" height="5.53"/><rect class="cls-5" x="593.01" y="262.53" width="0.32" height="5.53"/><rect class="cls-5" x="591.34" y="262.53" width="0.32" height="5.53"/><rect class="cls-5" x="611.37" y="262.53" width="0.32" height="5.53"/><rect class="cls-5" x="609.7" y="262.53" width="0.32" height="5.53"/><rect class="cls-5" x="608.03" y="262.53" width="0.32" height="5.53"/><rect class="cls-5" x="618.04" y="262.53" width="0.32" height="5.53"/><rect class="cls-5" x="616.37" y="262.53" width="0.32" height="5.53"/><rect class="cls-5" x="614.7" y="262.53" width="0.32" height="5.53"/><rect class="cls-36" x="551.69" y="278.97" width="68.99" height="17.69"/><rect class="cls-34" x="620.68" y="196.04" width="44.93" height="20.33"/><rect class="cls-37" x="662.23" y="216.37" width="3.38" height="16.72"/><rect class="cls-37" x="620.68" y="216.37" width="3.38" height="16.72"/><rect class="cls-37" x="641.21" y="216.37" width="3.38" height="16.72"/><rect class="cls-37" x="622.37" y="227.26" width="41.55" height="5.83"/><rect class="cls-37" x="622.37" y="216.37" width="41.06" height="1.68"/><rect class="cls-35" x="626.84" y="240.37" width="32.13" height="30.09"/><rect class="cls-19" x="620.68" y="277.14" width="44.93" height="1.83"/><rect class="cls-37" x="621.64" y="233.09" width="1.5" height="44.05"/><rect class="cls-5" x="620.68" y="278.97" width="44.93" height="3.66"/><rect class="cls-37" x="663.36" y="233.09" width="1.5" height="44.05"/><rect class="cls-34" x="631.93" y="317.97" width="8.98" height="26.32"/><rect class="cls-5" x="620.68" y="262.53" width="44.93" height="0.59"/><rect class="cls-5" x="620.68" y="264.2" width="44.93" height="0.59"/><rect class="cls-5" x="620.68" y="275.59" width="44.93" height="0.59"/><rect class="cls-5" x="621.48" y="264.79" width="0.37" height="12.34"/><rect class="cls-5" x="624.82" y="264.79" width="0.37" height="12.34"/><rect class="cls-5" x="628.15" y="264.79" width="0.37" height="12.34"/><rect class="cls-5" x="631.49" y="264.79" width="0.37" height="12.34"/><rect class="cls-5" x="634.83" y="264.79" width="0.37" height="12.34"/><rect class="cls-5" x="638.17" y="264.79" width="0.37" height="12.34"/><rect class="cls-5" x="641.5" y="264.79" width="0.37" height="12.34"/><rect class="cls-5" x="644.84" y="264.79" width="0.37" height="12.34"/><rect class="cls-5" x="648.18" y="264.79" width="0.37" height="12.34"/><rect class="cls-5" x="651.51" y="264.79" width="0.37" height="12.34"/><rect class="cls-5" x="654.85" y="264.79" width="0.37" height="12.34"/><rect class="cls-5" x="658.19" y="264.79" width="0.37" height="12.34"/><rect class="cls-5" x="661.53" y="264.79" width="0.37" height="12.34"/><rect class="cls-5" x="664.86" y="264.79" width="0.37" height="12.34"/><rect class="cls-35" x="665.61" y="147" width="39.22" height="197.29"/><rect class="cls-35" x="665.61" y="147" width="39.22" height="1.28"/><rect class="cls-5" x="665.61" y="148.29" width="39.22" height="7.85"/><rect class="cls-38" x="665.61" y="156.13" width="39.22" height="21.93"/><rect class="cls-19" x="670.58" y="189.15" width="29.28" height="25.41"/><rect class="cls-38" x="671.36" y="189.97" width="27.73" height="5.25"/><rect class="cls-38" x="671.39" y="197.12" width="27.73" height="16.18"/><rect class="cls-19" x="677.93" y="189.54" width="0.8" height="5.68"/><rect class="cls-19" x="673.41" y="196.49" width="0.8" height="17.07"/><rect class="cls-19" x="678.66" y="196.49" width="0.8" height="17.07"/><rect class="cls-19" x="692.29" y="196.67" width="0.8" height="17.07"/><rect class="cls-19" x="688.66" y="196.67" width="0.8" height="17.07"/><rect class="cls-19" x="684.86" y="189.54" width="0.8" height="5.68"/><rect class="cls-19" x="692.29" y="189.76" width="0.8" height="5.68"/><rect class="cls-5" x="670.58" y="215.72" width="29.28" height="7.64"/><rect class="cls-5" x="669.11" y="243.65" width="32.48" height="12.28"/><rect class="cls-34" x="665.61" y="282.63" width="39.22" height="5.18"/><rect class="cls-38" x="669.18" y="269.37" width="32.96" height="9.6"/><rect class="cls-34" x="668.47" y="266.48" width="33.76" height="1.02"/><rect class="cls-34" x="676.79" y="312.48" width="11.73" height="31.77"/><rect class="cls-4" x="665.61" y="228.14" width="39.22" height="2.61"/><rect class="cls-38" x="665.61" y="226.47" width="39.22" height="2.61"/><rect class="cls-4" x="672.88" y="168.19" width="7.16" height="9.87"/><rect class="cls-38" x="669.11" y="233.09" width="32.39" height="10.04"/><rect class="cls-38" x="669.11" y="256.45" width="32.39" height="10.04"/><path class="cls-5" d="M303.85,365.29s1.78,6.36,6.67,9.55c-1.84-.27-3-.52-3-.52a17.25,17.25,0,0,1-5.21-9.15Z" transform="translate(-49.64 -64.07)"/><path class="cls-3" d="M306.83,373.86a1.9,1.9,0,0,0,.19.81c.86,1.84,5.11,3.23,9.57,3.23,5.09,0,9.77-1.81,9.77-4v-.07c-1-2.19-4.73-4-9.77-4S306.83,371.64,306.83,373.86Z" transform="translate(-49.64 -64.07)"/><path class="cls-30" d="M307,374.68c.86,1.84,5.11,3.23,9.57,3.23,5.09,0,9.77-1.81,9.77-4v-.07c-3-.2-4.66-.31-6.93-.31A57.84,57.84,0,0,0,307,374.68Z" transform="translate(-49.64 -64.07)"/><path class="cls-5" d="M303.88,366.9s-2.23,6-6.38,8.52c1.43,0,2.34-.1,2.34-.1a17.67,17.67,0,0,0,5.22-8.32Z" transform="translate(-49.64 -64.07)"/><path class="cls-3" d="M293.55,368.4a10.72,10.72,0,0,1-.18-1.84,11,11,0,0,1,22,0,10.72,10.72,0,0,1-.18,1.84Z" transform="translate(-49.64 -64.07)"/><path class="cls-3" d="M283.13,373a1.76,1.76,0,0,0,.21.81c.94,1.84,5.52,3.23,10.41,3.23,5.58,0,10.62-1.81,10.62-4v-.07c-1-2.19-5.1-4-10.62-4S283.13,370.73,283.13,373Z" transform="translate(-49.64 -64.07)"/><path class="cls-30" d="M283.34,373.76c.94,1.84,5.52,3.23,10.41,3.23,5.58,0,10.62-1.81,10.62-4v-.07c-3-.2-5-.31-7.52-.31A68.33,68.33,0,0,0,283.34,373.76Z" transform="translate(-49.64 -64.07)"/><path class="cls-3" d="M305,380.53a1.21,1.21,0,0,0,.13.57c.61,1.29,3.59,2.35,7,2.46,3.89.13,7.26-1,7.31-2.55V381c-.59-1.53-3.28-2.84-7.13-3S305.08,379,305,380.53Z" transform="translate(-49.64 -64.07)"/><path class="cls-5" d="M298.15,394.48h12.77L306.15,389a9.51,9.51,0,0,1-2.34-6.25v-4.22h-4.09v6a18.5,18.5,0,0,1-.36,3.63Z" transform="translate(-49.64 -64.07)"/><path class="cls-30" d="M305.16,381.1c.61,1.29,3.59,2.35,7,2.46,3.89.13,7.26-1,7.31-2.55V381c-1.9-.2-3.31-.32-5-.38A46.09,46.09,0,0,0,305.16,381.1Z" transform="translate(-49.64 -64.07)"/><path class="cls-31" d="M289.87,377a1.77,1.77,0,0,0,.39,1.07c1.37,1.84,6.22,3.21,12,3.21s10.71-1.39,12-3.26a1.71,1.71,0,0,0,.36-1c0-2.36-5.54-4.28-12.38-4.28S289.87,374.63,289.87,377Z" transform="translate(-49.64 -64.07)"/><rect class="cls-5" x="306.83" y="385.23" width="2.59" height="7.44" transform="translate(566.62 713.83) rotate(-180)"/><path class="cls-30" d="M290.27,378.06c1.37,1.84,6.22,3.21,12,3.21s10.71-1.39,12-3.26c-2.22-.93-6.74-1.57-11.94-1.57S292.43,377.1,290.27,378.06Z" transform="translate(-49.64 -64.07)"/><path class="cls-31" d="M302.63,385.61a1.19,1.19,0,0,0,.26.71c.92,1.23,4.16,2.15,8,2.15s7.17-.93,8-2.18a1.14,1.14,0,0,0,.24-.68c0-1.58-3.71-2.86-8.29-2.86S302.63,384,302.63,385.61Z" transform="translate(-49.64 -64.07)"/><path class="cls-30" d="M302.89,386.32c.92,1.23,4.16,2.15,8,2.15s7.17-.93,8-2.18a24.12,24.12,0,0,0-8-1A23.55,23.55,0,0,0,302.89,386.32Z" transform="translate(-49.64 -64.07)"/><rect class="cls-19" x="242.49" y="331.02" width="25.79" height="13.27"/><rect class="cls-4" x="240.79" y="328.38" width="29.2" height="2.64"/><path class="cls-5" d="M429.88,407.22s-.24.73.09.82,4.71-.11,4.71-.11.83-.07.73-.29a1.07,1.07,0,0,0-.76-.62,21.39,21.39,0,0,0-2.88-.11C431.21,407,429.88,407.22,429.88,407.22Z" transform="translate(-49.64 -64.07)"/><path class="cls-39" d="M432.71,379.6s.7,1,1.49.77c.34-.07.25-.57.25-.57s.14-.21.09-.26a.28.28,0,0,0,0-.22s0-.25,0-.27.31.05.33,0,.13-.16-.15-.57-.15-.26-.15-.26a.28.28,0,0,0,0-.31.92.92,0,0,0-.07-.35.29.29,0,0,0-.28-.16h-1.33l-.65,0Z" transform="translate(-49.64 -64.07)"/><polygon class="cls-39" points="381.65 315 381.65 315.88 383.15 316.37 383.15 315.72 382.67 313.17 382.64 313.12 381.45 313.92 381.65 315"/><path class="cls-40" d="M429.44,393.57a14.46,14.46,0,0,1,.41,6.06c-.29,3.3-.21,5.53,0,6,.13.25-.13.68-.15,1s-.12,1,0,1a12.61,12.61,0,0,0,2-.07c.23-.11,1.05-.31,1.09-.6s.11-2.13.19-2.28.27-.18.29-.48,0-1.44-.22-1.45-.6.08-.6-.15.92-5.77.92-5.77l.38-2.9Z" transform="translate(-49.64 -64.07)"/><path class="cls-16" d="M432.27,377.69a.94.94,0,0,1,.7.48l.2-.15s-.13-.53.07-.63a3.37,3.37,0,0,1,1.32,0l-.2-.4-1,0-1.21.1Z" transform="translate(-49.64 -64.07)"/><path class="cls-16" d="M430.93,378.26s0,.86.31,1c0,0,.46-.14.47-.27s0-.7.16-.92a3.28,3.28,0,0,1,.4-.41l-.15-.63-1.24,1.11Z" transform="translate(-49.64 -64.07)"/><path class="cls-41" d="M432.3,377.24a25.13,25.13,0,0,0,3.17-.15,9.43,9.43,0,0,0-1.14-.56,2.31,2.31,0,0,0-1.23.09A2.45,2.45,0,0,0,432.3,377.24Z" transform="translate(-49.64 -64.07)"/><path class="cls-4" d="M434.18,386.92s.29,0,.32-.28a11.11,11.11,0,0,0,0-1.52,2.57,2.57,0,0,0-.14-.75.2.2,0,0,0-.19-.1Z" transform="translate(-49.64 -64.07)"/><path class="cls-39" d="M430.08,389.33s-.67.18-1.06,2.17-.62,1.89-.53,2,6.27.51,6.27.51.39.11.34-.24-.35-3.35-.93-4.12C434.19,389.22,430.08,389.33,430.08,389.33Z" transform="translate(-49.64 -64.07)"/><path class="cls-39" d="M434.28,388.54l.12-3.79a3.17,3.17,0,0,0-.26-1.23,16.51,16.51,0,0,0-1.06-2.16,9.7,9.7,0,0,0-.94-.69l-.3.42V383l.29,3.89.25,1.86,1.05.36Z" transform="translate(-49.64 -64.07)"/><path class="cls-40" d="M434.23,389.63a19.38,19.38,0,0,0-4.33-.29c-.08-.16-.1-1.21.11-1.19a41.09,41.09,0,0,1,4.34.41C434.39,388.71,434.45,389.67,434.23,389.63Z" transform="translate(-49.64 -64.07)"/><path class="cls-42" d="M433.7,374.27l-3.75,2.9s-.77.94.15.74c.31-.14.5-.26.5-.26a6.72,6.72,0,0,1,3.24-2c.14-.06,0-1.25,0-1.25S433.83,374.17,433.7,374.27Z" transform="translate(-49.64 -64.07)"/><polygon class="cls-5" points="383.54 316.79 383.22 316.4 382.42 313.15 382.63 313.1 383.54 316.79"/><path class="cls-43" d="M430.6,377.65l.33.61a6.54,6.54,0,0,1,3.4-1.72l-.49-.86A5.87,5.87,0,0,0,430.6,377.65Z" transform="translate(-49.64 -64.07)"/><path class="cls-4" d="M434.75,407.79a8,8,0,0,0-.27-1.93,6,6,0,0,1,0-1.23,1.44,1.44,0,0,0-.29-.85,4.61,4.61,0,0,1-.12-1.66.26.26,0,0,1-.15-.31c0-.23.27-.3.29-.46s.21-1.89.26-2.85c0-.38.32-4.29.32-4.29l-1.06-.06-.34,2.62.38.05-.7,5.87s.24.13.22.85,0,.72-.29,1.08c-.09.76-.19,2.28-.19,2.28l-.09.9a.07.07,0,0,0,.07.08h1.87A.1.1,0,0,0,434.75,407.79Z" transform="translate(-49.64 -64.07)"/><polygon class="cls-4" points="384.65 329.15 385.08 326.27 385.3 324.81 386.03 324.89 385.83 326.29 385.24 326.18 384.75 329.36 384.65 329.15"/><path class="cls-42" d="M432.67,393a.8.8,0,0,0,.26.73,1.83,1.83,0,0,1,.53,1.06c0,.17.14.4.31.34s.14-.27.08-.44a1.53,1.53,0,0,1-.06-.44l.43.89s.27.27.4,0c0,0,.45.26.5-.18,0,0,0-.21-.09-.27s.27,0,.26-.25a1.87,1.87,0,0,0-.38-.79,7.26,7.26,0,0,1-.69-.86c-.09-.19-.38-.14-.38-.14Z" transform="translate(-49.64 -64.07)"/><path class="cls-44" d="M432.67,393a.8.8,0,0,0,.26.73,1.83,1.83,0,0,1,.53,1.06c0,.17.14.4.31.34s.14-.27.08-.44a1.53,1.53,0,0,1-.06-.44l.43.89s.27.27.4,0c0,0,.45.26.5-.18,0,0,0-.21-.09-.27s.27,0,.26-.25a1.87,1.87,0,0,0-.38-.79,7.26,7.26,0,0,1-.69-.86c-.09-.19-.38-.14-.38-.14Z" transform="translate(-49.64 -64.07)"/><path class="cls-42" d="M430.84,380.44a4.1,4.1,0,0,0-1.61,3.87,21.4,21.4,0,0,0,3.19,9.08,3.12,3.12,0,0,0,1.71-.73,22.59,22.59,0,0,1-1.34-5.74c-.09-2.44.09-4.75-.73-5a1.44,1.44,0,0,0-.72-.12l0-1.12Z" transform="translate(-49.64 -64.07)"/><g class="cls-45"><rect class="cls-43" x="381.17" y="326.32" width="2.83" height="0.26"/><rect class="cls-43" x="381.3" y="326.76" width="2.83" height="0.26"/></g><polygon class="cls-46" points="384.55 329.94 384.95 331.15 384.98 331.11 385 331.13 384.57 329.87 384.55 329.94"/><polygon class="cls-46" points="385.42 330.66 384.89 329.65 384.87 329.72 385.38 330.68 385.41 330.69 385.4 330.67 385.39 330.66 385.42 330.66"/><polygon class="cls-43" points="381.36 343.5 381.59 343.5 382.03 329.5 381.81 329.5 381.36 343.5"/><path class="cls-42" d="M435.37,389s.29-3.52.8-4.4h.09s.37,1.06-.6,4.41Z" transform="translate(-49.64 -64.07)"/><path class="cls-5" d="M433.07,402.69s-.63.06-.6-.15.92-5.77.92-5.77l.38.05Z" transform="translate(-49.64 -64.07)"/><path class="cls-39" d="M431.49,381.79a1.63,1.63,0,0,0-1.76,1.43,15.46,15.46,0,0,0,.33,4.85l0,.08a13.77,13.77,0,0,1-.83-4.4,4.62,4.62,0,0,1,.95-2.82,2.16,2.16,0,0,0,.58-.82h.68l.44.84Z" transform="translate(-49.64 -64.07)"/><path class="cls-42" d="M430.65,380.4a.88.88,0,0,1,.44-.74c.48-.36,1.71.78,1.71.78s.69.64.6,1.22-.17,1-.28.92-.53-1.26-1.34-1.71A3.1,3.1,0,0,0,430.65,380.4Z" transform="translate(-49.64 -64.07)"/><path class="cls-47" d="M431.47,380.67l0,1.12,1,.25v-.77S431.87,380.69,431.47,380.67Z" transform="translate(-49.64 -64.07)"/><path class="cls-5" d="M480.52,407.22s.24.73-.09.82-4.71-.11-4.71-.11-.83-.07-.73-.29a1.07,1.07,0,0,1,.76-.62,21.39,21.39,0,0,1,2.88-.11C479.18,407,480.52,407.22,480.52,407.22Z" transform="translate(-49.64 -64.07)"/><path class="cls-39" d="M477.68,379.6s-.7,1-1.49.77c-.34-.07-.25-.57-.25-.57s-.14-.21-.09-.26a.28.28,0,0,1,0-.22s0-.25,0-.27-.31.05-.33,0-.13-.16.15-.57.15-.26.15-.26a.28.28,0,0,1,0-.31.92.92,0,0,1,.07-.35.29.29,0,0,1,.28-.16h1.33l.65,0Z" transform="translate(-49.64 -64.07)"/><polygon class="cls-39" points="429.48 315 429.48 315.88 427.97 316.37 427.97 315.72 428.46 313.17 428.48 313.12 429.67 313.92 429.48 315"/><path class="cls-40" d="M481,393.57a14.46,14.46,0,0,0-.41,6.06c.29,3.3.21,5.53,0,6-.13.25.13.68.15,1s.12,1,0,1a12.61,12.61,0,0,1-2-.07c-.23-.11-1.05-.31-1.09-.6s-.11-2.13-.19-2.28-.27-.18-.29-.48,0-1.44.22-1.45.6.08.6-.15-.92-5.77-.92-5.77l-.38-2.9Z" transform="translate(-49.64 -64.07)"/><path class="cls-16" d="M478.12,377.69a.94.94,0,0,0-.7.48l-.2-.15s.13-.53-.07-.63a3.37,3.37,0,0,0-1.32,0l.2-.4,1,0,1.21.1Z" transform="translate(-49.64 -64.07)"/><path class="cls-16" d="M479.46,378.26s0,.86-.31,1c0,0-.46-.14-.47-.27s0-.7-.16-.92a3.28,3.28,0,0,0-.4-.41l.15-.63,1.24,1.11Z" transform="translate(-49.64 -64.07)"/><path class="cls-41" d="M478.09,377.24a25.13,25.13,0,0,1-3.17-.15,9.43,9.43,0,0,1,1.14-.56,2.31,2.31,0,0,1,1.23.09A2.45,2.45,0,0,1,478.09,377.24Z" transform="translate(-49.64 -64.07)"/><path class="cls-4" d="M476.21,386.92s-.29,0-.32-.28a11.11,11.11,0,0,1,0-1.52,2.57,2.57,0,0,1,.14-.75.2.2,0,0,1,.19-.1Z" transform="translate(-49.64 -64.07)"/><path class="cls-39" d="M480.31,389.33s.67.18,1.06,2.17.62,1.89.53,2-6.27.51-6.27.51-.39.11-.34-.24.35-3.35.93-4.12C476.21,389.22,480.31,389.33,480.31,389.33Z" transform="translate(-49.64 -64.07)"/><path class="cls-39" d="M476.12,388.54l-.12-3.79a3.17,3.17,0,0,1,.26-1.23,16.51,16.51,0,0,1,1.06-2.16,9.7,9.7,0,0,1,.94-.69l.3.42V383l-.29,3.89-.25,1.86-1.05.36Z" transform="translate(-49.64 -64.07)"/><path class="cls-40" d="M476.17,389.63a19.38,19.38,0,0,1,4.33-.29c.08-.16.1-1.21-.11-1.19a41.09,41.09,0,0,0-4.34.41C476,388.71,475.95,389.67,476.17,389.63Z" transform="translate(-49.64 -64.07)"/><path class="cls-42" d="M476.7,374.27l3.75,2.9s.77.94-.15.74c-.31-.14-.5-.26-.5-.26a6.72,6.72,0,0,0-3.24-2c-.14-.06,0-1.25,0-1.25S476.57,374.17,476.7,374.27Z" transform="translate(-49.64 -64.07)"/><polygon class="cls-5" points="427.59 316.79 427.9 316.4 428.7 313.15 428.49 313.1 427.59 316.79"/><path class="cls-43" d="M479.8,377.65l-.33.61a6.54,6.54,0,0,0-3.4-1.72l.49-.86A5.87,5.87,0,0,1,479.8,377.65Z" transform="translate(-49.64 -64.07)"/><path class="cls-4" d="M475.64,407.79a8,8,0,0,1,.27-1.93,6,6,0,0,0,0-1.23,1.44,1.44,0,0,1,.29-.85,4.61,4.61,0,0,0,.12-1.66.26.26,0,0,0,.15-.31c0-.23-.27-.3-.29-.46s-.21-1.89-.26-2.85c0-.38-.32-4.29-.32-4.29l1.06-.06.34,2.62-.38.05.7,5.87s-.24.13-.22.85,0,.72.29,1.08c.09.76.19,2.28.19,2.28l.09.9a.07.07,0,0,1-.07.08h-1.87A.1.1,0,0,1,475.64,407.79Z" transform="translate(-49.64 -64.07)"/><polygon class="cls-4" points="426.47 329.15 426.04 326.27 425.82 324.81 425.09 324.89 425.29 326.29 425.88 326.18 426.37 329.36 426.47 329.15"/><path class="cls-42" d="M477.73,393a.8.8,0,0,1-.26.73,1.83,1.83,0,0,0-.53,1.06c0,.17-.14.4-.31.34s-.14-.27-.08-.44a1.53,1.53,0,0,0,.06-.44l-.43.89s-.27.27-.4,0c0,0-.45.26-.5-.18,0,0,0-.21.09-.27s-.27,0-.26-.25a1.87,1.87,0,0,1,.38-.79,7.26,7.26,0,0,0,.69-.86c.09-.19.38-.14.38-.14Z" transform="translate(-49.64 -64.07)"/><path class="cls-48" d="M477.73,393a.8.8,0,0,1-.26.73,1.83,1.83,0,0,0-.53,1.06c0,.17-.14.4-.31.34s-.14-.27-.08-.44a1.53,1.53,0,0,0,.06-.44l-.43.89s-.27.27-.4,0c0,0-.45.26-.5-.18,0,0,0-.21.09-.27s-.27,0-.26-.25a1.87,1.87,0,0,1,.38-.79,7.26,7.26,0,0,0,.69-.86c.09-.19.38-.14.38-.14Z" transform="translate(-49.64 -64.07)"/><path class="cls-42" d="M479.56,380.44a4.1,4.1,0,0,1,1.61,3.87,21.4,21.4,0,0,1-3.19,9.08,3.12,3.12,0,0,1-1.71-.73,22.59,22.59,0,0,0,1.34-5.74c.09-2.44-.09-4.75.73-5a1.44,1.44,0,0,1,.72-.12l0-1.12Z" transform="translate(-49.64 -64.07)"/><g class="cls-49"><rect class="cls-43" x="476.76" y="390.4" width="2.83" height="0.26" transform="translate(906.7 716.98) rotate(-180)"/><rect class="cls-43" x="476.63" y="390.84" width="2.83" height="0.26" transform="translate(906.45 717.86) rotate(-180)"/></g><polygon class="cls-46" points="426.57 329.94 426.17 331.15 426.15 331.11 426.12 331.13 426.55 329.87 426.57 329.94"/><polygon class="cls-46" points="425.7 330.66 426.23 329.65 426.25 329.72 425.74 330.68 425.71 330.69 425.72 330.67 425.73 330.66 425.7 330.66"/><polygon class="cls-43" points="429.76 343.5 429.53 343.5 429.09 329.5 429.31 329.5 429.76 343.5"/><path class="cls-42" d="M475,389s-.29-3.52-.8-4.4h-.09s-.37,1.06.6,4.41Z" transform="translate(-49.64 -64.07)"/><path class="cls-5" d="M477.32,402.69s.63.06.6-.15-.92-5.77-.92-5.77l-.38.05Z" transform="translate(-49.64 -64.07)"/><path class="cls-39" d="M478.9,381.79a1.63,1.63,0,0,1,1.76,1.43,15.46,15.46,0,0,1-.33,4.85l0,.08a13.77,13.77,0,0,0,.83-4.4,4.62,4.62,0,0,0-.95-2.82,2.16,2.16,0,0,1-.58-.82H479l-.44.84Z" transform="translate(-49.64 -64.07)"/><path class="cls-42" d="M479.75,380.4a.88.88,0,0,0-.44-.74c-.48-.36-1.71.78-1.71.78s-.69.64-.6,1.22.17,1,.28.92.53-1.26,1.34-1.71A3.1,3.1,0,0,1,479.75,380.4Z" transform="translate(-49.64 -64.07)"/><path class="cls-47" d="M478.92,380.67l0,1.12-1,.25v-.77S478.53,380.69,478.92,380.67Z" transform="translate(-49.64 -64.07)"/><rect class="cls-1" x="119.58" y="355.2" width="204.36" height="86.63"/><g class="cls-50"><path class="cls-3" d="M163.29,326.73c-61.59,0-111.73,41.84-113.65,94.07h227.3c-1.92-52.23-52.06-94.07-113.65-94.07" transform="translate(-49.64 -64.07)"/><path class="cls-51" d="M252.79,420.8c-1.51-40-41-72.05-89.51-72.05s-88,32-89.51,72.05Z" transform="translate(-49.64 -64.07)"/><path class="cls-52" d="M191.91,394.69c-.21,5.43-5.82,10.52-12.71,10.52s-12.5-5.09-12.71-10.52h3.63c.19,3.26,4.18,7.46,9.08,7.46s8.89-4.2,9.08-7.46Z" transform="translate(-49.64 -64.07)"/><path class="cls-52" d="M214.08,394.69c-.21,5.43-5.82,10.52-12.71,10.52s-12.5-5.09-12.71-10.52h3.63c.19,3.26,4.18,7.46,9.08,7.46s8.89-4.2,9.08-7.46Z" transform="translate(-49.64 -64.07)"/></g><path class="cls-53" d="M99.66,322.23v46h39v-7h7v7h80v-46Zm32,43h-16V341.05c0-6,7.27-11.25,8-11.71.73.46,8,5.67,8,11.71Zm45,0h-30V342.91c0-6.54,15-13.36,15-13.36s15,6.82,15,13.36Zm36,0h-16V341.05c0-6,7.27-11.25,8-11.71.73.46,8,5.67,8,11.71Z" transform="translate(-49.64 -64.07)"/><path class="cls-53" d="M102.66,273.23v32h14V288.55c0-4.4,6.4-8.2,7-8.54.6.34,7,4.14,7,8.54v16.68h21V288.55c0-4.4,10-8.2,11-8.54,1,.34,11,4.14,11,8.54v16.68h20V288.55c0-4.4,5.9-8.2,6.5-8.54.6.34,6.5,4.14,6.5,8.54v16.68h15v-32Z" transform="translate(-49.64 -64.07)"/><rect class="cls-12" x="47.18" y="303.21" width="41.71" height="3.34"/><rect class="cls-12" x="42.93" y="306.55" width="45.96" height="7.56"/><rect class="cls-12" x="145.85" y="367.28" width="80.13" height="3.34" transform="translate(322.18 673.83) rotate(-180)"/><rect class="cls-12" x="145.85" y="370.62" width="86.75" height="7.6" transform="translate(328.82 684.78) rotate(-180)"/><rect class="cls-47" x="86.88" y="154.2" width="52.14" height="13.78"/><rect class="cls-12" x="80.75" y="175.85" width="64.4" height="27.71"/><polygon class="cls-4" points="145.15 175.85 80.75 175.85 86.87 165.65 139.04 165.65 145.15 175.85"/><rect class="cls-47" x="47.69" y="252.51" width="130.53" height="4.79"/><rect class="cls-32" x="49.92" y="242" width="126.07" height="10.51"/><rect class="cls-32" x="85.26" y="198.88" width="55.39" height="9.38"/><rect class="cls-5" x="53.71" y="207.37" width="118.49" height="1.78"/><rect class="cls-53" x="64.77" y="197.46" width="1.35" height="8.35"/><rect class="cls-53" x="67.68" y="197.46" width="1.35" height="8.35"/><rect class="cls-53" x="70.6" y="197.46" width="1.35" height="8.35"/><rect class="cls-53" x="73.51" y="197.46" width="1.35" height="8.35"/><rect class="cls-53" x="76.42" y="197.46" width="1.35" height="8.35"/><rect class="cls-47" x="62.16" y="196.04" width="18.22" height="2.84"/><rect class="cls-53" x="63.1" y="205.19" width="17.28" height="2.18"/><rect class="cls-53" x="55.59" y="194.47" width="7.61" height="12.9"/><path class="cls-4" d="M112.74,257.12c0-1.54-1.66-2.78-3.71-2.78s-3.71,1.24-3.71,2.78" transform="translate(-49.64 -64.07)"/><polygon class="cls-47" points="61.8 194.47 56.98 194.47 55.69 193.04 63.1 193.04 61.8 194.47"/><rect class="cls-53" x="79.64" y="194.47" width="7.61" height="12.9"/><path class="cls-4" d="M136.78,257.12c0-1.54-1.66-2.78-3.71-2.78s-3.71,1.24-3.71,2.78" transform="translate(-49.64 -64.07)"/><polygon class="cls-47" points="85.85 194.47 81.03 194.47 79.73 193.04 87.15 193.04 85.85 194.47"/><rect class="cls-53" x="147.84" y="197.46" width="1.35" height="8.35"/><rect class="cls-53" x="150.75" y="197.46" width="1.35" height="8.35"/><rect class="cls-53" x="153.67" y="197.46" width="1.35" height="8.35"/><rect class="cls-53" x="156.58" y="197.46" width="1.35" height="8.35"/><rect class="cls-53" x="159.5" y="197.46" width="1.35" height="8.35"/><rect class="cls-47" x="145.23" y="196.04" width="18.22" height="2.84"/><rect class="cls-53" x="146.17" y="205.19" width="17.28" height="2.18"/><rect class="cls-53" x="138.66" y="194.47" width="7.61" height="12.9"/><path class="cls-4" d="M195.81,257.12c0-1.54-1.66-2.78-3.71-2.78s-3.71,1.24-3.71,2.78" transform="translate(-49.64 -64.07)"/><polygon class="cls-47" points="144.87 194.47 140.06 194.47 138.76 193.04 146.17 193.04 144.87 194.47"/><rect class="cls-53" x="162.71" y="194.47" width="7.61" height="12.9"/><path class="cls-4" d="M219.86,257.12c0-1.54-1.66-2.78-3.71-2.78s-3.71,1.24-3.71,2.78" transform="translate(-49.64 -64.07)"/><polygon class="cls-47" points="168.92 194.47 164.1 194.47 162.81 193.04 170.22 193.04 168.92 194.47"/><circle class="cls-19" cx="112.95" cy="192" r="6.63"/><rect class="cls-32" x="63.77" y="259.23" width="21.44" height="3.1"/><rect class="cls-32" x="84.2" y="262.32" width="1.01" height="40.63"/><rect class="cls-32" x="94.82" y="259.23" width="34.52" height="3.1"/><rect class="cls-32" x="144.62" y="259.23" width="21.15" height="3.1"/><rect class="cls-32" x="127.93" y="262.32" width="1.41" height="40.63"/><path class="cls-54" d="M130.35,207.73s-1.07,10.59,6.85,10.59,6.53-5.67,8.24-7.92,3.72-2.36,5.35-.75c0,0,2.89,2,3.74,3.85s4-1.39,4-1.39-4.6-5.78-10.06-7.38-7.06,6-8.67,6.8-6.1,1.44-4-4,1.82-6.42,0-6.31c-1.08,0-1.16.88-2.77.59s-4.41-.37-5.15.29S123.7,207.42,130.35,207.73Z" transform="translate(-49.64 -64.07)"/><path class="cls-54" d="M194.92,207.73s1.07,10.59-6.85,10.59-6.53-5.67-8.24-7.92-3.72-2.36-5.35-.75c0,0-2.89,2-3.74,3.85s-4-1.39-4-1.39,4.6-5.78,10.06-7.38,7.06,6,8.67,6.8,6.1,1.44,4-4-1.82-6.42,0-6.31c1.08,0,1.16.88,2.77.59s4.41-.37,5.15.29S201.58,207.42,194.92,207.73Z" transform="translate(-49.64 -64.07)"/><path class="cls-12" d="M166.89,200.41c0-4.19-4.24-6.6-4.24-7.23V193s.06,0,0,.07,0-.07,0-.07v.14a8.82,8.82,0,0,0-4,7.23c0,7-23.57,17.82-23.57,17.82h55.61S166.89,207.44,166.89,200.41Z" transform="translate(-49.64 -64.07)"/><rect class="cls-12" x="168.39" y="239.61" width="7.61" height="12.9"/><path class="cls-4" d="M225.54,302.26c0-1.54-1.66-2.78-3.71-2.78s-3.71,1.24-3.71,2.78" transform="translate(-49.64 -64.07)"/><polygon class="cls-47" points="174.6 239.61 169.79 239.61 168.49 238.19 175.9 238.19 174.6 239.61"/><rect class="cls-12" x="131.96" y="239.61" width="7.61" height="12.9"/><path class="cls-4" d="M189.1,302.26c0-1.54-1.66-2.78-3.71-2.78s-3.71,1.24-3.71,2.78" transform="translate(-49.64 -64.07)"/><polygon class="cls-47" points="138.17 239.61 133.35 239.61 132.05 238.19 139.47 238.19 138.17 239.61"/><rect class="cls-12" x="86.35" y="239.61" width="7.61" height="12.9"/><path class="cls-4" d="M143.5,302.26c0-1.54-1.66-2.78-3.71-2.78s-3.71,1.24-3.71,2.78" transform="translate(-49.64 -64.07)"/><polygon class="cls-47" points="92.57 239.61 87.75 239.61 86.45 238.19 93.86 238.19 92.57 239.61"/><rect class="cls-12" x="49.92" y="239.61" width="7.61" height="12.9"/><path class="cls-4" d="M107.06,302.26c0-1.54-1.66-2.78-3.71-2.78s-3.71,1.24-3.71,2.78" transform="translate(-49.64 -64.07)"/><polygon class="cls-47" points="56.13 239.61 51.31 239.61 50.02 238.19 57.43 238.19 56.13 239.61"/><path class="cls-55" d="M1230.36,420.37V422c0,.82-.18,5-4.83,8.17a18.2,18.2,0,0,1-9.17,2.89c-.84.08-1.67.23-2.66.24-.59,0-1.08.09-1.62.09H802.34c-5.56.27-3.84.11-9,.43-2,.06-6.27.21-6.59.21l-6.27.36c-10.14,0-18.42,5.43-18.42,12s8.28,12,18.42,12h317.7a19.79,19.79,0,0,1,2.89,0,19.19,19.19,0,0,1,6.83,2.22c1,.56,3,1.21,3.77,1.93,2.52,2.22,5.06,5.07,5.06,8.08v1.58c0,6.57-9.17,10.15-18.54,10.15H292.11c-2.69,0-5.21.14-7.42-.47-.18,0-.35,0-.53,0a10.09,10.09,0,0,1-1.67-.62,13.93,13.93,0,0,1-3.55-2.16,7.38,7.38,0,0,1-1.5-2.55c-.76-1.38-.58-2.72-.58-4.32v-1.58c0-6.57,5.89-12.27,15.24-12.27H395.81c9.37,0,14.84-5.59,14.84-12.16v0c0-6.57-5.47-12.79-14.84-12.79H63.37c-2.11,0-3.66.1-5.39-.59-5.26-2.05-8.34-6.22-8.34-10.81v-1.6c0-6.57,6.35-12,15.68-12H1213.07a23,23,0,0,1,11.76,3.15l1.71,1.37A9.53,9.53,0,0,1,1230.36,420.37Z" transform="translate(-49.64 -64.07)"/><rect class="cls-55" x="840.34" y="445.93" width="27.52" height="25.92" rx="12.96" ry="12.96"/><line class="cls-56" x1="19.12" y1="357.29" x2="22.12" y2="357.29"/><line class="cls-57" x1="30.08" y1="357.29" x2="1154.39" y2="357.29"/><line class="cls-56" x1="1158.37" y1="357.29" x2="1161.37" y2="357.29"/><path class="cls-55" d="M854.48,522v2c0,6.57-6.14,11.39-13.11,11.39H730.5a8.68,8.68,0,0,1-3.89-.62c-4.61-1.79-7-5.8-7-10.77v-2c0-6.57,3.89-12.6,10.87-12.6H841.37a13.05,13.05,0,0,1,3.17.72,12.84,12.84,0,0,1,9.3,8.72A12.12,12.12,0,0,1,854.48,522Z" transform="translate(-49.64 -64.07)"/><path class="cls-20" d="M561.43,395.88l-.61-.17a2.18,2.18,0,0,1-1.53-2.67l3.4-12.45a2.18,2.18,0,0,1,2.67-1.53l.61.17a2.18,2.18,0,0,1,1.53,2.67l-3.4,12.45a2.18,2.18,0,0,1-2.67,1.53" transform="translate(-49.64 -64.07)"/><path class="cls-58" d="M566.88,403.76a8.76,8.76,0,1,1-8.76-8.76,8.76,8.76,0,0,1,8.76,8.76" transform="translate(-49.64 -64.07)"/><path class="cls-4" d="M562.91,396.42,553.5,411.2a8.76,8.76,0,1,1,9.41-14.78" transform="translate(-49.64 -64.07)"/><path class="cls-5" d="M563.23,403.77a5.12,5.12,0,1,1-5.12-5.12,5.12,5.12,0,0,1,5.12,5.12" transform="translate(-49.64 -64.07)"/><rect class="cls-5" x="455.6" y="333.6" width="20.44" height="6.09"/><path class="cls-20" d="M524.94,398.17H508.73a2,2,0,0,1-2-2v-.25a2,2,0,0,1,2-2h16.21a2,2,0,0,1,2,2v.25a2,2,0,0,1-2,2" transform="translate(-49.64 -64.07)"/><path class="cls-20" d="M522.51,397l-1.07-.29a1.94,1.94,0,0,1-1.36-2.38l2.55-9.34a1.94,1.94,0,0,1,2.38-1.36l1.07.29a1.94,1.94,0,0,1,1.36,2.38l-2.55,9.34a1.94,1.94,0,0,1-2.38,1.36" transform="translate(-49.64 -64.07)"/><rect class="cls-4" x="476.37" y="332.33" width="21.1" height="2.28"/><rect class="cls-59" x="514.8" y="387.5" width="23.07" height="1.02" transform="translate(59.59 827.52) rotate(-86.76)"/><rect class="cls-59" x="519.78" y="387.5" width="23.07" height="1.02" transform="translate(64.28 832.49) rotate(-86.76)"/><path class="cls-20" d="M565.73,396.92H547.14a2.12,2.12,0,1,1,0-4.25h18.59a2.12,2.12,0,0,1,0,4.25" transform="translate(-49.64 -64.07)"/><rect class="cls-20" x="476.37" y="334.6" width="21.1" height="4.33"/><polygon class="cls-59" points="520.75 331.51 520.75 339.01 484.32 339.05 488.88 334.68 491.03 332.47 492.01 331.51 520.75 331.51"/><polygon class="cls-5" points="520.75 331.51 520.75 334.45 489.09 334.45 492.01 331.51 520.75 331.51"/><polygon class="cls-19" points="520.75 331.51 520.75 332.98 490.75 332.78 492.01 331.51 520.75 331.51"/><rect class="cls-5" x="509.86" y="338.93" width="12.72" height="2.16"/><rect class="cls-5" x="476.37" y="338.93" width="21.1" height="2.16"/><path class="cls-58" d="M557.76,405.24,548.35,420a8.76,8.76,0,1,1,9.41-14.78" transform="translate(-49.64 -64.07)"/><path class="cls-55" d="M561.74,412.58a8.76,8.76,0,1,1-8.76-8.76,8.76,8.76,0,0,1,8.76,8.76" transform="translate(-49.64 -64.07)"/><path class="cls-5" d="M565.9,408.08H562c-1.39-2.94-4.87-4.76-9-4.76s-7.56,1.82-9,4.76h-3.92c1.43-4.41,6.65-7.82,12.87-7.82s11.44,3.41,12.87,7.82" transform="translate(-49.64 -64.07)"/><path class="cls-17" d="M557.76,405.24,548.35,420a8.76,8.76,0,1,1,9.41-14.78" transform="translate(-49.64 -64.07)"/><path class="cls-5" d="M558.09,412.59a5.12,5.12,0,1,1-5.12-5.12,5.12,5.12,0,0,1,5.12,5.12" transform="translate(-49.64 -64.07)"/><path class="cls-58" d="M504.07,402.9,495,417.14a8.44,8.44,0,1,1,9.06-14.24" transform="translate(-49.64 -64.07)"/><path class="cls-55" d="M507.9,410a8.44,8.44,0,1,1-8.44-8.44A8.44,8.44,0,0,1,507.9,410" transform="translate(-49.64 -64.07)"/><path class="cls-17" d="M504.07,402.9,495,417.14a8.44,8.44,0,1,1,9.06-14.24" transform="translate(-49.64 -64.07)"/><path class="cls-5" d="M504.39,410a4.93,4.93,0,1,1-4.93-4.93,4.93,4.93,0,0,1,4.93,4.93" transform="translate(-49.64 -64.07)"/><path class="cls-19" d="M501.71,394.74a8,8,0,0,0-7.63,8c2.91-1.84,5.63-2.67,7.63,0Z" transform="translate(-49.64 -64.07)"/><rect class="cls-5" x="476.37" y="338.99" width="2.43" height="6.73"/><rect class="cls-5" x="473.94" y="334.6" width="2.43" height="6.73"/><polygon class="cls-59" points="519.28 326.37 519.28 327.1 490.2 327.1 490.98 326.37 519.28 326.37"/><polygon class="cls-59" points="519.28 329.31 519.28 330.04 490.2 330.04 490.98 329.31 519.28 329.31"/><polygon class="cls-5" points="457.27 328.27 451.61 325.98 459.58 312.14 462.58 313.2 457.27 328.27"/><polygon class="cls-5" points="454.93 328.27 449.26 325.98 457.24 312.14 460.24 313.2 454.93 328.27"/><polygon class="cls-59" points="456 328.27 450.34 325.98 458.31 312.14 461.32 313.2 456 328.27"/><rect class="cls-59" x="492.67" y="326.34" width="1.01" height="6.13"/><path class="cls-19" d="M570.5,376.49l-61.21,1.33-1.61,0a5,5,0,0,1-5-4.64c0-.07,0-.14,0-.21v-.52h.25l1.52,0,51.18-1.11c5.85-.13,11.27,1.55,14.17,4.39Z" transform="translate(-49.64 -64.07)"/><rect class="cls-4" x="455.6" y="338.9" width="21.1" height="5.96"/><rect class="cls-20" x="455.6" y="343.33" width="21.1" height="4.33"/><path class="cls-5" d="M507.92,389.7v23.21c-2.2,0-3.91-1.16-5.31-1.89h0a8.21,8.21,0,0,1-2.77-6.09V389.7Z" transform="translate(-49.64 -64.07)"/><path class="cls-19" d="M502.78,389.7V411h-.19c-2.32-1.47-4.22-3.7-4.22-6.09V389.7Z" transform="translate(-49.64 -64.07)"/><rect class="cls-5" x="456.19" y="345.67" width="22.6" height="2.16"/><rect class="cls-1" x="441.39" y="307.27" width="81.19" height="50"/><rect class="cls-1" x="441.39" y="307.27" width="81.19" height="50"/></g></svg>