<svg id="Layer_1" data-name="Layer 1" xmlns="http://www.w3.org/2000/svg" xmlns:xlink="http://www.w3.org/1999/xlink" viewBox="0 0 1122.44 421.6"><defs><style>.cls-1{fill:#c3ebce;}.cls-2{fill:#5697fb;}.cls-3{fill:#fafdfb;}.cls-4{fill:#f5dab4;}.cls-5{fill:#8a0000;}.cls-6{fill:#c4e1fd;}.cls-7{fill:#921212;}.cls-8{fill:#f5d8b1;}.cls-9{fill:#ebb162;}.cls-10{fill:#f8e4ca;}.cls-11{fill:#4d4d4d;}.cls-12,.cls-13,.cls-14{fill:none;}.cls-12,.cls-13{stroke:#fff;stroke-miterlimit:10;}.cls-13{stroke-dasharray:8.04 6.03;}.cls-14{stroke:#8a0000;stroke-linecap:square;stroke-linejoin:bevel;}.cls-15,.cls-43{fill:#da0100;}.cls-16{fill:#f1f1f1;}.cls-17{fill:#9f2e2e;}.cls-18{fill:#9a2424;}.cls-19{fill:#b35959;}.cls-20{fill:#ab4747;}.cls-21{fill:#b45c5c;}.cls-22{fill:#9d2929;}.cls-23{fill:#f5d9b2;}.cls-24{fill:#f8e5cb;}.cls-25{fill:#b25757;}.cls-26{fill:#ecb66d;}.cls-27{fill:#cde6fd;}.cls-28{fill:#e02726;}.cls-29{fill:#d5a3a3;}.cls-30{fill:#c17878;}.cls-31{fill:#f4f4f4;}.cls-32{fill:#dd1514;}.cls-33{fill:#cce5fd;}.cls-34{fill:#992121;}.cls-35{fill:#d8ebfe;}.cls-36{fill:#e54d4d;}.cls-37{fill:#f0c58b;}.cls-38{fill:#f3f3f3;}.cls-39{fill:#f1f8ff;}.cls-40{fill:#e9f4fe;}.cls-41{fill:#1a1a1a;}.cls-42{fill:#c5e1fd;}.cls-43{opacity:0.5;}.cls-44{fill:url(#linear-gradient);}.cls-45{fill:#99eca7;}.cls-46{fill:#84e895;}.cls-47{fill:#a8efb4;}</style><linearGradient id="linear-gradient" x1="469.29" y1="272.01" x2="469.29" y2="261.21" gradientTransform="matrix(1, 0, 0, -1, -5.39, 533.21)" gradientUnits="userSpaceOnUse"><stop offset="0" stop-color="#c4e1fd" stop-opacity="0"/><stop offset="1" stop-color="#9f2e2e"/></linearGradient></defs><title>istanbul_colour</title><path class="cls-1" d="M218,190.16c-71.24,0-129.25,49.57-131.46,111.46H349.51C347.29,239.73,289.29,190.16,218,190.16" transform="translate(-86.01 -8.8)"/><path class="cls-2" d="M328.32,301.39c-1.85-51.55-50.16-92.84-109.5-92.84s-107.66,41.29-109.5,92.84Z" transform="translate(-86.01 -8.8)"/><path class="cls-3" d="M179.85,273c-.25,6.43-6.74,12.47-14.71,12.47s-14.46-6-14.7-12.47h4.2c.22,3.86,4.84,8.84,10.5,8.84s10.28-5,10.5-8.84Z" transform="translate(-86.01 -8.8)"/><path class="cls-3" d="M205.49,273c-.25,6.43-6.74,12.47-14.71,12.47s-14.46-6-14.7-12.47h4.2c.22,3.86,4.84,8.84,10.5,8.84s10.28-5,10.5-8.84Z" transform="translate(-86.01 -8.8)"/><polygon class="cls-4" points="197 183.44 197.03 183.44 197.04 183.44 197.04 183.44 197.04 183.44 158.67 183.44 158.67 186.88 197 186.88 201.34 186.88 197 183.44"/><polygon class="cls-4" points="196.38 183.44 196.38 183.44 196.38 183.44 196.38 183.44"/><rect class="cls-5" x="97.42" y="119.11" width="43.74" height="106.97"/><rect class="cls-6" x="95.21" y="140.93" width="9.03" height="64.14"/><rect class="cls-6" x="97.42" y="119.11" width="9.13" height="18.66"/><rect class="cls-7" x="164.99" y="186.88" width="35.47" height="39.2"/><polygon class="cls-4" points="61.34 195.22 61.32 195.21 61.31 195.22 61.31 195.23 61.31 195.22 89.92 195.21 89.92 202.2 61.34 202.2 58.11 202.2 61.34 195.22"/><polygon class="cls-4" points="61.8 195.21 61.8 195.21 61.8 195.22 61.8 195.21"/><rect class="cls-7" x="102.92" y="184.06" width="62.07" height="42.02"/><polygon class="cls-4" points="133.95 168.1 165.39 184.06 102.52 184.06 133.95 168.1"/><rect class="cls-5" x="83.57" y="202.2" width="32.25" height="23.88"/><polygon class="cls-8" points="97.27 191.09 120.69 202.2 73.84 202.2 97.27 191.09"/><rect class="cls-9" x="73.84" y="202.2" width="10.65" height="23.88"/><rect class="cls-7" x="64.67" y="202.2" width="9.71" height="23.88"/><rect class="cls-8" x="114.57" y="188.94" width="4.51" height="6.27"/><rect class="cls-8" x="126.75" y="188.94" width="4.51" height="6.27"/><rect class="cls-8" x="138.92" y="188.94" width="4.51" height="6.27"/><rect class="cls-8" x="151.1" y="188.94" width="4.51" height="6.27"/><rect class="cls-8" x="96.16" y="115.31" width="45.97" height="1.02"/><rect class="cls-8" x="97.43" y="119.11" width="43.75" height="1.02"/><rect class="cls-8" x="90.07" y="205.07" width="18.88" height="10.76"/><polygon class="cls-7" points="90.11 140.89 100.06 151.26 103.88 143.53 123.14 151.06 142.06 143.74 142.06 149.26 148.48 140.89 90.11 140.89"/><path class="cls-6" d="M216.62,108.38c-3-4.39-3-11.16-3-11.16H196.75s0,6.77-3,11.16c-9.06,7.65-8.52,15.72-8.52,15.72h39.87S225.69,116,216.62,108.38Z" transform="translate(-86.01 -8.8)"/><polygon class="cls-5" points="141.17 119.11 97.42 119.11 96.16 116.33 142.13 116.33 141.17 119.11"/><polygon class="cls-6" points="104.24 119.11 97.42 119.11 96.16 116.33 104.24 116.32 104.24 119.11"/><rect class="cls-8" x="109.22" y="83.05" width="19.86" height="5.38"/><rect class="cls-8" x="115.51" y="77.72" width="7.58" height="9.79"/><polygon class="cls-8" points="118.02 74.93 115.51 77.72 123.09 77.72 120.49 74.93 118.02 74.93"/><polygon class="cls-8" points="120.49 74.93 118.02 74.93 118.56 25.98 119.94 25.98 120.49 74.93"/><rect class="cls-8" x="116.18" y="25" width="6.06" height="0.97"/><path class="cls-8" d="M205.22,27c-1,0-2.61,1.63-2.61,3.85,0,1.4.64,3.17,1.37,3.17h2.49c.72,0,1.37-1.78,1.37-3.17C207.83,28.61,206.21,27,205.22,27Z" transform="translate(-86.01 -8.8)"/><path class="cls-8" d="M206.15,27.64h-1.77a.35.35,0,0,1-.35-.35l.26-6.46a2.11,2.11,0,0,1,.93-.91h0a2.17,2.17,0,0,1,1,.89l.32,6.47A.35.35,0,0,1,206.15,27.64Z" transform="translate(-86.01 -8.8)"/><rect class="cls-8" x="118.93" width="0.65" height="11.6" rx="0.23" ry="0.23"/><path class="cls-8" d="M208.25,34.42V45.59s8.24,2.51,10.22,1.08-.66-4-.66-4L216.62,42a5.63,5.63,0,0,0-2.9-4.07A54.36,54.36,0,0,1,208.25,34.42Z" transform="translate(-86.01 -8.8)"/><rect class="cls-8" x="45.48" y="226.08" width="171.07" height="12.53"/><rect class="cls-7" x="111.81" y="124.27" width="8.02" height="13.3"/><rect class="cls-8" x="99.98" y="124.27" width="4.01" height="13.3"/><rect class="cls-7" x="128.49" y="124.27" width="8.02" height="13.3"/><rect class="cls-4" x="90.07" y="134.61" width="58.39" height="6.32"/><path class="cls-5" d="M155.4,234.84h-6.82c-1.75-1.67-2.91-3.23-2.91-5.17,0-3,2.83-5.76,6.32-5.76a6.28,6.28,0,0,1,6.32,5.9C158.32,231.75,157.15,233.17,155.4,234.84Z" transform="translate(-86.01 -8.8)"/><path class="cls-10" d="M152.31,223.92v10.93h-3.84c-1.9-1.51-3.05-2.89-3.05-5C145.42,226.59,147.76,223.94,152.31,223.92Z" transform="translate(-86.01 -8.8)"/><path class="cls-5" d="M160.21,234.84h-4.53c-1.16-1.11-1.93-2.14-1.93-3.43a4.09,4.09,0,0,1,4.2-3.82,4.17,4.17,0,0,1,4.2,3.92C162.14,232.79,161.37,233.73,160.21,234.84Z" transform="translate(-86.01 -8.8)"/><path class="cls-10" d="M158.36,227.59v7.25h-2.76c-1.26,0-1.92-1.92-1.92-3.31C153.69,229.37,155.34,227.61,158.36,227.59Z" transform="translate(-86.01 -8.8)"/><path class="cls-5" d="M205.12,234.87h-4.18c-1.16-1.11-2.28-2.14-2.28-3.43a4.09,4.09,0,0,1,4.2-3.82,4.17,4.17,0,0,1,4.2,3.92C207.05,232.82,206.28,233.76,205.12,234.87Z" transform="translate(-86.01 -8.8)"/><path class="cls-10" d="M203.28,227.62v7.25h-2c-1.26,0-2.66-1.92-2.66-3.31C198.6,229.4,200.25,227.64,203.28,227.62Z" transform="translate(-86.01 -8.8)"/><rect class="cls-11" x="799.68" y="395.68" width="25.92" height="25.92" rx="12.96" ry="12.96"/><rect class="cls-11" x="648.34" y="395.06" width="120.15" height="25.83" rx="12.92" ry="12.92"/><path class="cls-11" d="M1195.53,301.09H98.92a12.92,12.92,0,1,0,0,25.83H367.21a12.92,12.92,0,0,1,0,25.83H302.84a13,13,0,0,0-12.92,12.92h0a13,13,0,0,0,12.92,12.92h788.42a13,13,0,0,0,12.92-12.92h0a13,13,0,0,0-12.92-12.92H771.64a13,13,0,0,1-12.92-12.92h0a13,13,0,0,1,12.92-12.92h423.9a12.92,12.92,0,0,0,0-25.83Z" transform="translate(-86.01 -8.8)"/><line class="cls-12" x1="12.85" y1="305.47" x2="16.85" y2="305.47"/><line class="cls-13" x1="22.88" y1="305.47" x2="1103.13" y2="305.47"/><line class="cls-12" x1="1106.15" y1="305.47" x2="1110.15" y2="305.47"/><rect class="cls-5" x="181.24" y="177.84" width="6.87" height="114.46"/><rect class="cls-5" x="925.23" y="177.83" width="6.87" height="114.46"/><rect class="cls-5" x="1070.6" y="255.59" width="13.74" height="36.7"/><rect class="cls-5" x="184.73" y="253.3" width="745.28" height="4.58"/><rect class="cls-5" x="926.7" y="253.3" width="183.14" height="4.58"/><polygon class="cls-5" points="1082.3 255.59 1077.28 255.59 1072.82 253.03 930.91 180 931.96 177.9 1077.83 253.06 1082.3 255.59"/><rect class="cls-5" x="115.66" y="264.39" width="13.74" height="36.7" transform="translate(159.05 556.68) rotate(-180)"/><rect class="cls-5" x="4.15" y="253.3" width="183.14" height="4.58"/><polygon class="cls-5" points="30.94 255.59 35.96 255.59 40.42 253.03 182.33 180 181.28 177.9 35.41 253.06 30.94 255.59"/><path class="cls-5" d="M273.29,186.56v2.29s245.64,72.15,394,70.54,253-29.48,257.61-30.91,49.67-13.68,86.34-39.5v-2.43s-20.13,18.06-86,38.92-216.46,33.09-257.86,30.45C667.35,255.92,556.65,264.61,273.29,186.56Z" transform="translate(-86.01 -8.8)"/><polyline class="cls-14" points="187.28 253.49 198.96 182.18 203.92 255.59 212.12 185.87 219.96 255.59 225.26 189.38 234.49 255.59 239.73 192.88 247.76 255.59 253.38 196.66 259.79 255.59 266.23 199.94 274.32 255.59 279.37 203.42 285.34 255.59 292.88 206.29 299.62 255.59 306.55 209.54 312.65 255.59 319.86 212.66 325.17 255.59 333.61 215.45 337.7 255.59 346.29 218.89 352.73 255.59 360.1 221.53 365.84 255.59 374.16 225.29 379.79 255.59 386.64 227.54 393.31 255.59 399.92 229.85 406.59 255.59 413.01 232.04 419.12 255.59 426.47 234.19 433.4 255.59 439.51 236.17 445.67 255.59 453.02 238.1 458.2 255.59 465.32 239.76 470.72 255.59 478.8 241.45 482.25 255.59 491.29 243.12 496.01 255.59 504.13 244.96 510.69 255.59 517.5 246.01 524.05 255.59 529.82 247.05 536.63 255.59 542.66 248.37 548.98 254.39 554.98 248.63 562.32 255.59 568.35 248.89 581.71 255.59 594.76 248.89 601.89 255.59 606.87 248.63 613.95 255.59 619.15 248.85 625.23 255.59 631.44 248.05 638.32 255.59 643.74 247.39 651.28 255.59 656.3 246.6 662.52 255.59 668.34 245.94 674.55 255.59 680.37 244.48 686.45 255.59 692.93 243.29 697.69 255.59 704.43 241.71 709.72 255.59 716.6 241.04 722.94 255.59 728.23 239.59 735.37 255.59 740.26 237.87 745.55 255.59 752.3 236.02 756.93 255.59 763.88 235.08 768.43 255.59 775.44 232.32 780.86 255.59 787.21 230.2 791.3 255.59 798.31 228.22 803.34 255.59 809.98 226.53 815.24 255.59 821.48 223.42 825.68 255.59 831.83 220.56 838.24 255.59 843.98 217.34 848.69 255.59 854.39 213.67 860.99 255.59 866.13 209.83 871.96 255.59 877 205.34 882.67 255.59 887.74 200.57 894.57 255.59 897.88 195.69 903.03 255.59 908.19 190.01 915.46 255.59 918.38 184.8 924.69 255.59"/><rect class="cls-15" x="250.51" y="164.33" width="61.71" height="127.97"/><rect class="cls-15" x="250.51" y="138.27" width="61.71" height="20.57"/><rect class="cls-15" x="250.51" y="120.44" width="61.71" height="13.71"/><polygon class="cls-5" points="312.22 138.27 250.51 138.27 247.08 134.16 315.65 134.16 312.22 138.27"/><polygon class="cls-5" points="312.22 164.32 250.51 164.32 247.08 158.84 315.65 158.84 312.22 164.32"/><rect class="cls-5" x="247.08" y="119.1" width="68.57" height="1.37"/><polygon class="cls-6" points="312.22 138.27 250.51 138.27 249.94 137.58 312.79 137.58 312.22 138.27"/><polygon class="cls-6" points="312.22 164.32 250.51 164.32 250.08 163.64 312.65 163.64 312.22 164.32"/><rect class="cls-5" x="263.4" y="96.61" width="5.04" height="6.91"/><rect class="cls-5" x="295.22" y="96.61" width="4.11" height="6.91"/><rect class="cls-16" x="263.4" y="95.94" width="3.14" height="1.36"/><rect class="cls-16" x="296.2" y="95.94" width="3.14" height="1.36"/><polygon class="cls-15" points="280.89 57.38 305.36 119.1 257.37 119.1 280.89 57.38"/><polygon class="cls-5" points="284.27 103.22 280.68 103.22 280.68 97.18 282.48 96 284.27 97.18 284.27 103.22"/><polygon class="cls-16" points="282.48 96.36 283.67 97.39 284.88 97.39 282.48 95.29 280.08 97.39 281.3 97.39 282.48 96.36"/><rect class="cls-17" x="281.28" y="97.8" width="2.4" height="4.79"/><polygon class="cls-18" points="280.68 100 280.25 100 280.08 100 280.08 97.39 280.68 97.39 280.68 100"/><polygon class="cls-18" points="280.68 103.22 280.32 100 280.68 100 280.68 103.22"/><circle class="cls-18" cx="280.97" cy="55.72" r="1.98"/><polygon class="cls-18" points="282.51 51.26 279.43 51.26 280.11 45.3 281.85 45.3 282.51 51.26"/><polygon class="cls-18" points="282.51 51.26 279.43 51.26 280.39 52.61 281.57 52.61 282.51 51.26"/><rect class="cls-18" x="280.76" y="52.61" width="0.41" height="1.39"/><rect class="cls-18" x="280.63" y="35.66" width="0.69" height="9.81"/><circle class="cls-18" cx="280.97" cy="43.98" r="0.77"/><circle class="cls-18" cx="280.97" cy="42.37" r="0.55"/><path class="cls-17" d="M378.14,183v-2.8c0-1,.44-1.89,1.14-1.89s1.14.85,1.14,1.89V183Z" transform="translate(-86.01 -8.8)"/><path class="cls-17" d="M390,183v-2.8c0-1,.44-1.89,1.14-1.89s1.14.85,1.14,1.89V183Z" transform="translate(-86.01 -8.8)"/><path class="cls-17" d="M377,198.2v-4.8c0-1.79.86-3.24,2.23-3.24s2.23,1.46,2.23,3.24v4.8Z" transform="translate(-86.01 -8.8)"/><path class="cls-17" d="M353.48,198.2v-4.8c0-1.79.86-3.24,2.23-3.24s2.23,1.46,2.23,3.24v4.8Z" transform="translate(-86.01 -8.8)"/><path class="cls-17" d="M366.26,183v-2.8c0-1,.44-1.89,1.14-1.89s1.14.85,1.14,1.89V183Z" transform="translate(-86.01 -8.8)"/><path class="cls-17" d="M354.37,183v-2.8c0-1,.44-1.89,1.14-1.89s1.14.85,1.14,1.89V183Z" transform="translate(-86.01 -8.8)"/><path class="cls-17" d="M342.49,183v-2.8c0-1,.44-1.89,1.14-1.89s1.14.85,1.14,1.89V183Z" transform="translate(-86.01 -8.8)"/><path class="cls-5" d="M355.72,165.2V154.56a4.81,4.81,0,1,1,9.6,0V165.2Z" transform="translate(-86.01 -8.8)"/><path class="cls-17" d="M273.88,145.82h1.26a1.69,1.69,0,0,1,1.69,1.69v8.29a0,0,0,0,1,0,0h-4.64a0,0,0,0,1,0,0v-8.29A1.69,1.69,0,0,1,273.88,145.82Z"/><path class="cls-5" d="M342,165.2V154.56a4.81,4.81,0,1,1,9.6,0V165.2Z" transform="translate(-86.01 -8.8)"/><path class="cls-17" d="M260.17,146h1.26a1.69,1.69,0,0,1,1.69,1.69V156a0,0,0,0,1,0,0h-4.64a0,0,0,0,1,0,0v-8.29a1.69,1.69,0,0,1,1.69-1.69Z"/><path class="cls-5" d="M336.52,150.95V165.2h1.39V154.56A5.22,5.22,0,0,0,336.52,150.95Z" transform="translate(-86.01 -8.8)"/><path class="cls-5" d="M369.43,165.2V154.56a4.81,4.81,0,1,1,9.6,0V165.2Z" transform="translate(-86.01 -8.8)"/><path class="cls-17" d="M287.59,145.82h1.26a1.69,1.69,0,0,1,1.69,1.69v8.29a0,0,0,0,1,0,0H285.9a0,0,0,0,1,0,0v-8.29A1.69,1.69,0,0,1,287.59,145.82Z"/><path class="cls-5" d="M383.14,165.2V154.56a4.81,4.81,0,1,1,9.6,0V165.2Z" transform="translate(-86.01 -8.8)"/><path class="cls-17" d="M301.31,145.82h1.26a1.69,1.69,0,0,1,1.69,1.69v8.29a0,0,0,0,1,0,0h-4.64a0,0,0,0,1,0,0v-8.29A1.69,1.69,0,0,1,301.31,145.82Z"/><path class="cls-5" d="M398.23,151a5.23,5.23,0,0,0-1.33,3.55V165.2h1.33Z" transform="translate(-86.01 -8.8)"/><path class="cls-17" d="M365.06,140.13v-4.8c0-1.79.86-3.24,2.23-3.24s2.23,1.46,2.23,3.24v4.8Z" transform="translate(-86.01 -8.8)"/><path class="cls-17" d="M376.53,140.13v-4.8c0-1.79.86-3.24,2.23-3.24s2.23,1.46,2.23,3.24v4.8Z" transform="translate(-86.01 -8.8)"/><path class="cls-17" d="M387.77,140.13v-4.8c0-1.79.86-3.24,2.23-3.24s2.23,1.46,2.23,3.24v4.8Z" transform="translate(-86.01 -8.8)"/><path class="cls-17" d="M342.5,140.11v-4.8c0-1.79.86-3.24,2.23-3.24s2.23,1.46,2.23,3.24v4.8Z" transform="translate(-86.01 -8.8)"/><path class="cls-17" d="M353.73,140.11v-4.8c0-1.79.86-3.24,2.23-3.24s2.23,1.46,2.23,3.24v4.8Z" transform="translate(-86.01 -8.8)"/><rect class="cls-18" x="278.61" y="185.38" width="3.28" height="0.8"/><rect class="cls-18" x="280.77" y="207.49" width="3.28" height="0.8"/><rect class="cls-18" x="282.41" y="208.55" width="3.28" height="0.8"/><rect class="cls-18" x="260.2" y="219.83" width="3.28" height="0.8"/><rect class="cls-18" x="261.84" y="220.89" width="3.28" height="0.8"/><rect class="cls-18" x="301.03" y="202.25" width="3.28" height="0.8"/><rect class="cls-18" x="270.04" y="241.55" width="3.28" height="0.8"/><rect class="cls-18" x="273.5" y="241.55" width="3.28" height="0.8"/><rect class="cls-18" x="271.86" y="240.56" width="3.28" height="0.8"/><rect class="cls-18" x="264.03" y="263.45" width="3.28" height="0.8"/><rect class="cls-18" x="267.49" y="263.45" width="3.28" height="0.8"/><rect class="cls-18" x="279.84" y="286.77" width="3.28" height="0.8"/><rect class="cls-18" x="252.41" y="273.05" width="3.28" height="0.8"/><rect class="cls-18" x="250.51" y="197.63" width="3.09" height="0.8"/><rect class="cls-18" x="253.78" y="197.63" width="3.28" height="0.8"/><rect class="cls-18" x="305.66" y="279.31" width="3.28" height="0.8"/><rect class="cls-18" x="303.37" y="278.32" width="3.28" height="0.8"/><rect class="cls-18" x="292.46" y="255.89" width="3.28" height="0.8"/><rect class="cls-18" x="290.82" y="254.9" width="3.28" height="0.8"/><rect class="cls-18" x="299.39" y="237.06" width="3.28" height="0.8"/><rect class="cls-18" x="294.37" y="221.44" width="3.28" height="0.8"/><rect class="cls-18" x="296.01" y="222.54" width="3.28" height="0.8"/><rect class="cls-18" x="286.14" y="110.36" width="3.28" height="0.8"/><rect class="cls-18" x="268.79" y="93.32" width="3.28" height="0.8"/><rect class="cls-18" x="287.78" y="111.45" width="3.28" height="0.8"/><rect class="cls-18" x="283.4" y="76.07" width="3.28" height="0.8"/><rect class="cls-18" x="285.04" y="77.17" width="3.28" height="0.8"/><rect class="cls-19" x="499.59" y="186.42" width="1.49" height="26.36"/><rect class="cls-9" x="447.71" y="218.04" width="105.56" height="74.26"/><rect class="cls-20" x="412.17" y="173.48" width="9.65" height="118.82"/><rect class="cls-21" x="438.17" y="173.48" width="9.65" height="118.82"/><rect class="cls-9" x="421.83" y="173.48" width="16.34" height="118.82"/><rect class="cls-22" x="410.69" y="216.55" width="38.62" height="1.49"/><polygon class="cls-23" points="412.17 173.25 430 127.3 421.83 173.25 412.17 173.25"/><polygon class="cls-5" points="447.82 173.25 430 127.3 438.17 173.25 447.82 173.25"/><polygon class="cls-24" points="421.83 173.25 438.17 173.25 430 127.3 421.83 173.25"/><rect class="cls-22" x="410.69" y="173.22" width="38.62" height="1.49"/><path class="cls-19" d="M514.15,192.79V189.3c0-1.3.72-2.36,1.86-2.36s1.86,1.06,1.86,2.36v3.49Z" transform="translate(-86.01 -8.8)"/><path class="cls-19" d="M527.52,192.79V189.3c0-1.3.72-2.36,1.86-2.36s1.86,1.06,1.86,2.36v3.49Z" transform="translate(-86.01 -8.8)"/><rect class="cls-22" x="410.68" y="187.33" width="38.62" height="2.97"/><path class="cls-20" d="M502.25,199.06v0h-2.18v0c0-.8.42-1.46,1.1-1.46S502.25,198.26,502.25,199.06Z" transform="translate(-86.01 -8.8)"/><path class="cls-20" d="M507.27,199.06v0h-2.18v0c0-.8.42-1.46,1.1-1.46S507.27,198.26,507.27,199.06Z" transform="translate(-86.01 -8.8)"/><path class="cls-9" d="M512.29,199.06v0H510.1v0c0-.8.42-1.46,1.1-1.46S512.29,198.26,512.29,199.06Z" transform="translate(-86.01 -8.8)"/><path class="cls-9" d="M517.31,199.06v0h-2.18v0c0-.8.42-1.46,1.1-1.46S517.31,198.26,517.31,199.06Z" transform="translate(-86.01 -8.8)"/><path class="cls-9" d="M522.33,199.06v0h-2.18v0c0-.8.42-1.46,1.1-1.46S522.33,198.26,522.33,199.06Z" transform="translate(-86.01 -8.8)"/><path class="cls-21" d="M527.35,199.06v0h-2.18v0c0-.8.42-1.46,1.1-1.46S527.35,198.26,527.35,199.06Z" transform="translate(-86.01 -8.8)"/><path class="cls-21" d="M532.37,199.06v0h-2.18v0c0-.8.42-1.46,1.1-1.46S532.37,198.26,532.37,199.06Z" transform="translate(-86.01 -8.8)"/><path class="cls-19" d="M500.78,192.79V189.3c0-1.3.72-2.36,1.86-2.36s1.86,1.06,1.86,2.36v3.49Z" transform="translate(-86.01 -8.8)"/><rect class="cls-19" x="443.7" y="200.62" width="0.52" height="4.32"/><rect class="cls-19" x="429.74" y="200.62" width="0.52" height="4.32"/><rect class="cls-19" x="416.48" y="200.62" width="0.52" height="4.32"/><rect class="cls-19" x="443.7" y="230.33" width="0.52" height="4.32"/><rect class="cls-19" x="429.74" y="230.33" width="0.52" height="4.32"/><rect class="cls-19" x="416.48" y="230.33" width="0.52" height="4.32"/><rect class="cls-19" x="443.7" y="251.12" width="0.52" height="4.32"/><rect class="cls-19" x="429.74" y="251.12" width="0.52" height="4.32"/><rect class="cls-19" x="416.48" y="251.12" width="0.52" height="4.32"/><rect class="cls-19" x="443.7" y="271.91" width="0.52" height="4.32"/><rect class="cls-19" x="429.74" y="271.91" width="0.52" height="4.32"/><rect class="cls-19" x="416.48" y="271.91" width="0.52" height="4.32"/><rect class="cls-20" x="447.71" y="207.12" width="1.49" height="8.91"/><rect class="cls-20" x="452.59" y="207.12" width="7.45" height="8.91"/><rect class="cls-20" x="463.61" y="207.12" width="7.45" height="8.91"/><rect class="cls-20" x="474.63" y="207.12" width="7.45" height="8.91"/><rect class="cls-20" x="485.65" y="207.12" width="7.45" height="8.91"/><rect class="cls-20" x="496.67" y="207.12" width="7.45" height="8.91"/><rect class="cls-20" x="507.7" y="207.12" width="7.45" height="8.91"/><rect class="cls-20" x="518.72" y="207.12" width="7.45" height="8.91"/><rect class="cls-20" x="529.74" y="207.12" width="7.45" height="8.91"/><rect class="cls-20" x="540.76" y="207.12" width="7.45" height="8.91"/><rect class="cls-20" x="551.78" y="207.12" width="1.49" height="8.91"/><rect class="cls-20" x="452.59" y="205.81" width="0.41" height="1.31"/><rect class="cls-20" x="448.79" y="205.8" width="0.41" height="1.31"/><rect class="cls-20" x="459.62" y="205.81" width="0.41" height="1.31"/><rect class="cls-20" x="463.61" y="205.81" width="0.41" height="1.31"/><rect class="cls-20" x="470.65" y="205.81" width="0.41" height="1.31"/><rect class="cls-20" x="474.63" y="205.81" width="0.41" height="1.31"/><rect class="cls-20" x="481.67" y="205.81" width="0.41" height="1.31"/><rect class="cls-20" x="485.65" y="205.81" width="0.41" height="1.31"/><rect class="cls-20" x="492.69" y="205.81" width="0.41" height="1.31"/><rect class="cls-20" x="496.67" y="205.81" width="0.41" height="1.31"/><rect class="cls-20" x="503.71" y="205.81" width="0.41" height="1.31"/><rect class="cls-20" x="507.7" y="205.81" width="0.41" height="1.31"/><rect class="cls-20" x="514.73" y="205.81" width="0.41" height="1.31"/><rect class="cls-20" x="518.72" y="205.81" width="0.41" height="1.31"/><rect class="cls-20" x="525.75" y="205.81" width="0.41" height="1.31"/><rect class="cls-20" x="529.74" y="205.81" width="0.41" height="1.31"/><rect class="cls-20" x="536.77" y="205.81" width="0.41" height="1.31"/><rect class="cls-20" x="540.76" y="205.81" width="0.41" height="1.31"/><rect class="cls-20" x="547.79" y="205.81" width="0.41" height="1.31"/><rect class="cls-20" x="551.78" y="205.81" width="0.41" height="1.31"/><rect class="cls-5" x="447.81" y="215.81" width="38.74" height="4.2"/><path class="cls-9" d="M537.81,229v0h-2.4v0c0-1.2.46-2.18,1.21-2.18S537.81,227.8,537.81,229Z" transform="translate(-86.01 -8.8)"/><path class="cls-9" d="M543.33,229v0h-2.4v0c0-1.2.46-2.18,1.21-2.18S543.33,227.8,543.33,229Z" transform="translate(-86.01 -8.8)"/><path class="cls-9" d="M548.86,229v0h-2.4v0c0-1.2.46-2.18,1.21-2.18S548.86,227.8,548.86,229Z" transform="translate(-86.01 -8.8)"/><path class="cls-9" d="M554.39,229v0H552v0c0-1.2.46-2.18,1.21-2.18S554.39,227.8,554.39,229Z" transform="translate(-86.01 -8.8)"/><path class="cls-9" d="M559.91,229v0h-2.4v0c0-1.2.46-2.18,1.21-2.18S559.91,227.8,559.91,229Z" transform="translate(-86.01 -8.8)"/><path class="cls-9" d="M565.44,229v0H563v0c0-1.2.46-2.18,1.21-2.18S565.44,227.8,565.44,229Z" transform="translate(-86.01 -8.8)"/><path class="cls-9" d="M571,229v0h-2.4v0c0-1.2.46-2.18,1.21-2.18S571,227.8,571,229Z" transform="translate(-86.01 -8.8)"/><rect class="cls-5" x="486.54" y="215.81" width="38.74" height="4.2"/><path class="cls-9" d="M576.54,229v0h-2.4v0c0-1.2.46-2.18,1.21-2.18S576.54,227.81,576.54,229Z" transform="translate(-86.01 -8.8)"/><path class="cls-9" d="M582.07,229v0h-2.4v0c0-1.2.46-2.18,1.21-2.18S582.07,227.81,582.07,229Z" transform="translate(-86.01 -8.8)"/><path class="cls-9" d="M587.6,229v0h-2.4v0c0-1.2.46-2.18,1.21-2.18S587.6,227.81,587.6,229Z" transform="translate(-86.01 -8.8)"/><path class="cls-9" d="M593.12,229v0h-2.4v0c0-1.2.46-2.18,1.21-2.18S593.12,227.81,593.12,229Z" transform="translate(-86.01 -8.8)"/><path class="cls-9" d="M598.65,229v0h-2.4v0c0-1.2.46-2.18,1.21-2.18S598.65,227.81,598.65,229Z" transform="translate(-86.01 -8.8)"/><path class="cls-9" d="M604.17,229v0h-2.4v0c0-1.2.46-2.18,1.21-2.18S604.17,227.81,604.17,229Z" transform="translate(-86.01 -8.8)"/><path class="cls-9" d="M609.7,229v0h-2.4v0c0-1.2.46-2.18,1.21-2.18S609.7,227.81,609.7,229Z" transform="translate(-86.01 -8.8)"/><rect class="cls-5" x="525.18" y="215.81" width="28.09" height="4.2"/><path class="cls-9" d="M615.18,229v0h-2.4v0c0-1.2.46-2.18,1.21-2.18S615.18,227.81,615.18,229Z" transform="translate(-86.01 -8.8)"/><path class="cls-9" d="M620.71,229v0h-2.4v0c0-1.2.46-2.18,1.21-2.18S620.71,227.81,620.71,229Z" transform="translate(-86.01 -8.8)"/><path class="cls-9" d="M626.23,229v0h-2.4v0c0-1.2.46-2.18,1.21-2.18S626.23,227.81,626.23,229Z" transform="translate(-86.01 -8.8)"/><path class="cls-9" d="M631.76,229v0h-2.4v0c0-1.2.46-2.18,1.21-2.18S631.76,227.81,631.76,229Z" transform="translate(-86.01 -8.8)"/><path class="cls-9" d="M637.29,229v0h-2.4v0c0-1.2.46-2.18,1.21-2.18S637.29,227.81,637.29,229Z" transform="translate(-86.01 -8.8)"/><rect class="cls-19" x="456.16" y="210.89" width="0.52" height="3.73"/><rect class="cls-19" x="478.28" y="210.92" width="0.52" height="3.73"/><rect class="cls-19" x="500.23" y="210.89" width="0.52" height="3.73"/><rect class="cls-19" x="522.29" y="210.89" width="0.52" height="3.73"/><rect class="cls-19" x="544.39" y="210.89" width="0.52" height="3.73"/><rect class="cls-22" x="501.24" y="186.42" width="9" height="6.42"/><path class="cls-5" d="M611.73,301.09V267.36a25.39,25.39,0,1,0-50.79,0v33.73Z" transform="translate(-86.01 -8.8)"/><path class="cls-25" d="M598.22,301.09V274.21c0-5.73-4.83-9.75-10.56-9.75H585c-5.73,0-10.56,4-10.56,9.75v26.88Z" transform="translate(-86.01 -8.8)"/><path class="cls-22" d="M595.27,301.09s0-.07,0-.11V275a7.46,7.46,0,0,0-7.45-7.43h-2.65a7.46,7.46,0,0,0-7.45,7.43V301s0,.07,0,.11Z" transform="translate(-86.01 -8.8)"/><rect class="cls-19" x="480.02" y="265.38" width="6.68" height="10.95"/><rect class="cls-19" x="513.96" y="265.38" width="6.68" height="10.95"/><rect class="cls-19" x="488.45" y="243.89" width="23.64" height="7.42"/><ellipse class="cls-19" cx="500.49" cy="255.44" rx="3.93" ry="2.7"/><rect class="cls-26" x="413" y="195.37" width="3.55" height="0.87"/><rect class="cls-26" x="424.98" y="207.89" width="3.55" height="0.87"/><rect class="cls-26" x="426.75" y="209.04" width="3.55" height="0.87"/><rect class="cls-26" x="433.33" y="202.65" width="3.55" height="0.87"/><rect class="cls-26" x="439.96" y="238.29" width="3.55" height="0.87"/><rect class="cls-26" x="443.7" y="238.29" width="3.55" height="0.87"/><rect class="cls-26" x="441.93" y="237.22" width="3.55" height="0.87"/><rect class="cls-26" x="423.96" y="259.35" width="3.55" height="0.87"/><rect class="cls-26" x="427.7" y="259.35" width="3.55" height="0.87"/><rect class="cls-26" x="425.93" y="258.28" width="3.55" height="0.87"/><rect class="cls-26" x="440.05" y="282.7" width="3.55" height="0.87"/><rect class="cls-26" x="443.8" y="282.7" width="3.55" height="0.87"/><rect class="cls-26" x="442.03" y="281.63" width="3.55" height="0.87"/><rect class="cls-26" x="433.19" y="241" width="3.55" height="0.87"/><rect class="cls-26" x="431.41" y="239.93" width="3.55" height="0.87"/><rect class="cls-26" x="431.41" y="228.91" width="3.55" height="0.87"/><rect class="cls-26" x="423.45" y="221.06" width="3.55" height="0.87"/><rect class="cls-26" x="424.15" y="222.25" width="3.55" height="0.87"/><rect class="cls-20" x="553.27" y="173.48" width="9.65" height="118.82"/><rect class="cls-21" x="579.26" y="173.48" width="9.65" height="118.82"/><rect class="cls-9" x="562.92" y="173.48" width="16.34" height="118.82"/><rect class="cls-22" x="551.78" y="216.55" width="38.62" height="1.49"/><polygon class="cls-23" points="553.27 173.25 571.09 127.3 562.92 173.25 553.27 173.25"/><polygon class="cls-5" points="588.91 173.25 571.09 127.3 579.26 173.25 588.91 173.25"/><polygon class="cls-24" points="562.92 173.25 579.26 173.25 571.09 127.3 562.92 173.25"/><rect class="cls-22" x="551.78" y="173.22" width="38.62" height="1.49"/><path class="cls-19" d="M655.24,192.79V189.3c0-1.3.72-2.36,1.86-2.36S659,188,659,189.3v3.49Z" transform="translate(-86.01 -8.8)"/><path class="cls-19" d="M668.61,192.79V189.3c0-1.3.72-2.36,1.86-2.36s1.86,1.06,1.86,2.36v3.49Z" transform="translate(-86.01 -8.8)"/><rect class="cls-22" x="551.77" y="187.33" width="38.62" height="2.97"/><path class="cls-20" d="M643.34,199.06v0h-2.18v0c0-.8.42-1.46,1.1-1.46S643.34,198.26,643.34,199.06Z" transform="translate(-86.01 -8.8)"/><path class="cls-20" d="M648.36,199.06v0h-2.18v0c0-.8.42-1.46,1.1-1.46S648.36,198.26,648.36,199.06Z" transform="translate(-86.01 -8.8)"/><path class="cls-9" d="M653.38,199.06v0H651.2v0c0-.8.42-1.46,1.1-1.46S653.38,198.26,653.38,199.06Z" transform="translate(-86.01 -8.8)"/><path class="cls-9" d="M658.4,199.06v0h-2.18v0c0-.8.42-1.46,1.1-1.46S658.4,198.26,658.4,199.06Z" transform="translate(-86.01 -8.8)"/><path class="cls-9" d="M663.42,199.06v0h-2.18v0c0-.8.42-1.46,1.1-1.46S663.42,198.26,663.42,199.06Z" transform="translate(-86.01 -8.8)"/><path class="cls-21" d="M668.44,199.06v0h-2.18v0c0-.8.42-1.46,1.1-1.46S668.44,198.26,668.44,199.06Z" transform="translate(-86.01 -8.8)"/><path class="cls-21" d="M673.46,199.06v0h-2.18v0c0-.8.42-1.46,1.1-1.46S673.46,198.26,673.46,199.06Z" transform="translate(-86.01 -8.8)"/><path class="cls-19" d="M641.88,192.79V189.3c0-1.3.72-2.36,1.86-2.36s1.86,1.06,1.86,2.36v3.49Z" transform="translate(-86.01 -8.8)"/><rect class="cls-19" x="584.8" y="200.62" width="0.52" height="4.32"/><rect class="cls-19" x="570.83" y="200.62" width="0.52" height="4.32"/><rect class="cls-19" x="557.58" y="200.62" width="0.52" height="4.32"/><rect class="cls-19" x="584.8" y="230.33" width="0.52" height="4.32"/><rect class="cls-19" x="570.83" y="230.33" width="0.52" height="4.32"/><rect class="cls-19" x="557.58" y="230.33" width="0.52" height="4.32"/><rect class="cls-19" x="584.8" y="251.12" width="0.52" height="4.32"/><rect class="cls-19" x="570.83" y="251.12" width="0.52" height="4.32"/><rect class="cls-19" x="557.58" y="251.12" width="0.52" height="4.32"/><rect class="cls-19" x="584.8" y="271.91" width="0.52" height="4.32"/><rect class="cls-19" x="570.83" y="271.91" width="0.52" height="4.32"/><rect class="cls-19" x="557.58" y="271.91" width="0.52" height="4.32"/><rect class="cls-26" x="554.09" y="195.37" width="3.55" height="0.87"/><rect class="cls-26" x="566.07" y="207.89" width="3.55" height="0.87"/><rect class="cls-26" x="567.85" y="209.04" width="3.55" height="0.87"/><rect class="cls-26" x="574.43" y="202.65" width="3.55" height="0.87"/><rect class="cls-26" x="554.45" y="226.95" width="3.55" height="0.87"/><rect class="cls-26" x="558.2" y="226.95" width="3.55" height="0.87"/><rect class="cls-26" x="556.42" y="225.88" width="3.55" height="0.87"/><rect class="cls-26" x="565.05" y="259.35" width="3.55" height="0.87"/><rect class="cls-26" x="568.8" y="259.35" width="3.55" height="0.87"/><rect class="cls-26" x="581.15" y="282.7" width="3.55" height="0.87"/><rect class="cls-26" x="583.12" y="281.63" width="3.55" height="0.87"/><rect class="cls-26" x="574.28" y="241" width="3.55" height="0.87"/><rect class="cls-26" x="572.51" y="239.93" width="3.55" height="0.87"/><rect class="cls-26" x="572.51" y="228.91" width="3.55" height="0.87"/><rect class="cls-26" x="580.8" y="220.03" width="3.55" height="0.87"/><rect class="cls-26" x="581.51" y="221.22" width="3.55" height="0.87"/><path class="cls-27" d="M937.78,200.77s0-.06,0-.09c0-7.13-12.38-12.91-27.64-12.91s-27.64,5.78-27.64,12.91c0,0,0,.06,0,.09Z" transform="translate(-86.01 -8.8)"/><rect class="cls-28" x="794.27" y="191.98" width="55.29" height="20.82"/><rect class="cls-29" x="794.27" y="191.98" width="39.01" height="2.99"/><polygon class="cls-28" points="1047.4 170.32 1047.41 170.28 1047.41 74.82 1051.97 46.23 1051.97 35.66 1054.26 35.66 1054.26 46.23 1058.82 74.82 1058.82 170.28 1047.4 170.32"/><polygon class="cls-28" points="1058.82 170.28 1047.41 170.28 1041.81 202.19 1064.28 202.19 1058.82 170.28"/><rect class="cls-28" x="1127.81" y="210.98" width="22.48" height="31.09" transform="translate(2192.1 444.26) rotate(-180)"/><rect class="cls-29" x="1127.3" y="209.98" width="23.51" height="1.08" transform="translate(2192.1 412.24) rotate(-180)"/><rect class="cls-29" x="1132.93" y="175.78" width="12.25" height="1.08" transform="translate(2192.1 343.85) rotate(-180)"/><rect class="cls-29" x="1132.93" y="121.56" width="12.25" height="1.08" transform="translate(2192.1 235.41) rotate(-180)"/><rect class="cls-16" x="1132.93" y="83.62" width="12.25" height="1.08" transform="translate(2192.1 159.52) rotate(-180)"/><rect class="cls-29" x="1132.93" y="109.8" width="12.25" height="6" transform="translate(2192.1 216.8) rotate(-180)"/><polygon class="cls-16" points="1051.97 46.24 1054.26 46.24 1058.82 74.82 1047.41 74.82 1051.97 46.24"/><polygon class="cls-30" points="1021.17 174.75 1021.18 174.71 1021.18 79.26 1025.74 50.67 1025.74 40.09 1028.02 40.09 1028.02 50.67 1032.58 79.26 1032.58 174.71 1021.17 174.75"/><polygon class="cls-30" points="1032.58 174.71 1021.18 174.71 1015.57 206.62 1038.05 206.62 1032.58 174.71"/><rect class="cls-30" x="1101.58" y="215.42" width="22.48" height="31.09" transform="translate(2139.63 453.13) rotate(-180)"/><rect class="cls-27" x="1101.06" y="214.41" width="23.51" height="1.08" transform="translate(2139.63 421.11) rotate(-180)"/><rect class="cls-27" x="1106.69" y="180.22" width="12.25" height="1.08" transform="translate(2139.63 352.72) rotate(-180)"/><rect class="cls-27" x="1106.69" y="126" width="12.25" height="1.08" transform="translate(2139.63 244.28) rotate(-180)"/><rect class="cls-27" x="1106.69" y="88.05" width="12.25" height="1.08" transform="translate(2139.63 168.39) rotate(-180)"/><rect class="cls-27" x="1106.69" y="114.24" width="12.25" height="6" transform="translate(2139.63 225.67) rotate(-180)"/><polygon class="cls-31" points="1025.74 50.68 1028.02 50.68 1032.58 79.26 1021.18 79.26 1025.74 50.68"/><path class="cls-27" d="M1037.56,200.77s0-.06,0-.09c0-7.13,12.38-12.91,27.64-12.91s27.64,5.78,27.64,12.91c0,0,0,.06,0,.09Z" transform="translate(-86.01 -8.8)"/><rect class="cls-28" x="1039.77" y="200.77" width="55.29" height="20.82" transform="translate(2048.82 413.57) rotate(-180)"/><rect class="cls-29" x="1056.05" y="200.77" width="39.01" height="2.99" transform="translate(2065.11 395.74) rotate(-180)"/><polygon class="cls-30" points="901.66 225.61 839.57 225.61 839.57 238.92 901.66 238.92 963.75 238.92 963.75 225.61 901.66 225.61"/><polygon class="cls-32" points="900.09 243.51 710.96 243.51 710.96 292.3 900.09 292.3 1087.93 292.3 1087.93 243.51 900.09 243.51"/><path class="cls-28" d="M992.47,123.52c.2-2.16-1.36-3.92-1.91-4.53a8,8,0,0,0-2.85-2,7.58,7.58,0,0,0-3,2.08,6.16,6.16,0,0,0-1.8,4.27c.17,2.2,2.52,4.21,4.74,5v-.19h0v.19C989.89,127.6,992.27,125.67,992.47,123.52Z" transform="translate(-86.01 -8.8)"/><rect class="cls-29" x="758.25" y="221.02" width="288.57" height="11.73"/><polyline class="cls-30" points="728.01 231.78 710.96 239.09 710.96 243.57 747.35 243.57 747.35 231.78 728.01 231.78"/><polygon class="cls-28" points="900.69 95.29 900.68 95.3 900.68 110.46 902.63 110.46 902.63 95.3 902.63 95.29 900.69 95.29"/><path class="cls-27" d="M987.87,122h-.39c-30.2,0-54.69,22.4-54.69,50.26a.81.81,0,0,0,0,.17h109.75a.81.81,0,0,0,0-.17C1042.55,144.45,1018.07,122,987.87,122Z" transform="translate(-86.01 -8.8)"/><polygon class="cls-32" points="901.66 165.06 839.57 165.06 839.57 215.51 901.66 215.51 963.75 215.51 963.75 165.06 901.66 165.06"/><path class="cls-27" d="M987.69,191h0c-27.58,0-50,12.17-50.68,26.37h101.39C1037.66,203.15,1015.27,191,987.69,191Z" transform="translate(-86.01 -8.8)"/><polygon class="cls-30" points="1055.98 243.57 1055.98 233.81 1071.5 233.81 1073.14 233.81 1073.14 231.78 1088.28 239.09 1088.28 243.57 1055.98 243.57"/><polygon class="cls-30" points="904.27 231.78 735.35 231.78 735.35 243.57 904.27 243.57 1073.19 243.57 1073.19 231.78 904.27 231.78"/><polygon class="cls-30" points="830.61 212.47 777.48 212.47 777.48 221.34 830.61 221.34 883.92 221.34 883.92 212.47 830.61 212.47"/><polygon class="cls-29" points="901.66 161.46 839.57 161.46 839.57 165.9 901.66 165.9 963.75 165.9 963.75 161.46 901.66 161.46"/><polygon class="cls-30" points="972.71 212.47 1025.84 212.47 1025.84 221.34 972.71 221.34 919.4 221.34 919.4 212.47 972.71 212.47"/><polygon class="cls-32" points="901.66 211.63 839.57 211.63 839.57 225.61 901.66 225.61 963.75 225.61 963.75 211.63 901.66 211.63"/><polygon class="cls-28" points="900.69 95.29 901.66 92.08 902.63 95.29 900.69 95.29"/><path class="cls-33" d="M939,231.26v-4.09c0-1.53.84-2.77,2.18-2.77s2.18,1.24,2.18,2.77v4.09Z" transform="translate(-86.01 -8.8)"/><path class="cls-33" d="M954.41,231.26v-4.09c0-1.53.84-2.77,2.18-2.77s2.18,1.24,2.18,2.77v4.09Z" transform="translate(-86.01 -8.8)"/><path class="cls-33" d="M969.93,231.26v-4.09c0-1.53.84-2.77,2.18-2.77s2.18,1.24,2.18,2.77v4.09Z" transform="translate(-86.01 -8.8)"/><path class="cls-33" d="M985.45,231.26v-4.09c0-1.53.84-2.77,2.18-2.77s2.18,1.24,2.18,2.77v4.09Z" transform="translate(-86.01 -8.8)"/><path class="cls-33" d="M1001,231.26v-4.09c0-1.53.84-2.77,2.18-2.77s2.18,1.24,2.18,2.77v4.09Z" transform="translate(-86.01 -8.8)"/><path class="cls-33" d="M1016.5,231.26v-4.09c0-1.53.84-2.77,2.18-2.77s2.18,1.24,2.18,2.77v4.09Z" transform="translate(-86.01 -8.8)"/><path class="cls-33" d="M1032,231.26v-4.09c0-1.53.84-2.77,2.18-2.77s2.18,1.24,2.18,2.77v4.09Z" transform="translate(-86.01 -8.8)"/><path class="cls-33" d="M939,186.75v-6.14c0-2.29.84-4.15,2.18-4.15s2.18,1.86,2.18,4.15v6.14Z" transform="translate(-86.01 -8.8)"/><path class="cls-33" d="M954.41,186.75v-6.14c0-2.29.84-4.15,2.18-4.15s2.18,1.86,2.18,4.15v6.14Z" transform="translate(-86.01 -8.8)"/><path class="cls-33" d="M970,186.75v-6.14c0-2.29.84-4.15,2.18-4.15s2.18,1.86,2.18,4.15v6.14Z" transform="translate(-86.01 -8.8)"/><path class="cls-33" d="M985.45,186.75v-6.14c0-2.29.84-4.15,2.18-4.15s2.18,1.86,2.18,4.15v6.14Z" transform="translate(-86.01 -8.8)"/><path class="cls-33" d="M1001,186.75v-6.14c0-2.29.84-4.15,2.18-4.15s2.18,1.86,2.18,4.15v6.14Z" transform="translate(-86.01 -8.8)"/><path class="cls-33" d="M1016.5,186.75v-6.14c0-2.29.84-4.15,2.18-4.15s2.18,1.86,2.18,4.15v6.14Z" transform="translate(-86.01 -8.8)"/><path class="cls-33" d="M1032,186.75v-6.14c0-2.29.84-4.15,2.18-4.15s2.18,1.86,2.18,4.15v6.14Z" transform="translate(-86.01 -8.8)"/><polygon class="cls-29" points="901.66 176.99 839.57 176.99 839.57 181.42 901.66 181.42 963.75 181.42 963.75 176.99 901.66 176.99"/><polygon class="cls-30" points="782.15 174.75 782.15 174.71 782.15 79.26 777.58 50.67 777.58 40.09 775.3 40.09 775.3 50.67 770.74 79.26 770.74 174.71 782.15 174.75"/><polygon class="cls-30" points="770.74 174.71 782.15 174.71 787.75 206.62 765.27 206.62 770.74 174.71"/><rect class="cls-30" x="765.27" y="206.62" width="22.48" height="31.09"/><rect class="cls-27" x="764.76" y="205.62" width="23.51" height="1.08"/><rect class="cls-27" x="770.39" y="171.42" width="12.25" height="1.08"/><rect class="cls-27" x="770.39" y="117.2" width="12.25" height="1.08"/><rect class="cls-27" x="770.39" y="79.26" width="12.25" height="1.08"/><rect class="cls-27" x="770.39" y="105.44" width="12.25" height="6"/><polygon class="cls-31" points="777.58 50.68 775.3 50.68 770.74 79.26 782.15 79.26 777.58 50.68"/><polygon class="cls-28" points="755.92 170.32 755.91 170.28 755.91 74.82 751.35 46.23 751.35 35.66 749.07 35.66 749.07 46.23 744.5 74.82 744.5 170.28 755.92 170.32"/><polygon class="cls-28" points="744.5 170.28 755.91 170.28 761.52 202.19 739.04 202.19 744.5 170.28"/><rect class="cls-28" x="739.04" y="202.19" width="22.48" height="31.09"/><rect class="cls-29" x="738.52" y="201.18" width="23.51" height="1.08"/><rect class="cls-29" x="744.15" y="166.98" width="12.25" height="1.08"/><rect class="cls-29" x="744.15" y="112.77" width="12.25" height="1.08"/><rect class="cls-16" x="744.15" y="74.82" width="12.25" height="1.08"/><rect class="cls-29" x="744.15" y="101.01" width="12.25" height="6"/><polygon class="cls-16" points="751.35 46.24 749.07 46.24 744.5 74.82 755.91 74.82 751.35 46.24"/><path class="cls-15" d="M825.66,273.37V262.73a6.35,6.35,0,1,0-12.67,0v10.64Z" transform="translate(-86.01 -8.8)"/><path class="cls-33" d="M814.59,272.13v-8.9c0-3.32,1.83-6,4.74-6s4.74,2.7,4.74,6v8.9Z" transform="translate(-86.01 -8.8)"/><path class="cls-6" d="M815.26,272.13h8.8v-8.74a7.18,7.18,0,0,0-1-3.94Z" transform="translate(-86.01 -8.8)"/><path class="cls-15" d="M850.29,273.37V262.73a6.35,6.35,0,1,0-12.67,0v10.64Z" transform="translate(-86.01 -8.8)"/><path class="cls-33" d="M839.22,272.13v-8.9c0-3.32,1.83-6,4.74-6s4.74,2.7,4.74,6v8.9Z" transform="translate(-86.01 -8.8)"/><path class="cls-6" d="M839.89,272.13h8.8v-8.74a7.18,7.18,0,0,0-1-3.94Z" transform="translate(-86.01 -8.8)"/><path class="cls-15" d="M874.92,273.37V262.73a6.35,6.35,0,1,0-12.67,0v10.64Z" transform="translate(-86.01 -8.8)"/><path class="cls-33" d="M863.85,272.13v-8.9c0-3.32,1.83-6,4.74-6s4.74,2.7,4.74,6v8.9Z" transform="translate(-86.01 -8.8)"/><path class="cls-6" d="M864.52,272.13h8.8v-8.74a7.18,7.18,0,0,0-1-3.94Z" transform="translate(-86.01 -8.8)"/><polygon class="cls-32" points="840.33 175.7 829.04 175.7 829.04 175.73 825.27 175.73 825.27 239.35 844.1 239.35 844.1 175.73 840.33 175.73 840.33 175.7"/><rect class="cls-5" x="827.89" y="215.64" width="13.59" height="76.66"/><path class="cls-27" d="M920.7,176.47h0c-5.12,0-9.28,3.89-9.41,8.43H930.1C930,180.36,925.82,176.47,920.7,176.47Z" transform="translate(-86.01 -8.8)"/><polygon class="cls-32" points="709.35 179.47 709.34 179.43 709.34 86.66 704.9 58.88 704.9 48.6 702.69 48.6 702.69 58.88 698.25 86.66 698.25 179.43 709.35 179.47"/><polygon class="cls-32" points="698.25 179.43 709.34 179.43 714.78 210.45 692.94 210.45 698.25 179.43"/><rect class="cls-32" x="692.94" y="210.45" width="21.84" height="81.85"/><rect class="cls-30" x="692.44" y="209.47" width="22.85" height="1.05"/><rect class="cls-30" x="697.91" y="176.23" width="11.91" height="1.05"/><rect class="cls-30" x="697.91" y="123.54" width="11.91" height="1.05"/><rect class="cls-16" x="697.91" y="86.66" width="11.91" height="1.05"/><rect class="cls-30" x="697.91" y="112.11" width="11.91" height="5.83"/><polygon class="cls-27" points="704.9 58.89 702.69 58.89 698.25 86.66 709.34 86.66 704.9 58.89"/><path class="cls-27" d="M899.07,226.92h0c-7.06,0-12.79,6.51-13,13h26C911.86,233.43,906.13,226.92,899.07,226.92Z" transform="translate(-86.01 -8.8)"/><polygon class="cls-32" points="811.95 233.31 797.04 233.31 797.04 251.95 811.95 251.95 828.08 251.95 828.08 233.31 811.95 233.31"/><polygon class="cls-29" points="813.06 231.14 795.93 231.14 795.93 235.48 813.06 235.48 829.19 235.48 829.19 231.14 813.06 231.14"/><path class="cls-33" d="M887.22,251.41v-2.26a1.54,1.54,0,0,1,3.08,0v2.26Z" transform="translate(-86.01 -8.8)"/><path class="cls-33" d="M893.73,251.41v-2.26a1.54,1.54,0,0,1,3.08,0v2.26Z" transform="translate(-86.01 -8.8)"/><path class="cls-33" d="M900.3,251.41v-2.26a1.54,1.54,0,0,1,3.08,0v2.26Z" transform="translate(-86.01 -8.8)"/><path class="cls-33" d="M906.86,251.41v-2.26a1.54,1.54,0,0,1,3.08,0v2.26Z" transform="translate(-86.01 -8.8)"/><path class="cls-15" d="M1149.68,273.37V262.73a6.35,6.35,0,1,1,12.67,0v10.64Z" transform="translate(-86.01 -8.8)"/><path class="cls-33" d="M1160.75,272.13v-8.9c0-3.32-1.83-6-4.74-6s-4.74,2.7-4.74,6v8.9Z" transform="translate(-86.01 -8.8)"/><path class="cls-6" d="M1160.08,272.13h-8.8v-8.74a7.18,7.18,0,0,1,1-3.94Z" transform="translate(-86.01 -8.8)"/><path class="cls-15" d="M1125,273.37V262.73a6.35,6.35,0,1,1,12.67,0v10.64Z" transform="translate(-86.01 -8.8)"/><path class="cls-33" d="M1136.12,272.13v-8.9c0-3.32-1.83-6-4.74-6s-4.74,2.7-4.74,6v8.9Z" transform="translate(-86.01 -8.8)"/><path class="cls-6" d="M1135.45,272.13h-8.8v-8.74a7.18,7.18,0,0,1,1-3.94Z" transform="translate(-86.01 -8.8)"/><path class="cls-15" d="M1100.42,273.37V262.73a6.35,6.35,0,1,1,12.67,0v10.64Z" transform="translate(-86.01 -8.8)"/><path class="cls-33" d="M1111.49,272.13v-8.9c0-3.32-1.83-6-4.74-6s-4.74,2.7-4.74,6v8.9Z" transform="translate(-86.01 -8.8)"/><path class="cls-6" d="M1110.82,272.13H1102v-8.74a7.18,7.18,0,0,1,1-3.94Z" transform="translate(-86.01 -8.8)"/><polygon class="cls-32" points="962.99 175.7 974.28 175.7 974.28 175.73 978.05 175.73 978.05 239.35 959.23 239.35 959.23 175.73 962.99 175.73 962.99 175.7"/><rect class="cls-5" x="1047.85" y="224.43" width="13.59" height="76.66" transform="translate(2023.28 516.73) rotate(-180)"/><path class="cls-27" d="M1054.64,176.47h0c5.12,0,9.28,3.89,9.41,8.43h-18.82C1045.37,180.36,1049.52,176.47,1054.64,176.47Z" transform="translate(-86.01 -8.8)"/><polygon class="cls-32" points="1092.88 179.47 1092.89 179.43 1092.89 86.66 1097.32 58.88 1097.32 48.6 1099.54 48.6 1099.54 58.88 1103.97 86.66 1103.97 179.43 1092.88 179.47"/><polygon class="cls-32" points="1103.97 179.43 1092.89 179.43 1087.44 210.45 1109.28 210.45 1103.97 179.43"/><rect class="cls-32" x="1173.45" y="219.24" width="21.84" height="81.85" transform="translate(2282.73 511.54) rotate(-180)"/><rect class="cls-30" x="1172.94" y="218.26" width="22.85" height="1.05" transform="translate(2282.73 428.78) rotate(-180)"/><rect class="cls-30" x="1178.42" y="185.03" width="11.91" height="1.05" transform="translate(2282.73 362.32) rotate(-180)"/><rect class="cls-30" x="1178.42" y="132.33" width="11.91" height="1.05" transform="translate(2282.73 256.92) rotate(-180)"/><rect class="cls-16" x="1178.42" y="95.46" width="11.91" height="1.05" transform="translate(2282.73 183.17) rotate(-180)"/><rect class="cls-30" x="1178.42" y="120.91" width="11.91" height="5.83" transform="translate(2282.73 238.84) rotate(-180)"/><polygon class="cls-27" points="1097.32 58.89 1099.54 58.89 1103.97 86.66 1092.89 86.66 1097.32 58.89"/><path class="cls-27" d="M1076.77,226.53h0c7.06,0,12.79,6.51,13,13h-26C1064,233,1069.71,226.53,1076.77,226.53Z" transform="translate(-86.01 -8.8)"/><polygon class="cls-32" points="991.87 232.92 1006.78 232.92 1006.78 239.43 991.87 239.43 975.74 239.43 975.74 232.92 991.87 232.92"/><polygon class="cls-29" points="990.76 230.75 1007.89 230.75 1007.89 235.09 990.76 235.09 974.63 235.09 974.63 230.75 990.76 230.75"/><path class="cls-33" d="M1088.61,247.32v-1.49a1,1,0,0,0-2,0v1.49Z" transform="translate(-86.01 -8.8)"/><path class="cls-33" d="M1081.42,247.32v-1.49a1,1,0,0,0-2,0v1.49Z" transform="translate(-86.01 -8.8)"/><path class="cls-33" d="M1074.19,247.32v-1.49a1,1,0,0,0-2,0v1.49Z" transform="translate(-86.01 -8.8)"/><path class="cls-33" d="M1067,247.32v-1.49a1,1,0,0,0-2,0v1.49Z" transform="translate(-86.01 -8.8)"/><path class="cls-15" d="M943.53,251v-5.47a3.27,3.27,0,1,0-6.52,0V251Z" transform="translate(-86.01 -8.8)"/><path class="cls-33" d="M937.83,250.36v-4.58c0-1.71.94-3.1,2.44-3.1s2.44,1.39,2.44,3.1v4.58Z" transform="translate(-86.01 -8.8)"/><path class="cls-6" d="M938.18,250.36h4.52v-4.49a3.69,3.69,0,0,0-.51-2Z" transform="translate(-86.01 -8.8)"/><path class="cls-15" d="M956.19,251v-5.47a3.27,3.27,0,1,0-6.52,0V251Z" transform="translate(-86.01 -8.8)"/><path class="cls-33" d="M950.5,250.36v-4.58c0-1.71.94-3.1,2.44-3.1s2.44,1.39,2.44,3.1v4.58Z" transform="translate(-86.01 -8.8)"/><path class="cls-6" d="M950.84,250.36h4.52v-4.49a3.69,3.69,0,0,0-.51-2Z" transform="translate(-86.01 -8.8)"/><path class="cls-15" d="M1021.78,251.16v-5.47a3.27,3.27,0,1,0-6.52,0v5.47Z" transform="translate(-86.01 -8.8)"/><path class="cls-33" d="M1016.08,250.52v-4.58c0-1.71.94-3.1,2.44-3.1s2.44,1.39,2.44,3.1v4.58Z" transform="translate(-86.01 -8.8)"/><path class="cls-6" d="M1016.43,250.52H1021V246a3.69,3.69,0,0,0-.51-2Z" transform="translate(-86.01 -8.8)"/><path class="cls-15" d="M1034.24,251.16v-5.47a3.27,3.27,0,1,0-6.52,0v5.47Z" transform="translate(-86.01 -8.8)"/><path class="cls-33" d="M1028.54,250.52v-4.58c0-1.71.94-3.1,2.44-3.1s2.44,1.39,2.44,3.1v4.58Z" transform="translate(-86.01 -8.8)"/><path class="cls-6" d="M1028.89,250.52h4.52V246a3.69,3.69,0,0,0-.51-2Z" transform="translate(-86.01 -8.8)"/><polygon class="cls-29" points="901.66 208.03 839.57 208.03 839.57 212.47 901.66 212.47 963.75 212.47 963.75 208.03 901.66 208.03"/><path class="cls-27" d="M987.59,235.4h0c-12.65,0-22.92,10.81-23.25,21.62h46.51C1010.51,246.21,1000.24,235.4,987.59,235.4Z" transform="translate(-86.01 -8.8)"/><polygon class="cls-32" points="899.58 249.69 872.86 249.69 872.86 260.5 899.58 260.5 928.5 260.5 928.5 249.69 899.58 249.69"/><polygon class="cls-29" points="901.57 248.22 870.87 248.22 870.87 249.82 901.57 249.82 930.49 249.82 930.49 248.22 901.57 248.22"/><polygon class="cls-29" points="901.51 260.5 872.86 260.5 872.86 267.7 901.51 267.7 928.5 267.7 928.5 260.5 901.51 260.5"/><path class="cls-33" d="M968.53,266v-2.47a1.5,1.5,0,1,1,3,0V266Z" transform="translate(-86.01 -8.8)"/><path class="cls-33" d="M979.07,266v-2.47a1.5,1.5,0,1,1,3,0V266Z" transform="translate(-86.01 -8.8)"/><path class="cls-33" d="M989.68,266v-2.47a1.5,1.5,0,1,1,3,0V266Z" transform="translate(-86.01 -8.8)"/><path class="cls-33" d="M1000.28,266v-2.47a1.5,1.5,0,1,1,3,0V266Z" transform="translate(-86.01 -8.8)"/><polygon class="cls-32" points="899.58 263.61 872.86 263.61 872.86 286.12 899.58 286.12 928.5 286.12 928.5 263.61 899.58 263.61"/><path class="cls-27" d="M1054.65,217.81h0a6.87,6.87,0,0,1,6.79,6.63h-13.58A6.87,6.87,0,0,1,1054.65,217.81Z" transform="translate(-86.01 -8.8)"/><path class="cls-27" d="M920.69,217.81h0a6.87,6.87,0,0,0-6.79,6.63h13.58A6.87,6.87,0,0,0,920.69,217.81Z" transform="translate(-86.01 -8.8)"/><polygon class="cls-34" points="596.13 285.87 641.13 285.87 641.13 189.21 618.92 188.79 596.13 189.21 596.13 285.87"/><polygon class="cls-34" points="641.13 286.85 686.13 286.85 686.13 201.85 663.92 201.47 641.13 201.85 641.13 286.85"/><rect class="cls-35" x="678.97" y="294.67" width="96.59" height="6.42" transform="translate(1368.53 586.96) rotate(-180)"/><rect class="cls-34" x="756.05" y="292.31" width="4.58" height="2.13" transform="translate(1430.67 577.96) rotate(-180)"/><rect class="cls-34" x="758.34" y="289.94" width="4.58" height="2.13" transform="translate(1435.25 573.22) rotate(-180)"/><rect class="cls-34" x="760.88" y="292.31" width="4.58" height="2.13" transform="translate(1440.32 577.96) rotate(-180)"/><rect class="cls-34" x="763.17" y="289.94" width="4.58" height="2.13" transform="translate(1444.9 573.22) rotate(-180)"/><rect class="cls-36" x="670.84" y="282.9" width="14.29" height="1.57"/><rect class="cls-27" x="670.84" y="284.46" width="14.29" height="1.57"/><rect class="cls-36" x="669.65" y="286.03" width="16.67" height="1.57"/><rect class="cls-27" x="669.65" y="287.59" width="16.67" height="1.57"/><rect class="cls-36" x="668.5" y="289.16" width="18.96" height="1.57"/><rect class="cls-27" x="668.5" y="290.73" width="18.96" height="1.57"/><rect class="cls-37" x="758.05" y="273.67" width="11.88" height="18.03" transform="translate(1441.97 556.56) rotate(-180)"/><rect class="cls-36" x="755.3" y="277.79" width="17.38" height="10.44" transform="translate(960.99 -489.78) rotate(90)"/><circle class="cls-27" cx="681.58" cy="273.65" r="0.56"/><polygon class="cls-27" points="672.76 282.9 672.76 265.52 674.94 265.52 683.19 282.9 672.76 282.9"/><rect class="cls-37" x="743.97" y="273.64" width="11.27" height="15.14" transform="translate(1413.19 553.63) rotate(-180)"/><rect class="cls-36" x="742.75" y="276.21" width="13.71" height="9.86" transform="translate(944.74 -477.25) rotate(90)"/><polygon class="cls-27" points="668.44 279.2 658.66 279.2 658.66 265.5 660.6 265.5 668.44 279.2"/><rect class="cls-37" x="749.29" y="273.64" width="0.63" height="15.14" transform="translate(1413.19 553.63) rotate(-180)"/><rect class="cls-37" x="749.23" y="275.84" width="0.72" height="10.74" transform="translate(944.79 -477.17) rotate(90)"/><rect class="cls-37" x="730.08" y="273.64" width="11.27" height="15.14" transform="translate(1385.41 553.63) rotate(-180)"/><rect class="cls-36" x="728.86" y="276.21" width="13.71" height="9.86" transform="translate(930.85 -463.36) rotate(90)"/><polygon class="cls-27" points="654.55 279.2 644.77 279.2 644.77 265.5 646.71 265.5 654.55 279.2"/><rect class="cls-37" x="735.4" y="273.64" width="0.63" height="15.14" transform="translate(1385.41 553.63) rotate(-180)"/><rect class="cls-37" x="735.31" y="275.84" width="0.72" height="10.74" transform="translate(930.87 -463.25) rotate(90)"/><rect class="cls-37" x="743.98" y="250.04" width="11.27" height="15.14" transform="translate(1413.22 506.43) rotate(-180)"/><rect class="cls-36" x="742.76" y="252.61" width="13.71" height="9.86" transform="translate(921.15 -500.87) rotate(90)"/><polygon class="cls-27" points="668.45 255.6 658.67 255.6 658.67 241.9 660.62 241.9 668.45 255.6"/><rect class="cls-37" x="749.3" y="250.04" width="0.63" height="15.14" transform="translate(1413.22 506.43) rotate(-180)"/><rect class="cls-37" x="749.24" y="252.24" width="0.72" height="10.74" transform="translate(921.2 -500.79) rotate(90)"/><rect class="cls-37" x="730.12" y="250.04" width="11.27" height="15.14" transform="translate(1385.49 506.43) rotate(-180)"/><rect class="cls-36" x="728.9" y="252.61" width="13.71" height="9.86" transform="translate(907.29 -487) rotate(90)"/><polygon class="cls-27" points="654.59 255.6 644.81 255.6 644.81 241.9 646.75 241.9 654.59 255.6"/><rect class="cls-37" x="735.44" y="250.04" width="0.63" height="15.14" transform="translate(1385.49 506.43) rotate(-180)"/><rect class="cls-37" x="735.35" y="252.24" width="0.72" height="10.74" transform="translate(907.31 -486.89) rotate(90)"/><rect class="cls-37" x="757.84" y="250.04" width="11.27" height="15.14" transform="translate(1440.95 506.43) rotate(-180)"/><rect class="cls-36" x="756.62" y="252.61" width="13.71" height="9.86" transform="translate(935.01 -514.73) rotate(90)"/><polygon class="cls-27" points="682.32 255.6 672.54 255.6 672.54 241.9 674.48 241.9 682.32 255.6"/><rect class="cls-37" x="763.16" y="250.04" width="0.63" height="15.14" transform="translate(1440.95 506.43) rotate(-180)"/><rect class="cls-37" x="763.1" y="252.24" width="0.72" height="10.74" transform="translate(935.07 -514.65) rotate(90)"/><rect class="cls-37" x="743.98" y="226.76" width="11.27" height="15.14" transform="translate(1413.22 459.86) rotate(-180)"/><rect class="cls-36" x="742.76" y="229.33" width="13.71" height="9.86" transform="translate(897.87 -524.15) rotate(90)"/><polygon class="cls-27" points="668.45 232.32 658.67 232.32 658.67 218.61 660.62 218.61 668.45 232.32"/><rect class="cls-37" x="749.3" y="226.76" width="0.63" height="15.14" transform="translate(1413.22 459.86) rotate(-180)"/><rect class="cls-37" x="749.24" y="228.96" width="0.72" height="10.74" transform="translate(897.92 -524.07) rotate(90)"/><rect class="cls-37" x="730.12" y="226.76" width="11.27" height="15.14" transform="translate(1385.49 459.86) rotate(-180)"/><rect class="cls-36" x="728.9" y="229.33" width="13.71" height="9.86" transform="translate(884 -510.29) rotate(90)"/><polygon class="cls-27" points="654.59 232.32 644.81 232.32 644.81 218.61 646.75 218.61 654.59 232.32"/><rect class="cls-37" x="735.44" y="226.76" width="0.63" height="15.14" transform="translate(1385.49 459.86) rotate(-180)"/><rect class="cls-37" x="735.35" y="228.96" width="0.72" height="10.74" transform="translate(884.03 -510.18) rotate(90)"/><rect class="cls-37" x="757.84" y="226.76" width="11.27" height="15.14" transform="translate(1440.95 459.86) rotate(-180)"/><rect class="cls-36" x="756.62" y="229.33" width="13.71" height="9.86" transform="translate(911.73 -538.01) rotate(90)"/><polygon class="cls-27" points="682.32 232.32 672.54 232.32 672.54 218.61 674.48 218.61 682.32 232.32"/><rect class="cls-37" x="763.16" y="226.76" width="0.63" height="15.14" transform="translate(1440.95 459.86) rotate(-180)"/><rect class="cls-37" x="763.1" y="228.96" width="0.72" height="10.74" transform="translate(911.78 -537.93) rotate(90)"/><rect class="cls-38" x="727.14" y="203.41" width="45" height="20.22" transform="translate(1413.27 418.25) rotate(-180)"/><rect class="cls-5" x="727.04" y="203.05" width="0.63" height="20.59" transform="translate(1368.69 417.88) rotate(-180)"/><rect class="cls-5" x="749.32" y="180.86" width="0.63" height="45" transform="translate(460.27 944.2) rotate(-90)"/><rect class="cls-5" x="749.32" y="200.81" width="0.63" height="45" transform="translate(440.32 964.16) rotate(-90)"/><rect class="cls-5" x="771.57" y="203.05" width="0.63" height="20.59" transform="translate(1457.76 417.88) rotate(-180)"/><rect class="cls-34" x="718.17" y="289.16" width="4.58" height="2.42" transform="translate(1354.9 571.95) rotate(-180)"/><rect class="cls-37" x="698.97" y="269.53" width="11.27" height="17.22" transform="translate(1323.19 547.48) rotate(-180)"/><rect class="cls-36" x="696.81" y="273.13" width="15.58" height="9.86" transform="translate(896.65 -435.33) rotate(90)"/><polygon class="cls-27" points="623.44 277.06 613.66 277.06 613.66 261.47 615.6 261.47 623.44 277.06"/><rect class="cls-37" x="704.29" y="269.53" width="0.63" height="17.22" transform="translate(1323.19 547.48) rotate(-180)"/><rect class="cls-37" x="704.18" y="272.77" width="0.82" height="10.74" transform="translate(896.72 -435.25) rotate(90)"/><rect class="cls-37" x="712.86" y="269.53" width="11.27" height="17.22" transform="translate(1350.98 547.48) rotate(-180)"/><rect class="cls-36" x="710.7" y="273.13" width="15.58" height="9.86" transform="translate(910.55 -449.23) rotate(90)"/><polygon class="cls-27" points="637.33 277.06 627.55 277.06 627.55 261.47 629.49 261.47 637.33 277.06"/><rect class="cls-37" x="718.18" y="269.53" width="0.63" height="17.22" transform="translate(1350.98 547.48) rotate(-180)"/><rect class="cls-37" x="718.07" y="272.77" width="0.82" height="10.74" transform="translate(910.61 -449.14) rotate(90)"/><rect class="cls-37" x="685.08" y="269.53" width="11.27" height="17.22" transform="translate(1295.41 547.48) rotate(-180)"/><rect class="cls-36" x="682.92" y="273.13" width="15.58" height="9.86" transform="translate(882.76 -421.44) rotate(90)"/><polygon class="cls-27" points="609.55 277.06 599.77 277.06 599.77 261.47 601.71 261.47 609.55 277.06"/><rect class="cls-37" x="690.4" y="269.53" width="0.63" height="17.22" transform="translate(1295.41 547.48) rotate(-180)"/><rect class="cls-37" x="690.26" y="272.77" width="0.82" height="10.74" transform="translate(882.8 -421.33) rotate(90)"/><rect class="cls-37" x="698.98" y="242.69" width="11.27" height="17.22" transform="translate(1323.22 493.8) rotate(-180)"/><rect class="cls-36" x="696.82" y="246.29" width="15.58" height="9.86" transform="translate(869.83 -462.19) rotate(90)"/><polygon class="cls-27" points="623.46 250.22 613.67 250.22 613.67 234.63 615.62 234.63 623.46 250.22"/><rect class="cls-37" x="704.3" y="242.69" width="0.63" height="17.22" transform="translate(1323.22 493.8) rotate(-180)"/><rect class="cls-37" x="704.19" y="245.93" width="0.82" height="10.74" transform="translate(869.89 -462.1) rotate(90)"/><rect class="cls-37" x="685.12" y="242.69" width="11.27" height="17.22" transform="translate(1295.5 493.8) rotate(-180)"/><rect class="cls-36" x="682.96" y="246.29" width="15.58" height="9.86" transform="translate(855.97 -448.33) rotate(90)"/><polygon class="cls-27" points="609.59 250.22 599.81 250.22 599.81 234.63 601.75 234.63 609.59 250.22"/><rect class="cls-37" x="690.44" y="242.69" width="0.63" height="17.22" transform="translate(1295.5 493.8) rotate(-180)"/><rect class="cls-37" x="690.3" y="245.93" width="0.82" height="10.74" transform="translate(856 -448.21) rotate(90)"/><rect class="cls-37" x="712.8" y="242.69" width="11.27" height="17.22" transform="translate(1350.86 493.8) rotate(-180)"/><rect class="cls-36" x="710.64" y="246.29" width="15.58" height="9.86" transform="translate(883.65 -476.01) rotate(90)"/><polygon class="cls-27" points="637.28 250.22 627.5 250.22 627.5 234.63 629.44 234.63 637.28 250.22"/><rect class="cls-37" x="718.12" y="242.69" width="0.63" height="17.22" transform="translate(1350.86 493.8) rotate(-180)"/><rect class="cls-37" x="718.01" y="245.93" width="0.82" height="10.74" transform="translate(883.71 -475.92) rotate(90)"/><rect class="cls-37" x="698.98" y="217.31" width="11.27" height="17.22" transform="translate(1323.22 443.04) rotate(-180)"/><rect class="cls-36" x="696.82" y="220.91" width="15.58" height="9.86" transform="translate(844.45 -487.57) rotate(90)"/><polygon class="cls-27" points="623.46 224.84 613.67 224.84 613.67 209.26 615.62 209.26 623.46 224.84"/><rect class="cls-37" x="704.3" y="217.31" width="0.63" height="17.22" transform="translate(1323.22 443.04) rotate(-180)"/><rect class="cls-37" x="704.19" y="220.55" width="0.82" height="10.74" transform="translate(844.51 -487.48) rotate(90)"/><rect class="cls-37" x="685.12" y="217.31" width="11.27" height="17.22" transform="translate(1295.5 443.04) rotate(-180)"/><rect class="cls-36" x="682.96" y="220.91" width="15.58" height="9.86" transform="translate(830.59 -473.7) rotate(90)"/><polygon class="cls-27" points="609.59 224.84 599.81 224.84 599.81 209.26 601.75 209.26 609.59 224.84"/><rect class="cls-37" x="690.44" y="217.31" width="0.63" height="17.22" transform="translate(1295.5 443.04) rotate(-180)"/><rect class="cls-37" x="690.3" y="220.55" width="0.82" height="10.74" transform="translate(830.62 -473.59) rotate(90)"/><rect class="cls-37" x="712.84" y="217.31" width="11.27" height="17.22" transform="translate(1350.95 443.04) rotate(-180)"/><rect class="cls-36" x="710.68" y="220.91" width="15.58" height="9.86" transform="translate(858.31 -501.43) rotate(90)"/><polygon class="cls-27" points="637.32 224.84 627.54 224.84 627.54 209.26 629.48 209.26 637.32 224.84"/><rect class="cls-37" x="718.16" y="217.31" width="0.63" height="17.22" transform="translate(1350.95 443.04) rotate(-180)"/><rect class="cls-37" x="718.06" y="220.55" width="0.82" height="10.74" transform="translate(858.37 -501.34) rotate(90)"/><rect class="cls-38" x="682.14" y="189.66" width="45" height="23" transform="translate(1323.27 393.53) rotate(-180)"/><rect class="cls-5" x="682.04" y="189.35" width="0.63" height="23.41" transform="translate(1278.69 393.31) rotate(-180)"/><rect class="cls-5" x="704.28" y="167.11" width="0.71" height="45" transform="translate(429.02 885.45) rotate(-90)"/><rect class="cls-5" x="704.28" y="189.8" width="0.71" height="45" transform="translate(406.33 908.14) rotate(-90)"/><rect class="cls-5" x="726.57" y="189.35" width="0.63" height="23.41" transform="translate(1367.76 393.31) rotate(-180)"/><path class="cls-6" d="M891.32,299.68H842l3.32-15.09a3.44,3.44,0,0,1,1-1.43,4.36,4.36,0,0,1,2.38-1h36a4.27,4.27,0,0,1,2.38,1,3.34,3.34,0,0,1,.91,1.38Z" transform="translate(-86.01 -8.8)"/><path class="cls-39" d="M844.46,299.54l2.83-13.7a3.66,3.66,0,0,1,.45-1c.37-.33.82-.9,1.11-.9h35.66a1.83,1.83,0,0,1,1.09.49c.22.2.35,1.24.42,1.41l2.88,13.75Z" transform="translate(-86.01 -8.8)"/><rect class="cls-6" x="737.11" y="288.33" width="74.74" height="18.63" rx="1.91" ry="1.91"/><rect class="cls-6" x="780.67" y="273.88" width="1.72" height="17.18"/><rect class="cls-9" x="774.48" y="291.21" width="5.22" height="2.16" rx="0.62" ry="0.62"/><path class="cls-40" d="M827.73,301.09h-4.65v5.35h4.65a2.75,2.75,0,0,0,0-5.35Z" transform="translate(-86.01 -8.8)"/><path class="cls-40" d="M894.57,306.44h3.28v-5.35h-3.28c-.83,0-1.5,1.2-1.5,2.68S893.75,306.44,894.57,306.44Z" transform="translate(-86.01 -8.8)"/><path class="cls-9" d="M844.55,315.79a9,9,0,0,0-17.93,0Z" transform="translate(-86.01 -8.8)"/><path class="cls-9" d="M894.35,315.79a9,9,0,0,0-17.93,0Z" transform="translate(-86.01 -8.8)"/><circle class="cls-41" cx="749.58" cy="307.73" r="6.57"/><circle class="cls-16" cx="749.58" cy="307.73" r="3.98"/><circle class="cls-41" cx="799.37" cy="307.73" r="6.57"/><circle class="cls-16" cx="799.37" cy="307.73" r="3.98"/><rect class="cls-42" x="409.79" y="233.19" width="30.61" height="67.89" transform="translate(764.18 525.48) rotate(-180)"/><rect class="cls-15" x="440.4" y="218.56" width="47" height="82.52" transform="translate(841.79 510.85) rotate(-180)"/><rect class="cls-15" x="440.4" y="190.06" width="47" height="25.25" transform="translate(841.79 396.58) rotate(-180)"/><rect class="cls-43" x="444.18" y="197.51" width="39.49" height="17.8" transform="translate(841.84 404.02) rotate(-180)"/><rect class="cls-17" x="440.4" y="215.31" width="47" height="3.84" transform="translate(841.79 425.66) rotate(-180)"/><rect class="cls-16" x="476.37" y="220.93" width="2.29" height="2.05" transform="translate(869.02 435.12) rotate(-180)"/><rect class="cls-16" x="462.73" y="220.93" width="2.29" height="2.05" transform="translate(841.74 435.12) rotate(-180)"/><rect class="cls-16" x="449.09" y="220.93" width="2.29" height="2.05" transform="translate(814.46 435.12) rotate(-180)"/><rect class="cls-16" x="472.78" y="227.06" width="9.47" height="20.4" transform="translate(869.02 465.71) rotate(-180)"/><rect class="cls-16" x="459.14" y="227.06" width="9.47" height="20.4" transform="translate(841.74 465.71) rotate(-180)"/><rect class="cls-16" x="445.5" y="227.06" width="9.47" height="20.4" transform="translate(814.46 465.71) rotate(-180)"/><rect class="cls-16" x="476.37" y="193.42" width="2.29" height="2.05" transform="translate(869.02 380.11) rotate(-180)"/><rect class="cls-16" x="462.73" y="193.42" width="2.29" height="2.05" transform="translate(841.74 380.11) rotate(-180)"/><rect class="cls-16" x="449.09" y="193.42" width="2.29" height="2.05" transform="translate(814.46 380.11) rotate(-180)"/><rect class="cls-16" x="386.77" y="190.76" width="9.47" height="13.88"/><rect class="cls-16" x="373.13" y="190.76" width="9.47" height="13.88"/><rect class="cls-16" x="359.49" y="190.76" width="9.47" height="13.88"/><rect class="cls-17" x="440.4" y="185.55" width="47" height="4.52" transform="translate(841.79 366.81) rotate(-180)"/><rect class="cls-16" x="442.47" y="182.51" width="42.9" height="3.04" transform="translate(841.84 359.26) rotate(-180)"/><rect class="cls-5" x="443.61" y="172.41" width="1.26" height="10.1" transform="translate(802.47 346.12) rotate(-180)"/><rect class="cls-5" x="483.04" y="172.41" width="1.26" height="10.1" transform="translate(881.33 346.12) rotate(-180)"/><rect class="cls-5" x="472.78" y="275.05" width="8.64" height="23.63" transform="translate(868.19 564.93) rotate(-180)"/><rect class="cls-5" x="445.5" y="275.05" width="10.38" height="23.63" transform="translate(815.37 564.93) rotate(-180)"/><rect class="cls-17" x="440.4" y="259.01" width="47" height="2.19" transform="translate(841.79 511.42) rotate(-180)"/><rect class="cls-42" x="440.4" y="254.55" width="47" height="4.46" transform="translate(841.79 504.77) rotate(-180)"/><rect class="cls-17" x="440.4" y="251.05" width="47" height="0.25" transform="translate(841.79 493.55) rotate(-180)"/><rect class="cls-17" x="487.18" y="251.17" width="0.22" height="3.38" transform="translate(888.57 496.92) rotate(-180)"/><rect class="cls-17" x="486.1" y="251.17" width="0.22" height="3.38" transform="translate(886.42 496.92) rotate(-180)"/><rect class="cls-17" x="477.3" y="251.17" width="0.22" height="3.38" transform="translate(868.82 496.92) rotate(-180)"/><rect class="cls-17" x="478.44" y="251.17" width="0.22" height="3.38" transform="translate(871.09 496.92) rotate(-180)"/><rect class="cls-17" x="479.57" y="251.17" width="0.22" height="3.38" transform="translate(873.36 496.92) rotate(-180)"/><rect class="cls-17" x="473.19" y="251.17" width="0.22" height="3.38" transform="translate(860.59 496.92) rotate(-180)"/><rect class="cls-17" x="474.32" y="251.17" width="0.22" height="3.38" transform="translate(862.86 496.92) rotate(-180)"/><rect class="cls-17" x="475.46" y="251.17" width="0.22" height="3.38" transform="translate(865.13 496.92) rotate(-180)"/><rect class="cls-17" x="462.04" y="251.17" width="0.22" height="3.38" transform="translate(838.3 496.92) rotate(-180)"/><rect class="cls-17" x="463.18" y="251.17" width="0.22" height="3.38" transform="translate(840.57 496.92) rotate(-180)"/><rect class="cls-17" x="464.32" y="251.17" width="0.22" height="3.38" transform="translate(842.84 496.92) rotate(-180)"/><rect class="cls-17" x="457.89" y="251.17" width="0.22" height="3.38" transform="translate(829.99 496.92) rotate(-180)"/><rect class="cls-17" x="459.03" y="251.17" width="0.22" height="3.38" transform="translate(832.27 496.92) rotate(-180)"/><rect class="cls-17" x="460.16" y="251.17" width="0.22" height="3.38" transform="translate(834.54 496.92) rotate(-180)"/><rect class="cls-17" x="446.52" y="251.17" width="0.22" height="3.38" transform="translate(807.26 496.92) rotate(-180)"/><rect class="cls-17" x="447.66" y="251.17" width="0.22" height="3.38" transform="translate(809.53 496.92) rotate(-180)"/><rect class="cls-17" x="448.8" y="251.17" width="0.22" height="3.38" transform="translate(811.81 496.92) rotate(-180)"/><rect class="cls-17" x="441.98" y="251.17" width="0.22" height="3.38" transform="translate(798.17 496.92) rotate(-180)"/><rect class="cls-17" x="443.11" y="251.17" width="0.22" height="3.38" transform="translate(800.44 496.92) rotate(-180)"/><rect class="cls-17" x="444.25" y="251.17" width="0.22" height="3.38" transform="translate(802.71 496.92) rotate(-180)"/><rect class="cls-44" x="440.4" y="261.21" width="47" height="10.8" transform="translate(841.79 524.42) rotate(-180)"/><rect class="cls-16" x="409.79" y="210.57" width="30.61" height="12.41" transform="translate(764.18 424.76) rotate(-180)"/><rect class="cls-9" x="409.79" y="222.98" width="2.3" height="10.21" transform="translate(735.88 447.38) rotate(-180)"/><rect class="cls-9" x="438.1" y="222.98" width="2.3" height="10.21" transform="translate(792.49 447.38) rotate(-180)"/><rect class="cls-9" x="424.11" y="222.98" width="2.3" height="10.21" transform="translate(764.52 447.38) rotate(-180)"/><rect class="cls-9" x="410.94" y="229.63" width="28.3" height="3.56" transform="translate(764.18 454.03) rotate(-180)"/><rect class="cls-9" x="411.28" y="222.98" width="27.97" height="1.02" transform="translate(764.52 438.2) rotate(-180)"/><rect class="cls-5" x="414.32" y="237.64" width="21.89" height="18.37" transform="translate(764.52 484.85) rotate(-180)"/><rect class="cls-15" x="409.79" y="260.09" width="30.61" height="1.12" transform="translate(764.18 512.5) rotate(-180)"/><rect class="cls-9" x="438.72" y="233.19" width="1.03" height="26.89" transform="translate(792.45 484.49) rotate(-180)"/><rect class="cls-17" x="409.79" y="261.21" width="30.61" height="2.24" transform="translate(764.18 515.85) rotate(-180)"/><rect class="cls-9" x="410.3" y="233.19" width="1.03" height="26.89" transform="translate(735.62 484.49) rotate(-180)"/><rect class="cls-16" x="426.62" y="285.02" width="6.12" height="16.07" transform="translate(773.35 577.31) rotate(-180)"/><rect class="cls-17" x="409.79" y="251.17" width="30.61" height="0.36" transform="translate(764.18 493.91) rotate(-180)"/><rect class="cls-17" x="409.79" y="252.19" width="30.61" height="0.36" transform="translate(764.18 495.94) rotate(-180)"/><rect class="cls-17" x="409.79" y="259.14" width="30.61" height="0.36" transform="translate(764.18 509.85) rotate(-180)"/><rect class="cls-17" x="439.6" y="252.55" width="0.25" height="7.54" transform="translate(793.45 503.84) rotate(-180)"/><rect class="cls-17" x="437.33" y="252.55" width="0.25" height="7.54" transform="translate(788.9 503.84) rotate(-180)"/><rect class="cls-17" x="435.05" y="252.55" width="0.25" height="7.54" transform="translate(784.35 503.84) rotate(-180)"/><rect class="cls-17" x="432.78" y="252.55" width="0.25" height="7.54" transform="translate(779.81 503.84) rotate(-180)"/><rect class="cls-17" x="430.51" y="252.55" width="0.25" height="7.54" transform="translate(775.26 503.84) rotate(-180)"/><rect class="cls-17" x="428.23" y="252.55" width="0.25" height="7.54" transform="translate(770.71 503.84) rotate(-180)"/><rect class="cls-17" x="425.96" y="252.55" width="0.25" height="7.54" transform="translate(766.17 503.84) rotate(-180)"/><rect class="cls-17" x="423.69" y="252.55" width="0.25" height="7.54" transform="translate(761.62 503.84) rotate(-180)"/><rect class="cls-17" x="421.41" y="252.55" width="0.25" height="7.54" transform="translate(757.07 503.84) rotate(-180)"/><rect class="cls-17" x="419.14" y="252.55" width="0.25" height="7.54" transform="translate(752.53 503.84) rotate(-180)"/><rect class="cls-17" x="416.87" y="252.55" width="0.25" height="7.54" transform="translate(747.98 503.84) rotate(-180)"/><rect class="cls-17" x="414.59" y="252.55" width="0.25" height="7.54" transform="translate(743.43 503.84) rotate(-180)"/><rect class="cls-17" x="412.32" y="252.55" width="0.25" height="7.54" transform="translate(738.89 503.84) rotate(-180)"/><rect class="cls-17" x="410.05" y="252.55" width="0.25" height="7.54" transform="translate(734.34 503.84) rotate(-180)"/><rect class="cls-1" x="594.19" y="277.32" width="2.79" height="14.98"/><path class="cls-45" d="M698.14,274.53a7.46,7.46,0,0,0-9-10.91,7.46,7.46,0,0,0-13.91-1.54,7.46,7.46,0,0,0-8.1,12,7.47,7.47,0,0,0,6.72,13.06,11.88,11.88,0,0,0,15.9-.44,7.46,7.46,0,0,0,8.36-12.17Z" transform="translate(-86.01 -8.8)"/><path class="cls-46" d="M698.14,274.53a7.46,7.46,0,0,0-9-10.91,7.47,7.47,0,0,0-6.78-5.63v32a11.85,11.85,0,0,0,7.4-3.25,7.46,7.46,0,0,0,8.36-12.17Z" transform="translate(-86.01 -8.8)"/><rect class="cls-45" x="309.67" y="279.12" width="2.45" height="13.17"/><path class="cls-45" d="M411.45,277.74a6.56,6.56,0,0,0-7.89-9.59,6.56,6.56,0,0,0-12.22-1.36,6.56,6.56,0,0,0-7.11,10.55,6.56,6.56,0,0,0,5.91,11.47,10.44,10.44,0,0,0,14-.39,6.56,6.56,0,0,0,7.35-10.7Z" transform="translate(-86.01 -8.8)"/><path class="cls-46" d="M411.45,277.74a6.56,6.56,0,0,0-7.89-9.59,6.56,6.56,0,0,0-6-5v28.09a10.41,10.41,0,0,0,6.5-2.86,6.56,6.56,0,0,0,7.35-10.7Z" transform="translate(-86.01 -8.8)"/><rect class="cls-1" x="1186.49" y="265.6" width="2.33" height="18.49" transform="translate(639.85 -862.13) rotate(54.71)"/><rect class="cls-1" x="1183.77" y="252.56" width="2.33" height="25.15" transform="translate(630.78 -864.01) rotate(54.71)"/><rect class="cls-1" x="1174.72" y="244.16" width="2.33" height="25.15" transform="translate(620.1 -860.18) rotate(54.71)"/><rect class="cls-1" x="1171.22" y="257.86" width="2.33" height="25.32" transform="translate(46.94 867.72) rotate(-43.24)"/><rect class="cls-1" x="1093.42" y="269.6" width="2.33" height="22.81"/><rect class="cls-45" x="1066.97" y="244.73" width="29.62" height="9.52" rx="2.86" ry="2.86"/><rect class="cls-45" x="1098.21" y="246.63" width="20.02" height="4.97" rx="1.49" ry="1.49"/><rect class="cls-46" x="1092.48" y="254.99" width="28.18" height="8.6" rx="2.58" ry="2.58"/><rect class="cls-46" x="1079.49" y="233.89" width="32.51" height="9.2" rx="2.76" ry="2.76"/><rect class="cls-47" x="589.24" y="281.97" width="1.92" height="10.33"/><path class="cls-1" d="M687.62,282.78a5.14,5.14,0,0,0-6.19-7.52,87.54,87.54,0,0,1-11.34-1.37,5.15,5.15,0,0,0-3.83,8.59,5.15,5.15,0,0,0,4.64,9,8.19,8.19,0,0,0,11-.3,5.15,5.15,0,0,0,5.76-8.39Z" transform="translate(-86.01 -8.8)"/><path class="cls-45" d="M687.62,282.78a5.14,5.14,0,0,0-6.19-7.52,5.15,5.15,0,0,0-4.67-3.88v22a8.17,8.17,0,0,0,5.1-2.24,5.15,5.15,0,0,0,5.76-8.39Z" transform="translate(-86.01 -8.8)"/></svg>