<?xml version="1.0" encoding="utf-8"?>
<!-- Generator: Adobe Illustrator 20.1.0, SVG Export Plug-In . SVG Version: 6.00 Build 0)  -->
<svg version="1.1" id="Layer_1" xmlns="http://www.w3.org/2000/svg" xmlns:xlink="http://www.w3.org/1999/xlink" x="0px" y="0px"
	 viewBox="0 0 1280 600" style="enable-background:new 0 0 1280 600;" xml:space="preserve">
<style type="text/css">
	.st0{fill:#A2E8F9;}
	.st1{fill:none;stroke:#A2E8F9;stroke-linecap:square;stroke-linejoin:bevel;stroke-miterlimit:10;}
	.st2{fill:#B83230;}
	.st3{fill:#90151F;}
	.st4{fill:#B4ECFA;}
	.st5{fill:#DB233E;}
	.st6{fill:#A4E8F9;}
	.st7{fill:#F5A46C;}
	.st8{fill:#F3B6BF;}
	.st9{fill:#E66578;}
	.st10{fill:#EC8897;}
	.st11{fill:#DC2C46;}
	.st12{fill:#F49656;}
	.st13{fill:#E14B61;}
	.st14{fill:#E87082;}
	.st15{fill:#C2504E;}
	.st16{fill:#BA3836;}
	.st17{fill:#E7697C;}
	.st18{fill:#96212A;}
	.st19{fill:#8E101A;}
	.st20{fill:#BF4544;}
	.st21{fill:url(#SVGID_1_);}
	.st22{fill:#F2B2BB;}
	.st23{fill:url(#SVGID_2_);}
	.st24{fill:#E56174;}
	.st25{fill:url(#SVGID_3_);}
	.st26{fill:#BC3D3B;}
	.st27{fill:none;stroke:#FFFFFF;stroke-linecap:round;stroke-linejoin:round;}
	.st28{fill:none;stroke:#FFFFFF;stroke-linecap:round;stroke-linejoin:round;stroke-dasharray:6,8;}
	.st29{fill:#FC4C4C;}
	.st30{fill:#EE9AA6;}
	.st31{fill:#DE374F;}
	.st32{fill:#B42725;}
</style>
<g>
	<rect x="262.8" y="250.8" class="st0" width="6.9" height="150.8"/>
	<rect x="1010.4" y="250.8" class="st0" width="6.9" height="150.8"/>
	<rect x="1156.5" y="353.2" class="st0" width="13.8" height="48.3"/>
	<rect x="266.3" y="350.2" class="st0" width="748.9" height="6"/>
	<rect x="1011" y="351" class="st0" width="185" height="5"/>
	<polygon class="st0" points="1168.3,354 1163.2,354 1158.7,350.2 1016.1,253.8 1017.2,251 1163.8,350.3 	"/>
	
		<rect x="110.5" y="353.2" transform="matrix(-1 -5.890989e-11 5.890989e-11 -1 234.7504 754.7079)" class="st0" width="13.8" height="48.3"/>
	<rect x="85" y="351" class="st0" width="185" height="5"/>
	<polygon class="st0" points="111.8,353.2 116.8,353.2 121.3,349.8 263.9,253.6 262.8,250.9 116.3,349.9 	"/>
	<path class="st0" d="M268.9,250.7v3c0,0,246.8,95,395.9,92.9s254.2-38.8,258.9-40.7s49.9-18,86.8-52v-3.2c0,0-20.2,23.8-86.4,51.3
		S706.5,345.5,664.9,342C664.9,342,553.6,353.5,268.9,250.7z"/>
	<polyline class="st1" points="268.9,350.4 280.6,256.5 285.6,353.2 293.8,261.4 301.7,353.2 307,266 316.3,353.2 321.6,270.6 
		329.7,353.2 335.3,275.6 341.7,353.2 348.2,279.9 356.3,353.2 361.4,284.5 367.4,353.2 375,288.3 381.8,353.2 388.7,292.5 
		394.9,353.2 402.1,296.6 407.4,353.2 415.9,300.3 420,353.2 428.7,304.8 435.1,353.2 442.5,308.3 448.3,353.2 456.7,313.3 
		462.3,353.2 469.2,316.2 475.9,353.2 482.5,319.3 489.3,353.2 495.7,322.2 501.8,353.2 509.2,325 516.2,353.2 522.3,327.6 
		528.5,353.2 535.9,330.2 541.1,353.2 548.3,332.3 553.7,353.2 561.8,334.6 565.3,353.2 574.4,336.8 579.1,353.2 587.3,339.2 
		593.9,353.2 600.7,340.6 607.3,353.2 613.1,341.9 619.9,353.2 626,343.7 632.3,351.6 638.4,344 645.7,353.2 651.8,344.4 
		665.2,353.2 678.3,344.4 685.5,353.2 690.5,344 697.6,353.2 702.8,344.3 709,353.2 715.2,343.3 722.1,353.2 727.6,342.4 
		735.1,353.2 740.2,341.3 746.4,353.2 752.3,340.5 758.5,353.2 764.4,338.6 770.5,353.2 777,337 781.8,353.2 788.5,334.9 
		793.9,353.2 800.8,334 807.2,353.2 812.5,332.1 819.6,353.2 824.6,329.8 829.9,353.2 836.6,327.4 841.3,353.2 848.3,326.2 
		852.9,353.2 859.9,322.5 865.3,353.2 871.7,319.7 875.8,353.2 882.9,317.1 887.9,353.2 894.6,314.9 899.9,353.2 906.2,310.8 
		910.4,353.2 916.6,307.1 923,353.2 928.8,302.8 933.5,353.2 939.2,298 945.9,353.2 951,292.9 956.9,353.2 962,287 967.7,353.2 
		972.7,280.7 979.6,353.2 982.9,274.3 988.1,353.2 993.3,266.8 1000.6,353.2 1003.5,260 1009.9,353.2 	"/>
</g>
<g>
	<g>
		<rect x="140.4" y="237.5" class="st2" width="78.5" height="162.8"/>
		<rect x="140.4" y="204.4" class="st2" width="78.5" height="26.2"/>
		<rect x="140.4" y="181.7" class="st2" width="78.5" height="17.4"/>
		<polygon class="st3" points="218.9,204.4 140.4,204.4 136,199.1 223.2,199.1 		"/>
		<polygon class="st3" points="218.9,237.5 140.4,237.5 136,230.5 223.2,230.5 		"/>
		<rect x="136" y="180" class="st3" width="87.2" height="1.7"/>
		<polygon class="st4" points="218.9,204.4 140.4,204.4 139.7,203.5 219.6,203.5 		"/>
		<polygon class="st4" points="218.9,237.5 140.4,237.5 139.8,236.6 219.4,236.6 		"/>
		<rect x="156.8" y="151.4" class="st3" width="6.4" height="8.8"/>
		<rect x="197.3" y="151.4" class="st3" width="5.2" height="8.8"/>
		<rect x="156.8" y="150.5" class="st5" width="4" height="1.7"/>
		<rect x="198.5" y="150.5" class="st5" width="4" height="1.7"/>
		<polygon class="st2" points="179,101.5 210.2,180 149.1,180 		"/>
		<polygon class="st3" points="183.3,159.8 178.8,159.8 178.8,152.1 181.1,150.6 183.3,152.1 		"/>
		<polygon class="st5" points="181.1,151 182.6,152.4 184.1,152.4 181.1,149.7 178,152.4 179.5,152.4 		"/>
		<rect x="179.5" y="152.9" class="st6" width="3" height="6.1"/>
		<polygon class="st7" points="178.8,155.7 178.2,155.7 178,155.7 178,152.4 178.8,152.4 		"/>
		<polygon class="st7" points="178.8,159.8 178.3,155.7 178.8,155.7 		"/>
		<circle class="st7" cx="179.1" cy="99.4" r="2.5"/>
		<polygon class="st7" points="181.1,93.7 177.2,93.7 178,86.1 180.3,86.1 		"/>
		<polygon class="st7" points="181.1,93.7 177.2,93.7 178.4,95.4 179.9,95.4 		"/>
		<rect x="178.9" y="95.4" class="st7" width="0.5" height="1.8"/>
		<rect x="178.7" y="73.8" class="st7" width="0.9" height="12.5"/>
		<circle class="st7" cx="179.1" cy="84.4" r="1"/>
		<circle class="st7" cx="179.1" cy="82.4" r="0.7"/>
		<g>
			<path class="st6" d="M193.3,250.1v-3.6c0-1.3,0.6-2.4,1.5-2.4s1.5,1.1,1.5,2.4v3.6H193.3z"/>
			<path class="st6" d="M208.4,250.1v-3.6c0-1.3,0.6-2.4,1.5-2.4s1.5,1.1,1.5,2.4v3.6H208.4z"/>
			<path class="st6" d="M191.9,269.4v-6.1c0-2.3,1.1-4.1,2.8-4.1c1.7,0,2.8,1.9,2.8,4.1v6.1H191.9z"/>
			<path class="st6" d="M162,269.4v-6.1c0-2.3,1.1-4.1,2.8-4.1c1.7,0,2.8,1.9,2.8,4.1v6.1H162z"/>
			<path class="st6" d="M178.2,250.1v-3.6c0-1.3,0.6-2.4,1.5-2.4s1.5,1.1,1.5,2.4v3.6H178.2z"/>
			<path class="st6" d="M163.1,250.1v-3.6c0-1.3,0.6-2.4,1.5-2.4s1.5,1.1,1.5,2.4v3.6H163.1z"/>
			<path class="st6" d="M148,250.1v-3.6c0-1.3,0.6-2.4,1.5-2.4s1.5,1.1,1.5,2.4v3.6H148z"/>
		</g>
		<g>
			<path class="st3" d="M164.8,227.4v-13.5c0-3.6,2.6-6.4,6.1-6.4s6.1,2.9,6.1,6.4v13.5H164.8z"/>
			<path class="st6" d="M173.9,226.7H168v-9.7c0-1.6,1.3-3,3-3h0c1.6,0,3,1.3,3,3V226.7z"/>
		</g>
		<g>
			<path class="st3" d="M147.4,227.4v-13.5c0-3.6,2.6-6.4,6.1-6.4s6.1,2.9,6.1,6.4v13.5H147.4z"/>
			<path class="st6" d="M156.4,226.9h-5.9v-9.7c0-1.6,1.3-3,3-3h0c1.6,0,3,1.3,3,3V226.9z"/>
		</g>
		<g>
			<path class="st3" d="M140.4,209.3v18.1h1.8v-13.5C142.2,212.1,141.5,210.5,140.4,209.3z"/>
		</g>
		<g>
			<path class="st3" d="M182.2,227.4v-13.5c0-3.6,2.6-6.4,6.1-6.4s6.1,2.9,6.1,6.4v13.5H182.2z"/>
			<path class="st6" d="M191.3,226.7h-5.9v-9.7c0-1.6,1.3-3,3-3h0c1.6,0,3,1.3,3,3V226.7z"/>
		</g>
		<g>
			<path class="st3" d="M199.7,227.4v-13.5c0-3.6,2.6-6.4,6.1-6.4s6.1,2.9,6.1,6.4v13.5H199.7z"/>
			<path class="st6" d="M208.7,226.7h-5.9v-9.7c0-1.6,1.3-3,3-3l0,0c1.6,0,3,1.3,3,3V226.7z"/>
		</g>
		<g>
			<path class="st3" d="M218.9,209.4c-1.1,1.2-1.7,2.8-1.7,4.5v13.5h1.7V209.4z"/>
		</g>
		<path class="st6" d="M176.7,195.5v-6.1c0-2.3,1.1-4.1,2.8-4.1c1.7,0,2.8,1.9,2.8,4.1v6.1H176.7z"/>
		<path class="st6" d="M191.3,195.5v-6.1c0-2.3,1.1-4.1,2.8-4.1c1.7,0,2.8,1.9,2.8,4.1v6.1H191.3z"/>
		<path class="st6" d="M205.6,195.5v-6.1c0-2.3,1.1-4.1,2.8-4.1c1.7,0,2.8,1.9,2.8,4.1v6.1H205.6z"/>
		<path class="st6" d="M148,195.5v-6.1c0-2.3,1.1-4.1,2.8-4.1c1.7,0,2.8,1.9,2.8,4.1v6.1H148z"/>
		<path class="st6" d="M162.3,195.5v-6.1c0-2.3,1.1-4.1,2.8-4.1c1.7,0,2.8,1.9,2.8,4.1v6.1H162.3z"/>
	</g>
	<rect x="176.1" y="264.3" class="st8" width="4.2" height="1"/>
	<rect x="178.9" y="292.4" class="st8" width="4.2" height="1"/>
	<rect x="181" y="293.8" class="st8" width="4.2" height="1"/>
	<rect x="152.7" y="308.1" class="st8" width="4.2" height="1"/>
	<rect x="154.8" y="309.5" class="st8" width="4.2" height="1"/>
	<rect x="204.7" y="285.7" class="st8" width="4.2" height="1"/>
	<rect x="165.2" y="335.7" class="st8" width="4.2" height="1"/>
	<rect x="169.6" y="335.7" class="st8" width="4.2" height="1"/>
	<rect x="167.5" y="334.5" class="st8" width="4.2" height="1"/>
	<rect x="157.6" y="363.6" class="st8" width="4.2" height="1"/>
	<rect x="162" y="363.6" class="st8" width="4.2" height="1"/>
	<rect x="140.4" y="279.9" class="st8" width="3.9" height="1"/>
	<rect x="144.5" y="279.9" class="st8" width="4.2" height="1"/>
	<rect x="210.5" y="383.7" class="st8" width="4.2" height="1"/>
	<rect x="212.9" y="382.5" class="st8" width="4.2" height="1"/>
	<rect x="193.8" y="354" class="st8" width="4.2" height="1"/>
	<rect x="191.7" y="352.7" class="st8" width="4.2" height="1"/>
	<rect x="202.6" y="330" class="st8" width="4.2" height="1"/>
	<rect x="196.2" y="310.1" class="st8" width="4.2" height="1"/>
	<rect x="198.3" y="311.5" class="st8" width="4.2" height="1"/>
	<rect x="185.7" y="168.9" class="st8" width="4.2" height="1"/>
	<rect x="163.6" y="147.2" class="st8" width="4.2" height="1"/>
	<rect x="187.8" y="170.3" class="st8" width="4.2" height="1"/>
	<rect x="182.2" y="125.2" class="st8" width="4.2" height="1"/>
	<rect x="184.3" y="126.6" class="st8" width="4.2" height="1"/>
</g>
<g>
	<rect x="314.1" y="276.3" class="st6" width="1.7" height="31"/>
	<rect x="253.1" y="313.5" class="st9" width="124" height="87.2"/>
	<rect x="211.4" y="261.1" class="st10" width="11.3" height="139.5"/>
	<rect x="241.9" y="261.1" class="st11" width="11.3" height="139.5"/>
	<rect x="222.7" y="261.1" class="st9" width="19.2" height="139.5"/>
	<rect x="209.7" y="311.7" class="st7" width="45.4" height="1.7"/>
	<polygon class="st2" points="211.4,260.9 232.3,206.9 222.7,260.9 	"/>
	<polygon class="st4" points="253.3,260.9 232.3,206.9 241.9,260.9 	"/>
	<polygon class="st3" points="222.7,260.9 241.9,260.9 232.3,206.9 	"/>
	<rect x="209.7" y="260.8" class="st7" width="45.4" height="1.7"/>
	<path class="st6" d="M230.2,273.5v-4.1c0-1.5,0.8-2.8,2.2-2.8s2.2,1.2,2.2,2.8v4.1H230.2z"/>
	<path class="st6" d="M245.9,273.5v-4.1c0-1.5,0.8-2.8,2.2-2.8s2.2,1.2,2.2,2.8v4.1H245.9z"/>
	<g>
		<rect x="209.6" y="277.4" class="st7" width="45.4" height="3.5"/>
		<path class="st10" d="M216,280.9v0.1h-2v-0.1c0-0.9,0.2-1.7,1-1.7C215.8,279.1,216,279.9,216,280.9z"/>
		<path class="st10" d="M222,280.9v0.1h-2v-0.1c0-0.9,0.2-1.7,1-1.7C221.8,279.1,222,279.9,222,280.9z"/>
		<path class="st9" d="M228,280.9v0.1h-3v-0.1c0-0.9,0.7-1.7,1.5-1.7C227.3,279.1,228,279.9,228,280.9z"/>
		<path class="st9" d="M234,280.9v0.1h-3v-0.1c0-0.9,0.7-1.7,1.5-1.7C233.3,279.1,234,279.9,234,280.9z"/>
		<path class="st9" d="M240,280.9v0.1h-3v-0.1c0-0.9,0.7-1.7,1.5-1.7C239.3,279.1,240,279.9,240,280.9z"/>
		<path class="st11" d="M246,280.9v0.1h-3v-0.1c0-0.9,0.7-1.7,1.5-1.7C245.3,279.1,246,279.9,246,280.9z"/>
		<path class="st11" d="M252,280.9v0.1h-3v-0.1c0-0.9,0.7-1.7,1.5-1.7C251.3,279.1,252,279.9,252,280.9z"/>
	</g>
	<path class="st6" d="M214.5,273.5v-4.1c0-1.5,0.8-2.8,2.2-2.8c1.3,0,2.2,1.2,2.2,2.8v4.1H214.5z"/>
	<rect x="248.4" y="293" class="st6" width="0.6" height="5.1"/>
	<rect x="232" y="293" class="st6" width="0.6" height="5.1"/>
	<rect x="216.5" y="293" class="st6" width="0.6" height="5.1"/>
	<rect x="248.4" y="327.9" class="st6" width="0.6" height="5.1"/>
	<rect x="232" y="327.9" class="st6" width="0.6" height="5.1"/>
	<rect x="216.5" y="327.9" class="st6" width="0.6" height="5.1"/>
	<rect x="248.4" y="352.3" class="st6" width="0.6" height="5.1"/>
	<rect x="232" y="352.3" class="st6" width="0.6" height="5.1"/>
	<rect x="216.5" y="352.3" class="st6" width="0.6" height="5.1"/>
	<rect x="248.4" y="376.7" class="st6" width="0.6" height="5.1"/>
	<rect x="232" y="376.7" class="st6" width="0.6" height="5.1"/>
	<rect x="216.5" y="376.7" class="st6" width="0.6" height="5.1"/>
	<g>
		<rect x="253.1" y="300.6" class="st10" width="1.7" height="10.5"/>
		<rect x="258.9" y="300.6" class="st10" width="8.7" height="10.5"/>
		<rect x="271.8" y="300.6" class="st10" width="8.7" height="10.5"/>
		<rect x="284.8" y="300.6" class="st10" width="8.7" height="10.5"/>
		<rect x="297.7" y="300.6" class="st10" width="8.7" height="10.5"/>
		<rect x="310.6" y="300.6" class="st10" width="8.7" height="10.5"/>
		<rect x="323.6" y="300.6" class="st10" width="8.7" height="10.5"/>
		<rect x="336.5" y="300.6" class="st10" width="8.7" height="10.5"/>
		<rect x="349.5" y="300.6" class="st10" width="8.7" height="10.5"/>
		<rect x="362.4" y="300.6" class="st10" width="8.7" height="10.5"/>
		<rect x="375.4" y="300.6" class="st10" width="1.7" height="10.5"/>
	</g>
	<g>
		<rect x="258.9" y="299.1" class="st10" width="0.5" height="1.5"/>
		<rect x="254.4" y="299.1" class="st10" width="0.5" height="1.5"/>
		<rect x="267.1" y="299.1" class="st10" width="0.5" height="1.5"/>
		<rect x="271.8" y="299.1" class="st10" width="0.5" height="1.5"/>
		<rect x="280.1" y="299.1" class="st10" width="0.5" height="1.5"/>
		<rect x="284.8" y="299.1" class="st10" width="0.5" height="1.5"/>
		<rect x="293" y="299.1" class="st10" width="0.5" height="1.5"/>
		<rect x="297.7" y="299.1" class="st10" width="0.5" height="1.5"/>
		<rect x="306" y="299.1" class="st10" width="0.5" height="1.5"/>
		<rect x="310.6" y="299.1" class="st10" width="0.5" height="1.5"/>
		<rect x="318.9" y="299.1" class="st10" width="0.5" height="1.5"/>
		<rect x="323.6" y="299.1" class="st10" width="0.5" height="1.5"/>
		<rect x="331.9" y="299.1" class="st10" width="0.5" height="1.5"/>
		<rect x="336.5" y="299.1" class="st10" width="0.5" height="1.5"/>
		<rect x="344.8" y="299.1" class="st10" width="0.5" height="1.5"/>
		<rect x="349.5" y="299.1" class="st10" width="0.5" height="1.5"/>
		<rect x="357.7" y="299.1" class="st10" width="0.5" height="1.5"/>
		<rect x="362.4" y="299.1" class="st10" width="0.5" height="1.5"/>
		<rect x="370.7" y="299.1" class="st10" width="0.5" height="1.5"/>
		<rect x="375.4" y="299.1" class="st10" width="0.5" height="1.5"/>
	</g>
	<g>
		<rect x="253.3" y="310.8" class="st7" width="45.5" height="4.9"/>
		<path class="st9" d="M257.9,316L257.9,316l-2.8,0.1V316c0-1.4,0.5-2.6,1.4-2.6C257.4,313.5,257.9,314.6,257.9,316z"/>
		<path class="st9" d="M264.4,316L264.4,316l-2.8,0.1V316c0-1.4,0.5-2.6,1.4-2.6C263.9,313.5,264.4,314.6,264.4,316z"/>
		<path class="st9" d="M270.9,316L270.9,316l-2.8,0.1V316c0-1.4,0.5-2.6,1.4-2.6C270.4,313.5,270.9,314.6,270.9,316z"/>
		<path class="st9" d="M277.4,316L277.4,316l-2.8,0.1V316c0-1.4,0.5-2.6,1.4-2.6C276.9,313.5,277.4,314.6,277.4,316z"/>
		<path class="st9" d="M283.9,316L283.9,316l-2.8,0.1V316c0-1.4,0.5-2.6,1.4-2.6C283.4,313.5,283.9,314.6,283.9,316z"/>
		<path class="st9" d="M290.4,316L290.4,316l-2.8,0.1V316c0-1.4,0.5-2.6,1.4-2.6C289.9,313.5,290.4,314.6,290.4,316z"/>
		<path class="st9" d="M296.9,316L296.9,316l-2.8,0.1V316c0-1.4,0.5-2.6,1.4-2.6C296.3,313.5,296.9,314.6,296.9,316z"/>
	</g>
	<g>
		<rect x="298.7" y="310.9" class="st7" width="45.5" height="4.9"/>
		<path class="st9" d="M303.4,316L303.4,316l-2.8,0.1V316c0-1.4,0.5-2.6,1.4-2.6C302.9,313.5,303.4,314.6,303.4,316z"/>
		<path class="st9" d="M309.9,316L309.9,316l-2.8,0.1V316c0-1.4,0.5-2.6,1.4-2.6C309.4,313.5,309.9,314.6,309.9,316z"/>
		<path class="st9" d="M316.4,316L316.4,316l-2.8,0.1V316c0-1.4,0.5-2.6,1.4-2.6C315.9,313.5,316.4,314.6,316.4,316z"/>
		<path class="st9" d="M322.9,316L322.9,316l-2.8,0.1V316c0-1.4,0.5-2.6,1.4-2.6C322.4,313.5,322.9,314.6,322.9,316z"/>
		<path class="st9" d="M329.4,316L329.4,316l-2.8,0.1V316c0-1.4,0.5-2.6,1.4-2.6C328.9,313.5,329.4,314.6,329.4,316z"/>
		<path class="st9" d="M335.9,316L335.9,316l-2.8,0.1V316c0-1.4,0.5-2.6,1.4-2.6C335.3,313.5,335.9,314.6,335.9,316z"/>
		<path class="st9" d="M342.4,316L342.4,316l-2.8,0.1V316c0-1.4,0.5-2.6,1.4-2.6C341.8,313.5,342.4,314.6,342.4,316z"/>
	</g>
	<g>
		<rect x="344.1" y="310.9" class="st7" width="33" height="4.9"/>
		<path class="st9" d="M348.8,316L348.8,316l-2.8,0.1V316c0-1.4,0.5-2.6,1.4-2.6C348.3,313.5,348.8,314.6,348.8,316z"/>
		<path class="st9" d="M355.3,316L355.3,316l-2.8,0.1V316c0-1.4,0.5-2.6,1.4-2.6C354.8,313.5,355.3,314.6,355.3,316z"/>
		<path class="st9" d="M361.8,316L361.8,316l-2.8,0.1V316c0-1.4,0.5-2.6,1.4-2.6C361.3,313.5,361.8,314.6,361.8,316z"/>
		<path class="st9" d="M368.3,316L368.3,316l-2.8,0.1V316c0-1.4,0.5-2.6,1.4-2.6C367.7,313.5,368.3,314.6,368.3,316z"/>
		<path class="st9" d="M374.8,316L374.8,316l-2.8,0.1V316c0-1.4,0.5-2.6,1.4-2.6C374.2,313.5,374.8,314.6,374.8,316z"/>
	</g>
	<rect x="263.1" y="305.1" class="st6" width="0.6" height="4.4"/>
	<rect x="289" y="305.1" class="st6" width="0.6" height="4.4"/>
	<rect x="314.8" y="305.1" class="st6" width="0.6" height="4.4"/>
	<rect x="340.7" y="305.1" class="st6" width="0.6" height="4.4"/>
	<rect x="366.7" y="305.1" class="st6" width="0.6" height="4.4"/>
	<rect x="316" y="276.3" class="st12" width="10.6" height="7.5"/>
	<path class="st4" d="M344.8,400.7v-39.6c0-16.4-13.4-29.8-29.8-29.8c-16.4,0-29.8,13.4-29.8,29.8v39.6H344.8z"/>
	<path class="st5" d="M328.9,400.7v-0.9v-0.1v-30.6c0-6.7-5.7-11.5-12.4-11.5h-3.1c-6.7,0-12.4,4.7-12.4,11.5v30.5v1.1H328.9z"/>
	<path class="st7" d="M325.4,400.7c0,0,0-0.1,0-0.1v-30.5c0-4.8-3.9-8.7-8.7-8.7h-3.1c-4.8,0-8.7,3.9-8.7,8.7v30.5c0,0,0,0.1,0,0.1
		H325.4z"/>
	<g>
		<rect x="291.1" y="369.1" class="st10" width="7.8" height="12.9"/>
		<rect x="330.9" y="369.1" class="st10" width="7.8" height="12.9"/>
	</g>
	<rect x="301" y="343.8" class="st10" width="27.8" height="8.7"/>
	<ellipse class="st10" cx="315.1" cy="357.4" rx="4.6" ry="3.2"/>
	<rect x="212.4" y="286.8" class="st8" width="4.2" height="1"/>
	<rect x="226.4" y="301.5" class="st8" width="4.2" height="1"/>
	<rect x="228.5" y="302.9" class="st8" width="4.2" height="1"/>
	<rect x="236.3" y="295.4" class="st8" width="4.2" height="1"/>
	<rect x="244" y="337.3" class="st8" width="4.2" height="1"/>
	<rect x="248.4" y="337.3" class="st8" width="4.2" height="1"/>
	<rect x="246.3" y="336" class="st8" width="4.2" height="1"/>
	<rect x="225.2" y="362" class="st8" width="4.2" height="1"/>
	<rect x="229.6" y="362" class="st8" width="4.2" height="1"/>
	<rect x="227.6" y="360.7" class="st8" width="4.2" height="1"/>
	<rect x="244.1" y="389.4" class="st8" width="4.2" height="1"/>
	<rect x="248.5" y="389.4" class="st8" width="4.2" height="1"/>
	<rect x="246.5" y="388.2" class="st8" width="4.2" height="1"/>
	<rect x="236.1" y="340.4" class="st8" width="4.2" height="1"/>
	<rect x="234" y="339.2" class="st8" width="4.2" height="1"/>
	<rect x="234" y="326.2" class="st8" width="4.2" height="1"/>
	<rect x="224.6" y="317" class="st8" width="4.2" height="1"/>
	<rect x="225.5" y="318.4" class="st8" width="4.2" height="1"/>
	<rect x="377.1" y="261.1" class="st10" width="11.3" height="139.5"/>
	<rect x="407.6" y="261.1" class="st11" width="11.3" height="139.5"/>
	<rect x="388.5" y="261.1" class="st9" width="19.2" height="139.5"/>
	<rect x="375.4" y="311.7" class="st7" width="45.4" height="1.7"/>
	<polygon class="st2" points="377.1,260.9 398,206.9 388.5,260.9 	"/>
	<polygon class="st4" points="419,260.9 398,206.9 407.6,260.9 	"/>
	<polygon class="st3" points="388.5,260.9 407.6,260.9 398,206.9 	"/>
	<rect x="375.4" y="260.8" class="st7" width="45.4" height="1.7"/>
	<path class="st6" d="M395.9,273.5v-4.1c0-1.5,0.8-2.8,2.2-2.8c1.3,0,2.2,1.2,2.2,2.8v4.1H395.9z"/>
	<path class="st6" d="M411.6,273.5v-4.1c0-1.5,0.8-2.8,2.2-2.8s2.2,1.2,2.2,2.8v4.1H411.6z"/>
	<g>
		<rect x="375.4" y="277.4" class="st7" width="45.4" height="3.5"/>
		<path class="st10" d="M382,280.9v0.1h-3v-0.1c0-0.9,0.7-1.7,1.5-1.7C381.3,279.1,382,279.9,382,280.9z"/>
		<path class="st10" d="M388,280.9v0.1h-3v-0.1c0-0.9,0.7-1.7,1.5-1.7C387.3,279.1,388,279.9,388,280.9z"/>
		<path class="st9" d="M394,280.9v0.1h-3v-0.1c0-0.9,0.7-1.7,1.5-1.7C393.3,279.1,394,279.9,394,280.9z"/>
		<path class="st9" d="M400,280.9v0.1h-3v-0.1c0-0.9,0.7-1.7,1.5-1.7C399.3,279.1,400,279.9,400,280.9z"/>
		<path class="st9" d="M405,280.9v0.1h-2v-0.1c0-0.9,0.2-1.7,1-1.7C404.8,279.1,405,279.9,405,280.9z"/>
		<path class="st11" d="M411,280.9v0.1h-2v-0.1c0-0.9,0.2-1.7,1-1.7C410.8,279.1,411,279.9,411,280.9z"/>
		<path class="st11" d="M417,280.9v0.1h-2v-0.1c0-0.9,0.2-1.7,1-1.7C416.8,279.1,417,279.9,417,280.9z"/>
	</g>
	<path class="st6" d="M380.2,273.5v-4.1c0-1.5,0.8-2.8,2.2-2.8c1.3,0,2.2,1.2,2.2,2.8v4.1H380.2z"/>
	<rect x="414.1" y="293" class="st6" width="0.6" height="5.1"/>
	<rect x="397.7" y="293" class="st6" width="0.6" height="5.1"/>
	<rect x="382.2" y="293" class="st6" width="0.6" height="5.1"/>
	<rect x="414.1" y="327.9" class="st6" width="0.6" height="5.1"/>
	<rect x="397.7" y="327.9" class="st6" width="0.6" height="5.1"/>
	<rect x="382.2" y="327.9" class="st6" width="0.6" height="5.1"/>
	<rect x="414.1" y="352.3" class="st6" width="0.6" height="5.1"/>
	<rect x="397.7" y="352.3" class="st6" width="0.6" height="5.1"/>
	<rect x="382.2" y="352.3" class="st6" width="0.6" height="5.1"/>
	<rect x="414.1" y="376.7" class="st6" width="0.6" height="5.1"/>
	<rect x="397.7" y="376.7" class="st6" width="0.6" height="5.1"/>
	<rect x="382.2" y="376.7" class="st6" width="0.6" height="5.1"/>
	<rect x="378.1" y="286.8" class="st8" width="4.2" height="1"/>
	<rect x="392.2" y="301.5" class="st8" width="4.2" height="1"/>
	<rect x="394.2" y="302.9" class="st8" width="4.2" height="1"/>
	<rect x="402" y="295.4" class="st8" width="4.2" height="1"/>
	<rect x="378.5" y="323.9" class="st8" width="4.2" height="1"/>
	<rect x="382.9" y="323.9" class="st8" width="4.2" height="1"/>
	<rect x="380.8" y="322.7" class="st8" width="4.2" height="1"/>
	<rect x="391" y="362" class="st8" width="4.2" height="1"/>
	<rect x="395.4" y="362" class="st8" width="4.2" height="1"/>
	<rect x="409.9" y="389.4" class="st8" width="4.2" height="1"/>
	<rect x="412.2" y="388.2" class="st8" width="4.2" height="1"/>
	<rect x="401.8" y="340.4" class="st8" width="4.2" height="1"/>
	<rect x="399.7" y="339.2" class="st8" width="4.2" height="1"/>
	<rect x="399.7" y="326.2" class="st8" width="4.2" height="1"/>
	<rect x="409.5" y="315.8" class="st8" width="4.2" height="1"/>
	<rect x="410.3" y="317.2" class="st8" width="4.2" height="1"/>
</g>
<g>
	<g>
		<path class="st4" d="M720.1,312.4C720.1,312.3,720.1,312.3,720.1,312.4c0-6.3-10.8-11.3-24.1-11.3s-24.1,5-24.1,11.2
			c0,0,0,0.1,0,0.1H720.1z"/>
		<rect x="670" y="312.4" class="st5" width="48.1" height="18.1"/>
		<rect x="670" y="312.4" class="st3" width="33.9" height="2.6"/>
	</g>
	<g>
		<polygon class="st5" points="890.3,293.5 890.3,293.5 890.3,210.4 894.3,185.5 894.3,176.3 896.3,176.3 896.3,185.5 900.3,210.4 
			900.3,293.5 		"/>
		<polygon class="st5" points="900.3,293.5 890.3,293.5 885.5,321.2 905,321.2 		"/>
		
			<rect x="885.5" y="321.2" transform="matrix(-1 -4.509916e-11 4.509916e-11 -1 1790.4927 669.5372)" class="st5" width="19.6" height="27.1"/>
		
			<rect x="885" y="320.4" transform="matrix(-1 -4.479718e-11 4.479718e-11 -1 1790.4927 641.6641)" class="st3" width="20.5" height="0.9"/>
		
			<rect x="889.9" y="290.6" transform="matrix(-1 -4.478607e-11 4.478607e-11 -1 1790.4927 582.1425)" class="st3" width="10.7" height="0.9"/>
		
			<rect x="889.9" y="243.4" transform="matrix(-1 -4.461554e-11 4.461554e-11 -1 1790.4927 487.7675)" class="st3" width="10.7" height="0.9"/>
		
			<rect x="889.9" y="210.4" transform="matrix(-1 -4.478607e-11 4.478607e-11 -1 1790.4927 421.7207)" class="st6" width="10.7" height="0.9"/>
		
			<rect x="889.9" y="233.2" transform="matrix(-1 -4.478607e-11 4.478607e-11 -1 1790.4927 471.5757)" class="st3" width="10.7" height="5.2"/>
		<polygon class="st6" points="894.3,185.5 896.3,185.5 900.3,210.4 890.3,210.4 		"/>
	</g>
	<g>
		<polygon class="st2" points="867.5,297.4 867.5,297.3 867.5,214.3 871.5,189.4 871.5,180.2 873.5,180.2 873.5,189.4 877.4,214.3 
			877.4,297.3 		"/>
		<polygon class="st2" points="877.4,297.3 867.5,297.3 862.6,325.1 882.2,325.1 		"/>
		
			<rect x="862.6" y="325.1" transform="matrix(-1 -4.509916e-11 4.509916e-11 -1 1744.8278 677.257)" class="st2" width="19.6" height="27.1"/>
		
			<rect x="862.2" y="324.2" transform="matrix(-1 -4.497481e-11 4.497481e-11 -1 1744.8278 649.3839)" class="st4" width="20.5" height="0.9"/>
		
			<rect x="867.1" y="294.5" transform="matrix(-1 -4.478607e-11 4.478607e-11 -1 1744.8278 589.8624)" class="st4" width="10.7" height="0.9"/>
		
			<rect x="867.1" y="247.3" transform="matrix(-1 -4.487178e-11 4.487178e-11 -1 1744.8278 495.4873)" class="st4" width="10.7" height="0.9"/>
		
			<rect x="867.1" y="214.3" transform="matrix(-1 -4.487178e-11 4.487178e-11 -1 1744.8278 429.4405)" class="st4" width="10.7" height="0.9"/>
		
			<rect x="867.1" y="237" transform="matrix(-1 -4.478607e-11 4.478607e-11 -1 1744.8278 479.2954)" class="st4" width="10.7" height="5.2"/>
		<polygon class="st12" points="871.5,189.4 873.5,189.4 877.4,214.3 867.5,214.3 		"/>
	</g>
	<g>
		<path class="st4" d="M806.9,312.4C806.9,312.3,806.9,312.3,806.9,312.4c0-6.3,10.8-11.3,24.1-11.3c13.3,0,24.1,5,24.1,11.2
			c0,0,0,0.1,0,0.1H806.9z"/>
		
			<rect x="808.8" y="312.4" transform="matrix(-1 -4.487045e-11 4.487045e-11 -1 1665.7986 642.8207)" class="st5" width="48.1" height="18.1"/>
		
			<rect x="823" y="312.4" transform="matrix(-1 -4.484647e-11 4.484647e-11 -1 1679.9692 627.3093)" class="st3" width="33.9" height="2.6"/>
	</g>
	<polygon class="st2" points="763.5,341.6 709.5,341.6 709.5,353.2 763.5,353.2 817.5,353.2 817.5,341.6 	"/>
	<polygon class="st10" points="762.1,356 598,356 598,400 762.1,400 926,400 926,356 	"/>
	<path class="st5" d="M767.4,245.1c0.2-1.9-1.1-3.4-1.5-3.9c-0.9-1-1.8-1.5-2.4-1.7c-0.6,0.2-1.6,0.7-2.6,1.8
		c-0.4,0.5-1.9,1.9-1.8,3.7c0.1,1.9,2.9,3.7,3.9,4.3v0.7h0.6h-0.1h0.1H763v-0.7C765,248.7,767.2,247,767.4,245.1z"/>
	<rect x="638.7" y="337.6" class="st3" width="251.1" height="10.2"/>
	<polyline class="st2" points="612.4,347 597.5,353.4 597.5,357.3 629.2,357.3 629.2,347 612.4,347 	"/>
	<polygon class="st5" points="762.6,228.2 762.6,228.2 762.6,241.4 764.3,241.4 764.3,228.2 764.3,228.2 	"/>
	<path class="st4" d="M763.7,243.8c-0.1,0-0.1,0-0.2,0c-0.1,0-0.1,0-0.2,0c-26.3,0-47.6,19.6-47.6,43.9c0,0.1,0,0.3,0,0.3h47.8h0
		h47.8c0,0,0-0.2,0-0.3C811.3,263.5,790,243.8,763.7,243.8z"/>
	<polygon class="st10" points="763.5,288.9 709.5,288.9 709.5,332.8 763.5,332.8 817.5,332.8 817.5,288.9 	"/>
	<path class="st4" d="M763.5,303.8C763.5,303.8,763.5,303.8,763.5,303.8C763.5,303.8,763.5,303.8,763.5,303.8
		c-24,0-43.5,10.6-44.1,22.9h44.1h44.1C807,314.4,787.5,303.8,763.5,303.8z"/>
	<polygon class="st2" points="897.8,357.3 897.8,348.8 911.3,348.8 912.7,348.8 912.7,347 925.9,353.4 925.9,357.3 	"/>
	<polygon class="st2" points="765.8,347 618.7,347 618.7,357.3 765.8,357.3 912.8,357.3 912.8,347 	"/>
	<polygon class="st2" points="701.7,328 655,328 655,339 701.7,339 748,339 748,328 	"/>
	<polygon class="st3" points="763.5,286 709,286 709,290 763.5,290 818,290 818,286 	"/>
	<polygon class="st2" points="825.3,328 872,328 872,339 825.3,339 779,339 779,328 	"/>
	<polygon class="st10" points="763.5,329.5 709.5,329.5 709.5,341.6 763.5,341.6 817.5,341.6 817.5,329.5 	"/>
	<polygon class="st5" points="762.6,228.2 763.5,225.4 764.3,228.2 	"/>
	<path class="st13" d="M721.1,338.9v-3.6c0-1.3,0.7-2.4,1.9-2.4s1.9,1.1,1.9,2.4v3.6H721.1z"/>
	<path class="st13" d="M734.5,338.9v-3.6c0-1.3,0.7-2.4,1.9-2.4c1.2,0,1.9,1.1,1.9,2.4v3.6H734.5z"/>
	<path class="st13" d="M748.1,338.9v-3.6c0-1.3,0.7-2.4,1.9-2.4c1.2,0,1.9,1.1,1.9,2.4v3.6H748.1z"/>
	<path class="st13" d="M761.6,338.9v-3.6c0-1.3,0.7-2.4,1.9-2.4c1.2,0,1.9,1.1,1.9,2.4v3.6H761.6z"/>
	<path class="st13" d="M775.1,338.9v-3.6c0-1.3,0.7-2.4,1.9-2.4s1.9,1.1,1.9,2.4v3.6H775.1z"/>
	<path class="st13" d="M788.6,338.9v-3.6c0-1.3,0.7-2.4,1.9-2.4s1.9,1.1,1.9,2.4v3.6H788.6z"/>
	<path class="st13" d="M802.1,338.9v-3.6c0-1.3,0.7-2.4,1.9-2.4c1.2,0,1.9,1.1,1.9,2.4v3.6H802.1z"/>
	<path class="st13" d="M721.1,300.2v-5.3c0-2,0.7-3.6,1.9-3.6s1.9,1.6,1.9,3.6v5.3H721.1z"/>
	<path class="st13" d="M734.5,300.2v-5.3c0-2,0.7-3.6,1.9-3.6c1.2,0,1.9,1.6,1.9,3.6v5.3H734.5z"/>
	<path class="st13" d="M748.1,300.2v-5.3c0-2,0.7-3.6,1.9-3.6c1.2,0,1.9,1.6,1.9,3.6v5.3H748.1z"/>
	<path class="st13" d="M761.6,300.2v-5.3c0-2,0.7-3.6,1.9-3.6c1.2,0,1.9,1.6,1.9,3.6v5.3H761.6z"/>
	<path class="st13" d="M775.1,300.2v-5.3c0-2,0.7-3.6,1.9-3.6s1.9,1.6,1.9,3.6v5.3H775.1z"/>
	<path class="st13" d="M788.6,300.2v-5.3c0-2,0.7-3.6,1.9-3.6s1.9,1.6,1.9,3.6v5.3H788.6z"/>
	<path class="st13" d="M802.1,300.2v-5.3c0-2,0.7-3.6,1.9-3.6c1.2,0,1.9,1.6,1.9,3.6v5.3H802.1z"/>
	<polygon class="st3" points="763.5,299 709,299 709,304 763.5,304 818,304 818,299 	"/>
	<g>
		<polygon class="st2" points="659.5,297.4 659.5,297.3 659.5,214.3 655.5,189.4 655.5,180.2 653.5,180.2 653.5,189.4 649.6,214.3 
			649.6,297.3 		"/>
		<polygon class="st2" points="649.6,297.3 659.5,297.3 664.4,325.1 644.8,325.1 		"/>
		<rect x="644.8" y="325.1" class="st2" width="19.6" height="27.1"/>
		<rect x="644.3" y="324.2" class="st4" width="20.5" height="0.9"/>
		<rect x="649.2" y="294.5" class="st4" width="10.7" height="0.9"/>
		<rect x="649.2" y="247.3" class="st4" width="10.7" height="0.9"/>
		<rect x="649.2" y="214.3" class="st4" width="10.7" height="0.9"/>
		<rect x="649.2" y="237" class="st4" width="10.7" height="5.2"/>
		<polygon class="st12" points="655.5,189.4 653.5,189.4 649.6,214.3 659.5,214.3 		"/>
	</g>
	<g>
		<polygon class="st5" points="636.7,293.5 636.6,293.5 636.6,210.4 632.7,185.5 632.7,176.3 630.7,176.3 630.7,185.5 626.7,210.4 
			626.7,293.5 		"/>
		<polygon class="st5" points="626.7,293.5 636.6,293.5 641.5,321.2 622,321.2 		"/>
		<rect x="622" y="321.2" class="st5" width="19.6" height="27.1"/>
		<rect x="621.5" y="320.4" class="st3" width="20.5" height="0.9"/>
		<rect x="626.4" y="290.6" class="st3" width="10.7" height="0.9"/>
		<rect x="626.4" y="243.4" class="st3" width="10.7" height="0.9"/>
		<rect x="626.4" y="210.4" class="st6" width="10.7" height="0.9"/>
		<rect x="626.4" y="233.2" class="st3" width="10.7" height="5.2"/>
		<polygon class="st6" points="632.7,185.5 630.7,185.5 626.7,210.4 636.6,210.4 		"/>
	</g>
	<g>
		<g>
			<path class="st14" d="M622.5,375.5v-9.3c0-3.2-2.5-5.9-5.5-5.9s-5.5,2.7-5.5,5.9v9.3H622.5z"/>
			<path class="st13" d="M612.9,374.5v-7.7c0-2.9,1.6-5.2,4.1-5.2c2.5,0,4.1,2.4,4.1,5.2v7.7H612.9z"/>
			<path class="st15" d="M613.4,374.5h7.7v-7.6c0-1.3-0.3-2.5-0.9-3.4L613.4,374.5z"/>
		</g>
		<g>
			<path class="st14" d="M643.9,375.5v-9.3c0-3.2-2.5-5.9-5.5-5.9s-5.5,2.7-5.5,5.9v9.3H643.9z"/>
			<path class="st13" d="M634.3,374.5v-7.7c0-2.9,1.6-5.2,4.1-5.2s4.1,2.4,4.1,5.2v7.7H634.3z"/>
			<path class="st15" d="M634.9,374.5h7.7v-7.6c0-1.3-0.3-2.5-0.9-3.4L634.9,374.5z"/>
		</g>
		<g>
			<path class="st14" d="M665.4,375.5v-9.3c0-3.2-2.5-5.9-5.5-5.9s-5.5,2.7-5.5,5.9v9.3H665.4z"/>
			<path class="st13" d="M655.7,374.5v-7.7c0-2.9,1.6-5.2,4.1-5.2c2.5,0,4.1,2.4,4.1,5.2v7.7H655.7z"/>
			<path class="st15" d="M656.3,374.5h7.7v-7.6c0-1.3-0.3-2.5-0.9-3.4L656.3,374.5z"/>
		</g>
	</g>
	<polygon class="st10" points="710.1,298.2 700.3,298.2 700.3,298.2 697,298.2 697,353.6 713.4,353.6 713.4,298.2 710.1,298.2 	"/>
	<rect x="699.3" y="332.9" class="st8" width="11.8" height="66.7"/>
	<path class="st4" d="M705.2,291.2L705.2,291.2L705.2,291.2c-4.5,0-8.1,3.4-8.2,7.3h8.2h8.2C713.3,294.6,709.7,291.2,705.2,291.2z"
		/>
	<g>
		<polygon class="st10" points="596.1,302.1 596.1,302.1 596.1,221.4 592.3,197.2 592.3,188.2 590.3,188.2 590.3,197.2 586.5,221.4 
			586.5,302.1 		"/>
		<polygon class="st10" points="586.5,302.1 596.1,302.1 600.9,329.1 581.8,329.1 		"/>
		<rect x="581.8" y="329.1" class="st10" width="19" height="71.2"/>
		<rect x="581.4" y="328.2" class="st2" width="19.9" height="0.9"/>
		<rect x="586.2" y="299.3" class="st2" width="10.4" height="0.9"/>
		<rect x="586.2" y="253.4" class="st2" width="10.4" height="0.9"/>
		<rect x="586.2" y="221.4" class="st6" width="10.4" height="0.9"/>
		<rect x="586.2" y="243.5" class="st2" width="10.4" height="5.1"/>
		<polygon class="st4" points="592.3,197.2 590.3,197.2 586.5,221.4 596.1,221.4 		"/>
	</g>
	<g>
		<path class="st4" d="M686.4,335.1L686.4,335.1L686.4,335.1c-6.2,0-11.1,5.7-11.3,11.3h11.3h11.3
			C697.5,340.8,692.5,335.1,686.4,335.1z"/>
		<polygon class="st10" points="685.4,348.3 672.4,348.3 672.4,364.5 685.4,364.5 699.5,364.5 699.5,348.3 		"/>
		<polygon class="st3" points="686.4,346.4 671.5,346.4 671.5,350.2 686.4,350.2 700.4,350.2 700.4,346.4 		"/>
		<path class="st13" d="M676.1,356.4v-2c0-0.7,0.5-1.3,1.3-1.3s1.3,0.6,1.3,1.3v2H676.1z"/>
		<path class="st13" d="M681.7,356.4v-2c0-0.7,0.5-1.3,1.3-1.3s1.3,0.6,1.3,1.3v2H681.7z"/>
		<path class="st13" d="M687.5,356.4v-2c0-0.7,0.5-1.3,1.3-1.3s1.3,0.6,1.3,1.3v2H687.5z"/>
		<path class="st13" d="M693.2,356.4v-2c0-0.7,0.5-1.3,1.3-1.3s1.3,0.6,1.3,1.3v2H693.2z"/>
	</g>
	<g>
		<g>
			<path class="st14" d="M904.5,375.5v-9.3c0-3.2,2.5-5.9,5.5-5.9s5.5,2.7,5.5,5.9v9.3H904.5z"/>
			<path class="st13" d="M914.1,374.5v-7.7c0-2.9-1.6-5.2-4.1-5.2s-4.1,2.4-4.1,5.2v7.7H914.1z"/>
			<path class="st15" d="M913.5,374.5h-7.7v-7.6c0-1.3,0.3-2.5,0.9-3.4L913.5,374.5z"/>
		</g>
		<g>
			<path class="st14" d="M883.1,375.5v-9.3c0-3.2,2.5-5.9,5.5-5.9s5.5,2.7,5.5,5.9v9.3H883.1z"/>
			<path class="st13" d="M892.7,374.5v-7.7c0-2.9-1.6-5.2-4.1-5.2c-2.5,0-4.1,2.4-4.1,5.2v7.7H892.7z"/>
			<path class="st15" d="M892.1,374.5h-7.7v-7.6c0-1.3,0.3-2.5,0.9-3.4L892.1,374.5z"/>
		</g>
		<g>
			<path class="st14" d="M861.6,375.5v-9.3c0-3.2,2.5-5.9,5.5-5.9c3,0,5.5,2.7,5.5,5.9v9.3H861.6z"/>
			<path class="st13" d="M871.3,374.5v-7.7c0-2.9-1.6-5.2-4.1-5.2c-2.5,0-4.1,2.4-4.1,5.2v7.7H871.3z"/>
			<path class="st15" d="M870.7,374.5H863v-7.6c0-1.3,0.3-2.5,0.9-3.4L870.7,374.5z"/>
		</g>
	</g>
	<polygon class="st10" points="816.9,298.2 826.7,298.2 826.7,298.2 830,298.2 830,353.6 813.6,353.6 813.6,298.2 816.9,298.2 	"/>
	
		<rect x="815.9" y="332.9" transform="matrix(-1 -4.505830e-11 4.505830e-11 -1 1643.5712 732.6063)" class="st8" width="11.8" height="66.7"/>
	<path class="st4" d="M821.8,291.2L821.8,291.2L821.8,291.2c4.5,0,8.1,3.4,8.2,7.3h-8.2h-8.2C813.7,294.6,817.3,291.2,821.8,291.2z"
		/>
	<g>
		<polygon class="st10" points="929.9,302.1 929.9,302.1 929.9,221.4 933.8,197.2 933.8,188.2 935.7,188.2 935.7,197.2 939.6,221.4 
			939.6,302.1 		"/>
		<polygon class="st10" points="939.6,302.1 929.9,302.1 925.2,329.1 944.2,329.1 		"/>
		
			<rect x="925.2" y="329.1" transform="matrix(-1 -4.487223e-11 4.487223e-11 -1 1869.3724 729.4086)" class="st10" width="19" height="71.2"/>
		
			<rect x="924.7" y="328.2" transform="matrix(-1 -4.481183e-11 4.481183e-11 -1 1869.3724 657.3828)" class="st2" width="19.9" height="0.9"/>
		
			<rect x="929.5" y="299.3" transform="matrix(-1 -4.476431e-11 4.476431e-11 -1 1869.3724 599.5336)" class="st2" width="10.4" height="0.9"/>
		
			<rect x="929.5" y="253.4" transform="matrix(-1 -4.502766e-11 4.502766e-11 -1 1869.3724 507.8102)" class="st2" width="10.4" height="0.9"/>
		
			<rect x="929.5" y="221.4" transform="matrix(-1 -4.485224e-11 4.485224e-11 -1 1869.3724 443.619)" class="st6" width="10.4" height="0.9"/>
		
			<rect x="929.5" y="243.5" transform="matrix(-1 -4.485224e-11 4.485224e-11 -1 1869.3724 492.0732)" class="st2" width="10.4" height="5.1"/>
		<polygon class="st4" points="933.8,197.2 935.7,197.2 939.6,221.4 929.9,221.4 		"/>
	</g>
	<g>
		<path class="st4" d="M841,334.8L841,334.8L841,334.8c6.2,0,11.1,5.7,11.3,11.3H841h-11.3C829.9,340.4,834.9,334.8,841,334.8z"/>
		<polygon class="st10" points="842,348 855,348 855,353.6 842,353.6 828,353.6 828,348 		"/>
		<polygon class="st3" points="841,346.1 855.9,346.1 855.9,349.9 841,349.9 827,349.9 827,346.1 		"/>
		<path class="st13" d="M851.3,352.9v-1.3c0-0.5-0.3-0.9-0.9-0.9s-0.9,0.4-0.9,0.9v1.3H851.3z"/>
		<path class="st13" d="M845.1,352.9v-1.3c0-0.5-0.3-0.9-0.9-0.9s-0.9,0.4-0.9,0.9v1.3H845.1z"/>
		<path class="st13" d="M838.8,352.9v-1.3c0-0.5-0.3-0.9-0.9-0.9c-0.5,0-0.9,0.4-0.9,0.9v1.3H838.8z"/>
		<path class="st13" d="M832.5,352.9v-1.3c0-0.5-0.3-0.9-0.9-0.9s-0.9,0.4-0.9,0.9v1.3H832.5z"/>
	</g>
	<g>
		<g>
			<path class="st14" d="M725.1,356.1v-4.8c0-1.7-1.3-3-2.8-3c-1.6,0-2.8,1.4-2.8,3v4.8H725.1z"/>
			<path class="st13" d="M720.1,355.5v-4c0-1.5,0.8-2.7,2.1-2.7c1.3,0,2.1,1.2,2.1,2.7v4H720.1z"/>
			<path class="st15" d="M720.4,355.5h3.9v-3.9c0-0.7-0.1-1.3-0.4-1.8L720.4,355.5z"/>
		</g>
		<g>
			<path class="st14" d="M736.1,356.1v-4.8c0-1.7-1.3-3-2.8-3c-1.6,0-2.8,1.4-2.8,3v4.8H736.1z"/>
			<path class="st13" d="M731.1,355.5v-4c0-1.5,0.8-2.7,2.1-2.7c1.3,0,2.1,1.2,2.1,2.7v4H731.1z"/>
			<path class="st15" d="M731.4,355.5h3.9v-3.9c0-0.7-0.1-1.3-0.4-1.8L731.4,355.5z"/>
		</g>
		<g>
			<path class="st14" d="M793.2,356.2v-4.8c0-1.7-1.3-3-2.8-3c-1.6,0-2.8,1.4-2.8,3v4.8H793.2z"/>
			<path class="st13" d="M788.2,355.6v-4c0-1.5,0.8-2.7,2.1-2.7s2.1,1.2,2.1,2.7v4H788.2z"/>
			<path class="st15" d="M788.5,355.6h3.9v-3.9c0-0.7-0.1-1.3-0.4-1.8L788.5,355.6z"/>
		</g>
		<g>
			<path class="st14" d="M804,356.2v-4.8c0-1.7-1.3-3-2.8-3c-1.6,0-2.8,1.4-2.8,3v4.8H804z"/>
			<path class="st13" d="M799.1,355.6v-4c0-1.5,0.8-2.7,2.1-2.7c1.3,0,2.1,1.2,2.1,2.7v4H799.1z"/>
			<path class="st15" d="M799.4,355.6h3.9v-3.9c0-0.7-0.1-1.3-0.4-1.8L799.4,355.6z"/>
		</g>
	</g>
	<polygon class="st3" points="763.5,326 709,326 709,330 763.5,330 818,330 818,326 	"/>
	<g>
		<path class="st4" d="M763.4,342.5C763.4,342.5,763.4,342.5,763.4,342.5L763.4,342.5c-11,0-20,9.4-20.2,18.8h20.2h20.2
			C783.4,351.9,774.4,342.5,763.4,342.5z"/>
		<polygon class="st10" points="761.7,362.6 738.4,362.6 738.4,372 761.7,372 786.9,372 786.9,362.6 		"/>
		<polygon class="st3" points="763.4,361.3 736.7,361.3 736.7,362.7 763.4,362.7 788.6,362.7 788.6,361.3 		"/>
		<polygon class="st3" points="763.4,372 738.4,372 738.4,378.3 763.4,378.3 786.9,378.3 786.9,372 		"/>
		<path class="st13" d="M746.8,369.1v-2.2c0-0.8,0.5-1.5,1.3-1.5s1.3,0.7,1.3,1.5v2.2H746.8z"/>
		<path class="st13" d="M756,369.1v-2.2c0-0.8,0.5-1.5,1.3-1.5c0.8,0,1.3,0.7,1.3,1.5v2.2H756z"/>
		<path class="st13" d="M765.2,369.1v-2.2c0-0.8,0.5-1.5,1.3-1.5c0.8,0,1.3,0.7,1.3,1.5v2.2H765.2z"/>
		<path class="st13" d="M774.5,369.1v-2.2c0-0.8,0.5-1.5,1.3-1.5c0.8,0,1.3,0.7,1.3,1.5v2.2H774.5z"/>
		<polygon class="st10" points="761.7,374.7 738.4,374.7 738.4,394.3 761.7,394.3 786.9,394.3 786.9,374.7 		"/>
	</g>
	<path class="st4" d="M821.8,327.2L821.8,327.2L821.8,327.2c3.2,0,5.8,2.7,5.9,5.8h-5.9h-5.9C816,329.8,818.6,327.2,821.8,327.2z"/>
	<path class="st4" d="M705.2,327.2L705.2,327.2L705.2,327.2c-3.2,0-5.8,2.7-5.9,5.8h5.9h5.9C711,329.8,708.4,327.2,705.2,327.2z"/>
</g>
<g>
	<g>
		<polygon class="st16" points="1150.7,349.5 1150.7,349.5 1150.7,349.5 1150.7,349.5 1150.7,349.5 1115,349.5 1115,352.7 
			1150.7,352.7 1154.7,352.7 		"/>
		<polygon class="st16" points="1150.1,349.5 1150.1,349.5 1150.1,349.5 		"/>
	</g>
	<rect x="1058" y="289.7" class="st10" width="40.7" height="99.6"/>
	<rect x="1055.9" y="310" class="st13" width="8.4" height="59.7"/>
	<rect x="1058" y="289.7" class="st13" width="8.5" height="17.4"/>
	<rect x="1120.9" y="352.7" class="st5" width="33" height="36.5"/>
	<g>
		<polygon class="st16" points="1024.4,360.5 1024.4,360.5 1024.4,360.5 1024.4,360.5 1024.4,360.5 1051,360.5 1051,367 1024.4,367 
			1021.4,367 		"/>
		<polygon class="st16" points="1024.8,360.5 1024.8,360.5 1024.8,360.5 		"/>
	</g>
	<rect x="1063.1" y="350.1" class="st5" width="57.8" height="39.1"/>
	<polygon class="st16" points="1092,335.3 1121.3,350.1 1062.7,350.1 	"/>
	<rect x="1045.1" y="367" class="st10" width="30" height="22.2"/>
	<polygon class="st2" points="1057.8,356.7 1079.7,367 1036,367 	"/>
	<rect x="1036" y="367" class="st17" width="9.9" height="22.2"/>
	<rect x="1027.5" y="367" class="st5" width="9" height="22.2"/>
	<rect x="1073.9" y="354.7" class="st2" width="4.2" height="5.8"/>
	<rect x="1085.3" y="354.7" class="st2" width="4.2" height="5.8"/>
	<rect x="1096.6" y="354.7" class="st2" width="4.2" height="5.8"/>
	<rect x="1108" y="354.7" class="st2" width="4.2" height="5.8"/>
	<rect x="1056.8" y="286.1" class="st2" width="42.8" height="1"/>
	<rect x="1058" y="289.7" class="st2" width="40.7" height="1"/>
	<rect x="1051.1" y="369.7" class="st2" width="17.6" height="10"/>
	<polygon class="st5" points="1050.4,309.9 1059.6,319.6 1063.2,312.4 1081.1,319.4 1098.7,312.6 1098.7,317.7 1104.7,309.9 	"/>
	<path class="st13" d="M1088.9,271.5c-2.7-4.1-2.7-10.4-2.7-10.4h-7.9h-7.9c0,0,0,6.3-2.7,10.4c-8.4,7.1-7.9,14.6-7.9,14.6h18.6
		h18.6C1096.8,286.1,1097.3,278.6,1088.9,271.5z"/>
	<polygon class="st10" points="1098.7,289.7 1058,289.7 1056.8,287.1 1099.6,287.1 	"/>
	<polygon class="st13" points="1064.3,289.7 1058,289.7 1056.8,287.1 1064.3,287.1 	"/>
	<rect x="1069" y="256.1" class="st2" width="18.5" height="5"/>
	<g>
		<rect x="1074.8" y="251.1" class="st2" width="7.1" height="9.1"/>
		<polygon class="st2" points="1077.2,248.5 1074.8,251.1 1081.9,251.1 1079.5,248.5 		"/>
		<polygon class="st2" points="1079.5,248.5 1077.2,248.5 1077.7,202.9 1079,202.9 		"/>
		<rect x="1075.4" y="202" class="st2" width="5.6" height="0.9"/>
		<path class="st2" d="M1078.3,195.7c-0.9,0-2.4,1.5-2.4,3.6c0,1.3,0.6,3,1.3,3h1.2h1.2c0.7,0,1.3-1.7,1.3-3
			C1080.7,197.2,1079.2,195.7,1078.3,195.7z"/>
		<path class="st2" d="M1079.1,196.3h-1.6c-0.2,0-0.3-0.1-0.3-0.3l0.2-6c0-0.2,0.7-0.8,0.9-0.8l0,0c0.2,0,0.9,0.7,0.9,0.8l0.3,6
			C1079.5,196.2,1079.3,196.3,1079.1,196.3z"/>
		<path class="st2" d="M1078.3,189.6L1078.3,189.6c-0.2,0-0.3-0.1-0.3-0.3v-10.2c0-0.2,0.1-0.3,0.3-0.3l0,0c0.2,0,0.3,0.1,0.3,0.3
			v10.2C1078.6,189.4,1078.5,189.6,1078.3,189.6z"/>
	</g>
	<path class="st2" d="M1081.1,202.6V213c0,0,7.7,2.3,9.5,1c1.8-1.3-0.6-3.7-0.6-3.7l-1.1-0.6c0,0-0.2-2.5-2.7-3.8
		C1083.7,204.6,1081.1,202.6,1081.1,202.6z"/>
	<rect x="979.6" y="389.2" class="st2" width="197.4" height="11.7"/>
	<rect x="1071.4" y="294.5" class="st5" width="7.5" height="12.4"/>
	<rect x="1060.4" y="294.5" class="st2" width="3.7" height="12.4"/>
	<rect x="1086.9" y="294.5" class="st5" width="7.5" height="12.4"/>
	<rect x="1050.3" y="304.1" class="st16" width="54.4" height="5.9"/>
</g>
<g>
	
		<rect x="216.6" y="362.9" transform="matrix(0.5777 0.8162 -0.8162 0.5777 396.0816 -20.4619)" class="st6" width="2.4" height="19.3"/>
	
		<rect x="213.8" y="349.3" transform="matrix(0.5777 0.8162 -0.8162 0.5777 386.5909 -22.4294)" class="st6" width="2.4" height="26.3"/>
	
		<rect x="204.3" y="340.5" transform="matrix(0.5777 0.8162 -0.8162 0.5777 375.4205 -18.4152)" class="st6" width="2.4" height="26.3"/>
	
		<rect x="200.6" y="354.8" transform="matrix(0.7285 -0.685 0.685 0.7285 -197.3125 238.1753)" class="st6" width="2.4" height="26.5"/>
	<rect x="209.2" y="376.3" class="st6" width="2.4" height="23.9"/>
	<path class="st4" d="M207.6,360.2h-21c-2.7,0-5-2.2-5-5v0c0-2.7,2.2-5,5-5h21c2.7,0,5,2.2,5,5v0C212.5,358,210.3,360.2,207.6,360.2
		z"/>
	<path class="st4" d="M232.6,357.5h-15.7c-1.4,0-2.6-1.2-2.6-2.6l0,0c0-1.4,1.2-2.6,2.6-2.6h15.7c1.4,0,2.6,1.2,2.6,2.6l0,0
		C235.2,356.3,234,357.5,232.6,357.5z"/>
	<path class="st18" d="M233.2,370h-20.5c-2.5,0-4.5-2-4.5-4.5v0c0-2.5,2-4.5,4.5-4.5h20.5c2.5,0,4.5,2,4.5,4.5v0
		C237.7,368,235.7,370,233.2,370z"/>
	<path class="st18" d="M223.8,348.5h-24.4c-2.6,0-4.8-2.2-4.8-4.8l0,0c0-2.6,2.2-4.8,4.8-4.8h24.4c2.6,0,4.8,2.2,4.8,4.8l0,0
		C228.7,346.4,226.5,348.5,223.8,348.5z"/>
</g>
<g>
	<path class="st7" d="M1149.2,389.2h7.9c2-1.9,3.4-3.7,3.4-6c0-3.5-3.3-6.7-7.3-6.7s-7.3,3.3-7.3,6.8
		C1145.9,385.7,1147.2,387.3,1149.2,389.2z"/>
	<path class="st12" d="M1152.8,376.6v12.7h4.4c2.2-1.7,3.5-3.4,3.5-5.8C1160.8,379.7,1158.1,376.6,1152.8,376.6z"/>
</g>
<g>
	<path class="st7" d="M1143.7,389.2h5.2c1.3-1.3,2.2-2.5,2.2-4c0-2.3-2.2-4.4-4.9-4.4c-2.7,0-4.9,2.2-4.9,4.5
		C1141.4,386.9,1142.3,387.9,1143.7,389.2z"/>
	<path class="st12" d="M1145.8,380.8v8.4h3.2c1.5,0,2.2-2.2,2.2-3.8C1151.2,382.9,1149.3,380.9,1145.8,380.8z"/>
</g>
<g>
	<path class="st7" d="M1047.7,389.2h4.8c1.3-1.3,2.6-2.5,2.6-4c0-2.3-2.2-4.4-4.9-4.4c-2.7,0-4.9,2.2-4.9,4.5
		C1045.5,386.9,1046.4,387.9,1047.7,389.2z"/>
	<path class="st12" d="M1049.9,380.8v8.4h2.3c1.5,0,3.1-2.2,3.1-3.8C1055.3,382.9,1053.4,380.9,1049.9,380.8z"/>
</g>
<g>
	<polygon class="st19" points="1031.2,285.2 1031.2,392.2 952.7,392.2 952.7,285.5 992.7,266.2 1002.5,271.1 	"/>
	<rect x="946.7" y="389.7" class="st5" width="90.4" height="11.2"/>
	<rect x="950.8" y="341.3" class="st20" width="82.4" height="4.1"/>
	<rect x="972.8" y="385.6" class="st19" width="8" height="3.7"/>
	<rect x="968.8" y="381.5" class="st19" width="8" height="3.7"/>
	<rect x="964.4" y="385.6" class="st19" width="8" height="3.7"/>
	<rect x="960.4" y="381.5" class="st19" width="8" height="3.7"/>
	<rect x="950.8" y="344.7" class="st19" width="82.4" height="4.1"/>
	<rect x="954.5" y="384.5" class="st14" width="24.9" height="2.7"/>
	<rect x="954.5" y="387.2" class="st20" width="24.9" height="2.7"/>
	<rect x="952.4" y="390" class="st14" width="29.1" height="2.7"/>
	<rect x="952.4" y="392.7" class="st20" width="29.1" height="2.7"/>
	<rect x="950.4" y="395.4" class="st14" width="33.1" height="2.7"/>
	<rect x="950.4" y="398.2" class="st20" width="33.1" height="2.7"/>
	<linearGradient id="SVGID_1_" gradientUnits="userSpaceOnUse" x1="991.9499" y1="357.8559" x2="991.9499" y2="348.872">
		<stop  offset="0" style="stop-color:#FFFFFF"/>
		<stop  offset="1" style="stop-color:#F49758;stop-opacity:0.4"/>
	</linearGradient>
	<rect x="952.7" y="348.9" class="st21" width="78.5" height="9"/>
	<rect x="956.6" y="353.1" class="st22" width="20.7" height="31.4"/>
	
		<rect x="951.8" y="360.3" transform="matrix(-1.836970e-16 1 -1 -1.836970e-16 1336.2719 -597.5563)" class="st14" width="30.3" height="18.2"/>
	<circle class="st20" cx="960.6" cy="368.4" r="1"/>
	<polygon class="st20" points="976,384.5 976,354.2 972.2,354.2 957.8,384.5 	"/>
	<g>
		<rect x="982.2" y="353" class="st22" width="19.7" height="26.4"/>
		
			<rect x="980.1" y="357.5" transform="matrix(-1.836970e-16 1 -1 -1.836970e-16 1358.132 -625.9011)" class="st14" width="23.9" height="17.2"/>
		<polygon class="st20" points="983.6,378.1 1000.6,378.1 1000.6,354.2 997.2,354.2 		"/>
		<rect x="991.5" y="353" class="st22" width="1.1" height="26.4"/>
		
			<rect x="991.4" y="356.9" transform="matrix(4.363425e-11 1 -1 4.363425e-11 1358.2715 -625.8095)" class="st22" width="1.3" height="18.7"/>
	</g>
	<g>
		<rect x="1006.4" y="353" class="st22" width="19.7" height="26.4"/>
		
			<rect x="1004.3" y="357.5" transform="matrix(-1.836970e-16 1 -1 -1.836970e-16 1382.3618 -650.1309)" class="st14" width="23.9" height="17.2"/>
		<polygon class="st20" points="1007.8,378.1 1024.8,378.1 1024.8,354.2 1021.5,354.2 		"/>
		<rect x="1015.7" y="353" class="st22" width="1.1" height="26.4"/>
		
			<rect x="1015.7" y="356.9" transform="matrix(3.199822e-11 1 -1 3.199822e-11 1382.5498 -650.0878)" class="st22" width="1.3" height="18.7"/>
	</g>
	<g>
		<rect x="982.2" y="313.1" class="st22" width="19.7" height="26.4"/>
		
			<rect x="980" y="317.6" transform="matrix(-1.836970e-16 1 -1 -1.836970e-16 1318.1884 -665.7968)" class="st14" width="23.9" height="17.2"/>
		<polygon class="st20" points="983.5,338.1 1000.6,338.1 1000.6,314.2 997.2,314.2 		"/>
		<rect x="991.4" y="313.1" class="st22" width="1.1" height="26.4"/>
		
			<rect x="991.4" y="316.9" transform="matrix(2.763460e-11 1 -1 2.763460e-11 1318.3278 -665.7053)" class="st22" width="1.3" height="18.7"/>
	</g>
	<g>
		<rect x="982.1" y="290.1" class="st22" width="19.7" height="16.4"/>
		
			<rect x="984.9" y="289.7" transform="matrix(-1.836970e-16 1 -1 -1.836970e-16 1290.2228 -693.6693)" class="st14" width="14.2" height="17.2"/>
		<polygon class="st20" points="983.5,305.4 1000.5,305.4 1000.5,291.2 997.2,291.2 		"/>
		<rect x="991.3" y="290.1" class="st22" width="1.3" height="16.4"/>
		
			<rect x="991.3" y="289" transform="matrix(3.926885e-11 1 -1 3.926885e-11 1290.3186 -693.6215)" class="st22" width="1.3" height="18.7"/>
	</g>
	<g>
		<rect x="1006.3" y="313.1" class="st22" width="19.7" height="26.4"/>
		
			<rect x="1004.2" y="317.6" transform="matrix(-1.836970e-16 1 -1 -1.836970e-16 1342.3696 -689.9781)" class="st14" width="23.9" height="17.2"/>
		<polygon class="st20" points="1007.7,338.1 1024.8,338.1 1024.8,314.2 1021.4,314.2 		"/>
		<rect x="1015.6" y="313.1" class="st22" width="1.1" height="26.4"/>
		
			<rect x="1015.6" y="316.9" transform="matrix(3.927062e-11 1 -1 3.927062e-11 1342.5576 -689.9351)" class="st22" width="1.3" height="18.7"/>
	</g>
	<g>
		<rect x="958" y="313.1" class="st22" width="19.7" height="26.4"/>
		
			<rect x="955.9" y="317.6" transform="matrix(-1.836970e-16 1 -1 -1.836970e-16 1294.0071 -641.6155)" class="st14" width="23.9" height="17.2"/>
		<polygon class="st20" points="959.4,338.1 976.4,338.1 976.4,314.2 973,314.2 		"/>
		<rect x="967.3" y="313.1" class="st22" width="1.1" height="26.4"/>
		
			<rect x="967.2" y="316.9" transform="matrix(4.363425e-11 1 -1 4.363425e-11 1294.1465 -641.524)" class="st22" width="1.3" height="18.7"/>
	</g>
	<linearGradient id="SVGID_2_" gradientUnits="userSpaceOnUse" x1="992.0277" y1="299.334" x2="992.0277" y2="274.5894">
		<stop  offset="0" style="stop-color:#B42725"/>
		<stop  offset="0.1384" style="stop-color:#B42B29"/>
		<stop  offset="0.2759" style="stop-color:#B43635"/>
		<stop  offset="0.4129" style="stop-color:#B34849"/>
		<stop  offset="0.5498" style="stop-color:#B36265"/>
		<stop  offset="0.6867" style="stop-color:#B38389"/>
		<stop  offset="0.8235" style="stop-color:#B2ACB5"/>
		<stop  offset="0.9579" style="stop-color:#B1DCE8"/>
		<stop  offset="1" style="stop-color:#B1ECFA"/>
	</linearGradient>
	<path class="st23" d="M1031.3,294.2v5.1L992,280.2l-39.2,19.1v-5.1c14-6.5,26.5-13.1,39.8-19.6
		C1005.5,281.1,1019.1,287.7,1031.3,294.2z"/>
	<polygon class="st24" points="1031.2,284.6 1002.2,270.5 992.2,265.6 952.7,284.9 944.5,288.9 944.5,298.6 952.7,294.6 
		992.2,275.4 1031.2,294.4 1040.6,299 1040.6,289.2 	"/>
</g>
<g>
	<polygon class="st19" points="527.5,394.3 485.3,394.3 485.3,303.7 506.1,303.3 527.5,303.7 	"/>
	<polygon class="st19" points="485.3,395.2 443.1,395.2 443.1,315.5 463.9,315.2 485.3,315.5 	"/>
	<rect x="439.9" y="394.3" class="st5" width="90.6" height="6"/>
	<rect x="453.9" y="392.1" class="st19" width="4.3" height="2"/>
	<rect x="451.8" y="389.9" class="st19" width="4.3" height="2"/>
	<rect x="449.4" y="392.1" class="st19" width="4.3" height="2"/>
	<rect x="447.2" y="389.9" class="st19" width="4.3" height="2"/>
	<rect x="444.1" y="391.5" class="st14" width="13.4" height="1.5"/>
	<rect x="444.1" y="393" class="st20" width="13.4" height="1.5"/>
	<rect x="442.9" y="394.4" class="st14" width="15.6" height="1.5"/>
	<rect x="442.9" y="395.9" class="st20" width="15.6" height="1.5"/>
	<rect x="441.9" y="397.4" class="st14" width="17.8" height="1.5"/>
	<rect x="441.9" y="398.9" class="st20" width="17.8" height="1.5"/>
	<rect x="445.2" y="374.6" class="st22" width="11.1" height="16.9"/>
	
		<rect x="442.6" y="378.5" transform="matrix(-1.836970e-16 1 -1 -1.836970e-16 834.1286 -67.3952)" class="st14" width="16.3" height="9.8"/>
	<circle class="st20" cx="447.4" cy="382.8" r="0.5"/>
	<polygon class="st20" points="455.7,391.5 455.7,375.2 453.6,375.2 445.9,391.5 	"/>
	<g>
		<rect x="459" y="374.6" class="st22" width="10.6" height="14.2"/>
		
			<rect x="457.8" y="377" transform="matrix(-1.836970e-16 1 -1 -1.836970e-16 845.8801 -82.6327)" class="st14" width="12.9" height="9.2"/>
		<polygon class="st20" points="459.7,388 468.9,388 468.9,375.2 467.1,375.2 		"/>
		<rect x="464" y="374.6" class="st22" width="0.6" height="14.2"/>
		
			<rect x="463.9" y="376.6" transform="matrix(3.381987e-11 1 -1 3.381987e-11 845.9551 -82.5835)" class="st22" width="0.7" height="10.1"/>
	</g>
	<g>
		<rect x="472" y="374.6" class="st22" width="10.6" height="14.2"/>
		
			<rect x="470.9" y="377" transform="matrix(-1.836970e-16 1 -1 -1.836970e-16 858.9055 -95.6581)" class="st14" width="12.9" height="9.2"/>
		<polygon class="st20" points="472.7,388 481.9,388 481.9,375.2 480.1,375.2 		"/>
		<rect x="477" y="374.6" class="st22" width="0.6" height="14.2"/>
		
			<rect x="477" y="376.6" transform="matrix(3.246718e-11 1 -1 3.246718e-11 859.0065 -95.6349)" class="st22" width="0.7" height="10.1"/>
	</g>
	<g>
		<rect x="459" y="352.5" class="st22" width="10.6" height="14.2"/>
		
			<rect x="457.8" y="354.9" transform="matrix(-1.836970e-16 1 -1 -1.836970e-16 823.7349 -104.752)" class="st14" width="12.9" height="9.2"/>
		<polygon class="st20" points="459.7,365.9 468.9,365.9 468.9,353.1 467,353.1 		"/>
		<rect x="463.9" y="352.5" class="st22" width="0.6" height="14.2"/>
		
			<rect x="463.9" y="354.5" transform="matrix(3.652527e-11 1 -1 3.652527e-11 823.8099 -104.7028)" class="st22" width="0.7" height="10.1"/>
	</g>
	<g>
		<rect x="472" y="352.5" class="st22" width="10.6" height="14.2"/>
		
			<rect x="470.8" y="354.9" transform="matrix(-1.836970e-16 1 -1 -1.836970e-16 836.7343 -117.7514)" class="st14" width="12.9" height="9.2"/>
		<polygon class="st20" points="472.7,365.9 481.9,365.9 481.9,353.1 480,353.1 		"/>
		<rect x="476.9" y="352.5" class="st22" width="0.6" height="14.2"/>
		
			<rect x="476.9" y="354.5" transform="matrix(3.381987e-11 1 -1 3.381987e-11 836.8353 -117.7282)" class="st22" width="0.7" height="10.1"/>
	</g>
	<g>
		<rect x="446" y="352.5" class="st22" width="10.6" height="14.2"/>
		
			<rect x="444.8" y="354.9" transform="matrix(-1.836970e-16 1 -1 -1.836970e-16 810.7356 -91.7527)" class="st14" width="12.9" height="9.2"/>
		<polygon class="st20" points="446.7,365.9 455.9,365.9 455.9,353.1 454,353.1 		"/>
		<rect x="450.9" y="352.5" class="st22" width="0.6" height="14.2"/>
		
			<rect x="450.9" y="354.5" transform="matrix(3.787885e-11 1 -1 3.787885e-11 810.8106 -91.7035)" class="st22" width="0.7" height="10.1"/>
	</g>
	<g>
		<rect x="459" y="330.6" class="st22" width="10.6" height="14.2"/>
		
			<rect x="457.8" y="333" transform="matrix(-1.836970e-16 1 -1 -1.836970e-16 801.9023 -126.5847)" class="st14" width="12.9" height="9.2"/>
		<polygon class="st20" points="459.7,344.1 468.9,344.1 468.9,331.2 467,331.2 		"/>
		<rect x="463.9" y="330.6" class="st22" width="0.6" height="14.2"/>
		
			<rect x="463.9" y="332.7" transform="matrix(2.976179e-11 1 -1 2.976179e-11 801.9773 -126.5355)" class="st22" width="0.7" height="10.1"/>
	</g>
	<g>
		<rect x="472" y="330.6" class="st22" width="10.6" height="14.2"/>
		
			<rect x="470.8" y="333" transform="matrix(-1.836970e-16 1 -1 -1.836970e-16 814.9016 -139.584)" class="st14" width="12.9" height="9.2"/>
		<polygon class="st20" points="472.7,344.1 481.9,344.1 481.9,331.2 480,331.2 		"/>
		<rect x="476.9" y="330.6" class="st22" width="0.6" height="14.2"/>
		
			<rect x="476.9" y="332.7" transform="matrix(3.246718e-11 1 -1 3.246718e-11 815.0027 -139.5608)" class="st22" width="0.7" height="10.1"/>
	</g>
	<g>
		<rect x="446" y="330.6" class="st22" width="10.6" height="14.2"/>
		
			<rect x="444.8" y="333" transform="matrix(-1.836970e-16 1 -1 -1.836970e-16 788.903 -113.5854)" class="st14" width="12.9" height="9.2"/>
		<polygon class="st20" points="446.7,344.1 455.9,344.1 455.9,331.2 454,331.2 		"/>
		<rect x="450.9" y="330.6" class="st22" width="0.6" height="14.2"/>
		
			<rect x="450.9" y="332.7" transform="matrix(2.840909e-11 1 -1 2.840909e-11 788.978 -113.5361)" class="st22" width="0.7" height="10.1"/>
	</g>
	<rect x="443.1" y="308.7" class="st6" width="42.2" height="19"/>
	<rect x="484.8" y="308.4" class="st4" width="0.6" height="19.3"/>
	
		<rect x="463.9" y="287.6" transform="matrix(6.123234e-17 -1 1 6.123234e-17 155.5383 772.9028)" class="st4" width="0.6" height="42.2"/>
	
		<rect x="463.9" y="306.3" transform="matrix(6.123234e-17 -1 1 6.123234e-17 136.8259 791.6152)" class="st4" width="0.6" height="42.2"/>
	<rect x="443.1" y="308.4" class="st4" width="0.6" height="19.3"/>
	<rect x="489.4" y="389.1" class="st19" width="4.3" height="2.3"/>
	<g>
		<rect x="501.2" y="370.7" class="st22" width="10.6" height="16.1"/>
		
			<rect x="499.1" y="374.1" transform="matrix(-1.836970e-16 1 -1 -1.836970e-16 885.1832 -127.721)" class="st14" width="14.6" height="9.2"/>
		<polygon class="st20" points="501.9,386 511.1,386 511.1,371.4 509.3,371.4 		"/>
		<rect x="506.2" y="370.7" class="st22" width="0.6" height="16.1"/>
		
			<rect x="506.1" y="373.8" transform="matrix(2.498250e-11 1 -1 2.498250e-11 885.2667 -127.6633)" class="st22" width="0.8" height="10.1"/>
	</g>
	<g>
		<rect x="488.1" y="370.7" class="st22" width="10.6" height="16.1"/>
		
			<rect x="486.1" y="374.1" transform="matrix(-1.836970e-16 1 -1 -1.836970e-16 872.1578 -114.6956)" class="st14" width="14.6" height="9.2"/>
		<polygon class="st20" points="488.9,386 498.1,386 498.1,371.4 496.2,371.4 		"/>
		<rect x="493.1" y="370.7" class="st22" width="0.6" height="16.1"/>
		
			<rect x="493.1" y="373.8" transform="matrix(2.974136e-11 1 -1 2.974136e-11 872.2414 -114.6379)" class="st22" width="0.8" height="10.1"/>
	</g>
	<g>
		<rect x="514.2" y="370.7" class="st22" width="10.6" height="16.1"/>
		
			<rect x="512.2" y="374.1" transform="matrix(-1.836970e-16 1 -1 -1.836970e-16 898.2086 -140.7464)" class="st14" width="14.6" height="9.2"/>
		<polygon class="st20" points="514.9,386 524.1,386 524.1,371.4 522.3,371.4 		"/>
		<rect x="519.2" y="370.7" class="st22" width="0.6" height="16.1"/>
		
			<rect x="519.1" y="373.8" transform="matrix(2.855120e-11 1 -1 2.855120e-11 898.3182 -140.7147)" class="st22" width="0.8" height="10.1"/>
	</g>
	<g>
		<rect x="501.2" y="345.6" class="st22" width="10.6" height="16.1"/>
		
			<rect x="499.1" y="348.9" transform="matrix(-1.836970e-16 1 -1 -1.836970e-16 860.0029 -152.8756)" class="st14" width="14.6" height="9.2"/>
		<polygon class="st20" points="501.9,360.9 511.1,360.9 511.1,346.3 509.2,346.3 		"/>
		<rect x="506.1" y="345.6" class="st22" width="0.6" height="16.1"/>
		
			<rect x="506.1" y="348.6" transform="matrix(2.974136e-11 1 -1 2.974136e-11 860.0864 -152.8178)" class="st22" width="0.8" height="10.1"/>
	</g>
	<g>
		<rect x="514.2" y="345.6" class="st22" width="10.6" height="16.1"/>
		
			<rect x="512.1" y="348.9" transform="matrix(-1.836970e-16 1 -1 -1.836970e-16 873.0022 -165.8749)" class="st14" width="14.6" height="9.2"/>
		<polygon class="st20" points="514.9,360.9 524.1,360.9 524.1,346.3 522.2,346.3 		"/>
		<rect x="519.1" y="345.6" class="st22" width="0.6" height="16.1"/>
		
			<rect x="519.1" y="348.6" transform="matrix(3.331006e-11 1 -1 3.331006e-11 873.1118 -165.8432)" class="st22" width="0.8" height="10.1"/>
	</g>
	<g>
		<rect x="488.2" y="345.6" class="st22" width="10.6" height="16.1"/>
		
			<rect x="486.2" y="348.9" transform="matrix(-1.836970e-16 1 -1 -1.836970e-16 847.0436 -139.9162)" class="st14" width="14.6" height="9.2"/>
		<polygon class="st20" points="488.9,360.9 498.1,360.9 498.1,346.3 496.3,346.3 		"/>
		<rect x="493.2" y="345.6" class="st22" width="0.6" height="16.1"/>
		
			<rect x="493.1" y="348.6" transform="matrix(2.855120e-11 1 -1 2.855120e-11 847.1271 -139.8585)" class="st22" width="0.8" height="10.1"/>
	</g>
	<g>
		<rect x="501.2" y="321.8" class="st22" width="10.6" height="16.1"/>
		
			<rect x="499.1" y="325.1" transform="matrix(-1.836970e-16 1 -1 -1.836970e-16 836.2047 -176.6738)" class="st14" width="14.6" height="9.2"/>
		<polygon class="st20" points="501.9,337.1 511.1,337.1 511.1,322.5 509.2,322.5 		"/>
		<rect x="506.1" y="321.8" class="st22" width="0.6" height="16.1"/>
		
			<rect x="506.1" y="324.8" transform="matrix(2.974136e-11 1 -1 2.974136e-11 836.2881 -176.6161)" class="st22" width="0.8" height="10.1"/>
	</g>
	<g>
		<rect x="514.2" y="321.8" class="st22" width="10.6" height="16.1"/>
		
			<rect x="512.1" y="325.1" transform="matrix(-1.836970e-16 1 -1 -1.836970e-16 849.204 -189.6732)" class="st14" width="14.6" height="9.2"/>
		<polygon class="st20" points="514.9,337.1 524.1,337.1 524.1,322.5 522.2,322.5 		"/>
		<rect x="519.1" y="321.8" class="st22" width="0.6" height="16.1"/>
		
			<rect x="519.1" y="324.8" transform="matrix(3.331006e-11 1 -1 3.331006e-11 849.3135 -189.6415)" class="st22" width="0.8" height="10.1"/>
	</g>
	<g>
		<rect x="488.2" y="321.8" class="st22" width="10.6" height="16.1"/>
		
			<rect x="486.1" y="325.1" transform="matrix(-1.836970e-16 1 -1 -1.836970e-16 823.2064 -163.6755)" class="st14" width="14.6" height="9.2"/>
		<polygon class="st20" points="488.9,337.1 498.1,337.1 498.1,322.5 496.2,322.5 		"/>
		<rect x="493.1" y="321.8" class="st22" width="0.6" height="16.1"/>
		
			<rect x="493.1" y="324.8" transform="matrix(2.974136e-11 1 -1 2.974136e-11 823.2899 -163.6178)" class="st22" width="0.8" height="10.1"/>
	</g>
	<rect x="485.3" y="295.8" class="st6" width="42.2" height="21.6"/>
	<rect x="527" y="295.5" class="st4" width="0.6" height="22"/>
	
		<rect x="506.1" y="296" transform="matrix(6.123234e-17 -1 1 6.123234e-17 189.3512 823.4814)" class="st4" width="0.7" height="42.2"/>
	<rect x="485.3" y="295.5" class="st4" width="0.6" height="22"/>
</g>
<g>
	<polygon class="st19" points="583.8,400.3 525.9,400.3 525.9,280.8 554.5,275.4 583.8,282.2 	"/>
	<g>
		<rect x="534.2" y="294.1" class="st22" width="17" height="17"/>
		
			<rect x="535" y="295.1" transform="matrix(-1.836970e-16 1 -1 -1.836970e-16 845.2324 -240.1507)" class="st14" width="15.4" height="14.9"/>
		<polygon class="st20" points="535.4,310.3 550.1,310.3 550.1,294.8 547.2,294.8 		"/>
		<rect x="542.2" y="294.1" class="st22" width="0.9" height="17"/>
		
			<rect x="542.3" y="294.5" transform="matrix(4.734328e-11 1 -1 4.734328e-11 845.3277 -240.097)" class="st22" width="0.8" height="16.2"/>
	</g>
	<g>
		<rect x="558.8" y="294.2" class="st22" width="17" height="17"/>
		
			<rect x="559.6" y="295.2" transform="matrix(-1.836970e-16 1 -1 -1.836970e-16 869.9576 -264.5778)" class="st14" width="15.4" height="14.9"/>
		<polygon class="st20" points="559.9,310.4 574.7,310.4 574.7,295 571.8,295 		"/>
		<rect x="566.8" y="294.2" class="st22" width="0.9" height="17"/>
		
			<rect x="566.9" y="294.6" transform="matrix(4.734328e-11 1 -1 4.734328e-11 870.0529 -264.524)" class="st22" width="0.8" height="16.2"/>
	</g>
	<g>
		<rect x="529.7" y="320" class="st22" width="19.5" height="26.2"/>
		
			<rect x="527.4" y="324.4" transform="matrix(-1.836970e-16 1 -1 -1.836970e-16 872.4092 -206.555)" class="st14" width="24.2" height="17"/>
		<polygon class="st20" points="531.1,345 548,345 548,320.8 544.6,320.8 		"/>
		<rect x="538.9" y="320" class="st22" width="1.1" height="25.5"/>
		
			<rect x="539" y="315.3" transform="matrix(4.435722e-11 1 -1 4.435722e-11 864.0949 -214.9167)" class="st22" width="0.9" height="18.6"/>
		
			<rect x="539" y="329.5" transform="matrix(4.435722e-11 1 -1 4.435722e-11 878.251 -200.7606)" class="st22" width="0.9" height="18.6"/>
	</g>
	<g>
		
			<rect x="556.4" y="346.7" transform="matrix(-1.836970e-16 1 -1 -1.836970e-16 925.8607 -206.3302)" class="st22" width="19.5" height="26.2"/>
		
			<rect x="554.6" y="351.2" transform="matrix(-1 -1.224647e-16 1.224647e-16 -1 1132.2313 719.5306)" class="st14" width="23" height="17"/>
		<polygon class="st20" points="559.4,368.3 577.6,368.3 577.6,351.3 574,351.3 		"/>
		
			<rect x="565.9" y="341.9" transform="matrix(-1.836970e-16 1 -1 -1.836970e-16 921.0535 -211.8183)" class="st22" width="1.1" height="25.5"/>
		
			<rect x="565.9" y="350.9" transform="matrix(-1.836970e-16 1 -1 -1.836970e-16 930.0619 -202.8098)" class="st22" width="1.1" height="25.5"/>
		
			<rect x="574.1" y="350.5" transform="matrix(-1 4.139965e-11 -4.139965e-11 -1 1149.1849 719.5781)" class="st22" width="0.9" height="18.6"/>
		
			<rect x="560" y="350.5" transform="matrix(-1 4.139965e-11 -4.139965e-11 -1 1120.8727 719.5781)" class="st22" width="0.9" height="18.6"/>
	</g>
	<g>
		<rect x="553" y="319.9" class="st22" width="26.2" height="26.3"/>
		
			<rect x="554.2" y="321.4" transform="matrix(-1.836970e-16 1 -1 -1.836970e-16 899.024 -233.1668)" class="st14" width="23.8" height="23"/>
		<polygon class="st20" points="559.4,344.8 577.6,344.8 577.6,321 574,321 		"/>
		<rect x="565.6" y="319.9" class="st22" width="0.9" height="26.3"/>
		
			<rect x="565.7" y="312.1" transform="matrix(6.111094e-11 1 -1 6.111094e-11 890.7166 -241.5384)" class="st22" width="0.9" height="25"/>
		
			<rect x="565.7" y="326.2" transform="matrix(6.308180e-11 1 -1 6.308180e-11 904.9374 -227.4469)" class="st22" width="0.9" height="25"/>
	</g>
	<linearGradient id="SVGID_3_" gradientUnits="userSpaceOnUse" x1="554.8366" y1="289.9111" x2="554.8366" y2="271.6551">
		<stop  offset="0" style="stop-color:#B42725"/>
		<stop  offset="0.1384" style="stop-color:#B42B29"/>
		<stop  offset="0.2759" style="stop-color:#B43635"/>
		<stop  offset="0.4129" style="stop-color:#B34849"/>
		<stop  offset="0.5498" style="stop-color:#B36265"/>
		<stop  offset="0.6867" style="stop-color:#B38389"/>
		<stop  offset="0.8235" style="stop-color:#B2ACB5"/>
		<stop  offset="0.9579" style="stop-color:#B1DCE8"/>
		<stop  offset="1" style="stop-color:#B1ECFA"/>
	</linearGradient>
	<path class="st25" d="M583.8,286.1v3.8l-29-14.1l-29,14.1v-3.8c10.3-4.8,19.6-9.7,29.4-14.5C564.8,276.5,574.8,281.3,583.8,286.1z"
		/>
	<polygon class="st24" points="583.7,279.5 562.3,269.1 555,265.5 525.8,279.7 520.1,282.5 520.1,289.7 525.8,286.9 555,272.7 
		583.7,286.7 589.7,289.6 589.7,282.4 	"/>
	<g>
		<rect x="529.7" y="396.3" class="st14" width="18.4" height="2"/>
		<rect x="529.7" y="398.3" class="st20" width="18.4" height="2"/>
		<rect x="531.2" y="373.1" class="st22" width="15.3" height="23.2"/>
		
			<rect x="527.7" y="378.4" transform="matrix(-1.836970e-16 1 -1 -1.836970e-16 924.0029 -153.7807)" class="st14" width="22.4" height="13.4"/>
		<circle class="st20" cx="534.3" cy="384.4" r="0.7"/>
		<polygon class="st20" points="545.6,396.3 545.6,373.9 542.8,373.9 532.2,396.3 		"/>
	</g>
	<g>
		<rect x="529.7" y="350" class="st22" width="5.6" height="5.6"/>
		
			<rect x="530.4" y="350.7" transform="matrix(-1.836970e-16 1 -1 -1.836970e-16 885.3798 -179.7139)" class="st26" width="4.3" height="4.3"/>
	</g>
	<g>
		<rect x="537.5" y="350" class="st22" width="5.6" height="5.6"/>
		
			<rect x="538.1" y="350.7" transform="matrix(-1.836970e-16 1 -1 -1.836970e-16 893.1013 -187.4355)" class="st26" width="4.3" height="4.3"/>
	</g>
</g>
<g>
	<path class="st19" d="M890.6,525.3L890.6,525.3c-7,0-12.8-5.7-12.8-12.8l0,0c0-7,5.7-12.8,12.8-12.8h0c7,0,12.8,5.7,12.8,12.8l0,0
		C903.4,519.6,897.7,525.3,890.6,525.3z"/>
	<path class="st19" d="M845,511.6v2c0,6.5-5.7,11.4-12.2,11.4H730.1c-1.6,0-2.2-0.1-3.6-0.7c-4.3-1.8-6.5-5.8-6.5-10.7v-2
		c0-6.5,3.6-12.6,10.1-12.6h102.8c1,0,2,0.6,2.9,0.8c4.1,1.1,7.6,4.5,8.6,8.6C844.7,509.4,845,510.6,845,511.6z"/>
	<path class="st19" d="M790,426h-13.6c-9.4,0-17.1,5-17.1,11.5S767,449,776.4,449h294.5c0.9,0,1.8-0.1,2.7,0
		c2.4,0.4,4.5,1.1,6.3,2.2c0.9,0.6,2.7,1.2,3.4,1.9c2.3,2.2,4.6,5,4.6,8v1.6c0,6.5-8.4,10.4-17.1,10.4H323.7c-2.5,0-4.8,0-6.9-0.6
		c-0.2,0-0.3-0.1-0.5-0.1c-0.5-0.2-1.1-0.4-1.5-0.7c-1.3-0.7-2.4-1.2-3.3-2.1c-0.8-0.8-0.7-1.5-1.2-2.5c-0.7-1.4-0.3-2.7-0.3-4.3
		v-1.6c0-6.5,5.1-12.1,13.7-12.1h96.1c8.7,0,14.1-5.5,14.1-12v0c0-6.5-5.5-13-14.1-13H111.7c-2,0-3.4,0.3-5-0.4
		c-4.9-2-7.7-5.9-7.7-10.4v-1.6c0-6.5,5.9-11.6,14.5-11.6h1063.8c4.1,0,8,1.1,10.9,3l1.4,1.3c2.3,2,3.3,4.5,3.3,7.3v1.6
		c0,0.8,0,5-4.3,8c-3.5,2.5-7.2,2.8-8.4,2.8c-0.8,0.1-1.5,0-2.4,0c-0.6,0-1-0.1-1.5-0.1H797"/>
</g>
<g>
	<g>
		<line class="st27" x1="121" y1="411.5" x2="124" y2="411.5"/>
		<line class="st28" x1="132" y1="411.5" x2="1164" y2="411.5"/>
		<line class="st27" x1="1168" y1="411.5" x2="1171" y2="411.5"/>
	</g>
</g>
<g>
	<path class="st29" d="M738.8,405.7h-49.4c1.1-5,2.2-10.1,3.3-15.1c0.1-0.3,0.4-0.9,1-1.4c0.9-0.8,2-1,2.4-1h36.1
		c0.4,0,1.5,0.2,2.4,1c0.6,0.5,0.8,1.1,0.9,1.4C736.6,395.6,737.7,400.6,738.8,405.7z"/>
	<path class="st30" d="M691.8,405l2.8-13.5c0.1-0.2,0.3-1.2,0.5-1.3c0.4-0.3,0.8-1.2,1.1-1.2H732c0.3,0,0.7,0.6,1.1,0.9
		c0.2,0.2,0.3,1.2,0.4,1.4l2.9,13.7H691.8z"/>
	<path class="st29" d="M742.1,421.8h-68.4c-1.8,0-3.3-1.5-3.3-3.3v-12.1c0-1.8,1.5-3.3,3.3-3.3h68.4c1.8,0,3.3,1.5,3.3,3.3v12.1
		C745.4,420.3,743.9,421.8,742.1,421.8z"/>
	<rect x="714.1" y="388.6" class="st29" width="1.7" height="17.2"/>
	<path class="st4" d="M712,408.2H709c-0.6,0-1.1-0.5-1.1-1.1l0,0c0-0.6,0.5-1.1,1.1-1.1h3.1c0.6,0,1.1,0.5,1.1,1.1l0,0
		C713.1,407.7,712.6,408.2,712,408.2z"/>
	<path class="st31" d="M675,407.1h-4.7v5.4h4.7c1.2,0,2.1-1.2,2.1-2.7C677.2,408.3,676.2,407.1,675,407.1z"/>
	<path class="st31" d="M742.1,412.5h3.3v-5.4h-3.3c-0.8,0-1.5,1.2-1.5,2.7C740.6,411.3,741.3,412.5,742.1,412.5z"/>
	<g>
		<path class="st4" d="M691.9,421.9c-0.4-4.7-4.2-8.3-9-8.3c-4.8,0-8.6,3.7-9,8.3H691.9z"/>
	</g>
	<g>
		<path class="st4" d="M741.9,421.9c-0.4-4.7-4.2-8.3-9-8.3c-4.8,0-8.6,3.7-9,8.3H741.9z"/>
	</g>
	<g>
		<circle class="st7" cx="682.9" cy="422.6" r="6.6"/>
		<circle class="st26" cx="682.9" cy="422.6" r="4"/>
	</g>
	<g>
		<circle class="st7" cx="732.9" cy="422.6" r="6.6"/>
		<circle class="st26" cx="732.9" cy="422.6" r="4"/>
	</g>
</g>
<g>
	<rect x="591.1" y="387.9" class="st7" width="2.3" height="12.4"/>
	<path class="st32" d="M605.9,378.3c0.6-0.9,0.9-2,0.9-3.2c0-3.4-2.8-6.2-6.2-6.2c-0.8,0-1.5,0.1-2.2,0.4c-0.7-2.7-3.1-4.7-6-4.7
		c-2.4,0-4.5,1.4-5.5,3.4c-0.7-0.2-1.4-0.4-2.1-0.4c-3.4,0-6.2,2.8-6.2,6.2c0,1.6,0.6,3,1.6,4.1c-1.5,1.1-2.4,2.9-2.4,4.9
		c0,3.4,2.8,6.2,6.2,6.2c0.6,0,1.2-0.1,1.8-0.3c1.7,1.5,3.9,2.3,6.4,2.3c2.6,0,5-1,6.8-2.7c0.8,0.4,1.7,0.6,2.7,0.6
		c3.4,0,6.2-2.8,6.2-6.2C607.9,381.1,607.1,379.5,605.9,378.3z"/>
	<path class="st6" d="M605.9,378.3c0.6-0.9,0.9-2,0.9-3.2c0-3.4-2.8-6.2-6.2-6.2c-0.8,0-1.5,0.1-2.2,0.4c-0.6-2.6-2.9-4.5-5.6-4.7
		v26.4c2.4-0.2,4.5-1.1,6.1-2.7c0.8,0.4,1.7,0.6,2.7,0.6c3.4,0,6.2-2.8,6.2-6.2C607.9,381.1,607.1,379.5,605.9,378.3z"/>
</g>
<g>
	<rect x="422" y="384.5" class="st7" width="2.9" height="15.8"/>
	<path class="st4" d="M441,372.2c0.7-1.2,1.2-2.6,1.2-4.1c0-4.4-3.5-7.9-7.9-7.9c-1,0-1.9,0.2-2.8,0.5c-0.9-3.4-3.9-6-7.6-6
		c-3.1,0-5.7,1.8-7,4.3c-0.8-0.3-1.7-0.5-2.7-0.5c-4.4,0-7.9,3.5-7.9,7.9c0,2,0.8,3.9,2,5.3c-1.9,1.4-3.1,3.7-3.1,6.2
		c0,4.4,3.5,7.9,7.9,7.9c0.8,0,1.5-0.1,2.3-0.3c2.2,1.9,5,3,8.1,3c3.4,0,6.4-1.3,8.6-3.5c1,0.5,2.2,0.8,3.4,0.8
		c4.4,0,7.9-3.5,7.9-7.9C443.5,375.7,442.5,373.7,441,372.2z"/>
	<path class="st6" d="M441,372.2c0.7-1.2,1.2-2.6,1.2-4.1c0-4.4-3.5-7.9-7.9-7.9c-1,0-1.9,0.2-2.8,0.5c-0.8-3.3-3.7-5.7-7.2-5.9
		v33.7c3-0.2,5.7-1.5,7.8-3.4c1,0.5,2.2,0.8,3.4,0.8c4.4,0,7.9-3.5,7.9-7.9C443.5,375.7,442.5,373.7,441,372.2z"/>
</g>
<g>
	<rect x="416.6" y="389.6" class="st6" width="2" height="10.7"/>
	<path class="st32" d="M429.3,381.4c0.5-0.8,0.8-1.8,0.8-2.8c0-2.9-2.4-5.3-5.3-5.3c-0.7,0-1.3,0.1-1.9,0.3c-0.6-2.3-2.7-4-5.2-4
		c-2.1,0-3.9,1.2-4.7,2.9c-0.6-0.2-1.2-0.3-1.8-0.3c-2.9,0-5.3,2.4-5.3,5.3c0,1.4,0.5,2.6,1.4,3.5c-1.3,1-2.1,2.5-2.1,4.2
		c0,2.9,2.4,5.3,5.3,5.3c0.5,0,1-0.1,1.5-0.2c1.5,1.3,3.4,2,5.5,2c2.3,0,4.3-0.9,5.8-2.3c0.7,0.3,1.5,0.5,2.3,0.5
		c2.9,0,5.3-2.4,5.3-5.3C431,383.7,430.4,382.3,429.3,381.4z"/>
	<path class="st4" d="M429.3,381.4c0.5-0.8,0.8-1.8,0.8-2.8c0-2.9-2.4-5.3-5.3-5.3c-0.7,0-1.3,0.1-1.9,0.3c-0.6-2.2-2.5-3.9-4.8-4
		v22.8c2-0.1,3.9-1,5.3-2.3c0.7,0.3,1.5,0.5,2.3,0.5c2.9,0,5.3-2.4,5.3-5.3C431,383.7,430.4,382.3,429.3,381.4z"/>
</g>
</svg>
