<svg id="Layer_1" data-name="Layer 1" xmlns="http://www.w3.org/2000/svg" viewBox="0 0 1280 600"><defs><style>.cls-1{fill:#ffec80;}.cls-2{fill:#ff5c5c;}.cls-3{fill:#ffe761;}.cls-4{fill:#515151;}.cls-5{fill:#ff7d7d;}.cls-6{fill:#1a1a1a;}.cls-7{fill:#940048;}.cls-8{opacity:0.51;}.cls-9{fill:#f3f3f3;}.cls-10{fill:red;}.cls-11{fill:#ffda0a;}.cls-12{fill:#305944;}.cls-13{fill:#4d4d4d;}.cls-14{fill:#b3b3b3;}.cls-15{fill:#09f;}.cls-16{fill:#00385d;}.cls-17{fill:#b2edcf;}.cls-18{fill:#b9e3ff;}</style></defs><title>lisboncolour</title><rect class="cls-1" x="41.67" y="321.3" width="81.3" height="121.91"/><rect class="cls-1" x="121.23" y="321.3" width="141.88" height="121.91"/><rect class="cls-2" x="135.45" y="334.68" width="21.38" height="34.57"/><rect class="cls-3" x="130" y="342" width="32" height="18" transform="translate(497 205) rotate(90)"/><polygon class="cls-4" points="136.6 367 155 367 155 335 151.37 335 136.6 367"/><rect class="cls-2" x="145.55" y="334.68" width="1.19" height="34.57"/><rect class="cls-2" x="225.79" y="334.68" width="21.38" height="34.57"/><rect class="cls-3" x="220" y="341" width="32" height="20" transform="translate(587 115) rotate(90)"/><polygon class="cls-4" points="226.94 367 246 367 246 335 241.7 335 226.94 367"/><rect class="cls-2" x="235.88" y="334.68" width="1.19" height="34.57"/><rect class="cls-2" x="54.85" y="334.68" width="23.01" height="37.2"/><rect class="cls-3" x="49" y="343" width="35" height="21" transform="translate(420 287) rotate(90)"/><polygon class="cls-4" points="56.09 371 77 371 77 336 71.97 336 56.09 371"/><rect class="cls-2" x="65.71" y="334.68" width="1.28" height="37.2"/><rect class="cls-2" x="81.83" y="334.68" width="23.01" height="37.2"/><rect class="cls-3" x="75.5" y="343.5" width="35" height="20" transform="translate(446.5 260.5) rotate(90)"/><polygon class="cls-4" points="83.07 371 103 371 103 336 98.96 336 83.07 371"/><rect class="cls-2" x="92.7" y="334.68" width="1.28" height="37.2"/><rect class="cls-2" x="49.72" y="394.26" width="18.37" height="29.7"/><rect class="cls-3" x="44.5" y="400.5" width="28" height="17" transform="translate(467.5 350.5) rotate(90)"/><polygon class="cls-4" points="50.71 423 67 423 67 395 63.39 395 50.71 423"/><rect class="cls-2" x="58.39" y="394.26" width="1.02" height="29.7"/><rect class="cls-2" x="71.26" y="394.26" width="18.37" height="29.7"/><rect class="cls-3" x="66.5" y="401.5" width="28" height="15" transform="translate(489.5 328.5) rotate(90)"/><polygon class="cls-4" points="72.25 423 88 423 88 395 84.93 395 72.25 423"/><rect class="cls-2" x="79.93" y="394.26" width="1.02" height="29.7"/><rect class="cls-2" x="92.4" y="394.26" width="18.37" height="29.7"/><rect class="cls-3" x="88" y="401" width="28" height="16" transform="translate(511 307) rotate(90)"/><polygon class="cls-4" points="93.39 423 110 423 110 395 106.08 395 93.39 423"/><rect class="cls-2" x="101.08" y="394.26" width="1.02" height="29.7"/><rect class="cls-5" x="47.74" y="369.65" width="63.37" height="6.67"/><rect class="cls-5" x="47.74" y="359.89" width="3.72" height="16.27"/><rect class="cls-5" x="107.38" y="359.89" width="3.72" height="16.27"/><rect class="cls-5" x="48.41" y="359.89" width="62.69" height="1.39"/><rect class="cls-1" x="262.05" y="321.3" width="81.3" height="121.91"/><rect class="cls-2" x="275.23" y="334.68" width="23.01" height="37.2"/><rect class="cls-3" x="268.5" y="343.5" width="35" height="20" transform="translate(639.5 67.5) rotate(90)"/><polygon class="cls-4" points="276.47 371 296 371 296 336 292.36 336 276.47 371"/><rect class="cls-2" x="286.1" y="334.68" width="1.28" height="37.2"/><rect class="cls-2" x="302.22" y="334.68" width="23.01" height="37.2"/><rect class="cls-3" x="296.5" y="343.5" width="35" height="20" transform="translate(667.5 39.5) rotate(90)"/><polygon class="cls-4" points="303.46 371 324 371 324 336 319.35 336 303.46 371"/><rect class="cls-2" x="313.08" y="334.68" width="1.28" height="37.2"/><rect class="cls-2" x="270.11" y="394.26" width="18.37" height="29.7"/><rect class="cls-3" x="265" y="401" width="28" height="16" transform="translate(688 130) rotate(90)"/><polygon class="cls-4" points="271.1 423 287 423 287 395 283.78 395 271.1 423"/><rect class="cls-2" x="278.78" y="394.26" width="1.02" height="29.7"/><rect class="cls-2" x="291.65" y="394.26" width="18.37" height="29.7"/><rect class="cls-3" x="287.5" y="401.5" width="28" height="15" transform="translate(710.5 107.5) rotate(90)"/><polygon class="cls-4" points="292.64 423 309 423 309 395 305.32 395 292.64 423"/><rect class="cls-2" x="300.32" y="394.26" width="1.02" height="29.7"/><rect class="cls-2" x="312.79" y="394.26" width="18.37" height="29.7"/><rect class="cls-3" x="308" y="400" width="28" height="18" transform="translate(731 87) rotate(90)"/><polygon class="cls-4" points="313.78 423 331 423 331 395 326.46 395 313.78 423"/><rect class="cls-2" x="321.46" y="394.26" width="1.02" height="29.7"/><rect class="cls-5" x="268.12" y="369.65" width="63.37" height="6.67"/><rect class="cls-5" x="268.76" y="359.89" width="3.72" height="16.27"/><rect class="cls-5" x="328.32" y="359.89" width="3.72" height="16.27"/><rect class="cls-5" x="268.8" y="359.89" width="62.69" height="1.39"/><rect class="cls-2" x="172.49" y="337.24" width="17.83" height="28.83"/><rect class="cls-3" x="167.5" y="343.5" width="27" height="16" transform="translate(532.5 170.5) rotate(90)"/><polygon class="cls-4" points="173.45 365 189 365 189 338 185.76 338 173.45 365"/><rect class="cls-2" x="180.91" y="337.24" width="0.99" height="28.83"/><rect class="cls-2" x="193.4" y="337.24" width="17.83" height="28.83"/><rect class="cls-3" x="189" y="344" width="27" height="15" transform="translate(554 149) rotate(90)"/><polygon class="cls-4" points="194.36 365 210 365 210 338 206.67 338 194.36 365"/><rect class="cls-2" x="201.82" y="337.24" width="0.99" height="28.83"/><rect class="cls-5" x="166.98" y="364.34" width="49.1" height="5.16"/><rect class="cls-5" x="166.98" y="356.78" width="2.89" height="12.6"/><rect class="cls-5" x="213.2" y="356.78" width="2.89" height="12.6"/><rect class="cls-5" x="167.5" y="356.78" width="48.58" height="1.08"/><rect class="cls-2" x="135.45" y="389.13" width="21.38" height="34.57"/><rect class="cls-3" x="129.5" y="396.5" width="33" height="18" transform="translate(551.5 259.5) rotate(90)"/><polygon class="cls-4" points="136.6 422 155 422 155 389 151.37 389 136.6 422"/><rect class="cls-2" x="145.55" y="389.13" width="1.19" height="34.57"/><rect class="cls-2" x="225.79" y="389.13" width="21.38" height="34.57"/><rect class="cls-3" x="219.5" y="395.5" width="33" height="20" transform="translate(641.5 169.5) rotate(90)"/><polygon class="cls-4" points="226.94 422 246 422 246 389 241.7 389 226.94 422"/><rect class="cls-2" x="235.88" y="389.13" width="1.19" height="34.57"/><rect class="cls-2" x="172.49" y="391.7" width="17.83" height="28.83"/><rect class="cls-3" x="167.5" y="398.5" width="27" height="16" transform="translate(587.5 225.5) rotate(90)"/><polygon class="cls-4" points="173.45 420 189 420 189 393 185.76 393 173.45 420"/><rect class="cls-2" x="180.91" y="391.7" width="0.99" height="28.83"/><rect class="cls-2" x="193.4" y="391.7" width="17.83" height="28.83"/><rect class="cls-3" x="189" y="399" width="27" height="15" transform="translate(609 204) rotate(90)"/><polygon class="cls-4" points="194.36 420 210 420 210 393 206.67 393 194.36 420"/><rect class="cls-2" x="201.82" y="391.7" width="0.99" height="28.83"/><rect class="cls-5" x="166.98" y="418.79" width="49.1" height="5.16"/><rect class="cls-5" x="166.98" y="411.24" width="2.89" height="12.6"/><rect class="cls-5" x="213.2" y="411.24" width="2.89" height="12.6"/><rect class="cls-5" x="167.5" y="411.24" width="48.58" height="1.08"/><polygon class="cls-5" points="41.82 315.01 74.56 285 310.32 285 340.23 314.85 41.82 315.01"/><rect class="cls-6" x="41.67" y="314.91" width="301.69" height="6.39"/><rect class="cls-1" x="340.63" y="356.13" width="101.18" height="86.94"/><rect class="cls-2" x="350.78" y="365.67" width="15.25" height="24.65"/><rect class="cls-3" x="347" y="371" width="23" height="13" transform="translate(736 19) rotate(90)"/><polygon class="cls-4" points="351.6 389 365 389 365 366 362.13 366 351.6 389"/><rect class="cls-2" x="357.98" y="365.67" width="0.85" height="24.65"/><rect class="cls-2" x="415.2" y="365.67" width="15.25" height="24.65"/><rect class="cls-3" x="410.5" y="370.5" width="23" height="14" transform="translate(799.5 -44.5) rotate(90)"/><polygon class="cls-4" points="416.02 389 429 389 429 366 426.55 366 416.02 389"/><rect class="cls-2" x="422.4" y="365.67" width="0.85" height="24.65"/><rect class="cls-2" x="377.19" y="367.5" width="12.71" height="20.56"/><rect class="cls-3" x="374.5" y="372.5" width="18" height="11" transform="translate(761.5 -5.5) rotate(90)"/><polygon class="cls-4" points="377.88 387 389 387 389 369 386.65 369 377.88 387"/><rect class="cls-2" x="383.19" y="367.5" width="0.71" height="20.56"/><rect class="cls-2" x="392.1" y="367.5" width="12.71" height="20.56"/><rect class="cls-3" x="389.5" y="372.5" width="18" height="11" transform="translate(776.5 -20.5) rotate(90)"/><polygon class="cls-4" points="392.79 387 404 387 404 369 401.57 369 392.79 387"/><rect class="cls-2" x="398.11" y="367.5" width="0.71" height="20.56"/><rect class="cls-5" x="373.26" y="386.82" width="35.02" height="3.68"/><rect class="cls-5" x="373.26" y="381.43" width="2.06" height="8.99"/><rect class="cls-5" x="406.22" y="381.43" width="2.06" height="8.99"/><rect class="cls-5" x="373.63" y="381.43" width="34.64" height="0.77"/><rect class="cls-2" x="350.78" y="404.51" width="15.25" height="24.65"/><rect class="cls-3" x="347" y="410" width="23" height="13" transform="translate(775 58) rotate(90)"/><polygon class="cls-4" points="351.6 428 365 428 365 405 362.13 405 351.6 428"/><rect class="cls-2" x="357.98" y="404.51" width="0.85" height="24.65"/><rect class="cls-2" x="415.2" y="404.51" width="15.25" height="24.65"/><rect class="cls-3" x="410.5" y="409.5" width="23" height="14" transform="translate(838.5 -5.5) rotate(90)"/><polygon class="cls-4" points="416.02 428 429 428 429 405 426.55 405 416.02 428"/><rect class="cls-2" x="422.4" y="404.51" width="0.85" height="24.65"/><rect class="cls-2" x="377.19" y="406.33" width="12.71" height="20.56"/><rect class="cls-3" x="373.5" y="411.5" width="20" height="11" transform="translate(800.5 33.5) rotate(90)"/><polygon class="cls-4" points="377.88 427 389 427 389 407 386.65 407 377.88 427"/><rect class="cls-2" x="383.19" y="406.33" width="0.71" height="20.56"/><rect class="cls-2" x="392.1" y="406.33" width="12.71" height="20.56"/><rect class="cls-3" x="388.5" y="411.5" width="20" height="11" transform="translate(815.5 18.5) rotate(90)"/><polygon class="cls-4" points="392.79 427 404 427 404 407 401.57 407 392.79 427"/><rect class="cls-2" x="398.11" y="406.33" width="0.71" height="20.56"/><rect class="cls-5" x="373.26" y="425.66" width="35.02" height="3.68"/><rect class="cls-5" x="373.26" y="420.27" width="2.06" height="8.99"/><rect class="cls-5" x="406.22" y="420.27" width="2.06" height="8.99"/><rect class="cls-5" x="373.63" y="420.27" width="34.64" height="0.77"/><polygon class="cls-7" points="340.63 356.28 351.61 335 430.73 335 440.77 356.23 340.63 356.28"/><rect class="cls-6" x="340.58" y="356.08" width="101.24" height="4.56"/><g class="cls-8"><ellipse class="cls-9" cx="248.56" cy="335.04" rx="3.06" ry="3.83" transform="translate(-89.91 91.17) rotate(-17.66)"/><ellipse class="cls-9" cx="244.77" cy="333.2" rx="2.13" ry="2.66" transform="translate(-89.53 89.94) rotate(-17.66)"/><ellipse class="cls-9" cx="248.02" cy="338.33" rx="2.66" ry="3.85" transform="translate(-90.93 91.17) rotate(-17.66)"/></g><g class="cls-8"><ellipse class="cls-9" cx="52.46" cy="332.08" rx="3.83" ry="3.06" transform="translate(-125.76 47.01) rotate(-23.04)"/><ellipse class="cls-9" cx="53.94" cy="328.14" rx="2.66" ry="2.13" transform="translate(-124.1 47.27) rotate(-23.04)"/><ellipse class="cls-9" cx="49.14" cy="331.86" rx="3.85" ry="2.66" transform="translate(-125.94 45.69) rotate(-23.04)"/></g><g class="cls-8"><ellipse class="cls-9" cx="332.38" cy="383.48" rx="3.83" ry="3.06" transform="translate(-123.56 160.64) rotate(-23.04)"/><ellipse class="cls-9" cx="333.86" cy="379.54" rx="2.66" ry="2.13" transform="translate(-121.89 160.9) rotate(-23.04)"/><ellipse class="cls-9" cx="329.06" cy="383.26" rx="3.85" ry="2.66" transform="translate(-123.73 159.32) rotate(-23.04)"/></g><rect class="cls-9" x="155.55" y="244.93" width="145.16" height="127.36"/><rect class="cls-2" x="170.1" y="260.54" width="21.88" height="40.34"/><rect class="cls-3" x="161.5" y="270.5" width="38" height="19" transform="translate(460.5 99.5) rotate(90)"/><polygon class="cls-4" points="171.28 299 190 299 190 261 186.38 261 171.28 299"/><rect class="cls-2" x="180.43" y="260.54" width="1.22" height="40.34"/><rect class="cls-2" x="262.52" y="260.54" width="21.88" height="40.34"/><rect class="cls-3" x="254" y="270" width="38" height="20" transform="translate(553 7) rotate(90)"/><polygon class="cls-4" points="263.69 299 283 299 283 261 278.8 261 263.69 299"/><rect class="cls-2" x="272.85" y="260.54" width="1.22" height="40.34"/><rect class="cls-2" x="207.99" y="263.53" width="18.24" height="33.64"/><rect class="cls-3" x="201.5" y="272.5" width="31" height="16" transform="translate(497.5 63.5) rotate(90)"/><polygon class="cls-4" points="208.97 296 225 296 225 265 221.57 265 208.97 296"/><rect class="cls-2" x="216.6" y="263.53" width="1.02" height="33.64"/><rect class="cls-2" x="229.38" y="263.53" width="18.24" height="33.64"/><rect class="cls-3" x="223" y="273" width="31" height="15" transform="translate(519 42) rotate(90)"/><polygon class="cls-4" points="230.37 296 246 296 246 265 242.96 265 230.37 296"/><rect class="cls-2" x="238" y="263.53" width="1.02" height="33.64"/><rect class="cls-2" x="170.1" y="324.09" width="21.88" height="40.34"/><rect class="cls-3" x="162" y="334" width="37" height="19" transform="translate(524 163) rotate(90)"/><polygon class="cls-4" points="171.28 362 190 362 190 325 186.38 325 171.28 362"/><rect class="cls-2" x="180.43" y="324.09" width="1.22" height="40.34"/><rect class="cls-2" x="262.52" y="324.09" width="21.88" height="40.34"/><rect class="cls-3" x="254.5" y="333.5" width="37" height="20" transform="translate(616.5 70.5) rotate(90)"/><polygon class="cls-4" points="263.69 362 283 362 283 325 278.8 325 263.69 362"/><rect class="cls-2" x="272.85" y="324.09" width="1.22" height="40.34"/><rect class="cls-2" x="207.99" y="327.08" width="18.24" height="33.64"/><rect class="cls-3" x="201" y="336" width="32" height="16" transform="translate(561 127) rotate(90)"/><polygon class="cls-4" points="208.97 360 225 360 225 328 221.57 328 208.97 360"/><rect class="cls-2" x="216.6" y="327.08" width="1.02" height="33.64"/><rect class="cls-2" x="229.38" y="327.08" width="18.24" height="33.64"/><rect class="cls-3" x="222.5" y="336.5" width="32" height="15" transform="translate(582.5 105.5) rotate(90)"/><polygon class="cls-4" points="230.37 360 246 360 246 328 242.96 328 230.37 360"/><rect class="cls-2" x="238" y="327.08" width="1.02" height="33.64"/><polyline class="cls-10" points="284.8 209.7 299.2 244.6 155.54 244.85 171.3 209.7"/><rect class="cls-6" x="155.46" y="244.85" width="145.24" height="7.46"/><rect class="cls-1" x="242.07" y="302.49" width="185.63" height="142.8"/><rect class="cls-2" x="260.68" y="320" width="27.98" height="45.23"/><rect class="cls-3" x="253.5" y="329.5" width="42" height="25" transform="translate(616.5 67.5) rotate(90)"/><polygon class="cls-4" points="262.19 363 287 363 287 321 281.5 321 262.19 363"/><rect class="cls-2" x="273.89" y="320" width="1.56" height="45.23"/><rect class="cls-2" x="378.87" y="320" width="27.98" height="45.23"/><rect class="cls-3" x="371.5" y="329.5" width="42" height="25" transform="translate(734.5 -50.5) rotate(90)"/><polygon class="cls-4" points="380.38 363 405 363 405 321 399.69 321 380.38 363"/><rect class="cls-2" x="392.08" y="320" width="1.56" height="45.23"/><rect class="cls-2" x="309.14" y="323.35" width="23.33" height="37.71"/><rect class="cls-3" x="303" y="332" width="35" height="21" transform="translate(663 22) rotate(90)"/><polygon class="cls-4" points="310.4 360 331 360 331 325 326.5 325 310.4 360"/><rect class="cls-2" x="320.15" y="323.35" width="1.3" height="37.71"/><rect class="cls-2" x="336.5" y="323.35" width="23.33" height="37.71"/><rect class="cls-3" x="331" y="333" width="35" height="19" transform="translate(691 -6) rotate(90)"/><polygon class="cls-4" points="337.75 360 358 360 358 325 353.86 325 337.75 360"/><rect class="cls-2" x="347.51" y="323.35" width="1.3" height="37.71"/><rect class="cls-2" x="260.68" y="391.25" width="27.98" height="45.23"/><rect class="cls-3" x="253.5" y="400.5" width="42" height="25" transform="translate(687.5 138.5) rotate(90)"/><polygon class="cls-4" points="262.19 434 287 434 287 392 281.5 392 262.19 434"/><rect class="cls-2" x="273.89" y="391.25" width="1.56" height="45.23"/><rect class="cls-2" x="378.87" y="391.25" width="27.98" height="45.23"/><rect class="cls-3" x="371.5" y="400.5" width="42" height="25" transform="translate(805.5 20.5) rotate(90)"/><polygon class="cls-4" points="380.38 434 405 434 405 392 399.69 392 380.38 434"/><rect class="cls-2" x="392.08" y="391.25" width="1.56" height="45.23"/><rect class="cls-2" x="309.14" y="394.6" width="23.33" height="37.71"/><rect class="cls-3" x="303" y="403" width="35" height="21" transform="translate(734 93) rotate(90)"/><polygon class="cls-4" points="310.4 431 331 431 331 396 326.5 396 310.4 431"/><rect class="cls-2" x="320.15" y="394.6" width="1.3" height="37.71"/><rect class="cls-2" x="336.5" y="394.6" width="23.33" height="37.71"/><rect class="cls-3" x="331" y="404" width="35" height="19" transform="translate(762 65) rotate(90)"/><polygon class="cls-4" points="337.75 431 358 431 358 396 353.86 396 337.75 431"/><rect class="cls-2" x="347.51" y="394.6" width="1.3" height="37.71"/><polyline class="cls-7" points="407.37 263 425.78 302.13 242.06 302.41 262.21 263"/><rect class="cls-6" x="241.96" y="302.41" width="185.74" height="8.36"/><rect class="cls-4" x="635.22" y="97.08" width="4.34" height="186.28"/><rect class="cls-4" x="811.82" y="97.08" width="4.34" height="186.28"/><polygon class="cls-9" points="927 282 927 298 907 298 907 282 893 282 893 298 872 298 872 282 858 282 858 298 838 298 838 282 821 282 821 298 801 298 801 282 786.64 282 776 282 776 298 754 298 754 282 740 282 740 298 721 298 721 282 704 282 704 298 684 298 684 282 669 282 669 298 648 298 648 282 633.47 282 623 282 623 298 602 298 602 282 586 282 586 298 565 298 565 282 552 282 552 298 531 298 531 282 515 282 515 298 496 298 496 282 480 282 480 466 633.47 466 786.64 466 940 466 940 282 927 282"/><polygon class="cls-5" points="683 210 683 466 590 466 590 210 610 210 610 238 628 238 628 210 645 210 645 238 662 238 662 210 683 210"/><polygon class="cls-5" points="860 210 860 466 767 466 767 210 788 210 788 238 804 238 804 210 822 210 822 238 841 238 841 210 860 210"/><polygon class="cls-5" points="1066 210 1066 466 914 466 914 210 927 210 927 230 949 230 949 210 965 210 965 230 985 230 985 210 1000 210 1000 230 1023 230 1023 210 1035 210 1035 230 1056 230 1056 210 1066 210"/><polygon class="cls-5" points="507 210 507 466 354 466 354 210 368 210 368 230 388 230 388 210 405 210 405 230 426 230 426 210 441 210 441 230 460 230 460 210 476 210 476 230 496 230 496 210 507 210"/><rect class="cls-11" x="914.34" y="422.12" width="30.96" height="15.26"/><rect class="cls-11" x="971.44" y="373.68" width="22.83" height="15.26"/><rect class="cls-11" x="1037.11" y="406.86" width="23.61" height="15.26"/><rect class="cls-11" x="939.11" y="302.48" width="23.61" height="15.26"/><rect class="cls-11" x="1041.3" y="259.17" width="23.61" height="15.26"/><rect class="cls-11" x="457.12" y="406.86" width="23.61" height="15.26"/><rect class="cls-11" x="380.48" y="343.22" width="23.61" height="15.26"/><rect class="cls-11" x="457.12" y="294.85" width="23.61" height="15.26"/><rect class="cls-11" x="356.88" y="245.9" width="23.61" height="15.26"/><rect class="cls-11" x="480.73" y="239.27" width="23.61" height="15.26"/><rect class="cls-11" x="599.82" y="422.12" width="23.61" height="15.26"/><rect class="cls-11" x="653.6" y="366.05" width="11.8" height="15.26"/><rect class="cls-11" x="607.99" y="262.75" width="16.34" height="10.1"/><rect class="cls-11" x="665.4" y="249.48" width="16.34" height="10.1"/><rect class="cls-11" x="789.14" y="305.06" width="16.34" height="10.1"/><rect class="cls-11" x="831.11" y="373.68" width="16.34" height="10.1"/><rect class="cls-11" x="777.26" y="424.71" width="16.34" height="10.1"/><rect class="cls-7" x="703.57" y="350.86" width="45.85" height="9.86" transform="translate(1083.86 -369.92) rotate(90.12)"/><rect class="cls-7" x="865.56" y="350.86" width="45.85" height="9.86" transform="translate(1246.21 -531.92) rotate(90.12)"/><rect class="cls-11" x="839.28" y="448.79" width="16.34" height="10.1"/><path class="cls-12" d="M682,98.62v37.86c-3,4.53-7.41,6.21-13.3,6.28a39,39,0,0,1-5.12-.29,81.73,81.73,0,0,1-9.62-1.71c-.37-.08-.61-.16-1-.24-5.25-1.2-12-2.73-16-4V98.62c4,1.86,10.74,3.82,16,5.3,0,0,0,0,0,0,5.67,1.64,11.24,2.68,16,2.4a1.75,1.75,0,0,1-.26,0C674.29,106,679,103.83,682,98.62Z"/><path class="cls-9" d="M860,96.09v37.86a12.14,12.14,0,0,1-7.73,5.64c-5.13,1.28-11.53.49-18.61-1,0,0,.46,0,.42,0-6-1.28-13.08-3.09-18.08-4.59V96.09a167,167,0,0,0,16.92,5.61c5.31,1.45,9.62,2.36,14.09,2.11C852.66,103.49,858,101.34,860,96.09Z"/><path class="cls-9" d="M669,106.32v36.44a38.86,38.86,0,0,1-5.27-.29,97.17,97.17,0,0,1-9.66-1.71,4.65,4.65,0,0,1-1.07-.24V103.94c6,1.64,11.21,2.68,16,2.4C669,106.33,669,106.33,669,106.32Z"/><path class="cls-10" d="M860,122.28v11.67a12.13,12.13,0,0,1-7.73,5.64l-10.07-22.3Z"/><path class="cls-10" d="M860,96.09V110.2l-16.91,7.91,3.46-14.32C852.2,103.49,858,101.34,860,96.09Z"/><path class="cls-10" d="M840.76,118.64l-6.36,19.9c-6-1.28-13.4-3.09-18.4-4.59v-3.68Z"/><path class="cls-10" d="M840.38,118.57,816,110v-14a170.81,170.81,0,0,0,17.11,5.61Z"/><rect class="cls-11" x="526.15" y="430.89" width="16.93" height="10.1"/><rect class="cls-9" x="98.95" y="361.28" width="70.07" height="105.07"/><rect class="cls-9" x="167.52" y="361.28" width="122.28" height="105.07"/><rect class="cls-2" x="179.78" y="372.81" width="18.43" height="29.79"/><rect class="cls-3" x="175" y="379" width="28" height="16" transform="translate(576 198) rotate(90)"/><polygon class="cls-4" points="180.77 401 197 401 197 373 193.5 373 180.77 401"/><rect class="cls-2" x="188.48" y="372.81" width="1.03" height="29.79"/><rect class="cls-2" x="257.63" y="372.81" width="18.43" height="29.79"/><rect class="cls-3" x="252.5" y="378.5" width="28" height="17" transform="translate(653.5 120.5) rotate(90)"/><polygon class="cls-4" points="258.63 401 275 401 275 373 271.35 373 258.63 401"/><rect class="cls-2" x="266.33" y="372.81" width="1.03" height="29.79"/><rect class="cls-2" x="110.31" y="372.81" width="19.83" height="32.06"/><rect class="cls-3" x="105" y="380" width="30" height="18" transform="translate(509 269) rotate(90)"/><polygon class="cls-4" points="111.38 404 129 404 129 374 125.07 374 111.38 404"/><rect class="cls-2" x="119.67" y="372.81" width="1.1" height="32.06"/><rect class="cls-2" x="133.57" y="372.81" width="19.83" height="32.06"/><rect class="cls-3" x="128.5" y="380.5" width="30" height="17" transform="translate(532.5 245.5) rotate(90)"/><polygon class="cls-4" points="134.63 404 152 404 152 374 148.33 374 134.63 404"/><rect class="cls-2" x="142.93" y="372.81" width="1.1" height="32.06"/><rect class="cls-2" x="105.89" y="424.16" width="15.83" height="25.59"/><rect class="cls-3" x="101.5" y="429.5" width="24" height="15" transform="translate(550.5 323.5) rotate(90)"/><polygon class="cls-4" points="106.74 449 121 449 121 425 117.67 425 106.74 449"/><rect class="cls-2" x="113.37" y="424.16" width="0.88" height="25.59"/><rect class="cls-2" x="124.46" y="424.16" width="15.83" height="25.59"/><rect class="cls-3" x="120.5" y="430.5" width="24" height="13" transform="translate(569.5 304.5) rotate(90)"/><polygon class="cls-4" points="125.31 449 139 449 139 425 136.24 425 125.31 449"/><rect class="cls-2" x="131.93" y="424.16" width="0.88" height="25.59"/><rect class="cls-2" x="142.68" y="424.16" width="15.83" height="25.59"/><rect class="cls-3" x="139" y="430" width="24" height="14" transform="translate(588 286) rotate(90)"/><polygon class="cls-4" points="143.53 449 158 449 158 425 154.46 425 143.53 449"/><rect class="cls-2" x="150.15" y="424.16" width="0.88" height="25.59"/><rect class="cls-5" x="104.18" y="402.95" width="54.61" height="5.74"/><rect class="cls-5" x="104.18" y="394.55" width="3.21" height="14.02"/><rect class="cls-5" x="155.58" y="394.55" width="3.21" height="14.02"/><rect class="cls-5" x="104.76" y="394.55" width="54.03" height="1.2"/><rect class="cls-9" x="288.89" y="361.28" width="70.07" height="105.07"/><rect class="cls-2" x="300.25" y="372.81" width="19.83" height="32.06"/><rect class="cls-3" x="294.5" y="380.5" width="30" height="17" transform="translate(698.5 79.5) rotate(90)"/><polygon class="cls-4" points="301.32 404 318 404 318 374 315.01 374 301.32 404"/><rect class="cls-2" x="309.61" y="372.81" width="1.1" height="32.06"/><rect class="cls-2" x="323.51" y="372.81" width="19.83" height="32.06"/><rect class="cls-3" x="318.5" y="380.5" width="30" height="17" transform="translate(722.5 55.5) rotate(90)"/><polygon class="cls-4" points="324.57 404 342 404 342 374 338.26 374 324.57 404"/><rect class="cls-2" x="332.87" y="372.81" width="1.1" height="32.06"/><rect class="cls-2" x="295.83" y="424.16" width="15.83" height="25.59"/><rect class="cls-3" x="291.5" y="430.5" width="24" height="13" transform="translate(740.5 133.5) rotate(90)"/><polygon class="cls-4" points="296.68 449 310 449 310 425 307.61 425 296.68 449"/><rect class="cls-2" x="303.31" y="424.16" width="0.88" height="25.59"/><rect class="cls-2" x="314.4" y="424.16" width="15.83" height="25.59"/><rect class="cls-3" x="310.5" y="430.5" width="24" height="13" transform="translate(759.5 114.5) rotate(90)"/><polygon class="cls-4" points="315.25 449 329 449 329 425 326.18 425 315.25 449"/><rect class="cls-2" x="321.87" y="424.16" width="0.88" height="25.59"/><rect class="cls-2" x="332.62" y="424.16" width="15.83" height="25.59"/><rect class="cls-3" x="328.5" y="429.5" width="24" height="15" transform="translate(777.5 96.5) rotate(90)"/><polygon class="cls-4" points="333.47 449 348 449 348 425 344.4 425 333.47 449"/><rect class="cls-2" x="340.09" y="424.16" width="0.88" height="25.59"/><rect class="cls-5" x="294.12" y="402.95" width="54.61" height="5.74"/><rect class="cls-5" x="294.67" y="394.55" width="3.21" height="14.02"/><rect class="cls-5" x="346" y="394.55" width="3.21" height="14.02"/><rect class="cls-5" x="294.7" y="394.55" width="54.03" height="1.2"/><rect class="cls-2" x="211.7" y="375.02" width="15.37" height="24.84"/><rect class="cls-3" x="207.5" y="380.5" width="23" height="14" transform="translate(606.5 168.5) rotate(90)"/><polygon class="cls-4" points="212.53 399 226 399 226 376 223.14 376 212.53 399"/><rect class="cls-2" x="218.96" y="375.02" width="0.86" height="24.84"/><rect class="cls-2" x="229.72" y="375.02" width="15.37" height="24.84"/><rect class="cls-3" x="226" y="381" width="23" height="13" transform="translate(625 150) rotate(90)"/><polygon class="cls-4" points="230.55 399 244 399 244 376 241.16 376 230.55 399"/><rect class="cls-2" x="236.98" y="375.02" width="0.86" height="24.84"/><rect class="cls-5" x="206.95" y="398.38" width="42.32" height="4.45"/><rect class="cls-5" x="206.95" y="391.86" width="2.49" height="10.86"/><rect class="cls-5" x="246.78" y="391.86" width="2.49" height="10.86"/><rect class="cls-5" x="207.4" y="391.86" width="41.87" height="0.93"/><rect class="cls-2" x="179.78" y="419.75" width="18.43" height="29.79"/><rect class="cls-3" x="175" y="426" width="28" height="16" transform="translate(623 245) rotate(90)"/><polygon class="cls-4" points="180.77 448 197 448 197 420 193.5 420 180.77 448"/><rect class="cls-2" x="188.48" y="419.75" width="1.03" height="29.79"/><rect class="cls-2" x="257.63" y="419.75" width="18.43" height="29.79"/><rect class="cls-3" x="252.5" y="425.5" width="28" height="17" transform="translate(700.5 167.5) rotate(90)"/><polygon class="cls-4" points="258.63 448 275 448 275 420 271.35 420 258.63 448"/><rect class="cls-2" x="266.33" y="419.75" width="1.03" height="29.79"/><rect class="cls-2" x="211.7" y="421.95" width="15.37" height="24.84"/><rect class="cls-3" x="207.5" y="427.5" width="23" height="14" transform="translate(653.5 215.5) rotate(90)"/><polygon class="cls-4" points="212.53 446 226 446 226 423 223.14 423 212.53 446"/><rect class="cls-2" x="218.96" y="421.95" width="0.86" height="24.84"/><rect class="cls-2" x="229.72" y="421.95" width="15.37" height="24.84"/><rect class="cls-3" x="226" y="428" width="23" height="13" transform="translate(672 197) rotate(90)"/><polygon class="cls-4" points="230.55 446 244 446 244 423 241.16 423 230.55 446"/><rect class="cls-2" x="236.98" y="421.95" width="0.86" height="24.84"/><rect class="cls-5" x="206.95" y="445.31" width="42.32" height="4.45"/><rect class="cls-5" x="206.95" y="438.8" width="2.49" height="10.86"/><rect class="cls-5" x="246.78" y="438.8" width="2.49" height="10.86"/><rect class="cls-5" x="207.4" y="438.8" width="41.87" height="0.93"/><polygon class="cls-10" points="99.08 355.87 127.3 330 330.49 330 356.26 355.73 99.08 355.87"/><rect class="cls-6" x="98.95" y="355.77" width="260.01" height="5.51"/><rect class="cls-1" x="356.61" y="391.3" width="87.2" height="74.93"/><rect class="cls-2" x="365.36" y="399.53" width="13.14" height="21.25"/><rect class="cls-3" x="362" y="404" width="20" height="12" transform="translate(782 38) rotate(90)"/><polygon class="cls-4" points="366.06 420 378 420 378 400 375.14 400 366.06 420"/><rect class="cls-2" x="371.56" y="399.53" width="0.73" height="21.25"/><rect class="cls-2" x="420.88" y="399.53" width="13.14" height="21.25"/><rect class="cls-3" x="417" y="404" width="20" height="12" transform="translate(837 -17) rotate(90)"/><polygon class="cls-4" points="421.58 420 433 420 433 400 430.66 400 421.58 420"/><rect class="cls-2" x="427.08" y="399.53" width="0.73" height="21.25"/><rect class="cls-2" x="388.12" y="401.1" width="10.96" height="17.72"/><rect class="cls-3" x="385.5" y="405.5" width="16" height="9" transform="translate(803.5 16.5) rotate(90)"/><polygon class="cls-4" points="388.71 418 398 418 398 402 396.28 402 388.71 418"/><rect class="cls-2" x="393.29" y="401.1" width="0.61" height="17.72"/><rect class="cls-2" x="400.97" y="401.1" width="10.96" height="17.72"/><rect class="cls-3" x="398.5" y="405.5" width="16" height="9" transform="translate(816.5 3.5) rotate(90)"/><polygon class="cls-4" points="401.56 418 411 418 411 402 409.13 402 401.56 418"/><rect class="cls-2" x="406.14" y="401.1" width="0.61" height="17.72"/><rect class="cls-5" x="384.73" y="417.76" width="30.18" height="3.17"/><rect class="cls-5" x="384.73" y="413.11" width="1.77" height="7.75"/><rect class="cls-5" x="413.14" y="413.11" width="1.77" height="7.75"/><rect class="cls-5" x="385.05" y="413.11" width="29.86" height="0.66"/><rect class="cls-2" x="365.36" y="433" width="13.14" height="21.25"/><rect class="cls-3" x="362" y="437" width="20" height="12" transform="translate(815 71) rotate(90)"/><polygon class="cls-4" points="366.06 453 378 453 378 433 375.14 433 366.06 453"/><rect class="cls-2" x="371.56" y="433" width="0.73" height="21.25"/><rect class="cls-2" x="420.88" y="433" width="13.14" height="21.25"/><rect class="cls-3" x="417" y="437" width="20" height="12" transform="translate(870 16) rotate(90)"/><polygon class="cls-4" points="421.58 453 433 453 433 433 430.66 433 421.58 453"/><rect class="cls-2" x="427.08" y="433" width="0.73" height="21.25"/><rect class="cls-2" x="388.12" y="434.57" width="10.96" height="17.72"/><rect class="cls-3" x="385" y="439" width="17" height="9" transform="translate(837 50) rotate(90)"/><polygon class="cls-4" points="388.71 452 398 452 398 435 396.28 435 388.71 452"/><rect class="cls-2" x="393.29" y="434.57" width="0.61" height="17.72"/><rect class="cls-2" x="400.97" y="434.57" width="10.96" height="17.72"/><rect class="cls-3" x="398" y="439" width="17" height="9" transform="translate(850 37) rotate(90)"/><polygon class="cls-4" points="401.56 452 411 452 411 435 409.13 435 401.56 452"/><rect class="cls-2" x="406.14" y="434.57" width="0.61" height="17.72"/><rect class="cls-5" x="384.73" y="451.23" width="30.18" height="3.17"/><rect class="cls-5" x="384.73" y="446.58" width="1.77" height="7.75"/><rect class="cls-5" x="413.14" y="446.58" width="1.77" height="7.75"/><rect class="cls-5" x="385.05" y="446.58" width="29.86" height="0.66"/><polygon class="cls-7" points="356.61 391.39 366.08 373 434.26 373 442.91 391.32 356.61 391.39"/><rect class="cls-6" x="356.56" y="391.26" width="87.25" height="3.93"/><g class="cls-8"><ellipse class="cls-9" cx="277.26" cy="373.13" rx="2.64" ry="3.3" transform="translate(-100.11 101.67) rotate(-17.66)"/><ellipse class="cls-9" cx="273.99" cy="371.54" rx="1.83" ry="2.29" transform="translate(-99.79 100.61) rotate(-17.66)"/><ellipse class="cls-9" cx="276.8" cy="375.96" rx="2.29" ry="3.32" transform="translate(-100.99 101.67) rotate(-17.66)"/></g><g class="cls-8"><ellipse class="cls-9" cx="108.25" cy="370.58" rx="3.3" ry="2.64" transform="translate(-136.38 71.91) rotate(-23.04)"/><ellipse class="cls-9" cx="109.53" cy="367.18" rx="2.29" ry="1.83" transform="translate(-134.95 72.14) rotate(-23.04)"/><ellipse class="cls-9" cx="105.39" cy="370.39" rx="3.32" ry="2.29" transform="translate(-136.53 70.77) rotate(-23.04)"/></g><g class="cls-8"><ellipse class="cls-9" cx="349.5" cy="414.88" rx="3.3" ry="2.64" transform="translate(-134.47 169.84) rotate(-23.04)"/><ellipse class="cls-9" cx="350.77" cy="411.48" rx="2.29" ry="1.83" transform="translate(-133.04 170.07) rotate(-23.04)"/><ellipse class="cls-9" cx="346.64" cy="414.68" rx="3.32" ry="2.29" transform="translate(-134.63 168.71) rotate(-23.04)"/></g><path class="cls-13" d="M1359.53,530.5c0,7.34-6.47,13.5-14.46,13.5H406.61c-8,0-14.46-6.16-14.46-13.5s6.47-13.5,14.46-13.5H570.07c5.24-2,8.92-6.51,8.92-12.06a12.38,12.38,0,0,0-4.27-9.26c-1.33-1.23-2.94-1.68-4.7-2.68H37.46c-.19,0-.39-.13-.58-.16C29.16,492.58,23,486.6,23,479.43,23,472.09,29.47,466,37.46,466H1233.89c8,0,14.46,6.16,14.46,13.5s-6.47,13.5-14.46,13.5H828.12c-5.29,2-9,6.72-9,12.31a12.57,12.57,0,0,0,4.27,9.35c1.12,1,2.44,2.34,3.87,2.34h517.83C1353.06,517,1359.53,523.16,1359.53,530.5Z"/><ellipse class="cls-13" cx="363.72" cy="531.79" rx="13.12" ry="12.07"/><polygon class="cls-9" points="1103.15 312.39 1076.15 312.39 1076.15 345.23 1096.07 360.12 1098.31 345.39 1103.15 345.39 1103.15 312.39"/><path class="cls-2" d="M1193.38,245.6s0-.08,0-.13a5.63,5.63,0,1,1,11.2,0s0,.09,0,.13Z"/><rect class="cls-2" x="1198.09" y="235.32" width="1.78" height="13.99" transform="translate(2397.96 484.63) rotate(180)"/><circle class="cls-2" cx="1198.93" cy="236.45" r="2.09"/><circle class="cls-2" cx="1198.93" cy="233.69" r="2.09"/><rect class="cls-2" x="1187.78" y="255.58" width="22.41" height="30.24" transform="translate(2397.96 541.41) rotate(180)"/><path class="cls-2" d="M1187.78,255.58c0-.09,0-.17,0-.26,0-6.78,5-12.29,11.2-12.29s11.2,5.5,11.2,12.29c0,.09,0,.17,0,.26Z"/><rect class="cls-5" x="1187.78" y="268.81" width="22.41" height="1.9" transform="translate(2397.96 539.51) rotate(180)"/><rect class="cls-7" x="1190.79" y="259.38" width="5.18" height="5.66" transform="translate(2386.76 524.43) rotate(180)"/><polygon class="cls-5" points="1210.19 286.39 1196.84 298.47 1187.78 286.39 1210.19 286.39"/><path class="cls-2" d="M1129.48,245.6s0-.08,0-.13a5.63,5.63,0,1,1,11.2,0s0,.09,0,.13Z"/><rect class="cls-2" x="1134.18" y="235.32" width="1.78" height="13.99" transform="translate(2270.15 484.63) rotate(180)"/><circle class="cls-2" cx="1135.02" cy="236.45" r="2.09"/><circle class="cls-2" cx="1135.02" cy="233.69" r="2.09"/><rect class="cls-2" x="1123.87" y="255.58" width="22.41" height="30.24" transform="translate(2270.15 541.41) rotate(180)"/><path class="cls-2" d="M1123.88,255.58c0-.09,0-.17,0-.26,0-6.78,5-12.29,11.2-12.29s11.2,5.5,11.2,12.29c0,.09,0,.17,0,.26Z"/><rect class="cls-5" x="1123.87" y="268.81" width="22.41" height="1.9" transform="translate(2270.15 539.51) rotate(180)"/><rect class="cls-7" x="1126.88" y="259.38" width="5.18" height="5.66" transform="translate(2258.94 524.43) rotate(180)"/><polygon class="cls-5" points="1146.28 286.39 1132.94 298.47 1123.87 286.39 1146.28 286.39"/><polygon class="cls-9" points="1214.04 263.87 1214.04 372.76 1113.82 372.76 1113.82 263.87 1123.57 263.87 1123.57 272 1137.11 272 1137.11 263.87 1147.95 263.87 1147.95 272 1160.95 272 1160.95 263.87 1170.16 263.87 1170.16 272 1184.24 272 1184.24 263.87 1192.91 263.87 1192.91 272 1206.99 272 1206.99 263.87 1214.04 263.87"/><rect class="cls-9" x="1114.03" y="280.84" width="100.06" height="103.66"/><polygon class="cls-11" points="1096.15 375.39 1096.15 452.39 932.15 452.39 932.15 375.39 948.15 375.39 948.15 380.39 970.15 380.39 970.15 375.39 989.15 375.39 989.15 380.39 1008.15 380.39 1008.15 375.39 1023.15 375.39 1023.15 380.39 1047.15 380.39 1047.15 375.39 1062.15 375.39 1062.15 380.39 1085.15 380.39 1085.15 375.39 1096.15 375.39"/><rect class="cls-11" x="932.24" y="395.86" width="164.09" height="69.94"/><polygon class="cls-11" points="1230.4 303.61 1230.4 449.58 1096.05 449.58 1096.05 303.61 1109.12 303.61 1109.12 314.5 1127.28 314.5 1127.28 303.61 1141.8 303.61 1141.8 314.5 1159.23 314.5 1159.23 303.61 1171.58 303.61 1171.58 314.5 1190.46 314.5 1190.46 303.61 1202.08 303.61 1202.08 314.5 1220.96 314.5 1220.96 303.61 1230.4 303.61"/><rect class="cls-11" x="1096.33" y="326.36" width="134.13" height="138.95"/><rect class="cls-9" x="940.91" y="392.54" width="139.73" height="1.48"/><rect class="cls-9" x="940.91" y="399.98" width="139.73" height="1.48"/><rect class="cls-9" x="1096.33" y="325.63" width="134.13" height="1.48"/><rect class="cls-2" x="951.08" y="431.91" width="15.74" height="15.32"/><rect class="cls-2" x="983.81" y="431.91" width="15.74" height="15.32"/><rect class="cls-2" x="1016.54" y="431.91" width="15.74" height="15.32"/><rect class="cls-2" x="1049.27" y="431.91" width="15.74" height="15.32"/><path class="cls-2" d="M936,374.42c0-.06,0-.11,0-.17,0-4.46-3.3-8.08-7.37-8.08s-7.37,3.62-7.37,8.08c0,.06,0,.11,0,.17Z"/><rect class="cls-2" x="927.48" y="360.9" width="2.34" height="18.4"/><circle class="cls-2" cx="928.71" cy="362.38" r="2.74"/><circle class="cls-2" cx="928.71" cy="358.75" r="2.74"/><rect class="cls-9" x="913.91" y="387.55" width="29.47" height="39.77"/><path class="cls-2" d="M943.37,387.55c0-.11,0-.22,0-.34,0-8.92-6.6-16.16-14.74-16.16s-14.74,7.23-14.74,16.16c0,.11,0,.22,0,.34Z"/><rect class="cls-5" x="913.91" y="404.94" width="29.47" height="2.5"/><rect class="cls-7" x="932.61" y="392.55" width="6.81" height="7.45"/><polygon class="cls-5" points="913.91 427.39 931.46 443.27 943.38 427.39 913.91 427.39"/><rect class="cls-9" x="1088.59" y="428.05" width="137.26" height="15.62"/><rect class="cls-14" x="931.46" y="463.01" width="301.63" height="2.99"/><path class="cls-2" d="M1221.29,375.14c0-.06,0-.11,0-.17,0-4.46,3.3-8.08,7.37-8.08s7.37,3.62,7.37,8.08c0,.06,0,.11,0,.17Z"/><rect class="cls-2" x="1227.49" y="361.63" width="2.34" height="18.4" transform="translate(2457.31 741.66) rotate(180)"/><circle class="cls-2" cx="1228.59" cy="363.11" r="2.74"/><circle class="cls-2" cx="1228.59" cy="359.48" r="2.74"/><rect class="cls-9" x="1213.92" y="388.28" width="29.47" height="39.77" transform="translate(2457.31 816.33) rotate(180)"/><path class="cls-2" d="M1213.93,388.28c0-.11,0-.22,0-.34,0-8.92,6.6-16.16,14.74-16.16s14.74,7.23,14.74,16.16c0,.11,0,.22,0,.34Z"/><rect class="cls-5" x="1213.92" y="405.67" width="29.47" height="2.5" transform="translate(2457.31 813.84) rotate(180)"/><rect class="cls-7" x="1217.89" y="393.28" width="6.81" height="7.45" transform="translate(2442.58 794) rotate(180)"/><polygon class="cls-5" points="1243.39 427.39 1225.85 443.27 1213.92 427.39 1243.39 427.39"/><path class="cls-2" d="M1084,375.14c0-.06,0-.11,0-.17,0-4.46,3.3-8.08,7.37-8.08s7.37,3.62,7.37,8.08c0,.06,0,.11,0,.17Z"/><rect class="cls-2" x="1090.23" y="361.63" width="2.34" height="18.4" transform="translate(2182.8 741.66) rotate(180)"/><circle class="cls-2" cx="1091.33" cy="363.11" r="2.74"/><circle class="cls-2" cx="1091.33" cy="359.48" r="2.74"/><rect class="cls-9" x="1076.67" y="388.28" width="29.47" height="39.77" transform="translate(2182.8 816.33) rotate(180)"/><path class="cls-2" d="M1076.67,388.28c0-.11,0-.22,0-.34,0-8.92,6.6-16.16,14.74-16.16s14.74,7.23,14.74,16.16c0,.11,0,.22,0,.34Z"/><rect class="cls-5" x="1076.67" y="405.67" width="29.47" height="2.5" transform="translate(2182.8 813.84) rotate(180)"/><rect class="cls-7" x="1080.63" y="393.28" width="6.81" height="7.45" transform="translate(2168.07 794) rotate(180)"/><polygon class="cls-5" points="1106.14 427.39 1088.59 443.27 1076.67 427.39 1106.14 427.39"/><rect class="cls-2" x="1140.87" y="341.91" width="16.56" height="20.47"/><ellipse class="cls-2" cx="1149.15" cy="343.25" rx="8.28" ry="8.78"/><rect class="cls-2" x="1171.21" y="341.91" width="16.56" height="20.47"/><ellipse class="cls-2" cx="1179.5" cy="343.25" rx="8.28" ry="8.78"/><rect class="cls-2" x="1155.96" y="394.2" width="16.56" height="20.47"/><ellipse class="cls-2" cx="1164.24" cy="395.54" rx="8.28" ry="8.78"/><rect class="cls-7" x="1079.8" y="327.42" width="11.53" height="10.5"/><rect class="cls-4" x="1214.87" y="333.55" width="13.84" height="8.74"/><rect class="cls-4" x="1122.55" y="389.65" width="13.84" height="8.74"/><rect class="cls-4" x="1197.67" y="448.12" width="13.84" height="8.74"/><rect class="cls-4" x="1050.22" y="409.26" width="8.56" height="5.41"/><rect class="cls-4" x="936.19" y="452.49" width="9.57" height="6.04"/><rect class="cls-4" x="1003.85" y="419.08" width="10.44" height="6.59"/><rect class="cls-4" x="945.86" y="410.34" width="10.44" height="6.59"/><rect class="cls-4" x="953.74" y="381.21" width="10.44" height="6.59"/><path class="cls-13" d="M137,380.61c-55.37,0-100.46,38.53-102.18,86.63H239.18c-1.72-48.1-46.81-86.63-102.18-86.63"/><path class="cls-15" d="M209.6,465.94c-1.23-34.36-33.44-61.89-73-61.89s-71.77,27.53-73,61.89Z"/><path class="cls-16" d="M124.65,426.06c-.19,5-5.24,9.69-11.43,9.69s-11.24-4.69-11.43-9.69h3.26c.17,3,3.76,6.87,8.16,6.87s8-3.87,8.16-6.87Z"/><path class="cls-16" d="M144.58,426.06c-.19,5-5.24,9.69-11.43,9.69s-11.24-4.69-11.43-9.69H125c.17,3,3.76,6.87,8.16,6.87s8-3.87,8.16-6.87Z"/><rect class="cls-11" x="637.93" y="435.54" width="6.2" height="30.27"/><circle class="cls-17" cx="641.16" cy="414.75" r="23.03"/><path class="cls-12" d="M646.45,434.46a23,23,0,0,1-14.91-40.56,23,23,0,1,0,24.53,38.46A22.93,22.93,0,0,1,646.45,434.46Z"/><path class="cls-17" d="M641.16,391.73H641v46h.13a23,23,0,1,0,0-46.05Z"/><circle class="cls-17" cx="622.87" cy="407.98" r="7.95" transform="translate(-110.07 276.78) rotate(-23.08)"/><path class="cls-12" d="M627.21,413.5A8,8,0,0,1,617,402.63a8,8,0,1,0,13,8.9A7.92,7.92,0,0,1,627.21,413.5Z"/><rect class="cls-11" x="30.7" y="437.77" width="6.2" height="30.27"/><circle class="cls-17" cx="33.93" cy="416.99" r="23.03"/><path class="cls-12" d="M39.22,436.69a23,23,0,0,1-14.91-40.56,23,23,0,1,0,24.53,38.46A22.93,22.93,0,0,1,39.22,436.69Z"/><path class="cls-17" d="M33.93,394H33.8v46h.13a23,23,0,1,0,0-46.05Z"/><circle class="cls-17" cx="15.64" cy="410.21" r="7.95" transform="translate(-159.53 38.95) rotate(-23.08)"/><path class="cls-12" d="M20,415.74A8,8,0,0,1,9.75,404.87a8,8,0,1,0,13,8.9A7.92,7.92,0,0,1,20,415.74Z"/><path class="cls-18" d="M145.92,168.37a16.93,16.93,0,0,0-22.74-15.94,25.76,25.76,0,0,0-44.28-9.73,24,24,0,0,0-37,8.88,17.9,17.9,0,0,0-26.22,15.86A18.17,18.17,0,0,0,32.2,185.56c.35,0,.71.36,1.08.36h97.4a9.14,9.14,0,0,0,4.36-1.44A17.35,17.35,0,0,0,145.92,168.37Z"/><path class="cls-18" d="M1173.4,123.62a16.93,16.93,0,0,0-22.74-15.94,25.76,25.76,0,0,0-44.28-9.73,24,24,0,0,0-37,8.88,17.9,17.9,0,0,0-26.22,15.86,18.17,18.17,0,0,0,16.49,18.13c.35,0,.71.36,1.08.36h97.4a9.14,9.14,0,0,0,4.36-1.44A17.35,17.35,0,0,0,1173.4,123.62Z"/><path class="cls-17" d="M888.47,466.46c0-.53.07-1,.07-1.59,0-21.58-31.69-51-31.69-51S828,443.45,828,465c0,.5,0,1,.05,1.43Z"/><path class="cls-12" d="M888.48,466.46c0-.53.07-1,.07-1.59,0-21.58-31.69-51-31.69-51v52.56Z"/><path class="cls-17" d="M853.21,466.46c0-.38.05-.74.05-1.14,0-15.49-23.57-36.6-23.57-36.6s-21.51,21.22-21.51,36.71c0,.36,0,.68,0,1Z"/><path class="cls-12" d="M853.22,466.46c0-.38.06-.74.06-1.14,0-15.49-23.57-36.6-23.57-36.6v37.74Z"/><path class="cls-17" d="M903,466.46c0-.28,0-.55,0-.84,0-11.42-17.22-27-17.22-27s-15.71,15.63-15.71,27.05c0,.26,0,.5,0,.76Z"/><path class="cls-12" d="M903,466.46c0-.28,0-.55,0-.84,0-11.42-17.22-27-17.22-27v27.81Z"/></svg>