<svg id="Layer_1" data-name="Layer 1" xmlns="http://www.w3.org/2000/svg" viewBox="0 0 1145.17 475.06"><defs><style>.cls-1{fill:#415947;}.cls-2{fill:#78897c;}.cls-3{fill:#5c7061;}.cls-4{fill:#84e895;}.cls-5{fill:#edb270;}.cls-25,.cls-6{fill:#e79944;}.cls-7{fill:#b27937;}.cls-8{fill:#a100e2;}.cls-9{fill:#a56317;}.cls-10{fill:#e38620;}.cls-11{fill:#4d4d4d;}.cls-12,.cls-13{fill:none;stroke:#fff;stroke-linecap:round;stroke-linejoin:round;}.cls-13{stroke-dasharray:6 8;}.cls-14{fill:#b330e8;}.cls-15,.cls-16{fill:#b83de9;}.cls-15,.cls-25{opacity:0.5;}.cls-17{fill:#f2c594;}.cls-18{fill:#efba80;}.cls-19{fill:#42005b;}.cls-20{fill:#5c2472;}.cls-21{fill:#eeb679;}.cls-22{fill:#7d4f8e;}.cls-23{fill:#f3f3f3;}.cls-24{fill:#f1f1f1;}.cls-26{fill:#c3f4cb;}.cls-27{fill:#dff9e3;}.cls-28{fill:#8a6199;}.cls-29{fill:#714084;}.cls-30{fill:#5b2170;}.cls-31{fill:#bdf3c6;}.cls-32{fill:#bc4aea;}.cls-33{fill:#754587;}.cls-34{fill:#c3ebce;}.cls-35{fill:#1a1a1a;}</style></defs><title>marrakech_colour</title><path class="cls-1" d="M1188.81,312.43s2.28-30.63-8.32-42.49-4.87,4.73-4.87,4.73,7.14,24.89,3,45.92c-4.22,21.48-8.54,35.42-8.54,35.42h9.83S1187.38,339.95,1188.81,312.43Z" transform="translate(-67.35 -8.5)"/><path class="cls-2" d="M1177.11,268.67s12.64-3,21.31,7.77c10,13.94,3.33,19.48,3.33,19.48s-1.76-6.62-5.7-8.87a14.41,14.41,0,0,0-1.43-7.13,6.6,6.6,0,0,1-1.81,5.38l-4.38-4.46a3.09,3.09,0,0,0,.93-3.1s-.47,1.71-1.78,1.94S1177.11,268.67,1177.11,268.67Z" transform="translate(-67.35 -8.5)"/><path class="cls-2" d="M1177,269.19s.19-10.35,17.6-15c10.18-2.31,18,8.48,18,8.48l-10.73,3.49s0-3.18-2.67-4.1c0,0,.83,3.21-.19,4.29l-5.3.89s-.65-2.91-2.44-2.87c0,0,.74,1.82,0,2.88l-2,.79s-.82-3-2.36-2.92c0,0,.69,2.29-.19,3.08C1186.54,268.22,1179.07,268,1177,269.19Z" transform="translate(-67.35 -8.5)"/><path class="cls-2" d="M1202.89,249.83s-7.57,1.61-10.16,4.09c0,0-3.46-1.24-4-3,0,0,.08,2.59.67,3.38,0,0-3.63,1.48-3.86,2.11,0,0-2.53-2-2.67-2.61l.13,4.45-1.74,1s-1.39-1.12-2.09-.53c0,0,1.23.83,1.27,1.48s-4.42,10.16-4.42,10.16-3-3.33-1.33-14.76,13.46-12.94,13.46-12.94,7.14-.29,12,3.31S1202.89,249.83,1202.89,249.83Z" transform="translate(-67.35 -8.5)"/><path class="cls-2" d="M1147.34,247.34a.66.66,0,0,1-.14-.93c1.4-1.85,6.45-7.55,13.27-4.31a28.33,28.33,0,0,1,10.24,8.17s6.31,10.84,6.26,18.92c0,.84-6.88-7.85-11-9.3,0,0,.41-1.24-.21-4.71,0,0,0,3.47-1,3.88,0,0-3.17-1.8-3.73-2.28-1.89-1.6-.62-3.87-1.45-5.48,0,0-2,3-2.79,2.6S1149.31,248.74,1147.34,247.34Z" transform="translate(-67.35 -8.5)"/><path class="cls-2" d="M1142.63,268.67s8.6.13,11.46,1.16c0,0-.92-1.94,3.48-4.91,0,0-1.54,4.3-.92,4.91s3.27.87,3.88.77,0-4.25,3.18-4.66c0,0-1.84,3.79-.72,4.4s8.46-.82,14.11-.2-6.22-8-6.22-8-13-5.83-19.45-3.28S1143.55,265.16,1142.63,268.67Z" transform="translate(-67.35 -8.5)"/><path class="cls-2" d="M1161.17,296.61a16.41,16.41,0,0,1-1.44-14.51c3-8.51,13.35-13.81,13.35-13.81s5.82-1.41,5.71-.77-7.87,13.27-8.5,13.59-1.53-.24-1.53-.24-.23,1.44.41,2.08l-1,1.44s-1.84-.16-2.24.24,1.68,1.44.8,2.72S1163.09,291,1161.17,296.61Z" transform="translate(-67.35 -8.5)"/><path class="cls-2" d="M1174.55,356s-8.9-19,1.55-57H1167s.39,34-11.47,57Z" transform="translate(-67.35 -8.5)"/><ellipse class="cls-3" cx="1103.68" cy="292.54" rx="7.25" ry="6.48"/><path class="cls-4" d="M1165.19,295.17c.36.33,4.07,3.36,15.11,2.53h0c5.73.68,13.87-1.15,27.79,7.18a.23.23,0,0,0,.32-.33c-3.22-4.72-19.83-26.67-42.5-13.58a.08.08,0,0,0,0,.06l-.71,4.08A.08.08,0,0,0,1165.19,295.17Z" transform="translate(-67.35 -8.5)"/><path class="cls-4" d="M1152.11,286.34c-.62-2-1.87-8.75,8.08-10a3.13,3.13,0,0,1,.53,0c1.61.07,9.07,1.14,12.23,14.8a.13.13,0,0,1,0,.1l-2.12,3.34a.13.13,0,0,1-.22,0c-.39-.61-2.06-2.6-7.22-3.37a.13.13,0,0,1-.09-.07l-2.53-4.73a3.76,3.76,0,0,0-1.4-1.47c-2-1.17-6.49-3.27-7,1.44A.13.13,0,0,1,1152.11,286.34Z" transform="translate(-67.35 -8.5)"/><path class="cls-4" d="M1202.09,280.42c-3.14-1.36-15.29-5.22-34.06,6.1l0,0c-.79,1.3,2.81,5.79,3.09,6.14l0,0,3.95.06,0,0c.54-.53,12.54-12.19,26.86-12A.19.19,0,0,0,1202.09,280.42Z" transform="translate(-67.35 -8.5)"/><path class="cls-4" d="M1149.58,316.43c1.19-2.7,5.45-11.54,10.89-13.14a2.31,2.31,0,0,1,.71-.1,2,2,0,0,0,.65-.1c2.64.25,2.37.81,6.88-1.08,5.94-2.49,2.45-8.58,2.45-8.58s-4.39-4.38-12.73,2.08-9.69,8.43-9.9,15a23.32,23.32,0,0,0,.29,5.84A.41.41,0,0,0,1149.58,316.43Z" transform="translate(-67.35 -8.5)"/><path class="cls-4" d="M1141.83,303.11a.18.18,0,0,1-.28-.16c.19-1.65,1.64-8.22,12.84-11.92,11.53-3.81,15.83.55,16.6,1.5a.17.17,0,0,1-.06.27c-1.47.71-11,5.22-16.91,4.29h0C1150.54,297.09,1143.39,302,1141.83,303.11Z" transform="translate(-67.35 -8.5)"/><path class="cls-4" d="M1184.54,320a.23.23,0,0,0,.47,0c.92-6.31,2.22-22.78-8.7-26-12.4-3.66-9.61,6.42-9,8.19a.23.23,0,0,0,.32.14c1-.48,5.19-2,9.38,3.12h0C1182.15,310.88,1184.21,314.24,1184.54,320Z" transform="translate(-67.35 -8.5)"/><g id="Gate"><rect class="cls-5" x="471.88" y="157.68" width="31.64" height="189.82"/><rect class="cls-6" x="392.78" y="189.22" width="79.09" height="158.18"/><rect class="cls-5" x="730.92" y="157.68" width="31.64" height="189.82"/><rect class="cls-6" x="762.56" y="189.22" width="79.09" height="158.18"/><polygon class="cls-7" points="518.12 164.05 518.12 347.5 587.14 347.5 587.14 271.66 647.62 271.66 647.62 347.5 716.32 347.5 716.32 164.05 518.12 164.05"/><rect class="cls-8" x="503.51" y="163.81" width="14.61" height="19.26"/><rect class="cls-8" x="518.12" y="163.81" width="198.04" height="4.75"/><rect class="cls-9" x="503.51" y="183.06" width="14.61" height="164.43"/><rect class="cls-8" x="716.31" y="163.81" width="14.61" height="19.26"/><rect class="cls-9" x="716.31" y="183.06" width="14.61" height="164.43"/><polygon class="cls-5" points="531.53 202.61 531.53 347.4 587.14 347.4 587.14 271.66 647.62 271.66 647.62 347.4 702.34 347.4 702.34 202.61 531.53 202.61"/><rect class="cls-8" x="503.51" y="183.06" width="227.41" height="6.05"/><polygon class="cls-7" points="537.84 209.32 537.84 347.4 586.72 347.4 586.72 269.97 646.78 269.97 646.78 347.4 696.02 347.4 696.02 209.32 537.84 209.32"/><path class="cls-10" d="M684.28,223.49h0c-43.5,0-79.09,37-79.09,82.25V356H652V280.16h64.71V356h46.71V305.74C763.37,260.5,727.78,223.49,684.28,223.49Z" transform="translate(-67.35 -8.5)"/><path class="cls-9" d="M684.28,238.28c-35.76,0-64.86,34.84-64.86,77.67v40h35.06V277.62h60.9V356h33.74V316C749.14,273.13,720,238.28,684.28,238.28Z" transform="translate(-67.35 -8.5)"/><path class="cls-10" d="M717.5,355.9V277H652.64v78.9H621V317.32c0-42.71,28.38-77.45,63.27-77.45s63.27,34.74,63.27,77.45V355.9Z" transform="translate(-67.35 -8.5)"/><path class="cls-5" d="M684.28,252.52c-27.91,0-50.62,33.14-50.62,73.88V356h22.15V334.79c0-29.19,13.25-52.94,28.47-52.94s28.47,23.75,28.47,52.94V356H734.9V326.4C734.9,285.66,712.19,252.52,684.28,252.52Z" transform="translate(-67.35 -8.5)"/><circle class="cls-9" cx="616.93" cy="212.15" r="2.83"/></g><path class="cls-11" d="M983.56,406.7h-116a12,12,0,0,1-12-12v-2a12,12,0,0,1,12-12H1187.3a6.84,6.84,0,0,0,.84-.29c5-2.05,7.86-6.22,7.86-10.81V368c0-6.57-6-12-14.77-12H100.29a20.73,20.73,0,0,0-11.07,3.15l-1.61,1.37A9.74,9.74,0,0,0,84,368v1.6a10.22,10.22,0,0,0,4.55,8.17,16.42,16.42,0,0,0,8.64,2.89c.79.08,1.58.23,2.51.24.56,0,1,.09,1.53.09h99.51a11.9,11.9,0,0,1,2.63-.3H517.64a12,12,0,0,1,12,12v2a12,12,0,0,1-12,12H203.36a11.87,11.87,0,0,1-5-1.1,12,12,0,0,0-9.88,11.8v2a12,12,0,0,0,12,12H978.17a12,12,0,0,0,12-12v-2A12,12,0,0,0,983.56,406.7Z" transform="translate(-67.35 -8.5)"/><rect class="cls-11" x="508.66" y="457.64" width="25.92" height="25.92" rx="12.96" ry="12.96" transform="translate(975.89 932.7) rotate(-180)"/><line class="cls-12" x1="34.65" y1="361" x2="37.65" y2="361"/><line class="cls-13" x1="45.65" y1="361" x2="1103.65" y2="361"/><line class="cls-12" x1="1107.65" y1="361" x2="1110.65" y2="361"/><rect class="cls-11" x="520.34" y="448.5" width="338.28" height="26" rx="12" ry="12"/><g id="Hotel"><rect class="cls-14" x="876.51" y="294.63" width="133.28" height="52.86"/><rect class="cls-10" x="876.51" y="278.95" width="133.28" height="15.68"/><rect class="cls-8" x="874.29" y="273.53" width="137.71" height="5.42"/><rect class="cls-8" x="872.26" y="267.44" width="141.77" height="6.09"/><rect class="cls-8" x="942.02" y="240.17" width="2.59" height="4.23"/><polygon class="cls-8" points="872.26 267.44 943.45 242.79 1014.03 267.44 872.26 267.44"/><path class="cls-15" d="M964.06,300.84v-8.46a2.14,2.14,0,0,0-4.28,0v8.46Z" transform="translate(-67.35 -8.5)"/><path class="cls-15" d="M974.41,300.84v-8.46a2.14,2.14,0,0,0-4.28,0v8.46Z" transform="translate(-67.35 -8.5)"/><path class="cls-15" d="M984.75,300.84v-8.46a2.14,2.14,0,0,0-4.28,0v8.46Z" transform="translate(-67.35 -8.5)"/><path class="cls-15" d="M1002.29,300.84v-8.46a2.14,2.14,0,1,0-4.28,0v8.46Z" transform="translate(-67.35 -8.5)"/><path class="cls-15" d="M1012.64,300.84v-8.46a2.14,2.14,0,0,0-4.28,0v8.46Z" transform="translate(-67.35 -8.5)"/><path class="cls-15" d="M1023,300.84v-8.46a2.14,2.14,0,0,0-4.28,0v8.46Z" transform="translate(-67.35 -8.5)"/><path class="cls-16" d="M1040.19,300.84v-8.46a2.14,2.14,0,1,0-4.28,0v8.46Z" transform="translate(-67.35 -8.5)"/><path class="cls-16" d="M1050.53,300.84v-8.46a2.14,2.14,0,0,0-4.28,0v8.46Z" transform="translate(-67.35 -8.5)"/><path class="cls-16" d="M1060.87,300.84v-8.46a2.14,2.14,0,1,0-4.28,0v8.46Z" transform="translate(-67.35 -8.5)"/><polygon class="cls-17" points="876.51 318.66 890.46 318.66 890.46 311.44 909.39 311.44 909.39 318.66 922.2 318.66 922.2 311.44 963.52 311.44 963.52 318.66 976.46 318.66 976.46 311.44 994.95 311.44 994.95 318.66 1009.79 318.66 1009.79 294.63 876.51 294.63 876.51 318.66"/><rect class="cls-18" x="942.04" y="280.37" width="0.93" height="2.06" rx="0.18" ry="0.18" transform="translate(407.69 -592.53) rotate(45)"/><rect class="cls-18" x="944.63" y="280.37" width="0.93" height="2.06" rx="0.18" ry="0.18" transform="translate(408.45 -594.36) rotate(45)"/><rect class="cls-18" x="947.21" y="280.37" width="0.93" height="2.06" rx="0.18" ry="0.18" transform="translate(409.2 -596.19) rotate(45)"/><rect class="cls-18" x="949.8" y="280.37" width="0.93" height="2.06" rx="0.18" ry="0.18" transform="translate(409.96 -598.02) rotate(45)"/><rect class="cls-18" x="952.38" y="280.37" width="0.93" height="2.06" rx="0.18" ry="0.18" transform="translate(410.72 -599.85) rotate(45)"/><rect class="cls-18" x="954.97" y="280.37" width="0.93" height="2.06" rx="0.18" ry="0.18" transform="translate(411.48 -601.67) rotate(45)"/><rect class="cls-18" x="957.55" y="280.37" width="0.93" height="2.06" rx="0.18" ry="0.18" transform="translate(412.23 -603.5) rotate(45)"/><rect class="cls-18" x="960.14" y="280.37" width="0.93" height="2.06" rx="0.18" ry="0.18" transform="translate(412.99 -605.33) rotate(45)"/><rect class="cls-18" x="962.73" y="280.37" width="0.93" height="2.06" rx="0.18" ry="0.18" transform="translate(413.75 -607.16) rotate(45)"/><rect class="cls-18" x="965.31" y="280.37" width="0.93" height="2.06" rx="0.18" ry="0.18" transform="translate(414.51 -608.99) rotate(45)"/><rect class="cls-18" x="967.9" y="280.37" width="0.93" height="2.06" rx="0.18" ry="0.18" transform="translate(415.26 -610.82) rotate(45)"/><rect class="cls-18" x="970.48" y="280.37" width="0.93" height="2.06" rx="0.18" ry="0.18" transform="translate(416.02 -612.64) rotate(45)"/><rect class="cls-18" x="973.07" y="280.37" width="0.93" height="2.06" rx="0.18" ry="0.18" transform="translate(416.78 -614.47) rotate(45)"/><rect class="cls-18" x="975.65" y="280.37" width="0.93" height="2.06" rx="0.18" ry="0.18" transform="translate(417.53 -616.3) rotate(45)"/><rect class="cls-18" x="978.24" y="280.37" width="0.93" height="2.06" rx="0.18" ry="0.18" transform="translate(418.29 -618.13) rotate(45)"/><rect class="cls-18" x="980.83" y="280.37" width="0.93" height="2.06" rx="0.18" ry="0.18" transform="translate(419.05 -619.96) rotate(45)"/><rect class="cls-18" x="983.41" y="280.37" width="0.93" height="2.06" rx="0.18" ry="0.18" transform="translate(419.81 -621.79) rotate(45)"/><rect class="cls-18" x="986" y="280.37" width="0.93" height="2.06" rx="0.18" ry="0.18" transform="translate(420.56 -623.62) rotate(45)"/><rect class="cls-18" x="988.58" y="280.37" width="0.93" height="2.06" rx="0.18" ry="0.18" transform="translate(421.32 -625.44) rotate(45)"/><rect class="cls-18" x="991.17" y="280.37" width="0.93" height="2.06" rx="0.18" ry="0.18" transform="translate(422.08 -627.27) rotate(45)"/><rect class="cls-18" x="993.76" y="280.37" width="0.93" height="2.06" rx="0.18" ry="0.18" transform="translate(422.84 -629.1) rotate(45)"/><rect class="cls-18" x="996.34" y="280.37" width="0.93" height="2.06" rx="0.18" ry="0.18" transform="translate(423.59 -630.93) rotate(45)"/><rect class="cls-18" x="998.93" y="280.37" width="0.93" height="2.06" rx="0.18" ry="0.18" transform="translate(424.35 -632.76) rotate(45)"/><rect class="cls-18" x="1001.51" y="280.37" width="0.93" height="2.06" rx="0.18" ry="0.18" transform="translate(425.11 -634.58) rotate(45)"/><rect class="cls-18" x="1004.1" y="280.37" width="0.93" height="2.06" rx="0.18" ry="0.18" transform="translate(425.86 -636.41) rotate(45)"/><rect class="cls-18" x="1006.68" y="280.37" width="0.93" height="2.06" rx="0.18" ry="0.18" transform="translate(426.62 -638.24) rotate(45)"/><rect class="cls-18" x="1009.27" y="280.37" width="0.93" height="2.06" rx="0.18" ry="0.18" transform="translate(427.38 -640.07) rotate(45)"/><rect class="cls-18" x="1011.86" y="280.37" width="0.93" height="2.06" rx="0.18" ry="0.18" transform="translate(428.14 -641.9) rotate(45)"/><rect class="cls-18" x="1014.44" y="280.37" width="0.93" height="2.06" rx="0.18" ry="0.18" transform="translate(428.89 -643.73) rotate(45)"/><rect class="cls-18" x="1017.03" y="280.37" width="0.93" height="2.06" rx="0.18" ry="0.18" transform="translate(429.65 -645.56) rotate(45)"/><rect class="cls-18" x="1019.61" y="280.37" width="0.93" height="2.06" rx="0.18" ry="0.18" transform="translate(430.41 -647.38) rotate(45)"/><rect class="cls-18" x="1022.2" y="280.37" width="0.93" height="2.06" rx="0.18" ry="0.18" transform="translate(431.17 -649.21) rotate(45)"/><rect class="cls-18" x="1024.79" y="280.37" width="0.93" height="2.06" rx="0.18" ry="0.18" transform="translate(431.92 -651.04) rotate(45)"/><rect class="cls-18" x="1027.37" y="280.37" width="0.93" height="2.06" rx="0.18" ry="0.18" transform="translate(432.68 -652.87) rotate(45)"/><rect class="cls-18" x="1029.96" y="280.37" width="0.93" height="2.06" rx="0.18" ry="0.18" transform="translate(433.44 -654.7) rotate(45)"/><rect class="cls-18" x="1032.54" y="280.37" width="0.93" height="2.06" rx="0.18" ry="0.18" transform="translate(434.19 -656.53) rotate(45)"/><rect class="cls-18" x="1035.13" y="280.37" width="0.93" height="2.06" rx="0.18" ry="0.18" transform="translate(434.95 -658.35) rotate(45)"/><rect class="cls-18" x="1037.71" y="280.37" width="0.93" height="2.06" rx="0.18" ry="0.18" transform="translate(435.71 -660.18) rotate(45)"/><rect class="cls-18" x="1040.3" y="280.37" width="0.93" height="2.06" rx="0.18" ry="0.18" transform="translate(436.47 -662.01) rotate(45)"/><rect class="cls-18" x="1042.89" y="280.37" width="0.93" height="2.06" rx="0.18" ry="0.18" transform="translate(437.22 -663.84) rotate(45)"/><rect class="cls-18" x="1045.47" y="280.37" width="0.93" height="2.06" rx="0.18" ry="0.18" transform="translate(437.98 -665.67) rotate(45)"/><rect class="cls-18" x="1048.06" y="280.37" width="0.93" height="2.06" rx="0.18" ry="0.18" transform="translate(438.74 -667.5) rotate(45)"/><rect class="cls-18" x="1050.64" y="280.37" width="0.93" height="2.06" rx="0.18" ry="0.18" transform="translate(439.5 -669.33) rotate(45)"/><rect class="cls-18" x="1053.23" y="280.37" width="0.93" height="2.06" rx="0.18" ry="0.18" transform="translate(440.25 -671.15) rotate(45)"/><rect class="cls-18" x="1055.81" y="280.37" width="0.93" height="2.06" rx="0.18" ry="0.18" transform="translate(441.01 -672.98) rotate(45)"/><rect class="cls-18" x="1058.4" y="280.37" width="0.93" height="2.06" rx="0.18" ry="0.18" transform="translate(441.77 -674.81) rotate(45)"/><rect class="cls-18" x="1060.99" y="280.37" width="0.93" height="2.06" rx="0.18" ry="0.18" transform="translate(442.53 -676.64) rotate(45)"/><rect class="cls-18" x="1063.57" y="280.37" width="0.93" height="2.06" rx="0.18" ry="0.18" transform="translate(443.28 -678.47) rotate(45)"/><rect class="cls-18" x="1066.16" y="280.37" width="0.93" height="2.06" rx="0.18" ry="0.18" transform="translate(444.04 -680.3) rotate(45)"/><rect class="cls-18" x="1068.74" y="280.37" width="0.93" height="2.06" rx="0.18" ry="0.18" transform="translate(444.8 -682.12) rotate(45)"/><rect class="cls-18" x="1071.33" y="280.37" width="0.93" height="2.06" rx="0.18" ry="0.18" transform="translate(445.56 -683.95) rotate(45)"/><rect class="cls-18" x="1073.92" y="280.37" width="0.93" height="2.06" rx="0.18" ry="0.18" transform="translate(446.31 -685.78) rotate(45)"/><rect class="cls-18" x="1076.5" y="280.37" width="0.93" height="2.06" rx="0.18" ry="0.18" transform="translate(447.07 -687.61) rotate(45)"/><rect class="cls-18" x="1079.09" y="280.37" width="0.93" height="2.06" rx="0.18" ry="0.18" transform="translate(447.83 -689.44) rotate(45)"/><rect class="cls-19" x="925.46" y="316.88" width="35.03" height="30.61"/><rect class="cls-19" x="893.26" y="322.26" width="12.93" height="25.23"/><rect class="cls-19" x="979.77" y="322.26" width="12.93" height="25.23"/><rect class="cls-18" x="823.88" y="331.7" width="44.61" height="3.88" transform="translate(1112.47 -521.05) rotate(90)"/><rect class="cls-14" x="807.65" y="300.14" width="68.86" height="47.35"/><rect class="cls-19" x="822.46" y="322.3" width="10.76" height="25.19"/><rect class="cls-19" x="861.68" y="322.3" width="10.76" height="25.19"/><rect class="cls-17" x="807.65" y="303.87" width="71.01" height="14.8"/><rect class="cls-14" x="1076.25" y="308.64" width="68.86" height="47.35" transform="translate(2154.02 656.13) rotate(-180)"/><rect class="cls-19" x="1119.55" y="330.8" width="10.76" height="25.19" transform="translate(2182.5 678.29) rotate(-180)"/><rect class="cls-19" x="1080.32" y="330.8" width="10.76" height="25.19" transform="translate(2104.05 678.29) rotate(-180)"/><rect class="cls-17" x="1074.1" y="312.37" width="71.01" height="14.8" transform="translate(2151.87 631.03) rotate(-180)"/><rect class="cls-18" x="870.42" y="331.75" width="44.61" height="3.88" transform="translate(1159.07 -567.54) rotate(90)"/><rect class="cls-18" x="916.97" y="331.75" width="44.61" height="3.88" transform="translate(1205.61 -614.08) rotate(90)"/><rect class="cls-18" x="963.51" y="331.75" width="44.61" height="3.88" transform="translate(1252.16 -660.63) rotate(90)"/><rect class="cls-18" x="1012.31" y="331.76" width="44.61" height="3.88" transform="translate(1300.96 -709.42) rotate(90)"/><rect class="cls-18" x="1105.4" y="331.76" width="44.61" height="3.88" transform="translate(1394.05 -802.51) rotate(90)"/><rect class="cls-18" x="1151.94" y="331.76" width="44.61" height="3.88" transform="translate(1440.59 -849.05) rotate(90)"/><rect class="cls-18" x="1058.85" y="331.76" width="44.61" height="3.88" transform="translate(1347.51 -755.96) rotate(90)"/><rect class="cls-19" x="840.84" y="331.7" width="44.61" height="3.88" transform="translate(1129.44 -538.01) rotate(90)"/><rect class="cls-20" x="774.48" y="298.22" width="337.33" height="5.65"/><polygon class="cls-14" points="955.53 318.49 936.42 319.87 925.94 318 955.53 318.49"/><rect class="cls-8" x="1012.22" y="325.22" width="0.76" height="6.58" transform="translate(-51.68 693.39) rotate(-38.51)"/><rect class="cls-8" x="1016.77" y="325.22" width="0.76" height="6.58" transform="translate(1541.22 1210.37) rotate(-141.49)"/><rect class="cls-8" x="946.99" y="316.72" width="1.07" height="30.77"/><polygon class="cls-21" points="925.94 318 947.76 311.29 968.22 318.69 925.94 318"/><polygon class="cls-16" points="816.44 321.25 821.43 318.46 828.92 317.6 823.02 320.53 816.44 321.25"/><polygon class="cls-10" points="821.43 318.46 811.38 313.18 828.92 317.6 821.43 318.46"/><polygon class="cls-16" points="790.94 319.65 803.32 321.64 806.56 319.04 790.94 319.65"/><polygon class="cls-8" points="803.32 321.64 816.44 321.25 821.43 318.46 806.56 319.04 803.32 321.64"/><rect class="cls-8" x="876.37" y="326.04" width="0.76" height="8.95" transform="translate(-82.46 609.25) rotate(-38.51)"/><rect class="cls-8" x="882.6" y="325.46" width="0.76" height="9.6" transform="translate(1300.97 1129.95) rotate(-141.49)"/><rect class="cls-8" x="811.88" y="318.46" width="1.07" height="29.04"/><polygon class="cls-21" points="790.94 319.65 811.38 313.18 821.43 318.46 790.94 319.65"/><polygon class="cls-16" points="1107.7 317.21 1097.15 318.44 1088.06 321.79 1069.14 321.43 1059.51 317.92 1069.45 317.74 1094.58 316.53 1107.7 317.21"/><polygon class="cls-8" points="1069.14 321.43 1068.44 321.17 1072.64 317.73 1073.93 317.65 1069.14 321.43"/><polygon class="cls-8" points="1088.06 321.79 1088.77 321.53 1085.97 317.01 1085.21 317.06 1088.06 321.79"/><polygon class="cls-8" points="1096.72 318.6 1097.15 318.44 1094.58 316.53 1094.09 316.56 1096.72 318.6"/><polygon class="cls-10" points="1069.85 317.92 1059.51 317.92 1078.78 311.29 1069.85 317.92"/><polygon class="cls-10" points="1107.7 317.21 1094.58 316.53 1078.78 311.29 1107.7 317.21"/><rect class="cls-8" x="1145.57" y="323.11" width="0.76" height="8.95" transform="translate(-22.1 776.21) rotate(-38.51)"/><rect class="cls-8" x="1151.8" y="322.53" width="0.76" height="9.6" transform="translate(1782.65 1292.33) rotate(-141.49)"/><rect class="cls-8" x="1081.07" y="315.53" width="1.07" height="31.96"/><polygon class="cls-21" points="1069.18 317.92 1078.78 311.29 1094.58 316.53 1069.18 317.92"/><polygon class="cls-16" points="858.63 316.53 863.2 318.44 872.29 321.79 891.2 321.43 900.84 317.92 890.9 317.74 865.77 316.53 858.63 316.53"/><polygon class="cls-8" points="891.2 321.43 891.9 321.17 887.71 317.73 886.41 317.65 891.2 321.43"/><polygon class="cls-8" points="872.29 321.79 871.57 321.53 874.38 317.01 875.14 317.06 872.29 321.79"/><polygon class="cls-8" points="863.63 318.6 863.2 318.44 865.77 316.53 866.26 316.56 863.63 318.6"/><polygon class="cls-10" points="890.5 317.92 900.84 317.92 881.57 311.29 890.5 317.92"/><polygon class="cls-10" points="858.63 316.53 865.77 316.53 881.57 311.29 858.63 316.53"/><rect class="cls-8" x="948.72" y="323.11" width="0.76" height="8.95" transform="translate(1420.49 1166.35) rotate(-141.49)"/><rect class="cls-8" x="942.49" y="322.53" width="0.76" height="9.6" transform="translate(-66.1 649.72) rotate(-38.51)"/><rect class="cls-8" x="945.55" y="324.03" width="1.07" height="31.96" transform="translate(1824.82 671.52) rotate(-180)"/><polygon class="cls-21" points="891.17 317.92 881.57 311.29 865.77 316.53 891.17 317.92"/><polygon class="cls-16" points="1035.81 317.99 1030.03 321.41 1017.54 319.7 1014.91 317.47 1035.81 317.99"/><polygon class="cls-14" points="1017.54 319.7 1002.62 318.66 999.28 317.07 1014.91 317.47 1017.54 319.7"/><rect class="cls-8" x="1081.62" y="323.11" width="0.76" height="8.95" transform="translate(-36.01 736.4) rotate(-38.51)"/><rect class="cls-8" x="1087.85" y="322.53" width="0.76" height="9.6" transform="translate(1668.67 1252.52) rotate(-141.49)"/><rect class="cls-8" x="1017.13" y="315.53" width="1.07" height="31.96"/><polygon class="cls-21" points="999.28 317.07 1017.94 311.29 1035.81 317.99 999.28 317.07"/></g><g id="Koutoubia_Mosque" data-name="Koutoubia Mosque"><circle class="cls-22" cx="80.23" cy="34.25" r="14.5"/><rect class="cls-23" x="64.06" y="34.25" width="32.34" height="11.53"/><rect class="cls-19" x="45.68" y="67.11" width="68.56" height="280.39"/><rect class="cls-19" x="64.06" y="38.04" width="32.34" height="35.07"/><rect class="cls-22" x="71.07" y="38.04" width="19.05" height="35.07"/><path class="cls-8" d="M138.42,73.39V62.79c0-3.22,2.16-7.43,4.79-7.43h0c2.63,0,4.79,4.22,4.79,7.43V73.39Z" transform="translate(-67.35 -8.5)"/><path class="cls-19" d="M139.16,74V63.84c0-3.09,1.82-7.14,4-7.14h0c2.22,0,4,4,4,7.14V74Z" transform="translate(-67.35 -8.5)"/><path class="cls-22" d="M139.46,73.39V64c0-2.86,1.69-6.62,3.75-6.62h0c2.06,0,3.75,3.75,3.75,6.62v9.44Z" transform="translate(-67.35 -8.5)"/><path class="cls-10" d="M143.21,59.76s3.38.73,1.37,4.17a4.27,4.27,0,0,1,.64,2.56V72h-4V66.5a4.27,4.27,0,0,1,.64-2.56C139.82,60.49,143.21,59.76,143.21,59.76Z" transform="translate(-67.35 -8.5)"/><path class="cls-8" d="M147.89,73.39V62.79c0-3.22,2.16-7.43,4.79-7.43h0c2.63,0,4.79,4.22,4.79,7.43V73.39Z" transform="translate(-67.35 -8.5)"/><path class="cls-19" d="M148.63,74V63.84c0-3.09,1.82-7.14,4-7.14h0c2.22,0,4,4,4,7.14V74Z" transform="translate(-67.35 -8.5)"/><path class="cls-22" d="M148.93,73.39V64c0-2.86,1.69-6.62,3.75-6.62h0c2.06,0,3.75,3.75,3.75,6.62v9.44Z" transform="translate(-67.35 -8.5)"/><path class="cls-10" d="M152.68,59.76s3.38.73,1.37,4.17a4.27,4.27,0,0,1,.64,2.56V72h-4V66.5a4.27,4.27,0,0,1,.64-2.56C149.3,60.49,152.68,59.76,152.68,59.76Z" transform="translate(-67.35 -8.5)"/><polygon class="cls-6" points="64.06 29 66.32 29 67.85 34.25 64.06 34.25 64.06 29"/><polygon class="cls-6" points="96.4 29 94.14 29 92.61 34.25 96.4 34.25 96.4 29"/><polygon class="cls-6" points="70.18 29 72.22 29 73.92 34.25 68.48 34.25 70.18 29"/><polygon class="cls-6" points="76.25 29 78.29 29 79.98 34.25 74.55 34.25 76.25 29"/><polygon class="cls-6" points="82.32 29 84.35 29 86.05 34.25 80.62 34.25 82.32 29"/><polygon class="cls-6" points="88.39 29 90.42 29 92.12 34.25 86.69 34.25 88.39 29"/><polygon class="cls-6" points="55.44 59.1 58.54 59.1 61.13 67.11 52.85 67.11 55.44 59.1"/><polygon class="cls-6" points="45.68 59.1 49.12 59.1 51.45 67.11 45.68 67.11 45.68 59.1"/><polygon class="cls-6" points="114.24 59.1 110.8 59.1 108.47 67.11 114.24 67.11 114.24 59.1"/><polygon class="cls-6" points="64.69 59.1 67.79 59.1 70.38 67.11 62.1 67.11 64.69 59.1"/><rect class="cls-6" x="45.68" y="64.89" width="68.56" height="4.43"/><polygon class="cls-6" points="73.94 59.1 77.04 59.1 79.63 67.11 71.35 67.11 73.94 59.1"/><polygon class="cls-6" points="83.18 59.1 86.29 59.1 88.88 67.11 80.59 67.11 83.18 59.1"/><polygon class="cls-6" points="92.43 59.1 95.54 59.1 98.13 67.11 89.84 67.11 92.43 59.1"/><polygon class="cls-6" points="101.68 59.1 104.79 59.1 107.38 67.11 99.09 67.11 101.68 59.1"/><rect class="cls-6" x="56.43" y="252.56" width="47.06" height="28.24"/><rect class="cls-19" x="57.03" y="253.18" width="46.46" height="27.62"/><rect class="cls-6" x="56.43" y="181.42" width="47.06" height="42.48"/><rect class="cls-19" x="56.95" y="181.89" width="46.54" height="42.01"/><rect class="cls-24" x="59.98" y="295.65" width="1.25" height="5.63"/><rect class="cls-24" x="59.98" y="237.34" width="1.25" height="5.63"/><rect class="cls-24" x="79.33" y="167.83" width="1.25" height="6.78"/><path class="cls-22" d="M137.49,289.3V276.48a6.15,6.15,0,0,0-12.31,0V289.3Z" transform="translate(-67.35 -8.5)"/><path class="cls-22" d="M169.43,289.3V276.48a6.17,6.17,0,0,0-6.15-6.15h0a6.17,6.17,0,0,0-6.15,6.15V289.3Z" transform="translate(-67.35 -8.5)"/><path class="cls-22" d="M153.46,289.3V276a6.15,6.15,0,1,0-12.31,0V289.3Z" transform="translate(-67.35 -8.5)"/><path class="cls-19" d="M131.33,276.15s-4.25,1.49-1.72,5c-.43.49-.41,1.25-.41,2.6v5.58h4.27v-5.58c0-1.35,0-2.11-.41-2.6C135.58,277.64,131.33,276.15,131.33,276.15Z" transform="translate(-67.35 -8.5)"/><path class="cls-19" d="M163.28,276.15s-4.25,1.49-1.72,5c-.43.49-.41,1.25-.41,2.6v5.58h4.27v-5.58c0-1.35,0-2.11-.41-2.6C167.53,277.64,163.28,276.15,163.28,276.15Z" transform="translate(-67.35 -8.5)"/><path class="cls-10" d="M147.31,276.15s-4.25,1.49-1.72,5c-.43.49-.41,1.25-.41,2.6v5.58h4.27v-5.58c0-1.35,0-2.11-.41-2.6C151.56,277.64,147.31,276.15,147.31,276.15Z" transform="translate(-67.35 -8.5)"/><path class="cls-6" d="M169.19,232.4V215.5c0-12.58-12-22.87-21.26-22.87-8.75,0-21.26,10.29-21.26,22.87v16.9Z" transform="translate(-67.35 -8.5)"/><path class="cls-19" d="M168.21,232.4V215.9c0-12.28-11.48-22.33-20.28-22.33-8.35,0-20.28,10-20.28,22.33v16.5Z" transform="translate(-67.35 -8.5)"/><rect class="cls-6" x="65.89" y="204.01" width="29.38" height="19.88"/><path class="cls-22" d="M151.64,232.4V220.67c0-3.1-1.71-5.63-3.79-5.63h0c-2.09,0-3.79,2.53-3.79,5.63V232.4Z" transform="translate(-67.35 -8.5)"/><path class="cls-10" d="M147.85,217.9s-4.25,1.65-1.72,5.49c-.43.54-.41,1.38-.41,2.86v6.14H150v-6.14c0-1.49,0-2.33-.41-2.86C152.1,219.55,147.85,217.9,147.85,217.9Z" transform="translate(-67.35 -8.5)"/><path class="cls-22" d="M161.94,232.4V220.67c0-3.1-1.71-5.63-3.79-5.63h0c-2.09,0-3.79,2.53-3.79,5.63V232.4Z" transform="translate(-67.35 -8.5)"/><path class="cls-19" d="M158.15,217.9s-4.25,1.65-1.72,5.49c-.43.54-.41,1.38-.41,2.86v6.14h4.27v-6.14c0-1.49,0-2.33-.41-2.86C162.4,219.55,158.15,217.9,158.15,217.9Z" transform="translate(-67.35 -8.5)"/><path class="cls-22" d="M141.51,232.4V220.67c0-3.1-1.71-5.63-3.79-5.63h0c-2.09,0-3.79,2.53-3.79,5.63V232.4Z" transform="translate(-67.35 -8.5)"/><path class="cls-19" d="M137.72,217.9s-4.25,1.65-1.72,5.49c-.43.54-.41,1.38-.41,2.86v6.14h4.27v-6.14c0-1.49,0-2.33-.41-2.86C142,219.55,137.72,217.9,137.72,217.9Z" transform="translate(-67.35 -8.5)"/><path class="cls-10" d="M150.56,205.85V199.6c0-1.42-.85-2.58-1.88-2.58h-1.49c-1,0-1.88,1.16-1.88,2.58v6.25Z" transform="translate(-67.35 -8.5)"/><ellipse class="cls-10" cx="80.58" cy="187.56" rx="1.06" ry="1.18"/><rect class="cls-6" x="62.17" y="117.97" width="36.11" height="40.1"/><rect class="cls-19" x="62.67" y="118.44" width="35.12" height="39.23"/><rect class="cls-6" x="65.87" y="122.27" width="28.72" height="35.8"/><rect class="cls-19" x="66.54" y="123.02" width="27.38" height="34.65"/><rect class="cls-6" x="68.11" y="127.85" width="24.25" height="30.22"/><rect class="cls-19" x="68.67" y="128.48" width="23.11" height="29.18"/><rect class="cls-6" x="70.92" y="142.17" width="8.22" height="15.5"/><rect class="cls-19" x="71.12" y="142.36" width="7.84" height="15.31"/><rect class="cls-6" x="81.32" y="142.17" width="8.22" height="15.5"/><rect class="cls-19" x="81.51" y="142.38" width="7.84" height="15.29"/><rect class="cls-6" x="65.87" y="124.73" width="28.72" height="0.61"/><path class="cls-6" d="M141.94,153.48l-2.84,5a1.17,1.17,0,0,0-.15.57v7.07h6.85V159.1a1.17,1.17,0,0,0-.15-.57l-2.84-5A.5.5,0,0,0,141.94,153.48Z" transform="translate(-67.35 -8.5)"/><path class="cls-19" d="M142,153.7l-2.7,5a1.17,1.17,0,0,0-.14.56v6.95h6.52v-6.95a1.18,1.18,0,0,0-.14-.56l-2.7-5A.47.47,0,0,0,142,153.7Z" transform="translate(-67.35 -8.5)"/><path class="cls-10" d="M144.29,166.17v-5.65a.94.94,0,0,0-.94-.94h-1.94a.94.94,0,0,0-.94.94v5.65Z" transform="translate(-67.35 -8.5)"/><circle class="cls-10" cx="75.03" cy="149.65" r="1.82"/><path class="cls-6" d="M152.34,153.47l-2.84,5a1.17,1.17,0,0,0-.15.57v7.07h6.85v-7.07a1.17,1.17,0,0,0-.15-.57l-2.84-5A.5.5,0,0,0,152.34,153.47Z" transform="translate(-67.35 -8.5)"/><path class="cls-19" d="M152.36,153.69l-2.7,5a1.17,1.17,0,0,0-.14.56v6.95H156v-6.95a1.18,1.18,0,0,0-.14-.56l-2.7-5A.47.47,0,0,0,152.36,153.69Z" transform="translate(-67.35 -8.5)"/><path class="cls-10" d="M154.68,166.16v-5.65a.94.94,0,0,0-.94-.94h-1.94a.94.94,0,0,0-.94.94v5.65Z" transform="translate(-67.35 -8.5)"/><circle class="cls-10" cx="85.43" cy="149.65" r="1.82"/><path class="cls-10" d="M138,139l-1.08,1.73a.37.37,0,0,0-.06.2v2.42h2.6v-2.42a.37.37,0,0,0-.06-.2L138.34,139A.2.2,0,0,0,138,139Z" transform="translate(-67.35 -8.5)"/><path class="cls-10" d="M156.82,139l-1.08,1.73a.37.37,0,0,0-.06.2v2.42h2.6v-2.42a.37.37,0,0,0-.06-.2L157.15,139A.2.2,0,0,0,156.82,139Z" transform="translate(-67.35 -8.5)"/><rect class="cls-23" x="45.68" y="67.11" width="68.56" height="11.53"/><circle class="cls-6" cx="80.23" cy="15.55" r="4.2"/><circle class="cls-6" cx="80.23" cy="8.74" r="2.61"/><circle class="cls-6" cx="80.23" cy="4.3" r="1.83"/><rect class="cls-19" x="79.92" width="0.62" height="1.38"/><circle class="cls-6" cx="80.23" cy="1.8" r="0.67"/><rect class="cls-6" x="57.5" y="80.37" width="46.18" height="24.32"/><rect class="cls-19" x="58.08" y="80.92" width="45.61" height="23.76"/><path class="cls-22" d="M147.28,113.19v-9.35c0-2.84-2-6.55-4.53-6.55h0c-2.49,0-4.53,3.72-4.53,6.55v9.35Z" transform="translate(-67.35 -8.5)"/><path class="cls-10" d="M142.75,100.77s-3.79.94-1.54,4.38a3.91,3.91,0,0,0-.72,2.56v5.49H145V107.7a3.91,3.91,0,0,0-.72-2.56C146.54,101.71,142.75,100.77,142.75,100.77Z" transform="translate(-67.35 -8.5)"/><path class="cls-22" d="M136,113.19v-9.35c0-2.84-2-6.55-4.53-6.55h0c-2.49,0-4.53,3.72-4.53,6.55v9.35Z" transform="translate(-67.35 -8.5)"/><path class="cls-10" d="M131.42,100.77s-3.79.94-1.54,4.38a3.91,3.91,0,0,0-.72,2.56v5.49h4.51V107.7a3.91,3.91,0,0,0-.72-2.56C135.22,101.71,131.42,100.77,131.42,100.77Z" transform="translate(-67.35 -8.5)"/><path class="cls-10" d="M136.68,99.84l-3.8-3.31a.28.28,0,0,1-.07-.35c.67-1.21,4.41-7.31,8.12,0a.31.31,0,0,1-.07.36l-3.8,3.31A.29.29,0,0,1,136.68,99.84Z" transform="translate(-67.35 -8.5)"/><path class="cls-23" d="M69,86.8h1.07a.38.38,0,0,1,.38.38v3.29a0,0,0,0,1,0,0H68.6a0,0,0,0,1,0,0V87.19A.38.38,0,0,1,69,86.8Z"/><path class="cls-10" d="M147.75,99.63,144,96.32a.28.28,0,0,1-.07-.35c.67-1.21,4.41-7.31,8.12,0a.31.31,0,0,1-.07.36l-3.8,3.31A.29.29,0,0,1,147.75,99.63Z" transform="translate(-67.35 -8.5)"/><path class="cls-23" d="M80.06,86.6h1.07a.38.38,0,0,1,.38.38v3.29a0,0,0,0,1,0,0H79.68a0,0,0,0,1,0,0V87A.38.38,0,0,1,80.06,86.6Z"/><path class="cls-10" d="M135.13,90.57h-6.47a.23.23,0,0,0-.19.38l3.19,3.53a.31.31,0,0,0,.45,0L135.32,91A.23.23,0,0,0,135.13,90.57Z" transform="translate(-67.35 -8.5)"/><path class="cls-10" d="M146,90.63h-6.47a.23.23,0,0,0-.19.38l3.19,3.53a.31.31,0,0,0,.45,0L146.17,91A.23.23,0,0,0,146,90.63Z" transform="translate(-67.35 -8.5)"/><path class="cls-10" d="M126.12,92.83V99.3a.23.23,0,0,0,.38.19L130,96.3a.31.31,0,0,0,0-.45l-3.53-3.21A.23.23,0,0,0,126.12,92.83Z" transform="translate(-67.35 -8.5)"/><path class="cls-22" d="M148.69,113.19v-9.35c0-2.84,2-6.55,4.53-6.55h0c2.49,0,4.53,3.72,4.53,6.55v9.35Z" transform="translate(-67.35 -8.5)"/><path class="cls-10" d="M153.22,100.77s3.79.94,1.54,4.38a3.91,3.91,0,0,1,.72,2.56v5.49H151V107.7a3.91,3.91,0,0,1,.72-2.56C149.43,101.71,153.22,100.77,153.22,100.77Z" transform="translate(-67.35 -8.5)"/><path class="cls-22" d="M160,113.19v-9.35c0-2.84,2-6.55,4.53-6.55h0c2.49,0,4.53,3.72,4.53,6.55v9.35Z" transform="translate(-67.35 -8.5)"/><path class="cls-10" d="M164.55,100.77s3.79.94,1.54,4.38a3.91,3.91,0,0,1,.72,2.56v5.49h-4.51V107.7a3.91,3.91,0,0,1,.72-2.56C160.75,101.71,164.55,100.77,164.55,100.77Z" transform="translate(-67.35 -8.5)"/><path class="cls-10" d="M159.29,99.84l3.8-3.31a.28.28,0,0,0,.07-.35c-.67-1.21-4.41-7.31-8.12,0a.31.31,0,0,0,.07.36l3.8,3.31A.29.29,0,0,0,159.29,99.84Z" transform="translate(-67.35 -8.5)"/><path class="cls-23" d="M158.18,95.3H160a0,0,0,0,1,0,0V98.6a.38.38,0,0,1-.38.38h-1.07a.38.38,0,0,1-.38-.38V95.3a0,0,0,0,1,0,0Z" transform="translate(250.85 185.78) rotate(-180)"/><path class="cls-10" d="M160.84,90.57h6.47a.23.23,0,0,1,.19.38l-3.19,3.53a.31.31,0,0,1-.45,0L160.65,91A.23.23,0,0,1,160.84,90.57Z" transform="translate(-67.35 -8.5)"/><path class="cls-10" d="M150,90.63h6.47a.23.23,0,0,1,.19.38l-3.19,3.53a.31.31,0,0,1-.45,0L149.8,91A.23.23,0,0,1,150,90.63Z" transform="translate(-67.35 -8.5)"/><path class="cls-10" d="M169.85,92.83V99.3a.23.23,0,0,1-.38.19l-3.53-3.19a.31.31,0,0,1,0-.45l3.53-3.21A.23.23,0,0,1,169.85,92.83Z" transform="translate(-67.35 -8.5)"/><rect class="cls-6" x="45.16" y="110.17" width="69.68" height="2.31"/></g><rect class="cls-25" x="75.96" y="294.73" width="38.28" height="52.77"/><rect class="cls-19" x="76.94" y="295.65" width="230.56" height="51.85"/><path class="cls-22" d="M271,322V311.6a3.54,3.54,0,0,1,7,0V322Z" transform="translate(-67.35 -8.5)"/><path class="cls-6" d="M277.41,322v-9.62a2.92,2.92,0,0,0-2.91-2.91h0a2.92,2.92,0,0,0-2.91,2.91V322Z" transform="translate(-67.35 -8.5)"/><path class="cls-22" d="M301,322V311.6a3.54,3.54,0,0,1,7,0V322Z" transform="translate(-67.35 -8.5)"/><path class="cls-6" d="M307.41,322v-9.62a2.92,2.92,0,0,0-2.91-2.91h0a2.92,2.92,0,0,0-2.91,2.91V322Z" transform="translate(-67.35 -8.5)"/><path class="cls-22" d="M327,322V311.6a3.54,3.54,0,0,1,7,0V322Z" transform="translate(-67.35 -8.5)"/><path class="cls-6" d="M333.41,322v-9.62a2.92,2.92,0,0,0-2.91-2.91h0a2.92,2.92,0,0,0-2.91,2.91V322Z" transform="translate(-67.35 -8.5)"/><path class="cls-22" d="M357,322V311.6a3.54,3.54,0,0,1,7,0V322Z" transform="translate(-67.35 -8.5)"/><path class="cls-6" d="M363.41,322v-9.62a2.92,2.92,0,0,0-2.91-2.91h0a2.92,2.92,0,0,0-2.91,2.91V322Z" transform="translate(-67.35 -8.5)"/><path class="cls-6" d="M316.78,318.71l-5,5.21a6.93,6.93,0,0,0-2,4.82V356h15.43V328.74a6.93,6.93,0,0,0-2-4.82l-5-5.21A1,1,0,0,0,316.78,318.71Z" transform="translate(-67.35 -8.5)"/><path class="cls-6" d="M343.12,318.71l-5,5.21a6.93,6.93,0,0,0-2,4.82V356h15.43V328.74a6.93,6.93,0,0,0-2-4.82l-5-5.21A1,1,0,0,0,343.12,318.71Z" transform="translate(-67.35 -8.5)"/><path class="cls-6" d="M289.51,318.71l-5,5.21a6.93,6.93,0,0,0-2,4.82V356h15.43V328.74a6.93,6.93,0,0,0-2-4.82l-5-5.21A1,1,0,0,0,289.51,318.71Z" transform="translate(-67.35 -8.5)"/><path class="cls-19" d="M289.58,319.7l-4.52,4.67a6.21,6.21,0,0,0-1.75,4.32v24.42h13.83V328.69a6.21,6.21,0,0,0-1.75-4.32l-4.52-4.67A.89.89,0,0,0,289.58,319.7Z" transform="translate(-67.35 -8.5)"/><rect class="cls-19" x="215.96" y="339.97" width="13.83" height="7.53"/><path class="cls-19" d="M316.86,319.7l-4.52,4.67a6.21,6.21,0,0,0-1.75,4.32v24.42h13.83V328.69a6.21,6.21,0,0,0-1.75-4.32l-4.52-4.67A.89.89,0,0,0,316.86,319.7Z" transform="translate(-67.35 -8.5)"/><rect class="cls-19" x="243.24" y="339.97" width="13.83" height="7.53"/><path class="cls-19" d="M343.19,319.7l-4.52,4.67a6.21,6.21,0,0,0-1.75,4.32v24.42h13.83V328.69a6.21,6.21,0,0,0-1.75-4.32l-4.52-4.67A.89.89,0,0,0,343.19,319.7Z" transform="translate(-67.35 -8.5)"/><rect class="cls-19" x="269.57" y="339.97" width="13.83" height="7.53"/><path class="cls-22" d="M155,322V311.6a3.54,3.54,0,0,1,7,0V322Z" transform="translate(-67.35 -8.5)"/><path class="cls-6" d="M161.41,322v-9.62a2.92,2.92,0,0,0-2.91-2.91h0a2.92,2.92,0,0,0-2.91,2.91V322Z" transform="translate(-67.35 -8.5)"/><path class="cls-22" d="M185,322V311.6a3.54,3.54,0,0,1,7,0V322Z" transform="translate(-67.35 -8.5)"/><path class="cls-6" d="M191.41,322v-9.62a2.92,2.92,0,0,0-2.91-2.91h0a2.92,2.92,0,0,0-2.91,2.91V322Z" transform="translate(-67.35 -8.5)"/><path class="cls-22" d="M211,322V311.6a3.54,3.54,0,0,1,7,0V322Z" transform="translate(-67.35 -8.5)"/><path class="cls-6" d="M217.41,322v-9.62a2.92,2.92,0,0,0-2.91-2.91h0a2.92,2.92,0,0,0-2.91,2.91V322Z" transform="translate(-67.35 -8.5)"/><path class="cls-22" d="M241,322V311.6a3.54,3.54,0,0,1,7,0V322Z" transform="translate(-67.35 -8.5)"/><path class="cls-6" d="M247.41,322v-9.62a2.92,2.92,0,0,0-2.91-2.91h0a2.92,2.92,0,0,0-2.91,2.91V322Z" transform="translate(-67.35 -8.5)"/><path class="cls-6" d="M200.78,318.71l-5,5.21a6.93,6.93,0,0,0-2,4.82V356h15.43V328.74a6.93,6.93,0,0,0-2-4.82l-5-5.21A1,1,0,0,0,200.78,318.71Z" transform="translate(-67.35 -8.5)"/><path class="cls-6" d="M227.12,318.71l-5,5.21a6.93,6.93,0,0,0-2,4.82V356h15.43V328.74a6.93,6.93,0,0,0-2-4.82l-5-5.21A1,1,0,0,0,227.12,318.71Z" transform="translate(-67.35 -8.5)"/><path class="cls-6" d="M173.51,318.71l-5,5.21a6.93,6.93,0,0,0-2,4.82V356h15.43V328.74a6.93,6.93,0,0,0-2-4.82l-5-5.21A1,1,0,0,0,173.51,318.71Z" transform="translate(-67.35 -8.5)"/><path class="cls-19" d="M173.58,319.7l-4.52,4.67a6.21,6.21,0,0,0-1.75,4.32v24.42h13.83V328.69a6.21,6.21,0,0,0-1.75-4.32l-4.52-4.67A.89.89,0,0,0,173.58,319.7Z" transform="translate(-67.35 -8.5)"/><rect class="cls-19" x="99.96" y="339.97" width="13.83" height="7.53"/><path class="cls-19" d="M200.86,319.7l-4.52,4.67a6.21,6.21,0,0,0-1.75,4.32v24.42h13.83V328.69a6.21,6.21,0,0,0-1.75-4.32l-4.52-4.67A.89.89,0,0,0,200.86,319.7Z" transform="translate(-67.35 -8.5)"/><rect class="cls-19" x="127.24" y="339.97" width="13.83" height="7.53"/><path class="cls-19" d="M227.19,319.7l-4.52,4.67a6.21,6.21,0,0,0-1.75,4.32v24.42h13.83V328.69a6.21,6.21,0,0,0-1.75-4.32l-4.52-4.67A.89.89,0,0,0,227.19,319.7Z" transform="translate(-67.35 -8.5)"/><rect class="cls-19" x="153.57" y="339.97" width="13.83" height="7.53"/><path class="cls-1" d="M527.61,305.63s-2.64-35.4,9.6-49.09,5.62,5.44,5.62,5.44-8.24,28.79-3.47,53.07c4.87,24.8,9.86,40.95,9.86,40.95H537.87S529.25,337.4,527.61,305.63Z" transform="translate(-67.35 -8.5)"/><path class="cls-2" d="M541.12,255s-14.6-3.45-24.6,9c-11.56,16.09-3.84,22.49-3.84,22.49s2-7.65,6.58-10.24a16.63,16.63,0,0,1,1.65-8.23,7.63,7.63,0,0,0,2.09,6.22l5.05-5.15a3.56,3.56,0,0,1-1.07-3.58s.54,2,2.06,2.24S541.12,255,541.12,255Z" transform="translate(-67.35 -8.5)"/><path class="cls-2" d="M541.28,255.64s-.22-11.94-20.32-17.28c-11.76-2.67-20.72,9.79-20.72,9.79l12.39,4s.06-3.67,3.09-4.73c0,0-1,3.71.22,4.95l6.12,1s.75-3.36,2.82-3.32c0,0-.85,2.1.05,3.32l2.36.91s.94-3.48,2.73-3.37c0,0-.8,2.64.22,3.56C530.23,254.53,538.85,254.32,541.28,255.64Z" transform="translate(-67.35 -8.5)"/><path class="cls-2" d="M511.35,233.3s8.74,1.86,11.73,4.73c0,0,4-1.43,4.59-3.51,0,0-.09,3-.77,3.9,0,0,4.19,1.71,4.45,2.44,0,0,2.92-2.36,3.08-3l-.15,5.13,2,1.13s1.61-1.3,2.41-.61c0,0-1.42,1-1.47,1.71s5.1,11.73,5.1,11.73,3.5-3.84,1.54-17S528.33,225,528.33,225s-8.24-.34-13.91,3.83S511.35,233.3,511.35,233.3Z" transform="translate(-67.35 -8.5)"/><path class="cls-2" d="M575.48,230.42a.76.76,0,0,0,.17-1.08c-1.62-2.13-7.44-8.71-15.32-5a32.71,32.71,0,0,0-11.83,9.44s-7.29,12.52-7.23,21.85c0,1,7.94-9.07,12.72-10.74,0,0-.48-1.43.24-5.43,0,0,0,4,1.19,4.48,0,0,3.66-2.08,4.3-2.63,2.19-1.85.72-4.46,1.67-6.33,0,0,2.27,3.5,3.23,3S573.21,232,575.48,230.42Z" transform="translate(-67.35 -8.5)"/><path class="cls-2" d="M580.92,255s-9.93.15-13.24,1.34c0,0,1.06-2.25-4-5.67,0,0,1.77,5,1.06,5.67s-3.77,1-4.48.89,0-4.9-3.67-5.38c0,0,2.13,4.37.83,5.08s-9.76-.95-16.28-.24,7.19-9.22,7.19-9.22,15-6.74,22.45-3.78S579.86,251,580.92,255Z" transform="translate(-67.35 -8.5)"/><path class="cls-2" d="M559.51,287.3a19,19,0,0,0,1.66-16.75c-3.41-9.82-15.41-15.95-15.41-15.95s-6.72-1.63-6.59-.89S548.26,269,549,269.4s1.77-.28,1.77-.28.26,1.66-.48,2.4l1.11,1.66s2.12-.18,2.58.28-1.94,1.66-.92,3.14S557.3,280.85,559.51,287.3Z" transform="translate(-67.35 -8.5)"/><path class="cls-1" d="M91,312.57S88.68,282,99.23,270.24s4.85,4.69,4.85,4.69-7.1,24.83-3,45.76c4.2,21.39,8.5,35.31,8.5,35.31H99.8S92.37,340,91,312.57Z" transform="translate(-67.35 -8.5)"/><path class="cls-2" d="M102.6,269S90,266,81.39,276.69c-10,13.88-3.31,19.39-3.31,19.39s1.75-6.59,5.68-8.83a14.34,14.34,0,0,1,1.42-7.09,6.57,6.57,0,0,0,1.8,5.36l4.36-4.44a3.07,3.07,0,0,1-.93-3.09s.46,1.7,1.78,1.93S102.6,269,102.6,269Z" transform="translate(-67.35 -8.5)"/><path class="cls-2" d="M102.74,269.47s-.19-10.3-17.52-14.9C75.08,252.27,67.35,263,67.35,263L78,266.48s0-3.17,2.66-4.08c0,0-.82,3.2.19,4.27l5.28.88s.65-2.9,2.43-2.86c0,0-.74,1.81,0,2.86l2,.79s.81-3,2.35-2.9c0,0-.69,2.28.19,3.07C93.21,268.51,100.65,268.33,102.74,269.47Z" transform="translate(-67.35 -8.5)"/><path class="cls-2" d="M76.93,250.2s7.53,1.6,10.11,4.08c0,0,3.45-1.24,4-3,0,0-.08,2.58-.67,3.36,0,0,3.61,1.48,3.84,2.1,0,0,2.52-2,2.66-2.59l-.13,4.43,1.73,1s1.39-1.12,2.08-.53c0,0-1.23.83-1.27,1.48s4.4,10.11,4.4,10.11,3-3.31,1.33-14.69S91.57,243,91.57,243s-7.11-.29-12,3.3S76.93,250.2,76.93,250.2Z" transform="translate(-67.35 -8.5)"/><path class="cls-2" d="M132.23,247.72a.65.65,0,0,0,.14-.93c-1.4-1.84-6.42-7.51-13.21-4.29a28.2,28.2,0,0,0-10.2,8.14s-6.28,10.79-6.23,18.84c0,.84,6.85-7.82,11-9.26,0,0-.41-1.23.21-4.69,0,0,0,3.45,1,3.86,0,0,3.15-1.8,3.71-2.27,1.89-1.6.62-3.85,1.44-5.46,0,0,2,3,2.78,2.59S130.27,249.11,132.23,247.72Z" transform="translate(-67.35 -8.5)"/><path class="cls-2" d="M136.92,269s-8.56.13-11.41,1.15c0,0,.92-1.94-3.46-4.89,0,0,1.53,4.28.92,4.89s-3.25.87-3.86.76,0-4.23-3.17-4.64c0,0,1.83,3.77.71,4.38s-8.42-.82-14-.2,6.2-7.95,6.2-7.95,12.94-5.81,19.36-3.26S136,265.46,136.92,269Z" transform="translate(-67.35 -8.5)"/><path class="cls-2" d="M118.46,296.77a16.34,16.34,0,0,0,1.43-14.44c-2.94-8.47-13.29-13.75-13.29-13.75s-5.79-1.4-5.68-.77,7.83,13.21,8.47,13.52,1.53-.24,1.53-.24.22,1.43-.41,2.07l1,1.43s1.83-.16,2.23.24-1.67,1.43-.8,2.7S116.55,291.2,118.46,296.77Z" transform="translate(-67.35 -8.5)"/><path class="cls-26" d="M536.61,356s8.9-19-1.55-57h9.14s-.39,33.82,11.47,57Z" transform="translate(-67.35 -8.5)"/><ellipse class="cls-27" cx="472.78" cy="292.54" rx="7.25" ry="6.48"/><path class="cls-4" d="M546,295.17c-.36.33-4.07,3.36-15.11,2.53h0c-5.73.68-13.87-1.15-27.79,7.18a.23.23,0,0,1-.32-.33c3.22-4.72,19.83-26.67,42.5-13.58a.08.08,0,0,1,0,.06l.71,4.08A.08.08,0,0,1,546,295.17Z" transform="translate(-67.35 -8.5)"/><path class="cls-4" d="M559,286.34c.62-2,1.87-8.75-8.08-10a3.13,3.13,0,0,0-.53,0c-1.61.07-9.07,1.14-12.23,14.8a.13.13,0,0,0,0,.1l2.12,3.34a.13.13,0,0,0,.22,0c.39-.61,2.06-2.6,7.22-3.37a.13.13,0,0,0,.09-.07l2.53-4.73a3.76,3.76,0,0,1,1.4-1.47c2-1.17,6.49-3.27,7,1.44A.13.13,0,0,0,559,286.34Z" transform="translate(-67.35 -8.5)"/><path class="cls-4" d="M509.06,280.42c3.14-1.36,15.29-5.22,34.06,6.1l0,0c.79,1.3-2.81,5.79-3.09,6.14l0,0-3.95.06,0,0c-.54-.53-12.54-12.19-26.86-12A.19.19,0,0,1,509.06,280.42Z" transform="translate(-67.35 -8.5)"/><path class="cls-4" d="M561.57,316.43c-1.19-2.7-5.45-11.54-10.89-13.14a2.31,2.31,0,0,0-.71-.1,2,2,0,0,1-.65-.1c-2.64.25-2.37.81-6.88-1.08-5.94-2.49-2.45-8.58-2.45-8.58s4.39-4.38,12.73,2.08,9.69,8.43,9.9,15a23.32,23.32,0,0,1-.29,5.84A.41.41,0,0,1,561.57,316.43Z" transform="translate(-67.35 -8.5)"/><path class="cls-4" d="M569.32,303.11a.18.18,0,0,0,.28-.16c-.19-1.65-1.64-8.22-12.84-11.92-11.53-3.81-15.83.55-16.6,1.5a.17.17,0,0,0,.06.27c1.47.71,11,5.22,16.91,4.29h0C560.61,297.09,567.76,302,569.32,303.11Z" transform="translate(-67.35 -8.5)"/><path class="cls-4" d="M526.61,320a.23.23,0,0,1-.47,0c-.92-6.31-2.22-22.78,8.7-26,12.4-3.66,9.61,6.42,9,8.19a.23.23,0,0,1-.32.14c-1-.48-5.19-2-9.38,3.12h0C529,310.88,526.94,314.24,526.61,320Z" transform="translate(-67.35 -8.5)"/><path class="cls-1" d="M833.54,305.63s2.64-35.4-9.6-49.09-5.62,5.44-5.62,5.44,8.24,28.79,3.47,53.07c-4.87,24.8-9.86,40.95-9.86,40.95h11.35S831.9,337.4,833.54,305.63Z" transform="translate(-67.35 -8.5)"/><path class="cls-2" d="M820,255s14.6-3.45,24.6,9c11.56,16.09,3.84,22.49,3.84,22.49s-2-7.65-6.58-10.24a16.63,16.63,0,0,0-1.65-8.23,7.63,7.63,0,0,1-2.09,6.22l-5.05-5.15a3.56,3.56,0,0,0,1.07-3.58s-.54,2-2.06,2.24S820,255,820,255Z" transform="translate(-67.35 -8.5)"/><path class="cls-2" d="M819.87,255.64s.22-11.94,20.32-17.28c11.76-2.67,20.72,9.79,20.72,9.79l-12.39,4s-.06-3.67-3.09-4.73c0,0,1,3.71-.22,4.95l-6.12,1s-.75-3.36-2.82-3.32c0,0,.85,2.1-.05,3.32l-2.36.91s-.94-3.48-2.73-3.37c0,0,.8,2.64-.22,3.56C830.92,254.53,822.3,254.32,819.87,255.64Z" transform="translate(-67.35 -8.5)"/><path class="cls-2" d="M849.81,233.3s-8.74,1.86-11.73,4.73c0,0-4-1.43-4.59-3.51,0,0,.09,3,.77,3.9,0,0-4.19,1.71-4.45,2.44,0,0-2.92-2.36-3.08-3l.15,5.13-2,1.13s-1.61-1.3-2.41-.61c0,0,1.42,1,1.47,1.71s-5.1,11.73-5.1,11.73-3.5-3.84-1.54-17S832.82,225,832.82,225s8.24-.34,13.91,3.83S849.81,233.3,849.81,233.3Z" transform="translate(-67.35 -8.5)"/><path class="cls-2" d="M785.67,230.42a.76.76,0,0,1-.17-1.08c1.62-2.13,7.44-8.71,15.32-5a32.71,32.71,0,0,1,11.83,9.44s7.29,12.52,7.23,21.85c0,1-7.94-9.07-12.72-10.74,0,0,.48-1.43-.24-5.43,0,0,0,4-1.19,4.48,0,0-3.66-2.08-4.3-2.63-2.19-1.85-.72-4.46-1.67-6.33,0,0-2.27,3.5-3.23,3S787.94,232,785.67,230.42Z" transform="translate(-67.35 -8.5)"/><path class="cls-2" d="M780.23,255s9.93.15,13.24,1.34c0,0-1.06-2.25,4-5.67,0,0-1.77,5-1.06,5.67s3.77,1,4.48.89,0-4.9,3.67-5.38c0,0-2.13,4.37-.83,5.08s9.76-.95,16.28-.24-7.19-9.22-7.19-9.22-15-6.74-22.45-3.78S781.3,251,780.23,255Z" transform="translate(-67.35 -8.5)"/><path class="cls-2" d="M801.64,287.3A19,19,0,0,1,800,270.56c3.41-9.82,15.41-15.95,15.41-15.95s6.72-1.63,6.59-.89-9.08,15.32-9.82,15.69-1.77-.28-1.77-.28-.26,1.66.48,2.4l-1.11,1.66s-2.12-.18-2.58.28,1.94,1.66.92,3.14S803.85,280.85,801.64,287.3Z" transform="translate(-67.35 -8.5)"/><path class="cls-26" d="M824.55,356s-8.9-19,1.55-57H817s.39,34-11.47,57Z" transform="translate(-67.35 -8.5)"/><ellipse class="cls-27" cx="753.68" cy="292.54" rx="7.25" ry="6.48"/><path class="cls-4" d="M815.19,295.17c.36.33,4.07,3.36,15.11,2.53h0c5.73.68,13.87-1.15,27.79,7.18a.23.23,0,0,0,.32-.33c-3.22-4.72-19.83-26.67-42.5-13.58a.08.08,0,0,0,0,.06l-.71,4.08A.08.08,0,0,0,815.19,295.17Z" transform="translate(-67.35 -8.5)"/><path class="cls-4" d="M802.11,286.34c-.62-2-1.87-8.75,8.08-10a3.13,3.13,0,0,1,.53,0c1.61.07,9.07,1.14,12.23,14.8a.13.13,0,0,1,0,.1l-2.12,3.34a.13.13,0,0,1-.22,0c-.39-.61-2.06-2.6-7.22-3.37a.13.13,0,0,1-.09-.07l-2.53-4.73a3.76,3.76,0,0,0-1.4-1.47c-2-1.17-6.49-3.27-7,1.44A.13.13,0,0,1,802.11,286.34Z" transform="translate(-67.35 -8.5)"/><path class="cls-4" d="M852.09,280.42c-3.14-1.36-15.29-5.22-34.06,6.1l0,0c-.79,1.3,2.81,5.79,3.09,6.14l0,0,3.95.06,0,0c.54-.53,12.54-12.19,26.86-12A.19.19,0,0,0,852.09,280.42Z" transform="translate(-67.35 -8.5)"/><path class="cls-4" d="M799.58,316.43c1.19-2.7,5.45-11.54,10.89-13.14a2.31,2.31,0,0,1,.71-.1,2,2,0,0,0,.65-.1c2.64.25,2.37.81,6.88-1.08,5.94-2.49,2.45-8.58,2.45-8.58s-4.39-4.38-12.73,2.08-9.69,8.43-9.9,15a23.32,23.32,0,0,0,.29,5.84A.41.41,0,0,0,799.58,316.43Z" transform="translate(-67.35 -8.5)"/><path class="cls-4" d="M791.83,303.11a.18.18,0,0,1-.28-.16c.19-1.65,1.64-8.22,12.84-11.92,11.53-3.81,15.83.55,16.6,1.5a.17.17,0,0,1-.06.27c-1.47.71-11,5.22-16.91,4.29h0C800.54,297.09,793.39,302,791.83,303.11Z" transform="translate(-67.35 -8.5)"/><path class="cls-4" d="M834.54,320a.23.23,0,0,0,.47,0c.92-6.31,2.22-22.78-8.7-26-12.4-3.66-9.61,6.42-9,8.19a.23.23,0,0,0,.32.14c1-.48,5.19-2,9.38,3.12h0C832.15,310.88,834.21,314.24,834.54,320Z" transform="translate(-67.35 -8.5)"/><g id="Blue_House_-_Gardens" data-name="Blue House - Gardens"><rect class="cls-8" x="373.3" y="250.11" width="1.2" height="0.8" rx="0.34" ry="0.34"/><rect class="cls-8" x="373.43" y="249.55" width="0.94" height="0.63" rx="0.29" ry="0.29"/><rect class="cls-8" x="373.59" y="249.01" width="0.63" height="0.63" rx="0.29" ry="0.29"/><polygon class="cls-28" points="367 347.5 264.67 347.5 264.67 299.02 367 292.16 367 299.02 367 347.5"/><rect class="cls-28" x="264.67" y="337.12" width="80.64" height="10.38"/><polygon class="cls-4" points="259.85 266.55 254.22 264.9 254.5 264.01 260.14 265.66 259.85 266.55"/><rect class="cls-28" x="254.12" y="272.98" width="123.5" height="4.86"/><rect class="cls-28" x="256.23" y="234.55" width="34.62" height="4.64"/><rect class="cls-28" x="277.12" y="251.37" width="10.81" height="10.84"/><rect class="cls-29" x="333.71" y="262.21" width="43.91" height="1.26"/><rect class="cls-29" x="268.46" y="262.21" width="25.77" height="1.26"/><polygon class="cls-28" points="268.46 276.56 258.49 276.56 258.37 265.69 260.14 265.66 268.47 270.4 268.46 276.56"/><polygon class="cls-16" points="373.32 250.74 365.45 258.81 383.76 260.58 374.5 250.74 373.32 250.74"/><polygon class="cls-8" points="374.5 250.74 383.45 257.74 379.92 259.76 374.5 250.74"/><rect class="cls-30" x="384.65" y="262.21" width="23.89" height="0.98"/><rect class="cls-30" x="377.62" y="254.4" width="7.53" height="0.98"/><rect class="cls-29" x="361.87" y="257.31" width="14.11" height="5.14"/><rect class="cls-29" x="363.51" y="277.83" width="14.11" height="69.67"/><rect class="cls-28" x="373.45" y="296.2" width="41.53" height="51.3"/><rect class="cls-29" x="384.65" y="257.31" width="23.66" height="4.9"/><rect class="cls-29" x="384.65" y="263.2" width="23.66" height="33"/><rect class="cls-29" x="378.16" y="255.38" width="6.49" height="40.82"/><polygon class="cls-30" points="378.39 255.38 375.99 257.31 375.52 257.31 374.3 257.31 377.62 254.4 378.39 255.38"/><polygon class="cls-28" points="378.39 255.38 378.39 296.2 376.95 296.2 376.95 262.21 375.22 262.21 375.22 257.31 375.99 257.31 378.39 255.38"/><rect class="cls-28" x="290.85" y="235.35" width="50.67" height="40.06"/><rect class="cls-31" x="293.66" y="253.45" width="1.71" height="16.45"/><polygon class="cls-28" points="361.87 262.45 361.87 257.31 341.52 260.81 341.52 262.21 361.87 262.45"/><rect class="cls-29" x="292.69" y="238.57" width="44.67" height="4.56"/><rect class="cls-31" x="292.69" y="239.65" width="44.67" height="1.68"/><polygon class="cls-31" points="256.23 239.2 274.11 262.21 277.12 262.21 277.12 251.37 287.93 251.37 287.93 248.19 290.85 248.19 290.85 239.2 256.23 239.2"/><rect class="cls-29" x="287.93" y="248.19" width="2.92" height="14.03"/><polygon class="cls-29" points="330.43 333.17 264.67 333.17 264.67 284.69 330.43 277.83 330.43 284.69 330.43 333.17"/><polygon class="cls-28" points="367 333.17 301.25 333.17 301.25 284.69 367 277.83 367 284.69 367 333.17"/><polygon class="cls-31" points="254.12 277.83 264.67 284.38 337.29 284.38 367 277.83 254.12 277.83"/><rect class="cls-19" x="386.1" y="314.12" width="16.07" height="10.88"/><rect class="cls-4" x="373.45" y="290.27" width="41.03" height="5.93"/><polygon class="cls-4" points="373.45 296.2 367.14 298.61 367.14 293.37 373.45 290.27 373.45 296.2"/><rect class="cls-31" x="334.68" y="253.45" width="1.71" height="16.45"/><rect class="cls-31" x="296.05" y="249.85" width="17.48" height="20.05"/><rect class="cls-31" x="319.29" y="249.85" width="14.74" height="20.05"/><rect class="cls-4" x="254.12" y="263.84" width="80.97" height="0.93"/><rect class="cls-4" x="317.36" y="276.44" width="9.13" height="0.93" transform="translate(531.5 -53.52) rotate(90)"/><rect class="cls-4" x="254.12" y="268.5" width="80.97" height="0.93"/><rect class="cls-4" x="254.12" y="266.17" width="80.97" height="0.93"/><rect class="cls-28" x="333.71" y="263.48" width="43.91" height="10.34"/><rect class="cls-28" x="268.47" y="263.48" width="25.76" height="13.09"/><polygon class="cls-29" points="337.37 254.31 337.37 243.13 292.69 243.13 292.69 254.31 296.05 254.31 296.05 250.06 334.03 250.06 334.03 254.31 337.37 254.31"/><rect class="cls-30" x="338.6" y="335.77" width="24.9" height="2.19"/><rect class="cls-30" x="338.6" y="338.95" width="24.9" height="2.19"/><rect class="cls-19" x="338.6" y="337.96" width="24.9" height="1.09"/><rect class="cls-19" x="338.6" y="341.14" width="24.9" height="1.09"/><rect class="cls-19" x="338.6" y="344.32" width="24.9" height="1.09"/><rect class="cls-30" x="338.6" y="342.13" width="24.9" height="2.19"/><rect class="cls-30" x="338.6" y="345.31" width="24.9" height="2.19"/><rect class="cls-4" x="312.82" y="311.42" width="21.99" height="11.69"/><rect class="cls-16" x="387" y="317" width="8" height="18" transform="translate(649.65 -73.5) rotate(90)"/><polyline class="cls-4" points="286.66 300.33 288.66 301.43 301.25 300.87 301.25 300.33 286.66 300.33"/><rect class="cls-32" x="293.66" y="304.78" width="7.58" height="29.34"/><path class="cls-4" d="M338,281v64h3V294.09c0-4.81,3.28-8.74,8-8.74s8,3.93,8,8.74V345h3V296.3c0-6.69,5-12.17,11.53-12.19S383,289.6,383,296.3V345h3V294.09a8.5,8.5,0,1,1,17,0V345h3V281Z" transform="translate(-67.35 -8.5)"/><rect class="cls-4" x="270.65" y="333.17" width="68" height="3.95"/></g><path class="cls-26" d="M335.91,344.3V330.48a1.78,1.78,0,0,0-1.78-1.78,1.86,1.86,0,0,0-1.85,1.85v15.19s0,.07,0,.1c0,.89.92,1.55,1.5,1.91h0c1.64.86,7.31,1.48,7.54.46,0-.19-.1-.49-.81-1l.25-1.89h0l-4.54-.69A.35.35,0,0,1,335.91,344.3Z" transform="translate(-67.35 -8.5)"/><path class="cls-26" d="M348,329.07a1.94,1.94,0,0,0-2,1.78v7.53c0,.18.08.32-.1.35l-4.44.69h0c.08.63.19,1.26.27,1.89-.72.47-.84.86-.8,1,.23,1,5.91.63,7.55-.37h0a2.52,2.52,0,0,0,1.46-2c0-.06,0-.14,0-.52,0-.19,0-.53,0-.71,0-2,0-4,0-6v-1.89A2,2,0,0,0,348,329.07Z" transform="translate(-67.35 -8.5)"/><path class="cls-26" d="M274,314.12h0a2.21,2.21,0,0,1,2.21,2.21v30.84a.29.29,0,0,1-.29.29h-3.83a.29.29,0,0,1-.29-.29V316.33A2.21,2.21,0,0,1,274,314.12Z"/><path class="cls-27" d="M406.62,347.32V337.06a1.32,1.32,0,0,1,1.32-1.32,1.38,1.38,0,0,1,1.37,1.37v11.27s0,0,0,.07c0,.66-.68,1.15-1.12,1.41h0c-1.22.64-5.42,1.1-5.59.34,0-.14.07-.36.6-.71l-.18-1.4h0l3.37-.52A.26.26,0,0,0,406.62,347.32Z" transform="translate(-67.35 -8.5)"/><path class="cls-27" d="M397.83,336a1.46,1.46,0,0,1,1.47,1.32v5.59c0,.13-.14.24,0,.26l3.25.52h-.05c-.06.47-.15.93-.21,1.4a1.13,1.13,0,0,1,.59,1c-.17.76-4.39-.08-5.61-.08h0a2.45,2.45,0,0,1-1.08-1.68s0-.2,0-.48.05-.44.05-.57c0-1.47.07-3,.07-4.48v-1.4A1.52,1.52,0,0,1,397.83,336Z" transform="translate(-67.35 -8.5)"/><path class="cls-27" d="M401.14,331.24H404a.22.22,0,0,1,.22.22v22.87a1.64,1.64,0,0,1-1.64,1.64h0a1.64,1.64,0,0,1-1.64-1.64V331.45a.22.22,0,0,1,.22-.22Z" transform="translate(737.78 678.7) rotate(-180)"/><path class="cls-19" d="M381.11,356a.56.56,0,0,0,.14-.36c-.05-1.36-4.38-6.14-6.65-6.22-1.81-.06-6.48,4.62-8.33,6.54l0,0Z" transform="translate(-67.35 -8.5)"/><path class="cls-26" d="M368.62,305.6a2.11,2.11,0,0,1,2.64-1.38,1.62,1.62,0,0,1,1.34,1.84c0,.61-.77,4.61-.77,4.61s-.26,2.77-2,3.59-3.07-2.2-3-3S368.62,305.6,368.62,305.6Z" transform="translate(-67.35 -8.5)"/><path class="cls-4" d="M367,317.22s-2.1-.56-2.36,2.71,0,3.89,0,3.89a2,2,0,0,0,2.15,1.79C368.81,325.62,367,317.22,367,317.22Z" transform="translate(-67.35 -8.5)"/><path class="cls-4" d="M367.12,324.39a2.58,2.58,0,0,0-2.57,2.51c-.35,2.61.26,7.22,1.29,9.22s3.87-.56,3.87-.56Z" transform="translate(-67.35 -8.5)"/><path class="cls-33" d="M378.65,337.35s1.38-1.38,2.46-1.17a1.59,1.59,0,0,1,1.33,1.74,45.05,45.05,0,0,1-1.89,8.14c-.92,2.46-2.3,5.07-3.48,6l-.57.31Z" transform="translate(-67.35 -8.5)"/><path class="cls-26" d="M374.44,327.29l0-.06c.15-.31,1.44-2.89,3.26-2.84a2.69,2.69,0,0,1,2.47,1.2l0,.05a8.18,8.18,0,0,1,.28,2.43c0,1.65-1.26,15.19-1.33,15.9V344c-.1.38-1.22,4.55-2.63,8.24a.38.38,0,0,1-.09.13h0l-.56.56-2.24-22.57a.37.37,0,0,1,0-.13Z" transform="translate(-67.35 -8.5)"/><path class="cls-4" d="M370.54,317.9a2.3,2.3,0,0,1,2-1.62,2.36,2.36,0,0,1,2.08.92s.34.52.34,4.93v11.4s.14,3-1.09,3.66-4-1-4-1l-1.54-6.3.19-8.3Z" transform="translate(-67.35 -8.5)"/><path class="cls-26" d="M367.7,313.12s-1.7.31-1.7,3.9v8a17.43,17.43,0,0,0,1.57,5.46c1.35,2.82,3.43-2.87,3.43-4.3v-9.66s.3-3.15-1.34-3.4S367.7,313.12,367.7,313.12Z" transform="translate(-67.35 -8.5)"/><path class="cls-4" d="M371.91,338.12s0-2.92,1.36-2.61,2.46.26,2.92,3.12a38.67,38.67,0,0,1,.41,9.42c-.31,2.92-.72,4.92-.72,4.92l-1.18.46-3.44-11.68Z" transform="translate(-67.35 -8.5)"/><path class="cls-26" d="M370.2,329.41s2.1,3.48,3.18,11.68,1.33,12.34,1.33,12.34l-.95.34s-7.25-15.14-7.25-17.4-.2-5.79.51-6.56,1.43-1.43,2.3-.92Z" transform="translate(-67.35 -8.5)"/><path class="cls-27" d="M372.83,354a22,22,0,0,1-7.3-9.6c-2.7-6.6-2.2-8-1.8-8.8a1.94,1.94,0,0,1,2.4-1c1.2.3,2.9,3.61,4.7,9.66s2.92,9.51,2.92,9.51Z" transform="translate(-67.35 -8.5)"/><path class="cls-19" d="M436.07,356a.42.42,0,0,1-.11-.27c0-1,3.31-4.63,5-4.69,1.36,0,4.9,3.49,6.29,4.94l0,0Z" transform="translate(-67.35 -8.5)"/><path class="cls-26" d="M445.5,317.94a1.6,1.6,0,0,0-2-1,1.22,1.22,0,0,0-1,1.39c0,.46.58,3.48.58,3.48s.19,2.09,1.55,2.71,2.32-1.66,2.24-2.24S445.5,317.94,445.5,317.94Z" transform="translate(-67.35 -8.5)"/><path class="cls-4" d="M446.71,326.72s1.59-.43,1.78,2a9,9,0,0,1,0,2.94,1.52,1.52,0,0,1-1.62,1.35C445.36,333.06,446.71,326.72,446.71,326.72Z" transform="translate(-67.35 -8.5)"/><path class="cls-4" d="M446.63,332.13a2,2,0,0,1,1.94,1.9,15.24,15.24,0,0,1-1,7c-.78,1.51-2.92-.43-2.92-.43Z" transform="translate(-67.35 -8.5)"/><path class="cls-33" d="M437.93,341.91s-1-1-1.86-.89a1.2,1.2,0,0,0-1,1.32,34,34,0,0,0,1.43,6.15,12.08,12.08,0,0,0,2.63,4.53l.43.23Z" transform="translate(-67.35 -8.5)"/><path class="cls-26" d="M441.11,334.32l0,0c-.11-.24-1.08-2.18-2.46-2.14a2,2,0,0,0-1.86.91l0,0a6.18,6.18,0,0,0-.21,1.84c0,1.24,1,11.47,1,12v0c.08.29.92,3.44,2,6.23a.28.28,0,0,0,.06.1h0l.42.42,1.69-17a.28.28,0,0,0,0-.1Z" transform="translate(-67.35 -8.5)"/><path class="cls-4" d="M444.06,327.23a1.74,1.74,0,0,0-1.54-1.22c-1.16,0-1.42.69-1.42.69a28.4,28.4,0,0,0-.1,3.73V339s-.27,2.28.67,2.76,2.91-.73,2.91-.73l1.13-4.76-.16-6.27Z" transform="translate(-67.35 -8.5)"/><path class="cls-26" d="M446.46,323.62s1.54.23,1.54,2.94v6.05a15.68,15.68,0,0,1-1.3,4.12c-1,2.13-2.7-2.17-2.7-3.25v-7.29s-.25-2.38,1-2.57S446.46,323.62,446.46,323.62Z" transform="translate(-67.35 -8.5)"/><path class="cls-4" d="M443,342.5s0-2.2-1-2-1.86.19-2.2,2.36a29.21,29.21,0,0,0-.31,7.12c.23,2.2.54,3.71.54,3.71l.89.35,2.6-8.82Z" transform="translate(-67.35 -8.5)"/><path class="cls-26" d="M444.31,335.92s-1.59,2.63-2.4,8.82-1,9.32-1,9.32l.72.26s5.47-11.44,5.47-13.14.15-4.37-.39-5-1.08-1.08-1.74-.7Z" transform="translate(-67.35 -8.5)"/><path class="cls-27" d="M442.32,354.49a16.58,16.58,0,0,0,5.51-7.25c2-5,1.66-6,1.36-6.65a1.47,1.47,0,0,0-1.81-.76c-.91.23-2.19,2.73-3.55,7.29s-2.21,7.19-2.21,7.19Z" transform="translate(-67.35 -8.5)"/><path class="cls-8" d="M181.68,346.12h61.14l-4.12-21.07a4.9,4.9,0,0,0-1.19-2,5.1,5.1,0,0,0-3-1.44H189.95a5,5,0,0,0-3,1.44,4.77,4.77,0,0,0-1.13,1.93Z" transform="translate(-67.35 -8.5)"/><path class="cls-24" d="M239.82,345l-3.52-18.64c-.12-.34-.31-.35-.56-.6a1.71,1.71,0,0,0-1.38-.41H190.13c-.32,0-1.2-.06-1.47.23a2.51,2.51,0,0,0-.4,1L184.68,345Z" transform="translate(-67.35 -8.5)"/><rect class="cls-8" x="172.55" y="342.55" width="94.96" height="26.02" rx="5.88" ry="5.88" transform="translate(372.7 702.62) rotate(180)"/><rect class="cls-8" x="211.04" y="322.37" width="2.41" height="24" transform="translate(357.15 660.24) rotate(-180)"/><rect class="cls-34" x="217.45" y="346.57" width="7.29" height="3.02" rx="1.51" ry="1.51" transform="translate(374.83 687.67) rotate(-180)"/><path class="cls-34" d="M261,348.09h6.49v7.47H261c-1.63,0-3-1.68-3-3.74S259.4,348.09,261,348.09Z" transform="translate(-67.35 -8.5)"/><path class="cls-34" d="M177.13,355.56h-4.59v-7.47h4.59c1.15,0,2.1,1.68,2.1,3.74S178.29,355.56,177.13,355.56Z" transform="translate(-67.35 -8.5)"/><path class="cls-34" d="M238.34,368.62a12.55,12.55,0,0,1,25,0Z" transform="translate(-67.35 -8.5)"/><path class="cls-34" d="M177.45,368.62a12.55,12.55,0,0,1,25,0Z" transform="translate(-67.35 -8.5)"/><circle class="cls-35" cx="183.51" cy="361.15" r="9.17"/><circle class="cls-4" cx="183.51" cy="361.15" r="5.56"/><circle class="cls-35" cx="122.62" cy="361.15" r="9.17"/><circle class="cls-4" cx="122.62" cy="361.15" r="5.56"/></svg>