<svg xmlns="http://www.w3.org/2000/svg" xmlns:xlink="http://www.w3.org/1999/xlink" viewBox="0 0 1212.53 548.09"><defs><style>.cls-1{isolation:isolate;}.cls-2{fill:#4d4d4d;}.cls-3,.cls-4,.cls-51,.cls-53,.cls-54,.cls-55,.cls-75{fill:none;}.cls-3,.cls-4{stroke:#fff;}.cls-3,.cls-4,.cls-54,.cls-55{stroke-linecap:round;}.cls-3,.cls-4,.cls-55{stroke-linejoin:round;}.cls-4{stroke-dasharray:5.98 7.98;}.cls-5{fill:#a100e2;}.cls-6{fill:#42005b;}.cls-7{fill:#cf2a84;}.cls-8{fill:#c6016d;}.cls-9{fill:#dfa8f5;}.cls-10{fill:#bf52eb;}.cls-11{fill:#622b77;}.cls-12{fill:#805491;}.cls-13{fill:#eed1fa;}.cls-14{fill:#cae4fd;}.cls-15{fill:#ae24e6;}.cls-16{fill:#c4e1fd;}.cls-17{fill:#f1f1f1;}.cls-18{fill:#cfe7fd;}.cls-19{fill:#f2f2f2;}.cls-20{fill:#d02f87;}.cls-21{fill:#dcedfe;}.cls-22,.cls-23,.cls-24,.cls-25,.cls-26,.cls-32,.cls-33,.cls-35,.cls-36,.cls-37,.cls-38,.cls-39,.cls-40,.cls-41,.cls-42,.cls-43,.cls-44,.cls-45,.cls-46,.cls-47,.cls-48,.cls-49,.cls-50,.cls-52,.cls-56,.cls-57,.cls-58,.cls-60,.cls-61,.cls-62,.cls-63,.cls-64,.cls-65,.cls-67,.cls-70,.cls-71,.cls-72,.cls-76,.cls-77,.cls-78,.cls-79,.cls-80,.cls-81,.cls-82,.cls-83,.cls-84,.cls-91,.cls-93{mix-blend-mode:multiply;}.cls-22{fill:url(#linear-gradient);}.cls-23{fill:url(#linear-gradient-2);}.cls-24{fill:url(#linear-gradient-3);}.cls-25{fill:url(#linear-gradient-4);}.cls-26{fill:url(#linear-gradient-5);}.cls-27{fill:#4d0f65;}.cls-28{fill:#cce5fd;}.cls-29,.cls-59{fill:#bda6c6;}.cls-30{fill:#ddeefe;}.cls-31{fill:#d5e9fe;}.cls-32{fill:url(#linear-gradient-6);}.cls-33{fill:url(#linear-gradient-7);}.cls-34{fill:#ddd1e1;}.cls-35{fill:url(#linear-gradient-8);}.cls-36{fill:url(#linear-gradient-9);}.cls-37{fill:url(#linear-gradient-10);}.cls-38{fill:url(#linear-gradient-11);}.cls-39{fill:url(#linear-gradient-12);}.cls-40{fill:url(#linear-gradient-13);}.cls-41{fill:url(#linear-gradient-14);}.cls-42{fill:url(#linear-gradient-15);}.cls-43{fill:url(#linear-gradient-16);}.cls-44{fill:url(#linear-gradient-17);}.cls-45{fill:url(#linear-gradient-18);}.cls-46{fill:url(#linear-gradient-19);}.cls-47{fill:url(#linear-gradient-20);}.cls-48{fill:url(#linear-gradient-21);}.cls-49{fill:url(#linear-gradient-22);}.cls-50{fill:url(#linear-gradient-23);}.cls-51,.cls-53{stroke:#bda6c6;}.cls-51,.cls-59{stroke-linejoin:bevel;}.cls-51,.cls-53,.cls-54,.cls-55,.cls-59,.cls-75{stroke-width:0.25px;}.cls-52{fill:url(#linear-gradient-24);}.cls-53,.cls-54,.cls-75{stroke-miterlimit:10;}.cls-54,.cls-55{stroke:#d5e9fe;}.cls-56{fill:url(#linear-gradient-25);}.cls-57{fill:url(#linear-gradient-26);}.cls-58{fill:url(#linear-gradient-27);}.cls-59{stroke:#42005b;}.cls-60{fill:url(#linear-gradient-28);}.cls-61{fill:url(#linear-gradient-29);}.cls-62{fill:url(#linear-gradient-30);}.cls-63{fill:url(#linear-gradient-31);}.cls-64{fill:url(#linear-gradient-32);}.cls-65{fill:url(#linear-gradient-33);}.cls-66{fill:#b638e8;}.cls-67{fill:url(#linear-gradient-34);}.cls-68{fill:#e5b8f7;}.cls-69{fill:#d080f1;}.cls-70{fill:url(#linear-gradient-35);}.cls-71{fill:url(#linear-gradient-36);}.cls-72{fill:url(#linear-gradient-37);}.cls-73{fill:#c80b73;}.cls-74{fill:#a812e4;}.cls-75{stroke:#c6016d;}.cls-76,.cls-77,.cls-78,.cls-79,.cls-80,.cls-81,.cls-82,.cls-83,.cls-84,.cls-93{opacity:0.5;}.cls-76{fill:url(#linear-gradient-38);}.cls-77{fill:url(#linear-gradient-39);}.cls-78{fill:url(#linear-gradient-40);}.cls-79{fill:url(#linear-gradient-41);}.cls-80{fill:url(#linear-gradient-42);}.cls-81{fill:url(#linear-gradient-43);}.cls-82{fill:url(#linear-gradient-44);}.cls-83{fill:url(#linear-gradient-45);}.cls-84{fill:url(#linear-gradient-46);}.cls-85{fill:#a3eeb0;}.cls-86,.cls-93{fill:#84e895;}.cls-87{fill:#415947;}.cls-88{fill:#cdeed6;}.cls-89{fill:#cbeed4;}.cls-90{fill:#d3f0db;}.cls-91{fill:#d6f1de;}.cls-92{fill:#b5f1bf;}.cls-94{fill:#daf3e1;}.cls-95{fill:#cde6fd;}.cls-96{fill:#7b4d8c;}.cls-97{fill:#1a1a1a;}</style><linearGradient id="linear-gradient" x1="784.76" y1="312.88" x2="784.76" y2="307.14" gradientUnits="userSpaceOnUse"><stop offset="0" stop-color="#fff"/><stop offset="1" stop-color="#ae24e6"/></linearGradient><linearGradient id="linear-gradient-2" x1="836.06" y1="334.34" x2="836.06" y2="330.7" gradientUnits="userSpaceOnUse"><stop offset="0" stop-color="#fff"/><stop offset="1" stop-color="#4d4d4d"/></linearGradient><linearGradient id="linear-gradient-3" x1="836.06" y1="367.76" x2="836.06" y2="364.12" xlink:href="#linear-gradient-2"/><linearGradient id="linear-gradient-4" x1="626.63" y1="334.34" x2="626.63" y2="330.7" xlink:href="#linear-gradient-2"/><linearGradient id="linear-gradient-5" x1="626.63" y1="367.76" x2="626.63" y2="364.12" xlink:href="#linear-gradient-2"/><linearGradient id="linear-gradient-6" x1="416.58" y1="293.52" x2="416.58" y2="291.32" gradientUnits="userSpaceOnUse"><stop offset="0" stop-color="#fff"/><stop offset="1" stop-color="#805491"/></linearGradient><linearGradient id="linear-gradient-7" x1="416.58" y1="263.86" x2="416.58" y2="261.66" xlink:href="#linear-gradient-6"/><linearGradient id="linear-gradient-8" x1="350.85" y1="262.07" x2="350.85" y2="260.35" gradientUnits="userSpaceOnUse"><stop offset="0" stop-color="#fff"/><stop offset="1" stop-color="#ddeefe"/></linearGradient><linearGradient id="linear-gradient-9" x1="389.96" y1="262.07" x2="389.96" y2="260.35" xlink:href="#linear-gradient-8"/><linearGradient id="linear-gradient-10" x1="443.21" y1="262.07" x2="443.21" y2="260.35" xlink:href="#linear-gradient-8"/><linearGradient id="linear-gradient-11" x1="482.32" y1="262.07" x2="482.32" y2="260.35" xlink:href="#linear-gradient-8"/><linearGradient id="linear-gradient-12" x1="350.85" y1="291.72" x2="350.85" y2="290" xlink:href="#linear-gradient-8"/><linearGradient id="linear-gradient-13" x1="350.85" y1="333.88" x2="350.85" y2="332.16" xlink:href="#linear-gradient-6"/><linearGradient id="linear-gradient-14" x1="389.95" y1="333.88" x2="389.95" y2="332.16" xlink:href="#linear-gradient-6"/><linearGradient id="linear-gradient-15" x1="443.2" y1="333.88" x2="443.2" y2="332.16" xlink:href="#linear-gradient-6"/><linearGradient id="linear-gradient-16" x1="482.29" y1="333.88" x2="482.29" y2="332.16" xlink:href="#linear-gradient-6"/><linearGradient id="linear-gradient-17" x1="389.96" y1="291.72" x2="389.96" y2="290" xlink:href="#linear-gradient-8"/><linearGradient id="linear-gradient-18" x1="443.21" y1="291.72" x2="443.21" y2="290" xlink:href="#linear-gradient-8"/><linearGradient id="linear-gradient-19" x1="482.32" y1="291.72" x2="482.32" y2="290" xlink:href="#linear-gradient-8"/><linearGradient id="linear-gradient-20" x1="416.63" y1="339.36" x2="416.63" y2="337.15" xlink:href="#linear-gradient-8"/><linearGradient id="linear-gradient-21" x1="350.86" y1="321.32" x2="350.86" y2="320.15" xlink:href="#linear-gradient-6"/><linearGradient id="linear-gradient-22" x1="350.86" y1="307.54" x2="350.86" y2="306.37" xlink:href="#linear-gradient-6"/><linearGradient id="linear-gradient-23" x1="416.58" y1="356.06" x2="416.58" y2="353.85" xlink:href="#linear-gradient-8"/><linearGradient id="linear-gradient-24" x1="462.75" y1="197.91" x2="462.75" y2="193.69" gradientUnits="userSpaceOnUse"><stop offset="0" stop-color="#fff" stop-opacity="0.65"/><stop offset="1" stop-color="#bda6c6"/></linearGradient><linearGradient id="linear-gradient-25" x1="462.75" y1="202.3" x2="462.75" y2="196.33" gradientUnits="userSpaceOnUse"><stop offset="0.23" stop-color="#fff" stop-opacity="0.65"/><stop offset="0.38" stop-color="#f6f2f7" stop-opacity="0.68"/><stop offset="0.58" stop-color="#dbcee0" stop-opacity="0.75"/><stop offset="0.8" stop-color="#af93ba" stop-opacity="0.87"/><stop offset="1" stop-color="#805491"/></linearGradient><linearGradient id="linear-gradient-26" x1="370.36" y1="197.91" x2="370.36" y2="193.69" xlink:href="#linear-gradient-24"/><linearGradient id="linear-gradient-27" x1="370.36" y1="202.3" x2="370.36" y2="196.33" xlink:href="#linear-gradient-25"/><linearGradient id="linear-gradient-28" x1="389.95" y1="321.32" x2="389.95" y2="320.15" xlink:href="#linear-gradient-6"/><linearGradient id="linear-gradient-29" x1="389.95" y1="307.54" x2="389.95" y2="306.37" xlink:href="#linear-gradient-6"/><linearGradient id="linear-gradient-30" x1="443.19" y1="321.32" x2="443.19" y2="320.15" xlink:href="#linear-gradient-6"/><linearGradient id="linear-gradient-31" x1="443.19" y1="307.54" x2="443.19" y2="306.37" xlink:href="#linear-gradient-6"/><linearGradient id="linear-gradient-32" x1="482.29" y1="321.32" x2="482.29" y2="320.15" xlink:href="#linear-gradient-6"/><linearGradient id="linear-gradient-33" x1="482.29" y1="307.54" x2="482.29" y2="306.37" xlink:href="#linear-gradient-6"/><linearGradient id="linear-gradient-34" x1="531.65" y1="398.69" x2="531.65" y2="382.11" gradientUnits="userSpaceOnUse"><stop offset="0" stop-color="#c6016d"/><stop offset="1" stop-color="#e5b8f7" stop-opacity="0.2"/></linearGradient><linearGradient id="linear-gradient-35" x1="531.65" y1="323.04" x2="531.65" y2="314.64" gradientUnits="userSpaceOnUse"><stop offset="0" stop-color="#fff"/><stop offset="1" stop-color="#cc1d7d"/></linearGradient><linearGradient id="linear-gradient-36" x1="531.65" y1="274.11" x2="531.65" y2="265.71" xlink:href="#linear-gradient-35"/><linearGradient id="linear-gradient-37" x1="531.65" y1="359.73" x2="531.65" y2="351.33" xlink:href="#linear-gradient-35"/><linearGradient id="linear-gradient-38" x1="303.5" y1="382" x2="303.5" y2="360" gradientUnits="userSpaceOnUse"><stop offset="0" stop-color="#f1f1f1"/><stop offset="1" stop-color="#fff"/></linearGradient><linearGradient id="linear-gradient-39" x1="311.37" x2="311.37" xlink:href="#linear-gradient-38"/><linearGradient id="linear-gradient-40" x1="320.44" x2="320.44" xlink:href="#linear-gradient-38"/><linearGradient id="linear-gradient-41" x1="330" x2="330" xlink:href="#linear-gradient-38"/><linearGradient id="linear-gradient-42" x1="339.5" x2="339.5" xlink:href="#linear-gradient-38"/><linearGradient id="linear-gradient-43" x1="348.98" x2="348.98" xlink:href="#linear-gradient-38"/><linearGradient id="linear-gradient-44" x1="357.82" x2="357.82" xlink:href="#linear-gradient-38"/><linearGradient id="linear-gradient-45" x1="367" x2="367" xlink:href="#linear-gradient-38"/><linearGradient id="linear-gradient-46" x1="372.39" y1="380.49" x2="372.39" xlink:href="#linear-gradient-38"/></defs><title>paris_colour</title><g class="cls-1"><g id="Layer_1" data-name="Layer 1"><path class="cls-2" d="M798.11,447.22H784.3c-10.42,0-18.92,7-18.92,14.15s8.5,13.06,18.92,13.06h326.25a19.18,19.18,0,0,1,3,0,19,19,0,0,1,7,2.42c1,.61,3,1.32,3.87,2.1,2.59,2.42,5.19,5.51,5.19,8.79v1.72c0,7.15-9.42,11-19,11H282.74c-2.76,0-5.35.15-7.62-.51-.19-.05-.36,0-.54,0a10,10,0,0,1-1.71-.68,14.19,14.19,0,0,1-3.64-2.35,8.15,8.15,0,0,1-1.54-2.77c-.78-1.5-.6-3-.6-4.7v-1.72c0-7.15,6.05-13.36,15.65-13.36h106.5c9.62,0,15.24-6.09,15.24-13.24v-.05c0-7.15-5.62-13.92-15.24-13.92H47.84c-2.17,0-3.76.11-5.54-.64-5.4-2.23-8.57-6.78-8.57-11.76v-1.74c0-7.15,6.52-13.07,16.1-13.07H1228.5a22.63,22.63,0,0,1,12.08,3.43l1.76,1.49a10.6,10.6,0,0,1,3.93,8.15v1.74a11.12,11.12,0,0,1-5,8.89,17.92,17.92,0,0,1-9.42,3.14c-.86.08-1.72.25-2.73.27-.61,0-1.11.1-1.67.1H806.83" transform="translate(-33.74 -11.26)"/><rect class="cls-2" x="862.51" y="519.78" width="28.35" height="28.3" rx="12.96" ry="12.96"/><line class="cls-3" x1="19.64" y1="422.91" x2="22.64" y2="422.91"/><line class="cls-4" x1="30.62" y1="422.91" x2="1185.66" y2="422.91"/><line class="cls-3" x1="1189.65" y1="422.91" x2="1192.65" y2="422.91"/><path class="cls-2" d="M860.26,543.66v2.19c0,7.15-6.3,12.4-13.47,12.4H732.94a8.46,8.46,0,0,1-4-.67c-4.73-2-7.17-6.31-7.17-11.73v-2.19c0-7.15,4-13.71,11.16-13.71H846.8a12.77,12.77,0,0,1,3.26.79,13.54,13.54,0,0,1,9.56,9.5A13.89,13.89,0,0,1,860.26,543.66Z" transform="translate(-33.74 -11.26)"/><path class="cls-5" d="M192.14,59h-15.2s-4.67,144-13.4,182h42C196.81,203,192.14,59,192.14,59Z" transform="translate(-33.74 -11.26)"/><path class="cls-6" d="M165.53,242c7.88-39,12.53-167,13.08-181h11.86c.55,14,5.52,142,13.4,181Z" transform="translate(-33.74 -11.26)"/><rect class="cls-7" x="142.18" y="34.09" width="17.24" height="12.93"/><rect class="cls-8" x="142.18" y="47" width="17.24" height="15.07"/><polygon class="cls-6" points="154.26 34.11 147.37 34.11 148.65 1.78 152.96 1.78 154.26 34.11"/><path class="cls-5" d="M207.14,247.78H161.23S143.16,306,136.7,314.59h29.58s8.09-34.48,8.93-47.42h17.95c.84,12.93,8.93,47.42,8.93,47.42h29.58C225.21,306,207.14,247.78,207.14,247.78Z" transform="translate(-33.74 -11.26)"/><path class="cls-6" d="M203.83,315c-1.48-5-8.22-36.89-9-48.1l-.11-1.9H173.59l-.11,1.9c-.73,11.21-7.47,43.1-9,48.1h-26c6.89-13,21.89-61,24.37-66H205c2.49,5,17.42,53,24.32,66Z" transform="translate(-33.74 -11.26)"/><path class="cls-5" d="M296.39,419.89h-41s-18.79-66.28-70.52-66.28c-19.59,0-34.44,9.53-45.35,21.34-1.25,1.36-2.46,2.76-3.6,4.18-15.22,18.66-21.42,40.76-21.42,40.76h-41l.15-1.22,55.2-82.84h112l55.33,82.8Z" transform="translate(-33.74 -11.26)"/><path class="cls-6" d="M256.71,418c-3-8-23.37-66.19-71.79-66.19-17.52,0-33.2,7.41-46.61,21.93-1.29,1.4-2.52,2.77-3.68,4.21C121.26,394.34,114.83,413,113.27,418H76.16l53.71-79H240l53.86,79Z" transform="translate(-33.74 -11.26)"/><path class="cls-5" d="M187.65,188.57c-1.93-23.11-1.6-42.05-2-53.27v-62h-.05c-.5,0,.05,0-2.1,0v0h0V141c0,11.43,0,27.83-1.61,47.4s-3.48,37.27-5.56,52.92h1.85c2.24-18.16,4.14-37.37,5.6-56.92,1-13,.54-26,1.06-38.54.52,12.76.09,25.79,1.08,39.07,1.45,19.54,2.35,38.38,4.59,56.54h1.85C190.28,225.81,189.28,208.11,187.65,188.57Z" transform="translate(-33.74 -11.26)"/><polygon class="cls-5" points="179.66 256 121.23 256 123.35 249.53 177.54 249.53 179.66 256"/><path class="cls-5" d="M156.53,333.68c-.26.56-.5,1.12-.75,1.7-3.69,8.41-7.57,19.25-11.6,28.86-1,2.37-2,4.61-3,7-.54,1.25-1.06,2.5-1.62,3.75-1.25,1.36-2.46,2.76-3.6,4.18.62-1.47,1.29-3,1.94-4.44,1.08-2.46,2.16-4.72,3.23-7.24,5.19-12.13,9.72-23.58,13.26-32.07.24-.58.47-1.14.71-1.7Z" transform="translate(-33.74 -11.26)"/><path class="cls-5" d="M213.38,333.72c.26.56.5,1.12.75,1.7,3.69,8.41,7.57,19.25,11.6,28.86,1,2.37,2,4.61,3,7,.54,1.25,1.06,2.5,1.62,3.75,1.29,1.43,2.41,2.72,3.58,4.13-.62-1.47-1.27-2.9-1.92-4.39-1.08-2.46-2.16-4.72-3.23-7.24-5.19-12.13-9.72-23.58-13.26-32.07-.24-.58-.47-1.14-.71-1.7Z" transform="translate(-33.74 -11.26)"/><rect class="cls-7" x="90.54" y="303.33" width="118.54" height="21.25"/><path class="cls-5" d="M185,353.65a62.49,62.49,0,0,1,20.37,4.07,65.25,65.25,0,0,1,25.13,17.48l-4.62-10.45s-16.7-15.53-40.85-15.53h0c-24.15,0-41.3,16-41.3,16L139.57,375A65.67,65.67,0,0,1,185,353.65" transform="translate(-33.74 -11.26)"/><polygon class="cls-5" points="215.41 336.89 87.01 336.89 85.57 339.04 216.77 338.93 215.41 336.89"/><path class="cls-5" d="M175.73,247.72c-.35,3.27-.71,6.61-1.1,10.09-.36,3.22-.73,6.36-1.1,9.47h1.62c.51-4.45,1-8.91,1.47-13.41.21-2.05.41-4.1.6-6.16Z" transform="translate(-33.74 -11.26)"/><path class="cls-5" d="M192.72,247.72c.29,3.28.59,6.62.92,10.11.3,3.22.62,6.37.93,9.49l-1.62,0c-.43-4.46-.86-8.93-1.24-13.43-.18-2.05-.34-4.11-.5-6.17Z" transform="translate(-33.74 -11.26)"/><rect class="cls-7" x="122.79" y="230.05" width="56.04" height="6.61"/><rect class="cls-8" x="147.37" width="6.89" height="1.78"/><path class="cls-9" d="M1033.08,229.86V412.54h64.56v-88.8c0-16.22,12.52-29.48,28.56-29.48s28.56,13.27,28.56,29.48v88.8h65.81V229.86Z" transform="translate(-33.74 -11.26)"/><rect class="cls-6" x="996.7" y="218.77" width="191.34" height="2.33"/><rect class="cls-10" x="1134.25" y="281.22" width="42.23" height="23.46"/><rect class="cls-11" x="1178.97" y="284.49" width="19.87" height="39.73" transform="translate(1459.52 -895.8) rotate(90)"/><rect class="cls-5" x="1180.21" y="285.66" width="17.38" height="37.4" transform="translate(1459.52 -895.8) rotate(90)"/><rect class="cls-10" x="1008.25" y="281.22" width="42.23" height="23.46"/><rect class="cls-11" x="1052.97" y="284.49" width="19.87" height="39.73" transform="translate(1333.52 -769.8) rotate(90)"/><rect class="cls-5" x="1054.21" y="285.66" width="17.38" height="37.4" transform="translate(1333.52 -769.8) rotate(90)"/><rect class="cls-10" x="999.03" y="209.44" width="186.67" height="9.33"/><rect class="cls-12" x="996.7" y="217.29" width="191.34" height="2.33"/><rect class="cls-12" x="996.7" y="239.46" width="191.34" height="9.33"/><rect class="cls-11" x="999.34" y="248.79" width="187.49" height="11.67"/><rect class="cls-6" x="999.34" y="260.3" width="187.49" height="4.67"/><polygon class="cls-5" points="1058.03 307.97 1058.03 276.47 1093.03 276.47 1072.88 288.65 1058.03 307.97"/><rect class="cls-13" x="999.34" y="237.44" width="187.49" height="2.02"/><polygon class="cls-5" points="1126.39 307.97 1126.39 276.47 1091.39 276.47 1111.54 288.65 1126.39 307.97"/><rect class="cls-13" x="999.03" y="269.59" width="186.67" height="7"/><path class="cls-10" d="M1154.8,411.71h5.73V323.12c0-19.21-15.43-34.85-34.38-34.85s-34.39,15.63-34.39,34.85v88.59h5.73V323.44a28.66,28.66,0,1,1,57.31,0Z" transform="translate(-33.74 -11.26)"/><rect class="cls-12" x="996.16" y="307.71" width="70" height="2.33"/><rect class="cls-12" x="1118.62" y="307.71" width="70" height="2.33"/><rect class="cls-12" x="996.16" y="382.37" width="70" height="2.33"/><rect class="cls-12" x="1118.62" y="382.37" width="70" height="2.33"/><rect class="cls-5" x="1090.03" y="275.19" width="4.67" height="7.78"/><rect class="cls-5" x="995.75" y="402.62" width="70.82" height="5.83"/><polygon class="cls-12" points="1066.58 402.62 995.75 402.62 999.1 400.29 1063.2 400.29 1066.58 402.62"/><rect class="cls-5" x="1118.26" y="402.62" width="70.82" height="5.83"/><polygon class="cls-12" points="1189.08 402.62 1118.26 402.62 1121.6 400.29 1185.71 400.29 1189.08 402.62"/><rect class="cls-12" x="1012.53" y="403.61" width="34.01" height="5.83"/><polygon class="cls-11" points="1022.93 403.61 1046.54 403.61 1042.82 401.28 1022.93 401.28 1022.93 403.61"/><polygon class="cls-11" points="1032.13 401.28 1016.22 401.28 1012.53 403.61 1032.13 403.61 1032.13 401.28"/><rect class="cls-10" x="1016.24" y="384.47" width="26.58" height="16.81"/><polygon class="cls-10" points="1044.24 382.37 1014.83 382.37 1016.24 378.87 1042.82 378.87 1044.24 382.37"/><rect class="cls-11" x="1014.1" y="382.37" width="30.86" height="2.33"/><rect class="cls-12" x="1138.19" y="403.61" width="34.01" height="5.83"/><polygon class="cls-11" points="1148.6 403.61 1172.2 403.61 1168.48 401.28 1148.6 401.28 1148.6 403.61"/><polygon class="cls-11" points="1157.79 401.28 1141.88 401.28 1138.19 403.61 1157.79 403.61 1157.79 401.28"/><rect class="cls-10" x="1141.9" y="384.47" width="26.58" height="16.81"/><polygon class="cls-10" points="1169.91 382.37 1140.49 382.37 1141.91 378.87 1168.49 378.87 1169.91 382.37"/><rect class="cls-11" x="1139.76" y="382.37" width="30.86" height="2.33"/><circle class="cls-10" cx="1007.78" cy="228.46" r="3.15"/><circle class="cls-10" cx="1022.95" cy="228.46" r="3.15"/><circle class="cls-10" cx="1038.12" cy="228.46" r="3.15"/><circle class="cls-10" cx="1053.28" cy="228.46" r="3.15"/><circle class="cls-10" cx="1068.45" cy="228.46" r="3.15"/><circle class="cls-10" cx="1083.62" cy="228.46" r="3.15"/><circle class="cls-10" cx="1098.78" cy="228.46" r="3.15"/><circle class="cls-10" cx="1113.95" cy="228.46" r="3.15"/><circle class="cls-10" cx="1129.12" cy="228.46" r="3.15"/><circle class="cls-10" cx="1144.28" cy="228.46" r="3.15"/><circle class="cls-10" cx="1159.45" cy="228.46" r="3.15"/><rect class="cls-12" x="1012.1" y="221.1" width="1.17" height="16.33"/><rect class="cls-12" x="1027.27" y="221.1" width="1.17" height="16.33"/><rect class="cls-12" x="1042.43" y="221.1" width="1.17" height="16.33"/><rect class="cls-12" x="1057.6" y="221.1" width="1.17" height="16.33"/><rect class="cls-12" x="1072.77" y="221.1" width="1.17" height="16.33"/><rect class="cls-12" x="1087.93" y="221.1" width="1.17" height="16.33"/><rect class="cls-12" x="1103.1" y="221.1" width="1.17" height="16.33"/><rect class="cls-12" x="1118.27" y="221.1" width="1.17" height="16.33"/><rect class="cls-12" x="1133.43" y="221.1" width="1.17" height="16.33"/><rect class="cls-12" x="1148.6" y="221.1" width="1.17" height="16.33"/><rect class="cls-12" x="1163.77" y="221.1" width="1.17" height="16.33"/><circle class="cls-10" cx="1174.62" cy="228.46" r="3.15"/><rect class="cls-12" x="1178.93" y="221.1" width="1.17" height="16.33"/><rect class="cls-14" x="919.68" y="286.62" width="8.91" height="17.78" transform="translate(1814.53 579.75) rotate(-180)"/><rect class="cls-14" x="674.52" y="275.36" width="8.91" height="17.78"/><rect class="cls-14" x="575.27" y="290.69" width="98.02" height="111.38"/><rect class="cls-15" x="673.47" y="290.69" width="222.77" height="111.38"/><rect class="cls-14" x="896.23" y="290.69" width="98.02" height="111.38"/><rect class="cls-7" x="756.91" y="290.69" width="55.69" height="111.38"/><rect class="cls-14" x="639.64" y="253.08" width="11.14" height="26.73"/><rect class="cls-14" x="658.92" y="265.79" width="8.91" height="18.8"/><polygon class="cls-6" points="674.52 290.69 619.29 290.69 637.31 269.98 656.47 269.98 674.52 290.69"/><polygon class="cls-6" points="683.43 290.69 650.11 290.69 660.98 278.19 672.54 278.19 683.43 290.69"/><rect class="cls-14" x="592.86" y="253.08" width="11.14" height="26.73"/><rect class="cls-7" x="668.83" y="290.69" width="8.91" height="111.38"/><rect class="cls-7" x="891.78" y="290.69" width="8.91" height="111.38"/><rect class="cls-5" x="572.91" y="399.57" width="423.69" height="9.19"/><polygon class="cls-6" points="666.54 290.69 577.44 290.69 606.5 257.27 637.42 257.27 666.54 290.69"/><rect class="cls-14" x="952.33" y="264.34" width="11.14" height="26.73" transform="translate(1882.06 544.15) rotate(-180)"/><rect class="cls-14" x="935.27" y="277.05" width="8.91" height="18.8" transform="translate(1845.72 561.64) rotate(-180)"/><polygon class="cls-6" points="894.85 290.69 950.08 290.69 932.06 269.98 912.9 269.98 894.85 290.69"/><polygon class="cls-6" points="885.94 290.69 919.26 290.69 908.39 278.19 896.83 278.19 885.94 290.69"/><rect class="cls-14" x="999.11" y="264.34" width="11.14" height="26.73" transform="translate(1975.63 544.15) rotate(-180)"/><polygon class="cls-6" points="902.83 290.69 991.93 290.69 962.87 257.27 931.95 257.27 902.83 290.69"/><rect class="cls-15" x="756.9" y="262.33" width="6.68" height="22.28"/><rect class="cls-15" x="808.13" y="262.33" width="6.68" height="22.28"/><path class="cls-6" d="M885.3,301.94c-.11-6.7-28.32-12.12-63.1-12.12s-63,5.42-63.1,12.12Z" transform="translate(-33.74 -11.26)"/><rect class="cls-2" x="777.33" y="243.74" width="7.43" height="5.16"/><rect class="cls-7" x="784.31" y="241.22" width="2.23" height="17.82"/><path class="cls-15" d="M823.44,283V271.3a4.28,4.28,0,0,0-8.55,0V283Z" transform="translate(-33.74 -11.26)"/><path class="cls-6" d="M848.89,298.07c-4.7-10.76-16.23-18.37-29.73-18.37s-25,7.61-29.73,18.37Z" transform="translate(-33.74 -11.26)"/><path class="cls-14" d="M835.62,301.94a23.16,23.16,0,0,0,.17-2.63c0-10.83-7.44-19.61-16.63-19.61s-16.63,8.78-16.63,19.61a23.16,23.16,0,0,0,.17,2.63Z" transform="translate(-33.74 -11.26)"/><rect class="cls-6" x="573.13" y="328.75" width="423.26" height="2.23"/><rect class="cls-6" x="573.13" y="362.16" width="423.26" height="2.23"/><path class="cls-16" d="M767,405.79V393.91c0-4.17,2.86-7.56,6.68-7.56s6.68,3.39,6.68,7.56v11.89Z" transform="translate(-33.74 -11.26)"/><path class="cls-8" d="M779.47,404.89V394.24c0-3.73-2.62-6.78-5.81-6.78s-5.81,3.05-5.81,6.78v10.65Z" transform="translate(-33.74 -11.26)"/><path class="cls-6" d="M768.48,404.89h11V394.32a7.67,7.67,0,0,0-1.38-4.45Z" transform="translate(-33.74 -11.26)"/><path class="cls-16" d="M774.1,404.91h-.89v-17.4a1.14,1.14,0,0,1,.45-.06,1.24,1.24,0,0,1,.45.06Z" transform="translate(-33.74 -11.26)"/><rect class="cls-16" x="733.91" y="383.6" width="12" height="0.89"/><path class="cls-16" d="M744.69,405.79V393.91c0-4.17,2.86-7.56,6.68-7.56s6.68,3.39,6.68,7.56v11.89Z" transform="translate(-33.74 -11.26)"/><path class="cls-8" d="M757.19,404.89V394.24c0-3.73-2.62-6.78-5.81-6.78s-5.81,3.05-5.81,6.78v10.65Z" transform="translate(-33.74 -11.26)"/><path class="cls-6" d="M746.2,404.89h11V394.32a7.67,7.67,0,0,0-1.38-4.45Z" transform="translate(-33.74 -11.26)"/><path class="cls-16" d="M751.82,404.91h-.89v-17.4a1.14,1.14,0,0,1,.45-.06,1.24,1.24,0,0,1,.45.06Z" transform="translate(-33.74 -11.26)"/><rect class="cls-16" x="711.63" y="383.6" width="12" height="0.89"/><path class="cls-16" d="M722.41,405.79V393.91c0-4.17,2.86-7.56,6.68-7.56s6.68,3.39,6.68,7.56v11.89Z" transform="translate(-33.74 -11.26)"/><path class="cls-8" d="M734.91,404.89V394.24c0-3.73-2.62-6.78-5.81-6.78s-5.81,3.05-5.81,6.78v10.65Z" transform="translate(-33.74 -11.26)"/><path class="cls-6" d="M723.92,404.89h11V394.32a7.67,7.67,0,0,0-1.38-4.45Z" transform="translate(-33.74 -11.26)"/><path class="cls-16" d="M729.54,404.91h-.89v-17.4a1.14,1.14,0,0,1,.45-.06,1.24,1.24,0,0,1,.45.06Z" transform="translate(-33.74 -11.26)"/><rect class="cls-16" x="689.36" y="383.6" width="12" height="0.89"/><path class="cls-15" d="M675.77,405.79V393.91c0-4.17,2.86-7.56,6.68-7.56s6.68,3.39,6.68,7.56v11.89Z" transform="translate(-33.74 -11.26)"/><path class="cls-8" d="M688.27,404.89V394.24c0-3.73-2.62-6.78-5.81-6.78s-5.81,3.05-5.81,6.78v10.65Z" transform="translate(-33.74 -11.26)"/><path class="cls-6" d="M677.28,404.89h11V394.32a7.67,7.67,0,0,0-1.38-4.45Z" transform="translate(-33.74 -11.26)"/><path class="cls-15" d="M682.9,404.91H682v-17.4a1.14,1.14,0,0,1,.45-.06,1.24,1.24,0,0,1,.45.06Z" transform="translate(-33.74 -11.26)"/><rect class="cls-15" x="642.72" y="383.6" width="12" height="0.89"/><path class="cls-15" d="M648.63,405.79V393.91c0-4.17,2.86-7.56,6.68-7.56s6.68,3.39,6.68,7.56v11.89Z" transform="translate(-33.74 -11.26)"/><path class="cls-8" d="M661.14,404.89V394.24c0-3.73-2.62-6.78-5.81-6.78s-5.81,3.05-5.81,6.78v10.65Z" transform="translate(-33.74 -11.26)"/><path class="cls-6" d="M650.15,404.89h11V394.32a7.67,7.67,0,0,0-1.38-4.45Z" transform="translate(-33.74 -11.26)"/><path class="cls-15" d="M655.77,404.91h-.89v-17.4a1.14,1.14,0,0,1,.45-.06,1.24,1.24,0,0,1,.45.06Z" transform="translate(-33.74 -11.26)"/><rect class="cls-15" x="615.58" y="383.6" width="12" height="0.89"/><path class="cls-15" d="M621.5,405.91V394c0-4.17,2.86-7.56,6.68-7.56s6.68,3.39,6.68,7.56v11.89Z" transform="translate(-33.74 -11.26)"/><path class="cls-8" d="M634,405V394.36c0-3.73-2.62-6.78-5.81-6.78s-5.81,3.05-5.81,6.78V405Z" transform="translate(-33.74 -11.26)"/><path class="cls-6" d="M623,405h11V394.44a7.67,7.67,0,0,0-1.38-4.45Z" transform="translate(-33.74 -11.26)"/><path class="cls-15" d="M628.63,405h-.89v-17.4a1.14,1.14,0,0,1,.45-.06,1.24,1.24,0,0,1,.45.06Z" transform="translate(-33.74 -11.26)"/><rect class="cls-15" x="588.45" y="383.72" width="12" height="0.89"/><rect class="cls-17" x="764.8" y="390.93" width="40.1" height="2.23"/><rect class="cls-5" x="764.8" y="393.16" width="40.1" height="2.23"/><rect class="cls-17" x="762.57" y="395.39" width="44.55" height="2.23"/><rect class="cls-5" x="762.57" y="397.61" width="44.55" height="2.23"/><rect class="cls-5" x="756.91" y="402.07" width="55.69" height="2.23"/><rect class="cls-17" x="760.35" y="399.84" width="49.01" height="2.23"/><rect class="cls-17" x="756.91" y="404.3" width="55.69" height="2.23"/><path class="cls-16" d="M810.7,402.18V388.9c0-4.72,3.61-8.56,7.8-8.56s7.8,3.84,7.8,8.56v13.28Z" transform="translate(-33.74 -11.26)"/><path class="cls-8" d="M824.31,402.18v-12c0-4.21-2.62-7.65-5.81-7.65s-5.81,3.44-5.81,7.65v12Z" transform="translate(-33.74 -11.26)"/><path class="cls-6" d="M813.32,402.18h11V390.32c0-1.92-.55-5.1-3.2-7Z" transform="translate(-33.74 -11.26)"/><path class="cls-16" d="M819.16,402.18h-1.34V382.54a2.23,2.23,0,0,1,.67-.07,2.43,2.43,0,0,1,.67.07Z" transform="translate(-33.74 -11.26)"/><path class="cls-16" d="M815.38,402.19h-.45V382.56a.29.29,0,0,1,.22-.07.31.31,0,0,1,.22.07Z" transform="translate(-33.74 -11.26)"/><path class="cls-16" d="M812.25,386.52v-.45h12.4a.41.41,0,0,1,0,.22.45.45,0,0,1,0,.22Z" transform="translate(-33.74 -11.26)"/><path class="cls-16" d="M812.25,394.92v-.45h12.4a.41.41,0,0,1,0,.22.45.45,0,0,1,0,.22Z" transform="translate(-33.74 -11.26)"/><path class="cls-16" d="M812.25,398.9v-.45h12.4a.41.41,0,0,1,0,.22.45.45,0,0,1,0,.22Z" transform="translate(-33.74 -11.26)"/><path class="cls-16" d="M822.06,402.19h-.45V382.56a.29.29,0,0,1,.22-.07.31.31,0,0,1,.22.07Z" transform="translate(-33.74 -11.26)"/><rect class="cls-16" x="778.93" y="378.38" width="11.64" height="1.34"/><rect class="cls-18" x="847.59" y="304.52" width="9.21" height="14.08"/><rect class="cls-19" x="879.56" y="318.72" width="12.74" height="8.06" transform="translate(1174.94 -574.43) rotate(90)"/><polygon class="cls-20" points="848.23 317.86 856.22 317.86 856.22 305.12 854.63 305.12 848.23 317.86"/><rect class="cls-18" x="851.93" y="304.52" width="0.51" height="14.08"/><rect class="cls-18" x="885.6" y="318.42" width="0.67" height="8.78" transform="translate(1175.02 -574.38) rotate(90)"/><rect class="cls-18" x="870.08" y="304.52" width="9.21" height="14.08"/><rect class="cls-19" x="902.05" y="318.72" width="12.74" height="8.06" transform="translate(1197.44 -596.93) rotate(90)"/><polygon class="cls-20" points="870.72 317.86 878.72 317.86 878.72 305.12 877.13 305.12 870.72 317.86"/><rect class="cls-18" x="874.43" y="304.52" width="0.51" height="14.08"/><rect class="cls-18" x="908.12" y="318.42" width="0.67" height="8.78" transform="translate(1197.53 -596.9) rotate(90)"/><rect class="cls-18" x="825.12" y="304.52" width="9.21" height="14.08"/><rect class="cls-19" x="857.09" y="318.72" width="12.74" height="8.06" transform="translate(1152.47 -551.96) rotate(90)"/><polygon class="cls-20" points="825.76 317.86 833.75 317.86 833.75 305.12 832.17 305.12 825.76 317.86"/><rect class="cls-18" x="829.47" y="304.52" width="0.51" height="14.08"/><rect class="cls-18" x="863.14" y="318.42" width="0.67" height="8.78" transform="translate(1152.55 -551.91) rotate(90)"/><rect class="cls-21" x="847.69" y="337.38" width="9.82" height="19.99"/><rect class="cls-19" x="877.04" y="354.36" width="18.59" height="8.54" transform="translate(1211.23 -538.96) rotate(90)"/><polygon class="cls-20" points="848.44 356.67 856.87 356.67 856.87 338.08 855.4 338.08 848.44 356.67"/><rect class="cls-21" x="852.33" y="337.38" width="0.55" height="19.99"/><rect class="cls-21" x="885.99" y="348.72" width="0.69" height="8.93" transform="translate(1205.78 -544.42) rotate(90)"/><rect class="cls-21" x="886.19" y="352.65" width="0.29" height="8.93" transform="translate(1209.71 -540.48) rotate(90)"/><rect class="cls-21" x="886.19" y="356.49" width="0.29" height="8.93" transform="translate(1213.56 -536.64) rotate(90)"/><rect class="cls-21" x="886.19" y="360.22" width="0.29" height="8.93" transform="translate(1217.29 -532.91) rotate(90)"/><rect class="cls-21" x="870.17" y="337.38" width="9.82" height="19.99"/><rect class="cls-19" x="899.52" y="354.36" width="18.59" height="8.54" transform="translate(1233.71 -561.44) rotate(90)"/><polygon class="cls-20" points="870.92 356.67 879.35 356.67 879.35 338.08 877.88 338.08 870.92 356.67"/><rect class="cls-21" x="874.81" y="337.38" width="0.55" height="19.99"/><rect class="cls-21" x="908.47" y="348.72" width="0.69" height="8.93" transform="translate(1228.26 -566.89) rotate(90)"/><rect class="cls-21" x="908.67" y="352.65" width="0.29" height="8.93" transform="translate(1232.19 -562.96) rotate(90)"/><rect class="cls-21" x="908.67" y="356.49" width="0.29" height="8.93" transform="translate(1236.04 -559.12) rotate(90)"/><rect class="cls-21" x="908.67" y="360.22" width="0.29" height="8.93" transform="translate(1239.77 -555.39) rotate(90)"/><rect class="cls-21" x="825.09" y="337.38" width="9.82" height="19.99"/><rect class="cls-19" x="854.43" y="354.36" width="18.59" height="8.54" transform="translate(1188.63 -516.36) rotate(90)"/><polygon class="cls-20" points="825.83 356.67 834.27 356.67 834.27 338.08 832.79 338.08 825.83 356.67"/><rect class="cls-21" x="829.72" y="337.38" width="0.55" height="19.99"/><rect class="cls-21" x="863.39" y="348.72" width="0.69" height="8.93" transform="translate(1183.18 -521.81) rotate(90)"/><rect class="cls-21" x="863.59" y="352.65" width="0.29" height="8.93" transform="translate(1187.11 -517.88) rotate(90)"/><rect class="cls-21" x="863.59" y="356.49" width="0.29" height="8.93" transform="translate(1190.95 -514.03) rotate(90)"/><rect class="cls-21" x="863.59" y="360.22" width="0.29" height="8.93" transform="translate(1194.68 -510.3) rotate(90)"/><rect class="cls-18" x="711.7" y="304.52" width="9.21" height="14.08"/><rect class="cls-19" x="743.67" y="318.72" width="12.74" height="8.06" transform="translate(1039.06 -438.55) rotate(90)"/><polygon class="cls-20" points="712.34 317.86 720.34 317.86 720.34 305.12 718.75 305.12 712.34 317.86"/><rect class="cls-18" x="716.05" y="304.52" width="0.51" height="14.08"/><rect class="cls-18" x="749.72" y="318.42" width="0.67" height="8.78" transform="translate(1039.13 -438.5) rotate(90)"/><rect class="cls-18" x="734.19" y="304.52" width="9.21" height="14.08"/><rect class="cls-19" x="766.16" y="318.72" width="12.74" height="8.06" transform="translate(1061.55 -461.04) rotate(90)"/><polygon class="cls-20" points="734.83 317.86 742.83 317.86 742.83 305.12 741.24 305.12 734.83 317.86"/><rect class="cls-18" x="738.54" y="304.52" width="0.51" height="14.08"/><rect class="cls-18" x="772.23" y="318.42" width="0.67" height="8.78" transform="translate(1061.64 -461.01) rotate(90)"/><rect class="cls-18" x="689.23" y="304.52" width="9.21" height="14.08"/><rect class="cls-19" x="721.2" y="318.72" width="12.74" height="8.06" transform="translate(1016.59 -416.08) rotate(90)"/><polygon class="cls-20" points="689.87 317.86 697.87 317.86 697.87 305.12 696.28 305.12 689.87 317.86"/><rect class="cls-18" x="693.58" y="304.52" width="0.51" height="14.08"/><rect class="cls-18" x="727.25" y="318.42" width="0.67" height="8.78" transform="translate(1016.66 -416.03) rotate(90)"/><rect class="cls-21" x="711.81" y="337.38" width="9.82" height="19.99"/><rect class="cls-19" x="741.15" y="354.36" width="18.59" height="8.54" transform="translate(1075.35 -403.08) rotate(90)"/><polygon class="cls-20" points="712.55 356.67 720.99 356.67 720.99 338.08 719.51 338.08 712.55 356.67"/><rect class="cls-21" x="716.44" y="337.38" width="0.55" height="19.99"/><rect class="cls-21" x="750.11" y="348.72" width="0.69" height="8.93" transform="translate(1069.89 -408.53) rotate(90)"/><rect class="cls-21" x="750.31" y="352.65" width="0.29" height="8.93" transform="translate(1073.83 -404.6) rotate(90)"/><rect class="cls-21" x="750.31" y="356.49" width="0.29" height="8.93" transform="translate(1077.67 -400.75) rotate(90)"/><rect class="cls-21" x="750.31" y="360.22" width="0.29" height="8.93" transform="translate(1081.4 -397.02) rotate(90)"/><rect class="cls-21" x="734.28" y="337.38" width="9.82" height="19.99"/><rect class="cls-19" x="763.63" y="354.36" width="18.59" height="8.54" transform="translate(1097.82 -425.55) rotate(90)"/><polygon class="cls-20" points="735.03 356.67 743.46 356.67 743.46 338.08 741.99 338.08 735.03 356.67"/><rect class="cls-21" x="738.92" y="337.38" width="0.55" height="19.99"/><rect class="cls-21" x="772.58" y="348.72" width="0.69" height="8.93" transform="translate(1092.37 -431.01) rotate(90)"/><rect class="cls-21" x="772.78" y="352.65" width="0.29" height="8.93" transform="translate(1096.3 -427.08) rotate(90)"/><rect class="cls-21" x="772.78" y="356.49" width="0.29" height="8.93" transform="translate(1100.15 -423.23) rotate(90)"/><rect class="cls-21" x="772.78" y="360.22" width="0.29" height="8.93" transform="translate(1103.88 -419.5) rotate(90)"/><rect class="cls-21" x="689.2" y="337.38" width="9.82" height="19.99"/><rect class="cls-19" x="718.55" y="354.36" width="18.59" height="8.54" transform="translate(1052.74 -380.47) rotate(90)"/><polygon class="cls-20" points="689.94 356.67 698.38 356.67 698.38 338.08 696.91 338.08 689.94 356.67"/><rect class="cls-21" x="693.84" y="337.38" width="0.55" height="19.99"/><rect class="cls-21" x="727.5" y="348.72" width="0.69" height="8.93" transform="translate(1047.29 -385.92) rotate(90)"/><rect class="cls-21" x="727.7" y="352.65" width="0.29" height="8.93" transform="translate(1051.22 -381.99) rotate(90)"/><rect class="cls-21" x="727.7" y="356.49" width="0.29" height="8.93" transform="translate(1055.07 -378.15) rotate(90)"/><rect class="cls-21" x="727.7" y="360.22" width="0.29" height="8.93" transform="translate(1058.8 -374.42) rotate(90)"/><rect class="cls-21" x="616.87" y="337.38" width="9.82" height="19.99"/><rect class="cls-19" x="646.22" y="354.36" width="18.59" height="8.54" transform="translate(980.42 -308.14) rotate(90)"/><polygon class="cls-20" points="617.62 356.67 626.05 356.67 626.05 338.08 624.58 338.08 617.62 356.67"/><rect class="cls-21" x="621.51" y="337.38" width="0.55" height="19.99"/><rect class="cls-21" x="655.17" y="348.72" width="0.69" height="8.93" transform="translate(974.96 -313.6) rotate(90)"/><rect class="cls-21" x="655.38" y="352.65" width="0.29" height="8.93" transform="translate(978.89 -309.67) rotate(90)"/><rect class="cls-21" x="655.38" y="356.49" width="0.29" height="8.93" transform="translate(982.74 -305.82) rotate(90)"/><rect class="cls-21" x="655.38" y="360.22" width="0.29" height="8.93" transform="translate(986.47 -302.09) rotate(90)"/><rect class="cls-21" x="643.81" y="337.38" width="9.82" height="19.99"/><rect class="cls-19" x="673.15" y="354.36" width="18.59" height="8.54" transform="translate(1007.35 -335.08) rotate(90)"/><polygon class="cls-20" points="644.55 356.67 652.99 356.67 652.99 338.08 651.51 338.08 644.55 356.67"/><rect class="cls-21" x="648.44" y="337.38" width="0.55" height="19.99"/><rect class="cls-21" x="682.11" y="348.72" width="0.69" height="8.93" transform="translate(1001.9 -340.53) rotate(90)"/><rect class="cls-21" x="682.31" y="352.65" width="0.29" height="8.93" transform="translate(1005.83 -336.6) rotate(90)"/><rect class="cls-21" x="682.31" y="356.49" width="0.29" height="8.93" transform="translate(1009.67 -332.75) rotate(90)"/><rect class="cls-21" x="682.31" y="360.22" width="0.29" height="8.93" transform="translate(1013.4 -329.02) rotate(90)"/><rect class="cls-21" x="589.81" y="337.38" width="9.82" height="19.99"/><rect class="cls-19" x="619.16" y="354.36" width="18.59" height="8.54" transform="translate(953.35 -281.08) rotate(90)"/><polygon class="cls-20" points="590.56 356.67 598.99 356.67 598.99 338.08 597.52 338.08 590.56 356.67"/><rect class="cls-21" x="594.45" y="337.38" width="0.55" height="19.99"/><rect class="cls-21" x="628.11" y="348.72" width="0.69" height="8.93" transform="translate(947.9 -286.54) rotate(90)"/><rect class="cls-21" x="628.31" y="352.65" width="0.29" height="8.93" transform="translate(951.83 -282.6) rotate(90)"/><rect class="cls-21" x="628.31" y="356.49" width="0.29" height="8.93" transform="translate(955.68 -278.76) rotate(90)"/><rect class="cls-21" x="628.31" y="360.22" width="0.29" height="8.93" transform="translate(959.41 -275.03) rotate(90)"/><rect class="cls-21" x="616.99" y="300.21" width="9.82" height="19.99"/><rect class="cls-19" x="646.34" y="317.19" width="18.59" height="8.54" transform="translate(943.36 -345.44) rotate(90)"/><polygon class="cls-20" points="617.74 319.5 626.17 319.5 626.17 300.9 624.7 300.9 617.74 319.5"/><rect class="cls-21" x="621.63" y="300.21" width="0.55" height="19.99"/><rect class="cls-21" x="655.29" y="311.54" width="0.69" height="8.93" transform="translate(937.9 -350.89) rotate(90)"/><rect class="cls-21" x="655.49" y="315.47" width="0.29" height="8.93" transform="translate(941.84 -346.96) rotate(90)"/><rect class="cls-21" x="655.49" y="319.32" width="0.29" height="8.93" transform="translate(945.68 -343.11) rotate(90)"/><rect class="cls-21" x="655.49" y="323.05" width="0.29" height="8.93" transform="translate(949.41 -339.38) rotate(90)"/><rect class="cls-21" x="643.93" y="300.21" width="9.82" height="19.99"/><rect class="cls-19" x="673.27" y="317.19" width="18.59" height="8.54" transform="translate(970.29 -372.37) rotate(90)"/><polygon class="cls-20" points="644.67 319.5 653.1 319.5 653.1 300.9 651.63 300.9 644.67 319.5"/><rect class="cls-21" x="648.56" y="300.21" width="0.55" height="19.99"/><rect class="cls-21" x="682.23" y="311.54" width="0.69" height="8.93" transform="translate(964.84 -377.82) rotate(90)"/><rect class="cls-21" x="682.43" y="315.47" width="0.29" height="8.93" transform="translate(968.77 -373.89) rotate(90)"/><rect class="cls-21" x="682.43" y="319.32" width="0.29" height="8.93" transform="translate(972.62 -370.05) rotate(90)"/><rect class="cls-21" x="682.43" y="323.05" width="0.29" height="8.93" transform="translate(976.35 -366.32) rotate(90)"/><rect class="cls-21" x="589.93" y="300.21" width="9.82" height="19.99"/><rect class="cls-19" x="619.28" y="317.19" width="18.59" height="8.54" transform="translate(916.3 -318.38) rotate(90)"/><polygon class="cls-20" points="590.67 319.5 599.11 319.5 599.11 300.9 597.64 300.9 590.67 319.5"/><rect class="cls-21" x="594.57" y="300.21" width="0.55" height="19.99"/><rect class="cls-21" x="628.23" y="311.54" width="0.69" height="8.93" transform="translate(910.84 -323.83) rotate(90)"/><rect class="cls-21" x="628.43" y="315.47" width="0.29" height="8.93" transform="translate(914.78 -319.9) rotate(90)"/><rect class="cls-21" x="628.43" y="319.32" width="0.29" height="8.93" transform="translate(918.62 -316.05) rotate(90)"/><rect class="cls-21" x="628.43" y="323.05" width="0.29" height="8.93" transform="translate(922.35 -312.32) rotate(90)"/><rect class="cls-21" x="942.54" y="338.46" width="9.82" height="19.99"/><rect class="cls-19" x="971.88" y="355.44" width="18.59" height="8.54" transform="translate(1307.15 -632.73) rotate(90)"/><polygon class="cls-20" points="943.28 357.75 951.72 357.75 951.72 339.15 950.24 339.15 943.28 357.75"/><rect class="cls-21" x="947.17" y="338.46" width="0.55" height="19.99"/><rect class="cls-21" x="980.84" y="349.79" width="0.69" height="8.93" transform="translate(1301.7 -638.18) rotate(90)"/><rect class="cls-21" x="981.04" y="353.72" width="0.29" height="8.93" transform="translate(1305.63 -634.25) rotate(90)"/><rect class="cls-21" x="981.04" y="357.57" width="0.29" height="8.93" transform="translate(1309.48 -630.41) rotate(90)"/><rect class="cls-21" x="981.04" y="361.3" width="0.29" height="8.93" transform="translate(1313.21 -626.67) rotate(90)"/><rect class="cls-21" x="969.47" y="338.46" width="9.82" height="19.99"/><rect class="cls-19" x="998.82" y="355.44" width="18.59" height="8.54" transform="translate(1334.09 -659.66) rotate(90)"/><polygon class="cls-20" points="970.21 357.75 978.65 357.75 978.65 339.15 977.18 339.15 970.21 357.75"/><rect class="cls-21" x="974.1" y="338.46" width="0.55" height="19.99"/><rect class="cls-21" x="1007.77" y="349.79" width="0.69" height="8.93" transform="translate(1328.63 -665.12) rotate(90)"/><rect class="cls-21" x="1007.97" y="353.72" width="0.29" height="8.93" transform="translate(1332.57 -661.18) rotate(90)"/><rect class="cls-21" x="1007.97" y="357.57" width="0.29" height="8.93" transform="translate(1336.41 -657.34) rotate(90)"/><rect class="cls-21" x="1007.97" y="361.3" width="0.29" height="8.93" transform="translate(1340.14 -653.61) rotate(90)"/><rect class="cls-21" x="915.48" y="338.46" width="9.82" height="19.99"/><rect class="cls-19" x="944.82" y="355.44" width="18.59" height="8.54" transform="translate(1280.09 -605.67) rotate(90)"/><polygon class="cls-20" points="916.22 357.75 924.65 357.75 924.65 339.15 923.18 339.15 916.22 357.75"/><rect class="cls-21" x="920.11" y="338.46" width="0.55" height="19.99"/><rect class="cls-21" x="953.78" y="349.79" width="0.69" height="8.93" transform="translate(1274.64 -611.12) rotate(90)"/><rect class="cls-21" x="953.98" y="353.72" width="0.29" height="8.93" transform="translate(1278.57 -607.19) rotate(90)"/><rect class="cls-21" x="953.98" y="357.57" width="0.29" height="8.93" transform="translate(1282.42 -603.34) rotate(90)"/><rect class="cls-21" x="953.98" y="361.3" width="0.29" height="8.93" transform="translate(1286.15 -599.61) rotate(90)"/><rect class="cls-21" x="942.65" y="301.28" width="9.82" height="19.99"/><rect class="cls-19" x="972" y="318.26" width="18.59" height="8.54" transform="translate(1270.1 -670.02) rotate(90)"/><polygon class="cls-20" points="943.4 320.57 951.83 320.57 951.83 301.98 950.36 301.98 943.4 320.57"/><rect class="cls-21" x="947.29" y="301.28" width="0.55" height="19.99"/><rect class="cls-21" x="980.95" y="312.62" width="0.69" height="8.93" transform="translate(1264.64 -675.47) rotate(90)"/><rect class="cls-21" x="981.15" y="316.55" width="0.29" height="8.93" transform="translate(1268.57 -671.54) rotate(90)"/><rect class="cls-21" x="981.15" y="320.39" width="0.29" height="8.93" transform="translate(1272.42 -667.7) rotate(90)"/><rect class="cls-21" x="981.15" y="324.12" width="0.29" height="8.93" transform="translate(1276.15 -663.97) rotate(90)"/><rect class="cls-21" x="969.59" y="301.28" width="9.82" height="19.99"/><rect class="cls-19" x="998.93" y="318.26" width="18.59" height="8.54" transform="translate(1297.03 -696.96) rotate(90)"/><polygon class="cls-20" points="970.33 320.57 978.77 320.57 978.77 301.98 977.29 301.98 970.33 320.57"/><rect class="cls-21" x="974.22" y="301.28" width="0.55" height="19.99"/><rect class="cls-21" x="1007.89" y="312.62" width="0.69" height="8.93" transform="translate(1291.58 -702.41) rotate(90)"/><rect class="cls-21" x="1008.09" y="316.55" width="0.29" height="8.93" transform="translate(1295.51 -698.48) rotate(90)"/><rect class="cls-21" x="1008.09" y="320.39" width="0.29" height="8.93" transform="translate(1299.35 -694.63) rotate(90)"/><rect class="cls-21" x="1008.09" y="324.12" width="0.29" height="8.93" transform="translate(1303.08 -690.9) rotate(90)"/><rect class="cls-21" x="915.59" y="301.28" width="9.82" height="19.99"/><rect class="cls-19" x="944.94" y="318.26" width="18.59" height="8.54" transform="translate(1243.03 -642.96) rotate(90)"/><polygon class="cls-20" points="916.34 320.57 924.77 320.57 924.77 301.98 923.3 301.98 916.34 320.57"/><rect class="cls-21" x="920.23" y="301.28" width="0.55" height="19.99"/><rect class="cls-21" x="953.89" y="312.62" width="0.69" height="8.93" transform="translate(1237.58 -648.41) rotate(90)"/><rect class="cls-21" x="954.09" y="316.55" width="0.29" height="8.93" transform="translate(1241.51 -644.48) rotate(90)"/><rect class="cls-21" x="954.09" y="320.39" width="0.29" height="8.93" transform="translate(1245.36 -640.64) rotate(90)"/><rect class="cls-21" x="954.09" y="324.12" width="0.29" height="8.93" transform="translate(1249.09 -636.91) rotate(90)"/><path class="cls-15" d="M1001.87,404.47V392.58c0-4.17,2.86-7.56,6.68-7.56s6.68,3.39,6.68,7.56v11.89Z" transform="translate(-33.74 -11.26)"/><path class="cls-8" d="M1014.37,403.57V392.91c0-3.73-2.62-6.78-5.81-6.78s-5.81,3.05-5.81,6.78v10.65Z" transform="translate(-33.74 -11.26)"/><path class="cls-6" d="M1003.39,403.57h11V393a7.67,7.67,0,0,0-1.38-4.45Z" transform="translate(-33.74 -11.26)"/><path class="cls-15" d="M1009,403.59h-.89v-17.4a1.14,1.14,0,0,1,.45-.06,1.24,1.24,0,0,1,.45.06Z" transform="translate(-33.74 -11.26)"/><rect class="cls-15" x="968.82" y="382.28" width="12" height="0.89"/><path class="cls-15" d="M974.74,404.47V392.58c0-4.17,2.86-7.56,6.68-7.56s6.68,3.39,6.68,7.56v11.89Z" transform="translate(-33.74 -11.26)"/><path class="cls-8" d="M987.24,403.57V392.91c0-3.73-2.62-6.78-5.81-6.78s-5.81,3.05-5.81,6.78v10.65Z" transform="translate(-33.74 -11.26)"/><path class="cls-6" d="M976.25,403.57h11V393a7.67,7.67,0,0,0-1.38-4.45Z" transform="translate(-33.74 -11.26)"/><path class="cls-15" d="M981.87,403.59H981v-17.4a1.14,1.14,0,0,1,.45-.06,1.24,1.24,0,0,1,.45.06Z" transform="translate(-33.74 -11.26)"/><rect class="cls-15" x="941.68" y="382.28" width="12" height="0.89"/><path class="cls-15" d="M947.6,404.58V392.7c0-4.17,2.86-7.56,6.68-7.56s6.68,3.39,6.68,7.56v11.89Z" transform="translate(-33.74 -11.26)"/><path class="cls-8" d="M960.11,403.68V393c0-3.73-2.62-6.78-5.81-6.78s-5.81,3.05-5.81,6.78v10.65Z" transform="translate(-33.74 -11.26)"/><path class="cls-6" d="M949.12,403.68h11V393.11a7.67,7.67,0,0,0-1.38-4.45Z" transform="translate(-33.74 -11.26)"/><path class="cls-15" d="M954.74,403.7h-.89v-17.4a1.14,1.14,0,0,1,.45-.06,1.24,1.24,0,0,1,.45.06Z" transform="translate(-33.74 -11.26)"/><rect class="cls-15" x="914.55" y="382.39" width="12" height="0.89"/><path class="cls-16" d="M902,404.58V392.7c0-4.17,2.86-7.56,6.68-7.56s6.68,3.39,6.68,7.56v11.89Z" transform="translate(-33.74 -11.26)"/><path class="cls-8" d="M914.49,403.68V393c0-3.73-2.62-6.78-5.81-6.78s-5.81,3.05-5.81,6.78v10.65Z" transform="translate(-33.74 -11.26)"/><path class="cls-6" d="M903.5,403.68h11V393.11a7.67,7.67,0,0,0-1.38-4.45Z" transform="translate(-33.74 -11.26)"/><path class="cls-16" d="M909.12,403.7h-.89v-17.4a1.14,1.14,0,0,1,.45-.06,1.24,1.24,0,0,1,.45.06Z" transform="translate(-33.74 -11.26)"/><rect class="cls-16" x="868.94" y="382.39" width="12" height="0.89"/><path class="cls-16" d="M879.71,404.58V392.7c0-4.17,2.86-7.56,6.68-7.56s6.68,3.39,6.68,7.56v11.89Z" transform="translate(-33.74 -11.26)"/><path class="cls-8" d="M892.21,403.68V393c0-3.73-2.62-6.78-5.81-6.78s-5.81,3.05-5.81,6.78v10.65Z" transform="translate(-33.74 -11.26)"/><path class="cls-6" d="M881.23,403.68h11V393.11a7.67,7.67,0,0,0-1.38-4.45Z" transform="translate(-33.74 -11.26)"/><path class="cls-16" d="M886.85,403.7H886v-17.4a1.14,1.14,0,0,1,.45-.06,1.24,1.24,0,0,1,.45.06Z" transform="translate(-33.74 -11.26)"/><rect class="cls-16" x="846.66" y="382.39" width="12" height="0.89"/><path class="cls-16" d="M857.44,404.58V392.7c0-4.17,2.86-7.56,6.68-7.56s6.68,3.39,6.68,7.56v11.89Z" transform="translate(-33.74 -11.26)"/><path class="cls-8" d="M869.94,403.68V393c0-3.73-2.62-6.78-5.81-6.78s-5.81,3.05-5.81,6.78v10.65Z" transform="translate(-33.74 -11.26)"/><path class="cls-6" d="M859,403.68h11V393.11a7.67,7.67,0,0,0-1.38-4.45Z" transform="translate(-33.74 -11.26)"/><path class="cls-16" d="M864.57,403.7h-.89v-17.4a1.14,1.14,0,0,1,.45-.06,1.24,1.24,0,0,1,.45.06Z" transform="translate(-33.74 -11.26)"/><rect class="cls-16" x="824.38" y="382.39" width="12" height="0.89"/><path class="cls-16" d="M811.26,369.24V356c0-4.72,3.35-8.56,7.23-8.56s7.23,3.84,7.23,8.56v13.28Z" transform="translate(-33.74 -11.26)"/><path class="cls-2" d="M824.31,368.17v-12c0-4.21-2.62-7.65-5.81-7.65s-5.81,3.44-5.81,7.65v12Z" transform="translate(-33.74 -11.26)"/><path class="cls-6" d="M813.32,368.17h11V356.31c0-1.92-.55-5.1-3.2-7Z" transform="translate(-33.74 -11.26)"/><path class="cls-16" d="M818.94,368.17H818V348.54a1,1,0,0,1,.45-.07,1.11,1.11,0,0,1,.45.07Z" transform="translate(-33.74 -11.26)"/><path class="cls-16" d="M815.38,368.18h-.45V348.55a.29.29,0,0,1,.22-.07.31.31,0,0,1,.22.07Z" transform="translate(-33.74 -11.26)"/><path class="cls-16" d="M812.36,359.89v-.45h12.4a.41.41,0,0,1,0,.22.45.45,0,0,1,0,.22Z" transform="translate(-33.74 -11.26)"/><path class="cls-16" d="M812.25,366.4V366h12.4a.41.41,0,0,1,0,.22.45.45,0,0,1,0,.22Z" transform="translate(-33.74 -11.26)"/><path class="cls-16" d="M822.06,368.18h-.45V348.55a.29.29,0,0,1,.22-.07.31.31,0,0,1,.22.07Z" transform="translate(-33.74 -11.26)"/><rect class="cls-16" x="778.94" y="342.16" width="11.64" height="0.89"/><rect class="cls-22" x="756.91" y="307.14" width="55.68" height="5.74"/><path class="cls-14" d="M846.34,318.47c-4-5-14.93-8.6-27.85-8.6s-23.85,3.6-27.85,8.6Z" transform="translate(-33.74 -11.26)"/><circle class="cls-14" cx="785.43" cy="312.88" r="7.59"/><rect class="cls-23" x="677.87" y="330.7" width="316.38" height="3.64"/><rect class="cls-24" x="677.87" y="364.12" width="316.38" height="3.64"/><rect class="cls-25" x="575.4" y="330.7" width="102.46" height="3.64"/><rect class="cls-26" x="575.4" y="364.12" width="102.46" height="3.64"/><rect class="cls-27" x="721.4" y="283.56" width="4.68" height="7.13"/><rect class="cls-27" x="850.54" y="283.56" width="4.68" height="7.13"/><polygon class="cls-6" points="415.66 215.97 412.21 294.61 419.1 294.61 415.66 215.97"/><polygon class="cls-28" points="415.66 266.81 397.31 294.61 434 294.61 415.66 266.81"/><rect class="cls-29" x="346.91" y="198.32" width="46.9" height="95.57"/><rect class="cls-29" x="346.91" y="261.21" width="48.84" height="32.68"/><rect class="cls-29" x="437.23" y="261.21" width="48.84" height="32.68"/><path class="cls-6" d="M402.75,269.88V237.94c0-.53-.07-13.06-6.07-13.06s-6.07,12.53-6.07,13.06v31.95Z" transform="translate(-33.74 -11.26)"/><path class="cls-30" d="M402.07,269.88V237.94c0-.12-.06-12.39-5.39-12.39s-5.39,12.27-5.39,12.39v31.95Z" transform="translate(-33.74 -11.26)"/><path class="cls-31" d="M401.4,269.88V237.94c0-.12-.2-11.72-4.72-11.72S392,237.82,392,237.94v31.95Z" transform="translate(-33.74 -11.26)"/><path class="cls-28" d="M400.72,269.88V237.94c0-.11-.29-11-4-11s-4,10.93-4,11v31.95Z" transform="translate(-33.74 -11.26)"/><path class="cls-16" d="M399.89,269.88V237.94c0-1.91-.52-10.37-3.12-10.37s-3.12,8.46-3.12,10.37v31.94Z" transform="translate(-33.74 -11.26)"/><path class="cls-6" d="M417.58,269.88V237.94c0-.53-.07-13.06-6.07-13.06s-6.07,12.53-6.07,13.06v31.95Z" transform="translate(-33.74 -11.26)"/><path class="cls-30" d="M416.9,269.88V237.94c0-.12-.06-12.39-5.39-12.39s-5.39,12.27-5.39,12.39v31.95Z" transform="translate(-33.74 -11.26)"/><path class="cls-31" d="M416.23,269.88V237.94c0-.12-.2-11.72-4.72-11.72s-4.72,11.6-4.72,11.72v31.95Z" transform="translate(-33.74 -11.26)"/><path class="cls-28" d="M415.55,269.88V237.94c0-.11-.29-11-4-11s-4,10.93-4,11v31.95Z" transform="translate(-33.74 -11.26)"/><path class="cls-16" d="M414.72,269.88V237.94c0-1.91-.52-10.37-3.12-10.37s-3.12,8.46-3.12,10.37v31.94Z" transform="translate(-33.74 -11.26)"/><rect class="cls-29" x="347.4" y="289.8" width="138.36" height="118.94"/><rect class="cls-12" x="439.31" y="353.85" width="7.78" height="54.89"/><rect class="cls-12" x="479.9" y="353.85" width="7.78" height="54.89"/><polygon class="cls-12" points="487.68 353.85 345.48 353.85 344.46 352.86 344.46 337.15 488.81 337.15 488.81 352.86 487.68 353.85"/><path class="cls-6" d="M497.23,373.59c-15.56,5.25-15.5,24.21-15.5,24.21V420h31V397.8S512.79,378.85,497.23,373.59Z" transform="translate(-33.74 -11.26)"/><path class="cls-6" d="M450.31,367.93C429.9,373.82,430,395.09,430,395.09V420h40.68V395.09S470.73,373.82,450.31,367.93Z" transform="translate(-33.74 -11.26)"/><rect class="cls-12" x="345.48" y="353.85" width="7.78" height="54.89"/><rect class="cls-12" x="386.07" y="353.85" width="7.78" height="54.89"/><path class="cls-6" d="M403.4,373.59c-15.56,5.25-15.5,24.21-15.5,24.21V420h31V397.8S419,378.85,403.4,373.59Z" transform="translate(-33.74 -11.26)"/><path class="cls-6" d="M404.09,309.21c-16.26,4.21-16.2,19.4-16.2,19.4v17.78h32.4V328.61S420.35,313.42,404.09,309.21Z" transform="translate(-33.74 -11.26)"/><path class="cls-6" d="M496.53,309.21c-16.26,4.21-16.2,19.4-16.2,19.4v17.78h32.4V328.61S512.79,313.42,496.53,309.21Z" transform="translate(-33.74 -11.26)"/><circle class="cls-28" cx="416.58" cy="315.25" r="15.27"/><circle class="cls-31" cx="416.58" cy="315.25" r="10.8"/><circle class="cls-6" cx="416.58" cy="315.25" r="3.66"/><path class="cls-16" d="M400.36,346.39v-16c0-1.91-1.56-4.27-3.47-4.27s-3.47,2.36-3.47,4.27v16Z" transform="translate(-33.74 -11.26)"/><path class="cls-16" d="M415.19,346.39v-16c0-1.91-1.56-4.27-3.47-4.27s-3.47,2.36-3.47,4.27v16Z" transform="translate(-33.74 -11.26)"/><path class="cls-16" d="M493.12,346.39v-16c0-1.91-1.56-4.27-3.47-4.27s-3.47,2.36-3.47,4.27v16Z" transform="translate(-33.74 -11.26)"/><path class="cls-16" d="M507.95,346.39v-16c0-1.91-1.56-4.27-3.47-4.27s-3.47,2.36-3.47,4.27v16Z" transform="translate(-33.74 -11.26)"/><circle class="cls-12" cx="370.41" cy="307.04" r="5.36"/><circle class="cls-12" cx="462.8" cy="307.04" r="5.36"/><rect class="cls-29" x="439.31" y="198.32" width="46.9" height="95.57"/><rect class="cls-32" x="354.16" y="291.32" width="124.84" height="2.2"/><rect class="cls-12" x="439.31" y="290.78" width="7.78" height="45.17"/><rect class="cls-33" x="354.16" y="261.66" width="124.84" height="2.2"/><rect class="cls-34" x="346.97" y="258.63" width="138.79" height="3.03"/><rect class="cls-12" x="439.31" y="261.8" width="7.78" height="29.66"/><rect class="cls-12" x="478.43" y="261.8" width="7.78" height="29.66"/><rect class="cls-12" x="346.97" y="261.8" width="7.78" height="29.66"/><rect class="cls-12" x="386.07" y="261.8" width="7.78" height="29.66"/><polygon class="cls-12" points="354.74 262.06 346.98 262.06 346.27 260.35 346.98 258.63 354.74 258.63 355.43 260.35 354.74 262.06"/><polygon class="cls-35" points="354.74 262.06 346.98 262.06 346.27 260.35 355.43 260.35 354.74 262.06"/><polygon class="cls-12" points="393.85 262.06 386.09 262.06 385.38 260.35 386.09 258.63 393.85 258.63 394.54 260.35 393.85 262.06"/><polygon class="cls-36" points="393.85 262.06 386.09 262.06 385.38 260.35 394.54 260.35 393.85 262.06"/><polygon class="cls-12" points="447.09 262.06 439.33 262.06 438.63 260.35 439.33 258.63 447.09 258.63 447.79 260.35 447.09 262.06"/><polygon class="cls-37" points="447.09 262.06 439.33 262.06 438.63 260.35 447.79 260.35 447.09 262.06"/><polygon class="cls-12" points="486.2 262.06 478.44 262.06 477.74 260.35 478.44 258.63 486.2 258.63 486.9 260.35 486.2 262.06"/><polygon class="cls-38" points="486.2 262.06 478.44 262.06 477.74 260.35 486.9 260.35 486.2 262.06"/><rect class="cls-34" x="346.97" y="288.28" width="138.79" height="3.03"/><rect class="cls-12" x="478.43" y="290.78" width="7.78" height="45.17"/><rect class="cls-12" x="346.97" y="290.78" width="7.78" height="45.17"/><rect class="cls-12" x="386.07" y="290.78" width="7.78" height="45.17"/><rect class="cls-34" x="346.97" y="332.16" width="138.79" height="3.65"/><polygon class="cls-12" points="354.74 291.72 346.98 291.72 346.27 290 346.98 288.28 354.74 288.28 355.43 290 354.74 291.72"/><polygon class="cls-39" points="354.74 291.72 346.98 291.72 346.27 290 355.43 290 354.74 291.72"/><polygon class="cls-34" points="354.74 333.88 346.98 333.88 346.27 332.16 346.98 330.44 354.74 330.44 355.43 332.16 354.74 333.88"/><polygon class="cls-40" points="354.74 333.88 346.98 333.88 346.27 332.16 355.43 332.16 354.74 333.88"/><polygon class="cls-34" points="393.83 333.88 386.07 333.88 385.37 332.16 386.07 330.44 393.83 330.44 394.53 332.16 393.83 333.88"/><polygon class="cls-41" points="393.83 333.88 386.07 333.88 385.37 332.16 394.53 332.16 393.83 333.88"/><polygon class="cls-34" points="447.08 333.88 439.32 333.88 438.62 332.16 439.32 330.44 447.08 330.44 447.78 332.16 447.08 333.88"/><polygon class="cls-42" points="447.08 333.88 439.32 333.88 438.62 332.16 447.78 332.16 447.08 333.88"/><polygon class="cls-34" points="486.18 333.88 478.42 333.88 477.71 332.16 478.42 330.44 486.18 330.44 486.87 332.16 486.18 333.88"/><polygon class="cls-43" points="486.18 333.88 478.42 333.88 477.71 332.16 486.87 332.16 486.18 333.88"/><polygon class="cls-12" points="393.85 291.72 386.09 291.72 385.38 290 386.09 288.28 393.85 288.28 394.54 290 393.85 291.72"/><polygon class="cls-44" points="393.85 291.72 386.09 291.72 385.38 290 394.54 290 393.85 291.72"/><polygon class="cls-12" points="447.09 291.72 439.33 291.72 438.63 290 439.33 288.28 447.09 288.28 447.79 290 447.09 291.72"/><polygon class="cls-45" points="447.09 291.72 439.33 291.72 438.63 290 447.79 290 447.09 291.72"/><polygon class="cls-12" points="486.2 291.72 478.44 291.72 477.74 290 478.44 288.28 486.2 288.28 486.9 290 486.2 291.72"/><polygon class="cls-46" points="486.2 291.72 478.44 291.72 477.74 290 486.9 290 486.2 291.72"/><rect class="cls-47" x="344.46" y="337.15" width="144.35" height="2.2"/><rect class="cls-48" x="346.97" y="320.15" width="7.78" height="1.17"/><rect class="cls-49" x="346.97" y="306.37" width="7.78" height="1.17"/><rect class="cls-50" x="345.48" y="353.85" width="142.21" height="2.2"/><polygon class="cls-6" points="488.81 337.15 344.46 337.15 347 335.8 486.25 335.8 488.81 337.15"/><path class="cls-6" d="M495.14,269.88V237.94c0-.53-.07-13.06-6.07-13.06S483,237.41,483,237.94v31.95Z" transform="translate(-33.74 -11.26)"/><path class="cls-30" d="M494.47,269.88V237.94c0-.12-.06-12.39-5.39-12.39s-5.39,12.27-5.39,12.39v31.95Z" transform="translate(-33.74 -11.26)"/><path class="cls-31" d="M493.8,269.88V237.94c0-.12-.2-11.72-4.72-11.72s-4.72,11.6-4.72,11.72v31.95Z" transform="translate(-33.74 -11.26)"/><path class="cls-28" d="M493.12,269.88V237.94c0-.11-.29-11-4-11s-4,10.93-4,11v31.95Z" transform="translate(-33.74 -11.26)"/><path class="cls-16" d="M492.29,269.88V237.94c0-1.91-.52-10.37-3.12-10.37s-3.12,8.46-3.12,10.37v31.94Z" transform="translate(-33.74 -11.26)"/><path class="cls-6" d="M510,269.88V237.94c0-.53-.07-13.06-6.07-13.06s-6.07,12.53-6.07,13.06v31.95Z" transform="translate(-33.74 -11.26)"/><path class="cls-30" d="M509.3,269.88V237.94c0-.12-.06-12.39-5.39-12.39s-5.39,12.27-5.39,12.39v31.95Z" transform="translate(-33.74 -11.26)"/><path class="cls-31" d="M508.63,269.88V237.94c0-.12-.2-11.72-4.72-11.72s-4.72,11.6-4.72,11.72v31.95Z" transform="translate(-33.74 -11.26)"/><path class="cls-28" d="M507.95,269.88V237.94c0-.11-.29-11-4-11s-4,10.93-4,11v31.95Z" transform="translate(-33.74 -11.26)"/><path class="cls-16" d="M507.12,269.88V237.94c0-1.91-.52-10.37-3.12-10.37s-3.12,8.46-3.12,10.37v31.94Z" transform="translate(-33.74 -11.26)"/><line class="cls-51" x1="474.43" y1="195.15" x2="479.09" y2="192.05"/><line class="cls-51" x1="479.09" y1="195.15" x2="474.43" y2="192.05"/><line class="cls-51" x1="451.08" y1="192.05" x2="446.42" y2="195.15"/><line class="cls-51" x1="446.42" y1="192.05" x2="451.08" y2="195.15"/><line class="cls-51" x1="474.42" y1="192.05" x2="469.76" y2="195.15"/><line class="cls-51" x1="474.42" y1="195.15" x2="469.76" y2="192.05"/><line class="cls-51" x1="469.75" y1="192.05" x2="465.09" y2="195.15"/><line class="cls-51" x1="469.75" y1="195.15" x2="465.09" y2="192.05"/><line class="cls-51" x1="465.08" y1="192.05" x2="460.43" y2="195.15"/><line class="cls-51" x1="465.08" y1="195.15" x2="460.43" y2="192.05"/><line class="cls-51" x1="460.42" y1="192.05" x2="455.76" y2="195.15"/><line class="cls-51" x1="460.42" y1="195.15" x2="455.76" y2="192.05"/><line class="cls-51" x1="455.75" y1="192.05" x2="451.09" y2="195.15"/><line class="cls-51" x1="455.75" y1="195.15" x2="451.09" y2="192.05"/><polygon class="cls-29" points="488.42 196.23 487.27 194.77 486.34 193.69 481.91 193.69 478.96 195.13 475.65 195.16 462.75 195.15 462.23 195.15 450.06 195.15 446.43 195.15 443.5 193.69 439.23 193.69 438.24 194.77 437.36 195.9 435.76 197.91 439.81 196.51 462.56 196.51 462.95 196.51 485.7 196.51 489.75 197.91 488.42 196.23"/><polygon class="cls-52" points="488.42 196.23 487.27 194.77 486.34 193.69 481.91 193.69 478.96 195.13 475.65 195.16 463.02 195.19 462.49 195.19 450.06 195.15 446.43 195.15 443.5 193.69 439.23 193.69 438.37 194.61 438.24 194.77 435.76 197.91 439.81 196.51 462.56 196.51 462.95 196.51 485.7 196.51 489.75 197.91 488.42 196.23"/><polyline class="cls-51" points="439.19 193.79 439.19 190.86 443.62 193.69 446.55 192.05 446.55 195.15 443.62 190.76 439.23 193.69"/><path class="cls-53" d="M477.26,204.95v0Z" transform="translate(-33.74 -11.26)"/><path class="cls-53" d="M520.14,204.95v0Z" transform="translate(-33.74 -11.26)"/><polygon class="cls-51" points="479.08 192.08 479.08 195.19 482.02 190.79 482.02 193.72 479.08 192.08"/><line class="cls-51" x1="486.41" y1="190.76" x2="482.02" y2="193.69"/><line class="cls-51" x1="486.41" y1="193.69" x2="482.02" y2="190.76"/><polyline class="cls-54" points="488.15 192.17 486.4 190.76 482.01 190.76 479.08 192.05 456.4 192.05 469.11 192.05 446.43 192.05 443.5 190.76 439.11 190.76 437.36 192.17"/><polyline class="cls-55" points="456.4 195.16 479.08 195.16 482.01 193.69 486.4 193.69 487.27 194.77 488.15 192.17 486.4 190.76 482.01 190.76 479.08 192.05 456.4 192.05 469.11 192.05 446.43 192.05 443.5 190.76 439.11 190.76 437.36 192.17 438.24 194.77 439.11 193.69 443.5 193.69 446.43 195.16 469.11 195.16"/><polygon class="cls-29" points="435.76 197.91 439.31 202.3 444.03 202.3 446.62 202.3 462.75 202.3 478.83 202.3 481.48 202.3 486.2 202.3 489.75 197.91 485.7 196.33 462.95 196.33 439.81 196.33 435.76 197.91"/><polygon class="cls-56" points="435.76 197.91 439.31 202.3 444.03 202.3 446.62 202.3 462.75 202.3 478.83 202.3 481.48 202.3 486.2 202.3 489.75 197.91 485.7 196.33 462.95 196.33 439.81 196.33 435.76 197.91"/><line class="cls-51" x1="382.03" y1="195.15" x2="386.69" y2="192.05"/><line class="cls-51" x1="386.69" y1="195.15" x2="382.03" y2="192.05"/><line class="cls-51" x1="358.69" y1="192.05" x2="354.03" y2="195.15"/><line class="cls-51" x1="354.03" y1="192.05" x2="358.69" y2="195.15"/><line class="cls-51" x1="382.02" y1="192.05" x2="377.36" y2="195.15"/><line class="cls-51" x1="382.02" y1="195.15" x2="377.36" y2="192.05"/><line class="cls-51" x1="377.36" y1="192.05" x2="372.7" y2="195.15"/><line class="cls-51" x1="377.36" y1="195.15" x2="372.7" y2="192.05"/><line class="cls-51" x1="372.69" y1="192.05" x2="368.03" y2="195.15"/><line class="cls-51" x1="372.69" y1="195.15" x2="368.03" y2="192.05"/><line class="cls-51" x1="368.02" y1="192.05" x2="363.36" y2="195.15"/><line class="cls-51" x1="368.02" y1="195.15" x2="363.36" y2="192.05"/><line class="cls-51" x1="363.36" y1="192.05" x2="358.7" y2="195.15"/><line class="cls-51" x1="363.36" y1="195.15" x2="358.7" y2="192.05"/><polygon class="cls-29" points="396.02 196.23 394.87 194.77 393.94 193.69 389.52 193.69 386.57 195.13 383.25 195.16 370.36 195.15 369.83 195.15 357.66 195.15 354.03 195.15 351.1 193.69 346.83 193.69 345.85 194.77 344.97 195.9 343.37 197.91 347.41 196.51 370.17 196.51 370.55 196.51 393.31 196.51 397.35 197.91 396.02 196.23"/><polygon class="cls-57" points="396.02 196.23 394.87 194.77 393.94 193.69 389.52 193.69 386.57 195.13 383.25 195.16 370.62 195.19 370.1 195.19 357.66 195.15 354.03 195.15 351.1 193.69 346.83 193.69 345.97 194.61 345.85 194.77 343.37 197.91 347.41 196.51 370.17 196.51 370.55 196.51 393.31 196.51 397.35 197.91 396.02 196.23"/><polyline class="cls-51" points="346.8 193.79 346.8 190.86 351.23 193.69 354.16 192.05 354.16 195.15 351.23 190.76 346.83 193.69"/><path class="cls-53" d="M384.87,204.95v0Z" transform="translate(-33.74 -11.26)"/><path class="cls-53" d="M427.75,204.95v0Z" transform="translate(-33.74 -11.26)"/><polygon class="cls-51" points="386.69 192.08 386.69 195.19 389.63 190.79 389.63 193.72 386.69 192.08"/><line class="cls-51" x1="394.01" y1="190.76" x2="389.63" y2="193.69"/><line class="cls-51" x1="394.01" y1="193.69" x2="389.63" y2="190.76"/><polyline class="cls-54" points="395.75 192.17 394.01 190.76 389.62 190.76 386.69 192.05 364.01 192.05 376.71 192.05 354.03 192.05 351.1 190.76 346.71 190.76 344.97 192.17"/><polyline class="cls-55" points="364.01 195.16 386.69 195.16 389.62 193.69 394.01 193.69 394.87 194.77 395.75 192.17 394.01 190.76 389.62 190.76 386.69 192.05 364.01 192.05 376.71 192.05 354.03 192.05 351.1 190.76 346.71 190.76 344.97 192.17 345.85 194.77 346.71 193.69 351.1 193.69 354.03 195.16 376.71 195.16"/><polygon class="cls-29" points="343.37 197.91 346.92 202.3 351.64 202.3 354.23 202.3 370.36 202.3 386.44 202.3 389.08 202.3 393.8 202.3 397.35 197.91 393.31 196.33 370.55 196.33 347.41 196.33 343.37 197.91"/><polygon class="cls-58" points="343.37 197.91 346.92 202.3 351.64 202.3 354.23 202.3 370.36 202.3 386.44 202.3 389.08 202.3 393.8 202.3 397.35 197.91 393.31 196.33 370.55 196.33 347.41 196.33 343.37 197.91"/><path class="cls-29" d="M428.06,272.46v27h6.76V282.64c0-.67.66-2.22,1.35-2.22s1.35,1.55,1.35,2.22v16.78h1.35V282.64c0-.67.66-2.22,1.35-2.22s1.35,1.55,1.35,2.22v16.78h1.35V282.64c0-.67.66-2.22,1.35-2.22s1.35,1.55,1.35,2.22v16.78H447V282.64c0-.67.66-2.22,1.35-2.22s1.35,1.55,1.35,2.22v16.78H451V282.64c0-.67.67-2.22,1.35-2.22s1.35,1.55,1.35,2.22v16.78H455V282.64c0-.67.66-2.22,1.35-2.22s1.35,1.55,1.35,2.22v16.78h1.35V282.64c0-.67.66-2.22,1.35-2.22s1.35,1.55,1.35,2.22v16.78h1.35V282.64c0-.67.66-2.22,1.35-2.22s1.35,1.55,1.35,2.22v16.78h6.74v-27Z" transform="translate(-33.74 -11.26)"/><line class="cls-59" x1="421.43" y1="258.69" x2="426.07" y2="255.48"/><line class="cls-59" x1="426.07" y1="258.69" x2="421.43" y2="255.48"/><line class="cls-59" x1="398.14" y1="255.48" x2="393.5" y2="258.69"/><line class="cls-59" x1="393.5" y1="255.48" x2="398.14" y2="258.69"/><line class="cls-59" x1="421.42" y1="255.48" x2="416.77" y2="258.69"/><line class="cls-59" x1="421.42" y1="258.69" x2="416.77" y2="255.48"/><line class="cls-59" x1="416.76" y1="255.48" x2="412.12" y2="258.69"/><line class="cls-59" x1="416.76" y1="258.69" x2="412.12" y2="255.48"/><line class="cls-59" x1="412.11" y1="255.48" x2="407.46" y2="258.69"/><line class="cls-59" x1="412.11" y1="258.69" x2="407.46" y2="255.48"/><line class="cls-59" x1="435.38" y1="255.48" x2="430.73" y2="258.69"/><line class="cls-59" x1="435.38" y1="258.69" x2="430.73" y2="255.48"/><line class="cls-59" x1="440.02" y1="255.48" x2="435.38" y2="258.69"/><line class="cls-59" x1="440.02" y1="258.69" x2="435.38" y2="255.48"/><line class="cls-59" x1="430.72" y1="255.48" x2="426.07" y2="258.69"/><line class="cls-59" x1="430.72" y1="258.69" x2="426.07" y2="255.48"/><line class="cls-59" x1="407.45" y1="255.48" x2="402.81" y2="258.69"/><line class="cls-59" x1="407.45" y1="258.69" x2="402.81" y2="255.48"/><line class="cls-59" x1="402.8" y1="255.48" x2="398.15" y2="258.69"/><line class="cls-59" x1="402.8" y1="258.69" x2="398.15" y2="255.48"/><polyline class="cls-55" points="440.02 255.48 407.71 255.48 425.81 255.48 393.5 255.48"/><line class="cls-55" x1="393.5" y1="258.69" x2="440.02" y2="258.69"/><line class="cls-59" x1="467.65" y1="258.69" x2="472.3" y2="255.48"/><line class="cls-59" x1="472.3" y1="258.69" x2="467.65" y2="255.48"/><line class="cls-59" x1="444.37" y1="255.48" x2="439.72" y2="258.69"/><line class="cls-59" x1="439.72" y1="255.48" x2="444.37" y2="258.69"/><line class="cls-59" x1="467.64" y1="255.48" x2="463" y2="258.69"/><line class="cls-59" x1="467.64" y1="258.69" x2="463" y2="255.48"/><line class="cls-59" x1="462.99" y1="255.48" x2="458.34" y2="258.69"/><line class="cls-59" x1="462.99" y1="258.69" x2="458.34" y2="255.48"/><line class="cls-59" x1="458.33" y1="255.48" x2="453.69" y2="258.69"/><line class="cls-59" x1="458.33" y1="258.69" x2="453.69" y2="255.48"/><line class="cls-59" x1="481.6" y1="255.48" x2="476.95" y2="258.69"/><line class="cls-59" x1="481.6" y1="258.69" x2="476.95" y2="255.48"/><line class="cls-59" x1="486.25" y1="255.48" x2="481.6" y2="258.69"/><line class="cls-59" x1="486.25" y1="258.69" x2="481.6" y2="255.48"/><line class="cls-59" x1="476.95" y1="255.48" x2="472.3" y2="258.69"/><line class="cls-59" x1="476.95" y1="258.69" x2="472.3" y2="255.48"/><line class="cls-59" x1="453.68" y1="255.48" x2="449.03" y2="258.69"/><line class="cls-59" x1="453.68" y1="258.69" x2="449.03" y2="255.48"/><line class="cls-59" x1="449.02" y1="255.48" x2="444.38" y2="258.69"/><line class="cls-59" x1="449.02" y1="258.69" x2="444.38" y2="255.48"/><polyline class="cls-55" points="486.25 255.48 453.93 255.48 472.04 255.48 439.72 255.48"/><line class="cls-55" x1="439.72" y1="258.69" x2="486.25" y2="258.69"/><line class="cls-59" x1="374.9" y1="258.69" x2="379.55" y2="255.48"/><line class="cls-59" x1="379.55" y1="258.69" x2="374.9" y2="255.48"/><line class="cls-59" x1="351.62" y1="255.48" x2="346.97" y2="258.69"/><line class="cls-59" x1="346.97" y1="255.48" x2="351.62" y2="258.69"/><line class="cls-59" x1="374.89" y1="255.48" x2="370.25" y2="258.69"/><line class="cls-59" x1="374.89" y1="258.69" x2="370.25" y2="255.48"/><line class="cls-59" x1="370.24" y1="255.48" x2="365.59" y2="258.69"/><line class="cls-59" x1="370.24" y1="258.69" x2="365.59" y2="255.48"/><line class="cls-59" x1="365.58" y1="255.48" x2="360.94" y2="258.69"/><line class="cls-59" x1="365.58" y1="258.69" x2="360.94" y2="255.48"/><line class="cls-59" x1="388.85" y1="255.48" x2="384.2" y2="258.69"/><line class="cls-59" x1="388.85" y1="258.69" x2="384.2" y2="255.48"/><line class="cls-59" x1="393.5" y1="255.48" x2="388.85" y2="258.69"/><line class="cls-59" x1="393.5" y1="258.69" x2="388.85" y2="255.48"/><line class="cls-59" x1="384.2" y1="255.48" x2="379.55" y2="258.69"/><line class="cls-59" x1="384.2" y1="258.69" x2="379.55" y2="255.48"/><line class="cls-59" x1="360.93" y1="255.48" x2="356.28" y2="258.69"/><line class="cls-59" x1="360.93" y1="258.69" x2="356.28" y2="255.48"/><line class="cls-59" x1="356.27" y1="255.48" x2="351.62" y2="258.69"/><line class="cls-59" x1="356.27" y1="258.69" x2="351.62" y2="255.48"/><polyline class="cls-55" points="393.5 255.48 361.18 255.48 379.29 255.48 346.97 255.48"/><line class="cls-55" x1="346.97" y1="258.69" x2="393.5" y2="258.69"/><polygon class="cls-29" points="350.86 314.26 346.97 320.15 354.75 320.15 350.86 314.26"/><rect class="cls-29" x="346.97" y="305.12" width="7.78" height="1.35"/><rect class="cls-60" x="386.06" y="320.15" width="7.78" height="1.17"/><rect class="cls-61" x="386.06" y="306.37" width="7.78" height="1.17"/><polygon class="cls-29" points="389.95 314.26 386.06 320.15 393.84 320.15 389.95 314.26"/><rect class="cls-29" x="386.06" y="305.12" width="7.78" height="1.35"/><rect class="cls-62" x="439.31" y="320.15" width="7.78" height="1.17"/><rect class="cls-63" x="439.31" y="306.37" width="7.78" height="1.17"/><polygon class="cls-29" points="443.19 314.26 439.31 320.15 447.08 320.15 443.19 314.26"/><rect class="cls-29" x="439.31" y="305.12" width="7.78" height="1.35"/><rect class="cls-64" x="478.4" y="320.15" width="7.78" height="1.17"/><rect class="cls-65" x="478.4" y="306.37" width="7.78" height="1.17"/><polygon class="cls-29" points="482.29 314.26 478.4 320.15 486.18 320.15 482.29 314.26"/><rect class="cls-29" x="478.4" y="305.12" width="7.78" height="1.35"/><rect class="cls-16" x="361.75" y="391.13" width="6.48" height="17.61"/><rect class="cls-16" x="371.1" y="391.13" width="6.48" height="17.61"/><rect class="cls-16" x="408.72" y="391.13" width="6.48" height="17.61"/><rect class="cls-16" x="418.07" y="391.13" width="6.48" height="17.61"/><rect class="cls-16" x="455.58" y="391.13" width="6.48" height="17.61"/><rect class="cls-16" x="464.93" y="391.13" width="6.48" height="17.61"/><rect class="cls-6" x="491.8" y="268.95" width="79.69" height="129.96"/><rect class="cls-66" x="487.59" y="398.71" width="88.1" height="9.82"/><rect class="cls-67" x="491.8" y="382.11" width="79.69" height="16.57"/><rect class="cls-5" x="517.47" y="335.57" width="7.3" height="3.26"/><rect class="cls-5" x="521.36" y="339.58" width="7.3" height="3.26"/><rect class="cls-5" x="529.53" y="339.58" width="7.3" height="3.26"/><path class="cls-68" d="M573.48,323.43V310.79a8,8,0,1,0-16.08,0v12.65Z" transform="translate(-33.74 -11.26)"/><path class="cls-69" d="M558.74,322.15v-11c0-4,3-7.3,6.7-7.3s6.7,3.27,6.7,7.3v11Z" transform="translate(-33.74 -11.26)"/><path class="cls-68" d="M598.1,323.43V310.79a8,8,0,1,0-16.08,0v12.65Z" transform="translate(-33.74 -11.26)"/><path class="cls-68" d="M548.85,323.43V310.79a8,8,0,1,0-16.08,0v12.65Z" transform="translate(-33.74 -11.26)"/><path class="cls-69" d="M534.11,322.15V310.79a6.7,6.7,0,1,1,13.4,0v11.36Z" transform="translate(-33.74 -11.26)"/><path class="cls-69" d="M583.36,322.15V310.79a6.7,6.7,0,1,1,13.4,0v11.36Z" transform="translate(-33.74 -11.26)"/><rect class="cls-70" x="491.8" y="314.64" width="79.69" height="8.4"/><rect class="cls-71" x="491.8" y="265.71" width="79.69" height="8.4"/><path class="cls-5" d="M558.83,322.15h13.31v-11a7.64,7.64,0,0,0-1.64-4.77Z" transform="translate(-33.74 -11.26)"/><path class="cls-5" d="M583.45,322.15h13.31v-11a7.64,7.64,0,0,0-1.64-4.77Z" transform="translate(-33.74 -11.26)"/><path class="cls-5" d="M534.2,322.15h13.31v-11a7.64,7.64,0,0,0-1.64-4.77Z" transform="translate(-33.74 -11.26)"/><rect class="cls-68" x="505.99" y="292.2" width="2.16" height="19.09"/><rect class="cls-68" x="539.77" y="305.36" width="2.07" height="16.08" transform="translate(820.48 -238.67) rotate(90)"/><path class="cls-68" d="M574.93,402.94v-15a9.54,9.54,0,1,0-19.08,0v15Z" transform="translate(-33.74 -11.26)"/><path class="cls-69" d="M557.43,401.41v-13c0-4.78,3.59-8.66,8-8.66s8,3.89,8,8.66v13Z" transform="translate(-33.74 -11.26)"/><path class="cls-68" d="M600.37,402.94v-15a9.54,9.54,0,1,0-19.08,0v15Z" transform="translate(-33.74 -11.26)"/><path class="cls-68" d="M549.48,402.94v-15a9.54,9.54,0,1,0-19.08,0v15Z" transform="translate(-33.74 -11.26)"/><path class="cls-69" d="M532,401.41V387.93a8,8,0,1,1,15.9,0v13.48Z" transform="translate(-33.74 -11.26)"/><path class="cls-69" d="M582.88,401.41V387.93a8,8,0,1,1,15.9,0v13.48Z" transform="translate(-33.74 -11.26)"/><path class="cls-5" d="M557.54,401.41h15.8v-13a9.07,9.07,0,0,0-2-5.66Z" transform="translate(-33.74 -11.26)"/><path class="cls-5" d="M583,401.41h15.8v-13a9.07,9.07,0,0,0-2-5.66Z" transform="translate(-33.74 -11.26)"/><path class="cls-5" d="M532.09,401.41h15.8v-13a9.07,9.07,0,0,0-2-5.66Z" transform="translate(-33.74 -11.26)"/><rect class="cls-68" x="530.06" y="368.18" width="3.18" height="22.6"/><rect class="cls-68" x="563.86" y="381.19" width="3.05" height="19.08" transform="translate(922.38 -185.91) rotate(90)"/><rect class="cls-68" x="504.61" y="367.97" width="3.18" height="22.66"/><rect class="cls-68" x="538.41" y="381.19" width="3.05" height="19.08" transform="translate(896.93 -160.46) rotate(90)"/><rect class="cls-68" x="555.5" y="368.08" width="3.18" height="22.45"/><rect class="cls-68" x="589.3" y="381.19" width="3.05" height="19.08" transform="translate(947.83 -211.35) rotate(90)"/><rect class="cls-6" x="490.31" y="312.83" width="82.68" height="3.63"/><rect class="cls-20" x="490.31" y="315.88" width="82.68" height="3.63"/><rect class="cls-6" x="490.31" y="392.04" width="82.68" height="3.63"/><rect class="cls-20" x="490.31" y="394.49" width="82.68" height="4.22"/><rect class="cls-68" x="530.57" y="292.6" width="2.16" height="19.09"/><rect class="cls-68" x="564.45" y="306.45" width="2.07" height="14.69" transform="translate(845.54 -262.94) rotate(90)"/><path class="cls-68" d="M573.48,360.13V347.48a8,8,0,1,0-16.08,0v12.65Z" transform="translate(-33.74 -11.26)"/><path class="cls-69" d="M558.74,358.84v-11c0-4,3-7.3,6.7-7.3s6.7,3.27,6.7,7.3v11Z" transform="translate(-33.74 -11.26)"/><path class="cls-5" d="M558.83,358.84h13.31v-11a7.64,7.64,0,0,0-1.64-4.77Z" transform="translate(-33.74 -11.26)"/><rect class="cls-68" x="530.57" y="329.29" width="2.16" height="19.09"/><rect class="cls-68" x="564.45" y="343.15" width="2.07" height="14.69" transform="translate(882.24 -226.25) rotate(90)"/><rect class="cls-68" x="555.29" y="292.6" width="2.16" height="19.09"/><rect class="cls-68" x="588.91" y="305.92" width="2.07" height="15.74" transform="translate(870 -287.4) rotate(90)"/><path class="cls-68" d="M598.1,360.13V347.48a8,8,0,1,0-16.08,0v12.65Z" transform="translate(-33.74 -11.26)"/><path class="cls-68" d="M548.85,360.13V347.48a8,8,0,1,0-16.08,0v12.65Z" transform="translate(-33.74 -11.26)"/><path class="cls-69" d="M534.11,358.84V347.48a6.7,6.7,0,1,1,13.4,0v11.36Z" transform="translate(-33.74 -11.26)"/><path class="cls-69" d="M583.36,358.84V347.48a6.7,6.7,0,1,1,13.4,0v11.36Z" transform="translate(-33.74 -11.26)"/><rect class="cls-72" x="491.8" y="351.33" width="79.69" height="8.4"/><path class="cls-5" d="M583.45,358.84h13.31v-11a7.64,7.64,0,0,0-1.64-4.77Z" transform="translate(-33.74 -11.26)"/><path class="cls-5" d="M534.2,358.84h13.31v-11a7.64,7.64,0,0,0-1.64-4.77Z" transform="translate(-33.74 -11.26)"/><rect class="cls-68" x="505.99" y="328.9" width="2.16" height="19.09"/><rect class="cls-68" x="539.77" y="340.53" width="2.07" height="16.08" transform="translate(855.64 -203.5) rotate(90)"/><rect class="cls-6" x="490.31" y="349.53" width="82.68" height="3.63"/><rect class="cls-20" x="490.31" y="352.57" width="82.68" height="3.63"/><rect class="cls-68" x="555.29" y="329.29" width="2.16" height="19.09"/><rect class="cls-68" x="589.07" y="340.92" width="2.07" height="16.08" transform="translate(905.33 -252.41) rotate(90)"/><rect class="cls-5" x="496.18" y="274.83" width="7.3" height="3.26"/><rect class="cls-5" x="498.47" y="278.84" width="7.3" height="3.26"/><rect class="cls-5" x="492.28" y="322.23" width="7.3" height="3.26"/><rect class="cls-5" x="494.25" y="326.24" width="7.3" height="3.26"/><rect class="cls-5" x="555.84" y="281.72" width="7.3" height="3.26"/><rect class="cls-5" x="562.22" y="277.84" width="7.3" height="3.26"/><rect class="cls-5" x="559.73" y="285.72" width="7.3" height="3.26"/><rect class="cls-5" x="506.64" y="278.84" width="7.3" height="3.26"/><rect class="cls-5" x="513.39" y="362.51" width="7.3" height="3.26"/><rect class="cls-5" x="561.2" y="359.45" width="7.3" height="3.26"/><rect class="cls-5" x="538.89" y="327.35" width="7.3" height="3.26"/><rect class="cls-5" x="534.75" y="281.72" width="7.3" height="3.26"/><rect class="cls-5" x="532.05" y="285.72" width="7.3" height="3.26"/><polygon class="cls-73" points="575.7 269.4 487.6 269.4 496.18 249.91 567.6 249.91 575.7 269.4"/><rect class="cls-17" x="266.26" y="346.74" width="73" height="53"/><rect class="cls-16" x="267.71" y="374.4" width="4.69" height="2.68"/><rect class="cls-16" x="269.62" y="377.67" width="4.69" height="2.68"/><rect class="cls-16" x="262.64" y="398.84" width="80.52" height="9.8"/><rect class="cls-74" x="274.96" y="373.97" width="15.09" height="16.97"/><rect class="cls-5" x="276.75" y="375.56" width="11.4" height="13.79"/><polygon class="cls-16" points="288.15 375.56 284.02 375.56 276.76 389.36 288.15 389.36 288.15 375.56"/><rect class="cls-74" x="314.2" y="373.97" width="15.09" height="16.97"/><rect class="cls-5" x="315.99" y="375.56" width="11.4" height="13.79"/><polygon class="cls-16" points="327.39 375.56 323.26 375.56 316 389.36 327.39 389.36 327.39 375.56"/><rect class="cls-8" x="292.71" y="379.99" width="19.08" height="18.73"/><polygon class="cls-5" points="293.33 398.72 293.33 380.67 301.88 380.67 311.17 380.67 311.17 398.72 293.33 398.72"/><polygon class="cls-16" points="311.17 398.72 311.17 380.67 309.86 380.67 293.33 398.72 311.17 398.72"/><ellipse class="cls-8" cx="300.86" cy="389.11" rx="0.48" ry="0.58"/><ellipse class="cls-8" cx="303.64" cy="389.11" rx="0.48" ry="0.58"/><line class="cls-75" x1="302.25" y1="398.72" x2="302.25" y2="380.67"/><path class="cls-76" d="M307,360v17.2a8,8,0,0,1-.31.9,5,5,0,0,1-4.81,3.9h-.4c-.38,0-.48-.34-1.48-.44V360Z" transform="translate(-33.74 -11.26)"/><path class="cls-77" d="M316,360v17.2a5,5,0,0,1-4.74,4.8h-.4a4.31,4.31,0,0,1-4.11-4c-.05-.21.25-.61.25-.83V360Z" transform="translate(-33.74 -11.26)"/><path class="cls-78" d="M325,360v17.32a4.61,4.61,0,0,1-4.36,4.68h-.4a4.52,4.52,0,0,1-4.35-4.53s.11-.23.11-.27V360Z" transform="translate(-33.74 -11.26)"/><path class="cls-79" d="M335,360v17.2a5.22,5.22,0,0,1-5,4.8h-.4a4.68,4.68,0,0,1-4.54-4.53,2.07,2.07,0,0,1-.08-.27V360h10Z" transform="translate(-33.74 -11.26)"/><path class="cls-80" d="M344,360v17.32a4.82,4.82,0,0,1-4.6,4.68H339c-2.47,0-4-2.33-4-4.8V360Z" transform="translate(-33.74 -11.26)"/><path class="cls-81" d="M354,360v17.32c0,2.43-2.79,4.68-5.22,4.68h-.4a4.57,4.57,0,0,1-4.42-4.53,1.91,1.91,0,0,1,0-.27V360h10Z" transform="translate(-33.74 -11.26)"/><path class="cls-82" d="M362,360v17.2c0,2.48-1.38,4.8-3.84,4.8h-.4c-2.43,0-4.05-2.11-4.11-4.53,0,0,.35-.23.35-.27V360Z" transform="translate(-33.74 -11.26)"/><path class="cls-83" d="M372,360v17.32a4.71,4.71,0,0,1-4.47,4.68h-.4c-2.47,0-5.13-2.33-5.13-4.8V360Z" transform="translate(-33.74 -11.26)"/><path class="cls-84" d="M373,360v20.49c0-.79-1.19-1.92-1.22-3.18,0,0,.22-.08.22-.12V360h1Z" transform="translate(-33.74 -11.26)"/><path class="cls-5" d="M295,355.53v17.65a4.5,4.5,0,0,0,4.49,4.49h.4a4.5,4.5,0,0,0,4.49-4.49V355.53Z" transform="translate(-33.74 -11.26)"/><path class="cls-16" d="M304.43,355.53v17.65a4.5,4.5,0,0,0,4.49,4.49h.4a4.5,4.5,0,0,0,4.49-4.49V355.53Z" transform="translate(-33.74 -11.26)"/><path class="cls-5" d="M313.81,355.53v17.65a4.5,4.5,0,0,0,4.49,4.49h.4a4.5,4.5,0,0,0,4.49-4.49V355.53Z" transform="translate(-33.74 -11.26)"/><path class="cls-16" d="M323.18,355.53v17.65a4.5,4.5,0,0,0,4.49,4.49h.4a4.5,4.5,0,0,0,4.49-4.49V355.53Z" transform="translate(-33.74 -11.26)"/><path class="cls-5" d="M332.57,355.53v17.65a4.5,4.5,0,0,0,4.49,4.49h.4a4.5,4.5,0,0,0,4.49-4.49V355.53Z" transform="translate(-33.74 -11.26)"/><path class="cls-16" d="M341.95,355.53v17.65a4.5,4.5,0,0,0,4.49,4.49h.4a4.5,4.5,0,0,0,4.49-4.49V355.53Z" transform="translate(-33.74 -11.26)"/><path class="cls-5" d="M351.32,355.53v17.65a4.5,4.5,0,0,0,4.49,4.49h.4a4.5,4.5,0,0,0,4.49-4.49V355.53Z" transform="translate(-33.74 -11.26)"/><path class="cls-16" d="M360.7,355.53v17.65a4.5,4.5,0,0,0,4.49,4.49h.4a4.5,4.5,0,0,0,4.49-4.49V355.53Z" transform="translate(-33.74 -11.26)"/><path class="cls-5" d="M370.08,355.53v17.65a4.5,4.5,0,0,0,4.49,4.49h.4a4.5,4.5,0,0,0,4.49-4.49V355.53Z" transform="translate(-33.74 -11.26)"/><rect class="cls-16" x="334.61" y="386.42" width="4.69" height="2.68"/><rect class="cls-16" x="332.88" y="377.07" width="4.69" height="2.68"/><path class="cls-85" d="M58.2,420H74.93a13,13,0,0,0,7.14-11.58c0-7.48-6.94-13.63-15.51-13.63S51.05,401,51.05,408.46A13,13,0,0,0,58.2,420Z" transform="translate(-33.74 -11.26)"/><path class="cls-86" d="M67.28,394.79V420h8.23a13.21,13.21,0,0,0,7.14-11.52C82.66,401,75.78,394.85,67.28,394.79Z" transform="translate(-33.74 -11.26)"/><path class="cls-87" d="M71.86,420H83.35c2.95-2,4.9-4.67,4.9-8,0-5.14-4.77-9.36-10.65-9.36S67,406.94,67,412.08C67,415.37,68.91,418,71.86,420Z" transform="translate(-33.74 -11.26)"/><path class="cls-85" d="M78.1,402.69V420h5.65a9.07,9.07,0,0,0,4.9-7.91C88.66,406.92,83.94,402.73,78.1,402.69Z" transform="translate(-33.74 -11.26)"/><rect class="cls-88" x="265.85" y="388.7" width="1.71" height="10.14"/><ellipse class="cls-89" cx="266.39" cy="379.97" rx="9.35" ry="9.23"/><path class="cls-90" d="M302.27,399.1a9.29,9.29,0,0,1-9.35-9.23,9.16,9.16,0,0,1,3.29-7,9.21,9.21,0,0,0,3.91,17.61,9.38,9.38,0,0,0,6.05-2.2A9.41,9.41,0,0,1,302.27,399.1Z" transform="translate(-33.74 -11.26)"/><path class="cls-91" d="M300.1,382h.13v18.45h-.13a9.23,9.23,0,1,0,0-18.45Z" transform="translate(-33.74 -11.26)"/><path class="cls-85" d="M301.51,420H284.78a13,13,0,0,1-7.14-11.58c0-7.48,6.94-13.63,15.51-13.63s15.51,6.2,15.51,13.68A13,13,0,0,1,301.51,420Z" transform="translate(-33.74 -11.26)"/><path class="cls-86" d="M292.43,394.79V420H284.2a13.21,13.21,0,0,1-7.14-11.52C277.05,401,283.92,394.85,292.43,394.79Z" transform="translate(-33.74 -11.26)"/><path class="cls-87" d="M287.85,420H276.36c-2.95-2-4.9-4.67-4.9-8,0-5.14,4.77-9.36,10.65-9.36s10.65,4.26,10.65,9.39C292.76,415.37,290.8,418,287.85,420Z" transform="translate(-33.74 -11.26)"/><path class="cls-85" d="M281.61,402.69V420H276a9.07,9.07,0,0,1-4.9-7.91C271.05,406.92,275.77,402.73,281.61,402.69Z" transform="translate(-33.74 -11.26)"/><rect class="cls-87" x="1008.05" y="388" width="4.35" height="20.75"/><path class="cls-92" d="M1067.77,382.25a10.7,10.7,0,0,0-9.07-16.32,10.57,10.57,0,0,0-3.74.69,10.63,10.63,0,0,0-19.83-2.21,10.57,10.57,0,0,0-3.61-.64,10.7,10.7,0,0,0-7.93,17.84,10.68,10.68,0,0,0,9.59,18.7,16.88,16.88,0,0,0,22.67-.63,10.55,10.55,0,0,0,4.65,1.08,10.71,10.71,0,0,0,7.27-18.52Z" transform="translate(-33.74 -11.26)"/><path class="cls-86" d="M1067.77,382.25a10.7,10.7,0,0,0-9.07-16.32,11.29,11.29,0,0,0-3.86.69,10.12,10.12,0,0,0-9.79-8.07v45.79a16.57,16.57,0,0,0,10.68-4.65,10.83,10.83,0,0,0,4.71,1.08,10.73,10.73,0,0,0,7.34-18.52Z" transform="translate(-33.74 -11.26)"/><rect class="cls-87" x="998.23" y="391.68" width="3" height="17.09"/><path class="cls-86" d="M1053.14,389a8.81,8.81,0,0,0-7.45-13.42,8.67,8.67,0,0,0-3.07.57,8.73,8.73,0,0,0-16.3-1.82,8.67,8.67,0,0,0-3-.53,8.81,8.81,0,0,0-6.52,14.68,8.81,8.81,0,0,0,5.37,15.76,8.7,8.7,0,0,0,2.51-.37,13.85,13.85,0,0,0,18.63-.52,8.66,8.66,0,0,0,3.82.89,8.81,8.81,0,0,0,6-15.24Z" transform="translate(-33.74 -11.26)"/><path class="cls-91" d="M1053.14,389a8.81,8.81,0,0,0-7.45-13.42,7.91,7.91,0,0,0-2.93.57,8.46,8.46,0,0,0-7.8-6.64v37.67a14.35,14.35,0,0,0,8.52-3.83,8.36,8.36,0,0,0,3.75.89,8.79,8.79,0,0,0,5.91-15.24Z" transform="translate(-33.74 -11.26)"/><rect class="cls-87" x="583.05" y="388" width="4.35" height="20.75"/><path class="cls-92" d="M642.77,382.25a10.7,10.7,0,0,0-9.07-16.32,10.57,10.57,0,0,0-3.74.69,10.63,10.63,0,0,0-19.83-2.21,10.57,10.57,0,0,0-3.61-.64,10.7,10.7,0,0,0-7.93,17.84,10.68,10.68,0,0,0,9.59,18.7,16.88,16.88,0,0,0,22.67-.63,10.55,10.55,0,0,0,4.65,1.08,10.71,10.71,0,0,0,7.27-18.52Z" transform="translate(-33.74 -11.26)"/><path class="cls-86" d="M642.77,382.25a10.7,10.7,0,0,0-9.07-16.32,11.29,11.29,0,0,0-3.86.69,10.12,10.12,0,0,0-9.79-8.07v45.79a16.57,16.57,0,0,0,10.68-4.65,10.83,10.83,0,0,0,4.71,1.08,10.73,10.73,0,0,0,7.34-18.52Z" transform="translate(-33.74 -11.26)"/><rect class="cls-86" x="598.23" y="391.68" width="3" height="17.09"/><path class="cls-89" d="M653.14,389a8.81,8.81,0,0,0-7.45-13.42,8.67,8.67,0,0,0-3.07.57,8.73,8.73,0,0,0-16.3-1.82,8.67,8.67,0,0,0-3-.53,8.81,8.81,0,0,0-6.52,14.68,8.81,8.81,0,0,0,5.37,15.76,8.7,8.7,0,0,0,2.51-.37,13.85,13.85,0,0,0,18.63-.52,8.66,8.66,0,0,0,3.82.89,8.81,8.81,0,0,0,6-15.24Z" transform="translate(-33.74 -11.26)"/><path class="cls-93" d="M653.14,389a8.81,8.81,0,0,0-7.45-13.42,7.91,7.91,0,0,0-2.93.57,8.46,8.46,0,0,0-7.8-6.64v37.67a14.35,14.35,0,0,0,8.52-3.83,8.36,8.36,0,0,0,3.75.89A8.79,8.79,0,0,0,653.14,389Z" transform="translate(-33.74 -11.26)"/><path class="cls-86" d="M736.74,420s5.73-12.41-1-36.6h5.88s-.25,21.71,7.38,36.6Z" transform="translate(-33.74 -11.26)"/><ellipse class="cls-92" cx="705.27" cy="373.39" rx="4.67" ry="4.17"/><path class="cls-94" d="M742.76,381c-.23.21-2.62,1.77-9.72,1.77h0c-3.69,0-8.93-.89-17.89,4.47-.14.08-.3-.15-.21-.28,2.07-3,12.76-17.2,27.36-8.78,0,0,0,0,0,0l.46,2.69A.24.24,0,0,1,742.76,381Z" transform="translate(-33.74 -11.26)"/><path class="cls-94" d="M751.18,375.18c.4-1.31,1.2-5.63-5.2-6.47a2,2,0,0,0-.34,0c-1,0-5.84.73-7.87,9.52a.09.09,0,0,0,0,.06l1.36,2.15a.08.08,0,0,0,.14,0c.25-.39,1.32-1.68,4.65-2.17a.08.08,0,0,0,.06,0l1.63-3a2.42,2.42,0,0,1,.9-.95c1.28-.76,4.18-2.11,4.5.92A.08.08,0,0,0,751.18,375.18Z" transform="translate(-33.74 -11.26)"/><path class="cls-94" d="M719,371.37c2-.88,9.84-3.36,21.92,3.93l0,0c.51.84-1.81,3.73-2,4h0l-2.54,0h0c-.35-.34-8.07-7.84-17.29-7.71A.12.12,0,0,1,719,371.37Z" transform="translate(-33.74 -11.26)"/><path class="cls-94" d="M752.81,394.55c-.76-1.74-3.51-7.43-7-8.46a1.49,1.49,0,0,0-.46-.07,1.27,1.27,0,0,1-.42-.07c-1.7.16-1.52.52-4.43-.7-3.82-1.6-1.57-5.52-1.57-5.52s2.83-2.82,8.19,1.34,6.24,5.43,6.37,9.68a15,15,0,0,1-.19,3.76A.26.26,0,0,1,752.81,394.55Z" transform="translate(-33.74 -11.26)"/><path class="cls-94" d="M757.79,386a.11.11,0,0,0,.18-.11c-.12-1.06-1.06-5.29-8.26-7.67-7.42-2.45-10.18.36-10.68,1a.11.11,0,0,0,0,.17c.95.46,7.11,3.36,10.88,2.76h0C752.19,382.1,756.79,385.27,757.79,386Z" transform="translate(-33.74 -11.26)"/><path class="cls-94" d="M730.31,396.86a.15.15,0,0,1-.3,0c-.59-4.06-1.43-14.66,5.6-16.74,8-2.36,6.19,4.13,5.82,5.27a.15.15,0,0,1-.21.09c-.65-.31-3.34-1.27-6,2h0C731.84,391,730.52,393.14,730.31,396.86Z" transform="translate(-33.74 -11.26)"/><path class="cls-86" d="M901.14,420s-5.73-12.41,1-36.6h-5.88s.25,21.71-7.38,36.6Z" transform="translate(-33.74 -11.26)"/><ellipse class="cls-92" cx="865.14" cy="373.39" rx="4.67" ry="4.17"/><path class="cls-94" d="M895.12,381c.23.21,2.62,1.77,9.72,1.77h0c3.69,0,8.93-.89,17.89,4.47.14.08.3-.15.21-.28-2.07-3-12.76-17.2-27.36-8.78,0,0,0,0,0,0l-.46,2.69A.24.24,0,0,0,895.12,381Z" transform="translate(-33.74 -11.26)"/><path class="cls-94" d="M886.7,375.18c-.4-1.31-1.2-5.63,5.2-6.47a2,2,0,0,1,.34,0c1,0,5.84.73,7.87,9.52a.09.09,0,0,1,0,.06l-1.36,2.15a.08.08,0,0,1-.14,0c-.25-.39-1.32-1.68-4.65-2.17a.08.08,0,0,1-.06,0l-1.63-3a2.42,2.42,0,0,0-.9-.95c-1.28-.76-4.18-2.11-4.5.92A.08.08,0,0,1,886.7,375.18Z" transform="translate(-33.74 -11.26)"/><path class="cls-94" d="M918.87,371.37c-2-.88-9.84-3.36-21.92,3.93l0,0c-.51.84,1.81,3.73,2,4h0l2.54,0h0c.35-.34,8.07-7.84,17.29-7.71A.12.12,0,0,0,918.87,371.37Z" transform="translate(-33.74 -11.26)"/><path class="cls-94" d="M885.07,394.55c.76-1.74,3.51-7.43,7-8.46a1.49,1.49,0,0,1,.46-.07A1.27,1.27,0,0,0,893,386c1.7.16,1.52.52,4.43-.7,3.82-1.6,1.57-5.52,1.57-5.52s-2.83-2.82-8.19,1.34-6.24,5.43-6.37,9.68a15,15,0,0,0,.19,3.76A.26.26,0,0,0,885.07,394.55Z" transform="translate(-33.74 -11.26)"/><path class="cls-94" d="M880.09,386a.11.11,0,0,1-.18-.11c.12-1.06,1.06-5.29,8.26-7.67,7.42-2.45,10.18.36,10.68,1a.11.11,0,0,1,0,.17c-.95.46-7.11,3.36-10.88,2.76h0C885.7,382.1,881.09,385.27,880.09,386Z" transform="translate(-33.74 -11.26)"/><path class="cls-94" d="M907.58,396.86a.15.15,0,0,0,.3,0c.59-4.06,1.43-14.66-5.6-16.74-8-2.36-6.19,4.13-5.82,5.27a.15.15,0,0,0,.21.09c.65-.31,3.34-1.27,6,2h0C906,391,907.37,393.14,907.58,396.86Z" transform="translate(-33.74 -11.26)"/><rect class="cls-88" x="340.85" y="388.7" width="1.71" height="10.14"/><ellipse class="cls-89" cx="341.39" cy="379.97" rx="9.35" ry="9.23"/><path class="cls-90" d="M377.27,399.1a9.29,9.29,0,0,1-9.35-9.23,9.16,9.16,0,0,1,3.29-7,9.21,9.21,0,0,0,3.91,17.61,9.38,9.38,0,0,0,6.05-2.2A9.41,9.41,0,0,1,377.27,399.1Z" transform="translate(-33.74 -11.26)"/><path class="cls-91" d="M375.1,382h.13v18.45h-.13a9.23,9.23,0,1,0,0-18.45Z" transform="translate(-33.74 -11.26)"/><path class="cls-95" d="M209.11,409.14H162.88l2.51-16.72a4.2,4.2,0,0,1,.68-1.52,2.74,2.74,0,0,1,1.77-1.14h26.77a2.8,2.8,0,0,1,1.77,1.14Z" transform="translate(-33.74 -11.26)"/><path class="cls-96" d="M205.55,409.14H171l1.87-14.43a3.94,3.94,0,0,1,.51-1.32,2,2,0,0,1,1.32-1h20a2.06,2.06,0,0,1,1.32,1Z" transform="translate(-33.74 -11.26)"/><rect class="cls-95" x="158.09" y="406.32" width="59.79" height="20.59" rx="5.88" ry="5.88" transform="translate(342.23 821.97) rotate(180)"/><rect class="cls-16" x="173.62" y="409.5" width="5.77" height="2.39" rx="1.2" ry="1.2" transform="translate(319.27 810.14) rotate(-180)"/><path class="cls-96" d="M214.18,412.37h3.72v5.24h-3.72c-.94,0-1.7-1.18-1.7-2.62S213.25,412.37,214.18,412.37Z" transform="translate(-33.74 -11.26)"/><path class="cls-96" d="M161.72,417.61h-3.63v-5.24h3.63c.91,0,1.66,1.18,1.66,2.62S162.63,417.61,161.72,417.61Z" transform="translate(-33.74 -11.26)"/><path class="cls-16" d="M195.32,427a8.61,8.61,0,0,1,17.16,0Z" transform="translate(-33.74 -11.26)"/><circle class="cls-97" cx="170.17" cy="416.42" r="6.29"/><circle class="cls-6" cx="170.17" cy="416.42" r="3.81"/><path class="cls-16" d="M163.32,427a8.61,8.61,0,0,1,17.16,0Z" transform="translate(-33.74 -11.26)"/><circle class="cls-97" cx="138.17" cy="416.42" r="6.29"/><circle class="cls-6" cx="138.17" cy="416.42" r="3.81"/></g></g></svg>