<svg xmlns="http://www.w3.org/2000/svg" xmlns:xlink="http://www.w3.org/1999/xlink" viewBox="0 0 1280 600"><defs><style>.cls-1{isolation:isolate;}.cls-2,.cls-26{fill:#f2f2f2;}.cls-3{fill:#b2edcf;}.cls-4{fill:#b9e3ff;}.cls-5{fill:#1a1a1a;}.cls-6{fill:url(#linear-gradient);}.cls-7{fill:#305944;}.cls-8{fill:#17ea92;}.cls-9{fill:#4d4d4d;}.cls-10{fill:#ffd800;}.cls-11{fill:#c3c3c3;}.cls-12{fill:#3c3c3b;}.cls-13{fill:#fffae9;}.cls-14{fill:#e8e2d1;}.cls-15{fill:#ffcfd8;}.cls-16{fill:#1d1d1b;}.cls-17{fill:#f5f5f5;}.cls-18{fill:#b6b6b6;mix-blend-mode:multiply;}.cls-19{fill:#4f4f4f;}.cls-20,.cls-22{fill:none;stroke:#1a1a1a;}.cls-20,.cls-22,.cls-26{stroke-miterlimit:10;}.cls-20{stroke-width:0.15px;}.cls-21{fill:#c19710;}.cls-22{stroke-width:0.5px;}.cls-23{fill:url(#linear-gradient-2);}.cls-24{fill:url(#linear-gradient-3);}.cls-25{fill:url(#linear-gradient-4);}.cls-26{stroke:#f2f2f2;stroke-dasharray:12;}</style><linearGradient id="linear-gradient" x1="569.87" y1="480.53" x2="476.65" y2="319.06" gradientUnits="userSpaceOnUse"><stop offset="0" stop-color="#f2f2f2"/><stop offset="0.11" stop-color="#e8eff4"/><stop offset="0.45" stop-color="#cee9fa"/><stop offset="0.76" stop-color="#bee4fe"/><stop offset="1" stop-color="#b9e3ff"/></linearGradient><linearGradient id="linear-gradient-2" x1="853.88" y1="166.52" x2="853.88" y2="163.37" gradientUnits="userSpaceOnUse"><stop offset="0" stop-color="#f2f2f2" stop-opacity="0"/><stop offset="1" stop-color="#1a1a1a"/></linearGradient><linearGradient id="linear-gradient-3" x1="854.4" y1="182.82" x2="854.4" y2="177.04" xlink:href="#linear-gradient-2"/><linearGradient id="linear-gradient-4" x1="855.11" y1="203.84" x2="855.11" y2="198.06" xlink:href="#linear-gradient-2"/></defs><title>NewZealand</title><g class="cls-1"><g id="Layer_1" data-name="Layer 1"><rect class="cls-2" x="825.03" y="243.54" width="0.73" height="1.37"/><path class="cls-3" d="M826.77,242.46v.1a1.21,1.21,0,0,1-.22.7,1.25,1.25,0,0,1-1.05.57h-.41a1.35,1.35,0,0,1-1.07-.5,1.18,1.18,0,0,1-.27-.47,1.33,1.33,0,0,1-.08-.45l.3-6.28,0-.73,2.53-.19v.05l0,1.11Z"/><path class="cls-3" d="M826.79,243.46s1.36-.5,1.55-.12,1,2.11,1,2.11l.52-.32-.78-2.07a.87.87,0,0,0-.62-.53,2.6,2.6,0,0,0-1-.06c-.59.13-1.24.33-1.24.33Z"/><ellipse class="cls-4" cx="825.36" cy="245.21" rx="0.98" ry="1.17"/><path class="cls-5" d="M826.78,231.17l-.2,3.45,0,.59-1.06.4-.46.17h0c0-.08.1-.54.2-1.16,0-.11,0-.23,0-.35a13.64,13.64,0,0,0,.27-3.13,48.33,48.33,0,0,1-.25-5.33l.37-.21Z"/><path class="cls-5" d="M825.54,236l-.52-.2h0l-1-.38,0-.78-.2-3.27,1.14-5.57.36.22a50.48,50.48,0,0,1-.24,5.32,12.32,12.32,0,0,0,.24,2.95c0,.12,0,.23,0,.35.07.39.12.74.17,1S825.54,236,825.54,236Z"/><path class="cls-3" d="M823.77,243.54s-.35-.94-.81-.39a20.9,20.9,0,0,0-1.32,2.12l-.3-.45s1.44-3,2-2.8c.7.25,1,.66.92.7Z"/><rect class="cls-5" x="823.97" y="234.62" width="2.6" height="1.59"/><path class="cls-3" d="M824.65,243.76a.93.93,0,0,1-1.09-.58c-.27-.77,0-.53,0-.53l1.2.06Z"/><path class="cls-3" d="M826.79,243.46s-.58.68-1,.32a1.66,1.66,0,0,1-.53-1h1l.76.29Z"/><path class="cls-5" d="M826.77,242.46v.1a1.21,1.21,0,0,1-.22.7L824,236.13l.45-.16Z"/><path class="cls-5" d="M826.58,236.37l-2.56,7a1.18,1.18,0,0,1-.27-.47l2.79-7.6Z"/><path class="cls-3" d="M826.78,231.17l-.2,3.45H824l-.2-3.27.88-4.31.26-1.26.36.22s0,.43,0,1a30.29,30.29,0,0,1-.22,4.28,12.32,12.32,0,0,0,.24,2.95,13.64,13.64,0,0,0,.27-3.13,29.25,29.25,0,0,1-.24-4.1c0-.71,0-1.23,0-1.23l.37-.21.29,1.44Z"/><path class="cls-6" d="M686.25,413.34H375.92c.68-12.52,5.58-24.38,13.85-35.08,17.47-22.6,47.72-40,87.43-47.52l1.3-.24,1.24-.22.13.17.33.85c6,2.66,13.42,4.42,16.88,1.54a33.16,33.16,0,0,0,8,3.57l2.46-1.19,3.07-2.38,3.07-3.58h1.84v-2.44c1.75,0,3.51-.07,5.28-.07a156.86,156.86,0,0,1,36.82,4.32l1.53,3c2.46,4.76.62,2.38,2.46,4.76s6.14,8.34,7.37,14.3c.95.91,5.92,8.23,8.14,11.51,3-3.42,10.53-11.4,17.67-15.09l4.2-2.33c21.66,11.77,39.94,27,56,41.11C665.47,397.52,677.31,406.3,686.25,413.34Z"/><path class="cls-7" d="M655,374.53v14.3l-75.57-1.18-3.68-21.45s.5-.61,1.38-1.6c3-3.42,10.53-11.4,17.67-15.09l4.2-2.33,4.4-2.43,3.07-6h3.68s-.62-4.76,7.37-14.3l1.85,4.76,5.53-4.76,6.76,3.57,6.76,21.45,9.21,6Z"/><path class="cls-3" d="M587.39,387.64H525.34l-1.06-.63,0,0-33.31-19.61s-5.66-24.18-13.73-36.65c-.34-.51-.67-1-1-1.48.72.41,1.49.84,2.32,1.24.54.27,1.11.54,1.69.8,6,2.66,13.42,4.42,16.88,1.54a33.16,33.16,0,0,0,8,3.57l2.46-1.19,3.07-2.38,3.07-3.58h1.84V324.5a12.83,12.83,0,0,0,3.69-4.76c1.84-3.58,3.07-7.15,3.68-8.34s3.68-13.1,6.14-14.3l2.46-1.19s6.76-8.34,6.76-14.3c.59.69,1.3,1.39,2.09,2.28,3.25,3.63,7.72,10.42,10.2,33.46l7.07,13.72,1.53,3c2.46,4.76.62,2.38,2.46,4.76s6.14,8.34,7.37,14.3c.95.91,5.92,8.23,8.14,11.51l1.08,1.6s3.69,8.33,4.3,9.52A67,67,0,0,1,587.39,387.64Z"/><path class="cls-7" d="M506,377.44s12-38.64,14.44-38.64,1.84,0,2.46-4.77l.61-4.77s1.23-10.72,3.07-13.1.61,1.19,1.84-2.38,3.07-4.77,2.46-8.34,1.23,9.53,2.46,9.53,1.23,2.38,3.07,1.19,9.22,1.19,10.44,6,.61,11.91,2.46,8.34,4.92-2.38,6.14,1.19,1.23,9.53,3.07,11.91,1.84,9.53,1.84,9.53,3.07,15.49,4.92,16.68,4.3,9.53,4.3,9.53l3.28,9.53H523.8Z"/><path class="cls-3" d="M527.18,388.83l-138.41,2.39,1-12.95,3.31-43,11.06-52.41,15.67-33.36s13.52-3.57,14.13,0,14.59,31,14.59,31,4.92,2.39,6.77,2.39,9.82,27.4,14.13,32.16a42.29,42.29,0,0,1,6.76,10.73l3.55,4.59.13.17.33.85,14.42,37.27L524.24,387l0,0Z"/><path class="cls-7" d="M550.53,317.35a68.65,68.65,0,0,0-8.6-8.34c-8.81-6.72-3.82-24.67-1.6-25.12C543.58,287.52,548.05,294.31,550.53,317.35Z"/><polygon class="cls-3" points="638.96 355.61 648.11 330.6 654.97 331.56 661.08 303.66 673.28 292.12 685.48 316.17 700.74 333.49 704.55 378.7 707.6 386.4 711.42 412.38 622.19 412.46 622.17 399.87 631.33 390.25 635.9 379.67 638.96 355.61"/><path class="cls-7" d="M442.17,281.53h-13l-3.81-25s9.66,16.69,20.59,22.13Z"/><path class="cls-7" d="M450.56,294s6.86,9.62,9.15,21.17,10.68,15.39,10.68,15.39l-14.49,1H436.07L433,326.75,443.69,294S448.27,296.93,450.56,294Z"/><path class="cls-7" d="M638.44,412l-.25-16s5.61-3.67,6.24-7.61,2.91-31.84,2.91-31.84L655,347l5.34,9.62L662.6,370l3.05,5.77L666.8,413Z"/><rect class="cls-8" x="748.66" y="325.11" width="19.23" height="86.8"/><rect class="cls-8" x="746.52" y="331.94" width="23.56" height="79.96"/><path class="cls-8" d="M768.06,342.1H749c2.65-7.37,5-14.83,3.48-23.4h11.84C763.17,325.83,765.06,333.81,768.06,342.1Z"/><polygon class="cls-9" points="761.1 340.36 755.57 340.36 753 345.09 753 411.8 763.88 411.8 763.88 345.09 761.1 340.36"/><rect class="cls-4" x="746.52" y="331.94" width="23.56" height="2.25"/><rect class="cls-4" x="748.66" y="325.11" width="19.76" height="2.25"/><rect x="764.28" y="354.84" width="5.44" height="1.7"/><rect x="764.28" y="360.5" width="5.44" height="1.7"/><rect x="757.57" y="303.91" width="1.42" height="21.2"/><rect x="764.28" y="366.15" width="5.44" height="1.7"/><rect x="764.28" y="371.8" width="5.44" height="1.7"/><rect x="764.28" y="377.45" width="5.44" height="1.7"/><rect x="764.28" y="383.1" width="5.44" height="1.7"/><rect x="764.28" y="388.75" width="5.44" height="1.7"/><rect x="764.28" y="394.4" width="5.44" height="1.7"/><rect x="764.28" y="400.06" width="5.44" height="1.7"/><rect x="764.28" y="405.71" width="5.44" height="1.7"/><rect x="746.83" y="354.84" width="5.44" height="1.7"/><rect x="746.83" y="360.5" width="5.44" height="1.7"/><rect x="746.83" y="366.15" width="5.44" height="1.7"/><rect x="746.83" y="371.8" width="5.44" height="1.7"/><rect x="746.83" y="377.45" width="5.44" height="1.7"/><rect x="746.83" y="383.1" width="5.44" height="1.7"/><rect x="746.83" y="388.75" width="5.44" height="1.7"/><rect x="746.83" y="394.4" width="5.44" height="1.7"/><rect x="746.83" y="400.06" width="5.44" height="1.7"/><rect x="746.83" y="405.71" width="5.44" height="1.7"/><rect class="cls-10" x="755.82" y="354.96" width="5.44" height="1.7"/><rect class="cls-10" x="755.82" y="360.61" width="5.44" height="1.7"/><rect class="cls-10" x="755.82" y="366.26" width="5.44" height="1.7"/><rect class="cls-10" x="755.82" y="371.92" width="5.44" height="1.7"/><rect class="cls-10" x="755.82" y="377.57" width="5.44" height="1.7"/><rect class="cls-10" x="755.82" y="383.22" width="5.44" height="1.7"/><rect class="cls-10" x="755.82" y="388.87" width="5.44" height="1.7"/><rect class="cls-10" x="755.82" y="394.52" width="5.44" height="1.7"/><rect class="cls-10" x="755.82" y="400.17" width="5.44" height="1.7"/><rect class="cls-10" x="755.82" y="405.82" width="5.44" height="1.7"/><rect class="cls-10" x="755.82" y="345.32" width="5.44" height="7.85"/><rect x="750.91" y="328.38" width="2.84" height="2.84"/><rect x="754.94" y="328.38" width="2.84" height="2.84"/><rect x="758.99" y="328.38" width="2.84" height="2.84"/><rect x="762.91" y="328.38" width="2.84" height="2.84"/><path class="cls-7" d="M412.37,415.47C410,344.79,354.33,288.26,286,288.26S162.11,344.79,159.71,415.47Z"/><path class="cls-7" d="M290.1,412.91c-2-51.14-47.3-92-102.95-92s-101,40.9-102.95,92Z"/><rect class="cls-9" x="21.33" y="411.9" width="1237.34" height="31.51" rx="15.75" ry="15.75"/><rect class="cls-9" x="81.12" y="473.93" width="1045.28" height="31.51" rx="14.48" ry="14.48"/><path class="cls-9" d="M1003.4,473.93H455.91a14.48,14.48,0,0,0,14.48-14.48V456.9a14.48,14.48,0,0,0-14.48-14.48H1003.4a14.48,14.48,0,0,0-14.48,14.48v2.55A14.48,14.48,0,0,0,1003.4,473.93Z"/><path class="cls-8" d="M275.37,389.5c0,6.39-11.84,10.45-26.86,12.16a158.82,158.82,0,0,1-22.1.88,133.48,133.48,0,0,1-20.29-2,138,138,0,0,1-23.25,2.07,157.17,157.17,0,0,1-18.77-.89c-2.64-.29-5.19-.66-7.59-1.1-7.63-1.39-13.83-3.5-17.11-6.34a7.3,7.3,0,0,1-2.29-3.21,5.09,5.09,0,0,1-.23-1.18c0-.13,0-.26,0-.39,0-6.46,2.71-12.47,7.35-17.48a37.44,37.44,0,0,1,6.45-5.49,41.56,41.56,0,0,1,6.44-12.81c10-13.46,28-21.55,48.42-21.55a74.19,74.19,0,0,1,11,.8,60,60,0,0,1,28.3,11.67,43.58,43.58,0,0,1,14.76,20.6c8.93,5.36,14.86,13.2,15.71,22Q275.37,388.39,275.37,389.5Z"/><rect class="cls-10" x="158.47" y="364.59" width="31" height="25.5" rx="5.9" ry="5.9" transform="translate(347.93 754.67) rotate(180)"/><rect x="158.47" y="363.71" width="2.52" height="25.5" transform="translate(319.45 752.92) rotate(180)"/><rect x="180.57" y="364.59" width="2.52" height="25.5" transform="translate(363.66 754.67) rotate(180)"/><polygon class="cls-3" points="160.98 380.66 160.98 365.31 180.56 365.31 160.98 380.66"/><ellipse cx="169.96" cy="376.46" rx="7.07" ry="7.34"/><ellipse class="cls-3" cx="169.96" cy="376.36" rx="4.97" ry="5.16"/><path class="cls-10" d="M169.77,371.2a5.17,5.17,0,0,0,0,10.32Z"/><path class="cls-11" d="M233.18,372.17a5.17,5.17,0,0,0,0,10.32Z"/><rect x="168.28" y="382.71" width="2.62" height="2.2" transform="translate(339.19 767.61) rotate(180)"/><rect x="171.61" y="368.5" width="2.62" height="2.2" transform="translate(345.84 739.2) rotate(180)"/><rect x="169.46" y="367.41" width="2.62" height="2.2" transform="translate(341.54 737.01) rotate(180)"/><rect x="168.15" y="368.5" width="2.62" height="2.2" transform="translate(338.92 739.2) rotate(180)"/><rect x="155.05" y="360.74" width="34.06" height="4.9" transform="translate(344.17 726.37) rotate(180)"/><rect x="156.52" y="389.33" width="29.81" height="1.51" transform="translate(342.85 780.17) rotate(180)"/><rect class="cls-10" x="221.86" y="364.59" width="31" height="25.5" rx="5.9" ry="5.9"/><polygon class="cls-3" points="230.76 381.31 230.76 365.96 250.34 365.96 230.76 381.31"/><polygon class="cls-5" points="205.74 391.48 205.74 376.13 225.32 376.13 205.74 391.48"/><rect class="cls-10" x="182.87" y="385.93" width="45.32" height="19.08"/><rect x="221.37" y="361.26" width="34.06" height="4.9" transform="translate(476.81 727.43) rotate(180)"/><circle cx="205.3" cy="378.07" r="24.2"/><circle class="cls-3" cx="205.3" cy="378.07" r="18.39"/><path class="cls-10" d="M205.74,359.69h-.44a18.39,18.39,0,1,0,0,36.78h.44Z"/><rect x="250.34" y="363.71" width="2.52" height="25.5"/><rect x="225" y="389.33" width="29.81" height="1.51"/><rect x="228.23" y="364.59" width="2.52" height="25.5"/><rect x="225.67" y="379.51" width="2.52" height="25.5"/><rect x="182.87" y="379.94" width="2.52" height="25.5"/><ellipse cx="241.37" cy="376.46" rx="7.07" ry="7.34"/><ellipse class="cls-3" cx="241.37" cy="376.36" rx="4.97" ry="5.16"/><path class="cls-10" d="M241.66,371.2h-.3a5.17,5.17,0,0,0,0,10.33h.3Z"/><rect x="240.42" y="382.71" width="2.62" height="2.2"/><rect x="237.09" y="368.5" width="2.62" height="2.2"/><rect x="239.24" y="367.41" width="2.62" height="2.2"/><rect x="240.55" y="368.5" width="2.62" height="2.2"/><circle cx="205.43" cy="378.04" r="2.57"/><polygon class="cls-7" points="235.5 402.56 239.38 393.98 233.61 401.55 229.21 393.98 231.41 402.56 235.5 402.56"/><polygon class="cls-7" points="226.13 361.31 229.45 353.99 224.52 360.45 220.76 353.99 222.65 361.31 226.13 361.31"/><polygon class="cls-7" points="229.22 361.33 232.07 356.62 227.83 360.77 224.59 356.62 226.22 361.33 229.22 361.33"/><polygon class="cls-7" points="188.76 360.95 191.61 356.23 187.37 360.39 184.13 356.23 185.75 360.95 188.76 360.95"/><rect class="cls-10" x="205.66" y="351.53" width="6.87" height="4.71"/><rect class="cls-10" x="200.02" y="349.17" width="6.87" height="4.71"/><rect class="cls-10" x="202.68" y="344.47" width="6.87" height="4.71"/><path class="cls-8" d="M404.68,411.91c0-1,0-2,0-3,0-34.44,17.86-62.36,39.88-62.36,19.37,0,39.89,27.92,39.89,62.36,0,1,0,2,0,3Z"/><rect class="cls-12" x="367.33" y="388.23" width="2.74" height="10.01" rx="1.13" ry="1.13" transform="translate(737.41 786.48) rotate(180)"/><rect class="cls-12" x="382.95" y="386.57" width="2.74" height="10.01" rx="1.13" ry="1.13" transform="translate(768.65 783.14) rotate(-180)"/><path class="cls-13" d="M362.67,385.32a6.52,6.52,0,0,0,.26,1.81l0,.06a6.86,6.86,0,0,0,4.39,4.49,7.18,7.18,0,0,0,2.3.38h.44a7.12,7.12,0,0,0,2.42-.58l.06.06,0,0,.06.06.15.14a7,7,0,0,0,1.39,1l.28.14a7.06,7.06,0,0,0,1.07.41,7.17,7.17,0,0,0,1.78.28H378a7.08,7.08,0,0,0,3.78-1.34h0l.33-.26a6.89,6.89,0,0,0,.89-.88,6.76,6.76,0,0,0,.5-.68,7.08,7.08,0,0,0,1.2.38h0a7.16,7.16,0,0,0,1,.15l.46,0h.07a7.27,7.27,0,0,0,.93-.06,7.14,7.14,0,0,0,1.3-.29,7,7,0,0,0,1.44-.66l.07,0a6.82,6.82,0,0,0,2.73-3.17l.05-.13a6.53,6.53,0,0,0,.45-2.39,6.59,6.59,0,0,0-1.8-4.52,6.56,6.56,0,0,0-.81-4.41,6.73,6.73,0,0,0-.54-.78,6.89,6.89,0,0,0-1.23-1.2,7.17,7.17,0,0,0-8.58,0,7.15,7.15,0,0,0-9.54.93h-.14a7.09,7.09,0,0,0-4.48,1.57,6.85,6.85,0,0,0-1.43,1.59,6.57,6.57,0,0,0-.87,2,6.44,6.44,0,0,0-.14.73,6.59,6.59,0,0,0,0,1.76A6.54,6.54,0,0,0,362.67,385.32Z"/><path class="cls-12" d="M368.81,380l.55,1.3c.44,1,2,1,2.8-.07l1-1.34c.81-1.07.26-2.37-1-2.34l-1.56,0A1.91,1.91,0,0,0,368.81,380Z"/><path class="cls-14" d="M383.43,387l0,3.39a7.44,7.44,0,0,0,2.77.55,7.19,7.19,0,0,0,2.23-.35l1.69-2.29Z"/><path class="cls-14" d="M374.2,392.72c1.44,1.17,6,1.19,7.54-.53l-7.1-6Z"/><rect class="cls-12" x="372.8" y="388.54" width="2.74" height="10.01" rx="1.13" ry="1.13" transform="translate(748.35 787.1) rotate(180)"/><path class="cls-14" d="M372.8,391.75l-.3-.29a7.15,7.15,0,0,1-2.86.59,7,7,0,0,1-6.7-4.86l3.79-8.13,6.08,10.84Z"/><path class="cls-12" d="M387.15,388.39V396a1.14,1.14,0,0,0,1.07,1.2h.61a1,1,0,0,0,.35-.07,1.2,1.2,0,0,0,.71-1.13v-7.61a1.35,1.35,0,0,0,0-.15,1.29,1.29,0,0,0,0-.16v0a1.09,1.09,0,0,0-1-.87h-.61a1,1,0,0,0-.9.55A1.31,1.31,0,0,0,387.15,388.39Z"/><path class="cls-12" d="M359.31,385.28a3,3,0,0,0,2.94,1.84H363l3.12.06a5.38,5.38,0,0,0,4.12-1.94,3.72,3.72,0,0,0,.93-3.24q0-.13-.08-.25L370,378.68a2.67,2.67,0,0,0-.37-.71,3.28,3.28,0,0,0-2.83-1.19,5.18,5.18,0,0,0-2.12.55l-.25.14q-.23.13-.46.29a5.53,5.53,0,0,0-.83.72l-.06.06-2.76,3q-.17.18-.31.37h0a4.17,4.17,0,0,0-.78,1.64c0,.07,0,.14,0,.21A3,3,0,0,0,359.31,385.28Z"/><path class="cls-12" d="M362.33,376.63a2.24,2.24,0,0,0,.09.24l.68,1.58,0,0a2.29,2.29,0,0,0,.67.86,1.38,1.38,0,0,0,2,0l.82-1.11a1.55,1.55,0,0,0,.16-1.41,2.33,2.33,0,0,0-.69-1,2,2,0,0,0-.69-.39l-1.5-.48a1.4,1.4,0,0,0-.78,0A1.33,1.33,0,0,0,362.33,376.63Z"/><path class="cls-15" d="M359.85,383.67l-.51-.09a.58.58,0,0,0-.58.81l.19.54a.51.51,0,0,0,.92.16l.32-.45A.62.62,0,0,0,359.85,383.67Z"/><path class="cls-15" d="M364.11,377.69l.41-.31c.33-.25-1.51-1.54-1.43-1l.1.67C363.27,377.58,363.78,377.94,364.11,377.69Z"/><path class="cls-15" d="M370.83,379.85l.13.54c.11.43,1.77-1.13,1.3-1.21l-.59-.1A.71.71,0,0,0,370.83,379.85Z"/><path class="cls-15" d="M364.7,381.63a1.09,1.09,0,1,0,2.17,0c0-.67-.49-.83-1.08-.83S364.7,381,364.7,381.63Z"/><path class="cls-16" d="M364.83,381.63a1,1,0,1,0,1.9,0,.95.95,0,0,0-1.9,0Z"/><ellipse class="cls-17" cx="365.56" cy="381.3" rx="0.29" ry="0.33"/><ellipse class="cls-13" cx="388.02" cy="385.7" rx="3.36" ry="2.85"/><path class="cls-14" d="M384.66,380.29l.9,1.63.1.18.64,1.16,2.18,3.94.48.87.17.3h0l.4.73.35.64.07.13a5.07,5.07,0,0,0,2.73-3.17,8.9,8.9,0,0,0,.41-1.39c.44-2.17.07-4.52-1.7-5.64a6.56,6.56,0,0,0-.81-4.41l-.14-.11-1.78-1.39Z"/><ellipse class="cls-13" cx="374.57" cy="387.74" rx="3.36" ry="2.85"/><path class="cls-13" d="M381.77,377.26a4.69,4.69,0,0,0,3.79,4.66l.27,0,.51,0a4.44,4.44,0,0,0,2.35-.67,4.76,4.76,0,0,0,2.22-4.06,4.84,4.84,0,0,0-.47-2.1,4.76,4.76,0,0,0-.39-.67,4.66,4.66,0,0,0-1.23-1.2,4.45,4.45,0,0,0-2.48-.75A4.65,4.65,0,0,0,381.77,377.26Z"/><ellipse class="cls-13" cx="388.02" cy="384.89" rx="3.7" ry="3.64"/><path class="cls-18" d="M404.57,411.91c0-1,0-2,0-3,0-34.44,17.69-62.36,39.88-62.36v65.35Z"/><path class="cls-8" d="M367.1,412c0-.52,0-1,0-1.56,0-17.94,13.89-32.49,31-32.49s31,14.55,31,32.49c0,.52,0,1,0,1.56Z"/><path class="cls-18" d="M367.15,412c0-.52,0-1,0-1.56,0-17.94,13.76-32.49,31-32.49v34Z"/><path class="cls-8" d="M368,411.91c0-.37,0-.75,0-1.13a23.52,23.52,0,0,0-47,0c0,.38,0,.75,0,1.13Z"/><path class="cls-18" d="M368,411.91c0-.37,0-.75,0-1.13a23.46,23.46,0,0,0-23.52-23.52v24.65Z"/><path class="cls-8" d="M133.73,411.91c0-.37,0-.75,0-1.13a23.52,23.52,0,0,0-47,0c0,.38,0,.75,0,1.13Z"/><path class="cls-18" d="M133.69,411.91c0-.37,0-.75,0-1.13a23.46,23.46,0,0,0-23.52-23.52v24.65Z"/><rect class="cls-12" x="311.39" y="397.26" width="2.7" height="9.86" rx="1.11" ry="1.11"/><rect class="cls-12" x="296.01" y="395.61" width="2.7" height="9.86" rx="1.11" ry="1.11"/><path class="cls-13" d="M318.7,394.38a6.43,6.43,0,0,1-.25,1.79l0,.06a6.76,6.76,0,0,1-4.33,4.42,7.07,7.07,0,0,1-2.27.37h-.43a7,7,0,0,1-2.39-.57l-.06.06,0,0-.06.06-.15.14a6.87,6.87,0,0,1-1.37,1l-.28.14a7,7,0,0,1-1.06.4,7.07,7.07,0,0,1-1.76.27h-.61a7,7,0,0,1-3.72-1.32h0l-.33-.25a6.78,6.78,0,0,1-.88-.87,6.66,6.66,0,0,1-.49-.67,7,7,0,0,1-1.18.37h0a7.05,7.05,0,0,1-1,.15l-.45,0h-.07a7.16,7.16,0,0,1-.91-.06,7,7,0,0,1-1.28-.29,6.94,6.94,0,0,1-1.42-.65l-.07,0a6.72,6.72,0,0,1-2.69-3.12l-.05-.13a6.43,6.43,0,0,1-.44-2.35,6.49,6.49,0,0,1,1.77-4.45,6.46,6.46,0,0,1,.79-4.35,6.63,6.63,0,0,1,.53-.77,6.79,6.79,0,0,1,1.21-1.18,7.06,7.06,0,0,1,8.45,0,7,7,0,0,1,9.4.91h.14a7,7,0,0,1,4.41,1.55,6.75,6.75,0,0,1,1.41,1.57,6.48,6.48,0,0,1,.86,2,6.35,6.35,0,0,1,.13.72,6.5,6.5,0,0,1,0,1.74A6.44,6.44,0,0,1,318.7,394.38Z"/><path class="cls-12" d="M312.64,389.19l-.54,1.28c-.43,1-2,1-2.76-.07l-1-1.32c-.79-1.06-.25-2.34,1-2.31l1.53,0A1.89,1.89,0,0,1,312.64,389.19Z"/><path class="cls-14" d="M298.24,396l0,3.34a7.33,7.33,0,0,1-2.73.54,7.08,7.08,0,0,1-2.2-.35l-1.67-2.26Z"/><path class="cls-14" d="M307.34,401.68c-1.42,1.15-5.87,1.17-7.43-.52l7-5.89Z"/><rect class="cls-12" x="306.01" y="397.56" width="2.7" height="9.86" rx="1.11" ry="1.11"/><path class="cls-14" d="M308.71,400.72l.3-.28a7,7,0,0,0,2.82.58,6.84,6.84,0,0,0,6.6-4.79l-3.74-8-6,10.68Z"/><path class="cls-12" d="M294.58,397.41v7.5a1.12,1.12,0,0,1-1,1.18h-.6a.94.94,0,0,1-.35-.07,1.18,1.18,0,0,1-.7-1.12v-7.5a1.33,1.33,0,0,1,0-.15,1.27,1.27,0,0,1,0-.16v0a1.08,1.08,0,0,1,1-.86h.6a1,1,0,0,1,.89.55A1.29,1.29,0,0,1,294.58,397.41Z"/><path class="cls-12" d="M322,394.35a3,3,0,0,1-2.89,1.81h-.72l-3.07.06a5.3,5.3,0,0,1-4.06-1.91,3.66,3.66,0,0,1-.92-3.19q0-.13.08-.25l1.07-3a2.63,2.63,0,0,1,.37-.7,3.24,3.24,0,0,1,2.78-1.17,5.1,5.1,0,0,1,2.09.55l.25.13q.23.13.45.29a5.45,5.45,0,0,1,.82.71l.06.06,2.72,3q.17.18.31.37h0a4.11,4.11,0,0,1,.77,1.62c0,.07,0,.14,0,.2A2.93,2.93,0,0,1,322,394.35Z"/><path class="cls-12" d="M319,385.82a2.21,2.21,0,0,1-.09.24l-.67,1.56,0,0a2.25,2.25,0,0,1-.66.85,1.36,1.36,0,0,1-2,0l-.81-1.09a1.53,1.53,0,0,1-.16-1.39,2.29,2.29,0,0,1,.68-1,2,2,0,0,1,.68-.39l1.48-.47a1.38,1.38,0,0,1,.77,0A1.31,1.31,0,0,1,319,385.82Z"/><path class="cls-15" d="M321.47,392.76l.5-.09a.57.57,0,0,1,.57.8l-.18.53a.5.5,0,0,1-.9.16l-.32-.44A.61.61,0,0,1,321.47,392.76Z"/><path class="cls-15" d="M317.27,386.87l-.41-.3c-.32-.24,1.48-1.52,1.41-1l-.1.66C318.1,386.76,317.6,387.11,317.27,386.87Z"/><path class="cls-15" d="M310.66,389l-.13.53c-.1.42-1.75-1.11-1.28-1.19l.59-.1A.7.7,0,0,1,310.66,389Z"/><path class="cls-15" d="M316.69,390.75a1.08,1.08,0,1,1-2.13,0c0-.66.48-.82,1.07-.82S316.69,390.08,316.69,390.75Z"/><path class="cls-16" d="M316.56,390.75a.94.94,0,1,1-1.87,0,.93.93,0,0,1,1.87,0Z"/><ellipse class="cls-17" cx="315.84" cy="390.42" rx="0.29" ry="0.32"/><ellipse class="cls-13" cx="293.72" cy="394.76" rx="3.31" ry="2.81"/><path class="cls-14" d="M297,389.43l-.89,1.61-.1.17-.63,1.14-2.15,3.88-.48.86-.17.3h0l-.4.72-.35.63-.07.13a5,5,0,0,1-2.69-3.12,8.77,8.77,0,0,1-.4-1.37c-.44-2.14-.07-4.45,1.68-5.55a6.46,6.46,0,0,1,.79-4.35l.14-.11,1.76-1.37Z"/><ellipse class="cls-13" cx="306.97" cy="396.77" rx="3.31" ry="2.81"/><path class="cls-13" d="M299.87,386.44a4.62,4.62,0,0,1-3.73,4.59l-.27,0-.5,0a4.38,4.38,0,0,1-2.32-.66,4.69,4.69,0,0,1-2.19-4,4.77,4.77,0,0,1,.47-2.07,4.69,4.69,0,0,1,.39-.66,4.6,4.6,0,0,1,1.21-1.18,4.38,4.38,0,0,1,2.44-.74A4.59,4.59,0,0,1,299.87,386.44Z"/><ellipse class="cls-13" cx="293.71" cy="393.97" rx="3.64" ry="3.59"/><rect class="cls-2" x="846.51" y="225.39" width="17.2" height="171.41"/><path class="cls-2" d="M869.64,194v26.51c0,.22,0,.44,0,.66a19.59,19.59,0,0,1-.18,2.1C868.3,231.64,862,238,854.4,238s-13.9-6.37-15.05-14.72a19.59,19.59,0,0,1-.18-2.1c0-.22,0-.44,0-.66V194a19.92,19.92,0,0,1,.71-5.31h29.06A19.92,19.92,0,0,1,869.64,194Z"/><rect class="cls-5" x="839.16" y="188.6" width="30.49" height="9.46"/><polygon class="cls-2" points="872.8 177.04 871.22 182.82 869.64 188.6 839.16 188.6 837.58 182.82 836 177.04 872.8 177.04"/><rect class="cls-5" x="830.75" y="174.93" width="47.3" height="2.11"/><rect class="cls-5" x="826.54" y="166.52" width="55.72" height="3.16"/><rect class="cls-5" x="850.72" y="240.11" width="1.05" height="9.46"/><rect class="cls-5" x="850.72" y="251.68" width="1.05" height="9.46"/><rect class="cls-5" x="850.72" y="263.24" width="1.05" height="9.46"/><rect class="cls-5" x="850.72" y="274.8" width="1.05" height="9.46"/><rect class="cls-5" x="850.72" y="286.37" width="1.05" height="9.46"/><rect class="cls-5" x="850.72" y="297.93" width="1.05" height="9.46"/><rect class="cls-5" x="850.72" y="309.5" width="1.05" height="9.46"/><rect class="cls-5" x="850.72" y="321.06" width="1.05" height="9.46"/><rect class="cls-5" x="850.72" y="332.63" width="1.05" height="9.46"/><rect class="cls-5" x="850.72" y="344.19" width="1.05" height="9.46"/><rect class="cls-5" x="850.72" y="355.75" width="1.05" height="9.46"/><rect class="cls-5" x="850.72" y="228.55" width="1.05" height="9.46"/><path class="cls-5" d="M839.17,221.19h30.47a19.54,19.54,0,0,1-.18,2.1H839.34"/><rect class="cls-2" x="851.25" y="65.59" width="4.21" height="32.59"/><polygon class="cls-8" points="875.95 169.68 873.91 174.93 832.85 174.93 830.75 169.68 875.95 169.68"/><path class="cls-2" d="M877,163.9a2.63,2.63,0,0,1-2.63,2.62h-41a2.62,2.62,0,0,1-2.62-2.62l0-.53c.49-1.08.6-1.21.72-1.33a2.57,2.57,0,0,1,1.85-.77h41a2.64,2.64,0,0,1,2.58,2.1A3.07,3.07,0,0,1,877,163.9Z"/><rect class="cls-8" x="844.41" y="133.93" width="18.92" height="2.1"/><rect class="cls-8" x="838.1" y="126.57" width="29.44" height="2.1"/><rect class="cls-2" x="827.59" y="159.16" width="52.57" height="4.21"/><path class="cls-8" d="M850.64,95.54a3.12,3.12,0,0,0-.44,1.59v14.72a3.15,3.15,0,1,0,6.31,0V97.13a3.12,3.12,0,0,0-.44-1.59Z"/><polygon class="cls-2" points="867.54 159.16 840.21 159.16 844.41 134.99 863.34 134.99 867.54 159.16"/><rect class="cls-5" x="841.26" y="128.68" width="24.18" height="5.26"/><rect class="cls-8" x="852.29" y="45.44" width="2.05" height="6.22"/><rect class="cls-8" x="845.46" y="110.81" width="15.77" height="2.1"/><rect class="cls-2" x="851.77" y="51.2" width="3.15" height="16.49"/><rect class="cls-8" x="851.77" y="60.08" width="3.15" height="1.03"/><polygon class="cls-4" points="848.59 350.82 848.59 412 806.93 412 806.93 350.82 811.98 350.82 811.98 335.76 815.77 335.76 815.77 324.17 839.76 324.17 839.76 335.76 842.91 335.76 842.91 350.82 848.59 350.82"/><rect class="cls-5" x="825.19" y="335.87" width="4.99" height="2.52"/><rect class="cls-5" x="825.19" y="339.87" width="4.99" height="2.52"/><rect class="cls-5" x="825.19" y="343.88" width="4.99" height="2.52"/><rect class="cls-5" x="825.19" y="355.89" width="4.99" height="2.52"/><rect class="cls-5" x="825.19" y="359.9" width="4.99" height="2.52"/><rect class="cls-5" x="825.19" y="363.9" width="4.99" height="2.52"/><rect class="cls-5" x="825.19" y="367.91" width="4.99" height="2.52"/><rect class="cls-5" x="825.19" y="371.91" width="4.99" height="2.52"/><rect class="cls-5" x="825.19" y="375.92" width="4.99" height="2.52"/><rect class="cls-5" x="825.19" y="379.92" width="4.99" height="2.52"/><rect class="cls-5" x="825.19" y="383.93" width="4.99" height="2.52"/><rect class="cls-5" x="825.19" y="387.93" width="4.99" height="2.52"/><rect class="cls-5" x="825.19" y="391.94" width="4.99" height="2.52"/><rect class="cls-5" x="825.19" y="395.94" width="4.99" height="2.52"/><rect class="cls-5" x="825.19" y="399.95" width="4.99" height="2.52"/><rect class="cls-9" x="822.69" y="403.95" width="4.99" height="8.04"/><rect class="cls-9" x="827.68" y="403.95" width="4.99" height="8.04"/><rect class="cls-19" x="833.05" y="335.37" width="10.02" height="15.03"/><rect class="cls-19" x="812.1" y="335.56" width="10.02" height="14.84"/><rect class="cls-5" x="815.65" y="353.31" width="5.06" height="1.2"/><rect class="cls-5" x="815.65" y="355.72" width="5.06" height="1.2"/><rect class="cls-5" x="815.65" y="358.13" width="5.06" height="1.2"/><rect class="cls-5" x="815.65" y="360.53" width="5.06" height="1.2"/><rect class="cls-5" x="815.65" y="362.94" width="5.06" height="1.2"/><rect class="cls-5" x="815.65" y="365.35" width="5.06" height="1.2"/><rect class="cls-5" x="815.65" y="367.75" width="5.06" height="1.2"/><rect class="cls-5" x="815.65" y="370.16" width="5.06" height="1.2"/><rect class="cls-5" x="815.65" y="372.57" width="5.06" height="1.2"/><rect class="cls-5" x="815.65" y="374.97" width="5.06" height="1.2"/><rect class="cls-5" x="815.65" y="377.38" width="5.06" height="1.2"/><rect class="cls-5" x="815.65" y="379.78" width="5.06" height="1.2"/><rect class="cls-5" x="815.65" y="382.19" width="5.06" height="1.2"/><rect class="cls-5" x="815.65" y="384.6" width="5.06" height="1.2"/><rect class="cls-5" x="815.65" y="387" width="5.06" height="1.2"/><rect class="cls-5" x="815.65" y="389.41" width="5.06" height="1.2"/><rect class="cls-5" x="815.65" y="391.82" width="5.06" height="1.2"/><rect class="cls-5" x="815.65" y="394.22" width="5.06" height="1.2"/><rect class="cls-5" x="815.65" y="396.63" width="5.06" height="1.2"/><rect class="cls-5" x="815.65" y="399.04" width="5.06" height="1.2"/><rect class="cls-5" x="815.65" y="401.44" width="5.06" height="1.2"/><rect class="cls-5" x="815.65" y="403.85" width="5.06" height="1.2"/><rect class="cls-5" x="815.65" y="406.26" width="5.06" height="1.2"/><rect class="cls-5" x="834.68" y="352.86" width="5.3" height="1.26"/><rect class="cls-5" x="834.68" y="355.38" width="5.3" height="1.26"/><rect class="cls-5" x="834.68" y="357.89" width="5.3" height="1.26"/><rect class="cls-5" x="834.68" y="360.41" width="5.3" height="1.26"/><rect class="cls-5" x="834.68" y="362.93" width="5.3" height="1.26"/><rect class="cls-5" x="834.68" y="365.45" width="5.3" height="1.26"/><rect class="cls-5" x="834.68" y="367.96" width="5.3" height="1.26"/><rect class="cls-5" x="834.68" y="370.48" width="5.3" height="1.26"/><rect class="cls-5" x="834.68" y="373" width="5.3" height="1.26"/><rect class="cls-5" x="834.68" y="375.52" width="5.3" height="1.26"/><rect class="cls-5" x="834.68" y="378.03" width="5.3" height="1.26"/><rect class="cls-5" x="834.68" y="380.55" width="5.3" height="1.26"/><rect class="cls-5" x="834.68" y="383.07" width="5.3" height="1.26"/><rect class="cls-5" x="834.68" y="385.58" width="5.3" height="1.26"/><rect class="cls-5" x="834.68" y="388.1" width="5.3" height="1.26"/><rect class="cls-5" x="834.68" y="390.62" width="5.3" height="1.26"/><rect class="cls-5" x="834.68" y="393.14" width="5.3" height="1.26"/><rect class="cls-5" x="834.68" y="395.65" width="5.3" height="1.26"/><rect class="cls-5" x="834.68" y="398.17" width="5.3" height="1.26"/><rect class="cls-5" x="834.68" y="400.69" width="5.3" height="1.26"/><rect class="cls-5" x="834.68" y="403.21" width="5.3" height="1.26"/><rect class="cls-5" x="834.68" y="405.72" width="5.3" height="1.26"/><rect class="cls-5" x="834.68" y="408.24" width="5.3" height="1.26"/><rect class="cls-5" x="815.53" y="408.24" width="5.3" height="1.26"/><rect class="cls-9" x="815.53" y="338.89" width="5.3" height="8.01"/><rect class="cls-9" x="815.53" y="336.9" width="5.3" height="1.26"/><rect class="cls-9" x="834.68" y="338.89" width="5.3" height="8.01"/><rect class="cls-9" x="834.68" y="336.9" width="5.3" height="1.26"/><rect class="cls-7" x="809.07" y="353.3" width="2.56" height="2.49"/><rect class="cls-7" x="809.07" y="357.17" width="2.56" height="2.49"/><rect class="cls-7" x="809.07" y="361.04" width="2.56" height="2.49"/><rect class="cls-7" x="809.07" y="364.91" width="2.56" height="2.49"/><rect class="cls-7" x="809.07" y="368.78" width="2.56" height="2.49"/><rect class="cls-7" x="809.07" y="372.65" width="2.56" height="2.49"/><rect class="cls-7" x="809.07" y="376.52" width="2.56" height="2.49"/><rect class="cls-7" x="809.07" y="380.39" width="2.56" height="2.49"/><rect class="cls-7" x="809.07" y="384.26" width="2.56" height="2.49"/><rect class="cls-7" x="809.07" y="388.13" width="2.56" height="2.49"/><rect class="cls-7" x="809.07" y="392.33" width="2.56" height="2.49"/><rect class="cls-7" x="809.07" y="396.54" width="2.56" height="2.49"/><rect class="cls-19" x="806.77" y="350.41" width="41.81" height="1.5"/><rect class="cls-7" x="809.07" y="400.75" width="2.56" height="2.49"/><rect class="cls-7" x="843.45" y="353.3" width="2.56" height="2.49"/><rect class="cls-7" x="843.45" y="357.17" width="2.56" height="2.49"/><rect class="cls-7" x="843.45" y="361.04" width="2.56" height="2.49"/><rect class="cls-7" x="843.45" y="364.91" width="2.56" height="2.49"/><rect class="cls-7" x="843.45" y="368.78" width="2.56" height="2.49"/><rect class="cls-7" x="843.45" y="372.65" width="2.56" height="2.49"/><rect class="cls-7" x="843.45" y="376.52" width="2.56" height="2.49"/><rect class="cls-7" x="843.45" y="380.39" width="2.56" height="2.49"/><rect class="cls-7" x="843.45" y="384.26" width="2.56" height="2.49"/><rect class="cls-7" x="843.45" y="388.13" width="2.56" height="2.49"/><rect class="cls-7" x="843.45" y="392.33" width="2.56" height="2.49"/><rect class="cls-7" x="843.45" y="396.54" width="2.56" height="2.49"/><rect class="cls-7" x="843.45" y="400.75" width="2.56" height="2.49"/><rect class="cls-5" x="824.8" y="328.46" width="5.3" height="4.8"/><rect class="cls-5" x="817.11" y="328.46" width="5.3" height="4.8"/><rect class="cls-5" x="832.03" y="328.46" width="5.3" height="4.8"/><rect class="cls-19" x="815.52" y="332.51" width="24.47" height="1.5"/><polygon class="cls-19" points="848.59 402 848.59 412 841.77 412 848.59 402"/><polygon class="cls-19" points="814.26 412 806.93 412 806.93 401.03 814.26 412"/><rect class="cls-19" x="840.68" y="350.8" width="1.77" height="61.19"/><rect class="cls-19" x="813.14" y="350.8" width="1.77" height="61.19"/><polygon class="cls-4" points="744.16 350.69 744.16 411.87 702.5 411.87 702.5 350.69 707.55 350.69 707.55 335.63 711.34 335.63 711.34 324.04 735.33 324.04 735.33 335.63 738.48 335.63 738.48 350.69 744.16 350.69"/><rect class="cls-5" x="720.76" y="335.74" width="4.99" height="2.52"/><rect class="cls-5" x="720.76" y="339.74" width="4.99" height="2.52"/><rect class="cls-5" x="720.76" y="343.75" width="4.99" height="2.52"/><rect class="cls-5" x="720.76" y="355.76" width="4.99" height="2.52"/><rect class="cls-5" x="720.76" y="359.77" width="4.99" height="2.52"/><rect class="cls-5" x="720.76" y="363.77" width="4.99" height="2.52"/><rect class="cls-5" x="720.76" y="367.78" width="4.99" height="2.52"/><rect class="cls-5" x="720.76" y="371.78" width="4.99" height="2.52"/><rect class="cls-5" x="720.76" y="375.78" width="4.99" height="2.52"/><rect class="cls-5" x="720.76" y="379.79" width="4.99" height="2.52"/><rect class="cls-5" x="720.76" y="383.79" width="4.99" height="2.52"/><rect class="cls-5" x="720.76" y="387.8" width="4.99" height="2.52"/><rect class="cls-5" x="720.76" y="391.8" width="4.99" height="2.52"/><rect class="cls-5" x="720.76" y="395.81" width="4.99" height="2.52"/><rect class="cls-5" x="720.76" y="399.81" width="4.99" height="2.52"/><rect class="cls-9" x="718.26" y="403.82" width="4.99" height="8.04"/><rect class="cls-9" x="723.25" y="403.82" width="4.99" height="8.04"/><rect class="cls-19" x="728.62" y="335.24" width="10.02" height="15.03"/><rect class="cls-19" x="707.67" y="335.43" width="10.02" height="14.84"/><rect class="cls-5" x="711.22" y="353.18" width="5.06" height="1.2"/><rect class="cls-5" x="711.22" y="355.59" width="5.06" height="1.2"/><rect class="cls-5" x="711.22" y="358" width="5.06" height="1.2"/><rect class="cls-5" x="711.22" y="360.4" width="5.06" height="1.2"/><rect class="cls-5" x="711.22" y="362.81" width="5.06" height="1.2"/><rect class="cls-5" x="711.22" y="365.22" width="5.06" height="1.2"/><rect class="cls-5" x="711.22" y="367.62" width="5.06" height="1.2"/><rect class="cls-5" x="711.22" y="370.03" width="5.06" height="1.2"/><rect class="cls-5" x="711.22" y="372.43" width="5.06" height="1.2"/><rect class="cls-5" x="711.22" y="374.84" width="5.06" height="1.2"/><rect class="cls-5" x="711.22" y="377.25" width="5.06" height="1.2"/><rect class="cls-5" x="711.22" y="379.65" width="5.06" height="1.2"/><rect class="cls-5" x="711.22" y="382.06" width="5.06" height="1.2"/><rect class="cls-5" x="711.22" y="384.47" width="5.06" height="1.2"/><rect class="cls-5" x="711.22" y="386.87" width="5.06" height="1.2"/><rect class="cls-5" x="711.22" y="389.28" width="5.06" height="1.2"/><rect class="cls-5" x="711.22" y="391.69" width="5.06" height="1.2"/><rect class="cls-5" x="711.22" y="394.09" width="5.06" height="1.2"/><rect class="cls-5" x="711.22" y="396.5" width="5.06" height="1.2"/><rect class="cls-5" x="711.22" y="398.91" width="5.06" height="1.2"/><rect class="cls-5" x="711.22" y="401.31" width="5.06" height="1.2"/><rect class="cls-5" x="711.22" y="403.72" width="5.06" height="1.2"/><rect class="cls-5" x="711.22" y="406.12" width="5.06" height="1.2"/><rect class="cls-5" x="730.25" y="352.73" width="5.3" height="1.26"/><rect class="cls-5" x="730.25" y="355.25" width="5.3" height="1.26"/><rect class="cls-5" x="730.25" y="357.76" width="5.3" height="1.26"/><rect class="cls-5" x="730.25" y="360.28" width="5.3" height="1.26"/><rect class="cls-5" x="730.25" y="362.8" width="5.3" height="1.26"/><rect class="cls-5" x="730.25" y="365.31" width="5.3" height="1.26"/><rect class="cls-5" x="730.25" y="367.83" width="5.3" height="1.26"/><rect class="cls-5" x="730.25" y="370.35" width="5.3" height="1.26"/><rect class="cls-5" x="730.25" y="372.87" width="5.3" height="1.26"/><rect class="cls-5" x="730.25" y="375.38" width="5.3" height="1.26"/><rect class="cls-5" x="730.25" y="377.9" width="5.3" height="1.26"/><rect class="cls-5" x="730.25" y="380.42" width="5.3" height="1.26"/><rect class="cls-5" x="730.25" y="382.94" width="5.3" height="1.26"/><rect class="cls-5" x="730.25" y="385.45" width="5.3" height="1.26"/><rect class="cls-5" x="730.25" y="387.97" width="5.3" height="1.26"/><rect class="cls-5" x="730.25" y="390.49" width="5.3" height="1.26"/><rect class="cls-5" x="730.25" y="393.01" width="5.3" height="1.26"/><rect class="cls-5" x="730.25" y="395.52" width="5.3" height="1.26"/><rect class="cls-5" x="730.25" y="398.04" width="5.3" height="1.26"/><rect class="cls-5" x="730.25" y="400.56" width="5.3" height="1.26"/><rect class="cls-5" x="730.25" y="403.08" width="5.3" height="1.26"/><rect class="cls-5" x="730.25" y="405.59" width="5.3" height="1.26"/><rect class="cls-5" x="730.25" y="408.11" width="5.3" height="1.26"/><rect class="cls-5" x="711.1" y="408.11" width="5.3" height="1.26"/><rect class="cls-9" x="711.1" y="338.76" width="5.3" height="8.01"/><rect class="cls-9" x="711.1" y="336.77" width="5.3" height="1.26"/><rect class="cls-9" x="730.25" y="338.76" width="5.3" height="8.01"/><rect class="cls-9" x="730.25" y="336.77" width="5.3" height="1.26"/><rect class="cls-7" x="704.64" y="353.17" width="2.56" height="2.49"/><rect class="cls-7" x="704.64" y="357.04" width="2.56" height="2.49"/><rect class="cls-7" x="704.64" y="360.91" width="2.56" height="2.49"/><rect class="cls-7" x="704.64" y="364.78" width="2.56" height="2.49"/><rect class="cls-7" x="704.64" y="368.65" width="2.56" height="2.49"/><rect class="cls-7" x="704.64" y="372.52" width="2.56" height="2.49"/><rect class="cls-7" x="704.64" y="376.39" width="2.56" height="2.49"/><rect class="cls-7" x="704.64" y="380.26" width="2.56" height="2.49"/><rect class="cls-7" x="704.64" y="384.12" width="2.56" height="2.49"/><rect class="cls-7" x="704.64" y="387.99" width="2.56" height="2.49"/><rect class="cls-7" x="704.64" y="392.2" width="2.56" height="2.49"/><rect class="cls-7" x="704.64" y="396.41" width="2.56" height="2.49"/><rect class="cls-19" x="702.34" y="350.28" width="41.81" height="1.5"/><rect class="cls-7" x="704.64" y="400.62" width="2.56" height="2.49"/><rect class="cls-7" x="739.02" y="353.17" width="2.56" height="2.49"/><rect class="cls-7" x="739.02" y="357.04" width="2.56" height="2.49"/><rect class="cls-7" x="739.02" y="360.91" width="2.56" height="2.49"/><rect class="cls-7" x="739.02" y="364.78" width="2.56" height="2.49"/><rect class="cls-7" x="739.02" y="368.65" width="2.56" height="2.49"/><rect class="cls-7" x="739.02" y="372.52" width="2.56" height="2.49"/><rect class="cls-7" x="739.02" y="376.39" width="2.56" height="2.49"/><rect class="cls-7" x="739.02" y="380.26" width="2.56" height="2.49"/><rect class="cls-7" x="739.02" y="384.12" width="2.56" height="2.49"/><rect class="cls-7" x="739.02" y="387.99" width="2.56" height="2.49"/><rect class="cls-7" x="739.02" y="392.2" width="2.56" height="2.49"/><rect class="cls-7" x="739.02" y="396.41" width="2.56" height="2.49"/><rect class="cls-7" x="739.02" y="400.62" width="2.56" height="2.49"/><rect class="cls-5" x="720.37" y="328.33" width="5.3" height="4.8"/><rect class="cls-5" x="712.68" y="328.33" width="5.3" height="4.8"/><rect class="cls-5" x="727.6" y="328.33" width="5.3" height="4.8"/><rect class="cls-19" x="711.09" y="332.38" width="24.47" height="1.5"/><polygon class="cls-19" points="744.16 401.87 744.16 411.87 737.34 411.87 744.16 401.87"/><polygon class="cls-19" points="709.83 411.87 702.5 411.87 702.5 400.89 709.83 411.87"/><rect class="cls-19" x="736.25" y="350.67" width="1.77" height="61.19"/><rect class="cls-19" x="708.71" y="350.67" width="1.77" height="61.19"/><rect class="cls-8" x="875.63" y="310.35" width="22.48" height="101.46"/><rect class="cls-8" x="873.14" y="318.33" width="27.54" height="93.48"/><path class="cls-8" d="M898.31,330.21H876.06c3.09-8.61,5.79-17.34,4.07-27.35H894C892.59,311.19,894.8,320.52,898.31,330.21Z"/><polygon class="cls-9" points="890.18 328.17 883.71 328.17 880.71 333.7 880.71 411.69 893.43 411.69 893.43 333.7 890.18 328.17"/><rect class="cls-4" x="873.14" y="318.33" width="27.54" height="2.63"/><rect class="cls-4" x="875.63" y="310.35" width="23.1" height="2.63"/><rect x="893.89" y="345.1" width="6.36" height="1.98"/><rect x="893.89" y="351.71" width="6.36" height="1.98"/><rect x="886.04" y="285.56" width="1.66" height="24.78"/><rect x="893.89" y="358.32" width="6.36" height="1.98"/><rect x="893.89" y="364.92" width="6.36" height="1.98"/><rect x="893.89" y="371.53" width="6.36" height="1.98"/><rect x="893.89" y="378.14" width="6.36" height="1.98"/><rect x="893.89" y="384.74" width="6.36" height="1.98"/><rect x="893.89" y="391.35" width="6.36" height="1.98"/><rect x="893.89" y="397.96" width="6.36" height="1.98"/><rect x="893.89" y="404.56" width="6.36" height="1.98"/><rect x="873.49" y="345.1" width="6.36" height="1.98"/><rect x="873.49" y="351.71" width="6.36" height="1.98"/><rect x="873.49" y="358.32" width="6.36" height="1.98"/><rect x="873.49" y="364.92" width="6.36" height="1.98"/><rect x="873.49" y="371.53" width="6.36" height="1.98"/><rect x="873.49" y="378.14" width="6.36" height="1.98"/><rect x="873.49" y="384.74" width="6.36" height="1.98"/><rect x="873.49" y="391.35" width="6.36" height="1.98"/><rect x="873.49" y="397.96" width="6.36" height="1.98"/><rect x="873.49" y="404.56" width="6.36" height="1.98"/><rect class="cls-10" x="884" y="345.24" width="6.36" height="1.98"/><rect class="cls-10" x="884" y="351.85" width="6.36" height="1.98"/><rect class="cls-10" x="884" y="358.46" width="6.36" height="1.98"/><rect class="cls-10" x="884" y="365.06" width="6.36" height="1.98"/><rect class="cls-10" x="884" y="371.67" width="6.36" height="1.98"/><rect class="cls-10" x="884" y="378.28" width="6.36" height="1.98"/><rect class="cls-10" x="884" y="384.88" width="6.36" height="1.98"/><rect class="cls-10" x="884" y="391.49" width="6.36" height="1.98"/><rect class="cls-10" x="884" y="398.09" width="6.36" height="1.98"/><rect class="cls-10" x="884" y="404.7" width="6.36" height="1.98"/><rect class="cls-10" x="884" y="333.97" width="6.36" height="9.17"/><rect x="878.26" y="314.16" width="3.32" height="3.32"/><rect x="882.97" y="314.16" width="3.32" height="3.32"/><rect x="887.7" y="314.16" width="3.32" height="3.32"/><rect x="892.29" y="314.16" width="3.32" height="3.32"/><polygon points="865.55 363.28 853.56 363.28 859.55 358.2 859.68 358.31 865.55 363.28"/><rect x="853.56" y="363.14" width="11.99" height="7.15"/><polygon class="cls-5" points="865.55 363.28 859.71 363.28 859.71 358.26 859.68 358.26 865.55 363.28"/><rect class="cls-5" x="849.91" y="367.39" width="19.45" height="13.11"/><rect class="cls-5" x="848.71" y="380.57" width="22.71" height="31.24"/><rect class="cls-9" x="850.28" y="369.23" width="4.48" height="1.1"/><rect class="cls-4" x="858.99" y="369.23" width="9.6" height="1.1"/><rect class="cls-9" x="856.09" y="369.23" width="1.92" height="1.1"/><rect class="cls-9" x="850.28" y="372.02" width="4.48" height="1.1"/><rect class="cls-4" x="858.99" y="372.02" width="9.6" height="1.1"/><rect class="cls-9" x="856.09" y="372.02" width="1.92" height="1.1"/><rect class="cls-9" x="850.28" y="374.82" width="4.48" height="1.1"/><rect class="cls-4" x="858.99" y="374.82" width="9.6" height="1.1"/><rect class="cls-9" x="856.09" y="374.82" width="1.92" height="1.1"/><rect class="cls-9" x="850.28" y="377.62" width="4.48" height="1.1"/><rect class="cls-4" x="858.99" y="377.62" width="9.6" height="1.1"/><rect class="cls-9" x="856.09" y="377.62" width="1.92" height="1.1"/><rect class="cls-4" x="850.28" y="382.57" width="3.55" height="1.19"/><rect class="cls-4" x="850.28" y="385.2" width="3.55" height="1.19"/><rect class="cls-4" x="850.28" y="387.83" width="3.55" height="1.19"/><rect class="cls-4" x="850.28" y="390.47" width="3.55" height="1.19"/><rect class="cls-4" x="850.28" y="393.1" width="3.55" height="1.19"/><rect class="cls-4" x="850.28" y="395.73" width="3.55" height="1.19"/><rect class="cls-4" x="850.28" y="398.36" width="3.55" height="1.19"/><rect class="cls-4" x="850.28" y="401" width="3.55" height="1.19"/><rect class="cls-4" x="850.28" y="403.63" width="3.55" height="1.19"/><rect class="cls-4" x="850.28" y="406.26" width="3.55" height="1.19"/><rect class="cls-4" x="855.26" y="380.51" width="0.48" height="31.3"/><rect class="cls-4" x="858.09" y="382.41" width="6.87" height="1.07"/><rect class="cls-4" x="858.09" y="385.26" width="6.87" height="1.07"/><rect class="cls-4" x="858.09" y="388.11" width="6.87" height="1.07"/><rect class="cls-4" x="858.09" y="390.96" width="6.87" height="1.07"/><rect class="cls-4" x="858.09" y="393.81" width="6.87" height="1.07"/><rect class="cls-4" x="858.09" y="396.44" width="6.87" height="1.07"/><rect class="cls-4" x="858.09" y="399.06" width="6.87" height="1.07"/><rect class="cls-4" x="858.09" y="401.69" width="6.87" height="1.07"/><rect class="cls-4" x="858.09" y="404.32" width="6.87" height="1.07"/><rect class="cls-4" x="858.09" y="406.95" width="6.87" height="1.07"/><rect class="cls-9" x="866.12" y="382.23" width="1.68" height="0.94"/><rect class="cls-9" x="866.12" y="384.61" width="1.68" height="0.94"/><rect class="cls-9" x="866.12" y="386.99" width="1.68" height="0.94"/><rect class="cls-9" x="866.12" y="389.37" width="1.68" height="0.94"/><rect class="cls-9" x="866.12" y="391.75" width="1.68" height="0.94"/><rect class="cls-9" x="866.12" y="394.13" width="1.68" height="0.94"/><rect class="cls-9" x="866.12" y="396.51" width="1.68" height="0.94"/><rect class="cls-9" x="866.12" y="398.89" width="1.68" height="0.94"/><rect class="cls-9" x="866.12" y="401.27" width="1.68" height="0.94"/><rect class="cls-9" x="866.12" y="403.65" width="1.68" height="0.94"/><rect class="cls-9" x="868.52" y="382.22" width="1.68" height="0.94"/><rect class="cls-9" x="868.52" y="384.6" width="1.68" height="0.94"/><rect class="cls-9" x="868.52" y="386.98" width="1.68" height="0.94"/><rect class="cls-9" x="868.52" y="389.36" width="1.68" height="0.94"/><rect class="cls-9" x="868.52" y="391.74" width="1.68" height="0.94"/><rect class="cls-9" x="868.52" y="394.12" width="1.68" height="0.94"/><rect class="cls-9" x="868.52" y="396.5" width="1.68" height="0.94"/><rect class="cls-9" x="868.52" y="398.88" width="1.68" height="0.94"/><rect class="cls-9" x="868.52" y="401.26" width="1.68" height="0.94"/><rect class="cls-9" x="868.52" y="403.65" width="1.68" height="0.94"/><rect class="cls-9" x="866.12" y="406.02" width="1.68" height="0.94"/><rect class="cls-9" x="868.52" y="406.02" width="1.68" height="0.94"/><rect class="cls-9" x="866.12" y="408.39" width="1.68" height="0.94"/><rect class="cls-9" x="868.52" y="408.39" width="1.68" height="0.94"/><polygon points="925.71 341.06 908.21 341.06 916.96 333.64 917.14 333.8 925.71 341.06"/><rect x="908.21" y="340.85" width="17.51" height="10.43"/><polygon class="cls-5" points="925.71 341.06 917.19 341.06 917.19 333.73 917.14 333.73 925.71 341.06"/><rect class="cls-5" x="902.88" y="347.06" width="28.39" height="19.14"/><rect class="cls-5" x="901.13" y="366.3" width="33.15" height="45.6"/><rect class="cls-9" x="903.43" y="349.74" width="6.53" height="1.61"/><rect class="cls-4" x="916.14" y="349.74" width="14.02" height="1.61"/><rect class="cls-9" x="911.91" y="349.74" width="2.8" height="1.61"/><rect class="cls-9" x="903.43" y="353.82" width="6.53" height="1.61"/><rect class="cls-4" x="916.14" y="353.82" width="14.02" height="1.61"/><rect class="cls-9" x="911.91" y="353.82" width="2.8" height="1.61"/><rect class="cls-9" x="903.43" y="357.91" width="6.53" height="1.61"/><rect class="cls-4" x="916.14" y="357.91" width="14.02" height="1.61"/><rect class="cls-9" x="911.91" y="357.91" width="2.8" height="1.61"/><rect class="cls-9" x="903.43" y="361.99" width="6.53" height="1.61"/><rect class="cls-4" x="916.14" y="361.99" width="14.02" height="1.61"/><rect class="cls-9" x="911.91" y="361.99" width="2.8" height="1.61"/><rect class="cls-4" x="903.43" y="369.21" width="5.18" height="1.74"/><rect class="cls-4" x="903.43" y="373.06" width="5.18" height="1.74"/><rect class="cls-4" x="903.43" y="376.9" width="5.18" height="1.74"/><rect class="cls-4" x="903.43" y="380.74" width="5.18" height="1.74"/><rect class="cls-4" x="903.43" y="384.59" width="5.18" height="1.74"/><rect class="cls-4" x="903.43" y="388.43" width="5.18" height="1.74"/><rect class="cls-4" x="903.43" y="392.27" width="5.18" height="1.74"/><rect class="cls-4" x="903.43" y="396.12" width="5.18" height="1.74"/><rect class="cls-4" x="903.43" y="399.96" width="5.18" height="1.74"/><rect class="cls-4" x="903.43" y="403.8" width="5.18" height="1.74"/><rect class="cls-4" x="910.7" y="366.2" width="0.7" height="45.7"/><rect class="cls-4" x="914.83" y="368.99" width="10.03" height="1.56"/><rect class="cls-4" x="914.83" y="373.15" width="10.03" height="1.56"/><rect class="cls-4" x="914.83" y="377.31" width="10.03" height="1.56"/><rect class="cls-4" x="914.83" y="381.47" width="10.03" height="1.56"/><rect class="cls-4" x="914.83" y="385.62" width="10.03" height="1.56"/><rect class="cls-4" x="914.83" y="389.46" width="10.03" height="1.56"/><rect class="cls-4" x="914.83" y="393.29" width="10.03" height="1.56"/><rect class="cls-4" x="914.83" y="397.13" width="10.03" height="1.56"/><rect class="cls-4" x="914.83" y="400.97" width="10.03" height="1.56"/><rect class="cls-4" x="914.83" y="404.8" width="10.03" height="1.56"/><rect class="cls-9" x="926.55" y="368.71" width="2.45" height="1.37"/><rect class="cls-9" x="926.55" y="372.19" width="2.45" height="1.37"/><rect class="cls-9" x="926.55" y="375.67" width="2.45" height="1.37"/><rect class="cls-9" x="926.55" y="379.14" width="2.45" height="1.37"/><rect class="cls-9" x="926.55" y="382.62" width="2.45" height="1.37"/><rect class="cls-9" x="926.55" y="386.09" width="2.45" height="1.37"/><rect class="cls-9" x="926.55" y="389.57" width="2.45" height="1.37"/><rect class="cls-9" x="926.55" y="393.04" width="2.45" height="1.37"/><rect class="cls-9" x="926.55" y="396.52" width="2.45" height="1.37"/><rect class="cls-9" x="926.55" y="400" width="2.45" height="1.37"/><rect class="cls-9" x="930.05" y="368.7" width="2.45" height="1.37"/><rect class="cls-9" x="930.05" y="372.18" width="2.45" height="1.37"/><rect class="cls-9" x="930.05" y="375.65" width="2.45" height="1.37"/><rect class="cls-9" x="930.05" y="379.13" width="2.45" height="1.37"/><rect class="cls-9" x="930.05" y="382.61" width="2.45" height="1.37"/><rect class="cls-9" x="930.05" y="386.08" width="2.45" height="1.37"/><rect class="cls-9" x="930.05" y="389.56" width="2.45" height="1.37"/><rect class="cls-9" x="930.05" y="393.03" width="2.45" height="1.37"/><rect class="cls-9" x="930.05" y="396.51" width="2.45" height="1.37"/><rect class="cls-9" x="930.05" y="399.98" width="2.45" height="1.37"/><rect class="cls-9" x="926.55" y="403.46" width="2.45" height="1.37"/><rect class="cls-9" x="930.05" y="403.44" width="2.45" height="1.37"/><rect class="cls-9" x="926.55" y="406.92" width="2.45" height="1.37"/><rect class="cls-9" x="930.05" y="406.9" width="2.45" height="1.37"/><polygon class="cls-2" points="774.68 380.65 774.68 394.21 755.54 394.21 755.54 411.91 774.68 411.91 781.46 411.91 805.44 411.91 805.44 380.65 774.68 380.65"/><polygon class="cls-19" points="774.68 380.65 789.98 367.32 805.44 380.65 774.68 380.65"/><rect class="cls-19" x="774.68" y="380.65" width="1.9" height="31.47"/><rect class="cls-19" x="803.54" y="380.65" width="1.9" height="31.47"/><rect class="cls-5" x="777.66" y="382.99" width="9.51" height="1.17"/><rect class="cls-5" x="777.66" y="385.78" width="9.51" height="1.17"/><rect class="cls-5" x="777.66" y="388.58" width="9.51" height="1.17"/><rect class="cls-5" x="777.66" y="391.37" width="9.51" height="1.17"/><rect class="cls-5" x="777.66" y="394.16" width="9.51" height="1.17"/><rect class="cls-5" x="923.35" y="406.22" width="9.51" height="1.17"/><rect class="cls-5" x="763.41" y="396.14" width="9.51" height="1.17"/><rect class="cls-19" x="755.54" y="393.44" width="19.14" height="1.17"/><rect class="cls-5" x="792.62" y="382.93" width="9.51" height="1.17"/><rect class="cls-5" x="792.62" y="385.73" width="9.51" height="1.17"/><rect class="cls-5" x="792.62" y="388.52" width="9.51" height="1.17"/><rect class="cls-5" x="792.62" y="391.31" width="9.51" height="1.17"/><rect class="cls-5" x="792.62" y="394.15" width="9.51" height="1.17"/><path class="cls-2" d="M1232.88,411.77l-11.49-.07-39.76-.23L1105.2,411l-41.14-.23-13.1-.07-18.52-.11c-12.91.19-37.12-14.89-29.66-25.43l24.13-21.1,24.68-21.58,2.26-2,5-4.35,1.24-1.09,5-10.71,3.25-7,5.54-12c7.35-7.91,14.28-4.45,22.23,3.29,2.67,2.6,5.45,5.67,8.4,9,11.93,13.29,26.63,30.06,47.7,32.64L1177,375.8l.22.22,25.63,10.69.11,0,10.6,4.42C1224.78,400.62,1245.8,411.58,1232.88,411.77Z"/><path class="cls-5" d="M1099.14,352.39v-.84h-14.71v.84h1.94l1.86,5.11h-4.1v.84h6.48v29.1h1.75v-29.1h6.48v-.84H1095l2.65-5.11ZM1094,357.5h-4.76l-1.86-5.11h9.27Z"/><path class="cls-2" d="M1103.56,409.32c-11.61.5-25.48.91-40.15,1.23-15.63.34-32.16.6-47.81.78-15.13.18-29.43.3-41.31.37-19,.12-38,.14-38,.14-2.4-17.11,16.89-84,16.89-84l14.57-12.09,37.88-31.44.18-.15c8.07,4.58,10.53,10.27,13.6,17.37,2.87,6.63,6.28,14.5,15.27,23.87l23,18.51,25.51,20.57,52.72,41.18C1136.88,407.28,1123.6,408.45,1103.56,409.32Z"/><polygon class="cls-4" points="1079.17 359.63 1058.43 336.26 1059.68 335.18 1064.64 324.46 1067.89 317.45 1079.17 359.63"/><path class="cls-4" d="M1104.83,411.12l-41.14-.23-.28-.33c-4.34-5.27-21.14-25.79-36.84-46.31l-.05-.07c-15-19.69-10.82-47.86-7.15-62.59,2.87,6.63,6.28,14.5,15.27,23.87l18.81,15.17,4.14,3.34,46,65.36Z"/><path class="cls-4" d="M1015.6,411.33c-15.13.18-29.43.3-41.31.37l-.82-.59c-25.92-19.55-20.33-83.23-20.33-83.23l12,11.87s9.67,16.67,22.65,9.92C984.72,360.76,1012.32,406,1015.6,411.33Z"/><path class="cls-2" d="M1032.06,410.7h15.52l-32-46.52s11.54,23.51,6.23,27.23S1032.06,410.7,1032.06,410.7Z"/><path class="cls-4" d="M1005.6,284.36l-13.77,25s-11.21,7.08-24.11,6.43Z"/><path class="cls-4" d="M1149.39,387.44c-13.57-25.41-62-34.52-53.74-78.66,2.67,2.6,5.45,5.67,8.4,9,11.93,13.29,26.63,30.06,47.7,32.64C1151.76,350.39,1153.77,382.87,1149.39,387.44Z"/><path class="cls-4" d="M1221,411.78l-39.76-.23c-7.3-9.88-5.68-28.14-4.62-35.68l25.85,10.91.11,0C1208.51,394.27,1216.75,405.25,1221,411.78Z"/><path class="cls-5" d="M1063.24,375.65v-.84h-14.71v.84h1.94l1.86,5.11h-4.1v.84h6.48v29.1h1.75V381.6h6.48v-.84h-3.88l2.65-5.11Zm-5.19,5.11h-4.76l-1.86-5.11h9.27Z"/><path class="cls-5" d="M1131,376.72v-.84h-14.71v.84h1.94l1.86,5.11H1116v.84h6.48v29.1h1.75v-29.1h6.48v-.84h-3.88l2.65-5.11Zm-5.19,5.11H1121l-1.86-5.11h9.27Z"/><path class="cls-5" d="M1025.06,355.18v-.72h-12.57v.72h1.66l1.59,4.37h-3.51v.72h5.54v24.87h1.5V360.26h5.54v-.72h-3.32l2.27-4.37Zm-4.44,4.37h-4.07l-1.59-4.37h7.92Z"/><path class="cls-5" d="M998.06,318.25v-.4H987.12v.4h1.45l1.38,2.43H986.9v.4h4.82v13.86H993V321.09h4.82v-.4H995l2-2.43Zm-3.86,2.43h-3.54l-1.38-2.43h6.9Z"/><path class="cls-20" d="M987.69,317.85s-.07,51.06,24.8,37.33"/><path class="cls-20" d="M997.36,318.15s-8,35.39,27.71,37"/><path class="cls-20" d="M1014.15,355.18s13,39.05,36.33,20.47"/><path class="cls-20" d="M1023.76,355.18s6.47,31.65,38.79,19.63"/><path class="cls-10" d="M1046.17,383.7a1.42,1.42,0,0,1-.08.49,1.44,1.44,0,0,1-.34.54l-.07.07a1.45,1.45,0,0,1-1,.36h-3.21a1.43,1.43,0,0,1-.34,0h0a1.45,1.45,0,0,1-.84-2.2,1.42,1.42,0,0,1,.19-.23,1.45,1.45,0,0,1,1-.42h3.21a1.45,1.45,0,0,1,1.45,1.45Z"/><path class="cls-21" d="M1046.08,384.19c0,.13,0,.26,0,.39l-.43.42-.11.11-1.51,1.45-.65.62h-.67l-.6-.62-1.19-1.24.21-.2h0l3-2.85h.58a1.44,1.44,0,0,1,.68.17c-.05-.34-.11-.68-.18-1l.57.59c.05.29.1.59.14.9a1.44,1.44,0,0,1,.15,1.27Z"/><path class="cls-5" d="M1046.17,385.28h-.47v-.49c-.06-.82-.15-1.62-.27-2.37-.05-.34-.11-.68-.18-1-.48-2.43-1.25-4.19-2.11-4.19s-1.83,2.25-2.29,5.19c-.12.75-.21,1.56-.27,2.38l0,.31v.18h-.47v-.18q0-.46.07-.9.06-.67.15-1.29c.51-3.66,1.58-6.19,2.82-6.19s2.13,2.12,2.68,5.29c.05.29.1.59.14.9s.11.84.15,1.27c0,.13,0,.26,0,.39s0,.35,0,.53v.18Z"/><rect class="cls-10" x="1040.06" y="385.1" width="6.11" height="1.45"/><rect class="cls-5" x="1040.06" y="386.55" width="6.11" height="0.62"/><rect class="cls-5" x="1040.07" y="387.51" width="6.17" height="0.31"/><path class="cls-10" d="M1098.88,377.57a1.69,1.69,0,0,1-.1.58,1.71,1.71,0,0,1-.4.64l-.09.08a1.71,1.71,0,0,1-1.13.42h-3.81a1.7,1.7,0,0,1-.4,0h0a1.72,1.72,0,0,1-1-2.6,1.69,1.69,0,0,1,.22-.27,1.73,1.73,0,0,1,1.22-.5h3.81a1.72,1.72,0,0,1,1.72,1.72Z"/><path class="cls-21" d="M1098.78,378.15c0,.15,0,.3,0,.46l-.51.49-.14.13-1.79,1.72-.77.74h-.8l-.71-.74-1.41-1.47.25-.24h0l3.51-3.38h.69a1.7,1.7,0,0,1,.81.2c-.06-.41-.13-.81-.21-1.19l.68.7c.06.35.12.7.17,1.07a1.71,1.71,0,0,1,.18,1.51Z"/><path class="cls-5" d="M1098.89,379.44h-.55v-.34l0-.24c-.07-1-.18-1.92-.32-2.81-.06-.41-.13-.81-.21-1.19-.57-2.89-1.48-5-2.5-5s-2.17,2.67-2.71,6.15c-.14.9-.25,1.84-.32,2.82q0,.18,0,.36v.21h-.55v-.21q0-.54.09-1.07.07-.79.18-1.53c.6-4.34,1.87-7.33,3.34-7.33s2.53,2.51,3.18,6.28c.06.35.12.7.17,1.07s.13,1,.18,1.51c0,.15,0,.3,0,.46s0,.41,0,.62v.21Z"/><rect class="cls-10" x="1091.64" y="379.23" width="7.24" height="1.72"/><rect class="cls-5" x="1091.64" y="380.95" width="7.24" height="0.74"/><rect class="cls-5" x="1091.65" y="382.09" width="7.32" height="0.37"/><path class="cls-10" d="M1116.39,383.79a1.69,1.69,0,0,1-.1.58,1.71,1.71,0,0,1-.4.64l-.09.08a1.71,1.71,0,0,1-1.13.42h-3.81a1.7,1.7,0,0,1-.4,0h0a1.72,1.72,0,0,1-1-2.6,1.69,1.69,0,0,1,.22-.27,1.73,1.73,0,0,1,1.22-.5h3.81a1.72,1.72,0,0,1,1.72,1.72Z"/><path class="cls-21" d="M1116.29,384.36c0,.15,0,.3,0,.46l-.51.49-.14.13-1.79,1.72-.77.74h-.8l-.71-.74-1.41-1.47.25-.24h0l3.51-3.38h.69a1.7,1.7,0,0,1,.81.2c-.06-.41-.13-.81-.21-1.19l.68.7c.06.35.12.7.17,1.07a1.71,1.71,0,0,1,.18,1.51Z"/><path class="cls-5" d="M1116.4,385.65h-.55v-.34l0-.24c-.07-1-.18-1.92-.32-2.81-.06-.41-.13-.81-.21-1.19-.57-2.89-1.48-5-2.5-5s-2.17,2.67-2.71,6.15c-.14.9-.25,1.84-.32,2.82q0,.18,0,.36v.21h-.55v-.21q0-.54.09-1.07.07-.79.18-1.53c.6-4.34,1.87-7.33,3.34-7.33s2.53,2.51,3.18,6.28c.06.35.12.7.17,1.07s.13,1,.18,1.51c0,.15,0,.3,0,.46s0,.41,0,.62v.21Z"/><rect class="cls-10" x="1109.15" y="385.45" width="7.24" height="1.72"/><rect class="cls-5" x="1109.15" y="387.16" width="7.24" height="0.74"/><rect class="cls-5" x="1109.16" y="388.3" width="7.32" height="0.37"/><path class="cls-10" d="M1033.36,376.24a1.42,1.42,0,0,1-.08.49,1.44,1.44,0,0,1-.34.54l-.07.07a1.45,1.45,0,0,1-1,.36h-3.21a1.43,1.43,0,0,1-.34,0h0a1.45,1.45,0,0,1-.84-2.2,1.42,1.42,0,0,1,.19-.23,1.45,1.45,0,0,1,1-.42h3.21a1.45,1.45,0,0,1,1.45,1.45Z"/><path class="cls-21" d="M1033.27,376.72c0,.13,0,.26,0,.39l-.43.42-.11.11-1.51,1.45-.65.62h-.67l-.6-.62-1.19-1.24.21-.2h0l3-2.85h.58a1.44,1.44,0,0,1,.68.17c-.05-.34-.11-.68-.18-1l.57.59c.05.29.1.59.14.9a1.44,1.44,0,0,1,.15,1.27Z"/><path class="cls-5" d="M1033.36,377.81h-.47v-.49c-.06-.82-.15-1.62-.27-2.37-.05-.34-.11-.68-.18-1-.48-2.43-1.25-4.19-2.11-4.19S1028.48,372,1028,375c-.12.75-.21,1.56-.27,2.38l0,.31v.18h-.47v-.18q0-.46.07-.9.06-.67.15-1.29c.51-3.66,1.58-6.19,2.82-6.19s2.13,2.12,2.68,5.29c.05.29.1.59.14.9s.11.84.15,1.27c0,.13,0,.26,0,.39s0,.35,0,.53v.18Z"/><rect class="cls-10" x="1027.25" y="377.64" width="6.11" height="1.45"/><rect class="cls-5" x="1027.25" y="379.08" width="6.11" height="0.62"/><rect class="cls-5" x="1027.25" y="380.04" width="6.17" height="0.31"/><path class="cls-10" d="M1009.74,356.37a1.42,1.42,0,0,1-.08.49,1.44,1.44,0,0,1-.34.54l-.07.07a1.45,1.45,0,0,1-1,.36h-3.21a1.43,1.43,0,0,1-.34,0h0a1.45,1.45,0,0,1-.84-2.2,1.42,1.42,0,0,1,.19-.23,1.45,1.45,0,0,1,1-.42h3.21a1.45,1.45,0,0,1,1.45,1.45Z"/><path class="cls-21" d="M1009.66,356.86c0,.13,0,.26,0,.39l-.43.42-.11.11-1.51,1.45-.65.62h-.67l-.6-.62-1.19-1.24.21-.2h0l3-2.85h.58a1.44,1.44,0,0,1,.68.17c-.05-.34-.11-.68-.18-1l.57.59c.05.29.1.59.14.9a1.44,1.44,0,0,1,.15,1.27Z"/><path class="cls-5" d="M1009.75,358h-.47v-.49c-.06-.82-.15-1.62-.27-2.37-.05-.34-.11-.68-.18-1-.48-2.43-1.25-4.19-2.11-4.19s-1.83,2.25-2.29,5.19c-.12.75-.21,1.56-.27,2.38l0,.31V358h-.47v-.18q0-.46.07-.9.06-.67.15-1.29c.51-3.66,1.58-6.19,2.82-6.19s2.13,2.12,2.68,5.29c.05.29.1.59.14.9s.11.84.15,1.27c0,.13,0,.26,0,.39s0,.35,0,.53V358Z"/><rect class="cls-10" x="1003.63" y="357.77" width="6.11" height="1.45"/><rect class="cls-5" x="1003.63" y="359.22" width="6.11" height="0.62"/><rect class="cls-5" x="1003.64" y="360.18" width="6.17" height="0.31"/><path class="cls-10" d="M1001.08,343.65a1.42,1.42,0,0,1-.08.49,1.44,1.44,0,0,1-.34.54l-.07.07a1.45,1.45,0,0,1-1,.36h-3.21a1.43,1.43,0,0,1-.34,0h0a1.45,1.45,0,0,1-.84-2.2,1.42,1.42,0,0,1,.19-.23,1.45,1.45,0,0,1,1-.42h3.21a1.45,1.45,0,0,1,1.45,1.45Z"/><path class="cls-21" d="M1001,344.13c0,.13,0,.26,0,.39l-.43.42-.11.11L999,346.5l-.65.62h-.67l-.6-.62-1.19-1.24.21-.2h0l3-2.85h.58a1.44,1.44,0,0,1,.68.17c-.05-.34-.11-.68-.18-1l.57.59c.05.29.1.59.14.9a1.44,1.44,0,0,1,.15,1.27Z"/><path class="cls-5" d="M1001.08,345.22h-.47v-.49c-.06-.82-.15-1.62-.27-2.37-.05-.34-.11-.68-.18-1-.48-2.43-1.25-4.19-2.11-4.19s-1.83,2.25-2.29,5.19c-.12.75-.21,1.56-.27,2.38l0,.31v.18H995V345q0-.46.07-.9.06-.67.15-1.29c.51-3.66,1.58-6.19,2.82-6.19s2.13,2.12,2.68,5.29c.05.29.1.59.14.9s.11.84.15,1.27c0,.13,0,.26,0,.39s0,.35,0,.53v.18Z"/><rect class="cls-10" x="994.97" y="345.05" width="6.11" height="1.45"/><rect class="cls-5" x="994.97" y="346.5" width="6.11" height="0.62"/><rect class="cls-5" x="994.98" y="347.45" width="6.17" height="0.31"/><path class="cls-20" d="M1098.45,351.54s8.58,40.32,31.82,24.33"/><path class="cls-20" d="M1084.44,351.54s21,50.76,32,24.8"/><rect class="cls-19" x="755.54" y="393.31" width="1.46" height="17.74"/><path class="cls-5" d="M824.9,225.78l.36.22s0,.43,0,1h-.6Z"/><path class="cls-5" d="M825.94,227h-.65c0-.71,0-1.23,0-1.23l.37-.21Z"/><path class="cls-22" d="M831,175.41a11.05,11.05,0,0,0-2.06-1.18.74.74,0,0,0-.61-.07.76.76,0,0,0-.31.62,101,101,0,0,0-.55,14.82A336.16,336.16,0,0,1,825.24,227"/><circle class="cls-9" cx="1168.64" cy="489.69" r="14.4"/><path class="cls-23" d="M877,163.9a2.63,2.63,0,0,1-2.63,2.62h-41a2.62,2.62,0,0,1-2.62-2.62l0-.53H877A3.07,3.07,0,0,1,877,163.9Z"/><polygon class="cls-24" points="872.8 177.04 871.22 182.82 837.58 182.82 836 177.04 872.8 177.04"/><polygon class="cls-25" points="873.51 198.06 871.93 203.84 838.29 203.84 836.71 198.06 873.51 198.06"/><polygon class="cls-2" points="860.51 126.58 844.41 126.58 847.32 112.91 859.25 112.91 861.96 126.58 860.51 126.58"/><line class="cls-26" x1="469.12" y1="458.18" x2="988.92" y2="459.45"/></g></g></svg>