<svg xmlns="http://www.w3.org/2000/svg" xmlns:xlink="http://www.w3.org/1999/xlink" viewBox="0 0 1280 600"><defs><style>.cls-1{isolation:isolate;}.cls-2{fill:#ffd800;}.cls-3{fill:#305944;}.cls-4{fill:#f3f3f3;}.cls-5{fill:#b2edcf;}.cls-6{fill:#4d4d4d;}.cls-7{fill:#f66;}.cls-8{fill:#e1cd8c;}.cls-9{fill:#646464;}.cls-10{fill:#232323;}.cls-11,.cls-13,.cls-14,.cls-15,.cls-16,.cls-17,.cls-20,.cls-23,.cls-25,.cls-26,.cls-27,.cls-28,.cls-30{mix-blend-mode:multiply;}.cls-11{fill:url(#linear-gradient);}.cls-12{fill:#c59e21;}.cls-13{fill:url(#linear-gradient-2);}.cls-14{fill:url(#linear-gradient-3);}.cls-15{fill:url(#linear-gradient-4);}.cls-16{fill:url(#linear-gradient-5);}.cls-17{fill:url(#linear-gradient-6);}.cls-18{fill:#ff5c5c;}.cls-19{fill:#ff8080;}.cls-20{fill:url(#linear-gradient-7);}.cls-21{fill:#1a1a1a;}.cls-22{fill:#c19710;}.cls-23{fill:url(#linear-gradient-8);}.cls-24{fill:#f2f2f2;}.cls-25{fill:url(#linear-gradient-9);}.cls-26{fill:url(#linear-gradient-10);}.cls-27{fill:url(#linear-gradient-11);}.cls-28{fill:url(#linear-gradient-12);}.cls-29{fill:#252525;}.cls-30{fill:#484848;}.cls-31{fill:#17ea92;}.cls-32,.cls-33{fill:none;stroke:#fff;stroke-miterlimit:10;}.cls-33{stroke-dasharray:22.95 22.95;}.cls-34{fill:#f8f8f8;}.cls-35{fill:#b9e3ff;}</style><linearGradient id="linear-gradient" x1="163.05" y1="281.02" x2="163.05" y2="273.02" gradientUnits="userSpaceOnUse"><stop offset="0" stop-color="#fff"/><stop offset="1" stop-color="#4d4d4d" stop-opacity="0.4"/></linearGradient><linearGradient id="linear-gradient-2" x1="182.26" y1="344.68" x2="182.26" y2="341.49" xlink:href="#linear-gradient"/><linearGradient id="linear-gradient-3" x1="241.05" y1="310.02" x2="241.05" y2="303.02" xlink:href="#linear-gradient"/><linearGradient id="linear-gradient-4" x1="236.55" y1="250.02" x2="236.55" y2="241.02" xlink:href="#linear-gradient"/><linearGradient id="linear-gradient-5" x1="198.55" y1="175.48" x2="198.55" y2="166.35" xlink:href="#linear-gradient"/><linearGradient id="linear-gradient-6" x1="533.05" y1="204.02" x2="533.05" y2="200.02" xlink:href="#linear-gradient"/><linearGradient id="linear-gradient-7" x1="841.36" y1="427.58" x2="841.36" y2="410.41" gradientUnits="userSpaceOnUse"><stop offset="0" stop-color="#09f"/><stop offset="1" stop-color="#dac272" stop-opacity="0.2"/></linearGradient><linearGradient id="linear-gradient-8" x1="841.36" y1="349.19" x2="841.36" y2="340.49" gradientUnits="userSpaceOnUse"><stop offset="0" stop-color="#fff"/><stop offset="1" stop-color="#1aa3ff"/></linearGradient><linearGradient id="linear-gradient-9" x1="841.36" y1="387.21" x2="841.36" y2="378.51" xlink:href="#linear-gradient-8"/><linearGradient id="linear-gradient-10" x1="778.24" y1="427.58" x2="778.24" y2="410.41" xlink:href="#linear-gradient-7"/><linearGradient id="linear-gradient-11" x1="778.24" y1="349.19" x2="778.24" y2="340.49" xlink:href="#linear-gradient-8"/><linearGradient id="linear-gradient-12" x1="778.24" y1="387.21" x2="778.24" y2="378.51" xlink:href="#linear-gradient-8"/></defs><title>StpetersburgColour</title><g class="cls-1"><g id="Layer_1" data-name="Layer 1"><rect class="cls-2" x="1099.26" y="421.99" width="4.04" height="15.71"/><polygon class="cls-3" points="1114.18 425.8 1088.38 425.8 1089.17 421.8 1099.47 421.8 1099.47 419.8 1089.57 419.8 1090.18 416.8 1096.47 416.8 1096.47 414.8 1090.58 414.8 1101.28 362.03 1114.18 425.8"/><ellipse class="cls-4" cx="1099.14" cy="384.72" rx="9.94" ry="5.46" transform="translate(251.77 1183.53) rotate(-62.6)"/><ellipse class="cls-4" cx="1097.47" cy="398.52" rx="7.34" ry="10.51"/><ellipse class="cls-4" cx="1106.69" cy="408.45" rx="7.34" ry="10.51"/><ellipse class="cls-4" cx="1105.98" cy="392.13" rx="7.34" ry="10.51" transform="translate(-65.5 459.85) rotate(-22.83)"/><rect class="cls-2" x="1110.34" y="422.74" width="4.04" height="15.71"/><polygon class="cls-3" points="1125.27 426.55 1099.47 426.55 1100.26 422.55 1110.56 422.55 1110.56 420.55 1100.66 420.55 1101.27 417.55 1107.56 417.55 1107.56 415.55 1101.67 415.55 1112.36 362.78 1125.27 426.55"/><ellipse class="cls-4" cx="1110.22" cy="385.47" rx="9.94" ry="5.46" transform="translate(257.09 1193.77) rotate(-62.6)"/><ellipse class="cls-4" cx="1108.55" cy="399.27" rx="7.34" ry="10.51"/><ellipse class="cls-4" cx="1117.78" cy="409.2" rx="7.34" ry="10.51"/><ellipse class="cls-4" cx="1117.07" cy="392.88" rx="7.34" ry="10.51" transform="translate(-64.92 464.21) rotate(-22.83)"/><rect class="cls-2" x="1131.06" y="423.7" width="4.04" height="15.71" transform="translate(2266.16 863.11) rotate(-180)"/><polygon class="cls-3" points="1120.18 427.51 1145.98 427.51 1145.18 423.51 1134.89 423.51 1134.89 421.51 1144.79 421.51 1144.18 418.51 1137.89 418.51 1137.89 416.51 1143.78 416.51 1133.08 363.75 1120.18 427.51"/><ellipse class="cls-4" cx="1135.22" cy="386.43" rx="5.46" ry="9.94" transform="translate(-50.49 565.75) rotate(-27.4)"/><ellipse class="cls-4" cx="1136.89" cy="400.23" rx="7.34" ry="10.51"/><path class="cls-5" d="M380.11,460H21a4.52,4.52,0,0,1-.52,0c3-9.15,8.26-17.87,15.5-26,29.61-33.16,92.05-56,164.29-56S335,400.86,364.61,434A73.49,73.49,0,0,1,380.11,460Z"/><path class="cls-6" d="M422.52,487a62.08,62.08,0,0,1-9.61,26H393a13,13,0,0,1,0-26Z"/><path class="cls-7" d="M168.28,213H168v43h.37a31.41,31.41,0,0,0,14.22,15.26c2,1.13,4.19,1.74,6.45,2.74h0c2.08,0,4.24,1.06,6.46,1.25.9.08,1.81.1,2.73.1a31.21,31.21,0,0,0,9.94-1.55c.53-.18,1.06-.34,1.58-.54l4.86-2.48,1.58-.92A31.83,31.83,0,0,0,228.16,256H228V213.25l0-.17C216.35,213.08,181.43,213,168.28,213Z"/><path class="cls-8" d="M231,260v20h.09a44.25,44.25,0,0,1-13,6.33l-1.73.34-5.31,1.15c-.57.09-1.14.17-1.72.25-2.18.31-4.45.51-6.79.63q-2,.1-4.06.1c-1,0-2-.11-3-.15-2.43-.09-4.79-.66-7.06-.66h0a30.45,30.45,0,0,1-7-1.1,53.45,53.45,0,0,1-15.53-6.9H166V260h-.13c5.76,5,18.2,9,32.6,9s26.84-4,32.61-9Z"/><path class="cls-9" d="M188.49,288h0a30.46,30.46,0,0,1-7-1.18l0-6.11,7-.09Z"/><ellipse class="cls-9" cx="184.95" cy="280.91" rx="3.52" ry="3.43" transform="translate(-0.97 0.64) rotate(-0.2)"/><rect class="cls-9" x="195.55" y="281.08" width="7.04" height="8" transform="translate(-0.74 0.52) rotate(-0.15)"/><ellipse class="cls-9" cx="199.06" cy="281.21" rx="3.52" ry="3.43" transform="translate(-0.98 0.69) rotate(-0.2)"/><path class="cls-9" d="M216.24,286.66,211,287.83c-.57.09-1.1,0-1.68,0l0-7.85H216v.58Z"/><ellipse class="cls-9" cx="212.87" cy="280.6" rx="3.52" ry="3.43" transform="translate(-0.97 0.74) rotate(-0.2)"/><polygon class="cls-10" points="237.71 267.42 160.43 267.42 167.9 253.71 228.23 253.71 237.71 267.42"/><polygon class="cls-7" points="159.62 267.42 236.89 267.42 229.42 269.54 169.09 269.54 159.62 267.42"/><rect class="cls-4" x="189.67" y="229.44" width="15.68" height="14.97" transform="translate(-0.74 0.61) rotate(-0.18)"/><ellipse class="cls-4" cx="197.49" cy="229.7" rx="7.84" ry="6.41" transform="translate(-0.67 0.58) rotate(-0.17)"/><rect class="cls-9" x="191.02" y="231.06" width="13.17" height="14.97" transform="translate(-0.62 0.52) rotate(-0.15)"/><path class="cls-9" d="M204.17,231.29a6.59,6.59,0,1,1-6.6-6.39A6.51,6.51,0,0,1,204.17,231.29Z"/><rect class="cls-4" x="189.68" y="227.9" width="1.41" height="19.32" transform="translate(-0.75 0.6) rotate(-0.18)"/><rect class="cls-4" x="204.22" y="227.9" width="1.41" height="19.48" transform="translate(-0.75 0.65) rotate(-0.18)"/><line class="cls-4" x1="207.97" y1="245.02" x2="207.97" y2="246.08"/><rect class="cls-4" x="189.35" y="245.65" width="16.46" height="2.22"/><rect class="cls-4" x="171.02" y="229.44" width="15.68" height="14.97" transform="translate(-0.74 0.56) rotate(-0.18)"/><ellipse class="cls-4" cx="178.83" cy="229.7" rx="7.84" ry="6.41" transform="translate(-0.67 0.52) rotate(-0.17)"/><rect class="cls-9" x="172.37" y="231.06" width="13.17" height="14.97" transform="translate(-0.62 0.47) rotate(-0.15)"/><path class="cls-9" d="M185.52,231.29a6.59,6.59,0,1,1-6.6-6.39A6.51,6.51,0,0,1,185.52,231.29Z"/><rect class="cls-4" x="171.03" y="227.9" width="1.41" height="19.32" transform="translate(-0.75 0.54) rotate(-0.18)"/><rect class="cls-4" x="185.56" y="227.9" width="1.41" height="19.48" transform="translate(-0.75 0.59) rotate(-0.18)"/><line class="cls-4" x1="189.31" y1="245.02" x2="189.32" y2="246.08"/><rect class="cls-4" x="170.7" y="245.65" width="16.46" height="2.22"/><rect class="cls-4" x="207.99" y="229.44" width="15.68" height="14.97" transform="translate(-0.74 0.67) rotate(-0.18)"/><ellipse class="cls-4" cx="215.81" cy="229.7" rx="7.84" ry="6.41" transform="translate(-0.67 0.63) rotate(-0.17)"/><rect class="cls-9" x="209.34" y="231.06" width="13.17" height="14.97" transform="translate(-0.62 0.56) rotate(-0.15)"/><path class="cls-9" d="M222.49,231.29a6.59,6.59,0,1,1-6.6-6.39A6.51,6.51,0,0,1,222.49,231.29Z"/><rect class="cls-4" x="208" y="227.9" width="1.41" height="19.32" transform="translate(-0.75 0.66) rotate(-0.18)"/><rect class="cls-4" x="222.54" y="227.9" width="1.41" height="19.48" transform="translate(-0.75 0.71) rotate(-0.18)"/><line class="cls-4" x1="226.29" y1="245.02" x2="226.29" y2="246.08"/><rect class="cls-4" x="207.67" y="245.65" width="16.46" height="2.22"/><rect class="cls-8" x="161.02" y="226.03" width="1.03" height="16.35" transform="translate(323.06 468.41) rotate(180)"/><ellipse class="cls-8" cx="161.51" cy="231.19" rx="1.13" ry="1.15"/><ellipse class="cls-8" cx="161.51" cy="225.33" rx="1.13" ry="1.15"/><polygon class="cls-8" points="161.51 221.53 161.27 223.13 161.04 224.73 161.51 224.73 161.98 224.73 161.74 223.13 161.51 221.53"/><rect class="cls-8" x="160.73" y="219.05" width="0.87" height="19.33" transform="translate(-67.55 389.88) rotate(-90)"/><ellipse class="cls-8" cx="164.73" cy="228.7" rx="1.36" ry="0.96"/><ellipse class="cls-8" cx="157.02" cy="228.7" rx="1.36" ry="0.96"/><ellipse class="cls-8" cx="171.66" cy="228.7" rx="1.36" ry="0.96"/><polygon class="cls-8" points="176.15 228.7 174.25 228.5 172.36 228.3 172.36 228.7 172.36 229.09 174.25 228.89 176.15 228.7"/><ellipse class="cls-8" cx="151.65" cy="228.7" rx="1.36" ry="0.96"/><polygon class="cls-8" points="147.16 228.7 149.05 228.89 150.94 229.09 150.94 228.7 150.94 228.3 149.05 228.5 147.16 228.7"/><rect class="cls-8" x="153.05" y="275.02" width="20" height="13"/><rect class="cls-11" x="153.05" y="273.02" width="20" height="8"/><path class="cls-12" d="M150.92,247.87a15.27,15.27,0,0,0-6.84,12.47,14,14,0,0,0,.23,2.55,14.48,14.48,0,0,0,2.06,5.22,18.6,18.6,0,0,0,15.8,8.17,19.68,19.68,0,0,0,10.31-2.84q.32-.19.61-.39a16.78,16.78,0,0,0,4.44-4.28c.15-.22.3-.43.44-.65a14.37,14.37,0,0,0,2.29-7.77c0-6.32-4.17-11.78-10.23-14.36h0a20.31,20.31,0,0,0-16.19.23c-.32.14-.63.3-.94.46Z"/><path class="cls-12" d="M176.62,250.95,148,250.57c6.36-5,9.58-6.47,13.57-12.75C165,243.49,169.7,245.19,176.62,250.95Z"/><path class="cls-10" d="M149,263v5h-2.68c-1-2-1.72-3-2.06-5Z"/><rect class="cls-10" x="157.85" y="256.8" width="5.41" height="4.28"/><polygon class="cls-10" points="151.05 247.87 151.05 248.38 151.05 250.6 151.05 251.02 157.05 251.02 157.05 250.68 157.05 247.02 153.22 247.02 152.89 247.02 151.05 247.87"/><path class="cls-10" d="M178,268c-.14,0-.28.48-.44.69a16.15,16.15,0,0,1-4.44,4.1,1.07,1.07,0,0,1-.61.21H170v-5Z"/><rect class="cls-8" x="163.26" y="253.64" width="3.83" height="3.38"/><rect class="cls-8" x="166.45" y="263.81" width="3.83" height="3.38"/><rect class="cls-8" x="148.41" y="255.33" width="3.83" height="3.38"/><rect class="cls-8" x="170.28" y="256.8" width="3.83" height="3.38"/><rect class="cls-7" x="224.91" y="300.33" width="53.72" height="73.7"/><rect class="cls-4" x="265.37" y="300.33" width="13.26" height="73.7"/><rect class="cls-8" x="213.21" y="286.7" width="60.4" height="15"/><path class="cls-10" d="M227.32,313.17H137.25a33.11,33.11,0,0,1,4.28-16c.47-.86,1-1.66,1.53-2.48,7.72-11.69,22.4-19.57,39.23-19.57s31.51,7.9,39.23,19.59c.55.82,1.06,1.6,1.53,2.46A33.13,33.13,0,0,1,227.32,313.17Z"/><rect class="cls-7" x="223.69" y="351.25" width="49.39" height="64.82"/><rect class="cls-4" x="221.8" y="351.25" width="52.98" height="2.51"/><rect class="cls-8" x="227.27" y="388.73" width="45.8" height="27.35"/><path class="cls-10" d="M273.61,351H207.36c.12-13,10.68-23.87,25.68-26.79V327h16V324.4C263,327.55,273.49,339,273.61,351Z"/><rect class="cls-7" x="116.86" y="346.69" width="49.39" height="64.82" transform="translate(283.11 758.2) rotate(-180)"/><rect class="cls-4" x="115.15" y="346.69" width="52.98" height="2.51" transform="translate(283.29 695.89) rotate(-180)"/><path class="cls-10" d="M116.32,346h66.25c-.12-13-10.52-23.44-25.52-26.36V323H141v-3.19C127,323,116.45,334,116.32,346Z"/><polygon class="cls-4" points="235.57 368.88 235.61 380.38 221.84 380.41 221.8 368.92 235.57 368.88"/><path class="cls-4" d="M235.57,369.08c0,2.72-3.06,4.93-6.87,4.94s-6.89-2.19-6.9-4.9,3.06-4.93,6.87-4.94S235.56,366.36,235.57,369.08Z"/><rect class="cls-9" x="223.01" y="370.14" width="11.57" height="11.49" transform="translate(-1.12 0.69) rotate(-0.17)"/><ellipse class="cls-9" cx="228.77" cy="370.34" rx="5.78" ry="4.92" transform="translate(-1.12 0.7) rotate(-0.17)"/><rect class="cls-4" x="221.83" y="367.72" width="1.24" height="14.83" transform="translate(-1.04 0.62) rotate(-0.16)"/><rect class="cls-4" x="234.6" y="367.72" width="1.24" height="14.95" transform="translate(-1.04 0.65) rotate(-0.16)"/><line class="cls-4" x1="237.89" y1="380.86" x2="237.89" y2="381.67"/><rect class="cls-4" x="221.54" y="381.34" width="14.46" height="1.7"/><rect class="cls-4" x="227.27" y="388.73" width="45.8" height="2.51"/><rect class="cls-10" x="263.53" y="390.83" width="5.38" height="25.59" transform="translate(531.32 807.98) rotate(-179.84)"/><rect class="cls-4" x="263.01" y="413.87" width="5.86" height="2.55" transform="translate(530.73 831.02) rotate(-179.84)"/><rect class="cls-4" x="263.02" y="410.58" width="5.86" height="2.55" transform="translate(530.76 824.44) rotate(-179.84)"/><rect class="cls-4" x="263.03" y="407.28" width="5.86" height="2.55" transform="translate(530.79 817.85) rotate(-179.84)"/><rect class="cls-4" x="263.04" y="403.99" width="5.86" height="2.55" transform="translate(530.83 811.27) rotate(-179.84)"/><rect class="cls-4" x="263.05" y="400.7" width="5.86" height="2.55" transform="translate(530.86 804.69) rotate(-179.84)"/><rect class="cls-4" x="263.07" y="397.41" width="5.86" height="2.55" transform="translate(530.89 798.11) rotate(-179.84)"/><rect class="cls-4" x="263.08" y="394.12" width="5.86" height="2.55" transform="translate(530.92 791.53) rotate(-179.84)"/><rect class="cls-4" x="263.09" y="390.83" width="5.86" height="2.55" transform="translate(530.95 784.95) rotate(-179.84)"/><rect class="cls-10" x="235.75" y="390.66" width="5.38" height="25.59" transform="translate(1.12 -0.66) rotate(0.16)"/><rect class="cls-4" x="235.71" y="413.7" width="5.86" height="2.55" transform="translate(1.15 -0.66) rotate(0.16)"/><rect class="cls-4" x="235.72" y="410.41" width="5.86" height="2.55" transform="translate(1.14 -0.66) rotate(0.16)"/><rect class="cls-4" x="235.73" y="407.12" width="5.86" height="2.55" transform="translate(1.13 -0.66) rotate(0.16)"/><rect class="cls-4" x="235.75" y="403.82" width="5.86" height="2.55" transform="translate(1.12 -0.66) rotate(0.16)"/><rect class="cls-4" x="235.76" y="400.53" width="5.86" height="2.55" transform="translate(1.11 -0.66) rotate(0.16)"/><rect class="cls-4" x="235.77" y="397.24" width="5.86" height="2.55" transform="translate(1.1 -0.66) rotate(0.16)"/><rect class="cls-4" x="235.78" y="393.95" width="5.86" height="2.55" transform="translate(1.09 -0.66) rotate(0.16)"/><rect class="cls-4" x="235.79" y="390.66" width="5.86" height="2.55" transform="translate(1.09 -0.66) rotate(0.16)"/><rect class="cls-9" x="243.57" y="400.47" width="17.42" height="15.78" transform="translate(503.42 817.43) rotate(-179.84)"/><ellipse class="cls-9" cx="252.3" cy="400.75" rx="6.76" ry="8.71" transform="translate(-149.14 651.94) rotate(-89.84)"/><path class="cls-7" d="M137.67,336H137v57h.84a55.12,55.12,0,0,0,21.28,19.19c3,1.48,6.27,2.81,9.65,2.81h0c3.11,0,6.34,1.62,9.67,1.87,1.35.1,2.71.25,4.08.25a54,54,0,0,0,5.57-.2,52.9,52.9,0,0,0,9.3-1.74c.8-.23,1.59-.43,2.36-.69l7.28-3.24,2.37-.67c7.68-4.49,13.88-11.58,17.82-17.58H228V336l-.41-.07C210.07,335.94,157.35,336,137.67,336Z"/><path class="cls-8" d="M232,397v26h-.32c-4.29,4-11.07,6.36-19.45,8.44l-2.58.53-7.94,1.54c-.85.12-1.71.24-2.58.35-3.26.4-6.66.68-10.16.83q-3,.13-6.08.13c-1.5,0-3,0-4.46-.08-3.64-.12-7.16-.75-10.56-.75h0c-3.69,0-7.22-1-10.54-1.71-10.13-2.09-18.31-5.29-23.23-9.29H133V397h1.1c8.62,7,27.23,11.71,48.79,11.71S223.11,404,231.73,397Z"/><path class="cls-9" d="M167.92,434h0c-3.69,0-7.22-1-10.54-1.65l0-8,10.54,0Z"/><ellipse class="cls-9" cx="162.63" cy="424.5" rx="5.27" ry="4.48" transform="translate(-1.29 0.5) rotate(-0.17)"/><rect class="cls-9" x="178.48" y="424.72" width="10.53" height="10.46" transform="translate(-1.28 0.55) rotate(-0.17)"/><ellipse class="cls-9" cx="183.73" cy="424.9" rx="5.27" ry="4.48" transform="translate(-1.29 0.56) rotate(-0.17)"/><path class="cls-9" d="M209.38,432l-7.79,1.53c-.85.12-1.63.28-2.5.39l0-9.92H209v.07Z"/><ellipse class="cls-9" cx="204.41" cy="424.1" rx="5.27" ry="4.48" transform="translate(-1.29 0.62) rotate(-0.17)"/><polygon class="cls-10" points="241.56 406.86 125.93 406.86 137.11 388.93 227.39 388.93 241.56 406.86"/><polygon class="cls-7" points="124.71 406.86 240.35 406.86 229.16 409.63 138.89 409.63 124.71 406.86"/><polygon class="cls-4" points="193.1 357.16 193.17 376.74 169.72 376.8 169.65 357.22 193.1 357.16"/><path class="cls-4" d="M193.11,357.5c0,4.63-5.22,8.4-11.7,8.41s-11.74-3.72-11.76-8.35,5.22-8.4,11.7-8.41S193.09,352.87,193.11,357.5Z"/><rect class="cls-9" x="171.71" y="359.3" width="19.71" height="19.58" transform="translate(-1.1 0.54) rotate(-0.17)"/><ellipse class="cls-9" cx="181.53" cy="359.64" rx="9.85" ry="8.38" transform="translate(-1.09 0.55) rotate(-0.17)"/><rect class="cls-4" x="169.7" y="355.17" width="2.11" height="25.27" transform="translate(-1.02 0.47) rotate(-0.16)"/><rect class="cls-4" x="191.45" y="355.18" width="2.11" height="25.48" transform="translate(-1.02 0.53) rotate(-0.16)"/><line class="cls-4" x1="197.06" y1="377.56" x2="197.07" y2="378.95"/><rect class="cls-4" x="169.2" y="378.39" width="24.63" height="2.9"/><polygon class="cls-4" points="165.19 357.16 165.26 376.74 141.81 376.8 141.74 357.22 165.19 357.16"/><path class="cls-4" d="M165.19,357.5c0,4.63-5.22,8.4-11.7,8.41s-11.74-3.72-11.76-8.35,5.22-8.4,11.7-8.41S165.18,352.87,165.19,357.5Z"/><rect class="cls-9" x="143.79" y="359.3" width="19.71" height="19.58" transform="translate(-1.1 0.46) rotate(-0.17)"/><ellipse class="cls-9" cx="153.62" cy="359.64" rx="9.85" ry="8.38" transform="translate(-1.09 0.47) rotate(-0.17)"/><rect class="cls-4" x="141.79" y="355.17" width="2.11" height="25.27" transform="translate(-1.02 0.4) rotate(-0.16)"/><rect class="cls-4" x="163.54" y="355.18" width="2.11" height="25.48" transform="translate(-1.02 0.46) rotate(-0.16)"/><line class="cls-4" x1="169.15" y1="377.56" x2="169.15" y2="378.95"/><rect class="cls-4" x="141.29" y="378.39" width="24.63" height="2.9"/><polygon class="cls-4" points="220.52 357.16 220.59 376.74 197.13 376.8 197.06 357.22 220.52 357.16"/><path class="cls-4" d="M220.52,357.5c0,4.63-5.22,8.4-11.7,8.41s-11.74-3.72-11.76-8.35,5.22-8.4,11.7-8.41S220.5,352.87,220.52,357.5Z"/><rect class="cls-9" x="199.12" y="359.3" width="19.71" height="19.58" transform="translate(-1.1 0.63) rotate(-0.17)"/><ellipse class="cls-9" cx="208.95" cy="359.64" rx="9.85" ry="8.38" transform="translate(-1.09 0.64) rotate(-0.17)"/><rect class="cls-4" x="197.12" y="355.17" width="2.11" height="25.27" transform="translate(-1.02 0.55) rotate(-0.16)"/><rect class="cls-4" x="218.86" y="355.18" width="2.11" height="25.48" transform="translate(-1.02 0.61) rotate(-0.16)"/><line class="cls-4" x1="224.47" y1="377.56" x2="224.48" y2="378.95"/><rect class="cls-4" x="196.62" y="378.39" width="24.63" height="2.9"/><polygon class="cls-4" points="254.26 368.88 254.3 380.38 240.53 380.41 240.49 368.92 254.26 368.88"/><path class="cls-4" d="M254.26,369.08c0,2.72-3.06,4.93-6.87,4.94s-6.89-2.19-6.9-4.9,3.06-4.93,6.87-4.94S254.25,366.36,254.26,369.08Z"/><rect class="cls-9" x="241.7" y="370.14" width="11.57" height="11.49" transform="translate(-1.12 0.74) rotate(-0.17)"/><ellipse class="cls-9" cx="247.46" cy="370.34" rx="5.78" ry="4.92" transform="translate(-1.12 0.75) rotate(-0.17)"/><rect class="cls-4" x="240.52" y="367.72" width="1.24" height="14.83" transform="translate(-1.04 0.67) rotate(-0.16)"/><rect class="cls-4" x="253.29" y="367.72" width="1.24" height="14.95" transform="translate(-1.04 0.7) rotate(-0.16)"/><line class="cls-4" x1="256.58" y1="380.86" x2="256.58" y2="381.67"/><rect class="cls-4" x="240.23" y="381.34" width="14.46" height="1.7"/><polygon class="cls-4" points="134.7 366.59 134.75 385.21 120.98 385.27 120.94 366.64 134.7 366.59"/><path class="cls-4" d="M134.7,366.91c0,4.41-3.06,8-6.87,8s-6.89-3.54-6.9-7.95,3.06-8,6.87-8S134.7,362.5,134.7,366.91Z"/><polygon class="cls-9" points="133.69 368.59 133.73 387.22 122.16 387.28 122.13 368.65 133.69 368.59"/><path class="cls-9" d="M133.7,368.91c0,4.41-2.57,8-5.77,8s-5.79-3.54-5.8-7.95,2.57-8,5.77-8S133.69,364.51,133.7,368.91Z"/><polygon class="cls-4" points="122.24 388.74 121 388.75 120.94 364.7 122.18 364.69 122.24 388.74"/><polygon class="cls-4" points="135 388.94 133.76 388.94 133.71 364.7 134.95 364.69 135 388.94"/><line class="cls-4" x1="137.03" y1="386" x2="137.03" y2="387.32"/><rect class="cls-4" x="120.68" y="386.79" width="14.46" height="2.76"/><polygon class="cls-4" points="272.25 368.88 272.3 380.38 258.53 380.41 258.49 368.92 272.25 368.88"/><path class="cls-4" d="M272.26,369.08c0,2.72-3.06,4.93-6.87,4.94s-6.89-2.19-6.9-4.9,3.06-4.93,6.87-4.94S272.25,366.36,272.26,369.08Z"/><rect class="cls-9" x="259.69" y="370.14" width="11.57" height="11.49" transform="translate(-1.12 0.79) rotate(-0.17)"/><ellipse class="cls-9" cx="265.46" cy="370.34" rx="5.78" ry="4.92" transform="translate(-1.12 0.81) rotate(-0.17)"/><rect class="cls-4" x="258.52" y="367.72" width="1.24" height="14.83" transform="translate(-1.04 0.72) rotate(-0.16)"/><rect class="cls-4" x="271.28" y="367.72" width="1.24" height="14.95" transform="matrix(1, 0, 0, 1, -1.04, 0.75)"/><line class="cls-4" x1="274.58" y1="380.86" x2="274.58" y2="381.67"/><rect class="cls-4" x="258.23" y="381.34" width="14.46" height="1.7"/><rect class="cls-13" x="137.25" y="341.49" width="90.03" height="3.19"/><rect class="cls-8" x="137.25" y="313.17" width="90.03" height="29.13"/><rect class="cls-8" x="235.31" y="193.12" width="0.77" height="16.96" transform="translate(471.39 403.21) rotate(180)"/><ellipse class="cls-8" cx="235.77" cy="198.6" rx="1.13" ry="1.15"/><ellipse class="cls-8" cx="235.77" cy="192.74" rx="1.13" ry="1.15"/><polygon class="cls-8" points="235.77 188.95 235.53 190.71 235.3 192.47 235.77 192.47 236.24 192.47 236 190.71 235.77 188.95"/><rect class="cls-8" x="235.37" y="186.42" width="0.65" height="19.28" transform="translate(39.63 431.75) rotate(-90)"/><ellipse class="cls-8" cx="238.99" cy="196.11" rx="1.36" ry="0.96"/><ellipse class="cls-8" cx="231.28" cy="196.11" rx="1.36" ry="0.96"/><ellipse class="cls-8" cx="245.92" cy="196.11" rx="1.36" ry="0.96"/><polygon class="cls-8" points="250.41 196.11 248.64 195.91 246.88 195.72 246.88 196.11 246.88 196.51 248.64 196.31 250.41 196.11"/><ellipse class="cls-8" cx="225.91" cy="196.11" rx="1.36" ry="0.96"/><polygon class="cls-8" points="221.42 196.11 223.35 196.31 225.28 196.51 225.28 196.11 225.28 195.72 223.35 195.91 221.42 196.11"/><rect class="cls-8" x="197.93" y="119.53" width="0.77" height="16.96" transform="translate(396.63 256.02) rotate(180)"/><ellipse class="cls-8" cx="198.39" cy="125.01" rx="1.13" ry="1.15"/><ellipse class="cls-8" cx="198.39" cy="119.15" rx="1.13" ry="1.15"/><polygon class="cls-8" points="198.39 115.36 198.15 117.12 197.92 118.88 198.39 118.88 198.86 118.88 198.62 117.12 198.39 115.36"/><rect class="cls-8" x="197.99" y="112.83" width="0.65" height="19.28" transform="translate(75.85 320.78) rotate(-90)"/><ellipse class="cls-8" cx="201.61" cy="122.52" rx="1.36" ry="0.96"/><ellipse class="cls-8" cx="193.9" cy="122.52" rx="1.36" ry="0.96"/><ellipse class="cls-8" cx="208.54" cy="122.52" rx="1.36" ry="0.96"/><polygon class="cls-8" points="213.03 122.52 211.26 122.32 209.5 122.12 209.5 122.52 209.5 122.92 211.26 122.72 213.03 122.52"/><ellipse class="cls-8" cx="188.53" cy="122.52" rx="1.36" ry="0.96"/><polygon class="cls-8" points="184.04 122.52 185.97 122.72 187.9 122.92 187.9 122.52 187.9 122.12 185.97 122.32 184.04 122.52"/><polygon class="cls-4" points="177.71 303.78 177.73 310.15 168.03 310.17 168 303.8 177.71 303.78"/><path class="cls-4" d="M177.71,303.89c0,1.51-2.16,2.73-4.84,2.74s-4.86-1.21-4.86-2.72,2.16-2.73,4.84-2.74S177.7,302.39,177.71,303.89Z"/><polygon class="cls-8" points="176.99 304.47 177.02 310.83 168.87 310.85 168.84 304.49 176.99 304.47"/><ellipse class="cls-8" cx="172.92" cy="304.59" rx="4.07" ry="2.73" transform="translate(-0.73 0.41) rotate(-0.14)"/><polygon class="cls-4" points="168.92 311.35 168.04 311.36 168.01 303.14 168.88 303.14 168.92 311.35"/><polygon class="cls-4" points="177.91 311.42 177.04 311.42 177 303.14 177.88 303.14 177.91 311.42"/><line class="cls-4" x1="179.34" y1="310.42" x2="179.34" y2="310.87"/><rect class="cls-4" x="167.82" y="310.69" width="10.19" height="0.94"/><polygon class="cls-4" points="151.4 303.78 151.43 310.15 141.73 310.17 141.7 303.8 151.4 303.78"/><path class="cls-4" d="M151.4,303.89c0,1.51-2.16,2.73-4.84,2.74s-4.86-1.21-4.86-2.72,2.16-2.73,4.84-2.74S151.39,302.39,151.4,303.89Z"/><polygon class="cls-8" points="150.69 304.47 150.71 310.83 142.56 310.85 142.54 304.49 150.69 304.47"/><ellipse class="cls-8" cx="146.61" cy="304.59" rx="4.07" ry="2.73" transform="translate(-0.73 0.35) rotate(-0.14)"/><polygon class="cls-4" points="142.61 311.35 141.74 311.36 141.7 303.14 142.58 303.14 142.61 311.35"/><polygon class="cls-4" points="151.61 311.42 150.74 311.42 150.7 303.14 151.57 303.14 151.61 311.42"/><line class="cls-4" x1="153.04" y1="310.42" x2="153.04" y2="310.87"/><rect class="cls-4" x="141.51" y="310.69" width="10.19" height="0.94"/><rect class="cls-10" x="137.25" y="340.37" width="89.99" height="2.51"/><rect class="cls-10" x="137.25" y="327.88" width="89.99" height="2.51"/><rect class="cls-10" x="137.33" y="323.96" width="89.99" height="2.51"/><path class="cls-4" d="M143.09,294.88h78.43q.83,1,1.53,2H141.67Z"/><polygon class="cls-4" points="171.65 306.23 171.71 325.81 148.26 325.87 148.19 306.29 171.65 306.23"/><path class="cls-4" d="M171.65,306.57c0,4.63-5.22,8.4-11.7,8.41s-11.74-3.72-11.76-8.35,5.22-8.4,11.7-8.41S171.63,301.94,171.65,306.57Z"/><rect class="cls-8" x="150.25" y="308.37" width="19.71" height="19.58" transform="translate(-0.95 0.48) rotate(-0.17)"/><ellipse class="cls-8" cx="160.07" cy="308.71" rx="9.85" ry="8.38" transform="translate(-0.94 0.49) rotate(-0.17)"/><rect class="cls-4" x="148.25" y="304.24" width="2.11" height="25.27" transform="translate(-0.88 0.41) rotate(-0.16)"/><rect class="cls-4" x="169.99" y="304.25" width="2.11" height="25.48" transform="translate(-0.88 0.47) rotate(-0.16)"/><line class="cls-4" x1="175.6" y1="326.63" x2="175.61" y2="328.02"/><rect class="cls-4" x="147.74" y="327.46" width="24.63" height="2.9"/><polygon class="cls-4" points="221.32 303.78 221.34 310.15 211.64 310.17 211.61 303.8 221.32 303.78"/><path class="cls-4" d="M221.32,303.89c0,1.51-2.16,2.73-4.84,2.74s-4.86-1.21-4.86-2.72,2.16-2.73,4.84-2.74S221.31,302.39,221.32,303.89Z"/><polygon class="cls-8" points="220.6 304.47 220.63 310.83 212.48 310.85 212.45 304.49 220.6 304.47"/><ellipse class="cls-8" cx="216.53" cy="304.59" rx="4.07" ry="2.73" transform="translate(-0.73 0.52) rotate(-0.14)"/><polygon class="cls-4" points="212.53 311.35 211.66 311.36 211.62 303.14 212.49 303.14 212.53 311.35"/><polygon class="cls-4" points="221.52 311.42 220.65 311.42 220.61 303.14 221.49 303.14 221.52 311.42"/><line class="cls-4" x1="222.95" y1="310.42" x2="222.95" y2="310.87"/><rect class="cls-4" x="211.43" y="310.69" width="10.19" height="0.94"/><polygon class="cls-4" points="206.78 303.78 206.81 310.15 197.11 310.17 197.08 303.8 206.78 303.78"/><path class="cls-4" d="M206.78,303.89c0,1.51-2.16,2.73-4.84,2.74s-4.86-1.21-4.86-2.72,2.16-2.73,4.84-2.74S206.77,302.39,206.78,303.89Z"/><polygon class="cls-8" points="206.07 304.47 206.09 310.83 197.94 310.85 197.92 304.49 206.07 304.47"/><ellipse class="cls-8" cx="201.99" cy="304.59" rx="4.07" ry="2.73" transform="translate(-0.73 0.48) rotate(-0.14)"/><polygon class="cls-4" points="197.99 311.35 197.12 311.36 197.08 303.14 197.96 303.14 197.99 311.35"/><polygon class="cls-4" points="206.99 311.42 206.11 311.42 206.08 303.14 206.95 303.14 206.99 311.42"/><line class="cls-4" x1="208.42" y1="310.42" x2="208.42" y2="310.87"/><rect class="cls-4" x="196.89" y="310.69" width="10.19" height="0.94"/><rect class="cls-10" x="233.05" y="310.02" width="16" height="25"/><polygon class="cls-4" points="192.24 303.78 192.27 310.15 182.57 310.17 182.54 303.8 192.24 303.78"/><path class="cls-4" d="M192.24,303.89c0,1.51-2.16,2.73-4.84,2.74s-4.86-1.21-4.86-2.72,2.16-2.73,4.84-2.74S192.24,302.39,192.24,303.89Z"/><polygon class="cls-8" points="191.53 304.47 191.55 310.83 183.4 310.85 183.38 304.49 191.53 304.47"/><ellipse class="cls-8" cx="187.46" cy="304.59" rx="4.07" ry="2.73" transform="translate(-0.73 0.45) rotate(-0.14)"/><polygon class="cls-4" points="183.46 311.35 182.58 311.36 182.54 303.14 183.42 303.14 183.46 311.35"/><polygon class="cls-4" points="192.45 311.42 191.58 311.42 191.54 303.14 192.41 303.14 192.45 311.42"/><line class="cls-4" x1="193.88" y1="310.42" x2="193.88" y2="310.87"/><rect class="cls-4" x="182.36" y="310.69" width="10.19" height="0.94"/><path class="cls-8" d="M249,321v3.37a33.61,33.61,0,0,0-8.39-.93,34.47,34.47,0,0,0-7.61.76V321Z"/><rect class="cls-8" x="233.05" y="305.02" width="16" height="7"/><rect class="cls-14" x="233.05" y="303.02" width="16" height="7"/><polygon class="cls-8" points="285.11 286.63 278.63 301.63 265.37 301.63 262.27 286.63 285.11 286.63"/><rect class="cls-4" x="265.37" y="286.37" width="1.61" height="15.33" transform="translate(532.36 588.07) rotate(180)"/><path class="cls-10" d="M265.48,287H205.8a18.68,18.68,0,0,1,2.83-9.31c.31-.5.65-1,1-1.45,5.12-6.8,14.84-11.38,26-11.38s20.88,4.6,26,11.4c.37.48.7.93,1,1.43A18.69,18.69,0,0,1,265.48,287Z"/><rect class="cls-10" x="226.05" y="250.02" width="21" height="32"/><ellipse class="cls-12" cx="240.44" cy="294.88" rx="14.6" ry="12.35"/><path class="cls-12" d="M252.09,287.61,229,287.32c5.14-3.84,7.73-5,10.95-9.88C242.71,281.84,246.51,283.15,252.09,287.61Z"/><path class="cls-8" d="M247,264v4.39a54.18,54.18,0,0,0-11-1.2,49,49,0,0,0-10,1V264Z"/><rect class="cls-8" x="226.05" y="244.02" width="21" height="8"/><rect class="cls-15" x="226.05" y="241.02" width="21" height="9"/><path class="cls-12" d="M221.25,217.86c-5.67,2.92-9.29,7.42-9.29,12.47a10.45,10.45,0,0,0,.32,2.55,12.59,12.59,0,0,0,2.8,5.22c4.2,4.87,12.23,8.17,21.46,8.17a34.23,34.23,0,0,0,14-2.84q.43-.19.83-.39a21.25,21.25,0,0,0,6-4.28c.21-.22.41-.43.59-.65a11.82,11.82,0,0,0,3.12-7.77c0-6.32-5.67-11.78-13.9-14.36h0a35.94,35.94,0,0,0-10.65-1.57,35.55,35.55,0,0,0-11.34,1.8c-.43.14-.86.3-1.27.46Z"/><path class="cls-12" d="M256.14,220.94l-38.81-.38c8.64-5,13-6.47,18.43-12.75C240.36,213.49,246.75,215.18,256.14,220.94Z"/><path class="cls-10" d="M218,233v5h-3c-1.38-2-2.34-3-2.8-5Z"/><rect class="cls-10" x="230.66" y="226.79" width="7.35" height="4.28"/><polygon class="cls-10" points="221.05 217.86 221.05 218.38 221.05 220.6 221.05 221.02 229.05 221.02 229.05 220.67 229.05 217.02 224.36 217.02 223.92 217.02 221.05 217.86"/><path class="cls-10" d="M258,238c-.19,0-.39.48-.59.69a20.85,20.85,0,0,1-6,4.1,1.83,1.83,0,0,1-.83.21H247v-5Z"/><rect class="cls-8" x="238.01" y="223.63" width="5.2" height="3.38"/><rect class="cls-8" x="242.33" y="233.8" width="5.2" height="3.38"/><rect class="cls-8" x="217.83" y="225.32" width="5.2" height="3.38"/><rect class="cls-8" x="247.53" y="226.79" width="5.2" height="3.38"/><path class="cls-10" d="M228.16,213.32H168a18.16,18.16,0,0,1,2.86-9.55c.31-.51.65-1,1-1.48,5.16-7,15-11.68,26.21-11.68s21.05,4.71,26.21,11.69c.37.49.71,1,1,1.47A18.17,18.17,0,0,1,228.16,213.32Z"/><rect class="cls-10" x="188.53" y="175.48" width="20.05" height="32.61"/><path class="cls-8" d="M208.58,189.83v4.4A42.58,42.58,0,0,0,198,193a43.71,43.71,0,0,0-9.52,1v-4.18Z"/><rect class="cls-8" x="188.53" y="168.96" width="20.05" height="9.13"/><rect class="cls-16" x="188.53" y="166.35" width="20.05" height="9.13"/><path class="cls-12" d="M183.56,142.38c-5.72,3-9.37,7.61-9.37,12.79a10.89,10.89,0,0,0,.32,2.62,13,13,0,0,0,2.82,5.35c4.24,5,12.33,8.38,21.64,8.38a34,34,0,0,0,14.11-2.92q.43-.19.84-.4a21.44,21.44,0,0,0,6.08-4.39c.21-.22.41-.44.6-.67a12.24,12.24,0,0,0,3.14-8c0-6.48-5.72-12.08-14-14.73h0A35.66,35.66,0,0,0,199,138.83a35.29,35.29,0,0,0-11.43,1.85c-.44.15-.86.31-1.28.48Z"/><path class="cls-12" d="M218.74,145.54l-39.13-.39c8.72-5.08,13.11-6.63,18.58-13.07C202.83,137.9,209.28,139.63,218.74,145.54Z"/><path class="cls-10" d="M220.89,163c-.19,0-.39.51-.6.73a20.85,20.85,0,0,1-6.08,4.13,1.74,1.74,0,0,1-.84.14H209v-5Z"/><rect class="cls-8" x="200.75" y="148.3" width="5.25" height="3.47"/><rect class="cls-8" x="205.11" y="158.73" width="5.25" height="3.47"/><rect class="cls-8" x="210.35" y="151.54" width="5.25" height="3.47"/><rect class="cls-8" x="454.11" y="316.65" width="161.55" height="124.92"/><rect class="cls-8" x="332.12" y="370.98" width="37.4" height="66.25"/><polygon class="cls-10" points="326.28 394.24 373.98 394.24 369.37 400.1 332.13 400.1 326.28 394.24"/><polygon class="cls-10" points="326.28 375.57 373.98 375.57 369.37 381.43 332.13 381.43 326.28 375.57"/><rect class="cls-8" x="350.13" y="324.96" width="63.38" height="112.27"/><rect class="cls-8" x="414.96" y="261.78" width="40.78" height="37.97"/><rect class="cls-10" x="450.39" y="262.01" width="7.21" height="34.29" transform="translate(907.22 559.58) rotate(-179.84)"/><rect class="cls-4" x="449.7" y="292.89" width="7.85" height="3.42" transform="translate(906.43 590.45) rotate(-179.84)"/><rect class="cls-4" x="449.71" y="288.48" width="7.85" height="3.42" transform="translate(906.47 581.63) rotate(-179.84)"/><rect class="cls-4" x="449.73" y="284.07" width="7.85" height="3.42" transform="translate(906.51 572.81) rotate(-179.84)"/><rect class="cls-4" x="449.74" y="279.66" width="7.85" height="3.42" transform="translate(906.55 563.98) rotate(-179.84)"/><rect class="cls-4" x="449.75" y="275.25" width="7.85" height="3.42" transform="translate(906.59 555.16) rotate(-179.84)"/><rect class="cls-4" x="449.77" y="270.83" width="7.85" height="3.42" transform="translate(906.64 546.34) rotate(-179.84)"/><rect class="cls-4" x="449.78" y="266.42" width="7.85" height="3.42" transform="translate(906.68 537.52) rotate(-179.84)"/><rect class="cls-4" x="449.8" y="262.01" width="7.85" height="3.42" transform="translate(906.72 528.7) rotate(-179.84)"/><rect class="cls-10" x="413.16" y="261.79" width="7.21" height="34.29" transform="translate(0.77 -1.15) rotate(0.16)"/><rect class="cls-4" x="413.11" y="292.66" width="7.85" height="3.42" transform="translate(0.82 -1.15) rotate(0.16)"/><rect class="cls-4" x="413.12" y="288.25" width="7.85" height="3.42" transform="translate(0.8 -1.15) rotate(0.16)"/><rect class="cls-4" x="413.14" y="283.84" width="7.85" height="3.42" transform="translate(0.79 -1.15) rotate(0.16)"/><rect class="cls-4" x="413.15" y="279.43" width="7.85" height="3.42" transform="translate(0.78 -1.15) rotate(0.16)"/><rect class="cls-4" x="413.17" y="275.02" width="7.85" height="3.42" transform="translate(0.77 -1.15) rotate(0.16)"/><rect class="cls-4" x="413.18" y="270.61" width="7.85" height="3.42" transform="translate(0.76 -1.15) rotate(0.16)"/><rect class="cls-4" x="413.2" y="266.2" width="7.85" height="3.42" transform="translate(0.74 -1.15) rotate(0.16)"/><rect class="cls-4" x="413.21" y="261.79" width="7.85" height="3.42" transform="translate(0.73 -1.15) rotate(0.16)"/><rect class="cls-9" x="423.63" y="274.94" width="23.35" height="21.15" transform="translate(869.83 572.23) rotate(-179.84)"/><ellipse class="cls-9" cx="435.34" cy="275.31" rx="9.06" ry="11.67" transform="translate(158.83 709.88) rotate(-89.84)"/><rect class="cls-10" x="528.05" y="204.02" width="10" height="16"/><path class="cls-8" d="M538,212v1.9a17.9,17.9,0,0,0-5.26-.62,24.36,24.36,0,0,0-4.74.51V212Z"/><rect class="cls-17" x="528.05" y="200.02" width="10" height="4"/><ellipse class="cls-12" cx="533.26" cy="194.15" rx="9.78" ry="8.27"/><path class="cls-12" d="M541.06,189.28l-15.45-.2c3.44-2.57,5.18-3.36,7.34-6.62C534.78,185.41,537.33,186.29,541.06,189.28Z"/><polygon class="cls-10" points="340.23 364.38 421.07 364.38 413.25 374.31 350.14 374.31 340.23 364.38"/><polygon class="cls-10" points="340.23 332.74 421.07 332.74 413.25 342.67 350.14 342.67 340.23 332.74"/><rect class="cls-8" x="413.51" y="294.78" width="42.85" height="142.32"/><polygon class="cls-10" points="406.54 353.36 461.58 353.36 456.26 363.29 413.29 363.29 406.54 353.36"/><polygon class="cls-10" points="407.42 294.78 462.46 294.78 457.14 304.71 414.16 304.71 407.42 294.78"/><rect class="cls-10" x="413.51" y="416.21" width="42.85" height="7.62"/><rect class="cls-12" x="413.51" y="380.73" width="12.09" height="8.95"/><rect class="cls-12" x="434.93" y="393.78" width="12.09" height="8.95"/><rect class="cls-12" x="357.07" y="380.73" width="12.09" height="8.95"/><rect class="cls-12" x="397.01" y="421.11" width="12.09" height="8.95"/><rect class="cls-12" x="437.7" y="312.18" width="12.09" height="8.95"/><path class="cls-12" d="M458.76,261.78c0-.46,0-.92,0-1.39a21.84,21.84,0,0,0-13.17-19.74s0,0,0,0a24.6,24.6,0,0,0-20.84.31c-.41.2-.81.41-1.21.64L421,243.24a21.39,21.39,0,0,0-8.81,17.14c0,.47,0,.93.05,1.39Z"/><path class="cls-12" d="M454.11,247.48,417.34,247c8.19-6.81,12.32-8.89,17.46-17.52C439.16,237.23,445.22,239.56,454.11,247.48Z"/><rect class="cls-8" x="489.1" y="246.68" width="88.4" height="69.97"/><rect class="cls-9" x="489.1" y="263.65" width="88.4" height="41.73"/><path class="cls-12" d="M577.41,246.68c.06-.67.09-1.34.09-2,0-12.61-10.2-23.5-25-28.64,0,0,0,0,0,0a59.88,59.88,0,0,0-39.55.46c-.78.29-1.54.6-2.29.92l-4.8,2.39c-10.2,5.82-16.72,14.81-16.72,24.88,0,.68,0,1.35.1,2Z"/><rect class="cls-12" x="350.13" y="322.88" width="63.38" height="2.08"/><polyline class="cls-9" points="389.82 420.99 389.86 407.86 376.65 407.81 376.62 420.95"/><path class="cls-9" d="M383.27,402.44c-3.65,0-6.61,2.5-6.62,5.6s2.94,5.63,6.58,5.64,6.61-2.5,6.62-5.6-2.94-5.63-6.58-5.64"/><polyline class="cls-10" points="373.51 399.53 373.51 417.48 371.39 417.48 371.39 399.53"/><rect class="cls-12" x="369.47" y="418.48" width="5.98" height="2.73"/><rect class="cls-10" x="370.03" y="418.93" width="4.85" height="1.83"/><polyline class="cls-12" points="369.24 422.39 369.24 421.61 375.74 421.61 375.74 422.39"/><rect class="cls-12" x="369.16" y="417.31" width="6.5" height="0.78"/><polygon class="cls-10" points="375.74 421.61 369.24 421.61 369.46 421.21 375.44 421.21 375.74 421.61"/><polygon class="cls-10" points="369.16 418.09 375.66 418.09 375.43 418.48 369.46 418.48 369.16 418.09"/><polyline class="cls-12" points="374.88 401.58 374.88 417.48 372.76 417.48 372.76 401.58"/><polyline class="cls-12" points="372.15 401.58 372.15 417.48 370.03 417.48 370.03 401.58"/><polyline class="cls-10" points="394.87 399.53 394.87 417.48 392.75 417.48 392.75 399.53"/><rect class="cls-12" x="390.82" y="418.48" width="5.98" height="2.73"/><rect class="cls-10" x="391.38" y="418.93" width="4.85" height="1.83"/><polyline class="cls-12" points="390.6 422.39 390.6 421.61 397.09 421.61 397.09 422.39"/><rect class="cls-12" x="390.52" y="417.31" width="6.5" height="0.78"/><polygon class="cls-10" points="397.09 421.61 390.6 421.61 390.82 421.21 396.8 421.21 397.09 421.61"/><polygon class="cls-10" points="390.52 418.09 397.01 418.09 396.79 418.48 390.81 418.48 390.52 418.09"/><polyline class="cls-12" points="396.23 401.58 396.23 417.48 394.11 417.48 394.11 401.58"/><rect class="cls-12" x="458.09" y="337.7" width="157.57" height="4.97"/><rect class="cls-12" x="455.75" y="314.17" width="159.91" height="4.97"/><polyline class="cls-12" points="393.5 401.58 393.5 417.48 391.38 417.48 391.38 401.58"/><rect class="cls-12" x="369.47" y="398.48" width="27.33" height="3.08"/><rect class="cls-8" x="701.59" y="370.98" width="37.4" height="66.25" transform="translate(1440.58 808.21) rotate(-180)"/><polygon class="cls-10" points="744.83 394.24 697.13 394.24 701.74 400.1 738.99 400.1 744.83 394.24"/><polygon class="cls-10" points="744.83 375.57 697.13 375.57 701.74 381.43 738.99 381.43 744.83 375.57"/><rect class="cls-8" x="657.6" y="324.96" width="63.38" height="112.27" transform="translate(1378.58 762.19) rotate(-180)"/><rect class="cls-8" x="615.36" y="261.78" width="40.78" height="37.97" transform="translate(1271.51 561.52) rotate(-180)"/><rect class="cls-10" x="613.51" y="262.01" width="7.21" height="34.29" transform="translate(-0.77 1.71) rotate(-0.16)"/><rect class="cls-4" x="613.56" y="292.89" width="7.85" height="3.42" transform="translate(-0.81 1.71) rotate(-0.16)"/><rect class="cls-4" x="613.54" y="288.48" width="7.85" height="3.42" transform="translate(-0.8 1.71) rotate(-0.16)"/><rect class="cls-4" x="613.53" y="284.07" width="7.85" height="3.42" transform="translate(-0.79 1.71) rotate(-0.16)"/><rect class="cls-4" x="613.52" y="279.66" width="7.85" height="3.42" transform="translate(-0.78 1.71) rotate(-0.16)"/><rect class="cls-4" x="613.5" y="275.25" width="7.85" height="3.42" transform="translate(-0.76 1.71) rotate(-0.16)"/><rect class="cls-4" x="613.49" y="270.83" width="7.85" height="3.42" transform="translate(-0.75 1.71) rotate(-0.16)"/><rect class="cls-4" x="613.47" y="266.42" width="7.85" height="3.42" transform="matrix(1, 0, 0, 1, -0.74, 1.71)"/><rect class="cls-4" x="613.46" y="262.01" width="7.85" height="3.42" transform="matrix(1, 0, 0, 1, -0.73, 1.71)"/><rect class="cls-10" x="650.74" y="261.79" width="7.21" height="34.29" transform="translate(1309.46 556.05) rotate(179.84)"/><rect class="cls-4" x="650.15" y="292.66" width="7.85" height="3.42" transform="translate(1308.96 586.93) rotate(179.84)"/><rect class="cls-4" x="650.13" y="288.25" width="7.85" height="3.42" transform="translate(1308.92 578.11) rotate(179.84)"/><rect class="cls-4" x="650.12" y="283.84" width="7.85" height="3.42" transform="translate(1308.88 569.29) rotate(179.84)"/><rect class="cls-4" x="650.1" y="279.43" width="7.85" height="3.42" transform="translate(1308.84 560.46) rotate(179.84)"/><rect class="cls-4" x="650.09" y="275.02" width="7.85" height="3.42" transform="translate(1308.79 551.64) rotate(179.84)"/><rect class="cls-4" x="650.07" y="270.61" width="7.85" height="3.42" transform="translate(1308.75 542.82) rotate(179.84)"/><rect class="cls-4" x="650.06" y="266.2" width="7.85" height="3.42" transform="translate(1308.71 534) rotate(179.84)"/><rect class="cls-4" x="650.05" y="261.79" width="7.85" height="3.42" transform="translate(1308.67 525.18) rotate(179.84)"/><rect class="cls-9" x="624.13" y="274.94" width="23.35" height="21.15" transform="matrix(1, 0, 0, 1, -0.79, 1.76)"/><ellipse class="cls-9" cx="635.77" cy="275.31" rx="11.67" ry="9.06" transform="translate(-0.76 1.76) rotate(-0.16)"/><polygon class="cls-10" points="730.88 364.38 650.04 364.38 657.86 374.31 720.97 374.31 730.88 364.38"/><polygon class="cls-10" points="730.88 332.74 650.04 332.74 657.86 342.67 720.97 342.67 730.88 332.74"/><rect class="cls-8" x="614.75" y="294.78" width="42.85" height="142.32" transform="translate(1272.35 731.89) rotate(-180)"/><polygon class="cls-10" points="664.57 353.36 609.52 353.36 614.85 363.29 657.82 363.29 664.57 353.36"/><polygon class="cls-10" points="663.69 294.78 608.65 294.78 613.97 304.71 656.95 304.71 663.69 294.78"/><rect class="cls-10" x="614.75" y="416.21" width="42.85" height="7.62" transform="translate(1272.35 840.04) rotate(-180)"/><rect class="cls-12" x="645.51" y="380.73" width="12.09" height="8.95" transform="translate(1303.11 770.42) rotate(-180)"/><rect class="cls-12" x="624.09" y="393.78" width="12.09" height="8.95" transform="translate(1260.26 796.5) rotate(-180)"/><rect class="cls-12" x="701.95" y="380.73" width="12.09" height="8.95" transform="translate(1415.98 770.42) rotate(-180)"/><rect class="cls-12" x="662.01" y="421.11" width="12.09" height="8.95" transform="translate(1336.11 851.16) rotate(-180)"/><rect class="cls-12" x="621.32" y="312.18" width="12.09" height="8.95" transform="translate(1254.73 633.31) rotate(-180)"/><path class="cls-12" d="M612.35,261.78c0-.46,0-.92,0-1.39a21.84,21.84,0,0,1,13.17-19.74s0,0,0,0a24.6,24.6,0,0,1,20.84.31c.41.2.81.41,1.21.64l2.53,1.65a21.39,21.39,0,0,1,8.81,17.14c0,.47,0,.93-.05,1.39Z"/><path class="cls-12" d="M617,247.48l36.77-.52c-8.19-6.81-12.32-8.89-17.46-17.52C632,237.23,625.89,239.56,617,247.48Z"/><rect class="cls-12" x="657.6" y="322.88" width="63.38" height="2.08" transform="translate(1378.58 647.84) rotate(-180)"/><polyline class="cls-9" points="681.29 420.99 681.25 407.86 694.46 407.81 694.49 420.95"/><path class="cls-9" d="M687.84,402.44c3.65,0,6.61,2.5,6.62,5.6s-2.94,5.63-6.58,5.64-6.61-2.5-6.62-5.6,2.94-5.63,6.58-5.64"/><polyline class="cls-10" points="697.6 399.53 697.6 417.48 699.72 417.48 699.72 399.53"/><rect class="cls-12" x="695.67" y="418.48" width="5.98" height="2.73" transform="translate(1397.31 839.69) rotate(-180)"/><rect class="cls-10" x="696.23" y="418.93" width="4.85" height="1.83" transform="translate(1397.31 839.69) rotate(-180)"/><polyline class="cls-12" points="701.87 422.39 701.87 421.61 695.37 421.61 695.37 422.39"/><rect class="cls-12" x="695.45" y="417.31" width="6.5" height="0.78" transform="translate(1397.4 835.4) rotate(-180)"/><polygon class="cls-10" points="695.37 421.61 701.87 421.61 701.64 421.21 695.67 421.21 695.37 421.61"/><polygon class="cls-10" points="701.95 418.09 695.45 418.09 695.68 418.48 701.65 418.48 701.95 418.09"/><polyline class="cls-12" points="696.23 401.58 696.23 417.48 698.35 417.48 698.35 401.58"/><polyline class="cls-12" points="698.96 401.58 698.96 417.48 701.08 417.48 701.08 401.58"/><polyline class="cls-10" points="676.24 399.53 676.24 417.48 678.36 417.48 678.36 399.53"/><rect class="cls-12" x="674.32" y="418.48" width="5.98" height="2.73" transform="translate(1354.61 839.69) rotate(-180)"/><rect class="cls-10" x="674.88" y="418.93" width="4.85" height="1.83" transform="translate(1354.61 839.69) rotate(-180)"/><polyline class="cls-12" points="680.51 422.39 680.51 421.61 674.02 421.61 674.02 422.39"/><rect class="cls-12" x="674.1" y="417.31" width="6.5" height="0.78" transform="translate(1354.69 835.4) rotate(-180)"/><polygon class="cls-10" points="674.02 421.61 680.51 421.61 680.29 421.21 674.32 421.21 674.02 421.61"/><polygon class="cls-10" points="680.59 418.09 674.1 418.09 674.32 418.48 680.3 418.48 680.59 418.09"/><polyline class="cls-12" points="674.88 401.58 674.88 417.48 677 417.48 677 401.58"/><polyline class="cls-12" points="677.61 401.58 677.61 417.48 679.73 417.48 679.73 401.58"/><rect class="cls-12" x="674.32" y="398.48" width="27.33" height="3.08" transform="translate(1375.96 800.04) rotate(-180)"/><polygon class="cls-4" points="451.96 368.02 534.62 328.33 617.27 368.02 451.96 368.02"/><rect class="cls-10" x="451.96" y="368.53" width="165.31" height="9.5"/><rect class="cls-2" x="451.96" y="378.03" width="165.31" height="63.55"/><rect class="cls-12" x="458.09" y="378.03" width="10.31" height="63.55"/><rect class="cls-12" x="481.76" y="378.03" width="10.31" height="63.55"/><rect class="cls-12" x="505.43" y="378.03" width="10.31" height="63.55"/><rect class="cls-12" x="529.1" y="378.03" width="10.31" height="63.55"/><rect class="cls-12" x="552.77" y="378.03" width="10.31" height="63.55"/><rect class="cls-12" x="576.44" y="378.03" width="10.31" height="63.55"/><rect class="cls-12" x="600.11" y="378.03" width="10.31" height="63.55"/><rect class="cls-10" x="451.96" y="437.1" width="165.31" height="4.47"/><rect class="cls-8" x="492.73" y="260.89" width="7.14" height="44.43"/><rect class="cls-8" x="507.81" y="260.89" width="7.14" height="44.43"/><rect class="cls-8" x="522.89" y="260.89" width="7.14" height="44.43"/><rect class="cls-8" x="537.96" y="260.89" width="7.14" height="44.43"/><rect class="cls-8" x="553.04" y="260.89" width="7.14" height="44.43"/><rect class="cls-8" x="568.12" y="260.89" width="7.14" height="44.43"/><rect class="cls-4" x="489.1" y="246.68" width="88.4" height="3.45"/><polygon class="cls-18" points="861.38 285.39 861.38 276.05 856.23 276.05 856.23 266.7 825.36 266.7 825.36 276.05 820.21 276.05 820.21 285.39 815.06 285.39 815.06 294.74 867.81 294.74 867.81 285.39 861.38 285.39"/><polygon class="cls-8" points="816.83 293.78 816.83 286.78 820.83 286.78 820.83 278.78 826.83 278.78 826.83 268.78 854.83 268.78 854.83 278.78 859.83 278.78 859.83 286.78 866.83 286.78 866.83 293.78 816.83 293.78"/><rect class="cls-8" x="809.19" y="293.15" width="64.33" height="134.66"/><rect class="cls-19" x="805.8" y="427.61" width="71.12" height="10.17"/><rect class="cls-20" x="809.19" y="410.41" width="64.33" height="17.17"/><path class="cls-21" d="M847.89,337.94v-13.1c0-4.68-2.93-8.51-6.49-8.51s-6.49,3.83-6.49,8.51v13.1Z"/><path class="cls-22" d="M836,336.61V325.22c0-4.17,2.44-7.56,5.41-7.56s5.41,3.39,5.41,7.56v11.39Z"/><path class="cls-21" d="M867.77,337.94v-13.1c0-4.68-2.93-8.51-6.49-8.51s-6.49,3.83-6.49,8.51v13.1Z"/><path class="cls-21" d="M828,337.94v-13.1c0-4.68-2.93-8.51-6.49-8.51s-6.49,3.83-6.49,8.51v13.1Z"/><path class="cls-22" d="M816.11,336.61V324.84c0-4,2.44-7.18,5.41-7.18s5.41,3.22,5.41,7.18v11.77Z"/><path class="cls-22" d="M855.87,336.61V324.84c0-4,2.44-7.18,5.41-7.18s5.41,3.22,5.41,7.18v11.77Z"/><rect class="cls-23" x="809.19" y="340.49" width="64.33" height="8.7"/><path class="cls-18" d="M836.07,336.61h10.74V325.22a9.43,9.43,0,0,0-1.33-4.94Z"/><path class="cls-18" d="M855.95,336.61h10.74V325.22a9.43,9.43,0,0,0-1.33-4.94Z"/><path class="cls-18" d="M816.19,336.61h10.74V325.22a9.43,9.43,0,0,0-1.33-4.94Z"/><rect class="cls-21" x="820.65" y="317.24" width="1.74" height="19.78"/><rect class="cls-21" x="820.45" y="321.05" width="2.15" height="12.98" transform="translate(1149.07 -493.98) rotate(90)"/><path class="cls-21" d="M849.06,420.32V404.77c0-5.55-3.48-10.1-7.7-10.1s-7.7,4.54-7.7,10.1v15.55Z"/><path class="cls-22" d="M834.94,418.74V405.23c0-4.95,2.9-9,6.42-9s6.42,4,6.42,9v13.51Z"/><path class="cls-21" d="M869.6,420.32V404.77c0-5.55-3.48-10.1-7.7-10.1s-7.7,4.54-7.7,10.1v15.55Z"/><path class="cls-21" d="M828.52,420.32V404.77c0-5.55-3.48-10.1-7.7-10.1s-7.7,4.54-7.7,10.1v15.55Z"/><path class="cls-22" d="M814.4,418.74v-14c0-4.7,2.9-8.52,6.42-8.52s6.42,3.82,6.42,8.52v14Z"/><path class="cls-22" d="M855.48,418.74v-14c0-4.7,2.9-8.52,6.42-8.52s6.42,3.82,6.42,8.52v14Z"/><path class="cls-18" d="M835,418.74h12.75V405.23a11.19,11.19,0,0,0-1.57-5.86Z"/><path class="cls-18" d="M855.57,418.74h12.75V405.23a11.19,11.19,0,0,0-1.57-5.86Z"/><path class="cls-18" d="M814.49,418.74h12.75V405.23a11.19,11.19,0,0,0-1.57-5.86Z"/><rect class="cls-21" x="840.07" y="395.96" width="2.57" height="23.42"/><rect class="cls-21" x="839.78" y="399.97" width="3.16" height="15.41" transform="translate(1249.03 -433.69) rotate(90)"/><rect class="cls-21" x="819.53" y="395.76" width="2.57" height="23.48"/><rect class="cls-21" x="819.24" y="399.97" width="3.16" height="15.41" transform="translate(1228.49 -413.14) rotate(90)"/><rect class="cls-21" x="860.61" y="395.86" width="2.57" height="23.26"/><rect class="cls-21" x="860.32" y="399.97" width="3.16" height="15.41" transform="translate(1269.57 -454.23) rotate(90)"/><rect class="cls-21" x="807.99" y="338.62" width="66.74" height="3.77"/><rect class="cls-24" x="807.99" y="341.77" width="66.74" height="3.77"/><rect class="cls-21" x="807.99" y="420.69" width="66.74" height="3.77"/><rect class="cls-24" x="807.99" y="423.23" width="66.74" height="4.38"/><path class="cls-21" d="M847.87,303.37V290.21c0-4.7-2.95-8.55-6.52-8.55s-6.52,3.85-6.52,8.55v13.16Z"/><path class="cls-22" d="M835.93,302V290.21c0-4,2.45-7.21,5.43-7.21s5.43,3.23,5.43,7.21V302Z"/><path class="cls-18" d="M836,302h10.79V290.6a9.47,9.47,0,0,0-1.33-5Z"/><rect class="cls-21" x="840.27" y="282.67" width="2.17" height="19.68"/><rect class="cls-21" x="840.02" y="286.15" width="2.68" height="13.03" transform="translate(1134.02 -548.69) rotate(90)"/><rect class="cls-21" x="840.49" y="317.65" width="1.74" height="19.78"/><rect class="cls-21" x="840.36" y="322.02" width="2.15" height="11.85" transform="translate(1169.39 -513.49) rotate(90)"/><rect class="cls-21" x="860.45" y="317.65" width="1.74" height="19.78"/><rect class="cls-21" x="860.11" y="321.6" width="2.15" height="12.71" transform="translate(1189.13 -533.23) rotate(90)"/><path class="cls-21" d="M867.77,376v-13.1c0-4.68-2.93-8.51-6.49-8.51s-6.49,3.83-6.49,8.51V376Z"/><path class="cls-21" d="M828,376v-13.1c0-4.68-2.93-8.51-6.49-8.51s-6.49,3.83-6.49,8.51V376Z"/><path class="cls-22" d="M816.11,374.63V362.86c0-4,2.44-7.18,5.41-7.18s5.41,3.22,5.41,7.18v11.77Z"/><path class="cls-22" d="M855.87,374.63V362.86c0-4,2.44-7.18,5.41-7.18s5.41,3.22,5.41,7.18v11.77Z"/><rect class="cls-25" x="809.19" y="378.51" width="64.33" height="8.7"/><path class="cls-18" d="M855.95,374.63h10.74V363.24a9.43,9.43,0,0,0-1.33-4.94Z"/><path class="cls-18" d="M816.19,374.63h10.74V363.24a9.43,9.43,0,0,0-1.33-4.94Z"/><rect class="cls-21" x="820.65" y="355.27" width="1.74" height="19.78"/><rect class="cls-21" x="820.45" y="357.49" width="2.15" height="12.98" transform="translate(1185.5 -457.54) rotate(90)"/><rect class="cls-21" x="807.99" y="376.64" width="66.74" height="3.77"/><rect class="cls-24" x="807.99" y="379.79" width="66.74" height="3.77"/><rect class="cls-21" x="860.45" y="355.67" width="1.74" height="19.78"/><rect class="cls-21" x="860.24" y="357.9" width="2.15" height="12.98" transform="translate(1225.71 -496.93) rotate(90)"/><rect class="cls-18" x="812.73" y="299.25" width="5.89" height="3.38"/><rect class="cls-18" x="814.58" y="303.4" width="5.89" height="3.38"/><rect class="cls-18" x="809.58" y="348.36" width="5.89" height="3.38"/><rect class="cls-18" x="811.17" y="352.51" width="5.89" height="3.38"/><rect class="cls-18" x="860.89" y="306.38" width="5.89" height="3.38"/><rect class="cls-18" x="866.04" y="302.36" width="5.89" height="3.38"/><rect class="cls-18" x="864.02" y="310.53" width="5.89" height="3.38"/><rect class="cls-18" x="821.17" y="303.4" width="5.89" height="3.38"/><rect class="cls-18" x="832.49" y="365.35" width="5.89" height="3.38"/><rect class="cls-18" x="835.62" y="369.5" width="5.89" height="3.38"/><rect class="cls-18" x="826.62" y="390.1" width="5.89" height="3.38"/><rect class="cls-18" x="865.21" y="386.93" width="5.89" height="3.38"/><rect class="cls-18" x="847.2" y="353.66" width="5.89" height="3.38"/><rect class="cls-18" x="842.22" y="369.5" width="5.89" height="3.38"/><rect class="cls-18" x="846.79" y="274.02" width="5.89" height="3.38"/><rect class="cls-18" x="826.93" y="292.81" width="5.89" height="3.38"/><polygon class="cls-18" points="798.26 285.39 798.26 276.05 793.12 276.05 793.12 266.7 762.24 266.7 762.24 276.05 757.1 276.05 757.1 285.39 751.95 285.39 751.95 294.74 804.7 294.74 804.7 285.39 798.26 285.39"/><polygon class="cls-8" points="752.83 293.78 752.83 286.78 758.83 286.78 758.83 278.78 763.83 278.78 763.83 268.78 792.83 268.78 792.83 278.78 796.83 278.78 796.83 286.78 803.83 286.78 803.83 293.78 752.83 293.78"/><rect class="cls-8" x="746.08" y="293.15" width="64.33" height="134.66"/><rect class="cls-19" x="742.68" y="427.61" width="71.12" height="10.17"/><rect class="cls-26" x="746.08" y="410.41" width="64.33" height="17.17"/><path class="cls-21" d="M784.78,337.94v-13.1c0-4.68-2.93-8.51-6.49-8.51s-6.49,3.83-6.49,8.51v13.1Z"/><path class="cls-22" d="M772.88,336.61V325.22c0-4.17,2.44-7.56,5.41-7.56s5.41,3.39,5.41,7.56v11.39Z"/><path class="cls-21" d="M804.66,337.94v-13.1c0-4.68-2.93-8.51-6.49-8.51s-6.49,3.83-6.49,8.51v13.1Z"/><path class="cls-21" d="M764.9,337.94v-13.1c0-4.68-2.93-8.51-6.49-8.51s-6.49,3.83-6.49,8.51v13.1Z"/><path class="cls-22" d="M753,336.61V324.84c0-4,2.44-7.18,5.41-7.18s5.41,3.22,5.41,7.18v11.77Z"/><path class="cls-22" d="M792.76,336.61V324.84c0-4,2.44-7.18,5.41-7.18s5.41,3.22,5.41,7.18v11.77Z"/><rect class="cls-27" x="746.08" y="340.49" width="64.33" height="8.7"/><path class="cls-18" d="M773,336.61H783.7V325.22a9.43,9.43,0,0,0-1.33-4.94Z"/><path class="cls-18" d="M792.83,336.61h10.74V325.22a9.43,9.43,0,0,0-1.33-4.94Z"/><path class="cls-18" d="M753.07,336.61h10.74V325.22a9.43,9.43,0,0,0-1.33-4.94Z"/><rect class="cls-21" x="757.54" y="317.24" width="1.74" height="19.78"/><rect class="cls-21" x="757.34" y="321.05" width="2.15" height="12.98" transform="translate(1085.95 -430.87) rotate(90)"/><path class="cls-21" d="M785.95,420.32V404.77c0-5.55-3.48-10.1-7.7-10.1s-7.7,4.54-7.7,10.1v15.55Z"/><path class="cls-22" d="M771.83,418.74V405.23c0-4.95,2.9-9,6.42-9s6.42,4,6.42,9v13.51Z"/><path class="cls-21" d="M806.49,420.32V404.77c0-5.55-3.48-10.1-7.7-10.1s-7.7,4.54-7.7,10.1v15.55Z"/><path class="cls-21" d="M765.41,420.32V404.77c0-5.55-3.48-10.1-7.7-10.1s-7.7,4.54-7.7,10.1v15.55Z"/><path class="cls-22" d="M751.29,418.74v-14c0-4.7,2.9-8.52,6.42-8.52s6.42,3.82,6.42,8.52v14Z"/><path class="cls-22" d="M792.37,418.74v-14c0-4.7,2.9-8.52,6.42-8.52s6.42,3.82,6.42,8.52v14Z"/><path class="cls-18" d="M771.91,418.74h12.75V405.23a11.19,11.19,0,0,0-1.57-5.86Z"/><path class="cls-18" d="M792.45,418.74H805.2V405.23a11.19,11.19,0,0,0-1.57-5.86Z"/><path class="cls-18" d="M751.37,418.74h12.75V405.23a11.19,11.19,0,0,0-1.57-5.86Z"/><rect class="cls-21" x="776.96" y="395.96" width="2.57" height="23.42"/><rect class="cls-21" x="776.66" y="399.97" width="3.16" height="15.41" transform="translate(1185.92 -370.57) rotate(90)"/><rect class="cls-21" x="756.42" y="395.76" width="2.57" height="23.48"/><rect class="cls-21" x="756.12" y="399.97" width="3.16" height="15.41" transform="translate(1165.38 -350.03) rotate(90)"/><rect class="cls-21" x="797.5" y="395.86" width="2.57" height="23.26"/><rect class="cls-21" x="797.2" y="399.97" width="3.16" height="15.41" transform="translate(1206.46 -391.11) rotate(90)"/><rect class="cls-21" x="744.87" y="338.62" width="66.74" height="3.77"/><rect class="cls-24" x="744.87" y="341.77" width="66.74" height="3.77"/><rect class="cls-21" x="744.87" y="420.69" width="66.74" height="3.77"/><rect class="cls-24" x="744.87" y="423.23" width="66.74" height="4.38"/><path class="cls-21" d="M784.76,303.37V290.21c0-4.7-2.95-8.55-6.52-8.55s-6.52,3.85-6.52,8.55v13.16Z"/><path class="cls-22" d="M772.81,302V290.21c0-4,2.45-7.21,5.43-7.21s5.43,3.23,5.43,7.21V302Z"/><path class="cls-18" d="M772.89,302h10.79V290.6a9.47,9.47,0,0,0-1.33-5Z"/><rect class="cls-21" x="777.16" y="282.67" width="2.17" height="19.68"/><rect class="cls-21" x="776.91" y="286.15" width="2.68" height="13.03" transform="translate(1070.91 -485.58) rotate(90)"/><rect class="cls-21" x="777.37" y="317.65" width="1.74" height="19.78"/><rect class="cls-21" x="777.25" y="322.02" width="2.15" height="11.85" transform="translate(1106.28 -450.37) rotate(90)"/><rect class="cls-21" x="797.33" y="317.65" width="1.74" height="19.78"/><rect class="cls-21" x="796.99" y="321.6" width="2.15" height="12.71" transform="translate(1126.02 -470.12) rotate(90)"/><path class="cls-21" d="M804.66,376v-13.1c0-4.68-2.93-8.51-6.49-8.51s-6.49,3.83-6.49,8.51V376Z"/><path class="cls-21" d="M764.9,376v-13.1c0-4.68-2.93-8.51-6.49-8.51s-6.49,3.83-6.49,8.51V376Z"/><path class="cls-22" d="M753,374.63V362.86c0-4,2.44-7.18,5.41-7.18s5.41,3.22,5.41,7.18v11.77Z"/><path class="cls-22" d="M792.76,374.63V362.86c0-4,2.44-7.18,5.41-7.18s5.41,3.22,5.41,7.18v11.77Z"/><rect class="cls-28" x="746.08" y="378.51" width="64.33" height="8.7"/><path class="cls-18" d="M792.83,374.63h10.74V363.24a9.43,9.43,0,0,0-1.33-4.94Z"/><path class="cls-18" d="M753.07,374.63h10.74V363.24a9.43,9.43,0,0,0-1.33-4.94Z"/><rect class="cls-21" x="757.54" y="355.27" width="1.74" height="19.78"/><rect class="cls-21" x="757.34" y="357.49" width="2.15" height="12.98" transform="translate(1122.39 -394.43) rotate(90)"/><rect class="cls-21" x="744.87" y="376.64" width="66.74" height="3.77"/><rect class="cls-24" x="744.87" y="379.79" width="66.74" height="3.77"/><rect class="cls-21" x="797.33" y="355.67" width="1.74" height="19.78"/><rect class="cls-21" x="797.13" y="357.9" width="2.15" height="12.98" transform="translate(1162.59 -433.81) rotate(90)"/><rect class="cls-18" x="749.62" y="299.25" width="5.89" height="3.38"/><rect class="cls-18" x="751.46" y="303.4" width="5.89" height="3.38"/><rect class="cls-18" x="746.46" y="348.36" width="5.89" height="3.38"/><rect class="cls-18" x="748.05" y="352.51" width="5.89" height="3.38"/><rect class="cls-18" x="797.78" y="306.38" width="5.89" height="3.38"/><rect class="cls-18" x="802.92" y="302.36" width="5.89" height="3.38"/><rect class="cls-18" x="800.91" y="310.53" width="5.89" height="3.38"/><rect class="cls-18" x="758.06" y="303.4" width="5.89" height="3.38"/><rect class="cls-18" x="769.38" y="365.35" width="5.89" height="3.38"/><rect class="cls-18" x="772.51" y="369.5" width="5.89" height="3.38"/><rect class="cls-18" x="763.5" y="390.1" width="5.89" height="3.38"/><rect class="cls-18" x="802.1" y="386.93" width="5.89" height="3.38"/><rect class="cls-18" x="784.09" y="353.66" width="5.89" height="3.38"/><rect class="cls-18" x="779.11" y="369.5" width="5.89" height="3.38"/><rect class="cls-18" x="783.68" y="274.02" width="5.89" height="3.38"/><rect class="cls-18" x="763.82" y="292.81" width="5.89" height="3.38"/><path class="cls-29" d="M883.88,423.79c0-.27,0-.55,0-.82,0-9.49-3.75-17.19-8.38-17.19s-8.38,7.7-8.38,17.19c0,.28,0,.55,0,.82Z"/><path class="cls-30" d="M883.87,423.79c0-.27,0-.55,0-.82,0-9.49-3.72-17.19-8.38-17.19v18Z"/><rect class="cls-12" x="941.5" y="404.09" width="102.31" height="33.37"/><rect class="cls-8" x="895.74" y="236.91" width="46.65" height="43.44" transform="translate(1838.12 517.25) rotate(-180)"/><rect class="cls-10" x="893.61" y="237.18" width="8.24" height="39.23" transform="translate(-0.71 2.49) rotate(-0.16)"/><rect class="cls-4" x="893.67" y="272.49" width="8.98" height="3.91" transform="translate(-0.76 2.49) rotate(-0.16)"/><rect class="cls-4" x="893.65" y="267.45" width="8.98" height="3.91" transform="translate(-0.74 2.49) rotate(-0.16)"/><rect class="cls-4" x="893.64" y="262.4" width="8.98" height="3.91" transform="translate(-0.73 2.49) rotate(-0.16)"/><rect class="cls-4" x="893.62" y="257.36" width="8.98" height="3.91" transform="translate(-0.71 2.49) rotate(-0.16)"/><rect class="cls-4" x="893.61" y="252.31" width="8.98" height="3.91" transform="translate(-0.7 2.49) rotate(-0.16)"/><rect class="cls-4" x="893.59" y="247.27" width="8.98" height="3.91" transform="translate(-0.69 2.49) rotate(-0.16)"/><rect class="cls-4" x="893.57" y="242.22" width="8.98" height="3.91" transform="translate(-0.67 2.49) rotate(-0.16)"/><rect class="cls-4" x="893.56" y="237.18" width="8.98" height="3.91" transform="translate(-0.66 2.49) rotate(-0.16)"/><rect class="cls-10" x="936.21" y="236.92" width="8.24" height="39.23" transform="translate(1881.36 510.46) rotate(179.84)"/><rect class="cls-4" x="935.52" y="272.23" width="8.98" height="3.91" transform="translate(1880.79 545.78) rotate(179.84)"/><rect class="cls-4" x="935.51" y="267.19" width="8.98" height="3.91" transform="translate(1880.74 535.69) rotate(179.84)"/><rect class="cls-4" x="935.49" y="262.14" width="8.98" height="3.91" transform="translate(1880.69 525.6) rotate(179.84)"/><rect class="cls-4" x="935.47" y="257.1" width="8.98" height="3.91" transform="translate(1880.64 515.51) rotate(179.84)"/><rect class="cls-4" x="935.46" y="252.05" width="8.98" height="3.91" transform="translate(1880.6 505.42) rotate(179.84)"/><rect class="cls-4" x="935.44" y="247.01" width="8.98" height="3.91" transform="translate(1880.55 495.33) rotate(179.84)"/><rect class="cls-4" x="935.42" y="241.96" width="8.98" height="3.91" transform="matrix(-1, 0, 0, -1, 1880.5, 485.23)"/><rect class="cls-4" x="935.41" y="236.92" width="8.98" height="3.91" transform="translate(1880.46 475.14) rotate(179.84)"/><rect class="cls-9" x="905.76" y="251.96" width="26.71" height="24.2" transform="translate(-0.73 2.54) rotate(-0.16)"/><path class="cls-9" d="M932.43,252.35c0,5.72-5.94,10.38-13.32,10.4s-13.37-4.6-13.39-10.32S911.67,242,919,242,932.41,246.62,932.43,252.35Z"/><rect class="cls-8" x="895.04" y="274.66" width="49.01" height="162.8" transform="translate(1839.08 712.12) rotate(-180)"/><polygon class="cls-10" points="952.02 341.66 889.06 341.66 895.14 353.02 944.3 353.02 952.02 341.66"/><polygon class="cls-10" points="951.02 274.66 888.06 274.66 894.14 286.02 943.3 286.02 951.02 274.66"/><rect class="cls-10" x="895.04" y="413.56" width="49.01" height="8.72" transform="translate(1839.08 835.84) rotate(-180)"/><rect class="cls-12" x="930.22" y="372.98" width="13.83" height="10.24" transform="translate(1874.27 756.19) rotate(-180)"/><path class="cls-12" d="M892.28,236.91c0-.52-.05-1.05-.05-1.59,0-9.94,6.14-18.52,15.06-22.58,0,0,0,0,0,0a28.14,28.14,0,0,1,23.83.36c.47.23.93.47,1.38.73l2.89,1.89a24.46,24.46,0,0,1,10.07,19.61c0,.53,0,1.06-.06,1.59Z"/><rect class="cls-10" x="894.61" y="370.18" width="8.24" height="39.23" transform="translate(-1.08 2.49) rotate(-0.16)"/><rect class="cls-4" x="894.67" y="405.49" width="8.98" height="3.91" transform="translate(-1.12 2.49) rotate(-0.16)"/><rect class="cls-4" x="894.65" y="400.45" width="8.98" height="3.91" transform="translate(-1.11 2.49) rotate(-0.16)"/><rect class="cls-4" x="894.64" y="395.4" width="8.98" height="3.91" transform="translate(-1.1 2.49) rotate(-0.16)"/><rect class="cls-4" x="894.62" y="390.36" width="8.98" height="3.91" transform="translate(-1.08 2.49) rotate(-0.16)"/><rect class="cls-4" x="894.61" y="385.31" width="8.98" height="3.91" transform="translate(-1.07 2.49) rotate(-0.16)"/><rect class="cls-4" x="894.59" y="380.27" width="8.98" height="3.91" transform="translate(-1.05 2.49) rotate(-0.16)"/><rect class="cls-4" x="894.57" y="375.22" width="8.98" height="3.91" transform="translate(-1.04 2.49) rotate(-0.16)"/><rect class="cls-4" x="894.56" y="370.18" width="8.98" height="3.91" transform="translate(-1.03 2.49) rotate(-0.16)"/><rect class="cls-10" x="937.21" y="369.92" width="8.24" height="39.23" transform="translate(1883.73 776.45) rotate(179.84)"/><rect class="cls-4" x="936.52" y="405.23" width="8.98" height="3.91" transform="translate(1883.15 811.77) rotate(179.84)"/><rect class="cls-4" x="936.51" y="400.19" width="8.98" height="3.91" transform="translate(1883.11 801.68) rotate(179.84)"/><rect class="cls-4" x="936.49" y="395.14" width="8.98" height="3.91" transform="translate(1883.06 791.59) rotate(179.84)"/><rect class="cls-4" x="936.47" y="390.1" width="8.98" height="3.91" transform="translate(1883.01 781.5) rotate(179.84)"/><rect class="cls-4" x="936.46" y="385.05" width="8.98" height="3.91" transform="translate(1882.97 771.41) rotate(179.84)"/><rect class="cls-4" x="936.44" y="380.01" width="8.98" height="3.91" transform="translate(1882.92 761.32) rotate(179.84)"/><rect class="cls-4" x="936.42" y="374.96" width="8.98" height="3.91" transform="matrix(-1, 0, 0, -1, 1882.87, 751.23)"/><rect class="cls-4" x="936.41" y="369.92" width="8.98" height="3.91" transform="translate(1882.82 741.14) rotate(179.84)"/><rect class="cls-9" x="906.76" y="384.96" width="26.71" height="24.2" transform="translate(-1.1 2.55) rotate(-0.16)"/><path class="cls-9" d="M933.43,385.35c0,5.72-5.94,10.38-13.32,10.4s-13.37-4.6-13.39-10.32S912.67,375,920,375,933.41,379.62,933.43,385.35Z"/><path class="cls-12" d="M923.85,201.13H913.23l5-142.63a.31.31,0,0,1,.31.3Z"/><ellipse class="cls-12" cx="918.54" cy="59" rx="5.31" ry="5.87"/><path class="cls-12" d="M1066.8,282.13h-2.63l1.24-35.35a.08.08,0,0,1,.08.07Z"/><ellipse class="cls-12" cx="1065.49" cy="246.91" rx="1.32" ry="1.45"/><rect class="cls-12" x="906.72" y="201.13" width="23.5" height="15.15"/><rect class="cls-8" x="1042.74" y="307.91" width="46.65" height="43.44" transform="translate(2132.12 659.25) rotate(-180)"/><rect class="cls-10" x="1040.61" y="308.18" width="8.24" height="39.23" transform="translate(-0.9 2.89) rotate(-0.16)"/><rect class="cls-4" x="1040.67" y="343.49" width="8.98" height="3.91" transform="translate(-0.95 2.89) rotate(-0.16)"/><rect class="cls-4" x="1040.65" y="338.45" width="8.98" height="3.91" transform="translate(-0.94 2.89) rotate(-0.16)"/><rect class="cls-4" x="1040.64" y="333.4" width="8.98" height="3.91" transform="translate(-0.92 2.89) rotate(-0.16)"/><rect class="cls-4" x="1040.62" y="328.36" width="8.98" height="3.91" transform="translate(-0.91 2.89) rotate(-0.16)"/><rect class="cls-4" x="1040.61" y="323.31" width="8.98" height="3.91" transform="translate(-0.9 2.89) rotate(-0.16)"/><rect class="cls-4" x="1040.59" y="318.27" width="8.98" height="3.91" transform="translate(-0.88 2.89) rotate(-0.16)"/><rect class="cls-4" x="1040.57" y="313.22" width="8.98" height="3.91" transform="translate(-0.87 2.89) rotate(-0.16)"/><rect class="cls-4" x="1040.56" y="308.18" width="8.98" height="3.91" transform="translate(-0.85 2.89) rotate(-0.16)"/><rect class="cls-10" x="1083.21" y="307.92" width="8.24" height="39.23" transform="translate(2175.56 652.05) rotate(179.84)"/><rect class="cls-4" x="1082.52" y="343.23" width="8.98" height="3.91" transform="translate(2174.98 687.37) rotate(179.84)"/><rect class="cls-4" x="1082.51" y="338.19" width="8.98" height="3.91" transform="translate(2174.93 677.28) rotate(179.84)"/><rect class="cls-4" x="1082.49" y="333.14" width="8.98" height="3.91" transform="translate(2174.89 667.19) rotate(179.84)"/><rect class="cls-4" x="1082.47" y="328.1" width="8.98" height="3.91" transform="translate(2174.84 657.1) rotate(179.84)"/><rect class="cls-4" x="1082.46" y="323.05" width="8.98" height="3.91" transform="translate(2174.79 647.01) rotate(179.84)"/><rect class="cls-4" x="1082.44" y="318.01" width="8.98" height="3.91" transform="translate(2174.75 636.92) rotate(179.84)"/><rect class="cls-4" x="1082.42" y="312.96" width="8.98" height="3.91" transform="matrix(-1, 0, 0, -1, 2174.7, 626.83)"/><rect class="cls-4" x="1082.41" y="307.92" width="8.98" height="3.91" transform="translate(2174.65 616.74) rotate(179.84)"/><rect class="cls-9" x="1052.76" y="322.96" width="26.71" height="24.2" transform="translate(-0.92 2.95) rotate(-0.16)"/><path class="cls-9" d="M1079.43,323.35c0,5.72-5.94,10.38-13.32,10.4s-13.37-4.6-13.39-10.32S1058.67,313,1066,313,1079.41,317.62,1079.43,323.35Z"/><rect class="cls-8" x="1042.04" y="345.66" width="49.01" height="92.61" transform="translate(2133.08 783.93) rotate(-180)"/><polygon class="cls-10" points="1098.02 345.66 1035.06 345.66 1041.14 357.02 1090.3 357.02 1098.02 345.66"/><path class="cls-12" d="M1039.28,307.91c0-.52-.05-1.05-.05-1.59,0-9.94,6.14-18.52,15.06-22.58,0,0,0,0,0,0a28.14,28.14,0,0,1,23.83.36c.47.23.93.47,1.38.73l2.89,1.89a24.46,24.46,0,0,1,10.07,19.61c0,.53,0,1.06-.06,1.59Z"/><path class="cls-12" d="M1199.1,358.13h-4.73l2.23-35.35c.08,0,.14,0,.14.07Z"/><ellipse class="cls-12" cx="1196.74" cy="322.91" rx="2.36" ry="1.45"/><rect class="cls-8" x="1152.56" y="383.91" width="92.72" height="43.44" transform="translate(2397.83 811.25) rotate(-180)"/><polygon class="cls-10" points="1255.19 411.66 1145.06 411.66 1156 423.02 1241.33 423.02 1255.19 411.66"/><path class="cls-12" d="M1152.65,383.91a13.39,13.39,0,0,1-.1-1.59c0-9.94,8-18.52,24.07-22.58,0,0,0,0,0,0a85.53,85.53,0,0,1,20.74-2.47,84.43,84.43,0,0,1,22.08,2.83c.84.23,1.67.47,2.48.73l5.2,1.89c11,4.58,18.1,11.67,18.1,19.61a13.26,13.26,0,0,1-.1,1.59Z"/><rect class="cls-12" x="895.74" y="313.02" width="48.31" height="6"/><rect class="cls-9" x="1043.81" y="370.17" width="8.26" height="24.96"/><rect class="cls-9" x="1057.23" y="370.17" width="8.26" height="24.96"/><rect class="cls-9" x="1084.05" y="370.02" width="7" height="25"/><path class="cls-31" d="M914.57,438.78c0-.42,0-.85,0-1.27a26.54,26.54,0,0,0-53.09,0c0,.43,0,.85,0,1.27Z"/><path class="cls-30" d="M914.52,438.78c0-.42,0-.85,0-1.27A26.47,26.47,0,0,0,888,411v27.81Z"/><path class="cls-31" d="M1265.55,438.78c0-.42,0-.85,0-1.27a26.54,26.54,0,0,0-53.09,0c0,.43,0,.85,0,1.27Z"/><path class="cls-30" d="M1265.5,438.78c0-.42,0-.85,0-1.27A26.47,26.47,0,0,0,1239,411v27.81Z"/><path class="cls-29" d="M988.48,424.54c0-.27,0-.55,0-.82,0-9.49-3.75-17.19-8.38-17.19s-8.38,7.7-8.38,17.19c0,.28,0,.55,0,.82Z"/><path class="cls-30" d="M988.46,424.54c0-.27,0-.55,0-.82,0-9.49-3.72-17.19-8.38-17.19v18Z"/><path class="cls-31" d="M1019.16,439.52c0-.42,0-.85,0-1.27a26.54,26.54,0,0,0-53.09,0c0,.43,0,.85,0,1.27Z"/><path class="cls-30" d="M1019.12,439.52c0-.42,0-.85,0-1.27a26.47,26.47,0,0,0-26.54-26.54v27.81Z"/><path class="cls-31" d="M1102.72,439.52c0-.42,0-.85,0-1.27a26.54,26.54,0,0,0-53.09,0c0,.43,0,.85,0,1.27Z"/><path class="cls-30" d="M1102.67,439.52c0-.42,0-.85,0-1.27a26.47,26.47,0,0,0-26.54-26.54v27.81Z"/><path class="cls-31" d="M1126,439.52c0-.55,0-1.1,0-1.66,0-19.12,11.88-34.62,26.54-34.62s23.55,15.5,23.55,34.62c0,.56,0,1.11,0,1.66Z"/><path class="cls-30" d="M1126.09,439.52c0-.55,0-1.1,0-1.66,0-19.12,11.78-34.62,26.54-34.62v36.28Z"/><path class="cls-31" d="M1156.07,439.44c0-.53,0-1.06,0-1.6,0-18.38,9.53-33.29,21.29-33.29s21.29,14.91,21.29,33.29c0,.54,0,1.07,0,1.6Z"/><path class="cls-30" d="M1156.11,439.44c0-.53,0-1.06,0-1.6,0-18.38,9.45-33.29,21.29-33.29v34.88Z"/><path class="cls-31" d="M1062.41,439.52c0-.3,0-.59,0-.89a18.62,18.62,0,0,0-37.24,0c0,.3,0,.6,0,.89Z"/><path class="cls-30" d="M1062.37,439.52c0-.3,0-.59,0-.89A18.57,18.57,0,0,0,1043.78,420v19.51Z"/><rect class="cls-2" x="727.76" y="420.38" width="4.04" height="15.71" transform="translate(1459.57 856.46) rotate(-180)"/><polygon class="cls-3" points="716.88 424.18 742.68 424.18 741.89 420.18 731.59 420.18 731.59 418.18 741.49 418.18 740.88 415.18 734.59 415.18 734.59 413.18 740.48 413.18 729.79 360.42 716.88 424.18"/><ellipse class="cls-4" cx="731.93" cy="383.11" rx="5.46" ry="9.94" transform="translate(-94.19 379.79) rotate(-27.4)"/><ellipse class="cls-4" cx="733.6" cy="396.9" rx="7.34" ry="10.51"/><ellipse class="cls-4" cx="724.37" cy="406.84" rx="7.34" ry="10.51"/><ellipse class="cls-4" cx="725.08" cy="390.51" rx="10.51" ry="7.34" transform="translate(83.83 907.27) rotate(-67.17)"/><rect class="cls-2" x="303.67" y="421.49" width="4.04" height="15.71" transform="translate(611.39 858.68) rotate(-180)"/><polygon class="cls-3" points="292.79 425.3 318.59 425.3 317.8 421.3 307.5 421.3 307.5 419.3 317.4 419.3 316.79 416.3 310.5 416.3 310.5 414.3 316.39 414.3 305.69 361.53 292.79 425.3"/><ellipse class="cls-4" cx="307.83" cy="384.22" rx="5.46" ry="9.94" transform="translate(-142.28 184.76) rotate(-27.4)"/><ellipse class="cls-4" cx="309.51" cy="398.01" rx="7.34" ry="10.51"/><ellipse class="cls-4" cx="300.28" cy="407.95" rx="7.34" ry="10.51"/><ellipse class="cls-4" cx="300.99" cy="391.63" rx="10.51" ry="7.34" transform="translate(-176.74 517.08) rotate(-67.17)"/><rect class="cls-2" x="37.96" y="420.81" width="4.04" height="15.71" transform="translate(79.96 857.33) rotate(-180)"/><polygon class="cls-3" points="27.08 424.62 52.88 424.62 52.08 420.62 41.79 420.62 41.79 418.62 51.69 418.62 51.08 415.62 44.79 415.62 44.79 413.62 50.68 413.62 39.98 360.86 27.08 424.62"/><ellipse class="cls-4" cx="42.12" cy="383.54" rx="5.46" ry="9.94" transform="translate(-171.77 62.41) rotate(-27.4)"/><ellipse class="cls-4" cx="43.79" cy="397.34" rx="7.34" ry="10.51"/><ellipse class="cls-4" cx="34.57" cy="407.28" rx="7.34" ry="10.51"/><ellipse class="cls-4" cx="35.28" cy="390.95" rx="10.51" ry="7.34" transform="translate(-338.73 271.77) rotate(-67.17)"/><rect class="cls-2" x="68.06" y="420.81" width="4.04" height="15.71" transform="translate(140.16 857.33) rotate(-180)"/><polygon class="cls-3" points="57.18 424.62 82.98 424.62 82.19 420.62 71.89 420.62 71.89 418.62 81.79 418.62 81.18 415.62 74.89 415.62 74.89 413.62 80.78 413.62 70.08 360.86 57.18 424.62"/><ellipse class="cls-4" cx="72.22" cy="383.54" rx="5.46" ry="9.94" transform="translate(-168.4 76.26) rotate(-27.4)"/><ellipse class="cls-4" cx="73.89" cy="397.34" rx="7.34" ry="10.51"/><ellipse class="cls-4" cx="64.67" cy="407.28" rx="7.34" ry="10.51"/><ellipse class="cls-4" cx="65.38" cy="390.95" rx="10.51" ry="7.34" transform="translate(-320.31 299.51) rotate(-67.17)"/><path class="cls-6" d="M1210,500a13,13,0,0,1-13,13H353a13,13,0,0,1,0-26H500a13,13,0,0,0,4.18-21.18A22.56,22.56,0,0,0,500,463H21a4.52,4.52,0,0,1-.52,0A13,13,0,0,1,21,437H1097a13,13,0,0,1,0,26H732.13a13.18,13.18,0,0,0-.79,24H1197A13,13,0,0,1,1210,500Z"/><line class="cls-32" x1="8.05" y1="450.02" x2="19.76" y2="450.02"/><line class="cls-33" x1="42.7" y1="450.02" x2="1086.87" y2="450.02"/><line class="cls-32" x1="1098.34" y1="450.02" x2="1110.05" y2="450.02"/><circle class="cls-6" cx="314.48" cy="501.22" r="11.8"/><path class="cls-34" d="M738.21,445.52H767.3l-2-8.91a2,2,0,0,0-.57-.84,2.57,2.57,0,0,0-1.41-.61H742.14a2.52,2.52,0,0,0-1.41.61,2,2,0,0,0-.54.81Z"/><path class="cls-2" d="M765.87,445l-1.67-7.88c-.06-.15-.15-.15-.27-.25a.88.88,0,0,0-.65-.17H742.23c-.15,0-.43-.17-.64,0a1.43,1.43,0,0,0-.25.5l-1.7,7.78Z"/><rect class="cls-34" x="734.35" y="444.01" width="44.13" height="11" rx="1.96" ry="1.96" transform="translate(1512.82 899.03) rotate(180)"/><rect class="cls-34" x="751.74" y="435.48" width="1.02" height="10.15" transform="translate(1504.49 881.11) rotate(-180)"/><rect class="cls-21" x="753.33" y="445.71" width="3.08" height="1.28" rx="0.64" ry="0.64" transform="translate(1509.74 892.71) rotate(-180)"/><path class="cls-24" d="M775.75,446.35h2.74v3.16h-2.74a1.62,1.62,0,0,1,0-3.16Z"/><path class="cls-24" d="M736.29,449.51h-1.94v-3.16h1.94c.49,0,.89.71.89,1.58S736.77,449.51,736.29,449.51Z"/><path class="cls-21" d="M765.82,455a5.31,5.31,0,0,1,10.58,0Z"/><path class="cls-21" d="M736.42,455A5.31,5.31,0,0,1,747,455Z"/><circle class="cls-21" cx="771.11" cy="455.47" r="3.88"/><circle class="cls-6" cx="771.11" cy="455.47" r="2.35"/><circle class="cls-21" cx="741.71" cy="455.47" r="3.88"/><circle class="cls-6" cx="741.71" cy="455.47" r="2.35"/><path class="cls-35" d="M228.57,83A16.93,16.93,0,0,0,205.83,67a25.76,25.76,0,0,0-44.28-9.73,24,24,0,0,0-37,8.88A17.9,17.9,0,0,0,98.37,82a18.17,18.17,0,0,0,16.49,18.13c.35,0,.71.36,1.08.36h97.4a9.14,9.14,0,0,0,4.36-1.44A17.35,17.35,0,0,0,228.57,83Z"/><path class="cls-35" d="M1114.76,202.69A16.93,16.93,0,0,0,1092,186.74a25.76,25.76,0,0,0-44.28-9.73,24,24,0,0,0-37,8.88,17.9,17.9,0,0,0-26.22,15.86A18.17,18.17,0,0,0,1001,219.87c.35,0,.71.36,1.08.36h97.4a9.14,9.14,0,0,0,4.36-1.44A17.35,17.35,0,0,0,1114.76,202.69Z"/></g></g></svg>