<?xml version="1.0" encoding="utf-8"?>
<!-- Generator: Adobe Illustrator 21.0.0, SVG Export Plug-In . SVG Version: 6.00 Build 0)  -->
<svg version="1.1" id="Layer_1" xmlns="http://www.w3.org/2000/svg" xmlns:xlink="http://www.w3.org/1999/xlink" x="0px" y="0px"
	 viewBox="0 0 1280 600" style="enable-background:new 0 0 1280 600;" xml:space="preserve">
<style type="text/css">
	.st0{fill:#FFD800;}
	.st1{fill:#F7E89F;}
	.st2{fill:#4D4D4D;}
	.st3{fill:#FF8800;}
	.st4{fill:#1A1A1A;}
	.st5{fill:#0099FF;}
	.st6{fill:#F2F2F2;}
	.st7{fill:#696969;}
	.st8{fill:#F4F4F4;}
	.st9{fill:#666666;}
	.st10{fill:#7F7F7F;}
	.st11{fill:#B9E3FF;}
	.st12{fill:#7B7B7B;}
	.st13{fill:#484848;}
	.st14{fill:#00385D;}
	.st15{fill:#305944;}
	.st16{fill:#17EA92;}
	.st17{fill:#B2EDCF;}
	.st18{fill:#C19710;}
	.st19{fill:#BA6300;}
	.st20{fill:#FFB35C;}
	.st21{fill:#FF5C5C;}
	.st22{fill:#FF0000;}
	.st23{fill:#A30000;}
	.st24{fill:#F48BBE;}
	.st25{fill:#E80070;}
	.st26{fill:#940048;}
	.st27{fill:#EDA2FF;}
	.st28{fill:#BE00E8;}
	.st29{fill:#4C005D;}
	.st30{fill:none;stroke:#FFFFFF;stroke-miterlimit:10;}
	.st31{fill:none;stroke:#FFFFFF;stroke-miterlimit:10;stroke-dasharray:11.8685,11.8685;}
	.st32{fill:#E6E6E6;}
	.st33{opacity:0.42;fill:#A30000;}
</style>
<g>
	<path class="st0" d="M687.4,334.4h29.1c-0.7-3-1.3-5.9-2-8.9c-0.1-0.2-0.2-0.5-0.6-0.8c-0.5-0.5-1.2-0.6-1.4-0.6h-21.2
		c-0.2,0-0.9,0.1-1.4,0.6c-0.3,0.3-0.5,0.6-0.5,0.8C688.7,328.4,688,331.4,687.4,334.4z"/>
	<path class="st1" d="M715,333.9l-1.7-7.9c-0.1-0.1-0.1-0.1-0.3-0.3c-0.2-0.2-0.5-0.2-0.7-0.2h-21.1c-0.2,0-0.4-0.2-0.6,0
		c-0.1,0.1-0.2,0.4-0.2,0.5l-1.7,7.8H715z"/>
	<path class="st0" d="M685.4,343.9h40.2c1.1,0,2-0.9,2-2v-7.1c0-1.1-0.9-2-2-2h-40.2c-1.1,0-2,0.9-2,2v7.1
		C683.5,343,684.4,343.9,685.4,343.9z"/>
	
		<rect x="700.9" y="324.3" transform="matrix(-1 -4.466173e-11 4.466173e-11 -1 1402.7722 658.8447)" class="st0" width="1" height="10.1"/>
	<path class="st2" d="M703.1,335.9h1.8c0.4,0,0.6-0.3,0.6-0.6l0,0c0-0.4-0.3-0.6-0.6-0.6h-1.8c-0.4,0-0.6,0.3-0.6,0.6l0,0
		C702.5,335.6,702.8,335.9,703.1,335.9z"/>
	<path class="st3" d="M724.9,335.2h2.7v3.2h-2.7c-0.7,0-1.3-0.7-1.3-1.6C723.6,335.9,724.2,335.2,724.9,335.2z"/>
	<path class="st3" d="M685.4,338.4h-1.9v-3.2h1.9c0.5,0,0.9,0.7,0.9,1.6C686.3,337.7,685.9,338.4,685.4,338.4z"/>
	<g>
		<path class="st2" d="M715,343.9c0.2-2.7,2.5-4.9,5.3-4.9c2.8,0,5.1,2.2,5.3,4.9H715z"/>
	</g>
	<g>
		<path class="st2" d="M685.6,343.9c0.2-2.7,2.5-4.9,5.3-4.9c2.8,0,5.1,2.2,5.3,4.9H685.6z"/>
	</g>
	<g>
		<circle class="st4" cx="720.3" cy="344.3" r="3.9"/>
		<circle class="st5" cx="720.3" cy="344.3" r="2.4"/>
	</g>
	<g>
		<circle class="st4" cx="690.9" cy="344.3" r="3.9"/>
		<circle class="st5" cx="690.9" cy="344.3" r="2.4"/>
	</g>
</g>
<g>
	<polygon class="st6" points="207.6,252.4 207.6,405.8 103.2,405.8 103.2,252.4 115.9,252.4 115.9,214.7 125.3,214.7 125.3,185.6 
		185.5,185.6 185.5,214.7 193.4,214.7 193.4,252.4 	"/>
	<rect x="149" y="215" class="st4" width="12.5" height="6.3"/>
	<rect x="149" y="225" class="st4" width="12.5" height="6.3"/>
	<rect x="149" y="235" class="st4" width="12.5" height="6.3"/>
	<rect x="149" y="265.2" class="st4" width="12.5" height="6.3"/>
	<rect x="149" y="275.2" class="st4" width="12.5" height="6.3"/>
	<rect x="149" y="285.2" class="st4" width="12.5" height="6.3"/>
	<rect x="149" y="295.3" class="st4" width="12.5" height="6.3"/>
	<rect x="149" y="305.3" class="st4" width="12.5" height="6.3"/>
	<rect x="149" y="315.4" class="st4" width="12.5" height="6.3"/>
	<rect x="149" y="325.4" class="st4" width="12.5" height="6.3"/>
	<rect x="149" y="335.4" class="st4" width="12.5" height="6.3"/>
	<rect x="149" y="345.5" class="st4" width="12.5" height="6.3"/>
	<rect x="149" y="355.5" class="st4" width="12.5" height="6.3"/>
	<rect x="149" y="365.5" class="st4" width="12.5" height="6.3"/>
	<rect x="149" y="375.6" class="st4" width="12.5" height="6.3"/>
	<rect x="142.7" y="385.6" class="st0" width="12.5" height="20.1"/>
	<rect x="155.2" y="385.6" class="st0" width="12.5" height="20.1"/>
	<rect x="168.7" y="213.7" class="st7" width="25.1" height="37.7"/>
	<rect x="116.2" y="214.2" class="st7" width="25.1" height="37.2"/>
	<g>
		<rect x="125" y="258.7" class="st4" width="12.7" height="3"/>
		<rect x="125" y="264.7" class="st4" width="12.7" height="3"/>
		<rect x="125" y="270.8" class="st4" width="12.7" height="3"/>
		<rect x="125" y="276.8" class="st4" width="12.7" height="3"/>
		<rect x="125" y="282.8" class="st4" width="12.7" height="3"/>
		<rect x="125" y="288.9" class="st4" width="12.7" height="3"/>
		<rect x="125" y="294.9" class="st4" width="12.7" height="3"/>
		<rect x="125" y="300.9" class="st4" width="12.7" height="3"/>
		<rect x="125" y="307" class="st4" width="12.7" height="3"/>
		<rect x="125" y="313" class="st4" width="12.7" height="3"/>
		<rect x="125" y="319" class="st4" width="12.7" height="3"/>
		<rect x="125" y="325.1" class="st4" width="12.7" height="3"/>
		<rect x="125" y="331.1" class="st4" width="12.7" height="3"/>
		<rect x="125" y="337.1" class="st4" width="12.7" height="3"/>
		<rect x="125" y="343.1" class="st4" width="12.7" height="3"/>
		<rect x="125" y="349.2" class="st4" width="12.7" height="3"/>
		<rect x="125" y="355.2" class="st4" width="12.7" height="3"/>
		<rect x="125" y="361.2" class="st4" width="12.7" height="3"/>
		<rect x="125" y="367.3" class="st4" width="12.7" height="3"/>
		<rect x="125" y="373.3" class="st4" width="12.7" height="3"/>
		<rect x="125" y="379.3" class="st4" width="12.7" height="3"/>
		<rect x="125" y="385.4" class="st4" width="12.7" height="3"/>
		<rect x="125" y="391.4" class="st4" width="12.7" height="3"/>
	</g>
	<g>
		<rect x="172.7" y="257.6" class="st4" width="13.3" height="3.2"/>
		<rect x="172.7" y="263.9" class="st4" width="13.3" height="3.2"/>
		<rect x="172.7" y="270.2" class="st4" width="13.3" height="3.2"/>
		<rect x="172.7" y="276.5" class="st4" width="13.3" height="3.2"/>
		<rect x="172.7" y="282.8" class="st4" width="13.3" height="3.2"/>
		<rect x="172.7" y="289.1" class="st4" width="13.3" height="3.2"/>
		<rect x="172.7" y="295.4" class="st4" width="13.3" height="3.2"/>
		<rect x="172.7" y="301.7" class="st4" width="13.3" height="3.2"/>
		<rect x="172.7" y="308" class="st4" width="13.3" height="3.2"/>
		<rect x="172.7" y="314.3" class="st4" width="13.3" height="3.2"/>
		<rect x="172.7" y="320.7" class="st4" width="13.3" height="3.2"/>
		<rect x="172.7" y="327" class="st4" width="13.3" height="3.2"/>
		<rect x="172.7" y="333.3" class="st4" width="13.3" height="3.2"/>
		<rect x="172.7" y="339.6" class="st4" width="13.3" height="3.2"/>
		<rect x="172.7" y="345.9" class="st4" width="13.3" height="3.2"/>
		<rect x="172.7" y="352.2" class="st4" width="13.3" height="3.2"/>
		<rect x="172.7" y="358.5" class="st4" width="13.3" height="3.2"/>
		<rect x="172.7" y="364.8" class="st4" width="13.3" height="3.2"/>
		<rect x="172.7" y="371.1" class="st4" width="13.3" height="3.2"/>
		<rect x="172.7" y="377.4" class="st4" width="13.3" height="3.2"/>
		<rect x="172.7" y="383.8" class="st4" width="13.3" height="3.2"/>
		<rect x="172.7" y="390.1" class="st4" width="13.3" height="3.2"/>
		<rect x="172.7" y="396.4" class="st4" width="13.3" height="3.2"/>
		<rect x="124.7" y="396.4" class="st4" width="13.3" height="3.2"/>
	</g>
	<rect x="124.7" y="222.5" class="st0" width="13.3" height="20.1"/>
	<rect x="124.7" y="217.5" class="st0" width="13.3" height="3.2"/>
	<rect x="172.7" y="222.5" class="st0" width="13.3" height="20.1"/>
	<rect x="172.7" y="217.5" class="st0" width="13.3" height="3.2"/>
	<rect x="108.6" y="258.7" class="st5" width="6.4" height="6.2"/>
	<rect x="108.6" y="268.4" class="st5" width="6.4" height="6.2"/>
	<rect x="108.6" y="278.1" class="st5" width="6.4" height="6.2"/>
	<rect x="108.6" y="287.8" class="st5" width="6.4" height="6.2"/>
	<rect x="108.6" y="297.5" class="st5" width="6.4" height="6.2"/>
	<rect x="108.6" y="307.2" class="st5" width="6.4" height="6.2"/>
	<rect x="108.6" y="316.9" class="st5" width="6.4" height="6.2"/>
	<rect x="108.6" y="326.6" class="st5" width="6.4" height="6.2"/>
	<rect x="108.6" y="336.3" class="st5" width="6.4" height="6.2"/>
	<rect x="108.6" y="346" class="st5" width="6.4" height="6.2"/>
	<rect x="108.6" y="356.5" class="st5" width="6.4" height="6.2"/>
	<rect x="108.6" y="367.1" class="st5" width="6.4" height="6.2"/>
	<rect x="102.8" y="251.4" class="st7" width="104.8" height="3.8"/>
	<rect x="108.6" y="377.6" class="st5" width="6.4" height="6.2"/>
	<rect x="194.7" y="258.7" class="st5" width="6.4" height="6.2"/>
	<rect x="194.7" y="268.4" class="st5" width="6.4" height="6.2"/>
	<rect x="194.7" y="278.1" class="st5" width="6.4" height="6.2"/>
	<rect x="194.7" y="287.8" class="st5" width="6.4" height="6.2"/>
	<rect x="194.7" y="297.5" class="st5" width="6.4" height="6.2"/>
	<rect x="194.7" y="307.2" class="st5" width="6.4" height="6.2"/>
	<rect x="194.7" y="316.9" class="st5" width="6.4" height="6.2"/>
	<rect x="194.7" y="326.6" class="st5" width="6.4" height="6.2"/>
	<rect x="194.7" y="336.3" class="st5" width="6.4" height="6.2"/>
	<rect x="194.7" y="346" class="st5" width="6.4" height="6.2"/>
	<rect x="194.7" y="356.5" class="st5" width="6.4" height="6.2"/>
	<rect x="194.7" y="367.1" class="st5" width="6.4" height="6.2"/>
	<rect x="194.7" y="377.6" class="st5" width="6.4" height="6.2"/>
	<rect x="148" y="196.4" class="st4" width="13.3" height="12"/>
	<rect x="128.7" y="196.4" class="st4" width="13.3" height="12"/>
	<rect x="166.1" y="196.4" class="st4" width="13.3" height="12"/>
	<rect x="124.7" y="206.5" class="st7" width="61.3" height="3.8"/>
	<polygon class="st7" points="207.6,380.7 207.6,405.8 190.5,405.8 	"/>
	<polygon class="st7" points="121.6,405.8 103.2,405.8 103.2,378.3 	"/>
	<rect x="187.8" y="252.4" class="st7" width="4.4" height="153.4"/>
	<rect x="118.8" y="252.4" class="st7" width="4.4" height="153.4"/>
</g>
<g>
	<path class="st2" d="M1252,420.5v3.1c0,9.9-8.9,18-19.8,18H62.8c-10.9,0-19.8-8-19.8-18v-3.1c0-8.4,6.3-15.4,14.8-17.4
		c1.6-0.4,3.3-0.6,5-0.6h1169.4C1243.1,402.5,1252,410.5,1252,420.5z"/>
	<path class="st2" d="M977.8,503.3v0.3c0,11.5-9.3,20.8-20.8,20.8H115.2c-11.5,0-20.8-9.3-20.8-20.8v-0.4c0-11.5,9.3-20.8,20.8-20.8
		H957C968.5,482.5,977.8,491.8,977.8,503.3z"/>
	<path class="st2" d="M594.5,476.4c-4.2,3.8-10,6.2-16.4,6.2h327c-6.4,0-12.2-2.4-16.4-6.2c-4.2-3.8-6.8-9-6.8-14.8
		c0-11.6,10.3-21,23.1-21h-327c12.8,0,23.1,9.4,23.1,21C601.3,467.3,598.7,472.6,594.5,476.4z"/>
</g>
<circle class="st2" cx="1025.5" cy="503.4" r="20"/>
<g>
	<polyline class="st8" points="780.3,288.7 779.7,288 765.4,271 764.8,271.9 778.4,288 780.3,290.2 	"/>
	<polygon class="st9" points="779.4,292.7 778.8,293.5 761.2,272.5 761.8,271.7 	"/>
	<polyline class="st8" points="778.3,290.2 780.2,288 793.7,271.9 793.1,271 778.9,288 778.3,288.7 	"/>
	<g>
		<rect x="751.2" y="276.5" class="st8" width="0.8" height="71.7"/>
		<polygon class="st8" points="587.4,369.6 578.6,371 578.4,369 587.3,367.7 		"/>
		<polygon class="st8" points="587.5,384.7 578.6,386.1 578.5,384.1 587.3,382.8 		"/>
		<polygon class="st8" points="583.1,369.8 582.1,368.8 587.2,359.8 588.2,360.8 		"/>
		<polygon class="st8" points="583.6,369.2 582.6,369.9 576.4,354.6 577.4,353.9 		"/>
		<polygon class="st8" points="583.6,384.8 582.6,383.9 587.2,375.6 588.2,376.6 		"/>
		<polygon class="st8" points="584.3,384.1 583.3,384.8 577,369.5 578.1,368.8 		"/>
		<polygon class="st8" points="753.5,294.1 752.9,294.9 735.3,274 735.9,273.1 		"/>
		<polygon class="st8" points="768.3,294.1 767.7,294.9 750.1,274 750.7,273.1 		"/>
		<polygon class="st8" points="608.2,370.7 607.2,371.4 593.3,335.6 594.3,335 		"/>
		<polygon class="st8" points="622.6,360.1 621.6,360.7 606.6,322 607.6,321.3 		"/>
		<polygon class="st8" points="637.8,346.1 636.7,347.2 618.1,315 619.3,314 		"/>
		<polygon class="st8" points="653.7,339.9 652.6,341 634,308.8 635.1,307.8 		"/>
		<polygon class="st9" points="627.5,358.4 626.5,359 611.5,320.3 612.5,319.6 		"/>
		<polygon class="st9" points="644.1,349 643.2,349.9 623.9,314.3 624.8,313.5 		"/>
		<polygon class="st9" points="655.3,335.6 654.4,336.4 638.5,307 639.4,306.2 		"/>
		<polygon class="st8" points="669.5,329.8 668.6,330.6 652.7,301.3 653.6,300.4 		"/>
		<polygon class="st8" points="683,318.1 682.2,319.1 666.2,297.4 667,296.4 		"/>
		<rect x="586.6" y="337.4" class="st8" width="1.7" height="52.7"/>
		<rect x="640.7" y="304.9" class="st8" width="1.7" height="49"/>
		<rect x="654.4" y="303.1" class="st8" width="1.7" height="49"/>
		<rect x="668.3" y="299.3" class="st8" width="1.7" height="49"/>
		<rect x="682.2" y="293.4" class="st8" width="1.7" height="54.9"/>
		<rect x="696.1" y="288.8" class="st8" width="1.7" height="59.4"/>
		<rect x="710" y="284" class="st8" width="1.7" height="64.2"/>
		<rect x="723.4" y="281.1" class="st8" width="0.8" height="67.1"/>
		<rect x="737.3" y="279.3" class="st8" width="0.8" height="68.3"/>
		<rect x="600.3" y="327.5" class="st8" width="1.7" height="52.7"/>
		<rect x="613.7" y="321.3" class="st8" width="1.7" height="47.9"/>
		<rect x="627.1" y="314.8" class="st8" width="1.7" height="40.3"/>
		<polygon class="st4" points="584.2,401.6 563.2,401.6 563.2,353.9 577.4,353.9 		"/>
		<rect x="561.8" y="347.6" class="st9" width="218.5" height="7.5"/>
		<rect x="542.3" y="351.4" class="st6" width="21" height="50.9"/>
		<rect x="563.2" y="355.1" class="st1" width="3.4" height="46.5"/>
		<rect x="543.2" y="327.5" class="st6" width="18.5" height="23.9"/>
		<path class="st8" d="M551.3,340.7c-1.2,0-2.2,1.1-2.2,2.5v6.9h4.4v-6.9C553.5,341.8,552.5,340.7,551.3,340.7z"/>
		<rect x="545.2" y="316.8" class="st6" width="16.6" height="10.7"/>
		<rect x="561.8" y="319.4" class="st1" width="3.4" height="29.5"/>
		<rect x="565.2" y="333.2" class="st6" width="12.2" height="15.7"/>
		<rect x="565.2" y="322.5" class="st6" width="11.2" height="10.7"/>
		<rect x="565.2" y="319.4" class="st4" width="9.8" height="3.1"/>
		<rect x="547.6" y="313.1" class="st4" width="14.1" height="3.8"/>
		<rect x="546.7" y="350.1" class="st4" width="8.8" height="3.8"/>
		<rect x="548.1" y="353.9" class="st4" width="5.9" height="2.5"/>
		<rect x="659.3" y="355.1" class="st9" width="0.5" height="1.3"/>
		<rect x="660.9" y="355.1" class="st9" width="0.5" height="1.3"/>
		<rect x="662.4" y="355.1" class="st9" width="0.5" height="1.3"/>
		<rect x="663.9" y="355.1" class="st9" width="0.5" height="1.3"/>
		<rect x="665.5" y="355.1" class="st9" width="0.5" height="1.3"/>
		<rect x="667" y="355.1" class="st9" width="0.5" height="1.3"/>
		<rect x="668.6" y="355.1" class="st9" width="0.5" height="1.3"/>
		<rect x="670.1" y="355.1" class="st9" width="0.5" height="1.3"/>
		<rect x="671.7" y="355.1" class="st9" width="0.5" height="1.3"/>
		<rect x="673.2" y="355.1" class="st9" width="0.5" height="1.3"/>
		<rect x="674.8" y="355.1" class="st9" width="0.5" height="1.3"/>
		<rect x="676.3" y="355.1" class="st9" width="0.5" height="1.3"/>
		<rect x="677.9" y="355.1" class="st9" width="0.5" height="1.3"/>
		<rect x="679.4" y="355.1" class="st9" width="0.5" height="1.3"/>
		<rect x="681" y="355.1" class="st9" width="0.5" height="1.3"/>
		<rect x="682.5" y="355.1" class="st9" width="0.5" height="1.3"/>
		<rect x="684" y="355.1" class="st9" width="0.5" height="1.3"/>
		<rect x="685.6" y="355.1" class="st9" width="0.5" height="1.3"/>
		<rect x="687.1" y="355.1" class="st9" width="0.5" height="1.3"/>
		<rect x="688.7" y="355.1" class="st9" width="0.5" height="1.3"/>
		<rect x="690.2" y="355.1" class="st9" width="0.5" height="1.3"/>
		<rect x="691.8" y="355.1" class="st9" width="0.5" height="1.3"/>
		<rect x="693.3" y="355.1" class="st9" width="0.5" height="1.3"/>
		<rect x="694.9" y="355.1" class="st9" width="0.5" height="1.3"/>
		<rect x="696.4" y="355.1" class="st9" width="0.5" height="1.3"/>
		<rect x="698" y="355.1" class="st9" width="0.5" height="1.3"/>
		<rect x="699.5" y="355.1" class="st9" width="0.5" height="1.3"/>
		<rect x="701.1" y="355.1" class="st9" width="0.5" height="1.3"/>
		<rect x="702.6" y="355.1" class="st9" width="0.5" height="1.3"/>
		<rect x="704.1" y="355.1" class="st9" width="0.5" height="1.3"/>
		<rect x="705.7" y="355.1" class="st9" width="0.5" height="1.3"/>
		<rect x="707.2" y="355.1" class="st9" width="0.5" height="1.3"/>
		<rect x="708.8" y="355.1" class="st9" width="0.5" height="1.3"/>
		<rect x="710.3" y="355.1" class="st9" width="0.5" height="1.3"/>
		<rect x="711.9" y="355.1" class="st9" width="0.5" height="1.3"/>
		<rect x="713.4" y="355.1" class="st9" width="0.5" height="1.3"/>
		<rect x="715" y="355.1" class="st9" width="0.5" height="1.3"/>
		<rect x="716.5" y="355.1" class="st9" width="0.5" height="1.3"/>
		<rect x="718.1" y="355.1" class="st9" width="0.5" height="1.3"/>
		<rect x="719.6" y="355.1" class="st9" width="0.5" height="1.3"/>
		<rect x="721.2" y="355.1" class="st9" width="0.5" height="1.3"/>
		<rect x="722.7" y="355.1" class="st9" width="0.5" height="1.3"/>
		<rect x="724.2" y="355.1" class="st9" width="0.5" height="1.3"/>
		<rect x="725.8" y="355.1" class="st9" width="0.5" height="1.3"/>
		<rect x="727.3" y="355.1" class="st9" width="0.5" height="1.3"/>
		<rect x="728.9" y="355.1" class="st9" width="0.5" height="1.3"/>
		<rect x="730.4" y="355.1" class="st9" width="0.5" height="1.3"/>
		<rect x="732" y="355.1" class="st9" width="0.5" height="1.3"/>
		<rect x="733.5" y="355.1" class="st9" width="0.5" height="1.3"/>
		<rect x="735.1" y="355.1" class="st9" width="0.5" height="1.3"/>
		<rect x="736.6" y="355.1" class="st9" width="0.5" height="1.3"/>
		<rect x="738.2" y="355.1" class="st9" width="0.5" height="1.3"/>
		<rect x="739.7" y="355.1" class="st9" width="0.5" height="1.3"/>
		<rect x="741.3" y="355.1" class="st9" width="0.5" height="1.3"/>
		<rect x="742.8" y="355.1" class="st9" width="0.5" height="1.3"/>
		<rect x="744.3" y="355.1" class="st9" width="0.5" height="1.3"/>
		<rect x="745.9" y="355.1" class="st9" width="0.5" height="1.3"/>
		<rect x="747.4" y="355.1" class="st9" width="0.5" height="1.3"/>
		<rect x="749" y="355.1" class="st9" width="0.5" height="1.3"/>
		<rect x="750.5" y="355.1" class="st9" width="0.5" height="1.3"/>
		<rect x="752.1" y="355.1" class="st9" width="0.5" height="1.3"/>
		<rect x="753.6" y="355.1" class="st9" width="0.5" height="1.3"/>
		<rect x="755.2" y="355.1" class="st9" width="0.5" height="1.3"/>
		<rect x="756.7" y="355.1" class="st9" width="0.5" height="1.3"/>
		<rect x="758.3" y="355.1" class="st9" width="0.5" height="1.3"/>
		<rect x="759.8" y="355.1" class="st9" width="0.5" height="1.3"/>
		<rect x="761.4" y="355.1" class="st9" width="0.5" height="1.3"/>
		<rect x="762.9" y="355.1" class="st9" width="0.5" height="1.3"/>
		<rect x="764.4" y="355.1" class="st9" width="0.5" height="1.3"/>
		<rect x="766" y="355.1" class="st9" width="0.5" height="1.3"/>
		<rect x="767.5" y="355.1" class="st9" width="0.5" height="1.3"/>
		<rect x="769.1" y="355.1" class="st9" width="0.5" height="1.3"/>
		<rect x="770.6" y="355.1" class="st9" width="0.5" height="1.3"/>
		<rect x="772.2" y="355.1" class="st9" width="0.5" height="1.3"/>
		<rect x="773.7" y="355.1" class="st9" width="0.5" height="1.3"/>
		<rect x="775.3" y="355.1" class="st9" width="0.5" height="1.3"/>
		<rect x="776.8" y="355.1" class="st9" width="0.5" height="1.3"/>
		<rect x="765.4" y="276" class="st8" width="0.8" height="71.7"/>
		<rect x="749" y="276.8" class="st9" width="1.1" height="71.5"/>
		<rect x="763.2" y="276.2" class="st9" width="1.1" height="71.5"/>
		<rect x="778.3" y="275.6" class="st9" width="1.1" height="72.7"/>
		<rect x="778.4" y="355.1" class="st9" width="0.5" height="1.3"/>
		<rect x="779.9" y="355.1" class="st9" width="0.5" height="1.3"/>
		<rect x="659.3" y="356.4" class="st9" width="120.9" height="0.6"/>
		<path class="st9" d="M584.2,401.6c0,0,96.3-112.2,196.1-106.9V288c0,0-111.2-0.7-197.3,105.1L584.2,401.6z"/>
		<path class="st9" d="M577.4,348.9c113.8-77.8,202.9-72.5,202.9-72.5s0,0-0.3-6.4c-98.3-1.6-203.5,67.3-203.5,67.3L577.4,348.9z"/>
		<rect x="591.7" y="331.7" class="st9" width="1.7" height="52.7"/>
		<rect x="606.1" y="323.8" class="st9" width="1.7" height="52.7"/>
		<rect x="620.5" y="313.7" class="st9" width="1.7" height="49"/>
		<rect x="634.7" y="306.8" class="st9" width="1.7" height="48.3"/>
		<rect x="648.8" y="302.4" class="st9" width="1.7" height="49"/>
		<rect x="663.1" y="299.9" class="st9" width="1.7" height="49"/>
		<rect x="677.5" y="294.2" class="st9" width="1.7" height="54"/>
		<rect x="692" y="290.7" class="st9" width="1.7" height="58.1"/>
		<rect x="706.2" y="284.7" class="st9" width="2.1" height="63.6"/>
		<rect x="720.1" y="281.9" class="st9" width="1.1" height="65.7"/>
		<rect x="735.1" y="279.6" class="st9" width="1.1" height="68"/>
		<polygon class="st9" points="599,376.8 597.7,377.4 588.5,341.5 589.9,340.9 		"/>
		<polygon class="st9" points="614.4,368.1 613.4,368.8 598.3,330 599.3,329.4 		"/>
		<polygon class="st9" points="667.5,330.1 666.4,331.1 649,301 650.1,299.9 		"/>
		<polygon class="st9" points="680.9,320.2 679.9,321.2 664.9,295.2 665.9,294.2 		"/>
		<polygon class="st9" points="696.7,312.8 696.1,313.6 680.1,290.5 680.8,289.7 		"/>
		<polygon class="st9" points="711.9,306.7 711.3,307.5 693.7,286.5 694.3,285.7 		"/>
		<polygon class="st9" points="724.7,302.1 724.1,302.9 706.5,282 707.1,281.1 		"/>
		<polygon class="st9" points="738.8,298 738.2,298.9 720.6,277.9 721.2,277.1 		"/>
		<polygon class="st9" points="751.9,294.7 751.3,295.6 733.7,274.6 734.3,273.8 		"/>
		<polygon class="st9" points="765.9,294.3 765.3,295.1 747.6,274.2 748.2,273.3 		"/>
		
			<rect x="806.5" y="276.5" transform="matrix(-1 -5.706869e-11 5.706869e-11 -1 1613.8258 624.7595)" class="st8" width="0.8" height="71.7"/>
		<polygon class="st8" points="971.1,369.6 980,371 980.1,369 971.3,367.7 		"/>
		<polygon class="st8" points="971,384.7 979.9,386.1 980.1,384.1 971.2,382.8 		"/>
		<polygon class="st8" points="975.4,369.8 976.4,368.8 971.3,359.8 970.3,360.8 		"/>
		<polygon class="st8" points="974.9,369.2 976,369.9 982.2,354.6 981.2,353.9 		"/>
		<polygon class="st8" points="974.9,384.8 976,383.9 971.3,375.6 970.3,376.6 		"/>
		<polygon class="st8" points="974.3,384.1 975.3,384.8 981.5,369.5 980.5,368.8 		"/>
		<polygon class="st8" points="805,294.1 805.6,294.9 823.2,274 822.6,273.1 		"/>
		<polygon class="st8" points="790.2,294.1 790.8,294.9 808.5,274 807.9,273.1 		"/>
		<polygon class="st8" points="950.4,370.7 951.4,371.4 965.2,335.6 964.2,335 		"/>
		<polygon class="st8" points="935.9,360.1 937,360.7 952,322 951,321.3 		"/>
		<polygon class="st8" points="920.7,346.1 921.8,347.2 940.4,315 939.3,314 		"/>
		<polygon class="st8" points="904.9,339.9 906,341 924.6,308.8 923.4,307.8 		"/>
		<polygon class="st9" points="931,358.4 932,359 947.1,320.3 946.1,319.6 		"/>
		<polygon class="st9" points="914.5,349 915.4,349.9 934.7,314.3 933.7,313.5 		"/>
		<polygon class="st9" points="903.2,335.6 904.2,336.4 920.1,307 919.1,306.2 		"/>
		<polygon class="st8" points="889,329.8 889.9,330.6 905.9,301.3 904.9,300.4 		"/>
		<polygon class="st8" points="875.6,318.1 876.4,319.1 892.3,297.4 891.5,296.4 		"/>
		
			<rect x="970.3" y="337.4" transform="matrix(-1 -5.771085e-11 5.771085e-11 -1 1942.3131 727.4697)" class="st8" width="1.7" height="52.7"/>
		
			<rect x="916.2" y="304.9" transform="matrix(-1 -5.879976e-11 5.879976e-11 -1 1834.0685 658.8007)" class="st8" width="1.7" height="49"/>
		
			<rect x="902.5" y="303.1" transform="matrix(-1 -5.662194e-11 5.662194e-11 -1 1806.6562 655.0737)" class="st8" width="1.7" height="49"/>
		
			<rect x="888.5" y="299.3" transform="matrix(-1 -5.771085e-11 5.771085e-11 -1 1778.7451 647.5401)" class="st8" width="1.7" height="49"/>
		
			<rect x="874.7" y="293.4" transform="matrix(-1 -5.771085e-11 5.771085e-11 -1 1751.1221 641.6512)" class="st8" width="1.7" height="54.9"/>
		
			<rect x="860.8" y="288.8" transform="matrix(-1 -5.662194e-11 5.662194e-11 -1 1723.2916 637.071)" class="st8" width="1.7" height="59.4"/>
		
			<rect x="846.9" y="284" transform="matrix(-1 -5.771085e-11 5.771085e-11 -1 1695.4611 632.2697)" class="st8" width="1.7" height="64.2"/>
		
			<rect x="834.3" y="281.1" transform="matrix(-1 -5.706869e-11 5.706869e-11 -1 1669.4347 629.3874)" class="st8" width="0.8" height="67.1"/>
		
			<rect x="820.4" y="279.3" transform="matrix(-1 -5.706869e-11 5.706869e-11 -1 1641.6451 626.9369)" class="st8" width="0.8" height="68.3"/>
		
			<rect x="956.6" y="327.5" transform="matrix(-1 -5.771085e-11 5.771085e-11 -1 1914.8315 707.7675)" class="st8" width="1.7" height="52.7"/>
		
			<rect x="943.1" y="321.3" transform="matrix(-1 -5.771085e-11 5.771085e-11 -1 1887.9359 690.3906)" class="st8" width="1.7" height="47.9"/>
		
			<rect x="929.8" y="314.8" transform="matrix(-1 -5.879976e-11 5.879976e-11 -1 1861.1711 669.9674)" class="st8" width="1.7" height="40.3"/>
		<polygon class="st4" points="974.3,401.6 995.3,401.6 995.3,353.9 981.2,353.9 		"/>
		
			<rect x="778.3" y="347.6" transform="matrix(-1 -5.782054e-11 5.782054e-11 -1 1775.0726 702.7451)" class="st9" width="218.5" height="7.5"/>
		
			<rect x="995.3" y="351.4" transform="matrix(-1 -5.776902e-11 5.776902e-11 -1 2011.6012 753.5967)" class="st6" width="21" height="50.9"/>
		
			<rect x="991.9" y="355.1" transform="matrix(-1 -5.807900e-11 5.807900e-11 -1 1987.2168 756.7357)" class="st1" width="3.4" height="46.5"/>
		
			<rect x="996.8" y="327.5" transform="matrix(-1 -5.771440e-11 5.771440e-11 -1 2012.089 678.8887)" class="st6" width="18.5" height="23.9"/>
		<path class="st8" d="M1007.3,340.7c1.2,0,2.2,1.1,2.2,2.5v6.9h-4.4v-6.9C1005.1,341.8,1006.1,340.7,1007.3,340.7z"/>
		
			<rect x="996.8" y="316.8" transform="matrix(-1 -5.781254e-11 5.781254e-11 -1 2010.1382 644.3599)" class="st6" width="16.6" height="10.7"/>
		
			<rect x="993.4" y="319.4" transform="matrix(-1 -5.701318e-11 5.701318e-11 -1 1990.1429 668.2162)" class="st1" width="3.4" height="29.5"/>
		
			<rect x="981.2" y="333.2" transform="matrix(-1 -5.803636e-11 5.803636e-11 -1 1974.537 682.0278)" class="st6" width="12.2" height="15.7"/>
		
			<rect x="982.1" y="322.5" transform="matrix(-1 -5.773127e-11 5.773127e-11 -1 1975.5123 655.6602)" class="st6" width="11.2" height="10.7"/>
		
			<rect x="983.6" y="319.4" transform="matrix(-1 -5.799906e-11 5.799906e-11 -1 1976.9755 641.8487)" class="st4" width="9.8" height="3.1"/>
		
			<rect x="996.8" y="313.1" transform="matrix(-1 -5.787649e-11 5.787649e-11 -1 2007.6997 629.9205)" class="st4" width="14.1" height="3.8"/>
		
			<rect x="1003.1" y="350.1" transform="matrix(-1 -5.781254e-11 5.781254e-11 -1 2015.015 704.0007)" class="st4" width="8.8" height="3.8"/>
		
			<rect x="1004.6" y="353.9" transform="matrix(-1 -5.812341e-11 5.812341e-11 -1 2015.015 710.2786)" class="st4" width="5.9" height="2.5"/>
		
			<rect x="898.8" y="355.1" transform="matrix(-1 -5.967728e-11 5.967728e-11 -1 1797.9939 711.5342)" class="st9" width="0.5" height="1.3"/>
		
			<rect x="897.2" y="355.1" transform="matrix(-1 -6.340718e-11 6.340718e-11 -1 1794.9016 711.5342)" class="st9" width="0.5" height="1.3"/>
		
			<rect x="895.7" y="355.1" transform="matrix(-1 -5.967728e-11 5.967728e-11 -1 1791.8093 711.5342)" class="st9" width="0.5" height="1.3"/>
		
			<rect x="894.1" y="355.1" transform="matrix(-1 -5.594737e-11 5.594737e-11 -1 1788.7172 711.5342)" class="st9" width="0.5" height="1.3"/>
		
			<rect x="892.6" y="355.1" transform="matrix(-1 -5.967728e-11 5.967728e-11 -1 1785.6249 711.5342)" class="st9" width="0.5" height="1.3"/>
		
			<rect x="891" y="355.1" transform="matrix(-1 -6.713709e-11 6.713709e-11 -1 1782.5326 711.5342)" class="st9" width="0.5" height="1.3"/>
		
			<rect x="889.5" y="355.1" transform="matrix(-1 -5.594737e-11 5.594737e-11 -1 1779.4403 711.5342)" class="st9" width="0.5" height="1.3"/>
		
			<rect x="887.9" y="355.1" transform="matrix(-1 -5.967728e-11 5.967728e-11 -1 1776.348 711.5342)" class="st9" width="0.5" height="1.3"/>
		
			<rect x="886.4" y="355.1" transform="matrix(-1 -5.594737e-11 5.594737e-11 -1 1773.2557 711.5342)" class="st9" width="0.5" height="1.3"/>
		
			<rect x="884.8" y="355.1" transform="matrix(-1 -5.967728e-11 5.967728e-11 -1 1770.1635 711.5342)" class="st9" width="0.5" height="1.3"/>
		
			<rect x="883.3" y="355.1" transform="matrix(-1 -5.594737e-11 5.594737e-11 -1 1767.0712 711.5342)" class="st9" width="0.5" height="1.3"/>
		
			<rect x="881.7" y="355.1" transform="matrix(-1 -5.594737e-11 5.594737e-11 -1 1763.9789 711.5342)" class="st9" width="0.5" height="1.3"/>
		
			<rect x="880.2" y="355.1" transform="matrix(-1 -5.967728e-11 5.967728e-11 -1 1760.8866 711.5342)" class="st9" width="0.5" height="1.3"/>
		
			<rect x="878.7" y="355.1" transform="matrix(-1 -6.340718e-11 6.340718e-11 -1 1757.7943 711.5342)" class="st9" width="0.5" height="1.3"/>
		
			<rect x="877.1" y="355.1" transform="matrix(-1 -5.967728e-11 5.967728e-11 -1 1754.702 711.5342)" class="st9" width="0.5" height="1.3"/>
		
			<rect x="875.6" y="355.1" transform="matrix(-1 -5.594737e-11 5.594737e-11 -1 1751.6097 711.5342)" class="st9" width="0.5" height="1.3"/>
		
			<rect x="874" y="355.1" transform="matrix(-1 -5.967728e-11 5.967728e-11 -1 1748.5175 711.5342)" class="st9" width="0.5" height="1.3"/>
		
			<rect x="872.5" y="355.1" transform="matrix(-1 -6.713709e-11 6.713709e-11 -1 1745.4252 711.5342)" class="st9" width="0.5" height="1.3"/>
		
			<rect x="870.9" y="355.1" transform="matrix(-1 -5.967728e-11 5.967728e-11 -1 1742.3329 711.5342)" class="st9" width="0.5" height="1.3"/>
		
			<rect x="869.4" y="355.1" transform="matrix(-1 -5.967728e-11 5.967728e-11 -1 1739.2406 711.5342)" class="st9" width="0.5" height="1.3"/>
		
			<rect x="867.8" y="355.1" transform="matrix(-1 -5.967728e-11 5.967728e-11 -1 1736.1483 711.5342)" class="st9" width="0.5" height="1.3"/>
		
			<rect x="866.3" y="355.1" transform="matrix(-1 -5.967728e-11 5.967728e-11 -1 1733.0562 711.5342)" class="st9" width="0.5" height="1.3"/>
		
			<rect x="864.7" y="355.1" transform="matrix(-1 -5.594737e-11 5.594737e-11 -1 1729.9639 711.5342)" class="st9" width="0.5" height="1.3"/>
		
			<rect x="863.2" y="355.1" transform="matrix(-1 -5.594737e-11 5.594737e-11 -1 1726.8716 711.5342)" class="st9" width="0.5" height="1.3"/>
		
			<rect x="861.6" y="355.1" transform="matrix(-1 -5.221746e-11 5.221746e-11 -1 1723.7793 711.5342)" class="st9" width="0.5" height="1.3"/>
		
			<rect x="860.1" y="355.1" transform="matrix(-1 -5.967728e-11 5.967728e-11 -1 1720.687 711.5342)" class="st9" width="0.5" height="1.3"/>
		
			<rect x="858.6" y="355.1" transform="matrix(-1 -5.967728e-11 5.967728e-11 -1 1717.5947 711.5342)" class="st9" width="0.5" height="1.3"/>
		
			<rect x="857" y="355.1" transform="matrix(-1 -5.594737e-11 5.594737e-11 -1 1714.5024 711.5342)" class="st9" width="0.5" height="1.3"/>
		
			<rect x="855.5" y="355.1" transform="matrix(-1 -5.594737e-11 5.594737e-11 -1 1711.4102 711.5342)" class="st9" width="0.5" height="1.3"/>
		
			<rect x="853.9" y="355.1" transform="matrix(-1 -5.967728e-11 5.967728e-11 -1 1708.3179 711.5342)" class="st9" width="0.5" height="1.3"/>
		
			<rect x="852.4" y="355.1" transform="matrix(-1 -6.340718e-11 6.340718e-11 -1 1705.2256 711.5342)" class="st9" width="0.5" height="1.3"/>
		
			<rect x="850.8" y="355.1" transform="matrix(-1 -5.967728e-11 5.967728e-11 -1 1702.1333 711.5342)" class="st9" width="0.5" height="1.3"/>
		
			<rect x="849.3" y="355.1" transform="matrix(-1 -5.967728e-11 5.967728e-11 -1 1699.041 711.5342)" class="st9" width="0.5" height="1.3"/>
		
			<rect x="847.7" y="355.1" transform="matrix(-1 -5.967728e-11 5.967728e-11 -1 1695.9487 711.5342)" class="st9" width="0.5" height="1.3"/>
		
			<rect x="846.2" y="355.1" transform="matrix(-1 -6.713709e-11 6.713709e-11 -1 1692.8564 711.5342)" class="st9" width="0.5" height="1.3"/>
		
			<rect x="844.6" y="355.1" transform="matrix(-1 -5.594737e-11 5.594737e-11 -1 1689.7642 711.5342)" class="st9" width="0.5" height="1.3"/>
		
			<rect x="843.1" y="355.1" transform="matrix(-1 -5.594737e-11 5.594737e-11 -1 1686.6719 711.5342)" class="st9" width="0.5" height="1.3"/>
		
			<rect x="841.5" y="355.1" transform="matrix(-1 -5.594737e-11 5.594737e-11 -1 1683.5796 711.5342)" class="st9" width="0.5" height="1.3"/>
		
			<rect x="840" y="355.1" transform="matrix(-1 -5.967728e-11 5.967728e-11 -1 1680.4873 711.5342)" class="st9" width="0.5" height="1.3"/>
		
			<rect x="838.5" y="355.1" transform="matrix(-1 -5.594737e-11 5.594737e-11 -1 1677.3951 711.5342)" class="st9" width="0.5" height="1.3"/>
		
			<rect x="836.9" y="355.1" transform="matrix(-1 -5.967728e-11 5.967728e-11 -1 1674.3029 711.5342)" class="st9" width="0.5" height="1.3"/>
		
			<rect x="835.4" y="355.1" transform="matrix(-1 -5.967728e-11 5.967728e-11 -1 1671.2106 711.5342)" class="st9" width="0.5" height="1.3"/>
		
			<rect x="833.8" y="355.1" transform="matrix(-1 -6.340718e-11 6.340718e-11 -1 1668.1183 711.5342)" class="st9" width="0.5" height="1.3"/>
		
			<rect x="832.3" y="355.1" transform="matrix(-1 -5.967728e-11 5.967728e-11 -1 1665.026 711.5342)" class="st9" width="0.5" height="1.3"/>
		
			<rect x="830.7" y="355.1" transform="matrix(-1 -5.967728e-11 5.967728e-11 -1 1661.9337 711.5342)" class="st9" width="0.5" height="1.3"/>
		
			<rect x="829.2" y="355.1" transform="matrix(-1 -5.967728e-11 5.967728e-11 -1 1658.8414 711.5342)" class="st9" width="0.5" height="1.3"/>
		
			<rect x="827.6" y="355.1" transform="matrix(-1 -6.340718e-11 6.340718e-11 -1 1655.7491 711.5342)" class="st9" width="0.5" height="1.3"/>
		
			<rect x="826.1" y="355.1" transform="matrix(-1 -5.967728e-11 5.967728e-11 -1 1652.6569 711.5342)" class="st9" width="0.5" height="1.3"/>
		
			<rect x="824.5" y="355.1" transform="matrix(-1 -5.967728e-11 5.967728e-11 -1 1649.5646 711.5342)" class="st9" width="0.5" height="1.3"/>
		
			<rect x="823" y="355.1" transform="matrix(-1 -5.967728e-11 5.967728e-11 -1 1646.4723 711.5342)" class="st9" width="0.5" height="1.3"/>
		
			<rect x="821.4" y="355.1" transform="matrix(-1 -5.967728e-11 5.967728e-11 -1 1643.38 711.5342)" class="st9" width="0.5" height="1.3"/>
		
			<rect x="819.9" y="355.1" transform="matrix(-1 -5.967728e-11 5.967728e-11 -1 1640.2877 711.5342)" class="st9" width="0.5" height="1.3"/>
		
			<rect x="818.4" y="355.1" transform="matrix(-1 -5.594737e-11 5.594737e-11 -1 1637.1954 711.5342)" class="st9" width="0.5" height="1.3"/>
		
			<rect x="816.8" y="355.1" transform="matrix(-1 -5.967728e-11 5.967728e-11 -1 1634.1031 711.5342)" class="st9" width="0.5" height="1.3"/>
		
			<rect x="815.3" y="355.1" transform="matrix(-1 -5.967728e-11 5.967728e-11 -1 1631.0109 711.5342)" class="st9" width="0.5" height="1.3"/>
		
			<rect x="813.7" y="355.1" transform="matrix(-1 -5.594737e-11 5.594737e-11 -1 1627.9186 711.5342)" class="st9" width="0.5" height="1.3"/>
		
			<rect x="812.2" y="355.1" transform="matrix(-1 -5.967728e-11 5.967728e-11 -1 1624.8263 711.5342)" class="st9" width="0.5" height="1.3"/>
		
			<rect x="810.6" y="355.1" transform="matrix(-1 -6.340718e-11 6.340718e-11 -1 1621.7341 711.5342)" class="st9" width="0.5" height="1.3"/>
		
			<rect x="809.1" y="355.1" transform="matrix(-1 -5.221746e-11 5.221746e-11 -1 1618.6418 711.5342)" class="st9" width="0.5" height="1.3"/>
		
			<rect x="807.5" y="355.1" transform="matrix(-1 -5.594737e-11 5.594737e-11 -1 1615.5496 711.5342)" class="st9" width="0.5" height="1.3"/>
		
			<rect x="806" y="355.1" transform="matrix(-1 -5.594737e-11 5.594737e-11 -1 1612.4573 711.5342)" class="st9" width="0.5" height="1.3"/>
		
			<rect x="804.4" y="355.1" transform="matrix(-1 -6.340718e-11 6.340718e-11 -1 1609.365 711.5342)" class="st9" width="0.5" height="1.3"/>
		
			<rect x="802.9" y="355.1" transform="matrix(-1 -5.594737e-11 5.594737e-11 -1 1606.2727 711.5342)" class="st9" width="0.5" height="1.3"/>
		
			<rect x="801.3" y="355.1" transform="matrix(-1 -5.594737e-11 5.594737e-11 -1 1603.1804 711.5342)" class="st9" width="0.5" height="1.3"/>
		
			<rect x="799.8" y="355.1" transform="matrix(-1 -5.221746e-11 5.221746e-11 -1 1600.0881 711.5342)" class="st9" width="0.5" height="1.3"/>
		
			<rect x="798.3" y="355.1" transform="matrix(-1 -6.340718e-11 6.340718e-11 -1 1596.9958 711.5342)" class="st9" width="0.5" height="1.3"/>
		
			<rect x="796.7" y="355.1" transform="matrix(-1 -4.848800e-11 4.848800e-11 -1 1593.9036 711.5342)" class="st9" width="0.5" height="1.3"/>
		
			<rect x="795.2" y="355.1" transform="matrix(-1 -4.848800e-11 4.848800e-11 -1 1590.8113 711.5342)" class="st9" width="0.5" height="1.3"/>
		
			<rect x="793.6" y="355.1" transform="matrix(-1 -5.221746e-11 5.221746e-11 -1 1587.719 711.5342)" class="st9" width="0.5" height="1.3"/>
		
			<rect x="792.1" y="355.1" transform="matrix(-1 -5.967728e-11 5.967728e-11 -1 1584.6267 711.5342)" class="st9" width="0.5" height="1.3"/>
		
			<rect x="790.5" y="355.1" transform="matrix(-1 -5.594737e-11 5.594737e-11 -1 1581.5344 711.5342)" class="st9" width="0.5" height="1.3"/>
		
			<rect x="789" y="355.1" transform="matrix(-1 -5.221746e-11 5.221746e-11 -1 1578.4421 711.5342)" class="st9" width="0.5" height="1.3"/>
		
			<rect x="787.4" y="355.1" transform="matrix(-1 -5.594737e-11 5.594737e-11 -1 1575.3499 711.5342)" class="st9" width="0.5" height="1.3"/>
		
			<rect x="785.9" y="355.1" transform="matrix(-1 -5.967728e-11 5.967728e-11 -1 1572.2576 711.5342)" class="st9" width="0.5" height="1.3"/>
		
			<rect x="784.3" y="355.1" transform="matrix(-1 -5.221746e-11 5.221746e-11 -1 1569.1653 711.5342)" class="st9" width="0.5" height="1.3"/>
		
			<rect x="782.8" y="355.1" transform="matrix(-1 -5.221746e-11 5.221746e-11 -1 1566.0731 711.5342)" class="st9" width="0.5" height="1.3"/>
		
			<rect x="781.2" y="355.1" transform="matrix(-1 -5.221746e-11 5.221746e-11 -1 1562.9808 711.5342)" class="st9" width="0.5" height="1.3"/>
		
			<rect x="792.3" y="276" transform="matrix(-1 -5.926383e-11 5.926383e-11 -1 1585.5077 623.7496)" class="st8" width="0.8" height="71.7"/>
		
			<rect x="808.5" y="276.8" transform="matrix(-1 -5.616408e-11 5.616408e-11 -1 1618.0085 625.0052)" class="st9" width="1.1" height="71.5"/>
		
			<rect x="794.3" y="276.2" transform="matrix(-1 -5.956803e-11 5.956803e-11 -1 1589.6903 623.9953)" class="st9" width="1.1" height="71.5"/>
		
			<rect x="779.2" y="275.6" transform="matrix(-1 -5.956803e-11 5.956803e-11 -1 1559.4009 623.9271)" class="st9" width="1.1" height="72.7"/>
		
			<rect x="779.7" y="355.1" transform="matrix(-1 -5.967728e-11 5.967728e-11 -1 1559.8885 711.5342)" class="st9" width="0.5" height="1.3"/>
		
			<rect x="778.2" y="355.1" transform="matrix(-1 -5.967728e-11 5.967728e-11 -1 1556.7963 711.5342)" class="st9" width="0.5" height="1.3"/>
		
			<rect x="778.3" y="356.4" transform="matrix(-1 -5.779744e-11 5.779744e-11 -1 1677.535 713.4176)" class="st9" width="120.9" height="0.6"/>
		<path class="st9" d="M974.3,401.6c0,0-96.3-112.2-196.1-106.9V288c0,0,111.2-0.7,197.3,105.1L974.3,401.6z"/>
		<path class="st9" d="M981.2,348.9c-113.8-77.8-202.9-72.5-202.9-72.5s0,0,0.3-6.4c98.3-1.6,203.5,67.3,203.5,67.3L981.2,348.9z"/>
		
			<rect x="965.2" y="331.7" transform="matrix(-1 -5.879976e-11 5.879976e-11 -1 1931.9775 716.1694)" class="st9" width="1.7" height="52.7"/>
		
			<rect x="950.8" y="323.8" transform="matrix(-1 -5.988866e-11 5.988866e-11 -1 1903.2981 700.2339)" class="st9" width="1.7" height="52.7"/>
		
			<rect x="936.4" y="313.7" transform="matrix(-1 -5.879976e-11 5.879976e-11 -1 1874.4501 676.4352)" class="st9" width="1.7" height="49"/>
		
			<rect x="922.2" y="306.8" transform="matrix(-1 -5.771085e-11 5.771085e-11 -1 1846.0861 661.9396)" class="st9" width="1.7" height="48.3"/>
		
			<rect x="908.1" y="302.4" transform="matrix(-1 -5.771085e-11 5.771085e-11 -1 1817.8098 653.7783)" class="st9" width="1.7" height="49"/>
		
			<rect x="893.8" y="299.9" transform="matrix(-1 -5.988866e-11 5.988866e-11 -1 1789.2048 648.7957)" class="st9" width="1.7" height="49"/>
		
			<rect x="879.4" y="294.2" transform="matrix(-1 -5.771085e-11 5.771085e-11 -1 1760.3989 642.4605)" class="st9" width="1.7" height="54"/>
		
			<rect x="864.9" y="290.7" transform="matrix(-1 -5.662194e-11 5.662194e-11 -1 1731.4269 639.5955)" class="st9" width="1.7" height="58.1"/>
		
			<rect x="850.2" y="284.7" transform="matrix(-1 -5.701496e-11 5.701496e-11 -1 1702.6003 632.9241)" class="st9" width="2.1" height="63.6"/>
		
			<rect x="837.4" y="281.9" transform="matrix(-1 -5.956803e-11 5.956803e-11 -1 1675.8593 629.5485)" class="st9" width="1.1" height="65.7"/>
		
			<rect x="822.4" y="279.6" transform="matrix(-1 -5.786583e-11 5.786583e-11 -1 1645.8279 627.1707)" class="st9" width="1.1" height="68"/>
		<polygon class="st9" points="959.5,376.8 960.9,377.4 970.1,341.5 968.7,340.9 		"/>
		<polygon class="st9" points="944.2,368.1 945.2,368.8 960.2,330 959.2,329.4 		"/>
		<polygon class="st9" points="891,330.1 892.1,331.1 909.5,301 908.4,299.9 		"/>
		<polygon class="st9" points="877.6,320.2 878.7,321.2 893.7,295.2 892.6,294.2 		"/>
		<polygon class="st9" points="861.8,312.8 862.5,313.6 878.4,290.5 877.7,289.7 		"/>
		<polygon class="st9" points="846.6,306.7 847.2,307.5 864.8,286.5 864.2,285.7 		"/>
		<polygon class="st9" points="833.8,302.1 834.4,302.9 852,282 851.4,281.1 		"/>
		<polygon class="st9" points="819.7,298 820.3,298.9 837.9,277.9 837.3,277.1 		"/>
		<polygon class="st9" points="806.6,294.7 807.2,295.6 824.9,274.6 824.3,273.8 		"/>
		<polygon class="st9" points="792.7,294.3 793.3,295.1 810.9,274.2 810.3,273.3 		"/>
	</g>
	<polygon class="st9" points="779.2,292.7 779.8,293.5 797.4,272.5 796.8,271.7 	"/>
</g>
<g>
	<rect x="251.6" y="185" class="st2" width="48.2" height="217.6"/>
	<rect x="246.3" y="202.2" class="st2" width="59.1" height="200.4"/>
	<path class="st2" d="M300.3,227.6h-47.7c6.6-18.5,12.4-37.2,8.7-58.6H291C288,186.8,292.7,206.8,300.3,227.6z"/>
	<polygon class="st0" points="282.8,223.2 269,223.2 262.5,235.1 262.5,402.3 289.8,402.3 289.8,235.1 	"/>
	<rect x="246.3" y="202.2" class="st6" width="59.1" height="5.6"/>
	<rect x="251.6" y="185" class="st6" width="49.5" height="5.6"/>
	<rect x="290.8" y="259.6" class="st1" width="13.6" height="4.2"/>
	<rect x="290.8" y="273.7" class="st1" width="13.6" height="4.2"/>
	<rect x="274" y="131.9" class="st1" width="3.6" height="53.1"/>
	<rect x="290.8" y="287.9" class="st1" width="13.6" height="4.2"/>
	<rect x="290.8" y="302.1" class="st1" width="13.6" height="4.2"/>
	<rect x="290.8" y="316.2" class="st1" width="13.6" height="4.2"/>
	<rect x="290.8" y="330.4" class="st1" width="13.6" height="4.2"/>
	<rect x="290.8" y="344.6" class="st1" width="13.6" height="4.2"/>
	<rect x="290.8" y="358.7" class="st1" width="13.6" height="4.2"/>
	<rect x="290.8" y="372.9" class="st1" width="13.6" height="4.2"/>
	<rect x="290.8" y="387.1" class="st1" width="13.6" height="4.2"/>
	<rect x="247" y="259.6" class="st1" width="13.6" height="4.2"/>
	<rect x="247" y="273.7" class="st1" width="13.6" height="4.2"/>
	<rect x="247" y="287.9" class="st1" width="13.6" height="4.2"/>
	<rect x="247" y="302.1" class="st1" width="13.6" height="4.2"/>
	<rect x="247" y="316.2" class="st1" width="13.6" height="4.2"/>
	<rect x="247" y="330.4" class="st1" width="13.6" height="4.2"/>
	<rect x="247" y="344.6" class="st1" width="13.6" height="4.2"/>
	<rect x="247" y="358.7" class="st1" width="13.6" height="4.2"/>
	<rect x="247" y="372.9" class="st1" width="13.6" height="4.2"/>
	<rect x="247" y="387.1" class="st1" width="13.6" height="4.2"/>
	<rect x="269.6" y="259.9" class="st10" width="13.6" height="4.2"/>
	<rect x="269.6" y="274" class="st10" width="13.6" height="4.2"/>
	<rect x="269.6" y="288.2" class="st10" width="13.6" height="4.2"/>
	<rect x="269.6" y="302.4" class="st10" width="13.6" height="4.2"/>
	<rect x="269.6" y="316.5" class="st10" width="13.6" height="4.2"/>
	<rect x="269.6" y="330.7" class="st10" width="13.6" height="4.2"/>
	<rect x="269.6" y="344.9" class="st10" width="13.6" height="4.2"/>
	<rect x="269.6" y="359" class="st10" width="13.6" height="4.2"/>
	<rect x="269.6" y="373.2" class="st10" width="13.6" height="4.2"/>
	<rect x="269.6" y="387.4" class="st10" width="13.6" height="4.2"/>
	<rect x="269.6" y="235.7" class="st10" width="13.6" height="19.7"/>
	<g>
		<rect x="257.3" y="193.2" class="st1" width="7.1" height="7.1"/>
		<rect x="267.4" y="193.2" class="st1" width="7.1" height="7.1"/>
		<rect x="277.5" y="193.2" class="st1" width="7.1" height="7.1"/>
		<rect x="287.4" y="193.2" class="st1" width="7.1" height="7.1"/>
	</g>
</g>
<g>
	<polygon class="st1" points="236,298 210.3,298 223.1,287 223.4,287.3 	"/>
	<rect x="210.3" y="297.6" class="st1" width="25.7" height="15.3"/>
	<polygon class="st4" points="236,298 223.5,298 223.5,287.2 223.4,287.2 	"/>
	<rect x="202.5" y="306.8" class="st4" width="41.7" height="28.1"/>
	<rect x="199.9" y="335" class="st4" width="48.7" height="67"/>
	<g>
		<rect x="203.3" y="310.7" class="st0" width="9.6" height="2.4"/>
		<rect x="221.9" y="310.7" class="st6" width="20.6" height="2.4"/>
		<rect x="215.7" y="310.7" class="st0" width="4.1" height="2.4"/>
	</g>
	<g>
		<rect x="203.3" y="316.7" class="st0" width="9.6" height="2.4"/>
		<rect x="221.9" y="316.7" class="st6" width="20.6" height="2.4"/>
		<rect x="215.7" y="316.7" class="st0" width="4.1" height="2.4"/>
	</g>
	<g>
		<rect x="203.3" y="322.7" class="st0" width="9.6" height="2.4"/>
		<rect x="221.9" y="322.7" class="st6" width="20.6" height="2.4"/>
		<rect x="215.7" y="322.7" class="st0" width="4.1" height="2.4"/>
	</g>
	<g>
		<rect x="203.3" y="328.7" class="st0" width="9.6" height="2.4"/>
		<rect x="221.9" y="328.7" class="st6" width="20.6" height="2.4"/>
		<rect x="215.7" y="328.7" class="st0" width="4.1" height="2.4"/>
	</g>
	<g>
		<rect x="203.3" y="339.3" class="st6" width="7.6" height="2.6"/>
		<rect x="203.3" y="344.9" class="st6" width="7.6" height="2.6"/>
		<rect x="203.3" y="350.6" class="st6" width="7.6" height="2.6"/>
		<rect x="203.3" y="356.2" class="st6" width="7.6" height="2.6"/>
		<rect x="203.3" y="361.9" class="st6" width="7.6" height="2.6"/>
		<rect x="203.3" y="367.5" class="st6" width="7.6" height="2.6"/>
		<rect x="203.3" y="373.2" class="st6" width="7.6" height="2.6"/>
		<rect x="203.3" y="378.8" class="st6" width="7.6" height="2.6"/>
		<rect x="203.3" y="384.5" class="st6" width="7.6" height="2.6"/>
		<rect x="203.3" y="390.1" class="st6" width="7.6" height="2.6"/>
	</g>
	<rect x="213.9" y="334.9" class="st6" width="1" height="67.1"/>
	<rect x="220" y="339" class="st6" width="14.7" height="2.3"/>
	<rect x="220" y="345.1" class="st6" width="14.7" height="2.3"/>
	<rect x="220" y="351.2" class="st6" width="14.7" height="2.3"/>
	<rect x="220" y="357.3" class="st6" width="14.7" height="2.3"/>
	<rect x="220" y="363.4" class="st6" width="14.7" height="2.3"/>
	<rect x="220" y="369" class="st6" width="14.7" height="2.3"/>
	<rect x="220" y="374.7" class="st6" width="14.7" height="2.3"/>
	<rect x="220" y="380.3" class="st6" width="14.7" height="2.3"/>
	<rect x="220" y="385.9" class="st6" width="14.7" height="2.3"/>
	<rect x="220" y="391.6" class="st6" width="14.7" height="2.3"/>
	<rect x="237.2" y="338.6" class="st0" width="3.6" height="2"/>
	<rect x="237.2" y="343.7" class="st0" width="3.6" height="2"/>
	<rect x="237.2" y="348.8" class="st0" width="3.6" height="2"/>
	<rect x="237.2" y="353.9" class="st0" width="3.6" height="2"/>
	<rect x="237.2" y="359" class="st0" width="3.6" height="2"/>
	<rect x="237.2" y="364.1" class="st0" width="3.6" height="2"/>
	<rect x="237.2" y="369.2" class="st0" width="3.6" height="2"/>
	<rect x="237.2" y="374.3" class="st0" width="3.6" height="2"/>
	<rect x="237.2" y="379.4" class="st0" width="3.6" height="2"/>
	<rect x="237.2" y="384.5" class="st0" width="3.6" height="2"/>
	<rect x="242.4" y="338.6" class="st0" width="3.6" height="2"/>
	<rect x="242.4" y="343.7" class="st0" width="3.6" height="2"/>
	<rect x="242.4" y="348.8" class="st0" width="3.6" height="2"/>
	<rect x="242.4" y="353.9" class="st0" width="3.6" height="2"/>
	<rect x="242.4" y="359" class="st0" width="3.6" height="2"/>
	<rect x="242.4" y="364.1" class="st0" width="3.6" height="2"/>
	<rect x="242.4" y="369.2" class="st0" width="3.6" height="2"/>
	<rect x="242.4" y="374.3" class="st0" width="3.6" height="2"/>
	<rect x="242.4" y="379.4" class="st0" width="3.6" height="2"/>
	<rect x="242.4" y="384.5" class="st0" width="3.6" height="2"/>
	<rect x="237.2" y="389.6" class="st0" width="3.6" height="2"/>
	<rect x="242.4" y="389.6" class="st0" width="3.6" height="2"/>
	<rect x="237.2" y="394.7" class="st0" width="3.6" height="2"/>
	<rect x="242.4" y="394.7" class="st0" width="3.6" height="2"/>
</g>
<path class="st1" d="M153.2,320.4c-52.6,0-95.4,36.6-97,82.2h194C248.6,357,205.8,320.4,153.2,320.4"/>
<path class="st5" d="M222.5,403.1c-1.2-32.6-31.7-58.7-69.3-58.7c-37.5,0-68.1,26.1-69.3,58.7H222.5z"/>
<g>
	<path class="st11" d="M189.6,379c-0.2,5.2-5,9.2-10.8,9.2s-10.7-4-10.8-9.2h3.1c0.2,2.6,3.6,6.5,7.7,6.5s7.6-3.9,7.7-6.5H189.6z"/>
	<path class="st11" d="M208.5,379c-0.2,5.2-5,9.2-10.8,9.2s-10.7-4-10.8-9.2h3.1c0.2,2.6,3.6,6.5,7.7,6.5s7.6-3.9,7.7-6.5H208.5z"/>
</g>
<g>
	<path class="st6" d="M406.1,346.8l-1.4,1.4l-0.1,0.1l0,0l-1.6,1.5l0,0L366.6,386l-0.2,0.2h-10.1l0,0l-0.1-0.1v0h0l0-0.1l-0.6-1.2
		l-0.2-0.3l-7.8-15l-0.2-0.3l-17.6-34c0,0,7.2-1.2,17.9-1.5c3.6-0.1,7.7,0,11.9,0.2c0,0,0,0,0.1,0c8.6,0.5,18.2,1.8,27.6,4.7
		c5.1,1.6,10.2,3.6,15,6.2c0,0,0,0,0.1,0c0.2,0.1,0.4,0.2,0.6,0.3h0c0.2,0.1,0.5,0.3,0.7,0.4C404.5,345.9,405.3,346.4,406.1,346.8z"
		/>
	<path class="st6" d="M565.9,326.5c-1.5,1.8-4.5,9.4-7.8,18.7c-6,16.7-13,38.5-13.8,40.8c0,0,0,0.1,0,0.1c0,0,0,0,0,0
		c0,0.1,0,0.1,0,0.1h-6c0,0,0,0,0-0.1v0c0,0,0,0,0-0.1c-0.7-2-6.9-20.8-14.5-35.8c0,0,0,0,0-0.1c0,0,0,0,0,0
		c-2.1-4-4.2-7.8-6.4-10.9c0,0,0,0,0-0.1c0-0.1-0.1-0.1-0.1-0.1c0,0,0,0,0,0c-1.6-2.3-3.3-4.2-5-5.6c-0.1-0.1-0.2-0.1-0.3-0.2v0h0
		c0.1,0,0.2-0.1,0.3-0.1c2.6-0.9,10.8-3.1,20.3-4.9C544.5,326,558.7,324.3,565.9,326.5z"/>
	<path class="st3" d="M538.9,386.1h-35.3c0,0,6.6-44.2,8.3-52.9C516.5,333.8,538.1,375.9,538.9,386.1z"/>
	<path class="st6" d="M519.8,305.8c-1.3,2.5-2.7,6.5-4,11.4c-1.2,4.6-2.5,10.1-3.6,15.9c0,0.1,0,0.1,0,0.2c0,0,0,0,0,0
		c0,0,0,0.1,0,0.1c-0.9,4.4-1.7,9-2.5,13.5c0,0.1,0,0.2,0,0.2c-3.2,18.4-5.6,36.1-5.9,38.6c0,0,0,0,0,0c0,0,0,0,0,0.1c0,0,0,0,0,0.1
		c0,0,0,0,0,0v0c0,0,0,0.1,0,0.1c0,0,0,0,0,0h-8.3c0,0,0,0,0-0.1c0,0,0,0,0,0c0,0,0,0,0,0c-0.8-2.4-11.6-34.1-18-53.8
		c-1.8-5.5-3.2-10-4-12.8c3-1.2,5.8-2.3,8.4-3.3c9.3-3.6,16.2-5.8,21.5-7.3C513.8,305.9,517.5,306.2,519.8,305.8z"/>
	<path class="st3" d="M495.3,386.1l-34.5-0.2c1.5-26.6,6.6-53,12.4-66.5C482.7,337.5,494.2,370,495.3,386.1z"/>
	<path class="st6" d="M495.3,273c-2.5,7.3-4.8,14.2-6.9,20.7c-2.6,8-4.8,15.5-6.8,22.4c-0.3,1.1-0.6,2.2-0.9,3.3
		c-1,3.4-1.9,6.7-2.7,9.9c-0.3,1-0.5,1.9-0.8,2.9c-7.9,30.3-9.7,47.3-10.1,52.2c0,0.1,0,0.2,0,0.3c0,0.4-0.1,0.7-0.1,0.9
		c0,0.3,0,0.4,0,0.4h-16.9c-1.3-0.3-26.8-21.6-40.8-33.7c-1.6-1.4-3.1-2.7-4.4-3.9c0,0,0,0-0.1-0.1c0,0-0.1-0.1-0.1-0.1
		c-0.5-0.4-1-0.8-1.6-1.3c0,0-0.1-0.1-0.1-0.1c-0.1-0.1-0.2-0.2-0.3-0.2c0,0,0,0,0,0c0,0,0,0-0.1,0c-0.3-0.2-0.6-0.5-0.9-0.7
		c0.2-0.4,0.6-0.7,0.6-1.1c0,0,0,0,0,0c0,0,0,0,0-0.1c2.2-16.1,19.2-34.5,39.2-48.6c0,0,0,0,0,0c1-0.7,1.9-1.3,2.9-2
		c0.4-0.2,0.7-0.5,1.1-0.7C463,281.8,481.9,273.7,495.3,273z"/>
	<path class="st6" d="M446.4,268.4c0,0.8-0.1,1.9-0.1,3c-0.2,6.7-0.6,17.8-0.7,21.8c0,0,0,0.1,0,0.1c0,0.9,0,1.5,0,1.5
		s-0.3,0.2-1,0.7c-5.2,3.7-30.7,22.7-40.7,49.5v0c-0.1,0.2-0.1,0.3-0.2,0.5c-0.2,0.5-0.3,0.9-0.5,1.4c0,0-0.1,0-0.3-0.1h0
		c-0.1,0-0.2-0.1-0.3-0.1c0,0,0,0,0,0c0,0-0.1,0-0.1,0c-0.4-0.1-0.9-0.4-1.6-0.6c-7-2.7-28.4-10.5-41.7-11.1c0.1-0.3,0.3-0.6,0.5-1
		c2.1-4.3,8.8-15.1,19.2-26.8c0.2-0.2,0.3-0.3,0.5-0.5c0.3-0.3,0.5-0.6,0.8-0.9c0.5-0.6,1.1-1.2,1.6-1.8c0.1-0.2,0.3-0.3,0.5-0.5
		c0.1-0.1,0.2-0.2,0.3-0.3c0.5-0.5,0.9-0.9,1.2-1.3c0,0,0.1-0.1,0.1-0.1c0.1-0.1,0.1-0.1,0.2-0.2c0.1-0.1,0.1-0.1,0.2-0.2
		c0.6-0.6,0.9-0.9,0.9-0.9c14.2-14.1,33.7-28,57.3-31.5C443.8,268.7,445.1,268.5,446.4,268.4z"/>
	<path class="st3" d="M318.8,386.1h-29c0,0-2.9-21.8-14.5-63.3C280.9,328,308.6,363,318.8,386.1z"/>
	<path class="st6" d="M355.3,363l-7.6,6.4l0,0l-13.2,11.2l0,0l-6.3,5.3l-0.6,0h0l-7.7,0.2h-0.1l-1,0c0,0,0,0,0,0c0,0,0,0,0,0h0
		c0,0-0.1-0.1-0.1-0.2c0,0,0,0,0,0c-2.3-2.9-22.1-36.7-35.5-54.3c0,0,0,0,0,0c-0.8-1.1-1.6-2.1-2.4-3c-0.3-0.4-0.7-0.8-1-1.2
		c-1.6-2-3.1-3.5-4.4-4.6c1-0.3,3.3-0.8,6.4-1.3c1.2-0.2,2.6-0.4,4.1-0.6c15-2.1,42.2-2.9,61.9,12.4c0,0.1,0.1,0.2,0.1,0.4
		C355.8,359,355.3,363,355.3,363z"/>
	<polygon class="st3" points="328.2,386.1 356.4,386.1 332.3,334.6 	"/>
	<polygon class="st6" points="366.5,386.1 450.1,385.9 404.5,348.3 	"/>
	<polygon class="st3" points="356,386.1 402.9,386.1 403,344.1 	"/>
	<path class="st3" d="M444.5,293.7l5.6,92.2L403,344.1C403,344.1,413.2,318.4,444.5,293.7z"/>
	<path class="st3" d="M389.3,341.2c-10.5-4.5-28.4-7.2-29.5-7.4c0,0-0.1,0-0.1,0c3.2-8.3,12.7-19.7,19.2-26.8
		c0.2-0.2,0.3-0.3,0.5-0.5c0.3-0.3,0.5-0.6,0.8-0.9c0.9-1,1.7-1.8,2.4-2.6c0.5-0.5,0.9-0.9,1.2-1.3c0.1-0.1,0.2-0.2,0.3-0.3
		c0.1-0.1,0.1-0.1,0.2-0.2c0.6-0.6,0.9-0.9,0.9-0.9c-1.5,2.5-2,28.9,2.1,38.1C387.9,339.8,388.6,340.7,389.3,341.2z"/>
	<path class="st5" d="M390.3,341.7c-0.3-0.1-0.6-0.2-1-0.4C389.7,341.4,390,341.5,390.3,341.7z"/>
	<g>
		<polygon class="st4" points="567.4,402.4 289.8,402.4 289.8,385.9 318.5,385.9 318.7,385.9 327.6,385.9 328.4,385.9 356.2,386 
			356.3,386 366.6,386 402.9,386 430.7,386 471.1,386 495.2,386 495.3,386 503.6,386 538.2,386 544.6,386 566.6,401.8 		"/>
	</g>
</g>
<path class="st1" d="M250.7,402.5v39H46.3c-9.9,0-18-8-18-18v-3.1c0-8.4,5.7-15.4,13.4-17.4c1.5-0.4,3-0.6,4.5-0.6H250.7z"/>
<path class="st12" d="M132,381.4l-3.9,1l-0.1,0l-0.2,0.1l-3.1,0.8c-1.6-1.3-3.7-2.2-5.9-2c-0.3-0.8-0.5-1.6-0.7-2.6
	c-0.8-4-1-9.1-0.5-12v0c-0.1,0-0.9-0.4-2-0.9c-1.1-0.5-2.6-1.2-4-1.8c-1.7-0.8-3.2-1.6-4-2.1c0,0-0.1-0.1-0.1-0.1
	c-2.4-1.8-3.3-3.8-4-5.5c-0.3-0.7,0.4-1.4,1.1-1.2c2.3,0.7,5.2,0.8,10,1.6c0.5,0.1,1,0.2,1.5,0.3c0.9,0.3,1.7,0.6,2.3,1.1
	c0.2,0.1,0.4,0.3,0.6,0.5l0.3-0.1c0.1,0,0.2-0.1,0.2-0.2c0.2-0.3,0.9-0.9,1.9-1.5c0.1-0.1,0.1-0.1,0.2-0.1c0.7-0.4,1.5-0.7,2.5-0.9
	c0.5-0.1,1-0.2,1.6-0.2c0.4,0,0.8,0,1.2,0.1c0,0,0,0,0,0h0c0.1,0,0.3,0.1,0.4,0.1c1.5,0.2,2.7-0.4,3.5-1.1c0.8-0.7,1.2-1.6,1.2-2.1
	v-1.7c0-0.7,0.9-1,1.4-0.5l1.2,1.3c0.1,0,1.8,1.4,0.1,4.6c-0.4,0.7-0.9,1.5-1.4,2.2c-0.8,1-1.7,2.1-2.7,3c-1,0.9-2.1,1.8-3.3,2.4
	c-0.1,0.1-0.2,0.1-0.4,0.2c-0.4,0.2-0.8,0.4-1.3,0.5c-0.3,0.1-0.5,0.7-0.5,1.2c0,0.3,0,0.5,0.1,0.7c1.6,3,3.3,6.4,5,9.2
	c0.5,0.8,1,1.6,1.4,2.3c0.6,0.9,1.2,1.6,1.7,2.2h0"/>
<path class="st13" d="M127.8,382.5l-3.1,0.8c-1.6-1.3-3.7-2.2-5.9-2c-0.3-0.8-0.5-1.6-0.7-2.6c-0.8-4-1-9.1-0.5-12v0
	c-0.1,0-0.9-0.4-2-0.9c-1.1-0.5-2.6-1.2-4-1.8c1.4-2.5,3-5.1,4.4-7c1,0.3,1.7,0.7,2.3,1.1c0.2,0.2,0.4,0.3,0.6,0.5l0.3-0.1
	c0.1,0,0.2-0.1,0.2-0.2c-1.5,11.1,4.9,20.2,7.4,23.2C127.5,382.1,127.8,382.5,127.8,382.5z"/>
<g>
	<path class="st11" d="M127.3,386.5c-0.5-3.8,3.3-9.9,9.1-10.9s11.4,3.4,12.3,7.2l-3.1,0.5c-0.6-2.5-4.6-5.8-8.7-5.1
		c-4.1,0.7-6.8,5.2-6.5,7.7L127.3,386.5z"/>
	<path class="st11" d="M130,386l-2.7,0.5l-0.3,0c-0.2-1-1.1-2.2-2.3-3.2c-1.6-1.3-3.7-2.2-5.9-2c-0.2,0-0.3,0-0.5,0.1
		c-4.1,0.7-6.8,5.2-6.5,7.7l-3,0.5c-0.5-3.9,3.3-9.9,9.1-10.9c0.1,0,0.2,0,0.3,0c3.3-0.5,6.5,0.8,8.8,2.7c0.4,0.3,0.8,0.7,1.1,1
		c0,0,0,0,0,0C129.1,383.6,129.8,384.8,130,386z"/>
</g>
<g>
	<g>
		<line class="st30" x1="94.4" y1="503.7" x2="100.4" y2="503.7"/>
		<line class="st31" x1="112.3" y1="503.7" x2="960.9" y2="503.5"/>
		<line class="st30" x1="966.8" y1="503.5" x2="972.8" y2="503.5"/>
	</g>
</g>
<g>
	
		<rect x="1080.7" y="228.4" transform="matrix(0.972 -0.2351 0.2351 0.972 -24.7969 260.8061)" class="st4" width="1.3" height="12"/>
	
		<rect x="1094.5" y="228" transform="matrix(0.9699 -0.2434 0.2434 0.9699 -24.022 273.6441)" class="st4" width="1.3" height="12"/>
	
		<rect x="1101.8" y="226.6" transform="matrix(0.9944 -0.1055 0.1055 0.9944 -18.3912 117.632)" class="st4" width="1.3" height="12"/>
	
		<rect x="1109.6" y="225.7" transform="matrix(0.9944 -0.1055 0.1055 0.9944 -18.2455 118.4486)" class="st4" width="1.3" height="12"/>
	
		<rect x="1130.2" y="223" transform="matrix(0.9993 3.617802e-02 -3.617802e-02 0.9993 9.0244 -40.762)" class="st4" width="1.3" height="12"/>
	
		<rect x="1143.9" y="224.8" transform="matrix(0.9975 7.031112e-02 -7.031112e-02 0.9975 19.0624 -79.9026)" class="st4" width="1.3" height="12"/>
	
		<rect x="1155.1" y="224.5" transform="matrix(0.9887 0.1501 -0.1501 0.9887 47.6759 -170.8145)" class="st4" width="1.3" height="12"/>
	
		<rect x="1164.1" y="226.6" transform="matrix(0.9887 0.1501 -0.1501 0.9887 48.0915 -172.1358)" class="st4" width="1.3" height="12"/>
	
		<rect x="1170.8" y="230.5" transform="matrix(0.9887 0.1501 -0.1501 0.9887 48.7481 -173.108)" class="st4" width="1.3" height="12"/>
	
		<rect x="1117.9" y="223.9" transform="matrix(0.997 -7.771480e-02 7.771480e-02 0.997 -14.3406 87.6235)" class="st4" width="1.4" height="8.3"/>
	<path class="st14" d="M1187.2,298.9v73h-6.7c-2.2-4.5-4.8-10.3-7.7-13c-3.4-3.1-4.8-5-5.2-7.6c0,0,0,0,0,0
		c-0.1,0.3-0.2,0.4-0.2,0.4s-2.4,1.9-3.2,0.5c-0.3-0.5-0.6-0.8-0.9-1c-0.1,0.2-0.2,0.3-0.4,0.4c0,0-0.7,2.6-1.9,2.1
		c-1.2-0.5-1.7-1.4-2.6-1c0,0,0,0,0,0v0.2l-1.3,0.4c0,0-1.3,1.5-2.3,0.9c-0.4-0.2-0.9-0.5-1.3-0.8c-0.1,0.2-0.2,0.3-0.3,0.4
		c0,0-0.7,2.6-1.9,2.1c-1.2-0.5-1.7-1.4-2.6-1c-0.3,0.2-0.8,0.1-1.1-0.1c-0.1,0.5-0.4,0.8-0.6,0.8c-0.8,0.1-3.3,1-4.5-0.8
		c0,1-0.9,1.8-2,1.7c-0.9-0.1-1.8-0.1-2.8,0.1c-0.7,0.1-1.3-0.2-1.7-0.6c-0.6,1.1-2,0.6-2.7,0.5c-1.2-0.3-3.4,1.1-4.6,1.3
		c-0.3,0.1-0.4-0.6-0.4-1.4c-0.7-0.1-1.3-0.2-1.7,0c-0.7,0.3-2.1,1.1-2.7-0.7c-0.2,0.8-1,1.4-1.9,1.3c-0.9-0.1-1.8-0.1-2.8,0.1
		c-0.9,0.1-1.8-0.4-2-1.3c-0.2,0.7-0.4,1.2-0.7,1.3c-1,0.2-4.4,1.4-5.1-2.3c0,0.1-0.7,2.6-1.9,2.1c-1.2-0.5-1.7-1.4-2.6-1
		c-0.8,0.4-1.9-0.3-1.9-1.5l-0.4,0.1c0,0-1.3,1.5-2.3,0.9c-1-0.7-3.2-1.8-2.9-2.6c0.1-0.1,0.1-0.3,0.2-0.6c0,0,0,0,0,0
		s-2.4,1.9-3.2,0.5c-0.5-0.9-1.1-1.1-1.2-1.5c-0.6,0.3-1.4,0.3-1.7-0.3c-0.3-0.5-0.6-0.8-0.8-1c0.4,1.1,0.5,2.4-0.8,3.7
		c-2.9,2.9-16.5,18.1-18.2,18.1v0.4h-3.8v-73H1187.2z"/>
	<g>
		<path class="st1" d="M1045.2,202.1v-16.5c12,0.1,21.8,7.3,21.8,16.2c0,0.1,0,0.2,0,0.2h0v21.9H1045v-21.9H1045.2z"/>
		<path class="st1" d="M1045.6,202v-16.5c-12,0.1-21.8,7.3-21.8,16.2c0,0.1,0,0.2,0,0.2h0V224h21.9V202H1045.6z"/>
		<path class="st1" d="M1045.5,183.7v-16.5c-7.8,0.1-14,7.3-14,16.2c0,0.1,0,0.2,0,0.2h0v21.9h14.1v-21.9H1045.5z"/>
		<path class="st1" d="M1045.8,159v36.6h-7.7v-22h0c0-0.1,0-0.2,0-0.2C1038.1,167.1,1041.2,161.7,1045.8,159z"/>
		<rect x="1026" y="229.3" class="st1" width="18.5" height="6.2"/>
		<path class="st0" d="M1015.7,225.9l2.8-1.6c0,0,1.4-5,3.5-5.2c2.1-0.1,4-0.1,4.4,4c1.3,1.3-0.3,4.8-0.3,4.8l-2.9,0.3l-4.6,0.3
			L1015.7,225.9z"/>
		<polyline class="st4" points="1063.2,246.5 1044.6,246.5 1044.6,248.6 1063.2,248.6 		"/>
		<rect x="1019.9" y="242.1" class="st3" width="50.4" height="129.3"/>
		<polyline class="st5" points="1063.3,246.5 1063.4,245.5 1025.7,245.5 1025.8,246.5 1026.1,248.6 1026.4,250.9 1026.7,253.1 
			1027,255.2 1027.3,257.4 1027.5,259.4 1027.8,261.4 1027.9,261.6 1028.5,263.5 1028.5,265.7 1029,267.8 1060.1,267.8 
			1060.6,265.7 1060.6,263.5 1061.2,261.6 1061.3,261.4 1061.6,259.4 1061.9,257.4 1062.1,255.2 1062.4,253.1 1062.7,250.9 
			1063,248.6 		"/>
		<rect x="1029" y="267.8" class="st5" width="3.9" height="99"/>
		<rect x="1019.9" y="359.1" class="st5" width="11.1" height="1.4"/>
		<rect x="1019.9" y="352.7" class="st5" width="11.1" height="1.4"/>
		<rect x="1019.9" y="346.4" class="st5" width="11.1" height="1.4"/>
		<rect x="1019.9" y="340" class="st5" width="11.1" height="1.4"/>
		<rect x="1019.9" y="333.7" class="st5" width="11.1" height="1.4"/>
		<rect x="1019.9" y="327.3" class="st5" width="11.1" height="1.4"/>
		<rect x="1019.9" y="320.9" class="st5" width="11.1" height="1.4"/>
		<rect x="1019.9" y="314.6" class="st5" width="11.1" height="1.4"/>
		<rect x="1019.9" y="308.2" class="st5" width="11.1" height="1.4"/>
		<rect x="1019.9" y="301.9" class="st5" width="11.1" height="1.4"/>
		<rect x="1019.9" y="295.5" class="st5" width="11.1" height="1.4"/>
		<rect x="1019.9" y="289.2" class="st5" width="11.1" height="1.4"/>
		<rect x="1019.9" y="282.8" class="st5" width="11.1" height="1.4"/>
		<rect x="1032" y="285.3" class="st5" width="11.1" height="0.7"/>
		<rect x="1032" y="311.4" class="st5" width="11.1" height="0.7"/>
		<rect x="1032" y="337.5" class="st5" width="11.1" height="0.7"/>
		<rect x="1019.9" y="276.4" class="st5" width="11.1" height="1.4"/>
		<rect x="1019.9" y="270.1" class="st5" width="11.1" height="1.4"/>
		<rect x="1019.9" y="263.7" class="st5" width="11.1" height="1.4"/>
		<rect x="1019.9" y="257.4" class="st5" width="11.1" height="1.4"/>
		<rect x="1028.5" y="263.5" class="st4" width="16" height="2.2"/>
		<polyline class="st4" points="1026.1,248.6 1063.8,248.6 1063.8,246.5 1025.8,246.5 		"/>
		<polyline class="st4" points="1026.4,250.9 1062.7,250.9 1062.4,253.1 1026.7,253.1 		"/>
		<polyline class="st4" points="1027,255.2 1062.1,255.2 1061.9,257.4 1027.3,257.4 		"/>
		<polyline class="st4" points="1027.9,261.6 1061.2,261.6 1061.6,259.4 1027.5,259.4 		"/>
		<polygon class="st1" points="1042.1,269.6 1037.9,244.1 1033.7,269.6 		"/>
		<circle class="st3" cx="1037.9" cy="269.6" r="4.2"/>
		<circle class="st4" cx="1037.9" cy="269.6" r="2.1"/>
		<rect x="1025.5" y="235.3" class="st3" width="19.2" height="6.7"/>
		<polygon class="st6" points="1026.2,228 1026,232.7 1026,233.4 1025.9,238.3 1025.9,239 1025.7,245.4 1017.6,245.4 1017.8,238.5 
			1017.9,237.8 1018,233.4 1018,232.7 1018.1,228 1019.7,227.2 1022.8,226.7 		"/>
		<polyline class="st0" points="1026,233.4 1022.7,232.3 1019.2,232.8 1018,233.4 1018,232.7 1019.2,232.1 1022.7,231.6 1026,232.7 
					"/>
		<polyline class="st0" points="1017.9,237.8 1019.5,237.1 1022.9,237 1025.9,238.3 1025.9,239 1022.8,237.7 1019.4,237.8 
			1017.8,238.5 		"/>
		<path class="st0" d="M1015.7,244.7l2.8,2.6c0,0,0.8,4.5,2.5,4.7c1.8,0.1,3.5-1.8,3.9-5.1c1.1-1,0.9-2.4,0.9-2.4l-3.6-1.6l-3.9-0.2
			L1015.7,244.7z"/>
		<rect x="1026.4" y="236.3" class="st4" width="17.3" height="1.4"/>
		<rect x="1026.2" y="235.3" class="st1" width="18" height="1.4"/>
		<polygon class="st1" points="1030,240.2 1026.9,240.2 1026.6,237.1 1029.7,237.1 		"/>
		<polygon class="st1" points="1034.6,240.2 1031.5,240.2 1031.2,237.1 1034.3,237.1 		"/>
		<polygon class="st1" points="1039.3,240.2 1036.2,240.2 1035.8,237.1 1038.9,237.1 		"/>
		<path class="st1" d="M1046,183.8v-16.5c7.8,0.1,14,7.3,14,16.2c0,0.1,0,0.2,0,0.2h0v21.9h-14.1v-21.9H1046z"/>
		<path class="st3" d="M1062.4,213.9c-0.5-0.3-2-1.2-2.9-1.2c-0.2-1.1-2.1-1.2-2.8-2.1c-0.4-0.6-1.2-2.9-1.2-2.9
			c-0.3-0.9-8.7-4.6-11-4.3c-4.7-0.1-11,4.2-11,4.2s-0.7,2.3-1.2,2.9c-0.7,0.9-2.7,1-2.8,2.1c-1-0.1-3,1.3-3,1.3v15.6h36.5v-15.6
			H1062.4z"/>
		<polygon class="st1" points="1043.9,240.2 1040.8,240.2 1040.4,237.1 1043.5,237.1 		"/>
		<polygon class="st0" points="1027.8,225.2 1029.8,231 1027.8,235.7 1026.4,230.4 		"/>
		<polygon class="st2" points="1028,224.1 1029.6,230.4 1027.9,233.7 1026.6,229.7 		"/>
		<polygon class="st0" points="1031.8,225.9 1033.7,231.7 1031.8,236.5 1030.4,231.2 		"/>
		<polygon class="st2" points="1031.9,224.9 1033.6,231.2 1031.9,234.5 1030.6,230.5 		"/>
		<polygon class="st0" points="1035.8,225.6 1037.7,231.4 1035.8,236.1 1034.4,230.8 		"/>
		<polygon class="st0" points="1039.8,225.2 1041.7,231 1039.8,235.8 1038.4,230.5 		"/>
		<polygon class="st2" points="1039.9,224.1 1041.6,230.5 1039.9,233.7 1038.6,229.7 		"/>
		<polygon class="st2" points="1035.9,224.5 1037.6,230.8 1035.9,234.1 1034.6,230.1 		"/>
		<path class="st1" d="M1045.7,159.1v36.6h7.7v-22h0c0-0.1,0-0.2,0-0.2C1053.3,167.2,1050.2,161.8,1045.7,159.1z"/>
		
			<rect x="1044.6" y="229.4" transform="matrix(-1 -4.485580e-11 4.485580e-11 -1 2107.6714 465.0683)" class="st1" width="18.5" height="6.2"/>
		<path class="st0" d="M1073.4,226l-2.8-1.6c0,0-1.4-5-3.5-5.2c-2.1-0.1-4-0.1-4.4,4c-1.3,1.3,0.3,4.8,0.3,4.8l2.9,0.3l4.6,0.3
			L1073.4,226z"/>
		
			<rect x="1056.2" y="267.8" transform="matrix(-1 -4.457513e-11 4.457513e-11 -1 2116.2891 634.7158)" class="st5" width="3.9" height="99"/>
		
			<rect x="1042.8" y="267.8" transform="matrix(-1 -4.457513e-11 4.457513e-11 -1 2089.5537 634.7158)" class="st5" width="3.9" height="99"/>
		
			<rect x="1059.3" y="359.2" transform="matrix(-1 -4.490731e-11 4.490731e-11 -1 2129.595 719.7886)" class="st5" width="11.1" height="1.4"/>
		
			<rect x="1059.3" y="352.8" transform="matrix(-1 -4.490731e-11 4.490731e-11 -1 2129.595 707.071)" class="st5" width="11.1" height="1.4"/>
		
			<rect x="1059.3" y="346.5" transform="matrix(-1 -4.507207e-11 4.507207e-11 -1 2129.595 694.3533)" class="st5" width="11.1" height="1.4"/>
		
			<rect x="1059.3" y="340.1" transform="matrix(-1 -4.490731e-11 4.490731e-11 -1 2129.595 681.6356)" class="st5" width="11.1" height="1.4"/>
		
			<rect x="1059.3" y="333.8" transform="matrix(-1 -4.490731e-11 4.490731e-11 -1 2129.595 668.9179)" class="st5" width="11.1" height="1.4"/>
		
			<rect x="1059.3" y="327.4" transform="matrix(-1 -4.490731e-11 4.490731e-11 -1 2129.595 656.2003)" class="st5" width="11.1" height="1.4"/>
		
			<rect x="1059.3" y="321" transform="matrix(-1 -4.490731e-11 4.490731e-11 -1 2129.595 643.4825)" class="st5" width="11.1" height="1.4"/>
		
			<rect x="1059.3" y="314.7" transform="matrix(-1 -4.490731e-11 4.490731e-11 -1 2129.595 630.7648)" class="st5" width="11.1" height="1.4"/>
		
			<rect x="1059.3" y="308.3" transform="matrix(-1 -4.490731e-11 4.490731e-11 -1 2129.595 618.0472)" class="st5" width="11.1" height="1.4"/>
		
			<rect x="1059.3" y="302" transform="matrix(-1 -4.474300e-11 4.474300e-11 -1 2129.595 605.3295)" class="st5" width="11.1" height="1.4"/>
		
			<rect x="1059.3" y="295.6" transform="matrix(-1 -4.474300e-11 4.474300e-11 -1 2129.595 592.6118)" class="st5" width="11.1" height="1.4"/>
		
			<rect x="1059.3" y="289.2" transform="matrix(-1 -4.490731e-11 4.490731e-11 -1 2129.595 579.8941)" class="st5" width="11.1" height="1.4"/>
		
			<rect x="1059.3" y="282.9" transform="matrix(-1 -4.490731e-11 4.490731e-11 -1 2129.595 567.1765)" class="st5" width="11.1" height="1.4"/>
		
			<rect x="1046.1" y="285.4" transform="matrix(-1 -4.490731e-11 4.490731e-11 -1 2103.2749 571.498)" class="st5" width="11.1" height="0.7"/>
		
			<rect x="1046.1" y="311.5" transform="matrix(-1 -4.490731e-11 4.490731e-11 -1 2103.2749 623.7156)" class="st5" width="11.1" height="0.7"/>
		
			<rect x="1046.1" y="337.6" transform="matrix(-1 -4.490731e-11 4.490731e-11 -1 2103.2749 675.9332)" class="st5" width="11.1" height="0.7"/>
		
			<rect x="1059.3" y="276.5" transform="matrix(-1 -4.490731e-11 4.490731e-11 -1 2129.595 554.4587)" class="st5" width="11.1" height="1.4"/>
		
			<rect x="1059.3" y="270.2" transform="matrix(-1 -4.490731e-11 4.490731e-11 -1 2129.595 541.741)" class="st5" width="11.1" height="1.4"/>
		
			<rect x="1059.3" y="263.8" transform="matrix(-1 -4.490731e-11 4.490731e-11 -1 2129.595 529.0234)" class="st5" width="11.1" height="1.4"/>
		
			<rect x="1059.3" y="257.4" transform="matrix(-1 -4.490731e-11 4.490731e-11 -1 2129.595 516.3057)" class="st5" width="11.1" height="1.4"/>
		
			<rect x="1044.6" y="263.5" transform="matrix(-1 -4.485224e-11 4.485224e-11 -1 2105.1311 529.1567)" class="st4" width="16" height="2.2"/>
		<polygon class="st1" points="1047,269.7 1051.3,244.1 1055.5,269.7 		"/>
		<circle class="st3" cx="1051.3" cy="269.7" r="4.2"/>
		<circle class="st4" cx="1051.3" cy="269.7" r="2.1"/>
		
			<rect x="1044.5" y="235.4" transform="matrix(-1 -4.491841e-11 4.491841e-11 -1 2108.1926 477.5771)" class="st3" width="19.2" height="6.7"/>
		<polygon class="st6" points="1062.9,228.1 1063.1,232.8 1063.1,233.5 1063.2,238.4 1063.3,239.1 1063.4,245.5 1071.5,245.5 
			1071.3,238.6 1071.3,237.9 1071.1,233.5 1071.1,232.8 1071,228.1 1069.5,227.3 1066.4,226.8 		"/>
		<polyline class="st0" points="1063.1,232.8 1066.5,231.7 1070,232.2 1071.1,232.8 1071.1,233.5 1070,232.9 1066.5,232.4 
			1063.1,233.5 		"/>
		<polyline class="st0" points="1071.3,238.6 1069.7,237.9 1066.3,237.8 1063.3,239.1 1063.2,238.4 1066.2,237.1 1069.6,237.2 
			1071.3,237.9 		"/>
		<path class="st0" d="M1073.4,244.8l-2.8,2.6c0,0-0.8,4.5-2.5,4.7c-1.8,0.1-3.5-1.8-3.9-5.1c-1.1-1-0.9-2.4-0.9-2.4l3.6-1.6
			l3.9-0.2L1073.4,244.8z"/>
		
			<rect x="1045.4" y="236.4" transform="matrix(-1 -4.491486e-11 4.491486e-11 -1 2108.1926 474.1985)" class="st4" width="17.3" height="1.4"/>
		
			<rect x="1045" y="235.4" transform="matrix(-1 -4.492285e-11 4.492285e-11 -1 2107.9077 472.2538)" class="st1" width="18" height="1.4"/>
		<polygon class="st1" points="1059.1,240.3 1062.2,240.3 1062.6,237.2 1059.5,237.2 		"/>
		<polygon class="st1" points="1054.5,240.3 1057.6,240.3 1058,237.2 1054.9,237.2 		"/>
		<polygon class="st1" points="1049.9,240.3 1053,240.3 1053.3,237.2 1050.2,237.2 		"/>
		<polygon class="st1" points="1045.3,240.3 1048.4,240.3 1048.7,237.2 1045.6,237.2 		"/>
		
			<rect x="1044.5" y="364.1" transform="matrix(-1 -4.487622e-11 4.487622e-11 -1 2104.6008 731.4988)" class="st5" width="15.6" height="3.3"/>
		<polygon class="st0" points="1061.4,225.2 1059.4,231 1061.4,235.8 1062.8,230.5 		"/>
		<polygon class="st2" points="1061.2,224.2 1059.6,230.5 1061.2,233.8 1062.6,229.8 		"/>
		<polygon class="st0" points="1057.4,226 1055.4,231.8 1057.4,236.6 1058.8,231.3 		"/>
		<polygon class="st2" points="1057.2,224.9 1055.6,231.3 1057.2,234.5 1058.6,230.6 		"/>
		<polygon class="st0" points="1053.4,225.6 1051.4,231.4 1053.4,236.2 1054.8,230.9 		"/>
		<polygon class="st0" points="1049.4,225.3 1047.4,231.1 1049.4,235.8 1050.8,230.6 		"/>
		<polygon class="st2" points="1049.2,224.2 1047.6,230.6 1049.2,233.8 1050.6,229.8 		"/>
		<polygon class="st2" points="1053.2,224.6 1051.6,230.9 1053.2,234.2 1054.6,230.2 		"/>
		<rect x="1015.7" y="367.2" class="st2" width="56.4" height="26.8"/>
		<rect x="1012.7" y="393.2" class="st4" width="59.2" height="9.3"/>
		<rect x="1029" y="364" class="st5" width="15.6" height="3.3"/>
		<rect x="1015.7" y="371.9" class="st4" width="56.4" height="2.3"/>
	</g>
	<g>
		<path class="st1" d="M1211.5,202.1v-16.5c12,0.1,21.8,7.3,21.8,16.2c0,0.1,0,0.2,0,0.2h0v21.9h-21.9v-21.9H1211.5z"/>
		<path class="st1" d="M1211.9,202v-16.5c-12,0.1-21.8,7.3-21.8,16.2c0,0.1,0,0.2,0,0.2h0V224h21.9V202H1211.9z"/>
		<path class="st1" d="M1211.8,183.7v-16.5c-7.8,0.1-14,7.3-14,16.2c0,0.1,0,0.2,0,0.2h0v21.9h14.1v-21.9H1211.8z"/>
		<path class="st1" d="M1212.1,159v36.6h-7.7v-22h0c0-0.1,0-0.2,0-0.2C1204.5,167.1,1207.6,161.7,1212.1,159z"/>
		<rect x="1192.4" y="229.3" class="st1" width="18.5" height="6.2"/>
		<path class="st0" d="M1182,225.9l2.8-1.6c0,0,1.4-5,3.5-5.2c2.1-0.1,4-0.1,4.4,4c1.3,1.3-0.3,4.8-0.3,4.8l-2.9,0.3l-4.6,0.3
			L1182,225.9z"/>
		<polyline class="st4" points="1229.6,246.5 1210.9,246.5 1210.9,248.6 1229.6,248.6 		"/>
		<rect x="1186.2" y="242.1" class="st3" width="50.4" height="129.3"/>
		<polyline class="st5" points="1229.6,246.5 1229.8,245.5 1192,245.5 1192.1,246.5 1192.4,248.6 1192.7,250.9 1193,253.1 
			1193.3,255.2 1193.6,257.4 1193.9,259.4 1194.1,261.4 1194.2,261.6 1194.9,263.5 1194.9,265.7 1195.4,267.8 1226.4,267.8 
			1226.9,265.7 1226.9,263.5 1227.5,261.6 1227.6,261.4 1227.9,259.4 1228.2,257.4 1228.5,255.2 1228.7,253.1 1229,250.9 
			1229.3,248.6 		"/>
		<rect x="1195.4" y="267.8" class="st5" width="3.9" height="99"/>
		<rect x="1186.2" y="359.1" class="st5" width="11.1" height="1.4"/>
		<rect x="1186.2" y="352.7" class="st5" width="11.1" height="1.4"/>
		<rect x="1186.2" y="346.4" class="st5" width="11.1" height="1.4"/>
		<rect x="1186.2" y="340" class="st5" width="11.1" height="1.4"/>
		<rect x="1186.2" y="333.7" class="st5" width="11.1" height="1.4"/>
		<rect x="1186.2" y="327.3" class="st5" width="11.1" height="1.4"/>
		<rect x="1186.2" y="320.9" class="st5" width="11.1" height="1.4"/>
		<rect x="1186.2" y="314.6" class="st5" width="11.1" height="1.4"/>
		<rect x="1186.2" y="308.2" class="st5" width="11.1" height="1.4"/>
		<rect x="1186.2" y="301.9" class="st5" width="11.1" height="1.4"/>
		<rect x="1186.2" y="295.5" class="st5" width="11.1" height="1.4"/>
		<rect x="1186.2" y="289.2" class="st5" width="11.1" height="1.4"/>
		<rect x="1186.2" y="282.8" class="st5" width="11.1" height="1.4"/>
		<rect x="1198.3" y="285.3" class="st5" width="11.1" height="0.7"/>
		<rect x="1198.3" y="311.4" class="st5" width="11.1" height="0.7"/>
		<rect x="1198.3" y="337.5" class="st5" width="11.1" height="0.7"/>
		<rect x="1186.2" y="276.4" class="st5" width="11.1" height="1.4"/>
		<rect x="1186.2" y="270.1" class="st5" width="11.1" height="1.4"/>
		<rect x="1186.2" y="263.7" class="st5" width="11.1" height="1.4"/>
		<rect x="1186.2" y="257.4" class="st5" width="11.1" height="1.4"/>
		<rect x="1194.9" y="263.5" class="st4" width="16" height="2.2"/>
		<polyline class="st4" points="1192.4,248.6 1230.1,248.6 1230.1,246.5 1192.1,246.5 		"/>
		<polyline class="st4" points="1192.7,250.9 1229,250.9 1228.7,253.1 1193,253.1 		"/>
		<polyline class="st4" points="1193.3,255.2 1228.5,255.2 1228.2,257.4 1193.6,257.4 		"/>
		<polyline class="st4" points="1194.2,261.6 1227.5,261.6 1227.9,259.4 1193.9,259.4 		"/>
		<polygon class="st1" points="1208.4,269.6 1204.2,244.1 1200,269.6 		"/>
		<circle class="st3" cx="1204.2" cy="269.6" r="4.2"/>
		<circle class="st4" cx="1204.2" cy="269.6" r="2.1"/>
		<rect x="1191.8" y="235.3" class="st3" width="19.2" height="6.7"/>
		<polygon class="st6" points="1192.5,228 1192.4,232.7 1192.4,233.4 1192.2,238.3 1192.2,239 1192,245.4 1183.9,245.4 
			1184.1,238.5 1184.2,237.8 1184.3,233.4 1184.3,232.7 1184.5,228 1186,227.2 1189.1,226.7 		"/>
		<polyline class="st0" points="1192.4,233.4 1189,232.3 1185.5,232.8 1184.3,233.4 1184.3,232.7 1185.5,232.1 1189,231.6 
			1192.4,232.7 		"/>
		<polyline class="st0" points="1184.2,237.8 1185.8,237.1 1189.2,237 1192.2,238.3 1192.2,239 1189.2,237.7 1185.8,237.8 
			1184.1,238.5 		"/>
		<path class="st0" d="M1182,244.7l2.8,2.6c0,0,0.8,4.5,2.5,4.7c1.8,0.1,3.5-1.8,3.9-5.1c1.1-1,0.9-2.4,0.9-2.4l-3.6-1.6l-3.9-0.2
			L1182,244.7z"/>
		<rect x="1192.7" y="236.3" class="st4" width="17.3" height="1.4"/>
		<rect x="1192.5" y="235.3" class="st1" width="18" height="1.4"/>
		<polygon class="st1" points="1196.4,240.2 1193.3,240.2 1192.9,237.1 1196,237.1 		"/>
		<polygon class="st1" points="1201,240.2 1197.9,240.2 1197.5,237.1 1200.6,237.1 		"/>
		<polygon class="st1" points="1205.6,240.2 1202.5,240.2 1202.1,237.1 1205.2,237.1 		"/>
		<path class="st1" d="M1212.3,183.8v-16.5c7.8,0.1,14,7.3,14,16.2c0,0.1,0,0.2,0,0.2h0v21.9h-14.1v-21.9H1212.3z"/>
		<path class="st3" d="M1228.8,213.9c-0.5-0.3-2-1.2-2.9-1.2c-0.2-1.1-2.1-1.2-2.8-2.1c-0.4-0.6-1.2-2.9-1.2-2.9
			c-0.3-0.9-8.7-4.6-11-4.3c-4.7-0.1-11,4.2-11,4.2s-0.7,2.3-1.2,2.9c-0.7,0.9-2.7,1-2.8,2.1c-1-0.1-3,1.3-3,1.3v15.6h36.5v-15.6
			H1228.8z"/>
		<polygon class="st1" points="1210.2,240.2 1207.1,240.2 1206.7,237.1 1209.8,237.1 		"/>
		<polygon class="st0" points="1194.1,225.2 1196.1,231 1194.1,235.7 1192.7,230.4 		"/>
		<polygon class="st2" points="1194.3,224.1 1195.9,230.4 1194.2,233.7 1192.9,229.7 		"/>
		<polygon class="st0" points="1198.1,225.9 1200.1,231.7 1198.1,236.5 1196.7,231.2 		"/>
		<polygon class="st2" points="1198.3,224.9 1199.9,231.2 1198.2,234.5 1196.9,230.5 		"/>
		<polygon class="st0" points="1202.1,225.6 1204.1,231.4 1202.1,236.1 1200.7,230.8 		"/>
		<polygon class="st0" points="1206.1,225.2 1208.1,231 1206.1,235.8 1204.7,230.5 		"/>
		<polygon class="st2" points="1206.3,224.1 1207.9,230.5 1206.2,233.7 1204.9,229.7 		"/>
		<polygon class="st2" points="1202.3,224.5 1203.9,230.8 1202.2,234.1 1200.9,230.1 		"/>
		<path class="st1" d="M1212,159.1v36.6h7.7v-22h0c0-0.1,0-0.2,0-0.2C1219.7,167.2,1216.5,161.8,1212,159.1z"/>
		
			<rect x="1210.9" y="229.4" transform="matrix(-1 -4.485580e-11 4.485580e-11 -1 2440.3101 465.0683)" class="st1" width="18.5" height="6.2"/>
		<path class="st0" d="M1239.7,226l-2.8-1.6c0,0-1.4-5-3.5-5.2c-2.1-0.1-4-0.1-4.4,4c-1.3,1.3,0.3,4.8,0.3,4.8l2.9,0.3l4.6,0.3
			L1239.7,226z"/>
		
			<rect x="1222.5" y="267.8" transform="matrix(-1 -4.457513e-11 4.457513e-11 -1 2448.9277 634.7158)" class="st5" width="3.9" height="99"/>
		
			<rect x="1209.2" y="267.8" transform="matrix(-1 -4.457513e-11 4.457513e-11 -1 2422.1924 634.7158)" class="st5" width="3.9" height="99"/>
		
			<rect x="1225.6" y="359.2" transform="matrix(-1 -4.490731e-11 4.490731e-11 -1 2462.2336 719.7886)" class="st5" width="11.1" height="1.4"/>
		
			<rect x="1225.6" y="352.8" transform="matrix(-1 -4.490731e-11 4.490731e-11 -1 2462.2336 707.071)" class="st5" width="11.1" height="1.4"/>
		
			<rect x="1225.6" y="346.5" transform="matrix(-1 -4.507207e-11 4.507207e-11 -1 2462.2336 694.3533)" class="st5" width="11.1" height="1.4"/>
		
			<rect x="1225.6" y="340.1" transform="matrix(-1 -4.490731e-11 4.490731e-11 -1 2462.2336 681.6356)" class="st5" width="11.1" height="1.4"/>
		
			<rect x="1225.6" y="333.8" transform="matrix(-1 -4.490731e-11 4.490731e-11 -1 2462.2336 668.9179)" class="st5" width="11.1" height="1.4"/>
		
			<rect x="1225.6" y="327.4" transform="matrix(-1 -4.490731e-11 4.490731e-11 -1 2462.2336 656.2003)" class="st5" width="11.1" height="1.4"/>
		
			<rect x="1225.6" y="321" transform="matrix(-1 -4.490731e-11 4.490731e-11 -1 2462.2336 643.4825)" class="st5" width="11.1" height="1.4"/>
		
			<rect x="1225.6" y="314.7" transform="matrix(-1 -4.490731e-11 4.490731e-11 -1 2462.2336 630.7648)" class="st5" width="11.1" height="1.4"/>
		
			<rect x="1225.6" y="308.3" transform="matrix(-1 -4.490731e-11 4.490731e-11 -1 2462.2336 618.0472)" class="st5" width="11.1" height="1.4"/>
		
			<rect x="1225.6" y="302" transform="matrix(-1 -4.474300e-11 4.474300e-11 -1 2462.2336 605.3295)" class="st5" width="11.1" height="1.4"/>
		
			<rect x="1225.6" y="295.6" transform="matrix(-1 -4.474300e-11 4.474300e-11 -1 2462.2336 592.6118)" class="st5" width="11.1" height="1.4"/>
		
			<rect x="1225.6" y="289.2" transform="matrix(-1 -4.490731e-11 4.490731e-11 -1 2462.2336 579.8941)" class="st5" width="11.1" height="1.4"/>
		
			<rect x="1225.6" y="282.9" transform="matrix(-1 -4.490731e-11 4.490731e-11 -1 2462.2336 567.1765)" class="st5" width="11.1" height="1.4"/>
		
			<rect x="1212.4" y="285.4" transform="matrix(-1 -4.490731e-11 4.490731e-11 -1 2435.9136 571.498)" class="st5" width="11.1" height="0.7"/>
		
			<rect x="1212.4" y="311.5" transform="matrix(-1 -4.490731e-11 4.490731e-11 -1 2435.9136 623.7156)" class="st5" width="11.1" height="0.7"/>
		
			<rect x="1212.4" y="337.6" transform="matrix(-1 -4.490731e-11 4.490731e-11 -1 2435.9136 675.9332)" class="st5" width="11.1" height="0.7"/>
		
			<rect x="1225.6" y="276.5" transform="matrix(-1 -4.490731e-11 4.490731e-11 -1 2462.2336 554.4587)" class="st5" width="11.1" height="1.4"/>
		
			<rect x="1225.6" y="270.2" transform="matrix(-1 -4.490731e-11 4.490731e-11 -1 2462.2336 541.741)" class="st5" width="11.1" height="1.4"/>
		
			<rect x="1225.6" y="263.8" transform="matrix(-1 -4.490731e-11 4.490731e-11 -1 2462.2336 529.0234)" class="st5" width="11.1" height="1.4"/>
		
			<rect x="1225.6" y="257.4" transform="matrix(-1 -4.490731e-11 4.490731e-11 -1 2462.2336 516.3057)" class="st5" width="11.1" height="1.4"/>
		
			<rect x="1210.9" y="263.5" transform="matrix(-1 -4.485224e-11 4.485224e-11 -1 2437.7698 529.1567)" class="st4" width="16" height="2.2"/>
		<polygon class="st1" points="1213.4,269.7 1217.6,244.1 1221.8,269.7 		"/>
		<circle class="st3" cx="1217.6" cy="269.7" r="4.2"/>
		<circle class="st4" cx="1217.6" cy="269.7" r="2.1"/>
		
			<rect x="1210.8" y="235.4" transform="matrix(-1 -4.491841e-11 4.491841e-11 -1 2440.8315 477.5771)" class="st3" width="19.2" height="6.7"/>
		<polygon class="st6" points="1229.3,228.1 1229.4,232.8 1229.4,233.5 1229.6,238.4 1229.6,239.1 1229.8,245.5 1237.8,245.5 
			1237.6,238.6 1237.6,237.9 1237.5,233.5 1237.4,232.8 1237.3,228.1 1235.8,227.3 1232.7,226.8 		"/>
		<polyline class="st0" points="1229.4,232.8 1232.8,231.7 1236.3,232.2 1237.4,232.8 1237.5,233.5 1236.3,232.9 1232.8,232.4 
			1229.4,233.5 		"/>
		<polyline class="st0" points="1237.6,238.6 1236,237.9 1232.6,237.8 1229.6,239.1 1229.6,238.4 1232.5,237.1 1235.9,237.2 
			1237.6,237.9 		"/>
		<path class="st0" d="M1239.7,244.8l-2.8,2.6c0,0-0.8,4.5-2.5,4.7c-1.8,0.1-3.5-1.8-3.9-5.1c-1.1-1-0.9-2.4-0.9-2.4l3.6-1.6
			l3.9-0.2L1239.7,244.8z"/>
		
			<rect x="1211.7" y="236.4" transform="matrix(-1 -4.491486e-11 4.491486e-11 -1 2440.8315 474.1985)" class="st4" width="17.3" height="1.4"/>
		
			<rect x="1211.3" y="235.4" transform="matrix(-1 -4.492285e-11 4.492285e-11 -1 2440.5464 472.2538)" class="st1" width="18" height="1.4"/>
		<polygon class="st1" points="1225.4,240.3 1228.5,240.3 1228.9,237.2 1225.8,237.2 		"/>
		<polygon class="st1" points="1220.8,240.3 1223.9,240.3 1224.3,237.2 1221.2,237.2 		"/>
		<polygon class="st1" points="1216.2,240.3 1219.3,240.3 1219.7,237.2 1216.6,237.2 		"/>
		<polygon class="st1" points="1211.6,240.3 1214.7,240.3 1215.1,237.2 1212,237.2 		"/>
		
			<rect x="1210.8" y="364.1" transform="matrix(-1 -4.487622e-11 4.487622e-11 -1 2437.2395 731.4988)" class="st5" width="15.6" height="3.3"/>
		<polygon class="st0" points="1227.7,225.2 1225.7,231 1227.7,235.8 1229.1,230.5 		"/>
		<polygon class="st2" points="1227.5,224.2 1225.9,230.5 1227.5,233.8 1228.9,229.8 		"/>
		<polygon class="st0" points="1223.7,226 1221.7,231.8 1223.7,236.6 1225.1,231.3 		"/>
		<polygon class="st2" points="1223.5,224.9 1221.9,231.3 1223.5,234.5 1224.9,230.6 		"/>
		<polygon class="st0" points="1219.7,225.6 1217.7,231.4 1219.7,236.2 1221.1,230.9 		"/>
		<polygon class="st0" points="1215.7,225.3 1213.7,231.1 1215.7,235.8 1217.1,230.6 		"/>
		<polygon class="st2" points="1215.5,224.2 1213.9,230.6 1215.5,233.8 1216.9,229.8 		"/>
		<polygon class="st2" points="1219.5,224.6 1217.9,230.9 1219.5,234.2 1220.9,230.2 		"/>
		<rect x="1182" y="367.2" class="st2" width="56.4" height="26.8"/>
		<rect x="1179.1" y="393.2" class="st4" width="59.2" height="9.3"/>
		<rect x="1195.4" y="364" class="st5" width="15.6" height="3.3"/>
		<rect x="1182" y="371.9" class="st4" width="56.4" height="2.3"/>
	</g>
	<g>
		<path class="st14" d="M1071.3,244.2c0,0,41.8-29.7,114-0.4c1.6,38.9,2.2,72,2.2,72l-116.8-5.2L1071.3,244.2z"/>
		<polygon class="st0" points="1126.9,228.3 1130,250.4 1133.2,272.5 1126.9,272.5 1120.6,272.5 1123.7,250.4 		"/>
		<polygon class="st0" points="1137.2,226.9 1138,249.2 1138.8,271.6 1132.5,270.9 1126.3,270.2 1131.8,248.6 		"/>
		<polygon class="st0" points="1146.7,229 1144.9,251.2 1143.1,273.5 1137,272.1 1130.9,270.7 1138.8,249.8 		"/>
		<polygon class="st0" points="1156.8,231.1 1151.6,252.8 1146.4,274.5 1140.6,272.2 1134.7,269.9 1145.8,250.5 		"/>
		<polygon class="st0" points="1166.9,233.4 1160.1,254.7 1153.4,276 1147.7,273.3 1142.1,270.6 1154.5,252 		"/>
		<polygon class="st0" points="1177.5,238.8 1167.4,258.7 1157.3,278.6 1152.1,275 1147,271.4 1162.2,255.1 		"/>
		<polygon class="st0" points="1185.3,245.9 1171.6,263.6 1158,281.3 1153.6,276.8 1149.2,272.3 1167.2,259.1 		"/>
		<polygon class="st0" points="1185.4,260.9 1173.7,274 1162,287.2 1158.1,282.2 1154.2,277.3 1169.8,269.1 		"/>
		<polygon class="st0" points="1184.6,268.3 1172.2,280.8 1159.9,293.4 1156.2,288.2 1152.6,283.1 1168.6,275.7 		"/>
		<polygon class="st0" points="1184.7,274.7 1171.5,286.3 1158.3,298 1155.1,292.6 1151.8,287.2 1168.3,280.9 		"/>
		<polygon class="st0" points="1184.5,282.1 1176.5,289.3 1168.5,296.5 1165.8,290.8 1163.2,285.1 1173.8,283.6 		"/>
		<polygon class="st0" points="1185.1,287.4 1176.5,293.8 1167.8,300.1 1165.7,294.2 1163.6,288.2 1174.4,287.8 		"/>
		<polygon class="st0" points="1115,225.8 1114.3,248.1 1113.5,270.4 1119.7,269.8 1126,269.1 1120.5,247.4 		"/>
		<polygon class="st0" points="1105.5,227.8 1107.3,250.1 1109.1,272.3 1115.3,271 1121.4,269.6 1113.5,248.7 		"/>
		<polygon class="st0" points="1095.4,229.9 1100.7,251.7 1105.9,273.4 1111.7,271 1117.6,268.7 1106.5,249.3 		"/>
		<polygon class="st0" points="1085.4,232.3 1092.1,253.6 1098.9,274.9 1104.6,272.2 1110.2,269.4 1097.8,250.9 		"/>
		<polygon class="st0" points="1074.8,237.7 1084.9,257.6 1095,277.5 1100.1,273.9 1105.3,270.2 1090,254 		"/>
		<polygon class="st0" points="1067,244.8 1080.6,262.5 1094.3,280.1 1098.7,275.6 1103.1,271.1 1085,257.9 		"/>
		<polygon class="st0" points="1066.9,259.7 1078.6,272.9 1090.3,286 1094.2,281.1 1098.1,276.1 1082.5,267.9 		"/>
		<polygon class="st0" points="1067.7,267.1 1080.1,279.7 1092.4,292.2 1096,287.1 1099.7,282 1083.7,274.5 		"/>
		<polygon class="st0" points="1067.5,273.5 1080.7,285.2 1093.9,296.8 1097.2,291.4 1100.4,286 1084,279.8 		"/>
		<polygon class="st0" points="1067.8,281 1075.8,288.2 1083.8,295.3 1086.5,289.6 1089.1,283.9 1078.5,282.4 		"/>
		<polygon class="st0" points="1067.1,286.3 1075.8,292.6 1084.5,299 1086.6,293.1 1088.7,287.1 1077.9,286.7 		"/>
		<path class="st1" d="M1177.5,296.5c0,0,3.3-2.3,4.3-0.8c1,1.5,2.7,4.6,2,7.1c-0.6,2.4,1.6,12.7,1.4,13.4s1.6,1.3-1.2,3.8
			c-2.9,2.4-9.1-8.6-7.8-16.1C1177.5,296.5,1177.5,296.5,1177.5,296.5z"/>
		<path class="st32" d="M1098.1,345.5c0,0.3-0.1,0.7-0.2,1.2c0,0.1,0,0.1-0.1,0.2c-0.1,0.3-0.1,0.5-0.2,0.8c-0.4,1.3-1,2.5-1,2.5
			s-0.7,0.5-1.4,0.8c-0.6,0.3-1.4,0.3-1.7-0.3c-0.3-0.5-0.6-0.8-0.8-1c-0.3-0.2-0.4-0.4-0.5-0.7c0-0.1,0-0.2,0-0.3
			c0-0.1,0.1-0.3,0.1-0.5c0.3-0.8,0.6-1.8,0.8-2.5c0.1-0.4,0.2-0.7,0.2-0.7s1.6-0.4,3-0.4C1097.3,344.7,1098.1,344.9,1098.1,345.5z"
			/>
		<path class="st32" d="M1168.8,347c0,0.7-0.3,1.9-0.7,2.8c-0.2,0.6-0.4,1.1-0.6,1.4c-0.1,0.3-0.2,0.4-0.2,0.4s-2.4,1.9-3.2,0.5
			c-0.3-0.5-0.6-0.8-0.9-1c-0.3-0.3-0.5-0.5-0.3-1.1c0-0.1,0-0.2,0.1-0.3c0.1-0.2,0.1-0.4,0.2-0.6c0.1-0.4,0.3-0.9,0.4-1.3
			c0.2-0.7,0.4-1.3,0.4-1.3S1168.8,345.6,1168.8,347z"/>
		<path class="st32" d="M1105.9,349v4.9l-0.9,0.3l-0.4,0.1c0,0-1.3,1.5-2.3,0.9c-1-0.7-3.2-1.8-2.9-2.6c0.1-0.1,0.1-0.3,0.2-0.6
			c0,0,0,0,0,0c0.3-1.2,0.7-3.5,0.8-4c0,0,0-0.1,0-0.1s0.2-0.1,0.6-0.2c0.1,0,0.2,0,0.3,0c0.6-0.1,1.6-0.1,2.5,0.5
			c0.1,0.1,0.3,0.2,0.4,0.2c0,0,0,0,0,0C1105.2,349,1105.7,349,1105.9,349C1105.9,349,1105.9,349,1105.9,349z"/>
		<path class="st32" d="M1158.5,347.9v4.9l-1.3,0.4c0,0-1.3,1.5-2.3,0.9c-0.4-0.2-0.9-0.5-1.3-0.8c-0.9-0.6-1.7-1.2-1.5-1.7
			c0.1-0.2,0.2-0.5,0.3-0.9c0.1-0.3,0.1-0.6,0.2-0.9c0.1-0.4,0.2-0.8,0.2-1.2c0.2-0.9,0.3-1.7,0.3-1.7s1.7-0.7,3.3,0.3
			c0.3,0.2,0.6,0.3,0.8,0.4C1158.2,348,1158.5,347.9,1158.5,347.9z"/>
		<path class="st32" d="M1117.2,355.6c-0.2,0.7-0.4,1.2-0.7,1.3c-1,0.2-4.4,1.4-5.1-2.3c0,0,0,0,0,0c-0.1-0.7-0.1-1.5,0-2.6
			c0.1-0.6,0.1-1.1,0.1-1.5c0-0.2,0-0.4,0.1-0.6c0-0.1,0-0.1,0-0.2c0.4-3.4,0.2-0.7,0.2-0.7s4.6-0.7,5.6,1.6c0,0,0,0.1,0.1,0.1
			c0,0.1,0.1,0.2,0.1,0.3c0,0.2,0.1,0.4,0.1,0.6C1117.5,351.6,1117.5,354,1117.2,355.6z"/>
		<path class="st32" d="M1148.1,350.7c0,0.9-0.1,2.8-0.4,4c-0.1,0.5-0.4,0.8-0.6,0.8c-0.8,0.1-3.3,1-4.5-0.8c-0.5-0.8-0.8-2-0.6-4
			c0,0,0,0,0-0.1v0c0-0.2,0-0.4,0.1-0.6c0.6-5.9,0.3-2.4,0.3-2.4s3.9-0.6,5.3,1.1c0.3,0.4,0.5,0.8,0.5,1.4h0v0.1
			C1148.1,350.2,1148.1,350.4,1148.1,350.7z"/>
		<path class="st32" d="M1124,351.6v3.4c0,0.2,0,0.4-0.1,0.5c-0.2,0.8-1,1.4-1.9,1.3c-0.9-0.1-1.8-0.1-2.8,0.1
			c-0.9,0.1-1.8-0.4-2-1.3c0-0.2-0.1-0.3-0.1-0.5v-3.5c0-0.2,0-0.4,0.1-0.6c0-0.1,0.1-0.2,0.1-0.3c0,0,0.1-0.1,0.1-0.1
			c0.3-0.5,0.9-0.8,1.5-0.8h3.3c0.7,0,1.4,0.4,1.6,1.1c0,0.1,0.1,0.2,0.1,0.3C1124,351.3,1124,351.5,1124,351.6z"/>
		<path class="st32" d="M1142.5,351.3v3.4c0,0,0,0,0,0.1c0,1-0.9,1.8-2,1.7c-0.9-0.1-1.8-0.1-2.8,0.1c-0.7,0.1-1.3-0.2-1.7-0.6
			c-0.3-0.3-0.4-0.7-0.4-1.1v-3.5c0-0.1,0-0.2,0-0.3c0,0,0-0.1,0-0.1c0-0.1,0-0.2,0.1-0.2c0.3-0.7,0.9-1.1,1.7-1.1h3.3
			c0.5,0,0.9,0.2,1.2,0.5c0.2,0.2,0.3,0.4,0.4,0.6c0,0,0,0.1,0,0.1C1142.5,350.9,1142.5,351.1,1142.5,351.3z"/>
		<path class="st1" d="M1185.5,339.2c-1.2,7.7-4.5,24-3.1,26.4c0.7,1.2,1,4.1,0.9,6.3c-0.1,2.6-0.7,4.3-1.9,1.9
			c-0.3-0.6-0.6-1.2-0.9-1.9c-2.2-4.5-4.8-10.3-7.7-13c-3.4-3.1-4.8-5-5.2-7.6c0,0,0,0,0,0c-0.2-0.9-1.7-1.2-3.9-1.2
			c-0.2,0-0.4,0-0.7,0c-1.4,0-2.9,0.1-4.5,0.2c-0.6,0-1.2,0.1-1.8,0.1c-0.9,0.1-1.8,0.1-2.7,0.2c-0.6,0-1.2,0.1-1.7,0.1
			c-1.5,0.1-2.9,0.1-4,0c-0.1,0-0.2,0-0.3,0c-0.2,0-0.5,0-0.8,0c-1.3,0-2.9,0-4.9,0c-0.2,0-0.4,0-0.5,0c-0.6,0-1.1,0-1.7,0
			c-1.4,0-2.8,0.1-4.3,0.1c0,0-0.1,0-0.1,0c-2,0-4,0.1-6.2,0.1h-0.4c-1.7,0-3.5,0-5.2,0c-2.2-0.1-4.3-0.1-6.4-0.3c0,0-0.1,0-0.1,0
			c-1.8-0.1-3.4-0.3-5-0.6c-0.1,0-0.2,0-0.3,0c-0.2,0-0.3,0-0.5-0.1c-2-0.3-3.9-0.7-5.7-1.1c-0.6-0.1-1.1-0.3-1.7-0.4c0,0,0,0,0,0
			c-1-0.2-2-0.5-2.9-0.7c-0.1,0-0.2,0-0.2-0.1c-1.1-0.3-2.2-0.6-3.1-0.8c-0.2,0-0.3-0.1-0.5-0.1c-1.7-0.5-3.2-0.8-4.2-1
			c-1.2-0.2-1.9-0.2-2.1,0.3c-0.2,0.7,0.5,1.6,1.1,2.7c0,0.1,0.1,0.1,0.1,0.2c0.1,0.2,0.2,0.5,0.3,0.7c0.4,1.1,0.5,2.4-0.8,3.7
			c-2.9,2.9-16.5,18.1-18.2,18.1c-0.1,0-0.1,0-0.2-0.1c-0.7-1.4-0.7-1.4-0.7-1.4s2.2-5.5,2-7.9c-0.2-2.4,1.6-2.6,0-8.7
			c-1.5-6.1-3.8-13.6-3-22c0.5-5.9,0.7-8.8,1.2-10.4c0.2-0.7,0.4-1.1,0.7-1.4c0.7-0.6,2.5-4.1,3.6-8.8c0.6-2.3,1-4.9,1.1-7.6
			c0-0.1,0-0.3,0-0.4c0.1-1.6,0.1-2.9,0.1-3.9c0.1-3.8,0.1-3.8,0.1-3.8s0-0.1,0-0.3c0-0.6,0.2-1.9,0.5-3.5c0.3-1.3,0.7-2.9,1.4-4.5
			c0.2-0.4,0.3-0.8,0.5-1.2c0.4-0.9,1-1.7,1.6-2.6c0.1-0.1,0.2-0.2,0.2-0.3c0.6-0.8,1.3-1.7,2.2-2.4c0,0,0,0,0.1-0.1
			c1.3-1.1,2.8-2.1,4.5-2.9c0.6-0.2,1.2-0.5,1.8-0.7c0.3-0.1,0.5-0.1,0.8-0.2c0.6-0.2,1.1-0.4,1.7-0.7c0.6-0.2,1.3-0.5,2-0.8
			c0.8-0.3,1.7-0.6,2.5-1c0.7-0.3,1.5-0.6,2.3-0.9c0,0,0,0,0,0c1.4-0.5,2.9-1,4.4-1.5c0,0,0.1,0,0.1,0c1.2-0.4,2.3-0.7,3.5-1.1
			c1.5-0.4,3-0.8,4.5-1.2c1.3-0.3,2.6-0.6,4-0.8c1.1-0.2,2.2-0.4,3.4-0.5c0.1,0,0.2,0,0.3,0c1.5-0.2,2.9-0.3,4.4-0.4
			c0.4,0,0.9-0.1,1.3-0.1c1.7-0.1,3.4-0.1,5.1,0c0.1,0,0.3,0,0.4,0c1.1,0.1,2.3,0.1,3.4,0.3c0.9,0.1,1.9,0.2,2.8,0.4
			c1.4,0.2,2.9,0.5,4.4,0.9c0.1,0,0.3,0.1,0.4,0.1c1.3,0.3,2.6,0.7,3.9,1.1c0.1,0,0.3,0.1,0.4,0.1c0.9,0.3,1.7,0.6,2.6,0.9
			c1.3,0.5,2.6,1,3.9,1.7c1.1,0.5,2.2,1.1,3.4,1.7c0.2,0.1,0.5,0.2,0.7,0.3c0.2,0.1,0.4,0.2,0.6,0.3c0.9,0.5,1.8,0.9,2.6,1.3
			c0.8,0.4,1.6,0.8,2.3,1.2c1.5,0.8,2.9,1.6,4.2,2.4c0.2,0.1,0.5,0.3,0.7,0.4c0.7,0.5,1.4,1,2.1,1.5c0.6,0.5,1.3,1,1.8,1.5
			c0.3,0.3,0.6,0.5,0.8,0.8c0.9,1,1.8,2,2.5,3.2c0.2,0.4,0.5,0.9,0.7,1.3c0.5,1.1,0.9,2.3,1.2,3.6c0.2,1,0.4,2.1,0.5,3.3
			c0,0.1,0,0.2,0,0.3c0,0-0.1,1-0.3,2.6c-0.4,4.1-0.9,11.9,0.9,16.5c0.2,0.6,0.5,1.1,0.8,1.6c0.4,0.7,0.8,1.4,1.2,2.2
			C1183.9,324.8,1186.6,332.4,1185.5,339.2z"/>
		<path class="st32" d="M1129.4,350.4c0,0,0.1,0.2,0.2,0.5c0,0.1,0.1,0.2,0.1,0.3c0.6,1.7,1.8,5.5,1,5.5c-0.6,0-1.5-0.3-2.3-0.5
			c-0.7-0.1-1.3-0.2-1.7,0c-0.7,0.3-2.1,1.1-2.7-0.7c-0.3-0.8-0.3-2.1-0.1-4.3c0,0,0,0,0,0"/>
		<path class="st32" d="M1129.2,350.5c0,0,0,0.2-0.1,0.4c0,0.1,0,0.2-0.1,0.3c-0.2,1.1-0.7,3.5-0.7,5c0,0.9,0.1,1.5,0.4,1.4
			c1.2-0.2,3.4-1.5,4.6-1.3c0.7,0.1,2.1,0.6,2.7-0.5c0.4-0.7,0.5-2.2-0.2-4.9c0,0,0-0.1,0-0.1c0-0.1,0-0.2-0.1-0.2c0,0,0-0.1,0-0.1"
			/>
		<path class="st32" d="M1111.4,354.6C1111.4,354.6,1111.4,354.6,1111.4,354.6c0,0.1-0.7,2.6-1.9,2.1c-1.2-0.5-1.7-1.4-2.6-1
			c-0.8,0.4-1.9-0.3-1.9-1.5c0-0.2,0-0.4,0.1-0.6c0.2-0.7,0.4-1.8,0.5-2.9c0.1-0.5,0.1-0.9,0.2-1.3c0-0.2,0-0.3,0.1-0.4
			c0-0.1,0-0.1,0-0.2c0.1-0.4,0.1-0.6,0.1-0.6l5.6,1.5l0.4,0.1c0,0,0,0.1,0,0.2c0,0.1,0,0.3,0.1,0.6
			C1112.2,351.8,1112.3,354,1111.4,354.6z"/>
		<path class="st32" d="M1163.8,349.2c0,0.3,0,0.5-0.1,0.8c-0.1,0.4-0.2,0.8-0.3,1.1c-0.1,0.2-0.2,0.3-0.4,0.4c0,0-0.7,2.6-1.9,2.1
			c-1.2-0.5-1.7-1.4-2.6-1c0,0,0,0,0,0c-0.9,0.4-2.2-0.5-1.8-2.1c0-0.1,0-0.1,0.1-0.2c0.1-0.3,0.1-0.6,0.2-1
			c0.1-0.5,0.2-1.1,0.3-1.7c0,0,0-0.1,0-0.1c0.2-1.3,0.4-2.4,0.4-2.4l6.1,1.6c0,0,0.1,0.5,0.1,1.2
			C1163.8,348.3,1163.8,348.8,1163.8,349.2z"/>
		<path class="st32" d="M1153.6,353.2c-0.1,0.2-0.2,0.3-0.3,0.4c0,0-0.7,2.6-1.9,2.1c-1.2-0.5-1.7-1.4-2.6-1
			c-0.3,0.2-0.8,0.1-1.1-0.1c-0.6-0.3-1-1-0.7-2c0.1-0.5,0.3-1.2,0.4-2c0-0.1,0-0.3,0.1-0.4c0-0.1,0.1-0.3,0.1-0.5
			c0.1-0.4,0.1-0.7,0.2-1c0.1-0.8,0.2-1.5,0.2-1.5l4.9,1.3l1.1,0.3c0,0,0,0.3,0.1,0.7c0,0.3,0,0.6,0.1,0.9
			C1154,351.5,1154,352.6,1153.6,353.2z"/>
		<path class="st32" d="M1101.1,347.3c0,0.1,0,0.2,0,0.4c0,0,0,0.1,0,0.1c0,0.1,0,0.2-0.1,0.3c-0.3,1.5-1.3,3.7-1.4,3.9c0,0,0,0,0,0
			c0,0,0,0,0,0s-2.4,1.9-3.2,0.5c-0.5-0.9-1.1-1.1-1.2-1.5c-0.1-0.2-0.1-0.5,0.1-0.9c0.3-0.8,0.6-1.8,0.8-2.5
			c0.1-0.4,0.2-0.7,0.2-0.7s0.4-0.1,1-0.2c0.2,0,0.3-0.1,0.5-0.1C1099.3,346.5,1101,346.4,1101.1,347.3z"/>
		<path class="st23" d="M1168.6,350c0,0,3.5,1.2,4.9,0c1.4-1.2,5.1-6.9,1-7.7c-5.4,0.1-26.7,1.1-31.8,0c-5.1-1.1-4.2-2.1-9.3,0
			c-1.9,0.6-7.1,1.1-8.7,0c-1.5-1.1-6.1-0.7-9.7,0c-3.6,0.7-22.3,1.1-26.5,0c-4.2-1.1-4.8-1.4-4.6,0c0.2,1.4,1.7,9.5,8.7,6.6
			c-0.5-1.6,5.8-1.6,9.4-0.6c3.9,1,11.9,4.8,47.4,1.7C1149.3,350,1165.2,348.1,1168.6,350z"/>
		<path class="st0" d="M1145,327.6c0,0-7.4-1.2-9.3,2.7C1136.6,329.4,1142.6,328.4,1145,327.6z"/>
		<path class="st0" d="M1125,330.4c0,0-6-3.3-11.3-3c1,1,0.2,1.2,1,1S1125,330.4,1125,330.4z"/>
		<path class="st0" d="M1139.1,319.3c0,0,0,6.3-1.2,6.6c-1.2,0.3-5.6,3.6-5.6,3.6l1.9-5.6C1134.3,324,1139.3,322,1139.1,319.3z"/>
		<path class="st0" d="M1122.7,326.5c0,0-1.4-5-0.9-6.1c0.5-1.1-3.4,0.8-3.4,0.8v4C1118.4,325.3,1120.5,327.4,1122.7,326.5z"/>
		<path class="st0" d="M1111.3,328.9c0,0-7.1-4.4,1.5-11.2C1110.8,320.1,1107.7,324.6,1111.3,328.9z"/>
		<path class="st0" d="M1146.3,327.4c0,0,4.2-2.9,0.5-7C1147.2,321.8,1148.2,325.8,1146.3,327.4z"/>
		<path class="st0" d="M1133.7,335.9c0,0,0.4-3-1.8-3s-6.9-0.7-6.9,1.1s0,5.3,0,5.3S1131.6,333.4,1133.7,335.9z"/>
		<path class="st0" d="M1138.1,305.7l-4.4-7.6c0,0,3-9.2,7.4-9.5c4.5-0.4,16.1-2.6,20.7,0c4.6,2.6,2.5,7.9,2.5,7.9
			s-8.7-4.4-15.1-1.5C1142.8,297.9,1137.9,301.4,1138.1,305.7z"/>
		<path class="st4" d="M1093.2,303.1l-0.7-5.5c0.3,1.7,0.7,3.3,2.7,4L1093.2,303.1z"/>
		<path class="st0" d="M1117.9,305.7l4.4-7.6c0,0-3-9.2-7.4-9.5c-4.5-0.4-16.1-2.6-20.7,0c-4.6,2.6-2.5,7.9-2.5,7.9
			s8.7-4.4,15.1-1.5C1113.2,297.9,1118.1,301.4,1117.9,305.7z"/>
		<path class="st32" d="M1114.4,305.7c-2.3,1.1-4.6,1.8-6.7,2.3c-0.9,0.2-1.8,0.3-2.7,0.4c-1.7,0.2-3.2,0.2-4.7,0.1
			c-1-0.1-1.9-0.2-2.7-0.3c-4.4-0.8-7-2.4-7-2.4C1100.3,292.9,1112.2,301.2,1114.4,305.7z"/>
		<path class="st5" d="M1107.9,306.8c0,0.4-0.1,0.8-0.2,1.1c-3.9,0.8-7.4,0.7-10.1,0.2c-0.1-0.4-0.2-0.9-0.2-1.3
			c0-0.7,0.2-1.4,0.5-2c0.7-1.2,1.9-2.1,3.4-2.4c0.4-0.1,0.8-0.1,1.3-0.1C1105.5,302.2,1107.9,304.3,1107.9,306.8z"/>
		<path class="st32" d="M1102.2,305.7l-2,2l-2.3-2.9c0.7-1.2,1.9-2.1,3.4-2.4L1102.2,305.7z"/>
		<path class="st4" d="M1105.1,307.7c0,0.3,0,0.5-0.1,0.7c-1.7,0.2-3.2,0.2-4.7,0.1c-0.1-0.3-0.1-0.5-0.1-0.8c0-1.4,1.1-2.5,2.5-2.5
			C1104,305.2,1105.1,306.3,1105.1,307.7z"/>
		<path class="st32" d="M1141.7,305.7c2.3,1.1,4.6,1.8,6.7,2.3c0.9,0.2,1.8,0.3,2.7,0.4c1.7,0.2,3.2,0.2,4.7,0.1
			c1-0.1,1.9-0.2,2.7-0.3c4.4-0.8,7-2.4,7-2.4C1155.8,292.9,1143.9,301.2,1141.7,305.7z"/>
		<path class="st5" d="M1148.3,306.8c0,0.4,0.1,0.8,0.2,1.1c3.9,0.8,7.4,0.7,10.1,0.2c0.1-0.4,0.2-0.9,0.2-1.3c0-0.7-0.2-1.4-0.5-2
			c-0.7-1.2-1.9-2.1-3.4-2.4c-0.4-0.1-0.8-0.1-1.3-0.1C1150.6,302.2,1148.3,304.3,1148.3,306.8z"/>
		<path class="st32" d="M1153.9,305.7l2,2l2.3-2.9c-0.7-1.2-1.9-2.1-3.4-2.4L1153.9,305.7z"/>
		<path class="st4" d="M1151,307.7c0,0.3,0,0.5,0.1,0.7c1.7,0.2,3.2,0.2,4.7,0.1c0.1-0.3,0.1-0.5,0.1-0.8c0-1.4-1.1-2.5-2.5-2.5
			C1152.1,305.2,1151,306.3,1151,307.7z"/>
		<path class="st0" d="M1116.2,309.5c0,0-17,7.9-27.6,0C1090.5,310,1103.9,314.1,1116.2,309.5z"/>
		<path class="st0" d="M1165.8,310.2c0,0-17,7.9-27.6,0C1140.1,310.7,1153.6,314.9,1165.8,310.2z"/>
		<path class="st33" d="M1173.6,312.5c0,0-15.2,9.6-21.6,6.8c4,4.6,13.8,22.4,23.6,14.3C1178.2,324.1,1179.9,313.9,1173.6,312.5z"/>
		<path class="st33" d="M1082.6,312.5c0,0,15.2,9.6,21.6,6.8c-4,4.6-13.8,22.4-23.6,14.3C1078,324.1,1076.3,313.9,1082.6,312.5z"/>
		<path class="st4" d="M1171,287.3c0,0-6.5-5.2-17-4c-10.4,1.2-10.4,1.2-10.4,1.2s-4.2,2.6-4.5,1.3s0.9-4.2,4.9-5.4
			c3.9-1.2,10.2-2,11.3-1.9C1156.3,278.8,1169.2,279.1,1171,287.3z"/>
		<path class="st4" d="M1084.1,289c0,0,6.5-5.2,17-4c10.4,1.2,10.4,1.2,10.4,1.2s4.2,2.6,4.5,1.3c0.3-1.3-0.9-4.2-4.9-5.4
			c-3.9-1.2-10.2-2-11.3-1.9C1098.8,280.4,1085.9,280.7,1084.1,289z"/>
		<path class="st4" d="M1090.6,305.7l-2-5.1c0.7,1.6,1.5,3,3.7,3.1L1090.6,305.7z"/>
		<path class="st4" d="M1092,304l-2-5.1c0.7,1.6,1.5,3,3.7,3.1L1092,304z"/>
		<path class="st4" d="M1163,303.1l0.7-5.5c-0.3,1.7-0.7,3.3-2.7,4L1163,303.1z"/>
		<path class="st4" d="M1165.5,305.7l2-5.1c-0.7,1.6-1.5,3-3.7,3.1L1165.5,305.7z"/>
		<path class="st4" d="M1164.1,304l2-5.1c-0.7,1.6-1.5,3-3.7,3.1L1164.1,304z"/>
		<path class="st1" d="M1076.9,296.8c0,0-3.5-1.9-4.4-0.3s-2.2,4.9-1.3,7.2c0.9,2.4-0.4,12.8-0.1,13.5c0.3,0.7-1.5,1.5,1.6,3.6
			c3.1,2.2,8.2-9.5,6.2-16.8C1076.9,296.8,1076.9,296.8,1076.9,296.8z"/>
		<g>
			<g>
				<path class="st23" d="M1086.5,228.9c0.2,0.7,0.2,1.1,0.4,1.8c-2.7,0.4-4.1,0.6-6.8,1c-1.1-4.7-1.7-7-2.9-11.7
					c0.8-0.1,1.2-0.2,2-0.3c0.9,4,1.4,5.9,2.3,9.9C1083.5,229.3,1084.5,229.1,1086.5,228.9z"/>
				<path class="st23" d="M1097.5,224.5c0.5,3.1-1.1,5.1-4.2,5.5c-3.1,0.3-5.3-1.3-5.9-4.4c-0.6-2.8-0.8-4.1-1.4-6.9
					c0.8-0.1,1.2-0.2,2-0.3c0.5,2.8,0.8,4.1,1.3,6.9c0.4,2,1.8,3,3.7,2.8c1.9-0.2,2.8-1.5,2.5-3.5c-0.4-2.8-0.7-4.1-1.1-6.9
					c0.8-0.1,1.2-0.1,2-0.2C1096.9,220.3,1097.1,221.7,1097.5,224.5z"/>
				<path class="st23" d="M1109,228.5c-2.7-3.3-4.2-4.9-7.1-8.1c0.4,3.4,0.6,5.1,1.1,8.5c-0.8,0.1-1.1,0.1-1.9,0.2
					c-0.6-4.7-1-7.1-1.6-11.8c0.8-0.1,1.2-0.1,2-0.2c3,3.2,4.4,4.8,7.2,8.1c-0.3-3.4-0.5-5.1-0.8-8.5c0.8,0,1.2-0.1,2-0.1
					c0.4,4.7,0.6,7.1,1,11.9C1110.1,228.4,1109.7,228.5,1109,228.5z"/>
				<path class="st23" d="M1115.3,225.5c-0.4,1.1-0.6,1.6-0.9,2.7c-0.8,0-1.2,0.1-2,0.1c1.6-4.8,2.5-7.3,4.4-12.1
					c0.8,0,1.3,0,2.1-0.1c2.3,4.7,3.4,7.1,5.4,11.8c-0.8,0-1.2,0-2,0c-0.5-1.1-0.7-1.6-1.2-2.7
					C1118.8,225.4,1117.6,225.4,1115.3,225.5z M1117.9,218.3c-0.8,2.1-1.2,3.2-2,5.4c1.8-0.1,2.6-0.1,4.4-0.1
					C1119.4,221.5,1118.9,220.4,1117.9,218.3z"/>
				<path class="st23" d="M1135,216.2c3,0.1,4.7,1.6,4.5,4.2c-0.2,2.7-1.9,4.2-4.8,4.1c-1.1,0-1.6,0-2.7-0.1c0,1.4-0.1,2.2-0.1,3.6
					c-0.8,0-1.1,0-1.9,0c0.1-4.8,0.1-7.1,0.2-11.9C1132.1,216.1,1133.1,216.1,1135,216.2z M1132.1,222.6c1,0,1.6,0,2.6,0.1
					c1.8,0,2.9-0.7,2.9-2.3c0.1-1.6-0.9-2.3-2.8-2.4c-1.1,0-1.6,0-2.7-0.1C1132.1,219.8,1132.1,220.7,1132.1,222.6z"/>
				<path class="st23" d="M1142,225.7c-0.5,1.1-0.8,1.6-1.3,2.6c-0.8,0-1.2-0.1-2-0.1c2.3-4.7,3.5-7,6-11.6c0.8,0,1.2,0.1,2.1,0.1
					c1.6,4.9,2.4,7.3,3.8,12.2c-0.8-0.1-1.2-0.1-2-0.2c-0.3-1.1-0.5-1.7-0.8-2.8C1145.5,225.9,1144.3,225.8,1142,225.7z
					 M1145.6,218.8c-1.1,2.1-1.6,3.1-2.7,5.1c1.8,0.1,2.6,0.1,4.4,0.3C1146.6,222,1146.3,220.9,1145.6,218.8z"/>
				<path class="st23" d="M1157.8,226c-0.2,0-0.3,0-0.5,0c-1.1-0.1-1.6-0.2-2.7-0.3c-0.2,1.4-0.3,2.1-0.5,3.6
					c-0.8-0.1-1.1-0.1-1.9-0.2c0.6-4.7,0.9-7.1,1.6-11.8c2,0.2,2.9,0.3,4.9,0.5c3.1,0.3,4.6,2,4.1,4.5c-0.3,1.9-1.4,3.1-3.1,3.6
					c0.8,1.7,1.1,2.5,1.9,4.2c-0.9-0.1-1.3-0.1-2.2-0.2C1158.8,228.2,1158.5,227.5,1157.8,226z M1157.6,224.1c1.8,0.2,3-0.5,3.2-2.1
					c0.3-1.5-0.7-2.4-2.5-2.6c-1.1-0.1-1.7-0.2-2.8-0.3c-0.3,1.9-0.4,2.8-0.7,4.7C1155.9,224,1156.5,224,1157.6,224.1z"/>
				<path class="st23" d="M1168.8,225.6c-1,0.8-1.5,1.2-2.4,1.9c-0.2,1.2-0.4,1.8-0.6,3c-0.8-0.1-1.1-0.1-1.9-0.2
					c0.9-4.7,1.4-7.1,2.3-11.8c0.8,0.1,1.2,0.2,2,0.3c-0.5,2.4-0.7,3.6-1.2,6.1c2.7-2.1,4.1-3.2,6.9-5.3c1,0.1,1.4,0.2,2.4,0.4
					c-2.3,1.7-3.5,2.6-5.7,4.3c1.3,3,2,4.4,3.2,7.4c-0.9-0.1-1.4-0.2-2.3-0.4C1170.4,229,1169.9,227.9,1168.8,225.6z"/>
			</g>
		</g>
	</g>
</g>
<rect x="48.6" y="358.8" class="st12" width="1.2" height="44"/>
<rect x="49.8" y="358.7" class="st0" width="20.3" height="11.9"/>
<rect x="49.8" y="364.3" class="st3" width="20.3" height="6.6"/>
</svg>
