<svg xmlns="http://www.w3.org/2000/svg" xmlns:xlink="http://www.w3.org/1999/xlink" viewBox="0 0 278 416"><defs><style>.cls-1{isolation:isolate;}.cls-2{fill:#42005b;}.cls-3{fill:#cce5fd;}.cls-36,.cls-4{fill:#bda6c6;}.cls-5{fill:#ddeefe;}.cls-6{fill:#d5e9fe;}.cls-7{fill:#c4e1fd;}.cls-8{fill:#805491;}.cls-10,.cls-12,.cls-13,.cls-14,.cls-15,.cls-16,.cls-17,.cls-18,.cls-19,.cls-20,.cls-21,.cls-22,.cls-23,.cls-24,.cls-25,.cls-26,.cls-27,.cls-29,.cls-33,.cls-34,.cls-35,.cls-37,.cls-38,.cls-39,.cls-40,.cls-41,.cls-42,.cls-9{mix-blend-mode:multiply;}.cls-9{fill:url(#linear-gradient);}.cls-10{fill:url(#linear-gradient-2);}.cls-11{fill:#ddd1e1;}.cls-12{fill:url(#linear-gradient-3);}.cls-13{fill:url(#linear-gradient-4);}.cls-14{fill:url(#linear-gradient-5);}.cls-15{fill:url(#linear-gradient-6);}.cls-16{fill:url(#linear-gradient-7);}.cls-17{fill:url(#linear-gradient-8);}.cls-18{fill:url(#linear-gradient-9);}.cls-19{fill:url(#linear-gradient-10);}.cls-20{fill:url(#linear-gradient-11);}.cls-21{fill:url(#linear-gradient-12);}.cls-22{fill:url(#linear-gradient-13);}.cls-23{fill:url(#linear-gradient-14);}.cls-24{fill:url(#linear-gradient-15);}.cls-25{fill:url(#linear-gradient-16);}.cls-26{fill:url(#linear-gradient-17);}.cls-27{fill:url(#linear-gradient-18);}.cls-28,.cls-30,.cls-31,.cls-32{fill:none;}.cls-28,.cls-30{stroke:#bda6c6;}.cls-28,.cls-36{stroke-linejoin:bevel;}.cls-28,.cls-30,.cls-31,.cls-32,.cls-36{stroke-width:0.25px;}.cls-29{fill:url(#linear-gradient-19);}.cls-30,.cls-31{stroke-miterlimit:10;}.cls-31,.cls-32{stroke:#d5e9fe;stroke-linecap:round;}.cls-32{stroke-linejoin:round;}.cls-33{fill:url(#linear-gradient-20);}.cls-34{fill:url(#linear-gradient-21);}.cls-35{fill:url(#linear-gradient-22);}.cls-36{stroke:#42005b;}.cls-37{fill:url(#linear-gradient-23);}.cls-38{fill:url(#linear-gradient-24);}.cls-39{fill:url(#linear-gradient-25);}.cls-40{fill:url(#linear-gradient-26);}.cls-41{fill:url(#linear-gradient-27);}.cls-42{fill:url(#linear-gradient-28);}</style><linearGradient id="linear-gradient" x1="139.04" y1="196.23" x2="139.04" y2="192.06" gradientUnits="userSpaceOnUse"><stop offset="0" stop-color="#fff"/><stop offset="1" stop-color="#805491"/></linearGradient><linearGradient id="linear-gradient-2" x1="139.04" y1="140.17" x2="139.04" y2="136.01" xlink:href="#linear-gradient"/><linearGradient id="linear-gradient-3" x1="14.81" y1="136.77" x2="14.81" y2="133.52" gradientUnits="userSpaceOnUse"><stop offset="0" stop-color="#fff"/><stop offset="1" stop-color="#ddeefe"/></linearGradient><linearGradient id="linear-gradient-4" x1="88.73" y1="136.77" x2="88.73" y2="133.52" xlink:href="#linear-gradient-3"/><linearGradient id="linear-gradient-5" x1="189.37" y1="136.77" x2="189.37" y2="133.52" xlink:href="#linear-gradient-3"/><linearGradient id="linear-gradient-6" x1="263.29" y1="136.77" x2="263.29" y2="133.52" xlink:href="#linear-gradient-3"/><linearGradient id="linear-gradient-7" x1="14.81" y1="192.82" x2="14.81" y2="189.57" xlink:href="#linear-gradient-3"/><linearGradient id="linear-gradient-8" x1="14.81" y1="272.5" x2="14.81" y2="269.25" xlink:href="#linear-gradient"/><linearGradient id="linear-gradient-9" x1="88.7" y1="272.5" x2="88.7" y2="269.25" xlink:href="#linear-gradient"/><linearGradient id="linear-gradient-10" x1="189.35" y1="272.5" x2="189.35" y2="269.25" xlink:href="#linear-gradient"/><linearGradient id="linear-gradient-11" x1="263.24" y1="272.5" x2="263.24" y2="269.25" xlink:href="#linear-gradient"/><linearGradient id="linear-gradient-12" x1="88.73" y1="192.82" x2="88.73" y2="189.57" xlink:href="#linear-gradient-3"/><linearGradient id="linear-gradient-13" x1="189.37" y1="192.82" x2="189.37" y2="189.57" xlink:href="#linear-gradient-3"/><linearGradient id="linear-gradient-14" x1="263.29" y1="192.82" x2="263.29" y2="189.57" xlink:href="#linear-gradient-3"/><linearGradient id="linear-gradient-15" x1="139.14" y1="282.86" x2="139.14" y2="278.69" xlink:href="#linear-gradient-3"/><linearGradient id="linear-gradient-16" x1="14.82" y1="248.76" x2="14.82" y2="246.56" xlink:href="#linear-gradient"/><linearGradient id="linear-gradient-17" x1="14.82" y1="222.72" x2="14.82" y2="220.52" xlink:href="#linear-gradient"/><linearGradient id="linear-gradient-18" x1="139.04" y1="314.42" x2="139.04" y2="310.25" xlink:href="#linear-gradient-3"/><linearGradient id="linear-gradient-19" x1="226.32" y1="15.51" x2="226.32" y2="7.54" gradientUnits="userSpaceOnUse"><stop offset="0" stop-color="#fff" stop-opacity="0.65"/><stop offset="1" stop-color="#bda6c6"/></linearGradient><linearGradient id="linear-gradient-20" x1="226.32" y1="23.81" x2="226.32" y2="12.53" gradientUnits="userSpaceOnUse"><stop offset="0.23" stop-color="#fff" stop-opacity="0.65"/><stop offset="0.38" stop-color="#f6f2f7" stop-opacity="0.68"/><stop offset="0.58" stop-color="#dbcee0" stop-opacity="0.75"/><stop offset="0.8" stop-color="#af93ba" stop-opacity="0.87"/><stop offset="1" stop-color="#805491"/></linearGradient><linearGradient id="linear-gradient-21" x1="51.68" y1="15.51" x2="51.68" y2="7.54" xlink:href="#linear-gradient-19"/><linearGradient id="linear-gradient-22" x1="51.68" y1="23.81" x2="51.68" y2="12.53" xlink:href="#linear-gradient-20"/><linearGradient id="linear-gradient-23" x1="88.72" y1="248.76" x2="88.72" y2="246.56" xlink:href="#linear-gradient"/><linearGradient id="linear-gradient-24" x1="88.72" y1="222.72" x2="88.72" y2="220.52" xlink:href="#linear-gradient"/><linearGradient id="linear-gradient-25" x1="189.35" y1="248.76" x2="189.35" y2="246.56" xlink:href="#linear-gradient"/><linearGradient id="linear-gradient-26" x1="189.35" y1="222.72" x2="189.35" y2="220.52" xlink:href="#linear-gradient"/><linearGradient id="linear-gradient-27" x1="263.24" y1="248.76" x2="263.24" y2="246.56" xlink:href="#linear-gradient"/><linearGradient id="linear-gradient-28" x1="263.24" y1="222.72" x2="263.24" y2="220.52" xlink:href="#linear-gradient"/></defs><title>paris</title><g class="cls-1"><g id="Layer_1" data-name="Layer 1"><polygon class="cls-2" points="137.3 49.64 130.79 198.28 143.8 198.28 137.3 49.64"/><polygon class="cls-3" points="137.3 145.74 102.63 198.28 171.96 198.28 137.3 145.74"/><rect class="cls-4" x="7.36" y="16.28" width="88.64" height="180.64"/><rect class="cls-4" x="7.36" y="135.14" width="92.31" height="61.77"/><rect class="cls-4" x="178.07" y="135.14" width="92.31" height="61.77"/><path class="cls-2" d="M49.14,130.27V69.89c0-1-.13-24.69-11.47-24.69S26.2,68.88,26.2,69.89v60.38Z"/><path class="cls-5" d="M47.86,130.27V69.89c0-.23-.12-23.42-10.19-23.42S27.48,69.66,27.48,69.89v60.38Z"/><path class="cls-6" d="M46.59,130.27V69.89c0-.22-.38-22.14-8.92-22.14s-8.92,21.92-8.92,22.14v60.38Z"/><path class="cls-3" d="M45.31,130.27V69.89c0-.21-.56-20.87-7.64-20.87S30,69.68,30,69.89v60.38Z"/><path class="cls-7" d="M43.74,130.27V69.89c0-3.6-1-19.6-5.9-19.6s-5.9,16-5.9,19.6v60.38Z"/><path class="cls-2" d="M77.16,130.27V69.89c0-1-.13-24.69-11.47-24.69S54.23,68.88,54.23,69.89v60.38Z"/><path class="cls-5" d="M75.89,130.27V69.89c0-.23-.12-23.42-10.19-23.42S55.5,69.66,55.5,69.89v60.38Z"/><path class="cls-6" d="M74.62,130.27V69.89c0-.22-.38-22.14-8.92-22.14s-8.92,21.92-8.92,22.14v60.38Z"/><path class="cls-3" d="M73.34,130.27V69.89c0-.21-.56-20.87-7.64-20.87s-7.64,20.66-7.64,20.87v60.38Z"/><path class="cls-7" d="M71.77,130.27V69.89c0-3.6-1-19.6-5.9-19.6s-5.9,16-5.9,19.6v60.38Z"/><rect class="cls-4" x="8.28" y="189.19" width="261.51" height="224.81"/><rect class="cls-8" x="182" y="310.25" width="14.7" height="103.75"/><rect class="cls-8" x="258.73" y="310.25" width="14.7" height="103.75"/><polygon class="cls-8" points="273.43 310.25 4.65 310.25 2.73 308.38 2.73 278.69 275.56 278.69 275.56 308.38 273.43 310.25"/><path class="cls-2" d="M227.71,326.29c-29.41,9.93-29.3,45.76-29.3,45.76v42H257V372S257.12,336.21,227.71,326.29Z"/><path class="cls-2" d="M139,315.58c-38.59,11.14-38.45,51.35-38.45,51.35V414h76.89V366.93S177.63,326.72,139,315.58Z"/><rect class="cls-8" x="4.65" y="310.25" width="14.7" height="103.75"/><rect class="cls-8" x="81.38" y="310.25" width="14.7" height="103.75"/><path class="cls-2" d="M50.37,326.29C21,336.21,21.06,372,21.06,372v42h58.6V372S79.78,336.21,50.37,326.29Z"/><path class="cls-2" d="M51.68,204.6c-30.73,8-30.62,36.66-30.62,36.66v33.61H82.3V241.26S82.41,212.55,51.68,204.6Z"/><path class="cls-2" d="M226.39,204.6c-30.73,8-30.62,36.66-30.62,36.66v33.61H257V241.26S257.13,212.55,226.39,204.6Z"/><circle class="cls-3" cx="139.04" cy="237.3" r="28.87"/><circle class="cls-6" cx="139.04" cy="237.3" r="20.41"/><circle class="cls-2" cx="139.04" cy="237.3" r="6.91"/><path class="cls-7" d="M44.62,274.87V244.71c0-3.6-2.95-8.07-6.55-8.07s-6.55,4.46-6.55,8.07v30.16Z"/><path class="cls-7" d="M72.65,274.87V244.71c0-3.6-2.95-8.07-6.55-8.07s-6.55,4.46-6.55,8.07v30.16Z"/><path class="cls-7" d="M219.94,274.87V244.71c0-3.6-2.95-8.07-6.55-8.07s-6.55,4.46-6.55,8.07v30.16Z"/><path class="cls-7" d="M248,274.87V244.71c0-3.6-2.95-8.07-6.55-8.07s-6.55,4.46-6.55,8.07v30.16Z"/><circle class="cls-8" cx="51.78" cy="221.78" r="10.12"/><circle class="cls-8" cx="226.39" cy="221.78" r="10.12"/><rect class="cls-4" x="182" y="16.28" width="88.64" height="180.64"/><rect class="cls-9" x="21.06" y="192.06" width="235.95" height="4.17"/><rect class="cls-8" x="182" y="191.04" width="14.7" height="85.37"/><rect class="cls-10" x="21.06" y="136.01" width="235.95" height="4.17"/><rect class="cls-11" x="7.47" y="130.27" width="262.32" height="5.74"/><rect class="cls-8" x="182" y="136.27" width="14.7" height="56.06"/><rect class="cls-8" x="255.94" y="136.27" width="14.7" height="56.06"/><rect class="cls-8" x="7.47" y="136.27" width="14.7" height="56.06"/><rect class="cls-8" x="81.38" y="136.27" width="14.7" height="56.06"/><polygon class="cls-8" points="22.16 136.77 7.49 136.77 6.16 133.52 7.49 130.27 22.16 130.27 23.47 133.52 22.16 136.77"/><polygon class="cls-12" points="22.16 136.77 7.49 136.77 6.16 133.52 23.47 133.52 22.16 136.77"/><polygon class="cls-8" points="96.08 136.77 81.41 136.77 80.08 133.52 81.41 130.27 96.08 130.27 97.39 133.52 96.08 136.77"/><polygon class="cls-13" points="96.08 136.77 81.41 136.77 80.08 133.52 97.39 133.52 96.08 136.77"/><polygon class="cls-8" points="196.71 136.77 182.05 136.77 180.71 133.52 182.05 130.27 196.71 130.27 198.03 133.52 196.71 136.77"/><polygon class="cls-14" points="196.71 136.77 182.05 136.77 180.71 133.52 198.03 133.52 196.71 136.77"/><polygon class="cls-8" points="270.63 136.77 255.97 136.77 254.63 133.52 255.97 130.27 270.63 130.27 271.95 133.52 270.63 136.77"/><polygon class="cls-15" points="270.63 136.77 255.97 136.77 254.63 133.52 271.95 133.52 270.63 136.77"/><rect class="cls-11" x="7.47" y="186.32" width="262.32" height="5.74"/><rect class="cls-8" x="255.94" y="191.04" width="14.7" height="85.37"/><rect class="cls-8" x="7.47" y="191.04" width="14.7" height="85.37"/><rect class="cls-8" x="81.38" y="191.04" width="14.7" height="85.37"/><rect class="cls-11" x="7.47" y="269.25" width="262.32" height="6.89"/><polygon class="cls-8" points="22.16 192.82 7.49 192.82 6.16 189.57 7.49 186.32 22.16 186.32 23.47 189.57 22.16 192.82"/><polygon class="cls-16" points="22.16 192.82 7.49 192.82 6.16 189.57 23.47 189.57 22.16 192.82"/><polygon class="cls-11" points="22.16 272.5 7.49 272.5 6.16 269.25 7.49 266 22.16 266 23.47 269.25 22.16 272.5"/><polygon class="cls-17" points="22.16 272.5 7.49 272.5 6.16 269.25 23.47 269.25 22.16 272.5"/><polygon class="cls-11" points="96.05 272.5 81.38 272.5 80.05 269.25 81.38 266 96.05 266 97.36 269.25 96.05 272.5"/><polygon class="cls-18" points="96.05 272.5 81.38 272.5 80.05 269.25 97.36 269.25 96.05 272.5"/><polygon class="cls-11" points="196.7 272.5 182.03 272.5 180.7 269.25 182.03 266 196.7 266 198.01 269.25 196.7 272.5"/><polygon class="cls-19" points="196.7 272.5 182.03 272.5 180.7 269.25 198.01 269.25 196.7 272.5"/><polygon class="cls-11" points="270.59 272.5 255.92 272.5 254.59 269.25 255.92 266 270.59 266 271.9 269.25 270.59 272.5"/><polygon class="cls-20" points="270.59 272.5 255.92 272.5 254.59 269.25 271.9 269.25 270.59 272.5"/><polygon class="cls-8" points="96.08 192.82 81.41 192.82 80.08 189.57 81.41 186.32 96.08 186.32 97.39 189.57 96.08 192.82"/><polygon class="cls-21" points="96.08 192.82 81.41 192.82 80.08 189.57 97.39 189.57 96.08 192.82"/><polygon class="cls-8" points="196.71 192.82 182.05 192.82 180.71 189.57 182.05 186.32 196.71 186.32 198.03 189.57 196.71 192.82"/><polygon class="cls-22" points="196.71 192.82 182.05 192.82 180.71 189.57 198.03 189.57 196.71 192.82"/><polygon class="cls-8" points="270.63 192.82 255.97 192.82 254.63 189.57 255.97 186.32 270.63 186.32 271.95 189.57 270.63 192.82"/><polygon class="cls-23" points="270.63 192.82 255.97 192.82 254.63 189.57 271.95 189.57 270.63 192.82"/><rect class="cls-24" x="2.73" y="278.69" width="272.83" height="4.17"/><rect class="cls-25" x="7.47" y="246.56" width="14.7" height="2.21"/><rect class="cls-26" x="7.47" y="220.52" width="14.7" height="2.21"/><rect class="cls-27" x="4.65" y="310.25" width="268.78" height="4.17"/><polygon class="cls-2" points="275.56 278.69 2.73 278.69 7.53 276.14 270.73 276.14 275.56 278.69"/><path class="cls-2" d="M223.77,130.27V69.89c0-1-.13-24.69-11.47-24.69s-11.47,23.68-11.47,24.69v60.38Z"/><path class="cls-5" d="M222.5,130.27V69.89c0-.23-.12-23.42-10.19-23.42s-10.19,23.18-10.19,23.42v60.38Z"/><path class="cls-6" d="M221.23,130.27V69.89c0-.22-.38-22.14-8.92-22.14s-8.92,21.92-8.92,22.14v60.38Z"/><path class="cls-3" d="M219.95,130.27V69.89c0-.21-.56-20.87-7.64-20.87s-7.64,20.66-7.64,20.87v60.38Z"/><path class="cls-7" d="M218.38,130.27V69.89c0-3.6-1-19.6-5.9-19.6s-5.9,16-5.9,19.6v60.38Z"/><path class="cls-2" d="M251.8,130.27V69.89c0-1-.13-24.69-11.47-24.69s-11.47,23.68-11.47,24.69v60.38Z"/><path class="cls-5" d="M250.52,130.27V69.89c0-.23-.12-23.42-10.19-23.42s-10.19,23.18-10.19,23.42v60.38Z"/><path class="cls-6" d="M249.26,130.27V69.89c0-.22-.38-22.14-8.92-22.14s-8.92,21.92-8.92,22.14v60.38Z"/><path class="cls-3" d="M248,130.27V69.89c0-.21-.56-20.87-7.64-20.87s-7.64,20.66-7.64,20.87v60.38Z"/><path class="cls-7" d="M246.4,130.27V69.89c0-3.6-1-19.6-5.9-19.6s-5.9,16-5.9,19.6v60.38Z"/><line class="cls-28" x1="248.38" y1="10.3" x2="257.18" y2="4.43"/><line class="cls-28" x1="257.18" y1="10.3" x2="248.38" y2="4.43"/><line class="cls-28" x1="204.26" y1="4.43" x2="195.45" y2="10.3"/><line class="cls-28" x1="195.45" y1="4.43" x2="204.26" y2="10.3"/><line class="cls-28" x1="248.36" y1="4.43" x2="239.56" y2="10.3"/><line class="cls-28" x1="248.36" y1="10.3" x2="239.56" y2="4.43"/><line class="cls-28" x1="239.54" y1="4.43" x2="230.74" y2="10.3"/><line class="cls-28" x1="239.54" y1="10.3" x2="230.74" y2="4.43"/><line class="cls-28" x1="230.72" y1="4.43" x2="221.91" y2="10.3"/><line class="cls-28" x1="230.72" y1="10.3" x2="221.91" y2="4.43"/><line class="cls-28" x1="221.9" y1="4.43" x2="213.09" y2="10.3"/><line class="cls-28" x1="221.9" y1="10.3" x2="213.09" y2="4.43"/><line class="cls-28" x1="213.08" y1="4.43" x2="204.27" y2="10.3"/><line class="cls-28" x1="213.08" y1="10.3" x2="204.27" y2="4.43"/><polygon class="cls-4" points="274.82 12.34 272.65 9.57 270.89 7.54 262.53 7.54 256.96 10.26 250.68 10.31 226.32 10.3 225.32 10.3 202.32 10.3 195.45 10.3 189.92 7.54 181.85 7.54 179.99 9.57 178.33 11.72 175.3 15.51 182.94 12.87 225.96 12.87 226.68 12.87 269.69 12.87 277.33 15.51 274.82 12.34"/><polygon class="cls-29" points="274.82 12.34 272.65 9.57 270.89 7.54 262.53 7.54 256.96 10.26 250.68 10.31 226.81 10.36 225.82 10.36 202.32 10.3 195.45 10.3 189.92 7.54 181.85 7.54 180.22 9.27 179.99 9.57 175.3 15.51 182.94 12.87 225.96 12.87 226.68 12.87 269.69 12.87 277.33 15.51 274.82 12.34"/><polyline class="cls-28" points="181.78 7.73 181.78 2.19 190.16 7.54 195.69 4.43 195.69 10.3 190.16 2 181.85 7.54"/><path class="cls-30" d="M190,7.54v0Z"/><path class="cls-30" d="M271,7.54v0Z"/><polygon class="cls-28" points="257.18 4.49 257.18 10.36 262.73 2.06 262.73 7.59 257.18 4.49"/><line class="cls-28" x1="271.02" y1="2" x2="262.73" y2="7.54"/><line class="cls-28" x1="271.02" y1="7.54" x2="262.73" y2="2"/><polyline class="cls-31" points="274.31 4.67 271.02 2 262.71 2 257.18 4.43 214.31 4.43 238.32 4.43 195.46 4.43 189.92 2 181.62 2 178.33 4.67"/><polyline class="cls-32" points="214.31 10.31 257.18 10.31 262.71 7.54 271.02 7.54 272.65 9.57 274.31 4.67 271.02 2 262.71 2 257.18 4.43 214.31 4.43 238.32 4.43 195.46 4.43 189.92 2 181.62 2 178.33 4.67 179.99 9.57 181.62 7.54 189.92 7.54 195.46 10.31 238.32 10.31"/><polygon class="cls-4" points="175.3 15.51 182.01 23.81 190.93 23.81 195.82 23.81 226.32 23.81 256.7 23.81 261.7 23.81 270.62 23.81 277.33 15.51 269.69 12.53 226.68 12.53 182.95 12.53 175.3 15.51"/><polygon class="cls-33" points="175.3 15.51 182.01 23.81 190.93 23.81 195.82 23.81 226.32 23.81 256.7 23.81 261.7 23.81 270.62 23.81 277.33 15.51 269.69 12.53 226.68 12.53 182.95 12.53 175.3 15.51"/><line class="cls-28" x1="73.74" y1="10.3" x2="82.55" y2="4.43"/><line class="cls-28" x1="82.55" y1="10.3" x2="73.74" y2="4.43"/><line class="cls-28" x1="29.62" y1="4.43" x2="20.82" y2="10.3"/><line class="cls-28" x1="20.82" y1="4.43" x2="29.62" y2="10.3"/><line class="cls-28" x1="73.73" y1="4.43" x2="64.92" y2="10.3"/><line class="cls-28" x1="73.73" y1="10.3" x2="64.92" y2="4.43"/><line class="cls-28" x1="64.91" y1="4.43" x2="56.1" y2="10.3"/><line class="cls-28" x1="64.91" y1="10.3" x2="56.1" y2="4.43"/><line class="cls-28" x1="56.09" y1="4.43" x2="47.28" y2="10.3"/><line class="cls-28" x1="56.09" y1="10.3" x2="47.28" y2="4.43"/><line class="cls-28" x1="47.26" y1="4.43" x2="38.46" y2="10.3"/><line class="cls-28" x1="47.26" y1="10.3" x2="38.46" y2="4.43"/><line class="cls-28" x1="38.44" y1="4.43" x2="29.64" y2="10.3"/><line class="cls-28" x1="38.44" y1="10.3" x2="29.64" y2="4.43"/><polygon class="cls-4" points="100.19 12.34 98.02 9.57 96.25 7.54 87.89 7.54 82.32 10.26 76.05 10.31 51.68 10.3 50.69 10.3 27.68 10.3 20.82 10.3 15.29 7.54 7.22 7.54 5.35 9.57 3.69 11.72 0.67 15.51 8.31 12.87 51.32 12.87 52.05 12.87 95.06 12.87 102.7 15.51 100.19 12.34"/><polygon class="cls-34" points="100.19 12.34 98.02 9.57 96.25 7.54 87.89 7.54 82.32 10.26 76.05 10.31 52.18 10.36 51.19 10.36 27.68 10.3 20.82 10.3 15.29 7.54 7.22 7.54 5.59 9.27 5.35 9.57 0.67 15.51 8.31 12.87 51.32 12.87 52.05 12.87 95.06 12.87 102.7 15.51 100.19 12.34"/><polyline class="cls-28" points="7.14 7.73 7.14 2.19 15.52 7.54 21.06 4.43 21.06 10.3 15.52 2 7.22 7.54"/><path class="cls-30" d="M15.34,7.54v0Z"/><path class="cls-30" d="M96.39,7.54v0Z"/><polygon class="cls-28" points="82.55 4.49 82.55 10.36 88.1 2.06 88.1 7.59 82.55 4.49"/><line class="cls-28" x1="96.39" y1="2" x2="88.1" y2="7.54"/><line class="cls-28" x1="96.39" y1="7.54" x2="88.1" y2="2"/><polyline class="cls-31" points="99.67 4.67 96.38 2 88.08 2 82.54 4.43 39.68 4.43 63.69 4.43 20.82 4.43 15.29 2 6.98 2 3.69 4.67"/><polyline class="cls-32" points="39.68 10.31 82.54 10.31 88.08 7.54 96.38 7.54 98.02 9.57 99.67 4.67 96.38 2 88.08 2 82.54 4.43 39.68 4.43 63.69 4.43 20.82 4.43 15.29 2 6.98 2 3.69 4.67 5.35 9.57 6.98 7.54 15.29 7.54 20.82 10.31 63.69 10.31"/><polygon class="cls-4" points="0.67 15.51 7.38 23.81 16.3 23.81 21.19 23.81 51.68 23.81 82.07 23.81 87.07 23.81 95.99 23.81 102.7 15.51 95.06 12.53 52.05 12.53 8.31 12.53 0.67 15.51"/><polygon class="cls-35" points="0.67 15.51 7.38 23.81 16.3 23.81 21.19 23.81 51.68 23.81 82.07 23.81 87.07 23.81 95.99 23.81 102.7 15.51 95.06 12.53 52.05 12.53 8.31 12.53 0.67 15.51"/><path class="cls-4" d="M97,135.14v51h12.78V154.38c0-1.27,1.25-4.2,2.55-4.2s2.55,2.93,2.55,4.2V186.1h2.55V154.38c0-1.27,1.25-4.2,2.55-4.2s2.55,2.93,2.55,4.2V186.1H125V154.38c0-1.27,1.25-4.2,2.55-4.2s2.55,2.93,2.55,4.2V186.1h2.55V154.38c0-1.27,1.25-4.2,2.55-4.2s2.55,2.93,2.55,4.2V186.1h2.55V154.38c0-1.27,1.27-4.2,2.55-4.2s2.55,2.93,2.55,4.2V186.1H148V154.38c0-1.27,1.25-4.2,2.55-4.2s2.55,2.93,2.55,4.2V186.1h2.55V154.38c0-1.27,1.25-4.2,2.55-4.2s2.55,2.93,2.55,4.2V186.1h2.55V154.38c0-1.27,1.25-4.2,2.55-4.2s2.55,2.93,2.55,4.2V186.1H181.1v-51Z"/><line class="cls-36" x1="148.2" y1="130.39" x2="156.99" y2="124.33"/><line class="cls-36" x1="156.99" y1="130.39" x2="148.2" y2="124.33"/><line class="cls-36" x1="104.2" y1="124.33" x2="95.41" y2="130.39"/><line class="cls-36" x1="95.41" y1="124.33" x2="104.2" y2="130.39"/><line class="cls-36" x1="148.19" y1="124.33" x2="139.41" y2="130.39"/><line class="cls-36" x1="148.19" y1="130.39" x2="139.41" y2="124.33"/><line class="cls-36" x1="139.39" y1="124.33" x2="130.61" y2="130.39"/><line class="cls-36" x1="139.39" y1="130.39" x2="130.61" y2="124.33"/><line class="cls-36" x1="130.59" y1="124.33" x2="121.81" y2="130.39"/><line class="cls-36" x1="130.59" y1="130.39" x2="121.81" y2="124.33"/><line class="cls-36" x1="174.57" y1="124.33" x2="165.79" y2="130.39"/><line class="cls-36" x1="174.57" y1="130.39" x2="165.79" y2="124.33"/><line class="cls-36" x1="183.35" y1="124.33" x2="174.57" y2="130.39"/><line class="cls-36" x1="183.35" y1="130.39" x2="174.57" y2="124.33"/><line class="cls-36" x1="165.77" y1="124.33" x2="156.99" y2="130.39"/><line class="cls-36" x1="165.77" y1="130.39" x2="156.99" y2="124.33"/><line class="cls-36" x1="121.79" y1="124.33" x2="113.01" y2="130.39"/><line class="cls-36" x1="121.79" y1="130.39" x2="113.01" y2="124.33"/><line class="cls-36" x1="112.99" y1="124.33" x2="104.21" y2="130.39"/><line class="cls-36" x1="112.99" y1="130.39" x2="104.21" y2="124.33"/><polyline class="cls-32" points="183.35 124.33 122.28 124.33 156.49 124.33 95.42 124.33"/><line class="cls-32" x1="95.41" y1="130.39" x2="183.35" y2="130.39"/><line class="cls-36" x1="235.57" y1="130.39" x2="244.36" y2="124.33"/><line class="cls-36" x1="244.36" y1="130.39" x2="235.57" y2="124.33"/><line class="cls-36" x1="191.56" y1="124.33" x2="182.78" y2="130.39"/><line class="cls-36" x1="182.78" y1="124.33" x2="191.56" y2="130.39"/><line class="cls-36" x1="235.56" y1="124.33" x2="226.77" y2="130.39"/><line class="cls-36" x1="235.56" y1="130.39" x2="226.77" y2="124.33"/><line class="cls-36" x1="226.76" y1="124.33" x2="217.97" y2="130.39"/><line class="cls-36" x1="226.76" y1="130.39" x2="217.97" y2="124.33"/><line class="cls-36" x1="217.96" y1="124.33" x2="209.18" y2="130.39"/><line class="cls-36" x1="217.96" y1="130.39" x2="209.18" y2="124.33"/><line class="cls-36" x1="261.94" y1="124.33" x2="253.15" y2="130.39"/><line class="cls-36" x1="261.94" y1="130.39" x2="253.15" y2="124.33"/><line class="cls-36" x1="270.72" y1="124.33" x2="261.94" y2="130.39"/><line class="cls-36" x1="270.72" y1="130.39" x2="261.94" y2="124.33"/><line class="cls-36" x1="253.14" y1="124.33" x2="244.36" y2="130.39"/><line class="cls-36" x1="253.14" y1="130.39" x2="244.36" y2="124.33"/><line class="cls-36" x1="209.16" y1="124.33" x2="200.38" y2="130.39"/><line class="cls-36" x1="209.16" y1="130.39" x2="200.38" y2="124.33"/><line class="cls-36" x1="200.36" y1="124.33" x2="191.58" y2="130.39"/><line class="cls-36" x1="200.36" y1="130.39" x2="191.58" y2="124.33"/><polyline class="cls-32" points="270.72 124.33 209.65 124.33 243.86 124.33 182.79 124.33"/><line class="cls-32" x1="182.78" y1="130.39" x2="270.72" y2="130.39"/><line class="cls-36" x1="60.27" y1="130.39" x2="69.05" y2="124.33"/><line class="cls-36" x1="69.05" y1="130.39" x2="60.27" y2="124.33"/><line class="cls-36" x1="16.26" y1="124.33" x2="7.47" y2="130.39"/><line class="cls-36" x1="7.47" y1="124.33" x2="16.26" y2="130.39"/><line class="cls-36" x1="60.25" y1="124.33" x2="51.47" y2="130.39"/><line class="cls-36" x1="60.25" y1="130.39" x2="51.47" y2="124.33"/><line class="cls-36" x1="51.45" y1="124.33" x2="42.67" y2="130.39"/><line class="cls-36" x1="51.45" y1="130.39" x2="42.67" y2="124.33"/><line class="cls-36" x1="42.65" y1="124.33" x2="33.87" y2="130.39"/><line class="cls-36" x1="42.65" y1="130.39" x2="33.87" y2="124.33"/><line class="cls-36" x1="86.63" y1="124.33" x2="77.85" y2="130.39"/><line class="cls-36" x1="86.63" y1="130.39" x2="77.85" y2="124.33"/><line class="cls-36" x1="95.42" y1="124.33" x2="86.63" y2="130.39"/><line class="cls-36" x1="95.42" y1="130.39" x2="86.63" y2="124.33"/><line class="cls-36" x1="77.83" y1="124.33" x2="69.05" y2="130.39"/><line class="cls-36" x1="77.83" y1="130.39" x2="69.05" y2="124.33"/><line class="cls-36" x1="33.86" y1="124.33" x2="25.07" y2="130.39"/><line class="cls-36" x1="33.86" y1="130.39" x2="25.07" y2="124.33"/><line class="cls-36" x1="25.06" y1="124.33" x2="16.27" y2="130.39"/><line class="cls-36" x1="25.06" y1="130.39" x2="16.27" y2="124.33"/><polyline class="cls-32" points="95.41 124.33 34.34 124.33 68.55 124.33 7.48 124.33"/><line class="cls-32" x1="7.47" y1="130.39" x2="95.41" y2="130.39"/><polygon class="cls-4" points="14.82 235.42 7.47 246.56 22.18 246.56 14.82 235.42"/><rect class="cls-4" x="7.47" y="218.15" width="14.7" height="2.55"/><rect class="cls-37" x="81.36" y="246.56" width="14.7" height="2.21"/><rect class="cls-38" x="81.36" y="220.52" width="14.7" height="2.21"/><polygon class="cls-4" points="88.72 235.42 81.36 246.56 96.07 246.56 88.72 235.42"/><rect class="cls-4" x="81.36" y="218.15" width="14.7" height="2.55"/><rect class="cls-39" x="182" y="246.56" width="14.7" height="2.21"/><rect class="cls-40" x="182" y="220.52" width="14.7" height="2.21"/><polygon class="cls-4" points="189.35 235.42 182 246.56 196.7 246.56 189.35 235.42"/><rect class="cls-4" x="182" y="218.15" width="14.7" height="2.55"/><rect class="cls-41" x="255.89" y="246.56" width="14.7" height="2.21"/><rect class="cls-42" x="255.89" y="220.52" width="14.7" height="2.21"/><polygon class="cls-4" points="263.24 235.42 255.89 246.56 270.59 246.56 263.24 235.42"/><rect class="cls-4" x="255.89" y="218.15" width="14.7" height="2.55"/><rect class="cls-7" x="35.41" y="380.72" width="12.25" height="33.28"/><rect class="cls-7" x="53.08" y="380.72" width="12.25" height="33.28"/><rect class="cls-7" x="124.19" y="380.72" width="12.25" height="33.28"/><rect class="cls-7" x="141.85" y="380.72" width="12.25" height="33.28"/><rect class="cls-7" x="212.76" y="380.72" width="12.25" height="33.28"/><rect class="cls-7" x="230.42" y="380.72" width="12.25" height="33.28"/></g></g></svg>