<svg id="Layer_1" data-name="Layer 1" xmlns="http://www.w3.org/2000/svg" viewBox="0 0 249 443"><defs><style>.cls-1{fill:#a100e2;}.cls-2{fill:#42005b;}.cls-3{fill:#cf2a84;}.cls-4{fill:#c6016d;}</style></defs><title>paris</title><path class="cls-1" d="M131.7,52.65h-16.4S110.27,208,100.85,249h45.31C136.74,208,131.7,52.65,131.7,52.65Z"/><path class="cls-2" d="M103,250.08C111.49,208,116.51,69.92,117.1,54.81h12.8c.59,15.1,6,153.2,14.45,195.27Z"/><rect class="cls-3" x="114.2" y="37.93" width="18.6" height="13.95"/><rect class="cls-4" x="114.2" y="51.86" width="18.6" height="16.25"/><polygon class="cls-2" points="127.23 37.95 119.8 37.95 121.18 3.07 125.83 3.07 127.23 37.95"/><path class="cls-1" d="M147.88,256.32H98.35S78.86,319.1,71.89,328.4H103.8s8.73-37.2,9.63-51.16H132.8c.91,14,9.63,51.16,9.63,51.16h31.91C167.38,319.1,147.88,256.32,147.88,256.32Z"/><path class="cls-2" d="M144.32,328.84c-1.6-5.39-8.87-39.8-9.66-51.89l-.11-2H111.69l-.11,2c-.79,12.1-8.06,46.5-9.66,51.89h-28c7.44-14,23.61-65.81,26.3-71.2h45.43c2.68,5.39,18.8,57.18,26.24,71.2Z"/><path class="cls-1" d="M244.18,442H200s-20.28-71.5-76.08-71.5c-21.14,0-37.16,10.28-48.92,23-1.35,1.46-2.65,3-3.88,4.51C54.69,418.17,48,442,48,442H3.82L4,440.69l59.55-89.37h120.8L244,440.64Z"/><path class="cls-2" d="M201.37,440c-3.22-8.63-25.21-71.41-77.45-71.41-18.9,0-35.82,8-50.29,23.66-1.39,1.51-2.72,3-4,4.54-14.42,17.69-21.36,37.81-23,43.21h-40l57.95-85.23H183.33L241.44,440Z"/><path class="cls-1" d="M126.86,192.45c-2.08-24.93-1.73-45.37-2.13-57.47V68.13h-.06c-.54,0,.06,0-2.27,0v0h0v73c0,12.33,0,30-1.74,51.13s-3.75,40.21-6,57.1h2c2.42-19.6,4.47-40.32,6-61.4,1-14.07.59-28.07,1.15-41.58.56,13.76.1,27.82,1.17,42.15,1.57,21.08,2.53,41.4,5,61h2C129.7,232.61,128.61,213.52,126.86,192.45Z"/><polygon class="cls-1" points="154.63 277.33 91.6 277.33 93.88 270.35 152.35 270.35 154.63 277.33"/><path class="cls-1" d="M93.29,349c-.28.6-.53,1.21-.81,1.84C88.5,359.9,84.32,371.59,80,382c-1.07,2.56-2.14,5-3.23,7.51-.58,1.35-1.14,2.7-1.74,4-1.35,1.46-2.65,3-3.88,4.51.67-1.58,1.4-3.19,2.09-4.79,1.16-2.65,2.33-5.09,3.49-7.81,5.6-13.09,10.49-25.44,14.3-34.6.26-.63.51-1.23.77-1.84Z"/><path class="cls-1" d="M154.61,349c.28.6.53,1.21.81,1.84,4,9.07,8.16,20.76,12.51,31.13,1.07,2.56,2.14,5,3.23,7.51.58,1.35,1.14,2.7,1.74,4,1.39,1.55,2.6,2.94,3.86,4.46-.67-1.58-1.37-3.13-2.07-4.74-1.16-2.65-2.33-5.09-3.49-7.81-5.6-13.09-10.49-25.44-14.3-34.6-.26-.63-.51-1.23-.77-1.84Z"/><rect class="cls-3" x="58.49" y="328.4" width="127.89" height="22.92"/><path class="cls-1" d="M124.05,370.54a67.42,67.42,0,0,1,22,4.39,70.39,70.39,0,0,1,27.11,18.86l-5-11.27s-18-16.75-44.07-16.75h0c-26.05,0-44.55,17.32-44.55,17.32L75,393.52a70.85,70.85,0,0,1,49.06-23"/><polygon class="cls-1" points="193.2 364.6 54.68 364.6 53.13 366.92 194.67 366.8 193.2 364.6"/><path class="cls-1" d="M114,256.25c-.37,3.53-.76,7.13-1.18,10.89-.39,3.47-.78,6.86-1.18,10.22h1.75c.55-4.8,1.09-9.61,1.59-14.46.23-2.21.44-4.43.65-6.64Z"/><path class="cls-1" d="M132.33,256.25c.31,3.53.64,7.14,1,10.91.33,3.47.67,6.87,1,10.23l-1.75,0c-.47-4.81-.92-9.63-1.34-14.49-.19-2.22-.36-4.43-.54-6.65Z"/><rect class="cls-3" x="93.28" y="249.34" width="60.46" height="7.13"/><rect class="cls-4" x="119.8" y="1.15" width="7.43" height="1.92"/></svg>