<svg xmlns="http://www.w3.org/2000/svg" xmlns:xlink="http://www.w3.org/1999/xlink" viewBox="0 0 426 172"><defs><style>.cls-1{isolation:isolate;}.cls-2{fill:#cae4fd;}.cls-3{fill:#ae24e6;}.cls-4{fill:#cf2a84;}.cls-5{fill:#42005b;}.cls-6{fill:#a100e2;}.cls-7{fill:#4d4d4d;}.cls-8{fill:#c4e1fd;}.cls-9{fill:#c6016d;}.cls-10{fill:#f1f1f1;}.cls-11{fill:#cfe7fd;}.cls-12{fill:#f2f2f2;}.cls-13{fill:#d02f87;}.cls-14{fill:#dcedfe;}.cls-15,.cls-16,.cls-17,.cls-18,.cls-19{mix-blend-mode:multiply;}.cls-15{fill:url(#linear-gradient);}.cls-16{fill:url(#linear-gradient-2);}.cls-17{fill:url(#linear-gradient-3);}.cls-18{fill:url(#linear-gradient-4);}.cls-19{fill:url(#linear-gradient-5);}.cls-20{fill:#4d0f65;}</style><linearGradient id="linear-gradient" x1="213" y1="73.89" x2="213" y2="68.15" gradientUnits="userSpaceOnUse"><stop offset="0" stop-color="#fff"/><stop offset="1" stop-color="#ae24e6"/></linearGradient><linearGradient id="linear-gradient-2" x1="264.3" y1="95.36" x2="264.3" y2="91.72" gradientUnits="userSpaceOnUse"><stop offset="0" stop-color="#fff"/><stop offset="1" stop-color="#4d4d4d"/></linearGradient><linearGradient id="linear-gradient-3" x1="264.3" y1="128.77" x2="264.3" y2="125.13" xlink:href="#linear-gradient-2"/><linearGradient id="linear-gradient-4" x1="54.87" y1="95.36" x2="54.87" y2="91.72" xlink:href="#linear-gradient-2"/><linearGradient id="linear-gradient-5" x1="54.87" y1="128.77" x2="54.87" y2="125.13" xlink:href="#linear-gradient-2"/></defs><title>paris</title><g class="cls-1"><g id="Layer_1" data-name="Layer 1"><rect class="cls-2" x="314.18" y="36.37" width="8.91" height="17.78" transform="translate(637.28 90.52) rotate(-180)"/><rect class="cls-2" x="102.76" y="36.37" width="8.91" height="17.78"/><rect class="cls-2" x="3.51" y="51.7" width="98.02" height="111.38"/><rect class="cls-3" x="101.71" y="51.7" width="222.77" height="111.38"/><rect class="cls-2" x="324.47" y="51.7" width="98.02" height="111.38"/><rect class="cls-4" x="185.15" y="51.7" width="55.69" height="111.38"/><rect class="cls-2" x="67.88" y="14.09" width="11.14" height="26.73"/><rect class="cls-2" x="87.16" y="26.81" width="8.91" height="18.8"/><polygon class="cls-5" points="102.76 51.7 47.53 51.7 65.55 30.99 84.71 30.99 102.76 51.7"/><polygon class="cls-5" points="111.67 51.7 78.35 51.7 89.22 39.21 100.78 39.21 111.67 51.7"/><rect class="cls-2" x="21.1" y="14.09" width="11.14" height="26.73"/><rect class="cls-4" x="97.07" y="51.7" width="8.91" height="111.38"/><rect class="cls-4" x="320.02" y="51.7" width="8.91" height="111.38"/><rect class="cls-6" x="1.15" y="160.58" width="423.69" height="9.19"/><polygon class="cls-5" points="94.78 51.7 5.68 51.7 34.74 18.28 65.66 18.28 94.78 51.7"/><rect class="cls-2" x="346.84" y="14.09" width="11.14" height="26.73" transform="translate(704.81 54.92) rotate(-180)"/><rect class="cls-2" x="329.78" y="26.81" width="8.91" height="18.8" transform="translate(668.46 72.41) rotate(-180)"/><polygon class="cls-5" points="323.09 51.7 378.32 51.7 360.3 30.99 341.14 30.99 323.09 51.7"/><polygon class="cls-5" points="314.18 51.7 347.5 51.7 336.63 39.21 325.07 39.21 314.18 51.7"/><rect class="cls-2" x="393.62" y="14.09" width="11.14" height="26.73" transform="translate(798.37 54.92) rotate(-180)"/><polygon class="cls-5" points="331.07 51.7 420.17 51.7 391.11 18.28 360.19 18.28 331.07 51.7"/><rect class="cls-3" x="185.14" y="23.34" width="6.68" height="22.28"/><rect class="cls-3" x="236.37" y="23.34" width="6.68" height="22.28"/><path class="cls-5" d="M279.8,51.7c-.11-6.7-28.32-12.12-63.1-12.12s-63,5.42-63.1,12.12Z"/><rect class="cls-7" x="205.57" y="4.75" width="7.43" height="5.16"/><rect class="cls-4" x="212.55" y="2.23" width="2.23" height="17.82"/><path class="cls-3" d="M217.94,32.8V21.05a4.28,4.28,0,1,0-8.55,0V32.8Z"/><path class="cls-5" d="M243.39,47.82c-4.7-10.76-16.23-18.37-29.73-18.37s-25,7.61-29.73,18.37Z"/><path class="cls-2" d="M230.13,51.7a23.16,23.16,0,0,0,.17-2.63c0-10.83-7.44-19.61-16.63-19.61S197,38.24,197,49.07a23.16,23.16,0,0,0,.17,2.63Z"/><rect class="cls-5" x="1.37" y="89.76" width="423.26" height="2.23"/><rect class="cls-5" x="1.37" y="123.18" width="423.26" height="2.23"/><path class="cls-8" d="M161.47,155.55V143.66c0-4.17,2.86-7.56,6.68-7.56s6.68,3.39,6.68,7.56v11.89Z"/><path class="cls-9" d="M174,154.65V144c0-3.73-2.62-6.78-5.81-6.78s-5.81,3.05-5.81,6.78v10.65Z"/><path class="cls-5" d="M163,154.65h11V144.07a7.67,7.67,0,0,0-1.38-4.45Z"/><path class="cls-8" d="M168.6,154.67h-.89v-17.4a1.14,1.14,0,0,1,.45-.06,1.24,1.24,0,0,1,.45.06Z"/><rect class="cls-8" x="162.15" y="144.62" width="12" height="0.89"/><path class="cls-8" d="M139.19,155.55V143.66c0-4.17,2.86-7.56,6.68-7.56s6.68,3.39,6.68,7.56v11.89Z"/><path class="cls-9" d="M151.69,154.65V144c0-3.73-2.62-6.78-5.81-6.78s-5.81,3.05-5.81,6.78v10.65Z"/><path class="cls-5" d="M140.71,154.65h11V144.07a7.67,7.67,0,0,0-1.38-4.45Z"/><path class="cls-8" d="M146.33,154.67h-.89v-17.4a1.14,1.14,0,0,1,.45-.06,1.24,1.24,0,0,1,.45.06Z"/><rect class="cls-8" x="139.87" y="144.62" width="12" height="0.89"/><path class="cls-8" d="M116.91,155.55V143.66c0-4.17,2.86-7.56,6.68-7.56s6.68,3.39,6.68,7.56v11.89Z"/><path class="cls-9" d="M129.42,154.65V144c0-3.73-2.62-6.78-5.81-6.78s-5.81,3.05-5.81,6.78v10.65Z"/><path class="cls-5" d="M118.43,154.65h11V144.07a7.67,7.67,0,0,0-1.38-4.45Z"/><path class="cls-8" d="M124,154.67h-.89v-17.4a1.14,1.14,0,0,1,.45-.06,1.24,1.24,0,0,1,.45.06Z"/><rect class="cls-8" x="117.6" y="144.62" width="12" height="0.89"/><path class="cls-3" d="M70.27,155.55V143.66c0-4.17,2.86-7.56,6.68-7.56s6.68,3.39,6.68,7.56v11.89Z"/><path class="cls-9" d="M82.78,154.65V144c0-3.73-2.62-6.78-5.81-6.78s-5.81,3.05-5.81,6.78v10.65Z"/><path class="cls-5" d="M71.79,154.65h11V144.07a7.67,7.67,0,0,0-1.38-4.45Z"/><path class="cls-3" d="M77.41,154.67h-.89v-17.4a1.14,1.14,0,0,1,.45-.06,1.24,1.24,0,0,1,.45.06Z"/><rect class="cls-3" x="70.96" y="144.62" width="12" height="0.89"/><path class="cls-3" d="M43.14,155.55V143.66c0-4.17,2.86-7.56,6.68-7.56s6.68,3.39,6.68,7.56v11.89Z"/><path class="cls-9" d="M55.64,154.65V144c0-3.73-2.62-6.78-5.81-6.78S44,140.26,44,144v10.65Z"/><path class="cls-5" d="M44.65,154.65h11V144.07a7.67,7.67,0,0,0-1.38-4.45Z"/><path class="cls-3" d="M50.27,154.67h-.89v-17.4a1.14,1.14,0,0,1,.45-.06,1.24,1.24,0,0,1,.45.06Z"/><rect class="cls-3" x="43.82" y="144.62" width="12" height="0.89"/><path class="cls-3" d="M16,155.66V143.78c0-4.17,2.86-7.56,6.68-7.56s6.68,3.39,6.68,7.56v11.89Z"/><path class="cls-9" d="M28.51,154.76V144.11c0-3.73-2.62-6.78-5.81-6.78s-5.81,3.05-5.81,6.78v10.65Z"/><path class="cls-5" d="M17.52,154.76h11V144.19a7.67,7.67,0,0,0-1.38-4.45Z"/><path class="cls-3" d="M23.14,154.78h-.89v-17.4a1.14,1.14,0,0,1,.45-.06,1.24,1.24,0,0,1,.45.06Z"/><rect class="cls-3" x="16.69" y="144.73" width="12" height="0.89"/><rect class="cls-10" x="193.04" y="151.94" width="40.1" height="2.23"/><rect class="cls-6" x="193.04" y="154.17" width="40.1" height="2.23"/><rect class="cls-10" x="190.81" y="156.4" width="44.55" height="2.23"/><rect class="cls-6" x="190.81" y="158.63" width="44.55" height="2.23"/><rect class="cls-6" x="185.15" y="163.08" width="55.69" height="2.23"/><rect class="cls-10" x="188.59" y="160.85" width="49.01" height="2.23"/><rect class="cls-10" x="185.15" y="165.31" width="55.69" height="2.23"/><path class="cls-8" d="M205.2,151.94V138.66c0-4.72,3.61-8.56,7.8-8.56s7.8,3.84,7.8,8.56v13.28Z"/><path class="cls-9" d="M218.81,151.93v-12c0-4.21-2.62-7.65-5.81-7.65s-5.81,3.44-5.81,7.65v12Z"/><path class="cls-5" d="M207.83,151.93h11V140.07c0-1.92-.55-5.1-3.2-7Z"/><path class="cls-8" d="M213.67,151.93h-1.34V132.3a2.23,2.23,0,0,1,.67-.07,2.43,2.43,0,0,1,.67.07Z"/><path class="cls-8" d="M209.88,151.94h-.45V132.31a.29.29,0,0,1,.22-.07.31.31,0,0,1,.22.07Z"/><path class="cls-8" d="M206.75,136.27v-.45h12.4a.41.41,0,0,1,0,.22.45.45,0,0,1,0,.22Z"/><path class="cls-8" d="M206.75,144.67v-.45h12.4a.41.41,0,0,1,0,.22.45.45,0,0,1,0,.22Z"/><path class="cls-8" d="M206.75,148.65v-.45h12.4a.41.41,0,0,1,0,.22.45.45,0,0,1,0,.22Z"/><path class="cls-8" d="M216.56,151.94h-.45V132.31a.29.29,0,0,1,.22-.07.31.31,0,0,1,.22.07Z"/><rect class="cls-8" x="207.17" y="139.4" width="11.64" height="1.34"/><rect class="cls-11" x="275.83" y="65.53" width="9.21" height="14.08"/><rect class="cls-12" x="274.06" y="68.47" width="12.74" height="8.06" transform="translate(352.94 -207.93) rotate(90)"/><polygon class="cls-13" points="276.47 78.88 284.46 78.88 284.46 66.14 282.88 66.14 276.47 78.88"/><rect class="cls-11" x="280.17" y="65.53" width="0.51" height="14.08"/><rect class="cls-11" x="280.11" y="68.18" width="0.67" height="8.78" transform="translate(353.01 -207.88) rotate(90)"/><rect class="cls-11" x="298.32" y="65.53" width="9.21" height="14.08"/><rect class="cls-12" x="296.55" y="68.47" width="12.74" height="8.06" transform="translate(375.43 -230.42) rotate(90)"/><polygon class="cls-13" points="298.96 78.88 306.96 78.88 306.96 66.14 305.37 66.14 298.96 78.88"/><rect class="cls-11" x="302.67" y="65.53" width="0.51" height="14.08"/><rect class="cls-11" x="302.63" y="68.18" width="0.67" height="8.78" transform="translate(375.53 -230.39) rotate(90)"/><rect class="cls-11" x="253.36" y="65.53" width="9.21" height="14.08"/><rect class="cls-12" x="251.59" y="68.47" width="12.74" height="8.06" transform="translate(330.47 -185.46) rotate(90)"/><polygon class="cls-13" points="254 78.88 262 78.88 262 66.14 260.41 66.14 254 78.88"/><rect class="cls-11" x="257.71" y="65.53" width="0.51" height="14.08"/><rect class="cls-11" x="257.64" y="68.18" width="0.67" height="8.78" transform="translate(330.54 -185.41) rotate(90)"/><rect class="cls-14" x="275.93" y="98.39" width="9.82" height="19.99"/><rect class="cls-12" x="271.55" y="104.12" width="18.59" height="8.54" transform="translate(389.23 -172.46) rotate(90)"/><polygon class="cls-13" points="276.68 117.68 285.11 117.68 285.11 99.09 283.64 99.09 276.68 117.68"/><rect class="cls-14" x="280.57" y="98.39" width="0.55" height="19.99"/><rect class="cls-14" x="280.5" y="98.47" width="0.69" height="8.93" transform="translate(383.78 -177.91) rotate(90)"/><rect class="cls-14" x="280.7" y="102.4" width="0.29" height="8.93" transform="translate(387.71 -173.98) rotate(90)"/><rect class="cls-14" x="280.7" y="106.25" width="0.29" height="8.93" transform="translate(391.55 -170.13) rotate(90)"/><rect class="cls-14" x="280.7" y="109.98" width="0.29" height="8.93" transform="translate(395.28 -166.4) rotate(90)"/><rect class="cls-14" x="298.41" y="98.39" width="9.82" height="19.99"/><rect class="cls-12" x="294.02" y="104.12" width="18.59" height="8.54" transform="translate(411.71 -194.93) rotate(90)"/><polygon class="cls-13" points="299.16 117.68 307.59 117.68 307.59 99.09 306.12 99.09 299.16 117.68"/><rect class="cls-14" x="303.05" y="98.39" width="0.55" height="19.99"/><rect class="cls-14" x="302.98" y="98.47" width="0.69" height="8.93" transform="translate(406.25 -200.39) rotate(90)"/><rect class="cls-14" x="303.18" y="102.4" width="0.29" height="8.93" transform="translate(410.19 -196.45) rotate(90)"/><rect class="cls-14" x="303.18" y="106.25" width="0.29" height="8.93" transform="translate(414.03 -192.61) rotate(90)"/><rect class="cls-14" x="303.18" y="109.98" width="0.29" height="8.93" transform="translate(417.76 -188.88) rotate(90)"/><rect class="cls-14" x="253.33" y="98.39" width="9.82" height="19.99"/><rect class="cls-12" x="248.94" y="104.12" width="18.59" height="8.54" transform="translate(366.62 -149.85) rotate(90)"/><polygon class="cls-13" points="254.07 117.68 262.51 117.68 262.51 99.09 261.04 99.09 254.07 117.68"/><rect class="cls-14" x="257.96" y="98.39" width="0.55" height="19.99"/><rect class="cls-14" x="257.89" y="98.47" width="0.69" height="8.93" transform="translate(361.17 -155.3) rotate(90)"/><rect class="cls-14" x="258.09" y="102.4" width="0.29" height="8.93" transform="translate(365.1 -151.37) rotate(90)"/><rect class="cls-14" x="258.09" y="106.25" width="0.29" height="8.93" transform="translate(368.95 -147.53) rotate(90)"/><rect class="cls-14" x="258.09" y="109.98" width="0.29" height="8.93" transform="translate(372.68 -143.8) rotate(90)"/><rect class="cls-11" x="139.94" y="65.53" width="9.21" height="14.08"/><rect class="cls-12" x="138.17" y="68.47" width="12.74" height="8.06" transform="translate(217.05 -72.04) rotate(90)"/><polygon class="cls-13" points="140.58 78.88 148.58 78.88 148.58 66.14 146.99 66.14 140.58 78.88"/><rect class="cls-11" x="144.29" y="65.53" width="0.51" height="14.08"/><rect class="cls-11" x="144.22" y="68.18" width="0.67" height="8.78" transform="translate(217.12 -71.99) rotate(90)"/><rect class="cls-11" x="162.43" y="65.53" width="9.21" height="14.08"/><rect class="cls-12" x="160.67" y="68.47" width="12.74" height="8.06" transform="translate(239.54 -94.53) rotate(90)"/><polygon class="cls-13" points="163.07 78.88 171.07 78.88 171.07 66.14 169.48 66.14 163.07 78.88"/><rect class="cls-11" x="166.78" y="65.53" width="0.51" height="14.08"/><rect class="cls-11" x="166.74" y="68.18" width="0.67" height="8.78" transform="translate(239.64 -94.5) rotate(90)"/><rect class="cls-11" x="117.47" y="65.53" width="9.21" height="14.08"/><rect class="cls-12" x="115.71" y="68.47" width="12.74" height="8.06" transform="translate(194.58 -49.57) rotate(90)"/><polygon class="cls-13" points="118.11 78.88 126.11 78.88 126.11 66.14 124.52 66.14 118.11 78.88"/><rect class="cls-11" x="121.82" y="65.53" width="0.51" height="14.08"/><rect class="cls-11" x="121.75" y="68.18" width="0.67" height="8.78" transform="translate(194.65 -49.52) rotate(90)"/><rect class="cls-14" x="140.05" y="98.39" width="9.82" height="19.99"/><rect class="cls-12" x="135.66" y="104.12" width="18.59" height="8.54" transform="translate(253.34 -36.57) rotate(90)"/><polygon class="cls-13" points="140.79 117.68 149.23 117.68 149.23 99.09 147.75 99.09 140.79 117.68"/><rect class="cls-14" x="144.68" y="98.39" width="0.55" height="19.99"/><rect class="cls-14" x="144.61" y="98.47" width="0.69" height="8.93" transform="translate(247.89 -42.02) rotate(90)"/><rect class="cls-14" x="144.81" y="102.4" width="0.29" height="8.93" transform="translate(251.82 -38.09) rotate(90)"/><rect class="cls-14" x="144.81" y="106.25" width="0.29" height="8.93" transform="translate(255.67 -34.24) rotate(90)"/><rect class="cls-14" x="144.81" y="109.98" width="0.29" height="8.93" transform="translate(259.4 -30.51) rotate(90)"/><rect class="cls-14" x="162.52" y="98.39" width="9.82" height="19.99"/><rect class="cls-12" x="158.14" y="104.12" width="18.59" height="8.54" transform="translate(275.82 -59.05) rotate(90)"/><polygon class="cls-13" points="163.27 117.68 171.7 117.68 171.7 99.09 170.23 99.09 163.27 117.68"/><rect class="cls-14" x="167.16" y="98.39" width="0.55" height="19.99"/><rect class="cls-14" x="167.09" y="98.47" width="0.69" height="8.93" transform="translate(270.37 -64.5) rotate(90)"/><rect class="cls-14" x="167.29" y="102.4" width="0.29" height="8.93" transform="translate(274.3 -60.57) rotate(90)"/><rect class="cls-14" x="167.29" y="106.25" width="0.29" height="8.93" transform="translate(278.14 -56.72) rotate(90)"/><rect class="cls-14" x="167.29" y="109.98" width="0.29" height="8.93" transform="translate(281.87 -52.99) rotate(90)"/><rect class="cls-14" x="117.44" y="98.39" width="9.82" height="19.99"/><rect class="cls-12" x="113.05" y="104.12" width="18.59" height="8.54" transform="translate(230.74 -13.96) rotate(90)"/><polygon class="cls-13" points="118.19 117.68 126.62 117.68 126.62 99.09 125.15 99.09 118.19 117.68"/><rect class="cls-14" x="122.08" y="98.39" width="0.55" height="19.99"/><rect class="cls-14" x="122.01" y="98.47" width="0.69" height="8.93" transform="translate(225.28 -19.42) rotate(90)"/><rect class="cls-14" x="122.21" y="102.4" width="0.29" height="8.93" transform="translate(229.21 -15.48) rotate(90)"/><rect class="cls-14" x="122.21" y="106.25" width="0.29" height="8.93" transform="translate(233.06 -11.64) rotate(90)"/><rect class="cls-14" x="122.21" y="109.98" width="0.29" height="8.93" transform="translate(236.79 -7.91) rotate(90)"/><rect class="cls-14" x="45.12" y="98.39" width="9.82" height="19.99"/><rect class="cls-12" x="40.73" y="104.12" width="18.59" height="8.54" transform="translate(158.41 58.36) rotate(90)"/><polygon class="cls-13" points="45.86 117.68 54.29 117.68 54.29 99.09 52.82 99.09 45.86 117.68"/><rect class="cls-14" x="49.75" y="98.39" width="0.55" height="19.99"/><rect class="cls-14" x="49.68" y="98.47" width="0.69" height="8.93" transform="translate(152.96 52.91) rotate(90)"/><rect class="cls-14" x="49.88" y="102.4" width="0.29" height="8.93" transform="translate(156.89 56.84) rotate(90)"/><rect class="cls-14" x="49.88" y="106.25" width="0.29" height="8.93" transform="translate(160.73 60.69) rotate(90)"/><rect class="cls-14" x="49.88" y="109.98" width="0.29" height="8.93" transform="translate(164.46 64.42) rotate(90)"/><rect class="cls-14" x="72.05" y="98.39" width="9.82" height="19.99"/><rect class="cls-12" x="67.66" y="104.12" width="18.59" height="8.54" transform="translate(185.34 31.43) rotate(90)"/><polygon class="cls-13" points="72.79 117.68 81.23 117.68 81.23 99.09 79.76 99.09 72.79 117.68"/><rect class="cls-14" x="76.68" y="98.39" width="0.55" height="19.99"/><rect class="cls-14" x="76.61" y="98.47" width="0.69" height="8.93" transform="translate(179.89 25.98) rotate(90)"/><rect class="cls-14" x="76.81" y="102.4" width="0.29" height="8.93" transform="translate(183.82 29.91) rotate(90)"/><rect class="cls-14" x="76.81" y="106.25" width="0.29" height="8.93" transform="translate(187.67 33.75) rotate(90)"/><rect class="cls-14" x="76.81" y="109.98" width="0.29" height="8.93" transform="translate(191.4 37.48) rotate(90)"/><rect class="cls-14" x="18.05" y="98.39" width="9.82" height="19.99"/><rect class="cls-12" x="13.66" y="104.12" width="18.59" height="8.54" transform="translate(131.35 85.42) rotate(90)"/><polygon class="cls-13" points="18.8 117.68 27.23 117.68 27.23 99.09 25.76 99.09 18.8 117.68"/><rect class="cls-14" x="22.69" y="98.39" width="0.55" height="19.99"/><rect class="cls-14" x="22.62" y="98.47" width="0.69" height="8.93" transform="translate(125.9 79.97) rotate(90)"/><rect class="cls-14" x="22.82" y="102.4" width="0.29" height="8.93" transform="translate(129.83 83.9) rotate(90)"/><rect class="cls-14" x="22.82" y="106.25" width="0.29" height="8.93" transform="translate(133.67 87.75) rotate(90)"/><rect class="cls-14" x="22.82" y="109.98" width="0.29" height="8.93" transform="translate(137.4 91.48) rotate(90)"/><rect class="cls-14" x="45.23" y="61.22" width="9.82" height="19.99"/><rect class="cls-12" x="40.84" y="66.94" width="18.59" height="8.54" transform="translate(121.35 21.07) rotate(90)"/><polygon class="cls-13" points="45.98 80.51 54.41 80.51 54.41 61.91 52.94 61.91 45.98 80.51"/><rect class="cls-14" x="49.87" y="61.22" width="0.55" height="19.99"/><rect class="cls-14" x="49.8" y="61.29" width="0.69" height="8.93" transform="translate(115.9 15.62) rotate(90)"/><rect class="cls-14" x="50" y="65.23" width="0.29" height="8.93" transform="translate(119.83 19.55) rotate(90)"/><rect class="cls-14" x="50" y="69.07" width="0.29" height="8.93" transform="translate(123.68 23.4) rotate(90)"/><rect class="cls-14" x="50" y="72.8" width="0.29" height="8.93" transform="translate(127.41 27.13) rotate(90)"/><rect class="cls-14" x="72.17" y="61.22" width="9.82" height="19.99"/><rect class="cls-12" x="67.78" y="66.94" width="18.59" height="8.54" transform="translate(148.29 -5.86) rotate(90)"/><polygon class="cls-13" points="72.91 80.51 81.34 80.51 81.34 61.91 79.87 61.91 72.91 80.51"/><rect class="cls-14" x="76.8" y="61.22" width="0.55" height="19.99"/><rect class="cls-14" x="76.73" y="61.29" width="0.69" height="8.93" transform="translate(142.83 -11.32) rotate(90)"/><rect class="cls-14" x="76.93" y="65.23" width="0.29" height="8.93" transform="translate(146.76 -7.38) rotate(90)"/><rect class="cls-14" x="76.93" y="69.07" width="0.29" height="8.93" transform="translate(150.61 -3.54) rotate(90)"/><rect class="cls-14" x="76.93" y="72.8" width="0.29" height="8.93" transform="translate(154.34 0.19) rotate(90)"/><rect class="cls-14" x="18.17" y="61.22" width="9.82" height="19.99"/><rect class="cls-12" x="13.78" y="66.94" width="18.59" height="8.54" transform="translate(94.29 48.13) rotate(90)"/><polygon class="cls-13" points="18.91 80.51 27.35 80.51 27.35 61.91 25.88 61.91 18.91 80.51"/><rect class="cls-14" x="22.81" y="61.22" width="0.55" height="19.99"/><rect class="cls-14" x="22.74" y="61.29" width="0.69" height="8.93" transform="translate(88.84 42.68) rotate(90)"/><rect class="cls-14" x="22.94" y="65.23" width="0.29" height="8.93" transform="translate(92.77 46.61) rotate(90)"/><rect class="cls-14" x="22.94" y="69.07" width="0.29" height="8.93" transform="translate(96.62 50.46) rotate(90)"/><rect class="cls-14" x="22.94" y="72.8" width="0.29" height="8.93" transform="translate(100.35 54.19) rotate(90)"/><rect class="cls-14" x="370.78" y="99.47" width="9.82" height="19.99"/><rect class="cls-12" x="366.39" y="105.19" width="18.59" height="8.54" transform="translate(485.15 -266.22) rotate(90)"/><polygon class="cls-13" points="371.52 118.76 379.96 118.76 379.96 100.17 378.48 100.17 371.52 118.76"/><rect class="cls-14" x="375.41" y="99.47" width="0.55" height="19.99"/><rect class="cls-14" x="375.34" y="99.55" width="0.69" height="8.93" transform="translate(479.7 -271.67) rotate(90)"/><rect class="cls-14" x="375.54" y="103.48" width="0.29" height="8.93" transform="translate(483.63 -267.74) rotate(90)"/><rect class="cls-14" x="375.54" y="107.32" width="0.29" height="8.93" transform="translate(487.47 -263.9) rotate(90)"/><rect class="cls-14" x="375.54" y="111.05" width="0.29" height="8.93" transform="translate(491.2 -260.17) rotate(90)"/><rect class="cls-14" x="397.71" y="99.47" width="9.82" height="19.99"/><rect class="cls-12" x="393.32" y="105.19" width="18.59" height="8.54" transform="translate(512.08 -293.16) rotate(90)"/><polygon class="cls-13" points="398.45 118.76 406.89 118.76 406.89 100.17 405.42 100.17 398.45 118.76"/><rect class="cls-14" x="402.34" y="99.47" width="0.55" height="19.99"/><rect class="cls-14" x="402.27" y="99.55" width="0.69" height="8.93" transform="translate(506.63 -298.61) rotate(90)"/><rect class="cls-14" x="402.48" y="103.48" width="0.29" height="8.93" transform="translate(510.56 -294.68) rotate(90)"/><rect class="cls-14" x="402.48" y="107.32" width="0.29" height="8.93" transform="translate(514.41 -290.83) rotate(90)"/><rect class="cls-14" x="402.48" y="111.05" width="0.29" height="8.93" transform="translate(518.14 -287.1) rotate(90)"/><rect class="cls-14" x="343.72" y="99.47" width="9.82" height="19.99"/><rect class="cls-12" x="339.33" y="105.19" width="18.59" height="8.54" transform="translate(458.09 -239.16) rotate(90)"/><polygon class="cls-13" points="344.46 118.76 352.89 118.76 352.89 100.17 351.42 100.17 344.46 118.76"/><rect class="cls-14" x="348.35" y="99.47" width="0.55" height="19.99"/><rect class="cls-14" x="348.28" y="99.55" width="0.69" height="8.93" transform="translate(452.63 -244.61) rotate(90)"/><rect class="cls-14" x="348.48" y="103.48" width="0.29" height="8.93" transform="translate(456.57 -240.68) rotate(90)"/><rect class="cls-14" x="348.48" y="107.32" width="0.29" height="8.93" transform="translate(460.41 -236.84) rotate(90)"/><rect class="cls-14" x="348.48" y="111.05" width="0.29" height="8.93" transform="translate(464.14 -233.11) rotate(90)"/><rect class="cls-14" x="370.89" y="62.3" width="9.82" height="19.99"/><rect class="cls-12" x="366.5" y="68.02" width="18.59" height="8.54" transform="translate(448.09 -303.51) rotate(90)"/><polygon class="cls-13" points="371.64 81.58 380.07 81.58 380.07 62.99 378.6 62.99 371.64 81.58"/><rect class="cls-14" x="375.53" y="62.3" width="0.55" height="19.99"/><rect class="cls-14" x="375.46" y="62.37" width="0.69" height="8.93" transform="translate(442.64 -308.97) rotate(90)"/><rect class="cls-14" x="375.66" y="66.3" width="0.29" height="8.93" transform="translate(446.57 -305.04) rotate(90)"/><rect class="cls-14" x="375.66" y="70.15" width="0.29" height="8.93" transform="translate(450.42 -301.19) rotate(90)"/><rect class="cls-14" x="375.66" y="73.88" width="0.29" height="8.93" transform="translate(454.15 -297.46) rotate(90)"/><rect class="cls-14" x="397.83" y="62.3" width="9.82" height="19.99"/><rect class="cls-12" x="393.44" y="68.02" width="18.59" height="8.54" transform="translate(475.02 -330.45) rotate(90)"/><polygon class="cls-13" points="398.57 81.58 407.01 81.58 407.01 62.99 405.53 62.99 398.57 81.58"/><rect class="cls-14" x="402.46" y="62.3" width="0.55" height="19.99"/><rect class="cls-14" x="402.39" y="62.37" width="0.69" height="8.93" transform="translate(469.57 -335.9) rotate(90)"/><rect class="cls-14" x="402.59" y="66.3" width="0.29" height="8.93" transform="translate(473.5 -331.97) rotate(90)"/><rect class="cls-14" x="402.59" y="70.15" width="0.29" height="8.93" transform="translate(477.35 -328.12) rotate(90)"/><rect class="cls-14" x="402.59" y="73.88" width="0.29" height="8.93" transform="translate(481.08 -324.39) rotate(90)"/><rect class="cls-14" x="343.83" y="62.3" width="9.82" height="19.99"/><rect class="cls-12" x="339.44" y="68.02" width="18.59" height="8.54" transform="translate(421.03 -276.45) rotate(90)"/><polygon class="cls-13" points="344.58 81.58 353.01 81.58 353.01 62.99 351.54 62.99 344.58 81.58"/><rect class="cls-14" x="348.47" y="62.3" width="0.55" height="19.99"/><rect class="cls-14" x="348.4" y="62.37" width="0.69" height="8.93" transform="translate(415.58 -281.91) rotate(90)"/><rect class="cls-14" x="348.6" y="66.3" width="0.29" height="8.93" transform="translate(419.51 -277.97) rotate(90)"/><rect class="cls-14" x="348.6" y="70.15" width="0.29" height="8.93" transform="translate(423.35 -274.13) rotate(90)"/><rect class="cls-14" x="348.6" y="73.88" width="0.29" height="8.93" transform="translate(427.08 -270.4) rotate(90)"/><path class="cls-3" d="M396.38,154.22V142.34c0-4.17,2.86-7.56,6.68-7.56s6.68,3.39,6.68,7.56v11.89Z"/><path class="cls-9" d="M408.88,153.32V142.67c0-3.73-2.62-6.78-5.81-6.78s-5.81,3.05-5.81,6.78v10.65Z"/><path class="cls-5" d="M397.89,153.32h11V142.75a7.67,7.67,0,0,0-1.38-4.45Z"/><path class="cls-3" d="M403.51,153.34h-.89v-17.4a1.14,1.14,0,0,1,.45-.06,1.24,1.24,0,0,1,.45.06Z"/><rect class="cls-3" x="397.06" y="143.29" width="12" height="0.89"/><path class="cls-3" d="M369.24,154.22V142.34c0-4.17,2.86-7.56,6.68-7.56s6.68,3.39,6.68,7.56v11.89Z"/><path class="cls-9" d="M381.74,153.32V142.67c0-3.73-2.62-6.78-5.81-6.78s-5.81,3.05-5.81,6.78v10.65Z"/><path class="cls-5" d="M370.76,153.32h11V142.75a7.67,7.67,0,0,0-1.38-4.45Z"/><path class="cls-3" d="M376.38,153.34h-.89v-17.4a1.14,1.14,0,0,1,.45-.06,1.24,1.24,0,0,1,.45.06Z"/><rect class="cls-3" x="369.92" y="143.29" width="12" height="0.89"/><path class="cls-3" d="M342.11,154.34V142.45c0-4.17,2.86-7.56,6.68-7.56s6.68,3.39,6.68,7.56v11.89Z"/><path class="cls-9" d="M354.61,153.44V142.78c0-3.73-2.62-6.78-5.81-6.78s-5.81,3.05-5.81,6.78v10.65Z"/><path class="cls-5" d="M343.62,153.44h11V142.86a7.67,7.67,0,0,0-1.38-4.45Z"/><path class="cls-3" d="M349.24,153.46h-.89v-17.4a1.14,1.14,0,0,1,.45-.06,1.24,1.24,0,0,1,.45.06Z"/><rect class="cls-3" x="342.79" y="143.41" width="12" height="0.89"/><path class="cls-8" d="M296.49,154.34V142.45c0-4.17,2.86-7.56,6.68-7.56s6.68,3.39,6.68,7.56v11.89Z"/><path class="cls-9" d="M309,153.44V142.78c0-3.73-2.62-6.78-5.81-6.78s-5.81,3.05-5.81,6.78v10.65Z"/><path class="cls-5" d="M298,153.44h11V142.86a7.67,7.67,0,0,0-1.38-4.45Z"/><path class="cls-8" d="M303.63,153.46h-.89v-17.4a1.14,1.14,0,0,1,.45-.06,1.24,1.24,0,0,1,.45.06Z"/><rect class="cls-8" x="297.18" y="143.41" width="12" height="0.89"/><path class="cls-8" d="M274.22,154.34V142.45c0-4.17,2.86-7.56,6.68-7.56s6.68,3.39,6.68,7.56v11.89Z"/><path class="cls-9" d="M286.72,153.44V142.78c0-3.73-2.62-6.78-5.81-6.78s-5.81,3.05-5.81,6.78v10.65Z"/><path class="cls-5" d="M275.73,153.44h11V142.86a7.67,7.67,0,0,0-1.38-4.45Z"/><path class="cls-8" d="M281.35,153.46h-.89v-17.4a1.14,1.14,0,0,1,.45-.06,1.24,1.24,0,0,1,.45.06Z"/><rect class="cls-8" x="274.9" y="143.41" width="12" height="0.89"/><path class="cls-8" d="M251.94,154.34V142.45c0-4.17,2.86-7.56,6.68-7.56s6.68,3.39,6.68,7.56v11.89Z"/><path class="cls-9" d="M264.44,153.44V142.78c0-3.73-2.62-6.78-5.81-6.78s-5.81,3.05-5.81,6.78v10.65Z"/><path class="cls-5" d="M253.46,153.44h11V142.86a7.67,7.67,0,0,0-1.38-4.45Z"/><path class="cls-8" d="M259.07,153.46h-.89v-17.4a1.14,1.14,0,0,1,.45-.06,1.24,1.24,0,0,1,.45.06Z"/><rect class="cls-8" x="252.62" y="143.41" width="12" height="0.89"/><path class="cls-8" d="M205.77,119V105.71c0-4.72,3.35-8.56,7.23-8.56s7.23,3.84,7.23,8.56V119Z"/><path class="cls-7" d="M218.81,117.92v-12c0-4.21-2.62-7.65-5.81-7.65s-5.81,3.44-5.81,7.65v12Z"/><path class="cls-5" d="M207.83,117.92h11V106.06c0-1.92-.55-5.1-3.2-7Z"/><path class="cls-8" d="M213.45,117.92h-.89V98.29a1,1,0,0,1,.45-.07,1.11,1.11,0,0,1,.45.07Z"/><path class="cls-8" d="M209.88,117.93h-.45V98.3a.29.29,0,0,1,.22-.07.31.31,0,0,1,.22.07Z"/><path class="cls-8" d="M206.87,109.65v-.45h12.4a.41.41,0,0,1,0,.22.45.45,0,0,1,0,.22Z"/><path class="cls-8" d="M206.75,116.15v-.45h12.4a.41.41,0,0,1,0,.22.45.45,0,0,1,0,.22Z"/><path class="cls-8" d="M216.56,117.93h-.45V98.3a.29.29,0,0,1,.22-.07.31.31,0,0,1,.22.07Z"/><rect class="cls-8" x="207.18" y="103.18" width="11.64" height="0.89"/><rect class="cls-15" x="185.15" y="68.15" width="55.68" height="5.74"/><path class="cls-2" d="M240.84,68.23c-4-5-14.93-8.6-27.85-8.6s-23.85,3.6-27.85,8.6Z"/><circle class="cls-2" cx="213.67" cy="73.89" r="7.59"/><rect class="cls-16" x="106.11" y="91.72" width="316.38" height="3.64"/><rect class="cls-17" x="106.11" y="125.13" width="316.38" height="3.64"/><rect class="cls-18" x="3.64" y="91.72" width="102.46" height="3.64"/><rect class="cls-19" x="3.64" y="125.13" width="102.46" height="3.64"/><rect class="cls-20" x="149.64" y="44.57" width="4.68" height="7.13"/><rect class="cls-20" x="278.78" y="44.57" width="4.68" height="7.13"/></g></g></svg>