<svg id="Layer_1" data-name="Layer 1" xmlns="http://www.w3.org/2000/svg" viewBox="0 0 360 372"><defs><style>.cls-1{fill:#dfa8f5;}.cls-2{fill:#42005b;}.cls-3{fill:#bf52eb;}.cls-4{fill:#622b77;}.cls-5{fill:#a100e2;}.cls-6{fill:#805491;}.cls-7{fill:#eed1fa;}</style></defs><title>paris</title><path class="cls-1" d="M7.79,17.93v338H127.25V191.62c0-30,23.16-54.55,52.84-54.55s52.84,24.55,52.84,54.55v164.3H354.68v-338Z"/><rect class="cls-2" x="2.9" y="18.24" width="354.02" height="4.32"/><rect class="cls-3" x="257.41" y="133.78" width="78.13" height="43.41"/><rect class="cls-4" x="277.72" y="119.01" width="36.76" height="73.51" transform="translate(451.87 -140.34) rotate(90)"/><rect class="cls-5" x="280.02" y="121.16" width="32.16" height="69.2" transform="translate(451.87 -140.34) rotate(90)"/><rect class="cls-3" x="24.27" y="133.78" width="78.13" height="43.41"/><rect class="cls-4" x="44.59" y="119.01" width="36.76" height="73.51" transform="translate(218.73 92.8) rotate(90)"/><rect class="cls-5" x="46.89" y="121.16" width="32.16" height="69.2" transform="translate(218.73 92.8) rotate(90)"/><rect class="cls-3" x="7.22" y="0.97" width="345.38" height="17.27"/><rect class="cls-6" x="2.9" y="15.49" width="354.02" height="4.32"/><rect class="cls-6" x="2.9" y="56.51" width="354.02" height="17.27"/><rect class="cls-4" x="7.79" y="73.78" width="346.89" height="21.59"/><rect class="cls-2" x="7.79" y="95.07" width="346.89" height="8.63"/><polygon class="cls-5" points="116.37 183.27 116.37 124.99 181.13 124.99 143.84 147.53 116.37 183.27"/><rect class="cls-7" x="7.79" y="52.77" width="346.89" height="3.73"/><polygon class="cls-5" points="242.86 183.27 242.86 124.99 178.1 124.99 215.39 147.53 242.86 183.27"/><rect class="cls-7" x="7.22" y="112.26" width="345.38" height="12.95"/><path class="cls-3" d="M233,354.39h10.6V190.48c0-35.55-28.54-64.47-63.62-64.47s-63.62,28.92-63.62,64.47V354.39H127V191.07c0-29.67,23.74-53.73,53-53.73s53,24.06,53,53.73Z"/><rect class="cls-6" x="1.89" y="182.79" width="129.52" height="4.32"/><rect class="cls-6" x="228.48" y="182.79" width="129.52" height="4.32"/><rect class="cls-6" x="1.89" y="320.94" width="129.52" height="4.32"/><rect class="cls-6" x="228.48" y="320.94" width="129.52" height="4.32"/><rect class="cls-5" x="175.59" y="122.62" width="8.63" height="14.4"/><rect class="cls-5" x="1.15" y="358.4" width="131.04" height="10.79"/><polygon class="cls-6" points="132.19 358.4 1.15 358.4 7.34 354.08 125.95 354.08 132.19 358.4"/><rect class="cls-5" x="227.81" y="358.4" width="131.04" height="10.79"/><polygon class="cls-6" points="358.85 358.4 227.81 358.4 234 354.08 352.61 354.08 358.85 358.4"/><rect class="cls-6" x="32.19" y="360.24" width="62.92" height="10.79"/><polygon class="cls-4" points="51.44 360.24 95.11 360.24 88.23 355.92 51.44 355.92 51.44 360.24"/><polygon class="cls-4" points="68.45 355.92 39.02 355.92 32.19 360.24 68.45 360.24 68.45 355.92"/><rect class="cls-3" x="39.05" y="324.82" width="49.17" height="31.1"/><polygon class="cls-3" points="90.86 320.94 36.45 320.94 39.06 314.47 88.24 314.47 90.86 320.94"/><rect class="cls-4" x="35.09" y="320.94" width="57.09" height="4.32"/><rect class="cls-6" x="264.7" y="360.24" width="62.92" height="10.79"/><polygon class="cls-4" points="283.95 360.24 327.62 360.24 320.74 355.92 283.95 355.92 283.95 360.24"/><polygon class="cls-4" points="300.96 355.92 271.53 355.92 264.7 360.24 300.96 360.24 300.96 355.92"/><rect class="cls-3" x="271.56" y="324.82" width="49.17" height="31.1"/><polygon class="cls-3" points="323.38 320.94 268.96 320.94 271.58 314.47 320.75 314.47 323.38 320.94"/><rect class="cls-4" x="267.6" y="320.94" width="57.09" height="4.32"/><circle class="cls-3" cx="23.41" cy="36.17" r="5.83"/><circle class="cls-3" cx="51.47" cy="36.17" r="5.83"/><circle class="cls-3" cx="79.53" cy="36.17" r="5.83"/><circle class="cls-3" cx="107.59" cy="36.17" r="5.83"/><circle class="cls-3" cx="135.66" cy="36.17" r="5.83"/><circle class="cls-3" cx="163.72" cy="36.17" r="5.83"/><circle class="cls-3" cx="191.78" cy="36.17" r="5.83"/><circle class="cls-3" cx="219.84" cy="36.17" r="5.83"/><circle class="cls-3" cx="247.91" cy="36.17" r="5.83"/><circle class="cls-3" cx="275.97" cy="36.17" r="5.83"/><circle class="cls-3" cx="304.03" cy="36.17" r="5.83"/><rect class="cls-6" x="31.39" y="22.55" width="2.16" height="30.22"/><rect class="cls-6" x="59.46" y="22.55" width="2.16" height="30.22"/><rect class="cls-6" x="87.52" y="22.55" width="2.16" height="30.22"/><rect class="cls-6" x="115.58" y="22.55" width="2.16" height="30.22"/><rect class="cls-6" x="143.64" y="22.55" width="2.16" height="30.22"/><rect class="cls-6" x="171.71" y="22.55" width="2.16" height="30.22"/><rect class="cls-6" x="199.77" y="22.55" width="2.16" height="30.22"/><rect class="cls-6" x="227.83" y="22.55" width="2.16" height="30.22"/><rect class="cls-6" x="255.89" y="22.55" width="2.16" height="30.22"/><rect class="cls-6" x="283.96" y="22.55" width="2.16" height="30.22"/><rect class="cls-6" x="312.02" y="22.55" width="2.16" height="30.22"/><circle class="cls-3" cx="332.09" cy="36.17" r="5.83"/><rect class="cls-6" x="340.08" y="22.55" width="2.16" height="30.22"/></svg>