<svg id="Layer_1" data-name="Layer 1" xmlns="http://www.w3.org/2000/svg" viewBox="0 0 460 460"><defs><style>.cls-1{fill:#da0100;}.cls-2{fill:#a63d3d;}.cls-3{fill:#8a0000;}.cls-4{fill:#e02c2b;}</style></defs><title>hanoi</title><circle class="cls-1" cx="229.99" cy="24.62" r="7.4"/><path class="cls-2" d="M222,24.88s-6.9-.17-8.88,11.7-1.41,31.07-1.41,31.07l-3.13,1.28V93l-2.31,2.31v24.41h-2.56v28.46h-3.32v30.48h-3.8v35h-2.53v39h-3v38H186.6v42.51h-3.65v48.31H179.2v53.89h35.13l2.73-81.43,4-90.58,2.75-74.2.67-111.26L226.28,67l-.64-12.26L230,24.88Z"/><path class="cls-2" d="M238,24.88s6.9-.17,8.88,11.7,1.41,31.07,1.41,31.07l3.13,1.28V93l2.31,2.31v24.41h2.56v28.46h3.32v30.48h3.8v35h2.53v39h3v38h4.49v42.51H277v48.31h3.75v53.89H243.29L233.7,24.88Z"/><path class="cls-2" d="M237.92,25H222L207,435.36H253Zm-10.4,32.17A2.45,2.45,0,0,1,230,54.75a2.49,2.49,0,0,1,1.74.71,2.43,2.43,0,0,1,.75,1.7v7.47h-4.94Zm-1.24,23.92a3.44,3.44,0,0,1,3.46-3.18,4.15,4.15,0,0,1,2.63.93,3.6,3.6,0,0,1,1.33,2.24v9.84h-7.42Zm0,24.17a3.73,3.73,0,0,1,3.72-3.71,3.71,3.71,0,0,1,3.69,3.71v11.47h-7.42Zm-1.24,28.48a4.93,4.93,0,0,1,8.4-3.42,4.87,4.87,0,0,1,1.49,3.42v15h-9.89Zm-1.24,27.67a5.88,5.88,0,0,1,5.9-5.56,6.62,6.62,0,0,1,4.37,1.64,6,6,0,0,1,2.09,3.93v17.22h-5.25l-7.11,0Zm0,36.5a6.17,6.17,0,0,1,10.53-4.32,6.1,6.1,0,0,1,1.83,4.32v18.93H231l-7.2,0Zm0,36.59a6.46,6.46,0,0,1,6.42-6.59,5.8,5.8,0,0,1,4.32,1.94,6.29,6.29,0,0,1,1.62,4.65v20.38H231.1l-7.28,0Zm0,36.83a6.6,6.6,0,0,1,6.54-6.82,5.15,5.15,0,0,1,4.31,2,7.17,7.17,0,0,1,1.51,4.82v21.12h-5l-7.32,0Zm-1.24,41.19a7.52,7.52,0,0,1,7.5-7.51,7.23,7.23,0,0,1,5.21,2.21,7.38,7.38,0,0,1,2.13,5.3v26h-6.17l-8.67,0Zm16.07,109.26h-17.3V405a8.51,8.51,0,0,1,8.49-8.49A8.8,8.8,0,0,1,236,399a8.58,8.58,0,0,1,2.67,6Zm-7.24-34.44-10.07,0V358a8.51,8.51,0,0,1,8.49-8.49A8.8,8.8,0,0,1,236,352a8.58,8.58,0,0,1,2.67,6v29.36Z"/><polygon class="cls-2" points="252.75 243.78 233.14 243.78 227.93 243.78 206.95 243.78 180.96 246.65 190.84 254.24 226.26 254.9 227.93 254.9 233.14 254.9 234.82 254.9 270.23 254.1 279.63 246.65 252.75 243.78"/><path class="cls-3" d="M265.54,250c-12.14,0-12.47-9.32-12.47-9.32s.42,8.07-23.07,8.07h0c-23.49,0-23.08-8.07-23.08-8.07s-.31,9.32-12.46,9.32-16.21-6.11-16.21-6.11,5,12.29,18.16,12.73c6.16.21,20.28.22,33.59.18s27.43,0,33.59-.18c13.18-.45,18.16-12.73,18.16-12.73S277.68,250,265.54,250Z"/><polygon class="cls-2" points="250.38 205.46 232.79 205.46 228.16 205.46 209.54 205.46 185.89 208.35 195.2 214.9 226.68 215.35 228.16 215.35 232.79 215.35 234.28 215.35 265.76 214.91 274.54 208.2 250.38 205.46"/><path class="cls-3" d="M261.59,211.5c-10.79,0-11.08-8.28-11.08-8.28s.51,7.17-20.5,7.17h0c-21,0-20.51-7.17-20.51-7.17s-.28,8.28-11.07,8.28S184,206.07,184,206.07s4.43,10.92,16.14,11.31c5.47.18,18,.2,29.85.16s24.38,0,29.85-.16C271.56,217,276,206.07,276,206.07S272.38,211.5,261.59,211.5Z"/><polygon class="cls-2" points="248.51 170.85 232.53 170.85 228.34 170.85 211.48 170.77 189.76 173.75 198.51 179.98 226.99 180.74 228.34 180.74 232.53 180.74 233.88 180.74 262.36 180.1 270.31 173.68 248.51 170.85"/><path class="cls-3" d="M258.58,176.78c-9.77,0-10-7.49-10-7.49s0,6.49-18.55,6.49h0c-18.54,0-18.56-6.49-18.56-6.49s-.25,7.49-10,7.49-13-4.92-13-4.92,4,9.88,14.6,10.24c5,.17,16.31.18,27,.14s22.06,0,27-.14c10.6-.36,14.61-10.24,14.61-10.24S268.35,176.78,258.58,176.78Z"/><polygon class="cls-2" points="245.97 142.42 232.21 142.42 228.55 142.42 213.33 142.42 195.5 144.55 202.45 149.63 227.37 149.84 228.55 149.84 232.21 149.84 233.39 149.84 258.3 149.59 265.25 144.44 245.97 142.42"/><path class="cls-3" d="M255,147c-8.54,0-8.77-6.55-8.77-6.55s-.16,5.68-16.23,5.68h0c-16.07,0-16.23-5.68-16.23-5.68S213.54,147,205,147s-11.41-4.3-11.41-4.3,3.5,8.64,12.77,9c4.33.15,14.27.16,23.63.12s19.3,0,23.63-.12c9.27-.31,12.78-9,12.78-9S263.54,147,255,147Z"/><polygon class="cls-2" points="243.95 113.99 231.93 113.99 228.73 113.99 216.02 113.99 199.42 116.15 205.97 120.87 227.7 121.41 228.73 121.41 231.93 121.41 232.96 121.41 254.69 120.95 260.76 116.1 243.95 113.99"/><path class="cls-3" d="M251.81,118.45c-7.45,0-7.65-5.72-7.65-5.72s-.56,5-14.16,5h0c-13.6,0-14.16-5-14.16-5s-.19,5.72-7.65,5.72-10-3.75-10-3.75,3.06,7.54,11.15,7.81c3.78.13,12.45.14,20.62.11s16.84,0,20.62-.11c8.09-.27,11.15-7.81,11.15-7.81S259.27,118.45,251.81,118.45Z"/><polygon class="cls-2" points="242.95 89.27 231.78 89.27 228.83 89.27 216.98 89.27 201.59 91.43 207.79 95.98 227.88 96.69 228.83 96.69 231.78 96.69 232.73 96.69 252.82 96.13 258.43 91.43 242.95 89.27"/><path class="cls-3" d="M250.16,93.67c-6.89,0-7.07-5.29-7.07-5.29S242.36,93,230,93h0c-12.36,0-13.09-4.58-13.09-4.58s-.18,5.29-7.07,5.29-9.2-3.47-9.2-3.47,2.83,7,10.3,7.22c3.49.12,11.5.13,19.05.1s15.56,0,19.05-.1c7.47-.25,10.3-7.22,10.3-7.22S257,93.67,250.16,93.67Z"/><polygon class="cls-2" points="241.8 63.31 231.62 63.31 228.94 63.31 218.16 63.31 204.44 65.87 209.87 69.83 228.08 70.73 228.94 70.73 231.62 70.73 232.48 70.73 250.68 70.05 255.76 65.53 241.8 63.31"/><path class="cls-3" d="M248.27,67.65c-6.24,0-6.41-4.79-6.41-4.79S241.12,67,230,67h0c-11.12,0-11.86-4.15-11.86-4.15s-.16,4.79-6.4,4.79-8.34-3.14-8.34-3.14,2.56,6.32,9.33,6.55c3.17.11,10.43.11,17.27.09s14.1,0,17.27-.09c6.77-.23,9.34-6.55,9.34-6.55S254.51,67.65,248.27,67.65Z"/><polygon class="cls-2" points="240.51 38.59 231.44 38.59 229.05 38.59 219.45 38.59 207.23 41.07 212.07 44.9 228.29 46.01 229.05 46.01 231.44 46.01 232.21 46.01 248.42 45.2 252.94 40.87 240.51 38.59"/><path class="cls-3" d="M246.27,42.86c-5.56,0-5.71-4.27-5.71-4.27s-.67,3.69-10.56,3.69h0c-9.89,0-10.57-3.69-10.57-3.69s-.14,4.27-5.7,4.27-7.42-2.8-7.42-2.8,2.28,5.63,8.31,5.83c2.82.1,9.29.1,15.38.08s12.56,0,15.38-.08c6-.2,8.32-5.83,8.32-5.83S251.83,42.86,246.27,42.86Z"/><polygon class="cls-2" points="255.49 282.09 233.47 282.09 227.72 282.09 203.81 282.09 175.81 284.96 186.73 292.56 225.87 293.22 227.72 293.22 233.47 293.22 235.32 293.22 274.46 292.42 285.38 285.02 255.49 282.09"/><path class="cls-3" d="M269.27,288.27c-13.42,0-13.78-9.32-13.78-9.32S256,287,230,287h0c-26,0-25.5-8.07-25.5-8.07s-.35,9.32-13.77,9.32-17.92-6.11-17.92-6.11a23.26,23.26,0,0,0,20.07,12.73c6.8.21,22.41.22,37.11.18s30.31,0,37.12-.18a23.27,23.27,0,0,0,20.07-12.73S282.69,288.27,269.27,288.27Z"/><polygon class="cls-2" points="259.34 322.88 234.05 322.88 227.34 322.88 199.44 322.88 166.77 326.44 179.51 335.5 225.18 336.48 227.34 336.48 234.05 336.48 236.21 336.48 281.88 335.44 294.63 326.56 259.34 322.88"/><path class="cls-3" d="M275.83,330.51c-15.66,0-16.08-10.87-16.08-10.87S259.67,329,230,329h0c-30.9,0-29.76-9.41-29.76-9.41s-.41,10.87-16.06,10.87-20.91-7.13-20.91-7.13,6.42,14.34,23.42,14.86c7.94.24,26.15.26,43.31.21s35.37,0,43.31-.21c17-.52,23.42-14.86,23.42-14.86S291.49,330.51,275.83,330.51Z"/><polygon class="cls-2" points="264.3 371.09 234.35 371.09 227.14 371.09 197.19 371.09 162.13 374.68 175.8 384.02 224.82 384.69 227.14 384.69 234.35 384.69 236.67 384.69 285.69 383.85 299.37 374.67 264.3 371.09"/><path class="cls-3" d="M301.6,371.21c-.42.9-7.45,15.35-25.12,15.9-7.44.22-23.27.27-39.42.23H230l-9.9,0c-15.14,0-29.59,0-36.59-.25a29.11,29.11,0,0,1-25.12-15.82,10.65,10.65,0,0,0,4.25,3.5h0c3.45,2.47,9.23,4.11,18.16,4.11,10.21,0,14.38-4.35,16.07-7.74a11.2,11.2,0,0,0,1.15-3.81,5.31,5.31,0,0,0,2,3.75c2.48,2.29,8,4.89,20,5.82,2.89.22,6.18.34,9.89.34q3.84,0,7.08-.19c13.44-.73,19.62-3.54,22.45-6,2.37-2.05,2.41-3.84,2.41-3.94a10.57,10.57,0,0,0,1.15,3.94c1.69,3.39,5.86,7.74,16.12,7.74,9.13,0,15-2.26,18.38-4.34A15.44,15.44,0,0,0,301.6,371.21Z"/><rect class="cls-1" x="182.61" y="428.54" width="94.77" height="14.24"/><rect class="cls-4" x="173.81" y="424.86" width="112.37" height="10.5"/></svg>