<svg id="Layer_1" data-name="Layer 1" xmlns="http://www.w3.org/2000/svg" xmlns:xlink="http://www.w3.org/1999/xlink" viewBox="0 0 460 460"><defs><style>.cls-1{fill:#3d3d3d;}.cls-2{fill:#213b5c;}.cls-3{fill:#475c78;}.cls-4{fill:#61748b;}.cls-5{fill:url(#linear-gradient);}.cls-6{fill:#1a1a1a;}.cls-7{fill:#202020;}</style><linearGradient id="linear-gradient" x1="230" y1="140.44" x2="230" y2="134.58" gradientUnits="userSpaceOnUse"><stop offset="0" stop-color="#61748b" stop-opacity="0"/><stop offset="0.18" stop-color="#5c7087" stop-opacity="0.08"/><stop offset="0.43" stop-color="#4e637d" stop-opacity="0.29"/><stop offset="0.74" stop-color="#384f6d" stop-opacity="0.65"/><stop offset="1" stop-color="#213b5c"/></linearGradient></defs><title>hanoi</title><rect class="cls-1" x="136.9" y="129.64" width="187.01" height="118.39"/><rect class="cls-2" x="85.95" y="240.73" width="288.11" height="14.59"/><rect class="cls-3" x="47.65" y="255.32" width="364.7" height="112.04"/><rect class="cls-4" x="336.36" y="140.44" width="14.59" height="100.29"/><rect class="cls-4" x="290.78" y="140.44" width="14.59" height="100.29"/><rect class="cls-4" x="245.19" y="140.44" width="14.59" height="100.29"/><rect class="cls-4" x="199.6" y="140.44" width="14.59" height="100.29"/><rect class="cls-4" x="154.01" y="140.44" width="14.59" height="100.29"/><rect class="cls-4" x="108.43" y="140.44" width="14.59" height="100.29"/><rect class="cls-4" x="104.64" y="134.58" width="250.73" height="5.86"/><rect class="cls-5" x="104.64" y="134.58" width="250.73" height="5.86"/><polygon class="cls-4" points="94.15 106.32 365.85 106.32 357.64 134.58 102.36 134.58 94.15 106.32"/><rect class="cls-3" x="120.59" y="101.76" width="218.82" height="4.56"/><rect class="cls-4" x="150.22" y="94.47" width="159.55" height="7.29"/><rect class="cls-2" x="150.22" y="92.64" width="159.55" height="1.82"/><rect class="cls-2" x="47.65" y="255.32" width="364.7" height="29.18"/><rect class="cls-6" x="173.92" y="312.15" width="115.02" height="55.21"/><rect class="cls-7" x="188.66" y="312.15" width="85.54" height="55.21"/><rect class="cls-1" x="203.03" y="312.15" width="56.81" height="55.21"/><rect class="cls-4" x="216.84" y="321.44" width="29.18" height="45.92"/><rect class="cls-1" x="231.29" y="320.88" width="0.29" height="46.48"/><path class="cls-2" d="M176.89,121.39v9.44h-1.58v-3.94h-3.93v3.94H169.8v-9.44h1.58v3.91h3.93v-3.91Z"/><path class="cls-2" d="M189.2,126.11a4.71,4.71,0,1,1-4.72-4.72A4.71,4.71,0,0,1,189.2,126.11Zm-1.58,0a3.14,3.14,0,1,0-3.14,3.14A3.14,3.14,0,0,0,187.62,126.11Z"/><path class="cls-2" d="M203.77,128.48h-6.23v-1.56h6.23Z"/><path class="cls-2" d="M218.69,128.33l1.11,1.12a4.73,4.73,0,1,1,0-6.68l-1.11,1.11a3.14,3.14,0,1,0,0,4.45Z"/><path class="cls-2" d="M229,121.39v9.44h-1.58v-3.94h-3.93v3.94H222v-9.44h1.58v3.91h3.93v-3.91Z"/><path class="cls-2" d="M231.65,121.39h1.58v9.44h-1.58Z"/><path class="cls-2" d="M247.79,128.48h-6.23v-1.56h6.23Z"/><path class="cls-2" d="M266,130.83h-1.58V125l-2.71,5.8h-1.48l-2.89-5.92v5.92h-1.58v-9.46h1.6l3.59,7.35,3.44-7.35H266Z"/><path class="cls-2" d="M268.84,121.39h1.58v9.44h-1.58Z"/><path class="cls-2" d="M279.34,130.83l-4.69-6.72v6.72h-1.58v-9.44h1.59l4.71,6.72v-6.72h1.56v9.44Z"/><path class="cls-2" d="M291.21,121.39v9.44h-1.58v-3.94H285.7v3.94h-1.58v-9.44h1.58v3.91h3.93v-3.91Z"/><circle class="cls-2" cx="269.63" cy="119.19" r="0.79"/><path class="cls-2" d="M206.42,115.37l.67.68a2.88,2.88,0,1,1,0-4.06l-.67.67a1.91,1.91,0,1,0,0,2.71Z"/><path class="cls-2" d="M214.83,111.14v5.75h-1v-2.4h-2.39v2.4h-1v-5.75h1v2.38h2.39v-2.38Z"/><path class="cls-2" d="M219,115.67a2.89,2.89,0,0,1-.29-1.17v-3.35h1v3.35a1.86,1.86,0,0,0,.2.77,1.27,1.27,0,0,0,1.23.67,1.26,1.26,0,0,0,1.23-.67,2,2,0,0,0,.21-.77v-3.35h1v3.35a2.89,2.89,0,0,1-.29,1.17,2.42,2.42,0,0,1-4.21,0Z"/><path class="cls-2" d="M236.54,112.1H235.1v4.79h-1V112.1h-1.44v-1h3.83Z"/><path class="cls-2" d="M240.25,111.14h1v5.75h-1Z"/><path class="cls-2" d="M248.91,115.37l.67.68a2.88,2.88,0,1,1,0-4.06l-.67.67a1.91,1.91,0,1,0,0,2.71Z"/><path class="cls-2" d="M257.32,111.14v5.75h-1v-2.4H254v2.4h-1v-5.75h1v2.38h2.39v-2.38Z"/><circle class="cls-2" cx="240.73" cy="109.87" r="0.48"/><circle class="cls-2" cx="240.73" cy="118.99" r="0.48"/></svg>