<svg id="Layer_1" data-name="Layer 1" xmlns="http://www.w3.org/2000/svg" viewBox="0 0 1003 460"><defs><style>.cls-1{fill:#da0100;}.cls-2{fill:#8a0000;}.cls-3{fill:#971c1c;}.cls-4{fill:#cc8f8f;}.cls-5{fill:#fff;}.cls-6{fill:#e13433;}.cls-7{fill:#e96766;}</style></defs><title>hanoi</title><rect class="cls-1" x="880.73" y="241.85" width="6.34" height="55.97" transform="translate(-15.11 55.64) rotate(-3.58)"/><polygon class="cls-2" points="888.96 299.93 888.4 290.95 882.07 291.35 882.6 299.93 888.96 299.93"/><polygon class="cls-1" points="823.12 299.93 819.33 239.34 813 239.74 816.76 299.93 823.12 299.93"/><polygon class="cls-2" points="823.12 299.93 822.69 293.36 816.36 293.75 816.76 299.93 823.12 299.93"/><rect class="cls-1" x="752.23" y="236.61" width="6.34" height="62.05" transform="translate(-22.11 73.38) rotate(-5.48)"/><polygon class="cls-2" points="761.68 299.93 761.01 292.92 754.7 293.53 755.31 299.93 761.68 299.93"/><rect class="cls-1" x="687.9" y="234.92" width="6.34" height="63.59" transform="translate(-12.92 36.24) rotate(-2.98)"/><polygon class="cls-2" points="695.98 299.93 695.64 293.61 689.3 293.94 689.63 299.93 695.98 299.93"/><rect class="cls-1" x="628.13" y="232.04" width="6.34" height="63.59" transform="translate(-12.85 33.14) rotate(-2.98)"/><polygon class="cls-2" points="636.36 299.93 636.07 294.45 629.74 294.78 630.01 299.93 636.36 299.93"/><rect class="cls-1" x="569.63" y="230.35" width="6.34" height="63.59" transform="translate(-2.4 5.3) rotate(-0.53)"/><polygon class="cls-2" points="576.33 299.93 576.26 292.93 569.92 292.99 569.98 299.93 576.33 299.93"/><rect class="cls-1" x="506.64" y="228.4" width="6.34" height="63.59" transform="translate(-8.23 16.79) rotate(-1.87)"/><polygon class="cls-2" points="514.29 299.93 513.99 290.89 507.65 291.1 507.95 299.93 514.29 299.93"/><rect class="cls-1" x="452.57" y="226.86" width="6.34" height="66.32" transform="translate(-8.25 15.02) rotate(-1.87)"/><polygon class="cls-2" points="460.22 299.93 459.98 292.84 453.65 293.05 453.88 299.93 460.22 299.93"/><rect class="cls-1" x="397.31" y="224.87" width="6.34" height="68.89" transform="translate(-15.71 26.05) rotate(-3.65)"/><polygon class="cls-2" points="406.25 299.93 405.85 293.49 399.52 293.89 399.9 299.93 406.25 299.93"/><rect class="cls-1" x="344.42" y="222.71" width="6.34" height="72.08" transform="translate(-14.39 20.55) rotate(-3.32)"/><polygon class="cls-2" points="353.17 299.96 352.73 292.47 346.4 292.83 346.81 299.96 353.17 299.96"/><rect class="cls-1" x="291" y="220.29" width="6.34" height="75.7" transform="translate(-33.92 44.77) rotate(-8.23)"/><polygon class="cls-2" points="303.41 299.93 302.42 292.98 296.14 293.89 297 299.93 303.41 299.93"/><rect class="cls-1" x="242.16" y="219.43" width="6.34" height="74.59" transform="matrix(0.99, -0.14, 0.14, 0.99, -34.23, 37.77)"/><polygon class="cls-2" points="254.77 299.93 253.59 291.63 247.31 292.53 248.36 299.93 254.77 299.93"/><rect class="cls-1" x="193.46" y="218.14" width="6.34" height="75.31" transform="translate(-34.59 30.78) rotate(-8.23)"/><polygon class="cls-2" points="206.21 299.93 205.15 292.61 198.88 293.51 199.81 299.93 206.21 299.93"/><polygon class="cls-1" points="149.58 235.33 143.17 235.33 151.59 293.51 157.86 292.61 149.58 235.33"/><polygon class="cls-2" points="158.93 299.93 157.86 292.61 151.59 293.51 152.52 299.93 158.93 299.93"/><polygon class="cls-1" points="113.2 235.33 106.8 235.33 115.21 293.51 121.49 292.61 113.2 235.33"/><polygon class="cls-2" points="122.57 299.93 121.49 292.61 115.21 293.51 116.17 299.93 122.57 299.93"/><polygon class="cls-3" points="308.65 299.93 316.92 235.54 310.65 234.41 302.23 299.93 308.65 299.93"/><polygon class="cls-4" points="308.65 299.93 309.13 296.26 302.82 295.38 302.23 299.93 308.65 299.93"/><polygon class="cls-3" points="359.63 299.87 353.36 298.74 362.1 230.41 368.37 231.54 359.63 299.87"/><polygon class="cls-3" points="413.99 294.82 407.72 293.68 416.46 225.35 422.73 226.49 413.99 294.82"/><polygon class="cls-4" points="359.61 299.93 360.55 292.74 354.28 291.6 353.2 299.93 359.61 299.93"/><polygon class="cls-4" points="413.35 299.93 414.14 293.67 407.87 292.54 406.94 299.93 413.35 299.93"/><polygon class="cls-3" points="469.39 296.11 463.12 294.98 471.86 226.65 478.13 227.78 469.39 296.11"/><polygon class="cls-4" points="468.91 299.93 469.54 294.97 463.27 293.83 462.5 299.93 468.91 299.93"/><rect class="cls-3" x="533" y="230.24" width="6.34" height="63.59" transform="translate(45.53 -77.68) rotate(8.65)"/><polygon class="cls-4" points="533.62 299.93 534.67 292.98 528.4 292.03 527.2 299.93 533.62 299.93"/><rect class="cls-3" x="593.68" y="232.96" width="6.34" height="63.59" transform="translate(46.63 -86.78) rotate(8.65)"/><polygon class="cls-4" points="594.7 299.93 595.34 295.7 589.08 294.75 588.29 299.93 594.7 299.93"/><rect class="cls-3" x="626.95" y="261.55" width="60.94" height="6.34" transform="translate(306.57 880.5) rotate(-82.26)"/><polygon class="cls-4" points="655.77 299.93 656.45 295.34 650.17 294.49 649.38 299.93 655.77 299.93"/><polygon class="cls-3" points="719.77 299.36 713.38 299.66 719.01 236.32 725.32 236.88 719.77 299.36"/><polygon class="cls-4" points="719.72 299.93 720.17 294.79 713.86 294.22 713.35 299.93 719.72 299.93"/><rect class="cls-3" x="782.07" y="234.76" width="6.34" height="63.59" transform="translate(26.68 -68.48) rotate(5.08)"/><polygon class="cls-4" points="785.42 299.93 785.8 296 779.49 295.44 779.05 299.93 785.42 299.93"/><polygon class="cls-3" points="853.2 299.93 858.29 242.91 851.98 242.34 846.83 299.93 853.2 299.93"/><polygon class="cls-4" points="853.2 299.93 853.71 294.5 847.39 293.94 846.83 299.93 853.2 299.93"/><polygon class="cls-3" points="256.38 298.14 250.11 297 258.85 228.67 265.12 229.81 256.38 298.14"/><polygon class="cls-4" points="256.18 299.93 257.29 291 251.02 289.86 249.74 299.93 256.18 299.93"/><polygon class="cls-3" points="208.91 299.2 202.64 298.06 211.38 229.73 217.65 230.87 208.91 299.2"/><polygon class="cls-4" points="208.82 299.93 209.82 292.06 203.56 290.93 202.41 299.93 208.82 299.93"/><polygon class="cls-3" points="160.88 297.36 154.61 296.22 163.35 227.89 169.62 229.03 160.88 297.36"/><polygon class="cls-4" points="160.57 299.93 161.79 290.22 155.52 289.08 154.15 299.93 160.57 299.93"/><polygon class="cls-3" points="118.14 297.36 111.87 296.22 120.61 227.89 126.87 229.03 118.14 297.36"/><polygon class="cls-4" points="117.83 299.93 119.05 290.22 112.78 289.08 111.42 299.93 117.83 299.93"/><path class="cls-5" d="M900.39,262.54c-148.08-21.83-249.09-31.41-432.32-35.9-237.8,0-381.34,24.44-381.34,24.44L22.22,251v7.73h64S325,229.41,468,233.1c56.44,1.38,105.07,3.33,149.68,5.88L764.28,251c43.3,4.79,87.07,10.41,136,17.74h78.41v-6.1Z"/><path class="cls-6" d="M900.47,262.54c-148.08-21.83-249.13-31.41-432.36-35.9-237.8,0-381.4,24.44-381.4,24.44L7.13,251v8.3H86.25S325,229.69,468,233.38c56.44,1.38,105.07,3.19,149.68,5.74l146.59,12.23c43.3,4.79,87.07,10.64,136,17.92h95.46v-6.59Z"/><path class="cls-7" d="M900.47,238.9C752.39,217.07,651.34,207.49,468.11,203c-237.8,0-381.4,24.44-381.4,24.44l-79.58-.11V251l80,.11s205.16-24.44,381-24.44c56.44,1.38,105.49,3.28,150.1,5.83L751.3,243.39c43.3,4.79,100.25,11.88,149.17,19.16,78.18,0,95.26.14,95.26.14V239Z"/><rect class="cls-2" x="79.89" y="271.92" width="6.42" height="28.01"/><rect class="cls-1" x="79.89" y="259.16" width="6.42" height="28.27"/><rect class="cls-2" x="43.51" y="271.92" width="6.42" height="28.01"/><rect class="cls-1" x="43.51" y="259.16" width="6.42" height="28.27"/><rect class="cls-2" x="7.13" y="271.92" width="6.42" height="28.01"/><rect class="cls-1" x="7.13" y="259.16" width="6.42" height="28.27"/><rect class="cls-4" x="989.31" y="271.92" width="6.42" height="28.01"/><rect class="cls-1" x="989.31" y="259.16" width="6.42" height="28.27"/><rect class="cls-4" x="952.94" y="271.92" width="6.42" height="28.01"/><rect class="cls-1" x="952.94" y="259.16" width="6.42" height="28.27"/><rect class="cls-4" x="916.56" y="271.92" width="6.42" height="28.01"/><rect class="cls-1" x="916.56" y="259.16" width="6.42" height="28.27"/></svg>