<svg id="Layer_1" data-name="Layer 1" xmlns="http://www.w3.org/2000/svg" viewBox="0 0 460 460"><defs><style>.cls-1{fill:#8795a7;}.cls-2{fill:#213b5c;}.cls-3{fill:#e33e3d;}.cls-4{fill:#da0100;}.cls-5{fill:#9e2b2b;}.cls-6{fill:#8a0000;}.cls-7{fill:#ebb162;}.cls-8{fill:#b6bec9;}</style></defs><title>hanoi</title><path class="cls-1" d="M112.42,298.37v85.94h72.87V371.24h13.08v13.08H347.83V298.37Zm59.79,80.34H142.31V333.54c0-11.28,13.59-21,14.95-21.88,1.36.86,14.95,10.6,14.95,21.88Zm84.08,0H200.23V337c0-12.22,28-25,28-25s28,12.75,28,25Zm67.26,0H293.65V333.54c0-11.28,13.59-21,14.95-21.88,1.36.86,14.95,10.6,14.95,21.88Z"/><path class="cls-1" d="M118,206.82v59.79h26.16V235.45c0-8.22,12-15.32,13.08-16,1.12.63,13.08,7.73,13.08,16v31.17h39.24V235.45c0-8.22,18.68-15.32,20.55-16,1.88.63,20.55,7.73,20.55,16v31.17H288V235.45c0-8.22,11-15.32,12.14-16,1.12.63,12.14,7.73,12.14,16v31.17h28V206.82Z"/><rect class="cls-2" x="107.11" y="382.56" width="77.94" height="6.24"/><rect class="cls-2" x="99.18" y="388.8" width="85.86" height="14.13"/><rect class="cls-2" x="198.72" y="382.56" width="149.7" height="6.24" transform="translate(547.15 771.35) rotate(-180)"/><rect class="cls-2" x="198.73" y="388.8" width="162.09" height="14.2" transform="translate(559.55 791.8) rotate(-180)"/><rect class="cls-3" x="181.29" y="104.16" width="97.41" height="25.75"/><rect class="cls-2" x="169.84" y="144.61" width="120.31" height="51.78"/><polygon class="cls-4" points="290.16 144.61 169.84 144.61 181.26 125.55 278.74 125.55 290.16 144.61"/><rect class="cls-3" x="108.06" y="287.83" width="243.88" height="8.95"/><rect class="cls-5" x="112.23" y="268.19" width="235.53" height="19.64"/><rect class="cls-5" x="178.26" y="187.63" width="103.48" height="17.52"/><rect class="cls-6" x="119.31" y="203.49" width="221.37" height="3.32"/><rect class="cls-1" x="139.97" y="184.98" width="2.52" height="15.59"/><rect class="cls-1" x="145.42" y="184.98" width="2.52" height="15.59"/><rect class="cls-1" x="150.86" y="184.98" width="2.52" height="15.59"/><rect class="cls-1" x="156.31" y="184.98" width="2.52" height="15.59"/><rect class="cls-1" x="161.75" y="184.98" width="2.52" height="15.59"/><rect class="cls-3" x="135.1" y="182.33" width="34.04" height="5.3"/><rect class="cls-1" x="136.86" y="199.43" width="32.29" height="4.07"/><rect class="cls-1" x="122.83" y="179.39" width="14.21" height="24.1"/><path class="cls-4" d="M136.86,176.73c0-2.87-3.1-5.19-6.93-5.19s-6.93,2.33-6.93,5.19"/><polygon class="cls-3" points="134.43 179.4 125.43 179.4 123.01 176.73 136.86 176.73 134.43 179.4"/><rect class="cls-1" x="167.76" y="179.39" width="14.21" height="24.1"/><path class="cls-4" d="M181.79,176.73c0-2.87-3.1-5.19-6.93-5.19s-6.93,2.33-6.93,5.19"/><polygon class="cls-3" points="179.36 179.4 170.36 179.4 167.94 176.73 181.79 176.73 179.36 179.4"/><rect class="cls-1" x="295.18" y="184.98" width="2.52" height="15.59"/><rect class="cls-1" x="300.63" y="184.98" width="2.52" height="15.59"/><rect class="cls-1" x="306.07" y="184.98" width="2.52" height="15.59"/><rect class="cls-1" x="311.52" y="184.98" width="2.52" height="15.59"/><rect class="cls-1" x="316.96" y="184.98" width="2.52" height="15.59"/><rect class="cls-3" x="290.31" y="182.33" width="34.04" height="5.3"/><rect class="cls-1" x="292.07" y="199.43" width="32.29" height="4.07"/><rect class="cls-1" x="278.04" y="179.39" width="14.21" height="24.1"/><path class="cls-4" d="M292.07,176.73c0-2.87-3.1-5.19-6.93-5.19s-6.93,2.33-6.93,5.19"/><polygon class="cls-3" points="289.64 179.4 280.64 179.4 278.21 176.73 292.06 176.73 289.64 179.4"/><rect class="cls-1" x="322.96" y="179.39" width="14.21" height="24.1"/><path class="cls-4" d="M337,176.73c0-2.87-3.1-5.19-6.93-5.19s-6.93,2.33-6.93,5.19"/><polygon class="cls-3" points="334.57 179.4 325.57 179.4 323.14 176.73 336.99 176.73 334.57 179.4"/><circle class="cls-7" cx="230" cy="174.79" r="12.39"/><rect class="cls-5" x="138.12" y="300.38" width="40.07" height="5.79"/><rect class="cls-5" x="176.29" y="306.17" width="1.89" height="75.91"/><rect class="cls-5" x="196.12" y="300.38" width="64.5" height="5.79"/><rect class="cls-5" x="289.18" y="300.38" width="39.52" height="5.79"/><rect class="cls-5" x="257.98" y="306.17" width="2.64" height="75.91"/><path class="cls-8" d="M169.76,84.46s-2,19.79,12.79,19.79,12.19-10.6,15.39-14.8,6.94-4.4,10-1.4c0,0,5.4,3.8,7,7.2s7.4-2.6,7.4-2.6-8.59-10.79-18.79-13.79-13.19,11.2-16.19,12.7-11.39,2.7-7.4-7.5,3.4-12,0-11.79c-2,0-2.16,1.65-5.18,1.1s-8.24-.69-9.62.55S157.33,83.88,169.76,84.46Z"/><path class="cls-8" d="M290.42,84.46s2,19.79-12.79,19.79-12.19-10.6-15.39-14.8-6.94-4.4-10-1.4c0,0-5.4,3.8-7,7.2s-7.4-2.6-7.4-2.6,8.59-10.79,18.79-13.79,13.19,11.2,16.19,12.7,11.39,2.7,7.4-7.5-3.4-12,0-11.79c2,0,2.16,1.65,5.18,1.1s8.24-.69,9.62.55S302.85,83.88,290.42,84.46Z"/><path class="cls-2" d="M238,70.77c0-7.83-7.92-12.34-7.92-13.51V57s.1.05,0,.13c-.1-.08,0-.13,0-.13v.26c-1.87,1.17-7.54,5.68-7.54,13.51,0,13.14-44,33.29-44,33.29h103.9S238,83.91,238,70.77Z"/><rect class="cls-2" x="333.58" y="263.73" width="14.21" height="24.1"/><path class="cls-4" d="M347.61,261.07c0-2.87-3.1-5.19-6.93-5.19s-6.93,2.33-6.93,5.19"/><polygon class="cls-3" points="345.19 263.73 336.19 263.73 333.76 261.07 347.61 261.07 345.19 263.73"/><rect class="cls-2" x="265.51" y="263.73" width="14.21" height="24.1"/><path class="cls-4" d="M279.54,261.07c0-2.87-3.1-5.19-6.93-5.19s-6.93,2.33-6.93,5.19"/><polygon class="cls-3" points="277.11 263.73 268.11 263.73 265.69 261.07 279.54 261.07 277.11 263.73"/><rect class="cls-2" x="180.31" y="263.73" width="14.21" height="24.1"/><path class="cls-4" d="M194.34,261.07c0-2.87-3.1-5.19-6.93-5.19s-6.93,2.33-6.93,5.19"/><polygon class="cls-3" points="191.91 263.73 182.91 263.73 180.49 261.07 194.34 261.07 191.91 263.73"/><rect class="cls-2" x="112.23" y="263.73" width="14.21" height="24.1"/><path class="cls-4" d="M126.26,261.07c0-2.87-3.1-5.19-6.93-5.19s-6.93,2.33-6.93,5.19"/><polygon class="cls-3" points="123.84 263.73 114.84 263.73 112.41 261.07 126.26 261.07 123.84 263.73"/></svg>