<svg id="Layer_1" data-name="Layer 1" xmlns="http://www.w3.org/2000/svg" viewBox="0 0 1003 460"><defs><style>.cls-1{fill:#8a0000;}.cls-2{fill:none;stroke:#8a0000;stroke-linecap:square;stroke-linejoin:bevel;}</style></defs><title>istanbul</title><rect class="cls-1" x="173.13" y="180.02" width="6" height="100.03"/><rect class="cls-1" x="823.3" y="180.01" width="6" height="100.03"/><rect class="cls-1" x="950.34" y="247.97" width="12" height="32.07"/><rect class="cls-1" x="176.18" y="245.97" width="651.3" height="4"/><rect class="cls-1" x="824.59" y="245.97" width="160.04" height="4"/><polygon class="cls-1" points="960.56 247.97 956.18 247.97 952.28 245.73 828.27 181.91 829.19 180.07 956.66 245.76 960.56 247.97"/><rect class="cls-1" x="40.66" y="247.97" width="12" height="32.07" transform="translate(93.32 528.01) rotate(-180)"/><rect class="cls-1" x="18.37" y="245.97" width="160.04" height="4"/><polygon class="cls-1" points="41.79 247.97 46.17 247.97 50.07 245.73 174.08 181.91 173.16 180.07 45.69 245.76 41.79 247.97"/><path class="cls-1" d="M178.41,180v2S393.08,245,522.73,243.6s221.07-25.76,225.13-27,43.41-12,75.45-34.51V180s-17.59,15.78-75.18,34S559,242.88,522.78,240.57C522.78,240.57,426,248.16,178.41,180Z"/><polyline class="cls-2" points="178.41 246.13 188.62 183.81 192.95 247.97 200.12 187.04 206.97 247.97 211.6 190.11 219.66 247.97 224.25 193.17 231.27 247.97 236.17 196.47 241.77 247.97 247.4 199.33 254.47 247.97 258.89 202.38 264.11 247.97 270.69 204.89 276.58 247.97 282.64 207.72 287.97 247.97 294.27 210.45 298.91 247.97 306.29 212.89 309.86 247.97 317.37 215.89 323 247.97 329.44 218.21 334.46 247.97 341.73 221.49 346.64 247.97 352.63 223.46 358.46 247.97 364.24 225.48 370.06 247.97 375.68 227.39 381.01 247.97 387.44 229.26 393.49 247.97 398.84 230.99 404.22 247.97 410.64 232.69 415.16 247.97 421.39 234.13 426.11 247.97 433.17 235.61 436.18 247.97 444.08 237.07 448.21 247.97 455.31 238.68 461.03 247.97 466.99 239.59 472.71 247.97 477.75 240.51 483.71 247.97 488.98 241.65 494.5 246.92 499.74 241.88 506.15 247.97 511.42 242.11 523.1 247.97 534.51 242.11 540.74 247.97 545.09 241.88 551.27 247.97 555.82 242.07 561.13 247.97 566.56 241.38 572.57 247.97 577.31 240.8 583.9 247.97 588.29 240.11 593.72 247.97 598.8 239.53 604.23 247.97 609.32 238.26 614.63 247.97 620.29 237.22 624.46 247.97 630.35 235.84 634.97 247.97 640.98 235.26 646.52 247.97 651.15 233.99 657.39 247.97 661.66 232.48 666.28 247.97 672.18 230.87 676.22 247.97 682.3 230.04 686.27 247.97 692.4 227.63 697.14 247.97 702.68 225.78 706.26 247.97 712.39 224.05 716.78 247.97 722.59 222.57 727.18 247.97 732.63 219.85 736.31 247.97 741.68 217.36 747.28 247.97 752.3 214.54 756.41 247.97 761.39 211.33 767.16 247.97 771.65 207.98 776.75 247.97 781.16 204.06 786.11 247.97 790.54 199.88 796.51 247.97 799.4 195.62 803.9 247.97 808.41 190.65 814.77 247.97 817.31 186.11 822.83 247.97"/></svg>