<svg id="Layer_1" data-name="Layer 1" xmlns="http://www.w3.org/2000/svg" viewBox="0 0 460 460"><defs><style>.cls-1{fill:#5697fb;}.cls-2,.cls-6,.cls-7,.cls-8{fill:none;}.cls-2{stroke:#da0100;stroke-linecap:square;stroke-linejoin:bevel;stroke-width:0.4px;}.cls-3{fill:#c4e1fd;}.cls-4{fill:#fff;}.cls-5{fill:#ea6c6b;}.cls-6{stroke:#c4e1fd;stroke-width:0.6px;}.cls-6,.cls-7,.cls-8{stroke-miterlimit:10;}.cls-7,.cls-8{stroke:#ea6c6b;}.cls-7{stroke-width:0.5px;}</style></defs><title>london</title><path class="cls-1" d="M203.51,381.7a2.12,2.12,0,0,1-1.75-2.42q5.24-39,11.73-79.7t13.71-79.16a2.16,2.16,0,0,1,.85-1.37,2.1,2.1,0,0,1,1.57-.38h0a2.12,2.12,0,0,1,1.75,2.42c-2.31,25.31-5.58,52.19-10.12,80.43-4.47,27.81-9.69,54-15.32,78.43A2.4,2.4,0,0,1,203.51,381.7Z"/><path class="cls-1" d="M259.28,381.7a2.12,2.12,0,0,0,1.75-2.42q-5.24-39-11.73-79.7t-13.71-79.16a2.16,2.16,0,0,0-.85-1.37,2.1,2.1,0,0,0-1.57-.38h0a2.12,2.12,0,0,0-1.75,2.42c2.31,25.31,5.58,52.19,10.12,80.43,4.47,27.81,9.69,54,15.32,78.43A2.4,2.4,0,0,0,259.28,381.7Z"/><polygon class="cls-2" points="169.04 100.96 167.06 78.23 180.35 95.78 180.35 73.19 193.33 91.8 195.12 69.39 205.44 89.02 209.35 66.88 217.82 87.36 223.63 65.67 230.05 86.82 238.01 65.74 243.1 87.43 251.8 67.02 255.29 89.14 266 69.62 267.38 91.97 280.41 73.68 279.42 96 293.79 78.84 290.63 100.96 306.38 85.06 301.61 107.07 318.53 92.5 311.86 114.11 330.11 101.14 321.51 122.16 340.31 110.32 330.17 130.87 350.33 121.15 337.82 140.13 358.96 132.46 344.84 150.47 366.54 144.63 350.82 161.43 372.93 157.47 355.39 172.03 378.16 171.21 359.25 184.04 381.7 184.04 361.89 196.35 384.25 198.61 363.56 208.71 385.34 213.6 363.56 221.1 384.96 228.13 362.48 233.59 383.13 242.8 360.19 246.13 379.83 257.22 356.43 259.02 374.92 271.69 351.78 270.47 368.2 286.24 345.83 281.8 360.25 299.56 338.53 292.84 351.64 311.2 329.81 303.45 341.86 322.07 320.47 312.72 329.77 333.06 310.06 321.15 315.22 343.61 298.97 328.45 300.63 351.88 286.74 334.82 288.63 357.24 273.7 339.99 273.12 362.48 260.42 343.73 257.5 366.02 247.05 346.06 241.86 367.95 232.92 347.08 225.65 368.32 218.99 346.67 208.77 366.97 205.3 344.87 193.24 364.1 191.59 341.63 177.99 359.67 178.61 337.1 161.97 353.1 166.02 331.19 148.07 345.6 154.1 324.01 135.19 336.87 143.31 315.9 121.74 325.49 133.49 306.83 111.27 314.53 124.57 296.75 101.66 302.21 117.04 286.29 93.53 289.26 110.19 274.36 86.78 275.56 104.87 262.31 81.25 260.54 100.87 249.97 77.5 245.63 98.14 237.15 75.41 231.35 96.74 224.07 74.72 216.96 96.66 211.49 75.53 201.44 97.81 198.96 77.84 186.61 100.23 186.48 81.86 171.44 103.98 174.03 87.06 157.72 108.82 162.37 93.86 144.09 114.85 151.14 101.44 132.02 121.69 140.92 110.23 120.61 129.89 130.91 120.55 109.57 138.81 121.95 131.36 100.03 148.24 114.11 143.13 91.46 158.96 106.78 154.41 84.68 169.04 100.96"/><rect class="cls-3" x="112.75" y="380.14" width="236.24" height="26.6"/><rect class="cls-3" x="225.22" y="201" width="12.51" height="23.16" rx="4.13" ry="4.13"/><rect class="cls-4" x="387.3" y="216.11" width="1" height="6.07" transform="translate(-55.91 258.3) rotate(-34.51)"/><rect class="cls-4" x="386.85" y="223.69" width="1" height="6.07" transform="translate(486.54 -211) rotate(72.43)"/><circle class="cls-1" cx="392.83" cy="224.21" r="5.48"/><path class="cls-5" d="M398.07,222.72c0-.07,0-.13-.05-.2H387.64c0,.06,0,.13-.05.2Z"/><path class="cls-5" d="M387.64,225.89a5.45,5.45,0,0,0,10.38,0Z"/><path class="cls-5" d="M389.28,220l-.2.18q0,3.33,0,6.66h.17Q389.28,223.46,389.28,220Z"/><path class="cls-5" d="M392.93,218.73h-.2c0,.38,0,3.42,0,3.81s0,3.32,0,3.68h.17Q392.93,222.47,392.93,218.73Z"/><path class="cls-5" d="M396.44,220.09l.2.19q0,3.33,0,6.66h-.17Q396.44,223.51,396.44,220.09Z"/><rect class="cls-4" x="384.26" y="187.42" width="1" height="6.07" transform="translate(-9.93 359.36) rotate(-49.5)"/><rect class="cls-4" x="385.79" y="194.86" width="1" height="6.07" transform="translate(345.17 -234.18) rotate(57.44)"/><circle class="cls-1" cx="390.94" cy="194.04" r="5.48" transform="translate(-1.77 3.61) rotate(-0.53)"/><path class="cls-5" d="M396.16,192.5c0-.07,0-.13-.05-.2l-10.38.1c0,.06,0,.13,0,.2Z"/><path class="cls-5" d="M385.76,195.78a5.45,5.45,0,0,0,10.38-.1Z"/><path class="cls-5" d="M387.35,189.91l-.19.18.08,6.66h.17Q387.38,193.32,387.35,189.91Z"/><path class="cls-5" d="M391,188.56h-.2l0,3.81,0,3.68h.17Q391,192.3,391,188.56Z"/><path class="cls-5" d="M394.51,189.89l.2.18q0,3.33,0,6.66h-.17Q394.54,193.31,394.51,189.89Z"/><rect class="cls-4" x="376.87" y="158.68" width="1" height="6.07" transform="translate(32.38 384.3) rotate(-56.03)"/><rect class="cls-4" x="379.23" y="165.9" width="1" height="6.07" transform="translate(271.44 -232.32) rotate(50.91)"/><circle class="cls-1" cx="383.91" cy="164.58" r="5.48" transform="translate(-6.21 15.32) rotate(-2.27)"/><path class="cls-5" d="M389.09,162.88c0-.06,0-.13-.06-.2l-10.37.41c0,.07,0,.13,0,.2Z"/><path class="cls-5" d="M378.79,166.47a5.45,5.45,0,0,0,10.37-.41Z"/><path class="cls-5" d="M380.19,160.56l-.19.18.29,6.65h.17Z"/><path class="cls-5" d="M383.79,159.1h-.2l.16,3.8.16,3.68h.17Q383.94,162.84,383.79,159.1Z"/><path class="cls-5" d="M387.35,160.32l.21.18.24,6.65h-.17Z"/><rect class="cls-4" x="363.62" y="133.38" width="1" height="6.07" transform="translate(132.62 448.83) rotate(-74)"/><rect class="cls-4" x="368.09" y="139.52" width="1" height="6.07" transform="translate(136.77 -177.51) rotate(32.94)"/><circle class="cls-1" cx="371.22" cy="137.13" r="5.48" transform="translate(-1.75 4.82) rotate(-0.74)"/><path class="cls-5" d="M376.44,135.57c0-.07,0-.13-.05-.2L366,135.5c0,.06,0,.13,0,.2Z"/><path class="cls-5" d="M366.05,138.88a5.45,5.45,0,0,0,10.38-.13Z"/><path class="cls-5" d="M367.62,133l-.19.18.11,6.66h.17Z"/><path class="cls-5" d="M371.25,131.64h-.2l.06,3.81.06,3.68h.17Q371.3,135.39,371.25,131.64Z"/><path class="cls-5" d="M374.78,133l.2.18q0,3.33.06,6.66h-.17Z"/><rect class="cls-4" x="347.33" y="111.07" width="1" height="6.07" transform="translate(194.53 446.53) rotate(-83.4)"/><rect class="cls-4" x="352.75" y="116.39" width="1" height="6.07" transform="translate(77.08 -131.13) rotate(23.54)"/><circle class="cls-1" cx="354.96" cy="113.64" r="5.48"/><path class="cls-5" d="M360.2,112.15c0-.07,0-.13-.05-.2H349.77c0,.06,0,.13-.05.2Z"/><path class="cls-5" d="M349.77,115.33a5.45,5.45,0,0,0,10.38,0Z"/><path class="cls-5" d="M351.4,109.47l-.2.18q0,3.33,0,6.66h.17Q351.41,112.89,351.4,109.47Z"/><path class="cls-5" d="M355.05,108.16h-.2c0,.38,0,3.42,0,3.81s0,3.32,0,3.68h.17Q355.06,111.9,355.05,108.16Z"/><path class="cls-5" d="M358.56,109.52l.2.19q0,3.33,0,6.66h-.17Q358.57,112.94,358.56,109.52Z"/><rect class="cls-4" x="326.87" y="92.85" width="1" height="6.07" transform="translate(263.24 430.93) rotate(-95.49)"/><rect class="cls-4" x="333.28" y="96.92" width="1" height="6.07" transform="translate(26.49 -64.28) rotate(11.45)"/><circle class="cls-1" cx="334.24" cy="93.94" r="5.48" transform="translate(234.19 426.41) rotate(-88.95)"/><path class="cls-5" d="M339.51,92.55c0-.07,0-.13,0-.2l-10.38-.19c0,.06,0,.13-.05.2Z"/><path class="cls-5" d="M329,95.53a5.45,5.45,0,0,0,10.38.19Z"/><path class="cls-5" d="M330.76,89.71l-.2.17-.1,6.66h.17Z"/><path class="cls-5" d="M334.44,88.46h-.2l-.06,3.81-.06,3.68h.17Q334.37,92.2,334.44,88.46Z"/><path class="cls-5" d="M337.92,89.89l.2.19L338,96.73h-.17Z"/><rect class="cls-4" x="297.7" y="76.04" width="1" height="6.07" transform="translate(285.94 387.34) rotate(-102.58)"/><rect class="cls-4" x="304.56" y="79.29" width="1" height="6.07" transform="translate(7.15 -22.98) rotate(4.37)"/><circle class="cls-1" cx="304.77" cy="76.3" r="5.48" transform="translate(223.14 379.69) rotate(-89)"/><path class="cls-5" d="M310,74.9c0-.07,0-.13,0-.2l-10.38-.18c0,.06,0,.13-.05.2Z"/><path class="cls-5" d="M299.55,77.89a5.45,5.45,0,0,0,10.38.18Z"/><path class="cls-5" d="M301.29,72.07l-.2.17L301,78.9h.17Z"/><path class="cls-5" d="M305,70.82h-.2l-.06,3.81-.05,3.68h.17Q304.9,74.56,305,70.82Z"/><path class="cls-5" d="M308.45,72.24l.2.19-.14,6.66h-.17Z"/><rect class="cls-4" x="271.32" y="66.07" width="1" height="6.07" transform="translate(316.51 345.99) rotate(-113.43)"/><rect class="cls-4" x="278.67" y="67.97" width="1" height="6.07" transform="translate(-6.24 32.02) rotate(-6.49)"/><circle class="cls-1" cx="277.76" cy="65.14" r="5.48" transform="translate(-0.78 3.41) rotate(-0.7)"/><path class="cls-5" d="M283,63.58c0-.07,0-.13-.05-.2l-10.38.13c0,.06,0,.13,0,.2Z"/><path class="cls-5" d="M272.59,66.89A5.45,5.45,0,0,0,283,66.76Z"/><path class="cls-5" d="M274.15,61l-.19.18.1,6.66h.17Z"/><path class="cls-5" d="M277.79,59.66h-.2l.06,3.81.06,3.68h.17Q277.83,63.4,277.79,59.66Z"/><path class="cls-5" d="M281.31,61l.2.18q0,3.33.06,6.66h-.17Z"/><rect class="cls-4" x="241.07" y="60.78" width="1" height="6.07" transform="translate(327.54 298.42) rotate(-124.92)"/><rect class="cls-4" x="248.66" y="61.18" width="1" height="6.07" transform="translate(-7.65 80.05) rotate(-17.98)"/><circle class="cls-1" cx="246.6" cy="58.75" r="5.48" transform="matrix(1, -0.01, 0.01, 1, -0.4, 1.7)"/><path class="cls-5" d="M251.83,57.22c0-.07,0-.13-.05-.2l-10.38.07c0,.06,0,.13,0,.2Z"/><path class="cls-5" d="M241.42,60.47a5.45,5.45,0,0,0,10.38-.07Z"/><path class="cls-5" d="M243,54.6l-.19.18q0,3.33.07,6.66h.17Q243,58,243,54.6Z"/><path class="cls-5" d="M246.66,53.26h-.2l0,3.81,0,3.68h.17Q246.69,57,246.66,53.26Z"/><path class="cls-5" d="M250.18,54.6l.2.19q0,3.33,0,6.66h-.17Q250.21,58,250.18,54.6Z"/><rect class="cls-4" x="211.29" y="61.84" width="1" height="6.07" transform="translate(324.33 255.65) rotate(-137.57)"/><rect class="cls-4" x="218.77" y="60.56" width="1" height="6.07" transform="matrix(0.86, -0.51, 0.51, 0.86, -1.81, 120.58)"/><circle class="cls-1" cx="215.58" cy="58.83" r="5.48" transform="translate(-0.34 1.27) rotate(-0.34)"/><path class="cls-5" d="M220.81,57.3c0-.07,0-.13-.05-.2l-10.38.06c0,.06,0,.13-.05.2Z"/><path class="cls-5" d="M210.4,60.54a5.45,5.45,0,0,0,10.38-.06Z"/><path class="cls-5" d="M212,54.68l-.19.18q0,3.33.06,6.66H212Q212,58.09,212,54.68Z"/><path class="cls-5" d="M215.65,53.34h-.2l0,3.81,0,3.68h.17Q215.67,57.09,215.65,53.34Z"/><path class="cls-5" d="M219.17,54.68l.2.19q0,3.33,0,6.66h-.17Q219.19,58.1,219.17,54.68Z"/><rect class="cls-4" x="182.57" y="67.86" width="1" height="6.07" transform="translate(312 218.93) rotate(-152.22)"/><rect class="cls-4" x="189.49" y="64.73" width="1" height="6.07" transform="translate(8.16 155.09) rotate(-45.28)"/><circle class="cls-1" cx="185.21" cy="64.08" r="5.48" transform="translate(-2.66 8.27) rotate(-2.54)"/><path class="cls-5" d="M190.38,62.36c0-.06,0-.13-.06-.2L180,62.62c0,.07,0,.13,0,.2Z"/><path class="cls-5" d="M180.1,66a5.45,5.45,0,0,0,10.37-.46Z"/><path class="cls-5" d="M181.48,60.07l-.19.19.32,6.65h.17Z"/><path class="cls-5" d="M185.07,58.6h-.2l.18,3.8.17,3.68h.17Q185.23,62.34,185.07,58.6Z"/><path class="cls-5" d="M188.63,59.8l.21.18.27,6.65h-.17Z"/><rect class="cls-4" x="154.14" y="79.46" width="1" height="6.07" transform="translate(271.41 213.19) rotate(-159.85)"/><rect class="cls-4" x="160.58" y="75.44" width="1" height="6.07" transform="translate(1.35 159.65) rotate(-52.91)"/><circle class="cls-1" cx="155.86" cy="75.46" r="5.48"/><path class="cls-5" d="M161.1,74c0-.07,0-.13-.05-.2H150.67c0,.06,0,.13-.05.2Z"/><path class="cls-5" d="M150.67,77.14a5.45,5.45,0,0,0,10.38,0Z"/><path class="cls-5" d="M152.31,71.29l-.2.18q0,3.33,0,6.66h.17Q152.31,74.71,152.31,71.29Z"/><path class="cls-5" d="M156,70h-.2c0,.38,0,3.42,0,3.81s0,3.32,0,3.68H156Q156,73.72,156,70Z"/><path class="cls-5" d="M159.47,71.33l.2.19q0,3.33,0,6.66h-.17Q159.47,74.75,159.47,71.33Z"/><rect class="cls-4" x="129.29" y="95.9" width="1" height="6.07" transform="translate(236.4 222.49) rotate(-168.11)"/><rect class="cls-4" x="135.09" y="91" width="1" height="6.07" transform="translate(-12.18 167.47) rotate(-61.17)"/><circle class="cls-1" cx="129.98" cy="91.8" r="5.48" transform="translate(32.16 217.32) rotate(-87.3)"/><path class="cls-5" d="M135.29,90.56c0-.07,0-.14,0-.2l-10.37-.49c0,.06,0,.13-.06.2Z"/><path class="cls-5" d="M124.72,93.24a5.45,5.45,0,0,0,10.37.49Z"/><path class="cls-5" d="M126.63,87.47l-.2.17-.29,6.65h.17Z"/><path class="cls-5" d="M130.34,86.33h-.2l-.17,3.8-.16,3.68H130Z"/><path class="cls-5" d="M133.78,87.85l.19.2-.34,6.65h-.17Z"/><rect class="cls-4" x="108.89" y="116.2" width="1" height="6.07" transform="translate(223.46 233.98) rotate(177.71)"/><rect class="cls-4" x="113.31" y="110.02" width="1" height="6.07" transform="translate(-24.35 194.58) rotate(-75.35)"/><circle class="cls-1" cx="107.83" cy="112.26" r="5.48" transform="translate(-10.04 213.94) rotate(-86.94)"/><path class="cls-5" d="M113.14,111.05c0-.07,0-.14,0-.2l-10.36-.55c0,.06,0,.13-.06.2Z"/><path class="cls-5" d="M102.55,113.67a5.45,5.45,0,0,0,10.37.55Z"/><path class="cls-5" d="M104.5,107.91l-.2.17-.33,6.65h.17Z"/><path class="cls-5" d="M108.22,106.79H108l-.19,3.8-.19,3.67h.17Z"/><path class="cls-5" d="M111.65,108.34l.19.2-.38,6.65h-.17Z"/><rect class="cls-4" x="91.77" y="139.22" width="1" height="6.07" transform="matrix(-0.99, 0.15, -0.15, -0.99, 204.82, 269.07)"/><rect class="cls-4" x="95.49" y="132.59" width="1" height="6.07" transform="translate(-52.11 210.97) rotate(-81.68)"/><circle class="cls-1" cx="89.96" cy="135.5" r="5.48" transform="translate(-1.53 1.03) rotate(-0.65)"/><path class="cls-5" d="M95.18,133.95c0-.07,0-.13-.05-.2l-10.38.12c0,.06,0,.13,0,.2Z"/><path class="cls-5" d="M84.79,137.24a5.45,5.45,0,0,0,10.38-.12Z"/><path class="cls-5" d="M86.36,131.37l-.19.18.1,6.66h.17Z"/><path class="cls-5" d="M90,130h-.2l.05,3.81.05,3.68h.17Q90,133.76,90,130Z"/><path class="cls-5" d="M93.52,131.33l.2.18q0,3.33.05,6.66H93.6Z"/><rect class="cls-4" x="80.39" y="167.41" width="1" height="6.07" transform="translate(235.87 278.04) rotate(150.16)"/><rect class="cls-4" x="81.46" y="159.89" width="1" height="6.07" transform="translate(-58.56 279.19) rotate(-102.9)"/><circle class="cls-1" cx="76.29" cy="164.99" r="5.48" transform="translate(-0.17 0.08) rotate(-0.06)"/><path class="cls-5" d="M81.53,163.49c0-.07,0-.13-.05-.2H71.1c0,.06,0,.13-.05.2Z"/><path class="cls-5" d="M71.1,166.68a5.45,5.45,0,0,0,10.38,0Z"/><path class="cls-5" d="M72.73,160.82l-.2.18q0,3.33,0,6.66h.17Q72.74,164.24,72.73,160.82Z"/><path class="cls-5" d="M76.38,159.5h-.2V167h.17Q76.39,163.25,76.38,159.5Z"/><path class="cls-5" d="M79.89,160.86l.2.19q0,3.33,0,6.66h-.17Q79.9,164.28,79.89,160.86Z"/><rect class="cls-4" x="72.65" y="198.18" width="1" height="6.07" transform="translate(228.39 348.66) rotate(153.51)"/><rect class="cls-4" x="74.16" y="190.74" width="1" height="6.07" transform="translate(-104.04 299.55) rotate(-99.55)"/><circle class="cls-1" cx="68.88" cy="195.5" r="5.48" transform="translate(-11.09 4.27) rotate(-3.29)"/><path class="cls-5" d="M74,193.71c0-.06,0-.13-.06-.2l-10.36.6c0,.07,0,.13,0,.2Z"/><path class="cls-5" d="M63.79,197.48a5.45,5.45,0,0,0,10.37-.6Z"/><path class="cls-5" d="M65.09,191.54l-.18.19.4,6.65h.17Z"/><path class="cls-5" d="M68.66,190h-.2l.23,3.8.22,3.67h.17Z"/><path class="cls-5" d="M72.24,191.18l.21.17.36,6.65h-.17Z"/><rect class="cls-4" x="72.33" y="228.99" width="1" height="6.07" transform="translate(282.64 355) rotate(137.81)"/><rect class="cls-4" x="71.77" y="221.42" width="1" height="6.07" transform="translate(-99.9 385.57) rotate(-115.25)"/><circle class="cls-1" cx="67.17" cy="227.68" r="5.48" transform="translate(-0.32 0.09) rotate(-0.08)"/><path class="cls-5" d="M72.41,226.18c0-.07,0-.13-.05-.2H62c0,.06,0,.13-.05.2Z"/><path class="cls-5" d="M62,229.37a5.45,5.45,0,0,0,10.38,0Z"/><path class="cls-5" d="M63.61,223.51l-.2.18q0,3.33,0,6.66h.17Q63.62,226.93,63.61,223.51Z"/><path class="cls-5" d="M67.26,222.2h-.2l0,3.81,0,3.68h.17Q67.27,225.94,67.26,222.2Z"/><path class="cls-5" d="M70.77,223.55l.2.19q0,3.33,0,6.66h-.17Q70.78,227,70.77,223.55Z"/><rect class="cls-4" x="79.1" y="258.78" width="1" height="6.07" transform="translate(335.56 358.59) rotate(127.62)"/><rect class="cls-4" x="77.21" y="251.42" width="1" height="6.07" transform="translate(-84.56 465.3) rotate(-125.44)"/><circle class="cls-1" cx="73.26" cy="258.53" r="5.48" transform="translate(-24.49 8.23) rotate(-5.51)"/><path class="cls-5" d="M78.33,256.55c0-.06,0-.13-.07-.19l-10.33,1c0,.07,0,.14,0,.2Z"/><path class="cls-5" d="M68.25,260.71a5.45,5.45,0,0,0,10.33-1Z"/><path class="cls-5" d="M69.32,254.72l-.18.19.66,6.63.17,0Z"/><path class="cls-5" d="M72.83,253.07l-.19,0,.38,3.79.36,3.66.17,0Z"/><path class="cls-5" d="M76.46,254.08l.22.17.62,6.63-.17,0Z"/><rect class="cls-4" x="89.82" y="286.24" width="1" height="6.07" transform="translate(388.44 343.71) rotate(117.69)"/><rect class="cls-4" x="86.68" y="279.33" width="1" height="6.07" transform="translate(-49.13 544.56) rotate(-135.37)"/><circle class="cls-1" cx="83.51" cy="287.14" r="5.48" transform="matrix(0.99, -0.16, 0.16, 0.99, -44.47, 16.87)"/><path class="cls-5" d="M88.45,284.84c0-.06-.05-.13-.08-.19L78.12,286.3c0,.07,0,.14,0,.2Z"/><path class="cls-5" d="M78.65,289.63A5.45,5.45,0,0,0,88.9,288Z"/><path class="cls-5" d="M79.34,283.59l-.16.21,1.08,6.57.17,0Z"/><path class="cls-5" d="M82.74,281.72l-.19,0,.61,3.76.59,3.63.17,0Z"/><path class="cls-5" d="M86.42,282.5l.23.15,1,6.58-.17,0Z"/><rect class="cls-4" x="108.51" y="312.28" width="1" height="6.07" transform="translate(434.13 240.49) rotate(96.11)"/><rect class="cls-4" x="103.04" y="307" width="1" height="6.07" transform="matrix(-0.92, -0.39, 0.39, -0.92, 77.42, 635.85)"/><circle class="cls-1" cx="101.89" cy="315.83" r="5.48" transform="translate(-4.28 1.41) rotate(-0.78)"/><path class="cls-5" d="M107.11,314.27c0-.06,0-.13-.05-.2l-10.38.14c0,.06,0,.13,0,.2Z"/><path class="cls-5" d="M96.72,317.59a5.45,5.45,0,0,0,10.38-.14Z"/><path class="cls-5" d="M98.28,311.71l-.19.18.11,6.66h.17Z"/><path class="cls-5" d="M101.91,310.35h-.2l.06,3.81.06,3.68H102Q102,314.09,101.91,310.35Z"/><path class="cls-5" d="M105.44,311.66l.2.18q0,3.33.07,6.66h-.17Z"/><rect class="cls-4" x="131.92" y="333.53" width="1" height="6.07" transform="translate(457.57 178.18) rotate(85.5)"/><rect class="cls-4" x="125.58" y="329.35" width="1" height="6.07" transform="translate(177.57 684.13) rotate(-167.55)"/><circle class="cls-1" cx="125.52" cy="338.39" r="5.48" transform="translate(-22.06 9.02) rotate(-3.78)"/><path class="cls-5" d="M130.65,336.56c0-.06,0-.13-.06-.19l-10.36.68c0,.07,0,.14,0,.2Z"/><path class="cls-5" d="M120.45,340.41a5.45,5.45,0,0,0,10.36-.69Z"/><path class="cls-5" d="M121.7,334.46l-.18.19.46,6.64h.17Z"/><path class="cls-5" d="M125.25,332.91h-.19l.26,3.8.25,3.67h.17Z"/><path class="cls-5" d="M128.85,334l.21.17.42,6.65h-.17Z"/><rect class="cls-4" x="157.21" y="349.55" width="1" height="6.07" transform="translate(438.48 87.35) rotate(70.73)"/><rect class="cls-4" x="150.01" y="347.12" width="1" height="6.07" transform="translate(315.14 693.91) rotate(177.67)"/><circle class="cls-1" cx="151.5" cy="356.11" r="5.48" transform="translate(-62.77 33.85) rotate(-10.57)"/><path class="cls-5" d="M156.38,353.68l-.09-.19-10.2,1.9c0,.07,0,.14,0,.2Z"/><path class="cls-5" d="M146.7,358.72a5.45,5.45,0,0,0,10.21-1.91Z"/><path class="cls-5" d="M147.24,352.66l-.16.21,1.24,6.54.17,0Z"/><path class="cls-5" d="M150.59,350.7l-.19,0,.71,3.74.69,3.61.17,0Z"/><path class="cls-5" d="M154.29,351.4l.23.15,1.2,6.55-.17,0Z"/><rect class="cls-4" x="187.52" y="361.69" width="1" height="6.07" transform="translate(395.15 10.51) rotate(57.59)"/><rect class="cls-4" x="179.96" y="360.96" width="1" height="6.07" transform="translate(451.47 666.66) rotate(164.53)"/><circle class="cls-1" cx="182.77" cy="369.56" r="5.48" transform="translate(-62.99 38.53) rotate(-10.28)"/><path class="cls-5" d="M187.66,367.16l-.09-.19-10.21,1.85c0,.07,0,.14,0,.2Z"/><path class="cls-5" d="M178,372.15a5.45,5.45,0,0,0,10.22-1.85Z"/><path class="cls-5" d="M178.54,366.09l-.16.21,1.21,6.55.17,0Z"/><path class="cls-5" d="M181.89,364.15l-.19,0,.69,3.74.67,3.62.17,0Z"/><path class="cls-5" d="M185.59,364.86l.23.15,1.17,6.56-.17,0Z"/><rect class="cls-4" x="219.93" y="367.38" width="1" height="6.07" transform="translate(397.86 -22.41) rotate(55.06)"/><rect class="cls-4" x="212.35" y="366.98" width="1" height="6.07" transform="matrix(-0.95, 0.31, -0.31, -0.95, 529.59, 656.18)"/><circle class="cls-1" cx="215.4" cy="375.48" r="5.48" transform="translate(-43.68 28.7) rotate(-6.92)"/><path class="cls-5" d="M220.43,373.37c0-.06,0-.13-.07-.19L210,374.43c0,.07,0,.14,0,.2Z"/><path class="cls-5" d="M210.45,377.78a5.45,5.45,0,0,0,10.31-1.25Z"/><path class="cls-5" d="M211.38,371.77l-.17.2.82,6.61.17,0Z"/><path class="cls-5" d="M214.84,370l-.19,0,.47,3.78.45,3.65.17,0Z"/><path class="cls-5" d="M218.49,371l.22.16.78,6.61-.17,0Z"/><rect class="cls-4" x="253" y="365.39" width="1" height="6.07" transform="translate(243.79 -78.68) rotate(33.29)"/><rect class="cls-4" x="245.81" y="367.84" width="1" height="6.07" transform="translate(672.89 498.34) rotate(140.23)"/><circle class="cls-1" cx="250.71" cy="375" r="5.48" transform="translate(-46.34 35.53) rotate(-7.42)"/><path class="cls-5" d="M255.72,372.84c0-.06,0-.13-.08-.19L245.35,374c0,.07,0,.14,0,.2Z"/><path class="cls-5" d="M245.78,377.34a5.45,5.45,0,0,0,10.3-1.34Z"/><path class="cls-5" d="M246.65,371.32l-.17.2.88,6.6.17,0Z"/><path class="cls-5" d="M250.1,369.55l-.19,0,.5,3.77.49,3.65.17,0Z"/><path class="cls-5" d="M253.76,370.45l.22.16.84,6.61-.17,0Z"/><rect class="cls-4" x="283.39" y="358.07" width="1" height="6.07" transform="translate(195.61 -89.67) rotate(27.09)"/><rect class="cls-4" x="276.5" y="361.28" width="1" height="6.07" transform="translate(731.46 418.4) rotate(134.03)"/><circle class="cls-1" cx="281.82" cy="367.94" r="5.48" transform="translate(-34.19 28.91) rotate(-5.54)"/><path class="cls-5" d="M286.9,366c0-.06,0-.13-.07-.19l-10.33,1c0,.07,0,.14,0,.2Z"/><path class="cls-5" d="M276.82,370.12a5.45,5.45,0,0,0,10.33-1Z"/><path class="cls-5" d="M277.89,364.13l-.18.19.66,6.63.17,0Z"/><path class="cls-5" d="M281.39,362.48l-.19,0,.38,3.79.37,3.66.17,0Z"/><path class="cls-5" d="M285,363.49l.22.17.62,6.63-.17,0Z"/><rect class="cls-4" x="310.44" y="344.67" width="1" height="6.07" transform="translate(74.22 -54.23) rotate(11.31)"/><rect class="cls-4" x="304.69" y="349.63" width="1" height="6.07" transform="translate(760.3 250.74) rotate(118.25)"/><circle class="cls-1" cx="310.82" cy="354.84" r="5.48" transform="translate(-12.93 11.76) rotate(-2.12)"/><path class="cls-5" d="M316,353.15c0-.06,0-.13-.06-.2l-10.37.38c0,.07,0,.13,0,.2Z"/><path class="cls-5" d="M305.69,356.71a5.45,5.45,0,0,0,10.38-.38Z"/><path class="cls-5" d="M307.12,350.8l-.19.18.27,6.65h.17Z"/><path class="cls-5" d="M310.71,349.36h-.2l.15,3.8.15,3.68H311Q310.85,353.1,310.71,349.36Z"/><path class="cls-5" d="M314.27,350.58l.21.18.22,6.66h-.17Z"/><rect class="cls-4" x="337.81" y="324.83" width="1" height="6.07" transform="matrix(1, 0.07, -0.07, 1, 23.71, -22.81)"/><rect class="cls-4" x="332.74" y="330.48" width="1" height="6.07" transform="translate(763.83 141.5) rotate(110.94)"/><circle class="cls-1" cx="339.09" cy="334.96" r="5.48" transform="translate(-65.2 82.51) rotate(-12.67)"/><path class="cls-5" d="M343.88,332.35l-.09-.18-10.13,2.28c0,.07,0,.14,0,.2Z"/><path class="cls-5" d="M334.4,337.74a5.45,5.45,0,0,0,10.13-2.28Z"/><path class="cls-5" d="M334.71,331.67l-.15.22,1.48,6.49.17,0Z"/><path class="cls-5" d="M338,329.59l-.19,0,.84,3.71.82,3.59.17,0Z"/><path class="cls-5" d="M341.71,330.14l.24.14,1.44,6.5-.17,0Z"/><rect class="cls-4" x="358.95" y="301.22" width="1" height="6.07" transform="translate(-60.55 91.25) rotate(-13.35)"/><rect class="cls-4" x="355.79" y="308.12" width="1" height="6.07" transform="translate(689.13 -24.97) rotate(93.59)"/><circle class="cls-1" cx="362.31" cy="310.79" r="5.48" transform="translate(-18.98 23.6) rotate(-3.64)"/><path class="cls-5" d="M367.45,309c0-.06,0-.13-.06-.19l-10.36.66c0,.07,0,.13,0,.2Z"/><path class="cls-5" d="M357.24,312.8a5.45,5.45,0,0,0,10.36-.66Z"/><path class="cls-5" d="M358.5,306.85l-.18.19.44,6.64h.17Z"/><path class="cls-5" d="M362.06,305.31h-.2l.25,3.8.24,3.67h.17Z"/><path class="cls-5" d="M365.65,306.45l.21.17.4,6.65h-.17Z"/><line class="cls-6" x1="96.66" y1="211.49" x2="363.56" y2="212.58"/><rect class="cls-4" x="372.83" y="275.4" width="1" height="6.07" transform="translate(-81.06 176.28) rotate(-24.05)"/><rect class="cls-4" x="371.01" y="282.78" width="1" height="6.07" transform="translate(609.17 -118.19) rotate(82.9)"/><circle class="cls-1" cx="377.35" cy="284.33" r="5.48" transform="translate(29.19 603.74) rotate(-79.53)"/><path class="cls-5" d="M382.78,283.82c0-.07,0-.14,0-.2l-10.21-1.89-.09.19Z"/><path class="cls-5" d="M371.94,285a5.45,5.45,0,0,0,10.21,1.89Z"/><path class="cls-5" d="M374.62,279.58l-.22.14-1.19,6.55.17,0Z"/><path class="cls-5" d="M378.45,279l-.19,0-.68,3.74-.66,3.62.17,0Z"/><path class="cls-5" d="M381.65,280.93l.16.22-1.23,6.54-.17,0Z"/><rect class="cls-4" x="383.66" y="246.14" width="1" height="6.07" transform="translate(-73.72 245.12) rotate(-32.46)"/><rect class="cls-4" x="382.94" y="253.7" width="1" height="6.07" transform="matrix(0.27, 0.96, -0.96, 0.27, 528.21, -181.42)"/><circle class="cls-1" cx="389.01" cy="254.42" r="5.48" transform="translate(120.82 634.06) rotate(-87.95)"/><path class="cls-5" d="M394.3,253.11c0-.07,0-.13,0-.2l-10.37-.37c0,.06,0,.13-.06.2Z"/><path class="cls-5" d="M383.76,255.91a5.45,5.45,0,0,0,10.38.37Z"/><path class="cls-5" d="M385.61,250.12l-.2.17-.22,6.66h.17Z"/><path class="cls-5" d="M389.3,248.94h-.2l-.13,3.8-.12,3.68H389Q389.17,252.68,389.3,248.94Z"/><path class="cls-5" d="M392.76,250.43l.19.19-.26,6.65h-.17Z"/><ellipse class="cls-7" cx="230.05" cy="216.96" rx="133.51" ry="130.14"/><ellipse class="cls-8" cx="230.05" cy="216.96" rx="155.33" ry="151.42"/><line class="cls-6" x1="231.47" y1="87.44" x2="231.47" y2="346.55"/><line class="cls-6" x1="118.08" y1="146.07" x2="347.34" y2="279.69"/><line class="cls-6" x1="294.45" y1="102.66" x2="163.35" y2="329.73"/><line class="cls-6" x1="102.95" y1="176.61" x2="360.03" y2="247.15"/><line class="cls-6" x1="264" y1="91.11" x2="196.15" y2="342.43"/><line class="cls-6" x1="140.05" y1="120.46" x2="325.8" y2="307.74"/><line class="cls-6" x1="166.9" y1="102.53" x2="299.4" y2="328.38"/><line class="cls-6" x1="197.89" y1="90.76" x2="267.41" y2="343.17"/><line class="cls-6" x1="321.43" y1="122.07" x2="135.33" y2="308.17"/><line class="cls-6" x1="343.11" y1="147.72" x2="114.09" y2="281.5"/><line class="cls-6" x1="357.51" y1="178.13" x2="100.25" y2="248.45"/></svg>