<svg id="Layer_1" data-name="Layer 1" xmlns="http://www.w3.org/2000/svg" viewBox="0 0 460 460"><defs><style>.cls-1{fill:#da0100;}.cls-2{fill:#213b5c;}.cls-3,.cls-5{fill:none;stroke:#da0100;stroke-miterlimit:10;}.cls-4{fill:#5697fb;}.cls-5{stroke-width:0.5px;}.cls-6{fill:#405673;}</style></defs><title>london</title><path class="cls-1" d="M193,264.29V282c0-6.5,17.29-11.77,37-11.77s37,5.27,37,11.77V264.29Z"/><rect class="cls-1" x="186.14" y="213.08" width="87.74" height="8.33"/><polygon class="cls-2" points="174.77 178 181.67 209.11 167.86 209.11 174.77 178"/><rect class="cls-1" x="163.4" y="198.9" width="6.12" height="8.64"/><rect class="cls-1" x="165.63" y="204.68" width="18.28" height="2.87"/><rect class="cls-1" x="180.02" y="198.9" width="6.12" height="8.64"/><polygon class="cls-2" points="166.46 185.13 169.51 198.9 163.4 198.9 166.46 185.13"/><polygon class="cls-2" points="183.08 185.13 186.14 198.9 180.02 198.9 183.08 185.13"/><path class="cls-1" d="M171.67,205.12v-3.71c.41-1,1-2.31,1.51-4,1.08-3.19,1.32-4.86,1.56-4.84s.44,2.45,0,12.52Z"/><path class="cls-1" d="M177.86,205.12v-3.71c-.41-1-1-2.31-1.51-4-1.08-3.2-1.32-4.86-1.56-4.84s-.48,2.44-.14,12.52Z"/><polygon class="cls-2" points="18.41 219.46 24.86 242.95 11.97 242.95 18.41 219.46"/><rect class="cls-1" x="7.8" y="235.25" width="5.71" height="6.53"/><rect class="cls-1" x="9.89" y="239.61" width="17.05" height="2.16"/><rect class="cls-1" x="23.31" y="235.25" width="5.71" height="6.53"/><polygon class="cls-2" points="10.66 224.85 13.51 235.25 7.8 235.25 10.66 224.85"/><polygon class="cls-2" points="26.17 224.85 29.02 235.25 23.31 235.25 26.17 224.85"/><path class="cls-1" d="M15.52,239.94v-2.8c.38-.72.89-1.75,1.41-3,1-2.41,1.24-3.67,1.45-3.66s.41,1.85,0,9.45Z"/><path class="cls-1" d="M21.3,239.94v-2.8c-.38-.72-.89-1.75-1.41-3-1-2.41-1.23-3.67-1.45-3.66s-.45,1.84-.13,9.45Z"/><polygon class="cls-2" points="441.59 219.46 448.03 242.95 435.14 242.95 441.59 219.46"/><rect class="cls-1" x="430.98" y="235.25" width="5.71" height="6.53"/><rect class="cls-1" x="446.49" y="235.25" width="5.71" height="6.53"/><polygon class="cls-2" points="433.83 224.85 436.69 235.25 430.98 235.25 433.83 224.85"/><polygon class="cls-2" points="449.34 224.85 452.2 235.25 446.49 235.25 449.34 224.85"/><path class="cls-1" d="M438.7,239.94v-2.8c.38-.72.89-1.75,1.41-3,1-2.41,1.24-3.67,1.45-3.66s.41,1.85,0,9.45Z"/><path class="cls-1" d="M444.48,239.94v-2.8c-.38-.72-.89-1.75-1.41-3-1-2.41-1.23-3.67-1.45-3.66s-.45,1.84-.13,9.45Z"/><polygon class="cls-2" points="285.25 178 292.16 209.11 278.35 209.11 285.25 178"/><rect class="cls-1" x="273.88" y="198.9" width="6.12" height="8.64"/><rect class="cls-1" x="276.11" y="204.68" width="18.28" height="2.87"/><rect class="cls-1" x="290.51" y="198.9" width="6.12" height="8.64"/><polygon class="cls-2" points="276.94 185.13 280 198.9 273.88 198.9 276.94 185.13"/><polygon class="cls-2" points="293.57 185.13 296.62 198.9 290.51 198.9 293.57 185.13"/><path class="cls-1" d="M282.16,205.12v-3.71c.41-1,1-2.31,1.51-4,1.08-3.19,1.32-4.86,1.56-4.84s.44,2.45,0,12.52Z"/><path class="cls-1" d="M288.35,205.12v-3.71c-.41-1-1-2.31-1.51-4-1.08-3.2-1.32-4.86-1.56-4.84s-.48,2.44-.14,12.52Z"/><path class="cls-3" d="M28.16,252.6a120.08,120.08,0,0,0,68,6.82c39.25-7.65,62.12-32.88,68.7-40.72"/><line class="cls-3" x1="28.57" y1="272.89" x2="158.82" y2="272.89"/><rect class="cls-4" x="7.8" y="241.49" width="21.22" height="40.51"/><line class="cls-5" x1="32.22" y1="253.77" x2="32.22" y2="272.18"/><line class="cls-5" x1="39.89" y1="256.84" x2="39.89" y2="272.18"/><line class="cls-5" x1="49.73" y1="259.13" x2="49.73" y2="272.18"/><line class="cls-5" x1="58.93" y1="260.21" x2="58.93" y2="272.18"/><line class="cls-5" x1="68.14" y1="262.05" x2="68.14" y2="272.18"/><line class="cls-5" x1="77.35" y1="262.05" x2="77.35" y2="272.18"/><line class="cls-5" x1="86.55" y1="262.05" x2="86.55" y2="272.18"/><line class="cls-5" x1="95.76" y1="260.21" x2="95.76" y2="272.18"/><line class="cls-5" x1="104.97" y1="257.33" x2="104.97" y2="272.18"/><line class="cls-5" x1="114.18" y1="254.3" x2="114.18" y2="272.18"/><line class="cls-5" x1="123.38" y1="250.52" x2="123.38" y2="272.18"/><line class="cls-5" x1="132.59" y1="246.37" x2="132.59" y2="272.18"/><line class="cls-5" x1="141.8" y1="240.46" x2="141.8" y2="272.18"/><line class="cls-5" x1="151" y1="232.63" x2="151" y2="272.18"/><line class="cls-5" x1="160.21" y1="223.88" x2="160.21" y2="272.18"/><rect class="cls-4" x="163.4" y="207.54" width="22.74" height="56.74"/><path class="cls-3" d="M432.58,252.29A122.05,122.05,0,0,1,364.32,259c-39.42-7.58-62.38-32.59-69-40.35"/><line class="cls-3" x1="431.64" y1="273.22" x2="301.36" y2="273.22"/><rect class="cls-4" x="430.98" y="241.28" width="21.22" height="40.72" transform="translate(883.18 523.29) rotate(180)"/><line class="cls-5" x1="429.26" y1="253.45" x2="429.26" y2="271.7"/><line class="cls-5" x1="420.02" y1="256.49" x2="420.02" y2="271.7"/><line class="cls-5" x1="410.77" y1="259.53" x2="410.77" y2="271.7"/><line class="cls-5" x1="401.52" y1="259.53" x2="401.52" y2="271.7"/><line class="cls-5" x1="392.28" y1="262.57" x2="392.28" y2="271.7"/><line class="cls-5" x1="383.03" y1="262.57" x2="383.03" y2="271.7"/><line class="cls-5" x1="373.79" y1="262.57" x2="373.79" y2="271.7"/><line class="cls-5" x1="364.54" y1="259.53" x2="364.54" y2="271.7"/><line class="cls-5" x1="355.3" y1="256.49" x2="355.3" y2="271.7"/><line class="cls-5" x1="346.05" y1="253.45" x2="346.05" y2="271.7"/><line class="cls-5" x1="336.8" y1="250.41" x2="336.8" y2="271.7"/><line class="cls-5" x1="327.56" y1="247.37" x2="327.56" y2="271.7"/><line class="cls-5" x1="318.31" y1="241.28" x2="318.31" y2="271.7"/><line class="cls-5" x1="309.07" y1="232.16" x2="309.07" y2="271.7"/><line class="cls-5" x1="299.82" y1="223.04" x2="299.82" y2="271.7"/><rect class="cls-2" x="156.57" y="264.29" width="36.39" height="17.72"/><rect class="cls-2" x="7" y="279.26" width="22.82" height="2.75"/><rect class="cls-2" x="430.18" y="279.26" width="22.82" height="2.75"/><rect class="cls-4" x="273.88" y="207.54" width="22.74" height="56.74"/><rect class="cls-2" x="267.06" y="264.29" width="36.39" height="17.72"/><rect class="cls-6" x="163.4" y="218.7" width="22.74" height="2.72"/><rect class="cls-6" x="163.4" y="230.45" width="22.74" height="0.81"/><rect class="cls-6" x="163.4" y="233.34" width="22.74" height="0.81"/><rect class="cls-6" x="163.4" y="243.81" width="22.74" height="0.81"/><rect class="cls-6" x="163.4" y="246.71" width="22.74" height="0.81"/><rect class="cls-6" x="163.4" y="259.27" width="22.74" height="5.01"/><rect class="cls-6" x="273.88" y="218.7" width="22.74" height="2.72"/><rect class="cls-6" x="273.88" y="230.45" width="22.74" height="0.81"/><rect class="cls-6" x="273.88" y="233.34" width="22.74" height="0.81"/><rect class="cls-6" x="273.88" y="243.81" width="22.74" height="0.81"/><rect class="cls-6" x="273.88" y="246.71" width="22.74" height="0.81"/><rect class="cls-6" x="273.88" y="259.27" width="22.74" height="5.01"/><rect class="cls-6" x="7.8" y="246.37" width="21.22" height="0.75"/><rect class="cls-6" x="7.8" y="270.14" width="21.22" height="0.67"/><rect class="cls-6" x="7.8" y="256.84" width="21.22" height="2.29"/><rect class="cls-6" x="430.98" y="246.37" width="21.22" height="0.75"/><rect class="cls-6" x="430.98" y="270.14" width="21.22" height="0.67"/><rect class="cls-6" x="430.98" y="256.84" width="21.22" height="2.29"/></svg>