<svg id="Layer_1" data-name="Layer 1" xmlns="http://www.w3.org/2000/svg" viewBox="0 0 460 460"><defs><style>.cls-1{fill:#a100e2;}.cls-2{fill:#8a6199;}.cls-3{fill:#84e895;}.cls-4{fill:#714084;}.cls-5{fill:#b83de9;}.cls-6{fill:#5b2170;}.cls-7{fill:#bdf3c6;}.cls-8{fill:#42005b;}.cls-9{fill:#bc4aea;}</style></defs><title>marrakech</title><g id="Blue_House_-_Gardens" data-name="Blue House - Gardens"><rect class="cls-1" x="322.98" y="131.82" width="2.88" height="1.92" rx="0.34" ry="0.34"/><rect class="cls-1" x="323.29" y="130.49" width="2.26" height="1.52" rx="0.29" ry="0.29"/><rect class="cls-1" x="323.66" y="129.17" width="1.52" height="1.52" rx="0.29" ry="0.29"/><polygon class="cls-2" points="307.86 365.5 62.33 365.5 62.33 249.19 307.86 232.72 307.86 249.19 307.86 365.5"/><rect class="cls-2" x="62.33" y="340.61" width="193.51" height="24.9"/><polygon class="cls-3" points="50.75 171.26 37.24 167.31 37.92 165.18 51.44 169.13 50.75 171.26"/><rect class="cls-2" x="37" y="186.69" width="296.34" height="11.65"/><rect class="cls-2" x="42.07" y="94.49" width="83.08" height="11.14"/><rect class="cls-2" x="92.2" y="134.85" width="25.93" height="26.02"/><rect class="cls-4" x="227.97" y="160.86" width="105.36" height="3.03"/><rect class="cls-4" x="71.41" y="160.86" width="61.84" height="3.03"/><polygon class="cls-2" points="71.41 195.3 47.48 195.3 47.21 169.21 51.44 169.13 71.45 180.5 71.41 195.3"/><polygon class="cls-5" points="323.03 133.34 304.13 152.69 348.07 156.94 325.86 133.34 323.03 133.34"/><polygon class="cls-1" points="325.86 133.34 347.33 150.14 338.87 154.98 325.86 133.34"/><rect class="cls-6" x="350.21" y="160.86" width="57.33" height="2.36"/><rect class="cls-6" x="333.34" y="142.11" width="18.08" height="2.36"/><rect class="cls-4" x="295.55" y="149.1" width="33.87" height="12.33"/><rect class="cls-4" x="299.47" y="198.34" width="33.87" height="167.17"/><rect class="cls-2" x="323.34" y="242.41" width="99.66" height="123.09"/><rect class="cls-4" x="350.21" y="149.1" width="56.78" height="11.77"/><rect class="cls-4" x="350.21" y="163.22" width="56.78" height="79.19"/><rect class="cls-4" x="334.65" y="144.47" width="15.56" height="97.94"/><polygon class="cls-6" points="335.2 144.47 329.42 149.1 328.31 149.1 325.37 149.1 333.34 142.11 335.2 144.47"/><polygon class="cls-2" points="335.2 144.47 335.2 242.41 331.73 242.41 331.73 160.86 327.58 160.86 327.58 149.1 329.42 149.1 335.2 144.47"/><rect class="cls-2" x="125.14" y="96.39" width="121.58" height="96.12"/><rect class="cls-7" x="131.89" y="139.84" width="4.11" height="39.47"/><polygon class="cls-2" points="295.55 161.42 295.55 149.1 246.72 157.5 246.72 160.86 295.55 161.42"/><rect class="cls-4" x="129.55" y="104.12" width="107.2" height="10.94"/><rect class="cls-7" x="129.55" y="106.73" width="107.2" height="4.02"/><polygon class="cls-7" points="42.07 105.64 84.97 160.86 92.18 160.86 92.18 134.83 118.13 134.83 118.13 127.21 125.14 127.21 125.14 105.64 42.07 105.64"/><rect class="cls-4" x="118.13" y="127.21" width="7.01" height="33.66"/><polygon class="cls-4" points="220.11 331.12 62.33 331.12 62.33 214.81 220.11 198.34 220.11 214.81 220.11 331.12"/><polygon class="cls-2" points="307.86 331.12 150.08 331.12 150.08 214.81 307.86 198.34 307.86 214.81 307.86 331.12"/><polygon class="cls-7" points="37 198.34 62.33 214.04 236.57 214.04 307.86 198.34 37 198.34"/><rect class="cls-8" x="353.68" y="285.42" width="38.57" height="26.12"/><rect class="cls-3" x="323.34" y="228.19" width="98.46" height="14.22"/><polygon class="cls-3" points="323.34 242.41 308.18 248.21 308.18 235.63 323.34 228.19 323.34 242.41"/><rect class="cls-7" x="230.3" y="139.84" width="4.11" height="39.47"/><rect class="cls-7" x="137.62" y="131.21" width="41.94" height="48.11"/><rect class="cls-7" x="193.38" y="131.21" width="35.36" height="48.11"/><rect class="cls-3" x="37" y="164.77" width="194.3" height="2.24"/><rect class="cls-3" x="27.16" y="174.61" width="21.92" height="2.24" transform="translate(213.85 137.61) rotate(90)"/><rect class="cls-3" x="37" y="175.95" width="194.3" height="2.24"/><rect class="cls-3" x="37" y="170.36" width="194.3" height="2.24"/><rect class="cls-2" x="227.97" y="163.89" width="105.36" height="24.82"/><rect class="cls-2" x="71.45" y="163.89" width="61.8" height="31.41"/><polygon class="cls-4" points="236.75 141.91 236.75 115.07 129.55 115.07 129.55 141.89 137.62 141.89 137.62 131.71 228.74 131.71 228.74 141.89 236.75 141.91"/><rect class="cls-6" x="239.72" y="337.36" width="59.76" height="5.25"/><rect class="cls-6" x="239.72" y="344.99" width="59.76" height="5.25"/><rect class="cls-8" x="239.72" y="342.62" width="59.76" height="2.63"/><rect class="cls-8" x="239.72" y="350.25" width="59.76" height="2.63"/><rect class="cls-8" x="239.72" y="357.88" width="59.76" height="2.63"/><rect class="cls-6" x="239.72" y="352.62" width="59.76" height="5.25"/><rect class="cls-6" x="239.72" y="360.25" width="59.76" height="5.25"/><rect class="cls-3" x="177.86" y="278.94" width="52.77" height="28.06"/><rect class="cls-5" x="194.25" y="271.92" width="19.2" height="43.19" transform="translate(497.37 89.67) rotate(90)"/><polyline class="cls-3" points="115.08 252.32 119.88 254.96 150.08 253.61 150.08 252.32 115.08 252.32"/><rect class="cls-9" x="131.89" y="263" width="18.19" height="70.41"/><path class="cls-3" d="M76.67,185.54V339.11h7.2V216.94c0-11.53,7.86-21,19.2-21s19.2,9.44,19.2,21V339.11h7.2V222.24c0-16.06,11.88-29.2,27.66-29.25s27.53,13.19,27.53,29.25V339.11h7.2V216.94c0-11.53,9.06-21,20.4-21s20.4,9.44,20.4,21V339.11h7.2V185.54Z"/><rect class="cls-3" x="76.67" y="331.12" width="163.17" height="9.48"/></g></svg>