<svg id="Layer_1" data-name="Layer 1" xmlns="http://www.w3.org/2000/svg" viewBox="0 0 460 460"><defs><style>.cls-1{fill:#7d4f8e;}.cls-2{fill:#f3f3f3;}.cls-3{fill:#42005b;}.cls-4{fill:#a100e2;}.cls-5{fill:#e38620;}.cls-6,.cls-8{fill:#e79944;}.cls-7{fill:#f1f1f1;}.cls-8{opacity:0.5;}</style></defs><title>marrakech</title><g id="Koutoubia_Mosque" data-name="Koutoubia Mosque"><circle class="cls-1" cx="111.08" cy="57.38" r="17.95"/><rect class="cls-2" x="91.07" y="57.38" width="40.02" height="14.27"/><rect class="cls-3" x="68.32" y="98.04" width="84.84" height="346.96"/><rect class="cls-3" x="91.07" y="62.08" width="40.02" height="43.4"/><rect class="cls-1" x="99.74" y="62.08" width="23.57" height="43.4"/><path class="cls-4" d="M99.74,95.3V82.17c0-4,2.67-9.2,5.93-9.2h0c3.26,0,5.93,5.22,5.93,9.2V95.3Z"/><path class="cls-3" d="M100.67,96.08V83.48c0-3.82,2.25-8.83,5-8.83h0c2.75,0,5,5,5,8.83v12.6Z"/><path class="cls-1" d="M101,95.3V83.61c0-3.54,2.09-8.19,4.64-8.19h0c2.55,0,4.64,4.64,4.64,8.19V95.3Z"/><path class="cls-5" d="M105.67,78.43s4.18.9,1.7,5.16a5.29,5.29,0,0,1,.79,3.17v6.81h-5V86.76a5.29,5.29,0,0,1,.79-3.17C101.49,79.33,105.67,78.43,105.67,78.43Z"/><path class="cls-4" d="M111.46,95.3V82.17c0-4,2.67-9.2,5.93-9.2h0c3.26,0,5.93,5.22,5.93,9.2V95.3Z"/><path class="cls-3" d="M112.39,96.08V83.48c0-3.82,2.25-8.83,5-8.83h0c2.75,0,5,5,5,8.83v12.6Z"/><path class="cls-1" d="M112.75,95.3V83.61c0-3.54,2.09-8.19,4.64-8.19h0c2.55,0,4.64,4.64,4.64,8.19V95.3Z"/><path class="cls-5" d="M117.39,78.43s4.18.9,1.7,5.16a5.29,5.29,0,0,1,.79,3.17v6.81h-5V86.76a5.29,5.29,0,0,1,.79-3.17C113.21,79.33,117.39,78.43,117.39,78.43Z"/><polygon class="cls-6" points="91.07 50.88 93.87 50.88 95.76 57.38 91.07 57.38 91.07 50.88"/><polygon class="cls-6" points="131.09 50.88 128.3 50.88 126.4 57.38 131.09 57.38 131.09 50.88"/><polygon class="cls-6" points="98.64 50.88 101.17 50.88 103.27 57.38 96.54 57.38 98.64 50.88"/><polygon class="cls-6" points="106.15 50.88 108.67 50.88 110.78 57.38 104.05 57.38 106.15 50.88"/><polygon class="cls-6" points="113.66 50.88 116.18 50.88 118.28 57.38 111.56 57.38 113.66 50.88"/><polygon class="cls-6" points="121.17 50.88 123.69 50.88 125.79 57.38 119.07 57.38 121.17 50.88"/><polygon class="cls-6" points="80.4 88.14 84.24 88.14 87.45 98.04 77.2 98.04 80.4 88.14"/><polygon class="cls-6" points="68.32 88.14 72.58 88.14 75.47 98.04 68.32 98.04 68.32 88.14"/><polygon class="cls-6" points="153.16 88.14 148.91 88.14 146.02 98.04 153.16 98.04 153.16 88.14"/><polygon class="cls-6" points="91.84 88.14 95.69 88.14 98.89 98.04 88.64 98.04 91.84 88.14"/><rect class="cls-6" x="68.32" y="95.3" width="84.84" height="5.49"/><polygon class="cls-6" points="103.29 88.14 107.13 88.14 110.34 98.04 100.09 98.04 103.29 88.14"/><polygon class="cls-6" points="114.73 88.14 118.58 88.14 121.78 98.04 111.53 98.04 114.73 88.14"/><polygon class="cls-6" points="126.18 88.14 130.02 88.14 133.23 98.04 122.98 98.04 126.18 88.14"/><polygon class="cls-6" points="137.63 88.14 141.47 88.14 144.67 98.04 134.42 98.04 137.63 88.14"/><rect class="cls-6" x="81.63" y="327.53" width="58.23" height="34.94"/><rect class="cls-3" x="82.37" y="328.29" width="57.49" height="34.18"/><rect class="cls-6" x="81.63" y="239.49" width="58.23" height="52.56"/><rect class="cls-3" x="82.27" y="240.08" width="57.58" height="51.98"/><rect class="cls-7" x="86.02" y="380.84" width="1.55" height="6.97"/><rect class="cls-7" x="86.02" y="308.69" width="1.55" height="6.97"/><rect class="cls-7" x="109.97" y="222.68" width="1.55" height="8.39"/><path class="cls-1" d="M98.59,362.47V346.6a7.62,7.62,0,0,0-15.23,0v15.87Z"/><path class="cls-1" d="M138.13,362.47V346.6a7.64,7.64,0,0,0-7.62-7.62h0a7.64,7.64,0,0,0-7.62,7.62v15.87Z"/><path class="cls-1" d="M118.36,362.47V346a7.62,7.62,0,0,0-15.23,0v16.49Z"/><path class="cls-3" d="M91,346.19s-5.26,1.85-2.13,6.16c-.53.6-.51,1.54-.51,3.21v6.9h5.28v-6.9c0-1.67,0-2.61-.51-3.21C96.24,348,91,346.19,91,346.19Z"/><path class="cls-3" d="M130.51,346.19s-5.26,1.85-2.13,6.16c-.53.6-.51,1.54-.51,3.21v6.9h5.28v-6.9c0-1.67,0-2.61-.51-3.21C135.77,348,130.51,346.19,130.51,346.19Z"/><path class="cls-5" d="M110.74,346.19s-5.26,1.85-2.13,6.16c-.53.6-.51,1.54-.51,3.21v6.9h5.28v-6.9c0-1.67,0-2.61-.51-3.21C116,348,110.74,346.19,110.74,346.19Z"/><path class="cls-6" d="M137.82,292.05V271.14c0-15.56-14.89-28.29-26.3-28.29-10.83,0-26.3,12.73-26.3,28.29v20.91Z"/><path class="cls-3" d="M136.61,292.05V271.63c0-15.19-14.2-27.63-25.09-27.63-10.33,0-25.09,12.43-25.09,27.63v20.42Z"/><rect class="cls-6" x="93.34" y="267.45" width="36.35" height="24.6"/><path class="cls-1" d="M116.11,292.05V277.53c0-3.83-2.11-7-4.69-7h0c-2.58,0-4.69,3.14-4.69,7v14.52Z"/><path class="cls-5" d="M111.42,274.11s-5.26,2-2.13,6.79c-.53.67-.51,1.7-.51,3.54v7.6h5.28v-7.6c0-1.84,0-2.88-.51-3.54C116.68,276.15,111.42,274.11,111.42,274.11Z"/><path class="cls-1" d="M128.85,292.05V277.53c0-3.83-2.11-7-4.69-7h0c-2.58,0-4.69,3.14-4.69,7v14.52Z"/><path class="cls-3" d="M124.16,274.11s-5.26,2-2.13,6.79c-.53.67-.51,1.7-.51,3.54v7.6h5.28v-7.6c0-1.84,0-2.88-.51-3.54C129.42,276.15,124.16,274.11,124.16,274.11Z"/><path class="cls-1" d="M103.58,292.05V277.53c0-3.83-2.11-7-4.69-7h0c-2.58,0-4.69,3.14-4.69,7v14.52Z"/><path class="cls-3" d="M98.88,274.11s-5.26,2-2.13,6.79c-.53.67-.51,1.7-.51,3.54v7.6h5.28v-7.6c0-1.84,0-2.88-.51-3.54C104.14,276.15,98.88,274.11,98.88,274.11Z"/><path class="cls-5" d="M114.77,259.2v-7.73c0-1.75-1-3.19-2.33-3.19h-1.85c-1.28,0-2.33,1.43-2.33,3.19v7.73Z"/><ellipse class="cls-5" cx="111.52" cy="247.09" rx="1.32" ry="1.46"/><rect class="cls-6" x="88.74" y="160.97" width="44.69" height="49.62"/><rect class="cls-3" x="89.35" y="161.56" width="43.46" height="48.54"/><rect class="cls-6" x="93.31" y="166.29" width="35.54" height="44.3"/><rect class="cls-3" x="94.14" y="167.23" width="33.88" height="42.87"/><rect class="cls-6" x="96.08" y="173.2" width="30" height="37.4"/><rect class="cls-3" x="96.78" y="173.99" width="28.6" height="36.11"/><rect class="cls-6" x="99.56" y="190.92" width="10.18" height="19.18"/><rect class="cls-3" x="99.8" y="191.16" width="9.7" height="18.94"/><rect class="cls-6" x="112.42" y="190.92" width="10.18" height="19.18"/><rect class="cls-3" x="112.66" y="191.18" width="9.7" height="18.92"/><rect class="cls-6" x="93.31" y="169.34" width="35.54" height="0.76"/><path class="cls-6" d="M104.11,194.4l-3.51,6.25a1.44,1.44,0,0,0-.18.71v8.75h8.47v-8.75a1.45,1.45,0,0,0-.19-.71l-3.51-6.25A.62.62,0,0,0,104.11,194.4Z"/><path class="cls-3" d="M104.14,194.67l-3.34,6.14a1.45,1.45,0,0,0-.18.69v8.6h8.07v-8.6a1.46,1.46,0,0,0-.18-.7l-3.34-6.14A.58.58,0,0,0,104.14,194.67Z"/><path class="cls-5" d="M107,210.1v-7a1.16,1.16,0,0,0-1.16-1.16h-2.4a1.16,1.16,0,0,0-1.16,1.16v7Z"/><circle class="cls-5" cx="104.65" cy="200.18" r="2.25"/><path class="cls-6" d="M117,194.39l-3.51,6.25a1.44,1.44,0,0,0-.18.71v8.75h8.47v-8.75a1.45,1.45,0,0,0-.19-.71l-3.51-6.25A.62.62,0,0,0,117,194.39Z"/><path class="cls-3" d="M117,194.66l-3.34,6.14a1.45,1.45,0,0,0-.18.69v8.6h8.07v-8.6a1.46,1.46,0,0,0-.18-.7L118,194.66A.58.58,0,0,0,117,194.66Z"/><path class="cls-5" d="M119.87,210.09v-7a1.16,1.16,0,0,0-1.16-1.16h-2.4a1.16,1.16,0,0,0-1.16,1.16v7Z"/><circle class="cls-5" cx="117.51" cy="200.17" r="2.25"/><path class="cls-5" d="M99.24,176.44l-1.33,2.14a.46.46,0,0,0-.07.24v3h3.21v-3a.46.46,0,0,0-.07-.24l-1.33-2.14A.25.25,0,0,0,99.24,176.44Z"/><path class="cls-5" d="M122.51,176.44l-1.33,2.14a.46.46,0,0,0-.07.24v3h3.21v-3a.46.46,0,0,0-.07-.24l-1.33-2.14A.25.25,0,0,0,122.51,176.44Z"/><rect class="cls-2" x="68.32" y="98.04" width="84.84" height="14.27"/><circle class="cls-6" cx="111.08" cy="34.24" r="5.2"/><circle class="cls-6" cx="111.08" cy="25.81" r="3.23"/><circle class="cls-6" cx="111.08" cy="20.32" r="2.26"/><rect class="cls-3" x="110.7" y="15" width="0.77" height="1.71"/><circle class="cls-6" cx="111.08" cy="17.23" r="0.83"/><rect class="cls-6" x="82.96" y="114.45" width="57.15" height="30.09"/><rect class="cls-3" x="83.67" y="115.14" width="56.44" height="29.4"/><path class="cls-1" d="M110.71,144.54V133c0-3.51-2.52-8.11-5.6-8.11h0c-3.08,0-5.6,4.6-5.6,8.11v11.57Z"/><path class="cls-5" d="M105.11,129.18s-4.7,1.17-1.9,5.41a4.84,4.84,0,0,0-.89,3.16v6.79h5.58v-6.79a4.84,4.84,0,0,0-.89-3.16C109.8,130.34,105.11,129.18,105.11,129.18Z"/><path class="cls-1" d="M96.69,144.54V133c0-3.51-2.52-8.11-5.6-8.11h0c-3.08,0-5.6,4.6-5.6,8.11v11.57Z"/><path class="cls-5" d="M91.09,129.18s-4.7,1.17-1.9,5.41a4.84,4.84,0,0,0-.89,3.16v6.79h5.58v-6.79a4.84,4.84,0,0,0-.89-3.16C95.79,130.34,91.09,129.18,91.09,129.18Z"/><path class="cls-5" d="M97.6,128l-4.71-4.1a.35.35,0,0,1-.08-.43c.83-1.5,5.46-9.05,10,0a.38.38,0,0,1-.08.45L98.07,128A.36.36,0,0,1,97.6,128Z"/><path class="cls-2" d="M97.08,122.41h1.51a.38.38,0,0,1,.38.38V127a0,0,0,0,1,0,0H96.69a0,0,0,0,1,0,0v-4.16A.38.38,0,0,1,97.08,122.41Z"/><path class="cls-5" d="M111.3,127.76l-4.71-4.1a.35.35,0,0,1-.08-.43c.83-1.5,5.46-9.05,10,0a.38.38,0,0,1-.08.45l-4.71,4.1A.36.36,0,0,1,111.3,127.76Z"/><path class="cls-2" d="M110.78,122.16h1.51a.38.38,0,0,1,.38.38v4.16a0,0,0,0,1,0,0H110.4a0,0,0,0,1,0,0v-4.16A.38.38,0,0,1,110.78,122.16Z"/><path class="cls-5" d="M95.68,116.56h-8a.29.29,0,0,0-.23.47l3.94,4.37a.38.38,0,0,0,.56,0l4-4.37A.29.29,0,0,0,95.68,116.56Z"/><path class="cls-5" d="M109.11,116.62h-8a.29.29,0,0,0-.23.47l3.94,4.37a.38.38,0,0,0,.56,0l4-4.37A.29.29,0,0,0,109.11,116.62Z"/><path class="cls-5" d="M84.53,119.35v8a.29.29,0,0,0,.47.23l4.37-3.94a.38.38,0,0,0,0-.56l-4.37-4A.29.29,0,0,0,84.53,119.35Z"/><path class="cls-1" d="M112.46,144.54V133c0-3.51,2.52-8.11,5.6-8.11h0c3.08,0,5.6,4.6,5.6,8.11v11.57Z"/><path class="cls-5" d="M118.06,129.18s4.7,1.17,1.9,5.41a4.84,4.84,0,0,1,.89,3.16v6.79h-5.58v-6.79a4.84,4.84,0,0,1,.89-3.16C113.37,130.34,118.06,129.18,118.06,129.18Z"/><path class="cls-1" d="M126.47,144.54V133c0-3.51,2.52-8.11,5.6-8.11h0c3.08,0,5.6,4.6,5.6,8.11v11.57Z"/><path class="cls-5" d="M132.08,129.18s4.7,1.17,1.9,5.41a4.84,4.84,0,0,1,.89,3.16v6.79h-5.58v-6.79a4.84,4.84,0,0,1,.89-3.16C127.38,130.34,132.08,129.18,132.08,129.18Z"/><path class="cls-5" d="M125.57,128l4.71-4.1a.35.35,0,0,0,.08-.43c-.83-1.5-5.46-9.05-10,0a.38.38,0,0,0,.08.45l4.71,4.1A.36.36,0,0,0,125.57,128Z"/><path class="cls-2" d="M124.2,122.41h2.27a0,0,0,0,1,0,0v4.16a.38.38,0,0,1-.38.38h-1.51a.38.38,0,0,1-.38-.38v-4.16A0,0,0,0,1,124.2,122.41Z" transform="translate(250.67 249.37) rotate(-180)"/><path class="cls-5" d="M127.49,116.56h8a.29.29,0,0,1,.23.47l-3.94,4.37a.38.38,0,0,1-.56,0l-4-4.37A.29.29,0,0,1,127.49,116.56Z"/><path class="cls-5" d="M114.06,116.62h8a.29.29,0,0,1,.23.47l-3.94,4.37a.38.38,0,0,1-.56,0l-4-4.37A.29.29,0,0,1,114.06,116.62Z"/><path class="cls-5" d="M138.64,119.35v8a.29.29,0,0,1-.47.23l-4.37-3.94a.38.38,0,0,1,0-.56l4.37-4A.29.29,0,0,1,138.64,119.35Z"/><rect class="cls-6" x="67.68" y="151.33" width="86.22" height="2.86"/></g><rect class="cls-8" x="105.79" y="379.7" width="47.37" height="65.3"/><rect class="cls-3" x="107.01" y="380.84" width="285.3" height="64.16"/><path class="cls-1" d="M263.81,402.93V390.06c0-2.06,1.83-3.74,4.33-3.74s4.33,1.68,4.33,3.74v12.87Z"/><path class="cls-6" d="M271.74,402.93V391a3.61,3.61,0,0,0-3.6-3.6h0a3.61,3.61,0,0,0-3.6,3.6v11.91Z"/><path class="cls-1" d="M300.93,402.93V390.06c0-2.06,1.83-3.74,4.33-3.74s4.33,1.68,4.33,3.74v12.87Z"/><path class="cls-6" d="M308.86,402.93V391a3.61,3.61,0,0,0-3.6-3.6h0a3.61,3.61,0,0,0-3.6,3.6v11.91Z"/><path class="cls-1" d="M333.1,402.93V390.06c0-2.06,1.83-3.74,4.33-3.74s4.33,1.68,4.33,3.74v12.87Z"/><path class="cls-6" d="M341,402.93V391a3.61,3.61,0,0,0-3.6-3.6h0a3.61,3.61,0,0,0-3.6,3.6v11.91Z"/><path class="cls-1" d="M370.22,402.93V390.06c0-2.06,1.83-3.74,4.33-3.74s4.33,1.68,4.33,3.74v12.87Z"/><path class="cls-6" d="M378.15,402.93V391a3.61,3.61,0,0,0-3.6-3.6h0A3.61,3.61,0,0,0,371,391v11.91Z"/><path class="cls-6" d="M320.46,398.85l-6.25,6.45a8.58,8.58,0,0,0-2.42,6V445h19.1V411.27a8.58,8.58,0,0,0-2.42-6l-6.25-6.45A1.23,1.23,0,0,0,320.46,398.85Z"/><path class="cls-6" d="M353,398.85l-6.25,6.45a8.58,8.58,0,0,0-2.42,6V445h19.1V411.27a8.58,8.58,0,0,0-2.42-6l-6.25-6.45A1.23,1.23,0,0,0,353,398.85Z"/><path class="cls-6" d="M286.71,398.85l-6.25,6.45a8.58,8.58,0,0,0-2.42,6V445h19.1V411.27a8.58,8.58,0,0,0-2.42-6l-6.25-6.45A1.23,1.23,0,0,0,286.71,398.85Z"/><path class="cls-3" d="M286.8,400.09l-5.6,5.78a7.69,7.69,0,0,0-2.17,5.35v30.22h17.11V411.21a7.69,7.69,0,0,0-2.17-5.35l-5.6-5.78A1.1,1.1,0,0,0,286.8,400.09Z"/><rect class="cls-3" x="279.04" y="435.68" width="17.11" height="9.32"/><path class="cls-3" d="M320.55,400.09l-5.6,5.78a7.69,7.69,0,0,0-2.17,5.35v30.22H329.9V411.21a7.69,7.69,0,0,0-2.17-5.35l-5.6-5.78A1.1,1.1,0,0,0,320.55,400.09Z"/><rect class="cls-3" x="312.79" y="435.68" width="17.11" height="9.32"/><path class="cls-3" d="M353.14,400.09l-5.6,5.78a7.69,7.69,0,0,0-2.17,5.35v30.22h17.11V411.21a7.69,7.69,0,0,0-2.17-5.35l-5.6-5.78A1.1,1.1,0,0,0,353.14,400.09Z"/><rect class="cls-3" x="345.37" y="435.68" width="17.11" height="9.32"/><path class="cls-1" d="M120.27,402.93V390.06c0-2.06,1.83-3.74,4.33-3.74s4.33,1.68,4.33,3.74v12.87Z"/><path class="cls-6" d="M128.2,402.93V391a3.61,3.61,0,0,0-3.6-3.6h0A3.61,3.61,0,0,0,121,391v11.91Z"/><path class="cls-1" d="M157.39,402.93V390.06c0-2.06,1.83-3.74,4.33-3.74S166,388,166,390.06v12.87Z"/><path class="cls-6" d="M165.32,402.93V391a3.61,3.61,0,0,0-3.6-3.6h0a3.61,3.61,0,0,0-3.6,3.6v11.91Z"/><path class="cls-1" d="M189.56,402.93V390.06c0-2.06,1.83-3.74,4.33-3.74s4.33,1.68,4.33,3.74v12.87Z"/><path class="cls-6" d="M197.49,402.93V391a3.61,3.61,0,0,0-3.6-3.6h0a3.61,3.61,0,0,0-3.6,3.6v11.91Z"/><path class="cls-1" d="M226.68,402.93V390.06c0-2.06,1.83-3.74,4.33-3.74s4.33,1.68,4.33,3.74v12.87Z"/><path class="cls-6" d="M234.61,402.93V391a3.61,3.61,0,0,0-3.6-3.6h0a3.61,3.61,0,0,0-3.6,3.6v11.91Z"/><path class="cls-6" d="M176.92,398.85l-6.25,6.45a8.58,8.58,0,0,0-2.42,6V445h19.1V411.27a8.58,8.58,0,0,0-2.42-6l-6.25-6.45A1.23,1.23,0,0,0,176.92,398.85Z"/><path class="cls-6" d="M209.5,398.85l-6.25,6.45a8.58,8.58,0,0,0-2.42,6V445h19.1V411.27a8.58,8.58,0,0,0-2.42-6l-6.25-6.45A1.23,1.23,0,0,0,209.5,398.85Z"/><path class="cls-6" d="M143.17,398.85l-6.25,6.45a8.58,8.58,0,0,0-2.42,6V445h19.1V411.27a8.58,8.58,0,0,0-2.42-6l-6.25-6.45A1.23,1.23,0,0,0,143.17,398.85Z"/><path class="cls-3" d="M143.26,400.09l-5.6,5.78a7.69,7.69,0,0,0-2.17,5.35v30.22h17.11V411.21a7.69,7.69,0,0,0-2.17-5.35l-5.6-5.78A1.1,1.1,0,0,0,143.26,400.09Z"/><rect class="cls-3" x="135.5" y="435.68" width="17.11" height="9.32"/><path class="cls-3" d="M177,400.09l-5.6,5.78a7.69,7.69,0,0,0-2.17,5.35v30.22h17.11V411.21a7.69,7.69,0,0,0-2.17-5.35l-5.6-5.78A1.1,1.1,0,0,0,177,400.09Z"/><rect class="cls-3" x="169.25" y="435.68" width="17.11" height="9.32"/><path class="cls-3" d="M209.6,400.09l-5.6,5.78a7.69,7.69,0,0,0-2.17,5.35v30.22h17.11V411.21a7.69,7.69,0,0,0-2.17-5.35l-5.6-5.78A1.1,1.1,0,0,0,209.6,400.09Z"/><rect class="cls-3" x="201.83" y="435.68" width="17.11" height="9.32"/></svg>