<svg id="Layer_1" data-name="Layer 1" xmlns="http://www.w3.org/2000/svg" viewBox="0 0 460 460"><defs><style>.cls-1{fill:#b330e8;}.cls-2{fill:#e38620;}.cls-3{fill:#a100e2;}.cls-4,.cls-5{fill:#b83de9;}.cls-4{opacity:0.5;}.cls-6{fill:#f2c594;}.cls-7{fill:#efba80;}.cls-8{fill:#42005b;}.cls-9{fill:#5c2472;}.cls-10{fill:#eeb679;}</style></defs><title>marrakech</title><g id="Hotel"><rect class="cls-1" x="147.43" y="230.99" width="165.15" height="65.5"/><rect class="cls-2" x="147.43" y="211.56" width="165.15" height="19.43"/><rect class="cls-3" x="144.68" y="204.84" width="170.64" height="6.72"/><rect class="cls-3" x="142.16" y="197.29" width="175.67" height="7.54"/><rect class="cls-3" x="228.6" y="163.5" width="3.2" height="5.24"/><polygon class="cls-3" points="142.16 197.29 230.38 166.75 317.84 197.29 142.16 197.29"/><path class="cls-4" d="M172.47,228.15V217.67a2.65,2.65,0,0,0-5.3,0v10.48Z"/><path class="cls-4" d="M185.28,228.15V217.67a2.65,2.65,0,0,0-5.3,0v10.48Z"/><path class="cls-4" d="M198.1,228.15V217.67a2.65,2.65,0,0,0-5.3,0v10.48Z"/><path class="cls-4" d="M219.84,228.15V217.67a2.65,2.65,0,1,0-5.3,0v10.48Z"/><path class="cls-4" d="M232.65,228.15V217.67a2.65,2.65,0,0,0-5.3,0v10.48Z"/><path class="cls-4" d="M245.47,228.15V217.67a2.65,2.65,0,0,0-5.3,0v10.48Z"/><path class="cls-5" d="M266.79,228.15V217.67a2.65,2.65,0,1,0-5.3,0v10.48Z"/><path class="cls-5" d="M279.61,228.15V217.67a2.65,2.65,0,1,0-5.3,0v10.48Z"/><path class="cls-5" d="M292.43,228.15V217.67a2.65,2.65,0,0,0-5.3,0v10.48Z"/><polygon class="cls-6" points="147.43 260.76 164.71 260.76 164.71 251.82 188.16 251.82 188.16 260.76 204.04 260.76 204.04 251.82 255.25 251.82 255.25 260.76 271.28 260.76 271.28 251.82 294.19 251.82 294.19 260.76 312.57 260.76 312.57 230.99 147.43 230.99 147.43 260.76"/><rect class="cls-7" x="145.17" y="202.78" width="1.15" height="2.56" rx="0.18" ry="0.18" transform="translate(186.98 -43.29) rotate(45)"/><rect class="cls-7" x="148.38" y="202.78" width="1.15" height="2.56" rx="0.18" ry="0.18" transform="translate(187.92 -45.56) rotate(45)"/><rect class="cls-7" x="151.58" y="202.78" width="1.15" height="2.56" rx="0.18" ry="0.18" transform="translate(188.86 -47.82) rotate(45)"/><rect class="cls-7" x="154.79" y="202.78" width="1.15" height="2.56" rx="0.18" ry="0.18" transform="translate(189.8 -50.09) rotate(45)"/><rect class="cls-7" x="157.99" y="202.78" width="1.15" height="2.56" rx="0.18" ry="0.18" transform="translate(190.74 -52.36) rotate(45)"/><rect class="cls-7" x="161.19" y="202.78" width="1.15" height="2.56" rx="0.18" ry="0.18" transform="translate(191.68 -54.62) rotate(45)"/><rect class="cls-7" x="164.4" y="202.78" width="1.15" height="2.56" rx="0.18" ry="0.18" transform="translate(192.61 -56.89) rotate(45)"/><rect class="cls-7" x="167.6" y="202.78" width="1.15" height="2.56" rx="0.18" ry="0.18" transform="translate(193.55 -59.15) rotate(45)"/><rect class="cls-7" x="170.81" y="202.78" width="1.15" height="2.56" rx="0.18" ry="0.18" transform="translate(194.49 -61.42) rotate(45)"/><rect class="cls-7" x="174.01" y="202.78" width="1.15" height="2.56" rx="0.18" ry="0.18" transform="translate(195.43 -63.68) rotate(45)"/><rect class="cls-7" x="177.22" y="202.78" width="1.15" height="2.56" rx="0.18" ry="0.18" transform="translate(196.37 -65.95) rotate(45)"/><rect class="cls-7" x="180.42" y="202.78" width="1.15" height="2.56" rx="0.18" ry="0.18" transform="translate(197.31 -68.21) rotate(45)"/><rect class="cls-7" x="183.62" y="202.78" width="1.15" height="2.56" rx="0.18" ry="0.18" transform="translate(198.24 -70.48) rotate(45)"/><rect class="cls-7" x="186.83" y="202.78" width="1.15" height="2.56" rx="0.18" ry="0.18" transform="translate(199.18 -72.75) rotate(45)"/><rect class="cls-7" x="190.03" y="202.78" width="1.15" height="2.56" rx="0.18" ry="0.18" transform="translate(200.12 -75.01) rotate(45)"/><rect class="cls-7" x="193.24" y="202.78" width="1.15" height="2.56" rx="0.18" ry="0.18" transform="translate(201.06 -77.28) rotate(45)"/><rect class="cls-7" x="196.44" y="202.78" width="1.15" height="2.56" rx="0.18" ry="0.18" transform="translate(202 -79.54) rotate(45)"/><rect class="cls-7" x="199.64" y="202.78" width="1.15" height="2.56" rx="0.18" ry="0.18" transform="translate(202.94 -81.81) rotate(45)"/><rect class="cls-7" x="202.85" y="202.78" width="1.15" height="2.56" rx="0.18" ry="0.18" transform="translate(203.88 -84.07) rotate(45)"/><rect class="cls-7" x="206.05" y="202.78" width="1.15" height="2.56" rx="0.18" ry="0.18" transform="translate(204.81 -86.34) rotate(45)"/><rect class="cls-7" x="209.26" y="202.78" width="1.15" height="2.56" rx="0.18" ry="0.18" transform="translate(205.75 -88.61) rotate(45)"/><rect class="cls-7" x="212.46" y="202.78" width="1.15" height="2.56" rx="0.18" ry="0.18" transform="translate(206.69 -90.87) rotate(45)"/><rect class="cls-7" x="215.67" y="202.78" width="1.15" height="2.56" rx="0.18" ry="0.18" transform="translate(207.63 -93.14) rotate(45)"/><rect class="cls-7" x="218.87" y="202.78" width="1.15" height="2.56" rx="0.18" ry="0.18" transform="translate(208.57 -95.4) rotate(45)"/><rect class="cls-7" x="222.07" y="202.78" width="1.15" height="2.56" rx="0.18" ry="0.18" transform="translate(209.51 -97.67) rotate(45)"/><rect class="cls-7" x="225.28" y="202.78" width="1.15" height="2.56" rx="0.18" ry="0.18" transform="translate(210.44 -99.93) rotate(45)"/><rect class="cls-7" x="228.48" y="202.78" width="1.15" height="2.56" rx="0.18" ry="0.18" transform="translate(211.38 -102.2) rotate(45)"/><rect class="cls-7" x="231.69" y="202.78" width="1.15" height="2.56" rx="0.18" ry="0.18" transform="translate(212.32 -104.47) rotate(45)"/><rect class="cls-7" x="234.89" y="202.78" width="1.15" height="2.56" rx="0.18" ry="0.18" transform="translate(213.26 -106.73) rotate(45)"/><rect class="cls-7" x="238.09" y="202.78" width="1.15" height="2.56" rx="0.18" ry="0.18" transform="translate(214.2 -109) rotate(45)"/><rect class="cls-7" x="241.3" y="202.78" width="1.15" height="2.56" rx="0.18" ry="0.18" transform="translate(215.14 -111.26) rotate(45)"/><rect class="cls-7" x="244.5" y="202.78" width="1.15" height="2.56" rx="0.18" ry="0.18" transform="translate(216.08 -113.53) rotate(45)"/><rect class="cls-7" x="247.71" y="202.78" width="1.15" height="2.56" rx="0.18" ry="0.18" transform="translate(217.01 -115.79) rotate(45)"/><rect class="cls-7" x="250.91" y="202.78" width="1.15" height="2.56" rx="0.18" ry="0.18" transform="translate(217.95 -118.06) rotate(45)"/><rect class="cls-7" x="254.12" y="202.78" width="1.15" height="2.56" rx="0.18" ry="0.18" transform="translate(218.89 -120.33) rotate(45)"/><rect class="cls-7" x="257.32" y="202.78" width="1.15" height="2.56" rx="0.18" ry="0.18" transform="translate(219.83 -122.59) rotate(45)"/><rect class="cls-7" x="260.52" y="202.78" width="1.15" height="2.56" rx="0.18" ry="0.18" transform="translate(220.77 -124.86) rotate(45)"/><rect class="cls-7" x="263.73" y="202.78" width="1.15" height="2.56" rx="0.18" ry="0.18" transform="translate(221.71 -127.12) rotate(45)"/><rect class="cls-7" x="266.93" y="202.78" width="1.15" height="2.56" rx="0.18" ry="0.18" transform="translate(222.64 -129.39) rotate(45)"/><rect class="cls-7" x="270.14" y="202.78" width="1.15" height="2.56" rx="0.18" ry="0.18" transform="translate(223.58 -131.65) rotate(45)"/><rect class="cls-7" x="273.34" y="202.78" width="1.15" height="2.56" rx="0.18" ry="0.18" transform="translate(224.52 -133.92) rotate(45)"/><rect class="cls-7" x="276.54" y="202.78" width="1.15" height="2.56" rx="0.18" ry="0.18" transform="translate(225.46 -136.19) rotate(45)"/><rect class="cls-7" x="279.75" y="202.78" width="1.15" height="2.56" rx="0.18" ry="0.18" transform="translate(226.4 -138.45) rotate(45)"/><rect class="cls-7" x="282.95" y="202.78" width="1.15" height="2.56" rx="0.18" ry="0.18" transform="translate(227.34 -140.72) rotate(45)"/><rect class="cls-7" x="286.16" y="202.78" width="1.15" height="2.56" rx="0.18" ry="0.18" transform="translate(228.28 -142.98) rotate(45)"/><rect class="cls-7" x="289.36" y="202.78" width="1.15" height="2.56" rx="0.18" ry="0.18" transform="translate(229.21 -145.25) rotate(45)"/><rect class="cls-7" x="292.57" y="202.78" width="1.15" height="2.56" rx="0.18" ry="0.18" transform="translate(230.15 -147.51) rotate(45)"/><rect class="cls-7" x="295.77" y="202.78" width="1.15" height="2.56" rx="0.18" ry="0.18" transform="translate(231.09 -149.78) rotate(45)"/><rect class="cls-7" x="298.97" y="202.78" width="1.15" height="2.56" rx="0.18" ry="0.18" transform="translate(232.03 -152.05) rotate(45)"/><rect class="cls-7" x="302.18" y="202.78" width="1.15" height="2.56" rx="0.18" ry="0.18" transform="translate(232.97 -154.31) rotate(45)"/><rect class="cls-7" x="305.38" y="202.78" width="1.15" height="2.56" rx="0.18" ry="0.18" transform="translate(233.91 -156.58) rotate(45)"/><rect class="cls-7" x="308.59" y="202.78" width="1.15" height="2.56" rx="0.18" ry="0.18" transform="translate(234.84 -158.84) rotate(45)"/><rect class="cls-7" x="311.79" y="202.78" width="1.15" height="2.56" rx="0.18" ry="0.18" transform="translate(235.78 -161.11) rotate(45)"/><rect class="cls-7" x="314.99" y="202.78" width="1.15" height="2.56" rx="0.18" ry="0.18" transform="translate(236.72 -163.37) rotate(45)"/><rect class="cls-8" x="208.08" y="258.56" width="43.4" height="37.93"/><rect class="cls-8" x="168.18" y="265.22" width="16.02" height="31.26"/><rect class="cls-8" x="275.38" y="265.22" width="16.02" height="31.26"/><rect class="cls-7" x="-1.25" y="266.38" width="55.28" height="4.81" transform="translate(295.18 242.39) rotate(90)"/><rect class="cls-1" x="62.1" y="237.81" width="85.32" height="58.67"/><rect class="cls-8" x="80.45" y="265.27" width="13.33" height="31.22"/><rect class="cls-8" x="129.05" y="265.27" width="13.33" height="31.22"/><rect class="cls-6" x="62.1" y="242.43" width="87.99" height="18.33"/><rect class="cls-1" x="311.48" y="237.81" width="85.32" height="58.67" transform="translate(708.29 534.3) rotate(-180)"/><rect class="cls-8" x="365.13" y="265.27" width="13.33" height="31.22" transform="translate(743.59 561.76) rotate(-180)"/><rect class="cls-8" x="316.52" y="265.27" width="13.33" height="31.22" transform="translate(646.37 561.76) rotate(-180)"/><rect class="cls-6" x="308.82" y="242.43" width="87.99" height="18.33" transform="translate(705.63 503.2) rotate(-180)"/><rect class="cls-7" x="56.43" y="266.45" width="55.28" height="4.81" transform="translate(352.92 184.78) rotate(90)"/><rect class="cls-7" x="114.1" y="266.45" width="55.28" height="4.81" transform="translate(410.59 127.11) rotate(90)"/><rect class="cls-7" x="171.78" y="266.45" width="55.28" height="4.81" transform="translate(468.27 69.43) rotate(90)"/><rect class="cls-7" x="232.25" y="266.46" width="55.28" height="4.81" transform="translate(528.74 8.97) rotate(90)"/><rect class="cls-7" x="347.6" y="266.46" width="55.28" height="4.81" transform="translate(644.09 -106.38) rotate(90)"/><rect class="cls-7" x="405.27" y="266.46" width="55.28" height="4.81" transform="translate(701.77 -164.05) rotate(90)"/><rect class="cls-7" x="289.92" y="266.46" width="55.28" height="4.81" transform="translate(586.42 -48.7) rotate(90)"/><rect class="cls-8" x="19.78" y="266.38" width="55.28" height="4.81" transform="translate(316.2 221.37) rotate(90)"/><rect class="cls-9" x="21" y="235.43" width="418" height="7"/><polygon class="cls-1" points="245.34 260.55 221.67 262.27 208.67 259.95 245.34 260.55"/><rect class="cls-3" x="232.13" y="258.36" width="0.94" height="8.16" transform="translate(-112.81 201.89) rotate(-38.51)"/><rect class="cls-3" x="237.77" y="258.36" width="0.94" height="8.16" transform="translate(261.28 616.13) rotate(-141.49)"/><rect class="cls-3" x="234.76" y="258.36" width="1.33" height="38.13"/><polygon class="cls-10" points="208.67 259.95 235.71 251.63 261.06 260.8 208.67 259.95"/><polygon class="cls-5" points="73 263.97 79.17 260.51 88.46 259.45 81.15 263.08 73 263.97"/><polygon class="cls-2" points="79.17 260.51 66.72 253.97 88.46 259.45 79.17 260.51"/><polygon class="cls-5" points="41.4 261.99 56.74 264.46 60.75 261.23 41.4 261.99"/><polygon class="cls-3" points="56.74 264.46 73 263.97 79.17 260.51 60.75 261.23 56.74 264.46"/><rect class="cls-3" x="63.8" y="259.37" width="0.94" height="11.09" transform="translate(-150.96 97.62) rotate(-38.51)"/><rect class="cls-3" x="71.52" y="258.65" width="0.94" height="11.9" transform="translate(-36.42 516.48) rotate(-141.49)"/><rect class="cls-3" x="67.34" y="260.51" width="1.33" height="35.98"/><polygon class="cls-10" points="41.4 261.99 66.72 253.97 79.17 260.51 41.4 261.99"/><polygon class="cls-5" points="433.91 258.96 420.83 260.49 409.56 264.64 386.13 264.19 374.19 259.85 386.51 259.62 417.64 258.12 433.91 258.96"/><polygon class="cls-3" points="386.13 264.19 385.26 263.88 390.46 259.61 392.06 259.51 386.13 264.19"/><polygon class="cls-3" points="409.56 264.64 410.45 264.31 406.98 258.72 406.03 258.78 409.56 264.64"/><polygon class="cls-3" points="420.29 260.69 420.83 260.49 417.64 258.12 417.04 258.16 420.29 260.69"/><polygon class="cls-2" points="387 259.85 374.19 259.85 398.07 251.63 387 259.85"/><polygon class="cls-2" points="433.91 258.96 417.64 258.12 398.07 251.63 433.91 258.96"/><rect class="cls-3" x="397.37" y="255.74" width="0.94" height="11.09" transform="translate(-76.16 304.52) rotate(-38.51)"/><rect class="cls-3" x="405.09" y="255.02" width="0.94" height="11.9" transform="translate(560.44 717.7) rotate(-141.49)"/><rect class="cls-3" x="400.91" y="256.88" width="1.33" height="39.61"/><polygon class="cls-10" points="386.17 259.85 398.07 251.63 417.64 258.12 386.17 259.85"/><polygon class="cls-5" points="125.26 258.12 130.93 260.49 142.2 264.64 165.63 264.19 177.57 259.85 165.25 259.62 134.12 258.12 125.26 258.12"/><polygon class="cls-3" points="165.63 264.19 166.5 263.88 161.3 259.61 159.7 259.51 165.63 264.19"/><polygon class="cls-3" points="142.2 264.64 141.31 264.31 144.78 258.72 145.73 258.78 142.2 264.64"/><polygon class="cls-3" points="131.47 260.69 130.93 260.49 134.12 258.12 134.72 258.16 131.47 260.69"/><polygon class="cls-2" points="164.76 259.85 177.57 259.85 153.69 251.63 164.76 259.85"/><polygon class="cls-2" points="125.26 258.12 134.12 258.12 153.69 251.63 125.26 258.12"/><rect class="cls-3" x="153.45" y="255.74" width="0.94" height="11.09" transform="translate(111.68 561.59) rotate(-141.49)"/><rect class="cls-3" x="145.73" y="255.02" width="0.94" height="11.9" transform="translate(-130.69 147.78) rotate(-38.51)"/><rect class="cls-3" x="149.52" y="256.88" width="1.33" height="39.61" transform="translate(300.37 553.37) rotate(-180)"/><polygon class="cls-10" points="165.59 259.85 153.69 251.63 134.12 258.12 165.59 259.85"/><polygon class="cls-5" points="344.81 259.94 337.65 264.17 322.19 262.05 318.92 259.29 344.81 259.94"/><polygon class="cls-1" points="322.19 262.05 303.7 260.76 299.56 258.8 318.92 259.29 322.19 262.05"/><rect class="cls-3" x="318.14" y="255.74" width="0.94" height="11.09" transform="translate(-93.39 255.19) rotate(-38.51)"/><rect class="cls-3" x="325.86" y="255.02" width="0.94" height="11.9" transform="translate(419.21 668.37) rotate(-141.49)"/><rect class="cls-3" x="321.68" y="256.88" width="1.33" height="39.61"/><polygon class="cls-10" points="299.56 258.8 322.67 251.63 344.81 259.94 299.56 258.8"/></g></svg>