<svg id="Layer_1" data-name="Layer 1" xmlns="http://www.w3.org/2000/svg" viewBox="0 0 460 460"><defs><style>.cls-1{fill:#64768d;}.cls-2{fill:#c3ebce;}.cls-3{fill:#f5dd55;}.cls-4{fill:#f3d632;}.cls-5{fill:#f6e26d;}.cls-6{fill:#213b5c;}.cls-7{fill:#9ba7b6;}</style></defs><title>newyork</title><rect class="cls-1" x="26.94" y="233.31" width="404.51" height="98.55"/><path class="cls-2" d="M139.81,266.93v65.51H93.41V266.93a23,23,0,0,1,22.93-23.17,23.49,23.49,0,0,1,23.47,23.17Z"/><path class="cls-3" d="M135.53,268.48v64H97.68v-64a18.93,18.93,0,0,1,37.85,0Z"/><path class="cls-2" d="M253.36,266.93v65.51H207V266.93a23,23,0,0,1,22.93-23.17,23.49,23.49,0,0,1,23.47,23.17Z"/><path class="cls-3" d="M249.09,268.48v64H211.24v-64a18.93,18.93,0,0,1,37.85,0Z"/><rect class="cls-3" x="113.92" y="238.59" width="5.38" height="12.83"/><rect class="cls-3" x="227.37" y="238.59" width="5.38" height="12.83"/><ellipse class="cls-2" cx="173.39" cy="257.03" rx="8.37" ry="14.01"/><polygon class="cls-1" points="425.93 188 35 188 102.21 182.24 363.84 182.24 425.93 188"/><rect class="cls-2" x="161.79" y="271.04" width="23.18" height="43.48"/><ellipse class="cls-2" cx="173.39" cy="257.03" rx="5.32" ry="8.91"/><rect class="cls-4" x="165.73" y="275.19" width="15.31" height="39.33"/><path class="cls-2" d="M366.92,266.93v65.51h-46.4V266.93a23,23,0,0,1,22.93-23.17,23.49,23.49,0,0,1,23.47,23.17Z"/><path class="cls-3" d="M362.64,268.48v64H324.79v-64a18.93,18.93,0,0,1,37.85,0Z"/><rect class="cls-3" x="340.92" y="238.59" width="5.38" height="12.83"/><ellipse class="cls-2" cx="286.94" cy="257.03" rx="8.37" ry="14.01"/><rect class="cls-2" x="275.35" y="271.04" width="23.18" height="43.48"/><ellipse class="cls-4" cx="286.94" cy="257.03" rx="5.32" ry="8.91"/><rect class="cls-4" x="279.28" y="275.19" width="15.31" height="39.33"/><rect class="cls-5" x="26.21" y="231.11" width="407.71" height="2.43"/><polygon class="cls-5" points="433.91 226.25 26.21 226.25 21.32 222.56 438.79 222.56 433.91 226.25"/><rect class="cls-1" x="28.43" y="210.9" width="403.26" height="7.63"/><polygon class="cls-6" points="431.69 231.11 28.43 231.11 30.19 226.25 429.93 226.25 431.69 231.11"/><rect class="cls-7" x="21.32" y="219.88" width="417.47" height="2.68"/><rect class="cls-1" x="31.02" y="190.8" width="398.9" height="3.04"/><rect class="cls-1" x="35" y="188" width="390.93" height="2.8"/><polygon class="cls-7" points="438.79 219.88 21.32 219.88 16.43 218.21 16.43 217.19 438.79 217.19 438.79 219.88"/><polygon class="cls-1" points="431.69 210.9 28.43 210.9 31.98 208.71 428.15 208.71 431.69 210.9"/><rect class="cls-1" x="32.06" y="197.19" width="396.09" height="11.52"/><rect class="cls-2" x="159.02" y="192.52" width="27.63" height="21.95"/><rect class="cls-2" x="274.27" y="193.84" width="27.63" height="20.63"/><rect class="cls-5" x="32.06" y="192.52" width="396.09" height="4.67"/><rect class="cls-7" x="24.21" y="314.33" width="57.71" height="10.78"/><rect class="cls-7" x="23.97" y="326.22" width="58.59" height="3.35"/><rect class="cls-7" x="73.83" y="192.38" width="18.84" height="19"/><polygon class="cls-6" points="97.77 217.44 68.73 217.44 73.83 211.38 92.67 211.38 97.77 217.44"/><polygon class="cls-6" points="168.59 217.44 139.55 217.44 144.65 211.38 163.49 211.38 168.59 217.44"/><rect class="cls-6" x="71.7" y="189.58" width="23.31" height="2.8"/><rect class="cls-7" x="144.65" y="192.38" width="18.84" height="19"/><rect class="cls-6" x="142.52" y="189.58" width="23.31" height="2.8"/><rect class="cls-7" x="298.5" y="192.38" width="18.84" height="19"/><polygon class="cls-6" points="322.44 217.44 293.4 217.44 298.5 211.38 317.34 211.38 322.44 217.44"/><polygon class="cls-6" points="393.25 217.44 364.22 217.44 369.32 211.38 388.16 211.38 393.25 217.44"/><rect class="cls-6" x="296.37" y="189.58" width="23.31" height="2.8"/><rect class="cls-7" x="369.32" y="192.38" width="18.84" height="19"/><rect class="cls-6" x="367.18" y="189.58" width="23.31" height="2.8"/><rect class="cls-1" x="100.84" y="174.79" width="263" height="7.44"/><rect class="cls-7" x="23.24" y="329.09" width="59.32" height="3.35"/><polygon class="cls-7" points="82.33 326.22 81.92 325.1 80.05 325.1 32.62 325.1 24.21 325.1 23.74 326.22 32.62 326.22 32.62 326.22 82.33 326.22"/><rect class="cls-7" x="25.62" y="310.9" width="54.95" height="3.43"/><polygon class="cls-7" points="80.56 310.9 25.62 310.9 27.87 309.19 78.31 309.19 80.56 310.9"/><rect class="cls-7" x="377.61" y="314.33" width="57.71" height="10.78" transform="translate(812.93 639.44) rotate(-180)"/><rect class="cls-7" x="376.96" y="326.22" width="58.59" height="3.35" transform="translate(812.52 655.79) rotate(-180)"/><rect class="cls-7" x="376.96" y="329.09" width="59.32" height="3.35" transform="translate(813.25 661.53) rotate(-180)"/><polygon class="cls-7" points="377.2 326.22 377.61 325.1 379.48 325.1 426.91 325.1 435.31 325.1 435.79 326.22 426.91 326.22 426.91 326.22 377.2 326.22"/><rect class="cls-7" x="378.96" y="310.9" width="54.95" height="3.43" transform="translate(812.87 625.23) rotate(-180)"/><polygon class="cls-7" points="378.96 310.9 433.91 310.9 431.65 309.19 381.22 309.19 378.96 310.9"/><rect class="cls-6" x="73.26" y="241.32" width="5.04" height="67.86"/><rect class="cls-5" x="81.74" y="238.76" width="12.56" height="2.11"/><polygon class="cls-5" points="94.3 240.87 81.74 240.87 83.76 241.77 92.28 241.77 94.3 240.87"/><rect class="cls-5" x="71.92" y="238.76" width="7.73" height="2.11"/><polygon class="cls-5" points="79.65 240.87 71.92 240.87 72.51 241.77 79.06 241.77 79.65 240.87"/><rect class="cls-6" x="83.76" y="241.77" width="8.52" height="67.41"/><rect class="cls-7" x="79.58" y="312.73" width="16.29" height="19.71"/><polygon class="cls-7" points="95.87 312.73 79.58 312.73 82.05 310.89 93.41 310.89 95.87 312.73"/><rect class="cls-7" x="82.06" y="309.19" width="11.35" height="1.7"/><rect class="cls-6" x="381.31" y="240.54" width="5.04" height="68.65" transform="translate(767.66 549.73) rotate(-180)"/><rect class="cls-5" x="365.32" y="238.76" width="12.56" height="2.11" transform="translate(743.2 479.63) rotate(-180)"/><polygon class="cls-5" points="365.32 240.87 377.88 240.87 375.86 241.77 367.34 241.77 365.32 240.87"/><rect class="cls-5" x="379.97" y="238.76" width="7.73" height="2.11" transform="translate(767.66 479.63) rotate(-180)"/><polygon class="cls-5" points="379.97 240.87 387.69 240.87 387.11 241.77 380.56 241.77 379.97 240.87"/><rect class="cls-6" x="367.34" y="241.77" width="8.52" height="67.41" transform="translate(743.2 550.96) rotate(-180)"/><rect class="cls-7" x="363.75" y="312.73" width="16.29" height="19.71" transform="translate(743.78 645.17) rotate(-180)"/><polygon class="cls-7" points="363.75 312.73 380.03 312.73 377.57 310.89 366.21 310.89 363.75 312.73"/><rect class="cls-7" x="366.21" y="309.19" width="11.35" height="1.7" transform="translate(743.77 620.08) rotate(-180)"/><rect class="cls-5" x="139.12" y="238.76" width="12.56" height="2.11"/><polygon class="cls-5" points="151.69 240.87 139.13 240.87 141.15 241.77 149.67 241.77 151.69 240.87"/><rect class="cls-6" x="141.15" y="241.77" width="8.52" height="67.41"/><rect class="cls-7" x="136.97" y="312.73" width="16.29" height="19.71"/><polygon class="cls-7" points="153.26 312.73 136.97 312.73 139.43 310.89 150.8 310.89 153.26 312.73"/><rect class="cls-7" x="139.45" y="309.19" width="11.35" height="1.7"/><rect class="cls-5" x="152.56" y="238.76" width="12.56" height="2.11"/><polygon class="cls-5" points="165.12 240.87 152.56 240.87 154.58 241.77 163.1 241.77 165.12 240.87"/><rect class="cls-6" x="154.58" y="241.77" width="8.52" height="67.41"/><rect class="cls-7" x="150.4" y="312.73" width="16.29" height="19.71"/><polygon class="cls-7" points="166.69 312.73 150.4 312.73 152.87 310.89 164.23 310.89 166.69 312.73"/><rect class="cls-7" x="152.88" y="309.19" width="11.35" height="1.7"/><rect class="cls-5" x="181.86" y="238.76" width="12.56" height="2.11"/><polygon class="cls-5" points="194.42 240.87 181.86 240.87 183.88 241.77 192.4 241.77 194.42 240.87"/><rect class="cls-6" x="183.88" y="241.77" width="8.52" height="67.41"/><rect class="cls-7" x="179.71" y="312.73" width="16.29" height="19.71"/><polygon class="cls-7" points="195.99 312.73 179.71 312.73 182.17 310.89 193.53 310.89 195.99 312.73"/><rect class="cls-7" x="182.18" y="309.19" width="11.35" height="1.7"/><rect class="cls-5" x="195.29" y="238.76" width="12.56" height="2.11"/><polygon class="cls-5" points="207.85 240.87 195.29 240.87 197.31 241.77 205.83 241.77 207.85 240.87"/><rect class="cls-6" x="197.31" y="241.77" width="8.52" height="67.41"/><rect class="cls-7" x="193.14" y="312.73" width="16.29" height="19.71"/><polygon class="cls-7" points="209.43 312.73 193.14 312.73 195.6 310.89 206.96 310.89 209.43 312.73"/><rect class="cls-7" x="195.61" y="309.19" width="11.35" height="1.7"/><rect class="cls-5" x="251.46" y="238.76" width="12.56" height="2.11"/><polygon class="cls-5" points="264.02 240.87 251.46 240.87 253.48 241.77 262 241.77 264.02 240.87"/><rect class="cls-6" x="253.48" y="241.77" width="8.52" height="67.41"/><rect class="cls-7" x="249.31" y="312.73" width="16.29" height="19.71"/><polygon class="cls-7" points="265.59 312.73 249.31 312.73 251.77 310.89 263.13 310.89 265.59 312.73"/><rect class="cls-7" x="251.78" y="309.19" width="11.35" height="1.7"/><rect class="cls-5" x="266.11" y="238.76" width="12.56" height="2.11"/><polygon class="cls-5" points="278.67 240.87 266.11 240.87 268.13 241.77 276.65 241.77 278.67 240.87"/><rect class="cls-6" x="268.13" y="241.77" width="8.52" height="67.41"/><rect class="cls-7" x="263.96" y="312.73" width="16.29" height="19.71"/><polygon class="cls-7" points="280.24 312.73 263.96 312.73 266.42 310.89 277.78 310.89 280.24 312.73"/><rect class="cls-7" x="266.43" y="309.19" width="11.35" height="1.7"/><rect class="cls-5" x="295.41" y="238.76" width="12.56" height="2.11"/><polygon class="cls-5" points="307.98 240.87 295.41 240.87 297.44 241.77 305.96 241.77 307.98 240.87"/><rect class="cls-6" x="297.44" y="241.77" width="8.52" height="67.41"/><rect class="cls-7" x="293.26" y="312.73" width="16.29" height="19.71"/><polygon class="cls-7" points="309.55 312.73 293.26 312.73 295.72 310.89 307.09 310.89 309.55 312.73"/><rect class="cls-7" x="295.74" y="309.19" width="11.35" height="1.7"/><rect class="cls-5" x="308.85" y="238.76" width="12.56" height="2.11"/><polygon class="cls-5" points="321.41 240.87 308.85 240.87 310.87 241.77 319.39 241.77 321.41 240.87"/><rect class="cls-6" x="310.87" y="241.77" width="8.52" height="67.41"/><rect class="cls-7" x="306.69" y="312.73" width="16.29" height="19.71"/><polygon class="cls-7" points="322.98 312.73 306.69 312.73 309.15 310.89 320.52 310.89 322.98 312.73"/><rect class="cls-7" x="309.17" y="309.19" width="11.35" height="1.7"/><rect class="cls-7" x="27.49" y="233.54" width="404.16" height="5.22"/><ellipse class="cls-5" cx="229.54" cy="311.3" rx="3.2" ry="5.11"/><ellipse class="cls-5" cx="230.09" cy="305.03" rx="1.21" ry="1.4"/><path class="cls-5" d="M229.26,318.81h0c-.53,0-1.07-2-1.11-2.58l-.26-4.86a1,1,0,0,1,.91-1.09h0a1,1,0,0,1,1,1l.26,4.91C230.12,316.76,229.79,318.78,229.26,318.81Z"/><rect class="cls-5" x="228.76" y="315.77" width="0.78" height="4.47" transform="translate(-12.17 9.13) rotate(-2.22)"/><path class="cls-5" d="M231,318.11h0c-.36,0-.63-2.07-.63-2.64l0-4.87c0-.58.29-1,.65-1h0c.36,0,.64.47.64,1l0,4.92C231.63,316.1,231.33,318.11,231,318.11Z"/><rect class="cls-5" x="230.61" y="315.06" width="0.78" height="4.47" transform="translate(6.06 -4.33) rotate(1.09)"/><rect class="cls-6" x="227.37" y="319.23" width="6.68" height="15.7"/><rect class="cls-5" x="195.98" y="193.6" width="70.82" height="16.81"/><path class="cls-6" d="M68.12,189.33c-2.29-4.33-8.71-7.46-16.3-7.46s-13.9,3.07-16.24,7.35v1.53H68.12Z"/><path class="cls-5" d="M278.83,192.52c0-22.16-21.25-40.13-47.42-40.13s-47.4,18-47.42,40.13Z"/><path class="cls-6" d="M272.12,188.45c-7.48-10.76-22.89-18.15-40.71-18.15s-33.27,7.41-40.74,18.19v3.34h81.46Z"/><path class="cls-3" d="M264,189.31c-6-8.6-18.3-14.51-32.56-14.51s-26.61,5.93-32.58,14.55v.59H264Z"/><path class="cls-5" d="M223.12,153.83s-16.62-4.11-17.3-6.68,11.48-2.91,11.48-2.91-3.94-3.94-1.37-6.68,3.6,1,3.6,1l1.88-1-.34-2.57-3.94-2.4-3.94-1,2.4-1.88s3.77,3.08,5.31,3.08c0,0,2.06-3.25,5.65-3.08,0,0,0-3.6,1.71-3.25a13.2,13.2,0,0,0,3.94,0s.27-2.29,2-.84,2.14,2.22.43,2.9l-.34,2.14s1.28-.26,6.41,4.19l1-1.11s0-3.84,1.37-4,2.48-.51,3.42,1.11c1.45,1.2.51,2.65-.68,3.42s-2.31,1.28-2.65,1.88.26,2.73-.85,4.19-2.65,2.39-2.73,3.67c1.11.68,7.09-.51,11.62,1.2s6.24,2.56,4.19,3.42-16.4,5.72-16.4,5.72Z"/><circle class="cls-2" cx="232" cy="177.91" r="13.2"/><circle class="cls-1" cx="232" cy="177.91" r="10.39"/><rect class="cls-2" x="37.63" y="190.75" width="27.63" height="21.95"/><path class="cls-6" d="M426.69,189.33c-2.29-4.33-8.71-7.46-16.3-7.46s-13.9,3.07-16.24,7.35v1.53h32.54Z"/><rect class="cls-2" x="396.61" y="190.75" width="27.63" height="21.95"/><polygon class="cls-6" points="70.36 217.32 32.62 217.32 37.71 211.26 65.26 211.26 70.36 217.32"/><polygon class="cls-6" points="429.34 217.32 391.59 217.32 396.69 211.26 424.24 211.26 429.34 217.32"/><polygon class="cls-7" points="32.06 219.88 438.81 219.88 443.57 218.21 443.57 217.19 32.06 217.19 32.06 219.88"/></svg>