<svg id="Layer_1" data-name="Layer 1" xmlns="http://www.w3.org/2000/svg" viewBox="0 0 1003 460"><defs><style>.cls-1{fill:#213b5c;}.cls-2{fill:none;stroke:#213b5c;stroke-miterlimit:10;stroke-width:0.5px;}</style></defs><title>newyork</title><polygon class="cls-1" points="369.63 307.44 349.76 307.44 351.88 161.8 367.51 161.8 369.63 307.44"/><rect class="cls-1" x="349.09" y="152.2" width="21.19" height="10.6"/><rect class="cls-1" x="355.82" y="143.3" width="7.74" height="17.81" rx="1.83" ry="1.83"/><rect class="cls-1" x="15.79" y="219.49" width="971.23" height="12.72"/><rect class="cls-1" x="339.07" y="304.76" width="41.24" height="11.94"/><polygon class="cls-1" points="34.01 306.26 14.14 306.26 16.27 219.49 31.9 219.49 34.01 306.26"/><rect class="cls-1" x="10.48" y="304.76" width="27.18" height="11.94"/><polygon class="cls-1" points="802.49 309.21 786.4 309.21 788.12 184.35 800.78 184.35 802.49 309.21"/><rect class="cls-1" x="785.86" y="176.57" width="17.16" height="8.58"/><rect class="cls-1" x="791.31" y="169.36" width="6.27" height="14.42" rx="1.38" ry="1.38"/><rect class="cls-1" x="777.74" y="307.03" width="33.4" height="9.67"/><path class="cls-1" d="M349.09,154.75V152.2s-124.56,50.71-333.31,66v2.1S211.35,208,349.09,154.75Z"/><path class="cls-2" d="M369.88,152.6s243.94,128.09,416.37,24.51"/><path class="cls-2" d="M369.88,159S589.66,280.4,786.15,183.18"/><rect class="cls-1" x="345.37" y="155.03" width="0.65" height="65.37"/><rect class="cls-1" x="342.6" y="155.03" width="0.65" height="65.37"/><rect class="cls-1" x="338.37" y="158.11" width="0.65" height="64.41"/><rect class="cls-1" x="335.6" y="158.11" width="0.65" height="64.41"/><rect class="cls-1" x="330.54" y="160.75" width="0.65" height="61.77"/><rect class="cls-1" x="327.77" y="160.75" width="0.65" height="61.77"/><rect class="cls-1" x="323.53" y="163.5" width="0.65" height="59.03"/><rect class="cls-1" x="320.77" y="163.5" width="0.65" height="59.03"/><rect class="cls-1" x="316.11" y="166.25" width="0.65" height="56.27"/><rect class="cls-1" x="313.35" y="166.25" width="0.65" height="56.27"/><rect class="cls-1" x="308.37" y="168.76" width="0.65" height="53.76"/><rect class="cls-1" x="305.61" y="168.76" width="0.65" height="53.76"/><rect class="cls-1" x="300.63" y="171.16" width="0.65" height="51.36"/><rect class="cls-1" x="297.87" y="171.16" width="0.65" height="51.36"/><rect class="cls-1" x="292.89" y="173.54" width="0.65" height="48.99"/><rect class="cls-1" x="290.13" y="173.54" width="0.65" height="48.99"/><rect class="cls-1" x="285.15" y="175.46" width="0.65" height="47.06"/><rect class="cls-1" x="282.39" y="176.84" width="0.65" height="45.68"/><rect class="cls-1" x="277.47" y="177.96" width="0.65" height="44.56"/><rect class="cls-1" x="274.7" y="177.96" width="0.65" height="44.56"/><rect class="cls-1" x="269.81" y="180.09" width="0.65" height="42.43"/><rect class="cls-1" x="267.05" y="180.09" width="0.65" height="42.43"/><rect class="cls-1" x="262.16" y="182.21" width="0.65" height="40.31"/><rect class="cls-1" x="259.4" y="182.21" width="0.65" height="40.31"/><rect class="cls-1" x="254.23" y="184.13" width="0.65" height="38.39"/><rect class="cls-1" x="251.47" y="184.13" width="0.65" height="38.39"/><rect class="cls-1" x="246.49" y="186.36" width="0.65" height="36.16"/><rect class="cls-1" x="243.73" y="186.36" width="0.65" height="36.16"/><rect class="cls-1" x="238.75" y="187.96" width="0.65" height="34.56"/><rect class="cls-1" x="235.98" y="187.96" width="0.65" height="34.56"/><rect class="cls-1" x="231.07" y="189.84" width="0.65" height="32.69"/><rect class="cls-1" x="228.3" y="189.84" width="0.65" height="32.69"/><rect class="cls-1" x="223.41" y="191.72" width="0.65" height="30.8"/><rect class="cls-1" x="220.65" y="191.72" width="0.65" height="30.8"/><rect class="cls-1" x="215.76" y="193.58" width="0.65" height="28.94"/><rect class="cls-1" x="212.99" y="193.58" width="0.65" height="28.94"/><rect class="cls-1" x="208.02" y="195.29" width="0.65" height="27.23"/><rect class="cls-1" x="205.25" y="195.29" width="0.65" height="27.23"/><rect class="cls-1" x="200.33" y="195.79" width="0.65" height="26.73"/><rect class="cls-1" x="197.57" y="195.79" width="0.65" height="26.73"/><rect class="cls-1" x="192.68" y="196.72" width="0.65" height="25.8"/><rect class="cls-1" x="189.92" y="196.72" width="0.65" height="25.8"/><rect class="cls-1" x="185.03" y="198.77" width="0.65" height="23.75"/><rect class="cls-1" x="182.26" y="198.77" width="0.65" height="23.75"/><rect class="cls-1" x="177.38" y="198.77" width="0.65" height="23.75"/><rect class="cls-1" x="174.62" y="200.56" width="0.65" height="21.96"/><rect class="cls-1" x="169.73" y="200.56" width="0.65" height="21.96"/><rect class="cls-1" x="166.97" y="200.56" width="0.65" height="21.96"/><rect class="cls-1" x="161.99" y="201.68" width="0.65" height="20.84"/><rect class="cls-1" x="159.22" y="201.68" width="0.65" height="20.84"/><rect class="cls-1" x="154.31" y="201.68" width="0.65" height="20.84"/><rect class="cls-1" x="151.54" y="202.91" width="0.65" height="19.61"/><rect class="cls-1" x="146.65" y="203.78" width="0.65" height="18.74"/><rect class="cls-1" x="143.89" y="203.78" width="0.65" height="18.74"/><rect class="cls-1" x="139" y="205.72" width="0.65" height="16.8"/><rect class="cls-1" x="136.23" y="205.72" width="0.65" height="16.8"/><rect class="cls-1" x="131.41" y="206.97" width="0.65" height="15.55"/><rect class="cls-1" x="128.65" y="206.97" width="0.65" height="15.55"/><rect class="cls-1" x="123.76" y="207.4" width="0.65" height="15.12"/><rect class="cls-1" x="120.99" y="207.4" width="0.65" height="15.12"/><circle class="cls-1" cx="345.69" cy="208.06" r="0.78"/><circle class="cls-1" cx="345.69" cy="210.02" r="0.78"/><circle class="cls-1" cx="342.93" cy="208.56" r="0.78"/><circle class="cls-1" cx="342.93" cy="210.51" r="0.78"/><circle class="cls-1" cx="338.69" cy="208.02" r="0.78"/><circle class="cls-1" cx="338.69" cy="209.98" r="0.78"/><circle class="cls-1" cx="335.92" cy="208.51" r="0.78"/><circle class="cls-1" cx="335.92" cy="210.47" r="0.78"/><circle class="cls-1" cx="330.86" cy="207.62" r="0.78"/><circle class="cls-1" cx="330.86" cy="209.58" r="0.78"/><circle class="cls-1" cx="328.09" cy="208.22" r="0.78"/><circle class="cls-1" cx="328.09" cy="210.17" r="0.78"/><circle class="cls-1" cx="323.88" cy="207.72" r="0.78"/><circle class="cls-1" cx="323.88" cy="209.68" r="0.78"/><circle class="cls-1" cx="321.11" cy="208.32" r="0.78"/><circle class="cls-1" cx="321.11" cy="210.27" r="0.78"/><circle class="cls-1" cx="316.45" cy="207.62" r="0.78"/><circle class="cls-1" cx="316.45" cy="209.58" r="0.78"/><circle class="cls-1" cx="313.68" cy="208.22" r="0.78"/><circle class="cls-1" cx="313.68" cy="210.17" r="0.78"/><circle class="cls-1" cx="308.71" cy="207.82" r="0.78"/><circle class="cls-1" cx="308.71" cy="209.78" r="0.78"/><circle class="cls-1" cx="305.95" cy="208.41" r="0.78"/><circle class="cls-1" cx="305.95" cy="210.37" r="0.78"/><circle class="cls-1" cx="300.98" cy="207.72" r="0.78"/><circle class="cls-1" cx="300.98" cy="209.68" r="0.78"/><circle class="cls-1" cx="298.22" cy="208.32" r="0.78"/><circle class="cls-1" cx="298.22" cy="210.27" r="0.78"/><circle class="cls-1" cx="293.23" cy="207.82" r="0.78"/><circle class="cls-1" cx="293.23" cy="209.78" r="0.78"/><circle class="cls-1" cx="290.46" cy="208.41" r="0.78"/><circle class="cls-1" cx="290.46" cy="210.37" r="0.78"/><circle class="cls-1" cx="285.44" cy="207.82" r="0.78"/><circle class="cls-1" cx="285.44" cy="209.78" r="0.78"/><circle class="cls-1" cx="282.68" cy="208.41" r="0.78"/><circle class="cls-1" cx="282.68" cy="210.37" r="0.78"/><circle class="cls-1" cx="277.78" cy="208.11" r="0.78"/><circle class="cls-1" cx="277.78" cy="210.07" r="0.78"/><circle class="cls-1" cx="275.01" cy="208.71" r="0.78"/><circle class="cls-1" cx="275.01" cy="210.66" r="0.78"/><circle class="cls-1" cx="270.15" cy="207.92" r="0.78"/><circle class="cls-1" cx="270.15" cy="209.88" r="0.78"/><circle class="cls-1" cx="267.38" cy="208.51" r="0.78"/><circle class="cls-1" cx="267.38" cy="210.47" r="0.78"/><circle class="cls-1" cx="262.49" cy="207.82" r="0.78"/><circle class="cls-1" cx="262.49" cy="209.78" r="0.78"/><circle class="cls-1" cx="259.72" cy="208.41" r="0.78"/><circle class="cls-1" cx="259.72" cy="210.37" r="0.78"/><circle class="cls-1" cx="254.56" cy="208.5" r="0.78"/><circle class="cls-1" cx="254.56" cy="210.46" r="0.78"/><circle class="cls-1" cx="251.79" cy="209.1" r="0.78"/><circle class="cls-1" cx="251.79" cy="211.05" r="0.78"/><circle class="cls-1" cx="246.83" cy="207.6" r="0.78"/><circle class="cls-1" cx="246.83" cy="209.56" r="0.78"/><circle class="cls-1" cx="244.06" cy="208.19" r="0.78"/><circle class="cls-1" cx="244.06" cy="210.15" r="0.78"/><circle class="cls-1" cx="239.04" cy="208.28" r="0.78"/><circle class="cls-1" cx="239.04" cy="210.24" r="0.78"/><circle class="cls-1" cx="236.28" cy="208.88" r="0.78"/><circle class="cls-1" cx="236.28" cy="210.83" r="0.78"/><circle class="cls-1" cx="231.39" cy="208.68" r="0.78"/><circle class="cls-1" cx="231.39" cy="210.64" r="0.78"/><circle class="cls-1" cx="228.62" cy="209.27" r="0.78"/><circle class="cls-1" cx="228.62" cy="211.23" r="0.78"/><circle class="cls-1" cx="223.76" cy="208.18" r="0.78"/><circle class="cls-1" cx="223.76" cy="210.14" r="0.78"/><circle class="cls-1" cx="220.99" cy="208.78" r="0.78"/><circle class="cls-1" cx="220.99" cy="210.74" r="0.78"/><circle class="cls-1" cx="216.11" cy="207.4" r="0.78"/><circle class="cls-1" cx="216.11" cy="209.36" r="0.78"/><circle class="cls-1" cx="213.34" cy="208" r="0.78"/><circle class="cls-1" cx="213.34" cy="209.95" r="0.78"/><circle class="cls-1" cx="208.33" cy="208.28" r="0.78"/><circle class="cls-1" cx="208.33" cy="210.24" r="0.78"/><circle class="cls-1" cx="205.57" cy="208.88" r="0.78"/><circle class="cls-1" cx="205.57" cy="210.83" r="0.78"/><circle class="cls-1" cx="200.66" cy="208.08" r="0.78"/><circle class="cls-1" cx="200.66" cy="210.04" r="0.78"/><circle class="cls-1" cx="197.89" cy="208.68" r="0.78"/><circle class="cls-1" cx="197.89" cy="210.64" r="0.78"/><circle class="cls-1" cx="193.02" cy="207.68" r="0.78"/><circle class="cls-1" cx="193.02" cy="209.64" r="0.78"/><circle class="cls-1" cx="190.26" cy="208.28" r="0.78"/><circle class="cls-1" cx="190.26" cy="210.24" r="0.78"/><circle class="cls-1" cx="185.37" cy="208.78" r="0.78"/><circle class="cls-1" cx="185.37" cy="210.74" r="0.78"/><circle class="cls-1" cx="182.61" cy="209.37" r="0.78"/><circle class="cls-1" cx="182.61" cy="211.33" r="0.78"/><circle class="cls-1" cx="177.72" cy="210.05" r="0.78"/><circle class="cls-1" cx="177.72" cy="212.01" r="0.78"/><circle class="cls-1" cx="174.95" cy="210.65" r="0.78"/><circle class="cls-1" cx="174.95" cy="212.61" r="0.78"/><circle class="cls-1" cx="170.07" cy="209.74" r="0.78"/><circle class="cls-1" cx="170.07" cy="211.7" r="0.78"/><circle class="cls-1" cx="167.3" cy="210.34" r="0.78"/><circle class="cls-1" cx="167.3" cy="212.3" r="0.78"/><circle class="cls-1" cx="162.32" cy="211.2" r="0.78"/><circle class="cls-1" cx="162.32" cy="213.16" r="0.78"/><circle class="cls-1" cx="159.55" cy="211.8" r="0.78"/><circle class="cls-1" cx="159.55" cy="213.76" r="0.78"/><circle class="cls-1" cx="154.64" cy="211.88" r="0.78"/><circle class="cls-1" cx="154.64" cy="213.84" r="0.78"/><circle class="cls-1" cx="151.88" cy="212.48" r="0.78"/><circle class="cls-1" cx="151.88" cy="214.44" r="0.78"/><circle class="cls-1" cx="146.97" cy="211.8" r="0.78"/><circle class="cls-1" cx="146.97" cy="213.76" r="0.78"/><circle class="cls-1" cx="144.2" cy="212.4" r="0.78"/><circle class="cls-1" cx="144.2" cy="214.35" r="0.78"/><circle class="cls-1" cx="139.29" cy="212.48" r="0.78"/><circle class="cls-1" cx="139.29" cy="214.44" r="0.78"/><circle class="cls-1" cx="136.53" cy="213.08" r="0.78"/><circle class="cls-1" cx="136.53" cy="215.04" r="0.78"/><circle class="cls-1" cx="131.77" cy="213.5" r="0.78"/><circle class="cls-1" cx="131.77" cy="215.45" r="0.78"/><circle class="cls-1" cx="129.01" cy="214.09" r="0.78"/><circle class="cls-1" cx="129.01" cy="216.05" r="0.78"/><circle class="cls-1" cx="124.06" cy="213.4" r="0.78"/><circle class="cls-1" cx="124.06" cy="215.35" r="0.78"/><circle class="cls-1" cx="121.29" cy="213.99" r="0.78"/><circle class="cls-1" cx="121.29" cy="215.95" r="0.78"/><rect class="cls-1" x="116.37" y="208.67" width="0.65" height="15.87"/><rect class="cls-1" x="113.6" y="208.67" width="0.65" height="15.87"/><rect class="cls-1" x="108.72" y="209.42" width="0.65" height="15.12"/><rect class="cls-1" x="105.95" y="209.42" width="0.65" height="15.12"/><rect class="cls-1" x="101.13" y="210.58" width="0.65" height="13.96"/><rect class="cls-1" x="98.36" y="210.58" width="0.65" height="13.96"/><rect class="cls-1" x="93.48" y="211.25" width="0.65" height="13.3"/><rect class="cls-1" x="90.71" y="211.25" width="0.65" height="13.3"/><circle class="cls-1" cx="116.69" cy="213.82" r="0.78"/><circle class="cls-1" cx="116.69" cy="215.78" r="0.78"/><circle class="cls-1" cx="113.92" cy="214.42" r="0.78"/><circle class="cls-1" cx="113.92" cy="216.37" r="0.78"/><circle class="cls-1" cx="109.01" cy="214.5" r="0.78"/><circle class="cls-1" cx="109.01" cy="216.46" r="0.78"/><circle class="cls-1" cx="106.24" cy="215.1" r="0.78"/><circle class="cls-1" cx="106.24" cy="217.06" r="0.78"/><circle class="cls-1" cx="101.49" cy="215.52" r="0.78"/><circle class="cls-1" cx="101.49" cy="217.47" r="0.78"/><circle class="cls-1" cx="98.72" cy="216.11" r="0.78"/><circle class="cls-1" cx="98.72" cy="218.07" r="0.78"/><circle class="cls-1" cx="93.8" cy="215.58" r="0.7"/><circle class="cls-1" cx="93.8" cy="217.33" r="0.7"/><circle class="cls-1" cx="91.03" cy="216.11" r="0.7"/><circle class="cls-1" cx="91.03" cy="217.85" r="0.7"/><rect class="cls-1" x="85" y="212.48" width="0.65" height="12.06"/><rect class="cls-1" x="82.23" y="212.48" width="0.65" height="12.06"/><circle class="cls-1" cx="85.32" cy="216.43" r="0.7"/><circle class="cls-1" cx="82.56" cy="216.95" r="0.7"/><rect class="cls-1" x="76.52" y="213.72" width="0.65" height="10.82"/><rect class="cls-1" x="73.76" y="213.72" width="0.65" height="10.82"/><circle class="cls-1" cx="76.85" cy="216.9" r="0.7"/><circle class="cls-1" cx="74.08" cy="217.42" r="0.7"/><rect class="cls-1" x="68.05" y="214.74" width="0.65" height="11.93"/><rect class="cls-1" x="65.28" y="214.74" width="0.65" height="11.93"/><circle class="cls-1" cx="68.37" cy="217.7" r="0.7"/><circle class="cls-1" cx="65.6" cy="218.23" r="0.7"/><rect class="cls-1" x="59.57" y="215.84" width="0.65" height="10.82"/><rect class="cls-1" x="56.8" y="215.84" width="0.65" height="10.82"/><rect class="cls-1" x="51.09" y="216.85" width="0.65" height="11.93"/><rect class="cls-1" x="48.33" y="216.85" width="0.65" height="11.93"/><rect class="cls-1" x="42.62" y="217.96" width="0.65" height="10.82"/><rect class="cls-1" x="39.85" y="217.96" width="0.65" height="10.82"/><rect class="cls-1" x="34.14" y="218.25" width="0.65" height="11.93"/><rect class="cls-1" x="31.37" y="218.97" width="0.65" height="11.93"/><polygon class="cls-1" points="968.99 309.26 988.86 309.26 986.73 219.49 971.1 219.49 968.99 309.26"/><rect class="cls-1" x="965.34" y="304.76" width="27.18" height="11.94" transform="translate(1957.85 621.46) rotate(-180)"/><path class="cls-1" d="M987,217.26c-136.17-17.38-184-40.69-184-40.69v2.54c68.25,24.24,125.36,32.08,184,40.38Z"/><rect class="cls-1" x="806.1" y="179.88" width="0.65" height="45.74" transform="translate(1612.85 405.5) rotate(-180)"/><rect class="cls-1" x="808.87" y="179.88" width="0.65" height="45.74" transform="translate(1618.38 405.5) rotate(-180)"/><rect class="cls-1" x="813.11" y="182.03" width="0.65" height="45.07" transform="translate(1626.86 409.13) rotate(-180)"/><rect class="cls-1" x="815.87" y="182.03" width="0.65" height="45.07" transform="translate(1632.39 409.13) rotate(-180)"/><rect class="cls-1" x="820.94" y="183.88" width="0.65" height="43.22" transform="translate(1642.52 410.98) rotate(-180)"/><rect class="cls-1" x="823.7" y="185.75" width="0.65" height="41.35" transform="translate(1648.05 412.85) rotate(-180)"/><rect class="cls-1" x="827.94" y="186.7" width="0.65" height="44.77" transform="translate(1656.53 418.17) rotate(-180)"/><rect class="cls-1" x="830.71" y="186.97" width="0.65" height="40.13" transform="translate(1662.06 414.07) rotate(-180)"/><rect class="cls-1" x="835.36" y="188.47" width="0.65" height="38.63" transform="translate(1671.36 415.57) rotate(-180)"/><rect class="cls-1" x="838.12" y="189.43" width="0.65" height="37.67" transform="translate(1676.89 416.53) rotate(-180)"/><rect class="cls-1" x="843.11" y="191.31" width="0.65" height="35.62" transform="translate(1686.86 418.23) rotate(-180)"/><rect class="cls-1" x="845.87" y="191.31" width="0.65" height="35.62" transform="translate(1692.4 418.23) rotate(-180)"/><rect class="cls-1" x="850.85" y="192.72" width="0.65" height="34.21" transform="translate(1702.34 419.65) rotate(-180)"/><rect class="cls-1" x="853.61" y="194.18" width="0.65" height="32.76" transform="translate(1707.88 421.12) rotate(-180)"/><rect class="cls-1" x="858.58" y="195.21" width="0.65" height="31.89" transform="translate(1717.81 422.31) rotate(-180)"/><rect class="cls-1" x="861.35" y="195.21" width="0.65" height="31.89" transform="translate(1723.34 422.31) rotate(-180)"/><rect class="cls-1" x="866.32" y="196.54" width="0.65" height="30.57" transform="translate(1733.29 423.64) rotate(-180)"/><rect class="cls-1" x="869.09" y="198.42" width="0.65" height="28.69" transform="translate(1738.82 425.52) rotate(-180)"/><rect class="cls-1" x="874.01" y="198.59" width="0.65" height="28.51" transform="translate(1748.66 425.69) rotate(-180)"/><rect class="cls-1" x="876.77" y="199.25" width="0.65" height="27.85" transform="translate(1754.19 426.35) rotate(-180)"/><rect class="cls-1" x="881.66" y="200.81" width="0.65" height="26.39" transform="translate(1763.96 428.01) rotate(-180)"/><rect class="cls-1" x="884.42" y="200.91" width="0.65" height="26.28" transform="translate(1769.5 428.11) rotate(-180)"/><rect class="cls-1" x="889.35" y="202.27" width="0.65" height="25.73" transform="translate(1779.35 430.28) rotate(-180)"/><rect class="cls-1" x="892.12" y="203.23" width="0.65" height="24.77" transform="translate(1784.89 431.24) rotate(-180)"/><rect class="cls-1" x="897.28" y="203.76" width="0.65" height="24.25" transform="translate(1795.21 431.76) rotate(-180)"/><rect class="cls-1" x="900.05" y="204.46" width="0.65" height="23.54" transform="translate(1800.75 432.46) rotate(-180)"/><rect class="cls-1" x="904.98" y="205.69" width="0.65" height="22.83" transform="translate(1810.61 434.21) rotate(-180)"/><rect class="cls-1" x="907.75" y="205.69" width="0.65" height="22.83" transform="translate(1816.14 434.21) rotate(-180)"/><rect class="cls-1" x="912.72" y="207.12" width="0.65" height="21.4" transform="translate(1826.09 435.64) rotate(-180)"/><rect class="cls-1" x="915.49" y="207.83" width="0.65" height="20.69" transform="translate(1831.62 436.35) rotate(-180)"/><rect class="cls-1" x="920.41" y="208.54" width="0.65" height="20.91" transform="translate(1841.46 437.98) rotate(-180)"/><rect class="cls-1" x="923.17" y="208.54" width="0.65" height="20.91" transform="translate(1846.99 437.98) rotate(-180)"/><rect class="cls-1" x="928.06" y="209.65" width="0.65" height="20.29" transform="translate(1856.76 439.58) rotate(-180)"/><rect class="cls-1" x="930.83" y="209.65" width="0.65" height="20.29" transform="translate(1862.3 439.58) rotate(-180)"/><rect class="cls-1" x="935.71" y="210.96" width="0.65" height="18.98" transform="translate(1872.07 440.89) rotate(-180)"/><rect class="cls-1" x="938.48" y="210.96" width="0.65" height="18.98" transform="translate(1877.6 440.89) rotate(-180)"/><rect class="cls-1" x="943.45" y="211.71" width="0.65" height="18.23" transform="translate(1887.55 441.65) rotate(-180)"/><rect class="cls-1" x="946.22" y="211.71" width="0.65" height="18.23" transform="translate(1893.08 441.65) rotate(-180)"/><rect class="cls-1" x="951.14" y="213.42" width="0.65" height="16.52" transform="translate(1902.92 443.36) rotate(-180)"/><rect class="cls-1" x="953.9" y="213.42" width="0.65" height="16.52" transform="translate(1908.45 443.36) rotate(-180)"/><rect class="cls-1" x="958.79" y="213.99" width="0.65" height="15.95" transform="translate(1918.23 443.93) rotate(-180)"/><rect class="cls-1" x="961.56" y="214.86" width="0.65" height="15.08" transform="translate(1923.76 444.8) rotate(-180)"/><rect class="cls-1" x="966.44" y="215.71" width="0.65" height="13.88" transform="translate(1933.53 445.31) rotate(-180)"/><rect class="cls-1" x="969.21" y="215.71" width="0.65" height="13.88" transform="translate(1939.06 445.31) rotate(-180)"/><circle class="cls-1" cx="806.42" cy="211.24" r="0.78"/><circle class="cls-1" cx="806.42" cy="213.2" r="0.78"/><circle class="cls-1" cx="809.19" cy="211.73" r="0.78"/><circle class="cls-1" cx="809.19" cy="213.69" r="0.78"/><circle class="cls-1" cx="813.43" cy="211.19" r="0.78"/><circle class="cls-1" cx="813.43" cy="213.15" r="0.78"/><circle class="cls-1" cx="816.2" cy="211.69" r="0.78"/><circle class="cls-1" cx="816.2" cy="213.65" r="0.78"/><circle class="cls-1" cx="821.26" cy="210.8" r="0.78"/><circle class="cls-1" cx="821.26" cy="212.76" r="0.78"/><circle class="cls-1" cx="824.03" cy="211.39" r="0.78"/><circle class="cls-1" cx="824.03" cy="213.35" r="0.78"/><circle class="cls-1" cx="828.24" cy="210.9" r="0.78"/><circle class="cls-1" cx="828.24" cy="212.85" r="0.78"/><circle class="cls-1" cx="831.01" cy="211.49" r="0.78"/><circle class="cls-1" cx="831.01" cy="213.45" r="0.78"/><circle class="cls-1" cx="835.67" cy="210.8" r="0.78"/><circle class="cls-1" cx="835.67" cy="212.76" r="0.78"/><circle class="cls-1" cx="838.44" cy="211.39" r="0.78"/><circle class="cls-1" cx="838.44" cy="213.35" r="0.78"/><circle class="cls-1" cx="843.4" cy="211" r="0.78"/><circle class="cls-1" cx="843.4" cy="212.95" r="0.78"/><circle class="cls-1" cx="846.17" cy="211.59" r="0.78"/><circle class="cls-1" cx="846.17" cy="213.55" r="0.78"/><circle class="cls-1" cx="851.14" cy="210.9" r="0.78"/><circle class="cls-1" cx="851.14" cy="212.85" r="0.78"/><circle class="cls-1" cx="853.9" cy="211.49" r="0.78"/><circle class="cls-1" cx="853.9" cy="213.45" r="0.78"/><circle class="cls-1" cx="858.89" cy="211" r="0.78"/><circle class="cls-1" cx="858.89" cy="212.95" r="0.78"/><circle class="cls-1" cx="861.66" cy="211.59" r="0.78"/><circle class="cls-1" cx="861.66" cy="213.55" r="0.78"/><circle class="cls-1" cx="866.68" cy="211" r="0.78"/><circle class="cls-1" cx="866.68" cy="212.95" r="0.78"/><circle class="cls-1" cx="869.44" cy="211.59" r="0.78"/><circle class="cls-1" cx="869.44" cy="213.55" r="0.78"/><circle class="cls-1" cx="874.34" cy="211.29" r="0.78"/><circle class="cls-1" cx="874.34" cy="213.25" r="0.78"/><circle class="cls-1" cx="877.11" cy="211.88" r="0.78"/><circle class="cls-1" cx="877.11" cy="213.84" r="0.78"/><circle class="cls-1" cx="881.97" cy="211.1" r="0.78"/><circle class="cls-1" cx="881.97" cy="213.05" r="0.78"/><circle class="cls-1" cx="884.74" cy="211.69" r="0.78"/><circle class="cls-1" cx="884.74" cy="213.65" r="0.78"/><circle class="cls-1" cx="889.67" cy="212.34" r="0.78"/><circle class="cls-1" cx="889.67" cy="214.3" r="0.78"/><circle class="cls-1" cx="892.44" cy="212.94" r="0.78"/><circle class="cls-1" cx="892.44" cy="214.9" r="0.78"/><circle class="cls-1" cx="897.6" cy="213.02" r="0.78"/><circle class="cls-1" cx="897.6" cy="214.98" r="0.78"/><circle class="cls-1" cx="900.37" cy="213.62" r="0.78"/><circle class="cls-1" cx="900.37" cy="215.58" r="0.78"/><circle class="cls-1" cx="905.29" cy="212.89" r="0.78"/><circle class="cls-1" cx="905.29" cy="214.85" r="0.78"/><circle class="cls-1" cx="908.06" cy="213.49" r="0.78"/><circle class="cls-1" cx="908.06" cy="215.45" r="0.78"/><circle class="cls-1" cx="913.07" cy="213.58" r="0.78"/><circle class="cls-1" cx="913.07" cy="215.53" r="0.78"/><circle class="cls-1" cx="915.84" cy="214.17" r="0.78"/><circle class="cls-1" cx="915.84" cy="216.13" r="0.78"/><circle class="cls-1" cx="920.73" cy="215.35" r="0.78"/><circle class="cls-1" cx="920.73" cy="217.31" r="0.78"/><circle class="cls-1" cx="923.5" cy="215.95" r="0.78"/><circle class="cls-1" cx="923.5" cy="217.91" r="0.78"/><circle class="cls-1" cx="928.36" cy="215.6" r="0.78"/><circle class="cls-1" cx="928.36" cy="217.55" r="0.78"/><circle class="cls-1" cx="931.13" cy="216.19" r="0.78"/><circle class="cls-1" cx="931.13" cy="218.15" r="0.78"/><circle class="cls-1" cx="936.01" cy="214.82" r="0.78"/><circle class="cls-1" cx="936.01" cy="216.77" r="0.78"/><circle class="cls-1" cx="938.78" cy="215.41" r="0.78"/><circle class="cls-1" cx="938.78" cy="217.37" r="0.78"/><circle class="cls-1" cx="943.79" cy="215.69" r="0.78"/><circle class="cls-1" cx="943.79" cy="217.65" r="0.78"/><circle class="cls-1" cx="946.55" cy="216.29" r="0.78"/><circle class="cls-1" cx="946.55" cy="218.25" r="0.78"/><circle class="cls-1" cx="951.46" cy="217.45" r="0.78"/><circle class="cls-1" cx="954.23" cy="218.05" r="0.78"/><circle class="cls-1" cx="959.09" cy="217.06" r="0.78"/><circle class="cls-1" cx="961.86" cy="217.65" r="0.78"/><circle class="cls-1" cx="966.75" cy="217.56" r="0.78"/><circle class="cls-1" cx="969.51" cy="218.16" r="0.78"/><rect class="cls-1" x="974.92" y="216.62" width="0.65" height="12.73" transform="translate(1950.48 445.97) rotate(-180)"/><rect class="cls-1" x="977.68" y="216.62" width="0.65" height="12.73" transform="translate(1956.02 445.97) rotate(-180)"/><rect class="cls-1" x="983.39" y="218.2" width="0.65" height="11.15" transform="translate(1967.44 447.54) rotate(-180)"/><rect class="cls-1" x="986.16" y="218.2" width="0.65" height="11.15" transform="translate(1972.97 447.54) rotate(-180)"/><rect class="cls-1" x="372.74" y="154.21" width="0.65" height="66.19" transform="translate(746.12 374.61) rotate(-180)"/><rect class="cls-1" x="375.5" y="155.57" width="0.65" height="64.84" transform="translate(751.66 375.97) rotate(-180)"/><rect class="cls-1" x="379.74" y="157.59" width="0.65" height="64.93" transform="translate(760.13 380.12) rotate(-180)"/><rect class="cls-1" x="382.51" y="158.71" width="0.65" height="63.82" transform="translate(765.67 381.23) rotate(-180)"/><rect class="cls-1" x="387.57" y="161.21" width="0.65" height="61.31" transform="translate(775.79 383.73) rotate(-180)"/><rect class="cls-1" x="390.34" y="162.38" width="0.65" height="60.14" transform="translate(781.32 384.9) rotate(-180)"/><rect class="cls-1" x="394.58" y="164.11" width="0.65" height="58.42" transform="translate(789.8 386.63) rotate(-180)"/><rect class="cls-1" x="397.34" y="165.34" width="0.65" height="57.19" transform="translate(795.33 387.86) rotate(-180)"/><rect class="cls-1" x="401.99" y="167.28" width="0.65" height="55.24" transform="translate(804.64 389.8) rotate(-180)"/><rect class="cls-1" x="404.76" y="168.43" width="0.65" height="54.1" transform="translate(810.17 390.95) rotate(-180)"/><rect class="cls-1" x="409.74" y="170.57" width="0.65" height="51.96" transform="translate(820.12 393.09) rotate(-180)"/><rect class="cls-1" x="412.5" y="171.81" width="0.65" height="50.71" transform="translate(825.65 394.33) rotate(-180)"/><rect class="cls-1" x="417.48" y="173.62" width="0.65" height="48.91" transform="translate(835.6 396.14) rotate(-180)"/><rect class="cls-1" x="420.24" y="174.54" width="0.65" height="47.98" transform="translate(841.13 397.06) rotate(-180)"/><rect class="cls-1" x="425.22" y="176.7" width="0.65" height="45.82" transform="translate(851.08 399.22) rotate(-180)"/><rect class="cls-1" x="427.98" y="177.55" width="0.65" height="44.97" transform="translate(856.61 400.07) rotate(-180)"/><rect class="cls-1" x="432.96" y="179.51" width="0.65" height="43.01" transform="translate(866.56 402.04) rotate(-180)"/><rect class="cls-1" x="435.72" y="180.6" width="0.65" height="41.92" transform="translate(872.1 403.12) rotate(-180)"/><rect class="cls-1" x="440.64" y="182.08" width="0.65" height="40.44" transform="translate(881.93 404.6) rotate(-180)"/><rect class="cls-1" x="443.41" y="183.24" width="0.65" height="39.28" transform="translate(887.47 405.77) rotate(-180)"/><rect class="cls-1" x="448.29" y="184.96" width="0.65" height="37.56" transform="translate(897.24 407.48) rotate(-180)"/><rect class="cls-1" x="451.06" y="185.93" width="0.65" height="36.59" transform="translate(902.77 408.46) rotate(-180)"/><rect class="cls-1" x="455.95" y="187.46" width="0.65" height="35.07" transform="translate(912.54 409.98) rotate(-180)"/><rect class="cls-1" x="458.71" y="188.56" width="0.65" height="33.96" transform="translate(918.07 411.08) rotate(-180)"/><rect class="cls-1" x="463.88" y="189.85" width="0.65" height="32.67" transform="translate(928.4 412.37) rotate(-180)"/><rect class="cls-1" x="466.64" y="190.74" width="0.65" height="31.79" transform="translate(933.93 413.26) rotate(-180)"/><rect class="cls-1" x="471.62" y="192.4" width="0.65" height="30.12" transform="translate(943.88 414.92) rotate(-180)"/><rect class="cls-1" x="474.38" y="193.1" width="0.65" height="29.43" transform="translate(949.42 415.62) rotate(-180)"/><rect class="cls-1" x="479.36" y="194.72" width="0.65" height="27.8" transform="translate(959.36 417.24) rotate(-180)"/><rect class="cls-1" x="482.12" y="195.3" width="0.65" height="27.22" transform="translate(964.9 417.83) rotate(-180)"/><rect class="cls-1" x="487.04" y="196.94" width="0.65" height="25.59" transform="translate(974.74 419.46) rotate(-180)"/><rect class="cls-1" x="489.81" y="197.55" width="0.65" height="24.97" transform="translate(980.27 420.08) rotate(-180)"/><rect class="cls-1" x="494.7" y="199.21" width="0.65" height="23.32" transform="translate(990.04 421.73) rotate(-180)"/><rect class="cls-1" x="497.46" y="199.63" width="0.65" height="22.89" transform="translate(995.57 422.15) rotate(-180)"/><rect class="cls-1" x="502.35" y="201.19" width="0.65" height="21.33" transform="translate(1005.34 423.72) rotate(-180)"/><rect class="cls-1" x="505.11" y="201.77" width="0.65" height="20.76" transform="translate(1010.88 424.29) rotate(-180)"/><rect class="cls-1" x="510.09" y="202.73" width="0.65" height="19.79" transform="translate(1020.83 425.25) rotate(-180)"/><rect class="cls-1" x="512.86" y="203.41" width="0.65" height="19.11" transform="translate(1026.36 425.93) rotate(-180)"/><rect class="cls-1" x="517.77" y="204.34" width="0.65" height="18.18" transform="translate(1036.2 426.86) rotate(-180)"/><rect class="cls-1" x="520.54" y="205.3" width="0.65" height="17.22" transform="translate(1041.73 427.82) rotate(-180)"/><rect class="cls-1" x="525.43" y="206.12" width="0.65" height="16.4" transform="translate(1051.5 428.64) rotate(-180)"/><rect class="cls-1" x="528.19" y="206.6" width="0.65" height="15.92" transform="translate(1057.03 429.12) rotate(-180)"/><rect class="cls-1" x="533.08" y="207.65" width="0.65" height="14.87" transform="translate(1066.8 430.17) rotate(-180)"/><rect class="cls-1" x="535.84" y="208.31" width="0.65" height="14.21" transform="translate(1072.34 430.83) rotate(-180)"/><rect class="cls-1" x="540.73" y="209.25" width="0.65" height="13.28" transform="translate(1082.1 431.77) rotate(-180)"/><rect class="cls-1" x="543.49" y="209.64" width="0.65" height="12.88" transform="translate(1087.63 432.16) rotate(-180)"/><rect class="cls-1" x="548.38" y="210.46" width="0.65" height="12.06" transform="translate(1097.4 432.99) rotate(-180)"/><rect class="cls-1" x="551.14" y="211.12" width="0.65" height="11.4" transform="translate(1102.94 433.64) rotate(-180)"/><rect class="cls-1" x="556.12" y="211.86" width="0.65" height="10.66" transform="translate(1112.88 434.38) rotate(-180)"/><rect class="cls-1" x="558.89" y="211.86" width="0.65" height="10.66" transform="translate(1118.42 434.38) rotate(-180)"/><rect class="cls-1" x="563.8" y="212.64" width="0.65" height="9.88" transform="translate(1128.26 435.16) rotate(-180)"/><rect class="cls-1" x="566.57" y="213.22" width="0.65" height="9.3" transform="translate(1133.79 435.74) rotate(-180)"/><rect class="cls-1" x="571.46" y="213.6" width="0.65" height="8.92" transform="translate(1143.56 436.12) rotate(-180)"/><rect class="cls-1" x="574.22" y="214.12" width="0.65" height="8.4" transform="translate(1149.09 436.64) rotate(-180)"/><rect class="cls-1" x="579.11" y="214.6" width="0.65" height="7.92" transform="translate(1158.86 437.12) rotate(-180)"/><rect class="cls-1" x="581.87" y="215.24" width="0.65" height="7.29" transform="translate(1164.4 437.76) rotate(-180)"/><rect class="cls-1" x="586.7" y="215.19" width="0.65" height="7.33" transform="translate(1174.04 437.71) rotate(-180)"/><rect class="cls-1" x="589.46" y="215.82" width="0.65" height="6.81" transform="translate(1179.58 438.44) rotate(-180)"/><rect class="cls-1" x="594.35" y="216.17" width="0.65" height="7.39" transform="translate(1189.35 439.72) rotate(-180)"/><rect class="cls-1" x="597.12" y="216.13" width="0.65" height="7.38" transform="translate(1194.88 439.63) rotate(-180)"/><circle class="cls-1" cx="373.06" cy="208.06" r="0.78"/><circle class="cls-1" cx="373.06" cy="210.02" r="0.78"/><circle class="cls-1" cx="375.83" cy="208.56" r="0.78"/><circle class="cls-1" cx="375.83" cy="210.51" r="0.78"/><circle class="cls-1" cx="380.07" cy="208.02" r="0.78"/><circle class="cls-1" cx="380.07" cy="209.98" r="0.78"/><circle class="cls-1" cx="382.83" cy="208.51" r="0.78"/><circle class="cls-1" cx="382.83" cy="210.47" r="0.78"/><circle class="cls-1" cx="387.9" cy="207.62" r="0.78"/><circle class="cls-1" cx="387.9" cy="209.58" r="0.78"/><circle class="cls-1" cx="390.66" cy="208.22" r="0.78"/><circle class="cls-1" cx="390.66" cy="210.17" r="0.78"/><circle class="cls-1" cx="394.88" cy="207.72" r="0.78"/><circle class="cls-1" cx="394.88" cy="209.68" r="0.78"/><circle class="cls-1" cx="397.64" cy="208.32" r="0.78"/><circle class="cls-1" cx="397.64" cy="210.27" r="0.78"/><circle class="cls-1" cx="402.31" cy="207.62" r="0.78"/><circle class="cls-1" cx="402.31" cy="209.58" r="0.78"/><circle class="cls-1" cx="405.08" cy="208.22" r="0.78"/><circle class="cls-1" cx="405.08" cy="210.17" r="0.78"/><circle class="cls-1" cx="410.04" cy="207.82" r="0.78"/><circle class="cls-1" cx="410.04" cy="209.78" r="0.78"/><circle class="cls-1" cx="412.81" cy="208.41" r="0.78"/><circle class="cls-1" cx="412.81" cy="210.37" r="0.78"/><circle class="cls-1" cx="417.77" cy="207.72" r="0.78"/><circle class="cls-1" cx="417.77" cy="209.68" r="0.78"/><circle class="cls-1" cx="420.54" cy="208.32" r="0.78"/><circle class="cls-1" cx="420.54" cy="210.27" r="0.78"/><circle class="cls-1" cx="425.53" cy="207.82" r="0.78"/><circle class="cls-1" cx="425.53" cy="209.78" r="0.78"/><circle class="cls-1" cx="428.3" cy="208.41" r="0.78"/><circle class="cls-1" cx="428.3" cy="210.37" r="0.78"/><circle class="cls-1" cx="433.31" cy="207.82" r="0.78"/><circle class="cls-1" cx="433.31" cy="209.78" r="0.78"/><circle class="cls-1" cx="436.08" cy="208.41" r="0.78"/><circle class="cls-1" cx="436.08" cy="210.37" r="0.78"/><circle class="cls-1" cx="440.98" cy="208.11" r="0.78"/><circle class="cls-1" cx="440.98" cy="210.07" r="0.78"/><circle class="cls-1" cx="443.74" cy="208.71" r="0.78"/><circle class="cls-1" cx="443.74" cy="210.66" r="0.78"/><circle class="cls-1" cx="448.61" cy="207.92" r="0.78"/><circle class="cls-1" cx="448.61" cy="209.88" r="0.78"/><circle class="cls-1" cx="451.37" cy="208.51" r="0.78"/><circle class="cls-1" cx="451.37" cy="210.47" r="0.78"/><circle class="cls-1" cx="456.27" cy="207.82" r="0.78"/><circle class="cls-1" cx="456.27" cy="209.78" r="0.78"/><circle class="cls-1" cx="459.03" cy="208.41" r="0.78"/><circle class="cls-1" cx="459.03" cy="210.37" r="0.78"/><circle class="cls-1" cx="464.2" cy="208.5" r="0.78"/><circle class="cls-1" cx="464.2" cy="210.46" r="0.78"/><circle class="cls-1" cx="466.96" cy="209.1" r="0.78"/><circle class="cls-1" cx="466.96" cy="211.05" r="0.78"/><circle class="cls-1" cx="471.93" cy="207.6" r="0.78"/><circle class="cls-1" cx="471.93" cy="209.56" r="0.78"/><circle class="cls-1" cx="474.7" cy="208.19" r="0.78"/><circle class="cls-1" cx="474.7" cy="210.15" r="0.78"/><circle class="cls-1" cx="479.71" cy="208.28" r="0.78"/><circle class="cls-1" cx="479.71" cy="210.24" r="0.78"/><circle class="cls-1" cx="482.48" cy="208.88" r="0.78"/><circle class="cls-1" cx="482.48" cy="210.83" r="0.78"/><circle class="cls-1" cx="487.37" cy="208.68" r="0.78"/><circle class="cls-1" cx="487.37" cy="210.64" r="0.78"/><circle class="cls-1" cx="490.14" cy="209.27" r="0.78"/><circle class="cls-1" cx="490.14" cy="211.23" r="0.78"/><circle class="cls-1" cx="495" cy="208.18" r="0.78"/><circle class="cls-1" cx="495" cy="210.14" r="0.78"/><circle class="cls-1" cx="497.77" cy="208.78" r="0.78"/><circle class="cls-1" cx="497.77" cy="210.74" r="0.78"/><circle class="cls-1" cx="502.65" cy="209.52" r="0.78"/><circle class="cls-1" cx="502.65" cy="211.48" r="0.78"/><circle class="cls-1" cx="505.41" cy="210.11" r="0.78"/><circle class="cls-1" cx="505.41" cy="212.07" r="0.78"/><circle class="cls-1" cx="510.42" cy="210.4" r="0.78"/><circle class="cls-1" cx="510.42" cy="212.36" r="0.78"/><circle class="cls-1" cx="513.19" cy="210.99" r="0.78"/><circle class="cls-1" cx="513.19" cy="212.95" r="0.78"/><circle class="cls-1" cx="518.1" cy="210.2" r="0.78"/><circle class="cls-1" cx="518.1" cy="212.16" r="0.78"/><circle class="cls-1" cx="520.86" cy="210.8" r="0.78"/><circle class="cls-1" cx="520.86" cy="212.75" r="0.78"/><circle class="cls-1" cx="525.73" cy="211.92" r="0.78"/><circle class="cls-1" cx="525.73" cy="213.88" r="0.78"/><circle class="cls-1" cx="528.5" cy="212.52" r="0.78"/><circle class="cls-1" cx="528.5" cy="214.48" r="0.78"/><rect class="cls-1" x="601.74" y="216.38" width="0.65" height="8.16" transform="translate(1204.12 440.92) rotate(-180)"/><rect class="cls-1" x="604.51" y="216.79" width="0.65" height="7.75" transform="translate(1209.66 441.33) rotate(-180)"/><rect class="cls-1" x="609.39" y="216.82" width="0.65" height="7.72" transform="translate(1219.43 441.36) rotate(-180)"/><rect class="cls-1" x="612.16" y="216.82" width="0.65" height="7.72" transform="translate(1224.96 441.36) rotate(-180)"/><rect class="cls-1" x="616.98" y="217.16" width="0.65" height="7.38" transform="translate(1234.61 441.71) rotate(-180)"/><rect class="cls-1" x="619.75" y="217.16" width="0.65" height="7.38" transform="translate(1240.14 441.71) rotate(-180)"/><rect class="cls-1" x="624.63" y="217.53" width="0.65" height="11.25" transform="translate(1249.91 446.31) rotate(-180)"/><rect class="cls-1" x="627.4" y="217.53" width="0.65" height="11.25" transform="translate(1255.44 446.31) rotate(-180)"/><rect class="cls-1" x="633.11" y="216.98" width="0.65" height="10.21" transform="translate(1266.86 444.16) rotate(-180)"/><rect class="cls-1" x="635.87" y="216.98" width="0.65" height="10.21" transform="translate(1272.4 444.16) rotate(-180)"/><rect class="cls-1" x="641.59" y="217.5" width="0.65" height="9.16" transform="translate(1283.82 444.16) rotate(-180)"/><rect class="cls-1" x="644.35" y="216.98" width="0.65" height="9.16" transform="translate(1289.35 443.11) rotate(-180)"/><rect class="cls-1" x="783.04" y="178.86" width="0.65" height="43.66"/><rect class="cls-1" x="780.28" y="180.05" width="0.65" height="42.48"/><rect class="cls-1" x="775.3" y="183.17" width="0.65" height="39.36"/><rect class="cls-1" x="772.54" y="184.72" width="0.65" height="37.8"/><rect class="cls-1" x="767.56" y="186.81" width="0.65" height="35.72"/><rect class="cls-1" x="764.8" y="188.34" width="0.65" height="34.18"/><rect class="cls-1" x="759.88" y="190.61" width="0.65" height="31.91"/><rect class="cls-1" x="757.11" y="191.69" width="0.65" height="30.83"/><rect class="cls-1" x="752.22" y="193.72" width="0.65" height="28.8"/><rect class="cls-1" x="749.46" y="195.17" width="0.65" height="27.35"/><rect class="cls-1" x="744.57" y="197.02" width="0.65" height="25.5"/><rect class="cls-1" x="741.81" y="198.07" width="0.65" height="24.45"/><rect class="cls-1" x="736.83" y="199.85" width="0.65" height="22.67"/><rect class="cls-1" x="734.06" y="200.63" width="0.65" height="21.9"/><rect class="cls-1" x="729.15" y="202.19" width="0.65" height="20.33"/><rect class="cls-1" x="726.38" y="203.26" width="0.65" height="19.26"/><rect class="cls-1" x="721.49" y="204.72" width="0.65" height="17.8"/><rect class="cls-1" x="718.73" y="205.59" width="0.65" height="16.93"/><rect class="cls-1" x="713.84" y="206.9" width="0.65" height="15.63"/><rect class="cls-1" x="711.08" y="207.59" width="0.65" height="14.93"/><rect class="cls-1" x="706.19" y="208.57" width="0.65" height="13.95"/><rect class="cls-1" x="703.43" y="209.64" width="0.65" height="12.88"/><rect class="cls-1" x="698.54" y="210.46" width="0.65" height="12.06"/><rect class="cls-1" x="695.78" y="211.12" width="0.65" height="11.4"/><rect class="cls-1" x="690.8" y="211.86" width="0.65" height="10.66"/><rect class="cls-1" x="688.03" y="212.43" width="0.65" height="10.09"/><rect class="cls-1" x="683.12" y="213.17" width="0.65" height="9.35"/><rect class="cls-1" x="680.35" y="213.79" width="0.65" height="8.74"/><rect class="cls-1" x="675.46" y="214.19" width="0.65" height="8.33"/><rect class="cls-1" x="672.7" y="214.63" width="0.65" height="7.89"/><rect class="cls-1" x="667.81" y="215.08" width="0.65" height="7.44"/><rect class="cls-1" x="665.05" y="215.41" width="0.65" height="7.11"/><rect class="cls-1" x="660.22" y="215.61" width="0.65" height="6.91"/><rect class="cls-1" x="657.46" y="216.36" width="0.65" height="6.24"/><rect class="cls-1" x="652.57" y="216.46" width="0.65" height="7.04"/><rect class="cls-1" x="649.8" y="216.69" width="0.65" height="6.81"/><circle class="cls-1" cx="783.37" cy="208.5" r="0.78"/><circle class="cls-1" cx="783.37" cy="210.46" r="0.78"/><circle class="cls-1" cx="780.6" cy="209.1" r="0.78"/><circle class="cls-1" cx="780.6" cy="211.05" r="0.78"/><circle class="cls-1" cx="775.64" cy="207.5" r="0.78"/><circle class="cls-1" cx="775.64" cy="209.56" r="0.78"/><circle class="cls-1" cx="772.87" cy="208.19" r="0.78"/><circle class="cls-1" cx="772.87" cy="210.15" r="0.78"/><circle class="cls-1" cx="767.86" cy="208.28" r="0.78"/><circle class="cls-1" cx="767.86" cy="210.24" r="0.78"/><circle class="cls-1" cx="765.09" cy="208.88" r="0.78"/><circle class="cls-1" cx="765.09" cy="210.83" r="0.78"/><circle class="cls-1" cx="760.2" cy="208.68" r="0.78"/><circle class="cls-1" cx="760.2" cy="210.64" r="0.78"/><circle class="cls-1" cx="757.43" cy="209.27" r="0.78"/><circle class="cls-1" cx="757.43" cy="211.23" r="0.78"/><circle class="cls-1" cx="752.57" cy="208.18" r="0.78"/><circle class="cls-1" cx="752.57" cy="210.14" r="0.78"/><circle class="cls-1" cx="749.8" cy="208.78" r="0.78"/><circle class="cls-1" cx="749.8" cy="210.74" r="0.78"/><circle class="cls-1" cx="744.92" cy="209.52" r="0.78"/><circle class="cls-1" cx="744.92" cy="211.48" r="0.78"/><circle class="cls-1" cx="742.15" cy="210.11" r="0.78"/><circle class="cls-1" cx="742.15" cy="212.07" r="0.78"/><circle class="cls-1" cx="737.14" cy="210.4" r="0.78"/><circle class="cls-1" cx="737.14" cy="212.36" r="0.78"/><circle class="cls-1" cx="734.38" cy="210.99" r="0.78"/><circle class="cls-1" cx="734.38" cy="212.95" r="0.78"/><circle class="cls-1" cx="729.47" cy="210.2" r="0.78"/><circle class="cls-1" cx="729.47" cy="212.16" r="0.78"/><circle class="cls-1" cx="726.7" cy="210.8" r="0.78"/><circle class="cls-1" cx="726.7" cy="212.75" r="0.78"/><circle class="cls-1" cx="721.84" cy="211.92" r="0.78"/><circle class="cls-1" cx="721.84" cy="213.88" r="0.78"/><circle class="cls-1" cx="719.07" cy="212.52" r="0.78"/><circle class="cls-1" cx="719.07" cy="214.48" r="0.78"/><circle class="cls-1" cx="714.22" cy="214.14" r="0.78"/><circle class="cls-1" cx="714.22" cy="216.1" r="0.78"/><circle class="cls-1" cx="711.45" cy="214.74" r="0.78"/><circle class="cls-1" cx="711.45" cy="216.7" r="0.78"/><circle class="cls-1" cx="706.54" cy="213.94" r="0.78"/><circle class="cls-1" cx="706.54" cy="215.9" r="0.78"/><circle class="cls-1" cx="703.78" cy="214.54" r="0.78"/><circle class="cls-1" cx="703.78" cy="216.5" r="0.78"/><circle class="cls-1" cx="698.91" cy="215.66" r="0.78"/><circle class="cls-1" cx="698.91" cy="217.62" r="0.78"/><circle class="cls-1" cx="696.14" cy="216.26" r="0.78"/><circle class="cls-1" cx="691.09" cy="216.74" r="0.78"/><circle class="cls-1" cx="688.32" cy="217.34" r="0.78"/><circle class="cls-1" cx="683.41" cy="217.55" r="0.78"/><circle class="cls-1" cx="680.65" cy="218.15" r="0.78"/><circle class="cls-1" cx="696.14" cy="218.22" r="0.78"/></svg>