<svg id="Layer_1" data-name="Layer 1" xmlns="http://www.w3.org/2000/svg" xmlns:xlink="http://www.w3.org/1999/xlink" viewBox="0 0 460 460"><defs><style>.cls-1{fill:#c3ebce;}.cls-2{fill:#425874;}.cls-3{fill:#d5f1dd;}.cls-4,.cls-6{fill:#213b5c;}.cls-5{fill:url(#linear-gradient);}.cls-6{opacity:0.85;}.cls-7{fill:url(#linear-gradient-2);}.cls-8{fill:url(#linear-gradient-3);}.cls-9{fill:#666;}.cls-10{fill:#4d4d4d;}.cls-11{fill:#415947;}.cls-12{fill:url(#linear-gradient-4);}.cls-13{fill:url(#linear-gradient-5);}.cls-14{fill:url(#linear-gradient-6);}</style><linearGradient id="linear-gradient" x1="239.41" y1="98.56" x2="251.09" y2="110.24" gradientUnits="userSpaceOnUse"><stop offset="0" stop-color="#d5f1dd" stop-opacity="0"/><stop offset="0.18" stop-color="#b4c7b9" stop-opacity="0.3"/><stop offset="0.4" stop-color="#929d95" stop-opacity="0.6"/><stop offset="0.61" stop-color="#7a7f7b" stop-opacity="0.82"/><stop offset="0.82" stop-color="#6b6c6b" stop-opacity="0.95"/><stop offset="1" stop-color="#666"/></linearGradient><linearGradient id="linear-gradient-2" x1="243.74" y1="80.2" x2="237.07" y2="87.35" gradientUnits="userSpaceOnUse"><stop offset="0" stop-color="#c3ebce" stop-opacity="0"/><stop offset="0.28" stop-color="#c1e8cb" stop-opacity="0.03"/><stop offset="0.47" stop-color="#b9dcc2" stop-opacity="0.11"/><stop offset="0.63" stop-color="#abc9b3" stop-opacity="0.26"/><stop offset="0.77" stop-color="#98ad9e" stop-opacity="0.47"/><stop offset="0.9" stop-color="#7f8a82" stop-opacity="0.73"/><stop offset="1" stop-color="#666"/></linearGradient><linearGradient id="linear-gradient-3" x1="224.22" y1="79.76" x2="231.23" y2="87.55" xlink:href="#linear-gradient-2"/><linearGradient id="linear-gradient-4" x1="201.9" y1="69.19" x2="214.51" y2="69.19" gradientUnits="userSpaceOnUse"><stop offset="0.09" stop-color="#c3ebce" stop-opacity="0"/><stop offset="0.13" stop-color="#bce3c9" stop-opacity="0.05"/><stop offset="0.73" stop-color="#657f8c" stop-opacity="0.73"/><stop offset="1" stop-color="#425874"/></linearGradient><linearGradient id="linear-gradient-5" x1="203.75" y1="55.48" x2="203.75" y2="53.24" gradientUnits="userSpaceOnUse"><stop offset="0.29" stop-color="#c3ebce" stop-opacity="0"/><stop offset="0.45" stop-color="#9fc2b5" stop-opacity="0.28"/><stop offset="0.7" stop-color="#6d8992" stop-opacity="0.67"/><stop offset="0.89" stop-color="#4e657c" stop-opacity="0.91"/><stop offset="1" stop-color="#425874"/></linearGradient><linearGradient id="linear-gradient-6" x1="203.75" y1="49.9" x2="203.75" y2="52.67" gradientUnits="userSpaceOnUse"><stop offset="0.29" stop-color="#425874" stop-opacity="0"/><stop offset="0.34" stop-color="#3f5572" stop-opacity="0.09"/><stop offset="0.64" stop-color="#2f4766" stop-opacity="0.58"/><stop offset="0.87" stop-color="#253e5f" stop-opacity="0.89"/><stop offset="1" stop-color="#213b5c"/></linearGradient></defs><title>newyork</title><path class="cls-1" d="M225.84,91.18l1.85,7.07s.44,1.57,1.55,1.81,4.76.79,5.32.79A15.23,15.23,0,0,0,239,99.68c1.24-.66,2.69-3.25,2.69-3.25l.38-8.39L239.38,84l-6.94-1.86-4,2.42-2.63,2.24Z"/><polygon class="cls-2" points="251.83 120.5 246.79 128.2 243.13 142.01 253.13 157.95 258.69 152.27 251.83 120.5"/><polygon class="cls-1" points="234.49 111.95 241.26 109.52 245.5 111.95 251.76 118.86 250.41 127.18 234.49 111.95"/><path class="cls-3" d="M228.14,264.15h37.71s-1.71-2.58-2.87-2.74l-2.18-42.26L253,216.62l-7.11,5.54-9.68,23.66-8,16.52Z"/><path class="cls-1" d="M234.4,231.25s-.26,21.73-2.85,25.91-3.42,5.19-3.42,5.19h5.18a2.11,2.11,0,0,0,2-1.53c.7-1.63.93-3,1.63-3.34s-.23-4.82,1.09-5.36,4.2,1.09,7,4.74a17.57,17.57,0,0,0,3.11,1.63s-2.23-21.73-1.31-25.87,3.68-12.28,4-15a64.56,64.56,0,0,0,0-8Z"/><path class="cls-1" d="M248.5,260.41a3,3,0,0,1,2.8-1.49c1.39-1,2.39-2.77,2.39-5.54A58.07,58.07,0,0,1,255,238.09c.65-6,.11-12.25.84-13.47a2.58,2.58,0,0,1,2.05-1.23,2.31,2.31,0,0,0,1.31-2c.16-1.63,1.63-1.39,1.63-2.2s1.14-4.81-2-5.87a7,7,0,0,1-3.88-1.14,17.2,17.2,0,0,0-2.44-.65l-3.22,2.45v7s4.14.5,5-.72-.77,8.4-1.66,18.42-1.1,15.57-1.64,16.3S248.42,258.07,248.5,260.41Z"/><path class="cls-4" d="M241.67,96.29s-.84,7.28-.5,8.74,1.12,3.28,2,3.32l1,4.51h4.32s-2.91-8.8-3.3-9.4l1.71-1.94s-2.41-6.33-2.49-7.53c0,0,0,2.16-1.71,2.5C241.63,96.66,241.67,96.29,241.67,96.29Z"/><path class="cls-5" d="M241.67,96.29s-.84,7.28-.5,8.74,1.12,3.28,2,3.32l1,4.51h4.32s-2.91-8.8-3.3-9.4l1.71-1.94s-2.41-6.33-2.49-7.53c0,0-.34,2-1.38,2.45C241.69,96.7,241.67,96.29,241.67,96.29Z"/><path class="cls-3" d="M223.38,90l1.62-6.6,7.14-4,7.68,1.3,3.9,3.25a41.12,41.12,0,0,1,.95,5.49,3.73,3.73,0,0,0,1,2.43c.3.35-.19.75-.48.83a3.84,3.84,0,0,1-3.63-1.67,4.21,4.21,0,0,1-.37-2.89,35.33,35.33,0,0,1-6.93-4.28,42.93,42.93,0,0,1-7.95,5.38c-.12,1.55-.29,3.63-1.63,3.87s-2-.08-2.08-.45.57-.77.77-1.55A1.38,1.38,0,0,0,223.38,90Z"/><path class="cls-1" d="M227.64,98.41a43.29,43.29,0,0,1-.66,6.21s3.08,6,7.51,7.33a5.72,5.72,0,0,0,6.61-2.08s-.45-.44-.39-2.72,1-10.87,1-10.87a7,7,0,0,1-5.88,4.11A12.06,12.06,0,0,1,227.64,98.41Z"/><path class="cls-6" d="M236,112.25a5.45,5.45,0,0,0,5.09-2.38,9.31,9.31,0,0,0-.38-1.65c.13-3.14-.56-4.15-.73-4.2a16.51,16.51,0,0,0-1.66,3.28C237.74,109,236.28,109.4,236,112.25Z"/><path class="cls-7" d="M245.71,91.91a3.73,3.73,0,0,1-1-2.43c.06-1.12-1.26-9-1.26-9l-3.24-3.33-6-1V84l.09-.07a35.33,35.33,0,0,0,6.93,4.28,4.21,4.21,0,0,0,.37,2.89,3.84,3.84,0,0,0,3.63,1.67C245.51,92.66,246,92.25,245.71,91.91Z"/><path class="cls-8" d="M234.22,76.09l-1.73-.29-7,2.83L223.38,90a1.38,1.38,0,0,1,0,1.11c-.2.77-.86,1.18-.77,1.55s.73.69,2.08.45,1.51-2.32,1.63-3.87A42,42,0,0,0,234.22,84Z"/><path class="cls-2" d="M225.44,104.34s1.75-4.67,1-7.59c0,0-1.36-.1-1.52-.74a10.29,10.29,0,0,0-.45-1.64,2.72,2.72,0,0,1-.24-1.5h-1.51s0,2-2.19,4.92S225.44,104.34,225.44,104.34Z"/><polygon class="cls-4" points="237.85 292.01 223.74 292.01 223.74 282.86 230.8 279.61 237.85 282.86 237.85 292.01"/><rect class="cls-2" x="153.45" y="423.86" width="153.1" height="24.83"/><polygon class="cls-2" points="285.57 427.05 175.07 427.05 176.93 400.16 283.71 400.16 285.57 427.05"/><rect class="cls-1" x="153.45" y="418.59" width="153.1" height="5.27"/><polygon class="cls-1" points="283.71 400.16 176.93 400.16 179.93 397.8 280.72 397.8 283.71 400.16"/><rect class="cls-2" x="179.94" y="388.05" width="100.77" height="9.74"/><polygon class="cls-9" points="280.72 388.05 179.94 388.05 178.04 385.12 282.61 385.12 280.72 388.05"/><rect class="cls-2" x="178.04" y="380.42" width="104.57" height="4.7"/><rect class="cls-2" x="178.88" y="378.62" width="102.9" height="1.8"/><rect class="cls-2" x="182.68" y="369.92" width="95.5" height="6.14"/><polygon class="cls-2" points="281.77 378.62 178.88 378.62 182.48 376.06 278.17 376.06 281.77 378.62"/><rect class="cls-4" x="187.3" y="308.95" width="87.32" height="60.97"/><rect class="cls-2" x="183.99" y="301.67" width="94.19" height="2.65"/><polygon class="cls-9" points="278.18 304.32 183.99 304.32 187.3 308.95 274.61 308.95 278.18 304.32"/><rect class="cls-2" x="202.91" y="308.83" width="55.8" height="61.1"/><rect class="cls-10" x="208.97" y="312.76" width="10.62" height="23.99"/><rect class="cls-10" x="225.18" y="312.76" width="10.62" height="23.99"/><rect class="cls-10" x="241.39" y="312.76" width="10.62" height="23.99"/><rect class="cls-1" x="186.87" y="343.95" width="88.83" height="2.79"/><rect class="cls-4" x="192.7" y="286.81" width="77.04" height="6.5"/><rect class="cls-4" x="182.68" y="297.82" width="96.35" height="3.85"/><rect class="cls-2" x="183.11" y="292.01" width="95.41" height="5.81"/><rect class="cls-9" x="183.11" y="289.85" width="3.76" height="7.97"/><rect class="cls-9" x="274.61" y="289.85" width="3.76" height="7.97"/><path class="cls-9" d="M257.28,289.85H259a1,1,0,0,1,1,1v6.94a0,0,0,0,1,0,0h-3.76a0,0,0,0,1,0,0v-6.94a1,1,0,0,1,1-1Z"/><path class="cls-9" d="M239,289.85h1.7a1,1,0,0,1,1,1v6.94a0,0,0,0,1,0,0H238a0,0,0,0,1,0,0v-6.94A1,1,0,0,1,239,289.85Z"/><path class="cls-9" d="M220.37,289.85h1.7a1,1,0,0,1,1,1v6.94a0,0,0,0,1,0,0h-3.76a0,0,0,0,1,0,0v-6.94a1,1,0,0,1,1-1Z"/><path class="cls-9" d="M202.12,289.85h1.7a1,1,0,0,1,1,1v6.94a0,0,0,0,1,0,0h-3.76a0,0,0,0,1,0,0v-6.94A1,1,0,0,1,202.12,289.85Z"/><rect class="cls-10" x="227.37" y="285.9" width="6.75" height="6.11"/><rect class="cls-4" x="194.71" y="277.45" width="73.01" height="6.76"/><polygon class="cls-4" points="267.72 277.45 194.71 277.45 192.7 273.15 269.74 273.15 267.72 277.45"/><polygon class="cls-4" points="269.74 286.81 192.7 286.81 194.71 284.21 267.72 284.21 269.74 286.81"/><rect class="cls-3" x="196.02" y="263.89" width="70.11" height="6.98"/><path class="cls-9" d="M205.34,130.25a23.5,23.5,0,0,0,3.09,4.13c.74.76.83,1,1.18,1,0,0,.4,4.21,1.39,5.26l.59-1A45.43,45.43,0,0,1,213.15,129c1.61-6.25,2.11-6.59,2.11-6.59s1.58-4.37,2.91-7l1.12-1.82a69.55,69.55,0,0,1,.64-7.66c.48-2.58-1.69,0-1.69,0L211,117.08Z"/><polygon class="cls-3" points="269.74 273.15 192.7 273.15 196.02 270.87 266.14 270.87 269.74 273.15"/><polygon class="cls-4" points="242.58 418.59 217.76 418.59 217.76 405.89 230.17 400.74 242.58 405.89 242.58 418.59"/><path class="cls-3" d="M210.69,81.59a5.54,5.54,0,0,1,4,1.55,6.38,6.38,0,0,1,2.59,4.19c.57.57,1.91,3.71,1.62,5s-2.43,8.76-6,12.91-6.38,5.1-8.43,5.24c-.62-.71-2.29-.48-2.91-.9s-2.24-2.52-2.62-6.38,1.52-9.1,3.33-12.29,4-7.86,5.52-8.76A4.15,4.15,0,0,1,210.69,81.59Z"/><rect class="cls-10" x="226.29" y="409.19" width="7.8" height="9.4"/><polygon class="cls-2" points="233.99 63.45 235.37 76.14 232.61 76.14 233.99 63.45"/><polygon class="cls-2" points="249.25 68.95 241.78 78.24 239.36 76.9 249.25 68.95"/><polygon class="cls-2" points="256.9 77.23 244.68 82.36 243.41 80.43 256.9 77.23"/><polygon class="cls-2" points="259.59 85.49 244.81 86.6 244.81 84.38 259.59 85.49"/><polygon class="cls-2" points="218.31 69.38 226.18 78.34 228.52 76.88 218.31 69.38"/><polygon class="cls-2" points="210.89 80.3 223.9 82.8 224.14 80.64 210.89 80.3"/><polygon class="cls-2" points="208.46 85.49 223.24 86.6 223.24 84.38 208.46 85.49"/><path class="cls-3" d="M223,82.59s1.17-7.28,11-7.28,11.22,8,11.22,8l-6.75-2.68L230.95,80Z"/><path class="cls-1" d="M242.54,79.36A17.93,17.93,0,0,0,234,76.45a17.93,17.93,0,0,0-8.55,2.91C220.33,82.72,223.38,90,223.38,90a23.47,23.47,0,0,1,3-6.43c1.89-2.52,7.6-2.36,7.6-2.36s5.71-.15,7.6,2.36a27.39,27.39,0,0,1,3.15,5.9S247.26,82.27,242.54,79.36Z"/><rect class="cls-4" x="202.98" y="41.89" width="5.23" height="19.5"/><rect class="cls-2" x="200.69" y="21.55" width="6.25" height="3.46"/><path class="cls-1" d="M203.87,23.85a26.33,26.33,0,0,0-9.45,1.57l1.29,2.21V30h16.21V27.63l1.34-2.21C210.59,23.85,203.87,23.85,203.87,23.85Z"/><path class="cls-2" d="M213.32,30.23c-.27-.34-2.91-1.72-9.45-1.72s-9.17,1.39-9.45,1.72a.53.53,0,0,0,.18.87c.35.16.7.83.7.83l8.57-.43,8.57.43s.35-.68.7-.83A.53.53,0,0,0,213.32,30.23Z"/><polygon class="cls-1" points="199.16 37.49 200.66 44.75 201.79 44.93 200.78 37.61 199.16 37.49"/><path class="cls-2" d="M197.43,32.3s-.23,2.91.69,4.25,1.71,1.79,2.86,1.56-.73-5.81-.73-5.81Z"/><ellipse class="cls-9" cx="203.87" cy="31.94" rx="8.57" ry="1.9"/><polygon class="cls-2" points="200.37 36.42 207.12 36.37 205.94 51.3 201.55 51.3 200.37 36.42"/><path class="cls-11" d="M200.69,21.55s-2.84-2.27,0-5.58l.67-.72s-.95-1.61-.37-2,1.45.41,1.72.7a4.52,4.52,0,0,1,3.3-1.89s0-.78.68-.75a1.28,1.28,0,0,1,1.24,1.21s.85-1.07,1.24-.61a4.25,4.25,0,0,1-.19,3.61c.75,0,.41,1.36,0,2.42.51,1-2,3.59-2,3.59Z"/><ellipse class="cls-1" cx="203.73" cy="34.91" rx="4.57" ry="2.34"/><path class="cls-1" d="M201.44,49.87l-.29-3.69s.15-.32.85-.39,1.14.51,1.62.29,1.62-1.18.85-2-4.15-.37-4.52-.18a2.06,2.06,0,0,0-.7,1.95c.18.81.82,4,1.74,4.51C201.55,50.38,201.44,49.87,201.44,49.87Z"/><path class="cls-1" d="M200.3,40.87s-1.43,0-1.47,1a1.8,1.8,0,0,0,1.47,1.92c.85.17,4.15.28,4.15.28s1.1-.4,1.07-1.25-.51-1.1-1.21-1.14S201.73,41,200.3,40.87Z"/><path class="cls-1" d="M199.19,38.77s-1.85,1-.69,2.3c.69.43,1.53-.14,2.29-.14a5.47,5.47,0,0,0,2.41-.19c.72-.36,1-1.79,0-1.79a13.71,13.71,0,0,1-1.7.09A4.72,4.72,0,0,0,199.19,38.77Z"/><path class="cls-1" d="M206.53,38.5l-.75-1.12s-1.29-.29-1.49.56a2.8,2.8,0,0,0,.93,2.74,3.87,3.87,0,0,1,1.38,2.25c-.12.82-.25,1.28-.31,2s-.7,2.72-.08,4.21c0,.44.24,2,.24,2a13.33,13.33,0,0,1-.47,3.59c-.5,1.58.07,2.46-.18,3.84-.64,1.28-1.51,2.27-2.7,1.83a5.16,5.16,0,0,1-1.13-.83s-.46,14.39,1.13,18.27a21,21,0,0,1,1.9,7.68c.32,2.87,2.46,15.55,2.46,15.55l7.06-13.48a29.4,29.4,0,0,1-1.43-3.19c-.24-.86,1-3.66.79-7.93s-3-12.51-3.33-15-1-7.31-.55-10.83.24-5.26-.63-7.4a9,9,0,0,1-.9-2.75,1.59,1.59,0,0,0-1.08-1.21A1.5,1.5,0,0,1,206.53,38.5Z"/><path class="cls-12" d="M206.53,38.5l-.75-1.12s-1.29-.29-1.49.56a2.8,2.8,0,0,0,.93,2.74,3.87,3.87,0,0,1,1.38,2.25c-.12.82-.25,1.28-.31,2s-.7,2.72-.08,4.21c0,.44.24,2,.24,2a13.33,13.33,0,0,1-.47,3.59c-.5,1.58.07,2.46-.18,3.84-.64,1.28-1.51,2.27-2.7,1.83a5.16,5.16,0,0,1-1.13-.83s-.46,14.39,1.13,18.27a21,21,0,0,1,1.9,7.68c.32,2.87,2.46,15.55,2.46,15.55l7.06-13.48a29.4,29.4,0,0,1-1.43-3.19c-.24-.86,1-3.66.79-7.93s-3-12.51-3.33-15-1-7.31-.55-10.83.24-5.26-.63-7.4a9,9,0,0,1-.9-2.75,1.59,1.59,0,0,0-1.08-1.21A1.5,1.5,0,0,1,206.53,38.5Z"/><rect class="cls-2" x="201.62" y="53.24" width="4.25" height="7.28" rx="1.16" ry="1.16"/><path class="cls-1" d="M205.75,53.24l-2,.24-2-.24-1.18,1.06s.06.62,1.06,1.18a4.11,4.11,0,0,1,4.25,0c1-.56,1.06-1.18,1.06-1.18Z"/><path class="cls-13" d="M205.75,53.24l-2,.24-2-.24-1.18,1.06s.06.62,1.06,1.18a4.11,4.11,0,0,1,4.25,0c1-.56,1.06-1.18,1.06-1.18Z"/><path class="cls-2" d="M206.47,52.67l-1.13-.9-1.59.22-1.59-.22-1.13.9a2.14,2.14,0,0,0-.46,1.63s.66-.82,3.18-.82,3.18.82,3.18.82A2.14,2.14,0,0,0,206.47,52.67Z"/><path class="cls-1" d="M205.94,51.3l-2.2-.73-2.2.73a1.6,1.6,0,0,0-.53,1.37,5.77,5.77,0,0,1,5.44,0A1.6,1.6,0,0,0,205.94,51.3Z"/><path class="cls-14" d="M205.94,51.3l-2.35-1.4-2,1.4a1.6,1.6,0,0,0-.53,1.37,5.77,5.77,0,0,1,5.44,0A1.6,1.6,0,0,0,205.94,51.3Z"/><polygon class="cls-3" points="259.32 145.17 269.36 130.98 270.19 131.49 271.27 129.14 283.92 135.68 281.82 137.15 282.77 137.84 264.98 167.84 261.48 166.38 259.32 145.17"/><polygon class="cls-2" points="264.98 167.84 266.76 168.85 284.68 139.31 283.92 138.48 285.5 136.64 283.92 135.68 281.82 137.15 282.77 137.84 264.98 167.84"/><path class="cls-9" d="M261.48,166.38,263,178.92l1.74-2.61,2-.32s1.7.13,2.72-2.48a55,55,0,0,0,2.39-9.42c.43-2.63.58-5.21.58-5.21l2.32-.49s-.41-1.89.79-2.59l-.67-1.14-8.19,14.16-1.69-1Z"/><path class="cls-9" d="M201.81,110s2.52.56,2.45.89a6.35,6.35,0,0,0-1.44,2.76c-.16.94-.25,1.76.26,1.89s.93.41,1.58,0l2.42,4s.86-5.94,1.72-7.71a28.06,28.06,0,0,1,2.69-4.82s-3.45,2.9-4.89,3.07a5.82,5.82,0,0,1-1.26.07,9.94,9.94,0,0,1-1.22-.17c-.58-.08-1.59-.25-2.78-.55Z"/><path class="cls-1" d="M215.08,100.5s-1.56,4.82-4.33,6.88c-1.21,1.28-2.84,5.75-3.12,7.73a43.44,43.44,0,0,1-1.42,6c-.57,1.92-.72,3,0,3.15s.76.1.57.48-2.43,4.15-1.76,5.49,7.8-4.91,10.06-10.61,5.06-12,5.69-22.43c-.72-1.81-1.54-.18-1.9-2.35S215.08,100.5,215.08,100.5Z"/><path class="cls-1" d="M220.24,96.14a21.15,21.15,0,0,1,5.66,6.48c2.51,4.34,8.29,8.58,9.54,9a17.09,17.09,0,0,1,2.89,1.35s-8.09,8.19-13.78,12.81-13.68,14.93-13.68,14.93a95.65,95.65,0,0,1,2.39-12.41,71.64,71.64,0,0,1,3.3-9.5l2.43-5.39c.51-2,.25-4.83.95-7.46.06-.39-.14-.83-.07-1.21C220.27,101.79,220.93,99.48,220.24,96.14Z"/><path class="cls-3" d="M232,96.89a2.72,2.72,0,0,0,1.91,1h1.24a2.63,2.63,0,0,0,1.6-1c0-.66-1-.77-1.26-.74a6.49,6.49,0,0,0-.9.3,2.63,2.63,0,0,0-1.4-.31A1.85,1.85,0,0,0,232,96.89Z"/><path class="cls-9" d="M226.26,101.29h1.18a6.75,6.75,0,0,0-.43-5,1.12,1.12,0,0,0-.68.71Z"/><path class="cls-3" d="M236.65,113.49s-26.86,23.27-30.12,36.16c-2.94,9.86-1.84,12.25,0,13.08a8.86,8.86,0,0,0,4.16.54,13.23,13.23,0,0,1,1.37-6.41c1.58-2.73,4.73-9.25,7.67-12.09s11.56-9,14.09-12.82,12.19-18.08,11.67-18.45S240.54,111.23,236.65,113.49Z"/><path class="cls-3" d="M241.84,177.37s-1.61,4.89-4.55,7.58c-1.59,1.71-2.2,3.67-3.92,5.88S227,197,225.11,199.9s-4.72,8.21-8.15,10.66-6.49,4.53-7.47,3.92-.12-2.57,0-4.53,1.22-3.06,1.22-5-1.59-8-.31-12.74,1.65-9,4.78-14.81,7.28-20.83,10.25-26.15,8.38-19.28,8.38-19.28l11.67-18.45s6.8,6.93,6.25,14.71c0,2.49-1.54,7.35-1.54,7.35s-4.06,2.83-3.53,5.12,5.3,2.92,4.33,7.16-1.77,4.51-3.71,6.54-5.39,4.24-5.48,5.65.44,2.47,1,2.65Z"/><path class="cls-3" d="M199,264.15s3.62-.83,6.13-5.39,3.54-8.17,3.34-9.12a1.65,1.65,0,0,0,1.7,1.23c1.5.07,4.17-3,4.17-3l2.25,2.3.46,8.1-4.15,4.22Z"/><path class="cls-3" d="M210.63,162.86a16.17,16.17,0,0,1,2.14-7.13c2.14-3.85,3.42-9.13,8-12.69s8.27-5.85,11.41-9.27S239,123.64,239,123.64,225.74,150.88,223.46,154s-9.13,23.39-9.41,24.24-3,6-3.42,10.7l-.43,4.71a24.61,24.61,0,0,0-1.14-3.71s-1-5.07-.85-6.59c0,0-1.79-3-1.68-4.6s1.34-6,2.24-7,1.8-4.44,1.8-4.44A26.38,26.38,0,0,1,210.63,162.86Z"/><path class="cls-2" d="M204.83,157.26a1.43,1.43,0,0,0-.25.7c-.11,1.25-.28,5.16,3.87,5.28,2.18.2,2.2,0,2.2,0a14.21,14.21,0,0,1,1-4.41,46.28,46.28,0,0,1,4.32-8.36c1.71-2.7,4.32-6.92,6.57-8.36a23.9,23.9,0,0,0,4.86-3.69c2.34-2.16,4.77-3.06,6.74-6s4.41-9.17,4.95-9.62a75.16,75.16,0,0,1-6.92,9.71c-2.74,1.82-6.3,5.77-7.71,6.83a48.86,48.86,0,0,0-7.79,6.77c-3.09,3.44-4.5,8-6.18,9s-3.25-.82-4.23.35C205.59,156.17,205.09,156.88,204.83,157.26Z"/><path class="cls-3" d="M199,264.15h28.82a19.23,19.23,0,0,0,4.73-9.2c3.66-9.13,1.62-23.46,1.62-23.46s-9.85,4.46-11.51,6.74-.31,2.8-2.59,4.67-5.7,4-6.33,6,1.66,4.87-2,7.67S207.75,261.34,199,264.15Z"/><path class="cls-2" d="M209.78,198.29A50.7,50.7,0,0,1,213.66,181c4.59-9.54,7.1-17.76,9.85-24.71,3.11-6.76,6.94-16,6.94-16s-7.94,13.55-11.64,23.36-4.47,10.79-4.58,12.42-2.4,5-2.83,7.52S209,193.82,209.78,198.29Z"/><path class="cls-3" d="M212.4,212.85s-2.53,1.93-3.75,6.89c-1.52,2.53-1.22,12.88-1.22,12.88l1.32,7.3s-1.12.71-.71,1.62a7.64,7.64,0,0,1,.51,1.42s-2.28.71-1.14,4.16,1.34,5.17,4.18,4.46,2.64-1.12,3-2A5.33,5.33,0,0,1,217,246.3c2-1.52,5.07-3.24,6.18-6.79.71-1.93,2.94-2.84,9.94-6.29s11.86-5.58,12.57-7,.91-1.72-2.33-3.14-3.91-.33-4.15-2.77,2.67-42.94,2.67-42.94a104.33,104.33,0,0,1-8.91,13.82,62.85,62.85,0,0,0-4.73,5.06c-2.36,2.77-4.24,4.65-5.54,6.2s-2.45,4.32-4.24,6.2A33.08,33.08,0,0,1,212.4,212.85Z"/><path class="cls-2" d="M209.48,214.47s7-2.74,10.12-7.5,6.39-9.33,9.73-12.27,12.51-17.33,12.51-17.33l-.34,4.75a20.39,20.39,0,0,0-7.71,9.44c-2.84,6.69-7.4,13.28-13.18,34.37-1.42,4.76-2.64,8.72-2.64,8.72s-1.42,1.62-3.65-1.12S208.77,218.63,209.48,214.47Z"/><path class="cls-2" d="M246.05,225.28s-2.81,3-9.81,6.13a73.28,73.28,0,0,0-13.13,7.2c0,1.13-1.12,3.52-3,5.22s-4.15,2.7-5.39,4.33c0,0,.79-.7,1.17.08-.15,2.4-4.16,10.52-4.16,10.52h.18s3.86-7.95,4.52-8.7,1.2-3,1.54-3.36a26.77,26.77,0,0,1,3.47-3.23c.79-.45,2.47-4.08,2.44-4.56s.86-1,1.89-.72c2-.72,2.54-1.17.58,4.63s-2,5.82-1.82,6.55.52.64-.15,1.8-4,5.73-4,5.73v.58s5.12-5.7,5.27-8.32,3.78-11.85,3.78-11.85l.12-1.52s12.88-5.47,14.9-7.55c2.19-1.72,3.21-3,3.25-3.91s0-9.47,0-9.47l-1,.46S246.58,224.77,246.05,225.28Z"/><path class="cls-3" d="M242.77,162.67s-1.78,22.32-2.22,28-.17,10.19-.69,16.15-1.3,12.43-.78,13.3c0,0,.14-1.07,2.15-2s16-8.93,16-8.93l4.05-2.56s1.06-.08.43-2.95-2.36-15.93-2.36-15.93-1.45-20.94-2.22-24.36l2.14-2.05-3.82-11-1.21,1.08s-1.36-7.36-2.44-8.2c-.42-.37-.41,3.2-.83,4.56a13.52,13.52,0,0,1-1.56,3.89,24.07,24.07,0,0,1-4.57,4.84c-1.73,1.36-3.8,1.72-3.32,4.55A1.72,1.72,0,0,0,242.77,162.67Z"/><path class="cls-9" d="M261.59,233.89l.23,5a4.14,4.14,0,0,0,2.11-3.28C263.91,233.5,261.59,233.89,261.59,233.89Z"/><path class="cls-2" d="M247,215s-10.07,4.56-8.39,6.11,5,3,6.67,4.2c.75.54.75.54,1.32.57C247.11,225.44,247,215,247,215Z"/><path class="cls-1" d="M252.91,211.64a6.2,6.2,0,0,0,3.79,1.86,3.71,3.71,0,0,1,3.74,2c0,2,1.16,18.37,1.16,18.37s2.18.62,2.34,1.72a125.71,125.71,0,0,0-.82-13.49l.82-.16a5.73,5.73,0,0,0-.31-1.68,2.18,2.18,0,0,1-.18-1.17l1.61-.94a9.21,9.21,0,0,0-.33-2c-.13-.77.05-1.33,0-2.35s-.18-2-.18-2,1.93-.54,1.82-1.18-.18-1-.18-1l.46-.57-1.28-9.9s.61,0-.06-5.45-2-16.42-2-16.42-2.49-31.57-5.38-42.53-3.25-16.39-3.25-16.39l-4-3h-2.41s4,9.52,4.58,15.06,6.27,41.25,6,45.09,3,30.47,3,30.47Z"/><path class="cls-3" d="M257.87,128.25a34.63,34.63,0,0,1-2.44-5.74c-1.09-3.35-3-5.92-5.29-6s-3.31-1.55-4.65-3c-2-1.21-2-2.57-3.29-3s-1.95-.93-.93-.93,6.77.7,7.47,1.87c0,0,.49,0-.07,1.48a10.5,10.5,0,0,0,3.06,1.26,5,5,0,0,1,2.05,2.3c.84.49,2.1,1.87,2.77,4.92S257.87,128.25,257.87,128.25Z"/><path class="cls-2" d="M246.93,115.28l1.4,1.4a4.45,4.45,0,0,1,3.49.4,7,7,0,0,1,2.6,3.32,1.11,1.11,0,0,1-.21.86s-.3,3.23.57,5a39.88,39.88,0,0,1,3.59,11.19s1.14-5.84.61-7-1-1.29-1.12-2.16-.85-5.07-1.26-6.65-.71-3.07-1.5-3.87a11.46,11.46,0,0,0-4.44-2.21c-.82,0-.63.41-1.34,0s-.49-.71-1.18-.71H246.7Z"/><path class="cls-2" d="M235,89.44s-.09,3,0,3.6a2.15,2.15,0,0,0,.12.65.87.87,0,0,1-.83.58c-.65,0-.93-.3-1.26-.17s-.77.45-.29.71,2.29,3,2.72,3,1.3,0,1.32-.65S235.76,91,235.76,91a19.34,19.34,0,0,0,3.93,0c.67-.26,2.23-1.11,2.23-1.11l-.43-2.52a1.55,1.55,0,0,1-1.78.91,20.29,20.29,0,0,1-2.36-.43S235,87.45,235,89.44Z"/><path class="cls-9" d="M259.88,192.11v-1.8s4.4,1.87,5.46,3.84c.85,4.65,0,5,0,5s.43-2-1.42-5C262.82,192.92,259.88,192.11,259.88,192.11Z"/><path class="cls-9" d="M261.14,209.6s5.05-1.84,5.41-1.13a.86.86,0,0,1-.39,1.12s.46,1,0,1.38a5.29,5.29,0,0,1-1.62.81Z"/><path class="cls-9" d="M263.45,219.1s2.5-.64,1.49-2c0,0-1.24-.49-1.47-1.09Z"/><path class="cls-2" d="M242.68,162.43a1.86,1.86,0,0,1-.81-2.16c.5-1.36,3.57-3.62,3.57-3.62a17.89,17.89,0,0,0,3.93-4,6.5,6.5,0,0,0,1.23-3.68c.16-1,.5-.77.58-1.64s-.13-3.81-.13-3.81l.77,1.85a23.79,23.79,0,0,1-.82,6.88s-.77,1.19-1.53,2.17a1.17,1.17,0,0,1-.85,0s-3.94,3.65-4.95,5.64.16,1.32-.13,1.88A1,1,0,0,1,242.68,162.43Z"/><path class="cls-2" d="M248,139.78s2.79-1.86,3.72-.89.31,2.05.62,2.13.83-.51,1,.26,3.22,12.75,4.46,14.22,2.44,2.21,2.6,3.41c.11.7-.08.83-.51,1.41a2.31,2.31,0,0,0-.21,2.27c.33,1,2.16,5.54,1.69,7.09-.29.65-1.33,1-1.33,1s3.1,16.59,3.06,21.38c-2-1.66-3.35-1.3-3.35-1.3s-.49-13.52-1.15-17.94l-1.74-9.51S259,161.49,259,161s-4-10.78-4-10.78l-.85.61s-1.74-7.72-2.92-8.61a5.08,5.08,0,0,0-3.22-1.41C246.84,140.83,248,139.78,248,139.78Z"/><path class="cls-1" d="M258,129.54a15.85,15.85,0,0,0,5.53,5.27c.79.38.74.73.62,1.06s1.2.7,1.2,1.13-1.15,1.85-1.15,1.85l-1.35,1.91a9.71,9.71,0,0,1-.44,5.42,30.47,30.47,0,0,1-2.76,4.5Z"/><path class="cls-2" d="M261,144.77s-1-.49-1.43.29a8.69,8.69,0,0,0-.29,3l.37,2.65,1.8,11.31.53,4.57.69.2s-1.06-14-1.14-14.66-.59-.57-.56-1.18-.09-1.59.52-2c-.37-.73.28-1.16.5-1.58a8.77,8.77,0,0,0,.89-2.89c-.05-.72-1,1.64-1,1.64s-.23.89-.63.92-.31-.54-.11-.65a.38.38,0,0,0,0-.56c-.13-.05-.36-.16-.29-.42S261.3,144.75,261,144.77Z"/><path class="cls-3" d="M227.11,96a1.17,1.17,0,0,1-2,.3,3.45,3.45,0,0,1-1-3.25c.18-.29.91-1.5,1.79-1.35S227.11,96,227.11,96Z"/><path class="cls-3" d="M241.45,95.76s.18,1.33,1.17,1.12a2.47,2.47,0,0,0,1.61-2,2.83,2.83,0,0,0-.48-2.74,1.82,1.82,0,0,0-2.3-.73Z"/><ellipse class="cls-4" cx="237.56" cy="89.53" rx="2.27" ry="1.5"/><ellipse class="cls-4" cx="230.79" cy="89.93" rx="2.27" ry="1.5"/><path class="cls-3" d="M235,89.44V93s.46.51.31.65-.79.68-.79.68a.86.86,0,0,1-.77,0c-.44-.2.26-4.93.26-4.93Z"/><path class="cls-3" d="M233.17,89.44V93s-.46.51-.31.65.79.68.79.68a.86.86,0,0,0,.77,0c.44-.2-.24-4.93-.24-4.93Z"/><path class="cls-2" d="M227.88,88.42s1.53,9.84,3.1,10.37a6.21,6.21,0,0,1,2.66,2.06,32.29,32.29,0,0,1-4.92-.73,1.08,1.08,0,0,1-.66-.63,32.61,32.61,0,0,1-2.13-7.28C225.52,88.84,227.88,88.42,227.88,88.42Z"/><path class="cls-2" d="M242.08,89.53a13.29,13.29,0,0,1-1.72,2.71c-1,1.09-1.21,1.32-1.25,1.85a8.76,8.76,0,0,1-.4,3.26c-.8,2-2,3.11-1.06,2.86s3.57-1,3.65-1.67a23.53,23.53,0,0,0,.54-4.87A34.29,34.29,0,0,1,242.08,89.53Z"/><path class="cls-2" d="M228.07,99s1.12,2.92,5.42,6.52,6.76,5.27,6.76,5.27l.85-.92a8.42,8.42,0,0,0-.38-1.65l.95-11.93s-1.73,5.57-6.21,6S228.07,99,228.07,99Z"/><path class="cls-4" d="M227.64,98.41s3.83,5.81,8.55,4.8c5-1.45,5.62-5.49,5.49-6.92a7.82,7.82,0,0,1-6,4.12A13.53,13.53,0,0,1,227.64,98.41Z"/></svg>