<svg id="Layer_1" data-name="Layer 1" xmlns="http://www.w3.org/2000/svg" xmlns:xlink="http://www.w3.org/1999/xlink" viewBox="0 0 460 460"><defs><style>.cls-1{fill:none;}.cls-2{fill:#9ba7b6;}.cls-3{fill:#f1f1f1;}.cls-4{fill:#c3ebce;}.cls-5{fill:url(#linear-gradient);}.cls-6{fill:#f5dc51;}.cls-7{fill:url(#linear-gradient-2);}.cls-17,.cls-8{fill:#f3d632;}.cls-9{fill:url(#linear-gradient-3);}.cls-10{fill:url(#linear-gradient-4);}.cls-11{fill:url(#linear-gradient-5);}.cls-12{fill:url(#linear-gradient-6);}.cls-13{fill:#ddf4e3;}.cls-14{clip-path:url(#clip-path);}.cls-15{clip-path:url(#clip-path-2);}.cls-16{clip-path:url(#clip-path-3);}.cls-17{opacity:0.25;}</style><linearGradient id="linear-gradient" x1="444.14" y1="250.35" x2="403.18" y2="250.35" gradientUnits="userSpaceOnUse"><stop offset="0.23" stop-color="#fff" stop-opacity="0"/><stop offset="0.31" stop-color="#fffef8" stop-opacity="0.03"/><stop offset="0.43" stop-color="#fefae6" stop-opacity="0.12"/><stop offset="0.58" stop-color="#fcf4c7" stop-opacity="0.26"/><stop offset="0.75" stop-color="#f9eb9d" stop-opacity="0.45"/><stop offset="0.93" stop-color="#f6e067" stop-opacity="0.7"/><stop offset="1" stop-color="#f5dc51" stop-opacity="0.8"/></linearGradient><linearGradient id="linear-gradient-2" x1="414.72" y1="280.2" x2="414.72" y2="265.25" gradientUnits="userSpaceOnUse"><stop offset="0.23" stop-color="#fff" stop-opacity="0"/><stop offset="1" stop-color="#f3d632"/></linearGradient><linearGradient id="linear-gradient-3" x1="435.32" y1="277.46" x2="435.32" y2="265.25" xlink:href="#linear-gradient-2"/><linearGradient id="linear-gradient-4" x1="1144.49" y1="250.35" x2="1108.51" y2="250.35" gradientTransform="matrix(1, 0, 0, -1, -1087.63, 500.71)" xlink:href="#linear-gradient"/><linearGradient id="linear-gradient-5" x1="1120.46" y1="280.2" x2="1120.46" y2="265.25" gradientTransform="matrix(1, 0, 0, -1, -1075.55, 545.46)" xlink:href="#linear-gradient-2"/><linearGradient id="linear-gradient-6" x1="1141.06" y1="277.46" x2="1141.06" y2="265.25" gradientTransform="matrix(1, 0, 0, -1, -1116.75, 542.71)" xlink:href="#linear-gradient-2"/><clipPath id="clip-path"><path class="cls-1" d="M250.33,248.92v-1a20.73,20.73,0,0,0-5.86-14.6,19.81,19.81,0,0,0-14.23-6.07A20.64,20.64,0,0,0,209.85,248v1Z"/></clipPath><clipPath id="clip-path-2"><path class="cls-1" d="M148.6,248.92v-1a20.75,20.75,0,0,0-5.84-14.6,19.73,19.73,0,0,0-14.2-6.07A20.61,20.61,0,0,0,108.22,248v1Z"/></clipPath><clipPath id="clip-path-3"><path class="cls-2" d="M351.81,248.92v-1a20.75,20.75,0,0,0-5.84-14.6,19.73,19.73,0,0,0-14.2-6.07A20.61,20.61,0,0,0,311.43,248v1Z"/></clipPath></defs><title>newyork</title><rect class="cls-3" x="404.21" y="203.38" width="39.93" height="4.38"/><rect class="cls-4" x="403.18" y="207.77" width="40.96" height="13.99"/><rect class="cls-3" x="403.18" y="221.76" width="40.96" height="2.4"/><rect class="cls-3" x="403.18" y="224.15" width="40.96" height="24.81"/><rect class="cls-4" x="403.18" y="248.95" width="40.96" height="42.78"/><rect class="cls-5" x="403.18" y="203.38" width="40.96" height="93.94"/><rect class="cls-6" x="404.96" y="236.06" width="14.64" height="9.4"/><rect class="cls-4" x="406.21" y="236.87" width="12.12" height="7.79"/><rect class="cls-6" x="427.43" y="236.06" width="14.64" height="9.4"/><rect class="cls-4" x="428.69" y="236.87" width="12.12" height="7.79"/><rect class="cls-4" x="403.18" y="248.7" width="40.96" height="2.29"/><rect class="cls-6" x="403.18" y="251" width="40.96" height="2.1"/><rect class="cls-3" x="408.62" y="265.25" width="12.2" height="11.62"/><rect class="cls-7" x="408.62" y="265.25" width="12.2" height="14.95"/><rect class="cls-8" x="403.18" y="230.62" width="40.96" height="0.47"/><rect class="cls-8" x="403.18" y="221.76" width="40.96" height="0.47"/><rect class="cls-2" x="408.62" y="268.67" width="12.14" height="23.06"/><rect class="cls-8" x="410.54" y="271.38" width="8.29" height="20.35"/><rect class="cls-2" x="406.2" y="263.75" width="16.97" height="1.51"/><polygon class="cls-2" points="423.17 263.75 406.2 263.75 406.2 262.38 414.69 258.97 423.17 262.38 423.17 263.75"/><polygon class="cls-8" points="419.05 263.84 410.23 263.84 408.45 263.84 414.64 261.36 420.82 263.84 419.05 263.84"/><rect class="cls-6" x="407.59" y="265.25" width="1.03" height="6.94"/><rect class="cls-2" x="420.76" y="265.25" width="1.03" height="6.94"/><rect class="cls-3" x="429.22" y="265.25" width="12.2" height="11.62"/><rect class="cls-9" x="429.22" y="265.25" width="12.2" height="12.2"/><rect class="cls-2" x="429.22" y="268.67" width="12.14" height="23.06"/><rect class="cls-2" x="431.14" y="271.38" width="8.29" height="20.35"/><rect class="cls-2" x="426.81" y="263.75" width="16.97" height="1.51"/><polygon class="cls-2" points="443.77 263.75 426.81 263.75 426.81 262.38 435.29 258.97 443.77 262.38 443.77 263.75"/><polygon class="cls-8" points="439.65 263.84 430.83 263.84 429.06 263.84 435.24 261.36 441.42 263.84 439.65 263.84"/><rect class="cls-6" x="428.19" y="265.25" width="1.03" height="6.94"/><rect class="cls-6" x="441.36" y="265.25" width="1.03" height="6.94"/><rect class="cls-8" x="403.18" y="207.3" width="40.96" height="0.47"/><rect class="cls-8" x="403.18" y="203.38" width="40.96" height="0.47"/><path class="cls-8" d="M423.49,233.39s.8-2,1.71-1.52-.23,2-.23,2,1,.29,1,1.14a27,27,0,0,1,0,7.57c-.66,4.67-.65,4.8-.65,4.8h-3.2s.34-6.2-.26-7.78-1.46-1.34-1.56-2.09-.1-1.66.5-1.86,2.08-1.71,2.45-1.66S423.49,233.39,423.49,233.39Z"/><rect class="cls-8" x="421.27" y="247.34" width="4.95" height="0.45"/><rect class="cls-8" x="420.41" y="247.79" width="6.58" height="0.91"/><rect class="cls-2" x="15.91" y="203.38" width="39.93" height="4.38" transform="translate(71.74 411.15) rotate(-180)"/><rect class="cls-4" x="15.91" y="207.77" width="40.96" height="13.99" transform="translate(72.77 429.52) rotate(-180)"/><rect class="cls-2" x="15.91" y="221.76" width="40.96" height="2.4" transform="translate(72.77 445.91) rotate(-180)"/><rect class="cls-2" x="15.98" y="224.15" width="40.96" height="24.81" transform="translate(72.92 473.12) rotate(-180)"/><rect class="cls-4" x="15.98" y="248.95" width="40.96" height="42.78" transform="translate(72.92 540.69) rotate(-180)"/><rect class="cls-10" x="20.88" y="203.38" width="35.99" height="93.94" transform="translate(77.74 500.71) rotate(-180)"/><rect class="cls-6" x="40.03" y="236.06" width="14.64" height="9.4" transform="translate(94.71 481.53) rotate(-180)"/><rect class="cls-4" x="41.29" y="236.87" width="12.12" height="7.79" transform="translate(94.71 481.53) rotate(-180)"/><rect class="cls-6" x="17.56" y="236.06" width="14.64" height="9.4" transform="translate(49.76 481.53) rotate(-180)"/><rect class="cls-4" x="18.82" y="236.87" width="12.12" height="7.79" transform="translate(49.76 481.53) rotate(-180)"/><rect class="cls-4" x="15.98" y="248.7" width="40.96" height="2.29" transform="translate(72.92 499.7) rotate(-180)"/><rect class="cls-6" x="15.98" y="251" width="40.96" height="2.1" transform="translate(72.92 504.1) rotate(-180)"/><rect class="cls-3" x="38.81" y="265.25" width="12.2" height="11.62" transform="translate(89.82 542.13) rotate(-180)"/><rect class="cls-11" x="38.81" y="265.25" width="12.2" height="14.95" transform="translate(89.82 545.46) rotate(-180)"/><rect class="cls-8" x="15.91" y="230.62" width="40.96" height="0.47" transform="translate(72.77 461.71) rotate(-180)"/><rect class="cls-8" x="15.91" y="221.76" width="40.96" height="0.47" transform="translate(72.77 443.98) rotate(-180)"/><rect class="cls-2" x="38.87" y="268.67" width="12.14" height="23.06" transform="translate(89.89 560.4) rotate(-180)"/><rect class="cls-8" x="40.8" y="271.38" width="8.29" height="20.35" transform="translate(89.89 563.11) rotate(-180)"/><rect class="cls-2" x="36.46" y="263.75" width="16.97" height="1.51" transform="translate(89.89 529) rotate(-180)"/><polygon class="cls-2" points="36.46 263.75 53.43 263.75 53.43 262.38 44.94 258.97 36.46 262.38 36.46 263.75"/><polygon class="cls-8" points="40.58 263.84 49.4 263.84 51.17 263.84 44.99 261.36 38.81 263.84 40.58 263.84"/><rect class="cls-6" x="51.95" y="265.25" width="1.03" height="6.94" transform="translate(104.93 537.45) rotate(-180)"/><rect class="cls-6" x="37.84" y="265.25" width="1.03" height="6.94" transform="translate(76.72 537.45) rotate(-180)"/><rect class="cls-3" x="18.21" y="265.25" width="12.2" height="11.62" transform="translate(48.62 542.13) rotate(-180)"/><rect class="cls-12" x="18.21" y="265.25" width="12.2" height="12.2" transform="translate(48.62 542.71) rotate(-180)"/><rect class="cls-2" x="18.27" y="268.67" width="12.14" height="23.06" transform="translate(48.68 560.4) rotate(-180)"/><rect class="cls-8" x="20.19" y="271.38" width="8.29" height="20.35" transform="translate(48.68 563.11) rotate(-180)"/><rect class="cls-2" x="15.86" y="263.75" width="16.97" height="1.51" transform="translate(48.68 529) rotate(-180)"/><polygon class="cls-2" points="15.86 263.75 32.82 263.75 32.82 262.38 24.34 258.97 15.86 262.38 15.86 263.75"/><polygon class="cls-8" points="19.98 263.84 28.8 263.84 30.57 263.84 24.39 261.36 18.21 263.84 19.98 263.84"/><rect class="cls-6" x="30.41" y="265.25" width="1.03" height="6.94" transform="translate(61.85 537.45) rotate(-180)"/><rect class="cls-2" x="17.24" y="265.25" width="1.03" height="6.94" transform="translate(35.51 537.45) rotate(-180)"/><rect class="cls-8" x="15.91" y="207.3" width="40.96" height="0.47" transform="translate(72.77 415.06) rotate(-180)"/><rect class="cls-8" x="15.91" y="203.38" width="40.96" height="0.47" transform="translate(72.77 407.23) rotate(-180)"/><path class="cls-8" d="M36.15,233.39s-.8-2-1.71-1.52.23,2,.23,2-1,.29-1,1.14a27,27,0,0,0,0,7.57c.66,4.67.65,4.8.65,4.8h3.2s-.34-6.2.26-7.78,1.46-1.34,1.56-2.09.1-1.66-.5-1.86-2.08-1.71-2.45-1.66S36.15,233.39,36.15,233.39Z"/><rect class="cls-8" x="33.41" y="247.34" width="4.95" height="0.45" transform="translate(71.78 495.13) rotate(-180)"/><rect class="cls-8" x="32.63" y="247.79" width="6.58" height="0.91" transform="translate(71.85 496.5) rotate(-180)"/><polygon class="cls-2" points="398.05 183.89 61.01 183.89 57.69 181.62 400.77 181.62 398.05 183.89"/><rect class="cls-2" x="57.68" y="180" width="344.39" height="1.62"/><rect class="cls-6" x="57.68" y="178.38" width="344.39" height="1.62"/><polygon class="cls-6" points="402.07 178.38 57.69 178.38 55.81 177.44 403.95 177.44 402.07 178.38"/><path class="cls-6" d="M403.16,168.57a5.34,5.34,0,0,0-2.81,1.91v.81s-1-.74-2.67.67h-5.93l.56-1.24s.28-.37,0-.63,1.18-2,1.18-2l0-1.24h-1s-2.52,1-2.76,2.9c-.87-.34-2.39-.16-2.68,1.1h-4.58a.74.74,0,0,0-.67-.85s.47-.77.12-.87.08-.49-.2-.49a2.28,2.28,0,0,0-1.58,1,1.48,1.48,0,0,0-1.76,0c-.36.37-.85.87-.85.87H377v-1a5,5,0,0,1,1.78-1.4c.95-.36-.32-.41-.51-.41s-.69-.87-.69-.87a3.15,3.15,0,0,0-.85-3.85c-.59-.55-2.92,2-2.92,2s-.24,1.64.18,1.83.71.32.22.47-1.8-.16-1.91,1.08-.2,2.19-.2,2.19l-.34-.14s0-1.1-1.44-1.1a1.38,1.38,0,0,0-.91.43s-.1-1.12-1-1.22-1.26,2.35-1.26,2.35l-4.5-.24a1.08,1.08,0,0,0-1-1.26,2.77,2.77,0,0,0-2.76-2.41c-1.46,0-3.12.55-3.2,2.13a16.5,16.5,0,0,0,.14,3h-6.21s.18-.49-.43-1.08.14-1.58-.24-2a2.83,2.83,0,0,0-4.54-.12,9.87,9.87,0,0,0-1.74,3.1h-6.79a1.33,1.33,0,0,0-.63-1.14c0-.73.3-2-.95-2.35a4.41,4.41,0,0,0-3.91.65,17.86,17.86,0,0,0-1.85,3h-6.73s.18-1.08-.39-1.22c0-.61.3-2.82-2.51-2.84a4,4,0,0,0-3.69,2.78s-.65,0-.73,1.22H308s.12-1-.73-1.12c.08-.89.06-2.56-1.93-2.76a3.7,3.7,0,0,0-3.93,2.82l-.45,0a2.84,2.84,0,0,0-.08.93H298v5.56H401.35a1,1,0,0,1,.13-1.47c.45-.45,0-.81-.19-.94s-.61-.47-.41-.72.87,0,1.13-.37,1.31-1.91,1.31-1.91a.8.8,0,0,0,0-.86c-.13-.27.64-1.53.64-1.53S404.89,168.16,403.16,168.57Z"/><path class="cls-6" d="M55.73,177.44A1,1,0,0,0,55.6,176c-.45-.45,0-.81.19-.94s.61-.47.41-.72-.87,0-1.13-.37S53.77,172,53.77,172a.8.8,0,0,1,0-.86c.13-.27-.64-1.53-.64-1.53s-.94-1.48.79-1.08a5.34,5.34,0,0,1,2.81,1.91v.81s1-.74,2.67.67h5.93l-.56-1.24s-.28-.37,0-.63-1.18-2-1.18-2l0-1.24h1s2.52,1,2.76,2.9c.87-.34,2.39-.16,2.68,1.1h4.58a.74.74,0,0,1,.67-.85s-.47-.77-.12-.87-.08-.49.2-.49a2.28,2.28,0,0,1,1.58,1,1.48,1.48,0,0,1,1.76,0c.36.37.85.87.85.87H80v-1a5,5,0,0,0-1.78-1.4c-.95-.36.32-.41.51-.41s.69-.87.69-.87a3.15,3.15,0,0,1,.85-3.85c.59-.55,2.92,2,2.92,2s.24,1.64-.18,1.83-.71.32-.22.47,1.8-.16,1.91,1.08.2,2.19.2,2.19l.34-.14s0-1.1,1.44-1.1a1.38,1.38,0,0,1,.91.43s.1-1.12,1-1.22,1.26,2.35,1.26,2.35l4.5-.24a1.08,1.08,0,0,1,1-1.26A2.77,2.77,0,0,1,98.2,167c1.46,0,3.12.55,3.2,2.13a16.5,16.5,0,0,1-.14,3h6.21s-.18-.49.43-1.08-.14-1.58.24-2a2.83,2.83,0,0,1,4.54-.12,9.87,9.87,0,0,1,1.74,3.1h6.79a1.33,1.33,0,0,1,.63-1.14c0-.73-.3-2,.95-2.35a4.41,4.41,0,0,1,3.91.65,17.86,17.86,0,0,1,1.85,3h6.73s-.18-1.08.39-1.22c0-.61-.3-2.82,2.51-2.84a4,4,0,0,1,3.69,2.78s.65,0,.73,1.22H149s-.12-1,.73-1.12c-.08-.89-.06-2.56,1.93-2.76a3.7,3.7,0,0,1,3.93,2.82l.45,0a2.84,2.84,0,0,1,.08.93h6.43v5.56Z"/><path class="cls-6" d="M256.31,177.44v-5.56h-2.75a2.84,2.84,0,0,0-.08-.93l-.45,0a3.7,3.7,0,0,0-3.93-2.82c-2,.2-2,1.87-1.93,2.76-.85.1-.73,1.12-.73,1.12H240c-.08-1.2-.73-1.22-.73-1.22a4,4,0,0,0-3.69-2.78c-2.8,0-2.51,2.23-2.51,2.84-.57.14-.39,1.22-.39,1.22h-6.73a17.86,17.86,0,0,0-1.85-3,4.41,4.41,0,0,0-3.91-.65c-1.24.39-.95,1.62-.95,2.35a1.33,1.33,0,0,0-.63,1.14H211.8a9.87,9.87,0,0,0-1.74-3.1,2.83,2.83,0,0,0-4.54.12c-.37.45.37,1.44-.24,2s-.43,1.08-.43,1.08h-6.21a16.5,16.5,0,0,0,.14-3c-.08-1.58-1.74-2.13-3.2-2.13a2.77,2.77,0,0,0-2.76,2.41,1.08,1.08,0,0,0-1,1.26l-4.5.24s-.36-2.45-1.26-2.35-1,1.22-1,1.22a1.38,1.38,0,0,0-.91-.43c-1.46,0-1.44,1.1-1.44,1.1l-.34.14s-.08-.95-.2-2.19-1.42-.93-1.91-1.08-.2-.28.22-.47.18-1.83.18-1.83-2.33-2.54-2.92-2a3.15,3.15,0,0,0-.85,3.85s-.49.87-.69.87-1.46.06-.51.41a5,5,0,0,1,1.78,1.4v1h-.47s-.49-.49-.85-.87a1.48,1.48,0,0,0-1.76,0,2.28,2.28,0,0,0-1.58-1c-.28,0,.16.39-.2.49s.12.87.12.87a.74.74,0,0,0-.67.85h-4.58c-.3-1.26-1.81-1.44-2.68-1.1-.24-1.93-2.76-2.9-2.76-2.9h-1l0,1.24s1.46,1.72,1.18,2,0,.63,0,.63l.56,1.24h-4c0,.41,0,.81,0,1.17a21.88,21.88,0,0,1-.21,4.32Z"/><path class="cls-6" d="M298,171.88h-3.56l1-2.64c.24-.64.26-2.15-.28-2.45s-3,1.43-3,1.43-.73.75-.72,1.32c0,0-1.17-.56-2.11,1h-4.58s-.13-2.62-1.3-2.41c-.58.08-1.11,1.17-1.11,1.17a1.27,1.27,0,0,0-1.15-.44c-.87,0-1.09,1.11-1.09,1.11h-.77v-1.73s1.34-.17,1.32-.64c0-.2-.28-.12-.51-.12s-1-.8-1-.8.83-2.87-1.29-3.95c-1.05-.56-2.61,1.79-2.64,2s0,1.5,0,1.5,1.34.22,1.23.43-.72.18-.72.18v.87s-.27.2-.31-.27-.58-.4-.72,0-.32,0-.51,0-.39.18-.16.34.41.31.41.31V170h-.7a1,1,0,0,0-.8-1.09c-.92-.25-1.1.39-1.1.39h-.39v-.49s-.59-2-1.69,0a3.6,3.6,0,0,0-.55,1.61h-4.6s.18-1-1.47-1.25a3.18,3.18,0,0,0-3.66-2.51c-1.18.22-1.82,2.08-1.37,3a3.3,3.3,0,0,0,.49.74l0,1.44h-2.4v5.56H298Z"/><rect class="cls-4" x="60.85" y="183.95" width="337.02" height="15.26"/><polygon class="cls-2" points="404.2 208.36 56.87 208.36 49.34 203.16 411.74 203.16 404.2 208.36"/><rect class="cls-2" x="49.35" y="201.54" width="362.39" height="1.62"/><rect class="cls-6" x="49.35" y="199.92" width="362.39" height="1.62"/><polygon class="cls-6" points="411.74 199.92 49.34 199.92 47.47 198.98 413.62 198.98 411.74 199.92"/><rect class="cls-13" x="66.52" y="174.14" width="19.81" height="1.5"/><rect class="cls-13" x="170.97" y="174.14" width="19.81" height="1.5"/><rect class="cls-13" x="374.16" y="174.14" width="19.81" height="1.5"/><rect class="cls-13" x="269.63" y="174.14" width="19.81" height="1.5"/><rect class="cls-6" x="61.13" y="188.84" width="30.58" height="2.9"/><rect class="cls-2" x="59.55" y="184.02" width="33.76" height="4.82"/><rect class="cls-4" x="62.37" y="179.78" width="28.11" height="2.36"/><rect class="cls-4" x="63.07" y="182.14" width="26.71" height="1.88"/><rect class="cls-2" x="63.07" y="182.14" width="26.71" height="0.21"/><rect class="cls-2" x="63.07" y="177.43" width="26.71" height="2.36"/><rect class="cls-2" x="65.26" y="175.23" width="22.32" height="2.19"/><rect class="cls-6" x="165.58" y="188.84" width="30.58" height="2.9"/><rect class="cls-2" x="163.99" y="184.02" width="33.76" height="4.82"/><rect class="cls-4" x="166.81" y="179.78" width="28.11" height="2.36"/><rect class="cls-4" x="167.51" y="182.14" width="26.71" height="1.88"/><rect class="cls-2" x="167.51" y="182.14" width="26.71" height="0.21"/><rect class="cls-2" x="167.51" y="177.43" width="26.71" height="2.36"/><rect class="cls-4" x="169.71" y="175.23" width="22.32" height="2.19"/><rect class="cls-6" x="264.24" y="188.84" width="30.58" height="2.9"/><rect class="cls-2" x="262.65" y="184.02" width="33.76" height="4.82"/><rect class="cls-4" x="265.47" y="179.78" width="28.11" height="2.36"/><rect class="cls-4" x="266.17" y="182.14" width="26.71" height="1.88"/><rect class="cls-2" x="266.17" y="182.14" width="26.71" height="0.21"/><rect class="cls-2" x="266.17" y="177.43" width="26.71" height="2.36"/><rect class="cls-4" x="268.37" y="175.23" width="22.32" height="2.19"/><rect class="cls-6" x="368.77" y="188.84" width="30.58" height="2.9"/><rect class="cls-2" x="367.18" y="184.02" width="33.76" height="4.82"/><rect class="cls-4" x="370" y="179.78" width="28.11" height="2.36"/><rect class="cls-4" x="370.7" y="182.14" width="26.71" height="1.88"/><rect class="cls-2" x="370.7" y="182.14" width="26.71" height="0.21"/><rect class="cls-2" x="370.7" y="177.43" width="26.71" height="2.36"/><rect class="cls-4" x="372.9" y="175.23" width="22.32" height="2.19"/><rect class="cls-4" x="56.86" y="208.36" width="346.49" height="88.96"/><path class="cls-2" d="M284.6,291V267a5.33,5.33,0,0,0-5.32-5.32h0A5.33,5.33,0,0,0,274,267V291Z"/><rect class="cls-6" x="275.3" y="263.46" width="7.96" height="33.86" rx="3.92" ry="3.92"/><path class="cls-2" d="M389.49,291V267a5.33,5.33,0,0,0-5.32-5.32h0a5.33,5.33,0,0,0-5.32,5.32V291Z"/><rect class="cls-6" x="380.19" y="263.46" width="7.96" height="33.86" rx="3.92" ry="3.92"/><path class="cls-2" d="M254.31,223.16a34.32,34.32,0,0,0-58.64,24.3v49.86H264.2V247.46A34.22,34.22,0,0,0,254.31,223.16Z"/><path class="cls-4" d="M250.59,226.05a29.58,29.58,0,0,0-20.29-7.92c-16.06,0-28.85,12.13-28.85,27v52.22h57.27V245.1A25.54,25.54,0,0,0,250.59,226.05Z"/><polygon class="cls-6" points="232.37 218.44 227.69 218.44 226.6 211.45 233.46 211.45 232.37 218.44"/><ellipse class="cls-6" cx="230.03" cy="211.45" rx="1.62" ry="1.62"/><path class="cls-13" d="M247.71,229.29a25.2,25.2,0,0,0-43.12,18v50h50.69v-50A25.82,25.82,0,0,0,247.71,229.29Z"/><path class="cls-4" d="M252.94,247.39v49.93h-46V247.39c0-13,10.5-23.6,23.17-23.6a22.46,22.46,0,0,1,16.17,6.93A23.71,23.71,0,0,1,252.94,247.39Z"/><path class="cls-8" d="M250.33,248.92v-1a20.73,20.73,0,0,0-5.86-14.6,19.81,19.81,0,0,0-14.23-6.07A20.64,20.64,0,0,0,209.85,248v1Z"/><rect class="cls-2" x="208.38" y="252.49" width="42.12" height="7.64"/><rect class="cls-2" x="206.94" y="248.78" width="46" height="1.87"/><rect class="cls-8" x="211.76" y="272.35" width="8.5" height="24.98"/><rect class="cls-8" x="225.84" y="272.35" width="8.5" height="24.98"/><rect class="cls-8" x="239.61" y="272.35" width="8.5" height="24.98"/><rect class="cls-8" x="206.94" y="264.12" width="46" height="2.74"/><ellipse class="cls-6" cx="255.63" cy="215" rx="5.3" ry="5.29"/><ellipse class="cls-2" cx="255.63" cy="215" rx="4.19" ry="4.18"/><ellipse class="cls-6" cx="204.17" cy="215.27" rx="5.3" ry="5.29"/><ellipse class="cls-2" cx="204.17" cy="215.27" rx="4.19" ry="4.18"/><g class="cls-14"><rect class="cls-2" x="211.91" y="237.12" width="23.26" height="2.71" transform="translate(462.02 14.93) rotate(90)"/><rect class="cls-2" x="225.52" y="237.12" width="23.26" height="2.71" transform="translate(475.63 1.32) rotate(90)"/></g><polygon class="cls-4" points="201.45 252.11 195.67 252.11 195.67 249.51 201.72 249.51 201.45 252.11"/><rect class="cls-13" x="195.65" y="245.46" width="6.8" height="1.89"/><polygon class="cls-2" points="202.46 247.35 195.65 247.35 195.65 249.51 201.72 249.51 202.46 247.35"/><polygon class="cls-4" points="258.72 252.11 264.19 252.11 264.19 249.51 258.13 249.51 258.72 252.11"/><rect class="cls-13" x="257.4" y="245.46" width="6.8" height="1.89" transform="translate(521.6 492.82) rotate(-180)"/><polygon class="cls-2" points="257.4 247.35 264.2 247.35 264.2 249.51 258.13 249.51 257.4 247.35"/><path class="cls-2" d="M152.57,223.16a34.22,34.22,0,0,0-58.49,24.3v49.86h68.36V247.46A34.27,34.27,0,0,0,152.57,223.16Z"/><path class="cls-4" d="M148.87,226.05a29.47,29.47,0,0,0-20.24-7.92c-16,0-28.78,12.13-28.78,27v52.22H157V245.1A25.57,25.57,0,0,0,148.87,226.05Z"/><polygon class="cls-6" points="130.69 218.44 126.02 218.44 124.93 211.45 131.78 211.45 130.69 218.44"/><circle class="cls-6" cx="128.36" cy="211.45" r="1.62"/><path class="cls-13" d="M146,229.29a25.15,25.15,0,0,0-17.84-7.48A25.46,25.46,0,0,0,103,247.28v50h50.57v-50A25.85,25.85,0,0,0,146,229.29Z"/><path class="cls-4" d="M151.21,247.39v49.93H105.32V247.39c0-13,10.47-23.6,23.12-23.6a22.38,22.38,0,0,1,16.13,6.93A23.74,23.74,0,0,1,151.21,247.39Z"/><path class="cls-8" d="M148.6,248.92v-1a20.75,20.75,0,0,0-5.84-14.6,19.73,19.73,0,0,0-14.2-6.07A20.61,20.61,0,0,0,108.22,248v1Z"/><rect class="cls-2" x="106.76" y="252.49" width="42.01" height="7.64"/><rect class="cls-2" x="105.32" y="248.78" width="45.89" height="1.87"/><rect class="cls-2" x="110.13" y="272.35" width="8.48" height="24.98"/><rect class="cls-2" x="124.17" y="272.35" width="8.48" height="24.98"/><rect class="cls-2" x="137.91" y="272.35" width="8.48" height="24.98"/><rect class="cls-8" x="105.32" y="264.12" width="45.89" height="2.74"/><circle class="cls-6" cx="153.89" cy="215" r="5.29"/><circle class="cls-2" cx="153.89" cy="215" r="4.18"/><circle class="cls-6" cx="102.56" cy="215.27" r="5.29"/><circle class="cls-2" cx="102.56" cy="215.27" r="4.18"/><g class="cls-15"><rect class="cls-2" x="110.25" y="237.12" width="23.26" height="2.71" transform="translate(360.36 116.59) rotate(90)"/><rect class="cls-2" x="123.83" y="237.12" width="23.26" height="2.71" transform="translate(373.94 103.01) rotate(90)"/></g><polygon class="cls-4" points="99.85 252.11 94.08 252.11 94.08 249.51 100.12 249.51 99.85 252.11"/><rect class="cls-13" x="94.06" y="245.46" width="6.79" height="1.89"/><polygon class="cls-2" points="100.85 247.35 94.06 247.35 94.06 249.51 100.12 249.51 100.85 247.35"/><polygon class="cls-4" points="156.97 252.11 162.43 252.11 162.43 249.51 156.39 249.51 156.97 252.11"/><rect class="cls-13" x="155.66" y="245.46" width="6.79" height="1.89" transform="translate(318.1 492.82) rotate(-180)"/><polygon class="cls-2" points="155.66 247.35 162.44 247.35 162.44 249.51 156.39 249.51 155.66 247.35"/><rect class="cls-8" x="112.56" y="274.75" width="3.62" height="7.48"/><rect class="cls-8" x="126.62" y="274.75" width="3.62" height="7.48"/><rect class="cls-8" x="140.34" y="274.75" width="3.62" height="7.48"/><path class="cls-2" d="M355.79,223.16a34.22,34.22,0,0,0-58.49,24.3v49.86h68.36V247.46A34.27,34.27,0,0,0,355.79,223.16Z"/><path class="cls-4" d="M352.08,226.05a29.47,29.47,0,0,0-20.24-7.92c-16,0-28.78,12.13-28.78,27v52.22h57.12V245.1A25.57,25.57,0,0,0,352.08,226.05Z"/><polygon class="cls-6" points="333.9 218.44 329.23 218.44 328.15 211.45 334.99 211.45 333.9 218.44"/><circle class="cls-6" cx="331.57" cy="211.45" r="1.62"/><path class="cls-13" d="M349.2,229.29a25.15,25.15,0,0,0-17.84-7.48,25.46,25.46,0,0,0-25.17,25.47v50h50.57v-50A25.85,25.85,0,0,0,349.2,229.29Z"/><path class="cls-4" d="M354.42,247.39v49.93H308.53V247.39c0-13,10.47-23.6,23.12-23.6a22.38,22.38,0,0,1,16.13,6.93A23.74,23.74,0,0,1,354.42,247.39Z"/><path class="cls-2" d="M351.81,248.92v-1a20.75,20.75,0,0,0-5.84-14.6,19.73,19.73,0,0,0-14.2-6.07A20.61,20.61,0,0,0,311.43,248v1Z"/><rect class="cls-2" x="309.97" y="252.49" width="42.01" height="7.64"/><rect class="cls-2" x="308.53" y="248.78" width="45.89" height="1.87"/><rect class="cls-8" x="308.53" y="264.12" width="45.89" height="2.74"/><circle class="cls-6" cx="357.1" cy="215" r="5.29"/><circle class="cls-2" cx="357.1" cy="215" r="4.18"/><circle class="cls-6" cx="305.77" cy="215.27" r="5.29"/><circle class="cls-2" cx="305.77" cy="215.27" r="4.18"/><path class="cls-2" d="M351.81,248.92v-1a20.75,20.75,0,0,0-5.84-14.6,19.73,19.73,0,0,0-14.2-6.07A20.61,20.61,0,0,0,311.43,248v1Z"/><g class="cls-16"><rect class="cls-2" x="313.47" y="237.12" width="23.26" height="2.71" transform="translate(563.57 -86.62) rotate(90)"/><rect class="cls-2" x="327.04" y="237.12" width="23.26" height="2.71" transform="translate(577.15 -100.2) rotate(90)"/></g><polygon class="cls-4" points="303.06 252.11 297.3 252.11 297.3 249.51 303.33 249.51 303.06 252.11"/><rect class="cls-13" x="297.28" y="245.46" width="6.79" height="1.89"/><polygon class="cls-2" points="304.06 247.35 297.28 247.35 297.28 249.51 303.33 249.51 304.06 247.35"/><polygon class="cls-4" points="360.19 252.11 365.64 252.11 365.64 249.51 359.6 249.51 360.19 252.11"/><rect class="cls-13" x="358.87" y="245.46" width="6.79" height="1.89" transform="translate(724.53 492.82) rotate(-180)"/><polygon class="cls-2" points="358.87 247.35 365.66 247.35 365.66 249.51 359.6 249.51 358.87 247.35"/><rect class="cls-2" x="313.49" y="272.35" width="8.48" height="24.98"/><rect class="cls-2" x="327.54" y="272.35" width="8.48" height="24.98"/><rect class="cls-2" x="341.28" y="272.35" width="8.48" height="24.98"/><rect class="cls-8" x="315.92" y="274.75" width="3.62" height="7.48"/><rect class="cls-8" x="329.99" y="274.75" width="3.62" height="7.48"/><rect class="cls-8" x="343.7" y="274.75" width="3.62" height="7.48"/><path class="cls-2" d="M186.27,291V267a5.33,5.33,0,0,0-5.32-5.32h0a5.33,5.33,0,0,0-5.32,5.32V291Z"/><rect class="cls-6" x="176.98" y="263.46" width="7.96" height="33.86" rx="3.92" ry="3.92"/><rect class="cls-2" x="165.5" y="203.92" width="30.84" height="4.4"/><polygon class="cls-6" points="201.44 199.52 160.32 199.52 156.67 196.02 205.07 196.02 201.44 199.52"/><polygon class="cls-2" points="196.3 203.92 165.46 203.92 162.74 199.52 199.03 199.52 196.3 203.92"/><rect class="cls-2" x="165.22" y="209.98" width="31.32" height="2.23"/><polygon class="cls-8" points="196.54 209.98 165.22 209.98 163.62 208.31 198.14 208.31 196.54 209.98"/><rect class="cls-6" x="165.22" y="212.21" width="31.32" height="0.38"/><polygon class="cls-6" points="195.84 213.06 165.92 213.06 165.22 212.58 196.54 212.58 195.84 213.06"/><rect class="cls-8" x="165.92" y="213" width="29.93" height="0.96"/><rect class="cls-6" x="162.52" y="289.61" width="36.37" height="7.72"/><rect class="cls-2" x="163.98" y="213.95" width="11.75" height="2.09"/><rect class="cls-2" x="166.21" y="221.79" width="7.27" height="61.6"/><polygon class="cls-2" points="173.46 222.1 166.24 222.1 165.22 218.14 174.51 218.14 173.46 222.1"/><polygon class="cls-6" points="174.47 218.14 165.22 218.14 163.98 216.05 175.73 216.05 174.47 218.14"/><ellipse class="cls-6" cx="169.86" cy="222.31" rx="4.45" ry="0.52"/><rect class="cls-2" x="164.49" y="288.06" width="10.72" height="1.54"/><rect class="cls-6" x="163.18" y="286.63" width="13.34" height="1.43"/><polygon class="cls-6" points="166.05 283.4 164.7 285.02 165.63 285.02 165.63 285.7 164.7 285.7 164.7 286.63 173.65 286.63 173.65 283.4 166.05 283.4"/><polygon class="cls-6" points="173.65 283.4 175 285.02 174.06 285.02 174.06 285.7 175 285.7 175 286.63 166.38 286.63 166.38 283.4 173.65 283.4"/><rect class="cls-8" x="165.63" y="285.02" width="8.43" height="0.31"/><rect class="cls-8" x="163.18" y="287.88" width="13.34" height="0.19"/><rect class="cls-2" x="186.15" y="213.95" width="11.75" height="2.09"/><rect class="cls-2" x="188.38" y="221.79" width="7.27" height="61.6"/><polygon class="cls-2" points="195.63 222.1 188.41 222.1 187.39 218.14 196.68 218.14 195.63 222.1"/><polygon class="cls-6" points="196.64 218.14 187.39 218.14 186.15 216.05 197.9 216.05 196.64 218.14"/><ellipse class="cls-6" cx="192.03" cy="222.31" rx="4.45" ry="0.52"/><rect class="cls-2" x="186.66" y="288.06" width="10.72" height="1.54"/><rect class="cls-6" x="185.35" y="286.63" width="13.34" height="1.43"/><polygon class="cls-6" points="188.22 283.4 186.87 285.02 187.8 285.02 187.8 285.7 186.87 285.7 186.87 286.63 195.82 286.63 195.82 283.4 188.22 283.4"/><polygon class="cls-6" points="195.82 283.4 197.17 285.02 196.23 285.02 196.23 285.7 197.17 285.7 197.17 286.63 188.55 286.63 188.55 283.4 195.82 283.4"/><rect class="cls-8" x="187.8" y="285.02" width="8.43" height="0.31"/><rect class="cls-8" x="185.35" y="287.88" width="13.34" height="0.19"/><rect class="cls-2" x="156.67" y="194.55" width="48.41" height="1.47"/><rect class="cls-2" x="155.17" y="191.58" width="51.41" height="0.73"/><rect class="cls-2" x="175.36" y="225.99" width="11.41" height="20.01"/><polygon class="cls-2" points="205.07 194.55 156.67 194.55 155.17 192.31 206.58 192.31 205.07 194.55"/><rect class="cls-6" x="176.6" y="228.16" width="8.93" height="15.66"/><rect class="cls-4" x="177.57" y="229.87" width="6.99" height="12.25"/><path class="cls-2" d="M81.39,291V267a5.33,5.33,0,0,0-5.32-5.32h0A5.33,5.33,0,0,0,70.76,267V291Z"/><rect class="cls-6" x="72.09" y="263.46" width="7.96" height="33.86" rx="3.92" ry="3.92"/><rect class="cls-2" x="263.55" y="203.92" width="30.84" height="4.4"/><polygon class="cls-6" points="299.49 199.52 258.37 199.52 254.72 196.02 303.12 196.02 299.49 199.52"/><polygon class="cls-2" points="294.35 203.92 263.51 203.92 260.79 199.52 297.08 199.52 294.35 203.92"/><rect class="cls-2" x="263.27" y="209.98" width="31.32" height="2.23"/><polygon class="cls-17" points="294.59 209.98 263.27 209.98 261.67 208.31 296.19 208.31 294.59 209.98"/><rect class="cls-6" x="263.27" y="212.21" width="31.32" height="0.38"/><polygon class="cls-6" points="293.89 213.06 263.97 213.06 263.27 212.58 294.59 212.58 293.89 213.06"/><rect class="cls-8" x="263.97" y="213" width="29.93" height="0.96"/><rect class="cls-6" x="260.57" y="289.61" width="36.37" height="7.72"/><rect class="cls-2" x="262.03" y="213.95" width="11.75" height="2.09"/><rect class="cls-2" x="264.26" y="221.79" width="7.27" height="61.6"/><polygon class="cls-2" points="271.51 222.1 264.29 222.1 263.27 218.14 272.56 218.14 271.51 222.1"/><polygon class="cls-6" points="272.52 218.14 263.27 218.14 262.03 216.05 273.78 216.05 272.52 218.14"/><ellipse class="cls-6" cx="267.91" cy="222.31" rx="4.45" ry="0.52"/><rect class="cls-2" x="262.54" y="288.06" width="10.72" height="1.54"/><rect class="cls-6" x="261.23" y="286.63" width="13.34" height="1.43"/><polygon class="cls-6" points="264.1 283.4 262.75 285.02 263.69 285.02 263.69 285.7 262.75 285.7 262.75 286.63 271.7 286.63 271.7 283.4 264.1 283.4"/><polygon class="cls-6" points="271.7 283.4 273.05 285.02 272.11 285.02 272.11 285.7 273.05 285.7 273.05 286.63 264.43 286.63 264.43 283.4 271.7 283.4"/><rect class="cls-8" x="263.68" y="285.02" width="8.43" height="0.31"/><rect class="cls-8" x="261.23" y="287.88" width="13.34" height="0.19"/><rect class="cls-2" x="284.2" y="213.95" width="11.75" height="2.09"/><rect class="cls-2" x="286.43" y="221.79" width="7.27" height="61.6"/><polygon class="cls-2" points="293.68 222.1 286.46 222.1 285.44 218.14 294.73 218.14 293.68 222.1"/><polygon class="cls-6" points="294.69 218.14 285.44 218.14 284.2 216.05 295.95 216.05 294.69 218.14"/><ellipse class="cls-6" cx="290.08" cy="222.31" rx="4.45" ry="0.52"/><rect class="cls-2" x="284.71" y="288.06" width="10.72" height="1.54"/><rect class="cls-6" x="283.4" y="286.63" width="13.34" height="1.43"/><polygon class="cls-6" points="286.27 283.4 284.92 285.02 285.85 285.02 285.85 285.7 284.92 285.7 284.92 286.63 293.87 286.63 293.87 283.4 286.27 283.4"/><polygon class="cls-6" points="293.87 283.4 295.22 285.02 294.28 285.02 294.28 285.7 295.22 285.7 295.22 286.63 286.6 286.63 286.6 283.4 293.87 283.4"/><rect class="cls-8" x="285.85" y="285.02" width="8.43" height="0.31"/><rect class="cls-8" x="283.4" y="287.88" width="13.34" height="0.19"/><rect class="cls-2" x="254.72" y="194.55" width="48.41" height="1.47"/><rect class="cls-2" x="253.22" y="191.58" width="51.41" height="0.73"/><rect class="cls-2" x="273.41" y="225.99" width="11.41" height="20.01"/><polygon class="cls-6" points="303.12 194.55 254.72 194.55 253.22 192.31 304.63 192.31 303.12 194.55"/><rect class="cls-6" x="274.65" y="228.16" width="8.93" height="15.66"/><rect class="cls-4" x="275.62" y="229.87" width="6.99" height="12.25"/><rect class="cls-2" x="60.72" y="203.92" width="30.84" height="4.4"/><polygon class="cls-6" points="96.65 199.52 55.54 199.52 51.88 196.02 100.29 196.02 96.65 199.52"/><polygon class="cls-2" points="91.51 203.92 60.67 203.92 57.95 199.52 94.24 199.52 91.51 203.92"/><rect class="cls-2" x="60.44" y="209.98" width="31.32" height="2.23"/><polygon class="cls-17" points="91.76 209.98 60.44 209.98 58.83 208.31 93.36 208.31 91.76 209.98"/><rect class="cls-6" x="60.43" y="212.21" width="31.32" height="0.38"/><polygon class="cls-6" points="91.06 213.06 61.13 213.06 60.44 212.58 91.76 212.58 91.06 213.06"/><rect class="cls-8" x="61.13" y="213" width="29.93" height="0.96"/><rect class="cls-6" x="57.73" y="289.61" width="36.37" height="7.72"/><rect class="cls-2" x="59.2" y="213.95" width="11.75" height="2.09"/><rect class="cls-2" x="61.43" y="221.79" width="7.27" height="61.6"/><polygon class="cls-2" points="68.67 222.1 61.45 222.1 60.43 218.14 69.72 218.14 68.67 222.1"/><polygon class="cls-6" points="69.69 218.14 60.43 218.14 59.2 216.05 70.95 216.05 69.69 218.14"/><ellipse class="cls-6" cx="65.08" cy="222.31" rx="4.45" ry="0.52"/><rect class="cls-2" x="59.7" y="288.06" width="10.72" height="1.54"/><rect class="cls-6" x="58.39" y="286.63" width="13.34" height="1.43"/><polygon class="cls-6" points="61.26 283.4 59.91 285.02 60.85 285.02 60.85 285.7 59.91 285.7 59.91 286.63 68.87 286.63 68.87 283.4 61.26 283.4"/><polygon class="cls-6" points="68.87 283.4 70.21 285.02 69.28 285.02 69.28 285.7 70.21 285.7 70.21 286.63 61.59 286.63 61.59 283.4 68.87 283.4"/><rect class="cls-8" x="60.85" y="285.02" width="8.43" height="0.31"/><rect class="cls-8" x="58.39" y="287.88" width="13.34" height="0.19"/><rect class="cls-2" x="81.37" y="213.95" width="11.75" height="2.09"/><rect class="cls-2" x="83.6" y="221.79" width="7.27" height="61.6"/><polygon class="cls-2" points="90.84 222.1 83.62 222.1 82.6 218.14 91.89 218.14 90.84 222.1"/><polygon class="cls-6" points="91.86 218.14 82.6 218.14 81.36 216.05 93.12 216.05 91.86 218.14"/><ellipse class="cls-6" cx="87.25" cy="222.31" rx="4.45" ry="0.52"/><rect class="cls-2" x="81.87" y="288.06" width="10.72" height="1.54"/><rect class="cls-6" x="80.56" y="286.63" width="13.34" height="1.43"/><polygon class="cls-6" points="83.43 283.4 82.08 285.02 83.02 285.02 83.02 285.7 82.08 285.7 82.08 286.63 91.03 286.63 91.03 283.4 83.43 283.4"/><polygon class="cls-6" points="91.03 283.4 92.38 285.02 91.45 285.02 91.45 285.7 92.38 285.7 92.38 286.63 83.76 286.63 83.76 283.4 91.03 283.4"/><rect class="cls-8" x="83.02" y="285.02" width="8.43" height="0.31"/><rect class="cls-8" x="80.56" y="287.88" width="13.34" height="0.19"/><rect class="cls-2" x="51.88" y="194.55" width="48.41" height="1.47"/><rect class="cls-2" x="50.38" y="191.58" width="51.41" height="0.73"/><rect class="cls-2" x="70.57" y="225.99" width="11.41" height="20.01"/><polygon class="cls-2" points="100.29 194.55 51.88 194.55 50.38 192.31 101.79 192.31 100.29 194.55"/><rect class="cls-6" x="71.81" y="228.16" width="8.93" height="15.66"/><rect class="cls-4" x="72.78" y="229.87" width="6.99" height="12.25"/><rect class="cls-2" x="368.69" y="203.92" width="30.84" height="4.4"/><polygon class="cls-6" points="404.62 199.52 363.51 199.52 359.86 196.02 408.26 196.02 404.62 199.52"/><polygon class="cls-2" points="399.49 203.92 368.65 203.92 365.93 199.52 402.22 199.52 399.49 203.92"/><rect class="cls-2" x="368.41" y="209.98" width="31.32" height="2.23"/><polygon class="cls-17" points="399.73 209.98 368.41 209.98 366.81 208.31 401.33 208.31 399.73 209.98"/><rect class="cls-6" x="368.41" y="212.21" width="31.32" height="0.38"/><polygon class="cls-6" points="399.03 213.06 369.11 213.06 368.41 212.58 399.73 212.58 399.03 213.06"/><rect class="cls-8" x="369.1" y="213" width="29.93" height="0.96"/><rect class="cls-6" x="365.71" y="289.61" width="36.37" height="7.72"/><rect class="cls-2" x="367.17" y="213.95" width="11.75" height="2.09"/><rect class="cls-2" x="369.4" y="221.79" width="7.27" height="61.6"/><polygon class="cls-2" points="376.65 222.1 369.43 222.1 368.41 218.14 377.69 218.14 376.65 222.1"/><polygon class="cls-2" points="377.66 218.14 368.41 218.14 367.17 216.05 378.92 216.05 377.66 218.14"/><ellipse class="cls-6" cx="373.05" cy="222.31" rx="4.45" ry="0.52"/><rect class="cls-2" x="367.68" y="288.06" width="10.72" height="1.54"/><rect class="cls-6" x="366.36" y="286.63" width="13.34" height="1.43"/><polygon class="cls-6" points="369.24 283.4 367.89 285.02 368.82 285.02 368.82 285.7 367.89 285.7 367.89 286.63 376.84 286.63 376.84 283.4 369.24 283.4"/><polygon class="cls-6" points="376.84 283.4 378.19 285.02 377.25 285.02 377.25 285.7 378.19 285.7 378.19 286.63 369.57 286.63 369.57 283.4 376.84 283.4"/><rect class="cls-8" x="368.82" y="285.02" width="8.43" height="0.31"/><rect class="cls-8" x="366.36" y="287.88" width="13.34" height="0.19"/><rect class="cls-2" x="389.34" y="213.95" width="11.75" height="2.09"/><rect class="cls-2" x="391.57" y="221.79" width="7.27" height="61.6"/><polygon class="cls-3" points="398.82 222.1 391.6 222.1 390.58 218.14 399.87 218.14 398.82 222.1"/><polygon class="cls-2" points="399.83 218.14 390.58 218.14 389.34 216.05 401.09 216.05 399.83 218.14"/><ellipse class="cls-6" cx="395.22" cy="222.31" rx="4.45" ry="0.52"/><rect class="cls-2" x="389.85" y="288.06" width="10.72" height="1.54"/><rect class="cls-6" x="388.53" y="286.63" width="13.34" height="1.43"/><polygon class="cls-6" points="391.4 283.4 390.06 285.02 390.99 285.02 390.99 285.7 390.06 285.7 390.06 286.63 399.01 286.63 399.01 283.4 391.4 283.4"/><polygon class="cls-6" points="399.01 283.4 400.36 285.02 399.42 285.02 399.42 285.7 400.36 285.7 400.36 286.63 391.74 286.63 391.74 283.4 399.01 283.4"/><rect class="cls-8" x="390.99" y="285.02" width="8.43" height="0.31"/><rect class="cls-8" x="388.53" y="287.88" width="13.34" height="0.19"/><rect class="cls-2" x="359.86" y="194.55" width="48.41" height="1.47"/><rect class="cls-2" x="358.36" y="191.58" width="51.41" height="0.73"/><rect class="cls-2" x="378.55" y="225.99" width="11.41" height="20.01"/><polygon class="cls-6" points="408.26 194.55 359.86 194.55 358.36 192.31 409.76 192.31 408.26 194.55"/><rect class="cls-6" x="379.79" y="228.16" width="8.93" height="15.66"/><rect class="cls-4" x="380.76" y="229.87" width="6.99" height="12.25"/><rect class="cls-2" x="403.18" y="291.73" width="40.96" height="5.59"/><rect class="cls-2" x="15.91" y="291.73" width="40.96" height="5.59"/></svg>