<svg id="Layer_1" data-name="Layer 1" xmlns="http://www.w3.org/2000/svg" viewBox="0 0 460 460"><defs><style>.cls-1{fill:#213b5c;}.cls-2{fill:#4d4d4d;}.cls-3{fill:#c3ebce;}</style></defs><title>newyork</title><rect class="cls-1" x="170.1" y="430.38" width="119.81" height="23.04"/><rect class="cls-2" x="170.1" y="430.38" width="119.81" height="0.3"/><rect class="cls-1" x="181.62" y="375.38" width="96.77" height="55.3"/><rect class="cls-2" x="184.22" y="378.12" width="2.3" height="75.3"/><rect class="cls-2" x="171.84" y="432.57" width="2.88" height="20.85"/><rect class="cls-2" x="177.03" y="432.57" width="2.88" height="20.85"/><rect class="cls-2" x="280.01" y="432.57" width="2.88" height="20.85"/><rect class="cls-2" x="285.2" y="432.57" width="2.88" height="20.85"/><rect class="cls-2" x="191.13" y="378.12" width="2.3" height="75.3"/><rect class="cls-2" x="198.04" y="378.12" width="2.3" height="75.3"/><rect class="cls-2" x="202.65" y="378.12" width="2.3" height="75.3"/><rect class="cls-2" x="209.56" y="378.12" width="2.3" height="75.3"/><rect class="cls-2" x="216.47" y="378.12" width="2.3" height="75.3"/><rect class="cls-2" x="241.22" y="378.12" width="2.3" height="75.3"/><rect class="cls-2" x="248.14" y="378.12" width="2.3" height="75.3"/><rect class="cls-2" x="255.05" y="378.12" width="2.3" height="75.3"/><rect class="cls-2" x="259.66" y="378.12" width="2.3" height="75.3"/><rect class="cls-2" x="266.57" y="378.12" width="2.3" height="75.3"/><rect class="cls-2" x="273.48" y="378.12" width="2.3" height="75.3"/><rect class="cls-1" x="194.86" y="341.98" width="70.27" height="34.45"/><rect class="cls-1" x="200.62" y="186.46" width="58.75" height="155.52"/><rect class="cls-2" x="194.86" y="341.97" width="70.27" height="0.3"/><rect class="cls-2" x="238.43" y="186.46" width="20.94" height="0.3"/><rect class="cls-2" x="200.62" y="186.46" width="20.94" height="0.3"/><rect class="cls-1" x="202.93" y="154.2" width="54.14" height="32.26"/><rect class="cls-1" x="206.96" y="135.77" width="46.08" height="18.43"/><rect class="cls-2" x="236.13" y="154.2" width="20.94" height="0.3"/><rect class="cls-2" x="202.93" y="154.2" width="20.94" height="0.3"/><rect class="cls-3" x="221.15" y="143.57" width="17.28" height="215.42"/><rect class="cls-1" x="209.26" y="125.98" width="41.47" height="9.78"/><rect class="cls-2" x="229.14" y="32.74" width="1.73" height="50.24"/><rect class="cls-1" x="212.72" y="121.38" width="34.56" height="4.61"/><rect class="cls-2" x="227.7" y="47.86" width="4.61" height="20.74"/><rect class="cls-1" x="215.02" y="117.92" width="29.95" height="3.46"/><rect class="cls-1" x="225.97" y="74.25" width="8.06" height="4.8"/><rect class="cls-1" x="225.97" y="67.64" width="8.06" height="5.76"/><rect class="cls-1" x="221.94" y="115.62" width="16.13" height="2.3"/><polygon class="cls-1" points="238.06 115.62 221.94 115.62 224.84 100.36 235.13 100.36 238.06 115.62"/><polygon class="cls-1" points="235.15 100.36 224.85 100.36 225.54 81.53 234.46 81.53 235.15 100.36"/><rect class="cls-2" x="224.24" y="78.42" width="11.52" height="3.11"/><rect class="cls-2" x="224.24" y="72.73" width="11.52" height="2.3"/><rect class="cls-2" x="224.24" y="69.22" width="11.52" height="1.73"/><rect class="cls-2" x="227.98" y="32.48" width="4.03" height="1.15"/><rect class="cls-2" x="227.98" y="32.48" width="4.03" height="1.15" transform="translate(263.05 -196.95) rotate(90)"/><rect class="cls-2" x="217.73" y="18.51" width="24.55" height="0.69" transform="translate(248.85 -211.15) rotate(90)"/><rect class="cls-1" x="226.08" y="141.48" width="1.67" height="225.65"/><rect class="cls-1" x="231.84" y="141.48" width="1.67" height="225.65"/><rect class="cls-2" x="278.38" y="430.38" width="0.3" height="23.04"/><rect class="cls-2" x="181.32" y="430.38" width="0.3" height="23.04"/><rect class="cls-2" x="181.62" y="375.38" width="96.77" height="0.3"/><path class="cls-3" d="M226.08,453.42v-90a2,2,0,0,0-4.09,0v90Z"/><path class="cls-3" d="M231.84,453.42v-90a2,2,0,0,0-4.09,0v90Z"/><path class="cls-3" d="M237.6,453.42v-90a2,2,0,1,0-4.09,0v90Z"/><rect class="cls-2" x="201.89" y="190.72" width="1.73" height="183.1"/><rect class="cls-2" x="204.12" y="190.72" width="1.73" height="183.1"/><rect class="cls-2" x="216.09" y="190.72" width="1.73" height="183.1"/><rect class="cls-2" x="218.31" y="190.72" width="1.73" height="183.1"/><rect class="cls-2" x="207.9" y="190.72" width="1.73" height="183.1"/><rect class="cls-2" x="210.13" y="190.72" width="1.73" height="183.1"/><rect class="cls-2" x="212.3" y="190.72" width="1.73" height="183.1"/><rect class="cls-2" x="205.27" y="157.47" width="1.73" height="28.98"/><rect class="cls-2" x="217.24" y="157.47" width="1.73" height="28.98"/><rect class="cls-2" x="209.05" y="157.47" width="1.73" height="28.98"/><rect class="cls-2" x="211.28" y="157.47" width="1.73" height="28.98"/><rect class="cls-2" x="213.45" y="157.47" width="1.73" height="28.98"/><rect class="cls-2" x="240.98" y="157.47" width="1.73" height="28.98"/><rect class="cls-2" x="252.95" y="157.47" width="1.73" height="28.98"/><rect class="cls-2" x="244.76" y="157.47" width="1.73" height="28.98"/><rect class="cls-2" x="246.99" y="157.47" width="1.73" height="28.98"/><rect class="cls-2" x="249.17" y="157.47" width="1.73" height="28.98"/><rect class="cls-2" x="196.6" y="343.86" width="2.88" height="29.96"/><rect class="cls-2" x="256.39" y="190.78" width="1.73" height="183.1" transform="translate(514.5 564.66) rotate(-180)"/><rect class="cls-2" x="254.16" y="190.78" width="1.73" height="183.1" transform="translate(510.05 564.66) rotate(-180)"/><rect class="cls-2" x="242.19" y="190.78" width="1.73" height="183.1" transform="translate(486.11 564.66) rotate(-180)"/><rect class="cls-2" x="239.96" y="190.78" width="1.73" height="183.1" transform="translate(481.65 564.66) rotate(-180)"/><rect class="cls-2" x="250.38" y="190.78" width="1.73" height="183.1" transform="translate(502.48 564.66) rotate(-180)"/><rect class="cls-2" x="248.15" y="190.78" width="1.73" height="183.1" transform="translate(498.03 564.66) rotate(-180)"/><rect class="cls-2" x="245.97" y="190.78" width="1.73" height="183.1" transform="translate(493.68 564.66) rotate(-180)"/><rect class="cls-2" x="260.7" y="343.86" width="2.88" height="29.96" transform="translate(524.27 717.68) rotate(-180)"/><rect class="cls-2" x="241.98" y="142.68" width="3.46" height="11.52"/><rect class="cls-2" x="249.3" y="142.68" width="1.73" height="11.52"/><rect class="cls-2" x="214.52" y="142.68" width="3.46" height="11.52" transform="translate(432.5 296.88) rotate(-180)"/><rect class="cls-2" x="208.93" y="142.68" width="1.73" height="11.52" transform="translate(419.59 296.88) rotate(-180)"/><rect class="cls-2" x="209.26" y="135.47" width="41.47" height="0.3"/><rect class="cls-2" x="212.72" y="125.69" width="34.56" height="0.3"/><rect class="cls-2" x="215.02" y="121.08" width="29.95" height="0.3"/><rect class="cls-2" x="221.94" y="117.62" width="16.13" height="0.3"/></svg>