<svg xmlns="http://www.w3.org/2000/svg" xmlns:xlink="http://www.w3.org/1999/xlink" viewBox="0 0 460 460"><defs><style>.cls-1{isolation:isolate;}.cls-2{fill:#42005b;}.cls-3{fill:#cce5fd;}.cls-36,.cls-4{fill:#bda6c6;}.cls-5{fill:#ddeefe;}.cls-6{fill:#d5e9fe;}.cls-7{fill:#c4e1fd;}.cls-8{fill:#805491;}.cls-10,.cls-12,.cls-13,.cls-14,.cls-15,.cls-16,.cls-17,.cls-18,.cls-19,.cls-20,.cls-21,.cls-22,.cls-23,.cls-24,.cls-25,.cls-26,.cls-27,.cls-29,.cls-33,.cls-34,.cls-35,.cls-37,.cls-38,.cls-39,.cls-40,.cls-41,.cls-42,.cls-9{mix-blend-mode:multiply;}.cls-9{fill:url(#linear-gradient);}.cls-10{fill:url(#linear-gradient-2);}.cls-11{fill:#ddd1e1;}.cls-12{fill:url(#linear-gradient-3);}.cls-13{fill:url(#linear-gradient-4);}.cls-14{fill:url(#linear-gradient-5);}.cls-15{fill:url(#linear-gradient-6);}.cls-16{fill:url(#linear-gradient-7);}.cls-17{fill:url(#linear-gradient-8);}.cls-18{fill:url(#linear-gradient-9);}.cls-19{fill:url(#linear-gradient-10);}.cls-20{fill:url(#linear-gradient-11);}.cls-21{fill:url(#linear-gradient-12);}.cls-22{fill:url(#linear-gradient-13);}.cls-23{fill:url(#linear-gradient-14);}.cls-24{fill:url(#linear-gradient-15);}.cls-25{fill:url(#linear-gradient-16);}.cls-26{fill:url(#linear-gradient-17);}.cls-27{fill:url(#linear-gradient-18);}.cls-28,.cls-30,.cls-31,.cls-32{fill:none;}.cls-28,.cls-30{stroke:#bda6c6;}.cls-28,.cls-36{stroke-linejoin:bevel;}.cls-28,.cls-30,.cls-31,.cls-32,.cls-36{stroke-width:0.25px;}.cls-29{fill:url(#linear-gradient-19);}.cls-30,.cls-31{stroke-miterlimit:10;}.cls-31,.cls-32{stroke:#d5e9fe;stroke-linecap:round;}.cls-32{stroke-linejoin:round;}.cls-33{fill:url(#linear-gradient-20);}.cls-34{fill:url(#linear-gradient-21);}.cls-35{fill:url(#linear-gradient-22);}.cls-36{stroke:#42005b;}.cls-37{fill:url(#linear-gradient-23);}.cls-38{fill:url(#linear-gradient-24);}.cls-39{fill:url(#linear-gradient-25);}.cls-40{fill:url(#linear-gradient-26);}.cls-41{fill:url(#linear-gradient-27);}.cls-42{fill:url(#linear-gradient-28);}</style><linearGradient id="linear-gradient" x1="230.04" y1="218.23" x2="230.04" y2="214.06" gradientUnits="userSpaceOnUse"><stop offset="0" stop-color="#fff"/><stop offset="1" stop-color="#805491"/></linearGradient><linearGradient id="linear-gradient-2" x1="230.04" y1="162.17" x2="230.04" y2="158.01" xlink:href="#linear-gradient"/><linearGradient id="linear-gradient-3" x1="105.81" y1="158.77" x2="105.81" y2="155.52" gradientUnits="userSpaceOnUse"><stop offset="0" stop-color="#fff"/><stop offset="1" stop-color="#ddeefe"/></linearGradient><linearGradient id="linear-gradient-4" x1="179.73" y1="158.77" x2="179.73" y2="155.52" xlink:href="#linear-gradient-3"/><linearGradient id="linear-gradient-5" x1="280.37" y1="158.77" x2="280.37" y2="155.52" xlink:href="#linear-gradient-3"/><linearGradient id="linear-gradient-6" x1="354.29" y1="158.77" x2="354.29" y2="155.52" xlink:href="#linear-gradient-3"/><linearGradient id="linear-gradient-7" x1="105.81" y1="214.82" x2="105.81" y2="211.57" xlink:href="#linear-gradient-3"/><linearGradient id="linear-gradient-8" x1="105.81" y1="294.5" x2="105.81" y2="291.25" xlink:href="#linear-gradient"/><linearGradient id="linear-gradient-9" x1="179.7" y1="294.5" x2="179.7" y2="291.25" xlink:href="#linear-gradient"/><linearGradient id="linear-gradient-10" x1="280.35" y1="294.5" x2="280.35" y2="291.25" xlink:href="#linear-gradient"/><linearGradient id="linear-gradient-11" x1="354.24" y1="294.5" x2="354.24" y2="291.25" xlink:href="#linear-gradient"/><linearGradient id="linear-gradient-12" x1="179.73" y1="214.82" x2="179.73" y2="211.57" xlink:href="#linear-gradient-3"/><linearGradient id="linear-gradient-13" x1="280.37" y1="214.82" x2="280.37" y2="211.57" xlink:href="#linear-gradient-3"/><linearGradient id="linear-gradient-14" x1="354.29" y1="214.82" x2="354.29" y2="211.57" xlink:href="#linear-gradient-3"/><linearGradient id="linear-gradient-15" x1="230.14" y1="304.86" x2="230.14" y2="300.69" xlink:href="#linear-gradient-3"/><linearGradient id="linear-gradient-16" x1="105.82" y1="270.76" x2="105.82" y2="268.56" xlink:href="#linear-gradient"/><linearGradient id="linear-gradient-17" x1="105.82" y1="244.72" x2="105.82" y2="242.52" xlink:href="#linear-gradient"/><linearGradient id="linear-gradient-18" x1="230.04" y1="336.42" x2="230.04" y2="332.25" xlink:href="#linear-gradient-3"/><linearGradient id="linear-gradient-19" x1="317.32" y1="37.51" x2="317.32" y2="29.54" gradientUnits="userSpaceOnUse"><stop offset="0" stop-color="#fff" stop-opacity="0.65"/><stop offset="1" stop-color="#bda6c6"/></linearGradient><linearGradient id="linear-gradient-20" x1="317.32" y1="45.81" x2="317.32" y2="34.53" gradientUnits="userSpaceOnUse"><stop offset="0.23" stop-color="#fff" stop-opacity="0.65"/><stop offset="0.38" stop-color="#f6f2f7" stop-opacity="0.68"/><stop offset="0.58" stop-color="#dbcee0" stop-opacity="0.75"/><stop offset="0.8" stop-color="#af93ba" stop-opacity="0.87"/><stop offset="1" stop-color="#805491"/></linearGradient><linearGradient id="linear-gradient-21" x1="142.68" y1="37.51" x2="142.68" y2="29.54" xlink:href="#linear-gradient-19"/><linearGradient id="linear-gradient-22" x1="142.68" y1="45.81" x2="142.68" y2="34.53" xlink:href="#linear-gradient-20"/><linearGradient id="linear-gradient-23" x1="179.72" y1="270.76" x2="179.72" y2="268.56" xlink:href="#linear-gradient"/><linearGradient id="linear-gradient-24" x1="179.72" y1="244.72" x2="179.72" y2="242.52" xlink:href="#linear-gradient"/><linearGradient id="linear-gradient-25" x1="280.35" y1="270.76" x2="280.35" y2="268.56" xlink:href="#linear-gradient"/><linearGradient id="linear-gradient-26" x1="280.35" y1="244.72" x2="280.35" y2="242.52" xlink:href="#linear-gradient"/><linearGradient id="linear-gradient-27" x1="354.24" y1="270.76" x2="354.24" y2="268.56" xlink:href="#linear-gradient"/><linearGradient id="linear-gradient-28" x1="354.24" y1="244.72" x2="354.24" y2="242.52" xlink:href="#linear-gradient"/></defs><title>paris</title><g class="cls-1"><g id="Layer_1" data-name="Layer 1"><polygon class="cls-2" points="228.3 71.64 221.79 220.28 234.8 220.28 228.3 71.64"/><polygon class="cls-3" points="228.3 167.74 193.63 220.28 262.96 220.28 228.3 167.74"/><rect class="cls-4" x="98.36" y="38.28" width="88.64" height="180.64"/><rect class="cls-4" x="98.36" y="157.14" width="92.31" height="61.77"/><rect class="cls-4" x="269.07" y="157.14" width="92.31" height="61.77"/><path class="cls-2" d="M140.14,152.27V91.89c0-1-.13-24.69-11.47-24.69S117.2,90.88,117.2,91.89v60.38Z"/><path class="cls-5" d="M138.86,152.27V91.89c0-.23-.12-23.42-10.19-23.42s-10.19,23.18-10.19,23.42v60.38Z"/><path class="cls-6" d="M137.59,152.27V91.89c0-.22-.38-22.14-8.92-22.14s-8.92,21.92-8.92,22.14v60.38Z"/><path class="cls-3" d="M136.31,152.27V91.89c0-.21-.56-20.87-7.64-20.87S121,91.68,121,91.89v60.38Z"/><path class="cls-7" d="M134.74,152.27V91.89c0-3.6-1-19.6-5.9-19.6s-5.9,16-5.9,19.6v60.38Z"/><path class="cls-2" d="M168.16,152.27V91.89c0-1-.13-24.69-11.47-24.69s-11.47,23.68-11.47,24.69v60.38Z"/><path class="cls-5" d="M166.89,152.27V91.89c0-.23-.12-23.42-10.19-23.42S146.5,91.66,146.5,91.89v60.38Z"/><path class="cls-6" d="M165.62,152.27V91.89c0-.22-.38-22.14-8.92-22.14s-8.92,21.92-8.92,22.14v60.38Z"/><path class="cls-3" d="M164.34,152.27V91.89c0-.21-.56-20.87-7.64-20.87s-7.64,20.66-7.64,20.87v60.38Z"/><path class="cls-7" d="M162.77,152.27V91.89c0-3.6-1-19.6-5.9-19.6s-5.9,16-5.9,19.6v60.38Z"/><rect class="cls-4" x="99.28" y="211.19" width="261.51" height="224.81"/><rect class="cls-8" x="273" y="332.25" width="14.7" height="103.75"/><rect class="cls-8" x="349.73" y="332.25" width="14.7" height="103.75"/><polygon class="cls-8" points="364.43 332.25 95.65 332.25 93.73 330.38 93.73 300.69 366.56 300.69 366.56 330.38 364.43 332.25"/><path class="cls-2" d="M318.71,348.29c-29.41,9.93-29.3,45.76-29.3,45.76v42H348V394S348.12,358.21,318.71,348.29Z"/><path class="cls-2" d="M230,337.58c-38.59,11.14-38.45,51.35-38.45,51.35V436h76.89V388.93S268.63,348.72,230,337.58Z"/><rect class="cls-8" x="95.65" y="332.25" width="14.7" height="103.75"/><rect class="cls-8" x="172.38" y="332.25" width="14.7" height="103.75"/><path class="cls-2" d="M141.37,348.29C112,358.21,112.06,394,112.06,394v42h58.6V394S170.78,358.21,141.37,348.29Z"/><path class="cls-2" d="M142.68,226.6c-30.73,8-30.62,36.66-30.62,36.66v33.61H173.3V263.26S173.41,234.55,142.68,226.6Z"/><path class="cls-2" d="M317.39,226.6c-30.73,8-30.62,36.66-30.62,36.66v33.61H348V263.26S348.13,234.55,317.39,226.6Z"/><circle class="cls-3" cx="230.04" cy="259.3" r="28.87"/><circle class="cls-6" cx="230.04" cy="259.3" r="20.41"/><circle class="cls-2" cx="230.04" cy="259.3" r="6.91"/><path class="cls-7" d="M135.62,296.87V266.71c0-3.6-2.95-8.07-6.55-8.07s-6.55,4.46-6.55,8.07v30.16Z"/><path class="cls-7" d="M163.65,296.87V266.71c0-3.6-2.95-8.07-6.55-8.07s-6.55,4.46-6.55,8.07v30.16Z"/><path class="cls-7" d="M310.94,296.87V266.71c0-3.6-2.95-8.07-6.55-8.07s-6.55,4.46-6.55,8.07v30.16Z"/><path class="cls-7" d="M339,296.87V266.71c0-3.6-2.95-8.07-6.55-8.07s-6.55,4.46-6.55,8.07v30.16Z"/><circle class="cls-8" cx="142.78" cy="243.78" r="10.12"/><circle class="cls-8" cx="317.39" cy="243.78" r="10.12"/><rect class="cls-4" x="273" y="38.28" width="88.64" height="180.64"/><rect class="cls-9" x="112.06" y="214.06" width="235.95" height="4.17"/><rect class="cls-8" x="273" y="213.04" width="14.7" height="85.37"/><rect class="cls-10" x="112.06" y="158.01" width="235.95" height="4.17"/><rect class="cls-11" x="98.47" y="152.27" width="262.32" height="5.74"/><rect class="cls-8" x="273" y="158.27" width="14.7" height="56.06"/><rect class="cls-8" x="346.94" y="158.27" width="14.7" height="56.06"/><rect class="cls-8" x="98.47" y="158.27" width="14.7" height="56.06"/><rect class="cls-8" x="172.38" y="158.27" width="14.7" height="56.06"/><polygon class="cls-8" points="113.16 158.77 98.49 158.77 97.16 155.52 98.49 152.27 113.16 152.27 114.47 155.52 113.16 158.77"/><polygon class="cls-12" points="113.16 158.77 98.49 158.77 97.16 155.52 114.47 155.52 113.16 158.77"/><polygon class="cls-8" points="187.07 158.77 172.41 158.77 171.07 155.52 172.41 152.27 187.07 152.27 188.39 155.52 187.07 158.77"/><polygon class="cls-13" points="187.07 158.77 172.41 158.77 171.07 155.52 188.39 155.52 187.07 158.77"/><polygon class="cls-8" points="287.71 158.77 273.05 158.77 271.71 155.52 273.05 152.27 287.71 152.27 289.03 155.52 287.71 158.77"/><polygon class="cls-14" points="287.71 158.77 273.05 158.77 271.71 155.52 289.03 155.52 287.71 158.77"/><polygon class="cls-8" points="361.63 158.77 346.97 158.77 345.63 155.52 346.97 152.27 361.63 152.27 362.95 155.52 361.63 158.77"/><polygon class="cls-15" points="361.63 158.77 346.97 158.77 345.63 155.52 362.95 155.52 361.63 158.77"/><rect class="cls-11" x="98.47" y="208.32" width="262.32" height="5.74"/><rect class="cls-8" x="346.94" y="213.04" width="14.7" height="85.37"/><rect class="cls-8" x="98.47" y="213.04" width="14.7" height="85.37"/><rect class="cls-8" x="172.38" y="213.04" width="14.7" height="85.37"/><rect class="cls-11" x="98.47" y="291.25" width="262.32" height="6.89"/><polygon class="cls-8" points="113.16 214.82 98.49 214.82 97.16 211.57 98.49 208.32 113.16 208.32 114.47 211.57 113.16 214.82"/><polygon class="cls-16" points="113.16 214.82 98.49 214.82 97.16 211.57 114.47 211.57 113.16 214.82"/><polygon class="cls-11" points="113.16 294.5 98.49 294.5 97.16 291.25 98.49 288 113.16 288 114.47 291.25 113.16 294.5"/><polygon class="cls-17" points="113.16 294.5 98.49 294.5 97.16 291.25 114.47 291.25 113.16 294.5"/><polygon class="cls-11" points="187.05 294.5 172.38 294.5 171.05 291.25 172.38 288 187.05 288 188.36 291.25 187.05 294.5"/><polygon class="cls-18" points="187.05 294.5 172.38 294.5 171.05 291.25 188.36 291.25 187.05 294.5"/><polygon class="cls-11" points="287.7 294.5 273.03 294.5 271.7 291.25 273.03 288 287.7 288 289.01 291.25 287.7 294.5"/><polygon class="cls-19" points="287.7 294.5 273.03 294.5 271.7 291.25 289.01 291.25 287.7 294.5"/><polygon class="cls-11" points="361.59 294.5 346.92 294.5 345.59 291.25 346.92 288 361.59 288 362.9 291.25 361.59 294.5"/><polygon class="cls-20" points="361.59 294.5 346.92 294.5 345.59 291.25 362.9 291.25 361.59 294.5"/><polygon class="cls-8" points="187.07 214.82 172.41 214.82 171.07 211.57 172.41 208.32 187.07 208.32 188.39 211.57 187.07 214.82"/><polygon class="cls-21" points="187.07 214.82 172.41 214.82 171.07 211.57 188.39 211.57 187.07 214.82"/><polygon class="cls-8" points="287.71 214.82 273.05 214.82 271.71 211.57 273.05 208.32 287.71 208.32 289.03 211.57 287.71 214.82"/><polygon class="cls-22" points="287.71 214.82 273.05 214.82 271.71 211.57 289.03 211.57 287.71 214.82"/><polygon class="cls-8" points="361.63 214.82 346.97 214.82 345.63 211.57 346.97 208.32 361.63 208.32 362.95 211.57 361.63 214.82"/><polygon class="cls-23" points="361.63 214.82 346.97 214.82 345.63 211.57 362.95 211.57 361.63 214.82"/><rect class="cls-24" x="93.73" y="300.69" width="272.83" height="4.17"/><rect class="cls-25" x="98.47" y="268.56" width="14.7" height="2.21"/><rect class="cls-26" x="98.47" y="242.52" width="14.7" height="2.21"/><rect class="cls-27" x="95.65" y="332.25" width="268.78" height="4.17"/><polygon class="cls-2" points="366.56 300.69 93.73 300.69 98.53 298.14 361.73 298.14 366.56 300.69"/><path class="cls-2" d="M314.77,152.27V91.89c0-1-.13-24.69-11.47-24.69s-11.47,23.68-11.47,24.69v60.38Z"/><path class="cls-5" d="M313.5,152.27V91.89c0-.23-.12-23.42-10.19-23.42s-10.19,23.18-10.19,23.42v60.38Z"/><path class="cls-6" d="M312.23,152.27V91.89c0-.22-.38-22.14-8.92-22.14s-8.92,21.92-8.92,22.14v60.38Z"/><path class="cls-3" d="M310.95,152.27V91.89c0-.21-.56-20.87-7.64-20.87s-7.64,20.66-7.64,20.87v60.38Z"/><path class="cls-7" d="M309.38,152.27V91.89c0-3.6-1-19.6-5.9-19.6s-5.9,16-5.9,19.6v60.38Z"/><path class="cls-2" d="M342.8,152.27V91.89c0-1-.13-24.69-11.47-24.69s-11.47,23.68-11.47,24.69v60.38Z"/><path class="cls-5" d="M341.52,152.27V91.89c0-.23-.12-23.42-10.19-23.42s-10.19,23.18-10.19,23.42v60.38Z"/><path class="cls-6" d="M340.26,152.27V91.89c0-.22-.38-22.14-8.92-22.14s-8.92,21.92-8.92,22.14v60.38Z"/><path class="cls-3" d="M339,152.27V91.89c0-.21-.56-20.87-7.64-20.87s-7.64,20.66-7.64,20.87v60.38Z"/><path class="cls-7" d="M337.4,152.27V91.89c0-3.6-1-19.6-5.9-19.6s-5.9,16-5.9,19.6v60.38Z"/><line class="cls-28" x1="339.38" y1="32.3" x2="348.18" y2="26.43"/><line class="cls-28" x1="348.18" y1="32.3" x2="339.38" y2="26.43"/><line class="cls-28" x1="295.26" y1="26.43" x2="286.45" y2="32.3"/><line class="cls-28" x1="286.45" y1="26.43" x2="295.26" y2="32.3"/><line class="cls-28" x1="339.36" y1="26.43" x2="330.56" y2="32.3"/><line class="cls-28" x1="339.36" y1="32.3" x2="330.56" y2="26.43"/><line class="cls-28" x1="330.54" y1="26.43" x2="321.74" y2="32.3"/><line class="cls-28" x1="330.54" y1="32.3" x2="321.74" y2="26.43"/><line class="cls-28" x1="321.72" y1="26.43" x2="312.91" y2="32.3"/><line class="cls-28" x1="321.72" y1="32.3" x2="312.91" y2="26.43"/><line class="cls-28" x1="312.9" y1="26.43" x2="304.09" y2="32.3"/><line class="cls-28" x1="312.9" y1="32.3" x2="304.09" y2="26.43"/><line class="cls-28" x1="304.08" y1="26.43" x2="295.27" y2="32.3"/><line class="cls-28" x1="304.08" y1="32.3" x2="295.27" y2="26.43"/><polygon class="cls-4" points="365.82 34.34 363.65 31.57 361.89 29.54 353.53 29.54 347.96 32.26 341.68 32.31 317.32 32.3 316.32 32.3 293.32 32.3 286.45 32.3 280.92 29.54 272.85 29.54 270.99 31.57 269.33 33.72 266.3 37.51 273.94 34.87 316.95 34.87 317.68 34.87 360.69 34.87 368.33 37.51 365.82 34.34"/><polygon class="cls-29" points="365.82 34.34 363.65 31.57 361.89 29.54 353.53 29.54 347.96 32.26 341.68 32.31 317.81 32.36 316.82 32.36 293.32 32.3 286.45 32.3 280.92 29.54 272.85 29.54 271.23 31.27 270.99 31.57 266.3 37.51 273.94 34.87 316.95 34.87 317.68 34.87 360.69 34.87 368.33 37.51 365.82 34.34"/><polyline class="cls-28" points="272.78 29.73 272.78 24.19 281.15 29.54 286.69 26.43 286.69 32.3 281.15 24 272.85 29.54"/><path class="cls-30" d="M281,29.54v0Z"/><path class="cls-30" d="M362,29.54v0Z"/><polygon class="cls-28" points="348.18 26.49 348.18 32.36 353.73 24.06 353.73 29.59 348.18 26.49"/><line class="cls-28" x1="362.02" y1="24" x2="353.73" y2="29.54"/><line class="cls-28" x1="362.02" y1="29.54" x2="353.73" y2="24"/><polyline class="cls-31" points="365.31 26.66 362.02 24 353.71 24 348.18 26.43 305.31 26.43 329.32 26.43 286.46 26.43 280.92 24 272.62 24 269.33 26.66"/><polyline class="cls-32" points="305.31 32.31 348.18 32.31 353.71 29.54 362.02 29.54 363.65 31.57 365.31 26.66 362.02 24 353.71 24 348.18 26.43 305.31 26.43 329.32 26.43 286.46 26.43 280.92 24 272.62 24 269.33 26.66 270.99 31.57 272.62 29.54 280.92 29.54 286.46 32.31 329.32 32.31"/><polygon class="cls-4" points="266.3 37.51 273.01 45.81 281.93 45.81 286.82 45.81 317.32 45.81 347.7 45.81 352.7 45.81 361.62 45.81 368.33 37.51 360.69 34.53 317.68 34.53 273.95 34.53 266.3 37.51"/><polygon class="cls-33" points="266.3 37.51 273.01 45.81 281.93 45.81 286.82 45.81 317.32 45.81 347.7 45.81 352.7 45.81 361.62 45.81 368.33 37.51 360.69 34.53 317.68 34.53 273.95 34.53 266.3 37.51"/><line class="cls-28" x1="164.74" y1="32.3" x2="173.55" y2="26.43"/><line class="cls-28" x1="173.55" y1="32.3" x2="164.74" y2="26.43"/><line class="cls-28" x1="120.62" y1="26.43" x2="111.82" y2="32.3"/><line class="cls-28" x1="111.82" y1="26.43" x2="120.62" y2="32.3"/><line class="cls-28" x1="164.73" y1="26.43" x2="155.92" y2="32.3"/><line class="cls-28" x1="164.73" y1="32.3" x2="155.92" y2="26.43"/><line class="cls-28" x1="155.91" y1="26.43" x2="147.1" y2="32.3"/><line class="cls-28" x1="155.91" y1="32.3" x2="147.1" y2="26.43"/><line class="cls-28" x1="147.09" y1="26.43" x2="138.28" y2="32.3"/><line class="cls-28" x1="147.09" y1="32.3" x2="138.28" y2="26.43"/><line class="cls-28" x1="138.26" y1="26.43" x2="129.46" y2="32.3"/><line class="cls-28" x1="138.26" y1="32.3" x2="129.46" y2="26.43"/><line class="cls-28" x1="129.44" y1="26.43" x2="120.64" y2="32.3"/><line class="cls-28" x1="129.44" y1="32.3" x2="120.64" y2="26.43"/><polygon class="cls-4" points="191.19 34.34 189.01 31.57 187.25 29.54 178.89 29.54 173.32 32.26 167.05 32.31 142.68 32.3 141.69 32.3 118.68 32.3 111.82 32.3 106.29 29.54 98.22 29.54 96.35 31.57 94.69 33.72 91.67 37.51 99.31 34.87 142.32 34.87 143.04 34.87 186.06 34.87 193.7 37.51 191.19 34.34"/><polygon class="cls-34" points="191.19 34.34 189.01 31.57 187.25 29.54 178.89 29.54 173.32 32.26 167.05 32.31 143.18 32.36 142.19 32.36 118.68 32.3 111.82 32.3 106.29 29.54 98.22 29.54 96.59 31.27 96.35 31.57 91.67 37.51 99.31 34.87 142.32 34.87 143.04 34.87 186.06 34.87 193.7 37.51 191.19 34.34"/><polyline class="cls-28" points="98.14 29.73 98.14 24.19 106.52 29.54 112.06 26.43 112.06 32.3 106.52 24 98.22 29.54"/><path class="cls-30" d="M106.34,29.54v0Z"/><path class="cls-30" d="M187.39,29.54v0Z"/><polygon class="cls-28" points="173.55 26.49 173.55 32.36 179.1 24.06 179.1 29.59 173.55 26.49"/><line class="cls-28" x1="187.39" y1="24" x2="179.1" y2="29.54"/><line class="cls-28" x1="187.39" y1="29.54" x2="179.1" y2="24"/><polyline class="cls-31" points="190.67 26.66 187.38 24 179.08 24 173.54 26.43 130.68 26.43 154.69 26.43 111.82 26.43 106.29 24 97.98 24 94.69 26.66"/><polyline class="cls-32" points="130.68 32.31 173.54 32.31 179.08 29.54 187.38 29.54 189.01 31.57 190.67 26.66 187.38 24 179.08 24 173.54 26.43 130.68 26.43 154.69 26.43 111.82 26.43 106.29 24 97.98 24 94.69 26.66 96.35 31.57 97.98 29.54 106.29 29.54 111.82 32.31 154.69 32.31"/><polygon class="cls-4" points="91.67 37.51 98.38 45.81 107.3 45.81 112.19 45.81 142.68 45.81 173.07 45.81 178.07 45.81 186.99 45.81 193.7 37.51 186.06 34.53 143.04 34.53 99.31 34.53 91.67 37.51"/><polygon class="cls-35" points="91.67 37.51 98.38 45.81 107.3 45.81 112.19 45.81 142.68 45.81 173.07 45.81 178.07 45.81 186.99 45.81 193.7 37.51 186.06 34.53 143.04 34.53 99.31 34.53 91.67 37.51"/><path class="cls-4" d="M188,157.14v51h12.78V176.38c0-1.27,1.25-4.2,2.55-4.2s2.55,2.93,2.55,4.2V208.1h2.55V176.38c0-1.27,1.25-4.2,2.55-4.2s2.55,2.93,2.55,4.2V208.1H216V176.38c0-1.27,1.25-4.2,2.55-4.2s2.55,2.93,2.55,4.2V208.1h2.55V176.38c0-1.27,1.25-4.2,2.55-4.2s2.55,2.93,2.55,4.2V208.1h2.55V176.38c0-1.27,1.27-4.2,2.55-4.2s2.55,2.93,2.55,4.2V208.1H239V176.38c0-1.27,1.25-4.2,2.55-4.2s2.55,2.93,2.55,4.2V208.1h2.55V176.38c0-1.27,1.25-4.2,2.55-4.2s2.55,2.93,2.55,4.2V208.1h2.55V176.38c0-1.27,1.25-4.2,2.55-4.2s2.55,2.93,2.55,4.2V208.1H272.1v-51Z"/><line class="cls-36" x1="239.2" y1="152.39" x2="247.99" y2="146.33"/><line class="cls-36" x1="247.99" y1="152.39" x2="239.2" y2="146.33"/><line class="cls-36" x1="195.2" y1="146.33" x2="186.41" y2="152.39"/><line class="cls-36" x1="186.41" y1="146.33" x2="195.2" y2="152.39"/><line class="cls-36" x1="239.19" y1="146.33" x2="230.41" y2="152.39"/><line class="cls-36" x1="239.19" y1="152.39" x2="230.41" y2="146.33"/><line class="cls-36" x1="230.39" y1="146.33" x2="221.61" y2="152.39"/><line class="cls-36" x1="230.39" y1="152.39" x2="221.61" y2="146.33"/><line class="cls-36" x1="221.59" y1="146.33" x2="212.81" y2="152.39"/><line class="cls-36" x1="221.59" y1="152.39" x2="212.81" y2="146.33"/><line class="cls-36" x1="265.57" y1="146.33" x2="256.79" y2="152.39"/><line class="cls-36" x1="265.57" y1="152.39" x2="256.79" y2="146.33"/><line class="cls-36" x1="274.35" y1="146.33" x2="265.57" y2="152.39"/><line class="cls-36" x1="274.35" y1="152.39" x2="265.57" y2="146.33"/><line class="cls-36" x1="256.77" y1="146.33" x2="247.99" y2="152.39"/><line class="cls-36" x1="256.77" y1="152.39" x2="247.99" y2="146.33"/><line class="cls-36" x1="212.79" y1="146.33" x2="204.01" y2="152.39"/><line class="cls-36" x1="212.79" y1="152.39" x2="204.01" y2="146.33"/><line class="cls-36" x1="203.99" y1="146.33" x2="195.21" y2="152.39"/><line class="cls-36" x1="203.99" y1="152.39" x2="195.21" y2="146.33"/><polyline class="cls-32" points="274.35 146.33 213.28 146.33 247.49 146.33 186.42 146.33"/><line class="cls-32" x1="186.41" y1="152.39" x2="274.35" y2="152.39"/><line class="cls-36" x1="326.57" y1="152.39" x2="335.36" y2="146.33"/><line class="cls-36" x1="335.36" y1="152.39" x2="326.57" y2="146.33"/><line class="cls-36" x1="282.56" y1="146.33" x2="273.78" y2="152.39"/><line class="cls-36" x1="273.78" y1="146.33" x2="282.56" y2="152.39"/><line class="cls-36" x1="326.56" y1="146.33" x2="317.77" y2="152.39"/><line class="cls-36" x1="326.56" y1="152.39" x2="317.77" y2="146.33"/><line class="cls-36" x1="317.76" y1="146.33" x2="308.97" y2="152.39"/><line class="cls-36" x1="317.76" y1="152.39" x2="308.97" y2="146.33"/><line class="cls-36" x1="308.96" y1="146.33" x2="300.18" y2="152.39"/><line class="cls-36" x1="308.96" y1="152.39" x2="300.18" y2="146.33"/><line class="cls-36" x1="352.94" y1="146.33" x2="344.15" y2="152.39"/><line class="cls-36" x1="352.94" y1="152.39" x2="344.15" y2="146.33"/><line class="cls-36" x1="361.72" y1="146.33" x2="352.94" y2="152.39"/><line class="cls-36" x1="361.72" y1="152.39" x2="352.94" y2="146.33"/><line class="cls-36" x1="344.14" y1="146.33" x2="335.36" y2="152.39"/><line class="cls-36" x1="344.14" y1="152.39" x2="335.36" y2="146.33"/><line class="cls-36" x1="300.16" y1="146.33" x2="291.38" y2="152.39"/><line class="cls-36" x1="300.16" y1="152.39" x2="291.38" y2="146.33"/><line class="cls-36" x1="291.36" y1="146.33" x2="282.58" y2="152.39"/><line class="cls-36" x1="291.36" y1="152.39" x2="282.58" y2="146.33"/><polyline class="cls-32" points="361.72 146.33 300.64 146.33 334.86 146.33 273.79 146.33"/><line class="cls-32" x1="273.78" y1="152.39" x2="361.72" y2="152.39"/><line class="cls-36" x1="151.27" y1="152.39" x2="160.05" y2="146.33"/><line class="cls-36" x1="160.05" y1="152.39" x2="151.27" y2="146.33"/><line class="cls-36" x1="107.26" y1="146.33" x2="98.47" y2="152.39"/><line class="cls-36" x1="98.47" y1="146.33" x2="107.26" y2="152.39"/><line class="cls-36" x1="151.25" y1="146.33" x2="142.47" y2="152.39"/><line class="cls-36" x1="151.25" y1="152.39" x2="142.47" y2="146.33"/><line class="cls-36" x1="142.45" y1="146.33" x2="133.67" y2="152.39"/><line class="cls-36" x1="142.45" y1="152.39" x2="133.67" y2="146.33"/><line class="cls-36" x1="133.65" y1="146.33" x2="124.87" y2="152.39"/><line class="cls-36" x1="133.65" y1="152.39" x2="124.87" y2="146.33"/><line class="cls-36" x1="177.63" y1="146.33" x2="168.85" y2="152.39"/><line class="cls-36" x1="177.63" y1="152.39" x2="168.85" y2="146.33"/><line class="cls-36" x1="186.42" y1="146.33" x2="177.63" y2="152.39"/><line class="cls-36" x1="186.42" y1="152.39" x2="177.63" y2="146.33"/><line class="cls-36" x1="168.83" y1="146.33" x2="160.05" y2="152.39"/><line class="cls-36" x1="168.83" y1="152.39" x2="160.05" y2="146.33"/><line class="cls-36" x1="124.86" y1="146.33" x2="116.07" y2="152.39"/><line class="cls-36" x1="124.86" y1="152.39" x2="116.07" y2="146.33"/><line class="cls-36" x1="116.06" y1="146.33" x2="107.27" y2="152.39"/><line class="cls-36" x1="116.06" y1="152.39" x2="107.27" y2="146.33"/><polyline class="cls-32" points="186.41 146.33 125.34 146.33 159.55 146.33 98.48 146.33"/><line class="cls-32" x1="98.47" y1="152.39" x2="186.41" y2="152.39"/><polygon class="cls-4" points="105.83 257.42 98.47 268.56 113.17 268.56 105.83 257.42"/><rect class="cls-4" x="98.47" y="240.15" width="14.7" height="2.55"/><rect class="cls-37" x="172.36" y="268.56" width="14.7" height="2.21"/><rect class="cls-38" x="172.36" y="242.52" width="14.7" height="2.21"/><polygon class="cls-4" points="179.72 257.42 172.37 268.56 187.07 268.56 179.72 257.42"/><rect class="cls-4" x="172.36" y="240.15" width="14.7" height="2.55"/><rect class="cls-39" x="273" y="268.56" width="14.7" height="2.21"/><rect class="cls-40" x="273" y="242.52" width="14.7" height="2.21"/><polygon class="cls-4" points="280.35 257.42 273 268.56 287.7 268.56 280.35 257.42"/><rect class="cls-4" x="273" y="240.15" width="14.7" height="2.55"/><rect class="cls-41" x="346.89" y="268.56" width="14.7" height="2.21"/><rect class="cls-42" x="346.89" y="242.52" width="14.7" height="2.21"/><polygon class="cls-4" points="354.24 257.42 346.89 268.56 361.59 268.56 354.24 257.42"/><rect class="cls-4" x="346.89" y="240.15" width="14.7" height="2.55"/><rect class="cls-7" x="126.41" y="402.72" width="12.25" height="33.28"/><rect class="cls-7" x="144.08" y="402.72" width="12.25" height="33.28"/><rect class="cls-7" x="215.19" y="402.72" width="12.25" height="33.28"/><rect class="cls-7" x="232.85" y="402.72" width="12.25" height="33.28"/><rect class="cls-7" x="303.76" y="402.72" width="12.25" height="33.28"/><rect class="cls-7" x="321.42" y="402.72" width="12.25" height="33.28"/></g></g></svg>