<svg id="Layer_1" data-name="Layer 1" xmlns="http://www.w3.org/2000/svg" viewBox="0 0 460 460"><defs><style>.cls-1{fill:#a100e2;}.cls-2{fill:#42005b;}.cls-3{fill:#cf2a84;}.cls-4{fill:#c6016d;}</style></defs><title>paris</title><path class="cls-1" d="M241.7,60.65h-16.4S220.27,216,210.85,257h45.31C246.74,216,241.7,60.65,241.7,60.65Z"/><path class="cls-2" d="M213,258.08C221.49,216,226.51,77.92,227.1,62.81h12.8c.59,15.1,6,153.2,14.45,195.27Z"/><rect class="cls-3" x="224.2" y="45.93" width="18.6" height="13.95"/><rect class="cls-4" x="224.2" y="59.86" width="18.6" height="16.25"/><polygon class="cls-2" points="237.23 45.95 229.8 45.95 231.18 11.07 235.83 11.07 237.23 45.95"/><path class="cls-1" d="M257.88,264.32H208.35s-19.5,62.78-26.46,72.08H213.8s8.73-37.2,9.63-51.16H242.8c.91,14,9.63,51.16,9.63,51.16h31.91C277.38,327.1,257.88,264.32,257.88,264.32Z"/><path class="cls-2" d="M254.32,336.84c-1.6-5.39-8.87-39.8-9.66-51.89l-.11-2H221.69l-.11,2c-.79,12.1-8.06,46.5-9.66,51.89h-28c7.44-14,23.61-65.81,26.3-71.2h45.43c2.68,5.39,18.8,57.18,26.24,71.2Z"/><path class="cls-1" d="M354.18,450H310s-20.28-71.5-76.08-71.5c-21.14,0-37.16,10.28-48.92,23-1.35,1.46-2.65,3-3.88,4.51C164.69,426.17,158,450,158,450H113.82l.16-1.31,59.55-89.37h120.8L354,448.64Z"/><path class="cls-2" d="M311.37,448c-3.22-8.63-25.21-71.41-77.45-71.41-18.9,0-35.82,8-50.29,23.66-1.39,1.51-2.72,3-4,4.54-14.42,17.69-21.36,37.81-23,43.21h-40l57.95-85.23H293.33L351.44,448Z"/><path class="cls-1" d="M236.86,200.45c-2.08-24.93-1.73-45.37-2.13-57.47V76.13h-.06c-.54,0,.06,0-2.27,0v0h0v73c0,12.33,0,30-1.74,51.13s-3.75,40.21-6,57.1h2c2.42-19.6,4.47-40.32,6-61.4,1-14.07.59-28.07,1.15-41.58.56,13.76.1,27.82,1.17,42.15,1.57,21.08,2.53,41.4,5,61h2C239.7,240.61,238.61,221.52,236.86,200.45Z"/><polygon class="cls-1" points="264.63 285.33 201.6 285.33 203.88 278.35 262.35 278.35 264.63 285.33"/><path class="cls-1" d="M203.29,357c-.28.6-.53,1.21-.81,1.84-4,9.07-8.16,20.76-12.51,31.13-1.07,2.56-2.14,5-3.23,7.51-.58,1.35-1.14,2.7-1.74,4-1.35,1.46-2.65,3-3.88,4.51.67-1.58,1.4-3.19,2.09-4.79,1.16-2.65,2.33-5.09,3.49-7.81,5.6-13.09,10.49-25.44,14.3-34.6.26-.63.51-1.23.77-1.84Z"/><path class="cls-1" d="M264.61,357c.28.6.53,1.21.81,1.84,4,9.07,8.16,20.76,12.51,31.13,1.07,2.56,2.14,5,3.23,7.51.58,1.35,1.14,2.7,1.74,4,1.39,1.55,2.6,2.94,3.86,4.46-.67-1.58-1.37-3.13-2.07-4.74-1.16-2.65-2.33-5.09-3.49-7.81-5.6-13.09-10.49-25.44-14.3-34.6-.26-.63-.51-1.23-.77-1.84Z"/><rect class="cls-3" x="168.49" y="336.4" width="127.89" height="22.92"/><path class="cls-1" d="M234.05,378.54a67.42,67.42,0,0,1,22,4.39,70.39,70.39,0,0,1,27.11,18.86l-5-11.27s-18-16.75-44.07-16.75h0c-26.05,0-44.55,17.32-44.55,17.32L185,401.52a70.85,70.85,0,0,1,49.06-23"/><polygon class="cls-1" points="303.2 372.6 164.68 372.6 163.13 374.92 304.67 374.8 303.2 372.6"/><path class="cls-1" d="M224,264.25c-.37,3.53-.76,7.13-1.18,10.89-.39,3.47-.78,6.86-1.18,10.22h1.75c.55-4.8,1.09-9.61,1.59-14.46.23-2.21.44-4.43.65-6.64Z"/><path class="cls-1" d="M242.33,264.25c.31,3.53.64,7.14,1,10.91.33,3.47.67,6.87,1,10.23l-1.75,0c-.47-4.81-.92-9.63-1.34-14.49-.19-2.22-.36-4.43-.54-6.65Z"/><rect class="cls-3" x="203.28" y="257.34" width="60.46" height="7.13"/><rect class="cls-4" x="229.8" y="9.15" width="7.43" height="1.92"/></svg>