<svg id="Layer_1" data-name="Layer 1" xmlns="http://www.w3.org/2000/svg" viewBox="0 0 460 460"><defs><style>.cls-1{fill:#dfa8f5;}.cls-2{fill:#42005b;}.cls-3{fill:#bf52eb;}.cls-4{fill:#622b77;}.cls-5{fill:#a100e2;}.cls-6{fill:#805491;}.cls-7{fill:#eed1fa;}</style></defs><title>paris</title><path class="cls-1" d="M57.79,61.93v338H177.25V235.62c0-30,23.16-54.55,52.84-54.55s52.84,24.55,52.84,54.55v164.3H404.68v-338Z"/><rect class="cls-2" x="52.9" y="62.24" width="354.02" height="4.32"/><rect class="cls-3" x="307.41" y="177.78" width="78.13" height="43.41"/><rect class="cls-4" x="327.72" y="163.01" width="36.76" height="73.51" transform="translate(545.87 -146.34) rotate(90)"/><rect class="cls-5" x="330.02" y="165.16" width="32.16" height="69.2" transform="translate(545.87 -146.34) rotate(90)"/><rect class="cls-3" x="74.27" y="177.78" width="78.13" height="43.41"/><rect class="cls-4" x="94.59" y="163.01" width="36.76" height="73.51" transform="translate(312.73 86.8) rotate(90)"/><rect class="cls-5" x="96.89" y="165.16" width="32.16" height="69.2" transform="translate(312.73 86.8) rotate(90)"/><rect class="cls-3" x="57.22" y="44.97" width="345.38" height="17.27"/><rect class="cls-6" x="52.9" y="59.49" width="354.02" height="4.32"/><rect class="cls-6" x="52.9" y="100.51" width="354.02" height="17.27"/><rect class="cls-4" x="57.79" y="117.78" width="346.89" height="21.59"/><rect class="cls-2" x="57.79" y="139.07" width="346.89" height="8.63"/><polygon class="cls-5" points="166.37 227.27 166.37 168.99 231.13 168.99 193.84 191.53 166.37 227.27"/><rect class="cls-7" x="57.79" y="96.77" width="346.89" height="3.73"/><polygon class="cls-5" points="292.86 227.27 292.86 168.99 228.1 168.99 265.39 191.53 292.86 227.27"/><rect class="cls-7" x="57.22" y="156.26" width="345.38" height="12.95"/><path class="cls-3" d="M283,398.39h10.6V234.48c0-35.55-28.54-64.47-63.62-64.47s-63.62,28.92-63.62,64.47V398.39H177V235.07c0-29.67,23.74-53.73,53-53.73s53,24.06,53,53.73Z"/><rect class="cls-6" x="51.89" y="226.79" width="129.52" height="4.32"/><rect class="cls-6" x="278.48" y="226.79" width="129.52" height="4.32"/><rect class="cls-6" x="51.89" y="364.94" width="129.52" height="4.32"/><rect class="cls-6" x="278.48" y="364.94" width="129.52" height="4.32"/><rect class="cls-5" x="225.59" y="166.62" width="8.63" height="14.4"/><rect class="cls-5" x="51.15" y="402.4" width="131.04" height="10.79"/><polygon class="cls-6" points="182.19 402.4 51.15 402.4 57.34 398.08 175.95 398.08 182.19 402.4"/><rect class="cls-5" x="277.81" y="402.4" width="131.04" height="10.79"/><polygon class="cls-6" points="408.85 402.4 277.81 402.4 284 398.08 402.61 398.08 408.85 402.4"/><rect class="cls-6" x="82.19" y="404.24" width="62.92" height="10.79"/><polygon class="cls-4" points="101.44 404.24 145.11 404.24 138.23 399.92 101.44 399.92 101.44 404.24"/><polygon class="cls-4" points="118.45 399.92 89.02 399.92 82.19 404.24 118.45 404.24 118.45 399.92"/><rect class="cls-3" x="89.05" y="368.82" width="49.17" height="31.1"/><polygon class="cls-3" points="140.86 364.94 86.44 364.94 89.06 358.47 138.24 358.47 140.86 364.94"/><rect class="cls-4" x="85.09" y="364.94" width="57.09" height="4.32"/><rect class="cls-6" x="314.7" y="404.24" width="62.92" height="10.79"/><polygon class="cls-4" points="333.95 404.24 377.62 404.24 370.74 399.92 333.95 399.92 333.95 404.24"/><polygon class="cls-4" points="350.96 399.92 321.53 399.92 314.7 404.24 350.96 404.24 350.96 399.92"/><rect class="cls-3" x="321.56" y="368.82" width="49.17" height="31.1"/><polygon class="cls-3" points="373.38 364.94 318.96 364.94 321.58 358.47 370.75 358.47 373.38 364.94"/><rect class="cls-4" x="317.6" y="364.94" width="57.09" height="4.32"/><circle class="cls-3" cx="73.41" cy="80.17" r="5.83"/><circle class="cls-3" cx="101.47" cy="80.17" r="5.83"/><circle class="cls-3" cx="129.53" cy="80.17" r="5.83"/><circle class="cls-3" cx="157.59" cy="80.17" r="5.83"/><circle class="cls-3" cx="185.66" cy="80.17" r="5.83"/><circle class="cls-3" cx="213.72" cy="80.17" r="5.83"/><circle class="cls-3" cx="241.78" cy="80.17" r="5.83"/><circle class="cls-3" cx="269.84" cy="80.17" r="5.83"/><circle class="cls-3" cx="297.91" cy="80.17" r="5.83"/><circle class="cls-3" cx="325.97" cy="80.17" r="5.83"/><circle class="cls-3" cx="354.03" cy="80.17" r="5.83"/><rect class="cls-6" x="81.39" y="66.55" width="2.16" height="30.22"/><rect class="cls-6" x="109.46" y="66.55" width="2.16" height="30.22"/><rect class="cls-6" x="137.52" y="66.55" width="2.16" height="30.22"/><rect class="cls-6" x="165.58" y="66.55" width="2.16" height="30.22"/><rect class="cls-6" x="193.64" y="66.55" width="2.16" height="30.22"/><rect class="cls-6" x="221.71" y="66.55" width="2.16" height="30.22"/><rect class="cls-6" x="249.77" y="66.55" width="2.16" height="30.22"/><rect class="cls-6" x="277.83" y="66.55" width="2.16" height="30.22"/><rect class="cls-6" x="305.89" y="66.55" width="2.16" height="30.22"/><rect class="cls-6" x="333.96" y="66.55" width="2.16" height="30.22"/><rect class="cls-6" x="362.02" y="66.55" width="2.16" height="30.22"/><circle class="cls-3" cx="382.09" cy="80.17" r="5.83"/><rect class="cls-6" x="390.08" y="66.55" width="2.16" height="30.22"/></svg>