<svg xmlns="http://www.w3.org/2000/svg" xmlns:xlink="http://www.w3.org/1999/xlink" viewBox="0 0 460 460"><defs><style>.cls-1{isolation:isolate;}.cls-2{fill:#cae4fd;}.cls-3{fill:#ae24e6;}.cls-4{fill:#cf2a84;}.cls-5{fill:#42005b;}.cls-6{fill:#a100e2;}.cls-7{fill:#4d4d4d;}.cls-8{fill:#c4e1fd;}.cls-9{fill:#c6016d;}.cls-10{fill:#f1f1f1;}.cls-11{fill:#cfe7fd;}.cls-12{fill:#f2f2f2;}.cls-13{fill:#d02f87;}.cls-14{fill:#dcedfe;}.cls-15,.cls-16,.cls-17,.cls-18,.cls-19{mix-blend-mode:multiply;}.cls-15{fill:url(#linear-gradient);}.cls-16{fill:url(#linear-gradient-2);}.cls-17{fill:url(#linear-gradient-3);}.cls-18{fill:url(#linear-gradient-4);}.cls-19{fill:url(#linear-gradient-5);}.cls-20{fill:#4d0f65;}</style><linearGradient id="linear-gradient" x1="230" y1="217.89" x2="230" y2="212.15" gradientUnits="userSpaceOnUse"><stop offset="0" stop-color="#fff"/><stop offset="1" stop-color="#ae24e6"/></linearGradient><linearGradient id="linear-gradient-2" x1="281.3" y1="239.36" x2="281.3" y2="235.72" gradientUnits="userSpaceOnUse"><stop offset="0" stop-color="#fff"/><stop offset="1" stop-color="#4d4d4d"/></linearGradient><linearGradient id="linear-gradient-3" x1="281.3" y1="272.77" x2="281.3" y2="269.13" xlink:href="#linear-gradient-2"/><linearGradient id="linear-gradient-4" x1="71.87" y1="239.36" x2="71.87" y2="235.72" xlink:href="#linear-gradient-2"/><linearGradient id="linear-gradient-5" x1="71.87" y1="272.77" x2="71.87" y2="269.13" xlink:href="#linear-gradient-2"/></defs><title>paris</title><g class="cls-1"><g id="Layer_1" data-name="Layer 1"><rect class="cls-2" x="331.18" y="180.37" width="8.91" height="17.78" transform="translate(671.28 378.52) rotate(-180)"/><rect class="cls-2" x="119.76" y="180.37" width="8.91" height="17.78"/><rect class="cls-2" x="20.51" y="195.7" width="98.02" height="111.38"/><rect class="cls-3" x="118.71" y="195.7" width="222.77" height="111.38"/><rect class="cls-2" x="341.47" y="195.7" width="98.02" height="111.38"/><rect class="cls-4" x="202.15" y="195.7" width="55.69" height="111.38"/><rect class="cls-2" x="84.88" y="158.09" width="11.14" height="26.73"/><rect class="cls-2" x="104.16" y="170.81" width="8.91" height="18.8"/><polygon class="cls-5" points="119.76 195.7 64.53 195.7 82.55 174.99 101.71 174.99 119.76 195.7"/><polygon class="cls-5" points="128.67 195.7 95.35 195.7 106.22 183.21 117.78 183.21 128.67 195.7"/><rect class="cls-2" x="38.1" y="158.09" width="11.14" height="26.73"/><rect class="cls-4" x="114.07" y="195.7" width="8.91" height="111.38"/><rect class="cls-4" x="337.02" y="195.7" width="8.91" height="111.38"/><rect class="cls-6" x="18.15" y="304.58" width="423.69" height="9.19"/><polygon class="cls-5" points="111.78 195.7 22.68 195.7 51.74 162.28 82.66 162.28 111.78 195.7"/><rect class="cls-2" x="363.84" y="158.09" width="11.14" height="26.73" transform="translate(738.81 342.92) rotate(-180)"/><rect class="cls-2" x="346.78" y="170.81" width="8.91" height="18.8" transform="translate(702.46 360.41) rotate(-180)"/><polygon class="cls-5" points="340.09 195.7 395.32 195.7 377.3 174.99 358.14 174.99 340.09 195.7"/><polygon class="cls-5" points="331.18 195.7 364.5 195.7 353.63 183.21 342.07 183.21 331.18 195.7"/><rect class="cls-2" x="410.62" y="158.09" width="11.14" height="26.73" transform="translate(832.37 342.92) rotate(-180)"/><polygon class="cls-5" points="348.07 195.7 437.17 195.7 408.11 162.28 377.19 162.28 348.07 195.7"/><rect class="cls-3" x="202.14" y="167.34" width="6.68" height="22.28"/><rect class="cls-3" x="253.37" y="167.34" width="6.68" height="22.28"/><path class="cls-5" d="M296.8,195.7c-.11-6.7-28.32-12.12-63.1-12.12s-63,5.42-63.1,12.12Z"/><rect class="cls-7" x="222.57" y="148.75" width="7.43" height="5.16"/><rect class="cls-4" x="229.55" y="146.23" width="2.23" height="17.82"/><path class="cls-3" d="M234.94,176.8V165.05a4.28,4.28,0,1,0-8.55,0V176.8Z"/><path class="cls-5" d="M260.39,191.82c-4.7-10.76-16.23-18.37-29.73-18.37s-25,7.61-29.73,18.37Z"/><path class="cls-2" d="M247.13,195.7a23.16,23.16,0,0,0,.17-2.63c0-10.83-7.44-19.61-16.63-19.61S214,182.24,214,193.07a23.16,23.16,0,0,0,.17,2.63Z"/><rect class="cls-5" x="18.37" y="233.76" width="423.26" height="2.23"/><rect class="cls-5" x="18.37" y="267.18" width="423.26" height="2.23"/><path class="cls-8" d="M178.47,299.55V287.66c0-4.17,2.86-7.56,6.68-7.56s6.68,3.39,6.68,7.56v11.89Z"/><path class="cls-9" d="M191,298.65V288c0-3.73-2.62-6.78-5.81-6.78s-5.81,3.05-5.81,6.78v10.65Z"/><path class="cls-5" d="M180,298.65h11V288.07a7.67,7.67,0,0,0-1.38-4.45Z"/><path class="cls-8" d="M185.6,298.67h-.89v-17.4a1.14,1.14,0,0,1,.45-.06,1.24,1.24,0,0,1,.45.06Z"/><rect class="cls-8" x="179.15" y="288.62" width="12" height="0.89"/><path class="cls-8" d="M156.19,299.55V287.66c0-4.17,2.86-7.56,6.68-7.56s6.68,3.39,6.68,7.56v11.89Z"/><path class="cls-9" d="M168.69,298.65V288c0-3.73-2.62-6.78-5.81-6.78s-5.81,3.05-5.81,6.78v10.65Z"/><path class="cls-5" d="M157.71,298.65h11V288.07a7.67,7.67,0,0,0-1.38-4.45Z"/><path class="cls-8" d="M163.33,298.67h-.89v-17.4a1.14,1.14,0,0,1,.45-.06,1.24,1.24,0,0,1,.45.06Z"/><rect class="cls-8" x="156.87" y="288.62" width="12" height="0.89"/><path class="cls-8" d="M133.91,299.55V287.66c0-4.17,2.86-7.56,6.68-7.56s6.68,3.39,6.68,7.56v11.89Z"/><path class="cls-9" d="M146.42,298.65V288c0-3.73-2.62-6.78-5.81-6.78s-5.81,3.05-5.81,6.78v10.65Z"/><path class="cls-5" d="M135.43,298.65h11V288.07a7.67,7.67,0,0,0-1.38-4.45Z"/><path class="cls-8" d="M141,298.67h-.89v-17.4a1.14,1.14,0,0,1,.45-.06,1.24,1.24,0,0,1,.45.06Z"/><rect class="cls-8" x="134.6" y="288.62" width="12" height="0.89"/><path class="cls-3" d="M87.27,299.55V287.66c0-4.17,2.86-7.56,6.68-7.56s6.68,3.39,6.68,7.56v11.89Z"/><path class="cls-9" d="M99.78,298.65V288c0-3.73-2.62-6.78-5.81-6.78s-5.81,3.05-5.81,6.78v10.65Z"/><path class="cls-5" d="M88.79,298.65h11V288.07a7.67,7.67,0,0,0-1.38-4.45Z"/><path class="cls-3" d="M94.41,298.67h-.89v-17.4a1.14,1.14,0,0,1,.45-.06,1.24,1.24,0,0,1,.45.06Z"/><rect class="cls-3" x="87.96" y="288.62" width="12" height="0.89"/><path class="cls-3" d="M60.14,299.55V287.66c0-4.17,2.86-7.56,6.68-7.56s6.68,3.39,6.68,7.56v11.89Z"/><path class="cls-9" d="M72.64,298.65V288c0-3.73-2.62-6.78-5.81-6.78S61,284.26,61,288v10.65Z"/><path class="cls-5" d="M61.65,298.65h11V288.07a7.67,7.67,0,0,0-1.38-4.45Z"/><path class="cls-3" d="M67.27,298.67h-.89v-17.4a1.14,1.14,0,0,1,.45-.06,1.24,1.24,0,0,1,.45.06Z"/><rect class="cls-3" x="60.82" y="288.62" width="12" height="0.89"/><path class="cls-3" d="M33,299.66V287.78c0-4.17,2.86-7.56,6.68-7.56s6.68,3.39,6.68,7.56v11.89Z"/><path class="cls-9" d="M45.51,298.76V288.11c0-3.73-2.62-6.78-5.81-6.78s-5.81,3.05-5.81,6.78v10.65Z"/><path class="cls-5" d="M34.52,298.76h11V288.19a7.67,7.67,0,0,0-1.38-4.45Z"/><path class="cls-3" d="M40.14,298.78h-.89v-17.4a1.14,1.14,0,0,1,.45-.06,1.24,1.24,0,0,1,.45.06Z"/><rect class="cls-3" x="33.69" y="288.73" width="12" height="0.89"/><rect class="cls-10" x="210.04" y="295.94" width="40.1" height="2.23"/><rect class="cls-6" x="210.04" y="298.17" width="40.1" height="2.23"/><rect class="cls-10" x="207.81" y="300.4" width="44.55" height="2.23"/><rect class="cls-6" x="207.81" y="302.63" width="44.55" height="2.23"/><rect class="cls-6" x="202.15" y="307.08" width="55.69" height="2.23"/><rect class="cls-10" x="205.59" y="304.85" width="49.01" height="2.23"/><rect class="cls-10" x="202.15" y="309.31" width="55.69" height="2.23"/><path class="cls-8" d="M222.2,295.94V282.66c0-4.72,3.61-8.56,7.8-8.56s7.8,3.84,7.8,8.56v13.28Z"/><path class="cls-9" d="M235.81,295.93v-12c0-4.21-2.62-7.65-5.81-7.65s-5.81,3.44-5.81,7.65v12Z"/><path class="cls-5" d="M224.83,295.93h11V284.07c0-1.92-.55-5.1-3.2-7Z"/><path class="cls-8" d="M230.67,295.93h-1.34V276.3a2.23,2.23,0,0,1,.67-.07,2.43,2.43,0,0,1,.67.07Z"/><path class="cls-8" d="M226.88,295.94h-.45V276.31a.29.29,0,0,1,.22-.07.31.31,0,0,1,.22.07Z"/><path class="cls-8" d="M223.75,280.27v-.45h12.4a.41.41,0,0,1,0,.22.45.45,0,0,1,0,.22Z"/><path class="cls-8" d="M223.75,288.67v-.45h12.4a.41.41,0,0,1,0,.22.45.45,0,0,1,0,.22Z"/><path class="cls-8" d="M223.75,292.65v-.45h12.4a.41.41,0,0,1,0,.22.45.45,0,0,1,0,.22Z"/><path class="cls-8" d="M233.56,295.94h-.45V276.31a.29.29,0,0,1,.22-.07.31.31,0,0,1,.22.07Z"/><rect class="cls-8" x="224.17" y="283.4" width="11.64" height="1.34"/><rect class="cls-11" x="292.83" y="209.53" width="9.21" height="14.08"/><rect class="cls-12" x="291.06" y="212.47" width="12.74" height="8.06" transform="translate(513.94 -80.93) rotate(90)"/><polygon class="cls-13" points="293.47 222.88 301.46 222.88 301.46 210.14 299.88 210.14 293.47 222.88"/><rect class="cls-11" x="297.17" y="209.53" width="0.51" height="14.08"/><rect class="cls-11" x="297.11" y="212.18" width="0.67" height="8.78" transform="translate(514.01 -80.88) rotate(90)"/><rect class="cls-11" x="315.32" y="209.53" width="9.21" height="14.08"/><rect class="cls-12" x="313.55" y="212.47" width="12.74" height="8.06" transform="translate(536.43 -103.42) rotate(90)"/><polygon class="cls-13" points="315.96 222.88 323.96 222.88 323.96 210.14 322.37 210.14 315.96 222.88"/><rect class="cls-11" x="319.67" y="209.53" width="0.51" height="14.08"/><rect class="cls-11" x="319.63" y="212.18" width="0.67" height="8.78" transform="translate(536.53 -103.39) rotate(90)"/><rect class="cls-11" x="270.36" y="209.53" width="9.21" height="14.08"/><rect class="cls-12" x="268.59" y="212.47" width="12.74" height="8.06" transform="translate(491.47 -58.46) rotate(90)"/><polygon class="cls-13" points="271 222.88 279 222.88 279 210.14 277.41 210.14 271 222.88"/><rect class="cls-11" x="274.71" y="209.53" width="0.51" height="14.08"/><rect class="cls-11" x="274.64" y="212.18" width="0.67" height="8.78" transform="translate(491.54 -58.41) rotate(90)"/><rect class="cls-14" x="292.93" y="242.39" width="9.82" height="19.99"/><rect class="cls-12" x="288.55" y="248.12" width="18.59" height="8.54" transform="translate(550.23 -45.46) rotate(90)"/><polygon class="cls-13" points="293.68 261.68 302.11 261.68 302.11 243.09 300.64 243.09 293.68 261.68"/><rect class="cls-14" x="297.57" y="242.39" width="0.55" height="19.99"/><rect class="cls-14" x="297.5" y="242.47" width="0.69" height="8.93" transform="translate(544.78 -50.91) rotate(90)"/><rect class="cls-14" x="297.7" y="246.4" width="0.29" height="8.93" transform="translate(548.71 -46.98) rotate(90)"/><rect class="cls-14" x="297.7" y="250.25" width="0.29" height="8.93" transform="translate(552.55 -43.13) rotate(90)"/><rect class="cls-14" x="297.7" y="253.98" width="0.29" height="8.93" transform="translate(556.28 -39.4) rotate(90)"/><rect class="cls-14" x="315.41" y="242.39" width="9.82" height="19.99"/><rect class="cls-12" x="311.02" y="248.12" width="18.59" height="8.54" transform="translate(572.71 -67.93) rotate(90)"/><polygon class="cls-13" points="316.16 261.68 324.59 261.68 324.59 243.09 323.12 243.09 316.16 261.68"/><rect class="cls-14" x="320.05" y="242.39" width="0.55" height="19.99"/><rect class="cls-14" x="319.98" y="242.47" width="0.69" height="8.93" transform="translate(567.25 -73.39) rotate(90)"/><rect class="cls-14" x="320.18" y="246.4" width="0.29" height="8.93" transform="translate(571.19 -69.45) rotate(90)"/><rect class="cls-14" x="320.18" y="250.25" width="0.29" height="8.93" transform="translate(575.03 -65.61) rotate(90)"/><rect class="cls-14" x="320.18" y="253.98" width="0.29" height="8.93" transform="translate(578.76 -61.88) rotate(90)"/><rect class="cls-14" x="270.33" y="242.39" width="9.82" height="19.99"/><rect class="cls-12" x="265.94" y="248.12" width="18.59" height="8.54" transform="translate(527.62 -22.85) rotate(90)"/><polygon class="cls-13" points="271.07 261.68 279.51 261.68 279.51 243.09 278.04 243.09 271.07 261.68"/><rect class="cls-14" x="274.96" y="242.39" width="0.55" height="19.99"/><rect class="cls-14" x="274.89" y="242.47" width="0.69" height="8.93" transform="translate(522.17 -28.3) rotate(90)"/><rect class="cls-14" x="275.09" y="246.4" width="0.29" height="8.93" transform="translate(526.1 -24.37) rotate(90)"/><rect class="cls-14" x="275.09" y="250.25" width="0.29" height="8.93" transform="translate(529.95 -20.53) rotate(90)"/><rect class="cls-14" x="275.09" y="253.98" width="0.29" height="8.93" transform="translate(533.68 -16.8) rotate(90)"/><rect class="cls-11" x="156.94" y="209.53" width="9.21" height="14.08"/><rect class="cls-12" x="155.17" y="212.47" width="12.74" height="8.06" transform="translate(378.05 54.96) rotate(90)"/><polygon class="cls-13" points="157.58 222.88 165.58 222.88 165.58 210.14 163.99 210.14 157.58 222.88"/><rect class="cls-11" x="161.29" y="209.53" width="0.51" height="14.08"/><rect class="cls-11" x="161.22" y="212.18" width="0.67" height="8.78" transform="translate(378.12 55.01) rotate(90)"/><rect class="cls-11" x="179.43" y="209.53" width="9.21" height="14.08"/><rect class="cls-12" x="177.67" y="212.47" width="12.74" height="8.06" transform="translate(400.54 32.47) rotate(90)"/><polygon class="cls-13" points="180.07 222.88 188.07 222.88 188.07 210.14 186.48 210.14 180.07 222.88"/><rect class="cls-11" x="183.78" y="209.53" width="0.51" height="14.08"/><rect class="cls-11" x="183.74" y="212.18" width="0.67" height="8.78" transform="translate(400.64 32.5) rotate(90)"/><rect class="cls-11" x="134.47" y="209.53" width="9.21" height="14.08"/><rect class="cls-12" x="132.71" y="212.47" width="12.74" height="8.06" transform="translate(355.58 77.43) rotate(90)"/><polygon class="cls-13" points="135.11 222.88 143.11 222.88 143.11 210.14 141.52 210.14 135.11 222.88"/><rect class="cls-11" x="138.82" y="209.53" width="0.51" height="14.08"/><rect class="cls-11" x="138.75" y="212.18" width="0.67" height="8.78" transform="translate(355.65 77.48) rotate(90)"/><rect class="cls-14" x="157.05" y="242.39" width="9.82" height="19.99"/><rect class="cls-12" x="152.66" y="248.12" width="18.59" height="8.54" transform="translate(414.34 90.43) rotate(90)"/><polygon class="cls-13" points="157.79 261.68 166.23 261.68 166.23 243.09 164.75 243.09 157.79 261.68"/><rect class="cls-14" x="161.68" y="242.39" width="0.55" height="19.99"/><rect class="cls-14" x="161.61" y="242.47" width="0.69" height="8.93" transform="translate(408.89 84.98) rotate(90)"/><rect class="cls-14" x="161.81" y="246.4" width="0.29" height="8.93" transform="translate(412.82 88.91) rotate(90)"/><rect class="cls-14" x="161.81" y="250.25" width="0.29" height="8.93" transform="translate(416.67 92.76) rotate(90)"/><rect class="cls-14" x="161.81" y="253.98" width="0.29" height="8.93" transform="translate(420.4 96.49) rotate(90)"/><rect class="cls-14" x="179.52" y="242.39" width="9.82" height="19.99"/><rect class="cls-12" x="175.14" y="248.12" width="18.59" height="8.54" transform="translate(436.82 67.95) rotate(90)"/><polygon class="cls-13" points="180.27 261.68 188.7 261.68 188.7 243.09 187.23 243.09 180.27 261.68"/><rect class="cls-14" x="184.16" y="242.39" width="0.55" height="19.99"/><rect class="cls-14" x="184.09" y="242.47" width="0.69" height="8.93" transform="translate(431.37 62.5) rotate(90)"/><rect class="cls-14" x="184.29" y="246.4" width="0.29" height="8.93" transform="translate(435.3 66.43) rotate(90)"/><rect class="cls-14" x="184.29" y="250.25" width="0.29" height="8.93" transform="translate(439.14 70.28) rotate(90)"/><rect class="cls-14" x="184.29" y="253.98" width="0.29" height="8.93" transform="translate(442.87 74.01) rotate(90)"/><rect class="cls-14" x="134.44" y="242.39" width="9.82" height="19.99"/><rect class="cls-12" x="130.05" y="248.12" width="18.59" height="8.54" transform="translate(391.74 113.04) rotate(90)"/><polygon class="cls-13" points="135.19 261.68 143.62 261.68 143.62 243.09 142.15 243.09 135.19 261.68"/><rect class="cls-14" x="139.08" y="242.39" width="0.55" height="19.99"/><rect class="cls-14" x="139.01" y="242.47" width="0.69" height="8.93" transform="translate(386.28 107.58) rotate(90)"/><rect class="cls-14" x="139.21" y="246.4" width="0.29" height="8.93" transform="translate(390.21 111.52) rotate(90)"/><rect class="cls-14" x="139.21" y="250.25" width="0.29" height="8.93" transform="translate(394.06 115.36) rotate(90)"/><rect class="cls-14" x="139.21" y="253.98" width="0.29" height="8.93" transform="translate(397.79 119.09) rotate(90)"/><rect class="cls-14" x="62.12" y="242.39" width="9.82" height="19.99"/><rect class="cls-12" x="57.73" y="248.12" width="18.59" height="8.54" transform="translate(319.41 185.36) rotate(90)"/><polygon class="cls-13" points="62.86 261.68 71.29 261.68 71.29 243.09 69.82 243.09 62.86 261.68"/><rect class="cls-14" x="66.75" y="242.39" width="0.55" height="19.99"/><rect class="cls-14" x="66.68" y="242.47" width="0.69" height="8.93" transform="translate(313.96 179.91) rotate(90)"/><rect class="cls-14" x="66.88" y="246.4" width="0.29" height="8.93" transform="translate(317.89 183.84) rotate(90)"/><rect class="cls-14" x="66.88" y="250.25" width="0.29" height="8.93" transform="translate(321.73 187.69) rotate(90)"/><rect class="cls-14" x="66.88" y="253.98" width="0.29" height="8.93" transform="translate(325.46 191.42) rotate(90)"/><rect class="cls-14" x="89.05" y="242.39" width="9.82" height="19.99"/><rect class="cls-12" x="84.66" y="248.12" width="18.59" height="8.54" transform="translate(346.34 158.43) rotate(90)"/><polygon class="cls-13" points="89.79 261.68 98.23 261.68 98.23 243.09 96.76 243.09 89.79 261.68"/><rect class="cls-14" x="93.68" y="242.39" width="0.55" height="19.99"/><rect class="cls-14" x="93.61" y="242.47" width="0.69" height="8.93" transform="translate(340.89 152.98) rotate(90)"/><rect class="cls-14" x="93.81" y="246.4" width="0.29" height="8.93" transform="translate(344.82 156.91) rotate(90)"/><rect class="cls-14" x="93.81" y="250.25" width="0.29" height="8.93" transform="translate(348.67 160.75) rotate(90)"/><rect class="cls-14" x="93.81" y="253.98" width="0.29" height="8.93" transform="translate(352.4 164.48) rotate(90)"/><rect class="cls-14" x="35.05" y="242.39" width="9.82" height="19.99"/><rect class="cls-12" x="30.66" y="248.12" width="18.59" height="8.54" transform="translate(292.35 212.42) rotate(90)"/><polygon class="cls-13" points="35.8 261.68 44.23 261.68 44.23 243.09 42.76 243.09 35.8 261.68"/><rect class="cls-14" x="39.69" y="242.39" width="0.55" height="19.99"/><rect class="cls-14" x="39.62" y="242.47" width="0.69" height="8.93" transform="translate(286.9 206.97) rotate(90)"/><rect class="cls-14" x="39.82" y="246.4" width="0.29" height="8.93" transform="translate(290.83 210.9) rotate(90)"/><rect class="cls-14" x="39.82" y="250.25" width="0.29" height="8.93" transform="translate(294.67 214.75) rotate(90)"/><rect class="cls-14" x="39.82" y="253.98" width="0.29" height="8.93" transform="translate(298.4 218.48) rotate(90)"/><rect class="cls-14" x="62.23" y="205.22" width="9.82" height="19.99"/><rect class="cls-12" x="57.84" y="210.94" width="18.59" height="8.54" transform="translate(282.35 148.07) rotate(90)"/><polygon class="cls-13" points="62.98 224.51 71.41 224.51 71.41 205.91 69.94 205.91 62.98 224.51"/><rect class="cls-14" x="66.87" y="205.22" width="0.55" height="19.99"/><rect class="cls-14" x="66.8" y="205.29" width="0.69" height="8.93" transform="translate(276.9 142.62) rotate(90)"/><rect class="cls-14" x="67" y="209.23" width="0.29" height="8.93" transform="translate(280.83 146.55) rotate(90)"/><rect class="cls-14" x="67" y="213.07" width="0.29" height="8.93" transform="translate(284.68 150.4) rotate(90)"/><rect class="cls-14" x="67" y="216.8" width="0.29" height="8.93" transform="translate(288.41 154.13) rotate(90)"/><rect class="cls-14" x="89.17" y="205.22" width="9.82" height="19.99"/><rect class="cls-12" x="84.78" y="210.94" width="18.59" height="8.54" transform="translate(309.29 121.14) rotate(90)"/><polygon class="cls-13" points="89.91 224.51 98.34 224.51 98.34 205.91 96.87 205.91 89.91 224.51"/><rect class="cls-14" x="93.8" y="205.22" width="0.55" height="19.99"/><rect class="cls-14" x="93.73" y="205.29" width="0.69" height="8.93" transform="translate(303.83 115.68) rotate(90)"/><rect class="cls-14" x="93.93" y="209.23" width="0.29" height="8.93" transform="translate(307.76 119.62) rotate(90)"/><rect class="cls-14" x="93.93" y="213.07" width="0.29" height="8.93" transform="translate(311.61 123.46) rotate(90)"/><rect class="cls-14" x="93.93" y="216.8" width="0.29" height="8.93" transform="translate(315.34 127.19) rotate(90)"/><rect class="cls-14" x="35.17" y="205.22" width="9.82" height="19.99"/><rect class="cls-12" x="30.78" y="210.94" width="18.59" height="8.54" transform="translate(255.29 175.13) rotate(90)"/><polygon class="cls-13" points="35.91 224.51 44.35 224.51 44.35 205.91 42.88 205.91 35.91 224.51"/><rect class="cls-14" x="39.81" y="205.22" width="0.55" height="19.99"/><rect class="cls-14" x="39.74" y="205.29" width="0.69" height="8.93" transform="translate(249.84 169.68) rotate(90)"/><rect class="cls-14" x="39.94" y="209.23" width="0.29" height="8.93" transform="translate(253.77 173.61) rotate(90)"/><rect class="cls-14" x="39.94" y="213.07" width="0.29" height="8.93" transform="translate(257.62 177.46) rotate(90)"/><rect class="cls-14" x="39.94" y="216.8" width="0.29" height="8.93" transform="translate(261.35 181.19) rotate(90)"/><rect class="cls-14" x="387.78" y="243.47" width="9.82" height="19.99"/><rect class="cls-12" x="383.39" y="249.19" width="18.59" height="8.54" transform="translate(646.15 -139.22) rotate(90)"/><polygon class="cls-13" points="388.52 262.76 396.96 262.76 396.96 244.17 395.48 244.17 388.52 262.76"/><rect class="cls-14" x="392.41" y="243.47" width="0.55" height="19.99"/><rect class="cls-14" x="392.34" y="243.55" width="0.69" height="8.93" transform="translate(640.7 -144.67) rotate(90)"/><rect class="cls-14" x="392.54" y="247.48" width="0.29" height="8.93" transform="translate(644.63 -140.74) rotate(90)"/><rect class="cls-14" x="392.54" y="251.32" width="0.29" height="8.93" transform="translate(648.47 -136.9) rotate(90)"/><rect class="cls-14" x="392.54" y="255.05" width="0.29" height="8.93" transform="translate(652.2 -133.17) rotate(90)"/><rect class="cls-14" x="414.71" y="243.47" width="9.82" height="19.99"/><rect class="cls-12" x="410.32" y="249.19" width="18.59" height="8.54" transform="translate(673.08 -166.16) rotate(90)"/><polygon class="cls-13" points="415.45 262.76 423.89 262.76 423.89 244.17 422.42 244.17 415.45 262.76"/><rect class="cls-14" x="419.34" y="243.47" width="0.55" height="19.99"/><rect class="cls-14" x="419.27" y="243.55" width="0.69" height="8.93" transform="translate(667.63 -171.61) rotate(90)"/><rect class="cls-14" x="419.48" y="247.48" width="0.29" height="8.93" transform="translate(671.56 -167.68) rotate(90)"/><rect class="cls-14" x="419.48" y="251.32" width="0.29" height="8.93" transform="translate(675.41 -163.83) rotate(90)"/><rect class="cls-14" x="419.48" y="255.05" width="0.29" height="8.93" transform="translate(679.14 -160.1) rotate(90)"/><rect class="cls-14" x="360.72" y="243.47" width="9.82" height="19.99"/><rect class="cls-12" x="356.33" y="249.19" width="18.59" height="8.54" transform="translate(619.09 -112.16) rotate(90)"/><polygon class="cls-13" points="361.46 262.76 369.89 262.76 369.89 244.17 368.42 244.17 361.46 262.76"/><rect class="cls-14" x="365.35" y="243.47" width="0.55" height="19.99"/><rect class="cls-14" x="365.28" y="243.55" width="0.69" height="8.93" transform="translate(613.63 -117.61) rotate(90)"/><rect class="cls-14" x="365.48" y="247.48" width="0.29" height="8.93" transform="translate(617.57 -113.68) rotate(90)"/><rect class="cls-14" x="365.48" y="251.32" width="0.29" height="8.93" transform="translate(621.41 -109.84) rotate(90)"/><rect class="cls-14" x="365.48" y="255.05" width="0.29" height="8.93" transform="translate(625.14 -106.11) rotate(90)"/><rect class="cls-14" x="387.89" y="206.3" width="9.82" height="19.99"/><rect class="cls-12" x="383.5" y="212.02" width="18.59" height="8.54" transform="translate(609.09 -176.51) rotate(90)"/><polygon class="cls-13" points="388.64 225.59 397.07 225.59 397.07 206.99 395.6 206.99 388.64 225.59"/><rect class="cls-14" x="392.53" y="206.3" width="0.55" height="19.99"/><rect class="cls-14" x="392.46" y="206.37" width="0.69" height="8.93" transform="translate(603.64 -181.97) rotate(90)"/><rect class="cls-14" x="392.66" y="210.3" width="0.29" height="8.93" transform="translate(607.57 -178.04) rotate(90)"/><rect class="cls-14" x="392.66" y="214.15" width="0.29" height="8.93" transform="translate(611.42 -174.19) rotate(90)"/><rect class="cls-14" x="392.66" y="217.88" width="0.29" height="8.93" transform="translate(615.15 -170.46) rotate(90)"/><rect class="cls-14" x="414.83" y="206.3" width="9.82" height="19.99"/><rect class="cls-12" x="410.44" y="212.02" width="18.59" height="8.54" transform="translate(636.02 -203.45) rotate(90)"/><polygon class="cls-13" points="415.57 225.59 424.01 225.59 424.01 206.99 422.53 206.99 415.57 225.59"/><rect class="cls-14" x="419.46" y="206.3" width="0.55" height="19.99"/><rect class="cls-14" x="419.39" y="206.37" width="0.69" height="8.93" transform="translate(630.57 -208.9) rotate(90)"/><rect class="cls-14" x="419.59" y="210.3" width="0.29" height="8.93" transform="translate(634.5 -204.97) rotate(90)"/><rect class="cls-14" x="419.59" y="214.15" width="0.29" height="8.93" transform="translate(638.35 -201.12) rotate(90)"/><rect class="cls-14" x="419.59" y="217.88" width="0.29" height="8.93" transform="translate(642.08 -197.39) rotate(90)"/><rect class="cls-14" x="360.83" y="206.3" width="9.82" height="19.99"/><rect class="cls-12" x="356.44" y="212.02" width="18.59" height="8.54" transform="translate(582.03 -149.45) rotate(90)"/><polygon class="cls-13" points="361.58 225.59 370.01 225.59 370.01 206.99 368.54 206.99 361.58 225.59"/><rect class="cls-14" x="365.47" y="206.3" width="0.55" height="19.99"/><rect class="cls-14" x="365.4" y="206.37" width="0.69" height="8.93" transform="translate(576.58 -154.91) rotate(90)"/><rect class="cls-14" x="365.6" y="210.3" width="0.29" height="8.93" transform="translate(580.51 -150.97) rotate(90)"/><rect class="cls-14" x="365.6" y="214.15" width="0.29" height="8.93" transform="translate(584.35 -147.13) rotate(90)"/><rect class="cls-14" x="365.6" y="217.88" width="0.29" height="8.93" transform="translate(588.08 -143.4) rotate(90)"/><path class="cls-3" d="M413.38,298.22V286.34c0-4.17,2.86-7.56,6.68-7.56s6.68,3.39,6.68,7.56v11.89Z"/><path class="cls-9" d="M425.88,297.32V286.67c0-3.73-2.62-6.78-5.81-6.78s-5.81,3.05-5.81,6.78v10.65Z"/><path class="cls-5" d="M414.89,297.32h11V286.75a7.67,7.67,0,0,0-1.38-4.45Z"/><path class="cls-3" d="M420.51,297.34h-.89v-17.4a1.14,1.14,0,0,1,.45-.06,1.24,1.24,0,0,1,.45.06Z"/><rect class="cls-3" x="414.06" y="287.29" width="12" height="0.89"/><path class="cls-3" d="M386.24,298.22V286.34c0-4.17,2.86-7.56,6.68-7.56s6.68,3.39,6.68,7.56v11.89Z"/><path class="cls-9" d="M398.74,297.32V286.67c0-3.73-2.62-6.78-5.81-6.78s-5.81,3.05-5.81,6.78v10.65Z"/><path class="cls-5" d="M387.76,297.32h11V286.75a7.67,7.67,0,0,0-1.38-4.45Z"/><path class="cls-3" d="M393.38,297.34h-.89v-17.4a1.14,1.14,0,0,1,.45-.06,1.24,1.24,0,0,1,.45.06Z"/><rect class="cls-3" x="386.92" y="287.29" width="12" height="0.89"/><path class="cls-3" d="M359.11,298.34V286.45c0-4.17,2.86-7.56,6.68-7.56s6.68,3.39,6.68,7.56v11.89Z"/><path class="cls-9" d="M371.61,297.44V286.78c0-3.73-2.62-6.78-5.81-6.78s-5.81,3.05-5.81,6.78v10.65Z"/><path class="cls-5" d="M360.62,297.44h11V286.86a7.67,7.67,0,0,0-1.38-4.45Z"/><path class="cls-3" d="M366.24,297.46h-.89v-17.4a1.14,1.14,0,0,1,.45-.06,1.24,1.24,0,0,1,.45.06Z"/><rect class="cls-3" x="359.79" y="287.41" width="12" height="0.89"/><path class="cls-8" d="M313.49,298.34V286.45c0-4.17,2.86-7.56,6.68-7.56s6.68,3.39,6.68,7.56v11.89Z"/><path class="cls-9" d="M326,297.44V286.78c0-3.73-2.62-6.78-5.81-6.78s-5.81,3.05-5.81,6.78v10.65Z"/><path class="cls-5" d="M315,297.44h11V286.86a7.67,7.67,0,0,0-1.38-4.45Z"/><path class="cls-8" d="M320.63,297.46h-.89v-17.4a1.14,1.14,0,0,1,.45-.06,1.24,1.24,0,0,1,.45.06Z"/><rect class="cls-8" x="314.18" y="287.41" width="12" height="0.89"/><path class="cls-8" d="M291.22,298.34V286.45c0-4.17,2.86-7.56,6.68-7.56s6.68,3.39,6.68,7.56v11.89Z"/><path class="cls-9" d="M303.72,297.44V286.78c0-3.73-2.62-6.78-5.81-6.78s-5.81,3.05-5.81,6.78v10.65Z"/><path class="cls-5" d="M292.73,297.44h11V286.86a7.67,7.67,0,0,0-1.38-4.45Z"/><path class="cls-8" d="M298.35,297.46h-.89v-17.4a1.14,1.14,0,0,1,.45-.06,1.24,1.24,0,0,1,.45.06Z"/><rect class="cls-8" x="291.9" y="287.41" width="12" height="0.89"/><path class="cls-8" d="M268.94,298.34V286.45c0-4.17,2.86-7.56,6.68-7.56s6.68,3.39,6.68,7.56v11.89Z"/><path class="cls-9" d="M281.44,297.44V286.78c0-3.73-2.62-6.78-5.81-6.78s-5.81,3.05-5.81,6.78v10.65Z"/><path class="cls-5" d="M270.46,297.44h11V286.86a7.67,7.67,0,0,0-1.38-4.45Z"/><path class="cls-8" d="M276.07,297.46h-.89v-17.4a1.14,1.14,0,0,1,.45-.06,1.24,1.24,0,0,1,.45.06Z"/><rect class="cls-8" x="269.62" y="287.41" width="12" height="0.89"/><path class="cls-8" d="M222.77,263V249.71c0-4.72,3.35-8.56,7.23-8.56s7.23,3.84,7.23,8.56V263Z"/><path class="cls-7" d="M235.81,261.92v-12c0-4.21-2.62-7.65-5.81-7.65s-5.81,3.44-5.81,7.65v12Z"/><path class="cls-5" d="M224.83,261.92h11V250.06c0-1.92-.55-5.1-3.2-7Z"/><path class="cls-8" d="M230.45,261.92h-.89V242.29a1,1,0,0,1,.45-.07,1.11,1.11,0,0,1,.45.07Z"/><path class="cls-8" d="M226.88,261.93h-.45V242.3a.29.29,0,0,1,.22-.07.31.31,0,0,1,.22.07Z"/><path class="cls-8" d="M223.87,253.65v-.45h12.4a.41.41,0,0,1,0,.22.45.45,0,0,1,0,.22Z"/><path class="cls-8" d="M223.75,260.15v-.45h12.4a.41.41,0,0,1,0,.22.45.45,0,0,1,0,.22Z"/><path class="cls-8" d="M233.56,261.93h-.45V242.3a.29.29,0,0,1,.22-.07.31.31,0,0,1,.22.07Z"/><rect class="cls-8" x="224.18" y="247.18" width="11.64" height="0.89"/><rect class="cls-15" x="202.15" y="212.15" width="55.68" height="5.74"/><path class="cls-2" d="M257.84,212.23c-4-5-14.93-8.6-27.85-8.6s-23.85,3.6-27.85,8.6Z"/><circle class="cls-2" cx="230.67" cy="217.89" r="7.59"/><rect class="cls-16" x="123.11" y="235.72" width="316.38" height="3.64"/><rect class="cls-17" x="123.11" y="269.13" width="316.38" height="3.64"/><rect class="cls-18" x="20.64" y="235.72" width="102.46" height="3.64"/><rect class="cls-19" x="20.64" y="269.13" width="102.46" height="3.64"/><rect class="cls-20" x="166.64" y="188.57" width="4.68" height="7.13"/><rect class="cls-20" x="295.78" y="188.57" width="4.68" height="7.13"/></g></g></svg>