<svg id="Layer_1" data-name="Layer 1" xmlns="http://www.w3.org/2000/svg" xmlns:xlink="http://www.w3.org/1999/xlink" viewBox="0 0 460 460"><defs><style>.cls-1{fill:#e38620;}.cls-2{fill:url(#linear-gradient);}.cls-3{fill:url(#linear-gradient-2);}.cls-4{fill:#5c7061;}.cls-5{fill:#f0bf89;}.cls-6{fill:#ebb162;}.cls-7{fill:#eaa356;}.cls-8{fill:#415947;}.cls-9{fill:url(#linear-gradient-3);}</style><linearGradient id="linear-gradient" x1="294.87" y1="358.03" x2="256.57" y2="358.03" gradientUnits="userSpaceOnUse"><stop offset="0.19" stop-color="#e38620" stop-opacity="0"/><stop offset="0.32" stop-color="#dc8523" stop-opacity="0.05"/><stop offset="0.49" stop-color="#ca822c" stop-opacity="0.19"/><stop offset="0.67" stop-color="#ab7d3b" stop-opacity="0.41"/><stop offset="0.86" stop-color="#807650" stop-opacity="0.73"/><stop offset="1" stop-color="#5c7061"/></linearGradient><linearGradient id="linear-gradient-2" x1="204.8" y1="446.12" x2="204.8" y2="288.63" gradientUnits="userSpaceOnUse"><stop offset="0.5" stop-color="#e38620" stop-opacity="0"/><stop offset="0.73" stop-color="#e08521" stop-opacity="0.02"/><stop offset="0.81" stop-color="#d38224" stop-opacity="0.1"/><stop offset="0.87" stop-color="#be7c29" stop-opacity="0.23"/><stop offset="0.92" stop-color="#9f7330" stop-opacity="0.42"/><stop offset="0.96" stop-color="#78683a" stop-opacity="0.66"/><stop offset="1" stop-color="#475b46" stop-opacity="0.96"/><stop offset="1" stop-color="#415947"/></linearGradient><linearGradient id="linear-gradient-3" x1="316.78" y1="403.84" x2="294.87" y2="403.84" xlink:href="#linear-gradient"/></defs><title>prague</title><rect class="cls-1" x="256.57" y="269.94" width="38.31" height="176.18"/><rect class="cls-2" x="256.57" y="269.94" width="38.31" height="176.18"/><rect class="cls-1" x="153.04" y="102.6" width="103.52" height="343.72"/><path class="cls-1" d="M220.52,310.59v-6.18A15.42,15.42,0,0,0,205,289h-1c-8.61,0-14.93,6.82-14.93,15.43v6.18h-5.89V446.12h43.21V310.59Z"/><path class="cls-3" d="M221.17,310.53v-6.18c0-8.61-5.87-15.72-16.36-15.72h-1a15.87,15.87,0,0,0-15.76,15.75v6.18l-4.91,0V446.12h43.21V310.59Z"/><rect class="cls-4" x="199.43" y="247.71" width="10.74" height="22.56"/><polygon class="cls-4" points="204.8 216.37 207.49 232.04 210.17 247.71 204.8 247.71 199.43 247.71 202.12 232.04 204.8 216.37"/><circle class="cls-4" cx="204.8" cy="217.15" r="1.19"/><polygon class="cls-5" points="245 279.77 164.59 279.77 180.29 269.45 229.29 269.45 245 279.77"/><rect class="cls-4" x="153.04" y="279.77" width="103.53" height="3.29"/><rect class="cls-4" x="153.04" y="267.8" width="103.53" height="1.65"/><rect class="cls-4" x="153.04" y="159.76" width="103.53" height="1.65"/><polygon class="cls-4" points="214.1 399.57 182.02 399.57 182.02 393.23 207.11 393.23 214.1 399.57"/><rect class="cls-4" x="181.76" y="306.7" width="4.14" height="130.56"/><rect class="cls-4" x="223.79" y="306.7" width="4.14" height="130.56"/><rect class="cls-6" x="179.51" y="436.79" width="7.12" height="9.34"/><rect class="cls-6" x="222.73" y="436.79" width="7.12" height="9.34"/><rect class="cls-6" x="193.14" y="308.25" width="6.32" height="9.26"/><rect class="cls-6" x="209.7" y="308.25" width="6.32" height="9.26"/><polygon class="cls-6" points="206.77 306.2 202.7 306.2 202.7 300.71 204.74 299.27 206.77 300.71 206.77 306.2"/><rect class="cls-4" x="190.31" y="320.44" width="28.36" height="1.53"/><circle class="cls-4" cx="204.84" cy="346.58" r="17.45"/><circle class="cls-7" cx="204.84" cy="346.58" r="14.49"/><path class="cls-1" d="M201.42,335.73a11.34,11.34,0,1,0,11.34,11.34A11.34,11.34,0,0,0,201.42,335.73Zm0,18.21a6.87,6.87,0,1,1,6.87-6.87A6.87,6.87,0,0,1,201.42,353.94Z"/><circle class="cls-6" cx="205.15" cy="346.36" r="5.89"/><path class="cls-5" d="M205.35,336.76a9.59,9.59,0,1,0,9.59,9.59A9.59,9.59,0,0,0,205.35,336.76Zm0,18.76a9.17,9.17,0,1,1,9.17-9.17A9.17,9.17,0,0,1,205.35,355.52Z"/><path class="cls-4" d="M201.42,336.9a10.17,10.17,0,1,0,10.17,10.17A10.17,10.17,0,0,0,201.42,336.9Zm0,16.33a6.16,6.16,0,1,1,6.16-6.16A6.16,6.16,0,0,1,201.42,353.23Z"/><rect class="cls-1" x="188.81" y="345.95" width="29.17" height="0.23" transform="translate(-20.14 12.66) rotate(-3.4)"/><rect class="cls-1" x="189.61" y="345.26" width="29.17" height="0.23" transform="translate(225.11 -55.3) rotate(33.58)"/><rect class="cls-1" x="193.12" y="347.35" width="24.82" height="0.23" transform="translate(483.82 55.02) rotate(74.18)"/><circle class="cls-1" cx="192.51" cy="346.7" r="0.84"/><circle class="cls-4" cx="204.46" cy="389.64" r="19.85"/><rect class="cls-4" x="162.36" y="364.14" width="63.93" height="3.39"/><rect class="cls-4" x="162.36" y="409.07" width="63.93" height="3.39"/><path class="cls-6" d="M204.58,370.68a19,19,0,1,0,19,19A19,19,0,0,0,204.58,370.68Zm0,35.47a16.51,16.51,0,1,1,16.51-16.51A16.51,16.51,0,0,1,204.58,406.15Z"/><circle class="cls-7" cx="204.58" cy="390" r="13.51"/><circle class="cls-6" cx="204.58" cy="389.95" r="4.5"/><circle class="cls-1" cx="204.58" cy="389.9" r="2.25"/><circle class="cls-1" cx="195.49" cy="384.61" r="2.7"/><circle class="cls-1" cx="199.43" cy="380.69" r="2.7"/><circle class="cls-1" cx="204.87" cy="379.32" r="2.7"/><circle class="cls-1" cx="210.24" cy="380.91" r="2.7"/><circle class="cls-1" cx="214.07" cy="384.88" r="2.7"/><circle class="cls-1" cx="215.29" cy="390.23" r="2.7"/><circle class="cls-1" cx="213.75" cy="395.55" r="2.7"/><circle class="cls-1" cx="209.8" cy="399.37" r="2.7"/><circle class="cls-1" cx="204.4" cy="400.71" r="2.7"/><circle class="cls-1" cx="199.07" cy="399.22" r="2.7"/><circle class="cls-1" cx="195.27" cy="395.31" r="2.7"/><circle class="cls-1" cx="193.86" cy="390" r="2.7"/><circle class="cls-5" cx="199.15" cy="386.78" r="1.61"/><circle class="cls-5" cx="201.5" cy="384.44" r="1.61"/><circle class="cls-5" cx="204.75" cy="383.62" r="1.61"/><circle class="cls-5" cx="207.96" cy="384.58" r="1.61"/><circle class="cls-5" cx="210.25" cy="386.95" r="1.61"/><circle class="cls-5" cx="210.98" cy="390.14" r="1.61"/><circle class="cls-5" cx="210.06" cy="393.33" r="1.61"/><circle class="cls-5" cx="207.7" cy="395.6" r="1.61"/><circle class="cls-5" cx="204.47" cy="396.41" r="1.61"/><circle class="cls-5" cx="201.28" cy="395.51" r="1.61"/><circle class="cls-5" cx="199.01" cy="393.18" r="1.61"/><circle class="cls-5" cx="198.17" cy="390.01" r="1.61"/><path class="cls-8" d="M209.35,446.12V426.77a4.52,4.52,0,0,0-4.5-4.5h-.55a4.52,4.52,0,0,0-4.5,4.5v19.35Z"/><rect class="cls-6" x="169.46" y="343.74" width="12.31" height="20.4"/><rect class="cls-8" x="171.42" y="346.26" width="5.38" height="17.88"/><rect class="cls-4" x="165.91" y="338.5" width="15.85" height="5.24"/><path class="cls-4" d="M182,370.68c0,.85-1.79,2.31-1.94,4s-2.26,3.28-4.82,3.3-3-1.85-3-1.85-.16.65-2,1.14c-5.75,1.19-4.14-3.62-4.14-3.62-4.54-2.53-3.71-6.14-3.71-6.14H182Z"/><rect class="cls-4" x="153.04" y="393.39" width="17.4" height="3.91"/><rect class="cls-4" x="153.04" y="345.04" width="9.34" height="1.99"/><rect class="cls-1" x="244.89" y="400.06" width="29.14" height="46.06"/><polygon class="cls-4" points="278.94 399.57 244.89 399.57 244.89 391.75 274.04 391.75 278.94 399.57"/><path class="cls-4" d="M221.93,297.2c-2.83-4.34-5.09-7.75-7.73-8.25s-9.11-3.33-9.11-4.27v0c0,.94-6.74,3.77-9.38,4.27s-5.1,3.9-7.93,8.25-10.5,8.27-10.5,8.27l1.82,2,4.74-2.92,5-.05s-1.64-12,13.1-15.84h5.84c14.74,3.89,13.11,15.83,13.11,15.83l5,0,4.75,3,1.84-2S224.77,301.54,221.93,297.2Z"/><polygon class="cls-8" points="177.23 310.94 177.23 305.47 179.07 307.5 183.82 304.58 188.79 304.59 188.79 307.13 183.82 307.13 179.06 310.05 179.06 311.94 177.23 310.94"/><polygon class="cls-8" points="232.41 310.93 232.41 305.47 230.57 307.5 225.81 304.58 220.84 304.58 220.85 307.13 225.82 307.13 230.57 310.05 230.57 311.93 232.41 310.93"/><rect class="cls-6" x="198.29" y="184.64" width="13" height="24.38"/><rect class="cls-7" x="200.57" y="187.41" width="8.45" height="21.62"/><rect class="cls-7" x="183.84" y="106.87" width="41.92" height="50.84"/><circle class="cls-1" cx="204.8" cy="128.14" r="18.9"/><rect class="cls-5" x="190.85" y="127.33" width="16.62" height="0.83" transform="translate(10.58 -15.16) rotate(4.48)"/><rect class="cls-5" x="201.83" y="127.06" width="16.62" height="0.83" transform="translate(436.58 223.02) rotate(171.63)"/><circle class="cls-5" cx="204.8" cy="128.14" r="1.14"/><rect class="cls-7" x="165.47" y="88.91" width="77.85" height="7.51"/><polygon class="cls-7" points="165.47 96.42 162.54 96.42 157.93 101.49 148.96 101.49 143.22 96.42 143.22 88.71 149.89 84.95 159.43 84.95 165.47 88.91 165.47 96.42"/><polygon class="cls-7" points="243.32 96.42 246.25 96.42 250.87 101.49 259.84 101.49 265.58 96.42 265.58 88.71 258.91 84.95 249.37 84.95 243.32 88.91 243.32 96.42"/><rect class="cls-6" x="165.47" y="95.41" width="77.85" height="7.51"/><polygon class="cls-6" points="165.47 102.93 162.54 102.93 157.93 108 148.96 108 143.22 102.93 143.22 95.21 149.89 91.46 159.43 91.46 165.47 95.41 165.47 102.93"/><polygon class="cls-7" points="254.27 45.9 254.28 36.57 253.85 36.57 253.84 45.9 246.03 71.42 262.1 71.42 254.27 45.9"/><circle class="cls-7" cx="254.07" cy="35.34" r="1.29"/><rect class="cls-5" x="253.85" y="36.57" width="0.43" height="9.34"/><polygon class="cls-7" points="154.81 45.9 154.82 36.57 154.39 36.57 154.38 45.9 146.57 71.42 162.64 71.42 154.81 45.9"/><circle class="cls-7" cx="154.61" cy="35.34" r="1.29"/><rect class="cls-5" x="154.39" y="36.57" width="0.43" height="9.34"/><polygon class="cls-6" points="243.32 102.93 246.25 102.93 250.87 108 259.84 108 265.58 102.93 265.58 95.21 258.91 91.46 249.37 91.46 243.32 95.41 243.32 102.93"/><polygon class="cls-4" points="243.32 85.66 249.37 81.7 249.37 81.7 258.91 81.7 265.58 85.46 265.58 72.45 258.91 68.69 249.37 68.69 243.32 72.65 243.32 85.66"/><polygon class="cls-1" points="243.32 88.91 249.37 84.95 249.37 84.95 258.91 84.95 265.58 88.71 265.58 75.7 258.91 71.95 249.37 71.95 243.32 75.9 243.32 88.91"/><polygon class="cls-4" points="165.47 85.66 159.43 81.7 159.43 81.7 149.89 81.7 143.22 85.46 143.22 72.45 149.89 68.69 159.43 68.69 165.47 72.65 165.47 85.66"/><polygon class="cls-1" points="165.47 88.91 159.43 84.95 159.43 84.95 149.89 84.95 143.22 88.71 143.22 75.7 149.89 71.95 159.43 71.95 165.47 75.9 165.47 88.91"/><path class="cls-1" d="M202.85,75.94H165.47v13h3.12V83a4.68,4.68,0,1,1,9.36,0v5.9h3.12V83a4.68,4.68,0,1,1,9.36,0v5.9h3.12V83a4.66,4.66,0,0,1,9.31-.46Z"/><path class="cls-1" d="M240.23,75.94H202.85v13H206V83a4.68,4.68,0,1,1,9.36,0v5.9h3.12V83a4.68,4.68,0,1,1,9.36,0v5.9h3.12V83a4.66,4.66,0,0,1,9.31-.46Z"/><rect class="cls-1" x="240.23" y="75.94" width="3.09" height="12.97"/><polygon class="cls-7" points="204.4 22.37 233.43 72.65 175.37 72.65 204.4 22.37"/><path class="cls-1" d="M210,73.79V64.21a5.59,5.59,0,1,0-11.18,0v9.58Z"/><path class="cls-7" d="M208.3,73.79V64.56a3.9,3.9,0,0,0-7.8,0v9.23Z"/><rect class="cls-4" x="165.47" y="72.65" width="77.85" height="3.29"/><polygon class="cls-1" points="208.3 41 200.5 41 200.5 33.19 204.4 30.59 208.3 33.19 208.3 41"/><rect class="cls-5" x="203.94" y="17.11" width="1.15" height="6.24"/><circle class="cls-7" cx="204.51" cy="16.13" r="2.45"/><polygon class="cls-7" points="256.55 245.04 256.55 267.8 297.94 267.8 256.55 245.04"/><rect class="cls-4" x="256.57" y="267.8" width="41.37" height="1.65"/><rect class="cls-4" x="256.57" y="279.77" width="38.31" height="1.65"/><path class="cls-6" d="M280.22,350.26V307.69c0-5.23-3.79-9.51-8.43-9.51s-8.43,4.28-8.43,9.51v42.57Z"/><path class="cls-4" d="M277.63,344.33V306.77a5.84,5.84,0,0,0-11.68,0v37.56Z"/><rect class="cls-4" x="256.57" y="350.26" width="39.04" height="2.97"/><polygon class="cls-4" points="258.13 348.94 237.72 348.94 236.16 346.26 256.56 346.26 258.13 348.94"/><polygon class="cls-1" points="294.87 361.56 316.78 375.2 316.78 446.12 294.87 446.12 294.87 361.56"/><polygon class="cls-9" points="294.87 361.56 316.78 375.2 316.78 446.12 294.87 446.12 294.87 361.56"/><rect class="cls-4" x="274.03" y="402.41" width="12.36" height="43.71"/><rect class="cls-6" x="274.03" y="403.84" width="10.57" height="42.28"/><rect class="cls-4" x="235.97" y="346.21" width="2.09" height="19.15"/><rect class="cls-4" x="235.97" y="341.71" width="1.04" height="19.15"/><rect class="cls-4" x="230.69" y="336.43" width="1.04" height="11.61" transform="translate(573.44 111.02) rotate(90)"/><rect class="cls-4" x="227.44" y="355.78" width="2.09" height="19.15" transform="translate(593.84 136.86) rotate(90)"/><rect class="cls-4" x="244.89" y="391.75" width="2.09" height="19.15"/><rect class="cls-4" x="234.89" y="400.37" width="2.09" height="22.09" transform="translate(647.35 175.48) rotate(90)"/></svg>