<svg id="Layer_1" data-name="Layer 1" xmlns="http://www.w3.org/2000/svg" xmlns:xlink="http://www.w3.org/1999/xlink" viewBox="0 0 460 460"><defs><style>.cls-1{fill:#df2524;}.cls-2{fill:#da0100;}.cls-3{fill:#e79841;}.cls-4{fill:url(#linear-gradient);}.cls-5{fill:#e38620;}.cls-6{fill:#ebb162;}.cls-7{fill:url(#linear-gradient-2);}.cls-8{fill:#828282;}.cls-9{fill:#4d4d4d;}</style><linearGradient id="linear-gradient" x1="168.9" y1="150.59" x2="115.6" y2="150.59" gradientUnits="userSpaceOnUse"><stop offset="0.19" stop-color="#e79841" stop-opacity="0"/><stop offset="1" stop-color="#df2524"/></linearGradient><linearGradient id="linear-gradient-2" x1="-338.02" y1="150.59" x2="-391.31" y2="150.59" gradientTransform="matrix(-1, 0, 0, 1, -47.76, 0)" xlink:href="#linear-gradient"/></defs><title>prague</title><polygon class="cls-1" points="150.67 64.13 167.26 64.13 168.09 64.13 168.09 70.27 154.47 70.27 150.67 64.13"/><polygon class="cls-2" points="154.47 70.27 156.52 74.29 168.09 74.29 168.09 70.27 154.47 70.27"/><polygon class="cls-2" points="298.73 84.9 296.98 89.2 296.98 93.24 300.11 93.24 300.11 98.13 296.35 101.22 277.68 101.22 277.68 84.9 298.73 84.9"/><path class="cls-3" d="M162.81,101.22s3,59.74-42.37,68.37a44.94,44.94,0,0,1-4.84,1.12V200H168.9V101.22Z"/><path class="cls-4" d="M162.81,101.22s3,59.74-42.37,68.37a44.94,44.94,0,0,1-4.84,1.12V200H168.9V101.22Z"/><polygon class="cls-2" points="160.42 84.9 162.18 89.2 162.18 93.24 159.05 93.24 159.05 98.13 162.81 101.22 181.48 101.22 181.48 84.9 160.42 84.9"/><rect class="cls-1" x="156.82" y="65.18" width="144.55" height="6.6"/><rect class="cls-5" x="168.09" y="71.78" width="122.96" height="17.75"/><rect class="cls-3" x="176.75" y="133.05" width="107.07" height="66.9"/><rect class="cls-6" x="178.63" y="204.74" width="102.81" height="33.18"/><rect class="cls-5" x="168.09" y="98.13" width="13.38" height="86.72"/><rect class="cls-5" x="168.09" y="184.85" width="13.38" height="8.87"/><rect class="cls-1" x="164.88" y="193.72" width="19.8" height="6.24"/><rect class="cls-1" x="166.66" y="189.96" width="16.18" height="2.37"/><path class="cls-3" d="M296.35,101.22s-3,59.74,42.37,68.37a44.94,44.94,0,0,0,4.84,1.12V200H290.26V101.22Z"/><path class="cls-7" d="M296.35,101.22s-3,59.74,42.37,68.37a44.94,44.94,0,0,0,4.84,1.12V200H290.26V101.22Z"/><rect class="cls-1" x="166.66" y="186.67" width="16.18" height="1.78"/><rect class="cls-5" x="279.05" y="98.13" width="13.38" height="86.72"/><rect class="cls-5" x="279.05" y="184.85" width="13.38" height="8.87"/><rect class="cls-1" x="275.84" y="193.72" width="19.8" height="6.24"/><rect class="cls-1" x="277.61" y="189.96" width="16.18" height="2.37"/><rect class="cls-1" x="277.61" y="186.67" width="16.18" height="1.78"/><rect class="cls-8" x="181.48" y="89.54" width="97.47" height="43.52"/><rect class="cls-6" x="193.04" y="97.17" width="73.85" height="30.08"/><polygon class="cls-1" points="159.81 74.29 159.81 76.66 162.6 79.61 162.6 84.9 168.09 84.9 168.09 74.29 159.81 74.29"/><rect class="cls-3" x="104.03" y="168.97" width="13.94" height="16.73"/><polygon class="cls-5" points="119.12 161.87 103.64 161.87 105.55 158.67 116.96 158.67 119.12 161.87"/><polygon class="cls-5" points="117.97 168.97 104.03 168.97 100.16 161.87 120.63 161.87 117.97 168.97"/><rect class="cls-5" x="99.79" y="186.67" width="21.38" height="5.23"/><polygon class="cls-5" points="121.17 186.67 99.79 186.67 104.03 183.22 117.97 183.22 121.17 186.67"/><rect class="cls-5" x="91.33" y="194.79" width="29.85" height="5.16"/><polygon class="cls-5" points="99.79 191.9 121.17 191.9 121.17 194.79 91.33 194.79 99.79 191.9"/><polygon class="cls-3" points="116.95 158.67 105.55 158.67 108.65 94.77 113.9 94.77 116.95 158.67"/><circle class="cls-5" cx="111.25" cy="92.04" r="3.79"/><polygon class="cls-5" points="111.48 88.84 111.02 88.84 111.25 78.98 111.25 78.98 111.48 88.84"/><polygon class="cls-1" points="308.48 64.13 291.9 64.13 291.06 64.13 291.06 70.27 304.69 70.27 308.48 64.13"/><polygon class="cls-2" points="304.69 70.27 302.63 74.29 291.06 74.29 291.06 70.27 304.69 70.27"/><polygon class="cls-1" points="299.34 74.29 299.34 76.66 296.56 79.61 296.56 84.9 291.06 84.9 291.06 74.29 299.34 74.29"/><rect class="cls-3" x="341.18" y="168.97" width="13.94" height="16.73" transform="translate(696.31 354.68) rotate(-180)"/><polygon class="cls-5" points="340.03 161.87 355.52 161.87 353.61 158.67 342.19 158.67 340.03 161.87"/><polygon class="cls-5" points="341.18 168.97 355.13 168.97 359 161.87 338.52 161.87 341.18 168.97"/><rect class="cls-5" x="337.98" y="186.67" width="21.38" height="5.23" transform="translate(697.34 378.57) rotate(-180)"/><polygon class="cls-5" points="337.98 186.67 359.36 186.67 355.13 183.22 341.18 183.22 337.98 186.67"/><rect class="cls-5" x="337.98" y="194.79" width="29.85" height="5.16" transform="translate(705.81 394.75) rotate(-180)"/><polygon class="cls-5" points="359.36 191.9 337.98 191.9 337.98 194.79 367.83 194.79 359.36 191.9"/><polygon class="cls-3" points="342.2 158.67 353.61 158.67 350.5 94.77 345.25 94.77 342.2 158.67"/><circle class="cls-5" cx="347.91" cy="92.04" r="3.79"/><polygon class="cls-5" points="347.67 88.84 348.14 88.84 347.9 78.98 347.9 78.98 347.67 88.84"/><polygon class="cls-5" points="229.22 27.5 156.82 61.82 156.82 65.18 301.37 65.18 301.37 61.7 229.22 27.5"/><polygon class="cls-1" points="229.22 32.66 292.37 62.6 166.07 62.6 229.22 32.66"/><polygon class="cls-3" points="229.22 36.08 282.51 62.6 175.93 62.6 229.22 36.08"/><rect class="cls-5" x="117.97" y="200" width="229.8" height="9.48"/><polygon class="cls-5" points="115.1 212.18 81.94 212.18 74.83 202.7 122.21 202.7 115.1 212.18"/><polygon class="cls-5" points="378.06 212.18 344.91 212.18 337.79 202.7 385.17 202.7 378.06 212.18"/><rect class="cls-9" x="192.67" y="216.97" width="9.23" height="13.29"/><rect class="cls-9" x="213.99" y="216.97" width="9.23" height="13.29"/><rect class="cls-9" x="237.68" y="216.97" width="9.23" height="13.29"/><rect class="cls-9" x="259" y="216.97" width="9.23" height="13.29"/><polygon class="cls-6" points="278.29 288.31 240.72 254.44 212.89 260.46 182.05 288.31 182.05 237.92 278.29 237.92 278.29 288.31"/><polygon class="cls-3" points="124.95 209.48 91.79 209.48 84.68 200 132.06 200 124.95 209.48"/><polygon class="cls-3" points="302.62 209.48 160.5 209.48 153.38 200 309.74 200 302.62 209.48"/><polygon class="cls-3" points="368.96 209.48 335.8 209.48 328.69 200 376.07 200 368.96 209.48"/><rect class="cls-3" x="117.1" y="209.48" width="48.06" height="130.14"/><rect class="cls-5" x="156.23" y="326.7" width="10.43" height="57.88"/><rect class="cls-1" x="155.67" y="334.98" width="11.79" height="6.53"/><rect class="cls-1" x="155.67" y="326.7" width="11.79" height="6.53"/><rect class="cls-1" x="155.67" y="355.62" width="12.35" height="6.53"/><rect class="cls-1" x="155.67" y="363.9" width="12.35" height="6.53"/><rect class="cls-1" x="155.67" y="372.15" width="12.35" height="6.53"/><rect class="cls-1" x="153.66" y="389.21" width="14.31" height="43.3"/><polygon class="cls-1" points="153.66 389.21 167.26 389.21 167.26 384.58 156.23 384.58 153.66 389.21"/><rect class="cls-5" x="116.33" y="326.7" width="10.43" height="57.88" transform="translate(243.1 711.28) rotate(-180)"/><rect class="cls-1" x="115.54" y="334.98" width="11.79" height="6.53" transform="translate(242.86 676.5) rotate(-180)"/><rect class="cls-1" x="115.54" y="326.7" width="11.23" height="6.53" transform="translate(242.3 659.93) rotate(-180)"/><rect class="cls-1" x="114.97" y="355.62" width="12.35" height="6.53" transform="translate(242.3 717.77) rotate(-180)"/><rect class="cls-1" x="114.97" y="363.9" width="12.35" height="6.53" transform="translate(242.3 734.34) rotate(-180)"/><rect class="cls-1" x="114.97" y="372.15" width="12.35" height="6.53" transform="translate(242.3 750.84) rotate(-180)"/><rect class="cls-1" x="115.02" y="389.21" width="14.31" height="43.3" transform="translate(244.36 821.71) rotate(-180)"/><polygon class="cls-1" points="129.33 389.21 115.73 389.21 115.73 384.58 126.77 384.58 129.33 389.21"/><rect class="cls-5" x="117.1" y="240.63" width="43.95" height="43.95"/><rect class="cls-5" x="86.59" y="216.97" width="10.43" height="167.61"/><polygon class="cls-1" points="97.02 216.97 86.59 216.97 83.02 212.18 97.02 212.18 97.02 216.97"/><polygon class="cls-1" points="97.02 243.03 86.59 243.03 83.02 238.24 97.02 238.24 97.02 243.03"/><rect class="cls-1" x="86.03" y="230.25" width="10.99" height="1.17"/><rect class="cls-1" x="86.03" y="246.83" width="10.99" height="1.17"/><rect class="cls-1" x="86.03" y="255.14" width="10.99" height="6.53"/><rect class="cls-1" x="86.03" y="263.43" width="10.99" height="6.53"/><rect class="cls-1" x="86.03" y="288.31" width="10.99" height="6.53"/><rect class="cls-1" x="86.03" y="296.59" width="10.99" height="6.53"/><rect class="cls-1" x="86.03" y="304.85" width="10.99" height="6.53"/><rect class="cls-1" x="86.03" y="326.7" width="10.99" height="6.53"/><rect class="cls-1" x="86.03" y="334.98" width="10.99" height="6.53"/><rect class="cls-1" x="86.03" y="355.62" width="10.99" height="6.53"/><rect class="cls-1" x="86.03" y="363.9" width="10.99" height="6.53"/><rect class="cls-1" x="86.03" y="372.15" width="10.99" height="6.53"/><rect class="cls-1" x="84.02" y="389.21" width="13" height="43.3"/><polygon class="cls-1" points="84.02 389.21 97.02 389.21 97.02 384.58 86.59 384.58 84.02 389.21"/><rect class="cls-5" x="182.25" y="287.5" width="10.43" height="97.08" transform="translate(374.93 672.08) rotate(-180)"/><rect class="cls-1" x="182.25" y="288.31" width="10.99" height="6.53" transform="translate(375.49 583.15) rotate(-180)"/><rect class="cls-1" x="182.25" y="296.59" width="10.99" height="6.53" transform="translate(375.49 599.72) rotate(-180)"/><rect class="cls-1" x="182.25" y="304.85" width="10.99" height="6.53" transform="translate(375.49 616.23) rotate(-180)"/><rect class="cls-1" x="182.25" y="326.7" width="10.99" height="6.53" transform="translate(375.49 659.93) rotate(-180)"/><rect class="cls-1" x="182.25" y="334.98" width="10.99" height="6.53" transform="translate(375.49 676.5) rotate(-180)"/><rect class="cls-1" x="182.25" y="355.62" width="10.99" height="6.53" transform="translate(375.49 717.77) rotate(-180)"/><rect class="cls-1" x="182.25" y="363.9" width="10.99" height="6.53" transform="translate(375.49 734.34) rotate(-180)"/><rect class="cls-1" x="182.25" y="372.15" width="10.99" height="6.53" transform="translate(375.49 750.84) rotate(-180)"/><rect class="cls-1" x="182.25" y="389.21" width="13" height="43.3" transform="translate(377.5 821.71) rotate(-180)"/><polygon class="cls-1" points="195.25 389.21 182.25 389.21 182.25 384.58 192.68 384.58 195.25 389.21"/><rect class="cls-3" x="96.06" y="212.18" width="21.08" height="172.4"/><polygon class="cls-5" points="106.5 216.97 96.06 216.97 92.5 212.18 106.5 212.18 106.5 216.97"/><polygon class="cls-5" points="106.5 243.03 96.06 243.03 92.5 238.24 106.5 238.24 106.5 243.03"/><rect class="cls-5" x="95.5" y="230.25" width="11.82" height="1.17"/><rect class="cls-5" x="95.5" y="326.7" width="10.99" height="6.53"/><rect class="cls-5" x="95.5" y="334.98" width="10.99" height="6.53"/><rect class="cls-5" x="95.5" y="355.62" width="10.99" height="6.53"/><rect class="cls-5" x="95.5" y="363.9" width="10.99" height="6.53"/><rect class="cls-5" x="95.5" y="372.15" width="10.99" height="6.53"/><rect class="cls-5" x="93.49" y="389.21" width="13" height="43.3"/><polygon class="cls-5" points="93.5 389.21 106.5 389.21 106.5 384.58 96.06 384.58 93.5 389.21"/><rect class="cls-3" x="106.71" y="209.48" width="10.43" height="175.1" transform="translate(223.85 594.06) rotate(-180)"/><polygon class="cls-5" points="105.93 216.97 117.14 216.97 120.71 212.18 105.93 212.18 105.93 216.97"/><polygon class="cls-5" points="106.05 243.03 117.14 243.03 120.71 238.24 106.05 238.24 106.05 243.03"/><rect class="cls-5" x="106.71" y="230.25" width="10.99" height="1.17" transform="translate(224.41 461.67) rotate(-180)"/><rect class="cls-5" x="105.91" y="326.7" width="11.79" height="6.53" transform="translate(223.62 659.93) rotate(-180)"/><rect class="cls-5" x="105.91" y="334.98" width="11.79" height="6.53" transform="translate(223.62 676.5) rotate(-180)"/><rect class="cls-5" x="105.35" y="355.62" width="12.35" height="6.53" transform="translate(223.06 717.77) rotate(-180)"/><rect class="cls-5" x="105.35" y="363.9" width="12.35" height="6.53" transform="translate(223.06 734.34) rotate(-180)"/><rect class="cls-5" x="105.35" y="372.15" width="12.35" height="6.53" transform="translate(223.06 750.84) rotate(-180)"/><rect class="cls-5" x="105.4" y="389.21" width="14.31" height="43.3" transform="translate(225.11 821.71) rotate(-180)"/><polygon class="cls-5" points="119.71 389.21 106.11 389.21 106.11 384.58 117.14 384.58 119.71 389.21"/><rect class="cls-5" x="95.5" y="288.31" width="22.2" height="6.53"/><rect class="cls-5" x="95.5" y="296.59" width="22.2" height="6.53"/><rect class="cls-5" x="95.5" y="255.14" width="22.2" height="6.53"/><rect class="cls-5" x="95.5" y="263.43" width="22.2" height="6.53"/><rect class="cls-5" x="95.5" y="304.85" width="22.2" height="6.53"/><rect class="cls-5" x="95.5" y="246.83" width="22.2" height="1.17"/><rect class="cls-1" x="125.3" y="247.42" width="29.45" height="29.45"/><rect class="cls-3" x="127.88" y="251.76" width="25.09" height="25.09"/><polygon class="cls-1" points="131.44 276.77 135.39 276.77 134.54 286.35 127.57 286.35 131.44 276.77"/><polygon class="cls-1" points="146.71 276.77 142.76 276.77 143.61 286.35 150.58 286.35 146.71 276.77"/><polygon class="cls-1" points="137.18 276.77 141.92 276.77 142.76 286.35 135.39 286.35 136.24 276.77 137.18 276.77"/><polygon class="cls-1" points="131.44 248.44 135.39 248.44 134.54 238.87 127.57 238.87 131.44 248.44"/><polygon class="cls-1" points="146.71 248.44 142.76 248.44 143.61 238.87 150.58 238.87 146.71 248.44"/><polygon class="cls-1" points="137.18 248.44 141.92 248.44 142.76 238.87 135.39 238.87 136.24 248.44 137.18 248.44"/><rect class="cls-1" x="115.64" y="255.14" width="9.87" height="6.53"/><rect class="cls-1" x="115.64" y="263.43" width="9.87" height="6.53"/><rect class="cls-1" x="153.55" y="255.14" width="9.87" height="6.53"/><rect class="cls-1" x="153.55" y="263.43" width="9.87" height="6.53"/><rect class="cls-9" x="135.81" y="216.97" width="9.23" height="13.29"/><rect class="cls-9" x="102.44" y="216.97" width="8.33" height="13.29"/><rect class="cls-1" x="138.6" y="251.76" width="3.38" height="25.01"/><rect class="cls-1" x="126.21" y="263.43" width="27.03" height="0.88"/><polygon class="cls-5" points="126.99 339.62 131.73 339.62 126.52 326.08 122.55 331.25 126.99 339.62"/><polygon class="cls-5" points="132.8 339.62 137.54 339.62 134.11 318.98 127.14 324.96 132.8 339.62"/><polyline class="cls-5" points="141.21 339.61 138.5 339.62 134.95 318.32 141.21 316.34 141.21 339.61"/><polygon class="cls-5" points="155.42 339.62 150.68 339.62 155.9 326.08 159.86 331.25 155.42 339.62"/><polygon class="cls-5" points="149.62 339.62 144.88 339.62 148.31 318.98 155.27 324.96 149.62 339.62"/><polyline class="cls-5" points="141.21 339.61 143.92 339.62 147.46 318.32 141.21 316.34 141.21 339.61"/><rect class="cls-3" x="164.5" y="209.48" width="21.08" height="175.1"/><polygon class="cls-5" points="174.93 216.97 164.5 216.97 160.93 212.18 174.93 212.18 174.93 216.97"/><polygon class="cls-5" points="174.93 243.03 164.5 243.03 160.93 238.24 174.93 238.24 174.93 243.03"/><rect class="cls-5" x="163.94" y="230.25" width="11.82" height="1.17"/><rect class="cls-5" x="163.94" y="326.7" width="10.99" height="6.53"/><rect class="cls-5" x="163.94" y="334.98" width="10.99" height="6.53"/><rect class="cls-5" x="163.94" y="355.62" width="10.99" height="6.53"/><rect class="cls-5" x="163.94" y="363.9" width="10.99" height="6.53"/><rect class="cls-5" x="163.94" y="372.15" width="10.99" height="6.53"/><rect class="cls-5" x="161.93" y="389.21" width="13" height="43.3"/><polygon class="cls-5" points="161.93 389.21 174.93 389.21 174.93 384.58 164.5 384.58 161.93 389.21"/><rect class="cls-3" x="175.14" y="216.97" width="10.43" height="167.61" transform="translate(360.72 601.55) rotate(-180)"/><polygon class="cls-5" points="174.36 216.97 185.58 216.97 189.14 212.18 174.36 212.18 174.36 216.97"/><polygon class="cls-5" points="174.48 243.03 185.58 243.03 189.14 238.24 174.48 238.24 174.48 243.03"/><rect class="cls-5" x="175.14" y="230.25" width="10.99" height="1.17" transform="translate(361.28 461.67) rotate(-180)"/><rect class="cls-5" x="174.35" y="326.7" width="11.79" height="6.53" transform="translate(360.48 659.93) rotate(-180)"/><rect class="cls-5" x="174.35" y="334.98" width="11.79" height="6.53" transform="translate(360.48 676.5) rotate(-180)"/><rect class="cls-5" x="173.78" y="355.62" width="12.35" height="6.53" transform="translate(359.92 717.77) rotate(-180)"/><rect class="cls-5" x="173.78" y="363.9" width="12.35" height="6.53" transform="translate(359.92 734.34) rotate(-180)"/><rect class="cls-5" x="173.78" y="372.15" width="12.35" height="6.53" transform="translate(359.92 750.84) rotate(-180)"/><rect class="cls-5" x="173.84" y="389.21" width="14.31" height="43.3" transform="translate(361.98 821.71) rotate(-180)"/><polygon class="cls-5" points="188.15 389.21 174.54 389.21 174.54 384.58 185.58 384.58 188.15 389.21"/><rect class="cls-5" x="163.94" y="288.31" width="22.2" height="6.53"/><rect class="cls-5" x="163.94" y="296.59" width="22.2" height="6.53"/><rect class="cls-5" x="163.94" y="255.14" width="22.2" height="6.53"/><rect class="cls-5" x="163.94" y="263.43" width="22.2" height="6.53"/><rect class="cls-5" x="163.94" y="304.85" width="22.2" height="6.53"/><rect class="cls-5" x="163.94" y="246.83" width="22.2" height="1.17"/><rect class="cls-9" x="170.42" y="216.97" width="9.23" height="13.29"/><rect class="cls-3" x="295.53" y="209.48" width="48.06" height="130.14" transform="translate(639.12 549.09) rotate(-180)"/><rect class="cls-5" x="294.03" y="326.7" width="10.43" height="57.88" transform="translate(598.48 711.28) rotate(-180)"/><rect class="cls-1" x="293.23" y="334.98" width="11.79" height="6.53" transform="translate(598.25 676.5) rotate(-180)"/><rect class="cls-1" x="293.23" y="326.7" width="11.79" height="6.53" transform="translate(598.25 659.93) rotate(-180)"/><rect class="cls-1" x="292.67" y="355.62" width="12.35" height="6.53" transform="translate(597.69 717.77) rotate(-180)"/><rect class="cls-1" x="292.67" y="363.9" width="12.35" height="6.53" transform="translate(597.69 734.34) rotate(-180)"/><rect class="cls-1" x="292.67" y="372.15" width="12.35" height="6.53" transform="translate(597.69 750.84) rotate(-180)"/><rect class="cls-1" x="292.72" y="389.21" width="14.31" height="43.3" transform="translate(599.74 821.71) rotate(-180)"/><polygon class="cls-1" points="307.03 389.21 293.42 389.21 293.42 384.58 304.46 384.58 307.03 389.21"/><rect class="cls-5" x="333.92" y="326.7" width="10.43" height="57.88"/><rect class="cls-1" x="333.36" y="334.98" width="11.79" height="6.53"/><rect class="cls-1" x="333.92" y="326.7" width="11.23" height="6.53"/><rect class="cls-1" x="333.36" y="355.62" width="12.35" height="6.53"/><rect class="cls-1" x="333.36" y="363.9" width="12.35" height="6.53"/><rect class="cls-1" x="333.36" y="372.15" width="12.35" height="6.53"/><rect class="cls-1" x="331.35" y="389.21" width="14.31" height="43.3"/><polygon class="cls-1" points="331.35 389.21 344.96 389.21 344.96 384.58 333.92 384.58 331.35 389.21"/><rect class="cls-5" x="299.64" y="240.63" width="43.95" height="43.95" transform="translate(643.23 525.21) rotate(-180)"/><rect class="cls-5" x="363.67" y="216.97" width="10.43" height="167.61" transform="translate(737.77 601.55) rotate(-180)"/><polygon class="cls-1" points="363.67 216.97 374.1 216.97 377.67 212.18 363.67 212.18 363.67 216.97"/><polygon class="cls-1" points="363.67 243.03 374.1 243.03 377.67 238.24 363.67 238.24 363.67 243.03"/><rect class="cls-1" x="363.67" y="230.25" width="10.99" height="1.17" transform="translate(738.33 461.67) rotate(-180)"/><rect class="cls-1" x="363.67" y="246.83" width="10.99" height="1.17" transform="translate(738.33 494.84) rotate(-180)"/><rect class="cls-1" x="363.67" y="255.14" width="10.99" height="6.53" transform="translate(738.33 516.82) rotate(-180)"/><rect class="cls-1" x="363.67" y="263.43" width="10.99" height="6.53" transform="translate(738.33 533.39) rotate(-180)"/><rect class="cls-1" x="363.67" y="288.31" width="10.99" height="6.53" transform="translate(738.33 583.15) rotate(-180)"/><rect class="cls-1" x="363.67" y="296.59" width="10.99" height="6.53" transform="translate(738.33 599.72) rotate(-180)"/><rect class="cls-1" x="363.67" y="304.85" width="10.99" height="6.53" transform="translate(738.33 616.23) rotate(-180)"/><rect class="cls-1" x="363.67" y="326.7" width="10.99" height="6.53" transform="translate(738.33 659.93) rotate(-180)"/><rect class="cls-1" x="363.67" y="334.98" width="10.99" height="6.53" transform="translate(738.33 676.5) rotate(-180)"/><rect class="cls-1" x="363.67" y="355.62" width="10.99" height="6.53" transform="translate(738.33 717.77) rotate(-180)"/><rect class="cls-1" x="363.67" y="363.9" width="10.99" height="6.53" transform="translate(738.33 734.34) rotate(-180)"/><rect class="cls-1" x="363.67" y="372.15" width="10.99" height="6.53" transform="translate(738.33 750.84) rotate(-180)"/><rect class="cls-1" x="363.67" y="389.21" width="13" height="43.3" transform="translate(740.34 821.71) rotate(-180)"/><polygon class="cls-1" points="376.67 389.21 363.67 389.21 363.67 384.58 374.1 384.58 376.67 389.21"/><rect class="cls-5" x="268" y="287.5" width="10.43" height="97.08"/><rect class="cls-1" x="267.44" y="288.31" width="10.99" height="6.53"/><rect class="cls-1" x="267.44" y="296.59" width="10.99" height="6.53"/><rect class="cls-1" x="267.44" y="304.85" width="10.99" height="6.53"/><rect class="cls-1" x="267.44" y="326.7" width="10.99" height="6.53"/><rect class="cls-1" x="267.44" y="334.98" width="10.99" height="6.53"/><rect class="cls-1" x="267.44" y="355.62" width="10.99" height="6.53"/><rect class="cls-1" x="267.44" y="363.9" width="10.99" height="6.53"/><rect class="cls-1" x="267.44" y="372.15" width="10.99" height="6.53"/><rect class="cls-1" x="265.43" y="389.21" width="13" height="43.3"/><polygon class="cls-1" points="265.44 389.21 278.44 389.21 278.44 384.58 268 384.58 265.44 389.21"/><rect class="cls-3" x="343.54" y="212.18" width="21.08" height="172.4" transform="translate(708.17 596.76) rotate(-180)"/><polygon class="cls-5" points="354.19 216.97 364.62 216.97 368.19 212.18 354.19 212.18 354.19 216.97"/><polygon class="cls-5" points="354.19 243.03 364.62 243.03 368.19 238.24 354.19 238.24 354.19 243.03"/><rect class="cls-5" x="353.36" y="230.25" width="11.82" height="1.17" transform="translate(718.55 461.67) rotate(-180)"/><rect class="cls-5" x="354.19" y="326.7" width="10.99" height="6.53" transform="translate(719.37 659.93) rotate(-180)"/><rect class="cls-5" x="354.19" y="334.98" width="10.99" height="6.53" transform="translate(719.37 676.5) rotate(-180)"/><rect class="cls-5" x="354.19" y="355.62" width="10.99" height="6.53" transform="translate(719.37 717.77) rotate(-180)"/><rect class="cls-5" x="354.19" y="363.9" width="10.99" height="6.53" transform="translate(719.37 734.34) rotate(-180)"/><rect class="cls-5" x="354.19" y="372.15" width="10.99" height="6.53" transform="translate(719.37 750.84) rotate(-180)"/><rect class="cls-5" x="354.19" y="389.21" width="13" height="43.3" transform="translate(721.38 821.71) rotate(-180)"/><polygon class="cls-5" points="367.19 389.21 354.19 389.21 354.19 384.58 364.62 384.58 367.19 389.21"/><rect class="cls-3" x="343.54" y="209.48" width="10.43" height="175.1"/><polygon class="cls-5" points="354.76 216.97 343.54 216.97 339.98 212.18 354.76 212.18 354.76 216.97"/><polygon class="cls-5" points="354.64 243.03 343.54 243.03 339.98 238.24 354.64 238.24 354.64 243.03"/><rect class="cls-5" x="342.98" y="230.25" width="10.99" height="1.17"/><rect class="cls-5" x="342.98" y="326.7" width="11.79" height="6.53"/><rect class="cls-5" x="342.98" y="334.98" width="11.79" height="6.53"/><rect class="cls-5" x="342.98" y="355.62" width="12.35" height="6.53"/><rect class="cls-5" x="342.98" y="363.9" width="12.35" height="6.53"/><rect class="cls-5" x="342.98" y="372.15" width="12.35" height="6.53"/><rect class="cls-5" x="340.98" y="389.21" width="14.31" height="43.3"/><polygon class="cls-5" points="340.98 389.21 354.58 389.21 354.58 384.58 343.54 384.58 340.98 389.21"/><rect class="cls-5" x="342.98" y="288.31" width="22.2" height="6.53" transform="translate(708.17 583.15) rotate(-180)"/><rect class="cls-5" x="342.98" y="296.59" width="22.2" height="6.53" transform="translate(708.17 599.72) rotate(-180)"/><rect class="cls-5" x="342.98" y="255.14" width="22.2" height="6.53" transform="translate(708.17 516.82) rotate(-180)"/><rect class="cls-5" x="342.98" y="263.43" width="22.2" height="6.53" transform="translate(708.17 533.39) rotate(-180)"/><rect class="cls-5" x="342.98" y="304.85" width="22.2" height="6.53" transform="translate(708.17 616.23) rotate(-180)"/><rect class="cls-5" x="342.98" y="246.83" width="22.2" height="1.17" transform="translate(708.17 494.84) rotate(-180)"/><rect class="cls-1" x="305.93" y="247.42" width="29.45" height="29.45" transform="translate(641.32 524.29) rotate(-180)"/><rect class="cls-3" x="307.72" y="251.76" width="25.09" height="25.09" transform="translate(640.52 528.61) rotate(-180)"/><polygon class="cls-1" points="329.25 276.77 325.3 276.77 326.15 286.35 333.12 286.35 329.25 276.77"/><polygon class="cls-1" points="313.98 276.77 317.93 276.77 317.08 286.35 310.11 286.35 313.98 276.77"/><polygon class="cls-1" points="323.51 276.77 318.77 276.77 317.93 286.35 325.3 286.35 324.44 276.77 323.51 276.77"/><polygon class="cls-1" points="329.25 248.44 325.3 248.44 326.15 238.87 333.12 238.87 329.25 248.44"/><polygon class="cls-1" points="313.98 248.44 317.93 248.44 317.08 238.87 310.11 238.87 313.98 248.44"/><polygon class="cls-1" points="323.51 248.44 318.77 248.44 317.93 238.87 325.3 238.87 324.44 248.44 323.51 248.44"/><rect class="cls-1" x="335.17" y="255.14" width="9.87" height="6.53" transform="translate(680.22 516.82) rotate(-180)"/><rect class="cls-1" x="335.17" y="263.43" width="9.87" height="6.53" transform="translate(680.22 533.39) rotate(-180)"/><rect class="cls-1" x="297.27" y="255.14" width="9.87" height="6.53" transform="translate(604.41 516.82) rotate(-180)"/><rect class="cls-1" x="297.27" y="263.43" width="9.87" height="6.53" transform="translate(604.41 533.39) rotate(-180)"/><rect class="cls-9" x="315.64" y="216.97" width="9.23" height="13.29" transform="translate(640.52 447.23) rotate(-180)"/><rect class="cls-9" x="349.92" y="216.97" width="8.33" height="13.29" transform="translate(708.17 447.23) rotate(-180)"/><rect class="cls-1" x="318.71" y="251.76" width="3.38" height="25.01" transform="translate(640.79 528.53) rotate(-180)"/><rect class="cls-1" x="307.45" y="263.43" width="27.03" height="0.88" transform="translate(641.92 527.73) rotate(-180)"/><polygon class="cls-5" points="333.69 339.62 328.95 339.62 334.17 326.08 338.13 331.25 333.69 339.62"/><polygon class="cls-5" points="327.89 339.62 323.15 339.62 326.58 318.98 333.54 324.96 327.89 339.62"/><polyline class="cls-5" points="319.48 339.61 322.19 339.62 325.74 318.32 319.48 316.34 319.48 339.61"/><polygon class="cls-5" points="305.26 339.62 310 339.62 304.79 326.08 300.82 331.25 305.26 339.62"/><polygon class="cls-5" points="311.07 339.62 315.81 339.62 312.38 318.98 305.41 324.96 311.07 339.62"/><polyline class="cls-5" points="319.48 339.61 316.77 339.62 313.22 318.32 319.48 316.34 319.48 339.61"/><rect class="cls-3" x="275.11" y="209.48" width="21.08" height="175.1" transform="translate(571.3 594.06) rotate(-180)"/><polygon class="cls-5" points="285.76 216.97 296.19 216.97 299.76 212.18 285.76 212.18 285.76 216.97"/><polygon class="cls-5" points="285.76 243.03 296.19 243.03 299.76 238.24 285.76 238.24 285.76 243.03"/><rect class="cls-5" x="284.93" y="230.25" width="11.82" height="1.17" transform="translate(581.68 461.67) rotate(-180)"/><rect class="cls-5" x="285.76" y="326.7" width="10.99" height="6.53" transform="translate(582.51 659.93) rotate(-180)"/><rect class="cls-5" x="285.76" y="334.98" width="10.99" height="6.53" transform="translate(582.51 676.5) rotate(-180)"/><rect class="cls-5" x="285.76" y="355.62" width="10.99" height="6.53" transform="translate(582.51 717.77) rotate(-180)"/><rect class="cls-5" x="285.76" y="363.9" width="10.99" height="6.53" transform="translate(582.51 734.34) rotate(-180)"/><rect class="cls-5" x="285.76" y="372.15" width="10.99" height="6.53" transform="translate(582.51 750.84) rotate(-180)"/><rect class="cls-5" x="285.76" y="389.21" width="13" height="43.3" transform="translate(584.52 821.71) rotate(-180)"/><polygon class="cls-5" points="298.76 389.21 285.76 389.21 285.76 384.58 296.19 384.58 298.76 389.21"/><rect class="cls-3" x="275.11" y="216.97" width="10.43" height="167.61"/><polygon class="cls-5" points="286.32 216.97 275.11 216.97 271.54 212.18 286.32 212.18 286.32 216.97"/><polygon class="cls-5" points="286.2 243.03 275.11 243.03 271.54 238.24 286.2 238.24 286.2 243.03"/><rect class="cls-5" x="274.55" y="230.25" width="10.99" height="1.17"/><rect class="cls-5" x="274.55" y="326.7" width="11.79" height="6.53"/><rect class="cls-5" x="274.55" y="334.98" width="11.79" height="6.53"/><rect class="cls-5" x="274.55" y="355.62" width="12.35" height="6.53"/><rect class="cls-5" x="274.55" y="363.9" width="12.35" height="6.53"/><rect class="cls-5" x="274.55" y="372.15" width="12.35" height="6.53"/><rect class="cls-5" x="272.54" y="389.21" width="14.31" height="43.3"/><polygon class="cls-5" points="272.54 389.21 286.15 389.21 286.15 384.58 275.11 384.58 272.54 389.21"/><rect class="cls-5" x="274.55" y="288.31" width="22.2" height="6.53" transform="translate(571.3 583.15) rotate(-180)"/><rect class="cls-5" x="274.55" y="296.59" width="22.2" height="6.53" transform="translate(571.3 599.72) rotate(-180)"/><rect class="cls-5" x="274.55" y="255.14" width="22.2" height="6.53" transform="translate(571.3 516.82) rotate(-180)"/><rect class="cls-5" x="274.55" y="263.43" width="22.2" height="6.53" transform="translate(571.3 533.39) rotate(-180)"/><rect class="cls-5" x="274.55" y="304.85" width="22.2" height="6.53" transform="translate(571.3 616.23) rotate(-180)"/><rect class="cls-5" x="274.55" y="246.83" width="22.2" height="1.17" transform="translate(571.3 494.84) rotate(-180)"/><rect class="cls-9" x="281.03" y="216.97" width="9.23" height="13.29" transform="translate(571.3 447.23) rotate(-180)"/><path class="cls-1" d="M230.17,247.62c-24,0-44.12,18.93-48.12,40.69h12.1c3-16.92,18-30.45,36-30.45s33,13.53,36,30.45h12.1C274.28,266.55,254.2,247.62,230.17,247.62Z"/><polygon class="cls-3" points="216.88 260.1 223.4 260.1 222 237.92 210.49 237.92 216.88 260.1"/><polygon class="cls-3" points="242.09 260.1 235.58 260.1 236.97 237.92 248.49 237.92 242.09 260.1"/><polygon class="cls-3" points="226.36 260.1 234.18 260.1 235.58 237.92 223.4 237.92 224.81 260.1 226.36 260.1"/><polygon class="cls-3" points="197.35 277.98 206.47 266.42 196.64 254.18 182.05 254.18 182.05 270.38 197.35 277.98"/><polygon class="cls-3" points="262.58 277.2 252.98 265.68 262.22 254.18 276.81 254.18 276.81 270.38 262.58 277.2"/></svg>