<svg id="Layer_1" data-name="Layer 1" xmlns="http://www.w3.org/2000/svg" viewBox="0 0 460 460"><defs><style>.cls-1{fill:#e33e3d;}.cls-2{fill:#f1f1f1;}.cls-3{fill:#f3f3f3;}.cls-4{fill:#5a6f5f;}.cls-5{fill:#da0100;}.cls-6{fill:#f4d5aa;}.cls-7{fill:#415947;}.cls-8{fill:#ebb162;}.cls-9{fill:#f8e5cb;}</style></defs><title>prague</title><polygon class="cls-1" points="47.22 443.51 62.48 443.51 62.48 240.22 47.22 257.16 47.22 443.51"/><rect class="cls-2" x="186.69" y="231.16" width="41.4" height="7.65"/><rect class="cls-3" x="187.05" y="228.86" width="37.4" height="6.99"/><rect class="cls-4" x="114.6" y="185.51" width="2.3" height="37.06"/><rect class="cls-4" x="120.74" y="171.98" width="2.3" height="37.06"/><rect class="cls-4" x="127.95" y="162.28" width="2.3" height="37.06"/><rect class="cls-4" x="133.68" y="152.87" width="2.3" height="37.06"/><rect class="cls-4" x="165.16" y="185.51" width="2.3" height="37.06" transform="translate(332.62 408.08) rotate(-180)"/><rect class="cls-4" x="159.02" y="171.98" width="2.3" height="37.06" transform="translate(320.33 381.02) rotate(-180)"/><rect class="cls-4" x="151.81" y="162.28" width="2.3" height="37.06" transform="translate(305.92 361.61) rotate(-180)"/><rect class="cls-4" x="146.08" y="152.87" width="2.3" height="37.06" transform="translate(294.45 342.79) rotate(-180)"/><rect class="cls-4" x="140.04" y="136.18" width="2.3" height="37.06"/><rect class="cls-2" x="72.11" y="231.16" width="30.21" height="7.65"/><rect class="cls-2" x="112.61" y="228.67" width="64.43" height="10.14"/><rect class="cls-4" x="140.04" y="133.8" width="2.3" height="22.98" transform="translate(286.47 4.1) rotate(90)"/><rect class="cls-4" x="134.58" y="141.84" width="2.3" height="6.9" transform="translate(271.46 290.57) rotate(180)"/><rect class="cls-4" x="144.93" y="141.84" width="2.3" height="6.9" transform="translate(292.15 290.57) rotate(180)"/><rect class="cls-1" x="112.61" y="238.2" width="62.72" height="92.48"/><rect class="cls-5" x="62.33" y="238.2" width="11.36" height="92.48"/><rect class="cls-5" x="101.41" y="238.2" width="11.36" height="92.48"/><rect class="cls-5" x="175.33" y="238.2" width="11.36" height="92.48"/><rect class="cls-5" x="225.54" y="238.2" width="11.36" height="92.48"/><polygon class="cls-1" points="248.25 330.69 236.9 330.69 236.9 242.92 248.25 253.52 248.25 330.69"/><rect class="cls-1" x="186.69" y="238.2" width="38.86" height="92.48"/><rect class="cls-1" x="73.68" y="238.2" width="27.72" height="92.48"/><rect class="cls-1" x="58.88" y="154.71" width="51.97" height="74.24"/><rect class="cls-1" x="171.52" y="154.71" width="59.7" height="74.24"/><path class="cls-3" d="M208.43,206.77v-27a7.34,7.34,0,0,0-14.68,0v27Z"/><polygon class="cls-2" points="141.19 154.71 171.52 228.95 110.85 228.95 141.19 154.71"/><circle class="cls-6" cx="141.19" cy="183.58" r="8.25"/><rect class="cls-3" x="72.11" y="228.95" width="28.07" height="6.99"/><rect class="cls-3" x="57.72" y="224.87" width="20.66" height="6.67"/><polygon class="cls-2" points="73.68 238.2 62.46 238.2 57.72 231.54 78.38 231.54 73.68 238.2"/><rect class="cls-3" x="96.75" y="224.87" width="20.66" height="6.67"/><rect class="cls-3" x="113.57" y="226.37" width="63.47" height="7.37"/><polygon class="cls-2" points="112.71 238.2 101.49 238.2 96.75 231.54 117.42 231.54 112.71 238.2"/><rect class="cls-3" x="170.61" y="224.87" width="20.78" height="6.67"/><polygon class="cls-2" points="186.69 238.2 175.34 238.2 170.61 231.54 191.39 231.54 186.69 238.2"/><rect class="cls-3" x="220.81" y="224.87" width="20.75" height="6.67"/><polygon class="cls-2" points="236.9 238.2 225.54 238.2 220.81 231.54 241.6 231.54 236.9 238.2"/><rect class="cls-3" x="188.93" y="263.19" width="42.49" height="2.28"/><rect class="cls-3" x="67.09" y="263.19" width="42.49" height="2.28"/><rect class="cls-3" x="50.87" y="266.48" width="12.91" height="2.28"/><rect class="cls-3" x="237.85" y="266.48" width="12.91" height="2.28"/><rect class="cls-3" x="201.08" y="248.52" width="7.09" height="11.74"/><rect class="cls-3" x="83.57" y="275.06" width="7.09" height="11.74"/><path class="cls-3" d="M161,330.69V270.62a16.21,16.21,0,1,0-32.41,0v60.07Z"/><rect class="cls-2" x="171.52" y="209.04" width="59.7" height="2.3"/><path class="cls-3" d="M92.54,206.77v-35c0-5.23-2.88-9.52-6.4-9.52s-6.4,4.28-6.4,9.52v35Z"/><rect class="cls-2" x="58.88" y="209.04" width="51.97" height="2.3"/><rect class="cls-2" x="180.28" y="159.57" width="5.41" height="5.41"/><rect class="cls-2" x="189.47" y="159.57" width="5.41" height="5.41"/><rect class="cls-2" x="198.67" y="159.57" width="5.41" height="5.41"/><rect class="cls-2" x="207.86" y="159.57" width="5.41" height="5.41"/><rect class="cls-2" x="217.06" y="159.57" width="5.41" height="5.41"/><rect class="cls-4" x="70.87" y="176.03" width="4.31" height="19.27"/><rect class="cls-4" x="200.76" y="19.93" width="0.68" height="20.23"/><circle class="cls-4" cx="201.1" cy="18.28" r="1.79"/><rect class="cls-7" x="179.47" y="142.74" width="43.26" height="11.97"/><rect class="cls-7" x="167.59" y="137.38" width="11.88" height="19.97"/><rect class="cls-7" x="222.73" y="137.38" width="11.88" height="19.97"/><polygon class="cls-2" points="201.1 38.17 207.98 142.75 194.22 142.75 201.1 38.17"/><path class="cls-7" d="M213.43,97.43v14c0,3.32,1.65,6,3.66,6s3.66-2.72,3.66-6v-14Z"/><polygon class="cls-4" points="213.43 97.43 217.09 74.64 220.75 97.43 213.43 97.43"/><rect class="cls-4" x="213.02" y="110.08" width="8.14" height="1.82"/><rect class="cls-4" x="213.02" y="102.99" width="8.14" height="1.82"/><rect class="cls-4" x="228.56" y="96.95" width="0.23" height="6.89"/><path class="cls-7" d="M181.45,97.43v14c0,3.32,1.65,6,3.66,6s3.66-2.72,3.66-6v-14Z"/><polygon class="cls-4" points="181.45 97.43 185.11 74.64 188.77 97.43 181.45 97.43"/><rect class="cls-4" x="181.05" y="110.08" width="8.14" height="1.82"/><rect class="cls-4" x="181.05" y="102.99" width="8.14" height="1.82"/><polygon class="cls-4" points="201.1 38.17 179.47 142.75 194.22 142.75 201.1 38.17"/><polygon class="cls-4" points="201.1 38.17 222.73 142.75 207.98 142.75 201.1 38.17"/><polygon class="cls-2" points="228.67 102.99 230.56 137.38 226.78 137.38 228.67 102.99"/><polygon class="cls-4" points="228.67 102.99 222.73 137.38 226.78 137.38 228.67 102.99"/><rect class="cls-4" x="173.38" y="96.95" width="0.23" height="6.89"/><circle class="cls-4" cx="173.5" cy="96.39" r="0.61"/><polygon class="cls-4" points="228.67 102.99 234.61 137.38 230.56 137.38 228.67 102.99"/><polygon class="cls-2" points="173.5 102.99 175.39 137.38 171.61 137.38 173.5 102.99"/><polygon class="cls-4" points="173.5 102.99 167.56 137.38 171.61 137.38 173.5 102.99"/><polygon class="cls-4" points="173.5 102.99 179.44 137.38 175.39 137.38 173.5 102.99"/><path class="cls-7" d="M198.11,97.43v14c0,3.32,1.34,6,3,6s3-2.72,3-6v-14Z"/><polygon class="cls-4" points="198.11 97.64 201.1 74.85 204.09 97.64 198.11 97.64"/><rect class="cls-4" x="197.78" y="110.08" width="6.64" height="1.82"/><rect class="cls-4" x="197.78" y="102.99" width="6.64" height="1.82"/><circle class="cls-4" cx="228.67" cy="96.39" r="0.61"/><rect class="cls-4" x="216.97" y="68.86" width="0.23" height="6.89"/><circle class="cls-4" cx="217.09" cy="68.3" r="0.61"/><rect class="cls-4" x="200.98" y="68.86" width="0.23" height="6.89"/><circle class="cls-4" cx="201.1" cy="68.3" r="0.61"/><rect class="cls-4" x="185" y="68.86" width="0.23" height="6.89"/><circle class="cls-4" cx="185.11" cy="68.3" r="0.61"/><polygon class="cls-7" points="232.9 159.81 231.18 162.28 231.18 157.35 234.61 157.35 232.9 159.81"/><polygon class="cls-7" points="169.56 159.81 171.52 162.28 171.52 157.35 167.59 157.35 169.56 159.81"/><rect class="cls-4" x="84.54" y="19.93" width="0.68" height="20.23"/><circle class="cls-4" cx="84.88" cy="18.28" r="1.79"/><rect class="cls-7" x="63.25" y="142.74" width="43.26" height="11.97"/><rect class="cls-7" x="51.37" y="137.38" width="11.88" height="19.97"/><rect class="cls-7" x="106.51" y="137.38" width="11.88" height="19.97"/><polygon class="cls-2" points="84.88 38.17 91.76 142.75 78 142.75 84.88 38.17"/><path class="cls-7" d="M97.21,97.43v14c0,3.32,1.65,6,3.66,6s3.66-2.72,3.66-6v-14Z"/><polygon class="cls-4" points="97.21 97.43 100.87 74.64 104.53 97.43 97.21 97.43"/><rect class="cls-4" x="96.8" y="110.08" width="8.14" height="1.82"/><rect class="cls-4" x="96.8" y="102.99" width="8.14" height="1.82"/><rect class="cls-4" x="112.34" y="96.95" width="0.23" height="6.89"/><path class="cls-7" d="M65.23,97.43v14c0,3.32,1.65,6,3.66,6s3.66-2.72,3.66-6v-14Z"/><polygon class="cls-4" points="65.23 97.43 68.9 74.64 72.56 97.43 65.23 97.43"/><rect class="cls-4" x="64.83" y="110.08" width="8.14" height="1.82"/><rect class="cls-4" x="64.83" y="102.99" width="8.14" height="1.82"/><polygon class="cls-4" points="84.88 38.17 63.25 142.75 78 142.75 84.88 38.17"/><polygon class="cls-4" points="84.88 38.17 106.51 142.75 91.76 142.75 84.88 38.17"/><polygon class="cls-2" points="112.45 102.99 114.34 137.38 110.56 137.38 112.45 102.99"/><polygon class="cls-4" points="112.45 102.99 106.51 137.38 110.56 137.38 112.45 102.99"/><rect class="cls-4" x="57.17" y="96.95" width="0.23" height="6.89"/><circle class="cls-4" cx="57.28" cy="96.39" r="0.61"/><polygon class="cls-4" points="112.45 102.99 118.39 137.38 114.34 137.38 112.45 102.99"/><polygon class="cls-2" points="57.28 102.99 59.17 137.38 55.39 137.38 57.28 102.99"/><polygon class="cls-4" points="57.28 102.99 51.34 137.38 55.39 137.38 57.28 102.99"/><polygon class="cls-4" points="57.28 102.99 63.22 137.38 59.17 137.38 57.28 102.99"/><path class="cls-7" d="M81.89,97.43v14c0,3.32,1.34,6,3,6s3-2.72,3-6v-14Z"/><polygon class="cls-4" points="81.89 97.64 84.88 74.85 87.87 97.64 81.89 97.64"/><rect class="cls-4" x="81.56" y="110.08" width="6.64" height="1.82"/><rect class="cls-4" x="81.56" y="102.99" width="6.64" height="1.82"/><circle class="cls-4" cx="112.45" cy="96.39" r="0.61"/><rect class="cls-4" x="100.75" y="68.86" width="0.23" height="6.89"/><circle class="cls-4" cx="100.87" cy="68.3" r="0.61"/><rect class="cls-4" x="84.77" y="68.86" width="0.23" height="6.89"/><circle class="cls-4" cx="84.88" cy="68.3" r="0.61"/><rect class="cls-4" x="68.78" y="68.86" width="0.23" height="6.89"/><circle class="cls-4" cx="68.9" cy="68.3" r="0.61"/><polygon class="cls-7" points="114.62 159.81 110.85 162.28 110.85 157.35 118.39 157.35 114.62 159.81"/><polygon class="cls-7" points="55.13 159.81 58.88 162.28 58.88 157.35 51.37 157.35 55.13 159.81"/><rect class="cls-8" x="56.36" y="348.33" width="150.96" height="95.12"/><path class="cls-1" d="M70.3,348.33v-21.9a7,7,0,0,0-13.95,0v21.9Z"/><path class="cls-8" d="M69,348.33v-21c0-3.5-2.57-6.36-5.71-6.36s-5.71,2.86-5.71,6.36v21Z"/><path class="cls-1" d="M84.25,348.33v-35.2a7,7,0,1,0-13.95,0v35.2Z"/><path class="cls-8" d="M83,348.33V314c0-3.5-2.57-6.36-5.71-6.36s-5.71,2.86-5.71,6.36v34.29Z"/><path class="cls-1" d="M112.15,348.39V313.2a7,7,0,1,0-13.95,0v35.2Z"/><path class="cls-8" d="M110.89,348.39V314.11c0-3.5-2.57-6.36-5.71-6.36s-5.71,2.86-5.71,6.36v34.29Z"/><path class="cls-1" d="M98.2,348.33V300.41a7,7,0,0,0-13.95,0v47.92Z"/><path class="cls-8" d="M96.94,348.33v-47c0-3.5-2.57-6.36-5.71-6.36s-5.71,2.86-5.71,6.36v47Z"/><path class="cls-1" d="M160.41,348.36V312.29a7.82,7.82,0,0,0-15.64,0v36.07Z"/><path class="cls-8" d="M158.67,348.36V313.17c0-3.82-2.73-6.95-6.08-6.95s-6.08,3.13-6.08,6.95v35.19Z"/><path class="cls-1" d="M191.68,348.36V312.29a7.82,7.82,0,0,0-15.64,0v36.07Z"/><path class="cls-8" d="M189.94,348.36V313.17c0-3.82-2.73-6.95-6.08-6.95s-6.08,3.13-6.08,6.95v35.19Z"/><path class="cls-1" d="M207.32,348.36V323.55a7.82,7.82,0,0,0-15.64,0v24.81Z"/><path class="cls-8" d="M205.58,359.62V324.43c0-3.82-2.73-6.95-6.08-6.95s-6.08,3.13-6.08,6.95v35.19Z"/><path class="cls-1" d="M176,348.36V299a7.82,7.82,0,0,0-15.64,0v49.36Z"/><path class="cls-8" d="M174.3,348.36V299.88c0-3.82-2.73-6.95-6.08-6.95s-6.08,3.13-6.08,6.95v48.48Z"/><rect class="cls-8" x="112.15" y="313.13" width="32.62" height="68.94" rx="7.1" ry="7.1"/><path class="cls-1" d="M144.77,348.49V329.44a16.31,16.31,0,1,0-32.62,0v19.05Z"/><path class="cls-8" d="M143.19,349.68V329.57a14.72,14.72,0,0,0-29.45,0v20.11Z"/><rect class="cls-8" x="124.88" y="308.76" width="7.16" height="21.39" rx="1.56" ry="1.56"/><rect class="cls-1" x="123.5" y="315.2" width="1.38" height="12.86"/><rect class="cls-1" x="132.04" y="314.85" width="1.38" height="12.86"/><rect class="cls-1" x="56.36" y="348.33" width="150.96" height="1.35"/><rect class="cls-1" x="56.36" y="394.3" width="150.96" height="1.35"/><rect class="cls-1" x="70.3" y="313.85" width="41.85" height="1.35"/><rect class="cls-1" x="144.77" y="313.85" width="46.91" height="1.35"/><rect class="cls-1" x="160.41" y="301.4" width="15.63" height="1.35"/><rect class="cls-1" x="84.25" y="301.4" width="13.95" height="1.35"/><rect class="cls-1" x="56.36" y="326.96" width="150.96" height="2.18"/><rect class="cls-3" x="73.68" y="333.46" width="7.19" height="7.19"/><rect class="cls-3" x="87.63" y="333.46" width="7.19" height="7.19"/><rect class="cls-3" x="101.58" y="333.46" width="7.19" height="7.19"/><rect class="cls-3" x="149" y="333.46" width="7.19" height="7.19"/><rect class="cls-3" x="164.63" y="333.46" width="7.19" height="7.19"/><rect class="cls-3" x="180.27" y="333.46" width="7.19" height="7.19"/><rect class="cls-3" x="62.33" y="369.05" width="10.71" height="19.29"/><rect class="cls-3" x="83.5" y="369.05" width="10.71" height="19.29"/><rect class="cls-3" x="104.67" y="369.05" width="10.71" height="19.29"/><rect class="cls-3" x="148.29" y="369.05" width="10.71" height="19.29"/><rect class="cls-3" x="169.46" y="369.05" width="10.71" height="19.29"/><rect class="cls-3" x="190.63" y="369.05" width="10.71" height="19.29"/><rect class="cls-5" x="122.38" y="360" width="18.9" height="25.83"/><rect class="cls-5" x="125.18" y="352.27" width="13.31" height="26.81" rx="2.9" ry="2.9"/><path class="cls-4" d="M167.61,443.51V419c0-8.56-5.75-15.57-12.79-15.57h0c-7,0-12.79,7-12.79,15.57v24.53Z"/><path class="cls-4" d="M199.79,443.51V419c0-8.56-5.75-15.57-12.79-15.57h0c-7,0-12.79,7-12.79,15.57v24.53Z"/><path class="cls-4" d="M89.45,443.51V419c0-8.56-5.75-15.57-12.79-15.57h0c-7,0-12.79,7-12.79,15.57v24.53Z"/><path class="cls-4" d="M121.63,443.51V419c0-8.56-5.75-15.57-12.79-15.57h0c-7,0-12.79,7-12.79,15.57v24.53Z"/><rect class="cls-6" x="207.32" y="308.11" width="158.97" height="135.34"/><rect class="cls-6" x="366.29" y="310.22" width="46.49" height="133.23"/><rect class="cls-8" x="207.32" y="386.07" width="158.68" height="2.4"/><rect class="cls-8" x="365.99" y="388.46" width="46.79" height="2.4"/><rect class="cls-8" x="207.32" y="324.1" width="158.68" height="2.4"/><rect class="cls-8" x="365.99" y="326.48" width="46.79" height="2.4"/><rect class="cls-5" x="366.29" y="308.09" width="46.49" height="2.4"/><rect class="cls-2" x="224.2" y="363.89" width="9.16" height="16.98"/><rect class="cls-2" x="243.21" y="363.89" width="9.16" height="16.98"/><rect class="cls-2" x="261.37" y="363.89" width="9.16" height="16.98"/><rect class="cls-2" x="224.2" y="331.7" width="9.16" height="16.98"/><rect class="cls-2" x="243.21" y="331.7" width="9.16" height="16.98"/><rect class="cls-2" x="261.37" y="331.7" width="9.16" height="16.98"/><rect class="cls-2" x="284.39" y="363.89" width="9.16" height="16.98"/><rect class="cls-2" x="303.4" y="363.89" width="9.16" height="16.98"/><polygon class="cls-6" points="234.14 276.26 249.37 284.62 218.9 284.62 234.14 276.26"/><path class="cls-6" d="M218.9,290a21.16,21.16,0,0,1-11.59,8.93H218.9Z"/><path class="cls-6" d="M249.37,290A21.16,21.16,0,0,0,261,298.89H249.37Z"/><rect class="cls-6" x="207.32" y="298.51" width="158.91" height="7.17"/><polygon class="cls-6" points="339.36 276.26 354.59 284.48 324.13 284.48 339.36 276.26"/><path class="cls-6" d="M324.13,289.73a21.06,21.06,0,0,1-11.59,8.78h11.59Z"/><path class="cls-6" d="M354.59,289.73a21.06,21.06,0,0,0,11.59,8.78H354.59Z"/><rect class="cls-6" x="250.32" y="294.12" width="73.81" height="6.98"/><rect class="cls-5" x="207.32" y="298.51" width="158.87" height="1.61"/><rect class="cls-6" x="271.52" y="284.48" width="30.47" height="16.62"/><polygon class="cls-6" points="286.75 276.26 301.98 284.48 271.51 284.48 286.75 276.26"/><path class="cls-6" d="M271.52,289.73a21.06,21.06,0,0,1-11.59,8.78h11.59Z"/><path class="cls-6" d="M302,289.73a21.06,21.06,0,0,0,11.59,8.78H302Z"/><rect class="cls-8" x="282.54" y="287.88" width="8.43" height="8.43"/><rect class="cls-6" x="218.9" y="284.62" width="30.47" height="16.48"/><rect class="cls-8" x="229.84" y="288.08" width="8.43" height="8.57"/><rect class="cls-6" x="324.13" y="284.48" width="30.47" height="16.62"/><rect class="cls-8" x="335.15" y="287.88" width="8.43" height="8.43"/><rect class="cls-2" x="321.56" y="363.89" width="9.16" height="16.98"/><rect class="cls-2" x="284.39" y="331.7" width="9.16" height="16.98"/><rect class="cls-2" x="303.4" y="331.7" width="9.16" height="16.98"/><rect class="cls-2" x="321.56" y="331.7" width="9.16" height="16.98"/><rect class="cls-2" x="339.95" y="363.89" width="9.16" height="16.98"/><rect class="cls-2" x="339.95" y="331.7" width="9.16" height="16.98"/><rect class="cls-2" x="383.99" y="366.27" width="9.16" height="16.98"/><rect class="cls-2" x="383.99" y="334.09" width="9.16" height="16.98"/><rect class="cls-2" x="223.78" y="311.56" width="9.16" height="9.16"/><rect class="cls-2" x="242.79" y="311.56" width="9.16" height="9.16"/><rect class="cls-2" x="260.95" y="311.56" width="9.16" height="9.16"/><rect class="cls-2" x="283.97" y="311.56" width="9.16" height="9.16"/><rect class="cls-2" x="302.98" y="311.56" width="9.16" height="9.16"/><rect class="cls-2" x="321.14" y="311.56" width="9.16" height="9.16"/><rect class="cls-2" x="339.53" y="311.56" width="9.16" height="9.16"/><rect class="cls-2" x="383.99" y="314.18" width="9.16" height="9.16"/><path class="cls-4" d="M314.81,443.51V419a15.4,15.4,0,0,0-15.12-15.57h0A15.4,15.4,0,0,0,284.56,419v24.53Z"/><path class="cls-4" d="M356.19,443.51V419a15.4,15.4,0,0,0-15.12-15.57h0A15.4,15.4,0,0,0,325.94,419v24.53Z"/><path class="cls-4" d="M393.14,443.51V418.15a8.77,8.77,0,0,0-8.68-8.82h0a8.77,8.77,0,0,0-8.68,8.82v25.36Z"/><path class="cls-4" d="M271.31,443.51V414.66c0-5.52-3.9-10-8.68-10h0c-4.77,0-8.68,4.51-8.68,10v28.85Z"/><path class="cls-4" d="M239.12,443.51V414.66c0-5.52-3.9-10-8.68-10h0c-4.77,0-8.68,4.51-8.68,10v28.85Z"/><rect class="cls-6" x="357.96" y="298.25" width="54.82" height="9.85"/><rect class="cls-6" x="365.33" y="281.19" width="37.05" height="18.53"/><rect class="cls-8" x="379.65" y="285.19" width="8.43" height="10.53"/><polygon class="cls-6" points="383.86 271.19 402.39 281.19 365.33 281.19 383.86 271.19"/><path class="cls-6" d="M402.39,290.37a18.89,18.89,0,0,0,10.39,7.87H402.39Z"/><path class="cls-6" d="M365.33,290.37a18.89,18.89,0,0,1-10.39,7.87h10.39Z"/><rect class="cls-5" x="207.32" y="305.71" width="158.97" height="2.4"/><rect class="cls-5" x="403.59" y="298.25" width="9.2" height="2.3"/><rect class="cls-5" x="365.33" y="281.19" width="37.05" height="1.61"/><rect class="cls-5" x="324.13" y="284.48" width="30.47" height="1.61"/><rect class="cls-5" x="271.52" y="284.48" width="30.47" height="1.61"/><rect class="cls-5" x="218.9" y="284.48" width="30.47" height="1.61"/><rect class="cls-9" x="363.99" y="308.11" width="2.3" height="82.75"/><rect class="cls-9" x="410.48" y="310.5" width="2.3" height="80.36"/></svg>