<svg id="Layer_1" data-name="Layer 1" xmlns="http://www.w3.org/2000/svg" viewBox="0 0 1003 460"><defs><style>.cls-1{fill:#526858;}.cls-2{fill:#e38620;}.cls-3{fill:#da0100;}</style></defs><title>prague</title><g id="bridge"><path class="cls-1" d="M944.58,269.36v44.77h-7.13c-.67-17.24-15-31.43-32.36-31.43h-.15c-17.39,0-31.69,14.19-32.36,31.43H847.91c-.67-17.24-15-31.43-32.36-31.43h-.14c-17.39,0-31.69,14.19-32.36,31.43H758.36c-.67-17.24-15-31.43-32.36-31.43h-.14c-17.39,0-31.69,14.19-32.36,31.43H668.81c-.67-17.24-15-31.43-32.36-31.43h-.14c-17.39,0-31.69,14.19-32.36,31.43H579.27c-.67-17.24-15-31.43-32.36-31.43h-.14c-17.39,0-31.69,14.19-32.36,31.43H487.84c-.67-17.24-15-31.43-32.36-31.43h-.15c-17.39,0-31.69,14.19-32.36,31.43H398.29c-.67-17.24-15-31.43-32.36-31.43h-.14c-17.39,0-31.69,14.19-32.36,31.43H308.75c-.67-17.24-15-31.43-32.36-31.43h-.14c-17.39,0-31.69,14.19-32.36,31.43H219.2c-.67-17.24-15-31.43-32.36-31.43h-.14c-17.39,0-31.69,14.19-32.36,31.43H129.66c-.76-17.15-15-31.43-32.36-31.43h-.14c-17.34,0-31.6,14.29-32.36,31.43H58.69V269.36Z"/><rect class="cls-1" x="12.8" y="222" width="45.89" height="92.13"/><rect class="cls-2" x="12.8" y="210.81" width="45.89" height="11.19"/><rect class="cls-2" x="11.07" y="201.85" width="49.25" height="8.95"/><rect class="cls-3" x="11.07" y="192.9" width="49.25" height="8.95"/><polygon class="cls-3" points="35.74 155.78 45.45 192.9 26.04 192.9 35.74 155.78"/><rect class="cls-3" x="35.46" y="145.87" width="0.56" height="11.19"/><circle class="cls-3" cx="35.74" cy="148.51" r="1.12"/><polygon class="cls-3" points="13.72 181.06 16.38 192.9 11.07 192.9 13.72 181.06"/><rect class="cls-3" x="13.63" y="177.9" width="0.18" height="3.57"/><circle class="cls-3" cx="13.72" cy="178.75" r="0.36"/><polygon class="cls-3" points="57.66 181.06 60.32 192.9 55 192.9 57.66 181.06"/><rect class="cls-3" x="57.57" y="177.9" width="0.18" height="3.57"/><circle class="cls-3" cx="57.66" cy="178.75" r="0.36"/><rect class="cls-1" x="944.41" y="222" width="45.89" height="92.13"/><rect class="cls-2" x="944.41" y="210.81" width="45.89" height="11.19"/><rect class="cls-2" x="942.68" y="201.85" width="49.25" height="8.95"/><rect class="cls-3" x="942.68" y="192.9" width="49.25" height="8.95"/><polygon class="cls-3" points="967.36 155.78 977.07 192.9 957.66 192.9 967.36 155.78"/><rect class="cls-3" x="967.08" y="145.87" width="0.56" height="11.19"/><circle class="cls-3" cx="967.36" cy="148.51" r="1.12"/><polygon class="cls-3" points="945.34 181.06 948 192.9 942.68 192.9 945.34 181.06"/><rect class="cls-3" x="945.25" y="177.9" width="0.18" height="3.57"/><circle class="cls-3" cx="945.34" cy="178.75" r="0.36"/><polygon class="cls-3" points="989.28 181.06 991.93 192.9 986.62 192.9 989.28 181.06"/><rect class="cls-3" x="989.19" y="177.9" width="0.18" height="3.57"/><circle class="cls-3" cx="989.28" cy="178.75" r="0.36"/></g></svg>