<svg id="Layer_1" data-name="Layer 1" xmlns="http://www.w3.org/2000/svg" xmlns:xlink="http://www.w3.org/1999/xlink" viewBox="0 0 460 460"><defs><style>.cls-1{fill:#f4d942;}.cls-2{fill:#f3d632;}.cls-3{fill:#f1e6a0;}.cls-4{fill:#f6e063;}.cls-5{fill:#f1f1f1;}.cls-6{fill:#f3eaad;}.cls-7{fill:url(#linear-gradient);}.cls-8{fill:#646464;}.cls-9{fill:#4d4d4d;}.cls-10{fill:gray;}</style><linearGradient id="linear-gradient" x1="343.46" y1="95.2" x2="266.4" y2="95.2" gradientUnits="userSpaceOnUse"><stop offset="0.48" stop-color="#fff" stop-opacity="0"/><stop offset="1" stop-color="#f6e063"/></linearGradient></defs><title>rio</title><path class="cls-1" d="M236.72,22.43a22.71,22.71,0,0,1,6.61,2.74c1.88,1.53,2.69,7,2.69,7s.59,7.43-1.15,11.55-1.46,6.58-2,8A4.85,4.85,0,0,1,240.6,54a77.36,77.36,0,0,0,.47,10.72,4.52,4.52,0,0,0,3.23.35c.6.7,2.69.5,3.24.5s2.21-33.57,0-38.09-4.51-6.18-6.17-6.64-3.65-.78-3.65-.78Z"/><path class="cls-2" d="M244.28,65a37.75,37.75,0,0,1,1-11.5,63.94,63.94,0,0,0,2.33-15.38c.17-4.82,0-9.31-2.24-11.72-2.09-2.89-8.5-5.05-8.5-5.05V23l6.76,12.29L240.6,54,240,64.45Z"/><path class="cls-2" d="M246.88,52.55s.2,5-.46,7.45c0,1.59-.3,3.83.24,5s-1.16.61-1.16.61a9.07,9.07,0,0,1-.72-3.25,16.75,16.75,0,0,1,1.06-3.88A43.16,43.16,0,0,0,246.88,52.55Z"/><path class="cls-3" d="M216.57,63.31l7.76-1a42.42,42.42,0,0,0,.94-12.1c-.12-5.69-1.22-11.58-.27-16.43s2.76-9,5-10.14c2.37-.47,6-.79,7.35-1.52.41-.37.41-2.09.41-2.09H234.9s-9.34.57-11.61,9a148.8,148.8,0,0,0-3.45,18.83Z"/><path class="cls-4" d="M89.89,55.38c-1.26,0-1.56-.1-1.56.7,0,0,6,.19,8.28.49s3.13,1.88,5.52,2.07,3.24-.24,4.19-.11,8.49,4.15,8.49,4.15l-1.89-1.49s-5.25-3.62-8.84-4.48C101.63,55.92,91.15,55.38,89.89,55.38Z"/><path class="cls-5" d="M88.33,56.09a4.28,4.28,0,0,0,1.75,2.76,10.6,10.6,0,0,0-2.83-.07,19.66,19.66,0,0,0-4.82-.13,11,11,0,0,0-4.73-.31c-.79.24-.75,1.4-.75,1.4s-2.16-.31-2.3.79v1.34s-.14,1.17,1.78,1.23c-.14.48-.34,1.47.75,1.82a17.93,17.93,0,0,0,3.12.48s-.24,1.54,2.64,2.26S96.82,71,98.47,71.32a90.75,90.75,0,0,0,11.07.31,19.22,19.22,0,0,1,5-.17l2.62.84,2.28.53,2.43-1.06V69.6l-4.66-6.1-5.82-2.64L106,57.75l-6.17-.82s-3.7-.82-4.15-.84S88.33,56.09,88.33,56.09Z"/><polygon class="cls-4" points="101.72 58.42 101.72 60.7 100.96 60.7 100.96 58.2 101.72 58.42"/><path class="cls-4" d="M80.42,65.46a46.48,46.48,0,0,0,4.87.39c0,.75,4.3,1,4.3,1s-.16.49,2.63.49,2.19.16,2.94.29,1.56,0,1.76-.71A1.14,1.14,0,0,0,96,65.32c-.49-.16-.74.67-1.65.67s-4.39-.11-4.66-.11c0,0,.07-.51-1.29-.58s-3.1-.2-3.1-.2-.13-.76-3.39-.78C79.59,64.32,80.42,65.46,80.42,65.46Z"/><path class="cls-3" d="M136.75,101s-4.25.67-14.16-15.66c0,0-4.52-8-5-11.06-2.37,0-4-.22-5.49-1.18A82.16,82.16,0,0,1,93.2,70.49C83.73,68.12,80,67,79.95,66.57a2.57,2.57,0,0,1,0-.92,13.93,13.93,0,0,1-3.07-.81,1.21,1.21,0,0,1-.59-.7,1.87,1.87,0,0,1,.14-1l4,.81s-.45.93-.13,1.48,4,1.23,4.56.93a23.82,23.82,0,0,0,4.65,1.24s4.4.74,4.4.1c0,.54,6.38,2,9.54,2a77.13,77.13,0,0,1,10,.4c1-.89,3.31-2.27,2.72-6.23l.88-.08,10.54,10.51,10.63,17,3.21,6-.4,3.36Z"/><path class="cls-5" d="M162.72,66.62S139,67,130.34,65.32s-14.42-4.07-13.24-1.55,10.1,18.78,21.24,29.66,37.47,1.29,37.47,1.29l6.72-11.44Z"/><path class="cls-2" d="M162.72,66.62a18.74,18.74,0,0,1,3.61,6.58,11.94,11.94,0,0,0,4.15,5.91s1,4.21-2,3.72-21-14.32-21-14.32a9.72,9.72,0,0,0,2.91,8.25c3.72,3.32,6.86,6.67,12.25,8.55,1.73,1.19,2.42,1.15,2.45,2.53s3.75,4.77-5-.32-31-17.29-31-17.29,6.29,11.16,8.78,15.08,2.62,9.83.39,8.12c0,0,3,4.49.71,6,.79.87,29.58,3.35,29.58,3.35l26.08,7.68-.43-24Z"/><path class="cls-6" d="M178,76.39s8.83,13,13.59,15.6,2.73-5.49,2.73-5.49Z"/><polygon class="cls-6" points="192.17 93.42 186.97 92.53 191.54 97.23 192.17 93.42"/><path class="cls-6" d="M192.17,98.79S175.4,89.27,171.83,86.5s-.5.16-.5.16a167.92,167.92,0,0,0,20.5,12.61C192.94,99.27,192.17,98.79,192.17,98.79Z"/><path class="cls-6" d="M192.17,116.3s-24.07-12.74-30.58-13.51-11.2.3-16.35,0a25.65,25.65,0,0,1-8.49-1.83s1.81-.2,2.3-1.52c2.23,1,15.76,1.53,19.8,1.39s7.67.64,7-.83-3-3-2.37-3.77a3.25,3.25,0,0,1,4.81-.77c2.58,1.74,8.37,6.48,13.18,7s7.88,1.12,7.67,0,3.07.28,3.07.28Z"/><path class="cls-5" d="M194.5,198.49s.88-4.1,8,0,28.39,15.69,28.39,15.69l14.74,7.1a64,64,0,0,0,6.92,2.07s3.34-18.65,2.11-50.31-2.45-75.76-2.45-75.76a125,125,0,0,0-24.71,0c-11.64,1.43-18.79.41-18.79.41V160s-.31,5.94-2.35,7.3-7,1.36-8.42,3.91-4.76,13.36-4.68,18.37A36.34,36.34,0,0,0,194.5,198.49Z"/><path class="cls-6" d="M192.51,184.8l1.25-15.44,1.92-10.92,7.37-1s8.95,6.72,8.88,6.91-2.53,3.84-2.53,3.84Z"/><path class="cls-2" d="M198.76,167.78s-.46-3.18.48-3.35,1.58.47,2.91.85,2.95,1.07,4.66-.36-.46,2.38-.46,2.38Z"/><path class="cls-3" d="M193.89,195.85s-3.08-4.84-1.08-12.32,3.3-13,4.17-14.16a3.91,3.91,0,0,1,3.38-1.91c1.66,0,6.41-1.34,7.17-2.43s1,6.52,1,6.52l-5,11.47Z"/><path class="cls-3" d="M192.17,167.4s.82,1.79,1.6,2c.43-2,2.35-9.73,3-10.51s2.87-.09,4.26.52,4.47.87,5.47,3,2.64,5.13,1.76,1.61-1.41-5-1.41-5l-1.13-4.26-6.33.35-4,.54L192.17,162Z"/><path class="cls-1" d="M249.77,66.06l-4-1-27.27-2.15s-2.12-.73-6.91.26l-9-.12s-2.76-.86-13.51.12-10.5,1.13-10.5,1.13l32.66,15.94L222,85.32,229.66,87,248,78l2.5-3.74Z"/><path class="cls-2" d="M371.67,73.38a4.28,4.28,0,0,1-1.75,2.76,10.6,10.6,0,0,1,2.83-.07,19.66,19.66,0,0,1,4.82-.13,11,11,0,0,1,4.73-.31c.79.24.75,1.4.75,1.4s2.16-.31,2.3.79v1.34s.14,1.17-1.78,1.23c.14.48.34,1.47-.75,1.82a17.93,17.93,0,0,1-3.12.48s.24,1.54-2.64,2.26-13.88,3.39-15.52,3.67a90.75,90.75,0,0,1-11.07.31,19.22,19.22,0,0,0-5-.17l-2.62.84-2.28.53-2.43-1.06V86.9l5.48-7.18,5-1.56L354,75l6.17-.82s3.7-.82,4.15-.84S371.67,73.38,371.67,73.38Z"/><polygon class="cls-4" points="343.45 78.49 347.07 78.49 346.63 80.97 342.84 80.97 343.45 78.49"/><path class="cls-3" d="M328.26,112.26s7.21-1.17,14.58-22.67c-3.76-.35-3.26-1.14-3.26-1.14S321.83,107.84,328.26,112.26Z"/><path class="cls-5" d="M269.89,70.42s8.51,2.74,10.37,4.32c3.54,0,16.93,4.84,19.16,4.93a34.76,34.76,0,0,0,3.54,0s-.08-.57,1.61-.53,15.22-.15,21.49.57,17.39-2.11,17.39-2.11,1,5.84-8.91,17.82-8.17,15.3-6.27,16.83-33.84,2-37.26,2.52-13.27,4.35-21.11,5.18S269.89,70.42,269.89,70.42Z"/><path class="cls-7" d="M269.89,70.42s8.51,2.74,10.37,4.32c3.54,0,16.93,4.84,19.16,4.93a34.76,34.76,0,0,0,3.54,0s-.08-.57,1.61-.53,15.22-.15,21.49.57,17.39-2.11,17.39-2.11,1,5.84-8.91,17.82-8.17,15.3-6.27,16.83-33.84,2-37.26,2.52-13.27,4.35-21.11,5.18S269.89,70.42,269.89,70.42Z"/><path class="cls-2" d="M269.8,93.18s6.42-1.56,9.26-4a12.74,12.74,0,0,1,4.86-2.93s.68-.12-1.82,1.18c-1.68,1.05-1.07,2.94-2.48,4.31s-3.36,2.74-9.7,3.49A2.38,2.38,0,0,1,269.8,93.18Z"/><path class="cls-2" d="M269.17,108.65s16.82-8.05,23.7-13.45A210.49,210.49,0,0,1,311.27,83s1.39-.65-.27.82-13.58,9.52-19.19,15-22.17,12.45-22.17,12.45Z"/><path class="cls-2" d="M328.86,88.44s-35.89,18.87-57.73,22.2c-15.56,8.81,0,9.16,0,9.16s6.81-.41,19.87-5c9.75-.49,18-.79,18-.79s22.65-.64,19.22-1.73c-2.88-2.75-.08-7.67-.08-7.67s-19.28.7-19.07-.86.14-2.78,3-3.37,5.95-5.16,5.95-5.16S331.88,87.9,328.86,88.44Z"/><polygon class="cls-5" points="272.3 211.25 271.13 219.88 254.8 221.47 252.49 206.25 264.32 199.33 272.65 209.6 272.3 211.25"/><polygon class="cls-8" points="291.06 439.93 174.45 439.93 187.09 323.63 278.42 323.63 291.06 439.93"/><polygon class="cls-9" points="187.09 323.63 165.56 327.48 150.62 439.93 174.45 439.93 187.09 323.63"/><polygon class="cls-9" points="187.09 323.63 172.33 326.27 172.33 315.02 187.09 311.95 187.09 323.63"/><polygon class="cls-10" points="278.24 323.63 299.77 327.48 314.71 439.93 290.88 439.93 278.24 323.63"/><polygon class="cls-10" points="278.24 323.63 293 326.27 293 315.02 278.24 311.95 278.24 323.63"/><path class="cls-3" d="M267.8,235.76s-.57-.33-1.73.67-1.22-1.41-1.27-3.74S267.8,235.76,267.8,235.76Z"/><path class="cls-5" d="M162.72,66.62s39.93,29.29,46,31.06,43.5-.41,43.5-.41.23-17.47-1.22-22c-1.56-.22-3.46,2.12-9.59,4.68C235.81,83.6,231,85.83,228,85.83s-10.37-1.9-15.16-5.91c-2.68-2.34-5.13-1.23-11.15-4.46s-19-11-22-11.48a30.47,30.47,0,0,0-10.7.67C166.68,65.42,162.72,66.62,162.72,66.62Z"/><path class="cls-5" d="M195.19,198.81l-5.77,95L187.09,312h85.57s-1.57-18.27-1.7-22.79-1.86-45.5-1.86-45.5l1.2-9.58-23.15-18.36L205.23,197.1l-8.78-2S194.76,196.88,195.19,198.81Z"/><path class="cls-3" d="M265.2,232.16l-8-8.35-10.08-8.09L205.23,197.1l-8.78-2a4.72,4.72,0,0,0-1.26,3.71l-5.77,95L187.09,312l4,2.08s3.44-8.65,4.32-22.83,2.82-50.28,2.82-50.28l1.31-25.41,1.17.65-5.3,97.75,3,.15,5-97.9c.3-.92.8-1.91,1.48-1.47,1.19.76,1.1,3.21,1.1,3.21h0l-4.5,91.26a1.43,1.43,0,0,0,2.86.14l5.4-94.78H211l-3.8,94a1.43,1.43,0,1,0,2.86.13L214.43,211a1.37,1.37,0,0,0-.05-.33,5.22,5.22,0,0,1,3.11,2.21l-2.33,94.76a1.25,1.25,0,1,0,2.51.06l2.25-91.34a5.52,5.52,0,0,1,2.2.38c1.12.49,1.87,8.71,1.87,8.71L222.6,314h4.73l1.2-94.58a5,5,0,0,1,2.66.47c2.65,1.68,2.62,7.22,2.62,7.23L233.39,314h3.5V221.87l2.68,1.55.89,4.45v80.19a1.43,1.43,0,1,0,2.87,0V223.59h1.85l.91,4.15.79,81.34a1.43,1.43,0,1,0,2.87,0l-.8-82.56v-2.72h1.42l2.54,10.6,1.67,76.15a1.43,1.43,0,1,0,2.87,0l-1.24-80a2.66,2.66,0,0,1,2.48-.26c1.15.63,2,8.9,2,8.9h0l1.64,80,1.69,0-2-86.62h2.8Z"/><rect class="cls-8" x="187.09" y="311.95" width="91.15" height="11.68"/><path class="cls-3" d="M266,217.89s-11.79,2-13.33,4.88,6.45,6.54,6.45,6.54,6.16,2.69,8.66,6.45c1.12,1.92,1.12,7.13,1.12,7.13l.53,0,.49-4.87-1.34-4.63-7.38-5.4-4-4.15,7.58-3.43Z"/><path class="cls-5" d="M272.39,244.66l-.79-29s-3.64-.65-4.29.32L266,217.89s-.08,1.21-3.15,2.18l-8.25,2.59s-1,2.59,2.27,3.56,7.57,3.63,11.49,9.14c1.23,2.12,1.08,7.51,1.08,7.51Z"/><path class="cls-3" d="M269.24,247.3a2.62,2.62,0,0,0,1.74-.78c1-.84,2.07-2,.9-3.13-.56-.67-3-.5-3-.5Z"/><polygon class="cls-6" points="245.56 97.23 250.2 100.01 250.04 100.97 245.03 97.7 245.56 97.23"/><polygon class="cls-6" points="239.11 98.38 248.91 104.28 249.11 105.09 238.1 98.38 239.11 98.38"/><path class="cls-6" d="M234,99.1a110.35,110.35,0,0,0,14.74,11.82v.47a173.23,173.23,0,0,1-15.48-12Z"/><path class="cls-6" d="M230.87,98.79s-.74,4.9,3.73,7a24.14,24.14,0,0,0,7.08,1l-9.29-7.71Z"/><polygon class="cls-6" points="248.41 112.83 237.71 106.14 235.65 105.68 248.41 113.38 248.41 112.83"/><path class="cls-3" d="M266.84,216.66a2.72,2.72,0,0,1,2.07.67.21.21,0,0,0,.32,0,6.68,6.68,0,0,1,1.9-1.78,4,4,0,0,0-3.17,0C266.59,216.34,266.84,216.66,266.84,216.66Z"/><path class="cls-5" d="M250.2,65.65s17.42,2.65,19.69,4.77c.68.76,1.19,43.65,1.53,51.83s3.41,76.52,3.41,76.52V206a1.83,1.83,0,0,0-2.5-.85c-1.6,1.18-2.94,2.29-4.08,1.91s0-2.67-2-4.28-5.08-1.27-6.12-1.18-5.6-.21-7.15-1.16a5.55,5.55,0,0,1-2.1-3l.25-57.65s1.34-40.18,1.34-48.59C252.05,82.67,250.2,65.65,250.2,65.65Z"/><path class="cls-4" d="M254,66.27s.34,9.65,1.09,14.08l-.15-13.92Z"/><path class="cls-2" d="M253.23,200.44l-2.08-60.58,1.34-48.59L254.67,176l.56,23.43s-.16,1.33,3.76,1.84A13.12,13.12,0,0,1,253.23,200.44Z"/><path class="cls-2" d="M250.2,65.65a28.24,28.24,0,0,0-1.4,6.19c0,2,.57,3.86,1.4,3.86,0,0,2.06,14.67-.7,21.18-.7,6.22-2,17.24-2,17.24s-.72,2.79.79,4.72c0,3.08-.05,13.23-1,19.53s1.46,23.82,1.46,23.82,1,8.58.23,12.88-2.95,18.46-2.66,22a13.18,13.18,0,0,0,2.93,7.87l.14,2.79,2.65,2.07-1,12.95,1,.36,2.7-1.66-.3-15.33a13.55,13.55,0,0,1,6.34-2c3.24,0,4.36,1,4.36,1a10.58,10.58,0,0,1,2.5,4.77h1.15a3.62,3.62,0,0,1,2-.51c.89.17.89,1.87.89,1.87h.51s3.78-3.11,2.53-5.24-2.5-.85-2.5-.85-3.21,2.13-4,1.8c-.5-.14-.55-.53-.64-1.13a3.85,3.85,0,0,0-1.81-3.31c-1.75-1-2.16-.94-2.16-.94l-4.73-.26a13,13,0,0,1-5.77-.89c-1.15-.47-2.33-2.93-2.33-2.93l.25-57.65,1.34-48.59S251.65,69.81,250.2,65.65Z"/><path class="cls-2" d="M303,79.67,290.49,90.22s-1.39,1.49-.36.87S303.72,80,303.72,80s.74-.9,0-.85S303,79.67,303,79.67Z"/><path class="cls-4" d="M347.07,78.49s5.25-3.62,8.84-4.48c2.47-.79,12.95-1.33,14.2-1.33s1.56-.1,1.56.7c0,0-6,.19-8.28.49s-3.13,1.88-5.52,2.07-3.24-.24-4.19-.11-6.8,3.78-6.8,3.78Z"/><path class="cls-2" d="M190.65,86.5s-.27,49.88-3.06,66.39c0,0-.33-.76,2.58-1.06s4.14,1.06,4.14,1.06-1.76-.91-2.38,1.62-1.29,8.05-1,10.28a5,5,0,0,0,1.22,2.61s1.07-6.67,2.68-9.05,3.53-1.15,4.6-1,5.83,1.3,7.06,2.65-.61,8.25-.61,8.25l5.37-3.38-1.69-68.73Z"/><polygon class="cls-4" points="358.28 75.72 358.28 78 359.04 78 359.04 75.5 358.28 75.72"/><path class="cls-4" d="M379.23,82.76a46.48,46.48,0,0,1-4.87.39c0,.75-4.3,1-4.3,1s.16.49-2.63.49-2.19.16-2.94.29-1.56,0-1.76-.71a1.14,1.14,0,0,1,.87-1.56c.49-.16.74.67,1.65.67s4.39-.11,4.66-.11c0,0-.07-.51,1.29-.58s3.1-.2,3.1-.2.13-.76,3.39-.78C380.06,81.62,379.23,82.76,379.23,82.76Z"/><path class="cls-4" d="M383.57,80.39s-2.37.23-5.54.19c.28.88-4.86,1.08-4.86,1.08a15.75,15.75,0,0,1-3.24.21c-3.15,0-2.24.18-3.1.31s-1.71.26-1.94-.45,0-1.25,1-1.56c.55-.16.83.67,1.86.67s5-.11,5.26-.11c0,0-.08-.51,1.46-.58s3.5-.2,3.5-.2.15-.76,3.83-.78C384.44,79.17,383.57,80.39,383.57,80.39Z"/><path class="cls-4" d="M365.86,80.17l2.41-1.79a58.62,58.62,0,0,1,7.45-.33.91.91,0,0,1,.76-.43h2.89s-.13-.43,1.35-.43,1.58-.23,1.58-.23.36-1-3.48-.83c-1.94,0-1.24-.21-1.24-.21a10.09,10.09,0,0,1,3.28-.44c1.45.13,2-.33,2.2,1.54,1.18-.29,2.3,0,2.3.79v.85a5.22,5.22,0,0,1-.82-.62c-.43-.39-3.87-.49-4.27-.23s.26.75-1.35.75-2.46,0-2.46,0-2.2-.1-2.2.1.46.3-1.35.3h-4.4l-2.1,1.79Z"/><path class="cls-2" d="M249.32,75.69s.88-.7,1.17,2.69c0,3.82,2,11-1.17,19.05,2.33.94,2.87-.16,2.87-.16s.65-19-1.22-22C250.91,75,249.32,75.69,249.32,75.69Z"/><path class="cls-2" d="M249.32,97.43s-1-6.58-11-3.66c-7.68,1.77-7.37-1.61-7.07-2.15s.77-.23-8.45,0-14.75-1.31-23.2-6.45S181.17,72,177.79,71.57s-4.37-2.71-6.07-2.58a11.07,11.07,0,0,0-2.91.61s-5-3.09-5.55-3l-.55.06s34.31,25.67,46,31.06S249.32,97.43,249.32,97.43Z"/><path class="cls-4" d="M369.91,76.14a6.7,6.7,0,0,1,2.83-.07,15.72,15.72,0,0,1,4.82-.13s.76.75-.11.61a14.73,14.73,0,0,0-4.68-.1.58.58,0,0,1-.49.85,8,8,0,0,1-2.37,0C369.55,77.1,369.91,76.14,369.91,76.14Z"/><path class="cls-5" d="M169.19,64.59a19.84,19.84,0,0,1,2.55-.51c2.22-.13,4.05,2.46,4.05,2.46a4.31,4.31,0,0,1-2.77-.67c-1.49-.9-1.58-1.14-2.08-1.17a13.31,13.31,0,0,0-1.5.08s2.19,1,2.34,1.41-2-.7-2.75-.74-3.86.42-3.86.42Z"/><path class="cls-5" d="M223.71,62.46a14.71,14.71,0,0,0-5.19.44c1,3,4.82,12.74,5.85,13.11s17,1.56,17,1.56a1.43,1.43,0,0,0,1.7-1c.37-1.26,2.67-11.56,2.67-11.56a18.06,18.06,0,0,0-4.37-.89c-.22-1.76-.37-10.08-.37-10.08L225,51S225.12,60.83,223.71,62.46Z"/><path class="cls-2" d="M250.17,76.38a6.8,6.8,0,0,1-1.51-3.07c-.06-2.34.41-6.59,1-7.45.65-.52,1,0,1,0l1,12.08Z"/><path class="cls-5" d="M204.52,105.13s-1.53.89-1.78,9.31-2,16.32-3.31,26.52-1.79,16-1.79,16,7.48,1.27,8.88,3.08,1,5.78,1,5.78a7.31,7.31,0,0,0,.8-2.66c-.1-.85-.19-51.69-.19-51.69s.18-4.7-1.47-6.08A1.64,1.64,0,0,0,204.52,105.13Z"/><path class="cls-3" d="M187.59,152.89s-1,6-.5,6.8,4.68.72,4.68.72l4.35-8-5.2-1.65-3.1.72Z"/><path class="cls-2" d="M211.27,165.78s2.11-.33,3.8,5.37a51.58,51.58,0,0,0,9,17c3.74,5.84,6.82,11,8.73,13s6.48,9.13,9.66,9.77a13.14,13.14,0,0,0,5.52,0S233.23,186,225.8,169.37s-14.4-39.77-14.53-42.43,1.15,0,2.32,2.55S224,156.63,226.65,160s7.54,4.32,10.3,7.08,7.75,6.58,9.56,6.26-.32-1.59-1.7-2.87S229.62,152.74,227.6,149s-11.15-19.86-13.38-27.08-2.44-8.92-1.27-8.92,4.25,1.81,5.63,2.34,4.1,2.55,5.5,3.08,1.83-.42,3.42.64,4.88,4.57,6.37,5.42,2.34,1-.32-1.59a115.74,115.74,0,0,1-9.47-11.57c-2-2.76-9.43-7.54-8.37-8.81s2.65-1.49,6.26-.42,8.18-4.28,8.18-4.28H207Z"/><path class="cls-4" d="M109.61,65s-7.66-5.09-7.9-6.57-.41.09-1.57,0S91,57.31,89.81,56.08s-1.48,0-1.48,0a3,3,0,0,0,1.75,2.76c-.57.46-2.87.31-2.87.31l-2.95,1.6,3.85.44,4.18.45a10.9,10.9,0,0,1,5.58-.45A2.51,2.51,0,0,0,99.8,65C101,65,109.61,65,109.61,65Z"/><path class="cls-4" d="M94.14,62.87l-2.41-1.79a58.61,58.61,0,0,0-7.45-.33.91.91,0,0,0-.76-.43H80.63s.13-.43-1.35-.43-1.58-.23-1.58-.23-.36-1,3.48-.83a9.79,9.79,0,0,0,1.11-.06c-.17.21-.38.56.24.47a14.73,14.73,0,0,1,4.68-.1.58.58,0,0,0,.49.85,8,8,0,0,0,2.37,0c.36-.2,0-1.16,0-1.16a6.7,6.7,0,0,0-2.83-.07,15.72,15.72,0,0,0-4.82-.13,10.09,10.09,0,0,0-3.28-.44c-1.45.13-2-.33-2.2,1.54-1.18-.29-2.3,0-2.3.79v.85a5.22,5.22,0,0,0,.82-.62c.43-.39,3.87-.49,4.27-.23s-.26.75,1.35.75,2.46,0,2.46,0,2.2-.1,2.2.1-.46.3,1.35.3h4.4l1.82,1.55a1.75,1.75,0,0,1-1,.35c-1,0-5-.11-5.26-.11,0,0,.08-.51-1.46-.58s-3.5-.2-3.5-.2-.15-.76-3.83-.78c-2.67,0-1.79,1.22-1.79,1.22s2.37.23,5.54.19c-.28.88,4.86,1.08,4.86,1.08a15.75,15.75,0,0,0,3.24.21c3.15,0,2.24.18,3.1.31s1.71.26,1.94-.45S95.15,63.19,94.14,62.87Z"/><path class="cls-6" d="M241.05,54.09s-10.45,11.36-20.58,14c-.81-2.08-1.94-5.15-1.94-5.15s3.69-1.13,5.19-.44C225,60,225,51,225,51Z"/><path class="cls-5" d="M246.45,37c0-3.93-.67-9.87-3.12-11.87a12.32,12.32,0,0,0-3.26-1.76A10.09,10.09,0,0,0,236,22.19a10.23,10.23,0,0,0-10.91,9.42l-.75,10.15s0,.06,0,.1c.05,3,.51,6.05.71,9.08.1.25.2.51.28.77a10.16,10.16,0,0,0,19-4.23l.16-2.13h0A24.33,24.33,0,0,0,246.45,37Z"/><path class="cls-2" d="M244.11,30.42c-.55-.33-1.87-.77-3.29-1.37s-1.21-2.14-2.69-1.87-1.85,1.1-2.74,1.21-1.54-.82-2.7-.77c-.9,0-3.13.38-4.1.53,2.41-3.69,7.39-6,7.39-6-8.79-.73-10.36,5.2-11,9.13a99.89,99.89,0,0,0-.7,10.44s.32,7.12.73,9.18c1.09,3.07,3.26,5.46,8,6a10.42,10.42,0,0,0,8-2.71s.13-3.42-.68-1.57a2.74,2.74,0,0,1-3,1.63c-.22-.15-.22-.74.74-1.48a19,19,0,0,1-4.59-4.11c0-.1-.46-1.44,1.46-2.71A3.92,3.92,0,0,1,239,46s.95.53.95-.59-1.59-4.74-2.8-4.91-.46-.66-.46-.66,1.34,0,1.34-.28-.82-3.56-1.87-3.73h-.76V31.08a2.12,2.12,0,0,1,2.57,2c.27,2.42.71,6.15.71,6.15a9.56,9.56,0,0,0,1.54,3.24c.93,1,3.24.6,3.79,0s-.05-1.59-1.14-3.07,0-3.54,0-3.55c.84-.44,1.61-.62,2.08-.18C245.32,32.61,244.66,30.75,244.11,30.42Z"/><path class="cls-6" d="M227.2,32.5s.66-3.62,3.46-3.46,3.68,1.26,3.68,3.46Z"/><path class="cls-6" d="M239.17,33.77s.77-3,2.8-2.36a3,3,0,0,1,2.42,3.35C242.52,34.37,239.17,33.77,239.17,33.77Z"/><path class="cls-6" d="M233.21,39.13s1.42-3.27,2.18-3.27h.76s1.37.19,1.87,3.73A14.3,14.3,0,0,1,233.21,39.13Z"/><path class="cls-6" d="M230.35,43.23a7.72,7.72,0,0,1,4-.81,8.56,8.56,0,0,1,4.42,2.29c.44.57,1.18.07.27-.81a11.52,11.52,0,0,0-4.13-2.09,9.89,9.89,0,0,0-3.65.37A1.32,1.32,0,0,0,230.35,43.23Z"/><path class="cls-4" d="M189.87,63.09s-2.44,1.19-2.44,2.71,3.48,1.84,3.48,1.84-.45,1.26.91,1.19,7-.21,8.91-3c2.2.13,3.18.15,3.18.15s2.27,2.89,5,1.66,3.85-1.91,5.06-1.16,5.95.12,5.95.12l-1.38-3.7a12.89,12.89,0,0,0-6.91.26s-6.48-.62-9-.12C202.59,63,198.21,61.82,189.87,63.09Z"/><path class="cls-4" d="M230.69,85.39s-8.42.68-14.61-4.73-14-14.39-15.36-14.83.71,4.8,2.59,6.68A89.5,89.5,0,0,0,211.57,79l9.22,6.38L229.66,87Z"/><path class="cls-1" d="M232.87,76.9s-2.94-1.71-2.63-3.09,2.85-.49,2.85-.49,2.85-1.11,2.8.49S232.87,76.9,232.87,76.9Z"/><path class="cls-6" d="M234.27,49.65l3.8,3.2s-.48,2.13-1.94,2.54a2.5,2.5,0,0,1-2.92-2.06A16.63,16.63,0,0,1,234.27,49.65Z"/></svg>