<svg id="Layer_1" data-name="Layer 1" xmlns="http://www.w3.org/2000/svg" viewBox="0 0 460 460"><defs><style>.cls-1{fill:#415947;}.cls-2{fill:#84e895;}.cls-3{fill:#96eba5;}.cls-4{fill:#5c7061;}.cls-5{fill:#f3d632;}.cls-6{fill:#f7e270;}.cls-7{fill:#faefb1;}</style></defs><title>rio</title><path class="cls-1" d="M39.34,268.51l-4,2.15-15.59.84-1.88,2.12a27.22,27.22,0,0,1-3.8,2.44l-3.69-.71,3-2S28,264.19,25.07,259s-15.24-3-15.24-3l3.47-1.31,24.26-5.43Z"/><polygon class="cls-1" points="39.34 268.51 161.98 250.72 148.01 230.6 35.8 249.97 39.34 268.51"/><path class="cls-2" d="M408,260.78s-41.64,13.49-83.13,15a494.88,494.88,0,0,1-76-3.21s-46.92-5.27-81.22-18.84-30.16-29-30.16-29,0-16.11,5.64-21.09,286.11,25.42,286.11,25.42L418.12,257.6Z"/><path class="cls-1" d="M322.83,273.31s46.35-2,76.9-13.79c8.86-3.46,9.57-5.78,9.57-5.78l-1.16-6-37.55,10.05-31.53,3.36-15.67.11Z"/><path class="cls-1" d="M179.77,249.19l.42,7.8s45.38,13,69.21,12.48L251.18,256l-60.37-8.74Z"/><path class="cls-1" d="M145.63,228.29s7.08,8.9,14.1,11.1,16.71,4.45,16.71,4.45l3.22-.17,2.89-.85-11.33-4.76-22.49-10.56Z"/><polygon class="cls-3" points="423.96 231.14 416.94 238.71 417.65 238.67 424.8 230.71 423.96 231.14"/><path class="cls-4" d="M417.77,233.68a48.47,48.47,0,0,0-7.23,10.92c3.16.76,6.39-5.89,6.39-5.89l7-7.57Z"/><path class="cls-4" d="M396.61,239.29s-4,5.14-5.51,9.18l-.38-7.12-2.69.15,1.17,21.62,1.5,1.32.6-4.13,1.1-6.07,2.36-6.39,3.1-5.11,3.08-4.2Z"/><path class="cls-4" d="M402.38,238l.35,6.47s3.32-6.86,6-8.36a14.52,14.52,0,0,1,5.84-1.59s-12.76,9.7-12.52,25.45a7,7,0,0,1-2.35-.5l-.66-20.66Z"/><path class="cls-3" d="M402.08,260l1.45-.7s-1.86-12.41,10.67-23.75c-1,.22-1.15.22-1.15.22S401.79,245.18,402.08,260Z"/><path class="cls-3" d="M390.68,264.43a32.82,32.82,0,0,1,10.24-25.9c1-.76,1.46-.49,1.46-.49s-11.81,11.78-10.68,26.33Z"/><path class="cls-4" d="M168.66,233.57s7.94,8,7.78,10.28l3.22-.17-6.49-9.52Z"/><polygon class="cls-4" points="248.61 254.6 245.32 246.92 243.76 247.19 246.22 254.49 248.61 254.6"/><path class="cls-3" d="M241.75,246.39s3,6.6,3.67,8.79a2.57,2.57,0,0,0,1.65-.09s-3.15-9.39-4.6-10S241.75,246.39,241.75,246.39Z"/><rect class="cls-5" x="27.74" y="261.63" width="0.87" height="5.55" transform="translate(-14.19 1.9) rotate(-3.08)"/><rect class="cls-5" x="29.97" y="258.67" width="0.87" height="8.39" transform="translate(-14.1 2.02) rotate(-3.08)"/><rect class="cls-5" x="9.26" y="250.77" width="0.42" height="5.24" transform="translate(-13.62 0.88) rotate(-3.08)"/><rect class="cls-5" x="12.43" y="251.22" width="0.35" height="5.01" transform="translate(-13.63 1.05) rotate(-3.08)"/><rect class="cls-5" x="16.67" y="252.49" width="0.35" height="3.27" transform="translate(-13.65 1.27) rotate(-3.08)"/><rect class="cls-3" x="13.21" y="251.49" width="0.45" height="3.18" transform="translate(-13.6 1.09) rotate(-3.08)"/><rect class="cls-5" x="13.88" y="270.2" width="0.57" height="5.84" transform="translate(-14.68 1.16) rotate(-3.08)"/><rect class="cls-5" x="9.66" y="269.61" width="0.53" height="5.75" transform="translate(-14.65 0.93) rotate(-3.08)"/><rect class="cls-5" x="17.7" y="268.35" width="0.53" height="5.25" transform="translate(-14.55 1.36) rotate(-3.08)"/><rect class="cls-3" x="38.18" y="253.09" width="0.75" height="15.45" transform="translate(-13.98 2.45) rotate(-3.08)"/><polygon class="cls-3" points="45.71 267.58 44.73 267.73 43.89 252.23 44.88 252.18 45.71 267.58"/><polygon class="cls-3" points="42.34 268.07 41.54 268.19 40.69 252.4 41.49 252.36 42.34 268.07"/><polygon class="cls-3" points="54.6 266.3 53.76 266.42 52.98 251.98 53.83 251.93 54.6 266.3"/><polygon class="cls-3" points="63.58 264.99 62.74 265.11 62.02 251.77 62.87 251.73 63.58 264.99"/><polygon class="cls-2" points="139.85 253.93 139.19 254.02 138.91 248.82 139.57 248.78 139.85 253.93"/><polygon class="cls-2" points="131.89 255.08 131.24 255.18 130.92 249.25 131.58 249.21 131.89 255.08"/><polygon class="cls-2" points="123.94 256.24 123.28 256.33 122.92 249.68 123.58 249.64 123.94 256.24"/><polygon class="cls-2" points="114.66 257.58 114 257.68 113.58 249.86 114.24 249.82 114.66 257.58"/><polygon class="cls-2" points="106.75 258.73 106.09 258.82 105.62 250.05 106.28 250.01 106.75 258.73"/><polygon class="cls-2" points="98.39 259.94 97.73 260.04 97.22 250.5 97.88 250.46 98.39 259.94"/><polygon class="cls-2" points="90.3 261.12 89.64 261.21 89.08 250.69 89.74 250.66 90.3 261.12"/><polygon class="cls-2" points="81.08 262.45 80.43 262.55 79.8 250.95 80.46 250.92 81.08 262.45"/><polygon class="cls-3" points="72.52 263.69 71.68 263.82 70.95 250.39 71.8 250.35 72.52 263.69"/><rect class="cls-2" x="134.05" y="226.53" width="0.76" height="17.53" transform="translate(-12.47 7.57) rotate(-3.08)"/><rect class="cls-2" x="125.96" y="228.45" width="0.76" height="16.04" transform="translate(-12.54 7.14) rotate(-3.08)"/><rect class="cls-2" x="118.11" y="230.14" width="0.88" height="14.08" transform="translate(-12.59 6.72) rotate(-3.08)"/><rect class="cls-2" x="110.14" y="231.26" width="0.88" height="14.08" transform="translate(-12.66 6.3) rotate(-3.08)"/><rect class="cls-2" x="101.93" y="232.01" width="0.88" height="14.08" transform="translate(-12.71 5.85) rotate(-3.08)"/><rect class="cls-2" x="93.68" y="232.98" width="0.88" height="14.08" transform="translate(-12.78 5.41) rotate(-3.08)"/><rect class="cls-2" x="85.28" y="233.43" width="0.88" height="14.08" transform="translate(-12.82 4.96) rotate(-3.08)"/><rect class="cls-2" x="77" y="237.19" width="0.88" height="8.78" transform="translate(-12.89 4.52) rotate(-3.08)"/><rect class="cls-2" x="68.55" y="239" width="0.88" height="8.78" transform="translate(-13 4.07) rotate(-3.08)"/><rect class="cls-2" x="59.91" y="240.3" width="0.88" height="8.78" transform="matrix(1, -0.05, 0.05, 1, -13.08, 3.6)"/><path class="cls-3" d="M9.25,268.82l0,.85,4.7.88s11.69-5,15.1-9.22,2.16-7.64,2.16-7.64-12.52-5.68-18-5.09C11.07,249.31,9,250,9,250v.82a35.83,35.83,0,0,1,5.17,1c2.54.72,9.79,3.42,9.16,6.22S19.57,264.43,9.25,268.82Z"/><path class="cls-5" d="M9.43,249.9s13.4,2.3,14.11,6.24c.39,2.28-.34,3.88-2.38,5.95s-6.12,4.47-10.89,6.64c3.33.5,4.06.64,4.06.64s10.78-4.43,14.08-8.39c2.36-3.22,2.22-5.62.59-6.89-2-2.22-6.87-3.39-6.87-3.39l-8.91-2.1Z"/><polygon class="cls-3" points="33.43 254.16 36.86 253.98 37.7 269.4 35.31 270.66 33.43 254.16"/><path class="cls-2" d="M429.31,229.09s10.05-6.52,8.22-13.65-11.07-14.76-17.33-16.31-7.56,7.73-7.56,7.73l-24.17,16.48,6,3Z"/><polygon class="cls-4" points="198.29 231.2 203.36 231.66 203.22 228.96 200.72 229.45 198.29 231.2"/><path class="cls-4" d="M196.05,238.45s-1.15-4.1,1-6.46c-.77.19-2.25,2.28-2.25,2.28l-.77,2.9.26.84Z"/><polygon class="cls-4" points="212.51 233.36 216.32 234 216.19 231.55 213.84 231.96 212.51 233.36"/><path class="cls-4" d="M209,241.38l2.34.07s-2.81-3.38,1.21-8.08c-.49-.23-1.64.73-1.64.73l-1.57,3.42-.41,2.61Z"/><path class="cls-2" d="M244.2,245.13l1-1.21a10,10,0,0,1,.48-6.38c.13-1.13-1.06.65-1.06.65l-1.17,3.52.11,2.07Z"/><polygon class="cls-3" points="230.67 231.74 230.72 233.46 231.46 233.42 231.37 231.71 230.67 231.74"/><path class="cls-4" d="M226.65,244.09l1-.76s-1.67-2.09-.3-5.52a6,6,0,0,1,5.11-3.55l-.07-1.32-1.69.52L228,235.32l-2.36,2.9-.53,3.11.6,1.8Z"/><polygon class="cls-4" points="249.12 234.18 249.3 237.52 245.69 237.53 246.61 235.78 248.07 234.56 249.12 234.18"/><polygon class="cls-4" points="266.86 235.69 267.05 239.19 264.58 239.5 265.67 236.72 266.86 235.69"/><polygon class="cls-4" points="285.7 235.76 285.9 239.43 285 239.47 285.22 236.81 285.7 235.76"/><polygon class="cls-4" points="166.37 221.95 172.31 220.74 172.36 225.47 166.37 221.95"/><polygon class="cls-4" points="164.92 218.05 165.13 221.97 159.4 219.3 164.92 218.05"/><polygon class="cls-4" points="153.84 216.12 160.06 215.41 158.89 219.04 153.53 216.26 153.84 216.12"/><polygon class="cls-4" points="149.69 213.11 155.15 212.82 156.29 213.96 153.31 215.4 149.69 213.11"/><polygon class="cls-4" points="147.34 210.05 152.25 209.92 153.6 211.66 149.5 212.75 147.34 210.05"/><polygon class="cls-4" points="146.36 207.28 149.64 207.11 150.74 209.33 146.82 208.4 146.36 207.28"/><polygon class="cls-4" points="303.15 236.61 303.31 239.58 304.85 239.5 304.52 237.16 303.15 236.61"/><polygon class="cls-4" points="182.97 235.52 181.44 234.99 181.26 233.84 182.73 231.05 182.97 235.52"/><path class="cls-4" d="M341.19,247.65l.26,24.06,1.51-.08,2.12-15.55,2.86-8.79-2.38.13a35.63,35.63,0,0,0-2.22,7.32l.11-7.73Z"/><path class="cls-4" d="M360.44,269.72,359,269l-.92-22.75,3-.16.31,5.74s1.51-5.69,3.34-7,2,.64,2,.64l-.33,1.51-1.71,3.5-1.91,5.77-1.21,5.32-.76,6.94Z"/><path class="cls-4" d="M373.88,243.65l.9,22.27,1.73,1.19.58-4.73,1.3-6.81,2.75-7.65,3.41-4.47-.1-1.77-2.55.47-1.38,1.14a36.48,36.48,0,0,0-3.38,7.5l-.39-7.3Z"/><path class="cls-3" d="M347.94,247.29s-6,9.61-5,24.35l1.36-.07a47.11,47.11,0,0,1,5.13-24.35Z"/><path class="cls-3" d="M369.08,244.59s-7.83,9.41-7.51,25.07l-1.13.06s-.49-14.68,6.91-25A1.34,1.34,0,0,1,369.08,244.59Z"/><path class="cls-3" d="M376.51,267.11l1.44-.08s-2.17-12.23,8.54-24.93c-.9-.56-1.91.47-1.91.47A36.5,36.5,0,0,0,376.51,267.11Z"/><path class="cls-6" d="M323.39,261.31s29.33-1.38,47.21-4.62c20.27-4,38.92-9.1,41.48-11.14s-.9,2.22-.9,2.22-16.72,7.31-46.16,11.85c-31.39,3.7-43.45,4.11-43.45,4.11Z"/><path class="cls-4" d="M183.73,237.71s8.8,4.11,9.75,21.83l-2.46.13-.19-1-1.21-6.12-2.54-6.19-3.13-4.87-3.18-3.44-.05-1Z"/><path class="cls-6" d="M321.72,266.51s29.74-.15,57.88-6.89c18.11-4.46,31.54-9,31.54-9l.08,1.43s-16.43,7.46-43.4,11.92A340.85,340.85,0,0,1,321,268.71Z"/><path class="cls-3" d="M180.06,237l0,.91s10,8.68,10.22,21.79l.68,0s.49-11.86-10.07-21.81l0-.9Z"/><path class="cls-4" d="M195.64,240.33s8.8,4.11,9.75,21.83l-3.29.18-.41-3.52-.93-4.41L198.61,249l-2.76-4.81-3.18-3.44-.05-1Z"/><path class="cls-3" d="M192,239.63l0,.91s9.14,8.73,9.4,21.83l.68,0a33.28,33.28,0,0,0-9.24-21.86l0-.9Z"/><path class="cls-4" d="M210.36,242.88s8.61,4.48,8.8,22.23l-3.3,0-.26-3.53-.73-4.45L213,251.63l-2.55-4.93-3-3.58v-1Z"/><path class="cls-3" d="M206.73,242v.91s8.75,9.11,8.44,22.22h.68a33.28,33.28,0,0,0-8.29-22.24V242Z"/><path class="cls-4" d="M226.65,244.09s7.27,10.83,9.27,22.42l-2.54.14L231,259.51l-3.06-6.83L225,246.6l-.71-2.39Z"/><path class="cls-3" d="M223.4,244.9s7.57,13.33,8.91,21.81l1.09-.06s-2.8-12.86-8.42-21.28C223.92,244.24,223.4,244.9,223.4,244.9Z"/><path class="cls-6" d="M189.55,245.06s39.95,8.45,60,9.24c6,4.1-1.45,3.34-1.45,3.34S201,251.2,189.68,247.59Z"/><path class="cls-6" d="M181.28,249.73s42.6,11.28,67.52,12.13c.35-1.7-.12-2.32-.12-2.32s-41.89-4.39-63.43-11.4Z"/><path class="cls-3" d="M429.4,211a11.4,11.4,0,0,1,7.67,6.38l-.22.57s-1.21-6.44-12.09-7.23l.11-.64Z"/><path class="cls-3" d="M425.35,207.88s7.08-.86,10.08,3.68a31.25,31.25,0,0,1,2.09,3.88s-1.22-4.45-3.12-5.76-5.21-2.73-10.42-2.77C424.26,207.54,425.35,207.88,425.35,207.88Z"/><polygon class="cls-4" points="322.11 237.48 322.19 238.94 325.14 239.07 325.05 237.28 322.11 237.48"/><path class="cls-3" d="M179.79,235.44s1-4,2.45-5.35a20.45,20.45,0,0,1,6.85-3.71,13,13,0,0,1,2.17-.12l.19,3.58-6.81.54-.72-.12a8.21,8.21,0,0,0-2.53,5.1C180.32,236,179.79,235.44,179.79,235.44Z"/><path class="cls-6" d="M179.88,251.2s42.83,12.5,69.81,13.45l.09,1.75A282.62,282.62,0,0,1,214,261.65c-18.81-3.8-34-8.13-34-8.13Z"/><polygon class="cls-4" points="263.86 247.98 266.35 247.85 268.87 257.37 265.97 257.2 263.86 247.98"/><polygon class="cls-4" points="303.48 248.74 304.09 259.97 305.17 257.71 306.21 248.6 303.48 248.74"/><path class="cls-4" d="M327,248s-3.58,11-3.26,20-1.66-8.28-1.66-8.28l.5-1.23.1-10.23Z"/><polygon class="cls-4" points="340.89 236.04 340.97 237.5 344.57 237.6 344.47 235.81 340.89 236.04"/><polygon class="cls-4" points="187.3 227.91 191.29 226.31 191.45 229.37 188.59 229.31 187.3 227.91"/><path class="cls-3" d="M324,258.34l.94,17.43s-.32,7.41-17.6,7.89-48.63-.89-48.63-.89-9.18.22-9.74-10.2l-.8-14.92,1.45-3.34Z"/><polygon class="cls-4" points="171.81 228.31 172.14 232.65 170.16 231.78 170.78 229.74 171.81 228.31"/><polygon class="cls-4" points="162.62 225.58 162.95 229.92 160.97 229.05 161.59 227.01 162.62 225.58"/><polygon class="cls-4" points="155.19 222.04 155.52 226.38 153.24 225.83 153.87 223.78 155.19 222.04"/><path class="cls-3" d="M153.52,226a6.87,6.87,0,0,1,1.82-3.94,3.16,3.16,0,0,0-1.23-.3,7.84,7.84,0,0,0-1.59,4C153.08,226.42,153.52,226,153.52,226Z"/><polygon class="cls-4" points="149.82 218.67 149.78 223.7 147.57 222.28 148.36 220.3 149.82 218.67"/><path class="cls-4" d="M167.19,239l2.32-.13s-3.23-5.71-5.38-7a11.15,11.15,0,0,0-3.72-1.56l.06,1.11,2.33,2.48,2.39,2.31Z"/><path class="cls-3" d="M147.84,222.44a6.87,6.87,0,0,1,2.15-3.77,3.16,3.16,0,0,0-1.2-.41,7.84,7.84,0,0,0-1.92,3.84C147.36,222.87,147.84,222.44,147.84,222.44Z"/><path class="cls-4" d="M141.37,216.69a6.85,6.85,0,0,1,1.68-3.94c.35,1.07.36.91.36.91a5,5,0,0,0-.61,3.3l-1.55.08Z"/><path class="cls-2" d="M167.19,239l-.36,0c-.85-2.28-6.83-7.55-6.83-7.55l-.06-1.15.48,0,.06,1.11S167,237,167.19,239Z"/><path class="cls-4" d="M140.32,213.92A6.85,6.85,0,0,1,142,210c.35,1.07.36.91.36.91a5,5,0,0,0-.61,3.3l-1.55.08Z"/><path class="cls-4" d="M146.59,224.49s8.4,6.45,9,11.89l3.52-.19-3.46-8.05-7.16-3.75Z"/><rect class="cls-6" x="178.36" y="235.96" width="0.33" height="12.72" transform="translate(60.9 -34.73) rotate(13.38)"/><path class="cls-4" d="M161.52,239.3l2.54-.14s-3.7-7.71-6.59-10.8a7.26,7.26,0,0,0-4.67-1.3l0,.89,4.48,4.91,2.93,4Z"/><path class="cls-2" d="M152.49,226.91l.06,1.06s7.42,7.11,8.7,11.35h.27a22,22,0,0,0-4-6.22c-2.87-3.41-4.67-5.14-4.67-5.14l0-.89Z"/><rect class="cls-6" x="167.18" y="233.43" width="0.33" height="12.72" transform="translate(60.02 -32.21) rotate(13.38)"/><rect class="cls-6" x="158.09" y="230.1" width="0.33" height="13.22" transform="translate(59.05 -30.19) rotate(13.38)"/><rect class="cls-6" x="150.65" y="226.82" width="0.33" height="14.02" transform="translate(58.19 -28.55) rotate(13.38)"/><polygon class="cls-4" points="408.25 220.77 408.75 223.96 416.22 222.45 409.65 220.69 408.25 220.77"/><polygon class="cls-4" points="415.73 217.68 415.89 220.59 422.99 219.28 422.96 218.69 421.04 218.18 419.07 217.65 416.81 217.23 415.73 217.68"/><polygon class="cls-4" points="436.61 214.49 435.43 214.56 434.74 212.73 434.87 211.16 436.34 212.93 436.61 214.49"/><polygon class="cls-4" points="436.81 218.21 434.51 218.34 434.32 214.74 434.96 214.58 435.77 215.36 436.52 216.77 436.81 218.21"/><polygon class="cls-4" points="434.67 222.16 432.36 222.28 432.16 218.58 433.11 218.14 434.21 220.13 434.67 222.16"/><polygon class="cls-4" points="430.02 226.07 427.84 226.19 427.64 222.54 428.59 222.08 429.23 223.29 429.98 225.28 430.02 226.07"/><polygon class="cls-4" points="422.6 229.45 420.42 229.57 420.22 225.92 421.16 225.46 421.81 226.67 422.56 228.66 422.6 229.45"/><path class="cls-4" d="M427.44,215.63,421.16,217l-.62-2.44,1.23-.84,2,.31s2.09.59,2.18.58,1.66.41,1.66.41Z"/><polygon class="cls-4" points="426.56 207.42 426.68 209.66 430.56 209.76 429.68 207.96 428.16 207.73 426.56 207.42"/><polygon class="cls-4" points="425.05 210.41 425.17 212.66 429.06 212.76 429.6 211.45 426.65 210.73 425.05 210.41"/><path class="cls-4" d="M140.59,210.31a6.43,6.43,0,0,1,1.11-2.78c.25,1.07.26.91.26.91s-.59,0-.41,2.16l-1,.06Z"/><polygon class="cls-4" points="180.49 224.03 180.65 227 176.44 225.74 177 224.78 178.82 224.12 180.49 224.03"/><ellipse class="cls-3" cx="287.11" cy="204.98" rx="28.67" ry="138.9" transform="translate(77.81 488.95) rotate(-89.13)"/><path class="cls-3" d="M311.47,267l-55.26-3.49a7.3,7.3,0,0,1-6.72-7.8l.11-1.44,74,2.91.43,1.13C322.55,261.45,315.46,267.33,311.47,267Z"/><path class="cls-3" d="M407.23,245.55l.82,15.23s25.27,5.1,32-.61,10.95-9.73,11-11.29-.7-13-.7-13,.59-3.49-8.74-4.88-12.25-1.9-12.25-1.9Z"/><path class="cls-3" d="M421.31,213.45a27.91,27.91,0,0,1,9.57,2.64c3.23,1.44,4.34,5.59,4.34,5.59l-.56.49s-.85-4-3.75-5.49a29.54,29.54,0,0,0-10.19-2.81C420.41,213.73,421.31,213.45,421.31,213.45Z"/><path class="cls-3" d="M415.9,217.22s-.64,0,.36-.35c5.87,1.17,7.66,1.57,10.48,3s3.77,5.79,3.77,5.79l-.49.36s-1.35-5.21-4.5-6.21A49.12,49.12,0,0,0,415.9,217.22Z"/><path class="cls-3" d="M408.84,220s7.07.89,11.5,4.08c3.19,3.11,2.85,5.79,2.85,5.79l-.72.39a7.58,7.58,0,0,0-4.33-6.81,45.64,45.64,0,0,0-11.06-2.91Z"/><path class="cls-3" d="M413.45,233a10.46,10.46,0,0,0-4.14-6.45c-3.43-2.22-9.86-3.85-9.86-3.85l-1.22.5s7.26,1.85,10.11,4a9.53,9.53,0,0,1,4,6.4C412.57,235.4,413.45,233,413.45,233Z"/><path class="cls-3" d="M387.35,225.62s13.1,2.37,13.47,11.09c-1.26.74-1.51.56-1.51.56a6.36,6.36,0,0,0-1.51-4.77c-1.89-2.11-3.89-4.35-11.68-6.38C384.48,225.77,387.35,225.62,387.35,225.62Z"/><path class="cls-3" d="M370.66,228.77s7.59,1.8,11,5.27c1.92,1.82,2.57,6.68,2.57,6.68l1.63-.09s-.45-4.73-2.88-7.1-8.63-5.06-10.57-5.34S370.66,228.77,370.66,228.77Z"/><path class="cls-3" d="M368.34,242.83s-.39-4.59-2.85-7.44c-3.1-2.84-8.58-4.88-8.58-4.88l-2.66.14s7.65,1.59,10.61,6.77a10.73,10.73,0,0,1,1.74,6.12Z"/><path class="cls-3" d="M348.86,244.5s-.32-5.13-2.21-7.25a17.89,17.89,0,0,0-3.52-3.12l-.05-.95-2.66.14.48,2.94s3.43-.08,4.37,1.65a16.89,16.89,0,0,1,1.91,7C348.46,245.35,348.86,244.5,348.86,244.5Z"/><path class="cls-3" d="M322,235.12l.13,2.36s2.32-.9,3.21,2.09c.51,1.6.62,2.59.9,6.65,1.6,1.26,2.27.17,2.27.17a24.28,24.28,0,0,0-1.11-6.3c-.93-2.32-2.77-5-3.38-5.09,0-.79-.17-1.57-.17-1.57l-1.06.06.09,1.58Z"/><path class="cls-3" d="M303.11,235.75l1.81-.1a34,34,0,0,1,1.68,7.6l.2,3.76-2,.11s-.28-7.93-.77-9a8.29,8.29,0,0,0-.92-1.55Z"/><polygon class="cls-3" points="303.66 234.66 303.74 236.15 304.47 236.11 304.38 234.48 303.66 234.66"/><path class="cls-3" d="M285.7,235.76l-1.81.1a43.5,43.5,0,0,0-.75,8.22l.2,3.76,2-.11s-.57-7.91-.19-9a11.62,11.62,0,0,0,.51-2Z"/><polygon class="cls-3" points="285.11 234.85 285.19 236.33 284.47 236.37 284.38 234.74 285.11 234.85"/><path class="cls-3" d="M266.86,235.68s-2.81,1.71-2.68,11l-1.66.09s-.25-5.74.75-7.89a37.16,37.16,0,0,1,1.73-3.37l1.84-.21Z"/><polygon class="cls-3" points="266.06 234.23 266.14 235.58 265.35 235.62 265.27 234.17 266.06 234.23"/><path class="cls-3" d="M244.2,245.13s-1-6.77,4.42-10.42c.64-.38.49-.52.49-.52l-2,.11a9.53,9.53,0,0,0-3.47,4.24,16.19,16.19,0,0,0-1.18,6.61Z"/><rect class="cls-3" x="247.75" y="233.42" width="0.6" height="1.32" transform="translate(-12.24 13.69) rotate(-3.08)"/><path class="cls-3" d="M223.87,243.21s0-4.26,1.85-6.62a13.48,13.48,0,0,1,4.59-3.54l2.1-.11s-4.08,1.73-5.88,5.22a5.56,5.56,0,0,0,.12,5.93Z"/><path class="cls-3" d="M209,241.38s1.3-7,4.24-8.49a18.81,18.81,0,0,1,3-1.33l0-.58-1.48.08s-3.91,1.34-5.42,4.43a12,12,0,0,0-1.44,5.15Z"/><polygon class="cls-3" points="214.99 229.55 215.09 231.45 216.18 231.39 216.09 229.64 214.99 229.55"/><path class="cls-3" d="M194.32,238s.48-3.62,2.07-5.39,6.84-3.66,6.84-3.66l-2.46.13a15.26,15.26,0,0,0-4.42,2.13A10.9,10.9,0,0,0,193,237.9C194,238.35,194.32,238,194.32,238Z"/><polygon class="cls-3" points="201.37 227.13 201.49 229.3 202.26 229.26 202.14 227.17 201.37 227.13"/><polygon class="cls-3" points="189.48 225.42 189.54 226.64 190.02 226.61 189.94 225.28 189.48 225.42"/><path class="cls-3" d="M169.47,231.82a13.08,13.08,0,0,1,1.5-4A19.38,19.38,0,0,1,174.3,225s4-1.6,5.1-1.28l1.08-.06,0,.33a11.82,11.82,0,0,0-4.3,1.59c-2.6,1.45-4,2.31-4.48,3a20.3,20.3,0,0,0-1.14,3.72Z"/><rect class="cls-3" x="179.04" y="222.88" width="0.45" height="1.13" transform="translate(-11.76 9.97) rotate(-3.08)"/><path class="cls-3" d="M161.25,229.19a6.87,6.87,0,0,1,1.82-3.94,3.16,3.16,0,0,0-1.23-.3,7.84,7.84,0,0,0-1.59,4C160.81,229.65,161.25,229.19,161.25,229.19Z"/><rect class="cls-5" x="16.73" y="255.33" width="2.79" height="10.14" transform="translate(-13.99 1.35) rotate(-3.08)"/><rect class="cls-5" x="15.98" y="241.4" width="3.62" height="9.85" transform="translate(-13.23 1.31) rotate(-3.08)"/><rect class="cls-5" x="20.52" y="242.15" width="1.03" height="9.87" transform="translate(-13.26 1.49) rotate(-3.08)"/><path class="cls-3" d="M328.59,248.28s-3.89,13.89-3.84,24.34c-5.12-.53-.64-11.29-.64-11.29s1.07-8.44,2.91-13.37C328.55,247.6,328.59,248.28,328.59,248.28Z"/><rect class="cls-5" x="23.05" y="242.91" width="1.09" height="8.03" transform="translate(-13.25 1.63) rotate(-3.08)"/><rect class="cls-5" x="24.75" y="244.72" width="0.76" height="4.1" transform="translate(-13.24 1.71) rotate(-3.08)"/><rect class="cls-5" x="32.92" y="255.29" width="1.98" height="15.44" transform="translate(-14.1 2.21) rotate(-3.08)"/><polygon class="cls-5" points="16.46 255.41 18.09 254.42 18.29 255.8 16.9 255.87 16.46 255.41"/><polygon class="cls-3" points="21.53 270.31 19.72 271.5 18.87 255.77 20.74 255.67 21.53 270.31"/><rect class="cls-2" x="141.9" y="224.73" width="0.85" height="19.67" transform="translate(-12.42 8) rotate(-3.08)"/><path class="cls-5" d="M17.31,239.86l.08,1.55s17.74,3.18.7,13l.13,2.45,14.28.25L38,253.35l6.15-.84L147.86,249l17.57-1.57-9-3.18-8.24-2.35-4.62,1-90.85,2.94,88.93-20.41,7.72-.82-6-5.22-5.91.89L40.67,241.75s-2.65-3.51-11.42-5.5C23.48,237.83,17.31,239.86,17.31,239.86Z"/><path class="cls-6" d="M20,240.45s16.37,5-.84,13.87c9.5.14,13.06.25,13.06.25l5.36-3.6,6.84-.37L147,247.13,158.36,245,148,242.62l-4.28,1.1L42.1,247.34l0-1.48L143,223.16,140,220.85,40.85,243.18a22.61,22.61,0,0,0-11.34-5.39c-3.89,1-9.47,2.65-9.47,2.65Z"/><path class="cls-3" d="M152.83,241.59c7.87,2.75,18.41,6.11,23.77,6.39a1.47,1.47,0,0,0,.59-.09c4.23-1.55,9.1-2.84,10.18-3.09a1.19,1.19,0,0,1,1.45.46h0c.48,1,.4,1.92-.52,2.32L182,249.82l-.17.06L177,251.27a1.43,1.43,0,0,1-.68,0c-2.77-.54-21.69-4.34-30-9.44-9-5.52-9-15.51-9-15.51l1,2.56A25.58,25.58,0,0,0,152.83,241.59Z"/><polygon class="cls-5" points="19.72 271.5 17.69 270.95 17.44 266.19 19.42 266.08 19.72 271.5"/><rect class="cls-3" x="13.31" y="270.23" width="0.5" height="3.11" transform="translate(-14.6 1.12) rotate(-3.08)"/><polygon class="cls-5" points="15.71 241.5 17.69 240.83 17.75 242.07 16.78 242.66 15.71 241.5"/><polygon class="cls-3" points="261.94 248.09 264.4 256.56 266.25 256.46 263.86 247.98 261.94 248.09"/><polygon class="cls-3" points="283.35 247.84 284.29 258.31 286.01 258.21 284.9 248.71 283.35 247.84"/><polygon class="cls-3" points="305.37 249.12 304.35 258.87 306.27 258.77 306.91 249.04 305.37 249.12"/><path class="cls-1" d="M272.35,283.27l-13.66-.5s-9.17.48-9.74-10.2l-.19-3.44h1.38s-.29,5.91,4.46,7.29,17.5,2.26,17.5,2.26Z"/><path class="cls-1" d="M251.65,269.35l.13,2.37s1.69,2.43,16,3.69,40.77,3.32,40.77,3.32,8.31.15,11-3.47l3.2-4.31-.12-2.21L319,272.93s-2.71,3.28-10.61,2.87-49.86-4.08-49.86-4.08S252.68,270.57,251.65,269.35Z"/><path class="cls-1" d="M322.81,262.08l0,3.31-3.43,3.95s-1.55,3.51-12.35,3.16c-8.77-.46-34.83-2.53-34.83-2.53l-13.75-1.6s-6.58-1-7-3.58c0,0,3.51,1.67,12.1,2.16S301,269.3,301,269.3s11,1.32,14.95-.63S322.81,262.08,322.81,262.08Z"/><path class="cls-1" d="M407.3,247.6l.18,3.26,17.17,1.42s10.7,1.86,16.87-4.11c5.75-5.55,7.57-7.37,7.57-7.37l-.11-2-9.65,8.55s-4.19,2.93-12.55,2.24S407.3,247.6,407.3,247.6Z"/><path class="cls-1" d="M407.67,253.72l.16,3L428.36,258s7.9.28,11.69-3.27,9.27-9.38,9.27-9.38l-.11-2.29s-6.64,7.76-9.59,9.65-4.15,2.13-6.39,2.34S407.67,253.72,407.67,253.72Z"/><path class="cls-3" d="M289.14,180c-82.33-1.25-149.31,13.35-149.6,32.59s66.22,35.86,148.55,37.1,149.31-13.35,149.6-32.59S371.47,181.25,289.14,180Zm147.34,36.23c-.27,17.63-66.83,30.91-148.68,29.67s-148-16.53-147.71-34.15,66.83-30.91,148.68-29.67S436.74,198.6,436.47,216.23Z"/><path class="cls-3" d="M420.56,214.88s-6.75,7.06-36.52,12.59a477.73,477.73,0,0,1-83.69,7.86,611.33,611.33,0,0,1-64.75-2.6c-26.48-2.28-64.16-9.2-77.53-17.33s-9.84-12.53-9.84-12.53Z"/><path class="cls-3" d="M421.53,199.69c4.68,3.18,8.07,6.5,8,10-.26,17.22-63.75,30.23-141.81,29s-141.12-16.1-140.86-33.32c.05-3.34,2.49-6.52,6.94-9.47-7.94,3.83-12.39,8.13-12.46,12.71-.13,8.74,15.63,16.92,41.33,23.11,26.59,6.41,63.82,10.7,105.07,11.33,81.12,1.23,147.1-12.2,147.37-30C435.21,208.35,429.78,203.86,421.53,199.69Z"/><ellipse class="cls-7" cx="286.02" cy="205.03" rx="27.25" ry="134.1" transform="translate(76.69 487.92) rotate(-89.13)"/><ellipse class="cls-6" cx="280.63" cy="196.08" rx="17.29" ry="87.06" transform="translate(80.32 473.71) rotate(-89.13)"/><ellipse class="cls-3" cx="280.18" cy="197.12" rx="13.82" ry="65.92" transform="translate(75.94 472.16) rotate(-88.53)"/><ellipse class="cls-4" cx="279.85" cy="196.78" rx="12.76" ry="64.04" transform="translate(75.96 471.49) rotate(-88.53)"/></svg>