<svg id="Layer_1" data-name="Layer 1" xmlns="http://www.w3.org/2000/svg" xmlns:xlink="http://www.w3.org/1999/xlink" viewBox="0 0 460 460"><defs><style>.cls-1,.cls-20{fill:#ebb162;}.cls-2{fill:#ad4d4d;}.cls-3{fill:#f3eaae;}.cls-4{fill:url(#linear-gradient);}.cls-5{fill:#8a0000;}.cls-6{fill:url(#linear-gradient-2);}.cls-7{fill:url(#linear-gradient-3);}.cls-8{fill:url(#linear-gradient-4);}.cls-9{fill:url(#linear-gradient-5);}.cls-10{fill:#f1e6a0;}.cls-11{fill:#84e895;}.cls-12{fill:url(#linear-gradient-6);}.cls-13{fill:url(#linear-gradient-7);}.cls-14{fill:url(#linear-gradient-8);}.cls-15{fill:url(#linear-gradient-9);}.cls-16{fill:#95eba4;}.cls-17{fill:url(#linear-gradient-10);}.cls-18{fill:url(#linear-gradient-11);}.cls-19{fill:url(#linear-gradient-12);}.cls-20{opacity:0.75;}.cls-21{fill:url(#linear-gradient-13);}.cls-22{fill:url(#linear-gradient-14);}.cls-23{fill:url(#linear-gradient-15);}.cls-24{fill:url(#linear-gradient-16);}.cls-25{fill:url(#linear-gradient-17);}.cls-26{fill:url(#linear-gradient-18);}.cls-27{fill:url(#linear-gradient-19);}.cls-28{fill:url(#linear-gradient-20);}.cls-29{fill:url(#linear-gradient-21);}.cls-30{fill:url(#linear-gradient-22);}.cls-31{fill:url(#linear-gradient-23);}.cls-32{fill:url(#linear-gradient-24);}.cls-33{fill:url(#linear-gradient-25);}.cls-34{fill:url(#linear-gradient-26);}.cls-35{fill:url(#linear-gradient-27);}.cls-36{fill:url(#linear-gradient-28);}.cls-37{fill:url(#linear-gradient-29);}.cls-38{fill:url(#linear-gradient-30);}.cls-39{fill:url(#linear-gradient-31);}.cls-40{fill:url(#linear-gradient-32);}.cls-41{fill:url(#linear-gradient-33);}</style><linearGradient id="linear-gradient" x1="-135.08" y1="185.05" x2="-137.9" y2="184.56" gradientTransform="matrix(-1, 0, 0, 1, 89.97, 0)" gradientUnits="userSpaceOnUse"><stop offset="0" stop-color="#ad4d4d" stop-opacity="0"/><stop offset="0.14" stop-color="#ab4a4a" stop-opacity="0.04"/><stop offset="0.32" stop-color="#a74040" stop-opacity="0.17"/><stop offset="0.53" stop-color="#a03030" stop-opacity="0.37"/><stop offset="0.77" stop-color="#961a1a" stop-opacity="0.66"/><stop offset="1" stop-color="#8a0000"/></linearGradient><linearGradient id="linear-gradient-2" x1="-108.12" y1="185.05" x2="-110.93" y2="184.56" xlink:href="#linear-gradient"/><linearGradient id="linear-gradient-3" x1="-80.28" y1="185.05" x2="-83.1" y2="184.56" xlink:href="#linear-gradient"/><linearGradient id="linear-gradient-4" x1="-190.75" y1="185.05" x2="-193.56" y2="184.56" xlink:href="#linear-gradient"/><linearGradient id="linear-gradient-5" x1="-162.92" y1="185.05" x2="-165.73" y2="184.56" xlink:href="#linear-gradient"/><linearGradient id="linear-gradient-6" x1="-233.79" y1="219.92" x2="-233.79" y2="213.19" gradientTransform="matrix(1, 0, 0, -1, 393.96, 433.12)" gradientUnits="userSpaceOnUse"><stop offset="0.32" stop-color="#f1e6a0" stop-opacity="0"/><stop offset="0.47" stop-color="#f0e6a0" stop-opacity="0.01"/><stop offset="0.56" stop-color="#ede6a0" stop-opacity="0.05"/><stop offset="0.64" stop-color="#e7e7a0" stop-opacity="0.11"/><stop offset="0.71" stop-color="#dee7a1" stop-opacity="0.2"/><stop offset="0.78" stop-color="#d4e8a1" stop-opacity="0.32"/><stop offset="0.84" stop-color="#c6e8a2" stop-opacity="0.46"/><stop offset="0.9" stop-color="#b7e9a3" stop-opacity="0.63"/><stop offset="0.96" stop-color="#a5eaa3" stop-opacity="0.82"/><stop offset="1" stop-color="#95eba4"/></linearGradient><linearGradient id="linear-gradient-7" x1="-235.12" y1="222.75" x2="-241.39" y2="219.13" gradientTransform="matrix(-1, 0, 0, 1, -73.61, 0)" gradientUnits="userSpaceOnUse"><stop offset="0" stop-color="#8a0000" stop-opacity="0"/><stop offset="0.42" stop-color="#b76547" stop-opacity="0.44"/><stop offset="0.82" stop-color="#e1c287" stop-opacity="0.84"/><stop offset="1" stop-color="#f1e6a0"/></linearGradient><linearGradient id="linear-gradient-8" x1="300.61" y1="220.08" x2="300.61" y2="213.35" gradientTransform="matrix(1, 0, 0, 1, 0, 0)" xlink:href="#linear-gradient-6"/><linearGradient id="linear-gradient-9" x1="299.28" y1="222.9" x2="293" y2="219.28" gradientTransform="matrix(1, 0, 0, 1, 0, 0)" xlink:href="#linear-gradient-7"/><linearGradient id="linear-gradient-10" x1="435.02" y1="318.49" x2="435.02" y2="328.39" gradientUnits="userSpaceOnUse"><stop offset="0.48" stop-color="#ebb162" stop-opacity="0"/><stop offset="1" stop-color="#8a0000"/></linearGradient><linearGradient id="linear-gradient-11" x1="-195.97" y1="-1198.45" x2="-195.97" y2="-1188.54" gradientTransform="translate(630.99 1516.94)" gradientUnits="userSpaceOnUse"><stop offset="0.69" stop-color="#ebb162" stop-opacity="0"/><stop offset="0.8" stop-color="#e9ae60" stop-opacity="0.02"/><stop offset="0.85" stop-color="#e4a55b" stop-opacity="0.07"/><stop offset="0.88" stop-color="#db9452" stop-opacity="0.16"/><stop offset="0.92" stop-color="#ce7d45" stop-opacity="0.3"/><stop offset="0.95" stop-color="#be5e34" stop-opacity="0.47"/><stop offset="0.97" stop-color="#a9381f" stop-opacity="0.68"/><stop offset="0.99" stop-color="#910d07" stop-opacity="0.93"/><stop offset="1" stop-color="#8a0000"/></linearGradient><linearGradient id="linear-gradient-12" x1="-195.97" y1="-1169.48" x2="-195.97" y2="-1159.58" gradientTransform="translate(630.99 1459.01)" gradientUnits="userSpaceOnUse"><stop offset="0" stop-color="#ebb162" stop-opacity="0"/><stop offset="0.21" stop-color="#e9ad60" stop-opacity="0.02"/><stop offset="0.37" stop-color="#e2a058" stop-opacity="0.1"/><stop offset="0.53" stop-color="#d68a4c" stop-opacity="0.22"/><stop offset="0.68" stop-color="#c56b3b" stop-opacity="0.4"/><stop offset="0.82" stop-color="#af4325" stop-opacity="0.62"/><stop offset="0.95" stop-color="#94130a" stop-opacity="0.89"/><stop offset="1" stop-color="#8a0000"/></linearGradient><linearGradient id="linear-gradient-13" x1="435.02" y1="328.39" x2="435.02" y2="330.13" gradientUnits="userSpaceOnUse"><stop offset="0.48" stop-color="#ad4d4d" stop-opacity="0"/><stop offset="1" stop-color="#8a0000"/></linearGradient><linearGradient id="linear-gradient-14" x1="395.88" y1="318.49" x2="395.88" y2="328.39" xlink:href="#linear-gradient-10"/><linearGradient id="linear-gradient-15" x1="-156.82" y1="-1198.45" x2="-156.82" y2="-1188.54" gradientTransform="translate(552.7 1516.94)" xlink:href="#linear-gradient-11"/><linearGradient id="linear-gradient-16" x1="395.88" y1="328.39" x2="395.88" y2="330.13" xlink:href="#linear-gradient-13"/><linearGradient id="linear-gradient-17" x1="382.58" y1="208.17" x2="377.43" y2="207.26" gradientUnits="userSpaceOnUse"><stop offset="0" stop-color="#8a0000" stop-opacity="0"/><stop offset="0.29" stop-color="#8b0202" stop-opacity="0.01"/><stop offset="0.43" stop-color="#8e0907" stop-opacity="0.04"/><stop offset="0.54" stop-color="#941610" stop-opacity="0.09"/><stop offset="0.63" stop-color="#9c281e" stop-opacity="0.17"/><stop offset="0.71" stop-color="#a63f2f" stop-opacity="0.27"/><stop offset="0.78" stop-color="#b35b44" stop-opacity="0.39"/><stop offset="0.85" stop-color="#c27d5d" stop-opacity="0.54"/><stop offset="0.91" stop-color="#d4a57b" stop-opacity="0.7"/><stop offset="0.97" stop-color="#e7d09b" stop-opacity="0.89"/><stop offset="1" stop-color="#f3eaae"/></linearGradient><linearGradient id="linear-gradient-18" x1="382.58" y1="208.17" x2="377.43" y2="207.26" gradientTransform="matrix(1, 0, 0, 1, 0, 0)" xlink:href="#linear-gradient"/><linearGradient id="linear-gradient-19" x1="341.96" y1="208.17" x2="336.81" y2="207.26" gradientTransform="matrix(1, 0, 0, 1, 0, 0)" xlink:href="#linear-gradient"/><linearGradient id="linear-gradient-20" x1="62.97" y1="318.49" x2="62.97" y2="328.39" gradientTransform="matrix(1, 0, 0, -1, -35.97, 646.89)" xlink:href="#linear-gradient-10"/><linearGradient id="linear-gradient-21" x1="176.09" y1="-1198.45" x2="176.09" y2="-1188.54" gradientTransform="matrix(1, 0, 0, -1, -149.08, -870.05)" xlink:href="#linear-gradient-11"/><linearGradient id="linear-gradient-22" x1="176.09" y1="-1169.48" x2="176.09" y2="-1159.58" gradientTransform="matrix(1, 0, 0, -1, -149.08, -870.05)" xlink:href="#linear-gradient-12"/><linearGradient id="linear-gradient-23" x1="62.97" y1="328.39" x2="62.97" y2="330.13" gradientTransform="matrix(-1, 0, 0, 1, 89.97, 0)" xlink:href="#linear-gradient-13"/><linearGradient id="linear-gradient-24" x1="23.83" y1="318.49" x2="23.83" y2="328.39" gradientTransform="matrix(1, 0, 0, -1, 42.32, 646.89)" xlink:href="#linear-gradient-10"/><linearGradient id="linear-gradient-25" x1="215.23" y1="-1198.45" x2="215.23" y2="-1188.54" gradientTransform="matrix(1, 0, 0, -1, -149.08, -870.05)" xlink:href="#linear-gradient-11"/><linearGradient id="linear-gradient-26" x1="23.83" y1="328.39" x2="23.83" y2="330.13" gradientTransform="matrix(-1, 0, 0, 1, 89.97, 0)" xlink:href="#linear-gradient-13"/><linearGradient id="linear-gradient-27" x1="10.53" y1="208.17" x2="5.38" y2="207.26" gradientTransform="matrix(-1, 0, 0, 1, 89.97, 0)" xlink:href="#linear-gradient-17"/><linearGradient id="linear-gradient-28" x1="10.53" y1="208.17" x2="5.38" y2="207.26" xlink:href="#linear-gradient"/><linearGradient id="linear-gradient-29" x1="-30.09" y1="208.17" x2="-35.24" y2="207.26" xlink:href="#linear-gradient"/><linearGradient id="linear-gradient-30" x1="236.51" y1="308.55" x2="236.51" y2="306.93" gradientUnits="userSpaceOnUse"><stop offset="0" stop-color="#ad4d4d" stop-opacity="0"/><stop offset="0.16" stop-color="#ae4f4e" stop-opacity="0.01"/><stop offset="0.29" stop-color="#b15652" stop-opacity="0.06"/><stop offset="0.41" stop-color="#b66159" stop-opacity="0.13"/><stop offset="0.53" stop-color="#bd7163" stop-opacity="0.23"/><stop offset="0.64" stop-color="#c68570" stop-opacity="0.36"/><stop offset="0.75" stop-color="#d19e7f" stop-opacity="0.52"/><stop offset="0.86" stop-color="#debb91" stop-opacity="0.7"/><stop offset="0.96" stop-color="#eddda6" stop-opacity="0.92"/><stop offset="1" stop-color="#f3eaae"/></linearGradient><linearGradient id="linear-gradient-31" x1="246.08" y1="308.55" x2="246.08" y2="306.93" xlink:href="#linear-gradient-30"/><linearGradient id="linear-gradient-32" x1="211.29" y1="308.55" x2="211.29" y2="306.93" xlink:href="#linear-gradient-30"/><linearGradient id="linear-gradient-33" x1="220.86" y1="308.55" x2="220.86" y2="306.93" xlink:href="#linear-gradient-30"/></defs><title>rome</title><rect class="cls-1" x="160.82" y="157.11" width="139.19" height="70.72"/><rect class="cls-2" x="225.37" y="177.18" width="8.95" height="14.3" transform="translate(459.7 368.67) rotate(-180)"/><rect class="cls-1" x="226.86" y="178.86" width="6.16" height="12.62" transform="translate(459.89 370.34) rotate(-180)"/><polygon class="cls-2" points="226.86 178.86 233.03 178.86 233.41 178.11 226.19 178.11 226.86 178.86"/><path class="cls-3" d="M230.74,179.61a.34.34,0,0,1,.31-.23c.24,0,.21.18.41.18s.17-.18.41-.18a.34.34,0,0,1,.31.24h.41V191h-.41a.33.33,0,0,1-.31.19c-.24,0-.21-.21-.41-.21s-.17.21-.41.21a.33.33,0,0,1-.31-.19h-.48v-11.4Z"/><path class="cls-3" d="M227.77,179.61a.34.34,0,0,1,.31-.23c.24,0,.21.18.41.18s.17-.18.41-.18a.34.34,0,0,1,.31.24h.41V191h-.41a.33.33,0,0,1-.31.19c-.24,0-.21-.21-.41-.21s-.17.21-.41.21a.33.33,0,0,1-.31-.19h-.48v-11.4Z"/><polygon class="cls-2" points="226.19 178.11 226.19 191.48 226.86 191.48 226.86 178.86 226.19 178.11"/><polygon class="cls-4" points="226.19 178.11 226.19 191.48 226.86 191.48 226.86 178.86 226.19 178.11"/><ellipse class="cls-2" cx="229.85" cy="171.19" rx="5.07" ry="6.7"/><ellipse class="cls-5" cx="229.7" cy="170.33" rx="3.75" ry="5.11"/><rect class="cls-2" x="224.93" y="191.48" width="9.84" height="1.65"/><rect class="cls-3" x="224.93" y="193.14" width="9.84" height="0.79"/><rect class="cls-2" x="198.41" y="177.18" width="8.95" height="14.3" transform="translate(405.77 368.67) rotate(-180)"/><rect class="cls-1" x="199.9" y="178.86" width="6.16" height="12.62" transform="translate(405.96 370.34) rotate(-180)"/><polygon class="cls-2" points="199.9 178.86 206.06 178.86 206.44 178.11 199.22 178.11 199.9 178.86"/><path class="cls-3" d="M203.77,179.61a.34.34,0,0,1,.31-.23c.24,0,.21.18.41.18s.17-.18.41-.18a.34.34,0,0,1,.31.24h.41V191h-.41a.33.33,0,0,1-.31.19c-.24,0-.21-.21-.41-.21s-.17.21-.41.21a.33.33,0,0,1-.31-.19h-.48v-11.4Z"/><path class="cls-3" d="M200.8,179.61a.34.34,0,0,1,.31-.23c.24,0,.21.18.41.18s.17-.18.41-.18a.34.34,0,0,1,.31.24h.41V191h-.41a.33.33,0,0,1-.31.19c-.24,0-.21-.21-.41-.21s-.17.21-.41.21a.33.33,0,0,1-.31-.19h-.48v-11.4Z"/><polygon class="cls-2" points="199.22 178.11 199.22 191.48 199.9 191.48 199.9 178.86 199.22 178.11"/><polygon class="cls-6" points="199.22 178.11 199.22 191.48 199.9 191.48 199.9 178.86 199.22 178.11"/><ellipse class="cls-2" cx="202.88" cy="171.19" rx="5.07" ry="6.7"/><ellipse class="cls-5" cx="202.74" cy="170.33" rx="3.75" ry="5.11"/><rect class="cls-2" x="197.97" y="191.48" width="9.84" height="1.65"/><rect class="cls-3" x="197.97" y="193.14" width="9.84" height="0.79"/><rect class="cls-2" x="170.58" y="177.18" width="8.95" height="14.3" transform="translate(350.1 368.67) rotate(-180)"/><rect class="cls-1" x="172.06" y="178.86" width="6.16" height="12.62" transform="translate(350.29 370.34) rotate(-180)"/><polygon class="cls-2" points="172.06 178.86 178.23 178.86 178.61 178.11 171.39 178.11 172.06 178.86"/><path class="cls-3" d="M175.94,179.61a.34.34,0,0,1,.31-.23c.24,0,.21.18.41.18s.17-.18.41-.18a.34.34,0,0,1,.31.24h.41V191h-.41a.33.33,0,0,1-.31.19c-.24,0-.21-.21-.41-.21s-.17.21-.41.21a.33.33,0,0,1-.31-.19h-.48v-11.4Z"/><path class="cls-3" d="M173,179.61a.34.34,0,0,1,.31-.23c.24,0,.21.18.41.18s.17-.18.41-.18a.34.34,0,0,1,.31.24h.41V191h-.41a.33.33,0,0,1-.31.19c-.24,0-.21-.21-.41-.21s-.17.21-.41.21A.33.33,0,0,1,173,191h-.48v-11.4Z"/><polygon class="cls-2" points="171.39 178.11 171.39 191.48 172.06 191.48 172.06 178.86 171.39 178.11"/><polygon class="cls-7" points="171.39 178.11 171.39 191.48 172.06 191.48 172.06 178.86 171.39 178.11"/><ellipse class="cls-2" cx="175.05" cy="171.19" rx="5.07" ry="6.7"/><ellipse class="cls-5" cx="174.9" cy="170.33" rx="3.75" ry="5.11"/><rect class="cls-2" x="170.13" y="191.48" width="9.84" height="1.65"/><rect class="cls-3" x="170.13" y="193.14" width="9.84" height="0.79"/><rect class="cls-2" x="281.04" y="177.18" width="8.95" height="14.3" transform="translate(571.03 368.67) rotate(-180)"/><rect class="cls-1" x="282.53" y="178.86" width="6.16" height="12.62" transform="translate(571.22 370.34) rotate(-180)"/><polygon class="cls-2" points="282.53 178.86 288.69 178.86 289.07 178.11 281.86 178.11 282.53 178.86"/><path class="cls-3" d="M286.41,179.61a.34.34,0,0,1,.31-.23c.24,0,.21.18.41.18s.17-.18.41-.18a.34.34,0,0,1,.31.24h.41V191h-.41a.33.33,0,0,1-.31.19c-.24,0-.21-.21-.41-.21s-.17.21-.41.21a.33.33,0,0,1-.31-.19h-.48v-11.4Z"/><path class="cls-3" d="M283.43,179.61a.34.34,0,0,1,.31-.23c.24,0,.21.18.41.18s.17-.18.41-.18a.34.34,0,0,1,.31.24h.41V191h-.41a.33.33,0,0,1-.31.19c-.24,0-.21-.21-.41-.21s-.17.21-.41.21a.33.33,0,0,1-.31-.19H283v-11.4Z"/><polygon class="cls-2" points="281.86 178.11 281.86 191.48 282.53 191.48 282.53 178.86 281.86 178.11"/><polygon class="cls-8" points="281.86 178.11 281.86 191.48 282.53 191.48 282.53 178.86 281.86 178.11"/><ellipse class="cls-2" cx="285.52" cy="171.19" rx="5.07" ry="6.7"/><ellipse class="cls-5" cx="285.37" cy="170.33" rx="3.75" ry="5.11"/><rect class="cls-2" x="280.6" y="191.48" width="9.84" height="1.65"/><rect class="cls-3" x="280.6" y="193.14" width="9.84" height="0.79"/><rect class="cls-2" x="253.21" y="177.18" width="8.95" height="14.3" transform="translate(515.37 368.67) rotate(-180)"/><rect class="cls-1" x="254.7" y="178.86" width="6.16" height="12.62" transform="translate(515.55 370.34) rotate(-180)"/><polygon class="cls-2" points="254.69 178.86 260.86 178.86 261.24 178.11 254.02 178.11 254.69 178.86"/><path class="cls-3" d="M258.57,179.61a.34.34,0,0,1,.31-.23c.24,0,.21.18.41.18s.17-.18.41-.18a.34.34,0,0,1,.31.24h.41V191H260a.33.33,0,0,1-.31.19c-.24,0-.21-.21-.41-.21s-.17.21-.41.21a.33.33,0,0,1-.31-.19h-.48v-11.4Z"/><path class="cls-3" d="M255.6,179.61a.34.34,0,0,1,.31-.23c.24,0,.21.18.41.18s.17-.18.41-.18a.34.34,0,0,1,.31.24h.41V191H257a.33.33,0,0,1-.31.19c-.24,0-.21-.21-.41-.21s-.17.21-.41.21a.33.33,0,0,1-.31-.19h-.48v-11.4Z"/><polygon class="cls-2" points="254.02 178.11 254.02 191.48 254.69 191.48 254.69 178.86 254.02 178.11"/><polygon class="cls-9" points="254.02 178.11 254.02 191.48 254.69 191.48 254.69 178.86 254.02 178.11"/><ellipse class="cls-2" cx="257.68" cy="171.19" rx="5.07" ry="6.7"/><ellipse class="cls-5" cx="257.54" cy="170.33" rx="3.75" ry="5.11"/><rect class="cls-2" x="252.76" y="191.48" width="9.84" height="1.65"/><rect class="cls-3" x="252.76" y="193.14" width="9.84" height="0.79"/><polygon class="cls-3" points="193.03 194.35 190.11 194.35 190.11 193.45 186.48 193.45 186.48 194.35 183.56 194.35 183.56 192.44 193.03 192.44 193.03 194.35"/><polygon class="cls-2" points="193.03 193.36 190.11 193.36 190.11 192.91 186.48 192.91 186.48 193.36 183.56 193.36 183.56 177.31 193.03 177.31 193.03 193.36"/><path class="cls-3" d="M191.18,191.34v-8.9a2.87,2.87,0,0,0-5.75,0v8.9Z"/><rect class="cls-10" x="185.44" y="179.57" width="5.75" height="7.73" rx="2" ry="2"/><ellipse class="cls-5" cx="188.28" cy="181.57" rx="0.49" ry="0.72"/><path class="cls-5" d="M187.87,185.28h.72c.69-.47.85,0,1.19-1.19v-.3a1.2,1.2,0,0,0-1.19-1.19h-.72a1.2,1.2,0,0,0-1.19,1.19v.3C187,184.78,187.13,184.88,187.87,185.28Z"/><rect class="cls-5" x="187.4" y="184.22" width="2.12" height="2.73" transform="translate(376.92 371.17) rotate(-180)"/><path class="cls-5" d="M186.61,184.09s-.21,2.83.27,3.09.21-.23.21-.23a9.24,9.24,0,0,1-.08-2.4"/><path class="cls-5" d="M189.52,187a10.58,10.58,0,0,0-.17,4.11h-2.71a7.3,7.3,0,0,1,.3-1.91,6,6,0,0,0,.47-2.2C188.46,186.93,189.52,187,189.52,187Z"/><rect class="cls-5" x="188.08" y="182.1" width="0.38" height="0.68" transform="translate(376.54 364.88) rotate(-180)"/><rect class="cls-2" x="185.24" y="175.85" width="6.11" height="1.47"/><rect class="cls-5" x="185.55" y="176.14" width="5.5" height="1.17"/><polygon class="cls-5" points="191.35 175.85 185.24 175.85 184.36 175.24 192.23 175.24 191.35 175.85"/><polygon class="cls-2" points="188.34 172.53 191.26 175.24 185.43 175.24 188.34 172.53"/><polygon class="cls-3" points="220.87 194.35 217.95 194.35 217.94 193.45 214.32 193.45 214.32 194.35 211.4 194.35 211.4 192.44 220.87 192.44 220.87 194.35"/><polygon class="cls-2" points="220.87 193.36 217.94 193.36 217.94 192.91 214.32 192.91 214.32 193.36 211.4 193.36 211.4 177.31 220.87 177.31 220.87 193.36"/><path class="cls-3" d="M219,191.34v-8.9a2.87,2.87,0,0,0-5.75,0v8.9Z"/><rect class="cls-10" x="213.27" y="179.57" width="5.75" height="7.73" rx="2" ry="2"/><ellipse class="cls-5" cx="215.97" cy="181.57" rx="0.49" ry="0.72"/><path class="cls-5" d="M216.38,185.28h-.72c-.69-.47-.85,0-1.19-1.19v-.3a1.2,1.2,0,0,1,1.19-1.19h.72a1.2,1.2,0,0,1,1.19,1.19v.3C217.25,184.78,217.13,184.88,216.38,185.28Z"/><rect class="cls-5" x="214.73" y="184.22" width="2.12" height="2.73"/><path class="cls-5" d="M217.5,184.09s.21,2.83-.27,3.09S217,187,217,187a9.24,9.24,0,0,0,.08-2.4"/><path class="cls-5" d="M214.73,187a10.58,10.58,0,0,1,.17,4.11h2.71a7.3,7.3,0,0,0-.3-1.91,6,6,0,0,1-.47-2.2C215.79,186.93,214.73,187,214.73,187Z"/><rect class="cls-5" x="215.79" y="182.1" width="0.38" height="0.68"/><rect class="cls-2" x="213.07" y="175.85" width="6.11" height="1.47"/><rect class="cls-5" x="213.38" y="176.14" width="5.5" height="1.17"/><polygon class="cls-5" points="219.19 175.85 213.07 175.85 212.2 175.24 220.06 175.24 219.19 175.85"/><polygon class="cls-2" points="216.18 172.53 219.09 175.24 213.26 175.24 216.18 172.53"/><polygon class="cls-3" points="248.7 194.35 245.78 194.35 245.78 193.45 242.15 193.45 242.15 194.35 239.23 194.35 239.23 192.44 248.7 192.44 248.7 194.35"/><polygon class="cls-2" points="248.7 193.36 245.78 193.36 245.78 192.91 242.15 192.91 242.15 193.36 239.23 193.36 239.23 177.31 248.7 177.31 248.7 193.36"/><path class="cls-3" d="M246.85,191.34v-8.9a2.87,2.87,0,0,0-5.75,0v8.9Z"/><rect class="cls-10" x="241.11" y="179.57" width="5.75" height="7.73" rx="2" ry="2"/><ellipse class="cls-5" cx="243.8" cy="181.57" rx="0.49" ry="0.72"/><path class="cls-5" d="M244.21,185.28h-.72c-.69-.47-.85,0-1.19-1.19v-.3a1.2,1.2,0,0,1,1.19-1.19h.72a1.2,1.2,0,0,1,1.19,1.19v.3C245.09,184.78,245,184.88,244.21,185.28Z"/><rect class="cls-5" x="242.57" y="184.22" width="2.12" height="2.73"/><path class="cls-5" d="M245.34,184.09s.21,2.83-.27,3.09-.21-.23-.21-.23a9.24,9.24,0,0,0,.08-2.4"/><path class="cls-5" d="M242.39,184.13a1.5,1.5,0,0,1-.87-.7,2.22,2.22,0,0,1-.3-1.24c.1-.54.3-.08.3-.08a1.88,1.88,0,0,0,1.14,1.74"/><path class="cls-5" d="M242.57,187a10.58,10.58,0,0,1,.17,4.11h2.71a7.3,7.3,0,0,0-.3-1.91,6,6,0,0,1-.47-2.2C243.63,186.93,242.57,187,242.57,187Z"/><rect class="cls-5" x="243.63" y="182.1" width="0.38" height="0.68"/><rect class="cls-2" x="240.91" y="175.85" width="6.11" height="1.47"/><rect class="cls-5" x="241.22" y="176.14" width="5.5" height="1.17"/><polygon class="cls-5" points="247.02 175.85 240.91 175.85 240.03 175.24 247.9 175.24 247.02 175.85"/><polygon class="cls-2" points="244.01 172.53 246.93 175.24 241.09 175.24 244.01 172.53"/><polygon class="cls-3" points="276.53 194.35 273.62 194.35 273.61 193.45 269.99 193.45 269.99 194.35 267.06 194.35 267.06 192.44 276.53 192.44 276.53 194.35"/><polygon class="cls-2" points="276.53 193.36 273.61 193.36 273.61 192.91 269.99 192.91 269.99 193.36 267.06 193.36 267.06 177.31 276.53 177.31 276.53 193.36"/><path class="cls-3" d="M274.69,191.34v-8.9a2.87,2.87,0,0,0-5.75,0v8.9Z"/><rect class="cls-10" x="268.94" y="179.57" width="5.75" height="7.73" rx="2" ry="2"/><ellipse class="cls-5" cx="271.64" cy="181.57" rx="0.49" ry="0.72"/><path class="cls-5" d="M272,185.28h-.72c-.69-.47-.85,0-1.19-1.19v-.3a1.2,1.2,0,0,1,1.19-1.19H272a1.2,1.2,0,0,1,1.19,1.19v.3C272.92,184.78,272.8,184.88,272,185.28Z"/><rect class="cls-5" x="270.4" y="184.22" width="2.12" height="2.73"/><path class="cls-5" d="M273.17,184.09s.21,2.83-.27,3.09-.21-.23-.21-.23a9.24,9.24,0,0,0,.08-2.4"/><path class="cls-5" d="M270.4,187a10.58,10.58,0,0,1,.17,4.11h2.71a7.3,7.3,0,0,0-.3-1.91,6,6,0,0,1-.47-2.2C271.46,186.93,270.4,187,270.4,187Z"/><rect class="cls-5" x="271.46" y="182.1" width="0.38" height="0.68"/><rect class="cls-2" x="268.74" y="175.85" width="6.11" height="1.47"/><rect class="cls-5" x="269.05" y="176.14" width="5.5" height="1.17"/><polygon class="cls-5" points="274.86 175.85 268.74 175.85 267.87 175.24 275.73 175.24 274.86 175.85"/><polygon class="cls-2" points="271.85 172.53 274.76 175.24 268.93 175.24 271.85 172.53"/><polygon class="cls-5" points="328.17 148.41 144.35 148.41 146.91 155.86 323.85 155.86 328.17 148.41"/><polygon class="cls-1" points="157.39 155.86 300.01 155.86 300.01 157.11 159.26 157.11 157.39 155.86"/><polygon class="cls-5" points="148.78 155.87 140.59 155.87 137.54 149.75 148.78 149.75 148.78 155.87"/><rect class="cls-11" x="162.16" y="147.75" width="0.57" height="9.3" transform="matrix(0.97, -0.25, 0.25, 0.97, -33.22, 45.97)"/><polygon class="cls-11" points="148.78 155.87 147.87 156.34 143.22 147.11 144.71 147.7 148.78 155.87"/><polygon class="cls-11" points="142.07 157.96 141.34 158.34 136.67 149 137.97 149.8 142.07 157.96"/><rect class="cls-11" x="163.3" y="156.82" width="0.59" height="17.12"/><rect class="cls-11" x="298.14" y="147.75" width="0.57" height="9.3" transform="translate(548.69 375.22) rotate(-165.37)"/><rect class="cls-11" x="296.98" y="156.82" width="0.59" height="17.12" transform="translate(594.54 330.77) rotate(-180)"/><polygon class="cls-11" points="316.7 148.41 144.99 148.41 143.22 147.11 318.45 147.11 316.7 148.41"/><polygon class="cls-11" points="145.09 150.06 137.6 150.06 136.67 149 145.09 149 145.09 150.06"/><polygon class="cls-11" points="312.9 155.87 313.81 156.34 318.45 147.11 316.96 147.7 312.9 155.87"/><polygon class="cls-11" points="323.46 156.95 324.19 157.33 328.85 147.99 327.55 148.79 323.46 156.95"/><polygon class="cls-11" points="317.4 149.05 327.59 149.05 328.85 147.99 317.4 147.99 317.4 149.05"/><rect class="cls-3" x="161.19" y="195.86" width="138.85" height="1.82"/><rect class="cls-2" x="216.51" y="205.3" width="28.53" height="22.54"/><path class="cls-5" d="M216.51,205.3s0-4.35,11.27-6.59v6.59Z"/><path class="cls-5" d="M245,205.3s0-4.35-11.27-6.59v6.59Z"/><ellipse class="cls-2" cx="230.77" cy="197.44" rx="0.8" ry="1.1"/><rect class="cls-2" x="230.45" y="197.97" width="0.67" height="1.64"/><path class="cls-2" d="M231.43,202.58l1.86-1.28a1.18,1.18,0,0,0-.25-1.2,3.09,3.09,0,0,0-2.5-1.3v3.77Z"/><path class="cls-2" d="M229.75,202.58l-1.81-1.28a1.07,1.07,0,0,1,.17-1.2,2.9,2.9,0,0,1,2.42-1.3v3.77Z"/><rect class="cls-2" x="229.58" y="204" width="2.02" height="1"/><ellipse class="cls-2" cx="230.59" cy="203.01" rx="1.09" ry="0.55"/><ellipse class="cls-2" cx="230.59" cy="204" rx="1.01" ry="0.55"/><rect class="cls-3" x="220.14" y="210.46" width="20.96" height="17.41"/><rect class="cls-5" x="223.32" y="217.77" width="14.25" height="10.1"/><polygon class="cls-10" points="243.59 206.59 217.56 206.59 216.51 205.3 245.03 205.3 243.59 206.59"/><polygon class="cls-5" points="241.05 210.46 220.13 210.46 217.59 206.95 243.59 206.95 241.05 210.46"/><rect class="cls-1" x="217.56" y="206.59" width="26.04" height="0.36"/><circle class="cls-5" cx="230.44" cy="217.77" r="6.1"/><rect class="cls-2" x="268.54" y="205.3" width="28.53" height="22.54"/><path class="cls-5" d="M268.54,205.3s0-4.35,11.27-6.59v6.59Z"/><path class="cls-5" d="M297.07,205.3s0-4.35-11.27-6.59v6.59Z"/><ellipse class="cls-2" cx="282.8" cy="197.44" rx="0.8" ry="1.1"/><rect class="cls-2" x="282.48" y="197.97" width="0.67" height="1.64"/><path class="cls-2" d="M283.47,202.58l1.86-1.28a1.18,1.18,0,0,0-.25-1.2,3.09,3.09,0,0,0-2.5-1.3v3.77Z"/><path class="cls-2" d="M281.78,202.58,280,201.29a1.07,1.07,0,0,1,.17-1.2,2.9,2.9,0,0,1,2.42-1.3v3.77Z"/><rect class="cls-2" x="281.62" y="204" width="2.02" height="1"/><ellipse class="cls-2" cx="282.63" cy="203.01" rx="1.09" ry="0.55"/><ellipse class="cls-2" cx="282.63" cy="204" rx="1.01" ry="0.55"/><rect class="cls-3" x="272.17" y="210.46" width="20.96" height="17.41"/><rect class="cls-5" x="275.35" y="217.77" width="14.25" height="10.1"/><polygon class="cls-10" points="295.63 206.59 269.59 206.59 268.54 205.3 297.07 205.3 295.63 206.59"/><polygon class="cls-5" points="293.08 210.46 272.16 210.46 269.63 206.95 295.63 206.95 293.08 210.46"/><rect class="cls-1" x="269.59" y="206.59" width="26.04" height="0.36"/><circle class="cls-5" cx="282.48" cy="217.77" r="6.1"/><rect class="cls-2" x="164.16" y="205.3" width="28.53" height="22.54"/><path class="cls-5" d="M164.16,205.3s0-4.35,11.27-6.59v6.59Z"/><path class="cls-5" d="M192.69,205.3s0-4.35-11.27-6.59v6.59Z"/><ellipse class="cls-2" cx="178.43" cy="197.44" rx="0.8" ry="1.1"/><rect class="cls-2" x="178.11" y="197.97" width="0.67" height="1.64"/><path class="cls-2" d="M179.09,202.58l1.86-1.28a1.18,1.18,0,0,0-.25-1.2,3.09,3.09,0,0,0-2.5-1.3v3.77Z"/><path class="cls-2" d="M177.4,202.58l-1.81-1.28a1.07,1.07,0,0,1,.17-1.2,2.9,2.9,0,0,1,2.42-1.3v3.77Z"/><rect class="cls-2" x="177.24" y="204" width="2.02" height="1"/><ellipse class="cls-2" cx="178.25" cy="203.01" rx="1.09" ry="0.55"/><ellipse class="cls-2" cx="178.25" cy="204" rx="1.01" ry="0.55"/><rect class="cls-3" x="167.79" y="210.46" width="20.96" height="17.41"/><rect class="cls-5" x="170.97" y="217.77" width="14.25" height="10.1"/><polygon class="cls-10" points="191.25 206.59 165.21 206.59 164.16 205.3 192.69 205.3 191.25 206.59"/><polygon class="cls-5" points="188.71 210.46 167.78 210.46 165.25 206.95 191.25 206.95 188.71 210.46"/><rect class="cls-1" x="165.21" y="206.59" width="26.04" height="0.36"/><circle class="cls-5" cx="178.1" cy="217.77" r="6.1"/><rect class="cls-10" x="155.99" y="213.19" width="8.35" height="14.49" transform="translate(320.34 440.87) rotate(-180)"/><rect class="cls-12" x="155.99" y="213.19" width="8.35" height="6.73" transform="translate(320.34 433.12) rotate(-180)"/><polygon class="cls-10" points="165.54 211.08 155.99 211.08 155.99 213.19 164.35 213.19 165.54 211.08"/><polygon class="cls-3" points="165.54 211.08 164.35 213.19 166.69 218.55 168.61 217.47 165.54 211.08"/><polygon class="cls-3" points="166.69 218.55 166.67 227.68 164.35 227.68 164.35 213.19 166.69 218.55"/><polygon class="cls-13" points="166.69 218.55 166.67 227.68 164.35 227.68 164.35 213.19 166.69 218.55"/><polygon class="cls-11" points="165.75 210.65 155.99 210.65 155.99 211.08 165.52 211.08 165.75 210.65"/><polygon class="cls-11" points="165.75 210.65 165.52 211.08 168.61 217.47 169.08 217.47 165.75 210.65"/><rect class="cls-10" x="296.43" y="213.35" width="8.35" height="14.49"/><rect class="cls-14" x="296.43" y="213.35" width="8.35" height="6.73"/><polygon class="cls-10" points="295.24 211.23 304.78 211.23 304.78 213.35 296.43 213.35 295.24 211.23"/><polygon class="cls-3" points="295.24 211.23 296.43 213.35 294.09 218.71 292.17 217.62 295.24 211.23"/><polygon class="cls-3" points="294.09 218.71 294.11 227.83 296.43 227.83 296.43 213.35 294.09 218.71"/><polygon class="cls-15" points="294.09 218.71 294.11 227.83 296.43 227.83 296.43 213.35 294.09 218.71"/><polygon class="cls-11" points="295.03 210.8 304.78 210.8 304.78 211.23 295.26 211.23 295.03 210.8"/><polygon class="cls-11" points="295.03 210.8 295.26 211.23 292.17 217.62 291.7 217.62 295.03 210.8"/><rect class="cls-5" x="252.29" y="208.12" width="9.84" height="9.45"/><path class="cls-10" d="M262.14,227.66V214.52a4.92,4.92,0,0,0-9.84,0v13.14Z"/><path class="cls-3" d="M262,213.27c-.39,3.79-2,8-6.36,7.44a5.31,5.31,0,0,1-3.32-1.86v8.81h9.84V214.52A4.87,4.87,0,0,0,262,213.27Z"/><rect class="cls-5" x="249.33" y="206.18" width="2.96" height="21.48"/><ellipse class="cls-10" cx="257.18" cy="203.4" rx="3.2" ry="4.17"/><rect class="cls-5" x="262.14" y="206.18" width="2.96" height="21.48"/><rect class="cls-3" x="252.29" y="207.02" width="9.84" height="1.1"/><rect class="cls-3" x="262.14" y="205.03" width="2.96" height="1.14"/><rect class="cls-10" x="262.79" y="200.11" width="1.56" height="1.01"/><rect class="cls-3" x="249.33" y="205.03" width="2.96" height="1.14"/><rect class="cls-3" x="250.53" y="203.36" width="0.78" height="0.59"/><path class="cls-3" d="M264.88,202c0,.64-.58,1.62-1.3,1.62s-1.3-1-1.3-1.62a1.31,1.31,0,0,1,2.61,0Z"/><polygon class="cls-5" points="252.62 204.65 249.08 204.65 249.6 203.62 252.1 203.62 252.62 204.65"/><rect class="cls-3" x="263.18" y="203.36" width="0.78" height="0.59"/><polygon class="cls-3" points="252.29 205.03 249.33 205.03 249.08 204.65 252.62 204.65 252.29 205.03"/><polygon class="cls-5" points="265.42 204.65 261.89 204.65 262.41 203.62 264.91 203.62 265.42 204.65"/><polygon class="cls-3" points="265.1 205.03 262.14 205.03 261.89 204.65 265.42 204.65 265.1 205.03"/><path class="cls-5" d="M264.1,200l.62-.91s-.91-1.39-2.28,0l.67.91Z"/><rect class="cls-10" x="250.14" y="200.11" width="1.56" height="1.01"/><path class="cls-3" d="M252.22,202c0,.64-.58,1.62-1.3,1.62s-1.3-1-1.3-1.62a1.31,1.31,0,0,1,2.61,0Z"/><path class="cls-5" d="M251.37,200l.62-.91s-.91-1.39-2.28,0l.67.91Z"/><polygon class="cls-10" points="250.14 200.11 250.83 199.78 251 199.78 251.7 200.11 250.14 200.11"/><polygon class="cls-10" points="262.72 200.11 263.41 199.78 263.58 199.78 264.28 200.11 262.72 200.11"/><ellipse class="cls-1" cx="257.04" cy="213.38" rx="0.7" ry="1"/><path class="cls-2" d="M257.65,212.92a1.58,1.58,0,0,1,0,.32c0,.55-.31,1-.7,1a.76.76,0,0,1-.63-.57.74.74,0,0,0,.67.72c.38,0,.7-.45.7-1A1.21,1.21,0,0,0,257.65,212.92Z"/><polygon class="cls-2" points="257.35 215.07 256.6 215.07 256.6 214.16 257.04 214.34 257.57 214.03 257.35 215.07"/><path class="cls-1" d="M257.08,222.13h-.32a2.33,2.33,0,0,1-2.29-2.1l.25-3.37a3,3,0,0,1,1.72-2l1.07,0c1.12,0,1.61.92,1.61,2v3.43A2,2,0,0,1,257.08,222.13Z"/><rect class="cls-5" x="200.11" y="208.12" width="9.84" height="9.45"/><path class="cls-10" d="M209.95,227.66V214.52a4.92,4.92,0,0,0-9.84,0v13.14Z"/><path class="cls-3" d="M209.78,213.27c-.39,3.79-2,8-6.36,7.44a5.31,5.31,0,0,1-3.32-1.86v8.81h9.84V214.52A4.87,4.87,0,0,0,209.78,213.27Z"/><rect class="cls-5" x="197.14" y="206.18" width="2.96" height="21.48"/><ellipse class="cls-10" cx="204.99" cy="203.4" rx="3.2" ry="4.17"/><rect class="cls-5" x="209.95" y="206.18" width="2.96" height="21.48"/><rect class="cls-3" x="200.11" y="207.02" width="9.84" height="1.1"/><rect class="cls-3" x="209.95" y="205.03" width="2.96" height="1.14"/><rect class="cls-10" x="210.6" y="200.11" width="1.56" height="1.01"/><rect class="cls-3" x="197.14" y="205.03" width="2.96" height="1.14"/><rect class="cls-3" x="198.34" y="203.36" width="0.78" height="0.59"/><path class="cls-3" d="M212.69,202c0,.64-.58,1.62-1.3,1.62s-1.3-1-1.3-1.62a1.31,1.31,0,0,1,2.61,0Z"/><polygon class="cls-5" points="200.43 204.65 196.89 204.65 197.41 203.62 199.91 203.62 200.43 204.65"/><rect class="cls-3" x="211" y="203.36" width="0.78" height="0.59"/><polygon class="cls-3" points="200.1 205.03 197.14 205.03 196.89 204.65 200.43 204.65 200.1 205.03"/><polygon class="cls-5" points="213.24 204.65 209.7 204.65 210.22 203.62 212.72 203.62 213.24 204.65"/><polygon class="cls-3" points="212.91 205.03 209.95 205.03 209.7 204.65 213.24 204.65 212.91 205.03"/><path class="cls-5" d="M211.91,200l.62-.91s-.91-1.39-2.28,0l.67.91Z"/><rect class="cls-10" x="197.95" y="200.11" width="1.56" height="1.01"/><path class="cls-3" d="M200,202c0,.64-.58,1.62-1.3,1.62s-1.3-1-1.3-1.62a1.31,1.31,0,0,1,2.61,0Z"/><path class="cls-5" d="M199.19,200l.62-.91s-.91-1.39-2.28,0l.67.91Z"/><polygon class="cls-10" points="197.95 200.11 198.64 199.78 198.81 199.78 199.51 200.11 197.95 200.11"/><polygon class="cls-10" points="210.53 200.11 211.22 199.78 211.39 199.78 212.09 200.11 210.53 200.11"/><ellipse class="cls-1" cx="204.85" cy="213.38" rx="0.7" ry="1"/><path class="cls-2" d="M205.46,212.92a1.58,1.58,0,0,1,0,.32c0,.55-.31,1-.7,1a.76.76,0,0,1-.63-.57.74.74,0,0,0,.67.72c.38,0,.7-.45.7-1A1.21,1.21,0,0,0,205.46,212.92Z"/><polygon class="cls-2" points="205.16 215.07 204.41 215.07 204.41 214.16 204.85 214.34 205.38 214.03 205.16 215.07"/><path class="cls-1" d="M204.89,222.13h-.32a2.33,2.33,0,0,1-2.29-2.1l.25-3.37a3,3,0,0,1,1.72-2l1.07,0c1.12,0,1.61.92,1.61,2v3.43A2,2,0,0,1,204.89,222.13Z"/><rect class="cls-5" x="151.86" y="220.16" width="154.03" height="0.87"/><rect class="cls-3" x="151.86" y="221.03" width="154.03" height="1.44"/><rect class="cls-2" x="151.86" y="222.46" width="154.03" height="6.74"/><rect class="cls-1" x="154.6" y="226.17" width="154.47" height="90.59"/><rect class="cls-16" x="230.04" y="192.58" width="1.74" height="149.14" transform="translate(498.07 36.24) rotate(90)"/><path class="cls-2" d="M245.19,277.64v39.12H219.64V277.64c0-6.75,4.83-12.28,12.07-12.28a14,14,0,0,1,9.46,3.61A12,12,0,0,1,245.19,277.64Z"/><path class="cls-10" d="M242.87,278.75v38H220.8v-38c0-6.23,4.34-11.33,10.5-11.33a11.62,11.62,0,0,1,11.57,11.33Z"/><path class="cls-2" d="M275.39,277.64v39.12H247.51V277.64c0-6.75,6.81-12.28,14.06-12.28A14.45,14.45,0,0,1,271.2,269,12.13,12.13,0,0,1,275.39,277.64Z"/><path class="cls-10" d="M273.06,278.75v38H251v-38a11.41,11.41,0,0,1,11.32-11.33,10.58,10.58,0,0,1,7.68,3.33A11.14,11.14,0,0,1,273.06,278.75Z"/><path class="cls-2" d="M306.75,277.64v39.12H281.19V277.64a12.38,12.38,0,0,1,12.71-12.28A13.21,13.21,0,0,1,303,269,11.66,11.66,0,0,1,306.75,277.64Z"/><path class="cls-10" d="M304.42,278.75v38H281.19v-38c0-6.23,5.55-11.33,11.71-11.33a11.58,11.58,0,0,1,11.52,11.33Z"/><rect class="cls-5" x="179.21" y="232.71" width="8.52" height="17.03"/><rect class="cls-5" x="210.19" y="232.71" width="8.52" height="17.03"/><rect class="cls-5" x="242.89" y="232.71" width="8.52" height="17.03"/><rect class="cls-5" x="273.87" y="232.71" width="8.52" height="17.03"/><path class="cls-2" d="M180.15,277.64v39.12H154.6V277.64c0-6.75,5.94-12.28,13.18-12.28a12.63,12.63,0,0,1,8.9,3.61A11.46,11.46,0,0,1,180.15,277.64Z"/><path class="cls-10" d="M180.15,278.75v38H155.76v-38a11.66,11.66,0,0,1,11.61-11.33,13,13,0,0,1,8.7,3.33C178.11,272.8,180.15,275.63,180.15,278.75Z"/><rect class="cls-3" x="154.9" y="231.07" width="152.42" height="2.8"/><rect class="cls-3" x="154.9" y="228.13" width="152.42" height="0.95"/><path class="cls-2" d="M212.67,277.64v39.12H187.12V277.64a12.13,12.13,0,0,1,12.41-12.28,13.58,13.58,0,0,1,9.29,3.61A11.8,11.8,0,0,1,212.67,277.64Z"/><path class="cls-10" d="M210.34,278.75v38H188.28v-38c0-6.23,4.68-11.33,10.84-11.33a11.13,11.13,0,0,1,7.92,3.33A11.34,11.34,0,0,1,210.34,278.75Z"/><rect class="cls-5" x="155.62" y="249.74" width="149.87" height="3.23"/><rect class="cls-5" x="156.36" y="257.53" width="149.12" height="5.6"/><rect class="cls-1" x="156.73" y="308.78" width="148.75" height="7.73"/><rect class="cls-16" x="305.48" y="234.79" width="1.46" height="81.71"/><rect class="cls-16" x="154.89" y="234.79" width="1.46" height="81.71"/><rect class="cls-2" x="180.93" y="232.71" width="5.09" height="17.19"/><polygon class="cls-3" points="186.82 251.77 180.13 251.77 180.93 249.74 186.01 249.74 186.82 251.77"/><polygon class="cls-10" points="186.01 232.71 180.93 232.71 179.79 231.07 187.16 231.07 186.01 232.71"/><path class="cls-5" d="M237.06,239c.5-3.26,0-4.8-.24-5.24s-.66-.1-1.26-.64a.75.75,0,0,0-1.1,0c-1.71-.91-1.37-1.49-1.37-1.49,0-.41.64-1.05.64-1.66s-1-1.48-1.66-1.48c-.51-1.1-1.27-.88-1.27-.88s-.76-.22-1.27.88c-.62,0-1.66.87-1.66,1.48s.64,1.25.64,1.66c0,0,.34.58-1.37,1.49a.76.76,0,0,0-1.11,0c-.6.54-1,.2-1.27.64s-.78,2-.27,5.24-.62,5.17-4.92,6.16v1.74h22.37v-1.74C237.62,244.19,236.56,242.28,237.06,239Z"/><rect class="cls-5" x="179.79" y="228.79" width="7.37" height="2.28"/><rect class="cls-2" x="211.91" y="232.71" width="5.09" height="17.19"/><polygon class="cls-3" points="217.8 251.77 211.11 251.77 211.91 249.74 216.99 249.74 217.8 251.77"/><polygon class="cls-10" points="216.99 232.71 211.91 232.71 210.77 231.07 218.14 231.07 216.99 232.71"/><rect class="cls-5" x="210.77" y="228.79" width="7.37" height="2.28"/><rect class="cls-2" x="244.61" y="232.71" width="5.09" height="17.19"/><polygon class="cls-3" points="250.5 251.77 243.81 251.77 244.61 249.74 249.69 249.74 250.5 251.77"/><rect class="cls-5" x="243.47" y="228.79" width="7.37" height="2.28"/><rect class="cls-2" x="275.59" y="232.71" width="5.09" height="17.19"/><polygon class="cls-3" points="281.48 251.77 274.79 251.77 275.59 249.74 280.67 249.74 281.48 251.77"/><polygon class="cls-10" points="280.67 232.71 275.59 232.71 274.45 231.07 281.82 231.07 280.67 232.71"/><polygon class="cls-10" points="249.69 232.71 244.61 232.71 243.47 231.07 250.84 231.07 249.69 232.71"/><rect class="cls-5" x="274.45" y="228.79" width="7.37" height="2.28"/><ellipse class="cls-2" cx="230.8" cy="239.02" rx="4.32" ry="5.4"/><rect class="cls-2" x="219.56" y="246.59" width="22.38" height="3.01"/><ellipse class="cls-1" cx="230.8" cy="238.7" rx="3.29" ry="4.11"/><rect class="cls-2" x="153.29" y="316.51" width="156.22" height="15.36"/><rect class="cls-1" x="307.51" y="167.29" width="90.39" height="164.57"/><rect class="cls-1" x="397.9" y="290.89" width="33.24" height="40.97"/><rect class="cls-1" x="431.14" y="289.53" width="7.76" height="42.34"/><rect class="cls-2" x="431.14" y="318.49" width="7.76" height="9.9"/><rect class="cls-17" x="431.14" y="318.49" width="7.76" height="9.9"/><rect class="cls-18" x="431.14" y="318.49" width="7.76" height="9.9" transform="translate(870.04 646.89) rotate(180)"/><rect class="cls-19" x="431.14" y="289.53" width="7.76" height="9.9" transform="translate(870.04 588.96) rotate(180)"/><rect class="cls-2" x="397.9" y="287.36" width="33.24" height="3.53"/><rect class="cls-2" x="431.14" y="287.36" width="8.86" height="2.17"/><rect class="cls-1" x="431.86" y="286.25" width="5.35" height="1.12"/><rect class="cls-2" x="431.86" y="285.69" width="5.35" height="0.56"/><rect class="cls-1" x="432.48" y="281.8" width="4.1" height="3.89"/><polygon class="cls-20" points="436.58 281.8 432.48 281.8 431.74 281.32 437.32 281.32 436.58 281.8"/><rect class="cls-20" x="431.74" y="281.01" width="5.58" height="0.31"/><polygon class="cls-20" points="433.35 266.53 435.71 266.53 436.58 281.01 432.48 281.01 433.35 266.53"/><polygon class="cls-16" points="412.82 155.87 400.45 166.03 399.44 166.03 408.84 158.32 412.82 155.87"/><polygon class="cls-20" points="434.75 264.81 434.31 264.81 433.35 266.53 435.71 266.53 434.75 264.81"/><polygon class="cls-5" points="302.16 158.32 408.84 158.32 398.85 167.29 307.51 167.29 302.16 158.32"/><rect class="cls-2" x="402.84" y="296.48" width="15.94" height="12.25"/><rect class="cls-16" x="405.35" y="298.54" width="10.92" height="7.97"/><rect class="cls-2" x="430.24" y="315.97" width="9.57" height="0.81"/><rect class="cls-2" x="430.24" y="330.13" width="9.57" height="1.74"/><polygon class="cls-2" points="431.14 328.39 438.9 328.39 439.81 330.13 430.24 330.13 431.14 328.39"/><polygon class="cls-21" points="431.14 328.39 438.9 328.39 439.81 330.13 430.24 330.13 431.14 328.39"/><polyline class="cls-2" points="430.24 331.87 430.24 330.13 439.81 330.13"/><polygon class="cls-2" points="430.24 316.79 439.81 316.79 438.9 318.49 431.14 318.49 430.24 316.79"/><rect class="cls-2" x="392" y="318.49" width="7.76" height="9.9"/><rect class="cls-22" x="392" y="318.49" width="7.76" height="9.9"/><rect class="cls-23" x="392" y="318.49" width="7.76" height="9.9" transform="translate(791.76 646.89) rotate(180)"/><rect class="cls-2" x="391.09" y="315.97" width="9.57" height="0.81"/><rect class="cls-2" x="391.09" y="330.13" width="9.57" height="1.74"/><polygon class="cls-2" points="392 328.39 399.76 328.39 400.66 330.13 391.1 330.13 392 328.39"/><polygon class="cls-24" points="392 328.39 399.76 328.39 400.66 330.13 391.1 330.13 392 328.39"/><polyline class="cls-2" points="391.1 331.87 391.1 330.13 400.66 330.13"/><polygon class="cls-2" points="391.1 316.79 400.66 316.79 399.76 318.49 392 318.49 391.1 316.79"/><rect class="cls-2" x="324.92" y="319.77" width="15.54" height="8.82"/><rect class="cls-16" x="326.83" y="320.85" width="11.72" height="6.65"/><rect class="cls-5" x="367.59" y="318.49" width="11.2" height="12.51"/><rect class="cls-2" x="307.17" y="253.13" width="87.42" height="4.35"/><rect class="cls-2" x="307.17" y="228.62" width="87.42" height="2.77"/><rect class="cls-2" x="307.17" y="314.14" width="87.42" height="4.35"/><rect class="cls-3" x="316.16" y="257.23" width="74.36" height="2.64"/><rect class="cls-3" x="314.93" y="231.14" width="76.81" height="2.64"/><rect class="cls-3" x="382.65" y="221.85" width="8.14" height="0.93"/><rect class="cls-3" x="364.92" y="220.97" width="17.73" height="1.54"/><rect class="cls-3" x="342.24" y="221.85" width="22.33" height="0.77"/><rect class="cls-3" x="381.99" y="222.5" width="0.65" height="1.26"/><rect class="cls-3" x="364.57" y="221.85" width="0.72" height="1.87"/><rect class="cls-3" x="364.04" y="280.24" width="17.67" height="25.56"/><rect class="cls-10" x="367.8" y="282.9" width="10.73" height="22.91"/><rect class="cls-5" x="372.59" y="282.9" width="1.19" height="22.91"/><polygon class="cls-10" points="381.72 280.24 364.04 280.24 363.35 278.14 382.41 278.14 381.72 280.24"/><polygon class="cls-2" points="381.72 276.93 364.04 276.93 363.35 278.14 382.41 278.14 381.72 276.93"/><polygon class="cls-2" points="364.04 276.93 362.11 278.68 363.35 278.14 364.04 276.93"/><polygon class="cls-16" points="362.11 278.68 364.04 280.24 363.35 278.14 362.11 278.68"/><polygon class="cls-2" points="381.72 276.93 383.65 278.68 382.41 278.14 381.72 276.93"/><polygon class="cls-16" points="383.65 278.68 381.72 280.24 382.41 278.14 383.65 278.68"/><rect class="cls-3" x="324.03" y="280.24" width="17.67" height="25.56"/><rect class="cls-10" x="327.78" y="282.9" width="10.73" height="22.91"/><rect class="cls-5" x="332.58" y="282.9" width="1.19" height="22.91"/><polygon class="cls-10" points="341.7 280.24 324.03 280.24 323.34 278.14 342.4 278.14 341.7 280.24"/><polygon class="cls-2" points="341.7 276.93 324.03 276.93 323.34 278.14 342.4 278.14 341.7 276.93"/><polygon class="cls-2" points="324.03 276.93 322.1 278.68 323.34 278.14 324.03 276.93"/><polygon class="cls-16" points="322.1 278.68 324.03 280.24 323.34 278.14 322.1 278.68"/><polygon class="cls-2" points="341.7 276.93 343.64 278.68 342.4 278.14 341.7 276.93"/><polygon class="cls-16" points="343.64 278.68 341.7 280.24 342.4 278.14 343.64 278.68"/><rect class="cls-5" x="315.22" y="181.32" width="77.09" height="1.57"/><rect class="cls-3" x="314.82" y="221.86" width="9.52" height="0.93" transform="translate(639.16 444.64) rotate(-180)"/><rect class="cls-3" x="402.76" y="308.58" width="16.67" height="0.58"/><rect class="cls-10" x="307.4" y="167.32" width="2.32" height="14"/><rect class="cls-3" x="316.44" y="307.79" width="72.79" height="0.46"/><rect class="cls-2" x="308.84" y="179.15" width="83.47" height="2.17"/><rect class="cls-2" x="314.82" y="220.08" width="9.52" height="1.78" transform="translate(639.16 441.94) rotate(-180)"/><rect class="cls-5" x="390.11" y="256.33" width="7.83" height="54.35"/><rect class="cls-2" x="389.23" y="257.78" width="10.02" height="4.19"/><rect class="cls-2" x="389.23" y="263.87" width="10.02" height="4.19"/><rect class="cls-2" x="389.23" y="269.95" width="10.02" height="4.19"/><rect class="cls-2" x="389.23" y="276.04" width="10.02" height="4.19"/><rect class="cls-2" x="389.23" y="282.13" width="10.02" height="4.19"/><rect class="cls-2" x="389.23" y="288.22" width="10.02" height="4.19"/><rect class="cls-2" x="389.23" y="294.31" width="10.02" height="4.19"/><rect class="cls-2" x="389.23" y="300.4" width="10.02" height="4.19"/><rect class="cls-2" x="389.23" y="306.49" width="10.02" height="4.19"/><polygon class="cls-5" points="399.25 311.15 389.23 311.15 390.11 310.68 397.94 310.68 399.25 311.15"/><rect class="cls-3" x="390.11" y="255.05" width="7.83" height="1.28"/><polygon class="cls-3" points="397.94 255.05 390.11 255.05 388.35 253.35 399.7 253.35 397.94 255.05"/><rect class="cls-16" x="391" y="233.15" width="7.22" height="20.2"/><rect class="cls-2" x="390.11" y="233.15" width="8.21" height="2.93"/><rect class="cls-2" x="390.95" y="236.45" width="7.37" height="3.1"/><rect class="cls-2" x="390.11" y="239.88" width="8.21" height="3.37"/><rect class="cls-2" x="390.11" y="247.05" width="8.21" height="3.37"/><rect class="cls-2" x="390.95" y="243.63" width="7.37" height="3.1"/><path class="cls-2" d="M390.48,250.85h7.91a.37.37,0,0,1,.37.37v2.12a0,0,0,0,1,0,0h-8.66a0,0,0,0,1,0,0v-2.12A.37.37,0,0,1,390.48,250.85Z"/><rect class="cls-2" x="389.23" y="311.15" width="10.02" height="5.44"/><rect class="cls-3" x="391" y="232.36" width="6.94" height="0.79"/><polygon class="cls-10" points="397.91 232.36 390.97 232.36 390.11 230.81 399.7 230.81 397.91 232.36"/><rect class="cls-5" x="391.23" y="219.94" width="0.87" height="6.69"/><rect class="cls-2" x="390.11" y="228.11" width="9.9" height="2.69"/><rect class="cls-2" x="391.39" y="219.94" width="7.18" height="1.67"/><polygon class="cls-10" points="398 222.5 391.39 222.5 391.39 221.61 398.58 221.61 398 222.5"/><rect class="cls-5" x="390.35" y="226.63" width="0.87" height="1.48"/><rect class="cls-2" x="390.52" y="226.63" width="7.41" height="1.48"/><rect class="cls-2" x="391.39" y="222.5" width="6.61" height="4.13"/><rect class="cls-5" x="391.56" y="179.15" width="0.71" height="40.79"/><rect class="cls-2" x="391.78" y="179.15" width="6.22" height="40.79"/><rect class="cls-5" x="308.46" y="256.33" width="7.83" height="54.35" transform="translate(624.75 567.01) rotate(-180)"/><rect class="cls-2" x="307.15" y="257.78" width="10.02" height="4.19" transform="translate(624.32 519.75) rotate(-180)"/><rect class="cls-2" x="307.15" y="263.87" width="10.02" height="4.19" transform="translate(624.32 531.92) rotate(-180)"/><rect class="cls-2" x="307.15" y="269.95" width="10.02" height="4.19" transform="translate(624.32 544.1) rotate(-180)"/><rect class="cls-2" x="307.15" y="276.04" width="10.02" height="4.19" transform="translate(624.32 556.28) rotate(-180)"/><rect class="cls-2" x="307.15" y="282.13" width="10.02" height="4.19" transform="translate(624.32 568.46) rotate(-180)"/><rect class="cls-2" x="307.15" y="288.22" width="10.02" height="4.19" transform="translate(624.32 580.63) rotate(-180)"/><rect class="cls-2" x="307.15" y="294.31" width="10.02" height="4.19" transform="translate(624.32 592.81) rotate(-180)"/><rect class="cls-2" x="307.15" y="300.4" width="10.02" height="4.19" transform="translate(624.32 604.99) rotate(-180)"/><rect class="cls-2" x="307.15" y="306.49" width="10.02" height="4.19" transform="translate(624.32 617.17) rotate(-180)"/><polygon class="cls-5" points="307.15 311.15 317.17 311.15 316.29 310.68 308.46 310.68 307.15 311.15"/><rect class="cls-3" x="308.46" y="255.05" width="7.83" height="1.28" transform="translate(624.75 511.38) rotate(-180)"/><polygon class="cls-3" points="308.46 255.05 316.29 255.05 318.04 253.35 306.7 253.35 308.46 255.05"/><rect class="cls-16" x="308.18" y="233.15" width="7.22" height="20.2" transform="translate(623.58 486.49) rotate(-180)"/><rect class="cls-2" x="308.08" y="233.15" width="8.21" height="2.93" transform="translate(624.37 469.23) rotate(-180)"/><rect class="cls-2" x="308.08" y="236.45" width="7.37" height="3.1" transform="translate(623.53 476.01) rotate(-180)"/><rect class="cls-2" x="308.08" y="239.88" width="8.21" height="3.37" transform="translate(624.37 483.13) rotate(-180)"/><rect class="cls-2" x="308.08" y="247.05" width="8.21" height="3.37" transform="translate(624.37 497.46) rotate(-180)"/><rect class="cls-2" x="308.08" y="243.63" width="7.37" height="3.1" transform="translate(623.53 490.36) rotate(-180)"/><path class="cls-2" d="M307.63,250.85h8.66a0,0,0,0,1,0,0V253a.37.37,0,0,1-.37.37H308a.37.37,0,0,1-.37-.37v-2.12A0,0,0,0,1,307.63,250.85Z" transform="translate(623.92 504.19) rotate(-180)"/><rect class="cls-2" x="307.15" y="311.15" width="10.02" height="5.44" transform="translate(624.32 627.75) rotate(-180)"/><rect class="cls-3" x="308.46" y="232.36" width="6.94" height="0.79" transform="translate(623.86 465.51) rotate(-180)"/><polygon class="cls-10" points="308.49 232.36 315.43 232.36 316.29 230.81 306.7 230.81 308.49 232.36"/><rect class="cls-5" x="314.74" y="219.94" width="0.87" height="6.69" transform="translate(630.35 446.57) rotate(-180)"/><rect class="cls-2" x="306.39" y="228.11" width="9.9" height="2.69" transform="translate(622.68 458.92) rotate(-180)"/><rect class="cls-2" x="308.27" y="219.94" width="7.18" height="1.67" transform="translate(623.72 441.55) rotate(-180)"/><polygon class="cls-10" points="309.08 222.5 315.45 222.5 315.45 221.61 308.26 221.61 309.08 222.5"/><rect class="cls-5" x="315.18" y="226.63" width="0.87" height="1.48" transform="translate(631.22 454.75) rotate(-180)"/><rect class="cls-2" x="308.46" y="226.63" width="7.41" height="1.48" transform="translate(624.34 454.75) rotate(-180)"/><rect class="cls-2" x="308.84" y="222.5" width="6.61" height="4.13" transform="translate(624.29 449.13) rotate(-180)"/><rect class="cls-5" x="314.57" y="179.15" width="0.71" height="40.79" transform="translate(629.85 399.09) rotate(-180)"/><rect class="cls-2" x="308.84" y="179.15" width="6.22" height="40.79" transform="translate(623.9 399.09) rotate(-180)"/><rect class="cls-3" x="306.39" y="228.11" width="9.9" height="0.75" transform="translate(622.68 456.97) rotate(-180)"/><rect class="cls-5" x="308.84" y="175.2" width="89.16" height="3.95"/><rect class="cls-5" x="308.84" y="168.59" width="89.16" height="5.39"/><polygon class="cls-3" points="307.1 173.98 399.32 173.98 398 175.2 308.84 175.2 307.1 173.98"/><polygon class="cls-3" points="305.96 166.04 400.45 166.04 398 168.59 308.84 168.59 305.96 166.04"/><rect class="cls-3" x="323.72" y="308.02" width="17.77" height="2.9"/><rect class="cls-3" x="363.71" y="308.02" width="17.77" height="2.9"/><rect class="cls-3" x="323.68" y="305.79" width="0.35" height="2.23"/><rect class="cls-3" x="363.69" y="305.79" width="0.35" height="2.23"/><rect class="cls-2" x="364.92" y="219.94" width="18.11" height="1.03"/><rect class="cls-2" x="382.65" y="220.08" width="8.14" height="1.78"/><rect class="cls-3" x="324.34" y="220.97" width="17.9" height="1.54" transform="translate(666.58 443.47) rotate(-180)"/><rect class="cls-3" x="324.01" y="222.51" width="0.65" height="1.26" transform="translate(648.68 446.27) rotate(-180)"/><rect class="cls-3" x="341.52" y="221.86" width="0.72" height="1.87" transform="translate(683.76 445.58) rotate(-180)"/><rect class="cls-2" x="324.13" y="219.94" width="18.11" height="1.03" transform="translate(666.37 440.9) rotate(-180)"/><rect class="cls-2" x="342.24" y="220.08" width="22.68" height="1.78"/><rect class="cls-5" x="365.62" y="193.77" width="16.38" height="26.17"/><rect class="cls-2" x="367.99" y="196.83" width="11.28" height="23.11"/><polygon class="cls-2" points="379.27 196.83 367.99 196.83 367.29 195.45 380.51 195.45 379.27 196.83"/><path class="cls-3" d="M372.17,198.21a.62.62,0,0,0-.57-.42c-.43,0-.39.32-.75.32s-.32-.34-.76-.34a.63.63,0,0,0-.57.43h-.75v20.88h.75a.61.61,0,0,0,.57.35c.43,0,.39-.38.76-.38s.32.38.75.38a.61.61,0,0,0,.57-.35H373V198.21Z"/><path class="cls-3" d="M377.62,198.21a.62.62,0,0,0-.57-.42c-.43,0-.39.32-.75.32s-.32-.34-.76-.34a.63.63,0,0,0-.57.43h-.75v20.88H375a.61.61,0,0,0,.57.35c.43,0,.39-.38.76-.38s.32.38.75.38a.61.61,0,0,0,.57-.35h.87V198.21Z"/><polygon class="cls-5" points="380.51 195.45 380.51 219.94 379.27 219.94 379.27 196.83 380.51 195.45"/><polygon class="cls-25" points="380.51 195.45 380.51 219.94 379.27 219.94 379.27 196.83 380.51 195.45"/><rect class="cls-2" x="365.62" y="193.77" width="16.38" height="26.17"/><rect class="cls-1" x="367.99" y="196.83" width="11.28" height="23.11"/><polygon class="cls-2" points="379.27 196.83 367.99 196.83 367.29 195.45 380.51 195.45 379.27 196.83"/><path class="cls-3" d="M372.17,198.21a.62.62,0,0,0-.57-.42c-.43,0-.39.32-.75.32s-.32-.34-.76-.34a.63.63,0,0,0-.57.43h-.75v20.88h.75a.61.61,0,0,0,.57.35c.43,0,.39-.38.76-.38s.32.38.75.38a.61.61,0,0,0,.57-.35H373V198.21Z"/><path class="cls-3" d="M377.62,198.21a.62.62,0,0,0-.57-.42c-.43,0-.39.32-.75.32s-.32-.34-.76-.34a.63.63,0,0,0-.57.43h-.75v20.88H375a.61.61,0,0,0,.57.35c.43,0,.39-.38.76-.38s.32.38.75.38a.61.61,0,0,0,.57-.35h.87V198.21Z"/><polygon class="cls-2" points="380.51 195.45 380.51 219.94 379.27 219.94 379.27 196.83 380.51 195.45"/><polygon class="cls-26" points="380.51 195.45 380.51 219.94 379.27 219.94 379.27 196.83 380.51 195.45"/><rect class="cls-2" x="325" y="193.77" width="16.38" height="26.17"/><rect class="cls-1" x="327.37" y="196.83" width="11.28" height="23.11"/><polygon class="cls-2" points="338.65 196.83 327.37 196.83 326.67 195.45 339.89 195.45 338.65 196.83"/><path class="cls-3" d="M331.55,198.21a.62.62,0,0,0-.57-.42c-.43,0-.39.32-.75.32s-.32-.34-.76-.34a.63.63,0,0,0-.57.43h-.75v20.88h.75a.61.61,0,0,0,.57.35c.43,0,.39-.38.76-.38s.32.38.75.38a.61.61,0,0,0,.57-.35h.87V198.21Z"/><path class="cls-3" d="M337,198.21a.62.62,0,0,0-.57-.42c-.43,0-.39.32-.75.32s-.32-.34-.76-.34a.63.63,0,0,0-.57.43h-.75v20.88h.75a.61.61,0,0,0,.57.35c.43,0,.39-.38.76-.38s.32.38.75.38a.61.61,0,0,0,.57-.35h.87V198.21Z"/><polygon class="cls-2" points="339.89 195.45 339.89 219.94 338.65 219.94 338.65 196.83 339.89 195.45"/><polygon class="cls-27" points="339.89 195.45 339.89 219.94 338.65 219.94 338.65 196.83 339.89 195.45"/><ellipse class="cls-2" cx="333.34" cy="188.07" rx="5.07" ry="6.7"/><path class="cls-1" d="M335.12,188.37a2.42,2.42,0,0,0-2-1.07h-.44a2.46,2.46,0,0,0-2.45,2.45v0a3,3,0,0,0,3.38,1.88c1.09-.28,1.45-1.32,1.58-2.4C335.18,189,335.15,188.67,335.12,188.37Z"/><rect class="cls-1" x="332.34" y="186.68" width="1.11" height="1.26"/><ellipse class="cls-1" cx="333.08" cy="185.69" rx="1.02" ry="1.44"/><ellipse class="cls-5" cx="333.48" cy="187.22" rx="3.75" ry="5.11"/><ellipse class="cls-2" cx="374.22" cy="188.07" rx="5.07" ry="6.7"/><path class="cls-1" d="M376,188.37a2.42,2.42,0,0,0-2-1.07h-.44a2.46,2.46,0,0,0-2.45,2.45v0a3,3,0,0,0,3.38,1.88c1.09-.28,1.45-1.32,1.58-2.4C376.06,189,376,188.67,376,188.37Z"/><rect class="cls-1" x="373.23" y="186.68" width="1.11" height="1.26"/><ellipse class="cls-1" cx="373.97" cy="185.69" rx="1.02" ry="1.44"/><ellipse class="cls-5" cx="374.36" cy="187.22" rx="3.75" ry="5.11"/><polygon class="cls-16" points="408.84 158.32 302.16 158.32 300.37 155.87 412.82 155.87 408.84 158.32"/><rect class="cls-1" x="348.46" y="153.91" width="9.57" height="2.05"/><path class="cls-3" d="M348.32,133.84h-.87L345.23,138a5.63,5.63,0,0,0,1,1.45,3.79,3.79,0,0,1,.08,1.23s-1,1-.27,1.56.68.65.74,1.18a2.23,2.23,0,0,0,.6,1.07V156h2.56s-.39-12.62-.36-13.46-.08-1.15.65-1.6a7.25,7.25,0,0,0,1.56-2.29l-.27-3.44Z"/><path class="cls-5" d="M357.37,139.06h.71a3.12,3.12,0,0,1,.56-1.57l.57-.87s.64-.53.3-1.06a3.08,3.08,0,0,0-1.32-.87s-1.15,0-1,1S357.37,139.06,357.37,139.06Z"/><path class="cls-2" d="M357.69,141.16l.76-4.09.68-2.15.45-1.38s-.4-.35-1-.9a1.38,1.38,0,0,0-1.59-.84l-7,.42-1.91,1.13a9.36,9.36,0,0,1,.81,3.27c0,.57,1.55-.16,1.55-.16s.88-.3.65,1.65c-.46,1.6-1,3-1,3Z"/><rect class="cls-1" x="348.93" y="140.74" width="8.78" height="13.17"/><path class="cls-2" d="M356.2,131.8s0-.57-.9-.66-.94-.37-1-.77a2.36,2.36,0,0,0-1-2,1.83,1.83,0,0,0-2.53.65c-.29.86-.53,2-.53,2s-.08.46-.82.78a1.17,1.17,0,0,0-.73,1l3.69-.59Z"/><rect class="cls-1" x="352.41" y="134.92" width="3.8" height="5.19" transform="translate(708.61 275.04) rotate(-180)"/><polygon class="cls-5" points="352.41 134.92 356.21 134.92 356.82 133.72 351.82 133.72 352.41 134.92"/><rect class="cls-1" x="351.82" y="132.98" width="5" height="0.73" transform="translate(708.64 266.7) rotate(-180)"/><polygon class="cls-5" points="356.2 140.12 355.3 141.16 351.8 141.16 352.41 140.12 356.2 140.12"/><rect class="cls-5" x="351.82" y="141.16" width="3.48" height="3.04" transform="translate(707.11 285.36) rotate(-180)"/><rect class="cls-3" x="351.82" y="132.64" width="5" height="0.34" transform="translate(708.64 265.63) rotate(-180)"/><rect class="cls-5" x="351.82" y="131.8" width="5" height="0.84" transform="translate(708.64 264.44) rotate(-180)"/><path class="cls-11" d="M302.16,158.32l-1.82-2.46-5.07,13.41,2.19,1-6.33,14.43a1.22,1.22,0,0,0,1.13.72L299,171.27Z"/><path class="cls-5" d="M298.81,227.78h8.7V166.9l-10.74,23.26s1.86,1.61,1.86,5.32S298.81,227.78,298.81,227.78Z"/><path class="cls-10" d="M296.77,190.16s-4.29-2.22-4.51-4.72L299,171.27l-2.25-1.42,5.39-11.53,2.13,2.73,3.23,5.84Z"/><path class="cls-2" d="M434.54,301.09s-2.07.46-2.4,1.95-.37,2.11,0,2.49.78.07,1.07.83c0,0-.48-.2-.41,1.68s.63,1.52.63,1.52a6.5,6.5,0,0,1,.07,2c-.13,1.09.13,2.47.46,2.41l1.32-.23v-4.22s.63-.33.63.23a14.75,14.75,0,0,1-.36,3.26c-.26.73.08,1,.08,1s1.08-.28,1.18-.28a11.17,11.17,0,0,0,.55-2.66,15.47,15.47,0,0,0-.26-2.12s1.74-.31.71-3.63-1.2-4.17-1.2-4.17Z"/><path class="cls-5" d="M433.72,303l-.17,1.85s-.36-.39-.36-.63A5.83,5.83,0,0,1,433.72,303Z"/><rect class="cls-2" x="434.12" y="313.54" width="0.93" height="1.55"/><rect class="cls-2" x="432.65" y="314.79" width="6.65" height="1.2"/><path class="cls-2" d="M435,314s1.74.47,1.79.87-2.25.24-2.25.24Z"/><path class="cls-2" d="M435.6,313.67l.15,1.73,2.16.07a1.41,1.41,0,0,0-.38-1.11c-.46-.43-.78-.69-.78-.69Z"/><path class="cls-2" d="M436.49,303l.8.64,1.25-.64s.34-.16,0-.76-.65-1.09-1.14-1.17a8.07,8.07,0,0,0-1.44,0Z"/><path class="cls-2" d="M438.33,302.59a15.49,15.49,0,0,0,.65,2.52c.37,1,.67,2,.19,2.49a1,1,0,0,1-1.18.07.82.82,0,0,1,.41-1c.33-.32-1-3.4-1-3.4Z"/><path class="cls-2" d="M434,299.34a1.46,1.46,0,0,1,1.65-1c1.31.17,1,1,1,1l-.32.23s.12,1-.26,1.28a1.05,1.05,0,0,1-1.28-.17c-.12-.23-.17-.93-.46-1.13Z"/><path class="cls-5" d="M436.09,300.84s0,.86-.57.83c-.32,0-.53-.53-1.17-.52a1.13,1.13,0,0,1,.5-.32A4.59,4.59,0,0,1,436.09,300.84Z"/><path class="cls-5" d="M435.44,300.89a9.58,9.58,0,0,0-.87-1.2.48.48,0,0,0-.33-.44l-.19.1a2.5,2.5,0,0,1,.61.86,1.39,1.39,0,0,0,.27.77C435.12,301.09,435.44,300.89,435.44,300.89Z"/><path class="cls-5" d="M434,299.34a1.44,1.44,0,0,1,1.65-1c1.31.2,1,1,1,1l-.16.12s.34-.79-.82-.95a1.23,1.23,0,0,0-1.44.73"/><rect class="cls-3" x="395.61" y="299.44" width="1.29" height="1.44"/><path class="cls-16" d="M394.24,309.69a4.36,4.36,0,0,1-.27,2.79,3,3,0,0,0,0,2.65s.19-.67.58-.7a12.73,12.73,0,0,0,2,.24c.77-.09,1.08-1,1.11-1.23a8.83,8.83,0,0,0,.82-1.93c0-.65.13-2.6-.49-3S394.24,309.69,394.24,309.69Z"/><path class="cls-3" d="M394.33,309.69a4.36,4.36,0,0,1-.27,2.79,3,3,0,0,0,0,2.65s.19-.67.58-.7a12.73,12.73,0,0,0,2,.24c.77-.09,1.08-1,1.11-1.23a8.83,8.83,0,0,0,.82-1.93c0-.65.13-2.6-.49-3S394.33,309.69,394.33,309.69Z"/><path class="cls-5" d="M398.39,303.67a2.32,2.32,0,0,0,2,.28c.74-.56,1.12-.61,1.23-.42s.16.95-.95,1.34a3.25,3.25,0,0,1-1,.22s.08,2.48-1.08,3.08S398.39,303.67,398.39,303.67Z"/><path class="cls-16" d="M395.91,311.6h-.4c-1.34,0-2.43-2.36-2.43-3.74v-4.45c0-1.39,1.09-3,2.43-3h.4c1.34,0,2.49,1.75,2.49,3.14l-.06,4.92C397,310.42,397.25,311.6,395.91,311.6Z"/><path class="cls-5" d="M396.14,311.6h-.4c-1.34,0-2.43-2.36-2.43-3.74v-4.45c0-1.39,1.09-3,2.43-3h.4c1.34,0,2.49,1.75,2.49,3.14l-.06,4.92C397.18,310.42,397.48,311.6,396.14,311.6Z"/><ellipse class="cls-3" cx="396.3" cy="299.04" rx="0.96" ry="1.17"/><path class="cls-5" d="M394.84,313.8s-.07.77.23,1,.4.19.35.33-1.46.14-1.46.14a2,2,0,0,1,.21-1.4C394.57,313.42,394.84,313.8,394.84,313.8Z"/><rect class="cls-5" x="393.51" y="314.92" width="6.65" height="1.2"/><path class="cls-3" d="M395.14,300.51s.77.68,1,.68h.26s.92-.5.73-.61A13.88,13.88,0,0,0,395.14,300.51Z"/><polygon class="cls-3" points="395.61 300.35 395.14 300.51 396.3 300.88 396.9 300.54 396.3 300.21 395.61 300.35"/><rect class="cls-16" x="395.57" y="299.44" width="1.29" height="1.44"/><ellipse class="cls-16" cx="396.25" cy="299.04" rx="0.96" ry="1.17"/><polygon class="cls-16" points="395.5 300.35 395.03 300.51 396.19 300.88 396.79 300.54 396.19 300.21 395.5 300.35"/><rect class="cls-3" x="395.61" y="299.44" width="1.29" height="1.44"/><ellipse class="cls-3" cx="396.3" cy="299.04" rx="0.96" ry="1.17"/><path class="cls-3" d="M395.09,300.53s.82.66,1.08.66h.26s.92-.5.73-.61A14.29,14.29,0,0,0,395.09,300.53Z"/><polygon class="cls-3" points="395.61 300.35 395.09 300.53 396.3 300.88 396.9 300.54 396.3 300.21 395.61 300.35"/><path class="cls-3" d="M393.85,304.57s1.24,1.1.77,1.88,0,.6,0,.6a5.93,5.93,0,0,0,.11,3.13,2.61,2.61,0,0,1-.9-1.95Z"/><path class="cls-5" d="M398.34,308.77a10,10,0,0,1-1.19,3.79c-.19.44-.2.66,0,.53a9,9,0,0,0,1.59-2.75A9.59,9.59,0,0,0,398.34,308.77Z"/><path class="cls-5" d="M396.3,314s-.15,1.3.31,1.3h1.6s.58-.11-.32-.36a1.3,1.3,0,0,1-1-.95S396.69,313.66,396.3,314Z"/><path class="cls-3" d="M399.65,305.1s.09,2-.72,2.8c-.21,0,.19-.55.19-.55a4.61,4.61,0,0,0,.31-2.25Z"/><rect class="cls-1" x="64.13" y="167.29" width="90.39" height="164.57" transform="translate(218.64 499.16) rotate(-180)"/><rect class="cls-1" x="30.88" y="290.89" width="33.24" height="40.97" transform="translate(95.01 622.76) rotate(-180)"/><rect class="cls-1" x="23.12" y="289.53" width="7.76" height="42.34" transform="translate(54 621.4) rotate(-180)"/><rect class="cls-2" x="23.12" y="318.49" width="7.76" height="9.9" transform="translate(54 646.89) rotate(-180)"/><rect class="cls-28" x="23.12" y="318.49" width="7.76" height="9.9" transform="translate(54 646.89) rotate(-180)"/><rect class="cls-29" x="23.12" y="318.49" width="7.76" height="9.9"/><rect class="cls-30" x="23.12" y="289.53" width="7.76" height="9.9"/><rect class="cls-2" x="30.88" y="287.36" width="33.24" height="3.53" transform="translate(95.01 578.26) rotate(-180)"/><rect class="cls-2" x="22.02" y="287.36" width="8.86" height="2.17" transform="translate(52.9 576.89) rotate(-180)"/><rect class="cls-1" x="24.81" y="286.25" width="5.35" height="1.12" transform="translate(54.98 573.61) rotate(-180)"/><rect class="cls-2" x="24.81" y="285.69" width="5.35" height="0.56" transform="translate(54.98 571.93) rotate(-180)"/><rect class="cls-1" x="25.44" y="281.8" width="4.1" height="3.89" transform="translate(54.98 567.49) rotate(-180)"/><polygon class="cls-20" points="25.44 281.8 29.54 281.8 30.28 281.32 24.7 281.32 25.44 281.8"/><rect class="cls-20" x="24.7" y="281.01" width="5.58" height="0.31" transform="translate(54.98 562.33) rotate(-180)"/><polygon class="cls-20" points="28.67 266.53 26.31 266.53 25.44 281.01 29.54 281.01 28.67 266.53"/><polygon class="cls-16" points="49.21 155.87 61.57 166.03 62.58 166.03 53.18 158.32 49.21 155.87"/><polygon class="cls-20" points="27.27 264.81 27.71 264.81 28.67 266.53 26.31 266.53 27.27 264.81"/><polygon class="cls-5" points="159.87 158.32 53.18 158.32 63.17 167.29 154.51 167.29 159.87 158.32"/><rect class="cls-2" x="43.24" y="296.48" width="15.94" height="12.25" transform="translate(102.42 605.2) rotate(-180)"/><rect class="cls-16" x="45.75" y="298.54" width="10.92" height="7.97" transform="translate(102.42 605.05) rotate(-180)"/><rect class="cls-2" x="22.22" y="315.97" width="9.57" height="0.81" transform="translate(54 632.76) rotate(-180)"/><rect class="cls-2" x="22.22" y="330.13" width="9.57" height="1.74" transform="translate(54 662) rotate(-180)"/><polygon class="cls-2" points="30.88 328.39 23.12 328.39 22.22 330.13 31.79 330.13 30.88 328.39"/><polygon class="cls-31" points="30.88 328.39 23.12 328.39 22.22 330.13 31.79 330.13 30.88 328.39"/><polyline class="cls-2" points="31.79 331.87 31.79 330.13 22.22 330.13"/><polygon class="cls-2" points="31.79 316.79 22.22 316.79 23.12 318.49 30.88 318.49 31.79 316.79"/><rect class="cls-2" x="62.26" y="318.49" width="7.76" height="9.9" transform="translate(132.29 646.89) rotate(-180)"/><rect class="cls-32" x="62.26" y="318.49" width="7.76" height="9.9" transform="translate(132.29 646.89) rotate(-180)"/><rect class="cls-33" x="62.26" y="318.49" width="7.76" height="9.9"/><rect class="cls-2" x="61.36" y="315.97" width="9.57" height="0.81" transform="translate(132.29 632.76) rotate(-180)"/><rect class="cls-2" x="61.36" y="330.13" width="9.57" height="1.74" transform="translate(132.29 662) rotate(-180)"/><polygon class="cls-2" points="70.03 328.39 62.26 328.39 61.36 330.13 70.93 330.13 70.03 328.39"/><polygon class="cls-34" points="70.03 328.39 62.26 328.39 61.36 330.13 70.93 330.13 70.03 328.39"/><polyline class="cls-2" points="70.93 331.87 70.93 330.13 61.36 330.13"/><polygon class="cls-2" points="70.93 316.79 61.36 316.79 62.26 318.49 70.03 318.49 70.93 316.79"/><rect class="cls-2" x="121.56" y="319.77" width="15.54" height="8.82" transform="translate(258.66 648.35) rotate(-180)"/><rect class="cls-16" x="123.47" y="320.85" width="11.72" height="6.65" transform="translate(258.66 648.35) rotate(-180)"/><rect class="cls-5" x="83.24" y="318.49" width="11.2" height="12.51" transform="translate(177.67 649.49) rotate(-180)"/><rect class="cls-2" x="67.43" y="253.13" width="84.6" height="4.35" transform="translate(219.46 510.62) rotate(-180)"/><rect class="cls-2" x="67.43" y="228.62" width="87.42" height="2.77" transform="translate(222.28 460.01) rotate(-180)"/><rect class="cls-2" x="67.43" y="314.14" width="87.42" height="4.35" transform="translate(222.28 632.63) rotate(-180)"/><rect class="cls-3" x="71.5" y="257.23" width="74.36" height="2.64" transform="translate(217.36 517.1) rotate(-180)"/><rect class="cls-3" x="70.28" y="231.14" width="76.81" height="2.64" transform="translate(217.38 464.92) rotate(-180)"/><rect class="cls-3" x="71.24" y="221.85" width="8.14" height="0.93" transform="translate(150.61 444.64) rotate(-180)"/><rect class="cls-3" x="79.38" y="220.97" width="17.73" height="1.54" transform="translate(176.48 443.47) rotate(-180)"/><rect class="cls-3" x="97.45" y="221.85" width="22.33" height="0.77" transform="translate(217.24 444.48) rotate(-180)"/><rect class="cls-3" x="79.38" y="222.5" width="0.65" height="1.26" transform="translate(159.4 446.26) rotate(-180)"/><rect class="cls-3" x="96.73" y="221.85" width="0.72" height="1.87" transform="translate(194.19 445.57) rotate(-180)"/><rect class="cls-3" x="80.3" y="280.24" width="17.67" height="25.56" transform="translate(178.28 586.03) rotate(-180)"/><rect class="cls-10" x="83.5" y="282.9" width="10.73" height="22.91" transform="translate(177.73 588.71) rotate(-180)"/><rect class="cls-5" x="88.24" y="282.9" width="1.19" height="22.91" transform="translate(177.66 588.71) rotate(-180)"/><polygon class="cls-10" points="80.31 280.24 97.98 280.24 98.67 278.14 79.61 278.14 80.31 280.24"/><polygon class="cls-2" points="80.31 276.93 97.98 276.93 98.67 278.14 79.61 278.14 80.31 276.93"/><polygon class="cls-2" points="97.98 276.93 99.91 278.68 98.67 278.14 97.98 276.93"/><polygon class="cls-16" points="99.91 278.68 97.98 280.24 98.67 278.14 99.91 278.68"/><polygon class="cls-2" points="80.31 276.93 78.37 278.68 79.61 278.14 80.31 276.93"/><polygon class="cls-16" points="78.37 278.68 80.31 280.24 79.61 278.14 78.37 278.68"/><rect class="cls-3" x="120.32" y="280.24" width="17.67" height="25.56" transform="translate(258.31 586.03) rotate(-180)"/><rect class="cls-10" x="123.51" y="282.9" width="10.73" height="22.91" transform="translate(257.75 588.71) rotate(-180)"/><rect class="cls-5" x="128.25" y="282.9" width="1.19" height="22.91" transform="translate(257.69 588.71) rotate(-180)"/><polygon class="cls-10" points="120.32 280.24 137.99 280.24 138.68 278.14 119.62 278.14 120.32 280.24"/><polygon class="cls-2" points="120.32 276.93 137.99 276.93 138.68 278.14 119.62 278.14 120.32 276.93"/><polygon class="cls-2" points="137.99 276.93 139.93 278.68 138.68 278.14 137.99 276.93"/><polygon class="cls-16" points="139.93 278.68 137.99 280.24 138.68 278.14 139.93 278.68"/><polygon class="cls-2" points="120.32 276.93 118.38 278.68 119.63 278.14 120.32 276.93"/><polygon class="cls-16" points="118.38 278.68 120.32 280.24 119.62 278.14 118.38 278.68"/><rect class="cls-5" x="69.71" y="181.32" width="77.09" height="1.57" transform="translate(216.51 364.21) rotate(-180)"/><rect class="cls-3" x="137.68" y="221.86" width="9.52" height="0.93"/><rect class="cls-3" x="42.6" y="308.58" width="16.67" height="0.58" transform="translate(101.86 617.74) rotate(-180)"/><rect class="cls-10" x="152.3" y="167.32" width="2.32" height="14" transform="translate(306.92 348.63) rotate(-180)"/><rect class="cls-3" x="72.79" y="307.79" width="72.79" height="0.46" transform="translate(218.38 616.04) rotate(-180)"/><rect class="cls-2" x="69.71" y="179.15" width="83.47" height="2.17" transform="translate(222.89 360.47) rotate(-180)"/><rect class="cls-2" x="137.68" y="220.08" width="9.52" height="1.78"/><rect class="cls-5" x="64.09" y="256.33" width="7.83" height="54.35" transform="translate(136 567.01) rotate(-180)"/><rect class="cls-2" x="62.77" y="257.78" width="10.02" height="4.19" transform="translate(135.56 519.75) rotate(-180)"/><rect class="cls-2" x="62.77" y="263.87" width="10.02" height="4.19" transform="translate(135.56 531.92) rotate(-180)"/><rect class="cls-2" x="62.77" y="269.95" width="10.02" height="4.19" transform="translate(135.56 544.1) rotate(-180)"/><rect class="cls-2" x="62.77" y="276.04" width="10.02" height="4.19" transform="translate(135.56 556.28) rotate(-180)"/><rect class="cls-2" x="62.77" y="282.13" width="10.02" height="4.19" transform="translate(135.56 568.46) rotate(-180)"/><rect class="cls-2" x="62.77" y="288.22" width="10.02" height="4.19" transform="translate(135.56 580.63) rotate(-180)"/><rect class="cls-2" x="62.77" y="294.31" width="10.02" height="4.19" transform="translate(135.56 592.81) rotate(-180)"/><rect class="cls-2" x="62.77" y="300.4" width="10.02" height="4.19" transform="translate(135.56 604.99) rotate(-180)"/><rect class="cls-2" x="62.77" y="306.49" width="10.02" height="4.19" transform="translate(135.56 617.17) rotate(-180)"/><polygon class="cls-5" points="62.77 311.15 72.79 311.15 71.91 310.68 64.09 310.68 62.77 311.15"/><rect class="cls-3" x="64.09" y="255.05" width="7.83" height="1.28" transform="translate(136 511.38) rotate(-180)"/><polygon class="cls-3" points="64.09 255.05 71.91 255.05 73.67 253.35 62.32 253.35 64.09 255.05"/><rect class="cls-16" x="63.8" y="233.15" width="7.22" height="20.2" transform="translate(134.83 486.49) rotate(-180)"/><rect class="cls-2" x="63.71" y="233.15" width="8.21" height="2.93" transform="translate(135.62 469.23) rotate(-180)"/><rect class="cls-2" x="63.71" y="236.45" width="7.37" height="3.1" transform="translate(134.78 476.01) rotate(-180)"/><rect class="cls-2" x="63.71" y="239.88" width="8.21" height="3.37" transform="translate(135.62 483.13) rotate(-180)"/><rect class="cls-2" x="63.71" y="247.05" width="8.21" height="3.37" transform="translate(135.62 497.46) rotate(-180)"/><rect class="cls-2" x="63.71" y="243.63" width="7.37" height="3.1" transform="translate(134.78 490.36) rotate(-180)"/><path class="cls-2" d="M63.25,250.85h8.66a0,0,0,0,1,0,0V253a.37.37,0,0,1-.37.37H63.63a.37.37,0,0,1-.37-.37v-2.12A0,0,0,0,1,63.25,250.85Z" transform="translate(135.17 504.19) rotate(-180)"/><rect class="cls-2" x="62.77" y="311.15" width="10.02" height="5.44" transform="translate(135.56 627.75) rotate(-180)"/><rect class="cls-3" x="64.09" y="232.36" width="6.94" height="0.79" transform="translate(135.11 465.51) rotate(-180)"/><polygon class="cls-10" points="64.11 232.36 71.05 232.36 71.91 230.81 62.32 230.81 64.11 232.36"/><rect class="cls-5" x="69.92" y="219.94" width="0.87" height="6.69" transform="translate(140.71 446.57) rotate(-180)"/><rect class="cls-2" x="62.02" y="228.11" width="9.9" height="2.69" transform="translate(133.93 458.92) rotate(-180)"/><rect class="cls-2" x="63.44" y="219.94" width="7.18" height="1.67" transform="translate(134.07 441.55) rotate(-180)"/><polygon class="cls-10" points="64.02 222.5 70.63 222.5 70.63 221.61 63.44 221.61 64.02 222.5"/><rect class="cls-5" x="70.8" y="226.63" width="0.87" height="1.48" transform="translate(142.47 454.75) rotate(-180)"/><rect class="cls-2" x="64.09" y="226.63" width="7.41" height="1.48" transform="translate(135.59 454.75) rotate(-180)"/><rect class="cls-2" x="64.02" y="222.5" width="6.61" height="4.13" transform="translate(134.65 449.13) rotate(-180)"/><rect class="cls-5" x="69.75" y="179.15" width="0.71" height="40.79" transform="translate(140.21 399.09) rotate(-180)"/><rect class="cls-2" x="64.02" y="179.15" width="6.22" height="40.79" transform="translate(134.26 399.09) rotate(-180)"/><rect class="cls-5" x="145.73" y="256.33" width="7.83" height="54.35"/><rect class="cls-2" x="144.85" y="257.78" width="10.02" height="4.19"/><rect class="cls-2" x="144.85" y="263.87" width="10.02" height="4.19"/><rect class="cls-2" x="144.85" y="269.95" width="10.02" height="4.19"/><rect class="cls-2" x="144.85" y="276.04" width="10.02" height="4.19"/><rect class="cls-2" x="144.85" y="282.13" width="10.02" height="4.19"/><rect class="cls-2" x="144.85" y="288.22" width="10.02" height="4.19"/><rect class="cls-2" x="144.85" y="294.31" width="10.02" height="4.19"/><rect class="cls-2" x="144.85" y="300.4" width="10.02" height="4.19"/><rect class="cls-2" x="144.85" y="306.49" width="10.02" height="4.19"/><polygon class="cls-5" points="154.87 311.15 144.85 311.15 145.73 310.68 153.56 310.68 154.87 311.15"/><rect class="cls-3" x="145.73" y="255.05" width="7.83" height="1.28"/><polygon class="cls-3" points="153.56 255.05 145.73 255.05 143.98 253.35 155.33 253.35 153.56 255.05"/><rect class="cls-16" x="146.62" y="233.15" width="7.22" height="20.2"/><rect class="cls-2" x="145.73" y="233.15" width="8.21" height="2.93"/><rect class="cls-2" x="146.57" y="236.45" width="7.37" height="3.1"/><rect class="cls-2" x="145.73" y="239.88" width="8.21" height="3.37"/><rect class="cls-2" x="145.73" y="247.05" width="8.21" height="3.37"/><rect class="cls-2" x="146.57" y="243.63" width="7.37" height="3.1"/><path class="cls-2" d="M146.11,250.85H154a.37.37,0,0,1,.37.37v2.12a0,0,0,0,1,0,0h-8.66a0,0,0,0,1,0,0v-2.12A.37.37,0,0,1,146.11,250.85Z"/><rect class="cls-2" x="144.85" y="311.15" width="10.02" height="5.44"/><rect class="cls-3" x="146.62" y="232.36" width="6.94" height="0.79"/><polygon class="cls-10" points="153.53 232.36 146.59 232.36 145.73 230.81 155.33 230.81 153.53 232.36"/><rect class="cls-5" x="146.41" y="219.94" width="0.87" height="6.69"/><rect class="cls-2" x="145.73" y="228.11" width="9.9" height="2.69"/><rect class="cls-2" x="146.57" y="219.94" width="7.18" height="1.67"/><polygon class="cls-10" points="152.95 222.5 146.57 222.5 146.57 221.61 153.76 221.61 152.95 222.5"/><rect class="cls-5" x="145.98" y="226.63" width="0.87" height="1.48"/><rect class="cls-2" x="146.15" y="226.63" width="7.41" height="1.48"/><rect class="cls-2" x="146.57" y="222.5" width="6.61" height="4.13"/><rect class="cls-5" x="146.74" y="179.15" width="0.71" height="40.79"/><rect class="cls-2" x="146.96" y="179.15" width="6.22" height="40.79"/><rect class="cls-3" x="145.73" y="228.11" width="9.9" height="0.75"/><rect class="cls-5" x="64.02" y="175.2" width="89.16" height="3.95" transform="translate(217.2 354.35) rotate(-180)"/><rect class="cls-5" x="64.02" y="168.59" width="89.16" height="5.39" transform="translate(217.2 342.57) rotate(-180)"/><polygon class="cls-3" points="154.93 173.98 62.7 173.98 64.02 175.2 153.18 175.2 154.93 173.98"/><polygon class="cls-3" points="156.06 166.04 61.57 166.04 64.02 168.59 153.18 168.59 156.06 166.04"/><rect class="cls-3" x="120.54" y="308.02" width="17.77" height="2.9" transform="translate(258.84 618.94) rotate(-180)"/><rect class="cls-3" x="80.54" y="308.02" width="17.77" height="2.9" transform="translate(178.86 618.94) rotate(-180)"/><rect class="cls-3" x="137.99" y="305.79" width="0.35" height="2.23" transform="translate(276.34 613.81) rotate(-180)"/><rect class="cls-3" x="97.98" y="305.79" width="0.35" height="2.23" transform="translate(196.31 613.81) rotate(-180)"/><rect class="cls-2" x="78.99" y="219.94" width="18.11" height="1.03" transform="translate(176.09 440.9) rotate(-180)"/><rect class="cls-2" x="71.24" y="220.08" width="8.14" height="1.78" transform="translate(150.61 441.93) rotate(-180)"/><rect class="cls-3" x="119.78" y="220.97" width="17.9" height="1.54"/><rect class="cls-3" x="137.36" y="222.51" width="0.65" height="1.26"/><rect class="cls-3" x="119.78" y="221.86" width="0.72" height="1.87"/><rect class="cls-2" x="119.78" y="219.94" width="18.11" height="1.03"/><rect class="cls-2" x="97.1" y="220.08" width="22.68" height="1.78" transform="translate(216.88 441.93) rotate(-180)"/><rect class="cls-5" x="80.03" y="193.77" width="16.38" height="26.17" transform="translate(176.44 413.71) rotate(-180)"/><rect class="cls-2" x="82.75" y="196.83" width="11.28" height="23.11" transform="translate(176.78 416.77) rotate(-180)"/><polygon class="cls-2" points="82.75 196.83 94.03 196.83 94.73 195.45 81.52 195.45 82.75 196.83"/><path class="cls-3" d="M89.85,198.21a.62.62,0,0,1,.57-.42c.43,0,.39.32.75.32s.32-.34.76-.34a.63.63,0,0,1,.57.43h.75v20.88H92.5a.61.61,0,0,1-.57.35c-.43,0-.39-.38-.76-.38s-.32.38-.75.38a.61.61,0,0,1-.57-.35H89V198.21Z"/><path class="cls-3" d="M84.41,198.21a.62.62,0,0,1,.57-.42c.43,0,.39.32.75.32s.32-.34.76-.34a.63.63,0,0,1,.57.43h.75v20.88h-.75a.61.61,0,0,1-.57.35c-.43,0-.39-.38-.76-.38s-.32.38-.75.38a.61.61,0,0,1-.57-.35h-.87V198.21Z"/><polygon class="cls-5" points="81.52 195.45 81.52 219.94 82.75 219.94 82.75 196.83 81.52 195.45"/><polygon class="cls-35" points="81.52 195.45 81.52 219.94 82.75 219.94 82.75 196.83 81.52 195.45"/><rect class="cls-2" x="80.03" y="193.77" width="16.38" height="26.17" transform="translate(176.44 413.71) rotate(-180)"/><rect class="cls-1" x="82.75" y="196.83" width="11.28" height="23.11" transform="translate(176.78 416.77) rotate(-180)"/><polygon class="cls-2" points="82.75 196.83 94.03 196.83 94.73 195.45 81.52 195.45 82.75 196.83"/><path class="cls-3" d="M89.85,198.21a.62.62,0,0,1,.57-.42c.43,0,.39.32.75.32s.32-.34.76-.34a.63.63,0,0,1,.57.43h.75v20.88H92.5a.61.61,0,0,1-.57.35c-.43,0-.39-.38-.76-.38s-.32.38-.75.38a.61.61,0,0,1-.57-.35H89V198.21Z"/><path class="cls-3" d="M84.41,198.21a.62.62,0,0,1,.57-.42c.43,0,.39.32.75.32s.32-.34.76-.34a.63.63,0,0,1,.57.43h.75v20.88h-.75a.61.61,0,0,1-.57.35c-.43,0-.39-.38-.76-.38s-.32.38-.75.38a.61.61,0,0,1-.57-.35h-.87V198.21Z"/><polygon class="cls-2" points="81.52 195.45 81.52 219.94 82.75 219.94 82.75 196.83 81.52 195.45"/><polygon class="cls-36" points="81.52 195.45 81.52 219.94 82.75 219.94 82.75 196.83 81.52 195.45"/><rect class="cls-2" x="120.65" y="193.77" width="16.38" height="26.17" transform="translate(257.67 413.71) rotate(-180)"/><rect class="cls-1" x="123.37" y="196.83" width="11.28" height="23.11" transform="translate(258.02 416.77) rotate(-180)"/><polygon class="cls-2" points="123.37 196.83 134.65 196.83 135.35 195.45 122.14 195.45 123.37 196.83"/><path class="cls-3" d="M130.47,198.21a.62.62,0,0,1,.57-.42c.43,0,.39.32.75.32s.32-.34.76-.34a.63.63,0,0,1,.57.43h.75v20.88h-.75a.61.61,0,0,1-.57.35c-.43,0-.39-.38-.76-.38s-.32.38-.75.38a.61.61,0,0,1-.57-.35h-.87V198.21Z"/><path class="cls-3" d="M125,198.21a.62.62,0,0,1,.57-.42c.43,0,.39.32.75.32s.32-.34.76-.34a.63.63,0,0,1,.57.43h.75v20.88h-.75a.61.61,0,0,1-.57.35c-.43,0-.39-.38-.76-.38s-.32.38-.75.38a.61.61,0,0,1-.57-.35h-.87V198.21Z"/><polygon class="cls-2" points="122.14 195.45 122.14 219.94 123.37 219.94 123.37 196.83 122.14 195.45"/><polygon class="cls-37" points="122.14 195.45 122.14 219.94 123.37 219.94 123.37 196.83 122.14 195.45"/><ellipse class="cls-2" cx="128.68" cy="188.07" rx="5.07" ry="6.7"/><path class="cls-1" d="M126.9,188.37a2.42,2.42,0,0,1,2-1.07h.44a2.46,2.46,0,0,1,2.45,2.45v0a3,3,0,0,1-3.38,1.88c-1.09-.28-1.45-1.32-1.58-2.4C126.84,189,126.87,188.67,126.9,188.37Z"/><rect class="cls-1" x="128.57" y="186.68" width="1.11" height="1.26" transform="translate(258.24 374.63) rotate(-180)"/><ellipse class="cls-1" cx="128.94" cy="185.69" rx="1.02" ry="1.44"/><ellipse class="cls-5" cx="128.54" cy="187.22" rx="3.75" ry="5.11"/><ellipse class="cls-2" cx="87.8" cy="188.07" rx="5.07" ry="6.7"/><path class="cls-1" d="M86,188.37a2.42,2.42,0,0,1,2-1.07h.44a2.46,2.46,0,0,1,2.45,2.45v0a3,3,0,0,1-3.38,1.88c-1.09-.28-1.45-1.32-1.58-2.4C86,189,86,188.67,86,188.37Z"/><rect class="cls-1" x="87.69" y="186.68" width="1.11" height="1.26" transform="translate(176.48 374.63) rotate(-180)"/><ellipse class="cls-1" cx="88.06" cy="185.69" rx="1.02" ry="1.44"/><ellipse class="cls-5" cx="87.66" cy="187.22" rx="3.75" ry="5.11"/><polygon class="cls-16" points="53.18 158.32 159.87 158.32 161.66 155.87 49.21 155.87 53.18 158.32"/><rect class="cls-1" x="104" y="153.91" width="9.57" height="2.05" transform="translate(217.56 309.87) rotate(-180)"/><path class="cls-3" d="M113.71,133.84h.87l2.22,4.12a5.63,5.63,0,0,1-1,1.45,3.79,3.79,0,0,0-.08,1.23s1,1,.27,1.56-.68.65-.74,1.18a2.23,2.23,0,0,1-.6,1.07V156h-2.56s.39-12.62.36-13.46.08-1.15-.65-1.6a7.25,7.25,0,0,1-1.56-2.29l.27-3.44Z"/><path class="cls-5" d="M104.65,139.06h-.71a3.12,3.12,0,0,0-.56-1.57l-.57-.87s-.64-.53-.3-1.06a3.08,3.08,0,0,1,1.32-.87s1.15,0,1,1S104.65,139.06,104.65,139.06Z"/><path class="cls-2" d="M104.33,141.16l-.76-4.09-.68-2.15-.45-1.38s.4-.35,1-.9a1.38,1.38,0,0,1,1.59-.84l7,.42,1.91,1.13a9.36,9.36,0,0,0-.81,3.27c0,.57-1.55-.16-1.55-.16s-.88-.3-.65,1.65c.46,1.6,1,3,1,3Z"/><rect class="cls-1" x="104.31" y="140.74" width="8.78" height="13.17" transform="translate(217.41 294.64) rotate(-180)"/><path class="cls-2" d="M105.82,131.8s0-.57.9-.66.94-.37,1-.77a2.36,2.36,0,0,1,1-2,1.83,1.83,0,0,1,2.53.65c.29.86.53,2,.53,2s.08.46.82.78a1.17,1.17,0,0,1,.73,1l-3.69-.59Z"/><rect class="cls-1" x="105.81" y="134.92" width="3.8" height="5.19"/><polygon class="cls-5" points="109.62 134.92 105.81 134.92 105.2 133.72 110.2 133.72 109.62 134.92"/><rect class="cls-1" x="105.2" y="132.98" width="5" height="0.73"/><polygon class="cls-5" points="105.83 140.12 106.73 141.16 110.23 141.16 109.62 140.12 105.83 140.12"/><rect class="cls-5" x="106.73" y="141.16" width="3.48" height="3.04"/><rect class="cls-3" x="105.2" y="132.64" width="5" height="0.34"/><rect class="cls-5" x="105.2" y="131.8" width="5" height="0.84"/><path class="cls-11" d="M159.87,158.32l1.79-2.46,5.07,13.41-2.19,1,6.33,14.43a1.22,1.22,0,0,1-1.13.72L163,171.27Z"/><path class="cls-5" d="M163.18,227.78h-8.7V166.9l10.74,23.26s-1.86,1.61-1.86,5.32S163.18,227.78,163.18,227.78Z"/><path class="cls-10" d="M165.22,190.16s4.29-2.22,4.51-4.72L163,171.27l2.25-1.42-5.36-11.53-2.16,2.73-3.23,5.84Z"/><path class="cls-2" d="M24.87,301.09s2.07.46,2.4,1.95.37,2.11,0,2.49-.78.07-1.07.83c0,0,.48-.2.41,1.68s-.63,1.52-.63,1.52a6.5,6.5,0,0,0-.07,2c.13,1.09-.13,2.47-.46,2.41l-1.32-.23v-4.22s-.63-.33-.63.23a14.75,14.75,0,0,0,.36,3.26c.26.73-.08,1-.08,1s-1.08-.28-1.18-.28a11.17,11.17,0,0,1-.55-2.66,15.47,15.47,0,0,1,.26-2.12s-1.74-.31-.71-3.63,1.2-4.17,1.2-4.17Z"/><path class="cls-5" d="M25.69,303l.17,1.85s.36-.39.36-.63A5.83,5.83,0,0,0,25.69,303Z"/><rect class="cls-2" x="24.36" y="313.54" width="0.93" height="1.55" transform="translate(49.66 628.64) rotate(-180)"/><rect class="cls-2" x="20.11" y="314.79" width="6.65" height="1.2" transform="translate(46.87 630.78) rotate(-180)"/><path class="cls-2" d="M24.36,314s-1.74.47-1.79.87,2.25.24,2.25.24Z"/><path class="cls-2" d="M23.81,313.67l-.15,1.73-2.16.07a1.41,1.41,0,0,1,.38-1.11c.46-.43.78-.69.78-.69Z"/><path class="cls-2" d="M22.92,303l-.8.64L20.87,303s-.34-.16,0-.76.65-1.09,1.14-1.17a8.07,8.07,0,0,1,1.44,0Z"/><path class="cls-2" d="M21.08,302.59a15.49,15.49,0,0,1-.65,2.52c-.37,1-.67,2-.19,2.49a1,1,0,0,0,1.18.07.82.82,0,0,0-.41-1c-.33-.32,1-3.4,1-3.4Z"/><path class="cls-2" d="M25.37,299.34a1.46,1.46,0,0,0-1.65-1c-1.31.17-1,1-1,1l.32.23s-.12,1,.26,1.28a1.05,1.05,0,0,0,1.28-.17c.12-.23.17-.93.46-1.13Z"/><path class="cls-5" d="M23.32,300.84s0,.86.57.83c.32,0,.53-.53,1.17-.52a1.13,1.13,0,0,0-.5-.32A4.59,4.59,0,0,0,23.32,300.84Z"/><path class="cls-5" d="M24,300.89a9.58,9.58,0,0,1,.87-1.2.48.48,0,0,1,.33-.44l.19.1a2.5,2.5,0,0,0-.61.86,1.39,1.39,0,0,1-.27.77C24.29,301.09,24,300.89,24,300.89Z"/><path class="cls-5" d="M25.37,299.34a1.44,1.44,0,0,0-1.65-1c-1.31.2-1,1-1,1l.16.12s-.34-.79.82-.95a1.23,1.23,0,0,1,1.44.73"/><rect class="cls-3" x="62.51" y="299.44" width="1.29" height="1.44" transform="translate(126.32 600.32) rotate(-180)"/><path class="cls-16" d="M65.17,309.69a4.36,4.36,0,0,0,.27,2.79,3,3,0,0,1,0,2.65s-.19-.67-.58-.7a12.73,12.73,0,0,1-2,.24c-.77-.09-1.08-1-1.11-1.23a8.83,8.83,0,0,1-.82-1.93c0-.65-.13-2.6.49-3S65.17,309.69,65.17,309.69Z"/><path class="cls-3" d="M65.08,309.69a4.36,4.36,0,0,0,.27,2.79,3,3,0,0,1,0,2.65s-.19-.67-.58-.7a12.73,12.73,0,0,1-2,.24c-.77-.09-1.08-1-1.11-1.23a8.83,8.83,0,0,1-.82-1.93c0-.65-.13-2.6.49-3S65.08,309.69,65.08,309.69Z"/><path class="cls-5" d="M61,303.67a2.32,2.32,0,0,1-2,.28c-.74-.56-1.12-.61-1.23-.42s-.16.95.95,1.34a3.25,3.25,0,0,0,1,.22s-.08,2.48,1.08,3.08S61,303.67,61,303.67Z"/><path class="cls-16" d="M63.5,311.6h.4c1.34,0,2.43-2.36,2.43-3.74v-4.45c0-1.39-1.09-3-2.43-3h-.4c-1.34,0-2.49,1.75-2.49,3.14l.06,4.92C62.46,310.42,62.16,311.6,63.5,311.6Z"/><path class="cls-5" d="M63.27,311.6h.4c1.34,0,2.43-2.36,2.43-3.74v-4.45c0-1.39-1.09-3-2.43-3h-.4c-1.34,0-2.49,1.75-2.49,3.14l.06,4.92C62.23,310.42,61.94,311.6,63.27,311.6Z"/><ellipse class="cls-3" cx="63.11" cy="299.04" rx="0.96" ry="1.17"/><path class="cls-5" d="M64.57,313.8s.07.77-.23,1-.4.19-.35.33,1.46.14,1.46.14a2,2,0,0,0-.21-1.4C64.84,313.42,64.57,313.8,64.57,313.8Z"/><rect class="cls-5" x="59.25" y="314.92" width="6.65" height="1.2" transform="translate(125.16 631.04) rotate(-180)"/><path class="cls-3" d="M64.27,300.51s-.77.68-1,.68H63s-.92-.5-.73-.61A13.88,13.88,0,0,1,64.27,300.51Z"/><polygon class="cls-3" points="63.8 300.35 64.27 300.51 63.11 300.88 62.51 300.54 63.11 300.21 63.8 300.35"/><rect class="cls-16" x="62.55" y="299.44" width="1.29" height="1.44" transform="translate(126.39 600.32) rotate(-180)"/><ellipse class="cls-16" cx="63.16" cy="299.04" rx="0.96" ry="1.17"/><polygon class="cls-16" points="63.92 300.35 64.39 300.51 63.22 300.88 62.63 300.54 63.22 300.21 63.92 300.35"/><rect class="cls-3" x="62.51" y="299.44" width="1.29" height="1.44" transform="translate(126.32 600.32) rotate(-180)"/><ellipse class="cls-3" cx="63.11" cy="299.04" rx="0.96" ry="1.17"/><path class="cls-3" d="M64.32,300.53s-.82.66-1.08.66H63s-.92-.5-.73-.61A14.29,14.29,0,0,1,64.32,300.53Z"/><polygon class="cls-3" points="63.8 300.35 64.32 300.53 63.11 300.88 62.51 300.54 63.11 300.21 63.8 300.35"/><path class="cls-3" d="M64,304.57a2.39,2.39,0,0,0,0,1.88l.36.6a17.92,17.92,0,0,1-.69,3.13,5.11,5.11,0,0,0,.32-1.95Z"/><path class="cls-5" d="M61.07,308.77a10,10,0,0,0,1.19,3.79c.19.44.2.66,0,.53a9,9,0,0,1-1.59-2.75A9.59,9.59,0,0,1,61.07,308.77Z"/><path class="cls-5" d="M63.11,314s.15,1.3-.31,1.3H61.2s-.58-.11.32-.36a1.3,1.3,0,0,0,1-.95S62.72,313.66,63.11,314Z"/><path class="cls-3" d="M59.77,305.1s-.09,2,.72,2.8c.21,0-.19-.55-.19-.55A4.61,4.61,0,0,1,60,305.1Z"/><rect class="cls-2" x="310.84" y="324.88" width="3.15" height="3.68"/><polygon class="cls-2" points="314.89 329.68 309.83 329.68 310.83 328.54 313.99 328.56 314.89 329.68"/><rect class="cls-2" x="309.83" y="329.68" width="5.06" height="1.44"/><rect class="cls-1" x="277.29" y="314.49" width="4.02" height="7.59"/><rect class="cls-1" x="176.39" y="314.49" width="4.02" height="7.59"/><rect class="cls-2" x="244.07" y="306.93" width="4.02" height="5.81"/><polygon class="cls-5" points="315.54 331.84 309.83 331.84 309.83 331.12 314.89 331.12 315.54 331.84"/><polygon class="cls-3" points="248.94 305.13 248.94 306.92 311.66 324.8 311.66 323.03 248.94 305.13"/><polygon class="cls-3" points="206.95 305.13 206.95 306.92 144.23 324.8 144.23 323.03 206.95 305.13"/><polygon class="cls-3" points="313.87 324.88 310.83 324.88 310.57 324.45 314.13 324.45 313.87 324.88"/><rect class="cls-3" x="310.57" y="323.57" width="3.57" height="0.88"/><polygon class="cls-3" points="314.88 323.03 309.82 323.03 309.17 322.14 315.53 322.14 314.88 323.03"/><polygon class="cls-3" points="314.13 323.57 310.57 323.57 310.13 323.03 314.57 323.03 314.13 323.57"/><polygon class="cls-5" points="314 324.88 310.95 324.88 310.69 324.45 314.25 324.45 314 324.88"/><rect class="cls-5" x="310.69" y="323.57" width="3.57" height="0.88"/><polygon class="cls-5" points="315 323.03 309.94 323.03 309.29 322.14 315.66 322.14 315 323.03"/><polygon class="cls-5" points="314.25 323.57 310.69 323.57 310.25 323.03 314.69 323.03 314.25 323.57"/><rect class="cls-2" x="142.9" y="324.88" width="3.15" height="3.68" transform="translate(288.95 653.44) rotate(-180)"/><polygon class="cls-2" points="142 329.68 147.06 329.68 146.06 328.54 142.9 328.56 142 329.68"/><rect class="cls-2" x="142" y="329.68" width="5.06" height="1.44" transform="translate(289.06 660.81) rotate(-180)"/><polygon class="cls-5" points="141.35 331.84 147.06 331.84 147.06 331.12 142 331.12 141.35 331.84"/><polygon class="cls-3" points="143.02 324.88 146.06 324.88 146.32 324.45 142.76 324.45 143.02 324.88"/><rect class="cls-3" x="142.76" y="323.57" width="3.57" height="0.88" transform="translate(289.08 648.02) rotate(-180)"/><polygon class="cls-3" points="142.01 323.03 147.07 323.03 147.72 322.14 141.36 322.14 142.01 323.03"/><polygon class="cls-3" points="142.76 323.57 146.32 323.57 146.76 323.03 142.32 323.03 142.76 323.57"/><polygon class="cls-5" points="142.9 324.88 145.94 324.88 146.2 324.45 142.64 324.45 142.9 324.88"/><rect class="cls-5" x="142.64" y="323.57" width="3.57" height="0.88" transform="translate(288.84 648.02) rotate(-180)"/><polygon class="cls-5" points="141.89 323.03 146.95 323.03 147.6 322.14 141.24 322.14 141.89 323.03"/><polygon class="cls-5" points="142.64 323.57 146.2 323.57 146.64 323.03 142.2 323.03 142.64 323.57"/><rect class="cls-1" x="207.33" y="314.49" width="41.98" height="17.36"/><polygon class="cls-1" points="310.2 331.85 249.31 331.85 249.31 314.49 310.2 331.85 310.2 331.85"/><polygon class="cls-1" points="146.43 331.85 207.33 331.85 207.33 314.49 146.43 331.85 146.43 331.85"/><polygon class="cls-5" points="249.31 312.31 249.31 314.49 310.2 331.85 310.2 329.68 249.31 312.31"/><rect class="cls-2" x="234.51" y="306.93" width="4.02" height="5.81"/><polygon class="cls-5" points="207.33 312.31 207.33 314.49 146.43 331.85 146.43 329.68 207.33 312.31"/><rect class="cls-2" x="218.85" y="306.93" width="4.02" height="5.81"/><rect class="cls-2" x="209.28" y="306.93" width="4.02" height="5.81"/><rect class="cls-5" x="207.33" y="312.32" width="41.98" height="2.18"/><rect class="cls-3" x="206.95" y="305.13" width="41.98" height="1.8"/><polygon class="cls-3" points="310.25 323.03 309.88 323.03 309.82 323.03 309.88 323.1 310.31 323.1 310.25 323.03"/><polygon class="cls-5" points="238.52 306.93 234.51 306.93 233.67 305.13 239.37 305.13 238.52 306.93"/><polygon class="cls-2" points="234.51 306.93 235.12 308.55 237.82 308.55 238.52 306.93 234.51 306.93"/><polygon class="cls-38" points="234.51 306.93 235.12 308.55 237.82 308.55 238.52 306.93 234.51 306.93"/><polygon class="cls-5" points="248.09 306.93 244.07 306.93 243.24 305.13 248.94 305.13 248.09 306.93"/><polygon class="cls-2" points="244.07 306.93 244.69 308.55 247.39 308.55 248.09 306.93 244.07 306.93"/><polygon class="cls-39" points="244.07 306.93 244.69 308.55 247.39 308.55 248.09 306.93 244.07 306.93"/><polygon class="cls-5" points="213.3 306.93 209.28 306.93 208.44 305.13 214.14 305.13 213.3 306.93"/><polygon class="cls-2" points="209.28 306.93 209.9 308.55 212.6 308.55 213.3 306.93 209.28 306.93"/><polygon class="cls-40" points="209.28 306.93 209.9 308.55 212.6 308.55 213.3 306.93 209.28 306.93"/><polygon class="cls-5" points="222.87 306.93 218.85 306.93 218.01 305.13 223.71 305.13 222.87 306.93"/><polygon class="cls-2" points="218.85 306.93 219.47 308.55 222.17 308.55 222.87 306.93 218.85 306.93"/><polygon class="cls-41" points="218.85 306.93 219.47 308.55 222.17 308.55 222.87 306.93 218.85 306.93"/><rect class="cls-3" x="144.41" y="255.25" width="173.25" height="2.28"/><polygon class="cls-3" points="317.66 255.25 144.41 255.25 142.89 252.97 319.16 252.97 317.66 255.25"/></svg>