<svg id="Layer_1" data-name="Layer 1" xmlns="http://www.w3.org/2000/svg" xmlns:xlink="http://www.w3.org/1999/xlink" viewBox="0 0 460 460"><defs><style>.cls-1{fill:#1a1a1a;}.cls-2{fill:#eebc78;}.cls-18,.cls-3{fill:#f5eebd;}.cls-4{fill:#f1e6a0;}.cls-5{fill:#f3f3f3;}.cls-6{fill:#faf6db;}.cls-7{fill:#ebb162;}.cls-8{fill:#fcf9e9;}.cls-9{fill:#f1f1f1;}.cls-10{fill:#fff;}.cls-11{fill:url(#linear-gradient);}.cls-12{fill:url(#linear-gradient-2);}.cls-13{fill:url(#linear-gradient-3);}.cls-14{fill:url(#linear-gradient-4);}.cls-15{fill:url(#linear-gradient-5);}.cls-16{fill:url(#linear-gradient-6);}.cls-17{fill:url(#linear-gradient-7);}.cls-18{opacity:0.5;}.cls-19{fill:url(#linear-gradient-8);}.cls-20{fill:url(#linear-gradient-9);}.cls-21{fill:url(#linear-gradient-10);}.cls-22{fill:url(#linear-gradient-11);}.cls-23{fill:url(#linear-gradient-12);}.cls-24{fill:url(#linear-gradient-13);}.cls-25{fill:url(#linear-gradient-14);}</style><linearGradient id="linear-gradient" x1="40.71" y1="311.05" x2="40.71" y2="269.83" gradientUnits="userSpaceOnUse"><stop offset="0.58" stop-color="#faf6db" stop-opacity="0"/><stop offset="0.74" stop-color="#faf6db" stop-opacity="0.01"/><stop offset="0.79" stop-color="#faf6da" stop-opacity="0.04"/><stop offset="0.83" stop-color="#faf5d8" stop-opacity="0.08"/><stop offset="0.87" stop-color="#f9f5d6" stop-opacity="0.15"/><stop offset="0.9" stop-color="#f9f4d4" stop-opacity="0.24"/><stop offset="0.92" stop-color="#f8f3d0" stop-opacity="0.35"/><stop offset="0.94" stop-color="#f8f2cc" stop-opacity="0.49"/><stop offset="0.96" stop-color="#f7f1c8" stop-opacity="0.64"/><stop offset="0.98" stop-color="#f6f0c3" stop-opacity="0.81"/><stop offset="1" stop-color="#f5eebd" stop-opacity="0.99"/><stop offset="1" stop-color="#f5eebd"/></linearGradient><linearGradient id="linear-gradient-2" x1="46.84" y1="290.44" x2="34.59" y2="290.44" gradientUnits="userSpaceOnUse"><stop offset="0.59" stop-color="#fcf9e9" stop-opacity="0"/><stop offset="0.69" stop-color="#fcf9e9" stop-opacity="0.01"/><stop offset="0.74" stop-color="#fcf9e7" stop-opacity="0.04"/><stop offset="0.79" stop-color="#fbf8e4" stop-opacity="0.1"/><stop offset="0.83" stop-color="#fbf7e1" stop-opacity="0.19"/><stop offset="0.87" stop-color="#faf6dc" stop-opacity="0.29"/><stop offset="0.9" stop-color="#f9f4d6" stop-opacity="0.43"/><stop offset="0.93" stop-color="#f8f3cf" stop-opacity="0.58"/><stop offset="0.97" stop-color="#f7f1c7" stop-opacity="0.77"/><stop offset="1" stop-color="#f5eebe" stop-opacity="0.97"/><stop offset="1" stop-color="#f5eebd"/></linearGradient><linearGradient id="linear-gradient-3" x1="40.26" y1="274.67" x2="40.26" y2="273.4" gradientUnits="userSpaceOnUse"><stop offset="0" stop-color="#f1e6a0" stop-opacity="0"/><stop offset="0.1" stop-color="#f1e6a2" stop-opacity="0.02"/><stop offset="0.23" stop-color="#f1e7a8" stop-opacity="0.09"/><stop offset="0.37" stop-color="#f1e9b1" stop-opacity="0.21"/><stop offset="0.53" stop-color="#f2ebbf" stop-opacity="0.37"/><stop offset="0.71" stop-color="#f2edd0" stop-opacity="0.58"/><stop offset="0.88" stop-color="#f3f1e4" stop-opacity="0.82"/><stop offset="1" stop-color="#f3f3f3"/></linearGradient><linearGradient id="linear-gradient-4" x1="-1141.07" y1="311.05" x2="-1141.07" y2="269.83" gradientTransform="matrix(1, 0, 0, -1, 1269.13, 580.88)" xlink:href="#linear-gradient"/><linearGradient id="linear-gradient-5" x1="-1134.95" y1="290.44" x2="-1147.2" y2="290.44" gradientTransform="matrix(1, 0, 0, -1, 1269.13, 580.88)" gradientUnits="userSpaceOnUse"><stop offset="0.59" stop-color="#fcf9e9" stop-opacity="0"/><stop offset="0.69" stop-color="#fcf9e8" stop-opacity="0.01"/><stop offset="0.74" stop-color="#fcf8e6" stop-opacity="0.05"/><stop offset="0.79" stop-color="#fbf7e1" stop-opacity="0.11"/><stop offset="0.83" stop-color="#faf5db" stop-opacity="0.19"/><stop offset="0.87" stop-color="#f9f3d3" stop-opacity="0.3"/><stop offset="0.9" stop-color="#f7f1c9" stop-opacity="0.43"/><stop offset="0.94" stop-color="#f5eebe" stop-opacity="0.59"/><stop offset="0.97" stop-color="#f3eab0" stop-opacity="0.78"/><stop offset="1" stop-color="#f1e6a1" stop-opacity="0.98"/><stop offset="1" stop-color="#f1e6a0"/></linearGradient><linearGradient id="linear-gradient-6" x1="-1141.53" y1="274.67" x2="-1141.53" y2="273.4" gradientTransform="matrix(1, 0, 0, -1, 1270.04, 548.07)" xlink:href="#linear-gradient-3"/><linearGradient id="linear-gradient-7" x1="81.24" y1="262.7" x2="81.24" y2="259.67" gradientUnits="userSpaceOnUse"><stop offset="0.32" stop-color="#fcf9e9" stop-opacity="0"/><stop offset="0.38" stop-color="#fcf9e9" stop-opacity="0.04"/><stop offset="0.48" stop-color="#fbf8ea" stop-opacity="0.14"/><stop offset="0.6" stop-color="#f9f7ec" stop-opacity="0.3"/><stop offset="0.74" stop-color="#f7f6ee" stop-opacity="0.52"/><stop offset="0.9" stop-color="#f5f4f1" stop-opacity="0.8"/><stop offset="1" stop-color="#f3f3f3"/></linearGradient><linearGradient id="linear-gradient-8" x1="55.68" y1="311.05" x2="55.68" y2="269.83" gradientTransform="matrix(1, 0, 0, -1, 363.6, 580.88)" xlink:href="#linear-gradient"/><linearGradient id="linear-gradient-9" x1="61.81" y1="290.44" x2="49.56" y2="290.44" gradientTransform="matrix(1, 0, 0, -1, 363.6, 580.88)" xlink:href="#linear-gradient-2"/><linearGradient id="linear-gradient-10" x1="55.23" y1="274.67" x2="55.23" y2="273.4" gradientTransform="matrix(1, 0, 0, -1, 364.51, 548.07)" xlink:href="#linear-gradient-3"/><linearGradient id="linear-gradient-11" x1="-1156.04" y1="311.05" x2="-1156.04" y2="269.83" gradientTransform="translate(1487.98)" xlink:href="#linear-gradient"/><linearGradient id="linear-gradient-12" x1="-1149.92" y1="290.44" x2="-1162.17" y2="290.44" gradientTransform="translate(1487.98)" xlink:href="#linear-gradient-5"/><linearGradient id="linear-gradient-13" x1="-1156.5" y1="274.67" x2="-1156.5" y2="273.4" gradientTransform="translate(1487.98)" xlink:href="#linear-gradient-3"/><linearGradient id="linear-gradient-14" x1="96.21" y1="262.7" x2="96.21" y2="259.67" gradientTransform="matrix(1, 0, 0, -1, 282.56, 522.37)" xlink:href="#linear-gradient-7"/></defs><title>rome</title><path class="cls-1" d="M368.6,146.68a2.15,2.15,0,0,1,1.84,2.53,6.93,6.93,0,0,1-.9,1.94c-.35.23-.12.9.41,2,.17.47-.38,1.25-.15,1.28s.46-.24.68,0,.31.64.31,1.54.32,2.19.2,2.42-.67.76-.9.32.26-1.08.26-1.08l.12-1.57s0-.7-.38-.12-.7.9-1.2.64-.58-.44-2,.7l-.67.44a11.47,11.47,0,0,1-.26,2.13,11.36,11.36,0,0,0-.15,2.42h-.64l.2-3.59-2.51,3.44-2.48.15s.87-.44.9-.85a14.29,14.29,0,0,1,0-2.51,1.47,1.47,0,0,1-.44-1c0-.55-.26.17-.32.55a2.94,2.94,0,0,1-.73,1.2c-.23.23-.1,1.49-.1,1.49l.46.85-1,0-2.78-.1a13.19,13.19,0,0,0,.59-3.07,21.87,21.87,0,0,1-.67-2.1c-.08-.74-.38-3.15.74-3.91a7.65,7.65,0,0,0,3-4c.62-1.95,0-2.76.8-3.42s2-1.3,2.54-.5c0,.31-.22.52.06,1s-.18.6-.2.85a1.13,1.13,0,0,1-.22.91c-.1.2.27.34.07.87a2.19,2.19,0,0,1-.59.85l-.06.27a3,3,0,0,1,1.2,2.16v1l.93-.1S367.74,146.88,368.6,146.68Z"/><path class="cls-1" d="M354.61,162.25V160s1.48-.3,1.38-1.48a1,1,0,0,0-.69-.7v-1.18s-.28-.59-1.62-.59l-.8-9.37a1.65,1.65,0,0,1-.59-1.23c-.05-.86,0-2.68.54-2.95S355,141,355.08,140a12.28,12.28,0,0,0,.06-2.54c-.08-.54-.74-1.25-.64-.31s.54.79.18,1.76-.18,1.45-1.22,2.09l-.64.41s-.64-.15-.82.36-.59.23-.66-.05.38-.15.38-.15.2-.54.64-.56,1.15-.15,1.3-.66-.31-.84-.31-1.35-.23-1.33.46-1.73,1.71-1.43,1.76-1.89-.61-.2-.61-.2a4.72,4.72,0,0,0-1.45,1.63,7.33,7.33,0,0,1-1.4,2.68c-.48.72-.72,1.8-.87,1.86s-.28.08-.29,0a1.24,1.24,0,0,1,.11-.72c.17-.44.17-1.47-.23-1.43s-1.5.27-1.42,1,.45.53.46.78.16.81,0,.84-.38-.68-.72-1.29-1.59-3.74-5-4.67,0,.44,0,.44-2.58-1-1.42-.17c.53.21.9.43.6.37s-.72-.15-.52.06a9.17,9.17,0,0,0,1.6.73s.52.37-.08.23-1.11-.2-.54.08,2.68,1.12,2.8,3.47a2.8,2.8,0,0,0,1.92,2.78s-.2,1-.64,2.68a5.24,5.24,0,0,0-.32,2.15.92.92,0,0,0-.79,1,11.83,11.83,0,0,1,.23,2.24s-1.65.87-1.6,2.12-.3,3,.33,3.9a7.44,7.44,0,0,0,.21,1.81c0,.42,0,2.25,0,2.25Z"/><path class="cls-1" d="M341.36,147.05s.75.52.52,3.43a3.35,3.35,0,0,1,1,2.26s1.74.8,1.74,2.31.33,2.68-.61,4.23a8.29,8.29,0,0,0-1,3.53l-.36-.56A3.14,3.14,0,0,1,343,160c.35-1.5-.26-2.14-.47-1.53a11,11,0,0,0-.78,3.46h-.61l-.14.33a1.64,1.64,0,0,1-.46-.83c-.07-.46-1-1.36-1-2.46,0,0-.71.93-.89.39s.21-.78.14-1-.34-.46-.19-.93-.42-2-.2-2.46a10.15,10.15,0,0,1,1.28-3.28,1.26,1.26,0,0,0,.3-1.3c-.16-.26-.34-.24-.34-.64a.81.81,0,0,0-.26-.65c-.1-.11,0-.94,0-.94l-.11-.29-.25-.45.11-.27.6.16a.78.78,0,0,1,.41-.14c.28,0,.26-1.05.73-.76a.88.88,0,0,1,.4.81Z"/><path class="cls-1" d="M91.21,146.68a2.15,2.15,0,0,0-1.84,2.53,6.93,6.93,0,0,0,.9,1.94c.35.23.12.9-.41,2-.17.47.38,1.25.15,1.28s-.46-.24-.68,0S89,155,89,155.95s-.32,2.19-.2,2.42.67.76.9.32-.26-1.08-.26-1.08L89.33,156s0-.7.38-.12.7.9,1.2.64.58-.44,2,.7l.67.44a11.47,11.47,0,0,0,.26,2.13,11.36,11.36,0,0,1,.15,2.42h.64l-.2-3.59,2.51,3.44,2.48.15s-.87-.44-.9-.85a14.29,14.29,0,0,0,0-2.51,1.47,1.47,0,0,0,.44-1c0-.55.26.17.32.55a2.94,2.94,0,0,0,.73,1.2c.23.23.1,1.49.1,1.49l-.46.85,1,0,2.78-.1a13.19,13.19,0,0,1-.59-3.07,21.87,21.87,0,0,0,.67-2.1c.08-.74.38-3.15-.74-3.91a7.65,7.65,0,0,1-3-4c-.62-1.95,0-2.76-.8-3.42s-2-1.3-2.54-.5c0,.31.22.52-.06,1s.18.6.2.85a1.13,1.13,0,0,0,.22.91c.1.2-.27.34-.07.87a2.19,2.19,0,0,0,.59.85l.06.27a3,3,0,0,0-1.2,2.16v1l-.93-.1S92.07,146.88,91.21,146.68Z"/><path class="cls-1" d="M105.19,162.25V160s-1.48-.3-1.38-1.48a1,1,0,0,1,.69-.7v-1.18s.28-.59,1.62-.59l.8-9.37a1.65,1.65,0,0,0,.59-1.23c.05-.86,0-2.68-.54-2.95s-2.14-1.45-2.25-2.46a12.28,12.28,0,0,1-.06-2.54c.08-.54.74-1.25.64-.31s-.54.79-.18,1.76.18,1.45,1.22,2.09l.64.41s.64-.15.82.36.59.23.66-.05-.38-.15-.38-.15-.2-.54-.64-.56-1.15-.15-1.3-.66.31-.84.31-1.35.23-1.33-.46-1.73-1.71-1.43-1.76-1.89.61-.2.61-.2a4.72,4.72,0,0,1,1.45,1.63,7.33,7.33,0,0,0,1.4,2.68c.48.72.72,1.8.87,1.86s.28.08.29,0a1.24,1.24,0,0,0-.11-.72c-.17-.44-.17-1.47.23-1.43s1.5.27,1.42,1-.45.53-.46.78-.16.81,0,.84.38-.68.72-1.29,1.59-3.74,5-4.67,0,.44,0,.44,2.58-1,1.42-.17c-.53.21-.9.43-.6.37s.72-.15.52.06a9.17,9.17,0,0,1-1.6.73s-.52.37.08.23,1.11-.2.54.08-2.68,1.12-2.8,3.47a2.8,2.8,0,0,1-1.92,2.78s.2,1,.64,2.68a5.24,5.24,0,0,1,.32,2.15.92.92,0,0,1,.79,1,11.83,11.83,0,0,0-.23,2.24s1.65.87,1.6,2.12.3,3-.33,3.9a7.44,7.44,0,0,1-.21,1.81c0,.42,0,2.25,0,2.25Z"/><path class="cls-1" d="M118.45,147.05s-.75.52-.52,3.43a3.35,3.35,0,0,0-1,2.26s-1.74.8-1.74,2.31-.33,2.68.61,4.23a8.29,8.29,0,0,1,1,3.53l.36-.56a3.14,3.14,0,0,0-.36-2.25c-.35-1.5.26-2.14.47-1.53a11,11,0,0,1,.78,3.46h.61l.14.33a1.64,1.64,0,0,0,.46-.83c.07-.46,1-1.36,1-2.46,0,0,.71.93.89.39s-.21-.78-.14-1,.34-.46.19-.93.42-2,.2-2.46a10.15,10.15,0,0,0-1.28-3.28,1.26,1.26,0,0,1-.3-1.3c.16-.26.34-.24.34-.64a.81.81,0,0,1,.26-.65c.1-.11,0-.94,0-.94l.11-.29.25-.45-.11-.27-.6.16a.78.78,0,0,0-.41-.14c-.28,0-.26-1.05-.73-.76a.88.88,0,0,0-.4.81Z"/><rect class="cls-2" x="215.92" y="179.89" width="30.17" height="7.39"/><rect class="cls-3" x="28.38" y="303.29" width="403.24" height="21.6" transform="translate(460 628.18) rotate(-180)"/><path class="cls-4" d="M131.5,222.16s103,6,196.25.16V267.4s-117.93,7.11-196.25,0Z"/><path class="cls-4" d="M131.5,182.07s103,6,196.25.16v45.08s-117.93,7.11-196.25,0Z"/><path class="cls-3" d="M131.5,185.09s103,6,196.25.16v45.08s-117.93,7.11-196.25,0Z"/><path class="cls-4" d="M131.5,199.46s103,6,196.25.16V244.7s-117.93,7.11-196.25,0Z"/><path class="cls-3" d="M131.5,202.49s103,6,196.25.16v45.08s-117.93,7.11-196.25,0Z"/><path class="cls-5" d="M131.5,211.57s103,6,196.25.16v45.08s-117.93,7.11-196.25,0Z"/><path class="cls-4" d="M131.5,210.06s103,6,196.25.16V255.3s-117.93,7.11-196.25,0Z"/><path class="cls-6" d="M131.5,207.79s103,6,196.25.16V253s-117.93,7.11-196.25,0Z"/><rect class="cls-4" x="132.06" y="252.99" width="6" height="0.81"/><polygon class="cls-4" points="138.06 252.99 132.06 252.99 132.94 252.16 137.19 252.16 138.06 252.99"/><path class="cls-4" d="M137.17,214.73a8.7,8.7,0,0,0-4.21,0c-.75.3-.29.54,0,.67v36.44h4.28V215.41C137.46,215.27,137.92,215,137.17,214.73Z"/><rect class="cls-4" x="133.07" y="212.34" width="3.98" height="2.56"/><rect class="cls-4" x="132.54" y="209.9" width="4.93" height="2.44"/><rect class="cls-5" x="132.63" y="251.81" width="4.85" height="0.35" rx="0.18" ry="0.18"/><rect class="cls-4" x="142.65" y="253.75" width="6" height="0.81"/><polygon class="cls-4" points="148.65 253.75 142.65 253.75 143.53 252.92 147.78 252.92 148.65 253.75"/><path class="cls-4" d="M147.76,215.49a8.7,8.7,0,0,0-4.21,0c-.75.3-.29.6,0,.74v36.5h4.28v-36.5C148,216.09,148.51,215.79,147.76,215.49Z"/><rect class="cls-4" x="143.66" y="213.1" width="3.98" height="2.56"/><rect class="cls-4" x="143.13" y="210.66" width="4.93" height="2.44"/><rect class="cls-5" x="143.22" y="252.57" width="4.85" height="0.35" rx="0.18" ry="0.18"/><rect class="cls-4" x="153.24" y="254.51" width="6" height="0.81"/><polygon class="cls-4" points="159.24 254.51 153.24 254.51 154.12 253.67 158.37 253.67 159.24 254.51"/><path class="cls-4" d="M158.35,216.25a8.7,8.7,0,0,0-4.21,0c-.75.3-.29.66,0,.8v36.56h4.28V217C158.64,216.91,159.1,216.55,158.35,216.25Z"/><rect class="cls-4" x="154.25" y="213.85" width="3.98" height="2.56"/><rect class="cls-4" x="153.72" y="211.41" width="4.93" height="2.44"/><rect class="cls-5" x="153.82" y="253.32" width="4.85" height="0.35" rx="0.18" ry="0.18"/><rect class="cls-4" x="164.59" y="255.26" width="6" height="0.81"/><polygon class="cls-4" points="170.59 255.26 164.59 255.26 165.46 254.43 169.71 254.43 170.59 255.26"/><path class="cls-4" d="M169.69,217a8.7,8.7,0,0,0-4.21,0c-.75.3-.29.73,0,.86v36.62h4.28V217.86C170,217.73,170.45,217.3,169.69,217Z"/><rect class="cls-4" x="165.6" y="214.61" width="3.98" height="2.56"/><rect class="cls-4" x="165.07" y="212.17" width="4.93" height="2.44"/><rect class="cls-5" x="165.16" y="254.08" width="4.85" height="0.35" rx="0.18" ry="0.18"/><rect class="cls-4" x="176.69" y="255.26" width="6" height="0.81"/><polygon class="cls-4" points="182.69 255.26 176.69 255.26 177.57 254.43 181.82 254.43 182.69 255.26"/><path class="cls-4" d="M181.8,217a8.7,8.7,0,0,0-4.21,0c-.75.3-.29.73,0,.86v36.62h4.28V217.86C182.09,217.73,182.55,217.3,181.8,217Z"/><rect class="cls-4" x="177.7" y="214.61" width="3.98" height="2.56"/><rect class="cls-4" x="177.17" y="212.17" width="4.93" height="2.44"/><rect class="cls-5" x="177.27" y="254.08" width="4.85" height="0.35" rx="0.18" ry="0.18"/><rect class="cls-4" x="187.28" y="255.26" width="6" height="0.81"/><polygon class="cls-4" points="193.28 255.26 187.28 255.26 188.16 254.43 192.41 254.43 193.28 255.26"/><path class="cls-4" d="M192.39,217a8.7,8.7,0,0,0-4.21,0c-.75.3-.29.73,0,.86v36.62h4.28V217.86C192.68,217.73,193.14,217.3,192.39,217Z"/><rect class="cls-4" x="188.29" y="214.61" width="3.98" height="2.56"/><rect class="cls-4" x="187.76" y="212.17" width="4.93" height="2.44"/><rect class="cls-5" x="187.86" y="254.08" width="4.85" height="0.35" rx="0.18" ry="0.18"/><rect class="cls-4" x="199.38" y="256.02" width="6" height="0.81"/><polygon class="cls-4" points="205.39 256.02 199.38 256.02 200.26 255.19 204.51 255.19 205.39 256.02"/><path class="cls-4" d="M204.49,217.76a8.7,8.7,0,0,0-4.21,0c-.75.3-.29.79,0,.92v36.69h4.28V218.68C204.78,218.55,205.24,218.06,204.49,217.76Z"/><rect class="cls-4" x="200.4" y="215.36" width="3.98" height="2.56"/><rect class="cls-4" x="199.87" y="212.93" width="4.93" height="2.44"/><rect class="cls-5" x="199.96" y="254.84" width="4.85" height="0.35" rx="0.18" ry="0.18"/><rect class="cls-4" x="209.97" y="256.02" width="6" height="0.81"/><polygon class="cls-4" points="215.98 256.02 209.97 256.02 210.85 255.19 215.1 255.19 215.98 256.02"/><path class="cls-4" d="M215.08,217.76a8.7,8.7,0,0,0-4.21,0c-.75.3-.29.79,0,.92v36.69h4.28V218.68C215.38,218.55,215.84,218.06,215.08,217.76Z"/><rect class="cls-4" x="210.99" y="215.36" width="3.98" height="2.56"/><rect class="cls-4" x="210.46" y="212.93" width="4.93" height="2.44"/><rect class="cls-5" x="210.55" y="254.84" width="4.85" height="0.35" rx="0.18" ry="0.18"/><rect class="cls-4" x="321.93" y="252.99" width="6" height="0.81" transform="translate(649.87 506.8) rotate(-180)"/><polygon class="cls-4" points="321.93 252.99 327.94 252.99 327.06 252.16 322.81 252.16 321.93 252.99"/><path class="cls-4" d="M322.8,215.41v36.44h4.28V215.41c.27-.13.73-.49,0-.79a12,12,0,0,0-4.21,0C322.07,214.89,322.53,215.27,322.8,215.41Z"/><rect class="cls-4" x="322.94" y="212.34" width="3.98" height="2.56" transform="translate(649.87 427.23) rotate(-180)"/><rect class="cls-4" x="322.52" y="209.9" width="4.93" height="2.44" transform="translate(649.97 422.24) rotate(-180)"/><rect class="cls-5" x="322.51" y="251.81" width="4.85" height="0.35" rx="0.18" ry="0.18" transform="translate(649.87 503.97) rotate(-180)"/><rect class="cls-4" x="311.34" y="253.75" width="6" height="0.81" transform="translate(628.69 508.31) rotate(-180)"/><polygon class="cls-4" points="311.34 253.75 317.34 253.75 316.47 252.92 312.22 252.92 311.34 253.75"/><path class="cls-4" d="M312.21,216.23v36.5h4.28v-36.5c.27-.13.73-.52,0-.82a10.93,10.93,0,0,0-4.21,0C311.48,215.68,311.94,216.09,312.21,216.23Z"/><rect class="cls-4" x="312.35" y="213.1" width="3.98" height="2.56" transform="translate(628.69 428.75) rotate(-180)"/><rect class="cls-4" x="311.93" y="210.66" width="4.93" height="2.44" transform="translate(628.79 423.75) rotate(-180)"/><rect class="cls-5" x="311.92" y="252.57" width="4.85" height="0.35" rx="0.18" ry="0.18" transform="translate(628.69 505.48) rotate(-180)"/><rect class="cls-4" x="300.75" y="254.51" width="6" height="0.81" transform="translate(607.5 509.83) rotate(-180)"/><polygon class="cls-4" points="300.75 254.51 306.75 254.51 305.88 253.67 301.63 253.67 300.75 254.51"/><path class="cls-4" d="M301.62,217v36.56h4.28V217c.27-.13.73-.55,0-.85a10,10,0,0,0-4.21,0C300.89,216.48,301.35,216.91,301.62,217Z"/><rect class="cls-4" x="301.76" y="213.85" width="3.98" height="2.56" transform="translate(607.5 430.26) rotate(-180)"/><rect class="cls-4" x="301.34" y="211.41" width="4.93" height="2.44" transform="translate(607.61 425.26) rotate(-180)"/><rect class="cls-5" x="301.33" y="253.32" width="4.85" height="0.35" rx="0.18" ry="0.18" transform="translate(607.5 506.99) rotate(180)"/><rect class="cls-4" x="289.4" y="254.51" width="6" height="0.81" transform="translate(584.81 509.83) rotate(-180)"/><polygon class="cls-4" points="289.4 254.51 295.41 254.51 294.53 253.67 290.28 253.67 289.4 254.51"/><path class="cls-4" d="M290.27,217v36.56h4.28V217c.27-.13.73-.55,0-.85a10,10,0,0,0-4.21,0C289.55,216.48,290,216.91,290.27,217Z"/><rect class="cls-4" x="290.42" y="213.85" width="3.98" height="2.56" transform="translate(584.81 430.26) rotate(-180)"/><rect class="cls-4" x="289.99" y="211.41" width="4.93" height="2.44" transform="translate(584.91 425.26) rotate(-180)"/><rect class="cls-5" x="289.98" y="253.32" width="4.85" height="0.35" rx="0.18" ry="0.18" transform="translate(584.81 506.99) rotate(-180)"/><rect class="cls-4" x="277.3" y="254.51" width="6" height="0.81" transform="translate(560.6 509.83) rotate(-180)"/><polygon class="cls-4" points="277.3 254.51 283.3 254.51 282.43 253.67 278.18 253.67 277.3 254.51"/><path class="cls-4" d="M278.17,217v36.56h4.28V217c.27-.13.73-.55,0-.85a10,10,0,0,0-4.21,0C277.44,216.48,277.9,216.91,278.17,217Z"/><rect class="cls-4" x="278.31" y="213.85" width="3.98" height="2.56" transform="translate(560.6 430.26) rotate(-180)"/><rect class="cls-4" x="277.89" y="211.41" width="4.93" height="2.44" transform="translate(560.71 425.26) rotate(-180)"/><rect class="cls-5" x="277.88" y="253.32" width="4.85" height="0.35" rx="0.18" ry="0.18" transform="translate(560.6 506.99) rotate(180)"/><rect class="cls-4" x="266.71" y="255.26" width="6" height="0.81" transform="translate(539.42 511.34) rotate(-180)"/><polygon class="cls-4" points="266.71 255.26 272.71 255.26 271.84 254.43 267.59 254.43 266.71 255.26"/><path class="cls-4" d="M267.58,217.86v36.62h4.28V217.86c.27-.13.73-.58,0-.88a9.23,9.23,0,0,0-4.21,0C266.85,217.27,267.31,217.73,267.58,217.86Z"/><rect class="cls-4" x="267.72" y="214.61" width="3.98" height="2.56" transform="translate(539.42 431.77) rotate(-180)"/><rect class="cls-4" x="267.3" y="212.17" width="4.93" height="2.44" transform="translate(539.53 426.78) rotate(-180)"/><rect class="cls-5" x="267.29" y="254.08" width="4.85" height="0.35" rx="0.18" ry="0.18" transform="translate(539.42 508.51) rotate(-180)"/><rect class="cls-4" x="254.61" y="256.02" width="6" height="0.81" transform="translate(515.22 512.85) rotate(-180)"/><polygon class="cls-4" points="254.61 256.02 260.61 256.02 259.73 255.19 255.48 255.19 254.61 256.02"/><path class="cls-4" d="M255.48,218.68v36.69h4.28V218.68c.27-.13.73-.61,0-.92a8.57,8.57,0,0,0-4.21,0C254.75,218.07,255.21,218.55,255.48,218.68Z"/><rect class="cls-4" x="255.62" y="215.36" width="3.98" height="2.56" transform="translate(515.22 433.29) rotate(-180)"/><rect class="cls-4" x="255.19" y="212.93" width="4.93" height="2.44" transform="translate(515.32 428.29) rotate(-180)"/><rect class="cls-5" x="255.18" y="254.84" width="4.85" height="0.35" rx="0.18" ry="0.18" transform="translate(515.22 510.02) rotate(180)"/><rect class="cls-4" x="244.02" y="256.02" width="6" height="0.81" transform="translate(494.03 512.85) rotate(-180)"/><polygon class="cls-4" points="244.02 256.02 250.02 256.02 249.14 255.19 244.89 255.19 244.02 256.02"/><path class="cls-4" d="M244.88,218.68v36.69h4.28V218.68c.27-.13.73-.61,0-.92a8.57,8.57,0,0,0-4.21,0C244.16,218.07,244.62,218.55,244.88,218.68Z"/><rect class="cls-4" x="245.03" y="215.36" width="3.98" height="2.56" transform="translate(494.03 433.29) rotate(-180)"/><rect class="cls-4" x="244.6" y="212.93" width="4.93" height="2.44" transform="translate(494.14 428.29) rotate(-180)"/><rect class="cls-5" x="244.59" y="254.84" width="4.85" height="0.35" rx="0.18" ry="0.18" transform="translate(494.03 510.02) rotate(180)"/><rect class="cls-4" x="221.32" y="256.02" width="6" height="0.81"/><polygon class="cls-4" points="227.32 256.02 221.32 256.02 222.2 255.19 226.45 255.19 227.32 256.02"/><path class="cls-4" d="M226.43,217.76a8.7,8.7,0,0,0-4.21,0c-.75.3-.29.79,0,.92v36.69h4.28V218.68C226.72,218.55,227.18,218.06,226.43,217.76Z"/><rect class="cls-4" x="222.33" y="215.36" width="3.98" height="2.56"/><rect class="cls-4" x="221.81" y="212.93" width="4.93" height="2.44"/><rect class="cls-5" x="221.9" y="254.84" width="4.85" height="0.35" rx="0.18" ry="0.18"/><rect class="cls-4" x="232.67" y="256.02" width="6" height="0.81"/><polygon class="cls-4" points="238.67 256.02 232.67 256.02 233.54 255.19 237.8 255.19 238.67 256.02"/><path class="cls-4" d="M237.78,217.76a8.7,8.7,0,0,0-4.21,0c-.75.3-.29.79,0,.92v36.69h4.28V218.68C238.07,218.55,238.53,218.06,237.78,217.76Z"/><rect class="cls-4" x="233.68" y="215.36" width="3.98" height="2.56"/><rect class="cls-4" x="233.15" y="212.93" width="4.93" height="2.44"/><rect class="cls-5" x="233.24" y="254.84" width="4.85" height="0.35" rx="0.18" ry="0.18"/><rect class="cls-7" x="79.02" y="198.4" width="38.76" height="20.43"/><rect class="cls-5" x="120.69" y="196.05" width="5.56" height="8.29"/><rect class="cls-5" x="113.48" y="253.13" width="9.01" height="6.15"/><polygon class="cls-5" points="124.94 204.07 121.08 198.74 121.08 262.86 124.94 262.86 124.94 204.07"/><path class="cls-8" d="M131.5,207.79s103,6,196.25.16v3.47s-117.93,7.11-196.25,0Z"/><rect class="cls-2" x="83.28" y="248.95" width="6" height="0.84"/><rect class="cls-2" x="83.28" y="249.79" width="6" height="2.14"/><rect class="cls-2" x="83.03" y="251.93" width="6.51" height="1.91"/><polygon class="cls-2" points="89.28 248.95 83.28 248.95 84.16 248.09 88.41 248.09 89.28 248.95"/><path class="cls-2" d="M88.39,209.58a8.56,8.56,0,0,0-4.21,0c-.75.31-.29.61,0,.74v37.12h4.28V210.32C88.68,210.19,89.14,209.89,88.39,209.58Z"/><rect class="cls-2" x="84.29" y="207.12" width="3.98" height="2.63"/><rect class="cls-2" x="83.76" y="204.61" width="4.93" height="2.51"/><rect class="cls-2" x="83.86" y="247.73" width="4.85" height="0.36" rx="0.18" ry="0.18"/><rect class="cls-2" x="83.2" y="251.03" width="6.17" height="0.89"/><rect class="cls-2" x="95.38" y="248.95" width="6" height="0.84"/><rect class="cls-2" x="95.38" y="249.79" width="6" height="2.14"/><rect class="cls-2" x="95.13" y="251.93" width="6.51" height="1.91"/><polygon class="cls-2" points="101.39 248.95 95.39 248.95 96.26 248.09 100.51 248.09 101.39 248.95"/><path class="cls-2" d="M100.49,209.58a8.56,8.56,0,0,0-4.21,0c-.75.31-.29.61,0,.74v37.12h4.28V210.32C100.79,210.19,101.24,209.89,100.49,209.58Z"/><rect class="cls-2" x="96.4" y="207.12" width="3.98" height="2.63"/><rect class="cls-2" x="95.87" y="204.61" width="4.93" height="2.51"/><rect class="cls-2" x="95.96" y="247.73" width="4.85" height="0.36" rx="0.18" ry="0.18"/><rect class="cls-2" x="95.3" y="251.03" width="6.17" height="0.89"/><rect class="cls-2" x="107.49" y="248.95" width="6" height="0.84"/><rect class="cls-2" x="107.49" y="249.79" width="6" height="2.14"/><rect class="cls-2" x="107.23" y="251.93" width="6.51" height="1.91"/><polygon class="cls-2" points="113.49 248.95 107.49 248.95 108.36 248.09 112.61 248.09 113.49 248.95"/><path class="cls-2" d="M112.6,209.58a8.56,8.56,0,0,0-4.21,0c-.75.31-.29.61,0,.74v37.12h4.28V210.32C112.89,210.19,113.35,209.89,112.6,209.58Z"/><rect class="cls-2" x="108.5" y="207.12" width="3.98" height="2.63"/><rect class="cls-2" x="107.97" y="204.61" width="4.93" height="2.51"/><rect class="cls-2" x="108.06" y="247.73" width="4.85" height="0.36" rx="0.18" ry="0.18"/><rect class="cls-2" x="107.4" y="251.03" width="6.17" height="0.89"/><polygon class="cls-9" points="117.76 256.86 119.57 257.96 119.57 260.59 115.03 260.59 115.03 256.86 117.76 256.86"/><rect class="cls-9" x="115.63" y="259.04" width="4.79" height="46.93"/><rect class="cls-4" x="34.53" y="260.58" width="12.33" height="4.65"/><rect class="cls-10" x="117.57" y="263.03" width="226.52" height="47.82"/><rect class="cls-10" x="46.84" y="259.65" width="68.8" height="51.4"/><rect class="cls-6" x="29.34" y="259.61" width="5.19" height="6.85"/><rect class="cls-10" x="28.38" y="269.83" width="18.46" height="41.22"/><rect class="cls-11" x="34.59" y="269.83" width="12.25" height="41.22"/><polygon class="cls-9" points="25.95 268.19 46.84 268.19 46.84 269.83 27.99 269.83 25.95 268.19"/><rect class="cls-4" x="25.95" y="265.86" width="20.89" height="2.32"/><polygon class="cls-5" points="25 265.23 46.84 265.23 46.84 265.86 25.95 265.86 25 265.23"/><polygon class="cls-5" points="46.86 267.11 41.07 267.11 43.11 268.76 46.86 268.76 46.86 267.11"/><rect class="cls-4" x="41.07" y="264.79" width="5.79" height="2.32"/><polygon class="cls-5" points="46.86 264.16 40.12 264.16 41.07 264.79 46.86 264.79 46.86 264.16"/><rect class="cls-4" x="28.88" y="258.47" width="5.99" height="1.14"/><rect class="cls-4" x="29.55" y="257.96" width="4.72" height="0.52"/><rect class="cls-6" x="36.71" y="282.42" width="6.41" height="13.29"/><rect class="cls-9" x="38.15" y="284.59" width="3.52" height="8.51"/><rect class="cls-3" x="52.85" y="305" width="55.6" height="1.11"/><path class="cls-6" d="M35.91,280.25s3.25-.41,4-2.06V281Z"/><path class="cls-6" d="M43.92,280.25s-3.25-.41-4-2.06V281Z"/><polygon class="cls-3" points="72.37 311.05 66.52 311.05 67.86 308.29 71.21 308.29 72.37 311.05"/><rect class="cls-6" x="36.14" y="281.21" width="7.54" height="0.99"/><polygon class="cls-3" points="94.76 311.05 88.91 311.05 90.26 308.29 93.6 308.29 94.76 311.05"/><rect class="cls-12" x="34.59" y="269.83" width="12.25" height="41.22"/><rect class="cls-5" x="52.85" y="306.1" width="55.86" height="0.15"/><rect class="cls-5" x="52.85" y="304.69" width="55.86" height="0.3"/><rect class="cls-4" x="71.61" y="283.09" width="18.29" height="27.95"/><polygon class="cls-6" points="43.12 282.42 36.71 282.42 36.14 282.2 43.69 282.2 43.12 282.42"/><rect class="cls-3" x="74.97" y="286.15" width="11.86" height="24.89"/><rect class="cls-6" x="35.91" y="280.25" width="8.01" height="0.96"/><ellipse class="cls-6" cx="39.92" cy="279.46" rx="1.06" ry="1.27"/><rect class="cls-4" x="28.38" y="269.83" width="6.21" height="3.87"/><rect class="cls-2" x="76.91" y="288.6" width="8.05" height="22.44"/><rect class="cls-4" x="34.53" y="273.4" width="11.46" height="1.27"/><rect class="cls-3" x="28.38" y="276.41" width="6.21" height="34.63"/><rect class="cls-6" x="67.66" y="267.93" width="26.37" height="11.58"/><rect class="cls-6" x="119.11" y="259.61" width="5.19" height="6.85" transform="translate(243.42 526.07) rotate(-180)"/><rect class="cls-4" x="118.77" y="258.47" width="5.99" height="1.14" transform="translate(243.53 518.08) rotate(-180)"/><rect class="cls-4" x="119.37" y="257.96" width="4.72" height="0.52" transform="translate(243.46 516.43) rotate(-180)"/><polygon class="cls-3" points="94.02 267.93 67.66 267.93 66.44 265.86 95.24 265.86 94.02 267.93"/><polygon class="cls-3" points="94.23 281.58 67.86 281.58 66.64 279.51 95.44 279.51 94.23 281.58"/><rect class="cls-6" x="67.99" y="281.58" width="3.1" height="1.51"/><rect class="cls-13" x="34.53" y="273.4" width="11.46" height="1.27"/><rect class="cls-6" x="67.86" y="285.04" width="3.34" height="23.25"/><rect class="cls-3" x="67.48" y="283.09" width="4.12" height="2.52"/><rect class="cls-6" x="90.39" y="281.58" width="3.1" height="1.51"/><rect class="cls-6" x="90.26" y="285.04" width="3.34" height="23.25"/><rect class="cls-3" x="89.88" y="283.09" width="4.12" height="2.52"/><rect class="cls-2" x="43.43" y="268.76" width="3.4" height="1.07"/><rect class="cls-4" x="43.69" y="269.83" width="3.17" height="2.9"/><rect class="cls-3" x="42.75" y="273.33" width="4.11" height="0.54"/><polygon class="cls-3" points="43.69 272.73 46.86 272.73 46.86 273.33 42.75 273.33 43.69 272.73"/><rect class="cls-4" x="44.3" y="273.87" width="2.56" height="1.73"/><path class="cls-3" d="M44,293.73s0-12.83.33-18.13h2.56v18.13Z"/><path class="cls-3" d="M44,294.55a24.52,24.52,0,0,0-.28,6.89h3.26v-6.89Z"/><rect class="cls-4" x="43.92" y="293.73" width="2.92" height="1.1"/><rect class="cls-4" x="43.69" y="301.44" width="3.26" height="1.88"/><polygon class="cls-4" points="43.69 303.32 46.95 303.32 46.95 304.16 42.75 304.16 43.69 303.32"/><rect class="cls-3" x="42.75" y="304.16" width="4.2" height="6.89"/><polygon class="cls-3" points="34.89 274.41 28.09 274.41 27.71 273.33 35.26 273.33 34.89 274.41"/><rect class="cls-4" x="28.38" y="274.41" width="6.21" height="2"/><rect class="cls-4" x="115.63" y="260.58" width="18.61" height="4.65" transform="translate(249.88 525.82) rotate(-180)"/><rect class="cls-6" x="134.24" y="259.61" width="5.19" height="6.85" transform="translate(273.68 526.07) rotate(-180)"/><rect class="cls-10" x="121.94" y="269.83" width="18.46" height="41.22" transform="translate(262.33 580.88) rotate(-180)"/><rect class="cls-14" x="121.94" y="269.83" width="12.25" height="41.22" transform="translate(256.12 580.88) rotate(-180)"/><polygon class="cls-9" points="142.82 268.19 121.94 268.19 121.94 269.83 140.78 269.83 142.82 268.19"/><rect class="cls-4" x="121.94" y="265.86" width="20.89" height="2.32" transform="translate(264.76 534.05) rotate(-180)"/><polygon class="cls-5" points="143.77 265.23 121.94 265.23 121.94 265.86 142.82 265.86 143.77 265.23"/><polygon class="cls-5" points="117.81 267.11 127.7 267.11 125.66 268.76 117.81 268.76 117.81 267.11"/><rect class="cls-5" x="117.81" y="264.79" width="9.89" height="2.32"/><polygon class="cls-5" points="121.92 264.16 128.65 264.16 127.7 264.79 121.92 264.79 121.92 264.16"/><polygon class="cls-5" points="123.62 264.16 116.89 264.16 117.84 264.79 123.62 264.79 123.62 264.16"/><rect class="cls-4" x="133.9" y="258.47" width="5.99" height="1.14" transform="translate(273.79 518.08) rotate(-180)"/><rect class="cls-4" x="134.5" y="257.96" width="4.72" height="0.52" transform="translate(273.72 516.43) rotate(-180)"/><rect class="cls-6" x="125.66" y="282.42" width="6.41" height="13.29" transform="translate(257.72 578.13) rotate(-180)"/><rect class="cls-9" x="127.1" y="284.59" width="3.52" height="8.51" transform="translate(257.72 577.7) rotate(-180)"/><path class="cls-6" d="M132.86,280.25s-3.25-.41-4-2.06V281Z"/><path class="cls-6" d="M124.85,280.25s3.25-.41,4-2.06V281Z"/><rect class="cls-6" x="125.09" y="281.21" width="7.54" height="0.99" transform="translate(257.72 563.41) rotate(-180)"/><rect class="cls-15" x="121.94" y="269.83" width="12.25" height="41.22" transform="translate(256.12 580.88) rotate(-180)"/><polygon class="cls-6" points="125.66 282.42 132.06 282.42 132.63 282.2 125.09 282.2 125.66 282.42"/><rect class="cls-6" x="124.85" y="280.25" width="8.01" height="0.96" transform="translate(257.72 561.46) rotate(-180)"/><ellipse class="cls-6" cx="128.86" cy="279.46" rx="1.06" ry="1.27"/><rect class="cls-4" x="134.19" y="269.83" width="6.21" height="3.87" transform="translate(274.58 543.53) rotate(-180)"/><rect class="cls-4" x="122.78" y="273.4" width="11.46" height="1.27" transform="translate(257.03 548.07) rotate(-180)"/><rect class="cls-3" x="134.19" y="276.41" width="6.21" height="34.63" transform="translate(274.58 587.46) rotate(-180)"/><rect class="cls-16" x="122.78" y="273.4" width="11.46" height="1.27" transform="translate(257.03 548.07) rotate(-180)"/><rect class="cls-2" x="118.06" y="268.76" width="7.53" height="1.07" transform="translate(243.66 538.59) rotate(-180)"/><rect class="cls-4" x="118.33" y="269.83" width="7" height="2.9" transform="translate(243.66 542.56) rotate(-180)"/><rect class="cls-3" x="118.06" y="273.33" width="7.96" height="0.54" transform="translate(244.09 547.21) rotate(-180)"/><polygon class="cls-3" points="125.09 272.73 118.06 272.73 117.05 273.33 126.03 273.33 125.09 272.73"/><rect class="cls-4" x="119.27" y="273.87" width="5.2" height="1.73" transform="translate(243.75 549.47) rotate(-180)"/><polygon class="cls-4" points="118.7 274.74 124.47 274.74 124.47 273.87 118.06 273.87 118.7 274.74"/><polygon class="cls-4" points="125.06 274.74 119.28 274.74 119.28 273.87 125.69 273.87 125.06 274.74"/><path class="cls-3" d="M124.81,293.73s0-12.83-.33-18.13h-2.56v18.13Z"/><path class="cls-3" d="M124.81,294.55a24.52,24.52,0,0,1,.28,6.89h-3.26v-6.89Z"/><path class="cls-3" d="M118.94,293.73s0-12.83.33-18.13h2.65v18.13Z"/><path class="cls-3" d="M118.94,294.55a24.52,24.52,0,0,0-.28,6.89h3.26v-6.89Z"/><rect class="cls-4" x="118.87" y="293.73" width="5.98" height="1.1" transform="translate(243.73 588.56) rotate(-180)"/><rect class="cls-4" x="118.67" y="301.44" width="6.42" height="1.88" transform="translate(243.76 604.76) rotate(-180)"/><polygon class="cls-4" points="125.09 303.32 121.83 303.32 121.83 304.16 126.03 304.16 125.09 303.32"/><polyline class="cls-4" points="118.69 303.32 121.95 303.32 121.95 304.16 117.75 304.16"/><rect class="cls-3" x="115.63" y="305.97" width="10.39" height="5.08" transform="translate(241.66 617.02) rotate(-180)"/><rect class="cls-4" x="117.75" y="304.16" width="8.28" height="1.81"/><polygon class="cls-3" points="133.89 274.41 140.69 274.41 141.07 273.33 133.51 273.33 133.89 274.41"/><rect class="cls-4" x="134.19" y="274.41" width="6.21" height="2" transform="translate(274.58 550.83) rotate(-180)"/><rect class="cls-3" x="68.44" y="271.23" width="2.8" height="6.67" rx="1.4" ry="1.4"/><rect class="cls-3" x="67.99" y="276.34" width="3.7" height="2.41"/><ellipse class="cls-3" cx="69.85" cy="270.81" rx="0.48" ry="0.67"/><rect class="cls-3" x="90.45" y="271.23" width="2.8" height="6.67" rx="1.4" ry="1.4"/><rect class="cls-3" x="90" y="276.33" width="3.7" height="2.41"/><ellipse class="cls-3" cx="91.85" cy="270.81" rx="0.48" ry="0.67"/><rect class="cls-2" x="75.09" y="269.85" width="2.23" height="7.73"/><rect class="cls-2" x="79.63" y="269.85" width="2.23" height="7.73"/><rect class="cls-2" x="84.17" y="269.85" width="2.23" height="7.73"/><rect class="cls-3" x="73.38" y="270.06" width="1.41" height="7.41"/><rect class="cls-4" x="73.08" y="269.13" width="2.02" height="0.44"/><polygon class="cls-4" points="75.09 269.57 73.08 269.57 73.38 270.06 74.79 270.06 75.09 269.57"/><rect class="cls-4" x="73.08" y="277.85" width="2.02" height="0.44"/><polygon class="cls-4" points="75.09 277.85 73.08 277.85 73.38 277.37 74.79 277.37 75.09 277.85"/><rect class="cls-3" x="77.77" y="270.06" width="1.41" height="7.41"/><rect class="cls-4" x="77.47" y="269.13" width="2.02" height="0.44"/><polygon class="cls-4" points="79.49 269.57 77.47 269.57 77.77 270.06 79.19 270.06 79.49 269.57"/><rect class="cls-4" x="77.47" y="277.85" width="2.02" height="0.44"/><polygon class="cls-4" points="79.49 277.85 77.47 277.85 77.77 277.37 79.19 277.37 79.49 277.85"/><rect class="cls-3" x="82.31" y="270.06" width="1.41" height="7.41"/><rect class="cls-4" x="82.01" y="269.13" width="2.02" height="0.44"/><polygon class="cls-4" points="84.03 269.57 82.01 269.57 82.31 270.06 83.73 270.06 84.03 269.57"/><rect class="cls-4" x="82.01" y="277.85" width="2.02" height="0.44"/><polygon class="cls-4" points="84.03 277.85 82.01 277.85 82.31 277.37 83.73 277.37 84.03 277.85"/><rect class="cls-3" x="86.71" y="270.06" width="1.41" height="7.41"/><rect class="cls-4" x="86.41" y="269.13" width="2.02" height="0.44"/><polygon class="cls-4" points="88.42 269.57 86.41 269.57 86.71 270.06 88.12 270.06 88.42 269.57"/><rect class="cls-4" x="86.41" y="277.85" width="2.02" height="0.44"/><polygon class="cls-4" points="88.42 277.85 86.41 277.85 86.71 277.37 88.12 277.37 88.42 277.85"/><polygon class="cls-10" points="72.03 279.51 67.66 279.51 68 278.75 71.7 278.75 72.03 279.51"/><polygon class="cls-10" points="94.03 279.51 89.67 279.51 90 278.75 93.7 278.75 94.03 279.51"/><polygon class="cls-4" points="45.28 309.95 53.59 309.95 53.83 310.91 45.04 310.91 45.28 309.95"/><polygon class="cls-4" points="108.08 309.95 116.39 309.95 116.63 310.91 107.84 310.91 108.08 309.95"/><rect class="cls-3" x="45.28" y="306.25" width="8.3" height="3.7"/><rect class="cls-5" x="45.28" y="306.1" width="8.3" height="0.15"/><rect class="cls-3" x="45.28" y="305" width="8.3" height="1.11"/><rect class="cls-5" x="45.28" y="304.69" width="8.3" height="0.3"/><rect class="cls-4" x="45.4" y="303.44" width="8.06" height="1.26"/><polygon class="cls-4" points="53.46 303.44 45.41 303.44 46.25 302.18 52.62 302.18 53.46 303.44"/><rect class="cls-4" x="46.26" y="269.85" width="6.36" height="32.34"/><rect class="cls-5" x="46.26" y="267.93" width="6.36" height="1.91"/><polygon class="cls-5" points="52.62 267.93 46.26 267.93 45.49 266.17 53.4 266.17 52.62 267.93"/><rect class="cls-3" x="108.07" y="306.25" width="8.3" height="3.7"/><rect class="cls-9" x="72.99" y="249.37" width="50.83" height="5.17"/><rect class="cls-5" x="108.07" y="306.1" width="8.3" height="0.15"/><rect class="cls-4" x="113.73" y="245.92" width="6" height="0.84"/><rect class="cls-5" x="113.73" y="246.76" width="6" height="2.14"/><rect class="cls-4" x="113.48" y="248.9" width="6.51" height="1.91"/><polygon class="cls-4" points="119.73 245.92 113.73 245.92 114.61 245.06 118.86 245.06 119.73 245.92"/><path class="cls-4" d="M118.84,206.56a8.56,8.56,0,0,0-4.21,0c-.75.31-.29.8,0,.94V244.8h4.28V207.49C119.13,207.36,119.59,206.86,118.84,206.56Z"/><rect class="cls-4" x="114.74" y="204.1" width="3.98" height="2.63"/><rect class="cls-4" x="114.22" y="201.59" width="4.93" height="2.51"/><rect class="cls-5" x="114.31" y="244.7" width="4.85" height="0.36" rx="0.18" ry="0.18"/><rect class="cls-5" x="113.65" y="248.01" width="6.17" height="0.89"/><rect class="cls-3" x="108.07" y="305" width="8.3" height="1.11"/><rect class="cls-3" x="75.78" y="177.22" width="56.88" height="19.36"/><rect class="cls-5" x="108.07" y="304.69" width="8.3" height="0.3"/><rect class="cls-4" x="108.19" y="303.44" width="8.06" height="1.26"/><polygon class="cls-4" points="116.25 303.44 108.19 303.44 109.03 302.18 115.41 302.18 116.25 303.44"/><rect class="cls-4" x="77.42" y="245.92" width="6" height="0.84"/><rect class="cls-5" x="77.42" y="246.76" width="6" height="2.14"/><rect class="cls-4" x="77.17" y="248.9" width="6.51" height="1.91"/><polygon class="cls-4" points="83.42 245.92 77.42 245.92 78.3 245.06 82.55 245.06 83.42 245.92"/><path class="cls-4" d="M82.53,206.56a8.56,8.56,0,0,0-4.21,0c-.75.31-.29.8,0,.94V244.8h4.28V207.49C82.82,207.36,83.28,206.86,82.53,206.56Z"/><rect class="cls-4" x="78.43" y="204.1" width="3.98" height="2.63"/><rect class="cls-4" x="77.91" y="201.59" width="4.93" height="2.51"/><rect class="cls-5" x="78" y="244.7" width="4.85" height="0.36" rx="0.18" ry="0.18"/><rect class="cls-5" x="77.34" y="248.01" width="6.17" height="0.89"/><rect class="cls-4" x="89.52" y="245.92" width="6" height="0.84"/><rect class="cls-5" x="89.52" y="246.76" width="6" height="2.14"/><rect class="cls-4" x="89.27" y="248.9" width="6.51" height="1.91"/><polygon class="cls-4" points="95.53 245.92 89.53 245.92 90.4 245.06 94.65 245.06 95.53 245.92"/><path class="cls-4" d="M94.63,206.56a8.56,8.56,0,0,0-4.21,0c-.75.31-.29.8,0,.94V244.8h4.28V207.49C94.93,207.36,95.39,206.86,94.63,206.56Z"/><rect class="cls-4" x="90.54" y="204.1" width="3.98" height="2.63"/><rect class="cls-4" x="90.01" y="201.59" width="4.93" height="2.51"/><rect class="cls-5" x="90.1" y="244.7" width="4.85" height="0.36" rx="0.18" ry="0.18"/><rect class="cls-5" x="89.44" y="248.01" width="6.17" height="0.89"/><rect class="cls-4" x="101.63" y="245.92" width="6" height="0.84"/><rect class="cls-5" x="101.63" y="246.76" width="6" height="2.14"/><rect class="cls-4" x="101.37" y="248.9" width="6.51" height="1.91"/><polygon class="cls-4" points="107.63 245.92 101.63 245.92 102.5 245.06 106.75 245.06 107.63 245.92"/><path class="cls-4" d="M106.74,206.56a8.56,8.56,0,0,0-4.21,0c-.75.31-.29.8,0,.94V244.8h4.28V207.49C107,207.36,107.49,206.86,106.74,206.56Z"/><rect class="cls-4" x="102.64" y="204.1" width="3.98" height="2.63"/><rect class="cls-4" x="102.11" y="201.59" width="4.93" height="2.51"/><rect class="cls-5" x="102.2" y="244.7" width="4.85" height="0.36" rx="0.18" ry="0.18"/><rect class="cls-5" x="101.54" y="248.01" width="6.17" height="0.89"/><rect class="cls-4" x="109.05" y="269.85" width="6.36" height="32.34"/><rect class="cls-5" x="109.05" y="267.93" width="6.36" height="1.91"/><polygon class="cls-5" points="115.41 267.93 109.05 267.93 108.27 266.17 116.19 266.17 115.41 267.93"/><rect class="cls-6" x="46.51" y="262.7" width="69.12" height="0.73"/><polygon class="cls-5" points="117.76 256.86 44.71 256.86 43.96 256.13 118.52 256.13 117.76 256.86"/><rect class="cls-6" x="46.51" y="258.92" width="69.12" height="0.73"/><rect class="cls-17" x="46.84" y="259.67" width="68.8" height="3.03"/><rect class="cls-3" x="45.11" y="256.86" width="72.25" height="2.05"/><rect class="cls-3" x="47.41" y="252.39" width="67.61" height="3.74"/><polygon class="cls-3" points="76.05 193.76 76.05 254.49 81.33 254.49 81.33 201.68 116.54 201.68 116.54 254.49 120.94 254.49 120.94 193.76 76.05 193.76"/><rect class="cls-4" x="75.02" y="192.46" width="46.73" height="1.56"/><path class="cls-5" d="M75.78,188.4s-.92,0-1.5-1.8a2.31,2.31,0,0,0-2.47-1.6s1,.62.7,2.45a5.74,5.74,0,0,0,.9,3.64Z"/><path class="cls-5" d="M121.47,188.4s.92,0,1.5-1.8a2.31,2.31,0,0,1,2.47-1.6s-1,.62-.7,2.45a5.74,5.74,0,0,1-.9,3.64Z"/><polygon class="cls-4" points="70.93 170.16 72.4 173.65 75.78 177.22 104.22 177.22 104.22 170.16 70.93 170.16"/><polygon class="cls-4" points="137.5 170.16 136.03 173.65 132.66 177.22 104.22 177.22 104.22 170.16 137.5 170.16"/><rect class="cls-5" x="96.92" y="174.08" width="3.12" height="8.4" rx="1.56" ry="1.56"/><polygon class="cls-4" points="98.61 179.39 123.82 189.34 123.82 191.1 73.41 191.1 73.41 189.34 98.61 179.39"/><polygon class="cls-4" points="98.61 181.58 123.82 191.1 73.41 191.1 98.61 181.58"/><path class="cls-18" d="M98.61,181.61l-25.21,9.51h50.41Zm0,.88,20.54,7.75H78.07Z"/><rect class="cls-4" x="73.18" y="191.1" width="50.86" height="1.36"/><rect class="cls-3" x="124.94" y="204.1" width="7.92" height="44"/><rect class="cls-3" x="124.94" y="248.09" width="7.92" height="3.84"/><rect class="cls-4" x="124.94" y="251.93" width="8.38" height="1.91"/><rect class="cls-5" x="124.94" y="253.83" width="7.92" height="6.76"/><rect class="cls-5" x="125.68" y="198.4" width="7.17" height="5.69"/><rect class="cls-5" x="125.84" y="197.18" width="7.76" height="1.22"/><polygon class="cls-5" points="125.84 195.68 134.25 195.68 133.6 197.19 125.84 197.19 125.84 195.68"/><rect class="cls-5" x="76.4" y="168.26" width="55.64" height="1.89"/><polygon class="cls-5" points="132.04 168.26 76.4 168.26 75.62 167.59 75.62 166.91 132.81 166.91 132.81 167.59 132.04 168.26"/><rect class="cls-5" x="80.96" y="166.42" width="46.53" height="1.58"/><polygon class="cls-5" points="127.48 166.42 80.96 166.42 80.31 165.85 80.31 165.28 128.13 165.28 128.13 165.85 127.48 166.42"/><rect class="cls-5" x="86.09" y="164.64" width="36.26" height="1.23"/><polygon class="cls-5" points="122.35 164.64 86.09 164.64 85.59 164.19 85.59 163.75 122.85 163.75 122.85 164.19 122.35 164.64"/><rect class="cls-5" x="89.86" y="162.65" width="28.71" height="1.23"/><polygon class="cls-5" points="118.57 162.65 89.86 162.65 89.46 162.2 89.46 161.76 118.97 161.76 118.97 162.2 118.57 162.65"/><rect class="cls-7" x="342.23" y="198.4" width="38.76" height="20.43" transform="translate(723.21 417.24) rotate(-180)"/><rect class="cls-5" x="333.75" y="196.05" width="5.56" height="8.29" transform="translate(673.07 400.38) rotate(-180)"/><rect class="cls-5" x="337.52" y="253.13" width="9.01" height="6.15" transform="translate(684.04 512.41) rotate(-180)"/><polygon class="cls-5" points="335.06 204.07 338.92 198.74 338.92 262.86 335.06 262.86 335.06 204.07"/><rect class="cls-2" x="370.72" y="248.95" width="6" height="0.84" transform="translate(747.44 498.73) rotate(-180)"/><rect class="cls-2" x="370.72" y="249.79" width="6" height="2.14" transform="translate(747.44 501.71) rotate(-180)"/><rect class="cls-2" x="370.46" y="251.93" width="6.51" height="1.91" transform="translate(747.44 505.76) rotate(-180)"/><polygon class="cls-2" points="370.72 248.95 376.72 248.95 375.84 248.09 371.59 248.09 370.72 248.95"/><path class="cls-2" d="M371.59,210.32v37.12h4.28V210.32c.27-.14.73-.51,0-.81a10.25,10.25,0,0,0-4.21,0C370.86,209.8,371.32,210.19,371.59,210.32Z"/><rect class="cls-2" x="371.73" y="207.12" width="3.98" height="2.63" transform="translate(747.44 416.87) rotate(-180)"/><rect class="cls-2" x="371.3" y="204.61" width="4.93" height="2.51" transform="translate(747.54 411.73) rotate(-180)"/><rect class="cls-2" x="371.29" y="247.73" width="4.85" height="0.36" rx="0.18" ry="0.18" transform="translate(747.44 495.82) rotate(-180)"/><rect class="cls-2" x="370.63" y="251.03" width="6.17" height="0.89" transform="translate(747.44 502.96) rotate(-180)"/><rect class="cls-2" x="358.61" y="248.95" width="6" height="0.84" transform="translate(723.23 498.73) rotate(-180)"/><rect class="cls-2" x="358.61" y="249.79" width="6" height="2.14" transform="translate(723.23 501.71) rotate(-180)"/><rect class="cls-2" x="358.36" y="251.93" width="6.51" height="1.91" transform="translate(723.23 505.76) rotate(-180)"/><polygon class="cls-2" points="358.61 248.95 364.62 248.95 363.74 248.09 359.49 248.09 358.61 248.95"/><path class="cls-2" d="M359.48,210.32v37.12h4.28V210.32c.27-.14.73-.51,0-.81a10.25,10.25,0,0,0-4.21,0C358.76,209.8,359.21,210.19,359.48,210.32Z"/><rect class="cls-2" x="359.62" y="207.12" width="3.98" height="2.63" transform="translate(723.23 416.87) rotate(-180)"/><rect class="cls-2" x="359.2" y="204.61" width="4.93" height="2.51" transform="translate(723.33 411.73) rotate(-180)"/><rect class="cls-2" x="359.19" y="247.73" width="4.85" height="0.36" rx="0.18" ry="0.18" transform="translate(723.23 495.82) rotate(180)"/><rect class="cls-2" x="358.53" y="251.03" width="6.17" height="0.89" transform="translate(723.23 502.96) rotate(-180)"/><rect class="cls-2" x="346.51" y="248.95" width="6" height="0.84" transform="translate(699.02 498.73) rotate(-180)"/><rect class="cls-2" x="346.51" y="249.79" width="6" height="2.14" transform="translate(699.02 501.71) rotate(-180)"/><rect class="cls-2" x="346.25" y="251.93" width="6.51" height="1.91" transform="translate(699.02 505.76) rotate(-180)"/><polygon class="cls-2" points="346.51 248.95 352.51 248.95 351.64 248.09 347.38 248.09 346.51 248.95"/><path class="cls-2" d="M347.38,210.32v37.12h4.28V210.32c.27-.14.73-.51,0-.81a10.25,10.25,0,0,0-4.21,0C346.65,209.8,347.11,210.19,347.38,210.32Z"/><rect class="cls-2" x="347.52" y="207.12" width="3.98" height="2.63" transform="translate(699.02 416.87) rotate(-180)"/><rect class="cls-2" x="347.1" y="204.61" width="4.93" height="2.51" transform="translate(699.12 411.73) rotate(-180)"/><rect class="cls-2" x="347.08" y="247.73" width="4.85" height="0.36" rx="0.18" ry="0.18" transform="translate(699.02 495.82) rotate(-180)"/><rect class="cls-2" x="346.43" y="251.03" width="6.17" height="0.89" transform="translate(699.02 502.96) rotate(-180)"/><polygon class="cls-9" points="342.24 256.86 340.43 257.96 340.43 260.59 344.97 260.59 344.97 256.86 342.24 256.86"/><rect class="cls-9" x="339.57" y="259.04" width="4.79" height="46.93" transform="translate(683.94 565.01) rotate(-180)"/><rect class="cls-4" x="413.14" y="260.58" width="12.33" height="4.65" transform="translate(838.61 525.82) rotate(-180)"/><rect class="cls-10" x="344.37" y="259.65" width="68.8" height="51.4" transform="translate(757.53 570.69) rotate(-180)"/><rect class="cls-6" x="425.47" y="259.61" width="5.19" height="6.85" transform="translate(856.13 526.07) rotate(-180)"/><rect class="cls-10" x="413.16" y="269.83" width="18.46" height="41.22" transform="translate(844.78 580.88) rotate(-180)"/><rect class="cls-19" x="413.16" y="269.83" width="12.25" height="41.22" transform="translate(838.57 580.88) rotate(-180)"/><polygon class="cls-9" points="434.05 268.19 413.16 268.19 413.16 269.83 432.01 269.83 434.05 268.19"/><rect class="cls-4" x="413.16" y="265.86" width="20.89" height="2.32" transform="translate(847.21 534.05) rotate(-180)"/><polygon class="cls-5" points="435 265.23 413.16 265.23 413.16 265.86 434.05 265.86 435 265.23"/><polygon class="cls-5" points="413.14 267.11 418.93 267.11 416.89 268.76 413.14 268.76 413.14 267.11"/><rect class="cls-4" x="413.14" y="264.79" width="5.79" height="2.32"/><polygon class="cls-5" points="413.14 264.16 419.88 264.16 418.93 264.79 413.14 264.79 413.14 264.16"/><rect class="cls-4" x="425.13" y="258.47" width="5.99" height="1.14" transform="translate(856.24 518.08) rotate(-180)"/><rect class="cls-4" x="425.73" y="257.96" width="4.72" height="0.52" transform="translate(856.18 516.43) rotate(-180)"/><rect class="cls-6" x="416.88" y="282.42" width="6.41" height="13.29" transform="translate(840.17 578.13) rotate(-180)"/><rect class="cls-9" x="418.33" y="284.59" width="3.52" height="8.51" transform="translate(840.17 577.7) rotate(-180)"/><rect class="cls-3" x="351.55" y="305" width="55.6" height="1.11" transform="translate(758.71 611.1) rotate(-180)"/><path class="cls-6" d="M424.09,280.25s-3.25-.41-4-2.06V281Z"/><path class="cls-6" d="M416.08,280.25s3.25-.41,4-2.06V281Z"/><polygon class="cls-3" points="387.63 311.05 393.48 311.05 392.14 308.29 388.79 308.29 387.63 311.05"/><rect class="cls-6" x="416.31" y="281.21" width="7.54" height="0.99" transform="translate(840.17 563.41) rotate(-180)"/><polygon class="cls-3" points="365.24 311.05 371.09 311.05 369.74 308.29 366.4 308.29 365.24 311.05"/><rect class="cls-20" x="413.16" y="269.83" width="12.25" height="41.22" transform="translate(838.57 580.88) rotate(-180)"/><rect class="cls-5" x="351.3" y="306.1" width="55.86" height="0.15" transform="translate(758.45 612.36) rotate(-180)"/><rect class="cls-5" x="351.3" y="304.69" width="55.86" height="0.3" transform="translate(758.45 609.69) rotate(-180)"/><rect class="cls-4" x="370.11" y="283.09" width="18.29" height="27.95" transform="translate(758.5 594.14) rotate(-180)"/><polygon class="cls-6" points="416.88 282.42 423.29 282.42 423.86 282.2 416.31 282.2 416.88 282.42"/><rect class="cls-3" x="373.17" y="286.15" width="11.86" height="24.89" transform="translate(758.19 597.2) rotate(-180)"/><rect class="cls-6" x="416.08" y="280.25" width="8.01" height="0.96" transform="translate(840.17 561.46) rotate(-180)"/><ellipse class="cls-6" cx="420.08" cy="279.46" rx="1.06" ry="1.27"/><rect class="cls-4" x="425.41" y="269.83" width="6.21" height="3.87" transform="translate(857.03 543.53) rotate(-180)"/><rect class="cls-2" x="375.04" y="288.6" width="8.05" height="22.44" transform="translate(758.14 599.65) rotate(-180)"/><rect class="cls-4" x="414.01" y="273.4" width="11.46" height="1.27" transform="translate(839.48 548.07) rotate(-180)"/><rect class="cls-3" x="425.41" y="276.41" width="6.21" height="34.63" transform="translate(857.03 587.46) rotate(-180)"/><rect class="cls-6" x="365.97" y="267.93" width="26.37" height="11.58" transform="translate(758.31 547.44) rotate(-180)"/><rect class="cls-6" x="335.69" y="259.61" width="5.19" height="6.85"/><rect class="cls-4" x="335.24" y="258.47" width="5.99" height="1.14"/><rect class="cls-4" x="335.91" y="257.96" width="4.72" height="0.52"/><polygon class="cls-3" points="365.98 267.93 392.34 267.93 393.56 265.86 364.76 265.86 365.98 267.93"/><polygon class="cls-3" points="365.77 281.58 392.14 281.58 393.36 279.51 364.56 279.51 365.77 281.58"/><rect class="cls-6" x="388.9" y="281.58" width="3.1" height="1.51" transform="translate(780.91 564.67) rotate(-180)"/><rect class="cls-21" x="414.01" y="273.4" width="11.46" height="1.27" transform="translate(839.48 548.07) rotate(-180)"/><rect class="cls-6" x="388.79" y="285.04" width="3.34" height="23.25" transform="translate(780.93 593.32) rotate(-180)"/><rect class="cls-3" x="388.39" y="283.09" width="4.12" height="2.52" transform="translate(780.91 568.71) rotate(-180)"/><rect class="cls-6" x="366.51" y="281.58" width="3.1" height="1.51" transform="translate(736.12 564.67) rotate(-180)"/><rect class="cls-6" x="366.4" y="285.04" width="3.34" height="23.25" transform="translate(736.14 593.32) rotate(-180)"/><rect class="cls-3" x="366" y="283.09" width="4.12" height="2.52" transform="translate(736.12 568.71) rotate(-180)"/><rect class="cls-2" x="413.16" y="268.76" width="3.4" height="1.07" transform="translate(829.73 538.59) rotate(-180)"/><rect class="cls-4" x="413.14" y="269.83" width="3.17" height="2.9" transform="translate(829.46 542.56) rotate(-180)"/><rect class="cls-3" x="413.14" y="273.33" width="4.11" height="0.54" transform="translate(830.4 547.21) rotate(-180)"/><polygon class="cls-3" points="416.31 272.73 413.14 272.73 413.14 273.33 417.25 273.33 416.31 272.73"/><rect class="cls-4" x="413.14" y="273.87" width="2.56" height="1.73" transform="translate(828.84 549.47) rotate(-180)"/><path class="cls-3" d="M416,293.73s0-12.83-.33-18.13h-2.56v18.13Z"/><path class="cls-3" d="M416,294.55a24.52,24.52,0,0,1,.28,6.89h-3.26v-6.89Z"/><rect class="cls-4" x="413.16" y="293.73" width="2.92" height="1.1" transform="translate(829.24 588.56) rotate(-180)"/><rect class="cls-4" x="413.05" y="301.44" width="3.26" height="1.88" transform="translate(829.37 604.76) rotate(-180)"/><polygon class="cls-4" points="416.31 303.32 413.05 303.32 413.05 304.16 417.25 304.16 416.31 303.32"/><rect class="cls-3" x="413.05" y="304.16" width="4.2" height="6.89" transform="translate(830.31 615.21) rotate(-180)"/><polygon class="cls-3" points="425.11 274.41 431.92 274.41 432.29 273.33 424.74 273.33 425.11 274.41"/><rect class="cls-4" x="425.41" y="274.41" width="6.21" height="2" transform="translate(857.03 550.83) rotate(-180)"/><rect class="cls-4" x="325.76" y="260.58" width="18.61" height="4.65"/><rect class="cls-6" x="320.57" y="259.61" width="5.19" height="6.85"/><rect class="cls-10" x="319.6" y="269.83" width="18.46" height="41.22"/><rect class="cls-22" x="325.81" y="269.83" width="12.25" height="41.22"/><polygon class="cls-9" points="317.18 268.19 338.06 268.19 338.06 269.83 319.22 269.83 317.18 268.19"/><rect class="cls-4" x="317.18" y="265.86" width="20.89" height="2.32"/><polygon class="cls-5" points="316.23 265.23 338.06 265.23 338.06 265.86 317.18 265.86 316.23 265.23"/><polygon class="cls-5" points="342.19 267.11 332.3 267.11 334.34 268.76 342.19 268.76 342.19 267.11"/><rect class="cls-5" x="332.3" y="264.79" width="9.89" height="2.32"/><polygon class="cls-5" points="338.08 264.16 331.35 264.16 332.3 264.79 338.08 264.79 338.08 264.16"/><polygon class="cls-5" points="336.38 264.16 343.11 264.16 342.16 264.79 336.38 264.79 336.38 264.16"/><rect class="cls-4" x="320.11" y="258.47" width="5.99" height="1.14"/><rect class="cls-4" x="320.78" y="257.96" width="4.72" height="0.52"/><rect class="cls-6" x="327.93" y="282.42" width="6.41" height="13.29"/><rect class="cls-9" x="329.38" y="284.59" width="3.52" height="8.51"/><path class="cls-6" d="M327.14,280.25s3.25-.41,4-2.06V281Z"/><path class="cls-6" d="M335.15,280.25s-3.25-.41-4-2.06V281Z"/><rect class="cls-6" x="327.37" y="281.21" width="7.54" height="0.99"/><rect class="cls-23" x="325.81" y="269.83" width="12.25" height="41.22"/><polygon class="cls-6" points="334.34 282.42 327.94 282.42 327.37 282.2 334.91 282.2 334.34 282.42"/><rect class="cls-6" x="327.14" y="280.25" width="8.01" height="0.96"/><ellipse class="cls-6" cx="331.14" cy="279.46" rx="1.06" ry="1.27"/><rect class="cls-4" x="319.6" y="269.83" width="6.21" height="3.87"/><rect class="cls-4" x="325.76" y="273.4" width="11.46" height="1.27"/><rect class="cls-3" x="319.6" y="276.41" width="6.21" height="34.63"/><rect class="cls-24" x="325.76" y="273.4" width="11.46" height="1.27"/><rect class="cls-2" x="334.41" y="268.76" width="7.53" height="1.07"/><rect class="cls-4" x="334.67" y="269.83" width="7" height="2.9"/><rect class="cls-3" x="333.97" y="273.33" width="7.96" height="0.54"/><polygon class="cls-3" points="334.91 272.73 341.94 272.73 342.95 273.33 333.98 273.33 334.91 272.73"/><rect class="cls-4" x="335.53" y="273.87" width="5.2" height="1.73"/><polygon class="cls-4" points="341.3 274.74 335.53 274.74 335.53 273.87 341.94 273.87 341.3 274.74"/><polygon class="cls-4" points="334.94 274.74 340.72 274.74 340.72 273.87 334.31 273.87 334.94 274.74"/><path class="cls-3" d="M335.19,293.73s0-12.83.33-18.13h2.56v18.13Z"/><path class="cls-3" d="M335.19,294.55a24.52,24.52,0,0,0-.28,6.89h3.26v-6.89Z"/><path class="cls-3" d="M341.06,293.73s0-12.83-.33-18.13h-2.65v18.13Z"/><path class="cls-3" d="M341.06,294.55a24.52,24.52,0,0,1,.28,6.89h-3.26v-6.89Z"/><rect class="cls-4" x="335.15" y="293.73" width="5.98" height="1.1"/><rect class="cls-4" x="334.91" y="301.44" width="6.42" height="1.88"/><polygon class="cls-4" points="334.91 303.32 338.17 303.32 338.17 304.16 333.97 304.16 334.91 303.32"/><polyline class="cls-4" points="341.31 303.32 338.05 303.32 338.05 304.16 342.25 304.16"/><rect class="cls-3" x="333.97" y="305.97" width="10.39" height="5.08"/><rect class="cls-4" x="333.97" y="304.16" width="8.28" height="1.81" transform="translate(676.22 610.13) rotate(-180)"/><polygon class="cls-3" points="326.11 274.41 319.31 274.41 318.93 273.33 326.49 273.33 326.11 274.41"/><rect class="cls-4" x="319.6" y="274.41" width="6.21" height="2"/><rect class="cls-3" x="388.75" y="271.23" width="2.8" height="6.67" rx="1.4" ry="1.4" transform="translate(780.31 549.14) rotate(-180)"/><rect class="cls-3" x="388.3" y="276.34" width="3.7" height="2.41" transform="translate(780.31 555.09) rotate(-180)"/><ellipse class="cls-3" cx="390.15" cy="270.81" rx="0.48" ry="0.67"/><rect class="cls-3" x="366.75" y="271.23" width="2.8" height="6.67" rx="1.4" ry="1.4" transform="translate(736.3 549.13) rotate(180)"/><rect class="cls-3" x="366.3" y="276.33" width="3.7" height="2.41" transform="translate(736.3 555.08) rotate(-180)"/><ellipse class="cls-3" cx="368.15" cy="270.81" rx="0.48" ry="0.67"/><rect class="cls-2" x="382.67" y="269.85" width="2.23" height="7.73" transform="translate(767.58 547.42) rotate(-180)"/><rect class="cls-2" x="378.13" y="269.85" width="2.23" height="7.73" transform="translate(758.5 547.42) rotate(-180)"/><rect class="cls-2" x="373.59" y="269.85" width="2.23" height="7.73" transform="translate(749.42 547.42) rotate(-180)"/><rect class="cls-3" x="385.21" y="270.06" width="1.41" height="7.41" transform="translate(771.83 547.52) rotate(-180)"/><rect class="cls-4" x="384.91" y="269.13" width="2.02" height="0.44" transform="translate(771.83 538.71) rotate(-180)"/><polygon class="cls-4" points="384.9 269.57 386.92 269.57 386.62 270.06 385.21 270.06 384.9 269.57"/><rect class="cls-4" x="384.91" y="277.85" width="2.02" height="0.44" transform="translate(771.83 556.14) rotate(-180)"/><polygon class="cls-4" points="384.9 277.85 386.92 277.85 386.62 277.37 385.21 277.37 384.9 277.85"/><rect class="cls-3" x="380.81" y="270.06" width="1.41" height="7.41" transform="translate(763.04 547.52) rotate(-180)"/><rect class="cls-4" x="380.51" y="269.13" width="2.02" height="0.44" transform="translate(763.04 538.71) rotate(-180)"/><polygon class="cls-4" points="380.51 269.57 382.53 269.57 382.23 270.06 380.81 270.06 380.51 269.57"/><rect class="cls-4" x="380.51" y="277.85" width="2.02" height="0.44" transform="translate(763.04 556.14) rotate(-180)"/><polygon class="cls-4" points="380.51 277.85 382.53 277.85 382.23 277.37 380.81 277.37 380.51 277.85"/><rect class="cls-3" x="376.27" y="270.06" width="1.41" height="7.41" transform="translate(753.96 547.52) rotate(-180)"/><rect class="cls-4" x="375.97" y="269.13" width="2.02" height="0.44" transform="translate(753.96 538.71) rotate(-180)"/><polygon class="cls-4" points="375.97 269.57 377.99 269.57 377.69 270.06 376.27 270.06 375.97 269.57"/><rect class="cls-4" x="375.97" y="277.85" width="2.02" height="0.44" transform="translate(753.96 556.14) rotate(-180)"/><polygon class="cls-4" points="375.97 277.85 377.99 277.85 377.69 277.37 376.27 277.37 375.97 277.85"/><rect class="cls-3" x="371.88" y="270.06" width="1.41" height="7.41" transform="translate(745.17 547.52) rotate(-180)"/><rect class="cls-4" x="371.58" y="269.13" width="2.02" height="0.44" transform="translate(745.17 538.71) rotate(-180)"/><polygon class="cls-4" points="371.58 269.57 373.6 269.57 373.29 270.06 371.88 270.06 371.58 269.57"/><rect class="cls-4" x="371.58" y="277.85" width="2.02" height="0.44" transform="translate(745.17 556.14) rotate(-180)"/><polygon class="cls-4" points="371.58 277.85 373.6 277.85 373.29 277.37 371.88 277.37 371.58 277.85"/><polygon class="cls-10" points="387.97 279.51 392.34 279.51 392 278.75 388.3 278.75 387.97 279.51"/><polygon class="cls-10" points="365.97 279.51 370.33 279.51 370 278.75 366.3 278.75 365.97 279.51"/><polygon class="cls-4" points="414.72 309.95 406.41 309.95 406.18 310.91 414.96 310.91 414.72 309.95"/><polygon class="cls-4" points="351.92 309.95 343.61 309.95 343.38 310.91 352.16 310.91 351.92 309.95"/><rect class="cls-3" x="406.41" y="306.25" width="8.3" height="3.7" transform="translate(821.13 616.2) rotate(-180)"/><rect class="cls-5" x="406.41" y="306.1" width="8.3" height="0.15" transform="translate(821.13 612.36) rotate(-180)"/><rect class="cls-3" x="406.41" y="305" width="8.3" height="1.11" transform="translate(821.13 611.1) rotate(-180)"/><rect class="cls-5" x="406.41" y="304.69" width="8.3" height="0.3" transform="translate(821.13 609.69) rotate(-180)"/><rect class="cls-4" x="406.54" y="303.44" width="8.06" height="1.26" transform="translate(821.13 608.13) rotate(-180)"/><polygon class="cls-4" points="406.54 303.44 414.6 303.44 413.75 302.18 407.38 302.18 406.54 303.44"/><rect class="cls-4" x="407.38" y="269.85" width="6.36" height="32.34" transform="translate(821.11 572.03) rotate(-180)"/><rect class="cls-5" x="407.38" y="267.93" width="6.36" height="1.91" transform="translate(821.11 537.78) rotate(-180)"/><polygon class="cls-5" points="407.38 267.93 413.74 267.93 414.51 266.17 406.6 266.17 407.38 267.93"/><rect class="cls-3" x="343.63" y="306.25" width="8.3" height="3.7" transform="translate(695.56 616.2) rotate(-180)"/><rect class="cls-9" x="336.18" y="249.37" width="50.83" height="5.17" transform="translate(723.19 503.91) rotate(-180)"/><rect class="cls-5" x="343.63" y="306.1" width="8.3" height="0.15" transform="translate(695.56 612.36) rotate(-180)"/><rect class="cls-4" x="340.27" y="245.92" width="6" height="0.84" transform="translate(686.53 492.68) rotate(-180)"/><rect class="cls-5" x="340.27" y="246.76" width="6" height="2.14" transform="translate(686.53 495.66) rotate(-180)"/><rect class="cls-4" x="340.01" y="248.9" width="6.51" height="1.91" transform="translate(686.53 499.71) rotate(-180)"/><polygon class="cls-4" points="340.27 245.92 346.27 245.92 345.39 245.06 341.14 245.06 340.27 245.92"/><path class="cls-4" d="M341.13,207.49V244.8h4.28V207.49c.27-.14.73-.6,0-.91a8.09,8.09,0,0,0-4.21,0C340.41,206.89,340.87,207.36,341.13,207.49Z"/><rect class="cls-4" x="341.28" y="204.1" width="3.98" height="2.63" transform="translate(686.53 410.82) rotate(-180)"/><rect class="cls-4" x="340.85" y="201.59" width="4.93" height="2.51" transform="translate(686.64 405.68) rotate(-180)"/><rect class="cls-5" x="340.84" y="244.7" width="4.85" height="0.36" rx="0.18" ry="0.18" transform="translate(686.53 489.77) rotate(-180)"/><rect class="cls-5" x="340.18" y="248.01" width="6.17" height="0.89" transform="translate(686.54 496.91) rotate(-180)"/><rect class="cls-3" x="343.63" y="305" width="8.3" height="1.11" transform="translate(695.56 611.1) rotate(-180)"/><rect class="cls-3" x="327.34" y="177.22" width="56.88" height="19.36" transform="translate(711.56 373.8) rotate(-180)"/><rect class="cls-5" x="343.63" y="304.69" width="8.3" height="0.3" transform="translate(695.56 609.69) rotate(-180)"/><rect class="cls-4" x="343.75" y="303.44" width="8.06" height="1.26" transform="translate(695.56 608.13) rotate(-180)"/><polygon class="cls-4" points="343.75 303.44 351.81 303.44 350.96 302.18 344.59 302.18 343.75 303.44"/><rect class="cls-4" x="376.58" y="245.92" width="6" height="0.84" transform="translate(759.15 492.68) rotate(-180)"/><rect class="cls-5" x="376.58" y="246.76" width="6" height="2.14" transform="translate(759.15 495.66) rotate(-180)"/><rect class="cls-4" x="376.32" y="248.9" width="6.51" height="1.91" transform="translate(759.15 499.71) rotate(-180)"/><polygon class="cls-4" points="376.58 245.92 382.58 245.92 381.7 245.06 377.45 245.06 376.58 245.92"/><path class="cls-4" d="M377.44,207.49V244.8h4.28V207.49c.27-.14.73-.6,0-.91a8.09,8.09,0,0,0-4.21,0C376.72,206.89,377.18,207.36,377.44,207.49Z"/><rect class="cls-4" x="377.59" y="204.1" width="3.98" height="2.63" transform="translate(759.15 410.82) rotate(-180)"/><rect class="cls-4" x="377.16" y="201.59" width="4.93" height="2.51" transform="translate(759.26 405.68) rotate(-180)"/><rect class="cls-5" x="377.15" y="244.7" width="4.85" height="0.36" rx="0.18" ry="0.18" transform="translate(759.15 489.77) rotate(-180)"/><rect class="cls-5" x="376.49" y="248.01" width="6.17" height="0.89" transform="translate(759.16 496.91) rotate(-180)"/><rect class="cls-4" x="364.47" y="245.92" width="6" height="0.84" transform="translate(734.95 492.68) rotate(-180)"/><rect class="cls-5" x="364.47" y="246.76" width="6" height="2.14" transform="translate(734.95 495.66) rotate(-180)"/><rect class="cls-4" x="364.22" y="248.9" width="6.51" height="1.91" transform="translate(734.95 499.71) rotate(-180)"/><polygon class="cls-4" points="364.47 245.92 370.48 245.92 369.6 245.06 365.35 245.06 364.47 245.92"/><path class="cls-4" d="M365.34,207.49V244.8h4.28V207.49c.27-.14.73-.6,0-.91a8.09,8.09,0,0,0-4.21,0C364.61,206.89,365.07,207.36,365.34,207.49Z"/><rect class="cls-4" x="365.48" y="204.1" width="3.98" height="2.63" transform="translate(734.95 410.82) rotate(-180)"/><rect class="cls-4" x="365.06" y="201.59" width="4.93" height="2.51" transform="translate(735.05 405.68) rotate(-180)"/><rect class="cls-5" x="365.05" y="244.7" width="4.85" height="0.36" rx="0.18" ry="0.18" transform="translate(734.95 489.77) rotate(-180)"/><rect class="cls-5" x="364.39" y="248.01" width="6.17" height="0.89" transform="translate(734.95 496.91) rotate(-180)"/><rect class="cls-4" x="352.37" y="245.92" width="6" height="0.84" transform="translate(710.74 492.68) rotate(-180)"/><rect class="cls-5" x="352.37" y="246.76" width="6" height="2.14" transform="translate(710.74 495.66) rotate(-180)"/><rect class="cls-4" x="352.11" y="248.9" width="6.51" height="1.91" transform="translate(710.74 499.71) rotate(-180)"/><polygon class="cls-4" points="352.37 245.92 358.37 245.92 357.5 245.06 353.25 245.06 352.37 245.92"/><path class="cls-4" d="M353.24,207.49V244.8h4.28V207.49c.27-.14.73-.6,0-.91a8.09,8.09,0,0,0-4.21,0C352.51,206.89,353,207.36,353.24,207.49Z"/><rect class="cls-4" x="353.38" y="204.1" width="3.98" height="2.63" transform="translate(710.74 410.82) rotate(-180)"/><rect class="cls-4" x="352.96" y="201.59" width="4.93" height="2.51" transform="translate(710.84 405.68) rotate(-180)"/><rect class="cls-5" x="352.94" y="244.7" width="4.85" height="0.36" rx="0.18" ry="0.18" transform="translate(710.74 489.77) rotate(-180)"/><rect class="cls-5" x="352.29" y="248.01" width="6.17" height="0.89" transform="translate(710.74 496.91) rotate(-180)"/><rect class="cls-4" x="344.59" y="269.85" width="6.36" height="32.34" transform="translate(695.54 572.03) rotate(-180)"/><rect class="cls-5" x="344.59" y="267.93" width="6.36" height="1.91" transform="translate(695.54 537.78) rotate(-180)"/><polygon class="cls-5" points="344.59 267.93 350.95 267.93 351.73 266.17 343.81 266.17 344.59 267.93"/><rect class="cls-6" x="344.37" y="262.7" width="69.12" height="0.73" transform="translate(757.85 526.13) rotate(-180)"/><polygon class="cls-5" points="342.24 256.86 415.29 256.86 416.04 256.13 341.48 256.13 342.24 256.86"/><rect class="cls-6" x="344.37" y="258.92" width="69.12" height="0.73" transform="translate(757.85 518.56) rotate(-180)"/><rect class="cls-25" x="344.37" y="259.67" width="68.8" height="3.03" transform="translate(757.53 522.37) rotate(-180)"/><rect class="cls-3" x="342.64" y="256.86" width="72.25" height="2.05" transform="translate(757.53 515.78) rotate(-180)"/><rect class="cls-3" x="344.97" y="252.39" width="67.61" height="3.74" transform="translate(757.56 508.53) rotate(-180)"/><polygon class="cls-3" points="384.07 193.76 384.07 254.49 378.79 254.49 378.79 201.68 343.59 201.68 343.59 254.49 339.19 254.49 339.19 193.76 384.07 193.76"/><rect class="cls-4" x="338.25" y="192.46" width="46.73" height="1.56" transform="translate(723.23 386.48) rotate(-180)"/><path class="cls-5" d="M384.22,188.4s.92,0,1.5-1.8a2.31,2.31,0,0,1,2.47-1.6s-1,.62-.7,2.45a5.74,5.74,0,0,1-.9,3.64Z"/><path class="cls-5" d="M338.53,188.4s-.92,0-1.5-1.8a2.31,2.31,0,0,0-2.47-1.6s1,.62.7,2.45a5.74,5.74,0,0,0,.9,3.64Z"/><polygon class="cls-4" points="389.07 170.16 387.6 173.65 384.22 177.22 355.78 177.22 355.78 170.16 389.07 170.16"/><polygon class="cls-4" points="322.5 170.16 323.96 173.65 327.34 177.22 355.78 177.22 355.78 170.16 322.5 170.16"/><rect class="cls-5" x="359.96" y="174.08" width="3.12" height="8.4" rx="1.56" ry="1.56" transform="translate(723.04 356.57) rotate(180)"/><polygon class="cls-4" points="361.39 179.39 336.18 189.34 336.18 191.1 386.59 191.1 386.59 189.34 361.39 179.39"/><polygon class="cls-4" points="361.39 181.58 336.18 191.1 386.59 191.1 361.39 181.58"/><path class="cls-18" d="M336.18,191.12h50.41l-25.21-9.51Zm45.75-.88H340.85l20.54-7.75Z"/><rect class="cls-4" x="335.96" y="191.1" width="50.86" height="1.36" transform="translate(722.77 383.56) rotate(-180)"/><rect class="cls-3" x="327.15" y="204.1" width="7.92" height="44" transform="translate(662.21 452.19) rotate(-180)"/><rect class="cls-3" x="327.15" y="248.09" width="7.92" height="3.84" transform="translate(662.21 500.02) rotate(-180)"/><rect class="cls-4" x="326.68" y="251.93" width="8.38" height="1.91" transform="translate(661.74 505.76) rotate(-180)"/><rect class="cls-5" x="327.15" y="253.83" width="7.92" height="6.76" transform="translate(662.21 514.43) rotate(-180)"/><rect class="cls-5" x="327.15" y="198.4" width="7.17" height="5.69" transform="translate(661.46 402.5) rotate(-180)"/><rect class="cls-5" x="326.4" y="197.18" width="7.76" height="1.22" transform="translate(660.55 395.59) rotate(-180)"/><polygon class="cls-5" points="334.16 195.68 325.75 195.68 326.4 197.19 334.16 197.19 334.16 195.68"/><rect class="cls-5" x="327.96" y="168.26" width="55.64" height="1.89" transform="translate(711.56 338.42) rotate(-180)"/><polygon class="cls-5" points="327.96 168.26 383.6 168.26 384.38 167.59 384.38 166.91 327.19 166.91 327.19 167.59 327.96 168.26"/><rect class="cls-5" x="332.52" y="166.42" width="46.53" height="1.58" transform="translate(711.56 334.42) rotate(-180)"/><polygon class="cls-5" points="332.52 166.42 379.04 166.42 379.69 165.85 379.69 165.28 331.87 165.28 331.87 165.85 332.52 166.42"/><rect class="cls-5" x="337.65" y="164.64" width="36.26" height="1.23" transform="translate(711.56 330.51) rotate(-180)"/><polygon class="cls-5" points="337.65 164.64 373.91 164.64 374.41 164.19 374.41 163.75 337.15 163.75 337.15 164.19 337.65 164.64"/><rect class="cls-5" x="341.43" y="162.65" width="28.71" height="1.23" transform="translate(711.56 326.53) rotate(-180)"/><polygon class="cls-5" points="341.43 162.65 370.14 162.65 370.54 162.2 370.54 161.76 341.03 161.76 341.03 162.2 341.43 162.65"/><path class="cls-1" d="M234.27,234.24l.35-5.72a13.16,13.16,0,0,0,.63-2.9,13.86,13.86,0,0,0,1.19-3.59s.14,1.79.91,1.65,2.18-2,1.48-2.69a2,2,0,0,0-1.19-.71s.12-5.27-1-7.17.2-4.43,0-5.27-1.4-3-2.38-3.23a5.32,5.32,0,0,0-2,0,6.91,6.91,0,0,0,.49-2.81,1.45,1.45,0,0,0-1.12-1.41,2.6,2.6,0,0,0,.42-1.62,1.27,1.27,0,0,0-.77-1s-.07-1.77-.55-2.13-.56.47-.45.88.74,1.1.45,1.34-2,.77-2,2.38.36,1.45.82,1.1.14,1.45.47,1.92.6.85.08,1.12-2.22.47-2.41,1.15c-.55.74-2.71,3.86-2.63,4.74s.22,3.67.63,3.7-.25.3-.63,1.53a13.63,13.63,0,0,0-.66,3.94c.08.82-1.7,1-1.51,1.7s1.21,2.41,1.67,2.27,2-4,2-4,.16,2.44-.33,3.29,2,10.66,2,10.66l2.1.21-.41-9.84,2.87.36.46,10.1Z"/><rect class="cls-9" x="194.25" y="273.91" width="3.78" height="11.82"/><rect class="cls-9" x="201.05" y="273.91" width="3.78" height="11.82"/><rect class="cls-9" x="207.11" y="273.91" width="3.78" height="11.82"/><rect class="cls-9" x="250.98" y="273.91" width="3.78" height="11.82"/><rect class="cls-9" x="257.79" y="273.91" width="3.78" height="11.82"/><rect class="cls-9" x="263.84" y="273.91" width="3.78" height="11.82"/><rect class="cls-3" x="127.1" y="307.49" width="207.2" height="3.55" transform="translate(461.4 618.54) rotate(-180)"/><path class="cls-5" d="M283,279.64v22.8c-.12,0-.1-.19-.22-.2-39.49-2.62-86.3-.8-103.69,0V279.34c43.12-4.95,86.86-1.48,103.69.26Z"/><path class="cls-4" d="M171.76,284.8v22.69s67.16-4.25,118.22,0V285S229.36,276.9,171.76,284.8Z"/><path class="cls-3" d="M171.76,287.07v22.69s67.16-4.25,118.22,0V287.24S229.36,279.17,171.76,287.07Z"/><path class="cls-4" d="M171.76,298.41v12.29s66.83-4.25,117.88,0V298.58S229.36,290.52,171.76,298.41Z"/><rect class="cls-5" x="220.57" y="283.32" width="19.93" height="25.57"/><rect class="cls-4" x="223.95" y="285.77" width="13.16" height="23.12"/><path class="cls-5" d="M230.58,276.18l-11.08,4.5v.75h22.16v-.75Z"/><rect class="cls-5" x="225.33" y="287.24" width="10.51" height="21.66"/><rect class="cls-3" x="220.13" y="282.54" width="21" height="0.78"/><rect class="cls-3" x="219.5" y="281.43" width="22.16" height="1.11"/><path class="cls-3" d="M230.58,278l-10.25,3.75h20.62Zm0,.8,5.92,2.2H224.79Z"/><polygon class="cls-4" points="224.79 281.01 230.58 278.81 236.5 281.01 224.79 281.01"/><rect class="cls-4" x="127.1" y="301.42" width="5.85" height="0.66"/><rect class="cls-4" x="132.59" y="298.6" width="5.85" height="0.66"/><rect class="cls-4" x="137.09" y="296.02" width="5.85" height="0.66"/><rect class="cls-4" x="159.24" y="289.65" width="5.85" height="0.66"/><rect class="cls-4" x="163.31" y="287.54" width="5.85" height="0.66"/><rect class="cls-4" x="167.46" y="285.17" width="5.85" height="0.66"/><rect class="cls-4" x="141.54" y="291.65" width="18.14" height="0.69"/><rect class="cls-4" x="171.76" y="276.79" width="7.28" height="7.56"/><rect class="cls-3" x="127.1" y="302.08" width="44.66" height="7.68"/><rect class="cls-3" x="132.83" y="299.26" width="38.94" height="2.83"/><rect class="cls-3" x="137.3" y="296.68" width="34.46" height="2.58"/><rect class="cls-3" x="141.71" y="292.35" width="30.05" height="4.34"/><rect class="cls-3" x="159.48" y="290.31" width="12.28" height="3.36"/><rect class="cls-6" x="102.74" y="306.37" width="21.03" height="4.68"/><rect class="cls-3" x="163.56" y="288.2" width="8.2" height="2.11"/><rect class="cls-3" x="167.66" y="285.83" width="4.1" height="2.37"/><rect class="cls-3" x="170.39" y="283.92" width="8.66" height="3.09"/><path class="cls-5" d="M289.41,280.39c-.73-.09-3-.38-6.54-.75v0C286.39,280,288.69,280.28,289.41,280.39Z"/><rect class="cls-6" x="122.5" y="302.44" width="4.6" height="3.93"/><rect class="cls-3" x="121.95" y="306.37" width="5.7" height="1.52"/><polygon class="cls-4" points="127.34 302.51 122.27 302.51 121.78 301.42 127.83 301.42 127.34 302.51"/><rect class="cls-4" x="121.63" y="307.89" width="6.35" height="3.16"/><rect class="cls-5" x="122.5" y="300.56" width="4.6" height="0.86"/><rect class="cls-6" x="98.49" y="305.34" width="4.6" height="3.93"/><rect class="cls-3" x="97.94" y="309.28" width="5.7" height="1.77"/><polygon class="cls-4" points="103.33 305.42 98.27 305.42 97.77 304.33 103.82 304.33 103.33 305.42"/><rect class="cls-5" x="98.49" y="303.46" width="4.6" height="0.86"/><rect class="cls-4" x="328.45" y="301.42" width="5.85" height="0.66" transform="translate(662.74 603.5) rotate(-180)"/><rect class="cls-4" x="322.96" y="298.6" width="5.85" height="0.66" transform="translate(651.77 597.85) rotate(-180)"/><rect class="cls-4" x="318.45" y="296.02" width="5.85" height="0.66" transform="translate(642.76 592.7) rotate(-180)"/><rect class="cls-4" x="296.3" y="289.65" width="5.85" height="0.66" transform="translate(598.46 579.95) rotate(-180)"/><rect class="cls-4" x="292.24" y="287.54" width="5.85" height="0.66" transform="translate(590.33 575.74) rotate(-180)"/><rect class="cls-4" x="288.09" y="285.17" width="5.85" height="0.66" transform="translate(582.02 571) rotate(-180)"/><rect class="cls-4" x="301.72" y="291.65" width="18.14" height="0.69" transform="translate(621.57 584) rotate(-180)"/><rect class="cls-4" x="282.35" y="276.79" width="7.28" height="7.56" transform="translate(571.99 561.15) rotate(-180)"/><rect class="cls-3" x="289.64" y="302.08" width="44.66" height="7.68" transform="translate(623.93 611.84) rotate(-180)"/><rect class="cls-3" x="289.64" y="299.26" width="38.94" height="2.83" transform="translate(618.21 601.34) rotate(-180)"/><rect class="cls-3" x="289.64" y="296.68" width="34.46" height="2.58" transform="translate(613.73 595.94) rotate(-180)"/><rect class="cls-3" x="289.64" y="292.35" width="30.05" height="4.34" transform="translate(609.32 589.03) rotate(-180)"/><rect class="cls-3" x="289.64" y="290.31" width="12.28" height="3.36" transform="translate(591.55 583.97) rotate(-180)"/><rect class="cls-6" x="337.63" y="306.37" width="21.03" height="4.68" transform="translate(696.29 617.41) rotate(-180)"/><rect class="cls-3" x="289.64" y="288.2" width="8.2" height="2.11" transform="translate(587.47 578.51) rotate(-180)"/><rect class="cls-3" x="289.64" y="285.83" width="4.1" height="2.37" transform="translate(583.37 574.03) rotate(-180)"/><rect class="cls-3" x="282.35" y="283.92" width="8.66" height="3.09" transform="translate(573.36 570.94) rotate(-180)"/><rect class="cls-6" x="334.3" y="302.44" width="4.6" height="3.93" transform="translate(673.2 608.81) rotate(-180)"/><rect class="cls-3" x="333.75" y="306.37" width="5.7" height="1.52" transform="translate(673.2 614.26) rotate(-180)"/><polygon class="cls-4" points="334.06 302.51 339.13 302.51 339.62 301.42 333.57 301.42 334.06 302.51"/><rect class="cls-4" x="333.42" y="307.89" width="6.35" height="3.16" transform="translate(673.2 618.94) rotate(-180)"/><rect class="cls-5" x="334.3" y="300.56" width="4.6" height="0.86" transform="translate(673.2 601.98) rotate(-180)"/><rect class="cls-6" x="358.31" y="305.34" width="4.6" height="3.93" transform="translate(721.21 614.62) rotate(-180)"/><rect class="cls-3" x="357.76" y="309.28" width="5.7" height="1.77" transform="translate(721.21 620.32) rotate(-180)"/><polygon class="cls-4" points="358.07 305.42 363.13 305.42 363.62 304.33 357.58 304.33 358.07 305.42"/><rect class="cls-5" x="358.31" y="303.46" width="4.6" height="0.86" transform="translate(721.21 607.79) rotate(-180)"/><rect class="cls-4" x="142.65" y="301.42" width="29.11" height="9.28"/><rect class="cls-4" x="289.64" y="301.42" width="29.11" height="9.28"/><path class="cls-3" d="M221.12,257.47s-1-5.07-.81-5.26.94.15.81-.39-.27-2,.31-2.39.37-.68.37-.68-.44-.22-.44-1.36c.12-.39,1-.34,1-.34v-.82h1.88v-.49s1.42-1,6.71-1,6.46,1.06,6.46,1.06v.35l2.13,0V247a4.48,4.48,0,0,1,1.3.27l-.41.22a14.47,14.47,0,0,1-.2,2c.61.22.83,1.44.75,2.31.7.05.17,1.22.17,1.61s-.75,4.13-.75,4.13Z"/><rect class="cls-5" x="221.12" y="257.47" width="19.29" height="2.24"/><rect class="cls-4" x="220.61" y="258.79" width="20.7" height="2.24"/><path class="cls-5" d="M219.47,264.13s-.74-.95-.58-1.62a8.13,8.13,0,0,1,1.67-2.09v-.62h2s2.55-1.12,8.15-1a32.73,32.73,0,0,1,8.64,1.12h1.87v.62s1.7,1,1.54,2a7.45,7.45,0,0,1-1.08,2.37H219.47Z"/><rect class="cls-7" x="224.77" y="234.53" width="12.16" height="1.39"/><rect class="cls-5" x="223.55" y="235.35" width="14.81" height="4.39" rx="1" ry="1"/><rect class="cls-4" x="217.84" y="264.13" width="26.07" height="8.41"/><rect class="cls-7" x="226.52" y="233.32" width="8.83" height="1.35"/><rect class="cls-5" x="219.47" y="272.54" width="22.59" height="4.93"/><path class="cls-3" d="M226.23,236.38s-1.37.17-.78-.77,2.28-1.71,4.86-1.71h2.25s3,.14,3.75,1.76c.26.4.19.9-.62.72S226.23,236.38,226.23,236.38Z"/><rect class="cls-4" x="222.94" y="257.23" width="15.71" height="2.49"/><path class="cls-4" d="M225,238.72s1.25-.38,1.25-1.42v-.92s-.24-1,4.73-1v4.39Z"/><path class="cls-4" d="M236.93,238.72s-1.25-.38-1.25-1.42v-.92s.24-1-4.73-1v4.39Z"/><path class="cls-4" d="M222.94,257.23a35,35,0,0,1,15.71,0"/><path class="cls-4" d="M220.93,247v-1.5l-.6-1-.39-5h2s2.05-1.28,9.06-1.28v7l-6.71,1h-1.88V247Z"/><path class="cls-4" d="M241,247v-1.5l.6-1,.39-5h-2s-2.05-1.28-9.06-1.28v7l6.71,1h1.88V247Z"/></svg>