<svg id="Layer_1" data-name="Layer 1" xmlns="http://www.w3.org/2000/svg" viewBox="0 0 460 460"><defs><style>.cls-1{fill:#9a2424;}.cls-2{fill:#8a0000;}.cls-3{fill:#f3eaae;}.cls-4{fill:#f1c891;}.cls-5{fill:#ebb162;}.cls-6{fill:#f7e1c3;}.cls-7{fill:#f1e6a0;}.cls-8{fill:#ad4d4d;}.cls-9{fill:#a8efb4;}.cls-10{fill:#99eca7;}.cls-11{fill:#84e895;}</style></defs><title>rome</title><rect class="cls-1" x="99.82" y="258.83" width="260.36" height="148.22"/><rect class="cls-1" x="72.39" y="197.19" width="315.22" height="39.41"/><rect class="cls-2" x="66.22" y="403.34" width="321.72" height="6.5"/><rect class="cls-2" x="61.42" y="407.01" width="331.32" height="6.5"/><ellipse class="cls-3" cx="230" cy="171.36" rx="78.73" ry="30.64"/><polygon class="cls-1" points="350.61 181.13 109.39 181.13 100.25 170.45 359.75 170.45 350.61 181.13"/><rect class="cls-3" x="109.39" y="181.13" width="241.21" height="42.1"/><polygon class="cls-4" points="230 153.43 406.85 234.47 53.15 234.47 230 153.43"/><polygon class="cls-5" points="230 159.91 393.89 234.47 66.11 234.47 230 159.91"/><polygon class="cls-6" points="230 170.45 374.82 234.47 85.18 234.47 230 170.45"/><polygon class="cls-3" points="389.93 245.06 70.07 245.06 53.15 234.47 406.85 234.47 389.93 245.06"/><rect class="cls-5" x="70.09" y="245.06" width="319.91" height="18.41"/><rect class="cls-7" x="367.34" y="263.47" width="14.01" height="134.31"/><polygon class="cls-3" points="381.35 282.5 367.34 282.5 365.5 263.46 383.18 263.46 381.35 282.5"/><rect class="cls-3" x="366.99" y="397.77" width="14.71" height="5.57"/><rect class="cls-3" x="366.49" y="403.34" width="15.71" height="3.71"/><rect class="cls-7" x="326.1" y="263.47" width="14.01" height="134.31"/><polygon class="cls-3" points="340.11 282.5 326.1 282.5 324.25 263.46 341.94 263.46 340.11 282.5"/><rect class="cls-3" x="325.75" y="397.77" width="14.71" height="5.57"/><rect class="cls-3" x="325.25" y="403.34" width="15.71" height="3.71"/><rect class="cls-7" x="284.86" y="263.47" width="14.01" height="134.31"/><polygon class="cls-3" points="298.87 282.5 284.86 282.5 283.02 263.46 300.7 263.46 298.87 282.5"/><rect class="cls-3" x="284.51" y="397.77" width="14.71" height="5.57"/><rect class="cls-3" x="284.01" y="403.34" width="15.71" height="3.71"/><rect class="cls-7" x="243.62" y="263.47" width="14.01" height="134.31"/><polygon class="cls-3" points="257.63 282.5 243.62 282.5 241.78 263.46 259.46 263.46 257.63 282.5"/><rect class="cls-3" x="243.27" y="397.77" width="14.71" height="5.57"/><rect class="cls-3" x="242.77" y="403.34" width="15.71" height="3.71"/><rect class="cls-7" x="202.38" y="263.47" width="14.01" height="134.31"/><polygon class="cls-3" points="216.39 282.5 202.38 282.5 200.54 263.46 218.22 263.46 216.39 282.5"/><rect class="cls-3" x="202.03" y="397.77" width="14.71" height="5.57"/><rect class="cls-3" x="201.53" y="403.34" width="15.71" height="3.71"/><rect class="cls-7" x="161.14" y="263.47" width="14.01" height="134.31"/><polygon class="cls-3" points="175.15 282.5 161.14 282.5 159.3 263.46 176.98 263.46 175.15 282.5"/><rect class="cls-3" x="160.79" y="397.77" width="14.71" height="5.57"/><rect class="cls-3" x="160.29" y="403.34" width="15.71" height="3.71"/><rect class="cls-7" x="119.9" y="263.47" width="14.01" height="134.31"/><polygon class="cls-3" points="133.91 282.5 119.9 282.5 118.06 263.46 135.75 263.46 133.91 282.5"/><rect class="cls-3" x="119.55" y="397.77" width="14.71" height="5.57"/><rect class="cls-3" x="119.05" y="403.34" width="15.71" height="3.71"/><rect class="cls-7" x="78.66" y="263.47" width="14.01" height="134.31"/><polygon class="cls-3" points="92.67 282.5 78.66 282.5 76.82 263.46 94.5 263.46 92.67 282.5"/><rect class="cls-3" x="78.31" y="397.77" width="14.71" height="5.57"/><rect class="cls-3" x="77.81" y="403.34" width="15.71" height="3.71"/><polygon class="cls-1" points="66.2 197.19 72.39 197.19 72.39 206.89 66.2 197.19"/><polygon class="cls-1" points="393.81 197.19 387.63 197.19 387.63 206.89 393.81 197.19"/><rect class="cls-8" x="215.64" y="259.94" width="19.32" height="14.49"/><rect class="cls-5" x="212.28" y="274.43" width="26.05" height="7.2"/><rect class="cls-8" x="207.4" y="289.02" width="35.8" height="6.16"/><polygon class="cls-8" points="243.2 289.02 207.4 289.02 212.28 281.63 238.32 281.63 243.2 289.02"/><path class="cls-5" d="M147.43,364v-5.59s-2.85-.26-1.74-6,12.88-7.3,13.68.63c-.32,2.66-3.48,1.25-1.4,10.84"/><path class="cls-5" d="M305.15,364v-5.59s3.33-.26,2.22-6-12.64-7.3-13.44.63c.32,2.66,3.12,1.25,1,10.84"/><ellipse class="cls-2" cx="225.06" cy="296.66" rx="26.27" ry="2.33"/><rect class="cls-2" x="203.27" y="296.66" width="43.64" height="44.74"/><path class="cls-5" d="M128.08,371H331.92a3.63,3.63,0,0,1,3.63,3.63v11.48a10.13,10.13,0,0,1-10.13,10.13H134.58a10.13,10.13,0,0,1-10.13-10.13V374.66a3.63,3.63,0,0,1,3.63-3.63Z"/><path class="cls-2" d="M326.51,363.81h-193c-5,0-9.06,3.59-9.06,8V375h12.41v2.29H317v-2.31h18.56v-3.16C335.55,367.4,331.48,363.81,326.51,363.81Z"/><path class="cls-8" d="M326.51,363.81h-193a9.63,9.63,0,0,0-6.5,2.44.9.9,0,0,0,.6,1.57h9V369h45a2.12,2.12,0,0,0,2.12,2.12h84.12a1.45,1.45,0,0,0,1.45-1.45h42.63v-1.13h21.24a.91.91,0,0,0,.71-1.47A9.46,9.46,0,0,0,326.51,363.81Z"/><path class="cls-8" d="M323.7,392.91,230,392.23h-1.83l-93.61.69s-6.49,6.52-6.49,13.2c3.56,1.31,15.74,2,15.74,2v3.53h44.17s.29,1.83,14.24,1.83h54c13.95,0,14.24-1.83,14.24-1.83h45.74v-3.53s11.33-.71,14.89-2C331,399.43,323.7,392.91,323.7,392.91Z"/><path class="cls-8" d="M267.49,371.16v-8.9a24.78,24.78,0,0,0-24.71-24.71H207.4a24.78,24.78,0,0,0-24.71,24.71v8.9Z"/><rect class="cls-2" x="215.64" y="240.54" width="19.32" height="19.41"/><rect class="cls-9" x="207.4" y="289.82" width="35.8" height="1.13"/><polygon class="cls-9" points="219.25 114.45 231.34 114.45 234.96 240.54 215.64 240.54 219.25 114.45"/><polygon class="cls-10" points="221.96 103.96 228.63 103.96 231.34 114.45 219.25 114.45 221.96 103.96"/><rect class="cls-11" x="221.96" y="90.23" width="6.67" height="13.73"/><rect class="cls-11" x="219.44" y="92.92" width="11.62" height="1.86"/></svg>