<svg id="Layer_1" data-name="Layer 1" xmlns="http://www.w3.org/2000/svg" viewBox="0 0 460 460"><defs><style>.cls-1,.cls-6{fill:#f1e6a0;}.cls-2{fill:#8a0000;}.cls-3{fill:#84e895;}.cls-4,.cls-5{fill:#ebb162;}.cls-5,.cls-6{opacity:0.5;}</style></defs><title>rome</title><rect class="cls-1" x="238.71" y="210.25" width="11.94" height="5.46"/><rect class="cls-2" x="250.65" y="207.77" width="4.37" height="8.52"/><path class="cls-3" d="M65.49,297.53l-.05.19h-.38l-.17,4.86a4.87,4.87,0,0,0-1.45,3.71,6,6,0,0,0,2,3.59V335.6H393.23l4.77-.33-1.47-78.66s-.84-10-13.5-18.74S362.95,224,338.82,217.28c-24.13-5.91-29.14-6.2-29.14-6.2l-.3-.77s-12.06-2.41-24.89-3.56c0,0-4.48-.27-10.74-.47v2.06h-.89v-2.06s-4.22-.17-7.14-.17c-.47,0-.9,2.12-.9,2.12v2.63s.17,1.79-.18,2a4.17,4.17,0,0,0-.84,2.13c-1.22,0-20.77.2-20.77.2s-17.53.61-22.19,1.17c-1.87-3.15-8.05-13.38-9.52-15.05a13.21,13.21,0,0,0-1.84.16l-1.25-1.41-8.15,1-.1.2-.4,0v.36l.68.91-10.59,1.55-6.95-19,.68-.63s-3.71-3.49-4.78-4.37c.08-.41.15-1.64.15-1.64V178l2-.45v-3l-1.53-1.19-.23-.53.87-.15v-.56l0-.2.18-.64-.14-.2v-1.81l-.5-.67-.19-8.58H179v-.87a58,58,0,0,0-4.84-5.15c-.73.14-2,.53-2,.53l-.74-.66L166.82,155l-13.46-21.49L148,129.83l-2.12-.28a3,3,0,0,0-.38-1.67,50.92,50.92,0,0,0-7.49-4c-.67.17-3.49,1.52-3.49,1.52a3.7,3.7,0,0,0-.74.86c-.43.14-4.3,1.88-4.3,1.88s-14,6.84-21.57,12.11-19.58,15.69-26.17,23.6-10.37,14.66-13.18,23.81-2.82,12.45-2.44,13.91a4.71,4.71,0,0,0,2,0s-2.75,13.51-.39,25.49c-2.36,6.63-4.22,14.11-.82,22.35,0,7.19.08,11.63.08,11.63s-2.87,3.13-3.92,9.86c-.33,2.68,2.43,8.69,2.43,8.69Zm283.82-70.4-.36,1,.2,6.11-1.82-.61-.16-7.13Zm-22.37,16.53s3.59,1.62,4.09,3.52c-.43.54-.19,1.3-.37,1.58s-.8.74-1,1.39,0,1-.17,1.15a3.3,3.3,0,0,1-2.35,1.21S325.49,249.62,326.94,243.66Zm-18.32-26.39,5.36.89v8.21l-5.36-1.06ZM252.3,258.39c1-2.58,4.59-5.09,10.22-4.87s8.44,5.3,8.44,5.3l-1.68,8.5h-17Zm-18.77-4.47a10.56,10.56,0,0,1,4-.33c2.12.26,3.77,3.13,3.77,3.13l.22,6.16-8,0ZM150.4,198.4s.52-7.53,6.77-10.14c6-2.53,5.75.48,5.75.48v20.49l-12.51,3.58Zm-23.28,9.09s.3-5.76,2.5-8a7.25,7.25,0,0,1,4.2-2.33,12.06,12.06,0,0,1,.49,3.1v17.88l-7.91,3.09Zm-17.84,9.13s.31-6.64,2.68-8v17.88l-2.68,1.27Z"/><path class="cls-4" d="M234.26,262.86v-8.94a8.14,8.14,0,0,1,3.63-.33c2.11.26,3.59,3.13,3.59,3.13l-.32-6.35s.71-9.29-10.07-8.71c-6.88,0-8.54,8.36-8.54,8.36v12.84l19.65,0Z"/><polygon class="cls-1" points="225.4 263.76 212.73 264.31 212.24 264.1 212.08 248.56 212.08 239.87 212.47 235.57 214.52 232.18 225.4 263.76"/><path class="cls-1" d="M68.11,201.55s9.52-25.11,26.4-39.28,26.43-20.53,44.13-28l1.87-.59,5.38-4.17s.21-1.34-.64-1.87-5.52-3.42-7.23-3.83a17.86,17.86,0,0,0-3.5,1.52s-.64.47-.74.86c-.42.17-4.3,1.88-4.3,1.88s-14.23,7-21.57,12.11a142.24,142.24,0,0,0-14.09,11.37A163.59,163.59,0,0,0,81.75,163.8a73.77,73.77,0,0,0-9.62,14.57,54.18,54.18,0,0,0-4.39,12c-1.1,4.36-2.17,7.91-1.61,11.14C66.45,202.41,68.11,201.55,68.11,201.55Z"/><path class="cls-5" d="M150.76,198.4s.34-7.53,6.59-10.14c3.88-1.63,5.05-1,5.46-.28-.54-2.81-2.44-6.8-9.25-5.27-10.19,2.28-10.12,12.47-10.12,12.47v19.42l7.32-2Z"/><polygon class="cls-1" points="109.75 163.65 109.75 172.58 103.89 175.65 103.89 167.02 109.75 163.65"/><polygon class="cls-1" points="82.55 187.42 83.08 194.87 80.98 197.55 80.53 190.23 82.55 187.42"/><path class="cls-4" d="M78,248.15l5.37-5.22V228s.62-6.58-3.11-4.3c-1.93,1.24-2,9.53-2,9.53Z"/><path class="cls-4" d="M87.53,240.19l7.57-4.88V218.17s-.52-6.86-3.59-3.95-4.19,5.38-4.35,10.49-.1,15.88-.1,15.88Z"/><path class="cls-4" d="M73.13,253V239.62s.2-5.67,1.52-7.42,1.4,0,1.4,0v17.25Z"/><path class="cls-4" d="M174.2,268.1l23.44-2.75V240.52s1.1-9.42-11-10.2c-11.76,0-12.47,12.85-12.47,12.85Z"/><path class="cls-4" d="M161.71,269.28,142,272.6V249.45s.26-9.87,7.5-12c10.82-3,12.17,6.46,12.24,7.87S161.71,269.28,161.71,269.28Z"/><path class="cls-4" d="M118.54,277.87l13.18-3.29V252.14s1.4-9.09-6.59-7.94-6.59,13.2-6.59,13.2Z"/><path class="cls-4" d="M98.74,283.2,110,279.68V259.29s.06-9.75-6.26-7.16c-4.07,1.7-5,11.71-5,11.71Z"/><path class="cls-4" d="M85.53,287.37l8.29-2.67V265.54s-.93-9.8-4.59-6.57-3.69,11-3.69,11Z"/><path class="cls-4" d="M76.22,291.05l5.22-2L82,270.92s.3-8-2.9-6.24-2.9,11.84-2.9,11.84Z"/><path class="cls-4" d="M70.2,294.33l3-2.43.49-15.63s-.36-6.95-1.19-6.38-2.31,4.21-2.31,10Z"/><polygon class="cls-2" points="214.51 232.14 225.4 263.82 227.28 263.82 217.74 236.6 218.61 235.72 215.21 231.03 214.51 232.14"/><path class="cls-2" d="M211.84,264.31h.89l-.22-23.41s1.86-1.37,1.84-2h-1.9s0-4,1.9-5.93l-.25-.27,1.4-1.32-.28-.39a10.19,10.19,0,0,0-3.52,7.64C211.63,243.65,211.84,264.31,211.84,264.31Z"/><polygon class="cls-2" points="177.75 180.72 186.5 204.78 189.66 204.15 182.71 185.12 183.39 184.49 180.9 182.17 179.65 181.03 179.15 180.58 178.61 180.12 177.75 179.79 177.75 180.72"/><polygon class="cls-2" points="148.01 129.84 164.27 155.77 166.83 155.03 153.36 133.54 148.01 129.84"/><path class="cls-2" d="M174.17,154.05,173.94,177l3.81,2.81.86.33,0-.27,0-.27,0-.52,0-.57V178l2-.45v-3l-1.53-1.19-.13-.53,1-.16v-.56l-.19-.19.13-.64-.14-.2v-1.34l.13,0v-.43l-.56-.79-.25-8.69h.18v-.65A62.47,62.47,0,0,0,174.17,154.05Z"/><polygon class="cls-1" points="171.86 160.96 171.86 156.49 172.05 155.65 172.21 154.58 171.46 153.92 171.11 154 171.11 161.2 171.86 160.96"/><path class="cls-4" d="M238.9,335.6V308.94a13.41,13.41,0,1,0-26.82,0V335.6Z"/><path class="cls-4" d="M278.55,335.6V312a11.16,11.16,0,0,0-3.82-8.2,13.57,13.57,0,0,0-9.09-3.41c-7,0-12.81,5.22-12.81,11.61v23.6Z"/><path class="cls-4" d="M310,335.6V312a12.47,12.47,0,0,0-3.05-8.2,9.71,9.71,0,0,0-7.26-3.41c-5.61,0-10.24,5.22-10.24,11.61v23.6Z"/><path class="cls-4" d="M327.45,286.67V266.52c0-4.77,2.78-8.67,6.15-8.67a5.46,5.46,0,0,1,4.36,2.55,10.72,10.72,0,0,1,1.83,6.12v21.29Z"/><path class="cls-4" d="M344.76,288.64V267.83c0-4.53,2.43-8.23,5.39-8.23A4.72,4.72,0,0,1,354,262a10.78,10.78,0,0,1,1.61,5.81v22.22Z"/><path class="cls-4" d="M359.88,288V270.65c0-3.78,1.82-6.87,4-6.87a3.52,3.52,0,0,1,2.86,2,9.79,9.79,0,0,1,1.2,4.85v18.56Z"/><path class="cls-4" d="M371.43,289V273.23c0-3.43,1.62-6.23,3.58-6.23a3.13,3.13,0,0,1,2.54,1.83,9,9,0,0,1,1.07,4.4v16.83Z"/><path class="cls-4" d="M381.63,297.57V279.72c0-3.88,0-7.21,1.79-7.05.49,0,.95.79,1.27,2.07a21.24,21.24,0,0,1,.53,5v18.17Z"/><path class="cls-4" d="M387.89,298.47V281.4c0-3.71,0-6.9,1.26-6.75.34,0,.67.76.89,2a27.33,27.33,0,0,1,.38,4.77v17.38Z"/><path class="cls-4" d="M392.63,297.9V283.51c0-3.13,0-5.82,1-5.69.29,0,.55.64.74,1.67a23.41,23.41,0,0,1,.31,4v14.66Z"/><path class="cls-4" d="M369.42,335.6v-18.4a14.91,14.91,0,0,0-1.11-5.88c-.67-1.51-1.53-2.44-2.63-2.44-2.44,0-3.71,3.74-3.71,8.32v18.4Z"/><path class="cls-4" d="M379.2,335.6V318a15.51,15.51,0,0,0-1-5.63c-.58-1.45-1.33-2.34-2.3-2.34-2.13,0-3.24,3.58-3.24,8V335.6Z"/><path class="cls-4" d="M384.2,335.6l1.91-.11V318.41a21.3,21.3,0,0,0-.63-5.39c-.38-1.39-.87-2.24-1.49-2.24-1.38,0-2.1,3.43-2.1,7.63V335.6Z"/><path class="cls-4" d="M388.31,335.27V319.13c0-3.91.56-7.11,1.63-7.11.48,0,.86.8,1.15,2.09a23.64,23.64,0,0,1,.49,5V335Z"/><path class="cls-4" d="M392.88,334.88V319.61c0-3.7,0-6.73,1.19-6.73.35,0,.63.76.84,2a28.77,28.77,0,0,1,.35,4.75v15.05Z"/><path class="cls-4" d="M354.69,335.6V316a14.61,14.61,0,0,0-1.41-6.5c-.86-1.67-2.06-2.7-3.36-2.7-4.47,0-4.74,4.14-4.74,9.21V335.6Z"/><path class="cls-4" d="M198.62,335.6V309.48a13.64,13.64,0,0,0-3.71-9.31,12.16,12.16,0,0,0-8.83-3.87c-6.82,0-12.45,5.93-12.45,13.19V335.6Z"/><path class="cls-4" d="M162.41,335.6V311.76a14.27,14.27,0,0,0-3-8.89,9.34,9.34,0,0,0-7.21-3.7c-5.57,0-10.17,5.66-10.17,12.59V335.6Z"/><path class="cls-4" d="M133.27,335.6V313.15a15.84,15.84,0,0,0-2.15-8.2c-1.3-2.11-3.14-3.41-5.11-3.41-3.95,0-7.2,5.22-7.2,11.61V335.6Z"/><path class="cls-4" d="M110.73,335.6V315.26a14.65,14.65,0,0,0-1.8-7.26c-1.09-1.87-2.63-3-4.28-3-3.31,0-6,4.62-6,10.29V335.6Z"/><path class="cls-4" d="M93.79,335.6V316.82a16.46,16.46,0,0,0-1.23-6.51c-.75-1.67-1.8-2.71-2.92-2.71-2.26,0-4.12,4.14-4.12,9.21V335.6Z"/><path class="cls-4" d="M81.53,335.6V318a18.82,18.82,0,0,0-.36-5.13c-.41-1.57-1.27-3-1.89-3C78,309.8,77,313.22,77,318V335.6Z"/><path class="cls-1" d="M254.09,335.6h14.3l-.12-3.41-13.14-29.26c-1.12,2.64-1,8.21-1,8.21Z"/><path class="cls-1" d="M254.26,335.6l.87-32.68a9.86,9.86,0,0,1,2.19-3,4.1,4.1,0,0,1,.46-1.91l-4.4-4.9a21,21,0,0,0-4.24,12.14c0,6,.36,25.23.45,30.34Z"/><polygon class="cls-1" points="308.62 217.28 308.62 215.49 315.83 216.77 315.83 226.7 313.98 226.38 313.98 218.17 308.62 217.28"/><path class="cls-4" d="M297.24,270v-8.94s.86-7.49-3.69-9.31c-5.46-2-2,7.77-2,7.77l.56,9.65Z"/><polygon class="cls-1" points="347.16 226.49 347.16 224.7 347.16 224 351.1 226.16 351.31 234.79 349.14 234.22 348.94 228.11 349.31 227.14 347.16 226.49"/><path class="cls-1" d="M290,243.76l10,30.13-11.12-.55-.37-19.75S287.78,245.45,290,243.76Z"/><path class="cls-4" d="M305.73,274.29l15,1V262.86s.11-7.55-4.39-9-7.33.3-8.1,1.72a15.9,15.9,0,0,0-2.07,7.22C306.06,266,305.73,274.29,305.73,274.29Z"/><path class="cls-6" d="M326.94,243.67a8.31,8.31,0,0,0-.36,1.46c0,.42-.11.91-.13,1.36A21.16,21.16,0,0,1,326.94,243.67Z"/><path class="cls-6" d="M335.25,239.54c-3.55-1.54-7.35,1.9-7.35,1.9a21.54,21.54,0,0,0-.88,2.23s3.54,1.62,4,3.52c-.43.54-.22,1.3-.39,1.58s-.81.74-1,1.39,0,1-.18,1.15a2.33,2.33,0,0,1-2,1.21l12.2,2.72V245A8.52,8.52,0,0,0,335.25,239.54Z"/><path class="cls-5" d="M127.12,207.49s.3-5.76,2.5-8a7.25,7.25,0,0,1,4.2-2.33v0c-.73-2.75-2.44-6.06-7.17-4.05-7.52,3.2-8.14,11.76-8.14,11.76v19.48l8-3.18Z"/><path class="cls-5" d="M134.31,200.25v0Z"/><path class="cls-4" d="M109.75,217.28s0-5.89,1.46-7.75v-.3s-.29-8.64-6.49-5c-4.57,2.9-5.23,12.26-5.23,12.26v15.79l10.25-4.61Z"/><path class="cls-4" d="M262.29,253.53c5.63.22,8.56,5.74,8.56,5.74l-1.57,8.94H258.1l19.6-.42-.59-16.43s.33-12.14-13.63-11.4c-8.92,0-11.64,10.72-11.64,10.72v7.71C253.3,255.81,256.66,253.31,262.29,253.53Z"/><path class="cls-1" d="M186.5,204.78l-12,2V187.78s.73-7,3.21-8Z"/><path class="cls-1" d="M328.57,335.6,321.18,307s-1.64,1.59-1.68,5.25c0,2.7.57,16.41.89,23.39Z"/><path class="cls-1" d="M320.58,335.6c0-8.44.11-27.1.5-28.35a3.31,3.31,0,0,1,1.71-2.11l-4.33-6.23-1.59-1.59.71,38.28Z"/><path class="cls-1" d="M171.86,161s-32.4,9-59.89,23.4c-20.89,11-37.41,31.09-39.17,33.28a4.25,4.25,0,0,0-.29.41,74.9,74.9,0,0,0-4.79,9c-2.66,6.08-4.64,15.25-.82,22.35,0,0-3-12,5.74-25.58,3.82-5.9,10.44-12.86,16.92-18.64,8.07-7.19,15.1-12.17,27.31-18.36s30.59-15.36,54.78-20.68Z"/><path class="cls-1" d="M209.35,206.83s-50.17,4.33-88.47,20.21-54.3,34-54.3,34-8,8.83-1.29,18.55a15.72,15.72,0,0,1,4.11-16.68,143.69,143.69,0,0,1,34.9-24.51c14.42-7.09,31.47-14.3,66.74-20.24S209.35,212,209.35,212Z"/></svg>