<svg id="Layer_1" data-name="Layer 1" xmlns="http://www.w3.org/2000/svg" viewBox="0 0 460 460"><defs><style>.cls-1{fill:#de5c5c;}.cls-2{fill:#f1f1f1;}.cls-3{fill:#5697fb;}.cls-4{fill:#e37474;}.cls-5{fill:#42005b;}.cls-6{fill:#da0100;}</style></defs><title>sanfran</title><path class="cls-1" d="M9.71,437A20.33,20.33,0,0,1,8,428.87c0-13.13,12.68-23.78,28.33-23.78s28.33,10.65,28.33,23.78A20.33,20.33,0,0,1,62.91,437Z"/><polygon class="cls-1" points="324.69 125.49 241.72 436.84 47.99 436.84 151.94 125.49 324.69 125.49"/><path class="cls-2" d="M293.92,126.25s-37.28,17.52-65.24,20-37,1.92-36.38,9.31,7.52,9,23.45,11,41.49,4.11,62.53,0,17.44-.27,21-5.48,8.12-15.33,8.12-15.33l7.82,1.85v15.13s-9.62,11.23-24.65,10.4-34.57-1.83-45.09,0c-6,.93.11,3.23,5.67,3.71s29.15,3.5,34.31,8S282.6,197,272,200.59s-27.56,8.81-27.56,8.81,18.42-9.17,18.81-14c-.16-3.21-3.74-2.12-5.94-4.27,1.94-11.51-33.62-13.36-57.16-14.16-42.42-4.52-56.24-14.14-54-19S175,145.3,182.61,142.67s19.87-5.28,20.07-8.1a30.42,30.42,0,0,1,.62-4.52l.41-3.79Z"/><path class="cls-2" d="M243.87,229.55s-32.49,4-46.77,3S171,230.68,170,226.72s-11.38-4.33-11.38-4.33-3.31,5.57,10.76,10.32,41.18,14.54,50.29,16.62,23.18,3.59,24.21,9.81c6.62,0,8.28,4,7.45,5.09s-50,19.35-73.84,17.74-34.44-.27-40.62,2.95-21.2,7.51-10,18.5c7.65,4,49.75,11.53,68,17.16s31.2,9.92,31.2,16.62-7.95,9.38-7.95,9.38-39.15,4-65.94-3.22-53-14.2-58.11-10.93-4.36,7.48,3.34,8.42,25.67.47,37.73,5.14,18.48,10.29,16.17,13.09c0,0,25.93-6.55,39.27-7.48s35.42-4.68,48.26-9.82,18.22-7.48,21.82-7.25V324.26s-66-3.74-93.43-14S151,294.33,152.83,294.1s1-5.61,6.67-6.55S273.73,273.29,274,267s1.54-13.56-7.19-18.7S257,241,257,241l-23.36,4.21s-10,2.34-8.73-3.27,10.27-5.61,10.27-5.61S234.53,232.33,243.87,229.55Z"/><path class="cls-3" d="M178.63,379.38s-10.56,4.92-11.84,12.66-41.71-6.33-41.71-6.33v-6.33l2.13-2.86s-3.16,5.44,9.46,5.91S172.7,378.21,178.63,379.38Z"/><path class="cls-2" d="M136.65,366s-16.22,11.26-7.21,17.59S166.78,392,166.78,392s-1,6.1,21.11,6.8,50,5.63,52.27,10.08.51,7.74-4.38,8.44-57.16,5.86-68.75,19.46H123s46.61-9.85,52.53-12.19,16.48-8,13.65-11.49-9-6.8-33.47-11.73-56.65-12-60.51-17.59-2.06-11.73,6.44-12.9S124.81,369.53,136.65,366Z"/><path class="cls-3" d="M256.65,309.26s-1.79,9.82,4,15c-13-.92-62-5-85.51-11.51s-35.73-13.65-22.3-18.65c-1,4.38-.47,7.43,5.45,10s12.11,5.93,24.21,5.07S248.15,306.45,256.65,309.26Z"/><path class="cls-4" d="M302,131.07s-2.82-.29-7.18,10.8A154.13,154.13,0,0,1,288,157.6s-19.81,5.63-40.9,5a426.92,426.92,0,0,1-44.53-4.3,62.56,62.56,0,0,1,22.18-5.46c12-.5,34.72-6.79,41.08-8.44s14.18-.83,23.08-9.77A17,17,0,0,1,302,131.07Z"/><path class="cls-4" d="M186.34,133.27s-3.82,3.15-13.27,6-21.27,9.27-21.27,9.27L154,132.11s-.36-3.15,4.18,0c1.09-4.3,7.27-6.62,10.91-6.62S183.25,128.47,186.34,133.27Z"/><path class="cls-4" d="M151.81,172.3s-1,5.38,24.83,6.28,60.79,6.05,63.25,7.62,14,6.05,5.41,9-71.87,24.66-110.51,19.28C139,203.46,151.81,172.3,151.81,172.3Z"/><path class="cls-4" d="M276.32,205.48s-27.81,9.41-56.61,11.88-44.06,4.48-44.3,6.28,15.51,2.91,29.29,2.24,60.55-5.38,60.55-5.38Z"/><path class="cls-4" d="M158.42,240.22l49.47,13.9s36.43,6.28,20.67,9.86-32.24,12.33-49.47,11.66-33.23.22-42.83,2.69-4.92-10.54-4.92-10.54,12.06-23.76,17.47-27.57S158.42,240.22,158.42,240.22Z"/><path class="cls-4" d="M154.24,222.39s-20.24.35-24-1.67.29,2.28,2,3.49,2.13,4.16,3.66,4.63,21.13-1.94,21-3.61S154.24,222.39,154.24,222.39Z"/><path class="cls-4" d="M262.52,281.34s-9,3-6.32,21.91c-18.47,0-82.14,4.65-88.22,1.11-6.32-1.77-11.42-5.53-11.06-6.42s-3.52-3.76,12.27-5.31,63-15.27,79.25-15.72S262.52,281.34,262.52,281.34Z"/><path class="cls-4" d="M128.65,310.78s45.65,8,56.83,11.29,41.31,8.63,35.73,15.27-53.22.44-102.8-9.3C124.72,316.75,128.65,310.78,128.65,310.78Z"/><path class="cls-4" d="M102.36,345.75s39.86,5.31,41.8,11.29-11.94,4.87-19.1,6.2-21.49,4.9-30.73,2.78S102.36,345.75,102.36,345.75Z"/><path class="cls-4" d="M247.45,349.29v9.8s-32.81,6.36-49.33,9-45,6.86-45,6.86-20.41,3.32-15.07-1.77,13.37-9.34,25.52-10.54,31.6-3.19,40.35-5,38.4-8.41,38.4-8.41Z"/><path class="cls-4" d="M107.47,394.37s11.67,10.7-11.91,22-48.12,20.48-48.12,20.48H83.89s47.63-10.74,49.82-11,42.53-10.18,42-12.4-1.22-2.66-25.52-8.63S107.47,394.37,107.47,394.37Z"/><path class="cls-4" d="M235.78,420.56s-40.34,2-62.94,16.28H222.9s-5.1-4.55,5.59-9.19S235.78,420.56,235.78,420.56Z"/><path class="cls-4" d="M247.45,364.56s-44.47,9.54-52.25,12-19.68,7.07-19.44,12.61,5.34,7.08,18,8.19,28.68,2,35.73,4.11,14.58,4.3,14.58,4.3Z"/><path class="cls-1" d="M119.12,157.77a15,15,0,0,0-.18-2.1c-.33-1.84-3.21-8.93,1.29-8.73a6.51,6.51,0,0,1,2.46,1.06c6.42,6,23.27,14.81,23.27,14.81s6.41,8.05,1.81,19.36-5.31,30.32-13,32.27-16.54-.69-16.39-5S121,198,124.73,197s10.16-6.15,3.92-8.07-14.41-7.88-14.41-12.34C114.25,172.56,120.73,162.51,119.12,157.77Z"/><path class="cls-4" d="M151.94,125.49s-10.19-7.35-11.91-1.87-7.74,23.13-7.74,23.13l-3.65,6.47,11.56,7.4Z"/><path class="cls-4" d="M195,125.49s-3-7.35-6.45-7.54-10.32-.73-10.32,3.65c-5.47,0-22.58-1.7-22.86,0s-3.49,3.9-3.49,3.9l4.8,3.8s25-.8,27.3,1.59l2.3,2.39s7.79,1.11,8.21-2.39S195,125.49,195,125.49Z"/><ellipse class="cls-1" cx="68.06" cy="398.05" rx="20.07" ry="26.5"/><ellipse class="cls-1" cx="43.73" cy="399.07" rx="20.91" ry="19.04"/><path class="cls-1" d="M76,294.23s-5.24,6.83-1,27.81-6.48,22.38-8.87,31.67-5.69,24.16,0,28.73,15-33.15,15-33.15L91.62,316l8.26-25.3-9.1-2Z"/><path class="cls-4" d="M108,223.48s18.73,4.34,16.58,11.35-7.31,2.31-12,17.19-11.82,43.82-24.39,44.23-13.6-.06-12.14-2a148.77,148.77,0,0,0,15.63-20.62c5-8.28,17.46-28,14.46-36s-8.78-13.29-3.44-13.73Z"/><rect class="cls-2" x="267.98" y="329.65" width="15.41" height="13.1" transform="translate(551.37 672.4) rotate(-180)"/><polygon class="cls-2" points="291.48 238.53 300.41 238.53 300.41 220.62 291.48 226.62 291.48 238.53"/><polygon class="cls-2" points="296.92 207.51 296.92 225.21 309.04 225.21 309.04 206.84 298.88 206.84 296.92 207.51"/><polygon class="cls-4" points="296.92 207.51 308.46 210.83 308.69 210.9 308.69 209.09 308.46 209.05 298.88 206.84 296.92 207.51"/><polygon class="cls-2" points="341.36 87.58 394.63 87.58 394.63 30.68 347.94 30.68 341.36 35.71 341.36 87.58"/><rect class="cls-5" x="394.64" y="23" width="57.19" height="58.3" transform="translate(846.46 104.3) rotate(-180)"/><rect class="cls-4" x="382.45" y="81.3" width="69.37" height="7.65" transform="translate(834.28 170.25) rotate(-180)"/><polygon class="cls-3" points="387.38 85 382.1 82.55 344.33 89.85 344.33 119.17 387.38 119.17 387.38 85"/><rect class="cls-3" x="283.39" y="237.64" width="168.43" height="128.36" transform="translate(735.22 603.64) rotate(-180)"/><polygon class="cls-3" points="275.14 281.13 283.39 281.13 283.39 241.32 275.14 244.05 275.14 281.13"/><rect class="cls-4" x="334.9" y="244.68" width="19.62" height="17.87" transform="translate(689.42 507.24) rotate(-180)"/><rect class="cls-2" x="337.32" y="246.89" width="14.78" height="13.46" transform="translate(689.42 507.24) rotate(-180)"/><rect class="cls-4" x="311.98" y="244.68" width="19.62" height="17.87" transform="translate(643.58 507.24) rotate(-180)"/><rect class="cls-2" x="314.4" y="246.89" width="14.78" height="13.46" transform="translate(643.58 507.24) rotate(-180)"/><rect class="cls-4" x="289.06" y="244.68" width="19.62" height="17.87" transform="translate(597.73 507.24) rotate(-180)"/><rect class="cls-2" x="291.48" y="246.89" width="14.78" height="13.46" transform="translate(597.73 507.24) rotate(-180)"/><polygon class="cls-4" points="451.83 216.46 303.3 216.46 300.41 220.62 451.83 220.62 451.83 216.46"/><rect class="cls-2" x="300.41" y="220.62" width="151.42" height="17.02" transform="translate(752.24 458.26) rotate(-180)"/><rect class="cls-2" x="331.6" y="210.91" width="15.38" height="25.13" transform="translate(678.57 446.96) rotate(-180)"/><polygon class="cls-3" points="328.37 237.64 356.21 237.64 356.21 232.01 333.3 232.01 328.37 237.64"/><rect class="cls-4" x="377.68" y="225.06" width="54.36" height="12.58" transform="translate(809.73 462.71) rotate(-180)"/><rect class="cls-4" x="418.23" y="228.33" width="10.22" height="9.31" transform="translate(846.69 465.97) rotate(-180)"/><rect class="cls-4" x="405.5" y="228.33" width="10.22" height="9.31" transform="translate(821.22 465.97) rotate(-180)"/><rect class="cls-4" x="392.76" y="228.33" width="10.22" height="9.31" transform="translate(795.75 465.97) rotate(-180)"/><rect class="cls-4" x="380.03" y="228.33" width="10.22" height="9.31" transform="translate(770.28 465.97) rotate(-180)"/><rect class="cls-4" x="308.68" y="179.42" width="143.15" height="37.05" transform="translate(760.5 395.88) rotate(-180)"/><polygon class="cls-1" points="432.04 225.06 422.16 216.46 370.85 216.46 377.68 225.06 432.04 225.06"/><rect class="cls-3" x="404.86" y="182.17" width="20.81" height="4.15" transform="translate(830.53 368.5) rotate(-180)"/><rect class="cls-3" x="404.86" y="188.61" width="20.81" height="16.83" transform="translate(830.53 394.04) rotate(-180)"/><rect class="cls-3" x="359.02" y="182.17" width="22.25" height="4.15" transform="translate(740.29 368.5) rotate(-180)"/><rect class="cls-3" x="359.02" y="188.61" width="22.25" height="16.83" transform="translate(740.29 394.04) rotate(-180)"/><rect class="cls-3" x="319.94" y="182.17" width="23.13" height="4.15" transform="translate(663.01 368.5) rotate(-180)"/><rect class="cls-3" x="319.94" y="188.61" width="23.13" height="16.83" transform="translate(663.01 394.04) rotate(-180)"/><rect class="cls-3" x="308.68" y="209.1" width="125.6" height="1.81" transform="translate(742.95 420.01) rotate(-180)"/><rect class="cls-3" x="307.18" y="178.45" width="144.64" height="0.96" transform="translate(759.01 357.87) rotate(-180)"/><rect class="cls-3" x="434.28" y="209.1" width="17.55" height="1.81" transform="translate(886.1 420.01) rotate(-180)"/><rect class="cls-3" x="434.81" y="210.91" width="17.01" height="1.81" transform="translate(886.64 423.64) rotate(-180)"/><rect class="cls-3" x="434.81" y="210.91" width="17.01" height="1.81" transform="translate(886.64 423.64) rotate(-180)"/><rect class="cls-3" x="435.84" y="212.72" width="15.99" height="1.81" transform="translate(887.66 427.26) rotate(-180)"/><rect class="cls-1" x="435.84" y="212.72" width="15.99" height="0.21" transform="translate(887.66 425.66) rotate(-180)"/><rect class="cls-1" x="434.81" y="210.91" width="17.01" height="0.21" transform="translate(886.64 422.04) rotate(-180)"/><rect class="cls-3" x="436.82" y="214.54" width="15" height="1.81" transform="translate(888.65 430.88) rotate(-180)"/><rect class="cls-3" x="437.75" y="216.35" width="14.07" height="1.81" transform="translate(889.58 434.51) rotate(-180)"/><rect class="cls-1" x="436.82" y="214.54" width="15" height="0.21" transform="translate(888.65 429.29) rotate(-180)"/><rect class="cls-1" x="437.75" y="216.35" width="14.07" height="0.21" transform="translate(889.58 432.91) rotate(-180)"/><rect class="cls-5" x="287.4" y="316.45" width="127.34" height="99.1" transform="translate(702.14 732) rotate(-180)"/><rect class="cls-3" x="344.7" y="97.68" width="42.69" height="21.65" transform="translate(732.08 217.01) rotate(-180)"/><rect class="cls-4" x="267.98" y="320.13" width="51.99" height="15.4" transform="translate(587.96 655.67) rotate(-180)"/><rect class="cls-3" x="278.57" y="335.53" width="64.97" height="80.01" transform="translate(622.12 751.08) rotate(-180)"/><rect class="cls-2" x="242.98" y="367.95" width="54.24" height="47.6" transform="translate(540.19 783.5) rotate(-180)"/><rect class="cls-5" x="262.03" y="373.91" width="28.45" height="20.78" transform="translate(552.5 768.6) rotate(-180)"/><polygon class="cls-4" points="248.06 367.95 297.22 367.95 297.32 337.69 248.17 337.69 248.06 367.95"/><rect class="cls-6" x="361.91" y="358.95" width="90.11" height="75.64" transform="translate(813.93 793.53) rotate(-180)"/><rect class="cls-3" x="234.79" y="415.55" width="197.74" height="9" transform="translate(667.31 840.1) rotate(-180)"/><polygon class="cls-5" points="432.53 424.55 245.12 424.55 225.07 428.87 225.07 430.6 234.79 430.6 234.79 436.64 448.91 436.64 432.53 424.55"/><rect class="cls-5" x="272.64" y="281.18" width="91.38" height="35.27" transform="translate(636.65 597.64) rotate(-180)"/><rect class="cls-5" x="310.38" y="274.54" width="6.67" height="7.23" transform="translate(627.42 556.31) rotate(-180)"/><polygon class="cls-5" points="279.85 273.61 286.13 273.61 287.4 275.84 287.4 282.64 278.57 282.64 278.57 275.84 279.85 273.61"/><polygon class="cls-5" points="354.72 273.61 359.35 273.61 360.29 275.84 360.29 282.64 353.78 282.64 353.78 275.84 354.72 273.61"/><rect class="cls-3" x="412.79" y="366" width="27.64" height="17.64" transform="translate(853.23 749.64) rotate(-180)"/><rect class="cls-3" x="412.79" y="393.84" width="27.64" height="17.64" transform="translate(853.23 805.31) rotate(-180)"/><rect class="cls-3" x="381.17" y="371.96" width="20.34" height="8.86" transform="translate(782.69 752.78) rotate(-180)"/><rect class="cls-3" x="376.31" y="323.83" width="27.86" height="14.5" transform="translate(780.48 662.16) rotate(-180)"/><rect class="cls-3" x="359.28" y="323.83" width="8.4" height="11.7" transform="translate(726.97 659.36) rotate(-180)"/><rect class="cls-2" x="264.94" y="377.47" width="22.63" height="15.55" transform="translate(552.52 770.49) rotate(-180)"/><rect class="cls-5" x="266.85" y="379.61" width="18.8" height="5.64" transform="translate(552.5 764.87) rotate(-180)"/><rect class="cls-3" x="266.85" y="385.25" width="18.8" height="5.64" transform="translate(552.5 776.15) rotate(-180)"/><rect class="cls-1" x="262.49" y="345.04" width="23.56" height="16.89" transform="translate(548.55 706.96) rotate(-180)"/><rect class="cls-3" x="271.17" y="346.22" width="6.21" height="14.24" transform="translate(548.55 706.68) rotate(-180)"/><rect class="cls-3" x="278.57" y="346.22" width="6.21" height="14.24" transform="translate(563.36 706.68) rotate(-180)"/><rect class="cls-3" x="263.75" y="346.22" width="6.21" height="14.24" transform="translate(533.71 706.68) rotate(-180)"/><rect class="cls-5" x="268.83" y="294.23" width="40.75" height="24.16" transform="translate(578.41 612.61) rotate(-180)"/><rect class="cls-3" x="329.75" y="325.11" width="10.47" height="10.42" transform="translate(669.96 660.64) rotate(-180)"/><rect class="cls-3" x="292.52" y="296.24" width="14.71" height="13.4" transform="translate(599.75 605.88) rotate(-180)"/><rect class="cls-2" x="294.75" y="298.27" width="10.26" height="9.34" transform="translate(599.75 605.88) rotate(-180)"/><rect class="cls-3" x="272.14" y="296.24" width="14.71" height="13.4" transform="translate(559 605.88) rotate(-180)"/><rect class="cls-2" x="274.37" y="298.27" width="10.26" height="9.34" transform="translate(559 605.88) rotate(-180)"/><path class="cls-5" d="M268.83,310.85a13.75,13.75,0,0,1-2.5-7.91,6.59,6.59,0,0,0-3.83-6.23v-2.48h6.33Z"/><rect class="cls-4" x="297.22" y="378.31" width="40.34" height="16.38" transform="translate(634.77 773) rotate(-180)"/><rect class="cls-4" x="297.22" y="372.52" width="40.34" height="1.15" transform="translate(634.77 746.2) rotate(-180)"/><rect class="cls-2" x="297.22" y="359.62" width="40.34" height="12.9" transform="translate(634.77 732.15) rotate(-180)"/><rect class="cls-4" x="299.87" y="341.42" width="35.3" height="17" transform="translate(635.04 699.83) rotate(-180)"/><rect class="cls-3" x="312.88" y="342.75" width="9.27" height="14.34" transform="translate(635.04 699.83) rotate(-180)"/><rect class="cls-3" x="301.69" y="342.75" width="9.27" height="14.34" transform="translate(612.64 699.83) rotate(-180)"/><rect class="cls-2" x="391.27" y="341.67" width="43.11" height="17.27" transform="translate(825.65 700.62) rotate(-180)"/><rect class="cls-3" x="323.93" y="342.75" width="9.27" height="14.34" transform="translate(657.13 699.83) rotate(-180)"/><rect class="cls-4" x="368.65" y="352.69" width="61.3" height="6.26" transform="translate(798.61 711.63) rotate(-180)"/><rect class="cls-2" x="370.52" y="334.97" width="7.9" height="17.72" transform="translate(748.94 687.65) rotate(-180)"/><rect class="cls-4" x="370.52" y="344.43" width="59.43" height="1.13" transform="translate(800.47 690) rotate(-180)"/><rect class="cls-3" x="428.56" y="306.31" width="23.46" height="52.64" transform="translate(880.59 665.25) rotate(-180)"/><polygon class="cls-4" points="428.56 306.31 452.02 306.31 452.02 298.27 435.02 298.27 428.56 306.31"/><rect class="cls-4" x="429" y="345" width="0.95" height="8.4" transform="translate(858.95 698.39) rotate(-180)"/><rect class="cls-4" x="421.36" y="345" width="0.95" height="8.4" transform="translate(843.67 698.39) rotate(-180)"/><rect class="cls-4" x="413.72" y="345" width="0.95" height="8.4" transform="translate(828.39 698.39) rotate(-180)"/><rect class="cls-4" x="406.08" y="345" width="0.95" height="8.4" transform="translate(813.11 698.39) rotate(-180)"/><rect class="cls-4" x="398.44" y="345" width="0.95" height="8.4" transform="translate(797.83 698.39) rotate(-180)"/><rect class="cls-4" x="390.8" y="345" width="0.95" height="8.4" transform="translate(782.55 698.39) rotate(-180)"/><rect class="cls-4" x="383.16" y="345" width="0.95" height="8.4" transform="translate(767.27 698.39) rotate(-180)"/><rect class="cls-5" x="262.77" y="317.9" width="57.21" height="4.17" transform="translate(582.74 639.97) rotate(-180)"/><rect class="cls-2" x="272.74" y="323.48" width="8.26" height="12.05" transform="translate(553.75 659.02) rotate(-180)"/><rect class="cls-6" x="313.73" y="323.76" width="1.3" height="11.77" transform="translate(628.76 659.29) rotate(-180)"/><rect class="cls-6" x="306.09" y="323.76" width="1.3" height="11.77" transform="translate(613.48 659.29) rotate(-180)"/><rect class="cls-6" x="298.45" y="323.76" width="1.3" height="11.77" transform="translate(598.19 659.29) rotate(-180)"/><rect class="cls-6" x="290.81" y="323.76" width="1.3" height="11.77" transform="translate(582.91 659.29) rotate(-180)"/><rect class="cls-6" x="302.7" y="311.87" width="0.44" height="24.22" transform="translate(626.9 21.07) rotate(90)"/><rect class="cls-4" x="285.19" y="379.61" width="0.46" height="11.28" transform="translate(570.84 770.51) rotate(-180)"/><rect class="cls-4" x="266.85" y="379.61" width="0.46" height="11.28" transform="translate(534.17 770.51) rotate(-180)"/><rect class="cls-4" x="276.04" y="376.08" width="0.42" height="18.34" transform="translate(661.5 109) rotate(90)"/><polygon class="cls-4" points="305.13 89.85 305.13 87.58 344.7 87.58 382.45 81.3 387.38 85 344.7 89.85 305.13 89.85"/><rect class="cls-4" x="276.04" y="370.65" width="0.42" height="18.34" transform="translate(656.07 103.57) rotate(90)"/><rect class="cls-5" x="431.19" y="317.9" width="8.29" height="17.07" transform="translate(870.68 652.87) rotate(-180)"/><rect class="cls-4" x="276.05" y="381.51" width="0.42" height="18.34" transform="translate(666.94 114.42) rotate(90)"/><rect class="cls-4" x="433.11" y="318.93" width="4.59" height="14.99" transform="translate(870.81 652.85) rotate(-180)"/><rect class="cls-5" x="441.38" y="317.9" width="8.29" height="17.07" transform="translate(891.06 652.87) rotate(-180)"/><rect class="cls-4" x="443.29" y="318.93" width="4.59" height="14.99" transform="translate(891.18 652.85) rotate(-180)"/><rect class="cls-5" x="398.99" y="237.64" width="2.03" height="78.81" transform="translate(800.01 554.09) rotate(-180)"/><rect class="cls-4" x="407.32" y="237.64" width="2.25" height="78.81" transform="translate(816.88 554.09) rotate(-180)"/><rect class="cls-4" x="413.17" y="237.64" width="1.58" height="78.81" transform="translate(827.91 554.09) rotate(-180)"/><rect class="cls-1" x="449.59" y="190.11" width="2.38" height="12.77" transform="translate(901.56 392.99) rotate(-180)"/><rect class="cls-1" x="441.95" y="190.11" width="4.75" height="12.77" transform="translate(888.65 392.99) rotate(-180)"/><rect class="cls-1" x="434.31" y="190.11" width="4.75" height="12.77" transform="translate(873.37 392.99) rotate(-180)"/><rect class="cls-1" x="434.17" y="182.17" width="15.28" height="4.15" transform="translate(883.62 368.5) rotate(-180)"/><rect class="cls-3" x="404.48" y="88.95" width="47.35" height="89.5" transform="translate(856.3 267.4) rotate(-180)"/><polygon class="cls-5" points="404.48 88.95 387.38 85 387.38 179.48 404.48 179.48 404.48 88.95"/><rect class="cls-3" x="344.33" y="119.16" width="43.05" height="59.29" transform="translate(731.72 297.62) rotate(-180)"/><rect class="cls-3" x="312.15" y="148.81" width="32.55" height="29.64" transform="translate(656.85 327.26) rotate(-180)"/><rect class="cls-5" x="318.45" y="89.85" width="26.25" height="58.95" transform="translate(663.14 238.66) rotate(-180)"/><rect class="cls-1" x="426.54" y="99.41" width="13.88" height="12.64" transform="translate(866.95 211.46) rotate(-180)"/><rect class="cls-1" x="426.54" y="122.61" width="13.88" height="12.64" transform="translate(866.95 257.85) rotate(-180)"/><rect class="cls-1" x="426.54" y="145.8" width="13.88" height="12.64" transform="translate(866.95 304.25) rotate(-180)"/><rect class="cls-2" x="408.71" y="99.41" width="6.94" height="12.64" transform="translate(824.35 211.46) rotate(-180)"/><rect class="cls-2" x="408.71" y="122.61" width="6.94" height="12.64" transform="translate(824.35 257.85) rotate(-180)"/><rect class="cls-2" x="408.71" y="145.8" width="6.94" height="12.64" transform="translate(824.35 304.25) rotate(-180)"/><rect class="cls-1" x="371.38" y="148.81" width="9.56" height="19.21" transform="translate(752.33 316.82) rotate(-180)"/><rect class="cls-1" x="359.72" y="148.81" width="9.56" height="19.21" transform="translate(728.99 316.82) rotate(-180)"/><rect class="cls-1" x="347.94" y="148.81" width="9.56" height="19.21" transform="translate(705.45 316.82) rotate(-180)"/><rect class="cls-1" x="348.51" y="121.88" width="19.23" height="15.38" transform="translate(716.26 259.14) rotate(-180)"/><rect class="cls-1" x="331.57" y="119.84" width="9.78" height="10.71" transform="translate(672.93 250.39) rotate(-180)"/><rect class="cls-1" x="321.05" y="119.84" width="8.55" height="10.71" transform="translate(650.65 250.39) rotate(-180)"/><rect class="cls-1" x="331.57" y="94.32" width="9.78" height="10.71" transform="translate(672.93 199.35) rotate(-180)"/><rect class="cls-1" x="321.05" y="94.32" width="8.55" height="10.71" transform="translate(650.65 199.35) rotate(-180)"/><rect class="cls-1" x="331.57" y="153.22" width="10.96" height="14.79" transform="translate(674.1 321.24) rotate(-180)"/><rect class="cls-1" x="316.99" y="153.22" width="12.61" height="14.79" transform="translate(646.59 321.24) rotate(-180)"/><rect class="cls-1" x="350.6" y="99.68" width="6.9" height="10.05" transform="translate(708.11 209.4) rotate(-180)"/><rect class="cls-1" x="359.72" y="99.41" width="13.98" height="10.31" transform="translate(733.41 209.13) rotate(-180)"/><rect class="cls-5" x="344.7" y="110.23" width="42.69" height="0.5" transform="translate(732.08 220.95) rotate(-180)"/><rect class="cls-5" x="344.7" y="114.19" width="42.69" height="0.5" transform="translate(732.08 228.88) rotate(-180)"/><rect class="cls-5" x="344.7" y="117.94" width="42.69" height="0.5" transform="translate(732.08 236.39) rotate(-180)"/><rect class="cls-5" x="344.7" y="110.48" width="0.41" height="7.97" transform="translate(689.81 228.92) rotate(-180)"/><rect class="cls-5" x="386.97" y="110.48" width="0.41" height="7.97" transform="translate(774.35 228.92) rotate(-180)"/><polygon class="cls-2" points="318.44 89.85 305.13 89.85 305.13 142.08 318.44 144.97 318.44 89.85"/><polygon class="cls-5" points="312.15 148.81 302.71 146.22 305.13 142.08 318.44 144.97 318.44 148.81 312.15 148.81"/><polygon class="cls-4" points="302.71 146.22 302.71 179.42 312.15 179.42 312.15 148.89 302.71 146.22"/><rect class="cls-2" x="442.91" y="88.95" width="8.91" height="89.5" transform="translate(894.74 267.4) rotate(-180)"/><rect class="cls-4" x="442.91" y="99.68" width="5.74" height="13.88" transform="translate(891.56 213.24) rotate(-180)"/><rect class="cls-3" x="442.91" y="100.4" width="4.84" height="12.43" transform="translate(890.66 213.24) rotate(-180)"/><rect class="cls-4" x="442.91" y="122.87" width="5.74" height="15.26" transform="translate(891.56 261.01) rotate(-180)"/><rect class="cls-3" x="442.91" y="123.67" width="4.84" height="13.67" transform="translate(890.66 261.01) rotate(-180)"/><rect class="cls-2" x="316.99" y="35.71" width="24.36" height="51.87" transform="translate(658.35 123.29) rotate(-180)"/><polygon class="cls-5" points="316.99 35.71 341.36 35.71 347.94 30.68 347.94 29.22 312.15 29.22 316.99 35.71"/><rect class="cls-2" x="439.73" y="60.05" width="5.6" height="16.78" transform="translate(885.06 136.87) rotate(-180)"/><rect class="cls-2" x="431.14" y="60.05" width="5.6" height="16.78" transform="translate(867.88 136.87) rotate(-180)"/><rect class="cls-2" x="422.55" y="60.05" width="5.6" height="16.78" transform="translate(850.7 136.87) rotate(-180)"/><rect class="cls-2" x="439.73" y="45.61" width="5.6" height="10.35" transform="translate(885.06 101.56) rotate(-180)"/><rect class="cls-2" x="431.14" y="45.61" width="5.6" height="10.35" transform="translate(867.88 101.56) rotate(-180)"/><rect class="cls-2" x="422.55" y="45.61" width="5.6" height="10.35" transform="translate(850.7 101.56) rotate(-180)"/><rect class="cls-2" x="439.73" y="29.37" width="5.6" height="10.35" transform="translate(885.06 69.09) rotate(-180)"/><rect class="cls-2" x="431.14" y="29.37" width="5.6" height="10.35" transform="translate(867.88 69.09) rotate(-180)"/><rect class="cls-2" x="422.55" y="29.37" width="5.6" height="10.35" transform="translate(850.7 69.09) rotate(-180)"/><rect class="cls-2" x="410.08" y="45.61" width="5.6" height="10.35" transform="translate(825.77 101.56) rotate(-180)"/><rect class="cls-2" x="401.49" y="45.61" width="5.6" height="10.35" transform="translate(808.59 101.56) rotate(-180)"/><rect class="cls-2" x="410.08" y="29.37" width="5.6" height="10.35" transform="translate(825.77 69.09) rotate(-180)"/><rect class="cls-2" x="401.49" y="29.37" width="5.6" height="10.35" transform="translate(808.59 69.09) rotate(-180)"/><rect class="cls-5" x="386.26" y="37.88" width="5.23" height="9.15" transform="translate(777.74 84.91) rotate(-180)"/><rect class="cls-5" x="378.62" y="37.88" width="5.23" height="9.15" transform="translate(762.46 84.91) rotate(-180)"/><polygon class="cls-3" points="341.36 72.71 363.56 72.71 363.56 35.71 344.33 35.71 344.33 58.17 341.36 61.64 341.36 72.71"/><rect class="cls-5" x="370.98" y="37.88" width="5.23" height="9.15" transform="translate(747.18 84.91) rotate(-180)"/><rect class="cls-5" x="344.33" y="39.13" width="15.39" height="19.04" transform="translate(704.05 97.31) rotate(-180)"/><rect class="cls-5" x="341.36" y="61.64" width="16.15" height="11.06" transform="translate(698.86 134.35) rotate(-180)"/><rect class="cls-5" x="366.71" y="61.64" width="15.75" height="13.07" transform="translate(749.16 136.36) rotate(-180)"/><polygon class="cls-2" points="384.88 58.17 382.45 61.64 366.71 61.64 369.89 58.17 384.88 58.17"/><polygon class="cls-5" points="363.56 35.71 359.72 39.13 344.33 39.13 344.33 35.71 363.56 35.71"/><polygon class="cls-5" points="359.72 58.17 357.5 61.64 341.36 61.64 344.33 58.17 359.72 58.17"/><rect class="cls-1" x="419" y="190.12" width="4.62" height="13.81" transform="translate(842.62 394.06) rotate(-180)"/><rect class="cls-1" x="412.96" y="190.12" width="4.62" height="13.81" transform="translate(830.53 394.06) rotate(-180)"/><rect class="cls-1" x="406.92" y="190.12" width="4.62" height="13.81" transform="translate(818.45 394.06) rotate(-180)"/><rect class="cls-1" x="374.27" y="190.12" width="5.11" height="13.81" transform="translate(753.65 394.06) rotate(-180)"/><rect class="cls-1" x="367.59" y="190.12" width="5.11" height="13.81" transform="translate(740.29 394.06) rotate(-180)"/><rect class="cls-1" x="360.91" y="190.12" width="5.11" height="13.81" transform="translate(726.93 394.06) rotate(-180)"/><rect class="cls-1" x="336.03" y="190.12" width="5.6" height="13.81" transform="translate(677.66 394.06) rotate(-180)"/><rect class="cls-1" x="328.7" y="190.12" width="5.6" height="13.81" transform="translate(663.01 394.06) rotate(-180)"/><rect class="cls-1" x="321.38" y="190.12" width="5.6" height="13.81" transform="translate(648.36 394.06) rotate(-180)"/><rect class="cls-1" x="419" y="183.17" width="4.62" height="2.16" transform="translate(842.62 368.49) rotate(-180)"/><rect class="cls-1" x="412.96" y="183.17" width="4.62" height="2.16" transform="translate(830.53 368.49) rotate(-180)"/><rect class="cls-1" x="406.92" y="183.17" width="4.62" height="2.16" transform="translate(818.45 368.49) rotate(-180)"/><rect class="cls-1" x="374.27" y="183.17" width="5.11" height="2.16" transform="translate(753.65 368.49) rotate(-180)"/><rect class="cls-1" x="367.59" y="183.17" width="5.11" height="2.16" transform="translate(740.29 368.49) rotate(-180)"/><rect class="cls-1" x="360.91" y="183.17" width="5.11" height="2.16" transform="translate(726.93 368.49) rotate(-180)"/><rect class="cls-1" x="336.03" y="183.17" width="5.6" height="2.16" transform="translate(677.66 368.49) rotate(-180)"/><rect class="cls-1" x="328.7" y="183.17" width="5.6" height="2.16" transform="translate(663.01 368.49) rotate(-180)"/><rect class="cls-1" x="321.38" y="183.17" width="5.6" height="2.16" transform="translate(648.36 368.49) rotate(-180)"/><rect class="cls-3" x="322.26" y="40.94" width="13.83" height="7.99" transform="translate(658.35 89.87) rotate(-180)"/><rect class="cls-4" x="324.35" y="42.15" width="9.65" height="5.58" transform="translate(658.35 89.87) rotate(-180)"/><rect class="cls-3" x="322.26" y="54.86" width="13.83" height="9.38" transform="translate(658.35 119.09) rotate(-180)"/><rect class="cls-4" x="324.35" y="56.28" width="9.65" height="6.54" transform="translate(658.35 119.09) rotate(-180)"/><polygon class="cls-2" points="308.68 179.42 298.87 176.62 298.87 206.83 308.68 209.1 308.68 179.42"/><rect class="cls-5" x="404.48" y="158.41" width="38.44" height="0.96"/></svg>