<svg id="Layer_1" data-name="Layer 1" xmlns="http://www.w3.org/2000/svg" viewBox="0 0 460 460"><defs><style>.cls-1{fill:#42005b;}.cls-2{fill:#da0100;}.cls-3{fill:#794a8b;}.cls-4{fill:#5697fb;}.cls-5{fill:#e54d4d;}</style></defs><title>sanfran</title><rect class="cls-1" x="179.64" y="444.75" width="100.72" height="12.25"/><polygon class="cls-1" points="280.36 444.75 179.64 444.75 190.75 425.7 269.69 425.7 280.36 444.75"/><rect class="cls-2" x="184.72" y="447.54" width="9.46" height="9.46"/><rect class="cls-2" x="199.49" y="447.54" width="11.63" height="9.46"/><polygon class="cls-2" points="189.45 433.95 184.72 444.75 194.18 444.75 189.45 433.95"/><rect class="cls-2" x="265.82" y="447.54" width="9.46" height="9.46"/><polygon class="cls-2" points="270.55 433.95 265.82 444.75 275.28 444.75 270.55 433.95"/><polygon class="cls-2" points="205.31 431.23 199.5 444.75 211.13 444.75 205.31 431.23"/><polygon class="cls-3" points="197.06 440.19 202.07 427.96 192.05 427.96 197.06 440.19"/><polygon class="cls-3" points="213.58 440.19 218.59 427.96 208.57 427.96 213.58 440.19"/><polygon class="cls-3" points="230.1 440.19 235.11 427.96 225.09 427.96 230.1 440.19"/><polygon class="cls-3" points="246.62 440.19 251.63 427.96 241.61 427.96 246.62 440.19"/><polygon class="cls-3" points="263.14 440.19 268.15 427.96 258.13 427.96 263.14 440.19"/><rect class="cls-2" x="216.02" y="447.54" width="11.63" height="9.46"/><polygon class="cls-2" points="221.83 431.23 216.01 444.75 227.65 444.75 221.83 431.23"/><rect class="cls-2" x="232.54" y="447.54" width="11.63" height="9.46"/><polygon class="cls-2" points="238.35 431.23 232.53 444.75 244.17 444.75 238.35 431.23"/><rect class="cls-2" x="249.06" y="447.54" width="11.63" height="9.46"/><polygon class="cls-2" points="254.87 431.23 249.06 444.75 260.69 444.75 254.87 431.23"/><path class="cls-4" d="M253.91,267.67H205.06V109.38l11.27-2.12a71.24,71.24,0,0,1,26.32,0l11.27,2.12Z"/><path class="cls-5" d="M226.54,3.77l.49-.19a9.06,9.06,0,0,1,6.38,0l.49.19L269.7,425.7H190.75Z"/><rect class="cls-3" x="219.87" y="108.38" width="20.7" height="2.39"/><rect class="cls-3" x="219.38" y="114.39" width="21.69" height="2.39"/><rect class="cls-3" x="218.84" y="120.4" width="22.77" height="2.39"/><rect class="cls-3" x="218.21" y="126.41" width="24.03" height="2.39"/><rect class="cls-3" x="217.7" y="132.41" width="25.04" height="2.39"/><rect class="cls-3" x="217.2" y="138.42" width="26.05" height="2.39"/><rect class="cls-3" x="216.79" y="144.43" width="26.87" height="2.39"/><rect class="cls-3" x="216.47" y="150.44" width="27.51" height="2.39"/><rect class="cls-3" x="215.9" y="156.44" width="28.65" height="2.39"/><rect class="cls-3" x="215.27" y="162.45" width="29.91" height="2.39"/><rect class="cls-3" x="214.78" y="168.46" width="30.89" height="2.39"/><rect class="cls-3" x="214.24" y="174.46" width="31.98" height="2.39"/><rect class="cls-3" x="213.83" y="180.47" width="32.79" height="2.39"/><rect class="cls-3" x="213.4" y="186.48" width="33.66" height="2.39"/><rect class="cls-3" x="212.89" y="192.49" width="34.67" height="2.39"/><rect class="cls-3" x="212.56" y="198.49" width="35.32" height="2.39"/><rect class="cls-3" x="212.17" y="204.5" width="36.1" height="2.39"/><rect class="cls-3" x="211.71" y="210.51" width="37.03" height="2.39"/><rect class="cls-3" x="211.33" y="216.52" width="37.79" height="2.39"/><rect class="cls-3" x="210.21" y="222.52" width="40.03" height="2.39"/><rect class="cls-3" x="209.84" y="228.53" width="40.78" height="2.39"/><rect class="cls-3" x="209.5" y="234.54" width="41.46" height="2.39"/><rect class="cls-3" x="209.07" y="240.55" width="42.3" height="2.39"/><rect class="cls-3" x="208.72" y="246.55" width="43.01" height="2.39"/><rect class="cls-3" x="208.3" y="252.56" width="43.86" height="2.39"/><rect class="cls-3" x="207.88" y="258.57" width="44.68" height="2.39"/><rect class="cls-3" x="207.04" y="264.58" width="46.38" height="2.39"/><rect class="cls-3" x="206.23" y="270.58" width="47.99" height="2.39"/><rect class="cls-3" x="205.69" y="276.59" width="49.06" height="2.39"/><rect class="cls-3" x="205.35" y="282.6" width="49.76" height="2.39"/><rect class="cls-3" x="205.01" y="288.6" width="50.43" height="2.39"/><rect class="cls-3" x="204.74" y="294.61" width="50.97" height="2.39"/><rect class="cls-3" x="203.49" y="300.62" width="53.48" height="2.39"/><rect class="cls-3" x="203.07" y="306.63" width="54.32" height="2.39"/><rect class="cls-3" x="202.68" y="312.63" width="55.1" height="2.39"/><rect class="cls-3" x="202.23" y="318.64" width="56" height="2.39"/><rect class="cls-3" x="201.78" y="324.65" width="56.89" height="2.39"/><rect class="cls-3" x="201.34" y="330.66" width="57.77" height="2.39"/><rect class="cls-3" x="200.84" y="336.66" width="58.77" height="2.39"/><rect class="cls-3" x="200.4" y="342.67" width="59.64" height="2.39"/><rect class="cls-3" x="199.97" y="348.68" width="60.52" height="2.39"/><rect class="cls-3" x="199.46" y="354.69" width="61.54" height="2.39"/><rect class="cls-3" x="198.71" y="360.69" width="63.03" height="2.39"/><rect class="cls-3" x="197.84" y="366.7" width="64.78" height="2.39"/><rect class="cls-3" x="197.04" y="372.71" width="66.37" height="2.39"/><rect class="cls-3" x="196.65" y="378.72" width="67.14" height="2.39"/><rect class="cls-3" x="196.26" y="384.72" width="67.92" height="2.39"/><rect class="cls-3" x="195.86" y="390.73" width="68.73" height="2.39"/><rect class="cls-3" x="195.48" y="396.74" width="69.49" height="2.39"/><rect class="cls-3" x="195.01" y="402.75" width="70.43" height="2.39"/><rect class="cls-3" x="194.38" y="408.75" width="71.69" height="2.39"/><rect class="cls-3" x="193.92" y="414.76" width="72.62" height="2.39"/><rect class="cls-3" x="193.6" y="420.77" width="73.26" height="2.39"/></svg>