<svg id="Layer_1" data-name="Layer 1" xmlns="http://www.w3.org/2000/svg" viewBox="0 0 460 460"><defs><style>.cls-1{fill:#de5c5c;}.cls-2{fill:#e88d8d;}.cls-3{fill:#5e2674;}.cls-4{fill:#6ea6fc;}.cls-5{fill:#42005b;}.cls-6{fill:#f1f1f1;}.cls-7{fill:#5697fb;}</style></defs><title>sanfran</title><rect class="cls-1" x="246.64" y="154.34" width="9.4" height="0.66"/><rect class="cls-2" x="237.73" y="180.4" width="4.66" height="1.72"/><rect class="cls-3" x="245.47" y="153.74" width="11.75" height="0.6"/><rect class="cls-2" x="245.96" y="149.54" width="10.34" height="4.2"/><polygon class="cls-2" points="256.3 149.54 245.96 149.54 244.44 147.03 257.81 147.03 256.3 149.54"/><rect class="cls-1" x="250.93" y="148.72" width="1.51" height="3.82"/><rect class="cls-2" x="247.64" y="141.15" width="6.68" height="0.45"/><rect class="cls-2" x="247.64" y="144.09" width="6.68" height="2.94"/><rect class="cls-2" x="247.64" y="141.15" width="0.17" height="5.88"/><rect class="cls-2" x="254.15" y="141.15" width="0.17" height="5.88"/><rect class="cls-2" x="251.65" y="140.91" width="0.17" height="3.93" transform="translate(-27.3 219.85) rotate(-45)"/><rect class="cls-2" x="249.43" y="140.91" width="0.17" height="3.93" transform="translate(-27.94 218.29) rotate(-45)"/><rect class="cls-2" x="248.13" y="143.09" width="0.17" height="1.38" transform="translate(-28.97 217.62) rotate(-45)"/><rect class="cls-2" x="251.29" y="140.86" width="0.17" height="3.93" transform="translate(174.62 -135.92) rotate(45)"/><rect class="cls-2" x="253.12" y="141.78" width="0.17" height="2.85" transform="translate(175.42 -137.1) rotate(45)"/><rect class="cls-2" x="249.08" y="140.86" width="0.17" height="3.93" transform="translate(173.97 -134.36) rotate(45)"/><rect class="cls-1" x="247.41" y="140.84" width="7.13" height="0.31"/><rect class="cls-4" x="245.05" y="144.35" width="0.15" height="2.68"/><rect class="cls-4" x="245.79" y="144.35" width="0.15" height="2.68"/><rect class="cls-4" x="246.53" y="144.35" width="0.15" height="2.68"/><rect class="cls-4" x="248" y="144.35" width="0.15" height="2.68"/><rect class="cls-4" x="249.47" y="144.35" width="0.15" height="2.68"/><rect class="cls-4" x="250.95" y="144.35" width="0.15" height="2.68"/><rect class="cls-4" x="252.42" y="144.35" width="0.15" height="2.68"/><rect class="cls-4" x="253.9" y="144.35" width="0.15" height="2.68"/><rect class="cls-4" x="255.37" y="144.35" width="0.15" height="2.68"/><rect class="cls-4" x="256.11" y="144.35" width="0.15" height="2.68"/><rect class="cls-1" x="256.4" y="137.99" width="0.52" height="9.1"/><rect class="cls-4" x="256.84" y="144.35" width="0.15" height="2.68"/><rect class="cls-4" x="250.97" y="138.51" width="0.15" height="11.83" transform="translate(395.47 -106.62) rotate(90)"/><rect class="cls-4" x="250.97" y="139.4" width="0.15" height="11.83" transform="translate(396.37 -105.73) rotate(90)"/><rect class="cls-4" x="250.97" y="140.14" width="0.15" height="11.83" transform="translate(397.1 -104.99) rotate(90)"/><rect class="cls-4" x="250.97" y="141.02" width="0.15" height="11.83" transform="translate(397.98 -104.11) rotate(90)"/><polygon class="cls-2" points="251.3 138.5 251.3 137.33 250.99 137.33 250.97 137.33 250.65 137.33 250.65 138.5 247.68 140.84 250.97 140.84 250.99 140.84 254.28 140.84 251.3 138.5"/><rect class="cls-2" x="250.7" y="135" width="0.49" height="2.33"/><circle class="cls-2" cx="250.95" cy="135.94" r="0.39"/><polygon class="cls-3" points="250.03 147.68 250.34 148.08 253.21 148.08 253.61 147.68 250.03 147.68"/><polygon class="cls-3" points="254.51 147.68 254.51 148.22 255.66 148.22 256.59 147.68 254.51 147.68"/><polygon class="cls-3" points="244.44 147.03 245.21 147.03 246.64 149.54 246.64 153.92 245.96 153.74 245.96 149.54 244.44 147.03"/><rect class="cls-5" x="238.1" y="180.79" width="3.91" height="1.11"/><rect class="cls-3" x="106.14" y="179.96" width="30.31" height="11.54"/><polygon class="cls-1" points="277.17 214.83 277.17 212.54 212.04 212.54 212.04 225.62 285.49 225.62 285.49 214.83 277.17 214.83"/><polygon class="cls-3" points="176.77 188.48 176.77 188.25 168.4 189.2 168.4 189.38 176.77 188.48"/><rect class="cls-3" x="176.7" y="188.14" width="0.52" height="0.38"/><polygon class="cls-1" points="97.13 194 97.13 207.75 105.99 216.93 122.18 216.93 122.18 190.79 97.13 194"/><polygon class="cls-3" points="97.13 193.38 97.13 194 122.18 190.79 122.18 190.19 97.13 193.38"/><rect class="cls-5" x="107.72" y="203.88" width="0.63" height="6.41"/><rect class="cls-5" x="104.37" y="204.17" width="0.63" height="6.41"/><rect class="cls-5" x="106.15" y="204.03" width="0.63" height="6.41"/><rect class="cls-5" x="100.93" y="204.47" width="0.63" height="6.41"/><rect class="cls-5" x="102.71" y="204.32" width="0.63" height="6.41"/><rect class="cls-5" x="99.28" y="204.62" width="0.63" height="6.41"/><polygon class="cls-1" points="121.81 188.46 121.81 190.24 97.13 193.38 96.26 193.18 96.26 191.6 121.81 188.46"/><rect class="cls-6" x="122.18" y="190.19" width="28.54" height="28.54"/><rect class="cls-6" x="121.81" y="188.46" width="28.91" height="1.73"/><polygon class="cls-3" points="168.76 185.64 176.96 184.4 176.96 186.91 168.4 187.97 168.76 185.64"/><rect class="cls-2" x="122.28" y="186.62" width="28.68" height="1.84"/><rect class="cls-2" x="160.38" y="185.64" width="8.37" height="1.84"/><rect class="cls-3" x="121.81" y="190.19" width="28.91" height="0.21"/><rect class="cls-2" x="122.18" y="192.25" width="28.54" height="0.21"/><rect class="cls-2" x="122.18" y="192.94" width="28.54" height="0.13"/><rect class="cls-3" x="122.28" y="188.26" width="28.68" height="0.21"/><polygon class="cls-1" points="168.4 189.38 177.16 188.43 177.16 212.61 168.4 213.41 168.4 189.38"/><polygon class="cls-1" points="168.4 187.5 176.77 186.56 176.77 188.32 168.4 189.22 168.4 187.5"/><rect class="cls-6" x="159.88" y="189.16" width="8.88" height="28.54"/><rect class="cls-6" x="159.77" y="187.44" width="8.99" height="1.73"/><rect class="cls-3" x="159.77" y="189.16" width="8.99" height="0.21"/><rect class="cls-6" x="176.77" y="186.24" width="95.76" height="1.73"/><path class="cls-6" d="M272,186.24H176.7v-4.33h94.56v2S272,184.12,272,186.24Z"/><rect class="cls-3" x="176.77" y="187.97" width="95.18" height="0.21"/><rect class="cls-3" x="176.77" y="186.24" width="95.76" height="0.21"/><polygon class="cls-1" points="150.71 188.46 159.85 187.44 159.85 189.2 150.71 190.19 150.71 188.46"/><polygon class="cls-1" points="150.71 190.35 160.38 189.32 160.38 213.51 150.71 214.37 150.71 190.35"/><rect class="cls-2" x="122.3" y="203.32" width="20.15" height="0.22" transform="translate(335.81 71.05) rotate(90)"/><rect class="cls-2" x="130.89" y="203.32" width="20.15" height="0.22" transform="translate(344.4 62.46) rotate(90)"/><rect class="cls-2" x="139.63" y="203.27" width="20.26" height="0.22" transform="translate(353.14 53.62) rotate(90)"/><path class="cls-3" d="M454.58,325H5.42s7.22-33.56,16.6-36.44,16.24-10.1,20.56-14.79S50.51,264,52,253.56s22.73-21.65,26-21.65c2.89-11.9,18.4-22.37,18.4-22.37.53-4.25,8.62-4.9,8.62-4.9s5.67,2,2.51,5.45c-3.81.76-3.81,2.83-1.75,2.28s9.37-.55,9.37,2.29a25.89,25.89,0,0,1,8.5.11s11.22-2,14.06-2.84,2.72-1.64,4.9-2.28,5.12-1,5.12,2.62a15.51,15.51,0,0,1,4.25,1l61.14-1.36s2.5,8.66,3.7,11.5,36.38-2.59,36.38-2.59L285.59,214a17.61,17.61,0,0,0,3-2.47c1.69-1.69,14.92-.91,14.92-.91s8.57,0,13.89,4.93c8.31,2.73,9.48,8,10.13,7.53a12,12,0,0,0,1.69-2.47,17.11,17.11,0,0,0,2.35-2.82c3.25-8.66,19.49-9.38,23.81-8.3s5,17,5,25.26c5.42,3.24,19.85,23.45,19.85,23.45s44.37,0,56.28,9c7.8,5.91,13.13,28.89,15.87,44C453.85,319.23,454.58,325,454.58,325Z"/><polygon class="cls-3" points="160.05 189.36 160.05 189.13 150.71 190.16 150.71 190.35 160.05 189.36"/><rect class="cls-6" x="177.16" y="188.17" width="94.79" height="24.44"/><polygon class="cls-5" points="122.28 188.46 122.28 186.62 97.13 189.9 97.13 191.5 122.28 188.46"/><polygon class="cls-3" points="150.96 186.62 150.96 188.46 160.38 187.44 160.38 185.65 150.96 186.62"/><rect class="cls-5" x="127.36" y="194" width="2.86" height="6.47"/><rect class="cls-5" x="136.62" y="194" width="2.86" height="6.47"/><rect class="cls-5" x="145.2" y="194" width="2.86" height="6.47"/><rect class="cls-5" x="127.36" y="202.27" width="2.86" height="6.47"/><rect class="cls-5" x="136.62" y="202.27" width="2.86" height="6.47"/><rect class="cls-5" x="145.2" y="202.27" width="2.86" height="6.47"/><rect class="cls-2" x="125.29" y="193.25" width="7.2" height="0.22"/><rect class="cls-2" x="135.07" y="193.25" width="6.01" height="0.22"/><rect class="cls-2" x="143.75" y="193.25" width="6.01" height="0.22"/><rect class="cls-2" x="126.89" y="208.73" width="3.8" height="0.38"/><rect class="cls-2" x="136.15" y="208.73" width="3.8" height="0.38"/><rect class="cls-2" x="144.73" y="208.73" width="3.8" height="0.38"/><rect class="cls-2" x="177.32" y="201.11" width="20.15" height="0.22" transform="translate(388.62 13.82) rotate(90)"/><rect class="cls-2" x="180.32" y="191.04" width="7.19" height="0.22"/><rect class="cls-2" x="180.84" y="199.76" width="6.08" height="0.15"/><rect class="cls-2" x="180.2" y="202.26" width="3.19" height="0.15"/><rect class="cls-2" x="184.25" y="202.26" width="3.19" height="0.15"/><rect class="cls-2" x="177.16" y="190.18" width="95.18" height="0.21"/><rect class="cls-2" x="177.16" y="191.75" width="95.18" height="0.1"/><rect class="cls-5" x="180.84" y="205.12" width="5.89" height="4.33"/><rect class="cls-5" x="180.84" y="193.25" width="5.57" height="5.87"/><rect class="cls-6" x="183.46" y="193.25" width="0.28" height="5.87"/><rect class="cls-6" x="180.84" y="205.3" width="5.89" height="0.14"/><rect class="cls-6" x="180.84" y="206.65" width="5.89" height="0.14"/><rect class="cls-6" x="180.84" y="208.58" width="5.89" height="0.18"/><rect class="cls-6" x="180.84" y="208.98" width="5.89" height="0.19"/><rect class="cls-6" x="185.95" y="205.37" width="0.22" height="3.8"/><rect class="cls-6" x="185.22" y="205.37" width="0.22" height="3.8"/><rect class="cls-6" x="182.11" y="205.38" width="0.22" height="3.8"/><rect class="cls-6" x="181.37" y="205.38" width="0.22" height="3.8"/><rect class="cls-6" x="183.63" y="205.37" width="0.22" height="3.8"/><rect class="cls-2" x="200.47" y="188.62" width="2.42" height="1.1"/><rect class="cls-2" x="203.57" y="188.62" width="2.42" height="1.1"/><rect class="cls-2" x="211.52" y="188.62" width="2.42" height="1.1"/><rect class="cls-2" x="214.62" y="188.62" width="2.42" height="1.1"/><rect class="cls-2" x="232.9" y="188.62" width="2.42" height="1.1"/><rect class="cls-2" x="236" y="188.62" width="2.42" height="1.1"/><rect class="cls-2" x="243.95" y="188.62" width="2.42" height="1.1"/><rect class="cls-2" x="247.05" y="188.62" width="2.42" height="1.1"/><rect class="cls-4" x="181.48" y="196.67" width="1.47" height="1.47"/><rect class="cls-4" x="184.43" y="196.67" width="1.47" height="1.47"/><rect class="cls-2" x="186.9" y="201.11" width="20.15" height="0.22" transform="translate(398.2 4.24) rotate(90)"/><rect class="cls-2" x="189.9" y="191.04" width="7.19" height="0.22"/><rect class="cls-2" x="190.42" y="199.76" width="6.08" height="0.15"/><rect class="cls-2" x="189.78" y="202.26" width="3.19" height="0.15"/><rect class="cls-2" x="193.83" y="202.26" width="3.19" height="0.15"/><rect class="cls-5" x="190.42" y="205.12" width="5.89" height="4.33"/><rect class="cls-5" x="190.42" y="193.25" width="5.57" height="5.87"/><rect class="cls-6" x="193.04" y="193.25" width="0.28" height="5.87"/><rect class="cls-6" x="190.42" y="205.3" width="5.89" height="0.14"/><rect class="cls-6" x="190.42" y="206.65" width="5.89" height="0.14"/><rect class="cls-6" x="190.42" y="208.58" width="5.89" height="0.18"/><rect class="cls-6" x="190.42" y="208.98" width="5.89" height="0.19"/><rect class="cls-6" x="195.53" y="205.37" width="0.22" height="3.8"/><rect class="cls-6" x="194.8" y="205.37" width="0.22" height="3.8"/><rect class="cls-6" x="191.69" y="205.38" width="0.22" height="3.8"/><rect class="cls-6" x="190.95" y="205.38" width="0.22" height="3.8"/><rect class="cls-6" x="193.21" y="205.37" width="0.22" height="3.8"/><rect class="cls-4" x="191.06" y="196.67" width="1.47" height="1.47"/><rect class="cls-4" x="194.01" y="196.67" width="1.47" height="1.47"/><rect class="cls-2" x="196.82" y="201.11" width="20.15" height="0.22" transform="translate(408.12 -5.68) rotate(90)"/><rect class="cls-2" x="199.82" y="191.04" width="7.19" height="0.22"/><rect class="cls-2" x="200.34" y="199.76" width="6.08" height="0.15"/><rect class="cls-2" x="199.7" y="202.26" width="3.19" height="0.15"/><rect class="cls-2" x="203.75" y="202.26" width="3.19" height="0.15"/><rect class="cls-5" x="200.34" y="205.12" width="5.89" height="4.33"/><rect class="cls-5" x="200.34" y="193.25" width="5.57" height="5.87"/><rect class="cls-6" x="202.96" y="193.25" width="0.28" height="5.87"/><rect class="cls-6" x="200.34" y="205.3" width="5.89" height="0.14"/><rect class="cls-6" x="200.34" y="206.65" width="5.89" height="0.14"/><rect class="cls-6" x="200.34" y="208.58" width="5.89" height="0.18"/><rect class="cls-6" x="200.34" y="208.98" width="5.89" height="0.19"/><rect class="cls-6" x="205.45" y="205.37" width="0.22" height="3.8"/><rect class="cls-6" x="204.72" y="205.37" width="0.22" height="3.8"/><rect class="cls-6" x="201.61" y="205.38" width="0.22" height="3.8"/><rect class="cls-6" x="200.87" y="205.38" width="0.22" height="3.8"/><rect class="cls-6" x="203.13" y="205.37" width="0.22" height="3.8"/><rect class="cls-4" x="200.98" y="196.67" width="1.47" height="1.47"/><rect class="cls-4" x="203.93" y="196.67" width="1.47" height="1.47"/><rect class="cls-2" x="208.28" y="201.11" width="20.15" height="0.22" transform="translate(419.57 -17.13) rotate(90)"/><rect class="cls-2" x="211.28" y="191.04" width="7.19" height="0.22"/><rect class="cls-2" x="211.79" y="199.76" width="6.08" height="0.15"/><rect class="cls-2" x="211.15" y="202.26" width="3.19" height="0.15"/><rect class="cls-2" x="215.2" y="202.26" width="3.19" height="0.15"/><rect class="cls-5" x="211.79" y="205.12" width="5.89" height="4.33"/><rect class="cls-5" x="211.79" y="193.25" width="5.57" height="5.87"/><rect class="cls-6" x="214.41" y="193.25" width="0.28" height="5.87"/><rect class="cls-6" x="211.79" y="205.3" width="5.89" height="0.14"/><rect class="cls-6" x="211.79" y="206.65" width="5.89" height="0.14"/><rect class="cls-6" x="211.79" y="208.58" width="5.89" height="0.18"/><rect class="cls-6" x="211.79" y="208.98" width="5.89" height="0.19"/><rect class="cls-6" x="216.91" y="205.37" width="0.22" height="3.8"/><rect class="cls-6" x="216.17" y="205.37" width="0.22" height="3.8"/><rect class="cls-6" x="213.06" y="205.38" width="0.22" height="3.8"/><rect class="cls-6" x="212.32" y="205.38" width="0.22" height="3.8"/><rect class="cls-6" x="214.59" y="205.37" width="0.22" height="3.8"/><rect class="cls-4" x="212.43" y="196.67" width="1.47" height="1.47"/><rect class="cls-4" x="215.38" y="196.67" width="1.47" height="1.47"/><rect class="cls-2" x="218.59" y="201.11" width="20.15" height="0.22" transform="translate(429.89 -27.45) rotate(90)"/><rect class="cls-2" x="221.59" y="191.04" width="7.19" height="0.22"/><rect class="cls-5" x="222.11" y="193.25" width="5.57" height="5.87"/><rect class="cls-6" x="224.73" y="193.25" width="0.28" height="5.87"/><rect class="cls-4" x="222.75" y="196.67" width="1.47" height="1.47"/><rect class="cls-4" x="225.7" y="196.67" width="1.47" height="1.47"/><rect class="cls-2" x="229.25" y="201.11" width="20.15" height="0.22" transform="translate(440.55 -38.11) rotate(90)"/><rect class="cls-2" x="232.25" y="191.04" width="7.19" height="0.22"/><rect class="cls-2" x="232.77" y="199.76" width="6.08" height="0.15"/><rect class="cls-2" x="232.13" y="202.26" width="3.19" height="0.15"/><rect class="cls-2" x="236.17" y="202.26" width="3.19" height="0.15"/><rect class="cls-5" x="232.77" y="205.12" width="5.89" height="4.33"/><rect class="cls-5" x="232.77" y="193.25" width="5.57" height="5.87"/><rect class="cls-6" x="235.39" y="193.25" width="0.28" height="5.87"/><rect class="cls-6" x="232.77" y="205.3" width="5.89" height="0.14"/><rect class="cls-6" x="232.77" y="206.65" width="5.89" height="0.14"/><rect class="cls-6" x="232.77" y="208.58" width="5.89" height="0.18"/><rect class="cls-6" x="232.77" y="208.98" width="5.89" height="0.19"/><rect class="cls-6" x="237.88" y="205.37" width="0.22" height="3.8"/><rect class="cls-6" x="237.14" y="205.37" width="0.22" height="3.8"/><rect class="cls-6" x="234.03" y="205.38" width="0.22" height="3.8"/><rect class="cls-6" x="233.3" y="205.38" width="0.22" height="3.8"/><rect class="cls-6" x="235.56" y="205.37" width="0.22" height="3.8"/><rect class="cls-4" x="233.41" y="196.67" width="1.47" height="1.47"/><rect class="cls-4" x="236.36" y="196.67" width="1.47" height="1.47"/><rect class="cls-2" x="239.57" y="201.11" width="20.15" height="0.22" transform="translate(450.87 -48.42) rotate(90)"/><rect class="cls-2" x="242.57" y="191.04" width="7.19" height="0.22"/><rect class="cls-2" x="243.08" y="199.76" width="6.08" height="0.15"/><rect class="cls-2" x="242.45" y="202.26" width="3.19" height="0.15"/><rect class="cls-2" x="246.49" y="202.26" width="3.19" height="0.15"/><rect class="cls-5" x="243.08" y="205.12" width="5.89" height="4.33"/><rect class="cls-5" x="243.08" y="193.25" width="5.57" height="5.87"/><rect class="cls-6" x="245.7" y="193.25" width="0.28" height="5.87"/><rect class="cls-6" x="243.08" y="205.3" width="5.89" height="0.14"/><rect class="cls-6" x="243.08" y="206.65" width="5.89" height="0.14"/><rect class="cls-6" x="243.08" y="208.58" width="5.89" height="0.18"/><rect class="cls-6" x="243.08" y="208.98" width="5.89" height="0.19"/><rect class="cls-6" x="248.2" y="205.37" width="0.22" height="3.8"/><rect class="cls-6" x="247.46" y="205.37" width="0.22" height="3.8"/><rect class="cls-6" x="244.35" y="205.38" width="0.22" height="3.8"/><rect class="cls-6" x="243.62" y="205.38" width="0.22" height="3.8"/><rect class="cls-6" x="245.88" y="205.37" width="0.22" height="3.8"/><rect class="cls-4" x="243.73" y="196.67" width="1.47" height="1.47"/><rect class="cls-4" x="246.67" y="196.67" width="1.47" height="1.47"/><rect class="cls-2" x="249.15" y="201.11" width="20.15" height="0.22" transform="translate(460.45 -58.01) rotate(90)"/><rect class="cls-2" x="252.15" y="191.04" width="7.19" height="0.22"/><rect class="cls-2" x="252.67" y="199.76" width="6.08" height="0.15"/><rect class="cls-2" x="252.03" y="202.26" width="3.19" height="0.15"/><rect class="cls-2" x="256.07" y="202.26" width="3.19" height="0.15"/><rect class="cls-5" x="252.67" y="205.12" width="5.89" height="4.33"/><rect class="cls-5" x="252.67" y="193.25" width="5.57" height="5.87"/><rect class="cls-6" x="255.28" y="193.25" width="0.28" height="5.87"/><rect class="cls-6" x="252.67" y="205.3" width="5.89" height="0.14"/><rect class="cls-6" x="252.67" y="206.65" width="5.89" height="0.14"/><rect class="cls-6" x="252.67" y="208.58" width="5.89" height="0.18"/><rect class="cls-6" x="252.67" y="208.98" width="5.89" height="0.19"/><rect class="cls-6" x="257.78" y="205.37" width="0.22" height="3.8"/><rect class="cls-6" x="257.04" y="205.37" width="0.22" height="3.8"/><rect class="cls-6" x="253.93" y="205.38" width="0.22" height="3.8"/><rect class="cls-6" x="253.2" y="205.38" width="0.22" height="3.8"/><rect class="cls-6" x="255.46" y="205.37" width="0.22" height="3.8"/><rect class="cls-4" x="253.31" y="196.67" width="1.47" height="1.47"/><rect class="cls-4" x="256.25" y="196.67" width="1.47" height="1.47"/><rect class="cls-2" x="258.73" y="201.11" width="20.15" height="0.22" transform="translate(470.03 -67.59) rotate(90)"/><rect class="cls-2" x="261.73" y="191.04" width="7.19" height="0.22"/><rect class="cls-2" x="262.25" y="199.76" width="6.08" height="0.15"/><path class="cls-2" d="M94.54,239.87l9.37-1.87s.94-4.87,3.37-6.18c1.61-.86,20.7-.86,20.7-.86s66.88-8.92,88-9.55c.8,2.49,1.94,2.59,1.94,2.59a7,7,0,0,0-2.61,0c-2.33.33-11.6,1.17-12.21,1.83a3.7,3.7,0,0,0-.61,2.08L193.43,229s1.42-3.91.42-3.83-36.15,3.5-36.15,3.5-.75,1.42-.17,6.41c-6.25,1-13.16,1.83-18.57,1.17s-6.66-1.33-7.58-.67l-.92.67,2,16.16h-3.7l-.57-7.25s.42-3.58-4.33-2.42-7.32,2-14.24,1.83-11.38-.17-12.53-.92S94.54,239.87,94.54,239.87Z"/><rect class="cls-2" x="261.61" y="202.26" width="3.19" height="0.15"/><rect class="cls-2" x="265.65" y="202.26" width="3.19" height="0.15"/><rect class="cls-5" x="262.25" y="205.12" width="5.89" height="4.33"/><rect class="cls-5" x="262.25" y="193.25" width="5.57" height="5.87"/><rect class="cls-6" x="264.87" y="193.25" width="0.28" height="5.87"/><rect class="cls-6" x="262.25" y="205.3" width="5.89" height="0.14"/><rect class="cls-6" x="262.25" y="206.65" width="5.89" height="0.14"/><rect class="cls-6" x="262.25" y="208.58" width="5.89" height="0.18"/><rect class="cls-6" x="262.25" y="208.98" width="5.89" height="0.19"/><rect class="cls-6" x="267.36" y="205.37" width="0.22" height="3.8"/><rect class="cls-6" x="266.62" y="205.37" width="0.22" height="3.8"/><rect class="cls-6" x="263.51" y="205.38" width="0.22" height="3.8"/><rect class="cls-6" x="262.78" y="205.38" width="0.22" height="3.8"/><rect class="cls-6" x="265.04" y="205.37" width="0.22" height="3.8"/><rect class="cls-4" x="262.89" y="196.67" width="1.47" height="1.47"/><rect class="cls-4" x="265.84" y="196.67" width="1.47" height="1.47"/><rect class="cls-7" x="222.97" y="206.43" width="3.89" height="6.18"/><polygon class="cls-2" points="256.93 213.37 245.76 213.37 246.64 154.34 256.04 154.34 256.93 213.37"/><rect class="cls-1" x="251.15" y="176.29" width="1.29" height="3.26"/><rect class="cls-1" x="251.15" y="185.6" width="1.29" height="3.26"/><rect class="cls-3" x="247.49" y="155.65" width="1.86" height="0.19"/><rect class="cls-3" x="246.11" y="150.65" width="6.12" height="0.19" transform="translate(399.91 -98.42) rotate(90)"/><rect class="cls-3" x="250.34" y="150.72" width="5.84" height="0.09" transform="translate(404.03 -102.49) rotate(90)"/><polygon class="cls-3" points="249.16 148.47 247.3 148.47 246.35 147.68 249.16 147.68 249.16 148.47"/><rect class="cls-3" x="231.95" y="172.87" width="34.63" height="0.19" transform="translate(422.23 -76.29) rotate(90)"/><rect class="cls-3" x="251.18" y="155.65" width="1.86" height="0.19"/><polygon class="cls-3" points="253.44 190.28 252.85 155.65 253.04 155.65 253.63 190.28 253.44 190.28"/><rect class="cls-3" x="254.12" y="155.65" width="1.3" height="0.19"/><polygon class="cls-3" points="255.8 190.28 255.31 155.65 255.5 155.65 255.99 190.28 255.8 190.28"/><rect class="cls-1" x="226.09" y="209.44" width="23.08" height="2.45"/><rect class="cls-1" x="245.64" y="191.86" width="11.62" height="20.04"/><polygon class="cls-7" points="219.12 213.37 217.36 215.99 219.73 222.01 223.49 222.01 222.97 216.59 219.12 213.37"/><rect class="cls-3" x="220.55" y="209.44" width="7.13" height="3.37"/><path class="cls-2" d="M223,211.9v.78l-2.42-.06h-2.67s4.66,5.29,5.1,9.4c6.22,0,38.37-2.79,47.36-5.3V211.9Z"/><rect class="cls-6" x="270.33" y="212.61" width="6.84" height="2.22"/><polygon class="cls-6" points="277.17 212.61 276.23 212.61 276.47 203.71 277.17 203.71 277.17 212.61"/><rect class="cls-1" x="276.46" y="202.89" width="0.71" height="0.81"/><circle class="cls-6" cx="276.82" cy="202.56" r="0.64"/><polygon class="cls-7" points="259.12 218.72 256.67 219.04 256.67 213.96 259.12 213.96 259.12 218.72"/><polygon class="cls-7" points="229.22 221.71 227.44 221.83 227.44 216.95 229.22 216.95 229.22 221.71"/><path class="cls-1" d="M228.56,203.46v.79a7.51,7.51,0,0,0-7.09,0l-.61-.43A8.21,8.21,0,0,1,228.56,203.46Z"/><path class="cls-6" d="M297.51,194.76v20.39h16V194.76Zm11.28,1.56V201h-.69v-4.68Zm-5.59,13.63h-.71v-3.63h.71Z"/><rect class="cls-5" x="311.81" y="194.76" width="1.65" height="20.39"/><rect class="cls-2" x="310.7" y="182.76" width="2.77" height="12"/><path class="cls-6" d="M292.14,188h.8a27.46,27.46,0,0,1,.37,4.81h-.78l-.39-2.54Z"/><path class="cls-6" d="M293.64,191.86h.68s.14.18.14,1.56l-.73,0Z"/><path class="cls-6" d="M296.4,187.41h.74s1,2.24,1.23,7.35h-.85l-.66-3.14Z"/><path class="cls-1" d="M297.51,194.76a11.82,11.82,0,0,0-.25-2.51c0-.72,0-1.8-.36-2,0-.38-.2-2.88-.5-2.88s-.4,2.44-.4,2.44h-.18v2.64s-1.1-.06-1.1.94l-1,0s.05-1.54-.1-1.54-.07,1-.07,1h-1a12.73,12.73,0,0,0-.09-2.44c0-.5,0-2.39-.3-2.37s-.5,2.36-.5,2.36a12.24,12.24,0,0,0-.81,3.42h-.14V211.9h6.82Z"/><polygon class="cls-3" points="309.63 196.32 309.63 203.03 306.57 203.03 306.57 196.32 308.1 196.32 308.1 201 308.79 201 308.79 196.32 309.63 196.32"/><polygon class="cls-3" points="302.48 206.32 302.48 209.95 303.2 209.95 303.2 210.89 297.51 210.89 297.51 204.96 303.2 204.96 303.2 206.32 302.48 206.32"/><path class="cls-6" d="M329.79,213v-.13h-1v-8.2h1V192.91a5,5,0,0,1-2.55-1.69,2,2,0,0,0-1.85-1v-.68h-.83s-.89-2.35-2.86-2.35-3,1.25-3,2.35h-.89v.71a3,3,0,0,0-2.47,1.5,4.76,4.76,0,0,1-1.91,1.16v27.62h16.32v-5l.46-.24v-.49s2.18-1.29,2.18-1.85Zm-11.95-2.84h-1.63v-3.81h1.63Zm0-9.13v-3.41h.51V201Zm3.54,9.13h-.61v-3.81h.61Zm1.29-17.22h-1.95v-2.4a1,1,0,0,1,1.95,0Z"/><rect class="cls-3" x="306.09" y="204.96" width="3.53" height="5.61"/><polygon class="cls-7" points="318.52 205.13 318.52 210.38 316.21 210.38 316.21 210.13 317.84 210.13 317.84 206.32 316.21 206.32 316.21 205.13 318.52 205.13"/><polygon class="cls-7" points="320.77 206.32 320.77 210.13 321.38 210.13 321.38 210.38 319 210.38 319 205.13 321.38 205.13 321.38 206.32 320.77 206.32"/><rect class="cls-7" x="317.85" y="214.38" width="2.34" height="2.34"/><rect class="cls-7" x="323.68" y="214.38" width="2.34" height="3.29"/><polygon class="cls-3" points="320.5 196.32 320.5 201 318.35 201 318.35 197.59 317.84 197.59 317.84 196.32 320.5 196.32"/><rect class="cls-7" x="322.89" y="196.32" width="2.5" height="4.68"/><rect class="cls-7" x="324.14" y="204.65" width="4.01" height="8.33"/><polygon class="cls-7" points="302.48 208.41 301.4 208.41 301.4 204.95 298.78 204.95 298.78 208.41 297.68 208.41 297.68 209.25 298.78 209.25 298.78 210.38 301.4 210.38 301.4 209.25 302.48 209.25 302.48 208.41"/><path class="cls-7" d="M308.91,208.37V205h-.81v3.41h-2v.81h2v.77h-2v.62h3.53v-2.21Zm.38,1.58h-.38v-.77h.38Z"/><rect class="cls-7" x="308.1" y="201" width="0.69" height="0.79"/><rect class="cls-7" x="308.33" y="202.24" width="1.3" height="0.79"/><polygon class="cls-2" points="213.89 213.14 216.91 222.01 219.73 222.01 216.39 213.14 213.89 213.14"/><polygon class="cls-5" points="121.29 172.98 104.88 180.09 137.71 180.09 121.29 172.98"/><path class="cls-2" d="M83.23,262.07l16-7.67s4.25-.24,2.6,6C98.57,260.89,83.23,262.07,83.23,262.07Z"/><path class="cls-1" d="M454.58,325h-187V311.29H452.35C453.83,319.23,454.58,325,454.58,325Z"/><path class="cls-2" d="M79,269H118.1s-6.14,3.41-7.51,10.24-4.1,9.39-4.1,9.39l-1.37-3.41s-2.9-.34-4.61,3.41-6.33,4.61-7.77,6.83-7.12,4.27-5.9,10.24-3,11.27-3.61,11.61S79,325,79,325H5.42s6.26-31.12,16.6-36.44,22.67-17.2,22.67-17.2,5-.52,5.66,1.53-.51,4.27,2,4.61,9.37,1.19,9.37,1.19-7.32,5.12-7.32,7.68,2.22,5.12,6.49,9.22,10.41,4.5,11.95,1.39,5.29-8.22,3.93-13.17,2-5.29,2.73-8.36A13.68,13.68,0,0,0,79,269Z"/><path class="cls-2" d="M83.23,317.26s6.87,4.69,19-2.16,17.91-19.33,33.89-16.21,23.62,2.49,23.62,2.49-5.14-.31-6.7,5.61,3.38,16.52,11.2,8.11,4.5-16.7,4.5-16.7,14.92-6.68,15.67-12c0,0,7.74,1.87,12.66-1.56,0,0-5.37,12.71,11.78,12.12s35.13-2.77,35.49-7.13c0,0,9.84,16.83,17.26,13.09s20.51-10.29,20.83-13.09c0,0,7.83,8.85-9.21,21.45-.37,11.85-.56,13.71-.56,13.71H79Z"/><path class="cls-1" d="M334,220.52v6.26s15,2.81,22.95,8.66c0-11-.94-12.88-2.34-14.05S334,220.52,334,220.52Z"/><path class="cls-2" d="M300.35,223.27s2.66-.7,2.49,8,3.4,11.24,3.25,14.75-2.4,15,.48,18.84l-35.58.23s-.44-22.58-6.63-22.82-8.61,3.13-15.6,1.8-6.34-3.44-6.19-8.59-.79-5.85-2.2-3-4.42,9.5-7.48,8.85-9.62-1.5-10.79,2.79-.58,9.91,5.57,10.84,11.54,1.17,11.54,1.17-.53,4.68,7.46,4.68a3.5,3.5,0,0,1-2.57,4.08c-3.26,1.07-12,1.07-12,1.07L175,267.3s-.49-28.8,8.42-31.85,33.67-9.35,59-9.82S300.35,223.27,300.35,223.27Z"/><polygon class="cls-1" points="325.39 269.79 143.75 273.15 143.75 267.3 325.39 264.1 325.39 269.79"/><path class="cls-2" d="M310.7,223.26s3.58,12.57,7.83,13.62,5.45,4,5.16,11.51a34,34,0,0,1-2.91,12.77s4-4.19,13.28-3.56,11.75,2.93,18.45,1.67,22.19-1.47,22.19-1.47S361.5,239.47,357,235.45,334,226.78,334,226.78"/><rect class="cls-5" x="118.02" y="203" width="0.63" height="6.41"/><rect class="cls-5" x="119.8" y="202.85" width="0.63" height="6.41"/><rect class="cls-5" x="114.58" y="203.29" width="0.63" height="6.41"/><rect class="cls-5" x="116.36" y="203.14" width="0.63" height="6.41"/><rect class="cls-5" x="111.15" y="203.59" width="0.63" height="6.41"/><rect class="cls-5" x="112.94" y="203.44" width="0.63" height="6.41"/><rect class="cls-5" x="109.5" y="203.74" width="0.63" height="6.41"/><rect class="cls-5" x="118.02" y="194.89" width="0.63" height="6.41"/><rect class="cls-5" x="119.8" y="194.75" width="0.63" height="6.41"/><rect class="cls-5" x="114.58" y="195.18" width="0.63" height="6.41"/><rect class="cls-5" x="116.36" y="195.04" width="0.63" height="6.41"/><rect class="cls-5" x="111.15" y="195.48" width="0.63" height="6.41"/><rect class="cls-5" x="112.94" y="195.34" width="0.63" height="6.41"/><rect class="cls-5" x="156.64" y="201.62" width="0.63" height="6.41"/><rect class="cls-5" x="158.42" y="201.47" width="0.63" height="6.41"/><rect class="cls-5" x="153.2" y="201.91" width="0.63" height="6.41"/><rect class="cls-5" x="154.98" y="201.76" width="0.63" height="6.41"/><rect class="cls-5" x="151.55" y="202.06" width="0.63" height="6.41"/><rect class="cls-5" x="156.64" y="193.51" width="0.63" height="6.41"/><rect class="cls-5" x="158.42" y="193.36" width="0.63" height="6.41"/><rect class="cls-5" x="153.2" y="193.8" width="0.63" height="6.41"/><rect class="cls-5" x="154.98" y="193.66" width="0.63" height="6.41"/><rect class="cls-5" x="151.55" y="193.95" width="0.63" height="6.41"/><rect class="cls-5" x="173.49" y="201.92" width="0.63" height="6.41"/><rect class="cls-5" x="175.27" y="201.77" width="0.63" height="6.41"/><rect class="cls-5" x="170.05" y="202.21" width="0.63" height="6.41"/><rect class="cls-5" x="171.83" y="202.07" width="0.63" height="6.41"/><rect class="cls-5" x="173.49" y="193.81" width="0.63" height="6.41"/><rect class="cls-5" x="175.27" y="193.67" width="0.63" height="6.41"/><rect class="cls-5" x="170.05" y="194.11" width="0.63" height="6.41"/><rect class="cls-5" x="171.83" y="193.96" width="0.63" height="6.41"/><rect class="cls-5" x="107.72" y="195.77" width="0.63" height="6.41"/><rect class="cls-5" x="109.5" y="195.63" width="0.63" height="6.41"/><rect class="cls-5" x="104.37" y="196.07" width="0.63" height="6.41"/><rect class="cls-5" x="106.15" y="195.92" width="0.63" height="6.41"/><rect class="cls-5" x="100.93" y="196.36" width="0.63" height="6.41"/><rect class="cls-5" x="102.71" y="196.21" width="0.63" height="6.41"/><rect class="cls-5" x="99.28" y="196.51" width="0.63" height="6.41"/></svg>