<svg id="Layer_1" data-name="Layer 1" xmlns="http://www.w3.org/2000/svg" viewBox="0 0 460 460"><defs><style>.cls-1{fill:#8c639b;}.cls-2{fill:#42005b;}.cls-3,.cls-8{fill:#89b6fc;}.cls-4{fill:#e02c2b;}.cls-5,.cls-9{fill:#5697fb;}.cls-6{fill:#e54b4a;}.cls-7{fill:#da0100;}.cls-8,.cls-9{opacity:0.5;}</style></defs><title>sanfran</title><rect class="cls-1" x="188.83" y="139.56" width="80.69" height="40.86"/><rect class="cls-2" x="157.48" y="132.22" width="19.84" height="44.97"/><path class="cls-3" d="M91.37,166.59s-2.28.73-2.46-2.86,1.08-4.35,2.87-4.35v-2H91v-7.9h2.78v-3.84h6.36s2.51,2.33,4.75,0c2.15-.54,5.2,2.76,5.2,6.31v3.55Z"/><polygon class="cls-4" points="188.83 144.34 188.83 138.41 185.86 134.94 183.62 134.94 183.62 138.41 188.83 144.34"/><polygon class="cls-2" points="183.09 137.33 190.48 146.36 190.48 177.19 182.65 177.19 183.09 137.33"/><path class="cls-1" d="M228.19,104.74c-33.92,0-64.16,6.22-83.83,15.94,15.5-22.71,47.22-38.28,83.83-38.28S296.5,98,312,120.67C292.3,111,262.09,104.74,228.19,104.74Z"/><path class="cls-2" d="M139.24,219.06s8.28-1.6,12.5,5c1.48-7.31,0-10.62,0-10.62L137.42,218Z"/><path class="cls-3" d="M335.57,153.9c-21.78-12.25-61.13-20.41-106-20.41-46.8,0-87.55,8.86-108.69,22,0-.4,0-.79,0-1.19,0-23.48,48.07-42.52,107.4-42.52C287.2,111.75,335.08,130.6,335.57,153.9Z"/><rect class="cls-2" x="105.69" y="208.6" width="47.53" height="129.44"/><rect class="cls-1" x="150.08" y="135.88" width="8.51" height="45.57"/><rect class="cls-1" x="175.31" y="131.02" width="8.51" height="50.44"/><path class="cls-5" d="M335.57,146.9c-21.78-12.25-61.13-20.41-106-20.41-46.8,0-87.55,8.86-108.69,22,0-.4,0-.79,0-1.19,0-23.48,48.07-42.52,107.4-42.52C287.2,104.74,335.08,123.59,335.57,146.9Z"/><rect class="cls-2" x="190.43" y="209.42" width="79.75" height="43.36"/><rect class="cls-6" x="190.43" y="207.77" width="79.75" height="1.65"/><rect class="cls-2" x="188.35" y="186.99" width="83.1" height="20.78"/><rect class="cls-6" x="188.83" y="186.17" width="82.62" height="3.15"/><rect class="cls-2" x="195.89" y="186.99" width="2.78" height="2.78"/><rect class="cls-2" x="202.9" y="186.99" width="2.78" height="2.78"/><polygon class="cls-6" points="113.34 222.64 117.43 222.64 134.31 218.83 148.98 215.14 148.04 211.25 112.77 220.18 113.34 222.64"/><rect class="cls-2" x="209.91" y="186.99" width="2.78" height="2.78"/><rect class="cls-2" x="216.92" y="186.99" width="2.78" height="2.78"/><rect class="cls-2" x="223.92" y="186.99" width="2.78" height="2.78"/><rect class="cls-2" x="230.93" y="186.99" width="2.78" height="2.78"/><rect class="cls-2" x="237.94" y="186.99" width="2.78" height="2.78"/><rect class="cls-2" x="244.95" y="186.99" width="2.78" height="2.78"/><rect class="cls-2" x="151.46" y="204.81" width="39.19" height="135.73"/><rect class="cls-2" x="251.96" y="186.99" width="2.78" height="2.78"/><rect class="cls-2" x="258.96" y="186.99" width="2.78" height="2.78"/><rect class="cls-5" x="88.76" y="204.03" width="22.13" height="18.87"/><polygon class="cls-5" points="145.91 210.16 110.89 218.83 110.89 204.81 145.91 196.14 145.91 210.16"/><polygon class="cls-2" points="147.64 212.33 110.89 221.35 110.89 218.83 148.35 209.35 147.64 212.33"/><rect class="cls-3" x="195.89" y="180.42" width="67.56" height="5.74"/><rect class="cls-2" x="196.54" y="178.51" width="66.91" height="1.92"/><polygon class="cls-2" points="91.37 166.59 97.59 158.15 97.59 191.44 97.59 195.14 91.37 196.14 91.37 166.59"/><rect class="cls-3" x="169.54" y="204.81" width="22.98" height="6.7"/><polygon class="cls-3" points="187.74 222.04 174.61 222.04 171.96 211.51 190.65 211.51 187.74 222.04"/><polygon class="cls-5" points="190.42 212.33 190.65 211.51 171.96 211.51 172.17 212.33 190.42 212.33"/><rect class="cls-5" x="174.61" y="222.04" width="13.13" height="99.49"/><rect class="cls-3" x="169.28" y="330.73" width="23.79" height="7.31"/><rect class="cls-3" x="169.28" y="330.73" width="23.79" height="0.37"/><polygon class="cls-3" points="191.54 330.73 170.8 330.73 171.95 325.99 190.42 325.99 191.54 330.73"/><polygon class="cls-5" points="188.78 325.99 173.55 325.99 174.61 321.52 187.74 321.52 188.78 325.99"/><rect class="cls-3" x="172.92" y="322.19" width="16.5" height="1.27" rx="0.26" ry="0.26"/><rect class="cls-3" x="172.92" y="324.09" width="16.5" height="1.27" rx="0.26" ry="0.26"/><path class="cls-3" d="M145,238.12c-.3.46-.6.95-.88,1.44-3.26,5.8-4.71,13.7-5.24,17.27H119.54a1.13,1.13,0,0,0,0-.18l1.87-10.51,4-10.09,9.93-6.2S150.07,230.48,145,238.12Z"/><rect class="cls-3" x="135.61" y="220.41" width="1.81" height="3.11"/><rect class="cls-5" x="88.76" y="234.29" width="13.13" height="87.23"/><rect class="cls-3" x="83.43" y="330.73" width="23.79" height="7.31"/><rect class="cls-3" x="83.43" y="330.73" width="23.79" height="0.37"/><polygon class="cls-3" points="105.69 330.73 84.96 330.73 86.11 325.99 104.57 325.99 105.69 330.73"/><polygon class="cls-5" points="102.94 325.99 87.7 325.99 88.76 321.52 101.89 321.52 102.94 325.99"/><rect class="cls-3" x="87.07" y="322.19" width="16.5" height="1.27" rx="0.26" ry="0.26"/><rect class="cls-3" x="87.07" y="324.09" width="16.5" height="1.27" rx="0.26" ry="0.26"/><rect class="cls-3" x="83.69" y="222.33" width="22.98" height="6.7"/><polygon class="cls-3" points="101.89 239.56 88.76 239.56 86.11 229.03 104.8 229.03 101.89 239.56"/><polygon class="cls-5" points="104.57 229.85 104.8 229.03 86.11 229.03 86.32 229.85 104.57 229.85"/><path class="cls-4" d="M157.48,245l-7.41-10.06s-3.28,3-4.17,6.1c-.51-.47-1.1-1-1.77-1.49-3.4-2.61-8.37-5.34-11.48-4.61-3.7.88-6.69,2.23-8.18,4.61S120,255,119.57,256.66a1.13,1.13,0,0,1,0,.18h-1.4s1.09-27.77,17.92-33.94S157.48,245,157.48,245Z"/><polygon class="cls-4" points="107.15 321.52 94.84 322.63 94.84 236.05 107.15 234.95 107.15 321.52"/><rect class="cls-4" x="89.62" y="330.73" width="22.86" height="7.31"/><polyline class="cls-4" points="88.69 330.73 112.48 330.73 112.48 331.09"/><polygon class="cls-4" points="110.95 330.73 91.18 330.73 92.33 325.99 109.83 325.99 110.95 330.73"/><polygon class="cls-4" points="108.19 325.99 93.79 325.99 94.84 321.52 107.15 321.52 108.19 325.99"/><rect class="cls-4" x="93.39" y="322.19" width="15.44" height="1.27" rx="0.26" ry="0.26"/><rect class="cls-4" x="93.39" y="324.09" width="15.44" height="1.27" rx="0.26" ry="0.26"/><polygon class="cls-4" points="110.89 226.14 90.04 226.14 90.04 222.33 110.89 219.65 110.89 226.14"/><polygon class="cls-4" points="107.98 236.05 94.84 236.05 92.2 225.52 110.89 225.52 107.98 236.05"/><polyline class="cls-4" points="109.83 226.35 110.06 225.52 91.37 225.52"/><rect class="cls-5" x="95.77" y="222.04" width="13.13" height="99.49"/><rect class="cls-3" x="90.44" y="330.73" width="23.79" height="7.31"/><rect class="cls-3" x="90.44" y="330.73" width="23.79" height="0.37"/><polygon class="cls-3" points="112.7 330.73 91.97 330.73 93.12 325.99 111.58 325.99 112.7 330.73"/><polygon class="cls-5" points="109.94 325.99 94.71 325.99 95.77 321.52 108.9 321.52 109.94 325.99"/><rect class="cls-3" x="94.08" y="322.19" width="16.5" height="1.27" rx="0.26" ry="0.26"/><rect class="cls-3" x="94.08" y="324.09" width="16.5" height="1.27" rx="0.26" ry="0.26"/><rect class="cls-3" x="90.7" y="218.83" width="22.98" height="6.7"/><polygon class="cls-3" points="108.9 236.05 95.77 236.05 93.12 225.52 111.81 225.52 108.9 236.05"/><polygon class="cls-5" points="111.58 226.35 111.81 225.52 93.12 225.52 93.33 226.35 111.58 226.35"/><rect class="cls-3" x="145.01" y="204.81" width="22.98" height="6.7"/><polygon class="cls-3" points="163.21 222.04 150.08 222.04 147.43 211.51 166.12 211.51 163.21 222.04"/><polygon class="cls-5" points="165.89 212.33 166.12 211.51 147.43 211.51 147.64 212.33 165.89 212.33"/><rect class="cls-5" x="150.08" y="222.04" width="13.13" height="99.49"/><rect class="cls-3" x="144.75" y="330.73" width="23.79" height="7.31"/><rect class="cls-3" x="144.75" y="330.73" width="23.79" height="0.37"/><polygon class="cls-3" points="167.01 330.73 146.28 330.73 147.43 325.99 165.89 325.99 167.01 330.73"/><polygon class="cls-5" points="164.25 325.99 149.02 325.99 150.08 321.52 163.21 321.52 164.25 325.99"/><rect class="cls-3" x="148.39" y="322.19" width="16.5" height="1.27" rx="0.26" ry="0.26"/><rect class="cls-3" x="148.39" y="324.09" width="16.5" height="1.27" rx="0.26" ry="0.26"/><rect class="cls-2" x="4" y="343.05" width="186.65" height="34.55"/><rect class="cls-1" x="195.89" y="192.61" width="67.25" height="11.42"/><rect class="cls-2" x="145.91" y="198.32" width="39.85" height="6.49"/><polygon class="cls-2" points="185.72 198.32 145.91 198.32 145.91 187.74 158.38 184.78 185.76 184.78 185.72 198.32"/><polygon class="cls-3" points="185.58 188.16 158.44 188.16 145.91 191.44 145.91 187.74 158.38 184.78 185.6 184.78 185.58 188.16"/><polygon class="cls-3" points="185.88 198.73 158.54 198.73 145.91 202.12 145.91 200.28 158.47 197.04 185.89 197.04 185.88 198.73"/><polygon class="cls-6" points="185.56 198.32 188.83 200.24 188.83 202.25 185.56 200.24 185.56 198.32"/><polygon class="cls-2" points="188.83 204.81 185.6 204.81 185.6 184.78 188.83 186.17 188.83 204.81"/><polygon class="cls-6" points="185.6 184.78 185.58 188.16 188.83 189.31 188.88 186.17 185.6 184.78"/><rect class="cls-2" x="158.59" y="178.15" width="33.43" height="6.28"/><rect class="cls-1" x="158.59" y="176.75" width="33.43" height="1.77"/><polygon class="cls-4" points="191.19 182.8 195.89 186.17 188.83 186.17 185.6 184.78 158.38 184.78 145.91 187.74 145.91 191.44 136.07 188.47 158.38 184.21 191.19 182.8"/><polygon class="cls-6" points="191.19 182.8 191.19 178.5 192.15 178.5 192.15 176.75 196.54 180.43 196.54 186.17 195.89 186.17 191.19 182.8"/><polygon class="cls-2" points="158.59 178.51 136.07 183.16 136.07 188.47 158.59 184.2 158.59 178.51"/><polygon class="cls-1" points="158.59 176.75 158.59 178.51 136.07 183.16 136.07 181.55 158.59 176.75"/><polygon class="cls-4" points="192.03 176.75 192.03 178.5 196.54 180.43 196.54 178.5 192.03 176.75"/><rect class="cls-7" x="83.43" y="338.04" width="107.22" height="5.01"/><rect class="cls-2" x="197.28" y="145.27" width="65.35" height="33.31"/><polygon class="cls-1" points="260.36 145.27 197.28 145.27 195.89 139.56 261.75 139.56 260.36 145.27"/><polygon class="cls-2" points="150.57 182.61 110.69 196.02 110.69 157.81 150.57 144.49 150.57 182.61"/><rect class="cls-6" x="188.83" y="138.41" width="79.08" height="1.15"/><polygon class="cls-2" points="110.06 196.14 110.06 201.04 145.91 191.44 145.91 186.17 110.06 196.14"/><polygon class="cls-1" points="110.06 194.09 110.06 196.14 145.91 186.17 145.91 184.11 110.06 194.09"/><rect class="cls-2" x="93.93" y="196.14" width="16.12" height="4.9"/><rect class="cls-1" x="93.93" y="194.14" width="16.12" height="2"/><polygon class="cls-2" points="93.93 196.14 83.34 201.83 83.34 206.57 93.93 201.04 93.93 196.14"/><polygon class="cls-1" points="93.93 194.14 93.93 196.14 83.34 201.83 83.34 199.83 93.93 194.14"/><polygon class="cls-4" points="83.34 206.57 83.34 209.56 86.38 209.56 89.08 211.25 93.93 205.29 110.06 205.29 145.91 196.14 145.91 191.44 110.06 201.04 93.93 201.04 83.34 206.57"/><path class="cls-3" d="M230.31,209.42a40,40,0,0,0-39.87,39.87v128.3h15V316.5h-2.52V246.25h57.62V316.5h-5.66v61.09h15.33V249.3A40,40,0,0,0,230.31,209.42Z"/><rect class="cls-5" x="115.21" y="266.2" width="31.94" height="2.28"/><path class="cls-7" d="M230.31,213.89a36.55,36.55,0,0,0-36.44,36.44V377.59h11.55V295.74c0-8.09,4.27-10.34,4.27-10.34v-3.12S205,280.64,205,271.78c0-11.53,14.79-19,25.35-19s25.33,7.46,25.33,19c0,8.86-4.73,10.51-4.73,10.51v3.12s4.27,2.24,4.27,10.34V303h-.33v74.58h11.88V250.33A36.54,36.54,0,0,0,230.31,213.89Z"/><path class="cls-6" d="M145.9,241s-4.68,8.82-4.68,25.15h1.29s.71-15.95,7.56-20.77c0-6,0-10.48,0-10.48S147.63,236.64,145.9,241Z"/><path class="cls-2" d="M114.63,222.9V253a1.25,1.25,0,0,0,2.12,0c0-5,2.16-27,17.57-32.6v-1.59Z"/><rect class="cls-3" x="115.21" y="265.06" width="31.94" height="2.28"/><rect class="cls-8" x="132.8" y="289.17" width="8.42" height="48.87"/><rect class="cls-8" x="116.05" y="289.17" width="8.42" height="48.87"/><rect class="cls-5" x="116.05" y="283.96" width="8.42" height="5.21"/><polygon class="cls-5" points="126.33 276.49 114.23 276.49 116.05 283.99 124.47 283.99 126.33 276.49"/><rect class="cls-5" x="132.78" y="283.96" width="8.42" height="5.21"/><polygon class="cls-5" points="143.06 276.49 130.97 276.49 132.78 283.99 141.21 283.99 143.06 276.49"/><rect class="cls-9" x="166.85" y="306.74" width="8.42" height="5.21"/><polygon class="cls-4" points="150.57 145.98 110.69 159.39 110.69 157.81 150.57 144.49 150.57 145.98"/><polygon class="cls-1" points="150.57 175.59 116.54 187.12 116.54 160.94 150.57 149.41 150.57 175.59"/><rect class="cls-2" x="97.59" y="157.81" width="13.1" height="36.32"/><rect class="cls-4" x="97.59" y="157.81" width="13.1" height="1.58"/><rect class="cls-2" x="190.48" y="128.81" width="2.6" height="3.74"/><polygon class="cls-4" points="97.59 158.15 97.59 159.39 91.37 167.8 91.37 166.59 97.59 158.15"/><polygon class="cls-6" points="183.82 131.02 183.82 136.47 188.83 138.41 189.88 138.41 189.88 133.63 187.01 131.02 183.82 131.02"/><rect class="cls-4" x="174.56" y="126.6" width="10.33" height="4.42"/><rect class="cls-1" x="189.88" y="136.05" width="78.03" height="2.36"/><path class="cls-3" d="M110.07,151.94s4.4-.18,6.47-2,3.63-3.43,6.11-4.65,27.93-9.39,27.93-9.39v4.9l-39.88,13.64h-.62Z"/><rect class="cls-2" x="189.88" y="133.63" width="78.03" height="2.43"/><rect class="cls-4" x="149.17" y="134.66" width="10.33" height="4.42"/><path class="cls-1" d="M194.29,132.22s50-2.29,70.74.14v2.5l-70.74-.14Z"/><path class="cls-2" d="M187,119.62a1,1,0,0,0-.78,1c.1,2.18.69,8.18,4.23,8.18h2.6s3.43.48,3.62-8.19a1,1,0,0,0-.72-1A20.58,20.58,0,0,0,187,119.62Z"/><ellipse class="cls-2" cx="191.54" cy="119.63" rx="2.17" ry="3.08"/><rect class="cls-2" x="155.4" y="132.95" width="2.6" height="3.74"/><path class="cls-2" d="M151.94,123.76a1,1,0,0,0-.78,1c.1,2.18.69,8.18,4.23,8.18H158s3.43.48,3.62-8.19a1,1,0,0,0-.72-1A20.58,20.58,0,0,0,151.94,123.76Z"/><ellipse class="cls-2" cx="156.46" cy="123.77" rx="2.17" ry="3.08"/><rect class="cls-2" x="112.63" y="148.75" width="2.6" height="5.68"/><path class="cls-2" d="M109.17,139.56a1,1,0,0,0-.78,1c.1,2.18.69,8.18,4.23,8.18h2.6s3.43.48,3.62-8.19a1,1,0,0,0-.72-1A20.58,20.58,0,0,0,109.17,139.56Z"/><ellipse class="cls-2" cx="113.69" cy="139.57" rx="2.17" ry="3.08"/><polygon class="cls-2" points="150.57 144.51 110.69 158.15 110.69 154.43 150.57 140.79 150.57 144.51"/><rect class="cls-2" x="97.59" y="154.43" width="13.1" height="3.72"/><ellipse class="cls-3" cx="136.52" cy="219.06" rx="2.73" ry="2.29"/><rect class="cls-2" x="282.68" y="132.22" width="19.84" height="44.97" transform="translate(585.19 309.41) rotate(-180)"/><path class="cls-3" d="M368.63,166.59s2.28.73,2.46-2.86-1.08-4.35-2.87-4.35v-2H369v-7.9h-2.78v-3.84h-6.36s-2.51,2.33-4.75,0c-2.15-.54-5.2,2.76-5.2,6.31v3.55Z"/><polygon class="cls-4" points="269.52 146.36 269.52 139.56 274.14 134.94 276.38 134.94 276.38 138.41 269.52 146.36"/><polygon class="cls-2" points="276.91 137.33 269.52 146.36 269.52 177.19 277.35 177.19 276.91 137.33"/><path class="cls-2" d="M320.76,219.06s-8.28-1.6-12.5,5c-1.48-7.31,0-10.62,0-10.62L322.58,218Z"/><rect class="cls-2" x="306.77" y="208.6" width="47.53" height="129.44" transform="translate(661.08 546.63) rotate(-180)"/><rect class="cls-1" x="301.41" y="135.88" width="8.51" height="45.57" transform="translate(611.33 317.34) rotate(-180)"/><rect class="cls-1" x="276.18" y="131.02" width="8.51" height="50.44" transform="translate(560.87 312.48) rotate(-180)"/><polygon class="cls-6" points="346.66 222.64 342.57 222.64 325.69 218.83 311.02 215.14 311.96 211.25 347.23 220.18 346.66 222.64"/><rect class="cls-2" x="269.35" y="204.81" width="39.19" height="135.73" transform="translate(577.9 545.35) rotate(-180)"/><rect class="cls-5" x="349.11" y="204.03" width="22.13" height="18.87" transform="translate(720.35 426.93) rotate(-180)"/><polygon class="cls-5" points="314.1 210.16 349.12 218.83 349.12 204.81 314.1 196.14 314.1 210.16"/><polygon class="cls-2" points="312.36 212.33 349.12 221.35 349.12 218.83 311.65 209.35 312.36 212.33"/><polygon class="cls-2" points="368.63 166.59 362.41 158.15 362.41 191.44 362.41 195.14 368.63 196.14 368.63 166.59"/><rect class="cls-3" x="267.48" y="204.81" width="22.98" height="6.7" transform="translate(557.94 416.32) rotate(-180)"/><polygon class="cls-3" points="272.26 222.04 285.39 222.04 288.04 211.51 269.35 211.51 272.26 222.04"/><polygon class="cls-5" points="269.58 212.33 269.35 211.51 288.04 211.51 287.83 212.33 269.58 212.33"/><rect class="cls-5" x="272.26" y="222.04" width="13.13" height="99.49" transform="translate(557.66 543.56) rotate(-180)"/><rect class="cls-3" x="266.93" y="330.73" width="23.79" height="7.31" transform="translate(557.66 668.77) rotate(-180)"/><rect class="cls-3" x="266.93" y="330.73" width="23.79" height="0.37" transform="translate(557.66 661.82) rotate(-180)"/><polygon class="cls-3" points="268.46 330.73 289.2 330.73 288.05 325.99 269.58 325.99 268.46 330.73"/><polygon class="cls-5" points="271.22 325.99 286.45 325.99 285.39 321.52 272.26 321.52 271.22 325.99"/><rect class="cls-3" x="270.58" y="322.19" width="16.5" height="1.27" rx="0.26" ry="0.26" transform="translate(557.66 645.64) rotate(-180)"/><rect class="cls-3" x="270.58" y="324.09" width="16.5" height="1.27" rx="0.26" ry="0.26" transform="translate(557.66 649.44) rotate(-180)"/><path class="cls-3" d="M315,238.12c.3.46.6.95.88,1.44,3.26,5.8,4.71,13.7,5.24,17.27h19.36a1.13,1.13,0,0,1,0-.18l-1.87-10.51-4-10.09-9.93-6.2S309.93,230.48,315,238.12Z"/><rect class="cls-3" x="322.58" y="220.41" width="1.81" height="3.11" transform="translate(646.97 443.93) rotate(-180)"/><rect class="cls-5" x="358.11" y="234.29" width="13.13" height="87.23" transform="translate(729.35 555.81) rotate(-180)"/><rect class="cls-3" x="352.78" y="330.73" width="23.79" height="7.31" transform="translate(729.35 668.77) rotate(-180)"/><rect class="cls-3" x="352.78" y="330.73" width="23.79" height="0.37" transform="translate(729.35 661.82) rotate(-180)"/><polygon class="cls-3" points="354.31 330.73 375.04 330.73 373.89 325.99 355.43 325.99 354.31 330.73"/><polygon class="cls-5" points="357.06 325.99 372.3 325.99 371.24 321.52 358.11 321.52 357.06 325.99"/><rect class="cls-3" x="356.42" y="322.19" width="16.5" height="1.27" rx="0.26" ry="0.26" transform="translate(729.35 645.64) rotate(-180)"/><rect class="cls-3" x="356.42" y="324.09" width="16.5" height="1.27" rx="0.26" ry="0.26" transform="translate(729.35 649.44) rotate(-180)"/><rect class="cls-3" x="353.32" y="222.33" width="22.98" height="6.7" transform="translate(729.63 451.36) rotate(-180)"/><polygon class="cls-3" points="358.11 239.56 371.24 239.56 373.88 229.03 355.2 229.03 358.11 239.56"/><polygon class="cls-5" points="355.43 229.85 355.2 229.03 373.88 229.03 373.68 229.85 355.43 229.85"/><path class="cls-4" d="M302.52,245l7.41-10.06s3.28,3,4.17,6.1c.51-.47,1.1-1,1.77-1.49,3.4-2.61,8.37-5.34,11.48-4.61,3.7.88,6.69,2.23,8.18,4.61s4.52,15.47,4.91,17.1a1.13,1.13,0,0,0,0,.18h1.4s-1.09-27.77-17.92-33.94S302.52,245,302.52,245Z"/><polygon class="cls-4" points="352.85 321.52 365.15 322.63 365.15 236.05 352.85 234.95 352.85 321.52"/><rect class="cls-4" x="347.52" y="330.73" width="22.86" height="7.31" transform="translate(717.9 668.77) rotate(-180)"/><polyline class="cls-4" points="371.31 330.73 347.52 330.73 347.52 331.09"/><polygon class="cls-4" points="349.05 330.73 368.82 330.73 367.67 325.99 350.17 325.99 349.05 330.73"/><polygon class="cls-4" points="351.81 325.99 366.21 325.99 365.15 321.52 352.85 321.52 351.81 325.99"/><rect class="cls-4" x="351.17" y="322.19" width="15.44" height="1.27" rx="0.26" ry="0.26" transform="translate(717.77 645.64) rotate(-180)"/><rect class="cls-4" x="351.17" y="324.09" width="15.44" height="1.27" rx="0.26" ry="0.26" transform="translate(717.77 649.44) rotate(-180)"/><polygon class="cls-4" points="349.12 226.14 369.96 226.14 369.96 222.33 349.12 219.65 349.12 226.14"/><polygon class="cls-4" points="352.02 236.05 365.15 236.05 367.8 225.52 349.12 225.52 352.02 236.05"/><polyline class="cls-4" points="350.17 226.35 349.94 225.52 368.63 225.52"/><rect class="cls-5" x="351.1" y="222.04" width="13.13" height="99.49" transform="translate(715.33 543.56) rotate(-180)"/><rect class="cls-3" x="345.77" y="330.73" width="23.79" height="7.31" transform="translate(715.33 668.77) rotate(-180)"/><rect class="cls-3" x="345.77" y="330.73" width="23.79" height="0.37" transform="translate(715.33 661.82) rotate(-180)"/><polygon class="cls-3" points="347.3 330.73 368.04 330.73 366.88 325.99 348.42 325.99 347.3 330.73"/><polygon class="cls-5" points="350.06 325.99 365.29 325.99 364.23 321.52 351.1 321.52 350.06 325.99"/><rect class="cls-3" x="349.42" y="322.19" width="16.5" height="1.27" rx="0.26" ry="0.26" transform="translate(715.33 645.64) rotate(-180)"/><rect class="cls-3" x="349.42" y="324.09" width="16.5" height="1.27" rx="0.26" ry="0.26" transform="translate(715.33 649.44) rotate(-180)"/><rect class="cls-3" x="346.32" y="218.83" width="22.98" height="6.7" transform="translate(715.62 444.35) rotate(-180)"/><polygon class="cls-3" points="351.1 236.05 364.23 236.05 366.88 225.52 348.19 225.52 351.1 236.05"/><polygon class="cls-5" points="348.42 226.35 348.19 225.52 366.88 225.52 366.67 226.35 348.42 226.35"/><rect class="cls-3" x="292.01" y="204.81" width="22.98" height="6.7" transform="translate(606.99 416.32) rotate(-180)"/><polygon class="cls-3" points="296.79 222.04 309.92 222.04 312.57 211.51 293.88 211.51 296.79 222.04"/><polygon class="cls-5" points="294.11 212.33 293.88 211.51 312.57 211.51 312.36 212.33 294.11 212.33"/><rect class="cls-5" x="296.79" y="222.04" width="13.13" height="99.49" transform="translate(606.71 543.56) rotate(-180)"/><rect class="cls-3" x="291.46" y="330.73" width="23.79" height="7.31" transform="translate(606.71 668.77) rotate(-180)"/><rect class="cls-3" x="291.46" y="330.73" width="23.79" height="0.37" transform="translate(606.71 661.82) rotate(-180)"/><polygon class="cls-3" points="292.99 330.73 313.72 330.73 312.57 325.99 294.11 325.99 292.99 330.73"/><polygon class="cls-5" points="295.75 325.99 310.98 325.99 309.92 321.52 296.79 321.52 295.75 325.99"/><rect class="cls-3" x="295.1" y="322.19" width="16.5" height="1.27" rx="0.26" ry="0.26" transform="translate(606.71 645.64) rotate(180)"/><rect class="cls-3" x="295.1" y="324.09" width="16.5" height="1.27" rx="0.26" ry="0.26" transform="translate(606.71 649.44) rotate(-180)"/><rect class="cls-2" x="269.35" y="343.05" width="186.65" height="34.55" transform="translate(725.35 720.64) rotate(-180)"/><rect class="cls-2" x="274.24" y="198.32" width="39.85" height="6.49" transform="translate(588.33 403.13) rotate(-180)"/><polygon class="cls-2" points="274.28 198.32 314.09 198.32 314.09 187.74 301.62 184.78 274.24 184.78 274.28 198.32"/><polygon class="cls-3" points="274.42 188.16 301.56 188.16 314.09 191.44 314.09 187.74 301.62 184.78 274.4 184.78 274.42 188.16"/><polygon class="cls-3" points="274.12 198.73 301.46 198.73 314.09 202.12 314.1 200.28 301.53 197.04 274.11 197.04 274.12 198.73"/><polygon class="cls-6" points="274.44 198.32 271.17 200.24 271.17 202.25 274.44 200.24 274.44 198.32"/><polygon class="cls-2" points="271.17 204.81 274.4 204.81 274.4 184.78 271.17 186.17 271.17 204.81"/><polygon class="cls-6" points="274.4 184.78 274.42 188.16 271.17 189.31 271.02 186.17 274.4 184.78"/><rect class="cls-2" x="267.98" y="178.15" width="33.43" height="6.28" transform="translate(569.39 362.59) rotate(-180)"/><rect class="cls-1" x="267.98" y="176.75" width="33.43" height="1.77" transform="translate(569.39 355.26) rotate(-180)"/><polygon class="cls-4" points="268.81 182.8 264.11 186.17 271.17 186.17 274.4 184.78 301.62 184.78 314.09 187.74 314.09 191.44 323.93 188.47 301.62 184.21 268.81 182.8"/><polygon class="cls-6" points="268.81 182.8 268.81 178.5 267.85 178.5 267.85 176.75 263.46 180.43 263.46 186.17 264.11 186.17 268.81 182.8"/><polygon class="cls-2" points="301.41 178.51 323.93 183.16 323.93 188.47 301.41 184.2 301.41 178.51"/><polygon class="cls-1" points="301.41 176.75 301.41 178.51 323.93 183.16 323.93 181.55 301.41 176.75"/><polygon class="cls-4" points="267.97 176.75 267.97 178.5 263.46 180.43 263.46 178.5 267.97 176.75"/><rect class="cls-7" x="269.35" y="338.04" width="107.22" height="5.01" transform="translate(645.93 681.08) rotate(-180)"/><polygon class="cls-2" points="309.43 182.61 349.31 196.02 349.31 157.81 309.43 144.49 309.43 182.61"/><polygon class="cls-2" points="349.94 196.14 349.94 201.04 314.09 191.44 314.1 186.17 349.94 196.14"/><polygon class="cls-1" points="349.94 194.09 349.94 196.14 314.1 186.17 314.1 184.11 349.94 194.09"/><rect class="cls-2" x="349.94" y="196.14" width="16.12" height="4.9" transform="translate(716.01 397.18) rotate(-180)"/><rect class="cls-1" x="349.94" y="194.14" width="16.12" height="2" transform="translate(716.01 390.28) rotate(-180)"/><polygon class="cls-2" points="366.07 196.14 376.66 201.83 376.66 206.57 366.07 201.04 366.07 196.14"/><polygon class="cls-1" points="366.07 194.14 366.07 196.14 376.66 201.83 376.66 199.83 366.07 194.14"/><polygon class="cls-4" points="376.66 206.57 376.66 209.56 373.62 209.56 370.92 211.25 366.07 205.29 349.94 205.29 314.1 196.14 314.09 191.44 349.94 201.04 366.07 201.04 376.66 206.57"/><rect class="cls-5" x="312.85" y="266.2" width="31.94" height="2.28" transform="translate(657.64 534.68) rotate(-180)"/><path class="cls-6" d="M314.1,241s4.68,8.82,4.68,25.15h-1.29s-.71-15.95-7.56-20.77c0-6,0-10.48,0-10.48S312.37,236.64,314.1,241Z"/><path class="cls-2" d="M345.37,222.9V253a1.25,1.25,0,0,1-2.12,0c0-5-2.16-27-17.57-32.6v-1.59Z"/><rect class="cls-3" x="312.85" y="265.06" width="31.94" height="2.28" transform="translate(657.64 532.4) rotate(-180)"/><rect class="cls-8" x="318.77" y="289.17" width="8.42" height="48.87" transform="translate(645.97 627.21) rotate(-180)"/><rect class="cls-8" x="335.53" y="289.17" width="8.42" height="48.87" transform="translate(679.48 627.21) rotate(-180)"/><rect class="cls-5" x="335.53" y="283.96" width="8.42" height="5.21" transform="translate(679.48 573.13) rotate(-180)"/><polygon class="cls-5" points="333.68 276.49 345.77 276.49 343.95 283.99 335.53 283.99 333.68 276.49"/><rect class="cls-5" x="318.79" y="283.96" width="8.42" height="5.21" transform="translate(646.01 573.13) rotate(-180)"/><polygon class="cls-5" points="316.94 276.49 329.03 276.49 327.22 283.99 318.79 283.99 316.94 276.49"/><rect class="cls-9" x="284.72" y="306.74" width="8.42" height="5.21" transform="translate(577.87 618.68) rotate(-180)"/><polygon class="cls-4" points="309.43 145.98 349.31 159.39 349.31 157.81 309.43 144.49 309.43 145.98"/><polygon class="cls-1" points="309.43 175.59 343.46 187.12 343.46 160.94 309.43 149.41 309.43 175.59"/><rect class="cls-2" x="349.31" y="157.81" width="13.1" height="36.32" transform="translate(711.72 351.95) rotate(-180)"/><rect class="cls-4" x="349.31" y="157.81" width="13.1" height="1.58" transform="translate(711.72 317.2) rotate(-180)"/><rect class="cls-2" x="266.91" y="128.81" width="2.6" height="3.74" transform="translate(536.43 261.36) rotate(-180)"/><polygon class="cls-4" points="362.41 158.15 362.41 159.39 368.63 167.8 368.63 166.59 362.41 158.15"/><polygon class="cls-6" points="276.18 131.02 276.18 134.94 269.52 139.56 267.91 139.56 267.91 134.06 272.99 131.02 276.18 131.02"/><rect class="cls-4" x="275.12" y="126.6" width="10.33" height="4.42" transform="translate(560.56 257.62) rotate(-180)"/><rect class="cls-2" x="265.01" y="131.76" width="6.44" height="2.3" transform="translate(536.46 265.83) rotate(-180)"/><path class="cls-3" d="M349.93,151.94s-4.4-.18-6.47-2-3.63-3.43-6.11-4.65-27.93-9.39-27.93-9.39v4.9l39.88,13.64h.62Z"/><rect class="cls-4" x="300.5" y="134.66" width="10.33" height="4.42" transform="translate(611.33 273.74) rotate(-180)"/><path class="cls-2" d="M273,119.62a1,1,0,0,1,.78,1c-.1,2.18-.69,8.18-4.23,8.18h-2.6s-3.43.48-3.62-8.19a1,1,0,0,1,.72-1A20.58,20.58,0,0,1,273,119.62Z"/><ellipse class="cls-2" cx="268.46" cy="119.63" rx="2.17" ry="3.08"/><rect class="cls-2" x="302" y="132.95" width="2.6" height="3.74" transform="translate(606.6 269.64) rotate(-180)"/><path class="cls-2" d="M308.06,123.76a1,1,0,0,1,.78,1c-.1,2.18-.69,8.18-4.23,8.18H302s-3.43.48-3.62-8.19a1,1,0,0,1,.72-1A20.58,20.58,0,0,1,308.06,123.76Z"/><ellipse class="cls-2" cx="303.54" cy="123.77" rx="2.17" ry="3.08"/><rect class="cls-2" x="344.77" y="148.75" width="2.6" height="5.68" transform="translate(692.15 303.18) rotate(-180)"/><path class="cls-2" d="M350.83,139.56a1,1,0,0,1,.78,1c-.1,2.18-.69,8.18-4.23,8.18h-2.6s-3.43.48-3.62-8.19a1,1,0,0,1,.72-1A20.58,20.58,0,0,1,350.83,139.56Z"/><ellipse class="cls-2" cx="346.31" cy="139.57" rx="2.17" ry="3.08"/><polygon class="cls-2" points="309.43 144.51 349.31 158.15 349.31 154.43 309.43 140.79 309.43 144.51"/><rect class="cls-2" x="349.31" y="154.43" width="13.1" height="3.72" transform="translate(711.72 312.58) rotate(-180)"/><ellipse class="cls-3" cx="323.48" cy="219.06" rx="2.73" ry="2.29"/><rect class="cls-2" x="188.55" y="131.76" width="6.44" height="2.3"/></svg>