<svg id="Layer_1" data-name="Layer 1" xmlns="http://www.w3.org/2000/svg" viewBox="0 0 1003 460"><defs><style>.cls-1,.cls-4{fill:none;stroke:#de5c5c;stroke-miterlimit:10;}.cls-1{stroke-width:0.5px;}.cls-2{fill:#e37373;}.cls-3{fill:#da0100;}.cls-4{stroke-width:0.25px;}.cls-5{fill:#de5c5c;}</style></defs><title>sanfran</title><path class="cls-1" d="M244.06,181.4S328.63,268.22,457.51,271s288.76-126.37,306.75-143"/><path class="cls-1" d="M766.15,144.08S629.77,268.2,465.41,271c-132.63,3.88-210.61-65.31-229.47-84.08"/><polyline class="cls-2" points="784.72 277.5 770.41 294.54 767.94 292.47 782.25 275.42"/><path class="cls-1" d="M127.51,291.7S175.76,255,226.8,181.4"/><polyline class="cls-2" points="767.94 277.5 782.25 294.54 784.72 292.47 770.41 275.42"/><rect class="cls-2" x="768.69" y="295.13" width="16.54" height="1.84"/><polyline class="cls-2" points="784.72 301.88 770.41 318.92 767.94 316.85 782.25 299.8"/><polyline class="cls-2" points="767.94 301.88 782.25 318.92 784.72 316.85 770.41 299.8"/><rect class="cls-2" x="768.69" y="319.51" width="16.54" height="1.84"/><path class="cls-3" d="M761.61,323V287.21s-1-.41-1-4.54V268.15h1.23v-44h.65V187.54h.63V157.4h.63V128.23s.36-2.14,1.68-2.14v-2H767V126l2.66,2.23V156.8h.69v30.1H771v36.68h.69V323Z"/><path class="cls-1" d="M787.93,127.93s96,83.8,195.57,129.6"/><path class="cls-1" d="M786.46,144.08s112.63,88.23,193.41,122.81"/><line class="cls-4" x1="756.45" y1="134.66" x2="756.45" y2="270.96"/><line class="cls-4" x1="759.93" y1="149.45" x2="759.93" y2="270.96"/><line class="cls-4" x1="751.64" y1="156.22" x2="751.64" y2="269.69"/><line class="cls-4" x1="748.54" y1="141.1" x2="748.54" y2="269.69"/><line class="cls-4" x1="743.64" y1="162.47" x2="743.64" y2="268.56"/><line class="cls-4" x1="740.31" y1="268.56" x2="740.31" y2="147.76"/><line class="cls-4" x1="731.74" y1="154.06" x2="731.74" y2="268.56"/><line class="cls-4" x1="735.53" y1="268.56" x2="735.53" y2="168.84"/><line class="cls-4" x1="726.68" y1="174.97" x2="726.68" y2="268.56"/><line class="cls-4" x1="723.67" y1="160.03" x2="723.67" y2="268.56"/><line class="cls-4" x1="718.84" y1="180.43" x2="718.84" y2="268.56"/><line class="cls-4" x1="715.31" y1="166.06" x2="715.31" y2="268.56"/><line class="cls-4" x1="710.89" y1="185.79" x2="710.89" y2="267.72"/><line class="cls-4" x1="707.29" y1="171.69" x2="707.29" y2="268.56"/><line class="cls-4" x1="702.38" y1="191.33" x2="702.38" y2="269.69"/><line class="cls-4" x1="698.63" y1="177.63" x2="698.63" y2="269.69"/><line class="cls-4" x1="694.62" y1="196.22" x2="694.62" y2="269.69"/><line class="cls-4" x1="690.75" y1="182.9" x2="690.75" y2="269.69"/><line class="cls-4" x1="686.94" y1="200.9" x2="686.94" y2="267.72"/><line class="cls-4" x1="682.81" y1="188.08" x2="682.81" y2="268.56"/><line class="cls-4" x1="678.77" y1="205.7" x2="678.77" y2="268.56"/><line class="cls-4" x1="674.68" y1="193.26" x2="674.68" y2="269.13"/><line class="cls-4" x1="670.84" y1="210.2" x2="670.84" y2="268.56"/><line class="cls-4" x1="666.72" y1="198.19" x2="666.72" y2="268.56"/><line class="cls-4" x1="663.36" y1="214.3" x2="663.36" y2="269.13"/><line class="cls-4" x1="659.08" y1="202.81" x2="659.08" y2="268.56"/><line class="cls-4" x1="655.03" y1="218.7" x2="655.03" y2="269.13"/><line class="cls-4" x1="651.45" y1="207.31" x2="651.45" y2="269.69"/><line class="cls-4" x1="647.74" y1="222.41" x2="647.74" y2="269.69"/><line class="cls-4" x1="643.62" y1="211.79" x2="643.62" y2="267.72"/><line class="cls-4" x1="639.81" y1="226.29" x2="639.81" y2="269.13"/><line class="cls-4" x1="635.81" y1="216.14" x2="635.81" y2="270.25"/><line class="cls-4" x1="633.28" y1="229.37" x2="633.28" y2="269.69"/><line class="cls-4" x1="628.43" y1="220.13" x2="628.43" y2="269.13"/><line class="cls-4" x1="625.39" y1="232.95" x2="625.39" y2="268.56"/><line class="cls-4" x1="620.87" y1="224.09" x2="620.87" y2="269.69"/><line class="cls-4" x1="617.87" y1="236.23" x2="617.87" y2="269.69"/><line class="cls-4" x1="613.42" y1="228.32" x2="613.42" y2="269.13"/><line class="cls-4" x1="610.28" y1="239.38" x2="610.28" y2="269.69"/><line class="cls-4" x1="605.95" y1="231.54" x2="605.95" y2="269.69"/><line class="cls-4" x1="603.09" y1="242.24" x2="603.09" y2="269.69"/><line class="cls-4" x1="598.62" y1="235.02" x2="598.62" y2="269.69"/><line class="cls-4" x1="595.76" y1="245.02" x2="595.76" y2="270.25"/><line class="cls-4" x1="590.98" y1="238.5" x2="590.98" y2="269.69"/><line class="cls-4" x1="589.24" y1="247.38" x2="589.24" y2="270.25"/><line class="cls-4" x1="583.63" y1="241.71" x2="583.63" y2="269.69"/><line class="cls-4" x1="581.54" y1="250.03" x2="581.54" y2="270.25"/><line class="cls-4" x1="576.69" y1="244.63" x2="576.69" y2="270.96"/><line class="cls-4" x1="574.42" y1="252.35" x2="574.42" y2="270.96"/><line class="cls-4" x1="569.84" y1="247.38" x2="569.84" y2="270.96"/><line class="cls-4" x1="567.31" y1="254.54" x2="567.31" y2="270.96"/><line class="cls-4" x1="562.93" y1="250.03" x2="562.93" y2="270.25"/><line class="cls-4" x1="560.79" y1="256.42" x2="560.79" y2="270.25"/><line class="cls-4" x1="555.9" y1="252.6" x2="555.9" y2="270.25"/><line class="cls-4" x1="553.63" y1="269.69" x2="553.63" y2="258.37"/><line class="cls-4" x1="548.58" y1="255.12" x2="548.58" y2="270.96"/><line class="cls-4" x1="546.65" y1="260.14" x2="546.65" y2="270.96"/><line class="cls-4" x1="541.9" y1="257.28" x2="541.9" y2="270.25"/><line class="cls-4" x1="539.5" y1="261.82" x2="539.5" y2="270.25"/><line class="cls-4" x1="535.04" y1="259.36" x2="535.04" y2="271.94"/><line class="cls-4" x1="533.26" y1="263.34" x2="533.26" y2="271.42"/><line class="cls-4" x1="528.53" y1="261.2" x2="528.53" y2="270.96"/><line class="cls-4" x1="527.17" y1="264.4" x2="527.17" y2="271.11"/><line class="cls-4" x1="523.08" y1="265.16" x2="523.08" y2="271"/><line class="cls-4" x1="514.56" y1="264.67" x2="514.56" y2="271.11"/><line class="cls-4" x1="521.08" y1="263.14" x2="521.08" y2="270.96"/><line class="cls-4" x1="505.29" y1="266.6" x2="505.29" y2="270.67"/><line class="cls-4" x1="512.73" y1="266.89" x2="512.73" y2="271.11"/><line class="cls-4" x1="436.9" y1="270.67" x2="436.9" y2="274.02"/><line class="cls-4" x1="419.51" y1="269.36" x2="419.51" y2="274.63"/><line class="cls-4" x1="429.39" y1="270.21" x2="429.39" y2="274.02"/><line class="cls-4" x1="426.35" y1="268.64" x2="426.35" y2="274.63"/><line class="cls-4" x1="413.24" y1="266.89" x2="413.24" y2="274.63"/><line class="cls-4" x1="410.91" y1="268.38" x2="410.91" y2="274.63"/><line class="cls-4" x1="403.69" y1="264.85" x2="403.69" y2="276.1"/><line class="cls-4" x1="401.73" y1="267.08" x2="401.73" y2="276.1"/><line class="cls-4" x1="396.4" y1="263.25" x2="396.4" y2="275.12"/><line class="cls-4" x1="394.62" y1="265.9" x2="394.62" y2="276.1"/><line class="cls-4" x1="387.56" y1="261.06" x2="387.56" y2="276.1"/><line class="cls-4" x1="385" y1="264.05" x2="385" y2="276.1"/><line class="cls-4" x1="378.01" y1="258.38" x2="378.01" y2="276.83"/><line class="cls-4" x1="376.34" y1="262.12" x2="376.34" y2="277.32"/><line class="cls-4" x1="369.56" y1="255.74" x2="369.56" y2="277.32"/><line class="cls-4" x1="367.05" y1="259.77" x2="367.05" y2="277.32"/><line class="cls-4" x1="362.3" y1="253.26" x2="362.3" y2="277.32"/><line class="cls-4" x1="360.61" y1="258.38" x2="360.61" y2="276.83"/><line class="cls-4" x1="357.06" y1="251.35" x2="357.06" y2="277.93"/><line class="cls-4" x1="355.46" y1="256.42" x2="355.46" y2="278.67"/><line class="cls-4" x1="351.38" y1="249.17" x2="351.38" y2="278.67"/><line class="cls-4" x1="349.85" y1="254.62" x2="349.85" y2="278.67"/><line class="cls-4" x1="345.94" y1="246.96" x2="345.94" y2="278.67"/><line class="cls-4" x1="344.57" y1="253.26" x2="344.57" y2="279.4"/><line class="cls-4" x1="340.78" y1="244.77" x2="340.78" y2="279.89"/><line class="cls-4" x1="339.18" y1="250.89" x2="339.18" y2="279.4"/><line class="cls-4" x1="335.07" y1="242.22" x2="335.07" y2="279.4"/><line class="cls-4" x1="333.72" y1="248.82" x2="333.72" y2="278.67"/><line class="cls-4" x1="329.52" y1="239.62" x2="329.52" y2="280.63"/><line class="cls-4" x1="327.82" y1="246.44" x2="327.82" y2="279.89"/><line class="cls-4" x1="324.45" y1="237.14" x2="324.45" y2="280.63"/><line class="cls-4" x1="323.15" y1="244.77" x2="323.15" y2="279.89"/><line class="cls-4" x1="319.14" y1="234.43" x2="319.14" y2="280.26"/><line class="cls-4" x1="318.1" y1="242.22" x2="318.1" y2="280.63"/><line class="cls-4" x1="313.97" y1="231.68" x2="313.97" y2="279.89"/><line class="cls-4" x1="312.54" y1="239.62" x2="312.54" y2="279.89"/><line class="cls-4" x1="308.98" y1="228.92" x2="308.98" y2="280.63"/><line class="cls-4" x1="306.86" y1="236.83" x2="306.86" y2="280.63"/><line class="cls-4" x1="303.76" y1="225.92" x2="303.76" y2="280.63"/><line class="cls-4" x1="302.19" y1="234.43" x2="302.19" y2="281.24"/><line class="cls-4" x1="298.84" y1="222.98" x2="298.84" y2="281.24"/><line class="cls-4" x1="297.07" y1="231.68" x2="297.07" y2="280.63"/><line class="cls-4" x1="293.49" y1="219.67" x2="293.49" y2="283.2"/><line class="cls-4" x1="291.34" y1="228.46" x2="291.34" y2="282.09"/><line class="cls-4" x1="288.13" y1="216.21" x2="288.13" y2="282.09"/><line class="cls-4" x1="286.05" y1="225.33" x2="286.05" y2="282.09"/><line class="cls-4" x1="283.62" y1="213.19" x2="283.62" y2="283.2"/><line class="cls-4" x1="281.16" y1="222.31" x2="281.16" y2="282.58"/><line class="cls-4" x1="278.62" y1="209.73" x2="278.62" y2="282.09"/><line class="cls-4" x1="276.34" y1="219.2" x2="276.34" y2="282.58"/><line class="cls-4" x1="273.44" y1="205.99" x2="273.44" y2="283.2"/><line class="cls-4" x1="271.22" y1="215.76" x2="271.22" y2="282.58"/><line class="cls-4" x1="268.72" y1="202.47" x2="268.72" y2="283.2"/><line class="cls-4" x1="266.27" y1="212.28" x2="266.27" y2="283.2"/><line class="cls-4" x1="263.7" y1="198.57" x2="263.7" y2="285.51"/><line class="cls-4" x1="261.6" y1="208.85" x2="261.6" y2="283.2"/><line class="cls-4" x1="259.1" y1="194.85" x2="259.1" y2="283.2"/><line class="cls-4" x1="256.34" y1="204.81" x2="256.34" y2="284.3"/><line class="cls-4" x1="254.06" y1="190.6" x2="254.06" y2="285.51"/><line class="cls-4" x1="251.61" y1="200.99" x2="251.61" y2="284.3"/><line class="cls-4" x1="249.06" y1="186.16" x2="249.06" y2="285.55"/><line class="cls-4" x1="239.34" y1="190.17" x2="239.34" y2="286.49"/><line class="cls-4" x1="236.77" y1="190.17" x2="236.77" y2="285.55"/><line class="cls-4" x1="234.29" y1="285.55" x2="234.29" y2="187.6"/><line class="cls-4" x1="231.94" y1="187.6" x2="231.94" y2="287.6"/><line class="cls-4" x1="222.02" y1="188.19" x2="222.02" y2="286.49"/><line class="cls-4" x1="219.87" y1="213.84" x2="219.87" y2="287.6"/><line class="cls-4" x1="217.21" y1="194.85" x2="217.21" y2="287.6"/><line class="cls-4" x1="215.64" y1="219.2" x2="215.64" y2="287.6"/><line class="cls-4" x1="213.07" y1="200.45" x2="213.07" y2="288.53"/><line class="cls-4" x1="211" y1="224.89" x2="211" y2="288.53"/><line class="cls-4" x1="208.32" y1="206.7" x2="208.32" y2="287.6"/><line class="cls-4" x1="206.41" y1="230.33" x2="206.41" y2="288.53"/><line class="cls-4" x1="203.98" y1="212.28" x2="203.98" y2="288.53"/><line class="cls-4" x1="201.62" y1="235.85" x2="201.62" y2="288.53"/><line class="cls-4" x1="199.22" y1="218.25" x2="199.22" y2="288.53"/><line class="cls-4" x1="196.84" y1="241.23" x2="196.84" y2="288.53"/><line class="cls-4" x1="194.26" y1="224.31" x2="194.26" y2="289.72"/><line class="cls-4" x1="192.56" y1="245.91" x2="192.56" y2="289.72"/><line class="cls-4" x1="189.95" y1="290.64" x2="189.95" y2="229.45"/><line class="cls-4" x1="188.38" y1="250.41" x2="188.38" y2="289.87"/><line class="cls-4" x1="185.38" y1="234.78" x2="185.38" y2="291.2"/><line class="cls-4" x1="184.04" y1="254.98" x2="184.04" y2="290.64"/><line class="cls-4" x1="180.75" y1="240.05" x2="180.75" y2="289.87"/><line class="cls-4" x1="179.12" y1="260.05" x2="179.12" y2="289.72"/><line class="cls-4" x1="176.67" y1="244.6" x2="176.67" y2="291.2"/><line class="cls-4" x1="175.51" y1="263.7" x2="175.51" y2="290.64"/><line class="cls-4" x1="172.47" y1="291.2" x2="172.47" y2="249.17"/><line class="cls-4" x1="170.79" y1="268.4" x2="170.79" y2="290.64"/><line class="cls-4" x1="167.67" y1="291.2" x2="167.67" y2="254.27"/><line class="cls-4" x1="166.35" y1="272.74" x2="166.35" y2="291.2"/><line class="cls-4" x1="163.65" y1="258.45" x2="163.65" y2="291.7"/><line class="cls-4" x1="162.08" y1="276.83" x2="162.08" y2="291.7"/><line class="cls-4" x1="159.17" y1="262.99" x2="159.17" y2="292.45"/><line class="cls-4" x1="154.86" y1="267.81" x2="154.86" y2="293.38"/><line class="cls-4" x1="158.09" y1="280.6" x2="158.09" y2="293.96"/><line class="cls-4" x1="150.88" y1="271.11" x2="150.88" y2="293.38"/><line class="cls-4" x1="146.42" y1="275.32" x2="146.42" y2="293.71"/><line class="cls-4" x1="142.27" y1="279.14" x2="142.27" y2="295.93"/><line class="cls-4" x1="137.7" y1="283.2" x2="137.7" y2="296.54"/><line class="cls-4" x1="133.44" y1="287.28" x2="133.44" y2="296.54"/><line class="cls-4" x1="775.05" y1="136.27" x2="775.05" y2="269.69"/><line class="cls-4" x1="777.69" y1="136.27" x2="777.69" y2="268.56"/><line class="cls-4" x1="795.88" y1="134.66" x2="795.88" y2="271.11"/><line class="cls-4" x1="793.44" y1="149.45" x2="793.44" y2="268.56"/><line class="cls-4" x1="801.86" y1="155.82" x2="801.86" y2="268.56"/><line class="cls-4" x1="805.28" y1="268.56" x2="805.28" y2="142.53"/><line class="cls-4" x1="811.5" y1="162.99" x2="811.5" y2="268.56"/><line class="cls-4" x1="814.1" y1="149.45" x2="814.1" y2="267.75"/><line class="cls-4" x1="820.72" y1="169.74" x2="820.72" y2="269.69"/><line class="cls-4" x1="822.73" y1="156.22" x2="822.73" y2="267.75"/><line class="cls-4" x1="829.74" y1="176.25" x2="829.74" y2="267.75"/><line class="cls-4" x1="832.16" y1="163.46" x2="832.16" y2="268.56"/><line class="cls-4" x1="838.83" y1="182.72" x2="838.83" y2="268.56"/><line class="cls-4" x1="840.84" y1="170" x2="840.84" y2="268.56"/><line class="cls-4" x1="848.07" y1="189.19" x2="848.07" y2="267.75"/><line class="cls-4" x1="850.28" y1="176.95" x2="850.28" y2="267.75"/><line class="cls-4" x1="857.64" y1="195.79" x2="857.64" y2="268.56"/><line class="cls-4" x1="859.51" y1="183.6" x2="859.51" y2="268.56"/><line class="cls-4" x1="867.15" y1="202.24" x2="867.15" y2="268.56"/><line class="cls-4" x1="869.12" y1="190.38" x2="869.12" y2="269.69"/><line class="cls-4" x1="876.82" y1="208.68" x2="876.82" y2="268.56"/><line class="cls-4" x1="878.58" y1="196.89" x2="878.58" y2="268.56"/><line class="cls-4" x1="886.44" y1="214.95" x2="886.44" y2="268.92"/><line class="cls-4" x1="888.62" y1="203.63" x2="888.62" y2="268.56"/><line class="cls-4" x1="896.18" y1="221.17" x2="896.18" y2="269.32"/><line class="cls-4" x1="898.16" y1="209.86" x2="898.16" y2="268.92"/><line class="cls-4" x1="905.98" y1="227.29" x2="905.98" y2="268.92"/><line class="cls-4" x1="907.67" y1="215.92" x2="907.67" y2="268.56"/><line class="cls-4" x1="915.57" y1="233.11" x2="915.57" y2="268.56"/><line class="cls-4" x1="917.34" y1="221.9" x2="917.34" y2="268.56"/><line class="cls-4" x1="925.76" y1="239.12" x2="925.76" y2="269.69"/><line class="cls-4" x1="927.45" y1="227.96" x2="927.45" y2="269.32"/><line class="cls-4" x1="935.63" y1="244.75" x2="935.63" y2="269.69"/><line class="cls-4" x1="937.29" y1="233.66" x2="937.29" y2="269.69"/><line class="cls-4" x1="946.33" y1="250.6" x2="946.33" y2="268.56"/><line class="cls-4" x1="948.21" y1="239.74" x2="948.21" y2="267.84"/><line class="cls-4" x1="957.03" y1="256.17" x2="957.03" y2="268.92"/><line class="cls-4" x1="958.5" y1="245.23" x2="958.5" y2="268.92"/><line class="cls-4" x1="967.23" y1="261.18" x2="967.23" y2="268.92"/><line class="cls-4" x1="969.51" y1="250.84" x2="969.51" y2="268.92"/><line class="cls-4" x1="978.37" y1="255.13" x2="978.37" y2="269.69"/><path class="cls-3" d="M781.93,323V287.21s-1-.41-1-4.54V268.15h1.23v-44h.65V187.54h.63V157.4h.63V128.23s.36-2.14,1.68-2.14v-2h1.57V126l2.66,2.23V156.8h.69v30.1h.62v36.68H792V323Z"/><polygon class="cls-3" points="769.68 128.26 771.67 130.76 782.16 130.76 784.08 128.23 784.08 141.1 781.53 138.99 771.67 138.99 769.68 141.1 769.68 128.26"/><polygon class="cls-3" points="769.68 155.85 771.67 158.64 782.16 158.64 784.08 155.82 784.08 170.16 781.53 167.81 771.67 167.81 769.68 170.16 769.68 155.85"/><polygon class="cls-3" points="769.68 185.83 771.67 189 782.16 189 784.08 185.79 784.08 202.09 781.53 199.42 771.67 199.42 769.68 202.09 769.68 185.83"/><polygon class="cls-3" points="769.68 221.51 772.61 225.27 780.93 225.26 784.08 221.46 784.08 240.77 780.3 237.6 772.61 237.62 769.68 240.77 769.68 221.51"/><polyline class="cls-2" points="229.63 292.19 240.32 304.94 242.17 303.39 231.47 290.64"/><polygon class="cls-3" points="769.68 155.85 771.67 158.64 782.16 158.64 784.08 155.82 784.08 170.16 781.53 167.81 771.67 167.81 769.68 170.16 769.68 155.85"/><polygon class="cls-3" points="769.68 185.83 771.67 189 782.16 189 784.08 185.79 784.08 202.09 781.53 199.42 771.67 199.42 769.68 202.09 769.68 185.83"/><polyline class="cls-2" points="241.59 292.19 230.89 304.94 229.04 303.39 239.74 290.64"/><polygon class="cls-3" points="769.68 221.51 772.61 225.27 780.93 225.26 784.08 221.46 784.08 240.77 780.3 237.6 772.61 237.62 769.68 240.77 769.68 221.51"/><polyline class="cls-2" points="241.86 318.52 231.79 306.52 229.94 308.07 238.71 318.52"/><rect class="cls-2" x="229.71" y="305.15" width="12.37" height="1.37"/><rect class="cls-2" x="228.98" y="320.55" width="12.37" height="1.37"/><polyline class="cls-2" points="232.77 318.52 241.54 308.07 239.69 306.52 229.62 318.52"/><path class="cls-3" d="M239.61,323V300.74s-.74-.31-.74-3.39V286.49h.92V253.58h.49V226.19h.47V203.65h.47V181.83s.27-1.6,1.26-1.6v-1.48h1.17v1.43l2,1.67V203.2h.51v22.51h.46v27.44h.51V323Z"/><path class="cls-1" d="M145.41,292.1s59.94-51.61,93.46-105.22"/><path class="cls-3" d="M224.42,323V300.74s-.74-.31-.74-3.39V286.49h.92V253.58h.49V226.19h.47V203.65H226V181.83s.27-1.6,1.26-1.6v-1.48h1.17v1.43l2,1.67V203.2H231v22.51h.46v27.44h.51V323Z"/><polygon class="cls-3" points="230.46 202.49 231.94 204.58 239.79 204.58 241.23 202.47 241.23 213.19 239.32 211.44 231.94 211.44 230.46 213.19 230.46 202.49"/><polygon class="cls-3" points="230.46 224.91 231.94 227.29 239.79 227.29 241.23 224.89 241.23 237.08 239.32 235.08 231.94 235.08 230.46 237.08 230.46 224.91"/><polygon class="cls-3" points="230.46 251.6 232.64 254.42 238.87 254.41 241.23 251.57 241.23 266.01 238.4 263.64 232.64 263.65 230.46 266.01 230.46 251.6"/><line class="cls-2" x1="19.5" y1="306.58" x2="95.85" y2="301.82"/><rect class="cls-2" x="136.68" y="304.57" width="3.59" height="26.04"/><rect class="cls-2" x="122.82" y="291.2" width="2.17" height="41.89"/><rect class="cls-2" x="141.18" y="291.2" width="2.17" height="41.89"/><path class="cls-3" d="M143.35,291.2v8.18H128.06V291.2H125v41.89h21.43V291.2ZM132.7,330.61V306.13h6.55v24.48Z"/><rect class="cls-3" x="124.2" y="288.53" width="2.67" height="2.67"/><rect class="cls-2" x="124.2" y="288.53" width="0.78" height="2.67"/><rect class="cls-3" x="142.56" y="288.53" width="2.67" height="2.67"/><rect class="cls-2" x="142.56" y="288.53" width="0.79" height="2.67"/><rect class="cls-2" x="108.23" y="306.28" width="3.59" height="24.48"/><rect class="cls-2" x="94.37" y="293.71" width="2.17" height="39.38"/><rect class="cls-2" x="112.74" y="293.71" width="2.17" height="39.38"/><path class="cls-3" d="M114.91,293.71v7.69H99.61v-7.69H96.54v39.38H118V293.71Zm-10.65,37v-23h6.55v23Z"/><rect class="cls-3" x="95.76" y="291.2" width="2.67" height="2.51"/><rect class="cls-2" x="95.76" y="291.2" width="0.78" height="2.51"/><rect class="cls-3" x="114.12" y="291.2" width="2.67" height="2.51"/><rect class="cls-2" x="114.12" y="291.2" width="0.79" height="2.51"/><path class="cls-5" d="M699.67,266.89S535.27,269,495.24,270s-194.76,9.08-248.92,13.12S96,297,96,297L19.5,301.63v2.48l76.34-4.76c337.89-30.94,603.82-28.25,603.82-28.25h280.2v-4.21Z"/><rect class="cls-2" x="762.38" y="276.04" width="28.69" height="0.7"/><path class="cls-5" d="M699.67,271s-153.26,0-204.43,3.15c-40,1-194.76,9.08-248.92,13.12-54.59,3.41-150.47,12.12-150.47,12.12L19.5,304.12v4.36l76-4.36C433.35,273.17,700,277.23,700,277.23l279.89,2V271Z"/><rect class="cls-3" x="124.98" y="293.16" width="3.06" height="15.66"/><rect class="cls-2" x="122.82" y="293.83" width="2.17" height="15.66"/><rect class="cls-5" x="68.58" y="321.94" width="2.22" height="11.15"/><rect class="cls-2" x="70.81" y="321.59" width="4.09" height="11.5"/><rect class="cls-3" x="96.54" y="296.22" width="3.06" height="11.75"/><rect class="cls-5" x="81.22" y="321.94" width="2.22" height="11.15"/><rect class="cls-2" x="68.58" y="318.52" width="27.18" height="4.29"/><rect class="cls-2" x="94.37" y="296.73" width="2.17" height="11.75"/><rect class="cls-2" x="83.44" y="321.59" width="4.09" height="11.5"/><rect class="cls-3" x="223.05" y="322.98" width="8.89" height="4.77"/><rect class="cls-3" x="239.61" y="322.98" width="8.89" height="4.77"/><rect class="cls-2" x="220.62" y="327.75" width="29.4" height="6.23"/><rect class="cls-5" x="206.42" y="333.98" width="57.49" height="1.91"/><rect class="cls-3" x="759.76" y="322.98" width="11.92" height="4.77"/><rect class="cls-3" x="781.93" y="322.98" width="11.92" height="4.77"/><rect class="cls-2" x="757.94" y="327.75" width="38.03" height="6.23"/><rect class="cls-5" x="746.83" y="333.98" width="57.49" height="1.91"/><rect class="cls-5" x="19.5" y="333.09" width="130.63" height="2.8"/><rect class="cls-3" x="229.49" y="183.58" width="12.92" height="6.59"/><rect class="cls-3" x="234.2" y="181.85" width="2.56" height="1.73"/></svg>