<svg id="Layer_1" data-name="Layer 1" xmlns="http://www.w3.org/2000/svg" xmlns:xlink="http://www.w3.org/1999/xlink" viewBox="0 0 460 460"><defs><style>.cls-1{fill:#faeeab;}.cls-2{fill:#f3d632;}.cls-3{fill:#f9eb9d;}.cls-4{fill:#e38620;}.cls-5{fill:#e7963d;}.cls-6{fill:url(#linear-gradient);}.cls-7{fill:url(#linear-gradient-2);}.cls-8{fill:url(#linear-gradient-3);}.cls-9{fill:url(#linear-gradient-4);}.cls-10{fill:url(#linear-gradient-5);}.cls-11{fill:url(#linear-gradient-6);}.cls-12{fill:url(#linear-gradient-7);}.cls-13{fill:url(#linear-gradient-8);}.cls-14{fill:url(#linear-gradient-9);}.cls-15{fill:url(#linear-gradient-10);}.cls-16{fill:url(#linear-gradient-11);}.cls-17{fill:url(#linear-gradient-12);}.cls-18{fill:url(#linear-gradient-13);}.cls-19{fill:url(#linear-gradient-14);}.cls-20{fill:url(#linear-gradient-15);}.cls-21{fill:url(#linear-gradient-16);}.cls-22{fill:url(#linear-gradient-17);}.cls-23{fill:url(#linear-gradient-18);}</style><linearGradient id="linear-gradient" x1="313.13" y1="303.23" x2="313.13" y2="296.88" gradientUnits="userSpaceOnUse"><stop offset="0.35" stop-color="#f5d5b1" stop-opacity="0"/><stop offset="0.44" stop-color="#f6dbb0" stop-opacity="0.22"/><stop offset="0.55" stop-color="#f7e0ae" stop-opacity="0.46"/><stop offset="0.66" stop-color="#f8e5ad" stop-opacity="0.65"/><stop offset="0.76" stop-color="#f9e9ac" stop-opacity="0.8"/><stop offset="0.86" stop-color="#faecac" stop-opacity="0.91"/><stop offset="0.94" stop-color="#faedab" stop-opacity="0.98"/><stop offset="1" stop-color="#faeeab"/></linearGradient><linearGradient id="linear-gradient-2" x1="313.13" y1="311.11" x2="313.13" y2="304.76" xlink:href="#linear-gradient"/><linearGradient id="linear-gradient-3" x1="361.35" y1="296.29" x2="361.35" y2="292.21" xlink:href="#linear-gradient"/><linearGradient id="linear-gradient-4" x1="364.53" y1="301.58" x2="364.53" y2="298.41" xlink:href="#linear-gradient"/><linearGradient id="linear-gradient-5" x1="370.88" y1="313.74" x2="370.88" y2="309.46" xlink:href="#linear-gradient"/><linearGradient id="linear-gradient-6" x1="373.42" y1="318.9" x2="373.42" y2="316.06" xlink:href="#linear-gradient"/><linearGradient id="linear-gradient-7" x1="368.05" y1="307.63" x2="368.05" y2="303.58" xlink:href="#linear-gradient"/><linearGradient id="linear-gradient-8" x1="765.32" y1="303.23" x2="765.32" y2="296.88" gradientTransform="matrix(1, 0, 0, -1, -615.52, 600.12)" xlink:href="#linear-gradient"/><linearGradient id="linear-gradient-9" x1="765.32" y1="311.11" x2="765.32" y2="304.76" gradientTransform="matrix(1, 0, 0, -1, -615.52, 615.87)" xlink:href="#linear-gradient"/><linearGradient id="linear-gradient-10" x1="813.54" y1="296.29" x2="813.54" y2="292.21" gradientTransform="matrix(1, 0, 0, -1, -711.96, 588.5)" xlink:href="#linear-gradient"/><linearGradient id="linear-gradient-11" x1="816.73" y1="301.58" x2="816.73" y2="298.41" gradientTransform="matrix(1, 0, 0, -1, -718.33, 599.99)" xlink:href="#linear-gradient"/><linearGradient id="linear-gradient-12" x1="823.08" y1="313.74" x2="823.08" y2="309.46" gradientTransform="matrix(1, 0, 0, -1, -731.03, 623.2)" xlink:href="#linear-gradient"/><linearGradient id="linear-gradient-13" x1="825.61" y1="318.9" x2="825.61" y2="316.06" gradientTransform="matrix(1, 0, 0, -1, -736.1, 634.97)" xlink:href="#linear-gradient"/><linearGradient id="linear-gradient-14" x1="820.24" y1="307.63" x2="820.24" y2="303.58" gradientTransform="matrix(1, 0, 0, -1, -725.36, 611.21)" xlink:href="#linear-gradient"/><linearGradient id="linear-gradient-15" x1="175.13" y1="325.25" x2="175.13" y2="321.97" xlink:href="#linear-gradient"/><linearGradient id="linear-gradient-16" x1="198.84" y1="328.4" x2="198.84" y2="325" xlink:href="#linear-gradient"/><linearGradient id="linear-gradient-17" x1="133.82" y1="325.25" x2="133.82" y2="321.97" gradientTransform="matrix(1, 0, 0, -1, 149.9, 647.21)" xlink:href="#linear-gradient"/><linearGradient id="linear-gradient-18" x1="157.53" y1="328.4" x2="157.53" y2="325" gradientTransform="matrix(1, 0, 0, -1, 102.49, 653.4)" xlink:href="#linear-gradient"/></defs><title>siemreap</title><rect class="cls-1" x="51" y="313.74" width="358" height="27.3"/><rect class="cls-2" x="191.37" y="238.78" width="77.56" height="61.03"/><rect class="cls-3" x="188.48" y="230.49" width="80.35" height="9.36"/><polygon class="cls-1" points="184.03 291.7 273.77 291.7 281.62 304.38 177.12 304.38 184.03 291.7"/><rect class="cls-1" x="206.64" y="233.94" width="8.57" height="64.8"/><rect class="cls-1" x="242.87" y="233.94" width="8.57" height="64.8"/><rect class="cls-1" x="183.74" y="240.48" width="9.69" height="53.48"/><rect class="cls-1" x="182.39" y="230.54" width="12.51" height="6.54"/><polygon class="cls-1" points="183.74 240.48 182.39 237.08 194.9 237.08 193.43 240.48 183.74 240.48"/><rect class="cls-1" x="264.09" y="240.48" width="9.69" height="53.48"/><rect class="cls-1" x="262.74" y="230.54" width="12.51" height="6.54"/><polygon class="cls-1" points="264.09 240.48 262.74 237.08 275.25 237.08 273.77 240.48 264.09 240.48"/><polygon class="cls-1" points="343.17 303.89 359.93 303.89 357.17 292.21 341.24 292.21 341.24 300.96 343.17 303.89"/><path class="cls-4" d="M369.7,232.93V225h3.15v-10H369.7S356.58,193.68,352,193.68c0,0-9.05,5.91-12,13l-1.87.5s-1.25-2.87-2.25-2.87-1.75,3.25-1.75,3.25-6.62.33-6.74,5.72,0,19.62,0,19.62Z"/><ellipse class="cls-5" cx="351.89" cy="226.88" rx="8.57" ry="25.35"/><rect class="cls-4" x="338.64" y="238.25" width="48.43" height="53.95"/><rect class="cls-4" x="279.72" y="223.49" width="58.92" height="68.71"/><rect class="cls-1" x="338.64" y="232.93" width="50.66" height="5.33"/><polygon class="cls-1" points="338.64 223.49 279.72 223.49 279.72 212.1 343.09 212.1 338.64 223.49"/><rect class="cls-1" x="343.09" y="243.8" width="30.81" height="48.41"/><rect class="cls-1" x="289.52" y="248.49" width="39.76" height="43.71"/><rect class="cls-3" x="348.56" y="248.49" width="20.22" height="39.43"/><rect class="cls-5" x="279.85" y="292.21" width="65.14" height="4.68"/><rect class="cls-5" x="279.85" y="296.88" width="66.55" height="6.35"/><rect class="cls-5" x="279.85" y="296.88" width="66.55" height="6.35"/><rect class="cls-5" x="279.85" y="303.23" width="66.55" height="12.93"/><rect class="cls-5" x="279.85" y="304.76" width="66.55" height="6.35"/><rect class="cls-5" x="279.85" y="292.21" width="65.14" height="4.68"/><rect class="cls-6" x="279.85" y="296.88" width="66.55" height="6.35"/><rect class="cls-5" x="279.85" y="303.23" width="66.55" height="12.93"/><rect class="cls-7" x="279.85" y="304.76" width="66.55" height="6.35"/><rect class="cls-1" x="373.42" y="297.66" width="16.5" height="4.68"/><rect class="cls-5" x="346.08" y="303.58" width="24.8" height="12.49"/><rect class="cls-4" x="350.48" y="292.21" width="21.73" height="4.08"/><rect class="cls-8" x="350.48" y="292.21" width="21.73" height="4.08"/><rect class="cls-4" x="354.08" y="298.41" width="20.91" height="3.17"/><rect class="cls-5" x="368.49" y="306.75" width="24.8" height="9.31"/><rect class="cls-9" x="354.08" y="298.41" width="20.91" height="3.17"/><rect class="cls-4" x="360.87" y="309.46" width="20.03" height="4.28"/><rect class="cls-4" x="362.93" y="316.06" width="20.97" height="2.84"/><polygon class="cls-4" points="403.73 303.88 389.91 299.99 389.91 302.17 374.01 302.33 374.01 306.9 392.91 306.9 403.73 303.88"/><polygon class="cls-1" points="387.04 303.89 403.77 303.89 403.77 316.06 393.3 316.06 393.3 306.75 387.04 303.89"/><rect class="cls-4" x="358.98" y="303.58" width="18.13" height="4.05"/><rect class="cls-10" x="360.87" y="309.46" width="20.03" height="4.28"/><rect class="cls-11" x="362.93" y="316.06" width="20.97" height="2.84"/><polyline class="cls-4" points="350.48 296.29 354.08 298.41 374.99 298.41 372.21 296.29 350.48 296.29"/><polygon class="cls-4" points="354.08 301.58 358.98 303.58 377.11 303.58 374.99 301.58 354.08 301.58"/><polygon class="cls-4" points="358.98 307.63 360.87 309.46 380.89 309.46 377.11 307.63 358.98 307.63"/><polygon class="cls-4" points="360.87 313.74 362.93 316.06 383.9 316.06 380.89 313.74 360.87 313.74"/><rect class="cls-12" x="358.98" y="303.58" width="18.13" height="4.05"/><polygon class="cls-1" points="374.01 297.65 389.65 297.65 387.07 292.21 372.21 292.21 372.21 296.29 374.01 297.65"/><polygon class="cls-1" points="119.77 303.89 103 303.89 105.76 292.21 121.69 292.21 121.69 300.96 119.77 303.89"/><path class="cls-4" d="M93.23,232.93V225H90.08v-10h3.15s13.12-21.42,17.68-21.42c0,0,9.05,5.91,12,13l1.87.5s1.25-2.87,2.25-2.87,1.75,3.25,1.75,3.25,6.62.33,6.74,5.72,0,19.62,0,19.62Z"/><ellipse class="cls-5" cx="111.04" cy="226.88" rx="8.57" ry="25.35"/><rect class="cls-4" x="75.86" y="238.25" width="48.43" height="53.95" transform="translate(200.15 530.46) rotate(-180)"/><rect class="cls-4" x="124.29" y="223.49" width="58.92" height="68.71" transform="translate(307.5 515.7) rotate(-180)"/><rect class="cls-1" x="73.63" y="232.93" width="50.66" height="5.33" transform="translate(197.92 471.18) rotate(-180)"/><polygon class="cls-1" points="124.29 223.49 183.21 223.49 183.21 212.1 119.84 212.1 124.29 223.49"/><rect class="cls-1" x="89.04" y="243.8" width="30.81" height="48.41" transform="translate(208.88 536) rotate(-180)"/><rect class="cls-1" x="133.65" y="248.49" width="39.76" height="43.71" transform="translate(307.06 540.7) rotate(-180)"/><rect class="cls-3" x="94.14" y="248.49" width="20.22" height="39.43" transform="translate(208.51 536.41) rotate(-180)"/><rect class="cls-5" x="117.94" y="292.21" width="65.14" height="4.68" transform="translate(301.02 589.09) rotate(-180)"/><rect class="cls-5" x="116.53" y="296.88" width="66.55" height="6.35" transform="translate(299.61 600.12) rotate(-180)"/><rect class="cls-5" x="116.53" y="296.88" width="66.55" height="6.35" transform="translate(299.61 600.12) rotate(-180)"/><rect class="cls-5" x="116.53" y="303.23" width="66.55" height="12.93" transform="translate(299.61 619.4) rotate(-180)"/><rect class="cls-5" x="116.53" y="304.76" width="66.55" height="6.35" transform="translate(299.61 615.87) rotate(-180)"/><rect class="cls-5" x="117.94" y="292.21" width="65.14" height="4.68" transform="translate(301.02 589.09) rotate(-180)"/><rect class="cls-13" x="116.53" y="296.88" width="66.55" height="6.35" transform="translate(299.61 600.12) rotate(-180)"/><rect class="cls-5" x="116.53" y="303.23" width="66.55" height="12.93" transform="translate(299.61 619.4) rotate(-180)"/><rect class="cls-14" x="116.53" y="304.76" width="66.55" height="6.35" transform="translate(299.61 615.87) rotate(-180)"/><rect class="cls-1" x="73.02" y="297.66" width="16.5" height="4.68" transform="translate(162.53 599.99) rotate(-180)"/><rect class="cls-5" x="92.05" y="303.58" width="24.8" height="12.49" transform="translate(208.9 619.64) rotate(-180)"/><rect class="cls-4" x="90.72" y="292.21" width="21.73" height="4.08" transform="translate(203.17 588.5) rotate(-180)"/><rect class="cls-15" x="90.72" y="292.21" width="21.73" height="4.08" transform="translate(203.17 588.5) rotate(-180)"/><rect class="cls-4" x="87.94" y="298.41" width="20.91" height="3.17" transform="translate(196.79 599.99) rotate(-180)"/><rect class="cls-5" x="69.63" y="306.75" width="24.8" height="9.31" transform="translate(164.07 622.82) rotate(-180)"/><rect class="cls-16" x="87.94" y="298.41" width="20.91" height="3.17" transform="translate(196.79 599.99) rotate(-180)"/><rect class="cls-4" x="82.04" y="309.46" width="20.03" height="4.28" transform="translate(184.1 623.2) rotate(-180)"/><rect class="cls-4" x="79.03" y="316.06" width="20.97" height="2.84" transform="translate(179.03 634.97) rotate(-180)"/><polygon class="cls-4" points="59.2 303.88 73.02 299.99 73.02 302.17 88.92 302.33 88.92 306.9 70.02 306.9 59.2 303.88"/><polygon class="cls-1" points="75.89 303.89 59.16 303.89 59.16 316.06 69.64 316.06 69.64 306.75 75.89 303.89"/><rect class="cls-4" x="85.82" y="303.58" width="18.13" height="4.05" transform="translate(189.77 611.21) rotate(-180)"/><rect class="cls-17" x="82.04" y="309.46" width="20.03" height="4.28" transform="translate(184.1 623.2) rotate(-180)"/><rect class="cls-18" x="79.03" y="316.06" width="20.97" height="2.84" transform="translate(179.03 634.97) rotate(-180)"/><polyline class="cls-4" points="112.45 296.29 108.85 298.41 87.94 298.41 90.72 296.29 112.45 296.29"/><polygon class="cls-4" points="108.85 301.58 103.95 303.58 85.82 303.58 87.94 301.58 108.85 301.58"/><polygon class="cls-4" points="103.95 307.63 102.06 309.46 82.04 309.46 85.82 307.63 103.95 307.63"/><polygon class="cls-4" points="102.06 313.74 100 316.06 79.03 316.06 82.04 313.74 102.06 313.74"/><rect class="cls-19" x="85.82" y="303.58" width="18.13" height="4.05" transform="translate(189.77 611.21) rotate(-180)"/><polygon class="cls-1" points="88.92 297.65 73.28 297.65 75.86 292.21 90.72 292.21 90.72 296.29 88.92 297.65"/><rect class="cls-5" x="178.27" y="242.22" width="11.2" height="63.1"/><rect class="cls-5" x="176.72" y="230.49" width="14.47" height="7.72"/><polygon class="cls-5" points="178.27 242.22 176.72 238.21 191.19 238.21 189.48 242.22 178.27 242.22"/><rect class="cls-5" x="197.95" y="242.22" width="11.2" height="63.1"/><rect class="cls-5" x="196.4" y="230.49" width="14.47" height="7.72"/><polygon class="cls-5" points="197.95 242.22 196.4 238.21 210.87 238.21 209.16 242.22 197.95 242.22"/><rect class="cls-5" x="249.17" y="242.22" width="11.2" height="63.1"/><rect class="cls-5" x="247.61" y="230.49" width="14.47" height="7.72"/><polygon class="cls-5" points="249.17 242.22 247.61 238.21 262.08 238.21 260.37 242.22 249.17 242.22"/><rect class="cls-5" x="268.85" y="242.22" width="11.2" height="63.1"/><rect class="cls-5" x="267.29" y="230.49" width="14.47" height="7.72"/><polygon class="cls-5" points="268.85 242.22 267.29 238.21 281.76 238.21 280.05 242.22 268.85 242.22"/><polygon class="cls-5" points="170.66 309.7 180.06 309.7 171.11 318.64 161.71 318.64 170.66 309.7"/><rect class="cls-4" x="161.71" y="318.64" width="27.52" height="3.32"/><rect class="cls-4" x="162.5" y="321.97" width="25.26" height="3.28"/><rect class="cls-20" x="162.5" y="321.97" width="25.26" height="3.28"/><polygon class="cls-5" points="211.33 321.97 209.63 326.65 249.11 326.65 247.41 321.97 211.33 321.97"/><rect class="cls-4" x="160.73" y="325.25" width="27.03" height="4.46"/><rect class="cls-4" x="185.42" y="321.57" width="26.05" height="3.44"/><rect class="cls-4" x="186.21" y="325" width="25.26" height="3.39"/><rect class="cls-21" x="186.21" y="325" width="25.26" height="3.39"/><rect class="cls-4" x="184.44" y="328.4" width="27.03" height="4.61"/><polygon class="cls-5" points="288.19 309.7 278.67 309.7 287.61 318.64 297.13 318.64 288.19 309.7"/><rect class="cls-4" x="267.29" y="318.64" width="29.84" height="3.32" transform="translate(564.43 640.61) rotate(-180)"/><rect class="cls-4" x="271.09" y="321.97" width="25.26" height="3.28" transform="translate(567.43 647.21) rotate(-180)"/><rect class="cls-22" x="271.09" y="321.97" width="25.26" height="3.28" transform="translate(567.43 647.21) rotate(-180)"/><rect class="cls-4" x="271.09" y="325.25" width="27.03" height="4.46" transform="translate(569.21 654.96) rotate(-180)"/><rect class="cls-4" x="247.38" y="321.57" width="26.05" height="3.44" transform="translate(520.81 646.57) rotate(-180)"/><rect class="cls-4" x="247.38" y="325" width="25.26" height="3.39" transform="translate(520.02 653.4) rotate(-180)"/><rect class="cls-23" x="247.38" y="325" width="25.26" height="3.39" transform="translate(520.02 653.4) rotate(-180)"/><rect class="cls-4" x="247.38" y="328.4" width="27.03" height="4.61" transform="translate(521.79 661.41) rotate(-180)"/><rect class="cls-5" x="169.23" y="314.17" width="119.61" height="4.47"/><polygon class="cls-5" points="271.89 321.97 185.42 321.97 190.14 317.02 267.16 317.02 271.89 321.97"/><rect class="cls-4" x="209.63" y="334.52" width="39.49" height="6.52"/><rect class="cls-4" x="211.33" y="326.01" width="36.07" height="6.52"/><polygon class="cls-5" points="211.33 332.54 209.63 334.52 249.11 334.52 247.41 332.54 211.33 332.54"/><polygon class="cls-1" points="270.88 202.29 286.3 178.88 290.97 184.57 295.09 181.94 301.21 206.33 271.11 206.33 270.88 202.29"/><polygon class="cls-1" points="263.68 187.16 227.28 144.44 227.28 144.27 227.28 144.35 227.28 144.27 227.28 144.44 190.87 187.16 167.41 213.56 167.41 217.56 228.96 217.56 229.11 217.56 287.15 217.56 287.15 213.56 263.68 187.16"/><ellipse class="cls-4" cx="293.29" cy="204.34" rx="7.92" ry="7.73"/><path class="cls-4" d="M294.08,208.32s3,5.81-3.62,13.38-6.92,8.84-9.79,8.84-10.87-16.64-10.87-16.64,9.33,2.23,10.85.19-.74-6.11-.76-8.73a7.29,7.29,0,0,1,3.81-6.81,21.78,21.78,0,0,1,9.59-1.92C296.74,196.8,294.08,208.32,294.08,208.32Z"/><polygon class="cls-1" points="187.26 202.29 171.84 178.88 167.17 184.57 163.05 181.94 156.93 206.33 187.03 206.33 187.26 202.29"/><ellipse class="cls-4" cx="164.85" cy="204.34" rx="7.92" ry="7.73"/><path class="cls-4" d="M164.06,208.32s-3,5.81,3.62,13.38,6.92,8.84,9.79,8.84,10.87-16.64,10.87-16.64-9.33,2.23-10.85.19.74-6.11.76-8.73a7.29,7.29,0,0,0-3.81-6.81,21.78,21.78,0,0,0-9.59-1.92C161.4,196.8,164.06,208.32,164.06,208.32Z"/><path class="cls-4" d="M228.91,166.53l31.66,32,23.37,23.62c3,3.05.94,8.38-3.27,8.38H177.15c-4.21,0-6.29-5.33-3.27-8.38l23.37-23.62Z"/><polygon class="cls-5" points="228.91 193.6 248.39 212.07 267.87 230.53 228.91 230.53 189.95 230.53 209.43 212.07 228.91 193.6"/><path class="cls-1" d="M243,152.86a14,14,0,0,1-28,0c0-7.55,8.25-33.9,14-33.9C234.45,119,243,145.31,243,152.86Z"/><polygon class="cls-5" points="228.91 193.6 217.21 178.35 229 160.5 240.57 178.31 228.91 193.6"/><rect class="cls-4" x="175.58" y="304.03" width="107.55" height="10.56"/></svg>