<svg id="Layer_1" data-name="Layer 1" xmlns="http://www.w3.org/2000/svg" xmlns:xlink="http://www.w3.org/1999/xlink" viewBox="0 0 460 460"><defs><style>.cls-1{fill:#e38620;}.cls-2{fill:#e89b46;}.cls-3{fill:#94eba3;}.cls-4{fill:#f6e063;}.cls-5{fill:url(#linear-gradient);}.cls-6{fill:url(#linear-gradient-2);}.cls-7{fill:#f3d632;}.cls-8{fill:#f9e990;}.cls-9{fill:url(#linear-gradient-3);}.cls-10{fill:url(#linear-gradient-4);}.cls-11{fill:url(#linear-gradient-5);}.cls-12{fill:url(#linear-gradient-6);}.cls-13{fill:url(#linear-gradient-7);}.cls-14{fill:url(#linear-gradient-8);}.cls-15{fill:url(#linear-gradient-9);}.cls-16{fill:#fbf3c2;}.cls-17{fill:#84e895;}</style><linearGradient id="linear-gradient" x1="-705.49" y1="287.08" x2="-705.49" y2="276.75" gradientTransform="matrix(1, 0, 0, -1, 1060.89, 563.83)" gradientUnits="userSpaceOnUse"><stop offset="0" stop-color="#f3d632" stop-opacity="0"/><stop offset="0.08" stop-color="#e8d83f" stop-opacity="0.11"/><stop offset="0.27" stop-color="#cfde5d" stop-opacity="0.38"/><stop offset="0.45" stop-color="#bae376" stop-opacity="0.6"/><stop offset="0.62" stop-color="#a9e689" stop-opacity="0.77"/><stop offset="0.77" stop-color="#9ee997" stop-opacity="0.9"/><stop offset="0.9" stop-color="#97eaa0" stop-opacity="0.97"/><stop offset="1" stop-color="#94eba3"/></linearGradient><linearGradient id="linear-gradient-2" x1="-753.6" y1="290.48" x2="-753.6" y2="282.67" gradientTransform="matrix(1, 0, 0, -1, 1157.12, 573.14)" xlink:href="#linear-gradient"/><linearGradient id="linear-gradient-3" x1="121.33" y1="238.93" x2="105.78" y2="238.93" gradientUnits="userSpaceOnUse"><stop offset="0.45" stop-color="#f9e990" stop-opacity="0"/><stop offset="0.59" stop-color="#f8e57a" stop-opacity="0.23"/><stop offset="0.9" stop-color="#f4da44" stop-opacity="0.8"/><stop offset="1" stop-color="#f3d632"/></linearGradient><linearGradient id="linear-gradient-4" x1="-696.27" y1="239.09" x2="-711.81" y2="239.09" gradientTransform="matrix(1, 0, 0, -1, 1051.27, 478.17)" xlink:href="#linear-gradient-3"/><linearGradient id="linear-gradient-5" x1="104.59" y1="287.08" x2="104.59" y2="276.75" gradientTransform="matrix(1, 0, 0, 1, 0, 0)" xlink:href="#linear-gradient"/><linearGradient id="linear-gradient-6" x1="56.48" y1="290.48" x2="56.48" y2="282.67" gradientTransform="matrix(1, 0, 0, 1, 0, 0)" xlink:href="#linear-gradient"/><linearGradient id="linear-gradient-7" x1="684.66" y1="268.3" x2="684.66" y2="243.23" gradientTransform="matrix(1, 0, 0, -1, -454.18, 511.53)" gradientUnits="userSpaceOnUse"><stop offset="0.18" stop-color="#f6e063" stop-opacity="0"/><stop offset="0.24" stop-color="#ebe16a" stop-opacity="0.11"/><stop offset="0.4" stop-color="#d1e47b" stop-opacity="0.38"/><stop offset="0.55" stop-color="#bbe789" stop-opacity="0.6"/><stop offset="0.69" stop-color="#aae995" stop-opacity="0.77"/><stop offset="0.81" stop-color="#9eea9c" stop-opacity="0.9"/><stop offset="0.92" stop-color="#97eba1" stop-opacity="0.97"/><stop offset="1" stop-color="#94eba3"/></linearGradient><linearGradient id="linear-gradient-8" x1="230.13" y1="225.38" x2="230.13" y2="220.95" gradientUnits="userSpaceOnUse"><stop offset="0.23" stop-color="#f3d632" stop-opacity="0"/><stop offset="0.26" stop-color="#ecd83a" stop-opacity="0.07"/><stop offset="0.33" stop-color="#d8dc52" stop-opacity="0.29"/><stop offset="0.41" stop-color="#c6e068" stop-opacity="0.48"/><stop offset="0.5" stop-color="#b6e37a" stop-opacity="0.64"/><stop offset="0.58" stop-color="#aae689" stop-opacity="0.77"/><stop offset="0.67" stop-color="#a0e895" stop-opacity="0.87"/><stop offset="0.77" stop-color="#99ea9d" stop-opacity="0.94"/><stop offset="0.87" stop-color="#95eba1" stop-opacity="0.99"/><stop offset="1" stop-color="#94eba3"/></linearGradient><linearGradient id="linear-gradient-9" x1="230.13" y1="211.47" x2="230.13" y2="207.32" xlink:href="#linear-gradient-8"/></defs><title>siemreap</title><rect class="cls-1" x="326.29" y="252.56" width="81.93" height="17.31" transform="translate(734.51 522.43) rotate(-180)"/><rect class="cls-1" x="266.76" y="299.24" width="161.24" height="36.63" transform="translate(694.76 635.11) rotate(-180)"/><rect class="cls-2" x="319.58" y="329.87" width="70.43" height="38.69" transform="translate(709.6 698.43) rotate(-180)"/><rect class="cls-2" x="390.01" y="330.7" width="37.99" height="37.86" transform="translate(818.01 699.26) rotate(-180)"/><rect class="cls-3" x="314.62" y="274.05" width="69.86" height="2.7" transform="translate(699.11 550.8) rotate(-180)"/><rect class="cls-4" x="314.02" y="225.83" width="25.81" height="27.09" transform="translate(653.86 478.74) rotate(-180)"/><rect class="cls-2" x="314.62" y="276.85" width="81.57" height="13.63" transform="translate(710.81 567.33) rotate(-180)"/><rect class="cls-2" x="384.49" y="282.2" width="38.07" height="8.28" transform="translate(807.04 572.68) rotate(-180)"/><rect class="cls-5" x="314.62" y="276.75" width="81.57" height="10.33" transform="translate(710.81 563.83) rotate(-180)"/><rect class="cls-6" x="384.49" y="282.67" width="38.07" height="7.81" transform="translate(807.04 573.14) rotate(-180)"/><rect class="cls-7" x="313.38" y="255.34" width="71.11" height="18.71" transform="translate(697.87 529.39) rotate(-180)"/><rect class="cls-7" x="314.62" y="290.48" width="113.38" height="11.07" transform="translate(742.62 592.03) rotate(-180)"/><rect class="cls-3" x="384.49" y="279.97" width="38.07" height="2.7" transform="translate(807.04 562.64) rotate(-180)"/><rect class="cls-3" x="316.89" y="301.55" width="111.11" height="2.7" transform="translate(744.89 605.8) rotate(-180)"/><rect class="cls-7" x="384.49" y="261.21" width="38.07" height="18.71" transform="translate(807.04 541.14) rotate(-180)"/><rect class="cls-7" x="282.58" y="303.83" width="3.81" height="19.78" transform="translate(568.97 627.43) rotate(-180)"/><polygon class="cls-7" points="287.56 325.46 286.39 323.61 282.58 323.61 281.41 325.46 281.41 328 287.56 328 287.56 325.46"/><polygon class="cls-7" points="287.61 302.06 286.39 303.83 282.58 303.83 281.41 302.06 281.41 299.65 287.61 299.65 287.61 302.06"/><rect class="cls-7" x="315.69" y="303.83" width="3.81" height="19.78" transform="translate(635.19 627.43) rotate(-180)"/><polygon class="cls-7" points="320.67 325.46 319.5 323.61 315.69 323.61 314.52 325.46 314.52 328 320.67 328 320.67 325.46"/><polygon class="cls-7" points="320.72 302.06 319.5 303.83 315.69 303.83 314.52 302.06 314.52 299.65 320.72 299.65 320.72 302.06"/><rect class="cls-7" x="344.6" y="305.72" width="3.81" height="19.78" transform="translate(693.01 631.23) rotate(-180)"/><polygon class="cls-7" points="349.58 327.36 348.42 325.5 344.6 325.5 343.43 327.36 343.43 329.89 349.58 329.89 349.58 327.36"/><polygon class="cls-7" points="349.63 303.96 348.42 305.72 344.6 305.72 343.43 303.96 343.43 301.55 349.63 301.55 349.63 303.96"/><rect class="cls-7" x="378.73" y="305.72" width="3.81" height="19.78" transform="translate(761.28 631.23) rotate(-180)"/><polygon class="cls-7" points="383.71 327.36 382.55 325.5 378.73 325.5 377.56 327.36 377.56 329.89 383.71 329.89 383.71 327.36"/><polygon class="cls-7" points="383.76 303.96 382.55 305.72 378.73 305.72 377.56 303.96 377.56 301.55 383.76 301.55 383.76 303.96"/><rect class="cls-7" x="403.76" y="308.14" width="3.81" height="18.43" transform="translate(811.33 634.71) rotate(-180)"/><polygon class="cls-7" points="408.74 328.3 407.57 326.57 403.76 326.57 402.59 328.3 402.59 330.66 408.74 330.66 408.74 328.3"/><polygon class="cls-7" points="408.79 306.49 407.57 308.14 403.76 308.14 402.59 306.49 402.59 304.25 408.79 304.25 408.79 306.49"/><rect class="cls-7" x="422.97" y="308.14" width="3.81" height="18.43" transform="translate(849.76 634.71) rotate(-180)"/><polygon class="cls-7" points="427.95 328.3 426.79 326.57 422.97 326.57 421.8 328.3 421.8 330.66 427.95 330.66 427.95 328.3"/><polygon class="cls-7" points="428 306.49 426.79 308.14 422.97 308.14 421.81 306.49 421.81 304.25 428 304.25 428 306.49"/><rect class="cls-7" x="317.5" y="237.02" width="21.73" height="11.18" transform="translate(656.73 485.21) rotate(-180)"/><rect class="cls-4" x="330.16" y="237.76" width="8.57" height="9.93" transform="translate(668.9 485.46) rotate(-180)"/><rect class="cls-4" x="318.86" y="237.76" width="8.57" height="9.93" transform="translate(646.3 485.46) rotate(-180)"/><rect class="cls-7" x="121.07" y="212.12" width="217.85" height="15.04"/><rect class="cls-1" x="51.78" y="252.56" width="81.93" height="17.31"/><path class="cls-2" d="M123.74,215.1h7.75v0h15.23c-.93,0-1.95-3.19-3.09-5.09a227,227,0,0,1-12.16-22.41c-1.3-2.54-2.53-4.18-3.85-4.18s-2.88,1.84-4.32,4.67a205.91,205.91,0,0,1-11.61,21.88c-1.14,1.9-2.16,5.13-3.09,5.13h15.14Z"/><path class="cls-7" d="M91.57,214H66.17s-3.33-11.18-2.73-20,1.82-29.76,12.27-47.08S89.19,122,89.19,122h2.49Z"/><path class="cls-7" d="M91.55,214H117s3.33-11.18,2.73-20-1.82-29.76-12.27-47.08S93.93,122,93.93,122H91.44Z"/><rect class="cls-8" x="63.73" y="212.12" width="58.62" height="9.83"/><rect class="cls-8" x="75.09" y="206.1" width="32.7" height="13.27"/><path class="cls-4" d="M92.89,140.45a1.34,1.34,0,0,0-2.43,0c-2.55,5.44-7.24,19.31-7.33,41.07-.07,18.13-.08,25.29,0,27.62a1.35,1.35,0,0,0,1.35,1.3l7.17,0h7a1.35,1.35,0,0,0,1.35-1.3c.08-2.33.29-8.56.27-26.95C100.25,160.46,95.45,145.89,92.89,140.45Z"/><rect class="cls-4" x="77.84" y="210.47" width="27.68" height="7.6"/><polygon class="cls-4" points="105.52 210.47 77.84 210.47 87.1 202.87 96.25 202.87 105.52 210.47"/><rect class="cls-8" x="73.07" y="223.93" width="25.77" height="28.55"/><rect class="cls-4" x="62.21" y="225.37" width="10.86" height="22.9"/><rect class="cls-4" x="98.85" y="225.37" width="22.48" height="27.11"/><rect class="cls-1" x="67.06" y="236.82" width="5.36" height="10.79"/><rect class="cls-4" x="70.94" y="240.47" width="1.32" height="6.98"/><rect class="cls-4" x="60.75" y="233.79" width="1.47" height="15.45"/><polygon class="cls-4" points="62.22 252.48 59.44 252.48 60.75 249.25 62.22 249.25 62.22 252.48"/><polygon class="cls-4" points="62.22 229.81 58.76 229.81 60.75 233.79 62.22 233.79 62.22 229.81"/><rect class="cls-8" x="62.21" y="248.27" width="10.86" height="4.22"/><rect class="cls-4" x="98.85" y="223.93" width="6.93" height="24.34"/><rect class="cls-9" x="105.78" y="225.37" width="15.54" height="27.11"/><rect class="cls-1" x="107.92" y="236.82" width="7.98" height="10.79"/><rect class="cls-7" x="63.52" y="221.95" width="58.62" height="3.97"/><polygon class="cls-4" points="58.76 229.81 60.66 218.97 63.73 218.05 63.73 229.81 58.76 229.81"/><rect class="cls-8" x="82.58" y="228.36" width="13.2" height="19.09"/><rect class="cls-1" x="85.79" y="229.81" width="7.31" height="15.32"/><polygon class="cls-4" points="78.97 225.37 80.24 228.94 98.84 228.94 100.19 225.37 78.97 225.37"/><path class="cls-7" d="M79,225.37l-.55-4s-.19-1.74.73-2.17a3.63,3.63,0,0,1,1.14-.25.82.82,0,0,0,.62-.84,2.34,2.34,0,0,1,.45-2c.54-.48,1.32-.8,1.36-1.24s0-1.2.45-1.4a18.6,18.6,0,0,1,2.69-1.2c.7-.16.79.68,1.36.44s.7-.52.7-.92v-.92s.21-1,1.65-1v15.57Z"/><path class="cls-7" d="M100.2,225.37l.55-4s.19-1.74-.73-2.17a3.63,3.63,0,0,0-1.14-.25.82.82,0,0,1-.62-.84,2.34,2.34,0,0,0-.45-2c-.54-.48-1.32-.8-1.36-1.24s0-1.2-.45-1.4a18.6,18.6,0,0,0-2.69-1.2c-.7-.16-.79.68-1.36.44s-.7-.52-.7-.92v-.92s-.21-1-1.65-1v15.57Z"/><path class="cls-4" d="M96.34,223.29c-.31-.2-.82-.41-.82-.63s.45-.47.66-.84a2.39,2.39,0,0,0-.37-2.46,3.12,3.12,0,0,0-2.89-.61c-.76.38-1.3-1-.43-1.55s.13-2,.13-2-.48-1.29-3-1.29-3,1.28-3,1.28-.74,1.36.13,1.95.33,1.91-.43,1.53a3.1,3.1,0,0,0-2.89.57,2.26,2.26,0,0,0-.37,2.39c.21.37.66.47.66.68s-.51.73-.82.93c-.67.43-.46,2.08-.46,2.08H96.81S97,223.71,96.34,223.29Z"/><path class="cls-2" d="M337,215.26h-7.75v0H314.06c.93,0,1.95-3.19,3.09-5.09a227,227,0,0,0,12.16-22.41c1.3-2.54,2.53-4.18,3.85-4.18s2.88,1.84,4.32,4.67a205.91,205.91,0,0,0,11.61,21.88c1.14,1.9,2.16,5.13,3.09,5.13H337Z"/><path class="cls-7" d="M369.21,214.11h25.4s3.33-11.18,2.73-20-1.82-29.76-12.27-47.08-13.48-24.87-13.48-24.87H369.1Z"/><path class="cls-7" d="M369.23,214.11h-25.4s-3.33-11.18-2.73-20,1.82-29.76,12.27-47.08,13.48-24.87,13.48-24.87h2.49Z"/><rect class="cls-8" x="338.44" y="212.28" width="58.62" height="9.83" transform="translate(735.49 434.38) rotate(-180)"/><rect class="cls-8" x="352.99" y="206.26" width="32.7" height="13.27" transform="translate(738.67 425.79) rotate(-180)"/><path class="cls-4" d="M367.89,140.61a1.34,1.34,0,0,1,2.43,0c2.55,5.44,7.24,19.31,7.33,41.07.07,18.13.08,25.29,0,27.62a1.35,1.35,0,0,1-1.35,1.3l-7.17,0h-7a1.35,1.35,0,0,1-1.35-1.3c-.08-2.33-.29-8.56-.27-26.95C360.53,160.62,365.33,146,367.89,140.61Z"/><rect class="cls-4" x="355.26" y="210.63" width="27.68" height="7.6" transform="translate(738.2 428.85) rotate(-180)"/><polygon class="cls-4" points="355.26 210.63 382.94 210.63 373.68 203.03 364.52 203.03 355.26 210.63"/><rect class="cls-8" x="361.93" y="224.09" width="25.77" height="28.55" transform="translate(749.64 476.73) rotate(-180)"/><rect class="cls-4" x="387.71" y="225.53" width="10.86" height="22.9" transform="translate(786.27 473.96) rotate(-180)"/><rect class="cls-4" x="339.45" y="225.53" width="22.48" height="27.11" transform="translate(701.38 478.17) rotate(-180)"/><rect class="cls-1" x="388.36" y="236.98" width="5.36" height="10.79" transform="translate(782.08 484.75) rotate(-180)"/><rect class="cls-4" x="388.52" y="240.63" width="1.32" height="6.98" transform="translate(778.36 488.23) rotate(-180)"/><rect class="cls-4" x="398.56" y="233.95" width="1.47" height="15.45" transform="translate(798.6 483.36) rotate(-180)"/><polygon class="cls-4" points="398.56 252.64 401.34 252.64 400.03 249.41 398.56 249.41 398.56 252.64"/><polygon class="cls-4" points="398.56 229.97 402.02 229.97 400.03 233.95 398.56 233.95 398.56 229.97"/><rect class="cls-8" x="387.71" y="248.43" width="10.86" height="4.22" transform="translate(786.27 501.07) rotate(-180)"/><rect class="cls-4" x="355" y="224.09" width="6.93" height="24.34" transform="translate(716.93 472.52) rotate(-180)"/><rect class="cls-10" x="339.45" y="225.53" width="15.54" height="27.11" transform="translate(694.45 478.17) rotate(-180)"/><rect class="cls-1" x="344.88" y="236.98" width="7.98" height="10.79" transform="translate(697.75 484.75) rotate(-180)"/><rect class="cls-7" x="338.65" y="222.11" width="58.62" height="3.97" transform="translate(735.91 448.18) rotate(-180)"/><polygon class="cls-4" points="402.02 229.97 400.12 219.13 397.05 218.22 397.05 229.97 402.02 229.97"/><rect class="cls-8" x="365" y="228.52" width="13.2" height="19.09" transform="translate(743.2 476.12) rotate(-180)"/><rect class="cls-1" x="367.67" y="229.97" width="7.31" height="15.32" transform="translate(742.66 475.25) rotate(-180)"/><polygon class="cls-4" points="381.81 225.53 380.54 229.1 361.94 229.1 360.59 225.53 381.81 225.53"/><path class="cls-7" d="M381.83,225.53l.55-4s.19-1.74-.73-2.17a3.63,3.63,0,0,0-1.14-.25.82.82,0,0,1-.62-.84,2.34,2.34,0,0,0-.45-2c-.54-.48-1.32-.8-1.36-1.24s0-1.2-.45-1.4a18.6,18.6,0,0,0-2.69-1.2c-.7-.16-.79.68-1.36.44s-.7-.52-.7-.92V211s-.21-1-1.65-1v15.57Z"/><path class="cls-7" d="M360.58,225.53l-.55-4s-.19-1.74.73-2.17a3.63,3.63,0,0,1,1.14-.25.82.82,0,0,0,.62-.84,2.34,2.34,0,0,1,.45-2c.54-.48,1.32-.8,1.36-1.24s0-1.2.45-1.4a18.6,18.6,0,0,1,2.69-1.2c.7-.16.79.68,1.36.44s.7-.52.7-.92V211s.21-1,1.65-1v15.57Z"/><path class="cls-4" d="M364.44,223.45c.31-.2.82-.41.82-.63s-.45-.47-.66-.84a2.39,2.39,0,0,1,.37-2.46,3.12,3.12,0,0,1,2.89-.61c.76.38,1.3-1,.43-1.55s-.13-2-.13-2,.48-1.29,3-1.29,3,1.28,3,1.28.74,1.36-.13,1.95-.33,1.91.43,1.53a3.1,3.1,0,0,1,2.89.57,2.26,2.26,0,0,1,.37,2.39c-.21.37-.66.47-.66.68s.51.73.82.93c.67.43.46,2.08.46,2.08H364S363.77,223.87,364.44,223.45Z"/><rect class="cls-1" x="32" y="299.24" width="161.24" height="36.63"/><rect class="cls-2" x="69.99" y="329.87" width="70.43" height="38.69"/><rect class="cls-2" x="138.85" y="327.99" width="50.48" height="40.57"/><rect class="cls-2" x="270.91" y="327.99" width="50.48" height="40.57"/><rect class="cls-2" x="32" y="330.7" width="37.99" height="37.86"/><rect class="cls-3" x="75.51" y="274.05" width="69.86" height="2.7"/><rect class="cls-4" x="120.81" y="225.83" width="25.81" height="27.09"/><rect class="cls-2" x="63.81" y="276.85" width="81.57" height="13.63"/><rect class="cls-2" x="37.45" y="282.2" width="38.07" height="8.28"/><rect class="cls-11" x="63.81" y="276.75" width="81.57" height="10.33"/><rect class="cls-12" x="37.45" y="282.67" width="38.07" height="7.81"/><rect class="cls-7" x="75.51" y="255.34" width="71.11" height="18.71"/><rect class="cls-7" x="32" y="290.48" width="113.38" height="11.07"/><rect class="cls-3" x="37.45" y="279.97" width="38.07" height="2.7"/><rect class="cls-3" x="32" y="301.55" width="111.11" height="2.7"/><polygon class="cls-3" points="145.93 255.34 121.08 255.34 97.36 252.64 145.93 252.64 145.93 255.34"/><polygon class="cls-3" points="314.52 255.34 339.37 255.34 363.09 252.64 314.52 252.64 314.52 255.34"/><rect class="cls-7" x="37.45" y="261.21" width="38.07" height="18.71"/><path class="cls-4" d="M239.3,295.09a6.2,6.2,0,0,1-.91-2.25c0-.46-.1-1.25-.71-1.15s-.86.79-1.27.74-.56-.44-.61-1.15-.15-1.74-.66-2a2,2,0,0,0-1.26,0,1.46,1.46,0,0,0-1.35-1.61c-.73,0-.68-1.07-1.19-1.39a2.78,2.78,0,0,0-2.2,0c-.51.31-.45,1.38-1.19,1.38a1.46,1.46,0,0,0-1.35,1.6,1.94,1.94,0,0,0-1.26,0c-.51.25-.61,1.27-.66,2s-.2,1.07-.61,1.12-.66-.71-1.27-.81-.71.56-.71,1a6.9,6.9,0,0,1-.91,2.53c-.61,1.17.36,6,.36,6h17.4S239.91,296.26,239.3,295.09Z"/><path class="cls-8" d="M238.37,296a4.93,4.93,0,0,1-.82-2c0-.36-.09-1.08-.64-1s-.78.57-1.14.53-.5-.37-.55-.93-.14-1.38-.59-1.58a2,2,0,0,0-1.13,0,1.18,1.18,0,0,0-1.22-1.26c-.66,0-.61-.84-1.06-1.09a2.84,2.84,0,0,0-2,0c-.46.24-.41,1.08-1.06,1.08A1.17,1.17,0,0,0,227,291a2,2,0,0,0-1.13,0c-.46.2-.55,1-.59,1.55s-.18.83-.55.87-.59-.56-1.14-.64-.64.44-.64.79a6.09,6.09,0,0,1-.82,2.38c-.55.91.32,5.08.32,5.08H238S238.92,296.9,238.37,296Z"/><rect class="cls-2" x="139.28" y="286.87" width="181.49" height="10.08"/><rect class="cls-2" x="141.66" y="223.67" width="176.74" height="19.56"/><rect class="cls-7" x="145.51" y="243.23" width="169.92" height="25.07"/><rect class="cls-7" x="140.47" y="271.23" width="179.11" height="15.64"/><rect class="cls-13" x="145.51" y="243.23" width="169.92" height="25.07" transform="translate(460.94 511.53) rotate(-180)"/><rect class="cls-1" x="139.28" y="275.3" width="2.93" height="22"/><rect class="cls-1" x="317.84" y="275.29" width="2.93" height="22.01"/><rect class="cls-1" x="140.47" y="268.3" width="179.11" height="2.93"/><rect class="cls-3" x="139.28" y="296.96" width="181.49" height="2.7"/><polygon class="cls-1" points="317.93 197.29 318.96 243.23 313.09 243.23 313.09 215.39 317.93 197.29"/><rect class="cls-2" x="178.07" y="220.95" width="104.11" height="4.88"/><rect class="cls-14" x="178.07" y="220.95" width="104.11" height="4.43"/><rect class="cls-2" x="178.07" y="209.72" width="104.11" height="11.23"/><rect class="cls-2" x="193.44" y="207.32" width="73.36" height="2.98"/><rect class="cls-15" x="193.44" y="207.32" width="73.36" height="4.15"/><rect class="cls-2" x="193.44" y="195.05" width="73.36" height="12.27"/><path class="cls-7" d="M230.13,195.05H203.72s-3.46-12.6-2.83-22.52,1.89-33.54,12.75-53.07,14-28,14-28h2.59Z"/><path class="cls-7" d="M230.12,195.05h26.41s3.46-12.6,2.83-22.52-1.89-33.54-12.75-53.07-14-28-14-28H230Z"/><path class="cls-4" d="M228.77,115.37c.49-1.46,1.95-1.46,2.43,0,2.55,7.67,7.24,27.21,7.33,57.87.07,25.56.08,35.65,0,38.93,0,1-.62,1.83-1.35,1.83L230,214h-7c-.73,0-1.32-.81-1.35-1.83-.08-3.28-.29-12.06-.27-38C221.42,143.58,226.22,123,228.77,115.37Z"/><path class="cls-4" d="M208,249.7v-2.89a31.57,31.57,0,0,1-1.45-3.64,1.61,1.61,0,0,1,.15-1s-.8-.32-.86-1a2.29,2.29,0,0,1,.3-1.56s-2.75-2.34-2.75-3.53c0-.52.64-.81,1.12-.81l.09-2.93s-.29-4.74-.16-6a1.4,1.4,0,0,1-.57-1.13c0-.8,1.88-.36,3.39-.8a4.4,4.4,0,0,0,2.94-2c.41-.88.49-1.29.94-1.37l.1-1.09s0-.49.41-.62,1.94-.34,1.94-.34,2.36-7.57,7.57-7.48,9,0,9,0V249.7Z"/><path class="cls-4" d="M252.43,249.7v-2.89a31.57,31.57,0,0,0,1.45-3.64,1.61,1.61,0,0,0-.15-1s.8-.32.86-1a2.29,2.29,0,0,0-.3-1.56s2.75-2.34,2.75-3.53c0-.52-.64-.81-1.12-.81l-.09-2.93s.29-4.74.16-6a1.4,1.4,0,0,0,.57-1.13c0-.8-1.88-.36-3.39-.8a4.4,4.4,0,0,1-2.94-2c-.41-.88-.49-1.29-.94-1.37l-.1-1.09s0-.49-.41-.62-1.94-.34-1.94-.34-2.36-7.57-7.57-7.48-9,0-9,0V249.7Z"/><path class="cls-8" d="M209.49,249.7v-2.83a31.83,31.83,0,0,1-1.36-3.57,1.64,1.64,0,0,1,.14-1s-.75-.31-.81-.95a2.33,2.33,0,0,1,.28-1.53s-2.57-2.29-2.57-3.46c0-.51.6-.8,1-.8l.09-2.87s-.27-4.65-.15-5.83a1.39,1.39,0,0,1-.54-1.1c0-.79,1.76-.35,3.17-.79a4.12,4.12,0,0,0,2.75-2c.38-.87.46-1.26.88-1.34l.09-1.07s0-.48.39-.61a18.21,18.21,0,0,1,1.81-.34s2.21-7.42,7.08-7.33,8.44,0,8.44,0v37.4Z"/><path class="cls-8" d="M251,249.7v-2.83a31.83,31.83,0,0,0,1.36-3.57,1.64,1.64,0,0,0-.14-1s.75-.31.81-.95a2.33,2.33,0,0,0-.28-1.53s2.57-2.29,2.57-3.46c0-.51-.6-.8-1-.8l-.09-2.87s.27-4.65.15-5.83a1.39,1.39,0,0,0,.54-1.1c0-.79-1.76-.35-3.17-.79a4.12,4.12,0,0,1-2.75-2c-.38-.87-.46-1.26-.88-1.34l-.09-1.07s0-.48-.39-.61a18.21,18.21,0,0,0-1.81-.34s-2.21-7.42-7.08-7.33-8.44,0-8.44,0v37.4Z"/><path class="cls-7" d="M207.53,294.31h-21.1v-5.82s.64-4.86,2.48-5.25,2.27.14,3,0,.46-1.1.71-1.49a1.24,1.24,0,0,1,1.38-.53s.64-3.12,1.45-3,1,.23,1.14.14.17-.74.83-.76,4.73-6.38,10.12-6.38Z"/><path class="cls-4" d="M207.53,294.31h-16v-4.4s.48-3.67,1.88-4,1.72.11,2.25,0,.35-.83.54-1.13a.94.94,0,0,1,1-.4s.48-2.36,1.1-2.25.78.17.86.1.13-.56.63-.57,3.58-4.83,7.65-4.83Z"/><polygon class="cls-8" points="208.45 294.27 185.84 294.31 190.4 299.87 190.37 323.75 208.45 323.75 208.45 294.27"/><rect class="cls-4" x="190.38" y="299.86" width="3.77" height="22.6" transform="translate(384.54 622.33) rotate(-180)"/><polygon class="cls-4" points="195.28 298.5 194.15 299.87 190.66 299.87 189.53 298.5 189.53 296.63 195.28 296.63 195.28 298.5"/><rect class="cls-16" x="190.39" y="320.89" width="17.91" height="3.15" transform="translate(398.7 644.94) rotate(-180)"/><rect class="cls-1" x="194.83" y="299.24" width="10.87" height="21.65" transform="translate(400.53 620.13) rotate(-180)"/><rect class="cls-8" x="189.66" y="305.36" width="21.21" height="9.86" transform="translate(510.55 110.02) rotate(90)"/><rect class="cls-17" x="197.09" y="301.41" width="6.34" height="19.48" transform="translate(400.53 622.3) rotate(-180)"/><rect class="cls-8" x="190.39" y="299.86" width="3.5" height="20.74" transform="translate(384.29 620.46) rotate(-180)"/><polygon class="cls-8" points="195.01 298.5 193.89 299.87 190.4 299.87 189.27 298.5 189.27 296.63 195.01 296.63 195.01 298.5"/><polygon class="cls-4" points="207.53 296.85 207.53 296.63 187.74 296.63 187.92 296.85 207.53 296.85"/><polygon class="cls-4" points="207.53 295.93 207.53 295.71 186.99 295.71 187.17 295.93 207.53 295.93"/><polygon class="cls-4" points="207.53 295.09 207.53 294.87 186.3 294.87 186.48 295.09 207.53 295.09"/><path class="cls-7" d="M253.2,294.31h21.1v-5.82s-.64-4.86-2.48-5.25-2.27.14-3,0-.46-1.1-.71-1.49a1.24,1.24,0,0,0-1.38-.53s-.64-3.12-1.45-3-1,.23-1.14.14-.17-.74-.83-.76-4.73-6.38-10.12-6.38Z"/><path class="cls-4" d="M253.2,294.31h16v-4.4s-.48-3.67-1.88-4-1.72.11-2.25,0-.35-.83-.54-1.13a.94.94,0,0,0-1-.4s-.48-2.36-1.1-2.25-.78.17-.86.1-.13-.56-.63-.57-3.58-4.83-7.65-4.83Z"/><rect class="cls-7" x="212.68" y="320.11" width="35.78" height="2.35"/><path class="cls-4" d="M255.71,248.46s-2.52-1-3.66,0c0,0-1.12,1.31-2.16.16s-1.49-1.49-1.61-1.89-.44-2.74-.82-2.87-1.42,0-1.49-.37.06-1.56-.09-1.59l-5.09-1.35.06-.54s.19-.64-.19-.81a9.77,9.77,0,0,1-2.78-2.47c-.35-.51-2.23-1.76-7.64-1.76s-7.29,1.25-7.64,1.76a9.77,9.77,0,0,1-2.78,2.47c-.38.17-.19.81-.19.81l.06.54-5.09,1.35c-.16,0,0,1.22-.09,1.59s-1.11.24-1.49.37-.7,2.47-.82,2.87-.57.74-1.61,1.89-2.16-.16-2.16-.16c-1.15-1-3.66,0-3.66,0-.88.41-.76,2.87-.76,2.87l1.52,19.9H255l1.52-19.9S256.59,248.87,255.71,248.46Z"/><path class="cls-8" d="M254.87,249.47s-2.43-.95-3.54,0c0,0-1.08,1.25-2.09.15s-1.44-1.42-1.56-1.81-.43-2.62-.79-2.75-1.38,0-1.44-.36.06-1.49-.09-1.52l-4.92-1.29.06-.52s.18-.61-.18-.78a9.42,9.42,0,0,1-2.69-2.36c-.34-.48-2.15-1.68-7.39-1.68s-7.05,1.2-7.39,1.68a9.42,9.42,0,0,1-2.69,2.36c-.37.16-.18.78-.18.78l.06.52-4.92,1.29c-.15,0,0,1.16-.09,1.52s-1.07.23-1.44.36-.67,2.36-.79,2.75-.55.71-1.56,1.81-2.09-.15-2.09-.15c-1.11-.95-3.54,0-3.54,0-.85.39-.73,2.74-.73,2.74l1.47,19h47.8l1.47-19S255.72,249.87,254.87,249.47Z"/><polygon class="cls-7" points="228.88 368.56 167.78 368.56 167.78 365.94 174.44 363.55 174.44 349 167.78 340.93 167.78 336.14 228.88 336.14 293.79 336.14 293.79 340.93 287.14 349 287.14 363.55 293.79 365.94 293.79 368.56 228.88 368.56"/><rect class="cls-4" x="202.69" y="322.07" width="54.17" height="13.8"/><polygon class="cls-1" points="229.47 256.38 230.97 256.38 251.93 275.91 248.45 324.04 211.97 324.04 208.88 275.91 229.47 256.38"/><rect class="cls-16" x="207.53" y="281.42" width="5.69" height="36.8"/><polygon class="cls-8" points="205.7 321.48 207.53 318.21 213.22 318.21 215.05 321.48 215.05 325.92 205.7 325.92 205.7 321.48"/><polygon class="cls-8" points="205.7 279.19 207.53 281.42 213.22 281.42 215.05 279.19 215.05 276.15 205.7 276.15 205.7 279.19"/><polygon class="cls-8" points="252.28 294.27 274.89 294.31 270.34 299.87 270.36 323.75 252.28 323.75 252.28 294.27"/><rect class="cls-4" x="266.58" y="299.86" width="3.77" height="22.6"/><polygon class="cls-4" points="265.46 298.5 266.58 299.87 270.08 299.87 271.2 298.5 271.2 296.63 265.46 296.63 265.46 298.5"/><rect class="cls-16" x="252.42" y="320.89" width="17.91" height="3.15"/><rect class="cls-2" x="186.48" y="323.75" width="16.21" height="12.12"/><rect class="cls-2" x="256.86" y="323.75" width="16.26" height="12.12"/><polygon class="cls-4" points="229.38 368.56 184.19 368.56 184.19 365.56 189.11 362.84 189.11 346.23 184.19 337.01 184.19 331.55 229.38 331.55 277.38 331.55 277.38 337.01 272.46 346.23 272.46 362.84 277.38 365.56 277.38 368.56 229.38 368.56"/><rect class="cls-1" x="255.03" y="299.24" width="10.87" height="21.65"/><rect class="cls-8" x="249.86" y="305.36" width="21.21" height="9.86" transform="translate(570.75 49.82) rotate(90)"/><rect class="cls-17" x="257.29" y="301.41" width="6.34" height="19.48"/><rect class="cls-8" x="266.84" y="299.86" width="3.5" height="20.74"/><polygon class="cls-8" points="265.72 298.5 266.84 299.87 270.34 299.87 271.46 298.5 271.46 296.63 265.72 296.63 265.72 298.5"/><rect class="cls-16" x="247.51" y="281.42" width="5.69" height="36.8"/><polygon class="cls-8" points="245.68 321.48 247.51 318.21 253.2 318.21 255.03 321.48 255.03 325.92 245.68 325.92 245.68 321.48"/><polygon class="cls-8" points="245.68 279.19 247.51 281.42 253.2 281.42 255.03 279.19 255.03 276.15 245.68 276.15 245.68 279.19"/><polygon class="cls-4" points="253.2 296.85 253.2 296.63 272.99 296.63 272.81 296.85 253.2 296.85"/><polygon class="cls-4" points="253.2 295.93 253.2 295.71 273.74 295.71 273.56 295.93 253.2 295.93"/><polygon class="cls-4" points="253.2 295.09 253.2 294.87 274.43 294.87 274.25 295.09 253.2 295.09"/><rect class="cls-1" x="216.05" y="282.77" width="28.55" height="37.34"/><rect class="cls-17" x="219.06" y="285.9" width="23.01" height="34.21"/><path class="cls-4" d="M253.3,270.68s-6.64-11.61-10.39-16.24-12.5-3.69-12.5-3.69-8.75-.94-12.5,3.69-10.39,16.24-10.39,16.24-2.51,0-2.41,1.76a23,23,0,0,0,.61,3.71h9.35s2.25-2.67,1.83-4.54c0-.62,2.06-2.94,4.49-4.5s5.6-2.74,6.29-3.68a17.35,17.35,0,0,0,2.73-7.06,17.39,17.39,0,0,0,2.73,7.06c.69.94,3.86,2.13,6.29,3.68s4.49,3.87,4.49,4.49c-.42,1.87,1.77,4.54,1.77,4.54H255a19.88,19.88,0,0,0,.67-3.71C255.81,270.67,253.3,270.68,253.3,270.68Z"/><rect class="cls-7" x="173.61" y="303.83" width="3.81" height="19.78"/><polygon class="cls-7" points="172.44 325.46 173.61 323.61 177.42 323.61 178.59 325.46 178.59 328 172.44 328 172.44 325.46"/><polygon class="cls-7" points="172.39 302.06 173.61 303.83 177.42 303.83 178.59 302.06 178.59 299.65 172.39 299.65 172.39 302.06"/><rect class="cls-7" x="140.5" y="303.83" width="3.81" height="19.78"/><polygon class="cls-7" points="139.33 325.46 140.5 323.61 144.31 323.61 145.48 325.46 145.48 328 139.33 328 139.33 325.46"/><polygon class="cls-7" points="139.28 302.06 140.5 303.83 144.31 303.83 145.48 302.06 145.48 299.65 139.28 299.65 139.28 302.06"/><rect class="cls-7" x="111.59" y="305.72" width="3.81" height="19.78"/><polygon class="cls-7" points="110.42 327.36 111.58 325.5 115.4 325.5 116.57 327.36 116.57 329.89 110.42 329.89 110.42 327.36"/><polygon class="cls-7" points="110.37 303.96 111.58 305.72 115.4 305.72 116.57 303.96 116.57 301.55 110.37 301.55 110.37 303.96"/><rect class="cls-7" x="77.45" y="305.72" width="3.81" height="19.78"/><polygon class="cls-7" points="76.28 327.36 77.45 325.5 81.27 325.5 82.44 327.36 82.44 329.89 76.28 329.89 76.28 327.36"/><polygon class="cls-7" points="76.24 303.96 77.45 305.72 81.27 305.72 82.44 303.96 82.44 301.55 76.24 301.55 76.24 303.96"/><rect class="cls-7" x="52.43" y="308.14" width="3.81" height="18.43"/><polygon class="cls-7" points="51.26 328.3 52.43 326.57 56.24 326.57 57.41 328.3 57.41 330.66 51.26 330.66 51.26 328.3"/><polygon class="cls-7" points="51.21 306.49 52.43 308.14 56.24 308.14 57.41 306.49 57.41 304.25 51.21 304.25 51.21 306.49"/><rect class="cls-7" x="33.21" y="308.14" width="3.81" height="18.43"/><polygon class="cls-7" points="32.05 328.3 33.21 326.57 37.03 326.57 38.2 328.3 38.2 330.66 32.05 330.66 32.05 328.3"/><polygon class="cls-7" points="32 306.49 33.21 308.14 37.03 308.14 38.2 306.49 38.2 304.25 32 304.25 32 306.49"/><rect class="cls-7" x="121.41" y="237.02" width="21.73" height="11.18"/><rect class="cls-4" x="121.91" y="237.76" width="8.57" height="9.93"/><rect class="cls-4" x="133.21" y="237.76" width="8.57" height="9.93"/><polygon class="cls-1" points="142.13 197.29 141.1 243.23 146.97 243.23 146.97 215.39 142.13 197.29"/><path class="cls-4" d="M241.84,196.55l-1.29-.67s1.16-1.73,0-2.44-7.55-3.7-7.55-3.7a4.27,4.27,0,0,0-5.53,0s-6.39,3-7.55,3.7,0,2.44,0,2.44l-1.29.67c-1.29.67-1,2.66-1,2.66l4.08,13.26h17.13l4.09-13.26S243.13,197.22,241.84,196.55Z"/></svg>