<svg id="Layer_1" data-name="Layer 1" xmlns="http://www.w3.org/2000/svg" viewBox="0 0 460 460"><defs><style>.cls-1{fill:#5a6f5f;}.cls-2{fill:#f3d632;}.cls-3{fill:#84e895;}.cls-4{fill:#f7e270;}.cls-5{fill:#e38620;}.cls-6{fill:#b0f0bb;}.cls-7{fill:#415947;}.cls-8{fill:#fff;}</style></defs><title>siemreap</title><rect class="cls-1" x="202.2" y="191.24" width="57.84" height="60.99"/><rect class="cls-2" x="207.66" y="213.62" width="44.33" height="38.6"/><polygon class="cls-2" points="207.66 213.62 207.66 211.56 207.66 209.86 211.25 209.86 211.25 202.88 215.06 202.88 215.06 195.67 218.07 195.67 218.07 194.29 217.33 194.29 217.33 186.51 221.06 186.51 221.06 183.59 220.25 183.59 220.25 176.78 222.19 176.78 223.9 170.78 222.36 170.78 222.36 165.59 223.9 165.59 226.37 156.11 224.63 156.11 224.63 152.05 226.37 152.05 226.37 144.5 225.74 143.87 228.59 129.65 228.59 119.15 229.66 102.7 229.82 102.7 229.82 213.62 207.66 213.62"/><polygon class="cls-2" points="251.98 213.62 251.98 211.56 251.98 209.86 248.39 209.86 248.39 202.88 244.58 202.88 244.58 195.67 241.57 195.67 241.57 194.29 242.31 194.29 242.31 186.51 238.58 186.51 238.58 183.59 239.39 183.59 239.39 176.78 237.44 176.78 235.74 170.78 237.28 170.78 237.28 165.59 235.74 165.59 233.27 156.11 235.01 156.11 235.01 152.05 233.27 152.05 233.27 144.5 233.9 143.87 231.05 129.65 231.05 119.15 229.98 102.7 229.82 102.7 229.82 213.62 251.98 213.62"/><rect class="cls-3" x="177.26" y="304.7" width="102.17" height="1.24"/><rect class="cls-4" x="106.23" y="207.73" width="24.86" height="33.15"/><rect class="cls-3" x="104.21" y="213.98" width="28.92" height="20.66" transform="translate(342.97 105.64) rotate(90)"/><rect class="cls-4" x="131.1" y="204.51" width="48.34" height="32.23"/><rect class="cls-3" x="140.81" y="198.94" width="28.92" height="43.38" transform="translate(-65.35 375.89) rotate(-90)"/><rect class="cls-4" x="179.44" y="200.6" width="29.01" height="30.16"/><rect class="cls-3" x="180.52" y="203.28" width="26.85" height="24.79" transform="translate(-21.73 409.62) rotate(-90)"/><rect class="cls-2" x="131.1" y="236.74" width="49.51" height="4.14"/><polygon class="cls-4" points="179.48 239.74 206.33 239.74 205.71 247.49 178.48 247.49 179.48 239.74"/><rect class="cls-2" x="177.37" y="247.28" width="29.01" height="3.93"/><rect class="cls-2" x="126.77" y="250.26" width="52.4" height="3.93"/><polygon class="cls-4" points="177.22 250.07 206.33 250.07 205.66 262.99 176.14 262.99 177.22 250.07"/><polygon class="cls-3" points="180.76 245.94 181.35 239.74 204.13 239.74 203.77 245.94 180.76 245.94"/><rect class="cls-2" x="106.23" y="240.88" width="24.86" height="3.33"/><rect class="cls-2" x="78.61" y="254.19" width="48.36" height="2.42"/><polygon class="cls-4" points="129.2 240.88 179.17 240.88 178.18 251.21 127.34 251.21 129.2 240.88"/><polygon class="cls-4" points="125.91 253.29 178.37 253.29 177.33 265.22 123.95 265.22 125.91 253.29"/><polygon class="cls-3" points="126.36 262.46 127.63 256.27 176.14 256.27 175.46 262.46 126.36 262.46"/><polygon class="cls-3" points="129.81 249.14 130.93 242.95 176.89 242.95 176.3 249.14 129.81 249.14"/><polygon class="cls-4" points="102.57 243.87 128.66 243.87 126.77 254.38 76.52 254.38 102.57 243.87"/><polygon class="cls-4" points="78.61 256.27 125.42 256.27 123.3 269.76 45 269.76 78.61 256.27"/><polygon class="cls-3" points="53.38 268.18 79.01 257.85 123 257.85 121.53 268.18 53.38 268.18"/><polygon class="cls-3" points="85.73 252.22 102.97 246.03 126.19 246.03 125.04 252.22 85.73 252.22"/><rect class="cls-2" x="179.44" y="230.75" width="29.01" height="6.92"/><polygon class="cls-3" points="178.35 260.4 179.06 252.13 204.2 252.13 203.75 260.4 178.35 260.4"/><polygon class="cls-5" points="45 269.76 65.74 280.17 181.54 280.17 208.45 273.74 208.45 262.46 177.57 262.46 177.33 265.22 123.95 265.22 123.3 269.76 45 269.76"/><rect class="cls-4" x="60.83" y="273.16" width="4.13" height="42.9"/><polygon class="cls-4" points="67.03 318.64 58.77 318.64 60.83 314.51 64.96 314.51 67.03 318.64"/><polygon class="cls-4" points="67.03 269.76 58.77 269.76 60.83 273.89 64.96 273.89 67.03 269.76"/><rect class="cls-3" x="63.69" y="310.4" width="63.04" height="1.24"/><rect class="cls-3" x="128.63" y="307.07" width="48.63" height="1.24"/><rect class="cls-4" x="77.35" y="273.53" width="4.13" height="42.53"/><polygon class="cls-4" points="83.55 318.64 75.29 318.64 77.35 314.51 81.48 314.51 83.55 318.64"/><polygon class="cls-4" points="83.55 269.76 75.29 269.76 77.35 273.89 81.48 273.89 83.55 269.76"/><rect class="cls-4" x="100.08" y="273.67" width="4.13" height="42.38"/><polygon class="cls-4" points="106.27 318.64 98.01 318.64 100.08 314.51 104.21 314.51 106.27 318.64"/><polygon class="cls-4" points="106.27 269.76 98.01 269.76 100.07 273.89 104.2 273.89 106.27 269.76"/><rect class="cls-4" x="125.39" y="273.77" width="4.13" height="37.1"/><polygon class="cls-4" points="131.59 314.63 123.33 314.63 125.39 310.49 129.52 310.49 131.59 314.63"/><polygon class="cls-4" points="131.59 269.76 123.33 269.76 125.39 273.89 129.52 273.89 131.59 269.76"/><rect class="cls-4" x="177.03" y="272.74" width="4.13" height="36.12"/><polygon class="cls-4" points="183.23 310.49 174.97 310.49 177.03 306.36 181.16 306.36 183.23 310.49"/><polygon class="cls-4" points="183.23 269.77 174.97 269.77 177.03 273.9 181.16 273.9 183.23 269.77"/><rect class="cls-4" x="151.48" y="271.98" width="4.13" height="38.89"/><polygon class="cls-4" points="157.67 314.63 149.41 314.63 151.47 310.49 155.6 310.49 157.67 314.63"/><polygon class="cls-4" points="157.68 269.77 149.41 269.77 151.48 273.9 155.61 273.9 157.68 269.77"/><rect class="cls-4" x="328.9" y="207.73" width="24.86" height="33.15" transform="translate(682.67 448.61) rotate(-180)"/><rect class="cls-3" x="326.88" y="213.98" width="28.92" height="20.66" transform="translate(565.64 -117.03) rotate(90)"/><rect class="cls-4" x="280.56" y="204.51" width="48.34" height="32.23" transform="translate(609.46 441.25) rotate(-180)"/><rect class="cls-3" x="290.27" y="198.94" width="28.92" height="43.38" transform="translate(84.11 525.35) rotate(-90)"/><rect class="cls-4" x="251.55" y="200.6" width="29.01" height="30.16" transform="translate(532.11 431.35) rotate(-180)"/><rect class="cls-3" x="252.63" y="203.28" width="26.85" height="24.79" transform="translate(50.38 481.73) rotate(-90)"/><rect class="cls-2" x="279.39" y="236.74" width="49.51" height="4.14" transform="translate(608.29 477.62) rotate(-180)"/><polygon class="cls-4" points="280.52 239.74 253.67 239.74 254.29 247.49 281.52 247.49 280.52 239.74"/><rect class="cls-2" x="253.62" y="247.28" width="29.01" height="3.93" transform="translate(536.24 498.49) rotate(-180)"/><rect class="cls-2" x="280.83" y="250.26" width="52.4" height="3.93" transform="translate(614.07 504.44) rotate(-180)"/><polygon class="cls-4" points="282.78 250.07 253.67 250.07 254.34 262.99 283.86 262.99 282.78 250.07"/><polygon class="cls-3" points="279.24 245.94 278.65 239.74 255.87 239.74 256.23 245.94 279.24 245.94"/><rect class="cls-2" x="328.9" y="240.88" width="24.86" height="3.33" transform="translate(682.67 485.1) rotate(-180)"/><rect class="cls-2" x="333.03" y="254.19" width="48.36" height="2.42" transform="translate(714.42 510.8) rotate(-180)"/><polygon class="cls-4" points="330.8 240.88 280.83 240.88 281.82 251.21 332.66 251.21 330.8 240.88"/><polygon class="cls-4" points="334.09 253.29 281.63 253.29 282.67 265.22 336.05 265.22 334.09 253.29"/><polygon class="cls-3" points="333.64 262.46 332.37 256.27 283.86 256.27 284.54 262.46 333.64 262.46"/><polygon class="cls-3" points="330.19 249.14 329.07 242.95 283.11 242.95 283.7 249.14 330.19 249.14"/><polygon class="cls-4" points="357.43 243.87 331.34 243.87 333.23 254.38 383.49 254.38 357.43 243.87"/><polygon class="cls-4" points="381.39 256.27 334.58 256.27 336.7 269.76 415 269.76 381.39 256.27"/><polygon class="cls-3" points="406.63 268.18 380.99 257.85 337 257.85 338.47 268.18 406.63 268.18"/><polygon class="cls-3" points="374.27 252.22 357.03 246.03 333.81 246.03 334.96 252.22 374.27 252.22"/><rect class="cls-2" x="251.55" y="230.75" width="29.01" height="6.92" transform="translate(532.11 468.43) rotate(-180)"/><polygon class="cls-3" points="281.65 260.4 280.94 252.13 255.8 252.13 256.25 260.4 281.65 260.4"/><polygon class="cls-5" points="415 269.76 394.26 280.17 278.46 280.17 251.55 273.74 251.55 262.46 282.43 262.46 282.67 265.22 336.05 265.22 336.7 269.76 415 269.76"/><rect class="cls-4" x="395.04" y="273.16" width="4.13" height="42.9" transform="translate(794.21 589.22) rotate(-180)"/><polygon class="cls-4" points="392.97 318.64 401.23 318.64 399.17 314.51 395.04 314.51 392.97 318.64"/><polygon class="cls-4" points="392.97 269.76 401.23 269.76 399.17 273.89 395.04 273.89 392.97 269.76"/><rect class="cls-3" x="333.28" y="310.4" width="63.04" height="1.24" transform="translate(729.59 622.05) rotate(-180)"/><rect class="cls-3" x="282.74" y="307.07" width="48.63" height="1.24" transform="translate(614.11 615.38) rotate(-180)"/><rect class="cls-4" x="378.51" y="273.53" width="4.13" height="42.53" transform="translate(761.16 589.58) rotate(-180)"/><polygon class="cls-4" points="376.45 318.64 384.71 318.64 382.65 314.51 378.51 314.51 376.45 318.64"/><polygon class="cls-4" points="376.45 269.76 384.71 269.76 382.65 273.89 378.52 273.89 376.45 269.76"/><rect class="cls-4" x="355.79" y="273.67" width="4.13" height="42.38" transform="translate(715.72 589.73) rotate(-180)"/><polygon class="cls-4" points="353.73 318.64 361.99 318.64 359.93 314.51 355.79 314.51 353.73 318.64"/><polygon class="cls-4" points="353.73 269.76 361.99 269.76 359.93 273.89 355.8 273.89 353.73 269.76"/><rect class="cls-4" x="330.48" y="273.77" width="4.13" height="37.1" transform="translate(665.08 584.63) rotate(-180)"/><polygon class="cls-4" points="328.41 314.63 336.67 314.63 334.61 310.49 330.48 310.49 328.41 314.63"/><polygon class="cls-4" points="328.41 269.76 336.67 269.76 334.61 273.89 330.48 273.89 328.41 269.76"/><rect class="cls-4" x="278.84" y="272.74" width="4.13" height="36.12" transform="translate(561.81 581.6) rotate(-180)"/><polygon class="cls-4" points="276.77 310.49 285.04 310.49 282.97 306.36 278.84 306.36 276.77 310.49"/><polygon class="cls-4" points="276.77 269.77 285.03 269.77 282.97 273.9 278.84 273.9 276.77 269.77"/><rect class="cls-4" x="304.39" y="271.98" width="4.13" height="38.89" transform="translate(612.92 582.84) rotate(-180)"/><polygon class="cls-4" points="302.33 314.63 310.59 314.63 308.53 310.49 304.39 310.49 302.33 314.63"/><polygon class="cls-4" points="302.32 269.77 310.59 269.77 308.52 273.9 304.39 273.9 302.32 269.77"/><rect class="cls-4" x="55.54" y="318.64" width="351.14" height="38.66"/><rect class="cls-4" x="119.84" y="314.62" width="218.95" height="38.24"/><rect class="cls-4" x="171.54" y="310.49" width="119.16" height="38.24"/><rect class="cls-6" x="210.68" y="329.37" width="40.88" height="27.93"/><rect class="cls-1" x="203.17" y="329.09" width="7.51" height="28.21"/><rect class="cls-1" x="251.55" y="329.09" width="7.51" height="28.21"/><rect class="cls-7" x="172.27" y="324.32" width="117.69" height="5.04"/><rect class="cls-3" x="172.27" y="314.87" width="117.69" height="7.15"/><rect class="cls-7" x="229.05" y="262.97" width="4.13" height="111.54" transform="translate(549.85 87.62) rotate(90)"/><polygon class="cls-6" points="289.96 324.32 172.27 324.32 170.8 322.01 291.43 322.01 289.96 324.32"/><rect class="cls-3" x="190.33" y="314.87" width="3.07" height="7.15"/><rect class="cls-3" x="216.54" y="314.87" width="3.07" height="7.15"/><rect class="cls-3" x="241.85" y="314.86" width="3.07" height="7.15"/><rect class="cls-3" x="268.17" y="314.86" width="3.07" height="7.15"/><rect class="cls-2" x="189.57" y="332.06" width="4.6" height="24.96"/><polygon class="cls-2" points="194.16 332.81 189.57 332.81 187.5 329.37 196.24 329.37 194.16 332.81"/><rect class="cls-2" x="267.68" y="332.06" width="4.6" height="24.96"/><polygon class="cls-2" points="272.28 332.81 267.68 332.81 265.61 329.37 274.35 329.37 272.28 332.81"/><rect class="cls-3" x="203.17" y="251.12" width="54.56" height="50.61"/><polygon class="cls-3" points="257.72 251.12 203.17 251.12 199.25 246.69 261.65 246.69 257.72 251.12"/><rect class="cls-4" x="210.15" y="248.91" width="40.16" height="50.61"/><rect class="cls-2" x="210.82" y="260.4" width="39.25" height="26.85" transform="translate(504.27 43.38) rotate(90)"/><rect class="cls-4" x="205.74" y="228.08" width="48.97" height="18.58"/><polygon class="cls-1" points="256.07 228.08 204.38 228.08 229.25 188.07 231.95 188.07 256.07 228.08"/><polygon class="cls-4" points="208.6 228.08 230.62 193.05 252.03 228.08 208.6 228.08"/><rect class="cls-1" x="229.4" y="176.98" width="2.4" height="12.44"/><circle class="cls-2" cx="231.11" cy="214.08" r="8.8"/><path class="cls-2" d="M200.22,264.85a4.18,4.18,0,0,0,1.21,2.55,4,4,0,0,1,1.31,3.05c0,.88-.29,1.06,0,1.48s1,.22,1,0-.13-3.35-.13-3.35,2.55,2.77.92,4.62-3.69-.67-3.69-.67-1.13-1.38-1.17-1,1.13.75.84,3c0,.84,1.8,1.46,1.86,2.22a9.06,9.06,0,0,1,0,1.42s.31.67,1.69-1.21,1.8-2.39,2.34-1.93,1.3,1.63.59,2.09a2.06,2.06,0,0,1-1.3.38l-.46,1s2-1,2,0,0,1.88,0,1.88.17.88-5.69,4.27c-4.73,2.51.75,2.72,1.38,2.09s1.34-3.22,2.55-3,1.88.88,1.42,2.05-1.76.54-1.76.54-1.55,3.47-5,3.47-3.1-.71-3.1-1.26,1-1.8.54-2.22-3.18.33-3.18.33,1.51,3-.63,4.35-4,2-4,3.52,0,2,0,2h2v4.13h-5v-4.13h.53v-.91a3.49,3.49,0,0,1-.85-2.62,4.7,4.7,0,0,1,1.37-3s1.92-.33,1.67-1.09-2.48-1-2.48-3.17S189,282,189.56,282l2.58,0s3.79-.64,2.62-3.3a13.19,13.19,0,0,1-1.25-3.87l.08-2.62s.42-2.54,1.93-3.3a15.57,15.57,0,0,1,3.11-1.29c1.14-.34,1.52,0,1.52,0Z"/><path class="cls-2" d="M188.76,271.66l.53,2.05a3.73,3.73,0,0,0,.57,1.23c.3.43.75,1,1.27,1.71.91,1.16.94,2,0,2.2a8.79,8.79,0,0,0-4,1.63,5.23,5.23,0,0,0-2,3,1.79,1.79,0,0,0,1.45,2.2l1,.15v-1.14s-2-.11-1.55-1.21a3.27,3.27,0,0,1,1.93-2.35,9.07,9.07,0,0,1,3.34-1.18,3,3,0,0,0,1.81-1.25,1.63,1.63,0,0,0,0-1.56c-.45-.87-1.78-1.48-2.35-2.69a7.89,7.89,0,0,1-1.14-2.58C189.2,270.22,188.76,271.66,188.76,271.66Z"/><path class="cls-2" d="M260.32,264.85a4.18,4.18,0,0,1-1.21,2.55,4,4,0,0,0-1.31,3.05c0,.88.29,1.06,0,1.48s-1,.22-1,0,.13-3.35.13-3.35-2.55,2.77-.92,4.62,3.69-.67,3.69-.67,1.13-1.38,1.17-1-1.13.75-.84,3c0,.84-1.8,1.46-1.86,2.22a9.06,9.06,0,0,0,0,1.42s-.31.67-1.69-1.21-1.8-2.39-2.34-1.93-1.3,1.63-.59,2.09a2.06,2.06,0,0,0,1.3.38l.46,1s-2-1-2,0,0,1.88,0,1.88-.17.88,5.69,4.27c4.73,2.51-.75,2.72-1.38,2.09s-1.34-3.22-2.55-3-1.88.88-1.42,2.05,1.76.54,1.76.54,1.55,3.47,5,3.47,3.1-.71,3.1-1.26-1-1.8-.54-2.22,3.18.33,3.18.33-1.51,3,.63,4.35,4,2,4,3.52,0,2,0,2h-2v4.13h5v-4.13h-.53v-.91a3.49,3.49,0,0,0,.85-2.62,4.7,4.7,0,0,0-1.37-3s-1.92-.33-1.67-1.09,2.48-1,2.48-3.17S271.56,282,271,282l-2.58,0s-3.79-.64-2.62-3.3a13.19,13.19,0,0,0,1.25-3.87l-.08-2.62s-.42-2.54-1.93-3.3a15.57,15.57,0,0,0-3.11-1.29c-1.14-.34-1.52,0-1.52,0Z"/><path class="cls-2" d="M271.79,271.66l-.53,2.05a3.73,3.73,0,0,1-.57,1.23c-.3.43-.75,1-1.27,1.71-.91,1.16-.94,2,0,2.2a8.79,8.79,0,0,1,4,1.63,5.23,5.23,0,0,1,2,3,1.79,1.79,0,0,1-1.45,2.2l-1,.15v-1.14s2-.11,1.55-1.21a3.27,3.27,0,0,0-1.93-2.35,9.07,9.07,0,0,0-3.34-1.18,3,3,0,0,1-1.81-1.25,1.63,1.63,0,0,1,0-1.56c.45-.87,1.78-1.48,2.35-2.69a7.89,7.89,0,0,0,1.14-2.58C271.34,270.22,271.79,271.66,271.79,271.66Z"/><rect class="cls-2" x="185.11" y="300.57" width="23.18" height="5.68"/><rect class="cls-2" x="252.66" y="300.57" width="23.18" height="5.68"/><rect class="cls-2" x="207.92" y="304.73" width="45.09" height="5.68"/><rect class="cls-2" x="205.88" y="237.24" width="1.04" height="64.36" rx="0.25" ry="0.25"/><polygon class="cls-2" points="206.4 289.7 206.4 289.7 212.26 299.35 200.16 299.35 206.4 289.7"/><rect class="cls-2" x="253.66" y="237.24" width="1.04" height="64.36" rx="0.25" ry="0.25"/><polygon class="cls-2" points="254.18 289.7 254.18 289.7 260.04 299.35 247.93 299.35 254.18 289.7"/><path class="cls-8" d="M76.44,328.63c-.83,1.37-4.19,7.64,0,13.41a.24.24,0,0,0,.37,0c4.17-5.76.82-12,0-13.41A.2.2,0,0,0,76.44,328.63Z"/><path class="cls-8" d="M98.82,328.63c-.83,1.37-4.19,7.64,0,13.41a.24.24,0,0,0,.37,0c4.17-5.76.82-12,0-13.41A.2.2,0,0,0,98.82,328.63Z"/><path class="cls-8" d="M123.61,328.63c-.83,1.37-4.19,7.64,0,13.41a.24.24,0,0,0,.37,0c4.17-5.76.82-12,0-13.41A.2.2,0,0,0,123.61,328.63Z"/><path class="cls-8" d="M148.17,328.64v10.12a.61.61,0,0,0,0,.24l1.34,3.13h.67V324.45h-1l-1,4A.63.63,0,0,0,148.17,328.64Z"/><path class="cls-8" d="M151.82,328.64v10.12a.61.61,0,0,1,0,.24l-1.34,3.13h-.67V324.45h1l1,4A.63.63,0,0,1,151.82,328.64Z"/><polygon class="cls-7" points="172.09 317.48 124.59 317.48 122.77 317.48 122.77 321.16 55.3 321.16 55.3 324.77 126.41 324.77 126.41 321.13 172.09 321.13 172.09 317.48"/><polygon class="cls-1" points="60.93 328.53 62.43 330.33 70.97 330.33 72.47 328.53 60.93 328.53"/><rect class="cls-1" x="64.69" y="326.52" width="4.03" height="4.03" transform="translate(251.84 49.06) rotate(45)"/><polygon class="cls-1" points="81.02 328.53 82.52 330.33 91.06 330.33 92.56 328.53 81.02 328.53"/><rect class="cls-1" x="84.77" y="326.52" width="4.03" height="4.03" transform="translate(257.73 34.86) rotate(45)"/><polygon class="cls-1" points="105.8 328.53 107.3 330.33 115.84 330.33 117.34 328.53 105.8 328.53"/><rect class="cls-1" x="109.56" y="326.52" width="4.03" height="4.03" transform="translate(264.99 17.33) rotate(45)"/><polygon class="cls-1" points="130.95 326.22 132.52 328.02 141.47 328.02 143.04 326.22 130.95 326.22"/><rect class="cls-1" x="134.95" y="324.21" width="4.03" height="4.03" transform="translate(270.79 -1.3) rotate(45)"/><rect class="cls-5" x="132.45" y="328.02" width="9.02" height="14.1"/><polygon class="cls-1" points="157.38 326.22 158.95 328.02 167.9 328.02 169.47 326.22 157.38 326.22"/><rect class="cls-1" x="161.37" y="324.21" width="4.03" height="4.03" transform="translate(278.53 -19.98) rotate(45)"/><rect class="cls-5" x="158.88" y="328.02" width="9.02" height="14.1"/><rect class="cls-5" x="62.43" y="330.33" width="8.54" height="11.79"/><rect class="cls-5" x="82.52" y="330.33" width="8.54" height="11.79"/><rect class="cls-5" x="107.3" y="330.33" width="8.54" height="11.79"/><path class="cls-8" d="M385.61,328.63c.83,1.37,4.19,7.64,0,13.41a.24.24,0,0,1-.37,0c-4.17-5.76-.82-12,0-13.41A.2.2,0,0,1,385.61,328.63Z"/><path class="cls-8" d="M363.23,328.63c.83,1.37,4.19,7.64,0,13.41a.24.24,0,0,1-.37,0c-4.17-5.76-.82-12,0-13.41A.2.2,0,0,1,363.23,328.63Z"/><path class="cls-8" d="M338.44,328.63c.83,1.37,4.19,7.64,0,13.41a.24.24,0,0,1-.37,0c-4.17-5.76-.82-12,0-13.41A.2.2,0,0,1,338.44,328.63Z"/><path class="cls-8" d="M313.88,328.64v10.12a.61.61,0,0,1,0,.24l-1.34,3.13h-.67V324.45h1l1,4A.63.63,0,0,1,313.88,328.64Z"/><path class="cls-8" d="M310.23,328.64v10.12a.61.61,0,0,0,0,.24l1.34,3.13h.67V324.45h-1l-1,4A.63.63,0,0,0,310.23,328.64Z"/><polygon class="cls-7" points="289.96 317.48 337.46 317.48 339.28 317.48 339.28 321.16 406.75 321.16 406.75 324.77 335.64 324.77 335.64 321.13 289.96 321.13 289.96 317.48"/><polygon class="cls-1" points="401.12 328.53 399.62 330.33 391.08 330.33 389.58 328.53 401.12 328.53"/><rect class="cls-1" x="393.34" y="326.52" width="4.03" height="4.03" transform="translate(907.21 281.29) rotate(135)"/><polygon class="cls-1" points="381.04 328.53 379.54 330.33 370.99 330.33 369.49 328.53 381.04 328.53"/><rect class="cls-1" x="373.25" y="326.52" width="4.03" height="4.03" transform="translate(872.92 295.49) rotate(135)"/><polygon class="cls-1" points="356.25 328.53 354.75 330.33 346.21 330.33 344.71 328.53 356.25 328.53"/><rect class="cls-1" x="348.46" y="326.52" width="4.03" height="4.03" transform="translate(830.61 313.02) rotate(135)"/><polygon class="cls-1" points="331.1 326.22 329.53 328.02 320.58 328.02 319.01 326.22 331.1 326.22"/><rect class="cls-1" x="323.07" y="324.21" width="4.03" height="4.03" transform="translate(785.63 327.03) rotate(135)"/><rect class="cls-5" x="320.58" y="328.02" width="9.02" height="14.1" transform="translate(650.18 670.15) rotate(-180)"/><polygon class="cls-1" points="304.68 326.22 303.1 328.02 294.16 328.02 292.58 326.22 304.68 326.22"/><rect class="cls-1" x="296.65" y="324.21" width="4.03" height="4.03" transform="translate(740.52 345.71) rotate(135)"/><rect class="cls-5" x="294.15" y="328.02" width="9.02" height="14.1" transform="translate(597.33 670.15) rotate(-180)"/><rect class="cls-5" x="391.08" y="330.33" width="8.54" height="11.79" transform="translate(790.7 672.46) rotate(-180)"/><rect class="cls-5" x="370.99" y="330.33" width="8.54" height="11.79" transform="translate(750.53 672.46) rotate(-180)"/><rect class="cls-5" x="346.21" y="330.33" width="8.54" height="11.79" transform="translate(700.96 672.46) rotate(-180)"/><path class="cls-7" d="M47.21,259.75c0-1.12-.47-1.28-.47-1.28h-.37c-.1,2.2-.93,2.2-.93,2.2v4.51a.65.65,0,0,1,.68.46v.56a2,2,0,0,1-.91,1.51v2.07h2.44v-2.14a2,2,0,0,0,.6-1.59c0-1.15-.65-1.41-.65-1.41v-1.25h-.87v-1.15A7,7,0,0,0,47.21,259.75Z"/><path class="cls-7" d="M78.51,244.36c0-1.12-.47-1.28-.47-1.28h-.37c-.1,2.2-.93,2.2-.93,2.2v4.51a.65.65,0,0,1,.68.46v.56a2,2,0,0,1-.91,1.51v2.07H79v-2.14a2,2,0,0,0,.6-1.59c0-1.15-.65-1.41-.65-1.41V248H78v-1.15A7,7,0,0,0,78.51,244.36Z"/><path class="cls-7" d="M112.87,207.73a11.51,11.51,0,0,1-5.25-3.4c-2.7-2.84-2.5-3.89-2.5-3.89v-1.61a2.6,2.6,0,0,0,1.07-2.11,3.61,3.61,0,0,0-1.07-2.53s.59,2.77-.9,4.21-.24,7.27,2,9.33Z"/><path class="cls-7" d="M186.07,200.6a11.51,11.51,0,0,1-5.25-3.4c-2.7-2.84-2.5-3.89-2.5-3.89v-1.61a2.6,2.6,0,0,0,1.07-2.11,3.61,3.61,0,0,0-1.07-2.53s.59,2.77-.9,4.21-.24,7.27,2,9.33Z"/><path class="cls-7" d="M208.83,191.24a11.51,11.51,0,0,1-5.25-3.4c-2.7-2.84-2.5-3.89-2.5-3.89v-1.61a2.6,2.6,0,0,0,1.07-2.11,3.61,3.61,0,0,0-1.07-2.53s.59,2.77-.9,4.21-.24,7.27,2,9.33Z"/><path class="cls-7" d="M137.74,204.51a11.51,11.51,0,0,1-5.25-3.4c-2.7-2.84-2.5-3.89-2.5-3.89v-1.61A2.6,2.6,0,0,0,131,193.5,3.61,3.61,0,0,0,130,191s.59,2.77-.9,4.21-.24,7.27,2,9.33Z"/><path class="cls-7" d="M413,259.76c0-1.12.47-1.28.47-1.28h.37c.1,2.2.93,2.2.93,2.2v4.51a.65.65,0,0,0-.68.46v.56a2,2,0,0,0,.91,1.51v2.07h-2.44v-2.14A2,2,0,0,1,412,266c0-1.15.65-1.41.65-1.41v-1.25h.87v-1.15A7,7,0,0,1,413,259.76Z"/><path class="cls-7" d="M381.46,244.36c0-1.12.47-1.28.47-1.28h.37c.1,2.2.93,2.2.93,2.2v4.51a.65.65,0,0,0-.68.46v.56a2,2,0,0,0,.91,1.51v2.07H381v-2.14a2,2,0,0,1-.6-1.59c0-1.15.65-1.41.65-1.41V248h.87v-1.15A7,7,0,0,1,381.46,244.36Z"/><path class="cls-7" d="M347.12,207.73a11.51,11.51,0,0,0,5.25-3.4c2.7-2.84,2.5-3.89,2.5-3.89v-1.61a2.6,2.6,0,0,1-1.07-2.11,3.61,3.61,0,0,1,1.07-2.53s-.59,2.77.9,4.21.24,7.27-2,9.33Z"/><path class="cls-7" d="M273.92,200.6a11.51,11.51,0,0,0,5.25-3.4c2.7-2.84,2.5-3.89,2.5-3.89v-1.61a2.6,2.6,0,0,1-1.07-2.11,3.61,3.61,0,0,1,1.07-2.53s-.59,2.77.9,4.21.24,7.27-2,9.33Z"/><path class="cls-7" d="M253.4,191.24a11.51,11.51,0,0,0,5.25-3.4c2.7-2.84,2.5-3.89,2.5-3.89v-1.61a2.6,2.6,0,0,1-1.07-2.11,3.61,3.61,0,0,1,1.07-2.53s-.59,2.77.9,4.21.24,7.27-2,9.33Z"/><path class="cls-7" d="M322.27,204.51a11.51,11.51,0,0,0,5.25-3.4c2.7-2.84,2.5-3.89,2.5-3.89v-1.61A2.6,2.6,0,0,1,329,193.5,3.61,3.61,0,0,1,330,191s-.59,2.77.9,4.21.24,7.27-2,9.33Z"/></svg>