<svg id="Layer_1" data-name="Layer 1" xmlns="http://www.w3.org/2000/svg" xmlns:xlink="http://www.w3.org/1999/xlink" viewBox="0 0 460 460"><defs><style>.cls-1{fill:#e38620;}.cls-2{fill:#f3d632;}.cls-3{fill:#e7963d;}.cls-4{fill:url(#linear-gradient);}.cls-5{fill:url(#linear-gradient-2);}.cls-6{fill:#415947;}.cls-7{fill:url(#linear-gradient-3);}.cls-8{fill:url(#linear-gradient-4);}.cls-9{fill:url(#linear-gradient-5);}</style><linearGradient id="linear-gradient" x1="208.6" y1="175.08" x2="243.85" y2="210.33" gradientUnits="userSpaceOnUse"><stop offset="0.47" stop-color="#84e895" stop-opacity="0"/><stop offset="0.52" stop-color="#95e586" stop-opacity="0.16"/><stop offset="0.59" stop-color="#aee170" stop-opacity="0.38"/><stop offset="0.66" stop-color="#c3de5d" stop-opacity="0.57"/><stop offset="0.73" stop-color="#d4db4d" stop-opacity="0.72"/><stop offset="0.8" stop-color="#e2d941" stop-opacity="0.84"/><stop offset="0.87" stop-color="#ebd739" stop-opacity="0.93"/><stop offset="0.94" stop-color="#f1d634" stop-opacity="0.98"/><stop offset="1" stop-color="#f3d632"/></linearGradient><linearGradient id="linear-gradient-2" x1="359.71" y1="289.64" x2="359.71" y2="278.43" gradientUnits="userSpaceOnUse"><stop offset="0.11" stop-color="#e38620" stop-opacity="0"/><stop offset="0.12" stop-color="#e38821" stop-opacity="0.03"/><stop offset="0.22" stop-color="#e79a25" stop-opacity="0.25"/><stop offset="0.32" stop-color="#eaaa28" stop-opacity="0.45"/><stop offset="0.43" stop-color="#edb82b" stop-opacity="0.62"/><stop offset="0.53" stop-color="#efc32e" stop-opacity="0.76"/><stop offset="0.64" stop-color="#f1cb30" stop-opacity="0.86"/><stop offset="0.75" stop-color="#f2d131" stop-opacity="0.94"/><stop offset="0.87" stop-color="#f3d532" stop-opacity="0.99"/><stop offset="1" stop-color="#f3d632"/></linearGradient><linearGradient id="linear-gradient-3" x1="-1569.24" y1="278.43" x2="-1569.24" y2="268.23" gradientTransform="matrix(-1, 0, 0, 1, -1412.21, 0)" xlink:href="#linear-gradient-2"/><linearGradient id="linear-gradient-4" x1="-1512.24" y1="288.63" x2="-1512.24" y2="278.43" gradientTransform="matrix(-1, 0, 0, 1, -1412.21, 0)" xlink:href="#linear-gradient-2"/><linearGradient id="linear-gradient-5" x1="302.45" y1="278.43" x2="302.45" y2="268.23" xlink:href="#linear-gradient-2"/></defs><title>siemreap</title><rect class="cls-1" x="185.41" y="144.47" width="74.85" height="73.55"/><rect class="cls-2" x="185.41" y="189.11" width="74.85" height="29.81"/><rect class="cls-3" x="199.8" y="150.92" width="53.71" height="58.6" rx="10.42" ry="10.42"/><path class="cls-3" d="M225.51,178.63l-.78-8.6H220.4l.32,8.31s-9.54,4.31-8.7,8.91c0,0,3.27,6,5.19,6.62,2.21.66,12.73-3.81,12.73-3.81Z"/><path class="cls-3" d="M232.87,181.83l.88-9.53,1.6-2.09,2.9,11.29s10.74,4.78,9.79,9.95c0,0-3.68,6.76-5.84,7.41-2.49.75-10.35-14.71-10.35-14.71Z"/><path class="cls-1" d="M249.78,183.88h-.62a5.25,5.25,0,0,1-.42,1.19,9.23,9.23,0,0,1-1.4,4.11,4.4,4.4,0,0,1-.92,1.51,1.76,1.76,0,0,1-1.49.6h0s-.08,0-.12,0l-.29-.07A1.38,1.38,0,0,1,244,191a5,5,0,0,1-.65-.44,3.64,3.64,0,0,0-1.28-.35,2.54,2.54,0,0,0-1.33.7l-.11.15a1.47,1.47,0,0,1-.74.47,1.51,1.51,0,0,1-1.79-.3,1.75,1.75,0,0,1-.26-.17,2,2,0,0,1-.18-2.48l0-.06a2.7,2.7,0,0,1,.15-.25,3.7,3.7,0,0,0,.69-2.5l-.09,0a24.09,24.09,0,0,0-3.75-1.35,5.87,5.87,0,0,1-2-.49h-4.32a1.51,1.51,0,0,1-.91.34,13.54,13.54,0,0,0-3.55.6c-.94.29-5.73,2.42-1.88,3.39,1.45.36,1.6,2.83,0,3.09s-2.43,1.23-4.24.74a13.3,13.3,0,0,1-4-2.23c-2.18-1.67-5.38-2.84-6.12-5.68a1.49,1.49,0,0,1,0-.24h-1.18a10.63,10.63,0,0,0,.31,4.26c.47,1.22,1.15,2.34,1.57,3.59.47,1.43-1.78,2-2.25.62s-1.39-2.75-1.79-4.23a14.57,14.57,0,0,1-.17-4.24h-4.3v1.8c0,13.12,8.05,24.41,21.17,24.41h13c11.75,0,19.57-8.45,19.57-19.87A13.69,13.69,0,0,1,249.78,183.88Z"/><path class="cls-4" d="M249.78,183.88h-.62a5.25,5.25,0,0,1-.42,1.19,9.23,9.23,0,0,1-1.4,4.11,4.4,4.4,0,0,1-.92,1.51,1.76,1.76,0,0,1-1.49.6h0s-.08,0-.12,0l-.29-.07A1.38,1.38,0,0,1,244,191a5,5,0,0,1-.65-.44,3.64,3.64,0,0,0-1.28-.35,2.54,2.54,0,0,0-1.33.7l-.11.15a1.47,1.47,0,0,1-.74.47,1.51,1.51,0,0,1-1.79-.3,1.75,1.75,0,0,1-.26-.17,2,2,0,0,1-.18-2.48l0-.06a2.7,2.7,0,0,1,.15-.25,3.7,3.7,0,0,0,.69-2.5l-.09,0a24.09,24.09,0,0,0-3.75-1.35,5.87,5.87,0,0,1-2-.49h-4.32a1.51,1.51,0,0,1-.91.34,13.54,13.54,0,0,0-3.55.6c-.94.29-5.73,2.42-1.88,3.39,1.45.36,1.6,2.83,0,3.09s-2.43,1.23-4.24.74a13.3,13.3,0,0,1-4-2.23c-2.18-1.67-5.38-2.84-6.12-5.68a1.49,1.49,0,0,1,0-.24h-1.18a10.63,10.63,0,0,0,.31,4.26c.47,1.22,1.15,2.34,1.57,3.59.47,1.43-1.78,2-2.25.62s-1.39-2.75-1.79-4.23a14.57,14.57,0,0,1-.17-4.24h-4.3v1.8c0,17.14,8.05,24.41,21.17,24.41l16.65-.24c11.75,0,15.89-9.33,15.89-19.63A13.69,13.69,0,0,1,249.78,183.88Z"/><path class="cls-2" d="M213.23,167.94s8.22-1,12.23,2.07c0,0-1.28,7.59-4.19,12.48l-2.54-2.28-.38,4.63-2.45-.47,1-1.41s-5.92-3-8.18-5.36c0,0,3,.28,3.57-.38a4.1,4.1,0,0,0-2.26-1.11l0-.58,6,0s0-2.3-1.36-2.3a6.71,6.71,0,0,0-4.48,1.6,6,6,0,0,1-1.73.62s3.08-2.59,4.07-2.8h2.75a9,9,0,0,1,3.29,1.73V172.5A12.25,12.25,0,0,0,213.23,167.94Z"/><path class="cls-2" d="M242.21,167.94s-8.25-1-12.26,2.05c0,0,1.31,7.61,4.23,12.5l2.54-2.28.38,4.63,2.45-.47-1-1.41s5.92-3,8.18-5.36c0,0-3,.28-3.57-.38a4.1,4.1,0,0,1,2.26-1.11l0-.58-6,0s0-2.3,1.36-2.3a6.71,6.71,0,0,1,4.48,1.6,6,6,0,0,0,1.73.62s-3.08-2.59-4.07-2.8h-2.75a9,9,0,0,0-3.29,1.73V172.5A12.25,12.25,0,0,1,242.21,167.94Z"/><ellipse class="cls-2" cx="227.72" cy="187.79" rx="9.89" ry="3.19"/><rect class="cls-1" x="216.17" y="194.13" width="23.11" height="3.53"/><path class="cls-1" d="M234.33,77.72s1.31-3.6.67-5.26a8.89,8.89,0,0,0-4.9-4.68v-6A9.54,9.54,0,0,0,225.65,59s-.45-4-3.51-4c-2.91,0-3.3,4-3.3,4a8.79,8.79,0,0,0-4.35,2.83v6c-2.29,1.11-4.49,2.91-4.88,4.88S210.76,78,210.76,78c-17.89,6.4-25.35,66.46-25.35,66.46h74.85S252.22,84.12,234.33,77.72Z"/><rect class="cls-2" x="132.23" y="151.75" width="53.36" height="67.17"/><path class="cls-2" d="M132.23,151.75s8.65-50.48,26.18-50.48,27.17,50.48,27.17,50.48Z"/><rect class="cls-3" x="198.8" y="95.81" width="6.42" height="28.83"/><rect class="cls-3" x="194.83" y="108.42" width="10.39" height="16.23"/><rect class="cls-3" x="240.48" y="95.81" width="6.42" height="28.83" transform="translate(487.38 220.46) rotate(-180)"/><rect class="cls-3" x="240.48" y="108.42" width="10.39" height="16.23" transform="translate(491.35 233.07) rotate(-180)"/><rect class="cls-2" x="214.75" y="111.64" width="16.2" height="7.52"/><rect class="cls-3" x="205.27" y="128.9" width="35.21" height="11.5"/><rect class="cls-2" x="215.61" y="94.85" width="14.48" height="10.16"/><rect class="cls-3" x="205.22" y="118.93" width="35.25" height="11.44"/><rect class="cls-3" x="206.86" y="103.75" width="31.99" height="9.34"/><rect class="cls-3" x="210.94" y="80.75" width="23.81" height="14.71"/><path class="cls-1" d="M237,184.58c0-1.05-3.6-3.51-4.18-6.65s-3.74-9.79-3.74-9.79h-2.79s-3.17,6.65-3.74,9.79-4.18,5.78-4.18,6.83c0,0-.89,1.92-.48,3,.33.84,7.2.81,9.8.79s9.46,0,9.8-.86C237.91,186.61,237,184.58,237,184.58Z"/><path class="cls-3" d="M193.83,164.9V147.85l-8.75-1.35-3.18,1.35v20.51h-2v37.76H199.8V180l-4.48-8.84A13.74,13.74,0,0,1,193.83,164.9Z"/><path class="cls-2" d="M134.53,149.68s-7.37.74-6.83,13.51c.61,8.86-.06,12.06-1.17,13.66s-4.34,4.1-4.45,5.9,2.45,3.6,3.78,3.5a28.53,28.53,0,0,1,3.12,0l-.67,6.3s-1.55.8-1.66,1.7-.22,2.7.89,3.6.45,3.8,0,5.6.67,3.4,1.67,3.4,6.32-.32,6.32-.32Z"/><path class="cls-1" d="M158.87,209.84h0a4.78,4.78,0,0,1-4.54-5V164.4c0-2.72,3.3-9.53,5.8-9.53l0,4.58c2.5,0,3.3,2.23,3.3,5v40.49A4.78,4.78,0,0,1,158.87,209.84Z"/><path class="cls-2" d="M155.23,171s.11-6.8,2.76-7a3.06,3.06,0,0,1,3.3,2.1,24.62,24.62,0,0,1,0,8c-.79,3.38-5.51,8.6-5.51,8.6Z"/><rect class="cls-1" x="150.72" y="132.57" width="16.39" height="9.7"/><rect class="cls-1" x="150.72" y="122.41" width="16.39" height="6.7"/><path class="cls-1" d="M140.73,121.43a23.51,23.51,0,0,1,2.62-6.12c3.09-2.48,10.41-4.83,15.54-4.83s11.88,2.32,14.87,4.83a16.75,16.75,0,0,1,2.84,6.12s-9-3.76-17.94-3.76S140.73,121.43,140.73,121.43Z"/><rect class="cls-2" x="260.26" y="151.75" width="53.36" height="67.17" transform="translate(573.87 370.67) rotate(-180)"/><path class="cls-2" d="M313.61,151.75s-8.65-50.48-26.18-50.48-27.17,50.48-27.17,50.48Z"/><path class="cls-2" d="M312.28,149.68s7.37.74,6.83,13.51c-.61,8.86.06,12.06,1.17,13.66s4.34,4.1,4.45,5.9-2.45,3.6-3.78,3.5a28.53,28.53,0,0,0-3.12,0l.67,6.3s1.55.8,1.66,1.7.22,2.7-.89,3.6-.45,3.8,0,5.6-.67,3.4-1.67,3.4-6.32-.32-6.32-.32Z"/><path class="cls-1" d="M287.94,209.84h0a4.78,4.78,0,0,0,4.54-5V164.4c0-2.72-3.3-9.53-5.8-9.53l0,4.58c-2.5,0-3.3,2.23-3.3,5v40.49A4.78,4.78,0,0,0,287.94,209.84Z"/><path class="cls-2" d="M291.58,171s-.11-6.8-2.76-7a3.06,3.06,0,0,0-3.3,2.1,24.62,24.62,0,0,0,0,8c.79,3.38,5.51,8.6,5.51,8.6Z"/><rect class="cls-1" x="279.7" y="132.57" width="16.39" height="9.7" transform="translate(575.8 274.84) rotate(-180)"/><rect class="cls-1" x="279.7" y="122.41" width="16.39" height="6.7" transform="translate(575.8 251.52) rotate(-180)"/><path class="cls-1" d="M306.09,121.43a23.51,23.51,0,0,0-2.62-6.12c-3.09-2.48-10.41-4.83-15.54-4.83s-11.88,2.32-14.87,4.83a16.75,16.75,0,0,0-2.84,6.12s9-3.76,17.94-3.76S306.09,121.43,306.09,121.43Z"/><path class="cls-3" d="M185.41,146.46v8s23-12.14,40-12.14,34.84,12.14,34.84,12.14v-8s-18.06-10.21-35-10.21S185.41,146.46,185.41,146.46Z"/><polygon class="cls-1" points="324.5 252.68 254.4 252.68 230.77 235.8 205.88 252.68 122.11 252.68 122.11 218.92 324.5 218.92 324.5 252.68"/><polygon class="cls-1" points="392.33 384.53 277.82 383.8 277.82 268.24 387.46 266.53 392.33 278.69 392.33 384.53"/><polygon class="cls-5" points="392.33 289.64 330.57 288.63 327.09 278.43 392.33 278.69 392.33 284.78 392.33 289.64"/><rect class="cls-2" x="122.11" y="229.55" width="202.38" height="10.13"/><polygon class="cls-1" points="285.53 383.8 271.22 383.8 271.22 273.33 229.94 231.3 188.26 273.33 188.26 383.8 173.7 383.8 173.7 218.92 285.53 218.92 285.53 383.8"/><path class="cls-6" d="M275.66,319h51.43s-7.32-29.66-21.46-29.66h-30Z"/><rect class="cls-6" x="306.91" y="319.01" width="6.84" height="64.79"/><rect class="cls-6" x="320.24" y="319.01" width="6.84" height="64.79"/><polygon class="cls-6" points="323.75 268.44 277.95 268.44 271.22 250.18 317.02 250.18 323.75 268.44"/><polygon class="cls-1" points="67.67 383.8 181.66 383.8 181.66 268.24 72.33 268.24 69.17 278.43 67.67 285.21 67.67 383.8"/><polygon class="cls-7" points="132.39 278.43 181.66 278.43 181.66 268.24 134.01 268.24 132.39 269.73 132.39 278.43"/><polygon class="cls-8" points="67.67 288.63 128.91 288.63 132.39 278.43 69.17 278.43 67.67 285.21 67.67 288.63"/><polygon class="cls-6" points="69.17 278.43 132.28 278.43 141.77 252.68 77.16 252.68 69.17 278.43"/><polygon class="cls-6" points="135.73 268.44 181.53 268.44 188.26 250.18 142.46 250.18 135.73 268.44"/><path class="cls-6" d="M184.7,319H133.26s7.32-29.66,21.46-29.66h30Z"/><rect class="cls-6" x="146.6" y="319.01" width="6.84" height="64.79" transform="translate(300.04 702.81) rotate(-180)"/><rect class="cls-6" x="133.26" y="319.01" width="6.84" height="64.79" transform="translate(273.37 702.81) rotate(-180)"/><rect class="cls-2" x="279.47" y="383.8" width="112.86" height="21.2"/><polygon class="cls-9" points="327.09 278.43 277.82 278.43 277.82 268.24 325.47 268.24 327.09 269.73 327.09 278.43"/><rect class="cls-2" x="67.9" y="383.8" width="113.02" height="21.2"/><path class="cls-3" d="M229.94,202.81h0a9.11,9.11,0,0,0-4,1.36s-12.41,5.82-18.44,8.35-6.58,5.8-6.58,5.8l-6.22,21.33H264l-6.14-21.25s-.58-2.78-6.5-5.56c-6.12-2.87-16.95-8.67-16.95-8.67a10.1,10.1,0,0,0-4.16-1.32"/><path class="cls-6" d="M279.46,282.93s0-.64,0-.79c0-34.81-22.27-63.22-49.51-63.22s-49.55,28.51-49.55,63.32c0,.15,0,.7,0,.7V405h17.14V289.48c0-10.16,7.06-18.82,16.25-21.79,1.17-15.8,8.2-27.93,16.29-27.93s14.9,12.13,16.06,27.93a23.22,23.22,0,0,1,16.17,21.79V405h17.14V282.93Z"/><polygon class="cls-6" points="392.33 278.69 327.2 278.43 317.71 252.68 382.32 252.68 392.33 278.69"/></svg>