<?xml version="1.0" encoding="utf-8"?>
<!-- Generator: Adobe Illustrator 20.1.0, SVG Export Plug-In . SVG Version: 6.00 Build 0)  -->
<!DOCTYPE svg PUBLIC "-//W3C//DTD SVG 1.1//EN" "http://www.w3.org/Graphics/SVG/1.1/DTD/svg11.dtd">
<svg version="1.1" id="Layer_1" xmlns="http://www.w3.org/2000/svg" xmlns:xlink="http://www.w3.org/1999/xlink" x="0px" y="0px"
	 viewBox="0 0 543.9 394.6" style="enable-background:new 0 0 543.9 394.6;" xml:space="preserve">
<style type="text/css">
	.st0{fill:#FFFFDB;}
</style>
<g>
	<polyline class="st0" points="305,5.8 304.3,6.2 304.4,5.7 305,5.8 	"/>
	<polyline class="st0" points="303.8,1.5 303.4,0.7 303.9,0 304.3,0.5 303.8,1.5 	"/>
	<polyline class="st0" points="303.5,7.6 303,6.5 303.9,5.7 304.5,7.1 303.5,7.6 	"/>
	<polyline class="st0" points="304.9,2.3 304.2,1.6 305.1,0.9 305.6,1.5 304.9,2.3 	"/>
	<g>
		<polyline class="st0" points="373.8,167.5 373.2,166.8 373.2,165 375,162.6 375.3,161.6 374.9,161.3 377.6,159 377.8,158.1 
			377.2,157 378.8,155.9 378.3,158 378.8,159 375.1,164.5 373.8,167.5 		"/>
		<g>
			<polyline class="st0" points="262.9,323.7 263.1,323 260.9,323.2 260.4,322.8 261.5,322.1 262.5,322.2 264.1,321.6 264.5,323 
				262.9,323.7 			"/>
			<polyline class="st0" points="249.6,14.9 252.6,10.3 252,12.3 249.6,14.9 			"/>
			<polyline class="st0" points="244.7,44.1 245.5,43.3 245.7,40.1 247.7,39.8 247.4,38.7 247.9,39 248.8,38.3 248.3,39.2 
				248.6,40.3 249.4,40.4 249.8,39.4 250.4,39.5 249.7,41 248.8,41.5 249.1,42.3 248,43.3 248.1,44 248.6,44.1 248.8,43.6 
				249.4,44.2 250.4,43.6 249.9,45.1 247.2,45 245.4,44.1 244.3,44.5 244.7,44.1 			"/>
			<polyline class="st0" points="246.4,17.4 247.4,16.2 247.8,16.4 249.4,15.2 246.4,17.4 			"/>
			<polyline class="st0" points="237.5,51.7 238.1,50.9 238.1,51.6 237.5,51.7 			"/>
			<polyline class="st0" points="230.7,325.2 230.7,326 232.4,326.3 233,327 234.4,326.8 235,325.9 234.8,327.1 236.3,327.4 
				236.3,327.9 237.6,328.3 237.7,329.2 240.7,330.6 243.4,330.3 243.5,330.9 245.5,329.7 245.8,330 245.6,330.6 246.7,330.7 
				246,330.1 246.9,329.3 251.5,328.4 251.7,329.1 254.5,327.3 256.5,327.7 258.3,326.2 259.8,327.9 259.7,328.8 258.1,330.7 
				257.9,331.7 256.9,332.5 257.9,332.1 253.9,337.6 252.1,341.7 251.3,342.4 251,342.1 252.2,340.9 251.4,340.1 252.4,339.6 
				252.5,338.9 251.1,340.2 251.6,340.5 250.5,340.6 247.9,343.1 248.5,342.9 247,345 245.9,345.3 245.2,347.1 243.3,348.6 
				243.6,348.9 244.1,348.4 244.4,349 242.8,350.8 242.2,352.4 241.8,351.5 240.4,352.5 240.1,351.7 240.8,351.1 240.2,350.7 
				241.6,349.4 241.6,350.5 242.8,350.3 243,349.1 241.7,348.9 241.2,348.2 240.4,348.6 239.8,350.1 238.6,350.3 239.8,349.1 
				239.3,349.3 239.1,347.7 238.9,349.2 237.7,350.5 237.2,350.4 237.3,350.8 235.6,352.8 234.9,352.9 234.5,352.5 235.1,351.8 
				234.4,352.1 234.6,351.1 234.1,351.4 233.7,352.3 234.1,353.2 232.7,353.5 233.3,353.7 231.7,354.6 232.2,354.9 230.8,355.7 
				230.6,356.4 229.6,356.8 229.4,356.4 228.5,356.7 228.1,355.8 228.4,355 227.4,355.7 225.7,355.6 225.6,355.2 223.3,355.8 
				223.8,355 223.7,353.9 225.2,353.8 225.4,354.4 225.8,353.9 226.2,354.1 226.5,353.4 226.3,353 225.5,353.5 225.4,353.1 
				224.7,353.4 224.7,352.1 223.8,352.8 224.1,353.2 223.4,353.2 223.7,351.1 223.3,351 223.7,350.6 223.4,349.6 222.7,349.6 
				223.5,346.4 223,345.9 223.6,345.4 224.9,341.7 225.9,343.6 225.4,344.9 227.2,343.2 226.5,342.9 226.6,341 225.4,341.7 
				226.6,339.8 225.9,336.4 226.3,333.4 226.9,332.6 227.6,329.1 229.2,327.7 230.7,325.2 			"/>
			<polyline class="st0" points="245,60.9 244.6,60.3 245.2,59.8 245.6,60.1 245,60.9 			"/>
			<polyline class="st0" points="193.1,19 191.5,18.3 189.4,18.9 188.7,18.4 189.4,17.3 190.1,17.6 190.4,17.2 190.7,15.6 
				190.3,15.2 191.4,13.8 192.2,13.6 192.6,14.8 192.4,15.5 193,16.3 192.8,17.6 193.9,17.6 194.5,18.2 194.2,18.8 193.1,19 			"/>
			<polyline class="st0" points="213.3,13.8 212.5,10.4 213.2,10.5 213.6,9.8 213.3,11.7 213.8,11.9 213.3,13.8 			"/>
			<polyline class="st0" points="191.8,276.8 191.4,276 190.3,275.8 189.5,276.5 185.5,276.7 185.4,275.8 184.6,275.1 185.8,273.5 
				193.1,271.6 195.8,271.6 194.8,273.3 196.4,273.3 196.4,274 198,273.2 199.1,274.1 197.9,275.2 195.4,274.7 194,275.3 
				193.5,276.2 191.8,276.8 			"/>
			<polyline class="st0" points="244.7,17.7 244.3,17.4 245.2,17.1 244.7,17.7 			"/>
			<polyline class="st0" points="212.5,17.8 212.2,16.9 213.3,17 213.2,17.6 212.5,17.8 			"/>
			<polyline class="st0" points="200.5,14.2 200.4,12.7 201.1,12.1 201.3,13 202.4,12.8 203.3,15 202.6,15.3 202.5,16.5 201.6,16.3 
				200.6,17.8 197.3,20.1 193.4,17 192.6,12.2 193,11.8 193.9,13.2 194.6,13.2 194.3,14.3 195.2,13.7 195.4,14.7 197.4,13.4 
				198.4,13.9 198.5,14.4 198.8,13.5 199.8,12.8 200.5,14.2 			"/>
			<polyline class="st0" points="249.2,301.8 248.7,301.4 249.3,300.4 250.6,300.7 250.7,301.1 249.2,301.8 			"/>
			<polyline class="st0" points="362.5,146.1 361.4,143.8 361.5,142.6 362.7,143.4 363.3,143 362.9,144 363.3,145.6 362.5,146.1 			
				"/>
			<polyline class="st0" points="306.9,6.8 307.5,7.5 306.3,9.5 307.3,8.7 307.7,10.1 308.3,9.7 308.8,11.1 308.7,13 309.2,14.2 
				308.7,15.2 308.6,19.1 309.6,20 310.7,19.7 311.3,20.4 311.9,20.4 310.2,22.4 309.9,24.3 311.5,24.8 311.6,26.3 312.8,27.3 
				311.8,30.1 313.6,29.7 312.8,32.5 312.8,35 313.2,36 312.2,39.5 313.2,42.3 313.5,46.5 314.8,47.4 315.5,47.2 317.2,45.8 
				317.4,44.8 318.5,45.3 320.6,43.8 321.1,44.8 320.9,45.9 321.5,45.8 321.1,47 321.6,47.9 323.5,48.6 323.8,50 325,50.8 
				326.1,50.9 326.4,52.1 327.1,52.1 325.7,54.3 325.9,55.3 326.4,55 326.6,55.5 325.3,57.2 325.9,60.4 325.5,62.3 326.2,64.1 
				325.7,65.3 325.9,66.1 324.9,68.2 327.3,72 327.3,73.8 328,72.8 329.2,72.8 328.2,74.4 329.3,78.1 329,79.5 329.4,80.7 327,87 
				328.3,88.7 328.3,90 329.4,90.4 328.1,94 329.3,95.9 331,97.2 331.9,97.2 332.8,98.4 333.6,98.3 334.3,97.1 334.8,99.5 
				337.7,99.5 337.7,98.4 338.5,101 338.3,102.8 339,104 339.9,104 340,102.6 340.6,102.7 340.6,104.2 341.1,104.7 342.6,104.6 
				344.2,105.5 344,106.7 345,108 345.5,107.7 345.2,107.6 345.7,107.2 345.5,106.5 346.6,106.4 346.8,108.1 347.5,107.9 
				347.4,108.7 348.3,108.4 349,111.5 348.4,111.4 348.1,110.5 347.5,110.9 347.1,110.5 347.1,111.3 346.4,111.9 346.8,113.5 
				347.7,114.2 347.3,115.3 347.7,115 349.4,115.5 348.9,116.2 350,116.4 350.6,117.3 349.9,118.8 350.1,119.4 350.5,119.2 
				350.7,119.5 350.4,120.8 350.7,121 350.2,121.9 351.1,121.8 351.2,122.7 351.9,122.3 350.9,124.8 351.1,130.1 352,131 
				351.3,132.3 353,131.1 354.5,133.9 354.2,130.3 355.7,128.6 356.5,131.2 359.7,133.6 359.6,131.2 360,130.6 360.5,130.7 
				360.7,131.5 360.9,131 361.4,132.2 360.9,132.7 360.6,132.4 360.5,133.1 360.9,133.1 360.9,133.8 361.5,132.9 361.2,133.9 
				361.6,134.5 360.6,136.9 360.2,137 359.8,139.2 360.2,140.5 359.6,141.8 360,142.9 359.4,143.1 359.9,143.8 361.2,143.7 
				362,146.2 363.1,146.9 363.9,148.4 364.7,148.6 364.6,149.4 365.1,149 365.9,149.3 365.5,148.5 365.8,148.2 366.5,148.6 
				366.4,149.1 366.9,148.7 367,150 367.6,150 368.6,154.8 371.1,157.1 370.9,159.2 371.6,160.8 370.9,160.9 371.9,161.7 
				373.7,162.1 373.5,163.4 372.8,164.1 373.7,163.7 373.6,164.4 372.3,166.3 373.1,167.9 372.7,169.2 373.5,167.8 373.6,168.8 
				374.4,169.1 372,173.1 372.3,173.9 371.3,176.6 370.7,181.2 369.6,181.4 368.8,182.2 369.5,182.5 368.6,183.6 369.8,185.4 
				369.9,188.9 370.4,188.8 369.4,190.7 369.8,190.4 369.5,192 370.1,193.1 368.9,196.2 368.8,197.9 368,200 366,201.8 363.7,205 
				361.2,210.4 355.5,218.7 354.4,221.5 354.9,221.8 354.1,223.5 348,231.7 344.3,234.8 344.5,235.6 343.2,238.1 340.8,239.3 
				339,240.9 337.8,240.8 338.7,241.2 338.3,241.6 334.5,242.9 330.4,247.3 329.8,247.7 330.3,247 329.3,247.5 329,248 329.5,248 
				328.4,249.4 326.4,250.2 326.3,249.8 325.9,250.6 326.7,250.4 326.1,251.2 326.8,250.8 324.8,253.3 325.2,253.3 324.5,254.4 
				322.8,254.8 323.9,255 319.8,258.2 318.7,260.1 317.5,260.6 318.1,261.2 315.1,264.1 315.5,264.4 315.1,265.4 315.6,265.6 
				315.1,266.2 314.6,266.3 314.9,265.5 314.1,265.7 313.8,266.2 313.7,266.8 314.2,266.8 313.9,267.3 311.8,267.7 307,273 
				306.1,273.1 305.9,274.3 303.3,276.8 303.6,277.1 302.6,279.3 297.2,285.8 296.8,287.3 296,287.7 296.8,288.3 296.6,289.5 
				295.6,289.6 294.7,292.1 293,292.5 293,292.1 292.3,292.2 292.3,292.8 291.1,293.9 288.8,294.9 278,295.4 272.5,297.1 
				260.7,304.5 255.1,304.8 254.6,305.3 254.6,306.9 256.7,305.7 255.3,308 255.3,308.6 254.2,309.3 253.8,309 254.1,308.5 
				253.7,306.2 252.8,306 252.2,306.7 251.4,306.9 251.3,304.3 251.9,304.7 251.9,304.2 249.8,304.4 249.5,303.3 248.8,302.9 
				249.9,301.7 251.2,301.2 251.2,299.8 249.4,299.8 248.1,301.6 247.2,301.6 245.2,302.6 243.7,300.7 244.7,301.3 246,301 
				248.7,298.8 249,297.7 248.5,295.8 243.5,298.4 242.4,298.4 242.1,299 245,298.8 243.8,300.3 241.2,300.6 230.9,306.3 
				229.9,305.3 228.7,305.3 227.9,304 226.1,303.3 224.6,301.2 221.5,301.5 220.2,300.3 218.7,300.1 217.2,300.6 217,301.4 
				216,301.9 215.6,301.2 214.7,301.5 215.2,300.5 213.6,298.3 212.5,297.8 210.3,297.9 208.6,296.4 208.2,292.2 207.3,291.9 
				206.7,289.7 206.7,288.4 207.3,287.8 207.2,286.2 209.3,284.9 210.3,283 210.7,278.6 210.5,276.8 209.4,274.1 207.3,271.5 
				208,271.7 210.1,274.9 210.7,278.3 210.9,275.9 208.3,271.6 209.7,270.7 210.2,271.3 209.4,272.7 210.3,272.8 211,271.7 
				210.2,270.8 211.6,270.6 212,269.4 211.7,269.5 210.9,268.8 208.4,269.8 208.1,270.3 208.4,270.9 206.7,270.4 208,271.3 
				205.6,271.1 203.4,272.3 200.2,272.5 199.8,272 204.2,268.9 206.3,265.5 207.1,263.1 207.7,263.1 206.6,259.8 206.5,256.2 
				203.6,259.5 198.8,266.9 198,267.3 196.3,266.6 193.3,268 192.2,267.8 190.7,268.6 190.3,268.1 193.6,264.3 195.9,264.4 
				196.6,264.9 197.2,264.6 199.2,261.3 199.6,259.5 199,259.7 200.3,258.3 200.9,256.3 201.8,255.8 203.4,253.5 207.8,250.1 
				207.9,247 208.5,246.2 210.4,245.6 210.7,245 210.2,244.1 211.1,241.4 210.6,240.8 210.7,239.1 208.7,244 207.7,243.7 
				205.2,245.6 200.8,251.1 198.8,251.9 198.4,251.4 197.4,252.2 198,252.3 194.1,253.9 188,258.6 187.1,260.5 186.9,259.9 
				185.6,260.5 185.1,261.6 184.2,262.1 184.2,262.9 183.2,263.4 185.4,262.6 184.4,264.1 184.2,265.2 183.7,265.5 182.8,263.9 
				181,264.9 180.5,262.6 179.5,262.1 179.8,261.4 179.2,260.8 178,261.1 179.6,259.4 179.4,260.1 180.2,260.4 179.9,260.7 
				180.3,261.5 181.4,261.3 180.9,261.1 181.1,260.6 180.6,260.9 181.6,257.4 181.1,256.3 182,254.8 181.8,253.6 179.8,250.9 
				180.7,249.1 180.7,247.7 180,246.7 180.5,246.6 180.5,245.9 179.4,245.7 179.9,246.5 179.6,246.7 178.5,245.8 177.1,246.2 
				176.9,244.7 176.2,244.5 176.9,243.6 175.9,243.3 176.8,242.4 176.8,241.1 178,241.2 177.7,242.1 178.9,240.7 178.8,238.8 
				178.2,238.3 175.6,239.3 176.3,237.8 177,237.7 176.5,236.2 176,236.3 176,235.8 175.5,235.6 175.6,234.6 175,234.5 174.4,235.3 
				173.8,234.7 173.2,235.1 173.7,235.6 171.6,235.8 170.6,235.6 168,233 166.2,232.8 165.3,233.2 165.3,233.8 162.8,233.8 
				160.1,230.5 155.4,227.9 151.8,229.3 146.1,229 135.4,230.2 126.8,233.8 117.7,236.4 112.2,236.8 108.3,236 106,236.3 
				101.1,239.2 98.2,240.1 93,242.9 88.3,244 85.9,245.9 83.1,250.1 80.8,251.7 80.3,252.7 77.7,254.1 76.6,253.6 74.3,254.9 
				74.1,253.4 71.3,253.5 69.7,253.7 69.2,254.3 67.6,253.9 66.1,254.9 64.9,255 64.8,252.9 62.5,253.7 59.2,252.8 57.1,253.4 
				51.7,253.7 50.1,254.5 46.5,254 44.6,254.5 41.8,256.4 40.3,258.3 40.8,258.9 39.4,258.8 38.7,260 38.3,259.5 37.4,260.4 
				36.3,259.7 34.2,259.6 34.4,260.1 33,260.6 32.4,261.6 29.5,262.7 28.4,264.5 26.3,264.8 26.2,265.6 25.6,265.3 23,265.7 
				23.3,266.2 23.6,265.9 24.3,266.3 23.6,266.7 21.7,265.9 20.6,266.8 17.9,265.5 16.7,266 15.4,265.5 14.5,266 13.5,265.5 
				12.2,265.9 10.5,264.8 11.6,264.7 10.9,263.9 10.3,264.5 7.4,263.6 6.8,261.3 4.8,258.8 2.9,257.9 1.5,258.6 0.9,257.5 
				1.2,255.7 3.4,249.8 4.9,251 6.3,250.8 10.8,247 10.9,246.2 10.3,247.1 11.3,244.4 11.9,240.4 13.3,239 12.3,240.2 12.5,241.8 
				12.6,240.2 13.6,239.8 13.4,239.2 14,237.8 13.9,236.5 14.9,235.5 15.9,232 16,229.9 14.9,222.6 14.2,221 14,217.8 14.4,212.7 
				16.5,206.8 16.5,203.7 14.9,199.9 15.3,197.6 15,196.2 12.9,191.7 13,189.3 13.8,187.6 13.5,183.6 11.9,178.3 9.2,173.9 
				8.5,171.3 9.3,172.1 10.1,169.9 9.6,173.1 10,173.7 10.7,170 11,173.8 11.4,172.6 11.6,173.1 11.2,176 12,174.6 11.9,176.6 
				13.3,176 14.2,175 14.5,172.8 13.2,171.9 12.4,170.5 12.3,168.1 11.7,166.6 13.1,164.3 13,165.4 14.4,167.5 14.5,168.5 
				13.6,170.1 13.6,171.7 14.6,171.2 15.5,169.1 15.4,172.5 16.2,174.5 18,172.8 17.8,171.6 18.5,170.4 18.4,169.5 19.1,169.5 
				19.3,167.9 18.5,167.5 16.7,160.9 15.8,160.1 15.5,157.5 15.8,156.3 14.4,152.9 16,147.5 17.9,144.5 19.7,142.6 20.2,139.4 
				20.9,138.3 21.1,137 20.7,135.2 20.1,134.8 20.3,133.2 24.9,125.5 26.4,125 24.9,128.8 25,130.7 25.3,130.3 25.4,130.6 
				24.9,131.4 24.9,132.7 26.2,131.9 27.1,132.2 29.1,128 29.1,127.1 29.5,127.5 30.8,125.4 33.7,123.8 38.7,121.9 40.6,120 
				42.6,118.8 43.9,117.2 46.2,116 46.6,114.8 47.4,115 49.3,114.4 52.9,111.5 52.4,112.9 53.1,113.4 56,112.2 56.1,113.1 
				57.2,113.6 60.8,113 65.7,109.5 70.3,109.3 71.7,108.8 74.8,105.5 75.4,105.9 75.7,105.4 78.3,105.9 79.4,106.5 80.8,105.4 
				86.5,104.5 93.4,101.5 96,99.5 98.5,96.5 100.5,93.1 100.4,92.1 101.9,91.5 101.7,90.8 102.6,89.4 103.8,89.3 108.1,85.8 
				108.4,84.4 106.8,84.4 107.5,81.4 107.2,79.4 108,76.5 109.3,74.7 111.2,73.7 111.3,73 112.3,73.6 111.9,72.4 112.5,71.6 
				114.7,71.6 114.1,70.7 114.6,69.6 115.8,68.7 116.3,67.7 117.2,67.3 117,67.8 117.5,68.1 116.8,68.4 116.4,69.5 116.9,69.8 
				116.9,70.6 117.8,70.7 117.3,71.4 117.8,72.2 117.5,73 118.4,74.1 119.1,77.1 120,78.5 120.4,80.2 120.7,77.8 121.7,75.9 
				121.3,74.8 121.5,74 122.2,73.9 122.3,74.6 124.1,76.2 123.4,73.9 124.1,74.1 123.9,73.4 125.1,72.3 125.1,71.8 123.5,72.8 
				123,71.2 121.4,70.2 122.5,69.2 121.5,69.3 120.9,68.5 121.4,68.6 121.4,68.3 122.8,68.9 122.4,68.6 123,68.4 121.7,67.7 
				123.5,67.9 123,67.2 123.7,67.2 122.3,66.2 122.7,65.1 124.2,64.8 124.8,65.3 124.5,65.6 124.9,65.9 124.1,66.1 125.1,66.7 
				125,67.8 125.5,66.9 126.3,67.3 126,66.5 126.3,66.3 125.8,65.6 128,66.4 128.5,67.6 129.4,67.6 130,67 130.6,67.5 134.6,67.6 
				132.2,66.8 130.2,66.8 130.1,65.6 130.9,63.9 131.5,65.1 132.3,64.4 132.8,62.3 134,61.2 133,61.1 131.5,63.3 131.3,61.6 
				130.9,61.7 130.9,59.8 131.4,59.6 131.3,58.2 132.3,57.6 133.4,58 133.8,57.1 134.1,57.7 134.7,56.4 134.2,56.3 134.3,55.5 
				134.7,55.4 135.1,55.8 134.9,56.2 135.4,55.8 135.6,56.4 136.5,56.5 137.1,57.2 136.8,57.7 137.4,57.9 137.8,57.5 138.7,58.1 
				137.8,57.1 138.6,56 137.6,55.7 136.5,56.2 136.3,55.8 138,54.4 136.2,55.3 136,54.3 137.9,53.6 137.9,52.4 138.4,52.4 139,54.3 
				139.2,52.8 140.3,54.2 141.5,54.1 141,53.7 141.7,52.7 139.6,52.1 140.8,51.3 139.9,51.1 139.5,49.8 141,48.8 140.6,48.5 
				141.7,47.3 141.6,48.3 142.1,47.8 142.3,48.8 143.1,47.2 143.6,47.3 143.4,47.9 143.9,47.8 144.6,44.4 145.6,44.9 144.7,45.9 
				144.8,47.2 144.2,48.7 145.4,46.3 145.4,47 146.4,46.8 146.1,48.1 146.8,48.8 147,47.6 148.1,47.4 147.8,46.1 148.6,45.7 
				148.7,44.6 149.6,43.9 149.5,42.9 148.5,42.9 148.2,42.3 148.9,41.8 149.3,42.3 149.3,41.7 148.7,41.2 149.4,40.9 150,41.3 
				149.5,42.2 150.5,41.7 150,42.1 150.4,42.3 149.9,42.7 150.3,43 150,43.8 150.9,44.4 151.5,43.9 151.1,43.5 151.6,42.6 
				153.5,41.2 153.8,41.4 152.6,42.8 153.2,42.8 153,43.3 153.6,43.5 153.8,44.4 154.4,42.8 154.8,43.3 155.1,42.8 155.1,41.8 
				156.5,41.5 155.7,39.8 156.4,39.5 156.5,40 156.8,39.4 157.7,39.1 158.7,40.3 158.5,40.8 159.1,41.7 159.5,40.9 159.7,41.5 
				160.2,40.9 160.9,41.5 161,41 161.8,41.5 162,42.6 163.7,43.9 165.9,48.2 166.5,48.2 168.2,49.5 167.8,50.8 167.1,51 165.6,55.9 
				165.7,56.9 165.1,57.9 166,57.2 166.5,54.6 167.6,55.8 167.7,56.9 167.4,53.2 168.7,51.7 168.9,53.1 169.1,52.6 169.8,53.1 
				169.6,51.3 170,51.1 169.5,50.5 171,50.1 176,51.6 176.7,52.5 176.2,55.1 176.7,54.4 176.7,55.1 177.3,53.7 177.4,50.9 
				177.6,51.4 178.2,51.2 179.5,52 180.3,53.6 180.2,54.4 180.9,54.1 181,54.8 181.5,54.7 180.8,52.9 181.2,51 182.7,51.2 
				183.8,50.5 184.4,50.6 184.6,49.7 182.8,50.6 182.3,50.7 182.7,50.2 182,50.4 181,48.6 183,47.7 181.7,48.2 180.6,47.8 
				179.2,46.5 179.4,45.6 180.8,43.6 180.9,42.5 181.8,43 182,42 182.3,42.4 183.3,41.9 183.3,40.5 184.3,39.6 184.2,38.6 
				185.4,36.1 185.6,36.8 186.4,36.9 187.8,36.2 189,34.9 189.7,35.1 188,33.1 188.3,31 188.8,30.4 189.4,30.7 190.3,30.2 190.7,28 
				191.6,27.5 192.3,27.7 192.3,27.2 192.7,28.1 193.9,28.1 192.7,27.4 193.3,27.2 193,26.9 193.3,24.9 195,25.3 194.9,26.8 
				195.5,26.6 195.9,27.5 196.6,27.3 195.8,26.2 196.7,26.4 195.4,25.6 195.8,24.7 196.3,24.2 197.6,24.6 197.4,22.8 197.7,22.3 
				199.7,23.2 200.3,21.2 200.5,23 201.6,23.9 204.2,23.7 205.7,23.1 207.2,24 209.1,22.4 209.3,23.2 210,22.9 210.3,23.2 
				210.1,24.7 210.7,24 210.9,22.3 212.1,21.7 213.8,22.1 212.8,21.3 213.2,19.1 212.8,18.4 213.8,17 212.6,16.4 212.2,15.2 
				211.1,14.7 208.3,15.7 208.1,14.6 207.2,14.4 207.4,13.8 205.6,13.5 205.9,12.8 206.3,13 206.2,12.3 206.6,12.4 206.8,12 
				207.3,12.7 207.7,12.5 207.8,11.4 208.9,12.4 208.7,13.5 209.1,13.4 209.2,14.4 209.9,13.8 209.3,11.6 209.7,11.5 210.4,12.9 
				210.4,11.9 211.1,11.5 211.3,13.1 212.1,12.4 213.7,15.3 214.3,15.6 215.5,14.3 216,14.5 215.9,13.8 216.3,13.7 217.6,15.5 
				218.1,17.5 219,17.9 219.9,17.4 219.6,18.1 220,18.3 220.5,17.8 220.4,18.3 220.9,18.5 221.6,18.1 221.4,19.3 224.1,17.8 
				225.1,17.9 225.3,18.2 224.3,19.2 225.2,19.8 226.1,19.1 226.5,19.9 227.1,19.5 227.5,20.3 227.3,21.6 228.2,20.5 229.5,21.4 
				231.1,21.4 232.3,20.3 232.9,20.2 233.5,22 234.4,22.3 235.4,23.5 236.2,23.3 236.8,23.8 236.5,23.2 237.9,23.3 237.1,22.6 
				238.8,21.6 240.4,21.7 241.1,21.1 240.3,21.3 240.6,20.3 242.1,20 243.7,18.2 244,18.6 243.7,19.1 241.9,20.6 243.5,20.5 
				241,22.8 241.4,24 242.9,22.4 243.3,22.6 244.7,21.5 243.4,23 243.8,23.6 244.6,23.3 243.7,24.7 244.1,25.7 244.4,25.3 
				245.9,25.6 246.5,25.1 247.4,23.2 245.8,22.5 249.9,19.5 249.8,20.1 248.8,20.7 249.3,20.8 250.2,23.7 251,23.5 250.5,22.9 
				251.4,22.6 252.3,23.2 252.7,24.5 253.1,24.4 251,26.4 251.2,25.6 250.6,25.9 250.7,26.8 249.7,28.3 249,28.5 249,29.6 
				248.6,28.7 248.3,29.4 247.7,29 248.2,30.5 249.2,31.3 247.6,31.2 248.2,32 247.1,34 246.6,33.9 245.8,34.7 246.4,33.6 
				246.2,31.9 245.7,33.2 245.1,32.9 244.6,33.9 244.2,33.9 244.2,32.7 243.1,34.6 242.8,33.8 242.3,34.5 241.9,34.5 241.5,35.2 
				242.2,35.9 241.7,36.4 241.1,36.2 240.8,37.8 241.3,38.6 241,39.1 241.6,39.3 242.8,38.4 240.9,41.8 240.5,44.1 239.1,44.7 
				236.7,47.7 236.3,48.9 235.2,49.8 234.7,49.7 235.1,52 241.6,57.1 242,58.9 243.7,60.3 244.4,60.2 245.3,61.8 245.2,62.6 
				245.8,62.2 247.1,62.7 247.8,61.8 250.9,64.6 254,65.9 255,68 257.4,70.8 260,71.7 261.6,71.5 263.3,72.6 264.8,72.9 265.8,74.2 
				265.7,76.2 266.4,77.6 267.8,77.9 269.3,79.5 270.9,80 272.6,81.5 277.3,80.7 280.9,78.3 282.6,74 285.7,70.3 288.6,64.2 
				288.5,62.5 289.9,58.6 292.8,52.9 292.3,47 293.6,43.3 292.7,41 293.6,37.7 295.7,33.8 295.1,31.2 296.9,29.4 297.7,27.9 
				298.2,28.2 298.5,30.4 298.5,28.8 299.4,28.4 297.9,27.6 299.2,27 297.5,26.9 296.8,26.1 297.3,25.6 296.6,25.6 296.7,26.5 
				295.8,26.5 297.3,23.3 298.2,23.2 297.8,22.8 299,20.6 299.5,20.3 299.4,21.8 299.9,21.2 300.5,21.2 300,19.8 302.3,13.7 
				302.9,9.6 304.9,8.9 306,7.1 306.9,6.8 			"/>
			<polyline class="st0" points="230.7,313.9 231.3,314.8 230,317.7 229.1,318.8 226.9,319.8 227.7,317.1 228.9,315.3 230.7,313.9 
							"/>
			<polyline class="st0" points="264.4,315.3 264.9,317.7 265.8,318.1 264.2,319.7 265,319.5 264.5,320.8 263.6,320.6 262.4,321.2 
				262,321 262.4,319.5 261.9,318.7 262.5,317.4 261.7,317.1 264.4,315.3 			"/>
			<polyline class="st0" points="266.6,70.4 268.3,68.2 271.1,67.5 272.3,68.1 271.9,68.9 270.9,69.1 270.6,68.4 269.9,68.8 
				270.1,69.2 269.6,69.2 269.3,70.3 268.7,70.1 267.9,71 267.1,71 266.6,70.4 			"/>
			<polyline class="st0" points="39,115.2 38.4,115.1 38.5,114.5 40.1,112.9 40,114 39,115.2 			"/>
			<polyline class="st0" points="231.3,324.7 231.6,323.5 232.7,322.8 231.3,324.7 			"/>
			<polyline class="st0" points="231.7,326.1 232.7,324.9 233.3,325.6 231.7,326.1 			"/>
			<polyline class="st0" points="248.5,61.5 247.6,60.1 248.5,58.9 249,60.8 248.5,61.5 			"/>
			<polyline class="st0" points="243.7,40.5 243.6,39.6 243.4,40.2 242.9,40.1 243.1,39.2 244.3,38.5 244.7,39.1 243.7,40.5 			"/>
			<polyline class="st0" points="268.2,75.5 268.1,74.9 269.1,73.8 269.6,75 268.5,75 268.2,75.5 			"/>
			<polyline class="st0" points="243.8,37 243.5,35.2 244.3,36.3 243.8,37 			"/>
			<polyline class="st0" points="233.2,323.4 233.1,322.9 234.3,322.5 233.2,323.4 			"/>
			<polyline class="st0" points="243.9,59.5 244.1,58.4 244.7,58.1 244.6,59.2 243.9,59.5 			"/>
			<polyline class="st0" points="248.4,303.3 247.9,302.8 246.6,302.8 248.4,302 248.4,303.3 			"/>
			<polyline class="st0" points="246.9,59.4 247.4,58 247.5,58.8 246.9,59.4 			"/>
			<polyline class="st0" points="245.6,347.4 246.6,346 247.6,345.7 247.5,346.5 246.7,346.5 246.6,347.1 245.6,347.4 			"/>
			<polyline class="st0" points="261,324.7 260.7,324 262.1,323.6 261,324.7 			"/>
			<polyline class="st0" points="236.6,352.8 234.5,355.4 234,355.2 234.3,354.4 233.1,355.2 233.2,354.4 233.7,354.8 234.3,353.8 
				234.7,354 237.1,352.1 236.7,351.7 237.8,350.8 237.4,352.4 236.6,352.8 			"/>
			<polyline class="st0" points="9.1,171.2 7.6,167.4 7.5,165.7 8.3,164.2 8.7,164.3 8.4,165 9,168.5 8.7,169.2 9.3,170.2 
				9.1,171.2 			"/>
			<polyline class="st0" points="246,21.6 245.4,21.4 245.5,21 246.2,20.7 246.3,21.1 247.2,20.5 246,21.6 			"/>
		</g>
	</g>
</g>
<g>
	<polyline class="st0" points="383,390.7 382.2,391.4 383.1,391.1 383.8,391.3 383.6,391.6 384.7,390.9 383.4,392.7 378.4,393.5 
		377.1,394.1 377.8,394.1 377.4,394.4 375.9,394.6 378.3,392.6 381,391.1 382.4,388.8 384.4,388.7 384.6,390.5 383,390.7 	"/>
	<polyline class="st0" points="512.3,259.3 515.6,259.1 514.7,260.2 514.1,259.9 513.5,260.5 513.9,260.5 514,261.1 514.5,260.4 
		514.2,262 514.5,263.2 514.2,263 514.1,263.4 514.9,264.1 514.2,265.4 515.1,264.8 515.2,263.9 516.7,263.1 516.8,263.8 
		515.9,264.2 515.8,265.1 516.8,265.3 517.2,264.6 518.3,264.8 518.5,265.3 517.9,266 519.3,265.4 519.7,265.6 519.8,266.6 
		520.7,266.8 520.7,267.1 520.2,267.3 519.9,266.9 519.3,267.6 519.9,267.6 519.7,269.1 520.7,268.9 520.1,268.5 520.3,268 
		520.8,268.2 522.4,267.4 521.8,268.3 522,269 521.6,269.2 522,271.5 521,272.1 520.8,274.3 520.3,274.4 520,273.6 519.3,273.4 
		518.7,274.2 519.9,274.3 519,276 520,279 519.5,279.4 519.9,279.8 518.8,280.2 518.2,281.2 518.2,280.5 517.2,282.4 518.2,282.4 
		517.2,282.8 516.6,284.7 515.4,284.1 515.2,285.1 516.9,285 517.4,285.7 518.3,285.1 518.5,285.8 519.4,285.8 519.7,286.7 
		519,288.7 520.2,288.7 521,288.1 521.7,286.8 521.7,285.2 522.8,284.3 523.6,282.6 523.3,281.3 524.1,281.1 524.6,281.5 
		524.2,283.9 526.3,283.6 524.2,284.8 524.2,285.2 525.2,284.8 525.3,285.6 523.5,289.1 522.9,291.4 522,292.2 521.8,293.1 
		523.1,293.8 523.4,293.4 526.3,295.6 529.4,296.9 529.3,297.5 533.6,296.3 536.8,293.8 540,292.4 542.6,292.5 542.7,293.2 
		543.9,293.7 541.8,295.2 542.5,295 540,297.3 537.1,301.7 535.2,303.2 531.6,304.8 529.1,307.8 528.8,308.5 529.2,308.9 528,309.9 
		527,310.3 528.3,308.6 527.3,308.3 524.7,308.3 520.9,309.6 517.1,312.5 516.7,314.3 517.5,314.7 512,319.8 509,321.6 507.2,323.6 
		502.8,326.1 495.9,331.4 487.1,335.3 487.8,332.9 485.2,333.2 486.5,331.4 485.6,331.8 485.3,332.6 484.2,332.7 484,332 487.6,330 
		487.8,329.5 493.4,325.3 496.8,321.4 497.5,319.6 496.8,317.2 495.1,316.9 493.9,315.8 493.2,314.3 490.7,313.3 490.9,310.9 
		492.6,309.6 496.7,307.8 499.1,307.4 501.6,305.7 507.2,298.4 508.3,298.7 509.4,298 508.4,297.9 509.8,296.8 508.9,297.1 
		509.5,296 510.2,295.3 511.5,295.1 510.8,294.8 512.1,290.8 513.1,290.1 512.3,290.4 512.8,287.4 513.8,287.2 513.3,288.8 
		513.8,288 515.9,287.3 515.6,286.6 515,286.5 515.9,285.8 512.5,287 513.3,284.3 513.2,280.9 514,280.6 514.1,282.5 514.5,282.5 
		516.1,279.7 515.3,280.1 514.7,279.8 517.1,278.7 515.4,279 517.1,277.5 516.1,278.2 515.4,277.5 515.7,278.4 515.2,278.6 
		513.7,277.3 514,279.6 512.7,280 512.8,276.6 511.9,271.2 513,270 514,269.9 515.3,268.9 514.8,268.9 514.8,268.3 514.3,269.3 
		512.7,269.8 511.9,270.8 511.6,269.6 512.2,268.7 511.6,269.1 511.8,268.3 511.4,267.3 512.3,267 513.1,265.6 512.6,261.5 
		511.9,259.7 512.3,259.3 	"/>
	<polyline class="st0" points="473.1,323.5 475.8,323.9 473.6,323.8 471.9,325.2 472.1,326.9 473.9,326.6 473.5,327.8 471.5,330.4 
		471.1,331.8 471.5,332.1 476.9,329.4 477.4,329.8 479.9,328.2 481.7,327.9 479,329 478.3,329.8 479.9,329.4 477.2,331.8 
		480.5,330.7 478.6,330.9 479.8,329.7 479.8,330.1 480.5,329.8 481,329.1 480.3,329.2 481.2,328.5 481.5,329.1 482.8,328.7 
		482.3,329.4 483.5,328.9 482.1,330.2 481.5,330.1 481.1,330.9 478.3,331.6 481.7,331.2 479.5,332.5 479.7,332.1 477.8,333.5 
		477.8,335 477.1,336.4 477.7,336.5 477.4,336.8 467.5,343.8 465.5,344.5 460,349 454,351.5 452.7,352.5 451.2,354 450.3,356 
		448.9,356.7 451,356.4 450.7,357 451.4,356.6 451.9,357 452,357.6 450.8,358.8 449.7,359.1 450.1,358 449.1,359.3 447.6,358.7 
		444.9,358.9 447.5,358.3 446.2,357.6 444.6,358.9 436.4,361.7 432.1,363.6 428.9,366.3 425.1,370.6 421.1,373.2 418.5,375.9 
		414.1,378.6 415,378.9 412.7,380.1 415.1,379.1 414.6,379.9 410.3,380.9 407.5,383 402.6,385.1 401.9,386.1 399.2,387.3 
		393.4,388.4 392.2,388.2 392.4,387.3 391.2,387.1 389.2,387.7 388.9,387.5 390.1,387.5 388.7,387.1 388.5,387.7 388.1,386.8 
		389.4,386.6 389.7,385.9 388.9,386.5 388.9,385.3 388.4,384.9 385.6,385.4 385.4,384.8 385.9,384.2 385.3,383 384.3,383 382.5,384 
		377.8,383.4 378,382.8 381.8,380.7 378.1,382.2 378.8,381.4 380.6,380.9 379.9,380.7 380.5,380.1 377.8,381.4 378.7,379.8 
		384,378.5 382.4,378.3 384.9,377.3 382.7,377.8 383.2,377.3 385.6,376.7 385,376.6 385.9,376.2 383.1,377 383.2,376.6 385,375.2 
		385.7,375.5 385.4,374.7 386.6,373.9 387.3,374.6 386.5,375.3 387.5,374.8 387.7,375.1 386.9,376.1 387.8,375.7 387.7,374.3 
		389.3,373.7 388.2,373.8 388.3,373.1 389.4,372.3 389.9,372.8 389.9,371.8 390.5,371.8 390.9,371.2 392.2,371.5 391.4,370.9 
		393.9,369.6 393.8,370.8 394.5,369.2 396.3,368.8 398.9,367 399.9,366.7 400.4,367.5 400.3,366.6 401,365.7 408.9,360.9 
		413.3,360.2 421,356.6 423.2,356.2 431.7,352 432.8,351.1 439.6,348.3 444.3,345.4 447.5,342.8 453.5,336.7 455.9,336.4 
		461.7,332.6 466.3,327 472.1,324.5 472.3,324.2 471.8,324.3 473.1,323.5 	"/>
</g>
<g id="Layer_2">
</g>
<g id="NA">
</g>
<g id="Layer_4">
</g>
<g id="Layer_5">
</g>
<g id="Layer_6">
</g>
<g id="Layer_7">
</g>
</svg>
