<?xml version="1.0" encoding="utf-8"?>
<!-- Generator: Adobe Illustrator 20.1.0, SVG Export Plug-In . SVG Version: 6.00 Build 0)  -->
<!DOCTYPE svg PUBLIC "-//W3C//DTD SVG 1.1//EN" "http://www.w3.org/Graphics/SVG/1.1/DTD/svg11.dtd">
<svg version="1.1" id="Layer_1" xmlns="http://www.w3.org/2000/svg" xmlns:xlink="http://www.w3.org/1999/xlink" x="0px" y="0px"
	 viewBox="0 0 527.6 634" style="enable-background:new 0 0 527.6 634;" xml:space="preserve">
<style type="text/css">
	.st0{fill:#FFFFDB;}
	.st1{fill:none;}
</style>
<g id="Layer_1_1_">
	<polyline class="st0" points="455.7,178.6 456.3,178.9 456.3,180.2 456.7,180.8 455.6,179.8 456.2,179.2 455.7,178.6 	"/>
	<polyline class="st0" points="458.2,182.5 457.6,182.1 457.5,181.6 456.5,181.7 455.7,181.1 455.1,180.6 454.9,179.8 456.5,181.2 
		457.3,181.2 457,180.9 457.4,180.3 458.2,181.2 458.2,182.5 	"/>
	<polyline class="st0" points="466.8,216.3 468.5,218.3 469.2,220.7 469.2,222.2 468.9,222.7 467.6,223 466.4,224.3 464.3,225.1 
		463.6,226.4 462.5,226.4 463.2,227.2 465,226.2 467.3,226 468.1,227.2 465.9,231.3 464.8,231.4 464.4,230.7 463.5,230.5 
		461.8,231.2 459.6,231.4 458.3,231.9 456.9,231.4 457.1,228.9 456.7,226.8 457.1,224.9 458.1,224 461.3,218.4 462.1,218 
		463.7,219.4 464.6,218.7 464.5,218 465,217.1 466.8,216.3 	"/>
	<polyline class="st0" points="200.8,-15.3 200.2,-14.2 199.8,-15.2 	"/>
	<polyline class="st0" points="204.6,-15.7 204.6,-14.4 203.4,-13.5 202.5,-14 201.8,-13.4 201.3,-15 	"/>
	<line class="st1" x1="151.4" y1="-14.8" x2="149.6" y2="-13.1"/>
	<polyline class="st0" points="149.6,-13.1 149.4,-13.4 148.6,-13.4 148.5,-14.3 149.1,-14.3 149.6,-15.2 	"/>
	<g>
		<polyline class="st0" points="556.3,512 557.5,511.3 559.2,511.7 560.4,513.7 560.1,515.4 558.5,515.8 556.5,514.8 555.7,512.8 
			556.3,512 		"/>
	</g>
	<g>
		<polyline class="st0" points="514.3,433 514.8,433.4 515.1,435.2 514.3,434.8 514.1,435.3 514.4,435.6 513.9,436 514.6,435.7 
			515,436 515.2,435.4 515.8,436.7 516.2,436.6 516.4,436.9 516,437 516.7,437.7 516.5,439.1 517.2,439.7 517.2,440.5 517.8,440 
			519.3,442.6 519.1,443.9 519.5,445.3 519.8,445.4 520.6,449.4 520.9,457.7 522.6,462 522.4,463.7 521.2,466.9 520.2,468.4 
			518.9,467.4 517.9,463.5 516.7,463.7 515.9,464.6 516.5,467.8 516.1,469.1 517.3,470.6 517.1,473.5 516,475 516.3,475.7 
			516.8,475.9 515,476.6 513.5,480 513.9,483.6 512.4,489.8 509.8,496 507.6,503 507.1,503.5 507.2,504.1 505.7,507.4 501.9,519.6 
			499.3,525.5 497.6,532.5 496.2,535.3 496.5,535.6 496,537.6 493.9,541.3 493.6,543.3 492,546.9 491.8,546.8 491.7,547.3 
			490.7,548.2 490.4,548.1 488.8,549.1 485.6,549.2 482.8,550.5 479.6,552.6 476.7,552.9 476.4,552.2 474,550.4 470.9,549.9 
			470.6,549.1 471.2,549.6 471.3,549.4 468.6,547.6 467.9,544.3 466.2,541.6 466.3,535.8 467.1,535.2 467.3,534.1 466.4,532.8 
			466.2,530.8 464.6,528.7 463.9,523.6 464.5,523.2 464.1,521.9 464.5,520.3 464.8,520.6 465,519.2 466,518.3 466.4,515.4 
			468.2,515 468.8,514.5 469.7,511.3 470.7,510.1 471.6,507.9 472.5,507.1 474.5,503.5 474.5,502.7 473.8,501.8 474.7,499.2 
			473,495.6 473.3,493.4 471.8,489.8 472,484.1 471.3,482.5 471.4,481.6 475.5,474.7 475.4,473.5 475.9,472.8 475.4,471.6 
			475.9,470.2 479,470.5 482.2,468 482.4,469.6 483.2,469.1 483.2,468.3 484.5,468.2 484.8,469 485,467.2 485.5,466.7 486.5,467 
			487.3,466.6 487.6,467.2 488.3,467.4 488.4,466.7 488.1,466.7 489.1,466 489.7,466.1 489.6,467 490.2,468.2 490.7,468.2 
			490.9,467.7 491.5,468.2 491.1,467.3 490.3,467 490.6,465.2 495.4,461.6 496.3,462.7 495.4,464.6 495.7,464.1 497.5,463.6 
			496.3,461.4 498.7,458.9 498.8,458.6 498.3,458.4 499.5,456.9 499.9,458.1 499.1,459.5 499.1,460.7 500.2,459.6 502.2,456.1 
			503.1,457.2 503.1,456.6 503.6,456.5 503.7,457.6 503.8,456.5 502.3,455.8 501.8,456.3 501.5,454.7 502.3,453 503.4,453.1 
			503.3,451.8 504,452.2 503.7,453.8 504.1,453.3 504.3,451.7 503.5,451 504.1,450.6 503.3,450.1 503.1,449.2 503.4,447.5 
			504,446.7 504.2,447.3 504.6,446.8 504.9,447.5 505.3,447.5 505.5,448.9 506.3,449.3 506.6,448.8 506.8,447 507.1,447.3 
			507.4,446.9 508.2,446.8 507.9,445.5 509.3,446.1 510.3,445.4 510.6,443.3 511.7,440.7 511.1,439.2 511.2,438.3 510.9,438.4 
			510.2,437.2 511.1,437.1 511.5,437.8 511.8,437.6 512.1,436.4 513.5,435.5 513.8,434.7 513.1,434.2 513.5,433.9 514,434.3 
			513.8,433.6 514.3,433 		"/>
		<polyline class="st0" points="516.7,478.2 517.1,476.5 518.3,474.7 516.7,478.2 		"/>
		<polyline class="st0" points="506.7,445.9 505.8,445.7 505.7,445.2 505.7,444.4 506.3,444.6 506.5,443.9 506.9,445 506.7,445.9 		
			"/>
	</g>
	<g>
		<polyline class="st0" points="441,398.3 440.6,397.8 441.6,396.6 442.3,396.4 442,396.4 443.1,395.2 442.4,397.5 441,398.3 		"/>
		<polyline class="st0" points="370.6,337.3 371.9,337.3 372.9,336.7 380.7,336.8 380.7,337.3 381,336.8 381.1,336.8 381.2,339.3 
			380.8,341 380.4,341 380.5,342.1 379.3,345.6 379.4,345.9 380,345.7 379.4,348.5 380.4,348.5 380.7,349.7 380.1,350.2 380.4,351 
			381.2,351 380.5,351.4 380.6,352.8 381.1,352.5 380.9,351.7 381.5,351.8 381.5,351.2 382.1,352.3 382.4,352.2 381.7,350.9 
			382.2,350.7 382.2,349.9 383.5,350.4 383.6,350 382.8,349.3 382.8,348.9 383.6,348.9 384,347.8 384.7,348 385.1,349.4 
			386.6,349.5 386.3,350.5 387.1,349.7 387.4,349 387.5,350.1 388.8,350.1 388.5,351.2 389,352.1 388.8,352.8 387.9,353.2 
			388.4,353.6 388.1,354.4 389.3,352.7 390.2,353.3 389.5,352.8 389.7,352.5 389,351.1 389.3,350.5 389.1,349.8 389.6,349.1 
			390.8,349 391.6,350.1 392.7,350 393.3,350.5 393.6,350 393.2,349.7 394.1,349.5 394.2,349 396.5,347.6 396.5,346.8 395.9,346.3 
			394.8,347.1 392.9,347.1 391.7,346.5 391.8,346 392.4,346.1 392.2,345.6 393.1,346 393.2,345.3 394.4,345.8 394.5,345.5 
			393.7,345.1 393.6,344.5 392.4,345 392.6,344.2 393.1,343.8 393.8,344.2 394.5,343.5 395.1,343.6 394.3,342.8 395.6,342.6 
			394.9,341.8 395.4,341.4 395.2,341 397.5,341.4 396.2,340.5 396.3,340.2 396.7,340.4 396.3,339.8 397.1,339.6 397.7,340 
			396.9,339 398.4,337.1 425.8,354.4 426.3,354.9 426.5,357 425.7,358.1 425.8,358.8 426.7,359 427.1,360.1 438,369 437.8,370 
			438.1,370.6 437.7,371.4 437.6,370.7 437.3,371.3 437.4,372.1 437.1,372.4 437.5,373 436.7,374 434.5,381.1 435.1,382.2 
			435,383.6 435.6,384.6 437.4,385.9 438.3,387.2 438.4,388.2 438.5,387.9 439.7,388.3 440.4,389.4 440.4,390.5 438.6,392.3 
			438,396.7 438.6,396 439.4,396.7 439.5,398.4 438.6,400.7 438.2,400.6 438.1,401 438.3,402.7 438.7,404.6 440.1,406.4 
			439.3,405.9 438.9,406.2 439.6,406.6 439.7,408.2 440.2,408 440.8,408.8 440.8,410.3 440.1,410.9 440.6,410.9 441,411.5 
			441.4,413.2 441.1,413.6 441.8,414.5 441.1,416.2 441.5,415.8 442.1,415.8 442.8,416.4 443.2,417.8 443.5,417 444.4,417.4 
			444.3,418.1 445.2,418.4 445.2,417.6 446.1,418.9 446.5,419 446.6,418.5 446.6,420.1 443.3,422.9 439.2,424.7 437.5,426.1 
			434.7,426.1 432.9,427 431.4,428.3 429.5,427.1 427.1,427.2 426.6,427.6 426.1,429.5 423.5,431 420.9,430.6 420.1,429.7 
			418.6,429.7 417.4,430.9 416.5,431.1 416,430.6 413.7,430.8 413.4,429.7 411.9,429 411.7,428.4 411,428.3 409.1,429.9 
			404.2,429.7 403.7,428.1 402.7,427.6 401.6,425.5 401.5,424.6 402.1,422.4 401.4,420.5 401.5,418.2 401,415.7 399.6,413.5 
			397.4,411.3 396.8,411.7 396.4,413.3 395.3,412.2 392.8,412.5 391.8,411.4 390.5,411.4 389.4,410.4 388.9,410.6 387.4,409.6 
			385.9,409.4 385,408.2 383.8,408.3 382.1,407.5 381.6,407.7 381.2,407.2 381.3,406.5 380.1,406.1 379.3,406.3 378.4,405.5 
			378.4,404.4 377,403.4 376.3,403.7 375.3,403.5 375.2,402 373.9,400.7 373.8,399.5 371,394.1 371.1,392.6 370.3,390.5 
			370.8,390.4 370.9,389.3 367.7,384.8 366.2,385.2 364.3,383 364.5,381.1 366.1,380 366.2,379.3 365.4,376.9 364.6,375.9 
			365.2,373.3 364.9,372.1 363.5,371.1 364,367 364.8,367.2 365.2,366.3 366.9,365.5 369.3,361.2 369.8,361.2 370.2,359.2 
			371.6,358.3 371.8,357.3 373.2,356.6 373.4,355.7 373,354.9 373.3,354.1 371.9,354.1 371.2,353.5 370.5,353.9 370,353.1 
			370.8,351.3 370.3,351.6 370.1,351.3 371.2,349.1 373.2,348.7 373.7,346.2 373.1,344.9 373.3,342.6 372.4,340.5 371.1,339.6 
			370.5,338.1 370.6,337.3 		"/>
		<polyline class="st0" points="442.1,373.7 441.7,373 442,372.6 441.6,372.3 441.7,370.9 442.7,371.9 443.1,371.1 442.9,374.2 
			442,376 441.3,375.5 441.7,374.9 441.5,374.5 442.3,374.2 441.4,373.7 442.1,373.7 		"/>
		<polyline class="st0" points="437.8,380.9 437.8,379.9 438.4,379.4 438.7,378.3 439.6,381.2 439.5,382.3 440.1,382.5 440.1,381.9 
			440.3,382.3 440.7,384.1 440.4,384.8 439.9,384.7 439.4,383.4 439.3,384 438.6,382.9 438.4,383.5 437.9,382.9 437.8,380.9 		"/>
	</g>
	<g>
		<polyline class="st0" points="446.7,420.1 447.3,420.2 447.2,420.8 448.2,421.9 447,422.6 447.9,423.3 447.1,424.1 447.5,425.1 
			447,426.4 445.8,427.5 446.8,428.2 446.3,430.3 447.1,433.4 446.9,435.3 446.4,435.6 447.2,436.9 446.5,437.9 447.1,438.1 
			447.5,439.1 447.2,439.5 447.7,440.1 447.1,440.3 446.8,441.4 446.3,441.2 445.9,441.9 446.5,442.4 446.6,441.8 447.2,442 
			446.7,444.9 447.1,445.5 446.6,446.7 447.1,447.2 446.7,447.9 447.4,451.2 447.1,452.1 446.5,452.5 446.9,453.3 447.8,452.7 
			448,453.4 447.9,454 447.3,454 447.1,455.9 447.6,454.8 448.5,454.6 448.7,455.3 448.1,455.7 448.6,455.7 448.7,457.1 448.6,458 
			447.5,458.9 447.1,458.6 448.1,459.6 447.2,459.7 447.5,460.5 446.3,460.9 446,461.4 446.9,461.2 447.3,461.9 446.4,464.1 
			442.4,468.5 442.8,468.5 441.6,470.5 440.1,471.2 440.5,472.4 439.7,472.5 439.2,473.3 434.8,476.2 434.5,477.2 432.4,477.8 
			431.2,477.6 431.2,478.1 427.4,479.8 427,479 426.7,479.1 426.9,480 425.2,480.6 419.7,483.9 418.1,486.2 417.4,485.1 
			416.9,485.1 417.8,486.8 414,491 413.2,492.3 413.3,493.1 412.4,493 412,492.3 412.2,494 411.3,494.1 411.1,493.2 410.4,494.1 
			410,494 409.6,494.6 409,494.6 409.2,494.8 407.6,496 405.7,498.7 402.3,501.9 401.1,502.4 399.5,500.2 398.9,500.1 398.8,500.4 
			399.4,500.3 400.5,502.2 400,502.8 400.4,502.8 400.4,505.1 399.5,505.1 400.1,505.7 399.8,507 399.4,507.1 399.9,507.8 
			399.5,508.4 400,508.3 400.8,509.6 401.1,509.5 400.9,509.9 401.7,509.9 402.2,511.9 402.7,511.9 402.5,513.3 402,513.5 
			402.5,514.4 402.1,514.7 402.4,515.3 402.8,514.1 402.7,516 403.7,518.1 404.1,522 403.7,524.6 404.3,525.6 404.4,523.6 
			405.1,522.1 405.4,524 405.6,522.9 405,527.2 405.2,529.6 405.8,529.4 404.8,531.6 403.9,536.6 403.5,536.1 403.3,538.5 
			403.8,537.5 404.3,537.9 404.5,537 404.9,537.1 404.5,539.8 401.9,543.6 400.6,544.6 386.9,550.2 383.7,552.9 383,555 
			381.9,556.1 381,556.3 381.1,556.5 381.5,556.3 383.6,559 384.4,557.2 383.7,563.9 378,563.8 378,556.6 377.2,556.1 376.9,554.5 
			377.7,553.3 378,542.7 377.2,540.1 377.1,538.2 376.4,537.5 375.8,535.3 374.9,534.1 375,531.5 373.3,524.9 382.1,515.2 
			382.7,515.5 381.8,513.6 383,511.8 382.9,509.1 383.4,508.6 384.3,508.5 385.9,506.1 386.2,504.6 387.1,503.9 387.4,501.8 
			386.9,501.4 386.8,500.6 385.8,500.9 386,499.3 385.5,499 386.3,495.8 386,495.1 385,495.1 385,494.5 385.1,493.4 386.7,492.9 
			386.6,490.8 387.5,490.2 387.9,489.2 387.3,488.3 387.5,487.7 387.1,485.9 388,482.8 387.3,481.7 388,480.5 386.7,476.8 
			387.7,474.9 386.1,474.9 385.7,474.5 385.7,473.9 383.3,472.7 379.7,472.3 379.6,471.7 378.2,470.4 376.1,470 374.8,468.7 
			373.8,468.5 372.8,469.1 372.2,468.6 368.3,468.6 368.3,465.3 367.9,464.6 368,462.9 367.2,461.7 366.9,459.6 371.8,457.7 
			376.7,456.5 378.4,455.4 390.3,451.1 390.9,451.5 390.9,452.3 392.1,454.5 393.5,456.2 394,455.3 394.8,455.7 398.9,454.4 
			400.1,456 400.7,459.8 400.5,462.2 399.2,464 399.1,465.5 397.9,466.7 397.7,467.5 399,469.1 399,470.9 400,471.3 400.3,472.1 
			403.2,475.6 404.2,475.9 404.2,476.9 403.6,477.5 403.8,478.3 405.3,478.5 405.4,474.9 404.3,473.4 405.2,472.5 405.6,470.6 
			406.4,469.8 407.4,470 409.7,468.8 410.2,463.8 409.9,461.6 410.8,458.8 410.5,456.7 404.7,448.2 403,446.7 403,445.6 
			402.5,444.9 402.7,442.8 402.3,441.7 402.8,439.9 402,437.4 402.1,435.1 403.4,433.7 404.2,429.7 409.1,429.9 411,428.3 
			411.7,428.4 411.9,429 413.4,429.7 413.7,430.8 416,430.6 416.5,431.1 417.4,430.9 418.6,429.7 420.1,429.7 420.9,430.6 
			423.5,431 426.1,429.5 426.6,427.6 427.1,427.2 429.5,427.1 431.4,428.3 432.9,427 434.7,426.1 437.5,426.1 439.2,424.7 
			443.3,422.9 446.7,420.1 		"/>
		<polyline class="st0" points="405,519.4 404.9,518.8 405.4,517.1 405,519.4 		"/>
	</g>
	<g>
		<polyline class="st0" points="388.9,410.6 389.4,410.4 390.5,411.4 391.8,411.4 392.8,412.5 395.3,412.2 396.4,413.3 396.3,414.2 
			396.9,416.3 399,419.7 398.4,421 398.5,426.4 399.2,430.6 397.2,433.5 396.9,435.2 397.1,436.5 397.9,437.1 398.1,439.2 
			399.1,441.5 398.8,445.5 399.6,447.2 400.3,447.2 401.1,448.4 400.4,450.9 401,452.6 401.7,453.4 402.3,453.1 403,451 
			403.5,452.3 404.2,452.5 405.7,454.5 406.1,454 404.6,448.7 403,448.5 403,446.7 404.7,448.2 410.5,456.7 410.8,458.8 
			409.9,461.6 410.2,463.8 409.7,468.8 407.4,470 406.4,469.8 405.6,470.6 405.2,472.5 404.3,473.4 405.4,474.9 405.3,478.5 
			403.8,478.3 403.6,477.5 404.2,476.9 404.2,475.9 403.2,475.6 400.3,472.1 400,471.3 399,470.9 399,469.1 397.8,467.6 
			397.9,466.8 399.1,465.5 399.2,464 400.5,462.2 400.7,459.8 400.1,456 398.9,454.4 394.8,455.7 394,455.3 393.5,456.2 
			392.1,454.5 390.9,452.3 390.9,451.5 390.3,451.1 389.8,450.4 388.7,451.3 388.2,449.9 386.9,448.9 387.3,448.4 387,447.9 
			386.2,447.4 387.4,446.8 388.9,444 388.7,443.1 389,441.4 388.5,440.2 389.3,438.7 390.4,438.8 391,438.1 391.7,438.1 
			393.1,436.6 392.6,436.2 391.8,436.2 391.1,434.6 391.6,431.3 391.5,429.9 390.9,429.7 391,428.3 392.2,426 391.1,423.6 
			393.1,422.7 394.6,420.8 393.5,419 393.5,417.7 391.8,416.4 392.1,414.5 391.1,413.3 390.9,412.4 390.3,412.3 390.1,412.9 
			389.4,412.5 389.5,411.5 389,411.3 388.9,410.6 		"/>
		<polyline class="st0" points="402.1,433.5 402.7,433.7 402.1,434.5 402.1,433.5 		"/>
		<polyline class="st0" points="401.2,433.2 401.8,433.5 401.4,434.1 401.2,433.2 		"/>
	</g>
	<g>
		<polyline class="st0" points="357,468.3 357.8,468.1 359.5,466.5 361.9,465.6 363.9,465.2 366.8,465.6 368.3,465.3 368.3,468.6 
			372.2,468.6 372.8,469.1 373.8,468.5 374.8,468.7 376.1,470 378.2,470.4 379.6,471.7 379.7,472.3 383.3,472.7 385.7,473.9 
			385.7,474.5 386.1,474.9 387.7,474.9 386.7,476.8 388,480.5 387.3,481.7 388,482.8 387.1,485.9 387.5,487.7 387.3,488.3 
			387.9,489.2 387.5,490.2 386.6,490.8 386.7,492.9 385.1,493.4 385,494.5 385,495.1 386,495.1 386.3,495.8 385.5,499 386,499.3 
			385.8,500.9 386.8,500.6 386.9,501.4 387.4,501.8 387.1,503.9 386.2,504.6 385.9,506.1 384.3,508.5 383.4,508.6 382.9,509.1 
			383,511.8 381.8,513.6 382.7,515.5 382.1,515.2 373.3,524.9 372.3,524.1 370.5,523.9 365.8,524.3 361.8,522.5 358.7,523 
			357.9,521.9 356.5,521.5 356.4,519.5 353.2,518.2 352.3,518.3 348.6,517.4 347.8,515.3 346.2,513 346.5,508.1 344.6,507.8 
			343.3,508.1 343.4,505.8 342.9,504.6 339.3,503.1 336.2,500.7 336.2,500 334.9,499.5 333.5,495.9 333.6,494.4 332.5,493.3 
			332.2,491.6 330.3,489.7 329.4,487.3 328.7,486.7 328.2,485.4 328.4,484.4 330.2,484.9 331.7,484.5 333.7,486.2 335.7,485.1 
			339.4,486.8 341.9,485.8 346.5,480.3 346.7,479.3 348.2,477 352.1,474.7 355.4,473.4 356.2,472 356.3,469 357,468.3 		"/>
	</g>
	<g>
		<polyline class="st0" points="373.1,554 376.2,556.2 377.2,556.1 378,556.6 378,563.8 377.1,563.6 376.6,566.2 376.7,568 
			373.4,568 370.6,566.9 369.3,565.3 368.8,563.2 368.2,563.5 368.3,560.1 371,555.6 373.1,554 		"/>
	</g>
	<g>
		<polyline class="st0" points="351,579.1 354.1,582.4 356,583.6 356.9,585.8 356.6,586.4 355.7,587 355.6,588.2 354.4,589.1 
			354.4,590.8 351.9,592.3 348.5,593 347.3,594 347.5,594.7 346.7,595.5 346.1,597.3 343.6,596.8 341.5,594.3 341,594.4 
			341.2,592.8 340.7,592.7 340,591.5 338.5,588.3 341.1,587 344.4,582 345.2,582 345.7,581.5 346.2,581.8 347.6,580.2 348.8,580.1 
			349.4,579.5 351,579.1 		"/>
	</g>
	<g>
		<path class="st0" d="M358.7,523l3-0.5l4,1.8l4.7-0.4l1.8,0.3l1,0.8l1.7,6.5l-0.1,2.7l0.9,1.2l0.6,2.1l0.8,0.7v1.9l0.8,2.6
			l-0.4,10.6l-0.7,1.2l0.2,1.5l-0.9,0.2l-3-2.2l-1,0.5l-1.3,1.2l-2.5,4.3l-0.2,3l0.1,0.6l0.5-0.4l0.5,2.1l1.2,1.6l2.8,1h3.3
			l-0.1-1.7l0.5-2.6l0.9,0.2l5.7,0.1l-2.1,6.5l-1,4.9l-1.3,2.2l-0.2,1.2l-2.3,2.3h-0.7l0.1,0.3l0.4-0.2l-0.5,0.6l-1.7,0.5l-3.2,3.6
			l-3,4.9l0.4-0.1l-1.5,1.7l-3.8,6.7l-3.1,3.9l-3.1,2.6l-1.7,0.9l-4.3,5.2l-4,3.7l-1.6,0.8l-2,2.2l-6,4.2l-4.3,2l-1.7,0.1l-2.3-0.5
			l-1.7,0.4l-1.1,1.4l0.6,1l-4.9-0.5l-0.8,0.3l-0.8,1.8l-8.7-1.9l-1.8,0.4v0.7l-2.3-0.2l-0.5-0.4l0.3,0.4h-0.6l-1-0.3l-0.4-0.6H305
			l0.2,0.4l-1.5-0.3l-0.8,0.5l-2.4,0.3l-0.1,0.8l-1.4,0.4l-0.4,1l-0.7,0.4l-2-0.3l-1.7,0.7l-2.6-0.6l-1,0.3l0.4,0.5l-2.7,0.1
			l-3.2,2.4l-0.5,0.8l-1-0.6l-1.5,0.2l-1.9-1.5l-0.7,0.1l0.4-1l-0.4-0.7l-1.3-0.2l0.2-0.9l-2.3,0.7l0.3-1.9l-0.4-0.6l-2.3,0.1
			l-0.4,0.6l0.3,1.6l-1.2-1.7l0.3-0.9l-0.2-0.2l0.5-1l0.8-0.3l-0.3-1.6l-0.9-1.9l-2.4-3l0.2-0.6l0.9,1.1l-0.7-1.6l-0.9,0.2l-0.3-1.8
			l0.9-1.1l1.2,0.6l1.2-1.4l0.5-2.8l-0.4-3.5l-0.4-1.5l-2.9-4.5l-3.7-7.5l-3.3-11.1l-1.5-1.9l-0.3-1.2l-0.7-0.8l0.1-0.5l1.4-1
			l0.4,0.2l0.5-1.2l-0.2-0.7l0.9-0.9v-0.7l1.4-0.5l0.9,0.8l0.2,1.1h1l0.3,1.2l-0.6,0.8l0.7,1.1l-0.1,1l1.3-0.2l0.4,0.8l2.1,0.1
			l1.9,1l4.1-0.6l1.7,0.2l1.3,0.8l1.2-0.5l-0.2-1.4l1.4-0.3l0.9-1.5l3.3-1l0.7-32.1l2.9,2.5l1.2,2.9l0.9,0.8l-0.3,0.2l0.2,1.2l1,2.1
			l0.4,2.4l-1.9,2.7l-0.1,2.1l0.6,1.8l1.6-0.9l1.7,0.6l1.9-0.4l2.2,0.4l0.8-0.6v-1l2-0.4l1.7-2.6l0.8-0.2l0.5-0.8l0.8-0.1l0.8-1
			l0.8-1.2l-0.1-0.8l0.5-0.5l-0.3-0.4l0.7-1l0.2-1.7l1.4-1.5l3.3-0.2l3.3,3l0.7-0.1l0.1,0.3l1.5-0.3l1.1,1.1l0.8-0.1l1.7,0.8
			l1.6-0.1l1-0.7l2.5,0.2l1.3-0.7l1.2-1.8l0.9-2.5l0.8-2.5v-1.4l4.1-1l1.2-1.7l2.2-1.6l1-4.8l0.3-0.6l0.4,0.2l0.6-1.2l1.6-1.1
			l1.5-0.2l0.6-1.4h1.1l0.2-0.8l1.2-0.7l0.1-0.8l0.8-0.5l1.1-1.9l1.3-0.9l2-0.2l2.2-0.9l1-2L358.7,523 M349.4,579.5l-0.6,0.6h-1.2
			l-1.3,1.6l-0.5-0.2l-0.5,0.5h-0.8l-3.3,5l-2.5,1.3l1.5,3.2l0.7,1.2l0.5,0.1l-0.2,1.6h0.6l2,2.5l2.6,0.5l0.5-1.8l0.8-0.8l-0.2-0.6
			l1.3-1.1l3.4-0.6l2.5-1.5v-1.7l1.1-0.9l0.2-1.2l0.9-0.6l0.2-0.6l-0.8-2.2l-0.7-0.2l-2-1.7l-0.6-1l-1.1-0.8l-0.3-0.9L349.4,579.5z"
			/>
	</g>
	<g>
		<polyline class="st0" points="225.1,479.6 225.5,479.7 227.5,478.6 228.2,478.6 228.9,479.3 231.2,479.5 233.8,477.6 235.8,477 
			238.3,477.5 238.7,478.5 242.1,481.1 243.6,481.1 243.8,480.7 275.8,480.8 276.4,480.9 278.6,483.8 279.9,484.5 281.8,484.4 
			284.7,485 285.6,484.7 286.3,485.2 286.7,484.9 288.5,485.2 290.7,484.9 292.3,486 294.4,486.5 297,485.6 299.1,486.2 
			314.8,482.9 320.6,481.6 323.1,482 323.9,481.7 326.7,482.5 328.4,484.4 327.7,484.2 326.8,484.7 326.1,484.3 324.3,485.2 
			322.9,486.6 321.5,485.7 321,486.4 320.3,486.3 318.1,487.8 315.7,490.4 315,488.5 314.1,487.8 313.3,486.1 299.7,488.7 
			295.7,488.9 295.2,520.7 293.9,521.2 287.6,521.3 287.2,545.6 286.5,577.7 283.2,578.7 282.3,580.2 280.9,580.5 281.1,581.9 
			279.9,582.4 278.5,581.6 276.9,581.4 272.7,581.9 270.8,580.9 268.7,580.8 268.3,580 267,580.2 267.1,579.2 266.4,578.1 
			267,577.3 266.7,576.1 265.7,576.1 265.5,575 264.6,574.3 263.2,574.8 263.2,575.5 262.3,576.4 262.5,577.1 262,578.3 
			261.6,578.1 260.2,579.1 259.8,579.4 259.2,578.9 254.8,574.3 251.4,568.1 251,565 249.9,562.6 249.9,562 250.3,562.3 
			250.5,561.7 250,560 249,559.4 248.8,557.7 249.1,556.9 248.1,554.3 248.4,552.6 247.9,550.1 248.3,548.1 247.7,545.9 
			246.4,543.9 246.5,543 245.4,539.9 245.8,537.5 245.2,533.7 245.7,533 245.1,530.1 245.3,529.1 245.5,530.1 246,529.1 
			245.9,526.1 244.2,522.3 241.7,519.4 241,516.9 237.6,511.3 235.9,505.4 234.9,504.3 230.3,494.1 229.1,492.3 227.1,490.3 
			226.4,488.2 225.5,486.9 224.8,483 225.1,479.6 		"/>
	</g>
	<g>
		<polyline class="st0" points="317.8,488.5 318.1,487.8 320.3,486.3 321,486.4 321.6,485.7 322.5,486.7 322.9,486.6 324.3,485.2 
			326.1,484.3 326.8,484.7 327.7,484.2 328.4,484.4 328.2,485.4 328.7,486.7 329.4,487.3 330.3,489.6 332.2,491.6 332.5,493.3 
			333.6,494.4 333.5,495.9 334.9,499.5 336.2,500 336.2,500.7 339.3,503.1 342.9,504.6 343.4,505.8 343.3,508.1 344.6,507.8 
			346.5,508.1 346.2,513 347.8,515.3 348.6,517.4 352.3,518.3 353.2,518.2 356.4,519.5 356.5,521.5 357.9,521.9 358.7,523 
			356.2,523.3 355.2,525.3 352.9,526.2 350.9,526.4 349.6,527.3 348.5,529.2 347.7,529.7 347.6,530.5 346.4,531.2 346.2,532 
			345.1,532 344.5,533.4 343,533.6 341.4,534.7 340.9,535.9 340.5,535.7 340.1,536.3 339.1,541.1 336.8,542.7 335.6,544.4 
			331.5,545.4 331.5,546.8 330.7,549.2 329.8,551.8 328.7,553.5 327.4,554.3 324.9,554.1 323.9,554.8 322.2,554.9 320.6,554.1 
			319.8,554.2 318.7,553.1 317.2,553.4 317.1,553.1 316.5,553.1 313.2,550.1 309.8,550.3 308.5,551.8 308.3,553.6 307.6,554.6 
			307.9,555 307.4,555.4 307.5,556.2 306.7,557.4 305.9,558.4 305.2,558.4 304.6,559.2 303.8,559.5 302.1,562 300.1,562.4 
			300.1,563.4 299.4,564 297.2,563.6 295.3,564 293.6,563.4 292,564.3 291.4,562.5 291.5,560.4 293.4,557.7 293.1,555.3 292,553.2 
			291.9,551.9 292.2,551.8 291.3,551 290.1,548.1 287.2,545.6 287.6,521.3 293.9,521.2 295.2,520.7 295.7,488.9 299.7,488.7 
			313.3,486.1 314.1,487.8 315,488.5 315.5,490.4 317.8,488.5 		"/>
	</g>
	<g>
		<polyline class="st0" points="370.8,400.2 370.7,401 370,401.5 369.7,402.2 370.1,402.9 370.8,402.8 370.4,403.4 371.5,402.5 
			374.3,405.3 375.1,404.5 375.5,404.8 375.3,403.5 376.3,403.7 377,403.4 378.3,404.4 378.4,405.5 379.3,406.3 380.1,406.1 
			381.3,406.5 381.2,407.2 381.6,407.7 382.1,407.5 383.8,408.3 385,408.2 385.9,409.4 387.4,409.6 388.9,410.6 389,411.3 
			389.5,411.5 389.4,412.5 390.1,412.9 390.3,412.3 390.9,412.4 391.1,413.3 392.1,414.5 391.8,416.4 393.5,417.7 393.5,419 
			394.6,420.8 393.1,422.7 391.1,423.6 392.2,426 391,428.3 390.9,429.7 391.5,429.9 391.6,431.3 391.1,434.6 391.8,436.2 
			392.6,436.2 393.1,436.6 391.7,438.1 391,438.1 390.4,438.8 389.3,438.7 388.5,440.2 389,441.4 388.7,443.1 388.9,444 
			387.4,446.8 386.2,447.4 387,447.9 387.3,448.4 386.9,448.9 388.2,449.9 388.7,451.3 389.8,450.4 390.3,451.1 378.4,455.4 
			376.7,456.5 372,457.7 366.9,459.6 367.2,461.7 368,462.9 367.9,464.6 368.3,465.3 366.8,465.6 363.9,465.2 361.9,465.6 
			359.5,466.5 357.8,468.1 357,468.3 356.3,469 356.2,472 355.4,473.4 352.1,474.7 348.2,477 346.7,479.3 346.5,480.3 341.9,485.8 
			339.4,486.8 335.7,485.1 333.7,486.2 331.7,484.5 330.2,484.9 328.4,484.4 326.7,482.5 323.9,481.7 323.1,482 320.6,481.6 
			314.8,482.9 312.4,481.3 305,473.2 303.7,470.1 304,442.3 319.6,442.2 318.6,440.5 319.1,438.2 319.9,436.8 319.4,435.3 
			319.7,431.9 319.4,430.4 320.3,428.1 319.6,423.5 320.7,423.9 320.7,424.9 322.1,425.1 322.7,425.6 322.8,427.1 322,428 
			323.1,428.7 324.1,428.5 325.4,427.4 330,426.4 329.6,427.9 330.1,430.2 331.1,430.8 331.2,431.4 332.2,431 333,431.6 334,431.6 
			334.9,432.5 337.4,432.9 338.3,432.6 340.6,433.6 342.5,432.5 343,429.9 344.3,429.7 344.6,431.5 346.3,433 346.8,435 347.8,436 
			348.8,436.1 349.3,435.7 350.3,436.7 353,437.3 353.7,437.9 354.4,439.2 354.1,439.9 354.6,441.2 355.5,440.8 356.5,442.1 
			358,445.6 359,445.6 359.5,446 362.5,444.2 363.2,444.6 362.8,445.9 364.1,446.2 364.3,434.8 361.8,435.6 361.5,436.4 362.1,437 
			361.9,437.4 360.1,436.6 358.3,436.8 356.2,433.3 354.3,432.3 353.3,429.5 354.9,423.2 356,421.6 355.5,420.4 355.5,418.4 
			355.1,417.8 356.1,414 355.6,413.4 355.4,411.9 354.7,410.9 354.8,410.2 353.6,409.4 355.5,407.9 357.5,405.7 358.3,404.1 
			357.8,402.5 370.8,400.2 		"/>
	</g>
	<g>
		<polyline class="st0" points="323.8,283.2 324.8,283.9 325.3,284.8 326.2,284.8 327.5,284.2 328.4,284.5 328.9,283.9 330.3,283.8 
			330.7,281.4 332.1,280.8 334.8,282.6 335.4,282.1 336.1,282.3 336.7,281.8 337.9,282.8 338.6,282.8 339.4,283.6 341.2,283.3 
			342.3,283.8 342.9,282.8 344,282.3 346.5,283.3 346.9,283.9 349.4,286 349.5,287.6 350.1,288 351.4,288 351.7,289.1 352.2,289 
			352.8,289.8 353.8,289.8 354.2,290.4 356.2,289.1 357.2,287.9 357.5,288.6 359,288.5 360.8,289.8 362.2,288.3 362.6,286.9 
			363.9,287.2 365.2,287.9 365.1,289.6 366.2,290 366.3,290.7 367.8,292 368.4,293.2 370.9,294 371.1,296.3 372.7,295.7 
			373.4,297.3 373.9,297.1 374,298.1 372.7,301.3 373.4,301.9 373.6,303.1 372.5,306.4 373.1,306.5 373.6,307.5 374.3,306.8 
			375,307.8 376.1,307.8 376.9,309.3 374.8,312.6 372.2,314.9 370.4,317.3 368.9,317.8 368,320 366.5,320.8 366.5,323.7 
			365.7,324.9 365.4,326.5 364.6,327.5 363.9,335.7 363.5,336.1 363.7,340.2 362.6,341.2 361.8,341.3 361.1,342.4 360,344.3 
			360.3,346.2 359.9,347.7 358,349.1 358.2,351.3 359.2,352.1 358.9,352.7 360.8,354.9 360.6,357.3 360.1,357.6 359.7,364.9 
			359.3,365.8 360,366.1 360.8,363.6 360.5,367.6 360.2,367.5 359.8,368.6 359.6,372.6 361.7,377.5 361.4,377.5 361.3,379.1 
			360.2,380 360.3,381.4 360.9,381.8 362,384.9 362.5,385.3 362.9,387.4 364.8,389.9 366.2,390.5 367.4,391.6 368.5,397 
			370.4,398.8 370.8,400.2 357.8,402.5 358.3,404.1 357.5,405.7 355.5,407.9 353.6,409.4 354.8,410.2 354.7,410.9 355.4,411.9 
			355.6,413.4 356.1,414 355.1,417.8 355.5,418.4 355.5,420.4 356,421.6 354.9,423.2 353.3,429.5 354.3,432.3 356.2,433.3 
			358.3,436.8 360.1,436.6 361.9,437.4 362.1,437 361.5,436.4 361.8,435.6 364.3,434.8 364.1,446.2 362.8,445.9 363.2,444.6 
			362.5,444.2 359.5,446 359,445.6 358,445.6 356.5,442.1 355.5,440.8 354.6,441.2 354.1,439.9 354.4,439.2 353.7,437.9 353,437.3 
			350.3,436.7 349.3,435.7 348.8,436.1 347.8,436 346.8,435 346.3,433 344.6,431.5 344.3,429.7 343,429.9 342.5,432.5 340.6,433.6 
			338.3,432.6 337.4,432.9 334.9,432.5 334,431.6 333,431.6 332.2,431 331.2,431.4 331.1,430.8 330.1,430.2 329.6,427.9 330,426.4 
			325.4,427.4 324.1,428.5 323.1,428.7 322,428 322.8,427.1 322.7,425.6 322.1,425.1 320.7,424.9 320.7,423.9 319.6,423.5 
			318.6,424.9 315.8,424.3 312.6,425.5 310.8,425.1 309.8,425.5 308.3,425 307.9,425.8 306.1,426.8 306.1,425.3 305.6,423.4 
			306.7,422.5 306.3,420.2 306.7,419 305.6,415.2 304.5,414.5 303.4,412.9 302.8,410.6 303.3,409.1 303.3,406.3 304,402.5 
			303.8,401 302.6,398.2 303.4,393.7 302.8,392 293.2,391.9 293.9,388.7 291.6,388.7 291.4,389.5 285.5,389.5 285.1,392.1 
			285.4,393.7 284.9,394.5 284.2,394.7 284.2,398.3 279.6,398.2 279.4,397.7 277.8,397.7 277.5,398.1 276.5,398.4 274.5,398.5 
			274.4,399.2 272.6,398.7 270.5,399.1 269.9,399 269.2,397.2 268.2,396.1 268,395 267.3,394.4 266.9,393.6 267.2,393.3 
			266.6,393.1 265.4,391.3 265.2,390.1 265.5,389.5 263.5,384.7 263.7,382.4 262.9,381.5 262.6,379.9 260.7,379.4 250,379.5 
			247.2,379.9 242.9,379.6 242.4,379.3 238.4,379.4 237.6,379.7 236.3,379.4 233.9,379.2 233,379.5 232.5,380.4 230.5,381 
			230.6,380.4 230.1,380.6 228.8,378.7 231.2,378.2 231.3,373.1 230.7,372.4 232.5,371.3 233.6,369.6 235.5,369 235.6,368.7 
			235.8,368.2 236.8,369.5 237.8,370.1 238.1,370.9 238.8,369.9 239.5,370 240.5,369.2 240.6,367.1 241.2,366.8 242.3,367.5 
			243.1,366.6 244,366.6 245.8,365.6 245.8,366.1 246.4,366.9 245.5,368 245.9,369 245.9,370.9 246.5,370.5 247.8,371.1 249,370.3 
			252,366.1 253.9,365.5 254.6,363.6 257.4,362.5 259.9,357.3 259.6,353.5 260,350.9 259.7,347 262.3,344.4 265,338.9 269,336.3 
			271.5,332.8 271.5,329.3 272.3,326.4 273.4,324.6 272.7,319.2 274.2,314.5 274.4,308.6 278.5,300.3 278.5,297.4 278.3,295.4 
			278.7,292.6 277.8,290 279.4,289.5 281.9,285 284.6,282.9 286.8,282.9 287.8,283.3 288.3,284.1 291.8,286.1 292.6,287.3 
			292.7,288.3 293.7,289.2 296.5,289 298.4,290.3 299,289.9 301,290.7 302.5,290.3 307.3,291.7 308.2,291.6 308.8,290.9 
			309.4,289.7 309.2,288.8 310,288.6 310.7,286.6 311.3,286.6 311.6,285.7 312.1,285.6 313,286.6 313.8,286.5 314.5,287.4 
			315.6,287.6 316.8,286.5 322.1,284.7 322.4,284.1 323.2,283.8 322.9,283.5 323.1,283.1 323.4,283.5 323.8,283.2 		"/>
	</g>
	<g>
		<polyline class="st0" points="482,440.7 481.6,439.9 482,439.2 483,440 482.6,442.1 481.8,441.9 481.7,441.3 482.3,441.5 
			482,440.7 		"/>
		<polyline class="st0" points="477.6,436.8 475.4,434.9 476.6,435 477.4,434.1 477.6,436.8 		"/>
		<polyline class="st0" points="472.6,436.8 471.1,436.5 470.8,435.7 471.9,436 472.6,436.8 		"/>
		<polyline class="st0" points="469.6,432.9 468.2,431.9 467.8,431.2 468.2,428.5 468.8,427.9 469.3,428.2 469.1,430.1 469.9,432.4 
			469.6,432.9 		"/>
	</g>
	<g>
		<polygon class="st0" points="430.1,169.1 429.9,168.8 429.7,169.2 428.8,168 427.4,168 428,167.3 427.5,167.8 427,167.6 
			425.3,165.2 423.9,164 423.8,164.3 423.6,163.7 421.8,163.4 421.2,162.4 419.4,156 419.5,154.3 418.9,152.3 418.7,150.1 
			419,147.5 417.7,143.1 417.8,141.6 418.8,142.4 419.1,143 418.6,142.8 418.9,143.4 419.4,143.4 419.4,143 417.5,140.7 
			416.2,138.1 415.6,135 415.9,134.7 415,133.4 412.5,131.8 410.8,129.3 407.7,128 406.4,126.3 405.9,124.8 403,127.9 401,127.3 
			399.3,132.1 395.4,132.9 394.7,134.7 394.2,136.5 390.8,137.1 387.7,134.7 374.7,134.7 375,133.2 374.5,132.7 373.6,134 
			373.3,134.7 325.6,134.7 326,152.3 319.6,152.3 318.4,152.8 318.4,156.7 319.1,190.1 316.5,189.6 314.2,190.2 312.3,190 
			310.9,191.5 311.4,193.1 311,195.2 310.3,195.5 309,197.5 309.2,198.9 307.5,199.5 306.8,200.1 307.3,200.8 307.3,202.6 
			308.2,203 308.2,203.9 305.8,205.3 304.7,207 306.3,210.7 305.3,212.1 303.8,213.1 302.8,215.5 303.7,216.9 305.1,216.8 
			305.8,216 307.7,217.1 307.1,218.5 308,221 307.8,222.2 309.1,222 308.5,225.9 310.4,227.8 311.4,227.8 311.7,228.9 311,232 
			312.1,234 314.4,236.2 317.2,241.4 317.1,246.4 315.9,247.4 315.6,248.8 316,249.3 316.4,248.9 316.6,249.2 316.1,250.7 
			316.2,251.4 321.7,251.7 321.9,252.6 321,254.4 321.3,254.9 323.5,255.4 324.1,255.9 326.3,256.1 328.2,258.5 329.6,259 
			330,260.7 329.2,261.4 329.3,262.1 331.4,264 335.8,266.5 336.4,268 338.6,269.6 337.9,271.7 339.6,273.5 339,274.5 339.5,274.3 
			339.9,275 341.3,275.2 342.2,276.2 344.4,277.3 345.5,279 345.3,281.2 346.9,283.3 346.9,283.9 349.4,286 349.5,287.6 350.1,288 
			351.4,288 351.7,289.1 352.2,289 352.8,289.8 353.8,289.8 354.2,290.4 356.2,289.1 357.2,287.9 357.5,288.6 359,288.5 
			360.8,289.8 362.2,288.3 362.6,286.9 363.9,287.2 365.2,288 365.1,289.6 366.2,290 366.3,290.7 367.8,292 368.4,293.2 370.9,294 
			371.1,296.3 372.7,295.7 373.4,297.3 374.3,295.6 375.9,294.7 376.8,294.7 378.7,295.9 379.9,295.4 380.7,294.4 381.7,295.6 
			381.8,296.4 382.7,296.5 383.6,297.1 383.8,296.3 385.3,295.1 387.8,295 390,293.9 391.4,294.9 394,295 397.7,290.9 400.7,287.5 
			402.2,285.9 407.4,284.1 408.3,283.2 408.1,284.2 409.3,284.5 409.6,286.1 410.8,287.4 412.7,287.4 411.4,285.5 411.8,281.3 
			409.3,280.3 408.1,281 407.7,280.7 407.5,279.6 406.2,278.5 405.2,276.4 405,274.5 402.9,269.3 401.6,268.7 401.1,267.2 
			399.6,266.7 398.7,265 397.6,264.3 397.6,263.1 395.2,260.7 393.2,260 392.2,260.2 390.9,259.5 390,259.6 389.5,258.4 391,256.5 
			390.8,254.3 391.1,253.9 394.3,253.6 395.5,254.5 397.1,253.8 398.2,252.6 397.8,244.2 399.7,238.1 399.2,235.2 400.3,233.3 
			401.4,232.4 402.8,233.6 402.9,234.1 403.6,233.6 404.4,232.4 404.1,231.6 404.6,229.8 404.3,229.1 405.2,226.5 404.9,225 
			405.2,224.1 406.3,223.4 407,222.3 409.6,216.7 413.1,216.4 413.1,213.3 413.7,210.6 414.9,208.5 415.8,202.7 414.8,195.1 
			416.2,192.2 416.5,189.9 418.5,185 417.8,182.8 418.7,180 418.4,178.1 419.7,178.5 421.7,178.3 422.4,176.9 422.3,175.8 
			424,175.3 424.6,174.4 425.3,174.7 426.4,173.8 426.9,174.4 427.3,173.7 427.9,174 429.4,171 430.4,169.9 		"/>
	</g>
	<g>
		<polyline class="st0" points="444.2,191.2 441.7,190.8 441.5,190.1 442.1,190.6 442.5,190.4 442,189.8 441.3,189.6 442.1,188.9 
			441.5,188.4 442.5,188.7 442.6,189.3 442.9,189.1 443.2,190.6 444.1,190.5 443.6,190.3 443.9,190 445,190.6 445.1,191.2 
			444.2,191.2 		"/>
		<polyline class="st0" points="430.4,169.9 433.8,177.2 434.9,180.7 436.2,187.5 437.5,189.2 437.8,191.5 438.5,191.5 439,192 
			439.8,194 439.9,195.4 440.6,195.6 440.9,194.8 440.6,193.8 440.4,193.9 440.2,192.8 441,191.9 442.6,193.3 442.3,194.1 
			443.4,196.4 444.4,197 445.1,196.3 446,196.5 446.1,196.2 446.9,196.7 446.9,197.2 447.5,197.1 448.1,198.9 448.8,198.7 
			451.2,199.5 455.3,205.5 457.5,206.3 458.7,208.1 459.7,208.9 459.3,207.9 460.1,208.8 460.9,211.9 461.7,212.1 462.1,211.8 
			463.7,213.5 464.2,215.1 465.4,215.6 465.9,214.8 466.8,216.3 465,217.1 464.5,218 464.6,218.7 463.7,219.4 462.1,218 
			461.3,218.4 459.6,216 457.7,214.7 456.1,211.7 451.9,208.4 450.7,206.2 448.7,203.8 446,202.7 444,201.1 443.1,200.9 
			441.6,201.2 440.7,200.5 439.7,200.6 438.8,200 438.3,200.5 436.7,200.7 436.4,201.2 435.7,199.6 434.8,199.3 434.6,199.9 
			433.7,200.6 430.4,201.3 429.5,200.5 428.8,199 427.1,198.6 426.1,197.3 423.7,204 421.4,201 420.2,201.2 419.9,202.4 
			419.4,202.7 417.3,202.1 415.8,202.7 414.8,195.1 416.2,192.2 416.5,189.9 418.5,185 417.8,182.8 418.7,180 418.4,178.1 
			419.7,178.5 421.7,178.3 422.4,176.9 422.3,175.8 424,175.3 424.6,174.4 425.3,174.7 426.4,173.8 426.9,174.4 427.3,173.7 
			427.9,174 429.4,171 430.4,169.9 		"/>
	</g>
	<polyline class="st0" points="527.5,237.3 527.6,240.1 526.9,243.7 527.2,245.1 525.9,246.9 525.8,248.3 524.2,250.1 523.5,253 
		521.9,256 519.8,258.1 519.7,260 515.2,269 514.2,271.7 514.1,273.7 512.6,276.8 507.7,284.9 506.2,288.3 495.6,301.6 490.9,306.7 
		481.5,312.9 472.5,321.2 464.4,330.7 461.2,335.1 460.5,335.3 459.8,336.8 459.6,335.9 459.7,337 459.1,338.5 458.6,338.3 
		458.7,339 456.5,342.7 456.4,341.9 452.2,335.7 452,303.6 452.3,302.7 454.4,300.5 459,293 459.4,292.1 460.6,291.2 462.7,291.1 
		466.4,290.2 467.3,288.3 468.8,286.9 472.6,285 475.2,284.4 482.7,284.7 498,266 505.6,257.7 497.9,257.7 474.5,248.8 471.7,246 
		470,245.2 469.7,244.2 468.8,243.3 468.2,241.2 467.3,240.8 466.6,239.3 465.3,238.1 464.8,236.2 463.8,234.6 465.9,231.3 
		468.1,227.2 468.4,227 469.1,227.9 470,228.1 470.1,229.5 472.7,233.1 476.3,236.2 477.2,236.5 479.9,236.1 481.6,236.4 
		484.4,234.3 485.4,234.3 487.7,232.5 490.2,233.4 491.4,233.3 492.2,234 493.1,234.1 494.6,233.5 500.1,229.8 501.4,229.9 
		502.4,230.4 505.4,230.2 507.6,228.9 509.8,228.5 511.7,229.2 	"/>
	<polyline class="st0" points="511.7,229.2 515.8,228.4 516.9,227.4 520.9,226.8 523.5,225.3 	"/>
	<polyline class="st0" points="415.8,202.7 417.3,202.1 419.4,202.7 419.9,202.4 420.2,201.2 421.4,201 423.7,204 426.1,197.3 
		427.1,198.6 428.8,199 429.5,200.5 430.4,201.3 433.7,200.6 434.6,199.9 434.8,199.3 435.7,199.6 436.4,201.2 436.7,200.7 
		438.3,200.5 438.8,200 439.7,200.6 440.7,200.5 441.6,201.2 443.1,200.9 444,201.1 446,202.7 448.7,203.8 450.7,206.2 451.9,208.4 
		456.1,211.7 457.7,214.7 459.6,216 461.3,218.4 458.1,224 457.1,224.9 456.7,226.8 457.1,228.9 456.9,231.4 458.3,231.9 
		459.6,231.4 461.8,231.2 463.5,230.5 464.4,230.7 464.8,231.4 465.9,231.3 463.8,234.6 464.8,236.2 465.3,238.1 466.6,239.3 
		467.3,240.8 468.2,241.2 468.8,243.3 469.7,244.2 470,245.2 471.7,246 474.5,248.8 497.9,257.7 505.6,257.7 498,266 482.7,284.7 
		475.2,284.4 472.6,285 468.8,286.9 467.3,288.3 466.4,290.2 462.7,291.1 460.6,291.2 459.4,292.1 459,293 453.3,293.4 450.3,290.3 
		445.1,293 443.5,294.3 440.5,298 439.1,297.3 435.7,297 432.9,296 432.3,296.3 429.8,296.2 421.1,289.6 418.7,289 413.5,288.9 
		412.7,287.4 411.4,285.5 411.8,281.3 409.3,280.3 408.1,281 407.7,280.7 407.5,279.6 406.2,278.5 405.2,276.4 405,274.5 
		402.9,269.3 401.6,268.7 401.1,267.2 399.6,266.7 398.7,265 397.6,264.3 397.6,263.1 395.2,260.7 393.2,260 392.2,260.2 
		390.9,259.5 390,259.6 389.5,258.4 391,256.5 390.8,254.3 391.1,253.9 394.3,253.6 395.5,254.5 397.1,253.8 398.2,252.6 
		397.8,244.2 399.7,238.1 399.2,235.2 400.3,233.3 401.4,232.4 402.8,233.6 402.9,234.1 403.6,233.6 404.4,232.4 404.1,231.6 
		404.6,229.8 404.3,229.1 405.2,226.5 404.9,225 405.2,224.1 406.3,223.4 407,222.3 409.6,216.7 413.1,216.4 413.1,213.3 
		413.7,210.6 414.9,208.5 415.8,202.7 	"/>
	<polyline class="st0" points="397.7,290.9 398.4,292.1 398.5,293.9 399.5,294 399,294.4 399.1,294.8 399.7,294.7 400.1,295.4 
		400.6,295.2 401.3,295.8 400.9,298.2 401.3,300 402.1,300.6 402.4,302.2 403.7,303 404.3,305.1 404.7,305.2 405.1,306 404.9,306.6 
		404.7,307.1 404.8,307.5 405.5,309.7 405.5,309.8 405.5,310.7 405.8,311.1 405.6,313.4 404,315.7 404.3,317.1 402.5,317.9 
		402.3,318.4 402,318.2 401.7,318.8 401.3,320.3 400.3,321.3 399.9,322.4 399.4,322.5 399.1,322.7 398.7,325 397.9,326 397.7,325.7 
		396.4,326.6 396.3,326 395.7,326.3 395.9,325.7 395.5,325.6 396,325.3 395.5,325.1 395,325.2 394.9,326 394.5,326.4 394,326 
		393.9,326.3 393.3,325.5 394,325.6 394,325.2 392.6,324.8 393.2,323.8 392.5,324.2 392.3,323.8 391.6,324.3 392.2,324.7 
		391.3,325.3 391.1,326.1 390.7,325.7 390.5,326 390.8,326.4 390,327.2 389.4,327.3 389.2,326.3 388.5,327 387.6,327.2 388.1,326.5 
		388,326.2 387.5,326.5 387.4,325.4 386.8,326.3 386.8,327.6 386.2,327.3 385.7,327.7 385.8,327 385.3,327.3 385.2,328.2 
		384.4,327.6 384.6,328.2 384,327.7 383.8,328.6 382.5,328.4 382.9,328.8 381.8,329.2 382.6,330.8 381.2,332.2 380,335.1 
		380.5,335.6 380.7,336.8 372.9,336.7 371.9,337.3 370.6,337.3 369.7,337.3 368.1,339.8 366.6,340.9 366.1,340.9 365.6,339.6 
		365.3,340 363.7,340.2 363.5,336.1 363.9,335.7 364.6,327.5 365.4,326.5 365.7,324.9 366.5,323.7 366.5,320.8 368,320 368.9,317.8 
		370.4,317.3 372.2,314.9 374.8,312.6 376.9,309.3 376.1,307.8 375,307.8 374.3,306.8 373.6,307.5 373.1,306.5 372.5,306.4 
		373.6,303.1 373.4,301.9 372.7,301.3 374,298.1 373.9,297.1 373.4,297.3 374.3,295.6 375.9,294.7 376.8,294.7 378.7,295.9 
		379.9,295.4 380.7,294.4 381.7,295.6 381.8,296.4 382.7,296.5 383.6,297.1 383.8,296.3 385.3,295.1 387.8,295 390,293.9 
		391.4,294.9 394,295 397.7,290.9 	"/>
	<polyline class="st0" points="369.3,338 369.7,337.3 370.6,337.3 370.5,338.1 371.1,339.6 372.4,340.5 373.3,342.6 373.1,344.9 
		373.7,346.2 373.2,348.7 371.2,349.1 369.8,348.2 369.2,348.7 368.5,348.6 367.9,349.3 366.4,348.3 366.2,351.3 365.6,352.3 
		361.9,352.8 361.6,351.3 360.1,350.8 359.5,350.9 359.2,352.1 358.2,351.3 358,349.1 359.9,347.7 360.3,346.2 360,344.3 
		361.1,342.4 361.8,341.3 362.6,341.2 363.7,340.2 365.3,340 365.6,339.6 366.1,340.9 366.6,340.9 368.1,339.8 369.3,338 	"/>
	<polyline class="st0" points="369.6,348.5 370.2,348.3 371.2,349.1 370.1,351.3 370.3,351.6 370.8,351.3 370,353.1 370.5,353.9 
		371.2,353.5 371.9,354.1 373.3,354.1 373,354.9 373.4,355.7 373.2,356.6 371.8,357.3 371.6,358.3 370.2,359.2 369.8,361.2 
		369.3,361.2 366.9,365.5 365.2,366.3 364.8,367.2 364,367 361.5,361.1 361.6,357.7 360.6,357.3 360.8,354.9 358.9,352.7 
		359.2,352.1 359.5,350.9 360.1,350.8 361.6,351.3 361.9,352.8 364.7,352.6 366,351.7 366.4,348.3 367.9,349.3 368.5,348.6 
		369.6,348.5 	"/>
	<polygon class="st0" points="452.2,335.7 452,303.6 452.3,302.7 454.4,300.5 459,293 453.3,293.4 450.3,290.3 445.1,293 
		443.5,294.3 440.5,298 439.1,297.3 435.7,297 432.9,296 432.3,296.3 429.8,296.2 421.1,289.6 418.7,289 413.5,288.9 412.7,287.4 
		410.8,287.4 409.6,286.1 409.3,284.5 408.1,284.2 408.3,283.2 407.4,284.1 402.2,285.9 400.7,287.5 400.7,287.5 397.7,290.9 
		398.4,292.1 398.5,293.9 399.5,294 399,294.4 399.1,294.8 399.7,294.7 400.1,295.4 400.6,295.2 401.3,295.8 400.9,298.2 401.3,300 
		402.1,300.6 402.4,302.2 403.7,303 404.3,305.1 404.7,305.2 405.1,306 404.9,306.6 404.7,307.1 404.8,307.5 405.5,309.7 
		405.5,309.8 405.5,310.7 405.8,311.1 405.6,313.4 404,315.7 404.3,317.1 402.5,317.9 402.3,318.4 401.9,318.3 401.7,318.8 
		401.3,320.3 400.3,321.3 399.9,322.4 399.4,322.5 399.1,322.7 398.7,325 397.9,326 397.5,327.2 397.9,328.4 398.4,328.9 
		398.9,328.6 398.6,329.4 399.8,330.3 400.1,331.5 400.9,330.5 400.6,329.7 401.8,329.6 403.2,328.8 403.6,328.8 404.5,330.6 
		403.7,330.6 403.6,331 401.4,331 401.8,332.1 401.2,332.6 400.9,332 400.5,332.3 399.4,331.7 399.1,332.6 398.4,333 398.2,334.4 
		399.3,335.7 398.8,336.8 398.2,336.9 398.6,336.9 398.4,337.1 425.8,354.4 426.3,354.9 426.5,357 425.7,358.1 425.8,358.8 
		426.7,359 427.1,360.1 438,369 438.8,368.5 439.5,368.7 439.5,368.2 439.8,367.8 439.9,368.2 440.6,366.8 441.6,364 440.8,363.5 
		441.3,363.4 441.2,362.9 441.6,362.9 441.8,363.5 442.1,363.1 441.8,362.4 442.5,362.5 443.2,360.4 442.5,359.5 443.3,359.7 
		444.1,357.1 444.2,357.6 445.2,356.7 446.1,354.2 445.8,354.3 445.6,353.5 446.2,351.4 448,350.3 449.3,350.4 450.7,349 
		450.4,348.1 451,347.6 451.7,348.1 451.5,348.4 451.8,348.2 452,347.7 451.5,347.4 451.1,345.3 451.7,346.2 452.1,344.8 452,345.6 
		452.3,346 453.8,345 454.5,345.2 456.5,342.7 456.4,341.9 	"/>
	<path class="st0" d="M397.9,244.5l0.2,8.1l-1,1.1l-1.6,0.7l-1.2-0.9l-3.2,0.3l-0.3,0.4l0.2,2.2l-1.5,1.9l0.5,1.2h0.9l1.3,0.7l1-0.3
		l2,0.8l2.4,2.4l0.1,1.2l1.1,0.7l0.9,1.7l1.5,0.5l0.5,1.5l1.3,0.6l2.1,5.2l0.2,1.8l1,2.1l1.4,1.1l0.1,1.1l0.4,0.3l1.2-0.7l2.5,1
		l-0.4,4.3l1.3,1.8h-1.9l-1.3-1.3l-0.3-1.6l-1.2-0.3l0.2-0.9l-0.9,0.8l-5.1,1.9l-1.6,1.6l-3,3.4L394,295l-2.6-0.1l-1.4-1l-2.2,1.1
		l-2.5,0.1l-1.6,1.1l-0.2,0.9l-0.9-0.7h-0.9l-0.2-0.8l-1-1.2l-0.8,0.9l-1.2,0.5l-1.9-1.2l-0.9-0.1l-1.7,0.9l-0.9,1.7l-0.7-1.6
		l-1.6,0.6l-0.2-2.2l-2.6-0.8l-0.5-1.2l-1.5-1.3l-0.1-0.7l-1.1-0.5l0.1-1.6l-1.4-0.8l-1.3-0.3l-0.4,1.4l-1.5,1.6l-1.8-1.3l-1.5,0.1
		l-0.4-0.6l-1,1.2l-2,1.3l-0.4-0.6h-1l-0.6-0.8l-0.4,0.1l-0.3-1.2h-1.3l-0.6-0.4l-0.2-1.6l-2.5-2.1v-0.6l-1.5-2.2l0.1-2.2l-1.1-1.7
		l-2.2-1.1l-0.8-1l-1.4-0.2l-0.4-0.7l-0.5,0.2l0.6-1l-1.7-1.8l0.7-2.1l-2.2-1.6l-0.6-1.4l-4.4-2.5l-2.1-1.9l-0.2-0.7l0.8-0.7
		l-0.4-1.7l-1.4-0.5l-1.9-2.4l-2.2-0.3l-0.6-0.5l-2.2-0.5l-0.3-0.5l0.9-1.8l-0.2-0.9l-5.6-0.3l-0.1-0.7l0.6-1.5l-0.2-0.3l-0.4,0.3
		l-0.4-0.5l0.3-1.4l1.2-1l0.1-3.4h0.3c0.9,0,1.8,0,2.8,0l0,0c0.1,0.1,0.1,0.1,0.2,0.1s0.1,0,0.2-0.1c0-0.1,0.1-0.2,0.2-0.3
		c0,0,0-0.1-0.1-0.1l0,0c0,0,0,0,0-0.1s0-0.1,0.1-0.2c0,0,0.1,0,0.2-0.1c0.1,0.2,0.3,0,0.5-0.1c0.1-0.1,0.1-0.2,0.3-0.2
		c0.1,0,0.2,0,0.3,0c0,0,0.2-0.1,0.3-0.1c0.2,0,0.3,0,0.4,0.1c0,0,0,0,0.1,0l0,0v0.1l0,0c0,0,0,0,0.1,0l0,0l0,0c0.1,0,0.1,0,0.1,0
		c0-0.1,0-0.1,0-0.1c0.1,0,0.1-0.1,0.2-0.1l0,0l0,0c0-0.1,0-0.1,0-0.1l0,0c0.2,0,0.3-0.1,0.4-0.1l0,0c0,0,0,0,0-0.1l0,0
		c0.1,0,0.1,0,0.2,0.1h0.1c0,0.1,0.1,0.2,0.1,0.2l0,0c0.1,0,0.1,0,0.2,0.1v-0.1l0,0c0.1,0,0.1,0,0.2-0.1c0.1,0.1,0.2,0.1,0.3,0.1
		l0.1,0.1c0.1-0.1,0.1,0,0.2,0s0.2-0.1,0.2-0.1l0,0c0.1,0,0.1,0,0.2-0.1c0-0.1,0-0.1,0-0.1l0.2-0.1c0.1,0,0.1,0.2,0.2,0.2
		c0,0,0.2,0.1,0.3,0.1c0.1,0,0.2,0,0.3,0.1c0-0.1,0-0.1,0-0.2l0,0c0,0,0,0,0.1,0h0.1c0.1,0,0.3-0.1,0.4-0.1l0,0c0-0.1,0-0.1,0.2-0.1
		c0,0,0-0.1,0-0.2l0,0c0,0.1,0,0.1,0.1,0.1l0,0c0,0,0,0-0.1,0l0,0c0.1,0,0.1,0,0.1,0s0,0,0.1-0.1l0,0v-0.1h0.1l0.1-0.1l0.1-0.2
		c0.2-0.1,0.1-0.2,0.1-0.3c0,0,0,0.1,0.1,0v-0.1c0.1,0.1,0.1,0,0.2,0c-0.1,0,0-0.1-0.1-0.2c0.1,0,0.1,0,0.1-0.1l0,0
		c0.1,0,0.1,0,0.1-0.1c0,0,0.1,0,0.1,0.1c0-0.1,0-0.1,0-0.2c-0.1,0,0,0.1-0.1,0.1l0.1-0.1h-0.1c0-0.1,0-0.2,0.2-0.2
		c0-0.1,0-0.2,0-0.2l0.1,0.1c0.1-0.1,0-0.1,0.1-0.1v-0.1c0.1-0.1,0-0.6-0.3-0.6c0,0,0-0.1-0.1-0.1c0.1-0.1,0.1-0.1,0.2-0.2
		c-0.1-0.1-0.1-0.1,0-0.2c-0.1-0.2-0.1-0.1,0-0.2l0,0c0-0.1,0-0.1,0-0.2c0,0,0.1-0.7,0.4-0.4c0-0.2,0-0.2,0.2-0.3
		c0.1,0.1,0.1,0.1,0.2,0.1c0,0.1,0,0.1,0.1,0.1c0-0.1,0-0.1,0-0.2c0.1-0.1,0.1,0.1,0.1-0.1c0,0,0,0.1,0.1,0.1c0.1-0.1,0-0.1,0.1-0.1
		c0-0.2,0-0.1,0.1,0c0,0,0-0.1,0.1-0.1v0.1c0.1,0,0.1,0,0.1,0s0,0,0,0.1c0.1,0,0.1-0.1,0.2,0c0-0.1,0-0.2,0-0.2c0.1,0,0.2,0,0.2,0
		c0.1,0,0.1,0,0.2,0.1c0-0.1,0.1-0.2,0.2-0.1v-0.1c0.1,0.1,0.1-0.1,0.1,0.1c0.1-0.1,0.1-0.1,0.2-0.2c0,0.1,0.1,0.1,0.1,0.2
		c0.1-0.1,0.1-0.1,0.1,0v-0.1c0.2,0.1,0.1,0.1,0.2,0l0,0c0.1,0.2,0.1,0.2,0.2,0.2c0,0,0-0.1,0-0.2c0.1,0.1,0.2,0.1,0.2,0.1
		c0-0.1,0-0.1,0.1-0.2l0.1,0.1c0.1,0,0-0.1,0.1,0c0-0.1,0.1-0.1,0.1-0.2c0,0,0,0.1,0.1,0.1s0-0.1,0-0.1l0.1,0.1c0-0.1,0-0.1,0.1-0.2
		v0.1c0.1-0.1,0.4,0,0.4,0c0.1,0,0.1-0.2,0.1-0.2l0.1-0.1l0,0c0,0.1,0,0.2,0.1,0.2l0.1,0.1v-0.1c0.1,0,0.2,0,0.2,0s0.1,0,0.1,0.1
		c0.1,0,0.1-0.1,0.1-0.1s0,0,0.1-0.1l0,0l0,0l0,0l0,0l0,0c0,0.1,0,0.1,0,0.1s0,0,0,0.1l0,0c0.1-0.1,0.1,0,0.1-0.1l0,0
		c0,0.1,0.1,0.1,0.1,0.1l0,0c0,0,0.1,0,0-0.1l0,0l0,0l0.1,0.1l0,0l0,0l0,0v-0.1c0,0,0.2,0,0.1,0l0,0c0.1,0.1,0.1,0.1,0.1,0.2
		c0.1,0,0.1-0.1,0.1-0.1l0,0v0.1c0.1,0,0,0,0.1,0.1l0,0c0-0.1,0-0.1,0.1-0.1s0.1-0.1,0.1-0.1l0,0c0,0,0,0,0-0.1l0,0
		c0,0,0,0.1,0.1,0.1l0,0l0,0l0,0l0,0l0,0l0,0l0,0l0,0l0,0l0,0l0,0l0,0l0,0l0,0l0,0l0,0l0,0l0,0l0,0l0,0l0,0l0,0l0,0l0,0l0,0l0,0l0,0
		l0,0l0,0l0,0l0,0l0,0l0,0l0,0l0,0l0,0l0,0l0,0l0,0l0,0l0,0l0,0l0,0l0,0l0,0l0,0l0,0l0,0l0,0l0,0l0,0l0,0l0,0l0,0l0,0l0,0l0,0l0,0
		l0,0v1.3v0.4h0.1h0.1h0.1c0.6,0.3,0.6,0.6,1,1.2l0.2,0.3l0.3,0.2l0.2,0.2l0.3,0.3l0.1,0.4l0.1,0.4l0.1,0.4l0.1,0.4l0.1,0.3
		c0.1,0.4,0.1,0.5,0.4,0.8l0.1,0.1l0.1,0.1l0.1,0.1l0.1,0.1h0.1c2.7,0.7,2,1,4.5-0.2l0.4-0.2l0.4-0.1c1.4-0.3,3.7,0,5.2,0.1h0.3h0.3
		l0.6-0.1l0.2,0.4l0.2,0.4l0.2,0.4l0.2,0.4l0.2,0.4l0.2,0.4h0.3c1.6,0,3.2,0,4.8,0h0.3v-0.3v-0.2l0.2-0.3l0.2-0.2v-0.1v-0.1v-0.1
		V244l0,0l0,0l0.3-0.3c0.5-0.5,1.2-0.9,1.4-1.6l0,0l0,0l0,0l0,0l0,0h0.1l0,0l0,0l0,0l0,0l0,0l0,0l0,0l0,0l0,0l0,0l0,0l0,0l0,0l0,0
		l0,0l0,0l0,0l0,0l0,0l0,0l0,0l0,0l0,0l0,0l0,0l0,0l0,0l0,0l0,0l0,0l0,0l0,0l0,0l0,0l0,0l0,0c0,0,0,0,0-0.1l0,0l0,0l0,0l0,0l0,0l0,0
		l0,0l0,0l0,0l0,0l0,0l0,0l0,0l0,0l0,0l0,0l0,0l0,0l0,0l0,0l0,0l0,0l0,0l0,0l0,0l0,0l0,0l0,0l0,0l0,0l0,0l0,0l0,0l0,0l0,0l0,0l0,0
		l0,0l0,0l0,0l0,0l0,0l0,0l0,0l0,0l0,0l0,0l0,0l0,0l0,0l0,0v-0.1l0,0l0,0l0,0l0,0l0,0l0,0l0,0h0.4c0.8,0,1.6,0,2.4,0h0.4v-0.6v-0.5
		v-0.5v-0.5v-0.4V239l0.4-0.2l0.4-0.2c3.6-2,1.7-1.9,5.5,0.5l0.4,0.3l0.3,0.2c1,0.7,1.9,1.6,2.8,2.4l0.1,0.1l0.2,0.1l0,0l0,0l0,0
		l0,0l0,0l0,0l0,0l0,0l0,0l0,0l0,0l0,0l0,0l0,0l0,0l0,0l0,0l0,0l0,0l0,0l0,0l0,0l0,0l0,0l0,0l0,0l0,0l0,0l0,0l0,0h1
		c0.8,0,1.7,0.1,2.5-0.1h0.1h0.1c0.6-0.4,0.9-1.2,1.4-1.7l0.3-0.4l0.2-0.3l0.3-0.4l0.2-0.3c0.7-1.2,1.4-1.5,1.9-2.8l0.3-0.6l0.3-0.6
		l0.3-0.6l0.3-0.2l0.3-0.2l0.3-0.2l0.3-0.2l0.4-0.4l0.3-0.4l0.4-0.4l0.4-0.4l0.3-0.3l0.3-0.3l0.4-0.4l-0.3-0.6l-0.3-0.6
		c0-1.2-0.1-2.4-0.1-3.6v-0.5v-0.5c-0.6-0.5-1.2-1.1-1.8-1.7l-0.3-0.3l-0.3-0.2h0.4c1.4,0,2.8,0,4.2,0h0.4l0,0l0,0v-0.1v-0.1l0,0
		l0,0l0,0v-0.1v-0.1v-0.1l0,0l0,0l0,0v-0.1l0,0l0,0v-0.1l0,0l0,0l0,0l0,0V222l0,0l0,0l0,0l0,0l0,0v-0.1l0,0c0-0.1-0.1-0.2-0.1-0.3
		l0,0l0,0v-0.1l0,0l0,0l0,0l0,0v-0.1l0,0l0,0l0,0l0,0v-0.1l0,0l0,0c0-0.2,0-0.3-0.1-0.4l0,0l0,0l0,0h0.3c1.2,0,2.5,0.1,3.7,0.1h0.4
		c0,0.1-0.1,0.2-0.2,0.2s-0.1,0.1-0.1,0.1l0,0l0,0c0,0.1-0.1,0.1,0,0.3v0.3l-0.1,0.3l-0.1,0.5l-0.1,0.5l-0.1,0.4l-0.1,0.5l-0.1,0.5
		l-0.1,0.5l-0.1,0.4l-0.1,0.3l-0.1,0.4l0.1,0.4l0.1,0.4l0.1,0.4l0.1,0.4c0.3,1.6,0.5,3.3,0.8,4.9l0.1,0.4l-0.2,0.4l0.5,0.3l0.5,0.3
		c1.9,0.8,1.3,1.5,2.6,2.7l0.3,0.3l0.4,0.3l0.2,0.4l0.2,0.3l0.2,0.4l0.2,0.3l0.2,0.1h0.1l0,0h0.1l0.1,0.1h0.1v0.1l0,0l0,0l0,0l0,0
		l0,0v0.1l0,0l0,0l0,0v0.1l0,0c0.5,0.4,0.1,1.7,0,2.2c-0.1,0.3-0.3,0.5-0.4,0.7c-0.2,0.5-0.2,1.4-0.2,2c0,0.1,0,0.2,0,0.2h2.4"/>
	<polyline class="st0" points="307.1,231.8 307.8,231.4 311,232 312.1,234 314.4,236.2 317.2,241.4 317.1,246.4 315.9,247.4 
		315.6,248.8 316,249.3 316.4,248.9 316.6,249.2 316.1,250.7 316.2,251.4 321.7,251.7 321.9,252.6 321,254.4 321.3,254.9 
		323.5,255.4 324.1,255.9 326.3,256.1 328.2,258.5 329.6,259 330,260.7 329.2,261.4 329.3,262.1 331.4,264 335.8,266.5 336.4,268 
		338.6,269.6 337.9,271.7 339.6,273.5 339,274.5 339.5,274.3 339.9,275 341.3,275.2 342.2,276.2 344.4,277.3 345.5,279 345.3,281.2 
		346.9,283.3 346.9,283.9 346.5,283.3 344,282.3 342.9,282.8 342.3,283.8 341.2,283.3 339.4,283.6 338.6,282.8 337.9,282.8 
		336.7,281.8 336.1,282.3 335.4,282.1 334.8,282.6 332,280.8 330.7,281.4 330.2,283.8 328.9,283.9 328.4,284.5 327.5,284.2 
		325.4,284.8 324.2,283.4 323.6,283.1 323.4,283.5 323.1,283.1 322.9,283.5 323.2,283.8 322.4,284.1 322.1,284.7 316.9,286.5 
		315.8,287.1 315.6,287.6 314.5,287.4 313.8,286.5 313,286.6 312.1,285.6 311.6,285.7 311.3,286.6 310.7,286.6 310,288.6 
		309.2,288.8 309.4,289.7 308.8,290.9 308.2,291.6 307.3,291.7 302.5,290.3 301,290.7 299,289.9 298.4,290.3 296.5,289 293.7,289.2 
		292.7,288.3 292.6,287.3 291.8,286.1 288.3,284.1 287.8,283.3 286.8,282.9 284.7,282.9 281.9,285 279.4,289.5 277.8,290 
		278.7,292.6 278.3,295.4 278.5,297.4 277.4,296 277.1,296.4 275.8,296.6 275.5,297.3 275,297.4 274.7,296.8 273.2,296.6 
		272.6,296.9 272.3,296.2 270.7,296.1 269.6,295.4 267.7,296.5 263.3,297 262.6,297.6 261.9,300.3 262,303 259.8,308.5 258.9,306 
		258.9,302.5 257.7,300.7 256.6,300.6 252.4,295.7 250.8,292.7 251.9,292.4 251.2,291.6 251,290.2 250.5,289.3 248.3,287.4 
		247.9,282.5 246.8,281.5 247.4,279.5 247.4,276.2 246.4,276 245.9,274.9 245.9,274.5 248.8,272.4 249.9,269.3 250.8,268.5 
		252.1,264.5 253.9,263 254.2,261.9 255.7,261.9 256.3,262.5 257.9,262.1 258.6,261.3 261.2,260.5 261.2,259.5 262.4,258.8 
		262.9,260.5 264.4,261.7 264.9,261 266.4,260.3 266.8,260.5 267.8,259.3 270.8,257.8 272.6,258.1 273.9,257.6 278.1,257.3 
		278.6,256 279.9,255.3 282.2,251.8 280.2,250.3 280.6,249.7 282,248.8 286.5,248.8 288.4,248.4 289.8,247.6 291.4,248 292.3,247.7 
		293.1,246.1 294,246.3 294.1,245.8 295.2,245.3 296.5,243.6 296.8,242.4 297.4,242.2 298.5,240.5 299.5,240.3 300.6,238.4 
		301.8,238 302.3,236.6 302.1,234.6 304.2,233.7 304.5,232.9 305.6,233 306.1,232.2 307.1,231.8 	"/>
	<g>
		<polyline class="st0" points="210.2,307.4 210.4,308.2 211.5,308.9 222,308.9 222,319.2 211.6,319.2 211.3,319.9 210.1,319.2 
			210,318.7 210.4,318.6 209.4,318.4 209.4,318.1 208.4,318.9 208.1,318.1 207,318.3 206.6,317.7 208.6,314.1 209.6,314 
			208.9,314.1 208.6,313.6 210.2,311.1 209.8,309.6 209.9,307.7 210.2,307.4 		"/>
		<polyline class="st0" points="201,296.1 201.7,294.9 203.2,295.1 203.6,295.5 201.4,299.9 199.7,299.4 199.4,298.7 199.8,297.6 
			200.6,297.5 201,296.1 		"/>
	</g>
	<g>
		<polyline class="st0" points="233.2,366.6 234,366.7 235.6,368.7 235.5,369 233.6,369.6 232.5,371.3 230.7,372.4 231.3,373.1 
			231.2,378.2 228.8,378.7 228.3,377.4 228.9,376.1 227.4,372.3 228,372 227.3,372.1 228.5,370.8 228.7,369.9 229.7,370.1 
			230.2,368.5 232.2,368 233.2,366.6 		"/>
		<g>
			<polyline class="st0" points="241.1,379.4 242.4,379.3 242.9,379.6 247.2,379.9 250,379.5 260.7,379.4 262.6,379.9 262.9,381.5 
				263.7,382.4 263.5,384.7 265.5,389.5 265.2,390.1 265.4,391.3 266.6,393.1 267.2,393.3 266.9,393.6 267.3,394.4 268,395 
				268.2,396.2 269.2,397.2 269.9,399 270.5,399.1 272.6,398.7 274.4,399.2 274.4,398.5 277.4,398.2 277.8,397.7 279.4,397.7 
				279.6,398.2 284.2,398.3 284.2,394.7 284.9,394.5 285.4,393.7 285.1,392.1 285.5,389.5 291.4,389.5 291.6,388.7 293.9,388.7 
				293.2,391.9 302.8,392 303.4,393.7 302.6,398.2 303.8,401 304,402.5 303.3,406.3 303.3,409.1 302.8,410.6 303.4,412.9 
				304.5,414.5 305.6,415.2 306.7,419 306.3,420.2 306.7,422.5 305.6,423.4 306.1,425.3 306.1,426.8 307.9,425.8 308.3,425 
				309.8,425.5 310.8,425.1 312.6,425.5 315.8,424.3 318.6,424.9 319.6,423.5 320.3,428.1 319.4,430.4 319.7,431.9 319.4,435.3 
				319.9,436.8 319.1,438.2 318.6,440.5 319.6,442.2 304,442.3 303.7,470.1 305,473.2 312.4,481.3 314.8,482.9 299.1,486.2 
				297,485.6 294.4,486.5 292.3,486 290.7,484.9 288.5,485.2 286.7,484.9 286.3,485.2 285.6,484.7 284.7,485 281.8,484.4 
				279.9,484.5 278.6,483.8 276.4,480.9 275.8,480.8 243.8,480.7 243.6,481.1 242.1,481.1 238.7,478.5 238.3,477.5 235.8,477 
				233.8,477.6 231.2,479.5 228.9,479.3 228.2,478.6 227.5,478.6 225.5,479.7 225.1,479.6 225.6,473 225.5,468.5 224.9,467.2 
				225.3,466.6 225.9,466.6 227,464.9 227.4,461.8 228.1,461.3 227.9,460.7 229.1,457.5 229.6,451.6 230.2,450 230.8,449.8 231,446 
				234.2,442.2 234.5,440.4 236,438.8 237.4,438.7 238.3,437.8 238.7,436.6 239.7,435.7 240.8,431.9 240.9,427.7 241.4,424.6 
				240.4,422.6 240.8,421.9 238.9,419.5 238.7,418.3 237.2,415.6 237.3,415 236.3,413.2 236.5,412.6 235.9,410 234.7,407.8 
				235,406.8 235.8,406 234.9,407.8 236.5,405.2 236.7,405 236.4,405.5 237.8,404.8 237.5,402.5 237.8,401.7 233.8,391.7 
				233.5,388.8 231.4,386.4 229,381.6 229.4,381.2 229.3,381.8 233.3,380.8 234.7,379.8 236.3,379.4 237.6,379.7 238.4,379.4 
				241.1,379.4 			"/>
		</g>
	</g>
	<polyline class="st0" points="269.1,295.7 269.7,295.4 270.7,296.1 272.3,296.2 272.6,296.9 274.5,296.7 275.1,297.4 275.8,296.6 
		277.1,296.4 277.4,296 278.5,297.4 278.5,300.3 274.4,308.6 274.2,314.5 272.7,319.2 273.4,324.6 272.3,326.4 271.5,329.3 
		271.5,332.8 269,336.3 265,338.9 262.3,344.4 259.7,347 260,350.9 259.6,353.5 259.9,357.3 257.4,362.5 254.6,363.6 253.9,365.5 
		252,366.1 249,370.3 247.8,371.1 246.5,370.5 245.9,370.9 245.9,369 245.5,368 246.4,366.9 245.8,366.1 245.8,365.6 244,366.6 
		243.1,366.6 242.3,367.5 241.2,366.8 240.6,367.1 240.5,369.2 239.5,370 238.8,369.9 238.1,370.9 237.8,370.1 236.8,369.5 
		235.8,368.2 235.6,368.7 234,366.7 233.2,366.6 232.2,368 230.2,368.5 229.7,370.1 228.7,369.9 228.5,370.8 227.3,372.1 225.7,370 
		225.4,367.9 220.5,362.5 221.1,360.4 222.7,359.5 223.2,358.8 223.9,359.1 224.7,360.4 226.1,360.6 226.5,360 225.9,359.3 
		226.9,357.2 224.8,355.9 225,354.7 225.6,354.4 224.4,352.8 223.6,353 224.4,351.1 223.9,348.5 225.2,349.2 226.9,348.5 
		227.5,349.2 230.8,348.3 231.1,346.4 230.7,345.9 230.6,344.7 231,344.9 232.1,344 233.5,344.8 234.3,347.2 235.1,348 234.8,348.8 
		235.2,348.5 238.6,349.4 239.7,348.4 240.8,346.4 242.1,348.7 241.7,349.7 243.5,349.9 243.9,349 244.6,348.6 243.9,347.7 
		244.6,346.8 244.7,345.4 246,344.6 246.3,342.8 245.7,342.2 246.4,341.6 246.6,340.4 246.2,339.8 246.4,338.8 245.8,337 
		246.7,333.3 245.8,332.1 244.1,331.9 243.7,330.5 242.4,330.1 241.9,330.3 241.5,329.6 242.2,328.4 241.8,326.2 242.3,325 
		243.1,324.3 243.4,323.3 244.7,323.2 245.3,322.6 246.4,320 245,318 244.8,316.4 244.1,315.8 241.2,315.4 240.9,315.9 240,316.1 
		238.9,316.8 238.2,316.6 237.1,317.2 236.1,317.1 236.8,316.3 236,314.1 236.4,312.1 236.2,311.3 237.1,310 237.2,309 245.4,308.9 
		246,309.3 247.1,308.6 248.6,309.9 249.4,309.5 249.6,310.4 250.3,310.2 251.1,310.6 252,310.1 253,311.1 254.2,310.7 255.9,311 
		257.3,312.2 258.2,312.4 258.7,313.4 259.4,312.8 258.7,310.7 258.8,309.1 259.8,308.5 262.1,303 261.9,300.3 262.7,297.4 
		263.5,296.9 265.9,296.9 268.5,296.3 269.1,295.7 	"/>
	<g>
		<polyline class="st0" points="184.7,327.8 184.2,325.7 185.4,324.5 185.9,324.5 186.4,325.1 186.4,326 184.7,327.8 		"/>
		<polyline class="st0" points="191.4,314.6 190.9,313.9 191.5,313.1 191.9,313.6 191.4,314.6 		"/>
	</g>
	<g>
		<polyline class="st0" points="224.3,307.7 228.5,308 229.7,307.6 233,308.4 236.1,307.9 236.9,308.1 237.2,309 237.1,310 
			236.2,311.3 236.4,312.1 236,314.1 236.8,316.3 236.1,317.1 237.1,317.2 238.2,316.6 238.9,316.8 240,316.1 240.9,315.9 
			241.2,315.4 244.1,315.8 244.8,316.4 245,318 246.4,320 245.3,322.6 244.7,323.2 243.4,323.3 243.1,324.3 242.3,325 241.8,326.2 
			242.2,328.4 241.5,329.6 241.9,330.3 242.4,330.1 243.7,330.5 244.1,331.9 245.8,332.1 246.7,333.3 245.8,337 246.4,338.8 
			246.2,339.8 246.6,340.4 246.4,341.6 245.7,342.2 246.3,342.8 246,344.6 244.7,345.4 244.6,346.8 243.9,347.7 244.6,348.6 
			243.9,349 243.5,349.9 241.7,349.7 242.1,348.7 240.8,346.4 239.7,348.4 238.6,349.4 235.2,348.5 234.8,348.8 235.1,348 
			234.3,347.2 233.5,344.8 232.1,344 231,344.9 230.6,344.7 230.7,345.9 231.1,346.4 230.8,348.3 227.5,349.2 226.9,348.5 
			225.2,349.2 223.9,348.5 224.4,351 223.6,353 224.4,352.8 225.6,354.4 225,354.7 224.8,355.9 226.9,357.2 225.9,359.3 226.5,360 
			226.1,360.6 224.7,360.4 223.9,359.1 223.2,358.8 222.7,359.5 221.1,360.4 220.5,362.5 219.5,361.5 219.1,360.4 216.7,358.1 
			216.5,357.1 215.5,355.8 209.3,349.5 209.9,350 210.4,349.7 210.5,350.3 211.8,351.1 212.1,350.7 212.8,350.7 212.7,350.2 
			212.2,350 212.3,350.5 211.7,350 211.4,350.5 211.5,349.9 210.7,349.2 209.8,349.8 209.5,348.9 209.3,349.4 208.6,348.8 
			208.3,347.4 206,344.5 206.8,344.6 206.8,345 207.5,344.8 207.5,345.5 208.1,346.2 207.9,344.9 206.8,344 206.5,344.6 
			205.9,344.2 205.7,342.3 203.9,339.4 205.9,341.5 206.1,342.7 206.9,342.2 207.1,342.7 207.2,342.1 208.2,342.1 207.3,340.9 
			206.9,341.7 206.1,341.8 205.8,341 206.5,340.3 206.5,339.3 206.4,340 205.6,340.4 204.2,339.5 204.1,338.5 203.9,338.2 
			203.9,338.7 202.9,336.7 203.2,336.9 203.3,336.4 202.9,336.6 201.6,333.6 201.6,333.1 202.7,335.1 202.8,334.4 203.2,334.4 
			203,334 203.3,334 203.9,335.7 204.3,334.3 204.7,334 204.6,333.4 206.3,331 206.6,327.7 206.2,325.4 206.6,324.9 206.7,326.4 
			207.2,326.2 207.7,327.2 207.8,326.4 208.4,327 208.8,326.7 209.5,326.9 210.1,327.8 209.8,326.9 211.8,326.4 209.9,326.4 
			208.2,325.3 207.8,325.4 207,323.7 206.2,323.3 206.3,322.6 208,322.1 208.2,322.6 207.5,322.7 208.4,322.9 208.5,323.9 
			208.8,321.6 208.3,319.3 209.2,318.7 210.1,319.2 211.3,319.9 211.6,319.2 222,319.2 222,308.9 222.2,307.8 224.3,307.7 		"/>
	</g>
	<g>
		<polyline class="st0" points="243.1,213.1 245.8,213.1 246.5,214 246.7,215.8 247.9,216.3 247.9,216.8 248.1,216.6 248.8,217.1 
			249.4,219.3 249.4,221.2 249.9,221.7 250.5,221.8 250.8,222.8 250.5,223.7 251,224.5 250.7,225.3 251.3,226.6 250.6,227.8 
			250.4,230.1 251.3,235.5 254.1,239.3 255.4,240.2 253.7,240.7 252.1,240.3 248.8,240.8 246.2,240.2 244,240.3 242.2,243.3 
			245.4,247.3 249.5,250.7 251.8,253.3 254,259.4 254.8,259.9 254.2,261.9 253.9,263 252.1,264.5 250.8,268.5 249.9,269.3 
			248.8,272.4 245.9,274.5 245.9,274.9 246.4,276 247.4,276.2 247.4,279.5 246.8,281.5 247.9,282.5 248.3,287.4 250.5,289.3 
			251,290.2 251.2,291.6 251.9,292.4 250.8,292.7 252.4,295.7 256.6,300.6 257.7,300.7 258.9,302.5 258.9,306 259.8,308.5 
			258.8,309.1 258.7,310.7 259.4,312.8 258.7,313.4 258.2,312.4 257.3,312.2 255.9,311 254.2,310.7 253,311.1 252,310.1 
			251.1,310.6 250.3,310.2 249.6,310.4 249.4,309.5 248.6,309.9 247.1,308.6 246,309.3 245.4,308.9 237.2,309 236.9,308.1 
			236.1,307.9 233,308.4 229.7,307.6 225.5,307.9 224.6,307.6 222.2,307.8 222,308.9 211.5,308.9 210.4,308.2 210.2,307.4 
			210.8,302 211.3,300.9 211.1,299.3 208.9,296.9 210.2,296.1 208.7,296.4 208.1,294.5 208.9,295.1 208.5,294.6 208.6,294 
			209.7,294.4 209.2,293.7 209.8,293.2 208.7,293.2 209.7,291.6 208.4,292.8 207.6,291.9 207.4,292.2 208,293 207.2,292.7 
			207.5,293.6 207.2,293.7 206.3,293.4 206.4,292.6 205.7,293.2 205.5,292.8 203.7,292 203.8,291.1 203.1,289 203.4,288.1 
			203.1,288.3 202.7,287.3 202.9,288.1 202.4,287.6 202.4,288.1 201.8,287.9 201.2,286.4 201.7,288.4 200.1,288.2 200.7,285.7 
			202.5,282.4 202.8,279.7 203.2,279 202.6,277.9 203,277.2 202.9,276.7 203.9,276.2 206.7,272.5 207.2,272.4 208.6,270.8 
			209.4,270.7 210,268.3 210.7,268.4 212.9,266.4 213.5,267.6 215.5,267.6 216.3,265.4 216.5,266 218.2,266.9 218.7,268.3 
			219.8,268.9 220.3,271.4 222,271.4 222.5,271 222.8,270.1 223.7,269.6 223.9,268.5 223.7,268.1 224.3,267 226.3,265.8 
			225.2,264.2 227.4,261.4 227.4,260.2 228.8,258 229,254.2 230.3,253.4 230.1,252.4 231.5,252.4 233.2,251 234.2,246.4 
			234.2,245.9 233.7,245.8 235,244.6 236.6,243.9 237,241.9 236.6,241.2 236.8,239.5 238.4,238.6 239.1,234.6 240.7,232 
			240.8,231.1 242.5,228.9 243.9,229.2 247.4,226.4 247.4,225.6 246.8,225.2 247.5,223.3 247.6,221 246.2,219.6 244.1,219.5 
			243.8,219.2 244,218.1 243.1,213.1 		"/>
	</g>
	<polyline class="st0" points="256.4,262.5 255.7,261.9 254.2,261.9 254.8,259.9 254,259.4 251.8,253.3 249.5,250.7 245.4,247.3 
		242.2,243.3 244,240.3 246.2,240.2 248.5,240.8 252.1,240.3 253.7,240.7 255.4,240.2 254.1,239.3 251.3,235.5 250.4,230.1 
		250.6,227.8 251.3,226.6 250.7,225.3 251,224.5 250.5,223.7 250.8,222.8 250.5,221.8 249.9,221.7 249.4,221.2 249.4,219.3 
		248.8,217.1 248.1,216.6 247.9,216.8 247.9,216.3 246.7,215.8 246.5,214 245.8,213.1 243.1,213.1 239.5,207.6 238.3,201 
		239.9,200.2 239.8,199.3 240.7,198.6 241.4,195.6 245.2,189.7 253.7,179.5 254.4,163 255.5,153 257.3,149.2 254.1,145.5 
		253.9,144.5 254.4,143.8 251.2,138.9 251,134.5 249.5,125.9 257.1,122 290.8,140.4 318.4,156.7 319.1,190.1 316.5,189.6 
		314.2,190.2 312.3,190 310.9,191.5 311.4,193.1 311,195.2 310.3,195.5 309,197.5 309.2,198.9 307.5,199.5 306.8,200.1 307.3,200.8 
		307.3,202.6 308.2,203 308.2,203.9 305.8,205.3 304.7,207 306.3,210.7 305.3,212.1 303.8,213.1 302.8,215.5 303.7,216.9 
		305.1,216.8 305.8,216 307.7,217.1 307.1,218.5 308,221 307.8,222.2 309.1,222 308.5,225.9 310.4,227.8 311.4,227.8 311.7,228.9 
		311,232 307.8,231.4 306.1,232.2 305.6,233 304.6,232.9 304.2,233.7 302.1,234.6 302.3,236.6 301.8,238 300.6,238.4 299.5,240.3 
		298.5,240.5 297.4,242.2 296.8,242.4 296.5,243.6 295.2,245.3 294.1,245.8 294,246.3 293.1,246.1 292.9,247.1 292.3,247.7 
		290,247.9 289.8,247.6 288.1,248.5 282,248.8 281.2,249.2 280.2,250.2 282.1,251.8 279.9,255.3 278.6,256 278.1,257.3 273.9,257.6 
		272.6,258.1 270.8,257.8 267.8,259.3 266.8,260.5 266.4,260.3 264.9,261 264.4,261.7 262.9,260.5 262.2,258.9 261.2,259.6 
		261.2,260.5 256.4,262.5 	"/>
	<g>
		<polyline class="st0" points="170.3,207.4 172,207.1 175.1,207.1 176,206.3 177.4,206.1 182,208.1 183,207.8 183.9,208.4 
			188,213.8 189.3,213.8 190.3,212.7 191.6,212.8 195,210.7 197.2,211.1 199.5,213.1 200.5,213.2 201.6,214.4 203.8,215.1 
			208.8,215.5 211.6,212.2 213,211.4 216.6,210.5 222.9,210.5 225.7,211.4 227.7,212.7 230.7,213.2 231.6,211.4 233.2,210.5 
			233.6,209.5 235.2,209 236.3,209.1 237.4,207.5 239.5,207.6 243.1,213.1 244,218.1 243.8,219.2 244.1,219.5 246.2,219.6 
			247.6,221 247.5,223.3 246.8,225.2 247.4,225.6 247.4,226.4 243.9,229.2 242.5,228.9 240.8,231.1 240.7,232 239.1,234.6 
			238.4,238.6 236.8,239.5 236.6,241.2 237,241.9 236.6,243.9 235,244.6 233.7,245.8 234.2,245.9 234.2,246.4 233.2,251 
			231.5,252.4 230.1,252.4 230.3,253.4 229,254.2 228.8,258 227.4,260.2 227.4,261.4 225.2,264.2 226.3,265.8 224.3,267 
			223.7,268.1 223.9,268.5 223.7,269.6 222.8,270.1 222.5,271 222,271.4 220.3,271.4 219.8,268.9 218.7,268.3 218.2,266.9 
			216.5,266 216.3,265.4 215.5,267.6 213.5,267.6 212.9,266.4 210.7,268.4 210,268.3 209.4,270.7 208.6,270.8 207.2,272.4 
			206.7,272.5 203.9,276.2 202.9,276.7 203,277.2 202.6,277.9 203.2,279 202.8,279.7 202.5,282.4 200.7,285.7 200.3,285.9 
			200.3,286.6 199.9,286.7 199.8,286.3 199.3,286.2 199.4,285.5 199,285.9 197.5,284.2 198.9,287.3 198.4,288 194.2,288.5 
			192.6,288.1 192.6,286.7 192.3,287.9 190.7,287.6 190.5,287.8 190.9,288.3 190.5,288.4 188.9,286.3 189.8,288.3 189.2,288.9 
			188.9,288.6 188.9,289 188.4,287.9 188.7,287.2 188.1,286.5 188.2,287.5 187.6,286.9 187.8,287.8 188.2,287.8 188.6,289.4 
			188.1,289.6 187.3,289.3 186.7,285.8 186.2,285.6 187.3,289.7 186.2,289.7 186.3,287.6 186,289.1 185.9,288.3 185.8,288.5 
			186,289.9 185.3,289.8 185,288.4 185.1,289.9 182.6,290.3 183.2,289.1 182.7,289.4 182.5,288.6 182.5,289.2 182.2,289 
			182.4,290.3 181.4,290.4 181.3,289.2 181,289.3 181.1,290.3 180.6,290.1 180.5,289.2 180.3,289.9 179.7,289.5 177.5,287.3 
			176.7,285.8 175.9,283 176.5,283.3 176.7,282.8 176.4,282.4 175.8,282.7 175.5,281.1 177.4,280.7 177.1,279.9 177.8,279.4 
			177,279.7 176.6,280.5 176.2,280.3 176.2,280.6 174.4,279.7 174.6,279 175.9,279.1 176.3,278.6 176.8,278.9 176.3,278.3 
			175.5,278.8 175.5,277.8 175.1,278.7 174.3,279 174,278.7 173.6,277.3 175.1,276.1 173.3,277.4 171.1,274.2 168.4,272.1 
			165.1,271.6 160.5,271.4 161.6,271.3 161.9,270.8 163.1,270.6 164,269.9 161.5,270.7 161.1,270.5 161.1,270.1 160.6,270.5 
			160.4,271.8 155.2,272.1 155.5,269.8 155.9,269.2 155.3,266.9 155.9,266.2 155.5,265.6 155.6,262.9 156,262.2 155.5,261.5 
			155.4,259.3 155,258.6 155.6,256 155.2,254.7 155.9,248.4 158.3,248.1 158.8,246.4 158.7,244.9 159.6,243.4 160.3,243 
			160.2,241.9 161.6,241.5 162.3,240.6 162.9,238.7 162.2,237.4 162.9,236.2 163.7,236.5 164.2,235 164.1,234 163.4,233 
			163.3,230.3 161.4,227.5 162.3,225.3 162.9,224.5 162.4,223.5 162.8,222.6 162.8,218 165,216 166.2,213.9 166.8,209.6 
			167.5,209.4 169.1,207.8 170.3,207.4 		"/>
	</g>
	<polyline class="st0" points="226.7,121.3 238.4,124.4 243.8,129.3 249.5,125.9 251,134.5 251.2,138.9 254.4,143.8 253.9,144.5 
		254.1,145.5 257.3,149.2 255.5,153 254.4,163 253.7,179.5 245.2,189.7 241.4,195.6 240.7,198.6 239.8,199.3 239.9,200.2 238.3,201 
		239.5,207.6 237.4,207.5 236.3,209.1 235.2,209 233.6,209.5 233.2,210.5 231.6,211.4 230.7,213.2 227.7,212.7 225.7,211.4 
		222.9,210.5 216.6,210.5 213,211.4 211.6,212.2 208.8,215.5 203.9,215.1 202.1,214.5 197.2,211.1 195,210.7 191.6,212.8 
		190.3,212.7 189.3,213.8 188,213.8 183.9,208.4 183,207.8 182,208.1 177.4,206.1 176,206.3 175.1,207.1 172,207.1 170.3,207.4 
		169.1,207.8 167.5,209.4 166.8,209.6 166.2,213.9 165,216 162.8,218 162.8,222.6 162.4,223.5 162.9,224.5 162.3,225.3 161.5,224 
		160.1,223.5 159.6,222.4 156.4,219.1 155.2,220 152.9,220.4 153,221.5 153.6,222.5 153,223.5 150.4,219.4 152,218.9 151.1,216.5 
		150,216.2 148.9,217.1 146.9,217 143.3,213.8 142.2,213.4 142.3,210.5 143.7,211 143.9,210.6 144.5,210.7 142.6,209.7 142.4,208.9 
		141.7,208.4 139.3,207.6 139.4,207 138.3,205.8 137.5,204 137.9,202.8 136.1,200.6 136.6,197 136.6,196.2 137.8,196.5 138.8,196.2 
		140.1,196.7 142.3,196.4 145,193.7 157.9,193.2 158.2,192.4 161.9,193 162.1,191.8 163.4,190.5 164.7,190 166.2,184.8 167.2,183.8 
		167.2,180.3 167.6,178.6 167.7,159.8 179.7,157.2 192.3,144.8 226.7,121.3 	"/>
	<polyline class="st0" points="156.4,219.1 159.6,222.4 160.1,223.5 161.5,224 162.3,225.3 161.4,227.5 163.3,230.3 163.4,233 
		164.1,234 164.2,235 163.7,236.5 162.9,236.2 162.2,237.4 162.9,238.7 162.3,240.6 161.6,241.5 160.2,241.9 160.3,243 159.6,243.4 
		158.7,244.9 158.8,246.4 158.3,248.1 155.9,248.4 155.2,254.7 155.6,256 155,258.6 155.4,259.3 155.5,261.5 156,262.2 155.6,262.9 
		155.5,265.6 155.9,266.2 155.3,266.9 155.9,269.2 155.5,269.8 155.2,272.1 146.9,273.4 148.1,272.8 147.7,271.3 146.4,269.3 
		146.8,268.7 146.2,266.6 146.9,265.9 147.1,261.8 146.8,248.6 146.5,247.5 145.3,246.1 144.7,244.2 144.9,240.5 140.6,236.8 
		140.6,233.9 141.2,233 141.5,231.4 142.1,230.7 143,231.1 142.6,230.2 143.4,229.9 143.3,229 144.2,229.2 144.3,228.6 144.8,228.8 
		144.7,228.3 145.6,227.3 146.6,227.4 146.9,227.9 148.4,227.5 149.9,227.7 152.3,225.5 153,223.5 153.6,222.5 153,221.5 
		152.9,220.4 155.2,220 156.4,219.1 	"/>
	<polyline class="st0" points="133.3,230.1 138.3,231.3 138.4,231.8 141.5,231.4 141.2,233 140.6,233.9 140.6,236.8 144.9,240.5 
		144.7,244.2 145.3,246.1 146.5,247.5 146.8,248.6 147.1,261.8 146.9,265.9 146.2,266.6 146.8,268.7 146.4,269.4 147.7,271.3 
		148.1,272.8 146.9,273.4 143.5,274.4 143.4,273.9 142.7,273.9 141.9,272.4 140.2,271.6 139.9,270.2 139.3,269.8 139.2,268.9 
		138.4,268 138.6,267.3 138.2,266.7 138.9,266.4 139.4,263.8 139.2,263 138.6,263.1 138.2,262.4 138.3,261.3 139.1,260.2 
		138.9,255.9 139.9,254.9 139.3,253.5 137.9,252.5 137.3,251 138.3,250.3 137.8,248.6 138.6,245.4 137.8,244.6 136.5,245.2 
		136.1,244.9 136.6,244.5 136.1,244.4 136.1,244 137.2,243.8 136.6,243.7 136.3,243.2 137,243.1 137.4,237.5 136.9,237.5 
		136.6,236.5 136,236.6 135.3,235.6 133.9,234.5 134.7,230.7 133.3,230.1 	"/>
	<polyline class="st0" points="131.5,230.4 131.8,230.7 132.3,229.9 133.3,230.1 134.7,230.7 133.9,234.5 135.3,235.6 136,236.6 
		136.6,236.5 136.9,237.5 137.4,237.5 137,243.1 136.3,243.2 136.6,243.7 137.2,243.8 136.1,244 136.1,244.4 136.6,244.5 
		136.1,244.9 136.5,245.2 137.8,244.6 138.6,245.4 137.8,248.6 138.3,250.3 137.3,251 137.9,252.5 139.3,253.5 139.9,254.9 
		138.9,255.9 139.1,260.2 138.3,261.3 138.2,262.4 138.6,263.1 139.2,263 139.4,263.8 138.9,266.4 138.2,266.7 138.6,267.3 
		138.4,268 139.2,268.9 139.3,269.8 139.9,270.2 140.2,271.6 141.9,272.4 142.7,273.9 143.4,273.9 143.5,274.4 142.2,275.6 
		141.6,277.1 139.6,277.5 138.6,275.2 137.7,274.6 136.9,274.9 136,274.4 136.9,275.1 137.5,274.7 138.6,275.4 139.3,277.4 
		136.7,277.2 135.3,277.8 133.7,278.9 131.4,279.7 128,282.2 126.4,282.2 124.6,283.2 121.5,284 120.6,285.2 119.4,285.6 
		118.8,286.3 118,286.4 116.1,284.9 110.1,283.3 110.1,283.1 111.4,283.2 112.9,283.1 112.7,281.2 113.1,280.6 112.6,278.7 
		111.3,278.6 111.3,277.9 110.8,277.8 110.9,276.5 109.1,269.9 109.5,269 109.3,268 111.3,264.6 111.6,261.3 112.8,258.3 
		114.2,257.3 114.2,256.5 115,255.9 113.8,248.9 112.9,248.5 113,247.7 113.7,246.8 113.4,246.2 113.6,244.7 113,244 113.2,243.2 
		112.8,242.5 113.2,241.8 112.7,238.5 113.1,238 112.5,237.3 113,236.5 112.4,236.2 111.8,234.7 112.7,232.1 112.6,231.3 
		123.5,231.1 127.8,231.6 128.2,231.3 129.2,231.4 129.6,232.1 131.5,230.4 	"/>
	<polyline class="st0" points="131.4,195.5 131.6,196.1 133.1,195.9 136.6,197 136.1,200.6 137.9,202.8 137.5,204 138.3,205.8 
		139.4,207 139.3,207.6 141.7,208.4 142.4,208.9 142.6,209.7 144.5,210.7 143.9,210.6 143.7,211 142.3,210.5 142.2,213.4 
		143.3,213.8 146.9,217 148.9,217.1 150,216.2 151.1,216.5 152,218.9 150.4,219.4 153,223.5 152.3,225.5 149.9,227.7 148.4,227.5 
		146.9,227.9 146.6,227.4 145.6,227.3 144.7,228.3 144.8,228.8 144.3,228.6 144.2,229.2 143.3,229 143.4,229.9 142.6,230.2 
		143,231.1 142.1,230.7 141.5,231.4 138.4,231.8 138.3,231.3 133.3,230.1 132.3,229.9 132.3,230.3 131.8,230.7 131.2,230.5 
		131.1,231 129.6,232.1 129.2,231.4 128.2,231.3 127.8,231.6 123.5,231.1 112.6,231.3 112.7,232.1 111.8,234.7 112.4,236.2 
		113,236.5 112.5,237.3 113.1,238 112.7,238.5 113.2,241.8 112.8,242.5 113.2,243.2 113,244 113.6,244.7 113,245.5 112.8,245.3 
		111.3,242.6 110.7,242.5 110.2,241.5 109.8,241.5 109.7,240.8 109.1,241.5 108.8,241 106.3,240.6 104.3,241.1 103.1,241.9 
		102.3,241.8 100.6,243.8 100.2,243.2 99.5,243.2 99.5,242.4 98.2,243 97.2,242.1 97.4,241.6 96,241.1 96.1,240 95.4,239.4 
		94.8,237.5 92.8,237.6 91.8,236.3 92.7,232.7 92.1,230.7 93.5,230.2 94,227.9 94.4,227.6 94.2,226.3 93.7,225.9 93.9,224.7 
		92.9,224.1 93.9,223.9 95.4,222.7 98,222.5 99.5,221.3 99.4,220.8 100.1,219.7 100.7,219.8 100.4,218.7 100.9,217.9 100.2,216.2 
		101.8,216.2 102.2,215.4 102.2,214.2 101.3,212.6 102.2,212.2 102,211.7 104.1,209.4 104.6,209.9 104.2,210.4 105.5,210.7 107,212 
		108.2,212.3 108.2,211.4 109.7,211.3 109.6,207.5 110.8,207.8 111.2,208.4 112.4,208 112.9,204.7 115,203 116,202.5 118.5,203.7 
		119.3,203 119.8,201.1 121.9,200.5 124.4,198.8 126.6,198.1 129.3,195.5 131.4,195.5 	"/>
	<g>
		<polyline class="st0" points="83,237 83.1,234.3 84.8,235.3 85.1,234.9 84.9,234.1 86.2,233.7 86.6,234.5 86.2,235.6 86.7,235.8 
			86.8,236.5 86.3,237.8 87.1,238.4 88,238.4 88.4,237.7 88.9,237.7 89,236.9 89.8,236.4 91.8,236.3 92.8,237.6 94.8,237.5 
			95.4,239.4 96.1,240 96,241.1 97.4,241.6 97.2,242.1 98.2,243 99.5,242.4 99.5,243.2 100.2,243.2 100.6,243.8 102.3,241.8 
			103.1,241.9 104.3,241.1 106.3,240.6 108.8,241 109.1,241.5 109.7,240.8 109.8,241.5 110.2,241.5 110.7,242.5 111.3,242.6 
			112.8,245.3 113,245.5 113.6,244.7 113.4,246.2 113.7,246.8 113,247.7 112.9,248.5 113.8,248.9 115,255.9 114.2,256.5 
			114.2,257.3 112.8,258.3 111.6,261.3 111.3,264.6 109.3,268 109.5,269 109.1,269.9 110.9,276.5 110.8,277.8 111.3,277.9 
			111.3,278.6 112.6,278.7 113.1,280.6 112.7,281.2 112.9,283.1 111.4,283.2 112.1,282.8 112,282.5 111.4,282.6 111.1,283.1 
			109.8,282.8 109.4,282.2 109.8,280.9 108.9,281.1 108.7,281.9 109,282.1 108.4,282.4 108.7,282.8 108.5,283 105.4,282.5 
			105.3,282.1 104.7,282.4 103.2,281.9 104,281.6 105.3,281.8 105,281 104.6,280.8 105.2,281.6 103.9,281.1 103.1,281.4 
			103.6,281.5 103.3,281.7 101,281.4 99.5,281.5 99.6,281.8 98.8,281.5 98.5,281.9 97.7,282 98,281.4 96.9,282.5 101.7,281.6 
			103.1,282 96.3,282.9 95.6,282.9 95.4,282.2 94.5,282.4 92.9,282.1 93.1,282.4 92.6,282.9 92.2,282.7 92.6,283 93.2,283 
			92.8,282.8 93.2,282.6 93.9,282.7 93.6,282.4 93.9,282.3 95,282.4 95.3,282.9 91.1,283.1 88.7,283.8 82.7,286.5 80.8,287 
			76.6,289.7 75.8,289.8 75.3,285 75.8,284.8 75.5,283.6 76.2,282.8 76.3,281.7 76.6,281.5 76.8,281.8 77,281.3 76.6,280.3 77,279 
			76.6,276.7 76.4,276.5 76.3,276.9 74,275.6 73.8,274.6 73.4,274.6 73.6,273.5 73,272.9 72.1,272.6 71,272.9 69.2,272.2 
			69.2,271.4 68.7,271 68.5,271.4 67.6,270.8 69.7,268.6 70.1,266.5 70.1,265 69.6,264.4 68.7,261.6 69.3,261.1 70.7,261.7 
			71.7,259.4 71.5,258.9 72,257.4 72.8,257.6 72.3,256.8 72.5,256.1 71.8,256.3 70.5,255.6 70.9,253.4 72.8,253.3 73.6,254 
			73.8,253.5 74.4,254.4 75.1,254.4 74.9,252.2 74.1,251.1 72.8,250.7 73.1,248.9 74.5,248.2 73.2,247.2 73.7,245.3 72.3,245.5 
			71.5,244.4 71.8,241.4 71.4,240.6 72.8,238.7 74,238.3 74.4,237.3 75.4,236.2 75.9,236.5 76.8,236.2 77,237.1 77.6,237.2 
			77.6,237.9 79.4,238.2 80.2,238.9 80.7,238.5 80.5,238 80.7,237.1 83,237 		"/>
	</g>
	<polyline class="st0" points="57.9,253.3 58.6,253.2 58.8,252.7 59.2,253.8 59.4,253.4 59.8,253.6 59.6,254.2 60.2,254.1 
		60.9,254.7 60.6,256 61.1,256.2 61.1,257.4 61.4,257.3 61.3,258.6 61.9,260 61.8,261.1 60.8,263.3 61.8,262.8 62.9,263.1 
		63.7,264.8 65.1,264 65.8,264.1 67.1,260.4 68,260.4 68,261 68.7,261.6 69.6,264.4 70.1,265 70.1,266.5 69.7,268.6 67.6,270.8 
		68.5,271.4 68.7,271 69.2,271.4 69.2,272.2 71,272.9 72.1,272.6 73,272.9 73.6,273.5 73.4,274.6 73.8,274.6 74,275.6 76.3,276.9 
		76.4,276.5 76.6,276.7 77,279 76.6,280.3 77,281.3 76.8,281.8 76.6,281.5 76.3,281.7 76.2,282.8 75.5,283.6 75.8,284.8 75.3,285 
		75.8,289.8 74.4,289.7 72.7,288.5 70.2,287.8 63.7,284 61.2,281.8 56.2,276 54,274.4 54.1,274.1 53.3,273.5 53.8,274.1 50.8,272.9 
		50.5,272.6 50.8,271.8 46.3,269.2 46,268 45.2,267.1 45.8,267 46.7,264.6 47.6,264.2 48.3,263.1 50.3,261.7 52.2,259.7 52.3,257.5 
		53,256.6 54.2,256.4 54.6,256 54.9,253.4 56.3,253.2 56.5,254 57.9,253.3 	"/>
	<polyline class="st0" points="99.8,108.4 118.7,122.7 135.5,136.1 144.3,142.5 144.6,143.4 144.4,145.8 145.5,145.8 146,146.5 
		147.9,147.3 148.2,148.7 149.8,149.7 149.9,150.2 151.4,150.4 152.3,149.8 153.8,151.8 158,152.7 160,153.9 159.8,156.1 
		160.3,157.6 159.1,159.8 160.7,161.2 167.7,159.8 167.6,178.6 167.2,180.3 167.2,183.8 166.2,184.8 164.7,190 163.4,190.5 
		162.1,191.8 161.9,193 158.2,192.4 157.9,193.2 145,193.7 142.3,196.4 140.1,196.7 138.8,196.2 137.8,196.5 136.6,196.2 136.6,197 
		133.1,195.9 131.6,196.1 131.4,195.5 129.3,195.5 126.6,198.1 124.4,198.8 121.9,200.5 119.8,201.1 119.2,203.3 118.5,203.7 
		115.6,202.6 112.9,204.7 112.4,208 111.2,208.4 110.8,207.8 109.6,207.5 109.7,211.3 108.2,211.4 108.2,212.3 107,212 105.5,210.7 
		104.2,210.4 104.6,209.9 104.1,209.4 102,211.7 102.2,212.2 101.3,212.6 102.2,214.2 102.2,215.4 101.8,216.2 100.2,216.2 
		100.9,217.9 100.4,218.7 100.7,219.8 100.1,219.7 99.4,220.8 99.5,221.3 98,222.5 95.4,222.7 93.9,223.9 92.9,224.1 93.9,224.7 
		93.7,225.9 94.2,226.3 94.4,227.6 94,227.9 93.5,230.2 92.1,230.7 92.7,232.7 91.8,236.3 89.8,236.4 89,236.9 88.9,237.7 
		88.4,237.7 88,238.4 87.1,238.4 86.3,237.8 86.8,236.5 86.8,235.8 86.2,235.6 86.6,234.5 86.2,233.7 84.9,234.1 85.1,234.9 
		84.8,235.3 83.1,234.3 82.8,235.8 83.2,236.4 83,237 80.7,237.1 80.5,238 80.7,238.5 80.4,238.8 79.3,238.2 77.6,237.9 77.6,237.2 
		77,237.1 76.5,236.1 76.1,236.4 75.4,236.2 74.4,237.3 74,238.3 72.8,238.7 72.8,237.3 71.9,237 71.6,236.3 71,236.4 70.6,235.8 
		70.2,233.4 70.4,231.3 70,230.9 69,230.8 68.4,231.6 67.5,231.7 69.1,228.8 69.9,228.8 69.6,228.3 69.9,228.1 68.9,227.6 68.7,227 
		67.8,227 67.4,225.6 66.4,225.5 66.7,222.6 65.9,222.1 66,221.3 65.4,220.7 65.6,219.6 65.3,219.1 64,218.3 62.5,218.3 62.1,218.6 
		62.9,219.4 62.7,220.2 60.3,221.1 59.7,222.3 55,220.6 53.5,221.6 52.3,223.5 51.8,223.3 51.3,221.6 50.3,220.6 49.4,220.8 
		48.4,222.4 47.3,222.4 45.9,221 46.4,219.4 46.9,219 46.4,216.6 46.9,216.1 47,213.9 46.6,214.1 46.5,213.1 46,212.8 45.3,210.6 
		44.3,210.2 43.7,211.1 43.1,210.4 43.2,209.7 41.7,207.6 42.6,206.9 42.8,205.9 42.3,205.2 42.6,203.7 42.3,202.7 41.7,202.3 
		41.7,201.8 40.9,201.5 40.8,200.2 41.4,199.3 40.7,198.3 41.5,198.2 42.1,198.6 44,197.1 43.9,194.6 44.9,191.4 45.8,191.4 
		46.6,190.5 47.3,190.7 48.2,192.2 50.4,194.1 51.1,195.2 52.6,192.3 59.5,192.9 60.4,192.4 62.5,192.3 62.4,191 63.2,190.1 
		63.2,191.8 92.7,191.8 93.8,184.3 92.1,183 86.5,108.4 99.8,108.4 	"/>
	<g>
		<polyline class="st0" points="45.7,240.2 48,240.3 48.3,241.2 50.3,243.9 50.8,245.5 51.9,246.2 51.3,248.1 52.6,248.4 
			52.5,250.5 53.4,251.8 52.2,252.9 51.4,255.2 51.8,254.8 52.9,254.8 54,253.4 54.9,253.4 54.6,256 54.2,256.4 53,256.6 
			52.3,257.5 52.2,259.7 50.3,261.7 48.3,263.1 47.6,264.2 46.7,264.6 45.8,267 45.2,267.1 42.6,265.2 37.5,263.1 38.5,263.1 
			37.6,262.6 38,261.9 39,261.9 39.9,261.3 37.9,261.6 37.6,260.8 37.2,260.8 37.8,259.7 36.9,260.5 36,260.3 35.3,259.8 
			35.5,259.3 35,259.5 34,258.6 35,258.4 34.6,257.8 34.6,256.9 33.9,256.1 33.9,255.5 32.5,256.2 31.6,253.4 32.2,253.4 
			33.4,254.4 32.8,253.7 33.7,252.8 34.7,252.8 34.3,252.6 34.7,251.8 34.2,252.5 33.3,252.6 33.5,252 33.1,252.3 32.6,251.9 
			33,252.6 32.5,253.2 31.9,251.9 32,250.5 32.3,250.2 33.8,250.2 32.8,250.1 32.6,249.8 33.2,249.5 32.4,249.7 31.6,249.3 
			31.5,248.6 32.4,248.2 33.1,248.5 34.3,247.3 34.3,246.5 35.4,246.3 36.3,245.2 38.2,241.1 39.8,240.7 40.8,241.2 42.5,240.7 
			42.6,240.2 45.7,240.2 		"/>
		<polyline class="st0" points="34.5,261.1 36.6,260.9 37.3,261.2 37.3,263 37,263.1 36.6,262.3 34.1,261.5 34.5,261.1 		"/>
	</g>
	<polyline class="st0" points="28.9,216.6 33.9,217 34,218.4 34.7,218.4 35.1,217.8 36.2,218.7 37.2,218.8 37.6,219.4 38.6,219.2 
		39.4,219.9 41.3,219 46.9,219 46.4,219.4 45.9,221 47.3,222.4 48.4,222.4 49.4,220.8 50.3,220.6 51.3,221.6 51.8,223.3 52.3,223.5 
		53.5,221.6 55,220.6 59.7,222.3 60.3,221.1 62.7,220.2 62.9,219.4 62.1,218.6 62.4,218.3 64,218.3 65.2,219 65.6,219.5 65.4,220.7 
		66,221.3 65.9,222.1 66.7,222.6 66.4,225.5 67.4,225.6 67.8,227 68.7,227 68.9,227.6 69.9,228.1 69.6,228.3 69.9,228.8 69.1,228.8 
		67.5,231.7 68.4,231.6 69,230.8 70,230.9 70.4,231.3 70.2,233.4 70.6,235.8 71,236.4 71.6,236.3 71.9,237 72.8,237.3 72.8,238.7 
		71.4,240.6 71.8,241.4 71.5,244.4 72.3,245.5 73.7,245.3 73.2,247.2 74.5,248.2 73.1,248.9 72.8,250.7 74.1,251.1 74.9,252.2 
		75.1,254.4 74.4,254.4 73.8,253.5 73.6,254 72.8,253.3 70.9,253.4 70.5,255.6 71.8,256.3 72.5,256.1 72.3,256.8 72.8,257.6 
		72,257.4 71.5,258.9 71.7,259.4 70.7,261.7 69.3,261.1 68.7,261.6 68,261 68,260.4 67.1,260.4 65.8,264.1 65.1,264 63.7,264.8 
		62.9,263.1 61.8,262.8 60.8,263.3 61.8,261.1 61.9,260 61.3,258.6 61.4,257.3 61.1,257.4 61.1,256.2 60.6,256 60.9,254.7 
		60.2,254.1 59.6,254.2 59.8,253.6 59.4,253.4 59.2,253.8 58.8,252.7 58.5,253.3 56.5,254 56.3,253.2 54.9,253.4 54,253.4 
		52.9,254.8 51.8,254.8 51.4,255.2 52.2,252.9 53.3,252 52.5,250.5 52.6,248.4 51.3,248.1 51.9,246.2 50.8,245.5 50.3,243.9 
		47.7,240.2 42.7,240.2 42.5,240.7 40.8,241.2 39.8,240.7 38.2,241.1 36.3,245.2 35.4,246.3 34.3,246.5 34.3,247.3 33.1,248.5 
		32.4,248.2 31.5,248.6 31.3,248.3 31.8,247.7 32.6,247.4 31.9,247.3 32.1,246.6 31.7,247.4 31.4,247.4 31.5,245.9 30.7,246.5 
		30.8,245.1 30.2,245.3 29.9,244.9 30.2,244 29.7,244.5 29.3,244 28.3,244.5 29.6,242.1 28.9,241.6 28.7,242.4 28.2,242.2 
		28.6,240.6 28.2,241.3 27.6,241.5 25.8,239.8 26,239.3 26.3,239.4 25.7,239.2 26.2,238.4 25.2,239.7 24.8,239.3 25.3,238.7 
		24.6,239.2 24.4,238.6 24.1,238.8 23.4,238.1 22.8,238.2 22.7,237.2 22.1,236.6 22.2,235.7 21.2,235.9 22.5,232.4 21,234.5 
		20.9,233.5 21.3,233.1 20.5,234 20.2,233.5 20.7,232.5 20.1,232.9 20.1,232.1 21.2,230.9 20.6,231.5 20.2,231.2 19.7,231.7 
		19.5,231.1 19.4,231.7 18.7,231.6 21.2,226.9 22.5,226.8 24.4,225.4 26.6,225.7 27.5,225.4 27.7,224.8 28.1,225.3 28.7,225.1 
		28.8,222.5 26.9,220.9 28.1,220 28.1,220.3 28.8,220.3 29.2,219.7 29.4,218.4 28.9,217.6 28.9,216.6 	"/>
	<g>
		<polyline class="st0" points="20,216.6 28.9,216.6 28.9,217.6 29.4,218.4 29.2,219.7 28.8,220.3 28.1,220.3 28.1,220 26.9,220.9 
			28.8,222.5 28.7,225.1 28.1,225.3 27.7,224.8 27.5,225.4 26.6,225.7 24.4,225.4 22.5,226.8 21.2,226.9 18.7,231.6 18,231.7 
			18.6,229.9 17.1,230.7 17.1,229.6 17.5,229.3 15.5,228.8 15.8,228.1 16.7,227.6 16,228 16.1,227.2 15.3,228.2 14.8,228.3 
			15.1,227.1 16.2,226.4 16.5,226.6 16.3,226.3 16.8,226.3 16.7,225.9 17.2,226.4 17.2,225.8 17.9,225.9 17.8,226.6 18.7,226.1 
			18.3,226.1 18,225.4 17.5,225.6 17.8,225.2 17,225.6 17.3,224.9 16.8,225.4 16.7,224.8 16.5,225.6 16.2,225.3 16.1,226 
			15.8,225.8 15.4,226.5 15.5,225.4 15.2,225.6 15,225.2 14.7,225.2 15.9,223.8 17.3,223.9 18.3,223.3 18.4,224.4 19.3,224.7 
			18.5,224.1 18.9,222.9 17.1,223.5 15.2,223.2 13.6,224.5 12.3,224.8 12.5,224.4 11.3,224.9 12.1,223.1 13.2,223 13.4,222.5 
			12.3,222.3 11.6,223.2 10.2,223.5 8.6,222.6 8.4,221.8 9.2,220.6 10.7,219.5 8.8,220.7 8.8,220.2 8.5,220.8 7.7,221 6.9,220.2 
			5.7,219.7 5.9,219.4 8.2,219.4 10.5,218.4 13.4,218.8 17.1,216.8 20,216.6 		"/>
		<polyline class="st0" points="11.5,226.6 11.5,226 11.8,226.6 11.5,226.6 		"/>
		<polyline class="st0" points="15.2,225.9 15.1,226.4 14.4,226.9 13.9,226.7 15.2,225.9 		"/>
		<polyline class="st0" points="9.2,229.5 8.8,229.3 9,228.9 9.8,228.8 9.7,229.4 9.2,229.5 		"/>
		<polyline class="st0" points="8.6,227.2 7.9,227.1 7.8,226.7 9.2,226.3 8.6,227.2 		"/>
		<polyline class="st0" points="10.9,226.8 11.2,226.3 11.4,226.6 10.9,226.8 		"/>
		<polyline class="st0" points="9.8,231.1 9.1,230.5 10.4,229.6 10.5,231 9.8,231.1 		"/>
		<polyline class="st0" points="12.8,229.9 12.9,229 13.6,228.7 13.6,229.4 13.4,229.1 12.8,229.9 		"/>
		<polyline class="st0" points="11,223.6 11.2,223.7 10.9,224.6 10.4,224.7 9.9,223.7 11,223.6 		"/>
		<polyline class="st0" points="10.9,226.8 11.5,226.6 11.8,227.4 10.8,227.6 10.4,227.4 10.9,226.8 		"/>
	</g>
	<polyline class="st0" points="8.1,186.9 8.3,186.6 8.5,186.9 8.7,185.8 9.3,185.3 10.2,182.9 11.4,182.6 11.9,183.2 13.1,182.9 
		14.7,183.2 16.5,182.3 16.8,182.6 19.1,182.3 19.2,181.6 19.8,181.8 20.2,181.3 20.7,181.8 25,181.8 25.1,182.3 26,182.7 
		27.8,184.5 27.8,185.3 28.5,185.7 28.7,186.4 29.7,185.8 30.1,186.5 31.4,186.1 31.3,186.6 32.1,186.9 32.6,188 33.4,190 
		33.2,190.6 34.3,191.1 34.5,192 35.3,191.8 35.5,192.9 36.2,193.5 35.8,193.9 36.1,194.3 36.6,194.4 37.2,195.4 37.8,195.3 
		38.8,196.1 39.2,197.1 40.7,198.3 41.4,199.3 40.8,200.2 40.9,201.5 41.7,201.8 41.7,202.3 42.3,202.7 42.6,203.7 42.3,205.2 
		42.8,205.9 42.6,206.9 41.7,207.6 43.2,209.7 43.1,210.4 43.7,211.1 44.3,210.2 45.3,210.6 46,212.8 46.5,213.1 46.6,214.1 
		47,213.9 46.9,216.1 46.4,216.6 46.9,219 41.3,219 39.4,219.9 38.6,219.1 37.6,219.4 37.2,218.8 36.2,218.7 35.1,217.8 34.7,218.4 
		34,218.4 33.9,217 28.9,216.6 17.7,216.6 13.4,218.8 10.5,218.4 8.2,219.4 5.9,219.4 5.7,219.7 5.1,218.2 6.7,217 7.2,217.7 
		7.3,217.4 8.4,217.8 11.2,217 12.6,217.7 13.3,217.4 14.1,217.9 15.1,217 14.9,215.7 16,215.4 14.9,215.6 14.8,216.9 14.1,217.7 
		13.6,217.2 12,217.3 11.1,216.2 10.7,217 8.8,217.2 8.4,217.6 7.6,217.1 7.5,216.4 7.4,217.1 6.9,216.6 6.5,216.8 6.7,215.7 
		6.3,217 5.4,217.6 5.3,216.6 5.9,216.2 5.2,216.3 5.6,213.3 6,212.5 12.6,212.4 13,210.8 15.3,210.3 17,210.5 18.2,208.6 
		21.4,210.6 22.4,210.7 24.1,211.7 25.3,211.7 27.9,210.9 28.4,210.2 27.7,209 27.1,208.7 24.2,209.7 23.3,209.1 22.9,208.2 
		22.2,207.9 21.3,208.4 20.3,206.9 18.8,206.6 17.3,207.2 16.5,206.9 15.8,207.5 15.5,208.5 7.2,208.6 7.7,207.4 6.9,208.1 
		6.6,207.5 7.2,206.5 7.5,206.3 7.8,206.8 7.9,205 7.4,206.2 6.2,207 5.9,205.4 6.3,205.1 6.7,205.4 7.8,204 8.8,203.6 8.2,203.3 
		6.7,205 6.1,204.8 6.5,204.2 6.1,204.4 5.7,206.4 5.4,203.9 2.8,199.3 1.2,198.5 0.7,199.2 0,198.4 3,197 5.1,194.3 7.9,189.5 
		8.1,186.9 	"/>
	<polyline class="st0" points="15.5,208.2 16.7,206.8 17.4,207.2 18.6,206.6 19.9,206.7 21.3,208.4 22.2,207.9 22.9,208.2 
		23.3,209.1 24.1,209.7 27.1,208.7 27.7,209 28.4,210.2 27.8,211 25.3,211.7 24.1,211.7 22.4,210.7 21.4,210.6 18.2,208.6 17,210.5 
		15.3,210.3 13,210.8 12.6,212.4 6,212.5 5.6,213.3 5.1,210.8 6.2,209.5 7,209.8 7,210.9 8.2,211.6 8.2,211.9 8.5,211.8 8.1,211.4 
		9.4,211 10.1,211.5 9.7,210.7 10.3,210.1 14.4,209.8 15,209.4 16.3,209.9 16.9,209.6 16.4,209.8 14.9,209.1 13.2,209.8 10.3,209.8 
		9.3,210.6 9.2,210.3 9.1,210.8 8.4,210.9 7.5,210.6 7.2,208.6 14.7,208.6 15.5,208.5 15.5,208.2 	"/>
	<polyline class="st0" points="71.5,88.2 99.8,108.4 86.5,108.4 92.1,183 93.8,184.3 92.7,191.8 63.2,191.8 63.2,190.1 62.4,191 
		62.5,192.3 60.4,192.4 59.5,192.9 52.6,192.3 51.1,195.2 50.4,194.1 48.2,192.2 47.3,190.7 46.6,190.5 45.8,191.4 44.9,191.4 
		43.9,194.6 44,197.1 42.1,198.6 41.5,198.2 40.7,198.3 39.2,197.1 38.8,196.1 37.8,195.3 37.2,195.4 36.6,194.4 36.1,194.3 
		35.8,193.9 36.2,193.5 35.5,192.9 35.3,191.8 34.5,192 34.3,191.1 33.2,190.6 33.4,190 32.6,188 32.1,186.9 31.3,186.6 31.4,186.1 
		30.1,186.5 29.7,185.8 28.7,186.4 28.5,185.7 27.8,185.3 27.8,184.5 26,182.7 25.1,182.3 25,181.8 20.7,181.8 20.2,181.3 
		19.8,181.8 19.2,181.6 19.1,182.3 16.8,182.6 16.5,182.3 14.7,183.2 13.1,182.9 11.9,183.2 11.4,182.6 10.2,182.9 9.3,185.3 
		8.7,185.8 8.5,186.9 8.3,186.6 8.1,186.9 8.1,184.8 8.8,181.9 11.5,175.5 12.4,172.3 12.5,166.2 11.7,162 11,160 9.7,158.8 
		9.2,157.8 10.3,157.6 11.1,156.5 10.3,157 10.5,156.4 9.7,157.5 10.1,156.3 11.6,154.1 11.5,153.2 11,153.3 11.8,152.3 11.5,151.2 
		12,150.4 10.1,146.6 10.6,146.4 9.7,145.9 9.5,147.3 8.6,146.3 6.8,142.1 6.1,143.1 5.7,145.6 5.6,144.2 6.9,140.5 36.7,140.5 
		36.5,130 36.1,128.1 36.4,126.9 37.3,125.7 40.4,123.5 45,121.9 45.9,99.6 70.9,99.6 71.5,88.2 	"/>
	<polyline class="st0" points="37.8,84.9 71.6,84.9 71.5,88.2 70.9,99.6 45.9,99.6 45,121.9 40.4,123.5 37.3,125.7 36.4,126.9 
		36.1,128.1 36.5,130 36.7,140.5 6.9,140.5 5.6,144.2 5.7,145.6 5.4,144 7.1,135.3 8.8,132.4 10.5,131.8 11.6,129.7 12.2,127.1 
		13.3,125.8 13.4,125.3 12.9,125.1 16.5,119.1 16.5,118 14.7,120.1 15.9,118.2 17.8,116.9 21.3,112.9 22.4,112.4 23.4,111.2 
		24.6,104.7 26.9,100.2 27.3,98.1 29.6,95.9 30.9,95.6 34.4,93.1 37.8,84.9 	"/>
	<g>
		<polyline class="st0" points="3.7,77.4 3.3,78 2.2,75.4 3,74.6 3.9,74.6 4.3,75.4 3.7,77.4 		"/>
		<polyline class="st0" points="29.3,81.6 28,81.4 30.3,80 32.1,75.8 33.1,75.4 33.4,76.9 32.5,79.8 30.4,80.5 29.3,81.6 		"/>
		<polyline class="st0" points="7.6,81.9 6.9,81.1 7.5,80.2 8.7,81 7.6,81.9 		"/>
		<polyline class="st0" points="11.7,82.1 10.2,79 12.8,78.6 14.7,77 16.2,76.9 16.1,77.5 14.4,78.8 13.1,81.5 11.7,82.1 		"/>
		<polyline class="st0" points="1.7,85.2 0.5,84.6 0.4,84.2 1.3,84.1 2.4,83.3 2.5,83.7 1.7,85.2 		"/>
		<polyline class="st0" points="33.9,74.6 33.1,74.3 33.8,72.8 35.7,72.1 36.6,71.2 36.1,73.2 34.3,74 33.9,74.6 		"/>
		<polyline class="st0" points="19.8,84.4 18.3,83.4 18.1,82 19,81.4 19.1,80.6 20.8,80.9 21.3,80.5 21.4,83.2 19.8,84.4 		"/>
	</g>
	<g>
		<polyline class="st0" points="12.7,41.3 10.9,40.4 10.6,39.7 11.1,39.2 12,39.7 13.1,39.5 14.7,40.2 13.7,41.1 12.7,41.3 		"/>
		<polyline class="st0" points="17.3,37.8 17.3,37.3 17.9,37.2 17.3,37.8 		"/>
	</g>
	<polyline class="st0" points="98.6,12.8 99.4,12.5 99.7,13.1 100.3,15.4 101.6,16.9 104.1,18.6 106.6,19.2 109.8,18.2 110.7,18.7 
		111.5,18 114.2,18.8 116.1,17.9 116.9,16.6 117,17.6 116.9,18 117.3,18.1 117.3,19 117.8,19.4 118.4,19.5 117.5,18.4 119.2,19.6 
		120.8,19.2 122.3,19.8 122.5,20.4 125.6,22.7 124.8,23.9 125.9,25 125.2,26 126,28.4 125.4,31.9 126.2,32.9 125.7,35.7 127,37.5 
		126.6,38.6 127.6,40.4 130.1,42.3 128.5,44 128.1,45.4 128.8,45.4 128.9,45.9 120.4,45.5 116.6,46.1 115.9,46.6 115.3,48.3 
		111.6,49.7 109.3,49.5 109,51.4 109.8,52.1 109.3,52.7 109,54.2 109.8,54 110.7,54.8 110.6,55.8 107.6,56.4 104.6,58.7 100.6,60 
		98.3,63.4 95.9,65.2 92.4,65.9 91.3,65.8 90.6,66.2 88.8,65.9 88.5,67.6 87.8,68.2 83.8,67.7 81.4,69.8 79.9,69.9 72,75.8 
		71.6,84.9 37.8,84.9 38.8,84.1 39.9,82.5 46.2,81.3 50.5,79.3 54,75.5 58,73.3 60.6,70.5 62,68.1 64.1,65.7 65.4,63 65.7,60.9 
		65,59.6 63.8,58.8 64.4,57.3 64.3,54.6 64.7,52.8 64.5,52.2 65.9,49.3 68.4,46.6 69,45.4 69.4,42.8 69.2,42.1 73.5,37.9 75.1,35.8 
		82.5,32.6 86.4,30.4 87.9,29.2 92,22.3 95.5,13.6 96.6,13.6 98.6,12.8 	"/>
	<polyline class="st0" points="184.4,3.6 184.6,2.8 186,2.2 186.9,3.2 188.7,3.4 189.3,4 191.5,3.4 191.7,2.9 191.4,2.2 192.7,2.2 
		194.4,3.1 195.6,3.1 195.5,4 196.2,4.3 198.7,3.4 200.4,3.8 201.6,3.5 201.9,4.3 200.3,4.8 200.4,5.9 198.5,7.1 199.8,7.9 
		199,13.3 199.7,15.8 199.3,17.5 200.3,18.4 199.4,19.5 198.9,21.1 198.8,23.5 197.9,24.5 195.9,25.5 195.4,27 193.6,28.3 
		193.2,30.2 193.6,32 194.9,34.2 195,36 197.6,37.1 199,39.4 199.5,42.2 204.6,46.1 208.2,62.4 206.5,63.5 209.2,67.7 210.5,72.2 
		210.7,74.9 210.1,79.9 211.3,83.4 209.7,88.1 210.5,91.6 211.1,92.1 210.6,95 208,96.4 207.1,98.1 211.7,105.2 212.3,109.9 
		213.2,110.5 213.7,112 215,112.9 217.1,112.2 223.3,114.5 226.7,121.3 192.3,144.8 179.7,157.2 167.7,159.8 160.7,161.2 
		159.1,159.8 160.3,157.6 159.8,156.1 160,153.9 158,152.7 153.8,151.8 152.3,149.8 151.4,150.4 149.9,150.2 149.8,149.7 
		148.2,148.7 147.9,147.3 146,146.5 145.5,145.8 144.4,145.8 144.6,143.5 144.3,142.5 135.5,136.1 118.7,122.7 99.8,108.4 
		71.5,88.2 71.6,84.9 72,75.8 79.9,69.9 81.4,69.8 83.8,67.7 87.8,68.2 88.5,67.6 88.8,65.9 90.6,66.2 91.3,65.8 92.4,65.9 
		95.9,65.2 98.3,63.4 100.6,60 104.6,58.7 107.6,56.4 110.6,55.8 110.7,54.8 109.8,54 109,54.2 109.3,52.7 109.8,52.1 109,51.4 
		109.3,49.5 111.6,49.7 115.3,48.3 115.9,46.6 116.6,46.1 120.4,45.5 128.9,45.9 128.8,45.4 128.1,45.4 128.5,44 130.1,42.3 
		127.6,40.4 126.6,38.6 127,37.5 125.7,35.7 126.2,32.9 125.4,31.9 126,28.4 125.2,26 125.9,25 124.8,23.9 125.6,22.7 122.5,20.4 
		122.3,19.8 124.7,19.7 127.7,17.9 128.6,17.7 130,15.5 132.7,13.8 134,14.2 134.9,13.7 135.2,12.8 136,12.6 136.8,13.3 138.2,13.5 
		139.1,12.8 139.7,11.3 141.4,10 147.5,7.3 153.7,6.8 156,6.2 157.7,6.6 160.1,4.8 161,4.6 161.6,5.2 162.3,5.1 162.5,4.6 164.2,5 
		167.3,3.7 173.7,3.9 176,4.9 175.9,5.4 176.4,5.8 177.6,6.1 178.7,5.9 180.4,4.5 182.6,4.4 184.4,3.6 	"/>
	<g>
		<polyline class="st0" points="219.9,23.4 220.7,22.1 221.1,22.2 221,22.8 219.9,23.4 		"/>
		<polyline class="st0" points="205,1.5 205.8,1 206.8,0.9 209.2,0 210.6,0.1 210.6,0.6 210,1 210.4,1.7 211.1,1.2 210.4,1 
			210.7,0.7 212,0.7 213.6,1.4 212.6,1.7 213.3,1.9 212.9,2.4 213,3 214.1,4 213,4.7 213.6,4.7 214.3,5.4 215.4,5 216,4.1 
			216.9,3.9 218.2,2.6 219.1,2.2 219.3,2.4 219.8,4.1 218.6,5.2 217.5,7.6 215.4,8.5 215,10.6 216.7,13.6 217.6,13.6 217.7,14.3 
			219.1,14.8 219.1,17.5 220,18.4 217,23.4 215.8,24.5 212.4,26.6 211.7,28.3 212.2,29.9 214,31.8 215.2,32.4 216.8,31.8 
			216.6,33.3 217.1,33.9 218.3,33.3 218.3,32.6 219.3,32.6 219.8,33.3 219.8,34.8 221.1,35.6 219.9,35.4 220.2,36.1 222.2,36.4 
			221.8,36 222.9,36.6 222.5,41.1 223.2,42.9 218.3,45.6 217.5,46.7 216.3,47.1 216.2,48 215.4,49.1 213.8,49.5 212.6,51.8 
			213.8,56.4 213.3,57.8 210.8,61.3 208.2,62.4 204.6,46.1 199.5,42.2 199,39.4 197.6,37.1 195,36 194.9,34.2 193.6,32 193.2,30.2 
			193.6,28.3 195.4,27 195.9,25.5 197.9,24.5 198.8,23.5 198.9,21.1 199.4,19.5 200.3,18.4 199.3,17.5 199.7,15.8 199,13.3 
			199.8,7.9 198.5,7.1 200.4,5.9 200.3,4.8 201.9,4.3 201.6,3.5 203.2,3.1 205,1.5 		"/>
		<polyline class="st0" points="218,32.5 217.7,31.7 216.9,31.7 217.1,30.2 218.5,30.3 219.4,31 218,32.5 		"/>
	</g>
	<polyline class="st0" points="222.9,36.6 223.7,37.2 224.8,37.3 224.1,37 225.7,37.7 228.5,39.4 232.2,39.8 235.6,38.8 238,39.8 
		239.4,39.8 242.5,40.6 244.7,42.3 249.8,43.4 251.3,45.4 251.3,47.1 252.3,49.8 254.3,52.2 257,53.4 261.7,53.7 269.9,56.3 
		270.4,56.9 272.5,57.6 275.9,60.6 278.7,62.1 281,61.9 283.2,60.7 284.2,59.9 286.4,56.9 287,54.3 285.5,51.1 285.1,49 285.2,47.1 
		286.2,45.3 289.7,41.9 293.2,40.1 295.9,39.9 297.4,38.7 299.3,38.9 301.2,38.6 301.7,39.1 302.7,39.1 304.1,40 308.4,41.3 
		308.7,42.8 308.3,43.9 310,45.4 310.1,45 313.1,45.3 314.9,45.9 316.1,46.8 319.3,47 320.6,46.6 322.5,47.1 323.9,50 321.9,52.5 
		322,54.3 323.2,57.6 322.7,60 321.2,63.1 322.2,65.4 322.6,68.8 323.7,71.3 325.6,134.7 326,152.3 319.6,152.3 318.4,152.8 
		318.4,156.7 290.8,140.4 257.1,122 249.5,125.9 243.8,129.3 238.4,124.4 226.7,121.3 223.3,114.5 217.1,112.2 215,112.9 213.7,112 
		213.2,110.5 212.3,109.9 211.7,105.2 207.1,98.1 208,96.4 210.6,95 211.1,92.1 210.5,91.6 209.7,88.1 211.3,83.4 210.1,79.9 
		210.7,74.9 210.5,72.2 209.2,67.7 206.5,63.5 208.2,62.4 210.8,61.3 213.3,57.8 213.8,56.4 212.6,51.8 213.8,49.5 215.4,49.1 
		216.2,48 216.3,47.1 217.5,46.7 218.3,45.6 223.2,42.9 222.5,41.1 222.9,36.6 	"/>
	<g>
		<path class="st0" d="M374,51l-0.3,0.1L374,51z"/>
		<polygon class="st0" points="376.4,53.1 375.1,52.3 374.1,51 374,51 374.8,52.2 		"/>
	</g>
	<polyline class="st0" points="381.7,54.3 379.4,55.1 377.3,53.3 377.1,53.5 377.2,53.3 376.4,53.1 376.9,53.4 377,54.5 375.7,54.9 
		375.8,55.2 375.1,54.5 375.1,53.8 374.3,54 374.1,53.5 373.1,53.2 373.3,52.5 373.7,52.5 373.6,52 373.9,52 373.5,51.6 373.8,51.9 
		373.6,51.2 373.7,51.1 371.6,51.8 368.9,50.6 367.4,50.4 367.1,50.5 368.1,50.8 368.3,51.3 367.5,51.1 367.2,51.8 366.6,52 
		365.8,51.7 365.3,52.2 364.9,51.9 364,52.2 367,50.5 363.6,51.7 362.5,51.2 362.9,51.8 362.5,51.3 362.2,52.7 361.3,53.3 
		362.2,53.2 362.2,53.6 361.1,53.7 361.3,53.3 360.4,52.8 356.3,56.2 353.3,57.2 348.3,54.9 344.6,54.8 344.1,53.5 342.7,54.1 
		341,53.7 340.1,52.3 329.8,50.2 325.1,51.2 324.1,50.9 323.9,50 321.9,52.5 322,54.3 323.2,57.7 322.7,60 321.2,63.1 322.2,65.4 
		322.6,68.8 323.7,71.3 325.6,134.7 373.3,134.7 374.5,132.7 375,133.2 374.7,134.7 387.7,134.7 390.8,137.1 394.2,136.5 
		394.7,134.7 394.7,134.7 395.4,132.9 399.3,132.1 401,127.3 403,127.9 405.9,124.8 404.7,121.6 404.5,117.7 404.9,117.3 407,117.9 
		406.5,117.2 405.5,117 405.1,116.2 404.5,116.1 401.7,112.6 401.8,112.1 396.9,102.3 391.7,93.8 392,91.8 390.7,89.8 390.6,88.5 
		389.6,88 387.9,85.1 388.2,84.8 388.6,85.1 387.6,83.5 388.4,83.9 388.4,83.4 387.6,82.1 385.8,80.8 383.7,77.7 382.8,77 
		382.2,75.3 380.7,73.4 381,72.4 380.3,70.2 378.3,68 379.4,65.6 379.1,65 379.8,65 379.8,64.4 380.2,66 380.9,66.9 381.2,69.2 
		381.9,69.6 382.6,71.2 384.8,73.2 385.5,77.1 388.1,79.4 389.7,81.8 392,83.6 393.5,84.4 393.2,83.9 394.8,82 394.4,79.1 
		395.8,75.5 396.3,70.5 397.5,68.9 	"/>
	<polyline class="st0" points="381.8,54.7 380.3,55.4 380,55.2 381.7,54.3 	"/>
	<polygon class="st0" points="377.6,60.9 378.2,60.8 379.1,62 379.7,62.9 379.1,62.1 378.8,62.4 377.9,61.8 	"/>
</g>
<g id="Layer_2">
</g>
<g id="NA">
</g>
<g id="Layer_4">
</g>
<g id="Layer_5">
</g>
<g id="Layer_6">
</g>
<g id="Layer_7">
</g>
<g id="Layer_8">
</g>
</svg>
