<?xml version="1.0" encoding="utf-8"?>
<!-- Generator: Adobe Illustrator 20.1.0, SVG Export Plug-In . SVG Version: 6.00 Build 0)  -->
<!DOCTYPE svg PUBLIC "-//W3C//DTD SVG 1.1//EN" "http://www.w3.org/Graphics/SVG/1.1/DTD/svg11.dtd">
<svg version="1.1" id="Layer_1" xmlns="http://www.w3.org/2000/svg" xmlns:xlink="http://www.w3.org/1999/xlink" x="0px" y="0px"
	 viewBox="0 0 841.9 595.3" style="enable-background:new 0 0 841.9 595.3;" xml:space="preserve">
<style type="text/css">
	.st0{fill:url(#SVGID_1_);}
	.st1{fill:url(#SVGID_2_);}
	.st2{fill:url(#SVGID_3_);}
	.st3{fill:url(#SVGID_4_);}
	.st4{fill:url(#SVGID_5_);}
	.st5{fill:url(#SVGID_6_);}
	.st6{fill:url(#SVGID_7_);}
	.st7{fill:url(#SVGID_8_);}
	.st8{fill:url(#SVGID_9_);}
</style>
<radialGradient id="SVGID_1_" cx="429.2498" cy="265.7003" r="337.6589" gradientUnits="userSpaceOnUse">
	<stop  offset="0" style="stop-color:#FDFBDC"/>
	<stop  offset="1" style="stop-color:#EFF6E1"/>
</radialGradient>
<path class="st0" d="M60.7,15l-8.1,6.1v2C57.9,22,62.1,20.9,60.7,15 M305.5,51.4h-2c-2.5-8.6-9.1-7.4-16.2-4v2l8.1-2l8.1,4
	l-14.2,6.1c-6.1,12.4-23.7,20.8-20.2,36.4l-40.5,20.2c-4.4,14-24,12.8-32.3,23.4c-5.4,6.9-3.9,16.4,4,19v30.3
	c18.4,2.8,45.2,7.9,52.6-16.2c20.6,11.1,28.1,40.6,36.4,60.7l12.1-2l18.2-14.8l8.1-29.2l18.2-20.7l-20.2-10.1
	c5.5-25.3,17.4-32.2,38.4-46.5c-2.7-23.7,20.6-20.6,36.4-20.2l2,10.1c-8.3,2.4-13.3,8.3-20.1,13.4c-5.1,3.9-13.3,7-16.2,13.2
	c-8.4,18.2,13.2,37.1,28.5,40.6c24.7,5.7,50.7-19.4,74.5,3.6c-10.9-5-22.4-2-26.3,10.1h-2c-5.8-9.6-33.5-15.5-40.1-2.9
	c-4.3,8.1,13.2,14.4,8.8,24.1c-4.9,10.7-19.9-6.2-28.6,0.6c-9.9,7.7-1.4,17.3-4.2,26.7c-2.9,9.6-16.2,17.3-24.9,20.3l-2-8.1
	c-15.9,0.7-28.9,9.5-44.5,10.5c-12.3,0.8-22.8-11.9-32.4,1.7l-24.3-14.2c1.2-8.8,4.2-14.1,12.1-18.2l-6.1-22.3l-22.5,14.5l4.2,46.2
	h-2c-4.7-3.5-8.1-4.6-12.1,0l-30.3,8.1l-4,24.3c-18.3,0.2-37.3,10.8-40.5,30.3l-30.3-6.1l4,14.2l-36.4,2l4,4l-2,6.1
	c23.6,7.2,46.5,22.1,38.4,50.6c-1.8,6.2-3.8,13.9-10.3,16.7c-22.5,9.6-68-18.6-85.2,4.7c-4.4,5.9,3,23.9,3,31.5
	c0,10-9,17.9-9.9,27.9c-1,10.5,6.9,18.5,5.4,30.4c7,1.6,15.8-1.8,22,0.6c6,2.4,6.5,10.8,12.7,12.9c5.9,2,14-3.8,19.9-4.8
	c16.8-2.7,46.7-1.4,48.5-24.9l16.2-6.1v-6.1c-19.3-21.5,22.4-31.7,30.3-43.5c4.9-7.4-0.8-17.4,10.3-21.1c10.1-3.4,18.1,6.6,28.2,4.4
	c9.8-2.1,22.6-8.5,24.3-18.7c20.5,2.1,24.4,15.6,36.5,29.4c10,11.4,35.5,26.4,50.5,27.2l12.4,22.1l-4.3,16.4l2,2
	c9.6-5,24.9-21.2,8.1-26.3l4-14.2l10.1,10.1l8.1-2c-8.9-17.1-33.3-23.9-48.1-32.7c-12.8-7.6-27.7-34.8-30.8-48.2l16.2-6.1
	c0.4,11.4,4.6,15.9,16.2,14.2c-0.4,23.1,38.9,31.3,54,44.4c8.7,7.6,2.8,22.7,8.5,32.5c10.3,17.8,39.8,28.1,58.9,32.3l-6.1-10.1v-2
	h6.1c-4.2-7.7-9.8-9.1-18.2-10.1l-4-24.3l10.1,10.1h2c13.3-18.7,18.5-6.5,36.4-8c10.6-0.9,19.3-6.1,30.3-6.1v-6.1
	c-25.8-5.2-19.8-48.8,0-54.6l14.2-26.3c11.2,8.4,18.8,9.1,32.4,8.1L532,377.1v2c8.3,3.1,18.2,17.3,24.3,8.1l8.1,2l2-6.1h16.2v-2
	L554.3,369l42.5-16.2c-0.5,11-1.3,21-10.1,28.3l42.5,30.6l20.2-1l16.5,12.7l15.8,1.6l60.7,14.8c-6.1-11.9-23.8-42.5-36.4-44.5
	c8.3-20.1,33.3-42,56.6-38.4l-24.3-54.6c12.1-2.9,36.2,0.1,28.3-18.2c19-8.3,57.4,23.9,67,1.7c3-6.9,4.1-45.4-6.4-45.8
	c-11.3-0.4-35.6,24.5-39.9-6.4c-1.8-13,20.6-9.9,21.3-22.4c0.7-12.3-11.4-21.1-14.5-32.3c-5.9-21.4-8.5-44.8-13.8-66.8
	c-2.1-8.7-7.8-17.6-8.9-26.3C769.5,69.6,801,67.6,790,49.7c-9.8-16-41.9-12.7-57.8-16.5l-2,6.1l8.1,4c-6.1,7.4-9.9,7-16.2,0
	c-10.2,5.6-30.8,10.8-42.4,9.8c-5.7-0.5-8-6.9-14.3-6.5c-19.9,1.3-35.3,15.9-52.7,22.6c-7.8,3-14.4-1.2-18-7.7h10.1
	c-4.2-13.5-20.1-14.1-32.4-14.2l6.1,20.2l12.1,2l-2,14.2L507.7,46l-50.7-12.2l-30.3-4.7H441v-4h-26.3c-2.1-9.9-10.1-3.4-16.2,0V19
	h-2h-2l-10.1,10.1l4-8.1c-10.5-2.8-13,3.6-22.3,6.3C348.7,32.2,311.9,29.5,305.5,51.4z"/>
<radialGradient id="SVGID_2_" cx="127.4478" cy="157.6053" r="3.5758" gradientUnits="userSpaceOnUse">
	<stop  offset="0" style="stop-color:#FDFBDC"/>
	<stop  offset="1" style="stop-color:#EFF6E1"/>
</radialGradient>
<path class="st1" d="M123.4,154.6v6.1h8.1v-6.1H123.4z"/>
<radialGradient id="SVGID_3_" cx="110.2542" cy="176.747" r="3.8711" gradientUnits="userSpaceOnUse">
	<stop  offset="0" style="stop-color:#FDFBDC"/>
	<stop  offset="1" style="stop-color:#EFF6E1"/>
</radialGradient>
<path class="st2" d="M105.2,178.8l10.1-2C110.4,173.5,108.5,173.9,105.2,178.8z"/>
<radialGradient id="SVGID_4_" cx="231.6182" cy="245.5958" r="126.058" gradientUnits="userSpaceOnUse">
	<stop  offset="0" style="stop-color:#FDFBDC"/>
	<stop  offset="1" style="stop-color:#EFF6E1"/>
</radialGradient>
<path class="st3" d="M380.3,184.9c3.6,10.8,13.4,5.4,18.2-2L380.3,184.9 M66.8,205.1h8.1l4,18.2L89,233.5l-6.1,6.1l18.2-4
	c0.9,12.2,9.5,26.3-10.1,22.3L80.9,284l22.3,2v6.1c-12,0.4-20.9,5.2-26.3,16.2c17.4-2,33.3-9.6,50.6-12c11.3-1.6,19.9,0.9,28.3-8.2
	l-6.1-2c7.5-6.5,12.9-9.8,10.1-20.2c-14.7-1.7-26.9-30-37.3-39.9c-5.1-4.8-13.4-4.9-19.3-8.7c12.8-5.2,16.1-10.7,16.2-24.3l-20.2,4
	l6.1-12.1L72.8,195l2-10.1C61.4,187.1,64.4,194.7,66.8,205.1z"/>
<radialGradient id="SVGID_5_" cx="47.5614" cy="256.0823" r="29.0191" gradientUnits="userSpaceOnUse">
	<stop  offset="0" style="stop-color:#FDFBDC"/>
	<stop  offset="1" style="stop-color:#EFF6E1"/>
</radialGradient>
<path class="st4" d="M74.9,227.4l2,2L74.9,227.4 M40.5,239.5l6.1,2v4l-20.2-2l6.1,6.1v4l-6.1,6.1l10.1,2L18.2,278v2
	c17.5,12.6,30.2-3.8,48.5-2c4.4-8.5,11.8-28.9,9.8-38.3C73.3,224.6,47.1,232.5,40.5,239.5z"/>
<radialGradient id="SVGID_6_" cx="251.6483" cy="460.8888" r="14.4834" gradientUnits="userSpaceOnUse">
	<stop  offset="0" style="stop-color:#FDFBDC"/>
	<stop  offset="1" style="stop-color:#EFF6E1"/>
</radialGradient>
<path class="st5" d="M240.7,445.9l6.1,12.1l2,20.2c9.3-4.1,21.3-27.2,7.4-33.9C251.9,442.2,245.2,445.1,240.7,445.9z"/>
<radialGradient id="SVGID_7_" cx="316.5768" cy="496.7651" r="16.203" gradientUnits="userSpaceOnUse">
	<stop  offset="0" style="stop-color:#FDFBDC"/>
	<stop  offset="1" style="stop-color:#EFF6E1"/>
</radialGradient>
<path class="st6" d="M329.7,484.3l-32.4,4c1.6,9.2,7.2,12.2,16.2,12.1c5.1,8.1,13.2,10,22.3,8.1v-4L329.7,484.3z"/>
<radialGradient id="SVGID_8_" cx="428.8406" cy="503.4991" r="19.52" gradientUnits="userSpaceOnUse">
	<stop  offset="0" style="stop-color:#FDFBDC"/>
	<stop  offset="1" style="stop-color:#EFF6E1"/>
</radialGradient>
<path class="st7" d="M404.6,492.4v4l8.1,12.1l8.1,6.1l10.1,2l-4-16.2C435.3,490.7,409.9,490.3,404.6,492.4 M447,490.4v2l6.1,2
	L447,490.4z"/>
<radialGradient id="SVGID_9_" cx="453.1138" cy="531.8178" r="12.4897" gradientUnits="userSpaceOnUse">
	<stop  offset="0" style="stop-color:#FDFBDC"/>
	<stop  offset="1" style="stop-color:#EFF6E1"/>
</radialGradient>
<path class="st8" d="M439,524.7l-2,8.1l32.4,6.1C464.3,527.8,449.6,529.4,439,524.7z"/>
</svg>
