<?xml version="1.0" encoding="utf-8"?>
<!-- Generator: Adobe Illustrator 20.1.0, SVG Export Plug-In . SVG Version: 6.00 Build 0)  -->
<!DOCTYPE svg PUBLIC "-//W3C//DTD SVG 1.1//EN" "http://www.w3.org/Graphics/SVG/1.1/DTD/svg11.dtd">
<svg version="1.1" id="Layer_1" xmlns="http://www.w3.org/2000/svg" xmlns:xlink="http://www.w3.org/1999/xlink" x="0px" y="0px"
	 viewBox="0 0 1024 768" style="enable-background:new 0 0 1024 768;" xml:space="preserve">
<style type="text/css">
	.st0{fill:#4DB8E6;}
	.st1{fill:#FFFFFF;}
</style>
<title>Artboard 4</title>
<path class="st0" d="M557.3,227.7c0-4.2-3.4-7.6-7.6-7.6c-0.9,0-1.8,0.2-2.7,0.5c-1.8-6.2-8.2-9.7-14.3-8c-2.2,0.6-4.1,1.9-5.6,3.6
	c-4.6-3.7-11.4-3-15.2,1.6c-0.6,0.7-1.1,1.5-1.5,2.4c-3.9-2.1-8.8-0.6-10.9,3.4c-0.6,1.2-0.9,2.4-0.9,3.8c0,4.3,3.2,7.9,7.4,8.4
	c0.2,0,0.3,0.4,0.5,0.4h43.8c0.7-0.1,1.4-0.4,2-0.9C555.4,233.8,557.3,230.9,557.3,227.7z"/>
<path class="st1" d="M559.3,229c0-4.2-3.4-7.6-7.6-7.6c-0.9,0-1.8,0.2-2.6,0.5c-1.8-6.2-8.2-9.7-14.3-8c-2.2,0.6-4.1,1.9-5.6,3.6
	c-4.6-3.7-11.4-3-15.2,1.6c-0.6,0.7-1.1,1.5-1.5,2.4c-3.9-2.1-8.8-0.6-10.9,3.4c-0.6,1.2-0.9,2.4-0.9,3.8c0,4.2,3.2,7.8,7.4,8.2
	c0.2,0,0.3,0.2,0.5,0.2h43.8c0.7-0.1,1.4-0.3,2-0.7C557.4,235.1,559.3,232.2,559.3,229z"/>
<path class="st0" d="M419,197.4c0,2.6-1.6,5-4,6c-0.5,0.3-1,0.5-1.6,0.6h-35.5c-0.1,0-0.3-0.2-0.4-0.2c-0.8-0.1-1.6-0.3-2.4-0.7l0,0
	c-0.4-0.2-0.8-0.5-1.2-0.8l-0.8-0.8l0,0c-1-1.2-1.6-2.8-1.6-4.4c0-3.6,2.9-6.5,6.6-6.5c1,0,2.1,0.3,3,0.7c1.3-2.9,4.1-4.9,7.3-5.1
	h0.6c2,0,3.9,0.7,5.5,1.9c1.8-2.1,4.4-3.3,7.1-3.3c2.2,0,4.3,0.8,6,2.2c1.5,1.2,2.5,2.8,3,4.6c0.4-0.1,0.7-0.2,1.1-0.3
	c0.3-0.1,0.7-0.1,1-0.1c1.2,0,2.4,0.4,3.5,1.1h0c0.2,0.2,0.5,0.3,0.7,0.6c0.3,0.3,0.6,0.6,0.9,1v0.1C418.7,195,419,196.2,419,197.4z
	"/>
<path class="st1" d="M420.7,198.5c0,2.6-1.6,4.9-4,5.9c-0.5,0.3-1,0.5-1.6,0.6h-35.5c-0.2,0.1-0.5,0.1-0.7,0.1c-1.4-0.3-2.6-1-3.6-2
	l0,0c-0.6-0.6-1.1-1.4-1.5-2.2c-0.4-0.9-0.5-1.8-0.5-2.7c0.2-4.6,5.2-6.5,6.5-6.5c0.9,0,1.8,0.2,2.6,0.6l0.4,0.2
	c0.2-0.4,0.4-0.9,0.7-1.3c0.7-1,1.5-1.9,2.5-2.5c3.2-2.1,7.3-1.9,10.3,0.5c3.4-3.9,9.3-4.4,13.2-1c1,0.9,1.8,1.9,2.4,3.2
	c0.2,0.4,0.4,0.9,0.5,1.4c0.7-0.2,1.4-0.4,2.1-0.4c0.8,0,1.6,0.2,2.3,0.5l0.2,0.1C419.3,193.9,420.7,196.1,420.7,198.5L420.7,198.5z
	"/>
<circle class="st1" cx="364.3" cy="207.6" r="4"/>
<path class="st0" d="M360.7,207.8c0-2.1,1.7-3.8,3.8-3.9c2.1,0,3.8,1.7,3.9,3.8c0,0,0-0.1,0-0.1c0-2.2-1.8-4-4-4s-4,1.8-4,4
	s1.8,4,4,4h0.1C362.4,211.5,360.7,209.9,360.7,207.8z"/>
<circle class="st1" cx="579.5" cy="232.5" r="6.9"/>
<path class="st0" d="M573.3,232.9c0-3.6,2.9-6.6,6.5-6.7c3.6,0,6.6,2.9,6.7,6.5c0-0.1,0-0.1,0-0.2c0-3.8-3.1-6.9-6.9-6.9
	s-6.9,3.1-6.9,6.9s3.1,6.9,6.9,6.9l0,0h0.2C576.1,239.4,573.3,236.5,573.3,232.9z"/>
<circle class="st1" cx="612.5" cy="238.9" r="4"/>
<path class="st0" d="M608.9,239.1c0-2.1,1.7-3.8,3.8-3.9c2.1,0,3.8,1.7,3.9,3.8c0,0,0-0.1,0-0.1c0-2.2-1.8-4-4-4s-4,1.8-4,4
	s1.8,4,4,4h0.1C610.6,242.8,608.9,241.1,608.9,239.1z"/>
<path class="st0" d="M657.3,197.7c0-4.2-3.4-7.6-7.6-7.6c-0.9,0-1.8,0.2-2.7,0.5c-1.8-6.2-8.2-9.7-14.3-8c-2.2,0.6-4.1,1.9-5.6,3.6
	c-4.6-3.7-11.4-3-15.2,1.6c-0.6,0.7-1.1,1.5-1.5,2.4c-3.9-2.1-8.8-0.6-10.9,3.4c-0.6,1.2-0.9,2.4-0.9,3.8c0,4.3,3.2,7.9,7.4,8.4
	c0.2,0,0.3,0.4,0.5,0.4h43.8c0.7-0.1,1.4-0.4,2-0.9C655.4,203.8,657.3,200.9,657.3,197.7z"/>
<circle class="st1" cx="679.5" cy="202.5" r="6.9"/>
<path class="st0" d="M673.3,202.9c0-3.6,2.9-6.6,6.5-6.7c3.6,0,6.6,2.9,6.7,6.5c0-0.1,0-0.1,0-0.2c0-3.8-3.1-6.9-6.9-6.9
	s-6.9,3.1-6.9,6.9s3.1,6.9,6.9,6.9l0,0h0.2C676.1,209.4,673.3,206.5,673.3,202.9z"/>
<path class="st1" d="M659.3,199c0-4.2-3.4-7.6-7.6-7.6c-0.9,0-1.8,0.2-2.6,0.5c-1.8-6.2-8.2-9.7-14.3-8c-2.2,0.6-4.1,1.9-5.6,3.6
	c-4.6-3.7-11.4-3-15.2,1.6c-0.6,0.7-1.1,1.5-1.5,2.4c-3.9-2.1-8.8-0.6-10.9,3.4c-0.6,1.2-0.9,2.4-0.9,3.8c0,4.2,3.2,7.8,7.4,8.2
	c0.2,0,0.3,0.2,0.5,0.2h43.8c0.7-0.1,1.4-0.3,2-0.7C657.4,205.1,659.3,202.2,659.3,199z"/>
<path class="st0" d="M166.7,221.9c0-2.9-2.3-5.3-5.3-5.3c-0.6,0-1.3,0.1-1.8,0.3c-1.2-4.3-5.6-6.7-9.9-5.5c-1.5,0.4-2.9,1.3-4,2.5
	c-3.2-2.6-7.9-2.1-10.5,1.1c-0.4,0.5-0.8,1.1-1,1.7c-0.8-0.4-1.7-0.6-2.6-0.6c-1.2,0-5.4,1.8-5.6,5.6c-0.2,3.4,2.9,5.5,4.8,6.1
	c0.2,0.1,0.4,0.1,0.6,0.2h30.4c0.5,0,1-0.5,1.4-0.7C165.3,226.2,166.7,224.1,166.7,221.9z"/>
<path class="st1" d="M168.1,222.8c0-2.9-2.4-5.3-5.4-5.3c0,0,0,0,0,0c-0.6,0-1.2,0.1-1.8,0.3c-1.3-4.3-5.9-6.8-10.3-5.4
	c-1.4,0.4-2.7,1.3-3.7,2.4c-3.3-2.6-8.1-2.1-10.8,1.2c-0.4,0.5-0.7,1-1,1.6c-0.8-0.4-1.7-0.6-2.6-0.6c-3.1,0-5.6,2.5-5.7,5.6
	c0,0,0,0,0,0c0,0.8,0.2,1.5,0.5,2.2c0.9,1.8,2.7,3.1,4.7,3.2c0.2,0,0.3,0.1,0.4,0.1h30.9c0.5,0,1-0.1,1.4-0.3
	C166.7,227,168.1,225,168.1,222.8z"/>
<path class="st0" d="M341.9,250.5c0-3.7-3-6.7-6.7-6.7c-0.8,0-1.5,0.1-2.3,0.4c-1.6-5.4-7.2-8.6-12.7-7c-1.9,0.5-3.6,1.6-4.9,3.2
	c-4.1-3.3-10.1-2.7-13.4,1.4c-0.5,0.6-1,1.4-1.3,2.1c-3.5-1.8-7.8-0.5-9.6,3c-0.5,1-0.8,2.2-0.8,3.3c0,3.7,2.9,6.8,6.6,7
	c0.1,0,0.3-0.1,0.4-0.1h38.8c0.6,0,1.2-0.1,1.7-0.3C340.2,255.7,341.9,253.2,341.9,250.5z"/>
<path class="st1" d="M343.7,251.7c0-3.7-3-6.7-6.7-6.7c-0.8,0-1.5,0.1-2.3,0.4c-1.5-5.5-7.2-8.6-12.6-7.1c-2,0.6-3.7,1.7-5.1,3.2
	c-4.1-3.3-10.1-2.7-13.4,1.4c-0.5,0.6-1,1.4-1.3,2.1c-3.5-1.8-7.8-0.5-9.6,3c-0.5,1-0.8,2.2-0.8,3.3c0,3.7,2.9,6.7,6.6,6.9
	c0.1,0,0.3-0.2,0.4-0.2h38.8c0.6,0.1,1.2,0,1.7-0.2C341.9,256.9,343.7,254.4,343.7,251.7z"/>
<path class="st0" d="M266.8,207.9c0,3.2-1.9,6.1-4.9,7.4c-0.6,0.4-1.3,0.7-2,0.7h-43.8c-0.2,0-0.3-0.2-0.5-0.3c-0.3,0-0.6,0-0.9,0
	c-0.7-0.1-1.5-0.4-2.1-0.7c-2.1-1.2-3.6-3.2-4.2-5.5c-0.2-0.7-0.2-1.3-0.2-2c0-4.4,3.5-8,7.9-8.1c1.3,0,2.7,0.3,3.9,0.9
	c2.4-5.4,8.8-7.9,14.2-5.5c0.9,0.4,1.7,0.9,2.4,1.5c4.2-4.8,11.5-5.4,16.4-1.2c1.7,1.5,2.9,3.4,3.6,5.5c0.4-0.2,0.9-0.3,1.4-0.4
	c0.4-0.1,0.8-0.1,1.2-0.1c1.1,0,2.1,0.2,3.1,0.6c0.8,0.3,1.5,0.8,2.1,1.4c0.8,0.7,1.4,1.6,1.8,2.5
	C266.6,205.8,266.8,206.9,266.8,207.9z"/>
<path class="st1" d="M268.8,209.3c0,3.2-1.9,6-4.9,7.1c-0.6,0.4-1.3,0.6-2,0.6h-43.8c-0.2,0-0.4,0.3-0.7,0.3c-0.4,0-0.7,0-1.1-0.1
	c-1.4-0.4-2.7-1.2-3.7-2.3c-0.9-0.9-1.6-2.1-2.1-3.4c-0.3-0.9-0.4-1.8-0.4-2.8c0.3-5.7,6.4-8.1,8.1-8.1c1.3,0,2.6,0.3,3.7,0.9
	c2.4-5.4,8.8-7.9,14.2-5.5c0.9,0.4,1.7,0.9,2.4,1.5c4.2-4.9,11.5-5.4,16.3-1.3c1.3,1.1,2.3,2.4,3,4c0.3,0.6,0.5,1.1,0.6,1.7
	c1.5-0.5,3.1-0.6,4.6-0.2c0.4,0.1,0.8,0.2,1.1,0.4C267.1,203.6,268.9,206.3,268.8,209.3L268.8,209.3z"/>
<circle class="st1" cx="292.6" cy="201.6" r="5.3"/>
<path class="st0" d="M287.8,201.9c0-2.8,2.2-5.1,5-5.1c2.8,0,5.1,2.2,5.1,5c0,0,0-0.1,0-0.1c0-2.9-2.4-5.3-5.3-5.3
	c-2.9,0-5.3,2.4-5.3,5.3s2.4,5.3,5.3,5.3l0,0h0.1C290,206.8,287.8,204.6,287.8,201.9z"/>
<ellipse transform="matrix(3.664368e-02 -0.9993 0.9993 3.664368e-02 -41.8105 408.6693)" class="st1" cx="191.1" cy="226" rx="3.2" ry="3.2"/>
<path class="st0" d="M188.2,226.1c0-1.7,1.4-3,3.1-2.9c1.7,0,3,1.4,2.9,3.1l0,0c0,0,0-0.1,0-0.1c0.1-1.8-1.3-3.2-3.1-3.3
	c-1.8-0.1-3.2,1.3-3.3,3.1c-0.1,1.8,1.3,3.2,3.1,3.3c0,0,0,0,0,0h0.1C189.4,229.1,188.1,227.7,188.2,226.1z"/>
<path class="st1" d="M659.3,199c0-4.2-3.4-7.6-7.6-7.6c-0.9,0-1.8,0.2-2.6,0.5c-1.8-6.2-8.2-9.7-14.3-8c-2.2,0.6-4.1,1.9-5.6,3.6
	c-4.6-3.7-11.4-3-15.2,1.6c-0.6,0.7-1.1,1.5-1.5,2.4c-3.9-2.1-8.8-0.6-10.9,3.4c-0.6,1.2-0.9,2.4-0.9,3.8c0,4.2,3.2,7.8,7.4,8.2
	c0.2,0,0.3,0.2,0.5,0.2h43.8c0.7-0.1,1.4-0.3,2-0.7C657.4,205.1,659.3,202.2,659.3,199z"/>
</svg>
