<?xml version="1.0" encoding="utf-8"?>
<!-- Generator: Adobe Illustrator 19.0.1, SVG Export Plug-In . SVG Version: 6.00 Build 0)  -->
<svg version="1.1" id="Layer_1" xmlns="http://www.w3.org/2000/svg" xmlns:xlink="http://www.w3.org/1999/xlink" x="0px" y="0px"
	 viewBox="0 0 1280 724.5" style="enable-background:new 0 0 1280 724.5;" xml:space="preserve">
<style type="text/css">
	.st0{fill:#FCDD5E;}
	.st1{fill:#FCDD5E;stroke:#FCDD5E;stroke-miterlimit:10;}
	.st2{fill:#C7EEFF;}
	.st3{fill:#F98C8C;}
</style>
<path class="st0" d="M643,721.8c-6.3-21-25.1-27.7-25.1-27.7s1.1-5.6,1.1-21.2c-3.8-4.9-8.8-13.3-14.1-23.2
	c-11.8-21.9-25.1-50.8-30.5-62.7c-14.1,3.4-26.3,4.8-36.8,4.7c-37.2-0.3-54.1-18.2-60.2-22.5c-7.8-5.6-37.9-2.2-37.9,6.7
	s-3.3,19-11.2,22.3c-7.8,3.3-34.6-5.6-32.8-14.5c1.7-8.9-14-16.7-34.1-20.1c-20.1-3.3-29-11.2-26.8-14.5s5.6-12.3,5.6-12.3
	s-6.7-14.5-13.4-23.2c-6.7-8.6-15.6,0-15.6,0s-7.8,4.2-22.3,5.3c-29-15.6-69.1,7.8-72.5,12.6c-3.3,4.8-17.8,5.3-36.8,4.1
	c-22.3-12.3-32.3,5.6-39,15.6c-2.5,1.2-5,3.1-7.4,5.3c-8.9,7.8-17.1,19.6-17.1,19.6v28.3c0,0-11.9,7.4-26.8,20.8
	C64,640.3,59.6,667,52.1,677.4c-11.9,16.4-24.7,40.1-24.7,40.1s0.9,1.5,2.3,4.2H643z"/>
<path class="st0" d="M253.8,316.2c-4.9,5.8-10.7,12.6-10.7,12.6l-7,6.2l-1.7,1.6c0,0-28.7-10-31,0c-1.5,6.5-11.3,11.7-21.5,12.2
	c-2.8,0.1-4.2-3.3-2.2-5.3c5.2-4.9,11.6-12.2,7.3-14.7c-6.8-3.9,28.1-27.1,17.4-33.9c-10.7-6.8-15.5-13.6-18.4-20.3
	c-1.5-3.6-8.5-12.1-8.6-19.7v0c0-4.5,2.4-8.7,9.8-11.4c3.7-1.4,8.7-2.4,15.3-2.8c4.8,5.8,2.9,14.5,15.5,9.7c1,3.9,1,3.9,1,3.9
	s-14.5,17.5-2.9,22.3c12.6,4.9,11.6,14.5,11.6,18c0,3.4,20.3,0.4,15.5,12.1c5.1,2.9,11.5,3.7,12,6.4
	C255.4,313.7,255,314.8,253.8,316.2z"/>
<path class="st0" d="M173.5,300.5c0,0,5,10.8,3.8,16.8c-0.4,1.9-1.3,3.3-3.2,3.7c-0.2,0.1-0.4,0.1-0.6,0.1
	c-8.9,1.1-32.9,16.2-35.7,7.8c-2.8-8.3,0-21.2,0-21.2s-7.9-8.4-7.1-13.3c0.2-1.2,0.9-2.2,2.4-2.8c0.8-0.4,2-0.6,3.4-0.7
	c14.1-0.5,14.1-0.5,14.1-0.5s4.6,0,3.4-5.6c-1.2-5.6,8.3-6.7,11.6-4.5S194.1,278.2,173.5,300.5z"/>
<path class="st0" d="M383.3,36.2c0,0-3.4,22.9-15.1,16s-22.6-7.4-22.6-7.4s13.7-8.3,0-8.7S332,35.8,332,35.8l-7.5-12.3
	c0,0,11.6-11.6,19.9-5.5c8.2,6.2,15.1,7.5,15.1,7.5l2.7-9.3l15.2,5.2l6.1-2.1l10.3,9.6l20.3-12.8c0,0,33.2-4.5,24.9,0
	c-8.2,4.5-15.1,8-15.1,8l-11.3,9.7c0,0,23.7-2.1,16.8,2.3s-15.4,4.4-15.4,4.4S392.9,34.5,383.3,36.2z"/>
<path class="st0" d="M701.9,110.5h-11.2h-22.4l-3.5-5.8l-8.9,2.4c0,0-13.7-11-7.5-13.7c6.2-2.7,18.5-21.1,17.8-25.2
	c-0.7-4.1-0.7-4.7-0.7-4.7h11.3c0,0,5.9-4.4,14.1-6.4c8.2-2.1,11.1-3.6,11.1-3.6h16.8c0,0,3-2,20.1-6.1c17.1-4.1,11,6.1,11,6.1
	l-35.6,18.6c0,0-28.8,5.5-25.3,13.7c3.4,8.2-2.1,12.1-2.1,12.1S710.3,104.5,701.9,110.5z"/>
<path class="st0" d="M136.1,511.6c22.3-2.9,19.4,6.7,29,10.4c14.9-11.9,21.6-3.7,35-6.7c13.4-3,26.8-23.1,26-29.8
	c-0.8-14.9,11.2-22.3,20.1-24.5c8.9-2.2,12.6-5.9,14.9-11.9c-0.7-26,13.4-19.3,22.3-15.6c11.9,8.2,20.8-3.7,29-11.9
	c8.2-8.2,14.1-6.7,20.1-1.5c6.7,29,13,26.1,33.9,38.7c20.8,12.6,21.9,16.4,23.4,32c-1.5,15.6,2.9,17.4,2.9,17.4s14.9-16,17.8-21.5
	c3-5.6-8.5-11.9-9.3-16c-0.8-4.1,16.4,6.3,16.4,6.3s6.3,0.4,1.1-7c-35.7-18.6-62.5-48.3-64-60.2c-8.2-27.5,69.1,37.9,72.9,48.3
	c-1.5,10.4-1.5,7.4,6.7,14.1c17.8,17.8,17.1,20.1,14.9,32c17.1,29,24.5,12.6,26,6.7c0.3-1.1,0.6-1.8,0.9-2.5
	c1.4-2.5,2.3-5.3,2.3-8.1c0-0.7,0-1.4-0.2-2.1c-11.9-4.5-8.2-14.9-12.6-28.2c-3-15.6,36.4-1.5,55-6.7c18.6-5.2,10.4,5.2,10.4,5.2
	l-24.5,3.7c0,0-2.2,5.2,0,7.4s3.7,8.9,11.9,33.5c10.4,14.1,33.6,11.6,35.7,4.4c6.1,8.2,34.7,11.2,37.7,6.2c3-5.1,7.1-4.1,16.3-6.2
	c6.1,65.3-27.6,71.4-27.6,71.4s-2,9.7,7,29c11.9,1.5,68.4,72.8,68.4,72.8s1.2,15.8,6,31h221.5c3.4-7.8,6.3-14.6,9.3-17.7
	c8.4-8.4-15.1-15.9-27.7-22.7c-15.1,0.8-15.1-10.9-19.3-24.4c-35.3,47.9-62.1,8.4-67.2-5.8c-5-14.3-33.6-38.6-33.6-38.6l17.3-8.7
	c0,0,0,0,17.4,18.8c17.4,18.8,51,25.5,58.8,23.6c7.9-2,13.4-4.9,17.5,6.6c8.3,16.6,98.9,8.3,98.9,8.3s40.5,35.4,46.8,31.2
	c2.7-1.8,1.3,0.8-1.1,4.5c-4.4,6.5-1.8,15.5,5.4,18.5c0.1,0.1,0.2,0.1,0.4,0.2c0.2,0.1,0.4,0.2,0.7,0.3c0.1,0,0.3,0.1,0.4,0.2
	c8,3,16.6-1.3,19.6-9.3c4.3-11.6,7.3,2.1,7.4,15.1h159c2.5-3.4,4.5-6.4,5.9-8.7c1-20.8,34.3-20.8,34.3-20.8s6.9,13.8,18.2,29.5h27.3
	V81.6c-6.5-3.1-13.6-4.7-20.9-4.7L1109.6,82c-3.3,0.1-5.3-2.5-5.3-5.2c0-1.7,0.8-3.3,2.5-4.3c8.9-5.4,6.6-18.9-3.5-21.1
	c-33-7-84.4-17.3-92.8-14.8c-12.6,3.7,3,12.7,3,12.7s-49.1,3.7-81.8,5.2c-32.7,1.5-59.1,34.7-59.1,34.7c-6.2-0.7-10.8,5.6-8.1,11.2
	l0.3,3.8c0.5,7.1,6.2,12.7,13.2,13.2l19.2,1.4l-3.9,6.3c-1.9,3-5.6,4.3-9,3.1l-14.3-5.1l1.7,23.2c-0.5,2.5-32.8,13.2-34.9,2.7
	c-1-4.8,26.9,7.7,24.6-23.1c2.2-6.6-0.3-11.8-4.3-16.2c-6.4-7.1-16.9-12.6-18.6-19.6c-2.9-11.4-34.3-7.1-44.3,0
	c-10,7.2,4.3,22.9,27.2,35.8c-74-25.6-149.9,22.1-207.9,2c-3.6-1.2,12.1,17,9,18.6c-17.6,9.1-30,17.5-35.5,21.9
	c-27.6,23.4-44.4-10-59.4-19.3c67,15.1-12.6-30.1-24.3-30.1c-11.7,0-5.8-6.7-0.8-9.2c0.8-6.7-53.6-5.8-65.3-5.8
	c-11.7,0-9.2,5.8-17.6,11.7c-8.4-2.5-11.7-3.3-24,0c-8.1,18.4-57.2,56.9-63.9,62.8c-7,1.3-13.5,3.4-19.3,5.8
	c-16.3,6.5-26.7,15.2-26.7,15.2s0.4,6.2,1.3,14.3c0.8,7.6,2,16.9,3.7,24.2c3.3,15.1,39.3-1.6,39.3-1.6c12.2-15.6,21.1,16.7,27,35.8
	c8.3,26.6,45.9-4,32.4-29.7c15.1-2.7,25.6-11.5,20.3-16.9c-21.6-22.9-6.1-30.4,0-34.4c6.1-4.1,17.6-6.1,24.3-20.9
	c6.8-14.9,21-7.4,23.6,0c1.3,8.1-20.9,12.8-22.3,36.4c-1.3,23.6,21.6,21.6,46.6,17.6c25-4.1,10.1,6.7,2.1,7.4
	c-18.9,0.7-29,6.7-29,10.1c16.2,22.3-0.7,15.5-10.2,11.5c-10.1,4.7-10.8,33.1-10.8,33.1s-8.1,0-14.2,6.1c-6.1,6.1-10.8-4.7-10.8-4.7
	s-38.5,12.2-39.8,8.1c-1.4-4.1-9.5-2-23.6-1.3c-24.4-4.7-8.8-17.6-8.1-27.7c0.7-8.1-10.1-9.5-17.6-6.1c-18.2,5.4-6.6,23.5-1.4,43.5
	c-22.3-7.4-30.5,5.2-37.2,4.5c-6.7-0.7-3.7,2.2-1.5,6c2.2,3.7-30.5,20.1-32.7,28.2c-6.7,8.9-25.3,9.7-33.5,5.2
	c-2.2,11.9-6,10.4-9.7,12.6c-30.5-1.5-22.3,9.7-13.4,11.9c39.4,12.6,28.2,33.5,24.5,48.3c-3.7,14.9-43.9,8.2-58,6.7
	c-14.1-1.5-18.6,4.5-23.1,9.7c4.5,20.1-8.2,41.6-11.2,51.3C127.2,493.8,130.2,499.8,136.1,511.6z"/>
</svg>
