<?xml version="1.0" encoding="utf-8"?>
<!-- Generator: Adobe Illustrator 19.0.1, SVG Export Plug-In . SVG Version: 6.00 Build 0)  -->
<svg version="1.1" id="Layer_1" xmlns="http://www.w3.org/2000/svg" xmlns:xlink="http://www.w3.org/1999/xlink" x="0px" y="0px"
	 viewBox="0 0 1280 724.5" style="enable-background:new 0 0 1280 724.5;" xml:space="preserve">
<style type="text/css">
	.st0{fill:#FCDD5E;}
	.st1{fill:#FCDD5E;stroke:#FCDD5E;stroke-miterlimit:10;}
	.st2{fill:#C7EEFF;}
	.st3{fill:#F98C8C;}
</style>
<path class="st0" d="M772.2,139l9.1-10.5c4.9,1.9,8.8,2.8,7.6,4.8c-2,3.4-5.8,6.5-5.8,6.5S778.4,138.5,772.2,139z"/>
<path class="st0" d="M791.6,127.9c-2.7-0.7-5.2-1.6-7.7-2.5l41-47.5l27.1,23.4c-6.4,3.6-8.7,9.4-11.9,9.8
	c-4.7,0.7-10.1,2.7-14.2-0.7c-4-3.4-28.3-10.8-21.6-5.4c6.7,5.4,18.9,5.4,14.2,8.8C813.8,117.1,806.4,131.9,791.6,127.9z"/>
<path class="st0" d="M538.8,662.3c12.9,31.7,45.6,33,59.2,33c-0.3,14.2,12.9,21.5,12.9,21.5s0.6,3.1,1.4,7.3h25.1
	c-2-8.1-2-17.3-2.2-23.2c9.6-15.5,7.8-19.7,6-29.9c-1.8-9.6-43-11.3-49.6-14.3c4.8-3,10.2-22.1,14.4-29.9c0.6-6,5.4-17.9,11.9-26.3
	c0-8.4-30.5-0.6-39.4,6.6c-3,27.5-24.5,26.3-38.3,29.3c-43.6-9-26.3-71.1-22.1-76.5c4.2-5.4,10.7-27.5,10.7-30.5c0-3,0-6,7.2-6.6
	c7.2-0.6,9-3,16.7-9c7.8-6,0-4.2,4.4-5.4c3.8,0.6,9.4-1.8,14.7-4.2c4.8-3,3-1.8,10.2,1.8c12,13.8,20.3,1.2,22.7-6
	c1.8-5.4,35.2-4.2,35.2-4.2s4.8,8.4,19.7,9c16.1-0.6,10.2,31.7,17.3,47.2c7.8,15.5,15.5-14.3,15.5-14.3l-1.8-42.4
	c0,0,0.4-31.6,35.4-34.9c35-3.3,30.4-32.4,25.8-37.7c1.3-25.8,26.4-24.4,32.4-28.4c5.3-16.5,24.5-19.8,36.4-23.2
	c11.9-3.3,12.5-6.6,13.2-16.5c15.2-19.8,44.9-15.2,44.9-15.2s1.3,4,7.3,7.3c5.9,3.3,45.6-20.5,45.6-20.5s1.3-4.6-10.6-4.6
	c-20.5-2-13.2-23.8-13.2-23.8s9.9-1.3,9.2-13.9c-1.3-11.9-49.6,12.6-58.8,15.2c1.3-4,39-23.2,39-23.2s0,0,8.6-4.6
	c8.6-4.6,44.2,4.6,53.5,4c9.2-0.7,48.9-22.5,48.9-22.5s3.3-3,4.8-12.9c1.5-9.9-10.9-5.5-14.4-8.4c4.5-2.5,5.5-7.4,6.5-11.4
	c-22.8,5-30.7-9.9-27.3-12.4c3.5-2.5,4.5-6.4,3-15.9c-1.5-9.4-0.5-21.3,0-26.2c0.5-5-31.7,16.9-40.6,19.8c-19.3,9.4-5.9-26.8-3-33.2
	c3-6.4-18.1-13-22.9-11.8c-1.8,4.2-18.4,0.6-25.5-0.6c-7.1-1.2-11.3,7.1-11.9,10.1c-0.6,2.9-5.4,2.9-5.4,8.3c0,5.4-2.4,7.7-5.4,13
	c-11.9,4.2-10.4,6.7-7.7,12.6c8.6,33.8-28.3,30.2-43.7,30.6c6.3,22-9,37.3-16.7,45c-23.4,14.4-1.8-37.3,0-43.7
	c1.8-6.3-23.4-1.3-32.8-6.7c-4.5-6.7-14.8-9.9-20.3-12.6c-51.3,2.3,2.7-46.8,14-53.5c11.3-6.7,23.9-3.2,23.9-3.2s3.8-3.2,5.8-6.5
	c2-3.4-10.1-3.4-17.5-10.8c-7.4-7.4,5.4,1.3,20.2,5.4c14.8,4,22.2-10.8,27-14.2c4.7-3.4-7.4-3.4-14.2-8.8c-6.7-5.4,17.5,2,21.6,5.4
	c4,3.4,9.4,1.3,14.2,0.7c4.7-0.7,7.4-12.8,24.3-12.8s24.3-3.4,24.3-7.4c0-4,4.7-1.3,10.8-8.1l-15-12.9c-8,2.1-17.3,6.9-24.1,14.2
	c-10.1,10.8-1.3-11.5-8.8-12.1c-25.6,22.9-13.5-8.8-13.5-8.8V51.1c0,0,0,0-7.4-1.3c-27-2-18.2,10.8-19.5,16.9
	c-1.3,6.1,0,10.1,0,10.1s-10.1,0-20.9,11.5c-10.8,11.5-8.1-2.7-6.1-9.4c2-6.7-8.1-0.7-8.1-0.7s-0.7,2,0,8.1
	c0.7,6.1-43.9-0.7-55.3-2.7c-11.5-2-27,5.4-31,10.8c-4,5.4,0-7.4,0-7.4s0,0-6.7-1.3c-11.5,9.4-32.4,3.4-39.8-2
	c-7.4-5.4,10.1-6.1,10.1-6.1s0,0,0-3.4c0-3.4-29-2.7-42.5-6.7c-8.8,3.4-18.9,1.3-30.3-0.7c-11.5-2-46,3.2-49.7,5.4
	c-3.7,2.2-12.5,2.9-21.4,4.4c-25.1-12.5-61.2-17-67.8-17c-6.7,0-25.8-1.5-42-4.4c-39.8-3.7-94.4,15.5-102.6,16.9
	c-34.2,3.8-29,7.9-29,7.9s-0.4,15.4,7.2,16.6c7.5,1.2,0,4.6-1.4,6.7c-1.3,2.1-8.9,2.4-16.1-3.8c-7.2-6.1-4.8-1-21.5,2.1
	c-16.7,3.1-25.9,16.7-25.9,16.7s28,2.4,36.2,0.4c8.2-5.5,10.2-3.4,10.2-3.4s-11,11.5-14.7,16.8c-3.7,5.2-27.8,0-35.2,0
	c-7.3,0-11,7.3-17.8,10.5c-16.8,6.8-19.9,14.7-22.6,21.5c-2.7,6.8,12.6-1,19.9-2.6c7.4-1.6-7.3,6.3-15.7,12.6
	c-8.4,6.3,6.8,4.2,11,7.3c4.2,3.1,4.7,0.5,12.6-2.6c7.9-3.2,12.6-2.6,18.9,0c6.3,2.6-38.8,18.9-50.4,24.1
	c-11.5,5.2-37.3,5.7-44.6,6.8c-1.5,0.2-3.3,0.7-5,1.5l-8.9,10.3c5.6-0.6,16.3-5.7,22.3-6.6c7.3-1.1,27.8-0.5,27.8-0.5
	s68.5-26.2,76.2-27.5c7.7-1.4,10.4-13.2,10.4-13.2s4.1,0,9.1-2.7c5-2.7,36.3-17.2,40.8-15.4c4.5,1.8-24.5,14.5-26.8,19.5
	c-2.3,5,21.3-6.3,34-13.2c12.7-6.8,19.9-7.3,29.9-5.4c10,1.8,6.8,8.2,11.8,7.7c28.6,4.6,25.4,10.9,30.4,16.8
	c5,5.9,13.8,0.9,13.8,0.9s5-10.9,11.9-6.9c6.9,4-12.9,68.4-1,86.2s4,25.8,2,37.7c-4,5-12.9-5.9-16.9-7.9c0,21.8-44.6,79.3-54.5,92.2
	c-9.9,12.9,6,65.4,6,65.4l16.7,9.6c0,0-0.8,35,11.9,50.9c12.7,15.9-4.8,20.7-4.8,20.7l18.3,12.7c0,0-5.6,18.3,3.2,21.5
	c8.8,3.2,12.7,15.9,17.5,14.3c4.8-8-6.4-27-6.4-29.4s0.8-8.8-8.7-22.3c-11.1-15.1-8.8-43.7-8.8-43.7s6.3,0,14.3,4
	c-8,33.4,7.9,35,18.3,53.2c27.8,29.4,27.8,56.5,27,75.5c44.5,51.7,85.4,52.8,94,47.2C532.8,656.7,535.5,659.6,538.8,662.3z"/>
<path class="st0" d="M857.4,724.1c-5.7-3.9-16.6-7.6-36.8-4.3c-20.8-2-31.7-16.9-44.6-12.9c-6.9,2.1-11,10.8-13.7,17.2H857.4z"/>
<path class="st0" d="M756.5,724.1c0.3-9.7,5.6-24.2,5.6-24.2s0-13.9-27.8,9.9c-7.8,5-11.8,5-13.8,4.1c-1.6-0.8-2-2.1-2-2.1
	l-6.7,12.3l0,0H756.5z"/>
<path class="st0" d="M538.8,662.3c12.9,31.7,45.6,33,59.2,33c-0.2,8.1,4,14,7.7,17.5c2.7,2.6,5.2,4,5.2,4s0.6,3.1,1.4,7.3h25.1
	c-2-8.1-2-17.3-2.2-23.2c9.4-15.1,7.9-19.5,6.1-29.2c0-0.2-0.1-0.5-0.1-0.7c-1.8-9.6-43-11.3-49.6-14.3c4.8-3,10.2-22.1,14.4-29.9
	c0.6-6,5.4-17.9,11.9-26.3c0-8.4-30.5-0.6-39.4,6.6c-3,27.5-24.5,26.3-38.3,29.3c-43.6-9-26.3-71.1-22.1-76.5
	c4.2-5.4,10.7-27.5,10.7-30.5c0-3,0-6,7.2-6.6c7.2-0.6,9-3,16.7-9c7.8-6,0-4.2,4.4-5.4c3.8,0.6,9.4-1.8,14.7-4.2
	c4.8-3,3-1.8,10.2,1.8c12,13.8,20.3,1.2,22.7-6c1.8-5.4,35.2-4.2,35.2-4.2s4.8,8.4,19.7,9c16.1-0.6,10.2,31.7,17.3,47.2
	c7.8,15.5,15.5-14.3,15.5-14.3l-1.8-42.4c0,0,0.4-31.6,35.4-34.9c35-3.3,30.4-32.4,25.8-37.7c1.3-25.8,26.4-24.4,32.4-28.4
	c5.3-16.5,24.5-19.8,36.4-23.2c11.9-3.3,12.5-6.6,13.2-16.5c15.2-19.8,44.9-15.2,44.9-15.2s1.3,4,7.3,7.3
	c5.9,3.3,45.6-20.5,45.6-20.5s1.3-4.6-10.6-4.6c-20.5-2-13.2-23.8-13.2-23.8s9.9-1.3,9.2-13.9c-1.3-11.9-49.6,12.6-58.8,15.2
	c1.3-4,39-23.2,39-23.2s0,0,8.6-4.6c8.6-4.6,44.2,4.6,53.5,4c6-0.4,24.8-9.8,37.2-16.3c6.7-3.5,11.7-6.2,11.7-6.2s3.3-3,4.8-12.9
	c1-6.3-3.8-6.8-8.2-7.1c-2.5-0.2-4.9-0.3-6.2-1.3c1-0.5,1.7-1.1,2.4-1.9c2.5-2.7,3.3-6.4,4-9.5c-5.8,1.3-10.7,1.2-14.6,0.4
	c-9.8-1.9-13.9-8.5-13.4-11.5c0.1-0.6,0.3-1,0.7-1.3c3.5-2.5,4.5-6.4,3-15.9c-1.5-9.4-0.5-21.3,0-26.2c0.4-4.1-21.8,10.3-34.4,16.9
	c-2.6,1.3-4.7,2.4-6.2,2.9c-11.5,5.6-11.4-5-8.8-15.9c1.7-7.3,4.6-14.8,5.8-17.4c3-6.4-18.1-13-22.9-11.8c-1.1,2.7-8.5,2.1-15.5,1.1
	c-3.8-0.6-7.5-1.3-10-1.7c-7.1-1.2-11.3,7.1-11.9,10.1c-0.6,2.9-5.4,2.9-5.4,8.3c0,5.4-2.4,7.7-5.4,13c-11.9,4.2-10.4,6.7-7.7,12.6
	c8.6,33.8-28.3,30.2-43.7,30.6c6.3,22-9,37.3-16.7,45c-23.4,14.4-1.8-37.3,0-43.7c1.8-6.3-23.4-1.3-32.8-6.7
	c-4.5-6.7-14.8-9.9-20.3-12.6c-10.1,0.4-16.1-1.1-19.2-4c-12.5-11.5,24.1-44.1,33.1-49.6c4.4-2.7,9-3.7,13-4
	c6.2-0.5,10.9,0.8,10.9,0.8s3.8-3.2,5.8-6.5c1.2-2-2.7-2.9-7.6-4.8c-3.3-1.3-7-3.1-9.9-6c-6.1-6.1,1.4-1.3,12.5,2.9c0,0,0,0,0,0
	c2.4,0.9,5,1.8,7.7,2.5c14.8,4,22.2-10.8,27-14.2c4.7-3.4-7.4-3.4-14.2-8.8c-6.7-5.4,17.5,2,21.6,5.4c4,3.4,9.4,1.3,14.2,0.7
	c3.2-0.5,5.5-6.2,11.9-9.8c3-1.7,7-3,12.4-3c16.9,0,24.3-3.4,24.3-7.4c0-4,4.7-1.3,10.8-8.1c6.1-6.7,4-13.5-4.7-14.2
	c-2.9-0.2-6.4,0.2-10.3,1.3c-8,2.1-17.3,6.9-24.1,14.2c-10.1,10.8-1.3-11.5-8.8-12.1c-25.6,22.9-13.5-8.8-13.5-8.8V51.1
	c0,0,0,0-7.4-1.3c-27-2-18.2,10.8-19.5,16.9c-1.3,6.1,0,10.1,0,10.1s-10.1,0-20.9,11.5c-10.8,11.5-8.1-2.7-6.1-9.4
	c2-6.7-8.1-0.7-8.1-0.7s-0.7,2,0,8.1c0.7,6.1-43.9-0.7-55.3-2.7c-11.5-2-27,5.4-31,10.8c-4,5.4,0-7.4,0-7.4s0,0-6.7-1.3
	c-11.5,9.4-32.4,3.4-39.8-2c-7.4-5.4,10.1-6.1,10.1-6.1s0,0,0-3.4c0-3.4-29-2.7-42.5-6.7c-8.8,3.4-18.9,1.3-30.3-0.7
	c-11.5-2-46,3.2-49.7,5.4c-3.7,2.2-12.5,2.9-21.4,4.4c-25.1-12.5-61.2-17-67.8-17c-6.7,0-25.8-1.5-42-4.4
	c-39.8-3.7-94.4,15.5-102.6,16.9c-34.2,3.8-29,7.9-29,7.9s-0.4,15.4,7.2,16.6c7.5,1.2,0,4.6-1.4,6.7c-1.3,2.1-8.9,2.4-16.1-3.8
	c-7.2-6.1-4.8-1-21.5,2.1c-16.7,3.1-25.9,16.7-25.9,16.7s28,2.4,36.2,0.4c8.2-5.5,10.2-3.4,10.2-3.4s-11,11.5-14.7,16.8
	c-3.7,5.2-27.8,0-35.2,0c-7.3,0-11,7.3-17.8,10.5c-16.8,6.8-19.9,14.7-22.6,21.5c-2.7,6.8,12.6-1,19.9-2.6
	c7.4-1.6-7.3,6.3-15.7,12.6c-8.4,6.3,6.8,4.2,11,7.3c4.2,3.1,4.7,0.5,12.6-2.6c7.9-3.2,12.6-2.6,18.9,0c6.3,2.6-38.8,18.9-50.4,24.1
	c-11.5,5.2-37.3,5.7-44.6,6.8c-1.5,0.2-3.3,0.7-5,1.5c-7,2.7-14.7,8.4-11.7,10.1c0.6,0.4,1.6,0.4,2.8,0.3c0,0,0,0,0,0
	c5.6-0.6,16.3-5.7,22.3-6.6c7.3-1.1,27.8-0.5,27.8-0.5s68.5-26.2,76.2-27.5c7.7-1.4,10.4-13.2,10.4-13.2s4.1,0,9.1-2.7
	c5-2.7,36.3-17.2,40.8-15.4c4.5,1.8-24.5,14.5-26.8,19.5c-2.3,5,21.3-6.3,34-13.2c12.7-6.8,19.9-7.3,29.9-5.4
	c10,1.8,6.8,8.2,11.8,7.7c28.6,4.6,25.4,10.9,30.4,16.8c5,5.9,13.8,0.9,13.8,0.9s5-10.9,11.9-6.9c6.9,4-12.9,68.4-1,86.2
	s4,25.8,2,37.7c-4,5-12.9-5.9-16.9-7.9c0,21.8-44.6,79.3-54.5,92.2c-9.9,12.9,6,65.4,6,65.4l16.7,9.6c0,0-0.8,35,11.9,50.9
	c12.7,15.9-4.8,20.7-4.8,20.7l18.3,12.7c0,0-5.6,18.3,3.2,21.5c8.5,3.1,12.5,15.2,17.1,14.4c0.1,0,0.3,0,0.4,0
	c0.2-0.3,0.3-0.6,0.5-1c3.4-8.4-6.9-26.2-6.9-28.5c0-2.4,0.8-8.8-8.7-22.3c-11.1-15.1-8.8-43.7-8.8-43.7s6.3,0,14.3,4
	c-8,33.4,7.9,35,18.3,53.2c4.6,4.8,8.4,9.6,11.6,14.2c16.2,23.8,16.1,45.4,15.5,61.3c44.5,51.7,85.4,52.8,94,47.2
	C532.8,656.7,535.5,659.6,538.8,662.3z"/>
<path class="st0" d="M734.2,618.9c-5.2,1.3-14.3,1.8-30.1,0.5c-0.6-5.5-0.6-5.5-0.6-5.5l3.1-3.1c0,0-26.3-23.2-40.2-20.7
	c0,0-12.2-1.2-17.7,5.5c-6.1,7.9-6.7-2.8-6.7-2.8s-0.2-1.5,0.3-3.5c0.6-2.8,2.5-6.7,7.9-9.2c4.4-2,11-3.2,21.1-2.2
	c10.3,3.1,25.6,12.8,25.6,12.8l43.3,21.3C740.1,612.1,743.7,616.7,734.2,618.9z"/>
<path class="st0" d="M795,637.7c-0.6-0.1-1.3-0.2-2.1-0.2c-7.1-0.8-22.5-2.4-24.7,0.3c-2.4,3-3.1,0.7-10.3,0
	c-5.4-0.5-14.1-1.5-18.3-2c-1.5-0.2-2.4-0.3-2.4-0.3s-4.2-3.8,3.7-3.8c0.8,0,1.6,0,2.4-0.1c6.5-0.6,10.3-3.9,9.8-6.6
	c-0.6-3.1,14.1-10.9,14.4-9.8c0,0,0,0.1,0,0.1c0-0.4,0.8-2.2,7.6-0.2c9.1,2.6,23.1,3.8,23.2,16.5v0.2
	C798,631.6,800.4,638.3,795,637.7z"/>
<path class="st0" d="M1003.5,261.8L962.2,295c13.5-2.5,27.9-5.4,28.6,0l-1.8,12.5c8-7.5,12-7.2,15-3.3v8.2c6,5,7.9,6.3,9.8,0
	l4.3-13.9l4.1-11.4l-8.9-9.1L1003.5,261.8z"/>
<path class="st0" d="M935,126.5c0,0-6.4-4-20.8-1.1c-7.8-3.2-11-1.8-11-1.8l8.9-11.2c0,0,25.5,5.2,26-0.1c0.6-5.3,21.6-9.2,21.6-17
	s-11.6-6.1-11.6-6.1s-33.8,17.1-21.6,5.5c12.2-11.6,24.9-23.8,18.3-24.9c-6.6-1.1-10,12.7-17.2,11.1c-7.2-1.7,17.2-7.8,3.9-7.8
	c-13.3,0-53.7-6.1-63.7-7.8c-10-1.7,28.8-34.9,52.6-29.9c-7.8,3.3-22.1,21.7-13.8,14.2C915,42,931,30.4,955.9,38.1
	c11.1-1.7,28.8-2.2,21,4.4c3.3,5,8.3,7.8,7.8,12.7c10.5-1.1,17.2,6.1,17.2,6.1l14.4,1.7l5.8,12.7l-15.3,3.8c0,0-5.5,7.8,0.6,7.2
	s10,1.7,10,1.7l4.7-3.9l6.9,8.9l12.2,7.2c0,0-4.4,0.6-10.5,8.3c-8.3,1.7-8.3,1.7-8.3,1.7l-9.2,13.7c0,0-10.8-25.7-15.7-21.1
	s-8.9,10.7-1.1,16.8c3.3,10.5-7.2,23.3-7.2,23.3s-11.1-16.1-19.9-14.7c8.3,6.9,11.1,18.5,11.1,18.5s7.2-3.3,7.2,2.2
	s-5.5,7.7-5.5,7.7s-18.3-9.6-25.5-5.6c0-14-12.5,0-12.5,0L935,126.5z"/>
<path class="st0" d="M657.1,27.1c0,0,1.4,10.5-4,10.5s-23.2,10.3-37,12.7c8.9,3.3,11.2,2.8,11.2,6.8s24.9-7.5,30.1-6.9
	c5.2,0.6,24.4,5,11.5,5.5c-13,0.4-6.6,6.2-6.6,6.2l-5.2,5.8v8.5l5.8,1.6c0,0,5-3,5,1.9s21.3,3.1,21.3,3.1s1.6-4.7,13.3-2.2
	c11.7,2.5,30.3,2.6,30.3,2.6s4.4-3.9,8.9-2.6s12.9,2.6,12.9,2.6s8.9-12.4,17-14.2c0.4-4.9-13.8-8.9-13.8-8.9s22.1-22.8,26.4-23.2
	c3-0.4,2.1-4.5,2.1-4.5l-41.1,14.7L717,41.8l-15.8-14.7c0,0-5.6,5.8-10.1,3.1S657.1,27.1,657.1,27.1z"/>
<path class="st0" d="M804.6,18.3l-12.8,2.2l-2.7,2.3l-56.9,7.2l-2-3.6h-7.4l-6.1-7.2l-9.8-1.8H695v-5c0,0,20.3,3,20.3,0
	c0-4,11.7-5.1,11.7-5.1l21-3.8v5.6l17.7,3.2l16.4,3l10.1-7.7l2,1l-0.7,4.7l15.1,1.3L804.6,18.3z"/>
<path class="st0" d="M809.8,60.5h-9.9c0,0,4.7-8.8,0-10.2s-10.3-3.2-10.3-3.2s8.1-9.7,10.1-8.1c2,1.5,0.9,7.6,5.6,4.1
	s12.7-6.2,12.7-6.2l8.9-3.6l15.4,1.5l-9,16.2L809.8,60.5z"/>
<path class="st0" d="M860.6,13.2c0,0-5.7,12.8-11.5,12.8s-16.8-6.6-20.7-6.4c-4,0.2-17.3-6.2-10.4-7.5s16.4-1.5,16.4-1.5
	S859.5,0.4,860.6,13.2z"/>
<path class="st0" d="M1280.2,0.4H939.9l-1.5,4.5c0,0-9.9,1.5-14,1.9c-4.1,0.4-3.5,5.4-3.5,5.4l45.9-0.6V14l7.2,0.2l6,4.9
	c0,0,4.7-4.3,8.5-8.4c3.8-4.1,10.6-0.1,10.6-0.1l1.4-7.5c13.9,2.7,22.9,5.2,22.9,5.2v23.3l36.6-10.9l-9.6,20.6c0,0,9.5,0,22.5,5.5
	c13,5.5-18.9,28.9-27.2,31.6c-8.3,2.7,49.7,56.4,49.7,56.4l28.4,4.5l5.9,11.8h23.7c0,0,10.7-19.3,10.7-26.1s27.2-30.9,27.2-30.9
	l63.9-11.3l17.8-23.5l7.2,5.5V0.4z"/>
<path class="st0" d="M880.7,129.9c0,0-16.7,2.5-17.3,0.6s-7.1-7.2-9.3-2.2s-11.9,3.5-11.9,3.5l-5.5,5.3l-1.9-4.5h-7.7l3.4-6h4.1
	c0,0,9.3-5.1,12.4-9.4s8.4-3.8,11.2-3.5c2.8,0.3,9.8,7.4,9.8,7.4l3,0.2v2.4L880.7,129.9z"/>
<path class="st0" d="M861.2,140.8c0,0,0,5.8-3.2,5s-6.1-1.8-9,0.1c-2.9,1.9-9.4,4.1-8.4,0.7c1-3.4,5.6-5.8,5.6-5.8
	S853.2,133.7,861.2,140.8z"/>
<path class="st0" d="M866.3,43.9c0,0,10.9-7.8,17.2-8.3c-5.5-1-13.3-1.1-13.3-1.1H858v2c0,0-3.7,10.1-15.2,4.4
	c-4.2,11.5-4.5,11.5-4.5,11.5L834.2,73l8.1-3.7c0,0,0.7-17,4.1-17.9c3.4-0.9,21.7-3.4,23-6.9L866.3,43.9z"/>
<path class="st0" d="M892,19.1v-5c0,0-18.7,0.3-19.3-6.1c-0.6-6.4,22.6-1.3,22.6-1.3l1.7,2.4l16.8,2.8c0,0-1.6,6.4,1.4,6.1
	c3-0.3,10.3-0.4,10.3-0.4s3,6.7,7.4,1.4c7.8-1.7,11.7-1.4,11.7-1.4s33,2.5,28.4,6.6c-4.6,4.1-11.6,9.2-11.6,9.2H949
	c0,0-0.7-6-4.1-3.9s-10.6,1.5-10.6,1.5l-28-2.7l-1.1-2l-19.6,1C885.5,27.4,884,18.8,892,19.1z"/>
<ellipse transform="matrix(0.3348 0.9423 -0.9423 0.3348 718.9121 -722.4926)" class="st0" cx="871.2" cy="147.9" rx="3.4" ry="5.7"/>
<path class="st0" d="M813,625.6v7.5l7.3,4l7-1.3l4.1-6.2C826.8,624.6,819,624.4,813,625.6z"/>
<path class="st0" d="M192.8,675.1l-4.5,3.2c0,0-3.3,0.6-4.1,1.6c-0.9,1-1.8,3-1.8,3s-1.2-1.5-1.6-1.6c-0.4-0.1-1.3-1.8-1.3-1.8
	s1.3-1.7-0.6-4.4c-2-2.7-0.6-3.3-0.6-3.3s1.8-0.9,1.7-2s-0.2-3.7-0.2-3.7l0.2-1l2.1,0.6l1.1,1.3c0,0,6.1,2.7,6.3,3.4
	c0.2,0.7,0.2,1.6,0.2,1.6S193.2,674.2,192.8,675.1z"/>
<path class="st0" d="M178.1,660.9l-3.9,0.9l-0.9-0.1l-0.3-0.5l-0.2-1.9l-1.8-0.6l-0.9-1.5l0.7-0.6l0.7-0.2c0,0,1.9,2.7,2.1,2.6
	c0.2,0,1.1,0.6,1.1,0.6h1l0.5-0.4l1.9,0.3l0,0.3L178.1,660.9z"/>
<polygon class="st0" points="171.6,661.5 171.7,662.5 170.4,662.4 170.7,661.8 "/>
<polygon class="st0" points="168.6,659.2 167.3,659.8 166.8,658.5 165.9,657.8 166.3,657.1 168.2,657.8 169,658.3 "/>
<polygon class="st0" points="166.9,653.5 166.5,654.1 163.7,653.6 163,655 166.6,655.2 167.9,655.6 168.6,655.7 170,654.7 
	170,654.1 168.3,654.3 "/>
<polygon class="st0" points="159.1,652.3 157,653.4 155.4,652.3 153,652.8 153,651.7 153,650.4 153,649.6 151.7,651.5 153.5,651.5 
	154.9,648.5 155.7,648.5 156.8,651.1 "/>
<polygon class="st0" points="139.5,642.1 139.2,644.1 138,645.2 135.9,644.3 135.1,643.5 134.5,643.5 134,642.9 134.8,641.3 
	135.9,640.6 137.9,641.4 140,641.3 140,640.6 140.2,641.4 "/>
<polygon class="st0" points="131.2,643.9 130.6,644.9 129.8,645.2 129,646.6 129,645.8 129,644.8 "/>
</svg>
