<?xml version="1.0" encoding="utf-8"?>
<!-- Generator: Adobe Illustrator 19.0.1, SVG Export Plug-In . SVG Version: 6.00 Build 0)  -->
<svg version="1.1" id="Layer_1" xmlns="http://www.w3.org/2000/svg" xmlns:xlink="http://www.w3.org/1999/xlink" x="0px" y="0px"
	 viewBox="0 0 1280 724.5" style="enable-background:new 0 0 1280 724.5;" xml:space="preserve">
<style type="text/css">
	.st0{fill:#FCDD5E;}
	.st1{fill:#FCDD5E;stroke:#FCDD5E;stroke-miterlimit:10;}
	.st2{fill:#C7EEFF;}
	.st3{fill:#F98C8C;}
</style>
<path class="st0" d="M282.4,76.2l3.6-4.1c1.9,0.8,3.5,1.1,3,1.9c-0.8,1.3-2.3,2.6-2.3,2.6S284.8,76,282.4,76.2z"/>
<path class="st0" d="M290,71.8c-1-0.3-2-0.6-3-1l16-18.6l10.6,9.1c-2.5,1.4-3.4,3.7-4.7,3.8c-1.8,0.3-4,1.1-5.5-0.3
	c-1.6-1.3-11.1-4.2-8.4-2.1c2.6,2.1,7.4,2.1,5.5,3.4C298.7,67.6,295.8,73.4,290,71.8z"/>
<path class="st0" d="M376.7,115.7c-0.6,3.9-1.9,5-1.9,5s-15.5,8.5-19.1,8.8c-3.6,0.2-17.6-3.4-20.9-1.6c-3.4,1.8-3.4,1.8-3.4,1.8
	s-14.7,7.5-15.2,9.1c3.6-1,22.5-10.6,23-6c0.3,4.9-3.6,5.4-3.6,5.4s-2.9,8.5,5.2,9.3c4.7,0,4.1,1.8,4.1,1.8s-15.5,9.3-17.8,8
	c-2.3-1.3-2.9-2.9-2.9-2.9s-11.6-1.8-17.6,6c-0.3,3.9-0.5,5.2-5.2,6.5c-4.7,1.3-12.2,2.6-14.2,9.1c-2.3,1.6-12.1,1-12.7,11.1
	c1.8,2.1,3.6,13.4-10.1,14.7c-13.7,1.3-13.9,13.6-13.9,13.6l0.7,16.6c0,0-3,11.7-6.1,5.6c-2.8-6.1-0.5-18.7-6.8-18.5
	c-5.8-0.2-7.7-3.5-7.7-3.5s-13.1-0.5-13.8,1.6c-0.9,2.8-4.2,7.7-8.9,2.3c-2.8-1.4-2.1-1.9-4-0.7c-2.1,0.9-4.3,1.9-5.8,1.6
	c-1.7,0.5,1.3-0.2-1.7,2.1c-3,2.3-3.7,3.3-6.5,3.5c-2.8,0.2-2.8,1.4-2.8,2.6c0,1.2-2.6,9.8-4.2,11.9c-1.6,2.1-8.4,26.4,8.6,29.9
	c5.4-1.2,13.8-0.7,15-11.4c3.5-2.8,15.4-5.8,15.4-2.6c-2.6,3.3-4.4,7.9-4.7,10.3c-1.6,3-3.7,10.5-5.6,11.7
	c2.6,1.2,18.7,1.9,19.4,5.6c0.7,4,1.4,5.7-2.3,11.7c0.2,5.4-0.2,17.3,10.1,15.4c3.2-2,11-3.8,13.8,0l-3.7,4.3
	c-0.5-1.7-1.8-4.1-4.2-2.4c-3.6,2.5-4,2.1-3.7,3.8c0.3,1.8-2.8,3.1-2.8,3.1s-0.8-4.7-8.8-4.8c-3-2.7-1.7-7.2-9-7.5
	c-0.7-3-1.2-5.8-1.2-5.8s-5.2-2.8-5-8.4c-5.3,0-18.1-0.5-23.1-12.9c-1.3-1-2.3-2.2-5.7,0c-3.4,2.2-19.4,1.8-36.8-18.5
	c0.3-7.5,0.3-18-10.6-29.5c-4-7.2-10.3-7.8-7.2-20.8c-3.1-1.6-5.6-1.6-5.6-1.6s-0.9,11.2,3.4,17.1c3.7,5.3,3.4,7.8,3.4,8.7
	c0,0.9,4.4,8.4,2.5,11.5c-1.9,0.6-3.4-4.4-6.9-5.6c-3.4-1.3-1.2-8.4-1.2-8.4l-7.2-5c0,0,6.8-1.9,1.9-8.1s-4.7-19.9-4.7-19.9
	l-6.5-3.7c0,0-6.2-20.5-2.3-25.6c3.9-5,21.3-27.5,21.3-36.1c1.6,0.8,5,5,6.6,3.1c0.8-4.7,3.9-7.8-0.8-14.7c-4.7-7,3.1-32.2,0.4-33.7
	c-2.7-1.6-4.7,2.7-4.7,2.7s-3.4,2-5.4-0.4c-2-2.3-0.7-4.8-11.9-6.6c-1.9,0.2-0.7-2.3-4.6-3c-3.9-0.7-6.7-0.5-11.7,2.1
	c-5,2.7-14.2,7.1-13.3,5.1c0.9-2,12.2-6.9,10.5-7.6c-1.8-0.7-14,5-16,6c-2,1.1-3.6,1.1-3.6,1.1s-1.1,4.6-4.1,5.1
	c-3,0.5-29.8,10.8-29.8,10.8s-8-0.2-10.9,0.2c-2.4,0.3-6.5,2.3-8.7,2.6l3.5-4c0.7-0.3,1.4-0.5,2-0.6c2.9-0.4,12.9-0.6,17.4-2.7
	c4.5-2.1,22.2-8.4,19.7-9.4c-2.5-1-4.3-1.2-7.4,0c-3.1,1.2-3.3,2.2-4.9,1c-1.6-1.2-7.6-0.4-4.3-2.9c3.3-2.5,9-5.6,6.2-4.9
	c-2.9,0.6-8.8,3.7-7.8,1c1-2.7,2.2-5.7,8.8-8.4c2.7-1.2,4.1-4.1,7-4.1c2.9,0,12.3,2,13.8,0c1.4-2,5.7-6.6,5.7-6.6s-0.8-0.8-4,1.3
	c-3.2,0.8-14.2-0.1-14.2-0.1s3.6-5.4,10.1-6.5c6.6-1.2,5.6-3.2,8.4-0.8c2.8,2.4,5.8,2.3,6.3,1.5c0.5-0.8,3.5-2.1,0.5-2.6
	C85.1,59,85.2,53,85.2,53s-2-1.6,11.4-3.1c3.2-0.5,24.5-8,40.1-6.6c6.3,1.1,13.8,1.7,16.4,1.7c2.6,0,16.7,1.7,26.5,6.6
	c3.5-0.6,6.9-0.9,8.4-1.7c1.4-0.9,15-2.9,19.4-2.1c4.5,0.8,8.4,1.6,11.9,0.3c5.3,1.6,16.6,1.3,16.6,2.6c0,1.3,0,1.3,0,1.3
	s-6.9,0.3-4,2.4c2.9,2.1,11.1,4.5,15.6,0.8c2.6,0.5,2.6,0.5,2.6,0.5s-1.6,5,0,2.9c1.6-2.1,7.6-5,12.1-4.2c4.5,0.8,21.9,3.4,21.6,1.1
	c-0.3-2.4,0-3.2,0-3.2s4-2.4,3.2,0.3c-0.8,2.6-1.8,8.2,2.4,3.7c4.2-4.5,8.2-4.5,8.2-4.5s-0.5-1.6,0-4c0.5-2.4-2.9-7.4,7.6-6.6
	c2.9,0.5,2.9,0.5,2.9,0.5v4.7c0,0-4.7,12.4,5.3,3.4c2.9,0.3-0.5,9,3.4,4.7c2.7-2.9,6.3-4.7,9.4-5.6l5.9,5c-2.4,2.6-4.2,1.6-4.2,3.2
	c0,1.6-2.9,2.9-9.5,2.9s-7.6,4.7-9.5,5s-4,1.1-5.5-0.3c-1.6-1.3-11.1-4.2-8.4-2.1c2.6,2.1,7.4,2.1,5.5,3.4
	c-1.8,1.3-4.7,7.1-10.5,5.5c-5.8-1.6-10.8-5-7.9-2.1c2.9,2.9,7.6,2.9,6.9,4.2s-2.3,2.6-2.3,2.6s-4.9-1.4-9.3,1.2
	c-4.4,2.6-25.5,21.8-5.5,20.9c2.1,1.1,6.2,2.3,7.9,4.9c3.7,2.1,13.6,0.2,12.8,2.6c-0.7,2.5-9.2,22.7,0,17.1c3-3,9-9,6.5-17.6
	c6-0.2,20.4,1.2,17.1-12c-1.1-2.3-1.6-3.3,3-4.9c1.2-2.1,2.1-3,2.1-5.1c0-2.1,1.9-2.1,2.1-3.2c0.2-1.2,1.8-4.4,4.6-4
	c2.8,0.5,9.3,1.9,10,0.2c1.9-0.5,10.1,2.1,8.9,4.6c-1.2,2.5-6.4,16.7,1.2,13c3.5-1.2,16.1-9.7,15.9-7.8c-0.2,1.9-0.6,6.6,0,10.3
	c0.6,3.7,0.2,5.2-1.2,6.2c-1.3,1,1.8,6.8,10.7,4.9c-0.4,1.6-0.8,3.5-2.5,4.5C372.4,113.6,377.2,111.8,376.7,115.7z"/>
<path class="st0" d="M1150.3,472c0.5,3.9,2.1,11.1-4.9,15.8c-0.4,1-0.9,2.3-1.7,3.6c-0.7,1.2-1.5,2.4-2.5,3.7
	c-0.9,1.3-2.1,2.6-3.3,3.9c-1.1,1.1-2.3,2.2-3.6,3.3c-1.5,1.2-3.2,2.4-5,3.4c-0.9,1.2-2.5,4.4-4.6,7.7c-1.7,2.6-3.8,5.3-6.2,7.2
	c-2.5,2-5.4,3-8.6,2c-3.7,1.4-9.3,6.2-10.5,4.1c-1.2-2.1-1.6-4.1-2.7-2.3c-1.2,1.7-4.3,4.8-9.1,1c-3.5-0.8-6.8-1.6-6.2-5.8
	c0.6-4.3,2.8-5.4-0.1-5.8c-2.8-0.4-1.1-1.6-1.1-2.9c0-1.4,0-1-2.7-0.4c-2.7,0.6,1.8-2.7,2.1-4.5c0.4-1.7,1.2-4.1-3-0.8
	c-4.2,3.3-6.1,7-6.1-1.2c-1.3-3.3-3.1-8.1-9.7-7.9c-6.6,0.2-16.1,0-32.8,7.9c-7.2-0.5-12.8-0.3-17,2.1c-5,2.9-10.5,3.9-16,1.5
	c-2.3-1.7-0.5-4.9,1.8-6.1c0-0.4,1.6-4.5,1.6-5c-0.2-4.7-2.8-14,0.6-22.6c1.7-4.3-1-9.1-0.2-12.8c0-0.2,0.1-0.5,0.2-0.7
	c0.2-0.6,0.3-1.2,0.5-1.7v0c0.1-0.2,0.2-0.5,0.3-0.7c1.1-2.5,2.7-4.6,4.6-6.2c1-0.9,2.1-1.7,3.2-2.4c0.1,0,0.1-0.1,0.2-0.1
	c0.3-0.1,0.7-0.3,1.2-0.4c6.4-2,23.6-5.8,26.6-12.7c0.2-2.3,1-4.5,1.7-6.3c0.7-1.8,3-2.3,4.5-1c0.7,0.6,1.3,0.6,1.7-0.7
	c1.1-3.4,4.2-4.6,4.2-4.6s0.6,4.2,1.1,1.7c0.4-2.5,2.7-4.2,2.7-4.2l2.5-4c0,0,6.9-4.9,8.4-1.1c1.7,3.4,4.4,5.9,5.9,3.8
	c-0.2-2.5,2.9-5.1,4.2-7.4c1.3-2.3-0.2-4,4-4.2c4.2-0.2,5.5-0.4,5.5-0.4l2.7-4.6c0,0,15.8,1.3,15,3.8c-0.8,2.5-9.9,12.3-1.9,16.7
	c8,4.4,14.3,11.7,16.6,1.6c1.5-4.9,4.5-18.1,6.9-23.4c0.3-0.8,0.7-1.4,1-1.8c0,0,0-0.1,0.1-0.1c0.6-0.7,1.1-0.5,1.5,1.3
	c0.2,0.8,0.3,1.8,0.4,3.1c0,0,0,0,0,0c0,0.5,0.4,11.1,2.5,12c2.2,0.9,6.9-0.9,5.3,12.5c1,0.6-1.6,9.9,3.5,10.1
	c1.8,0.2,2.3,3.1,2.3,3.1s4.1,1.2,4.5,6.4c0.8,3.9,1.2,4.1,2.7,3.9c1.6,0.2,1.6,5.4,2.1,6.4C1148.7,459.4,1153.9,465.1,1150.3,472z"
	/>
<path class="st0" d="M1103.1,537.2c-1.2,1.6-2.6,4.5-3.9,6.7c-1,1.7-1.9,3-2.7,3.1c0,0,0,0,0,0c-1.7,0.1-3.4,0-3.4,0s-4.8,4-5.7,0
	c-0.8-4,1.3-4.5,1.3-4.5l1.4-6.7l0-0.3c0,0,0.1,0,0.3-0.1c0.8-0.3,3-0.8,4.2,2C1096.8,537.7,1104.4,534.4,1103.1,537.2z"/>
<path class="st0" d="M1194.7,542C1194.7,542,1194.7,542,1194.7,542c-0.4,0.7-1,1.3-1.7,1.9c-2.9,2.7-7.3,4.9-7.6,5.5
	c-0.5,1-1.7,0-5.5,0c-3.7,4.7-15.9,12.1-17.3,13.7c-1.4,1.6-4.7-0.5-6.5-1.9c-0.8-0.1-1.5-0.3-1.9-0.5c-1-0.5-1.2-1.3-1.2-1.3
	s2.7-1.9,5.4-3.6c2.2-1.4,4.4-2.7,5.3-2.9c3.7-5.6,15.3-6.7,17.6-7c2.3-0.4,5.8-6.3,9.1-9.3c3.3-3.2,2.8-0.5,2.3,1.1s2.5,0,2.5,0
	C1195.9,539.1,1195.6,540.6,1194.7,542z"/>
<path class="st0" d="M1223,523.5L1223,523.5C1223,523.5,1223,523.5,1223,523.5c-0.1,0.1-0.6,0.8-1.4,1.6c0,0,0,0,0,0
	c-1.7,1.8-4.9,4.4-8.7,4.9c-2.5,2.3-8.5,8.9-8.5,8.9h-2.6c-1.4,0-2.3-1.6-1.5-2.8c0.4-0.5,0.5-1.1,0.5-1.8c0-2.6-1.8-5.9-0.5-6
	c0,0,0,0,0,0c0.7,0,11.2-0.3,9.9-18.8c0-0.1,0-0.2,0-0.2c0.1,0,0.2,0,0.2,0c1.9-0.3,4.3,0,3.8,3.2c-0.5,3.4-1.1,3.4-1.1,4.5
	c0,1.1,1.6,2.3,2.1,1.4c0.5-0.9,1.2-0.2,1.2-0.2s-2.1,7.2,0.4,5.9C1219.5,522.8,1222.3,520.2,1223,523.5z"/>
<path class="st0" d="M1153.8,397.9c0.1,0.6-0.5,1.1-1.1,0.9c-0.1,0-0.2-0.1-0.3-0.2c-0.8-0.7-2-1.3-3.7-1c-4.1,0.7-5.2-0.3-7.4-4.7
	c-2.2-4.4-8.7-10.2-11.5-6.9c-1.2,2.1-3.1,14-12.3,5.4c-3.2-2.8-4.8-4.1-6.2-3.5c-1.4,0.7-2.1,2.3-2.1,2.3l-2.6-0.1
	c-1.7-0.1-2.8-1.9-2-3.4c0.7-1.2,2.2-2.4,5.4-2.3c-2.6-5.3-2.7-13.3-13.3-12.8c-4.1-1.3-4.7-4.4-6.7-2.6c-0.8,0.7-1.7,0.2-2.6-0.5
	c-1-0.9-1.1-2.1-0.6-3.2c0.2-0.4,0.5-0.9,1-1.1c0.2-0.2,0.5-0.3,0.8-0.4l2.4-0.6c1-0.7,1.8,1.2,2.9,1.7c1.4,0.7,3.5,1.1,5.5-1
	c3.5-3.5,7.6-11,27.1,2.3c8.5,4.1,11,4.5,12.2,10.9c3.3,0.4,16.3,2.1,4.5,5.6c1,2.5,4.5,6.4,4.5,6.4v3.5c3.9,0.5,5.6,2.3,6.1,4.9
	C1153.8,397.7,1153.8,397.8,1153.8,397.9z"/>
<path class="st0" d="M1013.4,388.4l-0.2,1l-0.4,1.6c0,0-0.4,0-1,0c-3.4,0-13.7,0.1-15.4-0.9c-1.9-1.1-3.4-4.2-5.6-3.7
	c-2.2,0.5-7.7-0.7-8.6-1.6c-1-1-3.8-1.6-3.8-1.6s-0.6-0.9-0.1-2c0.2-0.4,0.4-0.7,0.9-1.1c0.8-0.6,2.1-1.1,4.2-1.5
	c4.2,0.5,7.2,3.4,9,3.5c2.1,0.5,7.2-2.4,9.3-1.1c2.1,1.3,5,5.4,8,4.8C1012,386,1014.2,386.2,1013.4,388.4z"/>
<path class="st0" d="M1032.5,328.4c-0.4,1.2-2.8,1.5-2.8,1.5s0.5,1.5,2.2,1.8c0,0.7-0.1,1.2-0.1,1.2s-3.9-0.6-4.5,0.9
	c-0.5,1.5-2.7,3.5,1.1,6.4c0.9,0.8,0.4,2.4,0.4,2.4s-2.2,2.1,2.9,3.4c0.5,1.1,0.3,3.8-3.7,2.4c-0.8,1.3-1.6,4.2-1.4,6
	c-0.1,1.4-1.4,2.6-2.6,2.8c-1.2,0.2-3.5,1.5-2.7,3.1c1.4,0.5,1.8,1.4,1.6,2.5c-0.2,1-1.2,0.8-1.7,1.6c-0.1,0.2-0.4,1-0.7,2
	c-0.8,2.4-2.1,5.9-3.8,4.2c-0.1-0.1-0.2-0.2-0.2-0.2c0,0-2.7-4.5-4-3.4c-0.7,1.1-2.3,0.6-2.3,0.6s-0.4-2.2-2.9-0.8
	c-2.6,1.4-3.7-0.5-3.7-0.5s-5.9,1-6-4.1c-0.1-5.2-3.1-7.5-4.4-7.4c0.1-1.6-0.7-5.9-0.5-8.9c0.2-2.1,0.9-3.6,2.7-3
	c0.7,0.2,1.6,0.7,2.6,1.6c2.1,0.9,3.2-0.2,3.2-1.7c0-1.5,1-4.1,5.5-4.1c1.2-1.3,4.9-3.6,5.9-7.3c1-1.6,3.2-2.2,4-2.2
	c0.9,0,4.1-10.2,7.9-8c2.1,2.6,3,5.5,4.6,5.6C1030.6,327.2,1032.8,327.1,1032.5,328.4z"/>
<path class="st0" d="M981.2,374.3c0,1.8-0.2,3.2-1,3.2h-7.6c0,0-12.6-11.7-15.9-24.5c-3.5-2.1-5.4-1.5-5.2-6.8
	c-2.6-3.9-12.9-11.7-13.9-17.5c-0.1-0.7-0.1-1.4,0.1-2c0.5,0.1,0.9,0.2,1.3,0.3c3.8,0.9,6,1.3,7.8,2.2c1.9,1,13.2,14.8,13.2,14.8
	s5-0.7,7.4,5.3c6.2,1.6,3.3,0.7,2.7,3.7c0.8,2.4,1,3.9,4.3,4.4c0.4,3.2,0.6,5,4.7,5.5c1.2,3.3,1.6,0,1.2,3.3
	C980.2,366.2,981.2,370.9,981.2,374.3z"/>
<path class="st0" d="M580.5,331.7c0.3,0.6,0.5,0.9,0.5,1C580.9,332.6,580.2,332.1,580.5,331.7z"/>
<path class="st0" d="M748.1,334.3c-4.1,6.2-6.2,9.7-6.2,9.7s-4.7-3.1-7.8,2.1c-3.1,5.2-9.3,18.1-15.5,21.2
	c-1.6,3.6-6.7,11.4-3.1,17.6c3.6,6.2-2.6,11.2,3.6,14.4c1,3.7,3.1,15.1,0.5,19.7c-2.6,4.7-5.7,12.9-15,13.4
	c-5.2,5.7-8.8,10.9-8.3,16.5c1,5.7,4,16.1-8.9,18.7c0.7,6.5,0,11.3,0,11.3s-8.2,7.2-9.7,10.9c-0.3,0.6-0.9,1.8-1.8,3.1
	c-1.6,2.5-4.3,5.8-7.5,8.7c-5.4,4.8-12.6,8.4-20.1,4.7c-6.2-1-8.8,1-9.8,1.6c-1,0.5-12.9-1.6-9.3-12.9c-3.1-6.7-9.8-10.3-11.4-22.2
	c-1.6-11.9-10.9-34.1-14.5-41.4c0-7.2,5.2-22,11.9-27.5c-3.1-4.5-7.2-7.7-5.2-12.8c-4.7-8.7-16.5-31.1-15.5-39.1
	c1-7.9,8.3-18.8-4.7-20.3c-6.7-0.8-8.8-0.5-9.3,0c-1.8-3.2-8.8-11.9-26.9-1.5c-8.8-0.5-19.6-3.1-23.8,4.1
	c-5.7-3.6-20.7-13.2-20.7-13.2s-0.5-6.4-3.6-11.1c-3.1-4.7-11.9-10.2-11.9-10.2s2.1-6.9,0-10c-2.1-3.1,6.7-11.4,4.7-19.7
	c-2.1-8.3-5-12.9-5-12.9s4.5-8.3,8.6-14c2.6-3.6,4.1-12.9,12.9-18.1c5.2-4.7,9.3-7.2,9.3-7.2v-9.8c0,0,2.8-4.1,5.9-6.8
	c0.9-0.8,1.7-1.4,2.6-1.8c2.3-3.5,5.8-9.7,13.6-5.4c6.6,0.4,11.6,0.2,12.8-1.4c1.2-1.7,15.1-9.8,25.2-4.4c5-0.4,7.8-1.8,7.8-1.8
	s3.1-3,5.4,0c2.3,3,4.7,8,4.7,8s-1.2,3.1-1.9,4.3s2.3,3.9,9.3,5s12.5,3.9,11.8,7c-0.6,3.1,8.7,6.2,11.4,5c2.7-1.2,3.9-4.7,3.9-7.8
	s10.5-4.3,13.2-2.3c2.1,1.5,8,7.7,20.9,7.8c3.7,0,7.9-0.4,12.8-1.6c1.9,4.1,6.5,14.2,10.6,21.8c1.8,3.4,3.6,6.4,4.9,8.1
	c0,5.4-0.4,7.4-0.4,7.4s12,4.3,8.9,19.4c6.6,4.7,9.3,12.8,9.3,14.7s14,12.8,14,12.8l-1.9,3.1c0,0,1.4,12.8,26.9,3.1
	c0,0,2.6-3.6,5.2-2.1S752.2,332.2,748.1,334.3z"/>
<path class="st0" d="M757.6,421.6v1.3c0,0-1.8-4.4-2.3,1.6c-0.5,4.9-1.8,6.5-1.8,6.5s0.2,9-2.6,10.3c-0.9,3.7-3.8,17.1-8.3,23.2
	c0,0-0.1,0.1-0.1,0.2c-0.3,0.4-0.7,0.8-1,1.2c0,0,0,0,0,0c-1.8,1.8-3.8,2.3-6,0.7c-5.7-4.1-5.7-4.1-5.7-4.1v-4.1c0,0-4.1-2.6-1.8-7
	c2.3-4.4,8.5-7.5,7-10.6c-0.7-1.4-1.7-5-2.3-8.4c-0.7-4-0.7-7.9,1.3-7.6c1.6,0.2,3.3,0.5,4.7,0.6c1.8,0.1,3.3-0.1,3.8-1.1
	c1-1.8,5.9-4.4,5.9-4.4s1.3-4.9,3.1-9c0.1-0.2,0.1-0.3,0.2-0.5c1.5-4.5,2.5-9.1,3.5-4.1c0,0,0,0.1,0,0.1
	C756.1,411.3,759.2,413.7,757.6,421.6z"/>
<path class="st0" d="M572.1,117.7c-1.7,2-3.7,4.4-3.7,4.4l-2.4,2.2l-0.6,0.5c0,0-10-3.5-10.8,0c-0.5,2.2-3.9,4.1-7.5,4.2
	c-1,0-1.5-1.2-0.8-1.8c1.8-1.7,4-4.2,2.5-5.1c-2.4-1.3,9.8-9.4,6.1-11.8c-3.7-2.4-5.4-4.7-6.4-7.1c-0.5-1.3-3-4.2-3-6.9v0
	c0-1.6,0.8-3,3.4-4c1.3-0.5,3-0.8,5.3-1c1.7,2,1,5.1,5.4,3.4c0.3,1.3,0.3,1.3,0.3,1.3s-5.1,6.1-1,7.8c4.4,1.7,4,5.1,4,6.3
	c0,1.2,7.1,0.2,5.4,4.2c1.8,1,4,1.3,4.2,2.2C572.6,116.8,572.5,117.2,572.1,117.7z"/>
<path class="st0" d="M544.2,112.2c0,0,1.7,3.8,1.3,5.8c-0.1,0.7-0.4,1.1-1.1,1.3c-0.1,0-0.1,0-0.2,0c-3.1,0.4-11.4,5.6-12.4,2.7
	c-1-2.9,0-7.4,0-7.4s-2.8-2.9-2.5-4.6c0.1-0.4,0.3-0.8,0.8-1c0.3-0.1,0.7-0.2,1.2-0.2c4.9-0.2,4.9-0.2,4.9-0.2s1.6,0,1.2-1.9
	c-0.4-1.9,2.9-2.3,4-1.6C542.6,106,551.3,104.5,544.2,112.2z"/>
<path class="st0" d="M422.3,386.4c0,6.2-3.5,6.6-11.2,14.7c-2.3,12.4-6.6,9.7-7.4,13.2c6.5,7,2,9.7,0,14.7c-2,5-0.7,5.8-0.7,5.8
	s1.6,3.1,0,5.8c-1.6,0.8-3.5,6.2-4.3,10.1s-12,3.1-12,3.1l-14.6,11.8c6.5,9.3-3.5,21.5-3.5,21.5s-2.1,7-6.1,8.8
	c-4,1.8-2.1,5.2-5.8,10.1c-3.7,5-10.4,1-13.5,0c17.6,23.6-9.8,19.1-9.8,20.1c0,1-0.3,8.3-4.2,8.8c-4,0.5-1.2,5.7-1.2,5.7
	s1,11.9-2.1,13.2c-4.4,2.3,5.4,10.1,5.4,10.1s0,0,0.2,1.3c-4.3,3.6-3.4,12.4-2.8,17.1c0.1,1,0.2,1.8,0.3,2.3
	c0.4,3.1-4.8,1.3-3.5,3.6s0.8,3.6-2.6,2.8c-0.6,0-1.1-0.1-1.7-0.2c-12.1-2.2-16.1-22.4-16.1-22.4l-3.4-3.8c0,0-0.9-7.2,0.4-15.6
	c-5.5-2.5-3.8-4.2-4.6-12.2c-8.8,3.4-6.7-7.2-7.6-12.2c-1.3-2.9-2.5-7.2-0.8-9.7c1.7-2.5-0.4-11.8-0.8-18.9
	c-3.8-8-2.5-18.9-2.1-26.9c1.3-35.8-10.1-42-14.8-45.1c-9.3-3.9-14.5-10.6-14.5-14.2c-7.5-9.3-11.4-19.4-12.4-22.5
	c-1-3.1-8.8-11.1-8.8-11.1V368l3.9-4.8l0.4-1.6c0,0-1,0-3.7-0.6c-3-9.2,5.3-15.2,7.3-16.3c11.5-6.9,5.4-26.5,4.9-28
	c0-0.1,0-0.1,0-0.1s1.4-2.3,2.8-3.1c0.7-0.4,1.5-0.5,2,0.5c1.2,2.3,3.5-5.8,3.5-5.8l1.6-3l2.6-4.8c0,0,0.2,0.5,0.8,0.8
	c0.8,0.4,2.4,0.4,5.4-1.6c10.9-9.3,10.9-3.9,10.9-3.9s-3.1,8.5-1.9,11.6c1.2,3.1,2.3-7.4,7.4-8.9s9.3,4.3,17.4,5
	c14.3-2.3,16.7,4.3,16.7,4.3l-1.9,3.9c0,0,6.2,0,8.1,2.7c1.6,9.7,10.1,9.3,18.2,10.1c17.8,3.5,13.2,10.1,13.6,17.7
	c7,3,5.4,5.5,5.4,5.5s-10.5,8.9-7,7.2c3.5-1.7,5,4.8,7.4,4.8c12.4-10.1,19-1.9,21.7,3.9c3.5-3.9,11.6,0,16.7,0s3.5,3.5,12.4,7
	C419.6,372,422.3,380.2,422.3,386.4z"/>
<path class="st0" d="M352.1,595.1c-0.1,0.3-0.4,0.6-0.7,0.9c-2.7,1.8-11.2,1.7-12.2,0.5c-1.1-1.3-8.6-2-8.6-2v-1.8
	c0,0,4.1-1.4,4.5-3.2c0.5-1.8,0,0-2-2.2c0,0,0,0,0,0c0.2-0.8,0.8-1.3,1.5-1.6c1.9-0.8,4.6,0,4.6,0
	C338.1,588.1,347.2,592.2,352.1,595.1z"/>
<path class="st0" d="M376.7,115.7c-0.6,3.9-1.9,5-1.9,5s-1.9,1.1-4.6,2.4c-4.9,2.5-12.2,6.2-14.6,6.4c-3.6,0.2-17.6-3.4-20.9-1.6
	c-3.4,1.8-3.4,1.8-3.4,1.8s-14.7,7.5-15.2,9.1c3.6-1,22.5-10.6,23-6c0.3,4.9-3.6,5.4-3.6,5.4s-2.9,8.5,5.2,9.3
	c4.7,0,4.1,1.8,4.1,1.8s-15.5,9.3-17.8,8c-2.3-1.3-2.9-2.9-2.9-2.9s-11.6-1.8-17.6,6c-0.3,3.9-0.5,5.2-5.2,6.5
	c-4.7,1.3-12.2,2.6-14.2,9.1c-2.3,1.6-12.1,1-12.7,11.1c1.8,2.1,3.6,13.4-10.1,14.7c-13.7,1.3-13.9,13.6-13.9,13.6l0.7,16.6
	c0,0-3,11.7-6.1,5.6c-2.8-6.1-0.5-18.7-6.8-18.5c-5.8-0.2-7.7-3.5-7.7-3.5s-13.1-0.5-13.8,1.6c-0.9,2.8-4.2,7.7-8.9,2.3
	c-2.8-1.4-2.1-1.9-4-0.7c-2.1,0.9-4.3,1.9-5.8,1.6c-1.7,0.5,1.3-0.2-1.7,2.1c-3,2.3-3.7,3.3-6.5,3.5c-2.8,0.2-2.8,1.4-2.8,2.6
	c0,1.2-2.6,9.8-4.2,11.9c-1.6,2.1-8.4,26.4,8.6,29.9c5.4-1.2,13.8-0.7,15-11.4c3.5-2.8,15.4-5.8,15.4-2.6c-2.6,3.3-4.4,7.9-4.7,10.3
	c-1.6,3-3.7,10.5-5.6,11.7c2.6,1.2,18.7,1.9,19.4,5.6c0,0.1,0,0.2,0,0.3c0.7,3.8,1.3,5.5-2.4,11.4c0.2,5.4-0.2,17.3,10.1,15.4
	c3.2-2,11-3.8,13.8,0c0.5,0.6,0.8,1.4,0.9,2.4l-4.3,3.3c0,0-0.1-0.6-0.4-1.4c-0.5-1.7-1.8-4.1-4.2-2.4c-3.6,2.5-4,2.1-3.7,3.8
	c0.3,1.8-2.8,3.1-2.8,3.1s-0.8-4.7-8.8-4.8c-3-2.7-1.7-7.2-9-7.5c-0.7-3-1.2-5.8-1.2-5.8s-0.9-0.5-2-1.6c-1.4-1.4-3.1-3.7-3-6.9
	c-5.3,0-18.1-0.5-23.1-12.9c-1.3-1-2.3-2.2-5.7,0c-3.4,2.2-19.4,1.8-36.8-18.5c0.3-6.2,0.3-14.7-6-24c-1.3-1.8-2.7-3.7-4.5-5.6
	c-4-7.2-10.3-7.8-7.2-20.8c-3.1-1.6-5.6-1.6-5.6-1.6s-0.9,11.2,3.4,17.1c3.7,5.3,3.4,7.8,3.4,8.7c0,0.9,4,7.8,2.7,11.1
	c-0.1,0.1-0.1,0.3-0.2,0.4c0,0-0.1,0-0.2,0c-1.8,0.3-3.4-4.4-6.7-5.6c-3.4-1.3-1.2-8.4-1.2-8.4l-7.2-5c0,0,6.8-1.9,1.9-8.1
	s-4.7-19.9-4.7-19.9l-6.5-3.7c0,0-6.2-20.5-2.3-25.6c3.9-5,21.3-27.5,21.3-36.1c1.6,0.8,5,5,6.6,3.1c0.8-4.7,3.9-7.8-0.8-14.7
	c-4.7-7,3.1-32.2,0.4-33.7c-2.7-1.6-4.7,2.7-4.7,2.7s-3.4,2-5.4-0.4c-2-2.3-0.7-4.8-11.9-6.6c-1.9,0.2-0.7-2.3-4.6-3
	c-3.9-0.7-6.7-0.5-11.7,2.1c-5,2.7-14.2,7.1-13.3,5.1c0.9-2,12.2-6.9,10.5-7.6c-1.8-0.7-14,5-16,6c-2,1.1-3.6,1.1-3.6,1.1
	s-1.1,4.6-4.1,5.1c-3,0.5-29.8,10.8-29.8,10.8s-8-0.2-10.9,0.2c-2.4,0.3-6.5,2.3-8.7,2.6c0,0,0,0,0,0c-0.5,0.1-0.9,0-1.1-0.1
	c-1.1-0.7,1.9-2.9,4.6-3.9c0.7-0.3,1.4-0.5,2-0.6c2.9-0.4,12.9-0.6,17.4-2.7c4.5-2.1,22.2-8.4,19.7-9.4c-2.5-1-4.3-1.2-7.4,0
	c-3.1,1.2-3.3,2.2-4.9,1c-1.6-1.2-7.6-0.4-4.3-2.9c3.3-2.5,9-5.6,6.2-4.9c-2.9,0.6-8.8,3.7-7.8,1c1-2.7,2.2-5.7,8.8-8.4
	c2.7-1.2,4.1-4.1,7-4.1c2.9,0,12.3,2,13.8,0c1.4-2,5.7-6.6,5.7-6.6s-0.8-0.8-4,1.3c-3.2,0.8-14.2-0.1-14.2-0.1s3.6-5.4,10.1-6.5
	c6.6-1.2,5.6-3.2,8.4-0.8c2.8,2.4,5.8,2.3,6.3,1.5c0.5-0.8,3.5-2.1,0.5-2.6C85.1,59,85.2,53,85.2,53s-2-1.6,11.4-3.1
	c3.2-0.5,24.5-8,40.1-6.6c6.3,1.1,13.8,1.7,16.4,1.7c2.6,0,16.7,1.7,26.5,6.6c3.5-0.6,6.9-0.9,8.4-1.7c1.4-0.9,15-2.9,19.4-2.1
	c4.5,0.8,8.4,1.6,11.9,0.3c5.3,1.6,16.6,1.3,16.6,2.6c0,1.3,0,1.3,0,1.3s-6.9,0.3-4,2.4c2.9,2.1,11.1,4.5,15.6,0.8
	c2.6,0.5,2.6,0.5,2.6,0.5s-1.6,5,0,2.9c1.6-2.1,7.6-5,12.1-4.2c4.5,0.8,21.9,3.4,21.6,1.1c-0.3-2.4,0-3.2,0-3.2s4-2.4,3.2,0.3
	c-0.8,2.6-1.8,8.2,2.4,3.7c4.2-4.5,8.2-4.5,8.2-4.5s-0.5-1.6,0-4c0.5-2.4-2.9-7.4,7.6-6.6c2.9,0.5,2.9,0.5,2.9,0.5v4.7
	c0,0-4.7,12.4,5.3,3.4c2.9,0.3-0.5,9,3.4,4.7c2.7-2.9,6.3-4.7,9.4-5.6c1.5-0.4,2.9-0.6,4-0.5c3.4,0.3,4.2,2.9,1.8,5.5
	c-2.4,2.6-4.2,1.6-4.2,3.2c0,1.6-2.9,2.9-9.5,2.9c-2.1,0-3.7,0.5-4.8,1.2c-2.5,1.4-3.4,3.7-4.7,3.8c-1.8,0.3-4,1.1-5.5-0.3
	c-1.6-1.3-11.1-4.2-8.4-2.1c2.6,2.1,7.4,2.1,5.5,3.4c-1.8,1.3-4.7,7.1-10.5,5.5c-1-0.3-2-0.6-3-1c0,0,0,0,0,0
	c-4.3-1.6-7.3-3.5-4.9-1.1c1.1,1.1,2.6,1.8,3.9,2.3c1.9,0.8,3.5,1.1,3,1.9c-0.8,1.3-2.3,2.6-2.3,2.6s-1.8-0.5-4.2-0.3
	c-1.6,0.1-3.4,0.5-5.1,1.6c-3.5,2.1-17.9,14.9-13,19.4c1.2,1.1,3.6,1.7,7.5,1.6c2.1,1.1,6.2,2.3,7.9,4.9c3.7,2.1,13.6,0.2,12.8,2.6
	c-0.7,2.5-9.2,22.7,0,17.1c3-3,9-9,6.5-17.6c6-0.2,20.4,1.2,17.1-12c-1.1-2.3-1.6-3.3,3-4.9c1.2-2.1,2.1-3,2.1-5.1
	c0-2.1,1.9-2.1,2.1-3.2c0.2-1.2,1.8-4.4,4.6-4c1,0.2,2.4,0.4,3.9,0.7c2.7,0.4,5.6,0.6,6-0.4c1.9-0.5,10.1,2.1,8.9,4.6
	c-0.5,1-1.6,3.9-2.3,6.8c-1,4.2-1.1,8.4,3.4,6.2c0.6-0.2,1.4-0.6,2.4-1.1c4.9-2.6,13.6-8.2,13.5-6.6c-0.2,1.9-0.6,6.6,0,10.3
	c0.6,3.7,0.2,5.2-1.2,6.2c-0.2,0.1-0.2,0.3-0.3,0.5c-0.2,1.2,1.4,3.8,5.2,4.5c1.5,0.3,3.4,0.3,5.7-0.2c-0.3,1.2-0.6,2.7-1.6,3.7
	c-0.3,0.3-0.6,0.5-0.9,0.7c0.5,0.4,1.4,0.5,2.4,0.5C375.2,113,377,113.2,376.7,115.7z"/>
<path class="st0" d="M267.6,263.9c-2,0.5-5.6,0.7-11.8,0.2c-0.2-2.1-0.2-2.1-0.2-2.1l1.2-1.2c0,0-10.3-9.1-15.7-8.1
	c0,0-4.8-0.5-6.9,2.1c-2.4,3.1-2.6-1.1-2.6-1.1s-0.1-0.6,0.1-1.4c0.2-1.1,1-2.6,3.1-3.6c1.7-0.8,4.3-1.3,8.3-0.9c4,1.2,10,5,10,5
	l16.9,8.3C269.9,261.2,271.3,263,267.6,263.9z"/>
<path class="st0" d="M291.3,271.3c-0.2,0-0.5-0.1-0.8-0.1c-2.8-0.3-8.8-0.9-9.7,0.1c-0.9,1.2-1.2,0.3-4,0c-2.1-0.2-5.5-0.6-7.2-0.8
	c-0.6-0.1-0.9-0.1-0.9-0.1s-1.6-1.5,1.4-1.5c0.3,0,0.6,0,0.9,0c2.5-0.2,4-1.5,3.8-2.6c-0.2-1.2,5.5-4.3,5.6-3.8c0,0,0,0,0,0
	c0-0.2,0.3-0.9,3-0.1c3.6,1,9,1.5,9.1,6.4v0.1C292.5,268.9,293.5,271.5,291.3,271.3z"/>
<path class="st1" d="M983,724.5c0,0-3.4-19.9,0.8-18.3c4.2,1.6,11-0.8,9.9-1.6c-1.1-0.8-1.7-3.6-1.7-3.6l-4.5-1.2v-5.5l6.8,0.3
	l3.2-1.6l6-0.4c0,0,15.4,0,16.8-2c1.4-2,1.4-6.8,1.4-6.8s-2,3.7-4.2,1.2c-2.2-2.4-8.9-2.4-8.9-2.4h-22.9l-3.8-6h-16.4v4.6l-4-4.2
	c0,0-19.9-7.3-23-8.4c-11.5,0.6-54.4,0.6-60.9-6.6c-8,2.2-61.3,6.6-76.6,0c-7.3,6.1-7.3,6.1-7.3,6.1l-88.9-1.1
	c0,0-17.6,12.1-31.4,9.9c-5.7,0.6-7.3,2.8-7.3,2.8l-3.1-1.1c0,0-13.4,1.7-14.2-8.3c-6.9,3.9-6.9,3.9-6.9,3.9l-6.9-2.8
	c0,0-16.9,3.3-25.7-2.8c-8.8-6.1-5-6.6-5-6.6l-27.6,4.4c0,0-34.5,14.9-41,12.1c-6.5-2.8-24.1-2.2-41.8,2.8
	c-10.3-2.8-34.1,4.7-46-7.2c-5.7,3.7-10.9,6.7-10.9,6.7s-63.6,9.6-82,0.3c-11.9,15.5-107.7,29.3-107.7,29.3l-14,14.1H983z"/>
<path class="st0" d="M522.9,66.4c0,0-14.5,12.3-18.6,7.9c-4.1-4.4-4.1-4.4-4.1-4.4s14-1.7,16.3-3.5
	C518.8,64.7,522.9,66.4,522.9,66.4z"/>
<path class="st0" d="M372.9,124.2l-16.2,13c5.3-1,10.9-2.1,11.2,0l-0.8,4.9c3.1-2.9,4.8-2.8,5.8-1.3v3.2c2,2,3.1,2.5,3.9,0l1.7-5.4
	l1.6-4.5l-3.5-3.6L372.9,124.2z"/>
<path class="st0" d="M346.1,70.8c0,0-2.5-1.3-8.1-0.2c-3-1.2-4.3-0.6-4.3-0.6l3.5-4.3c0,0,10,2.1,10.2,0c0.2-2.1,8.5-3.6,8.5-6.6
	s-4.5-2.4-4.5-2.4s-13.2,6.7-8.4,2.2c4.8-4.5,9.7-9.3,7.1-9.7c-2.6-0.4-3.9,5-6.7,4.3c-2.8-0.6,6.7-3,1.5-3s-21-2.4-24.9-3
	s11.3-13.6,20.6-11.7c-3,1.3-8.7,8.5-5.4,5.5s9.5-7.5,19.3-4.5c4.3-0.6,11.3-0.9,8.2,1.7c1.3,1.9,3.2,3,3,5c4.1-0.4,6.7,2.4,6.7,2.4
	l5.6,0.6l2.3,5l-6,1.5c0,0-2.2,3.1,0.2,2.8c2.4-0.2,3.9,0.6,3.9,0.6l1.9-1.5l2.7,3.5l4.8,2.8c0,0-1.7,0.2-4.1,3.2
	c-3.2,0.6-3.2,0.6-3.2,0.6l-3.6,5.4c0,0-4.2-10.1-6.2-8.2s-3.5,4.2-0.4,6.6c1.3,4.1-2.8,9.1-2.8,9.1s-4.3-6.3-7.8-5.7
	c3.2,2.7,4.3,7.3,4.3,7.3s2.8-1.3,2.8,0.9s-2.2,2.5-2.2,2.5s-7.1-3.7-10-2.7c0-5-4.9,0-4.9,0L346.1,70.8z"/>
<path class="st0" d="M237.4,32.4c0,0,0.5,4.1-1.6,4.1c-2.1,0-9.1,4-14.5,5c3.5,1.3,4.4,1.1,4.4,2.7c0,1.6,9.7-2.9,11.8-2.7
	c2,0.2,9.6,2,4.5,2.1c-5.1,0.2-2.8,2.4-2.8,2.4l-2.2,2.3v3.3l2.4,0.6c0,0,2.1-1.2,2.1,0.8c0,1.9,8.4,1.2,8.4,1.2s0.7-1.8,5.2-0.9
	c4.6,1,11.9,1,11.9,1s1.7-1.5,3.5-1c1.7,0.5,5.1,1,5.1,1s3.5-4.8,6.6-5.5c0.2-1.9-5.4-3.5-5.4-3.5s8.6-8.9,10.3-9.1
	c1.2-0.2,0.8-1.7,0.8-1.7l-16.1,5.8l-11-2.1l-6.2-5.8c0,0-2.2,2.3-4,1.2C249,32.6,237.4,32.4,237.4,32.4z"/>
<path class="st0" d="M295.1,29l-5,0.9l-1.1,0.9l-22.3,2.7L266,32h-2.9l-2.4-3.1l-3.8-0.9H252v-2c0,0,8.2,1,8.2,0s4.6-1.7,4.6-1.7
	l8.2-1.1v2.2l6.9,1.2l6.4,1.2l3.9-3l0.8,0.4l-0.3,1.8l5.9,0.5L295.1,29z"/>
<path class="st0" d="M297.1,45h-3.9c0,0,1.9-3.2,0-3.8c-1.9-0.6-4-1.1-4-1.1s3.2-3.7,4-3.1c0.8,0.6,0.4,3,2.2,1.6
	c1.8-1.4,5-2.4,5-2.4l3.5-1.4l6,0.6l-3.5,6.1L297.1,45z"/>
<path class="st0" d="M317,27c0,0-2.2,5-4.5,5c-2.2,0-6.6-2.6-8.1-2.5c-1.6,0.1-6.8-2.4-4.1-2.9c2.7-0.5,6.4-0.6,6.4-0.6
	S316.6,22,317,27z"/>
<path class="st0" d="M299.5,19.4c0,0-10.7,6.3-15.9,3.8C285.1,21.7,288.8,18.5,299.5,19.4z"/>
<path class="st0" d="M484.7,9.8l0.1-5.8H333.9l-11.7,5.6c0,0-4.4,15,14.6,11.8c3.8-0.6,7.8-0.9,11.8-0.8l-1,3.2c0,0-3.9,0.6-5.5,0.8
	c-1.6,0.2-1.2,2.1-1.2,2.1l18.2-0.2v0.9l2.6,0.1l2.2,1.9c0,0,1.8-1.7,3.3-3.3c1.5-1.6,4.1,0,4.1,0l0.7-2.9c5.4,1.1,9.1,2,9.1,2v9.1
	l14.2-4.3l-3.8,8.1c0,0,3.7,0,8.8,2.2s-7.4,11.3-10.7,12.4c-3.2,1.1,19.4,22,19.4,22l11.1,1.3l2.3,4.2h9.3c0,0,4.2-7.1,4.2-9.8
	c0-2.7,10.7-11.9,10.7-11.9l25-4.3l6.9-9.1l4.2,3.2l40.2-6.4c0,0,0.8-4.8,3.6-6.4c2.8-1.6-24.3,3.8-24.3,3.8V34h6c0,0-0.6-0.6,4-5.4
	c22.2,0,30-15,30-15V9L484.7,9.8z"/>
<path class="st0" d="M324.8,72.6c0,0-6.5,1-6.7,0.2c-0.2-0.7-2.8-2.8-3.6-0.9c-0.9,1.9-4.6,1.4-4.6,1.4l-2.1,1.7L307,73h-3l1.3-2
	h1.6c0,0,3.6-1.8,4.9-3.6c1.2-1.7,3.3-1.4,4.4-1.3s3.8,2.9,3.8,2.9l1.1,0.1v0.9L324.8,72.6z"/>
<path class="st0" d="M317.3,76.9c0,0,0,2.3-1.3,2c-1.3-0.3-2.4-0.7-3.5,0s-3.7,1.6-3.3,0.3c0.4-1.3,2.2-2.3,2.2-2.3
	S314.1,74.1,317.3,76.9z"/>
<path class="st0" d="M321.7,19.2c0,0-13,0.7-10.5-0.9s6.9-1.4,6.9-1.4S321,17.6,321.7,19.2z"/>
<path class="st0" d="M319.2,39c0,0,4.3-3.2,6.7-3.4c-2.1-0.4-5.2-0.6-5.2-0.6H316v1.1c0,0-1.4,3.9-6,1.7c-1.6,4.5-1.7,4.5-1.7,4.5
	l-1.6,8.1l3.2-1.4c0,0,0.3-6.6,1.6-7c1.3-0.4,8.5-1.3,9-2.7L319.2,39z"/>
<path class="st0" d="M329,29.3v-1.9c0,0-7.2,0.1-7.4-2.4s8.9-0.5,8.9-0.5l0.7,0.9l6.6,1.1c0,0-0.6,2.5,0.6,2.4s4-0.2,4-0.2
	s1.2,2.6,2.9,0.5c3-0.6,4.6-0.5,4.6-0.5s12.9,0.5,11.1,2.1c-1.8,1.6-4.5,3.1-4.5,3.1h-4.9c0,0-0.3-1.9-1.6-1.1s-4.2,0.8-4.2,0.8
	l-11-1l-0.4-0.7l-7.8,0.4C326.6,32.5,326,29.2,329,29.3z"/>
<ellipse transform="matrix(0.3348 0.9423 -0.9423 0.3348 288.7121 -249.6186)" class="st0" cx="321.1" cy="79.7" rx="1.3" ry="2.2"/>
<path class="st0" d="M298,266.5v2.9l3.1,1.6l2.8-0.5l1.5-2.4C303.5,266.1,301,266.1,298,266.5z"/>
<path class="st0" d="M617.1,20.3c0,0-1.2,8-5.2,5.6c-4-2.4-7.9-2.6-7.9-2.6s4.8-2.9,0-3s-4.8-0.1-4.8-0.1l-2.6-4.3c0,0,4-4,6.9-1.9
	s5.2,2.6,5.2,2.6l1-3.2l5.3,1.8l2.1-0.7l3.6,3.3l7-4.4c0,0,11.5-1.6,8.7,0c-2.9,1.6-5.2,2.8-5.2,2.8l-3.9,3.4c0,0,8.2-0.7,5.8,0.8
	s-5.3,1.5-5.3,1.5S620.5,19.7,617.1,20.3z"/>
<path class="st0" d="M727.9,46H724h-7.8l-1.2-1.9l-3.1,0.9c0,0-4.8-3.8-2.6-4.7c2.1-1,6.4-7.2,6.2-8.7c-0.2-1.4-0.2-1.5-0.2-1.5h3.9
	c0,0,2-1.8,4.9-2.5c2.9-0.7,3.9-1.5,3.9-1.5h5.8c0,0,1-0.5,7-2c6-1.4,3.8,2.2,3.8,2.2l-12.4,6.5c0,0-10,1.9-8.8,4.8
	c1.2,2.9-0.7,4.2-0.7,4.2S730.8,44,727.9,46z"/>
<path class="st0" d="M1112.3,56.4c-11.7-4.9-34.6-9-47-11c-2.1-0.3-3.6,1.3-3.6,3.1c0,0.7,0.2,1.4,0.8,2c0.7,0.8,0.1,2-1,2l-45.6-7
	l-0.5-0.1c-3.7-5.4-8-5.5-12.6-1.9L969,38.2c-3.2-0.5-6.5-0.2-9.6,0.7l-9,2.7c-5.4,1.6-11.3,0.9-16.1-2.1l-4.1-2.5
	c-2.7-1.7-5.8-2.5-8.9-2.5l-51.7,1.8c-1.1,0-1.8-0.9-1.8-1.8c0-0.6,0.3-1.1,0.9-1.5c3.1-1.9,2.3-6.6-1.2-7.3
	c-11.5-2.5-29.3-6-32.3-5.1c-4.4,1.3,1,4.4,1,4.4s-17.1,1.3-28.4,1.8c-11.4,0.5-20.6,12.1-20.6,12.1c-2.2-0.2-3.7,2-2.8,3.9l0.1,1.3
	c0.2,2.5,2.1,4.4,4.6,4.6l6.7,0.5l-1.4,2.2c-0.7,1.1-2,1.5-3.1,1.1l-5-1.8l0.6,8.1c-0.2,0.9-11.4,4.6-12.1,0.9
	c-0.3-1.7,9.3,2.7,8.5-8c0.8-2.3-0.1-4.1-1.5-5.6c-2.2-2.5-5.9-4.4-6.5-6.8c-1-4-11.9-2.5-15.4,0c-3.5,2.5,1.5,8,9.4,12.5
	c-25.7-8.9-52.1,7.7-72.3,0.7c-1.2-0.4,4.2,5.9,3.1,6.5c-6.1,3.1-10.4,6.1-12.3,7.6c-9.6,8.1-15.4-3.5-20.7-6.7
	c23.3,5.2-4.4-10.5-8.5-10.5c-4.1,0-2-2.3-0.3-3.2c0.3-2.3-18.6-2-22.7-2s-3.2,2-6.1,4.1c-2.9-0.9-4.1-1.2-8.3,0
	c-2.8,6.4-19.9,19.8-22.2,21.8c-2.5,0.4-4.7,1.2-6.7,2c-5.7,2.3-9.3,5.3-9.3,5.3s0.2,2.2,0.5,5c0.3,2.7,0.7,5.9,1.3,8.4
	c1.2,5.2,13.7-0.6,13.7-0.6c4.2-5.4,7.3,5.8,9.4,12.4c2.9,9.2,15.9-1.4,11.3-10.3c5.3-0.9,8.9-4,7-5.9c-7.5-8-2.1-10.6,0-12
	c2.1-1.4,6.1-2.1,8.5-7.3c2.4-5.2,7.3-2.6,8.2,0c0.5,2.8-7.3,4.5-7.8,12.7c-0.5,8.2,7.5,7.5,16.2,6.1c8.7-1.4,3.5,2.3,0.7,2.6
	c-6.6,0.2-10.1,2.3-10.1,3.5c5.6,7.7-0.2,5.4-3.5,4c-3.5,1.6-3.8,11.5-3.8,11.5s-2.8,0-4.9,2.1c-2.1,2.1-3.8-1.6-3.8-1.6
	s-13.4,4.2-13.9,2.8c-0.5-1.4-3.3-0.7-8.2-0.5c-8.5-1.6-3.1-6.1-2.8-9.6c0.2-2.8-3.5-3.3-6.1-2.1c-6.3,1.9-2.3,8.2-0.5,15.1
	c-7.8-2.6-10.6,1.8-12.9,1.6c-2.3-0.2-1.3,0.8-0.5,2.1c0.8,1.3-10.6,7-11.4,9.8c-2.3,3.1-8.8,3.4-11.6,1.8c-0.8,4.1-2.1,3.6-3.4,4.4
	c-10.6-0.5-7.8,3.4-4.7,4.1c13.7,4.4,9.8,11.6,8.5,16.8c-1.3,5.2-15.2,2.8-20.2,2.3c-4.9-0.5-6.5,1.6-8,3.4c1.6,7-2.8,14.5-3.9,17.8
	c1.6,1.8,2.6,3.9,4.7,8c7.8-1,6.7,2.3,10.1,3.6c5.2-4.1,7.5-1.3,12.2-2.3c4.7-1,9.3-8,9-10.3c-0.3-5.2,3.9-7.8,7-8.5
	c3.1-0.8,4.4-2.1,5.2-4.1c-0.2-9,4.7-6.7,7.8-5.4c4.1,2.9,7.2-1.3,10.1-4.1c2.9-2.9,4.9-2.3,7-0.5c2.3,10.1,4.5,9.1,11.8,13.4
	c7.2,4.4,7.6,5.7,8.1,11.1c-0.5,5.4,1,6.1,1,6.1s5.2-5.6,6.2-7.5c1-1.9-3-4.1-3.2-5.6c-0.3-1.4,5.7,2.2,5.7,2.2s2.2,0.1,0.4-2.5
	c-12.4-6.5-21.7-16.8-22.2-20.9c-2.8-9.6,24,13.2,25.3,16.8c-0.5,3.6-0.5,2.6,2.3,4.9c6.2,6.2,5.9,7,5.2,11.1
	c5.9,10.1,8.5,4.4,9,2.3c0.1-0.4,0.2-0.6,0.3-0.9c0.5-0.9,0.8-1.8,0.8-2.8c0-0.2,0-0.5-0.1-0.7c-4.1-1.6-2.8-5.2-4.4-9.8
	c-1-5.4,12.7-0.5,19.1-2.3c6.5-1.8,3.6,1.8,3.6,1.8l-8.5,1.3c0,0-0.8,1.8,0,2.6c0.8,0.8,1.3,3.1,4.1,11.6c3.6,4.9,11.7,4,12.4,1.5
	c2.1,2.8,12.1,3.9,13.1,2.1c1.1-1.8,2.5-1.4,5.7-2.1c2.1,22.7-9.6,24.8-9.6,24.8s-0.7,3.4,2.4,10.1c4.1,0.5,23.8,25.3,23.8,25.3
	s1,13.4,6.2,18.6c5.2,5.2,8.8,11.4,11.9,25.3c3.1,8.8,32.6-7.2,32.6-7.2s11.9-10.3,19.1-13.4c7.2-3.1,9.6-15.7,12.5-18.6
	c2.9-2.9-5.3-5.5-9.6-7.9c-5.3,0.3-5.3-3.8-6.7-8.5c-12.3,16.6-21.6,2.9-23.4-2c-1.8-5-11.7-13.4-11.7-13.4l6-3c0,0,0,0,6.1,6.5
	c6.1,6.5,17.7,8.9,20.5,8.2c2.7-0.7,4.7-1.7,6.1,2.3c2.9,5.8,34.4,2.9,34.4,2.9s14.1,12.3,16.3,10.9c0.9-0.6,0.5,0.3-0.4,1.6
	c-1.5,2.3-0.6,5.4,1.9,6.4c0,0,0.1,0,0.1,0.1c0.1,0,0.2,0.1,0.2,0.1c0,0,0.1,0,0.2,0.1c2.8,1,5.8-0.5,6.8-3.2c1.9-5,3,3.6,2.4,8.4
	c-0.6,4.8,10.8,33.3,17.2,48.2c-1.7,5.9,2.5,5.7,3.3,7.3c14.1-0.4,11.8-21.9,13.2-35.6c4.7-1.1,20.3-20.3,23.9-26.1
	c0.4-7.2,11.9-7.2,11.9-7.2s4.3,8.7,10.9,15.9c2.2,22.1,11.9,15.2,16.6,12.3c3.1-0.4,5.5,8.6,7.2,18.1c1.2,7,2,14.3,2.3,18.4
	c6.6,5.6,7.8,14.9,8.3,19.6c0.4,3,6,7.6,9.8,10.6c2.1,1.6,3.7,2.6,3.7,2.6h2.7l-0.3-0.6l-2.9-5.7l-1.3-2.4l-1.6-10.7l-8.9-5.6
	l-5.6-16.2l-0.5-15c9.6,3.8,15.4,9.8,17.1,18.2c1.3,1.4,3,2,4.7,2c2.6,0,5.1-1.5,6.1-4.2l6.2-2.6c1.5-0.6,2.7-1.7,3.6-3
	c0.9-1.3,1.3-2.8,1.3-4.5c0-3.5-1.1-6.9-3.3-9.8c-4.6-6-12.7-17-15.1-22.1c-0.3-0.6-0.5-1.1-0.6-1.5c-0.6-2,1.7-3,4.9-3.4
	c5.6-0.8,14.1,0.3,14.1,0.3l8.8-6c6.2-1.4,11.9-4.5,16.5-8.9l5.4-5.2c0,0-0.1-0.6-0.3-1.7c-0.4-2.6,0-5.2,1.5-7.3
	c3.4-4.7,0.3-14.1,0.3-14.1h-3.7v-10l-11.4-11.9c0,0,3.5-4.1,4.6-7.7c0.4-1.3-0.8-2.7-2.1-2.4c-3.9,0.8-9.2-1.5-12.8-3.4
	c-2-1.1-2.3-4-0.4-5.4l5.7-4.4c0.3-0.2,0.7-0.4,1.1-0.4c0.7,0,1.4,0.4,1.7,1.2c1,3.3,4.5,5.1,7.8,4.1l7.5-2.3c0,0,1.6,5.2,4.1,6.2
	c1.3,0.5,4.8,8.9,7.5,14.5c0.6,1.2,1.1,2.3,1.6,3.2c0.3,0.6,1.1,0.8,1.6,0.4l5.5-3.9c1.7-1.2,2-3.6,0.6-5.2l-2.3-2.7l-9.9-11.4
	l3.1-6.2c0.2-2.2,1.1-4.3,2.6-5.9c1.5-1.6,3.4-2.6,5.7-2.9c2.8-0.4,5.1-2.2,6.2-4.8c1.5-3.7,3.4-9.7,3.7-17c0-0.2,0.2-0.3,0.2-0.5
	l6.2,5.7v3.3c0,0,1.3,0.1,2.4,2c1,1.9,1.9,4.3,2.2,4.2c0.7-0.2,0.4-1.6-0.1-3.4c2.1,1.6,4,2.8,5.3,2.7c-5.6-5.8-9.2-14-9.2-14
	l6.4,2.9l-8.9-5.8l-6.8-7.4c-0.6-1.3-1.2-2.5-1.9-3.7c-4.4-7.4-11.4-13-16.5-14.2c-0.7-0.2-1.3-0.3-2-0.3
	c-13.6,1.7-12.6-4.8-10.5-10.5c1-2.7,2.2-5.2,2.2-6.6c0-3.4,24.6-3.7,33.8-3.6c1,0,1.9-0.4,2.7-0.9c0.7-0.6,1.3-1.4,1.5-2.4
	c0.7-3.5,4.2-5.7,7.7-4.8l1.9,0.9c2.1,0.9,4.5,0.2,5.8-1.6c1-1.5,2.5-2.9,4.5-2.9c2.6,0,0.5,10-1.5,17.3c-1.2,4.7,0.4,9.6,4.2,12.5
	l16.1,12.6c0.1,0.1,0.2,0.1,0.3,0.2c1.1,0.5,2.4-0.4,2.1-1.7l-0.1-0.6l-4.6-21.1l-7.6-8.3c-2.7-3.2,5.8-0.6,9.8-1.6l4.9-1.2
	c2.9-0.7,4.7-3.6,4.1-6.5c-0.7-3.7-1.1-8.7,0.6-12.4c0.7-1.4,2.2-2.2,4-2.8C1115.2,62.2,1115.4,57.7,1112.3,56.4z"/>
<path class="st0" d="M1044.8,359.9l-2.1,3.1h-2.7l-0.8,2h1.8l0.3,2h1.6l0.9,6.6l-3.5,2.2l-1.1-0.7c0,0,0.6-2.8,0-2.3
	c-0.6,0.5-0.6,0.5-0.6,0.5s0-8.7-1.4-7.9c-1.4,0.9-3.4,2.3-3.4,2.3s2,0,1.8,0.9s-3.2,17.7-3.5,12.3c-0.4-5.4,0.8-8.8-1.3-9.7
	c-2-0.9-3.8-1.2-3.8-1.2s2.3-10.1,3.2-10.3c0.9-0.2,3.5,0.7,3.5,0.7l-0.1,2.2c0,0,1-0.3,1.5-0.8s3-1.1,3-1.1l1-1.9
	C1039.1,358.8,1046.1,358,1044.8,359.9z"/>
<path class="st0" d="M1053.2,347.6c0,0-0.5,5.5-1.9,5.4s-16.6,1.9-15.4,0s1.5-3.1,1.5-3.1s2.4,1.6,3.1,1.6c0.7,0,7.7,0.2,9-1.4
	C1050.9,348.3,1053.5,345.7,1053.2,347.6z"/>
<path class="st0" d="M1040.9,402.8c0,0,1.8,0.8,3.5,0.1c1.7-0.7,9.8-7.7,9.8-7.7l3.3-0.8l0.7-2.4h2.3c0,0-0.1-3.3-2-3.4
	c-2-0.1-5.2,0-5.2,0l-0.5,2.5l-9.4-0.4c0,0-3.4,4-8.3,1.3s-2.1,2.2-2.1,2.2s3.4,1.8,5.7,1.3c2.3-0.5,16-5.5,12.4-2.2
	c-3.6,3.3-4.8,4.6-4.8,4.6S1044.8,403,1040.9,402.8z"/>
<path class="st0" d="M1054.4,313.3c0,0,5.4,9.7,2.5,10.3c-2.9,0.6-2.9,0.7-2.9,0.7l0.9,2.3l-0.9,4.1c0,0-1.4-1.1-2.9-1.8
	c-1.5-0.8-2.1-0.9-2.6-3.7c-0.5-2.7-1.7-3.9-3.5-4.2s-3.5-0.1-3.5,0.9c0,1,0.8,2,0.8,2h-2.2c0,0-0.3-4.7,0.7-4.7
	c0.9,0,2.1-0.9,2.1-0.9l0.8-2.4l5.3,1.2C1048.9,317.2,1054.2,317.4,1054.4,313.3z"/>
<path class="st0" d="M1048.5,311.4l-1.5,2.6h-5l-0.5-2.8c0,0,3.2-2.7,0-2.8c-3.2-0.2-3.8-6.4-3.8-6.4l3.5,1.1c0,0,1.8,1.5,2,1.1
	s1.8,3.7,3,2c1.2-1.7,1.9-2.4,1.2-5.2c-0.8-2.7,6.7,3.2,6.7,5.6s0,2.7,0,2.7l-0.6-0.4l-2.1-3.5l-0.3,4l-2,0.8l-1.5-0.8L1048.5,311.4
	z"/>
<path class="st0" d="M1034,294.4l-1.5-1.3c0,0-0.1-3.8-2-4.5c-0.8-2.9,0-17.8,0-17.8s1.6-0.1,1.5,2.2c-0.1,2.3,3.9,2.4,3.9,2.4v2.8
	l1.6,1l-0.5,3.4c0,0-2.2,1.6-2.2,2.8c0,1.2,1.3,3.7,1.1,4.3c-0.3,0.6-1.2,4.3-1.2,4.3L1034,294.4z"/>
<path class="st0" d="M1032.5,295.5c0,0,1.8-0.7,2.4,0.7s0.9,4.8,0.9,4.8h-1.7L1032.5,295.5z"/>
<path class="st0" d="M1045.9,298h-1c0,0-1-0.4-1.7-0.2c-0.7,0.2-2.6-1.1-2.6-1.1l-0.6-2.3c0,0-2,2.2-2.4,1.6
	c-0.3-0.6-0.6-3.7-0.6-3.7l3.4-0.9l1,0.7c0,0,7,0.3,6.3,1s-0.7,1.9-0.7,1.9h-2.2L1045.9,298z"/>
<path class="st0" d="M1048.7,299.2c0,0,2.4,2,2.8,2.6c0.4,0.6,0.6-0.4,0.6-0.4s1-2.8,0-2.8S1048.7,298.6,1048.7,299.2z"/>
<path class="st0" d="M1045.4,299.6c0,0,2,2.9,1.4,2.9s-1.4-0.1-1.4-0.1s0.7-0.6-0.5-0.7c-1.2-0.1-2.7,0.6-2.7,0.6l-0.4-0.6
	C1041.8,301.6,1042.5,298,1045.4,299.6z"/>
<path class="st0" d="M1147.5,381.3c0,0,0.7,1.6,1.9,1.1s2.2,0.1,2.2,0.1s5.9-1.8,6.2-3.6c0.3-1.8,2-2.2,2-2.2l2-0.5
	c0,0-0.8-5.7-2.9-7.2c-2.1-1.5,0.3-1.9,0.3-1.9s0.5-0.8-1.1-0.8s-1.4,2.5-3.2,0.8c-1.9-1.8-2.8-1.9-2.8-1.9v1.6c0,0,2.9,0.3,1.3,1.1
	c-1.6,0.8-1.2,2.5-1.2,2.5s4.5-2.7,4.9-1c0.4,1.6,1.5,3.7,1.5,3.7l-2.4,0.8c0,0,0.3,0.9-0.8,1.8S1147.5,381.3,1147.5,381.3z"/>
<path class="st0" d="M1068.3,348.5c0,0,0.7,0.1-1,1.9s-2.4,2.6-2.4,2.6h-2.4c0,0-0.6-5.9,0-6.9c0.6-1,3.5-2.2,2.9-1
	c-0.6,1.3,0,3.7,0,3.7S1067.9,346.5,1068.3,348.5z"/>
<path class="st0" d="M1068,344c0,0,1.3,1.3,0,1.5s-1.7,0.5-1.7,0.5h-1l0.5-3.5C1065.9,342.5,1067.9,341.9,1068,344z"/>
<path class="st0" d="M1064.6,356c0.1,0.3,0.7,2.7-0.3,2.7s-3.5-1.5-3-2.2C1061.8,355.8,1064,354.7,1064.6,356z"/>
<path class="st0" d="M1065,357c0,0,1,1.3,1,1.6c0,0.3,0,1.3,0,1.3l-1.3-1.8l-1.7-1.1H1065z"/>
<path class="st0" d="M1075.4,369.4c0,0,0.8,3.3,0,2.3s-2.6-3-2.6-3l-2,0.8l-0.4,0.8c0,0-1.5-1.4-1.9-1c-0.4,0.4,0,2.2-1.6,1.9
	c-1.7-0.3-3.4,2.4-3.5,0.9c-0.1-1.5-1.2-3.9-0.4-4s8.6-0.9,9.7-0.5C1073.9,368.1,1075.6,367.9,1075.4,369.4z"/>
<path class="st0" d="M1073.9,362.4c0,0,0.6,1.3-0.1,1.7c-0.7,0.4-2.8,0-2.8,0v-1.3C1071,362.8,1073.4,361.9,1073.9,362.4z"/>
<path class="st0" d="M1064.7,361.4c0,0-0.8-1.9-1.6-1s-1.2,1.1-1.2,1.4s-0.2,1.4-0.2,1.4s3.9,0,4-0.4
	C1065.8,362.2,1065.6,361.4,1064.7,361.4z"/>
<path class="st0" d="M1085.5,358.5c0,0,2.9-1.1,3.2,1c0.3,2.1,0,5.2,0,5.2s-1.3,2.5-2.6,4.6s-1.4,2.7-1.4,2.7l-2,0.6
	c0,0-2-4.7-2.5-4.8s0.7-1.8,0.7-1.8h1l0.1-1.2l-1.5-0.1l-0.4-3.5c0,0-4.7,0.6-4.9-0.2c-0.2-0.8-1.3-2.2-1.3-2.2l1.6-0.3
	c0,0,1.5,1.4,1.5,0.9c0.1-0.5,2.9-1.6,2.9-1.6l1.4-1.8h4.5L1085.5,358.5z"/>
<path class="st0" d="M1077.4,355.4c0,0,0.3,1.8-0.8,1.6s-2.4,0-2.4,0l-1.1-1.6C1073.1,355.4,1076.5,354.3,1077.4,355.4z"/>
<path class="st0" d="M1073.4,172.5c0,0-3.1,1-2.3,3.7s1.2,6.3,1.2,6.3s2.1,9.2-2.3,9.6c-4.5,0.4-3.9,2-3.9,2l0,3.7c0,0-11-2-12,0
	s-3.6,5.7-3.6,5.7s-4.4,3.7-4.4,4.7c0,1,0,2,0,2s2.6,0,3.7,2.4c1,2.4,3.4,6.5,3.4,6.5s4-1.1,3.7-3.1c-0.3-2-0.3-2-0.3-2
	s-0.7-7.1,0.2-5.6c0.9,1.5,2.1,2.8,2.9,2c0.8-0.8,3-3.6,3-3.6s3,2.9,2.3,1.1c-0.7-1.8-0.5-6,0.2-4.9c0.7,1.1,3.8,6.4,4.3,5.2
	s1.1-4.3,1.7-4.6s1.5-0.7,1.5-0.7l-3.5-1.6c0,0,3.9,1,5,0.9c1-0.1,6-6.4,6.6-5.2c0,0,2.2,1.1,1.9,3c1.3-1.9,1.7-3.9,0-4.6
	c-0.5-2.7,0.4-7.7-0.6-8.1s-1,1.5-1-0.4s-1.2-6.8-1.2-6.8s-1-1.3-1.6-2.1c-0.6-0.8-2-0.1-2.3-0.8
	C1075.6,176.4,1076.3,173,1073.4,172.5z"/>
<path class="st0" d="M1060.5,156c0,0,3.4,0,3.7,0.9c0.4,0.8,3.9,3.3,3.5,5.1c-0.4,1.8-0.3,2.8-0.3,2.8s-2.2-1.4-2.5-1.1
	c-0.4,0.3,0,1.9,0,1.9s2-0.7,1.4,0c-0.6,0.7-2.3,1.1-2,1.7s1.9,1.6,2.4,2.3c0.5,0.7-0.1,2.1,0.4,2.9c0.5,0.7,2.4,0.7,2.4,0.7
	s2.2-1,2.8-1.7s-0.8-1.2-0.8-1.2l-0.8-1l-0.8-0.8l1.7-0.4c0,0,1.5,0.3,2.1,0.5c0.6,0.2,2.5,1.4,2.5,1.4s1.7,0.5,1.7,0.1
	s0.2-2.6,0.5-2.8c0.3-0.2,2.6-0.8,3.3-1.3c0.7-0.5,2.3,0,2.3-0.6s1-1.7,0-1.7c0,0-0.6,1.2-0.9,0.5c-0.3-0.7-0.6-1.4-1.1-1.6
	c-0.5-0.2-3.2,0.6-4.7-0.8c-1.6-1.4-4.2-1.6-5.7-2.7s-3.4-2.9-4.5-2.9c-1.1,0-6.4-1.8-6.8-1.3C1059.8,155.2,1060.5,156,1060.5,156z"
	/>
<path class="st0" d="M1028.3,242.9c0,0,3,4.3,1.9,5.1c-1,0.9-1.5,2.8-1.9,3.3c-0.4,0.4-0.3,3.3-0.6,4s-0.1,4.2-0.8,2.8
	c-0.7-1.3-3.1-3.1-3.4-4.3c-0.4-1.2,0.7-8.3,1.5-8.7C1025.8,244.8,1026.2,242,1028.3,242.9z"/>
<path class="st0" d="M1029.4,308c0.8,0.1,0.4,2.5-1.4,3.1c-1.8,0.6-0.2,1.3-1.1,2.2c-0.8,0.9-3.5,3.8-4.2,4.3
	c-0.7,0.5-2,2.9-1.6,1.3c0.4-1.6,1.9-3.1,2.7-4.2S1026.6,307.5,1029.4,308z"/>
<path class="st0" d="M1018.6,311.6c0,0,0.2,2.1-1.2,1.1C1015.9,311.8,1017.1,311.7,1018.6,311.6z"/>
<path class="st0" d="M1089.5,378.8c0,0,1,1.5,1,2.8c-0.1,1.3,0.3,1.9,0.3,1.9s-0.3,0-0.6,0.7s-4,2.3-3.3,0.9
	c0.7-1.3,1.4-2.7,1.4-2.7l-0.1-3C1088.2,379.5,1088.9,378.5,1089.5,378.8z"/>
<path class="st0" d="M1078,386.1c0,0,0.8,1.9,0,2.7c-0.8,0.8-2.8,1.5-3,0.8s-0.8-2,0-2.2s2-0.1,2-0.1S1077,384.4,1078,386.1z"/>
<path class="st0" d="M1203,454.3c0,0-0.3,5.7-0.5,3.2c-0.2-2.5-2.7-4.3-2.7-4.5c0-0.2-4.4-2.5-4.6-3.9c-0.2-1.4-0.6-2.4-1.1-2.8
	c-0.5-0.4-0.7-4.2-0.7-4.2l-0.8-2.9c0,0,0.5-0.5,1,0c0.5,0.5,3,5.3,4.2,5.9c1.2,0.6,2.1,0.7,2,1.6c-0.1,0.9,0.1,1.4,0.6,1.9
	c0.5,0.5,2.6,2.5,2.6,2.5s3.4,3.2,2.3,3.2S1203,454.3,1203,454.3z"/>
<path class="st0" d="M1194.1,434.5c0,0,0.5,1.2-2.6,2.9c-2.4,1.3-0.9-1-0.7-1.4C1190.8,435.9,1191.8,432.7,1194.1,434.5z"/>
<path class="st0" d="M1243.4,434.9c0,0-1,3.3-1.6,3.2s-1.9-0.8-2.5-0.8s-3.7,2.2-3.6,0.8c0-1.3,0-2.5,0-2.5s2.4-1.6,2.5-2.1
	s3.4-0.9,3.4-0.9l0.5-0.5c0,0,2.6,1.6,2.2,1.9S1243.4,434.9,1243.4,434.9z"/>
<path class="st0" d="M1255.7,429.5c0,0-0.1,1.8-1.1,1.7c-1-0.1-2.2,0-2.1-0.8s-0.1-1.7-0.2-1.9c0-0.3,0.6-1.2,3-1.4
	c2.3-0.2,3.5-0.7,3.7-1.3s0.6,0.7,0.2,1.5C1258.9,428,1256.7,429.9,1255.7,429.5z"/>
<path class="st0" d="M1254.5,432.9c0,0,0,0.7-0.5,1.3s-1.2,1.8-2.5,1.8s-1-0.8-1-0.8l-1.3,1c0,0-2.7,0-2.7-0.8s0.1-2,0.1-2
	s2.3-0.7,1.8-1.2c-0.5-0.6,0.3-3.6,0.3-3.6l1.3-0.2c0,0,1.1,0.6,1,1.1c-0.2,0.5-0.2,1.5-0.2,1.5s1.6,0.1,1.8,0.2
	c0.2,0.1,2.7,0.3,2.6,0.8C1255.1,432.5,1255.2,433.1,1254.5,432.9z"/>
<path class="st0" d="M1180.8,394.4c0,0-4.1,0.2-4.7-1.7c-0.6-1.9-2.1-1.8-2.1-1.8s-1-2.7,0-2.7s3.2,1.5,3.2,1.5s3,1,3,2.1
	S1182.2,393.9,1180.8,394.4z"/>
<path class="st0" d="M1167.9,377.6c0,0-0.7,3.7,0,4.3c0.7,0.6,1.1,1.6,1.2,2.3s3.9,2.1,3.4,0.6
	C1172.2,383.3,1171,377.3,1167.9,377.6z"/>
<path class="st0" d="M1190.9,391c0.1,0.6,0.4,2.5,0.9,3s0.3,1,0.8,1.9c0.6,0.9,0.3,2.2-0.2,1.9c-0.5-0.3-1.4-2.6-2.8-2.9
	c-1.5-0.3-0.7-1.5-0.7-1.5S1190.4,388.8,1190.9,391z"/>
<path class="st0" d="M1187.3,392l-0.6,0.4l-0.5-0.1l-2.6-0.2c0,0-0.4-1.1-0.6-1.2c-0.1-0.1-2-1.8-2-1.8v-1l2.5,0.2l0.5,1.7h2.8
	l-0.3,0.7L1187.3,392z"/>
<path class="st0" d="M1180.5,387.4l-0.4,0.7c0,0-3.3,0.9-3.7-0.3c-0.4-1.2-2.1-3.2-2.1-3.2l1.3-0.5l0.4,0.9c0,0,1.7-0.3,1.5,0
	c-0.2,0.3,0.5,1.9,0.5,1.9S1180.9,386.7,1180.5,387.4z"/>
<path class="st0" d="M1190.1,397.8c0,0,0.3,3.3-0.7,2.7c-0.9-0.6-4.1-1.3-2.8-2.1C1187.8,397.7,1189.9,395,1190.1,397.8z"/>
<path class="st0" d="M1195.2,401.9c0,0.2,0.6,0.6-0.2,0.8c-0.9,0.1-2,1.2-2.3,0c-0.4-1.2-1-2.8-0.4-2.8c0.6,0,1.2,1.2,1.2,1.2
	l1.7,0.5L1195.2,401.9z"/>
<path class="st0" d="M1211.4,426.5c0,0,2.1-3.9,0.1-5.2c-2-1.2-2.8-3.1-2.9-1.8c-0.1,1.3-1.3,4.2-0.2,5.1c1.1,1,1.5,1.6,1.5,2.2
	c0,0.5,1.8,3.7,2.2,3.3c0.4-0.4,3-1.5,2.8-2.3c-0.1-0.8,0.2-2,0.2-2h-2.1C1213.1,426,1212.4,428.9,1211.4,426.5z"/>
<path class="st0" d="M1215.6,420.7c0,0,1.2,3.9,0.4,4.1s-1.5-0.1-1.5-0.1s-2.1-2.2-1.6-2.4S1214.4,423.5,1215.6,420.7z"/>
<path class="st0" d="M1214.4,415.3c0,0,0.8,4.3-0.5,3.7s-1.7-1.5-1.7-2.1c0-0.6-0.6-1.4,0.1-1.4
	C1213.1,415.5,1214.4,414.3,1214.4,415.3z"/>
<path class="st0" d="M1214.3,411.6c0,0,0.4,2.2-0.8,2.1s-1.2,0.2-1.2-1.1S1213.8,410.3,1214.3,411.6z"/>
<path class="st0" d="M1214.1,406.5c0,0,0.7,0.9-0.5,0.9s-1.9,0.7-2,0c-0.2-0.7-0.2-1.5-0.5-1.6s-1.8-1.1-1.1-1.3s2.1-0.2,2.1-0.2
	l0.7,1.1C1212.8,405.5,1214.2,405.2,1214.1,406.5z"/>
<path class="st0" d="M1210.3,401.8c0,0,1.3,2.3,0,2.1s-1-1-1.5-1.3c-0.5-0.4-0.4-1.1-0.4-1.1s1.5,0.2,1.2-0.4s-1.3-1.4-1.2-1.6
	s3.2-0.3,3.1,0C1211.6,399.9,1213,401.8,1210.3,401.8z"/>
<path class="st0" d="M1219.5,407.7c0,0,0.3,0.1,0.4,1.1s-3.3,0.3-3.3,0.3s0-1.4,0.9-1.3C1218.4,407.8,1218.9,406.2,1219.5,407.7z"/>
<path class="st0" d="M1225.4,406.1c0,0-1.7,3.5-2.7,1.6s-2.4-3-1-3.3s2.3,0.4,2.4,0.9S1225.5,404.9,1225.4,406.1z"/>
<path class="st0" d="M877.8,312.5c0,0,10.6,11.1,5.8,14.1s-4.8,3-4.8,3s-3.2,0.4-3.2-4.8S873.9,312.9,877.8,312.5z"/>
<path class="st0" d="M924.4,293.9c0,0,1.4,3.8,2,4.7c0.6,0.9,0,2.3,0,3.4c0,1.1-1.1,8-2,5.4S919.6,293.6,924.4,293.9z"/>
<path class="st0" d="M930.2,318l-1.3,3l-3.2-3C925.8,318,930.1,314.6,930.2,318z"/>
<path class="st0" d="M956.1,366.5c0,0,2.5,2.3,1.9,3.3c-0.6,1-0.6,1-0.6,1l-0.7-1.2c0,0,0.1-0.9-0.9-1.5c-1-0.6-1-0.6-1-0.6
	S955.3,366.3,956.1,366.5z"/>
<path class="st0" d="M955.6,365.3c0,0,0,0.7-0.8,0.7c-0.8,0-1.3-2.1-0.8-1.9S955.8,364.7,955.6,365.3z"/>
<path class="st0" d="M953.3,362.3c0,0-0.3,0.3-0.5,0.7c-0.2,0.5-2.9,1.2-2.9,0.5s-1.2-2.8-1.2-2.8s1-2.1,1.5-1.7
	S953.8,361.6,953.3,362.3z"/>
<path class="st0" d="M948.1,352c0,0-1,0.9-1.5,0.2s-2.1-0.6-2.3-1.9c-0.2-1.3,0-2,0-2s0.8-0.5,0.9,0c0.1,0.5,0.6,1.4,1.3,1.7
	C947.1,350.3,949.2,350.6,948.1,352z"/>
<path class="st0" d="M945.3,344.3c0,0,0.8,1.6,0.6,1.9s-1.9,1.4-1.7,0.3C944.4,345.6,944.2,344.3,945.3,344.3z"/>
<path class="st0" d="M942.3,344.1c0,0.4-2.6,1.4-2.8,0.2s-0.5-2.3,0-2.3s1.4,0,1.4,0S942.3,343.5,942.3,344.1z"/>
<path class="st0" d="M983.7,366.8c0,0-2.1,2-0.2,2.5c1.9,0.5,3.9,0.6,3.9,0.6s3.7-2.9,2-3.2C987.6,366.5,984.3,366,983.7,366.8z"/>
<path class="st0" d="M1034.5,400.5c0,0-1.1,1.9-3.8,0c-2.7-1.9-3.8-2.3-3.8-2.3s5.7-0.4,6.5,0
	C1034.2,398.6,1035.6,397.8,1034.5,400.5z"/>
<path class="st0" d="M1028.9,391.3c0,0,2.3,4.5-2.9,4.7c-5.2,0.2-6.1-0.7-7.7-1.5c-1.6-0.8-3.4-1.7-3.4-1.7l2.5-0.8
	c0,0,2.4-1.3,2.8-0.9c0.4,0.5,2.8,1.3,2.8,1.3V391l2,0.1v0.9C1025,392,1027.7,391.4,1028.9,391.3z"/>
<path class="st0" d="M55.8,285.9l-1.8,1.2c0,0-1.3,0.2-1.6,0.6s-0.7,1.2-0.7,1.2s-0.5-0.6-0.6-0.6c-0.1,0-0.5-0.7-0.5-0.7
	s0.5-0.7-0.2-1.7c-0.8-1-0.2-1.3-0.2-1.3s0.7-0.3,0.7-0.8c0-0.4-0.1-1.4-0.1-1.4l0.1-0.4l0.8,0.2l0.4,0.5c0,0,2.4,1,2.5,1.3
	c0.1,0.3,0.1,0.6,0.1,0.6S55.9,285.5,55.8,285.9z"/>
<path class="st0" d="M50,280.3l-1.5,0.3l-0.3,0l-0.1-0.2l-0.1-0.7l-0.7-0.2l-0.4-0.6l0.3-0.2l0.3-0.1c0,0,0.7,0.6,0.8,0.6
	c0.1,0,0.4-0.2,0.4-0.2h0.4l0.2,0.2l0.8,0.3l0,0.2L50,280.3z"/>
<polygon class="st0" points="47.5,280.6 47.5,281 47,280.9 47.2,280.7 "/>
<polygon class="st0" points="46.3,279.7 45.8,279.9 45.6,279.4 45.3,279.1 45.4,278.9 46.1,279.1 46.5,279.3 "/>
<polygon class="st0" points="45.6,277.5 45.5,277.7 44.4,277.5 44.1,278 45.5,278.1 46,278.3 46.3,278.3 46.9,277.9 46.9,277.7 
	46.2,277.7 "/>
<polygon class="st0" points="42.6,277 41.8,277.4 41,277 40,277.2 40,276.7 40,276.2 40,275.9 39.7,276 40.4,276 40.9,275 41.2,275 
	41.7,276.3 "/>
<polygon class="st0" points="34.9,273 34.8,273.8 34.3,274.2 33.5,273.6 33.2,273 33,273 32.8,273.1 33.1,272.6 33.5,272.3 
	34.2,272.7 35,272.7 35,272.4 35.1,272.7 "/>
<polygon class="st0" points="31.6,273.7 31.4,274.1 31,274.2 30.7,274.8 30.7,274.5 30.7,274 "/>
</svg>
