<?xml version="1.0" encoding="utf-8"?>
<!-- Generator: Adobe Illustrator 20.1.0, SVG Export Plug-In . SVG Version: 6.00 Build 0)  -->
<!DOCTYPE svg PUBLIC "-//W3C//DTD SVG 1.1//EN" "http://www.w3.org/Graphics/SVG/1.1/DTD/svg11.dtd">
<svg version="1.1" id="Layer_1" xmlns="http://www.w3.org/2000/svg" xmlns:xlink="http://www.w3.org/1999/xlink" x="0px" y="0px"
	 viewBox="0 0 595.3 841.9" style="enable-background:new 0 0 595.3 841.9;" xml:space="preserve">
<style type="text/css">
	.st0{fill:#EC2228;}
	.st1{fill:#ED1D25;}
</style>
<path class="st0" d="M208.1,237.1h-1c-1.2-4.3-4.5-3.7-8-2v1l4-1l4,2l-7,3c-3,6.2-11.7,10.3-10,18l-20,10c-2.2,6.9-11.9,6.3-16,11.6
	c-2.7,3.4-1.9,8.1,2,9.4v15c9.1,1.4,22.4,3.9,26-8c10.2,5.5,13.9,20.1,18,30l6-1l9-7.3l4-14.4l9-10.2l-10-5c2.7-12.5,8.6-15.9,19-23
	c-1.3-11.7,10.2-10.2,18-10l1,5c-4.1,1.2-6.6,4.1-9.9,6.6c-2.5,1.9-6.6,3.5-8,6.5c-4.2,9,6.5,18.3,14.1,20.1
	c12.2,2.8,25-9.6,36.8,1.8c-5.4-2.5-11.1-1-13,5h-1c-2.9-4.8-16.5-7.6-19.8-1.5c-2.1,4,6.5,7.1,4.3,11.9c-2.4,5.3-9.8-3.1-14.1,0.3
	c-4.9,3.8-0.7,8.6-2.1,13.2c-1.4,4.7-8,8.5-12.3,10.1l-1-4c-7.8,0.3-14.3,4.7-22,5.2c-6.1,0.4-11.3-5.9-16,0.8l-12-7
	c0.6-4.3,2.1-7,6-9l-3-11l-11.1,7.1l2.1,22.9h-1c-2.3-1.7-4-2.3-6,0l-15,4l-2,12c-9.1,0.1-18.4,5.4-20,15l-15-3l2,7l-18,1l2,2l-1,3
	c11.7,3.6,23,10.9,19,25c-0.9,3.1-1.9,6.9-5.1,8.3c-11.1,4.7-33.6-9.2-42.1,2.3c-2.2,2.9,1.5,11.8,1.5,15.6c0,4.9-4.4,8.8-4.9,13.8
	c-0.5,5.2,3.4,9.1,2.7,15c3.4,0.8,7.8-0.9,10.9,0.3c3,1.2,3.2,5.4,6.3,6.4c2.9,1,6.9-1.9,9.9-2.4c8.3-1.3,23.1-0.7,24-12.3l8-3v-3
	c-9.5-10.6,11.1-15.7,15-21.5c2.4-3.7-0.4-8.6,5.1-10.4c5-1.7,9,3.2,13.9,2.2c4.8-1,11.2-4.2,12-9.3c10.1,1,12.1,7.7,18,14.5
	c4.9,5.6,17.6,13,25,13.5l6.1,10.9l-2.1,8.1l1,1c4.8-2.5,12.3-10.5,4-13l2-7l5,5l4-1c-4.4-8.5-16.4-11.8-23.8-16.2
	c-6.3-3.8-13.7-17.2-15.2-23.8l8-3c0.2,5.6,2.2,7.9,8,7c-0.2,11.4,19.2,15.5,26.7,22c4.3,3.7,1.4,11.2,4.2,16.1
	c5.1,8.8,19.7,13.9,29.1,16l-3-5v-1h3c-2.1-3.8-4.8-4.5-9-5l-2-12l5,5h1c6.6-9.3,9.1-3.2,18-4c5.2-0.4,9.5-3,15-3v-3
	c-12.7-2.6-9.8-24.1,0-27l7-13c5.5,4.1,9.3,4.5,16,4l-7,5v1c4.1,1.5,9,8.5,12,4l4,1l1-3h8v-1l-14-6l21-8c-0.2,5.4-0.7,10.4-5,14
	l21,15.1l10-0.5l8.2,6.3l7.8,0.8l30,7.3c-3-5.9-11.8-21-18-22c4.1-9.9,16.5-20.8,28-19l-12-27c6-1.4,17.9,0,14-9
	c9.4-4.1,28.4,11.8,33.1,0.8c1.5-3.4,2-22.5-3.2-22.6c-5.6-0.2-17.6,12.1-19.7-3.1c-0.9-6.4,10.2-4.9,10.5-11.1
	c0.4-6.1-5.7-10.4-7.2-15.9c-2.9-10.6-4.2-22.2-6.8-33c-1-4.3-3.9-8.7-4.4-13c-1-8,14.6-9,9.2-17.9c-4.8-7.9-20.7-6.3-28.6-8.1l-1,3
	l4,2c-3,3.7-4.9,3.5-8,0c-5,2.8-15.2,5.3-21,4.9c-2.8-0.2-3.9-3.4-7.1-3.2c-9.8,0.6-17.4,7.9-26,11.2c-3.9,1.5-7.1-0.6-8.9-3.8h5
	c-2.1-6.7-9.9-6.9-16-7l3,10l6,1l-1,7l-40-18.7l-25-6l-15-2.3h7v-2h-13c-1.1-4.9-5-1.7-8,0v-3h-1h-1l-5,5l2-4
	c-5.2-1.4-6.4,1.8-11,3.1C229.5,227.6,211.3,226.2,208.1,237.1z"/>
<path class="st1" d="M247.5,297.8c1.8,5.3,6.6,2.7,9-1L247.5,297.8 M92.5,307.8h4l2,9l5,5l-3,3l9-2c0.4,6,4.7,13-5,11l-5,13l11,1v3
	c-5.9,0.2-10.3,2.6-13,8c8.6-1,16.5-4.8,25-5.9c5.6-0.8,9.8,0.5,14-4.1l-3-1c3.7-3.2,6.4-4.9,5-10c-7.3-0.8-13.3-14.8-18.4-19.7
	c-2.5-2.4-6.6-2.4-9.6-4.3c6.3-2.6,8-5.3,8-12l-10,2l3-6l-16,5l1-5C89.8,298.9,91.3,302.6,92.5,307.8z"/>
<path class="st1" d="M96.5,318.8l1,1L96.5,318.8 M79.5,324.8l3,1v2l-10-1l3,3v2l-3,3l5,1l-9,8v1c8.6,6.2,14.9-1.9,24-1
	c2.2-4.2,5.8-14.3,4.8-18.9C95.7,317.5,82.7,321.4,79.5,324.8z"/>
</svg>
