<?xml version="1.0" encoding="utf-8"?>
<!-- Generator: Adobe Illustrator 20.1.0, SVG Export Plug-In . SVG Version: 6.00 Build 0)  -->
<!DOCTYPE svg PUBLIC "-//W3C//DTD SVG 1.1//EN" "http://www.w3.org/Graphics/SVG/1.1/DTD/svg11.dtd">
<svg version="1.1" id="Layer_1" xmlns="http://www.w3.org/2000/svg" xmlns:xlink="http://www.w3.org/1999/xlink" x="0px" y="0px"
	 viewBox="0 0 640 480" style="enable-background:new 0 0 640 480;" xml:space="preserve">
<style type="text/css">
	.st0{fill:#FFFFFF;}
</style>
<title>uk, map, vantage</title>
<g id="svg_1">
	<path id="svg_2" class="st0" d="M202.4,459.9c0,0,15.4,1.2,14.6,10.6c0,0,6.7-4.3,8.3-10.2s9.5,0,9.5,0s3.2-5.9,3.5-7.1
		s32.3,15.4,33.9,15.8s13-23.7,13-23.7s44.5,13.4,46.5,13s1.2-7.1,1.2-7.1l22.5,1.2l-2.4-9.5l19.7,14.2l22.9-1.6l11.4,7.5l22.1-9.5
		l2.4,3.2l6.3-7.1l11-1.2l3.2-16.6l-18.1,2.8l-2.4-9.5c0,0-12.6-0.4-11.8-1.6s16.6-1.2,16.6-1.2l4.7-9.1c0,0-6.7-2-7.1-2.4
		s11.4,0,11.4,0l5.5-3.5l-4.3-5.9l7.9,2c0,0,23.3-22.1,17.3-37.1s-27.6-22.9-37.4-22.1s-8,9.1-8,9.1s-6.6-0.8-8.7-6.3
		c0,0,1.6-5,8.7-7.6s-0.8-19.2-4.2-25.5s0.3-4.2,3.7-5.8s-3.9-12.4-7.6-18.9s1.8-7.2,4.7-10s-5.5-8.3-9.7-11.6s-5.7-18.3-19.7-18.9
		s-7.9-45.3-5.9-52.2s-7.3-0.8-12-19.4s-13.1-11.8-17.6-12.4s-17.3,5-19.4-0.3s7.9-4.2,11.6-3.7s2.4-1.6,4.2-4.5s13.1,9.5,12.6-0.5
		s-6.6-9.5-6.6-9.5l2.9-3.4c0,0,29.7-26.8,30-38.1s9.2-6.6,9.2-14.5S372.8,77.5,368,78.3s-10.8-6.6-14.2-4.2s-9.5,6.3-11.6,5
		s-13.1,2.1-12.9-1.6s5.3-8.1,7.6-6s5,0.8,5,0.8s4.7-4.2,5.3-5.5s-3.7-1.6-5.8-1.6s-2.6-1.3-1.8-2.1s30.7-21,31.5-22.3
		s5.8-7.9,6-11.8s-37.1-5.5-37.6-3.4s-3.9,5.5-3.9,5.5s-0.5-4.5-1.6-7.4s-10.2-12.9-11.8-6.6s-2.6,10.2-4.2,10.2s-11,3.7,2.6,9.5
		c0,0-1.8,5.8-6.8,1.6s-5.8-5.3-4.7,0.5l0.3,6l-5.8-3.9c0,0-3.7,3.8,0.6,7.4c0,0,4.7,3,2.2,4.7s-3.5,0.4-6.7-3s-4.1,3-2.4,6.7
		s-1.8,2.2-3.2,0s-3.5-6.7-5.1-3.7s2,13,5.1,16.9s1.4,16.6,1,17.1s-9.9-1.8-8.9,1.4s10.4,5.3,7.3,8.1s-7.1,3.4-10.1,0.2
		s-11.2,2.4-6.3,8.1s1.8,5.9-2.2,4.1s-9.7-3.5-9.3,0.4s0.6,4.5,0.6,4.5s-6.7-0.8-5.3,2.4s7.1,1.2,8.3,3.7s-2.2,7.7-5.7,7.9
		c-3.5,0.2-10.8-1-6.7,3.5c4.1,4.5,17.9,1.8,21.3-3.2c3.4-4.9,4.5-6.5,5.5-7.3s4.9-3.7,4.9-3.7l5.9-3.3l0.8,3.2l-8.7,5.9L284,129
		l-5.7,5.5c0.4,3.9-0.8,12.6-0.8,12.6l-8.5,5.1c0,0,5.3,0.6,7.1-0.6s-5.7,6.3-5.7,6.3l3.5,3.5c0,0-6.7,3.5-7.5,9.9
		s-5.5,11.4-6.7,12.2s-2,4.7,1.6,4.9s7.9-2.4,7.9-2.4l2.4-6.9l1.4-4.1l2.2-7.3l5.1-3.4l0.6-6.3l-1.6-5.1l17.1-10.2
		c0,0-0.6,9.1,1.2,13.2s8.7,5.3,8.7,5.3l-10.6-1.4c0,0-3.7,10.8-3.7,11.8s5.5,11.4,5.5,11.4l-8.7,8.9l-8.3,11.8l-0.8,6.9
		c0,0-4.9,0.8-5.5,1s9.1,7.7,9.1,7.7l2.6-3.4l8.9,13l3.2-4.1c0,0-0.6-8.3-0.6-8.7s8.7,10.8,8.7,10.8l5.9-1.2c0,0,7.1-6.7,9.9-3.5
		s6.1-3.4,6.1-3.4l5.1,1.8l5.7,0.2l-1.2,2.8c0,0-9.5-1.6-10.4,2s-10.4,15-10.4,15s3,3.5,4.7,9.1s-1,9.3-1,9.3l2.2,2l3.9-2l-0.4,7.3
		v1l4.5,1.4l6.1-7.1l1.4,3.9l-4.5,5.9l1.8,2.8l-1,2.8l-7.7-1.2l-1.6,5.7l5.5,4.1l-0.2,2.8l-7.9,5.7l1.2,6.7l10.2,7.3l-3.5,3.9
		l-7.3-9.7l-3.2,3l3,4.5l-3.4,3.7l-2.6-7.1c0,0-6.1-3-7.9-0.4s-4.9,3.4-6.7,1.2s-3.9-5.1-3.9-5.1s-3.4,3.4-3.5,3.9s-6.9,0.4-6.9,0.4
		l2.4-5.1l-9.5-10.1l-5.9,5.5l5.7,11.4l-7.5,9.1c0,0-7.7,4.9-7.7,4.1s3.2,7.3,3.2,7.3l10.8-7.9l6.3,8.1l0.2,15l-18.1,15.8l-8.7-1
		l-5.9,7.3l-16-2.6l-1.4,14.4l3.9,2.2l3.7,6.5l8.7,0.6l4.7-5.3l8.9,0.2l1.4,13.2l6.5-0.6l3.4-3.2l4.5,1.4l3.4,10.6l7.9,6.7l6.5-1
		l7.3-7.7l5.1,1.2l3.7,2l-8.3,6.7l-3,6.7c0,0,0.4,1-0.2,1s-10.2,2.2-10.2,2.2l-13.4-8.5c0,0-13.4,0.8-13.8,0.2s-6.1,10.1-6.1,10.1
		h-4.7l-2.8-5.1l-5.1,4.9l2.4,7.9l-12.2,9.1c0,0-3-1.2-3.7-1.2s-3.5,6.1-3.5,6.1s-6.5,3.4-6.3,3s-2.2,5.7-2.2,5.7l-14.4,0.2
		l-5.9,0.8L202.4,459.9z"/>
	<path id="svg_3" class="st0" d="M179.5,214.9l16.6,21.1l9.3-0.2l1.8-9.7l8.5-1.8l1.2,10.4l6.5,4.9l-2.8,5.5l7.5,2.2l2.2-3.7
		l7.1,5.1l4.7-0.6l4.3-8.1l12.6-1l1.2-17.5l-8.5,1.4l-4.1-1.6l9.3-8.1l-0.6-4.3l-5.3-2.6l-1.2-6.3l1.2-8.1l-10.1-6.1h-6.7l-2.8,2.6
		l-7.1-2.4l-3.7,7.1l-5.3-1c0,0-3.4-2.2-3.9-2.2s-7.9,13.8-7.9,13.8l-9.9-0.8l3.4,6.7L179.5,214.9z"/>
</g>
</svg>
