<?xml version="1.0" encoding="utf-8"?>
<!-- Generator: Adobe Illustrator 20.1.0, SVG Export Plug-In . SVG Version: 6.00 Build 0)  -->
<!DOCTYPE svg PUBLIC "-//W3C//DTD SVG 1.1//EN" "http://www.w3.org/Graphics/SVG/1.1/DTD/svg11.dtd">
<svg version="1.1" id="Layer_1" xmlns="http://www.w3.org/2000/svg" xmlns:xlink="http://www.w3.org/1999/xlink" x="0px" y="0px"
	 viewBox="0 0 841.9 595.3" style="enable-background:new 0 0 841.9 595.3;" xml:space="preserve">
<style type="text/css">
	.st0{display:none;}
	.st1{display:inline;}
	.st2{fill:#F6F7D7;}
</style>
<g id="Layer_2" class="st0">
	<g id="jtqtkk.tif" class="st1">
		
			<image style="overflow:visible;enable-background:new    ;" width="1502" height="1415" id="Layer_0_1_" xlink:href="E8FDDCD15ED9478B.png"  transform="matrix(0.5409 0 0 0.5408 14.7226 -1.464844e-05)">
		</image>
	</g>
</g>
<g id="Map">
	<path class="st2" d="M765.8,386.6c0.3,2.5,1.3,7.2-3.2,10.2c-0.2,0.7-0.6,1.5-1.1,2.3c-0.4,0.8-1,1.6-1.6,2.4s-1.3,1.7-2.2,2.5
		c-0.7,0.7-1.5,1.4-2.3,2.1c-1,0.8-2,1.5-3.2,2.2c-0.6,0.8-1.6,2.8-3,5c-1.1,1.7-2.4,3.4-4,4.6c-1.6,1.3-3.5,1.9-5.5,1.3
		c-2.4,0.9-6,4-6.8,2.6s-1-2.6-1.8-1.5s-2.8,3.1-5.9,0.6c-2.2-0.5-4.4-1-4-3.8s1.8-3.5,0-3.8s-0.7-1-0.7-1.9s0-0.6-1.8-0.2
		s1.1-1.8,1.4-2.9c0.2-1.1,0.8-2.6-1.9-0.5s-3.9,4.5-3.9-0.8c-0.9-2.1-2-5.2-6.2-5.1s-10.4,0-21.1,5.1c-4.6-0.3-8.3-0.2-10.9,1.4
		c-3.2,1.8-6.8,2.5-10.3,1c-1.5-1.1-0.3-3.1,1.2-4c0-0.2,1-2.9,1-3.2c-0.2-3-1.8-9,0.4-14.6c1.1-2.8-0.7-5.9-0.1-8.3
		c0-0.2,0.1-0.3,0.1-0.4c0.1-0.4,0.2-0.8,0.3-1.1l0,0c0.1-0.2,0.1-0.3,0.2-0.5c0.7-1.6,1.8-3,3-4c0.6-0.6,1.3-1.1,2-1.5l0.1-0.1
		c0.2-0.1,0.5-0.2,0.8-0.3c4.1-1.3,15.2-3.8,17.1-8.2c0.2-1.5,0.6-2.9,1.1-4.1c0.5-1.1,1.9-1.5,2.9-0.7c0.4,0.4,0.8,0.4,1.1-0.4
		c0.7-2.2,2.7-3,2.7-3s0.4,2.7,0.7,1.1s1.8-2.7,1.8-2.7l1.6-2.6c0,0,4.5-3.1,5.4-0.7c1.1,2.2,2.9,3.8,3.8,2.4
		c-0.1-1.6,1.9-3.3,2.7-4.8s-0.1-2.6,2.6-2.7c2.7-0.1,3.5-0.3,3.5-0.3l1.8-3c0,0,10.2,0.8,9.6,2.4c-0.5,1.6-6.4,7.9-1.2,10.8
		c5.2,2.8,9.2,7.5,10.7,1c0.9-3.1,2.9-11.7,4.5-15.1c0.2-0.5,0.4-0.9,0.6-1.2c0,0,0,0,0.1-0.1c0.4-0.5,0.7-0.3,1,0.8
		c0.1,0.5,0.2,1.2,0.2,2l0,0c0,0.3,0.2,7.2,1.6,7.7c1.4,0.6,4.4-0.6,3.4,8c0.6,0.4-1,6.4,2.2,6.5c1.1,0.1,1.5,2,1.5,2
		s2.6,0.8,2.9,4.1c0.5,2.5,0.8,2.6,1.8,2.5c1,0.1,1,3.5,1.4,4.1C764.8,378.5,768.1,382.1,765.8,386.6z"/>
	<path class="st2" d="M735.4,428.6c-0.8,1-1.7,2.9-2.5,4.3c-0.6,1.1-1.2,1.9-1.7,2l0,0c-1.1,0.1-2.2,0-2.2,0s-3.1,2.6-3.7,0
		c-0.5-2.6,0.8-2.9,0.8-2.9l0.9-4.3v-0.2c0,0,0.1,0,0.2-0.1c0.5-0.2,2-0.5,2.7,1.3C731.3,428.9,736.2,426.8,735.4,428.6z"/>
	<path class="st2" d="M794.4,431.7L794.4,431.7c-0.3,0.4-0.7,0.8-1.1,1.2c-1.9,1.8-4.7,3.2-4.9,3.5c-0.3,0.7-1.1,0-3.6,0
		c-2.4,3-10.2,7.8-11.2,8.8c-0.9,1-3-0.3-4.2-1.2c-0.5,0-0.9-0.2-1.2-0.3c-0.6-0.3-0.8-0.8-0.8-0.8s1.7-1.2,3.5-2.3
		c1.4-0.9,2.8-1.7,3.4-1.9c2.4-3.6,9.8-4.3,11.3-4.5s3.7-4.1,5.9-6c2.2-2,1.8-0.3,1.5,0.7s1.6,0,1.6,0
		C795.2,429.8,795,430.8,794.4,431.7z"/>
	<path class="st2" d="M812.7,419.8L812.7,419.8L812.7,419.8c-0.1,0.1-0.4,0.5-0.9,1.1l0,0c-1.1,1.2-3.1,2.9-5.6,3.2
		c-1.6,1.5-5.5,5.7-5.5,5.7H799c-0.9,0-1.5-1-0.9-1.8c0.2-0.3,0.3-0.7,0.3-1.2c0-1.7-1.2-3.8-0.3-3.9l0,0c0.5,0,7.2-0.2,6.4-12.1
		c0-0.1,0-0.1,0-0.2c0,0,0.1,0,0.2,0c1.2-0.2,2.8,0,2.5,2.1c-0.3,2.2-0.7,2.2-0.7,2.9c0,0.7,1,1.5,1.4,0.9c0.3-0.6,0.8-0.1,0.8-0.1
		s-1.4,4.6,0.2,3.8C810.4,419.3,812.2,417.6,812.7,419.8z"/>
	<path class="st2" d="M768.1,338.8c0.1,0.4-0.3,0.7-0.7,0.6c-0.1,0-0.1-0.1-0.2-0.1c-0.5-0.5-1.3-0.8-2.4-0.7
		c-2.7,0.4-3.3-0.2-4.8-3c-1.4-2.8-5.6-6.6-7.4-4.4c-0.8,1.3-2,9-7.9,3.5c-2.1-1.8-3.1-2.7-4-2.2c-0.9,0.4-1.3,1.5-1.3,1.5l-1.7-0.1
		c-1.1-0.1-1.8-1.2-1.3-2.2c0.4-0.8,1.4-1.5,3.5-1.5c-1.7-3.4-1.8-8.6-8.6-8.2c-2.7-0.8-3-2.8-4.3-1.7c-0.5,0.4-1.1,0.2-1.7-0.3
		c-0.6-0.5-0.7-1.4-0.4-2c0.1-0.3,0.3-0.5,0.6-0.7c0.2-0.1,0.3-0.2,0.5-0.2l1.6-0.4c0.7-0.4,1.2,0.8,1.9,1.1
		c0.9,0.4,2.2,0.7,3.5-0.7c2.2-2.2,4.9-7.1,17.5,1.5c5.5,2.6,7.1,2.9,7.9,7c2.1,0.2,10.5,1.4,2.9,3.6c0.6,1.6,2.9,4.1,2.9,4.1v2.2
		c2.5,0.3,3.6,1.5,3.9,3.2C768.1,338.7,768.1,338.7,768.1,338.8z"/>
	<path class="st2" d="M728.8,315.1l-4.9,0.4c0,0-4-0.9-2.9-2.4c1-1.5,3.6-5.4,7.8-1.7C729,313.4,728.8,315.1,728.8,315.1z"/>
	<path class="st2" d="M677.6,332.7l-0.1,0.6l-0.2,1c0,0-0.2,0-0.7,0c-2.2,0-8.9,0-9.9-0.6c-1.2-0.7-2.2-2.7-3.6-2.4
		c-1.4,0.3-5-0.4-5.6-1s-2.5-1-2.5-1s-0.4-0.6-0.1-1.3c0.1-0.2,0.3-0.5,0.6-0.7c0.5-0.4,1.3-0.7,2.7-1c2.7,0.3,4.6,2.2,5.8,2.3
		c1.3,0.3,4.7-1.5,6-0.7s3.2,3.5,5.2,3.1C676.6,331.1,678.1,331.2,677.6,332.7z"/>
	<path class="st2" d="M689.8,294c-0.2,0.8-1.8,0.9-1.8,0.9s0.3,1,1.4,1.2c0,0.5-0.1,0.8-0.1,0.8s-2.5-0.4-2.9,0.6
		c-0.3,1-1.7,2.3,0.7,4.2c0.6,0.5,0.3,1.6,0.3,1.6s-1.4,1.4,1.8,2.2c0.3,0.7,0.2,2.5-2.4,1.5c-0.5,0.8-1,2.7-0.9,3.9
		c-0.1,0.9-0.9,1.7-1.7,1.8c-0.8,0.1-2.2,0.9-1.8,2c0.9,0.3,1.2,0.9,1,1.6s-0.8,0.5-1.1,1c-0.1,0.1-0.2,0.7-0.5,1.3
		c-0.5,1.6-1.3,3.8-2.4,2.7c0,0-0.1-0.1-0.2-0.2c0,0-1.7-2.9-2.6-2.2c-0.5,0.7-1.5,0.4-1.5,0.4s-0.2-1.4-1.9-0.5s-2.4-0.3-2.4-0.3
		s-3.8,0.7-3.9-2.7c-0.1-3.3-2-4.8-2.9-4.8c0-1-0.5-3.8-0.3-5.7c0.1-1.3,0.5-2.3,1.7-1.9c0.4,0.1,1,0.5,1.7,1
		c1.4,0.5,2.1-0.1,2.1-1.1s0.6-2.6,3.6-2.6c0.8-0.9,3.2-2.3,3.8-4.7c0.6-1,2-1.4,2.6-1.4s2.6-6.6,5.1-5.2c1.4,1.7,1.9,3.6,2.9,3.6
		C688.7,293.2,690.1,293.2,689.8,294z"/>
	<path class="st2" d="M656.8,323.5c0,1.2-0.1,2-0.7,2h-4.9c0,0-8.1-7.5-10.2-15.8c-2.2-1.4-3.5-1-3.4-4.4c-1.7-2.5-8.3-7.5-8.9-11.3
		c-0.1-0.5-0.1-0.9,0.1-1.3c0.3,0.1,0.6,0.2,0.9,0.2c2.5,0.6,3.9,0.8,5,1.4c1.2,0.6,8.5,9.6,8.5,9.6s3.2-0.4,4.8,3.4
		c4,1,2.1,0.5,1.8,2.4c0.5,1.5,0.6,2.5,2.8,2.8c0.2,2.1,0.4,3.2,3,3.6c0.8,2.1,1,0,0.8,2.1C656.1,318.3,656.8,321.4,656.8,323.5z"/>
	<path class="st2" d="M741.1,123c-1.2,0.3-2.2,0.9-2.6,1.8c-1.1,2.4-0.8,5.6-0.4,8c0.4,1.9-0.8,3.7-2.6,4.2l-3.2,0.8
		c-2.6,0.7-8.1-1-6.3,1l4.9,5.3l3,13.6l0.1,0.4c0.2,0.8-0.7,1.4-1.4,1.1c-0.1,0-0.1-0.1-0.2-0.1L722,151c-2.4-1.9-3.5-5.1-2.7-8.1
		c1.2-4.7,2.6-11.1,0.9-11.1c-1.2,0-2.2,0.9-2.9,1.8c-0.8,1.2-2.4,1.7-3.8,1.1l-1.2-0.5c-2.2-0.6-4.5,0.8-5,3.1
		c-0.1,0.6-0.5,1.2-0.9,1.6c-0.5,0.4-1.1,0.6-1.7,0.6c-5.9,0-21.8,0.2-21.8,2.4c0,0.9-0.8,2.5-1.5,4.2c-1.3,3.7-2,7.9,6.8,6.8
		c0.4,0,0.8,0.1,1.3,0.2c3.3,0.8,7.8,4.4,10.7,9.2c1.6,2.7,2.8,5.8,2.8,9c-0.2,4.7-1.4,8.5-2.4,10.9c-0.7,1.7-2.2,2.9-4,3.1
		c-1.5,0.2-2.7,0.9-3.7,1.9s-1.5,2.3-1.6,3.8l-2,4l6.4,7.4l1.5,1.7c0.9,1,0.7,2.6-0.4,3.3l-3.6,2.5c-0.4,0.3-0.8,0.1-1-0.2
		c-0.3-0.6-0.6-1.2-1-2c-1.7-3.6-4-9-4.8-9.3c-1.7-0.7-2.7-4-2.7-4l-4.9,1.5c-2.1,0.6-4.3-0.5-5-2.6c-0.2-0.5-0.6-0.8-1.1-0.8
		c-0.2,0-0.5,0.1-0.7,0.2l-3.7,2.8c-1.2,0.9-1,2.8,0.3,3.5c2.3,1.3,5.7,2.7,8.2,2.2c0.9-0.2,1.6,0.7,1.4,1.5c-0.7,2.3-3,4.9-3,4.9
		l7.3,7.7v6.3h2.3c0,0,2,6.1-0.2,9.1c-1,1.4-1.2,3.1-1,4.8c0.1,0.7,0.2,1.1,0.2,1.1l-3.5,3.3c-3,2.8-6.6,4.8-10.6,5.8l-5.7,3.9
		c0,0-5.4-0.7-9.1-0.2c-2,0.3-3.5,0.9-3.1,2.2c0.1,0.3,0.2,0.6,0.4,1c1.5,3.3,6.8,10.4,9.7,14.3c1.4,1.8,2.1,4,2.1,6.3
		c0,1.1-0.3,2-0.9,2.9c-0.6,0.8-1.4,1.5-2.3,1.9l-4,1.7c-0.7,1.8-2.3,2.7-3.9,2.7c-1.1,0-2.2-0.4-3-1.3c-1.1-5.4-4.8-9.3-11-11.8
		l0.3,9.7l3.6,10.5l5.7,3.6l1,6.9l0.8,1.6l1.9,3.7l0.2,0.4h-1.8c0,0-1-0.7-2.4-1.7c-2.5-1.9-6.1-4.9-6.3-6.9c-0.4-3-1.1-9-5.4-12.6
		c-0.2-2.6-0.7-7.4-1.5-11.9c-1-6.2-2.6-12-4.6-11.7c-3,1.9-9.3,6.3-10.7-7.9c-4.2-4.7-7-10.3-7-10.3s-7.5,0-7.7,4.7
		c-2.3,3.7-12.4,16.1-15.4,16.8c-0.9,8.9,0.9,21.9-8.2,22.2c-2.8-5.8-14-31.3-13.5-35c0.4-3.1-0.4-8.7-1.6-5.4
		c-0.7,1.8-2.6,2.8-4.4,2.1h-0.1c0,0-0.1,0-0.1-0.1h-0.1c-1.6-0.7-2.2-2.7-1.2-4.1c0.5-0.8,0.9-1.4,0.2-1c-1.4,0.9-10.5-7-10.5-7
		s-20.3,1.9-22.2-1.9c-0.9-2.6-2.2-1.9-3.9-1.5s-9.3-1.1-13.2-5.3c-3.9-4.2-3.9-4.2-3.9-4.2l-3.9,2c0,0,6.4,5.5,7.5,8.7
		s7.1,12,15.1,1.3c0.9,3,0.9,5.7,4.3,5.5c2.8,1.5,8.1,3.2,6.2,5.1c-1.9,1.9-3.4,10-8.1,12c-4.7,2-12.3,8.7-12.3,8.7s-19,10.3-21,4.7
		c-2-9-4.3-13-7.7-16.3c-3.3-3.3-4-12-4-12s-12.7-16-15.3-16.3c-2-4.3-1.6-6.5-1.6-6.5s7.5-1.4,6.2-16c-2.1,0.5-3,0.2-3.7,1.4
		c-0.7,1.1-7.1,0.5-8.5-1.4c-0.5,1.6-5.7,2.2-8-1c-1.8-5.5-2.2-7-2.7-7.5s0-1.7,0-1.7l5.5-0.8c0,0,1.8-2.3-2.3-1.2
		c-4.2,1.2-13-2-12.3,1.5c1,3,0.2,5.3,2.8,6.3c0,0.2,0,0.3,0,0.5c0,0.6-0.2,1.2-0.5,1.8c-0.1,0.1-0.1,0.3-0.2,0.6
		c-0.3,1.3-2,5-5.8-1.5c0.5-2.7,0.7-3.2-3.3-7.2c-1.8-1.5-1.8-0.8-1.5-3.2c-0.8-2.3-18.2-17-16.3-10.8c0.3,2.7,6.3,9.3,14.3,13.5
		c1.2,1.7-0.2,1.6-0.2,1.6s-3.8-2.3-3.7-1.4c0.2,0.9,2.8,2.3,2.1,3.6c-0.7,1.2-4,4.8-4,4.8s-1-0.4-0.7-3.9c-0.3-3.5-0.6-4.3-5.2-7.2
		c-4.7-2.8-6.1-2.2-7.6-8.7c-1.3-1.2-2.7-1.5-4.5,0.3s-3.8,4.5-6.5,2.7c-2-0.8-5.2-2.3-5,3.5c-0.5,1.3-1.3,2.2-3.3,2.7
		s-4.7,2.2-4.5,5.5c0.2,1.5-2.8,6-5.8,6.7s-4.5-1.2-7.8,1.5c-2.2-0.8-1.5-3-6.5-2.3c-1.3-2.7-2-4-3-5.2c0.7-2.2,3.5-7,2.5-11.5
		c1-1.2,2-2.5,5.2-2.2s12.2,1.8,13-1.5s3.3-8-5.5-10.8c-2-0.5-3.8-3,3-2.7c0.8-0.5,1.7-0.2,2.2-2.8c1.8,1,6,0.8,7.5-1.2
		c0.5-1.8,7.8-5.5,7.3-6.3s-1.2-1.5,0.3-1.3s3.3-2.7,8.3-1c-1.2-4.5-3.8-8.5,0.3-9.8c1.7-0.8,4.1-0.5,3.9,1.4
		c-0.2,2.3-3.6,5.2,1.8,6.2c3.2-0.1,5-0.6,5.3,0.3c0.3,0.9,8.9-1.8,8.9-1.8s1.1,2.4,2.4,1.1c1.4-1.4,3.2-1.4,3.2-1.4
		s0.1-6.4,2.4-7.4c2.1,0.9,5.9,2.4,2.3-2.6c0-0.8,2.3-2.1,6.5-2.3c1.8-0.2,5.1-2.6-0.5-1.7c-5.6,0.9-10.8,1.4-10.5-3.9
		c0.3-5.3,5.3-6.4,5-8.2c-0.6-1.7-3.8-3.3-5.3,0s-4.1,3.8-5.5,4.7s-4.8,2.6,0,7.7c1.2,1.2-1.2,3.2-4.5,3.8c3,5.8-5.4,12.6-7.3,6.7
		c-1.3-4.3-3.3-11.5-6.1-8c0,0-8.1,3.7-8.8,0.4c-0.4-1.6-0.6-3.7-0.8-5.4c-0.2-1.8-0.3-3.2-0.3-3.2s2.3-1.9,6-3.4
		c1.3-0.5,2.8-1,4.3-1.3c1.5-1.3,12.5-9.9,14.3-14.1c2.8-0.8,3.5-0.6,5.4,0c1.9-1.3,1.3-2.6,3.9-2.6s14.8-0.2,14.6,1.3
		c-1.1,0.6-2.4,2.1,0.2,2.1s20.5,10.1,5.5,6.8c3.4,2.1,7.1,9.6,13.3,4.3c1.2-1,4-2.9,8-4.9c0.7-0.4-2.8-4.5-2-4.2
		c13,4.5,30-6.2,46.6-0.5c-5.1-2.9-8.3-6.4-6.1-8s9.3-2.6,9.9,0c0.4,1.6,2.7,2.8,4.2,4.4c0.9,1,1.5,2.1,1,3.6
		c0.5,6.9-5.7,4.1-5.5,5.2c0.5,2.3,7.7,0,7.8-0.6l-0.4-5.2l3.2,1.1c0.8,0.3,1.6,0,2-0.7l0.9-1.4l-4.3-0.3c-1.6-0.1-2.9-1.4-3-3
		l-0.1-0.9c-0.6-1.3,0.4-2.7,1.8-2.5c0,0,5.9-7.4,13.2-7.8c7.3-0.3,18.3-1.2,18.3-1.2s-3.5-2-0.7-2.8c1.9-0.6,13.4,1.7,20.8,3.3
		c2.3,0.5,2.8,3.5,0.8,4.7c-0.4,0.2-0.5,0.6-0.5,1c0,0.6,0.5,1.2,1.2,1.2l33.3-1.1c2,0,4,0.6,5.8,1.6l2.6,1.6
		c3.1,1.9,6.9,2.4,10.4,1.4l5.8-1.8c2-0.6,4.1-0.8,6.2-0.4l21.8,3.3c3-2.3,5.7-2.2,8.1,1.2h0.3l29.4,4.5c0.7,0.1,1.1-0.7,0.6-1.3
		c-0.4-0.4-0.5-0.9-0.5-1.3c0-1.1,1-2.2,2.3-2c8,1.3,22.8,3.9,30.3,7.1C743.3,119.4,743.2,122.4,741.1,123z"/>
	<path class="st2" d="M398.5,296.1c0.2,0.4,0.3,0.6,0.3,0.7C398.7,296.7,398.2,296.4,398.5,296.1z"/>
	<path class="st2" d="M506.5,297.8c-2.7,4-4,6.3-4,6.3s-3-2-5,1.4s-6,11.7-10,13.7c-1,2.3-4.3,7.4-2,11.3c2.3,4-1.7,7.2,2.3,9.3
		c0.7,2.4,2,9.7,0.3,12.7s-3.7,8.3-9.7,8.7c-3.3,3.7-5.7,7-5.3,10.7c0.7,3.7,2.6,10.4-5.7,12.1c0.4,4.2,0,7.3,0,7.3s-5.3,4.7-6.3,7
		c-0.2,0.4-0.6,1.1-1.2,2c-1.1,1.6-2.8,3.8-4.8,5.6c-3.5,3.1-8.2,5.4-13,3c-4-0.7-5.7,0.7-6.3,1c-0.7,0.3-8.3-1-6-8.3
		c-2-4.3-6.3-6.7-7.3-14.3c-1-7.7-7-22-9.3-26.7c0-4.7,3.3-14.2,7.7-17.8c-2-2.9-4.7-5-3.3-8.3c-3-5.6-10.7-20.1-10-25.2
		s5.3-12.1-3-13.1c-4.3-0.5-5.7-0.3-6,0c-1.2-2.1-5.7-7.7-17.3-1c-5.7-0.3-12.7-2-15.3,2.7c-3.7-2.3-13.3-8.5-13.3-8.5
		s-0.3-4.1-2.3-7.1s-7.7-6.6-7.7-6.6s1.3-4.4,0-6.4s4.3-7.3,3-12.7c-1.3-5.3-3.2-8.3-3.2-8.3s2.9-5.3,5.5-9
		c1.7-2.3,2.7-8.3,8.3-11.7c3.3-3,6-4.7,6-4.7v-6.3c0,0,1.8-2.6,3.8-4.4c0.5-0.5,1.1-0.9,1.7-1.2c1.5-2.2,3.8-6.2,8.8-3.5
		c4.2,0.2,7.5,0.1,8.2-0.9s9.8-6.3,16.2-2.8c3.2-0.2,5-1.2,5-1.2s2-1.9,3.5,0s3,5.2,3,5.2s-0.8,2-1.2,2.8s1.5,2.5,6,3.2
		s8,2.5,7.6,4.5s5.6,4,7.4,3.2s2.5-3,2.5-5s6.8-2.8,8.5-1.5c1.4,1,5.1,5,13.5,5.1c2.4,0,5.1-0.3,8.2-1.1c1.2,2.7,4.2,9.1,6.8,14.1
		c1.2,2.2,2.3,4.1,3.2,5.2c0,3.5-0.2,4.8-0.2,4.8s7.8,2.8,5.8,12.5c4.2,3,6,8.2,6,9.5s9,8.2,9,8.2l-1.2,2c0,0,0.9,8.2,17.3,2
		c0,0,1.7-2.3,3.3-1.3S509.1,296.4,506.5,297.8z"/>
	<path class="st2" d="M512.6,354.1v0.8c0,0-1.2-2.8-1.5,1c-0.3,3.2-1.2,4.2-1.2,4.2s0.2,5.8-1.7,6.7c-0.6,2.4-2.5,11-5.4,15
		c0,0,0,0.1-0.1,0.1c-0.2,0.3-0.4,0.5-0.6,0.8l0,0c-1.2,1.2-2.5,1.5-3.9,0.5c-3.7-2.7-3.7-2.7-3.7-2.7v-2.7c0,0-2.7-1.7-1.2-4.5
		s5.5-4.8,4.5-6.8c-0.5-0.9-1.1-3.2-1.5-5.4c-0.4-2.6-0.4-5.1,0.8-4.9c1,0.1,2.1,0.3,3.1,0.4c1.2,0.1,2.1-0.1,2.5-0.7
		c0.6-1.2,3.8-2.8,3.8-2.8s0.8-3.2,2-5.8c0-0.1,0.1-0.2,0.1-0.3c0.9-2.9,1.6-5.9,2.2-2.7c0,0,0,0,0,0.1
		C511.7,347.4,513.6,349,512.6,354.1z"/>
	<path class="st2" d="M393,158.1c-1.1,1.3-2.4,2.8-2.4,2.8l-1.6,1.4l-0.4,0.3c0,0-6.4-2.2-7,0c-0.3,1.5-2.5,2.6-4.8,2.7
		c-0.6,0-0.9-0.8-0.5-1.2c1.2-1.1,2.6-2.7,1.6-3.3c-1.5-0.9,6.3-6.1,3.9-7.6s-3.5-3-4.1-4.6c-0.3-0.8-1.9-2.7-1.9-4.4l0,0
		c0-1,0.5-2,2.2-2.6c0.8-0.3,1.9-0.5,3.4-0.6c1.1,1.3,0.6,3.3,3.5,2.2c0.2,0.9,0.2,0.9,0.2,0.9s-3.3,3.9-0.7,5
		c2.8,1.1,2.6,3.3,2.6,4c0,0.8,4.6,0.1,3.5,2.7c1.1,0.7,2.6,0.8,2.7,1.4C393.4,157.6,393.3,157.8,393,158.1z"/>
	<path class="st2" d="M375,154.6c0,0,1.1,2.4,0.9,3.8c-0.1,0.4-0.3,0.7-0.7,0.8h-0.1c-2,0.2-7.4,3.6-8,1.8c-0.6-1.9,0-4.8,0-4.8
		s-1.8-1.9-1.6-3c0-0.3,0.2-0.5,0.5-0.6c0.2-0.1,0.5-0.1,0.8-0.2c3.2-0.1,3.2-0.1,3.2-0.1s1,0,0.8-1.2c-0.3-1.2,1.9-1.5,2.6-1
		S379.6,149.6,375,154.6z"/>
	<path class="st2" d="M296.5,331.3c0,4-2.2,4.2-7.2,9.5c-1.5,8-4.2,6.2-4.8,8.5c4.2,4.5,1.3,6.2,0,9.5c-1.3,3.2-0.4,3.8-0.4,3.8
		s1,2,0,3.8c-1,0.5-2.2,4-2.8,6.5s-7.8,2-7.8,2l-9.4,7.6c4.2,6-2.2,13.9-2.2,13.9s-1.4,4.5-3.9,5.7c-2.6,1.2-1.4,3.3-3.7,6.5
		c-2.4,3.2-6.7,0.6-8.7,0c11.3,15.2-6.3,12.3-6.3,13s-0.2,5.3-2.7,5.7c-2.6,0.3-0.8,3.7-0.8,3.7s0.7,7.7-1.3,8.5
		c-2.8,1.5,3.5,6.5,3.5,6.5s0,0,0.2,0.8c-2.8,2.3-2.2,8-1.8,11c0.1,0.6,0.2,1.2,0.2,1.5c0.3,2-3.1,0.8-2.3,2.3s0.5,2.3-1.7,1.8
		c-0.4,0-0.7,0-1.1-0.1c-7.8-1.4-10.4-14.5-10.4-14.5l-2.2-2.4c0,0-0.5-4.6,0.3-10c-3.5-1.6-2.4-2.7-3-7.9c-5.7,2.2-4.3-4.6-4.9-7.9
		c-0.8-1.9-1.6-4.6-0.5-6.2s-0.3-7.6-0.5-12.2c-2.5-5.2-1.6-12.2-1.4-17.4c0.8-23.1-6.5-27.1-9.5-29.1c-6-2.5-9.3-6.8-9.3-9.2
		c-4.8-6-7.3-12.5-8-14.5s-5.7-7.2-5.7-7.2v-5.3l2.5-3.1l0.3-1c0,0-0.7,0-2.4-0.4c-2-5.9,3.4-9.8,4.7-10.5
		c7.4-4.5,3.5-17.1,3.2-18.1v-0.1c0,0,0.9-1.5,1.8-2c0.5-0.3,1-0.3,1.3,0.3c0.8,1.5,2.2-3.8,2.2-3.8l1-1.9l1.7-3.1
		c0,0,0.1,0.3,0.5,0.5c0.5,0.2,1.5,0.2,3.5-1c7-6,7-2.5,7-2.5s-2,5.5-1.2,7.5s1.5-4.8,4.8-5.8s6,2.8,11.2,3.2
		c9.2-1.5,10.8,2.8,10.8,2.8l-1.2,2.5c0,0,4,0,5.2,1.8c1,6.2,6.5,6,11.8,6.5c11.5,2.2,8.5,6.5,8.8,11.4c4.5,2,3.5,3.6,3.5,3.6
		s-6.8,5.8-4.5,4.7c2.2-1.1,3.2,3.1,4.8,3.1c8-6.5,12.2-1.2,14,2.5c2.2-2.5,7.5,0,10.8,0s2.2,2.2,8,4.5
		C294.7,322.1,296.5,327.3,296.5,331.3z"/>
	<path class="st2" d="M248.2,467.9c-0.1,0.2-0.2,0.4-0.5,0.5c-1.7,1.1-7,1-7.6,0.3c-0.7-0.8-5.4-1.3-5.4-1.3v-1.1c0,0,2.5-0.9,2.8-2
		s0,0-1.2-1.4l0,0c0.2-0.5,0.5-0.8,0.9-1c1.2-0.5,2.9,0,2.9,0C239.4,463.5,245.1,466.1,248.2,467.9z"/>
	<path class="st2" d="M267,156.8c-0.4,2.5-1.2,3.2-1.2,3.2s-1.2,0.7-2.9,1.6c-3.1,1.6-7.9,4-9.4,4.1c-2.3,0.2-11.3-2.2-13.5-1
		s-2.2,1.2-2.2,1.2s-9.5,4.8-9.8,5.8c2.3-0.7,14.5-6.8,14.8-3.8c0.2,3.2-2.3,3.5-2.3,3.5s-1.8,5.5,3.3,6c3,0,2.7,1.2,2.7,1.2
		s-10,6-11.5,5.2s-1.8-1.8-1.8-1.8s-7.5-1.2-11.3,3.8c-0.2,2.5-0.3,3.3-3.3,4.2c-3,0.8-7.8,1.7-9.2,5.8c-1.5,1-7.8,0.7-8.2,7.2
		c1.2,1.3,2.3,8.7-6.5,9.5s-8.9,8.8-8.9,8.8l0.4,10.7c0,0-2,7.5-3.9,3.6c-1.8-3.9-0.3-12-4.4-11.9c-3.8-0.2-5-2.3-5-2.3
		s-8.4-0.3-8.9,1c-0.6,1.8-2.7,5-5.7,1.5c-1.8-0.9-1.3-1.2-2.6-0.5c-1.4,0.6-2.8,1.2-3.7,1c-1.1,0.3,0.9-0.1-1.1,1.4
		s-2.4,2.1-4.2,2.3s-1.8,0.9-1.8,1.7s-1.7,6.3-2.7,7.7c-1.1,1.4-5.4,17,5.6,19.3c3.5-0.8,8.9-0.4,9.7-7.4c2.3-1.8,9.9-3.8,9.9-1.7
		c-1.7,2.1-2.9,5.1-3,6.6c-1,2-2.4,6.8-3.6,7.5c1.7,0.8,12.1,1.2,12.5,3.6c0,0.1,0,0.1,0,0.2c0.4,2.4,0.8,3.6-1.5,7.4
		c0.2,3.4-0.2,11.1,6.5,9.9c2.1-1.3,7.1-2.5,8.9,0c0.3,0.4,0.5,0.9,0.6,1.6l-2.8,2.1c0,0-0.1-0.4-0.2-0.9c-0.3-1.1-1.1-2.6-2.7-1.5
		c-2.3,1.6-2.6,1.3-2.4,2.4c0.2,1.1-1.8,2-1.8,2s-0.5-3-5.7-3.1c-2-1.7-1.1-4.6-5.8-4.8c-0.4-1.9-0.8-3.7-0.8-3.7s-0.6-0.3-1.3-1
		c-0.9-0.9-2-2.4-2-4.4c-3.4,0-11.7-0.3-14.9-8.3c-0.8-0.7-1.5-1.4-3.7,0s-12.5,1.1-23.7-11.9c0.2-4,0.2-9.5-3.9-15.5
		c-0.8-1.2-1.8-2.4-2.9-3.6c-2.6-4.6-6.6-5-4.6-13.4c-2-1-3.6-1-3.6-1s-0.6,7.2,2.2,11c2.4,3.4,2.2,5,2.2,5.6s2.6,5,1.7,7.2
		c0,0.1-0.1,0.2-0.1,0.2h-0.1c-1.2,0.2-2.2-2.8-4.3-3.6c-2.2-0.8-0.8-5.4-0.8-5.4l-4.6-3.2c0,0,4.4-1.2,1.2-5.2s-3-12.8-3-12.8
		l-4.2-2.4c0,0-4-13.2-1.5-16.5s13.8-17.8,13.8-23.2c1,0.5,3.2,3.2,4.2,2c0.5-3,2.5-5-0.5-9.5s2-20.8,0.2-21.8s-3,1.8-3,1.8
		s-2.2,1.3-3.5-0.2s-0.5-3.1-7.7-4.2c-1.2,0.1-0.5-1.5-3-1.9c-2.5-0.5-4.4-0.3-7.6,1.4s-9.2,4.6-8.6,3.3s7.9-4.5,6.8-4.9
		c-1.2-0.5-9,3.2-10.3,3.9s-2.3,0.7-2.3,0.7s-0.7,3-2.6,3.3c-2,0.3-19.2,6.9-19.2,6.9s-5.2-0.1-7,0.1c-1.5,0.2-4.2,1.5-5.6,1.7l0,0
		c-0.3,0-0.5,0-0.7-0.1c-0.7-0.4,1.2-1.9,3-2.5c0.5-0.2,0.9-0.3,1.3-0.4c1.8-0.3,8.3-0.4,11.2-1.7s14.3-5.4,12.7-6.1
		c-1.6-0.7-2.8-0.8-4.8,0s-2.1,1.5-3.2,0.7c-1.1-0.8-4.9-0.3-2.8-1.9c2.1-1.6,5.8-3.6,4-3.2c-1.9,0.4-5.7,2.4-5,0.7s1.5-3.7,5.7-5.4
		c1.7-0.8,2.6-2.6,4.5-2.6s7.9,1.3,8.9,0s3.7-4.2,3.7-4.2s-0.5-0.5-2.6,0.9c-2.1,0.5-9.1-0.1-9.1-0.1s2.3-3.5,6.5-4.2
		c4.2-0.8,3.6-2.1,5.4-0.5s3.7,1.5,4,1s2.2-1.4,0.3-1.7c-1.9-0.3-1.8-4.2-1.8-4.2s-1.3-1,7.3-2c2.1-0.3,15.8-5.2,25.9-4.2
		c4.1,0.7,8.9,1.1,10.6,1.1s10.8,1.1,17.1,4.3c2.2-0.4,4.5-0.6,5.4-1.1c0.9-0.6,9.6-1.9,12.5-1.4s5.4,1,7.7,0.2
		c3.4,1,10.7,0.8,10.7,1.7c0,0.9,0,0.9,0,0.9s-4.4,0.2-2.5,1.5c1.9,1.4,7.1,2.9,10,0.5c1.7,0.3,1.7,0.3,1.7,0.3s-1,3.2,0,1.9
		c1-1.4,4.9-3.2,7.8-2.7c2.9,0.5,14.1,2.2,14,0.7c-0.2-1.5,0-2,0-2s2.5-1.5,2,0.2s-1.2,5.3,1.5,2.4s5.3-2.9,5.3-2.9s-0.3-1,0-2.6
		c0.3-1.5-1.9-4.8,4.9-4.2c1.9,0.3,1.9,0.3,1.9,0.3v3.1c0,0-3.1,8,3.4,2.2c1.9,0.2-0.3,5.8,2.2,3.1c1.7-1.8,4.1-3.1,6.1-3.6
		c1-0.3,1.9-0.4,2.6-0.3c2.2,0.2,2.7,1.9,1.2,3.6s-2.7,1-2.7,2s-1.9,1.9-6.1,1.9c-1.4,0-2.4,0.3-3.1,0.8c-1.6,0.9-2.2,2.4-3,2.5
		c-1.2,0.2-2.6,0.7-3.6-0.2c-1-0.9-7.1-2.7-5.4-1.4c1.7,1.4,4.8,1.4,3.6,2.2s-3.1,4.6-6.8,3.6c-0.7-0.2-1.3-0.4-1.9-0.6l0,0
		c-2.8-1-4.7-2.3-3.2-0.7c0.7,0.7,1.7,1.2,2.5,1.5c1.2,0.5,2.2,0.7,1.9,1.2c-0.5,0.8-1.5,1.7-1.5,1.7s-1.2-0.3-2.7-0.2
		c-1,0.1-2.2,0.3-3.3,1c-2.3,1.4-11.5,9.6-8.4,12.5c0.8,0.7,2.3,1.1,4.8,1c1.4,0.7,4,1.5,5.1,3.2c2.4,1.4,8.7,0.1,8.3,1.7
		c-0.5,1.6-5.9,14.6,0,11c1.9-1.9,5.8-5.8,4.2-11.4c3.9-0.1,13.2,0.8,11-7.7c-0.7-1.5-1-2.1,1.9-3.2c0.8-1.3,1.3-1.9,1.3-3.3
		c0-1.3,1.2-1.3,1.4-2.1c0.1-0.8,1.2-2.9,3-2.6c0.6,0.1,1.6,0.3,2.5,0.4c1.8,0.3,3.6,0.4,3.9-0.3c1.2-0.3,6.5,1.3,5.8,3
		c-0.3,0.7-1,2.5-1.5,4.4c-0.7,2.7-0.7,5.4,2.2,4c0.4-0.1,0.9-0.4,1.6-0.7c3.2-1.7,8.8-5.3,8.7-4.3c-0.1,1.2-0.4,4.2,0,6.6
		c0.4,2.4,0.1,3.4-0.8,4c-0.1,0.1-0.2,0.2-0.2,0.3c-0.1,0.8,0.9,2.4,3.4,2.9c1,0.2,2.2,0.2,3.7-0.1c-0.2,0.8-0.4,1.7-1,2.4
		c-0.2,0.2-0.4,0.3-0.6,0.5c0.3,0.3,0.9,0.3,1.6,0.3C266.1,155.1,267.3,155.2,267,156.8z"/>
	<path class="st2" d="M196.7,252.4c-1.3,0.3-3.6,0.5-7.6,0.1c-0.1-1.4-0.1-1.4-0.1-1.4l0.8-0.8c0,0-6.6-5.9-10.1-5.2
		c0,0-3.1-0.3-4.5,1.4c-1.5,2-1.7-0.7-1.7-0.7s0-0.4,0.1-0.9c0.2-0.7,0.6-1.7,2-2.3c1.1-0.5,2.8-0.8,5.3-0.6
		c2.6,0.8,6.5,3.2,6.5,3.2l10.9,5.4C198.2,250.7,199.1,251.8,196.7,252.4z"/>
	<path class="st2" d="M212,257.1c-0.2,0-0.3,0-0.5-0.1c-1.8-0.2-5.7-0.6-6.2,0.1c-0.6,0.8-0.8,0.2-2.6,0c-1.4-0.1-3.6-0.4-4.6-0.5
		c-0.4,0-0.6-0.1-0.6-0.1s-1-1,0.9-1c0.2,0,0.4,0,0.6,0c1.6-0.2,2.6-1,2.5-1.7c-0.2-0.8,3.6-2.8,3.6-2.5l0,0c0-0.1,0.2-0.5,1.9-0.1
		c2.3,0.7,5.8,1,5.8,4.2l0,0C212.8,255.6,213.4,257.3,212,257.1z"/>
</g>
<g id="Aus">
</g>
<g id="bg">
</g>
<g id="SYDNEY">
</g>
<g id="nz">
</g>
<g id="Layer_7">
</g>
</svg>
