<svg id="Layer_1" data-name="Layer 1" xmlns="http://www.w3.org/2000/svg" viewBox="0 0 384 163"><defs><style>.cls-1{fill:#f2f2f2;}.cls-2{fill:#1a1a1a;}.cls-3{fill:#b9e3ff;}.cls-4{fill:none;stroke:#1a1a1a;stroke-miterlimit:10;stroke-width:0.19px;}.cls-5{fill:#ffd800;}.cls-6{fill:#c19710;}</style></defs><title>Untitled-1</title><path class="cls-1" d="M378.81,163.34l-14.67-.09L313.4,163l-97.55-.6-52.51-.29L146.62,162,123,161.84c-16.48.24-47.38-19-37.86-32.46l30.8-26.93,31.5-27.54,2.88-2.55,6.38-5.55,1.58-1.39,6.38-13.67,4.15-8.93,7.07-15.32c9.38-10.1,18.23-5.68,28.37,4.2,3.41,3.32,7,7.24,10.72,11.49,15.23,17,34,38.37,60.88,41.66l31.64,32.6.28.28,32.71,13.64h.14L354.15,137C368.47,149.11,395.3,163.1,378.81,163.34Z"/><path class="cls-2" d="M208.11,87.56V86.48H189.34v1.07h2.48l2.37,6.52H189v1.07h8.27v37.14h2.23V95.15h8.27V94.08h-4.9l3.38-6.52Zm-6.56,6.52h-6.08l-2.37-6.52h11.83Z"/><path class="cls-1" d="M213.76,160.22c-14.82.64-32.52,1.16-51.24,1.57-19.95.43-41,.77-61,1-19.31.23-37.56.38-52.73.47-24.25.15-48.5.18-48.5.18C-2.8,141.6,21.82,56.22,21.82,56.22l18.6-15.43L88.76.66,89,.47c10.3,5.85,13.44,13.11,17.36,22.17,3.66,8.46,8,18.51,19.49,30.47L155.2,76.73,187.76,103,255,155.55C256.28,157.61,239.33,159.11,213.76,160.22Z"/><polygon class="cls-3" points="182.63 96.8 156.16 66.97 157.75 65.59 164.08 51.91 168.23 42.96 182.63 96.8"/><path class="cls-3" d="M215.38,162.51l-52.51-.29-.36-.42c-5.54-6.73-27-32.92-47-59.11l-.06-.09c-19.14-25.13-13.81-61.09-9.13-79.89,3.66,8.46,8,18.51,19.49,30.47l24,19.36,5.28,4.26,58.71,83.42Z"/><path class="cls-3" d="M101.49,162.78c-19.31.23-37.56.38-52.73.47l-1-.75c-33.08-25-25.95-106.23-25.95-106.23L37.09,71.42S49.43,92.7,66,84.08C62.08,98.24,97.3,156,101.49,162.78Z"/><path class="cls-1" d="M122.5,162h19.81L101.46,102.6s14.73,30,8,34.75S122.5,162,122.5,162Z"/><path class="cls-3" d="M88.73.73,71.15,32.63s-14.31,9-30.77,8.21Z"/><path class="cls-3" d="M272.25,132.29c-17.32-32.43-79.13-44.06-68.59-100.4,3.41,3.32,7,7.24,10.72,11.49,15.23,17,34,38.37,60.88,41.66C275.28,85,277.84,126.46,272.25,132.29Z"/><path class="cls-3" d="M363.65,163.36l-50.75-.29c-9.32-12.61-7.25-35.92-5.9-45.54l33,13.92h.14C347.71,141,358.22,155,363.65,163.36Z"/><path class="cls-2" d="M162.29,117.24v-1.07H143.52v1.07H146l2.37,6.52h-5.23v1.07h8.27V162h2.23V124.84h8.27v-1.07h-5l3.38-6.52Zm-6.62,6.52h-6.08l-2.37-6.52h11.83Z"/><path class="cls-2" d="M248.78,118.61v-1.07H230v1.07h2.48l2.37,6.52h-5.22v1.07h8.27v37.14h2.23V126.2h8.27v-1.07h-5l3.38-6.52Zm-6.62,6.52H236l-2.37-6.52h11.83Z"/><path class="cls-2" d="M113.56,91.12V90.2h-16v.92h2.12l2,5.58H97.19v.92h7.07v31.74h1.91V97.6h7.07v-.92H109l2.9-5.58Zm-5.67,5.58H102.7l-2-5.58h10.11Z"/><path class="cls-2" d="M79.1,44v-.51h-14V44H67l1.76,3.1H64.86v.51H71V65.28h1.63V47.61H78.8V47.1H75.2L77.75,44Zm-4.93,3.1H69.66L67.9,44H76.7Z"/><path class="cls-4" d="M65.87,43.47s-.09,65.17,31.65,47.65"/><path class="cls-4" d="M78.21,43.85S68,89,113.58,91.08"/><path class="cls-4" d="M99.64,91.12S116.23,141,146,117.24"/><path class="cls-4" d="M111.9,91.12s8.26,40.4,49.51,25.05"/><path class="cls-5" d="M140.51,127.52a1.81,1.81,0,0,1-.1.63,1.84,1.84,0,0,1-.43.69l-.09.09a1.85,1.85,0,0,1-1.28.46h-4.1a1.83,1.83,0,0,1-.43,0h0a1.85,1.85,0,0,1-1.07-2.81,1.81,1.81,0,0,1,.24-.29,1.85,1.85,0,0,1,1.28-.54h4.1a1.85,1.85,0,0,1,1.85,1.85Z"/><path class="cls-6" d="M140.39,128.14v.5l-.55.54-.14.14-1.93,1.85-.83.79h-.86l-.77-.79-1.52-1.58.27-.26h0l3.83-3.64h.74a1.84,1.84,0,0,1,.87.22c-.06-.43-.14-.87-.23-1.28l.73.75c.06.37.13.75.18,1.15a1.84,1.84,0,0,1,.19,1.62Z"/><path class="cls-2" d="M140.51,129.53h-.6v-.63c-.08-1-.19-2.07-.34-3-.06-.43-.14-.87-.23-1.28-.61-3.1-1.6-5.35-2.69-5.35s-2.34,2.87-2.92,6.62c-.15,1-.27,2-.34,3v.63h-.6v-.23a7.31,7.31,0,0,1,.09-1.15q.08-.86.19-1.65c.65-4.67,2-7.9,3.6-7.9s2.72,2.71,3.42,6.75c.06.37.13.75.18,1.15s.14,1.07.19,1.62v1.4Z"/><rect class="cls-5" x="132.71" y="129.3" width="7.8" height="1.85"/><rect class="cls-2" x="132.71" y="131.15" width="7.8" height="0.79"/><rect class="cls-2" x="132.72" y="132.38" width="7.88" height="0.4"/><path class="cls-5" d="M207.78,119.69a2.16,2.16,0,0,1-.13.74,2.18,2.18,0,0,1-.51.82l-.11.1a2.18,2.18,0,0,1-1.44.54h-4.86a2.17,2.17,0,0,1-.51,0h0a2.2,2.2,0,0,1-1.28-3.32,2.16,2.16,0,0,1,.28-.34,2.21,2.21,0,0,1,1.56-.64h4.86a2.2,2.2,0,0,1,2.2,2.2Z"/><path class="cls-6" d="M207.66,120.43V121l-.65.63-.18.17-2.28,2.2-1,.94h-1l-.91-.94-1.8-1.88.32-.31h0l4.48-4.31h.88a2.17,2.17,0,0,1,1,.26c-.08-.52-.17-1-.27-1.52l.87.89c.08.45.15.89.22,1.37a2.18,2.18,0,0,1,.23,1.93Z"/><path class="cls-2" d="M207.8,122.08h-.7v-.74c-.09-1.28-.23-2.45-.41-3.59-.08-.52-.17-1-.27-1.52-.73-3.69-1.89-6.38-3.19-6.38s-2.77,3.41-3.46,7.85c-.18,1.15-.32,2.35-.41,3.6V122h-.7v-.27a8.15,8.15,0,0,1,.11-1.37q.09-1,.23-2c.77-5.54,2.39-9.36,4.26-9.36s3.23,3.2,4.06,8c.08.45.15.89.22,1.37s.17,1.28.23,1.93V122Z"/><rect class="cls-5" x="198.54" y="121.81" width="9.24" height="2.2"/><rect class="cls-2" x="198.54" y="124.01" width="9.24" height="0.94"/><rect class="cls-2" x="198.55" y="125.46" width="9.34" height="0.47"/><path class="cls-5" d="M230.13,127.63a2.16,2.16,0,0,1-.13.74,2.18,2.18,0,0,1-.51.82l-.11.1a2.18,2.18,0,0,1-1.44.54h-4.86a2.17,2.17,0,0,1-.51,0h0a2.2,2.2,0,0,1-1.28-3.32,2.16,2.16,0,0,1,.28-.34,2.21,2.21,0,0,1,1.56-.64H228a2.2,2.2,0,0,1,2.2,2.2Z"/><path class="cls-6" d="M230,128.36v.59l-.65.63-.18.17-2.28,2.2-1,.94h-1l-.91-.94-1.8-1.88.32-.31h0l4.48-4.31h.88a2.17,2.17,0,0,1,1,.26c-.08-.52-.17-1-.27-1.52l.87.89c.08.45.15.89.22,1.37a2.18,2.18,0,0,1,.23,1.93Z"/><path class="cls-2" d="M230.14,130h-.7v-.74c-.09-1.28-.23-2.45-.41-3.59-.08-.52-.17-1-.27-1.52-.73-3.69-1.89-6.38-3.19-6.38s-2.77,3.41-3.46,7.85c-.18,1.15-.32,2.35-.41,3.6V130H221v-.27a8.15,8.15,0,0,1,.11-1.37q.09-1,.23-2c.77-5.54,2.39-9.36,4.26-9.36s3.23,3.2,4.06,8c.08.45.15.89.22,1.37s.17,1.28.23,1.93V130Z"/><rect class="cls-5" x="220.89" y="129.75" width="9.24" height="2.2"/><rect class="cls-2" x="220.89" y="131.93" width="9.24" height="0.94"/><rect class="cls-2" x="220.9" y="133.39" width="9.34" height="0.47"/><path class="cls-5" d="M124.16,118a1.81,1.81,0,0,1-.1.63,1.84,1.84,0,0,1-.43.69l-.09.09a1.85,1.85,0,0,1-1.28.46h-4.1a1.83,1.83,0,0,1-.43,0h0a1.85,1.85,0,0,1-1.07-2.81,1.81,1.81,0,0,1,.24-.29,1.85,1.85,0,0,1,1.28-.54h4.1a1.85,1.85,0,0,1,1.85,1.85Z"/><path class="cls-6" d="M124,118.61v.5l-.55.54-.14.14-1.93,1.85-.83.79h-.86l-.77-.79-1.52-1.58.27-.26h0l3.83-3.64h.74a1.84,1.84,0,0,1,.87.22c-.06-.43-.14-.87-.23-1.28l.73.75c.06.37.13.75.18,1.15a1.84,1.84,0,0,1,.19,1.62Z"/><path class="cls-2" d="M124.16,120h-.6v-.63c-.08-1-.19-2.07-.34-3-.06-.43-.14-.87-.23-1.28-.61-3.1-1.6-5.35-2.69-5.35s-2.36,2.86-3,6.69c-.15,1-.27,2-.34,3v.63h-.6v-.23a7.31,7.31,0,0,1,.09-1.15q.08-.86.19-1.65c.65-4.67,2-7.9,3.6-7.9s2.72,2.71,3.42,6.75c.06.37.13.75.18,1.15s.14,1.07.19,1.62v1.4Z"/><rect class="cls-5" x="116.36" y="119.78" width="7.8" height="1.85"/><rect class="cls-2" x="116.36" y="121.62" width="7.8" height="0.79"/><rect class="cls-2" x="116.36" y="122.85" width="7.88" height="0.4"/><path class="cls-5" d="M94,92.64a1.81,1.81,0,0,1-.1.63,1.84,1.84,0,0,1-.43.69l-.09.09a1.85,1.85,0,0,1-1.28.46H88a1.83,1.83,0,0,1-.43,0h0a1.85,1.85,0,0,1-1.07-2.81,1.81,1.81,0,0,1,.24-.29A1.85,1.85,0,0,1,88,90.86h4.1A1.85,1.85,0,0,1,94,92.71h0Z"/><path class="cls-6" d="M93.91,93.26v.5l-.55.54-.14.14-1.93,1.85-.83.79h-.86l-.77-.79L87.32,94.7l.27-.26h0l3.83-3.64h.74A1.84,1.84,0,0,1,93,91c-.06-.43-.14-.87-.23-1.28l.73.75c.06.37.13.75.18,1.15a1.84,1.84,0,0,1,.19,1.62Z"/><path class="cls-2" d="M94,94.72h-.6v-.63c-.08-1-.19-2.07-.34-3-.06-.43-.14-.87-.23-1.28-.61-3.1-1.6-5.35-2.69-5.35s-2.34,2.87-2.92,6.62c-.15,1-.27,2-.34,3v.61h-.6v-.23a7.31,7.31,0,0,1,.09-1.15q.08-.86.19-1.65c.65-4.67,2-7.9,3.6-7.9s2.72,2.71,3.42,6.75c.06.37.13.75.18,1.15s.14,1.07.19,1.62v1.4Z"/><rect class="cls-5" x="86.21" y="94.42" width="7.8" height="1.85"/><rect class="cls-2" x="86.21" y="96.27" width="7.8" height="0.79"/><rect class="cls-2" x="86.22" y="97.5" width="7.87" height="0.4"/><path class="cls-5" d="M83,76.4a1.81,1.81,0,0,1-.1.63,1.84,1.84,0,0,1-.43.69l-.09.09a1.85,1.85,0,0,1-1.28.46H77a1.83,1.83,0,0,1-.43,0h0a1.85,1.85,0,0,1-1.07-2.81,1.81,1.81,0,0,1,.24-.29A1.85,1.85,0,0,1,77,74.63h4.1a1.85,1.85,0,0,1,1.85,1.85h0Z"/><path class="cls-6" d="M82.86,77v.5l-.55.54-.14.14L80.3,80l-.83.79h-.86L77.85,80l-1.52-1.58.27-.26h0l3.83-3.64h.74a1.84,1.84,0,0,1,.87.22c-.06-.43-.14-.87-.23-1.28l.73.75c.06.37.13.75.18,1.15A1.84,1.84,0,0,1,82.91,77Z"/><path class="cls-2" d="M83,78.4h-.6v-.63c-.08-1-.19-2.07-.34-3-.06-.43-.14-.87-.23-1.28-.61-3.1-1.6-5.35-2.69-5.35S76.75,71,76.17,74.75c-.15,1-.27,2-.34,3v.63H75.2v-.29A7.31,7.31,0,0,1,75.29,77q.08-.86.19-1.65c.65-4.67,2-7.9,3.6-7.9s2.72,2.71,3.42,6.75c.06.37.13.75.18,1.15s.14,1.07.19,1.62v1.4Z"/><rect class="cls-5" x="75.16" y="78.19" width="7.8" height="1.85"/><rect class="cls-2" x="75.16" y="80.04" width="7.8" height="0.79"/><rect class="cls-2" x="75.17" y="81.25" width="7.87" height="0.4"/><path class="cls-4" d="M207.23,86.47s11,51.46,40.61,31.05"/><path class="cls-4" d="M189.35,86.47s26.8,64.79,40.84,31.65"/></svg>