<svg id="Layer_1" data-name="Layer 1" xmlns="http://www.w3.org/2000/svg" xmlns:xlink="http://www.w3.org/1999/xlink" viewBox="0 0 404 209"><defs><style>.cls-1{fill:url(#linear-gradient);}.cls-2{fill:#305944;}.cls-3{fill:#b2edcf;}.cls-4{fill:#17ea92;}</style><linearGradient id="linear-gradient" x1="242.08" y1="113.79" x2="146.86" y2="278.72" gradientUnits="userSpaceOnUse"><stop offset="0" stop-color="#f2f2f2"/><stop offset="0.11" stop-color="#e8eff4"/><stop offset="0.45" stop-color="#cee9fa"/><stop offset="0.76" stop-color="#bee4fe"/><stop offset="1" stop-color="#b9e3ff"/></linearGradient></defs><title>Untitled-1</title><path class="cls-1" d="M371,207.7H23.85v-3.39c0-33.17,13.3-61.42,32.17-72.19l-3-5.93c17.31-9,37.57-16,60.36-20.28l1.6-.3,1.53-.27.16.21.41,1c7.39,3.29,16.54,5.45,20.8,1.9a40.75,40.75,0,0,0,9.86,4.4l3-1.47,3.78-2.94,3.78-4.41h2.27v-3c2.15,0,4.32-.08,6.5-.08a193.33,193.33,0,0,1,45.38,5.32l1.89,3.7c3,5.86.76,2.93,3,5.86s7.57,10.28,9.09,17.62c1.17,1.13,7.29,10.14,10,14.18,3.7-4.21,13-14,21.78-18.6l5.18-2.86c26.69,14.5,49.21,33.27,69,50.66C345.38,188.2,360,199,371,207.7Z"/><path class="cls-2" d="M332.47,159.87v17.62L239.34,176,234.8,149.6s.62-.75,1.7-2c3.7-4.21,13-14,21.78-18.6l5.18-2.87,5.42-3,3.78-7.39h4.54s-.76-5.87,9.08-17.62l2.28,5.87,6.82-5.87,8.33,4.4L312,129l11.35,7.39Z"/><path class="cls-3" d="M249.15,176H172.68l-1.31-.78h0l-41.05-24.17s-7-29.8-16.92-45.17c-.42-.63-.83-1.23-1.23-1.82.89.51,1.84,1,2.86,1.53.67.33,1.37.67,2.08,1,7.39,3.28,16.54,5.45,20.8,1.9a40.87,40.87,0,0,0,9.86,4.4l3-1.47,3.78-2.93,3.78-4.41h2.27V98.21a15.81,15.81,0,0,0,4.55-5.87c2.27-4.41,3.78-8.81,4.54-10.28s4.54-16.14,7.57-17.62l3-1.47s8.33-10.28,8.33-17.62c.73.85,1.6,1.71,2.58,2.81,4,4.47,9.51,12.84,12.57,41.24l8.71,16.91,1.89,3.7c3,5.87.76,2.93,3,5.87s7.57,10.28,9.08,17.62c1.17,1.12,7.3,10.14,10,14.18l1.33,2s4.55,10.27,5.3,11.73A82.57,82.57,0,0,1,249.15,176Z"/><path class="cls-2" d="M148.84,163.45s14.79-47.62,17.8-47.62,2.27,0,3-5.88l.75-5.88s1.52-13.21,3.78-16.14S175,89.4,176.47,85s3.78-5.88,3-10.28,1.52,11.74,3,11.74,1.52,2.93,3.78,1.47,11.36,1.47,12.87,7.39.75,14.68,3,10.28,6.06-2.93,7.57,1.47,1.52,11.74,3.78,14.68,2.27,11.74,2.27,11.74,3.78,19.09,6.06,20.56,5.3,11.74,5.3,11.74l4,11.74H170.78Z"/><path class="cls-3" d="M174.95,177.49,4.37,180.43l1.23-16,4.08-53L23.31,46.89,42.63,5.78s16.66-4.4,17.41,0S78,44,78,44s6.06,2.95,8.34,2.95,12.1,33.77,17.41,39.63a52.12,52.12,0,0,1,8.33,13.22l4.37,5.66.16.21.41,1,17.77,45.93,36.5,22.6h0Z"/><path class="cls-2" d="M203.72,89.4a84.6,84.6,0,0,0-10.6-10.28c-10.86-8.28-4.71-30.4-2-31C195.16,52.64,200.67,61,203.72,89.4Z"/><polygon class="cls-3" points="312.7 136.55 323.98 105.73 332.43 106.91 339.96 72.53 355 58.31 370.03 87.94 388.84 109.29 393.53 165 397.29 174.5 402 206.51 292.04 206.61 292.01 191.09 303.3 179.24 308.93 166.2 312.7 136.55"/><path class="cls-2" d="M70.18,45.26h-16l-4.7-30.81S61.37,35,74.84,41.72Z"/><path class="cls-2" d="M80.52,60.62S89,72.48,91.8,86.71s13.16,19,13.16,19L87.1,106.91H62.66L58.88,101,72.06,60.62S77.7,64.23,80.52,60.62Z"/><path class="cls-2" d="M312.06,206l-.31-19.72s6.91-4.52,7.69-9.38S323,137.71,323,137.71l9.44-11.77,6.58,11.86,2.79,16.49,3.76,7.11L347,207.28Z"/><path class="cls-4" d="M24,208v-3.7c0-42.44,22-76.85,49.15-76.85,23.87,0,49.16,34.41,49.16,76.85V208Z"/><path class="cls-2" d="M73,127.46V208H23.85v-3.69c0-33.17,13.3-61.42,32.17-72.19a34.2,34.2,0,0,1,15.85-4.64Z"/></svg>