<svg id="Layer_1" data-name="Layer 1" xmlns="http://www.w3.org/2000/svg" xmlns:xlink="http://www.w3.org/1999/xlink" viewBox="0 0 128 356"><defs><style>.cls-1{fill:#f2f2f2;}.cls-2{fill:#b2edcf;}.cls-3{fill:#b9e3ff;}.cls-4{fill:#1a1a1a;}.cls-5{fill:#17ea92;}.cls-6{fill:#4f4f4f;}.cls-7{fill:#4d4d4d;}.cls-8{fill:#305944;}.cls-9{fill:#ffd800;}.cls-10{fill:none;stroke:#1a1a1a;stroke-miterlimit:10;stroke-width:0.48px;}.cls-11{fill:url(#linear-gradient);}.cls-12{fill:url(#linear-gradient-2);}.cls-13{fill:url(#linear-gradient-3);}</style><linearGradient id="linear-gradient" x1="50.16" y1="-2923.93" x2="50.16" y2="-2920.89" gradientTransform="matrix(1, 0, 0, -1, 0, -2806)" gradientUnits="userSpaceOnUse"><stop offset="0" stop-color="#f2f2f2" stop-opacity="0"/><stop offset="1" stop-color="#1a1a1a"/></linearGradient><linearGradient id="linear-gradient-2" x1="50.66" y1="-2939.67" x2="50.66" y2="-2934.09" xlink:href="#linear-gradient"/><linearGradient id="linear-gradient-3" x1="51.34" y1="-2959.97" x2="51.34" y2="-2954.39" xlink:href="#linear-gradient"/></defs><title>Untitled-1</title><rect class="cls-1" x="22.29" y="192.31" width="0.7" height="1.32"/><path class="cls-2" d="M24,191.27v.1a1.17,1.17,0,0,1-.21.68,1.21,1.21,0,0,1-1,.55h-.4a1.3,1.3,0,0,1-1-.48,1.14,1.14,0,0,1-.26-.45,1.28,1.28,0,0,1-.08-.43l.29-6.06v-.7l2.44-.18v1.12Z"/><path class="cls-2" d="M24,192.24s1.31-.48,1.5-.12,1,2,1,2l.5-.31-.75-2a.84.84,0,0,0-.6-.51,2.51,2.51,0,0,0-1-.06c-.57.13-1.2.32-1.2.32Z"/><ellipse class="cls-3" cx="22.61" cy="193.93" rx="0.95" ry="1.13"/><path class="cls-4" d="M24,180.37l-.19,3.33v.57l-1,.39-.44.16h0c0-.08.1-.52.19-1.12v-.34a13.17,13.17,0,0,0,.26-3,46.68,46.68,0,0,1-.24-5.15l.36-.2Z"/><path class="cls-4" d="M22.79,185l-.5-.19h0l-1-.37v-.75l-.19-3.16,1.1-5.38.35.21a48.75,48.75,0,0,1-.23,5.14,11.9,11.9,0,0,0,.23,2.85v.34c.07.38.12.71.16,1A2.18,2.18,0,0,1,22.79,185Z"/><path class="cls-2" d="M21.08,192.31s-.34-.91-.78-.38A20.18,20.18,0,0,0,19,194l-.29-.43s1.39-2.9,1.93-2.7,1,.64.89.68Z"/><rect class="cls-4" x="21.27" y="183.7" width="2.51" height="1.54"/><path class="cls-2" d="M21.93,192.53a.9.9,0,0,1-1.05-.56c-.26-.74,0-.51,0-.51l1.16.06Z"/><path class="cls-2" d="M24,192.24s-.56.66-1,.31a1.6,1.6,0,0,1-.51-1h1l.73.28Z"/><path class="cls-4" d="M24,191.27v.1a1.17,1.17,0,0,1-.21.68l-2.46-6.89.43-.15Z"/><path class="cls-4" d="M23.79,185.39l-2.47,6.76a1.14,1.14,0,0,1-.26-.45l2.69-7.34Z"/><path class="cls-2" d="M24,180.37l-.19,3.33H21.3l-.19-3.16.85-4.16.25-1.22.35.21v1a29.25,29.25,0,0,1-.21,4.13,11.9,11.9,0,0,0,.23,2.85,13.17,13.17,0,0,0,.26-3,28.25,28.25,0,0,1-.23-4v-1.19L23,175l.28,1.39Z"/><rect class="cls-1" x="43.04" y="174.79" width="16.61" height="165.54"/><path class="cls-1" d="M65.38,144.47v26.24a18.92,18.92,0,0,1-.17,2C64.08,180.82,58,187,50.66,187s-13.42-6.15-14.53-14.22a18.92,18.92,0,0,1-.17-2V144.47a19.24,19.24,0,0,1,.69-5.13H64.7A19.24,19.24,0,0,1,65.38,144.47Z"/><rect class="cls-4" x="35.94" y="139.26" width="29.45" height="9.14"/><polygon class="cls-1" points="68.43 128.09 66.9 133.67 65.38 139.26 35.94 139.26 34.41 133.67 32.89 128.09 68.43 128.09"/><rect class="cls-4" x="27.82" y="126.05" width="45.68" height="2.04"/><rect class="cls-4" x="23.75" y="117.93" width="53.81" height="3.05"/><rect class="cls-4" x="47.1" y="189" width="1.01" height="9.14"/><rect class="cls-4" x="47.1" y="200.18" width="1.01" height="9.14"/><rect class="cls-4" x="47.1" y="211.34" width="1.01" height="9.14"/><rect class="cls-4" x="47.1" y="222.5" width="1.01" height="9.14"/><rect class="cls-4" x="47.1" y="233.68" width="1.01" height="9.14"/><rect class="cls-4" x="47.1" y="244.84" width="1.01" height="9.14"/><rect class="cls-4" x="47.1" y="256.02" width="1.01" height="9.14"/><rect class="cls-4" x="47.1" y="267.18" width="1.01" height="9.14"/><rect class="cls-4" x="47.1" y="278.35" width="1.01" height="9.14"/><rect class="cls-4" x="47.1" y="289.52" width="1.01" height="9.14"/><rect class="cls-4" x="47.1" y="300.68" width="1.01" height="9.14"/><rect class="cls-4" x="47.1" y="177.84" width="1.01" height="9.14"/><path class="cls-4" d="M35.95,170.73H65.38a18.87,18.87,0,0,1-.17,2H36.11"/><rect class="cls-1" x="47.62" y="20.46" width="4.07" height="31.47"/><polygon class="cls-5" points="71.47 120.98 69.5 126.06 29.85 126.06 27.82 120.98 71.47 120.98"/><path class="cls-1" d="M72.48,115.4a2.54,2.54,0,0,1-2.54,2.53H30.35a2.53,2.53,0,0,1-2.53-2.53v-.51c.47-1,.58-1.17.7-1.28a2.48,2.48,0,0,1,1.79-.74H69.9a2.55,2.55,0,0,1,2.49,2A3,3,0,0,1,72.48,115.4Z"/><rect class="cls-5" x="41.01" y="86.46" width="18.27" height="2.03"/><rect class="cls-5" x="34.92" y="79.35" width="28.43" height="2.03"/><rect class="cls-1" x="24.77" y="110.82" width="50.77" height="4.07"/><path class="cls-5" d="M47,49.38a3,3,0,0,0-.42,1.54V65.14a3,3,0,0,0,6.09,0h0V50.92a3,3,0,0,0-.42-1.54Z"/><polygon class="cls-1" points="63.35 110.83 36.95 110.83 41.01 87.48 59.29 87.48 63.35 110.83"/><rect class="cls-4" x="37.97" y="81.39" width="23.35" height="5.08"/><rect class="cls-5" x="48.62" y="1" width="1.98" height="6.01"/><rect class="cls-5" x="42.02" y="64.13" width="15.23" height="2.03"/><rect class="cls-1" x="48.12" y="6.56" width="3.04" height="15.93"/><rect class="cls-5" x="48.12" y="15.14" width="3.04" height="0.99"/><polygon class="cls-3" points="45.05 295.92 45.05 355 4.81 355 4.81 295.92 9.69 295.92 9.69 281.38 13.35 281.38 13.35 270.18 36.52 270.18 36.52 281.38 39.56 281.38 39.56 295.92 45.05 295.92"/><rect class="cls-4" x="22.45" y="281.48" width="4.82" height="2.43"/><rect class="cls-4" x="22.45" y="285.34" width="4.82" height="2.43"/><rect class="cls-4" x="22.45" y="289.22" width="4.82" height="2.43"/><rect class="cls-4" x="22.45" y="300.82" width="4.82" height="2.43"/><rect class="cls-4" x="22.45" y="304.69" width="4.82" height="2.43"/><rect class="cls-4" x="22.45" y="308.55" width="4.82" height="2.43"/><rect class="cls-4" x="22.45" y="312.42" width="4.82" height="2.43"/><rect class="cls-4" x="22.45" y="316.29" width="4.82" height="2.43"/><rect class="cls-4" x="22.45" y="320.16" width="4.82" height="2.43"/><rect class="cls-4" x="22.45" y="324.02" width="4.82" height="2.43"/><rect class="cls-4" x="22.45" y="327.9" width="4.82" height="2.43"/><rect class="cls-4" x="22.45" y="331.76" width="4.82" height="2.43"/><rect class="cls-4" x="22.45" y="335.63" width="4.82" height="2.43"/><rect class="cls-4" x="22.45" y="339.49" width="4.82" height="2.43"/><rect class="cls-6" x="30.04" y="281" width="9.68" height="14.52"/><rect class="cls-6" x="9.81" y="281.18" width="9.68" height="14.33"/><rect class="cls-4" x="13.24" y="298.32" width="4.89" height="1.16"/><rect class="cls-4" x="13.24" y="300.65" width="4.89" height="1.16"/><rect class="cls-4" x="13.24" y="302.98" width="4.89" height="1.16"/><rect class="cls-4" x="13.24" y="305.3" width="4.89" height="1.16"/><rect class="cls-4" x="13.24" y="307.62" width="4.89" height="1.16"/><rect class="cls-4" x="13.24" y="309.95" width="4.89" height="1.16"/><rect class="cls-4" x="13.24" y="312.27" width="4.89" height="1.16"/><rect class="cls-4" x="13.24" y="314.6" width="4.89" height="1.16"/><rect class="cls-4" x="13.24" y="316.92" width="4.89" height="1.16"/><rect class="cls-4" x="13.24" y="319.24" width="4.89" height="1.16"/><rect class="cls-4" x="13.24" y="321.57" width="4.89" height="1.16"/><rect class="cls-4" x="13.24" y="323.89" width="4.89" height="1.16"/><rect class="cls-4" x="13.24" y="326.22" width="4.89" height="1.16"/><rect class="cls-4" x="13.24" y="328.54" width="4.89" height="1.16"/><rect class="cls-4" x="13.24" y="330.86" width="4.89" height="1.16"/><rect class="cls-4" x="13.24" y="333.19" width="4.89" height="1.16"/><rect class="cls-4" x="13.24" y="335.52" width="4.89" height="1.16"/><rect class="cls-4" x="13.24" y="337.83" width="4.89" height="1.16"/><rect class="cls-4" x="13.24" y="340.16" width="4.89" height="1.16"/><rect class="cls-4" x="31.61" y="297.89" width="5.12" height="1.22"/><rect class="cls-4" x="31.61" y="300.32" width="5.12" height="1.22"/><rect class="cls-4" x="31.61" y="302.75" width="5.12" height="1.22"/><rect class="cls-4" x="31.61" y="305.18" width="5.12" height="1.22"/><rect class="cls-4" x="31.61" y="307.61" width="5.12" height="1.22"/><rect class="cls-4" x="31.61" y="310.05" width="5.12" height="1.22"/><rect class="cls-4" x="31.61" y="312.47" width="5.12" height="1.22"/><rect class="cls-4" x="31.61" y="314.91" width="5.12" height="1.22"/><rect class="cls-4" x="31.61" y="317.34" width="5.12" height="1.22"/><rect class="cls-4" x="31.61" y="319.77" width="5.12" height="1.22"/><rect class="cls-4" x="31.61" y="322.2" width="5.12" height="1.22"/><rect class="cls-4" x="31.61" y="324.63" width="5.12" height="1.22"/><rect class="cls-4" x="31.61" y="327.07" width="5.12" height="1.22"/><rect class="cls-4" x="31.61" y="329.49" width="5.12" height="1.22"/><rect class="cls-4" x="31.61" y="331.92" width="5.12" height="1.22"/><rect class="cls-4" x="31.61" y="334.36" width="5.12" height="1.22"/><rect class="cls-4" x="31.61" y="336.79" width="5.12" height="1.22"/><rect class="cls-4" x="31.61" y="339.21" width="5.12" height="1.22"/><rect class="cls-4" x="31.61" y="341.65" width="5.12" height="1.22"/><rect class="cls-7" x="13.12" y="284.4" width="5.12" height="7.74"/><rect class="cls-7" x="13.12" y="282.48" width="5.12" height="1.22"/><rect class="cls-7" x="31.61" y="284.4" width="5.12" height="7.74"/><rect class="cls-7" x="31.61" y="282.48" width="5.12" height="1.22"/><rect class="cls-8" x="6.88" y="298.31" width="2.47" height="2.4"/><rect class="cls-8" x="6.88" y="302.05" width="2.47" height="2.4"/><rect class="cls-8" x="6.88" y="305.79" width="2.47" height="2.4"/><rect class="cls-8" x="6.88" y="309.53" width="2.47" height="2.4"/><rect class="cls-8" x="6.88" y="313.26" width="2.47" height="2.4"/><rect class="cls-8" x="6.88" y="317" width="2.47" height="2.4"/><rect class="cls-8" x="6.88" y="320.74" width="2.47" height="2.4"/><rect class="cls-8" x="6.88" y="324.48" width="2.47" height="2.4"/><rect class="cls-8" x="6.88" y="328.21" width="2.47" height="2.4"/><rect class="cls-8" x="6.88" y="331.95" width="2.47" height="2.4"/><rect class="cls-8" x="6.88" y="336.01" width="2.47" height="2.4"/><rect class="cls-8" x="6.88" y="340.07" width="2.47" height="2.4"/><rect class="cls-6" x="4.66" y="295.52" width="40.38" height="1.45"/><rect class="cls-8" x="40.08" y="298.31" width="2.47" height="2.4"/><rect class="cls-8" x="40.08" y="302.05" width="2.47" height="2.4"/><rect class="cls-8" x="40.08" y="305.79" width="2.47" height="2.4"/><rect class="cls-8" x="40.08" y="309.53" width="2.47" height="2.4"/><rect class="cls-8" x="40.08" y="313.26" width="2.47" height="2.4"/><rect class="cls-8" x="40.08" y="317" width="2.47" height="2.4"/><rect class="cls-8" x="40.08" y="320.74" width="2.47" height="2.4"/><rect class="cls-8" x="40.08" y="324.48" width="2.47" height="2.4"/><rect class="cls-8" x="40.08" y="328.21" width="2.47" height="2.4"/><rect class="cls-8" x="40.08" y="331.95" width="2.47" height="2.4"/><rect class="cls-8" x="40.08" y="336.01" width="2.47" height="2.4"/><rect class="cls-8" x="40.08" y="340.07" width="2.47" height="2.4"/><rect class="cls-4" x="22.07" y="274.33" width="5.12" height="4.64"/><rect class="cls-4" x="14.65" y="274.33" width="5.12" height="4.64"/><rect class="cls-4" x="29.05" y="274.33" width="5.12" height="4.64"/><rect class="cls-6" x="13.11" y="278.24" width="23.63" height="1.45"/><rect class="cls-6" x="37.41" y="295.9" width="1.71" height="59.09"/><rect class="cls-6" x="10.81" y="295.9" width="1.71" height="59.09"/><rect class="cls-5" x="71.16" y="256.84" width="21.71" height="97.98"/><rect class="cls-5" x="68.76" y="264.54" width="26.6" height="90.28"/><path class="cls-5" d="M93.06,276H71.58c3-8.32,5.59-16.75,3.93-26.41H88.9C87.54,257.65,89.67,266.66,93.06,276Z"/><polygon class="cls-7" points="85.21 274.05 78.96 274.05 76.07 279.39 76.07 354.7 88.35 354.7 88.35 279.39 85.21 274.05"/><rect class="cls-3" x="68.76" y="264.54" width="26.6" height="2.54"/><rect class="cls-3" x="71.16" y="256.84" width="22.31" height="2.54"/><rect x="88.8" y="290.4" width="6.14" height="1.91"/><rect x="88.8" y="296.78" width="6.14" height="1.91"/><rect x="81.21" y="232.9" width="1.6" height="23.93"/><rect x="88.8" y="303.16" width="6.14" height="1.91"/><rect x="88.8" y="309.54" width="6.14" height="1.91"/><rect x="88.8" y="315.92" width="6.14" height="1.91"/><rect x="88.8" y="322.3" width="6.14" height="1.91"/><rect x="88.8" y="328.68" width="6.14" height="1.91"/><rect x="88.8" y="335.06" width="6.14" height="1.91"/><rect x="88.8" y="341.45" width="6.14" height="1.91"/><rect x="69.09" y="290.4" width="6.14" height="1.91"/><rect x="69.09" y="296.78" width="6.14" height="1.91"/><rect x="69.09" y="303.16" width="6.14" height="1.91"/><rect x="69.09" y="309.54" width="6.14" height="1.91"/><rect x="69.09" y="315.92" width="6.14" height="1.91"/><rect x="69.09" y="322.3" width="6.14" height="1.91"/><rect x="69.09" y="328.68" width="6.14" height="1.91"/><rect x="69.09" y="335.06" width="6.14" height="1.91"/><rect x="69.09" y="341.45" width="6.14" height="1.91"/><rect class="cls-9" x="79.24" y="290.53" width="6.14" height="1.91"/><rect class="cls-9" x="79.24" y="296.91" width="6.14" height="1.91"/><rect class="cls-9" x="79.24" y="303.3" width="6.14" height="1.91"/><rect class="cls-9" x="79.24" y="309.67" width="6.14" height="1.91"/><rect class="cls-9" x="79.24" y="316.06" width="6.14" height="1.91"/><rect class="cls-9" x="79.24" y="322.44" width="6.14" height="1.91"/><rect class="cls-9" x="79.24" y="328.81" width="6.14" height="1.91"/><rect class="cls-9" x="79.24" y="335.2" width="6.14" height="1.91"/><rect class="cls-9" x="79.24" y="341.57" width="6.14" height="1.91"/><rect class="cls-9" x="79.24" y="279.65" width="6.14" height="8.86"/><rect x="73.7" y="260.52" width="3.21" height="3.21"/><rect x="78.25" y="260.52" width="3.21" height="3.21"/><rect x="82.82" y="260.52" width="3.21" height="3.21"/><rect x="87.25" y="260.52" width="3.21" height="3.21"/><polygon points="61.43 307.95 49.85 307.95 55.63 303.05 55.76 303.15 61.43 307.95"/><rect x="49.85" y="307.82" width="11.58" height="6.91"/><polygon class="cls-4" points="61.43 307.95 55.79 307.95 55.79 303.11 55.76 303.11 61.43 307.95"/><rect class="cls-4" x="46.32" y="311.92" width="18.78" height="12.66"/><rect class="cls-4" x="45.16" y="324.65" width="21.93" height="30.17"/><rect class="cls-7" x="46.68" y="313.7" width="4.33" height="1.06"/><rect class="cls-3" x="55.09" y="313.7" width="9.27" height="1.06"/><rect class="cls-7" x="52.29" y="313.7" width="1.85" height="1.06"/><rect class="cls-7" x="46.68" y="316.39" width="4.33" height="1.06"/><rect class="cls-3" x="55.09" y="316.39" width="9.27" height="1.06"/><rect class="cls-7" x="52.29" y="316.39" width="1.85" height="1.06"/><rect class="cls-7" x="46.68" y="319.1" width="4.33" height="1.06"/><rect class="cls-3" x="55.09" y="319.1" width="9.27" height="1.06"/><rect class="cls-7" x="52.29" y="319.1" width="1.85" height="1.06"/><rect class="cls-7" x="46.68" y="321.8" width="4.33" height="1.06"/><rect class="cls-3" x="55.09" y="321.8" width="9.27" height="1.06"/><rect class="cls-7" x="52.29" y="321.8" width="1.85" height="1.06"/><rect class="cls-3" x="46.68" y="326.58" width="3.43" height="1.15"/><rect class="cls-3" x="46.68" y="329.12" width="3.43" height="1.15"/><rect class="cls-3" x="46.68" y="331.66" width="3.43" height="1.15"/><rect class="cls-3" x="46.68" y="334.21" width="3.43" height="1.15"/><rect class="cls-3" x="46.68" y="336.75" width="3.43" height="1.15"/><rect class="cls-3" x="46.68" y="339.29" width="3.43" height="1.15"/><rect class="cls-3" x="46.68" y="341.83" width="3.43" height="1.15"/><rect class="cls-3" x="51.49" y="324.59" width="0.46" height="30.23"/><rect class="cls-3" x="54.22" y="326.43" width="6.63" height="1.03"/><rect class="cls-3" x="54.22" y="329.18" width="6.63" height="1.03"/><rect class="cls-3" x="54.22" y="331.93" width="6.63" height="1.03"/><rect class="cls-3" x="54.22" y="334.68" width="6.63" height="1.03"/><rect class="cls-3" x="54.22" y="337.44" width="6.63" height="1.03"/><rect class="cls-3" x="54.22" y="339.98" width="6.63" height="1.03"/><rect class="cls-7" x="61.98" y="326.25" width="1.62" height="0.91"/><rect class="cls-7" x="61.98" y="328.55" width="1.62" height="0.91"/><rect class="cls-7" x="61.98" y="330.85" width="1.62" height="0.91"/><rect class="cls-7" x="61.98" y="333.15" width="1.62" height="0.91"/><rect class="cls-7" x="61.98" y="335.45" width="1.62" height="0.91"/><rect class="cls-7" x="61.98" y="337.75" width="1.62" height="0.91"/><rect class="cls-7" x="61.98" y="340.04" width="1.62" height="0.91"/><rect class="cls-7" x="61.98" y="342.34" width="1.62" height="0.91"/><rect class="cls-7" x="64.29" y="326.24" width="1.62" height="0.91"/><rect class="cls-7" x="64.29" y="328.54" width="1.62" height="0.91"/><rect class="cls-7" x="64.29" y="330.84" width="1.62" height="0.91"/><rect class="cls-7" x="64.29" y="333.14" width="1.62" height="0.91"/><rect class="cls-7" x="64.29" y="335.44" width="1.62" height="0.91"/><rect class="cls-7" x="64.29" y="337.74" width="1.62" height="0.91"/><rect class="cls-7" x="64.29" y="340.04" width="1.62" height="0.91"/><rect class="cls-7" x="64.29" y="342.33" width="1.62" height="0.91"/><polygon points="119.53 286.49 102.63 286.49 111.08 279.33 111.25 279.48 119.53 286.49"/><rect x="102.62" y="286.29" width="16.91" height="10.07"/><rect class="cls-4" x="97.48" y="292.29" width="27.42" height="18.48"/><rect class="cls-4" x="95.79" y="310.87" width="32.01" height="44.04"/><rect class="cls-7" x="98.01" y="294.88" width="6.31" height="1.55"/><rect class="cls-7" x="106.2" y="294.88" width="2.7" height="1.55"/><rect class="cls-7" x="98.01" y="298.82" width="6.31" height="1.55"/><rect class="cls-7" x="106.2" y="298.82" width="2.7" height="1.55"/><rect class="cls-7" x="98.01" y="302.77" width="6.31" height="1.55"/><rect class="cls-7" x="106.2" y="302.77" width="2.7" height="1.55"/><rect class="cls-7" x="98.01" y="306.71" width="6.31" height="1.55"/><rect class="cls-7" x="106.2" y="306.71" width="2.7" height="1.55"/><rect class="cls-3" x="98.01" y="313.68" width="5" height="1.68"/><rect class="cls-3" x="98.01" y="317.4" width="5" height="1.68"/><rect class="cls-3" x="98.01" y="321.11" width="5" height="1.68"/><rect class="cls-3" x="98.01" y="324.81" width="5" height="1.68"/><rect class="cls-3" x="98.01" y="328.53" width="5" height="1.68"/><rect class="cls-3" x="98.01" y="332.24" width="5" height="1.68"/><rect class="cls-3" x="98.01" y="335.95" width="5" height="1.68"/><rect class="cls-3" x="98.01" y="339.67" width="5" height="1.68"/><rect class="cls-3" x="105.03" y="310.77" width="0.68" height="44.13"/><rect class="cls-3" x="109.02" y="313.47" width="9.69" height="1.51"/><rect class="cls-3" x="109.02" y="317.48" width="9.69" height="1.51"/><rect class="cls-3" x="109.02" y="321.5" width="9.69" height="1.51"/><rect class="cls-3" x="109.02" y="325.52" width="9.69" height="1.51"/><rect class="cls-3" x="109.02" y="329.53" width="9.69" height="1.51"/><rect class="cls-3" x="109.02" y="333.24" width="9.69" height="1.51"/><rect class="cls-3" x="109.02" y="336.93" width="9.69" height="1.51"/><rect class="cls-3" x="109.02" y="340.64" width="9.69" height="1.51"/><rect class="cls-6" x="1.54" y="324.73" width="1.83" height="30.39"/><path class="cls-4" d="M22.17,175.16l.35.21v1h-.58Z"/><path class="cls-4" d="M23.17,176.34h-.63v-1.19l.36-.2Z"/><path class="cls-10" d="M28.06,126.52a10.67,10.67,0,0,0-2-1.14.71.71,0,0,0-.59-.07.73.73,0,0,0-.3.6,97.54,97.54,0,0,0-.53,14.31,324.64,324.64,0,0,1-2.15,36.12"/><path class="cls-11" d="M72.48,115.4a2.54,2.54,0,0,1-2.54,2.53H30.35a2.53,2.53,0,0,1-2.53-2.53v-.51H72.48A3,3,0,0,1,72.48,115.4Z"/><polygon class="cls-12" points="68.43 128.09 66.9 133.67 34.41 133.67 32.89 128.09 68.43 128.09"/><polygon class="cls-13" points="69.11 148.39 67.59 153.97 35.1 153.97 33.57 148.39 69.11 148.39"/><polygon class="cls-1" points="56.56 79.36 41.01 79.36 43.82 66.16 55.34 66.16 57.96 79.36 56.56 79.36"/></svg>