<svg id="Layer_1" data-name="Layer 1" xmlns="http://www.w3.org/2000/svg" viewBox="0 0 401 204"><defs><style>.cls-1{fill:#17ea92;}.cls-2{fill:#ffd800;}.cls-3{fill:#b2edcf;}.cls-4{fill:#c3c3c3;}.cls-5{fill:#1a1a1a;}.cls-6{fill:#305944;}</style></defs><title>Untitled-1</title><path class="cls-1" d="M390,159c0,17.67-32.74,28.9-74.28,33.63A439.23,439.23,0,0,1,254.6,195a369.14,369.14,0,0,1-56.11-5.53,381.65,381.65,0,0,1-64.3,5.72,434.66,434.66,0,0,1-51.91-2.46c-7.3-.8-14.35-1.83-21-3C40.19,185.86,23,180,14,172.17a20.19,20.19,0,0,1-6.33-8.88A14.08,14.08,0,0,1,7,160V159c0-17.87,7.49-34.49,20.33-48.34A103.54,103.54,0,0,1,45.16,95.43,114.94,114.94,0,0,1,63,60C90.63,22.78,140.41.4,196.88.4A205.18,205.18,0,0,1,227.3,2.62a165.93,165.93,0,0,1,78.26,32.27,120.52,120.52,0,0,1,40.82,57c24.7,14.82,41.1,36.51,43.45,60.84Q390,155.88,390,159Z"/><rect class="cls-2" x="66.68" y="90.03" width="85.73" height="70.52" rx="16.32" ry="16.32"/><rect x="66.68" y="87.63" width="6.97" height="70.52"/><rect x="127.83" y="90.03" width="6.97" height="70.52"/><polygon class="cls-3" points="73.65 134.5 73.65 92.05 127.8 92.05 73.65 134.5"/><ellipse cx="98.48" cy="122.89" rx="19.55" ry="20.3"/><ellipse class="cls-3" cx="98.48" cy="122.61" rx="13.74" ry="14.27"/><path class="cls-2" d="M98,108.34a14.3,14.3,0,0,0,0,28.54Z"/><path class="cls-4" d="M273.32,111a14.3,14.3,0,0,0,0,28.54Z"/><rect x="93.87" y="140.15" width="7.25" height="6.08"/><rect x="103.05" y="100.87" width="7.25" height="6.08"/><rect x="97.1" y="97.83" width="7.25" height="6.08"/><rect x="93.48" y="100.87" width="7.25" height="6.08"/><rect x="57.28" y="79.39" width="94.19" height="13.55"/><rect x="61.32" y="158.48" width="82.44" height="4.18"/><rect class="cls-2" x="242.02" y="90.06" width="85.73" height="70.52" rx="16.32" ry="16.32"/><polygon class="cls-3" points="266.63 136.3 266.63 93.85 320.78 93.85 266.63 136.3"/><polygon class="cls-5" points="197.44 164.43 197.44 121.98 251.59 121.98 197.44 164.43"/><rect class="cls-2" x="134.19" y="149.08" width="125.33" height="52.77"/><rect x="240.69" y="80.88" width="94.19" height="13.55"/><circle cx="196.22" cy="127.34" r="66.93"/><circle class="cls-3" cx="196.22" cy="127.34" r="50.86"/><path class="cls-2" d="M197.44,76.51h-1.22a50.86,50.86,0,0,0,0,101.72h1.22Z"/><rect x="320.78" y="87.63" width="6.97" height="70.52"/><rect x="250.7" y="158.48" width="82.44" height="4.18"/><rect x="259.63" y="90.06" width="6.97" height="70.52"/><rect x="252.55" y="131.32" width="6.97" height="70.52"/><rect x="134.19" y="132.51" width="6.97" height="70.52"/><ellipse cx="295.97" cy="122.89" rx="19.55" ry="20.3"/><ellipse class="cls-3" cx="295.97" cy="122.61" rx="13.74" ry="14.27"/><path class="cls-2" d="M296.77,108.34h-.83a14.3,14.3,0,0,0,0,28.57h.83Z"/><rect x="293.34" y="140.17" width="7.25" height="6.08"/><rect x="284.14" y="100.87" width="7.25" height="6.08"/><rect x="290.08" y="97.86" width="7.25" height="6.08"/><rect x="293.7" y="100.87" width="7.25" height="6.08"/><circle cx="196.58" cy="127.26" r="7.11"/><polygon class="cls-6" points="279.74 195.07 290.47 171.34 274.51 192.28 262.34 171.34 268.43 195.07 279.74 195.07"/><polygon class="cls-6" points="253.82 80.99 263.01 60.75 249.37 78.61 238.97 60.75 244.2 80.99 253.82 80.99"/><polygon class="cls-6" points="262.37 81.05 270.25 68.02 258.53 79.5 249.57 68.02 254.07 81.05 262.37 81.05"/><polygon class="cls-6" points="150.48 80 158.36 66.94 146.63 78.45 137.67 66.94 142.15 80 150.48 80"/><rect class="cls-2" x="197.21" y="53.94" width="19" height="13.03"/><rect class="cls-2" x="181.62" y="47.42" width="19" height="13.03"/><rect class="cls-2" x="188.97" y="34.42" width="19" height="13.03"/></svg>