<svg xmlns="http://www.w3.org/2000/svg" viewBox="0 0 634.69 120.37"><defs><style>.cls-1{fill:#4db8e6;}.cls-2{fill:#fff;}</style></defs><title>Asset 2</title><g id="Layer_2" data-name="Layer 2"><g id="Layer_1-2" data-name="Layer 1"><path class="cls-1" d="M402.34,105.17a7.6,7.6,0,0,0-7.6-7.6,8.57,8.57,0,0,0-2.7.5,11.55,11.55,0,0,0-19.9-4.4,10.9,10.9,0,0,0-15.2,1.6,9.74,9.74,0,0,0-1.5,2.4,8,8,0,0,0-10.9,3.4,8.19,8.19,0,0,0-.9,3.8,8.44,8.44,0,0,0,7.4,8.4c.2,0,.3.4.5.4h43.8a4,4,0,0,0,2-.9A8.49,8.49,0,0,0,402.34,105.17Z"/><path class="cls-2" d="M404.34,106.47a7.6,7.6,0,0,0-7.6-7.6,7.51,7.51,0,0,0-2.6.5,11.55,11.55,0,0,0-19.9-4.4,10.9,10.9,0,0,0-15.2,1.6,9.74,9.74,0,0,0-1.5,2.4,8,8,0,0,0-10.9,3.4,8.29,8.29,0,0,0,6.5,12c.2,0,.3.2.5.2h43.8a4.79,4.79,0,0,0,2-.7A8.06,8.06,0,0,0,404.34,106.47Z"/><path class="cls-1" d="M633,65.25a6.55,6.55,0,0,1-4,6,4.42,4.42,0,0,1-1.6.6h-35.5c-.1,0-.3-.2-.4-.2a7.28,7.28,0,0,1-2.4-.7h0a8.34,8.34,0,0,1-1.2-.8l-.8-.8h0a7,7,0,0,1-1.6-4.4,6.51,6.51,0,0,1,6.6-6.5,7.75,7.75,0,0,1,3,.7,8.63,8.63,0,0,1,7.3-5.1h.6a9.16,9.16,0,0,1,5.5,1.9,9.29,9.29,0,0,1,13.1-1.1,8.84,8.84,0,0,1,3,4.6l1.1-.3a3.4,3.4,0,0,1,1-.1,6.56,6.56,0,0,1,3.5,1.1h0c.2.2.5.3.7.6a9,9,0,0,1,.9,1v.1A4.9,4.9,0,0,1,633,65.25Z"/><path class="cls-2" d="M634.69,66.35a6.41,6.41,0,0,1-4,5.9,4.42,4.42,0,0,1-1.6.6h-35.5a1.7,1.7,0,0,1-.7.1,7.16,7.16,0,0,1-3.6-2h0a8.55,8.55,0,0,1-1.5-2.2,6.46,6.46,0,0,1-.5-2.7c.2-4.6,5.2-6.5,6.5-6.5a5.83,5.83,0,0,1,2.6.6l.4.2a8.27,8.27,0,0,1,.7-1.3,8.51,8.51,0,0,1,2.5-2.5,8.71,8.71,0,0,1,10.3.5,9.36,9.36,0,0,1,13.2-1,9.63,9.63,0,0,1,2.4,3.2,5.78,5.78,0,0,1,.5,1.4,7.79,7.79,0,0,1,2.1-.4,5.93,5.93,0,0,1,2.3.5l.2.1a5.85,5.85,0,0,1,3.7,5.5Z"/><circle class="cls-2" cx="578.29" cy="75.45" r="4"/><path class="cls-1" d="M574.69,75.65a3.85,3.85,0,1,1,7.7-.1v-.1a4,4,0,1,0-4,4h.1A3.86,3.86,0,0,1,574.69,75.65Z"/><circle class="cls-2" cx="424.54" cy="109.97" r="6.9"/><path class="cls-1" d="M418.34,110.37a6.6,6.6,0,0,1,13.2-.2V110a6.9,6.9,0,1,0-6.9,6.9h.2A6.42,6.42,0,0,1,418.34,110.37Z"/><circle class="cls-2" cx="457.54" cy="116.37" r="4"/><path class="cls-1" d="M453.94,116.57a3.85,3.85,0,0,1,7.7-.1v-.1a4,4,0,1,0-4,4h.1A3.93,3.93,0,0,1,453.94,116.57Z"/><path class="cls-1" d="M505.34,15.53a7.6,7.6,0,0,0-7.6-7.6,8.57,8.57,0,0,0-2.7.5A11.55,11.55,0,0,0,475.14,4a10.9,10.9,0,0,0-15.2,1.6,9.74,9.74,0,0,0-1.5,2.4,8,8,0,0,0-10.9,3.4,8.19,8.19,0,0,0-.9,3.8,8.44,8.44,0,0,0,7.4,8.4c.2,0,.3.4.5.4h43.8a4,4,0,0,0,2-.9A8.48,8.48,0,0,0,505.34,15.53Z"/><circle class="cls-2" cx="527.54" cy="20.33" r="6.9"/><path class="cls-1" d="M521.34,20.73a6.6,6.6,0,0,1,13.2-.2v-.2a6.9,6.9,0,1,0-6.9,6.9h.2A6.42,6.42,0,0,1,521.34,20.73Z"/><path class="cls-2" d="M507.34,16.83a7.6,7.6,0,0,0-7.6-7.6,7.51,7.51,0,0,0-2.6.5,11.55,11.55,0,0,0-19.9-4.4A10.9,10.9,0,0,0,462,6.93a9.74,9.74,0,0,0-1.5,2.4,8,8,0,0,0-10.9,3.4,8.29,8.29,0,0,0,6.5,12c.2,0,.3.2.5.2h43.8a4.79,4.79,0,0,0,2-.7A8.06,8.06,0,0,0,507.34,16.83Z"/><path class="cls-1" d="M40.71,38a5.34,5.34,0,0,0-7.1-5,8,8,0,0,0-9.9-5.5,8.5,8.5,0,0,0-4,2.5,7.47,7.47,0,0,0-10.5,1.1,5.85,5.85,0,0,0-1,1.7,5.83,5.83,0,0,0-2.6-.6c-1.2,0-5.4,1.8-5.6,5.6-.2,3.4,2.9,5.5,4.8,6.1.2.1.4.1.6.2h30.4c.5,0,1-.5,1.4-.7A6.29,6.29,0,0,0,40.71,38Z"/><path class="cls-2" d="M42.11,38.92a5.36,5.36,0,0,0-5.4-5.3h0a5.66,5.66,0,0,0-1.8.3,8.21,8.21,0,0,0-14-3,7.75,7.75,0,0,0-10.8,1.2,8.64,8.64,0,0,0-1,1.6,5.83,5.83,0,0,0-2.6-.6,5.74,5.74,0,0,0-5.7,5.6h0a5.45,5.45,0,0,0,.5,2.2A5.7,5.7,0,0,0,6,44.12c.2,0,.3.1.4.1h30.9a3.19,3.19,0,0,0,1.4-.3A5.45,5.45,0,0,0,42.11,38.92Z"/><path class="cls-1" d="M320.34,39.82a6.7,6.7,0,0,0-6.7-6.7,6.2,6.2,0,0,0-2.3.4,10.25,10.25,0,0,0-12.7-7,9.37,9.37,0,0,0-4.9,3.2,9.52,9.52,0,0,0-13.4,1.4,9.17,9.17,0,0,0-1.3,2.1,7.1,7.1,0,0,0-9.6,3,7.64,7.64,0,0,0-.8,3.3,7,7,0,0,0,6.6,7c.1,0,.3-.1.4-.1h38.8a4.67,4.67,0,0,0,1.7-.3A7,7,0,0,0,320.34,39.82Z"/><path class="cls-2" d="M322.14,41a6.7,6.7,0,0,0-6.7-6.7,6.2,6.2,0,0,0-2.3.4,10.2,10.2,0,0,0-12.6-7.1,11.38,11.38,0,0,0-5.1,3.2,9.52,9.52,0,0,0-13.4,1.4,9.17,9.17,0,0,0-1.3,2.1,7.1,7.1,0,0,0-9.6,3,7.64,7.64,0,0,0-.8,3.3,6.92,6.92,0,0,0,6.6,6.9c.1,0,.3-.2.4-.2h38.8a3.21,3.21,0,0,0,1.7-.2A6.6,6.6,0,0,0,322.14,41Z"/><path class="cls-1" d="M205.49,80.5a8.06,8.06,0,0,1-4.9,7.4,3.72,3.72,0,0,1-2,.7h-43.8c-.2,0-.3-.2-.5-.3h-.9a7.42,7.42,0,0,1-2.1-.7,8.93,8.93,0,0,1-4.2-5.5,6.8,6.8,0,0,1-.2-2,8.09,8.09,0,0,1,7.9-8.1,8.91,8.91,0,0,1,3.9.9,10.82,10.82,0,0,1,14.2-5.5,9.74,9.74,0,0,1,2.4,1.5,11.68,11.68,0,0,1,16.4-1.2,12.58,12.58,0,0,1,3.6,5.5,5.73,5.73,0,0,1,1.4-.4,4.87,4.87,0,0,1,1.2-.1,8.15,8.15,0,0,1,3.1.6,6,6,0,0,1,2.1,1.4,7.25,7.25,0,0,1,1.8,2.5A10.51,10.51,0,0,1,205.49,80.5Z"/><path class="cls-2" d="M207.49,81.9a7.46,7.46,0,0,1-4.9,7.1,3.61,3.61,0,0,1-2,.6h-43.8c-.2,0-.4.3-.7.3a4.1,4.1,0,0,1-1.1-.1,8,8,0,0,1-3.7-2.3,9.77,9.77,0,0,1-2.1-3.4,8.63,8.63,0,0,1-.4-2.8c.3-5.7,6.4-8.1,8.1-8.1a7.79,7.79,0,0,1,3.7.9,10.82,10.82,0,0,1,14.2-5.5,9.74,9.74,0,0,1,2.4,1.5,11.57,11.57,0,0,1,16.3-1.3,10.83,10.83,0,0,1,3,4,5.78,5.78,0,0,1,.6,1.7,8,8,0,0,1,4.6-.2,3.58,3.58,0,0,1,1.1.4,7.85,7.85,0,0,1,4.7,7.2Z"/><circle class="cls-2" cx="231.29" cy="74.2" r="5.3"/><path class="cls-1" d="M226.49,74.5a5.05,5.05,0,1,1,10.1-.1v-.1a5.3,5.3,0,1,0-5.3,5.3h.1A5.22,5.22,0,0,1,226.49,74.5Z"/><circle class="cls-2" cx="65.04" cy="42.1" r="3.2" transform="matrix(0.04, -1, 1, 0.04, 20.59, 105.56)"/><path class="cls-1" d="M62.21,42.22a3,3,0,0,1,6,.2h0v-.1a3.2,3.2,0,1,0-3.3,3.1H65A3.15,3.15,0,0,1,62.21,42.22Z"/><path class="cls-2" d="M507.34,16.83a7.6,7.6,0,0,0-7.6-7.6,7.51,7.51,0,0,0-2.6.5,11.55,11.55,0,0,0-19.9-4.4A10.9,10.9,0,0,0,462,6.93a9.74,9.74,0,0,0-1.5,2.4,8,8,0,0,0-10.9,3.4,8.29,8.29,0,0,0,6.5,12c.2,0,.3.2.5.2h43.8a4.79,4.79,0,0,0,2-.7A8.06,8.06,0,0,0,507.34,16.83Z"/></g></g></svg>