<?xml version="1.0" encoding="utf-8"?>
<!-- Generator: Adobe Illustrator 20.1.0, SVG Export Plug-In . SVG Version: 6.00 Build 0)  -->
<!DOCTYPE svg PUBLIC "-//W3C//DTD SVG 1.1//EN" "http://www.w3.org/Graphics/SVG/1.1/DTD/svg11.dtd">
<svg version="1.1" id="Layer_1" xmlns="http://www.w3.org/2000/svg" xmlns:xlink="http://www.w3.org/1999/xlink" x="0px" y="0px"
	 viewBox="0 0 560.5 76" style="enable-background:new 0 0 560.5 76;" xml:space="preserve">
<style type="text/css">
	.st0{opacity:0.51;}
	.st1{fill:#4DB8E6;}
	.st2{fill:#FFFFFF;}
</style>
<title>Asset 1</title>
<g id="Layer_2" class="st0">
	<g id="Layer_1-2">
		<path class="st1" d="M431.3,45.5c0-4.2-3.4-7.6-7.6-7.6l0,0c-0.9,0-1.8,0.2-2.7,0.5c-1.7-6.1-8.1-9.7-14.2-8
			c-2.2,0.6-4.2,1.9-5.7,3.6c-4.7-3.7-11.4-3-15.2,1.6c-0.6,0.7-1.1,1.5-1.5,2.4c-3.9-2.1-8.7-0.6-10.8,3.3c0,0,0,0.1-0.1,0.1
			c-0.6,1.2-0.9,2.5-0.9,3.8c0,4.3,3.2,7.9,7.4,8.4c0.2,0,0.3,0.4,0.5,0.4h43.8c0.7-0.1,1.4-0.4,2-0.9
			C429.3,51.8,431.3,48.8,431.3,45.5z"/>
		<path class="st2" d="M433.3,46.8c0-4.2-3.4-7.6-7.6-7.6l0,0c-0.9,0-1.8,0.2-2.6,0.5c-1.7-6.1-8.1-9.7-14.2-8
			c-2.2,0.6-4.2,1.9-5.7,3.6c-4.7-3.7-11.4-3-15.2,1.6c-0.6,0.7-1.1,1.5-1.5,2.4c-3.9-2.1-8.7-0.6-10.8,3.3c0,0,0,0.1-0.1,0.1
			c-2.1,4.1-0.4,9.1,3.6,11.1c0.9,0.5,1.9,0.7,2.9,0.9c0.2,0,0.3,0.2,0.5,0.2h43.8c0.7-0.1,1.4-0.3,2-0.7
			C431.4,53,433.3,50.1,433.3,46.8z"/>
		<path class="st1" d="M293,15.2c0,2.6-1.6,5-4,6c-0.5,0.3-1,0.5-1.6,0.6h-35.5c-0.1,0-0.3-0.2-0.4-0.2c-0.8-0.1-1.6-0.3-2.4-0.7
			l0,0c-0.4-0.2-0.8-0.5-1.2-0.8l-0.8-0.8l0,0c-1-1.2-1.6-2.8-1.6-4.4c0-3.6,2.9-6.5,6.5-6.5c0,0,0.1,0,0.1,0c1,0,2.1,0.3,3,0.7
			c1.3-2.9,4.1-4.9,7.3-5.1h0.6c2,0,3.9,0.7,5.5,1.9c3.3-3.9,9.2-4.4,13.1-1.1c0,0,0,0,0,0c1.5,1.2,2.5,2.8,3,4.6l1.1-0.3
			c0.3-0.1,0.7-0.1,1-0.1c1.2,0,2.5,0.4,3.5,1.1l0,0c0.2,0.2,0.5,0.3,0.7,0.6c0.3,0.3,0.6,0.6,0.9,1v0.1C292.6,12.8,293,14,293,15.2
			z"/>
		<path class="st2" d="M294.7,16.3c0,2.6-1.6,4.9-4,5.9c-0.5,0.3-1,0.5-1.6,0.6h-35.5c-0.2,0.1-0.5,0.1-0.7,0.1
			c-1.4-0.3-2.6-1-3.6-2l0,0c-0.6-0.7-1.1-1.4-1.5-2.2c-0.4-0.9-0.5-1.8-0.5-2.7c0.2-4.6,5.2-6.5,6.5-6.5c0.9,0,1.8,0.2,2.6,0.6
			l0.4,0.2c0.2-0.5,0.4-0.9,0.7-1.3c0.6-1,1.5-1.9,2.5-2.5c3.2-2.1,7.3-1.9,10.3,0.5c3.4-3.9,9.3-4.4,13.2-1c0,0,0,0,0,0
			c1,0.9,1.8,2,2.4,3.2c0.2,0.4,0.4,0.9,0.5,1.4c0.7-0.2,1.4-0.4,2.1-0.4c0.8,0,1.6,0.2,2.3,0.5l0.2,0.1
			C293.3,11.7,294.7,13.9,294.7,16.3z"/>
		<circle class="st2" cx="238.3" cy="25.4" r="4"/>
		<path class="st1" d="M234.7,25.6c0-2.1,1.7-3.9,3.8-3.9c2.1,0,3.9,1.7,3.9,3.8v-0.1c0-2.2-1.8-4-4-4s-4,1.8-4,4s1.8,4,4,4h0.1
			C236.4,29.4,234.7,27.7,234.7,25.6z"/>
		<circle class="st2" cx="453.5" cy="50.3" r="6.9"/>
		<path class="st1" d="M447.3,50.7c-0.1-3.6,2.9-6.6,6.5-6.7c3.6-0.1,6.6,2.9,6.7,6.5v-0.2c0-3.8-3.1-6.9-6.9-6.9s-6.9,3.1-6.9,6.9
			s3.1,6.9,6.9,6.9l0,0h0.2c-3.5,0-6.5-2.8-6.5-6.3C447.3,50.8,447.3,50.8,447.3,50.7z"/>
		<circle class="st2" cx="486.5" cy="56.7" r="4"/>
		<path class="st1" d="M482.9,56.9c0-2.1,1.7-3.9,3.8-3.9c2.1,0,3.9,1.7,3.9,3.8v-0.1c0-2.2-1.8-4-4-4s-4,1.8-4,4s1.8,4,4,4h0.1
			C484.6,60.7,483,59,482.9,56.9z"/>
		<path class="st1" d="M531.3,15.5c0-4.2-3.4-7.6-7.6-7.6c-0.9,0-1.8,0.2-2.7,0.5c-1.7-6.1-8.1-9.7-14.2-8c-2.2,0.6-4.2,1.9-5.7,3.6
			c-4.7-3.7-11.4-3-15.2,1.6c-0.6,0.7-1.1,1.5-1.5,2.4c-3.9-2.1-8.7-0.6-10.8,3.3c0,0,0,0.1-0.1,0.1c-0.6,1.2-0.9,2.5-0.9,3.8
			c0,4.3,3.2,7.9,7.4,8.4c0.2,0,0.3,0.4,0.5,0.4h43.8c0.7-0.1,1.4-0.4,2-0.9C529.3,21.8,531.2,18.8,531.3,15.5z"/>
		<circle class="st2" cx="553.5" cy="20.3" r="6.9"/>
		<path class="st1" d="M547.3,20.7c-0.1-3.6,2.9-6.6,6.5-6.7c3.6-0.1,6.6,2.9,6.7,6.5v-0.2c0-3.8-3.1-6.9-6.9-6.9
			c-3.8,0-6.9,3.1-6.9,6.9c0,3.8,3.1,6.9,6.9,6.9h0.2c-3.5,0-6.5-2.8-6.5-6.3C547.3,20.8,547.3,20.8,547.3,20.7z"/>
		<path class="st2" d="M533.3,16.8c0-4.2-3.4-7.6-7.6-7.6c-0.9,0-1.8,0.2-2.6,0.5c-1.7-6.1-8.1-9.7-14.2-8c-2.2,0.6-4.2,1.9-5.7,3.6
			c-4.7-3.7-11.4-3-15.2,1.6c-0.6,0.7-1.1,1.5-1.5,2.4c-3.9-2.1-8.7-0.6-10.8,3.3c0,0,0,0.1-0.1,0.1c-2.1,4.1-0.4,9.1,3.6,11.1
			c0.9,0.5,1.9,0.7,2.9,0.9c0.2,0,0.3,0.2,0.5,0.2h43.8c0.7-0.1,1.4-0.3,2-0.7C531.4,23,533.3,20.1,533.3,16.8z"/>
		<path class="st1" d="M40.7,39.7c0-2.9-2.4-5.3-5.4-5.3c-0.6,0-1.2,0.1-1.7,0.3c-1.2-4.2-5.6-6.7-9.9-5.5c0,0,0,0,0,0
			c-1.5,0.4-2.9,1.3-4,2.5c-3.2-2.6-7.9-2.1-10.5,1.1c-0.4,0.5-0.8,1.1-1,1.7c-0.8-0.4-1.7-0.6-2.6-0.6c-1.2,0-5.4,1.8-5.6,5.6
			c-0.2,3.4,2.9,5.5,4.8,6.1c0.2,0.1,0.4,0.1,0.6,0.2h30.4c0.5,0,1-0.5,1.4-0.7C39.3,44.1,40.6,42,40.7,39.7z"/>
		<path class="st2" d="M42.1,40.6c0-3-2.4-5.3-5.4-5.3l0,0c-0.6,0-1.2,0.1-1.8,0.3c-1.3-4.3-5.9-6.8-10.3-5.4
			c-1.4,0.4-2.7,1.3-3.7,2.4c-3.3-2.6-8.1-2.1-10.8,1.2c-0.4,0.5-0.7,1-1,1.6c-0.8-0.4-1.7-0.6-2.6-0.6c-3.1,0-5.6,2.5-5.7,5.6l0,0
			c0,0.8,0.2,1.5,0.5,2.2c0.9,1.8,2.7,3,4.7,3.2c0.2,0,0.3,0.1,0.4,0.1h30.9c0.5,0,1-0.1,1.4-0.3C40.7,44.8,42.1,42.8,42.1,40.6z"/>
		<path class="st1" d="M215.9,68.3c0-3.7-3-6.7-6.7-6.7c-0.8,0-1.6,0.1-2.3,0.4c-1.6-5.4-7.3-8.6-12.7-7c0,0,0,0,0,0
			c-1.9,0.5-3.7,1.6-4.9,3.2c-4.1-3.3-10.1-2.7-13.4,1.4c0,0,0,0,0,0c-0.5,0.6-1,1.3-1.3,2.1c-3.5-1.8-7.8-0.5-9.6,3c0,0,0,0,0,0
			c-0.5,1-0.8,2.2-0.8,3.3c0,3.7,2.9,6.8,6.6,7c0.1,0,0.3-0.1,0.4-0.1H210c0.6,0,1.2-0.1,1.7-0.3C214.2,73.5,215.9,71.1,215.9,68.3z
			"/>
		<path class="st2" d="M217.7,69.5c0-3.7-3-6.7-6.7-6.7c-0.8,0-1.6,0.1-2.3,0.4c-1.5-5.4-7.1-8.6-12.5-7.1c0,0,0,0-0.1,0
			c-2,0.6-3.7,1.7-5.1,3.2c-4.1-3.3-10.1-2.7-13.4,1.4c0,0,0,0,0,0c-0.5,0.6-1,1.3-1.3,2.1c-3.5-1.8-7.8-0.5-9.6,3c0,0,0,0,0,0
			c-0.5,1-0.8,2.2-0.8,3.3c0,3.7,2.9,6.7,6.6,6.9c0.1,0,0.3-0.2,0.4-0.2h38.8c0.6,0.1,1.2,0,1.7-0.2C216,74.7,217.7,72.3,217.7,69.5
			z"/>
		<path class="st1" d="M140.8,25.7c0,3.2-1.9,6.1-4.9,7.4c-0.6,0.4-1.3,0.7-2,0.7H90.1c-0.2,0-0.3-0.2-0.5-0.3h-0.9
			c-0.7-0.1-1.4-0.4-2.1-0.7c-2.1-1.2-3.6-3.2-4.2-5.5c-0.2-0.7-0.2-1.3-0.2-2c0-4.4,3.5-8,7.9-8.1c1.4,0,2.7,0.3,3.9,0.9
			c2.4-5.4,8.8-7.9,14.2-5.5c0.9,0.4,1.7,0.9,2.4,1.5c4.2-4.8,11.5-5.4,16.4-1.2c1.7,1.5,2.9,3.4,3.6,5.5c0.4-0.2,0.9-0.3,1.4-0.4
			c0.4-0.1,0.8-0.1,1.2-0.1c1.1,0,2.1,0.2,3.1,0.6c0.8,0.3,1.5,0.8,2.1,1.4c0.8,0.7,1.4,1.5,1.8,2.5
			C140.6,23.5,140.8,24.6,140.8,25.7z"/>
		<path class="st2" d="M142.8,27.1c0,3.2-1.9,6-4.9,7.1c-0.6,0.4-1.3,0.6-2,0.6H92.1c-0.2,0-0.4,0.3-0.7,0.3c-0.4,0-0.7,0-1.1-0.1
			c-1.4-0.4-2.7-1.2-3.7-2.3c-0.9-1-1.6-2.1-2.1-3.4c-0.3-0.9-0.4-1.9-0.4-2.8c0.3-5.7,6.4-8.1,8.1-8.1c1.3,0,2.6,0.3,3.7,0.9
			c2.4-5.4,8.8-7.9,14.2-5.5c0.9,0.4,1.7,0.9,2.4,1.5c4.1-4.9,11.4-5.4,16.3-1.3c1.3,1.1,2.3,2.5,3,4c0.3,0.5,0.5,1.1,0.6,1.7
			c1.5-0.5,3.1-0.6,4.6-0.2c0.4,0.1,0.8,0.2,1.1,0.4C141,21.2,142.8,24,142.8,27.1L142.8,27.1z"/>
		<circle class="st2" cx="166.6" cy="19.4" r="5.3"/>
		<path class="st1" d="M161.8,19.7c0-2.8,2.2-5.1,5-5.1c2.8,0,5.1,2.2,5.1,5v-0.1c0-2.9-2.4-5.3-5.3-5.3s-5.3,2.4-5.3,5.3
			s2.4,5.3,5.3,5.3h0.1C164,24.7,161.9,22.4,161.8,19.7z"/>
		
			<ellipse transform="matrix(3.996804e-02 -0.9992 0.9992 3.996804e-02 18.7947 107.4063)" class="st2" cx="65.3" cy="43.9" rx="3.2" ry="3.2"/>
		<path class="st1" d="M62.2,43.9c0.1-1.7,1.4-3,3.1-2.9c1.7,0.1,3,1.4,2.9,3.1l0,0V44c0.1-1.8-1.3-3.2-3.1-3.3
			c-1.8-0.1-3.2,1.3-3.3,3.1c-0.1,1.8,1.3,3.2,3.1,3.3H65C63.4,46.9,62.2,45.5,62.2,43.9z"/>
		<path class="st2" d="M533.3,16.8c0-4.2-3.4-7.6-7.6-7.6c-0.9,0-1.8,0.2-2.6,0.5c-1.7-6.1-8.1-9.7-14.2-8c-2.2,0.6-4.2,1.9-5.7,3.6
			c-4.7-3.7-11.4-3-15.2,1.6c-0.6,0.7-1.1,1.5-1.5,2.4c-3.9-2.1-8.7-0.6-10.8,3.3c0,0,0,0.1-0.1,0.1c-2.1,4.1-0.4,9.1,3.6,11.1
			c0.9,0.5,1.9,0.7,2.9,0.9c0.2,0,0.3,0.2,0.5,0.2h43.8c0.7-0.1,1.4-0.3,2-0.7C531.4,23,533.3,20.1,533.3,16.8z"/>
	</g>
</g>
</svg>
