<?xml version="1.0" encoding="utf-8"?>
<!-- Generator: Adobe Illustrator 20.1.0, SVG Export Plug-In . SVG Version: 6.00 Build 0)  -->
<!DOCTYPE svg PUBLIC "-//W3C//DTD SVG 1.1//EN" "http://www.w3.org/Graphics/SVG/1.1/DTD/svg11.dtd">
<svg version="1.1" id="Layer_1" xmlns="http://www.w3.org/2000/svg" xmlns:xlink="http://www.w3.org/1999/xlink" x="0px" y="0px"
	 viewBox="0 0 60.4 26.8" style="enable-background:new 0 0 60.4 26.8;" xml:space="preserve">
<style type="text/css">
	.st0{opacity:0.15;}
	.st1{fill:#50B8E5;}
	.st2{fill:#FFFFFF;}
</style>
<title>Asset 1</title>
<g class="st0">
	<path class="st1" d="M58.3,17.3c0,3.2-1.9,6.1-4.9,7.4c-0.6,0.4-1.3,0.6-2,0.7H7.9c-0.1,0-0.4-0.2-0.5-0.2c-1-0.1-2-0.4-2.9-0.9
		l0,0c-0.5-0.3-1-0.6-1.5-1l-1-1l0,0C0.7,20.9,0,18.9,0,17c0-4.4,3.6-8,8-8c0,0,0.1,0,0.1,0c1.3,0,2.5,0.3,3.7,0.9
		c1.6-3.6,5-6,9-6.3h0.7c2.4,0,4.8,0.8,6.8,2.3c4.1-4.8,11.3-5.4,16.1-1.4c0,0,0,0,0,0C46.1,6,47.4,8,48,10.2l1.4-0.4
		c0.4-0.1,0.8-0.1,1.2-0.1c1.5,0,3,0.5,4.3,1.4l0,0c0.2,0.2,0.6,0.4,0.9,0.7c0.4,0.4,0.8,0.8,1.1,1.2v0.1
		C57.8,14.3,58.4,15.8,58.3,17.3z"/>
	<path class="st2" d="M60.4,18.7c0,3.2-2,6-4.9,7.2c-0.6,0.4-1.3,0.6-2,0.7H9.9c-0.3,0.1-0.6,0.1-0.9,0.1c-1.7-0.4-3.2-1.2-4.4-2.5
		l0,0c-0.8-0.8-1.4-1.7-1.8-2.7c-0.4-1-0.6-2.2-0.6-3.3c0.2-5.6,6.4-8,8-8c1.1,0,2.2,0.2,3.2,0.7l0.5,0.2c0.2-0.6,0.5-1.1,0.9-1.6
		c0.8-1.2,1.8-2.3,3.1-3.1c3.9-2.6,9-2.3,12.6,0.6C34.6,2.5,41.8,1.9,46.6,6c0,0,0,0,0,0c1.2,1.1,2.3,2.4,2.9,3.9
		c0.3,0.5,0.5,1.1,0.6,1.7c0.8-0.3,1.7-0.4,2.6-0.5c1,0,1.9,0.2,2.8,0.6l0.2,0.1C58.6,13,60.4,15.7,60.4,18.7z"/>
</g>
</svg>
