<?xml version="1.0" encoding="utf-8"?>
<!-- Generator: Adobe Illustrator 20.1.0, SVG Export Plug-In . SVG Version: 6.00 Build 0)  -->
<!DOCTYPE svg PUBLIC "-//W3C//DTD SVG 1.1//EN" "http://www.w3.org/Graphics/SVG/1.1/DTD/svg11.dtd">
<svg version="1.1" id="Layer_1" xmlns="http://www.w3.org/2000/svg" xmlns:xlink="http://www.w3.org/1999/xlink" x="0px" y="0px"
	 viewBox="0 0 512 512" style="enable-background:new 0 0 512 512;" xml:space="preserve">
<style type="text/css">
	.st0{opacity:0.87;fill:#F4F4F4;}
	.st1{opacity:0.87;fill:#E8E8E8;}
</style>
<path class="st0" d="M510.9,196.6c-2.7-8.4-10-14.6-18.8-15.8l-148.7-21.6L276.9,24.4c-3.9-7.9-12-13-20.9-13s-17,5-20.9,13
	l-66.5,134.8L19.9,180.7c-8.8,1.3-16.1,7.4-18.8,15.8c-2.7,8.4-0.5,17.7,5.9,23.9l107.6,104.9L89.2,473.4
	c-1.5,8.7,2.1,17.6,9.3,22.8c7.2,5.2,16.7,5.9,24.5,1.8L256,428l133,69.9c3.4,1.8,7.1,2.7,10.8,2.7c0,0,0.1,0,0.1,0
	c12.8,0,23.2-10.4,23.2-23.3c0-1.8-0.2-3.5-0.6-5.2l-25.2-146.8L505,220.4C511.3,214.2,513.6,205,510.9,196.6z"/>
<path class="st1" d="M235.1,24.4l-66.5,134.8L19.9,180.7c-8.8,1.3-16.1,7.4-18.8,15.8c-2.7,8.4-0.5,17.7,5.9,23.9l107.6,104.9
	L89.2,473.4c-1.5,8.7,2.1,17.6,9.3,22.8c7.2,5.2,16.7,5.9,24.5,1.8L256,428V11.4C247.1,11.4,239,16.4,235.1,24.4z"/>
</svg>
