<?xml version="1.0" encoding="utf-8"?>
<!-- Generator: Adobe Illustrator 20.1.0, SVG Export Plug-In . SVG Version: 6.00 Build 0)  -->
<!DOCTYPE svg PUBLIC "-//W3C//DTD SVG 1.1//EN" "http://www.w3.org/Graphics/SVG/1.1/DTD/svg11.dtd">
<svg version="1.1" id="Layer_1" xmlns="http://www.w3.org/2000/svg" xmlns:xlink="http://www.w3.org/1999/xlink" x="0px" y="0px"
	 viewBox="0 0 60.6 60.6" style="enable-background:new 0 0 60.6 60.6;" xml:space="preserve">
<style type="text/css">
	.st0{fill:#f2f2f2;}
</style>
<g>
	<path class="st0" d="M26.5,27.5l12.3,11.4l19.1-21.2c-2.3-5-5.9-9.2-10.3-12.3L26.5,27.5z"/>
	<path class="st0" d="M11,37.5L43.6,3c-4-2-8.5-3-13.3-3C15.4,0,3,10.7,0.5,24.9L11,37.5z"/>
	<path class="st0" d="M52.2,51.3c5.2-5.4,8.4-12.8,8.4-20.9c0-2.7-0.4-5.3-1-7.8L42.2,42L52.2,51.3z"/>
	<path class="st0" d="M7.9,40.9L0,31.5c0.2,5,1.6,9.7,3.9,13.8L7.9,40.9z"/>
	<path class="st0" d="M23.4,30.8L6.5,49.1c5.6,7,14.2,11.5,23.8,11.5c7,0,13.4-2.4,18.5-6.3L23.4,30.8z"/>
</g>
</svg>