<svg id="Layer_1" data-name="Layer 1" xmlns="http://www.w3.org/2000/svg" viewBox="0 0 60.4 26.8"><defs><style>.cls-1{opacity:0.15;}.cls-2{fill:#50b8e5;}.cls-3{fill:#fff;}</style></defs><title>Artboard 1</title><g class="cls-1"><path class="cls-2" d="M7.52,2.33A8,8,0,0,1,12.44-5a5.43,5.43,0,0,1,2-.74H58c.12,0,.37.25.49.25a8.94,8.94,0,0,1,2.95.86h0a10.24,10.24,0,0,1,1.47,1l1,1h0a8.59,8.59,0,0,1,2,5.4,8,8,0,0,1-8,8h-.1a9.51,9.51,0,0,1-3.68-.86,10.59,10.59,0,0,1-9,6.26h-.74a11.25,11.25,0,0,1-6.75-2.33,11.4,11.4,0,0,1-16.07,1.36h0a10.85,10.85,0,0,1-3.68-5.65l-1.35.37a4.17,4.17,0,0,1-1.23.12A8.05,8.05,0,0,1,11,8.59h0c-.25-.25-.61-.37-.86-.74A11,11,0,0,1,9,6.63V6.51A6,6,0,0,1,7.52,2.33Z"/><path class="cls-3" d="M5.44,1a7.87,7.87,0,0,1,4.91-7.24,5.43,5.43,0,0,1,2-.74H55.89a2.09,2.09,0,0,1,.86-.12,8.79,8.79,0,0,1,4.42,2.46h0A10.5,10.5,0,0,1,63-2a7.93,7.93,0,0,1,.61,3.31c-.25,5.65-6.38,8-8,8a7.16,7.16,0,0,1-3.19-.74L52,8.35a10.15,10.15,0,0,1-.86,1.6A10.45,10.45,0,0,1,48,13a10.69,10.69,0,0,1-12.64-.61,11.49,11.49,0,0,1-16.2,1.23h0A11.82,11.82,0,0,1,16.24,9.7,7.1,7.1,0,0,1,15.63,8,9.56,9.56,0,0,1,13,8.47a7.28,7.28,0,0,1-2.82-.61L10,7.74A7.18,7.18,0,0,1,5.44,1Z"/></g></svg>