<?xml version="1.0" encoding="utf-8"?>
<!-- Generator: Adobe Illustrator 20.1.0, SVG Export Plug-In . SVG Version: 6.00 Build 0)  -->
<!DOCTYPE svg PUBLIC "-//W3C//DTD SVG 1.1//EN" "http://www.w3.org/Graphics/SVG/1.1/DTD/svg11.dtd">
<svg version="1.1" id="Layer_1" xmlns="http://www.w3.org/2000/svg" xmlns:xlink="http://www.w3.org/1999/xlink" x="0px" y="0px"
	 viewBox="0 0 60.4 26.8" style="enable-background:new 0 0 60.4 26.8;" xml:space="preserve">
<style type="text/css">
	.st0{opacity:0.15;}
	.st1{fill:#50B8E5;}
	.st2{fill:#FFFFFF;}
</style>
<title>Artboard 1</title>
<g class="st0">
	<path class="st1" d="M2,4.6c0-3.2,2-6.1,4.9-7.3c0.6-0.4,1.3-0.6,2-0.7h43.6c0.1,0,0.4,0.2,0.5,0.2c1,0.1,2,0.4,3,0.9l0,0
		c0.5,0.3,1,0.6,1.5,1l1,1l0,0c1.3,1.5,2,3.4,2,5.4c0,4.4-3.6,8-8,8h-0.1c-1.3,0-2.5-0.3-3.7-0.9c-1.6,3.6-5.1,6-9,6.3h-0.7
		c-2.4,0-4.8-0.8-6.8-2.3c-4.1,4.8-11.3,5.4-16.1,1.4c0,0,0,0,0,0l0,0C14.3,16,13,14,12.4,11.8l-1.4,0.4c-0.4,0.1-0.8,0.1-1.2,0.1
		c-1.5-0.1-3-0.6-4.3-1.5l0,0c-0.2-0.2-0.6-0.4-0.9-0.7C4.3,9.7,3.9,9.3,3.5,8.9V8.8C2.5,7.6,2,6.1,2,4.6z"/>
	<path class="st2" d="M0,3.2c0-3.2,2-6,4.9-7.2c0.6-0.4,1.3-0.6,2-0.7h43.5c0.3-0.1,0.6-0.1,0.9-0.1c1.7,0.4,3.2,1.2,4.4,2.5l0,0
		c0.7,0.8,1.4,1.7,1.8,2.6c0.4,1,0.6,2.2,0.6,3.3c-0.2,5.6-6.4,8-8,8c-1.1,0-2.2-0.3-3.2-0.7l-0.4-0.2c-0.2,0.6-0.5,1.1-0.9,1.6
		c-0.8,1.2-1.9,2.3-3.1,3c-3.9,2.6-9,2.3-12.6-0.6c-4.1,4.8-11.4,5.4-16.2,1.2l0,0c-1.2-1.1-2.2-2.4-2.9-3.9
		c-0.3-0.5-0.5-1.1-0.6-1.7c-0.9,0.3-1.7,0.4-2.6,0.5c-1,0-1.9-0.2-2.8-0.6L4.5,10C1.8,8.9-0.1,6.2,0,3.2z"/>
</g>
</svg>
