<?xml version="1.0" encoding="utf-8"?>
<!-- Generator: Adobe Illustrator 20.1.0, SVG Export Plug-In . SVG Version: 6.00 Build 0)  -->
<!DOCTYPE svg PUBLIC "-//W3C//DTD SVG 1.1//EN" "http://www.w3.org/Graphics/SVG/1.1/DTD/svg11.dtd">
<svg version="1.1" id="Layer_1" xmlns="http://www.w3.org/2000/svg" xmlns:xlink="http://www.w3.org/1999/xlink" x="0px" y="0px"
	 viewBox="0 0 1280 724.5" style="enable-background:new 0 0 1280 724.5;" xml:space="preserve">
<style type="text/css">
	.st0{fill:url(#SVGID_1_);stroke:#FCDD5E;stroke-width:0.25;stroke-miterlimit:10;}
	.st1{fill:url(#SVGID_2_);stroke:#FCDD5E;stroke-width:0.25;stroke-miterlimit:10;}
	.st2{fill:url(#SVGID_3_);stroke:#FCDD5E;stroke-width:0.25;stroke-miterlimit:10;}
	.st3{fill:url(#SVGID_4_);stroke:#FCDD5E;stroke-width:0.25;stroke-miterlimit:10;}
	.st4{fill:url(#SVGID_5_);stroke:#FCDD5E;stroke-width:0.25;stroke-miterlimit:10;}
	.st5{fill:url(#SVGID_6_);stroke:#FCDD5E;stroke-width:0.25;stroke-miterlimit:10;}
	.st6{fill:url(#SVGID_7_);stroke:#FCDD5E;stroke-width:0.25;stroke-miterlimit:10;}
	.st7{fill:url(#SVGID_8_);stroke:#FCDD5E;stroke-width:0.25;stroke-miterlimit:10;}
	.st8{fill:url(#SVGID_9_);stroke:#FCDD5E;stroke-width:0.25;stroke-miterlimit:10;}
	.st9{fill:url(#SVGID_10_);stroke:#FCDD5E;stroke-width:0.25;stroke-miterlimit:10;}
	.st10{fill:url(#SVGID_11_);stroke:#FCDD5E;stroke-width:0.25;stroke-miterlimit:10;}
	.st11{fill:url(#SVGID_12_);stroke:#FCDD5E;stroke-width:0.25;stroke-miterlimit:10;}
	.st12{fill:url(#SVGID_13_);stroke:#FCDD5E;stroke-width:0.25;stroke-miterlimit:10;}
	.st13{fill:url(#SVGID_14_);stroke:#FCDD5E;stroke-width:0.25;stroke-miterlimit:10;}
	.st14{fill:url(#SVGID_15_);stroke:#FCDD5E;stroke-width:0.25;stroke-miterlimit:10;}
	.st15{fill:url(#SVGID_16_);stroke:#FCDD5E;stroke-width:0.25;stroke-miterlimit:10;}
	.st16{fill:url(#SVGID_17_);stroke:#FCDD5E;stroke-width:0.25;stroke-miterlimit:10;}
	.st17{fill:url(#SVGID_18_);stroke:#FCDD5E;stroke-width:0.25;stroke-miterlimit:10;}
	.st18{fill:url(#SVGID_19_);stroke:#FCDD5E;stroke-width:0.25;stroke-miterlimit:10;}
	.st19{fill:url(#SVGID_20_);stroke:#FCDD5E;stroke-width:0.25;stroke-miterlimit:10;}
	.st20{fill:url(#SVGID_21_);stroke:#FCDD5E;stroke-width:0.25;stroke-miterlimit:10;}
	.st21{fill:url(#SVGID_22_);stroke:#FCDD5E;stroke-width:0.25;stroke-miterlimit:10;}
	.st22{fill:url(#SVGID_23_);stroke:#FCDD5E;stroke-width:0.25;stroke-miterlimit:10;}
	.st23{fill:url(#SVGID_24_);stroke:#FCDD5E;stroke-width:0.25;stroke-miterlimit:10;}
	.st24{fill:url(#SVGID_25_);stroke:#FCDD5E;stroke-width:0.25;stroke-miterlimit:10;}
	.st25{fill:url(#SVGID_26_);stroke:#FCDD5E;stroke-width:0.25;stroke-miterlimit:10;}
	.st26{fill:url(#SVGID_27_);stroke:#FCDD5E;stroke-width:0.25;stroke-miterlimit:10;}
	.st27{fill:url(#SVGID_28_);stroke:#FCDD5E;stroke-width:0.25;stroke-miterlimit:10;}
	.st28{fill:url(#SVGID_29_);stroke:#FCDD5E;stroke-width:0.25;stroke-miterlimit:10;}
	.st29{fill:url(#SVGID_30_);stroke:#FCDD5E;stroke-width:0.25;stroke-miterlimit:10;}
	.st30{fill:url(#SVGID_31_);stroke:#FCDD5E;stroke-width:0.25;stroke-miterlimit:10;}
	.st31{fill:url(#SVGID_32_);stroke:#FCDD5E;stroke-width:0.25;stroke-miterlimit:10;}
	.st32{fill:url(#SVGID_33_);stroke:#FCDD5E;stroke-width:0.25;stroke-miterlimit:10;}
	.st33{fill:url(#SVGID_34_);stroke:#FCDD5E;stroke-width:0.25;stroke-miterlimit:10;}
	.st34{fill:url(#SVGID_35_);stroke:#FCDD5E;stroke-width:0.25;stroke-miterlimit:10;}
	.st35{fill:url(#SVGID_36_);stroke:#FCDD5E;stroke-width:0.25;stroke-miterlimit:10;}
	.st36{fill:url(#SVGID_37_);stroke:#FCDD5E;stroke-width:0.25;stroke-miterlimit:10;}
	.st37{fill:url(#SVGID_38_);stroke:#FCDD5E;stroke-width:0.25;stroke-miterlimit:10;}
	.st38{fill:url(#SVGID_39_);stroke:#FCDD5E;stroke-width:0.25;stroke-miterlimit:10;}
	.st39{fill:url(#SVGID_40_);stroke:#FCDD5E;stroke-width:0.25;stroke-miterlimit:10;}
	.st40{fill:url(#SVGID_41_);stroke:#FCDD5E;stroke-width:0.25;stroke-miterlimit:10;}
	.st41{fill:url(#SVGID_42_);stroke:#FCDD5E;stroke-width:0.25;stroke-miterlimit:10;}
	.st42{fill:url(#SVGID_43_);stroke:#FCDD5E;stroke-width:0.25;stroke-miterlimit:10;}
	.st43{fill:url(#SVGID_44_);stroke:#FCDD5E;stroke-width:0.25;stroke-miterlimit:10;}
	.st44{fill:url(#SVGID_45_);stroke:#FCDD5E;stroke-width:0.25;stroke-miterlimit:10;}
	.st45{fill:url(#SVGID_46_);stroke:#FCDD5E;stroke-width:0.25;stroke-miterlimit:10;}
	.st46{fill:url(#SVGID_47_);stroke:#FCDD5E;stroke-width:0.25;stroke-miterlimit:10;}
	.st47{fill:url(#SVGID_48_);stroke:#FCDD5E;stroke-width:0.25;stroke-miterlimit:10;}
	.st48{fill:url(#SVGID_49_);stroke:#FCDD5E;stroke-width:0.25;stroke-miterlimit:10;}
	.st49{fill:url(#SVGID_50_);stroke:#FCDD5E;stroke-width:0.25;stroke-miterlimit:10;}
	.st50{fill:url(#SVGID_51_);stroke:#FCDD5E;stroke-width:0.25;stroke-miterlimit:10;}
	.st51{fill:url(#SVGID_52_);stroke:#FCDD5E;stroke-width:0.25;stroke-miterlimit:10;}
	.st52{fill:url(#SVGID_53_);stroke:#FCDD5E;stroke-width:0.25;stroke-miterlimit:10;}
	.st53{fill:url(#SVGID_54_);stroke:#FCDD5E;stroke-width:0.25;stroke-miterlimit:10;}
	.st54{fill:url(#SVGID_55_);stroke:#FCDD5E;stroke-width:0.25;stroke-miterlimit:10;}
	.st55{fill:url(#SVGID_56_);stroke:#FCDD5E;stroke-width:0.25;stroke-miterlimit:10;}
	.st56{fill:url(#SVGID_57_);stroke:#FCDD5E;stroke-width:0.25;stroke-miterlimit:10;}
	.st57{fill:url(#SVGID_58_);stroke:#FCDD5E;stroke-width:0.25;stroke-miterlimit:10;}
	.st58{fill:url(#SVGID_59_);stroke:#FCDD5E;stroke-width:0.25;stroke-miterlimit:10;}
	.st59{fill:url(#SVGID_60_);stroke:#FCDD5E;stroke-width:0.25;stroke-miterlimit:10;}
	.st60{fill:url(#SVGID_61_);stroke:#FCDD5E;stroke-width:0.25;stroke-miterlimit:10;}
	.st61{fill:url(#SVGID_62_);stroke:#FCDD5E;stroke-width:0.25;stroke-miterlimit:10;}
	.st62{fill:url(#SVGID_63_);stroke:#FCDD5E;stroke-width:0.25;stroke-miterlimit:10;}
	.st63{fill:url(#SVGID_64_);stroke:#FCDD5E;stroke-width:0.25;stroke-miterlimit:10;}
	.st64{fill:url(#SVGID_65_);stroke:#FCDD5E;stroke-width:0.25;stroke-miterlimit:10;}
	.st65{fill:url(#SVGID_66_);stroke:#FCDD5E;stroke-width:0.25;stroke-miterlimit:10;}
	.st66{fill:url(#SVGID_67_);stroke:#FCDD5E;stroke-width:0.25;stroke-miterlimit:10;}
	.st67{fill:url(#SVGID_68_);stroke:#FCDD5E;stroke-width:0.25;stroke-miterlimit:10;}
	.st68{fill:url(#SVGID_69_);stroke:#FCDD5E;stroke-width:0.25;stroke-miterlimit:10;}
	.st69{fill:url(#SVGID_70_);stroke:#FCDD5E;stroke-width:0.25;stroke-miterlimit:10;}
	.st70{fill:url(#SVGID_71_);stroke:#FCDD5E;stroke-width:0.25;stroke-miterlimit:10;}
	.st71{fill:url(#SVGID_72_);stroke:#FCDD5E;stroke-width:0.25;stroke-miterlimit:10;}
	.st72{fill:url(#SVGID_73_);stroke:#FCDD5E;stroke-width:0.25;stroke-miterlimit:10;}
	.st73{fill:url(#SVGID_74_);stroke:#FCDD5E;stroke-width:0.25;stroke-miterlimit:10;}
	.st74{fill:url(#SVGID_75_);stroke:#FCDD5E;stroke-width:0.25;stroke-miterlimit:10;}
	.st75{fill:url(#SVGID_76_);stroke:#FCDD5E;stroke-width:0.25;stroke-miterlimit:10;}
	.st76{fill:url(#SVGID_77_);stroke:#FCDD5E;stroke-width:0.25;stroke-miterlimit:10;}
	.st77{fill:url(#SVGID_78_);stroke:#FCDD5E;stroke-width:0.25;stroke-miterlimit:10;}
	.st78{fill:url(#SVGID_79_);stroke:#FCDD5E;stroke-width:0.25;stroke-miterlimit:10;}
	.st79{fill:url(#SVGID_80_);stroke:#FCDD5E;stroke-width:0.25;stroke-miterlimit:10;}
	.st80{fill:url(#SVGID_81_);stroke:#FCDD5E;stroke-width:0.25;stroke-miterlimit:10;}
	.st81{fill:url(#SVGID_82_);stroke:#FCDD5E;stroke-width:0.25;stroke-miterlimit:10;}
	.st82{fill:url(#SVGID_83_);stroke:#FCDD5E;stroke-width:0.25;stroke-miterlimit:10;}
	.st83{fill:url(#SVGID_84_);stroke:#FCDD5E;stroke-width:0.25;stroke-miterlimit:10;}
	.st84{fill:url(#SVGID_85_);stroke:#FCDD5E;stroke-width:0.25;stroke-miterlimit:10;}
	.st85{fill:url(#SVGID_86_);stroke:#FCDD5E;stroke-width:0.25;stroke-miterlimit:10;}
	.st86{fill:url(#SVGID_87_);stroke:#FCDD5E;stroke-width:0.25;stroke-miterlimit:10;}
	.st87{fill:url(#SVGID_88_);stroke:#FCDD5E;stroke-width:0.25;stroke-miterlimit:10;}
	.st88{fill:url(#SVGID_89_);stroke:#FCDD5E;stroke-width:0.25;stroke-miterlimit:10;}
	.st89{fill:url(#SVGID_90_);stroke:#FCDD5E;stroke-width:0.25;stroke-miterlimit:10;}
	.st90{fill:url(#SVGID_91_);stroke:#FCDD5E;stroke-width:0.25;stroke-miterlimit:10;}
	.st91{fill:url(#SVGID_92_);stroke:#FCDD5E;stroke-width:0.25;stroke-miterlimit:10;}
	.st92{fill:url(#SVGID_93_);stroke:#FCDD5E;stroke-width:0.25;stroke-miterlimit:10;}
	.st93{fill:url(#SVGID_94_);stroke:#FCDD5E;stroke-width:0.25;stroke-miterlimit:10;}
	.st94{fill:url(#SVGID_95_);stroke:#FCDD5E;stroke-width:0.25;stroke-miterlimit:10;}
	.st95{fill:url(#SVGID_96_);stroke:#FCDD5E;stroke-width:0.25;stroke-miterlimit:10;}
	.st96{fill:url(#SVGID_97_);stroke:#FCDD5E;stroke-width:0.25;stroke-miterlimit:10;}
	.st97{fill:url(#SVGID_98_);stroke:#FCDD5E;stroke-width:0.25;stroke-miterlimit:10;}
	.st98{fill:url(#SVGID_99_);stroke:#FCDD5E;stroke-width:0.25;stroke-miterlimit:10;}
	.st99{fill:url(#SVGID_100_);stroke:#FCDD5E;stroke-width:0.25;stroke-miterlimit:10;}
	.st100{fill:url(#SVGID_101_);stroke:#FCDD5E;stroke-width:0.25;stroke-miterlimit:10;}
	.st101{fill:url(#SVGID_102_);stroke:#FCDD5E;stroke-width:0.25;stroke-miterlimit:10;}
	.st102{fill:url(#SVGID_103_);stroke:#FCDD5E;stroke-width:0.25;stroke-miterlimit:10;}
	.st103{fill:url(#SVGID_104_);stroke:#FCDD5E;stroke-width:0.25;stroke-miterlimit:10;}
	.st104{fill:url(#SVGID_105_);stroke:#FCDD5E;stroke-width:0.25;stroke-miterlimit:10;}
	.st105{fill:url(#SVGID_106_);stroke:#FCDD5E;stroke-width:0.25;stroke-miterlimit:10;}
	.st106{fill:url(#SVGID_107_);stroke:#FCDD5E;stroke-width:0.25;stroke-miterlimit:10;}
	.st107{fill:url(#SVGID_108_);stroke:#FCDD5E;stroke-width:0.25;stroke-miterlimit:10;}
</style>
<radialGradient id="SVGID_1_" cx="285.7463" cy="74.35" r="2.8513" gradientUnits="userSpaceOnUse">
	<stop  offset="0" style="stop-color:#FFFFDB"/>
	<stop  offset="1" style="stop-color:#EEFFE3"/>
</radialGradient>
<path class="st0" d="M282.4,76.2l3.6-4.1c1.9,0.8,3.5,1.1,3,1.9c-0.8,1.3-2.3,2.6-2.3,2.6S284.8,76,282.4,76.2z"/>
<radialGradient id="SVGID_2_" cx="300.3" cy="62.1383" r="11.7401" gradientUnits="userSpaceOnUse">
	<stop  offset="0" style="stop-color:#FFFFDB"/>
	<stop  offset="1" style="stop-color:#EEFFE3"/>
</radialGradient>
<path class="st1" d="M290,71.8c-1-0.3-2-0.6-3-1l16-18.6l10.6,9.1c-2.5,1.4-3.4,3.7-4.7,3.8c-1.8,0.3-4,1.1-5.5-0.3
	c-1.6-1.3-11.1-4.2-8.4-2.1c2.6,2.1,7.4,2.1,5.5,3.4C298.7,67.6,295.8,73.4,290,71.8z"/>
<radialGradient id="SVGID_3_" cx="198.8182" cy="180.5071" r="159.8206" gradientUnits="userSpaceOnUse">
	<stop  offset="0" style="stop-color:#FFFFDB"/>
	<stop  offset="1" style="stop-color:#EEFFE3"/>
</radialGradient>
<path class="st2" d="M376.7,115.7c-0.6,3.9-1.9,5-1.9,5s-15.5,8.5-19.1,8.8c-3.6,0.2-17.6-3.4-20.9-1.6c-3.4,1.8-3.4,1.8-3.4,1.8
	s-14.7,7.5-15.2,9.1c3.6-1,22.5-10.6,23-6c0.3,4.9-3.6,5.4-3.6,5.4s-2.9,8.5,5.2,9.3c4.7,0,4.1,1.8,4.1,1.8s-15.5,9.3-17.8,8
	s-2.9-2.9-2.9-2.9s-11.6-1.8-17.6,6c-0.3,3.9-0.5,5.2-5.2,6.5s-12.2,2.6-14.2,9.1c-2.3,1.6-12.1,1-12.7,11.1
	c1.8,2.1,3.6,13.4-10.1,14.7c-13.7,1.3-13.9,13.6-13.9,13.6l0.7,16.6c0,0-3,11.7-6.1,5.6c-2.8-6.1-0.5-18.7-6.8-18.5
	c-5.8-0.2-7.7-3.5-7.7-3.5s-13.1-0.5-13.8,1.6c-0.9,2.8-4.2,7.7-8.9,2.3c-2.8-1.4-2.1-1.9-4-0.7c-2.1,0.9-4.3,1.9-5.8,1.6
	c-1.7,0.5,1.3-0.2-1.7,2.1s-3.7,3.3-6.5,3.5s-2.8,1.4-2.8,2.6c0,1.2-2.6,9.8-4.2,11.9c-1.6,2.1-8.4,26.4,8.6,29.9
	c5.4-1.2,13.8-0.7,15-11.4c3.5-2.8,15.4-5.8,15.4-2.6c-2.6,3.3-4.4,7.9-4.7,10.3c-1.6,3-3.7,10.5-5.6,11.7
	c2.6,1.2,18.7,1.9,19.4,5.6c0.7,4,1.4,5.7-2.3,11.7c0.2,5.4-0.2,17.3,10.1,15.4c3.2-2,11-3.8,13.8,0l-3.7,4.3
	c-0.5-1.7-1.8-4.1-4.2-2.4c-3.6,2.5-4,2.1-3.7,3.8c0.3,1.8-2.8,3.1-2.8,3.1s-0.8-4.7-8.8-4.8c-3-2.7-1.7-7.2-9-7.5
	c-0.7-3-1.2-5.8-1.2-5.8s-5.2-2.8-5-8.4c-5.3,0-18.1-0.5-23.1-12.9c-1.3-1-2.3-2.2-5.7,0s-19.4,1.8-36.8-18.5
	c0.3-7.5,0.3-18-10.6-29.5c-4-7.2-10.3-7.8-7.2-20.8c-3.1-1.6-5.6-1.6-5.6-1.6s-0.9,11.2,3.4,17.1c3.7,5.3,3.4,7.8,3.4,8.7
	s4.4,8.4,2.5,11.5c-1.9,0.6-3.4-4.4-6.9-5.6c-3.4-1.3-1.2-8.4-1.2-8.4l-7.2-5c0,0,6.8-1.9,1.9-8.1s-4.7-19.9-4.7-19.9l-6.5-3.7
	c0,0-6.2-20.5-2.3-25.6c3.9-5,21.3-27.5,21.3-36.1c1.6,0.8,5,5,6.6,3.1c0.8-4.7,3.9-7.8-0.8-14.7c-4.7-7,3.1-32.2,0.4-33.7
	c-2.7-1.6-4.7,2.7-4.7,2.7s-3.4,2-5.4-0.4c-2-2.3-0.7-4.8-11.9-6.6c-1.9,0.2-0.7-2.3-4.6-3s-6.7-0.5-11.7,2.1
	c-5,2.7-14.2,7.1-13.3,5.1c0.9-2,12.2-6.9,10.5-7.6c-1.8-0.7-14,5-16,6c-2,1.1-3.6,1.1-3.6,1.1s-1.1,4.6-4.1,5.1S40.5,105,40.5,105
	s-8-0.2-10.9,0.2c-2.4,0.3-6.5,2.3-8.7,2.6l3.5-4c0.7-0.3,1.4-0.5,2-0.6c2.9-0.4,12.9-0.6,17.4-2.7s22.2-8.4,19.7-9.4
	c-2.5-1-4.3-1.2-7.4,0c-3.1,1.2-3.3,2.2-4.9,1c-1.6-1.2-7.6-0.4-4.3-2.9s9-5.6,6.2-4.9c-2.9,0.6-8.8,3.7-7.8,1s2.2-5.7,8.8-8.4
	c2.7-1.2,4.1-4.1,7-4.1s12.3,2,13.8,0c1.4-2,5.7-6.6,5.7-6.6s-0.8-0.8-4,1.3c-3.2,0.8-14.2-0.1-14.2-0.1S66,62,72.5,60.9
	c6.6-1.2,5.6-3.2,8.4-0.8s5.8,2.3,6.3,1.5s3.5-2.1,0.5-2.6c-2.6,0-2.5-6-2.5-6s-2-1.6,11.4-3.1c3.2-0.5,24.5-8,40.1-6.6
	c6.3,1.1,13.8,1.7,16.4,1.7c2.6,0,16.7,1.7,26.5,6.6c3.5-0.6,6.9-0.9,8.4-1.7c1.4-0.9,15-2.9,19.4-2.1c4.5,0.8,8.4,1.6,11.9,0.3
	c5.3,1.6,16.6,1.3,16.6,2.6s0,1.3,0,1.3s-6.9,0.3-4,2.4c2.9,2.1,11.1,4.5,15.6,0.8c2.6,0.5,2.6,0.5,2.6,0.5s-1.6,5,0,2.9
	s7.6-5,12.1-4.2s21.9,3.4,21.6,1.1c-0.3-2.4,0-3.2,0-3.2s4-2.4,3.2,0.3c-0.8,2.6-1.8,8.2,2.4,3.7c4.2-4.5,8.2-4.5,8.2-4.5
	s-0.5-1.6,0-4s-2.9-7.4,7.6-6.6c2.9,0.5,2.9,0.5,2.9,0.5v4.7c0,0-4.7,12.4,5.3,3.4c2.9,0.3-0.5,9,3.4,4.7c2.7-2.9,6.3-4.7,9.4-5.6
	l5.9,5c-2.4,2.6-4.2,1.6-4.2,3.2c0,1.6-2.9,2.9-9.5,2.9s-7.6,4.7-9.5,5s-4,1.1-5.5-0.3c-1.6-1.3-11.1-4.2-8.4-2.1
	c2.6,2.1,7.4,2.1,5.5,3.4c-1.8,1.3-4.7,7.1-10.5,5.5s-10.8-5-7.9-2.1s7.6,2.9,6.9,4.2s-2.3,2.6-2.3,2.6s-4.9-1.4-9.3,1.2
	s-25.5,21.8-5.5,20.9c2.1,1.1,6.2,2.3,7.9,4.9c3.7,2.1,13.6,0.2,12.8,2.6c-0.7,2.5-9.2,22.7,0,17.1c3-3,9-9,6.5-17.6
	c6-0.2,20.4,1.2,17.1-12c-1.1-2.3-1.6-3.3,3-4.9c1.2-2.1,2.1-3,2.1-5.1s1.9-2.1,2.1-3.2c0.2-1.2,1.8-4.4,4.6-4
	c2.8,0.5,9.3,1.9,10,0.2c1.9-0.5,10.1,2.1,8.9,4.6s-6.4,16.7,1.2,13c3.5-1.2,16.1-9.7,15.9-7.8c-0.2,1.9-0.6,6.6,0,10.3
	c0.6,3.7,0.2,5.2-1.2,6.2c-1.3,1,1.8,6.8,10.7,4.9c-0.4,1.6-0.8,3.5-2.5,4.5C372.4,113.6,377.2,111.8,376.7,115.7z"/>
<radialGradient id="SVGID_4_" cx="1072.7394" cy="463.4246" r="71.6963" gradientUnits="userSpaceOnUse">
	<stop  offset="0" style="stop-color:#FFFFDB"/>
	<stop  offset="1" style="stop-color:#EEFFE3"/>
</radialGradient>
<path class="st3" d="M1150.3,472c0.5,3.9,2.1,11.1-4.9,15.8c-0.4,1-0.9,2.3-1.7,3.6c-0.7,1.2-1.5,2.4-2.5,3.7
	c-0.9,1.3-2.1,2.6-3.3,3.9c-1.1,1.1-2.3,2.2-3.6,3.3c-1.5,1.2-3.2,2.4-5,3.4c-0.9,1.2-2.5,4.4-4.6,7.7c-1.7,2.6-3.8,5.3-6.2,7.2
	c-2.5,2-5.4,3-8.6,2c-3.7,1.4-9.3,6.2-10.5,4.1c-1.2-2.1-1.6-4.1-2.7-2.3c-1.2,1.7-4.3,4.8-9.1,1c-3.5-0.8-6.8-1.6-6.2-5.8
	c0.6-4.3,2.8-5.4-0.1-5.8c-2.8-0.4-1.1-1.6-1.1-2.9c0-1.4,0-1-2.7-0.4s1.8-2.7,2.1-4.5c0.4-1.7,1.2-4.1-3-0.8
	c-4.2,3.3-6.1,7-6.1-1.2c-1.3-3.3-3.1-8.1-9.7-7.9s-16.1,0-32.8,7.9c-7.2-0.5-12.8-0.3-17,2.1c-5,2.9-10.5,3.9-16,1.5
	c-2.3-1.7-0.5-4.9,1.8-6.1c0-0.4,1.6-4.5,1.6-5c-0.2-4.7-2.8-14,0.6-22.6c1.7-4.3-1-9.1-0.2-12.8c0-0.2,0.1-0.5,0.2-0.7
	c0.2-0.6,0.3-1.2,0.5-1.7l0,0c0.1-0.2,0.2-0.5,0.3-0.7c1.1-2.5,2.7-4.6,4.6-6.2c1-0.9,2.1-1.7,3.2-2.4c0.1,0,0.1-0.1,0.2-0.1
	c0.3-0.1,0.7-0.3,1.2-0.4c6.4-2,23.6-5.8,26.6-12.7c0.2-2.3,1-4.5,1.7-6.3s3-2.3,4.5-1c0.7,0.6,1.3,0.6,1.7-0.7
	c1.1-3.4,4.2-4.6,4.2-4.6s0.6,4.2,1.1,1.7c0.4-2.5,2.7-4.2,2.7-4.2l2.5-4c0,0,6.9-4.9,8.4-1.1c1.7,3.4,4.4,5.9,5.9,3.8
	c-0.2-2.5,2.9-5.1,4.2-7.4c1.3-2.3-0.2-4,4-4.2s5.5-0.4,5.5-0.4l2.7-4.6c0,0,15.8,1.3,15,3.8s-9.9,12.3-1.9,16.7
	c8,4.4,14.3,11.7,16.6,1.6c1.5-4.9,4.5-18.1,6.9-23.4c0.3-0.8,0.7-1.4,1-1.8c0,0,0-0.1,0.1-0.1c0.6-0.7,1.1-0.5,1.5,1.3
	c0.2,0.8,0.3,1.8,0.4,3.1l0,0c0,0.5,0.4,11.1,2.5,12c2.2,0.9,6.9-0.9,5.3,12.5c1,0.6-1.6,9.9,3.5,10.1c1.8,0.2,2.3,3.1,2.3,3.1
	s4.1,1.2,4.5,6.4c0.8,3.9,1.2,4.1,2.7,3.9c1.6,0.2,1.6,5.4,2.1,6.4C1148.7,459.4,1153.9,465.1,1150.3,472z"/>
<radialGradient id="SVGID_5_" cx="1095.2334" cy="541.9696" r="7.4362" gradientUnits="userSpaceOnUse">
	<stop  offset="0" style="stop-color:#FFFFDB"/>
	<stop  offset="1" style="stop-color:#EEFFE3"/>
</radialGradient>
<path class="st4" d="M1103.1,537.2c-1.2,1.6-2.6,4.5-3.9,6.7c-1,1.7-1.9,3-2.7,3.1l0,0c-1.7,0.1-3.4,0-3.4,0s-4.8,4-5.7,0
	c-0.8-4,1.3-4.5,1.3-4.5l1.4-6.7v-0.3c0,0,0.1,0,0.3-0.1c0.8-0.3,3-0.8,4.2,2C1096.8,537.7,1104.4,534.4,1103.1,537.2z"/>
<radialGradient id="SVGID_6_" cx="1174.2933" cy="549.3911" r="18.1307" gradientUnits="userSpaceOnUse">
	<stop  offset="0" style="stop-color:#FFFFDB"/>
	<stop  offset="1" style="stop-color:#EEFFE3"/>
</radialGradient>
<path class="st5" d="M1194.7,542L1194.7,542c-0.4,0.7-1,1.3-1.7,1.9c-2.9,2.7-7.3,4.9-7.6,5.5c-0.5,1-1.7,0-5.5,0
	c-3.7,4.7-15.9,12.1-17.3,13.7c-1.4,1.6-4.7-0.5-6.5-1.9c-0.8-0.1-1.5-0.3-1.9-0.5c-1-0.5-1.2-1.3-1.2-1.3s2.7-1.9,5.4-3.6
	c2.2-1.4,4.4-2.7,5.3-2.9c3.7-5.6,15.3-6.7,17.6-7c2.3-0.4,5.8-6.3,9.1-9.3c3.3-3.2,2.8-0.5,2.3,1.1s2.5,0,2.5,0
	C1195.9,539.1,1195.6,540.6,1194.7,542z"/>
<radialGradient id="SVGID_7_" cx="1211.4142" cy="524.0549" r="13.3156" gradientUnits="userSpaceOnUse">
	<stop  offset="0" style="stop-color:#FFFFDB"/>
	<stop  offset="1" style="stop-color:#EEFFE3"/>
</radialGradient>
<path class="st6" d="M1223,523.5L1223,523.5L1223,523.5c-0.1,0.1-0.6,0.8-1.4,1.6l0,0c-1.7,1.8-4.9,4.4-8.7,4.9
	c-2.5,2.3-8.5,8.9-8.5,8.9h-2.6c-1.4,0-2.3-1.6-1.5-2.8c0.4-0.5,0.5-1.1,0.5-1.8c0-2.6-1.8-5.9-0.5-6l0,0c0.7,0,11.2-0.3,9.9-18.8
	c0-0.1,0-0.2,0-0.2c0.1,0,0.2,0,0.2,0c1.9-0.3,4.3,0,3.8,3.2c-0.5,3.4-1.1,3.4-1.1,4.5s1.6,2.3,2.1,1.4c0.5-0.9,1.2-0.2,1.2-0.2
	s-2.1,7.2,0.4,5.9C1219.5,522.8,1222.3,520.2,1223,523.5z"/>
<radialGradient id="SVGID_8_" cx="1120.1588" cy="378.7268" r="27.7237" gradientUnits="userSpaceOnUse">
	<stop  offset="0" style="stop-color:#FFFFDB"/>
	<stop  offset="1" style="stop-color:#EEFFE3"/>
</radialGradient>
<path class="st7" d="M1153.8,397.9c0.1,0.6-0.5,1.1-1.1,0.9c-0.1,0-0.2-0.1-0.3-0.2c-0.8-0.7-2-1.3-3.7-1c-4.1,0.7-5.2-0.3-7.4-4.7
	c-2.2-4.4-8.7-10.2-11.5-6.9c-1.2,2.1-3.1,14-12.3,5.4c-3.2-2.8-4.8-4.1-6.2-3.5c-1.4,0.7-2.1,2.3-2.1,2.3l-2.6-0.1
	c-1.7-0.1-2.8-1.9-2-3.4c0.7-1.2,2.2-2.4,5.4-2.3c-2.6-5.3-2.7-13.3-13.3-12.8c-4.1-1.3-4.7-4.4-6.7-2.6c-0.8,0.7-1.7,0.2-2.6-0.5
	c-1-0.9-1.1-2.1-0.6-3.2c0.2-0.4,0.5-0.9,1-1.1c0.2-0.2,0.5-0.3,0.8-0.4l2.4-0.6c1-0.7,1.8,1.2,2.9,1.7c1.4,0.7,3.5,1.1,5.5-1
	c3.5-3.5,7.6-11,27.1,2.3c8.5,4.1,11,4.5,12.2,10.9c3.3,0.4,16.3,2.1,4.5,5.6c1,2.5,4.5,6.4,4.5,6.4v3.5c3.9,0.5,5.6,2.3,6.1,4.9
	C1153.8,397.7,1153.8,397.8,1153.8,397.9z"/>
<radialGradient id="SVGID_9_" cx="995.8344" cy="384.8014" r="13.284" gradientUnits="userSpaceOnUse">
	<stop  offset="0" style="stop-color:#FFFFDB"/>
	<stop  offset="1" style="stop-color:#EEFFE3"/>
</radialGradient>
<path class="st8" d="M1013.4,388.4l-0.2,1l-0.4,1.6c0,0-0.4,0-1,0c-3.4,0-13.7,0.1-15.4-0.9c-1.9-1.1-3.4-4.2-5.6-3.7
	c-2.2,0.5-7.7-0.7-8.6-1.6c-1-1-3.8-1.6-3.8-1.6s-0.6-0.9-0.1-2c0.2-0.4,0.4-0.7,0.9-1.1c0.8-0.6,2.1-1.1,4.2-1.5
	c4.2,0.5,7.2,3.4,9,3.5c2.1,0.5,7.2-2.4,9.3-1.1s5,5.4,8,4.8C1012,386,1014.2,386.2,1013.4,388.4z"/>
<radialGradient id="SVGID_10_" cx="1012.5977" cy="345.9693" r="22.6519" gradientUnits="userSpaceOnUse">
	<stop  offset="0" style="stop-color:#FFFFDB"/>
	<stop  offset="1" style="stop-color:#EEFFE3"/>
</radialGradient>
<path class="st9" d="M1032.5,328.4c-0.4,1.2-2.8,1.5-2.8,1.5s0.5,1.5,2.2,1.8c0,0.7-0.1,1.2-0.1,1.2s-3.9-0.6-4.5,0.9
	c-0.5,1.5-2.7,3.5,1.1,6.4c0.9,0.8,0.4,2.4,0.4,2.4s-2.2,2.1,2.9,3.4c0.5,1.1,0.3,3.8-3.7,2.4c-0.8,1.3-1.6,4.2-1.4,6
	c-0.1,1.4-1.4,2.6-2.6,2.8c-1.2,0.2-3.5,1.5-2.7,3.1c1.4,0.5,1.8,1.4,1.6,2.5c-0.2,1-1.2,0.8-1.7,1.6c-0.1,0.2-0.4,1-0.7,2
	c-0.8,2.4-2.1,5.9-3.8,4.2c-0.1-0.1-0.2-0.2-0.2-0.2s-2.7-4.5-4-3.4c-0.7,1.1-2.3,0.6-2.3,0.6s-0.4-2.2-2.9-0.8
	c-2.6,1.4-3.7-0.5-3.7-0.5s-5.9,1-6-4.1c-0.1-5.2-3.1-7.5-4.4-7.4c0.1-1.6-0.7-5.9-0.5-8.9c0.2-2.1,0.9-3.6,2.7-3
	c0.7,0.2,1.6,0.7,2.6,1.6c2.1,0.9,3.2-0.2,3.2-1.7s1-4.1,5.5-4.1c1.2-1.3,4.9-3.6,5.9-7.3c1-1.6,3.2-2.2,4-2.2c0.9,0,4.1-10.2,7.9-8
	c2.1,2.6,3,5.5,4.6,5.6C1030.6,327.2,1032.8,327.1,1032.5,328.4z"/>
<radialGradient id="SVGID_11_" cx="959.3672" cy="352.1" r="23.6837" gradientUnits="userSpaceOnUse">
	<stop  offset="0" style="stop-color:#FFFFDB"/>
	<stop  offset="1" style="stop-color:#EEFFE3"/>
</radialGradient>
<path class="st10" d="M981.2,374.3c0,1.8-0.2,3.2-1,3.2h-7.6c0,0-12.6-11.7-15.9-24.5c-3.5-2.1-5.4-1.5-5.2-6.8
	c-2.6-3.9-12.9-11.7-13.9-17.5c-0.1-0.7-0.1-1.4,0.1-2c0.5,0.1,0.9,0.2,1.3,0.3c3.8,0.9,6,1.3,7.8,2.2c1.9,1,13.2,14.8,13.2,14.8
	s5-0.7,7.4,5.3c6.2,1.6,3.3,0.7,2.7,3.7c0.8,2.4,1,3.9,4.3,4.4c0.4,3.2,0.6,5,4.7,5.5c1.2,3.3,1.6,0,1.2,3.3
	C980.2,366.2,981.2,370.9,981.2,374.3z"/>
<radialGradient id="SVGID_12_" cx="580.7129" cy="332.2" r="0.4077" gradientUnits="userSpaceOnUse">
	<stop  offset="0" style="stop-color:#FFFFDB"/>
	<stop  offset="1" style="stop-color:#EEFFE3"/>
</radialGradient>
<path class="st11" d="M580.5,331.7c0.3,0.6,0.5,0.9,0.5,1C580.9,332.6,580.2,332.1,580.5,331.7z"/>
<radialGradient id="SVGID_13_" cx="627.3275" cy="346.5669" r="148.3585" gradientUnits="userSpaceOnUse">
	<stop  offset="0" style="stop-color:#FFFFDB"/>
	<stop  offset="1" style="stop-color:#EEFFE3"/>
</radialGradient>
<path class="st12" d="M748.1,334.3c-4.1,6.2-6.2,9.7-6.2,9.7s-4.7-3.1-7.8,2.1s-9.3,18.1-15.5,21.2c-1.6,3.6-6.7,11.4-3.1,17.6
	c3.6,6.2-2.6,11.2,3.6,14.4c1,3.7,3.1,15.1,0.5,19.7c-2.6,4.7-5.7,12.9-15,13.4c-5.2,5.7-8.8,10.9-8.3,16.5c1,5.7,4,16.1-8.9,18.7
	c0.7,6.5,0,11.3,0,11.3s-8.2,7.2-9.7,10.9c-0.3,0.6-0.9,1.8-1.8,3.1c-1.6,2.5-4.3,5.8-7.5,8.7c-5.4,4.8-12.6,8.4-20.1,4.7
	c-6.2-1-8.8,1-9.8,1.6c-1,0.5-12.9-1.6-9.3-12.9c-3.1-6.7-9.8-10.3-11.4-22.2c-1.6-11.9-10.9-34.1-14.5-41.4c0-7.2,5.2-22,11.9-27.5
	c-3.1-4.5-7.2-7.7-5.2-12.8c-4.7-8.7-16.5-31.1-15.5-39.1c1-7.9,8.3-18.8-4.7-20.3c-6.7-0.8-8.8-0.5-9.3,0
	c-1.8-3.2-8.8-11.9-26.9-1.5c-8.8-0.5-19.6-3.1-23.8,4.1c-5.7-3.6-20.7-13.2-20.7-13.2s-0.5-6.4-3.6-11.1s-11.9-10.2-11.9-10.2
	s2.1-6.9,0-10s6.7-11.4,4.7-19.7c-2.1-8.3-5-12.9-5-12.9s4.5-8.3,8.6-14c2.6-3.6,4.1-12.9,12.9-18.1c5.2-4.7,9.3-7.2,9.3-7.2v-9.8
	c0,0,2.8-4.1,5.9-6.8c0.9-0.8,1.7-1.4,2.6-1.8c2.3-3.5,5.8-9.7,13.6-5.4c6.6,0.4,11.6,0.2,12.8-1.4c1.2-1.7,15.1-9.8,25.2-4.4
	c5-0.4,7.8-1.8,7.8-1.8s3.1-3,5.4,0c2.3,3,4.7,8,4.7,8s-1.2,3.1-1.9,4.3s2.3,3.9,9.3,5s12.5,3.9,11.8,7c-0.6,3.1,8.7,6.2,11.4,5
	s3.9-4.7,3.9-7.8s10.5-4.3,13.2-2.3c2.1,1.5,8,7.7,20.9,7.8c3.7,0,7.9-0.4,12.8-1.6c1.9,4.1,6.5,14.2,10.6,21.8
	c1.8,3.4,3.6,6.4,4.9,8.1c0,5.4-0.4,7.4-0.4,7.4s12,4.3,8.9,19.4c6.6,4.7,9.3,12.8,9.3,14.7s14,12.8,14,12.8l-1.9,3.1
	c0,0,1.4,12.8,26.9,3.1c0,0,2.6-3.6,5.2-2.1S752.2,332.2,748.1,334.3z"/>
<radialGradient id="SVGID_14_" cx="742.6754" cy="435.8464" r="24.9242" gradientUnits="userSpaceOnUse">
	<stop  offset="0" style="stop-color:#FFFFDB"/>
	<stop  offset="1" style="stop-color:#EEFFE3"/>
</radialGradient>
<path class="st13" d="M757.6,421.6v1.3c0,0-1.8-4.4-2.3,1.6c-0.5,4.9-1.8,6.5-1.8,6.5s0.2,9-2.6,10.3c-0.9,3.7-3.8,17.1-8.3,23.2
	c0,0-0.1,0.1-0.1,0.2c-0.3,0.4-0.7,0.8-1,1.2l0,0c-1.8,1.8-3.8,2.3-6,0.7c-5.7-4.1-5.7-4.1-5.7-4.1v-4.1c0,0-4.1-2.6-1.8-7
	s8.5-7.5,7-10.6c-0.7-1.4-1.7-5-2.3-8.4c-0.7-4-0.7-7.9,1.3-7.6c1.6,0.2,3.3,0.5,4.7,0.6c1.8,0.1,3.3-0.1,3.8-1.1
	c1-1.8,5.9-4.4,5.9-4.4s1.3-4.9,3.1-9c0.1-0.2,0.1-0.3,0.2-0.5c1.5-4.5,2.5-9.1,3.5-4.1v0.1C756.1,411.3,759.2,413.7,757.6,421.6z"
	/>
<radialGradient id="SVGID_15_" cx="559.018" cy="110.15" r="16.4021" gradientUnits="userSpaceOnUse">
	<stop  offset="0" style="stop-color:#FFFFDB"/>
	<stop  offset="1" style="stop-color:#EEFFE3"/>
</radialGradient>
<path class="st14" d="M572.1,117.7c-1.7,2-3.7,4.4-3.7,4.4l-2.4,2.2l-0.6,0.5c0,0-10-3.5-10.8,0c-0.5,2.2-3.9,4.1-7.5,4.2
	c-1,0-1.5-1.2-0.8-1.8c1.8-1.7,4-4.2,2.5-5.1c-2.4-1.3,9.8-9.4,6.1-11.8s-5.4-4.7-6.4-7.1c-0.5-1.3-3-4.2-3-6.9l0,0
	c0-1.6,0.8-3,3.4-4c1.3-0.5,3-0.8,5.3-1c1.7,2,1,5.1,5.4,3.4c0.3,1.3,0.3,1.3,0.3,1.3s-5.1,6.1-1,7.8c4.4,1.7,4,5.1,4,6.3
	c0,1.2,7.1,0.2,5.4,4.2c1.8,1,4,1.3,4.2,2.2C572.6,116.8,572.5,117.2,572.1,117.7z"/>
<radialGradient id="SVGID_16_" cx="538.1187" cy="113.8266" r="8.9456" gradientUnits="userSpaceOnUse">
	<stop  offset="0" style="stop-color:#FFFFDB"/>
	<stop  offset="1" style="stop-color:#EEFFE3"/>
</radialGradient>
<path class="st15" d="M544.2,112.2c0,0,1.7,3.8,1.3,5.8c-0.1,0.7-0.4,1.1-1.1,1.3c-0.1,0-0.1,0-0.2,0c-3.1,0.4-11.4,5.6-12.4,2.7
	s0-7.4,0-7.4s-2.8-2.9-2.5-4.6c0.1-0.4,0.3-0.8,0.8-1c0.3-0.1,0.7-0.2,1.2-0.2c4.9-0.2,4.9-0.2,4.9-0.2s1.6,0,1.2-1.9
	c-0.4-1.9,2.9-2.3,4-1.6C542.6,106,551.3,104.5,544.2,112.2z"/>
<radialGradient id="SVGID_17_" cx="328.9767" cy="442.6888" r="124.0478" gradientUnits="userSpaceOnUse">
	<stop  offset="0" style="stop-color:#FFFFDB"/>
	<stop  offset="1" style="stop-color:#EEFFE3"/>
</radialGradient>
<path class="st16" d="M422.3,386.4c0,6.2-3.5,6.6-11.2,14.7c-2.3,12.4-6.6,9.7-7.4,13.2c6.5,7,2,9.7,0,14.7s-0.7,5.8-0.7,5.8
	s1.6,3.1,0,5.8c-1.6,0.8-3.5,6.2-4.3,10.1s-12,3.1-12,3.1l-14.6,11.8c6.5,9.3-3.5,21.5-3.5,21.5s-2.1,7-6.1,8.8s-2.1,5.2-5.8,10.1
	c-3.7,5-10.4,1-13.5,0c17.6,23.6-9.8,19.1-9.8,20.1s-0.3,8.3-4.2,8.8c-4,0.5-1.2,5.7-1.2,5.7s1,11.9-2.1,13.2
	c-4.4,2.3,5.4,10.1,5.4,10.1s0,0,0.2,1.3c-4.3,3.6-3.4,12.4-2.8,17.1c0.1,1,0.2,1.8,0.3,2.3c0.4,3.1-4.8,1.3-3.5,3.6
	s0.8,3.6-2.6,2.8c-0.6,0-1.1-0.1-1.7-0.2c-12.1-2.2-16.1-22.4-16.1-22.4l-3.4-3.8c0,0-0.9-7.2,0.4-15.6c-5.5-2.5-3.8-4.2-4.6-12.2
	c-8.8,3.4-6.7-7.2-7.6-12.2c-1.3-2.9-2.5-7.2-0.8-9.7s-0.4-11.8-0.8-18.9c-3.8-8-2.5-18.9-2.1-26.9c1.3-35.8-10.1-42-14.8-45.1
	c-9.3-3.9-14.5-10.6-14.5-14.2c-7.5-9.3-11.4-19.4-12.4-22.5s-8.8-11.1-8.8-11.1V368l3.9-4.8l0.4-1.6c0,0-1,0-3.7-0.6
	c-3-9.2,5.3-15.2,7.3-16.3c11.5-6.9,5.4-26.5,4.9-28c0-0.1,0-0.1,0-0.1s1.4-2.3,2.8-3.1c0.7-0.4,1.5-0.5,2,0.5
	c1.2,2.3,3.5-5.8,3.5-5.8l1.6-3l2.6-4.8c0,0,0.2,0.5,0.8,0.8c0.8,0.4,2.4,0.4,5.4-1.6c10.9-9.3,10.9-3.9,10.9-3.9s-3.1,8.5-1.9,11.6
	s2.3-7.4,7.4-8.9s9.3,4.3,17.4,5c14.3-2.3,16.7,4.3,16.7,4.3l-1.9,3.9c0,0,6.2,0,8.1,2.7c1.6,9.7,10.1,9.3,18.2,10.1
	c17.8,3.5,13.2,10.1,13.6,17.7c7,3,5.4,5.5,5.4,5.5s-10.5,8.9-7,7.2c3.5-1.7,5,4.8,7.4,4.8c12.4-10.1,19-1.9,21.7,3.9
	c3.5-3.9,11.6,0,16.7,0s3.5,3.5,12.4,7C419.6,372,422.3,380.2,422.3,386.4z"/>
<radialGradient id="SVGID_18_" cx="341.35" cy="591.3622" r="8.7114" gradientUnits="userSpaceOnUse">
	<stop  offset="0" style="stop-color:#FFFFDB"/>
	<stop  offset="1" style="stop-color:#EEFFE3"/>
</radialGradient>
<path class="st17" d="M352.1,595.1c-0.1,0.3-0.4,0.6-0.7,0.9c-2.7,1.8-11.2,1.7-12.2,0.5c-1.1-1.3-8.6-2-8.6-2v-1.8
	c0,0,4.1-1.4,4.5-3.2c0.5-1.8,0,0-2-2.2l0,0c0.2-0.8,0.8-1.3,1.5-1.6c1.9-0.8,4.6,0,4.6,0C338.1,588.1,347.2,592.2,352.1,595.1z"/>
<radialGradient id="SVGID_19_" cx="198.0497" cy="180.5071" r="160.2467" gradientUnits="userSpaceOnUse">
	<stop  offset="0" style="stop-color:#FFFFDB"/>
	<stop  offset="1" style="stop-color:#EEFFE3"/>
</radialGradient>
<path class="st18" d="M376.7,115.7c-0.6,3.9-1.9,5-1.9,5s-1.9,1.1-4.6,2.4c-4.9,2.5-12.2,6.2-14.6,6.4c-3.6,0.2-17.6-3.4-20.9-1.6
	c-3.4,1.8-3.4,1.8-3.4,1.8s-14.7,7.5-15.2,9.1c3.6-1,22.5-10.6,23-6c0.3,4.9-3.6,5.4-3.6,5.4s-2.9,8.5,5.2,9.3
	c4.7,0,4.1,1.8,4.1,1.8s-15.5,9.3-17.8,8s-2.9-2.9-2.9-2.9s-11.6-1.8-17.6,6c-0.3,3.9-0.5,5.2-5.2,6.5s-12.2,2.6-14.2,9.1
	c-2.3,1.6-12.1,1-12.7,11.1c1.8,2.1,3.6,13.4-10.1,14.7c-13.7,1.3-13.9,13.6-13.9,13.6l0.7,16.6c0,0-3,11.7-6.1,5.6
	c-2.8-6.1-0.5-18.7-6.8-18.5c-5.8-0.2-7.7-3.5-7.7-3.5s-13.1-0.5-13.8,1.6c-0.9,2.8-4.2,7.7-8.9,2.3c-2.8-1.4-2.1-1.9-4-0.7
	c-2.1,0.9-4.3,1.9-5.8,1.6c-1.7,0.5,1.3-0.2-1.7,2.1s-3.7,3.3-6.5,3.5s-2.8,1.4-2.8,2.6c0,1.2-2.6,9.8-4.2,11.9
	c-1.6,2.1-8.4,26.4,8.6,29.9c5.4-1.2,13.8-0.7,15-11.4c3.5-2.8,15.4-5.8,15.4-2.6c-2.6,3.3-4.4,7.9-4.7,10.3
	c-1.6,3-3.7,10.5-5.6,11.7c2.6,1.2,18.7,1.9,19.4,5.6c0,0.1,0,0.2,0,0.3c0.7,3.8,1.3,5.5-2.4,11.4c0.2,5.4-0.2,17.3,10.1,15.4
	c3.2-2,11-3.8,13.8,0c0.5,0.6,0.8,1.4,0.9,2.4l-4.3,3.3c0,0-0.1-0.6-0.4-1.4c-0.5-1.7-1.8-4.1-4.2-2.4c-3.6,2.5-4,2.1-3.7,3.8
	c0.3,1.8-2.8,3.1-2.8,3.1s-0.8-4.7-8.8-4.8c-3-2.7-1.7-7.2-9-7.5c-0.7-3-1.2-5.8-1.2-5.8s-0.9-0.5-2-1.6c-1.4-1.4-3.1-3.7-3-6.9
	c-5.3,0-18.1-0.5-23.1-12.9c-1.3-1-2.3-2.2-5.7,0s-19.4,1.8-36.8-18.5c0.3-6.2,0.3-14.7-6-24c-1.3-1.8-2.7-3.7-4.5-5.6
	c-4-7.2-10.3-7.8-7.2-20.8c-3.1-1.6-5.6-1.6-5.6-1.6s-0.9,11.2,3.4,17.1c3.7,5.3,3.4,7.8,3.4,8.7s4,7.8,2.7,11.1
	c-0.1,0.1-0.1,0.3-0.2,0.4c0,0-0.1,0-0.2,0c-1.8,0.3-3.4-4.4-6.7-5.6c-3.4-1.3-1.2-8.4-1.2-8.4l-7.2-5c0,0,6.8-1.9,1.9-8.1
	s-4.7-19.9-4.7-19.9l-6.5-3.7c0,0-6.2-20.5-2.3-25.6c3.9-5,21.3-27.5,21.3-36.1c1.6,0.8,5,5,6.6,3.1c0.8-4.7,3.9-7.8-0.8-14.7
	c-4.7-7,3.1-32.2,0.4-33.7c-2.7-1.6-4.7,2.7-4.7,2.7s-3.4,2-5.4-0.4c-2-2.3-0.7-4.8-11.9-6.6c-1.9,0.2-0.7-2.3-4.6-3
	s-6.7-0.5-11.7,2.1c-5,2.7-14.2,7.1-13.3,5.1c0.9-2,12.2-6.9,10.5-7.6c-1.8-0.7-14,5-16,6c-2,1.1-3.6,1.1-3.6,1.1s-1.1,4.6-4.1,5.1
	s-29.8,10.8-29.8,10.8s-8-0.2-10.9,0.2c-2.4,0.3-6.5,2.3-8.7,2.6l0,0c-0.5,0.1-0.9,0-1.1-0.1c-1.1-0.7,1.9-2.9,4.6-3.9
	c0.7-0.3,1.4-0.5,2-0.6c2.9-0.4,12.9-0.6,17.4-2.7s22.2-8.4,19.7-9.4c-2.5-1-4.3-1.2-7.4,0c-3.1,1.2-3.3,2.2-4.9,1
	c-1.6-1.2-7.6-0.4-4.3-2.9s9-5.6,6.2-4.9c-2.9,0.6-8.8,3.7-7.8,1s2.2-5.7,8.8-8.4c2.7-1.2,4.1-4.1,7-4.1s12.3,2,13.8,0
	c1.4-2,5.7-6.6,5.7-6.6s-0.8-0.8-4,1.3c-3.2,0.8-14.2-0.1-14.2-0.1s3.6-5.4,10.1-6.5c6.6-1.2,5.6-3.2,8.4-0.8s5.8,2.3,6.3,1.5
	s3.5-2.1,0.5-2.6C85.1,59,85.2,53,85.2,53s-2-1.6,11.4-3.1c3.2-0.5,24.5-8,40.1-6.6c6.3,1.1,13.8,1.7,16.4,1.7
	c2.6,0,16.7,1.7,26.5,6.6c3.5-0.6,6.9-0.9,8.4-1.7c1.4-0.9,15-2.9,19.4-2.1c4.5,0.8,8.4,1.6,11.9,0.3c5.3,1.6,16.6,1.3,16.6,2.6
	s0,1.3,0,1.3s-6.9,0.3-4,2.4c2.9,2.1,11.1,4.5,15.6,0.8c2.6,0.5,2.6,0.5,2.6,0.5s-1.6,5,0,2.9s7.6-5,12.1-4.2s21.9,3.4,21.6,1.1
	c-0.3-2.4,0-3.2,0-3.2s4-2.4,3.2,0.3c-0.8,2.6-1.8,8.2,2.4,3.7c4.2-4.5,8.2-4.5,8.2-4.5s-0.5-1.6,0-4s-2.9-7.4,7.6-6.6
	c2.9,0.5,2.9,0.5,2.9,0.5v4.7c0,0-4.7,12.4,5.3,3.4c2.9,0.3-0.5,9,3.4,4.7c2.7-2.9,6.3-4.7,9.4-5.6c1.5-0.4,2.9-0.6,4-0.5
	c3.4,0.3,4.2,2.9,1.8,5.5c-2.4,2.6-4.2,1.6-4.2,3.2c0,1.6-2.9,2.9-9.5,2.9c-2.1,0-3.7,0.5-4.8,1.2c-2.5,1.4-3.4,3.7-4.7,3.8
	c-1.8,0.3-4,1.1-5.5-0.3c-1.6-1.3-11.1-4.2-8.4-2.1c2.6,2.1,7.4,2.1,5.5,3.4c-1.8,1.3-4.7,7.1-10.5,5.5c-1-0.3-2-0.6-3-1l0,0
	c-4.3-1.6-7.3-3.5-4.9-1.1c1.1,1.1,2.6,1.8,3.9,2.3c1.9,0.8,3.5,1.1,3,1.9c-0.8,1.3-2.3,2.6-2.3,2.6s-1.8-0.5-4.2-0.3
	c-1.6,0.1-3.4,0.5-5.1,1.6c-3.5,2.1-17.9,14.9-13,19.4c1.2,1.1,3.6,1.7,7.5,1.6c2.1,1.1,6.2,2.3,7.9,4.9c3.7,2.1,13.6,0.2,12.8,2.6
	c-0.7,2.5-9.2,22.7,0,17.1c3-3,9-9,6.5-17.6c6-0.2,20.4,1.2,17.1-12c-1.1-2.3-1.6-3.3,3-4.9c1.2-2.1,2.1-3,2.1-5.1s1.9-2.1,2.1-3.2
	c0.2-1.2,1.8-4.4,4.6-4c1,0.2,2.4,0.4,3.9,0.7c2.7,0.4,5.6,0.6,6-0.4c1.9-0.5,10.1,2.1,8.9,4.6c-0.5,1-1.6,3.9-2.3,6.8
	c-1,4.2-1.1,8.4,3.4,6.2c0.6-0.2,1.4-0.6,2.4-1.1c4.9-2.6,13.6-8.2,13.5-6.6c-0.2,1.9-0.6,6.6,0,10.3c0.6,3.7,0.2,5.2-1.2,6.2
	c-0.2,0.1-0.2,0.3-0.3,0.5c-0.2,1.2,1.4,3.8,5.2,4.5c1.5,0.3,3.4,0.3,5.7-0.2c-0.3,1.2-0.6,2.7-1.6,3.7c-0.3,0.3-0.6,0.5-0.9,0.7
	c0.5,0.4,1.4,0.5,2.4,0.5C375.2,113,377,113.2,376.7,115.7z"/>
<radialGradient id="SVGID_20_" cx="250.8769" cy="256.0244" r="14.8752" gradientUnits="userSpaceOnUse">
	<stop  offset="0" style="stop-color:#FFFFDB"/>
	<stop  offset="1" style="stop-color:#EEFFE3"/>
</radialGradient>
<path class="st19" d="M267.6,263.9c-2,0.5-5.6,0.7-11.8,0.2c-0.2-2.1-0.2-2.1-0.2-2.1l1.2-1.2c0,0-10.3-9.1-15.7-8.1
	c0,0-4.8-0.5-6.9,2.1c-2.4,3.1-2.6-1.1-2.6-1.1s-0.1-0.6,0.1-1.4c0.2-1.1,1-2.6,3.1-3.6c1.7-0.8,4.3-1.3,8.3-0.9c4,1.2,10,5,10,5
	l16.9,8.3C269.9,261.2,271.3,263,267.6,263.9z"/>
<radialGradient id="SVGID_21_" cx="280.5002" cy="266.9659" r="9.3246" gradientUnits="userSpaceOnUse">
	<stop  offset="0" style="stop-color:#FFFFDB"/>
	<stop  offset="1" style="stop-color:#EEFFE3"/>
</radialGradient>
<path class="st20" d="M291.3,271.3c-0.2,0-0.5-0.1-0.8-0.1c-2.8-0.3-8.8-0.9-9.7,0.1c-0.9,1.2-1.2,0.3-4,0c-2.1-0.2-5.5-0.6-7.2-0.8
	c-0.6-0.1-0.9-0.1-0.9-0.1s-1.6-1.5,1.4-1.5c0.3,0,0.6,0,0.9,0c2.5-0.2,4-1.5,3.8-2.6c-0.2-1.2,5.5-4.3,5.6-3.8l0,0
	c0-0.2,0.3-0.9,3-0.1c3.6,1,9,1.5,9.1,6.4v0.1C292.5,268.9,293.5,271.5,291.3,271.3z"/>
<radialGradient id="SVGID_22_" cx="627.4999" cy="693.25" r="279.616" gradientUnits="userSpaceOnUse">
	<stop  offset="0" style="stop-color:#FFFFDB"/>
	<stop  offset="1" style="stop-color:#EEFFE3"/>
</radialGradient>
<path class="st21" d="M983,724.5c0,0-3.4-19.9,0.8-18.3c4.2,1.6,11-0.8,9.9-1.6S992,701,992,701l-4.5-1.2v-5.5l6.8,0.3l3.2-1.6
	l6-0.4c0,0,15.4,0,16.8-2c1.4-2,1.4-6.8,1.4-6.8s-2,3.7-4.2,1.2c-2.2-2.4-8.9-2.4-8.9-2.4h-22.9l-3.8-6h-16.4v4.6l-4-4.2
	c0,0-19.9-7.3-23-8.4c-11.5,0.6-54.4,0.6-60.9-6.6c-8,2.2-61.3,6.6-76.6,0c-7.3,6.1-7.3,6.1-7.3,6.1l-88.9-1.1
	c0,0-17.6,12.1-31.4,9.9c-5.7,0.6-7.3,2.8-7.3,2.8l-3.1-1.1c0,0-13.4,1.7-14.2-8.3c-6.9,3.9-6.9,3.9-6.9,3.9l-6.9-2.8
	c0,0-16.9,3.3-25.7-2.8s-5-6.6-5-6.6l-27.6,4.4c0,0-34.5,14.9-41,12.1c-6.5-2.8-24.1-2.2-41.8,2.8c-10.3-2.8-34.1,4.7-46-7.2
	c-5.7,3.7-10.9,6.7-10.9,6.7s-63.6,9.6-82,0.3c-11.9,15.5-107.7,29.3-107.7,29.3l-14,14.1L983,724.5L983,724.5z"/>
<radialGradient id="SVGID_23_" cx="511.55" cy="70.4476" r="8.7147" gradientUnits="userSpaceOnUse">
	<stop  offset="0" style="stop-color:#FFFFDB"/>
	<stop  offset="1" style="stop-color:#EEFFE3"/>
</radialGradient>
<path class="st22" d="M522.9,66.4c0,0-14.5,12.3-18.6,7.9s-4.1-4.4-4.1-4.4s14-1.7,16.3-3.5C518.8,64.7,522.9,66.4,522.9,66.4z"/>
<radialGradient id="SVGID_24_" cx="368.4" cy="134.9463" r="11.2333" gradientUnits="userSpaceOnUse">
	<stop  offset="0" style="stop-color:#FFFFDB"/>
	<stop  offset="1" style="stop-color:#EEFFE3"/>
</radialGradient>
<path class="st23" d="M372.9,124.2l-16.2,13c5.3-1,10.9-2.1,11.2,0l-0.8,4.9c3.1-2.9,4.8-2.8,5.8-1.3v3.2c2,2,3.1,2.5,3.9,0l1.7-5.4
	l1.6-4.5l-3.5-3.6L372.9,124.2z"/>
<radialGradient id="SVGID_25_" cx="353.5866" cy="59.2552" r="29.4078" gradientUnits="userSpaceOnUse">
	<stop  offset="0" style="stop-color:#FFFFDB"/>
	<stop  offset="1" style="stop-color:#EEFFE3"/>
</radialGradient>
<path class="st24" d="M346.1,70.8c0,0-2.5-1.3-8.1-0.2c-3-1.2-4.3-0.6-4.3-0.6l3.5-4.3c0,0,10,2.1,10.2,0s8.5-3.6,8.5-6.6
	s-4.5-2.4-4.5-2.4s-13.2,6.7-8.4,2.2c4.8-4.5,9.7-9.3,7.1-9.7s-3.9,5-6.7,4.3c-2.8-0.6,6.7-3,1.5-3s-21-2.4-24.9-3
	s11.3-13.6,20.6-11.7c-3,1.3-8.7,8.5-5.4,5.5s9.5-7.5,19.3-4.5c4.3-0.6,11.3-0.9,8.2,1.7c1.3,1.9,3.2,3,3,5c4.1-0.4,6.7,2.4,6.7,2.4
	l5.6,0.6l2.3,5l-6,1.5c0,0-2.2,3.1,0.2,2.8c2.4-0.2,3.9,0.6,3.9,0.6l1.9-1.5l2.7,3.5l4.8,2.8c0,0-1.7,0.2-4.1,3.2
	c-3.2,0.6-3.2,0.6-3.2,0.6l-3.6,5.4c0,0-4.2-10.1-6.2-8.2s-3.5,4.2-0.4,6.6c1.3,4.1-2.8,9.1-2.8,9.1s-4.3-6.3-7.8-5.7
	c3.2,2.7,4.3,7.3,4.3,7.3s2.8-1.3,2.8,0.9s-2.2,2.5-2.2,2.5s-7.1-3.7-10-2.7c0-5-4.9,0-4.9,0L346.1,70.8z"/>
<radialGradient id="SVGID_26_" cx="254.632" cy="43.363" r="24.8114" gradientUnits="userSpaceOnUse">
	<stop  offset="0" style="stop-color:#FFFFDB"/>
	<stop  offset="1" style="stop-color:#EEFFE3"/>
</radialGradient>
<path class="st25" d="M237.4,32.4c0,0,0.5,4.1-1.6,4.1s-9.1,4-14.5,5c3.5,1.3,4.4,1.1,4.4,2.7c0,1.6,9.7-2.9,11.8-2.7
	c2,0.2,9.6,2,4.5,2.1c-5.1,0.2-2.8,2.4-2.8,2.4l-2.2,2.3v3.3l2.4,0.6c0,0,2.1-1.2,2.1,0.8c0,1.9,8.4,1.2,8.4,1.2s0.7-1.8,5.2-0.9
	c4.6,1,11.9,1,11.9,1s1.7-1.5,3.5-1c1.7,0.5,5.1,1,5.1,1s3.5-4.8,6.6-5.5c0.2-1.9-5.4-3.5-5.4-3.5s8.6-8.9,10.3-9.1
	c1.2-0.2,0.8-1.7,0.8-1.7l-16.1,5.8l-11-2.1l-6.2-5.8c0,0-2.2,2.3-4,1.2C249,32.6,237.4,32.4,237.4,32.4z"/>
<radialGradient id="SVGID_27_" cx="274.3" cy="28.35" r="16.1835" gradientUnits="userSpaceOnUse">
	<stop  offset="0" style="stop-color:#FFFFDB"/>
	<stop  offset="1" style="stop-color:#EEFFE3"/>
</radialGradient>
<path class="st26" d="M295.1,29l-5,0.9l-1.1,0.9l-22.3,2.7L266,32h-2.9l-2.4-3.1l-3.8-0.9H252v-2c0,0,8.2,1,8.2,0s4.6-1.7,4.6-1.7
	l8.2-1.1v2.2l6.9,1.2l6.4,1.2l3.9-3l0.8,0.4l-0.3,1.8l5.9,0.5L295.1,29z"/>
<radialGradient id="SVGID_28_" cx="299.55" cy="39.9" r="8.1588" gradientUnits="userSpaceOnUse">
	<stop  offset="0" style="stop-color:#FFFFDB"/>
	<stop  offset="1" style="stop-color:#EEFFE3"/>
</radialGradient>
<path class="st27" d="M297.1,45h-3.9c0,0,1.9-3.2,0-3.8s-4-1.1-4-1.1s3.2-3.7,4-3.1c0.8,0.6,0.4,3,2.2,1.6c1.8-1.4,5-2.4,5-2.4
	l3.5-1.4l6,0.6l-3.5,6.1L297.1,45z"/>
<radialGradient id="SVGID_29_" cx="308.268" cy="28.2426" r="6.7218" gradientUnits="userSpaceOnUse">
	<stop  offset="0" style="stop-color:#FFFFDB"/>
	<stop  offset="1" style="stop-color:#EEFFE3"/>
</radialGradient>
<path class="st28" d="M317,27c0,0-2.2,5-4.5,5c-2.2,0-6.6-2.6-8.1-2.5c-1.6,0.1-6.8-2.4-4.1-2.9c2.7-0.5,6.4-0.6,6.4-0.6
	S316.6,22,317,27z"/>
<radialGradient id="SVGID_30_" cx="291.55" cy="21.5148" r="5.8465" gradientUnits="userSpaceOnUse">
	<stop  offset="0" style="stop-color:#FFFFDB"/>
	<stop  offset="1" style="stop-color:#EEFFE3"/>
</radialGradient>
<path class="st29" d="M299.5,19.4c0,0-10.7,6.3-15.9,3.8C285.1,21.7,288.8,18.5,299.5,19.4z"/>
<radialGradient id="SVGID_31_" cx="431.9796" cy="42.1" r="82.4626" gradientUnits="userSpaceOnUse">
	<stop  offset="0" style="stop-color:#FFFFDB"/>
	<stop  offset="1" style="stop-color:#EEFFE3"/>
</radialGradient>
<path class="st30" d="M484.7,9.8l0.1-5.8H333.9l-11.7,5.6c0,0-4.4,15,14.6,11.8c3.8-0.6,7.8-0.9,11.8-0.8l-1,3.2
	c0,0-3.9,0.6-5.5,0.8c-1.6,0.2-1.2,2.1-1.2,2.1l18.2-0.2v0.9l2.6,0.1l2.2,1.9c0,0,1.8-1.7,3.3-3.3c1.5-1.6,4.1,0,4.1,0l0.7-2.9
	c5.4,1.1,9.1,2,9.1,2v9.1l14.2-4.3l-3.8,8.1c0,0,3.7,0,8.8,2.2s-7.4,11.3-10.7,12.4c-3.2,1.1,19.4,22,19.4,22l11.1,1.3l2.3,4.2h9.3
	c0,0,4.2-7.1,4.2-9.8c0-2.7,10.7-11.9,10.7-11.9l25-4.3l6.9-9.1l4.2,3.2l40.2-6.4c0,0,0.8-4.8,3.6-6.4c2.8-1.6-24.3,3.8-24.3,3.8V34
	h6c0,0-0.6-0.6,4-5.4c22.2,0,30-15,30-15V9L484.7,9.8z"/>
<radialGradient id="SVGID_32_" cx="314.4" cy="70.5073" r="8.0107" gradientUnits="userSpaceOnUse">
	<stop  offset="0" style="stop-color:#FFFFDB"/>
	<stop  offset="1" style="stop-color:#EEFFE3"/>
</radialGradient>
<path class="st31" d="M324.8,72.6c0,0-6.5,1-6.7,0.2c-0.2-0.7-2.8-2.8-3.6-0.9c-0.9,1.9-4.6,1.4-4.6,1.4l-2.1,1.7l-0.8-2h-3l1.3-2
	h1.6c0,0,3.6-1.8,4.9-3.6c1.2-1.7,3.3-1.4,4.4-1.3S320,69,320,69l1.1,0.1V70L324.8,72.6z"/>
<radialGradient id="SVGID_33_" cx="313.2293" cy="77.7583" r="3.2398" gradientUnits="userSpaceOnUse">
	<stop  offset="0" style="stop-color:#FFFFDB"/>
	<stop  offset="1" style="stop-color:#EEFFE3"/>
</radialGradient>
<path class="st32" d="M317.3,76.9c0,0,0,2.3-1.3,2s-2.4-0.7-3.5,0s-3.7,1.6-3.3,0.3c0.4-1.3,2.2-2.3,2.2-2.3S314.1,74.1,317.3,76.9z
	"/>
<radialGradient id="SVGID_34_" cx="316.2903" cy="18.1222" r="3.9229" gradientUnits="userSpaceOnUse">
	<stop  offset="0" style="stop-color:#FFFFDB"/>
	<stop  offset="1" style="stop-color:#EEFFE3"/>
</radialGradient>
<path class="st33" d="M321.7,19.2c0,0-13,0.7-10.5-0.9s6.9-1.4,6.9-1.4S321,17.6,321.7,19.2z"/>
<radialGradient id="SVGID_35_" cx="316.3" cy="42.7" r="8.702" gradientUnits="userSpaceOnUse">
	<stop  offset="0" style="stop-color:#FFFFDB"/>
	<stop  offset="1" style="stop-color:#EEFFE3"/>
</radialGradient>
<path class="st34" d="M319.2,39c0,0,4.3-3.2,6.7-3.4c-2.1-0.4-5.2-0.6-5.2-0.6H316v1.1c0,0-1.4,3.9-6,1.7c-1.6,4.5-1.7,4.5-1.7,4.5
	l-1.6,8.1l3.2-1.4c0,0,0.3-6.6,1.6-7c1.3-0.4,8.5-1.3,9-2.7L319.2,39z"/>
<radialGradient id="SVGID_36_" cx="341.3845" cy="28.8213" r="14.4456" gradientUnits="userSpaceOnUse">
	<stop  offset="0" style="stop-color:#FFFFDB"/>
	<stop  offset="1" style="stop-color:#EEFFE3"/>
</radialGradient>
<path class="st35" d="M329,29.3v-1.9c0,0-7.2,0.1-7.4-2.4s8.9-0.5,8.9-0.5l0.7,0.9l6.6,1.1c0,0-0.6,2.5,0.6,2.4s4-0.2,4-0.2
	s1.2,2.6,2.9,0.5c3-0.6,4.6-0.5,4.6-0.5s12.9,0.5,11.1,2.1c-1.8,1.6-4.5,3.1-4.5,3.1h-4.9c0,0-0.3-1.9-1.6-1.1
	c-1.3,0.8-4.2,0.8-4.2,0.8l-11-1l-0.4-0.7l-7.8,0.4C326.6,32.5,326,29.2,329,29.3z"/>
<radialGradient id="SVGID_37_" cx="321.1151" cy="79.6375" r="1.8073" gradientUnits="userSpaceOnUse">
	<stop  offset="0" style="stop-color:#FFFFDB"/>
	<stop  offset="1" style="stop-color:#EEFFE3"/>
</radialGradient>
<path class="st36" d="M323.2,78.9c0.2,0.7-0.5,1.6-1.6,2c-1.1,0.4-2.3,0.2-2.5-0.5c-0.2-0.7,0.5-1.6,1.6-2
	C321.8,78,322.9,78.2,323.2,78.9z"/>
<radialGradient id="SVGID_38_" cx="301.7" cy="268.6455" r="3.1011" gradientUnits="userSpaceOnUse">
	<stop  offset="0" style="stop-color:#FFFFDB"/>
	<stop  offset="1" style="stop-color:#EEFFE3"/>
</radialGradient>
<path class="st37" d="M298,266.5v2.9l3.1,1.6l2.8-0.5l1.5-2.4C303.5,266.1,301,266.1,298,266.5z"/>
<radialGradient id="SVGID_39_" cx="616.7196" cy="19.519" r="15.0242" gradientUnits="userSpaceOnUse">
	<stop  offset="0" style="stop-color:#FFFFDB"/>
	<stop  offset="1" style="stop-color:#EEFFE3"/>
</radialGradient>
<path class="st38" d="M617.1,20.3c0,0-1.2,8-5.2,5.6s-7.9-2.6-7.9-2.6s4.8-2.9,0-3s-4.8-0.1-4.8-0.1l-2.6-4.3c0,0,4-4,6.9-1.9
	s5.2,2.6,5.2,2.6l1-3.2l5.3,1.8l2.1-0.7l3.6,3.3l7-4.4c0,0,11.5-1.6,8.7,0c-2.9,1.6-5.2,2.8-5.2,2.8l-3.9,3.4c0,0,8.2-0.7,5.8,0.8
	s-5.3,1.5-5.3,1.5S620.5,19.7,617.1,20.3z"/>
<radialGradient id="SVGID_40_" cx="726.8585" cy="34.8883" r="15.0393" gradientUnits="userSpaceOnUse">
	<stop  offset="0" style="stop-color:#FFFFDB"/>
	<stop  offset="1" style="stop-color:#EEFFE3"/>
</radialGradient>
<path class="st39" d="M727.9,46H724h-7.8l-1.2-1.9l-3.1,0.9c0,0-4.8-3.8-2.6-4.7c2.1-1,6.4-7.2,6.2-8.7c-0.2-1.4-0.2-1.5-0.2-1.5
	h3.9c0,0,2-1.8,4.9-2.5s3.9-1.5,3.9-1.5h5.8c0,0,1-0.5,7-2c6-1.4,3.8,2.2,3.8,2.2l-12.4,6.5c0,0-10,1.9-8.8,4.8
	c1.2,2.9-0.7,4.2-0.7,4.2S730.8,44,727.9,46z"/>
<radialGradient id="SVGID_41_" cx="820.3819" cy="183.4278" r="237.7437" gradientUnits="userSpaceOnUse">
	<stop  offset="0" style="stop-color:#FFFFDB"/>
	<stop  offset="1" style="stop-color:#EEFFE3"/>
</radialGradient>
<path class="st40" d="M1112.3,56.4c-11.7-4.9-34.6-9-47-11c-2.1-0.3-3.6,1.3-3.6,3.1c0,0.7,0.2,1.4,0.8,2c0.7,0.8,0.1,2-1,2l-45.6-7
	l-0.5-0.1c-3.7-5.4-8-5.5-12.6-1.9L969,38.2c-3.2-0.5-6.5-0.2-9.6,0.7l-9,2.7c-5.4,1.6-11.3,0.9-16.1-2.1l-4.1-2.5
	c-2.7-1.7-5.8-2.5-8.9-2.5l-51.7,1.8c-1.1,0-1.8-0.9-1.8-1.8c0-0.6,0.3-1.1,0.9-1.5c3.1-1.9,2.3-6.6-1.2-7.3
	c-11.5-2.5-29.3-6-32.3-5.1c-4.4,1.3,1,4.4,1,4.4s-17.1,1.3-28.4,1.8c-11.4,0.5-20.6,12.1-20.6,12.1c-2.2-0.2-3.7,2-2.8,3.9l0.1,1.3
	c0.2,2.5,2.1,4.4,4.6,4.6l6.7,0.5l-1.4,2.2c-0.7,1.1-2,1.5-3.1,1.1l-5-1.8l0.6,8.1c-0.2,0.9-11.4,4.6-12.1,0.9
	c-0.3-1.7,9.3,2.7,8.5-8c0.8-2.3-0.1-4.1-1.5-5.6c-2.2-2.5-5.9-4.4-6.5-6.8c-1-4-11.9-2.5-15.4,0s1.5,8,9.4,12.5
	c-25.7-8.9-52.1,7.7-72.3,0.7c-1.2-0.4,4.2,5.9,3.1,6.5c-6.1,3.1-10.4,6.1-12.3,7.6c-9.6,8.1-15.4-3.5-20.7-6.7
	c23.3,5.2-4.4-10.5-8.5-10.5s-2-2.3-0.3-3.2c0.3-2.3-18.6-2-22.7-2s-3.2,2-6.1,4.1c-2.9-0.9-4.1-1.2-8.3,0
	c-2.8,6.4-19.9,19.8-22.2,21.8c-2.5,0.4-4.7,1.2-6.7,2c-5.7,2.3-9.3,5.3-9.3,5.3s0.2,2.2,0.5,5c0.3,2.7,0.7,5.9,1.3,8.4
	c1.2,5.2,13.7-0.6,13.7-0.6c4.2-5.4,7.3,5.8,9.4,12.4c2.9,9.2,15.9-1.4,11.3-10.3c5.3-0.9,8.9-4,7-5.9c-7.5-8-2.1-10.6,0-12
	s6.1-2.1,8.5-7.3s7.3-2.6,8.2,0c0.5,2.8-7.3,4.5-7.8,12.7s7.5,7.5,16.2,6.1s3.5,2.3,0.7,2.6c-6.6,0.2-10.1,2.3-10.1,3.5
	c5.6,7.7-0.2,5.4-3.5,4c-3.5,1.6-3.8,11.5-3.8,11.5s-2.8,0-4.9,2.1c-2.1,2.1-3.8-1.6-3.8-1.6s-13.4,4.2-13.9,2.8
	c-0.5-1.4-3.3-0.7-8.2-0.5c-8.5-1.6-3.1-6.1-2.8-9.6c0.2-2.8-3.5-3.3-6.1-2.1c-6.3,1.9-2.3,8.2-0.5,15.1c-7.8-2.6-10.6,1.8-12.9,1.6
	c-2.3-0.2-1.3,0.8-0.5,2.1c0.8,1.3-10.6,7-11.4,9.8c-2.3,3.1-8.8,3.4-11.6,1.8c-0.8,4.1-2.1,3.6-3.4,4.4c-10.6-0.5-7.8,3.4-4.7,4.1
	c13.7,4.4,9.8,11.6,8.5,16.8s-15.2,2.8-20.2,2.3c-4.9-0.5-6.5,1.6-8,3.4c1.6,7-2.8,14.5-3.9,17.8c1.6,1.8,2.6,3.9,4.7,8
	c7.8-1,6.7,2.3,10.1,3.6c5.2-4.1,7.5-1.3,12.2-2.3s9.3-8,9-10.3c-0.3-5.2,3.9-7.8,7-8.5c3.1-0.8,4.4-2.1,5.2-4.1
	c-0.2-9,4.7-6.7,7.8-5.4c4.1,2.9,7.2-1.3,10.1-4.1c2.9-2.9,4.9-2.3,7-0.5c2.3,10.1,4.5,9.1,11.8,13.4c7.2,4.4,7.6,5.7,8.1,11.1
	c-0.5,5.4,1,6.1,1,6.1s5.2-5.6,6.2-7.5s-3-4.1-3.2-5.6c-0.3-1.4,5.7,2.2,5.7,2.2s2.2,0.1,0.4-2.5c-12.4-6.5-21.7-16.8-22.2-20.9
	c-2.8-9.6,24,13.2,25.3,16.8c-0.5,3.6-0.5,2.6,2.3,4.9c6.2,6.2,5.9,7,5.2,11.1c5.9,10.1,8.5,4.4,9,2.3c0.1-0.4,0.2-0.6,0.3-0.9
	c0.5-0.9,0.8-1.8,0.8-2.8c0-0.2,0-0.5-0.1-0.7c-4.1-1.6-2.8-5.2-4.4-9.8c-1-5.4,12.7-0.5,19.1-2.3c6.5-1.8,3.6,1.8,3.6,1.8l-8.5,1.3
	c0,0-0.8,1.8,0,2.6s1.3,3.1,4.1,11.6c3.6,4.9,11.7,4,12.4,1.5c2.1,2.8,12.1,3.9,13.1,2.1c1.1-1.8,2.5-1.4,5.7-2.1
	c2.1,22.7-9.6,24.8-9.6,24.8s-0.7,3.4,2.4,10.1c4.1,0.5,23.8,25.3,23.8,25.3s1,13.4,6.2,18.6s8.8,11.4,11.9,25.3
	c3.1,8.8,32.6-7.2,32.6-7.2s11.9-10.3,19.1-13.4c7.2-3.1,9.6-15.7,12.5-18.6c2.9-2.9-5.3-5.5-9.6-7.9c-5.3,0.3-5.3-3.8-6.7-8.5
	c-12.3,16.6-21.6,2.9-23.4-2c-1.8-5-11.7-13.4-11.7-13.4l6-3c0,0,0,0,6.1,6.5s17.7,8.9,20.5,8.2c2.7-0.7,4.7-1.7,6.1,2.3
	c2.9,5.8,34.4,2.9,34.4,2.9s14.1,12.3,16.3,10.9c0.9-0.6,0.5,0.3-0.4,1.6c-1.5,2.3-0.6,5.4,1.9,6.4c0,0,0.1,0,0.1,0.1
	c0.1,0,0.2,0.1,0.2,0.1s0.1,0,0.2,0.1c2.8,1,5.8-0.5,6.8-3.2c1.9-5,3,3.6,2.4,8.4c-0.6,4.8,10.8,33.3,17.2,48.2
	c-1.7,5.9,2.5,5.7,3.3,7.3c14.1-0.4,11.8-21.9,13.2-35.6c4.7-1.1,20.3-20.3,23.9-26.1c0.4-7.2,11.9-7.2,11.9-7.2s4.3,8.7,10.9,15.9
	c2.2,22.1,11.9,15.2,16.6,12.3c3.1-0.4,5.5,8.6,7.2,18.1c1.2,7,2,14.3,2.3,18.4c6.6,5.6,7.8,14.9,8.3,19.6c0.4,3,6,7.6,9.8,10.6
	c2.1,1.6,3.7,2.6,3.7,2.6h2.7l-0.3-0.6l-2.9-5.7l-1.3-2.4l-1.6-10.7l-8.9-5.6l-5.6-16.2l-0.5-15c9.6,3.8,15.4,9.8,17.1,18.2
	c1.3,1.4,3,2,4.7,2c2.6,0,5.1-1.5,6.1-4.2l6.2-2.6c1.5-0.6,2.7-1.7,3.6-3c0.9-1.3,1.3-2.8,1.3-4.5c0-3.5-1.1-6.9-3.3-9.8
	c-4.6-6-12.7-17-15.1-22.1c-0.3-0.6-0.5-1.1-0.6-1.5c-0.6-2,1.7-3,4.9-3.4c5.6-0.8,14.1,0.3,14.1,0.3l8.8-6
	c6.2-1.4,11.9-4.5,16.5-8.9l5.4-5.2c0,0-0.1-0.6-0.3-1.7c-0.4-2.6,0-5.2,1.5-7.3c3.4-4.7,0.3-14.1,0.3-14.1h-3.7v-10l-11.4-11.9
	c0,0,3.5-4.1,4.6-7.7c0.4-1.3-0.8-2.7-2.1-2.4c-3.9,0.8-9.2-1.5-12.8-3.4c-2-1.1-2.3-4-0.4-5.4l5.7-4.4c0.3-0.2,0.7-0.4,1.1-0.4
	c0.7,0,1.4,0.4,1.7,1.2c1,3.3,4.5,5.1,7.8,4.1l7.5-2.3c0,0,1.6,5.2,4.1,6.2c1.3,0.5,4.8,8.9,7.5,14.5c0.6,1.2,1.1,2.3,1.6,3.2
	c0.3,0.6,1.1,0.8,1.6,0.4l5.5-3.9c1.7-1.2,2-3.6,0.6-5.2l-2.3-2.7l-9.9-11.4l3.1-6.2c0.2-2.2,1.1-4.3,2.6-5.9
	c1.5-1.6,3.4-2.6,5.7-2.9c2.8-0.4,5.1-2.2,6.2-4.8c1.5-3.7,3.4-9.7,3.7-17c0-0.2,0.2-0.3,0.2-0.5l6.2,5.7v3.3c0,0,1.3,0.1,2.4,2
	c1,1.9,1.9,4.3,2.2,4.2c0.7-0.2,0.4-1.6-0.1-3.4c2.1,1.6,4,2.8,5.3,2.7c-5.6-5.8-9.2-14-9.2-14l6.4,2.9l-8.9-5.8l-6.8-7.4
	c-0.6-1.3-1.2-2.5-1.9-3.7c-4.4-7.4-11.4-13-16.5-14.2c-0.7-0.2-1.3-0.3-2-0.3c-13.6,1.7-12.6-4.8-10.5-10.5c1-2.7,2.2-5.2,2.2-6.6
	c0-3.4,24.6-3.7,33.8-3.6c1,0,1.9-0.4,2.7-0.9c0.7-0.6,1.3-1.4,1.5-2.4c0.7-3.5,4.2-5.7,7.7-4.8l1.9,0.9c2.1,0.9,4.5,0.2,5.8-1.6
	c1-1.5,2.5-2.9,4.5-2.9c2.6,0,0.5,10-1.5,17.3c-1.2,4.7,0.4,9.6,4.2,12.5l16.1,12.6c0.1,0.1,0.2,0.1,0.3,0.2
	c1.1,0.5,2.4-0.4,2.1-1.7l-0.1-0.6l-4.6-21.1l-7.6-8.3c-2.7-3.2,5.8-0.6,9.8-1.6l4.9-1.2c2.9-0.7,4.7-3.6,4.1-6.5
	c-0.7-3.7-1.1-8.7,0.6-12.4c0.7-1.4,2.2-2.2,4-2.8C1115.2,62.2,1115.4,57.7,1112.3,56.4z"/>
<radialGradient id="SVGID_42_" cx="1035.9806" cy="370.3001" r="10.4109" gradientUnits="userSpaceOnUse">
	<stop  offset="0" style="stop-color:#FFFFDB"/>
	<stop  offset="1" style="stop-color:#EEFFE3"/>
</radialGradient>
<path class="st41" d="M1044.8,359.9l-2.1,3.1h-2.7l-0.8,2h1.8l0.3,2h1.6l0.9,6.6l-3.5,2.2l-1.1-0.7c0,0,0.6-2.8,0-2.3
	s-0.6,0.5-0.6,0.5s0-8.7-1.4-7.9c-1.4,0.9-3.4,2.3-3.4,2.3s2,0,1.8,0.9s-3.2,17.7-3.5,12.3c-0.4-5.4,0.8-8.8-1.3-9.7
	c-2-0.9-3.8-1.2-3.8-1.2s2.3-10.1,3.2-10.3c0.9-0.2,3.5,0.7,3.5,0.7l-0.1,2.2c0,0,1-0.3,1.5-0.8s3-1.1,3-1.1l1-1.9
	C1039.1,358.8,1046.1,358,1044.8,359.9z"/>
<radialGradient id="SVGID_43_" cx="1044.5282" cy="350.3792" r="6.6133" gradientUnits="userSpaceOnUse">
	<stop  offset="0" style="stop-color:#FFFFDB"/>
	<stop  offset="1" style="stop-color:#EEFFE3"/>
</radialGradient>
<path class="st42" d="M1053.2,347.6c0,0-0.5,5.5-1.9,5.4s-16.6,1.9-15.4,0s1.5-3.1,1.5-3.1s2.4,1.6,3.1,1.6s7.7,0.2,9-1.4
	C1050.9,348.3,1053.5,345.7,1053.2,347.6z"/>
<radialGradient id="SVGID_44_" cx="1046.3519" cy="395.8713" r="11.2626" gradientUnits="userSpaceOnUse">
	<stop  offset="0" style="stop-color:#FFFFDB"/>
	<stop  offset="1" style="stop-color:#EEFFE3"/>
</radialGradient>
<path class="st43" d="M1040.9,402.8c0,0,1.8,0.8,3.5,0.1c1.7-0.7,9.8-7.7,9.8-7.7l3.3-0.8l0.7-2.4h2.3c0,0-0.1-3.3-2-3.4
	c-2-0.1-5.2,0-5.2,0l-0.5,2.5l-9.4-0.4c0,0-3.4,4-8.3,1.3s-2.1,2.2-2.1,2.2s3.4,1.8,5.7,1.3c2.3-0.5,16-5.5,12.4-2.2
	s-4.8,4.6-4.8,4.6S1044.8,403,1040.9,402.8z"/>
<radialGradient id="SVGID_45_" cx="1048.9069" cy="322" r="8.7748" gradientUnits="userSpaceOnUse">
	<stop  offset="0" style="stop-color:#FFFFDB"/>
	<stop  offset="1" style="stop-color:#EEFFE3"/>
</radialGradient>
<path class="st44" d="M1054.4,313.3c0,0,5.4,9.7,2.5,10.3c-2.9,0.6-2.9,0.7-2.9,0.7l0.9,2.3l-0.9,4.1c0,0-1.4-1.1-2.9-1.8
	c-1.5-0.8-2.1-0.9-2.6-3.7c-0.5-2.7-1.7-3.9-3.5-4.2s-3.5-0.1-3.5,0.9s0.8,2,0.8,2h-2.2c0,0-0.3-4.7,0.7-4.7c0.9,0,2.1-0.9,2.1-0.9
	l0.8-2.4l5.3,1.2C1048.9,317.2,1054.2,317.4,1054.4,313.3z"/>
<radialGradient id="SVGID_46_" cx="1045.8999" cy="307.1537" r="7.5535" gradientUnits="userSpaceOnUse">
	<stop  offset="0" style="stop-color:#FFFFDB"/>
	<stop  offset="1" style="stop-color:#EEFFE3"/>
</radialGradient>
<path class="st45" d="M1048.5,311.4l-1.5,2.6h-5l-0.5-2.8c0,0,3.2-2.7,0-2.8c-3.2-0.2-3.8-6.4-3.8-6.4l3.5,1.1c0,0,1.8,1.5,2,1.1
	s1.8,3.7,3,2s1.9-2.4,1.2-5.2c-0.8-2.7,6.7,3.2,6.7,5.6s0,2.7,0,2.7l-0.6-0.4l-2.1-3.5l-0.3,4l-2,0.8l-1.5-0.8L1048.5,311.4z"/>
<radialGradient id="SVGID_47_" cx="1033.8223" cy="282.5997" r="8.7399" gradientUnits="userSpaceOnUse">
	<stop  offset="0" style="stop-color:#FFFFDB"/>
	<stop  offset="1" style="stop-color:#EEFFE3"/>
</radialGradient>
<path class="st46" d="M1034,294.4l-1.5-1.3c0,0-0.1-3.8-2-4.5c-0.8-2.9,0-17.8,0-17.8s1.6-0.1,1.5,2.2c-0.1,2.3,3.9,2.4,3.9,2.4v2.8
	l1.6,1l-0.5,3.4c0,0-2.2,1.6-2.2,2.8c0,1.2,1.3,3.7,1.1,4.3c-0.3,0.6-1.2,4.3-1.2,4.3L1034,294.4z"/>
<radialGradient id="SVGID_48_" cx="1034.15" cy="298.1625" r="2.321" gradientUnits="userSpaceOnUse">
	<stop  offset="0" style="stop-color:#FFFFDB"/>
	<stop  offset="1" style="stop-color:#EEFFE3"/>
</radialGradient>
<path class="st47" d="M1032.5,295.5c0,0,1.8-0.7,2.4,0.7s0.9,4.8,0.9,4.8h-1.7L1032.5,295.5z"/>
<radialGradient id="SVGID_49_" cx="1042.3748" cy="294.7" r="4.4596" gradientUnits="userSpaceOnUse">
	<stop  offset="0" style="stop-color:#FFFFDB"/>
	<stop  offset="1" style="stop-color:#EEFFE3"/>
</radialGradient>
<path class="st48" d="M1045.9,298h-1c0,0-1-0.4-1.7-0.2c-0.7,0.2-2.6-1.1-2.6-1.1l-0.6-2.3c0,0-2,2.2-2.4,1.6
	c-0.3-0.6-0.6-3.7-0.6-3.7l3.4-0.9l1,0.7c0,0,7,0.3,6.3,1s-0.7,1.9-0.7,1.9h-2.2L1045.9,298z"/>
<radialGradient id="SVGID_50_" cx="1050.6222" cy="300.2959" r="1.8126" gradientUnits="userSpaceOnUse">
	<stop  offset="0" style="stop-color:#FFFFDB"/>
	<stop  offset="1" style="stop-color:#EEFFE3"/>
</radialGradient>
<path class="st49" d="M1048.7,299.2c0,0,2.4,2,2.8,2.6s0.6-0.4,0.6-0.4s1-2.8,0-2.8S1048.7,298.6,1048.7,299.2z"/>
<radialGradient id="SVGID_51_" cx="1044.3562" cy="300.8453" r="2.1531" gradientUnits="userSpaceOnUse">
	<stop  offset="0" style="stop-color:#FFFFDB"/>
	<stop  offset="1" style="stop-color:#EEFFE3"/>
</radialGradient>
<path class="st50" d="M1045.4,299.6c0,0,2,2.9,1.4,2.9s-1.4-0.1-1.4-0.1s0.7-0.6-0.5-0.7s-2.7,0.6-2.7,0.6l-0.4-0.6
	C1041.8,301.6,1042.5,298,1045.4,299.6z"/>
<radialGradient id="SVGID_52_" cx="1154.6499" cy="373.85" r="7.9355" gradientUnits="userSpaceOnUse">
	<stop  offset="0" style="stop-color:#FFFFDB"/>
	<stop  offset="1" style="stop-color:#EEFFE3"/>
</radialGradient>
<path class="st51" d="M1147.5,381.3c0,0,0.7,1.6,1.9,1.1s2.2,0.1,2.2,0.1s5.9-1.8,6.2-3.6c0.3-1.8,2-2.2,2-2.2l2-0.5
	c0,0-0.8-5.7-2.9-7.2s0.3-1.9,0.3-1.9s0.5-0.8-1.1-0.8s-1.4,2.5-3.2,0.8c-1.9-1.8-2.8-1.9-2.8-1.9v1.6c0,0,2.9,0.3,1.3,1.1
	c-1.6,0.8-1.2,2.5-1.2,2.5s4.5-2.7,4.9-1c0.4,1.6,1.5,3.7,1.5,3.7l-2.4,0.8c0,0,0.3,0.9-0.8,1.8S1147.5,381.3,1147.5,381.3z"/>
<radialGradient id="SVGID_53_" cx="1065.338" cy="348.7989" r="3.6938" gradientUnits="userSpaceOnUse">
	<stop  offset="0" style="stop-color:#FFFFDB"/>
	<stop  offset="1" style="stop-color:#EEFFE3"/>
</radialGradient>
<path class="st52" d="M1068.3,348.5c0,0,0.7,0.1-1,1.9s-2.4,2.6-2.4,2.6h-2.4c0,0-0.6-5.9,0-6.9s3.5-2.2,2.9-1c-0.6,1.3,0,3.7,0,3.7
	S1067.9,346.5,1068.3,348.5z"/>
<radialGradient id="SVGID_54_" cx="1066.939" cy="344.2103" r="1.7159" gradientUnits="userSpaceOnUse">
	<stop  offset="0" style="stop-color:#FFFFDB"/>
	<stop  offset="1" style="stop-color:#EEFFE3"/>
</radialGradient>
<path class="st53" d="M1068,344c0,0,1.3,1.3,0,1.5s-1.7,0.5-1.7,0.5h-1l0.5-3.5C1065.9,342.5,1067.9,341.9,1068,344z"/>
<radialGradient id="SVGID_55_" cx="1063.052" cy="357.0481" r="1.7367" gradientUnits="userSpaceOnUse">
	<stop  offset="0" style="stop-color:#FFFFDB"/>
	<stop  offset="1" style="stop-color:#EEFFE3"/>
</radialGradient>
<path class="st54" d="M1064.6,356c0.1,0.3,0.7,2.7-0.3,2.7s-3.5-1.5-3-2.2C1061.8,355.8,1064,354.7,1064.6,356z"/>
<radialGradient id="SVGID_56_" cx="1064.5" cy="358.45" r="1.4752" gradientUnits="userSpaceOnUse">
	<stop  offset="0" style="stop-color:#FFFFDB"/>
	<stop  offset="1" style="stop-color:#EEFFE3"/>
</radialGradient>
<path class="st55" d="M1065,357c0,0,1,1.3,1,1.6c0,0.3,0,1.3,0,1.3l-1.3-1.8l-1.7-1.1H1065z"/>
<radialGradient id="SVGID_57_" cx="1069.233" cy="370.0227" r="4.948" gradientUnits="userSpaceOnUse">
	<stop  offset="0" style="stop-color:#FFFFDB"/>
	<stop  offset="1" style="stop-color:#EEFFE3"/>
</radialGradient>
<path class="st56" d="M1075.4,369.4c0,0,0.8,3.3,0,2.3s-2.6-3-2.6-3l-2,0.8l-0.4,0.8c0,0-1.5-1.4-1.9-1s0,2.2-1.6,1.9
	c-1.7-0.3-3.4,2.4-3.5,0.9s-1.2-3.9-0.4-4s8.6-0.9,9.7-0.5C1073.9,368.1,1075.6,367.9,1075.4,369.4z"/>
<radialGradient id="SVGID_58_" cx="1072.5697" cy="363.2632" r="1.3216" gradientUnits="userSpaceOnUse">
	<stop  offset="0" style="stop-color:#FFFFDB"/>
	<stop  offset="1" style="stop-color:#EEFFE3"/>
</radialGradient>
<path class="st57" d="M1073.9,362.4c0,0,0.6,1.3-0.1,1.7c-0.7,0.4-2.8,0-2.8,0v-1.3C1071,362.8,1073.4,361.9,1073.9,362.4z"/>
<radialGradient id="SVGID_59_" cx="1063.7118" cy="361.679" r="1.7833" gradientUnits="userSpaceOnUse">
	<stop  offset="0" style="stop-color:#FFFFDB"/>
	<stop  offset="1" style="stop-color:#EEFFE3"/>
</radialGradient>
<path class="st58" d="M1064.7,361.4c0,0-0.8-1.9-1.6-1s-1.2,1.1-1.2,1.4s-0.2,1.4-0.2,1.4s3.9,0,4-0.4
	C1065.8,362.2,1065.6,361.4,1064.7,361.4z"/>
<radialGradient id="SVGID_60_" cx="1081.3666" cy="364.3" r="7.8944" gradientUnits="userSpaceOnUse">
	<stop  offset="0" style="stop-color:#FFFFDB"/>
	<stop  offset="1" style="stop-color:#EEFFE3"/>
</radialGradient>
<path class="st59" d="M1085.5,358.5c0,0,2.9-1.1,3.2,1c0.3,2.1,0,5.2,0,5.2s-1.3,2.5-2.6,4.6s-1.4,2.7-1.4,2.7l-2,0.6
	c0,0-2-4.7-2.5-4.8s0.7-1.8,0.7-1.8h1l0.1-1.2l-1.5-0.1l-0.4-3.5c0,0-4.7,0.6-4.9-0.2c-0.2-0.8-1.3-2.2-1.3-2.2l1.6-0.3
	c0,0,1.5,1.4,1.5,0.9c0.1-0.5,2.9-1.6,2.9-1.6l1.4-1.8h4.5L1085.5,358.5z"/>
<radialGradient id="SVGID_61_" cx="1075.2687" cy="355.9633" r="1.7045" gradientUnits="userSpaceOnUse">
	<stop  offset="0" style="stop-color:#FFFFDB"/>
	<stop  offset="1" style="stop-color:#EEFFE3"/>
</radialGradient>
<path class="st60" d="M1077.4,355.4c0,0,0.3,1.8-0.8,1.6s-2.4,0-2.4,0l-1.1-1.6C1073.1,355.4,1076.5,354.3,1077.4,355.4z"/>
<radialGradient id="SVGID_62_" cx="1064.9647" cy="195.8" r="21.1988" gradientUnits="userSpaceOnUse">
	<stop  offset="0" style="stop-color:#FFFFDB"/>
	<stop  offset="1" style="stop-color:#EEFFE3"/>
</radialGradient>
<path class="st61" d="M1073.4,172.5c0,0-3.1,1-2.3,3.7s1.2,6.3,1.2,6.3s2.1,9.2-2.3,9.6c-4.5,0.4-3.9,2-3.9,2v3.7c0,0-11-2-12,0
	s-3.6,5.7-3.6,5.7s-4.4,3.7-4.4,4.7s0,2,0,2s2.6,0,3.7,2.4c1,2.4,3.4,6.5,3.4,6.5s4-1.1,3.7-3.1s-0.3-2-0.3-2s-0.7-7.1,0.2-5.6
	c0.9,1.5,2.1,2.8,2.9,2s3-3.6,3-3.6s3,2.9,2.3,1.1c-0.7-1.8-0.5-6,0.2-4.9s3.8,6.4,4.3,5.2s1.1-4.3,1.7-4.6s1.5-0.7,1.5-0.7
	l-3.5-1.6c0,0,3.9,1,5,0.9c1-0.1,6-6.4,6.6-5.2c0,0,2.2,1.1,1.9,3c1.3-1.9,1.7-3.9,0-4.6c-0.5-2.7,0.4-7.7-0.6-8.1s-1,1.5-1-0.4
	s-1.2-6.8-1.2-6.8s-1-1.3-1.6-2.1s-2-0.1-2.3-0.8C1075.6,176.4,1076.3,173,1073.4,172.5z"/>
<radialGradient id="SVGID_63_" cx="1072.2821" cy="164.0061" r="10.7807" gradientUnits="userSpaceOnUse">
	<stop  offset="0" style="stop-color:#FFFFDB"/>
	<stop  offset="1" style="stop-color:#EEFFE3"/>
</radialGradient>
<path class="st62" d="M1060.5,156c0,0,3.4,0,3.7,0.9c0.4,0.8,3.9,3.3,3.5,5.1s-0.3,2.8-0.3,2.8s-2.2-1.4-2.5-1.1
	c-0.4,0.3,0,1.9,0,1.9s2-0.7,1.4,0s-2.3,1.1-2,1.7s1.9,1.6,2.4,2.3s-0.1,2.1,0.4,2.9c0.5,0.7,2.4,0.7,2.4,0.7s2.2-1,2.8-1.7
	s-0.8-1.2-0.8-1.2l-0.8-1l-0.8-0.8l1.7-0.4c0,0,1.5,0.3,2.1,0.5s2.5,1.4,2.5,1.4s1.7,0.5,1.7,0.1s0.2-2.6,0.5-2.8s2.6-0.8,3.3-1.3
	c0.7-0.5,2.3,0,2.3-0.6s1-1.7,0-1.7c0,0-0.6,1.2-0.9,0.5s-0.6-1.4-1.1-1.6c-0.5-0.2-3.2,0.6-4.7-0.8c-1.6-1.4-4.2-1.6-5.7-2.7
	s-3.4-2.9-4.5-2.9s-6.4-1.8-6.8-1.3C1059.8,155.2,1060.5,156,1060.5,156z"/>
<radialGradient id="SVGID_64_" cx="1026.9288" cy="250.5749" r="6.0831" gradientUnits="userSpaceOnUse">
	<stop  offset="0" style="stop-color:#FFFFDB"/>
	<stop  offset="1" style="stop-color:#EEFFE3"/>
</radialGradient>
<path class="st63" d="M1028.3,242.9c0,0,3,4.3,1.9,5.1c-1,0.9-1.5,2.8-1.9,3.3c-0.4,0.4-0.3,3.3-0.6,4s-0.1,4.2-0.8,2.8
	c-0.7-1.3-3.1-3.1-3.4-4.3c-0.4-1.2,0.7-8.3,1.5-8.7C1025.8,244.8,1026.2,242,1028.3,242.9z"/>
<radialGradient id="SVGID_65_" cx="1025.4091" cy="313.7067" r="5.1048" gradientUnits="userSpaceOnUse">
	<stop  offset="0" style="stop-color:#FFFFDB"/>
	<stop  offset="1" style="stop-color:#EEFFE3"/>
</radialGradient>
<path class="st64" d="M1029.4,308c0.8,0.1,0.4,2.5-1.4,3.1s-0.2,1.3-1.1,2.2c-0.8,0.9-3.5,3.8-4.2,4.3s-2,2.9-1.6,1.3
	s1.9-3.1,2.7-4.2C1024.6,313.6,1026.6,307.5,1029.4,308z"/>
<radialGradient id="SVGID_66_" cx="1017.6603" cy="312.285" r="0.8279" gradientUnits="userSpaceOnUse">
	<stop  offset="0" style="stop-color:#FFFFDB"/>
	<stop  offset="1" style="stop-color:#EEFFE3"/>
</radialGradient>
<path class="st65" d="M1018.6,311.6c0,0,0.2,2.1-1.2,1.1C1015.9,311.8,1017.1,311.7,1018.6,311.6z"/>
<radialGradient id="SVGID_67_" cx="1088.806" cy="382.1999" r="2.8215" gradientUnits="userSpaceOnUse">
	<stop  offset="0" style="stop-color:#FFFFDB"/>
	<stop  offset="1" style="stop-color:#EEFFE3"/>
</radialGradient>
<path class="st66" d="M1089.5,378.8c0,0,1,1.5,1,2.8c-0.1,1.3,0.3,1.9,0.3,1.9s-0.3,0-0.6,0.7s-4,2.3-3.3,0.9
	c0.7-1.3,1.4-2.7,1.4-2.7l-0.1-3C1088.2,379.5,1088.9,378.5,1089.5,378.8z"/>
<radialGradient id="SVGID_68_" cx="1076.4756" cy="387.7266" r="2.0253" gradientUnits="userSpaceOnUse">
	<stop  offset="0" style="stop-color:#FFFFDB"/>
	<stop  offset="1" style="stop-color:#EEFFE3"/>
</radialGradient>
<path class="st67" d="M1078,386.1c0,0,0.8,1.9,0,2.7c-0.8,0.8-2.8,1.5-3,0.8s-0.8-2,0-2.2s2-0.1,2-0.1S1077,384.4,1078,386.1z"/>
<radialGradient id="SVGID_69_" cx="1199.0596" cy="448.5559" r="8.169" gradientUnits="userSpaceOnUse">
	<stop  offset="0" style="stop-color:#FFFFDB"/>
	<stop  offset="1" style="stop-color:#EEFFE3"/>
</radialGradient>
<path class="st68" d="M1203,454.3c0,0-0.3,5.7-0.5,3.2s-2.7-4.3-2.7-4.5s-4.4-2.5-4.6-3.9s-0.6-2.4-1.1-2.8s-0.7-4.2-0.7-4.2
	l-0.8-2.9c0,0,0.5-0.5,1,0s3,5.3,4.2,5.9s2.1,0.7,2,1.6s0.1,1.4,0.6,1.9s2.6,2.5,2.6,2.5s3.4,3.2,2.3,3.2S1203,454.3,1203,454.3z"/>
<radialGradient id="SVGID_70_" cx="1192.1418" cy="435.8728" r="1.9548" gradientUnits="userSpaceOnUse">
	<stop  offset="0" style="stop-color:#FFFFDB"/>
	<stop  offset="1" style="stop-color:#EEFFE3"/>
</radialGradient>
<path class="st69" d="M1194.1,434.5c0,0,0.5,1.2-2.6,2.9c-2.4,1.3-0.9-1-0.7-1.4C1190.8,435.9,1191.8,432.7,1194.1,434.5z"/>
<radialGradient id="SVGID_71_" cx="1240.0198" cy="435.333" r="3.8166" gradientUnits="userSpaceOnUse">
	<stop  offset="0" style="stop-color:#FFFFDB"/>
	<stop  offset="1" style="stop-color:#EEFFE3"/>
</radialGradient>
<path class="st70" d="M1243.4,434.9c0,0-1,3.3-1.6,3.2s-1.9-0.8-2.5-0.8s-3.7,2.2-3.6,0.8c0-1.3,0-2.5,0-2.5s2.4-1.6,2.5-2.1
	s3.4-0.9,3.4-0.9l0.5-0.5c0,0,2.6,1.6,2.2,1.9S1243.4,434.9,1243.4,434.9z"/>
<radialGradient id="SVGID_72_" cx="1255.8356" cy="428.4254" r="3.1797" gradientUnits="userSpaceOnUse">
	<stop  offset="0" style="stop-color:#FFFFDB"/>
	<stop  offset="1" style="stop-color:#EEFFE3"/>
</radialGradient>
<path class="st71" d="M1255.7,429.5c0,0-0.1,1.8-1.1,1.7c-1-0.1-2.2,0-2.1-0.8s-0.1-1.7-0.2-1.9c0-0.3,0.6-1.2,3-1.4
	c2.3-0.2,3.5-0.7,3.7-1.3s0.6,0.7,0.2,1.5C1258.9,428,1256.7,429.9,1255.7,429.5z"/>
<radialGradient id="SVGID_73_" cx="1250.8516" cy="432.3" r="4.132" gradientUnits="userSpaceOnUse">
	<stop  offset="0" style="stop-color:#FFFFDB"/>
	<stop  offset="1" style="stop-color:#EEFFE3"/>
</radialGradient>
<path class="st72" d="M1254.5,432.9c0,0,0,0.7-0.5,1.3s-1.2,1.8-2.5,1.8s-1-0.8-1-0.8l-1.3,1c0,0-2.7,0-2.7-0.8s0.1-2,0.1-2
	s2.3-0.7,1.8-1.2c-0.5-0.6,0.3-3.6,0.3-3.6l1.3-0.2c0,0,1.1,0.6,1,1.1c-0.2,0.5-0.2,1.5-0.2,1.5s1.6,0.1,1.8,0.2
	c0.2,0.1,2.7,0.3,2.6,0.8C1255.1,432.5,1255.2,433.1,1254.5,432.9z"/>
<radialGradient id="SVGID_74_" cx="1177.4265" cy="391.303" r="3.508" gradientUnits="userSpaceOnUse">
	<stop  offset="0" style="stop-color:#FFFFDB"/>
	<stop  offset="1" style="stop-color:#EEFFE3"/>
</radialGradient>
<path class="st73" d="M1180.8,394.4c0,0-4.1,0.2-4.7-1.7c-0.6-1.9-2.1-1.8-2.1-1.8s-1-2.7,0-2.7s3.2,1.5,3.2,1.5s3,1,3,2.1
	S1182.2,393.9,1180.8,394.4z"/>
<radialGradient id="SVGID_75_" cx="1170.0671" cy="381.5281" r="3.2907" gradientUnits="userSpaceOnUse">
	<stop  offset="0" style="stop-color:#FFFFDB"/>
	<stop  offset="1" style="stop-color:#EEFFE3"/>
</radialGradient>
<path class="st74" d="M1167.9,377.6c0,0-0.7,3.7,0,4.3c0.7,0.6,1.1,1.6,1.2,2.3s3.9,2.1,3.4,0.6
	C1172.2,383.3,1171,377.3,1167.9,377.6z"/>
<radialGradient id="SVGID_76_" cx="1190.8099" cy="394.1241" r="3.0286" gradientUnits="userSpaceOnUse">
	<stop  offset="0" style="stop-color:#FFFFDB"/>
	<stop  offset="1" style="stop-color:#EEFFE3"/>
</radialGradient>
<path class="st75" d="M1190.9,391c0.1,0.6,0.4,2.5,0.9,3s0.3,1,0.8,1.9c0.6,0.9,0.3,2.2-0.2,1.9c-0.5-0.3-1.4-2.6-2.8-2.9
	c-1.5-0.3-0.7-1.5-0.7-1.5S1190.4,388.8,1190.9,391z"/>
<radialGradient id="SVGID_77_" cx="1184.1501" cy="390.25" r="2.6967" gradientUnits="userSpaceOnUse">
	<stop  offset="0" style="stop-color:#FFFFDB"/>
	<stop  offset="1" style="stop-color:#EEFFE3"/>
</radialGradient>
<path class="st76" d="M1187.3,392l-0.6,0.4l-0.5-0.1l-2.6-0.2c0,0-0.4-1.1-0.6-1.2c-0.1-0.1-2-1.8-2-1.8v-1l2.5,0.2l0.5,1.7h2.8
	l-0.3,0.7L1187.3,392z"/>
<radialGradient id="SVGID_78_" cx="1177.4189" cy="386.262" r="2.6835" gradientUnits="userSpaceOnUse">
	<stop  offset="0" style="stop-color:#FFFFDB"/>
	<stop  offset="1" style="stop-color:#EEFFE3"/>
</radialGradient>
<path class="st77" d="M1180.5,387.4l-0.4,0.7c0,0-3.3,0.9-3.7-0.3c-0.4-1.2-2.1-3.2-2.1-3.2l1.3-0.5l0.4,0.9c0,0,1.7-0.3,1.5,0
	s0.5,1.9,0.5,1.9S1180.9,386.7,1180.5,387.4z"/>
<radialGradient id="SVGID_79_" cx="1188.2179" cy="398.5641" r="1.967" gradientUnits="userSpaceOnUse">
	<stop  offset="0" style="stop-color:#FFFFDB"/>
	<stop  offset="1" style="stop-color:#EEFFE3"/>
</radialGradient>
<path class="st78" d="M1190.1,397.8c0,0,0.3,3.3-0.7,2.7c-0.9-0.6-4.1-1.3-2.8-2.1C1187.8,397.7,1189.9,395,1190.1,397.8z"/>
<radialGradient id="SVGID_80_" cx="1193.7311" cy="401.5781" r="1.6815" gradientUnits="userSpaceOnUse">
	<stop  offset="0" style="stop-color:#FFFFDB"/>
	<stop  offset="1" style="stop-color:#EEFFE3"/>
</radialGradient>
<path class="st79" d="M1195.2,401.9c0,0.2,0.6,0.6-0.2,0.8c-0.9,0.1-2,1.2-2.3,0c-0.4-1.2-1-2.8-0.4-2.8s1.2,1.2,1.2,1.2l1.7,0.5
	L1195.2,401.9z"/>
<radialGradient id="SVGID_81_" cx="1211.5194" cy="424.5987" r="4.6618" gradientUnits="userSpaceOnUse">
	<stop  offset="0" style="stop-color:#FFFFDB"/>
	<stop  offset="1" style="stop-color:#EEFFE3"/>
</radialGradient>
<path class="st80" d="M1211.4,426.5c0,0,2.1-3.9,0.1-5.2c-2-1.2-2.8-3.1-2.9-1.8c-0.1,1.3-1.3,4.2-0.2,5.1c1.1,1,1.5,1.6,1.5,2.2
	c0,0.5,1.8,3.7,2.2,3.3c0.4-0.4,3-1.5,2.8-2.3c-0.1-0.8,0.2-2,0.2-2h-2.1C1213.1,426,1212.4,428.9,1211.4,426.5z"/>
<radialGradient id="SVGID_82_" cx="1214.5491" cy="422.7844" r="1.9136" gradientUnits="userSpaceOnUse">
	<stop  offset="0" style="stop-color:#FFFFDB"/>
	<stop  offset="1" style="stop-color:#EEFFE3"/>
</radialGradient>
<path class="st81" d="M1215.6,420.7c0,0,1.2,3.9,0.4,4.1s-1.5-0.1-1.5-0.1s-2.1-2.2-1.6-2.4S1214.4,423.5,1215.6,420.7z"/>
<radialGradient id="SVGID_83_" cx="1213.3021" cy="416.9797" r="1.7487" gradientUnits="userSpaceOnUse">
	<stop  offset="0" style="stop-color:#FFFFDB"/>
	<stop  offset="1" style="stop-color:#EEFFE3"/>
</radialGradient>
<path class="st82" d="M1214.4,415.3c0,0,0.8,4.3-0.5,3.7s-1.7-1.5-1.7-2.1s-0.6-1.4,0.1-1.4C1213.1,415.5,1214.4,414.3,1214.4,415.3
	z"/>
<radialGradient id="SVGID_84_" cx="1213.332" cy="412.3479" r="1.2046" gradientUnits="userSpaceOnUse">
	<stop  offset="0" style="stop-color:#FFFFDB"/>
	<stop  offset="1" style="stop-color:#EEFFE3"/>
</radialGradient>
<path class="st83" d="M1214.3,411.6c0,0,0.4,2.2-0.8,2.1s-1.2,0.2-1.2-1.1S1213.8,410.3,1214.3,411.6z"/>
<radialGradient id="SVGID_85_" cx="1212.0593" cy="406.0055" r="1.9928" gradientUnits="userSpaceOnUse">
	<stop  offset="0" style="stop-color:#FFFFDB"/>
	<stop  offset="1" style="stop-color:#EEFFE3"/>
</radialGradient>
<path class="st84" d="M1214.1,406.5c0,0,0.7,0.9-0.5,0.9s-1.9,0.7-2,0c-0.2-0.7-0.2-1.5-0.5-1.6s-1.8-1.1-1.1-1.3s2.1-0.2,2.1-0.2
	l0.7,1.1C1212.8,405.5,1214.2,405.2,1214.1,406.5z"/>
<radialGradient id="SVGID_86_" cx="1210.1716" cy="401.6115" r="2.0568" gradientUnits="userSpaceOnUse">
	<stop  offset="0" style="stop-color:#FFFFDB"/>
	<stop  offset="1" style="stop-color:#EEFFE3"/>
</radialGradient>
<path class="st85" d="M1210.3,401.8c0,0,1.3,2.3,0,2.1s-1-1-1.5-1.3c-0.5-0.4-0.4-1.1-0.4-1.1s1.5,0.2,1.2-0.4s-1.3-1.4-1.2-1.6
	s3.2-0.3,3.1,0C1211.6,399.9,1213,401.8,1210.3,401.8z"/>
<radialGradient id="SVGID_87_" cx="1218.2511" cy="408.1982" r="1.4187" gradientUnits="userSpaceOnUse">
	<stop  offset="0" style="stop-color:#FFFFDB"/>
	<stop  offset="1" style="stop-color:#EEFFE3"/>
</radialGradient>
<path class="st86" d="M1219.5,407.7c0,0,0.3,0.1,0.4,1.1s-3.3,0.3-3.3,0.3s0-1.4,0.9-1.3C1218.4,407.8,1218.9,406.2,1219.5,407.7z"
	/>
<radialGradient id="SVGID_88_" cx="1223.2576" cy="406.2964" r="2.0603" gradientUnits="userSpaceOnUse">
	<stop  offset="0" style="stop-color:#FFFFDB"/>
	<stop  offset="1" style="stop-color:#EEFFE3"/>
</radialGradient>
<path class="st87" d="M1225.4,406.1c0,0-1.7,3.5-2.7,1.6s-2.4-3-1-3.3s2.3,0.4,2.4,0.9S1225.5,404.9,1225.4,406.1z"/>
<radialGradient id="SVGID_89_" cx="880.0393" cy="321.0536" r="6.9383" gradientUnits="userSpaceOnUse">
	<stop  offset="0" style="stop-color:#FFFFDB"/>
	<stop  offset="1" style="stop-color:#EEFFE3"/>
</radialGradient>
<path class="st88" d="M877.8,312.5c0,0,10.6,11.1,5.8,14.1s-4.8,3-4.8,3s-3.2,0.4-3.2-4.8S873.9,312.9,877.8,312.5z"/>
<radialGradient id="SVGID_90_" cx="924.3594" cy="300.9377" r="5.241" gradientUnits="userSpaceOnUse">
	<stop  offset="0" style="stop-color:#FFFFDB"/>
	<stop  offset="1" style="stop-color:#EEFFE3"/>
</radialGradient>
<path class="st89" d="M924.4,293.9c0,0,1.4,3.8,2,4.7c0.6,0.9,0,2.3,0,3.4s-1.1,8-2,5.4S919.6,293.6,924.4,293.9z"/>
<radialGradient id="SVGID_91_" cx="927.95" cy="318.7444" r="2.2528" gradientUnits="userSpaceOnUse">
	<stop  offset="0" style="stop-color:#FFFFDB"/>
	<stop  offset="1" style="stop-color:#EEFFE3"/>
</radialGradient>
<path class="st90" d="M930.2,318l-1.3,3l-3.2-3C925.8,318,930.1,314.6,930.2,318z"/>
<radialGradient id="SVGID_92_" cx="956.4465" cy="368.6387" r="1.9212" gradientUnits="userSpaceOnUse">
	<stop  offset="0" style="stop-color:#FFFFDB"/>
	<stop  offset="1" style="stop-color:#EEFFE3"/>
</radialGradient>
<path class="st91" d="M956.1,366.5c0,0,2.5,2.3,1.9,3.3s-0.6,1-0.6,1l-0.7-1.2c0,0,0.1-0.9-0.9-1.5s-1-0.6-1-0.6
	S955.3,366.3,956.1,366.5z"/>
<radialGradient id="SVGID_93_" cx="954.7103" cy="365.0433" r="0.9339" gradientUnits="userSpaceOnUse">
	<stop  offset="0" style="stop-color:#FFFFDB"/>
	<stop  offset="1" style="stop-color:#EEFFE3"/>
</radialGradient>
<path class="st92" d="M955.6,365.3c0,0,0,0.7-0.8,0.7s-1.3-2.1-0.8-1.9S955.8,364.7,955.6,365.3z"/>
<radialGradient id="SVGID_94_" cx="951.0272" cy="361.3723" r="2.3756" gradientUnits="userSpaceOnUse">
	<stop  offset="0" style="stop-color:#FFFFDB"/>
	<stop  offset="1" style="stop-color:#EEFFE3"/>
</radialGradient>
<path class="st93" d="M953.3,362.3c0,0-0.3,0.3-0.5,0.7c-0.2,0.5-2.9,1.2-2.9,0.5s-1.2-2.8-1.2-2.8s1-2.1,1.5-1.7
	S953.8,361.6,953.3,362.3z"/>
<radialGradient id="SVGID_95_" cx="946.3124" cy="350.2722" r="2.1483" gradientUnits="userSpaceOnUse">
	<stop  offset="0" style="stop-color:#FFFFDB"/>
	<stop  offset="1" style="stop-color:#EEFFE3"/>
</radialGradient>
<path class="st94" d="M948.1,352c0,0-1,0.9-1.5,0.2s-2.1-0.6-2.3-1.9s0-2,0-2s0.8-0.5,0.9,0c0.1,0.5,0.6,1.4,1.3,1.7
	C947.1,350.3,949.2,350.6,948.1,352z"/>
<radialGradient id="SVGID_96_" cx="945.0579" cy="345.6392" r="1.1309" gradientUnits="userSpaceOnUse">
	<stop  offset="0" style="stop-color:#FFFFDB"/>
	<stop  offset="1" style="stop-color:#EEFFE3"/>
</radialGradient>
<path class="st95" d="M945.3,344.3c0,0,0.8,1.6,0.6,1.9s-1.9,1.4-1.7,0.3C944.4,345.6,944.2,344.3,945.3,344.3z"/>
<radialGradient id="SVGID_97_" cx="940.7632" cy="343.4358" r="1.4871" gradientUnits="userSpaceOnUse">
	<stop  offset="0" style="stop-color:#FFFFDB"/>
	<stop  offset="1" style="stop-color:#EEFFE3"/>
</radialGradient>
<path class="st96" d="M942.3,344.1c0,0.4-2.6,1.4-2.8,0.2s-0.5-2.3,0-2.3s1.4,0,1.4,0S942.3,343.5,942.3,344.1z"/>
<radialGradient id="SVGID_98_" cx="986.2756" cy="368.1306" r="2.8181" gradientUnits="userSpaceOnUse">
	<stop  offset="0" style="stop-color:#FFFFDB"/>
	<stop  offset="1" style="stop-color:#EEFFE3"/>
</radialGradient>
<path class="st97" d="M983.7,366.8c0,0-2.1,2-0.2,2.5c1.9,0.5,3.9,0.6,3.9,0.6s3.7-2.9,2-3.2C987.6,366.5,984.3,366,983.7,366.8z"/>
<radialGradient id="SVGID_99_" cx="1030.9027" cy="399.6833" r="3.0644" gradientUnits="userSpaceOnUse">
	<stop  offset="0" style="stop-color:#FFFFDB"/>
	<stop  offset="1" style="stop-color:#EEFFE3"/>
</radialGradient>
<path class="st98" d="M1034.5,400.5c0,0-1.1,1.9-3.8,0c-2.7-1.9-3.8-2.3-3.8-2.3s5.7-0.4,6.5,0S1035.6,397.8,1034.5,400.5z"/>
<radialGradient id="SVGID_100_" cx="1022.1534" cy="393.5141" r="5.4283" gradientUnits="userSpaceOnUse">
	<stop  offset="0" style="stop-color:#FFFFDB"/>
	<stop  offset="1" style="stop-color:#EEFFE3"/>
</radialGradient>
<path class="st99" d="M1028.9,391.3c0,0,2.3,4.5-2.9,4.7c-5.2,0.2-6.1-0.7-7.7-1.5c-1.6-0.8-3.4-1.7-3.4-1.7l2.5-0.8
	c0,0,2.4-1.3,2.8-0.9c0.4,0.5,2.8,1.3,2.8,1.3V391l2,0.1v0.9C1025,392,1027.7,391.4,1028.9,391.3z"/>
<radialGradient id="SVGID_101_" cx="52.895" cy="285.45" r="3.1919" gradientUnits="userSpaceOnUse">
	<stop  offset="0" style="stop-color:#FFFFDB"/>
	<stop  offset="1" style="stop-color:#EEFFE3"/>
</radialGradient>
<path class="st100" d="M55.8,285.9l-1.8,1.2c0,0-1.3,0.2-1.6,0.6s-0.7,1.2-0.7,1.2s-0.5-0.6-0.6-0.6s-0.5-0.7-0.5-0.7
	s0.5-0.7-0.2-1.7c-0.8-1-0.2-1.3-0.2-1.3s0.7-0.3,0.7-0.8c0-0.4-0.1-1.4-0.1-1.4l0.1-0.4l0.8,0.2l0.4,0.5c0,0,2.4,1,2.5,1.3
	s0.1,0.6,0.1,0.6S55.9,285.5,55.8,285.9z"/>
<radialGradient id="SVGID_102_" cx="48.5" cy="279.5999" r="1.3342" gradientUnits="userSpaceOnUse">
	<stop  offset="0" style="stop-color:#FFFFDB"/>
	<stop  offset="1" style="stop-color:#EEFFE3"/>
</radialGradient>
<path class="st101" d="M50,280.3l-1.5,0.3h-0.3l-0.1-0.2l-0.1-0.7l-0.7-0.2l-0.4-0.6l0.3-0.2l0.3-0.1c0,0,0.7,0.6,0.8,0.6
	s0.4-0.2,0.4-0.2h0.4l0.2,0.2l0.8,0.3v0.2L50,280.3z"/>
<radialGradient id="SVGID_103_" cx="47.25" cy="280.8" r="0.2264" gradientUnits="userSpaceOnUse">
	<stop  offset="0" style="stop-color:#FFFFDB"/>
	<stop  offset="1" style="stop-color:#EEFFE3"/>
</radialGradient>
<polygon class="st102" points="47.5,280.6 47.5,281 47,280.9 47.2,280.7 "/>
<radialGradient id="SVGID_104_" cx="45.9" cy="279.4" r="0.5523" gradientUnits="userSpaceOnUse">
	<stop  offset="0" style="stop-color:#FFFFDB"/>
	<stop  offset="1" style="stop-color:#EEFFE3"/>
</radialGradient>
<polygon class="st103" points="46.3,279.7 45.8,279.9 45.6,279.4 45.3,279.1 45.4,278.9 46.1,279.1 46.5,279.3 "/>
<radialGradient id="SVGID_105_" cx="45.5" cy="277.9" r="1.0296" gradientUnits="userSpaceOnUse">
	<stop  offset="0" style="stop-color:#FFFFDB"/>
	<stop  offset="1" style="stop-color:#EEFFE3"/>
</radialGradient>
<polygon class="st104" points="45.6,277.5 45.5,277.7 44.4,277.5 44.1,278 45.5,278.1 46,278.3 46.3,278.3 46.9,277.9 46.9,277.7 
	46.2,277.7 "/>
<radialGradient id="SVGID_106_" cx="41.15" cy="276.2" r="1.3309" gradientUnits="userSpaceOnUse">
	<stop  offset="0" style="stop-color:#FFFFDB"/>
	<stop  offset="1" style="stop-color:#EEFFE3"/>
</radialGradient>
<polygon class="st105" points="42.6,277 41.8,277.4 41,277 40,277.2 40,276.7 40,276.2 40,275.9 39.7,276 40.4,276 40.9,275 
	41.2,275 41.7,276.3 "/>
<radialGradient id="SVGID_107_" cx="33.95" cy="273.25" r="1.0548" gradientUnits="userSpaceOnUse">
	<stop  offset="0" style="stop-color:#FFFFDB"/>
	<stop  offset="1" style="stop-color:#EEFFE3"/>
</radialGradient>
<polygon class="st106" points="34.9,273 34.8,273.8 34.3,274.2 33.5,273.6 33.2,273 33,273 32.8,273.1 33.1,272.6 33.5,272.3 
	34.2,272.7 35,272.7 35,272.4 35.1,272.7 "/>
<radialGradient id="SVGID_108_" cx="31.15" cy="274.25" r="0.5025" gradientUnits="userSpaceOnUse">
	<stop  offset="0" style="stop-color:#FFFFDB"/>
	<stop  offset="1" style="stop-color:#EEFFE3"/>
</radialGradient>
<polygon class="st107" points="31.6,273.7 31.4,274.1 31,274.2 30.7,274.8 30.7,274.5 30.7,274 "/>
</svg>
