<svg id="Layer_1" data-name="Layer 1" xmlns="http://www.w3.org/2000/svg" viewBox="0 0 900 490"><defs><style>.cls-1{fill:#f7e89f;}.cls-2{fill:#09f;}.cls-3{fill:#b9e3ff;}.cls-4{fill:#7b7b7b;}.cls-5{fill:#f2f2f2;}.cls-6{fill:#484848;}.cls-7{fill:#ffd800;}.cls-8{fill:#f80;}.cls-9{fill:#4d4d4d;}</style></defs><title>landmark</title><path class="cls-1" d="M505.54-.44c-212.76,0-386,148-392.61,332.86H898.15C891.53,147.61,718.3-.44,505.54-.44"/><path class="cls-2" d="M786,334.3c-4.73-132-128.48-237.79-280.47-237.79S229.8,202.27,225.07,334.3Z"/><path class="cls-3" d="M729.27,236.85c-.74,20.88-20.12,37.23-43.92,37.23s-43.18-16.35-43.91-37.23H654c.66,10.44,14.44,26.39,31.37,26.39s30.72-15.95,31.37-26.39Z"/><path class="cls-4" d="M419.4,246.54l-15.83,4.17-.24,0-.73.2-12.71,3.28c-6.31-5.1-15-8.74-24-7.89a71,71,0,0,1-2.83-10.56c-3.28-16-3.85-36.84-1.82-48.53v0c-.32-.12-3.56-1.54-8.14-3.56s-10.48-4.78-16.11-7.45a154.25,154.25,0,0,1-16.11-8.54,5.79,5.79,0,0,0-.61-.45C310.67,160,306.91,151.74,304,145a3.62,3.62,0,0,1,4.41-4.9c9.23,2.91,21.13,3.2,40.6,6.44a46.19,46.19,0,0,1,6,1.34,34.13,34.13,0,0,1,9.43,4.29,28.69,28.69,0,0,1,2.39,1.86l1.05-.53a2.6,2.6,0,0,0,1-.73,32.83,32.83,0,0,1,7.61-6.15,6.44,6.44,0,0,1,.89-.53,33.77,33.77,0,0,1,10.24-3.76,31.66,31.66,0,0,1,6.36-.61,38.17,38.17,0,0,1,4.7.32,1.75,1.75,0,0,1,.2,0h0a10.64,10.64,0,0,0,1.58.24,17.32,17.32,0,0,0,14.13-4.57c3.12-2.91,4.74-6.4,4.74-8.3v-7a3.16,3.16,0,0,1,5.51-2.1l4.7,5.14c.2.2,7.21,5.83.32,18.62a81.52,81.52,0,0,1-5.79,9,87,87,0,0,1-10.81,12.22,63.73,63.73,0,0,1-13.36,9.76c-.49.24-1,.49-1.5.73a35,35,0,0,1-5.14,2.06c-1.09.36-2,2.71-2.06,4.9a5.78,5.78,0,0,0,.49,3c6.36,12.22,13.48,26,20.08,37.16,2,3.4,4,6.56,5.87,9.35a62.47,62.47,0,0,0,6.8,8.78h0"/><rect class="cls-5" x="574" y="236" width="326" height="96"/><path class="cls-6" d="M402.6,251l-12.71,3.28c-6.31-5.1-15-8.74-24-7.89a71,71,0,0,1-2.83-10.56c-3.28-16-3.85-36.84-1.82-48.53v0c-.32-.12-3.56-1.54-8.14-3.56s-10.48-4.78-16.11-7.45c5.79-10,12.26-20.68,17.93-28.33a34.14,34.14,0,0,1,9.43,4.29,28.75,28.75,0,0,1,2.39,1.86l1.05-.53a2.6,2.6,0,0,0,1-.73c-6,44.77,20,81.56,30,93.83C401.14,249.42,402.6,251,402.6,251Z"/><path class="cls-3" d="M400.54,267.07c-1.93-15.56,13.5-40.11,37-44.16s46.21,13.92,49.6,29.23l-12.36,2.13c-2.42-10.18-18.72-23.55-35.39-20.67s-27.56,20.94-26.43,31.34Z"/><path class="cls-3" d="M411.63,265.16l-11.09,1.9-1.25.2c-1-4.25-4.49-9.11-9.39-13-6.31-5.1-15-8.74-24-7.89-.69.08-1.38.16-2.06.28-16.68,2.87-27.57,20.93-26.43,31.33l-12.35,2.15c-1.94-15.58,13.48-40.11,37-44.16a9.49,9.49,0,0,1,1.05-.16c13.4-1.94,26.47,3.2,35.74,10.81a49.29,49.29,0,0,1,4.49,4.17.56.56,0,0,0,.12.16C407.66,255.45,410.57,260.43,411.63,265.16Z"/><rect class="cls-4" x="81.97" y="154.91" width="4.91" height="178"/><path class="cls-1" d="M900,332V489.82H72.7A72.7,72.7,0,0,1,0,417.08V404.69A72.69,72.69,0,0,1,72.7,332Z"/><rect class="cls-7" x="86.88" y="154.69" width="81.97" height="48.29"/><rect class="cls-8" x="86.88" y="177.12" width="81.97" height="26.72"/><rect class="cls-2" x="593" y="250.22" width="307" height="81.39"/><path class="cls-3" d="M788.23,268.15c-.4,5.27-7.13,12.36-15.15,12.14s-14.35-7.67-14.45-13l4.23.12c.12,3.52,4.62,9,10.32,9.18s10.5-5.09,10.82-8.6Z"/><path class="cls-3" d="M784.44,268l3.79.11.43,0a8.82,8.82,0,0,0,2.24,4.93,11.45,11.45,0,0,0,7.4,4.2l.7,0c5.7.16,10.5-5.09,10.82-8.6l4.22.11c-.39,5.28-7.12,12.36-15.15,12.14l-.36,0a15.8,15.8,0,0,1-11.1-5.95,16.62,16.62,0,0,1-1.21-1.68.19.19,0,0,0,0-.06A10.82,10.82,0,0,1,784.44,268Z"/><path class="cls-3" d="M720.23,298.15c-.4,5.27-7.13,12.36-15.15,12.14s-14.35-7.67-14.45-13l4.23.12c.12,3.52,4.62,9,10.32,9.18s10.5-5.09,10.82-8.6Z"/><path class="cls-3" d="M716.44,298l3.79.11.43,0a8.82,8.82,0,0,0,2.24,4.93,11.45,11.45,0,0,0,7.4,4.2l.7,0c5.7.16,10.5-5.09,10.82-8.6l4.22.11c-.39,5.28-7.12,12.36-15.15,12.14l-.36,0a15.8,15.8,0,0,1-11.1-5.95,16.62,16.62,0,0,1-1.21-1.68.19.19,0,0,0,0-.06A10.82,10.82,0,0,1,716.44,298Z"/><path class="cls-3" d="M643.23,275.15c-.4,5.27-7.13,12.36-15.15,12.14s-14.35-7.67-14.45-13l4.23.12c.12,3.52,4.62,9,10.32,9.18s10.5-5.09,10.82-8.6Z"/><path class="cls-3" d="M639.44,275l3.79.11.43,0a8.82,8.82,0,0,0,2.24,4.93,11.45,11.45,0,0,0,7.4,4.2l.7,0c5.7.16,10.5-5.09,10.82-8.6l4.22.11c-.39,5.28-7.12,12.36-15.15,12.14l-.36,0a15.8,15.8,0,0,1-11.1-5.95,16.62,16.62,0,0,1-1.21-1.68.19.19,0,0,0,0-.06A10.82,10.82,0,0,1,639.44,275Z"/><rect class="cls-9" x="874" y="235" width="3.69" height="43"/><rect class="cls-9" x="894.31" y="235" width="3.69" height="44"/><rect class="cls-9" x="874" y="267" width="22.15" height="2.39"/><rect class="cls-9" x="874" y="256" width="22.15" height="2.39"/><rect class="cls-9" x="874" y="245" width="22.15" height="2.39"/><rect class="cls-9" x="874" y="235" width="22.15" height="4"/><path class="cls-3" d="M873.33,274.67c-.16,2.19-3,5.13-6.28,5s-6-3.18-6-5.37l1.75,0a4.45,4.45,0,0,0,8.77.24Z"/><path class="cls-3" d="M871.76,274.63l1.57,0h.18a3.66,3.66,0,0,0,.93,2,4.75,4.75,0,0,0,3.07,1.74l.29,0a4.69,4.69,0,0,0,4.49-3.57l1.75,0c-.16,2.19-3,5.13-6.28,5h-.15a6.55,6.55,0,0,1-4.6-2.47,6.89,6.89,0,0,1-.5-.7v0A4.49,4.49,0,0,1,871.76,274.63Z"/></svg>