<svg id="Layer_1" data-name="Layer 1" xmlns="http://www.w3.org/2000/svg" viewBox="0 0 395 182"><defs><style>.cls-1{fill:#f2f2f2;}.cls-2{fill:#f80;}.cls-3{fill:#09f;}.cls-4{fill:#1a1a1a;}</style></defs><title>Untitled-1</title><path class="cls-1" d="M176.56,106.69l-1.86,1.86-.17.17h0l-2.11,2.09h0l-49.29,48.91-.24.24H109.24l0-.06-.09-.17h0l0-.08-.81-1.56-.23-.44L97.48,137.29l-.21-.42L73.38,90.78a178.93,178.93,0,0,1,24.22-2c4.92-.1,10.38-.05,16.19.29h.07a159.7,159.7,0,0,1,37.37,6.38,110.6,110.6,0,0,1,20.3,8.36l.07,0,.81.44h0l1,.58C174.49,105.44,175.52,106.06,176.56,106.69Z"/><path class="cls-1" d="M393.22,79.15c-2,2.39-6.08,12.76-10.61,25.31C374.45,127,364.94,156.71,364,159.72l0,.1h0a1.31,1.31,0,0,1,0,.15h-8.18a.94.94,0,0,0,0-.15h0l0-.08c-.89-2.72-9.31-28.16-19.71-48.51a.54.54,0,0,1,0-.08v0a120.78,120.78,0,0,0-8.73-14.73.21.21,0,0,1-.05-.08l-.14-.19,0,0a39.16,39.16,0,0,0-6.72-7.53l-.34-.29v0h0l.43-.17c3.54-1.27,14.68-4.18,27.55-6.59C364.23,78.46,383.38,76.21,393.22,79.15Z"/><path class="cls-2" d="M356.56,160H308.68s8.94-59.93,11.2-71.71C326.18,89.11,355.48,146.12,356.56,160Z"/><path class="cls-1" d="M330.75,51.09c-1.81,3.32-3.66,8.78-5.48,15.5-1.69,6.27-3.35,13.67-4.94,21.51,0,.09,0,.18-.05.27v0c0,.06,0,.11,0,.18-1.2,6-2.36,12.18-3.44,18.34,0,.1,0,.21-.05.31-4.38,25-7.56,49-8,52.35v0s0,.06,0,.09a.27.27,0,0,0,0,.08v0h0a.91.91,0,0,0,0,.11.25.25,0,0,0,0,.05H297.48l-.06-.17h0v0c-1.11-3.26-15.76-46.26-24.44-72.91-2.42-7.44-4.38-13.61-5.44-17.28,4.07-1.66,7.87-3.15,11.41-4.51,12.58-4.83,22-7.89,29.1-9.86C322.62,51.17,327.63,51.7,330.75,51.09Z"/><path class="cls-2" d="M297.48,160l-46.75-.27c2-36,8.9-71.77,16.8-90.13C280.41,94.09,296.07,138.08,297.48,160Z"/><path class="cls-1" d="M297.48,6.67q-5.1,14.78-9.34,28.07-5.2,16.27-9.21,30.34-.65,2.29-1.28,4.51-2,7-3.66,13.4c-.35,1.32-.69,2.61-1,3.88-10.66,41.09-13.18,64.07-13.73,70.75a2.11,2.11,0,0,1,0,.35c0,.5-.07.89-.08,1.18s0,.56,0,.56H236.24c-1.72-.46-36.29-29.22-55.34-45.74-2.23-1.94-4.26-3.71-6-5.24l-.1-.08-.12-.1-2.11-1.7-.17-.14-.42-.33h0l-.07-.06c-.38-.32-.78-.63-1.16-.94.27-.51.77-1,.86-1.52a.05.05,0,0,0,0,0s0-.05,0-.08c2.93-21.79,26-46.72,53.17-65.86h0q2-1.37,3.93-2.71l1.46-1C253.67,18.6,279.36,7.61,297.48,6.67Z"/><path class="cls-1" d="M231.29.37c0,1.14-.08,2.52-.13,4.07-.28,9.14-.77,24.09-1,29.6a.66.66,0,0,1,0,.13c0,1.27-.05,2-.05,2l-1.29.88c-7.09,5-41.64,30.77-55.15,67.08h0c-.09.23-.18.46-.26.71-.23.61-.44,1.22-.65,1.83l-.37-.15h0l-.41-.17h0l-.18-.06-2.12-.83c-9.48-3.63-38.44-14.24-56.5-15.09.16-.37.36-.8.61-1.32,2.85-5.78,11.87-20.48,26-36.31l.64-.68,1.06-1.16c.71-.79,1.45-1.59,2.21-2.38l.63-.65c.15-.16.29-.31.44-.45.63-.66,1.19-1.25,1.67-1.74a1.91,1.91,0,0,1,.19-.18l.24-.26.23-.24,1.22-1.23C167.64,24.61,194.1,5.89,226,1,227.74.77,229.51.55,231.29.37Z"/><path class="cls-2" d="M58.22,160H18.92s-4-29.61-19.68-85.84C6.87,81.24,44.52,128.63,58.22,160Z"/><path class="cls-1" d="M107.78,128.57l-10.27,8.69,0,0L79.56,152.45h0L71,159.71l-.78,0h-.06L59.7,160h-.1l-1.38,0s0,0-.05,0l0,0h0a1.44,1.44,0,0,1-.2-.23h0c-3.18-4-30-49.68-48.14-73.54a.08.08,0,0,0,0,0c-1.1-1.45-2.16-2.82-3.2-4.08L5.18,80.4a56.24,56.24,0,0,0-6-6.26c1.38-.35,4.42-1.06,8.73-1.8,1.68-.29,3.54-.58,5.57-.86,20.38-2.79,57.21-4,83.93,16.79l.16.51C108.38,123.14,107.78,128.57,107.78,128.57Z"/><polygon class="cls-2" points="70.99 159.99 109.24 159.99 76.53 90.08 70.99 159.99"/><polygon class="cls-1" points="122.88 159.98 236.3 159.71 174.45 108.64 122.88 159.98"/><polygon class="cls-2" points="108.7 159.98 172.23 159.98 172.43 103.02 108.7 159.98"/><path class="cls-2" d="M228.71,34.73l7.59,125L172.43,103S186.22,68.23,228.71,34.73Z"/><path class="cls-2" d="M153.87,99.11c-14.25-6.13-38.45-9.81-40-10h-.07c4.29-11.26,17.26-26.66,26-36.31l.64-.68,1.06-1.16c1.22-1.32,2.33-2.5,3.28-3.49.63-.66,1.19-1.25,1.67-1.74.16-.16.3-.31.44-.44l.23-.24,1.22-1.23c-2,3.44-2.72,39.17,2.87,51.67A8.72,8.72,0,0,0,153.87,99.11Z"/><path class="cls-3" d="M155.16,99.69a3.36,3.36,0,0,1-1.29-.58Z"/><polygon class="cls-4" points="395.27 182 18.95 182 18.95 159.71 57.91 159.72 58.11 159.72 70.16 159.72 71.29 159.72 108.97 159.73 109.11 159.73 123.11 159.74 172.23 159.76 209.99 159.77 264.68 159.78 297.42 159.79 297.46 159.79 308.71 159.8 355.67 159.82 364.29 159.82 394.19 181.22 395.27 182"/></svg>