<svg id="Layer_1" data-name="Layer 1" xmlns="http://www.w3.org/2000/svg" viewBox="0 0 478 134"><defs><style>.cls-1{fill:#f4f4f4;}.cls-2{fill:#666;}.cls-3{fill:#1a1a1a;}.cls-4{fill:#f2f2f2;}.cls-5{fill:#f7e89f;}</style></defs><title>Untitled-1</title><polyline class="cls-1" points="237.25 18.67 236.67 17.97 222.44 1.05 221.83 1.89 235.39 18 237.25 20.23"/><polygon class="cls-2" points="236.38 22.65 235.78 23.49 218.16 2.54 218.76 1.7 236.38 22.65"/><polyline class="cls-1" points="235.29 20.23 237.16 18 250.72 1.89 250.11 1.05 235.88 17.97 235.29 18.67"/><rect class="cls-1" x="208.22" y="6.51" width="0.83" height="71.75"/><polygon class="cls-1" points="44.45 99.64 35.58 100.97 35.4 99.05 44.28 97.72 44.45 99.64"/><polygon class="cls-1" points="44.5 114.73 35.63 116.06 35.46 114.14 44.33 112.81 44.5 114.73"/><polygon class="cls-1" points="40.15 99.78 39.12 98.82 44.2 89.8 45.23 90.75 40.15 99.78"/><polygon class="cls-1" points="40.6 99.24 39.58 99.93 33.35 84.57 34.38 83.88 40.6 99.24"/><polygon class="cls-1" points="40.61 114.81 39.58 113.86 44.2 105.65 45.23 106.61 40.61 114.81"/><polygon class="cls-1" points="41.29 114.13 40.27 114.82 34.04 99.46 35.07 98.78 41.29 114.13"/><polygon class="cls-1" points="210.55 24.07 209.94 24.91 192.32 3.96 192.92 3.12 210.55 24.07"/><polygon class="cls-1" points="225.31 24.07 224.7 24.91 207.08 3.96 207.68 3.12 225.31 24.07"/><polygon class="cls-1" points="65.2 100.74 64.17 101.4 50.3 65.64 51.33 64.98 65.2 100.74"/><polygon class="cls-1" points="79.6 90.07 78.6 90.72 63.56 51.95 64.56 51.31 79.6 90.07"/><polygon class="cls-1" points="94.84 76.14 93.72 77.22 75.14 45.05 76.27 43.97 94.84 76.14"/><polygon class="cls-1" points="110.68 69.95 109.56 71.02 90.98 38.85 92.11 37.77 110.68 69.95"/><polygon class="cls-2" points="84.53 88.4 83.53 89.04 68.49 50.28 69.5 49.63 84.53 88.4"/><polygon class="cls-2" points="101.07 79.04 100.15 79.87 80.89 44.33 81.81 43.51 101.07 79.04"/><polygon class="cls-2" points="112.31 65.56 111.39 66.39 95.48 37.04 96.4 36.22 112.31 65.56"/><polygon class="cls-1" points="126.52 59.78 125.6 60.61 109.7 31.26 110.62 30.43 126.52 59.78"/><polygon class="cls-1" points="140 48.1 139.18 49.09 123.22 27.36 124.03 26.37 140 48.1"/><rect class="cls-1" x="43.56" y="67.39" width="1.67" height="52.69"/><rect class="cls-1" x="97.68" y="34.92" width="1.67" height="48.97"/><rect class="cls-1" x="111.39" y="33.05" width="1.67" height="48.97"/><rect class="cls-1" x="125.34" y="29.29" width="1.67" height="48.97"/><rect class="cls-1" x="139.15" y="23.4" width="1.67" height="54.86"/><rect class="cls-1" x="153.07" y="18.82" width="1.67" height="59.44"/><rect class="cls-1" x="166.98" y="14.02" width="1.67" height="64.24"/><rect class="cls-1" x="180.42" y="11.13" width="0.83" height="67.12"/><rect class="cls-1" x="194.31" y="9.33" width="0.83" height="68.27"/><rect class="cls-1" x="57.3" y="57.54" width="1.67" height="52.69"/><rect class="cls-1" x="70.75" y="51.26" width="1.67" height="47.87"/><rect class="cls-1" x="84.13" y="44.83" width="1.67" height="40.31"/><polygon class="cls-3" points="41.2 131.6 20.23 131.6 20.23 83.88 34.38 83.88 41.2 131.6"/><rect class="cls-2" x="18.77" y="77.61" width="218.48" height="7.53"/><rect class="cls-4" x="-0.74" y="81.37" width="20.97" height="50.85"/><rect class="cls-5" x="20.23" y="85.14" width="3.41" height="46.46"/><rect class="cls-4" x="0.24" y="57.52" width="18.53" height="23.86"/><path class="cls-1" d="M8.29,70.7a2.37,2.37,0,0,0-2.19,2.51v6.91h4.39V73.21A2.37,2.37,0,0,0,8.29,70.7Z"/><rect class="cls-4" x="2.19" y="46.84" width="16.58" height="10.67"/><rect class="cls-5" x="18.77" y="49.35" width="3.41" height="29.51"/><rect class="cls-4" x="22.18" y="63.17" width="12.19" height="15.69"/><rect class="cls-4" x="22.18" y="52.49" width="11.22" height="10.67"/><rect class="cls-3" x="22.18" y="49.35" width="9.75" height="3.14"/><rect class="cls-3" x="4.63" y="43.08" width="14.14" height="3.77"/><rect class="cls-3" x="3.65" y="80.12" width="8.78" height="3.77"/><rect class="cls-3" x="5.12" y="83.88" width="5.85" height="2.51"/><rect class="cls-2" x="116.31" y="85.14" width="0.49" height="1.26"/><rect class="cls-2" x="117.85" y="85.14" width="0.49" height="1.26"/><rect class="cls-2" x="119.4" y="85.14" width="0.49" height="1.26"/><rect class="cls-2" x="120.95" y="85.14" width="0.49" height="1.26"/><rect class="cls-2" x="122.49" y="85.14" width="0.49" height="1.26"/><rect class="cls-2" x="124.04" y="85.14" width="0.49" height="1.26"/><rect class="cls-2" x="125.59" y="85.14" width="0.49" height="1.26"/><rect class="cls-2" x="127.13" y="85.14" width="0.49" height="1.26"/><rect class="cls-2" x="128.68" y="85.14" width="0.49" height="1.26"/><rect class="cls-2" x="130.22" y="85.14" width="0.49" height="1.26"/><rect class="cls-2" x="131.77" y="85.14" width="0.49" height="1.26"/><rect class="cls-2" x="133.32" y="85.14" width="0.49" height="1.26"/><rect class="cls-2" x="134.86" y="85.14" width="0.49" height="1.26"/><rect class="cls-2" x="136.41" y="85.14" width="0.49" height="1.26"/><rect class="cls-2" x="137.95" y="85.14" width="0.49" height="1.26"/><rect class="cls-2" x="139.5" y="85.14" width="0.49" height="1.26"/><rect class="cls-2" x="141.05" y="85.14" width="0.49" height="1.26"/><rect class="cls-2" x="142.59" y="85.14" width="0.49" height="1.26"/><rect class="cls-2" x="144.14" y="85.14" width="0.49" height="1.26"/><rect class="cls-2" x="145.69" y="85.14" width="0.49" height="1.26"/><rect class="cls-2" x="147.23" y="85.14" width="0.49" height="1.26"/><rect class="cls-2" x="148.78" y="85.14" width="0.49" height="1.26"/><rect class="cls-2" x="150.32" y="85.14" width="0.49" height="1.26"/><rect class="cls-2" x="151.87" y="85.14" width="0.49" height="1.26"/><rect class="cls-2" x="153.42" y="85.14" width="0.49" height="1.26"/><rect class="cls-2" x="154.96" y="85.14" width="0.49" height="1.26"/><rect class="cls-2" x="156.51" y="85.14" width="0.49" height="1.26"/><rect class="cls-2" x="158.05" y="85.14" width="0.49" height="1.26"/><rect class="cls-2" x="159.6" y="85.14" width="0.49" height="1.26"/><rect class="cls-2" x="161.15" y="85.14" width="0.49" height="1.26"/><rect class="cls-2" x="162.69" y="85.14" width="0.49" height="1.26"/><rect class="cls-2" x="164.24" y="85.14" width="0.49" height="1.26"/><rect class="cls-2" x="165.78" y="85.14" width="0.49" height="1.26"/><rect class="cls-2" x="167.33" y="85.14" width="0.49" height="1.26"/><rect class="cls-2" x="168.88" y="85.14" width="0.49" height="1.26"/><rect class="cls-2" x="170.42" y="85.14" width="0.49" height="1.26"/><rect class="cls-2" x="171.97" y="85.14" width="0.49" height="1.26"/><rect class="cls-2" x="173.52" y="85.14" width="0.49" height="1.26"/><rect class="cls-2" x="175.06" y="85.14" width="0.49" height="1.26"/><rect class="cls-2" x="176.61" y="85.14" width="0.49" height="1.26"/><rect class="cls-2" x="178.15" y="85.14" width="0.49" height="1.26"/><rect class="cls-2" x="179.7" y="85.14" width="0.49" height="1.26"/><rect class="cls-2" x="181.25" y="85.14" width="0.49" height="1.26"/><rect class="cls-2" x="182.79" y="85.14" width="0.49" height="1.26"/><rect class="cls-2" x="184.34" y="85.14" width="0.49" height="1.26"/><rect class="cls-2" x="185.88" y="85.14" width="0.49" height="1.26"/><rect class="cls-2" x="187.43" y="85.14" width="0.49" height="1.26"/><rect class="cls-2" x="188.98" y="85.14" width="0.49" height="1.26"/><rect class="cls-2" x="190.52" y="85.14" width="0.49" height="1.26"/><rect class="cls-2" x="192.07" y="85.14" width="0.49" height="1.26"/><rect class="cls-2" x="193.62" y="85.14" width="0.49" height="1.26"/><rect class="cls-2" x="195.16" y="85.14" width="0.49" height="1.26"/><rect class="cls-2" x="196.71" y="85.14" width="0.49" height="1.26"/><rect class="cls-2" x="198.25" y="85.14" width="0.49" height="1.26"/><rect class="cls-2" x="199.8" y="85.14" width="0.49" height="1.26"/><rect class="cls-2" x="201.35" y="85.14" width="0.49" height="1.26"/><rect class="cls-2" x="202.89" y="85.14" width="0.49" height="1.26"/><rect class="cls-2" x="204.44" y="85.14" width="0.49" height="1.26"/><rect class="cls-2" x="205.98" y="85.14" width="0.49" height="1.26"/><rect class="cls-2" x="207.53" y="85.14" width="0.49" height="1.26"/><rect class="cls-2" x="209.08" y="85.14" width="0.49" height="1.26"/><rect class="cls-2" x="210.62" y="85.14" width="0.49" height="1.26"/><rect class="cls-2" x="212.17" y="85.14" width="0.49" height="1.26"/><rect class="cls-2" x="213.72" y="85.14" width="0.49" height="1.26"/><rect class="cls-2" x="215.26" y="85.14" width="0.49" height="1.26"/><rect class="cls-2" x="216.81" y="85.14" width="0.49" height="1.26"/><rect class="cls-2" x="218.35" y="85.14" width="0.49" height="1.26"/><rect class="cls-2" x="219.9" y="85.14" width="0.49" height="1.26"/><rect class="cls-2" x="221.45" y="85.14" width="0.49" height="1.26"/><rect class="cls-2" x="222.99" y="85.14" width="0.49" height="1.26"/><rect class="cls-2" x="224.54" y="85.14" width="0.49" height="1.26"/><rect class="cls-2" x="226.08" y="85.14" width="0.49" height="1.26"/><rect class="cls-2" x="227.63" y="85.14" width="0.49" height="1.26"/><rect class="cls-2" x="229.18" y="85.14" width="0.49" height="1.26"/><rect class="cls-2" x="230.72" y="85.14" width="0.49" height="1.26"/><rect class="cls-2" x="232.27" y="85.14" width="0.49" height="1.26"/><rect class="cls-2" x="233.81" y="85.14" width="0.49" height="1.26"/><rect class="cls-1" x="222.38" y="6" width="0.83" height="71.75"/><rect class="cls-2" x="206.01" y="6.75" width="1.07" height="71.5"/><rect class="cls-2" x="220.17" y="6.25" width="1.07" height="71.5"/><rect class="cls-2" x="235.31" y="5.61" width="1.07" height="72.71"/><rect class="cls-2" x="235.36" y="85.14" width="0.49" height="1.26"/><rect class="cls-2" x="236.91" y="85.14" width="0.49" height="1.26"/><rect class="cls-2" x="116.31" y="86.39" width="120.95" height="0.63"/><path class="cls-2" d="M41.2,131.6S137.53,19.43,237.26,24.69V18S126,17.29,40,123Z"/><path class="cls-2" d="M34.38,78.86C148.15,1,237.26,6.39,237.26,6.39L236.91,0C138.62-1.6,33.4,67.3,33.4,67.3Z"/><rect class="cls-2" x="48.73" y="61.74" width="1.67" height="52.69"/><rect class="cls-2" x="63.06" y="53.77" width="1.67" height="52.69"/><rect class="cls-2" x="77.49" y="43.73" width="1.67" height="48.97"/><rect class="cls-2" x="91.67" y="36.8" width="1.67" height="48.34"/><rect class="cls-2" x="105.81" y="32.41" width="1.67" height="48.97"/><rect class="cls-2" x="120.11" y="29.91" width="1.67" height="48.97"/><rect class="cls-2" x="134.51" y="24.21" width="1.67" height="54.05"/><rect class="cls-2" x="149" y="20.73" width="1.67" height="58.13"/><rect class="cls-2" x="163.18" y="14.67" width="2.14" height="63.58"/><rect class="cls-2" x="177.09" y="11.94" width="1.07" height="65.66"/><rect class="cls-2" x="192.1" y="9.56" width="1.07" height="68.04"/><polygon class="cls-2" points="56.05 106.79 54.67 107.38 45.48 71.5 46.85 70.92 56.05 106.79"/><polygon class="cls-2" points="71.37 98.12 70.37 98.76 55.33 60 56.33 59.35 71.37 98.12"/><polygon class="cls-2" points="124.53 60.05 123.4 61.13 106 30.99 107.13 29.91 124.53 60.05"/><polygon class="cls-2" points="137.94 50.24 136.9 51.23 121.87 25.2 122.91 24.21 137.94 50.24"/><polygon class="cls-2" points="153.73 42.83 153.07 43.59 137.14 20.48 137.81 19.72 153.73 42.83"/><polygon class="cls-2" points="168.93 36.66 168.32 37.5 150.7 16.54 151.3 15.7 168.93 36.66"/><polygon class="cls-2" points="181.75 32.09 181.14 32.93 163.52 11.97 164.12 11.13 181.75 32.09"/><polygon class="cls-2" points="195.85 28.02 195.24 28.86 177.62 7.91 178.22 7.07 195.85 28.02"/><polygon class="cls-2" points="208.91 24.73 208.31 25.57 190.69 4.61 191.29 3.77 208.91 24.73"/><polygon class="cls-2" points="222.87 24.27 222.26 25.11 204.64 4.15 205.24 3.31 222.87 24.27"/><rect class="cls-1" x="263.5" y="6.51" width="0.83" height="71.75" transform="translate(527.83 84.76) rotate(-180)"/><polygon class="cls-1" points="428.1 99.64 436.97 100.97 437.14 99.05 428.27 97.72 428.1 99.64"/><polygon class="cls-1" points="428.05 114.73 436.92 116.06 437.09 114.14 428.22 112.81 428.05 114.73"/><polygon class="cls-1" points="432.4 99.78 433.43 98.82 428.35 89.8 427.32 90.75 432.4 99.78"/><polygon class="cls-1" points="431.95 99.24 432.97 99.93 439.2 84.57 438.17 83.88 431.95 99.24"/><polygon class="cls-1" points="431.94 114.81 432.97 113.86 428.35 105.65 427.32 106.61 431.94 114.81"/><polygon class="cls-1" points="431.26 114.13 432.28 114.82 438.51 99.46 437.48 98.78 431.26 114.13"/><polygon class="cls-1" points="262 24.07 262.61 24.91 280.23 3.96 279.63 3.12 262 24.07"/><polygon class="cls-1" points="247.24 24.07 247.85 24.91 265.47 3.96 264.87 3.12 247.24 24.07"/><polygon class="cls-1" points="407.35 100.74 408.38 101.4 422.25 65.64 421.22 64.98 407.35 100.74"/><polygon class="cls-1" points="392.95 90.07 393.95 90.72 408.99 51.95 407.99 51.31 392.95 90.07"/><polygon class="cls-1" points="377.71 76.14 378.83 77.22 397.41 45.05 396.28 43.97 377.71 76.14"/><polygon class="cls-1" points="361.87 69.95 362.99 71.02 381.57 38.85 380.44 37.77 361.87 69.95"/><polygon class="cls-2" points="388.01 88.4 389.02 89.04 404.06 50.28 403.05 49.63 388.01 88.4"/><polygon class="cls-2" points="371.48 79.04 372.4 79.87 391.66 44.33 390.74 43.51 371.48 79.04"/><polygon class="cls-2" points="360.24 65.56 361.16 66.39 377.07 37.04 376.15 36.22 360.24 65.56"/><polygon class="cls-1" points="346.03 59.78 346.95 60.61 362.85 31.26 361.93 30.43 346.03 59.78"/><polygon class="cls-1" points="332.55 48.1 333.37 49.09 349.33 27.36 348.52 26.37 332.55 48.1"/><rect class="cls-1" x="427.32" y="67.39" width="1.67" height="52.69" transform="translate(856.31 187.47) rotate(-180)"/><rect class="cls-1" x="373.2" y="34.92" width="1.67" height="48.97" transform="translate(748.07 118.8) rotate(-180)"/><rect class="cls-1" x="359.49" y="33.05" width="1.67" height="48.97" transform="translate(720.66 115.07) rotate(-180)"/><rect class="cls-1" x="345.54" y="29.29" width="1.67" height="48.97" transform="translate(692.75 107.54) rotate(-180)"/><rect class="cls-1" x="331.73" y="23.4" width="1.67" height="54.86" transform="translate(665.12 101.65) rotate(-180)"/><rect class="cls-1" x="317.81" y="18.82" width="1.67" height="59.44" transform="translate(637.29 97.07) rotate(-180)"/><rect class="cls-1" x="303.9" y="14.02" width="1.67" height="64.24" transform="translate(609.46 92.27) rotate(-180)"/><rect class="cls-1" x="291.3" y="11.13" width="0.83" height="67.12" transform="translate(583.43 89.39) rotate(-180)"/><rect class="cls-1" x="277.41" y="9.33" width="0.83" height="68.27" transform="translate(555.65 86.94) rotate(-180)"/><rect class="cls-1" x="413.58" y="57.54" width="1.67" height="52.69" transform="translate(828.83 167.77) rotate(-180)"/><rect class="cls-1" x="400.13" y="51.26" width="1.67" height="47.87" transform="translate(801.94 150.39) rotate(-180)"/><rect class="cls-1" x="386.75" y="44.83" width="1.67" height="40.31" transform="translate(775.17 129.97) rotate(-180)"/><polygon class="cls-3" points="431.35 131.6 452.31 131.6 452.31 83.88 438.17 83.88 431.35 131.6"/><rect class="cls-2" x="235.29" y="77.61" width="218.48" height="7.53" transform="translate(689.07 162.75) rotate(-180)"/><rect class="cls-4" x="452.32" y="81.37" width="20.97" height="50.85" transform="translate(925.6 213.6) rotate(-180)"/><rect class="cls-5" x="448.9" y="85.14" width="3.41" height="46.46" transform="translate(901.22 216.74) rotate(-180)"/><rect class="cls-4" x="453.78" y="57.52" width="18.53" height="23.86" transform="translate(926.09 138.89) rotate(-180)"/><path class="cls-1" d="M464.26,70.7a2.37,2.37,0,0,1,2.19,2.51v6.91h-4.39V73.21A2.37,2.37,0,0,1,464.26,70.7Z"/><rect class="cls-4" x="453.78" y="46.84" width="16.58" height="10.67" transform="translate(924.14 104.36) rotate(-180)"/><rect class="cls-5" x="450.36" y="49.35" width="3.41" height="29.51" transform="translate(904.14 128.22) rotate(-180)"/><rect class="cls-4" x="438.17" y="63.17" width="12.19" height="15.69" transform="translate(888.54 142.03) rotate(-180)"/><rect class="cls-4" x="439.15" y="52.49" width="11.22" height="10.67" transform="translate(889.51 115.66) rotate(-180)"/><rect class="cls-3" x="440.61" y="49.35" width="9.75" height="3.14" transform="translate(890.98 101.85) rotate(-180)"/><rect class="cls-3" x="453.78" y="43.08" width="14.14" height="3.77" transform="translate(921.7 89.92) rotate(-180)"/><rect class="cls-3" x="460.12" y="80.12" width="8.78" height="3.77" transform="translate(929.02 164) rotate(-180)"/><rect class="cls-3" x="461.58" y="83.88" width="5.85" height="2.51" transform="translate(929.02 170.28) rotate(-180)"/><rect class="cls-2" x="355.75" y="85.14" width="0.49" height="1.26" transform="translate(711.99 171.53) rotate(-180)"/><rect class="cls-2" x="354.21" y="85.14" width="0.49" height="1.26" transform="translate(708.9 171.53) rotate(-180)"/><rect class="cls-2" x="352.66" y="85.14" width="0.49" height="1.26" transform="translate(705.81 171.53) rotate(-180)"/><rect class="cls-2" x="351.11" y="85.14" width="0.49" height="1.26" transform="translate(702.72 171.53) rotate(-180)"/><rect class="cls-2" x="349.57" y="85.14" width="0.49" height="1.26" transform="translate(699.62 171.53) rotate(-180)"/><rect class="cls-2" x="348.02" y="85.14" width="0.49" height="1.26" transform="translate(696.53 171.53) rotate(-180)"/><rect class="cls-2" x="346.48" y="85.14" width="0.49" height="1.26" transform="translate(693.44 171.53) rotate(-180)"/><rect class="cls-2" x="344.93" y="85.14" width="0.49" height="1.26" transform="translate(690.35 171.53) rotate(-180)"/><rect class="cls-2" x="343.38" y="85.14" width="0.49" height="1.26" transform="translate(687.26 171.53) rotate(-180)"/><rect class="cls-2" x="341.84" y="85.14" width="0.49" height="1.26" transform="translate(684.16 171.53) rotate(-180)"/><rect class="cls-2" x="340.29" y="85.14" width="0.49" height="1.26" transform="translate(681.07 171.53) rotate(-180)"/><rect class="cls-2" x="338.75" y="85.14" width="0.49" height="1.26" transform="translate(677.98 171.53) rotate(-180)"/><rect class="cls-2" x="337.2" y="85.14" width="0.49" height="1.26" transform="translate(674.89 171.53) rotate(-180)"/><rect class="cls-2" x="335.65" y="85.14" width="0.49" height="1.26" transform="translate(671.79 171.53) rotate(-180)"/><rect class="cls-2" x="334.11" y="85.14" width="0.49" height="1.26" transform="translate(668.7 171.53) rotate(-180)"/><rect class="cls-2" x="332.56" y="85.14" width="0.49" height="1.26" transform="translate(665.61 171.53) rotate(-180)"/><rect class="cls-2" x="331.01" y="85.14" width="0.49" height="1.26" transform="translate(662.52 171.53) rotate(-180)"/><rect class="cls-2" x="329.47" y="85.14" width="0.49" height="1.26" transform="translate(659.43 171.53) rotate(-180)"/><rect class="cls-2" x="327.92" y="85.14" width="0.49" height="1.26" transform="translate(656.33 171.53) rotate(-180)"/><rect class="cls-2" x="326.38" y="85.14" width="0.49" height="1.26" transform="translate(653.24 171.53) rotate(-180)"/><rect class="cls-2" x="324.83" y="85.14" width="0.49" height="1.26" transform="translate(650.15 171.53) rotate(-180)"/><rect class="cls-2" x="323.28" y="85.14" width="0.49" height="1.26" transform="translate(647.06 171.53) rotate(-180)"/><rect class="cls-2" x="321.74" y="85.14" width="0.49" height="1.26" transform="translate(643.96 171.53) rotate(-180)"/><rect class="cls-2" x="320.19" y="85.14" width="0.49" height="1.26" transform="translate(640.87 171.53) rotate(-180)"/><rect class="cls-2" x="318.65" y="85.14" width="0.49" height="1.26" transform="translate(637.78 171.53) rotate(-180)"/><rect class="cls-2" x="317.1" y="85.14" width="0.49" height="1.26" transform="translate(634.69 171.53) rotate(-180)"/><rect class="cls-2" x="315.55" y="85.14" width="0.49" height="1.26" transform="translate(631.59 171.53) rotate(-180)"/><rect class="cls-2" x="314.01" y="85.14" width="0.49" height="1.26" transform="translate(628.5 171.53) rotate(-180)"/><rect class="cls-2" x="312.46" y="85.14" width="0.49" height="1.26" transform="translate(625.41 171.53) rotate(-180)"/><rect class="cls-2" x="310.92" y="85.14" width="0.49" height="1.26" transform="translate(622.32 171.53) rotate(-180)"/><rect class="cls-2" x="309.37" y="85.14" width="0.49" height="1.26" transform="translate(619.23 171.53) rotate(-180)"/><rect class="cls-2" x="307.82" y="85.14" width="0.49" height="1.26" transform="translate(616.13 171.53) rotate(-180)"/><rect class="cls-2" x="306.28" y="85.14" width="0.49" height="1.26" transform="translate(613.04 171.53) rotate(-180)"/><rect class="cls-2" x="304.73" y="85.14" width="0.49" height="1.26" transform="translate(609.95 171.53) rotate(-180)"/><rect class="cls-2" x="303.18" y="85.14" width="0.49" height="1.26" transform="translate(606.86 171.53) rotate(-180)"/><rect class="cls-2" x="301.64" y="85.14" width="0.49" height="1.26" transform="translate(603.76 171.53) rotate(-180)"/><rect class="cls-2" x="300.09" y="85.14" width="0.49" height="1.26" transform="translate(600.67 171.53) rotate(-180)"/><rect class="cls-2" x="298.55" y="85.14" width="0.49" height="1.26" transform="translate(597.58 171.53) rotate(-180)"/><rect class="cls-2" x="297" y="85.14" width="0.49" height="1.26" transform="translate(594.49 171.53) rotate(-180)"/><rect class="cls-2" x="295.45" y="85.14" width="0.49" height="1.26" transform="translate(591.4 171.53) rotate(-180)"/><rect class="cls-2" x="293.91" y="85.14" width="0.49" height="1.26" transform="translate(588.3 171.53) rotate(-180)"/><rect class="cls-2" x="292.36" y="85.14" width="0.49" height="1.26" transform="translate(585.21 171.53) rotate(-180)"/><rect class="cls-2" x="290.82" y="85.14" width="0.49" height="1.26" transform="translate(582.12 171.53) rotate(-180)"/><rect class="cls-2" x="289.27" y="85.14" width="0.49" height="1.26" transform="translate(579.03 171.53) rotate(-180)"/><rect class="cls-2" x="287.72" y="85.14" width="0.49" height="1.26" transform="translate(575.93 171.53) rotate(-180)"/><rect class="cls-2" x="286.18" y="85.14" width="0.49" height="1.26" transform="translate(572.84 171.53) rotate(-180)"/><rect class="cls-2" x="284.63" y="85.14" width="0.49" height="1.26" transform="translate(569.75 171.53) rotate(-180)"/><rect class="cls-2" x="283.08" y="85.14" width="0.49" height="1.26" transform="translate(566.66 171.53) rotate(-180)"/><rect class="cls-2" x="281.54" y="85.14" width="0.49" height="1.26" transform="translate(563.56 171.53) rotate(-180)"/><rect class="cls-2" x="279.99" y="85.14" width="0.49" height="1.26" transform="translate(560.47 171.53) rotate(-180)"/><rect class="cls-2" x="278.45" y="85.14" width="0.49" height="1.26" transform="translate(557.38 171.53) rotate(-180)"/><rect class="cls-2" x="276.9" y="85.14" width="0.49" height="1.26" transform="translate(554.29 171.53) rotate(-180)"/><rect class="cls-2" x="275.35" y="85.14" width="0.49" height="1.26" transform="translate(551.2 171.53) rotate(-180)"/><rect class="cls-2" x="273.81" y="85.14" width="0.49" height="1.26" transform="translate(548.1 171.53) rotate(-180)"/><rect class="cls-2" x="272.26" y="85.14" width="0.49" height="1.26" transform="translate(545.01 171.53) rotate(-180)"/><rect class="cls-2" x="270.72" y="85.14" width="0.49" height="1.26" transform="translate(541.92 171.53) rotate(-180)"/><rect class="cls-2" x="269.17" y="85.14" width="0.49" height="1.26" transform="translate(538.83 171.53) rotate(-180)"/><rect class="cls-2" x="267.62" y="85.14" width="0.49" height="1.26" transform="translate(535.73 171.53) rotate(-180)"/><rect class="cls-2" x="266.08" y="85.14" width="0.49" height="1.26" transform="translate(532.64 171.53) rotate(-180)"/><rect class="cls-2" x="264.53" y="85.14" width="0.49" height="1.26" transform="translate(529.55 171.53) rotate(-180)"/><rect class="cls-2" x="262.98" y="85.14" width="0.49" height="1.26" transform="translate(526.46 171.53) rotate(-180)"/><rect class="cls-2" x="261.44" y="85.14" width="0.49" height="1.26" transform="translate(523.36 171.53) rotate(-180)"/><rect class="cls-2" x="259.89" y="85.14" width="0.49" height="1.26" transform="translate(520.27 171.53) rotate(-180)"/><rect class="cls-2" x="258.35" y="85.14" width="0.49" height="1.26" transform="translate(517.18 171.53) rotate(-180)"/><rect class="cls-2" x="256.8" y="85.14" width="0.49" height="1.26" transform="translate(514.09 171.53) rotate(-180)"/><rect class="cls-2" x="255.25" y="85.14" width="0.49" height="1.26" transform="translate(511 171.53) rotate(-180)"/><rect class="cls-2" x="253.71" y="85.14" width="0.49" height="1.26" transform="translate(507.9 171.53) rotate(-180)"/><rect class="cls-2" x="252.16" y="85.14" width="0.49" height="1.26" transform="translate(504.81 171.53) rotate(-180)"/><rect class="cls-2" x="250.62" y="85.14" width="0.49" height="1.26" transform="translate(501.72 171.53) rotate(-180)"/><rect class="cls-2" x="249.07" y="85.14" width="0.49" height="1.26" transform="translate(498.63 171.53) rotate(-180)"/><rect class="cls-2" x="247.52" y="85.14" width="0.49" height="1.26" transform="translate(495.53 171.53) rotate(-180)"/><rect class="cls-2" x="245.98" y="85.14" width="0.49" height="1.26" transform="translate(492.44 171.53) rotate(-180)"/><rect class="cls-2" x="244.43" y="85.14" width="0.49" height="1.26" transform="translate(489.35 171.53) rotate(-180)"/><rect class="cls-2" x="242.88" y="85.14" width="0.49" height="1.26" transform="translate(486.26 171.53) rotate(-180)"/><rect class="cls-2" x="241.34" y="85.14" width="0.49" height="1.26" transform="translate(483.17 171.53) rotate(-180)"/><rect class="cls-2" x="239.79" y="85.14" width="0.49" height="1.26" transform="translate(480.07 171.53) rotate(-180)"/><rect class="cls-2" x="238.25" y="85.14" width="0.49" height="1.26" transform="translate(476.98 171.53) rotate(-180)"/><rect class="cls-1" x="249.34" y="6" width="0.83" height="71.75" transform="translate(499.51 83.75) rotate(-180)"/><rect class="cls-2" x="265.47" y="6.75" width="1.07" height="71.5" transform="translate(532.01 85.01) rotate(-180)"/><rect class="cls-2" x="251.31" y="6.25" width="1.07" height="71.5" transform="translate(503.69 84) rotate(-180)"/><rect class="cls-2" x="236.17" y="5.61" width="1.07" height="72.71" transform="translate(473.4 83.93) rotate(-180)"/><rect class="cls-2" x="236.7" y="85.14" width="0.49" height="1.26" transform="translate(473.89 171.53) rotate(-180)"/><rect class="cls-2" x="235.15" y="85.14" width="0.49" height="1.26" transform="translate(470.8 171.53) rotate(-180)"/><rect class="cls-2" x="235.29" y="86.39" width="120.95" height="0.63" transform="translate(591.54 173.42) rotate(-180)"/><path class="cls-2" d="M431.34,131.6S335,19.43,235.29,24.69V18S346.51,17.29,432.57,123Z"/><path class="cls-2" d="M438.17,78.86C324.4,1,235.29,6.39,235.29,6.39L235.64,0C333.93-1.6,439.15,67.3,439.15,67.3Z"/><rect class="cls-2" x="422.15" y="61.74" width="1.67" height="52.69" transform="translate(845.98 176.17) rotate(-180)"/><rect class="cls-2" x="407.81" y="53.77" width="1.67" height="52.69" transform="translate(817.3 160.23) rotate(-180)"/><rect class="cls-2" x="393.39" y="43.73" width="1.67" height="48.97" transform="translate(788.45 136.44) rotate(-180)"/><rect class="cls-2" x="379.21" y="36.8" width="1.67" height="48.34" transform="translate(760.09 121.94) rotate(-180)"/><rect class="cls-2" x="365.07" y="32.41" width="1.67" height="48.97" transform="translate(731.81 113.78) rotate(-180)"/><rect class="cls-2" x="350.77" y="29.91" width="1.67" height="48.97" transform="translate(703.2 108.8) rotate(-180)"/><rect class="cls-2" x="336.36" y="24.21" width="1.67" height="54.05" transform="translate(674.4 102.46) rotate(-180)"/><rect class="cls-2" x="321.88" y="20.73" width="1.67" height="58.13" transform="translate(645.43 99.6) rotate(-180)"/><rect class="cls-2" x="307.23" y="14.67" width="2.14" height="63.58" transform="translate(616.6 92.92) rotate(-180)"/><rect class="cls-2" x="294.4" y="11.94" width="1.07" height="65.66" transform="translate(589.86 89.55) rotate(-180)"/><rect class="cls-2" x="279.38" y="9.56" width="1.07" height="68.04" transform="translate(559.83 87.17) rotate(-180)"/><polygon class="cls-2" points="416.5 106.79 417.88 107.38 427.07 71.5 425.69 70.92 416.5 106.79"/><polygon class="cls-2" points="401.18 98.12 402.18 98.76 417.22 60 416.22 59.35 401.18 98.12"/><polygon class="cls-2" points="348.02 60.05 349.14 61.13 366.55 30.99 365.42 29.91 348.02 60.05"/><polygon class="cls-2" points="334.61 50.24 335.65 51.23 350.68 25.2 349.64 24.21 334.61 50.24"/><polygon class="cls-2" points="318.82 42.83 319.48 43.59 335.4 20.48 334.74 19.72 318.82 42.83"/><polygon class="cls-2" points="303.62 36.66 304.23 37.5 321.85 16.54 321.25 15.7 303.62 36.66"/><polygon class="cls-2" points="290.8 32.09 291.4 32.93 309.03 11.97 308.43 11.13 290.8 32.09"/><polygon class="cls-2" points="276.7 28.02 277.31 28.86 294.93 7.91 294.33 7.07 276.7 28.02"/><polygon class="cls-2" points="263.64 24.73 264.24 25.57 281.86 4.61 281.26 3.77 263.64 24.73"/><polygon class="cls-2" points="249.68 24.27 250.28 25.11 267.91 4.15 267.31 3.31 249.68 24.27"/><polygon class="cls-2" points="236.17 22.65 236.77 23.49 254.39 2.54 253.79 1.7 236.17 22.65"/></svg>