<svg id="Layer_1" data-name="Layer 1" xmlns="http://www.w3.org/2000/svg" viewBox="0 0 253 272"><defs><style>.cls-1{fill:#1a1a1a;}.cls-2{fill:#00385d;}.cls-3{fill:#f7e89f;}.cls-4{fill:#ffd800;}.cls-5{fill:#f80;}.cls-6{fill:#09f;}.cls-7{fill:#f2f2f2;}.cls-8{fill:#4d4d4d;}.cls-9{fill:#e6e6e6;}.cls-10,.cls-11{fill:#a30000;}.cls-11{opacity:0.42;}</style></defs><title>Untitled-1</title><rect class="cls-1" x="75.36" y="77.55" width="1.43" height="13.36" transform="translate(-17.67 20.25) rotate(-13.6)"/><rect class="cls-1" x="90.83" y="77.13" width="1.43" height="13.36" transform="translate(-17.65 24.81) rotate(-14.09)"/><rect class="cls-1" x="98.96" y="75.57" width="1.43" height="13.36" transform="translate(-8.12 10.98) rotate(-6.06)"/><rect class="cls-1" x="107.66" y="74.49" width="1.43" height="13.36" transform="translate(-7.96 11.89) rotate(-6.06)"/><rect class="cls-1" x="130.69" y="71.51" width="1.43" height="13.36" transform="translate(2.91 -4.7) rotate(2.07)"/><rect class="cls-1" x="145.98" y="73.57" width="1.43" height="13.36" transform="matrix(1, 0.07, -0.07, 1, 6.01, -10.12)"/><rect class="cls-1" x="158.51" y="73.23" width="1.43" height="13.36" transform="translate(13.79 -22.99) rotate(8.63)"/><rect class="cls-1" x="168.52" y="75.57" width="1.43" height="13.36" transform="translate(14.26 -24.46) rotate(8.63)"/><rect class="cls-1" x="176.08" y="79.89" width="1.43" height="13.36" transform="translate(14.99 -25.55) rotate(8.63)"/><rect class="cls-1" x="117" y="72.52" width="1.52" height="9.28" transform="translate(-5.64 9.38) rotate(-4.46)"/><path class="cls-2" d="M194.36,156.26V237.8h-7.52c-2.42-5-5.36-11.52-8.62-14.49-3.75-3.42-5.34-5.53-5.79-8.51v0l-.21.48s-2.64,2.1-3.53.54a4.28,4.28,0,0,0-1-1.15,1.25,1.25,0,0,1-.42.48s-.8,2.89-2.15,2.35-1.85-1.59-2.85-1.14h0v.18l-1.43.43s-1.42,1.71-2.57,1c-.4-.26-1-.58-1.49-.93a1.23,1.23,0,0,1-.38.42s-.8,2.89-2.15,2.35-1.85-1.59-2.85-1.14a1.4,1.4,0,0,1-1.24-.08c-.17.52-.39.87-.69.93-.88.14-3.66,1.11-5-.85a2,2,0,0,1-2.18,1.92,11.75,11.75,0,0,0-3.16.1,2,2,0,0,1-1.86-.69c-.69,1.27-2.25.72-3.06.55-1.36-.28-3.85,1.21-5.15,1.42-.39.06-.5-.62-.46-1.61a3.75,3.75,0,0,0-1.93-.05c-.77.29-2.34,1.18-3-.76a2,2,0,0,1-2.1,1.4,11.75,11.75,0,0,0-3.16.1,2,2,0,0,1-2.25-1.43c-.18.8-.44,1.39-.84,1.46-1.07.17-4.92,1.56-5.67-2.54,0,.13-.82,2.88-2.15,2.35s-1.85-1.6-2.85-1.14a1.63,1.63,0,0,1-2.14-1.67l-.43.13s-1.43,1.71-2.57,1-3.57-2-3.21-2.88a5.63,5.63,0,0,0,.2-.64h0s-2.64,2.1-3.52.54c-.6-1.05-1.2-1.21-1.36-1.67-.72.28-1.52.34-1.93-.38a4.33,4.33,0,0,0-.87-1.09,3.49,3.49,0,0,1-.91,4.14c-3.29,3.29-18.44,20.22-20.35,20.22v.46H63.34V156.26Z"/><path class="cls-3" d="M35.73,48.21V29.81C49.18,29.93,60,38,60,47.94c0,.09,0,.18,0,.27h0V72.73H35.51V48.21Z"/><path class="cls-3" d="M36.21,48.08V29.68c-13.45.12-24.3,8.19-24.3,18.13,0,.09,0,.18,0,.27h0V72.59H36.42V48.08Z"/><path class="cls-3" d="M36.08,27.65V9.25c-8.67.12-15.66,8.19-15.66,18.13,0,.09,0,.18,0,.27h0V52.17H36.21V27.65Z"/><path class="cls-3" d="M36.42,0V40.88H27.87V16.37h0c0-.09,0-.18,0-.27C27.87,9.1,31.34,3,36.42,0Z"/><rect class="cls-3" x="14.37" y="78.58" width="20.65" height="6.95"/><path class="cls-4" d="M2.84,74.73,5.94,73s1.61-5.54,3.92-5.77,4.52-.15,5,4.5c1.43,1.46-.3,5.38-.3,5.38l-3.23.35-5.13.32Z"/><polyline class="cls-1" points="55.9 97.73 35.03 97.73 35.03 100.15 55.9 100.15"/><rect class="cls-5" x="7.48" y="92.79" width="56.28" height="144.37"/><polyline class="cls-6" points="55.99 97.73 56.13 96.68 13.96 96.68 14.1 97.73 14.42 100.16 14.77 102.7 15.09 105.12 15.4 107.45 15.72 109.88 16.04 112.22 16.33 114.4 16.41 114.64 17.14 116.74 17.14 119.15 17.72 121.49 52.38 121.59 52.93 119.15 52.93 116.74 53.66 114.64 53.74 114.4 54.04 112.22 54.35 109.88 54.68 107.45 54.99 105.12 55.32 102.7 55.66 100.16"/><rect class="cls-6" x="17.72" y="121.49" width="4.33" height="110.6"/><rect class="cls-6" x="7.53" y="223.51" width="12.35" height="1.58"/><rect class="cls-6" x="7.53" y="216.41" width="12.35" height="1.58"/><rect class="cls-6" x="7.53" y="209.3" width="12.35" height="1.58"/><rect class="cls-6" x="7.53" y="202.2" width="12.35" height="1.58"/><rect class="cls-6" x="7.53" y="195.1" width="12.35" height="1.58"/><rect class="cls-6" x="7.53" y="188" width="12.35" height="1.58"/><rect class="cls-6" x="7.53" y="180.9" width="12.35" height="1.58"/><rect class="cls-6" x="7.53" y="173.8" width="12.35" height="1.58"/><rect class="cls-6" x="7.53" y="166.69" width="12.35" height="1.58"/><rect class="cls-6" x="7.53" y="159.59" width="12.35" height="1.58"/><rect class="cls-6" x="7.53" y="152.49" width="12.35" height="1.58"/><rect class="cls-6" x="7.53" y="145.39" width="12.35" height="1.58"/><rect class="cls-6" x="7.53" y="138.29" width="12.35" height="1.58"/><rect class="cls-6" x="20.97" y="141.12" width="12.35" height="0.75"/><rect class="cls-6" x="20.97" y="170.27" width="12.35" height="0.75"/><rect class="cls-6" x="20.97" y="199.43" width="12.35" height="0.75"/><rect class="cls-6" x="7.53" y="131.19" width="12.35" height="1.58"/><rect class="cls-6" x="7.53" y="124.08" width="12.35" height="1.58"/><rect class="cls-6" x="7.53" y="116.98" width="12.35" height="1.58"/><rect class="cls-6" x="7.53" y="109.88" width="12.35" height="1.58"/><rect class="cls-1" x="17.14" y="116.74" width="17.89" height="2.41"/><polyline class="cls-1" points="14.42 100.16 56.52 100.15 56.52 97.73 14.1 97.73"/><polyline class="cls-1" points="14.77 102.7 55.32 102.7 54.99 105.12 15.09 105.12"/><polyline class="cls-1" points="15.4 107.45 54.68 107.45 54.35 109.88 15.72 109.88"/><polyline class="cls-1" points="16.41 114.64 53.66 114.64 54.04 112.22 16.04 112.22"/><polygon class="cls-3" points="32.28 123.54 27.58 95.02 22.87 123.54 32.28 123.54"/><circle class="cls-5" cx="27.58" cy="123.54" r="4.71"/><circle class="cls-1" cx="27.58" cy="123.54" r="2.3"/><rect class="cls-5" x="13.71" y="85.29" width="21.39" height="7.5"/><polygon class="cls-7" points="14.52 77.06 14.37 82.36 14.35 83.13 14.19 88.6 14.17 89.4 13.96 96.58 4.95 96.58 5.19 88.81 5.21 88.05 5.36 83.1 5.39 82.3 5.54 77.14 7.25 76.16 10.68 75.68 14.52 77.06"/><polyline class="cls-4" points="14.35 83.13 10.59 81.94 6.7 82.42 5.36 83.1 5.39 82.3 6.7 81.64 10.59 81.16 14.37 82.36"/><polyline class="cls-4" points="5.21 88.05 7.07 87.29 10.85 87.16 14.19 88.6 14.17 89.4 10.78 87.94 7 88.06 5.19 88.81"/><path class="cls-4" d="M2.84,95.71l3.09,2.85s.84,5.06,2.81,5.25,3.94-2,4.31-5.69a3.5,3.5,0,0,0,1-2.71L10,93.58l-4.37-.25Z"/><rect class="cls-1" x="14.72" y="86.38" width="19.36" height="1.55"/><rect class="cls-3" x="14.52" y="85.29" width="20.08" height="1.55"/><polygon class="cls-3" points="18.82 90.71 15.36 90.71 14.94 87.25 18.4 87.25 18.82 90.71"/><polygon class="cls-3" points="23.97 90.71 20.51 90.71 20.09 87.25 23.55 87.25 23.97 90.71"/><polygon class="cls-3" points="29.12 90.71 25.66 90.71 25.24 87.25 28.7 87.25 29.12 90.71"/><path class="cls-3" d="M36.63,27.78V9.38c8.67.12,15.66,8.19,15.66,18.13,0,.09,0,.18,0,.27h0V52.3H36.5V27.78Z"/><path class="cls-5" d="M55,61.3c-.52-.33-2.24-1.39-3.21-1.33-.17-1.25-2.33-1.39-3.16-2.37a20.5,20.5,0,0,1-1.3-3.27c-.28-1-9.7-5.16-12.29-4.76-5.29-.14-12.27,4.66-12.27,4.66a20.51,20.51,0,0,1-1.3,3.27c-.84,1-3,1.11-3.16,2.37-1.14-.07-3.36,1.43-3.36,1.43V78.7H55.73V61.3Z"/><polygon class="cls-3" points="34.27 90.71 30.81 90.71 30.39 87.25 33.85 87.25 34.27 90.71"/><polygon class="cls-4" points="16.28 73.91 18.5 80.39 16.28 85.71 14.72 79.81 16.28 73.91"/><polygon class="cls-8" points="16.49 72.72 18.3 79.81 16.45 83.45 14.94 78.99 16.49 72.72"/><polygon class="cls-4" points="20.74 74.77 22.97 81.25 20.74 86.56 19.19 80.66 20.74 74.77"/><polygon class="cls-8" points="20.95 73.58 22.77 80.66 20.91 84.31 19.4 79.84 20.95 73.58"/><polygon class="cls-4" points="25.2 74.36 27.43 80.84 25.2 86.16 23.65 80.26 25.2 74.36"/><polygon class="cls-4" points="29.67 73.96 31.89 80.44 29.67 85.76 28.11 79.86 29.67 73.96"/><polygon class="cls-8" points="29.88 72.77 31.69 79.86 29.84 83.5 28.33 79.03 29.88 72.77"/><polygon class="cls-8" points="25.42 73.17 27.23 80.26 25.38 83.9 23.87 79.44 25.42 73.17"/><path class="cls-3" d="M36.29.13V41h8.55V16.5h0c0-.09,0-.18,0-.27C44.84,9.23,41.37,3.15,36.29.13Z"/><rect class="cls-3" x="35.07" y="78.68" width="20.65" height="6.95" transform="translate(90.8 164.32) rotate(-180)"/><path class="cls-4" d="M67.25,74.83l-3.1-1.77s-1.61-5.54-3.92-5.77-4.52-.15-5,4.5c-1.43,1.46.3,5.38.3,5.38l3.23.35,5.13.32Z"/><rect class="cls-6" x="48.05" y="121.59" width="4.33" height="110.6" transform="translate(100.42 353.78) rotate(-180)"/><rect class="cls-6" x="33.12" y="121.59" width="4.33" height="110.6" transform="translate(70.56 353.78) rotate(-180)"/><rect class="cls-6" x="51.47" y="223.61" width="12.35" height="1.58" transform="translate(115.28 448.79) rotate(-180)"/><rect class="cls-6" x="51.47" y="216.51" width="12.35" height="1.58" transform="translate(115.28 434.59) rotate(-180)"/><rect class="cls-6" x="51.47" y="209.4" width="12.35" height="1.58" transform="translate(115.28 420.38) rotate(-180)"/><rect class="cls-6" x="51.47" y="202.3" width="12.35" height="1.58" transform="translate(115.28 406.18) rotate(-180)"/><rect class="cls-6" x="51.47" y="195.2" width="12.35" height="1.58" transform="translate(115.28 391.98) rotate(-180)"/><rect class="cls-6" x="51.47" y="188.1" width="12.35" height="1.58" transform="translate(115.28 377.77) rotate(-180)"/><rect class="cls-6" x="51.47" y="181" width="12.35" height="1.58" transform="translate(115.28 363.57) rotate(-180)"/><rect class="cls-6" x="51.47" y="173.9" width="12.35" height="1.58" transform="translate(115.28 349.37) rotate(-180)"/><rect class="cls-6" x="51.47" y="166.79" width="12.35" height="1.58" transform="translate(115.28 335.16) rotate(-180)"/><rect class="cls-6" x="51.47" y="159.69" width="12.35" height="1.58" transform="translate(115.28 320.96) rotate(-180)"/><rect class="cls-6" x="51.47" y="152.59" width="12.35" height="1.58" transform="translate(115.28 306.76) rotate(-180)"/><rect class="cls-6" x="51.47" y="145.49" width="12.35" height="1.58" transform="translate(115.28 292.55) rotate(-180)"/><rect class="cls-6" x="51.47" y="138.39" width="12.35" height="1.58" transform="translate(115.28 278.35) rotate(-180)"/><rect class="cls-6" x="36.77" y="141.22" width="12.35" height="0.75" transform="translate(85.89 283.18) rotate(-180)"/><rect class="cls-6" x="36.77" y="170.37" width="12.35" height="0.75" transform="translate(85.89 341.49) rotate(-180)"/><rect class="cls-6" x="36.77" y="199.53" width="12.35" height="0.75" transform="translate(85.89 399.81) rotate(-180)"/><rect class="cls-6" x="51.47" y="131.29" width="12.35" height="1.58" transform="translate(115.28 264.15) rotate(-180)"/><rect class="cls-6" x="51.47" y="124.18" width="12.35" height="1.58" transform="translate(115.28 249.94) rotate(-180)"/><rect class="cls-6" x="51.47" y="117.08" width="12.35" height="1.58" transform="translate(115.28 235.74) rotate(-180)"/><rect class="cls-6" x="51.47" y="109.98" width="12.35" height="1.58" transform="translate(115.28 221.54) rotate(-180)"/><rect class="cls-1" x="35.04" y="116.74" width="17.89" height="2.41" transform="translate(87.96 235.89) rotate(-180)"/><polygon class="cls-3" points="37.81 123.64 42.52 95.12 47.23 123.64 37.81 123.64"/><circle class="cls-5" cx="42.52" cy="123.64" r="4.71"/><circle class="cls-1" cx="42.52" cy="123.64" r="2.3"/><rect class="cls-5" x="34.99" y="85.39" width="21.39" height="7.5" transform="translate(91.38 178.29) rotate(-180)"/><polygon class="cls-7" points="55.57 77.16 55.73 82.46 55.75 83.23 55.91 88.7 55.93 89.5 56.14 96.68 65.14 96.68 64.91 88.91 64.88 88.15 64.73 83.2 64.7 82.4 64.55 77.24 62.84 76.26 59.41 75.78 55.57 77.16"/><polyline class="cls-4" points="55.73 82.46 59.51 81.26 63.4 81.74 64.7 82.4 64.73 83.2 63.4 82.52 59.51 82.04 55.75 83.23"/><polyline class="cls-4" points="64.91 88.91 63.1 88.17 59.31 88.03 55.93 89.5 55.91 88.7 59.24 87.26 63.03 87.39 64.88 88.15"/><path class="cls-4" d="M67.25,95.81l-3.09,2.85s-.84,5.06-2.81,5.25-3.94-2-4.31-5.69a3.5,3.5,0,0,1-1-2.71L60,93.68l4.37-.25Z"/><rect class="cls-1" x="36.01" y="86.48" width="19.36" height="1.55" transform="translate(91.38 174.51) rotate(-180)"/><rect class="cls-3" x="35.49" y="85.39" width="20.08" height="1.55" transform="translate(91.06 172.34) rotate(-180)"/><polygon class="cls-3" points="51.27 90.81 54.73 90.81 55.15 87.35 51.69 87.35 51.27 90.81"/><polygon class="cls-3" points="46.12 90.81 49.58 90.81 50 87.35 46.54 87.35 46.12 90.81"/><polygon class="cls-3" points="40.97 90.81 44.43 90.81 44.85 87.35 41.39 87.35 40.97 90.81"/><polygon class="cls-3" points="35.82 90.81 39.28 90.81 39.7 87.35 36.24 87.35 35.82 90.81"/><rect class="cls-6" x="34.99" y="229.09" width="17.38" height="3.68" transform="translate(87.37 461.87) rotate(-180)"/><polygon class="cls-4" points="53.81 74.01 51.59 80.49 53.81 85.81 55.37 79.91 53.81 74.01"/><polygon class="cls-8" points="53.6 72.83 51.79 79.91 53.64 83.55 55.15 79.09 53.6 72.83"/><polygon class="cls-4" points="49.35 74.86 47.13 81.35 49.35 86.66 50.91 80.76 49.35 74.86"/><polygon class="cls-8" points="49.14 73.68 47.33 80.76 49.18 84.41 50.69 79.94 49.14 73.68"/><polygon class="cls-4" points="44.89 74.46 42.66 80.94 44.89 86.26 46.44 80.36 44.89 74.46"/><polygon class="cls-4" points="40.42 74.06 38.2 80.54 40.42 85.86 41.98 79.96 40.42 74.06"/><polygon class="cls-8" points="40.21 72.87 38.4 79.96 40.25 83.6 41.76 79.14 40.21 72.87"/><polygon class="cls-8" points="44.68 73.27 42.86 80.36 44.72 84 46.23 79.54 44.68 73.27"/><rect class="cls-8" x="2.79" y="232.54" width="62.95" height="29.96"/><rect class="cls-1" x="-0.5" y="261.59" width="66.15" height="10.41"/><rect class="cls-6" x="17.72" y="228.99" width="17.38" height="3.68"/><rect class="cls-1" x="2.79" y="237.8" width="62.95" height="2.61"/><path class="cls-3" d="M221.47,48.21V29.81c13.45.12,24.3,8.19,24.3,18.13,0,.09,0,.18,0,.27h0V72.73H221.26V48.21Z"/><path class="cls-3" d="M222,48.08V29.68c-13.45.12-24.3,8.19-24.3,18.13,0,.09,0,.18,0,.27h0V72.59h24.51V48.08Z"/><path class="cls-3" d="M221.82,27.65V9.25c-8.67.12-15.66,8.19-15.66,18.13,0,.09,0,.18,0,.27h0V52.17H222V27.65Z"/><path class="cls-3" d="M222.17,0V40.88h-8.55V16.37h0c0-.09,0-.18,0-.27C213.62,9.1,217.09,3,222.17,0Z"/><rect class="cls-3" x="200.12" y="78.58" width="20.65" height="6.95"/><path class="cls-4" d="M188.59,74.73l3.1-1.77s1.61-5.54,3.92-5.77,4.52-.15,5,4.5c1.43,1.46-.3,5.38-.3,5.38l-3.23.35-5.13.32Z"/><polyline class="cls-1" points="241.65 97.73 220.78 97.73 220.78 100.15 241.65 100.15"/><rect class="cls-5" x="193.22" y="92.79" width="56.28" height="144.37"/><polyline class="cls-6" points="241.74 97.73 241.88 96.68 199.71 96.68 199.84 97.73 200.17 100.16 200.51 102.7 200.84 105.12 201.15 107.45 201.47 109.88 201.79 112.22 202.08 114.4 202.16 114.64 202.89 116.74 202.89 119.15 203.46 121.49 238.12 121.59 238.68 119.15 238.68 116.74 239.4 114.64 239.49 114.4 239.78 112.22 240.1 109.88 240.42 107.45 240.74 105.12 241.07 102.7 241.41 100.16"/><rect class="cls-6" x="203.46" y="121.49" width="4.33" height="110.6"/><rect class="cls-6" x="193.28" y="223.51" width="12.35" height="1.58"/><rect class="cls-6" x="193.28" y="216.41" width="12.35" height="1.58"/><rect class="cls-6" x="193.28" y="209.3" width="12.35" height="1.58"/><rect class="cls-6" x="193.28" y="202.2" width="12.35" height="1.58"/><rect class="cls-6" x="193.28" y="195.1" width="12.35" height="1.58"/><rect class="cls-6" x="193.28" y="188" width="12.35" height="1.58"/><rect class="cls-6" x="193.28" y="180.9" width="12.35" height="1.58"/><rect class="cls-6" x="193.28" y="173.8" width="12.35" height="1.58"/><rect class="cls-6" x="193.28" y="166.69" width="12.35" height="1.58"/><rect class="cls-6" x="193.28" y="159.59" width="12.35" height="1.58"/><rect class="cls-6" x="193.28" y="152.49" width="12.35" height="1.58"/><rect class="cls-6" x="193.28" y="145.39" width="12.35" height="1.58"/><rect class="cls-6" x="193.28" y="138.29" width="12.35" height="1.58"/><rect class="cls-6" x="206.72" y="141.12" width="12.35" height="0.75"/><rect class="cls-6" x="206.72" y="170.27" width="12.35" height="0.75"/><rect class="cls-6" x="206.72" y="199.43" width="12.35" height="0.75"/><rect class="cls-6" x="193.28" y="131.19" width="12.35" height="1.58"/><rect class="cls-6" x="193.28" y="124.08" width="12.35" height="1.58"/><rect class="cls-6" x="193.28" y="116.98" width="12.35" height="1.58"/><rect class="cls-6" x="193.28" y="109.88" width="12.35" height="1.58"/><rect class="cls-1" x="202.89" y="116.74" width="17.89" height="2.41"/><polyline class="cls-1" points="200.17 100.16 242.27 100.15 242.27 97.73 199.84 97.73"/><polyline class="cls-1" points="200.51 102.7 241.07 102.7 240.74 105.12 200.84 105.12"/><polyline class="cls-1" points="201.15 107.45 240.42 107.45 240.1 109.88 201.47 109.88"/><polyline class="cls-1" points="202.16 114.64 239.4 114.64 239.78 112.22 201.79 112.22"/><polygon class="cls-3" points="218.03 123.54 213.32 95.02 208.62 123.54 218.03 123.54"/><circle class="cls-5" cx="213.32" cy="123.54" r="4.71"/><circle class="cls-1" cx="213.32" cy="123.54" r="2.3"/><rect class="cls-5" x="199.45" y="85.29" width="21.39" height="7.5"/><polygon class="cls-7" points="200.27 77.06 200.12 82.36 200.09 83.13 199.94 88.6 199.91 89.4 199.71 96.58 190.7 96.58 190.94 88.81 190.96 88.05 191.11 83.1 191.14 82.3 191.29 77.14 193 76.16 196.43 75.68 200.27 77.06"/><polyline class="cls-4" points="200.09 83.13 196.34 81.94 192.44 82.42 191.11 83.1 191.14 82.3 192.44 81.64 196.34 81.16 200.12 82.36"/><polyline class="cls-4" points="190.96 88.05 192.81 87.29 196.6 87.16 199.94 88.6 199.91 89.4 196.53 87.94 192.74 88.06 190.94 88.81"/><path class="cls-4" d="M188.59,95.71l3.09,2.85s.84,5.06,2.81,5.25,3.94-2,4.31-5.69a3.5,3.5,0,0,0,1-2.71l-4.06-1.83-4.37-.25Z"/><rect class="cls-1" x="200.47" y="86.38" width="19.36" height="1.55"/><rect class="cls-3" x="200.27" y="85.29" width="20.08" height="1.55"/><polygon class="cls-3" points="204.57 90.71 201.11 90.71 200.69 87.25 204.15 87.25 204.57 90.71"/><polygon class="cls-3" points="209.72 90.71 206.26 90.71 205.84 87.25 209.3 87.25 209.72 90.71"/><polygon class="cls-3" points="214.87 90.71 211.41 90.71 210.99 87.25 214.45 87.25 214.87 90.71"/><path class="cls-3" d="M222.38,27.78V9.38C231,9.5,238,17.58,238,27.51c0,.09,0,.18,0,.27h0V52.3H222.25V27.78Z"/><path class="cls-5" d="M240.75,61.3c-.52-.33-2.24-1.39-3.21-1.33-.17-1.25-2.33-1.39-3.16-2.37a20.5,20.5,0,0,1-1.3-3.27c-.28-1-9.7-5.16-12.29-4.76-5.29-.14-12.27,4.66-12.27,4.66a20.51,20.51,0,0,1-1.3,3.27c-.84,1-3,1.11-3.16,2.37-1.14-.07-3.36,1.43-3.36,1.43V78.7h40.79V61.3Z"/><polygon class="cls-3" points="220.02 90.71 216.56 90.71 216.14 87.25 219.6 87.25 220.02 90.71"/><polygon class="cls-4" points="202.03 73.91 204.25 80.39 202.03 85.71 200.47 79.81 202.03 73.91"/><polygon class="cls-8" points="202.24 72.72 204.05 79.81 202.2 83.45 200.69 78.99 202.24 72.72"/><polygon class="cls-4" points="206.49 74.77 208.71 81.25 206.49 86.56 204.93 80.66 206.49 74.77"/><polygon class="cls-8" points="206.7 73.58 208.51 80.66 206.66 84.31 205.15 79.84 206.7 73.58"/><polygon class="cls-4" points="210.95 74.36 213.18 80.84 210.95 86.16 209.4 80.26 210.95 74.36"/><polygon class="cls-4" points="215.42 73.96 217.64 80.44 215.42 85.76 213.86 79.86 215.42 73.96"/><polygon class="cls-8" points="215.63 72.77 217.44 79.86 215.59 83.5 214.08 79.03 215.63 72.77"/><polygon class="cls-8" points="211.16 73.17 212.98 80.26 211.12 83.9 209.61 79.44 211.16 73.17"/><path class="cls-3" d="M222,.13V41h8.55V16.5h0c0-.09,0-.18,0-.27C230.59,9.23,227.12,3.15,222,.13Z"/><rect class="cls-3" x="220.82" y="78.68" width="20.65" height="6.95" transform="translate(462.29 164.32) rotate(-180)"/><path class="cls-4" d="M253,74.83l-3.1-1.77s-1.61-5.54-3.92-5.77-4.52-.15-5,4.5c-1.43,1.46.3,5.38.3,5.38l3.23.35,5.13.32Z"/><rect class="cls-6" x="233.79" y="121.59" width="4.33" height="110.6" transform="translate(471.92 353.78) rotate(-180)"/><rect class="cls-6" x="218.86" y="121.59" width="4.33" height="110.6" transform="translate(442.06 353.78) rotate(-180)"/><rect class="cls-6" x="237.21" y="223.61" width="12.35" height="1.58" transform="translate(486.78 448.79) rotate(-180)"/><rect class="cls-6" x="237.21" y="216.51" width="12.35" height="1.58" transform="translate(486.78 434.59) rotate(-180)"/><rect class="cls-6" x="237.21" y="209.4" width="12.35" height="1.58" transform="translate(486.78 420.38) rotate(-180)"/><rect class="cls-6" x="237.21" y="202.3" width="12.35" height="1.58" transform="translate(486.78 406.18) rotate(-180)"/><rect class="cls-6" x="237.21" y="195.2" width="12.35" height="1.58" transform="translate(486.78 391.98) rotate(-180)"/><rect class="cls-6" x="237.21" y="188.1" width="12.35" height="1.58" transform="translate(486.78 377.77) rotate(-180)"/><rect class="cls-6" x="237.21" y="181" width="12.35" height="1.58" transform="translate(486.78 363.57) rotate(-180)"/><rect class="cls-6" x="237.21" y="173.9" width="12.35" height="1.58" transform="translate(486.78 349.37) rotate(-180)"/><rect class="cls-6" x="237.21" y="166.79" width="12.35" height="1.58" transform="translate(486.78 335.16) rotate(-180)"/><rect class="cls-6" x="237.21" y="159.69" width="12.35" height="1.58" transform="translate(486.78 320.96) rotate(-180)"/><rect class="cls-6" x="237.21" y="152.59" width="12.35" height="1.58" transform="translate(486.78 306.76) rotate(-180)"/><rect class="cls-6" x="237.21" y="145.49" width="12.35" height="1.58" transform="translate(486.78 292.55) rotate(-180)"/><rect class="cls-6" x="237.21" y="138.39" width="12.35" height="1.58" transform="translate(486.78 278.35) rotate(-180)"/><rect class="cls-6" x="222.52" y="141.22" width="12.35" height="0.75" transform="translate(457.38 283.18) rotate(-180)"/><rect class="cls-6" x="222.52" y="170.37" width="12.35" height="0.75" transform="translate(457.38 341.49) rotate(-180)"/><rect class="cls-6" x="222.52" y="199.53" width="12.35" height="0.75" transform="translate(457.38 399.81) rotate(-180)"/><rect class="cls-6" x="237.21" y="131.29" width="12.35" height="1.58" transform="translate(486.78 264.15) rotate(-180)"/><rect class="cls-6" x="237.21" y="124.18" width="12.35" height="1.58" transform="translate(486.78 249.94) rotate(-180)"/><rect class="cls-6" x="237.21" y="117.08" width="12.35" height="1.58" transform="translate(486.78 235.74) rotate(-180)"/><rect class="cls-6" x="237.21" y="109.98" width="12.35" height="1.58" transform="translate(486.78 221.54) rotate(-180)"/><rect class="cls-1" x="220.78" y="116.74" width="17.89" height="2.41" transform="translate(459.46 235.89) rotate(-180)"/><polygon class="cls-3" points="223.56 123.64 228.26 95.12 232.97 123.64 223.56 123.64"/><circle class="cls-5" cx="228.26" cy="123.64" r="4.71"/><circle class="cls-1" cx="228.26" cy="123.64" r="2.3"/><rect class="cls-5" x="220.74" y="85.39" width="21.39" height="7.5" transform="translate(462.88 178.29) rotate(-180)"/><polygon class="cls-7" points="241.32 77.16 241.47 82.46 241.49 83.23 241.65 88.7 241.67 89.5 241.88 96.68 250.89 96.68 250.65 88.91 250.63 88.15 250.48 83.2 250.45 82.4 250.3 77.24 248.59 76.26 245.16 75.78 241.32 77.16"/><polyline class="cls-4" points="241.47 82.46 245.25 81.26 249.15 81.74 250.45 82.4 250.48 83.2 249.15 82.52 245.25 82.04 241.49 83.23"/><polyline class="cls-4" points="250.65 88.91 248.84 88.17 245.06 88.03 241.67 89.5 241.65 88.7 244.99 87.26 248.77 87.39 250.63 88.15"/><path class="cls-4" d="M253,95.81l-3.09,2.85s-.84,5.06-2.81,5.25-3.94-2-4.31-5.69a3.5,3.5,0,0,1-1-2.71l4.06-1.83,4.37-.25Z"/><rect class="cls-1" x="221.76" y="86.48" width="19.36" height="1.55" transform="translate(462.88 174.51) rotate(-180)"/><rect class="cls-3" x="221.24" y="85.39" width="20.08" height="1.55" transform="translate(462.56 172.34) rotate(-180)"/><polygon class="cls-3" points="237.02 90.81 240.48 90.81 240.9 87.35 237.44 87.35 237.02 90.81"/><polygon class="cls-3" points="231.87 90.81 235.33 90.81 235.75 87.35 232.29 87.35 231.87 90.81"/><polygon class="cls-3" points="226.72 90.81 230.18 90.81 230.6 87.35 227.14 87.35 226.72 90.81"/><polygon class="cls-3" points="221.57 90.81 225.03 90.81 225.45 87.35 221.99 87.35 221.57 90.81"/><rect class="cls-6" x="220.74" y="229.09" width="17.38" height="3.68" transform="translate(458.86 461.87) rotate(-180)"/><polygon class="cls-4" points="239.56 74.01 237.34 80.49 239.56 85.81 241.12 79.91 239.56 74.01"/><polygon class="cls-8" points="239.35 72.83 237.54 79.91 239.39 83.55 240.9 79.09 239.35 72.83"/><polygon class="cls-4" points="235.1 74.86 232.88 81.35 235.1 86.66 236.65 80.76 235.1 74.86"/><polygon class="cls-8" points="234.89 73.68 233.07 80.76 234.93 84.41 236.44 79.94 234.89 73.68"/><polygon class="cls-4" points="230.63 74.46 228.41 80.94 230.63 86.26 232.19 80.36 230.63 74.46"/><polygon class="cls-4" points="226.17 74.06 223.95 80.54 226.17 85.86 227.73 79.96 226.17 74.06"/><polygon class="cls-8" points="225.96 72.87 224.15 79.96 226 83.6 227.51 79.14 225.96 72.87"/><polygon class="cls-8" points="230.42 73.27 228.61 80.36 230.46 84 231.97 79.54 230.42 73.27"/><rect class="cls-8" x="188.54" y="232.54" width="62.95" height="29.96"/><rect class="cls-1" x="185.25" y="261.59" width="66.15" height="10.41"/><rect class="cls-6" x="203.46" y="228.99" width="17.38" height="3.68"/><rect class="cls-1" x="188.54" y="237.8" width="62.95" height="2.61"/><path class="cls-2" d="M64.94,95.14s46.65-33.21,127.35-.42c1.81,43.47,2.49,80.37,2.49,80.37L64.3,169.29Z"/><polygon class="cls-4" points="126.96 77.45 130.48 102.14 133.99 126.82 126.96 126.82 119.93 126.82 123.44 102.14 126.96 77.45"/><polygon class="cls-4" points="138.54 75.9 139.41 100.82 140.28 125.74 133.29 124.99 126.3 124.24 132.42 100.07 138.54 75.9"/><polygon class="cls-4" points="149.15 78.17 147.14 103.03 145.13 127.88 138.27 126.33 131.41 124.78 140.28 101.48 149.15 78.17"/><polygon class="cls-4" points="160.44 80.53 154.61 104.77 148.79 129.02 142.25 126.43 135.72 123.84 148.07 102.18 160.44 80.53"/><polygon class="cls-4" points="171.63 83.18 164.12 106.95 156.6 130.72 150.26 127.68 143.92 124.64 157.78 103.91 171.63 83.18"/><polygon class="cls-4" points="183.52 89.15 172.23 111.38 160.94 133.61 155.18 129.58 149.42 125.54 166.47 107.34 183.52 89.15"/><polygon class="cls-4" points="192.19 97.1 176.97 116.84 161.74 136.59 156.84 131.55 151.93 126.52 172.06 111.81 192.19 97.1"/><polygon class="cls-4" points="192.29 113.8 179.23 128.49 166.17 143.18 161.84 137.65 157.5 132.11 174.9 122.95 192.29 113.8"/><polygon class="cls-4" points="191.39 122.08 177.61 136.1 163.82 150.11 159.77 144.36 155.72 138.61 173.56 130.35 191.39 122.08"/><polygon class="cls-4" points="191.6 129.21 176.86 142.21 162.11 155.22 158.48 149.19 154.85 143.17 173.22 136.19 191.6 129.21"/><polygon class="cls-4" points="191.3 137.5 182.36 145.54 173.42 153.57 170.46 147.19 167.49 140.82 179.4 139.16 191.3 137.5"/><polygon class="cls-4" points="192.04 143.44 182.35 150.54 172.65 157.65 170.34 151.01 168.02 144.37 180.03 143.91 192.04 143.44"/><polygon class="cls-4" points="113.75 74.63 112.89 99.55 112.02 124.47 119.01 123.72 126 122.97 119.88 98.8 113.75 74.63"/><polygon class="cls-4" points="103.15 76.91 105.16 101.76 107.17 126.61 114.03 125.06 120.89 123.52 112.02 100.21 103.15 76.91"/><polygon class="cls-4" points="91.86 79.26 97.69 103.51 103.51 127.75 110.05 125.16 116.58 122.57 104.22 100.92 91.86 79.26"/><polygon class="cls-4" points="80.66 81.91 88.18 105.69 95.7 129.46 102.04 126.41 108.38 123.37 94.52 102.64 80.66 81.91"/><polygon class="cls-4" points="68.78 87.88 80.07 110.11 91.36 132.35 97.12 128.31 102.88 124.28 85.83 106.08 68.78 87.88"/><polygon class="cls-4" points="60.11 95.83 75.33 115.58 90.56 135.32 95.46 130.29 100.37 125.25 80.24 110.54 60.11 95.83"/><polygon class="cls-4" points="60.01 112.53 73.07 127.23 86.13 141.92 90.46 136.38 94.8 130.84 77.41 121.69 60.01 112.53"/><polygon class="cls-4" points="60.91 120.82 74.69 134.83 88.48 148.84 92.53 143.09 96.58 137.35 78.74 129.08 60.91 120.82"/><polygon class="cls-4" points="60.7 127.95 75.44 140.95 90.19 153.95 93.82 147.93 97.45 141.91 79.08 134.93 60.7 127.95"/><polygon class="cls-4" points="61 136.24 69.94 144.27 78.88 152.31 81.84 145.93 84.81 139.55 72.9 137.89 61 136.24"/><polygon class="cls-4" points="60.26 142.17 69.95 149.28 79.65 156.39 81.97 149.75 84.28 143.11 72.27 142.64 60.26 142.17"/><path class="cls-3" d="M183.54,153.63s3.69-2.55,4.84-.86,3,5.16,2.29,7.88,1.83,14.21,1.6,15,1.83,1.48-1.37,4.22-10.13-9.65-8.74-17.94Z"/><path class="cls-9" d="M94.86,208.31a5.11,5.11,0,0,1-.19,1.33l-.06.22c-.08.29-.17.59-.27.89-.47,1.42-1.11,2.78-1.11,2.78a7,7,0,0,1-1.6.92c-.72.28-1.52.34-1.93-.38a4.33,4.33,0,0,0-.87-1.09c-.28-.26-.49-.42-.52-.74a1.09,1.09,0,0,1,0-.31,3.17,3.17,0,0,1,.15-.56c.33-.95.7-2.05.94-2.76l.25-.73a17.76,17.76,0,0,1,3.32-.42C94,207.47,94.83,207.66,94.86,208.31Z"/><path class="cls-9" d="M173.83,210a10,10,0,0,1-.77,3.16c-.23.63-.48,1.2-.64,1.58l-.21.48s-2.64,2.1-3.53.54a4.28,4.28,0,0,0-1-1.15,1,1,0,0,1-.37-1.25,2.53,2.53,0,0,1,.08-.28l.22-.62.48-1.41.49-1.46S173.77,208.4,173.83,210Z"/><path class="cls-9" d="M103.51,212.21v5.49l-1,.3-.43.13s-1.43,1.71-2.57,1-3.57-2-3.21-2.88a5.63,5.63,0,0,0,.2-.64h0c.35-1.35.84-4,.93-4.43v-.07a3.46,3.46,0,0,1,.65-.18l.29-.05a4.35,4.35,0,0,1,2.76.53l.46.25h0a3.44,3.44,0,0,0,1.84.61Z"/><path class="cls-9" d="M162.27,211v5.49l-1.43.43s-1.42,1.71-2.57,1c-.4-.26-1-.58-1.49-.93-1-.65-1.95-1.39-1.72-1.95a8.11,8.11,0,0,0,.28-1c.07-.31.15-.66.23-1s.18-.88.27-1.3c.2-1,.36-1.85.36-1.85a4.48,4.48,0,0,1,3.71.3c.36.21.66.36.92.48C161.94,211.15,162.27,211,162.27,211Z"/><path class="cls-9" d="M116.16,219.54c-.18.8-.44,1.39-.84,1.46-1.07.17-4.92,1.56-5.67-2.54h0a10.64,10.64,0,0,1-.05-2.88c.06-.64.12-1.21.17-1.69,0-.23,0-.45.06-.64s0-.17,0-.25c.4-3.83.2-.77.2-.77s5.08-.78,6.22,1.77l.06.16a2.23,2.23,0,0,1,.1.35,2.92,2.92,0,0,1,.06.62A24,24,0,0,1,116.16,219.54Z"/><path class="cls-9" d="M150.65,214.08a17.92,17.92,0,0,1-.48,4.44c-.17.52-.39.87-.69.93-.88.14-3.66,1.11-5-.85-.59-.85-.91-2.24-.71-4.48a.46.46,0,0,1,0-.08v0c0-.25,0-.49.07-.72.64-6.55.39-2.65.39-2.65s4.34-.66,5.9,1.25a2.5,2.5,0,0,1,.54,1.6h0v.06S150.65,213.75,150.65,214.08Z"/><path class="cls-9" d="M123.76,215.12v3.77a1.92,1.92,0,0,1-.09.58,2,2,0,0,1-2.1,1.4,11.75,11.75,0,0,0-3.16.1,2,2,0,0,1-2.25-1.43,1.88,1.88,0,0,1-.08-.54v-3.89a1.92,1.92,0,0,1,.11-.64,1.81,1.81,0,0,1,.15-.33,1.07,1.07,0,0,1,.09-.15,2,2,0,0,1,1.65-.88h3.68a2,2,0,0,1,1.84,1.22,1.87,1.87,0,0,1,.11.38A1.81,1.81,0,0,1,123.76,215.12Z"/><path class="cls-9" d="M144.45,214.75v3.77a.36.36,0,0,1,0,.07,2,2,0,0,1-2.18,1.92,11.75,11.75,0,0,0-3.16.1,2,2,0,0,1-1.86-.69,1.94,1.94,0,0,1-.47-1.28v-3.89a1.61,1.61,0,0,1,0-.32.64.64,0,0,1,0-.15,1.92,1.92,0,0,1,.08-.28,2,2,0,0,1,1.85-1.25h3.68a2,2,0,0,1,1.36.54,1.94,1.94,0,0,1,.48.69.77.77,0,0,1,0,.1A1.9,1.9,0,0,1,144.45,214.75Z"/><path class="cls-3" d="M192.45,201.33c-1.38,8.62-5,26.83-3.44,29.45.73,1.35,1.1,4.53,1,7-.08,2.85-.75,4.81-2.14,2.12-.34-.66-.69-1.37-1.05-2.12-2.42-5-5.36-11.52-8.62-14.49-3.75-3.42-5.34-5.53-5.79-8.51v0c-.19-1-1.9-1.31-4.33-1.37h-.74c-1.52,0-3.27.08-5.08.2l-2,.14-3,.22-1.9.12a38.32,38.32,0,0,1-4.43.05l-.28,0-.89,0c-1.4,0-3.25,0-5.42.05h-.6l-1.93.05-4.82.12h-.15c-2.2.05-4.52.1-6.88.11h-.5c-1.94,0-3.9,0-5.85,0-2.44-.06-4.86-.16-7.17-.34h-.15c-2-.15-3.85-.35-5.61-.62l-.28,0-.55-.08c-2.24-.36-4.36-.78-6.34-1.21l-1.86-.42h0c-1.13-.26-2.21-.52-3.22-.78l-.28-.07-3.51-.9-.52-.13c-1.93-.51-3.52-.9-4.69-1.1-1.35-.23-2.15-.18-2.31.3-.27.78.54,1.82,1.23,3l.14.25a8.57,8.57,0,0,1,.38.79,3.49,3.49,0,0,1-.91,4.14c-3.29,3.29-18.44,20.22-20.35,20.22a.17.17,0,0,1-.17-.09l-.77-1.54s2.41-6.15,2.21-8.84,1.75-2.92,0-9.72-4.2-15.16-3.34-24.51c.6-6.54.82-9.84,1.29-11.6a3.16,3.16,0,0,1,.79-1.56c.76-.72,2.74-4.62,4.05-9.84a40.41,40.41,0,0,0,1.23-8.49v-.46c.06-1.83.11-3.27.15-4.4L73.2,152s0-.13,0-.36a27.26,27.26,0,0,1,.6-3.91,28.19,28.19,0,0,1,1.61-5c.18-.43.39-.86.6-1.29a22.28,22.28,0,0,1,1.73-2.9l.26-.35a19.14,19.14,0,0,1,2.42-2.69l.07-.06a17.69,17.69,0,0,1,5.07-3.22,18,18,0,0,1,2-.73l.87-.24,1.94-.75,2.19-.84,2.81-1.07,2.55-1h0c1.59-.58,3.24-1.15,4.93-1.7l.12,0c1.29-.42,2.6-.83,3.94-1.22,1.64-.48,3.32-.93,5-1.33q2.19-.51,4.46-.94c1.23-.22,2.48-.42,3.74-.59l.39-.05c1.62-.21,3.27-.38,4.95-.48l1.46-.08q2.81-.12,5.7,0l.46,0q1.88.09,3.79.3,1.56.17,3.15.42,2.41.39,4.87,1l.49.12q2.18.54,4.4,1.26l.47.16c1,.31,1.91.65,2.87,1q2.19.83,4.4,1.85,1.87.86,3.76,1.86l.76.39.62.32,2.91,1.49,2.57,1.34c1.67.89,3.26,1.77,4.74,2.69l.77.49c.82.53,1.59,1.07,2.34,1.63s1.41,1.12,2.06,1.72c.32.29.63.59.93.9a19.44,19.44,0,0,1,2.77,3.6c.28.47.54,1,.77,1.45a19.2,19.2,0,0,1,1.39,4,24.29,24.29,0,0,1,.57,3.69l0,.34s-.17,1.13-.34,2.92c-.45,4.54-1,13.29,1,18.4a9.44,9.44,0,0,0,.85,1.74c.43.76.87,1.57,1.29,2.42C190.63,185.16,193.68,193.72,192.45,201.33Z"/><path class="cls-9" d="M129.76,213.84l.2.55.1.28c.64,1.85,2,6.15,1.14,6.14a18.75,18.75,0,0,1-2.61-.53,3.75,3.75,0,0,0-1.93-.05c-.77.29-2.34,1.18-3-.76a12.14,12.14,0,0,1-.12-4.75h0"/><path class="cls-9" d="M129.56,213.92l-.1.47c0,.09,0,.19-.06.3a41,41,0,0,0-.82,5.59c0,1,.07,1.67.46,1.61,1.31-.21,3.79-1.7,5.15-1.42.8.16,2.37.72,3.06-.55.46-.83.54-2.46-.22-5.49l0-.15-.07-.27,0-.17"/><path class="cls-9" d="M109.65,218.46h0c0,.13-.82,2.88-2.15,2.35s-1.85-1.6-2.85-1.14a1.63,1.63,0,0,1-2.14-1.67,2.46,2.46,0,0,1,.07-.68c.19-.8.4-2,.58-3.19.08-.51.15-1,.22-1.42,0-.18.05-.34.08-.49l0-.19c.06-.41.1-.67.1-.67l6.28,1.63.5.13s0,.07,0,.2,0,.37.07.65C110.57,215.31,110.64,217.82,109.65,218.46Z"/><path class="cls-9" d="M168.16,212.47c0,.31,0,.61-.07.9a3.66,3.66,0,0,1-.36,1.24,1.25,1.25,0,0,1-.42.48s-.8,2.89-2.15,2.35-1.85-1.59-2.85-1.14h0c-1,.42-2.46-.55-2-2.36,0-.08,0-.17.06-.26.07-.31.14-.67.21-1.06.11-.59.22-1.24.31-1.86,0,0,0-.09,0-.14.23-1.42.39-2.65.39-2.65l6.77,1.77s.08.54.13,1.29A13.11,13.11,0,0,1,168.16,212.47Z"/><path class="cls-9" d="M156.79,217a1.23,1.23,0,0,1-.38.42s-.8,2.89-2.15,2.35-1.85-1.59-2.85-1.14a1.4,1.4,0,0,1-1.24-.08,2,2,0,0,1-.83-2.27c.13-.57.28-1.37.42-2.2,0-.16.05-.32.08-.48s.06-.34.08-.51l.18-1.16c.14-.94.23-1.62.23-1.62l5.52,1.44,1.25.33s.05.33.09.84c0,.3.05.66.06,1A6.21,6.21,0,0,1,156.79,217Z"/><path class="cls-9" d="M98.14,210.36a2.75,2.75,0,0,1,0,.41s0,.08,0,.12a3.3,3.3,0,0,1-.06.37,24.12,24.12,0,0,1-1.52,4.31h0s-2.64,2.1-3.52.54c-.6-1.05-1.2-1.21-1.36-1.67a1.5,1.5,0,0,1,.11-1c.33-.94.7-2,.94-2.74l.25-.75s.49-.11,1.16-.22l.58-.08C96.17,209.44,98.1,209.38,98.14,210.36Z"/><path class="cls-10" d="M173.52,213.38s3.91,1.3,5.42,0,5.69-7.71,1.14-8.58c-6.07.07-29.79,1.26-35.48,0s-4.74-2.35-10.44,0c-2.09.64-8,1.26-9.68,0s-6.83-.83-10.81,0-24.85,1.26-29.6,0-5.31-1.59-5.12,0,1.88,10.6,9.67,7.33c-.59-1.84,6.46-1.75,10.44-.62,4.36,1.14,13.31,5.35,52.94,1.87C152,213.38,169.81,211.27,173.52,213.38Z"/><path class="cls-4" d="M147.16,188.32s-8.3-1.29-10.39,3.06C137.78,190.33,144.51,189.25,147.16,188.32Z"/><path class="cls-4" d="M124.83,191.48s-6.67-3.72-12.6-3.34c1.11,1.12.19,1.3,1.11,1.12S124.83,191.48,124.83,191.48Z"/><path class="cls-4" d="M140.61,179.07s0,7-1.33,7.41-6.21,4-6.21,4l2.13-6.23S140.83,182,140.61,179.07Z"/><path class="cls-4" d="M122.35,187.11s-1.53-5.58-1-6.86-3.81.94-3.81.94v4.52S119.81,188.13,122.35,187.11Z"/><path class="cls-4" d="M109.53,189.8s-7.89-4.94,1.64-12.52C109,180,105.61,185,109.53,189.8Z"/><path class="cls-4" d="M148.66,188.12s4.64-3.28.6-7.86C149.68,181.9,150.82,186.33,148.66,188.12Z"/><path class="cls-4" d="M134.55,197.64s.4-3.36-2-3.36-7.73-.81-7.7,1.21,0,5.92,0,5.92S132.26,194.82,134.55,197.64Z"/><path class="cls-4" d="M139.52,163.88l-5-8.47s3.34-10.22,8.31-10.63,18-3,23.13,0,2.82,8.84,2.82,8.84-9.69-4.94-16.88-1.72S139.26,159,139.52,163.88Z"/><path class="cls-1" d="M89.34,161l-.73-6.1c.32,1.89.78,3.7,3.06,4.42Z"/><path class="cls-4" d="M116.94,163.88l5-8.47s-3.34-10.22-8.31-10.63-18-3-23.13,0-2.82,8.84-2.82,8.84,9.69-4.94,16.88-1.72S117.21,159,116.94,163.88Z"/><path class="cls-9" d="M113,163.88a34.61,34.61,0,0,1-7.45,2.52,30.11,30.11,0,0,1-3,.49,29,29,0,0,1-5.21.1,27.92,27.92,0,0,1-3.05-.37,23,23,0,0,1-7.78-2.73C97.3,149.59,110.63,158.85,113,163.88Z"/><path class="cls-6" d="M105.74,165.15a4.56,4.56,0,0,1-.17,1.25,29.38,29.38,0,0,1-11.3.22,4.5,4.5,0,0,1-.24-1.47,4.62,4.62,0,0,1,.61-2.29,5.76,5.76,0,0,1,3.81-2.72,6.49,6.49,0,0,1,1.44-.16C103.12,160,105.74,162.3,105.74,165.15Z"/><path class="cls-9" d="M99.43,163.88l-2.28,2.18-2.52-3.2a5.76,5.76,0,0,1,3.81-2.72Z"/><path class="cls-1" d="M102.65,166.06a2.8,2.8,0,0,1-.12.82,29,29,0,0,1-5.21.1,2.61,2.61,0,0,1-.17-.93,2.75,2.75,0,1,1,5.5,0Z"/><path class="cls-9" d="M143.58,163.88A34.61,34.61,0,0,0,151,166.4a30.11,30.11,0,0,0,3,.49,29,29,0,0,0,5.21.1,27.92,27.92,0,0,0,3.05-.37,23,23,0,0,0,7.78-2.73C159.3,149.59,146,158.85,143.58,163.88Z"/><path class="cls-6" d="M150.86,165.15a4.56,4.56,0,0,0,.17,1.25,29.38,29.38,0,0,0,11.3.22,4.5,4.5,0,0,0,.24-1.47,4.62,4.62,0,0,0-.61-2.29,5.76,5.76,0,0,0-3.81-2.72,6.49,6.49,0,0,0-1.44-.16C153.48,160,150.86,162.3,150.86,165.15Z"/><path class="cls-9" d="M157.18,163.88l2.28,2.18,2.52-3.2a5.76,5.76,0,0,0-3.81-2.72Z"/><path class="cls-1" d="M154,166.06a2.8,2.8,0,0,0,.12.82,29,29,0,0,0,5.21.1,2.61,2.61,0,0,0,.17-.93,2.75,2.75,0,1,0-5.5,0Z"/><path class="cls-4" d="M115,168.1s-18.94,8.85-30.83,0C86.33,168.67,101.37,173.31,115,168.1Z"/><path class="cls-4" d="M170.45,168.9s-18.94,8.85-30.83,0C141.75,169.47,156.78,174.1,170.45,168.9Z"/><path class="cls-11" d="M179.16,171.42s-16.93,10.72-24.12,7.65c4.45,5.14,15.4,25,26.35,15.92C184.29,184.38,186.17,173,179.16,171.42Z"/><path class="cls-11" d="M77.47,171.42s16.93,10.72,24.12,7.65c-4.45,5.14-15.4,25-26.35,15.92C72.34,184.38,70.45,173,77.47,171.42Z"/><path class="cls-1" d="M176.22,143.38s-7.3-5.81-19-4.44l-11.65,1.36s-4.69,3-5,1.48,1.06-4.66,5.45-6,11.38-2.27,12.58-2.12S174.25,134.18,176.22,143.38Z"/><path class="cls-1" d="M79.21,145.19s7.3-5.81,19-4.44l11.65,1.36s4.69,3,5,1.48-1.06-4.66-5.45-6S98,135.3,96.78,135.45,81.18,136,79.21,145.19Z"/><path class="cls-1" d="M86.49,163.88l-2.28-5.7c.8,1.74,1.7,3.37,4.09,3.48Z"/><path class="cls-1" d="M88,162l-2.28-5.7c.8,1.74,1.7,3.37,4.09,3.48Z"/><path class="cls-1" d="M167.26,161l.73-6.1c-.32,1.89-.78,3.7-3.06,4.42Z"/><path class="cls-1" d="M170.11,163.88l2.28-5.7c-.8,1.74-1.7,3.37-4.09,3.48Z"/><path class="cls-1" d="M168.57,162l2.28-5.7c-.8,1.74-1.7,3.37-4.09,3.48Z"/><path class="cls-3" d="M71.11,154s-3.93-2.17-4.9-.38-2.45,5.43-1.5,8.07-.42,14.32-.11,15.07-1.68,1.66,1.78,4.06,9.13-10.6,6.93-18.72Z"/><path class="cls-10" d="M81.84,78.07l.42,2c-3,.41-4.54.63-7.57,1.11l-3.21-13,2.25-.35,2.61,11.06C78.53,78.52,79.64,78.37,81.84,78.07Z"/><path class="cls-10" d="M94.21,73.13c.51,3.45-1.25,5.75-4.66,6.13A5.67,5.67,0,0,1,83,74.4l-1.54-7.68,2.26-.28,1.47,7.69a3.55,3.55,0,0,0,4.1,3.14c2.07-.23,3.16-1.68,2.8-3.92L90.8,65.63l2.26-.22Z"/><path class="cls-10" d="M107,77.67c-3.05-3.64-4.64-5.44-7.92-9l1.18,9.48-2.13.18L96.31,65.11l2.23-.19c3.35,3.57,5,5.37,8.08,9l-.88-9.52,2.23-.13,1.1,13.26Z"/><path class="cls-10" d="M114,74.32c-.42,1.22-.63,1.83-1,3l-2.23.1c1.84-5.41,2.83-8.11,4.95-13.5l2.33-.07c2.56,5.25,3.77,7.89,6.06,13.19l-2.28,0c-.51-1.19-.77-1.79-1.3-3C117.92,74.18,116.63,74.22,114,74.32Zm2.88-8c-.9,2.39-1.34,3.58-2.19,6,2-.07,2.94-.1,4.89-.14C118.57,69.82,118,68.65,116.92,66.32Z"/><path class="cls-10" d="M136.05,63.9c3.38.09,5.22,1.83,5,4.71s-2.16,4.65-5.41,4.57l-3-.06-.1,4-2.14,0,.22-13.29C132.83,63.82,133.91,63.84,136.05,63.9Zm-3.29,7.2,2.91.06c2,.05,3.19-.78,3.29-2.58s-1-2.62-3.08-2.68l-3-.06Z"/><path class="cls-10" d="M143.89,74.49c-.58,1.17-.87,1.76-1.44,2.93l-2.23-.1c2.56-5.22,3.91-7.82,6.75-13l2.32.14c1.83,5.45,2.68,8.18,4.24,13.64L151.26,78c-.35-1.23-.53-1.84-.89-3.07C147.78,74.7,146.48,74.62,143.89,74.49Zm4-7.7c-1.22,2.29-1.82,3.45-3,5.75,2,.1,2.93.16,4.89.29C149,70.42,148.64,69.21,147.85,66.79Z"/><path class="cls-10" d="M161.57,74.81c-.19,0-.39,0-.59,0l-3.05-.29-.56,4-2.13-.19L157,65.05c2.18.18,3.27.29,5.45.5,3.43.34,5.11,2.22,4.59,5.07a4.67,4.67,0,0,1-3.44,4c.86,1.89,1.28,2.83,2.1,4.72L163.24,79C162.59,77.35,162.25,76.5,161.57,74.81Zm-.28-2c2,.2,3.3-.53,3.6-2.32s-.74-2.69-2.79-2.9l-3.15-.3-.74,5.22Z"/><path class="cls-10" d="M173.78,74.41c-1.09.86-1.63,1.29-2.7,2.16l-.68,3.33-2.13-.27,2.54-13.13,2.26.29-1.38,6.78c3-2.39,4.58-3.57,7.76-5.89l2.65.41c-2.61,1.9-3.89,2.87-6.4,4.81,1.49,3.3,2.2,5,3.54,8.27l-2.55-.39C175.57,78.23,175,77,173.78,74.41Z"/></svg>