<svg id="Layer_1" data-name="Layer 1" xmlns="http://www.w3.org/2000/svg" viewBox="0 0 152 438"><defs><style>.cls-1{fill:#da0100;}.cls-2{fill:#a63d3d;}.cls-3{fill:#8a0000;}.cls-4{fill:#e02c2b;}</style></defs><title>hanoi</title><circle class="cls-1" cx="75.99" cy="13.62" r="7.4"/><path class="cls-2" d="M68,13.88s-6.9-.17-8.88,11.7-1.41,31.07-1.41,31.07L54.6,57.93V82l-2.31,2.31v24.41H49.73v28.46H46.41v30.48h-3.8v35H40.09v39h-3v38H32.6v42.51H28.94v48.31H25.2v53.89H60.33l2.73-81.43,4-90.58,2.75-74.2L70.47,66.9,72.28,56l-.64-12.26L76,13.88Z"/><path class="cls-2" d="M84,13.88s6.9-.17,8.88,11.7,1.41,31.07,1.41,31.07l3.13,1.28V82l2.31,2.31v24.41h2.56v28.46h3.32v30.48h3.8v35h2.53v39h3v38h4.49v42.51H123v48.31h3.75v53.89H89.29L79.7,13.88Z"/><path class="cls-2" d="M83.92,14H68L53,424.36H99ZM73.53,46.16A2.45,2.45,0,0,1,76,43.75a2.49,2.49,0,0,1,1.74.71,2.43,2.43,0,0,1,.75,1.7v7.47H73.53ZM72.29,70.08a3.44,3.44,0,0,1,3.46-3.18,4.15,4.15,0,0,1,2.63.93,3.6,3.6,0,0,1,1.33,2.24v9.84H72.29Zm0,24.17A3.73,3.73,0,0,1,76,90.54a3.71,3.71,0,0,1,3.69,3.71v11.47H72.29Zm-1.24,28.48a4.93,4.93,0,0,1,8.4-3.42,4.87,4.87,0,0,1,1.49,3.42v15H71.06Zm-1.24,27.67a5.88,5.88,0,0,1,5.9-5.56,6.62,6.62,0,0,1,4.37,1.64,6,6,0,0,1,2.09,3.93v17.22H76.93l-7.11,0Zm0,36.5a6.17,6.17,0,0,1,10.53-4.32,6.1,6.1,0,0,1,1.83,4.32v18.93H77l-7.2,0Zm0,36.59a6.46,6.46,0,0,1,6.42-6.59,5.8,5.8,0,0,1,4.32,1.94,6.29,6.29,0,0,1,1.62,4.65v20.38H77.1l-7.28,0Zm0,36.83a6.6,6.6,0,0,1,6.54-6.82,5.15,5.15,0,0,1,4.31,2,7.17,7.17,0,0,1,1.51,4.82v21.12h-5l-7.32,0ZM68.58,301.5a7.52,7.52,0,0,1,7.5-7.51,7.23,7.23,0,0,1,5.21,2.21,7.38,7.38,0,0,1,2.13,5.3v26H77.25l-8.67,0ZM84.65,410.77H67.35V394a8.51,8.51,0,0,1,8.49-8.49A8.8,8.8,0,0,1,82,388a8.58,8.58,0,0,1,2.67,6Zm-7.24-34.44-10.07,0V347a8.51,8.51,0,0,1,8.49-8.49A8.8,8.8,0,0,1,82,341a8.58,8.58,0,0,1,2.67,6v29.36Z"/><polygon class="cls-2" points="98.75 232.78 79.14 232.78 73.93 232.78 52.95 232.78 26.96 235.65 36.84 243.24 72.26 243.9 73.93 243.9 79.14 243.9 80.82 243.9 116.23 243.1 125.63 235.65 98.75 232.78"/><path class="cls-3" d="M111.54,239c-12.14,0-12.47-9.32-12.47-9.32s.42,8.07-23.07,8.07h0c-23.49,0-23.08-8.07-23.08-8.07S52.61,239,40.47,239s-16.21-6.11-16.21-6.11,5,12.29,18.16,12.73c6.16.21,20.28.22,33.59.18s27.43,0,33.59-.18c13.18-.45,18.16-12.73,18.16-12.73S123.68,239,111.54,239Z"/><polygon class="cls-2" points="96.38 194.46 78.79 194.46 74.16 194.46 55.54 194.46 31.89 197.35 41.2 203.9 72.67 204.35 74.16 204.35 78.79 204.35 80.28 204.35 111.76 203.91 120.54 197.2 96.38 194.46"/><path class="cls-3" d="M107.59,200.5c-10.79,0-11.08-8.28-11.08-8.28s.51,7.17-20.5,7.17h0c-21,0-20.51-7.17-20.51-7.17s-.28,8.28-11.07,8.28S30,195.07,30,195.07,34.44,206,46.15,206.38c5.47.18,18,.2,29.85.16s24.38,0,29.85-.16C117.56,206,122,195.07,122,195.07S118.38,200.5,107.59,200.5Z"/><polygon class="cls-2" points="94.51 159.85 78.53 159.85 74.34 159.85 57.48 159.77 35.76 162.75 44.51 168.98 72.99 169.74 74.34 169.74 78.53 169.74 79.88 169.74 108.36 169.1 116.31 162.68 94.51 159.85"/><path class="cls-3" d="M104.58,165.78c-9.77,0-10-7.49-10-7.49s0,6.49-18.55,6.49h0c-18.54,0-18.56-6.49-18.56-6.49s-.25,7.49-10,7.49-13-4.92-13-4.92,4,9.88,14.6,10.24c5,.17,16.31.18,27,.14s22.06,0,27-.14c10.6-.36,14.61-10.24,14.61-10.24S114.35,165.78,104.58,165.78Z"/><polygon class="cls-2" points="91.97 131.42 78.21 131.42 74.55 131.42 59.33 131.42 41.5 133.55 48.45 138.63 73.37 138.84 74.55 138.84 78.21 138.84 79.39 138.84 104.3 138.59 111.25 133.44 91.97 131.42"/><path class="cls-3" d="M101,136c-8.54,0-8.77-6.55-8.77-6.55s-.16,5.68-16.23,5.68h0c-16.07,0-16.23-5.68-16.23-5.68S59.54,136,51,136s-11.41-4.3-11.41-4.3,3.5,8.64,12.77,9c4.33.15,14.27.16,23.63.12s19.3,0,23.63-.12c9.27-.31,12.78-9,12.78-9S109.54,136,101,136Z"/><polygon class="cls-2" points="89.95 102.99 77.93 102.99 74.73 102.99 62.02 102.99 45.42 105.15 51.97 109.87 73.7 110.41 74.73 110.41 77.93 110.41 78.96 110.41 100.69 109.95 106.76 105.1 89.95 102.99"/><path class="cls-3" d="M97.81,107.45c-7.45,0-7.65-5.72-7.65-5.72s-.56,5-14.16,5h0c-13.6,0-14.16-5-14.16-5s-.19,5.72-7.65,5.72-10-3.75-10-3.75,3.06,7.54,11.15,7.81c3.78.13,12.45.14,20.62.11s16.84,0,20.62-.11c8.09-.27,11.15-7.81,11.15-7.81S105.27,107.45,97.81,107.45Z"/><polygon class="cls-2" points="88.95 78.27 77.78 78.27 74.83 78.27 62.98 78.27 47.59 80.43 53.79 84.98 73.88 85.69 74.83 85.69 77.78 85.69 78.73 85.69 98.82 85.13 104.43 80.43 88.95 78.27"/><path class="cls-3" d="M96.16,82.67c-6.89,0-7.07-5.29-7.07-5.29S88.36,82,76,82h0c-12.36,0-13.09-4.58-13.09-4.58s-.18,5.29-7.07,5.29-9.2-3.47-9.2-3.47,2.83,7,10.3,7.22c3.49.12,11.5.13,19.05.1s15.56,0,19.05-.1c7.47-.25,10.3-7.22,10.3-7.22S103,82.67,96.16,82.67Z"/><polygon class="cls-2" points="87.8 52.31 77.61 52.31 74.94 52.31 64.16 52.31 50.44 54.87 55.87 58.83 74.08 59.73 74.94 59.73 77.61 59.73 78.48 59.73 96.68 59.05 101.76 54.53 87.8 52.31"/><path class="cls-3" d="M94.27,56.65c-6.24,0-6.41-4.79-6.41-4.79S87.12,56,76,56h0c-11.12,0-11.86-4.15-11.86-4.15s-.16,4.79-6.4,4.79-8.34-3.14-8.34-3.14,2.56,6.32,9.33,6.55c3.17.11,10.43.11,17.27.09s14.1,0,17.27-.09c6.77-.23,9.34-6.55,9.34-6.55S100.51,56.65,94.27,56.65Z"/><polygon class="cls-2" points="86.51 27.59 77.44 27.59 75.05 27.59 65.45 27.59 53.23 30.07 58.07 33.9 74.29 35.01 75.05 35.01 77.44 35.01 78.2 35.01 94.42 34.2 98.94 29.87 86.51 27.59"/><path class="cls-3" d="M92.27,31.86c-5.56,0-5.71-4.27-5.71-4.27S85.89,31.28,76,31.28h0c-9.89,0-10.57-3.69-10.57-3.69s-.14,4.27-5.7,4.27-7.42-2.8-7.42-2.8,2.28,5.63,8.31,5.83c2.82.1,9.29.1,15.38.08s12.56,0,15.38-.08c6-.2,8.32-5.83,8.32-5.83S97.83,31.86,92.27,31.86Z"/><polygon class="cls-2" points="101.49 271.09 79.47 271.09 73.72 271.09 49.81 271.09 21.81 273.96 32.73 281.56 71.87 282.22 73.72 282.22 79.47 282.22 81.33 282.22 120.46 281.42 131.38 274.02 101.49 271.09"/><path class="cls-3" d="M115.27,277.27c-13.42,0-13.78-9.32-13.78-9.32S102,276,76,276h0C50,276,50.5,268,50.5,268s-.35,9.32-13.77,9.32-17.92-6.11-17.92-6.11a23.26,23.26,0,0,0,20.07,12.73c6.8.21,22.41.22,37.11.18s30.31,0,37.12-.18a23.27,23.27,0,0,0,20.07-12.73S128.69,277.27,115.27,277.27Z"/><polygon class="cls-2" points="105.34 311.88 80.05 311.88 73.34 311.88 45.44 311.88 12.77 315.44 25.51 324.5 71.18 325.48 73.34 325.48 80.05 325.48 82.21 325.48 127.89 324.44 140.63 315.56 105.34 311.88"/><path class="cls-3" d="M121.83,319.51c-15.66,0-16.08-10.87-16.08-10.87S105.67,318,76,318h0c-30.9,0-29.76-9.41-29.76-9.41s-.41,10.87-16.06,10.87-20.91-7.13-20.91-7.13,6.42,14.34,23.42,14.86c7.94.24,26.15.26,43.31.21s35.37,0,43.31-.21c17-.52,23.42-14.86,23.42-14.86S137.49,319.51,121.83,319.51Z"/><polygon class="cls-2" points="110.3 360.09 80.35 360.09 73.14 360.09 43.19 360.09 8.13 363.68 21.8 373.02 70.82 373.69 73.14 373.69 80.35 373.69 82.67 373.69 131.69 372.85 145.37 363.67 110.3 360.09"/><path class="cls-3" d="M147.6,360.21c-.42.9-7.45,15.35-25.12,15.9-7.44.22-23.27.27-39.42.23H76l-9.9,0c-15.14,0-29.59,0-36.59-.25A29.11,29.11,0,0,1,4.4,360.29a10.65,10.65,0,0,0,4.25,3.5h0c3.45,2.47,9.23,4.11,18.16,4.11,10.21,0,14.38-4.35,16.07-7.74A11.2,11.2,0,0,0,44,356.35a5.31,5.31,0,0,0,2,3.75c2.48,2.29,8,4.89,20,5.82,2.89.22,6.18.34,9.89.34q3.84,0,7.08-.19c13.44-.73,19.62-3.54,22.45-6,2.37-2.05,2.41-3.84,2.41-3.94a10.57,10.57,0,0,0,1.15,3.94c1.69,3.39,5.86,7.74,16.12,7.74,9.13,0,15-2.26,18.38-4.34A15.44,15.44,0,0,0,147.6,360.21Z"/><rect class="cls-1" x="28.61" y="417.54" width="94.77" height="14.24"/><rect class="cls-4" x="19.81" y="413.86" width="112.37" height="10.5"/></svg>