<svg id="Layer_1" data-name="Layer 1" xmlns="http://www.w3.org/2000/svg" viewBox="0 0 266 353"><defs><style>.cls-1{fill:#8795a7;}.cls-2{fill:#213b5c;}.cls-3{fill:#e33e3d;}.cls-4{fill:#da0100;}.cls-5{fill:#9e2b2b;}.cls-6{fill:#8a0000;}.cls-7{fill:#ebb162;}.cls-8{fill:#b6bec9;}</style></defs><title>hanoi</title><path class="cls-1" d="M15.42,244.37v85.94H88.29V317.24h13.08v13.08H250.83V244.37Zm59.79,80.34H45.31V279.54c0-11.28,13.59-21,14.95-21.88,1.36.86,14.95,10.6,14.95,21.88Zm84.08,0H103.23V283c0-12.22,28-25,28-25s28,12.75,28,25Zm67.26,0H196.65V279.54c0-11.28,13.59-21,14.95-21.88,1.36.86,14.95,10.6,14.95,21.88Z"/><path class="cls-1" d="M21,152.82v59.79H47.18V181.45c0-8.22,12-15.32,13.08-16,1.12.63,13.08,7.73,13.08,16v31.17h39.24V181.45c0-8.22,18.68-15.32,20.55-16,1.88.63,20.55,7.73,20.55,16v31.17H191V181.45c0-8.22,11-15.32,12.14-16,1.12.63,12.14,7.73,12.14,16v31.17h28V152.82Z"/><rect class="cls-2" x="10.11" y="328.56" width="77.94" height="6.24"/><rect class="cls-2" x="2.18" y="334.8" width="85.86" height="14.13"/><rect class="cls-2" x="101.72" y="328.56" width="149.7" height="6.24" transform="translate(353.15 663.35) rotate(-180)"/><rect class="cls-2" x="101.73" y="334.8" width="162.09" height="14.2" transform="translate(365.55 683.8) rotate(-180)"/><rect class="cls-3" x="84.29" y="50.16" width="97.41" height="25.75"/><rect class="cls-2" x="72.84" y="90.61" width="120.31" height="51.78"/><polygon class="cls-4" points="193.16 90.61 72.84 90.61 84.27 71.55 181.74 71.55 193.16 90.61"/><rect class="cls-3" x="11.06" y="233.83" width="243.88" height="8.95"/><rect class="cls-5" x="15.23" y="214.19" width="235.53" height="19.64"/><rect class="cls-5" x="81.26" y="133.63" width="103.48" height="17.52"/><rect class="cls-6" x="22.31" y="149.49" width="221.37" height="3.32"/><rect class="cls-1" x="42.97" y="130.98" width="2.52" height="15.59"/><rect class="cls-1" x="48.42" y="130.98" width="2.52" height="15.59"/><rect class="cls-1" x="53.86" y="130.98" width="2.52" height="15.59"/><rect class="cls-1" x="59.31" y="130.98" width="2.52" height="15.59"/><rect class="cls-1" x="64.75" y="130.98" width="2.52" height="15.59"/><rect class="cls-3" x="38.1" y="128.33" width="34.04" height="5.3"/><rect class="cls-1" x="39.86" y="145.43" width="32.29" height="4.07"/><rect class="cls-1" x="25.83" y="125.39" width="14.21" height="24.1"/><path class="cls-4" d="M39.86,122.73c0-2.87-3.1-5.19-6.93-5.19S26,119.86,26,122.73"/><polygon class="cls-3" points="37.43 125.39 28.43 125.39 26.01 122.73 39.86 122.73 37.43 125.39"/><rect class="cls-1" x="70.76" y="125.39" width="14.21" height="24.1"/><path class="cls-4" d="M84.79,122.73c0-2.87-3.1-5.19-6.93-5.19s-6.93,2.33-6.93,5.19"/><polygon class="cls-3" points="82.36 125.39 73.36 125.39 70.94 122.73 84.79 122.73 82.36 125.39"/><rect class="cls-1" x="198.18" y="130.98" width="2.52" height="15.59"/><rect class="cls-1" x="203.63" y="130.98" width="2.52" height="15.59"/><rect class="cls-1" x="209.07" y="130.98" width="2.52" height="15.59"/><rect class="cls-1" x="214.52" y="130.98" width="2.52" height="15.59"/><rect class="cls-1" x="219.96" y="130.98" width="2.52" height="15.59"/><rect class="cls-3" x="193.31" y="128.33" width="34.04" height="5.3"/><rect class="cls-1" x="195.07" y="145.43" width="32.29" height="4.07"/><rect class="cls-1" x="181.04" y="125.39" width="14.21" height="24.1"/><path class="cls-4" d="M195.07,122.73c0-2.87-3.1-5.19-6.93-5.19s-6.93,2.33-6.93,5.19"/><polygon class="cls-3" points="192.64 125.39 183.64 125.39 181.21 122.73 195.06 122.73 192.64 125.39"/><rect class="cls-1" x="225.96" y="125.39" width="14.21" height="24.1"/><path class="cls-4" d="M240,122.73c0-2.87-3.1-5.19-6.93-5.19s-6.93,2.33-6.93,5.19"/><polygon class="cls-3" points="237.57 125.39 228.57 125.39 226.14 122.73 239.99 122.73 237.57 125.39"/><circle class="cls-7" cx="133" cy="120.79" r="12.39"/><rect class="cls-5" x="41.12" y="246.38" width="40.07" height="5.79"/><rect class="cls-5" x="79.29" y="252.17" width="1.89" height="75.91"/><rect class="cls-5" x="99.12" y="246.38" width="64.5" height="5.79"/><rect class="cls-5" x="192.18" y="246.38" width="39.52" height="5.79"/><rect class="cls-5" x="160.98" y="252.17" width="2.64" height="75.91"/><path class="cls-8" d="M72.76,30.46s-2,19.79,12.79,19.79,12.19-10.6,15.39-14.8,6.94-4.4,10-1.4c0,0,5.4,3.8,7,7.2s7.4-2.6,7.4-2.6-8.59-10.79-18.79-13.79-13.19,11.2-16.19,12.7S79,40.26,83,30.06s3.4-12,0-11.79c-2,0-2.16,1.65-5.18,1.1s-8.24-.69-9.62.55S60.33,29.88,72.76,30.46Z"/><path class="cls-8" d="M193.42,30.46s2,19.79-12.79,19.79-12.19-10.6-15.39-14.8-6.94-4.4-10-1.4c0,0-5.4,3.8-7,7.2s-7.4-2.6-7.4-2.6,8.59-10.79,18.79-13.79,13.19,11.2,16.19,12.7,11.39,2.7,7.4-7.5-3.4-12,0-11.79c2,0,2.16,1.65,5.18,1.1s8.24-.69,9.62.55S205.85,29.88,193.42,30.46Z"/><path class="cls-2" d="M141,16.77c0-7.83-7.92-12.34-7.92-13.51V3s.1.05,0,.13c-.1-.08,0-.13,0-.13v.26c-1.87,1.17-7.54,5.68-7.54,13.51,0,13.14-44,33.29-44,33.29h103.9S141,29.91,141,16.77Z"/><rect class="cls-2" x="236.58" y="209.73" width="14.21" height="24.1"/><path class="cls-4" d="M250.61,207.07c0-2.87-3.1-5.19-6.93-5.19s-6.93,2.33-6.93,5.19"/><polygon class="cls-3" points="248.19 209.73 239.19 209.73 236.76 207.07 250.61 207.07 248.19 209.73"/><rect class="cls-2" x="168.51" y="209.73" width="14.21" height="24.1"/><path class="cls-4" d="M182.54,207.07c0-2.87-3.1-5.19-6.93-5.19s-6.93,2.33-6.93,5.19"/><polygon class="cls-3" points="180.11 209.73 171.11 209.73 168.69 207.07 182.54 207.07 180.11 209.73"/><rect class="cls-2" x="83.31" y="209.73" width="14.21" height="24.1"/><path class="cls-4" d="M97.34,207.07c0-2.87-3.1-5.19-6.93-5.19s-6.93,2.33-6.93,5.19"/><polygon class="cls-3" points="94.91 209.73 85.91 209.73 83.48 207.07 97.34 207.07 94.91 209.73"/><rect class="cls-2" x="15.23" y="209.73" width="14.21" height="24.1"/><path class="cls-4" d="M29.26,207.07c0-2.87-3.1-5.19-6.93-5.19s-6.93,2.33-6.93,5.19"/><polygon class="cls-3" points="26.84 209.73 17.84 209.73 15.41 207.07 29.26 207.07 26.84 209.73"/></svg>