<svg id="Layer_1" data-name="Layer 1" xmlns="http://www.w3.org/2000/svg" xmlns:xlink="http://www.w3.org/1999/xlink" viewBox="0 0 432 262"><defs><style>.cls-1{fill:#8a0000;}.cls-2{fill:#213b5c;}.cls-3{fill:#df2524;}.cls-4{fill:#da0100;}.cls-5{fill:#ebb162;}.cls-6{fill:#425874;}.cls-7{fill:url(#linear-gradient);}.cls-8{fill:url(#linear-gradient-2);}.cls-9{fill:url(#linear-gradient-3);}.cls-10{fill:#f1c891;}.cls-11{fill:url(#linear-gradient-4);}.cls-12{fill:url(#linear-gradient-5);}.cls-13{fill:url(#linear-gradient-6);}</style><linearGradient id="linear-gradient" x1="163.23" y1="136.95" x2="163.23" y2="70.15" gradientUnits="userSpaceOnUse"><stop offset="0.43" stop-color="#425874" stop-opacity="0"/><stop offset="0.64" stop-color="#435873" stop-opacity="0.01"/><stop offset="0.72" stop-color="#485671" stop-opacity="0.04"/><stop offset="0.78" stop-color="#51536d" stop-opacity="0.09"/><stop offset="0.82" stop-color="#5d4f66" stop-opacity="0.17"/><stop offset="0.86" stop-color="#6c4a5e" stop-opacity="0.27"/><stop offset="0.9" stop-color="#804455" stop-opacity="0.39"/><stop offset="0.93" stop-color="#973d49" stop-opacity="0.54"/><stop offset="0.96" stop-color="#b1343b" stop-opacity="0.71"/><stop offset="0.99" stop-color="#cf2a2c" stop-opacity="0.9"/><stop offset="1" stop-color="#df2524"/></linearGradient><linearGradient id="linear-gradient-2" x1="214.67" y1="136.95" x2="214.67" y2="70.15" xlink:href="#linear-gradient"/><linearGradient id="linear-gradient-3" x1="264.1" y1="136.95" x2="264.1" y2="70.15" xlink:href="#linear-gradient"/><linearGradient id="linear-gradient-4" x1="214.67" y1="182.37" x2="214.67" y2="151.65" gradientUnits="userSpaceOnUse"><stop offset="0.43" stop-color="#425874" stop-opacity="0"/><stop offset="0.48" stop-color="#475671" stop-opacity="0.03"/><stop offset="0.56" stop-color="#55526a" stop-opacity="0.12"/><stop offset="0.66" stop-color="#6c4a5f" stop-opacity="0.27"/><stop offset="0.77" stop-color="#8c404e" stop-opacity="0.47"/><stop offset="0.89" stop-color="#b5333a" stop-opacity="0.73"/><stop offset="1" stop-color="#df2524"/></linearGradient><linearGradient id="linear-gradient-5" x1="35.65" y1="255.85" x2="35.65" y2="182.37" gradientUnits="userSpaceOnUse"><stop offset="0" stop-color="#425874" stop-opacity="0"/><stop offset="0.1" stop-color="#475671" stop-opacity="0.03"/><stop offset="0.24" stop-color="#55526a" stop-opacity="0.12"/><stop offset="0.41" stop-color="#6c4a5f" stop-opacity="0.27"/><stop offset="0.6" stop-color="#8c404e" stop-opacity="0.47"/><stop offset="0.81" stop-color="#b5333a" stop-opacity="0.73"/><stop offset="1" stop-color="#df2524"/></linearGradient><linearGradient id="linear-gradient-6" x1="47.85" y1="255.85" x2="47.85" y2="182.37" gradientTransform="matrix(-1, 0, 0, 1, 444.26, 0)" xlink:href="#linear-gradient-5"/></defs><title>hanoi</title><rect class="cls-1" x="178.86" y="157.27" width="71.96" height="26.4"/><rect class="cls-2" x="12.5" y="139.69" width="46.03" height="13.59"/><rect class="cls-3" x="14.86" y="143.54" width="8.95" height="6.03"/><rect class="cls-3" x="47.25" y="143.54" width="8.95" height="6.03"/><rect class="cls-4" x="26.07" y="143.54" width="18.88" height="6.03"/><rect class="cls-2" x="9.35" y="150.41" width="52.64" height="32.28"/><path class="cls-1" d="M13.16,148.37a4.58,4.58,0,0,1-3.78-4.82H6.21a23.22,23.22,0,0,0,1.51,5.59C8.65,151,9.12,156,9.12,156c0,.42.22,1.29.22,1.29V149.2s1.52,2.94,8.56,3.27,17.31.08,17.31.08V149.2C27.57,149.2,17.39,149.43,13.16,148.37Z"/><path class="cls-1" d="M62,143.54a4.58,4.58,0,0,1-3.78,4.82c-4.23,1.07-15.31.83-23,.83v3.35s11.17.24,18.21-.08S62,149.2,62,149.2v8.07s.18-.87.22-1.29c0,0,.48-5,1.4-6.85a23.22,23.22,0,0,0,1.51-5.59Z"/><path class="cls-4" d="M9.12,157.7s-.48-5-1.4-6.85a23.86,23.86,0,0,1-1.71-8c.13-1.35,1-3,2.19-2.68s1.78,2.31,1.38,3.66a4.79,4.79,0,0,0,3.58,6.23c4.23,1.07,14.41.83,22.06.83v3.35s-10.28.24-17.31-.08-8.56-3.27-8.56-3.27V159S9.17,158.11,9.12,157.7Z"/><path class="cls-4" d="M62.21,157.7s.48-5,1.4-6.85a23.86,23.86,0,0,0,1.71-8c-.13-1.35-1-3-2.19-2.68s-1.78,2.31-1.38,3.66a4.79,4.79,0,0,1-3.58,6.23c-4.23,1.07-15.31.83-23,.83v3.35s11.17.24,18.21-.08S62,150.91,62,150.91V159S62.17,158.11,62.21,157.7Z"/><path class="cls-1" d="M15.88,136.35a4.54,4.54,0,0,1-3.32-4.82H9.78a25.8,25.8,0,0,0,1.32,5.59c.81,1.84,1.23,6.85,1.23,6.85,0,.42.2,1.29.2,1.29v-8.07s1.34,2.94,7.51,3.27,15.2.08,15.2.08v-3.35C28.53,137.18,19.6,137.41,15.88,136.35Z"/><path class="cls-1" d="M58.72,131.52a4.54,4.54,0,0,1-3.32,4.82c-3.72,1.07-13.44.83-20.16.83v3.35s9.81.24,16-.08,7.51-3.27,7.51-3.27v8.07s.16-.87.2-1.29c0,0,.42-5,1.23-6.85a25.79,25.79,0,0,0,1.32-5.59Z"/><path class="cls-4" d="M12.34,145.68s-.5-3.67-1-5.93a13.13,13.13,0,0,1-.27-1.78c-.35-4.29-2.95-7.53-2.84-8.8,3,1.14,2.56.45,3.61.73.32.43.42.54.67,1.82s-.34,5.27,3.38,6.34,12.65.83,19.37.83v3.35s-9,.24-15.2-.08-7.55-2.47-7.55-2.47l0,7.28S12.38,146.1,12.34,145.68Z"/><path class="cls-4" d="M58.71,145.68s.5-3.67,1-5.93A13.13,13.13,0,0,0,60,138c.35-4.29,2.95-7.53,2.84-8.8-3,1.14-2.56.45-3.61.73-.32.43-.42.54-.67,1.82s.34,5.27-3.38,6.34-13.2.83-19.92.83v3.35s9.57.24,15.75-.08,7.55-2.47,7.55-2.47l0,7.28S58.67,146.1,58.71,145.68Z"/><rect class="cls-2" x="373.17" y="139.69" width="46.03" height="13.59"/><rect class="cls-3" x="375.53" y="143.54" width="8.95" height="6.03"/><rect class="cls-3" x="407.92" y="143.54" width="8.95" height="6.03"/><rect class="cls-4" x="386.74" y="143.54" width="18.88" height="6.03"/><rect class="cls-2" x="370.02" y="150.41" width="52.64" height="32.28"/><path class="cls-1" d="M373.83,148.37a4.58,4.58,0,0,1-3.78-4.82h-3.17a23.22,23.22,0,0,0,1.51,5.59c.93,1.84,1.4,6.85,1.4,6.85,0,.42.22,1.29.22,1.29V149.2s1.52,2.94,8.56,3.27,17.31.08,17.31.08V149.2C388.24,149.2,378.06,149.43,373.83,148.37Z"/><path class="cls-1" d="M422.62,143.54a4.58,4.58,0,0,1-3.78,4.82c-4.23,1.07-15.31.83-23,.83v3.35s11.17.24,18.21-.08,8.56-3.27,8.56-3.27v8.07s.18-.87.22-1.29c0,0,.48-5,1.4-6.85a23.22,23.22,0,0,0,1.51-5.59Z"/><path class="cls-4" d="M369.79,157.7s-.48-5-1.4-6.85a23.86,23.86,0,0,1-1.71-8c.13-1.35,1-3,2.19-2.68s1.78,2.31,1.38,3.66a4.79,4.79,0,0,0,3.58,6.23c4.23,1.07,14.41.83,22.06.83v3.35s-10.28.24-17.31-.08-8.56-3.27-8.56-3.27V159S369.83,158.11,369.79,157.7Z"/><path class="cls-4" d="M422.88,157.7s.48-5,1.4-6.85a23.86,23.86,0,0,0,1.71-8c-.13-1.35-1-3-2.19-2.68s-1.78,2.31-1.38,3.66a4.79,4.79,0,0,1-3.58,6.23c-4.23,1.07-15.31.83-23,.83v3.35s11.17.24,18.21-.08,8.56-3.27,8.56-3.27V159S422.83,158.11,422.88,157.7Z"/><path class="cls-1" d="M376.55,136.35a4.54,4.54,0,0,1-3.32-4.82h-2.78a25.8,25.8,0,0,0,1.32,5.59c.81,1.84,1.23,6.85,1.23,6.85,0,.42.2,1.29.2,1.29v-8.07s1.34,2.94,7.51,3.27,15.2.08,15.2.08v-3.35C389.2,137.18,380.27,137.41,376.55,136.35Z"/><path class="cls-1" d="M419.39,131.52a4.54,4.54,0,0,1-3.32,4.82c-3.72,1.07-13.44.83-20.16.83v3.35s9.81.24,16-.08,7.51-3.27,7.51-3.27v8.07s.16-.87.2-1.29c0,0,.42-5,1.23-6.85a25.79,25.79,0,0,0,1.32-5.59Z"/><path class="cls-4" d="M373,145.68s-.5-3.67-1-5.93a13.13,13.13,0,0,1-.27-1.78c-.35-4.29-2.95-7.53-2.84-8.8,3,1.14,2.56.45,3.61.73.32.43.42.54.67,1.82s-.34,5.27,3.38,6.34,12.65.83,19.37.83v3.35s-9,.24-15.2-.08-7.55-2.47-7.55-2.47l0,7.28S373,146.1,373,145.68Z"/><path class="cls-4" d="M419.38,145.68s.5-3.67,1-5.93a13.13,13.13,0,0,0,.27-1.78c.35-4.29,2.95-7.53,2.84-8.8-3,1.14-2.56.45-3.61.73-.32.43-.42.54-.67,1.82s.34,5.27-3.38,6.34-13.2.83-19.92.83v3.35s9.57.24,15.75-.08,7.55-2.47,7.55-2.47l0,7.28S419.34,146.1,419.38,145.68Z"/><rect class="cls-5" x="140.96" y="127.95" width="1.25" height="16.31" transform="translate(125.71 -59.65) rotate(41.49)"/><rect class="cls-5" x="146.23" y="127.67" width="1.25" height="16.31" transform="translate(126.84 -63.21) rotate(41.49)"/><rect class="cls-5" x="151.25" y="127.67" width="1.25" height="16.31" transform="translate(128.11 -66.54) rotate(41.49)"/><rect class="cls-5" x="155.95" y="128.04" width="1.25" height="16.31" transform="translate(129.53 -69.56) rotate(41.49)"/><rect class="cls-5" x="159.27" y="129.96" width="1.25" height="16.31" transform="translate(131.64 -71.28) rotate(41.49)"/><rect class="cls-5" x="162.62" y="131.86" width="1.25" height="16.31" transform="translate(133.74 -73.02) rotate(41.49)"/><rect class="cls-5" x="130.91" y="127.95" width="1.25" height="16.31" transform="translate(123.18 -52.99) rotate(41.49)"/><rect class="cls-5" x="125.88" y="127.95" width="1.25" height="16.31" transform="translate(121.92 -49.66) rotate(41.49)"/><rect class="cls-5" x="119.71" y="123.56" width="1.25" height="16.31" transform="translate(117.47 -46.67) rotate(41.49)"/><rect class="cls-5" x="120.78" y="128.04" width="1.25" height="16.31" transform="translate(120.7 -46.26) rotate(41.49)"/><rect class="cls-5" x="136.01" y="127.85" width="1.25" height="16.31" transform="translate(124.4 -56.4) rotate(41.49)"/><rect class="cls-5" x="139.98" y="129.05" width="1.25" height="16.31" transform="translate(126.19 -58.72) rotate(41.49)"/><rect class="cls-5" x="136.1" y="127.67" width="1.25" height="16.31" transform="translate(329.13 146.96) rotate(138.51)"/><rect class="cls-5" x="131.08" y="127.67" width="1.25" height="16.31" transform="translate(320.34 150.29) rotate(138.51)"/><rect class="cls-5" x="126.38" y="128.04" width="1.25" height="16.31" transform="translate(312.37 154.05) rotate(138.51)"/><rect class="cls-5" x="121.67" y="128.4" width="1.25" height="16.31" transform="translate(304.38 157.8) rotate(138.51)"/><rect class="cls-5" x="119.71" y="131.86" width="1.25" height="16.31" transform="translate(303.24 165.15) rotate(138.51)"/><rect class="cls-5" x="151.42" y="127.95" width="1.25" height="16.31" transform="translate(356.11 137.3) rotate(138.51)"/><rect class="cls-5" x="156.45" y="127.95" width="1.25" height="16.31" transform="translate(364.9 133.97) rotate(138.51)"/><rect class="cls-5" x="162.62" y="123.56" width="1.25" height="16.31" transform="translate(372.78 122.21) rotate(138.51)"/><rect class="cls-5" x="161.55" y="128.04" width="1.25" height="16.31" transform="translate(373.89 130.75) rotate(138.51)"/><rect class="cls-5" x="146.31" y="127.85" width="1.25" height="16.31" transform="translate(347.11 140.52) rotate(138.51)"/><rect class="cls-5" x="141.45" y="128.04" width="1.25" height="16.31" transform="translate(338.74 144.06) rotate(138.51)"/><rect class="cls-5" x="290.24" y="127.95" width="1.25" height="16.31" transform="translate(163.17 -158.55) rotate(41.49)"/><rect class="cls-5" x="295.51" y="127.67" width="1.25" height="16.31" transform="translate(164.31 -162.12) rotate(41.49)"/><rect class="cls-5" x="300.53" y="127.67" width="1.25" height="16.31" transform="translate(165.57 -165.44) rotate(41.49)"/><rect class="cls-5" x="305.23" y="128.04" width="1.25" height="16.31" transform="translate(167 -168.46) rotate(41.49)"/><rect class="cls-5" x="308.55" y="129.96" width="1.25" height="16.31" transform="translate(169.1 -170.18) rotate(41.49)"/><rect class="cls-5" x="311.89" y="131.86" width="1.25" height="16.31" transform="translate(171.2 -171.92) rotate(41.49)"/><rect class="cls-5" x="280.19" y="127.95" width="1.25" height="16.31" transform="translate(160.65 -151.89) rotate(41.49)"/><rect class="cls-5" x="275.16" y="127.95" width="1.25" height="16.31" transform="translate(159.39 -148.57) rotate(41.49)"/><rect class="cls-5" x="268.99" y="123.56" width="1.25" height="16.31" transform="translate(154.94 -145.58) rotate(41.49)"/><rect class="cls-5" x="270.06" y="128.04" width="1.25" height="16.31" transform="translate(158.17 -145.16) rotate(41.49)"/><rect class="cls-5" x="285.29" y="127.85" width="1.25" height="16.31" transform="translate(161.87 -155.3) rotate(41.49)"/><rect class="cls-5" x="289.26" y="129.05" width="1.25" height="16.31" transform="translate(163.66 -157.63) rotate(41.49)"/><rect class="cls-5" x="285.38" y="127.67" width="1.25" height="16.31" transform="translate(590.22 48.06) rotate(138.51)"/><rect class="cls-5" x="280.36" y="127.67" width="1.25" height="16.31" transform="translate(581.43 51.38) rotate(138.51)"/><rect class="cls-5" x="275.66" y="128.04" width="1.25" height="16.31" transform="translate(573.46 55.15) rotate(138.51)"/><rect class="cls-5" x="270.95" y="128.4" width="1.25" height="16.31" transform="translate(565.47 58.89) rotate(138.51)"/><rect class="cls-5" x="268.99" y="131.86" width="1.25" height="16.31" transform="translate(564.34 66.25) rotate(138.51)"/><rect class="cls-5" x="300.7" y="127.95" width="1.25" height="16.31" transform="translate(617.2 38.39) rotate(138.51)"/><rect class="cls-5" x="305.73" y="127.95" width="1.25" height="16.31" transform="translate(625.99 35.07) rotate(138.51)"/><rect class="cls-5" x="311.89" y="123.56" width="1.25" height="16.31" transform="translate(633.87 23.31) rotate(138.51)"/><rect class="cls-5" x="310.83" y="128.04" width="1.25" height="16.31" transform="translate(634.98 31.84) rotate(138.51)"/><rect class="cls-5" x="295.59" y="127.85" width="1.25" height="16.31" transform="translate(608.21 41.61) rotate(138.51)"/><rect class="cls-5" x="290.73" y="128.04" width="1.25" height="16.31" transform="translate(599.83 45.16) rotate(138.51)"/><path class="cls-5" d="M281.22,129h6V59.34H140.41V129h13.8V88.18a9.68,9.68,0,0,1,9.63-9.72,9.1,9.1,0,0,1,6.61,2.86A9.47,9.47,0,0,1,173,88.18V129h25.09V93.8c0-8.33,7.06-15.64,15.38-15.64h1.68A16,16,0,0,1,230.73,93.8V129h23.83V88.18a9.68,9.68,0,0,1,9.63-9.72,9.1,9.1,0,0,1,6.61,2.86,9.47,9.47,0,0,1,2.57,6.86V129Z"/><path class="cls-2" d="M198.12,126V93.8c0-8.33,7.06-15.64,15.38-15.64h1.68A16,16,0,0,1,230.73,93.8V126h2.51V94.37a18.62,18.62,0,0,0-5.66-13A19.2,19.2,0,0,0,214.29,76c-10.09,0-18.68,8.25-18.68,18.34V126Z"/><rect class="cls-6" x="63.51" y="185.45" width="54.33" height="71.73"/><rect class="cls-3" x="114.8" y="140.88" width="204.3" height="6.27"/><rect class="cls-4" x="69.08" y="187.33" width="31.48" height="59.18"/><rect class="cls-4" x="170.84" y="125.78" width="87.88" height="16.45"/><rect class="cls-2" x="162.96" y="121.19" width="7.89" height="21.04"/><path class="cls-7" d="M177.93,70.15V137h-5.34V88.18c0-2.67-.59-5.11-2.35-6.86a9.22,9.22,0,0,0-6.66-2.86,9.73,9.73,0,0,0-9.69,9.72V137h-5.34V70.15Z"/><path class="cls-8" d="M240.72,70.15V137h-9.35V93.8c0-8.33-7.86-15.63-16.19-15.63H213.5A16,16,0,0,0,198,93.8V137h-9.35V70.15Z"/><path class="cls-9" d="M279.46,70.15V137h-6.68V88.18c0-2.67-.51-5.11-2.27-6.86a9.31,9.31,0,0,0-6.7-2.86,9.76,9.76,0,0,0-9.73,9.72V137h-5.34V70.15Z"/><rect class="cls-5" x="97.49" y="145.17" width="20.35" height="78.37"/><rect class="cls-10" x="102.15" y="150.93" width="11.02" height="66.85"/><rect class="cls-2" x="98.59" y="141.31" width="17.12" height="3.86"/><polygon class="cls-2" points="115.69 141.31 98.59 141.31 96.45 138.71 117.84 138.71 115.69 141.31"/><rect class="cls-2" x="99.03" y="227" width="16.68" height="5.14"/><polygon class="cls-2" points="115.71 227 99.03 227 97.49 223.54 117.84 223.54 115.71 227"/><rect class="cls-6" x="96.45" y="117.28" width="21.39" height="21.43"/><path class="cls-5" d="M314.2,141V257.19h-66c0-1.25.54-3.13.54-5.12V195a33,33,0,0,0-2.9-13.16,31.14,31.14,0,0,0-6.68-9.72,31.78,31.78,0,0,0-51.88,9.72A32.38,32.38,0,0,0,184.61,195v57.07c0,2-.7,3.86-.34,5.12H117.81V141Z"/><rect class="cls-4" x="117.59" y="123.96" width="45.36" height="6.84"/><rect class="cls-4" x="98.59" y="113.61" width="17.12" height="3.67"/><polygon class="cls-4" points="115.7 113.61 98.58 113.61 95.94 108.57 118.36 108.57 115.7 113.61"/><rect class="cls-4" x="96.8" y="97.25" width="20.68" height="13.3" rx="4" ry="4"/><path class="cls-4" d="M97.8,103.9H116.5a1.86,1.86,0,0,1,1.86,1.86v2.81a0,0,0,0,1,0,0H95.93a0,0,0,0,1,0,0v-2.81A1.86,1.86,0,0,1,97.8,103.9Z"/><rect class="cls-4" x="101.7" y="93.91" width="10.9" height="3.34"/><polygon class="cls-4" points="112.6 93.91 101.7 93.91 99.14 90.56 115.15 90.56 112.6 93.91"/><rect class="cls-2" x="96.47" y="246.94" width="22.39" height="10.17"/><path class="cls-2" d="M120.54,235.65s.34-3.51-4.34-3.51H99.08c-4.68,0-4.3,3.51-4.3,3.51s-.35,3.43,4.32,3.43c.25,5.94-2.52,6.37-2.52,6.37v2h22.34v-2s-2.89-.59-2.64-6.53C121,238.93,120.54,235.65,120.54,235.65Z"/><rect class="cls-2" x="128.62" y="153.3" width="31.28" height="17.58"/><rect class="cls-2" x="128.62" y="175.88" width="31.28" height="45.89"/><rect class="cls-5" x="130.97" y="178.24" width="26.57" height="41.18"/><rect class="cls-2" x="132.74" y="181.93" width="23.04" height="33.79"/><rect class="cls-5" x="134.48" y="183.66" width="19.56" height="30.32"/><rect class="cls-5" x="130.97" y="155.41" width="26.57" height="13.36"/><rect class="cls-2" x="128.62" y="227.31" width="31.28" height="17.58"/><rect class="cls-5" x="130.97" y="229.42" width="26.57" height="13.36"/><rect class="cls-5" x="149.19" y="34.74" width="128.34" height="29.79"/><rect class="cls-6" x="155.78" y="43.18" width="24.96" height="13.22"/><rect class="cls-6" x="246.1" y="43.18" width="24.96" height="13.22"/><rect class="cls-2" x="187.05" y="43.18" width="52.65" height="13.22"/><rect class="cls-6" x="161.57" y="152.14" width="9.27" height="78.94"/><path class="cls-1" d="M151,53.75c-8.82-1.75-10.64-6.86-10.54-10.57h-8.83c.86,4.24,2.52,9.62,4.21,12.24,2.58,4,3.91,15,3.91,15,.12.92.63,2.83.63,2.83V55.57s4.25,6.45,23.86,7.17,48.27.18,48.27.18V55.57C191.22,55.57,162.84,56.09,151,53.75Z"/><path class="cls-1" d="M287.09,43.18c.1,3.71-1.72,8.82-10.54,10.57-11.81,2.34-42.68,1.82-64,1.82v7.35s31.16.53,50.77-.18,23.86-7.17,23.86-7.17V73.27s.51-1.91.63-2.83c0,0,1.33-11,3.91-15,1.68-2.63,3.35-8,4.2-12.24Z"/><path class="cls-11" d="M256.75,151.65v30.73H245.61a28.34,28.34,0,0,0-6.57-10A31.51,31.51,0,0,0,216.42,163a31.06,31.06,0,0,0-29.33,19.37H172.59V151.65Z"/><path class="cls-6" d="M241,169.38a34.58,34.58,0,0,0-59.11,24.54v61.2c0,.75-.18.81-.18,2.07h2.51c0-1.25.34-4.42.34-5.12V195a32.06,32.06,0,1,1,64.13,0v57.07c0,2-.53,3.86-.53,5.12h3.21V193.91A34.8,34.8,0,0,0,241,169.38Z"/><rect class="cls-6" x="118.05" y="250.23" width="196.73" height="6.96"/><rect class="cls-4" x="63.51" y="178.24" width="33.74" height="7.22"/><path class="cls-6" d="M64.37,162.33v94.85H45.67V198.71a10.45,10.45,0,0,0-2.89-7.46,9.78,9.78,0,0,0-7.11-3.1c-5.81,0-10,4.75-10,10.56v58.48H6.93V162.33Z"/><path class="cls-12" d="M49.68,182.37v73.48h-4V198.71a10.45,10.45,0,0,0-2.89-7.46,9.78,9.78,0,0,0-7.11-3.1c-5.81,0-10,4.75-10,10.56v57.14h-4V182.37Z"/><rect class="cls-2" x="21.24" y="167.02" width="28.85" height="12.66"/><rect class="cls-5" x="24.54" y="169.46" width="22.25" height="7.78"/><rect class="cls-6" x="314.17" y="185.45" width="54.65" height="71.73" transform="translate(682.98 442.64) rotate(-180)"/><rect class="cls-4" x="265.44" y="123.96" width="49.91" height="6.84" transform="translate(580.78 254.75) rotate(-180)"/><rect class="cls-4" x="331.77" y="187.33" width="31.48" height="59.18" transform="translate(695.02 433.84) rotate(-180)"/><rect class="cls-2" x="258.72" y="121.19" width="7.89" height="21.04" transform="translate(525.33 263.43) rotate(-180)"/><rect class="cls-5" x="314.17" y="145.17" width="20.35" height="78.37" transform="translate(648.69 368.71) rotate(-180)"/><rect class="cls-10" x="318.83" y="150.93" width="11.02" height="66.85" transform="translate(648.69 368.71) rotate(-180)"/><rect class="cls-2" x="316.3" y="141.31" width="17.12" height="3.86" transform="translate(649.72 286.48) rotate(-180)"/><polygon class="cls-2" points="316.31 141.31 333.42 141.31 335.56 138.71 314.17 138.71 316.31 141.31"/><rect class="cls-2" x="316.3" y="227" width="16.68" height="5.14" transform="translate(649.28 459.15) rotate(-180)"/><polygon class="cls-2" points="316.3 227 332.98 227 334.52 223.54 314.17 223.54 316.3 227"/><rect class="cls-6" x="314.17" y="117.28" width="21.39" height="21.43" transform="translate(649.73 256) rotate(-180)"/><rect class="cls-4" x="316.3" y="113.61" width="17.12" height="3.67" transform="translate(649.72 230.89) rotate(-180)"/><polygon class="cls-4" points="316.31 113.61 333.42 113.61 336.07 108.57 313.64 108.57 316.31 113.61"/><rect class="cls-4" x="314.53" y="97.25" width="20.68" height="13.3" rx="4" ry="4" transform="translate(649.73 207.8) rotate(180)"/><path class="cls-4" d="M313.64,103.9h22.43a0,0,0,0,1,0,0v2.81a1.86,1.86,0,0,1-1.86,1.86H315.5a1.86,1.86,0,0,1-1.86-1.86V103.9a0,0,0,0,1,0,0Z" transform="translate(649.71 212.47) rotate(180)"/><rect class="cls-4" x="319.41" y="93.91" width="10.9" height="3.34" transform="translate(649.71 191.16) rotate(-180)"/><polygon class="cls-4" points="319.41 93.91 330.31 93.91 332.86 90.56 316.85 90.56 319.41 93.91"/><rect class="cls-2" x="313.15" y="246.94" width="22.39" height="10.25" transform="translate(648.69 504.12) rotate(-180)"/><path class="cls-2" d="M311.47,235.65s-.34-3.51,4.34-3.51h17.12c4.68,0,4.3,3.51,4.3,3.51s.35,3.43-4.32,3.43c-.25,5.94,2.52,6.37,2.52,6.37v2H313.08v-2s2.89-.59,2.64-6.53C311,238.93,311.47,235.65,311.47,235.65Z"/><rect class="cls-2" x="273.04" y="153.3" width="31.28" height="17.58" transform="translate(577.36 324.18) rotate(-180)"/><rect class="cls-2" x="273.04" y="175.88" width="31.28" height="45.89" transform="translate(577.36 397.65) rotate(-180)"/><rect class="cls-5" x="275.4" y="178.24" width="26.57" height="41.18" transform="translate(577.36 397.65) rotate(-180)"/><rect class="cls-2" x="277.16" y="181.93" width="23.04" height="33.79" transform="translate(577.36 397.65) rotate(-180)"/><rect class="cls-5" x="278.9" y="183.66" width="19.56" height="30.32" transform="translate(577.36 397.65) rotate(-180)"/><rect class="cls-5" x="275.4" y="155.41" width="26.57" height="13.36" transform="translate(577.36 324.18) rotate(-180)"/><rect class="cls-2" x="273.04" y="227.31" width="31.28" height="17.58" transform="translate(577.36 472.21) rotate(-180)"/><rect class="cls-5" x="275.4" y="229.42" width="26.57" height="13.36" transform="translate(577.36 472.21) rotate(-180)"/><rect class="cls-6" x="258.03" y="152.14" width="9.27" height="78.94" transform="translate(525.33 383.22) rotate(-180)"/><rect class="cls-4" x="335.08" y="178.24" width="33.74" height="7.22" transform="translate(703.9 363.69) rotate(-180)"/><path class="cls-6" d="M368.36,162.33v94.85h17.37V198.71a11,11,0,0,1,10.91-10.56,10.52,10.52,0,0,1,10.47,10.56v58.48h17.37V162.33Z"/><path class="cls-13" d="M381.71,182.37v73.48h4V198.71a11,11,0,0,1,10.91-10.56,10.52,10.52,0,0,1,10.47,10.56v57.14h4V182.37Z"/><rect class="cls-6" x="382.23" y="167.02" width="28.85" height="12.66" transform="translate(793.31 346.71) rotate(-180)"/><rect class="cls-2" x="385.53" y="169.46" width="22.25" height="7.78" transform="translate(793.31 346.71) rotate(-180)"/><path class="cls-4" d="M227.63,27.84c-.15-1.81-1.94-2.49-3.84-2.6s-2.19,1.11-3.09,1.39-1.72.1-1.9-.72,2-1.39,2.7-2.78a2.66,2.66,0,0,0-.33-3.11c-.42-.18-.95-.31-1-.88s-.35-.55-.84-.71-.35-.49,0-1.41a6,6,0,0,0,.66-2.28c-.07-.6-.6-1-.71-1.48s-.44,0-.51.75a2.24,2.24,0,0,1-.38,1.41c-.38.6-.62.22-1.22,1.06s-.33,1.13-.77,1.37-.73-.38-.49-1a1.24,1.24,0,0,0-.09-1.3c-.22-.4-.27-.51-.51.27s-1.06.51-1.39-.11.24-1.46,0-2a3.61,3.61,0,0,1-.75-2.45c0-1-.15-1-.38-1.37s.07-1-.46-.91-.22,1.33-.33,2.21-.73,1.28-.84,2,.29.91.35,1.35-.51.68-.62,1.17.18.73-.33.8-.62-.51-.71-.75.29-.68-.32-.38-.53,2.05-.79,2.21-.81-.36-1-1.46-1.34-1.66-1.7-2.41-.24-1.78-.91-.79.51,4.14.24,5.05-2.25,2.21-1.78,4.26a6,6,0,0,0,1.89,3.16c.55.32,1.07.35,1.07.83s-.51.75-1.5.59-2.29-2.13-5-1.14-3.63,4.33-3.63,4.33l.32,1.49h30.88A23.51,23.51,0,0,0,227.63,27.84Zm-15-2.25a3.08,3.08,0,1,1,3.08-3.08A3.08,3.08,0,0,1,212.63,25.59Z"/><ellipse class="cls-4" cx="167.16" cy="11.34" rx="6.56" ry="4.52"/><path class="cls-4" d="M164.35,13.13s.61.07-.49,4.54-1,6,.66,7.74,5.11,5.07,9.19,5.07c3,0,18.55.49,25,0,2.32-.18.76-1.71.76-1.71s-27.25-2.28-27.63-9.34c.3-3.08,2.18-4.49,1.91-8.1"/><ellipse class="cls-4" cx="174.37" cy="25.23" rx="6.64" ry="4.6"/><path class="cls-4" d="M180.41,24.73s2-2.2,1.46-3.1c-.23-.24-.12.2-.86.4a1.49,1.49,0,0,1-1.8-.52,3.66,3.66,0,0,1-.5-1.81c.07-.6-.52-.09-.67.47a3.29,3.29,0,0,0,0,2.34A12.2,12.2,0,0,0,180.41,24.73Z"/><path class="cls-4" d="M173.72,21.58s-.72-3.27-.38-4.34.72-1.43,1.25-1.37.42.6.16.78a.79.79,0,0,0-.37.91,9.43,9.43,0,0,0,.49.88s.14.33.44,0,.09-.54.47-.76.88,0,.67.4a2.05,2.05,0,0,0-.25,1.33c.07.54.7.18.81.45a4.15,4.15,0,0,1-.14,1.69C176.77,21.59,173.72,21.58,173.72,21.58Z"/><ellipse class="cls-4" cx="261.13" cy="11.34" rx="6.56" ry="4.52"/><path class="cls-4" d="M263.94,13.13s-.61.07.49,4.54,1,6-.66,7.74-5.11,5.07-9.19,5.07c-3,0-18.55.49-25,0-2.32-.18-.76-1.71-.76-1.71s27.25-2.28,27.63-9.34c-.3-3.08-2.18-4.49-1.91-8.1"/><ellipse class="cls-4" cx="253.92" cy="25.23" rx="6.64" ry="4.6"/><path class="cls-4" d="M247.88,24.73s-2-2.2-1.46-3.1c.23-.24.12.2.86.4a1.49,1.49,0,0,0,1.8-.52,3.66,3.66,0,0,0,.5-1.81c-.07-.6.52-.09.67.47a3.29,3.29,0,0,1,0,2.34A12.2,12.2,0,0,1,247.88,24.73Z"/><path class="cls-4" d="M254.57,21.58s.72-3.27.38-4.34-.72-1.43-1.25-1.37-.42.6-.16.78a.79.79,0,0,1,.37.91,9.43,9.43,0,0,1-.49.88s-.14.33-.44,0-.09-.54-.47-.76-.88,0-.67.4a2.05,2.05,0,0,1,.25,1.33c-.07.54-.7.18-.81.45a4.15,4.15,0,0,0,.14,1.69C251.53,21.59,254.57,21.58,254.57,21.58Z"/><path class="cls-4" d="M139.79,74.2s-1.33-11-3.91-15-5.13-14.53-4.76-17.48,2.78-6.48,6.1-5.87,5,5.06,3.85,8-1.84,11.32,10,13.66,40.18,1.82,61.51,1.82v7.35s-28.66.53-48.27-.18-23.86-7.17-23.86-7.17V77S139.91,75.12,139.79,74.2Z"/><path class="cls-4" d="M287.8,74.2s1.33-11,3.91-15,5.13-14.53,4.76-17.48-2.78-6.48-6.1-5.87-5,5.06-3.85,8,1.84,11.32-10,13.66-42.68,1.82-64,1.82v7.35s31.16.53,50.77-.18,23.86-7.17,23.86-7.17V77S287.68,75.12,287.8,74.2Z"/><path class="cls-1" d="M158.63,27.41c-7.75-1.75-9.35-6.86-9.25-10.57h-7.75c.75,4.24,2.22,9.62,3.69,12.24,2.27,4,3.43,15,3.43,15,.11.92.55,2.83.55,2.83V29.23s3.73,6.45,21,7.17,42.38.18,42.38.18V29.23C193.91,29.23,169,29.74,158.63,27.41Z"/><path class="cls-1" d="M278.08,16.84c.09,3.71-1.51,8.82-9.25,10.57-10.37,2.34-37.47,1.82-56.2,1.82v7.35s27.36.53,44.57-.18,21-7.17,21-7.17V46.92s.44-1.91.55-2.83c0,0,1.17-11,3.43-15,1.48-2.63,2.94-8,3.69-12.24Z"/><path class="cls-4" d="M148.75,47.86s-1.38-8-2.79-13a23.12,23.12,0,0,1-.75-3.9c-1-9.4-8.22-16.51-7.92-19.28,8.33,2.5,7.14,1,10.06,1.61.89,1,1.18,1.19,1.85,4,.65,3.07-.93,11.56,9.43,13.9s35.28,1.82,54,1.82v7.35s-25.16.53-42.38-.18-21.06-5.42-21.06-5.42l.1,15.95S148.86,48.78,148.75,47.86Z"/><path class="cls-4" d="M278,47.86s1.38-8,2.79-13a23.12,23.12,0,0,0,.75-3.9c1-9.4,8.22-16.51,7.92-19.28-8.33,2.5-7.14,1-10.06,1.61-.89,1-1.18,1.19-1.85,4-.65,3.07.93,11.56-9.43,13.9S231.35,33,212.63,33v7.35s26.69.53,43.91-.18,21.06-5.42,21.06-5.42l-.1,15.95S277.93,48.78,278,47.86Z"/><path class="cls-3" d="M212.63,18.65a3.87,3.87,0,1,0,3.87,3.87A3.87,3.87,0,0,0,212.63,18.65Zm0,6.95a3.08,3.08,0,1,1,3.08-3.08A3.08,3.08,0,0,1,212.63,25.59Z"/></svg>