<svg id="Layer_1" data-name="Layer 1" xmlns="http://www.w3.org/2000/svg" xmlns:xlink="http://www.w3.org/1999/xlink" viewBox="0 0 374 284"><defs><style>.cls-1{fill:#3d3d3d;}.cls-2{fill:#213b5c;}.cls-3{fill:#475c78;}.cls-4{fill:#61748b;}.cls-5{fill:url(#linear-gradient);}.cls-6{fill:#1a1a1a;}.cls-7{fill:#202020;}</style><linearGradient id="linear-gradient" x1="187" y1="52.44" x2="187" y2="46.58" gradientUnits="userSpaceOnUse"><stop offset="0" stop-color="#61748b" stop-opacity="0"/><stop offset="0.18" stop-color="#5c7087" stop-opacity="0.08"/><stop offset="0.43" stop-color="#4e637d" stop-opacity="0.29"/><stop offset="0.74" stop-color="#384f6d" stop-opacity="0.65"/><stop offset="1" stop-color="#213b5c"/></linearGradient></defs><title>hanoi</title><rect class="cls-1" x="93.9" y="41.64" width="187.01" height="118.39"/><rect class="cls-2" x="42.95" y="152.73" width="288.11" height="14.59"/><rect class="cls-3" x="4.65" y="167.32" width="364.7" height="112.04"/><rect class="cls-4" x="293.36" y="52.44" width="14.59" height="100.29"/><rect class="cls-4" x="247.78" y="52.44" width="14.59" height="100.29"/><rect class="cls-4" x="202.19" y="52.44" width="14.59" height="100.29"/><rect class="cls-4" x="156.6" y="52.44" width="14.59" height="100.29"/><rect class="cls-4" x="111.01" y="52.44" width="14.59" height="100.29"/><rect class="cls-4" x="65.43" y="52.44" width="14.59" height="100.29"/><rect class="cls-4" x="61.64" y="46.58" width="250.73" height="5.86"/><rect class="cls-5" x="61.64" y="46.58" width="250.73" height="5.86"/><polygon class="cls-4" points="51.15 18.32 322.85 18.32 314.64 46.58 59.36 46.58 51.15 18.32"/><rect class="cls-3" x="77.59" y="13.76" width="218.82" height="4.56"/><rect class="cls-4" x="107.22" y="6.47" width="159.55" height="7.29"/><rect class="cls-2" x="107.22" y="4.64" width="159.55" height="1.82"/><rect class="cls-2" x="4.65" y="167.32" width="364.7" height="29.18"/><rect class="cls-6" x="130.92" y="224.15" width="115.02" height="55.21"/><rect class="cls-7" x="145.66" y="224.15" width="85.54" height="55.21"/><rect class="cls-1" x="160.03" y="224.15" width="56.81" height="55.21"/><rect class="cls-4" x="173.84" y="233.44" width="29.18" height="45.92"/><rect class="cls-1" x="188.29" y="232.88" width="0.29" height="46.48"/><path class="cls-2" d="M133.89,33.39v9.44h-1.58V38.89h-3.93v3.94H126.8V33.39h1.58V37.3h3.93V33.39Z"/><path class="cls-2" d="M146.2,38.11a4.71,4.71,0,1,1-4.72-4.72A4.71,4.71,0,0,1,146.2,38.11Zm-1.58,0a3.14,3.14,0,1,0-3.14,3.14A3.14,3.14,0,0,0,144.62,38.11Z"/><path class="cls-2" d="M160.77,40.48h-6.23V38.92h6.23Z"/><path class="cls-2" d="M175.69,40.33l1.11,1.12a4.73,4.73,0,1,1,0-6.68l-1.11,1.11a3.14,3.14,0,1,0,0,4.45Z"/><path class="cls-2" d="M186,33.39v9.44h-1.58V38.89h-3.93v3.94H179V33.39h1.58V37.3h3.93V33.39Z"/><path class="cls-2" d="M188.65,33.39h1.58v9.44h-1.58Z"/><path class="cls-2" d="M204.79,40.48h-6.23V38.92h6.23Z"/><path class="cls-2" d="M223,42.83h-1.58V37l-2.71,5.8h-1.48l-2.89-5.92v5.92h-1.58V33.37h1.6L218,40.73l3.44-7.35H223Z"/><path class="cls-2" d="M225.84,33.39h1.58v9.44h-1.58Z"/><path class="cls-2" d="M236.34,42.83l-4.69-6.72v6.72h-1.58V33.39h1.59l4.71,6.72V33.39h1.56v9.44Z"/><path class="cls-2" d="M248.21,33.39v9.44h-1.58V38.89H242.7v3.94h-1.58V33.39h1.58V37.3h3.93V33.39Z"/><circle class="cls-2" cx="226.63" cy="31.19" r="0.79"/><path class="cls-2" d="M163.42,27.37l.67.68a2.88,2.88,0,1,1,0-4.06l-.67.67a1.91,1.91,0,1,0,0,2.71Z"/><path class="cls-2" d="M171.83,23.14v5.75h-1v-2.4h-2.39v2.4h-1V23.14h1v2.38h2.39V23.14Z"/><path class="cls-2" d="M176,27.67a2.89,2.89,0,0,1-.29-1.17V23.14h1v3.35a1.86,1.86,0,0,0,.2.77,1.27,1.27,0,0,0,1.23.67,1.26,1.26,0,0,0,1.23-.67,2,2,0,0,0,.21-.77V23.14h1v3.35a2.89,2.89,0,0,1-.29,1.17,2.42,2.42,0,0,1-4.21,0Z"/><path class="cls-2" d="M193.54,24.1H192.1v4.79h-1V24.1h-1.44v-1h3.83Z"/><path class="cls-2" d="M197.25,23.14h1v5.75h-1Z"/><path class="cls-2" d="M205.91,27.37l.67.68a2.88,2.88,0,1,1,0-4.06l-.67.67a1.91,1.91,0,1,0,0,2.71Z"/><path class="cls-2" d="M214.32,23.14v5.75h-1v-2.4H211v2.4h-1V23.14h1v2.38h2.39V23.14Z"/><circle class="cls-2" cx="197.73" cy="21.87" r="0.48"/><circle class="cls-2" cx="197.73" cy="30.99" r="0.48"/></svg>