<svg id="Layer_1" data-name="Layer 1" xmlns="http://www.w3.org/2000/svg" viewBox="0 0 460 460"><defs><style>.cls-1{fill:#b35959;}.cls-2{fill:#ebb162;}.cls-3{fill:#ab4747;}.cls-4{fill:#b45c5c;}.cls-5{fill:#9d2929;}.cls-6{fill:#f5d9b2;}.cls-7{fill:#8a0000;}.cls-8{fill:#f8e5cb;}.cls-9{fill:#b25757;}.cls-10{fill:#ecb66d;}</style></defs><title>istanbul</title><rect class="cls-1" x="227.95" y="179.74" width="3.19" height="56.69"/><rect class="cls-2" x="116.41" y="247.72" width="226.99" height="159.69"/><rect class="cls-3" x="39.98" y="151.9" width="20.76" height="255.5"/><rect class="cls-4" x="95.87" y="151.9" width="20.76" height="255.5"/><rect class="cls-2" x="60.74" y="151.9" width="35.13" height="255.5"/><rect class="cls-5" x="36.79" y="244.52" width="83.04" height="3.19"/><polygon class="cls-6" points="39.98 151.4 78.31 52.59 60.74 151.4 39.98 151.4"/><polygon class="cls-7" points="116.63 151.4 78.31 52.59 95.87 151.4 116.63 151.4"/><polygon class="cls-8" points="60.74 151.4 95.87 151.4 78.31 52.59 60.74 151.4"/><rect class="cls-5" x="36.79" y="151.34" width="83.04" height="3.19"/><path class="cls-1" d="M74.32,174.51V167c0-2.8,1.54-5.08,4-5.08s4,2.28,4,5.08v7.5Z"/><path class="cls-1" d="M103.06,174.51V167c0-2.8,1.54-5.08,4-5.08s4,2.28,4,5.08v7.5Z"/><rect class="cls-5" x="36.76" y="181.68" width="83.04" height="6.39"/><path class="cls-3" d="M48.72,188v.06H44V188c0-1.72.89-3.13,2.36-3.13S48.72,186.28,48.72,188Z"/><path class="cls-3" d="M59.51,188v.06H54.82V188c0-1.72.89-3.13,2.36-3.13S59.51,186.28,59.51,188Z"/><path class="cls-2" d="M70.31,188v.06H65.62V188c0-1.72.89-3.13,2.36-3.13S70.31,186.28,70.31,188Z"/><path class="cls-2" d="M81.11,188v.06H76.41V188c0-1.72.89-3.13,2.36-3.13S81.11,186.28,81.11,188Z"/><path class="cls-2" d="M91.9,188v.06H87.21V188c0-1.72.89-3.13,2.36-3.13S91.9,186.28,91.9,188Z"/><path class="cls-4" d="M102.7,188v.06H98V188c0-1.72.89-3.13,2.36-3.13S102.7,186.28,102.7,188Z"/><path class="cls-4" d="M113.49,188v.06H108.8V188c0-1.72.89-3.13,2.36-3.13S113.49,186.28,113.49,188Z"/><path class="cls-1" d="M45.57,174.51V167c0-2.8,1.54-5.08,4-5.08s4,2.28,4,5.08v7.5Z"/><rect class="cls-1" x="107.78" y="210.27" width="1.12" height="9.3"/><rect class="cls-1" x="77.75" y="210.27" width="1.12" height="9.3"/><rect class="cls-1" x="49.24" y="210.27" width="1.12" height="9.3"/><rect class="cls-1" x="107.78" y="274.14" width="1.12" height="9.3"/><rect class="cls-1" x="77.75" y="274.14" width="1.12" height="9.3"/><rect class="cls-1" x="49.24" y="274.14" width="1.12" height="9.3"/><rect class="cls-1" x="107.78" y="318.86" width="1.12" height="9.3"/><rect class="cls-1" x="77.75" y="318.86" width="1.12" height="9.3"/><rect class="cls-1" x="49.24" y="318.86" width="1.12" height="9.3"/><rect class="cls-1" x="107.78" y="363.57" width="1.12" height="9.3"/><rect class="cls-1" x="77.75" y="363.57" width="1.12" height="9.3"/><rect class="cls-1" x="49.24" y="363.57" width="1.12" height="9.3"/><rect class="cls-3" x="116.4" y="224.24" width="3.2" height="19.16"/><rect class="cls-3" x="126.89" y="224.24" width="16.02" height="19.16"/><rect class="cls-3" x="150.59" y="224.24" width="16.02" height="19.16"/><rect class="cls-3" x="174.29" y="224.24" width="16.02" height="19.16"/><rect class="cls-3" x="197.99" y="224.24" width="16.02" height="19.16"/><rect class="cls-3" x="221.69" y="224.24" width="16.02" height="19.16"/><rect class="cls-3" x="245.39" y="224.24" width="16.02" height="19.16"/><rect class="cls-3" x="269.09" y="224.24" width="16.02" height="19.16"/><rect class="cls-3" x="292.79" y="224.24" width="16.02" height="19.16"/><rect class="cls-3" x="316.49" y="224.24" width="16.02" height="19.16"/><rect class="cls-3" x="340.19" y="224.24" width="3.2" height="19.16"/><rect class="cls-3" x="126.89" y="221.42" width="0.89" height="2.83"/><rect class="cls-3" x="118.71" y="221.41" width="0.89" height="2.83"/><rect class="cls-3" x="142.02" y="221.42" width="0.89" height="2.83"/><rect class="cls-3" x="150.59" y="221.42" width="0.89" height="2.83"/><rect class="cls-3" x="165.72" y="221.42" width="0.89" height="2.83"/><rect class="cls-3" x="174.29" y="221.42" width="0.89" height="2.83"/><rect class="cls-3" x="189.42" y="221.42" width="0.89" height="2.83"/><rect class="cls-3" x="197.99" y="221.42" width="0.89" height="2.83"/><rect class="cls-3" x="213.12" y="221.42" width="0.89" height="2.83"/><rect class="cls-3" x="221.69" y="221.42" width="0.89" height="2.83"/><rect class="cls-3" x="236.82" y="221.42" width="0.89" height="2.83"/><rect class="cls-3" x="245.39" y="221.42" width="0.89" height="2.83"/><rect class="cls-3" x="260.52" y="221.42" width="0.89" height="2.83"/><rect class="cls-3" x="269.09" y="221.42" width="0.89" height="2.83"/><rect class="cls-3" x="284.22" y="221.42" width="0.89" height="2.83"/><rect class="cls-3" x="292.79" y="221.42" width="0.89" height="2.83"/><rect class="cls-3" x="307.92" y="221.42" width="0.89" height="2.83"/><rect class="cls-3" x="316.49" y="221.42" width="0.89" height="2.83"/><rect class="cls-3" x="331.62" y="221.42" width="0.89" height="2.83"/><rect class="cls-3" x="340.19" y="221.42" width="0.89" height="2.83"/><rect class="cls-7" x="116.61" y="242.92" width="83.3" height="9.02"/><path class="cls-2" d="M125.19,252.38v.1H120v-.1c0-2.58,1-4.68,2.6-4.68S125.19,249.8,125.19,252.38Z"/><path class="cls-2" d="M137.07,252.38v.1h-5.17v-.1c0-2.58,1-4.68,2.6-4.68S137.07,249.8,137.07,252.38Z"/><path class="cls-2" d="M149,252.38v.1h-5.17v-.1c0-2.58,1-4.68,2.6-4.68S149,249.8,149,252.38Z"/><path class="cls-2" d="M160.84,252.38v.1h-5.17v-.1c0-2.58,1-4.68,2.6-4.68S160.84,249.8,160.84,252.38Z"/><path class="cls-2" d="M172.72,252.38v.1h-5.17v-.1c0-2.58,1-4.68,2.6-4.68S172.72,249.8,172.72,252.38Z"/><path class="cls-2" d="M184.61,252.38v.1h-5.17v-.1c0-2.58,1-4.68,2.6-4.68S184.61,249.8,184.61,252.38Z"/><path class="cls-2" d="M196.49,252.38v.1h-5.17v-.1c0-2.58,1-4.68,2.6-4.68S196.49,249.8,196.49,252.38Z"/><rect class="cls-7" x="199.9" y="242.94" width="83.3" height="9.02"/><path class="cls-2" d="M208.49,252.4v.1h-5.17v-.1c0-2.58,1-4.68,2.6-4.68S208.49,249.82,208.49,252.4Z"/><path class="cls-2" d="M220.37,252.4v.1H215.2v-.1c0-2.58,1-4.68,2.6-4.68S220.37,249.82,220.37,252.4Z"/><path class="cls-2" d="M232.25,252.4v.1h-5.17v-.1c0-2.58,1-4.68,2.6-4.68S232.25,249.82,232.25,252.4Z"/><path class="cls-2" d="M244.14,252.4v.1H239v-.1c0-2.58,1-4.68,2.6-4.68S244.14,249.82,244.14,252.4Z"/><path class="cls-2" d="M256,252.4v.1h-5.17v-.1c0-2.58,1-4.68,2.6-4.68S256,249.82,256,252.4Z"/><path class="cls-2" d="M267.9,252.4v.1h-5.17v-.1c0-2.58,1-4.68,2.6-4.68S267.9,249.82,267.9,252.4Z"/><path class="cls-2" d="M279.79,252.4v.1h-5.17v-.1c0-2.58,1-4.68,2.6-4.68S279.79,249.82,279.79,252.4Z"/><rect class="cls-7" x="282.99" y="242.94" width="60.4" height="9.02"/><path class="cls-2" d="M291.58,252.4v.1h-5.17v-.1c0-2.58,1-4.68,2.6-4.68S291.58,249.82,291.58,252.4Z"/><path class="cls-2" d="M303.46,252.4v.1h-5.17v-.1c0-2.58,1-4.68,2.6-4.68S303.46,249.82,303.46,252.4Z"/><path class="cls-2" d="M315.34,252.4v.1h-5.17v-.1c0-2.58,1-4.68,2.6-4.68S315.34,249.82,315.34,252.4Z"/><path class="cls-2" d="M327.23,252.4v.1h-5.17v-.1c0-2.58,1-4.68,2.6-4.68S327.23,249.82,327.23,252.4Z"/><path class="cls-2" d="M339.11,252.4v.1h-5.17v-.1c0-2.58,1-4.68,2.6-4.68S339.11,249.82,339.11,252.4Z"/><rect class="cls-1" x="134.57" y="232.34" width="1.13" height="8.01"/><rect class="cls-1" x="182.13" y="232.42" width="1.13" height="8.01"/><rect class="cls-1" x="229.34" y="232.34" width="1.13" height="8.01"/><rect class="cls-1" x="276.77" y="232.34" width="1.13" height="8.01"/><rect class="cls-1" x="324.29" y="232.34" width="1.13" height="8.01"/><rect class="cls-5" x="231.5" y="179.74" width="19.35" height="13.81"/><path class="cls-7" d="M284.16,407.39V334.86a54.61,54.61,0,0,0-109.22,0v72.54Z"/><path class="cls-9" d="M255.1,407.39V349.6c0-12.33-10.38-21-22.71-21h-5.68c-12.33,0-22.71,8.64-22.71,21v57.79Z"/><path class="cls-5" d="M248.75,407.39c0-.08,0-.16,0-.24V351.38a16,16,0,0,0-16-16h-5.7a16,16,0,0,0-16,16v55.77c0,.08,0,.16,0,.24Z"/><rect class="cls-1" x="185.87" y="349.53" width="14.36" height="23.54"/><rect class="cls-1" x="258.86" y="349.53" width="14.36" height="23.54"/><rect class="cls-1" x="204" y="303.31" width="50.83" height="15.95"/><ellipse class="cls-1" cx="229.9" cy="328.15" rx="8.44" ry="5.81"/><rect class="cls-10" x="41.75" y="198.99" width="7.64" height="1.87"/><rect class="cls-10" x="67.51" y="225.9" width="7.64" height="1.87"/><rect class="cls-10" x="71.33" y="228.38" width="7.64" height="1.87"/><rect class="cls-10" x="85.47" y="214.64" width="7.64" height="1.87"/><rect class="cls-10" x="99.72" y="291.27" width="7.64" height="1.87"/><rect class="cls-10" x="107.78" y="291.27" width="7.64" height="1.87"/><rect class="cls-10" x="103.96" y="288.97" width="7.64" height="1.87"/><rect class="cls-10" x="65.32" y="336.56" width="7.64" height="1.87"/><rect class="cls-10" x="73.38" y="336.56" width="7.64" height="1.87"/><rect class="cls-10" x="69.56" y="334.26" width="7.64" height="1.87"/><rect class="cls-10" x="99.94" y="386.77" width="7.64" height="1.87"/><rect class="cls-10" x="107.99" y="386.77" width="7.64" height="1.87"/><rect class="cls-10" x="104.18" y="384.47" width="7.64" height="1.87"/><rect class="cls-10" x="85.17" y="297.1" width="7.64" height="1.87"/><rect class="cls-10" x="81.35" y="294.8" width="7.64" height="1.87"/><rect class="cls-10" x="81.35" y="271.1" width="7.64" height="1.87"/><rect class="cls-10" x="64.22" y="254.22" width="7.64" height="1.87"/><rect class="cls-10" x="65.74" y="256.77" width="7.64" height="1.87"/><rect class="cls-3" x="343.39" y="151.9" width="20.76" height="255.5"/><rect class="cls-4" x="399.28" y="151.9" width="20.76" height="255.5"/><rect class="cls-2" x="364.15" y="151.9" width="35.13" height="255.5"/><rect class="cls-5" x="340.2" y="244.52" width="83.04" height="3.19"/><polygon class="cls-6" points="343.39 151.4 381.72 52.59 364.15 151.4 343.39 151.4"/><polygon class="cls-7" points="420.05 151.4 381.72 52.59 399.29 151.4 420.05 151.4"/><polygon class="cls-8" points="364.15 151.4 399.29 151.4 381.72 52.59 364.15 151.4"/><rect class="cls-5" x="340.2" y="151.34" width="83.04" height="3.19"/><path class="cls-1" d="M377.73,174.51V167c0-2.8,1.54-5.08,4-5.08s4,2.28,4,5.08v7.5Z"/><path class="cls-1" d="M406.47,174.51V167c0-2.8,1.54-5.08,4-5.08s4,2.28,4,5.08v7.5Z"/><rect class="cls-5" x="340.17" y="181.68" width="83.04" height="6.39"/><path class="cls-3" d="M352.13,188v.06h-4.69V188c0-1.72.89-3.13,2.36-3.13S352.13,186.28,352.13,188Z"/><path class="cls-3" d="M362.93,188v.06h-4.69V188c0-1.72.89-3.13,2.36-3.13S362.93,186.28,362.93,188Z"/><path class="cls-2" d="M373.72,188v.06H369V188c0-1.72.89-3.13,2.36-3.13S373.72,186.28,373.72,188Z"/><path class="cls-2" d="M384.52,188v.06h-4.69V188c0-1.72.89-3.13,2.36-3.13S384.52,186.28,384.52,188Z"/><path class="cls-2" d="M395.31,188v.06h-4.69V188c0-1.72.89-3.13,2.36-3.13S395.31,186.28,395.31,188Z"/><path class="cls-4" d="M406.11,188v.06h-4.69V188c0-1.72.89-3.13,2.36-3.13S406.11,186.28,406.11,188Z"/><path class="cls-4" d="M416.9,188v.06h-4.69V188c0-1.72.89-3.13,2.36-3.13S416.9,186.28,416.9,188Z"/><path class="cls-1" d="M349,174.51V167c0-2.8,1.54-5.08,4-5.08s4,2.28,4,5.08v7.5Z"/><rect class="cls-1" x="411.19" y="210.27" width="1.12" height="9.3"/><rect class="cls-1" x="381.16" y="210.27" width="1.12" height="9.3"/><rect class="cls-1" x="352.65" y="210.27" width="1.12" height="9.3"/><rect class="cls-1" x="411.19" y="274.14" width="1.12" height="9.3"/><rect class="cls-1" x="381.16" y="274.14" width="1.12" height="9.3"/><rect class="cls-1" x="352.65" y="274.14" width="1.12" height="9.3"/><rect class="cls-1" x="411.19" y="318.86" width="1.12" height="9.3"/><rect class="cls-1" x="381.16" y="318.86" width="1.12" height="9.3"/><rect class="cls-1" x="352.65" y="318.86" width="1.12" height="9.3"/><rect class="cls-1" x="411.19" y="363.57" width="1.12" height="9.3"/><rect class="cls-1" x="381.16" y="363.57" width="1.12" height="9.3"/><rect class="cls-1" x="352.65" y="363.57" width="1.12" height="9.3"/><rect class="cls-10" x="345.16" y="198.99" width="7.64" height="1.87"/><rect class="cls-10" x="370.92" y="225.9" width="7.64" height="1.87"/><rect class="cls-10" x="374.74" y="228.38" width="7.64" height="1.87"/><rect class="cls-10" x="388.89" y="214.64" width="7.64" height="1.87"/><rect class="cls-10" x="345.93" y="266.89" width="7.64" height="1.87"/><rect class="cls-10" x="353.98" y="266.89" width="7.64" height="1.87"/><rect class="cls-10" x="350.17" y="264.59" width="7.64" height="1.87"/><rect class="cls-10" x="368.73" y="336.56" width="7.64" height="1.87"/><rect class="cls-10" x="376.79" y="336.56" width="7.64" height="1.87"/><rect class="cls-10" x="403.35" y="386.77" width="7.64" height="1.87"/><rect class="cls-10" x="407.59" y="384.47" width="7.64" height="1.87"/><rect class="cls-10" x="388.58" y="297.1" width="7.64" height="1.87"/><rect class="cls-10" x="384.76" y="294.8" width="7.64" height="1.87"/><rect class="cls-10" x="384.76" y="271.1" width="7.64" height="1.87"/><rect class="cls-10" x="402.6" y="252" width="7.64" height="1.87"/><rect class="cls-10" x="404.12" y="254.56" width="7.64" height="1.87"/></svg>