<?xml version="1.0" encoding="utf-8"?>
<!-- Generator: Adobe Illustrator 20.1.0, SVG Export Plug-In . SVG Version: 6.00 Build 0)  -->
<!DOCTYPE svg PUBLIC "-//W3C//DTD SVG 1.1//EN" "http://www.w3.org/Graphics/SVG/1.1/DTD/svg11.dtd">
<svg version="1.1" id="Layer_1" xmlns="http://www.w3.org/2000/svg" xmlns:xlink="http://www.w3.org/1999/xlink" x="0px" y="0px"
	 viewBox="0 0 386.4 354.8" style="enable-background:new 0 0 386.4 354.8;" xml:space="preserve">
<style type="text/css">
	.st0{fill:#B35959;}
	.st1{fill:#EBB162;}
	.st2{fill:#AB4747;}
	.st3{fill:#B45C5C;}
	.st4{fill:#9D2929;}
	.st5{fill:#F5D9B2;}
	.st6{fill:#8A0000;}
	.st7{fill:#F8E5CB;}
	.st8{fill:#B25757;}
	.st9{fill:#ECB66D;}
</style>
<title>istanbul</title>
<rect x="191.2" y="127.2" class="st0" width="3.2" height="56.7"/>
<rect x="79.6" y="195.1" class="st1" width="227" height="159.7"/>
<rect x="3.2" y="99.3" class="st2" width="20.8" height="255.5"/>
<rect x="59.1" y="99.3" class="st3" width="20.8" height="255.5"/>
<rect x="24" y="99.3" class="st1" width="35.1" height="255.5"/>
<rect y="191.9" class="st4" width="83" height="3.2"/>
<polygon class="st5" points="3.2,98.8 41.5,0 24,98.8 "/>
<polygon class="st6" points="79.8,98.8 41.5,0 59.1,98.8 "/>
<polygon class="st7" points="24,98.8 59.1,98.8 41.5,0 "/>
<rect y="98.8" class="st4" width="83" height="3.2"/>
<path class="st0" d="M37.5,121.9v-7.5c0-2.8,1.5-5.1,4-5.1s4,2.3,4,5.1v7.5L37.5,121.9z"/>
<path class="st0" d="M66.3,121.9v-7.5c0-2.8,1.5-5.1,4-5.1s4,2.3,4,5.1v7.5L66.3,121.9z"/>
<rect x="0" y="129.1" class="st4" width="83" height="6.4"/>
<path class="st2" d="M11.9,135.4L11.9,135.4l-4.7,0.1v-0.1c0-1.7,0.9-3.1,2.4-3.1S11.9,133.7,11.9,135.4z"/>
<path class="st2" d="M22.7,135.4L22.7,135.4l-4.7,0.1v-0.1c0-1.7,0.9-3.1,2.4-3.1S22.7,133.7,22.7,135.4z"/>
<path class="st1" d="M33.5,135.4L33.5,135.4l-4.7,0.1v-0.1c0-1.7,0.9-3.1,2.4-3.1S33.5,133.7,33.5,135.4z"/>
<path class="st1" d="M44.3,135.4L44.3,135.4l-4.7,0.1v-0.1c0-1.7,0.9-3.1,2.4-3.1S44.3,133.7,44.3,135.4z"/>
<path class="st1" d="M55.1,135.4L55.1,135.4l-4.7,0.1v-0.1c0-1.7,0.9-3.1,2.4-3.1S55.1,133.7,55.1,135.4z"/>
<path class="st3" d="M65.9,135.4L65.9,135.4l-4.7,0.1v-0.1c0-1.7,0.9-3.1,2.4-3.1S65.9,133.7,65.9,135.4z"/>
<path class="st3" d="M76.7,135.4L76.7,135.4l-4.7,0.1v-0.1c0-1.7,0.9-3.1,2.4-3.1S76.7,133.7,76.7,135.4z"/>
<path class="st0" d="M8.8,121.9v-7.5c0-2.8,1.5-5.1,4-5.1s4,2.3,4,5.1v7.5L8.8,121.9z"/>
<rect x="71" y="157.7" class="st0" width="1.1" height="9.3"/>
<rect x="41" y="157.7" class="st0" width="1.1" height="9.3"/>
<rect x="12.5" y="157.7" class="st0" width="1.1" height="9.3"/>
<rect x="71" y="221.6" class="st0" width="1.1" height="9.3"/>
<rect x="41" y="221.6" class="st0" width="1.1" height="9.3"/>
<rect x="12.5" y="221.6" class="st0" width="1.1" height="9.3"/>
<rect x="71" y="266.3" class="st0" width="1.1" height="9.3"/>
<rect x="41" y="266.3" class="st0" width="1.1" height="9.3"/>
<rect x="12.5" y="266.3" class="st0" width="1.1" height="9.3"/>
<rect x="71" y="311" class="st0" width="1.1" height="9.3"/>
<rect x="41" y="311" class="st0" width="1.1" height="9.3"/>
<rect x="12.5" y="311" class="st0" width="1.1" height="9.3"/>
<rect x="79.6" y="171.7" class="st2" width="3.2" height="19.2"/>
<rect x="90.1" y="171.7" class="st2" width="16" height="19.2"/>
<rect x="113.8" y="171.7" class="st2" width="16" height="19.2"/>
<rect x="137.5" y="171.7" class="st2" width="16" height="19.2"/>
<rect x="161.2" y="171.7" class="st2" width="16" height="19.2"/>
<rect x="184.9" y="171.7" class="st2" width="16" height="19.2"/>
<rect x="208.6" y="171.7" class="st2" width="16" height="19.2"/>
<rect x="232.3" y="171.7" class="st2" width="16" height="19.2"/>
<rect x="256" y="171.7" class="st2" width="16" height="19.2"/>
<rect x="279.7" y="171.7" class="st2" width="16" height="19.2"/>
<rect x="303.4" y="171.7" class="st2" width="3.2" height="19.2"/>
<rect x="90.1" y="168.8" class="st2" width="0.9" height="2.8"/>
<rect x="81.9" y="168.8" class="st2" width="0.9" height="2.8"/>
<rect x="105.2" y="168.8" class="st2" width="0.9" height="2.8"/>
<rect x="113.8" y="168.8" class="st2" width="0.9" height="2.8"/>
<rect x="128.9" y="168.8" class="st2" width="0.9" height="2.8"/>
<rect x="137.5" y="168.8" class="st2" width="0.9" height="2.8"/>
<rect x="152.6" y="168.8" class="st2" width="0.9" height="2.8"/>
<rect x="161.2" y="168.8" class="st2" width="0.9" height="2.8"/>
<rect x="176.3" y="168.8" class="st2" width="0.9" height="2.8"/>
<rect x="184.9" y="168.8" class="st2" width="0.9" height="2.8"/>
<rect x="200" y="168.8" class="st2" width="0.9" height="2.8"/>
<rect x="208.6" y="168.8" class="st2" width="0.9" height="2.8"/>
<rect x="223.7" y="168.8" class="st2" width="0.9" height="2.8"/>
<rect x="232.3" y="168.8" class="st2" width="0.9" height="2.8"/>
<rect x="247.4" y="168.8" class="st2" width="0.9" height="2.8"/>
<rect x="256" y="168.8" class="st2" width="0.9" height="2.8"/>
<rect x="271.1" y="168.8" class="st2" width="0.9" height="2.8"/>
<rect x="279.7" y="168.8" class="st2" width="0.9" height="2.8"/>
<rect x="294.8" y="168.8" class="st2" width="0.9" height="2.8"/>
<rect x="303.4" y="168.8" class="st2" width="0.9" height="2.8"/>
<rect x="79.8" y="190.3" class="st6" width="83.3" height="9"/>
<path class="st1" d="M88.4,199.8v0.1h-5.2v-0.1c0-2.6,1-4.7,2.6-4.7S88.4,197.2,88.4,199.8z"/>
<path class="st1" d="M100.3,199.8v0.1h-5.2v-0.1c0-2.6,1-4.7,2.6-4.7S100.3,197.2,100.3,199.8z"/>
<path class="st1" d="M112.2,199.8v0.1H107v-0.1c0-2.6,1-4.7,2.6-4.7S112.2,197.2,112.2,199.8z"/>
<path class="st1" d="M124,199.8v0.1h-5.2v-0.1c0-2.6,1-4.7,2.6-4.7S124,197.2,124,199.8z"/>
<path class="st1" d="M135.9,199.8v0.1h-5.2v-0.1c0-2.6,1-4.7,2.6-4.7S135.9,197.2,135.9,199.8z"/>
<path class="st1" d="M147.8,199.8v0.1h-5.2v-0.1c0-2.6,1-4.7,2.6-4.7S147.8,197.2,147.8,199.8z"/>
<path class="st1" d="M159.7,199.8v0.1h-5.2v-0.1c0-2.6,1-4.7,2.6-4.7S159.7,197.2,159.7,199.8z"/>
<rect x="163.1" y="190.4" class="st6" width="83.3" height="9"/>
<path class="st1" d="M171.7,199.8v0.1h-5.2v-0.1c0-2.6,1-4.7,2.6-4.7S171.7,197.2,171.7,199.8z"/>
<path class="st1" d="M183.6,199.8v0.1h-5.2v-0.1c0-2.6,1-4.7,2.6-4.7S183.6,197.2,183.6,199.8z"/>
<path class="st1" d="M195.5,199.8v0.1h-5.2v-0.1c0-2.6,1-4.7,2.6-4.7S195.5,197.2,195.5,199.8z"/>
<path class="st1" d="M207.4,199.8v0.1h-5.1v-0.1c0-2.6,1-4.7,2.6-4.7S207.4,197.2,207.4,199.8z"/>
<path class="st1" d="M219.2,199.8v0.1H214v-0.1c0-2.6,1-4.7,2.6-4.7S219.2,197.2,219.2,199.8z"/>
<path class="st1" d="M231.1,199.8v0.1h-5.2v-0.1c0-2.6,1-4.7,2.6-4.7S231.1,197.2,231.1,199.8z"/>
<path class="st1" d="M243,199.8v0.1h-5.2v-0.1c0-2.6,1-4.7,2.6-4.7S243,197.2,243,199.8z"/>
<rect x="246.2" y="190.4" class="st6" width="60.4" height="9"/>
<path class="st1" d="M254.8,199.8v0.1h-5.2v-0.1c0-2.6,1-4.7,2.6-4.7S254.8,197.2,254.8,199.8z"/>
<path class="st1" d="M266.7,199.8v0.1h-5.2v-0.1c0-2.6,1-4.7,2.6-4.7S266.7,197.2,266.7,199.8z"/>
<path class="st1" d="M278.5,199.8v0.1h-5.2v-0.1c0-2.6,1-4.7,2.6-4.7S278.5,197.2,278.5,199.8z"/>
<path class="st1" d="M290.4,199.8v0.1h-5.2v-0.1c0-2.6,1-4.7,2.6-4.7S290.4,197.2,290.4,199.8z"/>
<path class="st1" d="M302.3,199.8v0.1h-5.2v-0.1c0-2.6,1-4.7,2.6-4.7S302.3,197.2,302.3,199.8z"/>
<rect x="97.8" y="179.8" class="st0" width="1.1" height="8"/>
<rect x="145.3" y="179.8" class="st0" width="1.1" height="8"/>
<rect x="192.5" y="179.8" class="st0" width="1.1" height="8"/>
<rect x="240" y="179.8" class="st0" width="1.1" height="8"/>
<rect x="287.5" y="179.8" class="st0" width="1.1" height="8"/>
<rect x="194.7" y="127.2" class="st4" width="19.4" height="13.8"/>
<path class="st6" d="M247.4,354.8v-72.5c0-30.2-24.5-54.6-54.6-54.6c-30.2,0-54.6,24.4-54.6,54.6v72.5L247.4,354.8z"/>
<path class="st8" d="M218.3,354.8V297c0-12.3-10.4-21-22.7-21h-5.7c-12.3,0-22.7,8.6-22.7,21v57.8H218.3z"/>
<path class="st4" d="M212,354.8c0-0.1,0-0.2,0-0.2v-55.8c0-8.8-7.2-16-16-16h-5.7c-8.8,0-16,7.2-16,16v55.8c0,0.1,0,0.2,0,0.2
	L212,354.8z"/>
<rect x="149.1" y="296.9" class="st0" width="14.4" height="23.5"/>
<rect x="222.1" y="296.9" class="st0" width="14.4" height="23.5"/>
<rect x="167.2" y="250.7" class="st0" width="50.8" height="16"/>
<ellipse class="st0" cx="193.1" cy="275.6" rx="8.4" ry="5.8"/>
<rect x="5" y="146.4" class="st9" width="7.6" height="1.9"/>
<rect x="30.7" y="173.3" class="st9" width="7.6" height="1.9"/>
<rect x="34.5" y="175.8" class="st9" width="7.6" height="1.9"/>
<rect x="48.7" y="162.1" class="st9" width="7.6" height="1.9"/>
<rect x="62.9" y="238.7" class="st9" width="7.6" height="1.9"/>
<rect x="71" y="238.7" class="st9" width="7.6" height="1.9"/>
<rect x="67.2" y="236.4" class="st9" width="7.6" height="1.9"/>
<rect x="28.5" y="284" class="st9" width="7.6" height="1.9"/>
<rect x="36.6" y="284" class="st9" width="7.6" height="1.9"/>
<rect x="32.8" y="281.7" class="st9" width="7.6" height="1.9"/>
<rect x="63.2" y="334.2" class="st9" width="7.6" height="1.9"/>
<rect x="71.2" y="334.2" class="st9" width="7.6" height="1.9"/>
<rect x="67.4" y="331.9" class="st9" width="7.6" height="1.9"/>
<rect x="48.4" y="244.5" class="st9" width="7.6" height="1.9"/>
<rect x="44.6" y="242.2" class="st9" width="7.6" height="1.9"/>
<rect x="44.6" y="218.5" class="st9" width="7.6" height="1.9"/>
<rect x="27.4" y="201.6" class="st9" width="7.6" height="1.9"/>
<rect x="28.9" y="204.2" class="st9" width="7.6" height="1.9"/>
<rect x="306.6" y="99.3" class="st2" width="20.8" height="255.5"/>
<rect x="362.5" y="99.3" class="st3" width="20.8" height="255.5"/>
<rect x="327.4" y="99.3" class="st1" width="35.1" height="255.5"/>
<rect x="303.4" y="191.9" class="st4" width="83" height="3.2"/>
<polygon class="st5" points="306.6,98.8 344.9,0 327.4,98.8 "/>
<polygon class="st6" points="383.3,98.8 344.9,0 362.5,98.8 "/>
<polygon class="st7" points="327.4,98.8 362.5,98.8 344.9,0 "/>
<rect x="303.4" y="98.8" class="st4" width="83" height="3.2"/>
<path class="st0" d="M340.9,121.9v-7.5c0-2.8,1.5-5.1,4-5.1s4,2.3,4,5.1v7.5L340.9,121.9z"/>
<path class="st0" d="M369.7,121.9v-7.5c0-2.8,1.5-5.1,4-5.1s4,2.3,4,5.1v7.5L369.7,121.9z"/>
<rect x="303.4" y="129.1" class="st4" width="83" height="6.4"/>
<path class="st2" d="M315.3,135.4L315.3,135.4l-4.7,0.1v-0.1c0-1.7,0.9-3.1,2.4-3.1S315.3,133.7,315.3,135.4z"/>
<path class="st2" d="M326.1,135.4L326.1,135.4l-4.7,0.1v-0.1c0-1.7,0.9-3.1,2.4-3.1S326.1,133.7,326.1,135.4z"/>
<path class="st1" d="M336.9,135.4L336.9,135.4l-4.7,0.1v-0.1c0-1.7,0.9-3.1,2.4-3.1S336.9,133.7,336.9,135.4z"/>
<path class="st1" d="M347.7,135.4L347.7,135.4l-4.7,0.1v-0.1c0-1.7,0.9-3.1,2.4-3.1S347.7,133.7,347.7,135.4z"/>
<path class="st1" d="M358.5,135.4L358.5,135.4l-4.7,0.1v-0.1c0-1.7,0.9-3.1,2.4-3.1S358.5,133.7,358.5,135.4z"/>
<path class="st3" d="M369.3,135.4L369.3,135.4l-4.7,0.1v-0.1c0-1.7,0.9-3.1,2.4-3.1S369.3,133.7,369.3,135.4z"/>
<path class="st3" d="M380.1,135.4L380.1,135.4l-4.7,0.1v-0.1c0-1.7,0.9-3.1,2.4-3.1S380.1,133.7,380.1,135.4z"/>
<path class="st0" d="M312.2,121.9v-7.5c0-2.8,1.5-5.1,4-5.1s4,2.3,4,5.1v7.5L312.2,121.9z"/>
<rect x="374.4" y="157.7" class="st0" width="1.1" height="9.3"/>
<rect x="344.4" y="157.7" class="st0" width="1.1" height="9.3"/>
<rect x="315.9" y="157.7" class="st0" width="1.1" height="9.3"/>
<rect x="374.4" y="221.6" class="st0" width="1.1" height="9.3"/>
<rect x="344.4" y="221.6" class="st0" width="1.1" height="9.3"/>
<rect x="315.9" y="221.6" class="st0" width="1.1" height="9.3"/>
<rect x="374.4" y="266.3" class="st0" width="1.1" height="9.3"/>
<rect x="344.4" y="266.3" class="st0" width="1.1" height="9.3"/>
<rect x="315.9" y="266.3" class="st0" width="1.1" height="9.3"/>
<rect x="374.4" y="311" class="st0" width="1.1" height="9.3"/>
<rect x="344.4" y="311" class="st0" width="1.1" height="9.3"/>
<rect x="315.9" y="311" class="st0" width="1.1" height="9.3"/>
<rect x="308.4" y="146.4" class="st9" width="7.6" height="1.9"/>
<rect x="334.1" y="173.3" class="st9" width="7.6" height="1.9"/>
<rect x="337.9" y="175.8" class="st9" width="7.6" height="1.9"/>
<rect x="352.1" y="162.1" class="st9" width="7.6" height="1.9"/>
<rect x="309.1" y="214.3" class="st9" width="7.6" height="1.9"/>
<rect x="317.2" y="214.3" class="st9" width="7.6" height="1.9"/>
<rect x="313.4" y="212" class="st9" width="7.6" height="1.9"/>
<rect x="331.9" y="284" class="st9" width="7.6" height="1.9"/>
<rect x="340" y="284" class="st9" width="7.6" height="1.9"/>
<rect x="366.6" y="334.2" class="st9" width="7.6" height="1.9"/>
<rect x="370.8" y="331.9" class="st9" width="7.6" height="1.9"/>
<rect x="351.8" y="244.5" class="st9" width="7.6" height="1.9"/>
<rect x="348" y="242.2" class="st9" width="7.6" height="1.9"/>
<rect x="348" y="218.5" class="st9" width="7.6" height="1.9"/>
<rect x="365.8" y="199.4" class="st9" width="7.6" height="1.9"/>
<rect x="367.3" y="202" class="st9" width="7.6" height="1.9"/>
</svg>
