<svg id="Layer_1" data-name="Layer 1" xmlns="http://www.w3.org/2000/svg" viewBox="0 0 460 460"><defs><style>.cls-1{fill:#da0100;}.cls-2{fill:#8a0000;}.cls-3{fill:#c4e1fd;}.cls-4{fill:#f1f1f1;}.cls-5{fill:#9f2e2e;}.cls-6{fill:#9a2424;}</style></defs><title>istanbul</title><rect class="cls-1" x="179.02" y="230.57" width="101.96" height="211.43"/><rect class="cls-1" x="179.02" y="187.52" width="101.96" height="33.99"/><rect class="cls-1" x="179.02" y="158.07" width="101.96" height="22.66"/><polygon class="cls-2" points="280.98 187.53 179.02 187.53 173.36 180.73 286.64 180.73 280.98 187.53"/><polygon class="cls-2" points="280.98 230.57 179.02 230.57 173.36 221.51 286.64 221.51 280.98 230.57"/><rect class="cls-2" x="173.36" y="155.85" width="113.29" height="2.27"/><polygon class="cls-3" points="280.98 187.53 179.02 187.53 178.08 186.39 281.92 186.39 280.98 187.53"/><polygon class="cls-3" points="280.98 230.57 179.02 230.57 178.31 229.44 281.69 229.44 280.98 230.57"/><rect class="cls-2" x="200.32" y="118.7" width="8.33" height="11.42"/><rect class="cls-2" x="252.89" y="118.7" width="6.79" height="11.42"/><rect class="cls-4" x="200.32" y="117.6" width="5.18" height="2.24"/><rect class="cls-4" x="254.5" y="117.58" width="5.18" height="2.24"/><polygon class="cls-1" points="229.22 53.89 269.65 155.85 190.35 155.85 229.22 53.89"/><polygon class="cls-2" points="234.81 129.62 228.87 129.62 228.87 119.64 231.84 117.69 234.81 119.64 234.81 129.62"/><polygon class="cls-4" points="231.84 118.28 233.8 119.99 235.81 119.99 231.84 116.52 227.88 119.99 229.89 119.99 231.84 118.28"/><rect class="cls-5" x="229.86" y="120.67" width="3.96" height="7.92"/><polygon class="cls-6" points="228.87 124.29 228.17 124.29 227.88 124.29 227.88 119.99 228.87 119.99 228.87 124.29"/><polygon class="cls-6" points="228.87 129.62 228.27 124.29 228.87 124.29 228.87 129.62"/><circle class="cls-6" cx="229.35" cy="51.15" r="3.26"/><polygon class="cls-6" points="231.89 43.77 226.81 43.77 227.93 33.93 230.8 33.93 231.89 43.77"/><polygon class="cls-6" points="231.89 43.77 226.81 43.77 228.39 46 230.34 46 231.89 43.77"/><rect class="cls-6" x="229.01" y="46" width="0.68" height="2.3"/><rect class="cls-6" x="228.78" y="18" width="1.13" height="16.21"/><circle class="cls-6" cx="229.35" cy="31.75" r="1.28"/><circle class="cls-6" cx="229.35" cy="29.09" r="0.9"/><path class="cls-5" d="M247.78,246.88v-4.62c0-1.72.73-3.13,1.88-3.13s1.88,1.4,1.88,3.13v4.62Z"/><path class="cls-5" d="M267.33,246.88v-4.62c0-1.72.73-3.13,1.88-3.13s1.88,1.4,1.88,3.13v4.62Z"/><path class="cls-5" d="M246,272v-7.92c0-3,1.42-5.36,3.69-5.36s3.69,2.4,3.69,5.36V272Z"/><path class="cls-5" d="M207,272v-7.92c0-3,1.42-5.36,3.69-5.36s3.69,2.4,3.69,5.36V272Z"/><path class="cls-5" d="M228.15,246.88v-4.62c0-1.72.73-3.13,1.88-3.13s1.88,1.4,1.88,3.13v4.62Z"/><path class="cls-5" d="M208.53,246.88v-4.62c0-1.72.73-3.13,1.88-3.13s1.88,1.4,1.88,3.13v4.62Z"/><path class="cls-5" d="M188.9,246.88v-4.62c0-1.72.73-3.13,1.88-3.13s1.88,1.4,1.88,3.13v4.62Z"/><path class="cls-2" d="M210.74,217.48V199.91c0-4.61,3.32-8.36,7.93-8.36s7.93,3.75,7.93,8.36v17.57Z"/><path class="cls-5" d="M216.53,200h4.28a1.69,1.69,0,0,1,1.69,1.69v14.8a0,0,0,0,1,0,0h-7.66a0,0,0,0,1,0,0V201.7A1.69,1.69,0,0,1,216.53,200Z"/><path class="cls-2" d="M188.08,217.48V199.91c0-4.61,3.32-8.36,7.93-8.36s7.93,3.75,7.93,8.36v17.57Z"/><path class="cls-5" d="M193.87,200.3h4.28a1.69,1.69,0,0,1,1.69,1.69v14.8a0,0,0,0,1,0,0h-7.66a0,0,0,0,1,0,0V202a1.69,1.69,0,0,1,1.69-1.69Z"/><path class="cls-2" d="M179,193.94v23.54h2.3V199.91A8.62,8.62,0,0,0,179,193.94Z"/><path class="cls-2" d="M233.4,217.48V199.91c0-4.61,3.32-8.36,7.93-8.36s7.93,3.75,7.93,8.36v17.57Z"/><path class="cls-5" d="M239.19,200h4.28a1.69,1.69,0,0,1,1.69,1.69v14.8a0,0,0,0,1,0,0H237.5a0,0,0,0,1,0,0V201.7a1.69,1.69,0,0,1,1.69-1.69Z"/><path class="cls-2" d="M256.06,217.48V199.91c0-4.61,3.32-8.36,7.93-8.36s7.93,3.75,7.93,8.36v17.57Z"/><path class="cls-5" d="M261.84,200h4.28a1.69,1.69,0,0,1,1.69,1.69v14.8a0,0,0,0,1,0,0h-7.66a0,0,0,0,1,0,0V201.7a1.69,1.69,0,0,1,1.69-1.69Z"/><path class="cls-2" d="M281,194a8.64,8.64,0,0,0-2.2,5.87v17.57H281Z"/><path class="cls-5" d="M226.17,176.06v-7.92c0-3,1.42-5.36,3.69-5.36s3.69,2.4,3.69,5.36v7.92Z"/><path class="cls-5" d="M245.13,176.06v-7.92c0-3,1.42-5.36,3.69-5.36s3.69,2.4,3.69,5.36v7.92Z"/><path class="cls-5" d="M263.69,176.06v-7.92c0-3,1.42-5.36,3.69-5.36s3.69,2.4,3.69,5.36v7.92Z"/><path class="cls-5" d="M188.9,176v-7.92c0-3,1.42-5.36,3.69-5.36s3.69,2.4,3.69,5.36V176Z"/><path class="cls-5" d="M207.46,176v-7.92c0-3,1.42-5.36,3.69-5.36s3.69,2.4,3.69,5.36V176Z"/><rect class="cls-6" x="225.45" y="265.36" width="5.42" height="1.33"/><rect class="cls-6" x="229.01" y="301.88" width="5.42" height="1.33"/><rect class="cls-6" x="231.72" y="303.64" width="5.42" height="1.33"/><rect class="cls-6" x="195.03" y="322.27" width="5.42" height="1.33"/><rect class="cls-6" x="197.74" y="324.03" width="5.42" height="1.33"/><rect class="cls-6" x="262.5" y="293.23" width="5.42" height="1.33"/><rect class="cls-6" x="211.28" y="358.15" width="5.42" height="1.33"/><rect class="cls-6" x="217" y="358.15" width="5.42" height="1.33"/><rect class="cls-6" x="214.29" y="356.52" width="5.42" height="1.33"/><rect class="cls-6" x="201.37" y="394.35" width="5.42" height="1.33"/><rect class="cls-6" x="207.08" y="394.35" width="5.42" height="1.33"/><rect class="cls-6" x="227.48" y="432.86" width="5.42" height="1.33"/><rect class="cls-6" x="182.16" y="410.21" width="5.42" height="1.33"/><rect class="cls-6" x="179.02" y="285.59" width="5.11" height="1.33"/><rect class="cls-6" x="184.43" y="285.59" width="5.42" height="1.33"/><rect class="cls-6" x="270.14" y="420.54" width="5.42" height="1.33"/><rect class="cls-6" x="266.35" y="418.9" width="5.42" height="1.33"/><rect class="cls-6" x="248.34" y="381.85" width="5.42" height="1.33"/><rect class="cls-6" x="245.63" y="380.22" width="5.42" height="1.33"/><rect class="cls-6" x="259.79" y="350.74" width="5.42" height="1.33"/><rect class="cls-6" x="251.48" y="324.93" width="5.42" height="1.33"/><rect class="cls-6" x="254.19" y="326.74" width="5.42" height="1.33"/><rect class="cls-6" x="237.89" y="141.41" width="5.42" height="1.33"/><rect class="cls-6" x="209.22" y="113.26" width="5.42" height="1.33"/><rect class="cls-6" x="240.6" y="143.22" width="5.42" height="1.33"/><rect class="cls-6" x="233.36" y="84.77" width="5.42" height="1.33"/><rect class="cls-6" x="236.07" y="86.58" width="5.42" height="1.33"/></svg>