<svg id="Layer_1" data-name="Layer 1" xmlns="http://www.w3.org/2000/svg" viewBox="0 0 460 460"><defs><style>.cls-1{fill:#f5dab4;}.cls-2{fill:#8a0000;}.cls-3{fill:#c4e1fd;}.cls-4{fill:#921212;}.cls-5{fill:#f5d8b1;}.cls-6{fill:#ebb162;}.cls-7{fill:#f8e4ca;}</style></defs><title>istanbul</title><polygon class="cls-1" points="343.33 340.16 343.38 340.15 343.41 340.16 343.41 340.16 343.41 340.16 277.5 340.15 277.5 346.06 343.33 346.06 350.78 346.06 343.33 340.16"/><polygon class="cls-1" points="342.28 340.15 342.27 340.15 342.28 340.16 342.28 340.15"/><rect class="cls-2" x="172.31" y="229.68" width="75.13" height="183.71"/><rect class="cls-3" x="168.5" y="267.15" width="15.51" height="110.15"/><rect class="cls-3" x="172.31" y="229.68" width="15.68" height="32.04"/><rect class="cls-4" x="288.35" y="346.06" width="60.92" height="67.32"/><polygon class="cls-1" points="110.33 360.39 110.3 360.38 110.28 360.39 110.28 360.4 110.28 360.39 159.42 360.38 159.42 372.37 110.34 372.37 104.78 372.37 110.33 360.39"/><polygon class="cls-1" points="111.12 360.38 111.13 360.38 111.12 360.39 111.12 360.38"/><rect class="cls-4" x="181.74" y="341.22" width="106.61" height="72.17"/><polygon class="cls-1" points="235.05 313.81 289.04 341.22 181.06 341.22 235.05 313.81"/><rect class="cls-2" x="148.51" y="372.37" width="55.38" height="41.02"/><polygon class="cls-5" points="172.04 353.29 212.28 372.37 131.81 372.37 172.04 353.29"/><rect class="cls-6" x="131.8" y="372.37" width="18.29" height="41.02"/><rect class="cls-4" x="116.05" y="372.37" width="16.68" height="41.02"/><rect class="cls-5" x="201.75" y="349.6" width="7.75" height="10.77"/><rect class="cls-5" x="222.67" y="349.6" width="7.75" height="10.77"/><rect class="cls-5" x="243.59" y="349.6" width="7.75" height="10.77"/><rect class="cls-5" x="264.5" y="349.6" width="7.75" height="10.77"/><rect class="cls-5" x="170.14" y="223.14" width="78.95" height="1.76"/><rect class="cls-5" x="172.31" y="229.68" width="75.15" height="1.76"/><rect class="cls-5" x="159.68" y="377.3" width="32.43" height="18.48"/><polygon class="cls-4" points="159.74 267.08 176.83 284.88 183.4 271.6 216.49 284.55 248.97 271.97 248.97 281.46 260 267.08 159.74 267.08"/><path class="cls-3" d="M229.31,196.13c-5.07-7.54-5.07-19.17-5.07-19.17H195.18s0,11.63-5.07,19.17c-15.57,13.14-14.64,27-14.64,27H244S244.88,209.27,229.31,196.13Z"/><polygon class="cls-2" points="247.44 229.68 172.31 229.68 170.14 224.9 249.09 224.9 247.44 229.68"/><polygon class="cls-3" points="184.01 229.68 172.31 229.68 170.14 224.9 184.01 224.88 184.01 229.68"/><rect class="cls-5" x="192.56" y="167.73" width="34.11" height="9.24"/><rect class="cls-5" x="203.37" y="158.58" width="13.01" height="16.81"/><polygon class="cls-5" points="207.69 153.78 203.37 158.58 216.39 158.58 211.92 153.78 207.69 153.78"/><polygon class="cls-5" points="211.92 153.78 207.69 153.78 208.61 69.72 210.99 69.72 211.92 153.78"/><rect class="cls-5" x="204.52" y="68.04" width="10.41" height="1.67"/><path class="cls-5" d="M209.72,56.33c-1.71,0-4.49,2.8-4.49,6.61,0,2.4,1.1,5.45,2.35,5.45h4.28c1.24,0,2.35-3.05,2.35-5.45C214.21,59.14,211.43,56.35,209.72,56.33Z"/><path class="cls-5" d="M211.32,57.46h-3a.6.6,0,0,1-.6-.6l.44-11.09a3.62,3.62,0,0,1,1.59-1.56h0a3.73,3.73,0,0,1,1.66,1.54l.54,11.11A.6.6,0,0,1,211.32,57.46Z"/><rect class="cls-5" x="209.25" y="25.1" width="1.11" height="19.92" rx="0.23" ry="0.23"/><path class="cls-5" d="M214.93,69.11V88.28s14.15,4.31,17.55,1.85-1.13-6.8-1.13-6.8l-2-1.13a9.67,9.67,0,0,0-5-7A93.36,93.36,0,0,1,214.93,69.11Z"/><rect class="cls-5" x="83.09" y="413.39" width="293.82" height="21.51"/><rect class="cls-4" x="197.01" y="238.53" width="13.78" height="22.85"/><rect class="cls-5" x="176.7" y="238.53" width="6.89" height="22.85"/><rect class="cls-4" x="225.67" y="238.53" width="13.78" height="22.85"/><rect class="cls-1" x="159.68" y="256.29" width="100.28" height="10.86"/><path class="cls-2" d="M124.17,413.34H112.45c-3-2.87-5-5.55-5-8.88,0-5.21,4.86-9.9,10.86-9.9s10.86,4.93,10.86,10.13C129.17,408,127.18,410.47,124.17,413.34Z"/><path class="cls-7" d="M118.85,394.57v18.77h-6.59c-3.26-2.59-5.24-5-5.24-8.58C107,399.16,111,394.62,118.85,394.57Z"/><path class="cls-2" d="M132.42,413.34h-7.78c-2-1.91-3.32-3.68-3.32-5.89,0-3.45,3.23-6.57,7.21-6.57s7.21,3.27,7.21,6.72C135.74,409.82,134.41,411.43,132.42,413.34Z"/><path class="cls-7" d="M129.25,400.88v12.46h-4.73c-2.16,0-3.3-3.3-3.3-5.69C121.22,403.93,124.05,400.92,129.25,400.88Z"/><path class="cls-2" d="M209.56,413.39h-7.18c-2-1.91-3.91-3.68-3.91-5.89,0-3.45,3.23-6.57,7.21-6.57s7.21,3.27,7.21,6.72C212.88,409.87,211.55,411.48,209.56,413.39Z"/><path class="cls-7" d="M206.39,400.93v12.46h-3.45c-2.16,0-4.58-3.3-4.58-5.69C198.36,404,201.19,401,206.39,400.93Z"/></svg>