<svg id="Layer_1" data-name="Layer 1" xmlns="http://www.w3.org/2000/svg" viewBox="0 0 460 460"><defs><style>.cls-1{fill:#cde6fd;}.cls-2{fill:#e02726;}.cls-3{fill:#d5a3a3;}.cls-4{fill:#f1f1f1;}.cls-5{fill:#c17878;}.cls-6{fill:#f4f4f4;}.cls-7{fill:#dd1514;}.cls-8{fill:#cce5fd;}.cls-9{fill:#da0100;}.cls-10{fill:#c4e1fd;}.cls-11{fill:#8a0000;}</style></defs><title>istanbul</title><path class="cls-1" d="M180.66,258s0-.06,0-.09c0-7.13-12.38-12.91-27.64-12.91s-27.64,5.78-27.64,12.91c0,0,0,.06,0,.09Z"/><rect class="cls-2" x="123.16" y="258" width="55.29" height="20.82"/><rect class="cls-3" x="123.16" y="258" width="39.01" height="2.99"/><polygon class="cls-2" points="376.29 236.34 376.3 236.3 376.3 140.84 380.86 112.26 380.86 101.68 383.14 101.68 383.14 112.26 387.71 140.84 387.71 236.3 376.29 236.34"/><polygon class="cls-2" points="387.71 236.3 376.3 236.3 370.69 268.21 393.17 268.21 387.71 236.3"/><rect class="cls-2" x="370.69" y="268.21" width="22.48" height="31.09" transform="translate(763.86 567.51) rotate(-180)"/><rect class="cls-3" x="370.18" y="267.2" width="23.51" height="1.08" transform="translate(763.86 535.48) rotate(-180)"/><rect class="cls-3" x="375.81" y="233.01" width="12.25" height="1.08" transform="translate(763.86 467.09) rotate(-180)"/><rect class="cls-3" x="375.81" y="178.79" width="12.25" height="1.08" transform="translate(763.86 358.66) rotate(-180)"/><rect class="cls-4" x="375.81" y="140.84" width="12.25" height="1.08" transform="translate(763.86 282.77) rotate(-180)"/><rect class="cls-3" x="375.81" y="167.03" width="12.25" height="6" transform="translate(763.86 340.05) rotate(-180)"/><polygon class="cls-4" points="380.86 112.27 383.14 112.27 387.71 140.84 376.3 140.84 380.86 112.27"/><polygon class="cls-5" points="350.06 240.78 350.06 240.73 350.06 145.28 354.63 116.69 354.63 106.12 356.91 106.12 356.91 116.69 361.47 145.28 361.47 240.73 350.06 240.78"/><polygon class="cls-5" points="361.47 240.73 350.06 240.73 344.46 272.64 366.94 272.64 361.47 240.73"/><rect class="cls-5" x="344.46" y="272.65" width="22.48" height="31.09" transform="translate(711.4 576.38) rotate(-180)"/><rect class="cls-1" x="343.94" y="271.64" width="23.51" height="1.08" transform="translate(711.4 544.35) rotate(-180)"/><rect class="cls-1" x="349.57" y="237.44" width="12.25" height="1.08" transform="translate(711.4 475.96) rotate(-180)"/><rect class="cls-1" x="349.57" y="183.22" width="12.25" height="1.08" transform="translate(711.4 367.53) rotate(-180)"/><rect class="cls-1" x="349.57" y="145.28" width="12.25" height="1.08" transform="translate(711.4 291.64) rotate(-180)"/><rect class="cls-1" x="349.57" y="171.46" width="12.25" height="6" transform="translate(711.4 348.92) rotate(-180)"/><polygon class="cls-6" points="354.63 116.7 356.91 116.7 361.47 145.28 350.06 145.28 354.63 116.7"/><path class="cls-1" d="M280.44,258s0-.06,0-.09c0-7.13,12.38-12.91,27.64-12.91s27.64,5.78,27.64,12.91c0,0,0,.06,0,.09Z"/><rect class="cls-2" x="282.65" y="258" width="55.29" height="20.82" transform="translate(620.59 536.81) rotate(-180)"/><rect class="cls-3" x="298.93" y="258" width="39.01" height="2.99" transform="translate(636.87 518.99) rotate(-180)"/><polygon class="cls-5" points="230.55 291.63 168.46 291.63 168.46 304.94 230.55 304.94 292.64 304.94 292.64 291.63 230.55 291.63"/><polygon class="cls-7" points="228.97 309.53 39.84 309.53 39.84 358.32 228.97 358.32 416.82 358.32 416.82 309.53 228.97 309.53"/><path class="cls-2" d="M235.35,180.75c.2-2.16-1.36-3.92-1.91-4.53a8,8,0,0,0-2.85-2,7.58,7.58,0,0,0-3,2.08,6.16,6.16,0,0,0-1.8,4.27c.17,2.2,2.52,4.21,4.74,5v-.19h0v.19C232.77,184.82,235.15,182.89,235.35,180.75Z"/><rect class="cls-3" x="87.14" y="287.04" width="288.57" height="11.73"/><polyline class="cls-5" points="56.9 297.8 39.84 305.11 39.84 309.6 76.23 309.6 76.23 297.8 56.9 297.8"/><polygon class="cls-2" points="229.57 161.31 229.57 161.32 229.57 176.48 231.52 176.48 231.52 161.32 231.52 161.31 229.57 161.31"/><path class="cls-1" d="M230.74,179.28h-.39c-30.2,0-54.69,22.4-54.69,50.26a.81.81,0,0,0,0,.17H285.42a.81.81,0,0,0,0-.17C285.43,201.67,260.95,179.28,230.74,179.28Z"/><polygon class="cls-7" points="230.55 231.08 168.46 231.08 168.46 281.53 230.55 281.53 292.64 281.53 292.64 231.08 230.55 231.08"/><path class="cls-1" d="M230.57,248.21h0c-27.58,0-50,12.17-50.68,26.37H281.25C280.54,260.37,258.15,248.21,230.57,248.21Z"/><polygon class="cls-5" points="384.87 309.6 384.87 299.83 400.39 299.83 402.02 299.83 402.02 297.8 417.17 305.11 417.17 309.6 384.87 309.6"/><polygon class="cls-5" points="233.16 297.8 64.24 297.8 64.24 309.6 233.16 309.6 402.08 309.6 402.08 297.8 233.16 297.8"/><polygon class="cls-5" points="159.5 278.49 106.37 278.49 106.37 287.36 159.5 287.36 212.81 287.36 212.81 278.49 159.5 278.49"/><polygon class="cls-3" points="230.55 227.49 168.46 227.49 168.46 231.92 230.55 231.92 292.64 231.92 292.64 227.49 230.55 227.49"/><polygon class="cls-5" points="301.6 278.49 354.73 278.49 354.73 287.36 301.6 287.36 248.29 287.36 248.29 278.49 301.6 278.49"/><polygon class="cls-7" points="230.55 277.65 168.46 277.65 168.46 291.63 230.55 291.63 292.64 291.63 292.64 277.65 230.55 277.65"/><polygon class="cls-2" points="229.57 161.31 230.55 158.1 231.52 161.31 229.57 161.31"/><path class="cls-8" d="M181.85,288.49V284.4c0-1.53.84-2.77,2.18-2.77s2.18,1.24,2.18,2.77v4.09Z"/><path class="cls-8" d="M197.29,288.49V284.4c0-1.53.84-2.77,2.18-2.77s2.18,1.24,2.18,2.77v4.09Z"/><path class="cls-8" d="M212.81,288.49V284.4c0-1.53.84-2.77,2.18-2.77s2.18,1.24,2.18,2.77v4.09Z"/><path class="cls-8" d="M228.33,288.49V284.4c0-1.53.84-2.77,2.18-2.77s2.18,1.24,2.18,2.77v4.09Z"/><path class="cls-8" d="M243.85,288.49V284.4c0-1.53.84-2.77,2.18-2.77s2.18,1.24,2.18,2.77v4.09Z"/><path class="cls-8" d="M259.38,288.49V284.4c0-1.53.84-2.77,2.18-2.77s2.18,1.24,2.18,2.77v4.09Z"/><path class="cls-8" d="M274.9,288.49V284.4c0-1.53.84-2.77,2.18-2.77s2.18,1.24,2.18,2.77v4.09Z"/><path class="cls-8" d="M181.85,244v-6.14c0-2.29.84-4.15,2.18-4.15s2.18,1.86,2.18,4.15V244Z"/><path class="cls-8" d="M197.29,244v-6.14c0-2.29.84-4.15,2.18-4.15s2.18,1.86,2.18,4.15V244Z"/><path class="cls-8" d="M212.89,244v-6.14c0-2.29.84-4.15,2.18-4.15s2.18,1.86,2.18,4.15V244Z"/><path class="cls-8" d="M228.33,244v-6.14c0-2.29.84-4.15,2.18-4.15s2.18,1.86,2.18,4.15V244Z"/><path class="cls-8" d="M243.85,244v-6.14c0-2.29.84-4.15,2.18-4.15s2.18,1.86,2.18,4.15V244Z"/><path class="cls-8" d="M259.38,244v-6.14c0-2.29.84-4.15,2.18-4.15s2.18,1.86,2.18,4.15V244Z"/><path class="cls-8" d="M274.9,244v-6.14c0-2.29.84-4.15,2.18-4.15s2.18,1.86,2.18,4.15V244Z"/><polygon class="cls-3" points="230.55 243.01 168.46 243.01 168.46 247.44 230.55 247.44 292.64 247.44 292.64 243.01 230.55 243.01"/><polygon class="cls-5" points="111.04 240.78 111.03 240.73 111.03 145.28 106.47 116.69 106.47 106.12 104.19 106.12 104.19 116.69 99.63 145.28 99.63 240.73 111.04 240.78"/><polygon class="cls-5" points="99.63 240.73 111.03 240.73 116.64 272.64 94.16 272.64 99.63 240.73"/><rect class="cls-5" x="94.16" y="272.65" width="22.48" height="31.09"/><rect class="cls-1" x="93.64" y="271.64" width="23.51" height="1.08"/><rect class="cls-1" x="99.28" y="237.44" width="12.25" height="1.08"/><rect class="cls-1" x="99.28" y="183.22" width="12.25" height="1.08"/><rect class="cls-1" x="99.28" y="145.28" width="12.25" height="1.08"/><rect class="cls-1" x="99.28" y="171.46" width="12.25" height="6"/><polygon class="cls-6" points="106.47 116.7 104.19 116.7 99.63 145.28 111.03 145.28 106.47 116.7"/><polygon class="cls-2" points="84.81 236.34 84.8 236.3 84.8 140.84 80.24 112.26 80.24 101.68 77.95 101.68 77.95 112.26 73.39 140.84 73.39 236.3 84.81 236.34"/><polygon class="cls-2" points="73.39 236.3 84.8 236.3 90.41 268.21 67.93 268.21 73.39 236.3"/><rect class="cls-2" x="67.93" y="268.21" width="22.48" height="31.09"/><rect class="cls-3" x="67.41" y="267.2" width="23.51" height="1.08"/><rect class="cls-3" x="73.04" y="233.01" width="12.25" height="1.08"/><rect class="cls-3" x="73.04" y="178.79" width="12.25" height="1.08"/><rect class="cls-4" x="73.04" y="140.84" width="12.25" height="1.08"/><rect class="cls-3" x="73.04" y="167.03" width="12.25" height="6"/><polygon class="cls-4" points="80.24 112.27 77.95 112.27 73.39 140.84 84.8 140.84 80.24 112.27"/><path class="cls-9" d="M68.54,330.6V320a6.35,6.35,0,1,0-12.67,0V330.6Z"/><path class="cls-8" d="M57.47,329.35v-8.9c0-3.32,1.83-6,4.74-6s4.74,2.7,4.74,6v8.9Z"/><path class="cls-10" d="M58.14,329.35h8.8v-8.74a7.18,7.18,0,0,0-1-3.94Z"/><path class="cls-9" d="M93.17,330.6V320a6.35,6.35,0,1,0-12.67,0V330.6Z"/><path class="cls-8" d="M82.1,329.35v-8.9c0-3.32,1.83-6,4.74-6s4.74,2.7,4.74,6v8.9Z"/><path class="cls-10" d="M82.77,329.35h8.8v-8.74a7.18,7.18,0,0,0-1-3.94Z"/><path class="cls-9" d="M117.8,330.6V320a6.35,6.35,0,1,0-12.67,0V330.6Z"/><path class="cls-8" d="M106.73,329.35v-8.9c0-3.32,1.83-6,4.74-6s4.74,2.7,4.74,6v8.9Z"/><path class="cls-10" d="M107.4,329.35h8.8v-8.74a7.18,7.18,0,0,0-1-3.94Z"/><polygon class="cls-7" points="169.22 241.72 157.93 241.72 157.93 241.75 154.16 241.75 154.16 305.38 172.99 305.38 172.99 241.75 169.22 241.75 169.22 241.72"/><rect class="cls-11" x="156.78" y="281.66" width="13.59" height="76.66"/><path class="cls-1" d="M163.58,233.69h0c-5.12,0-9.28,3.89-9.41,8.43H173C172.85,237.59,168.7,233.69,163.58,233.69Z"/><polygon class="cls-7" points="38.23 245.5 38.23 245.45 38.23 152.68 33.79 124.9 33.79 114.62 31.57 114.62 31.57 124.9 27.14 152.68 27.14 245.45 38.23 245.5"/><polygon class="cls-7" points="27.14 245.45 38.23 245.45 43.67 276.47 21.83 276.47 27.14 245.45"/><rect class="cls-7" x="21.83" y="276.47" width="21.84" height="81.85"/><rect class="cls-5" x="21.32" y="275.49" width="22.85" height="1.05"/><rect class="cls-5" x="26.8" y="242.26" width="11.91" height="1.05"/><rect class="cls-5" x="26.8" y="189.56" width="11.91" height="1.05"/><rect class="cls-4" x="26.8" y="152.68" width="11.91" height="1.05"/><rect class="cls-5" x="26.8" y="178.13" width="11.91" height="5.83"/><polygon class="cls-1" points="33.79 124.91 31.57 124.91 27.14 152.68 38.23 152.68 33.79 124.91"/><path class="cls-1" d="M141.95,284.15h0c-7.06,0-12.79,6.51-13,13h26C154.74,290.66,149,284.15,141.95,284.15Z"/><polygon class="cls-7" points="140.84 299.33 125.92 299.33 125.92 317.97 140.84 317.97 156.97 317.97 156.97 299.33 140.84 299.33"/><polygon class="cls-3" points="141.94 297.17 124.82 297.17 124.82 301.5 141.94 301.5 158.08 301.5 158.08 297.17 141.94 297.17"/><path class="cls-8" d="M130.1,308.63v-2.26a1.54,1.54,0,0,1,3.08,0v2.26Z"/><path class="cls-8" d="M136.61,308.63v-2.26a1.54,1.54,0,0,1,3.08,0v2.26Z"/><path class="cls-8" d="M143.18,308.63v-2.26a1.54,1.54,0,0,1,3.08,0v2.26Z"/><path class="cls-8" d="M149.74,308.63v-2.26a1.54,1.54,0,0,1,3.08,0v2.26Z"/><path class="cls-9" d="M392.56,330.6V320a6.35,6.35,0,1,1,12.67,0V330.6Z"/><path class="cls-8" d="M403.63,329.35v-8.9c0-3.32-1.83-6-4.74-6s-4.74,2.7-4.74,6v8.9Z"/><path class="cls-10" d="M403,329.35h-8.8v-8.74a7.18,7.18,0,0,1,1-3.94Z"/><path class="cls-9" d="M367.93,330.6V320a6.35,6.35,0,1,1,12.67,0V330.6Z"/><path class="cls-8" d="M379,329.35v-8.9c0-3.32-1.83-6-4.74-6s-4.74,2.7-4.74,6v8.9Z"/><path class="cls-10" d="M378.33,329.35h-8.8v-8.74a7.18,7.18,0,0,1,1-3.94Z"/><path class="cls-9" d="M343.3,330.6V320A6.35,6.35,0,1,1,356,320V330.6Z"/><path class="cls-8" d="M354.37,329.35v-8.9c0-3.32-1.83-6-4.74-6s-4.74,2.7-4.74,6v8.9Z"/><path class="cls-10" d="M353.7,329.35h-8.8v-8.74a7.18,7.18,0,0,1,1-3.94Z"/><polygon class="cls-7" points="291.88 241.72 303.17 241.72 303.17 241.75 306.94 241.75 306.94 305.38 288.11 305.38 288.11 241.75 291.88 241.75 291.88 241.72"/><rect class="cls-11" x="290.73" y="281.66" width="13.59" height="76.66" transform="translate(595.05 639.98) rotate(-180)"/><path class="cls-1" d="M297.52,233.69h0c5.12,0,9.28,3.89,9.41,8.43H288.11C288.25,237.59,292.4,233.69,297.52,233.69Z"/><polygon class="cls-7" points="421.76 245.5 421.77 245.45 421.77 152.68 426.21 124.9 426.21 114.62 428.43 114.62 428.43 124.9 432.86 152.68 432.86 245.45 421.76 245.5"/><polygon class="cls-7" points="432.86 245.45 421.77 245.45 416.33 276.47 438.17 276.47 432.86 245.45"/><rect class="cls-7" x="416.33" y="276.47" width="21.84" height="81.85" transform="translate(854.5 634.79) rotate(-180)"/><rect class="cls-5" x="415.82" y="275.49" width="22.85" height="1.05" transform="translate(854.5 552.03) rotate(-180)"/><rect class="cls-5" x="421.3" y="242.26" width="11.91" height="1.05" transform="translate(854.5 485.56) rotate(-180)"/><rect class="cls-5" x="421.3" y="189.56" width="11.91" height="1.05" transform="translate(854.5 380.17) rotate(-180)"/><rect class="cls-4" x="421.3" y="152.68" width="11.91" height="1.05" transform="translate(854.5 306.42) rotate(-180)"/><rect class="cls-5" x="421.3" y="178.13" width="11.91" height="5.83" transform="translate(854.5 362.09) rotate(-180)"/><polygon class="cls-1" points="426.21 124.91 428.43 124.91 432.86 152.68 421.77 152.68 426.21 124.91"/><path class="cls-1" d="M319.65,283.76h0c7.06,0,12.79,6.51,13,13h-26C306.86,290.26,312.59,283.76,319.65,283.76Z"/><polygon class="cls-7" points="320.76 298.94 335.67 298.94 335.67 305.45 320.76 305.45 304.63 305.45 304.63 298.94 320.76 298.94"/><polygon class="cls-3" points="319.65 296.77 336.78 296.77 336.78 301.11 319.65 301.11 303.52 301.11 303.52 296.77 319.65 296.77"/><path class="cls-8" d="M331.49,304.54v-1.49a1,1,0,0,0-2,0v1.49Z"/><path class="cls-8" d="M324.3,304.54v-1.49a1,1,0,0,0-2,0v1.49Z"/><path class="cls-8" d="M317.07,304.54v-1.49a1,1,0,0,0-2,0v1.49Z"/><path class="cls-8" d="M309.84,304.54v-1.49a1,1,0,0,0-2,0v1.49Z"/><path class="cls-9" d="M186.41,308.22v-5.47a3.27,3.27,0,1,0-6.52,0v5.47Z"/><path class="cls-8" d="M180.71,307.58V303c0-1.71.94-3.1,2.44-3.1s2.44,1.39,2.44,3.1v4.58Z"/><path class="cls-10" d="M181.06,307.58h4.52v-4.49a3.69,3.69,0,0,0-.51-2Z"/><path class="cls-9" d="M199.07,308.22v-5.47a3.27,3.27,0,1,0-6.52,0v5.47Z"/><path class="cls-8" d="M193.38,307.58V303c0-1.71.94-3.1,2.44-3.1s2.44,1.39,2.44,3.1v4.58Z"/><path class="cls-10" d="M193.72,307.58h4.52v-4.49a3.69,3.69,0,0,0-.51-2Z"/><path class="cls-9" d="M264.66,308.38v-5.47a3.27,3.27,0,1,0-6.52,0v5.47Z"/><path class="cls-8" d="M259,307.74v-4.58c0-1.71.94-3.1,2.44-3.1s2.44,1.39,2.44,3.1v4.58Z"/><path class="cls-10" d="M259.31,307.74h4.52v-4.49a3.69,3.69,0,0,0-.51-2Z"/><path class="cls-9" d="M277.11,308.38v-5.47a3.27,3.27,0,1,0-6.52,0v5.47Z"/><path class="cls-8" d="M271.42,307.74v-4.58c0-1.71.94-3.1,2.44-3.1s2.44,1.39,2.44,3.1v4.58Z"/><path class="cls-10" d="M271.77,307.74h4.52v-4.49a3.69,3.69,0,0,0-.51-2Z"/><polygon class="cls-3" points="230.55 274.05 168.46 274.05 168.46 278.49 230.55 278.49 292.64 278.49 292.64 274.05 230.55 274.05"/><path class="cls-1" d="M230.47,292.63h0c-12.65,0-22.92,10.81-23.25,21.62h46.51C253.39,303.43,243.12,292.63,230.47,292.63Z"/><polygon class="cls-7" points="228.47 315.71 201.74 315.71 201.74 326.52 228.47 326.52 257.39 326.52 257.39 315.71 228.47 315.71"/><polygon class="cls-3" points="230.46 314.24 199.76 314.24 199.76 315.84 230.46 315.84 259.38 315.84 259.38 314.24 230.46 314.24"/><polygon class="cls-3" points="230.4 326.52 201.74 326.52 201.74 333.73 230.4 333.73 257.39 333.73 257.39 326.52 230.4 326.52"/><path class="cls-8" d="M211.41,323.19v-2.47a1.5,1.5,0,1,1,3,0v2.47Z"/><path class="cls-8" d="M222,323.19v-2.47a1.5,1.5,0,1,1,3,0v2.47Z"/><path class="cls-8" d="M232.56,323.19v-2.47a1.5,1.5,0,1,1,3,0v2.47Z"/><path class="cls-8" d="M243.16,323.19v-2.47a1.5,1.5,0,1,1,3,0v2.47Z"/><polygon class="cls-7" points="228.47 329.63 201.74 329.63 201.74 352.14 228.47 352.14 257.39 352.14 257.39 329.63 228.47 329.63"/><path class="cls-1" d="M297.53,275h0a6.87,6.87,0,0,1,6.79,6.63H290.74A6.87,6.87,0,0,1,297.53,275Z"/><path class="cls-1" d="M163.57,275h0a6.87,6.87,0,0,0-6.79,6.63h13.58A6.87,6.87,0,0,0,163.57,275Z"/></svg>