<?xml version="1.0" encoding="utf-8"?>
<!-- Generator: Adobe Illustrator 20.1.0, SVG Export Plug-In . SVG Version: 6.00 Build 0)  -->
<!DOCTYPE svg PUBLIC "-//W3C//DTD SVG 1.1//EN" "http://www.w3.org/Graphics/SVG/1.1/DTD/svg11.dtd">
<svg version="1.1" id="Layer_1" xmlns="http://www.w3.org/2000/svg" xmlns:xlink="http://www.w3.org/1999/xlink" x="0px" y="0px"
	 viewBox="0 0 113.3 424" style="enable-background:new 0 0 113.3 424;" xml:space="preserve">
<style type="text/css">
	.st0{fill:#DA0100;}
	.st1{fill:#8A0000;}
	.st2{fill:#C4E1FD;}
	.st3{fill:#F1F1F1;}
	.st4{fill:#9F2E2E;}
	.st5{fill:#9A2424;}
</style>
<title>istanbul</title>
<rect x="5.7" y="212.6" class="st0" width="102" height="211.4"/>
<rect x="5.7" y="169.5" class="st0" width="102" height="34"/>
<rect x="5.7" y="140.1" class="st0" width="102" height="22.7"/>
<polygon class="st1" points="107.6,169.5 5.7,169.5 0,162.7 113.3,162.7 "/>
<polygon class="st1" points="107.6,212.6 5.7,212.6 0,203.5 113.3,203.5 "/>
<rect y="137.9" class="st1" width="113.3" height="2.3"/>
<polygon class="st2" points="107.6,169.5 5.7,169.5 4.7,168.4 108.6,168.4 "/>
<polygon class="st2" points="107.6,212.6 5.7,212.6 4.9,211.4 108.3,211.4 "/>
<rect x="27" y="100.7" class="st1" width="8.3" height="11.4"/>
<rect x="79.5" y="100.7" class="st1" width="6.8" height="11.4"/>
<rect x="27" y="99.6" class="st3" width="5.2" height="2.2"/>
<rect x="81.1" y="99.6" class="st3" width="5.2" height="2.2"/>
<polygon class="st0" points="55.9,35.9 96.3,137.9 17,137.9 "/>
<polygon class="st1" points="61.4,111.6 55.5,111.6 55.5,101.6 58.5,99.7 61.4,101.6 "/>
<polygon class="st3" points="58.5,100.3 60.4,102 62.4,102 58.5,98.5 54.5,102 56.5,102 "/>
<rect x="56.5" y="102.7" class="st4" width="4" height="7.9"/>
<polygon class="st5" points="55.5,106.3 54.8,106.3 54.5,106.3 54.5,102 55.5,102 "/>
<polygon class="st5" points="55.5,111.6 54.9,106.3 55.5,106.3 "/>
<circle class="st5" cx="56" cy="33.2" r="3.3"/>
<polygon class="st5" points="58.5,25.8 53.4,25.8 54.6,15.9 57.4,15.9 "/>
<polygon class="st5" points="58.5,25.8 53.4,25.8 55,28 57,28 "/>
<rect x="55.6" y="28" class="st5" width="0.7" height="2.3"/>
<rect x="55.4" class="st5" width="1.1" height="16.2"/>
<circle class="st5" cx="56" cy="13.8" r="1.3"/>
<circle class="st5" cx="56" cy="11.1" r="0.9"/>
<path class="st4" d="M74.4,228.9v-4.6c0-1.7,0.7-3.1,1.9-3.1s1.9,1.4,1.9,3.1v4.6H74.4z"/>
<path class="st4" d="M94,228.9v-4.6c0-1.7,0.7-3.1,1.9-3.1s1.9,1.4,1.9,3.1v4.6H94z"/>
<path class="st4" d="M72.6,254v-7.9c0-3,1.4-5.4,3.7-5.4s3.7,2.4,3.7,5.4v7.9H72.6z"/>
<path class="st4" d="M33.6,254v-7.9c0-3,1.4-5.4,3.7-5.4s3.7,2.4,3.7,5.4v7.9H33.6z"/>
<path class="st4" d="M54.8,228.9v-4.6c0-1.7,0.7-3.1,1.9-3.1s1.9,1.4,1.9,3.1v4.6H54.8z"/>
<path class="st4" d="M35.2,228.9v-4.6c0-1.7,0.7-3.1,1.9-3.1s1.9,1.4,1.9,3.1v4.6H35.2z"/>
<path class="st4" d="M15.5,228.9v-4.6c0-1.7,0.7-3.1,1.9-3.1s1.9,1.4,1.9,3.1v4.6H15.5z"/>
<path class="st1" d="M37.4,199.5v-17.6c0-4.6,3.3-8.4,7.9-8.4s7.9,3.8,7.9,8.4v17.6L37.4,199.5z"/>
<path class="st4" d="M43.2,182h4.3c0.9,0,1.7,0.8,1.7,1.7l0,0v14.8l0,0h-7.7l0,0v-14.8C41.5,182.8,42.2,182,43.2,182
	C43.2,182,43.2,182,43.2,182z"/>
<path class="st1" d="M14.7,199.5v-17.6c0-4.6,3.3-8.4,7.9-8.4s7.9,3.8,7.9,8.4v17.6L14.7,199.5z"/>
<path class="st4" d="M20.5,182.3h4.3c0.9,0,1.7,0.8,1.7,1.7l0,0v14.8l0,0h-7.7l0,0V184C18.8,183.1,19.6,182.3,20.5,182.3L20.5,182.3
	L20.5,182.3z"/>
<path class="st1" d="M5.6,175.9v23.5h2.3v-17.6C8,179.7,7.1,177.6,5.6,175.9z"/>
<path class="st1" d="M60,199.5v-17.6c0-4.6,3.3-8.4,7.9-8.4s7.9,3.8,7.9,8.4v17.6L60,199.5z"/>
<path class="st4" d="M65.8,182h4.3c0.9,0,1.7,0.8,1.7,1.7l0,0v14.8l0,0h-7.7l0,0v-14.8C64.1,182.8,64.9,182,65.8,182L65.8,182
	L65.8,182z"/>
<path class="st1" d="M82.7,199.5v-17.6c0-4.6,3.3-8.4,7.9-8.4s7.9,3.8,7.9,8.4v17.6L82.7,199.5z"/>
<path class="st4" d="M88.5,182h4.3c0.9,0,1.7,0.8,1.7,1.7l0,0v14.8l0,0h-7.7l0,0v-14.8C86.8,182.8,87.5,182,88.5,182L88.5,182
	L88.5,182z"/>
<path class="st1" d="M107.6,176c-1.4,1.6-2.2,3.7-2.2,5.9v17.6h2.2V176z"/>
<path class="st4" d="M52.8,158.1v-7.9c0-3,1.4-5.4,3.7-5.4s3.7,2.4,3.7,5.4v7.9H52.8z"/>
<path class="st4" d="M71.8,158.1v-7.9c0-3,1.4-5.4,3.7-5.4s3.7,2.4,3.7,5.4v7.9H71.8z"/>
<path class="st4" d="M90.3,158.1v-7.9c0-3,1.4-5.4,3.7-5.4s3.7,2.4,3.7,5.4v7.9H90.3z"/>
<path class="st4" d="M15.5,158v-7.9c0-3,1.4-5.4,3.7-5.4s3.7,2.4,3.7,5.4v7.9H15.5z"/>
<path class="st4" d="M34.1,158v-7.9c0-3,1.4-5.4,3.7-5.4s3.7,2.4,3.7,5.4v7.9H34.1z"/>
<rect x="52.1" y="247.4" class="st5" width="5.4" height="1.3"/>
<rect x="55.6" y="283.9" class="st5" width="5.4" height="1.3"/>
<rect x="58.4" y="285.6" class="st5" width="5.4" height="1.3"/>
<rect x="21.7" y="304.3" class="st5" width="5.4" height="1.3"/>
<rect x="24.4" y="306" class="st5" width="5.4" height="1.3"/>
<rect x="89.1" y="275.2" class="st5" width="5.4" height="1.3"/>
<rect x="37.9" y="340.1" class="st5" width="5.4" height="1.3"/>
<rect x="43.6" y="340.1" class="st5" width="5.4" height="1.3"/>
<rect x="40.9" y="338.5" class="st5" width="5.4" height="1.3"/>
<rect x="28" y="376.4" class="st5" width="5.4" height="1.3"/>
<rect x="33.7" y="376.4" class="st5" width="5.4" height="1.3"/>
<rect x="54.1" y="414.9" class="st5" width="5.4" height="1.3"/>
<rect x="8.8" y="392.2" class="st5" width="5.4" height="1.3"/>
<rect x="5.7" y="267.6" class="st5" width="5.1" height="1.3"/>
<rect x="11.1" y="267.6" class="st5" width="5.4" height="1.3"/>
<rect x="96.8" y="402.5" class="st5" width="5.4" height="1.3"/>
<rect x="93" y="400.9" class="st5" width="5.4" height="1.3"/>
<rect x="75" y="363.9" class="st5" width="5.4" height="1.3"/>
<rect x="72.3" y="362.2" class="st5" width="5.4" height="1.3"/>
<rect x="86.4" y="332.7" class="st5" width="5.4" height="1.3"/>
<rect x="78.1" y="306.9" class="st5" width="5.4" height="1.3"/>
<rect x="80.8" y="308.7" class="st5" width="5.4" height="1.3"/>
<rect x="64.5" y="123.4" class="st5" width="5.4" height="1.3"/>
<rect x="35.9" y="95.3" class="st5" width="5.4" height="1.3"/>
<rect x="67.2" y="125.2" class="st5" width="5.4" height="1.3"/>
<rect x="60" y="66.8" class="st5" width="5.4" height="1.3"/>
<rect x="62.7" y="68.6" class="st5" width="5.4" height="1.3"/>
</svg>
