<?xml version="1.0" encoding="utf-8"?>
<!-- Generator: Adobe Illustrator 20.1.0, SVG Export Plug-In . SVG Version: 6.00 Build 0)  -->
<!DOCTYPE svg PUBLIC "-//W3C//DTD SVG 1.1//EN" "http://www.w3.org/Graphics/SVG/1.1/DTD/svg11.dtd">
<svg version="1.1" id="Layer_1" xmlns="http://www.w3.org/2000/svg" xmlns:xlink="http://www.w3.org/1999/xlink" x="0px" y="0px"
	 viewBox="0 0 417.4 256.6" style="enable-background:new 0 0 417.4 256.6;" xml:space="preserve">
<style type="text/css">
	.st0{fill:#CDE6FD;}
	.st1{fill:#E02726;}
	.st2{fill:#D5A3A3;}
	.st3{fill:#F1F1F1;}
	.st4{fill:#C17878;}
	.st5{fill:#F4F4F4;}
	.st6{fill:#DD1514;}
	.st7{fill:#CCE5FD;}
	.st8{fill:#DA0100;}
	.st9{fill:#C4E1FD;}
	.st10{fill:#8A0000;}
</style>
<title>istanbul</title>
<path class="st0" d="M159.3,156.3C159.3,156.3,159.3,156.3,159.3,156.3c0-7.2-12.4-13-27.6-13c-15.3,0-27.6,5.8-27.6,12.9
	c0,0,0,0.1,0,0.1H159.3z"/>
<rect x="101.8" y="156.3" class="st1" width="55.3" height="20.8"/>
<rect x="101.8" y="156.3" class="st2" width="39" height="3"/>
<polygon class="st1" points="355,134.7 355,134.6 355,39.2 359.5,10.6 359.5,0 361.8,0 361.8,10.6 366.4,39.2 366.4,134.6 "/>
<polygon class="st1" points="366.4,134.6 355,134.6 349.4,166.5 371.9,166.5 "/>
<rect x="349.4" y="166.5" class="st1" width="22.5" height="31.1"/>
<rect x="348.8" y="165.5" class="st2" width="23.5" height="1.1"/>
<rect x="354.5" y="131.3" class="st2" width="12.2" height="1.1"/>
<rect x="354.5" y="77.1" class="st2" width="12.2" height="1.1"/>
<rect x="354.5" y="39.2" class="st3" width="12.2" height="1.1"/>
<rect x="354.5" y="65.3" class="st2" width="12.2" height="6"/>
<polygon class="st3" points="359.5,10.6 361.8,10.6 366.4,39.2 355,39.2 "/>
<polygon class="st4" points="328.7,139.1 328.7,139 328.7,43.6 333.3,15 333.3,4.4 335.6,4.4 335.6,15 340.1,43.6 340.1,139 "/>
<polygon class="st4" points="340.1,139 328.7,139 323.1,171 345.6,171 "/>
<rect x="323.1" y="171" class="st4" width="22.5" height="31.1"/>
<rect x="322.6" y="169.9" class="st0" width="23.5" height="1.1"/>
<rect x="328.3" y="135.8" class="st0" width="12.2" height="1.1"/>
<rect x="328.3" y="81.5" class="st0" width="12.2" height="1.1"/>
<rect x="328.3" y="43.6" class="st0" width="12.2" height="1.1"/>
<rect x="328.3" y="69.8" class="st0" width="12.2" height="6"/>
<polygon class="st5" points="333.3,15 335.6,15 340.1,43.6 328.7,43.6 "/>
<path class="st0" d="M259.1,156.3C259.1,156.3,259.1,156.3,259.1,156.3c0-7.2,12.4-13,27.6-13s27.6,5.8,27.6,12.9c0,0,0,0.1,0,0.1
	H259.1z"/>
<rect x="261.3" y="156.3" class="st1" width="55.3" height="20.8"/>
<rect x="277.6" y="156.3" class="st2" width="39" height="3"/>
<polygon class="st4" points="209.2,190 147.1,190 147.1,203.3 209.2,203.3 271.3,203.3 271.3,190 "/>
<polygon class="st6" points="207.6,207.9 18.5,207.9 18.5,256.6 207.6,256.6 395.5,256.6 395.5,207.9 "/>
<path class="st1" d="M214,79.1c0.2-2.2-1.4-3.9-1.9-4.5c-0.8-0.9-1.8-1.6-2.9-2c-1.2,0.4-2.2,1.2-3,2.1c-1.1,1.1-1.8,2.7-1.8,4.3
	c0.2,2.2,2.5,4.2,4.7,5v-0.2l0,0v0.2C211.5,83.1,213.8,81.2,214,79.1z"/>
<rect x="65.8" y="185.4" class="st2" width="288.6" height="11.7"/>
<polyline class="st4" points="35.6,196.1 18.5,203.4 18.5,207.9 54.9,207.9 54.9,196.1 35.6,196.1 "/>
<polygon class="st1" points="208.2,59.6 208.2,59.6 208.2,74.8 210.2,74.8 210.2,59.6 210.2,59.6 "/>
<path class="st0" d="M209.4,77.6H209c-30.2,0-54.7,22.4-54.7,50.3c0,0.1,0,0.1,0,0.2h109.8c0-0.1,0-0.1,0-0.2
	C264.1,100,239.6,77.6,209.4,77.6z"/>
<polygon class="st6" points="209.2,129.4 147.1,129.4 147.1,179.9 209.2,179.9 271.3,179.9 271.3,129.4 "/>
<path class="st0" d="M209.2,146.5L209.2,146.5c-27.6,0-50,12.2-50.7,26.4h101.4C259.2,158.7,236.8,146.5,209.2,146.5z"/>
<polygon class="st4" points="363.5,207.9 363.5,198.1 379.1,198.1 380.7,198.1 380.7,196.1 395.9,203.4 395.9,207.9 "/>
<polygon class="st4" points="211.8,196.1 42.9,196.1 42.9,207.9 211.8,207.9 380.8,207.9 380.8,196.1 "/>
<polygon class="st4" points="138.2,176.8 85.1,176.8 85.1,185.7 138.2,185.7 191.5,185.7 191.5,176.8 "/>
<polygon class="st2" points="209.2,125.8 147.1,125.8 147.1,130.2 209.2,130.2 271.3,130.2 271.3,125.8 "/>
<polygon class="st4" points="280.3,176.8 333.4,176.8 333.4,185.7 280.3,185.7 227,185.7 227,176.8 "/>
<polygon class="st6" points="209.2,176 147.1,176 147.1,190 209.2,190 271.3,190 271.3,176 "/>
<polygon class="st1" points="208.2,59.6 209.2,56.4 210.2,59.6 "/>
<path class="st7" d="M160.5,186.8v-4.1c0-1.5,0.8-2.8,2.2-2.8s2.2,1.2,2.2,2.8v4.1H160.5z"/>
<path class="st7" d="M176,186.8v-4.1c0-1.5,0.8-2.8,2.2-2.8s2.2,1.2,2.2,2.8v4.1H176z"/>
<path class="st7" d="M191.5,186.8v-4.1c0-1.5,0.8-2.8,2.2-2.8s2.2,1.2,2.2,2.8v4.1H191.5z"/>
<path class="st7" d="M207,186.8v-4.1c0-1.5,0.8-2.8,2.2-2.8s2.2,1.2,2.2,2.8v4.1H207z"/>
<path class="st7" d="M222.5,186.8v-4.1c0-1.5,0.8-2.8,2.2-2.8s2.2,1.2,2.2,2.8v4.1H222.5z"/>
<path class="st7" d="M238.1,186.8v-4.1c0-1.5,0.8-2.8,2.2-2.8s2.2,1.2,2.2,2.8v4.1H238.1z"/>
<path class="st7" d="M253.6,186.8v-4.1c0-1.5,0.8-2.8,2.2-2.8s2.2,1.2,2.2,2.8v4.1H253.6z"/>
<path class="st7" d="M160.5,142.3v-6.1c0-2.3,0.8-4.1,2.2-4.1s2.2,1.9,2.2,4.1v6.1H160.5z"/>
<path class="st7" d="M176,142.3v-6.1c0-2.3,0.8-4.1,2.2-4.1s2.2,1.9,2.2,4.1v6.1H176z"/>
<path class="st7" d="M191.6,142.3v-6.1c0-2.3,0.8-4.1,2.2-4.1s2.2,1.9,2.2,4.1v6.1H191.6z"/>
<path class="st7" d="M207,142.3v-6.1c0-2.3,0.8-4.1,2.2-4.1s2.2,1.9,2.2,4.1v6.1H207z"/>
<path class="st7" d="M222.5,142.3v-6.1c0-2.3,0.8-4.1,2.2-4.1s2.2,1.9,2.2,4.1v6.1H222.5z"/>
<path class="st7" d="M238.1,142.3v-6.1c0-2.3,0.8-4.1,2.2-4.1s2.2,1.9,2.2,4.1v6.1H238.1z"/>
<path class="st7" d="M253.6,142.3v-6.1c0-2.3,0.8-4.1,2.2-4.1s2.2,1.9,2.2,4.1v6.1H253.6z"/>
<polygon class="st2" points="209.2,141.3 147.1,141.3 147.1,145.8 209.2,145.8 271.3,145.8 271.3,141.3 "/>
<polygon class="st4" points="89.7,139.1 89.7,139 89.7,43.6 85.2,15 85.2,4.4 82.9,4.4 82.9,15 78.3,43.6 78.3,139 "/>
<polygon class="st4" points="78.3,139 89.7,139 95.3,171 72.8,171 "/>
<rect x="72.8" y="171" class="st4" width="22.5" height="31.1"/>
<rect x="72.3" y="170" class="st0" width="23.5" height="1.1"/>
<rect x="78" y="135.8" class="st0" width="12.2" height="1.1"/>
<rect x="78" y="81.5" class="st0" width="12.2" height="1.1"/>
<rect x="78" y="43.6" class="st0" width="12.2" height="1.1"/>
<rect x="78" y="69.8" class="st0" width="12.2" height="6"/>
<polygon class="st5" points="85.2,15 82.9,15 78.3,43.6 89.7,43.6 "/>
<polygon class="st1" points="63.5,134.7 63.5,134.6 63.5,39.2 58.9,10.6 58.9,0 56.6,0 56.6,10.6 52.1,39.2 52.1,134.6 "/>
<polygon class="st1" points="52.1,134.6 63.5,134.6 69.1,166.5 46.6,166.5 "/>
<rect x="46.6" y="166.5" class="st1" width="22.5" height="31.1"/>
<rect x="46.1" y="165.5" class="st2" width="23.5" height="1.1"/>
<rect x="51.7" y="131.3" class="st2" width="12.2" height="1.1"/>
<rect x="51.7" y="77.1" class="st2" width="12.2" height="1.1"/>
<rect x="51.7" y="39.2" class="st3" width="12.2" height="1.1"/>
<rect x="51.7" y="65.3" class="st2" width="12.2" height="6"/>
<polygon class="st3" points="58.9,10.6 56.6,10.6 52.1,39.2 63.5,39.2 "/>
<path class="st8" d="M47.2,228.9v-10.6c0.2-3.5-2.4-6.5-5.9-6.8c-3.5-0.2-6.5,2.4-6.8,5.9c0,0.3,0,0.6,0,0.9v10.6H47.2z"/>
<path class="st7" d="M36.2,227.7v-8.9c0-3.3,1.8-6,4.7-6s4.7,2.7,4.7,6v8.9H36.2z"/>
<path class="st9" d="M36.8,227.7h8.8v-8.7c0.1-1.4-0.3-2.8-1-3.9L36.8,227.7z"/>
<path class="st8" d="M71.8,228.9v-10.6c0.2-3.5-2.4-6.5-5.9-6.8c-3.5-0.2-6.5,2.4-6.8,5.9c0,0.3,0,0.6,0,0.9v10.6H71.8z"/>
<path class="st7" d="M60.8,227.7v-8.9c0-3.3,1.8-6,4.7-6s4.7,2.7,4.7,6v8.9H60.8z"/>
<path class="st9" d="M61.4,227.7h8.8v-8.7c0.1-1.4-0.3-2.8-1-3.9L61.4,227.7z"/>
<path class="st8" d="M96.5,228.9v-10.6c0.2-3.5-2.4-6.5-5.9-6.8c-3.5-0.2-6.5,2.4-6.8,5.9c0,0.3,0,0.6,0,0.9v10.6H96.5z"/>
<path class="st7" d="M85.4,227.7v-8.9c0-3.3,1.8-6,4.7-6s4.7,2.7,4.7,6v8.9H85.4z"/>
<path class="st9" d="M86.1,227.7h8.8v-8.7c0.1-1.4-0.3-2.8-1-3.9L86.1,227.7z"/>
<polygon class="st6" points="147.9,140 136.6,140 136.6,140.1 132.8,140.1 132.8,203.7 151.7,203.7 151.7,140.1 147.9,140.1 "/>
<rect x="135.5" y="180" class="st10" width="13.6" height="76.7"/>
<path class="st0" d="M142.3,132L142.3,132c-5.1,0-9.3,3.9-9.4,8.4h18.8C151.5,135.9,147.4,132,142.3,132z"/>
<polygon class="st6" points="16.9,143.8 16.9,143.8 16.9,51 12.5,23.2 12.5,12.9 10.2,12.9 10.2,23.2 5.8,51 5.8,143.8 "/>
<polygon class="st6" points="5.8,143.8 16.9,143.8 22.3,174.8 0.5,174.8 "/>
<rect x="0.5" y="174.8" class="st6" width="21.8" height="81.9"/>
<rect y="173.8" class="st4" width="22.8" height="1"/>
<rect x="5.5" y="140.6" class="st4" width="11.9" height="1.1"/>
<rect x="5.5" y="87.9" class="st4" width="11.9" height="1.1"/>
<rect x="5.5" y="51" class="st3" width="11.9" height="1.1"/>
<rect x="5.5" y="76.5" class="st4" width="11.9" height="5.8"/>
<polygon class="st0" points="12.5,23.2 10.2,23.2 5.8,51 16.9,51 "/>
<path class="st0" d="M120.6,182.5L120.6,182.5c-7.1,0-12.8,6.5-13,13h26C133.4,189,127.7,182.5,120.6,182.5z"/>
<polygon class="st6" points="119.5,197.6 104.6,197.6 104.6,216.3 119.5,216.3 135.6,216.3 135.6,197.6 "/>
<polygon class="st2" points="120.6,195.5 103.5,195.5 103.5,199.8 120.6,199.8 136.8,199.8 136.8,195.5 "/>
<path class="st7" d="M108.8,207v-2.3c0-0.9,0.7-1.5,1.5-1.5c0.9,0,1.5,0.7,1.5,1.5v2.3H108.8z"/>
<path class="st7" d="M115.3,207v-2.3c0-0.9,0.7-1.5,1.5-1.5c0.9,0,1.5,0.7,1.5,1.5v2.3H115.3z"/>
<path class="st7" d="M121.9,207v-2.3c0-0.9,0.7-1.5,1.5-1.5c0.9,0,1.5,0.7,1.5,1.5v2.3H121.9z"/>
<path class="st7" d="M128.4,207v-2.3c0-0.9,0.7-1.5,1.5-1.5c0.9,0,1.5,0.7,1.5,1.5v2.3H128.4z"/>
<path class="st8" d="M371.2,228.9v-10.6c-0.2-3.5,2.4-6.5,5.9-6.8c3.5-0.2,6.5,2.4,6.8,5.9c0,0.3,0,0.6,0,0.9v10.6H371.2z"/>
<path class="st7" d="M382.3,227.7v-8.9c0-3.3-1.8-6-4.7-6s-4.7,2.7-4.7,6v8.9H382.3z"/>
<path class="st9" d="M381.7,227.7h-8.8v-8.7c-0.1-1.4,0.3-2.8,1-3.9L381.7,227.7z"/>
<path class="st8" d="M346.6,228.9v-10.6c-0.2-3.5,2.4-6.5,5.9-6.8c3.5-0.2,6.5,2.4,6.8,5.9c0,0.3,0,0.6,0,0.9v10.6H346.6z"/>
<path class="st7" d="M357.7,227.7v-8.9c0-3.3-1.8-6-4.7-6s-4.7,2.7-4.7,6v8.9H357.7z"/>
<path class="st9" d="M357,227.7h-8.8v-8.7c-0.1-1.4,0.3-2.8,1-3.9L357,227.7z"/>
<path class="st8" d="M322,228.9v-10.6c0-3.5,2.8-6.4,6.4-6.4s6.4,2.8,6.4,6.4l0,0v10.6H322z"/>
<path class="st7" d="M333,227.7v-8.9c0-3.3-1.8-6-4.7-6s-4.7,2.7-4.7,6v8.9H333z"/>
<path class="st9" d="M332.4,227.7h-8.8v-8.7c-0.1-1.4,0.3-2.8,1-3.9L332.4,227.7z"/>
<polygon class="st6" points="270.6,140 281.9,140 281.9,140.1 285.6,140.1 285.6,203.7 266.8,203.7 266.8,140.1 270.6,140.1 "/>
<rect x="269.4" y="180" class="st10" width="13.6" height="76.7"/>
<path class="st0" d="M276.2,132L276.2,132c5.1,0,9.3,3.9,9.4,8.4h-18.8C266.9,135.9,271.1,132,276.2,132z"/>
<polygon class="st6" points="400.4,143.8 400.4,143.8 400.4,51 404.9,23.2 404.9,12.9 407.1,12.9 407.1,23.2 411.5,51 411.5,143.8 
	"/>
<polygon class="st6" points="411.5,143.8 400.4,143.8 395,174.8 416.9,174.8 "/>
<rect x="395" y="174.8" class="st6" width="21.8" height="81.9"/>
<rect x="394.5" y="173.8" class="st4" width="22.9" height="1"/>
<rect x="400" y="140.6" class="st4" width="11.9" height="1.1"/>
<rect x="400" y="87.9" class="st4" width="11.9" height="1.1"/>
<rect x="400" y="51" class="st3" width="11.9" height="1.1"/>
<rect x="400" y="76.4" class="st4" width="11.9" height="5.8"/>
<polygon class="st0" points="404.9,23.2 407.1,23.2 411.5,51 400.4,51 "/>
<path class="st0" d="M298.3,182.1L298.3,182.1c7.1,0,12.8,6.5,13,13h-26C285.5,188.6,291.3,182.1,298.3,182.1z"/>
<polygon class="st6" points="299.4,197.3 314.4,197.3 314.4,203.8 299.4,203.8 283.3,203.8 283.3,197.3 "/>
<polygon class="st2" points="298.3,195.1 315.5,195.1 315.5,199.4 298.3,199.4 282.2,199.4 282.2,195.1 "/>
<path class="st7" d="M310.2,202.9v-1.5c0-0.6-0.4-1-1-1s-1,0.4-1,1v1.5H310.2z"/>
<path class="st7" d="M303,202.9v-1.5c0-0.6-0.4-1-1-1s-1,0.4-1,1v1.5H303z"/>
<path class="st7" d="M295.8,202.9v-1.5c0-0.6-0.4-1-1-1s-1,0.4-1,1v1.5H295.8z"/>
<path class="st7" d="M288.5,202.9v-1.5c0-0.6-0.4-1-1-1s-1,0.4-1,1v1.5H288.5z"/>
<path class="st8" d="M165.1,206.5v-5.5c0.1-1.8-1.2-3.4-3-3.5s-3.4,1.2-3.5,3c0,0.2,0,0.3,0,0.5v5.5H165.1z"/>
<path class="st7" d="M159.4,205.9v-4.6c0-1.7,0.9-3.1,2.4-3.1s2.4,1.4,2.4,3.1v4.6H159.4z"/>
<path class="st9" d="M159.7,205.9h4.5v-4.5c0-0.7-0.2-1.4-0.5-2L159.7,205.9z"/>
<path class="st8" d="M177.8,206.5v-5.5c0.1-1.8-1.2-3.4-3-3.5s-3.4,1.2-3.5,3c0,0.2,0,0.3,0,0.5v5.5H177.8z"/>
<path class="st7" d="M172.1,205.9v-4.6c0-1.7,0.9-3.1,2.4-3.1s2.4,1.4,2.4,3.1v4.6H172.1z"/>
<path class="st9" d="M172.4,205.9h4.5v-4.5c0-0.7-0.2-1.4-0.5-2L172.4,205.9z"/>
<path class="st8" d="M243.3,206.7v-5.5c0.1-1.8-1.2-3.4-3-3.5s-3.4,1.2-3.5,3c0,0.2,0,0.3,0,0.5v5.5H243.3z"/>
<path class="st7" d="M237.7,206.1v-4.6c0-1.7,0.9-3.1,2.4-3.1s2.4,1.4,2.4,3.1v4.6H237.7z"/>
<path class="st9" d="M238,206.1h4.5v-4.5c0-0.7-0.2-1.4-0.5-2L238,206.1z"/>
<path class="st8" d="M255.8,206.7v-5.5c0.1-1.8-1.2-3.4-3-3.5s-3.4,1.2-3.5,3c0,0.2,0,0.3,0,0.5v5.5H255.8z"/>
<path class="st7" d="M250.1,206.1v-4.6c0-1.7,0.9-3.1,2.4-3.1s2.4,1.4,2.4,3.1v4.6H250.1z"/>
<path class="st9" d="M250.4,206.1h4.5v-4.5c0-0.7-0.2-1.4-0.5-2L250.4,206.1z"/>
<polygon class="st2" points="209.2,172.4 147.1,172.4 147.1,176.8 209.2,176.8 271.3,176.8 271.3,172.4 "/>
<path class="st0" d="M209.1,191L209.1,191c-12.6,0-22.9,10.8-23.2,21.6h46.5C232.1,201.8,221.8,191,209.1,191z"/>
<polygon class="st6" points="207.1,214 180.4,214 180.4,224.8 207.1,224.8 236.1,224.8 236.1,214 "/>
<polygon class="st2" points="209.1,212.6 178.4,212.6 178.4,214.2 209.1,214.2 238.1,214.2 238.1,212.6 "/>
<polygon class="st2" points="209.1,224.8 180.4,224.8 180.4,232.1 209.1,232.1 236.1,232.1 236.1,224.8 "/>
<path class="st7" d="M190.1,221.5V219c0-0.8,0.7-1.5,1.5-1.5s1.5,0.7,1.5,1.5v2.5H190.1z"/>
<path class="st7" d="M200.7,221.5V219c0-0.8,0.7-1.5,1.5-1.5s1.5,0.7,1.5,1.5v2.5H200.7z"/>
<path class="st7" d="M211.2,221.5V219c0-0.8,0.7-1.5,1.5-1.5s1.5,0.7,1.5,1.5v2.5H211.2z"/>
<path class="st7" d="M221.8,221.5V219c0-0.8,0.7-1.5,1.5-1.5s1.5,0.7,1.5,1.5v2.5H221.8z"/>
<polygon class="st6" points="207.1,228 180.4,228 180.4,250.5 207.1,250.5 236.1,250.5 236.1,228 "/>
<path class="st0" d="M276.2,173.3L276.2,173.3c3.7,0,6.7,3,6.8,6.6h-13.6C269.5,176.3,272.5,173.4,276.2,173.3z"/>
<path class="st0" d="M142.2,173.3L142.2,173.3c-3.7,0-6.7,3-6.8,6.6H149C148.9,176.3,145.9,173.4,142.2,173.3z"/>
</svg>
