<?xml version="1.0" encoding="utf-8"?>
<!-- Generator: Adobe Illustrator 20.1.0, SVG Export Plug-In . SVG Version: 6.00 Build 0)  -->
<!DOCTYPE svg PUBLIC "-//W3C//DTD SVG 1.1//EN" "http://www.w3.org/Graphics/SVG/1.1/DTD/svg11.dtd">
<svg version="1.1" id="Layer_1" xmlns="http://www.w3.org/2000/svg" xmlns:xlink="http://www.w3.org/1999/xlink" x="0px" y="0px"
	 viewBox="0 0 293.8 399.8" style="enable-background:new 0 0 293.8 399.8;" xml:space="preserve">
<style type="text/css">
	.st0{fill:#F5DAB4;}
	.st1{fill:#8A0000;}
	.st2{fill:#C4E1FD;}
	.st3{fill:#921212;}
	.st4{fill:#F5D8B1;}
	.st5{fill:#EBB162;}
	.st6{fill:#F8E4CA;}
</style>
<title>istanbul</title>
<polygon class="st0" points="260.2,305.1 260.3,305.1 260.3,305.1 260.3,305.1 260.3,305.1 194.4,305.1 194.4,311 260.2,311 
	267.7,311 "/>
<polygon class="st0" points="259.2,305.1 259.2,305.1 259.2,305.1 "/>
<rect x="89.2" y="194.6" class="st1" width="75.1" height="183.7"/>
<rect x="85.4" y="232.1" class="st2" width="15.5" height="110.1"/>
<rect x="89.2" y="194.6" class="st2" width="15.7" height="32"/>
<rect x="205.3" y="311" class="st3" width="60.9" height="67.3"/>
<polygon class="st0" points="27.2,325.3 27.2,325.3 27.2,325.3 27.2,325.3 27.2,325.3 76.3,325.3 76.3,337.3 27.2,337.3 21.7,337.3 
	"/>
<polygon class="st0" points="28,325.3 28,325.3 28,325.3 "/>
<rect x="98.7" y="306.2" class="st3" width="106.6" height="72.2"/>
<polygon class="st0" points="152,278.8 206,306.2 98,306.2 "/>
<rect x="65.4" y="337.3" class="st1" width="55.4" height="41"/>
<polygon class="st4" points="88.9,318.2 129.2,337.3 48.7,337.3 "/>
<rect x="48.7" y="337.3" class="st5" width="18.3" height="41"/>
<rect x="33" y="337.3" class="st3" width="16.7" height="41"/>
<rect x="118.7" y="314.5" class="st4" width="7.8" height="10.8"/>
<rect x="139.6" y="314.5" class="st4" width="7.8" height="10.8"/>
<rect x="160.5" y="314.5" class="st4" width="7.8" height="10.8"/>
<rect x="181.4" y="314.5" class="st4" width="7.8" height="10.8"/>
<rect x="87.1" y="188.1" class="st4" width="78.9" height="1.8"/>
<rect x="89.2" y="194.6" class="st4" width="75.1" height="1.8"/>
<rect x="76.6" y="342.2" class="st4" width="32.4" height="18.5"/>
<polygon class="st3" points="76.7,232 93.7,249.8 100.3,236.5 133.4,249.5 165.9,236.9 165.9,246.4 176.9,232 "/>
<path class="st2" d="M146.2,161.1c-5.1-7.5-5.1-19.2-5.1-19.2h-29.1c0,0,0,11.6-5.1,19.2c-15.6,13.1-14.6,27-14.6,27h68.5
	C160.9,188.1,161.8,174.2,146.2,161.1z"/>
<polygon class="st1" points="164.4,194.6 89.2,194.6 87.1,189.8 166,189.8 "/>
<polygon class="st2" points="100.9,194.6 89.2,194.6 87.1,189.8 100.9,189.8 "/>
<rect x="109.5" y="132.7" class="st4" width="34.1" height="9.2"/>
<rect x="120.3" y="123.5" class="st4" width="13" height="16.8"/>
<polygon class="st4" points="124.6,118.7 120.3,123.5 133.3,123.5 128.8,118.7 "/>
<polygon class="st4" points="128.8,118.7 124.6,118.7 125.5,34.7 127.9,34.7 "/>
<rect x="121.4" y="33" class="st4" width="10.4" height="1.7"/>
<path class="st4" d="M126.6,21.3c-1.7,0-4.5,2.8-4.5,6.6c0,2.4,1.1,5.4,2.4,5.4h4.3c1.2,0,2.4-3.1,2.4-5.5
	C131.1,24.1,128.3,21.3,126.6,21.3z"/>
<path class="st4" d="M128.2,22.4h-3c-0.3,0-0.6-0.3-0.6-0.6v0l0.4-11.1c0.4-0.7,0.9-1.2,1.6-1.6l0,0c0.7,0.3,1.3,0.9,1.7,1.5
	l0.5,11.1C128.9,22.1,128.6,22.4,128.2,22.4C128.3,22.4,128.2,22.4,128.2,22.4z"/>
<path class="st4" d="M126.4-10h0.7c0.1,0,0.2,0.1,0.2,0.2V9.7c0,0.1-0.1,0.2-0.2,0.2h-0.7c-0.1,0-0.2-0.1-0.2-0.2V-9.7
	C126.2-9.9,126.3-10,126.4-10z"/>
<path class="st4" d="M131.8,34v19.2c0,0,14.1,4.3,17.6,1.8s-1.1-6.8-1.1-6.8l-2-1.1c-0.5-3-2.3-5.6-5-7
	C138,38.3,134.9,36.3,131.8,34z"/>
<rect y="378.3" class="st4" width="293.8" height="21.5"/>
<rect x="113.9" y="203.5" class="st3" width="13.8" height="22.9"/>
<rect x="93.6" y="203.5" class="st4" width="6.9" height="22.9"/>
<rect x="142.6" y="203.5" class="st3" width="13.8" height="22.9"/>
<rect x="76.6" y="221.2" class="st0" width="100.3" height="10.9"/>
<path class="st1" d="M41.1,378.3H29.4c-3-2.9-5-5.5-5-8.9c0-5.2,4.9-9.9,10.9-9.9s10.9,4.9,10.9,10.1
	C46.1,372.9,44.1,375.4,41.1,378.3z"/>
<path class="st6" d="M35.8,359.5v18.8h-6.6c-3.3-2.6-5.2-5-5.2-8.6C23.9,364.1,27.9,359.6,35.8,359.5z"/>
<path class="st1" d="M49.3,378.3h-7.8c-2-1.9-3.3-3.7-3.3-5.9c0-3.5,3.2-6.6,7.2-6.6s7.2,3.3,7.2,6.7
	C52.7,374.8,51.3,376.4,49.3,378.3z"/>
<path class="st6" d="M46.2,365.8v12.5h-4.7c-2.2,0-3.3-3.3-3.3-5.7C38.1,368.9,41,365.9,46.2,365.8z"/>
<path class="st1" d="M126.5,378.3h-7.2c-2-1.9-3.9-3.7-3.9-5.9c0-3.5,3.2-6.6,7.2-6.6s7.2,3.3,7.2,6.7
	C129.8,374.8,128.5,376.4,126.5,378.3z"/>
<path class="st6" d="M123.3,365.9v12.5h-3.4c-2.2,0-4.6-3.3-4.6-5.7C115.3,368.9,118.1,365.9,123.3,365.9z"/>
</svg>
