<svg id="Layer_1" data-name="Layer 1" xmlns="http://www.w3.org/2000/svg" xmlns:xlink="http://www.w3.org/1999/xlink" viewBox="0 0 144 463"><defs><style>.cls-1{fill:#42005b;}.cls-2{fill:#84e895;}.cls-3{fill:#a100e2;}.cls-4{fill:#96eba5;}.cls-5{fill:url(#linear-gradient);}.cls-6{fill:url(#linear-gradient-2);}.cls-7{fill:url(#linear-gradient-3);}.cls-8{fill:url(#linear-gradient-4);}</style><linearGradient id="linear-gradient" x1="125.72" y1="285.73" x2="125.72" y2="282.79" gradientTransform="translate(251.45 568.52) rotate(180)" gradientUnits="userSpaceOnUse"><stop offset="0" stop-color="#42005b" stop-opacity="0"/><stop offset="0.09" stop-color="#460060" stop-opacity="0.04"/><stop offset="0.24" stop-color="#50006f" stop-opacity="0.15"/><stop offset="0.43" stop-color="#610086" stop-opacity="0.32"/><stop offset="0.66" stop-color="#7800a7" stop-opacity="0.57"/><stop offset="0.9" stop-color="#9500d1" stop-opacity="0.87"/><stop offset="1" stop-color="#a100e2"/></linearGradient><linearGradient id="linear-gradient-2" x1="834.09" y1="320.55" x2="834.09" y2="317.61" gradientTransform="translate(959.82 595.84) rotate(180)" xlink:href="#linear-gradient"/><linearGradient id="linear-gradient-3" x1="890.81" y1="285.73" x2="890.81" y2="282.79" gradientTransform="matrix(-1, 0, 0, 1, 910.96, 0)" xlink:href="#linear-gradient"/><linearGradient id="linear-gradient-4" x1="69" y1="320.55" x2="69" y2="317.61" gradientTransform="matrix(-1, 0, 0, 1, 89.15, -42.32)" xlink:href="#linear-gradient"/></defs><title>edinburgh_colouredlandmarks</title><path class="cls-1" d="M104.34,301.25V271.48l-2.83-9.12V242.31h1.21l.1-1.82-2.63-3.55V196.42s-2.33-12.76-3.75-12.76c-.8,0-1.42,3.67-1.42,3.67v-8.11a3.87,3.87,0,0,0,.68-2.31s1.87.13,1.87-4.12v-12.2a2.28,2.28,0,0,0,.81-2c0-1.56-.57-1.77-.57-1.77v-1h-5.2a1,1,0,0,0-1.2,1.1h-.76l-.85-22.77s.06-3.22,2.77-3.22v-1.41H92v-1.51l1.25-.8-2.07-.76H88.94s-1-.62-1-2.9v-7a6.66,6.66,0,0,1,.72-2.55c0-1.56,0-9,0-9L86.15,93.8H85l-2.24,11.11V94.69l1.56-1.6v-1l3.55-5.3L86.37,68.5l-1.83-3.82h-.77L82.2,68.5l-.69,7.23-1.13,0V71.16l2.22-6.48,0-4.9s-1.18-.85-.16-1.62c0-.68,0-1.52,0-1.52S81.33,55.23,82,55c.4-.18.44-1.59.44-1.59V46.87s-1.47-.38-1.23-1c.08-.35.66-.4.66-.4l-.95-4.85h-1.5V38.87l-1.56-1V31.8L73.71.94H72.16L68,31.8v6.08l-1.56,1v1.72h-1.5L64,45.43s.58.06.66.4c.23.66-1.23,1-1.23,1v6.54s0,1.41.44,1.59c.69.22-.39,1.63-.39,1.63s0,.84,0,1.52c1,.76-.16,1.62-.16,1.62l0,4.9,2.22,6.48v4.62l-1.13,0-.69-7.23-1.56-3.82h-.77L59.5,68.5,58,86.83l3.55,5.3v1l1.56,1.6v10.22L60.85,93.8H59.72l-2.5,11.11s0,7.47,0,9a6.66,6.66,0,0,1,.72,2.55v7c0,2.27-1,2.9-1,2.9H54.67l-2.07.76,1.25.8v1.51H53.3v1.41c2.71,0,2.77,3.22,2.77,3.22l-.85,22.77h-.76a1,1,0,0,0-1.2-1.1H48v1s-.57.21-.57,1.77a2.28,2.28,0,0,0,.81,2v12.2c0,4.25,1.87,4.12,1.87,4.12a3.87,3.87,0,0,0,.68,2.31v8.11s-.62-3.67-1.42-3.67c-1.42,0-3.75,12.76-3.75,12.76v40.51L43,240.48l.1,1.82h1.21v20.05l-2.83,9.12v29.77l-1.63,2.43v30H106v-30ZM67,195.79c0-5.63,5.71-7.93,5.94-8,.23.1,5.9,2.4,5.9,8h-2v17.48a18.53,18.53,0,0,1-.81,5.2A3.87,3.87,0,0,1,72.93,221a3.87,3.87,0,0,1-3.13-2.54,18.53,18.53,0,0,1-.81-5.2V195.8ZM69.87,61.16c1.88-1,2.22-3.72,2.22-3.72h1.71s.33,2.71,2.22,3.72-.21,2.09-.21,3v3.38s.75,2.39-.3,3.22c0,1.34-.7,3.9-2.56,4-1.87-.1-2.56-2.67-2.56-4-1-.83-.3-3.22-.3-3.22V64.16C70.07,63.25,68,62.16,69.87,61.16ZM78.21,302H67.66V278.83c0-3.23,2.4-11,5.27-11.08,2.87.13,5.27,7.85,5.27,11.08Zm1.19-61H66.47s-.13-7.07,1.86-7.07,1.65-.65,1.65-.65-1.77-.5-1.49-1,1-1.92,2.13-1.92a.94.94,0,0,0,.84-1.06c0-.68-.63-.82-.69-1.18s1.07-.29,1.07-.88.54-1.78,1.08-1.81S74,226.64,74,227.22s1.13.51,1.07.88-.69.5-.69,1.18a.94.94,0,0,0,.84,1.06c1.11,0,1.87,1.41,2.13,1.92s-1.49,1-1.49,1-.35.65,1.65.65S79.4,241,79.4,241Z"/><rect class="cls-1" x="104" y="326.98" width="30.68" height="6.5"/><rect class="cls-2" x="2.85" y="439.52" width="138.55" height="16.63"/><rect class="cls-2" x="55.03" y="242.33" width="2.32" height="80.77"/><rect class="cls-1" x="2.85" y="436.48" width="138.55" height="3.05"/><polygon class="cls-1" points="141.39 436.48 2.85 436.48 5.69 431.76 138.54 431.76 141.39 436.48"/><rect class="cls-1" x="0.84" y="456.15" width="142.55" height="5.85"/><path class="cls-1" d="M138.54,401.11v30.65H114.37V385.21a104,104,0,0,0-1-11.63c-1.15-8.87-3.14-18.67-5-18.67-1.67,0-3.72,9.8-4.92,18.67a98.5,98.5,0,0,0-1,11.63v46.55H87V376.17a20.61,20.61,0,0,0-.2-2.58c-1.21-9.2-7.77-27.72-13.65-27.72-5.38,0-12.35,18.52-13.64,27.72a18.82,18.82,0,0,0-.21,2.58v55.59H44V385.21a104,104,0,0,0-1-11.63c-1.15-8.87-3.14-18.67-5-18.67-1.67,0-3.72,9.8-4.92,18.67a98.5,98.5,0,0,0-1,11.63v46.55H5.7V401.11l2.39-1.65V370.7l2.49-2.16V340.88l.74-7.41h121.6l.74,7.41v27.66l2.49,2.16v28.77Z"/><path class="cls-3" d="M49.89,373.58H43.06c-1.15-8.87-3.14-18.67-5-18.67-1.67,0-3.72,9.8-4.92,18.67H26.29c1.29-11,7.21-31.85,11.79-31.85C43.11,341.73,48.69,362.63,49.89,373.58Z"/><path class="cls-3" d="M120.23,373.58H113.4c-1.15-8.87-3.14-18.67-5-18.67-1.67,0-3.72,9.8-4.92,18.67H96.65c1.28-11,7.2-31.85,11.78-31.85C113.45,341.73,119,362.63,120.23,373.58Z"/><rect class="cls-4" x="94.51" y="325.67" width="3.4" height="11.19"/><rect class="cls-4" x="127.62" y="325.67" width="4.42" height="9.15"/><rect class="cls-4" x="116.05" y="325.67" width="6.47" height="8.04"/><rect class="cls-4" x="97.91" y="325.67" width="37.26" height="1.3"/><rect class="cls-4" x="97.91" y="332.59" width="37.26" height="2.23"/><rect class="cls-1" x="94.51" y="336.86" width="1.7" height="36.72"/><path class="cls-3" d="M81.51,341.25c-8.39-14.22-8.4-19.45-8.4-19.45s0,5.58-9.28,20.91a59.16,59.16,0,0,0-6,9.33v0h0c-3.6,6.81-6.1,14.08-6.1,17.92v3.59h7.77c1.29-9.2,8.26-27.72,13.64-27.72,5.88,0,12.44,18.52,13.65,27.72h7.75V370C94.51,363.87,88.59,349,81.51,341.25Z"/><rect class="cls-4" x="134.19" y="326.32" width="0.98" height="7.38"/><rect class="cls-1" x="118.87" y="278.22" width="13.7" height="4.57"/><rect class="cls-1" x="120.96" y="264.83" width="9.4" height="10.91"/><rect class="cls-1" x="120.49" y="258.05" width="10.43" height="6.79"/><path class="cls-1" d="M120.14,275.29H131.3a1.27,1.27,0,0,1,1.27,1.27v1.66a0,0,0,0,1,0,0h-13.7a0,0,0,0,1,0,0v-1.66A1.27,1.27,0,0,1,120.14,275.29Z"/><path class="cls-1" d="M121.1,282.79h9.24a2.23,2.23,0,0,1,2.23,2.23v.7a0,0,0,0,1,0,0h-13.7a0,0,0,0,1,0,0V285A2.23,2.23,0,0,1,121.1,282.79Z" transform="translate(251.45 568.52) rotate(-180)"/><rect class="cls-1" x="120.55" y="284.61" width="10.47" height="34.78"/><rect class="cls-1" x="110.16" y="319.4" width="21.88" height="6.28"/><polygon class="cls-1" points="125.66 232.92 122.17 258.05 129.14 258.05 125.66 232.92"/><polygon class="cls-1" points="95.05 138.28 92.27 155.76 97.82 155.76 95.05 138.28"/><path class="cls-1" d="M131,294.57s2.35-1,2.35-4.74c.31-.92.5,0,.5,0v5.36c0,1.41,1.29.34,1.29,3s.17,4.48-1.39,4.68c-.41,0-.35-.78-.11-1.45,0-.94-1.39.39-1.51,1.27a4.82,4.82,0,0,1-1.14,2Z"/><path class="cls-5" d="M121.1,282.79h9.24a2.23,2.23,0,0,1,2.23,2.23v.7a0,0,0,0,1,0,0h-13.7a0,0,0,0,1,0,0V285A2.23,2.23,0,0,1,121.1,282.79Z" transform="translate(251.45 568.52) rotate(-180)"/><path class="cls-6" d="M120.24,275.29h11a1.37,1.37,0,0,1,1.37,1.37v1.56a0,0,0,0,1,0,0h-13.7a0,0,0,0,1,0,0v-1.56A1.37,1.37,0,0,1,120.24,275.29Z"/><rect class="cls-4" x="59.89" y="85.43" width="28.12" height="1.45"/><polygon class="cls-4" points="87.18 78.28 61.08 78.28 61.08 76.83 87.06 76.83 87.18 78.28"/><rect class="cls-4" x="77.69" y="73.77" width="2.1" height="12.09"/><polygon class="cls-4" points="79.78 73.77 77.69 73.77 78.73 66.88 78.73 66.88 79.78 73.77"/><polygon class="cls-1" points="94.51 332.75 94.51 326.63 75.02 307.11 75.02 314.92 94.51 332.75"/><rect class="cls-4" x="69.38" y="315.98" width="30.23" height="0.82" transform="translate(248.47 32.92) rotate(45)"/><rect class="cls-3" x="77.24" y="279.94" width="5.78" height="2.43" rx="0.93" ry="0.93"/><polygon class="cls-1" points="104.34 271.48 105.97 271.48 105.97 278.01 107.46 276 108.66 277.2 106.33 279.92 106.33 290.32 102.96 284.61 104.34 271.48"/><rect class="cls-4" x="70.14" y="323.89" width="30.23" height="1.94" transform="translate(254.68 34.87) rotate(45)"/><path class="cls-3" d="M120.55,287.94s-.09,2.74-4.69,9.76c-3.4-3.07-17.84-14-18.54-34.08H94.37V302s2.33-8.25,7.57-5.42,11.33,9.76,12,16.29c0,3.53-.09,6.52-.09,6.52h6.66Z"/><path class="cls-1" d="M72.75,283.73l-2.55,11h5.42l-2.55-11A.17.17,0,0,0,72.75,283.73Z"/><rect class="cls-1" x="11.19" y="326.98" width="30.68" height="6.5" transform="translate(53.05 660.45) rotate(-180)"/><rect class="cls-4" x="47.96" y="325.67" width="3.4" height="11.19" transform="translate(99.32 662.53) rotate(-180)"/><rect class="cls-4" x="13.83" y="325.67" width="4.42" height="9.15" transform="translate(32.07 660.49) rotate(-180)"/><rect class="cls-4" x="23.35" y="325.67" width="6.47" height="8.04" transform="translate(53.17 659.38) rotate(-180)"/><rect class="cls-4" x="10.7" y="325.67" width="37.26" height="1.3" transform="translate(58.66 652.65) rotate(-180)"/><rect class="cls-4" x="10.7" y="326.32" width="0.98" height="7.38" transform="translate(22.37 660.03) rotate(-180)"/><rect class="cls-1" x="13.29" y="278.22" width="13.7" height="4.57" transform="translate(40.29 561.02) rotate(-180)"/><rect class="cls-1" x="15.51" y="264.83" width="9.4" height="10.91" transform="translate(40.42 540.57) rotate(-180)"/><rect class="cls-1" x="14.94" y="258.05" width="10.43" height="6.79" transform="translate(40.32 522.88) rotate(-180)"/><path class="cls-1" d="M13.29,275.29H27a0,0,0,0,1,0,0V277a1.27,1.27,0,0,1-1.27,1.27H14.56A1.27,1.27,0,0,1,13.29,277v-1.66A0,0,0,0,1,13.29,275.29Z" transform="translate(40.29 553.51) rotate(-180)"/><path class="cls-1" d="M13.29,282.79H27a0,0,0,0,1,0,0v.7a2.23,2.23,0,0,1-2.23,2.23H15.52a2.23,2.23,0,0,1-2.23-2.23v-.7A0,0,0,0,1,13.29,282.79Z"/><rect class="cls-1" x="14.85" y="284.61" width="10.47" height="34.78" transform="translate(40.16 604.01) rotate(-180)"/><rect class="cls-1" x="13.83" y="319.4" width="21.88" height="6.28" transform="translate(49.54 645.07) rotate(-180)"/><polygon class="cls-1" points="20.21 232.92 23.7 258.05 16.72 258.05 20.21 232.92"/><polygon class="cls-1" points="50.82 138.28 53.6 155.76 48.05 155.76 50.82 138.28"/><polygon class="cls-2" points="65.13 141.5 67.91 152.33 62.36 152.33 65.13 141.5"/><polygon class="cls-2" points="80.68 141.9 83.46 152.73 77.91 152.73 80.68 141.9"/><path class="cls-1" d="M14.85,294.57s-2.35-1-2.35-4.74c-.31-.92-.5,0-.5,0v5.36c0,1.41-1.29.34-1.29,3s-.17,4.48,1.39,4.68c.41,0,.35-.78.11-1.45,0-.94,1.39.39,1.51,1.27a4.82,4.82,0,0,0,1.14,2Z"/><path class="cls-7" d="M13.29,282.79H27a0,0,0,0,1,0,0v.7a2.23,2.23,0,0,1-2.23,2.23H15.52a2.23,2.23,0,0,1-2.23-2.23v-.7A0,0,0,0,1,13.29,282.79Z"/><path class="cls-8" d="M13.29,275.29H27a0,0,0,0,1,0,0v1.56a1.37,1.37,0,0,1-1.37,1.37h-11a1.37,1.37,0,0,1-1.37-1.37v-1.56A0,0,0,0,1,13.29,275.29Z" transform="translate(40.29 553.51) rotate(-180)"/><path class="cls-3" d="M81.89,45.44l-.95-4.85h-.66l-2.91,6L73,38.31v-.08l0,0,0,0v.08l-4.42,8.31-2.91-6h-.66L64,45.44s1.5.67-.57,1.43v7.76l.44.39L66,52.58,68.32,55l2.94-2.46,1.65,2.4V55l0,0,0,0v-.06l1.65-2.4L77.55,55l2.28-2.43L82,55l.44-.39V46.87C80.39,46.1,81.89,45.44,81.89,45.44Z"/><rect class="cls-4" x="57.85" y="85.43" width="28.12" height="1.45" transform="translate(143.83 172.31) rotate(-180)"/><polygon class="cls-4" points="58.69 78.28 84.78 78.28 84.78 76.83 58.81 76.83 58.69 78.28"/><rect class="cls-4" x="66.08" y="73.77" width="2.1" height="12.09" transform="translate(134.26 159.62) rotate(-180)"/><polygon class="cls-4" points="66.08 73.77 68.18 73.77 67.13 66.88 67.13 66.88 66.08 73.77"/><polygon class="cls-1" points="51.35 332.75 51.35 326.63 70.84 307.11 70.84 314.92 51.35 332.75"/><rect class="cls-4" x="46.26" y="315.98" width="30.23" height="0.82" transform="translate(328.5 496.71) rotate(135)"/><rect class="cls-3" x="64.77" y="251.91" width="0.59" height="21.73"/><rect class="cls-3" x="80.54" y="251.91" width="0.59" height="21.73"/><path class="cls-3" d="M73,261.45h0c-4.71.17-8.62,10.71-8.62,15.13V302h3.37V278.83c0-3.23,2.4-11,5.27-11.07,2.87.12,5.27,7.84,5.27,11.07V302h3.37v-25.4C81.58,272.17,77.67,261.62,73,261.45Z"/><rect class="cls-3" x="62.85" y="279.94" width="5.78" height="2.43" rx="0.93" ry="0.93" transform="translate(131.47 562.32) rotate(-180)"/><polygon class="cls-2" points="72.96 244.06 72.91 244.06 61.38 244.06 61.38 249.29 72.91 249.29 72.96 249.29 84.49 249.29 84.49 244.06 72.96 244.06"/><polygon class="cls-3" points="72.96 245.08 72.91 245.08 62.84 245.08 62.84 248.26 72.91 248.26 72.96 248.26 83.02 248.26 83.02 245.08 72.96 245.08"/><polygon class="cls-1" points="41.52 271.48 39.9 271.48 39.9 278.01 38.4 276 37.21 277.2 39.54 279.92 39.54 290.32 42.9 284.61 41.52 271.48"/><rect class="cls-4" x="45.5" y="323.89" width="30.23" height="1.94" transform="translate(333.19 511.71) rotate(135)"/><path class="cls-3" d="M25.32,287.94s.09,2.74,4.69,9.76c3.4-3.07,17.84-14,18.54-34.08h2.94V302s-2.33-8.25-7.57-5.42-11.33,9.76-12,16.29c0,3.53.09,6.52.09,6.52H25.32Z"/><rect class="cls-4" x="10.7" y="332.59" width="37.26" height="2.23"/><rect class="cls-4" x="70.2" y="292.06" width="5.42" height="29.25" rx="2.06" ry="2.06"/><path class="cls-1" d="M75.62,301.15v-6.38a2.71,2.71,0,0,0-5.42,0v6.38l2.71-2.66Z"/><rect class="cls-2" x="53.76" y="200.32" width="5.03" height="43.03"/><rect class="cls-2" x="88.49" y="242.33" width="2.32" height="80.77"/><rect class="cls-2" x="87.23" y="200.32" width="5.03" height="43.03"/><polygon class="cls-2" points="81.13 251.91 64.77 251.91 61.38 249.29 84.49 249.29 81.13 251.91"/><rect class="cls-3" x="64.77" y="251.91" width="5.83" height="3.73"/><rect class="cls-3" x="75.3" y="251.91" width="5.83" height="3.73"/><rect class="cls-1" x="70.4" y="286.37" width="5.02" height="0.97" rx="0.37" ry="0.37"/><path class="cls-3" d="M79.14,185.73l-.31,10.07c0-5.64-5.67-7.94-5.9-8-.23.1-5.94,2.4-5.94,8l-.74-6.9,4-7,2.39-2,1.81.6Z"/><path class="cls-2" d="M82.56,188.31s-1-9.65-9.65-14.51c-8.66,4.87-9.65,14.51-9.65,14.51l-.84,53.12h4.11l.51-51s.6-4.83,5.87-9.16c5.27,4.33,5.87,9.16,5.87,9.16l.51,51H83.4Z"/><path class="cls-3" d="M54.65,171.77H48.11a.63.63,0,1,0,0,1.27h6.54Z"/><path class="cls-3" d="M54.65,173v3.88l-4.49,0s-1.87.18-1.87-4.12h6.36Z"/><path class="cls-3" d="M92,171.77h6.54a.63.63,0,1,1,0,1.27H92Z"/><rect class="cls-3" x="62.42" y="168.65" width="5.43" height="6.82" rx="2.06" ry="2.06"/><rect class="cls-3" x="77.97" y="168.65" width="5.43" height="6.82" rx="2.06" ry="2.06"/><path class="cls-3" d="M92,173v3.88l4.49,0s1.87.18,1.87-4.12H92Z"/><rect class="cls-2" x="62.42" y="161.41" width="20.98" height="10.36"/><rect class="cls-3" x="62.42" y="163.24" width="20.98" height="6.77"/><polygon class="cls-2" points="62.36 152.33 62.42 161.41 67.91 161.41 67.91 152.33 62.36 152.33"/><rect class="cls-4" x="60.28" y="133.17" width="0.7" height="38.6"/><path class="cls-3" d="M74.71,152.76v8.64H71.1v-8.64a1.81,1.81,0,1,1,3.61,0Z"/><rect class="cls-4" x="56.82" y="133.17" width="0.7" height="38.6"/><rect class="cls-4" x="88.32" y="133.17" width="0.7" height="38.6"/><rect class="cls-4" x="84.86" y="133.17" width="0.7" height="38.6"/><rect class="cls-2" x="77.91" y="152.73" width="5.49" height="8.68"/><rect class="cls-4" x="61.53" y="92.13" width="22.8" height="0.96"/><rect class="cls-4" x="68.77" y="92.61" width="1.41" height="68.8"/><rect class="cls-4" x="75.69" y="92.61" width="1.41" height="68.8"/><rect class="cls-4" x="81.99" y="92.61" width="0.7" height="36.85"/><rect class="cls-4" x="63.18" y="92.61" width="0.7" height="36.85"/><path class="cls-3" d="M53.3,129.46v1.41s2.81.64,2.81,3.22H89.8v-.49c.33-2.16,2.77-2.73,2.77-2.73v-1.41Z"/><rect class="cls-3" x="69.79" y="9.21" width="6.28" height="4.6" rx="1" ry="1"/></svg>