<svg id="Layer_1" data-name="Layer 1" xmlns="http://www.w3.org/2000/svg" xmlns:xlink="http://www.w3.org/1999/xlink" viewBox="0 0 422 143"><defs><style>.cls-1{fill:#d9a0fb;}.cls-2{fill:#a56317;}.cls-3{fill:#cab467;}.cls-4{fill:#e4bdfc;}.cls-5{fill:#c1a74d;}.cls-6{fill:url(#linear-gradient);}.cls-7{fill:url(#linear-gradient-2);}.cls-8{fill:url(#linear-gradient-3);}.cls-9{fill:#b49529;}.cls-10{fill:url(#linear-gradient-4);}.cls-11{fill:url(#linear-gradient-5);}.cls-12{fill:url(#linear-gradient-6);}</style><linearGradient id="linear-gradient" x1="319.22" y1="93.64" x2="336.67" y2="93.64" gradientUnits="userSpaceOnUse"><stop offset="0" stop-color="#e4bdfc" stop-opacity="0"/><stop offset="0.11" stop-color="#e2bbf2" stop-opacity="0.05"/><stop offset="0.29" stop-color="#dbb6d5" stop-opacity="0.18"/><stop offset="0.51" stop-color="#d1ada7" stop-opacity="0.4"/><stop offset="0.77" stop-color="#c2a167" stop-opacity="0.71"/><stop offset="1" stop-color="#b49529"/></linearGradient><linearGradient id="linear-gradient-2" x1="387.69" y1="93.58" x2="391.27" y2="93.58" gradientUnits="userSpaceOnUse"><stop offset="0" stop-color="#e4bdfc" stop-opacity="0"/><stop offset="0.13" stop-color="#e3bcf8" stop-opacity="0.02"/><stop offset="0.27" stop-color="#e1bbeb" stop-opacity="0.1"/><stop offset="0.42" stop-color="#dcb8d6" stop-opacity="0.22"/><stop offset="0.58" stop-color="#d7b5b9" stop-opacity="0.38"/><stop offset="0.75" stop-color="#cfb094" stop-opacity="0.6"/><stop offset="0.92" stop-color="#c6aa66" stop-opacity="0.85"/><stop offset="1" stop-color="#c1a74d"/></linearGradient><linearGradient id="linear-gradient-3" x1="-796.11" y1="56.19" x2="-792.53" y2="56.19" gradientTransform="translate(-428.12 149.77) rotate(180)" xlink:href="#linear-gradient-2"/><linearGradient id="linear-gradient-4" x1="-813.91" y1="93.64" x2="-796.45" y2="93.64" gradientTransform="matrix(-1, 0, 0, 1, -711, 0)" xlink:href="#linear-gradient"/><linearGradient id="linear-gradient-5" x1="-745.44" y1="93.58" x2="-741.86" y2="93.58" gradientTransform="matrix(-1, 0, 0, 1, -711, 0)" xlink:href="#linear-gradient-2"/><linearGradient id="linear-gradient-6" x1="337.02" y1="56.19" x2="340.6" y2="56.19" gradientTransform="matrix(1, 0, 0, -1, -282.88, 149.77)" xlink:href="#linear-gradient-2"/></defs><title>edinburgh_colouredlandmarks</title><rect class="cls-1" x="71.74" y="120.84" width="273.2" height="20.08"/><rect class="cls-1" x="299.08" y="5.34" width="0.98" height="0.98" rx="0.1" ry="0.1"/><rect class="cls-2" x="299.26" y="6.32" width="0.61" height="33.81"/><path class="cls-1" d="M299.26,11.29l-.39.18a13.93,13.93,0,0,0-2.39,1.43l-1.61,1.2a.34.34,0,0,1-.52-.28V10.77l.14-.27,2.26-1.6c.08-.05.72-.5.81-.55l1.7-.91Z"/><ellipse class="cls-3" cx="210.86" cy="50.1" rx="1.59" ry="2.05"/><polygon class="cls-3" points="92.37 37.27 97.57 40.41 100.94 49.67 100.94 52.9 89.33 49.33 92.37 37.27"/><polygon class="cls-4" points="142.5 51.5 149.17 51.5 149.17 35.4 142.5 32.36 142.5 51.5"/><rect class="cls-1" x="139.2" y="32.36" width="3.3" height="19.14"/><polygon class="cls-4" points="113.24 47.63 116.22 47.63 116.22 27.36 113.24 24.68 113.24 47.63"/><rect class="cls-1" x="110.87" y="24.68" width="2.37" height="13.68"/><polygon class="cls-4" points="118.59 51.15 121.57 51.15 121.57 30.88 118.59 28.2 118.59 51.15"/><rect class="cls-1" x="116.22" y="28.2" width="2.37" height="13.68"/><rect class="cls-4" x="153.62" y="51.5" width="115.96" height="13.12"/><rect class="cls-4" x="219.94" y="58.63" width="3.32" height="4.3" transform="translate(443.19 121.56) rotate(-180)"/><rect class="cls-4" x="198.57" y="58.63" width="3.32" height="4.3"/><polygon class="cls-3" points="255.09 80.22 166.27 80.22 166.27 63.79 195.39 63.79 210.68 57.24 225.97 63.79 255.09 63.79 255.09 80.22"/><rect class="cls-1" x="100.94" y="51.5" width="40.03" height="28.72"/><path class="cls-2" d="M180.64,44.22l-2.75-4.57a1.34,1.34,0,0,0-2,0l-2.75,4.57Z"/><rect class="cls-4" x="125.95" y="64.62" width="6.73" height="14.01"/><rect class="cls-2" x="132.18" y="64.62" width="0.88" height="14.01"/><rect class="cls-2" x="125.95" y="64.62" width="7.12" height="0.72"/><rect class="cls-2" x="125.95" y="65.14" width="0.43" height="13.5"/><rect class="cls-2" x="128.06" y="65.14" width="0.43" height="13.5"/><rect class="cls-2" x="130.12" y="65.14" width="0.43" height="13.5"/><rect class="cls-2" x="126.24" y="74.81" width="6.25" height="0.47"/><rect class="cls-2" x="126.24" y="78.17" width="6.25" height="0.47"/><rect class="cls-2" x="126.24" y="71.46" width="6.25" height="0.47"/><rect class="cls-2" x="126.24" y="68.11" width="6.25" height="0.47"/><rect class="cls-4" x="107.51" y="64.62" width="6.73" height="14.01"/><rect class="cls-2" x="113.74" y="64.62" width="0.88" height="14.01"/><rect class="cls-2" x="107.51" y="64.62" width="7.12" height="0.72"/><rect class="cls-2" x="107.51" y="65.14" width="0.43" height="13.5"/><rect class="cls-2" x="109.62" y="65.14" width="0.43" height="13.5"/><rect class="cls-2" x="111.68" y="65.14" width="0.43" height="13.5"/><rect class="cls-2" x="107.8" y="74.81" width="6.25" height="0.47"/><rect class="cls-2" x="107.8" y="78.17" width="6.25" height="0.47"/><rect class="cls-2" x="107.8" y="71.46" width="6.25" height="0.47"/><rect class="cls-2" x="107.8" y="68.11" width="6.25" height="0.47"/><rect class="cls-4" x="169.53" y="70.42" width="3.95" height="8.21"/><rect class="cls-2" x="173.18" y="70.42" width="0.52" height="8.21"/><rect class="cls-2" x="169.53" y="70.42" width="4.17" height="0.42"/><rect class="cls-2" x="169.53" y="70.72" width="0.25" height="7.91"/><rect class="cls-2" x="170.76" y="70.72" width="0.25" height="7.91"/><rect class="cls-2" x="171.97" y="70.72" width="0.25" height="7.91"/><rect class="cls-2" x="169.7" y="76.39" width="3.66" height="0.27"/><rect class="cls-2" x="169.7" y="78.36" width="3.66" height="0.27"/><rect class="cls-2" x="169.7" y="74.43" width="3.66" height="0.27"/><rect class="cls-2" x="169.7" y="72.46" width="3.66" height="0.27"/><rect class="cls-4" x="177.91" y="70.42" width="3.95" height="8.21"/><rect class="cls-2" x="181.56" y="70.42" width="0.52" height="8.21"/><rect class="cls-2" x="177.91" y="70.42" width="4.17" height="0.42"/><rect class="cls-2" x="177.91" y="70.72" width="0.25" height="7.91"/><rect class="cls-2" x="179.14" y="70.72" width="0.25" height="7.91"/><rect class="cls-2" x="180.35" y="70.72" width="0.25" height="7.91"/><rect class="cls-2" x="178.08" y="76.39" width="3.66" height="0.27"/><rect class="cls-2" x="178.08" y="78.36" width="3.66" height="0.27"/><rect class="cls-2" x="178.08" y="74.43" width="3.66" height="0.27"/><rect class="cls-2" x="178.08" y="72.46" width="3.66" height="0.27"/><rect class="cls-4" x="186.29" y="70.42" width="3.95" height="8.21"/><rect class="cls-2" x="189.94" y="70.42" width="0.52" height="8.21"/><rect class="cls-2" x="186.29" y="70.42" width="4.17" height="0.42"/><rect class="cls-2" x="186.29" y="70.72" width="0.25" height="7.91"/><rect class="cls-2" x="187.52" y="70.72" width="0.25" height="7.91"/><rect class="cls-2" x="188.73" y="70.72" width="0.25" height="7.91"/><rect class="cls-2" x="186.46" y="76.39" width="3.66" height="0.27"/><rect class="cls-2" x="186.46" y="78.36" width="3.66" height="0.27"/><rect class="cls-2" x="186.46" y="74.43" width="3.66" height="0.27"/><rect class="cls-2" x="186.46" y="72.46" width="3.66" height="0.27"/><rect class="cls-4" x="229.87" y="70.42" width="3.95" height="8.21"/><rect class="cls-2" x="233.52" y="70.42" width="0.52" height="8.21"/><rect class="cls-2" x="229.87" y="70.42" width="4.17" height="0.42"/><rect class="cls-2" x="229.87" y="70.72" width="0.25" height="7.91"/><rect class="cls-2" x="231.1" y="70.72" width="0.25" height="7.91"/><rect class="cls-2" x="232.31" y="70.72" width="0.25" height="7.91"/><rect class="cls-2" x="230.04" y="76.39" width="3.66" height="0.27"/><rect class="cls-2" x="230.04" y="78.36" width="3.66" height="0.27"/><rect class="cls-2" x="230.04" y="74.43" width="3.66" height="0.27"/><rect class="cls-2" x="230.04" y="72.46" width="3.66" height="0.27"/><rect class="cls-4" x="238.25" y="70.42" width="3.95" height="8.21"/><rect class="cls-2" x="241.9" y="70.42" width="0.52" height="8.21"/><rect class="cls-2" x="238.25" y="70.42" width="4.17" height="0.42"/><rect class="cls-2" x="238.25" y="70.72" width="0.25" height="7.91"/><rect class="cls-2" x="239.48" y="70.72" width="0.25" height="7.91"/><rect class="cls-2" x="240.69" y="70.72" width="0.25" height="7.91"/><rect class="cls-2" x="238.42" y="76.39" width="3.66" height="0.27"/><rect class="cls-2" x="238.42" y="78.36" width="3.66" height="0.27"/><rect class="cls-2" x="238.42" y="74.43" width="3.66" height="0.27"/><rect class="cls-2" x="238.42" y="72.46" width="3.66" height="0.27"/><rect class="cls-4" x="246.63" y="70.42" width="3.95" height="8.21"/><rect class="cls-2" x="250.28" y="70.42" width="0.52" height="8.21"/><rect class="cls-2" x="246.63" y="70.42" width="4.17" height="0.42"/><rect class="cls-2" x="246.63" y="70.72" width="0.25" height="7.91"/><rect class="cls-2" x="247.87" y="70.72" width="0.25" height="7.91"/><rect class="cls-2" x="249.07" y="70.72" width="0.25" height="7.91"/><rect class="cls-2" x="246.8" y="76.39" width="3.66" height="0.27"/><rect class="cls-2" x="246.8" y="78.36" width="3.66" height="0.27"/><rect class="cls-2" x="246.8" y="74.43" width="3.66" height="0.27"/><rect class="cls-2" x="246.8" y="72.46" width="3.66" height="0.27"/><rect class="cls-4" x="125.95" y="54.57" width="6.73" height="5.91"/><rect class="cls-2" x="132.18" y="54.57" width="0.88" height="5.91"/><rect class="cls-2" x="125.95" y="54.57" width="7.12" height="0.72"/><rect class="cls-2" x="125.95" y="54.78" width="0.43" height="5.69"/><rect class="cls-2" x="128.06" y="55.08" width="0.43" height="5.23"/><rect class="cls-2" x="130.12" y="55.08" width="0.43" height="5.23"/><rect class="cls-2" x="126.19" y="56.14" width="6.25" height="0.34"/><rect class="cls-2" x="126.19" y="57.52" width="6.25" height="0.34"/><rect class="cls-2" x="126.19" y="58.85" width="6.25" height="0.34"/><rect class="cls-2" x="126.19" y="60.14" width="6.25" height="0.34"/><line class="cls-2" x1="126.19" y1="56.48" x2="132.44" y2="56.48"/><rect class="cls-4" x="107.51" y="54.57" width="6.73" height="5.91"/><rect class="cls-2" x="113.74" y="54.57" width="0.88" height="5.91"/><rect class="cls-2" x="107.51" y="54.57" width="7.12" height="0.72"/><rect class="cls-2" x="107.51" y="54.78" width="0.43" height="5.69"/><rect class="cls-2" x="109.62" y="55.08" width="0.43" height="5.23"/><rect class="cls-2" x="111.68" y="55.08" width="0.43" height="5.23"/><rect class="cls-2" x="107.75" y="56.14" width="6.25" height="0.34"/><rect class="cls-2" x="107.75" y="57.52" width="6.25" height="0.34"/><rect class="cls-2" x="107.75" y="58.85" width="6.25" height="0.34"/><rect class="cls-2" x="107.75" y="60.14" width="6.25" height="0.34"/><line class="cls-2" x1="107.75" y1="56.48" x2="114" y2="56.48"/><polygon class="cls-1" points="140.97 51.5 166.27 63.79 166.27 80.22 140.97 80.22 140.97 51.5"/><polygon class="cls-2" points="140.97 51.5 129.31 36.16 104 36.16 104 38.76 128.49 38.76 136.37 49.67 100.94 49.67 100.94 51.5 140.97 51.5"/><polygon class="cls-3" points="103.32 49.67 136.37 49.67 128.49 38.76 104 38.76 103.32 49.67"/><polygon class="cls-4" points="97.57 49.67 104.24 49.67 104.24 30.38 97.57 26.73 97.57 49.67"/><rect class="cls-1" x="94.27" y="26.73" width="3.3" height="13.68"/><polygon class="cls-2" points="129.31 36.16 155.61 50.95 162.68 56.48 133.67 41.89 129.31 36.16"/><polygon class="cls-3" points="140.97 51.5 133.67 41.89 162.68 56.48 162.68 62.04 140.97 51.5"/><rect class="cls-5" x="167.13" y="41.89" width="2.39" height="9.61"/><path class="cls-5" d="M199.93,51.5h-6.15V41.23l.17-.06a8.6,8.6,0,0,1,5.81,0l.17.06Z"/><rect class="cls-1" x="173.36" y="44.22" width="7.28" height="7.28"/><rect class="cls-5" x="198.57" y="39.22" width="0.43" height="2.5"/><rect class="cls-5" x="194.79" y="39.22" width="0.43" height="2.5"/><rect class="cls-5" x="195.72" y="38.65" width="0.88" height="2.5"/><rect class="cls-5" x="168.12" y="39.42" width="0.43" height="2.72"/><path class="cls-2" d="M243.41,44.22l2.75-4.57a1.34,1.34,0,0,1,2,0l2.75,4.57Z"/><rect class="cls-5" x="254.52" y="41.89" width="2.39" height="9.61" transform="translate(511.44 93.39) rotate(-180)"/><path class="cls-5" d="M224.12,51.5h6.15V41.23l-.17-.06a8.6,8.6,0,0,0-5.81,0l-.17.06Z"/><rect class="cls-1" x="243.41" y="44.22" width="7.28" height="7.28" transform="translate(494.1 95.72) rotate(-180)"/><rect class="cls-5" x="225.04" y="39.22" width="0.43" height="2.5" transform="translate(450.52 80.94) rotate(-180)"/><rect class="cls-5" x="228.83" y="39.22" width="0.43" height="2.5" transform="translate(458.09 80.94) rotate(-180)"/><rect class="cls-5" x="227.45" y="38.65" width="0.88" height="2.5" transform="translate(455.79 79.8) rotate(-180)"/><rect class="cls-5" x="255.5" y="39.42" width="0.43" height="2.72" transform="translate(511.44 81.57) rotate(-180)"/><rect class="cls-2" x="169.65" y="57.24" width="7.26" height="6.54"/><polygon class="cls-2" points="173.28 54.69 169.65 57.24 176.91 57.24 173.28 54.69"/><polygon class="cls-1" points="173.31 55.39 170.63 57.24 176 57.24 173.31 55.39"/><rect class="cls-1" x="170.43" y="58.63" width="1.07" height="4.3"/><rect class="cls-1" x="175.13" y="58.63" width="1.07" height="4.3"/><rect class="cls-1" x="172.78" y="58.63" width="1.07" height="4.3"/><rect class="cls-2" x="186.41" y="57.24" width="7.26" height="6.54"/><polygon class="cls-2" points="190.04 54.69 186.41 57.24 193.67 57.24 190.04 54.69"/><polygon class="cls-1" points="190.08 55.39 187.39 57.24 192.76 57.24 190.08 55.39"/><rect class="cls-1" x="187.19" y="58.63" width="1.07" height="4.3"/><rect class="cls-1" x="191.89" y="58.63" width="1.07" height="4.3"/><rect class="cls-1" x="189.54" y="58.63" width="1.07" height="4.3"/><rect class="cls-2" x="244.92" y="57.24" width="7.26" height="6.54" transform="translate(497.09 121.03) rotate(-180)"/><polygon class="cls-2" points="248.55 54.69 252.18 57.24 244.92 57.24 248.55 54.69"/><polygon class="cls-1" points="248.51 55.39 251.2 57.24 245.83 57.24 248.51 55.39"/><rect class="cls-1" x="250.33" y="58.63" width="1.07" height="4.3" transform="translate(501.73 121.56) rotate(-180)"/><rect class="cls-1" x="245.63" y="58.63" width="1.07" height="4.3" transform="translate(492.33 121.56) rotate(-180)"/><rect class="cls-1" x="247.98" y="58.63" width="1.07" height="4.3" transform="translate(497.03 121.56) rotate(-180)"/><rect class="cls-2" x="228.16" y="57.24" width="7.26" height="6.54" transform="translate(463.57 121.03) rotate(-180)"/><polygon class="cls-2" points="231.78 54.69 235.41 57.24 228.16 57.24 231.78 54.69"/><polygon class="cls-1" points="231.75 55.39 234.44 57.24 229.07 57.24 231.75 55.39"/><rect class="cls-1" x="233.57" y="58.63" width="1.07" height="4.3" transform="translate(468.21 121.56) rotate(-180)"/><rect class="cls-1" x="228.86" y="58.63" width="1.07" height="4.3" transform="translate(458.8 121.56) rotate(-180)"/><rect class="cls-1" x="231.22" y="58.63" width="1.07" height="4.3" transform="translate(463.51 121.56) rotate(-180)"/><path class="cls-1" d="M216.57,81.22V57.68a5.71,5.71,0,0,0-11.43,0V81.22Z"/><path class="cls-3" d="M216.54,57.88V55.31a5.71,5.71,0,0,0-11.43,0v2.57Z"/><polygon class="cls-4" points="336.53 139.39 330.68 136.32 319.22 129.75 319.22 53.53 336.67 47.9 336.53 139.39"/><polygon class="cls-6" points="336.53 139.39 330.68 136.32 319.22 129.75 319.22 53.53 336.67 47.9 336.53 139.39"/><path class="cls-4" d="M364.45,46.23v94.69H341.59c-3.26,0-10.9-4.6-10.9-4.6V46.23l2.63-.38a98.73,98.73,0,0,1,28.5,0Z"/><polygon class="cls-1" points="378.74 39.75 372.08 39.75 372.08 31.06 378.74 29.24 378.74 39.75"/><rect class="cls-3" x="378.74" y="29.24" width="3.43" height="10.51"/><rect class="cls-5" x="363.6" y="38.7" width="25.86" height="8.69"/><rect class="cls-1" x="393.44" y="30.06" width="21.81" height="10.57"/><path class="cls-5" d="M421,46.95s-.29,1.5-2.91,2.68c0-1.34,0-2.91,0-2.91Z"/><rect class="cls-4" x="364.41" y="46.23" width="26.85" height="94.69"/><rect class="cls-7" x="387.69" y="46.23" width="3.58" height="94.69"/><rect class="cls-8" x="364.41" y="46.23" width="3.58" height="94.69"/><rect class="cls-2" x="373.81" y="52.1" width="8.07" height="5.7"/><rect class="cls-2" x="373.81" y="61.73" width="8.07" height="16.69"/><rect class="cls-2" x="373.81" y="94.33" width="8.07" height="20.63"/><rect class="cls-2" x="338.61" y="52.1" width="8.07" height="5.7"/><rect class="cls-2" x="338.61" y="61.73" width="8.07" height="16.69"/><rect class="cls-2" x="338.61" y="94.33" width="8.07" height="20.63"/><rect class="cls-1" x="364.41" y="58.66" width="26.86" height="0.84"/><rect class="cls-1" x="364.41" y="85.47" width="26.86" height="0.84"/><rect class="cls-1" x="364.41" y="114.96" width="26.86" height="0.84"/><path class="cls-4" d="M418.08,46.23v94.69H391.23V46.23l6.16-.37a121.64,121.64,0,0,1,14.53,0Z"/><rect class="cls-1" x="391.23" y="58.66" width="26.86" height="0.84"/><rect class="cls-1" x="391.23" y="85.47" width="26.86" height="0.84"/><rect class="cls-1" x="391.23" y="114.96" width="26.86" height="0.84"/><rect class="cls-1" x="330.69" y="58.66" width="33.77" height="0.84"/><rect class="cls-1" x="330.69" y="85.47" width="33.77" height="0.84"/><rect class="cls-1" x="330.69" y="114.96" width="33.77" height="0.84"/><path class="cls-1" d="M377.84,120.84a4.32,4.32,0,0,0-4.32,4.31v15.77h8.65V125.15A4.32,4.32,0,0,0,377.84,120.84Z"/><path class="cls-3" d="M381.33,125.15v15.77h-7V125.15a3.49,3.49,0,0,1,3.49-3.47,3.49,3.49,0,0,1,3.49,3.47Z"/><path class="cls-5" d="M387.69,46.95a8.12,8.12,0,0,0,3.54,2.68c0-1.34,0-3,0-3Z"/><path class="cls-3" d="M414,35.34v3.11h-5.89V35.12q-3.78-.08-7.56,0v3.33h-5.89V35.34l-7,.54V46.95l7.12-.54a126.81,126.81,0,0,1,19.7,0l6.49.52V35.89Z"/><polygon class="cls-3" points="329.75 37.27 324.56 40.41 321.18 49.67 321.18 52.9 332.79 49.33 329.75 37.27"/><polygon class="cls-4" points="279.63 51.5 272.96 51.5 272.96 35.4 279.63 32.36 279.63 51.5"/><rect class="cls-1" x="279.63" y="32.36" width="3.3" height="19.14" transform="translate(562.55 83.86) rotate(-180)"/><polygon class="cls-4" points="311.86 47.63 308.88 47.63 308.88 27.36 311.86 24.68 311.86 47.63"/><rect class="cls-1" x="311.86" y="24.68" width="2.37" height="13.68" transform="translate(626.09 63.05) rotate(-180)"/><polygon class="cls-4" points="306.52 51.15 303.54 51.15 303.54 30.88 306.52 28.2 306.52 51.15"/><rect class="cls-1" x="306.52" y="28.2" width="2.37" height="13.68" transform="translate(615.4 70.09) rotate(-180)"/><rect class="cls-1" x="281.15" y="51.5" width="40.03" height="28.72" transform="translate(602.34 131.72) rotate(-180)"/><rect class="cls-4" x="289.45" y="64.62" width="6.73" height="14.01" transform="translate(585.62 143.26) rotate(180)"/><rect class="cls-2" x="289.06" y="64.62" width="0.88" height="14.01" transform="translate(579.01 143.26) rotate(180)"/><rect class="cls-2" x="289.06" y="64.62" width="7.12" height="0.72" transform="translate(585.24 129.97) rotate(180)"/><rect class="cls-2" x="295.75" y="65.14" width="0.43" height="13.5" transform="translate(591.92 143.77) rotate(180)"/><rect class="cls-2" x="293.64" y="65.14" width="0.43" height="13.5" transform="translate(587.71 143.77) rotate(180)"/><rect class="cls-2" x="291.57" y="65.14" width="0.43" height="13.5" transform="translate(583.58 143.77) rotate(180)"/><rect class="cls-2" x="289.64" y="74.81" width="6.25" height="0.47" transform="translate(585.52 150.09) rotate(180)"/><rect class="cls-2" x="289.64" y="78.17" width="6.25" height="0.47" transform="translate(585.52 156.8) rotate(180)"/><rect class="cls-2" x="289.64" y="71.46" width="6.25" height="0.47" transform="translate(585.52 143.39) rotate(180)"/><rect class="cls-2" x="289.64" y="68.11" width="6.25" height="0.47" transform="translate(585.52 136.68) rotate(180)"/><rect class="cls-4" x="307.88" y="64.62" width="6.73" height="14.01" transform="translate(622.5 143.26) rotate(180)"/><rect class="cls-2" x="307.5" y="64.62" width="0.88" height="14.01" transform="translate(615.88 143.26) rotate(180)"/><rect class="cls-2" x="307.5" y="64.62" width="7.12" height="0.72" transform="translate(622.11 129.97) rotate(180)"/><rect class="cls-2" x="314.18" y="65.14" width="0.43" height="13.5" transform="translate(628.8 143.77) rotate(180)"/><rect class="cls-2" x="312.07" y="65.14" width="0.43" height="13.5" transform="translate(624.58 143.77) rotate(180)"/><rect class="cls-2" x="310.01" y="65.14" width="0.43" height="13.5" transform="translate(620.46 143.77) rotate(180)"/><rect class="cls-2" x="308.07" y="74.81" width="6.25" height="0.47" transform="translate(622.4 150.09) rotate(180)"/><rect class="cls-2" x="308.07" y="78.17" width="6.25" height="0.47" transform="translate(622.4 156.8) rotate(180)"/><rect class="cls-2" x="308.07" y="71.46" width="6.25" height="0.47" transform="translate(622.4 143.39) rotate(180)"/><rect class="cls-2" x="308.07" y="68.11" width="6.25" height="0.47" transform="translate(622.4 136.68) rotate(180)"/><rect class="cls-4" x="289.45" y="54.57" width="6.73" height="5.91" transform="translate(585.62 115.05) rotate(180)"/><rect class="cls-2" x="289.06" y="54.57" width="0.88" height="5.91" transform="translate(579.01 115.05) rotate(180)"/><rect class="cls-2" x="289.06" y="54.57" width="7.12" height="0.72" transform="translate(585.24 109.85) rotate(180)"/><rect class="cls-2" x="295.75" y="54.78" width="0.43" height="5.69" transform="translate(591.92 115.26) rotate(-180)"/><rect class="cls-2" x="293.64" y="55.08" width="0.43" height="5.23" transform="translate(587.71 115.39) rotate(180)"/><rect class="cls-2" x="291.57" y="55.08" width="0.43" height="5.23" transform="translate(583.58 115.39) rotate(180)"/><rect class="cls-2" x="289.69" y="56.14" width="6.25" height="0.34" transform="translate(585.62 112.62) rotate(180)"/><rect class="cls-2" x="289.69" y="57.52" width="6.25" height="0.34" transform="translate(585.62 115.38) rotate(180)"/><rect class="cls-2" x="289.69" y="58.85" width="6.25" height="0.34" transform="translate(585.62 118.04) rotate(180)"/><rect class="cls-2" x="289.69" y="60.14" width="6.25" height="0.34" transform="translate(585.62 120.62) rotate(180)"/><rect class="cls-4" x="307.88" y="54.57" width="6.73" height="5.91" transform="translate(622.5 115.05) rotate(180)"/><rect class="cls-2" x="307.5" y="54.57" width="0.88" height="5.91" transform="translate(615.88 115.05) rotate(180)"/><rect class="cls-2" x="307.5" y="54.57" width="7.12" height="0.72" transform="translate(622.11 109.85) rotate(180)"/><rect class="cls-2" x="314.18" y="54.78" width="0.43" height="5.69" transform="translate(628.8 115.26) rotate(180)"/><rect class="cls-2" x="312.07" y="55.08" width="0.43" height="5.23" transform="translate(624.58 115.39) rotate(180)"/><rect class="cls-2" x="310.01" y="55.08" width="0.43" height="5.23" transform="translate(620.46 115.39) rotate(180)"/><rect class="cls-2" x="308.12" y="56.14" width="6.25" height="0.34" transform="translate(622.5 112.62) rotate(180)"/><rect class="cls-2" x="308.12" y="57.52" width="6.25" height="0.34" transform="translate(622.5 115.38) rotate(180)"/><rect class="cls-2" x="308.12" y="58.85" width="6.25" height="0.34" transform="translate(622.5 118.04) rotate(180)"/><rect class="cls-2" x="308.12" y="60.14" width="6.25" height="0.34" transform="translate(622.5 120.62) rotate(180)"/><polygon class="cls-1" points="281.15 51.5 255.09 63.79 255.09 80.22 281.15 80.22 281.15 51.5"/><polygon class="cls-2" points="281.15 51.5 292.81 36.16 318.12 36.16 318.12 38.76 293.64 38.76 285.76 49.67 321.18 49.67 321.18 51.5 281.15 51.5"/><polygon class="cls-3" points="318.8 49.67 285.76 49.67 293.64 38.76 318.12 38.76 318.8 49.67"/><polygon class="cls-4" points="324.56 49.67 317.88 49.67 317.88 30.38 324.56 26.73 324.56 49.67"/><rect class="cls-1" x="324.56" y="26.73" width="3.3" height="13.68" transform="translate(652.41 67.14) rotate(-180)"/><polygon class="cls-2" points="292.81 36.16 266.51 50.95 259.45 56.48 288.46 41.89 292.81 36.16"/><polygon class="cls-3" points="281.15 51.5 288.46 41.89 259.45 56.48 259.45 62.04 281.15 51.5"/><polygon class="cls-2" points="393.44 30.06 404.34 9.52 415.25 30.06 393.44 30.06"/><rect class="cls-2" x="404.12" y="2.02" width="0.55" height="10.84"/><circle class="cls-1" cx="404.37" cy="6.14" r="0.92"/><rect class="cls-1" x="336.66" y="30.02" width="21.81" height="10.57"/><polygon class="cls-2" points="336.66 30.02 347.57 9.48 358.47 30.02 336.66 30.02"/><rect class="cls-2" x="347.34" y="1.98" width="0.55" height="10.84"/><circle class="cls-1" cx="347.59" cy="6.1" r="0.92"/><path class="cls-3" d="M357.91,35.34v3.11h-6.3V35.12q-4-.08-8.08,0v3.33h-6.3V35.34l-7.48.54V46.95l7.62-.54a145.05,145.05,0,0,1,21.07,0l6.94.52V35.89Z"/><path class="cls-5" d="M365.39,46.95a2.34,2.34,0,0,1-.93,1c0-.4,0-1,0-1Z"/><path class="cls-5" d="M329.75,46.95a2.34,2.34,0,0,0,.93,1c0-.4,0-1,0-1Z"/><rect class="cls-4" x="102.91" y="83.28" width="216.31" height="46.46"/><rect class="cls-9" x="102.91" y="74.76" width="216.31" height="6.37"/><rect class="cls-2" x="338.61" y="129.75" width="4.04" height="6.04"/><polygon class="cls-4" points="85.59 139.39 91.44 136.32 102.91 129.75 102.91 53.53 85.45 47.9 85.59 139.39"/><polygon class="cls-10" points="85.59 139.39 91.44 136.32 102.91 129.75 102.91 53.53 85.45 47.9 85.59 139.39"/><path class="cls-4" d="M57.68,46.23v94.69H80.54c3.26,0,10.9-4.6,10.9-4.6V46.23l-2.63-.38a98.73,98.73,0,0,0-28.5,0Z"/><polygon class="cls-1" points="43.39 39.75 50.05 39.75 50.05 31.06 43.39 29.24 43.39 39.75"/><rect class="cls-3" x="39.95" y="29.24" width="3.43" height="10.51" transform="translate(83.34 68.99) rotate(-180)"/><rect class="cls-5" x="32.66" y="38.7" width="25.86" height="8.69" transform="translate(91.19 86.09) rotate(-180)"/><rect class="cls-1" x="6.88" y="30.06" width="21.81" height="10.57" transform="translate(35.56 70.7) rotate(-180)"/><rect class="cls-4" x="30.86" y="46.23" width="26.85" height="94.69"/><rect class="cls-11" x="30.86" y="46.23" width="3.58" height="94.69"/><rect class="cls-12" x="54.13" y="46.23" width="3.58" height="94.69"/><rect class="cls-2" x="40.25" y="52.1" width="8.07" height="5.7" transform="translate(88.57 109.89) rotate(-180)"/><rect class="cls-2" x="40.25" y="61.73" width="8.07" height="16.69" transform="translate(88.57 140.14) rotate(-180)"/><rect class="cls-2" x="40.25" y="94.33" width="8.07" height="20.63" transform="translate(88.57 209.29) rotate(-180)"/><rect class="cls-2" x="75.45" y="52.1" width="8.07" height="5.7" transform="translate(158.96 109.89) rotate(-180)"/><rect class="cls-2" x="75.45" y="61.73" width="8.07" height="16.69" transform="translate(158.96 140.14) rotate(-180)"/><rect class="cls-2" x="75.45" y="94.33" width="8.07" height="20.63" transform="translate(158.96 209.29) rotate(-180)"/><rect class="cls-1" x="30.85" y="58.66" width="26.86" height="0.84" transform="translate(88.57 118.15) rotate(-180)"/><rect class="cls-1" x="30.85" y="85.47" width="26.86" height="0.84" transform="translate(88.57 171.79) rotate(-180)"/><rect class="cls-1" x="30.85" y="114.96" width="26.86" height="0.84" transform="translate(88.57 230.76) rotate(-180)"/><path class="cls-4" d="M4,46.23v94.69H30.89V46.23l-6.16-.37a121.64,121.64,0,0,0-14.53,0Z"/><rect class="cls-1" x="4.03" y="58.66" width="26.86" height="0.84" transform="translate(34.93 118.15) rotate(-180)"/><rect class="cls-1" x="4.03" y="85.47" width="26.86" height="0.84" transform="translate(34.93 171.79) rotate(-180)"/><rect class="cls-1" x="4.03" y="114.96" width="26.86" height="0.84" transform="translate(34.93 230.76) rotate(-180)"/><rect class="cls-1" x="57.67" y="58.66" width="33.77" height="0.84" transform="translate(149.11 118.15) rotate(-180)"/><rect class="cls-1" x="57.67" y="85.47" width="33.77" height="0.84" transform="translate(149.11 171.79) rotate(-180)"/><rect class="cls-1" x="57.67" y="114.96" width="33.77" height="0.84" transform="translate(149.11 230.76) rotate(-180)"/><path class="cls-5" d="M34.44,46.95a8.12,8.12,0,0,1-3.54,2.68c0-1.34,0-3,0-3Z"/><path class="cls-3" d="M8.11,35.34v3.11H14V35.12q3.78-.08,7.56,0v3.33h5.89V35.34l7,.54V46.95l-7.12-.54a126.81,126.81,0,0,0-19.7,0l-6.49.52V35.89Z"/><polygon class="cls-2" points="28.69 30.06 17.78 9.52 6.88 30.06 28.69 30.06"/><rect class="cls-2" x="17.46" y="2.02" width="0.55" height="10.84" transform="translate(35.47 14.88) rotate(-180)"/><circle class="cls-1" cx="17.76" cy="6.14" r="0.92"/><rect class="cls-1" x="63.65" y="30.02" width="21.81" height="10.57" transform="translate(149.11 70.62) rotate(-180)"/><polygon class="cls-2" points="85.46 30.02 74.56 9.48 63.65 30.02 85.46 30.02"/><rect class="cls-2" x="74.23" y="1.98" width="0.55" height="10.84" transform="translate(149.02 14.8) rotate(-180)"/><circle class="cls-1" cx="74.53" cy="6.1" r="0.92"/><path class="cls-3" d="M64.21,35.34v3.11h6.3V35.12q4-.08,8.08,0v3.33h6.3V35.34l7.48.54V46.95l-7.62-.54a145.05,145.05,0,0,0-21.07,0l-6.94.52V35.89Z"/><path class="cls-5" d="M56.74,46.95a2.34,2.34,0,0,0,.93,1c0-.4,0-1,0-1Z"/><path class="cls-5" d="M92.37,46.95a2.34,2.34,0,0,1-.93,1c0-.4,0-1,0-1Z"/><rect class="cls-2" x="79.48" y="129.75" width="4.04" height="6.04" transform="translate(163 265.53) rotate(-180)"/><rect class="cls-4" x="308.65" y="91.44" width="6.73" height="14.01"/><rect class="cls-2" x="314.88" y="91.44" width="0.88" height="14.01"/><rect class="cls-2" x="308.65" y="104.73" width="7.12" height="0.72"/><rect class="cls-2" x="308.65" y="91.44" width="0.43" height="13.5"/><rect class="cls-2" x="310.76" y="91.44" width="0.43" height="13.5"/><rect class="cls-2" x="312.82" y="91.44" width="0.43" height="13.5"/><rect class="cls-2" x="308.94" y="94.8" width="6.25" height="0.47"/><rect class="cls-2" x="308.94" y="91.44" width="6.25" height="0.47"/><rect class="cls-2" x="308.94" y="98.15" width="6.25" height="0.47"/><rect class="cls-2" x="308.94" y="101.5" width="6.25" height="0.47"/><rect class="cls-4" x="290.21" y="91.44" width="6.73" height="14.01"/><rect class="cls-2" x="296.44" y="91.44" width="0.88" height="14.01"/><rect class="cls-2" x="290.21" y="104.73" width="7.12" height="0.72"/><rect class="cls-2" x="290.21" y="91.44" width="0.43" height="13.5"/><rect class="cls-2" x="292.32" y="91.44" width="0.43" height="13.5"/><rect class="cls-2" x="294.38" y="91.44" width="0.43" height="13.5"/><rect class="cls-2" x="290.5" y="94.8" width="6.25" height="0.47"/><rect class="cls-2" x="290.5" y="91.44" width="6.25" height="0.47"/><rect class="cls-2" x="290.5" y="98.15" width="6.25" height="0.47"/><rect class="cls-2" x="290.5" y="101.5" width="6.25" height="0.47"/><rect class="cls-4" x="271.77" y="91.44" width="6.73" height="14.01"/><rect class="cls-2" x="278" y="91.44" width="0.88" height="14.01"/><rect class="cls-2" x="271.77" y="104.73" width="7.12" height="0.72"/><rect class="cls-2" x="271.77" y="91.44" width="0.43" height="13.5"/><rect class="cls-2" x="273.88" y="91.44" width="0.43" height="13.5"/><rect class="cls-2" x="275.94" y="91.44" width="0.43" height="13.5"/><rect class="cls-2" x="272.07" y="94.8" width="6.25" height="0.47"/><rect class="cls-2" x="272.07" y="91.44" width="6.25" height="0.47"/><rect class="cls-2" x="272.07" y="98.15" width="6.25" height="0.47"/><rect class="cls-2" x="272.07" y="101.5" width="6.25" height="0.47"/><rect class="cls-4" x="253.33" y="91.44" width="6.73" height="14.01"/><rect class="cls-2" x="259.57" y="91.44" width="0.88" height="14.01"/><rect class="cls-2" x="253.33" y="104.73" width="7.12" height="0.72"/><rect class="cls-2" x="253.33" y="91.44" width="0.43" height="13.5"/><rect class="cls-2" x="255.44" y="91.44" width="0.43" height="13.5"/><rect class="cls-2" x="257.51" y="91.44" width="0.43" height="13.5"/><rect class="cls-2" x="253.63" y="94.8" width="6.25" height="0.47"/><rect class="cls-2" x="253.63" y="91.44" width="6.25" height="0.47"/><rect class="cls-2" x="253.63" y="98.15" width="6.25" height="0.47"/><rect class="cls-2" x="253.63" y="101.5" width="6.25" height="0.47"/><rect class="cls-4" x="234.9" y="91.44" width="6.73" height="14.01"/><rect class="cls-2" x="241.13" y="91.44" width="0.88" height="14.01"/><rect class="cls-2" x="234.9" y="104.73" width="7.12" height="0.72"/><rect class="cls-2" x="234.9" y="91.44" width="0.43" height="13.5"/><rect class="cls-2" x="237.01" y="91.44" width="0.43" height="13.5"/><rect class="cls-2" x="239.07" y="91.44" width="0.43" height="13.5"/><rect class="cls-2" x="235.19" y="94.8" width="6.25" height="0.47"/><rect class="cls-2" x="235.19" y="91.44" width="6.25" height="0.47"/><rect class="cls-2" x="235.19" y="98.15" width="6.25" height="0.47"/><rect class="cls-2" x="235.19" y="101.5" width="6.25" height="0.47"/><rect class="cls-4" x="308.65" y="116.3" width="6.73" height="5.91"/><rect class="cls-2" x="314.88" y="116.3" width="0.88" height="5.91"/><rect class="cls-2" x="308.65" y="121.5" width="7.12" height="0.72"/><rect class="cls-2" x="308.65" y="116.3" width="0.43" height="5.69"/><rect class="cls-2" x="310.76" y="116.47" width="0.43" height="5.23"/><rect class="cls-2" x="312.82" y="116.47" width="0.43" height="5.23"/><rect class="cls-2" x="308.89" y="120.31" width="6.25" height="0.34"/><rect class="cls-2" x="308.89" y="118.92" width="6.25" height="0.34"/><rect class="cls-2" x="308.89" y="117.59" width="6.25" height="0.34"/><rect class="cls-2" x="308.89" y="116.3" width="6.25" height="0.34"/><rect class="cls-4" x="290.21" y="116.3" width="6.73" height="5.91"/><rect class="cls-2" x="296.44" y="116.3" width="0.88" height="5.91"/><rect class="cls-2" x="290.21" y="121.5" width="7.12" height="0.72"/><rect class="cls-2" x="290.21" y="116.3" width="0.43" height="5.69"/><rect class="cls-2" x="292.32" y="116.47" width="0.43" height="5.23"/><rect class="cls-2" x="294.38" y="116.47" width="0.43" height="5.23"/><rect class="cls-2" x="290.45" y="120.31" width="6.25" height="0.34"/><rect class="cls-2" x="290.45" y="118.92" width="6.25" height="0.34"/><rect class="cls-2" x="290.45" y="117.59" width="6.25" height="0.34"/><rect class="cls-2" x="290.45" y="116.3" width="6.25" height="0.34"/><rect class="cls-4" x="271.77" y="116.3" width="6.73" height="5.91"/><rect class="cls-2" x="278" y="116.3" width="0.88" height="5.91"/><rect class="cls-2" x="271.77" y="121.5" width="7.12" height="0.72"/><rect class="cls-2" x="271.77" y="116.3" width="0.43" height="5.69"/><rect class="cls-2" x="273.88" y="116.47" width="0.43" height="5.23"/><rect class="cls-2" x="275.94" y="116.47" width="0.43" height="5.23"/><rect class="cls-2" x="272.01" y="120.31" width="6.25" height="0.34"/><rect class="cls-2" x="272.01" y="118.92" width="6.25" height="0.34"/><rect class="cls-2" x="272.01" y="117.59" width="6.25" height="0.34"/><rect class="cls-2" x="272.01" y="116.3" width="6.25" height="0.34"/><rect class="cls-4" x="253.33" y="116.3" width="6.73" height="5.91"/><rect class="cls-2" x="259.57" y="116.3" width="0.88" height="5.91"/><rect class="cls-2" x="253.33" y="121.5" width="7.12" height="0.72"/><rect class="cls-2" x="253.33" y="116.3" width="0.43" height="5.69"/><rect class="cls-2" x="255.44" y="116.47" width="0.43" height="5.23"/><rect class="cls-2" x="257.51" y="116.47" width="0.43" height="5.23"/><rect class="cls-2" x="253.58" y="120.31" width="6.25" height="0.34"/><rect class="cls-2" x="253.58" y="118.92" width="6.25" height="0.34"/><rect class="cls-2" x="253.58" y="117.59" width="6.25" height="0.34"/><rect class="cls-2" x="253.58" y="116.3" width="6.25" height="0.34"/><rect class="cls-4" x="234.9" y="116.3" width="6.73" height="5.91"/><rect class="cls-2" x="241.13" y="116.3" width="0.88" height="5.91"/><rect class="cls-2" x="234.9" y="121.5" width="7.12" height="0.72"/><rect class="cls-2" x="234.9" y="116.3" width="0.43" height="5.69"/><rect class="cls-2" x="237.01" y="116.47" width="0.43" height="5.23"/><rect class="cls-2" x="239.07" y="116.47" width="0.43" height="5.23"/><rect class="cls-2" x="235.14" y="120.31" width="6.25" height="0.34"/><rect class="cls-2" x="235.14" y="118.92" width="6.25" height="0.34"/><rect class="cls-2" x="235.14" y="117.59" width="6.25" height="0.34"/><rect class="cls-2" x="235.14" y="116.3" width="6.25" height="0.34"/><path class="cls-1" d="M238.26,120a1.9,1.9,0,0,0-1.61,2.08v7.63h3.23v-7.63A1.9,1.9,0,0,0,238.26,120Z"/><path class="cls-3" d="M239.56,122.08v7.63H237v-7.63a1.53,1.53,0,0,1,1.3-1.68,1.15,1.15,0,0,1,.92.49A1.92,1.92,0,0,1,239.56,122.08Z"/><rect class="cls-4" x="106.22" y="91.44" width="6.73" height="14.01" transform="translate(219.16 196.89) rotate(-180)"/><rect class="cls-2" x="105.83" y="91.44" width="0.88" height="14.01" transform="translate(212.55 196.89) rotate(-180)"/><rect class="cls-2" x="105.83" y="104.73" width="7.12" height="0.72" transform="translate(218.78 210.19) rotate(-180)"/><rect class="cls-2" x="112.52" y="91.44" width="0.43" height="13.5" transform="translate(225.46 196.38) rotate(-180)"/><rect class="cls-2" x="110.41" y="91.44" width="0.43" height="13.5" transform="translate(221.25 196.38) rotate(-180)"/><rect class="cls-2" x="108.35" y="91.44" width="0.43" height="13.5" transform="translate(217.12 196.38) rotate(-180)"/><rect class="cls-2" x="106.41" y="94.8" width="6.25" height="0.47" transform="translate(219.06 190.06) rotate(-180)"/><rect class="cls-2" x="106.41" y="91.44" width="6.25" height="0.47" transform="translate(219.06 183.35) rotate(-180)"/><rect class="cls-2" x="106.41" y="98.15" width="6.25" height="0.47" transform="translate(219.06 196.76) rotate(-180)"/><rect class="cls-2" x="106.41" y="101.5" width="6.25" height="0.47" transform="translate(219.06 203.47) rotate(-180)"/><rect class="cls-4" x="124.65" y="91.44" width="6.73" height="14.01" transform="translate(256.04 196.89) rotate(-180)"/><rect class="cls-2" x="124.27" y="91.44" width="0.88" height="14.01" transform="translate(249.42 196.89) rotate(-180)"/><rect class="cls-2" x="124.27" y="104.73" width="7.12" height="0.72" transform="translate(255.66 210.19) rotate(-180)"/><rect class="cls-2" x="130.95" y="91.44" width="0.43" height="13.5" transform="translate(262.34 196.38) rotate(-180)"/><rect class="cls-2" x="128.84" y="91.44" width="0.43" height="13.5" transform="translate(258.12 196.38) rotate(-180)"/><rect class="cls-2" x="126.78" y="91.44" width="0.43" height="13.5" transform="translate(254 196.38) rotate(-180)"/><rect class="cls-2" x="124.84" y="94.8" width="6.25" height="0.47" transform="translate(255.94 190.06) rotate(-180)"/><rect class="cls-2" x="124.84" y="91.44" width="6.25" height="0.47" transform="translate(255.94 183.35) rotate(-180)"/><rect class="cls-2" x="124.84" y="98.15" width="6.25" height="0.47" transform="translate(255.94 196.76) rotate(-180)"/><rect class="cls-2" x="124.84" y="101.5" width="6.25" height="0.47" transform="translate(255.94 203.47) rotate(-180)"/><rect class="cls-4" x="143.09" y="91.44" width="6.73" height="14.01" transform="translate(292.92 196.89) rotate(-180)"/><rect class="cls-2" x="142.71" y="91.44" width="0.88" height="14.01" transform="translate(286.3 196.89) rotate(-180)"/><rect class="cls-2" x="142.71" y="104.73" width="7.12" height="0.72" transform="translate(292.53 210.19) rotate(-180)"/><rect class="cls-2" x="149.39" y="91.44" width="0.43" height="13.5" transform="translate(299.22 196.38) rotate(-180)"/><rect class="cls-2" x="147.28" y="91.44" width="0.43" height="13.5" transform="translate(295 196.38) rotate(-180)"/><rect class="cls-2" x="145.22" y="91.44" width="0.43" height="13.5" transform="translate(290.87 196.38) rotate(-180)"/><rect class="cls-2" x="143.28" y="94.8" width="6.25" height="0.47" transform="translate(292.81 190.06) rotate(-180)"/><rect class="cls-2" x="143.28" y="91.44" width="6.25" height="0.47" transform="translate(292.81 183.35) rotate(-180)"/><rect class="cls-2" x="143.28" y="98.15" width="6.25" height="0.47" transform="translate(292.81 196.76) rotate(-180)"/><rect class="cls-2" x="143.28" y="101.5" width="6.25" height="0.47" transform="translate(292.81 203.47) rotate(-180)"/><rect class="cls-4" x="161.53" y="91.44" width="6.73" height="14.01" transform="translate(329.79 196.89) rotate(-180)"/><rect class="cls-2" x="161.15" y="91.44" width="0.88" height="14.01" transform="translate(323.18 196.89) rotate(-180)"/><rect class="cls-2" x="161.15" y="104.73" width="7.12" height="0.72" transform="translate(329.41 210.19) rotate(-180)"/><rect class="cls-2" x="167.83" y="91.44" width="0.43" height="13.5" transform="translate(336.09 196.38) rotate(-180)"/><rect class="cls-2" x="165.72" y="91.44" width="0.43" height="13.5" transform="translate(331.87 196.38) rotate(-180)"/><rect class="cls-2" x="163.66" y="91.44" width="0.43" height="13.5" transform="translate(327.75 196.38) rotate(-180)"/><rect class="cls-2" x="161.72" y="94.8" width="6.25" height="0.47" transform="translate(329.69 190.06) rotate(-180)"/><rect class="cls-2" x="161.72" y="91.44" width="6.25" height="0.47" transform="translate(329.69 183.35) rotate(-180)"/><rect class="cls-2" x="161.72" y="98.15" width="6.25" height="0.47" transform="translate(329.69 196.76) rotate(-180)"/><rect class="cls-2" x="161.72" y="101.5" width="6.25" height="0.47" transform="translate(329.69 203.47) rotate(-180)"/><rect class="cls-4" x="179.97" y="91.44" width="6.73" height="14.01" transform="translate(366.67 196.89) rotate(-180)"/><rect class="cls-2" x="179.58" y="91.44" width="0.88" height="14.01" transform="translate(360.05 196.89) rotate(-180)"/><rect class="cls-2" x="179.58" y="104.73" width="7.12" height="0.72" transform="translate(366.28 210.19) rotate(-180)"/><rect class="cls-2" x="186.27" y="91.44" width="0.43" height="13.5" transform="translate(372.97 196.38) rotate(-180)"/><rect class="cls-2" x="184.16" y="91.44" width="0.43" height="13.5" transform="translate(368.75 196.38) rotate(-180)"/><rect class="cls-2" x="182.1" y="91.44" width="0.43" height="13.5" transform="translate(364.63 196.38) rotate(-180)"/><rect class="cls-2" x="180.16" y="94.8" width="6.25" height="0.47" transform="translate(366.56 190.06) rotate(-180)"/><rect class="cls-2" x="180.16" y="91.44" width="6.25" height="0.47" transform="translate(366.56 183.35) rotate(-180)"/><rect class="cls-2" x="180.16" y="98.15" width="6.25" height="0.47" transform="translate(366.56 196.76) rotate(-180)"/><rect class="cls-2" x="180.16" y="101.5" width="6.25" height="0.47" transform="translate(366.56 203.47) rotate(-180)"/><rect class="cls-4" x="106.22" y="116.3" width="6.73" height="5.91" transform="translate(219.16 238.52) rotate(-180)"/><rect class="cls-2" x="105.83" y="116.3" width="0.88" height="5.91" transform="translate(212.55 238.52) rotate(-180)"/><rect class="cls-2" x="105.83" y="121.5" width="7.12" height="0.72" transform="translate(218.78 243.71) rotate(-180)"/><rect class="cls-2" x="112.52" y="116.3" width="0.43" height="5.69" transform="translate(225.46 238.3) rotate(-180)"/><rect class="cls-2" x="110.41" y="116.47" width="0.43" height="5.23" transform="translate(221.25 238.17) rotate(-180)"/><rect class="cls-2" x="108.35" y="116.47" width="0.43" height="5.23" transform="translate(217.12 238.17) rotate(-180)"/><rect class="cls-2" x="106.46" y="120.31" width="6.25" height="0.34" transform="translate(219.16 240.95) rotate(-180)"/><rect class="cls-2" x="106.46" y="118.92" width="6.25" height="0.34" transform="translate(219.16 238.18) rotate(-180)"/><rect class="cls-2" x="106.46" y="117.59" width="6.25" height="0.34" transform="translate(219.16 235.52) rotate(-180)"/><rect class="cls-2" x="106.46" y="116.3" width="6.25" height="0.34" transform="translate(219.16 232.94) rotate(-180)"/><line class="cls-2" x1="112.71" y1="120.31" x2="106.46" y2="120.31"/><rect class="cls-4" x="124.65" y="116.3" width="6.73" height="5.91" transform="translate(256.04 238.52) rotate(-180)"/><rect class="cls-2" x="124.27" y="116.3" width="0.88" height="5.91" transform="translate(249.42 238.52) rotate(-180)"/><rect class="cls-2" x="124.27" y="121.5" width="7.12" height="0.72" transform="translate(255.66 243.71) rotate(-180)"/><rect class="cls-2" x="130.95" y="116.3" width="0.43" height="5.69" transform="translate(262.34 238.3) rotate(-180)"/><rect class="cls-2" x="128.84" y="116.47" width="0.43" height="5.23" transform="translate(258.12 238.17) rotate(-180)"/><rect class="cls-2" x="126.78" y="116.47" width="0.43" height="5.23" transform="translate(254 238.17) rotate(-180)"/><rect class="cls-2" x="124.9" y="120.31" width="6.25" height="0.34" transform="translate(256.04 240.95) rotate(-180)"/><rect class="cls-2" x="124.9" y="118.92" width="6.25" height="0.34" transform="translate(256.04 238.18) rotate(-180)"/><rect class="cls-2" x="124.9" y="117.59" width="6.25" height="0.34" transform="translate(256.04 235.52) rotate(-180)"/><rect class="cls-2" x="124.9" y="116.3" width="6.25" height="0.34" transform="translate(256.04 232.94) rotate(-180)"/><line class="cls-2" x1="131.14" y1="120.31" x2="124.9" y2="120.31"/><rect class="cls-4" x="143.09" y="116.3" width="6.73" height="5.91" transform="translate(292.92 238.52) rotate(-180)"/><rect class="cls-2" x="142.71" y="116.3" width="0.88" height="5.91" transform="translate(286.3 238.52) rotate(-180)"/><rect class="cls-2" x="142.71" y="121.5" width="7.12" height="0.72" transform="translate(292.53 243.71) rotate(-180)"/><rect class="cls-2" x="149.39" y="116.3" width="0.43" height="5.69" transform="translate(299.22 238.3) rotate(-180)"/><rect class="cls-2" x="147.28" y="116.47" width="0.43" height="5.23" transform="translate(295 238.17) rotate(-180)"/><rect class="cls-2" x="145.22" y="116.47" width="0.43" height="5.23" transform="translate(290.87 238.17) rotate(-180)"/><rect class="cls-2" x="143.33" y="120.31" width="6.25" height="0.34" transform="translate(292.92 240.95) rotate(-180)"/><rect class="cls-2" x="143.33" y="118.92" width="6.25" height="0.34" transform="translate(292.92 238.18) rotate(-180)"/><rect class="cls-2" x="143.33" y="117.59" width="6.25" height="0.34" transform="translate(292.92 235.52) rotate(-180)"/><rect class="cls-2" x="143.33" y="116.3" width="6.25" height="0.34" transform="translate(292.92 232.94) rotate(-180)"/><line class="cls-2" x1="149.58" y1="120.31" x2="143.33" y2="120.31"/><rect class="cls-4" x="161.53" y="116.3" width="6.73" height="5.91" transform="translate(329.79 238.52) rotate(-180)"/><rect class="cls-2" x="161.15" y="116.3" width="0.88" height="5.91" transform="translate(323.18 238.52) rotate(-180)"/><rect class="cls-2" x="161.15" y="121.5" width="7.12" height="0.72" transform="translate(329.41 243.71) rotate(-180)"/><rect class="cls-2" x="167.83" y="116.3" width="0.43" height="5.69" transform="translate(336.09 238.3) rotate(-180)"/><rect class="cls-2" x="165.72" y="116.47" width="0.43" height="5.23" transform="translate(331.87 238.17) rotate(-180)"/><rect class="cls-2" x="163.66" y="116.47" width="0.43" height="5.23" transform="translate(327.75 238.17) rotate(-180)"/><rect class="cls-2" x="161.77" y="120.31" width="6.25" height="0.34" transform="translate(329.79 240.95) rotate(-180)"/><rect class="cls-2" x="161.77" y="118.92" width="6.25" height="0.34" transform="translate(329.79 238.18) rotate(-180)"/><rect class="cls-2" x="161.77" y="117.59" width="6.25" height="0.34" transform="translate(329.79 235.52) rotate(-180)"/><rect class="cls-2" x="161.77" y="116.3" width="6.25" height="0.34" transform="translate(329.79 232.94) rotate(-180)"/><line class="cls-2" x1="168.02" y1="120.31" x2="161.77" y2="120.31"/><rect class="cls-4" x="179.97" y="116.3" width="6.73" height="5.91" transform="translate(366.67 238.52) rotate(-180)"/><rect class="cls-2" x="179.58" y="116.3" width="0.88" height="5.91" transform="translate(360.05 238.52) rotate(-180)"/><rect class="cls-2" x="179.58" y="121.5" width="7.12" height="0.72" transform="translate(366.28 243.71) rotate(-180)"/><rect class="cls-2" x="186.27" y="116.3" width="0.43" height="5.69" transform="translate(372.97 238.3) rotate(-180)"/><rect class="cls-2" x="184.16" y="116.47" width="0.43" height="5.23" transform="translate(368.75 238.17) rotate(-180)"/><rect class="cls-2" x="182.1" y="116.47" width="0.43" height="5.23" transform="translate(364.63 238.17) rotate(-180)"/><rect class="cls-2" x="180.21" y="120.31" width="6.25" height="0.34" transform="translate(366.67 240.95) rotate(-180)"/><rect class="cls-2" x="180.21" y="118.92" width="6.25" height="0.34" transform="translate(366.67 238.18) rotate(-180)"/><rect class="cls-2" x="180.21" y="117.59" width="6.25" height="0.34" transform="translate(366.67 235.52) rotate(-180)"/><rect class="cls-2" x="180.21" y="116.3" width="6.25" height="0.34" transform="translate(366.67 232.94) rotate(-180)"/><line class="cls-2" x1="186.46" y1="120.31" x2="180.21" y2="120.31"/><path class="cls-1" d="M181.72,122.08v7.63h3.23v-7.63a1.67,1.67,0,1,0-3.23,0Z"/><path class="cls-3" d="M182,122.08v7.63h2.6v-7.63a1.53,1.53,0,0,0-1.3-1.68,1.15,1.15,0,0,0-.92.49A1.92,1.92,0,0,0,182,122.08Z"/><rect class="cls-4" x="217.82" y="82.2" width="12.67" height="5.61"/><polygon class="cls-4" points="227.44 90.97 220.87 90.97 217.82 87.82 230.5 87.82 227.44 90.97"/><rect class="cls-4" x="222.48" y="90.97" width="4.96" height="30.52"/><rect class="cls-2" x="199.11" y="87.82" width="23.37" height="33.68"/><rect class="cls-3" x="59.87" y="89.83" width="6.9" height="13.07"/><rect class="cls-3" x="11.26" y="89.83" width="6.9" height="13.07"/><rect class="cls-3" x="102.91" y="81.12" width="216.31" height="2.16"/><path class="cls-1" d="M219.29,122.49V107.07a8.49,8.49,0,0,0-17,0v15.41Z"/><path class="cls-3" d="M217.64,122.49V107.07a6.86,6.86,0,0,0-6.85-6.81,6.86,6.86,0,0,0-6.85,6.81v15.41Z"/><rect class="cls-3" x="40.88" y="134.8" width="6.8" height="3.63"/><rect class="cls-1" x="191.63" y="121.5" width="38.33" height="8.25"/><rect class="cls-1" x="222.48" y="90.97" width="4.96" height="30.52"/><rect class="cls-1" x="191.11" y="83.28" width="11.06" height="4.53" transform="translate(393.28 171.1) rotate(-180)"/><polygon class="cls-1" points="194.16 90.97 199.12 90.97 202.17 87.82 191.11 87.82 194.16 90.97"/><rect class="cls-1" x="219.43" y="83.28" width="11.06" height="4.53" transform="translate(449.92 171.1) rotate(-180)"/><polygon class="cls-1" points="222.49 90.97 227.44 90.97 230.49 87.82 219.43 87.82 222.49 90.97"/><rect class="cls-1" x="194.16" y="90.97" width="4.96" height="30.52" transform="translate(393.29 212.47) rotate(-180)"/><path class="cls-2" d="M206.6,54.65H208a7,7,0,0,1,2.3-4.35C208.91,50.3,206.6,52.77,206.6,54.65Z"/><path class="cls-2" d="M215.11,54.65h-1.41a7,7,0,0,0-2.3-4.35C212.81,50.3,215.11,52.77,215.11,54.65Z"/><path class="cls-2" d="M210.83,50.3c-.48,0-1.26,2.47-1.26,4.35h2.52C212.09,52.77,211.31,50.3,210.83,50.3Z"/></svg>