<svg id="Layer_1" data-name="Layer 1" xmlns="http://www.w3.org/2000/svg" xmlns:xlink="http://www.w3.org/1999/xlink" viewBox="0 0 376 221"><defs><style>.cls-1{fill:#42005b;}.cls-2{fill:#94eba3;}.cls-3{fill:#e4bdfc;}.cls-4{fill:#d9a0fb;}.cls-5{fill:#c35cec;}.cls-6{fill:#84e895;}.cls-7{fill:url(#linear-gradient);}.cls-8{fill:url(#linear-gradient-2);}.cls-9{fill:#b940e9;}.cls-10{fill:#b0f0bb;}.cls-11{fill:url(#linear-gradient-3);}.cls-12{fill:url(#linear-gradient-4);}.cls-13{fill:url(#linear-gradient-5);}.cls-14{fill:url(#linear-gradient-6);}</style><linearGradient id="linear-gradient" x1="188.64" y1="9.91" x2="188.64" y2="6.69" gradientUnits="userSpaceOnUse"><stop offset="0" stop-color="#e4bdfc" stop-opacity="0"/><stop offset="0.11" stop-color="#e3bafc" stop-opacity="0.02"/><stop offset="0.24" stop-color="#e1b3fa" stop-opacity="0.08"/><stop offset="0.38" stop-color="#dca7f9" stop-opacity="0.18"/><stop offset="0.53" stop-color="#d695f6" stop-opacity="0.32"/><stop offset="0.67" stop-color="#cf7ff3" stop-opacity="0.49"/><stop offset="0.83" stop-color="#c564ee" stop-opacity="0.71"/><stop offset="0.98" stop-color="#bb45ea" stop-opacity="0.96"/><stop offset="1" stop-color="#b940e9"/></linearGradient><linearGradient id="linear-gradient-2" x1="179.69" y1="16.39" x2="179.69" y2="11.91" xlink:href="#linear-gradient"/><linearGradient id="linear-gradient-3" x1="346.98" y1="182.72" x2="346.98" y2="176.67" xlink:href="#linear-gradient"/><linearGradient id="linear-gradient-4" x1="340.18" y1="60.83" x2="340.18" y2="55.21" gradientUnits="userSpaceOnUse"><stop offset="0" stop-color="#e4bdfc" stop-opacity="0"/><stop offset="0.11" stop-color="#e3bbfc" stop-opacity="0.02"/><stop offset="0.24" stop-color="#e1b5fb" stop-opacity="0.08"/><stop offset="0.38" stop-color="#deacf9" stop-opacity="0.18"/><stop offset="0.52" stop-color="#da9ff7" stop-opacity="0.31"/><stop offset="0.67" stop-color="#d48ef4" stop-opacity="0.49"/><stop offset="0.82" stop-color="#cd79f1" stop-opacity="0.7"/><stop offset="0.97" stop-color="#c561ed" stop-opacity="0.95"/><stop offset="1" stop-color="#c35cec"/></linearGradient><linearGradient id="linear-gradient-5" x1="19.36" y1="60.83" x2="19.36" y2="55.21" xlink:href="#linear-gradient-4"/><linearGradient id="linear-gradient-6" x1="357.87" y1="60.83" x2="357.87" y2="55.21" xlink:href="#linear-gradient-4"/></defs><title>edinburgh_colouredlandmarks</title><rect class="cls-1" x="142.33" y="89.84" width="75.05" height="129.98"/><polygon class="cls-2" points="209.17 215.09 206.89 215.09 199.15 209.78 199.15 97.99 209.17 97.99 209.17 215.09"/><ellipse class="cls-3" cx="198.88" cy="165.18" rx="1.1" ry="1.39"/><rect class="cls-3" x="199.11" y="164.72" width="1.79" height="0.93"/><path class="cls-3" d="M201.7,163.79v2.78a1.44,1.44,0,0,1,0-2.78Z"/><polygon class="cls-4" points="212.84 95.78 212.84 217.36 209.17 217.36 209.17 98.82 149.85 98.82 149.85 217.36 146.16 217.36 146.16 95.78 212.84 95.78"/><rect class="cls-5" x="31.09" y="43" width="103.47" height="165.43"/><rect class="cls-5" x="221.67" y="43" width="109.01" height="165.43"/><rect class="cls-5" x="142.33" y="43" width="73.53" height="41.21"/><rect class="cls-4" x="223.72" y="210.37" width="129.22" height="9.44"/><rect class="cls-6" x="223.72" y="206.49" width="106.96" height="3.88"/><rect class="cls-6" x="34.67" y="206.49" width="97.59" height="3.88"/><rect class="cls-5" x="223.72" y="210.37" width="133.06" height="2.11"/><rect class="cls-3" x="9.96" y="6.69" width="357.37" height="5.22"/><rect class="cls-7" x="9.96" y="6.69" width="357.37" height="3.22"/><polygon class="cls-3" points="3 1.47 373 1.47 369.51 6.69 6.49 6.69 3 1.47"/><rect class="cls-3" x="26.35" y="11.91" width="306.67" height="36.67"/><rect class="cls-8" x="26.35" y="11.91" width="306.67" height="4.49"/><rect class="cls-3" x="26.35" y="76.62" width="306.67" height="15.18"/><rect class="cls-4" x="26.35" y="91.8" width="306.67" height="3.97"/><rect class="cls-6" x="26.35" y="76.62" width="306.67" height="1.93"/><rect class="cls-3" x="330.68" y="11.91" width="34.34" height="199.31"/><rect class="cls-4" x="333.03" y="17.9" width="14.31" height="37.31"/><rect class="cls-4" x="330.68" y="11.91" width="18.96" height="3.01"/><polygon class="cls-4" points="347.33 17.9 333.03 17.9 330.68 14.89 349.64 14.89 347.33 17.9"/><rect class="cls-5" x="333.03" y="17.9" width="14.31" height="0.48"/><rect class="cls-5" x="333.03" y="25.76" width="14.31" height="4.48"/><rect class="cls-5" x="333.03" y="43" width="14.31" height="2.68"/><rect class="cls-4" x="350.71" y="17.9" width="14.31" height="37.31"/><rect class="cls-4" x="348.37" y="11.91" width="18.96" height="3.01"/><polygon class="cls-4" points="365.02 17.9 350.71 17.9 348.37 14.89 367.33 14.89 365.02 17.9"/><rect class="cls-5" x="350.71" y="17.9" width="14.31" height="0.48"/><rect class="cls-5" x="350.71" y="25.76" width="14.31" height="4.48"/><rect class="cls-5" x="350.71" y="43" width="14.31" height="2.68"/><rect class="cls-5" x="320.33" y="211.22" width="46.24" height="9.02"/><rect class="cls-4" x="14.83" y="209.95" width="117.43" height="9.87" transform="translate(147.08 429.76) rotate(-180)"/><rect class="cls-5" x="14.83" y="209.95" width="117.43" height="2.11" transform="translate(147.08 422) rotate(-180)"/><rect class="cls-3" x="12.14" y="11.91" width="22.52" height="198.84" transform="translate(46.81 222.65) rotate(-180)"/><rect class="cls-5" x="11.16" y="210.75" width="24.48" height="9.07" transform="translate(46.81 430.56) rotate(-180)"/><rect class="cls-5" x="210.46" y="210.37" width="18.69" height="9.44"/><rect class="cls-5" x="129.87" y="210.37" width="18.69" height="9.44"/><rect class="cls-3" x="132.26" y="48.58" width="13.91" height="161.79"/><rect class="cls-3" x="212.85" y="48.58" width="13.91" height="161.79"/><rect class="cls-3" x="7.09" y="6" width="2.87" height="2.87"/><rect class="cls-3" x="366.64" y="6" width="2.87" height="2.87"/><rect class="cls-4" x="12.11" y="17.9" width="14.5" height="37.31"/><rect class="cls-4" x="9.96" y="11.91" width="18.96" height="3.01"/><polygon class="cls-4" points="26.61 17.9 12.11 17.9 9.96 14.89 28.92 14.89 26.61 17.9"/><rect class="cls-5" x="12.11" y="17.9" width="14.5" height="0.48"/><rect class="cls-5" x="12.11" y="25.76" width="14.5" height="4.48"/><rect class="cls-5" x="12.11" y="43" width="14.5" height="2.68"/><rect class="cls-9" x="63.36" y="79.55" width="12.25" height="6.13"/><rect class="cls-9" x="122.3" y="79.55" width="12.25" height="6.13"/><rect class="cls-9" x="185.18" y="79.55" width="12.25" height="6.13"/><rect class="cls-9" x="279.49" y="79.55" width="12.25" height="6.13"/><rect class="cls-10" x="340.18" y="105.64" width="13.6" height="9.17"/><rect class="cls-10" x="14.83" y="143.18" width="11.18" height="8.27"/><circle class="cls-6" cx="180.3" cy="64.5" r="9.08"/><circle class="cls-9" cx="180.3" cy="64.5" r="7.84"/><path class="cls-4" d="M361.6,176.67V131A14.66,14.66,0,0,0,347,116.43h0A14.66,14.66,0,0,0,332.37,131v45.63Z"/><path class="cls-10" d="M335.31,173.72V131a11.67,11.67,0,1,1,23.34,0v42.68Z"/><rect class="cls-11" x="332.37" y="176.67" width="29.23" height="6.05"/><path class="cls-1" d="M53.85,34a2.38,2.38,0,0,1-.32,1.23,3,3,0,0,1-.84.92,3.91,3.91,0,0,1-1.19.58,4.82,4.82,0,0,1-1.38.2,3.94,3.94,0,0,1-1.07-.14,2.78,2.78,0,0,1-.91-.44,2.12,2.12,0,0,1-.64-.74,2.23,2.23,0,0,1-.24-1.06V28.11H45.76l.12-1A3.48,3.48,0,0,0,47,26.73,5.66,5.66,0,0,0,48,26a5.16,5.16,0,0,0,.86-1.05,3.94,3.94,0,0,0,.51-1.22l1-.14v3.4H52a3.1,3.1,0,0,0,.59-.06,6.13,6.13,0,0,0,.61-.15v1.39H50.36V34c0,.16,0,.32,0,.48a1.2,1.2,0,0,0,.1.45.79.79,0,0,0,.3.33,1.07,1.07,0,0,0,.58.13,1.48,1.48,0,0,0,1.08-.47A2.14,2.14,0,0,0,53,33.7Z"/><path class="cls-1" d="M66.7,36.55v-1q1.49,0,1.49-.8V31.27a5,5,0,0,0-.41-2.3,1.46,1.46,0,0,0-1.4-.77,2.11,2.11,0,0,0-1.61.59A3.15,3.15,0,0,0,64,30.45v4.12q0,1,1.65,1v1H59.44v-1q1.49,0,1.49-1V23.82q0-1.7-1.39-1.7v-.9L64,20.47v7.66A3.55,3.55,0,0,1,65.5,27a4.83,4.83,0,0,1,1.89-.38,5.08,5.08,0,0,1,1.44.2,3.86,3.86,0,0,1,1.21.59,3,3,0,0,1,.85,1,2.77,2.77,0,0,1,.32,1.36v5c0,.53.53.8,1.58.8v1Z"/><path class="cls-1" d="M87.82,34.1a5.49,5.49,0,0,1-1.71,2.12,4.16,4.16,0,0,1-2.49.75,6.48,6.48,0,0,1-2.13-.33,4.46,4.46,0,0,1-1.64-1,4.38,4.38,0,0,1-1.06-1.6,5.92,5.92,0,0,1-.38-2.18,6.31,6.31,0,0,1,.39-2.3,4.79,4.79,0,0,1,1.07-1.69,4.53,4.53,0,0,1,1.6-1,5.48,5.48,0,0,1,2-.35,5.79,5.79,0,0,1,2,.32,3.83,3.83,0,0,1,1.43.9,3.74,3.74,0,0,1,.85,1.36,5,5,0,0,1,.28,1.7v.31a2.47,2.47,0,0,1,0,.33H81.9q-.26,0-.26.19a7.62,7.62,0,0,0,.14,1.51,3.67,3.67,0,0,0,.46,1.22,2.41,2.41,0,0,0,.8.81,2.25,2.25,0,0,0,1.19.29,2.45,2.45,0,0,0,1.59-.57,6.87,6.87,0,0,0,1.24-1.32Zm-3.75-3.68a.84.84,0,0,0,.58-.2.7.7,0,0,0,.22-.55,4.24,4.24,0,0,0-.07-.8,2,2,0,0,0-.24-.65,1.28,1.28,0,0,0-.46-.45,1.43,1.43,0,0,0-.74-.18,1.39,1.39,0,0,0-.82.23,1.73,1.73,0,0,0-.53.61,2.77,2.77,0,0,0-.28.87,6.07,6.07,0,0,0-.08,1c0,.09.12.14.36.14Z"/><path class="cls-1" d="M114.44,34.1a5.49,5.49,0,0,1-1.71,2.12,4.16,4.16,0,0,1-2.49.75,6.48,6.48,0,0,1-2.13-.33,4.46,4.46,0,0,1-1.64-1,4.38,4.38,0,0,1-1.06-1.6,5.92,5.92,0,0,1-.38-2.18,6.31,6.31,0,0,1,.39-2.3,4.79,4.79,0,0,1,1.07-1.69,4.53,4.53,0,0,1,1.6-1,5.48,5.48,0,0,1,2-.35,5.79,5.79,0,0,1,2,.32,3.83,3.83,0,0,1,1.43.9,3.74,3.74,0,0,1,.85,1.36,5,5,0,0,1,.28,1.7v.31a2.47,2.47,0,0,1,0,.33h-6.11q-.26,0-.26.19a7.62,7.62,0,0,0,.14,1.51,3.67,3.67,0,0,0,.46,1.22,2.41,2.41,0,0,0,.8.81,2.25,2.25,0,0,0,1.19.29,2.45,2.45,0,0,0,1.59-.57,6.87,6.87,0,0,0,1.24-1.32Zm-3.75-3.68a.84.84,0,0,0,.58-.2.7.7,0,0,0,.22-.55,4.24,4.24,0,0,0-.07-.8,2,2,0,0,0-.24-.65,1.28,1.28,0,0,0-.46-.45,1.43,1.43,0,0,0-.74-.18,1.39,1.39,0,0,0-.82.23,1.73,1.73,0,0,0-.53.61,2.77,2.77,0,0,0-.28.87,6.07,6.07,0,0,0-.08,1c0,.09.12.14.36.14Z"/><path class="cls-1" d="M120.4,36.55v-1q1.58,0,1.58-.9V23.09q0-1-1.75-1v-.9l4.83-.73V34.76q0,.8,1.75.8v1Z"/><path class="cls-1" d="M141.8,34.1a5.49,5.49,0,0,1-1.71,2.12,4.16,4.16,0,0,1-2.49.75,6.48,6.48,0,0,1-2.13-.33,4.46,4.46,0,0,1-1.64-1,4.38,4.38,0,0,1-1.06-1.6,5.92,5.92,0,0,1-.38-2.18,6.31,6.31,0,0,1,.39-2.3,4.79,4.79,0,0,1,1.07-1.69,4.53,4.53,0,0,1,1.6-1,5.48,5.48,0,0,1,2-.35,5.79,5.79,0,0,1,2,.32,3.83,3.83,0,0,1,1.43.9,3.74,3.74,0,0,1,.85,1.36,5,5,0,0,1,.28,1.7v.31a2.47,2.47,0,0,1,0,.33h-6.11q-.26,0-.26.19a7.62,7.62,0,0,0,.14,1.51,3.67,3.67,0,0,0,.46,1.22,2.41,2.41,0,0,0,.8.81,2.25,2.25,0,0,0,1.19.29,2.45,2.45,0,0,0,1.59-.57A6.87,6.87,0,0,0,141,33.56ZM138,30.42a.84.84,0,0,0,.58-.2.7.7,0,0,0,.22-.55,4.24,4.24,0,0,0-.07-.8,2,2,0,0,0-.24-.65,1.28,1.28,0,0,0-.46-.45,1.43,1.43,0,0,0-.74-.18,1.39,1.39,0,0,0-.82.23,1.73,1.73,0,0,0-.53.61,2.77,2.77,0,0,0-.28.87,6.07,6.07,0,0,0-.08,1c0,.09.12.14.36.14Z"/><path class="cls-1" d="M147.84,40.73v-.92c.83,0,1.25-.17,1.25-.52V29.2q0-.92-1.39-.92v-.68L152,26.46a1.7,1.7,0,0,1,.12.46c0,.15,0,.29,0,.44v.57a3.18,3.18,0,0,1,2.8-1.41,4.34,4.34,0,0,1,1.9.39A3.76,3.76,0,0,1,158.23,28a4.69,4.69,0,0,1,.8,1.57,6.52,6.52,0,0,1,.27,1.91A7.56,7.56,0,0,1,159,33.8a5.18,5.18,0,0,1-.94,1.74,4,4,0,0,1-1.44,1.07,4.53,4.53,0,0,1-1.83.36,3.71,3.71,0,0,1-1.59-.27,3.11,3.11,0,0,1-.91-.65,1.24,1.24,0,0,1,0,.27v2.86q0,.61,1.84.61v.92Zm4.34-8.26c0,.42.1.83.18,1.21a3.87,3.87,0,0,0,.33,1,1.84,1.84,0,0,0,.62.72,1.92,1.92,0,0,0,1.09.27,1.43,1.43,0,0,0,1-.33,2,2,0,0,0,.54-.86,4.74,4.74,0,0,0,.22-1.2c0-.45,0-.9,0-1.35s0-.91-.06-1.38a4.39,4.39,0,0,0-.28-1.26,2.36,2.36,0,0,0-.65-.93,1.71,1.71,0,0,0-1.15-.36,1.4,1.4,0,0,0-1.09.41,2.54,2.54,0,0,0-.55,1,4.5,4.5,0,0,0-.21,1.09c0,.36,0,.62,0,.78Z"/><path class="cls-1" d="M172.32,36.55v-1q1.49,0,1.49-.8V31.27a5,5,0,0,0-.41-2.3,1.46,1.46,0,0,0-1.4-.77,2.11,2.11,0,0,0-1.61.59,3.15,3.15,0,0,0-.74,1.65v4.12q0,1,1.65,1v1h-6.22v-1q1.49,0,1.49-1V23.82q0-1.7-1.39-1.7v-.9l4.48-.75v7.66A3.55,3.55,0,0,1,171.11,27,4.83,4.83,0,0,1,173,26.6a5.08,5.08,0,0,1,1.44.2,3.86,3.86,0,0,1,1.21.59,3,3,0,0,1,.85,1,2.77,2.77,0,0,1,.32,1.36v5c0,.53.53.8,1.58.8v1Z"/><path class="cls-1" d="M195.11,35.38a1.69,1.69,0,0,1-.93,1.08,3.41,3.41,0,0,1-1.52.35,2.91,2.91,0,0,1-1.33-.33,1.65,1.65,0,0,1-.86-1,11.75,11.75,0,0,1-1.41,1,3,3,0,0,1-1.53.37,3.64,3.64,0,0,1-2.11-.58,1.9,1.9,0,0,1-.84-1.66,3.13,3.13,0,0,1,.35-1.52A3.19,3.19,0,0,1,186,31.93a6.93,6.93,0,0,1,1.77-.8,21,21,0,0,1,2.5-.59v-.75a5,5,0,0,0-.19-1.58c-.13-.34-.45-.52-1-.52a3.57,3.57,0,0,0-1.3.21.85.85,0,0,0-.57.82,1,1,0,0,1,.16.31,1.36,1.36,0,0,1,.06.4q0,1-1.28,1-1,0-1-1.18a2.37,2.37,0,0,1,1-2,4.16,4.16,0,0,1,1.35-.6,7.79,7.79,0,0,1,2-.22,5.66,5.66,0,0,1,1.42.18,3.54,3.54,0,0,1,1.22.57,2.88,2.88,0,0,1,1.19,2.46v5c0,.47.21.71.61.71a.74.74,0,0,0,.33-.08l.38-.2Zm-4.79-3.77a4.18,4.18,0,0,0-2,.71,2,2,0,0,0-.65,1.67,2.23,2.23,0,0,0,.23,1.13.92.92,0,0,0,.87.38,1.73,1.73,0,0,0,.93-.2,1.11,1.11,0,0,0,.44-.52,2.08,2.08,0,0,0,.14-.72c0-.27,0-.53.06-.8Z"/><path class="cls-1" d="M207.94,36.55v-1a1.94,1.94,0,0,0,1.06-.21.67.67,0,0,0,.31-.59V31a4.37,4.37,0,0,0-.46-2.24,1.64,1.64,0,0,0-1.52-.75,1.77,1.77,0,0,0-1.54.67,3.4,3.4,0,0,0-.48,2v4.08a.65.65,0,0,0,.36.59,2.49,2.49,0,0,0,1.19.21v1h-5.94v-1q1.29,0,1.29-.9V28.84c0-.43-.37-.64-1.11-.64h-.45v-.9l4.39-.83a1,1,0,0,1,.16.64V28a3.47,3.47,0,0,1,1.43-1.06,4.9,4.9,0,0,1,1.86-.35,5.33,5.33,0,0,1,1.46.2,3.68,3.68,0,0,1,1.24.61,3.21,3.21,0,0,1,.87,1,2.89,2.89,0,0,1,.33,1.4v5.07q0,.71,1.49.71v1Z"/><path class="cls-1" d="M227,34a2.38,2.38,0,0,1-.32,1.23,3,3,0,0,1-.84.92,3.91,3.91,0,0,1-1.19.58,4.82,4.82,0,0,1-1.38.2,3.94,3.94,0,0,1-1.07-.14,2.78,2.78,0,0,1-.91-.44,2.12,2.12,0,0,1-.64-.74,2.23,2.23,0,0,1-.24-1.06V28.11h-1.51l.12-1a3.48,3.48,0,0,0,1.08-.41,5.66,5.66,0,0,0,1.06-.78,5.16,5.16,0,0,0,.86-1.05,3.94,3.94,0,0,0,.51-1.22l1-.14v3.4h1.67a3.1,3.1,0,0,0,.59-.06,6.13,6.13,0,0,0,.61-.15v1.39h-2.88V34c0,.16,0,.32,0,.48a1.2,1.2,0,0,0,.1.45.79.79,0,0,0,.3.33,1.07,1.07,0,0,0,.58.13,1.48,1.48,0,0,0,1.08-.47,2.14,2.14,0,0,0,.59-1.2Z"/><path class="cls-1" d="M250.73,36.55v-1q1.49,0,1.49-.8V31.27a5,5,0,0,0-.41-2.3,1.46,1.46,0,0,0-1.4-.77,2.11,2.11,0,0,0-1.61.59,3.15,3.15,0,0,0-.74,1.65v4.12q0,1,1.65,1v1h-6.22v-1q1.49,0,1.49-1V23.82q0-1.7-1.39-1.7v-.9l4.48-.75v7.66A3.55,3.55,0,0,1,249.53,27a4.83,4.83,0,0,1,1.89-.38,5.08,5.08,0,0,1,1.44.2,3.86,3.86,0,0,1,1.21.59,3,3,0,0,1,.85,1,2.77,2.77,0,0,1,.32,1.36v5c0,.53.53.8,1.58.8v1Z"/><path class="cls-1" d="M273.15,31.6a5.74,5.74,0,0,1-.47,2.43,4.78,4.78,0,0,1-1.24,1.66,5.14,5.14,0,0,1-1.72,1,6.11,6.11,0,0,1-1.95.32,6.19,6.19,0,0,1-2.1-.35,5.09,5.09,0,0,1-1.72-1A4.78,4.78,0,0,1,262.8,34a5.1,5.1,0,0,1-.42-2.12,6,6,0,0,1,.47-2.53,4.5,4.5,0,0,1,3-2.57,7.67,7.67,0,0,1,2-.27,5.86,5.86,0,0,1,2,.35,5,5,0,0,1,1.69,1,4.87,4.87,0,0,1,1.14,1.6A5.1,5.1,0,0,1,273.15,31.6Zm-5.28,4.29a1.58,1.58,0,0,0,1.13-.38,2.37,2.37,0,0,0,.6-.9,3.72,3.72,0,0,0,.24-1.09q0-.56,0-.94c0-.48,0-1,0-1.6a7.46,7.46,0,0,0-.24-1.62A3.22,3.22,0,0,0,269,28.1a1.48,1.48,0,0,0-1.2-.51,1.69,1.69,0,0,0-1.18.39,2.37,2.37,0,0,0-.62.92,3.71,3.71,0,0,0-.24,1.09q0,.56,0,.92,0,.73,0,1.6a7.46,7.46,0,0,0,.24,1.62,3.15,3.15,0,0,0,.64,1.26A1.58,1.58,0,0,0,267.87,35.89Z"/><path class="cls-1" d="M287.12,36.67a1,1,0,0,1-.12-.34,3.52,3.52,0,0,1,0-.44v-.35a5.14,5.14,0,0,1-.47.54,2.17,2.17,0,0,1-.56.4,3.06,3.06,0,0,1-.77.25,5.88,5.88,0,0,1-1.05.08,7.2,7.2,0,0,1-1.66-.18,3.28,3.28,0,0,1-1.27-.59,2.62,2.62,0,0,1-.81-1.11,4.7,4.7,0,0,1-.28-1.76v-4.6q0-.64-1.46-.64l-.14-.87,4.69-.31v6c0,.35,0,.68,0,1a2.7,2.7,0,0,0,.19.84,1.3,1.3,0,0,0,.46.58,1.49,1.49,0,0,0,.85.21,1.66,1.66,0,0,0,1.34-.59,4.76,4.76,0,0,0,.83-1.65V28.58q0-.64-1.63-.64l-.14-.87,4.86-.31v7.8q0,.64,1.56.71l.24.92Z"/><path class="cls-1" d="M303.94,29.86a4.24,4.24,0,0,0-1.18-1.78,2.24,2.24,0,0,0-1.41-.58,3.22,3.22,0,0,0-.66.07,2,2,0,0,0-.6.24,1.42,1.42,0,0,0-.45.43,1.05,1.05,0,0,0-.18.61.78.78,0,0,0,.35.63,3.33,3.33,0,0,0,.85.46q.49.19,1,.33l.85.24,1,.4a3.63,3.63,0,0,1,.9.53,2.36,2.36,0,0,1,.62.79,2.61,2.61,0,0,1,.24,1.18,3.42,3.42,0,0,1-.29,1.44,3.39,3.39,0,0,1-.8,1.1,3.54,3.54,0,0,1-1.18.71,4.08,4.08,0,0,1-1.43.25,4.46,4.46,0,0,1-1.2-.13,2.56,2.56,0,0,1-.83-.41,2.17,2.17,0,0,1-.66.33,4.93,4.93,0,0,1-1.06.17,14.68,14.68,0,0,1-.18-1.85q0-1,0-2.06h1.11a10.43,10.43,0,0,0,.48,1.4,3.1,3.1,0,0,0,.57.88,1.69,1.69,0,0,0,.74.46,3.49,3.49,0,0,0,1,.13q1.75,0,1.81-1.13a1.26,1.26,0,0,0-.41-1,3.46,3.46,0,0,0-1-.59,13.81,13.81,0,0,0-1.34-.44,6.34,6.34,0,0,1-1.35-.53,3.07,3.07,0,0,1-1-.88,2.47,2.47,0,0,1-.41-1.52,3.07,3.07,0,0,1,.93-2.27,3.69,3.69,0,0,1,2.72-.93,4.38,4.38,0,0,1,1,.11,3.25,3.25,0,0,1,.93.39,3.57,3.57,0,0,1,.45-.26,2.23,2.23,0,0,1,.75-.19,8.51,8.51,0,0,1,.28,1.7c0,.53,0,1.07,0,1.6Z"/><path class="cls-1" d="M320.77,34.1a5.49,5.49,0,0,1-1.71,2.12,4.16,4.16,0,0,1-2.49.75,6.48,6.48,0,0,1-2.13-.33,4.46,4.46,0,0,1-1.64-1,4.38,4.38,0,0,1-1.06-1.6,5.92,5.92,0,0,1-.38-2.18,6.31,6.31,0,0,1,.39-2.3,4.79,4.79,0,0,1,1.07-1.69,4.53,4.53,0,0,1,1.6-1,5.48,5.48,0,0,1,2-.35,5.79,5.79,0,0,1,2,.32,3.83,3.83,0,0,1,1.43.9,3.74,3.74,0,0,1,.85,1.36,5,5,0,0,1,.28,1.7v.31a2.47,2.47,0,0,1,0,.33h-6.11q-.26,0-.26.19a7.62,7.62,0,0,0,.14,1.51,3.67,3.67,0,0,0,.46,1.22,2.41,2.41,0,0,0,.8.81,2.25,2.25,0,0,0,1.19.29,2.45,2.45,0,0,0,1.59-.57A6.87,6.87,0,0,0,320,33.56ZM317,30.42a.84.84,0,0,0,.58-.2.7.7,0,0,0,.22-.55,4.24,4.24,0,0,0-.07-.8,2,2,0,0,0-.24-.65,1.28,1.28,0,0,0-.46-.45,1.43,1.43,0,0,0-.74-.18,1.39,1.39,0,0,0-.82.23,1.73,1.73,0,0,0-.53.61,2.77,2.77,0,0,0-.28.87,6.07,6.07,0,0,0-.08,1c0,.09.12.14.36.14Z"/><rect class="cls-12" x="333.03" y="55.21" width="14.31" height="5.62"/><rect class="cls-13" x="12.11" y="55.21" width="14.5" height="5.62"/><rect class="cls-14" x="350.71" y="55.21" width="14.31" height="5.62"/></svg>