<svg id="Layer_1" data-name="Layer 1" xmlns="http://www.w3.org/2000/svg" xmlns:xlink="http://www.w3.org/1999/xlink" viewBox="0 0 314 406"><defs><style>.cls-1{fill:#df2524;}.cls-2{fill:#da0100;}.cls-3{fill:#e79841;}.cls-4{fill:url(#linear-gradient);}.cls-5{fill:#e38620;}.cls-6{fill:#ebb162;}.cls-7{fill:url(#linear-gradient-2);}.cls-8{fill:#828282;}.cls-9{fill:#4d4d4d;}</style><linearGradient id="linear-gradient" x1="95.9" y1="123.59" x2="42.6" y2="123.59" gradientUnits="userSpaceOnUse"><stop offset="0.19" stop-color="#e79841" stop-opacity="0"/><stop offset="1" stop-color="#df2524"/></linearGradient><linearGradient id="linear-gradient-2" x1="-411.02" y1="123.59" x2="-464.31" y2="123.59" gradientTransform="matrix(-1, 0, 0, 1, -193.76, 0)" xlink:href="#linear-gradient"/></defs><title>prague</title><polygon class="cls-1" points="77.67 37.13 94.26 37.13 95.09 37.13 95.09 43.27 81.47 43.27 77.67 37.13"/><polygon class="cls-2" points="81.47 43.27 83.52 47.29 95.09 47.29 95.09 43.27 81.47 43.27"/><polygon class="cls-2" points="225.73 57.9 223.97 62.2 223.97 66.24 227.11 66.24 227.11 71.13 223.35 74.22 204.68 74.22 204.68 57.9 225.73 57.9"/><path class="cls-3" d="M89.81,74.22s3,59.74-42.37,68.37a44.94,44.94,0,0,1-4.84,1.12V173H95.9V74.22Z"/><path class="cls-4" d="M89.81,74.22s3,59.74-42.37,68.37a44.94,44.94,0,0,1-4.84,1.12V173H95.9V74.22Z"/><polygon class="cls-2" points="87.42 57.9 89.18 62.2 89.18 66.24 86.05 66.24 86.05 71.13 89.81 74.22 108.48 74.22 108.48 57.9 87.42 57.9"/><rect class="cls-1" x="83.82" y="38.18" width="144.55" height="6.6"/><rect class="cls-5" x="95.09" y="44.78" width="122.96" height="17.75"/><rect class="cls-3" x="103.75" y="106.05" width="107.07" height="66.9"/><rect class="cls-6" x="105.63" y="177.74" width="102.81" height="33.18"/><rect class="cls-5" x="95.09" y="71.13" width="13.38" height="86.72"/><rect class="cls-5" x="95.09" y="157.85" width="13.38" height="8.87"/><rect class="cls-1" x="91.88" y="166.72" width="19.8" height="6.24"/><rect class="cls-1" x="93.66" y="162.96" width="16.18" height="2.37"/><path class="cls-3" d="M223.35,74.22s-3,59.74,42.37,68.37a44.94,44.94,0,0,0,4.84,1.12V173H217.26V74.22Z"/><path class="cls-7" d="M223.35,74.22s-3,59.74,42.37,68.37a44.94,44.94,0,0,0,4.84,1.12V173H217.26V74.22Z"/><rect class="cls-1" x="93.66" y="159.67" width="16.18" height="1.78"/><rect class="cls-5" x="206.05" y="71.13" width="13.38" height="86.72"/><rect class="cls-5" x="206.05" y="157.85" width="13.38" height="8.87"/><rect class="cls-1" x="202.84" y="166.72" width="19.8" height="6.24"/><rect class="cls-1" x="204.61" y="162.96" width="16.18" height="2.37"/><rect class="cls-1" x="204.61" y="159.67" width="16.18" height="1.78"/><rect class="cls-8" x="108.48" y="62.54" width="97.47" height="43.52"/><rect class="cls-6" x="120.04" y="70.17" width="73.85" height="30.08"/><polygon class="cls-1" points="86.81 47.29 86.81 49.66 89.6 52.62 89.6 57.9 95.09 57.9 95.09 47.29 86.81 47.29"/><rect class="cls-3" x="31.03" y="141.97" width="13.94" height="16.73"/><polygon class="cls-5" points="46.12 134.87 30.64 134.87 32.55 131.67 43.96 131.67 46.12 134.87"/><polygon class="cls-5" points="44.97 141.97 31.03 141.97 27.16 134.87 47.63 134.87 44.97 141.97"/><rect class="cls-5" x="26.79" y="159.67" width="21.38" height="5.23"/><polygon class="cls-5" points="48.17 159.67 26.79 159.67 31.03 156.22 44.97 156.22 48.17 159.67"/><rect class="cls-5" x="18.33" y="167.79" width="29.85" height="5.16"/><polygon class="cls-5" points="26.79 164.9 48.17 164.9 48.17 167.79 18.33 167.79 26.79 164.9"/><polygon class="cls-3" points="43.95 131.67 32.55 131.67 35.65 67.77 40.9 67.77 43.95 131.67"/><circle class="cls-5" cx="38.25" cy="65.04" r="3.79"/><polygon class="cls-5" points="38.48 61.84 38.02 61.84 38.25 51.98 38.25 51.98 38.48 61.84"/><polygon class="cls-1" points="235.48 37.13 218.9 37.13 218.06 37.13 218.06 43.27 231.69 43.27 235.48 37.13"/><polygon class="cls-2" points="231.69 43.27 229.63 47.29 218.06 47.29 218.06 43.27 231.69 43.27"/><polygon class="cls-1" points="226.34 47.29 226.34 49.66 223.56 52.62 223.56 57.9 218.06 57.9 218.06 47.29 226.34 47.29"/><rect class="cls-3" x="268.18" y="141.97" width="13.94" height="16.73" transform="translate(550.31 300.68) rotate(-180)"/><polygon class="cls-5" points="267.03 134.87 282.52 134.87 280.61 131.67 269.19 131.67 267.03 134.87"/><polygon class="cls-5" points="268.18 141.97 282.13 141.97 286 134.87 265.52 134.87 268.18 141.97"/><rect class="cls-5" x="264.98" y="159.67" width="21.38" height="5.23" transform="translate(551.34 324.57) rotate(-180)"/><polygon class="cls-5" points="264.98 159.67 286.36 159.67 282.13 156.22 268.18 156.22 264.98 159.67"/><rect class="cls-5" x="264.98" y="167.79" width="29.85" height="5.16" transform="translate(559.81 340.75) rotate(-180)"/><polygon class="cls-5" points="286.36 164.9 264.98 164.9 264.98 167.79 294.83 167.79 286.36 164.9"/><polygon class="cls-3" points="269.2 131.67 280.61 131.67 277.5 67.77 272.25 67.77 269.2 131.67"/><circle class="cls-5" cx="274.91" cy="65.04" r="3.79"/><polygon class="cls-5" points="274.67 61.84 275.14 61.84 274.9 51.98 274.9 51.98 274.67 61.84"/><polygon class="cls-5" points="156.22 0.5 83.82 34.82 83.82 38.18 228.37 38.18 228.37 34.7 156.22 0.5"/><polygon class="cls-1" points="156.22 5.66 219.37 35.6 93.07 35.6 156.22 5.66"/><polygon class="cls-3" points="156.22 9.08 209.51 35.6 102.93 35.6 156.22 9.08"/><rect class="cls-5" x="44.97" y="173" width="229.8" height="9.48"/><polygon class="cls-5" points="42.1 185.18 8.95 185.18 1.83 175.7 49.21 175.7 42.1 185.18"/><polygon class="cls-5" points="305.06 185.18 271.91 185.18 264.79 175.7 312.17 175.7 305.06 185.18"/><rect class="cls-9" x="119.67" y="189.97" width="9.23" height="13.29"/><rect class="cls-9" x="140.99" y="189.97" width="9.23" height="13.29"/><rect class="cls-9" x="164.68" y="189.97" width="9.23" height="13.29"/><rect class="cls-9" x="186" y="189.97" width="9.23" height="13.29"/><polygon class="cls-6" points="205.28 261.31 167.72 227.44 139.89 233.46 109.05 261.31 109.05 210.92 205.28 210.92 205.28 261.31"/><polygon class="cls-3" points="51.95 182.48 18.79 182.48 11.68 173 59.06 173 51.95 182.48"/><polygon class="cls-3" points="229.62 182.48 87.5 182.48 80.38 173 236.74 173 229.62 182.48"/><polygon class="cls-3" points="295.96 182.48 262.8 182.48 255.69 173 303.07 173 295.96 182.48"/><rect class="cls-3" x="44.1" y="182.48" width="48.06" height="130.14"/><rect class="cls-5" x="83.23" y="299.7" width="10.43" height="57.88"/><rect class="cls-1" x="82.67" y="307.98" width="11.79" height="6.53"/><rect class="cls-1" x="82.67" y="299.7" width="11.79" height="6.53"/><rect class="cls-1" x="82.67" y="328.62" width="12.35" height="6.53"/><rect class="cls-1" x="82.67" y="336.9" width="12.35" height="6.53"/><rect class="cls-1" x="82.67" y="345.15" width="12.35" height="6.53"/><rect class="cls-1" x="80.66" y="362.21" width="14.31" height="43.3"/><polygon class="cls-1" points="80.66 362.21 94.26 362.21 94.26 357.58 83.23 357.58 80.66 362.21"/><rect class="cls-5" x="43.33" y="299.7" width="10.43" height="57.88" transform="translate(97.1 657.28) rotate(-180)"/><rect class="cls-1" x="42.54" y="307.98" width="11.79" height="6.53" transform="translate(96.86 622.5) rotate(-180)"/><rect class="cls-1" x="42.54" y="299.7" width="11.23" height="6.53" transform="translate(96.3 605.93) rotate(-180)"/><rect class="cls-1" x="41.97" y="328.62" width="12.35" height="6.53" transform="translate(96.3 663.77) rotate(-180)"/><rect class="cls-1" x="41.97" y="336.9" width="12.35" height="6.53" transform="translate(96.3 680.34) rotate(-180)"/><rect class="cls-1" x="41.97" y="345.15" width="12.35" height="6.53" transform="translate(96.3 696.84) rotate(-180)"/><rect class="cls-1" x="42.02" y="362.21" width="14.31" height="43.3" transform="translate(98.36 767.71) rotate(-180)"/><polygon class="cls-1" points="56.33 362.21 42.73 362.21 42.73 357.58 53.77 357.58 56.33 362.21"/><rect class="cls-5" x="44.1" y="213.63" width="43.95" height="43.95"/><rect class="cls-5" x="13.59" y="189.97" width="10.43" height="167.61"/><polygon class="cls-1" points="24.02 189.97 13.59 189.97 10.02 185.18 24.02 185.18 24.02 189.97"/><polygon class="cls-1" points="24.02 216.03 13.59 216.03 10.02 211.24 24.02 211.24 24.02 216.03"/><rect class="cls-1" x="13.03" y="203.25" width="10.99" height="1.17"/><rect class="cls-1" x="13.03" y="219.83" width="10.99" height="1.17"/><rect class="cls-1" x="13.03" y="228.14" width="10.99" height="6.53"/><rect class="cls-1" x="13.03" y="236.43" width="10.99" height="6.53"/><rect class="cls-1" x="13.03" y="261.31" width="10.99" height="6.53"/><rect class="cls-1" x="13.03" y="269.59" width="10.99" height="6.53"/><rect class="cls-1" x="13.03" y="277.85" width="10.99" height="6.53"/><rect class="cls-1" x="13.03" y="299.7" width="10.99" height="6.53"/><rect class="cls-1" x="13.03" y="307.98" width="10.99" height="6.53"/><rect class="cls-1" x="13.03" y="328.62" width="10.99" height="6.53"/><rect class="cls-1" x="13.03" y="336.9" width="10.99" height="6.53"/><rect class="cls-1" x="13.03" y="345.15" width="10.99" height="6.53"/><rect class="cls-1" x="11.02" y="362.21" width="13" height="43.3"/><polygon class="cls-1" points="11.02 362.21 24.02 362.21 24.02 357.58 13.59 357.58 11.02 362.21"/><rect class="cls-5" x="109.25" y="260.5" width="10.43" height="97.08" transform="translate(228.93 618.08) rotate(-180)"/><rect class="cls-1" x="109.25" y="261.31" width="10.99" height="6.53" transform="translate(229.49 529.15) rotate(-180)"/><rect class="cls-1" x="109.25" y="269.59" width="10.99" height="6.53" transform="translate(229.49 545.72) rotate(-180)"/><rect class="cls-1" x="109.25" y="277.85" width="10.99" height="6.53" transform="translate(229.49 562.23) rotate(-180)"/><rect class="cls-1" x="109.25" y="299.7" width="10.99" height="6.53" transform="translate(229.49 605.93) rotate(-180)"/><rect class="cls-1" x="109.25" y="307.98" width="10.99" height="6.53" transform="translate(229.49 622.5) rotate(-180)"/><rect class="cls-1" x="109.25" y="328.62" width="10.99" height="6.53" transform="translate(229.49 663.77) rotate(-180)"/><rect class="cls-1" x="109.25" y="336.9" width="10.99" height="6.53" transform="translate(229.49 680.34) rotate(-180)"/><rect class="cls-1" x="109.25" y="345.15" width="10.99" height="6.53" transform="translate(229.49 696.84) rotate(-180)"/><rect class="cls-1" x="109.25" y="362.21" width="13" height="43.3" transform="translate(231.5 767.71) rotate(-180)"/><polygon class="cls-1" points="122.25 362.21 109.25 362.21 109.25 357.58 119.68 357.58 122.25 362.21"/><rect class="cls-3" x="23.06" y="185.18" width="21.08" height="172.4"/><polygon class="cls-5" points="33.5 189.97 23.06 189.97 19.5 185.18 33.5 185.18 33.5 189.97"/><polygon class="cls-5" points="33.5 216.03 23.06 216.03 19.5 211.24 33.5 211.24 33.5 216.03"/><rect class="cls-5" x="22.5" y="203.25" width="11.82" height="1.17"/><rect class="cls-5" x="22.5" y="299.7" width="10.99" height="6.53"/><rect class="cls-5" x="22.5" y="307.98" width="10.99" height="6.53"/><rect class="cls-5" x="22.5" y="328.62" width="10.99" height="6.53"/><rect class="cls-5" x="22.5" y="336.9" width="10.99" height="6.53"/><rect class="cls-5" x="22.5" y="345.15" width="10.99" height="6.53"/><rect class="cls-5" x="20.49" y="362.21" width="13" height="43.3"/><polygon class="cls-5" points="20.5 362.21 33.5 362.21 33.5 357.58 23.06 357.58 20.5 362.21"/><rect class="cls-3" x="33.71" y="182.48" width="10.43" height="175.1" transform="translate(77.85 540.06) rotate(-180)"/><polygon class="cls-5" points="32.93 189.97 44.14 189.97 47.71 185.18 32.93 185.18 32.93 189.97"/><polygon class="cls-5" points="33.05 216.03 44.14 216.03 47.71 211.24 33.05 211.24 33.05 216.03"/><rect class="cls-5" x="33.71" y="203.25" width="10.99" height="1.17" transform="translate(78.41 407.67) rotate(-180)"/><rect class="cls-5" x="32.91" y="299.7" width="11.79" height="6.53" transform="translate(77.62 605.93) rotate(-180)"/><rect class="cls-5" x="32.91" y="307.98" width="11.79" height="6.53" transform="translate(77.62 622.5) rotate(-180)"/><rect class="cls-5" x="32.35" y="328.62" width="12.35" height="6.53" transform="translate(77.06 663.77) rotate(-180)"/><rect class="cls-5" x="32.35" y="336.9" width="12.35" height="6.53" transform="translate(77.06 680.34) rotate(-180)"/><rect class="cls-5" x="32.35" y="345.15" width="12.35" height="6.53" transform="translate(77.06 696.84) rotate(-180)"/><rect class="cls-5" x="32.4" y="362.21" width="14.31" height="43.3" transform="translate(79.11 767.71) rotate(-180)"/><polygon class="cls-5" points="46.71 362.21 33.11 362.21 33.11 357.58 44.14 357.58 46.71 362.21"/><rect class="cls-5" x="22.5" y="261.31" width="22.2" height="6.53"/><rect class="cls-5" x="22.5" y="269.59" width="22.2" height="6.53"/><rect class="cls-5" x="22.5" y="228.14" width="22.2" height="6.53"/><rect class="cls-5" x="22.5" y="236.43" width="22.2" height="6.53"/><rect class="cls-5" x="22.5" y="277.85" width="22.2" height="6.53"/><rect class="cls-5" x="22.5" y="219.83" width="22.2" height="1.17"/><rect class="cls-1" x="52.3" y="220.42" width="29.45" height="29.45"/><rect class="cls-3" x="54.88" y="224.76" width="25.09" height="25.09"/><polygon class="cls-1" points="58.44 249.77 62.39 249.77 61.54 259.35 54.57 259.35 58.44 249.77"/><polygon class="cls-1" points="73.71 249.77 69.76 249.77 70.61 259.35 77.58 259.35 73.71 249.77"/><polygon class="cls-1" points="64.18 249.77 68.92 249.77 69.76 259.35 62.39 259.35 63.24 249.77 64.18 249.77"/><polygon class="cls-1" points="58.44 221.44 62.39 221.44 61.54 211.87 54.57 211.87 58.44 221.44"/><polygon class="cls-1" points="73.71 221.44 69.76 221.44 70.61 211.87 77.58 211.87 73.71 221.44"/><polygon class="cls-1" points="64.18 221.44 68.92 221.44 69.76 211.87 62.39 211.87 63.24 221.44 64.18 221.44"/><rect class="cls-1" x="42.64" y="228.14" width="9.87" height="6.53"/><rect class="cls-1" x="42.64" y="236.43" width="9.87" height="6.53"/><rect class="cls-1" x="80.55" y="228.14" width="9.87" height="6.53"/><rect class="cls-1" x="80.55" y="236.43" width="9.87" height="6.53"/><rect class="cls-9" x="62.81" y="189.97" width="9.23" height="13.29"/><rect class="cls-9" x="29.44" y="189.97" width="8.33" height="13.29"/><rect class="cls-1" x="65.6" y="224.76" width="3.38" height="25.01"/><rect class="cls-1" x="53.21" y="236.43" width="27.03" height="0.88"/><polygon class="cls-5" points="53.99 312.62 58.73 312.62 53.52 299.08 49.55 304.25 53.99 312.62"/><polygon class="cls-5" points="59.8 312.62 64.54 312.62 61.11 291.98 54.14 297.96 59.8 312.62"/><polyline class="cls-5" points="68.21 312.61 65.5 312.62 61.95 291.32 68.21 289.34 68.21 312.61"/><polygon class="cls-5" points="82.42 312.62 77.68 312.62 82.9 299.08 86.86 304.25 82.42 312.62"/><polygon class="cls-5" points="76.62 312.62 71.88 312.62 75.31 291.98 82.27 297.96 76.62 312.62"/><polyline class="cls-5" points="68.21 312.61 70.92 312.62 74.46 291.32 68.21 289.34 68.21 312.61"/><rect class="cls-3" x="91.5" y="182.48" width="21.08" height="175.1"/><polygon class="cls-5" points="101.93 189.97 91.5 189.97 87.93 185.18 101.93 185.18 101.93 189.97"/><polygon class="cls-5" points="101.93 216.03 91.5 216.03 87.93 211.24 101.93 211.24 101.93 216.03"/><rect class="cls-5" x="90.94" y="203.25" width="11.82" height="1.17"/><rect class="cls-5" x="90.94" y="299.7" width="10.99" height="6.53"/><rect class="cls-5" x="90.94" y="307.98" width="10.99" height="6.53"/><rect class="cls-5" x="90.94" y="328.62" width="10.99" height="6.53"/><rect class="cls-5" x="90.94" y="336.9" width="10.99" height="6.53"/><rect class="cls-5" x="90.94" y="345.15" width="10.99" height="6.53"/><rect class="cls-5" x="88.93" y="362.21" width="13" height="43.3"/><polygon class="cls-5" points="88.93 362.21 101.93 362.21 101.93 357.58 91.5 357.58 88.93 362.21"/><rect class="cls-3" x="102.14" y="189.97" width="10.43" height="167.61" transform="translate(214.72 547.55) rotate(-180)"/><polygon class="cls-5" points="101.36 189.97 112.58 189.97 116.14 185.18 101.36 185.18 101.36 189.97"/><polygon class="cls-5" points="101.48 216.03 112.58 216.03 116.14 211.24 101.48 211.24 101.48 216.03"/><rect class="cls-5" x="102.14" y="203.25" width="10.99" height="1.17" transform="translate(215.28 407.67) rotate(-180)"/><rect class="cls-5" x="101.35" y="299.7" width="11.79" height="6.53" transform="translate(214.48 605.93) rotate(-180)"/><rect class="cls-5" x="101.35" y="307.98" width="11.79" height="6.53" transform="translate(214.48 622.5) rotate(-180)"/><rect class="cls-5" x="100.78" y="328.62" width="12.35" height="6.53" transform="translate(213.92 663.77) rotate(-180)"/><rect class="cls-5" x="100.78" y="336.9" width="12.35" height="6.53" transform="translate(213.92 680.34) rotate(-180)"/><rect class="cls-5" x="100.78" y="345.15" width="12.35" height="6.53" transform="translate(213.92 696.84) rotate(-180)"/><rect class="cls-5" x="100.84" y="362.21" width="14.31" height="43.3" transform="translate(215.98 767.71) rotate(-180)"/><polygon class="cls-5" points="115.14 362.21 101.54 362.21 101.54 357.58 112.58 357.58 115.14 362.21"/><rect class="cls-5" x="90.94" y="261.31" width="22.2" height="6.53"/><rect class="cls-5" x="90.94" y="269.59" width="22.2" height="6.53"/><rect class="cls-5" x="90.94" y="228.14" width="22.2" height="6.53"/><rect class="cls-5" x="90.94" y="236.43" width="22.2" height="6.53"/><rect class="cls-5" x="90.94" y="277.85" width="22.2" height="6.53"/><rect class="cls-5" x="90.94" y="219.83" width="22.2" height="1.17"/><rect class="cls-9" x="97.42" y="189.97" width="9.23" height="13.29"/><rect class="cls-3" x="222.53" y="182.48" width="48.06" height="130.14" transform="translate(493.12 495.09) rotate(-180)"/><rect class="cls-5" x="221.03" y="299.7" width="10.43" height="57.88" transform="translate(452.48 657.28) rotate(-180)"/><rect class="cls-1" x="220.23" y="307.98" width="11.79" height="6.53" transform="translate(452.25 622.5) rotate(-180)"/><rect class="cls-1" x="220.23" y="299.7" width="11.79" height="6.53" transform="translate(452.25 605.93) rotate(-180)"/><rect class="cls-1" x="219.67" y="328.62" width="12.35" height="6.53" transform="translate(451.69 663.77) rotate(-180)"/><rect class="cls-1" x="219.67" y="336.9" width="12.35" height="6.53" transform="translate(451.69 680.34) rotate(-180)"/><rect class="cls-1" x="219.67" y="345.15" width="12.35" height="6.53" transform="translate(451.69 696.84) rotate(-180)"/><rect class="cls-1" x="219.72" y="362.21" width="14.31" height="43.3" transform="translate(453.74 767.71) rotate(-180)"/><polygon class="cls-1" points="234.03 362.21 220.42 362.21 220.42 357.58 231.46 357.58 234.03 362.21"/><rect class="cls-5" x="260.92" y="299.7" width="10.43" height="57.88"/><rect class="cls-1" x="260.36" y="307.98" width="11.79" height="6.53"/><rect class="cls-1" x="260.92" y="299.7" width="11.23" height="6.53"/><rect class="cls-1" x="260.36" y="328.62" width="12.35" height="6.53"/><rect class="cls-1" x="260.36" y="336.9" width="12.35" height="6.53"/><rect class="cls-1" x="260.36" y="345.15" width="12.35" height="6.53"/><rect class="cls-1" x="258.35" y="362.21" width="14.31" height="43.3"/><polygon class="cls-1" points="258.35 362.21 271.96 362.21 271.96 357.58 260.92 357.58 258.35 362.21"/><rect class="cls-5" x="226.64" y="213.63" width="43.95" height="43.95" transform="translate(497.23 471.21) rotate(-180)"/><rect class="cls-5" x="290.67" y="189.97" width="10.43" height="167.61" transform="translate(591.77 547.55) rotate(-180)"/><polygon class="cls-1" points="290.67 189.97 301.1 189.97 304.67 185.18 290.67 185.18 290.67 189.97"/><polygon class="cls-1" points="290.67 216.03 301.1 216.03 304.67 211.24 290.67 211.24 290.67 216.03"/><rect class="cls-1" x="290.67" y="203.25" width="10.99" height="1.17" transform="translate(592.33 407.67) rotate(-180)"/><rect class="cls-1" x="290.67" y="219.83" width="10.99" height="1.17" transform="translate(592.33 440.84) rotate(-180)"/><rect class="cls-1" x="290.67" y="228.14" width="10.99" height="6.53" transform="translate(592.33 462.82) rotate(-180)"/><rect class="cls-1" x="290.67" y="236.43" width="10.99" height="6.53" transform="translate(592.33 479.39) rotate(-180)"/><rect class="cls-1" x="290.67" y="261.31" width="10.99" height="6.53" transform="translate(592.33 529.15) rotate(-180)"/><rect class="cls-1" x="290.67" y="269.59" width="10.99" height="6.53" transform="translate(592.33 545.72) rotate(-180)"/><rect class="cls-1" x="290.67" y="277.85" width="10.99" height="6.53" transform="translate(592.33 562.23) rotate(-180)"/><rect class="cls-1" x="290.67" y="299.7" width="10.99" height="6.53" transform="translate(592.33 605.93) rotate(-180)"/><rect class="cls-1" x="290.67" y="307.98" width="10.99" height="6.53" transform="translate(592.33 622.5) rotate(-180)"/><rect class="cls-1" x="290.67" y="328.62" width="10.99" height="6.53" transform="translate(592.33 663.77) rotate(-180)"/><rect class="cls-1" x="290.67" y="336.9" width="10.99" height="6.53" transform="translate(592.33 680.34) rotate(-180)"/><rect class="cls-1" x="290.67" y="345.15" width="10.99" height="6.53" transform="translate(592.33 696.84) rotate(-180)"/><rect class="cls-1" x="290.67" y="362.21" width="13" height="43.3" transform="translate(594.34 767.71) rotate(-180)"/><polygon class="cls-1" points="303.67 362.21 290.67 362.21 290.67 357.58 301.1 357.58 303.67 362.21"/><rect class="cls-5" x="195" y="260.5" width="10.43" height="97.08"/><rect class="cls-1" x="194.44" y="261.31" width="10.99" height="6.53"/><rect class="cls-1" x="194.44" y="269.59" width="10.99" height="6.53"/><rect class="cls-1" x="194.44" y="277.85" width="10.99" height="6.53"/><rect class="cls-1" x="194.44" y="299.7" width="10.99" height="6.53"/><rect class="cls-1" x="194.44" y="307.98" width="10.99" height="6.53"/><rect class="cls-1" x="194.44" y="328.62" width="10.99" height="6.53"/><rect class="cls-1" x="194.44" y="336.9" width="10.99" height="6.53"/><rect class="cls-1" x="194.44" y="345.15" width="10.99" height="6.53"/><rect class="cls-1" x="192.43" y="362.21" width="13" height="43.3"/><polygon class="cls-1" points="192.44 362.21 205.44 362.21 205.44 357.58 195 357.58 192.44 362.21"/><rect class="cls-3" x="270.54" y="185.18" width="21.08" height="172.4" transform="translate(562.17 542.76) rotate(-180)"/><polygon class="cls-5" points="281.19 189.97 291.62 189.97 295.19 185.18 281.19 185.18 281.19 189.97"/><polygon class="cls-5" points="281.19 216.03 291.62 216.03 295.19 211.24 281.19 211.24 281.19 216.03"/><rect class="cls-5" x="280.36" y="203.25" width="11.82" height="1.17" transform="translate(572.55 407.67) rotate(-180)"/><rect class="cls-5" x="281.19" y="299.7" width="10.99" height="6.53" transform="translate(573.37 605.93) rotate(-180)"/><rect class="cls-5" x="281.19" y="307.98" width="10.99" height="6.53" transform="translate(573.37 622.5) rotate(-180)"/><rect class="cls-5" x="281.19" y="328.62" width="10.99" height="6.53" transform="translate(573.37 663.77) rotate(-180)"/><rect class="cls-5" x="281.19" y="336.9" width="10.99" height="6.53" transform="translate(573.37 680.34) rotate(-180)"/><rect class="cls-5" x="281.19" y="345.15" width="10.99" height="6.53" transform="translate(573.37 696.84) rotate(-180)"/><rect class="cls-5" x="281.19" y="362.21" width="13" height="43.3" transform="translate(575.38 767.71) rotate(-180)"/><polygon class="cls-5" points="294.19 362.21 281.19 362.21 281.19 357.58 291.62 357.58 294.19 362.21"/><rect class="cls-3" x="270.54" y="182.48" width="10.43" height="175.1"/><polygon class="cls-5" points="281.76 189.97 270.54 189.97 266.98 185.18 281.76 185.18 281.76 189.97"/><polygon class="cls-5" points="281.64 216.03 270.54 216.03 266.98 211.24 281.64 211.24 281.64 216.03"/><rect class="cls-5" x="269.98" y="203.25" width="10.99" height="1.17"/><rect class="cls-5" x="269.98" y="299.7" width="11.79" height="6.53"/><rect class="cls-5" x="269.98" y="307.98" width="11.79" height="6.53"/><rect class="cls-5" x="269.98" y="328.62" width="12.35" height="6.53"/><rect class="cls-5" x="269.98" y="336.9" width="12.35" height="6.53"/><rect class="cls-5" x="269.98" y="345.15" width="12.35" height="6.53"/><rect class="cls-5" x="267.98" y="362.21" width="14.31" height="43.3"/><polygon class="cls-5" points="267.98 362.21 281.58 362.21 281.58 357.58 270.54 357.58 267.98 362.21"/><rect class="cls-5" x="269.98" y="261.31" width="22.2" height="6.53" transform="translate(562.17 529.15) rotate(-180)"/><rect class="cls-5" x="269.98" y="269.59" width="22.2" height="6.53" transform="translate(562.17 545.72) rotate(-180)"/><rect class="cls-5" x="269.98" y="228.14" width="22.2" height="6.53" transform="translate(562.17 462.82) rotate(-180)"/><rect class="cls-5" x="269.98" y="236.43" width="22.2" height="6.53" transform="translate(562.17 479.39) rotate(-180)"/><rect class="cls-5" x="269.98" y="277.85" width="22.2" height="6.53" transform="translate(562.17 562.23) rotate(-180)"/><rect class="cls-5" x="269.98" y="219.83" width="22.2" height="1.17" transform="translate(562.17 440.84) rotate(-180)"/><rect class="cls-1" x="232.93" y="220.42" width="29.45" height="29.45" transform="translate(495.32 470.29) rotate(-180)"/><rect class="cls-3" x="234.72" y="224.76" width="25.09" height="25.09" transform="translate(494.52 474.61) rotate(-180)"/><polygon class="cls-1" points="256.25 249.77 252.3 249.77 253.15 259.35 260.12 259.35 256.25 249.77"/><polygon class="cls-1" points="240.98 249.77 244.93 249.77 244.08 259.35 237.11 259.35 240.98 249.77"/><polygon class="cls-1" points="250.51 249.77 245.77 249.77 244.93 259.35 252.3 259.35 251.44 249.77 250.51 249.77"/><polygon class="cls-1" points="256.25 221.44 252.3 221.44 253.15 211.87 260.12 211.87 256.25 221.44"/><polygon class="cls-1" points="240.98 221.44 244.93 221.44 244.08 211.87 237.11 211.87 240.98 221.44"/><polygon class="cls-1" points="250.51 221.44 245.77 221.44 244.93 211.87 252.3 211.87 251.44 221.44 250.51 221.44"/><rect class="cls-1" x="262.17" y="228.14" width="9.87" height="6.53" transform="translate(534.22 462.82) rotate(-180)"/><rect class="cls-1" x="262.17" y="236.43" width="9.87" height="6.53" transform="translate(534.22 479.39) rotate(-180)"/><rect class="cls-1" x="224.27" y="228.14" width="9.87" height="6.53" transform="translate(458.41 462.82) rotate(-180)"/><rect class="cls-1" x="224.27" y="236.43" width="9.87" height="6.53" transform="translate(458.41 479.39) rotate(-180)"/><rect class="cls-9" x="242.64" y="189.97" width="9.23" height="13.29" transform="translate(494.52 393.23) rotate(-180)"/><rect class="cls-9" x="276.92" y="189.97" width="8.33" height="13.29" transform="translate(562.17 393.23) rotate(-180)"/><rect class="cls-1" x="245.71" y="224.76" width="3.38" height="25.01" transform="translate(494.79 474.53) rotate(-180)"/><rect class="cls-1" x="234.45" y="236.43" width="27.03" height="0.88" transform="translate(495.92 473.73) rotate(-180)"/><polygon class="cls-5" points="260.69 312.62 255.96 312.62 261.17 299.08 265.13 304.25 260.69 312.62"/><polygon class="cls-5" points="254.89 312.62 250.15 312.62 253.58 291.98 260.54 297.96 254.89 312.62"/><polyline class="cls-5" points="246.48 312.61 249.19 312.62 252.74 291.32 246.48 289.34 246.48 312.61"/><polygon class="cls-5" points="232.26 312.62 237 312.62 231.79 299.08 227.82 304.25 232.26 312.62"/><polygon class="cls-5" points="238.07 312.62 242.81 312.62 239.38 291.98 232.41 297.96 238.07 312.62"/><polyline class="cls-5" points="246.48 312.61 243.77 312.62 240.22 291.32 246.48 289.34 246.48 312.61"/><rect class="cls-3" x="202.11" y="182.48" width="21.08" height="175.1" transform="translate(425.3 540.06) rotate(-180)"/><polygon class="cls-5" points="212.76 189.97 223.19 189.97 226.76 185.18 212.76 185.18 212.76 189.97"/><polygon class="cls-5" points="212.76 216.03 223.19 216.03 226.76 211.24 212.76 211.24 212.76 216.03"/><rect class="cls-5" x="211.93" y="203.25" width="11.82" height="1.17" transform="translate(435.68 407.67) rotate(-180)"/><rect class="cls-5" x="212.76" y="299.7" width="10.99" height="6.53" transform="translate(436.51 605.93) rotate(-180)"/><rect class="cls-5" x="212.76" y="307.98" width="10.99" height="6.53" transform="translate(436.51 622.5) rotate(-180)"/><rect class="cls-5" x="212.76" y="328.62" width="10.99" height="6.53" transform="translate(436.51 663.77) rotate(-180)"/><rect class="cls-5" x="212.76" y="336.9" width="10.99" height="6.53" transform="translate(436.51 680.34) rotate(-180)"/><rect class="cls-5" x="212.76" y="345.15" width="10.99" height="6.53" transform="translate(436.51 696.84) rotate(-180)"/><rect class="cls-5" x="212.76" y="362.21" width="13" height="43.3" transform="translate(438.52 767.71) rotate(-180)"/><polygon class="cls-5" points="225.76 362.21 212.76 362.21 212.76 357.58 223.19 357.58 225.76 362.21"/><rect class="cls-3" x="202.11" y="189.97" width="10.43" height="167.61"/><polygon class="cls-5" points="213.32 189.97 202.11 189.97 198.54 185.18 213.32 185.18 213.32 189.97"/><polygon class="cls-5" points="213.2 216.03 202.11 216.03 198.54 211.24 213.2 211.24 213.2 216.03"/><rect class="cls-5" x="201.55" y="203.25" width="10.99" height="1.17"/><rect class="cls-5" x="201.55" y="299.7" width="11.79" height="6.53"/><rect class="cls-5" x="201.55" y="307.98" width="11.79" height="6.53"/><rect class="cls-5" x="201.55" y="328.62" width="12.35" height="6.53"/><rect class="cls-5" x="201.55" y="336.9" width="12.35" height="6.53"/><rect class="cls-5" x="201.55" y="345.15" width="12.35" height="6.53"/><rect class="cls-5" x="199.54" y="362.21" width="14.31" height="43.3"/><polygon class="cls-5" points="199.54 362.21 213.15 362.21 213.15 357.58 202.11 357.58 199.54 362.21"/><rect class="cls-5" x="201.55" y="261.31" width="22.2" height="6.53" transform="translate(425.3 529.15) rotate(-180)"/><rect class="cls-5" x="201.55" y="269.59" width="22.2" height="6.53" transform="translate(425.3 545.72) rotate(-180)"/><rect class="cls-5" x="201.55" y="228.14" width="22.2" height="6.53" transform="translate(425.3 462.82) rotate(-180)"/><rect class="cls-5" x="201.55" y="236.43" width="22.2" height="6.53" transform="translate(425.3 479.39) rotate(-180)"/><rect class="cls-5" x="201.55" y="277.85" width="22.2" height="6.53" transform="translate(425.3 562.23) rotate(-180)"/><rect class="cls-5" x="201.55" y="219.83" width="22.2" height="1.17" transform="translate(425.3 440.84) rotate(-180)"/><rect class="cls-9" x="208.03" y="189.97" width="9.23" height="13.29" transform="translate(425.3 393.23) rotate(-180)"/><path class="cls-1" d="M157.17,220.62c-24,0-44.12,18.93-48.12,40.69h12.1c3-16.92,18-30.45,36-30.45s33,13.53,36,30.45h12.1C201.28,239.55,181.2,220.62,157.17,220.62Z"/><polygon class="cls-3" points="143.88 233.09 150.4 233.09 149 210.92 137.49 210.92 143.88 233.09"/><polygon class="cls-3" points="169.09 233.09 162.58 233.09 163.97 210.92 175.49 210.92 169.09 233.09"/><polygon class="cls-3" points="153.36 233.09 161.18 233.09 162.58 210.92 150.4 210.92 151.81 233.09 153.36 233.09"/><polygon class="cls-3" points="124.35 250.97 133.47 239.42 123.64 227.18 109.05 227.18 109.05 243.38 124.35 250.97"/><polygon class="cls-3" points="189.59 250.2 179.98 238.68 189.22 227.18 203.81 227.18 203.81 243.38 189.59 250.2"/></svg>