<svg id="Layer_1" data-name="Layer 1" xmlns="http://www.w3.org/2000/svg" xmlns:xlink="http://www.w3.org/1999/xlink" viewBox="0 0 180 434"><defs><style>.cls-1{fill:#e38620;}.cls-2{fill:url(#linear-gradient);}.cls-3{fill:url(#linear-gradient-2);}.cls-4{fill:#5c7061;}.cls-5{fill:#f0bf89;}.cls-6{fill:#ebb162;}.cls-7{fill:#eaa356;}.cls-8{fill:#415947;}.cls-9{fill:url(#linear-gradient-3);}</style><linearGradient id="linear-gradient" x1="154.87" y1="345.03" x2="116.57" y2="345.03" gradientUnits="userSpaceOnUse"><stop offset="0.19" stop-color="#e38620" stop-opacity="0"/><stop offset="0.32" stop-color="#dc8523" stop-opacity="0.05"/><stop offset="0.49" stop-color="#ca822c" stop-opacity="0.19"/><stop offset="0.67" stop-color="#ab7d3b" stop-opacity="0.41"/><stop offset="0.86" stop-color="#807650" stop-opacity="0.73"/><stop offset="1" stop-color="#5c7061"/></linearGradient><linearGradient id="linear-gradient-2" x1="64.8" y1="433.12" x2="64.8" y2="275.63" gradientUnits="userSpaceOnUse"><stop offset="0.5" stop-color="#e38620" stop-opacity="0"/><stop offset="0.73" stop-color="#e08521" stop-opacity="0.02"/><stop offset="0.81" stop-color="#d38224" stop-opacity="0.1"/><stop offset="0.87" stop-color="#be7c29" stop-opacity="0.23"/><stop offset="0.92" stop-color="#9f7330" stop-opacity="0.42"/><stop offset="0.96" stop-color="#78683a" stop-opacity="0.66"/><stop offset="1" stop-color="#475b46" stop-opacity="0.96"/><stop offset="1" stop-color="#415947"/></linearGradient><linearGradient id="linear-gradient-3" x1="176.78" y1="390.84" x2="154.87" y2="390.84" xlink:href="#linear-gradient"/></defs><title>prague</title><rect class="cls-1" x="116.57" y="256.94" width="38.31" height="176.18"/><rect class="cls-2" x="116.57" y="256.94" width="38.31" height="176.18"/><rect class="cls-1" x="13.04" y="89.6" width="103.52" height="343.72"/><path class="cls-1" d="M80.52,297.59v-6.18A15.42,15.42,0,0,0,65,276H64c-8.61,0-14.93,6.82-14.93,15.43v6.18H43.19V433.12H86.41V297.59Z"/><path class="cls-3" d="M81.17,297.53v-6.18c0-8.61-5.87-15.72-16.36-15.72h-1A15.87,15.87,0,0,0,48.1,291.38v6.18l-4.91,0V433.12H86.41V297.59Z"/><rect class="cls-4" x="59.43" y="234.71" width="10.74" height="22.56"/><polygon class="cls-4" points="64.8 203.37 67.48 219.04 70.17 234.71 64.8 234.71 59.43 234.71 62.12 219.04 64.8 203.37"/><circle class="cls-4" cx="64.8" cy="204.15" r="1.19"/><polygon class="cls-5" points="105 266.77 24.59 266.77 40.29 256.45 89.29 256.45 105 266.77"/><rect class="cls-4" x="13.04" y="266.77" width="103.53" height="3.29"/><rect class="cls-4" x="13.04" y="254.8" width="103.53" height="1.65"/><rect class="cls-4" x="13.04" y="146.76" width="103.53" height="1.65"/><polygon class="cls-4" points="74.1 386.57 42.02 386.57 42.02 380.23 67.11 380.23 74.1 386.57"/><rect class="cls-4" x="41.76" y="293.7" width="4.14" height="130.56"/><rect class="cls-4" x="83.79" y="293.7" width="4.14" height="130.56"/><rect class="cls-6" x="39.51" y="423.79" width="7.12" height="9.34"/><rect class="cls-6" x="82.73" y="423.79" width="7.12" height="9.34"/><rect class="cls-6" x="53.14" y="295.25" width="6.32" height="9.26"/><rect class="cls-6" x="69.7" y="295.25" width="6.32" height="9.26"/><polygon class="cls-6" points="66.77 293.2 62.7 293.2 62.7 287.71 64.73 286.27 66.77 287.71 66.77 293.2"/><rect class="cls-4" x="50.31" y="307.44" width="28.36" height="1.53"/><circle class="cls-4" cx="64.84" cy="333.58" r="17.45"/><circle class="cls-7" cx="64.84" cy="333.58" r="14.49"/><path class="cls-1" d="M61.42,322.73a11.34,11.34,0,1,0,11.34,11.34A11.34,11.34,0,0,0,61.42,322.73Zm0,18.21a6.87,6.87,0,1,1,6.87-6.87A6.87,6.87,0,0,1,61.42,340.94Z"/><circle class="cls-6" cx="65.15" cy="333.36" r="5.89"/><path class="cls-5" d="M65.35,323.76a9.59,9.59,0,1,0,9.59,9.59A9.59,9.59,0,0,0,65.35,323.76Zm0,18.76a9.17,9.17,0,1,1,9.17-9.17A9.17,9.17,0,0,1,65.35,342.52Z"/><path class="cls-4" d="M61.42,323.9a10.17,10.17,0,1,0,10.17,10.17A10.17,10.17,0,0,0,61.42,323.9Zm0,16.33a6.16,6.16,0,1,1,6.16-6.16A6.16,6.16,0,0,1,61.42,340.23Z"/><rect class="cls-1" x="48.81" y="332.95" width="29.17" height="0.23" transform="translate(-19.62 4.34) rotate(-3.4)"/><rect class="cls-1" x="49.61" y="332.26" width="29.17" height="0.23" transform="translate(194.55 19.96) rotate(33.58)"/><rect class="cls-1" x="53.12" y="334.35" width="24.82" height="0.23" transform="translate(369.47 180.27) rotate(74.18)"/><circle class="cls-1" cx="52.51" cy="333.7" r="0.84"/><circle class="cls-4" cx="64.46" cy="376.64" r="19.85"/><rect class="cls-4" x="22.36" y="351.14" width="63.93" height="3.39"/><rect class="cls-4" x="22.36" y="396.07" width="63.93" height="3.39"/><path class="cls-6" d="M64.58,357.68a19,19,0,1,0,19,19A19,19,0,0,0,64.58,357.68Zm0,35.47a16.51,16.51,0,1,1,16.51-16.51A16.51,16.51,0,0,1,64.58,393.15Z"/><circle class="cls-7" cx="64.58" cy="377" r="13.51"/><circle class="cls-6" cx="64.58" cy="376.95" r="4.5"/><circle class="cls-1" cx="64.58" cy="376.9" r="2.25"/><circle class="cls-1" cx="55.49" cy="371.61" r="2.7"/><circle class="cls-1" cx="59.43" cy="367.69" r="2.7"/><circle class="cls-1" cx="64.87" cy="366.32" r="2.7"/><circle class="cls-1" cx="70.24" cy="367.91" r="2.7"/><circle class="cls-1" cx="74.07" cy="371.88" r="2.7"/><circle class="cls-1" cx="75.29" cy="377.23" r="2.7"/><circle class="cls-1" cx="73.75" cy="382.55" r="2.7"/><circle class="cls-1" cx="69.8" cy="386.37" r="2.7"/><circle class="cls-1" cx="64.4" cy="387.71" r="2.7"/><circle class="cls-1" cx="59.07" cy="386.22" r="2.7"/><circle class="cls-1" cx="55.27" cy="382.31" r="2.7"/><circle class="cls-1" cx="53.86" cy="377" r="2.7"/><circle class="cls-5" cx="59.15" cy="373.78" r="1.61"/><circle class="cls-5" cx="61.5" cy="371.44" r="1.61"/><circle class="cls-5" cx="64.75" cy="370.62" r="1.61"/><circle class="cls-5" cx="67.96" cy="371.58" r="1.61"/><circle class="cls-5" cx="70.25" cy="373.95" r="1.61"/><circle class="cls-5" cx="70.98" cy="377.14" r="1.61"/><circle class="cls-5" cx="70.06" cy="380.33" r="1.61"/><circle class="cls-5" cx="67.7" cy="382.6" r="1.61"/><circle class="cls-5" cx="64.47" cy="383.41" r="1.61"/><circle class="cls-5" cx="61.28" cy="382.51" r="1.61"/><circle class="cls-5" cx="59.01" cy="380.18" r="1.61"/><circle class="cls-5" cx="58.17" cy="377.01" r="1.61"/><path class="cls-8" d="M69.35,433.12V413.77a4.52,4.52,0,0,0-4.5-4.5H64.3a4.52,4.52,0,0,0-4.5,4.5v19.35Z"/><rect class="cls-6" x="29.46" y="330.74" width="12.31" height="20.4"/><rect class="cls-8" x="31.42" y="333.26" width="5.38" height="17.88"/><rect class="cls-4" x="25.91" y="325.5" width="15.85" height="5.24"/><path class="cls-4" d="M42,357.68c0,.85-1.79,2.31-1.94,4S37.77,365,35.2,365s-3-1.85-3-1.85-.16.65-2,1.14c-5.75,1.19-4.14-3.62-4.14-3.62-4.54-2.53-3.71-6.14-3.71-6.14H42Z"/><rect class="cls-4" x="13.04" y="380.39" width="17.4" height="3.91"/><rect class="cls-4" x="13.04" y="332.04" width="9.34" height="1.99"/><rect class="cls-1" x="104.89" y="387.06" width="29.14" height="46.06"/><polygon class="cls-4" points="138.94 386.57 104.89 386.57 104.89 378.75 134.03 378.75 138.94 386.57"/><path class="cls-4" d="M81.93,284.2c-2.83-4.34-5.09-7.75-7.73-8.25s-9.11-3.33-9.11-4.27v0c0,.94-6.74,3.77-9.38,4.27s-5.1,3.9-7.93,8.25-10.5,8.27-10.5,8.27l1.82,2,4.74-2.92,5-.05s-1.64-12,13.1-15.84h5.84c14.74,3.89,13.11,15.83,13.11,15.83l5,0,4.75,3,1.84-2S84.77,288.54,81.93,284.2Z"/><polygon class="cls-8" points="37.23 297.94 37.23 292.47 39.07 294.5 43.82 291.58 48.79 291.59 48.79 294.13 43.82 294.13 39.06 297.05 39.06 298.94 37.23 297.94"/><polygon class="cls-8" points="92.41 297.93 92.41 292.47 90.57 294.5 85.81 291.58 80.84 291.58 80.85 294.13 85.82 294.13 90.58 297.05 90.58 298.93 92.41 297.93"/><rect class="cls-6" x="58.29" y="171.64" width="13" height="24.38"/><rect class="cls-7" x="60.57" y="174.41" width="8.45" height="21.62"/><rect class="cls-7" x="43.84" y="93.87" width="41.92" height="50.84"/><circle class="cls-1" cx="64.8" cy="115.14" r="18.9"/><rect class="cls-5" x="50.85" y="114.33" width="16.62" height="0.83" transform="translate(9.14 -4.27) rotate(4.48)"/><rect class="cls-5" x="61.83" y="114.06" width="16.62" height="0.83" transform="translate(156.18 217.53) rotate(171.63)"/><circle class="cls-5" cx="64.8" cy="115.14" r="1.14"/><rect class="cls-7" x="25.47" y="75.91" width="77.85" height="7.51"/><polygon class="cls-7" points="25.47 83.42 22.54 83.42 17.93 88.49 8.96 88.49 3.22 83.42 3.22 75.71 9.89 71.95 19.43 71.95 25.47 75.91 25.47 83.42"/><polygon class="cls-7" points="103.33 83.42 106.25 83.42 110.87 88.49 119.84 88.49 125.58 83.42 125.58 75.71 118.91 71.95 109.37 71.95 103.33 75.91 103.33 83.42"/><rect class="cls-6" x="25.47" y="82.41" width="77.85" height="7.51"/><polygon class="cls-6" points="25.47 89.93 22.54 89.93 17.93 95 8.96 95 3.22 89.93 3.22 82.21 9.89 78.46 19.43 78.46 25.47 82.41 25.47 89.93"/><polygon class="cls-7" points="114.27 32.9 114.28 23.57 113.85 23.57 113.84 32.9 106.03 58.42 122.09 58.42 114.27 32.9"/><circle class="cls-7" cx="114.07" cy="22.34" r="1.29"/><rect class="cls-5" x="113.85" y="23.57" width="0.43" height="9.34"/><polygon class="cls-7" points="14.81 32.9 14.82 23.57 14.39 23.57 14.38 32.9 6.57 58.42 22.64 58.42 14.81 32.9"/><circle class="cls-7" cx="14.61" cy="22.34" r="1.29"/><rect class="cls-5" x="14.39" y="23.57" width="0.43" height="9.34"/><polygon class="cls-6" points="103.33 89.93 106.25 89.93 110.87 95 119.84 95 125.58 89.93 125.58 82.21 118.91 78.46 109.37 78.46 103.33 82.41 103.33 89.93"/><polygon class="cls-4" points="103.33 72.66 109.37 68.7 109.37 68.7 118.91 68.7 125.58 72.46 125.58 59.45 118.91 55.7 109.37 55.7 103.33 59.65 103.33 72.66"/><polygon class="cls-1" points="103.33 75.91 109.37 71.95 109.37 71.95 118.91 71.95 125.58 75.71 125.58 62.7 118.91 58.95 109.37 58.95 103.33 62.9 103.33 75.91"/><polygon class="cls-4" points="25.47 72.66 19.43 68.7 19.43 68.7 9.89 68.7 3.22 72.46 3.22 59.45 9.89 55.7 19.43 55.7 25.47 59.65 25.47 72.66"/><polygon class="cls-1" points="25.47 75.91 19.43 71.95 19.43 71.95 9.89 71.95 3.22 75.71 3.22 62.7 9.89 58.95 19.43 58.95 25.47 62.9 25.47 75.91"/><path class="cls-1" d="M62.85,62.94H25.47v13h3.12V70a4.68,4.68,0,1,1,9.36,0v5.9h3.12V70a4.68,4.68,0,1,1,9.36,0v5.9h3.12V70a4.66,4.66,0,0,1,9.31-.46Z"/><path class="cls-1" d="M100.23,62.94H62.85v13H66V70a4.68,4.68,0,1,1,9.36,0v5.9h3.12V70a4.68,4.68,0,1,1,9.36,0v5.9h3.12V70a4.66,4.66,0,0,1,9.31-.46Z"/><rect class="cls-1" x="100.23" y="62.94" width="3.09" height="12.97"/><polygon class="cls-7" points="64.4 9.37 93.43 59.65 35.37 59.65 64.4 9.37"/><path class="cls-1" d="M70,60.79V51.21a5.59,5.59,0,1,0-11.18,0v9.58Z"/><path class="cls-7" d="M68.3,60.79V51.56a3.9,3.9,0,0,0-7.8,0v9.23Z"/><rect class="cls-4" x="25.47" y="59.65" width="77.85" height="3.29"/><polygon class="cls-1" points="68.3 28 60.5 28 60.5 20.19 64.4 17.59 68.3 20.19 68.3 28"/><rect class="cls-5" x="63.94" y="4.11" width="1.15" height="6.24"/><circle class="cls-7" cx="64.51" cy="3.13" r="2.45"/><polygon class="cls-7" points="116.55 232.04 116.55 254.8 157.94 254.8 116.55 232.04"/><rect class="cls-4" x="116.57" y="254.8" width="41.37" height="1.65"/><rect class="cls-4" x="116.57" y="266.77" width="38.31" height="1.65"/><path class="cls-6" d="M140.22,337.26V294.69c0-5.23-3.79-9.51-8.43-9.51s-8.43,4.28-8.43,9.51v42.57Z"/><path class="cls-4" d="M137.63,331.33V293.77a5.84,5.84,0,0,0-11.68,0v37.56Z"/><rect class="cls-4" x="116.57" y="337.26" width="39.04" height="2.97"/><polygon class="cls-4" points="118.13 335.94 97.72 335.94 96.16 333.26 116.56 333.26 118.13 335.94"/><polygon class="cls-1" points="154.87 348.56 176.78 362.2 176.78 433.12 154.87 433.12 154.87 348.56"/><polygon class="cls-9" points="154.87 348.56 176.78 362.2 176.78 433.12 154.87 433.12 154.87 348.56"/><rect class="cls-4" x="134.03" y="389.41" width="12.36" height="43.71"/><rect class="cls-6" x="134.03" y="390.84" width="10.57" height="42.28"/><rect class="cls-4" x="95.97" y="333.21" width="2.09" height="19.15"/><rect class="cls-4" x="95.97" y="328.71" width="1.04" height="19.15"/><rect class="cls-4" x="90.69" y="323.43" width="1.04" height="11.61" transform="translate(420.44 238.02) rotate(90)"/><rect class="cls-4" x="87.44" y="342.78" width="2.09" height="19.15" transform="translate(440.84 263.86) rotate(90)"/><rect class="cls-4" x="104.89" y="378.75" width="2.09" height="19.15"/><rect class="cls-4" x="94.89" y="387.37" width="2.09" height="22.09" transform="translate(494.35 302.48) rotate(90)"/></svg>