<svg id="Layer_1" data-name="Layer 1" xmlns="http://www.w3.org/2000/svg" viewBox="0 0 369 429"><defs><style>.cls-1{fill:#e33e3d;}.cls-2{fill:#f1f1f1;}.cls-3{fill:#f3f3f3;}.cls-4{fill:#5a6f5f;}.cls-5{fill:#da0100;}.cls-6{fill:#f4d5aa;}.cls-7{fill:#415947;}.cls-8{fill:#ebb162;}.cls-9{fill:#f8e5cb;}</style></defs><title>prague</title><polygon class="cls-1" points="2.22 428.51 17.48 428.51 17.48 225.22 2.22 242.16 2.22 428.51"/><rect class="cls-2" x="141.69" y="216.16" width="41.4" height="7.65"/><rect class="cls-3" x="142.05" y="213.86" width="37.4" height="6.99"/><rect class="cls-4" x="69.6" y="170.51" width="2.3" height="37.06"/><rect class="cls-4" x="75.74" y="156.98" width="2.3" height="37.06"/><rect class="cls-4" x="82.95" y="147.28" width="2.3" height="37.06"/><rect class="cls-4" x="88.68" y="137.87" width="2.3" height="37.06"/><rect class="cls-4" x="120.16" y="170.51" width="2.3" height="37.06" transform="translate(242.62 378.08) rotate(-180)"/><rect class="cls-4" x="114.02" y="156.98" width="2.3" height="37.06" transform="translate(230.33 351.02) rotate(-180)"/><rect class="cls-4" x="106.81" y="147.28" width="2.3" height="37.06" transform="translate(215.92 331.61) rotate(-180)"/><rect class="cls-4" x="101.08" y="137.87" width="2.3" height="37.06" transform="translate(204.45 312.79) rotate(-180)"/><rect class="cls-4" x="95.04" y="121.18" width="2.3" height="37.06"/><rect class="cls-2" x="27.11" y="216.16" width="30.21" height="7.65"/><rect class="cls-2" x="67.61" y="213.67" width="64.43" height="10.14"/><rect class="cls-4" x="95.04" y="118.8" width="2.3" height="22.98" transform="translate(226.47 34.1) rotate(90)"/><rect class="cls-4" x="89.58" y="126.84" width="2.3" height="6.9" transform="translate(181.46 260.57) rotate(180)"/><rect class="cls-4" x="99.93" y="126.84" width="2.3" height="6.9" transform="translate(202.15 260.57) rotate(180)"/><rect class="cls-1" x="67.61" y="223.2" width="62.72" height="92.48"/><rect class="cls-5" x="17.33" y="223.2" width="11.36" height="92.48"/><rect class="cls-5" x="56.41" y="223.2" width="11.36" height="92.48"/><rect class="cls-5" x="130.33" y="223.2" width="11.36" height="92.48"/><rect class="cls-5" x="180.54" y="223.2" width="11.36" height="92.48"/><polygon class="cls-1" points="203.25 315.69 191.9 315.69 191.9 227.92 203.25 238.52 203.25 315.69"/><rect class="cls-1" x="141.69" y="223.2" width="38.86" height="92.48"/><rect class="cls-1" x="28.68" y="223.2" width="27.72" height="92.48"/><rect class="cls-1" x="13.88" y="139.71" width="51.97" height="74.24"/><rect class="cls-1" x="126.52" y="139.71" width="59.7" height="74.24"/><path class="cls-3" d="M163.43,191.77v-27a7.34,7.34,0,0,0-14.68,0v27Z"/><polygon class="cls-2" points="96.19 139.71 126.52 213.95 65.85 213.95 96.19 139.71"/><circle class="cls-6" cx="96.19" cy="168.58" r="8.25"/><rect class="cls-3" x="27.11" y="213.95" width="28.07" height="6.99"/><rect class="cls-3" x="12.72" y="209.87" width="20.66" height="6.67"/><polygon class="cls-2" points="28.68 223.2 17.46 223.2 12.72 216.54 33.38 216.54 28.68 223.2"/><rect class="cls-3" x="51.75" y="209.87" width="20.66" height="6.67"/><rect class="cls-3" x="68.57" y="211.37" width="63.47" height="7.37"/><polygon class="cls-2" points="67.71 223.2 56.49 223.2 51.75 216.54 72.42 216.54 67.71 223.2"/><rect class="cls-3" x="125.61" y="209.87" width="20.78" height="6.67"/><polygon class="cls-2" points="141.69 223.2 130.34 223.2 125.61 216.54 146.39 216.54 141.69 223.2"/><rect class="cls-3" x="175.81" y="209.87" width="20.75" height="6.67"/><polygon class="cls-2" points="191.9 223.2 180.54 223.2 175.81 216.54 196.6 216.54 191.9 223.2"/><rect class="cls-3" x="143.93" y="248.19" width="42.49" height="2.28"/><rect class="cls-3" x="22.09" y="248.19" width="42.49" height="2.28"/><rect class="cls-3" x="5.87" y="251.48" width="12.91" height="2.28"/><rect class="cls-3" x="192.85" y="251.48" width="12.91" height="2.28"/><rect class="cls-3" x="156.08" y="233.52" width="7.09" height="11.74"/><rect class="cls-3" x="38.57" y="260.06" width="7.09" height="11.74"/><path class="cls-3" d="M116,315.69V255.62a16.21,16.21,0,1,0-32.41,0v60.07Z"/><rect class="cls-2" x="126.52" y="194.04" width="59.7" height="2.3"/><path class="cls-3" d="M47.54,191.77v-35c0-5.23-2.88-9.52-6.4-9.52s-6.4,4.28-6.4,9.52v35Z"/><rect class="cls-2" x="13.88" y="194.04" width="51.97" height="2.3"/><rect class="cls-2" x="135.28" y="144.57" width="5.41" height="5.41"/><rect class="cls-2" x="144.47" y="144.57" width="5.41" height="5.41"/><rect class="cls-2" x="153.67" y="144.57" width="5.41" height="5.41"/><rect class="cls-2" x="162.86" y="144.57" width="5.41" height="5.41"/><rect class="cls-2" x="172.06" y="144.57" width="5.41" height="5.41"/><rect class="cls-4" x="25.87" y="161.03" width="4.31" height="19.27"/><rect class="cls-4" x="155.76" y="4.93" width="0.68" height="20.23"/><circle class="cls-4" cx="156.1" cy="3.28" r="1.79"/><rect class="cls-7" x="134.47" y="127.74" width="43.26" height="11.97"/><rect class="cls-7" x="122.59" y="122.38" width="11.88" height="19.97"/><rect class="cls-7" x="177.73" y="122.38" width="11.88" height="19.97"/><polygon class="cls-2" points="156.1 23.17 162.98 127.75 149.22 127.75 156.1 23.17"/><path class="cls-7" d="M168.43,82.43v14c0,3.32,1.65,6,3.66,6s3.66-2.72,3.66-6v-14Z"/><polygon class="cls-4" points="168.43 82.43 172.09 59.65 175.75 82.43 168.43 82.43"/><rect class="cls-4" x="168.02" y="95.08" width="8.14" height="1.82"/><rect class="cls-4" x="168.02" y="87.99" width="8.14" height="1.82"/><rect class="cls-4" x="183.56" y="81.95" width="0.23" height="6.89"/><path class="cls-7" d="M136.45,82.43v14c0,3.32,1.65,6,3.66,6s3.66-2.72,3.66-6v-14Z"/><polygon class="cls-4" points="136.45 82.43 140.11 59.65 143.77 82.43 136.45 82.43"/><rect class="cls-4" x="136.05" y="95.08" width="8.14" height="1.82"/><rect class="cls-4" x="136.05" y="87.99" width="8.14" height="1.82"/><polygon class="cls-4" points="156.1 23.17 134.47 127.75 149.22 127.75 156.1 23.17"/><polygon class="cls-4" points="156.1 23.17 177.73 127.75 162.98 127.75 156.1 23.17"/><polygon class="cls-2" points="183.67 87.99 185.56 122.38 181.78 122.38 183.67 87.99"/><polygon class="cls-4" points="183.67 87.99 177.73 122.38 181.78 122.38 183.67 87.99"/><rect class="cls-4" x="128.38" y="81.95" width="0.23" height="6.89"/><circle class="cls-4" cx="128.5" cy="81.39" r="0.61"/><polygon class="cls-4" points="183.67 87.99 189.61 122.38 185.56 122.38 183.67 87.99"/><polygon class="cls-2" points="128.5 87.99 130.39 122.38 126.61 122.38 128.5 87.99"/><polygon class="cls-4" points="128.5 87.99 122.56 122.38 126.61 122.38 128.5 87.99"/><polygon class="cls-4" points="128.5 87.99 134.44 122.38 130.39 122.38 128.5 87.99"/><path class="cls-7" d="M153.11,82.43v14c0,3.32,1.34,6,3,6s3-2.72,3-6v-14Z"/><polygon class="cls-4" points="153.11 82.64 156.1 59.85 159.09 82.64 153.11 82.64"/><rect class="cls-4" x="152.78" y="95.08" width="6.64" height="1.82"/><rect class="cls-4" x="152.78" y="87.99" width="6.64" height="1.82"/><circle class="cls-4" cx="183.67" cy="81.39" r="0.61"/><rect class="cls-4" x="171.97" y="53.86" width="0.23" height="6.89"/><circle class="cls-4" cx="172.09" cy="53.3" r="0.61"/><rect class="cls-4" x="155.98" y="53.86" width="0.23" height="6.89"/><circle class="cls-4" cx="156.1" cy="53.3" r="0.61"/><rect class="cls-4" x="140" y="53.86" width="0.23" height="6.89"/><circle class="cls-4" cx="140.11" cy="53.3" r="0.61"/><polygon class="cls-7" points="187.9 144.81 186.18 147.28 186.18 142.35 189.61 142.35 187.9 144.81"/><polygon class="cls-7" points="124.56 144.81 126.52 147.28 126.52 142.35 122.59 142.35 124.56 144.81"/><rect class="cls-4" x="39.54" y="4.93" width="0.68" height="20.23"/><circle class="cls-4" cx="39.88" cy="3.28" r="1.79"/><rect class="cls-7" x="18.25" y="127.74" width="43.26" height="11.97"/><rect class="cls-7" x="6.37" y="122.38" width="11.88" height="19.97"/><rect class="cls-7" x="61.51" y="122.38" width="11.88" height="19.97"/><polygon class="cls-2" points="39.88 23.17 46.76 127.75 33 127.75 39.88 23.17"/><path class="cls-7" d="M52.21,82.43v14c0,3.32,1.65,6,3.66,6s3.66-2.72,3.66-6v-14Z"/><polygon class="cls-4" points="52.21 82.43 55.87 59.65 59.53 82.43 52.21 82.43"/><rect class="cls-4" x="51.8" y="95.08" width="8.14" height="1.82"/><rect class="cls-4" x="51.8" y="87.99" width="8.14" height="1.82"/><rect class="cls-4" x="67.34" y="81.95" width="0.23" height="6.89"/><path class="cls-7" d="M20.23,82.43v14c0,3.32,1.65,6,3.66,6s3.66-2.72,3.66-6v-14Z"/><polygon class="cls-4" points="20.23 82.43 23.9 59.65 27.56 82.43 20.23 82.43"/><rect class="cls-4" x="19.83" y="95.08" width="8.14" height="1.82"/><rect class="cls-4" x="19.83" y="87.99" width="8.14" height="1.82"/><polygon class="cls-4" points="39.88 23.17 18.25 127.75 33 127.75 39.88 23.17"/><polygon class="cls-4" points="39.88 23.17 61.51 127.75 46.76 127.75 39.88 23.17"/><polygon class="cls-2" points="67.45 87.99 69.34 122.38 65.56 122.38 67.45 87.99"/><polygon class="cls-4" points="67.45 87.99 61.51 122.38 65.56 122.38 67.45 87.99"/><rect class="cls-4" x="12.17" y="81.95" width="0.23" height="6.89"/><circle class="cls-4" cx="12.28" cy="81.39" r="0.61"/><polygon class="cls-4" points="67.45 87.99 73.39 122.38 69.34 122.38 67.45 87.99"/><polygon class="cls-2" points="12.28 87.99 14.17 122.38 10.39 122.38 12.28 87.99"/><polygon class="cls-4" points="12.28 87.99 6.34 122.38 10.39 122.38 12.28 87.99"/><polygon class="cls-4" points="12.28 87.99 18.22 122.38 14.17 122.38 12.28 87.99"/><path class="cls-7" d="M36.89,82.43v14c0,3.32,1.34,6,3,6s3-2.72,3-6v-14Z"/><polygon class="cls-4" points="36.89 82.64 39.88 59.85 42.87 82.64 36.89 82.64"/><rect class="cls-4" x="36.56" y="95.08" width="6.64" height="1.82"/><rect class="cls-4" x="36.56" y="87.99" width="6.64" height="1.82"/><circle class="cls-4" cx="67.45" cy="81.39" r="0.61"/><rect class="cls-4" x="55.75" y="53.86" width="0.23" height="6.89"/><circle class="cls-4" cx="55.87" cy="53.3" r="0.61"/><rect class="cls-4" x="39.77" y="53.86" width="0.23" height="6.89"/><circle class="cls-4" cx="39.88" cy="53.3" r="0.61"/><rect class="cls-4" x="23.78" y="53.86" width="0.23" height="6.89"/><circle class="cls-4" cx="23.9" cy="53.3" r="0.61"/><polygon class="cls-7" points="69.62 144.81 65.85 147.28 65.85 142.35 73.39 142.35 69.62 144.81"/><polygon class="cls-7" points="10.13 144.81 13.88 147.28 13.88 142.35 6.37 142.35 10.13 144.81"/><rect class="cls-8" x="11.36" y="333.33" width="150.96" height="95.12"/><path class="cls-1" d="M25.3,333.33v-21.9a7,7,0,0,0-13.95,0v21.9Z"/><path class="cls-8" d="M24,333.33v-21c0-3.5-2.57-6.36-5.71-6.36s-5.71,2.86-5.71,6.36v21Z"/><path class="cls-1" d="M39.25,333.33v-35.2a7,7,0,1,0-13.95,0v35.2Z"/><path class="cls-8" d="M38,333.33V299c0-3.5-2.57-6.36-5.71-6.36s-5.71,2.86-5.71,6.36v34.29Z"/><path class="cls-1" d="M67.15,333.39V298.2a7,7,0,1,0-13.95,0v35.2Z"/><path class="cls-8" d="M65.89,333.39V299.11c0-3.5-2.57-6.36-5.71-6.36s-5.71,2.86-5.71,6.36v34.29Z"/><path class="cls-1" d="M53.2,333.33V285.41a7,7,0,0,0-13.95,0v47.92Z"/><path class="cls-8" d="M51.94,333.33v-47c0-3.5-2.57-6.36-5.71-6.36s-5.71,2.86-5.71,6.36v47Z"/><path class="cls-1" d="M115.41,333.36V297.29a7.82,7.82,0,0,0-15.64,0v36.07Z"/><path class="cls-8" d="M113.67,333.36V298.17c0-3.82-2.73-6.95-6.08-6.95s-6.08,3.13-6.08,6.95v35.19Z"/><path class="cls-1" d="M146.68,333.36V297.29a7.82,7.82,0,0,0-15.64,0v36.07Z"/><path class="cls-8" d="M144.94,333.36V298.17c0-3.82-2.73-6.95-6.08-6.95s-6.08,3.13-6.08,6.95v35.19Z"/><path class="cls-1" d="M162.32,333.36V308.55a7.82,7.82,0,0,0-15.64,0v24.81Z"/><path class="cls-8" d="M160.58,344.62V309.43c0-3.82-2.73-6.95-6.08-6.95s-6.08,3.13-6.08,6.95v35.19Z"/><path class="cls-1" d="M131,333.36V284a7.82,7.82,0,0,0-15.64,0v49.36Z"/><path class="cls-8" d="M129.3,333.36V284.88c0-3.82-2.73-6.95-6.08-6.95s-6.08,3.13-6.08,6.95v48.48Z"/><rect class="cls-8" x="67.15" y="298.13" width="32.62" height="68.94" rx="7.1" ry="7.1"/><path class="cls-1" d="M99.77,333.49V314.44a16.31,16.31,0,1,0-32.62,0v19.05Z"/><path class="cls-8" d="M98.19,334.68V314.57a14.72,14.72,0,0,0-29.45,0v20.11Z"/><rect class="cls-8" x="79.88" y="293.76" width="7.16" height="21.39" rx="1.56" ry="1.56"/><rect class="cls-1" x="78.5" y="300.2" width="1.38" height="12.86"/><rect class="cls-1" x="87.04" y="299.85" width="1.38" height="12.86"/><rect class="cls-1" x="11.36" y="333.33" width="150.96" height="1.35"/><rect class="cls-1" x="11.36" y="379.3" width="150.96" height="1.35"/><rect class="cls-1" x="25.3" y="298.85" width="41.85" height="1.35"/><rect class="cls-1" x="99.77" y="298.85" width="46.91" height="1.35"/><rect class="cls-1" x="115.41" y="286.4" width="15.63" height="1.35"/><rect class="cls-1" x="39.25" y="286.4" width="13.95" height="1.35"/><rect class="cls-1" x="11.36" y="311.96" width="150.96" height="2.18"/><rect class="cls-3" x="28.68" y="318.46" width="7.19" height="7.19"/><rect class="cls-3" x="42.63" y="318.46" width="7.19" height="7.19"/><rect class="cls-3" x="56.58" y="318.46" width="7.19" height="7.19"/><rect class="cls-3" x="104" y="318.46" width="7.19" height="7.19"/><rect class="cls-3" x="119.63" y="318.46" width="7.19" height="7.19"/><rect class="cls-3" x="135.27" y="318.46" width="7.19" height="7.19"/><rect class="cls-3" x="17.33" y="354.05" width="10.71" height="19.29"/><rect class="cls-3" x="38.5" y="354.05" width="10.71" height="19.29"/><rect class="cls-3" x="59.67" y="354.05" width="10.71" height="19.29"/><rect class="cls-3" x="103.29" y="354.05" width="10.71" height="19.29"/><rect class="cls-3" x="124.46" y="354.05" width="10.71" height="19.29"/><rect class="cls-3" x="145.63" y="354.05" width="10.71" height="19.29"/><rect class="cls-5" x="77.38" y="345" width="18.9" height="25.83"/><rect class="cls-5" x="80.18" y="337.27" width="13.31" height="26.81" rx="2.9" ry="2.9"/><path class="cls-4" d="M122.61,428.51V404c0-8.56-5.75-15.57-12.79-15.57h0c-7,0-12.79,7-12.79,15.57v24.53Z"/><path class="cls-4" d="M154.79,428.51V404c0-8.56-5.75-15.57-12.79-15.57h0c-7,0-12.79,7-12.79,15.57v24.53Z"/><path class="cls-4" d="M44.45,428.51V404c0-8.56-5.75-15.57-12.79-15.57h0c-7,0-12.79,7-12.79,15.57v24.53Z"/><path class="cls-4" d="M76.63,428.51V404c0-8.56-5.75-15.57-12.79-15.57h0c-7,0-12.79,7-12.79,15.57v24.53Z"/><rect class="cls-6" x="162.32" y="293.11" width="158.97" height="135.34"/><rect class="cls-6" x="321.29" y="295.22" width="46.49" height="133.23"/><rect class="cls-8" x="162.32" y="371.07" width="158.68" height="2.4"/><rect class="cls-8" x="320.99" y="373.46" width="46.79" height="2.4"/><rect class="cls-8" x="162.32" y="309.1" width="158.68" height="2.4"/><rect class="cls-8" x="320.99" y="311.48" width="46.79" height="2.4"/><rect class="cls-5" x="321.29" y="293.09" width="46.49" height="2.4"/><rect class="cls-2" x="179.2" y="348.89" width="9.16" height="16.98"/><rect class="cls-2" x="198.21" y="348.89" width="9.16" height="16.98"/><rect class="cls-2" x="216.37" y="348.89" width="9.16" height="16.98"/><rect class="cls-2" x="179.2" y="316.7" width="9.16" height="16.98"/><rect class="cls-2" x="198.21" y="316.7" width="9.16" height="16.98"/><rect class="cls-2" x="216.37" y="316.7" width="9.16" height="16.98"/><rect class="cls-2" x="239.39" y="348.89" width="9.16" height="16.98"/><rect class="cls-2" x="258.4" y="348.89" width="9.16" height="16.98"/><polygon class="cls-6" points="189.14 261.26 204.37 269.62 173.9 269.62 189.14 261.26"/><path class="cls-6" d="M173.9,275a21.16,21.16,0,0,1-11.59,8.93H173.9Z"/><path class="cls-6" d="M204.37,275A21.16,21.16,0,0,0,216,283.89H204.37Z"/><rect class="cls-6" x="162.32" y="283.51" width="158.91" height="7.17"/><polygon class="cls-6" points="294.36 261.26 309.59 269.48 279.13 269.48 294.36 261.26"/><path class="cls-6" d="M279.13,274.73a21.06,21.06,0,0,1-11.59,8.78h11.59Z"/><path class="cls-6" d="M309.59,274.73a21.06,21.06,0,0,0,11.59,8.78H309.59Z"/><rect class="cls-6" x="205.32" y="279.12" width="73.81" height="6.98"/><rect class="cls-5" x="162.32" y="283.51" width="158.87" height="1.61"/><rect class="cls-6" x="226.52" y="269.48" width="30.47" height="16.62"/><polygon class="cls-6" points="241.75 261.26 256.98 269.48 226.51 269.48 241.75 261.26"/><path class="cls-6" d="M226.52,274.73a21.06,21.06,0,0,1-11.59,8.78h11.59Z"/><path class="cls-6" d="M257,274.73a21.06,21.06,0,0,0,11.59,8.78H257Z"/><rect class="cls-8" x="237.54" y="272.88" width="8.43" height="8.43"/><rect class="cls-6" x="173.9" y="269.62" width="30.47" height="16.48"/><rect class="cls-8" x="184.84" y="273.08" width="8.43" height="8.57"/><rect class="cls-6" x="279.13" y="269.48" width="30.47" height="16.62"/><rect class="cls-8" x="290.15" y="272.88" width="8.43" height="8.43"/><rect class="cls-2" x="276.56" y="348.89" width="9.16" height="16.98"/><rect class="cls-2" x="239.39" y="316.7" width="9.16" height="16.98"/><rect class="cls-2" x="258.4" y="316.7" width="9.16" height="16.98"/><rect class="cls-2" x="276.56" y="316.7" width="9.16" height="16.98"/><rect class="cls-2" x="294.95" y="348.89" width="9.16" height="16.98"/><rect class="cls-2" x="294.95" y="316.7" width="9.16" height="16.98"/><rect class="cls-2" x="338.99" y="351.27" width="9.16" height="16.98"/><rect class="cls-2" x="338.99" y="319.09" width="9.16" height="16.98"/><rect class="cls-2" x="178.78" y="296.56" width="9.16" height="9.16"/><rect class="cls-2" x="197.79" y="296.56" width="9.16" height="9.16"/><rect class="cls-2" x="215.95" y="296.56" width="9.16" height="9.16"/><rect class="cls-2" x="238.97" y="296.56" width="9.16" height="9.16"/><rect class="cls-2" x="257.98" y="296.56" width="9.16" height="9.16"/><rect class="cls-2" x="276.14" y="296.56" width="9.16" height="9.16"/><rect class="cls-2" x="294.53" y="296.56" width="9.16" height="9.16"/><rect class="cls-2" x="338.99" y="299.18" width="9.16" height="9.16"/><path class="cls-4" d="M269.81,428.51V404a15.4,15.4,0,0,0-15.12-15.57h0A15.4,15.4,0,0,0,239.56,404v24.53Z"/><path class="cls-4" d="M311.19,428.51V404a15.4,15.4,0,0,0-15.12-15.57h0A15.4,15.4,0,0,0,280.94,404v24.53Z"/><path class="cls-4" d="M348.14,428.51V403.15a8.77,8.77,0,0,0-8.68-8.82h0a8.77,8.77,0,0,0-8.68,8.82v25.36Z"/><path class="cls-4" d="M226.31,428.51V399.66c0-5.52-3.9-10-8.68-10h0c-4.77,0-8.68,4.51-8.68,10v28.85Z"/><path class="cls-4" d="M194.12,428.51V399.66c0-5.52-3.9-10-8.68-10h0c-4.77,0-8.68,4.51-8.68,10v28.85Z"/><rect class="cls-6" x="312.96" y="283.25" width="54.82" height="9.85"/><rect class="cls-6" x="320.33" y="266.19" width="37.05" height="18.53"/><rect class="cls-8" x="334.65" y="270.19" width="8.43" height="10.53"/><polygon class="cls-6" points="338.86 256.19 357.39 266.19 320.33 266.19 338.86 256.19"/><path class="cls-6" d="M357.39,275.37a18.89,18.89,0,0,0,10.39,7.87H357.39Z"/><path class="cls-6" d="M320.33,275.37a18.89,18.89,0,0,1-10.39,7.87h10.39Z"/><rect class="cls-5" x="162.32" y="290.71" width="158.97" height="2.4"/><rect class="cls-5" x="358.59" y="283.25" width="9.2" height="2.3"/><rect class="cls-5" x="320.33" y="266.19" width="37.05" height="1.61"/><rect class="cls-5" x="279.13" y="269.48" width="30.47" height="1.61"/><rect class="cls-5" x="226.52" y="269.48" width="30.47" height="1.61"/><rect class="cls-5" x="173.9" y="269.48" width="30.47" height="1.61"/><rect class="cls-9" x="318.99" y="293.11" width="2.3" height="82.75"/><rect class="cls-9" x="365.48" y="295.5" width="2.3" height="80.36"/></svg>