<svg id="Layer_1" data-name="Layer 1" xmlns="http://www.w3.org/2000/svg" xmlns:xlink="http://www.w3.org/1999/xlink" viewBox="0 0 435 269"><defs><style>.cls-1{fill:#e7973f;}.cls-2{fill:#415947;}.cls-3,.cls-4{fill:#e38620;}.cls-3{opacity:0.5;}.cls-10,.cls-5{fill:#5e7263;}.cls-6{fill:#ebb162;}.cls-7{fill:#4d4d4d;}.cls-8,.cls-9{opacity:0.8;}.cls-8{fill:url(#linear-gradient);}.cls-9{fill:url(#linear-gradient-2);}.cls-10{opacity:0.6;}</style><linearGradient id="linear-gradient" x1="336.5" y1="240.49" x2="336.5" y2="234.25" gradientUnits="userSpaceOnUse"><stop offset="0.19" stop-color="#5e7263" stop-opacity="0"/><stop offset="0.36" stop-color="#807b5a" stop-opacity="0.25"/><stop offset="0.59" stop-color="#ac874f" stop-opacity="0.57"/><stop offset="0.78" stop-color="#cc9046" stop-opacity="0.8"/><stop offset="0.92" stop-color="#e09541" stop-opacity="0.95"/><stop offset="1" stop-color="#e7973f"/></linearGradient><linearGradient id="linear-gradient-2" x1="260.24" y1="178.42" x2="236.01" y2="187.24" gradientUnits="userSpaceOnUse"><stop offset="0.19" stop-color="#5e7263" stop-opacity="0"/><stop offset="0.2" stop-color="#607362" stop-opacity="0.01"/><stop offset="0.28" stop-color="#7f7b5a" stop-opacity="0.24"/><stop offset="0.38" stop-color="#9b8253" stop-opacity="0.45"/><stop offset="0.47" stop-color="#b2894d" stop-opacity="0.62"/><stop offset="0.56" stop-color="#c58e48" stop-opacity="0.76"/><stop offset="0.66" stop-color="#d49244" stop-opacity="0.86"/><stop offset="0.76" stop-color="#df9541" stop-opacity="0.94"/><stop offset="0.87" stop-color="#e59640" stop-opacity="0.99"/><stop offset="1" stop-color="#e7973f"/></linearGradient></defs><title>prague</title><path class="cls-1" d="M407.61,135.69s-.48-.74.7-.74h3.25a5.08,5.08,0,0,0,2.08.94c.72,0,1.44-.19,1.55-.47s.91-.21,1.1,0a7,7,0,0,0,2.46.28c1.44-.08,1.74.55,1.74.55s2.23,2,2.76,2.06a1.11,1.11,0,0,0,1.21-1.51,7.94,7.94,0,0,0-2.61-4.08,5.9,5.9,0,0,0-1-.79,6.18,6.18,0,0,1,4.19,3.7c1.1,3,2,2.87,2,2.87s1.4.07.87-2.25a10.28,10.28,0,0,0-2-4.74,4.54,4.54,0,0,0-2.15-.91s1-.49,1-.76h1.1a14.44,14.44,0,0,0,2.51.62,3.69,3.69,0,0,0,2.49.57c1.14-.31,1.55-1.07.83-1.59s-1.35,0-2.25-.46-1.9-1.7-3.52-1.79a5.21,5.21,0,0,0-3,.57c-.44.28-1.31,0-1.62.17a12,12,0,0,1-1.9,1.09,12.46,12.46,0,0,0-2.47,1c-1.14.15-3.74.13-3.74.13a6.67,6.67,0,0,1-2.23-.63c-1.29-.59-5.53-.35-5.53-.35l.28,4.61,1.81,2.18Z"/><path class="cls-2" d="M431.64,129.45c-.72-.52-1.35,0-2.25-.46s-1.9-1.7-3.52-1.79a5.21,5.21,0,0,0-3,.57c-.44.28-1.31,0-1.62.17a12,12,0,0,1-1.9,1.09,12.48,12.48,0,0,0-2.47,1c-1.14.15-3.74.13-3.74.13a6.68,6.68,0,0,1-2.23-.63c-1.29-.59-5.53-.35-5.53-.35l0,.77s.08,0,.13,0a11.37,11.37,0,0,1,5.2,1.93,12.33,12.33,0,0,0,1.37.35,3.65,3.65,0,0,1,1.13.46l1,.16a3.93,3.93,0,0,1,1.74-.45,7.38,7.38,0,0,1,2.84.59,4.88,4.88,0,0,1,3.68.33,4.59,4.59,0,0,0-.65-.6,5.91,5.91,0,0,0-1-.79,6.18,6.18,0,0,1,4.19,3.7c1.1,3,2,2.87,2,2.87s1.4.07.87-2.25a10.28,10.28,0,0,0-2-4.74,4.54,4.54,0,0,0-2.15-.91s1-.49,1-.76h1.1a14.42,14.42,0,0,0,2.51.62,3.69,3.69,0,0,0,2.49.57C431.95,130.74,432.36,130,431.64,129.45Z"/><path class="cls-3" d="M419.48,131.79a4,4,0,0,1,1.6.32l-.26-.17a6.18,6.18,0,0,1,4.19,3.7c1.1,3,2,2.87,2,2.87s1.4.07.87-2.25a10.28,10.28,0,0,0-2-4.74,4.54,4.54,0,0,0-2.15-.91s1-.49,1-.76h1.1a14.42,14.42,0,0,0,2.51.62,3.69,3.69,0,0,0,2.49.57c1.14-.31,1.55-1.07.83-1.59s-1.35,0-2.25-.46a8.79,8.79,0,0,0-3.51-.88c-1.62-.09-3.35,1.81-3.79,2.1s-1.31,0-1.62.17-2,.36-2.77.62Z"/><rect class="cls-1" x="101.72" y="22.48" width="9.03" height="10.15"/><rect class="cls-2" x="45.44" y="147.6" width="7.7" height="19.19" rx="0.73" ry="0.73"/><path class="cls-1" d="M49.44,154.51l-9.55.74a4.77,4.77,0,0,0-4.34,4.22l-.5,4s-.25,3.85,2.36,5,13.4-2,13.4-2Z"/><path class="cls-2" d="M94,38.22s12.89-12.21,17-12.89,8.37.9,9.27,3.84c0,0-6.77-.19-8.13,6.59a145,145,0,0,0-1.73,40.55c1.81,18.09.59,30.87-.54,43.76s-1.36,20.8-1.36,20.8l-21.25,1.81a26,26,0,0,0,3.17-15.83,155.38,155.38,0,0,1-1.58-19.45c0-5-1.36-15.31,0-23.48S89,66,89.89,60.38,91.5,40.49,94,38.22Z"/><path class="cls-1" d="M154,132s-5-7.86-7.43-9.37S141,111.18,141,111.18s-3.52-8.65-6-14.39-3.32-4.23-5.13-12.18a193,193,0,0,1-3.72-23c-.91-8.25-1.51-11-1.21-12.08s-.4-8.45-1.51-11.17c0,0,.71-1.49.33-2.24s-1.07-.59-1.39-1.55S121,29.69,120,29s-8.29-1.75-8.46,5.8-6.69,11.15-1.89,48.56c1.54,17.5-1.76,54.05-1.76,54.05Z"/><path class="cls-2" d="M136.5,127.39a21.31,21.31,0,0,1,1.38,6.51L154,132s-5-7.86-7.42-9.37S141,111.18,141,111.18s-3.52-8.65-6-14.39c-2-4.59-2.94-4.61-4.15-8.48C131.31,101.68,131.7,115.06,136.5,127.39Z"/><path class="cls-2" d="M199.9,148.94l-1.41-10.31s-9.54,3.5-14.95-4.68h-2.36s-4.35,4.51-10.22-1.25c-1.64-3-3.09-2.5-4.55-2.5a13.11,13.11,0,0,1-7.9-2.43h-4.16s-4.23.07-6.52-2.08L107,137.26H90.18l-5.24.88-.36-.6s-1.46-.19-1.7-2.31c-.53-.69-.74-.9-1-1s-.19.58-.19.58h-.37v-1.06s-3.16-2.77-5.64-3.32-2-.82-2.07-.85-1.33-.56-4,3.22-4.23,3.7-4.23,3.7h-2A5.62,5.62,0,0,0,61,137.59a7,7,0,0,1-1.7.08s-3.11.93-3.83,2.92c-1.14,0-5.06-.4-5.8,3.07a12.41,12.41,0,0,0-.3,5.16l-1,15.14a340.06,340.06,0,0,1,76.36-12.49C165.21,149.86,199.9,148.94,199.9,148.94Z"/><path class="cls-2" d="M262,106.21s-10.25,3.42-15.27,8.84c-2.64,1.54-8.23-1.06-11.78,0a15.19,15.19,0,0,0-9.55,6.31c-2.18,2.8-2.32,1.77-3.27,2.25s-4.64,3.62-5.18,4.78-.68,2.11-2.18,3.14-1.43,3.41-6.82,4.78c-5.32,0-4.3,1.3-5.53,1.57s-3,0-4,.75-1,9.35-1,9.35l27.22,3.55L261,119.93Z"/><polygon class="cls-2" points="217.78 150.52 251.81 132.66 242.76 150.94 217.78 150.52"/><polygon class="cls-1" points="226.96 149.42 246.64 139.58 236.58 150.07 226.96 149.42"/><polygon class="cls-1" points="234.18 149.91 246.64 143.89 241.28 150.51 234.18 149.91"/><polygon class="cls-4" points="213.57 140.19 227.64 145.66 250.01 133.97 250.75 127.6 213.57 140.19"/><rect class="cls-2" x="323.34" y="58.08" width="9.09" height="12.33"/><path class="cls-2" d="M304.63,72.58s4.33-3.09,6.19-6.19,4.46-2.23,6.31-2.23,15.47,1,15.47,1,5.69,1.36,4.7,4.83-.87,13.12-.87,13.12l-25.37-.5Z"/><path class="cls-5" d="M356.87,101.4s-4.37.11-2.53-3.33c.46-1.38-2.41-2.53-3.56-4.37s-2.9-5.08-4.39-5-1.35,2.2-1.35,4,1.72,13.67,1.72,14.82,3.22,8,5.17,8,6.43-2.53,6.55-3.79S356.87,101.4,356.87,101.4Z"/><path class="cls-4" d="M345,96.3s6.48,10.35,10.29,10.63c0,0,.4,5.69-3.64,4S344.78,97.92,345,96.3Z"/><path class="cls-4" d="M353.45,102.33a3.42,3.42,0,0,0,1,2.62c1.08.85,1.42.91,1.59.79s.4-.91-1-2.5S353.45,102.33,353.45,102.33Z"/><path class="cls-4" d="M347.14,91.13s2.67,4.21,4.15,5.12c0,0-.23,1.08-2.08,0S347.14,91.13,347.14,91.13Z"/><path class="cls-4" d="M345.35,89.8a43.27,43.27,0,0,1,2.07,4.8c-.06.4-.11.51-.85.51s-.8-.34-.85-.91S345.35,89.8,345.35,89.8Z"/><path class="cls-4" d="M364.94,99.87l.52,2-9.13,3.2.39-6.25a2,2,0,0,1,1.7-.94C359.52,97.93,363.42,98.26,364.94,99.87Z"/><path class="cls-1" d="M344.8,97.28l.4,5,4.2,10.21s2.91,5.88,5.47.24c2.34-5.13,1.85-13.92,1.85-13.92l-.14,0a65,65,0,0,1-.68,8c-1.3,3.48-1.62,5.23-3.28,4.54s-3.32-2.29-4.7-5.76-2.16-5.84-2-7.78Z"/><rect class="cls-4" x="363.9" y="114.28" width="15.68" height="7.65"/><path class="cls-2" d="M361.63,100.11a17.11,17.11,0,0,0-2.94,1.8c-.88.69-1.82,1.23-1.94,2.06-.31,2.11-.3,5.19.32,6.36s5.31.92,6.49.3,3-1.61,3.22-2.79-.25-6.87-1.42-7.31S362.73,99.53,361.63,100.11Z"/><path class="cls-5" d="M357.31,104.92s-.42-1.2.46-1.42,1.77-.21,2.09-.6l.3.06s-.6.3-.47.66a1,1,0,0,0,1.32.29l.3.12a1.66,1.66,0,0,1-1.34.89,1.39,1.39,0,0,1-1.28-.44s-.47.18-.33.44S357.31,104.92,357.31,104.92Z"/><path class="cls-5" d="M358.66,105.36l1.67.72-.56.42s-.29-.39-1.19-.23-1,.53-1.28.47.09-1.44.29-1.2,0,.58.48.51S358.8,105.67,358.66,105.36Z"/><path class="cls-5" d="M357.3,107.26s1.61.34,1.86-.4h.34s.35.68-.23.85a15.41,15.41,0,0,1-2,.15C357.13,107.92,357.3,107.26,357.3,107.26Z"/><path class="cls-4" d="M365.94,104.34s1.36,9.86.37,12.89c0,0-2.19,4.18-8.87-.16-3.51-.75-3.58-1.37-5-1.28s-2.67-.58-1.17-1.34,3.92-1.5,4.09-3.26a22.83,22.83,0,0,1,1.17-4.45,12.38,12.38,0,0,0,.41,3.36,8.07,8.07,0,0,0,5.68.25C364.47,109.61,365.94,104.34,365.94,104.34Z"/><path class="cls-1" d="M346.38,104.79S347.48,114,348,121c0,0,1.81,1.69,5.06-.16,0,0,11.19,7.38,24.45,3.7,14.39,0,13.68-6.19,13.68-6.19s-4.13-5.86-10.32-5.54c0,0-2.93.65-3.26,3a4.72,4.72,0,0,1-2.67,3.82c-.76.31-7.64,1.48-8.66-2.45-.38,1-5.2,1.71-7.42.37a67.11,67.11,0,0,1-5.84-3.89,2.28,2.28,0,0,1-3.29-1.27C348.57,110,346.38,104.79,346.38,104.79Z"/><path class="cls-2" d="M349.52,135.56s6.55,1.6,9.89-1.1c0,0,8.44,2.63,14.15,1.51,0,0,13.14,1.13,18.86-3.47,6.42-3.45,5.86-7.35,5.86-8.46,0,0-2.35-.74-3.19-.45,0,0,.26-1.77-2.12-1.77,0,0,1.09-1.29-1.74-3.73a15.42,15.42,0,0,0-1.39-1.33s3.45,4.16-3.11,5.7a29,29,0,0,1-10,2.06s-5.6,1.61-8.75.19A80.3,80.3,0,0,0,357.19,121c-2.19-.51-7.8-.82-9.17,0Z"/><path class="cls-1" d="M348,135.33s9,1.06,11.46-1.41c.53,1.64,20.45,3,28.56,0,0,0,10.58-3.88,10.23-9.87,0,0,4.76-1.25,7.95,4.71,0,0-1.39,4.17,1.39,6.94,0,0,.49,1-.64,2.84.75,1,1.2,4.29.08,5a6.28,6.28,0,0,1-5.49.6,28.29,28.29,0,0,1-3.09-2s-.9-.53-.9.83-.23,5.27-4.44,6.4-8.35,1-11.29-1.35c-1-.3-4.37,1.2-5.72-.6s-3-4.44-3.16-5.34c0,0-2.87.3-.33,2.92,0,0-16.82,12.32-22.44,9.51S348,135.33,348,135.33Z"/><path class="cls-1" d="M368.32,145.23s-6.67,6.49-17.09-.64c0,0,10.33,1.92,13.89.64,0,0-6.4-.73-8-5l2.1-1s7.22,3.84,12.25,4.75l2,1.46Z"/><path class="cls-1" d="M376.75,178.57s-4.44-2.7-3.42-5.84c.81-1.83,3.42-1.73,3.42-1.73v-2.74s4.09-4.87,4.29-15.22c0-3.86-.91-4.87-2.33-5.79s-5.53-1.62-5.53-1.62-4.52-4-20.25,7.51c-2.23,19.08,11.47,24.05,11.47,24.05Z"/><path class="cls-5" d="M250,137.55s-2.32-4.95-.51-8l6.47-10.91s-1.4-1.27,0-3.81a16.37,16.37,0,0,1,4.71-4.68,21.1,21.1,0,0,1,1.41-3.83c1.09-2.42-1.59-4.3,0-7,0,0,5.36-6.83,6-8.45s4.21-6.85,4.67-8.63,1.94-7,1.94-7l5.69-3.78.93,8.38L272,105.65Z"/><path class="cls-2" d="M263.76,160.64,259,159.38s8.37-13.45,16-34.83,14.62-44.81,13.73-54.25l9.1,9.49Z"/><path class="cls-6" d="M239.46,151.13,259,159.38l5.31-9a106.29,106.29,0,0,0,5.57-12.7l8.84-22.42,9.43-27.71c1.18-5.4,4.71-11.76,3.72-15.57l-.14-.56h-5.58s-3.1-3.34-4.55,1.5S255.73,126.46,239.46,151.13Z"/><path class="cls-1" d="M273.95,71.32S272,71.13,272,72.37s.87,1.42,1.48,2,.78.91,1.17.83a5.65,5.65,0,0,0,1.24-.63l-.68-1.74Z"/><path class="cls-1" d="M275.68,63.08s-1.4-.31-1.93-.39.49,0,.6-.46-.27-1.51.21-1.87A5.17,5.17,0,0,1,277.77,59s-.08-.85.64-.83.58.91.58.91,1.24.59.79,1.53a13.33,13.33,0,0,1-.85,1.52Z"/><ellipse class="cls-7" cx="278.7" cy="69.07" rx="5.89" ry="7.52" transform="translate(-7.46 45.47) rotate(-9.21)"/><path class="cls-2" d="M291.72,74s-.8-.7-1.31.44a12.1,12.1,0,0,1-1.8,2.38s-1.24,1.58-1.81.68,2.73-4.8,2.73-4.8A16.14,16.14,0,0,0,287,75c-.43.71-1.09,2.68-1.76,3.07s-1.62.7-1.62.22a5.89,5.89,0,0,1,.81-2.85c.81-1.71,1.09-2.23,1.09-2.23L287,71.79l-1.6,1.2s-1.35,3.45-1.92,3.62-1.43.33-1.27-.47.84-2.73.84-2.73a3.36,3.36,0,0,1,.74-1.52c.55-.53,2.15-2,2.15-2l-2.13,1.33a1.46,1.46,0,0,0-.76.72c-.18.49-.47,1.66-.86,1.9s-1.61.35-1.35-.76.63-2.35.63-2.35a2.58,2.58,0,0,1,1.37-1.33c.94-.31,3.5-1.39,3.5-1.39a9.23,9.23,0,0,1,2.68.16c2.11.29,3.42.21,5.56,1l.74,1.54-.74,3.88-2.38-.41-.53-.26Z"/><path class="cls-1" d="M300.38,85.66,309,90.39l-.88-3.49-1.55-5.6-6-7.24L297.18,72s-1.62-2.58-2.55-2.75c0,0,.82,2.56,0,3.56a5.45,5.45,0,0,1-2.38,1.45Z"/><path class="cls-2" d="M301.57,76.61s7.1,4.79,7.1,16.67-14,50.64-14,50.64-1.17,20.25,15,21.81a167.91,167.91,0,0,0,30.14.08l-2.09-22.48L312.56,79.85,304,73.42Z"/><path class="cls-1" d="M339.78,165.81s-24.31,7.71-26.18-13.3c0-20.67.85-32.19,0-42.7S315,95.93,315,95.93s.34-20.16-13.38-19.31L296,70.68s6.85-1.11,8.3.51A5.7,5.7,0,0,0,308,72.9S318,77.61,323.9,85.41c4.19,5.49,4.53,6,4.53,6Z"/><path class="cls-2" d="M345.35,89.8s5.45,64,8.51,66.75l-1,4.09s3.41,6.95,3.23,7.15c0,0-3.52-3.46-16.3-2C334.26,166.48,327,152,327,133.47s-1.56-43.56-3.13-48.06A43.22,43.22,0,0,0,345.35,89.8Z"/><path class="cls-6" d="M381.12,177s-11.33,0-12.27-3.4-1.89-5.1-10.39-6.8-13-1.89-25.87-.76-63.24.3-88.16-14.62c0,1.7-11.35,26.7,13.77,36.14S381.12,177,381.12,177Z"/><rect class="cls-2" x="259.81" y="177.3" width="137.56" height="90.53"/><rect class="cls-5" x="259.81" y="182.66" width="65.02" height="51.59"/><rect class="cls-5" x="326.88" y="182.66" width="81.08" height="51.59"/><path class="cls-6" d="M284.82,169.09l38.07-66.71s1.75-3.75-4.75-7.5-21.5-12.25-21.5-12.25l-32.88,78Z"/><rect class="cls-5" x="259.81" y="177.3" width="137.56" height="5.37"/><rect class="cls-5" x="369.3" y="240.49" width="43.88" height="27.33"/><rect class="cls-5" x="289.89" y="240.49" width="77.53" height="27.33"/><rect class="cls-5" x="259.81" y="240.49" width="28.34" height="27.33"/><rect class="cls-5" x="11.5" y="232.76" width="248.31" height="35.07"/><polygon class="cls-5" points="413.19 240.5 259.81 240.5 259.81 234.25 407.96 234.25 413.19 240.5"/><polygon class="cls-8" points="413.19 240.5 259.81 240.5 259.81 234.25 407.96 234.25 413.19 240.5"/><path class="cls-5" d="M6.3,232.76H259.81V187.15l-143.54,2.63c-5.89.19-52.52,3.13-73.59,6.41-2.6.4-10.18,1.87-20.2,4.58L6.3,205.39Z"/><rect class="cls-5" x="1.89" y="239.52" width="9.62" height="18.96"/><polygon class="cls-5" points="11.5 239.52 1.89 239.52 6.3 232.76 11.5 232.76 11.5 239.52"/><polygon class="cls-5" points="25.61 173.66 241.5 150.52 241.5 203.81 25.61 203.81 25.61 173.66"/><path class="cls-5" d="M25.61,173.66s19.69-17.56,90.11-23.15,125.78,0,125.78,0Z"/><path class="cls-5" d="M241.49,150.52l2.93,1s3.92,24.19,15.39,25.82v9.85l-18.32.34Z"/><rect class="cls-2" x="226.33" y="232.76" width="0.84" height="35.07"/><rect class="cls-2" x="132.64" y="105.59" width="0.84" height="253.52" transform="translate(365.4 99.29) rotate(90)"/><rect class="cls-2" x="160.99" y="232.76" width="0.84" height="35.07"/><rect class="cls-2" x="105.71" y="232.76" width="0.84" height="35.07"/><rect class="cls-2" x="55.45" y="232.76" width="0.84" height="35.07"/><path class="cls-2" d="M25.61,200.45c90.32-21,234.2-12.72,234.2-12.72v-.5S115.93,178.91,25.61,200v.5"/><path class="cls-4" d="M16.2,226.47s4.9-6.23,9.31-18.28c2.23-5.33,13.44-14.37,24.11-18.31s28.55-14.95,40.6-14c0,0,3.25,13.45,9.74,12.76s9.69-.35,12.47-5.45,6.72-10.89,6.72-10.89a4.06,4.06,0,0,1,1.73-1.27c1-.35.69-3.35,1-4s3.93-2.66,3.93-6.58.45-1.1.45-1.1,2.89-1,2.89.81,1.17-2,1.17-2,2-3.23,1.5-5.43,1.73-2,2.08-1.85,4.16-.07,3.1,9.59c0,0,3,1.15.36,8.54s-6.58,19.17-7,21.13c0,0,6.81,4,11.55-1s9.93-8.43,11.08-8.77,3.12-2.19,3.81-5.08,6.47-1.27,6.47-1.27,8.53,4.74,14.12,4.52,37.12,4.59,51.48,13.54,5.72,15.49,11.88,19.34S259.81,213,259.81,213v21.14Z"/><path class="cls-2" d="M4.61,230.5S19,219.14,23.39,207.09c2.23-5.33,13.44-14.37,24.11-18.31S77.93,174,90,175c0,0,1.78,15.21,8.27,14.52s9.27-2.32,12.05-7.42S117,171.16,117,171.16a4.06,4.06,0,0,1,1.73-1.27c1-.35.69-3.35,1-4s3.93-2.66,3.93-6.58.69-4.27.69-4.27,2.89-1,2.89.81.92,1.15.92,1.15,2-3.23,1.5-5.43,1.73-2,2.08-1.85,4.39,1.27,2.31,10.51c0,0,3.81.23,1.15,7.62s-6.58,19.17-7,21.13c0,0,6.81,4,11.55-1s9.93-8.43,11.08-8.77,3.12-2.19,3.81-5.08,6.47-1.27,6.47-1.27,8.53,4.74,14.12,4.52,40.45,1.46,54.8,10.41,9.39,15.61,14.58,19.84c2.42,2.41,15.18,5.49,15.18,5.49v21.14Z"/><path class="cls-9" d="M241.49,150.45l2.93,1s3.92,24.19,15.39,25.82v36.13l-12.08-4a9.26,9.26,0,0,1-6.24-8.63Z"/><path class="cls-10" d="M329.15,87.51s.35,26.4,4.81,32l4.47,5.63-3-36Z"/><polygon class="cls-10" points="343.4 96.28 344.19 127.45 338.59 111.3 336.9 96.42 336.3 89.36 343.07 89.89 343.4 96.28"/><path class="cls-1" d="M369.86,145s-5.38,1.59-3.3,4.45c.86,1.47,2.68-.78,3.2-.35s.78,1.3,1.47,1.3,10.79,2.34,9.32-1.12S374,145,374,145Z"/><path class="cls-5" d="M360.31,102.2s1.44-.64,1.64-1.41.91-.13.91-.13a1.23,1.23,0,0,1,0,1.34C362.39,102.64,360.31,102.2,360.31,102.2Z"/><path class="cls-2" d="M356.58,98.83s.05.07.14,0c.42-.52,2.19-1.89,7.49,1.31,3.44,3.77,1.77,16.75,1.77,16.75s.11,2,2.11.78,4.1-.78,3.55,1.33-.22,2.22.55,1.55,5,.18,5.44-3.59c1.44-1.44,2.33-2.4,1.55-3.4,0,0,1.89-1.77-2.55-3.22-2.55-.22-4.77.55-4.44-.22s1.55-.11,1.77-3.66a8.9,8.9,0,0,0-4.33-8.52c-1.89-1.35-5.32,0-5.32,0S357.47,96.5,356.58,98.83Z"/><ellipse class="cls-2" cx="331.69" cy="82.16" rx="6.7" ry="17.45" transform="translate(169.78 383.07) rotate(-75.63)"/><path class="cls-1" d="M342,89.86s8.57-3.05,2.11-7.7-17.87-6.63-17.87-6.63l5.1-.11s13.94,1.41,17,6.78C353.64,91.28,342,89.86,342,89.86Z"/><path class="cls-1" d="M345.8,79.72s.46-.59-1.37-2a3.21,3.21,0,0,0-.59-3c-1.18-1.64-1.24-2.55-1.11-4.58,0,0,.46-.52-1.64-.59s-3.66,0-4.51.59c0,0-.33.46,1.18,1a49.91,49.91,0,0,0-7.72.26s-2.75.13-3.79,1.18,0,2.94,0,2.94Z"/><path class="cls-2" d="M330.41,71.57,341,74.1a1.8,1.8,0,0,0,2.13,0s.74-.19,1.33,1.82a2.77,2.77,0,0,1,0,1.79s1.63.67,1.67,1.15-.15.89-.63.85-1.41-1.07-1.7-.74-1.89-1.41-3.45-2-2.48-.89-2.74.44c-.19.52-5.41-1.74-5.41-1.74s-.59.18-.7-.3a1.27,1.27,0,0,1,.15-.89l-1.93-.78,5.11-.11a23.8,23.8,0,0,1-3.3-.82C330.67,72.38,330.38,72,330.41,71.57Z"/><path class="cls-7" d="M312.45,75.42a13.52,13.52,0,0,0,3.18-2.32c.72-1,.78-1.89,1.43-2.15a1.93,1.93,0,0,1,1.3,0l2-.59a17.34,17.34,0,0,1,4.08-.18c1.87.25,4.27,5.5.44,7.2a10.25,10.25,0,0,0-8.63,2.33A52.23,52.23,0,0,1,312.45,75.42Z"/><path class="cls-2" d="M317.06,64.58s.52-2.54,4.36-2.73,6.89-.26,7.67,2Z"/><path class="cls-1" d="M317.06,64.58s1.5,6,2.6,6.11,5.14.39,5.14.39a3.3,3.3,0,0,0,2.67-2.47c.78-2.34.78-3.71,1.63-4.81,0,0-.91-1.89-5.33-1.37S318.56,63,317.06,64.58Z"/><path class="cls-2" d="M314.61,76.54l2.63-3s.68-.32,1,0-1.15.68-1.15.68l-1.94,2.19A.45.45,0,0,1,314.61,76.54Z"/><path class="cls-2" d="M320.11,71.86s1.15-.9,1.58-.9.65.36.4.65a1.18,1.18,0,0,1-.83.25,1.35,1.35,0,0,1-.86.58C319.9,72.47,320.11,71.86,320.11,71.86Z"/><polygon class="cls-2" points="319.18 73.62 322.6 72.22 323.24 72.69 322.2 72.92 323.27 72.95 323.24 73.43 321.73 73.37 319.18 73.62"/><polygon class="cls-2" points="316.88 76.32 320.72 73.37 321.3 73.37 317.06 76.32 316.88 76.32"/><polygon class="cls-2" points="323.24 70.9 326.87 73.55 326.94 74.07 326.46 73.9 325.54 73.02 323.24 71.32 323.24 70.9"/><polygon class="cls-2" points="323.24 72.95 326.69 75.61 326.54 75.89 325.4 75.1 323.24 73.43 323.24 72.95"/><polygon class="cls-2" points="322.66 74.64 326.01 76.64 325.79 76.8 322.87 75.17 322.66 74.64"/><polygon class="cls-2" points="322.56 74.24 322.87 75.17 322.2 75.34 322.04 74.42 322.56 74.24"/><path class="cls-2" d="M313.25,75.67a7.68,7.68,0,0,0,2.39-1.38l.35-.12a3.74,3.74,0,0,1-2.39,1.65L313,76Z"/><path class="cls-2" d="M327.09,46.31s4.41-1.3,5.87,1,1.9,2.85,2,4.23a2,2,0,0,0,2,2.07h1.36a1.51,1.51,0,0,1-.55,1.33c.38.68,0,1.91-1.36,2.46a.79.79,0,0,0,.34,1s-1.23.38-.42,1.19c0,0,0,1.19-2,1,0,0,.38,1.1-.81.81s-1.27.25-1.27.25l-8-1.31-.72-.72h-1.82a5,5,0,0,0-2.2-1.69c-.51-.3-.21-.55.51-.89a4,4,0,0,0,1.82-2.54c.38-1.31.81-5.08,1.86-6A10.76,10.76,0,0,1,327.09,46.31Z"/><path class="cls-6" d="M199.59,143.64s1.14,3.68,24.75,4.19c9-1,2-5.84,2-5.84s-8.5-2-11.3-1.78l34.39-10.66,6.47-10.91S206.32,135.52,199.59,143.64Z"/><path class="cls-1" d="M107.34,40.22S101,59,101.66,76.06s.13,31.65-.94,38-2.28,9.46-2.64,13.18-1.8,5-1.8,5-.24,6-1.8,7.55a5.15,5.15,0,0,1-2.64,1.68s1.59-7,.4-10.32-2.64-3-1.32-7.79A104.62,104.62,0,0,0,95,96c0-12.1,3.59-35.34,3.59-35.34S102,42.23,107.34,40.22Z"/><path class="cls-1" d="M100.83,24.13s-1.91.25-3.18-2.51,4.35-6.1,4.35-6.1Z"/><path class="cls-4" d="M103.4,3.92a1.08,1.08,0,0,0-1.66-.52c-.52.33-.22.63-.37,1l-.1.14a.61.61,0,0,1,.58.51,3.63,3.63,0,0,0,1.56,2.25,11.32,11.32,0,0,1,1.75.95c.16.18.32.43.65.33s.35-.45.55-.45a3,3,0,0,1,1.92.33c.58.49,1.37,1.1,1.37,1.1l.54.12-1.29-1.41s-.16-.18,0-.22,1.33,0,1.33,0,.12-.81-1.12-1.13c-.32,0-.42-.08-.47-.17a8,8,0,0,0-2.25-2h0a6.3,6.3,0,0,0-2-.27A1.53,1.53,0,0,1,103.4,3.92Z"/><rect class="cls-4" x="105.5" y="8.54" width="0.29" height="1.1"/><path class="cls-1" d="M99.66,15.94s-1.15.66,0,2.13c.33.74-.16,2.46.57,3.53,0,.48-.43,2.5-.08,3s2.1.54,2.1.54,5.07.62,5.6-.89c.26-.67,3.16.5,3.16.5s4.26-.06,3-3.74a1.67,1.67,0,0,0-.26-2.71c-1.23-1-2.39-1-2.39-1.81,0-.52.57-.52.57-.52l0-1.5s-.32.19-.6-.51-.86-3.42-2.8-4.47a7.56,7.56,0,0,0-5.14-.41,8.06,8.06,0,0,0-3,3.07c-.35.51-.6,1.08-.89,1.17S99.66,15.94,99.66,15.94Z"/><path class="cls-1" d="M45.86,155.29a39.1,39.1,0,0,1,.25-4.79c1-2.19,2.37-2.37,2.37-2.37s-.36,1.55,1.19,1.09,3.19-.73,3.65-1.82,1.37-3.92,3.1-4.56l-5.3,11A20.56,20.56,0,0,1,45.86,155.29Z"/><path class="cls-1" d="M52.68,153.87s-.09-1.28,1.82-3.1,5.56-5.56,5.56-5.56-1,2.1-1.82,3.78-1,2-.46,2.32C57.78,151.32,56.55,152.94,52.68,153.87Z"/></svg>