<?xml version="1.0" encoding="utf-8"?>
<!-- Generator: Adobe Illustrator 20.1.0, SVG Export Plug-In . SVG Version: 6.00 Build 0)  -->
<!DOCTYPE svg PUBLIC "-//W3C//DTD SVG 1.1//EN" "http://www.w3.org/Graphics/SVG/1.1/DTD/svg11.dtd">
<svg version="1.1" id="Layer_1" xmlns="http://www.w3.org/2000/svg" xmlns:xlink="http://www.w3.org/1999/xlink" x="0px" y="0px"
	 viewBox="0 0 345.2 521.6" style="enable-background:new 0 0 345.2 521.6;" xml:space="preserve">
<style type="text/css">
	.st0{fill:#FFFFDB;}
</style>
<g id="Layer_1_1_">
</g>
<g>
	<polyline class="st0" points="142.9,263.6 145,264.8 146.4,266.1 151.3,266 154.1,266.9 156.5,272 156.7,269.6 158.3,265.3 
		165.8,265.3 166,266.3 167.1,267.1 167.3,267.7 169.9,269.4 170,270 170.4,270.1 172.1,273 173.8,274.3 174,274.9 175.5,275.6 
		175.7,276.1 178.4,277.6 179.3,279.2 182,279.9 182.3,280.2 184.4,280.9 186,280.8 194.9,286.7 197.2,287.2 198.1,288.3 
		198.8,287.8 202,289.6 203.6,291.7 203.6,292.7 202.6,293.5 202.7,293.9 201.9,295.6 202.2,295.9 200.5,297.4 200.9,297.7 
		200.5,298.1 200.4,299.2 200.8,300.9 200.5,301 200.4,302.1 199.9,302.3 200.2,302.7 199.2,303.2 199.1,304 198.3,304.8 198.8,306 
		202.9,305.7 208.6,307.3 210.2,306.8 211.2,307.5 212.4,307.1 213.7,308.1 214.2,307.2 214.2,306.6 215,306 216.6,306.1 217.7,307 
		218.5,306.2 218.3,304.9 219.2,304.3 219.3,303.5 221.1,303.2 221.1,302.6 222.1,301.9 222.3,301.1 223.1,300.8 222.9,300 
		223.5,299.3 223.6,297.4 223.2,295.8 223.6,295.6 223.5,294.5 223,293.4 223.4,293.2 223.2,292.7 224.1,293.1 224.4,293.5 
		224.6,292.8 226,292.7 225.8,292.4 226.4,292.1 226.5,292.8 227,292.5 227.6,293.2 228,293.2 228.7,295.5 230.1,297.9 229.8,298.8 
		229.9,301.4 230.5,302.8 230,304.7 229.1,304.8 228.2,305.8 227.7,305.5 227.2,306.9 226.8,306.7 226.7,307.1 226.1,306.7 
		226.2,307.2 225.2,307.1 224.7,307.8 223.9,307.7 223.4,308.4 223.5,309.2 223,309.7 222.4,309.6 222.9,310.1 221.8,310.2 
		221,310.7 220.4,311.9 220,311.9 219.7,312.4 219.4,312.2 218.5,313 219.2,313.7 219.2,314.4 218.8,314 217.8,314.1 217.9,314.8 
		217.2,315.2 217.3,315.9 216.3,317.1 215.7,317.3 215.8,318.1 215.2,318.7 215.2,319.5 214.1,320.2 213.8,321.5 212.4,323.8 
		211.7,324.8 210.6,325.2 210.6,326.5 209.1,328 208.9,329.3 207.7,330.7 208.8,333.4 208.2,333.8 208.6,334.9 208.6,336.3 
		207.9,337.9 208.7,338.6 208.7,340.1 207.7,341 208.3,341.9 208.3,343.1 209,344 208.6,345.3 209.9,350 209.7,350.3 208.3,350.3 
		208.6,351.8 208.3,353.5 208.5,355.2 209.2,356.1 209.6,357.3 210.1,357.6 210.3,358.5 210.1,359.2 209.4,359.4 210,359.9 
		210,360.7 212.1,362.7 215,363.8 218.9,366.3 220.6,368.2 219.6,370.9 219.9,372.3 221.1,373.9 223.4,375.4 224.5,374.9 
		225.5,376.9 226.1,379.5 224.5,383.7 222.7,386.5 222.9,388.6 221.4,390.1 218.8,391.5 214.7,393.1 210.3,394.2 204.1,395.2 
		199.6,395.5 196.5,395 195.4,394.1 193.9,393.9 194.5,395.1 195,395.2 194.7,396.2 195.7,397.4 195.3,397.5 196.4,397.6 
		197.4,398.3 197.2,398.6 196.2,397.8 195.7,397.9 197.5,399.1 197.9,401.8 196.7,401.7 197.2,404.4 196.6,405.3 197.4,406.6 
		198.7,407.4 198.7,407.9 198.2,407.7 198.5,408.2 199.2,407.9 199,409.7 195.2,411.8 191.1,411.9 188.7,411 188.6,410.7 
		188.1,410.8 184.1,409.4 183,409.4 182.8,409.2 183.8,409.1 183.2,408.6 182.1,408.6 182.7,408.9 182,409 181.5,409.5 181.5,410.6 
		182.2,412.1 184,414.5 184.7,416.6 184.6,417.9 185.4,419 186.5,419.7 189.1,420.2 188.7,421.5 189.9,421.6 191.7,421.6 192,421.2 
		191.6,420.3 190,420 193.2,419 194.7,420.7 195.5,422.8 195.4,424.5 193.2,425 191.8,424.1 191.8,423.1 190.2,422.2 188.9,422.2 
		187.2,423.3 187.3,424.2 190,425.4 191.4,425.7 191.9,425.5 192.1,425.8 188.9,427.6 187.6,430.8 188.7,433.1 189,433.1 
		189.3,434.2 189,434.4 189.1,434.8 189.9,435.9 189.6,436.6 190,437.1 189.6,437.1 189.7,437.5 188.5,438.1 188.2,438.7 
		188.3,439.6 189.6,440.1 189.5,441.1 188,440.8 187.4,441.1 185.9,440.7 185.5,441.2 184.2,441.5 184.7,442 184,442 184.4,442.4 
		182.6,442.5 182.1,442.9 181.4,444.9 180.9,445.5 181.1,446.8 180.3,448.5 180.4,449.4 181.3,450.9 183.5,453.1 188.5,456.3 
		193.6,456.7 194.6,457.4 195.4,458.8 195.7,460 195.6,461.6 194.8,461.6 194.3,462.1 192.9,462.4 195.5,462 196.6,462.9 
		196.7,463.2 195.7,463.2 196.5,464.2 195.5,464.2 194.4,465.6 194.6,466 194,466 194,466.4 192.9,466.8 192.4,467.6 191.1,468.2 
		190.7,469.5 189.3,471.2 189.4,473.2 188.9,473.7 189.6,473.7 189.6,472.8 189.9,472.8 190.8,477.7 189.7,478.9 188.3,479.2 
		184.7,476.3 186.2,477.8 184,478.4 186.4,478.2 188.2,479.5 186.1,480.6 185.6,481.2 185.4,482.7 186.1,484.9 185.2,486.3 
		186.2,485.5 189.5,489.9 188.6,490.2 187.1,489.8 185.9,490.3 187.9,490.2 188.5,490.4 188.5,490.8 189.5,490.3 195.3,495.3 
		195.4,495.9 195.1,495.5 185,493.1 173.9,493 173.1,492 169.3,489.9 169.5,489.3 169.3,487.5 168,486.6 168,486 168.3,485.8 
		167.9,484.6 167,483.9 166.9,483.1 165.5,482.8 165,483.3 164.1,482.9 162.9,483.9 162.1,483.8 160,480.7 157.9,479.3 157.8,478.4 
		157,477.8 157.1,476.7 155.6,474.9 155.8,473.7 155.5,473.2 157.4,473.1 157.6,472.9 156.9,472.5 157.2,470.8 158.4,470.4 
		159.1,469.4 157.9,467 159.2,465.9 158.2,464 156.4,462.8 156.6,460.5 156.1,459.3 157.1,459 157.5,458.1 157.2,457.5 157.3,457.5 
		158.2,457.6 157.9,457 157,456.4 157.3,456 156.8,455.5 156.6,454.5 157.2,454.3 157.7,453.5 156,450.4 154.7,449.6 155,449.5 
		155,449.5 155.4,449.3 156,448.3 154.7,447.3 153.9,445.2 155.3,444.8 154.9,444 155.8,443.2 153.4,440.9 153.4,440.9 150,440.2 
		149.6,439.1 151.1,439.4 153.1,439 154.5,439.4 154.5,439.4 154.4,437.9 154.8,437.5 154.2,436.8 149.8,436.2 149.9,435.8 
		149,434.2 149.4,434 149.7,432.9 148.7,431.7 148.6,431.7 148.2,431.5 148.7,431 148.4,430.4 146.5,429.2 146.4,428.3 147.3,428.1 
		147,427.2 144.8,426.6 144,425.9 142.8,422.6 143.2,421.9 142,420.5 142.3,419.3 143,419.6 143.5,419.3 143.5,419.3 144,419 
		143.4,418.1 143.4,418.1 141.6,415.6 141.8,415 140.9,413.4 140.1,410.3 138.8,408.6 139.2,407.9 139,406.3 139.5,406.3 
		139.6,405.6 138.4,404.7 138.1,403.8 138.9,403.8 138.8,402.3 137.8,401 137.4,399.9 138.1,400.2 138.8,400 138.3,399.6 
		138.5,397.3 137.6,394.9 138.5,394 140.1,393.5 140.5,393.1 140.3,392 139.1,390.9 138.1,388.3 136.1,385.6 136,383.7 135.1,382.5 
		135.3,381 134.3,380 134.7,379.8 134.1,379 134.1,377.8 134.6,377.8 134.2,376.3 134.9,376.2 135,375.6 136.2,375.7 136.1,375.3 
		136.1,375.3 135.9,374.6 136.4,373.7 137.4,373.6 137.5,372.9 136.9,371.6 137.2,371 136.3,369.8 135.6,367.5 134.9,367.2 
		134.6,366.7 135.6,366.1 135.5,363.3 135.2,362.9 136.1,360.3 135.9,359.4 137.3,359 135.8,355.7 136,355 135.6,353.8 135.8,352.5 
		135.5,351.8 134.7,351.4 134.2,351.8 133.4,350.9 133.1,349.8 133.4,349.5 133.5,348.6 132.2,347.6 131.7,345.6 131,345 
		130.8,344.3 130.2,344 129.5,342.3 130.2,342.2 130.2,341.5 129.7,341 128.8,340.9 127.2,338.5 126.9,335.5 127.2,334.9 
		127.6,335.4 128,334.5 128.4,334.5 127.7,333.4 127.8,330.5 128.2,330 127.9,329.3 128.8,329.6 129.3,329.4 129.7,327.9 
		129.4,327.4 128.6,327.2 128.6,325 127,321.1 127.5,320 128.2,319.7 128.2,317.3 127.8,316.4 128.2,315.6 128,314.3 128.8,313.6 
		128.9,312.8 129.4,312.8 129.8,311.2 130.5,310.9 130.9,307.1 131.4,306.5 131.7,304.6 132.4,304.4 133.3,304.9 133.7,304.2 
		134.8,303.9 134.8,302.8 132.4,299.8 132.3,298.3 133.2,297 131,291.7 131.3,289.6 132.2,289.2 130.4,286.6 130.8,285.2 
		131.1,285.4 131.3,284.4 131.8,284.4 132.1,283.6 137.8,280.6 138.9,273 137.5,271.6 138.4,270.2 138.4,269.4 139.8,268.5 
		140.2,266.9 142.7,265.9 142.9,263.6 	"/>
	<polyline class="st0" points="195.2,497.8 198.2,500 199.1,501.2 198.4,500.4 197.9,500.5 197.4,501.4 197.7,502.1 198.7,502.6 
		200.1,502.5 202.3,504.8 205.3,506.4 205.8,507.1 215.6,511.6 219.1,512.6 222.2,512.5 222,514.4 221.2,514.1 221.2,514.4 
		220.2,514.7 219.7,514.3 218.5,514.2 218.3,514.7 216.4,514.9 216.1,515.3 212.5,514.3 207.7,514.1 204.9,513.5 204.8,513.8 
		203.7,513.9 202.9,513.4 195.2,497.8 	"/>
	<polyline class="st0" points="225.7,514.3 225,513.6 225.3,513.3 226.2,513.3 225.7,512.9 227,513.4 226.9,512.9 230,513 
		229.4,513.6 229.2,513.2 227.8,513.8 227.4,513.4 225.7,514.3 	"/>
</g>
<g>
	<polyline class="st0" points="136.6,446.5 136.4,445.6 137,445.3 137.3,446.5 136.6,446.5 	"/>
	<polyline class="st0" points="152.9,490.4 152.5,489.8 152.8,489.3 152.6,488.5 152.3,488.1 152.5,487.7 152.9,488.4 152.9,487.9 
		153.8,488.6 153.4,488.7 153.4,489.2 153,488.9 153.6,490 153.2,489.8 153.4,490.2 152.9,490.4 	"/>
	<polyline class="st0" points="164.1,494.3 164.5,494.8 161.2,493.1 161.6,493.1 161,492.5 163.4,493.6 164.1,494.3 	"/>
	<polyline class="st0" points="158.7,495.4 157.3,494.5 158.1,494.8 159,494.6 158.7,495.4 	"/>
	<polyline class="st0" points="141.1,468.7 140.6,468.4 141.2,468.4 141.4,468 140.2,468 139.7,467.1 139.9,466.8 141.5,466.8 
		142.1,467.9 141.1,468.7 	"/>
	<polyline class="st0" points="143,468.7 141.2,466 140.6,466.6 140,466.4 140.9,465.7 139.8,465.7 140.1,465 139.6,465.2 
		139.2,464.7 138.8,464.1 139.1,463.7 139.6,463.9 139.7,463.6 140,463.5 141,465.1 143.2,467.2 143.6,468 143,468.7 	"/>
	<polyline class="st0" points="146,463.3 144.8,462.9 145.1,462.3 146.1,462.5 145.5,462.1 145.7,462 148.8,462.7 148.6,463.1 
		148.1,462.9 146,463.3 	"/>
	<polyline class="st0" points="138.6,446.7 137.8,446.5 137.4,444.3 138.4,444.6 139.1,445.4 138.8,445.7 139.2,445.7 139.2,446.1 
		138.6,446.2 138.8,446.3 138.6,446.7 	"/>
	<polyline class="st0" points="136.4,439.5 135.6,439.1 135.7,438.7 135.1,438.6 135,438.2 137.4,438 138.4,438.6 136.4,439.5 	"/>
	<polyline class="st0" points="137.4,443.9 136.3,443.2 137.2,443.2 137.9,443.9 137.4,443.9 	"/>
	<polyline class="st0" points="144,471 144.3,471.2 144.1,471.5 143.3,470.5 142.5,471.2 142.4,470.6 141.5,470.7 141.2,469.9 
		142,469.8 142,470.2 142.4,469.6 142.4,470 142.9,470.3 142.6,469.8 143.1,469.9 144,471 	"/>
	<polyline class="st0" points="134.6,428.9 132.8,428.6 130.8,427.7 131.1,425 130.6,423.2 129.8,422 129.3,420 129.6,418.8 
		128.9,416.6 129.6,416.6 129.8,417 129.2,417.1 130.2,417.5 130.4,417.2 130.8,417.5 130.6,417.2 131,416.8 132.3,417.1 
		132.1,417.9 133.3,418.7 133.2,419.4 134.3,420.1 134.3,420.6 132.7,421 132.9,421.7 133.5,422.2 132.8,422.4 132.4,421.8 
		132.2,422.1 132.7,422.9 135.1,424.3 135.3,424.9 134,424.9 136,426.7 134.3,426.7 135.3,427.9 135.4,428.6 134.8,428.5 
		134.6,428.9 	"/>
	<polyline class="st0" points="131.8,440.4 131.1,439.7 131.2,439.3 131.9,439.8 131.8,440.4 	"/>
	<polyline class="st0" points="142.9,440.5 141.6,439.6 142.7,439.4 141.7,439.4 140.8,438.3 141.1,437.9 142.1,438.2 141.6,437.5 
		142.5,437.5 141.6,437.2 141.5,436.6 142.4,436.6 142.8,437 142.3,436.3 142.8,436.2 143.4,436.7 143.3,437.3 143.7,436.7 
		145,437.5 144.6,438.2 143.6,438 144.7,438.8 143.6,440.2 142.9,440.5 	"/>
	<polyline class="st0" points="176.6,508.7 175.3,508.2 176.5,508.2 175.9,508 176.6,507.9 175.9,507.3 176.6,506.7 176.1,506.8 
		175.6,506.4 174.6,506.8 174.1,506.3 174.8,507.9 173.2,507.5 173.4,507 172.7,506.5 172.9,506.3 172.4,505.9 172.6,505.6 
		170.9,505.9 171.2,505.5 170.3,505.2 170.1,504.7 171.1,504.5 173,505.3 174,505.1 173.3,505.2 173.4,504.7 173.1,505.2 
		172.3,505.1 170.7,503.8 172.8,504.3 171.9,503.5 172.5,503.2 173.2,504 172.8,503.4 173.5,503.6 174.6,505.4 174.5,504.4 
		173.9,503.8 174.8,504.2 175.7,505.3 175.9,505.2 175.3,504.3 176.8,504.7 177.3,505.9 177.6,505.5 179.3,506.3 178.9,506.5 
		179,506.8 178.1,506.6 178.6,507.1 178.1,507 178.4,507.5 179.1,508 177.9,507.6 178.2,508.4 177.3,507.9 177.2,508.5 176.6,508.7 
			"/>
	<polyline class="st0" points="190.1,509.4 188,508.5 186.9,507.3 186.7,506.8 186.9,506.6 188.2,506.7 187.1,505.5 187.5,504.5 
		187.9,504.5 189.3,506.9 190.3,507.8 189.7,508 188.1,507.1 190.1,509.4 	"/>
	<polyline class="st0" points="166.2,502.2 166,502.7 165.4,502.6 165.8,502.1 166.2,502.2 	"/>
	<polyline class="st0" points="172,503.1 170,502.5 169.1,502.7 169.6,502.6 166.5,500.8 165.5,500.9 165.8,501 165.5,501.1 
		164.4,500.7 164.6,501 164.1,501.1 160.4,498.6 160.6,498.4 162,498.9 163.3,500 164.8,500.3 164.6,500 165.3,500.1 168.3,501.5 
		167.8,500.9 168.1,500.9 169.3,502.3 169.1,501.4 170.4,502.1 170.3,502.4 172,503.1 	"/>
	<polyline class="st0" points="146.8,473 145.4,472.1 144.8,472.1 145,471.9 144.4,472 144.7,471.1 146.2,471.5 146.8,473 	"/>
	<polyline class="st0" points="150.4,478.7 149.5,478.3 150.1,477.8 150.5,477.9 150,477.6 149.2,477.9 149,477.4 149.8,477.2 
		149.2,477.1 149.3,476.6 148.8,476.8 148.2,475.9 148.6,476 148.1,475.5 149.2,475.6 147.9,474.9 148.3,474.5 148.7,474.7 
		148.4,474.3 148.8,474.1 148.4,474.1 148.6,473.5 148.3,473.9 147.8,473.7 148.3,474.2 147.9,474.6 147.6,474.5 147.6,474.9 
		147.1,474.5 147.1,474.7 147.6,475.9 147.8,475.7 147.8,476.5 148.2,476.7 147.9,477 148.3,477.5 147.4,477.2 145.7,475.6 
		145.9,475.1 145.4,475 145.5,474.6 145,474.6 144.6,474.1 144.3,474.3 143.7,473.3 144.1,473 146,474.6 144.4,472.8 146,473.7 
		145.3,473.2 145.7,473.3 145.7,472.9 146,472.9 145.6,472.4 147.2,473.6 146.6,471.8 146.8,471.7 145.7,471 146.4,470.9 
		146.2,470.6 145.5,470.8 144.9,470.1 145.5,469.7 144.8,470 144.4,469.7 144.4,469.4 145.1,469.6 144.6,469.2 145.3,468.7 
		145.7,469 145.7,468.5 146.6,468.9 146.9,469.8 146.8,469 147.2,468.8 147.6,470.2 148.3,470.5 148.3,471.1 149.4,472.5 
		149.9,474.1 149.8,474.7 150.3,475.3 150.1,476.2 150.3,475.6 150.9,475.7 151.3,476.5 150.7,476.5 151.4,476.8 151.7,477.4 
		151.1,477.3 151.7,477.8 151.5,478.1 150.8,477.7 151.4,478.2 151.2,478.7 150.8,478.7 150.6,478.3 150.4,478.7 	"/>
	<polyline class="st0" points="149,481.6 148.4,481.4 148.7,480.6 147.3,480.9 147.1,479.4 147.9,479.6 147.5,479.8 147.7,480 
		148.8,480.1 148.6,479.4 148,479.5 146.8,478.8 146.9,478.3 147.5,478.8 148.1,478.5 148.9,479.2 149.3,478.9 149.1,479.7 
		150.1,479.5 150.2,479.2 150.5,479.4 150.6,479.9 149.9,480 149,481.6 	"/>
	<polyline class="st0" points="149.7,484.2 149.4,483.9 148.8,483.9 148.8,483.3 148.1,483.2 148.7,482.7 147.9,482.1 148,481.8 
		150,482 150,482.4 149.5,482.5 149.7,482.8 148.7,482.4 149.5,483 149.7,484.2 	"/>
	<polyline class="st0" points="155,483.3 156.2,483.9 156.5,484.6 155.9,484.1 155.6,484.6 154.9,483.9 154.3,483.8 153.5,483 
		154,482.2 152.4,481.8 152.9,481.4 153.5,481.8 154,481.7 155.7,483.4 154.5,483.1 155,483.3 	"/>
	<polyline class="st0" points="154.4,486.5 154,486.1 154.2,485.8 153.7,485.7 153.6,486.3 153.2,486.1 153.2,485.6 152.4,485.4 
		152.4,484.9 154.3,485.2 153.9,484.6 154.3,484.4 153.4,483.7 155.2,484.5 156.1,485.9 156.2,486.4 155.4,485.7 154.7,486 
		154.9,486.4 154.4,486.5 	"/>
	<polyline class="st0" points="156.7,493.9 155.6,492.9 156,492.6 155.6,492.5 155.6,491.7 156,492.1 156.4,491.9 155.3,490.3 
		156,490.5 156.6,491.5 156.9,493.4 156.7,493.9 	"/>
	<polyline class="st0" points="179,509 179.6,508.6 179,508.4 179.2,508.2 180.2,508.8 180,509.6 179.5,509.3 179.4,509.6 
		179,509.5 178.7,509.2 179,509 	"/>
	<polyline class="st0" points="137.4,443.2 136.8,442.7 136.7,442.1 137.6,442.6 137.4,443.2 	"/>
	<polyline class="st0" points="183,510.2 182.2,510 182.2,509.4 180.9,508.9 181.1,508.7 180.6,508.6 181,508.5 180.4,508.1 
		180.2,508.4 179.9,508.3 179.1,507.2 180.4,507.6 180.2,507.3 180.6,506.6 181.5,507.5 181.7,507 182.5,507.1 182,507.7 
		182.5,507.6 182.6,507.9 182.4,508.1 183.1,508.3 182.9,508.9 181.2,507.8 183.2,509.4 182.7,509.8 183,510.2 	"/>
	<polyline class="st0" points="187.3,510.5 185.7,509.9 186.2,509.7 186.1,509.4 185.1,509.4 184.6,508.6 184.2,508.7 184.4,509.7 
		184,509.1 183.9,509.4 183.6,509.3 183.1,508.8 183.5,508.4 182.8,507.4 183.6,507.6 183.7,507.3 184.5,508.2 184.2,507.5 
		184.8,507.7 186,509.1 185.9,508.3 186.2,508.8 186.2,508.2 186.8,508.4 186.9,509.1 187.2,509 187.6,509.7 187.5,510.1 
		186.8,509.9 187.3,510.2 187.3,510.5 	"/>
	<polyline class="st0" points="162.6,496 161.6,495.4 161.4,494.8 162.1,494.9 161.3,494.5 161.7,494.5 159.9,494 160.5,493.7 
		163.4,495.5 162.6,496 	"/>
	<polyline class="st0" points="145.3,475.6 147.4,477.6 146.6,477.1 146.8,477.6 146.2,477.3 145.7,476.3 144.9,477.1 144.5,476.6 
		144.9,476.4 144.1,475.8 144.5,475.5 145.3,475.6 	"/>
	<polyline class="st0" points="214.5,516.6 214.9,517.3 213.8,517.3 213.5,517 214.5,516.6 	"/>
	<polyline class="st0" points="209.5,520.2 207,518.4 206.6,518.6 205.4,517.9 205.6,518.3 204.4,518 204.8,518.5 204.5,518.6 
		203.6,518.2 203.5,517.9 204.3,517.7 204.1,517.4 203.2,517.7 203.4,516.3 202.5,516.9 201.5,516.1 201.9,516.7 200.7,515.9 
		199.8,516.1 200.6,516.2 200.9,516.6 199.8,516.7 200.2,517.2 201.2,517.3 201.7,517.7 201.6,518.1 202.5,518.2 202.5,518.6 
		201.5,518.4 201,517.8 201.1,518.6 200.2,517.8 200.7,517.5 199.7,517.7 198.3,517.2 199.4,516.9 198.8,516.8 199.4,516.2 
		197.8,516.8 197.3,516.6 197.6,516.5 197.2,516.4 197.4,516.1 196.4,516 196.8,515.5 198.4,515.3 199.1,516.1 198.7,515.2 
		199.9,515.3 199.6,515.1 199.9,514.9 200.6,515.1 200.5,514.9 203.3,514.5 204.7,514.6 205.6,515.4 204.9,515.3 205.1,515.6 
		204.8,515.8 204.1,515.5 204.4,516.1 201.4,515.3 203.5,516.2 205.8,516.3 207.1,516.9 205.2,517.2 204.1,516.9 205.3,517.6 
		205.9,517.3 206.9,517.9 207.8,517.8 208,518.3 208.6,518.4 208.6,518.8 209.6,519.2 209.5,519.7 209.9,519.8 209.5,520.2 	"/>
	<polyline class="st0" points="196.7,515.3 196.1,514.6 196.6,514.6 196,514.2 197.4,514.6 196.8,514.1 197.2,514 198.3,514.2 
		198.5,514.6 198.9,514.2 200.5,514.7 196.7,515.3 	"/>
	<polyline class="st0" points="194.5,516.2 194,516.5 193.5,516.1 193.6,516.4 192.8,515.4 192.4,515.8 192,515.3 190.9,515.5 
		190.4,515.1 190.8,515 190.1,514.7 190.9,514.5 191,514.8 191.4,514.8 191.3,514.5 192.6,514.7 192.3,514.6 192.7,514.3 
		193.8,514.2 193,514.6 193,514.9 191.9,515 194.5,515.2 194.3,515.5 194.8,515.9 193.8,515.7 194.5,516.2 	"/>
	<polyline class="st0" points="136.5,435.9 135.4,434.9 135.8,434.9 135.6,434.6 136.9,435.1 136.3,435.3 136.5,435.9 	"/>
	<polyline class="st0" points="183.8,513.2 182.8,512.3 184,512.8 183.8,513.2 	"/>
	<polyline class="st0" points="141.1,446.3 140.4,446.3 139.7,445.5 139.9,445.1 140.9,445.4 141.1,446.3 	"/>
	<polyline class="st0" points="143.8,464.9 144.1,466.2 143.2,466.7 140.8,464 142.3,464.2 143.3,465.2 143.7,464.8 143.8,464.9 	
		"/>
	<polyline class="st0" points="142,444.3 142.6,444.7 142.8,445.7 142.5,445.7 143,446.1 143,446.6 141.7,445.8 142,445.5 
		141.5,444.8 142,444.3 	"/>
	<polyline class="st0" points="160.7,492.7 159.2,492.2 157.9,491 160.2,491.9 160.2,492.2 160.8,492.2 160.7,492.7 	"/>
	<polyline class="st0" points="212.8,519.2 213.1,519.2 213.5,520.1 214.3,520.5 212.4,520.2 212.4,519.7 213.2,520 212.8,519.2 	
		"/>
	<polyline class="st0" points="135.8,439.9 134.6,438.9 135.1,438.8 136.2,439.7 135.8,439.9 	"/>
	<polyline class="st0" points="155,492.3 154.7,491.6 154.9,491 155.3,491.2 155.5,492 155,492.3 	"/>
	<polyline class="st0" points="215.7,521.6 215.1,521.2 215.2,520.8 215.7,521.6 	"/>
	<polyline class="st0" points="179.8,510.8 179.1,510.2 179.6,510 180.4,510.2 179.8,510.4 179.8,510.8 	"/>
	<polyline class="st0" points="137,441.2 136.4,440.9 137.1,440 138.5,440.2 139,440.6 137,441.2 	"/>
	<polyline class="st0" points="143.2,472.9 142.2,472.5 142.3,471.9 142.9,471.9 143.2,470.8 143.3,471.3 144,471.6 143.6,472.3 
		143.4,471.9 143.2,472.9 	"/>
	<polyline class="st0" points="213.2,520.9 213.1,521.3 212.7,521.4 211.2,521 213.2,520.9 	"/>
	<polyline class="st0" points="153.7,484.9 152.2,484.6 152.5,484.4 151.7,483.7 152.3,483.8 151.8,483.4 152.7,483.5 153.3,484.3 
		153,484.3 153.5,484.7 153.7,484.4 153.7,484.9 	"/>
	<polyline class="st0" points="141.1,445.1 139.8,444.9 139.5,445.2 139.5,444.2 141,444.4 141.1,445.1 	"/>
	<polyline class="st0" points="134.8,438.7 133.5,438.4 133.7,438.1 134.6,438.2 134.8,438.7 	"/>
	<polyline class="st0" points="174.3,508.6 172.7,508.2 173.1,507.9 173.8,508 174.6,508.6 174.3,508.6 	"/>
	<polyline class="st0" points="216.3,517 215.8,516.5 216.2,516.2 216.9,516.4 216.3,517 	"/>
	<polyline class="st0" points="168.8,504.7 168.1,503.7 169.4,504.2 168.8,504.7 	"/>
	<polyline class="st0" points="142.1,462.3 142.5,462.1 143.3,463.8 142.6,463.9 141.6,463.4 140.5,463.7 140.6,463.3 141.4,463 
		142.4,463.5 142,463.1 142.1,462.3 	"/>
	<polyline class="st0" points="142.5,457.2 142.2,456.6 143.1,456.4 143.1,456.8 142.5,457.2 	"/>
	<polyline class="st0" points="140.4,462.4 140.3,462 139.5,461.7 140.2,461.2 141,461.9 140.4,462.4 	"/>
	<polyline class="st0" points="160,490 161.4,491.5 160.8,491.6 159.4,490.9 159.8,490.6 159.5,490.1 159.9,490.2 159.6,489.7 
		160,490 	"/>
	<polyline class="st0" points="139.6,440.7 138.7,440.1 139,440.1 138.4,439.3 138.9,439.3 139.8,440.4 139.6,440.7 	"/>
	<polyline class="st0" points="165,498.4 164.7,498.2 164.9,497.5 164.3,497.8 164.6,497.2 164,497.7 163.7,497.5 164.7,496 
		165.5,496.7 165.2,497.2 165.6,497.5 165.6,498.1 165,498.4 	"/>
	<polyline class="st0" points="154.2,489.2 153.9,489 154.7,488.1 154.1,488.4 153.8,488.2 154.3,487.3 155.3,487.1 155.7,487.4 
		156.1,487.8 155.5,487.7 156.3,488.4 156.2,488.7 155.2,487.8 155.2,488.9 154.2,489.2 	"/>
	<polyline class="st0" points="139.7,438.5 140.2,438.8 139.2,439 138.5,438.4 138.4,437.7 139.3,437.6 139.7,438.5 	"/>
	<polyline class="st0" points="117.4,230.9 117.7,231.9 118.9,233.3 119.2,234.5 120.7,234.9 120.3,235.8 121.4,238.3 122.3,241.4 
		122.2,241.9 122.8,242.8 126.1,245.6 124.7,247.9 125.8,248.8 126,249.3 125.8,250.4 124.4,250.7 125,251.1 125.3,252.4 
		124.9,253.1 125.4,253.8 127.1,254.9 126.5,255.5 126.7,256.8 127.6,257.2 129.4,259.9 129.8,262.3 130.4,263.4 130.8,265 
		131.8,266.1 132,267.9 132.9,269.5 133,271.6 134.8,272.2 137.5,271.6 138.9,273 137.8,280.6 132.1,283.6 131.8,284.4 131.3,284.4 
		131.1,285.4 130.8,285.2 130.4,286.6 132.2,289.2 131.3,289.6 131,291.7 133.2,297 132.3,298.3 132.4,299.8 134.8,302.8 
		134.8,303.9 133.7,304.2 133.3,304.9 132.4,304.4 131.7,304.6 131.4,306.5 130.9,307.1 130.5,310.9 129.8,311.2 129.4,312.8 
		128.9,312.8 128.8,313.6 128,314.3 128.2,315.6 127.8,316.4 128.2,317.3 128.2,319.7 127.5,320 127,321.1 128.6,325 128.6,327.2 
		129.4,327.4 129.7,327.9 129.3,329.4 128.8,329.6 127.9,329.3 128.2,330 127.8,330.5 127.7,333.4 128.4,334.5 128,334.5 
		127.6,335.4 127.2,334.9 126.9,335.5 127.2,338.5 128.8,340.9 129.7,341 130.2,341.5 130.2,342.2 129.5,342.3 130.2,344 
		130.8,344.3 131,345 131.7,345.6 132.2,347.6 133.5,348.6 133.4,349.5 133.1,349.8 133.4,350.9 134.2,351.8 134.7,351.4 
		135.5,351.8 135.8,352.5 135.6,353.8 136,355 135.8,355.7 137.3,359 135.9,359.4 136.1,360.3 135.2,362.9 135.5,363.3 135.6,366.1 
		134.6,366.7 134.9,367.2 135.6,367.5 136.3,369.8 137.2,371 136.9,371.6 137.5,372.9 137.4,373.6 136.4,373.7 135.9,374.6 
		136.1,375.3 136.1,375.3 136.2,375.7 135,375.6 134.9,376.2 134.2,376.3 134.6,377.8 134.1,377.8 134.1,379 134.7,379.8 134.3,380 
		135.3,381 135.1,382.5 136,383.7 136.1,385.6 138.1,388.3 139.1,390.9 140.3,392 140.5,393.1 140.1,393.5 138.5,394 137.6,394.9 
		138.5,397.3 138.3,399.6 138.8,400 138.1,400.2 137.4,399.9 137.8,401 138.8,402.3 138.9,403.8 138.1,403.8 138.4,404.7 
		139.6,405.6 139.5,406.3 139,406.3 139.2,407.9 138.8,408.6 140.1,410.3 140.9,413.4 141.8,415 141.6,415.6 143.4,418.1 
		143.4,418.1 144,419 143.5,419.3 143.5,419.3 143,419.6 142.3,419.3 142,420.5 143.2,421.9 142.8,422.6 144,425.9 144.8,426.6 
		147,427.2 147.3,428.1 146.4,428.3 146.5,429.2 148.4,430.4 148.7,431 148.2,431.5 148.6,431.7 148.7,431.7 149.7,432.9 149.4,434 
		149,434.2 149.9,435.8 149.8,436.2 154.2,436.8 154.8,437.5 154.4,437.9 154.5,439.4 154.5,439.4 153.1,439 151.1,439.4 
		149.6,439.1 150,440.2 153.4,440.9 153.4,440.9 155.8,443.2 154.9,444 155.3,444.8 153.9,445.2 154.7,447.3 156,448.3 155.4,449.3 
		155,449.5 155,449.5 154.7,449.6 156,450.4 157.7,453.5 157.2,454.3 156.6,454.5 156.8,455.5 157.3,456 157,456.4 157.9,457 
		158.2,457.6 157.3,457.5 157.2,457.5 157.5,458.1 157.1,459 156.1,459.3 156.6,460.5 156.4,462.8 158.2,464 159.2,465.9 157.9,467 
		159.1,469.4 158.4,470.4 157.2,470.8 156.9,472.5 157.6,472.9 157.4,473.1 155.5,473.2 155.8,473.7 155.6,474.9 157.1,476.7 
		157,477.8 157.8,478.4 157.9,479.3 160,480.7 162.1,483.8 162.9,483.9 164.1,482.9 165,483.3 165.5,482.8 166.9,483.1 167,483.9 
		167.9,484.6 168.3,485.8 168,486 168,486.6 169.3,487.5 169.5,489.3 169.3,489.9 173.1,492 173.9,493 185,493.1 195.1,495.5 
		195.4,495.9 194.8,495.5 192.1,495.2 190.2,494.6 189,495.1 189.3,495.9 188.8,496.9 187.5,496.6 186.1,497.4 186,497.8 
		184.6,498.2 184.1,497.8 183.6,498.3 182.6,498.4 183.5,498.9 183.2,499.6 183.9,500.4 183.9,501.9 185.8,505.9 185.6,506.4 
		184.6,506.9 181.8,506.3 180.4,505.5 180.2,505.7 179,505.4 176,503.4 175.9,502.7 176.5,502.2 177.4,502.3 177.8,502.8 178,503.2 
		177.4,503.6 178.2,503.5 178.5,503.2 177.9,502.1 178.7,502 179.9,503.6 179.1,504.5 180.1,504.2 179.4,502 181.3,501.2 
		181.7,499.5 179.6,498.5 179.7,499.1 177.6,500.4 177.4,501.3 176.9,501.4 175.5,500.6 175.8,500.9 174.2,501 175.2,501 
		176.6,501.7 175.7,501.7 175.9,502.1 174.8,501.9 175.6,502.3 175,502.4 175.4,503.1 174.6,502.8 177,504.3 176.1,504.4 
		174.2,503.3 174.2,503.6 171,502.1 170.2,501.6 171.3,501.8 172.2,501.6 174,502.5 173.2,501.7 173.6,501.8 173.3,501.5 
		173.8,501.5 172.1,501.2 172.1,500.6 170.9,499.2 171.9,498.6 172,498.3 172.7,498.6 172.5,499.5 173,498.9 174,499.4 174,498.8 
		174.8,498.2 174.8,497.8 175.6,498 175.9,497.7 177.1,498.1 178.7,497.7 178.1,497.2 174.5,496.9 173.5,496.9 173.3,497.9 
		172.4,497.4 173,496.8 172.2,497.2 170.4,496.8 170.4,498.4 170.8,497.4 171.9,497.9 171.7,498.6 170.6,499.2 171.2,499.6 
		171.7,500.9 170.9,501.1 170.3,500.6 170.6,501.2 168.8,500.5 169.2,500.4 169.3,500 169.7,500.1 169.9,499.7 169.3,499.7 
		167.4,498.9 169.2,498.9 168.5,498.4 169.1,497.8 169,497.2 169.6,497.2 168.9,496.8 170.1,496.8 168.5,496.6 168.1,496.2 
		168.1,496.7 168.8,497.2 168.6,498 167.4,497.1 167.7,497.7 167.2,497.9 166.8,498.6 166.3,498.4 166.7,497.8 165.9,497.5 
		166.5,497.1 166,496.9 166.2,496.2 165.4,496.2 165.2,495.9 165.6,495.9 165.6,495.5 165.1,495.2 165.1,494.6 163.5,493.3 
		165.2,494.5 165.5,494.3 165.2,494.1 166.6,494.7 167,494.6 166.8,493.9 167.9,493.6 168.2,494.1 167.9,494.2 168,494.8 
		168.3,494.5 169.4,495 169.3,493.5 169,493.7 169.1,494.6 168.2,493.6 168.4,493.5 168.3,492.8 168.6,492.6 171.1,494.6 
		171.2,495.6 170.7,495.5 169.7,496.4 171,496.1 171.9,496.4 172.1,496.3 171.2,496.1 171.7,495.4 171.4,494.6 169.4,492.8 
		170.5,492.6 169.9,491.5 167.8,490 165.5,489.4 165,488.8 164.2,489.3 165.6,489.5 165.6,490.1 166,489.6 167.4,490.2 168.2,490.8 
		169.2,491.1 169.4,491.5 168.7,491.9 165.6,490.9 164.6,490.2 165.3,491 166.1,491 166.8,491.5 166,491.3 166.7,491.9 166,492.2 
		167.1,491.8 167.5,492.1 166.6,492.6 166.9,493.7 166.6,493.7 164.1,490.6 166.5,494.3 164.6,493.4 163.2,491.9 163.5,491.7 
		165.4,493.2 163.3,491.3 163.8,490.8 163.1,491 162.7,490.8 162.8,491.5 161.8,490.8 162.1,490.4 161,490.3 161.2,489.7 
		160.6,489.6 160.1,488.5 161.5,489.2 162.8,490.3 161.9,489.3 162.2,489 161.5,488.8 160.3,487.5 160.5,487.2 161,487.7 
		160.4,486.8 160,486.6 160.2,487 159.6,487.5 158.5,486.5 158.8,487.2 158.5,487.3 157.6,486.2 157.6,485.4 157.2,486.1 
		156.5,485.3 156.9,484.8 158.2,484.8 159.2,485.4 158.3,484.5 158.4,484.2 159.1,484.4 158.4,483.2 159.1,483.1 159.9,483.6 
		160.1,483.3 158.3,482.5 158.2,482.2 158.7,481.9 158.6,481.3 157.9,482.3 158.4,484 157.9,484.5 157.3,484.4 156.7,484 
		156.8,483.6 156.4,483.4 156.4,483.8 154.7,481.9 155.1,481.8 156,482.7 155.5,481.9 157.2,482.4 155.5,481.6 155.8,481 
		154.5,481.5 153.9,480.3 153.6,481 152.6,480.6 152.7,480.2 152.4,480 151.3,479.8 151.6,479.1 152.1,479.4 152.1,478.9 152.9,479 
		154.4,480.2 154.9,480 156.4,480.5 155.4,479.8 154.3,479.8 152.5,478.3 152.4,477.8 153,477.8 155.5,478.9 154.6,478.3 
		154.7,477.8 155.1,477.7 154.7,477.3 154.3,478.1 152.4,477.5 151.9,476.8 153.3,476.2 152,476.4 151.5,475.5 152.6,474.9 
		153.2,475.5 153.4,475 155.5,476.7 155.6,476.4 154.3,475.7 153.7,474.8 152.2,474.4 151.7,472.9 153.3,473.5 152.1,472.8 
		151.3,471.5 151.7,471.1 152.5,471.3 152.2,471.1 151,471.1 151.5,472.1 151.4,472.7 150.9,472.5 151.4,473.2 151.8,474.8 
		150.1,473.8 149.7,472.3 148.6,471.2 148.8,470.4 148,469.4 148.1,468.9 150,469 148.5,468.9 147.6,468 148.3,467 150,467.9 
		149.3,466.8 149.9,466.5 147.7,466.1 148.5,465.8 147.5,465.9 146.7,465.1 145.5,464.4 145.3,463.7 144.6,464.1 144.2,463.6 
		144.7,463.1 145.5,463.4 147.5,465.2 147.7,465.1 146,463.4 148.7,463.6 149,464.2 149.4,463.7 149.5,464.3 150.7,464.4 
		151.4,465.3 151.6,464.8 152.5,465.1 152.6,464.1 152.3,464.7 151.4,464.4 149.7,462.7 150.9,463.3 152.6,463.5 150.9,463.1 
		150.5,462.6 149.8,462.4 150,462 149.1,461.9 148.6,461.2 148.8,460.7 148.1,459.9 148.6,461.8 147.9,462.3 146.8,461.8 
		145.1,461.9 144.9,461.5 144.1,461.9 142.7,461.4 142.9,460.8 143.6,461.1 142.9,460.6 143.2,460.1 143.6,460.5 144,460.2 
		144.7,460.7 144.1,461.2 144.9,461 145.8,461.6 146.2,461.6 145.2,461 146.1,460.9 145.3,460.7 146.5,460.6 145.9,460.4 146.1,460 
		144.9,460.5 143.6,459.6 143.9,459.4 143,459.3 143.6,457.7 144.4,457.5 145.2,458.5 144.7,457.4 145.2,457.3 145.8,457.8 
		145,457.1 145.3,456.2 143.9,455.8 143.2,455.2 143.5,454.7 142.9,455 142.5,454.3 140.4,453.9 141.2,454.3 140.2,454.4 
		140.3,454.8 141.7,455 141.1,455.2 140.3,455.1 139.2,454.3 139.1,454.6 137.9,454.1 137.1,453.2 137.6,452.3 137.3,451.8 
		136.5,453.2 135.1,453.2 134.3,453.7 134.3,454.3 134.5,453.8 135.4,453.9 135.2,454.3 135.7,454.3 135.8,454.9 136.3,455.1 
		136.1,455.5 135.2,455.5 133.6,453.8 133.6,452.7 134,452.7 134,452.3 134.8,452 134.6,451.7 135.2,451.2 135.6,451.5 135.4,450.7 
		136.5,451.1 135.7,450.8 135.8,450.1 136.9,450.5 136.6,450.2 136.7,449.6 137.6,450.1 137,449.3 137.1,448.8 137.5,448.7 
		137,447.8 136.9,448.7 136.5,449.3 136,449.3 135.2,448.7 136.4,448.5 135.2,448.4 134.6,447.6 136.2,447.9 135.4,447.4 
		135.9,447.6 136.2,447.4 136.1,447.1 136.6,447 136.9,447.6 137.1,447.2 137.8,447.2 138,447.7 138.7,448 138.9,448.6 139,448 
		138.3,447 140.3,447.1 140.5,447.4 140.1,447.6 141.1,448.1 140.7,448.6 141.3,448.8 141.1,449.5 141.5,449.2 141.3,448.4 
		141.9,448.8 142.1,449.4 140.5,450.3 139.3,449.9 140.4,450.5 141.9,449.9 142.2,450.9 142.5,450.6 143.6,451.1 142.2,450.1 
		142.3,449.6 142.8,449.5 143.8,450.3 144,450.8 143.4,452.6 144.4,453 144.5,452.2 144.8,452.4 144.5,451.6 145,450.9 145.6,450.8 
		145.1,450.6 145.1,449.8 145.7,448.7 145.2,448.7 144.5,450.9 144.2,449.2 143.6,448.3 143.8,447.6 144.1,447.5 143.8,447.1 
		144.4,446.2 145.5,446 144.5,445.6 143.5,446.8 142.9,444.3 143.3,444.1 143.5,444.3 143.4,443.8 143.9,443.9 143.7,443.5 
		144.2,443.2 145.9,444.3 146.9,444.5 146.9,444.1 145.5,443.8 143.9,442.8 143.4,443.2 142.6,442.9 142.6,442.5 143.2,442 
		142.3,441.2 142.3,440.7 143.8,440.6 144.2,439.9 145.5,439.1 145.2,437.5 145.6,437.2 145.2,436.1 144.8,437.2 143,435.8 
		141.3,435.3 141.3,434.5 140.9,434.9 140.3,434.5 140.4,434.2 140.7,434.4 140.7,433.9 141.2,434.1 140.8,433.3 141,431.7 
		141.2,432 141.7,431.8 142.2,432 141.7,431 141.7,431.5 141.2,431.6 140.5,431.3 141,430.4 140.2,430.2 139.3,429.2 139.2,428.2 
		140,427.6 139.5,426.7 139.6,426 140.6,426.4 140,425.2 138.9,424.1 138.4,422.1 140.3,422.5 139,421.8 137.7,420.5 137.7,420.2 
		138.9,419.7 140.7,421.7 139,418.1 138.7,418 138.4,418.6 136.9,418.1 136.3,417.6 137.2,416.2 138.3,416.1 139.1,415.6 
		138.5,413.6 138.1,413.6 138.5,415.7 137.4,416.1 135.7,414.6 134.7,414.4 134.2,414.6 134,415.1 134.6,416 133.9,416.7 
		132.1,416.8 130.5,416.4 130.6,415.4 131.3,415.3 131.4,414.6 131.2,415.2 130.3,415.2 129,414.3 126.8,410.4 127.2,410 
		126.8,409.6 126.7,407.9 127.1,407.1 126.4,405.2 126.5,403.9 125.9,402.9 127.1,401.8 127.7,402.4 127.1,400.7 127.5,399.3 
		127.1,397.2 123.5,392 122.9,390.8 122.6,388.2 120.5,385.7 120.1,384.8 120.3,383.8 119.5,382.8 119.6,381.3 120.7,382 
		121.8,381.7 122.1,381.2 121.7,379.1 121.2,378.4 121.5,378.2 121.3,377.2 121.7,377.9 122.4,377.9 122,376.7 122.3,376.5 
		122.5,375 122,372.4 122.9,371 122,369.3 122.7,368.6 122.9,366.8 123.7,365.7 123.5,364.1 123.8,362.4 123.4,360.4 123.6,360 
		123,358.5 123.6,355.5 124.3,355.2 124.3,354.7 124.3,353.7 123.5,352.8 123.6,352 122.6,350.3 123.6,349.6 123.5,345 122.2,343.4 
		121.6,340.2 119.5,335.5 118.2,331.2 118.1,328.5 118.8,328.8 119.2,327.9 119.5,328 119.5,327.3 119.1,326.5 119.7,325.7 
		119.2,324.7 118.8,322.2 118.4,321.3 117.3,320.5 116.7,318.6 116.7,317.9 117.7,316.5 117.5,315.7 118.1,314 117.7,312 
		117.9,308.7 118.7,308.3 117.7,305 118.6,303.6 118.2,302.7 118.6,300.4 118.4,298.9 118.7,298.4 118.4,298.1 118.3,295.9 
		117.4,294.5 117.8,293.1 117.6,292.3 118.7,291.1 118.7,290.2 118.1,289.1 118.2,288.3 117.1,286.1 116.9,284.7 117,281.9 
		116.6,279.5 117.1,277.4 116.4,276.4 116,276.9 115.5,276.8 115.4,274.8 115.5,273.2 115.8,273.1 116,273.6 116.6,273.4 
		117.1,272.2 116.8,264.5 117.2,261 116.1,257.7 116.1,256.7 115.6,256.1 115.4,252.8 115.6,252.1 115,247.9 114.4,246.8 
		114.5,246.1 113.7,244.6 112.8,240.7 112.8,238 112.1,237.3 113.9,237.1 115,236.6 116,234.4 115.3,232.2 116.2,232.1 117.4,230.9 
			"/>
	<polyline class="st0" points="190.4,511.7 190.1,511 190.4,510.6 192.7,511.8 193,511.8 192.4,511.4 193.5,511.7 191.3,510.8 
		190.2,509.8 188.4,509.6 187.8,509 188.2,509.1 187.4,508.6 193,510.8 192.8,510.5 193.2,510.4 192.3,510 192.9,509.5 194.7,511.3 
		195.1,511.2 195.6,511.7 195.5,511.2 194.1,509.8 195.2,510.1 196.4,510.9 196,510.3 196.7,510.3 198.3,511.1 197.9,512.2 
		198.3,512.7 198.1,512.2 198.3,511.6 199.1,511.8 198.7,511 199.7,511.1 198.9,510.6 192.2,508.3 190.4,505.9 194.1,504.1 
		193.6,503 190.5,503 189,503.9 187.4,503.1 186.6,502 186.1,500.5 186.4,500 186.8,500.7 187.6,500.5 187.6,499.7 186.5,499.6 
		186.3,498.9 185.3,498.6 186.7,498.4 188.4,499.1 189.3,498.6 189.5,497.7 189.1,497 189.9,496.5 192.4,498.1 193.3,497.8 
		193.9,497.1 195.2,497.8 202.9,513.4 202.5,513.4 203,513.5 203.2,514.1 201.1,513.4 202.7,514.2 200.8,514.6 197.2,513.7 
		196.9,512.8 196.9,513.2 196.4,512.8 196.8,513.5 196.2,512.9 196.4,513.6 195.6,513.6 194.9,512.6 195.4,513.8 194.9,513.9 
		194.6,513.4 194.5,513.9 193.7,513.8 193.4,512.7 193.2,513.7 191.7,513.3 190.8,513.8 190.5,513.3 191.8,512.8 192,512.3 
		191.4,512.3 191.2,512.6 191.5,512.8 190.4,513.1 189.7,512.9 190.3,512.6 189.4,512.6 189.3,513.3 189.1,512.2 188.5,512 
		188.7,512.5 188.4,512.4 188.1,512.8 187.3,512.5 187.8,512.4 187.2,511.6 186.5,511.5 186.7,511.8 186.4,511.9 186.9,512.1 
		186.6,512.1 186.3,512.7 186,512 185.7,512.4 185.4,512 185.3,512.5 185.1,512.1 184.6,512 184.3,512.4 183.6,512.4 183.3,512.2 
		183.7,511.9 183,511.8 182.8,511.4 183.1,511.4 182.6,511 184.9,511.9 184.3,511.4 185.3,511.7 183.3,510.7 184,510.6 185.2,511.4 
		185.6,511.3 184.6,510.7 186.3,510.9 185.6,510.6 185.9,510.4 187.9,511.4 187.4,510.9 188.5,511.1 188.1,510.2 188.9,510 
		190,510.2 189.7,510.8 189.9,511.8 190.9,512.1 190.4,511.7 	"/>
	<polyline class="st0" points="188.2,514.6 188,514.3 187.8,514.5 187.4,514.1 187.4,513.7 189.8,513.9 190.5,514.4 189.7,514.6 
		189.2,514.5 189.3,514.2 188.3,514 188.2,514.6 	"/>
</g>
<polyline class="st0" points="209.1,328 209.9,328.7 211.8,328.8 212.4,327.4 214.1,327.4 220.3,332.7 220.7,334.9 221.8,334.8 
	222.4,333.8 222.9,333.8 222.8,333.1 223.1,333.1 224.4,334 225.9,336.1 227.1,336.7 227.4,336.3 229,337.6 230.4,337.8 
	231.3,338.7 231.6,339.4 233.9,341.2 234.5,341 236.7,342.3 238.5,345.3 241.9,347.4 239.8,350.6 240.6,354.6 241.7,355.2 
	241.2,356 241.2,357.7 240.1,359.2 240.2,360.2 238.9,361.1 238.2,362.4 237.6,362.5 237.5,361.7 237,361.5 237.2,361.8 237,362.2 
	237.4,362.5 233.6,364.7 232.9,364.1 231.6,364.2 230.6,363.4 228.6,363.2 225.8,364.3 224.8,364.2 224,363.7 224.3,363.3 
	220.8,362.3 218.9,360.8 215.9,360.6 214.4,361 212.3,358.8 211.5,358.5 209.8,356.7 208.9,353.9 209.1,352 208.7,350.7 210,350.3 
	210.4,349 209.7,348.1 208.6,345.3 209,344 208.3,343.1 208.3,341.9 207.7,341 208.7,340.1 208.7,338.6 207.9,337.9 208.6,336.3 
	208.6,334.9 208.2,333.8 208.8,333.4 207.7,330.7 208.9,329.3 209.1,328 "/>
<g>
	<polyline class="st0" points="243.5,96.7 244.4,96.2 245.2,96.2 245.9,96.5 246.2,97.2 245.7,97.7 244,97.9 243,97.4 243.5,96.7 	
		"/>
	<polyline class="st0" points="232.6,100.5 233.8,98.1 234.5,97.7 234.6,98.8 232.6,100.5 	"/>
	<polyline class="st0" points="229.2,108.1 228.8,107.7 229.3,105.8 230.7,105 231.1,102.4 232.6,100.9 233.9,100.8 234.2,101.9 
		233.4,104.5 232,106.2 229.9,107.8 229.2,108.1 	"/>
	<polyline class="st0" points="239.2,97.6 244.3,98.6 246.1,98.7 246.1,98.2 247.6,97.7 249.4,98.4 253,99 252.2,102.4 251.7,102.1 
		251.9,103.5 251.1,104.4 251.3,105 250.2,105.9 250.5,106.1 249.7,108.1 247.7,109.1 246.3,109.4 245.7,109.1 245.3,108.2 
		245.1,109.7 244,110.6 243.7,109.3 243.8,110.2 243.4,110.6 241.7,109.9 240.9,110.4 239.6,110.4 240,110.6 239.5,110.8 
		238.1,110.4 236.6,107.7 236.6,105.2 238.2,105.8 237.9,105.4 238.7,104.7 237.5,105.1 236.8,104.9 236.6,103.8 237,103 
		236.7,101.9 237.1,101 237.4,101.7 238.3,102 237.4,101.5 237.2,99.7 238.1,98.2 239.2,97.6 	"/>
	<polyline class="st0" points="170.1,56.9 172,57.1 173.6,56.4 174.2,56.6 175.2,58 174.7,60.6 173.9,61.7 173.9,62.1 175.8,62.4 
		177,63.2 176.7,64.6 177.2,65 177.2,65.5 178,66.6 176.9,68.4 175.7,69.4 175.9,71 174.9,73.5 174.6,76.2 175.2,78.6 176.3,79.3 
		176.1,82.5 176.9,82.7 176.7,83.3 177.6,83.6 179.6,86.2 181.3,86.6 182.5,87.6 183.1,87 184.5,87 184.7,86.4 184.5,85.6 
		185.4,85.4 185.8,84.5 187.1,85.1 187.9,85.1 188.1,84 189.7,83.6 191,83.7 191.8,82.2 192.7,81.6 193.1,81.8 194.1,81.3 194.7,82 
		196.2,82.4 196.6,82 197.7,82.1 198.3,81.9 201.3,82.7 202.1,82.2 202.1,81 201.2,79.6 200.6,79.4 201.6,78.3 201.8,77.3 
		203.5,78.4 205.8,78.1 206.1,77.5 206.7,77.6 207.4,77.1 207.6,77.4 208.7,76.7 208.5,77.2 209.2,78 210.4,77.9 210.4,78.9 
		211,78.9 212,79.8 213.3,80.3 213.8,80.1 214.3,80.5 214.6,80 215.5,79.7 215.6,79.3 216.8,78.6 216.9,79 218.3,79.5 219.6,78.7 
		220.3,79.5 220,80 222.5,79.9 224.8,77.4 224.8,76.6 226,74.5 226.4,72.5 227.3,71.7 229.3,67.8 231,65.8 231.8,64.3 232.7,66.5 
		231.9,63.9 232,63.1 234.2,65.5 234.4,68.7 234.9,66.8 235.3,72.8 236.6,76.5 236.5,77.7 237.1,78.1 237.5,79.8 237.4,80.3 
		236.8,80.3 236.9,80.8 237.5,80.4 237.9,80.6 239.1,82.7 240.8,82.8 242.5,83.6 242.8,86.5 241.2,87.4 242.6,87.2 242.7,87.7 
		241.1,89.5 240.2,90 236.9,95.2 235.6,95.6 234.6,97.2 233.5,97.9 232.1,100.5 230.5,102.5 230.4,104.5 229,105.8 228.9,107 
		228.1,107.6 226.9,107.1 223.8,108.7 223.7,109 226.6,108.5 227,109.1 226.8,109.7 227,109.7 227.5,109.2 228.8,108.9 230.7,107.5 
		232.2,106.9 232.6,106.3 233.5,106.1 235,104.7 235.3,103.9 235.6,104.1 235.6,103.8 236.3,103.8 236.5,107.6 237.6,110 
		237.5,110.3 237.1,110.2 237.5,110.6 239,111 239.3,111.2 239,111.7 240.4,111.2 240.9,111.5 241,111.1 242.3,110.8 242.9,111.2 
		242.9,112.7 243.3,112.8 243.2,111.4 243.2,111.6 243.4,111.3 245.1,110.9 245.8,110.2 246.1,110.3 246.9,109.9 245.5,114.1 
		245.5,116.3 247.5,111.4 249,110.9 250.7,108.2 251.5,108 252.2,109.2 252.7,109.4 252.4,108.3 254.3,108 252.3,108 252.3,107 
		253.3,106.8 254,105.3 253.6,105.2 253.4,104.3 255.1,102.2 255.8,102.7 257.2,101.7 257.5,102.5 258.6,101.7 259.6,102.9 
		259.6,102.5 259.2,102.3 259.2,101.3 259.8,102 260.3,101.4 260.6,101.9 260.7,101.6 260.9,101.8 260.7,102.2 261.2,102 261,102.6 
		261.3,102.8 261.7,101.9 261.9,103.3 262.6,102.2 262.6,103.7 263.5,102.2 263.7,103.5 264,103.1 264.2,103.4 264.1,103.9 
		264.4,103.2 265,103.4 264.9,103.9 264,104.5 265.1,104.1 265,104.7 265.2,104.4 266,104.7 266.6,104.3 266.9,105.2 267.1,104.7 
		267.4,105.1 267.2,104.6 267.8,103.7 267.4,105.8 268.1,105.4 268.1,105.7 268.4,105 268.4,105.9 268.8,106 269.2,105 269.1,105.9 
		269.5,106.3 269.8,105.5 269.8,106.3 270,106.2 270,106.5 270.2,106 270.3,106.8 271.1,105.4 270.9,106.3 271.2,107.2 271.6,107.2 
		271.7,106.5 271.9,106.9 272.2,106.5 272.4,107.5 273.1,106.6 273.1,107.1 272.2,108.2 272.4,108 272.7,108.5 273.7,106.8 
		273.8,107.5 273.2,108.6 273.6,108.8 273.5,110.1 274.4,109.6 274.2,108.9 274.8,108.1 275.4,108.1 275.4,107.8 276.1,108.6 
		275.7,109 276.1,109 276.2,108.3 276.8,107.7 276.2,109 276.4,109.5 276.7,109.1 277,109.3 277.1,108.8 277.4,110 277.1,110.2 
		277.4,109.8 277.9,110 277.2,110.6 278,110.6 278.3,110 278.6,110.1 278.2,110.8 279.1,110.8 278.7,111.3 279.2,111.3 279.4,112 
		278.6,112.4 279.3,112.5 278.4,113.3 278.7,113.3 278.4,113.8 277.2,114.3 278.2,114.2 277.9,115.2 278.2,114.8 278.3,115.4 
		278.5,114.1 279.6,113.2 280.3,114.7 280,115.2 279,115.1 279.3,115.1 279.3,115.7 278.3,116.6 279,116.2 278.2,119.1 278.1,119.8 
		278.6,120.2 277.5,121.3 277.5,122.1 279.9,119.3 280.3,116.1 280.8,116.5 280.8,115.8 282.2,115.2 282.5,115.3 282.1,115.5 
		282.5,115.8 282.4,116.2 281.8,117.2 281.3,117.2 280.5,118 280.5,118.4 280.6,118.1 280.8,118.4 281.4,117.9 281.4,118.7 
		282.1,117.8 282.3,118.2 282.4,117.3 283.1,116.9 283.2,116.3 283.6,116.9 283.6,116.5 284.5,116.3 284.6,115.7 284.7,116.3 
		285,115.7 285.7,116.2 285.9,115.4 286.2,116.3 286.5,116.3 286.4,115.5 286.7,115.5 286.2,115 287.1,114.9 291.5,116.4 
		292.4,117.2 292.9,117.2 293,117.7 294.5,117.9 294.7,118.5 295.6,118.2 296.6,118.5 296.7,118.1 296.3,117.8 297.3,117.7 
		298.4,118.8 299.9,118.9 300.1,119.3 300.2,119 300.8,119.2 301.4,119.9 301,119 301.2,118.8 302.5,119.1 302.4,118.8 304.2,118.8 
		306.5,118.1 309.8,118.6 311.7,120 312.4,120.1 316.6,122.7 319,124.9 320.3,125.1 320.9,126.4 323.1,129 325.1,130.5 326,131.9 
		328.3,132.8 329.3,134.5 330.8,134.5 332,135.6 333.5,136.1 333.3,135.7 336.3,135.8 337.3,135.4 340.6,136.3 341.4,137.2 
		342.4,139.4 343.3,142.6 343.5,144.1 343.1,144.3 343.8,144.6 344.6,148.7 345.2,149.8 344.9,151.3 345.4,150.3 345.7,151.9 
		345.6,154.5 344.9,154.7 345.4,154.7 345.7,155.2 345.5,155.6 345.2,155.2 345.1,156 345.3,156 345.1,156.5 345.6,157.1 345.6,158 
		345.4,158.6 345,158.4 345.2,158.9 344.9,160.7 344.4,161.2 344.7,161.5 343.6,165.3 342.6,167.3 340.1,170.8 339.7,171 
		339.4,170.2 339.5,170.8 339,171.3 338.4,170.3 339,171.5 339.4,171.3 335.5,177.3 334.5,177.6 332.6,179 331.5,180.5 331.5,179.6 
		331.1,179 330.6,179.1 331,179.5 330.7,179.7 331.4,179.8 331.2,180.8 330.7,181.7 329.8,181.3 330.6,181.9 330.7,182.5 
		329.6,184.2 329.2,184.1 329.9,183 329.5,182.5 329.6,183 329,184.1 328.7,183.9 329.2,184.5 328.6,185 329.3,184.6 327.6,189 
		325.5,193.1 323.5,195.8 322,196.5 322.4,195.8 322.1,194.3 321.4,194.1 320.8,193.1 320.1,195.1 319.7,194.5 319.7,193.7 
		319.4,194.4 319.8,195.2 320.7,195.4 320.5,196.3 319.7,196.9 320.3,197.5 319.4,198.2 319.3,199.2 318.7,199 318.4,201 
		318.8,200.1 319.4,201.4 319.3,202.8 318.6,201.8 318.2,202 319.3,202.9 318.8,203.1 319.5,204.4 318.9,204.6 319.1,205.2 
		319,204.9 319.6,204.5 319.4,203.4 319.8,203.3 319.2,209 320.5,217 321,218.2 320.3,221.5 319.4,228.2 319.7,231.4 320.2,232.2 
		319.3,233.7 318.3,234.2 317,236.5 316.6,240.1 317.3,245.4 316.8,247.2 315.5,248 314.7,249.6 314.3,252.1 313.4,251.8 
		313.5,252.4 314.1,252.5 313.3,254.6 312,256.3 311.1,256.5 310.7,258.3 310,259.5 310,260.4 309.5,261.6 309.9,262.4 310.4,265.3 
		309,266.3 305.9,267.5 304.2,269.4 304.1,270.8 304.9,271.1 304,272.2 304.1,272.8 301.4,272.5 297.3,272.7 296.7,272.4 
		297.3,270.9 297.3,270.5 296.9,270.4 295.7,271 296.6,272.5 296.1,273 291.1,273.7 291.2,273.3 293.6,273.1 291.8,272.2 
		290.8,272.8 290.7,272.5 289.9,273.3 289.4,273.3 289.4,272.9 288.7,273 288.7,272.3 288.2,272.5 288.1,273 286.6,273.3 
		286.5,274.6 287,274.5 286.6,274.8 287,274.7 286.9,275.2 287.4,274.7 287.9,275.1 287.5,275.6 285.8,275.9 285.3,275.6 
		284.4,276.1 284.7,276.5 284.3,276.9 283.8,276.7 283.4,277.4 282.1,277.8 282.2,279.3 279.4,278.8 278.6,279 277.4,279.5 277,280 
		277.7,279.6 277.4,280.6 276.6,280.8 276.4,280 275.9,279.6 275.5,280.1 276,280.8 275.4,280.9 272.7,282.6 272.3,283 272.2,283.7 
		270.9,284.9 268.4,286.3 267.1,287.5 266.4,288.7 266.1,288.6 266.3,288.4 265.8,288.6 266.9,288.7 266.8,289.4 265.1,291.8 
		264.9,291.7 264.9,290.9 265.5,290.4 264.7,290.7 264.5,290.5 264.3,291 264.2,290.1 263.9,290.6 263.4,290.2 263.5,290.7 
		263.2,290.8 263.8,291.5 263.4,291.9 262.3,291.8 261.6,291 261.9,292.1 262.4,292.1 262.6,292.4 263.2,292.2 263.4,292.7 
		264.2,292.7 263.3,294.7 262.9,294.4 263,294.8 261.8,295 263.2,294.9 263,296.3 263.3,297.3 262.8,297.8 262.4,297.6 261.8,296.5 
		262.2,297.5 262.1,298.3 263.4,299.3 263.2,301.2 263.9,301.9 263.7,302.6 264.2,303.7 264.1,304.4 264.3,304.8 264.7,304.5 
		265,304.8 264.9,305.3 264.6,305 264.1,305.4 264.7,306.4 264.2,307.2 264.8,308.1 264.4,308.6 265.1,310.3 265.1,313 264.5,315 
		264.2,314.1 263.6,313.9 263.9,314.9 264.6,315.3 264.3,315.9 263.5,316.3 261,318.7 259.1,321.8 257.7,325.1 256.8,330.1 
		254.1,336 251,339.8 248.6,341.5 247.7,343.2 247.7,341.5 247.1,340.6 248.7,340.9 248.8,340.4 249.8,340.1 250.7,338.7 251,339 
		250.9,338.1 251.4,338.3 252,337.9 252.4,336.8 252.1,334.9 253,334.7 253.3,335.3 253.5,334.9 253.2,334.6 253,333.5 254.5,332.5 
		254.6,331.2 254,329.4 254.6,329.6 254.8,330.2 255.1,330.1 255.1,328.8 254.5,328 254.1,328.3 254.2,328.8 252.7,329 252.7,329.9 
		252,329.5 251.9,328.6 250.4,328 250.3,326.9 249.9,326.7 249.9,328.3 250.3,328.8 250.8,328.8 251,329.4 251.6,329.3 251.5,329.7 
		250.9,329.7 250.6,330.5 251,332.6 250.2,331.5 250.6,333.3 250,333.4 249.8,333.7 250.2,334.9 249.2,335.3 249.2,336.2 
		248.2,336.3 247.3,336.8 247.4,339.1 246.8,338.6 247.1,339.2 246.2,339.9 246.1,340.7 247,341.4 246.4,341.7 246.4,342.3 
		246.7,342.6 247.5,342.2 247.1,342.7 247.5,342.5 247.6,343.1 246.8,343.9 246.2,345.7 245.5,350.6 244.6,352 241.7,355.2 
		240.6,354.6 239.8,350.6 241.9,347.4 238.5,345.3 236.7,342.3 234.5,341 233.9,341.2 231.6,339.4 231.3,338.7 230.4,337.8 
		229,337.6 227.4,336.3 227.1,336.7 225.9,336.1 224.4,334 223.1,333.1 222.8,333.1 222.9,333.8 222.4,333.8 221.8,334.8 
		220.7,334.9 220.3,332.7 214.1,327.4 212.4,327.4 211.8,328.8 209.9,328.7 209.1,328 210.6,326.5 210.6,325.2 211.7,324.8 
		212.4,323.8 213.8,321.5 214.1,320.2 215.2,319.5 215.2,318.7 215.8,318.1 215.7,317.3 216.3,317.1 217.3,315.9 217.2,315.2 
		217.9,314.8 217.8,314.1 218.8,314 219.2,314.4 219.2,313.7 218.5,313 219.4,312.2 219.7,312.4 220,311.9 220.4,311.9 221,310.7 
		221.8,310.2 222.9,310.1 222.4,309.6 223,309.7 223.5,309.2 223.4,308.4 223.9,307.7 224.7,307.8 225.2,307.1 226.2,307.2 
		226.1,306.7 226.7,307.1 226.8,306.7 227.2,306.9 227.7,305.5 228.2,305.8 229.1,304.8 230,304.7 230.5,302.8 229.9,301.4 
		229.8,298.8 230.1,297.9 228.7,295.5 228,293.2 227.6,293.2 227,292.5 226.5,292.8 226.4,292.1 225.8,292.4 226,292.7 224.6,292.8 
		224.4,293.5 224.1,293.1 223.2,292.7 223,291.7 223.9,289.4 223.7,288.4 224.2,285.5 224,284.4 224.4,283.4 223.6,281.7 224.2,281 
		221.4,279.1 218.9,280.6 217.9,280.8 216.4,280.3 216,278.5 215.3,277.5 214.8,274.1 214.1,272.9 214,270.2 213.2,269.6 
		212.9,268.4 212.1,267.6 209.7,267.4 208.6,266.5 208.3,265.8 207.6,266 206.8,267.3 206.4,266.9 205.6,267.6 205.2,267.1 
		203.8,267.1 203,266.7 200.4,266.7 200,266.1 198.9,266.4 197.8,266 198.1,262.9 197.5,261.5 198,260.3 197.7,259.8 198,259.2 
		198,257.5 197.3,256.9 197.6,256.4 197,256 197.5,255.6 197.1,255.1 196.7,255.4 196.4,253.4 195.8,252.9 195.6,252.1 195.3,252.1 
		195.1,251.3 197,249.8 195.1,247.9 196.8,242.8 197.2,242.4 196.8,241.4 197.7,236.6 198.3,236.4 196.4,233.6 195.8,231.5 
		195,230.7 194.1,230.8 191.3,228.7 190.4,224.6 191.1,223.2 191.1,221.6 190.4,221.9 178.9,221.3 177.8,215.3 175.4,212.5 
		177.1,212.3 177.3,211.8 176.9,208.9 175.3,205.4 175.8,203.9 175.1,202.6 172.1,201 171,200 169.9,200.4 169.1,200.1 168.1,200.6 
		167.5,200.2 165.8,200.5 163.8,198.3 163.7,197.5 161.7,197.4 159.8,196.1 159.2,196.4 157.6,195.1 157,193.7 155.4,194.1 
		154.3,193 152.8,192.3 151.6,192.3 151.2,192.9 149.2,192.3 148.9,192.5 147.4,191.5 147.3,190.5 146.3,190.2 145.9,189.5 
		145.6,189.8 145.1,188.9 143.8,188.7 143.2,186.8 142.8,186.4 142.7,186.9 142.2,186.6 142.4,185.7 141.9,184.9 141.3,184.7 
		141.2,183.6 140.7,183.1 140.6,182.3 141.2,180.8 141,179.9 140.4,179.5 140.5,178.6 140.1,178.1 140,177 140.9,175 140.5,173 
		140.7,172.2 140.1,171 139.7,170.9 138.8,172.1 137.4,171.3 137.3,171.7 135.5,171.7 131.8,172.6 128.9,175.4 128.3,175.8 
		127.3,175.8 127.3,176.2 125.6,177.2 124.9,178.7 123.9,178.4 122.5,178.5 121.2,180.9 119.2,181.8 118,182.1 117.8,181 
		117.1,181.1 113.7,180.5 112.5,180.6 111.4,180.7 110,180.4 107.4,181.5 106,180.5 105.4,181.1 104.8,172.1 105.4,171.3 104.8,170 
		105.4,169 104.8,169.2 102.3,171.9 100.4,173.3 94.4,173.4 94.4,172 93.7,171.4 93.4,169.8 93,169.5 90.5,168.9 87.3,168.8 
		88.8,166.8 88.7,165.6 87.2,163.5 86,162.7 85.9,161.7 84.6,160.8 83.8,158.3 82.8,157.3 83.2,157 83.3,156.4 82.4,156 81.1,154.5 
		81.6,153.9 81.3,153 81.8,153.2 83.1,152.7 82.3,151.2 82.7,149.4 85.2,147.2 86.1,147 86.6,146.4 86.7,145.6 85.9,143.4 
		87.5,140.1 87.8,136.1 89.6,135.4 91.1,134.1 91.3,133.5 92.3,133.1 94.5,131.3 98.2,130.8 98.7,130.3 99.1,130.5 99.3,130.2 
		99.7,130.4 100.5,130 100.8,130.3 101.9,128.6 102.6,128.7 102.9,128.3 103.3,128.8 103.6,128.5 103.8,128.7 105,128.5 
		105.2,129.3 105.9,129.9 106.5,129.4 107.2,129.9 107.5,129.2 110.9,106 110.5,104.4 109.2,102.4 109.5,101.6 109.2,100.6 
		107.2,99.2 106.2,97.9 106.4,92.3 108,92.1 108.9,91.5 109.3,91.8 110.3,91.1 111,91.8 112.6,91.8 112.2,91.2 112.5,90.1 
		111.6,88.8 108.3,88.4 107.7,88.6 107.8,83.6 109.8,83.1 111,83.5 119.2,83.5 118.4,82.7 119,81.3 119.7,81.9 120.2,83.2 
		120.8,83.4 121.6,83 122.8,81.3 124.3,80.3 124.8,80.6 126.5,84.3 126.5,87.7 127.9,87.4 131.6,91 132.8,91.1 135.5,89.2 
		136.5,89.2 137.1,89.9 136.5,91.2 137,91.8 137.5,91.4 138.3,89.8 139.2,89.6 139.7,88.1 140.4,88.1 141.8,87 142.4,87.2 
		144.7,85.2 145,86.3 146.8,84.3 147.2,82 148.9,81.6 150.1,80.6 151.5,80.3 151.7,78.2 148.7,78.2 147.2,77.8 147.5,75.8 
		146.1,72.8 146,70.4 146.3,69.3 143.4,66.3 142.9,65 142.4,64.6 142.4,63.9 143.3,64.2 143.8,65.2 145.5,64.9 146.9,65.3 147.6,67 
		148.7,66.4 150,66.5 151.1,67.2 151.6,66.4 152.1,66.4 154.5,69.2 155.2,69.5 156.2,68.6 155.9,66.8 156.2,65.8 157.5,65.9 
		157.6,65.2 158.3,64.7 160.2,65.4 161.3,64.8 162,64.9 163,64.2 164.3,64.2 164.7,63.1 166.1,62.7 166.1,62.1 167,62.3 168.2,62.1 
		168.9,60.7 170.1,60.1 171,58.9 170.6,57.1 170.1,56.9 	"/>
	<polyline class="st0" points="241.5,96.7 239.6,96.6 239.3,95.3 240.8,95.1 241.7,94.5 243.9,94.2 244.5,94.6 244.4,95.1 
		243.2,95.9 242.4,97.1 242,97.3 241.5,96.7 	"/>
	<polyline class="st0" points="236.2,98.9 235.1,98.4 235.4,97.5 237.8,96.8 238.1,97.3 236.2,98.9 	"/>
</g>
<polyline class="st0" points="188.4,244.5 194.9,248.8 195.1,251.3 195.3,252.1 195.6,252.1 195.8,252.9 196.4,253.4 196.7,255.4 
	197.1,255.1 197.5,255.6 197,256 197.6,256.4 197.3,256.9 198,257.5 198,259.2 197.7,259.8 198,260.3 197.5,261.5 198.1,262.9 
	197.8,266 198.9,266.4 200,266.1 200.4,266.7 202.2,266.9 203,266.7 203.8,267.1 205.2,267.1 205.6,267.6 206.4,267 206.8,267.3 
	207.6,266 208.3,265.8 208.6,266.5 209.7,267.4 212.1,267.6 212.9,268.4 213.2,269.6 214,270.2 214.1,272.9 214.8,274.1 
	215.3,277.5 216,278.5 216.4,280.3 217.9,280.8 218.9,280.6 221.4,279.1 224.2,281 223.6,281.7 224.4,283.4 224,284.4 224.2,285.5 
	223.7,288.4 223.9,289.4 223,291.7 223.2,292.7 223.4,293.2 223,293.4 223.5,294.5 223.6,295.6 223.2,295.8 223.6,297.4 
	223.5,299.3 222.9,300 223.1,300.8 222.3,301.1 222.1,301.9 221.1,302.6 221.1,303.2 219.3,303.5 219.2,304.3 218.3,304.9 
	218.5,306.2 217.7,307 216.6,306.1 215,306 214.2,306.6 214.2,307.2 213.7,308.1 212.4,307.1 211.2,307.5 210.2,306.8 208.6,307.3 
	202.9,305.7 198.8,306 198.3,304.8 199.1,304 199.2,303.2 200.2,302.7 199.9,302.3 200.4,302.1 200.5,301 200.8,300.9 200.4,299.2 
	200.5,298.1 200.9,297.7 200.5,297.4 202.2,295.9 201.9,295.6 202.7,293.9 202.6,293.5 203.6,292.7 203.6,291.7 202,289.6 
	198.8,287.8 198.1,288.3 197.2,287.2 194.9,286.7 186,280.8 184.4,280.9 182.3,280.2 182,279.9 179.3,279.2 178.4,277.6 
	175.7,276.1 175.5,275.6 174,274.9 173.8,274.3 172.1,273 170.4,270.1 170,270 169.9,269.4 167.3,267.7 167.1,267.1 168.6,258.1 
	168.3,254 170.1,250.6 171.1,247.2 178.2,245.8 182.1,244.6 188.4,244.5 "/>
<polyline class="st0" points="132.1,172.6 135.5,171.7 137.3,171.7 137.4,171.3 138.8,172.1 139.7,170.9 140.2,171.1 140.7,172.2 
	140.5,173 140.9,175 140,177 140.1,178.1 140.5,178.6 140.4,179.5 141,179.9 141.2,180.8 140.6,182.3 141.2,183.6 141.1,184.2 
	142.4,185.7 142.2,186.6 142.7,186.9 142.8,186.4 143.2,186.8 143.8,188.7 145.1,188.9 145.6,189.8 145.9,189.5 146.3,190.2 
	147.3,190.5 147.3,191.4 148,192.2 151.2,192.9 151.6,192.3 152.8,192.3 154.3,193 155.4,194.1 157,193.6 157.6,195.1 159.2,196.4 
	159.8,196.1 161.7,197.4 163.7,197.5 163.8,198.3 165.8,200.5 167.5,200.2 168.1,200.6 169.1,200.1 169.9,200.4 171,200 172.1,201 
	175.1,202.6 175.8,203.9 175.3,205.4 176.9,208.9 177.3,211.8 177.1,212.3 175.4,212.5 177.8,215.4 178.9,221.3 190.4,221.9 
	191.1,221.6 191.1,223.2 190.4,224.6 191.3,228.7 194.1,230.8 195,230.7 195.8,231.5 196.4,233.6 198.3,236.4 197.7,236.6 
	196.8,241.4 197.2,242.4 196.8,242.8 195.1,247.9 197,249.8 195.1,251.3 194.9,248.8 188.4,244.5 182.1,244.6 178.2,245.8 
	171.1,247.2 170.1,250.6 168.3,254 168.6,258.1 167.1,267.1 166,266.3 165.8,265.3 158.3,265.3 156.7,269.6 156.5,272 154.1,266.9 
	151.3,266 146.4,266.1 145,264.8 142.9,263.6 142.7,265.9 140.2,266.9 139.8,268.5 138.4,269.3 138.4,270.2 137.5,271.6 
	134.8,272.2 133,271.6 132.9,269.5 132,267.9 131.8,266.1 130.8,265 130.4,263.4 129.8,262.3 129.4,259.9 127.6,257.2 126.7,256.8 
	126.5,255.5 127.1,254.9 125.4,253.8 124.9,253.1 125.3,252.4 125,251.1 124.4,250.7 125.8,250.4 126,249.3 125.8,248.8 
	124.7,247.9 126.1,245.6 122.8,242.8 122.2,241.9 122.3,241.4 121.4,238.3 120.3,235.8 120.7,234.9 119.2,234.5 118.9,233.3 
	117.7,231.9 117.4,230.9 117.3,229.9 116.2,229.2 116.3,228.5 117.7,227.4 117.6,227.2 119,224.9 119.9,224.4 119.7,223.6 
	120.9,223.9 120.8,223 120.2,222.7 121.3,222.6 121.9,222.1 121.6,221.9 121.8,221.7 122.5,221.9 122.5,221.2 121.1,220.8 
	120.8,221 120.2,219.8 121,219.1 119.4,218.8 119.1,217.8 118.1,217.1 118.2,216.9 117.5,216.8 116.7,215.7 117.2,214.2 118,213.4 
	116.2,211.4 116.2,210.2 116.9,209.7 116.9,208.5 117.4,208.4 117.4,207.8 118.4,206.9 118.3,205.8 119.2,205.5 118.8,204.3 
	118.2,203.7 117.8,202.1 117.3,201.5 117.7,201.3 118,200.2 117.5,195.3 118.1,194.5 118.9,194.1 118.7,193.5 119.3,192.5 
	112.5,180.6 113.7,180.5 117.1,181.1 117.8,181 118,182.1 119.2,181.8 121.2,180.9 122.5,178.5 123.9,178.4 124.7,178.8 
	125.5,177.4 126.7,176.3 127.3,176.2 127.4,175.8 128.3,175.9 132.1,172.6 "/>
<polyline class="st0" points="8,94.7 7.6,94.3 8,94 8.6,94.3 8,94.7 "/>
<polyline class="st0" points="0.4,96.7 1.2,96 2.4,95.7 3.1,96.9 3.4,98.6 4.8,100.1 4.6,101.1 6,102.4 5.1,104.1 3.4,104.7 
	2,104.6 1.3,103.9 1.5,102.9 2.4,102 3.5,102 4,101.3 1.8,98.5 1.6,96.9 0.8,97.2 0.4,96.7 "/>
<polyline class="st0" points="47.1,85.7 48.8,87.5 49.6,87.6 49.7,88 50.4,87.6 50.8,88.3 50.7,88.7 52,89.8 53.2,90 53.6,90.5 
	54.7,90.3 55,91.2 56.2,91.8 56.7,93.8 57.9,94.2 58.6,94 60.2,94.9 61.1,94.9 61.3,94.6 62.3,95.1 63.2,94.8 63.3,93.8 64.2,93.6 
	65.8,94.2 66.5,95.4 67.7,96.4 68.7,96.4 70.9,97.7 69.9,98 68.6,97.7 68.6,98.1 69.6,98.5 70.1,100 71.1,100.8 70.9,102.4 
	71.3,104.1 70.6,104.2 70.1,103.8 69,108.6 65.6,113.2 61.8,116.5 53.8,119.6 51.6,122.5 51.9,123.4 51.5,123.6 51.3,122.8 
	50.6,122.7 50.2,125.7 49.7,127 49.4,127.2 48.6,129.8 48.9,130.7 48.7,131.6 47.3,132.6 47.2,133.9 46.7,134.1 46.3,135 
	44.6,134.7 43.5,133.5 43.1,131.4 42.1,130.7 40.9,131.1 38.7,129.6 37.2,131 36.4,130.7 37.3,128.9 36.4,129 36.2,128 36.4,127.4 
	37.5,127.5 38.5,126.5 38,125.5 37.7,123 37.1,122.6 37.3,122.3 37.3,122.6 37.4,122.3 38.4,122.2 39,121.4 39.2,121.8 39.7,121.2 
	41.1,116.6 40.3,115 40,113.3 40.7,112.2 39.9,113.1 39.9,116.3 39.2,116.7 38.8,116.4 39.2,115.7 39.7,115.9 39,115.7 39.4,114.5 
	39,114.7 38.1,116.5 37.4,116.8 37.5,117.7 36.1,116.9 34.6,115.1 33,114.5 32.3,113.4 32.9,113.6 33.8,113 34.2,111.6 33.3,109 
	33.9,106.8 32.8,104.7 33.3,103.9 35,103.7 36.2,101.1 36.4,101.6 37.2,101.5 36.4,101.4 35.6,99.7 38.5,96.3 38.7,94.1 38.9,94.2 
	39,93.9 38.7,93 38.8,92.3 38.2,91.5 38.6,90.5 39.9,90.1 41.3,89.2 41.6,90.3 41.5,89.2 42.8,88.5 44.5,88.4 45.4,87.4 45.9,88.2 
	46.1,87.4 47,87 46.6,86.6 47.1,85.7 "/>
<polyline class="st0" points="9,102.7 7.7,102.1 7.6,101.6 8,100.8 9.5,100.5 10.1,101 10,101.8 9,102.7 "/>
<polyline class="st0" points="1.2,100.5 0.4,100.3 0,99 1.3,98.7 1.8,99.1 1.8,100.2 1.2,100.5 "/>
<polyline class="st0" points="8.4,107.1 7.9,106.8 8.1,106.1 8.9,106.5 8.4,107.1 "/>
<polyline class="st0" points="13.9,107.5 13.1,107.2 13.7,107.1 13.9,107.5 "/>
<polyline class="st0" points="7.2,99.6 5.7,99.3 5.4,98.8 5.8,98 7.3,98.6 7.6,99.1 7.2,99.6 "/>
<polyline class="st0" points="14.5,104.1 13.9,103.6 15.3,102.3 16.3,102 15.3,103.8 14.5,104.1 "/>
<g>
	<polyline class="st0" points="70.9,97.7 71.7,97 73.7,98.5 74.4,98.4 74.8,99.5 76.9,100.9 77.3,102.5 78,103.4 77.6,103.7 
		78.1,104.6 79.1,104.9 79.5,104.8 79.6,105.4 80.6,105.7 80.7,106.4 81.3,106.6 81.5,106.3 82.6,107.3 83.4,109 83.1,110.1 
		83.7,110.8 84.5,111.1 85.1,110.6 85.6,111 86.1,113.1 85.6,113.9 85.7,114.5 86.5,115.2 87,115.1 87.4,115.9 88.3,115.4 
		89.1,115.8 89.4,115.2 91.9,115.9 92,115.5 92.7,115.6 93.1,114.9 94,115 94.6,113.9 95.3,113.3 95.5,113.8 96.6,113.9 96.9,114.7 
		97.3,114.3 97.8,115.1 100.1,114.4 100.2,113.8 101,113.8 102.3,114.8 103,115.8 103.3,115.4 104.1,116 104.9,115.9 104.6,116.5 
		105.3,116.4 106.1,117.4 106.4,117.2 106.5,117.7 102.5,125.8 103.6,126.3 104.9,125.9 107.5,129.2 107.2,129.9 106.5,129.4 
		105.9,129.9 105.2,129.3 105,128.5 103.8,128.7 103.6,128.5 103.3,128.8 102.9,128.3 102.6,128.7 101.9,128.6 100.8,130.3 
		100.5,130 99.7,130.4 99.3,130.2 99.1,130.5 98.7,130.3 98.2,130.8 94.5,131.3 92.3,133.1 91.3,133.5 91.1,134.1 89.6,135.4 
		87.8,136.1 87.6,140 85.9,143.4 86.7,145.6 86.6,146.4 86.1,147 85.2,147.2 82.7,149.4 82.3,151.2 83.1,152.7 81.8,153.2 81.3,153 
		81.6,153.9 81.1,154.5 82.4,156 83.3,156.4 83.2,157 82.8,157.3 83.8,158.3 84.6,160.8 85.9,161.7 86,162.6 87.2,163.5 88.7,165.6 
		88.8,166.8 87.3,168.8 90.5,168.9 93,169.5 93.4,169.8 93.7,171.4 94.4,172 94.4,173.4 100.4,173.3 102.3,171.9 104.8,169.2 
		105.4,169 104.8,170 105.4,171.3 104.8,172.1 105.4,181.1 106,180.5 107.4,181.5 110,180.4 111.4,180.7 112.5,180.6 119.3,192.5 
		118.7,193.5 118.9,194.1 118.1,194.5 117.5,195.3 118,200.2 117.7,201.3 117.3,201.5 117.8,202.1 118.2,203.7 118.8,204.3 
		119.2,205.5 118.3,205.8 118.4,206.9 117.4,207.8 117.4,208.4 116.9,208.5 116.9,209.7 116.2,210.2 116.2,211.4 118,213.4 
		117.2,214.2 116.7,215.7 116.6,215.3 116.2,215.5 115.4,214.6 114.7,214.3 114.3,213.6 113.9,213.6 114.1,214 113.2,213.9 
		113.6,214.4 112.7,214.8 114.2,217.2 113.6,217 112.9,216.1 112.8,217.1 112.3,217.2 112.5,218.1 114,218.7 113.6,218.3 
		113.9,217.7 115,219.2 116.6,219.4 116.8,219.9 116.4,220.9 117.1,220.8 117.8,221.5 119,221.1 120,221 119.7,221.4 119.2,221.3 
		119.6,222 119.2,223 119.7,223.6 119.9,224.4 119,224.9 117.6,227.2 117.7,227.4 116.3,228.5 116.2,229.2 117.3,229.9 117.4,230.9 
		116.2,232.1 115.3,232.2 116,234.4 115,236.6 113.9,237.1 112.1,237.3 108.1,234 105,232.3 104.7,230.2 103.9,229.3 101.6,228.5 
		100.4,227.4 99.5,227.2 98.2,226.1 97.6,225.1 94.7,224.2 90,221.5 88.2,221.1 85.6,219 83.6,218.2 82.5,217.2 77.5,214.5 
		77.7,214.2 77.1,213.7 77.2,213.4 76.2,212.8 75.1,211.1 72.1,209.1 71.5,207.6 70.4,206.6 70.3,205.8 69.6,205.2 69.3,205.4 
		69,203.3 68.4,203 68.8,202.4 69.2,202.9 69.4,199.7 67.2,196.8 66.8,195.3 64.7,192.5 64.6,191.6 63,190.3 62.7,189.5 62,189.2 
		62.1,188.6 61.5,186.1 60.3,184.5 58.2,183.2 58.5,182.5 57.8,180.5 54,174.3 53.5,171.8 52.6,170.5 51.9,168.3 51.3,167.7 
		51.4,167.1 51.1,167 50.9,167.5 50.7,167.1 51,166.6 49.5,164.1 49.4,162.6 48.2,161.4 48.3,160.9 47.7,159.7 45.2,157.2 
		43.5,154.1 43,152.4 40.5,148.6 35.9,145.3 32.2,143.5 32.3,141.7 32.7,141.2 33.3,141.7 33.8,141.6 34.1,140.1 33.5,138.4 
		31.8,136.6 31.9,135.6 32.5,135.2 30.6,132.7 30.9,129.7 33.6,126.5 33.9,125.6 35.3,124.5 35.8,123.7 36.9,123.3 37.1,122.6 
		37.7,123 38,125.5 38.5,126.5 37.5,127.5 36.4,127.4 36.2,128 36.4,129 37.3,128.9 36.4,130.7 37.2,131 38.7,129.6 40.9,131.1 
		42.1,130.7 43.1,131.4 43.5,133.5 44.6,134.7 46.3,135 46.7,134.1 47.2,133.9 47.3,132.6 48.7,131.6 48.9,130.7 48.6,129.8 
		49.4,127.2 49.7,127 50.2,125.7 50.6,122.7 51.3,122.8 51.5,123.6 51.9,123.4 51.6,122.5 53.8,119.6 61.8,116.5 65.6,113.2 
		69,108.6 70.1,103.8 70.6,104.2 71.3,104.1 70.9,102.4 71.1,100.8 70.1,100 69.6,98.5 68.6,98.1 68.6,97.7 69.9,98 70.9,97.7 	"/>
</g>
<polyline class="st0" points="208.1,52.1 208.4,51.7 209.8,51.9 208.9,51.8 208,51.3 207.9,51 208.6,50.8 210.6,50.9 215.5,52.2 
	215.7,52.7 215.3,54.4 214.5,55.8 212.5,58.3 212.2,60.3 212.5,60.7 212.6,64.6 213.1,65 212.9,65.8 215.3,69 215.2,70.3 
	213.8,72.8 214.1,74.1 213.8,75.4 212.6,77.7 211.8,78.2 211.6,78.8 211,78.9 210.4,78.9 210.4,77.9 209.2,78 208.5,77.2 
	208.7,76.7 207.6,77.4 207.4,77.1 206.7,77.6 206.1,77.5 205.8,78.1 203.5,78.4 201.8,77.3 201.6,78.3 200.6,79.4 201.2,79.6 
	202.1,81 202.1,82.2 201.3,82.7 198.3,81.9 197.6,81.2 196.8,81.1 194.2,75.7 193.5,75.1 192.9,70.9 192.2,70.9 191.7,71.2 
	190.6,71 190.5,69.7 189.3,68.6 189,67.4 188,65.9 187.8,64.8 188.6,63.9 188.6,63.1 189.5,61.1 189,59.8 190.6,58.4 193.3,58.3 
	193.1,57.9 193.3,57.2 194,57.1 193.1,56 193.7,54.7 194.3,54.2 195,51.2 195.7,50.8 199.1,51.2 202,52.2 202.8,52.5 202.8,53.3 
	202.7,51.7 203.4,51.1 206.3,51 208.1,51.7 208.1,52.1 "/>
<polyline class="st0" points="215.6,53.8 216.1,52.7 216.6,52.7 219.2,54.1 222.8,55 226.2,58.5 226.4,59.2 226.8,58.8 227.1,59 
	226.7,60.5 227.5,59.5 228.8,60.8 229.3,62.8 228.7,63.5 229.4,63.1 229.6,61.1 230.3,61.4 231.2,64.5 231,65.8 229.3,67.8 
	227.3,71.7 226.4,72.5 226,74.5 224.8,76.6 224.8,77.4 222.5,79.9 220,80 220.3,79.5 219.6,78.7 218.3,79.5 216.9,79 216.8,78.6 
	215.6,79.3 215.5,79.7 214.6,80 214.3,80.5 213.8,80.1 213.3,80.3 212,79.8 211,78.9 211.6,78.8 211.8,78.2 212.6,77.7 213.8,75.4 
	214.1,74.1 213.8,72.8 215.2,70.3 215.3,69 212.9,65.8 213.1,65 212.6,64.6 212.5,60.7 212.2,60.3 212.5,58.3 214.5,55.8 
	215.2,55.2 215.6,53.8 "/>
<polyline class="st0" points="176,31.4 177,32.7 179.6,34.4 177.5,32.7 177.6,32.3 181.7,35.1 184.3,38.5 184.7,38.5 185.9,40.4 
	185.8,42.9 185.2,43.7 184.7,46.9 184.2,47.9 184.8,47.6 185.1,45.9 185.8,44.5 186.8,43.9 187.8,44.6 189.1,44.8 191.4,47.2 
	192,48.7 192.4,48.2 194.1,49.6 194.5,51.1 194.2,53.8 193.7,54.7 193.1,56 194,57.1 193.3,57.2 193.1,57.9 193.3,58.3 190.6,58.4 
	189,59.8 189.5,61.1 188.6,63.1 188.6,63.9 187.8,64.8 188,65.9 189,67.4 189.3,68.6 190.5,69.7 190.6,71 191.7,71.2 192.2,70.9 
	192.9,70.9 193.5,75.1 194.2,75.7 196.8,81.1 197.6,81.2 198.3,81.9 197.7,82.1 196.6,82 196.2,82.4 194.7,82 194.1,81.3 
	193.1,81.8 192.7,81.6 191.8,82.2 191,83.7 189.7,83.6 188.1,84 187.9,85.1 187.1,85.1 185.8,84.5 185.4,85.4 184.5,85.6 
	184.7,86.4 184.5,87 183.1,87 182.5,87.6 181.3,86.6 179.6,86.2 177.6,83.6 176.7,83.3 176.9,82.7 176.1,82.5 176.3,79.3 
	175.2,78.6 174.6,76.2 174.9,73.5 175.9,71 175.7,69.4 176.9,68.4 178,66.6 177.2,65.5 177.2,65 176.7,64.6 177,63.2 175.8,62.4 
	173.9,62.1 173.9,61.7 174.7,60.6 175.2,58 174.2,56.6 173.6,56.4 172,57.1 170.1,56.9 165.8,51.2 166.8,49.9 167.8,49.2 
	167.5,48.2 167.7,47.4 167.2,46.3 167.7,45.4 169.1,45.2 169.4,44.6 170.6,44.9 173,43.6 173.5,42.6 173.6,42.2 173.1,41.8 
	172.4,41.7 171.9,42.2 171.4,41.6 171.6,40.6 170.8,39 171.7,38.2 172.2,36.9 173.3,36.7 174.2,35.7 175.7,35.1 176.2,34 177,33.6 
	177.1,33.1 176,31.4 "/>
<polyline class="st0" points="94.3,6 95,5.5 95.8,4.1 95.8,3 97,2.8 96.7,3.3 97.1,3.6 97.7,3.1 97.6,2.7 97.2,2.6 98.1,2 98.2,2.4 
	98.8,1.7 99,2 99.4,1.6 98.7,1.6 99.2,1.3 100.2,1.4 102.1,2.5 102.7,4.4 101.1,5.9 96.7,7.4 94.5,11.3 92.9,11.5 89.8,16.7 
	89,21.6 86,26.4 87.1,26.4 88.5,25.5 88.9,27 89.5,26.7 90,26.9 90.6,30.4 92.3,32.6 92.7,34.6 92.6,35 91.6,35.8 91.5,39.3 
	91.9,40 93.3,40.2 93.6,41.7 94.5,43 95.6,43.2 97.1,42.7 99.3,42.9 100,43.4 103.3,42.3 104.2,42.5 104.5,42.9 105.8,43.5 
	107.2,43.3 111.5,49.8 112.3,49.6 112.7,50.1 114.1,49.1 116.9,49.7 118.3,49.3 121.3,49.2 122.5,48.4 124.2,48.8 124.9,49.3 
	124.6,49.9 125.1,50.8 123.7,52.4 123.4,54.7 122,56.1 122.3,58 121.6,61.9 122.2,62.9 122.1,64.4 123.2,67.9 124,68.2 124.7,70 
	125.3,70.7 124.7,71.7 121.5,74.8 121.5,75.3 122.1,75 123,75.3 123.3,76.2 125.8,78.4 125.7,79.4 126.3,80.5 126.2,81.5 
	127.1,83.7 127.9,87.4 126.5,87.7 126.5,84.3 124.8,80.6 124.3,80.3 122.8,81.3 121.6,83 120.8,83.4 120.2,83.2 119.7,81.9 
	119,81.3 118.4,82.7 119.2,83.5 111,83.5 109.8,83.1 107.8,83.6 107.7,88.6 108.3,88.4 111.6,88.8 112.5,90.1 112.2,91.2 
	112.6,91.8 111,91.8 110.3,91.1 109.3,91.8 108.9,91.5 108,92.1 106.4,92.3 106.2,97.9 107.2,99.2 109.2,100.6 109.5,101.6 
	109.2,102.4 110.5,104.4 110.9,106 107.5,129.2 104.9,125.9 103.6,126.3 102.5,125.8 106.5,117.7 106.4,117.2 106.1,117.4 
	105.3,116.4 104.6,116.5 104.9,115.9 104.1,116 103.3,115.4 103,115.8 102.3,114.8 101,113.8 100.2,113.8 100.1,114.4 97.8,115.1 
	97.3,114.3 96.9,114.7 96.6,113.9 95.5,113.8 95.3,113.3 94.6,113.9 94,115 93.1,114.9 92.7,115.6 92,115.5 91.9,115.9 89.4,115.2 
	89.1,115.8 88.3,115.4 87.4,115.9 87,115.1 86.5,115.2 85.7,114.5 85.6,113.9 86.1,113.1 85.6,111 85.1,110.6 84.5,111.1 
	83.7,110.8 83.1,110.1 83.4,109 82.6,107.3 81.5,106.3 81.3,106.6 80.7,106.4 80.6,105.7 79.6,105.4 79.5,104.8 79.1,104.9 
	78.1,104.6 77.6,103.7 78,103.4 77.3,102.5 76.9,100.9 74.8,99.5 74.4,98.4 73.7,98.5 71.7,97 70.9,97.7 68.7,96.4 67.7,96.4 
	66.5,95.4 65.8,94.2 64.2,93.6 63.3,93.8 63.2,94.8 62.3,95.1 61.3,94.6 61.1,94.9 60.2,94.9 58.6,94 57.9,94.2 56.7,93.8 
	56.2,91.8 55,91.2 54.7,90.3 53.6,90.5 53.2,90 52,89.8 50.7,88.7 50.8,88.3 50.4,87.6 49.7,88 49.6,87.6 48.8,87.5 47.1,85.7 
	46.8,84.9 45.5,84.3 46.7,82.7 48.7,83.1 49,82.1 48.5,81.2 48.1,81.4 48.1,79.9 48.9,78 48.9,78.5 49.8,77.5 50.4,78 51.1,77.2 
	51.9,77.7 52.3,77.2 52.8,77.4 53.2,76.4 53.6,77.1 54.4,76.9 54.1,75.6 54.6,75.4 54.3,75.2 54.9,75.3 54.6,75 55.3,74.8 
	54.8,74.8 54.8,74.4 55.3,74.6 55.4,74.3 55.2,73.8 54.7,74 54.9,73.3 55.9,73.3 56.3,72.1 56.8,71.8 56.7,71 57.1,70.8 57.5,71.3 
	57.2,70.8 57.5,69.9 57.9,70.1 57.6,69.6 58.9,68.6 58.6,68.6 58.9,68.3 58.5,68.4 58.4,68.1 58.9,68.2 58.7,67.6 59.1,67.6 
	59.6,66.8 59,66.7 58.1,67.4 57.8,66.3 58.4,66.3 58.5,65.6 58.1,65.3 57.4,66.7 56.9,65.9 57,64.8 58.2,64.2 57.6,64 57.3,63.5 
	57.8,62.5 57.9,60.4 58.3,60.6 57.7,59.7 57.6,55.4 57.1,54.6 56.5,54.6 56.9,53.9 58.1,53.7 58.7,52.8 58,50.7 57.2,49.3 
	57.3,48.5 57.7,49 57.9,48.6 58.3,46.4 57.9,45.5 57.4,45.3 57,45.7 56.8,44.7 56.2,44.1 56,44.3 56.1,42.7 54.8,41.4 55.4,39.5 
	56,39.1 55.9,37.6 56.5,37.9 57,39.1 58.7,37.8 58.5,37.2 58.8,36.7 58.9,36.5 59,36.2 60.1,35.8 59.3,34 59.2,33.8 59.2,33.8 
	58.9,33.4 58.8,33.3 58.7,32.4 58.1,31.7 58.9,30.3 59.6,31.8 60.3,32.3 61,33.5 61.5,33.4 61.6,34.6 62.3,34.5 62.2,35.2 
	61.7,35.1 61.6,36 62.7,36.1 62.8,32.4 61.7,31.2 62.1,30.7 63.6,30.3 65.3,28.5 66.1,28.2 67.9,25.2 68.9,24.5 69.7,24.5 
	69.5,24.7 69.7,24.8 71,24.3 71.3,22.9 70.5,22.4 71.1,21.6 71.9,18.4 70.7,19 71.6,17.9 72.1,17.7 72.1,17.2 71.8,17.1 72.3,16.5 
	72.2,16.8 72.4,16.7 72.3,15.7 73.1,14.9 74.3,14.6 74,14 75.6,13.2 77,11.5 79.4,12.6 80.7,12.5 79.3,12.7 79.3,13.6 78.6,13.4 
	78.5,14.1 78.8,13.8 79.1,14.3 79.3,13.7 79.5,14.5 79.9,14.4 81.3,11.8 81.2,10.7 81.9,9.9 82.8,9.8 84.1,10.4 87.5,10.3 91.5,7.1 
	94.3,6 "/>
<g>
	<polyline class="st0" points="169,14 170.7,13.8 169.8,15 169.6,16.4 170.1,17.6 169.8,19.1 168.4,19.6 164.3,19.5 163.6,19.8 
		165.7,18.3 166.3,18.4 166.8,18 166.8,15.6 165.6,14.7 167.7,14 169,14 	"/>
	<polyline class="st0" points="172.5,10.2 173.5,9.9 173.4,10.5 171.7,11.4 171.3,11.3 172.5,10.2 	"/>
</g>
<g>
	<polyline class="st0" points="118.6,4.5 116.5,3.3 115.9,2.5 116,1.9 116.5,2.1 117.1,3.2 118.1,3.6 118.6,4.5 	"/>
	<polyline class="st0" points="121.9,4.7 121.7,3.3 120.9,2.9 121.1,2.5 122.4,3.1 121.9,4.7 	"/>
	<polyline class="st0" points="110.4,1.1 110.1,0.7 110.1,0 111.2,1.6 110.4,1.1 	"/>
</g>
<g>
	<polyline class="st0" points="150.4,14.6 150,14 150.5,14.2 150.4,14.6 	"/>
	<polyline class="st0" points="108.4,9.7 108.8,8.8 109.2,9.1 109.7,8.8 109.1,8.5 109,8.1 110.6,9.2 111.6,8.7 111.2,7.2 
		108.7,7.9 108.3,7.6 108.6,6.6 108,5.9 108.2,5.4 108.8,4 110.2,3.3 111.1,4.3 111.6,7.4 112.3,8.9 114.8,8.4 116.4,9.1 117.7,9.1 
		120.5,11 121.1,13.2 120.5,13.1 121.4,13.4 120.8,13.7 120.9,14.9 121.8,16.3 123.7,16.7 129.5,15.5 134,15.5 134.7,15.2 136,15.7 
		135.5,16.3 137,17.8 136.7,17.9 138,18.4 137.1,17.8 142.3,19.8 144.5,19.4 144.8,18.5 145.1,18.7 145.5,18.2 146.5,18.3 
		147.1,17.8 146.6,17.6 147.2,17.2 147.3,17.5 148.5,16.5 151,16.7 152,16.4 149.5,15.6 148.1,16.2 147.8,15.4 148,15 148.9,15.4 
		150.4,15.3 151.1,14.7 151.4,15.1 153,15.3 155.5,14.5 157.2,14.8 158.5,14.3 162.3,14.9 164.3,14.4 163.6,15.1 161.6,15.3 
		161,16.1 158.7,15.8 157.1,16.1 156.5,16.7 157.5,16.1 157.6,17.1 156.5,17.1 156.4,18.1 156.9,17.9 156.8,17.1 157.9,17.1 
		158.6,18 158.8,19.3 157.5,19.8 157,19.4 156.2,19.4 156.6,19.5 156.7,20.1 156.9,19.5 157.6,20.2 157.8,19.7 158.9,19.4 
		158.9,18.6 159.2,18.4 159.8,18.9 160,20.6 160.5,21.1 160.8,22.4 161.3,21.3 161.3,20.4 161.6,20.8 161.8,22.3 161.5,22.9 
		161.9,22.3 161.7,20.7 162.8,21.1 161.5,20.5 161.8,20 162.7,20.3 164,21.7 164,22.8 164.4,22 164.6,23.2 164.7,22.4 164.2,21.5 
		165.7,21.8 165.5,20.9 166.4,21.5 167.7,23.2 169.3,23.4 169.8,23.7 169.8,24.1 170.5,24.4 170.9,25.4 168.9,27 168.7,27.5 
		169.8,26.4 168.7,28.1 167.8,30.9 164.9,30.7 165.1,31.2 166.8,31.8 167.3,32.4 167.9,31.7 169,31.6 168.7,32.4 169.4,31.1 
		171.1,30.8 172.8,31.4 173.3,30.7 174.4,30.7 176,31.4 177.1,33.1 177,33.6 176.2,34 175.7,35.1 174.2,35.7 173.3,36.7 172.2,36.9 
		171.7,38.2 170.8,39 171.6,40.6 171.4,41.6 171.9,42.2 172.4,41.7 173.1,41.8 173.6,42.2 173.5,42.6 173,43.6 170.6,44.9 
		169.4,44.6 169.1,45.2 167.7,45.4 167.2,46.3 167.7,47.4 167.5,48.2 167.8,49.2 166.8,49.9 165.8,51.2 170.1,56.9 170.6,57.1 
		171,58.9 170.1,60.1 168.9,60.7 168.2,62.1 167,62.3 166.1,62.1 166.1,62.7 164.7,63.1 164.3,64.2 163,64.2 162,64.9 161.3,64.8 
		160.2,65.4 158.3,64.7 157.6,65.2 157.5,65.9 156.2,65.8 155.9,66.8 156.2,68.6 155.2,69.5 154.5,69.2 152.1,66.4 151.6,66.4 
		151.1,67.2 150,66.5 148.7,66.4 147.6,67 146.9,65.3 145.5,64.9 143.8,65.2 143.3,64.2 142.4,63.9 142.4,64.6 142.9,65 143.4,66.3 
		146.3,69.3 146,70.4 146.1,72.8 147.5,75.8 147.2,77.8 148.7,78.2 151.7,78.2 151.5,80.3 150.1,80.6 148.9,81.6 147.2,82 
		146.8,84.3 145,86.3 144.7,85.2 142.5,87.1 141.8,87 140.4,88.1 139.7,88.1 139.2,89.6 138.3,89.8 137.5,91.4 137,91.8 136.5,91.2 
		137.1,89.9 136.5,89.2 135.5,89.2 132.8,91.1 131.6,91 127.9,87.4 127.1,83.7 126.2,81.5 126.3,80.5 125.7,79.4 125.8,78.4 
		123.3,76.2 123,75.3 122.1,75 121.5,75.3 121.5,74.8 124.7,71.7 125.3,70.7 124.7,70 124,68.2 123.2,67.9 122.1,64.4 122.2,62.9 
		121.6,61.9 122.3,58 122,56.1 123.4,54.7 123.7,52.4 125.1,50.8 124.6,49.9 124.9,49.3 124.2,48.8 122.5,48.4 121.3,49.2 
		118.3,49.3 116.9,49.7 114.1,49.1 112.7,50.1 112.3,49.6 111.5,49.8 107.2,43.3 105.8,43.5 104.5,42.9 104.2,42.5 103.3,42.3 
		100,43.4 99.3,42.9 97.1,42.7 95.6,43.2 94.5,43 93.7,41.8 93.3,40.2 91.9,40 91.5,39.3 91.6,35.8 92.6,35 92.7,34.6 92.3,32.6 
		90.6,30.4 90,26.9 89.5,26.7 88.9,27 88.5,25.5 87.1,26.4 86,26.4 89,21.6 89.8,16.7 92.9,11.6 94.5,11.3 96.7,7.4 101.1,5.9 
		100.6,6.7 96.9,7.9 96.6,8.3 97.2,10.9 98.7,12.4 97.7,12.5 98.8,15 98.3,16.7 95.8,19.5 94.7,21.6 95.7,23.2 95.8,23.7 95.6,23.2 
		95.7,24 95.3,23.9 95.3,24.2 96,24 96.4,24.4 96,24.8 96.5,24.6 97.2,24.9 97.1,25.7 96.6,26.1 97,26 96.9,26.9 97.3,27.3 
		98.3,27.5 99.9,26.9 101.7,25.2 101.6,23.6 102.1,22.2 101.8,21.2 100,18.4 99.4,17 99.5,16.3 99,15.8 99.3,15.4 98.9,14 99.8,14 
		100,13.2 99.5,12.8 101,12.6 104,10.9 106.3,10.6 106.4,10.2 108.4,9.7 	"/>
	<polyline class="st0" points="141.3,13.4 140.4,13.1 140.8,12.7 141.8,12.8 141.8,13.3 141.3,13.4 	"/>
	<polyline class="st0" points="149.5,13.6 148.8,12.8 147.3,12.7 147.4,12.1 148.6,11.8 148.8,12.2 149.7,12.6 150.8,11.1 
		151.4,12.6 150.6,13.4 149.5,13.6 	"/>
	<path class="st0" d="M169.9,29.7L169.9,29.7L169.9,29.7c0.2-0.1,0.2-0.1,0.3-0.2l0,0l0,0c0.2-0.1,0.1,0,0.3-0.1l0,0l0,0l0,0l0,0
		l0,0l0,0l0,0l0,0h-0.1l0,0l0,0l0,0l0,0l0,0C170.1,29.5,170.1,29.5,169.9,29.7L169.9,29.7L169.9,29.7"/>
	<path class="st0" d="M170.7,29.2L170.7,29.2L170.7,29.2c0.1-0.2,0.1-0.2,0.2-0.3l0,0l0,0c0.1,0,0.2-0.1,0.2-0.2l0,0l0,0l0,0l0,0
		c-0.2,0.2-0.1,0-0.3,0.1l0,0l0,0l0,0l0,0l0,0l0,0l0,0v0.1l0,0L170.7,29.2L170.7,29.2L170.7,29.2L170.7,29.2"/>
</g>
<g>
	<polyline class="st0" points="244.8,493.9 245.4,493.9 245.5,493.6 245,493.2 245.4,493.2 245.5,492.8 245,492.5 245.7,492.5 
		245.4,491.9 246,491.9 246.5,491 247.3,490.8 247.8,491.7 248.1,491.6 247.6,490.5 246.4,490 246.5,489.5 247.3,489.9 246.9,489.5 
		247.2,489.4 246.3,489 247.5,488.4 246.8,487.6 248.4,488.2 250.1,488.1 250.8,488.8 250.3,489.1 249.8,488.6 249.6,488.9 
		249.9,489.3 250.4,489.3 250.7,489.8 251.4,489.9 252,490.5 251.9,490.1 252.3,490.1 251.8,489.7 250.9,489.4 251.1,488.8 
		253.1,488.5 254.4,489.7 252.8,489.4 252.9,489.7 252.3,489.8 254.5,490.2 254.7,490.5 254.1,490.7 255,490.8 252.2,491.3 
		253,491.5 251.9,491.8 252.8,491.7 251.7,492.3 249.7,492.3 248.4,491.7 248.4,492 249.7,492.7 250.7,492.9 251.1,493.9 250,493.3 
		249.4,493.8 248.7,493.3 247.1,493 248.5,493.8 248.2,494.1 248.9,494.1 248.7,494.4 249,494.7 248,494.6 246.8,494 246.5,494.1 
		247.7,495.6 244.8,493.9 	"/>
	<polyline class="st0" points="237,492.8 235.8,491.8 236.6,491.5 236.8,491.7 236.5,492.1 236.7,492.1 237.2,491.4 237.5,492.6 
		237,492.8 	"/>
	<polyline class="st0" points="240.1,494.9 239.1,493.9 238.5,493.9 239.2,494.3 238.8,494.4 237,493.2 238,493.6 237.9,493.3 
		238.6,493.1 237.9,492.8 239.7,493.1 240.3,492.5 239.2,492.6 239.8,492.4 239.7,491.4 240.4,492 240.4,491.3 241.1,491.4 
		240.9,490.9 240,490.9 240,491.2 239.1,491.6 238.2,490.7 239.2,490.9 240.5,490.5 241.5,490.8 238.5,489.6 238.4,489.3 239,489.2 
		237.5,488.8 237.2,488.4 240.5,489.4 241.3,489.2 240.7,489 240.9,488.5 241.6,488.5 242.6,489 243.9,488.6 243.6,489 244,489.1 
		244.6,488.9 244.3,488.7 244.3,488.2 245.6,488.7 245.3,488.8 245.6,489 245.3,489.4 245,489.4 245.1,490.2 244.3,490.5 
		243.5,492.7 242.9,493 242.3,492.7 242.4,493.1 241.3,493 241.4,494 240.8,494.3 240,493.9 240.6,494.5 240.1,494.9 	"/>
</g>
<g id="NA">
</g>
<g id="Layer_4">
</g>
<g id="Layer_5">
</g>
<g id="Layer_6">
</g>
<g id="Layer_7">
</g>
</svg>
