<?xml version="1.0" encoding="utf-8"?>
<!-- Generator: Adobe Illustrator 20.1.0, SVG Export Plug-In . SVG Version: 6.00 Build 0)  -->
<!DOCTYPE svg PUBLIC "-//W3C//DTD SVG 1.1//EN" "http://www.w3.org/Graphics/SVG/1.1/DTD/svg11.dtd">
<svg version="1.1" id="Layer_1" xmlns="http://www.w3.org/2000/svg" xmlns:xlink="http://www.w3.org/1999/xlink" x="0px" y="0px"
	 viewBox="0 0 841.9 595.3" style="enable-background:new 0 0 841.9 595.3;" xml:space="preserve">
<style type="text/css">
	.st0{fill:url(#SVGID_1_);}
	.st1{fill:url(#SVGID_2_);}
	.st2{fill:url(#SVGID_3_);}
	.st3{fill:url(#SVGID_4_);}
	.st4{fill:url(#SVGID_5_);}
	.st5{fill:url(#SVGID_6_);}
	.st6{fill:url(#SVGID_7_);}
	.st7{fill:url(#SVGID_8_);}
	.st8{fill:url(#SVGID_9_);}
	.st9{fill:url(#SVGID_10_);}
	.st10{fill:url(#SVGID_11_);}
	.st11{fill:url(#SVGID_12_);}
	.st12{fill:url(#SVGID_13_);}
	.st13{fill:url(#SVGID_14_);}
	.st14{fill:url(#SVGID_15_);}
	.st15{fill:url(#SVGID_16_);}
	.st16{fill:url(#SVGID_17_);}
	.st17{fill:url(#SVGID_18_);}
	.st18{fill:url(#SVGID_19_);}
	.st19{fill:url(#SVGID_20_);}
	.st20{fill:url(#SVGID_21_);}
	.st21{fill:url(#SVGID_22_);}
	.st22{fill:url(#SVGID_23_);}
	.st23{fill:url(#SVGID_24_);}
	.st24{fill:url(#SVGID_25_);}
	.st25{fill:url(#SVGID_26_);}
	.st26{fill:url(#SVGID_27_);}
</style>
<g>
	<g>
		<radialGradient id="SVGID_1_" cx="121.8143" cy="328.7935" r="6.44" gradientUnits="userSpaceOnUse">
			<stop  offset="0" style="stop-color:#FDFBDC"/>
			<stop  offset="1" style="stop-color:#EFF6E1"/>
		</radialGradient>
		<polyline class="st0" points="127.4,333.2 122.6,327.8 113.9,326.9 128.2,324.4 129.8,328.7 127.4,333.2 		"/>
		<radialGradient id="SVGID_2_" cx="202.3112" cy="362.3376" r="116.9692" gradientUnits="userSpaceOnUse">
			<stop  offset="0" style="stop-color:#FDFBDC"/>
			<stop  offset="1" style="stop-color:#EFF6E1"/>
		</radialGradient>
		<polyline class="st1" points="256.2,246.7 267.6,246.8 262.6,240.8 283,249.6 266.6,259.7 259.4,263.3 250.3,280 231.8,282.6 
			241.3,288.3 233.6,292.5 226.7,292.2 219,298.7 231.2,308.2 231.8,312.5 239.4,313.3 245.6,317.7 252.2,316.4 257.1,318.6 
			257,315.9 258.9,317.4 265.8,311.5 264.6,304.8 272.9,300 279.9,304.5 279.4,308.5 283.3,313 290.1,315 289.9,323.1 307.5,319.4 
			314.6,326 303.1,324.8 300.9,331.2 306.9,334.5 306.4,346.1 313.1,353.4 310.4,358.7 307.4,359 313.1,364.5 305,366.1 
			310.5,370.3 313.4,390 305.6,399.7 300.7,409 300.5,415.9 291.8,428 285.6,427.2 293,434.5 290.8,438.4 269.5,436.5 271.3,433.8 
			262.1,441.7 264,436.9 260.3,432.2 261.6,438.4 259,441 254.4,441.4 254.3,439 230,443.4 227.8,445.5 231.7,446.3 229.1,450.3 
			222.5,453.4 216.5,451 213.9,457.2 205.1,461.3 195.8,462 199.3,456.7 187.9,457 192,457.8 193.1,464.4 183.8,469.5 180.2,468.2 
			182.7,468.8 180.4,473.8 170.1,471.9 172.9,473 172,476.1 164.4,475.2 159.8,478.7 151.5,477.2 145.3,481.6 138.1,482.5 
			140.9,478.9 136.7,480.6 135.1,477.2 116.3,483.8 115.7,481.8 130.5,473.7 115.7,477.6 135.9,469 131.4,464.9 126.2,469.6 
			100.4,475.4 110.5,466.4 130.8,457.4 103,465.8 98.6,463.4 101.3,461.2 99.8,459.2 92.9,462.9 91,457.4 98.2,455.6 96.1,452.3 
			98.5,450.2 124,440.3 90.4,443.7 90.1,438.2 94,439 95.4,435.3 105.1,431.7 104.9,435 109.3,434.3 111.2,430.4 115.4,435.1 
			125.6,434.3 119.6,432.5 121.9,425.9 117.1,424.1 132.6,420.1 131,417.1 133.7,414.2 150.2,414.2 177.7,407.9 167.3,406.8 
			168,401.7 157.8,410.5 150.4,412.9 148.5,412.5 151.1,410.4 144.1,411.8 136.9,408.5 129.8,413.5 118.8,415 141.3,403 
			149.7,391.8 144,391.1 155.2,378.4 160.8,380.7 164.9,379.9 162.6,378 164.9,377.2 171.6,378.4 173.5,374.1 167.7,374.1 
			172,371.2 167.9,370.6 143.7,373.4 142.3,369.5 139.5,372.7 142.6,363.7 131.3,369 125.9,367.5 131.3,361.7 123.7,364.2 
			113.6,361.9 121.9,358.3 114.1,353.4 123.2,353.8 121.1,350.9 123.5,349.9 137.9,350.5 128.2,347.2 129.3,340.6 144.6,339 
			146.4,334.3 140.7,332 128.6,333.6 130.7,328.6 136.1,330.7 131.3,324.3 135.3,318.9 129.5,321.6 130.9,314.2 127.7,312.1 
			121.8,319.9 125.1,312.4 123.3,311.3 128.9,307 134,309.9 129.4,312.3 133.3,312.7 135.5,309.1 139.8,309.8 136.7,306 139,305 
			164,307.2 169.3,316.8 175.1,308 192.9,309.3 199.5,312.7 195.2,309.7 202.1,308.6 197.8,306.7 200.8,305.8 193.5,304.2 
			204.4,296.6 216.5,294.6 214.2,293.5 221.6,286.1 213,286.6 205.6,291 208.9,288.1 207.3,286 205.1,288.4 195.1,287.7 
			189.8,282.9 199,278.2 208.7,279.1 202.3,275 213.4,274.3 211,272.8 213.3,270 208.1,269.6 212.1,267.6 208.5,264.1 214.1,260.6 
			215.1,262.4 218,254.6 224.1,256.3 232.7,250.8 231.5,253.5 235.9,253 238.1,255.8 238.2,251.1 241.7,248.9 240.7,253.1 
			245.1,254.2 245.6,258.1 246.2,251 245.1,253.5 241.8,251.2 249.1,247.4 253.8,256.7 248,261.3 251.6,261.8 246.9,266.6 
			257.2,260.5 257.2,255.8 253.4,252 256.2,246.7 		"/>
	</g>
	<radialGradient id="SVGID_3_" cx="551.8826" cy="35.8713" r="5.9427" gradientUnits="userSpaceOnUse">
		<stop  offset="0" style="stop-color:#FDFBDC"/>
		<stop  offset="1" style="stop-color:#EFF6E1"/>
	</radialGradient>
	<polyline class="st2" points="550.1,43 547.4,40.5 547.5,34.3 550.5,35.7 551.1,28.8 556.1,28.8 556.4,33 553.2,32.6 552.6,35.9 
		554.1,41.3 550.1,43 	"/>
	<radialGradient id="SVGID_4_" cx="489.9972" cy="20.774" r="11.6384" gradientUnits="userSpaceOnUse">
		<stop  offset="0" style="stop-color:#FDFBDC"/>
		<stop  offset="1" style="stop-color:#EFF6E1"/>
	</radialGradient>
	<polyline class="st3" points="498.8,28.8 491.8,24.5 481.4,26.6 480.9,19.7 475.6,23.9 475.9,15.1 483.1,12.8 491.8,17.5 
		485.6,21.8 501.3,22.3 500.3,26.1 504.4,23.6 498.8,28.8 	"/>
	<radialGradient id="SVGID_5_" cx="323.0371" cy="142.4272" r="4.1744" gradientUnits="userSpaceOnUse">
		<stop  offset="0" style="stop-color:#FDFBDC"/>
		<stop  offset="1" style="stop-color:#EFF6E1"/>
	</radialGradient>
	<polyline class="st4" points="323.8,146.1 318.4,141.4 323.8,138.8 327.7,141.9 323.8,146.1 	"/>
	<radialGradient id="SVGID_6_" cx="537.5091" cy="57.3941" r="19.6471" gradientUnits="userSpaceOnUse">
		<stop  offset="0" style="stop-color:#FDFBDC"/>
		<stop  offset="1" style="stop-color:#EFF6E1"/>
	</radialGradient>
	<polyline class="st5" points="539.5,80.7 534.8,77.6 541,65.4 540.8,60.7 539,61.6 541.2,57.5 538.4,59.7 535.4,56.7 537.2,60 
		532.7,62.7 529.4,60.6 531.2,57.5 525.2,59.3 522.3,54.9 531.8,53 532.9,55.1 534.6,52.7 537.4,54.8 542.2,51 536.4,48.9 
		534.6,43.1 527,43.4 531.2,39 537,41.8 533.5,39.8 541.8,34.1 537.8,47.9 545,42.5 547.5,46.6 544.1,47.7 552.7,45.7 549.1,48.8 
		550.8,50.7 546.6,51.2 550.5,52.9 547.8,54.8 549.4,56.2 543.7,58 547.4,62.8 543.5,65.8 545.1,68.8 541.2,72.4 539.5,80.7 	"/>
	<radialGradient id="SVGID_7_" cx="531.8423" cy="532.3238" r="9.6796" gradientUnits="userSpaceOnUse">
		<stop  offset="0" style="stop-color:#FDFBDC"/>
		<stop  offset="1" style="stop-color:#EFF6E1"/>
	</radialGradient>
	<polyline class="st6" points="533.1,538.3 519.5,533.1 532.6,526.3 542.5,529 544.2,531.8 533.1,538.3 	"/>
	<radialGradient id="SVGID_8_" cx="500.2438" cy="309.23" r="232.1689" gradientUnits="userSpaceOnUse">
		<stop  offset="0" style="stop-color:#FDFBDC"/>
		<stop  offset="1" style="stop-color:#EFF6E1"/>
	</radialGradient>
	<polyline class="st7" points="369.9,163.9 384.5,159.4 373.5,159.9 379,153.5 350.9,172.5 348,168.5 341.4,169.1 336.4,164.1 
		358.2,160.8 326.2,159.6 339.6,155.4 344.3,157.7 344.9,152.6 353.8,150.3 342.5,148.8 348.3,141.4 361.2,142.5 356.1,142.9 
		349.8,138.8 352.9,135.2 367.8,135.4 355.2,132.6 357.6,127.4 361.8,125.9 368.1,128.4 364.2,125.5 367.2,122.9 353.9,124.5 
		367.6,116.7 362.2,120.4 358.9,119.5 359.4,117 353.1,121.3 350.1,119.8 348.4,113 351,107.2 358.5,111.1 365.6,109.7 358.3,109 
		352.5,103.4 354.1,99.9 358.8,99.6 353.4,97 353.4,92.1 358.9,89.6 362.6,95.7 363.4,86.3 369.5,90.7 372.3,87.5 381,91 
		373.7,86.8 375.4,85.5 387.9,91.8 382,86.5 383.2,84.6 371.9,76.8 379,77.6 382,72.7 376,66 389.2,65.4 396.7,68.1 395,66.7 
		397.3,65.9 390.9,65.7 386.8,60.7 388.6,56.9 393.9,58.4 390.7,55.6 395.2,55.2 390.7,51.4 396.6,44.1 404.4,45.6 404.5,50.1 
		406.9,45.4 411.8,48.5 406.6,54.9 415.7,47.1 421.9,48.5 419,54.8 425.6,49.5 431,50.2 441.4,45.8 447,48 458.7,44.4 471.9,45.7 
		472.2,41.2 488.6,42.9 482.5,51.4 485.4,54 482.2,59.2 445.6,81.9 434.9,84.3 438.8,87.1 437.6,89.8 424.1,90 420.5,87.5 
		423.9,90.6 435.9,92.8 448.5,90.4 438.5,99.7 435.5,98 423.5,101.4 416.9,107.2 426,102 437.3,101 431.5,107.3 424.5,109 
		426.9,112.6 434.6,108.3 433.1,106.9 456,103.3 465.9,98.6 481.9,101.9 489.7,99.3 506.5,102.1 530.5,100 539,105.6 540.8,114 
		526.4,128.4 525.6,135.5 516.5,150 502,160.1 504.6,161.2 500.1,167.9 490.1,174.8 474.7,175.3 461.7,181.1 482.9,175.4 
		486.5,176.3 486.4,181.9 496,186.6 485.8,191.5 478,190.7 467.5,199.4 456.2,202.2 436.1,196.5 444,202.5 472.2,206.2 483.9,199.7 
		492.8,199.6 495.1,202.9 516,208.7 529.4,225 537.8,228.6 542.9,258.7 548.2,266.6 550.2,278.4 555.7,283.1 554.4,287.5 
		574.2,291.3 584.4,296.3 593.2,310.8 606,318.5 599.2,324.6 602.8,334 614.9,348.8 614.1,352 613.4,349.1 603.7,348.6 595.3,341.9 
		573.5,344.3 593.9,343.3 618.8,362.9 623,373 622.7,381.4 605.5,394.9 609.4,394.3 623.3,401.9 632.4,389.5 654.4,389.2 
		672.3,393.5 686.4,403 689.9,420.6 679.7,444.5 666.9,453.8 659.1,448.2 664,452.4 654.3,452.7 664.7,453.6 660.7,457 664,459 
		654.5,463.8 649.5,459.8 643.7,465.3 635.6,467 638.3,468.6 646.9,466 647,474.1 638.9,479.2 623.4,480.5 619,483.7 633.9,482.5 
		635.2,484.5 627.2,486.6 634.1,488.2 634.9,486.1 637.5,489.5 644,490.6 670.5,487.7 667.2,492 667.2,502.5 649.2,509.5 
		645.8,517.3 636.2,516.2 609.2,528.3 587.4,522.8 559.2,526.4 557.6,528.9 552.5,526.3 554.6,524.2 551.6,522 543.3,525.7 
		544.5,522.8 540.2,522 542.2,524.1 539.7,525.6 525.7,517.4 532.2,524.4 519.8,530 514.4,528.3 500.9,531.2 496,528.9 494.2,531 
		500.4,532.5 499.2,537.1 476.4,534.9 474.7,541.5 469.8,535 454.8,528.9 428.3,536.1 425.5,532.6 423,545.8 419.8,547.6 
		422.6,549.5 415,555.7 413.3,560.8 405.8,561 399.9,555 394,555.8 387.9,549.2 389.5,546 383.1,550.2 387.2,550.7 386.7,554.7 
		380.5,551.7 360.4,554 357,560.3 346.1,565.4 344,562.7 340.4,568.6 343.2,571.5 335.9,577.2 331.6,570.3 323.2,566.9 317.2,571.6 
		310.6,571.2 312.3,564.8 321.9,561 325.6,562.3 340.1,552.7 340.7,549.4 345.6,547.7 348.1,540.5 356,542.3 352.3,540.5 
		352.9,537.9 359.7,537.2 371.7,525.8 375,511.2 382.9,512.5 389.2,508.7 391,499.8 412.7,496.8 432.2,500.6 449.7,499.8 
		453.5,487.8 466.3,480.9 484,464.5 466.4,475.7 453.3,477.4 442.6,487.2 434.6,488.3 425,487.1 416.7,482.1 411.2,473.3 
		404.5,474.1 402.2,477.3 389.2,477.2 391.8,472.3 400.6,470.3 388.3,469.7 385.5,467.2 388.2,466.9 386.2,463.2 371.4,466.8 
		369.5,470.6 357.3,474.7 349.1,469.7 362.5,467.7 360.8,464.8 363.8,462.7 358.9,463.6 360.3,466.9 355.8,468.2 346,469.2 
		343.2,466.4 350.1,463.8 349.9,459.8 340.8,458.1 341.5,455.2 351.6,451.7 353,448.2 364.5,448.5 371,442.5 381.5,441 395.7,434 
		402.7,426 405.7,417 411.2,415.3 405,415.6 402.7,411.9 409.8,404.1 406.8,405 402.7,399.8 406.8,392.5 390.6,394.3 384.4,400.8 
		373,400.3 393.5,385.6 394.9,380.7 402.5,374.6 420.2,369.8 419.1,366.8 431,370 446.2,366 456.6,373 452.5,363.2 459,360.9 
		467.3,369.6 475.6,365.9 470.9,367.7 463.9,365.2 457.2,353.1 468,342.3 461.1,340.2 461.7,331.2 472.9,325.5 468.8,323.9 
		474.8,318.4 472.6,314.1 475.9,311 467.2,316.4 463.7,312.1 457.1,321.2 453.8,318.8 455.6,309.6 454.3,313.2 450,313.5 
		436.9,294.1 450.6,271.5 468.2,265.6 442.6,264.8 440.4,271.8 429.8,271.7 428.7,275 421.6,278.4 418.3,278 417.7,274.6 
		413.9,277.7 411,272.6 407.8,274 402.4,269.9 401.2,274.5 404.5,276.7 401.2,283.9 380.1,272.3 374.7,276.5 378,286.8 365.2,270.8 
		365.9,264 369.1,262.7 370.6,268.5 373.6,269.3 371.8,261.1 374.4,255.9 395.2,234.2 392.2,227.1 382.3,221 385.1,218.3 
		385.9,206.6 404,207.7 394.8,205 388.6,198.2 390.5,203.8 387.1,203.8 386.6,199.2 392.9,190.6 387.4,196.3 385.1,192.8 
		384.9,203.7 382.4,203.5 383.8,205.7 380.2,211 373.9,202.6 375.7,208.8 370.8,205.1 369,213.4 365.6,212.2 364.2,203.3 
		385.2,186.3 362,202.6 359.1,201.6 363.4,216.9 354.8,224.7 355.8,228.5 348.7,238.4 351.1,242.5 338.3,245.5 345.9,222.8 
		357.4,212.7 350.3,217.5 347,214.5 352.1,207.3 347.1,209.9 346.8,207.3 352.8,200.6 346.1,206.4 355.4,197.2 356.7,191.6 
		352.2,194 358.3,186.8 353.6,187.5 354.9,183.1 361,180.9 357,180.7 361.2,176 372.8,176.1 380.2,168.8 373,175.3 364.4,175 
		363.5,172.4 361.3,174.2 363.3,170.6 371.4,169.3 364,169.6 369.9,163.9 	"/>
	<radialGradient id="SVGID_9_" cx="284.5726" cy="287.0894" r="53.0815" gradientUnits="userSpaceOnUse">
		<stop  offset="0" style="stop-color:#FDFBDC"/>
		<stop  offset="1" style="stop-color:#EFF6E1"/>
	</radialGradient>
	<polyline class="st8" points="301.6,250.5 324.2,252.2 323.9,260.7 327.8,261.6 326.6,265.2 334.4,275.4 338.2,277 336.2,273 
		339.9,276 328.1,288.1 335.5,284.1 344.4,283.9 350.1,295.8 345.2,305.1 342.7,300.7 344.1,293.6 338,290.5 340.5,297.7 
		336.1,304.2 342.3,302.3 342.4,308.2 337.9,311.6 328.6,311.4 325,319.7 317.4,323.7 307.5,319.4 289.9,323.1 290.1,315 283.3,313 
		279.4,308.5 279.9,304.5 272.9,300 264.6,304.8 265.8,311.5 258.9,317.4 257,315.9 257.1,318.6 252.2,316.3 245.6,317.7 
		239.4,313.3 231.8,312.5 231.2,308.2 219,298.7 226.7,292.2 233.6,292.5 241.3,288.3 231.8,282.5 250.3,280 259.4,263.3 
		266.6,259.7 275.4,261.6 281.3,252.5 290.5,253.8 301.6,250.5 	"/>
	<radialGradient id="SVGID_10_" cx="365.9318" cy="228.9677" r="8.087" gradientUnits="userSpaceOnUse">
		<stop  offset="0" style="stop-color:#FDFBDC"/>
		<stop  offset="1" style="stop-color:#EFF6E1"/>
	</radialGradient>
	<polyline class="st9" points="368.4,237.8 361,235 358.6,227 365,220.2 370.5,222.5 373.2,230 373.1,236.1 368.4,237.8 	"/>
	<radialGradient id="SVGID_11_" cx="278.7922" cy="126.7945" r="7.98" gradientUnits="userSpaceOnUse">
		<stop  offset="0" style="stop-color:#FDFBDC"/>
		<stop  offset="1" style="stop-color:#EFF6E1"/>
	</radialGradient>
	<polyline class="st10" points="281.9,136.3 274.9,135.4 272.7,128.3 275,118.8 278.1,117.3 283.9,121.6 277.2,120.6 284.8,124 
		281.2,128.5 277.3,127.7 281.2,131.6 277,133.2 281.9,136.3 	"/>
	<radialGradient id="SVGID_12_" cx="331.3695" cy="120.369" r="23.3282" gradientUnits="userSpaceOnUse">
		<stop  offset="0" style="stop-color:#FDFBDC"/>
		<stop  offset="1" style="stop-color:#EFF6E1"/>
	</radialGradient>
	<polyline class="st11" points="338.7,140.7 340.5,134.7 347.3,131 341.3,131.8 338.9,128.4 336.2,134.5 332.8,130.1 325.5,132.3 
		327.1,130 323.6,130.2 324.2,127.6 318.7,123.5 326.4,123.7 319.1,118.2 315,118.7 314.3,121.8 308.3,119.6 305.4,115.2 
		308.1,114.8 307.6,112.1 313.4,115.5 313.1,111.8 316.1,111.8 312.3,108.8 313.4,105.6 322.4,111 321.5,113.1 324.2,110.5 
		327.2,114.2 323.8,103.5 329.3,100 336.2,107.5 333,118 335.9,117.9 336.5,122.5 334,123.9 338.7,123.2 337.4,125.5 346.1,127.5 
		357.3,126.5 356,130 338.7,140.7 	"/>
	<radialGradient id="SVGID_13_" cx="334.7825" cy="175.4258" r="14.7172" gradientUnits="userSpaceOnUse">
		<stop  offset="0" style="stop-color:#FDFBDC"/>
		<stop  offset="1" style="stop-color:#EFF6E1"/>
	</radialGradient>
	<polyline class="st12" points="321.7,187.1 317.6,182.8 323,183.9 334.1,179.9 325.6,180.4 335.3,172.7 329.7,174 320.3,169.6 
		327.7,163.7 333.8,164.1 337.8,171 352,175.8 343.8,183.5 340.5,181.5 321.7,187.1 	"/>
	<radialGradient id="SVGID_14_" cx="337.8986" cy="204.8804" r="10.4307" gradientUnits="userSpaceOnUse">
		<stop  offset="0" style="stop-color:#FDFBDC"/>
		<stop  offset="1" style="stop-color:#EFF6E1"/>
	</radialGradient>
	<polyline class="st13" points="332.5,215.8 328,214.4 328.2,208.7 337.3,205 332.6,203.9 347.8,194 332.5,215.8 	"/>
	<radialGradient id="SVGID_15_" cx="317.0334" cy="70.0068" r="21.0295" gradientUnits="userSpaceOnUse">
		<stop  offset="0" style="stop-color:#FDFBDC"/>
		<stop  offset="1" style="stop-color:#EFF6E1"/>
	</radialGradient>
	<polyline class="st14" points="307.1,87.7 293.9,82.5 302.1,78.8 296.8,79.2 295.5,70.9 302.8,67.9 306,74.9 306.9,70.4 
		313.7,70.6 310.7,63.6 338.3,51.3 340.1,61 330.5,68.1 340.1,66.1 339.6,68.8 328.7,69.1 329.1,73.6 317.7,76.7 328.1,75.5 
		327.5,81.4 320.3,81.1 324,82.5 323,85.3 314.4,86.2 313.1,81.1 318.3,78.6 314.6,78.1 310.4,81.8 314,88.7 307.1,87.7 	"/>
	<radialGradient id="SVGID_16_" cx="397.5689" cy="370.8134" r="10.8182" gradientUnits="userSpaceOnUse">
		<stop  offset="0" style="stop-color:#FDFBDC"/>
		<stop  offset="1" style="stop-color:#EFF6E1"/>
	</radialGradient>
	<polyline class="st15" points="394.5,379.7 391.6,379.1 392.8,376.1 388,376.4 385.1,370.8 385.9,362.9 397.9,361.9 402.7,369.3 
		410,368.7 394.5,379.7 	"/>
	<radialGradient id="SVGID_17_" cx="318.4198" cy="217.9823" r="10.9227" gradientUnits="userSpaceOnUse">
		<stop  offset="0" style="stop-color:#FDFBDC"/>
		<stop  offset="1" style="stop-color:#EFF6E1"/>
	</radialGradient>
	<polyline class="st16" points="316.7,229 314.7,226.6 318.5,223.2 315.3,219.6 318.7,216.6 315.1,216.3 307.6,222.8 308.6,215.7 
		310.7,211.9 316.2,209.8 315.9,214 326,207 329.3,222.3 316.7,229 	"/>
	<radialGradient id="SVGID_18_" cx="301.0838" cy="92.6178" r="7.419" gradientUnits="userSpaceOnUse">
		<stop  offset="0" style="stop-color:#FDFBDC"/>
		<stop  offset="1" style="stop-color:#EFF6E1"/>
	</radialGradient>
	<polyline class="st17" points="307.2,87.9 310.1,92.2 304.8,92.3 298.6,98.1 292.1,92.4 301.9,89.8 301.8,87.2 307.2,87.9 	"/>
	<radialGradient id="SVGID_19_" cx="282.2452" cy="106.1016" r="8.7269" gradientUnits="userSpaceOnUse">
		<stop  offset="0" style="stop-color:#FDFBDC"/>
		<stop  offset="1" style="stop-color:#EFF6E1"/>
	</radialGradient>
	<polyline class="st18" points="273.2,103.5 282.1,100.6 293.3,103.7 286.7,103.7 291,107 281.5,108.9 289.4,109.5 284.7,111.6 
		271.2,106.4 273.2,103.5 	"/>
	<radialGradient id="SVGID_20_" cx="562.4275" cy="26.8901" r="4.8603" gradientUnits="userSpaceOnUse">
		<stop  offset="0" style="stop-color:#FDFBDC"/>
		<stop  offset="1" style="stop-color:#EFF6E1"/>
	</radialGradient>
	<polyline class="st19" points="563.3,31.8 557.7,29.3 561.9,21.9 561.7,25.4 565.3,22 567.2,23.3 563.3,31.8 	"/>
	<radialGradient id="SVGID_21_" cx="477.3133" cy="30.952" r="5.4492" gradientUnits="userSpaceOnUse">
		<stop  offset="0" style="stop-color:#FDFBDC"/>
		<stop  offset="1" style="stop-color:#EFF6E1"/>
	</radialGradient>
	<polyline class="st20" points="479.4,35 470.7,29 471.8,26.9 480.3,28.6 482.4,32.3 478.8,34.1 483.9,33.7 479.4,35 	"/>
	<radialGradient id="SVGID_22_" cx="323.6748" cy="198.385" r="3.0794" gradientUnits="userSpaceOnUse">
		<stop  offset="0" style="stop-color:#FDFBDC"/>
		<stop  offset="1" style="stop-color:#EFF6E1"/>
	</radialGradient>
	<polyline class="st21" points="323.3,201.2 320.3,200.7 327,195.6 323.3,201.2 	"/>
	<radialGradient id="SVGID_23_" cx="269.8247" cy="142.0753" r="3.6427" gradientUnits="userSpaceOnUse">
		<stop  offset="0" style="stop-color:#FDFBDC"/>
		<stop  offset="1" style="stop-color:#EFF6E1"/>
	</radialGradient>
	<polyline class="st22" points="268.6,141.3 272,139.1 274,143.3 265.6,145.1 268.6,141.3 	"/>
	<radialGradient id="SVGID_24_" cx="295.0414" cy="173.0124" r="4.7014" gradientUnits="userSpaceOnUse">
		<stop  offset="0" style="stop-color:#FDFBDC"/>
		<stop  offset="1" style="stop-color:#EFF6E1"/>
	</radialGradient>
	<polyline class="st23" points="293.2,176.2 289.2,172.5 300.9,169.9 293.2,176.2 	"/>
	<radialGradient id="SVGID_25_" cx="469.6212" cy="574.5021" r="4.3559" gradientUnits="userSpaceOnUse">
		<stop  offset="0" style="stop-color:#FDFBDC"/>
		<stop  offset="1" style="stop-color:#EFF6E1"/>
	</radialGradient>
	<polyline class="st24" points="472,572 475.1,573.9 474.4,577.2 464.3,576.3 464.1,571.8 472,572 	"/>
	<radialGradient id="SVGID_26_" cx="390.9625" cy="310.9508" r="11.5886" gradientUnits="userSpaceOnUse">
		<stop  offset="0" style="stop-color:#FDFBDC"/>
		<stop  offset="1" style="stop-color:#EFF6E1"/>
	</radialGradient>
	<polyline class="st25" points="400.7,310.2 387.1,321.9 378.8,321.9 383.4,312.2 393,303 400.9,300 400.3,305.5 403.1,307.3 
		400.7,310.2 	"/>
	<radialGradient id="SVGID_27_" cx="447.6304" cy="558.716" r="3.5341" gradientUnits="userSpaceOnUse">
		<stop  offset="0" style="stop-color:#FDFBDC"/>
		<stop  offset="1" style="stop-color:#EFF6E1"/>
	</radialGradient>
	<polyline class="st26" points="447.2,561.4 443.4,560.6 451.9,556.1 450.4,561 447.2,561.4 	"/>
</g>
</svg>
