<svg id="Layer_1" data-name="Layer 1" xmlns="http://www.w3.org/2000/svg" xmlns:xlink="http://www.w3.org/1999/xlink" viewBox="0 0 156 440"><defs><style>.cls-1{fill:#c3ebce;}.cls-2{fill:#425874;}.cls-3{fill:#d5f1dd;}.cls-4,.cls-6{fill:#213b5c;}.cls-5{fill:url(#linear-gradient);}.cls-6{opacity:0.85;}.cls-7{fill:url(#linear-gradient-2);}.cls-8{fill:url(#linear-gradient-3);}.cls-9{fill:#666;}.cls-10{fill:#4d4d4d;}.cls-11{fill:#415947;}.cls-12{fill:url(#linear-gradient-4);}.cls-13{fill:url(#linear-gradient-5);}.cls-14{fill:url(#linear-gradient-6);}</style><linearGradient id="linear-gradient" x1="87.41" y1="88.56" x2="99.09" y2="100.24" gradientUnits="userSpaceOnUse"><stop offset="0" stop-color="#d5f1dd" stop-opacity="0"/><stop offset="0.18" stop-color="#b4c7b9" stop-opacity="0.3"/><stop offset="0.4" stop-color="#929d95" stop-opacity="0.6"/><stop offset="0.61" stop-color="#7a7f7b" stop-opacity="0.82"/><stop offset="0.82" stop-color="#6b6c6b" stop-opacity="0.95"/><stop offset="1" stop-color="#666"/></linearGradient><linearGradient id="linear-gradient-2" x1="91.74" y1="70.2" x2="85.07" y2="77.35" gradientUnits="userSpaceOnUse"><stop offset="0" stop-color="#c3ebce" stop-opacity="0"/><stop offset="0.28" stop-color="#c1e8cb" stop-opacity="0.03"/><stop offset="0.47" stop-color="#b9dcc2" stop-opacity="0.11"/><stop offset="0.63" stop-color="#abc9b3" stop-opacity="0.26"/><stop offset="0.77" stop-color="#98ad9e" stop-opacity="0.47"/><stop offset="0.9" stop-color="#7f8a82" stop-opacity="0.73"/><stop offset="1" stop-color="#666"/></linearGradient><linearGradient id="linear-gradient-3" x1="72.22" y1="69.76" x2="79.23" y2="77.55" xlink:href="#linear-gradient-2"/><linearGradient id="linear-gradient-4" x1="49.9" y1="59.19" x2="62.51" y2="59.19" gradientUnits="userSpaceOnUse"><stop offset="0.09" stop-color="#c3ebce" stop-opacity="0"/><stop offset="0.13" stop-color="#bce3c9" stop-opacity="0.05"/><stop offset="0.73" stop-color="#657f8c" stop-opacity="0.73"/><stop offset="1" stop-color="#425874"/></linearGradient><linearGradient id="linear-gradient-5" x1="51.75" y1="45.48" x2="51.75" y2="43.24" gradientUnits="userSpaceOnUse"><stop offset="0.29" stop-color="#c3ebce" stop-opacity="0"/><stop offset="0.45" stop-color="#9fc2b5" stop-opacity="0.28"/><stop offset="0.7" stop-color="#6d8992" stop-opacity="0.67"/><stop offset="0.89" stop-color="#4e657c" stop-opacity="0.91"/><stop offset="1" stop-color="#425874"/></linearGradient><linearGradient id="linear-gradient-6" x1="51.75" y1="39.9" x2="51.75" y2="42.67" gradientUnits="userSpaceOnUse"><stop offset="0.29" stop-color="#425874" stop-opacity="0"/><stop offset="0.34" stop-color="#3f5572" stop-opacity="0.09"/><stop offset="0.64" stop-color="#2f4766" stop-opacity="0.58"/><stop offset="0.87" stop-color="#253e5f" stop-opacity="0.89"/><stop offset="1" stop-color="#213b5c"/></linearGradient></defs><title>newyork</title><path class="cls-1" d="M73.84,81.18l1.85,7.07s.44,1.57,1.55,1.81,4.76.79,5.32.79A15.23,15.23,0,0,0,87,89.68c1.24-.66,2.69-3.25,2.69-3.25L90.08,78,87.38,74,80.44,72.1l-4,2.42-2.63,2.24Z"/><polygon class="cls-2" points="99.83 110.5 94.8 118.2 91.13 132.01 101.13 147.95 106.69 142.27 99.83 110.5"/><polygon class="cls-1" points="82.49 101.95 89.26 99.52 93.5 101.95 99.76 108.86 98.41 117.18 82.49 101.95"/><path class="cls-3" d="M76.14,254.15h37.71s-1.71-2.58-2.87-2.74l-2.18-42.26L101,206.62l-7.11,5.54-9.68,23.66-8,16.52Z"/><path class="cls-1" d="M82.4,221.25s-.26,21.73-2.85,25.91-3.42,5.19-3.42,5.19h5.18a2.11,2.11,0,0,0,2-1.53c.7-1.63.93-3,1.63-3.34s-.23-4.82,1.09-5.36,4.2,1.09,7,4.74a17.57,17.57,0,0,0,3.11,1.63s-2.23-21.73-1.31-25.87,3.68-12.28,4-15a64.56,64.56,0,0,0,0-8Z"/><path class="cls-1" d="M96.5,250.41a3,3,0,0,1,2.8-1.49c1.39-1,2.39-2.77,2.39-5.54A58.07,58.07,0,0,1,103,228.09c.65-6,.11-12.25.84-13.47a2.58,2.58,0,0,1,2.05-1.23,2.31,2.31,0,0,0,1.31-2c.16-1.63,1.63-1.39,1.63-2.2s1.14-4.81-2-5.87a7,7,0,0,1-3.88-1.14,17.2,17.2,0,0,0-2.44-.65l-3.22,2.45v7s4.14.5,5-.72-.77,8.4-1.66,18.42-1.1,15.57-1.64,16.3S96.42,248.07,96.5,250.41Z"/><path class="cls-4" d="M89.67,86.29s-.84,7.28-.5,8.74,1.12,3.28,2,3.32l1,4.51h4.32s-2.91-8.8-3.3-9.4l1.71-1.94S92.48,85.18,92.39,84c0,0,0,2.16-1.71,2.5C89.63,86.66,89.67,86.29,89.67,86.29Z"/><path class="cls-5" d="M89.67,86.29s-.84,7.28-.5,8.74,1.12,3.28,2,3.32l1,4.51h4.32s-2.91-8.8-3.3-9.4l1.71-1.94S92.48,85.18,92.39,84c0,0-.34,2-1.38,2.45C89.69,86.7,89.67,86.29,89.67,86.29Z"/><path class="cls-3" d="M71.38,80,73,73.44l7.14-4,7.68,1.3L91.72,74a41.12,41.12,0,0,1,.95,5.49,3.73,3.73,0,0,0,1,2.43c.3.35-.19.75-.48.83a3.84,3.84,0,0,1-3.63-1.67,4.21,4.21,0,0,1-.37-2.89A35.33,35.33,0,0,1,82.3,73.9a42.93,42.93,0,0,1-7.95,5.38c-.12,1.55-.29,3.63-1.63,3.87s-2-.08-2.08-.45.57-.77.77-1.55A1.38,1.38,0,0,0,71.38,80Z"/><path class="cls-1" d="M75.64,88.41A43.29,43.29,0,0,1,75,94.62s3.08,6,7.51,7.33a5.72,5.72,0,0,0,6.61-2.08s-.45-.44-.39-2.72,1-10.87,1-10.87A7,7,0,0,1,83.8,90.4,12.06,12.06,0,0,1,75.64,88.41Z"/><path class="cls-6" d="M84,102.25a5.45,5.45,0,0,0,5.09-2.38,9.31,9.31,0,0,0-.38-1.65c.13-3.14-.56-4.15-.73-4.2a16.51,16.51,0,0,0-1.66,3.28C85.74,99,84.28,99.4,84,102.25Z"/><path class="cls-7" d="M93.71,81.91a3.73,3.73,0,0,1-1-2.43c.06-1.12-1.26-9-1.26-9L88.17,67.1l-6-1V74l.09-.07a35.33,35.33,0,0,0,6.93,4.28,4.21,4.21,0,0,0,.37,2.89,3.84,3.84,0,0,0,3.63,1.67C93.51,82.66,94,82.25,93.71,81.91Z"/><path class="cls-8" d="M82.22,66.09l-1.73-.29-7,2.83L71.38,80a1.38,1.38,0,0,1,0,1.11c-.2.77-.86,1.18-.77,1.55s.73.69,2.08.45,1.51-2.32,1.63-3.87A42,42,0,0,0,82.22,74Z"/><path class="cls-2" d="M73.44,94.34s1.75-4.67,1-7.59c0,0-1.36-.1-1.52-.74a10.29,10.29,0,0,0-.45-1.64,2.72,2.72,0,0,1-.24-1.5H70.74s0,2-2.19,4.92S73.44,94.34,73.44,94.34Z"/><polygon class="cls-4" points="85.85 282.01 71.74 282.01 71.74 272.86 78.8 269.61 85.85 272.86 85.85 282.01"/><rect class="cls-2" x="1.45" y="413.86" width="153.1" height="24.83"/><polygon class="cls-2" points="133.57 417.05 23.07 417.05 24.93 390.16 131.71 390.16 133.57 417.05"/><rect class="cls-1" x="1.45" y="408.59" width="153.1" height="5.27"/><polygon class="cls-1" points="131.71 390.16 24.93 390.16 27.93 387.8 128.72 387.8 131.71 390.16"/><rect class="cls-2" x="27.94" y="378.05" width="100.77" height="9.74"/><polygon class="cls-9" points="128.72 378.05 27.94 378.05 26.04 375.12 130.61 375.12 128.72 378.05"/><rect class="cls-2" x="26.04" y="370.42" width="104.57" height="4.7"/><rect class="cls-2" x="26.88" y="368.62" width="102.9" height="1.8"/><rect class="cls-2" x="30.68" y="359.92" width="95.5" height="6.14"/><polygon class="cls-2" points="129.77 368.62 26.88 368.62 30.48 366.06 126.17 366.06 129.77 368.62"/><rect class="cls-4" x="35.3" y="298.95" width="87.32" height="60.97"/><rect class="cls-2" x="31.99" y="291.67" width="94.19" height="2.65"/><polygon class="cls-9" points="126.18 294.32 31.99 294.32 35.3 298.95 122.61 298.95 126.18 294.32"/><rect class="cls-2" x="50.91" y="298.83" width="55.8" height="61.1"/><rect class="cls-10" x="56.97" y="302.76" width="10.62" height="23.99"/><rect class="cls-10" x="73.18" y="302.76" width="10.62" height="23.99"/><rect class="cls-10" x="89.39" y="302.76" width="10.62" height="23.99"/><rect class="cls-1" x="34.87" y="333.95" width="88.83" height="2.79"/><rect class="cls-4" x="40.7" y="276.81" width="77.04" height="6.5"/><rect class="cls-4" x="30.68" y="287.82" width="96.35" height="3.85"/><rect class="cls-2" x="31.11" y="282.01" width="95.41" height="5.81"/><rect class="cls-9" x="31.11" y="279.85" width="3.76" height="7.97"/><rect class="cls-9" x="122.61" y="279.85" width="3.76" height="7.97"/><path class="cls-9" d="M105.28,279.85H107a1,1,0,0,1,1,1v6.94a0,0,0,0,1,0,0h-3.76a0,0,0,0,1,0,0v-6.94a1,1,0,0,1,1-1Z"/><path class="cls-9" d="M87,279.85h1.7a1,1,0,0,1,1,1v6.94a0,0,0,0,1,0,0H86a0,0,0,0,1,0,0v-6.94A1,1,0,0,1,87,279.85Z"/><path class="cls-9" d="M68.37,279.85h1.7a1,1,0,0,1,1,1v6.94a0,0,0,0,1,0,0H67.34a0,0,0,0,1,0,0v-6.94A1,1,0,0,1,68.37,279.85Z"/><path class="cls-9" d="M50.12,279.85h1.7a1,1,0,0,1,1,1v6.94a0,0,0,0,1,0,0H49.09a0,0,0,0,1,0,0v-6.94A1,1,0,0,1,50.12,279.85Z"/><rect class="cls-10" x="75.37" y="275.9" width="6.75" height="6.11"/><rect class="cls-4" x="42.71" y="267.45" width="73.01" height="6.76"/><polygon class="cls-4" points="115.72 267.45 42.71 267.45 40.7 263.15 117.74 263.15 115.72 267.45"/><polygon class="cls-4" points="117.74 276.81 40.7 276.81 42.71 274.21 115.72 274.21 117.74 276.81"/><rect class="cls-3" x="44.02" y="253.89" width="70.11" height="6.98"/><path class="cls-9" d="M53.34,120.25a23.5,23.5,0,0,0,3.09,4.13c.74.76.83,1,1.18,1,0,0,.4,4.21,1.39,5.26l.59-1A45.43,45.43,0,0,1,61.15,119c1.61-6.25,2.11-6.59,2.11-6.59s1.58-4.37,2.91-7l1.12-1.82a69.55,69.55,0,0,1,.64-7.66c.48-2.58-1.69,0-1.69,0L59,107.08Z"/><polygon class="cls-3" points="117.74 263.15 40.7 263.15 44.02 260.87 114.14 260.87 117.74 263.15"/><polygon class="cls-4" points="90.58 408.59 65.76 408.59 65.76 395.89 78.17 390.74 90.58 395.89 90.58 408.59"/><path class="cls-3" d="M58.69,71.59a5.54,5.54,0,0,1,4,1.55,6.38,6.38,0,0,1,2.59,4.19c.57.57,1.91,3.71,1.62,5s-2.43,8.76-6,12.91-6.38,5.1-8.43,5.24c-.62-.71-2.29-.48-2.91-.9S47.37,97.09,47,93.23s1.52-9.1,3.33-12.29,4-7.86,5.52-8.76A4.15,4.15,0,0,1,58.69,71.59Z"/><rect class="cls-10" x="74.29" y="399.19" width="7.8" height="9.4"/><polygon class="cls-2" points="81.99 53.45 83.37 66.14 80.61 66.14 81.99 53.45"/><polygon class="cls-2" points="97.25 58.95 89.78 68.24 87.36 66.9 97.25 58.95"/><polygon class="cls-2" points="104.9 67.23 92.68 72.36 91.41 70.43 104.9 67.23"/><polygon class="cls-2" points="107.59 75.49 92.81 76.6 92.81 74.38 107.59 75.49"/><polygon class="cls-2" points="66.31 59.38 74.18 68.34 76.52 66.88 66.31 59.38"/><polygon class="cls-2" points="58.89 70.3 71.9 72.8 72.14 70.64 58.89 70.3"/><polygon class="cls-2" points="56.45 75.49 71.24 76.6 71.24 74.38 56.45 75.49"/><path class="cls-3" d="M71,72.59s1.17-7.28,11-7.28,11.22,8,11.22,8l-6.75-2.68L78.95,70Z"/><path class="cls-1" d="M90.54,69.36A17.93,17.93,0,0,0,82,66.45a17.93,17.93,0,0,0-8.55,2.91C68.33,72.72,71.38,80,71.38,80a23.47,23.47,0,0,1,3-6.43c1.89-2.52,7.6-2.36,7.6-2.36s5.71-.15,7.6,2.36a27.39,27.39,0,0,1,3.15,5.9S95.26,72.27,90.54,69.36Z"/><rect class="cls-4" x="50.98" y="31.89" width="5.23" height="19.5"/><rect class="cls-2" x="48.69" y="11.55" width="6.25" height="3.46"/><path class="cls-1" d="M51.87,13.85a26.33,26.33,0,0,0-9.45,1.57l1.29,2.21V20H59.93V17.63l1.34-2.21C58.59,13.85,51.87,13.85,51.87,13.85Z"/><path class="cls-2" d="M61.32,20.23c-.27-.34-2.91-1.72-9.45-1.72s-9.17,1.39-9.45,1.72a.53.53,0,0,0,.18.87c.35.16.7.83.7.83l8.57-.43,8.57.43s.35-.68.7-.83A.53.53,0,0,0,61.32,20.23Z"/><polygon class="cls-1" points="47.16 27.49 48.66 34.75 49.79 34.93 48.78 27.61 47.16 27.49"/><path class="cls-2" d="M45.43,22.3s-.23,2.91.69,4.25,1.71,1.79,2.86,1.56-.73-5.81-.73-5.81Z"/><ellipse class="cls-9" cx="51.87" cy="21.94" rx="8.57" ry="1.9"/><polygon class="cls-2" points="48.37 26.42 55.12 26.37 53.94 41.3 49.55 41.3 48.37 26.42"/><path class="cls-11" d="M48.69,11.55s-2.84-2.27,0-5.58l.67-.72s-.95-1.61-.37-2,1.45.41,1.72.7A4.52,4.52,0,0,1,54,2.07s0-.78.68-.75a1.28,1.28,0,0,1,1.24,1.21s.85-1.07,1.24-.61A4.25,4.25,0,0,1,57,5.53c.75,0,.41,1.36,0,2.42.51,1-2,3.59-2,3.59Z"/><ellipse class="cls-1" cx="51.73" cy="24.91" rx="4.57" ry="2.34"/><path class="cls-1" d="M49.44,39.87l-.29-3.69s.15-.32.85-.39,1.14.51,1.62.29,1.62-1.18.85-2-4.15-.37-4.52-.18a2.06,2.06,0,0,0-.7,1.95c.18.81.82,4,1.74,4.51C49.55,40.38,49.44,39.87,49.44,39.87Z"/><path class="cls-1" d="M48.3,30.87s-1.43,0-1.47,1a1.8,1.8,0,0,0,1.47,1.92c.85.17,4.15.28,4.15.28s1.1-.4,1.07-1.25-.51-1.1-1.21-1.14S49.73,31,48.3,30.87Z"/><path class="cls-1" d="M47.19,28.77s-1.85,1-.69,2.3c.69.43,1.53-.14,2.29-.14a5.47,5.47,0,0,0,2.41-.19c.72-.36,1-1.79,0-1.79a13.71,13.71,0,0,1-1.7.09A4.72,4.72,0,0,0,47.19,28.77Z"/><path class="cls-1" d="M54.53,28.5l-.75-1.12s-1.29-.29-1.49.56a2.8,2.8,0,0,0,.93,2.74,3.87,3.87,0,0,1,1.38,2.25c-.12.82-.25,1.28-.31,2s-.7,2.72-.08,4.21c0,.44.24,2,.24,2A13.33,13.33,0,0,1,54,44.71c-.5,1.58.07,2.46-.18,3.84-.64,1.28-1.51,2.27-2.7,1.83A5.16,5.16,0,0,1,50,49.54s-.46,14.39,1.13,18.27A21,21,0,0,1,53,75.49C53.31,78.36,55.45,91,55.45,91l7.06-13.48a29.4,29.4,0,0,1-1.43-3.19c-.24-.86,1-3.66.79-7.93s-3-12.51-3.33-15-1-7.31-.55-10.83.24-5.26-.63-7.4a9,9,0,0,1-.9-2.75,1.59,1.59,0,0,0-1.08-1.21A1.5,1.5,0,0,1,54.53,28.5Z"/><path class="cls-12" d="M54.53,28.5l-.75-1.12s-1.29-.29-1.49.56a2.8,2.8,0,0,0,.93,2.74,3.87,3.87,0,0,1,1.38,2.25c-.12.82-.25,1.28-.31,2s-.7,2.72-.08,4.21c0,.44.24,2,.24,2A13.33,13.33,0,0,1,54,44.71c-.5,1.58.07,2.46-.18,3.84-.64,1.28-1.51,2.27-2.7,1.83A5.16,5.16,0,0,1,50,49.54s-.46,14.39,1.13,18.27A21,21,0,0,1,53,75.49C53.31,78.36,55.45,91,55.45,91l7.06-13.48a29.4,29.4,0,0,1-1.43-3.19c-.24-.86,1-3.66.79-7.93s-3-12.51-3.33-15-1-7.31-.55-10.83.24-5.26-.63-7.4a9,9,0,0,1-.9-2.75,1.59,1.59,0,0,0-1.08-1.21A1.5,1.5,0,0,1,54.53,28.5Z"/><rect class="cls-2" x="49.62" y="43.24" width="4.25" height="7.28" rx="1.16" ry="1.16"/><path class="cls-1" d="M53.75,43.24l-2,.24-2-.24L48.57,44.3s.06.62,1.06,1.18a4.11,4.11,0,0,1,4.25,0c1-.56,1.06-1.18,1.06-1.18Z"/><path class="cls-13" d="M53.75,43.24l-2,.24-2-.24L48.57,44.3s.06.62,1.06,1.18a4.11,4.11,0,0,1,4.25,0c1-.56,1.06-1.18,1.06-1.18Z"/><path class="cls-2" d="M54.47,42.67l-1.13-.9L51.75,42l-1.59-.22-1.13.9a2.14,2.14,0,0,0-.46,1.63s.66-.82,3.18-.82,3.18.82,3.18.82A2.14,2.14,0,0,0,54.47,42.67Z"/><path class="cls-1" d="M53.94,41.3l-2.2-.73-2.2.73A1.6,1.6,0,0,0,49,42.67a5.77,5.77,0,0,1,5.44,0A1.6,1.6,0,0,0,53.94,41.3Z"/><path class="cls-14" d="M53.94,41.3,51.6,39.9l-2,1.4A1.6,1.6,0,0,0,49,42.67a5.77,5.77,0,0,1,5.44,0A1.6,1.6,0,0,0,53.94,41.3Z"/><polygon class="cls-3" points="107.32 135.17 117.36 120.98 118.19 121.49 119.27 119.14 131.91 125.68 129.82 127.15 130.77 127.84 112.98 157.84 109.48 156.38 107.32 135.17"/><polygon class="cls-2" points="112.98 157.84 114.76 158.85 132.68 129.31 131.91 128.48 133.5 126.64 131.91 125.68 129.82 127.15 130.77 127.84 112.98 157.84"/><path class="cls-9" d="M109.48,156.38,111,168.92l1.74-2.61,2-.32s1.7.13,2.72-2.48a55,55,0,0,0,2.39-9.42c.43-2.63.58-5.21.58-5.21l2.32-.49s-.41-1.89.79-2.59l-.67-1.14-8.19,14.16-1.69-1Z"/><path class="cls-9" d="M49.81,100s2.52.56,2.45.89a6.35,6.35,0,0,0-1.44,2.76c-.16.94-.25,1.76.26,1.89s.93.41,1.58,0l2.42,4s.86-5.94,1.72-7.71A28.06,28.06,0,0,1,59.49,97S56,99.85,54.6,100a5.82,5.82,0,0,1-1.26.07,9.94,9.94,0,0,1-1.22-.17c-.58-.08-1.59-.25-2.78-.55Z"/><path class="cls-1" d="M63.08,90.5s-1.56,4.82-4.33,6.88c-1.21,1.28-2.84,5.75-3.12,7.73a43.44,43.44,0,0,1-1.42,6c-.57,1.92-.72,3,0,3.15s.76.1.57.48-2.43,4.15-1.76,5.49,7.8-4.91,10.06-10.61,5.06-12,5.69-22.43c-.72-1.81-1.54-.18-1.9-2.35S63.08,90.5,63.08,90.5Z"/><path class="cls-1" d="M68.24,86.14a21.15,21.15,0,0,1,5.66,6.48c2.51,4.34,8.29,8.58,9.54,9a17.09,17.09,0,0,1,2.89,1.35s-8.09,8.19-13.78,12.81-13.68,14.93-13.68,14.93a95.65,95.65,0,0,1,2.39-12.41,71.64,71.64,0,0,1,3.3-9.5L67,103.38c.51-2,.25-4.83.95-7.46.06-.39-.14-.83-.07-1.21C68.27,91.79,68.93,89.48,68.24,86.14Z"/><path class="cls-3" d="M80,86.89a2.72,2.72,0,0,0,1.91,1h1.24a2.63,2.63,0,0,0,1.6-1c0-.66-1-.77-1.26-.74a6.49,6.49,0,0,0-.9.3,2.63,2.63,0,0,0-1.4-.31A1.85,1.85,0,0,0,80,86.89Z"/><path class="cls-9" d="M74.26,91.29h1.18a6.75,6.75,0,0,0-.43-5,1.12,1.12,0,0,0-.68.71Z"/><path class="cls-3" d="M84.65,103.49s-26.86,23.27-30.12,36.16c-2.94,9.86-1.84,12.25,0,13.08a8.86,8.86,0,0,0,4.16.54,13.23,13.23,0,0,1,1.37-6.41c1.58-2.73,4.73-9.25,7.67-12.09s11.56-9,14.09-12.82S94,103.85,93.48,103.49,88.54,101.23,84.65,103.49Z"/><path class="cls-3" d="M89.84,167.37s-1.61,4.89-4.55,7.58c-1.59,1.71-2.2,3.67-3.92,5.88S75,187,73.11,189.9,68.39,198.1,65,200.55s-6.49,4.53-7.47,3.92-.12-2.57,0-4.53,1.22-3.06,1.22-5-1.59-8-.31-12.74,1.65-9,4.78-14.81,7.28-20.83,10.25-26.15,8.38-19.28,8.38-19.28l11.67-18.45s6.8,6.93,6.25,14.71c0,2.49-1.54,7.35-1.54,7.35s-4.06,2.83-3.53,5.12,5.3,2.92,4.33,7.16-1.77,4.51-3.71,6.54-5.39,4.24-5.48,5.65.44,2.47,1,2.65Z"/><path class="cls-3" d="M47,254.15s3.62-.83,6.13-5.39,3.54-8.17,3.34-9.12a1.65,1.65,0,0,0,1.7,1.23c1.5.07,4.17-3,4.17-3l2.25,2.3.46,8.1-4.15,4.22Z"/><path class="cls-3" d="M58.63,152.86a16.17,16.17,0,0,1,2.14-7.13c2.14-3.85,3.42-9.13,8-12.69s8.27-5.85,11.41-9.27S87,113.64,87,113.64,73.74,140.88,71.46,144,62.33,167.41,62,168.26s-3,6-3.42,10.7l-.43,4.71A24.61,24.61,0,0,0,57.06,180s-1-5.07-.85-6.59c0,0-1.79-3-1.68-4.6s1.34-6,2.24-7,1.8-4.44,1.8-4.44A26.38,26.38,0,0,1,58.63,152.86Z"/><path class="cls-2" d="M52.83,147.26a1.43,1.43,0,0,0-.25.7c-.11,1.25-.28,5.16,3.87,5.28,2.18.2,2.2,0,2.2,0a14.21,14.21,0,0,1,1-4.41A46.28,46.28,0,0,1,64,140.47c1.71-2.7,4.32-6.92,6.57-8.36a23.9,23.9,0,0,0,4.86-3.69c2.34-2.16,4.77-3.06,6.74-6s4.41-9.17,4.95-9.62a75.16,75.16,0,0,1-6.92,9.71c-2.74,1.82-6.3,5.77-7.71,6.83a48.86,48.86,0,0,0-7.79,6.77c-3.09,3.44-4.5,8-6.18,9s-3.25-.82-4.23.35C53.59,146.17,53.09,146.88,52.83,147.26Z"/><path class="cls-3" d="M47,254.15H75.77a19.23,19.23,0,0,0,4.73-9.2c3.66-9.13,1.62-23.46,1.62-23.46s-9.85,4.46-11.51,6.74S70.31,231,68,232.9s-5.7,4-6.33,6,1.66,4.87-2,7.67S55.75,251.34,47,254.15Z"/><path class="cls-2" d="M57.78,188.29A50.7,50.7,0,0,1,61.66,171c4.59-9.54,7.1-17.76,9.85-24.71,3.11-6.76,6.94-16,6.94-16s-7.94,13.55-11.64,23.36-4.47,10.79-4.58,12.42-2.4,5-2.83,7.52S57,183.82,57.78,188.29Z"/><path class="cls-3" d="M60.4,202.85s-2.53,1.93-3.75,6.89c-1.52,2.53-1.22,12.88-1.22,12.88l1.32,7.3s-1.12.71-.71,1.62a7.64,7.64,0,0,1,.51,1.42s-2.28.71-1.14,4.16,1.34,5.17,4.18,4.46,2.64-1.12,3-2A5.33,5.33,0,0,1,65,236.3c2-1.52,5.07-3.24,6.18-6.79.71-1.93,2.94-2.84,9.94-6.29s11.86-5.58,12.57-7,.91-1.72-2.33-3.14-3.91-.33-4.15-2.77,2.67-42.94,2.67-42.94a104.33,104.33,0,0,1-8.91,13.82,62.85,62.85,0,0,0-4.73,5.06c-2.36,2.77-4.24,4.65-5.54,6.2s-2.45,4.32-4.24,6.2A33.08,33.08,0,0,1,60.4,202.85Z"/><path class="cls-2" d="M57.48,204.47s7-2.74,10.12-7.5,6.39-9.33,9.73-12.27,12.51-17.33,12.51-17.33l-.34,4.75a20.39,20.39,0,0,0-7.71,9.44c-2.84,6.69-7.4,13.28-13.18,34.37-1.42,4.76-2.64,8.72-2.64,8.72s-1.42,1.62-3.65-1.12S56.77,208.63,57.48,204.47Z"/><path class="cls-2" d="M94.05,215.28s-2.81,3-9.81,6.13a73.28,73.28,0,0,0-13.13,7.2c0,1.13-1.12,3.52-3,5.22s-4.15,2.7-5.39,4.33c0,0,.79-.7,1.17.08-.15,2.4-4.16,10.52-4.16,10.52h.18s3.86-7.95,4.52-8.7,1.2-3,1.54-3.36a26.77,26.77,0,0,1,3.47-3.23c.79-.45,2.47-4.08,2.44-4.56s.86-1,1.89-.72c2-.72,2.54-1.17.58,4.63s-2,5.82-1.82,6.55.52.64-.15,1.8-4,5.73-4,5.73v.58s5.12-5.7,5.27-8.32,3.78-11.85,3.78-11.85l.12-1.52s12.88-5.47,14.9-7.55c2.19-1.72,3.21-3,3.25-3.91s0-9.47,0-9.47l-1,.46S94.58,214.77,94.05,215.28Z"/><path class="cls-3" d="M90.77,152.67S89,175,88.55,180.68s-.17,10.19-.69,16.15-1.3,12.43-.78,13.3c0,0,.14-1.07,2.15-2s16-8.93,16-8.93l4.05-2.56s1.06-.08.43-2.95-2.36-15.93-2.36-15.93-1.45-20.94-2.22-24.36l2.14-2.05-3.82-11-1.21,1.08s-1.36-7.36-2.44-8.2c-.42-.37-.41,3.2-.83,4.56a13.52,13.52,0,0,1-1.56,3.89,24.07,24.07,0,0,1-4.57,4.84c-1.73,1.36-3.8,1.72-3.32,4.55A1.72,1.72,0,0,0,90.77,152.67Z"/><path class="cls-9" d="M109.59,223.89l.23,5a4.14,4.14,0,0,0,2.11-3.28C111.91,223.5,109.59,223.89,109.59,223.89Z"/><path class="cls-2" d="M95,205s-10.07,4.56-8.39,6.11,5,3,6.67,4.2c.75.54.75.54,1.32.57C95.11,215.44,95,205,95,205Z"/><path class="cls-1" d="M100.91,201.64a6.2,6.2,0,0,0,3.79,1.86,3.71,3.71,0,0,1,3.74,2c0,2,1.16,18.37,1.16,18.37s2.18.62,2.34,1.72a125.71,125.71,0,0,0-.82-13.49l.82-.16a5.73,5.73,0,0,0-.31-1.68,2.18,2.18,0,0,1-.18-1.17l1.61-.94a9.21,9.21,0,0,0-.33-2c-.13-.77.05-1.33,0-2.35s-.18-2-.18-2,1.93-.54,1.82-1.18-.18-1-.18-1l.46-.57-1.28-9.9s.61,0-.06-5.45-2-16.42-2-16.42-2.49-31.57-5.38-42.53-3.25-16.39-3.25-16.39l-4-3H96.28s4,9.52,4.58,15.06,6.27,41.25,6,45.09,3,30.47,3,30.47Z"/><path class="cls-3" d="M105.87,118.25a34.63,34.63,0,0,1-2.44-5.74c-1.09-3.35-3-5.92-5.29-6s-3.31-1.55-4.65-3c-2-1.21-2-2.57-3.29-3s-1.95-.93-.93-.93,6.77.7,7.47,1.87c0,0,.49,0-.07,1.48a10.5,10.5,0,0,0,3.06,1.26,5,5,0,0,1,2.05,2.3c.84.49,2.1,1.87,2.77,4.92S105.87,118.25,105.87,118.25Z"/><path class="cls-2" d="M94.93,105.28l1.4,1.4a4.45,4.45,0,0,1,3.49.4,7,7,0,0,1,2.6,3.32,1.11,1.11,0,0,1-.21.86s-.3,3.23.57,5a39.88,39.88,0,0,1,3.59,11.19s1.14-5.84.61-7-1-1.29-1.12-2.16-.85-5.07-1.26-6.65-.71-3.07-1.5-3.87a11.46,11.46,0,0,0-4.44-2.21c-.82,0-.63.41-1.34,0s-.49-.71-1.18-.71H94.7Z"/><path class="cls-2" d="M83,79.44s-.09,3,0,3.6a2.15,2.15,0,0,0,.12.65.87.87,0,0,1-.83.58c-.65,0-.93-.3-1.26-.17s-.77.45-.29.71,2.29,3,2.72,3,1.3,0,1.32-.65S83.76,81,83.76,81a19.34,19.34,0,0,0,3.93,0c.67-.26,2.23-1.11,2.23-1.11l-.43-2.52a1.55,1.55,0,0,1-1.78.91,20.29,20.29,0,0,1-2.36-.43S83,77.45,83,79.44Z"/><path class="cls-9" d="M107.88,182.11v-1.8s4.4,1.87,5.46,3.84c.85,4.65,0,5,0,5s.43-2-1.42-5C110.82,182.92,107.88,182.11,107.88,182.11Z"/><path class="cls-9" d="M109.14,199.6s5.05-1.84,5.41-1.13a.86.86,0,0,1-.39,1.12s.46,1,0,1.38a5.29,5.29,0,0,1-1.62.81Z"/><path class="cls-9" d="M111.45,209.1s2.5-.64,1.49-2c0,0-1.24-.49-1.47-1.09Z"/><path class="cls-2" d="M90.68,152.43a1.86,1.86,0,0,1-.81-2.16c.5-1.36,3.57-3.62,3.57-3.62a17.89,17.89,0,0,0,3.93-4,6.5,6.5,0,0,0,1.23-3.68c.16-1,.5-.77.58-1.64s-.13-3.81-.13-3.81l.77,1.85a23.79,23.79,0,0,1-.82,6.88s-.77,1.19-1.53,2.17a1.17,1.17,0,0,1-.85,0S92.68,148,91.68,150s.16,1.32-.13,1.88A1,1,0,0,1,90.68,152.43Z"/><path class="cls-2" d="M96,129.78s2.79-1.86,3.72-.89.31,2.05.62,2.13.83-.51,1,.26,3.22,12.75,4.46,14.22,2.44,2.21,2.6,3.41c.11.7-.08.83-.51,1.41a2.31,2.31,0,0,0-.21,2.27c.33,1,2.16,5.54,1.69,7.09-.29.65-1.33,1-1.33,1s3.1,16.59,3.06,21.38c-2-1.66-3.35-1.3-3.35-1.3s-.49-13.52-1.15-17.94l-1.74-9.51S107,151.49,107,151s-4-10.78-4-10.78l-.85.61s-1.74-7.72-2.92-8.61A5.08,5.08,0,0,0,96,130.83C94.84,130.83,96,129.78,96,129.78Z"/><path class="cls-1" d="M106,119.54a15.85,15.85,0,0,0,5.53,5.27c.79.38.74.73.62,1.06s1.2.7,1.2,1.13-1.15,1.85-1.15,1.85l-1.35,1.91a9.71,9.71,0,0,1-.44,5.42,30.47,30.47,0,0,1-2.76,4.5Z"/><path class="cls-2" d="M109,134.77s-1-.49-1.43.29a8.69,8.69,0,0,0-.29,3l.37,2.65,1.8,11.31.53,4.57.69.2s-1.06-14-1.14-14.66-.59-.57-.56-1.18-.09-1.59.52-2c-.37-.73.28-1.16.5-1.58a8.77,8.77,0,0,0,.89-2.89c-.05-.72-1,1.64-1,1.64s-.23.89-.63.92-.31-.54-.11-.65a.38.38,0,0,0,0-.56c-.13-.05-.36-.16-.29-.42S109.3,134.75,109,134.77Z"/><path class="cls-3" d="M75.11,86a1.17,1.17,0,0,1-2,.3,3.45,3.45,0,0,1-1-3.25c.18-.29.91-1.5,1.79-1.35S75.11,86,75.11,86Z"/><path class="cls-3" d="M89.45,85.76s.18,1.33,1.17,1.12a2.47,2.47,0,0,0,1.61-2,2.83,2.83,0,0,0-.48-2.74,1.82,1.82,0,0,0-2.3-.73Z"/><ellipse class="cls-4" cx="85.56" cy="79.53" rx="2.27" ry="1.5"/><ellipse class="cls-4" cx="78.79" cy="79.93" rx="2.27" ry="1.5"/><path class="cls-3" d="M83,79.44V83s.46.51.31.65-.79.68-.79.68a.86.86,0,0,1-.77,0c-.44-.2.26-4.93.26-4.93Z"/><path class="cls-3" d="M81.17,79.44V83s-.46.51-.31.65.79.68.79.68a.86.86,0,0,0,.77,0c.44-.2-.24-4.93-.24-4.93Z"/><path class="cls-2" d="M75.88,78.42s1.53,9.84,3.1,10.37a6.21,6.21,0,0,1,2.66,2.06,32.29,32.29,0,0,1-4.92-.73,1.08,1.08,0,0,1-.66-.63,32.61,32.61,0,0,1-2.13-7.28C73.52,78.84,75.88,78.42,75.88,78.42Z"/><path class="cls-2" d="M90.08,79.53a13.29,13.29,0,0,1-1.72,2.71c-1,1.09-1.21,1.32-1.25,1.85a8.76,8.76,0,0,1-.4,3.26c-.8,2-2,3.11-1.06,2.86s3.57-1,3.65-1.67a23.53,23.53,0,0,0,.54-4.87A34.29,34.29,0,0,1,90.08,79.53Z"/><path class="cls-2" d="M76.07,89s1.12,2.92,5.42,6.52,6.76,5.27,6.76,5.27l.85-.92a8.42,8.42,0,0,0-.38-1.65l.95-11.93s-1.73,5.57-6.21,6S76.07,89,76.07,89Z"/><path class="cls-4" d="M75.64,88.41s3.83,5.81,8.55,4.8c5-1.45,5.62-5.49,5.49-6.92a7.82,7.82,0,0,1-6,4.12A13.53,13.53,0,0,1,75.64,88.41Z"/></svg>