<svg id="Layer_1" data-name="Layer 1" xmlns="http://www.w3.org/2000/svg" xmlns:xlink="http://www.w3.org/1999/xlink" viewBox="0 0 438 156"><defs><style>.cls-1{fill:none;}.cls-2{fill:#9ba7b6;}.cls-3{fill:#f1f1f1;}.cls-4{fill:#c3ebce;}.cls-5{fill:url(#linear-gradient);}.cls-6{fill:#f5dc51;}.cls-7{fill:url(#linear-gradient-2);}.cls-17,.cls-8{fill:#f3d632;}.cls-9{fill:url(#linear-gradient-3);}.cls-10{fill:url(#linear-gradient-4);}.cls-11{fill:url(#linear-gradient-5);}.cls-12{fill:url(#linear-gradient-6);}.cls-13{fill:#ddf4e3;}.cls-14{clip-path:url(#clip-path);}.cls-15{clip-path:url(#clip-path-2);}.cls-16{clip-path:url(#clip-path-3);}.cls-17{opacity:0.25;}</style><linearGradient id="linear-gradient" x1="433.14" y1="98.35" x2="392.18" y2="98.35" gradientUnits="userSpaceOnUse"><stop offset="0.23" stop-color="#fff" stop-opacity="0"/><stop offset="0.31" stop-color="#fffef8" stop-opacity="0.03"/><stop offset="0.43" stop-color="#fefae6" stop-opacity="0.12"/><stop offset="0.58" stop-color="#fcf4c7" stop-opacity="0.26"/><stop offset="0.75" stop-color="#f9eb9d" stop-opacity="0.45"/><stop offset="0.93" stop-color="#f6e067" stop-opacity="0.7"/><stop offset="1" stop-color="#f5dc51" stop-opacity="0.8"/></linearGradient><linearGradient id="linear-gradient-2" x1="403.72" y1="128.2" x2="403.72" y2="113.25" gradientUnits="userSpaceOnUse"><stop offset="0.23" stop-color="#fff" stop-opacity="0"/><stop offset="1" stop-color="#f3d632"/></linearGradient><linearGradient id="linear-gradient-3" x1="424.32" y1="125.46" x2="424.32" y2="113.25" xlink:href="#linear-gradient-2"/><linearGradient id="linear-gradient-4" x1="1133.49" y1="98.35" x2="1097.51" y2="98.35" gradientTransform="matrix(1, 0, 0, -1, -1087.63, 196.71)" xlink:href="#linear-gradient"/><linearGradient id="linear-gradient-5" x1="1109.46" y1="128.2" x2="1109.46" y2="113.25" gradientTransform="matrix(1, 0, 0, -1, -1075.55, 241.46)" xlink:href="#linear-gradient-2"/><linearGradient id="linear-gradient-6" x1="1130.06" y1="125.46" x2="1130.06" y2="113.25" gradientTransform="matrix(1, 0, 0, -1, -1116.75, 238.71)" xlink:href="#linear-gradient-2"/><clipPath id="clip-path"><path class="cls-1" d="M239.33,96.92V96a20.73,20.73,0,0,0-5.86-14.6,19.81,19.81,0,0,0-14.23-6.07A20.64,20.64,0,0,0,198.85,96v1Z"/></clipPath><clipPath id="clip-path-2"><path class="cls-1" d="M137.6,96.92V96a20.75,20.75,0,0,0-5.84-14.6,19.73,19.73,0,0,0-14.2-6.07A20.61,20.61,0,0,0,97.22,96v1Z"/></clipPath><clipPath id="clip-path-3"><path class="cls-2" d="M340.81,96.92V96A20.75,20.75,0,0,0,335,81.35a19.73,19.73,0,0,0-14.2-6.07A20.61,20.61,0,0,0,300.43,96v1Z"/></clipPath></defs><title>newyork</title><rect class="cls-3" x="393.21" y="51.38" width="39.93" height="4.38"/><rect class="cls-4" x="392.18" y="55.77" width="40.96" height="13.99"/><rect class="cls-3" x="392.18" y="69.76" width="40.96" height="2.4"/><rect class="cls-3" x="392.18" y="72.15" width="40.96" height="24.81"/><rect class="cls-4" x="392.18" y="96.95" width="40.96" height="42.78"/><rect class="cls-5" x="392.18" y="51.38" width="40.96" height="93.94"/><rect class="cls-6" x="393.96" y="84.06" width="14.64" height="9.4"/><rect class="cls-4" x="395.21" y="84.87" width="12.12" height="7.79"/><rect class="cls-6" x="416.43" y="84.06" width="14.64" height="9.4"/><rect class="cls-4" x="417.69" y="84.87" width="12.12" height="7.79"/><rect class="cls-4" x="392.18" y="96.7" width="40.96" height="2.29"/><rect class="cls-6" x="392.18" y="99" width="40.96" height="2.1"/><rect class="cls-3" x="397.62" y="113.25" width="12.2" height="11.62"/><rect class="cls-7" x="397.62" y="113.25" width="12.2" height="14.95"/><rect class="cls-8" x="392.18" y="78.62" width="40.96" height="0.47"/><rect class="cls-8" x="392.18" y="69.76" width="40.96" height="0.47"/><rect class="cls-2" x="397.62" y="116.67" width="12.14" height="23.06"/><rect class="cls-8" x="399.54" y="119.38" width="8.29" height="20.35"/><rect class="cls-2" x="395.2" y="111.75" width="16.97" height="1.51"/><polygon class="cls-2" points="412.17 111.75 395.2 111.75 395.2 110.38 403.69 106.97 412.17 110.38 412.17 111.75"/><polygon class="cls-8" points="408.05 111.84 399.23 111.84 397.45 111.84 403.64 109.36 409.82 111.84 408.05 111.84"/><rect class="cls-6" x="396.59" y="113.25" width="1.03" height="6.94"/><rect class="cls-2" x="409.76" y="113.25" width="1.03" height="6.94"/><rect class="cls-3" x="418.22" y="113.25" width="12.2" height="11.62"/><rect class="cls-9" x="418.22" y="113.25" width="12.2" height="12.2"/><rect class="cls-2" x="418.22" y="116.67" width="12.14" height="23.06"/><rect class="cls-2" x="420.14" y="119.38" width="8.29" height="20.35"/><rect class="cls-2" x="415.81" y="111.75" width="16.97" height="1.51"/><polygon class="cls-2" points="432.77 111.75 415.81 111.75 415.81 110.38 424.29 106.97 432.77 110.38 432.77 111.75"/><polygon class="cls-8" points="428.65 111.84 419.83 111.84 418.06 111.84 424.24 109.36 430.42 111.84 428.65 111.84"/><rect class="cls-6" x="417.19" y="113.25" width="1.03" height="6.94"/><rect class="cls-6" x="430.36" y="113.25" width="1.03" height="6.94"/><rect class="cls-8" x="392.18" y="55.3" width="40.96" height="0.47"/><rect class="cls-8" x="392.18" y="51.38" width="40.96" height="0.47"/><path class="cls-8" d="M412.49,81.39s.8-2,1.71-1.52-.23,2-.23,2,1,.29,1,1.14a27,27,0,0,1,0,7.57c-.66,4.67-.65,4.8-.65,4.8h-3.2s.34-6.2-.26-7.78-1.46-1.34-1.56-2.09-.1-1.66.5-1.86,2.08-1.71,2.45-1.66S412.49,81.39,412.49,81.39Z"/><rect class="cls-8" x="410.27" y="95.34" width="4.95" height="0.45"/><rect class="cls-8" x="409.41" y="95.79" width="6.58" height="0.91"/><rect class="cls-2" x="4.91" y="51.38" width="39.93" height="4.38" transform="translate(49.74 107.15) rotate(-180)"/><rect class="cls-4" x="4.91" y="55.77" width="40.96" height="13.99" transform="translate(50.77 125.52) rotate(-180)"/><rect class="cls-2" x="4.91" y="69.76" width="40.96" height="2.4" transform="translate(50.77 141.91) rotate(-180)"/><rect class="cls-2" x="4.98" y="72.15" width="40.96" height="24.81" transform="translate(50.92 169.12) rotate(-180)"/><rect class="cls-4" x="4.98" y="96.95" width="40.96" height="42.78" transform="translate(50.92 236.69) rotate(-180)"/><rect class="cls-10" x="9.88" y="51.38" width="35.99" height="93.94" transform="translate(55.74 196.71) rotate(-180)"/><rect class="cls-6" x="29.03" y="84.06" width="14.64" height="9.4" transform="translate(72.71 177.53) rotate(-180)"/><rect class="cls-4" x="30.29" y="84.87" width="12.12" height="7.79" transform="translate(72.71 177.53) rotate(-180)"/><rect class="cls-6" x="6.56" y="84.06" width="14.64" height="9.4" transform="translate(27.76 177.53) rotate(-180)"/><rect class="cls-4" x="7.82" y="84.87" width="12.12" height="7.79" transform="translate(27.76 177.53) rotate(-180)"/><rect class="cls-4" x="4.98" y="96.7" width="40.96" height="2.29" transform="translate(50.92 195.7) rotate(-180)"/><rect class="cls-6" x="4.98" y="99" width="40.96" height="2.1" transform="translate(50.92 200.1) rotate(-180)"/><rect class="cls-3" x="27.81" y="113.25" width="12.2" height="11.62" transform="translate(67.82 238.13) rotate(-180)"/><rect class="cls-11" x="27.81" y="113.25" width="12.2" height="14.95" transform="translate(67.82 241.46) rotate(-180)"/><rect class="cls-8" x="4.91" y="78.62" width="40.96" height="0.47" transform="translate(50.77 157.71) rotate(-180)"/><rect class="cls-8" x="4.91" y="69.76" width="40.96" height="0.47" transform="translate(50.77 139.98) rotate(-180)"/><rect class="cls-2" x="27.87" y="116.67" width="12.14" height="23.06" transform="translate(67.89 256.4) rotate(-180)"/><rect class="cls-8" x="29.8" y="119.38" width="8.29" height="20.35" transform="translate(67.89 259.11) rotate(-180)"/><rect class="cls-2" x="25.46" y="111.75" width="16.97" height="1.51" transform="translate(67.89 225) rotate(-180)"/><polygon class="cls-2" points="25.46 111.75 42.43 111.75 42.43 110.38 33.94 106.97 25.46 110.38 25.46 111.75"/><polygon class="cls-8" points="29.58 111.84 38.4 111.84 40.17 111.84 33.99 109.36 27.81 111.84 29.58 111.84"/><rect class="cls-6" x="40.95" y="113.25" width="1.03" height="6.94" transform="translate(82.93 233.45) rotate(-180)"/><rect class="cls-6" x="26.84" y="113.25" width="1.03" height="6.94" transform="translate(54.72 233.45) rotate(-180)"/><rect class="cls-3" x="7.21" y="113.25" width="12.2" height="11.62" transform="translate(26.62 238.13) rotate(-180)"/><rect class="cls-12" x="7.21" y="113.25" width="12.2" height="12.2" transform="translate(26.62 238.71) rotate(-180)"/><rect class="cls-2" x="7.27" y="116.67" width="12.14" height="23.06" transform="translate(26.68 256.4) rotate(-180)"/><rect class="cls-8" x="9.19" y="119.38" width="8.29" height="20.35" transform="translate(26.68 259.11) rotate(-180)"/><rect class="cls-2" x="4.86" y="111.75" width="16.97" height="1.51" transform="translate(26.68 225) rotate(-180)"/><polygon class="cls-2" points="4.86 111.75 21.82 111.75 21.82 110.38 13.34 106.97 4.86 110.38 4.86 111.75"/><polygon class="cls-8" points="8.98 111.84 17.8 111.84 19.57 111.84 13.39 109.36 7.21 111.84 8.98 111.84"/><rect class="cls-6" x="19.41" y="113.25" width="1.03" height="6.94" transform="translate(39.85 233.45) rotate(-180)"/><rect class="cls-2" x="6.24" y="113.25" width="1.03" height="6.94" transform="translate(13.51 233.45) rotate(-180)"/><rect class="cls-8" x="4.91" y="55.3" width="40.96" height="0.47" transform="translate(50.77 111.06) rotate(-180)"/><rect class="cls-8" x="4.91" y="51.38" width="40.96" height="0.47" transform="translate(50.77 103.23) rotate(-180)"/><path class="cls-8" d="M25.15,81.39s-.8-2-1.71-1.52.23,2,.23,2-1,.29-1,1.14a27,27,0,0,0,0,7.57c.66,4.67.65,4.8.65,4.8h3.2s-.34-6.2.26-7.78,1.46-1.34,1.56-2.09.1-1.66-.5-1.86S25.78,81.92,25.42,82,25.15,81.39,25.15,81.39Z"/><rect class="cls-8" x="22.41" y="95.34" width="4.95" height="0.45" transform="translate(49.78 191.13) rotate(-180)"/><rect class="cls-8" x="21.63" y="95.79" width="6.58" height="0.91" transform="translate(49.85 192.5) rotate(-180)"/><polygon class="cls-2" points="387.05 31.89 50.01 31.89 46.69 29.62 389.77 29.62 387.05 31.89"/><rect class="cls-2" x="46.68" y="28" width="344.39" height="1.62"/><rect class="cls-6" x="46.68" y="26.38" width="344.39" height="1.62"/><polygon class="cls-6" points="391.07 26.38 46.69 26.38 44.81 25.44 392.95 25.44 391.07 26.38"/><path class="cls-6" d="M392.16,16.57a5.34,5.34,0,0,0-2.81,1.91v.81s-1-.74-2.67.67h-5.93l.56-1.24s.28-.37,0-.63,1.18-2,1.18-2l0-1.24h-1s-2.52,1-2.76,2.9c-.87-.34-2.39-.16-2.68,1.1h-4.58a.74.74,0,0,0-.67-.85s.47-.77.12-.87.08-.49-.2-.49a2.28,2.28,0,0,0-1.58,1,1.48,1.48,0,0,0-1.76,0c-.36.37-.85.87-.85.87H366v-1a5,5,0,0,1,1.78-1.4c.95-.36-.32-.41-.51-.41s-.69-.87-.69-.87a3.15,3.15,0,0,0-.85-3.85c-.59-.55-2.92,2-2.92,2s-.24,1.64.18,1.83.71.32.22.47-1.8-.16-1.91,1.08-.2,2.19-.2,2.19l-.34-.14s0-1.1-1.44-1.1a1.38,1.38,0,0,0-.91.43s-.1-1.12-1-1.22-1.26,2.35-1.26,2.35l-4.5-.24a1.08,1.08,0,0,0-1-1.26A2.77,2.77,0,0,0,347.88,15c-1.46,0-3.12.55-3.2,2.13a16.5,16.5,0,0,0,.14,3h-6.21s.18-.49-.43-1.08.14-1.58-.24-2a2.83,2.83,0,0,0-4.54-.12,9.87,9.87,0,0,0-1.74,3.1h-6.79a1.33,1.33,0,0,0-.63-1.14c0-.73.3-2-.95-2.35a4.41,4.41,0,0,0-3.91.65,17.86,17.86,0,0,0-1.85,3h-6.73s.18-1.08-.39-1.22c0-.61.3-2.82-2.51-2.84a4,4,0,0,0-3.69,2.78s-.65,0-.73,1.22H297s.12-1-.73-1.12c.08-.89.06-2.56-1.93-2.76A3.7,3.7,0,0,0,290.44,19L290,19a2.84,2.84,0,0,0-.08.93H287v5.56H390.35a1,1,0,0,1,.13-1.47c.45-.45,0-.81-.19-.94s-.61-.47-.41-.72.87,0,1.13-.37S392.31,20,392.31,20a.8.8,0,0,0,0-.86c-.13-.27.64-1.53.64-1.53S393.89,16.16,392.16,16.57Z"/><path class="cls-6" d="M44.73,25.44A1,1,0,0,0,44.6,24c-.45-.45,0-.81.19-.94s.61-.47.41-.72-.87,0-1.13-.37S42.77,20,42.77,20a.8.8,0,0,1,0-.86c.13-.27-.64-1.53-.64-1.53s-.94-1.48.79-1.08a5.34,5.34,0,0,1,2.81,1.91v.81s1-.74,2.67.67h5.93l-.56-1.24s-.28-.37,0-.63-1.18-2-1.18-2l0-1.24h1s2.52,1,2.76,2.9c.87-.34,2.39-.16,2.68,1.1h4.58A.74.74,0,0,1,64.3,18s-.47-.77-.12-.87-.08-.49.2-.49a2.28,2.28,0,0,1,1.58,1,1.48,1.48,0,0,1,1.76,0c.36.37.85.87.85.87H69v-1a5,5,0,0,0-1.78-1.4c-.95-.36.32-.41.51-.41s.69-.87.69-.87A3.15,3.15,0,0,1,69.31,11c.59-.55,2.92,2,2.92,2s.24,1.64-.18,1.83-.71.32-.22.47,1.8-.16,1.91,1.08.2,2.19.2,2.19l.34-.14s0-1.1,1.44-1.1a1.38,1.38,0,0,1,.91.43s.1-1.12,1-1.22,1.26,2.35,1.26,2.35l4.5-.24a1.08,1.08,0,0,1,1-1.26A2.77,2.77,0,0,1,87.2,15c1.46,0,3.12.55,3.2,2.13a16.5,16.5,0,0,1-.14,3h6.21s-.18-.49.43-1.08-.14-1.58.24-2a2.83,2.83,0,0,1,4.54-.12,9.87,9.87,0,0,1,1.74,3.1h6.79a1.33,1.33,0,0,1,.63-1.14c0-.73-.3-2,.95-2.35a4.41,4.41,0,0,1,3.91.65,17.86,17.86,0,0,1,1.85,3h6.73s-.18-1.08.39-1.22c0-.61-.3-2.82,2.51-2.84a4,4,0,0,1,3.69,2.78s.65,0,.73,1.22H138s-.12-1,.73-1.12c-.08-.89-.06-2.56,1.93-2.76A3.7,3.7,0,0,1,144.64,19l.45,0a2.84,2.84,0,0,1,.08.93h6.43v5.56Z"/><path class="cls-6" d="M245.31,25.44V19.88h-2.75a2.84,2.84,0,0,0-.08-.93L242,19a3.7,3.7,0,0,0-3.93-2.82c-2,.2-2,1.87-1.93,2.76-.85.1-.73,1.12-.73,1.12H229c-.08-1.2-.73-1.22-.73-1.22A4,4,0,0,0,224.55,16c-2.8,0-2.51,2.23-2.51,2.84-.57.14-.39,1.22-.39,1.22h-6.73a17.86,17.86,0,0,0-1.85-3,4.41,4.41,0,0,0-3.91-.65c-1.24.39-.95,1.62-.95,2.35a1.33,1.33,0,0,0-.63,1.14H200.8a9.87,9.87,0,0,0-1.74-3.1,2.83,2.83,0,0,0-4.54.12c-.37.45.37,1.44-.24,2s-.43,1.08-.43,1.08h-6.21a16.5,16.5,0,0,0,.14-3c-.08-1.58-1.74-2.13-3.2-2.13a2.77,2.77,0,0,0-2.76,2.41,1.08,1.08,0,0,0-1,1.26l-4.5.24s-.36-2.45-1.26-2.35-1,1.22-1,1.22a1.38,1.38,0,0,0-.91-.43c-1.46,0-1.44,1.1-1.44,1.1l-.34.14s-.08-.95-.2-2.19-1.42-.93-1.91-1.08-.2-.28.22-.47.18-1.83.18-1.83-2.33-2.54-2.92-2a3.15,3.15,0,0,0-.85,3.85s-.49.87-.69.87-1.46.06-.51.41a5,5,0,0,1,1.78,1.4v1h-.47s-.49-.49-.85-.87a1.48,1.48,0,0,0-1.76,0,2.28,2.28,0,0,0-1.58-1c-.28,0,.16.39-.2.49s.12.87.12.87a.74.74,0,0,0-.67.85h-4.58c-.3-1.26-1.81-1.44-2.68-1.1-.24-1.93-2.76-2.9-2.76-2.9h-1l0,1.24s1.46,1.72,1.18,2,0,.63,0,.63l.56,1.24h-4c0,.41,0,.81,0,1.17a21.88,21.88,0,0,1-.21,4.32Z"/><path class="cls-6" d="M287,19.88h-3.56l1-2.64c.24-.64.26-2.15-.28-2.45s-3,1.43-3,1.43-.73.75-.72,1.32c0,0-1.17-.56-2.11,1h-4.58s-.13-2.62-1.3-2.41c-.58.08-1.11,1.17-1.11,1.17a1.27,1.27,0,0,0-1.15-.44c-.87,0-1.09,1.11-1.09,1.11h-.77V16.26s1.34-.17,1.32-.64c0-.2-.28-.12-.51-.12s-1-.8-1-.8.83-2.87-1.29-3.95c-1.05-.56-2.61,1.79-2.64,2s0,1.5,0,1.5,1.34.22,1.23.43-.72.18-.72.18v.87s-.27.2-.31-.27-.58-.4-.72,0-.32,0-.51,0-.39.18-.16.34.41.31.41.31V18h-.7a1,1,0,0,0-.8-1.09c-.92-.25-1.1.39-1.1.39h-.39v-.49s-.59-2-1.69,0a3.6,3.6,0,0,0-.55,1.61h-4.6s.18-1-1.47-1.25a3.18,3.18,0,0,0-3.66-2.51c-1.18.22-1.82,2.08-1.37,3a3.3,3.3,0,0,0,.49.74l0,1.44h-2.4v5.56H287Z"/><rect class="cls-4" x="49.85" y="31.95" width="337.02" height="15.26"/><polygon class="cls-2" points="393.2 56.36 45.87 56.36 38.34 51.16 400.74 51.16 393.2 56.36"/><rect class="cls-2" x="38.35" y="49.54" width="362.39" height="1.62"/><rect class="cls-6" x="38.35" y="47.92" width="362.39" height="1.62"/><polygon class="cls-6" points="400.74 47.92 38.34 47.92 36.47 46.98 402.62 46.98 400.74 47.92"/><rect class="cls-13" x="55.52" y="22.14" width="19.81" height="1.5"/><rect class="cls-13" x="159.97" y="22.14" width="19.81" height="1.5"/><rect class="cls-13" x="363.16" y="22.14" width="19.81" height="1.5"/><rect class="cls-13" x="258.63" y="22.14" width="19.81" height="1.5"/><rect class="cls-6" x="50.13" y="36.84" width="30.58" height="2.9"/><rect class="cls-2" x="48.55" y="32.02" width="33.76" height="4.82"/><rect class="cls-4" x="51.37" y="27.78" width="28.11" height="2.36"/><rect class="cls-4" x="52.07" y="30.14" width="26.71" height="1.88"/><rect class="cls-2" x="52.07" y="30.14" width="26.71" height="0.21"/><rect class="cls-2" x="52.07" y="25.43" width="26.71" height="2.36"/><rect class="cls-2" x="54.26" y="23.23" width="22.32" height="2.19"/><rect class="cls-6" x="154.58" y="36.84" width="30.58" height="2.9"/><rect class="cls-2" x="152.99" y="32.02" width="33.76" height="4.82"/><rect class="cls-4" x="155.81" y="27.78" width="28.11" height="2.36"/><rect class="cls-4" x="156.51" y="30.14" width="26.71" height="1.88"/><rect class="cls-2" x="156.51" y="30.14" width="26.71" height="0.21"/><rect class="cls-2" x="156.51" y="25.43" width="26.71" height="2.36"/><rect class="cls-4" x="158.71" y="23.23" width="22.32" height="2.19"/><rect class="cls-6" x="253.24" y="36.84" width="30.58" height="2.9"/><rect class="cls-2" x="251.65" y="32.02" width="33.76" height="4.82"/><rect class="cls-4" x="254.47" y="27.78" width="28.11" height="2.36"/><rect class="cls-4" x="255.17" y="30.14" width="26.71" height="1.88"/><rect class="cls-2" x="255.17" y="30.14" width="26.71" height="0.21"/><rect class="cls-2" x="255.17" y="25.43" width="26.71" height="2.36"/><rect class="cls-4" x="257.37" y="23.23" width="22.32" height="2.19"/><rect class="cls-6" x="357.77" y="36.84" width="30.58" height="2.9"/><rect class="cls-2" x="356.18" y="32.02" width="33.76" height="4.82"/><rect class="cls-4" x="359" y="27.78" width="28.11" height="2.36"/><rect class="cls-4" x="359.7" y="30.14" width="26.71" height="1.88"/><rect class="cls-2" x="359.7" y="30.14" width="26.71" height="0.21"/><rect class="cls-2" x="359.7" y="25.43" width="26.71" height="2.36"/><rect class="cls-4" x="361.9" y="23.23" width="22.32" height="2.19"/><rect class="cls-4" x="45.86" y="56.36" width="346.49" height="88.96"/><path class="cls-2" d="M273.6,139V115a5.33,5.33,0,0,0-5.32-5.32h0A5.33,5.33,0,0,0,263,115V139Z"/><rect class="cls-6" x="264.3" y="111.46" width="7.96" height="33.86" rx="3.92" ry="3.92"/><path class="cls-2" d="M378.49,139V115a5.33,5.33,0,0,0-5.32-5.32h0a5.33,5.33,0,0,0-5.32,5.32V139Z"/><rect class="cls-6" x="369.19" y="111.46" width="7.96" height="33.86" rx="3.92" ry="3.92"/><path class="cls-2" d="M243.31,71.16a34.32,34.32,0,0,0-58.64,24.3v49.86H253.2V95.46A34.22,34.22,0,0,0,243.31,71.16Z"/><path class="cls-4" d="M239.59,74.05a29.58,29.58,0,0,0-20.29-7.92c-16.06,0-28.85,12.13-28.85,27v52.22h57.27V93.1A25.54,25.54,0,0,0,239.59,74.05Z"/><polygon class="cls-6" points="221.37 66.44 216.69 66.44 215.6 59.45 222.46 59.45 221.37 66.44"/><ellipse class="cls-6" cx="219.03" cy="59.45" rx="1.62" ry="1.62"/><path class="cls-13" d="M236.71,77.29a25.2,25.2,0,0,0-43.12,18v50h50.69v-50A25.82,25.82,0,0,0,236.71,77.29Z"/><path class="cls-4" d="M241.94,95.39v49.93h-46V95.39c0-13,10.5-23.6,23.17-23.6a22.46,22.46,0,0,1,16.17,6.93A23.71,23.71,0,0,1,241.94,95.39Z"/><path class="cls-8" d="M239.33,96.92V96a20.73,20.73,0,0,0-5.86-14.6,19.81,19.81,0,0,0-14.23-6.07A20.64,20.64,0,0,0,198.85,96v1Z"/><rect class="cls-2" x="197.38" y="100.49" width="42.12" height="7.64"/><rect class="cls-2" x="195.94" y="96.78" width="46" height="1.87"/><rect class="cls-8" x="200.76" y="120.35" width="8.5" height="24.98"/><rect class="cls-8" x="214.84" y="120.35" width="8.5" height="24.98"/><rect class="cls-8" x="228.61" y="120.35" width="8.5" height="24.98"/><rect class="cls-8" x="195.94" y="112.12" width="46" height="2.74"/><ellipse class="cls-6" cx="244.63" cy="63" rx="5.3" ry="5.29"/><ellipse class="cls-2" cx="244.63" cy="63" rx="4.19" ry="4.18"/><ellipse class="cls-6" cx="193.17" cy="63.27" rx="5.3" ry="5.29"/><ellipse class="cls-2" cx="193.17" cy="63.27" rx="4.19" ry="4.18"/><g class="cls-14"><rect class="cls-2" x="200.91" y="85.12" width="23.26" height="2.71" transform="translate(299.02 -126.07) rotate(90)"/><rect class="cls-2" x="214.52" y="85.12" width="23.26" height="2.71" transform="translate(312.63 -139.68) rotate(90)"/></g><polygon class="cls-4" points="190.45 100.11 184.67 100.11 184.67 97.51 190.72 97.51 190.45 100.11"/><rect class="cls-13" x="184.65" y="93.46" width="6.8" height="1.89"/><polygon class="cls-2" points="191.46 95.36 184.65 95.36 184.65 97.51 190.72 97.51 191.46 95.36"/><polygon class="cls-4" points="247.72 100.11 253.19 100.11 253.19 97.51 247.13 97.51 247.72 100.11"/><rect class="cls-13" x="246.4" y="93.46" width="6.8" height="1.89" transform="translate(499.6 188.82) rotate(-180)"/><polygon class="cls-2" points="246.4 95.36 253.2 95.36 253.2 97.51 247.13 97.51 246.4 95.36"/><path class="cls-2" d="M141.57,71.16a34.22,34.22,0,0,0-58.49,24.3v49.86h68.36V95.46A34.27,34.27,0,0,0,141.57,71.16Z"/><path class="cls-4" d="M137.87,74.05a29.47,29.47,0,0,0-20.24-7.92c-16,0-28.78,12.13-28.78,27v52.22H146V93.1A25.57,25.57,0,0,0,137.87,74.05Z"/><polygon class="cls-6" points="119.69 66.44 115.02 66.44 113.93 59.45 120.78 59.45 119.69 66.44"/><circle class="cls-6" cx="117.36" cy="59.45" r="1.62"/><path class="cls-13" d="M135,77.29a25.15,25.15,0,0,0-17.84-7.48A25.46,25.46,0,0,0,92,95.28v50h50.57v-50A25.85,25.85,0,0,0,135,77.29Z"/><path class="cls-4" d="M140.21,95.39v49.93H94.32V95.39c0-13,10.47-23.6,23.12-23.6a22.38,22.38,0,0,1,16.13,6.93A23.74,23.74,0,0,1,140.21,95.39Z"/><path class="cls-8" d="M137.6,96.92V96a20.75,20.75,0,0,0-5.84-14.6,19.73,19.73,0,0,0-14.2-6.07A20.61,20.61,0,0,0,97.22,96v1Z"/><rect class="cls-2" x="95.76" y="100.49" width="42.01" height="7.64"/><rect class="cls-2" x="94.32" y="96.78" width="45.89" height="1.87"/><rect class="cls-2" x="99.13" y="120.35" width="8.48" height="24.98"/><rect class="cls-2" x="113.17" y="120.35" width="8.48" height="24.98"/><rect class="cls-2" x="126.91" y="120.35" width="8.48" height="24.98"/><rect class="cls-8" x="94.32" y="112.12" width="45.89" height="2.74"/><circle class="cls-6" cx="142.89" cy="63" r="5.29"/><circle class="cls-2" cx="142.89" cy="63" r="4.18"/><circle class="cls-6" cx="91.56" cy="63.27" r="5.29"/><circle class="cls-2" cx="91.56" cy="63.27" r="4.18"/><g class="cls-15"><rect class="cls-2" x="99.25" y="85.12" width="23.26" height="2.71" transform="translate(197.36 -24.41) rotate(90)"/><rect class="cls-2" x="112.83" y="85.12" width="23.26" height="2.71" transform="translate(210.94 -37.99) rotate(90)"/></g><polygon class="cls-4" points="88.85 100.11 83.08 100.11 83.08 97.51 89.12 97.51 88.85 100.11"/><rect class="cls-13" x="83.06" y="93.46" width="6.79" height="1.89"/><polygon class="cls-2" points="89.85 95.36 83.06 95.36 83.06 97.51 89.12 97.51 89.85 95.36"/><polygon class="cls-4" points="145.97 100.11 151.43 100.11 151.43 97.51 145.39 97.51 145.97 100.11"/><rect class="cls-13" x="144.66" y="93.46" width="6.79" height="1.89" transform="translate(296.1 188.82) rotate(-180)"/><polygon class="cls-2" points="144.66 95.36 151.44 95.36 151.44 97.51 145.39 97.51 144.66 95.36"/><rect class="cls-8" x="101.56" y="122.75" width="3.62" height="7.48"/><rect class="cls-8" x="115.62" y="122.75" width="3.62" height="7.48"/><rect class="cls-8" x="129.34" y="122.75" width="3.62" height="7.48"/><path class="cls-2" d="M344.79,71.16a34.22,34.22,0,0,0-58.49,24.3v49.86h68.36V95.46A34.27,34.27,0,0,0,344.79,71.16Z"/><path class="cls-4" d="M341.08,74.05a29.47,29.47,0,0,0-20.24-7.92c-16,0-28.78,12.13-28.78,27v52.22h57.12V93.1A25.57,25.57,0,0,0,341.08,74.05Z"/><polygon class="cls-6" points="322.9 66.44 318.23 66.44 317.15 59.45 323.99 59.45 322.9 66.44"/><circle class="cls-6" cx="320.57" cy="59.45" r="1.62"/><path class="cls-13" d="M338.2,77.29a25.15,25.15,0,0,0-17.84-7.48,25.46,25.46,0,0,0-25.17,25.47v50h50.57v-50A25.85,25.85,0,0,0,338.2,77.29Z"/><path class="cls-4" d="M343.42,95.39v49.93H297.53V95.39c0-13,10.47-23.6,23.12-23.6a22.38,22.38,0,0,1,16.13,6.93A23.74,23.74,0,0,1,343.42,95.39Z"/><path class="cls-2" d="M340.81,96.92V96A20.75,20.75,0,0,0,335,81.35a19.73,19.73,0,0,0-14.2-6.07A20.61,20.61,0,0,0,300.43,96v1Z"/><rect class="cls-2" x="298.97" y="100.49" width="42.01" height="7.64"/><rect class="cls-2" x="297.53" y="96.78" width="45.89" height="1.87"/><rect class="cls-8" x="297.53" y="112.12" width="45.89" height="2.74"/><circle class="cls-6" cx="346.1" cy="63" r="5.29"/><circle class="cls-2" cx="346.1" cy="63" r="4.18"/><circle class="cls-6" cx="294.77" cy="63.27" r="5.29"/><circle class="cls-2" cx="294.77" cy="63.27" r="4.18"/><path class="cls-2" d="M340.81,96.92V96A20.75,20.75,0,0,0,335,81.35a19.73,19.73,0,0,0-14.2-6.07A20.61,20.61,0,0,0,300.43,96v1Z"/><g class="cls-16"><rect class="cls-2" x="302.47" y="85.12" width="23.26" height="2.71" transform="translate(400.57 -227.62) rotate(90)"/><rect class="cls-2" x="316.04" y="85.12" width="23.26" height="2.71" transform="translate(414.15 -241.2) rotate(90)"/></g><polygon class="cls-4" points="292.06 100.11 286.3 100.11 286.3 97.51 292.33 97.51 292.06 100.11"/><rect class="cls-13" x="286.28" y="93.46" width="6.79" height="1.89"/><polygon class="cls-2" points="293.06 95.36 286.28 95.36 286.28 97.51 292.33 97.51 293.06 95.36"/><polygon class="cls-4" points="349.19 100.11 354.64 100.11 354.64 97.51 348.6 97.51 349.19 100.11"/><rect class="cls-13" x="347.87" y="93.46" width="6.79" height="1.89" transform="translate(702.53 188.82) rotate(-180)"/><polygon class="cls-2" points="347.87 95.36 354.66 95.36 354.66 97.51 348.6 97.51 347.87 95.36"/><rect class="cls-2" x="302.49" y="120.35" width="8.48" height="24.98"/><rect class="cls-2" x="316.54" y="120.35" width="8.48" height="24.98"/><rect class="cls-2" x="330.28" y="120.35" width="8.48" height="24.98"/><rect class="cls-8" x="304.92" y="122.75" width="3.62" height="7.48"/><rect class="cls-8" x="318.99" y="122.75" width="3.62" height="7.48"/><rect class="cls-8" x="332.7" y="122.75" width="3.62" height="7.48"/><path class="cls-2" d="M175.27,139V115a5.33,5.33,0,0,0-5.32-5.32h0a5.33,5.33,0,0,0-5.32,5.32V139Z"/><rect class="cls-6" x="165.98" y="111.46" width="7.96" height="33.86" rx="3.92" ry="3.92"/><rect class="cls-2" x="154.5" y="51.92" width="30.84" height="4.4"/><polygon class="cls-6" points="190.44 47.52 149.32 47.52 145.67 44.02 194.07 44.02 190.44 47.52"/><polygon class="cls-2" points="185.3 51.92 154.46 51.92 151.74 47.52 188.03 47.52 185.3 51.92"/><rect class="cls-2" x="154.22" y="57.98" width="31.32" height="2.23"/><polygon class="cls-8" points="185.54 57.98 154.22 57.98 152.62 56.31 187.14 56.31 185.54 57.98"/><rect class="cls-6" x="154.22" y="60.21" width="31.32" height="0.38"/><polygon class="cls-6" points="184.84 61.06 154.92 61.06 154.22 60.58 185.54 60.58 184.84 61.06"/><rect class="cls-8" x="154.92" y="61" width="29.93" height="0.96"/><rect class="cls-6" x="151.52" y="137.61" width="36.37" height="7.72"/><rect class="cls-2" x="152.98" y="61.95" width="11.75" height="2.09"/><rect class="cls-2" x="155.21" y="69.79" width="7.27" height="61.6"/><polygon class="cls-2" points="162.46 70.1 155.24 70.1 154.22 66.14 163.51 66.14 162.46 70.1"/><polygon class="cls-6" points="163.47 66.14 154.22 66.14 152.98 64.05 164.73 64.05 163.47 66.14"/><ellipse class="cls-6" cx="158.86" cy="70.31" rx="4.45" ry="0.52"/><rect class="cls-2" x="153.49" y="136.06" width="10.72" height="1.54"/><rect class="cls-6" x="152.18" y="134.63" width="13.34" height="1.43"/><polygon class="cls-6" points="155.05 131.4 153.7 133.02 154.63 133.02 154.63 133.7 153.7 133.7 153.7 134.63 162.65 134.63 162.65 131.4 155.05 131.4"/><polygon class="cls-6" points="162.65 131.4 164 133.02 163.06 133.02 163.06 133.7 164 133.7 164 134.63 155.38 134.63 155.38 131.4 162.65 131.4"/><rect class="cls-8" x="154.63" y="133.02" width="8.43" height="0.31"/><rect class="cls-8" x="152.18" y="135.88" width="13.34" height="0.19"/><rect class="cls-2" x="175.15" y="61.95" width="11.75" height="2.09"/><rect class="cls-2" x="177.38" y="69.79" width="7.27" height="61.6"/><polygon class="cls-2" points="184.63 70.1 177.41 70.1 176.39 66.14 185.68 66.14 184.63 70.1"/><polygon class="cls-6" points="185.64 66.14 176.39 66.14 175.15 64.05 186.9 64.05 185.64 66.14"/><ellipse class="cls-6" cx="181.03" cy="70.31" rx="4.45" ry="0.52"/><rect class="cls-2" x="175.66" y="136.06" width="10.72" height="1.54"/><rect class="cls-6" x="174.35" y="134.63" width="13.34" height="1.43"/><polygon class="cls-6" points="177.22 131.4 175.87 133.02 176.8 133.02 176.8 133.7 175.87 133.7 175.87 134.63 184.82 134.63 184.82 131.4 177.22 131.4"/><polygon class="cls-6" points="184.82 131.4 186.17 133.02 185.23 133.02 185.23 133.7 186.17 133.7 186.17 134.63 177.55 134.63 177.55 131.4 184.82 131.4"/><rect class="cls-8" x="176.8" y="133.02" width="8.43" height="0.31"/><rect class="cls-8" x="174.35" y="135.88" width="13.34" height="0.19"/><rect class="cls-2" x="145.67" y="42.55" width="48.41" height="1.47"/><rect class="cls-2" x="144.17" y="39.58" width="51.41" height="0.73"/><rect class="cls-2" x="164.36" y="73.99" width="11.41" height="20.01"/><polygon class="cls-2" points="194.07 42.55 145.67 42.55 144.17 40.31 195.58 40.31 194.07 42.55"/><rect class="cls-6" x="165.6" y="76.16" width="8.93" height="15.66"/><rect class="cls-4" x="166.57" y="77.87" width="6.99" height="12.25"/><path class="cls-2" d="M70.39,139V115a5.33,5.33,0,0,0-5.32-5.32h0A5.33,5.33,0,0,0,59.76,115V139Z"/><rect class="cls-6" x="61.09" y="111.46" width="7.96" height="33.86" rx="3.92" ry="3.92"/><rect class="cls-2" x="252.55" y="51.92" width="30.84" height="4.4"/><polygon class="cls-6" points="288.49 47.52 247.37 47.52 243.72 44.02 292.12 44.02 288.49 47.52"/><polygon class="cls-2" points="283.35 51.92 252.51 51.92 249.79 47.52 286.08 47.52 283.35 51.92"/><rect class="cls-2" x="252.27" y="57.98" width="31.32" height="2.23"/><polygon class="cls-17" points="283.59 57.98 252.27 57.98 250.67 56.31 285.19 56.31 283.59 57.98"/><rect class="cls-6" x="252.27" y="60.21" width="31.32" height="0.38"/><polygon class="cls-6" points="282.89 61.06 252.97 61.06 252.27 60.58 283.59 60.58 282.89 61.06"/><rect class="cls-8" x="252.97" y="61" width="29.93" height="0.96"/><rect class="cls-6" x="249.57" y="137.61" width="36.37" height="7.72"/><rect class="cls-2" x="251.03" y="61.95" width="11.75" height="2.09"/><rect class="cls-2" x="253.26" y="69.79" width="7.27" height="61.6"/><polygon class="cls-2" points="260.51 70.1 253.29 70.1 252.27 66.14 261.56 66.14 260.51 70.1"/><polygon class="cls-6" points="261.52 66.14 252.27 66.14 251.03 64.05 262.78 64.05 261.52 66.14"/><ellipse class="cls-6" cx="256.91" cy="70.31" rx="4.45" ry="0.52"/><rect class="cls-2" x="251.54" y="136.06" width="10.72" height="1.54"/><rect class="cls-6" x="250.23" y="134.63" width="13.34" height="1.43"/><polygon class="cls-6" points="253.1 131.4 251.75 133.02 252.69 133.02 252.69 133.7 251.75 133.7 251.75 134.63 260.7 134.63 260.7 131.4 253.1 131.4"/><polygon class="cls-6" points="260.7 131.4 262.05 133.02 261.11 133.02 261.11 133.7 262.05 133.7 262.05 134.63 253.43 134.63 253.43 131.4 260.7 131.4"/><rect class="cls-8" x="252.68" y="133.02" width="8.43" height="0.31"/><rect class="cls-8" x="250.23" y="135.88" width="13.34" height="0.19"/><rect class="cls-2" x="273.2" y="61.95" width="11.75" height="2.09"/><rect class="cls-2" x="275.43" y="69.79" width="7.27" height="61.6"/><polygon class="cls-2" points="282.68 70.1 275.46 70.1 274.44 66.14 283.73 66.14 282.68 70.1"/><polygon class="cls-6" points="283.69 66.14 274.44 66.14 273.2 64.05 284.95 64.05 283.69 66.14"/><ellipse class="cls-6" cx="279.08" cy="70.31" rx="4.45" ry="0.52"/><rect class="cls-2" x="273.71" y="136.06" width="10.72" height="1.54"/><rect class="cls-6" x="272.4" y="134.63" width="13.34" height="1.43"/><polygon class="cls-6" points="275.27 131.4 273.92 133.02 274.85 133.02 274.85 133.7 273.92 133.7 273.92 134.63 282.87 134.63 282.87 131.4 275.27 131.4"/><polygon class="cls-6" points="282.87 131.4 284.22 133.02 283.28 133.02 283.28 133.7 284.22 133.7 284.22 134.63 275.6 134.63 275.6 131.4 282.87 131.4"/><rect class="cls-8" x="274.85" y="133.02" width="8.43" height="0.31"/><rect class="cls-8" x="272.4" y="135.88" width="13.34" height="0.19"/><rect class="cls-2" x="243.72" y="42.55" width="48.41" height="1.47"/><rect class="cls-2" x="242.22" y="39.58" width="51.41" height="0.73"/><rect class="cls-2" x="262.41" y="73.99" width="11.41" height="20.01"/><polygon class="cls-6" points="292.12 42.55 243.72 42.55 242.22 40.31 293.63 40.31 292.12 42.55"/><rect class="cls-6" x="263.65" y="76.16" width="8.93" height="15.66"/><rect class="cls-4" x="264.62" y="77.87" width="6.99" height="12.25"/><rect class="cls-2" x="49.72" y="51.92" width="30.84" height="4.4"/><polygon class="cls-6" points="85.65 47.52 44.54 47.52 40.88 44.02 89.29 44.02 85.65 47.52"/><polygon class="cls-2" points="80.51 51.92 49.67 51.92 46.95 47.52 83.24 47.52 80.51 51.92"/><rect class="cls-2" x="49.44" y="57.98" width="31.32" height="2.23"/><polygon class="cls-17" points="80.76 57.98 49.44 57.98 47.83 56.31 82.36 56.31 80.76 57.98"/><rect class="cls-6" x="49.43" y="60.21" width="31.32" height="0.38"/><polygon class="cls-6" points="80.06 61.06 50.13 61.06 49.44 60.58 80.76 60.58 80.06 61.06"/><rect class="cls-8" x="50.13" y="61" width="29.93" height="0.96"/><rect class="cls-6" x="46.73" y="137.61" width="36.37" height="7.72"/><rect class="cls-2" x="48.2" y="61.95" width="11.75" height="2.09"/><rect class="cls-2" x="50.43" y="69.79" width="7.27" height="61.6"/><polygon class="cls-2" points="57.67 70.1 50.45 70.1 49.43 66.14 58.72 66.14 57.67 70.1"/><polygon class="cls-6" points="58.69 66.14 49.43 66.14 48.2 64.05 59.95 64.05 58.69 66.14"/><ellipse class="cls-6" cx="54.08" cy="70.31" rx="4.45" ry="0.52"/><rect class="cls-2" x="48.7" y="136.06" width="10.72" height="1.54"/><rect class="cls-6" x="47.39" y="134.63" width="13.34" height="1.43"/><polygon class="cls-6" points="50.26 131.4 48.91 133.02 49.85 133.02 49.85 133.7 48.91 133.7 48.91 134.63 57.87 134.63 57.87 131.4 50.26 131.4"/><polygon class="cls-6" points="57.87 131.4 59.21 133.02 58.28 133.02 58.28 133.7 59.21 133.7 59.21 134.63 50.59 134.63 50.59 131.4 57.87 131.4"/><rect class="cls-8" x="49.85" y="133.02" width="8.43" height="0.31"/><rect class="cls-8" x="47.39" y="135.88" width="13.34" height="0.19"/><rect class="cls-2" x="70.37" y="61.95" width="11.75" height="2.09"/><rect class="cls-2" x="72.6" y="69.79" width="7.27" height="61.6"/><polygon class="cls-2" points="79.84 70.1 72.62 70.1 71.6 66.14 80.89 66.14 79.84 70.1"/><polygon class="cls-6" points="80.86 66.14 71.6 66.14 70.36 64.05 82.12 64.05 80.86 66.14"/><ellipse class="cls-6" cx="76.25" cy="70.31" rx="4.45" ry="0.52"/><rect class="cls-2" x="70.87" y="136.06" width="10.72" height="1.54"/><rect class="cls-6" x="69.56" y="134.63" width="13.34" height="1.43"/><polygon class="cls-6" points="72.43 131.4 71.08 133.02 72.02 133.02 72.02 133.7 71.08 133.7 71.08 134.63 80.03 134.63 80.03 131.4 72.43 131.4"/><polygon class="cls-6" points="80.03 131.4 81.38 133.02 80.45 133.02 80.45 133.7 81.38 133.7 81.38 134.63 72.76 134.63 72.76 131.4 80.03 131.4"/><rect class="cls-8" x="72.02" y="133.02" width="8.43" height="0.31"/><rect class="cls-8" x="69.56" y="135.88" width="13.34" height="0.19"/><rect class="cls-2" x="40.88" y="42.55" width="48.41" height="1.47"/><rect class="cls-2" x="39.38" y="39.58" width="51.41" height="0.73"/><rect class="cls-2" x="59.57" y="73.99" width="11.41" height="20.01"/><polygon class="cls-2" points="89.29 42.55 40.88 42.55 39.38 40.31 90.79 40.31 89.29 42.55"/><rect class="cls-6" x="60.81" y="76.16" width="8.93" height="15.66"/><rect class="cls-4" x="61.78" y="77.87" width="6.99" height="12.25"/><rect class="cls-2" x="357.69" y="51.92" width="30.84" height="4.4"/><polygon class="cls-6" points="393.62 47.52 352.51 47.52 348.86 44.02 397.26 44.02 393.62 47.52"/><polygon class="cls-2" points="388.49 51.92 357.65 51.92 354.93 47.52 391.22 47.52 388.49 51.92"/><rect class="cls-2" x="357.41" y="57.98" width="31.32" height="2.23"/><polygon class="cls-17" points="388.73 57.98 357.41 57.98 355.81 56.31 390.33 56.31 388.73 57.98"/><rect class="cls-6" x="357.41" y="60.21" width="31.32" height="0.38"/><polygon class="cls-6" points="388.03 61.06 358.11 61.06 357.41 60.58 388.73 60.58 388.03 61.06"/><rect class="cls-8" x="358.1" y="61" width="29.93" height="0.96"/><rect class="cls-6" x="354.71" y="137.61" width="36.37" height="7.72"/><rect class="cls-2" x="356.17" y="61.95" width="11.75" height="2.09"/><rect class="cls-2" x="358.4" y="69.79" width="7.27" height="61.6"/><polygon class="cls-2" points="365.65 70.1 358.43 70.1 357.41 66.14 366.69 66.14 365.65 70.1"/><polygon class="cls-2" points="366.66 66.14 357.41 66.14 356.17 64.05 367.92 64.05 366.66 66.14"/><ellipse class="cls-6" cx="362.05" cy="70.31" rx="4.45" ry="0.52"/><rect class="cls-2" x="356.68" y="136.06" width="10.72" height="1.54"/><rect class="cls-6" x="355.36" y="134.63" width="13.34" height="1.43"/><polygon class="cls-6" points="358.24 131.4 356.89 133.02 357.82 133.02 357.82 133.7 356.89 133.7 356.89 134.63 365.84 134.63 365.84 131.4 358.24 131.4"/><polygon class="cls-6" points="365.84 131.4 367.19 133.02 366.25 133.02 366.25 133.7 367.19 133.7 367.19 134.63 358.57 134.63 358.57 131.4 365.84 131.4"/><rect class="cls-8" x="357.82" y="133.02" width="8.43" height="0.31"/><rect class="cls-8" x="355.36" y="135.88" width="13.34" height="0.19"/><rect class="cls-2" x="378.34" y="61.95" width="11.75" height="2.09"/><rect class="cls-2" x="380.57" y="69.79" width="7.27" height="61.6"/><polygon class="cls-3" points="387.82 70.1 380.6 70.1 379.58 66.14 388.87 66.14 387.82 70.1"/><polygon class="cls-2" points="388.83 66.14 379.58 66.14 378.34 64.05 390.09 64.05 388.83 66.14"/><ellipse class="cls-6" cx="384.22" cy="70.31" rx="4.45" ry="0.52"/><rect class="cls-2" x="378.85" y="136.06" width="10.72" height="1.54"/><rect class="cls-6" x="377.53" y="134.63" width="13.34" height="1.43"/><polygon class="cls-6" points="380.4 131.4 379.06 133.02 379.99 133.02 379.99 133.7 379.06 133.7 379.06 134.63 388.01 134.63 388.01 131.4 380.4 131.4"/><polygon class="cls-6" points="388.01 131.4 389.36 133.02 388.42 133.02 388.42 133.7 389.36 133.7 389.36 134.63 380.74 134.63 380.74 131.4 388.01 131.4"/><rect class="cls-8" x="379.99" y="133.02" width="8.43" height="0.31"/><rect class="cls-8" x="377.53" y="135.88" width="13.34" height="0.19"/><rect class="cls-2" x="348.86" y="42.55" width="48.41" height="1.47"/><rect class="cls-2" x="347.36" y="39.58" width="51.41" height="0.73"/><rect class="cls-2" x="367.55" y="73.99" width="11.41" height="20.01"/><polygon class="cls-6" points="397.26 42.55 348.86 42.55 347.36 40.31 398.76 40.31 397.26 42.55"/><rect class="cls-6" x="368.79" y="76.16" width="8.93" height="15.66"/><rect class="cls-4" x="369.76" y="77.87" width="6.99" height="12.25"/><rect class="cls-2" x="392.18" y="139.73" width="40.96" height="5.59"/><rect class="cls-2" x="4.91" y="139.73" width="40.96" height="5.59"/></svg>