<svg id="Layer_1" data-name="Layer 1" xmlns="http://www.w3.org/2000/svg" viewBox="0 0 432 214"><defs><style>.cls-1{fill:#64768d;}.cls-2{fill:#c3ebce;}.cls-3{fill:#f5dd55;}.cls-4{fill:#f3d632;}.cls-5{fill:#f6e26d;}.cls-6{fill:#213b5c;}.cls-7{fill:#9ba7b6;}</style></defs><title>newyork</title><rect class="cls-1" x="12.94" y="110.31" width="404.51" height="98.55"/><path class="cls-2" d="M125.81,143.93v65.51H79.41V143.93a23,23,0,0,1,22.93-23.17,23.49,23.49,0,0,1,23.47,23.17Z"/><path class="cls-3" d="M121.53,145.48v64H83.68v-64a18.93,18.93,0,0,1,37.85,0Z"/><path class="cls-2" d="M239.36,143.93v65.51H193V143.93a23,23,0,0,1,22.93-23.17,23.49,23.49,0,0,1,23.47,23.17Z"/><path class="cls-3" d="M235.09,145.48v64H197.24v-64a18.93,18.93,0,0,1,37.85,0Z"/><rect class="cls-3" x="99.92" y="115.59" width="5.38" height="12.83"/><rect class="cls-3" x="213.37" y="115.59" width="5.38" height="12.83"/><ellipse class="cls-2" cx="159.39" cy="134.03" rx="8.37" ry="14.01"/><polygon class="cls-1" points="411.93 65 21 65 88.21 59.24 349.84 59.24 411.93 65"/><rect class="cls-2" x="147.79" y="148.04" width="23.18" height="43.48"/><ellipse class="cls-2" cx="159.39" cy="134.03" rx="5.32" ry="8.91"/><rect class="cls-4" x="151.73" y="152.19" width="15.31" height="39.33"/><path class="cls-2" d="M352.92,143.93v65.51h-46.4V143.93a23,23,0,0,1,22.93-23.17,23.49,23.49,0,0,1,23.47,23.17Z"/><path class="cls-3" d="M348.64,145.48v64H310.79v-64a18.93,18.93,0,0,1,37.85,0Z"/><rect class="cls-3" x="326.92" y="115.59" width="5.38" height="12.83"/><ellipse class="cls-2" cx="272.94" cy="134.03" rx="8.37" ry="14.01"/><rect class="cls-2" x="261.35" y="148.04" width="23.18" height="43.48"/><ellipse class="cls-4" cx="272.94" cy="134.03" rx="5.32" ry="8.91"/><rect class="cls-4" x="265.28" y="152.19" width="15.31" height="39.33"/><rect class="cls-5" x="12.21" y="108.11" width="407.71" height="2.43"/><polygon class="cls-5" points="419.91 103.25 12.21 103.25 7.32 99.56 424.79 99.56 419.91 103.25"/><rect class="cls-1" x="14.43" y="87.9" width="403.26" height="7.63"/><polygon class="cls-6" points="417.69 108.11 14.43 108.11 16.19 103.25 415.93 103.25 417.69 108.11"/><rect class="cls-7" x="7.32" y="96.88" width="417.47" height="2.68"/><rect class="cls-1" x="17.02" y="67.8" width="398.9" height="3.04"/><rect class="cls-1" x="21" y="65" width="390.93" height="2.8"/><polygon class="cls-7" points="424.79 96.88 7.32 96.88 2.43 95.21 2.43 94.19 424.79 94.19 424.79 96.88"/><polygon class="cls-1" points="417.69 87.9 14.43 87.9 17.98 85.71 414.15 85.71 417.69 87.9"/><rect class="cls-1" x="18.06" y="74.19" width="396.09" height="11.52"/><rect class="cls-2" x="145.02" y="69.52" width="27.63" height="21.95"/><rect class="cls-2" x="260.27" y="70.84" width="27.63" height="20.63"/><rect class="cls-5" x="18.06" y="69.52" width="396.09" height="4.67"/><rect class="cls-7" x="10.21" y="191.33" width="57.71" height="10.78"/><rect class="cls-7" x="9.97" y="203.22" width="58.59" height="3.35"/><rect class="cls-7" x="59.83" y="69.38" width="18.84" height="19"/><polygon class="cls-6" points="83.77 94.44 54.73 94.44 59.83 88.39 78.67 88.39 83.77 94.44"/><polygon class="cls-6" points="154.59 94.44 125.55 94.44 130.65 88.39 149.49 88.39 154.59 94.44"/><rect class="cls-6" x="57.7" y="66.58" width="23.31" height="2.8"/><rect class="cls-7" x="130.65" y="69.38" width="18.84" height="19"/><rect class="cls-6" x="128.52" y="66.58" width="23.31" height="2.8"/><rect class="cls-7" x="284.5" y="69.38" width="18.84" height="19"/><polygon class="cls-6" points="308.44 94.44 279.4 94.44 284.5 88.39 303.34 88.39 308.44 94.44"/><polygon class="cls-6" points="379.25 94.44 350.22 94.44 355.32 88.39 374.16 88.39 379.25 94.44"/><rect class="cls-6" x="282.37" y="66.58" width="23.31" height="2.8"/><rect class="cls-7" x="355.32" y="69.38" width="18.84" height="19"/><rect class="cls-6" x="353.18" y="66.58" width="23.31" height="2.8"/><rect class="cls-1" x="86.84" y="51.79" width="263" height="7.44"/><rect class="cls-7" x="9.24" y="206.09" width="59.32" height="3.35"/><polygon class="cls-7" points="68.33 203.22 67.92 202.1 66.05 202.1 18.62 202.1 10.21 202.1 9.74 203.22 18.62 203.22 18.62 203.22 68.33 203.22"/><rect class="cls-7" x="11.62" y="187.9" width="54.95" height="3.43"/><polygon class="cls-7" points="66.56 187.9 11.62 187.9 13.87 186.19 64.31 186.19 66.56 187.9"/><rect class="cls-7" x="363.61" y="191.33" width="57.71" height="10.78" transform="translate(784.93 393.44) rotate(-180)"/><rect class="cls-7" x="362.96" y="203.22" width="58.59" height="3.35" transform="translate(784.52 409.79) rotate(-180)"/><rect class="cls-7" x="362.96" y="206.09" width="59.32" height="3.35" transform="translate(785.25 415.53) rotate(-180)"/><polygon class="cls-7" points="363.2 203.22 363.61 202.1 365.48 202.1 412.91 202.1 421.31 202.1 421.79 203.22 412.91 203.22 412.91 203.22 363.2 203.22"/><rect class="cls-7" x="364.96" y="187.9" width="54.95" height="3.43" transform="translate(784.87 379.23) rotate(-180)"/><polygon class="cls-7" points="364.96 187.9 419.91 187.9 417.65 186.19 367.22 186.19 364.96 187.9"/><rect class="cls-6" x="59.26" y="118.32" width="5.04" height="67.86"/><rect class="cls-5" x="67.74" y="115.76" width="12.56" height="2.11"/><polygon class="cls-5" points="80.3 117.87 67.74 117.87 69.76 118.77 78.28 118.77 80.3 117.87"/><rect class="cls-5" x="57.92" y="115.76" width="7.73" height="2.11"/><polygon class="cls-5" points="65.65 117.87 57.92 117.87 58.51 118.77 65.06 118.77 65.65 117.87"/><rect class="cls-6" x="69.76" y="118.77" width="8.52" height="67.41"/><rect class="cls-7" x="65.58" y="189.73" width="16.29" height="19.71"/><polygon class="cls-7" points="81.87 189.73 65.58 189.73 68.05 187.89 79.41 187.89 81.87 189.73"/><rect class="cls-7" x="68.06" y="186.19" width="11.35" height="1.7"/><rect class="cls-6" x="367.31" y="117.54" width="5.04" height="68.65" transform="translate(739.66 303.73) rotate(-180)"/><rect class="cls-5" x="351.32" y="115.76" width="12.56" height="2.11" transform="translate(715.2 233.63) rotate(-180)"/><polygon class="cls-5" points="351.32 117.87 363.88 117.87 361.86 118.77 353.34 118.77 351.32 117.87"/><rect class="cls-5" x="365.97" y="115.76" width="7.73" height="2.11" transform="translate(739.66 233.63) rotate(-180)"/><polygon class="cls-5" points="365.97 117.87 373.69 117.87 373.11 118.77 366.56 118.77 365.97 117.87"/><rect class="cls-6" x="353.34" y="118.77" width="8.52" height="67.41" transform="translate(715.2 304.96) rotate(-180)"/><rect class="cls-7" x="349.75" y="189.73" width="16.29" height="19.71" transform="translate(715.78 399.17) rotate(-180)"/><polygon class="cls-7" points="349.75 189.73 366.03 189.73 363.57 187.89 352.21 187.89 349.75 189.73"/><rect class="cls-7" x="352.21" y="186.19" width="11.35" height="1.7" transform="translate(715.77 374.08) rotate(-180)"/><rect class="cls-5" x="125.12" y="115.76" width="12.56" height="2.11"/><polygon class="cls-5" points="137.69 117.87 125.13 117.87 127.15 118.77 135.67 118.77 137.69 117.87"/><rect class="cls-6" x="127.15" y="118.77" width="8.52" height="67.41"/><rect class="cls-7" x="122.97" y="189.73" width="16.29" height="19.71"/><polygon class="cls-7" points="139.26 189.73 122.97 189.73 125.43 187.89 136.8 187.89 139.26 189.73"/><rect class="cls-7" x="125.45" y="186.19" width="11.35" height="1.7"/><rect class="cls-5" x="138.56" y="115.76" width="12.56" height="2.11"/><polygon class="cls-5" points="151.12 117.87 138.56 117.87 140.58 118.77 149.1 118.77 151.12 117.87"/><rect class="cls-6" x="140.58" y="118.77" width="8.52" height="67.41"/><rect class="cls-7" x="136.4" y="189.73" width="16.29" height="19.71"/><polygon class="cls-7" points="152.69 189.73 136.4 189.73 138.87 187.89 150.23 187.89 152.69 189.73"/><rect class="cls-7" x="138.88" y="186.19" width="11.35" height="1.7"/><rect class="cls-5" x="167.86" y="115.76" width="12.56" height="2.11"/><polygon class="cls-5" points="180.42 117.87 167.86 117.87 169.88 118.77 178.4 118.77 180.42 117.87"/><rect class="cls-6" x="169.88" y="118.77" width="8.52" height="67.41"/><rect class="cls-7" x="165.71" y="189.73" width="16.29" height="19.71"/><polygon class="cls-7" points="181.99 189.73 165.71 189.73 168.17 187.89 179.53 187.89 181.99 189.73"/><rect class="cls-7" x="168.18" y="186.19" width="11.35" height="1.7"/><rect class="cls-5" x="181.29" y="115.76" width="12.56" height="2.11"/><polygon class="cls-5" points="193.85 117.87 181.29 117.87 183.31 118.77 191.83 118.77 193.85 117.87"/><rect class="cls-6" x="183.31" y="118.77" width="8.52" height="67.41"/><rect class="cls-7" x="179.14" y="189.73" width="16.29" height="19.71"/><polygon class="cls-7" points="195.43 189.73 179.14 189.73 181.6 187.89 192.96 187.89 195.43 189.73"/><rect class="cls-7" x="181.61" y="186.19" width="11.35" height="1.7"/><rect class="cls-5" x="237.46" y="115.76" width="12.56" height="2.11"/><polygon class="cls-5" points="250.02 117.87 237.46 117.87 239.48 118.77 248 118.77 250.02 117.87"/><rect class="cls-6" x="239.48" y="118.77" width="8.52" height="67.41"/><rect class="cls-7" x="235.31" y="189.73" width="16.29" height="19.71"/><polygon class="cls-7" points="251.59 189.73 235.31 189.73 237.77 187.89 249.13 187.89 251.59 189.73"/><rect class="cls-7" x="237.78" y="186.19" width="11.35" height="1.7"/><rect class="cls-5" x="252.11" y="115.76" width="12.56" height="2.11"/><polygon class="cls-5" points="264.67 117.87 252.11 117.87 254.13 118.77 262.65 118.77 264.67 117.87"/><rect class="cls-6" x="254.13" y="118.77" width="8.52" height="67.41"/><rect class="cls-7" x="249.96" y="189.73" width="16.29" height="19.71"/><polygon class="cls-7" points="266.24 189.73 249.96 189.73 252.42 187.89 263.78 187.89 266.24 189.73"/><rect class="cls-7" x="252.43" y="186.19" width="11.35" height="1.7"/><rect class="cls-5" x="281.41" y="115.76" width="12.56" height="2.11"/><polygon class="cls-5" points="293.98 117.87 281.41 117.87 283.44 118.77 291.96 118.77 293.98 117.87"/><rect class="cls-6" x="283.44" y="118.77" width="8.52" height="67.41"/><rect class="cls-7" x="279.26" y="189.73" width="16.29" height="19.71"/><polygon class="cls-7" points="295.55 189.73 279.26 189.73 281.72 187.89 293.09 187.89 295.55 189.73"/><rect class="cls-7" x="281.74" y="186.19" width="11.35" height="1.7"/><rect class="cls-5" x="294.85" y="115.76" width="12.56" height="2.11"/><polygon class="cls-5" points="307.41 117.87 294.85 117.87 296.87 118.77 305.39 118.77 307.41 117.87"/><rect class="cls-6" x="296.87" y="118.77" width="8.52" height="67.41"/><rect class="cls-7" x="292.69" y="189.73" width="16.29" height="19.71"/><polygon class="cls-7" points="308.98 189.73 292.69 189.73 295.15 187.89 306.52 187.89 308.98 189.73"/><rect class="cls-7" x="295.17" y="186.19" width="11.35" height="1.7"/><rect class="cls-7" x="13.49" y="110.54" width="404.16" height="5.22"/><ellipse class="cls-5" cx="215.54" cy="188.3" rx="3.2" ry="5.11"/><ellipse class="cls-5" cx="216.09" cy="182.03" rx="1.21" ry="1.4"/><path class="cls-5" d="M215.26,195.81h0c-.53,0-1.07-2-1.11-2.58l-.26-4.86a1,1,0,0,1,.91-1.09h0a1,1,0,0,1,1,1l.26,4.91C216.12,193.76,215.79,195.78,215.26,195.81Z"/><rect class="cls-5" x="214.76" y="192.77" width="0.78" height="4.47" transform="translate(-7.4 8.5) rotate(-2.22)"/><path class="cls-5" d="M217,195.11h0c-.36,0-.63-2.07-.63-2.64l0-4.87c0-.58.29-1,.65-1h0c.36,0,.64.47.64,1l0,4.92C217.63,193.1,217.33,195.11,217,195.11Z"/><rect class="cls-5" x="216.61" y="192.06" width="0.78" height="4.47" transform="translate(3.73 -4.08) rotate(1.09)"/><rect class="cls-6" x="213.37" y="196.23" width="6.68" height="15.7"/><rect class="cls-5" x="181.98" y="70.6" width="70.82" height="16.81"/><path class="cls-6" d="M54.12,66.33c-2.29-4.33-8.71-7.46-16.3-7.46s-13.9,3.07-16.24,7.35v1.53H54.12Z"/><path class="cls-5" d="M264.83,69.52c0-22.16-21.25-40.13-47.42-40.13S170,47.35,170,69.52Z"/><path class="cls-6" d="M258.12,65.45C250.64,54.69,235.23,47.3,217.4,47.3s-33.27,7.41-40.74,18.19v3.34h81.46Z"/><path class="cls-3" d="M250,66.31c-6-8.6-18.3-14.51-32.56-14.51s-26.61,5.93-32.58,14.55v.59H250Z"/><path class="cls-5" d="M209.12,30.83s-16.62-4.11-17.3-6.68,11.48-2.91,11.48-2.91-3.94-3.94-1.37-6.68,3.6,1,3.6,1l1.88-1L207.06,12l-3.94-2.4-3.94-1,2.4-1.88s3.77,3.08,5.31,3.08c0,0,2.06-3.25,5.65-3.08,0,0,0-3.6,1.71-3.25a13.2,13.2,0,0,0,3.94,0s.27-2.29,2-.84,2.14,2.22.43,2.9l-.34,2.14s1.28-.26,6.41,4.19l1-1.11s0-3.84,1.37-4,2.48-.51,3.42,1.11c1.45,1.2.51,2.65-.68,3.42s-2.31,1.28-2.65,1.88.26,2.73-.85,4.19-2.65,2.39-2.73,3.67c1.11.68,7.09-.51,11.62,1.2s6.24,2.56,4.19,3.42S225,31.26,225,31.26Z"/><circle class="cls-2" cx="218" cy="54.91" r="13.2"/><circle class="cls-1" cx="218" cy="54.91" r="10.39"/><rect class="cls-2" x="23.63" y="67.75" width="27.63" height="21.95"/><path class="cls-6" d="M412.69,66.33c-2.29-4.33-8.71-7.46-16.3-7.46s-13.9,3.07-16.24,7.35v1.53h32.54Z"/><rect class="cls-2" x="382.61" y="67.75" width="27.63" height="21.95"/><polygon class="cls-6" points="56.36 94.32 18.62 94.32 23.71 88.26 51.26 88.26 56.36 94.32"/><polygon class="cls-6" points="415.34 94.32 377.59 94.32 382.69 88.26 410.24 88.26 415.34 94.32"/><polygon class="cls-7" points="18.06 96.88 424.81 96.88 429.57 95.21 429.57 94.19 18.06 94.19 18.06 96.88"/></svg>