<svg id="Layer_1" data-name="Layer 1" xmlns="http://www.w3.org/2000/svg" viewBox="0 0 122 450"><defs><style>.cls-1{fill:#213b5c;}.cls-2{fill:#4d4d4d;}.cls-3{fill:#c3ebce;}</style></defs><title>newyork</title><rect class="cls-1" x="1.1" y="425.38" width="119.81" height="23.04"/><rect class="cls-2" x="1.1" y="425.38" width="119.81" height="0.3"/><rect class="cls-1" x="12.62" y="370.38" width="96.77" height="55.3"/><rect class="cls-2" x="15.22" y="373.12" width="2.3" height="75.3"/><rect class="cls-2" x="2.84" y="427.57" width="2.88" height="20.85"/><rect class="cls-2" x="8.03" y="427.57" width="2.88" height="20.85"/><rect class="cls-2" x="111.01" y="427.57" width="2.88" height="20.85"/><rect class="cls-2" x="116.2" y="427.57" width="2.88" height="20.85"/><rect class="cls-2" x="22.13" y="373.12" width="2.3" height="75.3"/><rect class="cls-2" x="29.04" y="373.12" width="2.3" height="75.3"/><rect class="cls-2" x="33.65" y="373.12" width="2.3" height="75.3"/><rect class="cls-2" x="40.56" y="373.12" width="2.3" height="75.3"/><rect class="cls-2" x="47.47" y="373.12" width="2.3" height="75.3"/><rect class="cls-2" x="72.22" y="373.12" width="2.3" height="75.3"/><rect class="cls-2" x="79.14" y="373.12" width="2.3" height="75.3"/><rect class="cls-2" x="86.05" y="373.12" width="2.3" height="75.3"/><rect class="cls-2" x="90.66" y="373.12" width="2.3" height="75.3"/><rect class="cls-2" x="97.57" y="373.12" width="2.3" height="75.3"/><rect class="cls-2" x="104.48" y="373.12" width="2.3" height="75.3"/><rect class="cls-1" x="25.86" y="336.98" width="70.27" height="34.45"/><rect class="cls-1" x="31.62" y="181.46" width="58.75" height="155.52"/><rect class="cls-2" x="25.86" y="336.97" width="70.27" height="0.3"/><rect class="cls-2" x="69.43" y="181.46" width="20.94" height="0.3"/><rect class="cls-2" x="31.62" y="181.46" width="20.94" height="0.3"/><rect class="cls-1" x="33.93" y="149.2" width="54.14" height="32.26"/><rect class="cls-1" x="37.96" y="130.77" width="46.08" height="18.43"/><rect class="cls-2" x="67.13" y="149.2" width="20.94" height="0.3"/><rect class="cls-2" x="33.93" y="149.2" width="20.94" height="0.3"/><rect class="cls-3" x="52.15" y="138.57" width="17.28" height="215.42"/><rect class="cls-1" x="40.26" y="120.98" width="41.47" height="9.78"/><rect class="cls-2" x="60.14" y="27.74" width="1.73" height="50.24"/><rect class="cls-1" x="43.72" y="116.38" width="34.56" height="4.61"/><rect class="cls-2" x="58.7" y="42.86" width="4.61" height="20.74"/><rect class="cls-1" x="46.02" y="112.92" width="29.95" height="3.46"/><rect class="cls-1" x="56.97" y="69.25" width="8.06" height="4.8"/><rect class="cls-1" x="56.97" y="62.64" width="8.06" height="5.76"/><rect class="cls-1" x="52.94" y="110.62" width="16.13" height="2.3"/><polygon class="cls-1" points="69.06 110.62 52.94 110.62 55.84 95.36 66.13 95.36 69.06 110.62"/><polygon class="cls-1" points="66.14 95.36 55.85 95.36 56.55 76.53 65.46 76.53 66.14 95.36"/><rect class="cls-2" x="55.24" y="73.42" width="11.52" height="3.11"/><rect class="cls-2" x="55.24" y="67.73" width="11.52" height="2.3"/><rect class="cls-2" x="55.24" y="64.22" width="11.52" height="1.73"/><rect class="cls-2" x="58.98" y="27.48" width="4.03" height="1.15"/><rect class="cls-2" x="58.98" y="27.48" width="4.03" height="1.15" transform="translate(89.05 -32.95) rotate(90)"/><rect class="cls-2" x="48.73" y="13.51" width="24.55" height="0.69" transform="translate(74.85 -47.15) rotate(90)"/><rect class="cls-1" x="57.08" y="136.48" width="1.67" height="225.65"/><rect class="cls-1" x="62.84" y="136.48" width="1.67" height="225.65"/><rect class="cls-2" x="109.38" y="425.38" width="0.3" height="23.04"/><rect class="cls-2" x="12.32" y="425.38" width="0.3" height="23.04"/><rect class="cls-2" x="12.62" y="370.38" width="96.77" height="0.3"/><path class="cls-3" d="M57.08,448.42v-90a2,2,0,0,0-4.09,0v90Z"/><path class="cls-3" d="M62.84,448.42v-90a2,2,0,0,0-4.09,0v90Z"/><path class="cls-3" d="M68.6,448.42v-90a2,2,0,1,0-4.09,0v90Z"/><rect class="cls-2" x="32.89" y="185.72" width="1.73" height="183.1"/><rect class="cls-2" x="35.12" y="185.72" width="1.73" height="183.1"/><rect class="cls-2" x="47.09" y="185.72" width="1.73" height="183.1"/><rect class="cls-2" x="49.31" y="185.72" width="1.73" height="183.1"/><rect class="cls-2" x="38.9" y="185.72" width="1.73" height="183.1"/><rect class="cls-2" x="41.13" y="185.72" width="1.73" height="183.1"/><rect class="cls-2" x="43.3" y="185.72" width="1.73" height="183.1"/><rect class="cls-2" x="36.27" y="152.47" width="1.73" height="28.98"/><rect class="cls-2" x="48.24" y="152.47" width="1.73" height="28.98"/><rect class="cls-2" x="40.05" y="152.47" width="1.73" height="28.98"/><rect class="cls-2" x="42.28" y="152.47" width="1.73" height="28.98"/><rect class="cls-2" x="44.45" y="152.47" width="1.73" height="28.98"/><rect class="cls-2" x="71.98" y="152.47" width="1.73" height="28.98"/><rect class="cls-2" x="83.95" y="152.47" width="1.73" height="28.98"/><rect class="cls-2" x="75.76" y="152.47" width="1.73" height="28.98"/><rect class="cls-2" x="77.99" y="152.47" width="1.73" height="28.98"/><rect class="cls-2" x="80.17" y="152.47" width="1.73" height="28.98"/><rect class="cls-2" x="27.6" y="338.86" width="2.88" height="29.96"/><rect class="cls-2" x="87.39" y="185.78" width="1.73" height="183.1" transform="translate(176.5 554.66) rotate(-180)"/><rect class="cls-2" x="85.16" y="185.78" width="1.73" height="183.1" transform="translate(172.05 554.66) rotate(-180)"/><rect class="cls-2" x="73.19" y="185.78" width="1.73" height="183.1" transform="translate(148.11 554.66) rotate(-180)"/><rect class="cls-2" x="70.96" y="185.78" width="1.73" height="183.1" transform="translate(143.65 554.66) rotate(-180)"/><rect class="cls-2" x="81.38" y="185.78" width="1.73" height="183.1" transform="translate(164.48 554.66) rotate(-180)"/><rect class="cls-2" x="79.15" y="185.78" width="1.73" height="183.1" transform="translate(160.03 554.66) rotate(-180)"/><rect class="cls-2" x="76.97" y="185.78" width="1.73" height="183.1" transform="translate(155.68 554.66) rotate(-180)"/><rect class="cls-2" x="91.7" y="338.86" width="2.88" height="29.96" transform="translate(186.27 707.68) rotate(-180)"/><rect class="cls-2" x="72.98" y="137.68" width="3.46" height="11.52"/><rect class="cls-2" x="80.3" y="137.68" width="1.73" height="11.52"/><rect class="cls-2" x="45.52" y="137.68" width="3.46" height="11.52" transform="translate(94.5 286.88) rotate(-180)"/><rect class="cls-2" x="39.93" y="137.68" width="1.73" height="11.52" transform="translate(81.59 286.88) rotate(-180)"/><rect class="cls-2" x="40.26" y="130.47" width="41.47" height="0.3"/><rect class="cls-2" x="43.72" y="120.69" width="34.56" height="0.3"/><rect class="cls-2" x="46.02" y="116.08" width="29.95" height="0.3"/><rect class="cls-2" x="52.94" y="112.62" width="16.13" height="0.3"/></svg>