<svg id="Layer_1" data-name="Layer 1" xmlns="http://www.w3.org/2000/svg" viewBox="0 0 969 216"><defs><style>.cls-1,.cls-4{fill:none;stroke:#de5c5c;stroke-miterlimit:10;}.cls-1{stroke-width:0.5px;}.cls-2{fill:#e37373;}.cls-3{fill:#da0100;}.cls-4{stroke-width:0.25px;}.cls-5{fill:#de5c5c;}</style></defs><title>sanfran</title><path class="cls-1" d="M227.06,59.4S311.63,146.22,440.51,149,729.27,22.59,747.26,5.93"/><path class="cls-1" d="M749.15,22.08S612.77,146.2,448.41,149C315.78,152.84,237.8,83.65,218.95,64.88"/><polyline class="cls-2" points="767.72 155.5 753.41 172.54 750.94 170.47 765.25 153.42"/><path class="cls-1" d="M110.51,169.7S158.76,133,209.8,59.4"/><polyline class="cls-2" points="750.94 155.5 765.25 172.54 767.72 170.47 753.41 153.42"/><rect class="cls-2" x="751.69" y="173.13" width="16.54" height="1.84"/><polyline class="cls-2" points="767.72 179.88 753.41 196.92 750.94 194.85 765.25 177.8"/><polyline class="cls-2" points="750.94 179.88 765.25 196.92 767.72 194.85 753.41 177.8"/><rect class="cls-2" x="751.69" y="197.51" width="16.54" height="1.84"/><path class="cls-3" d="M744.61,201V165.21s-1-.41-1-4.54V146.15h1.23v-44h.65V65.54h.63V35.4h.63V6.23s.36-2.14,1.68-2.14v-2H750V4l2.66,2.23V34.8h.69V64.9H754v36.68h.69V201Z"/><path class="cls-1" d="M770.93,5.93s96,83.8,195.57,129.6"/><path class="cls-1" d="M769.46,22.08s112.63,88.23,193.41,122.81"/><line class="cls-4" x1="739.45" y1="12.66" x2="739.45" y2="148.96"/><line class="cls-4" x1="742.93" y1="27.45" x2="742.93" y2="148.96"/><line class="cls-4" x1="734.64" y1="34.22" x2="734.64" y2="147.69"/><line class="cls-4" x1="731.54" y1="19.1" x2="731.54" y2="147.69"/><line class="cls-4" x1="726.64" y1="40.47" x2="726.64" y2="146.56"/><line class="cls-4" x1="723.31" y1="146.56" x2="723.31" y2="25.76"/><line class="cls-4" x1="714.74" y1="32.06" x2="714.74" y2="146.56"/><line class="cls-4" x1="718.53" y1="146.56" x2="718.53" y2="46.84"/><line class="cls-4" x1="709.68" y1="52.97" x2="709.68" y2="146.56"/><line class="cls-4" x1="706.67" y1="38.03" x2="706.67" y2="146.56"/><line class="cls-4" x1="701.84" y1="58.43" x2="701.84" y2="146.56"/><line class="cls-4" x1="698.31" y1="44.06" x2="698.31" y2="146.56"/><line class="cls-4" x1="693.89" y1="63.79" x2="693.89" y2="145.72"/><line class="cls-4" x1="690.29" y1="49.69" x2="690.29" y2="146.56"/><line class="cls-4" x1="685.38" y1="69.33" x2="685.38" y2="147.69"/><line class="cls-4" x1="681.63" y1="55.63" x2="681.63" y2="147.69"/><line class="cls-4" x1="677.62" y1="74.22" x2="677.62" y2="147.69"/><line class="cls-4" x1="673.75" y1="60.9" x2="673.75" y2="147.69"/><line class="cls-4" x1="669.94" y1="78.9" x2="669.94" y2="145.72"/><line class="cls-4" x1="665.81" y1="66.08" x2="665.81" y2="146.56"/><line class="cls-4" x1="661.77" y1="83.7" x2="661.77" y2="146.56"/><line class="cls-4" x1="657.68" y1="71.26" x2="657.68" y2="147.13"/><line class="cls-4" x1="653.84" y1="88.2" x2="653.84" y2="146.56"/><line class="cls-4" x1="649.72" y1="76.19" x2="649.72" y2="146.56"/><line class="cls-4" x1="646.36" y1="92.3" x2="646.36" y2="147.13"/><line class="cls-4" x1="642.08" y1="80.81" x2="642.08" y2="146.56"/><line class="cls-4" x1="638.03" y1="96.7" x2="638.03" y2="147.13"/><line class="cls-4" x1="634.45" y1="85.31" x2="634.45" y2="147.69"/><line class="cls-4" x1="630.74" y1="100.41" x2="630.74" y2="147.69"/><line class="cls-4" x1="626.62" y1="89.79" x2="626.62" y2="145.72"/><line class="cls-4" x1="622.81" y1="104.29" x2="622.81" y2="147.13"/><line class="cls-4" x1="618.81" y1="94.14" x2="618.81" y2="148.25"/><line class="cls-4" x1="616.28" y1="107.37" x2="616.28" y2="147.69"/><line class="cls-4" x1="611.43" y1="98.13" x2="611.43" y2="147.13"/><line class="cls-4" x1="608.39" y1="110.95" x2="608.39" y2="146.56"/><line class="cls-4" x1="603.87" y1="102.09" x2="603.87" y2="147.69"/><line class="cls-4" x1="600.87" y1="114.23" x2="600.87" y2="147.69"/><line class="cls-4" x1="596.42" y1="106.32" x2="596.42" y2="147.13"/><line class="cls-4" x1="593.28" y1="117.38" x2="593.28" y2="147.69"/><line class="cls-4" x1="588.95" y1="109.54" x2="588.95" y2="147.69"/><line class="cls-4" x1="586.09" y1="120.24" x2="586.09" y2="147.69"/><line class="cls-4" x1="581.62" y1="113.02" x2="581.62" y2="147.69"/><line class="cls-4" x1="578.76" y1="123.02" x2="578.76" y2="148.25"/><line class="cls-4" x1="573.98" y1="116.5" x2="573.98" y2="147.69"/><line class="cls-4" x1="572.24" y1="125.38" x2="572.24" y2="148.25"/><line class="cls-4" x1="566.63" y1="119.71" x2="566.63" y2="147.69"/><line class="cls-4" x1="564.54" y1="128.03" x2="564.54" y2="148.25"/><line class="cls-4" x1="559.69" y1="122.63" x2="559.69" y2="148.96"/><line class="cls-4" x1="557.42" y1="130.35" x2="557.42" y2="148.96"/><line class="cls-4" x1="552.84" y1="125.38" x2="552.84" y2="148.96"/><line class="cls-4" x1="550.31" y1="132.54" x2="550.31" y2="148.96"/><line class="cls-4" x1="545.93" y1="128.03" x2="545.93" y2="148.25"/><line class="cls-4" x1="543.79" y1="134.42" x2="543.79" y2="148.25"/><line class="cls-4" x1="538.9" y1="130.6" x2="538.9" y2="148.25"/><line class="cls-4" x1="536.63" y1="147.69" x2="536.63" y2="136.37"/><line class="cls-4" x1="531.58" y1="133.12" x2="531.58" y2="148.96"/><line class="cls-4" x1="529.65" y1="138.14" x2="529.65" y2="148.96"/><line class="cls-4" x1="524.9" y1="135.28" x2="524.9" y2="148.25"/><line class="cls-4" x1="522.5" y1="139.82" x2="522.5" y2="148.25"/><line class="cls-4" x1="518.04" y1="137.36" x2="518.04" y2="149.94"/><line class="cls-4" x1="516.26" y1="141.34" x2="516.26" y2="149.42"/><line class="cls-4" x1="511.53" y1="139.2" x2="511.53" y2="148.96"/><line class="cls-4" x1="510.17" y1="142.4" x2="510.17" y2="149.11"/><line class="cls-4" x1="506.08" y1="143.16" x2="506.08" y2="149"/><line class="cls-4" x1="497.56" y1="142.67" x2="497.56" y2="149.11"/><line class="cls-4" x1="504.08" y1="141.14" x2="504.08" y2="148.96"/><line class="cls-4" x1="488.29" y1="144.6" x2="488.29" y2="148.67"/><line class="cls-4" x1="495.73" y1="144.89" x2="495.73" y2="149.11"/><line class="cls-4" x1="419.9" y1="148.67" x2="419.9" y2="152.02"/><line class="cls-4" x1="402.51" y1="147.36" x2="402.51" y2="152.63"/><line class="cls-4" x1="412.39" y1="148.21" x2="412.39" y2="152.02"/><line class="cls-4" x1="409.35" y1="146.64" x2="409.35" y2="152.63"/><line class="cls-4" x1="396.24" y1="144.89" x2="396.24" y2="152.63"/><line class="cls-4" x1="393.91" y1="146.38" x2="393.91" y2="152.63"/><line class="cls-4" x1="386.69" y1="142.85" x2="386.69" y2="154.1"/><line class="cls-4" x1="384.73" y1="145.08" x2="384.73" y2="154.1"/><line class="cls-4" x1="379.4" y1="141.25" x2="379.4" y2="153.12"/><line class="cls-4" x1="377.62" y1="143.9" x2="377.62" y2="154.1"/><line class="cls-4" x1="370.56" y1="139.06" x2="370.56" y2="154.1"/><line class="cls-4" x1="368" y1="142.05" x2="368" y2="154.1"/><line class="cls-4" x1="361.01" y1="136.38" x2="361.01" y2="154.83"/><line class="cls-4" x1="359.34" y1="140.12" x2="359.34" y2="155.32"/><line class="cls-4" x1="352.56" y1="133.74" x2="352.56" y2="155.32"/><line class="cls-4" x1="350.05" y1="137.77" x2="350.05" y2="155.32"/><line class="cls-4" x1="345.3" y1="131.26" x2="345.3" y2="155.32"/><line class="cls-4" x1="343.61" y1="136.38" x2="343.61" y2="154.83"/><line class="cls-4" x1="340.06" y1="129.35" x2="340.06" y2="155.93"/><line class="cls-4" x1="338.46" y1="134.42" x2="338.46" y2="156.67"/><line class="cls-4" x1="334.38" y1="127.17" x2="334.38" y2="156.67"/><line class="cls-4" x1="332.85" y1="132.62" x2="332.85" y2="156.67"/><line class="cls-4" x1="328.94" y1="124.96" x2="328.94" y2="156.67"/><line class="cls-4" x1="327.57" y1="131.26" x2="327.57" y2="157.4"/><line class="cls-4" x1="323.78" y1="122.77" x2="323.78" y2="157.89"/><line class="cls-4" x1="322.18" y1="128.89" x2="322.18" y2="157.4"/><line class="cls-4" x1="318.07" y1="120.22" x2="318.07" y2="157.4"/><line class="cls-4" x1="316.72" y1="126.82" x2="316.72" y2="156.67"/><line class="cls-4" x1="312.52" y1="117.62" x2="312.52" y2="158.63"/><line class="cls-4" x1="310.82" y1="124.44" x2="310.82" y2="157.89"/><line class="cls-4" x1="307.45" y1="115.14" x2="307.45" y2="158.63"/><line class="cls-4" x1="306.15" y1="122.77" x2="306.15" y2="157.89"/><line class="cls-4" x1="302.14" y1="112.43" x2="302.14" y2="158.26"/><line class="cls-4" x1="301.1" y1="120.22" x2="301.1" y2="158.63"/><line class="cls-4" x1="296.97" y1="109.68" x2="296.97" y2="157.89"/><line class="cls-4" x1="295.54" y1="117.62" x2="295.54" y2="157.89"/><line class="cls-4" x1="291.98" y1="106.92" x2="291.98" y2="158.63"/><line class="cls-4" x1="289.86" y1="114.83" x2="289.86" y2="158.63"/><line class="cls-4" x1="286.76" y1="103.92" x2="286.76" y2="158.63"/><line class="cls-4" x1="285.19" y1="112.43" x2="285.19" y2="159.24"/><line class="cls-4" x1="281.84" y1="100.98" x2="281.84" y2="159.24"/><line class="cls-4" x1="280.07" y1="109.68" x2="280.07" y2="158.63"/><line class="cls-4" x1="276.49" y1="97.67" x2="276.49" y2="161.2"/><line class="cls-4" x1="274.34" y1="106.46" x2="274.34" y2="160.09"/><line class="cls-4" x1="271.13" y1="94.21" x2="271.13" y2="160.09"/><line class="cls-4" x1="269.05" y1="103.33" x2="269.05" y2="160.09"/><line class="cls-4" x1="266.62" y1="91.19" x2="266.62" y2="161.2"/><line class="cls-4" x1="264.16" y1="100.31" x2="264.16" y2="160.58"/><line class="cls-4" x1="261.62" y1="87.73" x2="261.62" y2="160.09"/><line class="cls-4" x1="259.34" y1="97.2" x2="259.34" y2="160.58"/><line class="cls-4" x1="256.44" y1="83.99" x2="256.44" y2="161.2"/><line class="cls-4" x1="254.22" y1="93.76" x2="254.22" y2="160.58"/><line class="cls-4" x1="251.72" y1="80.47" x2="251.72" y2="161.2"/><line class="cls-4" x1="249.27" y1="90.28" x2="249.27" y2="161.2"/><line class="cls-4" x1="246.7" y1="76.57" x2="246.7" y2="163.51"/><line class="cls-4" x1="244.6" y1="86.85" x2="244.6" y2="161.2"/><line class="cls-4" x1="242.1" y1="72.85" x2="242.1" y2="161.2"/><line class="cls-4" x1="239.34" y1="82.81" x2="239.34" y2="162.3"/><line class="cls-4" x1="237.06" y1="68.6" x2="237.06" y2="163.51"/><line class="cls-4" x1="234.61" y1="78.99" x2="234.61" y2="162.3"/><line class="cls-4" x1="232.06" y1="64.16" x2="232.06" y2="163.55"/><line class="cls-4" x1="222.34" y1="68.17" x2="222.34" y2="164.49"/><line class="cls-4" x1="219.77" y1="68.17" x2="219.77" y2="163.55"/><line class="cls-4" x1="217.29" y1="163.55" x2="217.29" y2="65.6"/><line class="cls-4" x1="214.94" y1="65.6" x2="214.94" y2="165.6"/><line class="cls-4" x1="205.02" y1="66.19" x2="205.02" y2="164.49"/><line class="cls-4" x1="202.87" y1="91.84" x2="202.87" y2="165.6"/><line class="cls-4" x1="200.21" y1="72.85" x2="200.21" y2="165.6"/><line class="cls-4" x1="198.64" y1="97.2" x2="198.64" y2="165.6"/><line class="cls-4" x1="196.07" y1="78.45" x2="196.07" y2="166.53"/><line class="cls-4" x1="194" y1="102.89" x2="194" y2="166.53"/><line class="cls-4" x1="191.32" y1="84.7" x2="191.32" y2="165.6"/><line class="cls-4" x1="189.41" y1="108.33" x2="189.41" y2="166.53"/><line class="cls-4" x1="186.98" y1="90.28" x2="186.98" y2="166.53"/><line class="cls-4" x1="184.62" y1="113.85" x2="184.62" y2="166.53"/><line class="cls-4" x1="182.22" y1="96.25" x2="182.22" y2="166.53"/><line class="cls-4" x1="179.84" y1="119.23" x2="179.84" y2="166.53"/><line class="cls-4" x1="177.26" y1="102.31" x2="177.26" y2="167.72"/><line class="cls-4" x1="175.56" y1="123.91" x2="175.56" y2="167.72"/><line class="cls-4" x1="172.95" y1="168.64" x2="172.95" y2="107.45"/><line class="cls-4" x1="171.38" y1="128.41" x2="171.38" y2="167.87"/><line class="cls-4" x1="168.38" y1="112.78" x2="168.38" y2="169.2"/><line class="cls-4" x1="167.04" y1="132.98" x2="167.04" y2="168.64"/><line class="cls-4" x1="163.75" y1="118.05" x2="163.75" y2="167.87"/><line class="cls-4" x1="162.12" y1="138.05" x2="162.12" y2="167.72"/><line class="cls-4" x1="159.67" y1="122.6" x2="159.67" y2="169.2"/><line class="cls-4" x1="158.51" y1="141.7" x2="158.51" y2="168.64"/><line class="cls-4" x1="155.47" y1="169.2" x2="155.47" y2="127.17"/><line class="cls-4" x1="153.79" y1="146.4" x2="153.79" y2="168.64"/><line class="cls-4" x1="150.67" y1="169.2" x2="150.67" y2="132.27"/><line class="cls-4" x1="149.35" y1="150.74" x2="149.35" y2="169.2"/><line class="cls-4" x1="146.65" y1="136.45" x2="146.65" y2="169.7"/><line class="cls-4" x1="145.08" y1="154.83" x2="145.08" y2="169.7"/><line class="cls-4" x1="142.17" y1="140.99" x2="142.17" y2="170.45"/><line class="cls-4" x1="137.86" y1="145.81" x2="137.86" y2="171.38"/><line class="cls-4" x1="141.09" y1="158.6" x2="141.09" y2="171.96"/><line class="cls-4" x1="133.88" y1="149.11" x2="133.88" y2="171.38"/><line class="cls-4" x1="129.42" y1="153.32" x2="129.42" y2="171.71"/><line class="cls-4" x1="125.27" y1="157.14" x2="125.27" y2="173.93"/><line class="cls-4" x1="120.7" y1="161.2" x2="120.7" y2="174.54"/><line class="cls-4" x1="116.44" y1="165.28" x2="116.44" y2="174.54"/><line class="cls-4" x1="758.05" y1="14.27" x2="758.05" y2="147.69"/><line class="cls-4" x1="760.69" y1="14.27" x2="760.69" y2="146.56"/><line class="cls-4" x1="778.88" y1="12.66" x2="778.88" y2="149.11"/><line class="cls-4" x1="776.44" y1="27.45" x2="776.44" y2="146.56"/><line class="cls-4" x1="784.86" y1="33.82" x2="784.86" y2="146.56"/><line class="cls-4" x1="788.28" y1="146.56" x2="788.28" y2="20.53"/><line class="cls-4" x1="794.5" y1="40.99" x2="794.5" y2="146.56"/><line class="cls-4" x1="797.1" y1="27.45" x2="797.1" y2="145.75"/><line class="cls-4" x1="803.72" y1="47.74" x2="803.72" y2="147.69"/><line class="cls-4" x1="805.73" y1="34.22" x2="805.73" y2="145.75"/><line class="cls-4" x1="812.74" y1="54.25" x2="812.74" y2="145.75"/><line class="cls-4" x1="815.16" y1="41.46" x2="815.16" y2="146.56"/><line class="cls-4" x1="821.83" y1="60.72" x2="821.83" y2="146.56"/><line class="cls-4" x1="823.84" y1="48" x2="823.84" y2="146.56"/><line class="cls-4" x1="831.07" y1="67.19" x2="831.07" y2="145.75"/><line class="cls-4" x1="833.28" y1="54.95" x2="833.28" y2="145.75"/><line class="cls-4" x1="840.64" y1="73.79" x2="840.64" y2="146.56"/><line class="cls-4" x1="842.51" y1="61.6" x2="842.51" y2="146.56"/><line class="cls-4" x1="850.15" y1="80.24" x2="850.15" y2="146.56"/><line class="cls-4" x1="852.12" y1="68.38" x2="852.12" y2="147.69"/><line class="cls-4" x1="859.82" y1="86.68" x2="859.82" y2="146.56"/><line class="cls-4" x1="861.58" y1="74.89" x2="861.58" y2="146.56"/><line class="cls-4" x1="869.44" y1="92.95" x2="869.44" y2="146.92"/><line class="cls-4" x1="871.62" y1="81.63" x2="871.62" y2="146.56"/><line class="cls-4" x1="879.18" y1="99.17" x2="879.18" y2="147.32"/><line class="cls-4" x1="881.16" y1="87.86" x2="881.16" y2="146.92"/><line class="cls-4" x1="888.98" y1="105.29" x2="888.98" y2="146.92"/><line class="cls-4" x1="890.67" y1="93.92" x2="890.67" y2="146.56"/><line class="cls-4" x1="898.57" y1="111.11" x2="898.57" y2="146.56"/><line class="cls-4" x1="900.34" y1="99.9" x2="900.34" y2="146.56"/><line class="cls-4" x1="908.76" y1="117.12" x2="908.76" y2="147.69"/><line class="cls-4" x1="910.45" y1="105.96" x2="910.45" y2="147.32"/><line class="cls-4" x1="918.63" y1="122.75" x2="918.63" y2="147.69"/><line class="cls-4" x1="920.29" y1="111.66" x2="920.29" y2="147.69"/><line class="cls-4" x1="929.33" y1="128.6" x2="929.33" y2="146.56"/><line class="cls-4" x1="931.21" y1="117.74" x2="931.21" y2="145.84"/><line class="cls-4" x1="940.03" y1="134.17" x2="940.03" y2="146.92"/><line class="cls-4" x1="941.5" y1="123.23" x2="941.5" y2="146.92"/><line class="cls-4" x1="950.23" y1="139.18" x2="950.23" y2="146.92"/><line class="cls-4" x1="952.51" y1="128.84" x2="952.51" y2="146.92"/><line class="cls-4" x1="961.37" y1="133.13" x2="961.37" y2="147.69"/><path class="cls-3" d="M764.93,201V165.21s-1-.41-1-4.54V146.15h1.23v-44h.65V65.54h.63V35.4h.63V6.23s.36-2.14,1.68-2.14v-2h1.57V4L773,6.26V34.8h.69V64.9h.62v36.68H775V201Z"/><polygon class="cls-3" points="752.68 6.26 754.67 8.76 765.16 8.76 767.08 6.23 767.08 19.1 764.53 16.99 754.67 16.99 752.68 19.1 752.68 6.26"/><polygon class="cls-3" points="752.68 33.85 754.67 36.64 765.16 36.64 767.08 33.82 767.08 48.16 764.53 45.81 754.67 45.81 752.68 48.16 752.68 33.85"/><polygon class="cls-3" points="752.68 63.83 754.67 67 765.16 67 767.08 63.79 767.08 80.09 764.53 77.42 754.67 77.42 752.68 80.09 752.68 63.83"/><polygon class="cls-3" points="752.68 99.51 755.61 103.27 763.93 103.26 767.08 99.46 767.08 118.77 763.3 115.61 755.61 115.61 752.68 118.77 752.68 99.51"/><polyline class="cls-2" points="212.63 170.19 223.32 182.94 225.17 181.4 214.47 168.64"/><polygon class="cls-3" points="752.68 33.85 754.67 36.64 765.16 36.64 767.08 33.82 767.08 48.16 764.53 45.81 754.67 45.81 752.68 48.16 752.68 33.85"/><polygon class="cls-3" points="752.68 63.83 754.67 67 765.16 67 767.08 63.79 767.08 80.09 764.53 77.42 754.67 77.42 752.68 80.09 752.68 63.83"/><polyline class="cls-2" points="224.59 170.19 213.89 182.94 212.04 181.4 222.74 168.64"/><polygon class="cls-3" points="752.68 99.51 755.61 103.27 763.93 103.26 767.08 99.46 767.08 118.77 763.3 115.61 755.61 115.61 752.68 118.77 752.68 99.51"/><polyline class="cls-2" points="224.86 196.52 214.79 184.52 212.94 186.07 221.71 196.52"/><rect class="cls-2" x="212.71" y="183.15" width="12.37" height="1.37"/><rect class="cls-2" x="211.98" y="198.55" width="12.37" height="1.37"/><polyline class="cls-2" points="215.77 196.52 224.54 186.07 222.69 184.52 212.62 196.52"/><path class="cls-3" d="M222.61,201V178.74s-.74-.31-.74-3.39V164.49h.92V131.58h.49V104.19h.47V81.65h.47V59.83s.27-1.6,1.26-1.6V56.75h1.17v1.43l2,1.67V81.2h.51v22.51h.46v27.44h.51V201Z"/><path class="cls-1" d="M128.41,170.1s59.94-51.61,93.46-105.22"/><path class="cls-3" d="M207.42,201V178.74s-.74-.31-.74-3.39V164.49h.92V131.58h.49V104.19h.47V81.65H209V59.83s.27-1.6,1.26-1.6V56.75h1.17v1.43l2,1.67V81.2H214v22.51h.46v27.44h.51V201Z"/><polygon class="cls-3" points="213.46 80.49 214.94 82.58 222.79 82.58 224.23 80.47 224.23 91.19 222.32 89.44 214.94 89.44 213.46 91.19 213.46 80.49"/><polygon class="cls-3" points="213.46 102.92 214.94 105.29 222.79 105.29 224.23 102.89 224.23 115.08 222.32 113.08 214.94 113.08 213.46 115.08 213.46 102.92"/><polygon class="cls-3" points="213.46 129.6 215.64 132.42 221.87 132.41 224.23 129.57 224.23 144.01 221.4 141.64 215.64 141.65 213.46 144.01 213.46 129.6"/><line class="cls-2" x1="2.5" y1="184.58" x2="78.85" y2="179.82"/><rect class="cls-2" x="119.68" y="182.57" width="3.59" height="26.04"/><rect class="cls-2" x="105.82" y="169.2" width="2.17" height="41.89"/><rect class="cls-2" x="124.18" y="169.2" width="2.17" height="41.89"/><path class="cls-3" d="M126.35,169.2v8.18H111.06V169.2H108v41.89h21.43V169.2ZM115.7,208.61V184.13h6.55v24.48Z"/><rect class="cls-3" x="107.2" y="166.53" width="2.67" height="2.67"/><rect class="cls-2" x="107.2" y="166.53" width="0.78" height="2.67"/><rect class="cls-3" x="125.56" y="166.53" width="2.67" height="2.67"/><rect class="cls-2" x="125.56" y="166.53" width="0.79" height="2.67"/><rect class="cls-2" x="91.23" y="184.28" width="3.59" height="24.48"/><rect class="cls-2" x="77.37" y="171.71" width="2.17" height="39.38"/><rect class="cls-2" x="95.74" y="171.71" width="2.17" height="39.38"/><path class="cls-3" d="M97.91,171.71v7.69H82.61v-7.69H79.54v39.38H101V171.71Zm-10.65,37v-23H93.8v23Z"/><rect class="cls-3" x="78.76" y="169.2" width="2.67" height="2.51"/><rect class="cls-2" x="78.76" y="169.2" width="0.78" height="2.51"/><rect class="cls-3" x="97.12" y="169.2" width="2.67" height="2.51"/><rect class="cls-2" x="97.12" y="169.2" width="0.79" height="2.51"/><path class="cls-5" d="M682.67,144.89S518.27,147,478.24,148s-194.76,9.08-248.92,13.12S79,175,79,175L2.5,179.63v2.48l76.34-4.76c337.89-30.94,603.82-28.25,603.82-28.25h280.2v-4.21Z"/><rect class="cls-2" x="745.38" y="154.04" width="28.69" height="0.7"/><path class="cls-5" d="M682.67,149s-153.26,0-204.43,3.15c-40,1-194.76,9.08-248.92,13.12-54.59,3.41-150.47,12.12-150.47,12.12L2.5,182.12v4.36l76-4.36C416.35,151.17,683,155.23,683,155.23l279.89,2V149Z"/><rect class="cls-3" x="107.98" y="171.16" width="3.06" height="15.66"/><rect class="cls-2" x="105.82" y="171.83" width="2.17" height="15.66"/><rect class="cls-5" x="51.58" y="199.94" width="2.22" height="11.15"/><rect class="cls-2" x="53.81" y="199.59" width="4.09" height="11.5"/><rect class="cls-3" x="79.54" y="174.22" width="3.06" height="11.75"/><rect class="cls-5" x="64.22" y="199.94" width="2.22" height="11.15"/><rect class="cls-2" x="51.58" y="196.52" width="27.18" height="4.29"/><rect class="cls-2" x="77.37" y="174.73" width="2.17" height="11.75"/><rect class="cls-2" x="66.44" y="199.59" width="4.09" height="11.5"/><rect class="cls-3" x="206.05" y="200.98" width="8.89" height="4.77"/><rect class="cls-3" x="222.61" y="200.98" width="8.89" height="4.77"/><rect class="cls-2" x="203.62" y="205.75" width="29.4" height="6.23"/><rect class="cls-5" x="189.42" y="211.98" width="57.49" height="1.91"/><rect class="cls-3" x="742.76" y="200.98" width="11.92" height="4.77"/><rect class="cls-3" x="764.93" y="200.98" width="11.92" height="4.77"/><rect class="cls-2" x="740.94" y="205.75" width="38.03" height="6.23"/><rect class="cls-5" x="729.83" y="211.98" width="57.49" height="1.91"/><rect class="cls-5" x="2.5" y="211.09" width="130.63" height="2.8"/><rect class="cls-3" x="212.49" y="61.58" width="12.92" height="6.59"/><rect class="cls-3" x="217.2" y="59.85" width="2.56" height="1.73"/></svg>