<svg id="Layer_1" data-name="Layer 1" xmlns="http://www.w3.org/2000/svg" viewBox="0 0 448 418"><defs><style>.cls-1{fill:#de5c5c;}.cls-2{fill:#f1f1f1;}.cls-3{fill:#5697fb;}.cls-4{fill:#e37474;}.cls-5{fill:#42005b;}.cls-6{fill:#da0100;}</style></defs><title>sanfran</title><path class="cls-1" d="M3.71,416A20.33,20.33,0,0,1,2,407.87c0-13.13,12.68-23.78,28.33-23.78s28.33,10.65,28.33,23.78A20.33,20.33,0,0,1,56.91,416Z"/><polygon class="cls-1" points="318.69 104.49 235.72 415.84 41.99 415.84 145.94 104.49 318.69 104.49"/><path class="cls-2" d="M287.92,105.25s-37.28,17.52-65.24,20-37,1.92-36.38,9.31,7.52,9,23.45,11,41.49,4.11,62.53,0,17.44-.27,21-5.48,8.12-15.33,8.12-15.33l7.82,1.85v15.13s-9.62,11.23-24.65,10.4-34.57-1.83-45.09,0c-6,.93.11,3.23,5.67,3.71s29.15,3.5,34.31,8S276.6,176,266,179.59s-27.56,8.81-27.56,8.81,18.42-9.17,18.81-14c-.16-3.21-3.74-2.12-5.94-4.27,1.94-11.51-33.62-13.36-57.16-14.16-42.42-4.52-56.24-14.14-54-19S169,124.3,176.61,121.67s19.87-5.28,20.07-8.1a30.42,30.42,0,0,1,.62-4.52l.41-3.79Z"/><path class="cls-2" d="M237.87,208.55s-32.49,4-46.77,3S165,209.68,164,205.72s-11.38-4.33-11.38-4.33-3.31,5.57,10.76,10.32,41.18,14.54,50.29,16.62,23.18,3.59,24.21,9.81c6.62,0,8.28,4,7.45,5.09s-50,19.35-73.84,17.74-34.44-.27-40.62,2.95-21.2,7.51-10,18.5c7.65,4,49.75,11.53,68,17.16s31.2,9.92,31.2,16.62-7.95,9.38-7.95,9.38-39.15,4-65.94-3.22-53-14.2-58.11-10.93-4.36,7.48,3.34,8.42,25.67.47,37.73,5.14,18.48,10.29,16.17,13.09c0,0,25.93-6.55,39.27-7.48s35.42-4.68,48.26-9.82,18.22-7.48,21.82-7.25V303.26s-66-3.74-93.43-14S145,273.33,146.83,273.1s1-5.61,6.67-6.55S267.73,252.29,268,246s1.54-13.56-7.19-18.7S251,220,251,220l-23.36,4.21s-10,2.34-8.73-3.27,10.27-5.61,10.27-5.61S228.53,211.33,237.87,208.55Z"/><path class="cls-3" d="M172.63,358.38s-10.56,4.92-11.84,12.66-41.71-6.33-41.71-6.33v-6.33l2.13-2.86s-3.16,5.44,9.46,5.91S166.7,357.21,172.63,358.38Z"/><path class="cls-2" d="M130.65,345s-16.22,11.26-7.21,17.59S160.78,371,160.78,371s-1,6.1,21.11,6.8,50,5.63,52.27,10.08.51,7.74-4.38,8.44-57.16,5.86-68.75,19.46H117s46.61-9.85,52.53-12.19,16.48-8,13.65-11.49-9-6.8-33.47-11.73-56.65-12-60.51-17.59-2.06-11.73,6.44-12.9S118.81,348.53,130.65,345Z"/><path class="cls-3" d="M250.65,288.26s-1.79,9.82,4,15c-13-.92-62-5-85.51-11.51s-35.73-13.65-22.3-18.65c-1,4.38-.47,7.43,5.45,10s12.11,5.93,24.21,5.07S242.15,285.45,250.65,288.26Z"/><path class="cls-4" d="M296,110.07s-2.82-.29-7.18,10.8A154.13,154.13,0,0,1,282,136.6s-19.81,5.63-40.9,5a426.92,426.92,0,0,1-44.53-4.3,62.56,62.56,0,0,1,22.18-5.46c12-.5,34.72-6.79,41.08-8.44s14.18-.83,23.08-9.77A17,17,0,0,1,296,110.07Z"/><path class="cls-4" d="M180.34,112.27s-3.82,3.15-13.27,6-21.27,9.27-21.27,9.27L148,111.11s-.36-3.15,4.18,0c1.09-4.3,7.27-6.62,10.91-6.62S177.25,107.47,180.34,112.27Z"/><path class="cls-4" d="M145.81,151.3s-1,5.38,24.83,6.28,60.79,6.05,63.25,7.62,14,6.05,5.41,9-71.87,24.66-110.51,19.28C133,182.46,145.81,151.3,145.81,151.3Z"/><path class="cls-4" d="M270.32,184.48s-27.81,9.41-56.61,11.88-44.06,4.48-44.3,6.28,15.51,2.91,29.29,2.24,60.55-5.38,60.55-5.38Z"/><path class="cls-4" d="M152.42,219.22l49.47,13.9s36.43,6.28,20.67,9.86-32.24,12.33-49.47,11.66-33.23.22-42.83,2.69-4.92-10.54-4.92-10.54,12.06-23.76,17.47-27.57S152.42,219.22,152.42,219.22Z"/><path class="cls-4" d="M148.24,201.39s-20.24.35-24-1.67.29,2.28,2,3.49,2.13,4.16,3.66,4.63,21.13-1.94,21-3.61S148.24,201.39,148.24,201.39Z"/><path class="cls-4" d="M256.52,260.34s-9,3-6.32,21.91c-18.47,0-82.14,4.65-88.22,1.11-6.32-1.77-11.42-5.53-11.06-6.42s-3.52-3.76,12.27-5.31,63-15.27,79.25-15.72S256.52,260.34,256.52,260.34Z"/><path class="cls-4" d="M122.65,289.78s45.65,8,56.83,11.29,41.31,8.63,35.73,15.27-53.22.44-102.8-9.3C118.72,295.75,122.65,289.78,122.65,289.78Z"/><path class="cls-4" d="M96.36,324.75s39.86,5.31,41.8,11.29-11.94,4.87-19.1,6.2-21.49,4.9-30.73,2.78S96.36,324.75,96.36,324.75Z"/><path class="cls-4" d="M241.45,328.29v9.8s-32.81,6.36-49.33,9-45,6.86-45,6.86-20.41,3.32-15.07-1.77,13.37-9.34,25.52-10.54,31.6-3.19,40.35-5,38.4-8.41,38.4-8.41Z"/><path class="cls-4" d="M101.47,373.37s11.67,10.7-11.91,22-48.12,20.48-48.12,20.48H77.89s47.63-10.74,49.82-11,42.53-10.18,42-12.4-1.22-2.66-25.52-8.63S101.47,373.37,101.47,373.37Z"/><path class="cls-4" d="M229.78,399.56s-40.34,2-62.94,16.28H216.9s-5.1-4.55,5.59-9.19S229.78,399.56,229.78,399.56Z"/><path class="cls-4" d="M241.45,343.56s-44.47,9.54-52.25,12-19.68,7.07-19.44,12.61,5.34,7.08,18,8.19,28.68,2,35.73,4.11,14.58,4.3,14.58,4.3Z"/><path class="cls-1" d="M113.12,136.77a15,15,0,0,0-.18-2.1c-.33-1.84-3.21-8.93,1.29-8.73a6.51,6.51,0,0,1,2.46,1.06c6.42,6,23.27,14.81,23.27,14.81s6.41,8.05,1.81,19.36-5.31,30.32-13,32.27-16.54-.69-16.39-5S115,177,118.73,176s10.16-6.15,3.92-8.07-14.41-7.88-14.41-12.34C108.25,151.56,114.73,141.51,113.12,136.77Z"/><path class="cls-4" d="M145.94,104.49s-10.19-7.35-11.91-1.87-7.74,23.13-7.74,23.13l-3.65,6.47,11.56,7.4Z"/><path class="cls-4" d="M189,104.49s-3-7.35-6.45-7.54-10.32-.73-10.32,3.65c-5.47,0-22.58-1.7-22.86,0s-3.49,3.9-3.49,3.9l4.8,3.8s25-.8,27.3,1.59l2.3,2.39s7.79,1.11,8.21-2.39S189,104.49,189,104.49Z"/><ellipse class="cls-1" cx="62.06" cy="377.05" rx="20.07" ry="26.5"/><ellipse class="cls-1" cx="37.73" cy="378.07" rx="20.91" ry="19.04"/><path class="cls-1" d="M70,273.23s-5.24,6.83-1,27.81-6.48,22.38-8.87,31.67-5.69,24.16,0,28.73,15-33.15,15-33.15L85.62,295l8.26-25.3-9.1-2Z"/><path class="cls-4" d="M102,202.48s18.73,4.34,16.58,11.35-7.31,2.31-12,17.19S94.7,274.84,82.13,275.24s-13.6-.06-12.14-2a148.77,148.77,0,0,0,15.63-20.62c5-8.28,17.46-28,14.46-36s-8.78-13.29-3.44-13.73Z"/><rect class="cls-2" x="261.98" y="308.65" width="15.41" height="13.1" transform="translate(539.37 630.4) rotate(-180)"/><polygon class="cls-2" points="285.48 217.53 294.41 217.53 294.41 199.62 285.48 205.62 285.48 217.53"/><polygon class="cls-2" points="290.92 186.51 290.92 204.21 303.04 204.21 303.04 185.84 292.88 185.84 290.92 186.51"/><polygon class="cls-4" points="290.92 186.51 302.46 189.83 302.69 189.9 302.69 188.09 302.46 188.05 292.88 185.84 290.92 186.51"/><polygon class="cls-2" points="335.36 66.58 388.63 66.58 388.63 9.68 341.94 9.68 335.36 14.71 335.36 66.58"/><rect class="cls-5" x="388.64" y="2" width="57.19" height="58.3" transform="translate(834.46 62.3) rotate(-180)"/><rect class="cls-4" x="376.45" y="60.3" width="69.37" height="7.65" transform="translate(822.28 128.25) rotate(-180)"/><polygon class="cls-3" points="381.38 64 376.1 61.55 338.33 68.85 338.33 98.17 381.38 98.17 381.38 64"/><rect class="cls-3" x="277.39" y="216.64" width="168.43" height="128.36" transform="translate(723.22 561.64) rotate(-180)"/><polygon class="cls-3" points="269.14 260.13 277.39 260.13 277.39 220.32 269.14 223.05 269.14 260.13"/><rect class="cls-4" x="328.9" y="223.68" width="19.62" height="17.87" transform="translate(677.42 465.24) rotate(-180)"/><rect class="cls-2" x="331.32" y="225.89" width="14.78" height="13.46" transform="translate(677.42 465.24) rotate(-180)"/><rect class="cls-4" x="305.98" y="223.68" width="19.62" height="17.87" transform="translate(631.58 465.24) rotate(-180)"/><rect class="cls-2" x="308.4" y="225.89" width="14.78" height="13.46" transform="translate(631.58 465.24) rotate(-180)"/><rect class="cls-4" x="283.06" y="223.68" width="19.62" height="17.87" transform="translate(585.73 465.24) rotate(-180)"/><rect class="cls-2" x="285.48" y="225.89" width="14.78" height="13.46" transform="translate(585.73 465.24) rotate(-180)"/><polygon class="cls-4" points="445.83 195.46 297.3 195.46 294.41 199.62 445.83 199.62 445.83 195.46"/><rect class="cls-2" x="294.41" y="199.62" width="151.42" height="17.02" transform="translate(740.24 416.26) rotate(-180)"/><rect class="cls-2" x="325.6" y="189.91" width="15.38" height="25.13" transform="translate(666.57 404.96) rotate(-180)"/><polygon class="cls-3" points="322.37 216.64 350.21 216.64 350.21 211.01 327.3 211.01 322.37 216.64"/><rect class="cls-4" x="371.68" y="204.06" width="54.36" height="12.58" transform="translate(797.73 420.71) rotate(-180)"/><rect class="cls-4" x="412.23" y="207.33" width="10.22" height="9.31" transform="translate(834.69 423.97) rotate(-180)"/><rect class="cls-4" x="399.5" y="207.33" width="10.22" height="9.31" transform="translate(809.22 423.97) rotate(-180)"/><rect class="cls-4" x="386.76" y="207.33" width="10.22" height="9.31" transform="translate(783.75 423.97) rotate(-180)"/><rect class="cls-4" x="374.03" y="207.33" width="10.22" height="9.31" transform="translate(758.28 423.97) rotate(-180)"/><rect class="cls-4" x="302.68" y="158.42" width="143.15" height="37.05" transform="translate(748.5 353.88) rotate(-180)"/><polygon class="cls-1" points="426.04 204.06 416.16 195.46 364.85 195.46 371.68 204.06 426.04 204.06"/><rect class="cls-3" x="398.86" y="161.17" width="20.81" height="4.15" transform="translate(818.53 326.5) rotate(-180)"/><rect class="cls-3" x="398.86" y="167.61" width="20.81" height="16.83" transform="translate(818.53 352.04) rotate(-180)"/><rect class="cls-3" x="353.02" y="161.17" width="22.25" height="4.15" transform="translate(728.29 326.5) rotate(-180)"/><rect class="cls-3" x="353.02" y="167.61" width="22.25" height="16.83" transform="translate(728.29 352.04) rotate(-180)"/><rect class="cls-3" x="313.94" y="161.17" width="23.13" height="4.15" transform="translate(651.01 326.5) rotate(-180)"/><rect class="cls-3" x="313.94" y="167.61" width="23.13" height="16.83" transform="translate(651.01 352.04) rotate(-180)"/><rect class="cls-3" x="302.68" y="188.1" width="125.6" height="1.81" transform="translate(730.95 378.01) rotate(-180)"/><rect class="cls-3" x="301.18" y="157.45" width="144.64" height="0.96" transform="translate(747.01 315.87) rotate(-180)"/><rect class="cls-3" x="428.28" y="188.1" width="17.55" height="1.81" transform="translate(874.1 378.01) rotate(-180)"/><rect class="cls-3" x="428.81" y="189.91" width="17.01" height="1.81" transform="translate(874.64 381.64) rotate(-180)"/><rect class="cls-3" x="428.81" y="189.91" width="17.01" height="1.81" transform="translate(874.64 381.64) rotate(-180)"/><rect class="cls-3" x="429.84" y="191.72" width="15.99" height="1.81" transform="translate(875.66 385.26) rotate(-180)"/><rect class="cls-1" x="429.84" y="191.72" width="15.99" height="0.21" transform="translate(875.66 383.66) rotate(-180)"/><rect class="cls-1" x="428.81" y="189.91" width="17.01" height="0.21" transform="translate(874.64 380.04) rotate(-180)"/><rect class="cls-3" x="430.82" y="193.54" width="15" height="1.81" transform="translate(876.65 388.88) rotate(-180)"/><rect class="cls-3" x="431.75" y="195.35" width="14.07" height="1.81" transform="translate(877.58 392.51) rotate(-180)"/><rect class="cls-1" x="430.82" y="193.54" width="15" height="0.21" transform="translate(876.65 387.29) rotate(-180)"/><rect class="cls-1" x="431.75" y="195.35" width="14.07" height="0.21" transform="translate(877.58 390.91) rotate(-180)"/><rect class="cls-5" x="281.4" y="295.45" width="127.34" height="99.1" transform="translate(690.14 690) rotate(-180)"/><rect class="cls-3" x="338.7" y="76.68" width="42.69" height="21.65" transform="translate(720.08 175.01) rotate(-180)"/><rect class="cls-4" x="261.98" y="299.13" width="51.99" height="15.4" transform="translate(575.96 613.67) rotate(-180)"/><rect class="cls-3" x="272.57" y="314.53" width="64.97" height="80.01" transform="translate(610.12 709.08) rotate(-180)"/><rect class="cls-2" x="236.98" y="346.95" width="54.24" height="47.6" transform="translate(528.19 741.5) rotate(-180)"/><rect class="cls-5" x="256.03" y="352.91" width="28.45" height="20.78" transform="translate(540.5 726.6) rotate(-180)"/><polygon class="cls-4" points="242.06 346.95 291.22 346.95 291.32 316.69 242.17 316.69 242.06 346.95"/><rect class="cls-6" x="355.91" y="337.95" width="90.11" height="75.64" transform="translate(801.93 751.53) rotate(-180)"/><rect class="cls-3" x="228.79" y="394.55" width="197.74" height="9" transform="translate(655.31 798.1) rotate(-180)"/><polygon class="cls-5" points="426.53 403.55 239.12 403.55 219.07 407.87 219.07 409.6 228.79 409.6 228.79 415.64 442.91 415.64 426.53 403.55"/><rect class="cls-5" x="266.64" y="260.18" width="91.38" height="35.27" transform="translate(624.65 555.64) rotate(-180)"/><rect class="cls-5" x="304.38" y="253.54" width="6.67" height="7.23" transform="translate(615.42 514.31) rotate(-180)"/><polygon class="cls-5" points="273.85 252.61 280.13 252.61 281.4 254.84 281.4 261.64 272.57 261.64 272.57 254.84 273.85 252.61"/><polygon class="cls-5" points="348.72 252.61 353.35 252.61 354.29 254.84 354.29 261.64 347.78 261.64 347.78 254.84 348.72 252.61"/><rect class="cls-3" x="406.79" y="345" width="27.64" height="17.64" transform="translate(841.23 707.64) rotate(-180)"/><rect class="cls-3" x="406.79" y="372.84" width="27.64" height="17.64" transform="translate(841.23 763.31) rotate(-180)"/><rect class="cls-3" x="375.17" y="350.96" width="20.34" height="8.86" transform="translate(770.69 710.78) rotate(-180)"/><rect class="cls-3" x="370.31" y="302.83" width="27.86" height="14.5" transform="translate(768.48 620.16) rotate(-180)"/><rect class="cls-3" x="353.28" y="302.83" width="8.4" height="11.7" transform="translate(714.97 617.36) rotate(-180)"/><rect class="cls-2" x="258.94" y="356.47" width="22.63" height="15.55" transform="translate(540.52 728.49) rotate(-180)"/><rect class="cls-5" x="260.85" y="358.61" width="18.8" height="5.64" transform="translate(540.5 722.87) rotate(-180)"/><rect class="cls-3" x="260.85" y="364.25" width="18.8" height="5.64" transform="translate(540.5 734.15) rotate(-180)"/><rect class="cls-1" x="256.49" y="324.04" width="23.56" height="16.89" transform="translate(536.55 664.96) rotate(-180)"/><rect class="cls-3" x="265.17" y="325.22" width="6.21" height="14.24" transform="translate(536.55 664.68) rotate(-180)"/><rect class="cls-3" x="272.57" y="325.22" width="6.21" height="14.24" transform="translate(551.36 664.68) rotate(-180)"/><rect class="cls-3" x="257.75" y="325.22" width="6.21" height="14.24" transform="translate(521.71 664.68) rotate(-180)"/><rect class="cls-5" x="262.83" y="273.23" width="40.75" height="24.16" transform="translate(566.41 570.61) rotate(-180)"/><rect class="cls-3" x="323.75" y="304.11" width="10.47" height="10.42" transform="translate(657.96 618.64) rotate(-180)"/><rect class="cls-3" x="286.52" y="275.24" width="14.71" height="13.4" transform="translate(587.75 563.88) rotate(-180)"/><rect class="cls-2" x="288.75" y="277.27" width="10.26" height="9.34" transform="translate(587.75 563.88) rotate(-180)"/><rect class="cls-3" x="266.14" y="275.24" width="14.71" height="13.4" transform="translate(547 563.88) rotate(-180)"/><rect class="cls-2" x="268.37" y="277.27" width="10.26" height="9.34" transform="translate(547 563.88) rotate(-180)"/><path class="cls-5" d="M262.83,289.85a13.75,13.75,0,0,1-2.5-7.91,6.59,6.59,0,0,0-3.83-6.23v-2.48h6.33Z"/><rect class="cls-4" x="291.22" y="357.31" width="40.34" height="16.38" transform="translate(622.77 731) rotate(-180)"/><rect class="cls-4" x="291.22" y="351.52" width="40.34" height="1.15" transform="translate(622.77 704.2) rotate(-180)"/><rect class="cls-2" x="291.22" y="338.62" width="40.34" height="12.9" transform="translate(622.77 690.15) rotate(-180)"/><rect class="cls-4" x="293.87" y="320.42" width="35.3" height="17" transform="translate(623.04 657.83) rotate(-180)"/><rect class="cls-3" x="306.88" y="321.75" width="9.27" height="14.34" transform="translate(623.04 657.83) rotate(-180)"/><rect class="cls-3" x="295.69" y="321.75" width="9.27" height="14.34" transform="translate(600.64 657.83) rotate(-180)"/><rect class="cls-2" x="385.27" y="320.67" width="43.11" height="17.27" transform="translate(813.65 658.62) rotate(-180)"/><rect class="cls-3" x="317.93" y="321.75" width="9.27" height="14.34" transform="translate(645.13 657.83) rotate(-180)"/><rect class="cls-4" x="362.65" y="331.69" width="61.3" height="6.26" transform="translate(786.61 669.63) rotate(-180)"/><rect class="cls-2" x="364.52" y="313.97" width="7.9" height="17.72" transform="translate(736.94 645.65) rotate(-180)"/><rect class="cls-4" x="364.52" y="323.43" width="59.43" height="1.13" transform="translate(788.47 648) rotate(-180)"/><rect class="cls-3" x="422.56" y="285.31" width="23.46" height="52.64" transform="translate(868.59 623.25) rotate(-180)"/><polygon class="cls-4" points="422.56 285.31 446.02 285.31 446.02 277.27 429.02 277.27 422.56 285.31"/><rect class="cls-4" x="423" y="324" width="0.95" height="8.4" transform="translate(846.95 656.39) rotate(-180)"/><rect class="cls-4" x="415.36" y="324" width="0.95" height="8.4" transform="translate(831.67 656.39) rotate(-180)"/><rect class="cls-4" x="407.72" y="324" width="0.95" height="8.4" transform="translate(816.39 656.39) rotate(-180)"/><rect class="cls-4" x="400.08" y="324" width="0.95" height="8.4" transform="translate(801.11 656.39) rotate(-180)"/><rect class="cls-4" x="392.44" y="324" width="0.95" height="8.4" transform="translate(785.83 656.39) rotate(-180)"/><rect class="cls-4" x="384.8" y="324" width="0.95" height="8.4" transform="translate(770.55 656.39) rotate(-180)"/><rect class="cls-4" x="377.16" y="324" width="0.95" height="8.4" transform="translate(755.27 656.39) rotate(-180)"/><rect class="cls-5" x="256.77" y="296.9" width="57.21" height="4.17" transform="translate(570.74 597.97) rotate(-180)"/><rect class="cls-2" x="266.74" y="302.48" width="8.26" height="12.05" transform="translate(541.75 617.02) rotate(-180)"/><rect class="cls-6" x="307.73" y="302.76" width="1.3" height="11.77" transform="translate(616.76 617.29) rotate(-180)"/><rect class="cls-6" x="300.09" y="302.76" width="1.3" height="11.77" transform="translate(601.48 617.29) rotate(-180)"/><rect class="cls-6" x="292.45" y="302.76" width="1.3" height="11.77" transform="translate(586.19 617.29) rotate(-180)"/><rect class="cls-6" x="284.81" y="302.76" width="1.3" height="11.77" transform="translate(570.91 617.29) rotate(-180)"/><rect class="cls-6" x="296.7" y="290.87" width="0.44" height="24.22" transform="translate(599.9 6.07) rotate(90)"/><rect class="cls-4" x="279.19" y="358.61" width="0.46" height="11.28" transform="translate(558.84 728.51) rotate(-180)"/><rect class="cls-4" x="260.85" y="358.61" width="0.46" height="11.28" transform="translate(522.17 728.51) rotate(-180)"/><rect class="cls-4" x="270.04" y="355.08" width="0.42" height="18.34" transform="translate(634.5 94) rotate(90)"/><polygon class="cls-4" points="299.13 68.85 299.13 66.58 338.7 66.58 376.45 60.3 381.38 64 338.7 68.85 299.13 68.85"/><rect class="cls-4" x="270.04" y="349.65" width="0.42" height="18.34" transform="translate(629.07 88.57) rotate(90)"/><rect class="cls-5" x="425.19" y="296.9" width="8.29" height="17.07" transform="translate(858.68 610.87) rotate(-180)"/><rect class="cls-4" x="270.05" y="360.51" width="0.42" height="18.34" transform="translate(639.94 99.42) rotate(90)"/><rect class="cls-4" x="427.11" y="297.93" width="4.59" height="14.99" transform="translate(858.81 610.85) rotate(-180)"/><rect class="cls-5" x="435.38" y="296.9" width="8.29" height="17.07" transform="translate(879.06 610.87) rotate(-180)"/><rect class="cls-4" x="437.29" y="297.93" width="4.59" height="14.99" transform="translate(879.18 610.85) rotate(-180)"/><rect class="cls-5" x="392.99" y="216.64" width="2.03" height="78.81" transform="translate(788.01 512.09) rotate(-180)"/><rect class="cls-4" x="401.32" y="216.64" width="2.25" height="78.81" transform="translate(804.88 512.09) rotate(-180)"/><rect class="cls-4" x="407.17" y="216.64" width="1.58" height="78.81" transform="translate(815.91 512.09) rotate(-180)"/><rect class="cls-1" x="443.59" y="169.11" width="2.38" height="12.77" transform="translate(889.56 350.99) rotate(-180)"/><rect class="cls-1" x="435.95" y="169.11" width="4.75" height="12.77" transform="translate(876.65 350.99) rotate(-180)"/><rect class="cls-1" x="428.31" y="169.11" width="4.75" height="12.77" transform="translate(861.37 350.99) rotate(-180)"/><rect class="cls-1" x="428.17" y="161.17" width="15.28" height="4.15" transform="translate(871.62 326.5) rotate(-180)"/><rect class="cls-3" x="398.48" y="67.95" width="47.35" height="89.5" transform="translate(844.3 225.4) rotate(-180)"/><polygon class="cls-5" points="398.48 67.95 381.38 64 381.38 158.48 398.48 158.48 398.48 67.95"/><rect class="cls-3" x="338.33" y="98.16" width="43.05" height="59.29" transform="translate(719.72 255.62) rotate(-180)"/><rect class="cls-3" x="306.15" y="127.81" width="32.55" height="29.64" transform="translate(644.85 285.26) rotate(-180)"/><rect class="cls-5" x="312.45" y="68.85" width="26.25" height="58.95" transform="translate(651.14 196.66) rotate(-180)"/><rect class="cls-1" x="420.54" y="78.41" width="13.88" height="12.64" transform="translate(854.95 169.46) rotate(-180)"/><rect class="cls-1" x="420.54" y="101.61" width="13.88" height="12.64" transform="translate(854.95 215.85) rotate(-180)"/><rect class="cls-1" x="420.54" y="124.8" width="13.88" height="12.64" transform="translate(854.95 262.25) rotate(-180)"/><rect class="cls-2" x="402.71" y="78.41" width="6.94" height="12.64" transform="translate(812.35 169.46) rotate(-180)"/><rect class="cls-2" x="402.71" y="101.61" width="6.94" height="12.64" transform="translate(812.35 215.85) rotate(-180)"/><rect class="cls-2" x="402.71" y="124.8" width="6.94" height="12.64" transform="translate(812.35 262.25) rotate(-180)"/><rect class="cls-1" x="365.38" y="127.81" width="9.56" height="19.21" transform="translate(740.33 274.82) rotate(-180)"/><rect class="cls-1" x="353.72" y="127.81" width="9.56" height="19.21" transform="translate(716.99 274.82) rotate(-180)"/><rect class="cls-1" x="341.94" y="127.81" width="9.56" height="19.21" transform="translate(693.45 274.82) rotate(-180)"/><rect class="cls-1" x="342.51" y="100.88" width="19.23" height="15.38" transform="translate(704.26 217.14) rotate(-180)"/><rect class="cls-1" x="325.57" y="98.84" width="9.78" height="10.71" transform="translate(660.93 208.39) rotate(-180)"/><rect class="cls-1" x="315.05" y="98.84" width="8.55" height="10.71" transform="translate(638.65 208.39) rotate(-180)"/><rect class="cls-1" x="325.57" y="73.32" width="9.78" height="10.71" transform="translate(660.93 157.35) rotate(-180)"/><rect class="cls-1" x="315.05" y="73.32" width="8.55" height="10.71" transform="translate(638.65 157.35) rotate(-180)"/><rect class="cls-1" x="325.57" y="132.22" width="10.96" height="14.79" transform="translate(662.1 279.24) rotate(-180)"/><rect class="cls-1" x="310.99" y="132.22" width="12.61" height="14.79" transform="translate(634.59 279.24) rotate(-180)"/><rect class="cls-1" x="344.6" y="78.68" width="6.9" height="10.05" transform="translate(696.11 167.4) rotate(-180)"/><rect class="cls-1" x="353.72" y="78.41" width="13.98" height="10.31" transform="translate(721.41 167.13) rotate(-180)"/><rect class="cls-5" x="338.7" y="89.23" width="42.69" height="0.5" transform="translate(720.08 178.95) rotate(-180)"/><rect class="cls-5" x="338.7" y="93.19" width="42.69" height="0.5" transform="translate(720.08 186.88) rotate(-180)"/><rect class="cls-5" x="338.7" y="96.94" width="42.69" height="0.5" transform="translate(720.08 194.39) rotate(-180)"/><rect class="cls-5" x="338.7" y="89.48" width="0.41" height="7.97" transform="translate(677.81 186.92) rotate(-180)"/><rect class="cls-5" x="380.97" y="89.48" width="0.41" height="7.97" transform="translate(762.35 186.92) rotate(-180)"/><polygon class="cls-2" points="312.44 68.85 299.13 68.85 299.13 121.08 312.44 123.97 312.44 68.85"/><polygon class="cls-5" points="306.15 127.81 296.71 125.22 299.13 121.08 312.44 123.97 312.44 127.81 306.15 127.81"/><polygon class="cls-4" points="296.71 125.22 296.71 158.42 306.15 158.42 306.15 127.89 296.71 125.22"/><rect class="cls-2" x="436.91" y="67.95" width="8.91" height="89.5" transform="translate(882.74 225.4) rotate(-180)"/><rect class="cls-4" x="436.91" y="78.68" width="5.74" height="13.88" transform="translate(879.56 171.24) rotate(-180)"/><rect class="cls-3" x="436.91" y="79.4" width="4.84" height="12.43" transform="translate(878.66 171.24) rotate(-180)"/><rect class="cls-4" x="436.91" y="101.87" width="5.74" height="15.26" transform="translate(879.56 219.01) rotate(-180)"/><rect class="cls-3" x="436.91" y="102.67" width="4.84" height="13.67" transform="translate(878.66 219.01) rotate(-180)"/><rect class="cls-2" x="310.99" y="14.71" width="24.36" height="51.87" transform="translate(646.35 81.29) rotate(-180)"/><polygon class="cls-5" points="310.99 14.71 335.36 14.71 341.94 9.68 341.94 8.22 306.15 8.22 310.99 14.71"/><rect class="cls-2" x="433.73" y="39.05" width="5.6" height="16.78" transform="translate(873.06 94.87) rotate(-180)"/><rect class="cls-2" x="425.14" y="39.05" width="5.6" height="16.78" transform="translate(855.88 94.87) rotate(-180)"/><rect class="cls-2" x="416.55" y="39.05" width="5.6" height="16.78" transform="translate(838.7 94.87) rotate(-180)"/><rect class="cls-2" x="433.73" y="24.61" width="5.6" height="10.35" transform="translate(873.06 59.56) rotate(-180)"/><rect class="cls-2" x="425.14" y="24.61" width="5.6" height="10.35" transform="translate(855.88 59.56) rotate(-180)"/><rect class="cls-2" x="416.55" y="24.61" width="5.6" height="10.35" transform="translate(838.7 59.56) rotate(-180)"/><rect class="cls-2" x="433.73" y="8.37" width="5.6" height="10.35" transform="translate(873.06 27.09) rotate(-180)"/><rect class="cls-2" x="425.14" y="8.37" width="5.6" height="10.35" transform="translate(855.88 27.09) rotate(-180)"/><rect class="cls-2" x="416.55" y="8.37" width="5.6" height="10.35" transform="translate(838.7 27.09) rotate(-180)"/><rect class="cls-2" x="404.08" y="24.61" width="5.6" height="10.35" transform="translate(813.77 59.56) rotate(-180)"/><rect class="cls-2" x="395.49" y="24.61" width="5.6" height="10.35" transform="translate(796.59 59.56) rotate(-180)"/><rect class="cls-2" x="404.08" y="8.37" width="5.6" height="10.35" transform="translate(813.77 27.09) rotate(-180)"/><rect class="cls-2" x="395.49" y="8.37" width="5.6" height="10.35" transform="translate(796.59 27.09) rotate(-180)"/><rect class="cls-5" x="380.26" y="16.88" width="5.23" height="9.15" transform="translate(765.74 42.91) rotate(-180)"/><rect class="cls-5" x="372.62" y="16.88" width="5.23" height="9.15" transform="translate(750.46 42.91) rotate(-180)"/><polygon class="cls-3" points="335.36 51.71 357.56 51.71 357.56 14.71 338.33 14.71 338.33 37.17 335.36 40.64 335.36 51.71"/><rect class="cls-5" x="364.98" y="16.88" width="5.23" height="9.15" transform="translate(735.18 42.91) rotate(-180)"/><rect class="cls-5" x="338.33" y="18.13" width="15.39" height="19.04" transform="translate(692.05 55.31) rotate(-180)"/><rect class="cls-5" x="335.36" y="40.64" width="16.15" height="11.06" transform="translate(686.86 92.35) rotate(-180)"/><rect class="cls-5" x="360.71" y="40.64" width="15.75" height="13.07" transform="translate(737.16 94.36) rotate(-180)"/><polygon class="cls-2" points="378.88 37.17 376.45 40.64 360.71 40.64 363.89 37.17 378.88 37.17"/><polygon class="cls-5" points="357.56 14.71 353.72 18.13 338.33 18.13 338.33 14.71 357.56 14.71"/><polygon class="cls-5" points="353.72 37.17 351.5 40.64 335.36 40.64 338.33 37.17 353.72 37.17"/><rect class="cls-1" x="413" y="169.12" width="4.62" height="13.81" transform="translate(830.62 352.06) rotate(-180)"/><rect class="cls-1" x="406.96" y="169.12" width="4.62" height="13.81" transform="translate(818.53 352.06) rotate(-180)"/><rect class="cls-1" x="400.92" y="169.12" width="4.62" height="13.81" transform="translate(806.45 352.06) rotate(-180)"/><rect class="cls-1" x="368.27" y="169.12" width="5.11" height="13.81" transform="translate(741.65 352.06) rotate(-180)"/><rect class="cls-1" x="361.59" y="169.12" width="5.11" height="13.81" transform="translate(728.29 352.06) rotate(-180)"/><rect class="cls-1" x="354.91" y="169.12" width="5.11" height="13.81" transform="translate(714.93 352.06) rotate(-180)"/><rect class="cls-1" x="330.03" y="169.12" width="5.6" height="13.81" transform="translate(665.66 352.06) rotate(-180)"/><rect class="cls-1" x="322.7" y="169.12" width="5.6" height="13.81" transform="translate(651.01 352.06) rotate(-180)"/><rect class="cls-1" x="315.38" y="169.12" width="5.6" height="13.81" transform="translate(636.36 352.06) rotate(-180)"/><rect class="cls-1" x="413" y="162.17" width="4.62" height="2.16" transform="translate(830.62 326.49) rotate(-180)"/><rect class="cls-1" x="406.96" y="162.17" width="4.62" height="2.16" transform="translate(818.53 326.49) rotate(-180)"/><rect class="cls-1" x="400.92" y="162.17" width="4.62" height="2.16" transform="translate(806.45 326.49) rotate(-180)"/><rect class="cls-1" x="368.27" y="162.17" width="5.11" height="2.16" transform="translate(741.65 326.49) rotate(-180)"/><rect class="cls-1" x="361.59" y="162.17" width="5.11" height="2.16" transform="translate(728.29 326.49) rotate(-180)"/><rect class="cls-1" x="354.91" y="162.17" width="5.11" height="2.16" transform="translate(714.93 326.49) rotate(-180)"/><rect class="cls-1" x="330.03" y="162.17" width="5.6" height="2.16" transform="translate(665.66 326.49) rotate(-180)"/><rect class="cls-1" x="322.7" y="162.17" width="5.6" height="2.16" transform="translate(651.01 326.49) rotate(-180)"/><rect class="cls-1" x="315.38" y="162.17" width="5.6" height="2.16" transform="translate(636.36 326.49) rotate(-180)"/><rect class="cls-3" x="316.26" y="19.94" width="13.83" height="7.99" transform="translate(646.35 47.87) rotate(-180)"/><rect class="cls-4" x="318.35" y="21.15" width="9.65" height="5.58" transform="translate(646.35 47.87) rotate(-180)"/><rect class="cls-3" x="316.26" y="33.86" width="13.83" height="9.38" transform="translate(646.35 77.09) rotate(-180)"/><rect class="cls-4" x="318.35" y="35.28" width="9.65" height="6.54" transform="translate(646.35 77.09) rotate(-180)"/><polygon class="cls-2" points="302.68 158.42 292.87 155.62 292.87 185.83 302.68 188.1 302.68 158.42"/><rect class="cls-5" x="398.48" y="137.41" width="38.44" height="0.96"/></svg>