<svg id="Layer_1" data-name="Layer 1" xmlns="http://www.w3.org/2000/svg" viewBox="0 0 450 192"><defs><style>.cls-1{fill:#de5c5c;}.cls-2{fill:#e88d8d;}.cls-3{fill:#5e2674;}.cls-4{fill:#6ea6fc;}.cls-5{fill:#42005b;}.cls-6{fill:#f1f1f1;}.cls-7{fill:#5697fb;}</style></defs><title>sanfran</title><rect class="cls-1" x="241.64" y="20.34" width="9.4" height="0.66"/><rect class="cls-2" x="232.73" y="46.4" width="4.66" height="1.72"/><rect class="cls-3" x="240.47" y="19.74" width="11.75" height="0.6"/><rect class="cls-2" x="240.96" y="15.54" width="10.34" height="4.2"/><polygon class="cls-2" points="251.3 15.54 240.96 15.54 239.44 13.03 252.81 13.03 251.3 15.54"/><rect class="cls-1" x="245.93" y="14.72" width="1.51" height="3.82"/><rect class="cls-2" x="242.64" y="7.15" width="6.68" height="0.45"/><rect class="cls-2" x="242.64" y="10.09" width="6.68" height="2.94"/><rect class="cls-2" x="242.64" y="7.15" width="0.17" height="5.88"/><rect class="cls-2" x="249.15" y="7.15" width="0.17" height="5.88"/><rect class="cls-2" x="246.65" y="6.91" width="0.17" height="3.93" transform="translate(65.99 177.07) rotate(-45)"/><rect class="cls-2" x="244.43" y="6.91" width="0.17" height="3.93" transform="translate(65.34 175.5) rotate(-45)"/><rect class="cls-2" x="243.13" y="9.09" width="0.17" height="1.38" transform="translate(64.32 174.84) rotate(-45)"/><rect class="cls-2" x="246.29" y="6.86" width="0.17" height="3.93" transform="translate(78.4 -171.63) rotate(45)"/><rect class="cls-2" x="248.12" y="7.78" width="0.17" height="2.85" transform="translate(79.21 -172.81) rotate(45)"/><rect class="cls-2" x="244.08" y="6.86" width="0.17" height="3.93" transform="translate(77.75 -170.07) rotate(45)"/><rect class="cls-1" x="242.41" y="6.84" width="7.13" height="0.31"/><rect class="cls-4" x="240.05" y="10.35" width="0.15" height="2.68"/><rect class="cls-4" x="240.79" y="10.35" width="0.15" height="2.68"/><rect class="cls-4" x="241.53" y="10.35" width="0.15" height="2.68"/><rect class="cls-4" x="243" y="10.35" width="0.15" height="2.68"/><rect class="cls-4" x="244.47" y="10.35" width="0.15" height="2.68"/><rect class="cls-4" x="245.95" y="10.35" width="0.15" height="2.68"/><rect class="cls-4" x="247.42" y="10.35" width="0.15" height="2.68"/><rect class="cls-4" x="248.9" y="10.35" width="0.15" height="2.68"/><rect class="cls-4" x="250.37" y="10.35" width="0.15" height="2.68"/><rect class="cls-4" x="251.11" y="10.35" width="0.15" height="2.68"/><rect class="cls-1" x="251.4" y="3.99" width="0.52" height="9.1"/><rect class="cls-4" x="251.84" y="10.35" width="0.15" height="2.68"/><rect class="cls-4" x="245.97" y="4.51" width="0.15" height="11.83" transform="translate(256.47 -235.62) rotate(90)"/><rect class="cls-4" x="245.97" y="5.4" width="0.15" height="11.83" transform="translate(257.37 -234.73) rotate(90)"/><rect class="cls-4" x="245.97" y="6.14" width="0.15" height="11.83" transform="translate(258.1 -233.99) rotate(90)"/><rect class="cls-4" x="245.97" y="7.02" width="0.15" height="11.83" transform="translate(258.98 -233.11) rotate(90)"/><polygon class="cls-2" points="246.3 4.5 246.3 3.33 245.99 3.33 245.97 3.33 245.65 3.33 245.65 4.5 242.68 6.83 245.97 6.83 245.99 6.83 249.28 6.83 246.3 4.5"/><rect class="cls-2" x="245.7" y="1" width="0.49" height="2.33"/><circle class="cls-2" cx="245.95" cy="1.94" r="0.39"/><polygon class="cls-3" points="245.03 13.68 245.34 14.08 248.21 14.08 248.61 13.68 245.03 13.68"/><polygon class="cls-3" points="249.51 13.68 249.51 14.21 250.66 14.21 251.59 13.68 249.51 13.68"/><polygon class="cls-3" points="239.44 13.03 240.21 13.03 241.64 15.54 241.64 19.92 240.96 19.74 240.96 15.54 239.44 13.03"/><rect class="cls-5" x="233.1" y="46.79" width="3.91" height="1.11"/><rect class="cls-3" x="101.14" y="45.96" width="30.31" height="11.54"/><polygon class="cls-1" points="272.17 80.83 272.17 78.54 207.04 78.54 207.04 91.62 280.49 91.62 280.49 80.83 272.17 80.83"/><polygon class="cls-3" points="171.77 54.48 171.77 54.24 163.4 55.2 163.4 55.38 171.77 54.48"/><rect class="cls-3" x="171.7" y="54.14" width="0.52" height="0.38"/><polygon class="cls-1" points="92.13 60 92.13 73.75 100.99 82.93 117.18 82.93 117.18 56.8 92.13 60"/><polygon class="cls-3" points="92.13 59.38 92.13 60 117.18 56.8 117.18 56.19 92.13 59.38"/><rect class="cls-5" x="102.72" y="69.88" width="0.63" height="6.41"/><rect class="cls-5" x="99.37" y="70.17" width="0.63" height="6.41"/><rect class="cls-5" x="101.15" y="70.03" width="0.63" height="6.41"/><rect class="cls-5" x="95.93" y="70.47" width="0.63" height="6.41"/><rect class="cls-5" x="97.71" y="70.32" width="0.63" height="6.41"/><rect class="cls-5" x="94.28" y="70.62" width="0.63" height="6.41"/><polygon class="cls-1" points="116.81 54.46 116.81 56.24 92.13 59.38 91.26 59.18 91.26 57.6 116.81 54.46"/><rect class="cls-6" x="117.18" y="56.19" width="28.54" height="28.54"/><rect class="cls-6" x="116.81" y="54.46" width="28.91" height="1.73"/><polygon class="cls-3" points="163.76 51.64 171.96 50.4 171.96 52.91 163.4 53.97 163.76 51.64"/><rect class="cls-2" x="117.28" y="52.62" width="28.68" height="1.84"/><rect class="cls-2" x="155.38" y="51.64" width="8.37" height="1.84"/><rect class="cls-3" x="116.81" y="56.19" width="28.91" height="0.21"/><rect class="cls-2" x="117.18" y="58.25" width="28.54" height="0.21"/><rect class="cls-2" x="117.18" y="58.94" width="28.54" height="0.13"/><rect class="cls-3" x="117.28" y="54.26" width="28.68" height="0.21"/><polygon class="cls-1" points="163.4 55.38 172.16 54.43 172.16 78.61 163.4 79.41 163.4 55.38"/><polygon class="cls-1" points="163.4 53.5 171.77 52.56 171.77 54.32 163.4 55.22 163.4 53.5"/><rect class="cls-6" x="154.88" y="55.16" width="8.88" height="28.54"/><rect class="cls-6" x="154.77" y="53.44" width="8.99" height="1.73"/><rect class="cls-3" x="154.77" y="55.16" width="8.99" height="0.21"/><rect class="cls-6" x="171.77" y="52.24" width="95.76" height="1.73"/><path class="cls-6" d="M267,52.24H171.7V47.91h94.56v2S267,50.12,267,52.24Z"/><rect class="cls-3" x="171.77" y="53.97" width="95.18" height="0.21"/><rect class="cls-3" x="171.77" y="52.24" width="95.76" height="0.21"/><polygon class="cls-1" points="145.71 54.46 154.85 53.44 154.85 55.2 145.71 56.19 145.71 54.46"/><polygon class="cls-1" points="145.71 56.35 155.38 55.33 155.38 79.51 145.71 80.37 145.71 56.35"/><rect class="cls-2" x="117.3" y="69.32" width="20.15" height="0.22" transform="translate(196.81 -57.95) rotate(90)"/><rect class="cls-2" x="125.89" y="69.32" width="20.15" height="0.22" transform="translate(205.4 -66.54) rotate(90)"/><rect class="cls-2" x="134.63" y="69.27" width="20.26" height="0.22" transform="translate(214.14 -75.38) rotate(90)"/><path class="cls-3" d="M449.58,191H.42S7.63,157.44,17,154.56s16.24-10.1,20.56-14.79S45.51,130,47,119.56s22.73-21.65,26-21.65c2.89-11.9,18.4-22.37,18.4-22.37.53-4.25,8.62-4.9,8.62-4.9s5.67,2,2.51,5.45c-3.81.76-3.81,2.83-1.75,2.28s9.37-.55,9.37,2.29a25.89,25.89,0,0,1,8.5.11s11.22-2,14.06-2.84,2.72-1.64,4.9-2.28,5.12-1,5.12,2.62a15.51,15.51,0,0,1,4.25,1l61.14-1.36s2.5,8.66,3.7,11.5,36.38-2.59,36.38-2.59L280.59,80a17.61,17.61,0,0,0,3-2.47c1.69-1.69,14.92-.91,14.92-.91s8.57,0,13.89,4.93c8.31,2.73,9.48,8,10.13,7.53a12,12,0,0,0,1.69-2.47,17.11,17.11,0,0,0,2.35-2.82c3.25-8.66,19.49-9.38,23.81-8.3s5,17,5,25.26c5.42,3.24,19.85,23.45,19.85,23.45s44.37,0,56.28,9c7.8,5.91,13.13,28.89,15.87,44C448.85,185.23,449.58,191,449.58,191Z"/><polygon class="cls-3" points="155.05 55.36 155.05 55.13 145.71 56.16 145.71 56.35 155.05 55.36"/><rect class="cls-6" x="172.16" y="54.17" width="94.79" height="24.44"/><polygon class="cls-5" points="117.28 54.46 117.28 52.62 92.13 55.9 92.13 57.5 117.28 54.46"/><polygon class="cls-3" points="145.96 52.62 145.96 54.46 155.38 53.44 155.38 51.65 145.96 52.62"/><rect class="cls-5" x="122.36" y="60" width="2.86" height="6.47"/><rect class="cls-5" x="131.62" y="60" width="2.86" height="6.47"/><rect class="cls-5" x="140.2" y="60" width="2.86" height="6.47"/><rect class="cls-5" x="122.36" y="68.27" width="2.86" height="6.47"/><rect class="cls-5" x="131.62" y="68.27" width="2.86" height="6.47"/><rect class="cls-5" x="140.2" y="68.27" width="2.86" height="6.47"/><rect class="cls-2" x="120.29" y="59.25" width="7.2" height="0.22"/><rect class="cls-2" x="130.07" y="59.25" width="6.01" height="0.22"/><rect class="cls-2" x="138.75" y="59.25" width="6.01" height="0.22"/><rect class="cls-2" x="121.89" y="74.73" width="3.8" height="0.38"/><rect class="cls-2" x="131.15" y="74.73" width="3.8" height="0.38"/><rect class="cls-2" x="139.73" y="74.73" width="3.8" height="0.38"/><rect class="cls-2" x="172.32" y="67.11" width="20.15" height="0.22" transform="translate(249.62 -115.18) rotate(90)"/><rect class="cls-2" x="175.32" y="57.04" width="7.19" height="0.22"/><rect class="cls-2" x="175.84" y="65.76" width="6.08" height="0.15"/><rect class="cls-2" x="175.2" y="68.26" width="3.19" height="0.15"/><rect class="cls-2" x="179.25" y="68.26" width="3.19" height="0.15"/><rect class="cls-2" x="172.16" y="56.18" width="95.18" height="0.21"/><rect class="cls-2" x="172.16" y="57.75" width="95.18" height="0.1"/><rect class="cls-5" x="175.84" y="71.12" width="5.89" height="4.33"/><rect class="cls-5" x="175.84" y="59.25" width="5.57" height="5.87"/><rect class="cls-6" x="178.46" y="59.25" width="0.28" height="5.87"/><rect class="cls-6" x="175.84" y="71.3" width="5.89" height="0.14"/><rect class="cls-6" x="175.84" y="72.65" width="5.89" height="0.14"/><rect class="cls-6" x="175.84" y="74.58" width="5.89" height="0.18"/><rect class="cls-6" x="175.84" y="74.98" width="5.89" height="0.19"/><rect class="cls-6" x="180.95" y="71.37" width="0.22" height="3.8"/><rect class="cls-6" x="180.22" y="71.37" width="0.22" height="3.8"/><rect class="cls-6" x="177.11" y="71.38" width="0.22" height="3.8"/><rect class="cls-6" x="176.37" y="71.38" width="0.22" height="3.8"/><rect class="cls-6" x="178.63" y="71.37" width="0.22" height="3.8"/><rect class="cls-2" x="195.47" y="54.62" width="2.42" height="1.1"/><rect class="cls-2" x="198.57" y="54.62" width="2.42" height="1.1"/><rect class="cls-2" x="206.52" y="54.62" width="2.42" height="1.1"/><rect class="cls-2" x="209.62" y="54.62" width="2.42" height="1.1"/><rect class="cls-2" x="227.9" y="54.62" width="2.42" height="1.1"/><rect class="cls-2" x="231" y="54.62" width="2.42" height="1.1"/><rect class="cls-2" x="238.95" y="54.62" width="2.42" height="1.1"/><rect class="cls-2" x="242.05" y="54.62" width="2.42" height="1.1"/><rect class="cls-4" x="176.48" y="62.67" width="1.47" height="1.47"/><rect class="cls-4" x="179.43" y="62.67" width="1.47" height="1.47"/><rect class="cls-2" x="181.9" y="67.11" width="20.15" height="0.22" transform="translate(259.2 -124.76) rotate(90)"/><rect class="cls-2" x="184.9" y="57.04" width="7.19" height="0.22"/><rect class="cls-2" x="185.42" y="65.76" width="6.08" height="0.15"/><rect class="cls-2" x="184.78" y="68.26" width="3.19" height="0.15"/><rect class="cls-2" x="188.83" y="68.26" width="3.19" height="0.15"/><rect class="cls-5" x="185.42" y="71.12" width="5.89" height="4.33"/><rect class="cls-5" x="185.42" y="59.25" width="5.57" height="5.87"/><rect class="cls-6" x="188.04" y="59.25" width="0.28" height="5.87"/><rect class="cls-6" x="185.42" y="71.3" width="5.89" height="0.14"/><rect class="cls-6" x="185.42" y="72.65" width="5.89" height="0.14"/><rect class="cls-6" x="185.42" y="74.58" width="5.89" height="0.18"/><rect class="cls-6" x="185.42" y="74.98" width="5.89" height="0.19"/><rect class="cls-6" x="190.53" y="71.37" width="0.22" height="3.8"/><rect class="cls-6" x="189.8" y="71.37" width="0.22" height="3.8"/><rect class="cls-6" x="186.69" y="71.38" width="0.22" height="3.8"/><rect class="cls-6" x="185.95" y="71.38" width="0.22" height="3.8"/><rect class="cls-6" x="188.21" y="71.37" width="0.22" height="3.8"/><rect class="cls-4" x="186.06" y="62.67" width="1.47" height="1.47"/><rect class="cls-4" x="189.01" y="62.67" width="1.47" height="1.47"/><rect class="cls-2" x="191.82" y="67.11" width="20.15" height="0.22" transform="translate(269.12 -134.68) rotate(90)"/><rect class="cls-2" x="194.82" y="57.04" width="7.19" height="0.22"/><rect class="cls-2" x="195.34" y="65.76" width="6.08" height="0.15"/><rect class="cls-2" x="194.7" y="68.26" width="3.19" height="0.15"/><rect class="cls-2" x="198.75" y="68.26" width="3.19" height="0.15"/><rect class="cls-5" x="195.34" y="71.12" width="5.89" height="4.33"/><rect class="cls-5" x="195.34" y="59.25" width="5.57" height="5.87"/><rect class="cls-6" x="197.96" y="59.25" width="0.28" height="5.87"/><rect class="cls-6" x="195.34" y="71.3" width="5.89" height="0.14"/><rect class="cls-6" x="195.34" y="72.65" width="5.89" height="0.14"/><rect class="cls-6" x="195.34" y="74.58" width="5.89" height="0.18"/><rect class="cls-6" x="195.34" y="74.98" width="5.89" height="0.19"/><rect class="cls-6" x="200.45" y="71.37" width="0.22" height="3.8"/><rect class="cls-6" x="199.72" y="71.37" width="0.22" height="3.8"/><rect class="cls-6" x="196.61" y="71.38" width="0.22" height="3.8"/><rect class="cls-6" x="195.87" y="71.38" width="0.22" height="3.8"/><rect class="cls-6" x="198.13" y="71.37" width="0.22" height="3.8"/><rect class="cls-4" x="195.98" y="62.67" width="1.47" height="1.47"/><rect class="cls-4" x="198.93" y="62.67" width="1.47" height="1.47"/><rect class="cls-2" x="203.28" y="67.11" width="20.15" height="0.22" transform="translate(280.57 -146.13) rotate(90)"/><rect class="cls-2" x="206.28" y="57.04" width="7.19" height="0.22"/><rect class="cls-2" x="206.79" y="65.76" width="6.08" height="0.15"/><rect class="cls-2" x="206.15" y="68.26" width="3.19" height="0.15"/><rect class="cls-2" x="210.2" y="68.26" width="3.19" height="0.15"/><rect class="cls-5" x="206.79" y="71.12" width="5.89" height="4.33"/><rect class="cls-5" x="206.79" y="59.25" width="5.57" height="5.87"/><rect class="cls-6" x="209.41" y="59.25" width="0.28" height="5.87"/><rect class="cls-6" x="206.79" y="71.3" width="5.89" height="0.14"/><rect class="cls-6" x="206.79" y="72.65" width="5.89" height="0.14"/><rect class="cls-6" x="206.79" y="74.58" width="5.89" height="0.18"/><rect class="cls-6" x="206.79" y="74.98" width="5.89" height="0.19"/><rect class="cls-6" x="211.91" y="71.37" width="0.22" height="3.8"/><rect class="cls-6" x="211.17" y="71.37" width="0.22" height="3.8"/><rect class="cls-6" x="208.06" y="71.38" width="0.22" height="3.8"/><rect class="cls-6" x="207.32" y="71.38" width="0.22" height="3.8"/><rect class="cls-6" x="209.59" y="71.37" width="0.22" height="3.8"/><rect class="cls-4" x="207.43" y="62.67" width="1.47" height="1.47"/><rect class="cls-4" x="210.38" y="62.67" width="1.47" height="1.47"/><rect class="cls-2" x="213.59" y="67.11" width="20.15" height="0.22" transform="translate(290.89 -156.45) rotate(90)"/><rect class="cls-2" x="216.59" y="57.04" width="7.19" height="0.22"/><rect class="cls-5" x="217.11" y="59.25" width="5.57" height="5.87"/><rect class="cls-6" x="219.73" y="59.25" width="0.28" height="5.87"/><rect class="cls-4" x="217.75" y="62.67" width="1.47" height="1.47"/><rect class="cls-4" x="220.7" y="62.67" width="1.47" height="1.47"/><rect class="cls-2" x="224.25" y="67.11" width="20.15" height="0.22" transform="translate(301.55 -167.11) rotate(90)"/><rect class="cls-2" x="227.25" y="57.04" width="7.19" height="0.22"/><rect class="cls-2" x="227.77" y="65.76" width="6.08" height="0.15"/><rect class="cls-2" x="227.13" y="68.26" width="3.19" height="0.15"/><rect class="cls-2" x="231.17" y="68.26" width="3.19" height="0.15"/><rect class="cls-5" x="227.77" y="71.12" width="5.89" height="4.33"/><rect class="cls-5" x="227.77" y="59.25" width="5.57" height="5.87"/><rect class="cls-6" x="230.39" y="59.25" width="0.28" height="5.87"/><rect class="cls-6" x="227.77" y="71.3" width="5.89" height="0.14"/><rect class="cls-6" x="227.77" y="72.65" width="5.89" height="0.14"/><rect class="cls-6" x="227.77" y="74.58" width="5.89" height="0.18"/><rect class="cls-6" x="227.77" y="74.98" width="5.89" height="0.19"/><rect class="cls-6" x="232.88" y="71.37" width="0.22" height="3.8"/><rect class="cls-6" x="232.14" y="71.37" width="0.22" height="3.8"/><rect class="cls-6" x="229.03" y="71.38" width="0.22" height="3.8"/><rect class="cls-6" x="228.3" y="71.38" width="0.22" height="3.8"/><rect class="cls-6" x="230.56" y="71.37" width="0.22" height="3.8"/><rect class="cls-4" x="228.41" y="62.67" width="1.47" height="1.47"/><rect class="cls-4" x="231.36" y="62.67" width="1.47" height="1.47"/><rect class="cls-2" x="234.57" y="67.11" width="20.15" height="0.22" transform="translate(311.87 -177.42) rotate(90)"/><rect class="cls-2" x="237.57" y="57.04" width="7.19" height="0.22"/><rect class="cls-2" x="238.08" y="65.76" width="6.08" height="0.15"/><rect class="cls-2" x="237.45" y="68.26" width="3.19" height="0.15"/><rect class="cls-2" x="241.49" y="68.26" width="3.19" height="0.15"/><rect class="cls-5" x="238.08" y="71.12" width="5.89" height="4.33"/><rect class="cls-5" x="238.08" y="59.25" width="5.57" height="5.87"/><rect class="cls-6" x="240.7" y="59.25" width="0.28" height="5.87"/><rect class="cls-6" x="238.08" y="71.3" width="5.89" height="0.14"/><rect class="cls-6" x="238.08" y="72.65" width="5.89" height="0.14"/><rect class="cls-6" x="238.08" y="74.58" width="5.89" height="0.18"/><rect class="cls-6" x="238.08" y="74.98" width="5.89" height="0.19"/><rect class="cls-6" x="243.2" y="71.37" width="0.22" height="3.8"/><rect class="cls-6" x="242.46" y="71.37" width="0.22" height="3.8"/><rect class="cls-6" x="239.35" y="71.38" width="0.22" height="3.8"/><rect class="cls-6" x="238.62" y="71.38" width="0.22" height="3.8"/><rect class="cls-6" x="240.88" y="71.37" width="0.22" height="3.8"/><rect class="cls-4" x="238.73" y="62.67" width="1.47" height="1.47"/><rect class="cls-4" x="241.67" y="62.67" width="1.47" height="1.47"/><rect class="cls-2" x="244.15" y="67.11" width="20.15" height="0.22" transform="translate(321.45 -187.01) rotate(90)"/><rect class="cls-2" x="247.15" y="57.04" width="7.19" height="0.22"/><rect class="cls-2" x="247.67" y="65.76" width="6.08" height="0.15"/><rect class="cls-2" x="247.03" y="68.26" width="3.19" height="0.15"/><rect class="cls-2" x="251.07" y="68.26" width="3.19" height="0.15"/><rect class="cls-5" x="247.67" y="71.12" width="5.89" height="4.33"/><rect class="cls-5" x="247.67" y="59.25" width="5.57" height="5.87"/><rect class="cls-6" x="250.28" y="59.25" width="0.28" height="5.87"/><rect class="cls-6" x="247.67" y="71.3" width="5.89" height="0.14"/><rect class="cls-6" x="247.67" y="72.65" width="5.89" height="0.14"/><rect class="cls-6" x="247.67" y="74.58" width="5.89" height="0.18"/><rect class="cls-6" x="247.67" y="74.98" width="5.89" height="0.19"/><rect class="cls-6" x="252.78" y="71.37" width="0.22" height="3.8"/><rect class="cls-6" x="252.04" y="71.37" width="0.22" height="3.8"/><rect class="cls-6" x="248.93" y="71.38" width="0.22" height="3.8"/><rect class="cls-6" x="248.2" y="71.38" width="0.22" height="3.8"/><rect class="cls-6" x="250.46" y="71.37" width="0.22" height="3.8"/><rect class="cls-4" x="248.31" y="62.67" width="1.47" height="1.47"/><rect class="cls-4" x="251.25" y="62.67" width="1.47" height="1.47"/><rect class="cls-2" x="253.73" y="67.11" width="20.15" height="0.22" transform="translate(331.03 -196.59) rotate(90)"/><rect class="cls-2" x="256.73" y="57.04" width="7.19" height="0.22"/><rect class="cls-2" x="257.25" y="65.76" width="6.08" height="0.15"/><path class="cls-2" d="M89.54,105.87,98.91,104s.94-4.87,3.37-6.18c1.61-.86,20.7-.86,20.7-.86S189.87,88,211,87.4C211.81,89.88,213,90,213,90a7,7,0,0,0-2.61,0c-2.33.33-11.6,1.17-12.21,1.83a3.7,3.7,0,0,0-.61,2.08L188.43,95s1.42-3.91.42-3.83-36.15,3.5-36.15,3.5-.75,1.42-.17,6.41c-6.25,1-13.16,1.83-18.57,1.17s-6.66-1.33-7.58-.67l-.92.67,2,16.16h-3.7l-.57-7.25s.42-3.58-4.33-2.42-7.32,2-14.24,1.83-11.38-.17-12.53-.92S89.54,105.87,89.54,105.87Z"/><rect class="cls-2" x="256.61" y="68.26" width="3.19" height="0.15"/><rect class="cls-2" x="260.65" y="68.26" width="3.19" height="0.15"/><rect class="cls-5" x="257.25" y="71.12" width="5.89" height="4.33"/><rect class="cls-5" x="257.25" y="59.25" width="5.57" height="5.87"/><rect class="cls-6" x="259.87" y="59.25" width="0.28" height="5.87"/><rect class="cls-6" x="257.25" y="71.3" width="5.89" height="0.14"/><rect class="cls-6" x="257.25" y="72.65" width="5.89" height="0.14"/><rect class="cls-6" x="257.25" y="74.58" width="5.89" height="0.18"/><rect class="cls-6" x="257.25" y="74.98" width="5.89" height="0.19"/><rect class="cls-6" x="262.36" y="71.37" width="0.22" height="3.8"/><rect class="cls-6" x="261.62" y="71.37" width="0.22" height="3.8"/><rect class="cls-6" x="258.51" y="71.38" width="0.22" height="3.8"/><rect class="cls-6" x="257.78" y="71.38" width="0.22" height="3.8"/><rect class="cls-6" x="260.04" y="71.37" width="0.22" height="3.8"/><rect class="cls-4" x="257.89" y="62.67" width="1.47" height="1.47"/><rect class="cls-4" x="260.84" y="62.67" width="1.47" height="1.47"/><rect class="cls-7" x="217.97" y="72.43" width="3.89" height="6.18"/><polygon class="cls-2" points="251.93 79.37 240.76 79.37 241.64 20.34 251.03 20.34 251.93 79.37"/><rect class="cls-1" x="246.15" y="42.29" width="1.29" height="3.26"/><rect class="cls-1" x="246.15" y="51.6" width="1.29" height="3.26"/><rect class="cls-3" x="242.49" y="21.65" width="1.86" height="0.19"/><rect class="cls-3" x="241.11" y="16.65" width="6.12" height="0.19" transform="translate(260.91 -227.42) rotate(90)"/><rect class="cls-3" x="245.34" y="16.72" width="5.84" height="0.09" transform="translate(265.03 -231.49) rotate(90)"/><polygon class="cls-3" points="244.16 14.47 242.3 14.47 241.35 13.68 244.16 13.68 244.16 14.47"/><rect class="cls-3" x="226.95" y="38.87" width="34.63" height="0.19" transform="translate(283.23 -205.29) rotate(90)"/><rect class="cls-3" x="246.18" y="21.65" width="1.86" height="0.19"/><polygon class="cls-3" points="248.44 56.28 247.85 21.65 248.04 21.65 248.63 56.28 248.44 56.28"/><rect class="cls-3" x="249.12" y="21.65" width="1.3" height="0.19"/><polygon class="cls-3" points="250.8 56.28 250.31 21.65 250.5 21.65 250.99 56.28 250.8 56.28"/><rect class="cls-1" x="221.09" y="75.44" width="23.08" height="2.45"/><rect class="cls-1" x="240.64" y="57.86" width="11.62" height="20.04"/><polygon class="cls-7" points="214.12 79.37 212.36 81.99 214.73 88.01 218.49 88.01 217.97 82.59 214.12 79.37"/><rect class="cls-3" x="215.55" y="75.44" width="7.13" height="3.37"/><path class="cls-2" d="M218,77.9v.78l-2.42-.06h-2.67s4.66,5.29,5.1,9.4c6.22,0,38.37-2.79,47.36-5.3V77.9Z"/><rect class="cls-6" x="265.33" y="78.61" width="6.84" height="2.22"/><polygon class="cls-6" points="272.17 78.61 271.23 78.61 271.47 69.7 272.17 69.7 272.17 78.61"/><rect class="cls-1" x="271.46" y="68.89" width="0.71" height="0.81"/><circle class="cls-6" cx="271.82" cy="68.56" r="0.64"/><polygon class="cls-7" points="254.12 84.72 251.67 85.05 251.67 79.95 254.12 79.95 254.12 84.72"/><polygon class="cls-7" points="224.22 87.71 222.44 87.83 222.44 82.95 224.22 82.95 224.22 87.71"/><path class="cls-1" d="M223.56,69.46v.79a7.51,7.51,0,0,0-7.09,0l-.61-.43A8.21,8.21,0,0,1,223.56,69.46Z"/><path class="cls-6" d="M292.51,60.76V81.15h16V60.76Zm11.28,1.56V67h-.69V62.32ZM298.2,75.95h-.71V72.32h.71Z"/><rect class="cls-5" x="306.81" y="60.76" width="1.65" height="20.39"/><rect class="cls-2" x="305.7" y="48.76" width="2.77" height="12"/><path class="cls-6" d="M287.14,54h.8a27.46,27.46,0,0,1,.37,4.81h-.78l-.39-2.54Z"/><path class="cls-6" d="M288.64,57.86h.68s.14.18.14,1.56l-.73,0Z"/><path class="cls-6" d="M291.4,53.41h.74s1,2.24,1.23,7.35h-.85l-.66-3.14Z"/><path class="cls-1" d="M292.51,60.76a11.82,11.82,0,0,0-.25-2.51c0-.72,0-1.8-.36-2,0-.38-.2-2.88-.5-2.88s-.4,2.44-.4,2.44h-.18v2.64s-1.1-.06-1.1.94l-1,0s.05-1.54-.1-1.54-.07,1-.07,1h-1a12.73,12.73,0,0,0-.09-2.44c0-.5,0-2.39-.3-2.37s-.5,2.36-.5,2.36a12.24,12.24,0,0,0-.81,3.42h-.14V77.9h6.82Z"/><polygon class="cls-3" points="304.63 62.32 304.63 69.03 301.57 69.03 301.57 62.32 303.1 62.32 303.1 67 303.79 67 303.79 62.32 304.63 62.32"/><polygon class="cls-3" points="297.48 72.32 297.48 75.95 298.2 75.95 298.2 76.89 292.51 76.89 292.51 70.96 298.2 70.96 298.2 72.32 297.48 72.32"/><path class="cls-6" d="M324.79,79v-.13h-1v-8.2h1V58.91a5,5,0,0,1-2.55-1.69,2,2,0,0,0-1.85-1v-.68h-.83s-.89-2.35-2.86-2.35-3,1.25-3,2.35h-.89v.71a3,3,0,0,0-2.47,1.5,4.76,4.76,0,0,1-1.91,1.16V86.52h16.32v-5l.46-.24v-.49s2.18-1.29,2.18-1.85Zm-11.95-2.84h-1.63V72.32h1.63Zm0-9.13V63.59h.51V67Zm3.54,9.13h-.61V72.32h.61Zm1.29-17.22h-1.95v-2.4a1,1,0,0,1,1.95,0Z"/><rect class="cls-3" x="301.09" y="70.96" width="3.53" height="5.61"/><polygon class="cls-7" points="313.52 71.14 313.52 76.38 311.21 76.38 311.21 76.13 312.84 76.13 312.84 72.32 311.21 72.32 311.21 71.14 313.52 71.14"/><polygon class="cls-7" points="315.77 72.32 315.77 76.13 316.38 76.13 316.38 76.38 314 76.38 314 71.14 316.38 71.14 316.38 72.32 315.77 72.32"/><rect class="cls-7" x="312.85" y="80.38" width="2.34" height="2.34"/><rect class="cls-7" x="318.68" y="80.38" width="2.34" height="3.29"/><polygon class="cls-3" points="315.5 62.32 315.5 67 313.35 67 313.35 63.59 312.84 63.59 312.84 62.32 315.5 62.32"/><rect class="cls-7" x="317.89" y="62.32" width="2.5" height="4.68"/><rect class="cls-7" x="319.14" y="70.65" width="4.01" height="8.33"/><polygon class="cls-7" points="297.48 74.41 296.4 74.41 296.4 70.95 293.78 70.95 293.78 74.41 292.68 74.41 292.68 75.25 293.78 75.25 293.78 76.38 296.4 76.38 296.4 75.25 297.48 75.25 297.48 74.41"/><path class="cls-7" d="M303.91,74.37V71h-.81v3.41h-2v.81h2v.77h-2v.62h3.53V74.37Zm.38,1.58h-.38v-.77h.38Z"/><rect class="cls-7" x="303.1" y="67" width="0.69" height="0.79"/><rect class="cls-7" x="303.33" y="68.24" width="1.3" height="0.79"/><polygon class="cls-2" points="208.89 79.14 211.91 88.01 214.73 88.01 211.39 79.14 208.89 79.14"/><polygon class="cls-5" points="116.29 38.98 99.88 46.09 132.71 46.09 116.29 38.98"/><path class="cls-2" d="M78.23,128.07l16-7.67s4.25-.24,2.6,6C93.57,126.89,78.23,128.07,78.23,128.07Z"/><path class="cls-1" d="M449.58,191h-187V177.29H447.35C448.83,185.23,449.58,191,449.58,191Z"/><path class="cls-2" d="M74,135H113.1s-6.14,3.41-7.51,10.24-4.1,9.39-4.1,9.39l-1.37-3.41s-2.9-.34-4.61,3.41-6.33,4.61-7.77,6.83-7.12,4.27-5.9,10.24-3,11.27-3.61,11.61S74,191,74,191H.42S6.67,159.88,17,154.56s22.67-17.2,22.67-17.2,5-.52,5.66,1.53-.51,4.27,2,4.61,9.37,1.19,9.37,1.19-7.32,5.12-7.32,7.68,2.22,5.12,6.49,9.22,10.41,4.5,11.95,1.39,5.29-8.22,3.93-13.17,2-5.29,2.73-8.36A13.68,13.68,0,0,0,74,135Z"/><path class="cls-2" d="M78.23,183.26s6.87,4.69,19-2.16,17.91-19.33,33.89-16.21,23.62,2.49,23.62,2.49-5.14-.31-6.7,5.61,3.38,16.52,11.2,8.11,4.5-16.7,4.5-16.7,14.92-6.68,15.67-12c0,0,7.74,1.87,12.66-1.56,0,0-5.37,12.71,11.78,12.12s35.13-2.77,35.49-7.13c0,0,9.84,16.83,17.26,13.09s20.51-10.29,20.83-13.09c0,0,7.83,8.85-9.21,21.45-.37,11.85-.56,13.71-.56,13.71H74Z"/><path class="cls-1" d="M329,86.52v6.26s15,2.81,22.95,8.66c0-11-.94-12.88-2.34-14.05S329,86.52,329,86.52Z"/><path class="cls-2" d="M295.35,89.27s2.66-.7,2.49,8,3.4,11.24,3.25,14.75-2.4,15,.48,18.84l-35.58.23s-.44-22.58-6.63-22.82-8.61,3.13-15.6,1.8-6.34-3.44-6.19-8.59-.79-5.85-2.2-3-4.42,9.5-7.48,8.85-9.62-1.5-10.79,2.79-.58,9.91,5.57,10.84,11.54,1.17,11.54,1.17-.53,4.68,7.46,4.68a3.5,3.5,0,0,1-2.57,4.08c-3.26,1.07-12,1.07-12,1.07L170,133.3s-.49-28.8,8.42-31.85,33.67-9.35,59-9.82S295.35,89.27,295.35,89.27Z"/><polygon class="cls-1" points="320.39 135.79 138.75 139.15 138.75 133.3 320.39 130.1 320.39 135.79"/><path class="cls-2" d="M305.7,89.26s3.58,12.57,7.83,13.62,5.45,4,5.16,11.51a34,34,0,0,1-2.91,12.77s4-4.19,13.28-3.56,11.75,2.93,18.45,1.67,22.19-1.47,22.19-1.47S356.5,105.47,352,101.45,329,92.78,329,92.78"/><rect class="cls-5" x="113.02" y="69" width="0.63" height="6.41"/><rect class="cls-5" x="114.8" y="68.85" width="0.63" height="6.41"/><rect class="cls-5" x="109.58" y="69.29" width="0.63" height="6.41"/><rect class="cls-5" x="111.36" y="69.14" width="0.63" height="6.41"/><rect class="cls-5" x="106.15" y="69.59" width="0.63" height="6.41"/><rect class="cls-5" x="107.94" y="69.44" width="0.63" height="6.41"/><rect class="cls-5" x="104.5" y="69.74" width="0.63" height="6.41"/><rect class="cls-5" x="113.02" y="60.89" width="0.63" height="6.41"/><rect class="cls-5" x="114.8" y="60.75" width="0.63" height="6.41"/><rect class="cls-5" x="109.58" y="61.18" width="0.63" height="6.41"/><rect class="cls-5" x="111.36" y="61.04" width="0.63" height="6.41"/><rect class="cls-5" x="106.15" y="61.48" width="0.63" height="6.41"/><rect class="cls-5" x="107.94" y="61.34" width="0.63" height="6.41"/><rect class="cls-5" x="151.64" y="67.62" width="0.63" height="6.41"/><rect class="cls-5" x="153.42" y="67.47" width="0.63" height="6.41"/><rect class="cls-5" x="148.2" y="67.91" width="0.63" height="6.41"/><rect class="cls-5" x="149.98" y="67.76" width="0.63" height="6.41"/><rect class="cls-5" x="146.55" y="68.06" width="0.63" height="6.41"/><rect class="cls-5" x="151.64" y="59.51" width="0.63" height="6.41"/><rect class="cls-5" x="153.42" y="59.36" width="0.63" height="6.41"/><rect class="cls-5" x="148.2" y="59.8" width="0.63" height="6.41"/><rect class="cls-5" x="149.98" y="59.66" width="0.63" height="6.41"/><rect class="cls-5" x="146.55" y="59.95" width="0.63" height="6.41"/><rect class="cls-5" x="168.49" y="67.92" width="0.63" height="6.41"/><rect class="cls-5" x="170.27" y="67.77" width="0.63" height="6.41"/><rect class="cls-5" x="165.05" y="68.21" width="0.63" height="6.41"/><rect class="cls-5" x="166.83" y="68.07" width="0.63" height="6.41"/><rect class="cls-5" x="168.49" y="59.81" width="0.63" height="6.41"/><rect class="cls-5" x="170.27" y="59.67" width="0.63" height="6.41"/><rect class="cls-5" x="165.05" y="60.11" width="0.63" height="6.41"/><rect class="cls-5" x="166.83" y="59.96" width="0.63" height="6.41"/><rect class="cls-5" x="102.72" y="61.77" width="0.63" height="6.41"/><rect class="cls-5" x="104.5" y="61.63" width="0.63" height="6.41"/><rect class="cls-5" x="99.37" y="62.07" width="0.63" height="6.41"/><rect class="cls-5" x="101.15" y="61.92" width="0.63" height="6.41"/><rect class="cls-5" x="95.93" y="62.36" width="0.63" height="6.41"/><rect class="cls-5" x="97.71" y="62.21" width="0.63" height="6.41"/><rect class="cls-5" x="94.28" y="62.51" width="0.63" height="6.41"/></svg>