<svg id="Layer_1" data-name="Layer 1" xmlns="http://www.w3.org/2000/svg" viewBox="0 0 456 298"><defs><style>.cls-1{fill:#8c639b;}.cls-2{fill:#42005b;}.cls-3,.cls-8{fill:#89b6fc;}.cls-4{fill:#e02c2b;}.cls-5,.cls-9{fill:#5697fb;}.cls-6{fill:#e54b4a;}.cls-7{fill:#da0100;}.cls-8,.cls-9{opacity:0.5;}</style></defs><title>sanfran</title><rect class="cls-1" x="186.83" y="58.56" width="80.69" height="40.86"/><rect class="cls-2" x="155.48" y="51.22" width="19.84" height="44.97"/><path class="cls-3" d="M89.37,85.59s-2.28.73-2.46-2.86,1.08-4.35,2.87-4.35v-2H89v-7.9h2.78V64.63h6.36s2.51,2.33,4.75,0c2.15-.54,5.2,2.76,5.2,6.31v3.55Z"/><polygon class="cls-4" points="186.83 63.34 186.83 57.41 183.86 53.94 181.62 53.94 181.62 57.41 186.83 63.34"/><polygon class="cls-2" points="181.09 56.33 188.48 65.36 188.48 96.19 180.65 96.19 181.09 56.33"/><path class="cls-1" d="M226.19,23.74c-33.92,0-64.16,6.22-83.83,15.94C157.87,17,189.58,1.41,226.19,1.41S294.5,17,310,39.67C290.3,30,260.09,23.74,226.19,23.74Z"/><path class="cls-2" d="M137.24,138.06s8.28-1.6,12.5,5c1.48-7.31,0-10.62,0-10.62L135.42,137Z"/><path class="cls-3" d="M333.57,72.9c-21.78-12.25-61.13-20.41-106-20.41-46.8,0-87.55,8.86-108.69,22,0-.4,0-.79,0-1.19,0-23.48,48.07-42.52,107.4-42.52C285.2,30.75,333.08,49.6,333.57,72.9Z"/><rect class="cls-2" x="103.69" y="127.6" width="47.53" height="129.44"/><rect class="cls-1" x="148.08" y="54.88" width="8.51" height="45.57"/><rect class="cls-1" x="173.31" y="50.02" width="8.51" height="50.44"/><path class="cls-5" d="M333.57,65.9c-21.78-12.25-61.13-20.41-106-20.41-46.8,0-87.55,8.86-108.69,22,0-.4,0-.79,0-1.19,0-23.48,48.07-42.52,107.4-42.52C285.2,23.74,333.08,42.59,333.57,65.9Z"/><rect class="cls-2" x="188.43" y="128.42" width="79.75" height="43.36"/><rect class="cls-6" x="188.43" y="126.77" width="79.75" height="1.65"/><rect class="cls-2" x="186.35" y="105.99" width="83.1" height="20.78"/><rect class="cls-6" x="186.83" y="105.17" width="82.62" height="3.15"/><rect class="cls-2" x="193.89" y="105.99" width="2.78" height="2.78"/><rect class="cls-2" x="200.9" y="105.99" width="2.78" height="2.78"/><polygon class="cls-6" points="111.34 141.64 115.43 141.64 132.31 137.83 146.98 134.14 146.04 130.25 110.77 139.18 111.34 141.64"/><rect class="cls-2" x="207.91" y="105.99" width="2.78" height="2.78"/><rect class="cls-2" x="214.92" y="105.99" width="2.78" height="2.78"/><rect class="cls-2" x="221.92" y="105.99" width="2.78" height="2.78"/><rect class="cls-2" x="228.93" y="105.99" width="2.78" height="2.78"/><rect class="cls-2" x="235.94" y="105.99" width="2.78" height="2.78"/><rect class="cls-2" x="242.95" y="105.99" width="2.78" height="2.78"/><rect class="cls-2" x="149.46" y="123.81" width="39.19" height="135.73"/><rect class="cls-2" x="249.96" y="105.99" width="2.78" height="2.78"/><rect class="cls-2" x="256.96" y="105.99" width="2.78" height="2.78"/><rect class="cls-5" x="86.76" y="123.03" width="22.13" height="18.87"/><polygon class="cls-5" points="143.91 129.16 108.89 137.83 108.89 123.81 143.91 115.14 143.91 129.16"/><polygon class="cls-2" points="145.64 131.33 108.89 140.35 108.89 137.83 146.35 128.35 145.64 131.33"/><rect class="cls-3" x="193.89" y="99.42" width="67.56" height="5.74"/><rect class="cls-2" x="194.54" y="97.51" width="66.91" height="1.92"/><polygon class="cls-2" points="89.37 85.59 95.59 77.15 95.59 110.44 95.59 114.14 89.37 115.14 89.37 85.59"/><rect class="cls-3" x="167.54" y="123.81" width="22.98" height="6.7"/><polygon class="cls-3" points="185.74 141.04 172.61 141.04 169.96 130.51 188.65 130.51 185.74 141.04"/><polygon class="cls-5" points="188.42 131.33 188.65 130.51 169.96 130.51 170.17 131.33 188.42 131.33"/><rect class="cls-5" x="172.61" y="141.04" width="13.13" height="99.49"/><rect class="cls-3" x="167.28" y="249.73" width="23.79" height="7.31"/><rect class="cls-3" x="167.28" y="249.73" width="23.79" height="0.37"/><polygon class="cls-3" points="189.54 249.73 168.8 249.73 169.95 244.99 188.42 244.99 189.54 249.73"/><polygon class="cls-5" points="186.78 244.99 171.55 244.99 172.61 240.52 185.74 240.52 186.78 244.99"/><rect class="cls-3" x="170.92" y="241.19" width="16.5" height="1.27" rx="0.26" ry="0.26"/><rect class="cls-3" x="170.92" y="243.09" width="16.5" height="1.27" rx="0.26" ry="0.26"/><path class="cls-3" d="M143,157.12c-.3.46-.6.95-.88,1.44-3.26,5.8-4.71,13.7-5.24,17.27H117.54a1.13,1.13,0,0,0,0-.18l1.87-10.51,4-10.09,9.93-6.2S148.07,149.48,143,157.12Z"/><rect class="cls-3" x="133.61" y="139.41" width="1.81" height="3.11"/><rect class="cls-5" x="86.76" y="153.29" width="13.13" height="87.23"/><rect class="cls-3" x="81.43" y="249.73" width="23.79" height="7.31"/><rect class="cls-3" x="81.43" y="249.73" width="23.79" height="0.37"/><polygon class="cls-3" points="103.69 249.73 82.96 249.73 84.11 244.99 102.57 244.99 103.69 249.73"/><polygon class="cls-5" points="100.94 244.99 85.7 244.99 86.76 240.52 99.89 240.52 100.94 244.99"/><rect class="cls-3" x="85.07" y="241.19" width="16.5" height="1.27" rx="0.26" ry="0.26"/><rect class="cls-3" x="85.07" y="243.09" width="16.5" height="1.27" rx="0.26" ry="0.26"/><rect class="cls-3" x="81.69" y="141.33" width="22.98" height="6.7"/><polygon class="cls-3" points="99.89 158.56 86.76 158.56 84.11 148.03 102.8 148.03 99.89 158.56"/><polygon class="cls-5" points="102.57 148.85 102.8 148.03 84.11 148.03 84.32 148.85 102.57 148.85"/><path class="cls-4" d="M155.48,164l-7.41-10.06s-3.28,3-4.17,6.1c-.51-.47-1.1-1-1.77-1.49-3.4-2.61-8.37-5.34-11.48-4.61-3.7.88-6.69,2.23-8.18,4.61S118,174,117.57,175.66a1.13,1.13,0,0,1,0,.18h-1.4s1.09-27.77,17.92-33.94S155.48,164,155.48,164Z"/><polygon class="cls-4" points="105.15 240.52 92.84 241.63 92.84 155.05 105.15 153.95 105.15 240.52"/><rect class="cls-4" x="87.62" y="249.73" width="22.86" height="7.31"/><polyline class="cls-4" points="86.69 249.73 110.48 249.73 110.48 250.09"/><polygon class="cls-4" points="108.95 249.73 89.18 249.73 90.33 244.99 107.83 244.99 108.95 249.73"/><polygon class="cls-4" points="106.19 244.99 91.79 244.99 92.84 240.52 105.15 240.52 106.19 244.99"/><rect class="cls-4" x="91.39" y="241.19" width="15.44" height="1.27" rx="0.26" ry="0.26"/><rect class="cls-4" x="91.39" y="243.09" width="15.44" height="1.27" rx="0.26" ry="0.26"/><polygon class="cls-4" points="108.89 145.14 88.04 145.14 88.04 141.33 108.89 138.65 108.89 145.14"/><polygon class="cls-4" points="105.98 155.05 92.84 155.05 90.2 144.52 108.89 144.52 105.98 155.05"/><polyline class="cls-4" points="107.83 145.35 108.06 144.52 89.37 144.52"/><rect class="cls-5" x="93.77" y="141.04" width="13.13" height="99.49"/><rect class="cls-3" x="88.44" y="249.73" width="23.79" height="7.31"/><rect class="cls-3" x="88.44" y="249.73" width="23.79" height="0.37"/><polygon class="cls-3" points="110.7 249.73 89.97 249.73 91.12 244.99 109.58 244.99 110.7 249.73"/><polygon class="cls-5" points="107.94 244.99 92.71 244.99 93.77 240.52 106.9 240.52 107.94 244.99"/><rect class="cls-3" x="92.08" y="241.19" width="16.5" height="1.27" rx="0.26" ry="0.26"/><rect class="cls-3" x="92.08" y="243.09" width="16.5" height="1.27" rx="0.26" ry="0.26"/><rect class="cls-3" x="88.7" y="137.83" width="22.98" height="6.7"/><polygon class="cls-3" points="106.9 155.05 93.77 155.05 91.12 144.52 109.81 144.52 106.9 155.05"/><polygon class="cls-5" points="109.58 145.35 109.81 144.52 91.12 144.52 91.33 145.35 109.58 145.35"/><rect class="cls-3" x="143.01" y="123.81" width="22.98" height="6.7"/><polygon class="cls-3" points="161.21 141.04 148.08 141.04 145.43 130.51 164.12 130.51 161.21 141.04"/><polygon class="cls-5" points="163.89 131.33 164.12 130.51 145.43 130.51 145.64 131.33 163.89 131.33"/><rect class="cls-5" x="148.08" y="141.04" width="13.13" height="99.49"/><rect class="cls-3" x="142.75" y="249.73" width="23.79" height="7.31"/><rect class="cls-3" x="142.75" y="249.73" width="23.79" height="0.37"/><polygon class="cls-3" points="165.01 249.73 144.28 249.73 145.43 244.99 163.89 244.99 165.01 249.73"/><polygon class="cls-5" points="162.25 244.99 147.02 244.99 148.08 240.52 161.21 240.52 162.25 244.99"/><rect class="cls-3" x="146.39" y="241.19" width="16.5" height="1.27" rx="0.26" ry="0.26"/><rect class="cls-3" x="146.39" y="243.09" width="16.5" height="1.27" rx="0.26" ry="0.26"/><rect class="cls-2" x="2" y="262.05" width="186.65" height="34.55"/><rect class="cls-1" x="193.89" y="111.61" width="67.25" height="11.42"/><rect class="cls-2" x="143.91" y="117.32" width="39.85" height="6.49"/><polygon class="cls-2" points="183.72 117.32 143.91 117.32 143.91 106.74 156.38 103.78 183.76 103.78 183.72 117.32"/><polygon class="cls-3" points="183.58 107.16 156.44 107.16 143.91 110.44 143.91 106.74 156.38 103.78 183.6 103.78 183.58 107.16"/><polygon class="cls-3" points="183.88 117.73 156.54 117.73 143.91 121.12 143.91 119.28 156.47 116.04 183.89 116.04 183.88 117.73"/><polygon class="cls-6" points="183.56 117.32 186.83 119.24 186.83 121.25 183.56 119.24 183.56 117.32"/><polygon class="cls-2" points="186.83 123.81 183.6 123.81 183.6 103.78 186.83 105.17 186.83 123.81"/><polygon class="cls-6" points="183.6 103.78 183.58 107.16 186.83 108.31 186.88 105.17 183.6 103.78"/><rect class="cls-2" x="156.59" y="97.15" width="33.43" height="6.28"/><rect class="cls-1" x="156.59" y="95.75" width="33.43" height="1.77"/><polygon class="cls-4" points="189.19 101.8 193.89 105.17 186.83 105.17 183.6 103.78 156.38 103.78 143.91 106.74 143.91 110.44 134.07 107.47 156.38 103.2 189.19 101.8"/><polygon class="cls-6" points="189.19 101.8 189.19 97.5 190.15 97.5 190.15 95.75 194.54 99.42 194.54 105.17 193.89 105.17 189.19 101.8"/><polygon class="cls-2" points="156.59 97.51 134.07 102.16 134.07 107.47 156.59 103.2 156.59 97.51"/><polygon class="cls-1" points="156.59 95.75 156.59 97.51 134.07 102.16 134.07 100.55 156.59 95.75"/><polygon class="cls-4" points="190.03 95.75 190.03 97.5 194.54 99.42 194.54 97.5 190.03 95.75"/><rect class="cls-7" x="81.43" y="257.04" width="107.22" height="5.01"/><rect class="cls-2" x="195.28" y="64.27" width="65.35" height="33.31"/><polygon class="cls-1" points="258.36 64.27 195.28 64.27 193.89 58.56 259.75 58.56 258.36 64.27"/><polygon class="cls-2" points="148.57 101.61 108.69 115.02 108.69 76.81 148.57 63.49 148.57 101.61"/><rect class="cls-6" x="186.83" y="57.41" width="79.08" height="1.15"/><polygon class="cls-2" points="108.06 115.14 108.06 120.04 143.91 110.44 143.91 105.17 108.06 115.14"/><polygon class="cls-1" points="108.06 113.09 108.06 115.14 143.91 105.17 143.91 103.11 108.06 113.09"/><rect class="cls-2" x="91.93" y="115.14" width="16.12" height="4.9"/><rect class="cls-1" x="91.93" y="113.14" width="16.12" height="2"/><polygon class="cls-2" points="91.93 115.14 81.34 120.83 81.34 125.57 91.93 120.04 91.93 115.14"/><polygon class="cls-1" points="91.93 113.14 91.93 115.14 81.34 120.83 81.34 118.83 91.93 113.14"/><polygon class="cls-4" points="81.34 125.57 81.34 128.56 84.38 128.56 87.08 130.25 91.93 124.29 108.06 124.29 143.91 115.14 143.91 110.44 108.06 120.04 91.93 120.04 81.34 125.57"/><path class="cls-3" d="M228.31,128.42a40,40,0,0,0-39.87,39.87v128.3h15V235.5h-2.52V165.25h57.62V235.5h-5.66v61.09h15.33V168.3A40,40,0,0,0,228.31,128.42Z"/><rect class="cls-5" x="113.21" y="185.2" width="31.94" height="2.28"/><path class="cls-7" d="M228.31,132.89a36.55,36.55,0,0,0-36.44,36.44V296.59h11.55V214.74c0-8.09,4.27-10.34,4.27-10.34v-3.12S203,199.64,203,190.78c0-11.53,14.79-19,25.35-19s25.33,7.46,25.33,19c0,8.86-4.73,10.51-4.73,10.51v3.12s4.27,2.24,4.27,10.34V222h-.33v74.58h11.88V169.33A36.54,36.54,0,0,0,228.31,132.89Z"/><path class="cls-6" d="M143.9,160s-4.68,8.82-4.68,25.15h1.29s.71-15.95,7.56-20.77c0-6,0-10.48,0-10.48S145.63,155.64,143.9,160Z"/><path class="cls-2" d="M112.63,141.9V172a1.25,1.25,0,0,0,2.12,0c0-5,2.16-27,17.57-32.6v-1.59Z"/><rect class="cls-3" x="113.21" y="184.06" width="31.94" height="2.28"/><rect class="cls-8" x="130.8" y="208.17" width="8.42" height="48.87"/><rect class="cls-8" x="114.05" y="208.17" width="8.42" height="48.87"/><rect class="cls-5" x="114.05" y="202.96" width="8.42" height="5.21"/><polygon class="cls-5" points="124.33 195.49 112.23 195.49 114.05 202.99 122.47 202.99 124.33 195.49"/><rect class="cls-5" x="130.78" y="202.96" width="8.42" height="5.21"/><polygon class="cls-5" points="141.06 195.49 128.97 195.49 130.78 202.99 139.21 202.99 141.06 195.49"/><rect class="cls-9" x="164.85" y="225.74" width="8.42" height="5.21"/><polygon class="cls-4" points="148.57 64.98 108.69 78.39 108.69 76.81 148.57 63.49 148.57 64.98"/><polygon class="cls-1" points="148.57 94.59 114.54 106.12 114.54 79.94 148.57 68.41 148.57 94.59"/><rect class="cls-2" x="95.59" y="76.81" width="13.1" height="36.32"/><rect class="cls-4" x="95.59" y="76.81" width="13.1" height="1.58"/><rect class="cls-2" x="188.48" y="47.81" width="2.6" height="3.74"/><polygon class="cls-4" points="95.59 77.15 95.59 78.39 89.37 86.8 89.37 85.59 95.59 77.15"/><polygon class="cls-6" points="181.82 50.02 181.82 55.47 186.83 57.41 187.88 57.41 187.88 52.63 185.01 50.02 181.82 50.02"/><rect class="cls-4" x="172.56" y="45.6" width="10.33" height="4.42"/><rect class="cls-1" x="187.88" y="55.05" width="78.03" height="2.36"/><path class="cls-3" d="M108.07,70.94s4.4-.18,6.47-2,3.63-3.43,6.11-4.65,27.93-9.39,27.93-9.39v4.9L108.69,73.43h-.62Z"/><rect class="cls-2" x="187.88" y="52.63" width="78.03" height="2.43"/><rect class="cls-4" x="147.17" y="53.66" width="10.33" height="4.42"/><path class="cls-1" d="M192.29,51.22s50-2.29,70.74.14v2.5l-70.74-.14Z"/><path class="cls-2" d="M185,38.62a1,1,0,0,0-.78,1c.1,2.18.69,8.18,4.23,8.18h2.6s3.43.48,3.62-8.19a1,1,0,0,0-.72-1A20.58,20.58,0,0,0,185,38.62Z"/><ellipse class="cls-2" cx="189.54" cy="38.63" rx="2.17" ry="3.08"/><rect class="cls-2" x="153.4" y="51.95" width="2.6" height="3.74"/><path class="cls-2" d="M149.94,42.76a1,1,0,0,0-.78,1c.1,2.18.69,8.18,4.23,8.18H156s3.43.48,3.62-8.19a1,1,0,0,0-.72-1A20.58,20.58,0,0,0,149.94,42.76Z"/><ellipse class="cls-2" cx="154.46" cy="42.77" rx="2.17" ry="3.08"/><rect class="cls-2" x="110.63" y="67.75" width="2.6" height="5.68"/><path class="cls-2" d="M107.17,58.56a1,1,0,0,0-.78,1c.1,2.18.69,8.18,4.23,8.18h2.6s3.43.48,3.62-8.19a1,1,0,0,0-.72-1A20.58,20.58,0,0,0,107.17,58.56Z"/><ellipse class="cls-2" cx="111.69" cy="58.57" rx="2.17" ry="3.08"/><polygon class="cls-2" points="148.57 63.51 108.69 77.15 108.69 73.43 148.57 59.79 148.57 63.51"/><rect class="cls-2" x="95.59" y="73.43" width="13.1" height="3.72"/><ellipse class="cls-3" cx="134.52" cy="138.06" rx="2.73" ry="2.29"/><rect class="cls-2" x="280.68" y="51.22" width="19.84" height="44.97" transform="translate(581.19 147.41) rotate(-180)"/><path class="cls-3" d="M366.63,85.59s2.28.73,2.46-2.86-1.08-4.35-2.87-4.35v-2H367v-7.9h-2.78V64.63h-6.36s-2.51,2.33-4.75,0c-2.15-.54-5.2,2.76-5.2,6.31v3.55Z"/><polygon class="cls-4" points="267.52 65.36 267.52 58.56 272.14 53.94 274.38 53.94 274.38 57.41 267.52 65.36"/><polygon class="cls-2" points="274.91 56.33 267.52 65.36 267.52 96.19 275.35 96.19 274.91 56.33"/><path class="cls-2" d="M318.76,138.06s-8.28-1.6-12.5,5c-1.48-7.31,0-10.62,0-10.62L320.58,137Z"/><rect class="cls-2" x="304.77" y="127.6" width="47.53" height="129.44" transform="translate(657.08 384.63) rotate(-180)"/><rect class="cls-1" x="299.41" y="54.88" width="8.51" height="45.57" transform="translate(607.33 155.34) rotate(-180)"/><rect class="cls-1" x="274.18" y="50.02" width="8.51" height="50.44" transform="translate(556.87 150.48) rotate(-180)"/><polygon class="cls-6" points="344.66 141.64 340.57 141.64 323.69 137.83 309.02 134.14 309.96 130.25 345.23 139.18 344.66 141.64"/><rect class="cls-2" x="267.35" y="123.81" width="39.19" height="135.73" transform="translate(573.9 383.35) rotate(-180)"/><rect class="cls-5" x="347.11" y="123.03" width="22.13" height="18.87" transform="translate(716.35 264.93) rotate(-180)"/><polygon class="cls-5" points="312.1 129.16 347.12 137.83 347.12 123.81 312.1 115.14 312.1 129.16"/><polygon class="cls-2" points="310.36 131.33 347.12 140.35 347.12 137.83 309.65 128.35 310.36 131.33"/><polygon class="cls-2" points="366.63 85.59 360.41 77.15 360.41 110.44 360.41 114.14 366.63 115.14 366.63 85.59"/><rect class="cls-3" x="265.48" y="123.81" width="22.98" height="6.7" transform="translate(553.94 254.32) rotate(-180)"/><polygon class="cls-3" points="270.26 141.04 283.39 141.04 286.04 130.51 267.35 130.51 270.26 141.04"/><polygon class="cls-5" points="267.58 131.33 267.35 130.51 286.04 130.51 285.83 131.33 267.58 131.33"/><rect class="cls-5" x="270.26" y="141.04" width="13.13" height="99.49" transform="translate(553.66 381.56) rotate(-180)"/><rect class="cls-3" x="264.93" y="249.73" width="23.79" height="7.31" transform="translate(553.66 506.77) rotate(-180)"/><rect class="cls-3" x="264.93" y="249.73" width="23.79" height="0.37" transform="translate(553.66 499.82) rotate(-180)"/><polygon class="cls-3" points="266.46 249.73 287.2 249.73 286.05 244.99 267.58 244.99 266.46 249.73"/><polygon class="cls-5" points="269.22 244.99 284.45 244.99 283.39 240.52 270.26 240.52 269.22 244.99"/><rect class="cls-3" x="268.58" y="241.19" width="16.5" height="1.27" rx="0.26" ry="0.26" transform="translate(553.66 483.64) rotate(-180)"/><rect class="cls-3" x="268.58" y="243.09" width="16.5" height="1.27" rx="0.26" ry="0.26" transform="translate(553.66 487.44) rotate(-180)"/><path class="cls-3" d="M313,157.12c.3.46.6.95.88,1.44,3.26,5.8,4.71,13.7,5.24,17.27h19.36a1.13,1.13,0,0,1,0-.18l-1.87-10.51-4-10.09-9.93-6.2S307.93,149.48,313,157.12Z"/><rect class="cls-3" x="320.58" y="139.41" width="1.81" height="3.11" transform="translate(642.97 281.93) rotate(-180)"/><rect class="cls-5" x="356.11" y="153.29" width="13.13" height="87.23" transform="translate(725.35 393.81) rotate(-180)"/><rect class="cls-3" x="350.78" y="249.73" width="23.79" height="7.31" transform="translate(725.35 506.77) rotate(-180)"/><rect class="cls-3" x="350.78" y="249.73" width="23.79" height="0.37" transform="translate(725.35 499.82) rotate(-180)"/><polygon class="cls-3" points="352.31 249.73 373.04 249.73 371.89 244.99 353.43 244.99 352.31 249.73"/><polygon class="cls-5" points="355.06 244.99 370.3 244.99 369.24 240.52 356.11 240.52 355.06 244.99"/><rect class="cls-3" x="354.42" y="241.19" width="16.5" height="1.27" rx="0.26" ry="0.26" transform="translate(725.35 483.64) rotate(-180)"/><rect class="cls-3" x="354.42" y="243.09" width="16.5" height="1.27" rx="0.26" ry="0.26" transform="translate(725.35 487.44) rotate(-180)"/><rect class="cls-3" x="351.32" y="141.33" width="22.98" height="6.7" transform="translate(725.63 289.36) rotate(-180)"/><polygon class="cls-3" points="356.11 158.56 369.24 158.56 371.88 148.03 353.2 148.03 356.11 158.56"/><polygon class="cls-5" points="353.43 148.85 353.2 148.03 371.88 148.03 371.68 148.85 353.43 148.85"/><path class="cls-4" d="M300.52,164l7.41-10.06s3.28,3,4.17,6.1c.51-.47,1.1-1,1.77-1.49,3.4-2.61,8.37-5.34,11.48-4.61,3.7.88,6.69,2.23,8.18,4.61s4.52,15.47,4.91,17.1a1.13,1.13,0,0,0,0,.18h1.4s-1.09-27.77-17.92-33.94S300.52,164,300.52,164Z"/><polygon class="cls-4" points="350.85 240.52 363.15 241.63 363.15 155.05 350.85 153.95 350.85 240.52"/><rect class="cls-4" x="345.52" y="249.73" width="22.86" height="7.31" transform="translate(713.9 506.77) rotate(-180)"/><polyline class="cls-4" points="369.31 249.73 345.52 249.73 345.52 250.09"/><polygon class="cls-4" points="347.05 249.73 366.82 249.73 365.67 244.99 348.17 244.99 347.05 249.73"/><polygon class="cls-4" points="349.81 244.99 364.21 244.99 363.15 240.52 350.85 240.52 349.81 244.99"/><rect class="cls-4" x="349.17" y="241.19" width="15.44" height="1.27" rx="0.26" ry="0.26" transform="translate(713.77 483.64) rotate(-180)"/><rect class="cls-4" x="349.17" y="243.09" width="15.44" height="1.27" rx="0.26" ry="0.26" transform="translate(713.77 487.44) rotate(-180)"/><polygon class="cls-4" points="347.12 145.14 367.96 145.14 367.96 141.33 347.12 138.65 347.12 145.14"/><polygon class="cls-4" points="350.02 155.05 363.15 155.05 365.8 144.52 347.12 144.52 350.02 155.05"/><polyline class="cls-4" points="348.17 145.35 347.94 144.52 366.63 144.52"/><rect class="cls-5" x="349.1" y="141.04" width="13.13" height="99.49" transform="translate(711.33 381.56) rotate(-180)"/><rect class="cls-3" x="343.77" y="249.73" width="23.79" height="7.31" transform="translate(711.33 506.77) rotate(-180)"/><rect class="cls-3" x="343.77" y="249.73" width="23.79" height="0.37" transform="translate(711.33 499.82) rotate(-180)"/><polygon class="cls-3" points="345.3 249.73 366.04 249.73 364.88 244.99 346.42 244.99 345.3 249.73"/><polygon class="cls-5" points="348.06 244.99 363.29 244.99 362.23 240.52 349.1 240.52 348.06 244.99"/><rect class="cls-3" x="347.42" y="241.19" width="16.5" height="1.27" rx="0.26" ry="0.26" transform="translate(711.33 483.64) rotate(-180)"/><rect class="cls-3" x="347.42" y="243.09" width="16.5" height="1.27" rx="0.26" ry="0.26" transform="translate(711.33 487.44) rotate(-180)"/><rect class="cls-3" x="344.32" y="137.83" width="22.98" height="6.7" transform="translate(711.62 282.35) rotate(-180)"/><polygon class="cls-3" points="349.1 155.05 362.23 155.05 364.88 144.52 346.19 144.52 349.1 155.05"/><polygon class="cls-5" points="346.42 145.35 346.19 144.52 364.88 144.52 364.67 145.35 346.42 145.35"/><rect class="cls-3" x="290.01" y="123.81" width="22.98" height="6.7" transform="translate(602.99 254.32) rotate(-180)"/><polygon class="cls-3" points="294.79 141.04 307.92 141.04 310.57 130.51 291.88 130.51 294.79 141.04"/><polygon class="cls-5" points="292.11 131.33 291.88 130.51 310.57 130.51 310.36 131.33 292.11 131.33"/><rect class="cls-5" x="294.79" y="141.04" width="13.13" height="99.49" transform="translate(602.71 381.56) rotate(-180)"/><rect class="cls-3" x="289.46" y="249.73" width="23.79" height="7.31" transform="translate(602.71 506.77) rotate(-180)"/><rect class="cls-3" x="289.46" y="249.73" width="23.79" height="0.37" transform="translate(602.71 499.82) rotate(-180)"/><polygon class="cls-3" points="290.99 249.73 311.72 249.73 310.57 244.99 292.11 244.99 290.99 249.73"/><polygon class="cls-5" points="293.75 244.99 308.98 244.99 307.92 240.52 294.79 240.52 293.75 244.99"/><rect class="cls-3" x="293.1" y="241.19" width="16.5" height="1.27" rx="0.26" ry="0.26" transform="translate(602.71 483.64) rotate(180)"/><rect class="cls-3" x="293.1" y="243.09" width="16.5" height="1.27" rx="0.26" ry="0.26" transform="translate(602.71 487.44) rotate(-180)"/><rect class="cls-2" x="267.35" y="262.05" width="186.65" height="34.55" transform="translate(721.35 558.64) rotate(-180)"/><rect class="cls-2" x="272.24" y="117.32" width="39.85" height="6.49" transform="translate(584.33 241.13) rotate(-180)"/><polygon class="cls-2" points="272.28 117.32 312.09 117.32 312.09 106.74 299.62 103.78 272.24 103.78 272.28 117.32"/><polygon class="cls-3" points="272.42 107.16 299.56 107.16 312.09 110.44 312.09 106.74 299.62 103.78 272.4 103.78 272.42 107.16"/><polygon class="cls-3" points="272.12 117.73 299.46 117.73 312.09 121.12 312.1 119.28 299.53 116.04 272.11 116.04 272.12 117.73"/><polygon class="cls-6" points="272.44 117.32 269.17 119.24 269.17 121.25 272.44 119.24 272.44 117.32"/><polygon class="cls-2" points="269.17 123.81 272.4 123.81 272.4 103.78 269.17 105.17 269.17 123.81"/><polygon class="cls-6" points="272.4 103.78 272.42 107.16 269.17 108.31 269.02 105.17 272.4 103.78"/><rect class="cls-2" x="265.98" y="97.15" width="33.43" height="6.28" transform="translate(565.39 200.59) rotate(-180)"/><rect class="cls-1" x="265.98" y="95.75" width="33.43" height="1.77" transform="translate(565.39 193.26) rotate(-180)"/><polygon class="cls-4" points="266.81 101.8 262.11 105.17 269.17 105.17 272.4 103.78 299.62 103.78 312.09 106.74 312.09 110.44 321.93 107.47 299.62 103.2 266.81 101.8"/><polygon class="cls-6" points="266.81 101.8 266.81 97.5 265.85 97.5 265.85 95.75 261.46 99.42 261.46 105.17 262.11 105.17 266.81 101.8"/><polygon class="cls-2" points="299.41 97.51 321.93 102.16 321.93 107.47 299.41 103.2 299.41 97.51"/><polygon class="cls-1" points="299.41 95.75 299.41 97.51 321.93 102.16 321.93 100.55 299.41 95.75"/><polygon class="cls-4" points="265.97 95.75 265.97 97.5 261.46 99.42 261.46 97.5 265.97 95.75"/><rect class="cls-7" x="267.35" y="257.04" width="107.22" height="5.01" transform="translate(641.93 519.08) rotate(-180)"/><polygon class="cls-2" points="307.43 101.61 347.31 115.02 347.31 76.81 307.43 63.49 307.43 101.61"/><polygon class="cls-2" points="347.94 115.14 347.94 120.04 312.09 110.44 312.1 105.17 347.94 115.14"/><polygon class="cls-1" points="347.94 113.09 347.94 115.14 312.1 105.17 312.1 103.11 347.94 113.09"/><rect class="cls-2" x="347.94" y="115.14" width="16.12" height="4.9" transform="translate(712.01 235.18) rotate(-180)"/><rect class="cls-1" x="347.94" y="113.14" width="16.12" height="2" transform="translate(712.01 228.28) rotate(-180)"/><polygon class="cls-2" points="364.07 115.14 374.66 120.83 374.66 125.57 364.07 120.04 364.07 115.14"/><polygon class="cls-1" points="364.07 113.14 364.07 115.14 374.66 120.83 374.66 118.83 364.07 113.14"/><polygon class="cls-4" points="374.66 125.57 374.66 128.56 371.62 128.56 368.92 130.25 364.07 124.29 347.94 124.29 312.1 115.14 312.09 110.44 347.94 120.04 364.07 120.04 374.66 125.57"/><rect class="cls-5" x="310.85" y="185.2" width="31.94" height="2.28" transform="translate(653.64 372.68) rotate(-180)"/><path class="cls-6" d="M312.1,160s4.68,8.82,4.68,25.15h-1.29s-.71-15.95-7.56-20.77c0-6,0-10.48,0-10.48S310.37,155.64,312.1,160Z"/><path class="cls-2" d="M343.37,141.9V172a1.25,1.25,0,0,1-2.12,0c0-5-2.16-27-17.57-32.6v-1.59Z"/><rect class="cls-3" x="310.85" y="184.06" width="31.94" height="2.28" transform="translate(653.64 370.4) rotate(-180)"/><rect class="cls-8" x="316.77" y="208.17" width="8.42" height="48.87" transform="translate(641.97 465.21) rotate(-180)"/><rect class="cls-8" x="333.53" y="208.17" width="8.42" height="48.87" transform="translate(675.48 465.21) rotate(-180)"/><rect class="cls-5" x="333.53" y="202.96" width="8.42" height="5.21" transform="translate(675.48 411.13) rotate(-180)"/><polygon class="cls-5" points="331.68 195.49 343.77 195.49 341.95 202.99 333.53 202.99 331.68 195.49"/><rect class="cls-5" x="316.79" y="202.96" width="8.42" height="5.21" transform="translate(642.01 411.13) rotate(-180)"/><polygon class="cls-5" points="314.94 195.49 327.03 195.49 325.22 202.99 316.79 202.99 314.94 195.49"/><rect class="cls-9" x="282.72" y="225.74" width="8.42" height="5.21" transform="translate(573.87 456.68) rotate(-180)"/><polygon class="cls-4" points="307.43 64.98 347.31 78.39 347.31 76.81 307.43 63.49 307.43 64.98"/><polygon class="cls-1" points="307.43 94.59 341.46 106.12 341.46 79.94 307.43 68.41 307.43 94.59"/><rect class="cls-2" x="347.31" y="76.81" width="13.1" height="36.32" transform="translate(707.72 189.95) rotate(-180)"/><rect class="cls-4" x="347.31" y="76.81" width="13.1" height="1.58" transform="translate(707.72 155.2) rotate(-180)"/><rect class="cls-2" x="264.91" y="47.81" width="2.6" height="3.74" transform="translate(532.43 99.36) rotate(-180)"/><polygon class="cls-4" points="360.41 77.15 360.41 78.39 366.63 86.8 366.63 85.59 360.41 77.15"/><polygon class="cls-6" points="274.18 50.02 274.18 53.94 267.52 58.56 265.91 58.56 265.91 53.06 270.99 50.02 274.18 50.02"/><rect class="cls-4" x="273.12" y="45.6" width="10.33" height="4.42" transform="translate(556.56 95.62) rotate(-180)"/><rect class="cls-2" x="263.01" y="50.76" width="6.44" height="2.3" transform="translate(532.46 103.83) rotate(-180)"/><path class="cls-3" d="M347.93,70.94s-4.4-.18-6.47-2-3.63-3.43-6.11-4.65-27.93-9.39-27.93-9.39v4.9l39.88,13.64h.62Z"/><rect class="cls-4" x="298.5" y="53.66" width="10.33" height="4.42" transform="translate(607.33 111.74) rotate(-180)"/><path class="cls-2" d="M271,38.62a1,1,0,0,1,.78,1c-.1,2.18-.69,8.18-4.23,8.18h-2.6s-3.43.48-3.62-8.19a1,1,0,0,1,.72-1A20.58,20.58,0,0,1,271,38.62Z"/><ellipse class="cls-2" cx="266.46" cy="38.63" rx="2.17" ry="3.08"/><rect class="cls-2" x="300" y="51.95" width="2.6" height="3.74" transform="translate(602.6 107.64) rotate(-180)"/><path class="cls-2" d="M306.06,42.76a1,1,0,0,1,.78,1c-.1,2.18-.69,8.18-4.23,8.18H300s-3.43.48-3.62-8.19a1,1,0,0,1,.72-1A20.58,20.58,0,0,1,306.06,42.76Z"/><ellipse class="cls-2" cx="301.54" cy="42.77" rx="2.17" ry="3.08"/><rect class="cls-2" x="342.77" y="67.75" width="2.6" height="5.68" transform="translate(688.15 141.18) rotate(-180)"/><path class="cls-2" d="M348.83,58.56a1,1,0,0,1,.78,1c-.1,2.18-.69,8.18-4.23,8.18h-2.6s-3.43.48-3.62-8.19a1,1,0,0,1,.72-1A20.58,20.58,0,0,1,348.83,58.56Z"/><ellipse class="cls-2" cx="344.31" cy="58.57" rx="2.17" ry="3.08"/><polygon class="cls-2" points="307.43 63.51 347.31 77.15 347.31 73.43 307.43 59.79 307.43 63.51"/><rect class="cls-2" x="347.31" y="73.43" width="13.1" height="3.72" transform="translate(707.72 150.58) rotate(-180)"/><ellipse class="cls-3" cx="321.48" cy="138.06" rx="2.73" ry="2.29"/><rect class="cls-2" x="186.55" y="50.76" width="6.44" height="2.3"/></svg>