<svg id="Layer_1" data-name="Layer 1" xmlns="http://www.w3.org/2000/svg" viewBox="0 0 422 221"><defs><style>.cls-1{fill:#1a1a1a;}.cls-2{fill:#eb7675;}.cls-3{fill:#a74040;}.cls-4{fill:#da0100;}.cls-5{fill:#ea8888;}.cls-6{fill:#992121;}.cls-7{fill:#4d4d4d;}.cls-8{fill:#787878;}.cls-9{fill:#f3abab;}</style></defs><title>brisbane</title><rect class="cls-1" x="172.29" y="84.89" width="76.39" height="134.03"/><rect x="209.03" y="130.81" width="3.96" height="85.88"/><rect class="cls-2" x="152.18" y="61.55" width="117.49" height="8.05"/><rect class="cls-3" x="152.18" y="57.22" width="117.49" height="4.33"/><path class="cls-4" d="M232.72,32.82a33.18,33.18,0,0,0-43.42,0h-5.82l3.29,6V58.38h48.49V38.81l3.29-6Z"/><rect class="cls-4" x="152.18" y="41.21" width="117.49" height="17.17"/><polygon class="cls-3" points="84.9 7.08 164.8 45.09 5 45.09 84.9 7.08"/><polygon class="cls-2" points="84.9 9.18 161.13 45.44 8.68 45.44 84.9 9.18"/><polygon class="cls-3" points="84.9 15.43 148.69 45.78 21.12 45.78 84.9 15.43"/><rect class="cls-3" x="39.55" y="39.93" width="90.7" height="166.35"/><rect x="172.82" y="127.93" width="76.39" height="5.77"/><path class="cls-3" d="M269.7,69.59v147.1H248.55V130.8a37.53,37.53,0,1,0-75.07,0v85.89H152.32V69.59Z"/><path class="cls-2" d="M242,97.79a43.88,43.88,0,0,0-74.95,31v87.89h6.39V130.8a37.53,37.53,0,0,1,75.07,0v85.89h6.39V128.81A43.78,43.78,0,0,0,242,97.79Z"/><rect class="cls-5" x="152.32" y="206.27" width="21.15" height="12.65"/><rect class="cls-5" x="248.52" y="206.27" width="21.15" height="12.65"/><rect class="cls-2" x="152.32" y="126.54" width="14.76" height="7.78"/><rect class="cls-2" x="254.94" y="197.8" width="14.76" height="8.47"/><rect class="cls-2" x="254.94" y="183.57" width="14.76" height="7.78"/><rect class="cls-2" x="254.94" y="169.31" width="14.76" height="7.78"/><rect class="cls-2" x="254.94" y="155.05" width="14.76" height="7.78"/><rect class="cls-2" x="254.94" y="140.79" width="14.76" height="7.78"/><rect class="cls-2" x="254.94" y="126.54" width="14.76" height="7.78"/><rect class="cls-2" x="207.12" y="75.15" width="7.78" height="13.23"/><rect class="cls-2" x="221.57" y="82.61" width="7.78" height="8.61" transform="translate(45.72 -74.58) rotate(20.86)"/><rect class="cls-2" x="236.1" y="90.41" width="7.78" height="8.61" transform="translate(124.74 -136.12) rotate(41.93)"/><rect class="cls-2" x="245.98" y="103.05" width="7.78" height="8.61" transform="translate(196.2 -159.25) rotate(55.37)"/><rect class="cls-2" x="251.21" y="118.86" width="7.78" height="8.61" transform="translate(350.7 -143.49) rotate(83.95)"/><rect class="cls-2" x="192.4" y="82.61" width="7.78" height="8.61" transform="translate(410.67 98.25) rotate(159.14)"/><rect class="cls-2" x="177.87" y="90.41" width="7.78" height="8.61" transform="translate(380.27 43.72) rotate(138.07)"/><rect class="cls-2" x="167.99" y="103.05" width="7.78" height="8.61" transform="translate(357.9 26.94) rotate(124.63)"/><rect class="cls-2" x="162.76" y="118.86" width="7.78" height="8.61" transform="translate(306.7 -29.57) rotate(96.05)"/><rect class="cls-6" x="129.23" y="58.07" width="2.11" height="148.2"/><rect class="cls-2" x="152.32" y="73.49" width="117.38" height="1.66"/><rect class="cls-3" x="130.25" y="58.07" width="22.08" height="149.24"/><rect class="cls-2" x="152.32" y="197.8" width="14.76" height="8.47"/><rect class="cls-4" x="130.25" y="197.8" width="22.08" height="9.5"/><rect class="cls-2" x="152.32" y="183.57" width="14.76" height="7.78"/><rect class="cls-2" x="152.32" y="169.31" width="14.76" height="7.78"/><rect class="cls-2" x="152.32" y="155.05" width="14.76" height="7.78"/><rect class="cls-2" x="152.32" y="140.79" width="14.76" height="7.78"/><rect class="cls-2" x="130.25" y="197.8" width="19.96" height="8.47"/><rect class="cls-2" x="130.25" y="183.57" width="19.96" height="7.78"/><rect class="cls-2" x="130.25" y="169.31" width="19.96" height="7.78"/><rect class="cls-2" x="130.25" y="155.05" width="19.96" height="7.78"/><rect class="cls-2" x="130.25" y="140.79" width="19.96" height="7.78"/><rect class="cls-2" x="130.25" y="121.59" width="22.08" height="7.78"/><rect class="cls-2" x="39.55" y="197.8" width="90.7" height="8.47"/><rect class="cls-2" x="39.55" y="183.57" width="90.7" height="7.78"/><rect class="cls-2" x="39.55" y="169.31" width="90.7" height="7.78"/><rect class="cls-2" x="39.55" y="155.05" width="90.7" height="7.78"/><rect class="cls-2" x="39.55" y="140.79" width="90.7" height="7.78"/><rect class="cls-2" x="39.55" y="121.59" width="93.33" height="7.78"/><rect class="cls-2" x="130.25" y="107.33" width="22.08" height="7.78"/><rect class="cls-2" x="130.25" y="93.07" width="22.08" height="7.78"/><rect class="cls-2" x="130.25" y="78.81" width="22.08" height="7.78"/><rect class="cls-2" x="130.25" y="64.55" width="22.08" height="7.78"/><rect class="cls-2" x="123.5" y="47.03" width="35.56" height="3.89"/><rect class="cls-7" x="120.2" y="45.09" width="42.16" height="1.94"/><polygon class="cls-2" points="152.32 58.07 130.25 58.07 123.5 50.92 159.06 50.92 152.32 58.07"/><rect class="cls-5" x="36.45" y="206.27" width="113.76" height="12.65"/><rect class="cls-6" x="150.21" y="58.07" width="2.11" height="160.85"/><rect class="cls-3" x="17.48" y="58.07" width="22.08" height="149.24"/><rect class="cls-2" x="17.48" y="197.8" width="19.96" height="8.47"/><rect class="cls-5" x="12.66" y="211.76" width="24.77" height="7.16"/><polygon class="cls-5" points="37.44 211.81 12.66 211.81 17.48 206.27 37.44 206.27 37.44 211.81"/><rect class="cls-2" x="17.48" y="183.57" width="19.96" height="7.78"/><rect class="cls-2" x="17.48" y="169.31" width="19.96" height="7.78"/><rect class="cls-2" x="17.48" y="155.05" width="19.96" height="7.78"/><rect class="cls-2" x="17.48" y="140.79" width="19.96" height="7.78"/><rect class="cls-2" x="17.48" y="121.59" width="22.08" height="7.78"/><rect class="cls-2" x="17.48" y="107.33" width="22.08" height="7.78"/><rect class="cls-2" x="17.48" y="93.07" width="22.08" height="7.78"/><rect class="cls-2" x="17.48" y="78.81" width="22.08" height="7.78"/><rect class="cls-2" x="17.48" y="64.55" width="22.08" height="7.78"/><rect class="cls-2" x="10.73" y="47.03" width="35.56" height="3.89"/><rect class="cls-2" x="7.43" y="45.09" width="42.16" height="1.94"/><polygon class="cls-2" points="39.55 58.07 17.48 58.07 10.73 50.92 46.29 50.92 39.55 58.07"/><rect class="cls-6" x="37.44" y="58.07" width="2.11" height="148.2"/><rect class="cls-8" x="37.44" y="206.27" width="2.11" height="12.65"/><rect class="cls-7" x="37.44" y="197.8" width="2.11" height="8.47"/><rect class="cls-7" x="37.44" y="183.57" width="2.11" height="7.78"/><rect class="cls-7" x="37.44" y="169.31" width="2.11" height="7.78"/><rect class="cls-7" x="37.44" y="155.05" width="2.11" height="7.78"/><rect class="cls-7" x="37.44" y="140.79" width="2.11" height="7.78"/><rect class="cls-7" x="37.44" y="121.59" width="2.11" height="7.78"/><rect class="cls-6" x="70.61" y="154.71" width="1.23" height="33.46"/><rect class="cls-6" x="89.91" y="154.71" width="1.23" height="33.46"/><rect class="cls-6" x="105.49" y="154.71" width="1.23" height="33.46"/><rect class="cls-2" x="63.49" y="154.71" width="7.91" height="33.7"/><rect class="cls-2" x="98.53" y="154.71" width="7.87" height="33.7"/><rect class="cls-2" x="75.77" y="154.71" width="15.08" height="33.7"/><rect class="cls-6" x="63.21" y="154.71" width="1.23" height="33.46"/><rect class="cls-6" x="63.49" y="185.49" width="7.91" height="2.68"/><rect class="cls-6" x="75.16" y="154.71" width="1.23" height="33.46"/><rect class="cls-6" x="75.43" y="185.49" width="15.42" height="2.68"/><rect class="cls-6" x="98.21" y="154.71" width="1.23" height="33.46"/><rect class="cls-6" x="98.49" y="185.49" width="7.91" height="2.68"/><rect class="cls-6" x="64.11" y="166.03" width="7.29" height="0.65"/><rect class="cls-6" x="99.1" y="166.03" width="7.29" height="0.65"/><rect class="cls-6" x="75.77" y="166.03" width="15.08" height="0.65"/><rect class="cls-6" x="67.93" y="170.12" width="31.42" height="0.65" transform="translate(254.07 86.81) rotate(90)"/><rect class="cls-9" x="48.14" y="152.98" width="62.24" height="2.07"/><rect class="cls-9" x="107.58" y="154.73" width="1.95" height="20.6"/><rect class="cls-9" x="57.02" y="154.73" width="1.95" height="20.6"/><polygon class="cls-7" points="115.08 137.85 52.84 137.85 48.14 152.98 110.37 152.98 115.08 137.85"/><polygon class="cls-4" points="77.68 137.85 64.98 137.85 60.27 152.98 72.97 152.98 77.68 137.85"/><polygon class="cls-4" points="102.31 137.85 89.61 137.85 84.9 152.98 97.6 152.98 102.31 137.85"/><rect class="cls-8" x="58.66" y="188.17" width="52.48" height="3.18"/><rect class="cls-6" x="70.61" y="77.02" width="1.23" height="33.46"/><rect class="cls-6" x="89.91" y="77.02" width="1.23" height="33.46"/><rect class="cls-6" x="105.49" y="77.02" width="1.23" height="33.46"/><rect class="cls-2" x="63.49" y="77.02" width="7.91" height="33.7"/><rect class="cls-2" x="98.53" y="77.02" width="7.87" height="33.7"/><rect class="cls-2" x="75.77" y="77.02" width="15.08" height="33.7"/><rect class="cls-6" x="63.21" y="77.02" width="1.23" height="33.46"/><rect class="cls-6" x="63.49" y="107.8" width="7.91" height="2.68"/><rect class="cls-6" x="75.16" y="77.02" width="1.23" height="33.46"/><rect class="cls-6" x="75.43" y="107.8" width="15.42" height="2.68"/><rect class="cls-6" x="98.21" y="77.02" width="1.23" height="33.46"/><rect class="cls-6" x="98.49" y="107.8" width="7.91" height="2.68"/><rect class="cls-6" x="64.11" y="88.34" width="7.29" height="0.65"/><rect class="cls-6" x="99.1" y="88.34" width="7.29" height="0.65"/><rect class="cls-6" x="75.77" y="88.34" width="15.08" height="0.65"/><rect class="cls-6" x="67.93" y="92.42" width="31.42" height="0.65" transform="translate(176.38 9.11) rotate(90)"/><rect class="cls-9" x="48.14" y="75.29" width="62.24" height="2.07"/><rect class="cls-9" x="107.58" y="77.04" width="1.95" height="20.6"/><rect class="cls-9" x="57.02" y="77.04" width="1.95" height="20.6"/><polygon class="cls-7" points="115.08 60.16 52.84 60.16 48.14 75.29 110.37 75.29 115.08 60.16"/><polygon class="cls-4" points="77.68 60.16 64.98 60.16 60.27 75.29 72.97 75.29 77.68 60.16"/><polygon class="cls-4" points="102.31 60.16 89.61 60.16 84.9 75.29 97.6 75.29 102.31 60.16"/><rect class="cls-8" x="58.66" y="110.48" width="52.48" height="3.18"/><polygon class="cls-7" points="152.32 134.31 150.21 129.36 150.21 121.59 152.32 126.53 152.32 134.31"/><polygon class="cls-7" points="152.32 120.05 150.21 115.11 150.21 107.33 152.32 112.28 152.32 120.05"/><polygon class="cls-7" points="152.32 105.8 150.21 100.85 150.21 93.07 152.32 98.02 152.32 105.8"/><polygon class="cls-7" points="152.32 91.54 150.21 86.59 150.21 78.81 152.32 83.76 152.32 91.54"/><polygon class="cls-7" points="152.32 77.28 150.21 72.33 150.21 64.55 152.32 69.5 152.32 77.28"/><circle class="cls-7" cx="84.9" cy="32.32" r="11.73"/><circle class="cls-3" cx="84.9" cy="32.32" r="7.37"/><rect class="cls-7" x="150.21" y="197.8" width="2.11" height="8.47" transform="translate(302.53 404.07) rotate(180)"/><rect class="cls-7" x="150.21" y="183.57" width="2.11" height="7.78" transform="translate(302.53 374.92) rotate(180)"/><rect class="cls-7" x="150.21" y="169.31" width="2.11" height="7.78" transform="translate(302.53 346.4) rotate(180)"/><rect class="cls-7" x="150.21" y="155.05" width="2.11" height="7.78" transform="translate(302.53 317.88) rotate(180)"/><rect class="cls-7" x="150.21" y="140.79" width="2.11" height="7.78" transform="translate(302.53 289.37) rotate(180)"/><polygon class="cls-3" points="337.1 7.08 257.2 45.09 417 45.09 337.1 7.08"/><polygon class="cls-2" points="337.1 9.18 260.87 45.44 413.32 45.44 337.1 9.18"/><polygon class="cls-3" points="337.1 15.43 273.31 45.78 400.88 45.78 337.1 15.43"/><rect class="cls-3" x="291.75" y="39.93" width="90.7" height="166.35" transform="translate(674.2 246.2) rotate(-180)"/><rect class="cls-6" x="290.65" y="58.07" width="2.11" height="148.2"/><rect class="cls-3" x="269.68" y="58.07" width="22.08" height="149.24" transform="translate(561.43 265.38) rotate(-180)"/><rect class="cls-4" x="269.68" y="197.8" width="22.08" height="9.5" transform="translate(561.43 405.11) rotate(-180)"/><rect class="cls-2" x="271.79" y="197.8" width="19.96" height="8.47" transform="translate(563.54 404.07) rotate(-180)"/><rect class="cls-2" x="271.79" y="183.57" width="19.96" height="7.78" transform="translate(563.54 374.92) rotate(-180)"/><rect class="cls-2" x="271.79" y="169.31" width="19.96" height="7.78" transform="translate(563.54 346.4) rotate(-180)"/><rect class="cls-2" x="271.79" y="155.05" width="19.96" height="7.78" transform="translate(563.54 317.88) rotate(-180)"/><rect class="cls-2" x="271.79" y="140.79" width="19.96" height="7.78" transform="translate(563.54 289.37) rotate(-180)"/><rect class="cls-2" x="269.68" y="121.59" width="22.08" height="7.78" transform="translate(561.43 250.95) rotate(-180)"/><rect class="cls-2" x="291.75" y="197.8" width="90.7" height="8.47" transform="translate(674.2 404.07) rotate(-180)"/><rect class="cls-2" x="291.75" y="183.57" width="90.7" height="7.78" transform="translate(674.2 374.92) rotate(-180)"/><rect class="cls-2" x="291.75" y="169.31" width="90.7" height="7.78" transform="translate(674.2 346.4) rotate(-180)"/><rect class="cls-2" x="291.75" y="155.05" width="90.7" height="7.78" transform="translate(674.2 317.88) rotate(-180)"/><rect class="cls-2" x="291.75" y="140.79" width="90.7" height="7.78" transform="translate(674.2 289.37) rotate(-180)"/><rect class="cls-2" x="289.12" y="121.59" width="93.33" height="7.78" transform="translate(671.57 250.95) rotate(-180)"/><rect class="cls-2" x="269.68" y="107.33" width="22.08" height="7.78" transform="translate(561.43 222.43) rotate(-180)"/><rect class="cls-2" x="269.68" y="93.07" width="22.08" height="7.78" transform="translate(561.43 193.92) rotate(-180)"/><rect class="cls-2" x="269.68" y="78.81" width="22.08" height="7.78" transform="translate(561.43 165.4) rotate(-180)"/><rect class="cls-2" x="269.68" y="64.55" width="22.08" height="7.78" transform="translate(561.43 136.88) rotate(-180)"/><rect class="cls-2" x="262.94" y="47.03" width="35.56" height="3.89" transform="translate(561.43 97.95) rotate(-180)"/><rect class="cls-7" x="259.64" y="45.09" width="42.16" height="1.94" transform="translate(561.43 92.12) rotate(-180)"/><polygon class="cls-2" points="269.68 58.07 291.75 58.07 298.5 50.92 262.94 50.92 269.68 58.07"/><rect class="cls-5" x="271.79" y="206.27" width="113.76" height="12.65"/><rect class="cls-6" x="269.68" y="58.07" width="2.11" height="160.85"/><rect class="cls-3" x="382.45" y="58.07" width="22.08" height="149.24" transform="translate(786.97 265.38) rotate(-180)"/><rect class="cls-2" x="384.56" y="197.8" width="19.96" height="8.47" transform="translate(789.09 404.07) rotate(-180)"/><rect class="cls-5" x="384.56" y="211.76" width="24.77" height="7.16" transform="translate(793.9 430.69) rotate(-180)"/><polygon class="cls-5" points="384.56 211.81 409.34 211.81 404.52 206.27 384.56 206.27 384.56 211.81"/><rect class="cls-2" x="384.56" y="183.57" width="19.96" height="7.78" transform="translate(789.09 374.92) rotate(-180)"/><rect class="cls-2" x="384.56" y="169.31" width="19.96" height="7.78" transform="translate(789.09 346.4) rotate(-180)"/><rect class="cls-2" x="384.56" y="155.05" width="19.96" height="7.78" transform="translate(789.09 317.88) rotate(-180)"/><rect class="cls-2" x="384.56" y="140.79" width="19.96" height="7.78" transform="translate(789.09 289.37) rotate(-180)"/><rect class="cls-2" x="382.45" y="121.59" width="22.08" height="7.78" transform="translate(786.97 250.95) rotate(-180)"/><rect class="cls-2" x="382.45" y="107.33" width="22.08" height="7.78" transform="translate(786.97 222.43) rotate(-180)"/><rect class="cls-2" x="382.45" y="93.07" width="22.08" height="7.78" transform="translate(786.97 193.92) rotate(-180)"/><rect class="cls-2" x="382.45" y="78.81" width="22.08" height="7.78" transform="translate(786.97 165.4) rotate(-180)"/><rect class="cls-2" x="382.45" y="64.55" width="22.08" height="7.78" transform="translate(786.97 136.88) rotate(-180)"/><rect class="cls-2" x="375.71" y="47.03" width="35.56" height="3.89" transform="translate(786.98 97.95) rotate(-180)"/><rect class="cls-7" x="372.41" y="45.09" width="42.16" height="1.94" transform="translate(786.98 92.12) rotate(-180)"/><polygon class="cls-2" points="382.45 58.07 404.52 58.07 411.27 50.92 375.71 50.92 382.45 58.07"/><rect class="cls-6" x="382.45" y="58.07" width="2.11" height="148.2"/><rect class="cls-8" x="382.45" y="206.27" width="2.11" height="12.65"/><rect class="cls-7" x="382.45" y="197.8" width="2.11" height="8.47" transform="translate(767.01 404.07) rotate(-180)"/><rect class="cls-7" x="382.45" y="183.57" width="2.11" height="7.78" transform="translate(767.01 374.92) rotate(-180)"/><rect class="cls-7" x="382.45" y="169.31" width="2.11" height="7.78" transform="translate(767.01 346.4) rotate(-180)"/><rect class="cls-7" x="382.45" y="155.05" width="2.11" height="7.78" transform="translate(767.01 317.88) rotate(-180)"/><rect class="cls-7" x="382.45" y="140.79" width="2.11" height="7.78" transform="translate(767.01 289.37) rotate(-180)"/><rect class="cls-7" x="382.45" y="121.59" width="2.11" height="7.78" transform="translate(767.01 250.95) rotate(-180)"/><polygon class="cls-7" points="269.68 134.31 271.79 129.36 271.79 121.59 269.68 126.53 269.68 134.31"/><polygon class="cls-7" points="269.68 120.05 271.79 115.11 271.79 107.33 269.68 112.28 269.68 120.05"/><polygon class="cls-7" points="269.68 105.8 271.79 100.85 271.79 93.07 269.68 98.02 269.68 105.8"/><polygon class="cls-7" points="269.68 91.54 271.79 86.59 271.79 78.81 269.68 83.76 269.68 91.54"/><polygon class="cls-7" points="269.68 77.28 271.79 72.33 271.79 64.55 269.68 69.5 269.68 77.28"/><circle class="cls-7" cx="337.1" cy="32.32" r="11.73"/><circle class="cls-3" cx="337.1" cy="32.32" r="7.37"/><rect class="cls-7" x="269.68" y="197.8" width="2.11" height="8.47"/><rect class="cls-7" x="269.68" y="183.57" width="2.11" height="7.78"/><rect class="cls-7" x="269.68" y="169.31" width="2.11" height="7.78"/><rect class="cls-7" x="269.68" y="155.05" width="2.11" height="7.78"/><rect class="cls-7" x="269.68" y="140.79" width="2.11" height="7.78"/><rect class="cls-6" x="350.35" y="154.71" width="1.23" height="33.46" transform="translate(701.92 342.88) rotate(-180)"/><rect class="cls-6" x="331.05" y="154.71" width="1.23" height="33.46" transform="translate(663.33 342.88) rotate(-180)"/><rect class="cls-6" x="315.47" y="154.71" width="1.23" height="33.46" transform="translate(632.17 342.88) rotate(-180)"/><rect class="cls-2" x="350.79" y="154.71" width="7.91" height="33.7" transform="translate(709.49 343.13) rotate(-180)"/><rect class="cls-2" x="315.79" y="154.71" width="7.87" height="33.7" transform="translate(639.45 343.13) rotate(-180)"/><rect class="cls-2" x="331.34" y="154.71" width="15.08" height="33.7" transform="translate(677.76 343.13) rotate(-180)"/><rect class="cls-6" x="357.75" y="154.71" width="1.23" height="33.46" transform="translate(716.72 342.88) rotate(-180)"/><rect class="cls-6" x="350.79" y="185.49" width="7.91" height="2.68" transform="translate(709.49 373.66) rotate(-180)"/><rect class="cls-6" x="345.8" y="154.71" width="1.23" height="33.46" transform="translate(692.84 342.88) rotate(-180)"/><rect class="cls-6" x="331.34" y="185.49" width="15.42" height="2.68" transform="translate(678.1 373.66) rotate(-180)"/><rect class="cls-6" x="322.75" y="154.71" width="1.23" height="33.46" transform="translate(646.72 342.88) rotate(-180)"/><rect class="cls-6" x="315.79" y="185.49" width="7.91" height="2.68" transform="translate(639.49 373.66) rotate(-180)"/><rect class="cls-6" x="350.79" y="166.03" width="7.29" height="0.65" transform="translate(708.87 332.72) rotate(-180)"/><rect class="cls-6" x="315.79" y="166.03" width="7.29" height="0.65" transform="translate(638.87 332.72) rotate(-180)"/><rect class="cls-6" x="331.34" y="166.03" width="15.08" height="0.65" transform="translate(677.75 332.72) rotate(-180)"/><rect class="cls-6" x="322.85" y="170.12" width="31.42" height="0.65" transform="translate(508.99 -168.11) rotate(90)"/><rect class="cls-9" x="311.81" y="152.98" width="62.24" height="2.07" transform="translate(685.87 308.03) rotate(-180)"/><rect class="cls-9" x="312.65" y="154.73" width="1.95" height="20.6" transform="translate(627.26 330.07) rotate(-180)"/><rect class="cls-9" x="363.21" y="154.73" width="1.95" height="20.6" transform="translate(728.37 330.07) rotate(-180)"/><polygon class="cls-7" points="307.11 137.85 369.35 137.85 374.05 152.98 311.81 152.98 307.11 137.85"/><polygon class="cls-4" points="344.51 137.85 357.21 137.85 361.91 152.98 349.21 152.98 344.51 137.85"/><polygon class="cls-4" points="319.88 137.85 332.58 137.85 337.28 152.98 324.58 152.98 319.88 137.85"/><rect class="cls-8" x="311.05" y="188.17" width="52.48" height="3.18" transform="translate(674.58 379.52) rotate(-180)"/><rect class="cls-6" x="350.35" y="77.02" width="1.23" height="33.46" transform="translate(701.92 187.5) rotate(-180)"/><rect class="cls-6" x="331.05" y="77.02" width="1.23" height="33.46" transform="translate(663.33 187.5) rotate(-180)"/><rect class="cls-6" x="315.47" y="77.02" width="1.23" height="33.46" transform="translate(632.17 187.5) rotate(-180)"/><rect class="cls-2" x="350.79" y="77.02" width="7.91" height="33.7" transform="translate(709.49 187.74) rotate(-180)"/><rect class="cls-2" x="315.79" y="77.02" width="7.87" height="33.7" transform="translate(639.45 187.74) rotate(-180)"/><rect class="cls-2" x="331.34" y="77.02" width="15.08" height="33.7" transform="translate(677.76 187.74) rotate(-180)"/><rect class="cls-6" x="357.75" y="77.02" width="1.23" height="33.46" transform="translate(716.72 187.5) rotate(-180)"/><rect class="cls-6" x="350.79" y="107.8" width="7.91" height="2.68" transform="translate(709.49 218.28) rotate(-180)"/><rect class="cls-6" x="345.8" y="77.02" width="1.23" height="33.46" transform="translate(692.84 187.5) rotate(-180)"/><rect class="cls-6" x="331.34" y="107.8" width="15.42" height="2.68" transform="translate(678.1 218.28) rotate(-180)"/><rect class="cls-6" x="322.75" y="77.02" width="1.23" height="33.46" transform="translate(646.72 187.5) rotate(-180)"/><rect class="cls-6" x="315.79" y="107.8" width="7.91" height="2.68" transform="translate(639.49 218.28) rotate(-180)"/><rect class="cls-6" x="350.79" y="88.34" width="7.29" height="0.65" transform="translate(708.87 177.33) rotate(-180)"/><rect class="cls-6" x="315.79" y="88.34" width="7.29" height="0.65" transform="translate(638.87 177.33) rotate(-180)"/><rect class="cls-6" x="331.34" y="88.34" width="15.08" height="0.65" transform="translate(677.75 177.33) rotate(-180)"/><rect class="cls-6" x="322.85" y="92.42" width="31.42" height="0.65" transform="translate(431.3 -245.81) rotate(90)"/><rect class="cls-9" x="311.81" y="75.29" width="62.24" height="2.07" transform="translate(685.87 152.65) rotate(-180)"/><rect class="cls-9" x="312.65" y="77.04" width="1.95" height="20.6" transform="translate(627.26 174.68) rotate(-180)"/><rect class="cls-9" x="363.21" y="77.04" width="1.95" height="20.6" transform="translate(728.37 174.68) rotate(-180)"/><polygon class="cls-7" points="307.11 60.16 369.35 60.16 374.05 75.29 311.81 75.29 307.11 60.16"/><polygon class="cls-4" points="344.51 60.16 357.21 60.16 361.91 75.29 349.21 75.29 344.51 60.16"/><polygon class="cls-4" points="319.88 60.16 332.58 60.16 337.28 75.29 324.58 75.29 319.88 60.16"/><rect class="cls-8" x="311.05" y="110.48" width="52.48" height="3.18" transform="translate(674.58 224.13) rotate(-180)"/></svg>