<svg id="Layer_1" data-name="Layer 1" xmlns="http://www.w3.org/2000/svg" xmlns:xlink="http://www.w3.org/1999/xlink" viewBox="0 0 222 451"><defs><style>.cls-1{fill:none;}.cls-2{fill:#f3d632;}.cls-3{fill:#f7e270;}.cls-4{fill:#94eba3;}.cls-5{fill:#84e895;}.cls-6{clip-path:url(#clip-path);}.cls-7{fill:#fcf6d0;}.cls-8{fill:#faefb1;}</style><clipPath id="clip-path"><path class="cls-1" d="M64.13,180.32h93.74a64.06,64.06,0,0,1,64.06,64.06V400.49a47,47,0,0,1-47,47H47.08a47,47,0,0,1-47-47V244.38A64.06,64.06,0,0,1,64.13,180.32Z"/></clipPath></defs><title>brisbane</title><rect class="cls-2" x="75.33" y="152.76" width="72.98" height="38.86"/><path class="cls-3" d="M64,180.32h94a64,64,0,0,1,64,64V400.49a47,47,0,0,1-47,47H47.08a47,47,0,0,1-47-47V244.27A64,64,0,0,1,64,180.32Z"/><polygon class="cls-2" points="75.33 152.76 104.59 127.13 118.65 127.13 148.31 152.76 75.33 152.76"/><path class="cls-4" d="M83.1,135.19s-21.22-20.61-52.44,0c-2.24,0,3.23-4.56,6.64-6.59,2-4.24,9.85-10.78,16.95-11.42s14.74,1.11,20.17,6,11,9,11,9Z"/><path class="cls-4" d="M32.15,26.23S74.43,59.38,85.42,99.74l10.09,15.47-4-39S74,48.84,61.43,40.54,34.58,23.6,32.15,26.23Z"/><path class="cls-4" d="M58.07,140.36a78.27,78.27,0,0,0,3.33-9c1-3.64,4.44-8,7.86-9.62s9,8.51,9,8.51-13.35,5.18-16.68,8.51S58.07,140.36,58.07,140.36Z"/><path class="cls-4" d="M92.73,78.65s-5.9-49.53-16.05-67.37-1.49-8.17-1.49-8.17,28,15.36,34.18,74.07c0,26-7.43,28.73-7.43,28.73Z"/><path class="cls-4" d="M125.89,85.67s12.56-48.31,25.38-64.61,2.6-7.9,2.6-7.9-30.92,11.42-45,68.78c-3.4,25.79,3.93,29.5,3.93,29.5Z"/><path class="cls-4" d="M95,127.13S91.58,85.86,92.1,79.31s9.44-8.83,9.44-8.83,10.23,2.53,10.75,9.09,1.57,47.57,1.57,47.57Z"/><path class="cls-4" d="M43.42,95.16a11.92,11.92,0,0,1,8.7-3.25c5.66-3.21,11.79-3.21,15.5-3.21s19,3.3,27.32,20.62,9.16,20.3,9.16,20.3-4.19,2-7.72,1.77-8.6-.33-11.47-5.41S67.13,96.86,60.4,95,49.05,92.92,43.42,95.16Z"/><path class="cls-4" d="M131.42,56.12s11.28-13,19.35-18.65S174,21.92,174,21.92s4.49-1.73-.58,3.22-24.65,24.93-31.21,36.07S132,77.09,129.81,84.12s-12.55,10-12.55,10Z"/><path class="cls-4" d="M130.2,140.82s15.53-31.09,58.15-20.36c2.49-.87-5.35-3.8-9.92-4.73-3.89-3.91-15.11-8.12-23.23-6.08s-15.91,6.95-20,14.47-8.73,14.23-8.73,14.23Z"/><path class="cls-4" d="M160.11,137.7a78.27,78.27,0,0,1-4.39-8.5c-1.41-3.5-5.38-7.45-9-8.6s-7.9,9.54-7.9,9.54,13.88,3.52,17.59,6.43S160.11,137.7,160.11,137.7Z"/><path class="cls-4" d="M190.81,100.85s-36.55-4.53-50.64,12.59-13.58,18.36-13.58,18.36l-5.35,13.1-1.92-10.45s9.51-37.11,31.23-40.51c13.86-2.9,21.53.63,28.62,3.58A42.74,42.74,0,0,0,190.81,100.85Z"/><path class="cls-4" d="M21,107.42s33-7.37,47.39,7,14,15.58,14,15.58l6,11.5.83-9.72s-12-33.07-32.12-34.26C44.3,96.11,37.6,100,31.38,103.34A39.23,39.23,0,0,1,21,107.42Z"/><path class="cls-4" d="M128.44,79.68s20.79-15.12,37.94-19.16a222.4,222.4,0,0,1,29.11-5s3.28-.13-1.64,1.64S174.94,63,166.37,68.72s-21.43,13.49-24.2,17-15.63,5.42-15.63,5.42Z"/><path class="cls-5" d="M43.42,95.16a11.92,11.92,0,0,1,8.7-3.25c5.66-3.21,4.07-1.45,7.78-1.45s17.7,3.66,26,21,8.19,19.22,8.19,19.22,0,1-3.49.74-2.8-.35-5.67-5.42S67.13,96.86,60.4,95,49.05,92.92,43.42,95.16Z"/><path class="cls-4" d="M102.7,129.25s8.62-32.51,21.7-39.35,13.08-3,18.73-2.68,9.23,0,10,.49.37.51-1.47,1-11.13,5.43-15.08,10.1-15,33.36-15,33.36Z"/><path class="cls-5" d="M111.93,130.68s18.34-43.5,33.34-43.36c8.23-.62,10.43,1.08,9.25,1.39s-6,.38-9.83,4c-12.11,13.11-23.15,39.47-23.15,39.47Z"/><path class="cls-5" d="M98.93,71.44l5.16,58.65h3.48L103.23,71.7A2.6,2.6,0,0,0,98.93,71.44Z"/><path class="cls-4" d="M76.69,170.25S62.19,172.14,53,184.12a68.54,68.54,0,0,0,7.4-13.87c2.95-7.7,11.05-8.8,11.05-8.8S43.32,157.21,30.06,169a11.76,11.76,0,0,1,7.74-6.81s17-19,38.9-7.74Z"/><path class="cls-4" d="M88.44,146.9l-7.18,9.76S66.15,139,36.5,151.78c0,0,5.89-4,10.5-4.88,3.87-3.13,18.67-10.68,29.69-6.26S88.44,146.9,88.44,146.9Z"/><path class="cls-5" d="M99,147.45c-2.38-6.2-18.31-14.78-18.31-14.78s8.58-4,15.74-3.34,12.4,8,14.29,14.4a27.31,27.31,0,0,0-9.94,7.16Z"/><path class="cls-5" d="M122.7,150.11s-.49.76,3.86-1.09,7.27-3.28,7.27-3.28a12.16,12.16,0,0,1,3.78-8.32c3.88-3.73,1-8.1-1.79-8.16s-13.67.14-13.67.14Z"/><path class="cls-4" d="M90.47,145.42l10.31,5.47s-7.37-18-18-18.73a3.55,3.55,0,0,0-2,.5S89.17,137.29,90.47,145.42Z"/><path class="cls-4" d="M112.6,143l10.09,7.07s5.62-14,10.53-17.94c0,0-8.08-5.13-13.7-1.81C116.64,132.16,112.6,143,112.6,143Z"/><path class="cls-4" d="M135.47,146.69s6.17,10.4,8.1,9.07,13.3-11.61,25.88-10.76,16,3.87,16,3.87-2.9-4.72-10.16-5.56c-5.08-1.21-10.28-5.32-13.79-5.44s-14.15-.22-16.81,1.89S135.47,146.69,135.47,146.69Z"/><path class="cls-4" d="M147.86,153.79v16.41s7.48-1.19,17.86,6.21S178.14,186,178.14,186s-.09-1.28-4-5.36-4.76-9.36-6.21-11.23-3.66-6.63-11.31-7.06c-1.79-1,0-1.79,0-1.79s22.54-1.87,31.38,2.47c7,2.81,6.29,3.83,7.48,4.08s2.64.26.43-1.28-5.53-2.89-9-5.27-10-9.28-17.52-10.34S147.86,153.79,147.86,153.79Z"/><g class="cls-6"><path class="cls-7" d="M71.48,277.7c-2.1-1.37-5.61-1.86-8.89-2-3.28.1-6.79.59-8.89,2-3.78,2.46-9.22,12.54-10.47,17.81,0,0,8.16,7.81,10.65,16,1.87,1.06,5.37,1.28,8.71,1.19,3.35.09,6.85-.13,8.71-1.19,2.48-8.16,10.65-16,10.65-16C80.71,290.25,75.26,280.16,71.48,277.7Z"/><path class="cls-7" d="M101.36,296.18c-2.1-1.37-5.61-1.86-8.89-2-3.28.1-6.79.59-8.89,2-3.78,2.46-9.22,12.54-10.47,17.81,0,0,8.16,7.81,10.65,16,1.87,1.06,5.37,1.28,8.71,1.19,3.35.09,6.85-.13,8.71-1.19,2.48-8.16,10.65-16,10.65-16C110.59,308.72,105.15,298.64,101.36,296.18Z"/><path class="cls-8" d="M101.36,258.06c-2.1-1.37-5.61-1.86-8.89-2-3.28.1-6.79.59-8.89,2-3.78,2.46-9.22,12.54-10.47,17.81,0,0,8.16,7.81,10.65,16,1.87,1.06,5.37,1.28,8.71,1.19,3.35.09,6.85-.13,8.71-1.19,2.48-8.16,10.65-16,10.65-16C110.59,270.6,105.15,260.52,101.36,258.06Z"/><path class="cls-7" d="M132.47,277.12c-2.1-1.37-5.61-1.86-8.89-2-3.28.1-6.79.59-8.89,2-3.78,2.46-9.22,12.54-10.47,17.81,0,0,8.16,7.81,10.65,16,1.87,1.06,5.37,1.28,8.71,1.19,3.35.09,6.85-.13,8.71-1.19,2.48-8.16,10.65-16,10.65-16C141.7,289.66,136.26,279.58,132.47,277.12Z"/><path class="cls-7" d="M162.36,297c-2.1-1.37-5.61-1.86-8.89-2-3.28.1-6.79.59-8.89,2-3.78,2.46-9.22,12.54-10.47,17.81,0,0,8.16,7.81,10.65,16,1.87,1.06,5.37,1.28,8.71,1.19,3.35.09,6.85-.13,8.71-1.19,2.48-8.16,10.65-16,10.65-16C171.58,309.56,166.14,299.48,162.36,297Z"/><path class="cls-8" d="M162.36,257.47c-2.1-1.37-5.61-1.86-8.89-2-3.28.1-6.79.59-8.89,2-3.78,2.46-9.22,12.54-10.47,17.81,0,0,8.16,7.81,10.65,16,1.87,1.06,5.37,1.28,8.71,1.19,3.35.09,6.85-.13,8.71-1.19,2.48-8.16,10.65-16,10.65-16C171.58,270,166.14,259.93,162.36,257.47Z"/><path class="cls-7" d="M43,336.1c-2.1-1.37-5.61-1.86-8.89-2-3.28.1-6.79.59-8.89,2-3.78,2.46-9.22,12.54-10.47,17.81,0,0,8.16,7.81,10.65,16,1.87,1.06,5.37,1.28,8.71,1.19,3.35.09,6.85-.13,8.71-1.19,2.48-8.16,10.65-16,10.65-16C52.25,348.64,46.81,338.56,43,336.1Z"/><path class="cls-7" d="M72.91,354.57c-2.1-1.37-5.61-1.86-8.89-2-3.28.1-6.79.59-8.89,2-3.78,2.46-9.22,12.54-10.47,17.81,0,0,8.16,7.81,10.65,16,1.87,1.06,5.37,1.28,8.71,1.19,3.35.09,6.85-.13,8.71-1.19,2.48-8.16,10.65-16,10.65-16C82.14,367.12,76.7,357,72.91,354.57Z"/><path class="cls-7" d="M13,356c-2.1-1.37-5.61-1.86-8.89-2-3.28.1-6.79.59-8.89,2-3.78,2.46-9.22,12.54-10.47,17.81,0,0,8.16,7.81,10.65,16C-2.74,390.88.76,391.1,4.1,391c3.35.09,6.85-.13,8.71-1.19,2.48-8.16,10.65-16,10.65-16C22.22,368.58,16.78,358.5,13,356Z"/><path class="cls-7" d="M72.91,316.45c-2.1-1.37-5.61-1.86-8.89-2-3.28.1-6.79.59-8.89,2-3.78,2.46-9.22,12.54-10.47,17.81,0,0,8.16,7.81,10.65,16,1.87,1.06,5.37,1.28,8.71,1.19,3.35.09,6.85-.13,8.71-1.19,2.48-8.16,10.65-16,10.65-16C82.14,329,76.7,318.91,72.91,316.45Z"/><path class="cls-7" d="M102.59,335.51c-2.1-1.37-5.61-1.86-8.89-2-3.28.1-6.79.59-8.89,2C81,338,75.59,348.06,74.34,353.32c0,0,8.16,7.81,10.65,16,1.87,1.06,5.37,1.28,8.71,1.19,3.35.09,6.85-.13,8.71-1.19,2.48-8.16,10.65-16,10.65-16C111.81,348.06,106.37,338,102.59,335.51Z"/><path class="cls-7" d="M13.1,317c-2.1-1.37-5.61-1.86-8.89-2-3.28.1-6.79.59-8.89,2-3.78,2.46-9.22,12.54-10.47,17.81,0,0,8.16,7.81,10.65,16,1.87,1.06,5.37,1.28,8.71,1.19,3.35.09,6.85-.13,8.71-1.19,2.48-8.16,10.65-16,10.65-16C22.32,329.58,16.88,319.5,13.1,317Z"/><path class="cls-7" d="M13.1,278.92c-2.1-1.37-5.61-1.86-8.89-2-3.28.1-6.79.59-8.89,2-3.78,2.46-9.22,12.54-10.47,17.81,0,0,8.16,7.81,10.65,16,1.87,1.06,5.37,1.28,8.71,1.19,3.35.09,6.85-.13,8.71-1.19,2.48-8.16,10.65-16,10.65-16C22.32,291.46,16.88,281.38,13.1,278.92Z"/><path class="cls-7" d="M42.77,298c-2.1-1.37-5.61-1.86-8.89-2-3.28.1-6.79.59-8.89,2-3.78,2.46-9.22,12.54-10.47,17.81,0,0,8.16,7.81,10.65,16C27,332.83,30.54,333,33.88,333c3.35.09,6.85-.13,8.71-1.19,2.48-8.16,10.65-16,10.65-16C52,310.52,46.56,300.44,42.77,298Z"/><path class="cls-7" d="M133.29,355.21c-2.1-1.37-5.61-1.86-8.89-2-3.28.1-6.79.59-8.89,2-3.78,2.46-9.22,12.54-10.47,17.81,0,0,8.16,7.81,10.65,16,1.87,1.06,5.37,1.28,8.71,1.19,3.35.09,6.85-.13,8.71-1.19,2.48-8.16,10.65-16,10.65-16C142.51,367.75,137.07,357.67,133.29,355.21Z"/><path class="cls-7" d="M132.47,315.87c-2.1-1.37-5.61-1.86-8.89-2-3.28.1-6.79.59-8.89,2-3.78,2.46-9.22,12.54-10.47,17.81,0,0,8.16,7.81,10.65,16,1.87,1.06,5.37,1.28,8.71,1.19,3.35.09,6.85-.13,8.71-1.19,2.48-8.16,10.65-16,10.65-16C141.7,328.41,136.26,318.33,132.47,315.87Z"/><path class="cls-8" d="M71.48,161.85c-2.1-1.37-5.61-1.86-8.89-2-3.28.1-6.79.59-8.89,2-3.78,2.46-9.22,12.54-10.47,17.81,0,0,8.16,7.81,10.65,16,1.87,1.06,5.37,1.28,8.71,1.19,3.35.09,6.85-.13,8.71-1.19,2.48-8.16,10.65-16,10.65-16C80.71,174.39,75.26,164.31,71.48,161.85Z"/><path class="cls-8" d="M102.79,180.32c-2.1-1.37-5.61-1.86-8.89-2-3.28.1-6.79.59-8.89,2-3.78,2.46-9.22,12.54-10.47,17.81,0,0,8.16,7.81,10.65,16,1.87,1.06,5.37,1.28,8.71,1.19,3.35.09,6.85-.13,8.71-1.19,2.48-8.16,10.65-16,10.65-16C112,192.86,106.58,182.78,102.79,180.32Z"/><path class="cls-8" d="M132.47,161.26c-2.1-1.37-5.61-1.86-8.89-2-3.28.1-6.79.59-8.89,2-3.78,2.46-9.22,12.54-10.47,17.81,0,0,8.16,7.81,10.65,16,1.87,1.06,5.37,1.28,8.71,1.19,3.35.09,6.85-.13,8.71-1.19,2.48-8.16,10.65-16,10.65-16C141.7,173.8,136.26,163.72,132.47,161.26Z"/><path class="cls-8" d="M162.36,181.17c-2.1-1.37-5.61-1.86-8.89-2-3.28.1-6.79.59-8.89,2-3.78,2.46-9.22,12.54-10.47,17.81,0,0,8.16,7.81,10.65,16,1.87,1.06,5.37,1.28,8.71,1.19,3.35.09,6.85-.13,8.71-1.19,2.48-8.16,10.65-16,10.65-16C171.58,193.71,166.14,183.62,162.36,181.17Z"/><path class="cls-8" d="M43,220.24c-2.1-1.37-5.61-1.86-8.89-2-3.28.1-6.79.59-8.89,2-3.78,2.46-9.22,12.54-10.47,17.81,0,0,8.16,7.81,10.65,16,1.87,1.06,5.37,1.28,8.71,1.19,3.35.09,6.85-.13,8.71-1.19,2.48-8.16,10.65-16,10.65-16C52.25,232.79,46.81,222.7,43,220.24Z"/><path class="cls-8" d="M13,201.18c-2.1-1.37-5.61-1.86-8.89-2-3.28.1-6.79.59-8.89,2C-8.57,203.64-14,213.73-15.26,219c0,0,8.16,7.81,10.65,16,1.87,1.06,5.37,1.28,8.71,1.19,3.35.09,6.85-.13,8.71-1.19,2.48-8.16,10.65-16,10.65-16C22.22,213.73,16.78,203.64,13,201.18Z"/><path class="cls-8" d="M72.91,238.72c-2.1-1.37-5.61-1.86-8.89-2-3.28.1-6.79.59-8.89,2-3.78,2.46-9.22,12.54-10.47,17.81,0,0,8.16,7.81,10.65,16,1.87,1.06,5.37,1.28,8.71,1.19,3.35.09,6.85-.13,8.71-1.19,2.48-8.16,10.65-16,10.65-16C82.14,251.26,76.7,241.18,72.91,238.72Z"/><path class="cls-7" d="M13,240.17c-2.1-1.37-5.61-1.86-8.89-2-3.28.1-6.79.59-8.89,2C-8.57,242.63-14,252.71-15.26,258c0,0,8.16,7.81,10.65,16,1.87,1.06,5.37,1.28,8.71,1.19,3.35.09,6.85-.13,8.71-1.19,2.48-8.16,10.65-16,10.65-16C22.22,252.71,16.78,242.63,13,240.17Z"/><path class="cls-7" d="M42.88,258.64c-2.1-1.37-5.61-1.86-8.89-2-3.28.1-6.79.59-8.89,2-3.78,2.46-9.22,12.54-10.47,17.81,0,0,8.16,7.81,10.65,16,1.87,1.06,5.37,1.28,8.71,1.19,3.35.09,6.85-.13,8.71-1.19,2.48-8.16,10.65-16,10.65-16C52.1,271.19,46.66,261.1,42.88,258.64Z"/><path class="cls-8" d="M72.91,200.6c-2.1-1.37-5.61-1.86-8.89-2-3.28.1-6.79.59-8.89,2-3.78,2.46-9.22,12.54-10.47,17.81,0,0,8.16,7.81,10.65,16,1.87,1.06,5.37,1.28,8.71,1.19,3.35.09,6.85-.13,8.71-1.19,2.48-8.16,10.65-16,10.65-16C82.14,213.14,76.7,203.06,72.91,200.6Z"/><path class="cls-8" d="M42.77,181.54c-2.1-1.37-5.61-1.86-8.89-2-3.28.1-6.79.59-8.89,2-3.78,2.46-9.22,12.54-10.47,17.81,0,0,8.16,7.81,10.65,16,1.87,1.06,5.37,1.28,8.71,1.19,3.35.09,6.85-.13,8.71-1.19,2.48-8.16,10.65-16,10.65-16C52,194.08,46.56,184,42.77,181.54Z"/><path class="cls-8" d="M102.59,219.66c-2.1-1.37-5.61-1.86-8.89-2-3.28.1-6.79.59-8.89,2-3.78,2.46-9.22,12.54-10.47,17.81,0,0,8.16,7.81,10.65,16,1.87,1.06,5.37,1.28,8.71,1.19,3.35.09,6.85-.13,8.71-1.19,2.48-8.16,10.65-16,10.65-16C111.81,232.2,106.37,222.12,102.59,219.66Z"/><path class="cls-8" d="M132.47,238.13c-2.1-1.37-5.61-1.86-8.89-2-3.28.1-6.79.59-8.89,2-3.78,2.46-9.22,12.54-10.47,17.81,0,0,8.16,7.81,10.65,16,1.87,1.06,5.37,1.28,8.71,1.19,3.35.09,6.85-.13,8.71-1.19,2.48-8.16,10.65-16,10.65-16C141.7,250.67,136.26,240.59,132.47,238.13Z"/><path class="cls-8" d="M132.47,200c-2.1-1.37-5.61-1.86-8.89-2-3.28.1-6.79.59-8.89,2-3.78,2.46-9.22,12.54-10.47,17.81,0,0,8.16,7.81,10.65,16,1.87,1.06,5.37,1.28,8.71,1.19,3.35.09,6.85-.13,8.71-1.19,2.48-8.16,10.65-16,10.65-16C141.7,212.55,136.26,202.47,132.47,200Z"/><path class="cls-7" d="M191.63,277.7c-2.1-1.37-5.61-1.86-8.89-2-3.28.1-6.79.59-8.89,2-3.78,2.46-9.22,12.54-10.47,17.81,0,0,8.16,7.81,10.65,16,1.87,1.06,5.37,1.28,8.71,1.19,3.35.09,6.85-.13,8.71-1.19,2.48-8.16,10.65-16,10.65-16C200.85,290.25,195.41,280.16,191.63,277.7Z"/><path class="cls-7" d="M221.51,296.18c-2.1-1.37-5.61-1.86-8.89-2-3.28.1-6.79.59-8.89,2-3.78,2.46-9.22,12.54-10.47,17.81,0,0,8.16,7.81,10.65,16,1.87,1.06,5.37,1.28,8.71,1.19,3.35.09,6.85-.13,8.71-1.19,2.48-8.16,10.65-16,10.65-16C230.73,308.72,225.29,298.64,221.51,296.18Z"/><path class="cls-8" d="M221.51,258.06c-2.1-1.37-5.61-1.86-8.89-2-3.28.1-6.79.59-8.89,2-3.78,2.46-9.22,12.54-10.47,17.81,0,0,8.16,7.81,10.65,16,1.87,1.06,5.37,1.28,8.71,1.19,3.35.09,6.85-.13,8.71-1.19,2.48-8.16,10.65-16,10.65-16C230.73,270.6,225.29,260.52,221.51,258.06Z"/><path class="cls-7" d="M163.18,336.1c-2.1-1.37-5.61-1.86-8.89-2-3.28.1-6.79.59-8.89,2-3.78,2.46-9.22,12.54-10.47,17.81,0,0,8.16,7.81,10.65,16,1.87,1.06,5.37,1.28,8.71,1.19,3.35.09,6.85-.13,8.71-1.19,2.48-8.16,10.65-16,10.65-16C172.4,348.64,167,338.56,163.18,336.1Z"/><path class="cls-7" d="M193.06,354.57c-2.1-1.37-5.61-1.86-8.89-2-3.28.1-6.79.59-8.89,2-3.78,2.46-9.22,12.54-10.47,17.81,0,0,8.16,7.81,10.65,16,1.87,1.06,5.37,1.28,8.71,1.19,3.35.09,6.85-.13,8.71-1.19,2.48-8.16,10.65-16,10.65-16C202.28,367.12,196.84,357,193.06,354.57Z"/><path class="cls-7" d="M222.74,374.05c-2.1-1.37-5.61-1.86-8.89-2-3.28.1-6.79.59-8.89,2-3.78,2.46-9.22,12.54-10.47,17.81,0,0,8.16,7.81,10.65,16,1.87,1.06,5.37,1.28,8.71,1.19,3.35.09,6.85-.13,8.71-1.19,2.48-8.16,10.65-16,10.65-16C232,386.59,226.52,376.51,222.74,374.05Z"/><path class="cls-7" d="M193.06,316.45c-2.1-1.37-5.61-1.86-8.89-2-3.28.1-6.79.59-8.89,2-3.78,2.46-9.22,12.54-10.47,17.81,0,0,8.16,7.81,10.65,16,1.87,1.06,5.37,1.28,8.71,1.19,3.35.09,6.85-.13,8.71-1.19,2.48-8.16,10.65-16,10.65-16C202.28,329,196.84,318.91,193.06,316.45Z"/><path class="cls-7" d="M222.74,335.51c-2.1-1.37-5.61-1.86-8.89-2-3.28.1-6.79.59-8.89,2-3.78,2.46-9.22,12.54-10.47,17.81,0,0,8.16,7.81,10.65,16,1.87,1.06,5.37,1.28,8.71,1.19,3.35.09,6.85-.13,8.71-1.19,2.48-8.16,10.65-16,10.65-16C232,348.06,226.52,338,222.74,335.51Z"/><path class="cls-7" d="M13,394.74c-2.1-1.37-5.61-1.86-8.89-2-3.28.1-6.79.59-8.89,2-3.78,2.46-9.22,12.54-10.47,17.81,0,0,8.16,7.81,10.65,16,1.87,1.06,5.37,1.28,8.71,1.19,3.35.09,6.85-.13,8.71-1.19,2.48-8.16,10.65-16,10.65-16C22.22,407.28,16.78,397.2,13,394.74Z"/><path class="cls-7" d="M42.88,413.22c-2.1-1.37-5.61-1.86-8.89-2-3.28.1-6.79.59-8.89,2-3.78,2.46-9.22,12.54-10.47,17.81,0,0,8.16,7.81,10.65,16,1.87,1.06,5.37,1.28,8.71,1.19,3.35.09,6.85-.13,8.71-1.19,2.48-8.16,10.65-16,10.65-16C52.1,425.76,46.66,415.67,42.88,413.22Z"/><path class="cls-7" d="M42.88,375.1c-2.1-1.37-5.61-1.86-8.89-2-3.28.1-6.79.59-8.89,2-3.78,2.46-9.22,12.54-10.47,17.81,0,0,8.16,7.81,10.65,16,1.87,1.06,5.37,1.28,8.71,1.19,3.35.09,6.85-.13,8.71-1.19,2.48-8.16,10.65-16,10.65-16C52.1,387.64,46.66,377.56,42.88,375.1Z"/><path class="cls-7" d="M72.55,394.16c-2.1-1.37-5.61-1.86-8.89-2-3.28.1-6.79.59-8.89,2C51,396.61,45.55,406.7,44.3,412c0,0,8.16,7.81,10.65,16,1.87,1.06,5.37,1.28,8.71,1.19,3.35.09,6.85-.13,8.71-1.19C74.86,419.77,83,412,83,412,81.78,406.7,76.34,396.61,72.55,394.16Z"/><path class="cls-7" d="M102.44,412.63c-2.1-1.37-5.61-1.86-8.89-2-3.28.1-6.79.59-8.89,2-3.78,2.46-9.22,12.54-10.47,17.81,0,0,8.16,7.81,10.65,16,1.87,1.06,5.37,1.28,8.71,1.19,3.35.09,6.85-.13,8.71-1.19,2.48-8.16,10.65-16,10.65-16C111.66,425.17,106.22,415.09,102.44,412.63Z"/><path class="cls-7" d="M102.44,374.51c-2.1-1.37-5.61-1.86-8.89-2-3.28.1-6.79.59-8.89,2-3.78,2.46-9.22,12.54-10.47,17.81,0,0,8.16,7.81,10.65,16,1.87,1.06,5.37,1.28,8.71,1.19,3.35.09,6.85-.13,8.71-1.19,2.48-8.16,10.65-16,10.65-16C111.66,387.05,106.22,377,102.44,374.51Z"/><path class="cls-7" d="M133.14,394.74c-2.1-1.37-5.61-1.86-8.89-2-3.28.1-6.79.59-8.89,2-3.78,2.46-9.22,12.54-10.47,17.81,0,0,8.16,7.81,10.65,16,1.87,1.06,5.37,1.28,8.71,1.19,3.35.09,6.85-.13,8.71-1.19,2.48-8.16,10.65-16,10.65-16C142.36,407.28,136.92,397.2,133.14,394.74Z"/><path class="cls-7" d="M72.3,432.6c-2.1-1.37-5.61-1.86-8.89-2-3.28.1-6.79.59-8.89,2-3.78,2.46-9.22,12.54-10.47,17.81,0,0,8.16,7.81,10.65,16,1.87,1.06,5.37,1.28,8.71,1.19,3.35.09,6.85-.13,8.71-1.19,2.48-8.16,10.65-16,10.65-16C81.52,445.14,76.08,435.06,72.3,432.6Z"/><path class="cls-7" d="M132.88,433.19c-2.1-1.37-5.61-1.86-8.89-2-3.28.1-6.79.59-8.89,2-3.78,2.46-9.22,12.54-10.47,17.81,0,0,8.16,7.81,10.65,16,1.87,1.06,5.37,1.28,8.71,1.19,3.35.09,6.85-.13,8.71-1.19,2.48-8.16,10.65-16,10.65-16C142.11,445.73,136.67,435.65,132.88,433.19Z"/><path class="cls-7" d="M163,413.22c-2.1-1.37-5.61-1.86-8.89-2-3.28.1-6.79.59-8.89,2-3.78,2.46-9.22,12.54-10.47,17.81,0,0,8.16,7.81,10.65,16,1.87,1.06,5.37,1.28,8.71,1.19,3.35.09,6.85-.13,8.71-1.19,2.48-8.16,10.65-16,10.65-16C172.25,425.76,166.81,415.67,163,413.22Z"/><path class="cls-7" d="M163,375.1c-2.1-1.37-5.61-1.86-8.89-2-3.28.1-6.79.59-8.89,2-3.78,2.46-9.22,12.54-10.47,17.81,0,0,8.16,7.81,10.65,16,1.87,1.06,5.37,1.28,8.71,1.19,3.35.09,6.85-.13,8.71-1.19,2.48-8.16,10.65-16,10.65-16C172.25,387.64,166.81,377.56,163,375.1Z"/><path class="cls-7" d="M192.7,394.16c-2.1-1.37-5.61-1.86-8.89-2-3.28.1-6.79.59-8.89,2-3.78,2.46-9.22,12.54-10.47,17.81,0,0,8.16,7.81,10.65,16,1.87,1.06,5.37,1.28,8.71,1.19,3.35.09,6.85-.13,8.71-1.19,2.48-8.16,10.65-16,10.65-16C201.92,406.7,196.48,396.61,192.7,394.16Z"/><path class="cls-7" d="M192.7,432.89c-2.1-1.37-5.61-1.86-8.89-2-3.28.1-6.79.59-8.89,2-3.78,2.46-9.22,12.54-10.47,17.81,0,0,8.16,7.81,10.65,16,1.87,1.06,5.37,1.28,8.71,1.19,3.35.09,6.85-.13,8.71-1.19,2.48-8.16,10.65-16,10.65-16C201.92,445.44,196.48,435.35,192.7,432.89Z"/><path class="cls-7" d="M221.5,413.83c-2.1-1.37-5.61-1.86-8.89-2-3.28.1-6.79.59-8.89,2-3.78,2.46-9.22,12.54-10.47,17.81,0,0,8.16,7.81,10.65,16,1.87,1.06,5.37,1.28,8.71,1.19,3.35.09,6.85-.13,8.71-1.19,2.48-8.16,10.65-16,10.65-16C230.73,426.37,225.29,416.29,221.5,413.83Z"/><path class="cls-8" d="M191.63,161.85c-2.1-1.37-5.61-1.86-8.89-2-3.28.1-6.79.59-8.89,2-3.78,2.46-9.22,12.54-10.47,17.81,0,0,8.16,7.81,10.65,16,1.87,1.06,5.37,1.28,8.71,1.19,3.35.09,6.85-.13,8.71-1.19,2.48-8.16,10.65-16,10.65-16C200.85,174.39,195.41,164.31,191.63,161.85Z"/><path class="cls-8" d="M163.18,220.24c-2.1-1.37-5.61-1.86-8.89-2-3.28.1-6.79.59-8.89,2-3.78,2.46-9.22,12.54-10.47,17.81,0,0,8.16,7.81,10.65,16,1.87,1.06,5.37,1.28,8.71,1.19,3.35.09,6.85-.13,8.71-1.19,2.48-8.16,10.65-16,10.65-16C172.4,232.79,167,222.7,163.18,220.24Z"/><path class="cls-8" d="M193.06,238.72c-2.1-1.37-5.61-1.86-8.89-2-3.28.1-6.79.59-8.89,2-3.78,2.46-9.22,12.54-10.47,17.81,0,0,8.16,7.81,10.65,16,1.87,1.06,5.37,1.28,8.71,1.19,3.35.09,6.85-.13,8.71-1.19,2.48-8.16,10.65-16,10.65-16C202.28,251.26,196.84,241.18,193.06,238.72Z"/><path class="cls-8" d="M193.06,200.6c-2.1-1.37-5.61-1.86-8.89-2-3.28.1-6.79.59-8.89,2-3.78,2.46-9.22,12.54-10.47,17.81,0,0,8.16,7.81,10.65,16,1.87,1.06,5.37,1.28,8.71,1.19,3.35.09,6.85-.13,8.71-1.19,2.48-8.16,10.65-16,10.65-16C202.28,213.14,196.84,203.06,193.06,200.6Z"/><path class="cls-8" d="M222.74,219.66c-2.1-1.37-5.61-1.86-8.89-2-3.28.1-6.79.59-8.89,2-3.78,2.46-9.22,12.54-10.47,17.81,0,0,8.16,7.81,10.65,16,1.87,1.06,5.37,1.28,8.71,1.19,3.35.09,6.85-.13,8.71-1.19,2.48-8.16,10.65-16,10.65-16C232,232.2,226.52,222.12,222.74,219.66Z"/></g></svg>