<svg id="Layer_1" data-name="Layer 1" xmlns="http://www.w3.org/2000/svg" viewBox="0 0 361 416"><defs><style>.cls-1{fill:#a2eeae;}.cls-2{fill:#84e895;}.cls-3{fill:#fafafa;}.cls-4,.cls-5,.cls-6{fill:none;stroke-miterlimit:10;}.cls-4{stroke:#f1f1f1;stroke-width:0.6px;}.cls-5,.cls-6{stroke:#f7f7f7;}.cls-5{stroke-width:0.5px;}.cls-7{fill:#f7f7f7;}</style></defs><title>brisbane</title><path class="cls-1" d="M316.92,403.19c1.27-.74,1.54-2.69.59-4.31Q286.34,343,252.61,285.22q-33.64-57.58-67-112a4.12,4.12,0,0,0-1.9-1.69,2.43,2.43,0,0,0-2.14.09h0c-1.27.74-1.54,2.69-.59,4.31,18.89,36.67,40,75.29,63.4,115.4,23.1,39.51,46.08,76.28,68.44,110.28C314.13,403.15,315.86,403.81,316.92,403.19Z"/><path class="cls-1" d="M45.55,403.19c-1.27-.74-1.54-2.69-.59-4.31Q76.13,343,109.86,285.22q33.64-57.58,67-112a4.12,4.12,0,0,1,1.9-1.69,2.43,2.43,0,0,1,2.14.09h0c1.27.74,1.54,2.69.59,4.31-18.89,36.67-40,75.29-63.4,115.4C94.94,330.81,72,367.58,49.6,401.59,48.34,403.15,46.61,403.81,45.55,403.19Z"/><rect class="cls-2" x="79.84" y="350.87" width="1.22" height="52.55"/><path class="cls-3" d="M14.91,148.76h0s-1.71,0-3.69,0H7.47a14,14,0,0,0,0,11.61h7.46A14.06,14.06,0,0,0,14.91,148.76Z"/><path class="cls-2" d="M14,150.22h0s-1.28,0-2.77,0H8.4a10.53,10.53,0,0,0,0,8.71H14A10.55,10.55,0,0,0,14,150.22Z"/><rect class="cls-1" x="8.53" y="151.34" width="2.58" height="6.45"/><rect class="cls-1" x="11.43" y="151.34" width="2.58" height="6.45"/><path class="cls-3" d="M23.6,116.07h0s-1.71,0-3.69,0H16.17a14,14,0,0,0,0,11.61h7.46A14.06,14.06,0,0,0,23.6,116.07Z"/><path class="cls-2" d="M22.67,117.52h0s-1.28,0-2.77,0H17.1a10.53,10.53,0,0,0,0,8.71h5.6A10.55,10.55,0,0,0,22.67,117.52Z"/><rect class="cls-1" x="17.22" y="118.65" width="2.58" height="6.45"/><rect class="cls-1" x="20.12" y="118.65" width="2.58" height="6.45"/><path class="cls-3" d="M39.1,86.22h0s-1.71,0-3.69,0H31.67a14,14,0,0,0,0,11.61h7.46A14.06,14.06,0,0,0,39.1,86.22Z"/><path class="cls-2" d="M38.17,87.67h0s-1.28,0-2.77,0H32.59a10.53,10.53,0,0,0,0,8.71h5.6A10.55,10.55,0,0,0,38.17,87.67Z"/><rect class="cls-1" x="32.72" y="88.8" width="2.58" height="6.45"/><rect class="cls-1" x="35.62" y="88.8" width="2.58" height="6.45"/><path class="cls-3" d="M58.08,63h0s-1.71,0-3.69,0H50.64a14,14,0,0,0,0,11.61h7.46A14.06,14.06,0,0,0,58.08,63Z"/><path class="cls-2" d="M57.15,64.41h0s-1.28,0-2.77,0H51.57a10.53,10.53,0,0,0,0,8.71h5.6A10.55,10.55,0,0,0,57.15,64.41Z"/><rect class="cls-1" x="51.69" y="65.54" width="2.58" height="6.45"/><rect class="cls-1" x="54.6" y="65.54" width="2.58" height="6.45"/><path class="cls-3" d="M82.31,42.58h0s-1.71,0-3.69,0H74.87a14,14,0,0,0,0,11.61h7.46A14.06,14.06,0,0,0,82.31,42.58Z"/><path class="cls-2" d="M81.38,44h0s-1.28,0-2.77,0H75.8a10.53,10.53,0,0,0,0,8.71h5.6A10.55,10.55,0,0,0,81.38,44Z"/><rect class="cls-1" x="75.92" y="45.16" width="2.58" height="6.45"/><rect class="cls-1" x="78.83" y="45.16" width="2.58" height="6.45"/><path class="cls-3" d="M107.84,27.72h0s-1.71,0-3.69,0H100.4a14,14,0,0,0,0,11.61h7.46A14.06,14.06,0,0,0,107.84,27.72Z"/><path class="cls-2" d="M106.91,29.17h0s-1.28,0-2.77,0h-2.81a10.53,10.53,0,0,0,0,8.71h5.6A10.55,10.55,0,0,0,106.91,29.17Z"/><rect class="cls-1" x="101.45" y="30.3" width="2.58" height="6.45"/><rect class="cls-1" x="104.35" y="30.3" width="2.58" height="6.45"/><path class="cls-3" d="M137.38,17h0s-1.71,0-3.69,0h-3.74a14,14,0,0,0,0,11.61h7.46A14.06,14.06,0,0,0,137.38,17Z"/><path class="cls-2" d="M136.45,18.46h0s-1.28,0-2.77,0h-2.81a10.53,10.53,0,0,0,0,8.71h5.6A10.55,10.55,0,0,0,136.45,18.46Z"/><rect class="cls-1" x="130.99" y="19.58" width="2.58" height="6.45"/><rect class="cls-1" x="133.89" y="19.58" width="2.58" height="6.45"/><path class="cls-3" d="M170.49,12.59h0s-1.71,0-3.69,0h-3.74a14,14,0,0,0,0,11.61h7.46A14.06,14.06,0,0,0,170.49,12.59Z"/><path class="cls-2" d="M169.56,14h0s-1.28,0-2.77,0H164a10.53,10.53,0,0,0,0,8.71h5.6A10.55,10.55,0,0,0,169.56,14Z"/><rect class="cls-1" x="164.1" y="15.17" width="2.58" height="6.45"/><rect class="cls-1" x="167.01" y="15.17" width="2.58" height="6.45"/><path class="cls-3" d="M201,12.59h0s-1.71,0-3.69,0h-3.74a14,14,0,0,0,0,11.61H201A14.06,14.06,0,0,0,201,12.59Z"/><path class="cls-2" d="M200.06,14h0s-1.28,0-2.77,0h-2.81a10.53,10.53,0,0,0,0,8.71h5.6A10.55,10.55,0,0,0,200.06,14Z"/><rect class="cls-1" x="194.61" y="15.17" width="2.58" height="6.45"/><rect class="cls-1" x="197.51" y="15.17" width="2.58" height="6.45"/><path class="cls-3" d="M233.64,18.4h0s-1.71,0-3.69,0H226.2a14,14,0,0,0,0,11.61h7.46A14.06,14.06,0,0,0,233.64,18.4Z"/><path class="cls-2" d="M232.7,19.85h0s-1.28,0-2.77,0h-2.81a10.53,10.53,0,0,0,0,8.71h5.6A10.55,10.55,0,0,0,232.7,19.85Z"/><rect class="cls-1" x="227.25" y="20.98" width="2.58" height="6.45"/><rect class="cls-1" x="230.15" y="20.98" width="2.58" height="6.45"/><path class="cls-3" d="M261.71,28.57h0s-1.71,0-3.69,0h-3.74a14,14,0,0,0,0,11.61h7.46A14.06,14.06,0,0,0,261.71,28.57Z"/><path class="cls-2" d="M260.78,30h0s-1.28,0-2.77,0H255.2a10.53,10.53,0,0,0,0,8.71h5.6A10.55,10.55,0,0,0,260.78,30Z"/><rect class="cls-1" x="255.32" y="31.15" width="2.58" height="6.45"/><rect class="cls-1" x="258.22" y="31.15" width="2.58" height="6.45"/><path class="cls-3" d="M290.63,47.11h0s-1.71,0-3.69,0H283.2a14,14,0,0,0,0,11.61h7.46A14.06,14.06,0,0,0,290.63,47.11Z"/><path class="cls-2" d="M289.7,48.56h0s-1.28,0-2.77,0h-2.81a10.53,10.53,0,0,0,0,8.71h5.6A10.55,10.55,0,0,0,289.7,48.56Z"/><rect class="cls-1" x="284.25" y="49.69" width="2.58" height="6.45"/><rect class="cls-1" x="287.15" y="49.69" width="2.58" height="6.45"/><path class="cls-3" d="M312,66.53h0s-1.71,0-3.69,0h-3.74a14,14,0,0,0,0,11.61H312A14.06,14.06,0,0,0,312,66.53Z"/><path class="cls-2" d="M311,68h0s-1.28,0-2.77,0h-2.81a10.53,10.53,0,0,0,0,8.71H311A10.55,10.55,0,0,0,311,68Z"/><rect class="cls-1" x="305.57" y="69.11" width="2.58" height="6.45"/><rect class="cls-1" x="308.47" y="69.11" width="2.58" height="6.45"/><path class="cls-3" d="M330.44,92.35h0s-1.71,0-3.69,0H323A14,14,0,0,0,323,104h7.46A14.06,14.06,0,0,0,330.44,92.35Z"/><path class="cls-2" d="M329.51,93.8h0s-1.28,0-2.77,0h-2.81a10.53,10.53,0,0,0,0,8.71h5.6A10.55,10.55,0,0,0,329.51,93.8Z"/><rect class="cls-1" x="324.06" y="94.93" width="2.58" height="6.45"/><rect class="cls-1" x="326.96" y="94.93" width="2.58" height="6.45"/><path class="cls-3" d="M344,118.59h0s-1.71,0-3.69,0H336.6a14,14,0,0,0,0,11.61H344A14.06,14.06,0,0,0,344,118.59Z"/><path class="cls-2" d="M343.1,120h0s-1.28,0-2.77,0h-2.81a10.53,10.53,0,0,0,0,8.71h5.6A10.55,10.55,0,0,0,343.1,120Z"/><rect class="cls-1" x="337.65" y="121.17" width="2.58" height="6.45"/><rect class="cls-1" x="340.55" y="121.17" width="2.58" height="6.45"/><path class="cls-3" d="M351.12,146.38h0s-1.71,0-3.69,0h-3.74a14,14,0,0,0,0,11.61h7.46A14.06,14.06,0,0,0,351.12,146.38Z"/><path class="cls-2" d="M350.19,147.83h0s-1.28,0-2.77,0h-2.81a10.53,10.53,0,0,0,0,8.71h5.6A10.55,10.55,0,0,0,350.19,147.83Z"/><rect class="cls-1" x="344.73" y="148.96" width="2.58" height="6.45"/><rect class="cls-1" x="347.64" y="148.96" width="2.58" height="6.45"/><path class="cls-3" d="M353.94,176.77h0s-1.71,0-3.69,0H346.5a14,14,0,0,0,0,11.61h7.46A14.06,14.06,0,0,0,353.94,176.77Z"/><path class="cls-2" d="M353,178.22h0s-1.28,0-2.77,0h-2.81a10.53,10.53,0,0,0,0,8.71H353A10.55,10.55,0,0,0,353,178.22Z"/><rect class="cls-1" x="347.55" y="179.35" width="2.58" height="6.45"/><rect class="cls-1" x="350.45" y="179.35" width="2.58" height="6.45"/><path class="cls-3" d="M350.21,209.57h0s-1.71,0-3.69,0h-3.74a14,14,0,0,0,0,11.61h7.46A14.06,14.06,0,0,0,350.21,209.57Z"/><path class="cls-2" d="M349.28,211h0s-1.28,0-2.77,0H343.7a10.53,10.53,0,0,0,0,8.71h5.6A10.55,10.55,0,0,0,349.28,211Z"/><rect class="cls-1" x="343.83" y="212.15" width="2.58" height="6.45"/><rect class="cls-1" x="346.73" y="212.15" width="2.58" height="6.45"/><path class="cls-3" d="M339.46,239.26h0s-1.71,0-3.69,0H332a14,14,0,0,0,0,11.61h7.46A14.06,14.06,0,0,0,339.46,239.26Z"/><path class="cls-2" d="M338.53,240.71h0s-1.28,0-2.77,0H333a10.53,10.53,0,0,0,0,8.71h5.6A10.55,10.55,0,0,0,338.53,240.71Z"/><rect class="cls-1" x="333.08" y="241.84" width="2.58" height="6.45"/><rect class="cls-1" x="335.98" y="241.84" width="2.58" height="6.45"/><path class="cls-3" d="M324.57,266h0s-1.71,0-3.69,0h-3.74a14,14,0,0,0,0,11.61h7.46A14.06,14.06,0,0,0,324.57,266Z"/><path class="cls-2" d="M323.64,267.46h0s-1.28,0-2.77,0h-2.81a10.53,10.53,0,0,0,0,8.71h5.6A10.55,10.55,0,0,0,323.64,267.46Z"/><rect class="cls-1" x="318.18" y="268.59" width="2.58" height="6.45"/><rect class="cls-1" x="321.08" y="268.59" width="2.58" height="6.45"/><path class="cls-3" d="M300.09,293.39h0s-1.71,0-3.69,0h-3.74a14,14,0,0,0,0,11.61h7.46A14.06,14.06,0,0,0,300.09,293.39Z"/><path class="cls-2" d="M299.16,294.84h0s-1.28,0-2.77,0h-2.81a10.53,10.53,0,0,0,0,8.71h5.6A10.55,10.55,0,0,0,299.16,294.84Z"/><rect class="cls-1" x="293.7" y="295.97" width="2.58" height="6.45"/><rect class="cls-1" x="296.61" y="295.97" width="2.58" height="6.45"/><path class="cls-3" d="M269.77,315h0s-1.71,0-3.69,0h-3.74a14,14,0,0,0,0,11.61h7.46A14.06,14.06,0,0,0,269.77,315Z"/><path class="cls-2" d="M268.83,316.48h0s-1.28,0-2.77,0h-2.81a10.53,10.53,0,0,0,0,8.71h5.6A10.55,10.55,0,0,0,268.83,316.48Z"/><rect class="cls-1" x="263.38" y="317.61" width="2.58" height="6.45"/><rect class="cls-1" x="266.28" y="317.61" width="2.58" height="6.45"/><path class="cls-3" d="M238.95,328.74h0s-1.71,0-3.69,0h-3.74a14,14,0,0,0,0,11.61H239A14.06,14.06,0,0,0,238.95,328.74Z"/><path class="cls-2" d="M238,330.19h0s-1.28,0-2.77,0h-2.81a10.53,10.53,0,0,0,0,8.71H238A10.55,10.55,0,0,0,238,330.19Z"/><rect class="cls-1" x="232.56" y="331.32" width="2.58" height="6.45"/><rect class="cls-1" x="235.46" y="331.32" width="2.58" height="6.45"/><path class="cls-3" d="M204.52,336.12h0s-1.71,0-3.69,0h-3.74a14,14,0,0,0,0,11.61h7.46A14.06,14.06,0,0,0,204.52,336.12Z"/><path class="cls-2" d="M203.59,337.57h0s-1.28,0-2.77,0H198a10.53,10.53,0,0,0,0,8.71h5.6A10.55,10.55,0,0,0,203.59,337.57Z"/><rect class="cls-1" x="198.13" y="338.7" width="2.58" height="6.45"/><rect class="cls-1" x="201.04" y="338.7" width="2.58" height="6.45"/><path class="cls-3" d="M167.63,336.81h0s-1.71,0-3.69,0H160.2a14,14,0,0,0,0,11.61h7.46A14.06,14.06,0,0,0,167.63,336.81Z"/><path class="cls-2" d="M166.7,338.26h0s-1.28,0-2.77,0h-2.81a10.53,10.53,0,0,0,0,8.71h5.6A10.55,10.55,0,0,0,166.7,338.26Z"/><rect class="cls-1" x="161.25" y="339.39" width="2.58" height="6.45"/><rect class="cls-1" x="164.15" y="339.39" width="2.58" height="6.45"/><path class="cls-3" d="M135.76,330.32h0s-1.71,0-3.69,0h-3.74a14,14,0,0,0,0,11.61h7.46A14.06,14.06,0,0,0,135.76,330.32Z"/><path class="cls-2" d="M134.83,331.78h0s-1.28,0-2.77,0h-2.81a10.53,10.53,0,0,0,0,8.71h5.6A10.55,10.55,0,0,0,134.83,331.78Z"/><rect class="cls-1" x="129.38" y="332.9" width="2.58" height="6.45"/><rect class="cls-1" x="132.28" y="332.9" width="2.58" height="6.45"/><path class="cls-3" d="M102.3,315.28h0s-1.71,0-3.69,0H94.86a14,14,0,0,0,0,11.61h7.46A14.06,14.06,0,0,0,102.3,315.28Z"/><path class="cls-2" d="M101.37,316.74h0s-1.28,0-2.77,0H95.79a10.53,10.53,0,0,0,0,8.71h5.6A10.55,10.55,0,0,0,101.37,316.74Z"/><rect class="cls-1" x="95.92" y="317.86" width="2.58" height="6.45"/><rect class="cls-1" x="98.82" y="317.86" width="2.58" height="6.45"/><path class="cls-3" d="M72.15,297.83h0s-1.71,0-3.69,0H64.71a14,14,0,0,0,0,11.61h7.46A14.06,14.06,0,0,0,72.15,297.83Z"/><path class="cls-2" d="M71.22,299.28h0s-1.28,0-2.77,0H65.64a10.53,10.53,0,0,0,0,8.71h5.6A10.55,10.55,0,0,0,71.22,299.28Z"/><rect class="cls-1" x="65.76" y="300.41" width="2.58" height="6.45"/><rect class="cls-1" x="68.67" y="300.41" width="2.58" height="6.45"/><path class="cls-3" d="M48.87,274.68h0s-1.71,0-3.69,0H41.43a14,14,0,0,0,0,11.61h7.46A14.06,14.06,0,0,0,48.87,274.68Z"/><path class="cls-2" d="M47.94,276.13h0s-1.28,0-2.77,0H42.36a10.53,10.53,0,0,0,0,8.71h5.6A10.55,10.55,0,0,0,47.94,276.13Z"/><rect class="cls-1" x="42.48" y="277.26" width="2.58" height="6.45"/><rect class="cls-1" x="45.38" y="277.26" width="2.58" height="6.45"/><path class="cls-3" d="M27.75,242.16h0s-1.71,0-3.69,0H20.31a14,14,0,0,0,0,11.61h7.46A14.06,14.06,0,0,0,27.75,242.16Z"/><path class="cls-2" d="M26.82,243.61h0s-1.28,0-2.77,0H21.24a10.53,10.53,0,0,0,0,8.71h5.6A10.55,10.55,0,0,0,26.82,243.61Z"/><rect class="cls-1" x="21.36" y="244.74" width="2.58" height="6.45"/><rect class="cls-1" x="24.27" y="244.74" width="2.58" height="6.45"/><line class="cls-4" x1="13.58" y1="168.98" x2="345.68" y2="170.15"/><line class="cls-4" x1="181.09" y1="13.04" x2="181.09" y2="336.69"/><line class="cls-4" x1="40.11" y1="87.64" x2="324.71" y2="253.3"/><line class="cls-4" x1="259.79" y1="32.94" x2="96.9" y2="315.08"/><line class="cls-4" x1="21.91" y1="125.81" x2="340.31" y2="212.99"/><line class="cls-4" x1="221.92" y1="17.86" x2="137.27" y2="331.39"/><line class="cls-4" x1="67.87" y1="56.18" x2="297.41" y2="287.36"/><line class="cls-4" x1="100.48" y1="32.95" x2="265.29" y2="313.49"/><line class="cls-4" x1="139.39" y1="19.19" x2="225.31" y2="330.48"/><line class="cls-4" x1="293.8" y1="56.84" x2="61.76" y2="288.88"/><line class="cls-4" x1="320.45" y1="89.12" x2="35.59" y2="255.52"/><line class="cls-4" x1="339.01" y1="126.97" x2="17.62" y2="214.84"/><ellipse class="cls-5" cx="179.57" cy="174.83" rx="134.42" ry="131.04"/><ellipse class="cls-5" cx="179.57" cy="174.83" rx="95.95" ry="93.53"/><ellipse class="cls-5" cx="179.57" cy="174.83" rx="58.84" ry="57.35"/><ellipse class="cls-6" cx="179.57" cy="174.83" rx="166.05" ry="161.86"/><circle class="cls-7" cx="180.45" cy="170.15" r="12.43"/><path class="cls-3" d="M17.17,213.56h0s-1.71,0-3.69,0H9.73a14,14,0,0,0,0,11.61h7.46A14.06,14.06,0,0,0,17.17,213.56Z"/><path class="cls-2" d="M16.24,215h0s-1.28,0-2.77,0H10.66a10.53,10.53,0,0,0,0,8.71h5.6A10.55,10.55,0,0,0,16.24,215Z"/><rect class="cls-1" x="10.79" y="216.13" width="2.58" height="6.45"/><rect class="cls-1" x="13.69" y="216.13" width="2.58" height="6.45"/><path class="cls-3" d="M13.5,180.47h0s-1.71,0-3.69,0H6.07a14,14,0,0,0,0,11.61h7.46A14.06,14.06,0,0,0,13.5,180.47Z"/><path class="cls-2" d="M12.57,181.92h0s-1.28,0-2.77,0H7a10.53,10.53,0,0,0,0,8.71h5.6A10.55,10.55,0,0,0,12.57,181.92Z"/><rect class="cls-1" x="7.12" y="183.05" width="2.58" height="6.45"/><rect class="cls-1" x="10.02" y="183.05" width="2.58" height="6.45"/><rect class="cls-3" x="136.58" y="336.69" width="88.3" height="66.73"/><rect class="cls-3" x="85.46" y="357.23" width="190.54" height="46.19"/><path class="cls-7" d="M61.53,344.84s117.21-52.54,237.29,0c-.81,2.27-1.31,2.27-1.31,2.27s-100-51.29-236,.48Z"/><path class="cls-2" d="M199.49,351.42s40.28-21,81.41,0c-.28.91-.52.91-.52.91s-34.29-20.54-80.89.19Z"/><path class="cls-2" d="M78.55,351.42s40.28-21,81.41,0c-.28.91-.52.91-.52.91s-34.29-20.54-80.89.19Z"/><path class="cls-2" d="M119.19,342.06s61.33-27.4,123.94,0c-.42,1.18-.79,1.18-.79,1.18s-52.21-26.75-123.16.25Z"/><rect class="cls-2" x="157.42" y="350.87" width="1.22" height="52.55"/><rect class="cls-2" x="201.23" y="350.87" width="1.22" height="52.55"/><rect class="cls-2" x="278.36" y="350.87" width="1.22" height="52.55"/></svg>