<svg id="Layer_1" data-name="Layer 1" xmlns="http://www.w3.org/2000/svg" viewBox="0 0 460 460"><defs><style>.cls-1{fill:#1a1a1a;}.cls-2{fill:#eb7675;}.cls-3{fill:#a74040;}.cls-4{fill:#da0100;}.cls-5{fill:#ea8888;}.cls-6{fill:#992121;}.cls-7{fill:#4d4d4d;}.cls-8{fill:#787878;}.cls-9{fill:#f3abab;}</style></defs><title>brisbane</title><rect class="cls-1" x="191.29" y="201.89" width="76.39" height="134.03"/><rect x="228.03" y="247.81" width="3.96" height="85.88"/><rect class="cls-2" x="171.18" y="178.55" width="117.49" height="8.05"/><rect class="cls-3" x="171.18" y="174.22" width="117.49" height="4.33"/><path class="cls-4" d="M251.72,149.82a33.18,33.18,0,0,0-43.42,0h-5.82l3.29,6v19.57h48.49V155.81l3.29-6Z"/><rect class="cls-4" x="171.18" y="158.21" width="117.49" height="17.17"/><polygon class="cls-3" points="103.9 124.08 183.8 162.09 24 162.09 103.9 124.08"/><polygon class="cls-2" points="103.9 126.18 180.13 162.44 27.68 162.44 103.9 126.18"/><polygon class="cls-3" points="103.9 132.43 167.69 162.78 40.12 162.78 103.9 132.43"/><rect class="cls-3" x="58.55" y="156.93" width="90.7" height="166.35"/><rect x="191.82" y="244.93" width="76.39" height="5.77"/><path class="cls-3" d="M288.7,186.59v147.1H267.55V247.8a37.53,37.53,0,1,0-75.07,0v85.89H171.32V186.59Z"/><path class="cls-2" d="M261,214.79a43.88,43.88,0,0,0-74.95,31v87.89h6.39V247.8a37.53,37.53,0,0,1,75.07,0v85.89h6.39V245.81A43.78,43.78,0,0,0,261,214.79Z"/><rect class="cls-5" x="171.32" y="323.27" width="21.15" height="12.65"/><rect class="cls-5" x="267.52" y="323.27" width="21.15" height="12.65"/><rect class="cls-2" x="171.32" y="243.54" width="14.76" height="7.78"/><rect class="cls-2" x="273.94" y="314.8" width="14.76" height="8.47"/><rect class="cls-2" x="273.94" y="300.57" width="14.76" height="7.78"/><rect class="cls-2" x="273.94" y="286.31" width="14.76" height="7.78"/><rect class="cls-2" x="273.94" y="272.05" width="14.76" height="7.78"/><rect class="cls-2" x="273.94" y="257.79" width="14.76" height="7.78"/><rect class="cls-2" x="273.94" y="243.54" width="14.76" height="7.78"/><rect class="cls-2" x="226.12" y="192.15" width="7.78" height="13.23"/><rect class="cls-2" x="240.57" y="199.61" width="7.78" height="8.61" transform="translate(88.62 -73.68) rotate(20.86)"/><rect class="cls-2" x="255.1" y="207.41" width="7.78" height="8.61" transform="translate(207.79 -118.86) rotate(41.93)"/><rect class="cls-2" x="264.98" y="220.05" width="7.78" height="8.61" transform="translate(300.67 -124.37) rotate(55.37)"/><rect class="cls-2" x="270.21" y="235.86" width="7.78" height="8.61" transform="translate(484.04 -57.72) rotate(83.95)"/><rect class="cls-2" x="211.4" y="199.61" width="7.78" height="8.61" transform="translate(489.08 317.82) rotate(159.14)"/><rect class="cls-2" x="196.87" y="207.41" width="7.78" height="8.61" transform="translate(491.59 235.07) rotate(138.07)"/><rect class="cls-2" x="186.99" y="220.05" width="7.78" height="8.61" transform="translate(483.97 194.8) rotate(124.63)"/><rect class="cls-2" x="181.76" y="235.86" width="7.78" height="8.61" transform="translate(444.05 80.87) rotate(96.05)"/><rect class="cls-6" x="148.23" y="175.07" width="2.11" height="148.2"/><rect class="cls-2" x="171.32" y="190.49" width="117.38" height="1.66"/><rect class="cls-3" x="149.25" y="175.07" width="22.08" height="149.24"/><rect class="cls-2" x="171.32" y="314.8" width="14.76" height="8.47"/><rect class="cls-4" x="149.25" y="314.8" width="22.08" height="9.5"/><rect class="cls-2" x="171.32" y="300.57" width="14.76" height="7.78"/><rect class="cls-2" x="171.32" y="286.31" width="14.76" height="7.78"/><rect class="cls-2" x="171.32" y="272.05" width="14.76" height="7.78"/><rect class="cls-2" x="171.32" y="257.79" width="14.76" height="7.78"/><rect class="cls-2" x="149.25" y="314.8" width="19.96" height="8.47"/><rect class="cls-2" x="149.25" y="300.57" width="19.96" height="7.78"/><rect class="cls-2" x="149.25" y="286.31" width="19.96" height="7.78"/><rect class="cls-2" x="149.25" y="272.05" width="19.96" height="7.78"/><rect class="cls-2" x="149.25" y="257.79" width="19.96" height="7.78"/><rect class="cls-2" x="149.25" y="238.59" width="22.08" height="7.78"/><rect class="cls-2" x="58.55" y="314.8" width="90.7" height="8.47"/><rect class="cls-2" x="58.55" y="300.57" width="90.7" height="7.78"/><rect class="cls-2" x="58.55" y="286.31" width="90.7" height="7.78"/><rect class="cls-2" x="58.55" y="272.05" width="90.7" height="7.78"/><rect class="cls-2" x="58.55" y="257.79" width="90.7" height="7.78"/><rect class="cls-2" x="58.55" y="238.59" width="93.33" height="7.78"/><rect class="cls-2" x="149.25" y="224.33" width="22.08" height="7.78"/><rect class="cls-2" x="149.25" y="210.07" width="22.08" height="7.78"/><rect class="cls-2" x="149.25" y="195.81" width="22.08" height="7.78"/><rect class="cls-2" x="149.25" y="181.55" width="22.08" height="7.78"/><rect class="cls-2" x="142.5" y="164.03" width="35.56" height="3.89"/><rect class="cls-7" x="139.2" y="162.09" width="42.16" height="1.94"/><polygon class="cls-2" points="171.32 175.07 149.25 175.07 142.5 167.92 178.06 167.92 171.32 175.07"/><rect class="cls-5" x="55.45" y="323.27" width="113.76" height="12.65"/><rect class="cls-6" x="169.21" y="175.07" width="2.11" height="160.85"/><rect class="cls-3" x="36.48" y="175.07" width="22.08" height="149.24"/><rect class="cls-2" x="36.48" y="314.8" width="19.96" height="8.47"/><rect class="cls-5" x="31.66" y="328.76" width="24.77" height="7.16"/><polygon class="cls-5" points="56.44 328.81 31.66 328.81 36.48 323.27 56.44 323.27 56.44 328.81"/><rect class="cls-2" x="36.48" y="300.57" width="19.96" height="7.78"/><rect class="cls-2" x="36.48" y="286.31" width="19.96" height="7.78"/><rect class="cls-2" x="36.48" y="272.05" width="19.96" height="7.78"/><rect class="cls-2" x="36.48" y="257.79" width="19.96" height="7.78"/><rect class="cls-2" x="36.48" y="238.59" width="22.08" height="7.78"/><rect class="cls-2" x="36.48" y="224.33" width="22.08" height="7.78"/><rect class="cls-2" x="36.48" y="210.07" width="22.08" height="7.78"/><rect class="cls-2" x="36.48" y="195.81" width="22.08" height="7.78"/><rect class="cls-2" x="36.48" y="181.55" width="22.08" height="7.78"/><rect class="cls-2" x="29.73" y="164.03" width="35.56" height="3.89"/><rect class="cls-2" x="26.43" y="162.09" width="42.16" height="1.94"/><polygon class="cls-2" points="58.55 175.07 36.48 175.07 29.73 167.92 65.29 167.92 58.55 175.07"/><rect class="cls-6" x="56.44" y="175.07" width="2.11" height="148.2"/><rect class="cls-8" x="56.44" y="323.27" width="2.11" height="12.65"/><rect class="cls-7" x="56.44" y="314.8" width="2.11" height="8.47"/><rect class="cls-7" x="56.44" y="300.57" width="2.11" height="7.78"/><rect class="cls-7" x="56.44" y="286.31" width="2.11" height="7.78"/><rect class="cls-7" x="56.44" y="272.05" width="2.11" height="7.78"/><rect class="cls-7" x="56.44" y="257.79" width="2.11" height="7.78"/><rect class="cls-7" x="56.44" y="238.59" width="2.11" height="7.78"/><rect class="cls-6" x="89.61" y="271.71" width="1.23" height="33.46"/><rect class="cls-6" x="108.91" y="271.71" width="1.23" height="33.46"/><rect class="cls-6" x="124.49" y="271.71" width="1.23" height="33.46"/><rect class="cls-2" x="82.49" y="271.71" width="7.91" height="33.7"/><rect class="cls-2" x="117.53" y="271.71" width="7.87" height="33.7"/><rect class="cls-2" x="94.77" y="271.71" width="15.08" height="33.7"/><rect class="cls-6" x="82.21" y="271.71" width="1.23" height="33.46"/><rect class="cls-6" x="82.49" y="302.49" width="7.91" height="2.68"/><rect class="cls-6" x="94.16" y="271.71" width="1.23" height="33.46"/><rect class="cls-6" x="94.43" y="302.49" width="15.42" height="2.68"/><rect class="cls-6" x="117.21" y="271.71" width="1.23" height="33.46"/><rect class="cls-6" x="117.49" y="302.49" width="7.91" height="2.68"/><rect class="cls-6" x="83.11" y="283.03" width="7.29" height="0.65"/><rect class="cls-6" x="118.1" y="283.03" width="7.29" height="0.65"/><rect class="cls-6" x="94.77" y="283.03" width="15.08" height="0.65"/><rect class="cls-6" x="86.93" y="287.12" width="31.42" height="0.65" transform="translate(390.07 184.81) rotate(90)"/><rect class="cls-9" x="67.14" y="269.98" width="62.24" height="2.07"/><rect class="cls-9" x="126.58" y="271.73" width="1.95" height="20.6"/><rect class="cls-9" x="76.02" y="271.73" width="1.95" height="20.6"/><polygon class="cls-7" points="134.08 254.85 71.84 254.85 67.14 269.98 129.37 269.98 134.08 254.85"/><polygon class="cls-4" points="96.68 254.85 83.98 254.85 79.28 269.98 91.97 269.98 96.68 254.85"/><polygon class="cls-4" points="121.31 254.85 108.61 254.85 103.9 269.98 116.6 269.98 121.31 254.85"/><rect class="cls-8" x="77.66" y="305.17" width="52.48" height="3.18"/><rect class="cls-6" x="89.61" y="194.02" width="1.23" height="33.46"/><rect class="cls-6" x="108.91" y="194.02" width="1.23" height="33.46"/><rect class="cls-6" x="124.49" y="194.02" width="1.23" height="33.46"/><rect class="cls-2" x="82.49" y="194.02" width="7.91" height="33.7"/><rect class="cls-2" x="117.53" y="194.02" width="7.87" height="33.7"/><rect class="cls-2" x="94.77" y="194.02" width="15.08" height="33.7"/><rect class="cls-6" x="82.21" y="194.02" width="1.23" height="33.46"/><rect class="cls-6" x="82.49" y="224.8" width="7.91" height="2.68"/><rect class="cls-6" x="94.16" y="194.02" width="1.23" height="33.46"/><rect class="cls-6" x="94.43" y="224.8" width="15.42" height="2.68"/><rect class="cls-6" x="117.21" y="194.02" width="1.23" height="33.46"/><rect class="cls-6" x="117.49" y="224.8" width="7.91" height="2.68"/><rect class="cls-6" x="83.11" y="205.34" width="7.29" height="0.65"/><rect class="cls-6" x="118.1" y="205.34" width="7.29" height="0.65"/><rect class="cls-6" x="94.77" y="205.34" width="15.08" height="0.65"/><rect class="cls-6" x="86.93" y="209.42" width="31.42" height="0.65" transform="translate(312.38 107.11) rotate(90)"/><rect class="cls-9" x="67.14" y="192.29" width="62.24" height="2.07"/><rect class="cls-9" x="126.58" y="194.04" width="1.95" height="20.6"/><rect class="cls-9" x="76.02" y="194.04" width="1.95" height="20.6"/><polygon class="cls-7" points="134.08 177.16 71.84 177.16 67.14 192.29 129.37 192.29 134.08 177.16"/><polygon class="cls-4" points="96.68 177.16 83.98 177.16 79.28 192.29 91.97 192.29 96.68 177.16"/><polygon class="cls-4" points="121.31 177.16 108.61 177.16 103.9 192.29 116.6 192.29 121.31 177.16"/><rect class="cls-8" x="77.66" y="227.48" width="52.48" height="3.18"/><polygon class="cls-7" points="171.32 251.31 169.21 246.36 169.21 238.59 171.32 243.53 171.32 251.31"/><polygon class="cls-7" points="171.32 237.05 169.21 232.1 169.21 224.33 171.32 229.28 171.32 237.05"/><polygon class="cls-7" points="171.32 222.79 169.21 217.85 169.21 210.07 171.32 215.02 171.32 222.79"/><polygon class="cls-7" points="171.32 208.54 169.21 203.59 169.21 195.81 171.32 200.76 171.32 208.54"/><polygon class="cls-7" points="171.32 194.28 169.21 189.33 169.21 181.55 171.32 186.5 171.32 194.28"/><circle class="cls-7" cx="103.9" cy="149.32" r="11.73"/><circle class="cls-3" cx="103.9" cy="149.32" r="7.37"/><rect class="cls-7" x="169.21" y="314.8" width="2.11" height="8.47" transform="translate(340.53 638.07) rotate(180)"/><rect class="cls-7" x="169.21" y="300.57" width="2.11" height="7.78" transform="translate(340.53 608.92) rotate(180)"/><rect class="cls-7" x="169.21" y="286.31" width="2.11" height="7.78" transform="translate(340.53 580.4) rotate(180)"/><rect class="cls-7" x="169.21" y="272.05" width="2.11" height="7.78" transform="translate(340.53 551.88) rotate(180)"/><rect class="cls-7" x="169.21" y="257.79" width="2.11" height="7.78" transform="translate(340.53 523.37) rotate(180)"/><polygon class="cls-3" points="356.1 124.08 276.2 162.09 436 162.09 356.1 124.08"/><polygon class="cls-2" points="356.1 126.18 279.87 162.44 432.32 162.44 356.1 126.18"/><polygon class="cls-3" points="356.1 132.43 292.31 162.78 419.88 162.78 356.1 132.43"/><rect class="cls-3" x="310.75" y="156.93" width="90.7" height="166.35" transform="translate(712.2 480.2) rotate(-180)"/><rect class="cls-6" x="309.65" y="175.07" width="2.11" height="148.2"/><rect class="cls-3" x="288.68" y="175.07" width="22.08" height="149.24" transform="translate(599.43 499.38) rotate(-180)"/><rect class="cls-4" x="288.68" y="314.8" width="22.08" height="9.5" transform="translate(599.43 639.11) rotate(-180)"/><rect class="cls-2" x="290.79" y="314.8" width="19.96" height="8.47" transform="translate(601.54 638.07) rotate(-180)"/><rect class="cls-2" x="290.79" y="300.57" width="19.96" height="7.78" transform="translate(601.54 608.92) rotate(-180)"/><rect class="cls-2" x="290.79" y="286.31" width="19.96" height="7.78" transform="translate(601.54 580.4) rotate(-180)"/><rect class="cls-2" x="290.79" y="272.05" width="19.96" height="7.78" transform="translate(601.54 551.88) rotate(-180)"/><rect class="cls-2" x="290.79" y="257.79" width="19.96" height="7.78" transform="translate(601.54 523.37) rotate(-180)"/><rect class="cls-2" x="288.68" y="238.59" width="22.08" height="7.78" transform="translate(599.43 484.95) rotate(-180)"/><rect class="cls-2" x="310.75" y="314.8" width="90.7" height="8.47" transform="translate(712.2 638.07) rotate(-180)"/><rect class="cls-2" x="310.75" y="300.57" width="90.7" height="7.78" transform="translate(712.2 608.92) rotate(-180)"/><rect class="cls-2" x="310.75" y="286.31" width="90.7" height="7.78" transform="translate(712.2 580.4) rotate(-180)"/><rect class="cls-2" x="310.75" y="272.05" width="90.7" height="7.78" transform="translate(712.2 551.88) rotate(-180)"/><rect class="cls-2" x="310.75" y="257.79" width="90.7" height="7.78" transform="translate(712.2 523.37) rotate(-180)"/><rect class="cls-2" x="308.12" y="238.59" width="93.33" height="7.78" transform="translate(709.57 484.95) rotate(-180)"/><rect class="cls-2" x="288.68" y="224.33" width="22.08" height="7.78" transform="translate(599.43 456.43) rotate(-180)"/><rect class="cls-2" x="288.68" y="210.07" width="22.08" height="7.78" transform="translate(599.43 427.92) rotate(-180)"/><rect class="cls-2" x="288.68" y="195.81" width="22.08" height="7.78" transform="translate(599.43 399.4) rotate(-180)"/><rect class="cls-2" x="288.68" y="181.55" width="22.08" height="7.78" transform="translate(599.43 370.88) rotate(-180)"/><rect class="cls-2" x="281.94" y="164.03" width="35.56" height="3.89" transform="translate(599.43 331.95) rotate(-180)"/><rect class="cls-7" x="278.64" y="162.09" width="42.16" height="1.94" transform="translate(599.43 326.12) rotate(-180)"/><polygon class="cls-2" points="288.68 175.07 310.75 175.07 317.5 167.92 281.94 167.92 288.68 175.07"/><rect class="cls-5" x="290.79" y="323.27" width="113.76" height="12.65"/><rect class="cls-6" x="288.68" y="175.07" width="2.11" height="160.85"/><rect class="cls-3" x="401.45" y="175.07" width="22.08" height="149.24" transform="translate(824.97 499.38) rotate(-180)"/><rect class="cls-2" x="403.56" y="314.8" width="19.96" height="8.47" transform="translate(827.09 638.07) rotate(-180)"/><rect class="cls-5" x="403.56" y="328.76" width="24.77" height="7.16" transform="translate(831.9 664.69) rotate(-180)"/><polygon class="cls-5" points="403.56 328.81 428.34 328.81 423.52 323.27 403.56 323.27 403.56 328.81"/><rect class="cls-2" x="403.56" y="300.57" width="19.96" height="7.78" transform="translate(827.09 608.92) rotate(-180)"/><rect class="cls-2" x="403.56" y="286.31" width="19.96" height="7.78" transform="translate(827.09 580.4) rotate(-180)"/><rect class="cls-2" x="403.56" y="272.05" width="19.96" height="7.78" transform="translate(827.09 551.88) rotate(-180)"/><rect class="cls-2" x="403.56" y="257.79" width="19.96" height="7.78" transform="translate(827.09 523.37) rotate(-180)"/><rect class="cls-2" x="401.45" y="238.59" width="22.08" height="7.78" transform="translate(824.97 484.95) rotate(-180)"/><rect class="cls-2" x="401.45" y="224.33" width="22.08" height="7.78" transform="translate(824.97 456.43) rotate(-180)"/><rect class="cls-2" x="401.45" y="210.07" width="22.08" height="7.78" transform="translate(824.97 427.92) rotate(-180)"/><rect class="cls-2" x="401.45" y="195.81" width="22.08" height="7.78" transform="translate(824.97 399.4) rotate(-180)"/><rect class="cls-2" x="401.45" y="181.55" width="22.08" height="7.78" transform="translate(824.97 370.88) rotate(-180)"/><rect class="cls-2" x="394.71" y="164.03" width="35.56" height="3.89" transform="translate(824.98 331.95) rotate(-180)"/><rect class="cls-7" x="391.41" y="162.09" width="42.16" height="1.94" transform="translate(824.98 326.12) rotate(-180)"/><polygon class="cls-2" points="401.45 175.07 423.52 175.07 430.27 167.92 394.71 167.92 401.45 175.07"/><rect class="cls-6" x="401.45" y="175.07" width="2.11" height="148.2"/><rect class="cls-8" x="401.45" y="323.27" width="2.11" height="12.65"/><rect class="cls-7" x="401.45" y="314.8" width="2.11" height="8.47" transform="translate(805.01 638.07) rotate(-180)"/><rect class="cls-7" x="401.45" y="300.57" width="2.11" height="7.78" transform="translate(805.01 608.92) rotate(-180)"/><rect class="cls-7" x="401.45" y="286.31" width="2.11" height="7.78" transform="translate(805.01 580.4) rotate(-180)"/><rect class="cls-7" x="401.45" y="272.05" width="2.11" height="7.78" transform="translate(805.01 551.88) rotate(-180)"/><rect class="cls-7" x="401.45" y="257.79" width="2.11" height="7.78" transform="translate(805.01 523.37) rotate(-180)"/><rect class="cls-7" x="401.45" y="238.59" width="2.11" height="7.78" transform="translate(805.01 484.95) rotate(-180)"/><polygon class="cls-7" points="288.68 251.31 290.79 246.36 290.79 238.59 288.68 243.53 288.68 251.31"/><polygon class="cls-7" points="288.68 237.05 290.79 232.1 290.79 224.33 288.68 229.28 288.68 237.05"/><polygon class="cls-7" points="288.68 222.79 290.79 217.85 290.79 210.07 288.68 215.02 288.68 222.79"/><polygon class="cls-7" points="288.68 208.54 290.79 203.59 290.79 195.81 288.68 200.76 288.68 208.54"/><polygon class="cls-7" points="288.68 194.28 290.79 189.33 290.79 181.55 288.68 186.5 288.68 194.28"/><circle class="cls-7" cx="356.1" cy="149.32" r="11.73"/><circle class="cls-3" cx="356.1" cy="149.32" r="7.37"/><rect class="cls-7" x="288.68" y="314.8" width="2.11" height="8.47"/><rect class="cls-7" x="288.68" y="300.57" width="2.11" height="7.78"/><rect class="cls-7" x="288.68" y="286.31" width="2.11" height="7.78"/><rect class="cls-7" x="288.68" y="272.05" width="2.11" height="7.78"/><rect class="cls-7" x="288.68" y="257.79" width="2.11" height="7.78"/><rect class="cls-6" x="369.35" y="271.71" width="1.23" height="33.46" transform="translate(739.92 576.88) rotate(-180)"/><rect class="cls-6" x="350.05" y="271.71" width="1.23" height="33.46" transform="translate(701.33 576.88) rotate(-180)"/><rect class="cls-6" x="334.47" y="271.71" width="1.23" height="33.46" transform="translate(670.17 576.88) rotate(-180)"/><rect class="cls-2" x="369.79" y="271.71" width="7.91" height="33.7" transform="translate(747.49 577.13) rotate(-180)"/><rect class="cls-2" x="334.79" y="271.71" width="7.87" height="33.7" transform="translate(677.45 577.13) rotate(-180)"/><rect class="cls-2" x="350.34" y="271.71" width="15.08" height="33.7" transform="translate(715.76 577.13) rotate(-180)"/><rect class="cls-6" x="376.75" y="271.71" width="1.23" height="33.46" transform="translate(754.72 576.88) rotate(-180)"/><rect class="cls-6" x="369.79" y="302.49" width="7.91" height="2.68" transform="translate(747.49 607.66) rotate(-180)"/><rect class="cls-6" x="364.8" y="271.71" width="1.23" height="33.46" transform="translate(730.84 576.88) rotate(-180)"/><rect class="cls-6" x="350.34" y="302.49" width="15.42" height="2.68" transform="translate(716.1 607.66) rotate(-180)"/><rect class="cls-6" x="341.75" y="271.71" width="1.23" height="33.46" transform="translate(684.72 576.88) rotate(-180)"/><rect class="cls-6" x="334.79" y="302.49" width="7.91" height="2.68" transform="translate(677.49 607.66) rotate(-180)"/><rect class="cls-6" x="369.79" y="283.03" width="7.29" height="0.65" transform="translate(746.87 566.72) rotate(-180)"/><rect class="cls-6" x="334.79" y="283.03" width="7.29" height="0.65" transform="translate(676.87 566.72) rotate(-180)"/><rect class="cls-6" x="350.34" y="283.03" width="15.08" height="0.65" transform="translate(715.75 566.72) rotate(-180)"/><rect class="cls-6" x="341.85" y="287.12" width="31.42" height="0.65" transform="translate(644.99 -70.11) rotate(90)"/><rect class="cls-9" x="330.81" y="269.98" width="62.24" height="2.07" transform="translate(723.87 542.03) rotate(-180)"/><rect class="cls-9" x="331.65" y="271.73" width="1.95" height="20.6" transform="translate(665.26 564.07) rotate(-180)"/><rect class="cls-9" x="382.21" y="271.73" width="1.95" height="20.6" transform="translate(766.37 564.07) rotate(-180)"/><polygon class="cls-7" points="326.11 254.85 388.35 254.85 393.05 269.98 330.81 269.98 326.11 254.85"/><polygon class="cls-4" points="363.51 254.85 376.21 254.85 380.91 269.98 368.21 269.98 363.51 254.85"/><polygon class="cls-4" points="338.88 254.85 351.58 254.85 356.28 269.98 343.58 269.98 338.88 254.85"/><rect class="cls-8" x="330.05" y="305.17" width="52.48" height="3.18" transform="translate(712.58 613.52) rotate(-180)"/><rect class="cls-6" x="369.35" y="194.02" width="1.23" height="33.46" transform="translate(739.92 421.5) rotate(-180)"/><rect class="cls-6" x="350.05" y="194.02" width="1.23" height="33.46" transform="translate(701.33 421.5) rotate(-180)"/><rect class="cls-6" x="334.47" y="194.02" width="1.23" height="33.46" transform="translate(670.17 421.5) rotate(-180)"/><rect class="cls-2" x="369.79" y="194.02" width="7.91" height="33.7" transform="translate(747.49 421.74) rotate(-180)"/><rect class="cls-2" x="334.79" y="194.02" width="7.87" height="33.7" transform="translate(677.45 421.74) rotate(-180)"/><rect class="cls-2" x="350.34" y="194.02" width="15.08" height="33.7" transform="translate(715.76 421.74) rotate(-180)"/><rect class="cls-6" x="376.75" y="194.02" width="1.23" height="33.46" transform="translate(754.72 421.5) rotate(-180)"/><rect class="cls-6" x="369.79" y="224.8" width="7.91" height="2.68" transform="translate(747.49 452.28) rotate(-180)"/><rect class="cls-6" x="364.8" y="194.02" width="1.23" height="33.46" transform="translate(730.84 421.5) rotate(-180)"/><rect class="cls-6" x="350.34" y="224.8" width="15.42" height="2.68" transform="translate(716.1 452.28) rotate(-180)"/><rect class="cls-6" x="341.75" y="194.02" width="1.23" height="33.46" transform="translate(684.72 421.5) rotate(-180)"/><rect class="cls-6" x="334.79" y="224.8" width="7.91" height="2.68" transform="translate(677.49 452.28) rotate(-180)"/><rect class="cls-6" x="369.79" y="205.34" width="7.29" height="0.65" transform="translate(746.87 411.33) rotate(-180)"/><rect class="cls-6" x="334.79" y="205.34" width="7.29" height="0.65" transform="translate(676.87 411.33) rotate(-180)"/><rect class="cls-6" x="350.34" y="205.34" width="15.08" height="0.65" transform="translate(715.75 411.33) rotate(-180)"/><rect class="cls-6" x="341.85" y="209.42" width="31.42" height="0.65" transform="translate(567.3 -147.81) rotate(90)"/><rect class="cls-9" x="330.81" y="192.29" width="62.24" height="2.07" transform="translate(723.87 386.65) rotate(-180)"/><rect class="cls-9" x="331.65" y="194.04" width="1.95" height="20.6" transform="translate(665.26 408.68) rotate(-180)"/><rect class="cls-9" x="382.21" y="194.04" width="1.95" height="20.6" transform="translate(766.37 408.68) rotate(-180)"/><polygon class="cls-7" points="326.11 177.16 388.35 177.16 393.05 192.29 330.81 192.29 326.11 177.16"/><polygon class="cls-4" points="363.51 177.16 376.21 177.16 380.91 192.29 368.21 192.29 363.51 177.16"/><polygon class="cls-4" points="338.88 177.16 351.58 177.16 356.28 192.29 343.58 192.29 338.88 177.16"/><rect class="cls-8" x="330.05" y="227.48" width="52.48" height="3.18" transform="translate(712.58 458.13) rotate(-180)"/></svg>