<svg id="Layer_1" data-name="Layer 1" xmlns="http://www.w3.org/2000/svg" xmlns:xlink="http://www.w3.org/1999/xlink" viewBox="0 0 460 460"><defs><style>.cls-1{fill:none;}.cls-2{fill:#f3d632;}.cls-3{fill:#f7e270;}.cls-4{fill:#94eba3;}.cls-5{fill:#84e895;}.cls-6{clip-path:url(#clip-path);}.cls-7{fill:#fcf6d0;}.cls-8{fill:#faefb1;}</style><clipPath id="clip-path"><path class="cls-1" d="M183.13,186.32h93.74a64.06,64.06,0,0,1,64.06,64.06V406.49a47,47,0,0,1-47,47H166.08a47,47,0,0,1-47-47V250.38A64.06,64.06,0,0,1,183.13,186.32Z"/></clipPath></defs><title>brisbane</title><rect class="cls-2" x="194.33" y="158.76" width="72.98" height="38.86"/><path class="cls-3" d="M183,186.32h94a64,64,0,0,1,64,64V406.49a47,47,0,0,1-47,47H166.08a47,47,0,0,1-47-47V250.27A64,64,0,0,1,183,186.32Z"/><polygon class="cls-2" points="194.33 158.76 223.59 133.13 237.65 133.13 267.31 158.76 194.33 158.76"/><path class="cls-4" d="M202.1,141.19s-21.22-20.61-52.44,0c-2.24,0,3.23-4.56,6.64-6.59,2-4.24,9.85-10.78,16.95-11.42s14.74,1.11,20.17,6,11,9,11,9Z"/><path class="cls-4" d="M151.15,32.23s42.28,33.15,53.28,73.51l10.09,15.47-4-39s-17.49-27.36-30-35.65S153.58,29.6,151.15,32.23Z"/><path class="cls-4" d="M177.07,146.36a78.27,78.27,0,0,0,3.33-9c1-3.64,4.44-8,7.86-9.62s9,8.51,9,8.51-13.35,5.18-16.68,8.51S177.07,146.36,177.07,146.36Z"/><path class="cls-4" d="M211.73,84.65s-5.9-49.53-16.05-67.37-1.49-8.17-1.49-8.17,28,15.36,34.18,74.07c0,26-7.43,28.73-7.43,28.73Z"/><path class="cls-4" d="M244.89,91.67s12.56-48.31,25.38-64.61,2.6-7.9,2.6-7.9-30.92,11.42-45,68.78c-3.4,25.79,3.93,29.5,3.93,29.5Z"/><path class="cls-4" d="M214,133.13s-3.41-41.27-2.88-47.83,9.44-8.83,9.44-8.83,10.23,2.53,10.75,9.09,1.57,47.57,1.57,47.57Z"/><path class="cls-4" d="M162.42,101.16a11.92,11.92,0,0,1,8.7-3.25c5.66-3.21,11.79-3.21,15.5-3.21s19,3.3,27.32,20.62,9.16,20.3,9.16,20.3-4.19,2-7.72,1.77-8.6-.33-11.47-5.41-17.76-29.12-24.49-31S168.05,98.92,162.42,101.16Z"/><path class="cls-4" d="M250.42,62.12s11.28-13,19.35-18.65S293,27.92,293,27.92s4.49-1.73-.58,3.22-24.65,24.93-31.21,36.07S251,83.09,248.81,90.12s-12.55,10-12.55,10Z"/><path class="cls-4" d="M249.2,146.82s15.53-31.09,58.15-20.36c2.49-.87-5.35-3.8-9.92-4.73-3.89-3.91-15.11-8.12-23.23-6.08s-15.91,6.95-20,14.47-8.73,14.23-8.73,14.23Z"/><path class="cls-4" d="M279.11,143.7a78.27,78.27,0,0,1-4.39-8.5c-1.41-3.5-5.38-7.45-9-8.6s-7.9,9.54-7.9,9.54,13.88,3.52,17.59,6.43S279.11,143.7,279.11,143.7Z"/><path class="cls-4" d="M309.81,106.85s-36.55-4.53-50.64,12.59-13.58,18.36-13.58,18.36l-5.35,13.1-1.92-10.45s9.51-37.11,31.23-40.51c13.86-2.9,21.53.63,28.62,3.58A42.74,42.74,0,0,0,309.81,106.85Z"/><path class="cls-4" d="M140,113.42s33-7.37,47.39,7,14,15.58,14,15.58l6,11.5.83-9.72s-12-33.07-32.12-34.26c-12.92-1.42-19.62,2.48-25.84,5.81A39.23,39.23,0,0,1,140,113.42Z"/><path class="cls-4" d="M247.44,85.68s20.79-15.12,37.94-19.16a222.4,222.4,0,0,1,29.11-5s3.28-.13-1.64,1.64S293.94,69,285.37,74.72s-21.43,13.49-24.2,17-15.63,5.42-15.63,5.42Z"/><path class="cls-5" d="M162.42,101.16a11.92,11.92,0,0,1,8.7-3.25c5.66-3.21,4.07-1.45,7.78-1.45s17.7,3.66,26,21,8.19,19.22,8.19,19.22,0,1-3.49.74-2.8-.35-5.67-5.42-17.76-29.12-24.49-31S168.05,98.92,162.42,101.16Z"/><path class="cls-4" d="M221.7,135.25s8.62-32.51,21.7-39.35,13.08-3,18.73-2.68,9.23,0,10,.49.37.51-1.47,1-11.13,5.43-15.08,10.1-15,33.36-15,33.36Z"/><path class="cls-5" d="M230.93,136.68s18.34-43.5,33.34-43.36c8.23-.62,10.43,1.08,9.25,1.39s-6,.38-9.83,4c-12.11,13.11-23.15,39.47-23.15,39.47Z"/><path class="cls-5" d="M217.93,77.44l5.16,58.65h3.48L222.23,77.7A2.6,2.6,0,0,0,217.93,77.44Z"/><path class="cls-4" d="M195.69,176.25s-14.5,1.89-23.64,13.87a68.54,68.54,0,0,0,7.4-13.87c2.95-7.7,11.05-8.8,11.05-8.8s-28.18-4.24-41.44,7.55a11.76,11.76,0,0,1,7.74-6.81s17-19,38.9-7.74Z"/><path class="cls-4" d="M207.44,152.9l-7.18,9.76s-15.1-17.68-44.75-4.88c0,0,5.89-4,10.5-4.88,3.87-3.13,18.67-10.68,29.69-6.26S207.44,152.9,207.44,152.9Z"/><path class="cls-5" d="M218,153.45c-2.38-6.2-18.31-14.78-18.31-14.78s8.58-4,15.74-3.34,12.4,8,14.29,14.4a27.31,27.31,0,0,0-9.94,7.16Z"/><path class="cls-5" d="M241.7,156.11s-.49.76,3.86-1.09,7.27-3.28,7.27-3.28a12.16,12.16,0,0,1,3.78-8.32c3.88-3.73,1-8.1-1.79-8.16s-13.67.14-13.67.14Z"/><path class="cls-4" d="M209.47,151.42l10.31,5.47s-7.37-18-18-18.73a3.55,3.55,0,0,0-2,.5S208.17,143.29,209.47,151.42Z"/><path class="cls-4" d="M231.6,149l10.09,7.07s5.62-14,10.53-17.94c0,0-8.08-5.13-13.7-1.81C235.64,138.16,231.6,149,231.6,149Z"/><path class="cls-4" d="M254.47,152.69s6.17,10.4,8.1,9.07,13.3-11.61,25.88-10.76,16,3.87,16,3.87-2.9-4.72-10.16-5.56c-5.08-1.21-10.28-5.32-13.79-5.44s-14.15-.22-16.81,1.89S254.47,152.69,254.47,152.69Z"/><path class="cls-4" d="M266.86,159.79v16.41s7.48-1.19,17.86,6.21S297.14,192,297.14,192s-.09-1.28-4-5.36-4.76-9.36-6.21-11.23-3.66-6.63-11.31-7.06c-1.79-1,0-1.79,0-1.79s22.54-1.87,31.38,2.47c7,2.81,6.29,3.83,7.48,4.08s2.64.26.43-1.28-5.53-2.89-9-5.27-10-9.28-17.52-10.34S266.86,159.79,266.86,159.79Z"/><g class="cls-6"><path class="cls-7" d="M190.48,283.7c-2.1-1.37-5.61-1.86-8.89-2-3.28.1-6.79.59-8.89,2-3.78,2.46-9.22,12.54-10.47,17.81,0,0,8.16,7.81,10.65,16,1.87,1.06,5.37,1.28,8.71,1.19,3.35.09,6.85-.13,8.71-1.19,2.48-8.16,10.65-16,10.65-16C199.71,296.25,194.26,286.16,190.48,283.7Z"/><path class="cls-7" d="M220.36,302.18c-2.1-1.37-5.61-1.86-8.89-2-3.28.1-6.79.59-8.89,2-3.78,2.46-9.22,12.54-10.47,17.81,0,0,8.16,7.81,10.65,16,1.87,1.06,5.37,1.28,8.71,1.19,3.35.09,6.85-.13,8.71-1.19,2.48-8.16,10.65-16,10.65-16C229.59,314.72,224.15,304.64,220.36,302.18Z"/><path class="cls-8" d="M220.36,264.06c-2.1-1.37-5.61-1.86-8.89-2-3.28.1-6.79.59-8.89,2-3.78,2.46-9.22,12.54-10.47,17.81,0,0,8.16,7.81,10.65,16,1.87,1.06,5.37,1.28,8.71,1.19,3.35.09,6.85-.13,8.71-1.19,2.48-8.16,10.65-16,10.65-16C229.59,276.6,224.15,266.52,220.36,264.06Z"/><path class="cls-7" d="M251.47,283.12c-2.1-1.37-5.61-1.86-8.89-2-3.28.1-6.79.59-8.89,2-3.78,2.46-9.22,12.54-10.47,17.81,0,0,8.16,7.81,10.65,16,1.87,1.06,5.37,1.28,8.71,1.19,3.35.09,6.85-.13,8.71-1.19,2.48-8.16,10.65-16,10.65-16C260.7,295.66,255.26,285.58,251.47,283.12Z"/><path class="cls-7" d="M281.36,303c-2.1-1.37-5.61-1.86-8.89-2-3.28.1-6.79.59-8.89,2-3.78,2.46-9.22,12.54-10.47,17.81,0,0,8.16,7.81,10.65,16,1.87,1.06,5.37,1.28,8.71,1.19,3.35.09,6.85-.13,8.71-1.19,2.48-8.16,10.65-16,10.65-16C290.58,315.56,285.14,305.48,281.36,303Z"/><path class="cls-8" d="M281.36,263.47c-2.1-1.37-5.61-1.86-8.89-2-3.28.1-6.79.59-8.89,2-3.78,2.46-9.22,12.54-10.47,17.81,0,0,8.16,7.81,10.65,16,1.87,1.06,5.37,1.28,8.71,1.19,3.35.09,6.85-.13,8.71-1.19,2.48-8.16,10.65-16,10.65-16C290.58,276,285.14,265.93,281.36,263.47Z"/><path class="cls-7" d="M162,342.1c-2.1-1.37-5.61-1.86-8.89-2-3.28.1-6.79.59-8.89,2-3.78,2.46-9.22,12.54-10.47,17.81,0,0,8.16,7.81,10.65,16,1.87,1.06,5.37,1.28,8.71,1.19,3.35.09,6.85-.13,8.71-1.19,2.48-8.16,10.65-16,10.65-16C171.25,354.64,165.81,344.56,162,342.1Z"/><path class="cls-7" d="M191.91,360.57c-2.1-1.37-5.61-1.86-8.89-2-3.28.1-6.79.59-8.89,2-3.78,2.46-9.22,12.54-10.47,17.81,0,0,8.16,7.81,10.65,16,1.87,1.06,5.37,1.28,8.71,1.19,3.35.09,6.85-.13,8.71-1.19,2.48-8.16,10.65-16,10.65-16C201.14,373.12,195.7,363,191.91,360.57Z"/><path class="cls-7" d="M132,362c-2.1-1.37-5.61-1.86-8.89-2-3.28.1-6.79.59-8.89,2-3.78,2.46-9.22,12.54-10.47,17.81,0,0,8.16,7.81,10.65,16,1.87,1.06,5.37,1.28,8.71,1.19,3.35.09,6.85-.13,8.71-1.19,2.48-8.16,10.65-16,10.65-16C141.22,374.58,135.78,364.5,132,362Z"/><path class="cls-7" d="M191.91,322.45c-2.1-1.37-5.61-1.86-8.89-2-3.28.1-6.79.59-8.89,2-3.78,2.46-9.22,12.54-10.47,17.81,0,0,8.16,7.81,10.65,16,1.87,1.06,5.37,1.28,8.71,1.19,3.35.09,6.85-.13,8.71-1.19,2.48-8.16,10.65-16,10.65-16C201.14,335,195.7,324.91,191.91,322.45Z"/><path class="cls-7" d="M221.59,341.51c-2.1-1.37-5.61-1.86-8.89-2-3.28.1-6.79.59-8.89,2-3.78,2.46-9.22,12.54-10.47,17.81,0,0,8.16,7.81,10.65,16,1.87,1.06,5.37,1.28,8.71,1.19,3.35.09,6.85-.13,8.71-1.19,2.48-8.16,10.65-16,10.65-16C230.81,354.06,225.37,344,221.59,341.51Z"/><path class="cls-7" d="M132.1,323c-2.1-1.37-5.61-1.86-8.89-2-3.28.1-6.79.59-8.89,2-3.78,2.46-9.22,12.54-10.47,17.81,0,0,8.16,7.81,10.65,16,1.87,1.06,5.37,1.28,8.71,1.19,3.35.09,6.85-.13,8.71-1.19,2.48-8.16,10.65-16,10.65-16C141.32,335.58,135.88,325.5,132.1,323Z"/><path class="cls-7" d="M132.1,284.92c-2.1-1.37-5.61-1.86-8.89-2-3.28.1-6.79.59-8.89,2-3.78,2.46-9.22,12.54-10.47,17.81,0,0,8.16,7.81,10.65,16,1.87,1.06,5.37,1.28,8.71,1.19,3.35.09,6.85-.13,8.71-1.19,2.48-8.16,10.65-16,10.65-16C141.32,297.46,135.88,287.38,132.1,284.92Z"/><path class="cls-7" d="M161.77,304c-2.1-1.37-5.61-1.86-8.89-2-3.28.1-6.79.59-8.89,2-3.78,2.46-9.22,12.54-10.47,17.81,0,0,8.16,7.81,10.65,16,1.87,1.06,5.37,1.28,8.71,1.19,3.35.09,6.85-.13,8.71-1.19,2.48-8.16,10.65-16,10.65-16C171,316.52,165.56,306.44,161.77,304Z"/><path class="cls-7" d="M252.29,361.21c-2.1-1.37-5.61-1.86-8.89-2-3.28.1-6.79.59-8.89,2-3.78,2.46-9.22,12.54-10.47,17.81,0,0,8.16,7.81,10.65,16,1.87,1.06,5.37,1.28,8.71,1.19,3.35.09,6.85-.13,8.71-1.19,2.48-8.16,10.65-16,10.65-16C261.51,373.75,256.07,363.67,252.29,361.21Z"/><path class="cls-7" d="M251.47,321.87c-2.1-1.37-5.61-1.86-8.89-2-3.28.1-6.79.59-8.89,2-3.78,2.46-9.22,12.54-10.47,17.81,0,0,8.16,7.81,10.65,16,1.87,1.06,5.37,1.28,8.71,1.19,3.35.09,6.85-.13,8.71-1.19,2.48-8.16,10.65-16,10.65-16C260.7,334.41,255.26,324.33,251.47,321.87Z"/><path class="cls-8" d="M190.48,167.85c-2.1-1.37-5.61-1.86-8.89-2-3.28.1-6.79.59-8.89,2-3.78,2.46-9.22,12.54-10.47,17.81,0,0,8.16,7.81,10.65,16,1.87,1.06,5.37,1.28,8.71,1.19,3.35.09,6.85-.13,8.71-1.19,2.48-8.16,10.65-16,10.65-16C199.71,180.39,194.26,170.31,190.48,167.85Z"/><path class="cls-8" d="M221.79,186.32c-2.1-1.37-5.61-1.86-8.89-2-3.28.1-6.79.59-8.89,2-3.78,2.46-9.22,12.54-10.47,17.81,0,0,8.16,7.81,10.65,16,1.87,1.06,5.37,1.28,8.71,1.19,3.35.09,6.85-.13,8.71-1.19,2.48-8.16,10.65-16,10.65-16C231,198.86,225.58,188.78,221.79,186.32Z"/><path class="cls-8" d="M251.47,167.26c-2.1-1.37-5.61-1.86-8.89-2-3.28.1-6.79.59-8.89,2-3.78,2.46-9.22,12.54-10.47,17.81,0,0,8.16,7.81,10.65,16,1.87,1.06,5.37,1.28,8.71,1.19,3.35.09,6.85-.13,8.71-1.19,2.48-8.16,10.65-16,10.65-16C260.7,179.8,255.26,169.72,251.47,167.26Z"/><path class="cls-8" d="M281.36,187.17c-2.1-1.37-5.61-1.86-8.89-2-3.28.1-6.79.59-8.89,2-3.78,2.46-9.22,12.54-10.47,17.81,0,0,8.16,7.81,10.65,16,1.87,1.06,5.37,1.28,8.71,1.19,3.35.09,6.85-.13,8.71-1.19,2.48-8.16,10.65-16,10.65-16C290.58,199.71,285.14,189.62,281.36,187.17Z"/><path class="cls-8" d="M162,226.24c-2.1-1.37-5.61-1.86-8.89-2-3.28.1-6.79.59-8.89,2-3.78,2.46-9.22,12.54-10.47,17.81,0,0,8.16,7.81,10.65,16,1.87,1.06,5.37,1.28,8.71,1.19,3.35.09,6.85-.13,8.71-1.19,2.48-8.16,10.65-16,10.65-16C171.25,238.79,165.81,228.7,162,226.24Z"/><path class="cls-8" d="M132,207.18c-2.1-1.37-5.61-1.86-8.89-2-3.28.1-6.79.59-8.89,2-3.78,2.46-9.22,12.54-10.47,17.81,0,0,8.16,7.81,10.65,16,1.87,1.06,5.37,1.28,8.71,1.19,3.35.09,6.85-.13,8.71-1.19,2.48-8.16,10.65-16,10.65-16C141.22,219.73,135.78,209.64,132,207.18Z"/><path class="cls-8" d="M191.91,244.72c-2.1-1.37-5.61-1.86-8.89-2-3.28.1-6.79.59-8.89,2-3.78,2.46-9.22,12.54-10.47,17.81,0,0,8.16,7.81,10.65,16,1.87,1.06,5.37,1.28,8.71,1.19,3.35.09,6.85-.13,8.71-1.19,2.48-8.16,10.65-16,10.65-16C201.14,257.26,195.7,247.18,191.91,244.72Z"/><path class="cls-7" d="M132,246.17c-2.1-1.37-5.61-1.86-8.89-2-3.28.1-6.79.59-8.89,2-3.78,2.46-9.22,12.54-10.47,17.81,0,0,8.16,7.81,10.65,16,1.87,1.06,5.37,1.28,8.71,1.19,3.35.09,6.85-.13,8.71-1.19,2.48-8.16,10.65-16,10.65-16C141.22,258.71,135.78,248.63,132,246.17Z"/><path class="cls-7" d="M161.88,264.64c-2.1-1.37-5.61-1.86-8.89-2-3.28.1-6.79.59-8.89,2-3.78,2.46-9.22,12.54-10.47,17.81,0,0,8.16,7.81,10.65,16,1.87,1.06,5.37,1.28,8.71,1.19,3.35.09,6.85-.13,8.71-1.19,2.48-8.16,10.65-16,10.65-16C171.1,277.19,165.66,267.1,161.88,264.64Z"/><path class="cls-8" d="M191.91,206.6c-2.1-1.37-5.61-1.86-8.89-2-3.28.1-6.79.59-8.89,2-3.78,2.46-9.22,12.54-10.47,17.81,0,0,8.16,7.81,10.65,16,1.87,1.06,5.37,1.28,8.71,1.19,3.35.09,6.85-.13,8.71-1.19,2.48-8.16,10.65-16,10.65-16C201.14,219.14,195.7,209.06,191.91,206.6Z"/><path class="cls-8" d="M161.77,187.54c-2.1-1.37-5.61-1.86-8.89-2-3.28.1-6.79.59-8.89,2-3.78,2.46-9.22,12.54-10.47,17.81,0,0,8.16,7.81,10.65,16,1.87,1.06,5.37,1.28,8.71,1.19,3.35.09,6.85-.13,8.71-1.19,2.48-8.16,10.65-16,10.65-16C171,200.08,165.56,190,161.77,187.54Z"/><path class="cls-8" d="M221.59,225.66c-2.1-1.37-5.61-1.86-8.89-2-3.28.1-6.79.59-8.89,2-3.78,2.46-9.22,12.54-10.47,17.81,0,0,8.16,7.81,10.65,16,1.87,1.06,5.37,1.28,8.71,1.19,3.35.09,6.85-.13,8.71-1.19,2.48-8.16,10.65-16,10.65-16C230.81,238.2,225.37,228.12,221.59,225.66Z"/><path class="cls-8" d="M251.47,244.13c-2.1-1.37-5.61-1.86-8.89-2-3.28.1-6.79.59-8.89,2-3.78,2.46-9.22,12.54-10.47,17.81,0,0,8.16,7.81,10.65,16,1.87,1.06,5.37,1.28,8.71,1.19,3.35.09,6.85-.13,8.71-1.19,2.48-8.16,10.65-16,10.65-16C260.7,256.67,255.26,246.59,251.47,244.13Z"/><path class="cls-8" d="M251.47,206c-2.1-1.37-5.61-1.86-8.89-2-3.28.1-6.79.59-8.89,2-3.78,2.46-9.22,12.54-10.47,17.81,0,0,8.16,7.81,10.65,16,1.87,1.06,5.37,1.28,8.71,1.19,3.35.09,6.85-.13,8.71-1.19,2.48-8.16,10.65-16,10.65-16C260.7,218.55,255.26,208.47,251.47,206Z"/><path class="cls-7" d="M310.63,283.7c-2.1-1.37-5.61-1.86-8.89-2-3.28.1-6.79.59-8.89,2-3.78,2.46-9.22,12.54-10.47,17.81,0,0,8.16,7.81,10.65,16,1.87,1.06,5.37,1.28,8.71,1.19,3.35.09,6.85-.13,8.71-1.19,2.48-8.16,10.65-16,10.65-16C319.85,296.25,314.41,286.16,310.63,283.7Z"/><path class="cls-7" d="M340.51,302.18c-2.1-1.37-5.61-1.86-8.89-2-3.28.1-6.79.59-8.89,2-3.78,2.46-9.22,12.54-10.47,17.81,0,0,8.16,7.81,10.65,16,1.87,1.06,5.37,1.28,8.71,1.19,3.35.09,6.85-.13,8.71-1.19,2.48-8.16,10.65-16,10.65-16C349.73,314.72,344.29,304.64,340.51,302.18Z"/><path class="cls-8" d="M340.51,264.06c-2.1-1.37-5.61-1.86-8.89-2-3.28.1-6.79.59-8.89,2-3.78,2.46-9.22,12.54-10.47,17.81,0,0,8.16,7.81,10.65,16,1.87,1.06,5.37,1.28,8.71,1.19,3.35.09,6.85-.13,8.71-1.19,2.48-8.16,10.65-16,10.65-16C349.73,276.6,344.29,266.52,340.51,264.06Z"/><path class="cls-7" d="M282.18,342.1c-2.1-1.37-5.61-1.86-8.89-2-3.28.1-6.79.59-8.89,2-3.78,2.46-9.22,12.54-10.47,17.81,0,0,8.16,7.81,10.65,16,1.87,1.06,5.37,1.28,8.71,1.19,3.35.09,6.85-.13,8.71-1.19,2.48-8.16,10.65-16,10.65-16C291.4,354.64,286,344.56,282.18,342.1Z"/><path class="cls-7" d="M312.06,360.57c-2.1-1.37-5.61-1.86-8.89-2-3.28.1-6.79.59-8.89,2-3.78,2.46-9.22,12.54-10.47,17.81,0,0,8.16,7.81,10.65,16,1.87,1.06,5.37,1.28,8.71,1.19,3.35.09,6.85-.13,8.71-1.19,2.48-8.16,10.65-16,10.65-16C321.28,373.12,315.84,363,312.06,360.57Z"/><path class="cls-7" d="M341.74,380.05c-2.1-1.37-5.61-1.86-8.89-2-3.28.1-6.79.59-8.89,2-3.78,2.46-9.22,12.54-10.47,17.81,0,0,8.16,7.81,10.65,16,1.87,1.06,5.37,1.28,8.71,1.19,3.35.09,6.85-.13,8.71-1.19,2.48-8.16,10.65-16,10.65-16C351,392.59,345.52,382.51,341.74,380.05Z"/><path class="cls-7" d="M312.06,322.45c-2.1-1.37-5.61-1.86-8.89-2-3.28.1-6.79.59-8.89,2-3.78,2.46-9.22,12.54-10.47,17.81,0,0,8.16,7.81,10.65,16,1.87,1.06,5.37,1.28,8.71,1.19,3.35.09,6.85-.13,8.71-1.19,2.48-8.16,10.65-16,10.65-16C321.28,335,315.84,324.91,312.06,322.45Z"/><path class="cls-7" d="M341.74,341.51c-2.1-1.37-5.61-1.86-8.89-2-3.28.1-6.79.59-8.89,2-3.78,2.46-9.22,12.54-10.47,17.81,0,0,8.16,7.81,10.65,16,1.87,1.06,5.37,1.28,8.71,1.19,3.35.09,6.85-.13,8.71-1.19,2.48-8.16,10.65-16,10.65-16C351,354.06,345.52,344,341.74,341.51Z"/><path class="cls-7" d="M132,400.74c-2.1-1.37-5.61-1.86-8.89-2-3.28.1-6.79.59-8.89,2-3.78,2.46-9.22,12.54-10.47,17.81,0,0,8.16,7.81,10.65,16,1.87,1.06,5.37,1.28,8.71,1.19,3.35.09,6.85-.13,8.71-1.19,2.48-8.16,10.65-16,10.65-16C141.22,413.28,135.78,403.2,132,400.74Z"/><path class="cls-7" d="M161.88,419.22c-2.1-1.37-5.61-1.86-8.89-2-3.28.1-6.79.59-8.89,2-3.78,2.46-9.22,12.54-10.47,17.81,0,0,8.16,7.81,10.65,16,1.87,1.06,5.37,1.28,8.71,1.19,3.35.09,6.85-.13,8.71-1.19,2.48-8.16,10.65-16,10.65-16C171.1,431.76,165.66,421.67,161.88,419.22Z"/><path class="cls-7" d="M161.88,381.1c-2.1-1.37-5.61-1.86-8.89-2-3.28.1-6.79.59-8.89,2-3.78,2.46-9.22,12.54-10.47,17.81,0,0,8.16,7.81,10.65,16,1.87,1.06,5.37,1.28,8.71,1.19,3.35.09,6.85-.13,8.71-1.19,2.48-8.16,10.65-16,10.65-16C171.1,393.64,165.66,383.56,161.88,381.1Z"/><path class="cls-7" d="M191.55,400.16c-2.1-1.37-5.61-1.86-8.89-2-3.28.1-6.79.59-8.89,2C170,402.61,164.55,412.7,163.3,418c0,0,8.16,7.81,10.65,16,1.87,1.06,5.37,1.28,8.71,1.19,3.35.09,6.85-.13,8.71-1.19,2.48-8.16,10.65-16,10.65-16C200.78,412.7,195.34,402.61,191.55,400.16Z"/><path class="cls-7" d="M221.44,418.63c-2.1-1.37-5.61-1.86-8.89-2-3.28.1-6.79.59-8.89,2-3.78,2.46-9.22,12.54-10.47,17.81,0,0,8.16,7.81,10.65,16,1.87,1.06,5.37,1.28,8.71,1.19,3.35.09,6.85-.13,8.71-1.19,2.48-8.16,10.65-16,10.65-16C230.66,431.17,225.22,421.09,221.44,418.63Z"/><path class="cls-7" d="M221.44,380.51c-2.1-1.37-5.61-1.86-8.89-2-3.28.1-6.79.59-8.89,2-3.78,2.46-9.22,12.54-10.47,17.81,0,0,8.16,7.81,10.65,16,1.87,1.06,5.37,1.28,8.71,1.19,3.35.09,6.85-.13,8.71-1.19,2.48-8.16,10.65-16,10.65-16C230.66,393.05,225.22,383,221.44,380.51Z"/><path class="cls-7" d="M252.14,400.74c-2.1-1.37-5.61-1.86-8.89-2-3.28.1-6.79.59-8.89,2-3.78,2.46-9.22,12.54-10.47,17.81,0,0,8.16,7.81,10.65,16,1.87,1.06,5.37,1.28,8.71,1.19,3.35.09,6.85-.13,8.71-1.19,2.48-8.16,10.65-16,10.65-16C261.36,413.28,255.92,403.2,252.14,400.74Z"/><path class="cls-7" d="M191.3,438.6c-2.1-1.37-5.61-1.86-8.89-2-3.28.1-6.79.59-8.89,2-3.78,2.46-9.22,12.54-10.47,17.81,0,0,8.16,7.81,10.65,16,1.87,1.06,5.37,1.28,8.71,1.19,3.35.09,6.85-.13,8.71-1.19,2.48-8.16,10.65-16,10.65-16C200.52,451.14,195.08,441.06,191.3,438.6Z"/><path class="cls-7" d="M251.88,439.19c-2.1-1.37-5.61-1.86-8.89-2-3.28.1-6.79.59-8.89,2-3.78,2.46-9.22,12.54-10.47,17.81,0,0,8.16,7.81,10.65,16,1.87,1.06,5.37,1.28,8.71,1.19,3.35.09,6.85-.13,8.71-1.19,2.48-8.16,10.65-16,10.65-16C261.11,451.73,255.67,441.65,251.88,439.19Z"/><path class="cls-7" d="M282,419.22c-2.1-1.37-5.61-1.86-8.89-2-3.28.1-6.79.59-8.89,2-3.78,2.46-9.22,12.54-10.47,17.81,0,0,8.16,7.81,10.65,16,1.87,1.06,5.37,1.28,8.71,1.19,3.35.09,6.85-.13,8.71-1.19,2.48-8.16,10.65-16,10.65-16C291.25,431.76,285.81,421.67,282,419.22Z"/><path class="cls-7" d="M282,381.1c-2.1-1.37-5.61-1.86-8.89-2-3.28.1-6.79.59-8.89,2-3.78,2.46-9.22,12.54-10.47,17.81,0,0,8.16,7.81,10.65,16,1.87,1.06,5.37,1.28,8.71,1.19,3.35.09,6.85-.13,8.71-1.19,2.48-8.16,10.65-16,10.65-16C291.25,393.64,285.81,383.56,282,381.1Z"/><path class="cls-7" d="M311.7,400.16c-2.1-1.37-5.61-1.86-8.89-2-3.28.1-6.79.59-8.89,2-3.78,2.46-9.22,12.54-10.47,17.81,0,0,8.16,7.81,10.65,16,1.87,1.06,5.37,1.28,8.71,1.19,3.35.09,6.85-.13,8.71-1.19,2.48-8.16,10.65-16,10.65-16C320.92,412.7,315.48,402.61,311.7,400.16Z"/><path class="cls-7" d="M311.7,438.89c-2.1-1.37-5.61-1.86-8.89-2-3.28.1-6.79.59-8.89,2-3.78,2.46-9.22,12.54-10.47,17.81,0,0,8.16,7.81,10.65,16,1.87,1.06,5.37,1.28,8.71,1.19,3.35.09,6.85-.13,8.71-1.19,2.48-8.16,10.65-16,10.65-16C320.92,451.44,315.48,441.35,311.7,438.89Z"/><path class="cls-7" d="M340.5,419.83c-2.1-1.37-5.61-1.86-8.89-2-3.28.1-6.79.59-8.89,2-3.78,2.46-9.22,12.54-10.47,17.81,0,0,8.16,7.81,10.65,16,1.87,1.06,5.37,1.28,8.71,1.19,3.35.09,6.85-.13,8.71-1.19,2.48-8.16,10.65-16,10.65-16C349.73,432.37,344.29,422.29,340.5,419.83Z"/><path class="cls-8" d="M310.63,167.85c-2.1-1.37-5.61-1.86-8.89-2-3.28.1-6.79.59-8.89,2-3.78,2.46-9.22,12.54-10.47,17.81,0,0,8.16,7.81,10.65,16,1.87,1.06,5.37,1.28,8.71,1.19,3.35.09,6.85-.13,8.71-1.19,2.48-8.16,10.65-16,10.65-16C319.85,180.39,314.41,170.31,310.63,167.85Z"/><path class="cls-8" d="M282.18,226.24c-2.1-1.37-5.61-1.86-8.89-2-3.28.1-6.79.59-8.89,2-3.78,2.46-9.22,12.54-10.47,17.81,0,0,8.16,7.81,10.65,16,1.87,1.06,5.37,1.28,8.71,1.19,3.35.09,6.85-.13,8.71-1.19,2.48-8.16,10.65-16,10.65-16C291.4,238.79,286,228.7,282.18,226.24Z"/><path class="cls-8" d="M312.06,244.72c-2.1-1.37-5.61-1.86-8.89-2-3.28.1-6.79.59-8.89,2-3.78,2.46-9.22,12.54-10.47,17.81,0,0,8.16,7.81,10.65,16,1.87,1.06,5.37,1.28,8.71,1.19,3.35.09,6.85-.13,8.71-1.19,2.48-8.16,10.65-16,10.65-16C321.28,257.26,315.84,247.18,312.06,244.72Z"/><path class="cls-8" d="M312.06,206.6c-2.1-1.37-5.61-1.86-8.89-2-3.28.1-6.79.59-8.89,2-3.78,2.46-9.22,12.54-10.47,17.81,0,0,8.16,7.81,10.65,16,1.87,1.06,5.37,1.28,8.71,1.19,3.35.09,6.85-.13,8.71-1.19,2.48-8.16,10.65-16,10.65-16C321.28,219.14,315.84,209.06,312.06,206.6Z"/><path class="cls-8" d="M341.74,225.66c-2.1-1.37-5.61-1.86-8.89-2-3.28.1-6.79.59-8.89,2-3.78,2.46-9.22,12.54-10.47,17.81,0,0,8.16,7.81,10.65,16,1.87,1.06,5.37,1.28,8.71,1.19,3.35.09,6.85-.13,8.71-1.19,2.48-8.16,10.65-16,10.65-16C351,238.2,345.52,228.12,341.74,225.66Z"/></g></svg>