<svg id="Layer_1" data-name="Layer 1" xmlns="http://www.w3.org/2000/svg" xmlns:xlink="http://www.w3.org/1999/xlink" viewBox="0 0 460 460"><defs><style>.cls-1{fill:#e86261;}.cls-2{fill:#a63d3d;}.cls-3{fill:#f1f1f1;}.cls-4{fill:#fff;}.cls-5{fill:#fafafa;}.cls-6{fill:#f7f7f7;}.cls-7{fill:#e34140;}.cls-8{fill:#8a0000;}.cls-9{fill:url(#linear-gradient);}.cls-10{fill:#df2221;}.cls-11{fill:#da0100;}</style><linearGradient id="linear-gradient" x1="229.29" y1="114.33" x2="229.29" y2="112.14" gradientUnits="userSpaceOnUse"><stop offset="0" stop-color="#a63d3d" stop-opacity="0"/><stop offset="1" stop-color="#8a0000"/></linearGradient></defs><title>brisbane</title><rect class="cls-1" x="173.82" y="284.51" width="111.95" height="99.4"/><rect class="cls-2" x="212.17" y="139.83" width="34.46" height="107.09"/><rect class="cls-3" x="216.41" y="161.75" width="25.99" height="85.03"/><polygon class="cls-1" points="242.48 109.25 217.35 109.25 224.97 84.88 234.87 84.88 242.48 109.25"/><circle class="cls-2" cx="229.4" cy="175.89" r="10.72"/><circle class="cls-4" cx="229.4" cy="175.89" r="10"/><path class="cls-5" d="M229.4,184.85a9,9,0,1,1,9-9A9,9,0,0,1,229.4,184.85Z"/><circle class="cls-6" cx="229.88" cy="176.76" r="7.95"/><rect class="cls-7" x="229.25" y="167.67" width="0.31" height="1.92"/><rect class="cls-7" x="229.25" y="182.21" width="0.31" height="1.92"/><rect class="cls-7" x="236.52" y="174.94" width="0.31" height="1.92" transform="translate(412.57 -60.77) rotate(90)"/><rect class="cls-7" x="221.98" y="174.94" width="0.31" height="1.92" transform="translate(398.04 -46.23) rotate(90)"/><circle class="cls-7" cx="229.22" cy="175.98" r="0.32" transform="translate(-45.33 85.79) rotate(-19.33)"/><polygon class="cls-7" points="232.31 171.7 229.25 176.27 228.93 175.89 232.31 171.7"/><polygon class="cls-7" points="236.67 177.81 229.09 176.27 229.16 175.7 236.67 177.81"/><rect class="cls-8" x="216.41" y="161.5" width="25.99" height="0.94"/><rect class="cls-8" x="199.8" y="204.13" width="84.93" height="0.27" transform="translate(446.53 -37.99) rotate(90)"/><circle class="cls-1" cx="229.9" cy="80.92" r="2.65"/><rect class="cls-1" x="229.08" y="82.43" width="1.63" height="3.76"/><rect class="cls-1" x="229.54" y="76.09" width="0.72" height="3.76"/><rect class="cls-2" x="216.36" y="109.25" width="27.07" height="2.89"/><rect class="cls-8" x="212.17" y="114.33" width="34.46" height="1.9"/><rect class="cls-7" x="212.17" y="156.19" width="34.46" height="1.05"/><polygon class="cls-2" points="246.63 114.33 212.17 114.33 210.51 112.14 248.06 112.14 246.63 114.33"/><polygon class="cls-9" points="246.63 114.33 212.17 114.33 210.51 112.14 248.06 112.14 246.63 114.33"/><rect class="cls-8" x="210.76" y="153.24" width="37.29" height="3.14"/><rect class="cls-1" x="210.76" y="153.87" width="37.29" height="0.22"/><polygon class="cls-8" points="248.05 153.87 210.76 153.87 210.4 153.24 248.41 153.24 248.05 153.87"/><rect class="cls-1" x="214.93" y="116.23" width="28.95" height="23.6"/><rect class="cls-2" x="214.93" y="119.38" width="3.01" height="20.45"/><rect class="cls-2" x="219.15" y="119.38" width="3.01" height="20.45"/><rect class="cls-2" x="236.65" y="119.38" width="3.01" height="20.45"/><rect class="cls-2" x="240.87" y="119.38" width="3.01" height="20.45"/><rect class="cls-2" x="225.52" y="119.38" width="3.01" height="20.45"/><rect class="cls-2" x="230.27" y="119.38" width="3.01" height="20.45"/><rect class="cls-2" x="214.93" y="116.23" width="28.95" height="3.15"/><rect class="cls-2" x="205.66" y="246.93" width="47.48" height="17.08"/><rect class="cls-2" x="204.07" y="250.88" width="50.67" height="2.72"/><rect class="cls-8" x="204.07" y="250.88" width="50.67" height="0.74"/><rect class="cls-8" x="205.66" y="253.6" width="47.48" height="0.42"/><path class="cls-2" d="M249.86,246.66H208.58c-1-2.11-4.52-2.87-4.52-2.87v7.09h50.67v-7.09S250.85,244.54,249.86,246.66Z"/><rect class="cls-2" x="174.91" y="278.71" width="109.07" height="9.89"/><rect class="cls-2" x="176.01" y="288.6" width="8.34" height="64.82"/><polygon class="cls-8" points="184.36 297.78 176.01 297.78 174.91 288.6 185.45 288.6 184.36 297.78"/><rect class="cls-8" x="175.8" y="353.41" width="8.76" height="2.69"/><rect class="cls-8" x="175.51" y="356.1" width="9.36" height="1.79"/><rect class="cls-2" x="191.79" y="288.6" width="7.37" height="64.82"/><polygon class="cls-8" points="199.17 297.78 191.79 297.78 190.82 288.6 200.13 288.6 199.17 297.78"/><rect class="cls-8" x="191.61" y="353.41" width="7.74" height="2.69"/><rect class="cls-8" x="191.34" y="356.1" width="8.27" height="1.79"/><rect class="cls-2" x="205.48" y="288.6" width="7.37" height="64.82"/><polygon class="cls-8" points="212.85 297.78 205.48 297.78 204.5 288.6 213.81 288.6 212.85 297.78"/><rect class="cls-8" x="205.29" y="353.41" width="7.74" height="2.69"/><rect class="cls-8" x="205.03" y="356.1" width="8.27" height="1.79"/><rect class="cls-2" x="219.16" y="288.6" width="7.37" height="64.82"/><polygon class="cls-8" points="226.54 297.78 219.16 297.78 218.19 288.6 227.5 288.6 226.54 297.78"/><rect class="cls-8" x="218.98" y="353.41" width="7.74" height="2.69"/><rect class="cls-8" x="218.71" y="356.1" width="8.27" height="1.79"/><rect class="cls-2" x="232.85" y="288.6" width="7.37" height="64.82"/><polygon class="cls-8" points="240.22 297.78 232.85 297.78 231.88 288.6 241.19 288.6 240.22 297.78"/><rect class="cls-8" x="232.66" y="353.41" width="7.74" height="2.69"/><rect class="cls-8" x="232.4" y="356.1" width="8.27" height="1.79"/><rect class="cls-2" x="246.53" y="288.6" width="7.37" height="64.82"/><polygon class="cls-8" points="253.91 297.78 246.53 297.78 245.56 288.6 254.87 288.6 253.91 297.78"/><rect class="cls-8" x="246.35" y="353.41" width="7.74" height="2.69"/><rect class="cls-8" x="246.09" y="356.1" width="8.27" height="1.79"/><rect class="cls-2" x="274.55" y="288.6" width="8.35" height="64.82"/><polygon class="cls-8" points="282.9 297.78 274.55 297.78 273.45 288.6 283.99 288.6 282.9 297.78"/><rect class="cls-8" x="274.34" y="353.41" width="8.76" height="2.69"/><rect class="cls-8" x="274.04" y="356.1" width="9.36" height="1.79"/><rect class="cls-2" x="260.22" y="288.6" width="7.37" height="64.82"/><polygon class="cls-8" points="267.59 297.78 260.22 297.78 259.25 288.6 268.56 288.6 267.59 297.78"/><rect class="cls-8" x="260.03" y="353.41" width="7.74" height="2.69"/><rect class="cls-8" x="259.77" y="356.1" width="8.27" height="1.79"/><rect class="cls-10" x="173.82" y="357.87" width="111.95" height="3.13"/><polygon class="cls-8" points="229.4 251.18 289.65 272.64 169.15 272.64 229.4 251.18"/><polygon class="cls-2" points="229.4 252.89 285.24 272.64 173.57 272.64 229.4 252.89"/><polygon class="cls-8" points="229.4 255.68 278.74 272.64 180.06 272.64 229.4 255.68"/><polygon class="cls-3" points="229.32 256.13 277.38 272.64 181.27 272.64 229.32 256.13"/><polygon class="cls-8" points="283.89 278.7 174.91 278.7 169.15 275.31 289.65 275.31 283.89 278.7"/><rect class="cls-2" x="169.15" y="272.64" width="120.5" height="2.67"/><rect class="cls-8" x="170.43" y="288.6" width="5.59" height="69.27"/><rect class="cls-7" x="173.82" y="360.24" width="111.95" height="23.67"/><rect class="cls-2" x="25.7" y="284.51" width="149.21" height="99.4"/><rect class="cls-10" x="173.82" y="378.85" width="111.95" height="5.05"/><rect class="cls-8" x="25.7" y="378.85" width="149.21" height="5.05"/><rect class="cls-11" x="194.64" y="367.02" width="10.51" height="16.88"/><rect class="cls-11" x="223.72" y="367.02" width="10.51" height="16.88"/><rect class="cls-11" x="251.65" y="367.02" width="10.51" height="16.88"/><rect class="cls-1" x="25.7" y="284.51" width="149.21" height="0.63"/><rect class="cls-8" x="25.7" y="355.78" width="150.31" height="2.11"/><path class="cls-10" d="M129,378.85v-7.93a3.4,3.4,0,0,0-6.8,0v7.93Z"/><path class="cls-10" d="M112.15,378.85v-7.93a3.4,3.4,0,0,0-6.8,0v7.93Z"/><path class="cls-10" d="M95.26,378.85v-7.93a3.4,3.4,0,0,0-6.8,0v7.93Z"/><path class="cls-10" d="M78.37,378.85v-7.93a3.4,3.4,0,0,0-6.8,0v7.93Z"/><path class="cls-10" d="M61.48,378.85v-7.93a3.4,3.4,0,0,0-6.8,0v7.93Z"/><path class="cls-10" d="M44.59,378.85v-7.93a3.4,3.4,0,0,0-6.8,0v7.93Z"/><path class="cls-10" d="M145.93,378.85v-7.93a3.4,3.4,0,0,0-6.8,0v7.93Z"/><path class="cls-10" d="M162.82,378.85v-7.93a3.4,3.4,0,0,0-6.8,0v7.93Z"/><rect class="cls-1" x="82.86" y="308.47" width="92.09" height="47.31"/><rect class="cls-2" x="82.13" y="308.47" width="5.59" height="47.31"/><rect class="cls-2" x="156.03" y="308.47" width="5.59" height="47.31"/><rect class="cls-8" x="170.43" y="308.47" width="5.59" height="49.4"/><rect class="cls-2" x="141.25" y="308.47" width="5.59" height="47.31"/><rect class="cls-2" x="126.47" y="308.47" width="5.59" height="47.31"/><rect class="cls-2" x="111.69" y="308.47" width="5.59" height="47.31"/><rect class="cls-2" x="96.91" y="308.47" width="5.59" height="47.31"/><polygon class="cls-8" points="21.48 304.25 176.01 304.25 176.01 308.47 25.7 308.47 21.48 304.25"/><polygon class="cls-1" points="22.4 305.17 176.01 305.17 176.01 305.97 23.19 305.97 22.4 305.17"/><polygon class="cls-1" points="24.07 306.84 176.01 306.84 176.01 307.63 24.86 307.63 24.07 306.84"/><rect class="cls-1" x="41.19" y="308.47" width="25.84" height="47.31"/><rect class="cls-7" x="47.43" y="333.17" width="13.36" height="19.37"/><rect class="cls-7" x="49.05" y="309.59" width="10.11" height="12.63"/><rect class="cls-1" x="27.24" y="276.56" width="52.07" height="7.94"/><rect class="cls-2" x="27.24" y="274.45" width="52.07" height="8.76"/><rect class="cls-1" x="27.24" y="280.79" width="52.07" height="0.63"/><rect class="cls-8" x="67.03" y="308.47" width="5.59" height="47.31"/><rect class="cls-8" x="35.6" y="308.47" width="5.59" height="47.31"/><rect class="cls-7" x="25.7" y="297.35" width="150.31" height="2.25"/><rect class="cls-8" x="25.7" y="296.23" width="150.31" height="2.25"/><rect class="cls-1" x="80.85" y="284.51" width="1.43" height="71.27"/><rect class="cls-10" x="25.7" y="357.87" width="150.47" height="1.06"/><rect class="cls-8" x="282.4" y="288.6" width="5.59" height="69.27" transform="translate(570.39 646.47) rotate(-180)"/><rect class="cls-2" x="283.99" y="284.51" width="149.21" height="99.4" transform="translate(717.19 668.41) rotate(-180)"/><rect class="cls-8" x="284.15" y="378.85" width="149.21" height="5.05" transform="translate(717.52 762.76) rotate(-180)"/><rect class="cls-1" x="283.99" y="284.51" width="149.21" height="0.63" transform="translate(717.19 569.64) rotate(-180)"/><rect class="cls-8" x="283.05" y="355.78" width="150.31" height="2.11" transform="translate(716.42 713.67) rotate(-180)"/><path class="cls-10" d="M328.46,378.85v-7.93a3.4,3.4,0,0,1,6.8,0v7.93Z"/><path class="cls-10" d="M345.35,378.85v-7.93a3.4,3.4,0,0,1,6.8,0v7.93Z"/><path class="cls-10" d="M362.24,378.85v-7.93a3.4,3.4,0,0,1,6.8,0v7.93Z"/><path class="cls-10" d="M379.13,378.85v-7.93a3.4,3.4,0,0,1,6.8,0v7.93Z"/><path class="cls-10" d="M396,378.85v-7.93a3.4,3.4,0,0,1,6.8,0v7.93Z"/><path class="cls-10" d="M412.91,378.85v-7.93a3.4,3.4,0,0,1,6.8,0v7.93Z"/><path class="cls-10" d="M311.57,378.85v-7.93a3.4,3.4,0,0,1,6.8,0v7.93Z"/><path class="cls-10" d="M296.24,378.85v-7.93a3.4,3.4,0,0,1,6.8,0v7.93Z"/><rect class="cls-1" x="284.12" y="308.47" width="92.09" height="47.31" transform="translate(660.32 664.25) rotate(-180)"/><rect class="cls-2" x="369.79" y="308.47" width="5.59" height="47.31" transform="translate(745.16 664.25) rotate(-180)"/><rect class="cls-2" x="297.45" y="308.47" width="5.59" height="47.31" transform="translate(600.49 664.25) rotate(-180)"/><rect class="cls-8" x="282.4" y="308.47" width="5.59" height="49.4" transform="translate(570.39 666.34) rotate(-180)"/><rect class="cls-2" x="310.67" y="308.47" width="5.59" height="47.31" transform="translate(626.92 664.25) rotate(-180)"/><rect class="cls-2" x="325.45" y="308.47" width="5.59" height="47.31" transform="translate(656.48 664.25) rotate(-180)"/><rect class="cls-2" x="340.23" y="308.47" width="5.59" height="47.31" transform="translate(686.04 664.25) rotate(-180)"/><rect class="cls-2" x="355.01" y="308.47" width="5.59" height="47.31" transform="translate(715.6 664.25) rotate(-180)"/><polygon class="cls-8" points="438.52 304.25 283.99 304.25 283.99 308.47 434.3 308.47 438.52 304.25"/><polygon class="cls-1" points="437.6 305.17 283.99 305.17 283.99 305.97 436.81 305.97 437.6 305.17"/><polygon class="cls-1" points="435.93 306.84 283.99 306.84 283.99 307.63 435.14 307.63 435.93 306.84"/><rect class="cls-1" x="390.48" y="308.47" width="25.84" height="47.31" transform="translate(806.79 664.25) rotate(-180)"/><rect class="cls-7" x="396.71" y="333.17" width="13.36" height="19.37" transform="translate(806.79 685.72) rotate(-180)"/><rect class="cls-7" x="398.34" y="309.59" width="10.11" height="12.63" transform="translate(806.79 631.8) rotate(-180)"/><rect class="cls-1" x="378.19" y="276.56" width="52.07" height="7.94" transform="translate(808.45 561.07) rotate(-180)"/><rect class="cls-2" x="378.19" y="274.45" width="52.07" height="8.76" transform="translate(808.45 557.67) rotate(-180)"/><rect class="cls-1" x="378.19" y="280.79" width="52.07" height="0.63" transform="translate(808.45 562.2) rotate(-180)"/><rect class="cls-8" x="384.89" y="308.47" width="5.59" height="47.31" transform="translate(775.36 664.25) rotate(-180)"/><rect class="cls-8" x="416.31" y="308.47" width="5.59" height="47.31" transform="translate(838.21 664.25) rotate(-180)"/><rect class="cls-7" x="283.99" y="297.35" width="150.31" height="2.25" transform="translate(718.29 596.95) rotate(-180)"/><rect class="cls-8" x="283.99" y="296.23" width="150.31" height="2.25" transform="translate(718.29 594.7) rotate(-180)"/><rect class="cls-1" x="375.23" y="284.51" width="1.43" height="71.27" transform="translate(751.88 640.29) rotate(-180)"/><rect class="cls-10" x="282.9" y="357.87" width="150.47" height="1.06" transform="translate(716.26 716.79) rotate(-180)"/></svg>