<svg id="Layer_1" data-name="Layer 1" xmlns="http://www.w3.org/2000/svg" xmlns:xlink="http://www.w3.org/1999/xlink" viewBox="0 0 428 319"><defs><style>.cls-1{fill:#e86261;}.cls-2{fill:#a63d3d;}.cls-3{fill:#f1f1f1;}.cls-4{fill:#fff;}.cls-5{fill:#fafafa;}.cls-6{fill:#f7f7f7;}.cls-7{fill:#e34140;}.cls-8{fill:#8a0000;}.cls-9{fill:url(#linear-gradient);}.cls-10{fill:#df2221;}.cls-11{fill:#da0100;}</style><linearGradient id="linear-gradient" x1="213.29" y1="47.33" x2="213.29" y2="45.14" gradientUnits="userSpaceOnUse"><stop offset="0" stop-color="#a63d3d" stop-opacity="0"/><stop offset="1" stop-color="#8a0000"/></linearGradient></defs><title>brisbane</title><rect class="cls-1" x="157.82" y="217.51" width="111.95" height="99.4"/><rect class="cls-2" x="196.17" y="72.83" width="34.46" height="107.09"/><rect class="cls-3" x="200.41" y="94.75" width="25.99" height="85.03"/><polygon class="cls-1" points="226.48 42.25 201.35 42.25 208.97 17.88 218.87 17.88 226.48 42.25"/><circle class="cls-2" cx="213.4" cy="108.89" r="10.72"/><circle class="cls-4" cx="213.4" cy="108.89" r="10"/><path class="cls-5" d="M213.4,117.85a9,9,0,1,1,9-9A9,9,0,0,1,213.4,117.85Z"/><circle class="cls-6" cx="213.88" cy="109.76" r="7.95"/><rect class="cls-7" x="213.25" y="100.67" width="0.31" height="1.92"/><rect class="cls-7" x="213.25" y="115.21" width="0.31" height="1.92"/><rect class="cls-7" x="220.52" y="107.94" width="0.31" height="1.92" transform="translate(329.57 -111.77) rotate(90)"/><rect class="cls-7" x="205.98" y="107.94" width="0.31" height="1.92" transform="translate(315.04 -97.23) rotate(90)"/><circle class="cls-7" cx="213.22" cy="108.98" r="0.32" transform="translate(-24.05 76.72) rotate(-19.33)"/><polygon class="cls-7" points="216.31 104.7 213.25 109.27 212.93 108.89 216.31 104.7"/><polygon class="cls-7" points="220.67 110.81 213.09 109.27 213.16 108.7 220.67 110.81"/><rect class="cls-8" x="200.41" y="94.5" width="25.99" height="0.94"/><rect class="cls-8" x="183.8" y="137.13" width="84.93" height="0.27" transform="translate(363.53 -88.99) rotate(90)"/><circle class="cls-1" cx="213.9" cy="13.92" r="2.65"/><rect class="cls-1" x="213.08" y="15.43" width="1.63" height="3.76"/><rect class="cls-1" x="213.54" y="9.09" width="0.72" height="3.76"/><rect class="cls-2" x="200.36" y="42.25" width="27.07" height="2.89"/><rect class="cls-8" x="196.17" y="47.33" width="34.46" height="1.9"/><rect class="cls-7" x="196.17" y="89.19" width="34.46" height="1.05"/><polygon class="cls-2" points="230.63 47.33 196.17 47.33 194.51 45.14 232.06 45.14 230.63 47.33"/><polygon class="cls-9" points="230.63 47.33 196.17 47.33 194.51 45.14 232.06 45.14 230.63 47.33"/><rect class="cls-8" x="194.76" y="86.24" width="37.29" height="3.14"/><rect class="cls-1" x="194.76" y="86.87" width="37.29" height="0.22"/><polygon class="cls-8" points="232.05 86.87 194.76 86.87 194.4 86.24 232.41 86.24 232.05 86.87"/><rect class="cls-1" x="198.93" y="49.23" width="28.95" height="23.6"/><rect class="cls-2" x="198.93" y="52.38" width="3.01" height="20.45"/><rect class="cls-2" x="203.15" y="52.38" width="3.01" height="20.45"/><rect class="cls-2" x="220.65" y="52.38" width="3.01" height="20.45"/><rect class="cls-2" x="224.87" y="52.38" width="3.01" height="20.45"/><rect class="cls-2" x="209.52" y="52.38" width="3.01" height="20.45"/><rect class="cls-2" x="214.27" y="52.38" width="3.01" height="20.45"/><rect class="cls-2" x="198.93" y="49.23" width="28.95" height="3.15"/><rect class="cls-2" x="189.66" y="179.93" width="47.48" height="17.08"/><rect class="cls-2" x="188.07" y="183.88" width="50.67" height="2.72"/><rect class="cls-8" x="188.07" y="183.88" width="50.67" height="0.74"/><rect class="cls-8" x="189.66" y="186.6" width="47.48" height="0.42"/><path class="cls-2" d="M233.86,179.66H192.58c-1-2.11-4.52-2.87-4.52-2.87v7.09h50.67v-7.09S234.85,177.54,233.86,179.66Z"/><rect class="cls-2" x="158.91" y="211.71" width="109.07" height="9.89"/><rect class="cls-2" x="160.01" y="221.6" width="8.34" height="64.82"/><polygon class="cls-8" points="168.36 230.78 160.01 230.78 158.91 221.6 169.45 221.6 168.36 230.78"/><rect class="cls-8" x="159.8" y="286.41" width="8.76" height="2.69"/><rect class="cls-8" x="159.51" y="289.1" width="9.36" height="1.79"/><rect class="cls-2" x="175.79" y="221.6" width="7.37" height="64.82"/><polygon class="cls-8" points="183.17 230.78 175.79 230.78 174.82 221.6 184.13 221.6 183.17 230.78"/><rect class="cls-8" x="175.61" y="286.41" width="7.74" height="2.69"/><rect class="cls-8" x="175.34" y="289.1" width="8.27" height="1.79"/><rect class="cls-2" x="189.48" y="221.6" width="7.37" height="64.82"/><polygon class="cls-8" points="196.85 230.78 189.48 230.78 188.5 221.6 197.81 221.6 196.85 230.78"/><rect class="cls-8" x="189.29" y="286.41" width="7.74" height="2.69"/><rect class="cls-8" x="189.03" y="289.1" width="8.27" height="1.79"/><rect class="cls-2" x="203.16" y="221.6" width="7.37" height="64.82"/><polygon class="cls-8" points="210.54 230.78 203.16 230.78 202.19 221.6 211.5 221.6 210.54 230.78"/><rect class="cls-8" x="202.98" y="286.41" width="7.74" height="2.69"/><rect class="cls-8" x="202.71" y="289.1" width="8.27" height="1.79"/><rect class="cls-2" x="216.85" y="221.6" width="7.37" height="64.82"/><polygon class="cls-8" points="224.22 230.78 216.85 230.78 215.88 221.6 225.19 221.6 224.22 230.78"/><rect class="cls-8" x="216.66" y="286.41" width="7.74" height="2.69"/><rect class="cls-8" x="216.4" y="289.1" width="8.27" height="1.79"/><rect class="cls-2" x="230.53" y="221.6" width="7.37" height="64.82"/><polygon class="cls-8" points="237.91 230.78 230.53 230.78 229.56 221.6 238.87 221.6 237.91 230.78"/><rect class="cls-8" x="230.35" y="286.41" width="7.74" height="2.69"/><rect class="cls-8" x="230.09" y="289.1" width="8.27" height="1.79"/><rect class="cls-2" x="258.55" y="221.6" width="8.35" height="64.82"/><polygon class="cls-8" points="266.9 230.78 258.55 230.78 257.45 221.6 267.99 221.6 266.9 230.78"/><rect class="cls-8" x="258.34" y="286.41" width="8.76" height="2.69"/><rect class="cls-8" x="258.04" y="289.1" width="9.36" height="1.79"/><rect class="cls-2" x="244.22" y="221.6" width="7.37" height="64.82"/><polygon class="cls-8" points="251.59 230.78 244.22 230.78 243.25 221.6 252.56 221.6 251.59 230.78"/><rect class="cls-8" x="244.03" y="286.41" width="7.74" height="2.69"/><rect class="cls-8" x="243.77" y="289.1" width="8.27" height="1.79"/><rect class="cls-10" x="157.82" y="290.87" width="111.95" height="3.13"/><polygon class="cls-8" points="213.4 184.18 273.65 205.64 153.15 205.64 213.4 184.18"/><polygon class="cls-2" points="213.4 185.89 269.24 205.64 157.57 205.64 213.4 185.89"/><polygon class="cls-8" points="213.4 188.68 262.74 205.64 164.06 205.64 213.4 188.68"/><polygon class="cls-3" points="213.32 189.13 261.38 205.64 165.27 205.64 213.32 189.13"/><polygon class="cls-8" points="267.89 211.71 158.91 211.71 153.15 208.31 273.65 208.31 267.89 211.71"/><rect class="cls-2" x="153.15" y="205.64" width="120.5" height="2.67"/><rect class="cls-8" x="154.43" y="221.6" width="5.59" height="69.27"/><rect class="cls-7" x="157.82" y="293.24" width="111.95" height="23.67"/><rect class="cls-2" x="9.7" y="217.51" width="149.21" height="99.4"/><rect class="cls-10" x="157.82" y="311.85" width="111.95" height="5.05"/><rect class="cls-8" x="9.7" y="311.85" width="149.21" height="5.05"/><rect class="cls-11" x="178.64" y="300.02" width="10.51" height="16.88"/><rect class="cls-11" x="207.72" y="300.02" width="10.51" height="16.88"/><rect class="cls-11" x="235.65" y="300.02" width="10.51" height="16.88"/><rect class="cls-1" x="9.7" y="217.51" width="149.21" height="0.63"/><rect class="cls-8" x="9.7" y="288.78" width="150.31" height="2.11"/><path class="cls-10" d="M113,311.85v-7.93a3.4,3.4,0,0,0-6.8,0v7.93Z"/><path class="cls-10" d="M96.15,311.85v-7.93a3.4,3.4,0,0,0-6.8,0v7.93Z"/><path class="cls-10" d="M79.26,311.85v-7.93a3.4,3.4,0,0,0-6.8,0v7.93Z"/><path class="cls-10" d="M62.37,311.85v-7.93a3.4,3.4,0,0,0-6.8,0v7.93Z"/><path class="cls-10" d="M45.48,311.85v-7.93a3.4,3.4,0,0,0-6.8,0v7.93Z"/><path class="cls-10" d="M28.59,311.85v-7.93a3.4,3.4,0,0,0-6.8,0v7.93Z"/><path class="cls-10" d="M129.93,311.85v-7.93a3.4,3.4,0,0,0-6.8,0v7.93Z"/><path class="cls-10" d="M146.82,311.85v-7.93a3.4,3.4,0,0,0-6.8,0v7.93Z"/><rect class="cls-1" x="66.86" y="241.47" width="92.09" height="47.31"/><rect class="cls-2" x="66.13" y="241.47" width="5.59" height="47.31"/><rect class="cls-2" x="140.03" y="241.47" width="5.59" height="47.31"/><rect class="cls-8" x="154.43" y="241.47" width="5.59" height="49.4"/><rect class="cls-2" x="125.25" y="241.47" width="5.59" height="47.31"/><rect class="cls-2" x="110.47" y="241.47" width="5.59" height="47.31"/><rect class="cls-2" x="95.69" y="241.47" width="5.59" height="47.31"/><rect class="cls-2" x="80.91" y="241.47" width="5.59" height="47.31"/><polygon class="cls-8" points="5.48 237.25 160.01 237.25 160.01 241.47 9.7 241.47 5.48 237.25"/><polygon class="cls-1" points="6.4 238.17 160.01 238.17 160.01 238.97 7.19 238.97 6.4 238.17"/><polygon class="cls-1" points="8.07 239.84 160.01 239.84 160.01 240.63 8.86 240.63 8.07 239.84"/><rect class="cls-1" x="25.19" y="241.47" width="25.84" height="47.31"/><rect class="cls-7" x="31.43" y="266.17" width="13.36" height="19.37"/><rect class="cls-7" x="33.05" y="242.59" width="10.11" height="12.63"/><rect class="cls-1" x="11.24" y="209.56" width="52.07" height="7.94"/><rect class="cls-2" x="11.24" y="207.45" width="52.07" height="8.76"/><rect class="cls-1" x="11.24" y="213.79" width="52.07" height="0.63"/><rect class="cls-8" x="51.03" y="241.47" width="5.59" height="47.31"/><rect class="cls-8" x="19.6" y="241.47" width="5.59" height="47.31"/><rect class="cls-7" x="9.7" y="230.35" width="150.31" height="2.25"/><rect class="cls-8" x="9.7" y="229.23" width="150.31" height="2.25"/><rect class="cls-1" x="64.85" y="217.51" width="1.43" height="71.27"/><rect class="cls-10" x="9.7" y="290.87" width="150.47" height="1.06"/><rect class="cls-8" x="266.4" y="221.6" width="5.59" height="69.27" transform="translate(538.39 512.47) rotate(-180)"/><rect class="cls-2" x="267.99" y="217.51" width="149.21" height="99.4" transform="translate(685.19 534.41) rotate(-180)"/><rect class="cls-8" x="268.15" y="311.85" width="149.21" height="5.05" transform="translate(685.52 628.76) rotate(-180)"/><rect class="cls-1" x="267.99" y="217.51" width="149.21" height="0.63" transform="translate(685.19 435.64) rotate(-180)"/><rect class="cls-8" x="267.05" y="288.78" width="150.31" height="2.11" transform="translate(684.42 579.67) rotate(-180)"/><path class="cls-10" d="M312.46,311.85v-7.93a3.4,3.4,0,0,1,6.8,0v7.93Z"/><path class="cls-10" d="M329.35,311.85v-7.93a3.4,3.4,0,0,1,6.8,0v7.93Z"/><path class="cls-10" d="M346.24,311.85v-7.93a3.4,3.4,0,0,1,6.8,0v7.93Z"/><path class="cls-10" d="M363.13,311.85v-7.93a3.4,3.4,0,0,1,6.8,0v7.93Z"/><path class="cls-10" d="M380,311.85v-7.93a3.4,3.4,0,0,1,6.8,0v7.93Z"/><path class="cls-10" d="M396.91,311.85v-7.93a3.4,3.4,0,0,1,6.8,0v7.93Z"/><path class="cls-10" d="M295.57,311.85v-7.93a3.4,3.4,0,0,1,6.8,0v7.93Z"/><path class="cls-10" d="M280.24,311.85v-7.93a3.4,3.4,0,0,1,6.8,0v7.93Z"/><rect class="cls-1" x="268.12" y="241.47" width="92.09" height="47.31" transform="translate(628.32 530.25) rotate(-180)"/><rect class="cls-2" x="353.79" y="241.47" width="5.59" height="47.31" transform="translate(713.16 530.25) rotate(-180)"/><rect class="cls-2" x="281.45" y="241.47" width="5.59" height="47.31" transform="translate(568.49 530.25) rotate(-180)"/><rect class="cls-8" x="266.4" y="241.47" width="5.59" height="49.4" transform="translate(538.39 532.34) rotate(-180)"/><rect class="cls-2" x="294.67" y="241.47" width="5.59" height="47.31" transform="translate(594.92 530.25) rotate(-180)"/><rect class="cls-2" x="309.45" y="241.47" width="5.59" height="47.31" transform="translate(624.48 530.25) rotate(-180)"/><rect class="cls-2" x="324.23" y="241.47" width="5.59" height="47.31" transform="translate(654.04 530.25) rotate(-180)"/><rect class="cls-2" x="339.01" y="241.47" width="5.59" height="47.31" transform="translate(683.6 530.25) rotate(-180)"/><polygon class="cls-8" points="422.52 237.25 267.99 237.25 267.99 241.47 418.3 241.47 422.52 237.25"/><polygon class="cls-1" points="421.6 238.17 267.99 238.17 267.99 238.97 420.81 238.97 421.6 238.17"/><polygon class="cls-1" points="419.93 239.84 267.99 239.84 267.99 240.63 419.14 240.63 419.93 239.84"/><rect class="cls-1" x="374.48" y="241.47" width="25.84" height="47.31" transform="translate(774.79 530.25) rotate(-180)"/><rect class="cls-7" x="380.71" y="266.17" width="13.36" height="19.37" transform="translate(774.79 551.72) rotate(-180)"/><rect class="cls-7" x="382.34" y="242.59" width="10.11" height="12.63" transform="translate(774.79 497.8) rotate(-180)"/><rect class="cls-1" x="362.19" y="209.56" width="52.07" height="7.94" transform="translate(776.45 427.07) rotate(-180)"/><rect class="cls-2" x="362.19" y="207.45" width="52.07" height="8.76" transform="translate(776.45 423.67) rotate(-180)"/><rect class="cls-1" x="362.19" y="213.79" width="52.07" height="0.63" transform="translate(776.45 428.2) rotate(-180)"/><rect class="cls-8" x="368.89" y="241.47" width="5.59" height="47.31" transform="translate(743.36 530.25) rotate(-180)"/><rect class="cls-8" x="400.31" y="241.47" width="5.59" height="47.31" transform="translate(806.21 530.25) rotate(-180)"/><rect class="cls-7" x="267.99" y="230.35" width="150.31" height="2.25" transform="translate(686.29 462.95) rotate(-180)"/><rect class="cls-8" x="267.99" y="229.23" width="150.31" height="2.25" transform="translate(686.29 460.7) rotate(-180)"/><rect class="cls-1" x="359.23" y="217.51" width="1.43" height="71.27" transform="translate(719.88 506.29) rotate(-180)"/><rect class="cls-10" x="266.9" y="290.87" width="150.47" height="1.06" transform="translate(684.26 582.79) rotate(-180)"/></svg>