<svg id="Layer_1" data-name="Layer 1" xmlns="http://www.w3.org/2000/svg" viewBox="0 0 985 152"><defs><style>.cls-1{fill:#202020;}</style></defs><title>brisbane</title><rect class="cls-1" x="211.53" y="11.87" width="3.43" height="77.49"/><rect class="cls-1" x="209.58" y="3.68" width="7.33" height="8.76" rx="3.67" ry="3.67"/><rect class="cls-1" x="772.75" y="11.87" width="3.43" height="77.49"/><rect class="cls-1" x="770.8" y="9.05" width="7.33" height="8.76" rx="3.67" ry="3.67"/><path class="cls-1" d="M209.9,6.1s-31,27.73-99.7,54.6v3S170.5,40.82,209.9,9.49Z"/><rect class="cls-1" x="201.13" y="8.23" width="1.35" height="51.14" transform="translate(32.04 -80.43) rotate(24.43)"/><rect class="cls-1" x="190.55" y="20.42" width="1.35" height="69.87"/><rect class="cls-1" x="171.08" y="32.94" width="1.35" height="57.35"/><rect class="cls-1" x="148.93" y="43.68" width="1.35" height="48.5"/><rect class="cls-1" x="127.94" y="54.97" width="1.35" height="42.58"/><rect class="cls-1" x="108.47" y="62.92" width="1.35" height="34.63"/><rect class="cls-1" x="181.24" y="18.27" width="1.35" height="48.31" transform="translate(33.83 -71.43) rotate(24.43)"/><rect class="cls-1" x="160.64" y="30.39" width="1.35" height="43.18" transform="translate(47.6 -73.69) rotate(30)"/><rect class="cls-1" x="201.05" y="53.66" width="1.35" height="42.09" transform="translate(-10.32 110.87) rotate(-30)"/><rect class="cls-1" x="183.48" y="59.85" width="1.35" height="42.69" transform="translate(-13.13 121.01) rotate(-35.2)"/><rect class="cls-1" x="161.33" y="65.81" width="1.35" height="36.64" transform="translate(-16.84 120.71) rotate(-39)"/><rect class="cls-1" x="138.3" y="42.42" width="1.35" height="36.39" transform="translate(56.69 -66.73) rotate(33.57)"/><rect class="cls-1" x="137.07" y="71.87" width="1.35" height="28.4" transform="translate(-23.47 105.87) rotate(-39)"/><rect class="cls-1" x="118.42" y="52.76" width="1.35" height="28.99" transform="translate(72.89 -61.47) rotate(40.8)"/><rect class="cls-1" x="117.87" y="74.19" width="1.35" height="28.11" transform="translate(-29.12 94.28) rotate(-39)"/><rect class="cls-1" x="91.09" y="79.36" width="1.35" height="18.26"/><rect class="cls-1" x="100.48" y="74.26" width="1.35" height="28.11" transform="translate(-33.04 83.35) rotate(-39)"/><rect class="cls-1" x="225.12" y="8.23" width="1.35" height="51.14" transform="translate(445.36 -28.79) rotate(155.57)"/><rect class="cls-1" x="235.7" y="16.84" width="1.35" height="73.45" transform="translate(472.75 107.13) rotate(180)"/><rect class="cls-1" x="256.95" y="26.75" width="1.35" height="63.9" transform="translate(515.25 117.39) rotate(180)"/><rect class="cls-1" x="280.73" y="35.95" width="1.35" height="53.21" transform="translate(562.81 125.11) rotate(180)"/><rect class="cls-1" x="304.08" y="44.58" width="1.35" height="46.71" transform="translate(609.51 135.88) rotate(180)"/><rect class="cls-1" x="327.85" y="52.01" width="1.35" height="39.66" transform="translate(657.04 143.68) rotate(180)"/><rect class="cls-1" x="246.79" y="15.45" width="1.35" height="48.31" transform="translate(489.16 -26.68) rotate(155.57)"/><rect class="cls-1" x="268.35" y="25.07" width="1.35" height="45.84" transform="translate(526.01 -44.96) rotate(150)"/><rect class="cls-1" x="225.2" y="53.66" width="1.35" height="42.09" transform="translate(384.13 252.33) rotate(-150)"/><rect class="cls-1" x="244.55" y="57.03" width="1.35" height="42.69" transform="translate(400.43 283.77) rotate(-144.8)"/><rect class="cls-1" x="268.33" y="62.98" width="1.35" height="36.64" transform="translate(426.88 313.79) rotate(-141)"/><rect class="cls-1" x="292.58" y="32.44" width="1.35" height="40.5" transform="translate(566.73 -65.55) rotate(146.43)"/><rect class="cls-1" x="294.95" y="65.66" width="1.35" height="28.4" transform="translate(475.1 327.98) rotate(-141)"/><rect class="cls-1" x="315.77" y="41.16" width="1.35" height="35.51" transform="translate(594.48 -103.26) rotate(139.2)"/><rect class="cls-1" x="340.79" y="48.02" width="1.35" height="30.46" transform="translate(633.8 -124.21) rotate(136.83)"/><rect class="cls-1" x="317.48" y="67.51" width="1.35" height="28.11" transform="translate(471.59 371.97) rotate(-132.23)"/><rect class="cls-1" x="352.2" y="57.04" width="1.35" height="35.57" transform="translate(705.76 149.66) rotate(180)"/><rect class="cls-1" x="341.22" y="68.85" width="1.35" height="28.11" transform="translate(502.53 395.9) rotate(-130.8)"/><rect class="cls-1" x="376.37" y="61.43" width="1.35" height="33.87" transform="translate(754.09 156.73) rotate(180)"/><rect class="cls-1" x="364.32" y="57.56" width="1.35" height="37.35" transform="translate(603.94 362.48) rotate(-141.65)"/><rect class="cls-1" x="401.5" y="62.61" width="1.35" height="32.69" transform="translate(804.35 157.91) rotate(180)"/><rect class="cls-1" x="389.57" y="58.75" width="1.35" height="36.02" transform="matrix(-0.77, -0.63, 0.63, -0.77, 643.55, 383.39)"/><rect class="cls-1" x="425.67" y="64.19" width="1.35" height="31.11" transform="matrix(-1, 0, 0, -1, 852.69, 159.49)"/><rect class="cls-1" x="413.75" y="59.73" width="1.35" height="35.19" transform="translate(676.32 407.68) rotate(-138.97)"/><rect class="cls-1" x="525.02" y="64.19" width="1.35" height="31.11" transform="matrix(-1, 0, 0, -1, 1051.4, 159.49)"/><rect class="cls-1" x="500.18" y="64.19" width="1.35" height="31.11" transform="matrix(-1, 0, 0, -1, 1001.71, 159.49)"/><rect class="cls-1" x="513.11" y="59.73" width="1.35" height="35.19" transform="translate(850.63 472.9) rotate(-138.97)"/><rect class="cls-1" x="549.19" y="64.19" width="1.35" height="31.11" transform="matrix(-1, 0, 0, -1, 1099.73, 159.49)"/><rect class="cls-1" x="537.27" y="59.73" width="1.35" height="35.19" transform="translate(893.03 488.76) rotate(-138.97)"/><rect class="cls-1" x="573.36" y="64.19" width="1.35" height="31.11" transform="matrix(-1, 0, 0, -1, 1148.07, 159.49)"/><rect class="cls-1" x="561.44" y="59.73" width="1.35" height="35.19" transform="translate(935.43 504.62) rotate(-138.97)"/><rect class="cls-1" x="426" y="64.19" width="1.35" height="31.11"/><rect class="cls-1" x="437.92" y="59.73" width="1.35" height="35.19" transform="translate(56.96 306.88) rotate(-41.03)"/><rect class="cls-1" x="585.1" y="59.73" width="1.35" height="35.19" transform="translate(93.1 403.49) rotate(-41.03)"/><rect class="cls-1" x="597.53" y="64.19" width="1.35" height="31.11" transform="matrix(-1, 0, 0, -1, 1196.4, 159.49)"/><rect class="cls-1" x="609.27" y="59.73" width="1.35" height="35.19" transform="translate(99.04 419.35) rotate(-41.03)"/><rect class="cls-1" x="621.02" y="62.39" width="1.35" height="32.91" transform="translate(1243.38 157.69) rotate(180)"/><rect class="cls-1" x="632.56" y="59.24" width="1.35" height="35.16" transform="translate(105.09 434.52) rotate(-41.03)"/><rect class="cls-1" x="450.17" y="64.19" width="1.35" height="31.11"/><rect class="cls-1" x="462.08" y="59.73" width="1.35" height="35.19" transform="translate(62.89 322.74) rotate(-41.03)"/><rect class="cls-1" x="475.01" y="64.19" width="1.35" height="31.11"/><rect class="cls-1" x="486.93" y="59.73" width="1.35" height="35.19" transform="translate(68.99 339.05) rotate(-41.03)"/><rect class="cls-1" x="66.06" y="99.66" width="21.24" height="48.65"/><rect class="cls-1" x="208.38" y="99.66" width="21.24" height="48.65"/><rect class="cls-1" x="764.22" y="99.66" width="21.24" height="48.65"/><rect class="cls-1" x="906.54" y="99.66" width="21.24" height="48.65"/><rect class="cls-1" x="3.5" y="89.36" width="978" height="10.31"/><polygon class="cls-1" points="110.19 60.7 110.19 63.71 79.55 91.5 75.95 91.5 110.19 60.7"/><path class="cls-1" d="M777.61,12s37.61,32.73,85.87,48.66v3S815,48.14,777.61,15.43Z"/><rect class="cls-1" x="783.94" y="14.95" width="1.35" height="48.73" transform="translate(1534.39 -195.19) rotate(159.76)"/><rect class="cls-1" x="793" y="26.34" width="1.35" height="68.86" transform="translate(1587.34 121.53) rotate(180)"/><rect class="cls-1" x="811.77" y="39.21" width="1.35" height="55.83" transform="translate(1624.89 134.24) rotate(180)"/><rect class="cls-1" x="830.13" y="47.86" width="1.35" height="47.48" transform="translate(1661.62 143.21) rotate(180)"/><rect class="cls-1" x="848.41" y="56.74" width="1.35" height="40.81" transform="matrix(-1, 0, 0, -1, 1698.17, 154.29)"/><rect class="cls-1" x="866.55" y="65.31" width="1.35" height="32.24" transform="translate(1734.44 162.87) rotate(180)"/><rect class="cls-1" x="802.32" y="26.28" width="1.35" height="44.9" transform="translate(1554.26 -238.98) rotate(155.57)"/><rect class="cls-1" x="821.21" y="37.25" width="1.35" height="38.49" transform="translate(1581.36 -262.69) rotate(153.27)"/><rect class="cls-1" x="782.5" y="58.56" width="1.35" height="42.09" transform="translate(1421.61 540.13) rotate(-150)"/><rect class="cls-1" x="801.39" y="65.24" width="1.35" height="35.68" transform="translate(1409.56 613.34) rotate(-144.8)"/><rect class="cls-1" x="819.87" y="69.73" width="1.35" height="29.87" transform="translate(1404.91 666.88) rotate(-141)"/><rect class="cls-1" x="839.03" y="45.69" width="1.35" height="32.82" transform="translate(1573.72 -350.44) rotate(146.43)"/><rect class="cls-1" x="839.28" y="71.87" width="1.35" height="28.4" transform="translate(1438.53 681.6) rotate(-141)"/><rect class="cls-1" x="856.6" y="52.76" width="1.35" height="28.99" transform="translate(1550.17 -441.98) rotate(139.2)"/><rect class="cls-1" x="857.15" y="74.19" width="1.35" height="28.11" transform="translate(1468.9 696.71) rotate(-141)"/><rect class="cls-1" x="881.24" y="79.36" width="1.35" height="18.26" transform="translate(1763.83 176.98) rotate(180)"/><rect class="cls-1" x="871.84" y="74.26" width="1.35" height="28.11" transform="translate(1494.98 706.08) rotate(-141)"/><polygon class="cls-1" points="863.49 60.7 863.49 63.71 894.13 91.5 897.73 91.5 863.49 60.7"/><rect class="cls-1" x="742.4" y="20.7" width="1.35" height="46.48" transform="translate(84.69 -303.36) rotate(24.43)"/><rect class="cls-1" x="732.79" y="30.91" width="1.35" height="64.71"/><rect class="cls-1" x="710.58" y="39.8" width="1.35" height="50.2"/><rect class="cls-1" x="689.57" y="46.41" width="1.35" height="43.63"/><rect class="cls-1" x="666.76" y="53.56" width="1.35" height="40.3"/><rect class="cls-1" x="644.6" y="59.23" width="1.35" height="34.63"/><rect class="cls-1" x="721.94" y="28.99" width="1.35" height="41.37" transform="translate(131.91 -369.51) rotate(31.43)"/><rect class="cls-1" x="700.09" y="37.54" width="1.35" height="37.04" transform="translate(155.58 -387.78) rotate(34.58)"/><rect class="cls-1" x="742.2" y="61.96" width="1.35" height="37.74" transform="translate(59.11 382.27) rotate(-30)"/><rect class="cls-1" x="763.56" y="13.71" width="1.35" height="48.72" transform="translate(73.05 -290.22) rotate(22.55)"/><rect class="cls-1" x="754.27" y="21.62" width="1.35" height="74"/><rect class="cls-1" x="763.69" y="58.57" width="1.35" height="37.74" transform="translate(63.69 392.56) rotate(-30)"/><rect class="cls-1" x="721.67" y="62.67" width="1.35" height="38.16" transform="translate(84.98 431.36) rotate(-35.2)"/><rect class="cls-1" x="700.59" y="67.34" width="1.35" height="33.54" transform="translate(103.37 460.1) rotate(-39)"/><rect class="cls-1" x="678.37" y="43.35" width="1.35" height="33.05" transform="translate(216.58 -440.93) rotate(42.24)"/><rect class="cls-1" x="675.89" y="68.18" width="1.35" height="28.4" transform="translate(98.95 444.17) rotate(-39)"/><rect class="cls-1" x="655.28" y="49.81" width="1.35" height="31.21" transform="translate(202.14 -412.72) rotate(40.8)"/><rect class="cls-1" x="656.01" y="71.78" width="1.35" height="28.11" transform="translate(180.22 545.81) rotate(-51.44)"/><rect class="cls-1" x="401.5" y="62.68" width="197.37" height="2.69"/><path class="cls-1" d="M598.87,62.68s36.56-1.92,56.35-7.55c31.58-9.16,83-25.06,116.47-44.45l-.11,4.79S729.13,37.71,655.23,57.84c-24.07,5.87-56.35,7.53-56.35,7.53Z"/><path class="cls-1" d="M403.12,62.68s-36.56-1.92-56.35-7.55C315.19,46,250,25.06,216.56,5.67l.11,4.79s56.19,27.25,130.1,47.38c24.07,5.87,56.35,7.53,56.35,7.53Z"/></svg>