<svg id="Layer_1" data-name="Layer 1" xmlns="http://www.w3.org/2000/svg" viewBox="0 0 1003 460"><defs><style>.cls-1{fill:#202020;}</style></defs><title>brisbane</title><rect class="cls-1" x="220.53" y="165.87" width="3.43" height="77.49"/><rect class="cls-1" x="218.58" y="157.68" width="7.33" height="8.76" rx="3.67" ry="3.67"/><rect class="cls-1" x="781.75" y="165.87" width="3.43" height="77.49"/><rect class="cls-1" x="779.8" y="163.05" width="7.33" height="8.76" rx="3.67" ry="3.67"/><path class="cls-1" d="M218.9,160.1s-31,27.73-99.7,54.6v3s60.31-22.89,99.7-54.22Z"/><rect class="cls-1" x="210.13" y="162.23" width="1.35" height="51.14" transform="translate(96.54 -70.37) rotate(24.43)"/><rect class="cls-1" x="199.55" y="174.42" width="1.35" height="69.87"/><rect class="cls-1" x="180.08" y="186.94" width="1.35" height="57.35"/><rect class="cls-1" x="157.93" y="197.68" width="1.35" height="48.5"/><rect class="cls-1" x="136.94" y="208.97" width="1.35" height="42.58"/><rect class="cls-1" x="117.47" y="216.92" width="1.35" height="34.63"/><rect class="cls-1" x="190.24" y="172.27" width="1.35" height="48.31" transform="translate(98.32 -61.37) rotate(24.43)"/><rect class="cls-1" x="169.64" y="184.39" width="1.35" height="43.18" transform="translate(125.8 -57.56) rotate(30)"/><rect class="cls-1" x="210.05" y="207.66" width="1.35" height="42.09" transform="translate(-86.12 136) rotate(-30)"/><rect class="cls-1" x="192.48" y="213.85" width="1.35" height="42.69" transform="translate(-100.26 154.36) rotate(-35.2)"/><rect class="cls-1" x="170.33" y="219.81" width="1.35" height="36.64" transform="translate(-111.76 160.7) rotate(-39)"/><rect class="cls-1" x="147.3" y="196.42" width="1.35" height="36.39" transform="translate(143.34 -46.03) rotate(33.57)"/><rect class="cls-1" x="146.07" y="225.87" width="1.35" height="28.4" transform="translate(-118.39 145.86) rotate(-39)"/><rect class="cls-1" x="127.42" y="206.76" width="1.35" height="28.99" transform="translate(175.7 -29.93) rotate(40.8)"/><rect class="cls-1" x="126.87" y="228.19" width="1.35" height="28.11" transform="translate(-124.03 134.26) rotate(-39)"/><rect class="cls-1" x="100.09" y="233.36" width="1.35" height="18.26"/><rect class="cls-1" x="109.48" y="228.26" width="1.35" height="28.11" transform="translate(-127.95 123.34) rotate(-39)"/><rect class="cls-1" x="234.12" y="162.23" width="1.35" height="51.14" transform="translate(526.24 261.7) rotate(155.57)"/><rect class="cls-1" x="244.7" y="170.84" width="1.35" height="73.45" transform="translate(490.75 415.13) rotate(180)"/><rect class="cls-1" x="265.95" y="180.75" width="1.35" height="63.9" transform="translate(533.25 425.39) rotate(180)"/><rect class="cls-1" x="289.73" y="189.95" width="1.35" height="53.21" transform="translate(580.81 433.11) rotate(180)"/><rect class="cls-1" x="313.08" y="198.58" width="1.35" height="46.71" transform="translate(627.51 443.88) rotate(180)"/><rect class="cls-1" x="336.85" y="206.01" width="1.35" height="39.66" transform="translate(675.04 451.68) rotate(180)"/><rect class="cls-1" x="255.79" y="169.45" width="1.35" height="48.31" transform="translate(570.04 263.81) rotate(155.57)"/><rect class="cls-1" x="277.35" y="179.07" width="1.35" height="45.84" transform="translate(619.8 237.91) rotate(150)"/><rect class="cls-1" x="234.2" y="207.66" width="1.35" height="42.09" transform="translate(323.93 544.2) rotate(-150)"/><rect class="cls-1" x="253.55" y="211.03" width="1.35" height="42.69" transform="translate(328 568.8) rotate(-144.8)"/><rect class="cls-1" x="277.33" y="216.98" width="1.35" height="36.64" transform="translate(345.95 593.13) rotate(-141)"/><rect class="cls-1" x="301.58" y="186.44" width="1.35" height="40.5" transform="translate(668.38 211.79) rotate(146.43)"/><rect class="cls-1" x="303.95" y="219.66" width="1.35" height="28.4" transform="translate(394.17 607.32) rotate(-141)"/><rect class="cls-1" x="324.77" y="195.16" width="1.35" height="35.51" transform="translate(710.92 161.44) rotate(139.2)"/><rect class="cls-1" x="349.79" y="202.02" width="1.35" height="30.46" transform="translate(754.71 135.96) rotate(136.83)"/><rect class="cls-1" x="326.48" y="221.51" width="1.35" height="28.11" transform="translate(372.61 636.14) rotate(-132.23)"/><rect class="cls-1" x="361.2" y="211.04" width="1.35" height="35.57" transform="translate(723.76 457.66) rotate(180)"/><rect class="cls-1" x="350.22" y="222.85" width="1.35" height="28.11" transform="translate(400.84 657.34) rotate(-130.8)"/><rect class="cls-1" x="385.37" y="215.43" width="1.35" height="33.87" transform="translate(772.09 464.73) rotate(180)"/><rect class="cls-1" x="373.32" y="211.56" width="1.35" height="37.35" transform="translate(524.44 642.84) rotate(-141.65)"/><rect class="cls-1" x="410.5" y="216.61" width="1.35" height="32.69" transform="translate(822.35 465.91) rotate(180)"/><rect class="cls-1" x="398.57" y="212.75" width="1.35" height="36.02" transform="translate(561.94 662.24) rotate(-140.69)"/><rect class="cls-1" x="434.67" y="218.19" width="1.35" height="31.11" transform="matrix(-1, 0, 0, -1, 870.69, 467.49)"/><rect class="cls-1" x="422.75" y="213.73" width="1.35" height="35.19" transform="translate(591.03 683.77) rotate(-138.97)"/><rect class="cls-1" x="534.02" y="218.19" width="1.35" height="31.11" transform="matrix(-1, 0, 0, -1, 1069.4, 467.49)"/><rect class="cls-1" x="509.18" y="218.19" width="1.35" height="31.11" transform="matrix(-1, 0, 0, -1, 1019.71, 467.49)"/><rect class="cls-1" x="522.11" y="213.73" width="1.35" height="35.19" transform="translate(765.33 748.98) rotate(-138.97)"/><rect class="cls-1" x="558.19" y="218.19" width="1.35" height="31.11" transform="matrix(-1, 0, 0, -1, 1117.73, 467.49)"/><rect class="cls-1" x="546.27" y="213.73" width="1.35" height="35.19" transform="matrix(-0.75, -0.66, 0.66, -0.75, 807.73, 764.85)"/><rect class="cls-1" x="582.36" y="218.19" width="1.35" height="31.11" transform="matrix(-1, 0, 0, -1, 1166.07, 467.49)"/><rect class="cls-1" x="570.44" y="213.73" width="1.35" height="35.19" transform="translate(850.13 780.71) rotate(-138.97)"/><rect class="cls-1" x="435" y="218.19" width="1.35" height="31.11"/><rect class="cls-1" x="446.92" y="213.73" width="1.35" height="35.19" transform="translate(-41.92 350.61) rotate(-41.03)"/><rect class="cls-1" x="594.1" y="213.73" width="1.35" height="35.19" transform="translate(-5.77 447.22) rotate(-41.03)"/><rect class="cls-1" x="606.53" y="218.19" width="1.35" height="31.11" transform="matrix(-1, 0, 0, -1, 1214.4, 467.49)"/><rect class="cls-1" x="618.27" y="213.73" width="1.35" height="35.19" transform="translate(0.16 463.08) rotate(-41.03)"/><rect class="cls-1" x="630.02" y="216.39" width="1.35" height="32.91" transform="translate(1261.39 465.69) rotate(180)"/><rect class="cls-1" x="641.56" y="213.24" width="1.35" height="35.16" transform="translate(6.21 478.25) rotate(-41.03)"/><rect class="cls-1" x="459.17" y="218.19" width="1.35" height="31.11"/><rect class="cls-1" x="471.08" y="213.73" width="1.35" height="35.19" transform="translate(-35.98 366.47) rotate(-41.03)"/><rect class="cls-1" x="484.01" y="218.19" width="1.35" height="31.11"/><rect class="cls-1" x="495.93" y="213.73" width="1.35" height="35.19" transform="translate(-29.88 382.78) rotate(-41.03)"/><rect class="cls-1" x="75.06" y="253.66" width="21.24" height="48.65"/><rect class="cls-1" x="217.38" y="253.66" width="21.24" height="48.65"/><rect class="cls-1" x="773.22" y="253.66" width="21.24" height="48.65"/><rect class="cls-1" x="915.54" y="253.66" width="21.24" height="48.65"/><rect class="cls-1" x="12.5" y="243.36" width="978" height="10.31"/><polygon class="cls-1" points="119.19 214.7 119.19 217.71 88.55 245.5 84.95 245.5 119.19 214.7"/><path class="cls-1" d="M786.61,166s37.61,32.73,85.87,48.66v3S824,202.14,786.61,169.43Z"/><rect class="cls-1" x="792.94" y="168.95" width="1.35" height="48.73" transform="translate(1605.1 100.19) rotate(159.76)"/><rect class="cls-1" x="802" y="180.34" width="1.35" height="68.86" transform="translate(1605.34 429.53) rotate(180)"/><rect class="cls-1" x="820.77" y="193.21" width="1.35" height="55.83" transform="translate(1642.89 442.24) rotate(180)"/><rect class="cls-1" x="839.13" y="201.86" width="1.35" height="47.48" transform="translate(1679.62 451.21) rotate(180)"/><rect class="cls-1" x="857.41" y="210.74" width="1.35" height="40.81" transform="matrix(-1, 0, 0, -1, 1716.17, 462.29)"/><rect class="cls-1" x="875.55" y="219.31" width="1.35" height="32.24" transform="translate(1752.44 470.87) rotate(180)"/><rect class="cls-1" x="811.32" y="180.28" width="1.35" height="44.9" transform="translate(1635.14 51.51) rotate(155.57)"/><rect class="cls-1" x="830.21" y="191.25" width="1.35" height="38.49" transform="translate(1667.66 24.81) rotate(153.27)"/><rect class="cls-1" x="791.5" y="212.56" width="1.35" height="42.09" transform="translate(1361.41 831.99) rotate(-150)"/><rect class="cls-1" x="810.39" y="219.24" width="1.35" height="35.68" transform="translate(1337.13 898.36) rotate(-144.8)"/><rect class="cls-1" x="828.87" y="223.73" width="1.35" height="29.87" transform="translate(1323.98 946.22) rotate(-141)"/><rect class="cls-1" x="848.03" y="199.69" width="1.35" height="32.82" transform="translate(1675.37 -73.1) rotate(146.43)"/><rect class="cls-1" x="848.28" y="225.87" width="1.35" height="28.4" transform="translate(1357.6 960.94) rotate(-141)"/><rect class="cls-1" x="865.6" y="206.76" width="1.35" height="28.99" transform="translate(1666.61 -177.29) rotate(139.2)"/><rect class="cls-1" x="866.15" y="228.19" width="1.35" height="28.11" transform="translate(1387.98 976.05) rotate(-141)"/><rect class="cls-1" x="890.24" y="233.36" width="1.35" height="18.26" transform="translate(1781.83 484.98) rotate(180)"/><rect class="cls-1" x="880.84" y="228.26" width="1.35" height="28.11" transform="translate(1414.05 985.42) rotate(-141)"/><polygon class="cls-1" points="872.49 214.7 872.49 217.71 903.13 245.5 906.73 245.5 872.49 214.7"/><rect class="cls-1" x="751.4" y="174.7" width="1.35" height="46.48" transform="translate(149.18 -293.3) rotate(24.43)"/><rect class="cls-1" x="741.79" y="184.91" width="1.35" height="64.71"/><rect class="cls-1" x="719.58" y="193.8" width="1.35" height="50.2"/><rect class="cls-1" x="698.57" y="200.41" width="1.35" height="43.63"/><rect class="cls-1" x="675.76" y="207.56" width="1.35" height="40.3"/><rect class="cls-1" x="653.6" y="213.23" width="1.35" height="34.63"/><rect class="cls-1" x="730.94" y="182.99" width="1.35" height="41.37" transform="matrix(0.85, 0.52, -0.52, 0.85, 213.53, -351.61)"/><rect class="cls-1" x="709.09" y="191.54" width="1.35" height="37.04" transform="translate(244.57 -365.69) rotate(34.58)"/><rect class="cls-1" x="751.2" y="215.96" width="1.35" height="37.74" transform="translate(-16.68 407.4) rotate(-30)"/><rect class="cls-1" x="772.56" y="167.71" width="1.35" height="48.72" transform="translate(132.81 -281.89) rotate(22.55)"/><rect class="cls-1" x="763.27" y="175.62" width="1.35" height="74"/><rect class="cls-1" x="772.69" y="212.57" width="1.35" height="37.74" transform="translate(-12.11 417.69) rotate(-30)"/><rect class="cls-1" x="730.67" y="216.67" width="1.35" height="38.16" transform="matrix(0.82, -0.58, 0.58, 0.82, -2.15, 464.72)"/><rect class="cls-1" x="709.59" y="221.34" width="1.35" height="33.54" transform="translate(8.46 500.09) rotate(-39)"/><rect class="cls-1" x="687.37" y="197.35" width="1.35" height="33.05" transform="translate(322.44 -406.99) rotate(42.24)"/><rect class="cls-1" x="684.89" y="222.18" width="1.35" height="28.4" transform="translate(4.03 484.16) rotate(-39)"/><rect class="cls-1" x="664.28" y="203.81" width="1.35" height="31.21" transform="translate(304.96 -381.18) rotate(40.8)"/><rect class="cls-1" x="665.01" y="225.78" width="1.35" height="28.11" transform="translate(63.19 610.85) rotate(-51.44)"/><rect class="cls-1" x="410.5" y="216.68" width="197.37" height="2.69"/><path class="cls-1" d="M607.87,216.68s36.56-1.92,56.35-7.55c31.58-9.16,83-25.06,116.47-44.45l-.11,4.79s-42.45,22.23-116.36,42.37c-24.07,5.87-56.35,7.53-56.35,7.53Z"/><path class="cls-1" d="M412.12,216.68s-36.56-1.92-56.35-7.55C324.19,200,259,179.06,225.56,159.67l.11,4.79s56.19,27.25,130.1,47.38c24.07,5.87,56.35,7.53,56.35,7.53Z"/></svg>