<svg id="Layer_1" data-name="Layer 1" xmlns="http://www.w3.org/2000/svg" viewBox="0 0 390 274"><defs><style>.cls-1{fill:#a100e2;}.cls-2{fill:#8a6199;}.cls-3{fill:#84e895;}.cls-4{fill:#714084;}.cls-5{fill:#b83de9;}.cls-6{fill:#5b2170;}.cls-7{fill:#bdf3c6;}.cls-8{fill:#42005b;}.cls-9{fill:#bc4aea;}</style></defs><title>marrakech</title><g id="Blue_House_-_Gardens" data-name="Blue House - Gardens"><rect class="cls-1" x="287.98" y="38.82" width="2.88" height="1.92" rx="0.34" ry="0.34"/><rect class="cls-1" x="288.29" y="37.49" width="2.26" height="1.52" rx="0.29" ry="0.29"/><rect class="cls-1" x="288.66" y="36.17" width="1.52" height="1.52" rx="0.29" ry="0.29"/><polygon class="cls-2" points="272.86 272.5 27.33 272.5 27.33 156.19 272.86 139.72 272.86 156.19 272.86 272.5"/><rect class="cls-2" x="27.33" y="247.61" width="193.51" height="24.9"/><polygon class="cls-3" points="15.75 78.26 2.24 74.31 2.92 72.18 16.44 76.13 15.75 78.26"/><rect class="cls-2" x="2" y="93.69" width="296.34" height="11.65"/><rect class="cls-2" x="7.07" y="1.49" width="83.08" height="11.14"/><rect class="cls-2" x="57.2" y="41.85" width="25.93" height="26.02"/><rect class="cls-4" x="192.97" y="67.86" width="105.36" height="3.03"/><rect class="cls-4" x="36.41" y="67.86" width="61.84" height="3.03"/><polygon class="cls-2" points="36.41 102.3 12.48 102.3 12.21 76.2 16.44 76.13 36.45 87.5 36.41 102.3"/><polygon class="cls-5" points="288.03 40.34 269.13 59.69 313.07 63.94 290.86 40.34 288.03 40.34"/><polygon class="cls-1" points="290.86 40.34 312.33 57.14 303.87 61.98 290.86 40.34"/><rect class="cls-6" x="315.21" y="67.86" width="57.33" height="2.36"/><rect class="cls-6" x="298.34" y="49.11" width="18.08" height="2.36"/><rect class="cls-4" x="260.55" y="56.1" width="33.87" height="12.33"/><rect class="cls-4" x="264.47" y="105.34" width="33.87" height="167.17"/><rect class="cls-2" x="288.34" y="149.41" width="99.66" height="123.09"/><rect class="cls-4" x="315.21" y="56.1" width="56.78" height="11.77"/><rect class="cls-4" x="315.21" y="70.22" width="56.78" height="79.19"/><rect class="cls-4" x="299.65" y="51.47" width="15.56" height="97.94"/><polygon class="cls-6" points="300.2 51.47 294.42 56.1 293.31 56.1 290.37 56.1 298.34 49.11 300.2 51.47"/><polygon class="cls-2" points="300.2 51.47 300.2 149.41 296.73 149.41 296.73 67.86 292.58 67.86 292.58 56.1 294.42 56.1 300.2 51.47"/><rect class="cls-2" x="90.14" y="3.39" width="121.58" height="96.12"/><rect class="cls-7" x="96.89" y="46.84" width="4.11" height="39.47"/><polygon class="cls-2" points="260.55 68.42 260.55 56.1 211.72 64.5 211.72 67.86 260.55 68.42"/><rect class="cls-4" x="94.55" y="11.12" width="107.2" height="10.94"/><rect class="cls-7" x="94.55" y="13.73" width="107.2" height="4.02"/><polygon class="cls-7" points="7.07 12.64 49.97 67.86 57.18 67.86 57.18 41.83 83.13 41.83 83.13 34.21 90.14 34.21 90.14 12.64 7.07 12.64"/><rect class="cls-4" x="83.13" y="34.21" width="7.01" height="33.66"/><polygon class="cls-4" points="185.11 238.12 27.33 238.12 27.33 121.81 185.11 105.34 185.11 121.81 185.11 238.12"/><polygon class="cls-2" points="272.86 238.12 115.08 238.12 115.08 121.81 272.86 105.34 272.86 121.81 272.86 238.12"/><polygon class="cls-7" points="2 105.34 27.33 121.04 201.57 121.04 272.86 105.34 2 105.34"/><rect class="cls-8" x="318.68" y="192.42" width="38.57" height="26.12"/><rect class="cls-3" x="288.34" y="135.19" width="98.46" height="14.22"/><polygon class="cls-3" points="288.34 149.41 273.18 155.21 273.18 142.63 288.34 135.19 288.34 149.41"/><rect class="cls-7" x="195.3" y="46.84" width="4.11" height="39.47"/><rect class="cls-7" x="102.62" y="38.21" width="41.94" height="48.11"/><rect class="cls-7" x="158.38" y="38.21" width="35.36" height="48.11"/><rect class="cls-3" x="2" y="71.77" width="194.3" height="2.24"/><rect class="cls-3" x="-7.84" y="81.61" width="21.92" height="2.24" transform="translate(85.85 79.61) rotate(90)"/><rect class="cls-3" x="2" y="82.95" width="194.3" height="2.24"/><rect class="cls-3" x="2" y="77.36" width="194.3" height="2.24"/><rect class="cls-2" x="192.97" y="70.89" width="105.36" height="24.82"/><rect class="cls-2" x="36.45" y="70.89" width="61.8" height="31.41"/><polygon class="cls-4" points="201.75 48.91 201.75 22.07 94.55 22.07 94.55 48.89 102.62 48.89 102.62 38.71 193.74 38.71 193.74 48.89 201.75 48.91"/><rect class="cls-6" x="204.72" y="244.36" width="59.76" height="5.25"/><rect class="cls-6" x="204.72" y="251.99" width="59.76" height="5.25"/><rect class="cls-8" x="204.72" y="249.62" width="59.76" height="2.63"/><rect class="cls-8" x="204.72" y="257.25" width="59.76" height="2.63"/><rect class="cls-8" x="204.72" y="264.88" width="59.76" height="2.63"/><rect class="cls-6" x="204.72" y="259.62" width="59.76" height="5.25"/><rect class="cls-6" x="204.72" y="267.25" width="59.76" height="5.25"/><rect class="cls-3" x="142.86" y="185.94" width="52.77" height="28.06"/><rect class="cls-5" x="159.25" y="178.92" width="19.2" height="43.19" transform="translate(369.37 31.67) rotate(90)"/><polyline class="cls-3" points="80.08 159.32 84.88 161.96 115.08 160.61 115.08 159.32 80.08 159.32"/><rect class="cls-9" x="96.89" y="170" width="18.19" height="70.41"/><path class="cls-3" d="M41.67,92.54V246.11h7.2V123.94c0-11.53,7.86-21,19.2-21s19.2,9.44,19.2,21V246.11h7.2V129.24c0-16.06,11.88-29.2,27.66-29.25s27.53,13.19,27.53,29.25V246.11h7.2V123.94c0-11.53,9.06-21,20.4-21s20.4,9.44,20.4,21V246.11h7.2V92.54Z"/><rect class="cls-3" x="41.67" y="238.12" width="163.17" height="9.48"/></g></svg>