<svg id="Layer_1" data-name="Layer 1" xmlns="http://www.w3.org/2000/svg" viewBox="0 0 332 438"><defs><style>.cls-1{fill:#7d4f8e;}.cls-2{fill:#f3f3f3;}.cls-3{fill:#42005b;}.cls-4{fill:#a100e2;}.cls-5{fill:#e38620;}.cls-6,.cls-8{fill:#e79944;}.cls-7{fill:#f1f1f1;}.cls-8{opacity:0.5;}</style></defs><title>marrakech</title><g id="Koutoubia_Mosque" data-name="Koutoubia Mosque"><circle class="cls-1" cx="47.08" cy="46.38" r="17.95"/><rect class="cls-2" x="27.07" y="46.38" width="40.02" height="14.27"/><rect class="cls-3" x="4.32" y="87.04" width="84.84" height="346.96"/><rect class="cls-3" x="27.07" y="51.08" width="40.02" height="43.4"/><rect class="cls-1" x="35.74" y="51.08" width="23.57" height="43.4"/><path class="cls-4" d="M35.74,84.3V71.17c0-4,2.67-9.2,5.93-9.2h0c3.26,0,5.93,5.22,5.93,9.2V84.3Z"/><path class="cls-3" d="M36.67,85.08V72.48c0-3.82,2.25-8.83,5-8.83h0c2.75,0,5,5,5,8.83v12.6Z"/><path class="cls-1" d="M37,84.3V72.61c0-3.54,2.09-8.19,4.64-8.19h0c2.55,0,4.64,4.64,4.64,8.19V84.3Z"/><path class="cls-5" d="M41.67,67.43s4.18.9,1.7,5.16a5.29,5.29,0,0,1,.79,3.17v6.81h-5V75.76A5.29,5.29,0,0,1,40,72.59C37.49,68.33,41.67,67.43,41.67,67.43Z"/><path class="cls-4" d="M47.46,84.3V71.17c0-4,2.67-9.2,5.93-9.2h0c3.26,0,5.93,5.22,5.93,9.2V84.3Z"/><path class="cls-3" d="M48.39,85.08V72.48c0-3.82,2.25-8.83,5-8.83h0c2.75,0,5,5,5,8.83v12.6Z"/><path class="cls-1" d="M48.75,84.3V72.61c0-3.54,2.09-8.19,4.64-8.19h0c2.55,0,4.64,4.64,4.64,8.19V84.3Z"/><path class="cls-5" d="M53.39,67.43s4.18.9,1.7,5.16a5.29,5.29,0,0,1,.79,3.17v6.81h-5V75.76a5.29,5.29,0,0,1,.79-3.17C49.21,68.33,53.39,67.43,53.39,67.43Z"/><polygon class="cls-6" points="27.07 39.88 29.87 39.88 31.76 46.38 27.07 46.38 27.07 39.88"/><polygon class="cls-6" points="67.09 39.88 64.3 39.88 62.4 46.38 67.09 46.38 67.09 39.88"/><polygon class="cls-6" points="34.64 39.88 37.17 39.88 39.27 46.38 32.54 46.38 34.64 39.88"/><polygon class="cls-6" points="42.15 39.88 44.67 39.88 46.78 46.38 40.05 46.38 42.15 39.88"/><polygon class="cls-6" points="49.66 39.88 52.18 39.88 54.28 46.38 47.56 46.38 49.66 39.88"/><polygon class="cls-6" points="57.17 39.88 59.69 39.88 61.79 46.38 55.07 46.38 57.17 39.88"/><polygon class="cls-6" points="16.4 77.14 20.24 77.14 23.45 87.04 13.2 87.04 16.4 77.14"/><polygon class="cls-6" points="4.32 77.14 8.58 77.14 11.46 87.04 4.32 87.04 4.32 77.14"/><polygon class="cls-6" points="89.16 77.14 84.91 77.14 82.02 87.04 89.16 87.04 89.16 77.14"/><polygon class="cls-6" points="27.84 77.14 31.69 77.14 34.89 87.04 24.64 87.04 27.84 77.14"/><rect class="cls-6" x="4.32" y="84.3" width="84.84" height="5.49"/><polygon class="cls-6" points="39.29 77.14 43.13 77.14 46.34 87.04 36.09 87.04 39.29 77.14"/><polygon class="cls-6" points="50.73 77.14 54.58 77.14 57.78 87.04 47.53 87.04 50.73 77.14"/><polygon class="cls-6" points="62.18 77.14 66.02 77.14 69.23 87.04 58.98 87.04 62.18 77.14"/><polygon class="cls-6" points="73.63 77.14 77.47 77.14 80.67 87.04 70.42 87.04 73.63 77.14"/><rect class="cls-6" x="17.63" y="316.53" width="58.23" height="34.94"/><rect class="cls-3" x="18.37" y="317.29" width="57.49" height="34.18"/><rect class="cls-6" x="17.63" y="228.49" width="58.23" height="52.56"/><rect class="cls-3" x="18.27" y="229.08" width="57.58" height="51.98"/><rect class="cls-7" x="22.02" y="369.84" width="1.55" height="6.97"/><rect class="cls-7" x="22.02" y="297.69" width="1.55" height="6.97"/><rect class="cls-7" x="45.97" y="211.68" width="1.55" height="8.39"/><path class="cls-1" d="M34.59,351.47V335.6a7.62,7.62,0,0,0-15.23,0v15.87Z"/><path class="cls-1" d="M74.13,351.47V335.6A7.64,7.64,0,0,0,66.51,328h0a7.64,7.64,0,0,0-7.62,7.62v15.87Z"/><path class="cls-1" d="M54.36,351.47V335a7.62,7.62,0,0,0-15.23,0v16.49Z"/><path class="cls-3" d="M27,335.19s-5.26,1.85-2.13,6.16c-.53.6-.51,1.54-.51,3.21v6.9h5.28v-6.9c0-1.67,0-2.61-.51-3.21C32.24,337,27,335.19,27,335.19Z"/><path class="cls-3" d="M66.51,335.19s-5.26,1.85-2.13,6.16c-.53.6-.51,1.54-.51,3.21v6.9h5.28v-6.9c0-1.67,0-2.61-.51-3.21C71.77,337,66.51,335.19,66.51,335.19Z"/><path class="cls-5" d="M46.74,335.19s-5.26,1.85-2.13,6.16c-.53.6-.51,1.54-.51,3.21v6.9h5.28v-6.9c0-1.67,0-2.61-.51-3.21C52,337,46.74,335.19,46.74,335.19Z"/><path class="cls-6" d="M73.82,281.05V260.14c0-15.56-14.89-28.29-26.3-28.29-10.83,0-26.3,12.73-26.3,28.29v20.91Z"/><path class="cls-3" d="M72.61,281.05V260.63c0-15.19-14.2-27.63-25.09-27.63-10.33,0-25.09,12.43-25.09,27.63v20.42Z"/><rect class="cls-6" x="29.34" y="256.45" width="36.35" height="24.6"/><path class="cls-1" d="M52.11,281.05V266.53c0-3.83-2.11-7-4.69-7h0c-2.58,0-4.69,3.14-4.69,7v14.52Z"/><path class="cls-5" d="M47.42,263.11s-5.26,2-2.13,6.79c-.53.67-.51,1.7-.51,3.54v7.6h5.28v-7.6c0-1.84,0-2.88-.51-3.54C52.68,265.15,47.42,263.11,47.42,263.11Z"/><path class="cls-1" d="M64.85,281.05V266.53c0-3.83-2.11-7-4.69-7h0c-2.58,0-4.69,3.14-4.69,7v14.52Z"/><path class="cls-3" d="M60.16,263.11s-5.26,2-2.13,6.79c-.53.67-.51,1.7-.51,3.54v7.6H62.8v-7.6c0-1.84,0-2.88-.51-3.54C65.42,265.15,60.16,263.11,60.16,263.11Z"/><path class="cls-1" d="M39.58,281.05V266.53c0-3.83-2.11-7-4.69-7h0c-2.58,0-4.69,3.14-4.69,7v14.52Z"/><path class="cls-3" d="M34.88,263.11s-5.26,2-2.13,6.79c-.53.67-.51,1.7-.51,3.54v7.6h5.28v-7.6c0-1.84,0-2.88-.51-3.54C40.14,265.15,34.88,263.11,34.88,263.11Z"/><path class="cls-5" d="M50.77,248.2v-7.73c0-1.75-1-3.19-2.33-3.19H46.59c-1.28,0-2.33,1.43-2.33,3.19v7.73Z"/><ellipse class="cls-5" cx="47.52" cy="236.09" rx="1.32" ry="1.46"/><rect class="cls-6" x="24.74" y="149.97" width="44.69" height="49.62"/><rect class="cls-3" x="25.35" y="150.56" width="43.46" height="48.54"/><rect class="cls-6" x="29.31" y="155.29" width="35.54" height="44.3"/><rect class="cls-3" x="30.14" y="156.23" width="33.88" height="42.87"/><rect class="cls-6" x="32.08" y="162.2" width="30" height="37.4"/><rect class="cls-3" x="32.78" y="162.99" width="28.6" height="36.11"/><rect class="cls-6" x="35.56" y="179.92" width="10.18" height="19.18"/><rect class="cls-3" x="35.8" y="180.16" width="9.7" height="18.94"/><rect class="cls-6" x="48.42" y="179.92" width="10.18" height="19.18"/><rect class="cls-3" x="48.66" y="180.18" width="9.7" height="18.92"/><rect class="cls-6" x="29.31" y="158.34" width="35.54" height="0.76"/><path class="cls-6" d="M40.11,183.4l-3.51,6.25a1.44,1.44,0,0,0-.18.71v8.75h8.47v-8.75a1.45,1.45,0,0,0-.19-.71l-3.51-6.25A.62.62,0,0,0,40.11,183.4Z"/><path class="cls-3" d="M40.14,183.67l-3.34,6.14a1.45,1.45,0,0,0-.18.69v8.6h8.07v-8.6a1.46,1.46,0,0,0-.18-.7l-3.34-6.14A.58.58,0,0,0,40.14,183.67Z"/><path class="cls-5" d="M43,199.1v-7a1.16,1.16,0,0,0-1.16-1.16h-2.4a1.16,1.16,0,0,0-1.16,1.16v7Z"/><circle class="cls-5" cx="40.65" cy="189.18" r="2.25"/><path class="cls-6" d="M53,183.39l-3.51,6.25a1.44,1.44,0,0,0-.18.71v8.75h8.47v-8.75a1.45,1.45,0,0,0-.19-.71l-3.51-6.25A.62.62,0,0,0,53,183.39Z"/><path class="cls-3" d="M53,183.66l-3.34,6.14a1.45,1.45,0,0,0-.18.69v8.6h8.07v-8.6a1.46,1.46,0,0,0-.18-.7L54,183.66A.58.58,0,0,0,53,183.66Z"/><path class="cls-5" d="M55.87,199.09v-7a1.16,1.16,0,0,0-1.16-1.16h-2.4a1.16,1.16,0,0,0-1.16,1.16v7Z"/><circle class="cls-5" cx="53.51" cy="189.17" r="2.25"/><path class="cls-5" d="M35.24,165.44l-1.33,2.14a.46.46,0,0,0-.07.24v3h3.21v-3a.46.46,0,0,0-.07-.24l-1.33-2.14A.25.25,0,0,0,35.24,165.44Z"/><path class="cls-5" d="M58.51,165.44l-1.33,2.14a.46.46,0,0,0-.07.24v3h3.21v-3a.46.46,0,0,0-.07-.24l-1.33-2.14A.25.25,0,0,0,58.51,165.44Z"/><rect class="cls-2" x="4.32" y="87.04" width="84.84" height="14.27"/><circle class="cls-6" cx="47.08" cy="23.24" r="5.2"/><circle class="cls-6" cx="47.08" cy="14.81" r="3.23"/><circle class="cls-6" cx="47.08" cy="9.32" r="2.26"/><rect class="cls-3" x="46.7" y="4" width="0.77" height="1.71"/><circle class="cls-6" cx="47.08" cy="6.23" r="0.83"/><rect class="cls-6" x="18.96" y="103.45" width="57.15" height="30.09"/><rect class="cls-3" x="19.67" y="104.14" width="56.44" height="29.4"/><path class="cls-1" d="M46.71,133.54V122c0-3.51-2.52-8.11-5.6-8.11h0c-3.08,0-5.6,4.6-5.6,8.11v11.57Z"/><path class="cls-5" d="M41.11,118.18s-4.7,1.17-1.9,5.41a4.84,4.84,0,0,0-.89,3.16v6.79H43.9v-6.79a4.84,4.84,0,0,0-.89-3.16C45.8,119.34,41.11,118.18,41.11,118.18Z"/><path class="cls-1" d="M32.69,133.54V122c0-3.51-2.52-8.11-5.6-8.11h0c-3.08,0-5.6,4.6-5.6,8.11v11.57Z"/><path class="cls-5" d="M27.09,118.18s-4.7,1.17-1.9,5.41a4.84,4.84,0,0,0-.89,3.16v6.79h5.58v-6.79a4.84,4.84,0,0,0-.89-3.16C31.79,119.34,27.09,118.18,27.09,118.18Z"/><path class="cls-5" d="M33.6,117l-4.71-4.1a.35.35,0,0,1-.08-.43c.83-1.5,5.46-9.05,10,0a.38.38,0,0,1-.08.45L34.07,117A.36.36,0,0,1,33.6,117Z"/><path class="cls-2" d="M33.08,111.41h1.51a.38.38,0,0,1,.38.38V116a0,0,0,0,1,0,0H32.69a0,0,0,0,1,0,0v-4.16A.38.38,0,0,1,33.08,111.41Z"/><path class="cls-5" d="M47.3,116.76l-4.71-4.1a.35.35,0,0,1-.08-.43c.83-1.5,5.46-9.05,10,0a.38.38,0,0,1-.08.45l-4.71,4.1A.36.36,0,0,1,47.3,116.76Z"/><path class="cls-2" d="M46.78,111.16h1.51a.38.38,0,0,1,.38.38v4.16a0,0,0,0,1,0,0H46.4a0,0,0,0,1,0,0v-4.16A.38.38,0,0,1,46.78,111.16Z"/><path class="cls-5" d="M31.68,105.56h-8a.29.29,0,0,0-.23.47l3.94,4.37a.38.38,0,0,0,.56,0l4-4.37A.29.29,0,0,0,31.68,105.56Z"/><path class="cls-5" d="M45.11,105.62h-8a.29.29,0,0,0-.23.47l3.94,4.37a.38.38,0,0,0,.56,0l4-4.37A.29.29,0,0,0,45.11,105.62Z"/><path class="cls-5" d="M20.53,108.35v8a.29.29,0,0,0,.47.23l4.37-3.94a.38.38,0,0,0,0-.56l-4.37-4A.29.29,0,0,0,20.53,108.35Z"/><path class="cls-1" d="M48.46,133.54V122c0-3.51,2.52-8.11,5.6-8.11h0c3.08,0,5.6,4.6,5.6,8.11v11.57Z"/><path class="cls-5" d="M54.06,118.18s4.7,1.17,1.9,5.41a4.84,4.84,0,0,1,.89,3.16v6.79H51.27v-6.79a4.84,4.84,0,0,1,.89-3.16C49.37,119.34,54.06,118.18,54.06,118.18Z"/><path class="cls-1" d="M62.47,133.54V122c0-3.51,2.52-8.11,5.6-8.11h0c3.08,0,5.6,4.6,5.6,8.11v11.57Z"/><path class="cls-5" d="M68.08,118.18s4.7,1.17,1.9,5.41a4.84,4.84,0,0,1,.89,3.16v6.79H65.29v-6.79a4.84,4.84,0,0,1,.89-3.16C63.38,119.34,68.08,118.18,68.08,118.18Z"/><path class="cls-5" d="M61.57,117l4.71-4.1a.35.35,0,0,0,.08-.43c-.83-1.5-5.46-9.05-10,0a.38.38,0,0,0,.08.45L61.1,117A.36.36,0,0,0,61.57,117Z"/><path class="cls-2" d="M60.2,111.41h2.27a0,0,0,0,1,0,0v4.16a.38.38,0,0,1-.38.38H60.58a.38.38,0,0,1-.38-.38v-4.16A0,0,0,0,1,60.2,111.41Z" transform="translate(122.67 227.37) rotate(-180)"/><path class="cls-5" d="M63.49,105.56h8a.29.29,0,0,1,.23.47l-3.94,4.37a.38.38,0,0,1-.56,0l-4-4.37A.29.29,0,0,1,63.49,105.56Z"/><path class="cls-5" d="M50.06,105.62h8a.29.29,0,0,1,.23.47l-3.94,4.37a.38.38,0,0,1-.56,0l-4-4.37A.29.29,0,0,1,50.06,105.62Z"/><path class="cls-5" d="M74.64,108.35v8a.29.29,0,0,1-.47.23l-4.37-3.94a.38.38,0,0,1,0-.56l4.37-4A.29.29,0,0,1,74.64,108.35Z"/><rect class="cls-6" x="3.68" y="140.33" width="86.22" height="2.86"/></g><rect class="cls-8" x="41.79" y="368.7" width="47.37" height="65.3"/><rect class="cls-3" x="43.01" y="369.84" width="285.3" height="64.16"/><path class="cls-1" d="M199.81,391.93V379.06c0-2.06,1.83-3.74,4.33-3.74s4.33,1.68,4.33,3.74v12.87Z"/><path class="cls-6" d="M207.74,391.93V380a3.61,3.61,0,0,0-3.6-3.6h0a3.61,3.61,0,0,0-3.6,3.6v11.91Z"/><path class="cls-1" d="M236.93,391.93V379.06c0-2.06,1.83-3.74,4.33-3.74s4.33,1.68,4.33,3.74v12.87Z"/><path class="cls-6" d="M244.86,391.93V380a3.61,3.61,0,0,0-3.6-3.6h0a3.61,3.61,0,0,0-3.6,3.6v11.91Z"/><path class="cls-1" d="M269.1,391.93V379.06c0-2.06,1.83-3.74,4.33-3.74s4.33,1.68,4.33,3.74v12.87Z"/><path class="cls-6" d="M277,391.93V380a3.61,3.61,0,0,0-3.6-3.6h0a3.61,3.61,0,0,0-3.6,3.6v11.91Z"/><path class="cls-1" d="M306.22,391.93V379.06c0-2.06,1.83-3.74,4.33-3.74s4.33,1.68,4.33,3.74v12.87Z"/><path class="cls-6" d="M314.15,391.93V380a3.61,3.61,0,0,0-3.6-3.6h0A3.61,3.61,0,0,0,307,380v11.91Z"/><path class="cls-6" d="M256.46,387.85l-6.25,6.45a8.58,8.58,0,0,0-2.42,6V434h19.1V400.27a8.58,8.58,0,0,0-2.42-6l-6.25-6.45A1.23,1.23,0,0,0,256.46,387.85Z"/><path class="cls-6" d="M289,387.85l-6.25,6.45a8.58,8.58,0,0,0-2.42,6V434h19.1V400.27a8.58,8.58,0,0,0-2.42-6l-6.25-6.45A1.23,1.23,0,0,0,289,387.85Z"/><path class="cls-6" d="M222.71,387.85l-6.25,6.45a8.58,8.58,0,0,0-2.42,6V434h19.1V400.27a8.58,8.58,0,0,0-2.42-6l-6.25-6.45A1.23,1.23,0,0,0,222.71,387.85Z"/><path class="cls-3" d="M222.8,389.09l-5.6,5.78a7.69,7.69,0,0,0-2.17,5.35v30.22h17.11V400.21a7.69,7.69,0,0,0-2.17-5.35l-5.6-5.78A1.1,1.1,0,0,0,222.8,389.09Z"/><rect class="cls-3" x="215.04" y="424.68" width="17.11" height="9.32"/><path class="cls-3" d="M256.55,389.09l-5.6,5.78a7.69,7.69,0,0,0-2.17,5.35v30.22H265.9V400.21a7.69,7.69,0,0,0-2.17-5.35l-5.6-5.78A1.1,1.1,0,0,0,256.55,389.09Z"/><rect class="cls-3" x="248.79" y="424.68" width="17.11" height="9.32"/><path class="cls-3" d="M289.14,389.09l-5.6,5.78a7.69,7.69,0,0,0-2.17,5.35v30.22h17.11V400.21a7.69,7.69,0,0,0-2.17-5.35l-5.6-5.78A1.1,1.1,0,0,0,289.14,389.09Z"/><rect class="cls-3" x="281.37" y="424.68" width="17.11" height="9.32"/><path class="cls-1" d="M56.27,391.93V379.06c0-2.06,1.83-3.74,4.33-3.74s4.33,1.68,4.33,3.74v12.87Z"/><path class="cls-6" d="M64.2,391.93V380a3.61,3.61,0,0,0-3.6-3.6h0A3.61,3.61,0,0,0,57,380v11.91Z"/><path class="cls-1" d="M93.39,391.93V379.06c0-2.06,1.83-3.74,4.33-3.74S102,377,102,379.06v12.87Z"/><path class="cls-6" d="M101.32,391.93V380a3.61,3.61,0,0,0-3.6-3.6h0a3.61,3.61,0,0,0-3.6,3.6v11.91Z"/><path class="cls-1" d="M125.56,391.93V379.06c0-2.06,1.83-3.74,4.33-3.74s4.33,1.68,4.33,3.74v12.87Z"/><path class="cls-6" d="M133.49,391.93V380a3.61,3.61,0,0,0-3.6-3.6h0a3.61,3.61,0,0,0-3.6,3.6v11.91Z"/><path class="cls-1" d="M162.68,391.93V379.06c0-2.06,1.83-3.74,4.33-3.74s4.33,1.68,4.33,3.74v12.87Z"/><path class="cls-6" d="M170.61,391.93V380a3.61,3.61,0,0,0-3.6-3.6h0a3.61,3.61,0,0,0-3.6,3.6v11.91Z"/><path class="cls-6" d="M112.92,387.85l-6.25,6.45a8.58,8.58,0,0,0-2.42,6V434h19.1V400.27a8.58,8.58,0,0,0-2.42-6l-6.25-6.45A1.23,1.23,0,0,0,112.92,387.85Z"/><path class="cls-6" d="M145.5,387.85l-6.25,6.45a8.58,8.58,0,0,0-2.42,6V434h19.1V400.27a8.58,8.58,0,0,0-2.42-6l-6.25-6.45A1.23,1.23,0,0,0,145.5,387.85Z"/><path class="cls-6" d="M79.17,387.85l-6.25,6.45a8.58,8.58,0,0,0-2.42,6V434H89.6V400.27a8.58,8.58,0,0,0-2.42-6l-6.25-6.45A1.23,1.23,0,0,0,79.17,387.85Z"/><path class="cls-3" d="M79.26,389.09l-5.6,5.78a7.69,7.69,0,0,0-2.17,5.35v30.22H88.61V400.21a7.69,7.69,0,0,0-2.17-5.35l-5.6-5.78A1.1,1.1,0,0,0,79.26,389.09Z"/><rect class="cls-3" x="71.5" y="424.68" width="17.11" height="9.32"/><path class="cls-3" d="M113,389.09l-5.6,5.78a7.69,7.69,0,0,0-2.17,5.35v30.22h17.11V400.21a7.69,7.69,0,0,0-2.17-5.35l-5.6-5.78A1.1,1.1,0,0,0,113,389.09Z"/><rect class="cls-3" x="105.25" y="424.68" width="17.11" height="9.32"/><path class="cls-3" d="M145.6,389.09l-5.6,5.78a7.69,7.69,0,0,0-2.17,5.35v30.22h17.11V400.21a7.69,7.69,0,0,0-2.17-5.35l-5.6-5.78A1.1,1.1,0,0,0,145.6,389.09Z"/><rect class="cls-3" x="137.83" y="424.68" width="17.11" height="9.32"/></svg>