<svg id="Layer_1" data-name="Layer 1" xmlns="http://www.w3.org/2000/svg" viewBox="0 0 420 134"><defs><style>.cls-1{fill:#b330e8;}.cls-2{fill:#e38620;}.cls-3{fill:#a100e2;}.cls-4,.cls-5{fill:#b83de9;}.cls-4{opacity:0.5;}.cls-6{fill:#f2c594;}.cls-7{fill:#efba80;}.cls-8{fill:#42005b;}.cls-9{fill:#5c2472;}.cls-10{fill:#eeb679;}</style></defs><title>marrakech</title><g id="Hotel"><rect class="cls-1" x="127.43" y="67.99" width="165.15" height="65.5"/><rect class="cls-2" x="127.43" y="48.56" width="165.15" height="19.43"/><rect class="cls-3" x="124.68" y="41.84" width="170.64" height="6.72"/><rect class="cls-3" x="122.16" y="34.29" width="175.67" height="7.54"/><rect class="cls-3" x="208.6" y="0.5" width="3.2" height="5.24"/><polygon class="cls-3" points="122.16 34.29 210.38 3.75 297.84 34.29 122.16 34.29"/><path class="cls-4" d="M152.47,65.15V54.67a2.65,2.65,0,0,0-5.3,0V65.15Z"/><path class="cls-4" d="M165.28,65.15V54.67a2.65,2.65,0,0,0-5.3,0V65.15Z"/><path class="cls-4" d="M178.1,65.15V54.67a2.65,2.65,0,0,0-5.3,0V65.15Z"/><path class="cls-4" d="M199.84,65.15V54.67a2.65,2.65,0,1,0-5.3,0V65.15Z"/><path class="cls-4" d="M212.65,65.15V54.67a2.65,2.65,0,1,0-5.3,0V65.15Z"/><path class="cls-4" d="M225.47,65.15V54.67a2.65,2.65,0,1,0-5.3,0V65.15Z"/><path class="cls-5" d="M246.79,65.15V54.67a2.65,2.65,0,1,0-5.3,0V65.15Z"/><path class="cls-5" d="M259.61,65.15V54.67a2.65,2.65,0,1,0-5.3,0V65.15Z"/><path class="cls-5" d="M272.43,65.15V54.67a2.65,2.65,0,1,0-5.3,0V65.15Z"/><polygon class="cls-6" points="127.43 97.77 144.71 97.77 144.71 88.82 168.16 88.82 168.16 97.77 184.04 97.77 184.04 88.82 235.25 88.82 235.25 97.77 251.28 97.77 251.28 88.82 274.19 88.82 274.19 97.77 292.57 97.77 292.57 67.99 127.43 67.99 127.43 97.77"/><rect class="cls-7" x="125.17" y="39.78" width="1.15" height="2.56" rx="0.18" ry="0.18" transform="translate(65.87 -76.89) rotate(45)"/><rect class="cls-7" x="128.38" y="39.78" width="1.15" height="2.56" rx="0.18" ry="0.18" transform="translate(66.81 -79.16) rotate(45)"/><rect class="cls-7" x="131.58" y="39.78" width="1.15" height="2.56" rx="0.18" ry="0.18" transform="translate(67.74 -81.42) rotate(45)"/><rect class="cls-7" x="134.79" y="39.78" width="1.15" height="2.56" rx="0.18" ry="0.18" transform="translate(68.68 -83.69) rotate(45)"/><rect class="cls-7" x="137.99" y="39.78" width="1.15" height="2.56" rx="0.18" ry="0.18" transform="translate(69.62 -85.95) rotate(45)"/><rect class="cls-7" x="141.19" y="39.78" width="1.15" height="2.56" rx="0.18" ry="0.18" transform="translate(70.56 -88.22) rotate(45)"/><rect class="cls-7" x="144.4" y="39.78" width="1.15" height="2.56" rx="0.18" ry="0.18" transform="translate(71.5 -90.49) rotate(45)"/><rect class="cls-7" x="147.6" y="39.78" width="1.15" height="2.56" rx="0.18" ry="0.18" transform="translate(72.44 -92.75) rotate(45)"/><rect class="cls-7" x="150.81" y="39.78" width="1.15" height="2.56" rx="0.18" ry="0.18" transform="translate(73.37 -95.02) rotate(45)"/><rect class="cls-7" x="154.01" y="39.78" width="1.15" height="2.56" rx="0.18" ry="0.18" transform="translate(74.31 -97.28) rotate(45)"/><rect class="cls-7" x="157.22" y="39.78" width="1.15" height="2.56" rx="0.18" ry="0.18" transform="translate(75.25 -99.55) rotate(45)"/><rect class="cls-7" x="160.42" y="39.78" width="1.15" height="2.56" rx="0.18" ry="0.18" transform="translate(76.19 -101.81) rotate(45)"/><rect class="cls-7" x="163.62" y="39.78" width="1.15" height="2.56" rx="0.18" ry="0.18" transform="translate(77.13 -104.08) rotate(45)"/><rect class="cls-7" x="166.83" y="39.78" width="1.15" height="2.56" rx="0.18" ry="0.18" transform="translate(78.07 -106.35) rotate(45)"/><rect class="cls-7" x="170.03" y="39.78" width="1.15" height="2.56" rx="0.18" ry="0.18" transform="translate(79.01 -108.61) rotate(45)"/><rect class="cls-7" x="173.24" y="39.78" width="1.15" height="2.56" rx="0.18" ry="0.18" transform="translate(79.94 -110.88) rotate(45)"/><rect class="cls-7" x="176.44" y="39.78" width="1.15" height="2.56" rx="0.18" ry="0.18" transform="translate(80.88 -113.14) rotate(45)"/><rect class="cls-7" x="179.64" y="39.78" width="1.15" height="2.56" rx="0.18" ry="0.18" transform="translate(81.82 -115.41) rotate(45)"/><rect class="cls-7" x="182.85" y="39.78" width="1.15" height="2.56" rx="0.18" ry="0.18" transform="translate(82.76 -117.67) rotate(45)"/><rect class="cls-7" x="186.05" y="39.78" width="1.15" height="2.56" rx="0.18" ry="0.18" transform="translate(83.7 -119.94) rotate(45)"/><rect class="cls-7" x="189.26" y="39.78" width="1.15" height="2.56" rx="0.18" ry="0.18" transform="translate(84.64 -122.21) rotate(45)"/><rect class="cls-7" x="192.46" y="39.78" width="1.15" height="2.56" rx="0.18" ry="0.18" transform="translate(85.57 -124.47) rotate(45)"/><rect class="cls-7" x="195.67" y="39.78" width="1.15" height="2.56" rx="0.18" ry="0.18" transform="translate(86.51 -126.74) rotate(45)"/><rect class="cls-7" x="198.87" y="39.78" width="1.15" height="2.56" rx="0.18" ry="0.18" transform="translate(87.45 -129) rotate(45)"/><rect class="cls-7" x="202.07" y="39.78" width="1.15" height="2.56" rx="0.18" ry="0.18" transform="translate(88.39 -131.27) rotate(45)"/><rect class="cls-7" x="205.28" y="39.78" width="1.15" height="2.56" rx="0.18" ry="0.18" transform="translate(89.33 -133.53) rotate(45)"/><rect class="cls-7" x="208.48" y="39.78" width="1.15" height="2.56" rx="0.18" ry="0.18" transform="translate(90.27 -135.8) rotate(45)"/><rect class="cls-7" x="211.69" y="39.78" width="1.15" height="2.56" rx="0.18" ry="0.18" transform="translate(91.21 -138.07) rotate(45)"/><rect class="cls-7" x="214.89" y="39.78" width="1.15" height="2.56" rx="0.18" ry="0.18" transform="translate(92.14 -140.33) rotate(45)"/><rect class="cls-7" x="218.09" y="39.78" width="1.15" height="2.56" rx="0.18" ry="0.18" transform="translate(93.08 -142.6) rotate(45)"/><rect class="cls-7" x="221.3" y="39.78" width="1.15" height="2.56" rx="0.18" ry="0.18" transform="translate(94.02 -144.86) rotate(45)"/><rect class="cls-7" x="224.5" y="39.78" width="1.15" height="2.56" rx="0.18" ry="0.18" transform="translate(94.96 -147.13) rotate(45)"/><rect class="cls-7" x="227.71" y="39.78" width="1.15" height="2.56" rx="0.18" ry="0.18" transform="translate(95.9 -149.39) rotate(45)"/><rect class="cls-7" x="230.91" y="39.78" width="1.15" height="2.56" rx="0.18" ry="0.18" transform="translate(96.84 -151.66) rotate(45)"/><rect class="cls-7" x="234.12" y="39.78" width="1.15" height="2.56" rx="0.18" ry="0.18" transform="translate(97.77 -153.93) rotate(45)"/><rect class="cls-7" x="237.32" y="39.78" width="1.15" height="2.56" rx="0.18" ry="0.18" transform="translate(98.71 -156.19) rotate(45)"/><rect class="cls-7" x="240.52" y="39.78" width="1.15" height="2.56" rx="0.18" ry="0.18" transform="translate(99.65 -158.46) rotate(45)"/><rect class="cls-7" x="243.73" y="39.78" width="1.15" height="2.56" rx="0.18" ry="0.18" transform="translate(100.59 -160.72) rotate(45)"/><rect class="cls-7" x="246.93" y="39.78" width="1.15" height="2.56" rx="0.18" ry="0.18" transform="translate(101.53 -162.99) rotate(45)"/><rect class="cls-7" x="250.14" y="39.78" width="1.15" height="2.56" rx="0.18" ry="0.18" transform="translate(102.47 -165.25) rotate(45)"/><rect class="cls-7" x="253.34" y="39.78" width="1.15" height="2.56" rx="0.18" ry="0.18" transform="translate(103.41 -167.52) rotate(45)"/><rect class="cls-7" x="256.54" y="39.78" width="1.15" height="2.56" rx="0.18" ry="0.18" transform="translate(104.34 -169.78) rotate(45)"/><rect class="cls-7" x="259.75" y="39.78" width="1.15" height="2.56" rx="0.18" ry="0.18" transform="translate(105.28 -172.05) rotate(45)"/><rect class="cls-7" x="262.95" y="39.78" width="1.15" height="2.56" rx="0.18" ry="0.18" transform="translate(106.22 -174.32) rotate(45)"/><rect class="cls-7" x="266.16" y="39.78" width="1.15" height="2.56" rx="0.18" ry="0.18" transform="translate(107.16 -176.58) rotate(45)"/><rect class="cls-7" x="269.36" y="39.78" width="1.15" height="2.56" rx="0.18" ry="0.18" transform="translate(108.1 -178.85) rotate(45)"/><rect class="cls-7" x="272.57" y="39.78" width="1.15" height="2.56" rx="0.18" ry="0.18" transform="translate(109.04 -181.11) rotate(45)"/><rect class="cls-7" x="275.77" y="39.78" width="1.15" height="2.56" rx="0.18" ry="0.18" transform="translate(109.98 -183.38) rotate(45)"/><rect class="cls-7" x="278.97" y="39.78" width="1.15" height="2.56" rx="0.18" ry="0.18" transform="translate(110.91 -185.64) rotate(45)"/><rect class="cls-7" x="282.18" y="39.78" width="1.15" height="2.56" rx="0.18" ry="0.18" transform="translate(111.85 -187.91) rotate(45)"/><rect class="cls-7" x="285.38" y="39.78" width="1.15" height="2.56" rx="0.18" ry="0.18" transform="translate(112.79 -190.18) rotate(45)"/><rect class="cls-7" x="288.59" y="39.78" width="1.15" height="2.56" rx="0.18" ry="0.18" transform="translate(113.73 -192.44) rotate(45)"/><rect class="cls-7" x="291.79" y="39.78" width="1.15" height="2.56" rx="0.18" ry="0.18" transform="translate(114.67 -194.71) rotate(45)"/><rect class="cls-7" x="294.99" y="39.78" width="1.15" height="2.56" rx="0.18" ry="0.18" transform="translate(115.61 -196.97) rotate(45)"/><rect class="cls-8" x="188.08" y="95.56" width="43.4" height="37.93"/><rect class="cls-8" x="148.18" y="102.22" width="16.02" height="31.26"/><rect class="cls-8" x="255.38" y="102.22" width="16.02" height="31.26"/><rect class="cls-7" x="-21.25" y="103.38" width="55.28" height="4.81" transform="translate(112.18 99.39) rotate(90)"/><rect class="cls-1" x="42.1" y="74.81" width="85.32" height="58.67"/><rect class="cls-8" x="60.45" y="102.27" width="13.33" height="31.22"/><rect class="cls-8" x="109.05" y="102.27" width="13.33" height="31.22"/><rect class="cls-6" x="42.1" y="79.43" width="87.99" height="18.33"/><rect class="cls-1" x="291.48" y="74.81" width="85.32" height="58.67" transform="translate(668.29 208.3) rotate(-180)"/><rect class="cls-8" x="345.13" y="102.27" width="13.33" height="31.22" transform="translate(703.59 235.76) rotate(-180)"/><rect class="cls-8" x="296.52" y="102.27" width="13.33" height="31.22" transform="translate(606.37 235.76) rotate(-180)"/><rect class="cls-6" x="288.82" y="79.43" width="87.99" height="18.33" transform="translate(665.63 177.2) rotate(-180)"/><rect class="cls-7" x="36.43" y="103.45" width="55.28" height="4.81" transform="translate(169.92 41.78) rotate(90)"/><rect class="cls-7" x="94.1" y="103.45" width="55.28" height="4.81" transform="translate(227.59 -15.89) rotate(90)"/><rect class="cls-7" x="151.78" y="103.45" width="55.28" height="4.81" transform="translate(285.27 -73.57) rotate(90)"/><rect class="cls-7" x="212.25" y="103.46" width="55.28" height="4.81" transform="translate(345.74 -134.03) rotate(90)"/><rect class="cls-7" x="327.6" y="103.46" width="55.28" height="4.81" transform="translate(461.09 -249.38) rotate(90)"/><rect class="cls-7" x="385.27" y="103.46" width="55.28" height="4.81" transform="translate(518.77 -307.05) rotate(90)"/><rect class="cls-7" x="269.92" y="103.46" width="55.28" height="4.81" transform="translate(403.42 -191.7) rotate(90)"/><rect class="cls-8" x="-0.22" y="103.38" width="55.28" height="4.81" transform="translate(133.2 78.37) rotate(90)"/><rect class="cls-9" x="1" y="72.43" width="418" height="7"/><polygon class="cls-1" points="225.34 97.55 201.67 99.27 188.67 96.95 225.34 97.55"/><rect class="cls-3" x="212.13" y="95.36" width="0.94" height="8.16" transform="translate(-15.68 153.99) rotate(-38.51)"/><rect class="cls-3" x="217.77" y="95.36" width="0.94" height="8.16" transform="translate(327.11 313.13) rotate(-141.49)"/><rect class="cls-3" x="214.76" y="95.36" width="1.33" height="38.13"/><polygon class="cls-10" points="188.67 96.95 215.71 88.63 241.06 97.8 188.67 96.95"/><polygon class="cls-5" points="53 100.97 59.17 97.51 68.46 96.45 61.15 100.08 53 100.97"/><polygon class="cls-2" points="59.17 97.51 46.72 90.97 68.46 96.45 59.17 97.51"/><polygon class="cls-5" points="21.4 98.99 36.74 101.46 40.75 98.23 21.4 98.99"/><polygon class="cls-3" points="36.74 101.46 53 100.97 59.17 97.51 40.75 98.23 36.74 101.46"/><rect class="cls-3" x="43.8" y="96.37" width="0.94" height="11.09" transform="translate(-53.83 49.73) rotate(-38.51)"/><rect class="cls-3" x="51.52" y="95.65" width="0.94" height="11.9" transform="translate(29.41 213.47) rotate(-141.49)"/><rect class="cls-3" x="47.34" y="97.51" width="1.33" height="35.98"/><polygon class="cls-10" points="21.4 98.99 46.72 90.97 59.17 97.51 21.4 98.99"/><polygon class="cls-5" points="413.91 95.96 400.83 97.49 389.56 101.64 366.13 101.19 354.19 96.85 366.51 96.62 397.64 95.12 413.91 95.96"/><polygon class="cls-3" points="366.13 101.19 365.26 100.88 370.46 96.61 372.06 96.51 366.13 101.19"/><polygon class="cls-3" points="389.56 101.64 390.45 101.31 386.98 95.72 386.03 95.78 389.56 101.64"/><polygon class="cls-3" points="400.29 97.69 400.83 97.49 397.64 95.12 397.04 95.16 400.29 97.69"/><polygon class="cls-2" points="367 96.85 354.19 96.85 378.07 88.63 367 96.85"/><polygon class="cls-2" points="413.91 95.96 397.64 95.12 378.07 88.63 413.91 95.96"/><rect class="cls-3" x="377.37" y="92.74" width="0.94" height="11.09" transform="translate(20.97 256.62) rotate(-38.51)"/><rect class="cls-3" x="385.09" y="92.02" width="0.94" height="11.9" transform="translate(626.28 414.69) rotate(-141.49)"/><rect class="cls-3" x="380.91" y="93.88" width="1.33" height="39.61"/><polygon class="cls-10" points="366.17 96.85 378.07 88.63 397.64 95.12 366.17 96.85"/><polygon class="cls-5" points="105.26 95.12 110.93 97.49 122.2 101.64 145.63 101.19 157.57 96.85 145.25 96.62 114.12 95.12 105.26 95.12"/><polygon class="cls-3" points="145.63 101.19 146.5 100.88 141.3 96.61 139.7 96.51 145.63 101.19"/><polygon class="cls-3" points="122.2 101.64 121.31 101.31 124.78 95.72 125.73 95.78 122.2 101.64"/><polygon class="cls-3" points="111.47 97.69 110.93 97.49 114.12 95.12 114.72 95.16 111.47 97.69"/><polygon class="cls-2" points="144.76 96.85 157.57 96.85 133.69 88.63 144.76 96.85"/><polygon class="cls-2" points="105.26 95.12 114.12 95.12 133.69 88.63 105.26 95.12"/><rect class="cls-3" x="133.45" y="92.74" width="0.94" height="11.09" transform="translate(177.52 258.58) rotate(-141.49)"/><rect class="cls-3" x="125.73" y="92.02" width="0.94" height="11.9" transform="matrix(0.78, -0.62, 0.62, 0.78, -33.55, 99.88)"/><rect class="cls-3" x="129.52" y="93.88" width="1.33" height="39.61" transform="translate(260.37 227.37) rotate(-180)"/><polygon class="cls-10" points="145.59 96.85 133.69 88.63 114.12 95.12 145.59 96.85"/><polygon class="cls-5" points="324.81 96.94 317.65 101.17 302.19 99.05 298.92 96.28 324.81 96.94"/><polygon class="cls-1" points="302.19 99.05 283.7 97.77 279.56 95.8 298.92 96.28 302.19 99.05"/><rect class="cls-3" x="298.14" y="92.74" width="0.94" height="11.09" transform="translate(3.74 207.29) rotate(-38.51)"/><rect class="cls-3" x="305.86" y="92.02" width="0.94" height="11.9" transform="translate(485.04 365.36) rotate(-141.49)"/><rect class="cls-3" x="301.68" y="93.88" width="1.33" height="39.61"/><polygon class="cls-10" points="279.56 95.8 302.67 88.63 324.81 96.94 279.56 95.8"/></g></svg>