<svg id="Layer_1" data-name="Layer 1" xmlns="http://www.w3.org/2000/svg" viewBox="0 0 452 192"><defs><style>.cls-1{fill:#edb270;}.cls-2{fill:#e79944;}.cls-3{fill:#b27937;}.cls-4{fill:#a100e2;}.cls-5{fill:#a56317;}.cls-6{fill:#e38620;}</style></defs><title>marrakech</title><g id="Gate"><rect class="cls-1" x="80.66" y="1.09" width="31.64" height="189.82"/><rect class="cls-2" x="1.57" y="32.63" width="79.09" height="158.18"/><rect class="cls-1" x="339.71" y="1.09" width="31.64" height="189.82"/><rect class="cls-2" x="371.34" y="32.63" width="79.09" height="158.18"/><polygon class="cls-3" points="126.9 7.47 126.9 190.91 195.92 190.91 195.92 115.07 256.4 115.07 256.4 190.91 325.1 190.91 325.1 7.47 126.9 7.47"/><rect class="cls-4" x="112.29" y="7.22" width="14.61" height="19.26"/><rect class="cls-4" x="126.9" y="7.22" width="198.04" height="4.75"/><rect class="cls-5" x="112.29" y="26.48" width="14.61" height="164.43"/><rect class="cls-4" x="325.1" y="7.22" width="14.61" height="19.26"/><rect class="cls-5" x="325.1" y="26.48" width="14.61" height="164.43"/><polygon class="cls-1" points="140.31 46.03 140.31 190.81 195.92 190.81 195.92 115.07 256.4 115.07 256.4 190.81 311.12 190.81 311.12 46.03 140.31 46.03"/><rect class="cls-4" x="112.29" y="26.48" width="227.41" height="6.05"/><polygon class="cls-3" points="146.62 52.73 146.62 190.81 195.5 190.81 195.5 113.38 255.56 113.38 255.56 190.81 304.81 190.81 304.81 52.73 146.62 52.73"/><path class="cls-6" d="M225.71,58.4h0c-43.5,0-79.09,37-79.09,82.25v50.26h46.76V115.07H258.1v75.84h46.71V140.65C304.81,95.41,269.22,58.4,225.71,58.4Z"/><path class="cls-5" d="M225.71,73.19c-35.76,0-64.86,34.84-64.86,77.67v40h35.06V112.53h60.9v78.38h33.74v-40C290.57,108,261.48,73.19,225.71,73.19Z"/><path class="cls-6" d="M258.93,190.81v-78.9H194.08v78.9H162.44V152.23c0-42.71,28.38-77.45,63.27-77.45S289,109.52,289,152.23v38.58Z"/><path class="cls-1" d="M225.71,87.43c-27.91,0-50.62,33.14-50.62,73.88v29.6h22.15V169.7c0-29.19,13.25-52.94,28.47-52.94s28.47,23.75,28.47,52.94v21.21h22.15v-29.6C276.33,120.57,253.63,87.43,225.71,87.43Z"/><circle class="cls-5" cx="225.71" cy="55.57" r="2.83"/></g></svg>