<svg id="Layer_1" data-name="Layer 1" xmlns="http://www.w3.org/2000/svg" viewBox="0 0 372 256"><defs><style>.cls-1{fill:#5a6f5f;}.cls-2{fill:#f3d632;}.cls-3{fill:#84e895;}.cls-4{fill:#f7e270;}.cls-5{fill:#e38620;}.cls-6{fill:#b0f0bb;}.cls-7{fill:#415947;}.cls-8{fill:#fff;}</style></defs><title>siemreap</title><rect class="cls-1" x="158.2" y="89.24" width="57.84" height="60.99"/><rect class="cls-2" x="163.66" y="111.62" width="44.33" height="38.6"/><polygon class="cls-2" points="163.66 111.62 163.66 109.56 163.66 107.86 167.25 107.86 167.25 100.89 171.06 100.89 171.06 93.67 174.07 93.67 174.07 92.29 173.33 92.29 173.33 84.51 177.06 84.51 177.06 81.59 176.25 81.59 176.25 74.78 178.19 74.78 179.9 68.78 178.36 68.78 178.36 63.59 179.9 63.59 182.37 54.11 180.63 54.11 180.63 50.05 182.37 50.05 182.37 42.5 181.74 41.87 184.59 27.65 184.59 17.15 185.66 0.7 185.82 0.7 185.82 111.62 163.66 111.62"/><polygon class="cls-2" points="207.98 111.62 207.98 109.56 207.98 107.86 204.39 107.86 204.39 100.89 200.58 100.89 200.58 93.67 197.57 93.67 197.57 92.29 198.31 92.29 198.31 84.51 194.58 84.51 194.58 81.59 195.39 81.59 195.39 74.78 193.44 74.78 191.74 68.78 193.28 68.78 193.28 63.59 191.74 63.59 189.27 54.11 191.01 54.11 191.01 50.05 189.27 50.05 189.27 42.5 189.9 41.87 187.05 27.65 187.05 17.15 185.98 0.7 185.82 0.7 185.82 111.62 207.98 111.62"/><rect class="cls-3" x="133.26" y="202.7" width="102.17" height="1.24"/><rect class="cls-4" x="62.23" y="105.73" width="24.86" height="33.15"/><rect class="cls-3" x="60.21" y="111.98" width="28.92" height="20.66" transform="translate(196.97 47.64) rotate(90)"/><rect class="cls-4" x="87.1" y="102.51" width="48.34" height="32.23"/><rect class="cls-3" x="96.81" y="96.94" width="28.92" height="43.38" transform="translate(-7.35 229.89) rotate(-90)"/><rect class="cls-4" x="135.44" y="98.6" width="29.01" height="30.16"/><rect class="cls-3" x="136.52" y="101.28" width="26.85" height="24.79" transform="translate(36.27 263.62) rotate(-90)"/><rect class="cls-2" x="87.1" y="134.74" width="49.51" height="4.14"/><polygon class="cls-4" points="135.48 137.74 162.33 137.74 161.71 145.49 134.48 145.49 135.48 137.74"/><rect class="cls-2" x="133.37" y="145.28" width="29.01" height="3.93"/><rect class="cls-2" x="82.77" y="148.26" width="52.4" height="3.93"/><polygon class="cls-4" points="133.22 148.07 162.33 148.07 161.66 160.99 132.14 160.99 133.22 148.07"/><polygon class="cls-3" points="136.76 143.94 137.35 137.74 160.13 137.74 159.77 143.94 136.76 143.94"/><rect class="cls-2" x="62.23" y="138.88" width="24.86" height="3.33"/><rect class="cls-2" x="34.61" y="152.19" width="48.36" height="2.42"/><polygon class="cls-4" points="85.2 138.88 135.17 138.88 134.18 149.21 83.34 149.21 85.2 138.88"/><polygon class="cls-4" points="81.91 151.29 134.37 151.29 133.33 163.22 79.95 163.22 81.91 151.29"/><polygon class="cls-3" points="82.36 160.46 83.63 154.27 132.14 154.27 131.46 160.46 82.36 160.46"/><polygon class="cls-3" points="85.81 147.14 86.92 140.95 132.89 140.95 132.3 147.14 85.81 147.14"/><polygon class="cls-4" points="58.57 141.87 84.66 141.87 82.77 152.38 32.52 152.38 58.57 141.87"/><polygon class="cls-4" points="34.61 154.27 81.42 154.27 79.3 167.76 1 167.76 34.61 154.27"/><polygon class="cls-3" points="9.38 166.18 35.01 155.85 79 155.85 77.53 166.18 9.38 166.18"/><polygon class="cls-3" points="41.73 150.22 58.97 144.03 82.19 144.03 81.04 150.22 41.73 150.22"/><rect class="cls-2" x="135.44" y="128.75" width="29.01" height="6.92"/><polygon class="cls-3" points="134.35 158.4 135.06 150.13 160.2 150.13 159.75 158.4 134.35 158.4"/><polygon class="cls-5" points="1 167.76 21.74 178.17 137.54 178.17 164.45 171.74 164.45 160.46 133.57 160.46 133.33 163.22 79.95 163.22 79.3 167.76 1 167.76"/><rect class="cls-4" x="16.83" y="171.16" width="4.13" height="42.9"/><polygon class="cls-4" points="23.03 216.64 14.77 216.64 16.83 212.51 20.96 212.51 23.03 216.64"/><polygon class="cls-4" points="23.03 167.76 14.77 167.76 16.83 171.89 20.96 171.89 23.03 167.76"/><rect class="cls-3" x="19.69" y="208.4" width="63.04" height="1.24"/><rect class="cls-3" x="84.63" y="205.07" width="48.63" height="1.24"/><rect class="cls-4" x="33.35" y="171.53" width="4.13" height="42.53"/><polygon class="cls-4" points="39.55 216.64 31.29 216.64 33.35 212.51 37.48 212.51 39.55 216.64"/><polygon class="cls-4" points="39.55 167.76 31.29 167.76 33.35 171.89 37.48 171.89 39.55 167.76"/><rect class="cls-4" x="56.08" y="171.67" width="4.13" height="42.38"/><polygon class="cls-4" points="62.27 216.64 54.01 216.64 56.08 212.51 60.21 212.51 62.27 216.64"/><polygon class="cls-4" points="62.27 167.76 54.01 167.76 56.07 171.89 60.2 171.89 62.27 167.76"/><rect class="cls-4" x="81.39" y="171.77" width="4.13" height="37.1"/><polygon class="cls-4" points="87.59 212.63 79.33 212.63 81.39 208.49 85.52 208.49 87.59 212.63"/><polygon class="cls-4" points="87.59 167.76 79.33 167.76 81.39 171.9 85.52 171.9 87.59 167.76"/><rect class="cls-4" x="133.03" y="170.74" width="4.13" height="36.12"/><polygon class="cls-4" points="139.23 208.49 130.97 208.49 133.03 204.36 137.16 204.36 139.23 208.49"/><polygon class="cls-4" points="139.23 167.77 130.97 167.77 133.03 171.91 137.16 171.91 139.23 167.77"/><rect class="cls-4" x="107.48" y="169.98" width="4.13" height="38.89"/><polygon class="cls-4" points="113.67 212.63 105.41 212.63 107.47 208.49 111.61 208.49 113.67 212.63"/><polygon class="cls-4" points="113.68 167.77 105.41 167.77 107.48 171.91 111.61 171.91 113.68 167.77"/><rect class="cls-4" x="284.9" y="105.73" width="24.86" height="33.15" transform="translate(594.67 244.61) rotate(-180)"/><rect class="cls-3" x="282.88" y="111.98" width="28.92" height="20.66" transform="translate(419.64 -175.03) rotate(90)"/><rect class="cls-4" x="236.56" y="102.51" width="48.34" height="32.23" transform="translate(521.46 237.25) rotate(-180)"/><rect class="cls-3" x="246.27" y="96.94" width="28.92" height="43.38" transform="translate(142.11 379.35) rotate(-90)"/><rect class="cls-4" x="207.55" y="98.6" width="29.01" height="30.16" transform="translate(444.11 227.35) rotate(-180)"/><rect class="cls-3" x="208.63" y="101.28" width="26.85" height="24.79" transform="translate(108.38 335.73) rotate(-90)"/><rect class="cls-2" x="235.39" y="134.74" width="49.51" height="4.14" transform="translate(520.29 273.62) rotate(-180)"/><polygon class="cls-4" points="236.52 137.74 209.67 137.74 210.29 145.49 237.52 145.49 236.52 137.74"/><rect class="cls-2" x="209.62" y="145.28" width="29.01" height="3.93" transform="translate(448.24 294.49) rotate(-180)"/><rect class="cls-2" x="236.83" y="148.26" width="52.4" height="3.93" transform="translate(526.07 300.44) rotate(-180)"/><polygon class="cls-4" points="238.78 148.07 209.67 148.07 210.34 160.99 239.86 160.99 238.78 148.07"/><polygon class="cls-3" points="235.24 143.94 234.65 137.74 211.87 137.74 212.23 143.94 235.24 143.94"/><rect class="cls-2" x="284.9" y="138.88" width="24.86" height="3.33" transform="translate(594.67 281.1) rotate(-180)"/><rect class="cls-2" x="289.03" y="152.19" width="48.36" height="2.42" transform="translate(626.42 306.8) rotate(-180)"/><polygon class="cls-4" points="286.8 138.88 236.83 138.88 237.82 149.21 288.66 149.21 286.8 138.88"/><polygon class="cls-4" points="290.09 151.29 237.63 151.29 238.67 163.22 292.05 163.22 290.09 151.29"/><polygon class="cls-3" points="289.64 160.46 288.37 154.27 239.86 154.27 240.54 160.46 289.64 160.46"/><polygon class="cls-3" points="286.19 147.14 285.07 140.95 239.11 140.95 239.7 147.14 286.19 147.14"/><polygon class="cls-4" points="313.43 141.87 287.34 141.87 289.23 152.38 339.49 152.38 313.43 141.87"/><polygon class="cls-4" points="337.39 154.27 290.58 154.27 292.7 167.76 371 167.76 337.39 154.27"/><polygon class="cls-3" points="362.63 166.18 336.99 155.85 293 155.85 294.47 166.18 362.63 166.18"/><polygon class="cls-3" points="330.27 150.22 313.03 144.03 289.81 144.03 290.96 150.22 330.27 150.22"/><rect class="cls-2" x="207.55" y="128.75" width="29.01" height="6.92" transform="translate(444.11 264.43) rotate(-180)"/><polygon class="cls-3" points="237.65 158.4 236.94 150.13 211.8 150.13 212.25 158.4 237.65 158.4"/><polygon class="cls-5" points="371 167.76 350.26 178.17 234.46 178.17 207.55 171.74 207.55 160.46 238.43 160.46 238.67 163.22 292.05 163.22 292.7 167.76 371 167.76"/><rect class="cls-4" x="351.04" y="171.16" width="4.13" height="42.9" transform="translate(706.21 385.22) rotate(-180)"/><polygon class="cls-4" points="348.97 216.64 357.23 216.64 355.17 212.51 351.04 212.51 348.97 216.64"/><polygon class="cls-4" points="348.97 167.76 357.23 167.76 355.17 171.89 351.04 171.89 348.97 167.76"/><rect class="cls-3" x="289.28" y="208.4" width="63.04" height="1.24" transform="translate(641.59 418.05) rotate(-180)"/><rect class="cls-3" x="238.74" y="205.07" width="48.63" height="1.24" transform="translate(526.11 411.38) rotate(-180)"/><rect class="cls-4" x="334.51" y="171.53" width="4.13" height="42.53" transform="translate(673.16 385.58) rotate(-180)"/><polygon class="cls-4" points="332.45 216.64 340.71 216.64 338.65 212.51 334.51 212.51 332.45 216.64"/><polygon class="cls-4" points="332.45 167.76 340.71 167.76 338.65 171.89 334.52 171.89 332.45 167.76"/><rect class="cls-4" x="311.79" y="171.67" width="4.13" height="42.38" transform="translate(627.72 385.73) rotate(-180)"/><polygon class="cls-4" points="309.73 216.64 317.99 216.64 315.93 212.51 311.79 212.51 309.73 216.64"/><polygon class="cls-4" points="309.73 167.76 317.99 167.76 315.93 171.89 311.8 171.89 309.73 167.76"/><rect class="cls-4" x="286.48" y="171.77" width="4.13" height="37.1" transform="translate(577.08 380.63) rotate(-180)"/><polygon class="cls-4" points="284.41 212.63 292.67 212.63 290.61 208.49 286.48 208.49 284.41 212.63"/><polygon class="cls-4" points="284.41 167.76 292.67 167.76 290.61 171.9 286.48 171.9 284.41 167.76"/><rect class="cls-4" x="234.84" y="170.74" width="4.13" height="36.12" transform="translate(473.81 377.6) rotate(-180)"/><polygon class="cls-4" points="232.77 208.49 241.03 208.49 238.97 204.36 234.84 204.36 232.77 208.49"/><polygon class="cls-4" points="232.77 167.77 241.03 167.77 238.97 171.91 234.84 171.91 232.77 167.77"/><rect class="cls-4" x="260.39" y="169.98" width="4.13" height="38.89" transform="translate(524.92 378.84) rotate(-180)"/><polygon class="cls-4" points="258.33 212.63 266.59 212.63 264.53 208.49 260.39 208.49 258.33 212.63"/><polygon class="cls-4" points="258.32 167.77 266.59 167.77 264.52 171.91 260.39 171.91 258.32 167.77"/><rect class="cls-4" x="11.54" y="216.64" width="351.14" height="38.66"/><rect class="cls-4" x="75.84" y="212.62" width="218.95" height="38.24"/><rect class="cls-4" x="127.54" y="208.49" width="119.16" height="38.24"/><rect class="cls-6" x="166.68" y="227.37" width="40.88" height="27.93"/><rect class="cls-1" x="159.17" y="227.09" width="7.51" height="28.21"/><rect class="cls-1" x="207.55" y="227.09" width="7.51" height="28.21"/><rect class="cls-7" x="128.27" y="222.32" width="117.69" height="5.04"/><rect class="cls-3" x="128.27" y="212.87" width="117.69" height="7.15"/><rect class="cls-7" x="185.05" y="160.97" width="4.13" height="111.54" transform="translate(403.85 29.62) rotate(90)"/><polygon class="cls-6" points="245.96 222.32 128.27 222.32 126.8 220.01 247.43 220.01 245.96 222.32"/><rect class="cls-3" x="146.33" y="212.87" width="3.07" height="7.15"/><rect class="cls-3" x="172.54" y="212.87" width="3.07" height="7.15"/><rect class="cls-3" x="197.85" y="212.86" width="3.07" height="7.15"/><rect class="cls-3" x="224.17" y="212.86" width="3.07" height="7.15"/><rect class="cls-2" x="145.57" y="230.06" width="4.6" height="24.96"/><polygon class="cls-2" points="150.16 230.81 145.57 230.81 143.5 227.37 152.24 227.37 150.16 230.81"/><rect class="cls-2" x="223.68" y="230.06" width="4.6" height="24.96"/><polygon class="cls-2" points="228.28 230.81 223.68 230.81 221.61 227.37 230.35 227.37 228.28 230.81"/><rect class="cls-3" x="159.17" y="149.12" width="54.56" height="50.61"/><polygon class="cls-3" points="213.72 149.12 159.17 149.12 155.25 144.69 217.65 144.69 213.72 149.12"/><rect class="cls-4" x="166.15" y="146.91" width="40.16" height="50.61"/><rect class="cls-2" x="166.82" y="158.4" width="39.25" height="26.85" transform="translate(358.27 -14.62) rotate(90)"/><rect class="cls-4" x="161.74" y="126.08" width="48.97" height="18.58"/><polygon class="cls-1" points="212.07 126.08 160.38 126.08 185.25 86.07 187.95 86.07 212.07 126.08"/><polygon class="cls-4" points="164.6 126.08 186.62 91.05 208.03 126.08 164.6 126.08"/><rect class="cls-1" x="185.4" y="74.98" width="2.4" height="12.44"/><circle class="cls-2" cx="187.11" cy="112.08" r="8.8"/><path class="cls-2" d="M156.22,162.85a4.18,4.18,0,0,0,1.21,2.55,4,4,0,0,1,1.31,3.05c0,.88-.29,1.06,0,1.48s1,.22,1,0-.13-3.35-.13-3.35,2.55,2.77.92,4.62-3.69-.67-3.69-.67-1.13-1.38-1.17-1,1.13.75.84,3c0,.84,1.8,1.46,1.86,2.22a9.06,9.06,0,0,1,0,1.42s.31.67,1.69-1.21,1.8-2.39,2.34-1.93,1.3,1.63.59,2.09a2.06,2.06,0,0,1-1.3.38l-.46,1s2-1,2,0,0,1.88,0,1.88.17.88-5.69,4.27c-4.73,2.51.75,2.72,1.38,2.09s1.34-3.22,2.55-3,1.88.88,1.42,2.05-1.76.54-1.76.54-1.55,3.47-5,3.47-3.1-.71-3.1-1.26,1-1.8.54-2.22-3.18.33-3.18.33,1.51,3-.63,4.35-4,2-4,3.52,0,2,0,2h2v4.13h-5v-4.13h.53v-.91a3.49,3.49,0,0,1-.85-2.62,4.7,4.7,0,0,1,1.37-3s1.92-.33,1.67-1.09-2.48-1-2.48-3.17S145,180,145.56,180l2.58,0s3.79-.64,2.62-3.3a13.19,13.19,0,0,1-1.25-3.87l.08-2.62s.42-2.54,1.93-3.3a15.57,15.57,0,0,1,3.11-1.29c1.14-.34,1.52,0,1.52,0Z"/><path class="cls-2" d="M144.76,169.66l.53,2.05a3.73,3.73,0,0,0,.57,1.23c.3.43.75,1,1.27,1.71.91,1.16.94,2,0,2.2a8.79,8.79,0,0,0-4,1.63,5.23,5.23,0,0,0-2,3,1.79,1.79,0,0,0,1.45,2.2l1,.15v-1.14s-2-.11-1.55-1.21a3.27,3.27,0,0,1,1.93-2.35,9.07,9.07,0,0,1,3.34-1.18,3,3,0,0,0,1.81-1.25,1.63,1.63,0,0,0,0-1.56c-.45-.87-1.78-1.48-2.35-2.69a7.89,7.89,0,0,1-1.14-2.58C145.2,168.22,144.76,169.66,144.76,169.66Z"/><path class="cls-2" d="M216.32,162.85a4.18,4.18,0,0,1-1.21,2.55,4,4,0,0,0-1.31,3.05c0,.88.29,1.06,0,1.48s-1,.22-1,0,.13-3.35.13-3.35-2.55,2.77-.92,4.62,3.69-.67,3.69-.67,1.13-1.38,1.17-1-1.13.75-.84,3c0,.84-1.8,1.46-1.86,2.22a9.06,9.06,0,0,0,0,1.42s-.31.67-1.69-1.21-1.8-2.39-2.34-1.93-1.3,1.63-.59,2.09a2.06,2.06,0,0,0,1.3.38l.46,1s-2-1-2,0,0,1.88,0,1.88-.17.88,5.69,4.27c4.73,2.51-.75,2.72-1.38,2.09s-1.34-3.22-2.55-3-1.88.88-1.42,2.05,1.76.54,1.76.54,1.55,3.47,5,3.47,3.1-.71,3.1-1.26-1-1.8-.54-2.22,3.18.33,3.18.33-1.51,3,.63,4.35,4,2,4,3.52,0,2,0,2h-2v4.13h5v-4.13h-.53v-.91a3.49,3.49,0,0,0,.85-2.62,4.7,4.7,0,0,0-1.37-3s-1.92-.33-1.67-1.09,2.48-1,2.48-3.17S227.56,180,227,180l-2.58,0s-3.79-.64-2.62-3.3a13.19,13.19,0,0,0,1.25-3.87l-.08-2.62s-.42-2.54-1.93-3.3a15.57,15.57,0,0,0-3.11-1.29c-1.14-.34-1.52,0-1.52,0Z"/><path class="cls-2" d="M227.79,169.66l-.53,2.05a3.73,3.73,0,0,1-.57,1.23c-.3.43-.75,1-1.27,1.71-.91,1.16-.94,2,0,2.2a8.79,8.79,0,0,1,4,1.63,5.23,5.23,0,0,1,2,3,1.79,1.79,0,0,1-1.45,2.2l-1,.15v-1.14s2-.11,1.55-1.21a3.27,3.27,0,0,0-1.93-2.35,9.07,9.07,0,0,0-3.34-1.18,3,3,0,0,1-1.81-1.25,1.63,1.63,0,0,1,0-1.56c.45-.87,1.78-1.48,2.35-2.69a7.89,7.89,0,0,0,1.14-2.58C227.34,168.22,227.79,169.66,227.79,169.66Z"/><rect class="cls-2" x="141.11" y="198.57" width="23.18" height="5.68"/><rect class="cls-2" x="208.66" y="198.57" width="23.18" height="5.68"/><rect class="cls-2" x="163.92" y="202.73" width="45.09" height="5.68"/><rect class="cls-2" x="161.88" y="135.24" width="1.04" height="64.36" rx="0.25" ry="0.25"/><polygon class="cls-2" points="162.4 187.7 162.4 187.7 168.26 197.35 156.16 197.35 162.4 187.7"/><rect class="cls-2" x="209.66" y="135.24" width="1.04" height="64.36" rx="0.25" ry="0.25"/><polygon class="cls-2" points="210.18 187.7 210.18 187.7 216.04 197.35 203.93 197.35 210.18 187.7"/><path class="cls-8" d="M32.44,226.63c-.83,1.37-4.19,7.64,0,13.41a.24.24,0,0,0,.37,0c4.17-5.76.82-12,0-13.41A.2.2,0,0,0,32.44,226.63Z"/><path class="cls-8" d="M54.82,226.63c-.83,1.37-4.19,7.64,0,13.41a.24.24,0,0,0,.37,0c4.17-5.76.82-12,0-13.41A.2.2,0,0,0,54.82,226.63Z"/><path class="cls-8" d="M79.61,226.63c-.83,1.37-4.19,7.64,0,13.41a.24.24,0,0,0,.37,0c4.17-5.76.82-12,0-13.41A.2.2,0,0,0,79.61,226.63Z"/><path class="cls-8" d="M104.17,226.64v10.12a.61.61,0,0,0,0,.24l1.34,3.13h.67V222.45h-1l-1,4A.63.63,0,0,0,104.17,226.64Z"/><path class="cls-8" d="M107.82,226.64v10.12a.61.61,0,0,1,0,.24l-1.34,3.13h-.67V222.45h1l1,4A.63.63,0,0,1,107.82,226.64Z"/><polygon class="cls-7" points="128.09 215.48 80.59 215.48 78.77 215.48 78.77 219.16 11.3 219.16 11.3 222.77 82.41 222.77 82.41 219.13 128.09 219.13 128.09 215.48"/><polygon class="cls-1" points="16.93 226.53 18.43 228.33 26.97 228.33 28.47 226.53 16.93 226.53"/><rect class="cls-1" x="20.69" y="224.52" width="4.03" height="4.03" transform="translate(166.83 50.3) rotate(45)"/><polygon class="cls-1" points="37.02 226.53 38.52 228.33 47.06 228.33 48.56 226.53 37.02 226.53"/><rect class="cls-1" x="40.77" y="224.52" width="4.03" height="4.03" transform="translate(172.72 36.1) rotate(45)"/><polygon class="cls-1" points="61.8 226.53 63.3 228.33 71.84 228.33 73.34 226.53 61.8 226.53"/><rect class="cls-1" x="65.56" y="224.52" width="4.03" height="4.03" transform="translate(179.97 18.57) rotate(45)"/><polygon class="cls-1" points="86.95 224.22 88.52 226.02 97.47 226.02 99.04 224.22 86.95 224.22"/><rect class="cls-1" x="90.95" y="222.21" width="4.03" height="4.03" transform="translate(185.78 -0.06) rotate(45)"/><rect class="cls-5" x="88.45" y="226.02" width="9.02" height="14.1"/><polygon class="cls-1" points="113.38 224.22 114.95 226.02 123.9 226.02 125.47 224.22 113.38 224.22"/><rect class="cls-1" x="117.37" y="222.21" width="4.03" height="4.03" transform="translate(193.52 -18.75) rotate(45)"/><rect class="cls-5" x="114.88" y="226.02" width="9.02" height="14.1"/><rect class="cls-5" x="18.43" y="228.33" width="8.54" height="11.79"/><rect class="cls-5" x="38.52" y="228.33" width="8.54" height="11.79"/><rect class="cls-5" x="63.3" y="228.33" width="8.54" height="11.79"/><path class="cls-8" d="M341.61,226.63c.83,1.37,4.19,7.64,0,13.41a.24.24,0,0,1-.37,0c-4.17-5.76-.82-12,0-13.41A.2.2,0,0,1,341.61,226.63Z"/><path class="cls-8" d="M319.23,226.63c.83,1.37,4.19,7.64,0,13.41a.24.24,0,0,1-.37,0c-4.17-5.76-.82-12,0-13.41A.2.2,0,0,1,319.23,226.63Z"/><path class="cls-8" d="M294.44,226.63c.83,1.37,4.19,7.64,0,13.41a.24.24,0,0,1-.37,0c-4.17-5.76-.82-12,0-13.41A.2.2,0,0,1,294.44,226.63Z"/><path class="cls-8" d="M269.88,226.64v10.12a.61.61,0,0,1,0,.24l-1.34,3.13h-.67V222.45h1l1,4A.63.63,0,0,1,269.88,226.64Z"/><path class="cls-8" d="M266.23,226.64v10.12a.61.61,0,0,0,0,.24l1.34,3.13h.67V222.45h-1l-1,4A.63.63,0,0,0,266.23,226.64Z"/><polygon class="cls-7" points="245.96 215.48 293.46 215.48 295.28 215.48 295.28 219.16 362.75 219.16 362.75 222.77 291.64 222.77 291.64 219.13 245.96 219.13 245.96 215.48"/><polygon class="cls-1" points="357.12 226.53 355.62 228.33 347.08 228.33 345.58 226.53 357.12 226.53"/><rect class="cls-1" x="349.34" y="224.52" width="4.03" height="4.03" transform="translate(759.98 138.27) rotate(135)"/><polygon class="cls-1" points="337.04 226.53 335.54 228.33 326.99 228.33 325.49 226.53 337.04 226.53"/><rect class="cls-1" x="329.25" y="224.52" width="4.03" height="4.03" transform="translate(725.69 152.48) rotate(135)"/><polygon class="cls-1" points="312.25 226.53 310.75 228.33 302.21 228.33 300.71 226.53 312.25 226.53"/><rect class="cls-1" x="304.46" y="224.52" width="4.03" height="4.03" transform="translate(683.37 170) rotate(135)"/><polygon class="cls-1" points="287.1 224.22 285.53 226.02 276.58 226.02 275.01 224.22 287.1 224.22"/><rect class="cls-1" x="279.07" y="222.21" width="4.03" height="4.03" transform="translate(638.4 184.01) rotate(135)"/><rect class="cls-5" x="276.58" y="226.02" width="9.02" height="14.1" transform="translate(562.18 466.15) rotate(-180)"/><polygon class="cls-1" points="260.68 224.22 259.1 226.02 250.16 226.02 248.58 224.22 260.68 224.22"/><rect class="cls-1" x="252.65" y="222.21" width="4.03" height="4.03" transform="translate(593.29 202.7) rotate(135)"/><rect class="cls-5" x="250.15" y="226.02" width="9.02" height="14.1" transform="translate(509.33 466.15) rotate(-180)"/><rect class="cls-5" x="347.08" y="228.33" width="8.54" height="11.79" transform="translate(702.7 468.46) rotate(-180)"/><rect class="cls-5" x="326.99" y="228.33" width="8.54" height="11.79" transform="translate(662.53 468.46) rotate(-180)"/><rect class="cls-5" x="302.21" y="228.33" width="8.54" height="11.79" transform="translate(612.96 468.46) rotate(-180)"/><path class="cls-7" d="M3.21,157.75c0-1.12-.47-1.28-.47-1.28H2.37c-.1,2.2-.93,2.2-.93,2.2v4.51a.65.65,0,0,1,.68.46v.56a2,2,0,0,1-.91,1.51v2.07H3.66v-2.14a2,2,0,0,0,.6-1.59c0-1.15-.65-1.41-.65-1.41v-1.25H2.74v-1.15A7,7,0,0,0,3.21,157.75Z"/><path class="cls-7" d="M34.51,142.36c0-1.12-.47-1.28-.47-1.28h-.37c-.1,2.2-.93,2.2-.93,2.2v4.51a.65.65,0,0,1,.68.46v.56a2,2,0,0,1-.91,1.51v2.07H35v-2.14a2,2,0,0,0,.6-1.59c0-1.15-.65-1.41-.65-1.41V146H34v-1.15A7,7,0,0,0,34.51,142.36Z"/><path class="cls-7" d="M68.87,105.73a11.51,11.51,0,0,1-5.25-3.4c-2.7-2.84-2.5-3.89-2.5-3.89V96.83a2.6,2.6,0,0,0,1.07-2.11,3.61,3.61,0,0,0-1.07-2.53s.59,2.77-.9,4.21-.24,7.27,2,9.33Z"/><path class="cls-7" d="M142.07,98.6a11.51,11.51,0,0,1-5.25-3.4c-2.7-2.84-2.5-3.89-2.5-3.89V89.69a2.6,2.6,0,0,0,1.07-2.11,3.61,3.61,0,0,0-1.07-2.53s.59,2.77-.9,4.21-.24,7.27,2,9.33Z"/><path class="cls-7" d="M164.83,89.24a11.51,11.51,0,0,1-5.25-3.4c-2.7-2.84-2.5-3.89-2.5-3.89V80.33a2.6,2.6,0,0,0,1.07-2.11,3.61,3.61,0,0,0-1.07-2.53s.59,2.77-.9,4.21-.24,7.27,2,9.33Z"/><path class="cls-7" d="M93.74,102.51a11.51,11.51,0,0,1-5.25-3.4c-2.7-2.84-2.5-3.89-2.5-3.89V93.61A2.6,2.6,0,0,0,87,91.5,3.61,3.61,0,0,0,86,89s.59,2.77-.9,4.21-.24,7.27,2,9.33Z"/><path class="cls-7" d="M369,157.76c0-1.12.47-1.28.47-1.28h.37c.1,2.2.93,2.2.93,2.2v4.51a.65.65,0,0,0-.68.46v.56a2,2,0,0,0,.91,1.51v2.07h-2.44v-2.14A2,2,0,0,1,368,164c0-1.15.65-1.41.65-1.41v-1.25h.87v-1.15A7,7,0,0,1,369,157.76Z"/><path class="cls-7" d="M337.46,142.36c0-1.12.47-1.28.47-1.28h.37c.1,2.2.93,2.2.93,2.2v4.51a.65.65,0,0,0-.68.46v.56a2,2,0,0,0,.91,1.51v2.07H337v-2.14a2,2,0,0,1-.6-1.59c0-1.15.65-1.41.65-1.41V146h.87v-1.15A7,7,0,0,1,337.46,142.36Z"/><path class="cls-7" d="M303.12,105.73a11.51,11.51,0,0,0,5.25-3.4c2.7-2.84,2.5-3.89,2.5-3.89V96.83a2.6,2.6,0,0,1-1.07-2.11,3.61,3.61,0,0,1,1.07-2.53s-.59,2.77.9,4.21.24,7.27-2,9.33Z"/><path class="cls-7" d="M229.92,98.6a11.51,11.51,0,0,0,5.25-3.4c2.7-2.84,2.5-3.89,2.5-3.89V89.69a2.6,2.6,0,0,1-1.07-2.11,3.61,3.61,0,0,1,1.07-2.53s-.59,2.77.9,4.21.24,7.27-2,9.33Z"/><path class="cls-7" d="M209.4,89.24a11.51,11.51,0,0,0,5.25-3.4c2.7-2.84,2.5-3.89,2.5-3.89V80.33a2.6,2.6,0,0,1-1.07-2.11,3.61,3.61,0,0,1,1.07-2.53s-.59,2.77.9,4.21.24,7.27-2,9.33Z"/><path class="cls-7" d="M278.27,102.51a11.51,11.51,0,0,0,5.25-3.4c2.7-2.84,2.5-3.89,2.5-3.89V93.61A2.6,2.6,0,0,1,285,91.5,3.61,3.61,0,0,1,286,89s-.59,2.77.9,4.21.24,7.27-2,9.33Z"/></svg>