<svg id="Layer_1" data-name="Layer 1" xmlns="http://www.w3.org/2000/svg" xmlns:xlink="http://www.w3.org/1999/xlink" viewBox="0 0 399 280"><defs><style>.cls-1{fill:#e38620;}.cls-2{fill:#e89b46;}.cls-3{fill:#94eba3;}.cls-4{fill:#f6e063;}.cls-5{fill:url(#linear-gradient);}.cls-6{fill:url(#linear-gradient-2);}.cls-7{fill:#f3d632;}.cls-8{fill:#f9e990;}.cls-9{fill:url(#linear-gradient-3);}.cls-10{fill:url(#linear-gradient-4);}.cls-11{fill:url(#linear-gradient-5);}.cls-12{fill:url(#linear-gradient-6);}.cls-13{fill:url(#linear-gradient-7);}.cls-14{fill:url(#linear-gradient-8);}.cls-15{fill:url(#linear-gradient-9);}.cls-16{fill:#fbf3c2;}.cls-17{fill:#84e895;}</style><linearGradient id="linear-gradient" x1="-736.99" y1="197.08" x2="-736.99" y2="186.75" gradientTransform="matrix(1, 0, 0, -1, 1061.89, 383.83)" gradientUnits="userSpaceOnUse"><stop offset="0" stop-color="#f3d632" stop-opacity="0"/><stop offset="0.08" stop-color="#e8d83f" stop-opacity="0.11"/><stop offset="0.27" stop-color="#cfde5d" stop-opacity="0.38"/><stop offset="0.45" stop-color="#bae376" stop-opacity="0.6"/><stop offset="0.62" stop-color="#a9e689" stop-opacity="0.77"/><stop offset="0.77" stop-color="#9ee997" stop-opacity="0.9"/><stop offset="0.9" stop-color="#97eaa0" stop-opacity="0.97"/><stop offset="1" stop-color="#94eba3"/></linearGradient><linearGradient id="linear-gradient-2" x1="-785.1" y1="200.48" x2="-785.1" y2="192.67" gradientTransform="matrix(1, 0, 0, -1, 1158.12, 393.14)" xlink:href="#linear-gradient"/><linearGradient id="linear-gradient-3" x1="90.83" y1="148.93" x2="75.28" y2="148.93" gradientUnits="userSpaceOnUse"><stop offset="0.45" stop-color="#f9e990" stop-opacity="0"/><stop offset="0.59" stop-color="#f8e57a" stop-opacity="0.23"/><stop offset="0.9" stop-color="#f4da44" stop-opacity="0.8"/><stop offset="1" stop-color="#f3d632"/></linearGradient><linearGradient id="linear-gradient-4" x1="-727.77" y1="149.09" x2="-743.31" y2="149.09" gradientTransform="matrix(1, 0, 0, -1, 1052.27, 298.17)" xlink:href="#linear-gradient-3"/><linearGradient id="linear-gradient-5" x1="74.09" y1="197.08" x2="74.09" y2="186.75" gradientTransform="matrix(1, 0, 0, 1, 0, 0)" xlink:href="#linear-gradient"/><linearGradient id="linear-gradient-6" x1="25.98" y1="200.48" x2="25.98" y2="192.67" gradientTransform="matrix(1, 0, 0, 1, 0, 0)" xlink:href="#linear-gradient"/><linearGradient id="linear-gradient-7" x1="653.16" y1="178.3" x2="653.16" y2="153.23" gradientTransform="matrix(1, 0, 0, -1, -453.18, 331.53)" gradientUnits="userSpaceOnUse"><stop offset="0.18" stop-color="#f6e063" stop-opacity="0"/><stop offset="0.24" stop-color="#ebe16a" stop-opacity="0.11"/><stop offset="0.4" stop-color="#d1e47b" stop-opacity="0.38"/><stop offset="0.55" stop-color="#bbe789" stop-opacity="0.6"/><stop offset="0.69" stop-color="#aae995" stop-opacity="0.77"/><stop offset="0.81" stop-color="#9eea9c" stop-opacity="0.9"/><stop offset="0.92" stop-color="#97eba1" stop-opacity="0.97"/><stop offset="1" stop-color="#94eba3"/></linearGradient><linearGradient id="linear-gradient-8" x1="199.63" y1="135.38" x2="199.63" y2="130.95" gradientUnits="userSpaceOnUse"><stop offset="0.23" stop-color="#f3d632" stop-opacity="0"/><stop offset="0.26" stop-color="#ecd83a" stop-opacity="0.07"/><stop offset="0.33" stop-color="#d8dc52" stop-opacity="0.29"/><stop offset="0.41" stop-color="#c6e068" stop-opacity="0.48"/><stop offset="0.5" stop-color="#b6e37a" stop-opacity="0.64"/><stop offset="0.58" stop-color="#aae689" stop-opacity="0.77"/><stop offset="0.67" stop-color="#a0e895" stop-opacity="0.87"/><stop offset="0.77" stop-color="#99ea9d" stop-opacity="0.94"/><stop offset="0.87" stop-color="#95eba1" stop-opacity="0.99"/><stop offset="1" stop-color="#94eba3"/></linearGradient><linearGradient id="linear-gradient-9" x1="199.63" y1="121.47" x2="199.63" y2="117.32" xlink:href="#linear-gradient-8"/></defs><title>siemreap</title><rect class="cls-1" x="295.79" y="162.56" width="81.93" height="17.31" transform="translate(673.51 342.43) rotate(-180)"/><rect class="cls-1" x="236.26" y="209.24" width="161.24" height="36.63" transform="translate(633.76 455.11) rotate(-180)"/><rect class="cls-2" x="289.08" y="239.87" width="70.43" height="38.69" transform="translate(648.6 518.43) rotate(-180)"/><rect class="cls-2" x="359.51" y="240.7" width="37.99" height="37.86" transform="translate(757.01 519.26) rotate(-180)"/><rect class="cls-3" x="284.12" y="184.05" width="69.86" height="2.7" transform="translate(638.11 370.8) rotate(-180)"/><rect class="cls-4" x="283.52" y="135.83" width="25.81" height="27.09" transform="translate(592.86 298.74) rotate(-180)"/><rect class="cls-2" x="284.12" y="186.85" width="81.57" height="13.63" transform="translate(649.81 387.33) rotate(-180)"/><rect class="cls-2" x="353.99" y="192.2" width="38.07" height="8.28" transform="translate(746.04 392.68) rotate(-180)"/><rect class="cls-5" x="284.12" y="186.75" width="81.57" height="10.33" transform="translate(649.81 383.83) rotate(-180)"/><rect class="cls-6" x="353.99" y="192.67" width="38.07" height="7.81" transform="translate(746.04 393.14) rotate(-180)"/><rect class="cls-7" x="282.88" y="165.34" width="71.11" height="18.71" transform="translate(636.87 349.39) rotate(-180)"/><rect class="cls-7" x="284.12" y="200.48" width="113.38" height="11.07" transform="translate(681.62 412.03) rotate(-180)"/><rect class="cls-3" x="353.99" y="189.97" width="38.07" height="2.7" transform="translate(746.04 382.64) rotate(-180)"/><rect class="cls-3" x="286.39" y="211.55" width="111.11" height="2.7" transform="translate(683.89 425.8) rotate(-180)"/><rect class="cls-7" x="353.99" y="171.21" width="38.07" height="18.71" transform="translate(746.04 361.14) rotate(-180)"/><rect class="cls-7" x="252.08" y="213.83" width="3.81" height="19.78" transform="translate(507.97 447.43) rotate(-180)"/><polygon class="cls-7" points="257.06 235.46 255.89 233.6 252.08 233.6 250.91 235.46 250.91 238 257.06 238 257.06 235.46"/><polygon class="cls-7" points="257.11 212.06 255.89 213.83 252.08 213.83 250.91 212.06 250.91 209.65 257.11 209.65 257.11 212.06"/><rect class="cls-7" x="285.19" y="213.83" width="3.81" height="19.78" transform="translate(574.19 447.43) rotate(-180)"/><polygon class="cls-7" points="290.17 235.46 289 233.6 285.19 233.6 284.02 235.46 284.02 238 290.17 238 290.17 235.46"/><polygon class="cls-7" points="290.22 212.06 289 213.83 285.19 213.83 284.02 212.06 284.02 209.65 290.22 209.65 290.22 212.06"/><rect class="cls-7" x="314.1" y="215.72" width="3.81" height="19.78" transform="translate(632.01 451.23) rotate(-180)"/><polygon class="cls-7" points="319.08 237.36 317.92 235.5 314.1 235.5 312.93 237.36 312.93 239.89 319.08 239.89 319.08 237.36"/><polygon class="cls-7" points="319.13 213.96 317.92 215.72 314.1 215.72 312.93 213.96 312.93 211.55 319.13 211.55 319.13 213.96"/><rect class="cls-7" x="348.23" y="215.72" width="3.81" height="19.78" transform="translate(700.28 451.23) rotate(-180)"/><polygon class="cls-7" points="353.21 237.36 352.05 235.5 348.23 235.5 347.06 237.36 347.06 239.89 353.21 239.89 353.21 237.36"/><polygon class="cls-7" points="353.26 213.96 352.05 215.72 348.23 215.72 347.06 213.96 347.06 211.55 353.26 211.55 353.26 213.96"/><rect class="cls-7" x="373.26" y="218.14" width="3.81" height="18.43" transform="translate(750.33 454.71) rotate(-180)"/><polygon class="cls-7" points="378.24 238.3 377.07 236.57 373.26 236.57 372.09 238.3 372.09 240.66 378.24 240.66 378.24 238.3"/><polygon class="cls-7" points="378.29 216.49 377.07 218.14 373.26 218.14 372.09 216.49 372.09 214.25 378.29 214.25 378.29 216.49"/><rect class="cls-7" x="392.47" y="218.14" width="3.81" height="18.43" transform="translate(788.76 454.71) rotate(-180)"/><polygon class="cls-7" points="397.45 238.3 396.29 236.57 392.47 236.57 391.3 238.3 391.3 240.66 397.45 240.66 397.45 238.3"/><polygon class="cls-7" points="397.5 216.49 396.29 218.14 392.47 218.14 391.31 216.49 391.31 214.25 397.5 214.25 397.5 216.49"/><rect class="cls-7" x="287" y="147.02" width="21.73" height="11.18" transform="translate(595.73 305.21) rotate(-180)"/><rect class="cls-4" x="299.66" y="147.76" width="8.57" height="9.93" transform="translate(607.9 305.46) rotate(-180)"/><rect class="cls-4" x="288.36" y="147.76" width="8.57" height="9.93" transform="translate(585.3 305.46) rotate(-180)"/><rect class="cls-7" x="90.57" y="122.12" width="217.85" height="15.04"/><rect class="cls-1" x="21.28" y="162.56" width="81.93" height="17.31"/><path class="cls-2" d="M93.24,125.1H101v0h15.23c-.93,0-1.95-3.19-3.09-5.09A227,227,0,0,1,101,97.58c-1.3-2.54-2.53-4.18-3.85-4.18s-2.88,1.84-4.32,4.67a205.91,205.91,0,0,1-11.61,21.88c-1.14,1.9-2.16,5.13-3.09,5.13H93.24Z"/><path class="cls-7" d="M61.07,124H35.67s-3.33-11.18-2.73-20S34.76,74.22,45.21,56.9,58.69,32,58.69,32h2.49Z"/><path class="cls-7" d="M61.05,124h25.4s3.33-11.18,2.73-20S87.36,74.22,76.91,56.9,63.43,32,63.43,32H60.94Z"/><rect class="cls-8" x="33.23" y="122.12" width="58.62" height="9.83"/><rect class="cls-8" x="44.59" y="116.1" width="32.7" height="13.27"/><path class="cls-4" d="M62.39,50.45a1.34,1.34,0,0,0-2.43,0c-2.55,5.44-7.24,19.31-7.33,41.07-.07,18.13-.08,25.29,0,27.62a1.35,1.35,0,0,0,1.35,1.3l7.17,0h7a1.35,1.35,0,0,0,1.35-1.3c.08-2.33.29-8.56.27-26.95C69.75,70.46,64.95,55.89,62.39,50.45Z"/><rect class="cls-4" x="47.34" y="120.47" width="27.68" height="7.6"/><polygon class="cls-4" points="75.02 120.47 47.34 120.47 56.6 112.87 65.75 112.87 75.02 120.47"/><rect class="cls-8" x="42.57" y="133.93" width="25.77" height="28.55"/><rect class="cls-4" x="31.71" y="135.37" width="10.86" height="22.9"/><rect class="cls-4" x="68.35" y="135.37" width="22.48" height="27.11"/><rect class="cls-1" x="36.56" y="146.82" width="5.36" height="10.79"/><rect class="cls-4" x="40.44" y="150.47" width="1.32" height="6.98"/><rect class="cls-4" x="30.25" y="143.79" width="1.47" height="15.45"/><polygon class="cls-4" points="31.71 162.48 28.94 162.48 30.25 159.25 31.71 159.25 31.71 162.48"/><polygon class="cls-4" points="31.71 139.81 28.26 139.81 30.25 143.79 31.71 143.79 31.71 139.81"/><rect class="cls-8" x="31.71" y="158.27" width="10.86" height="4.22"/><rect class="cls-4" x="68.35" y="133.93" width="6.93" height="24.34"/><rect class="cls-9" x="75.28" y="135.37" width="15.54" height="27.11"/><rect class="cls-1" x="77.42" y="146.82" width="7.98" height="10.79"/><rect class="cls-7" x="33.02" y="131.95" width="58.62" height="3.97"/><polygon class="cls-4" points="28.26 139.81 30.16 128.97 33.23 128.05 33.23 139.81 28.26 139.81"/><rect class="cls-8" x="52.08" y="138.36" width="13.2" height="19.09"/><rect class="cls-1" x="55.29" y="139.81" width="7.31" height="15.32"/><polygon class="cls-4" points="48.47 135.37 49.74 138.94 68.34 138.94 69.69 135.37 48.47 135.37"/><path class="cls-7" d="M48.45,135.37l-.55-4s-.19-1.74.73-2.17a3.63,3.63,0,0,1,1.14-.25.82.82,0,0,0,.62-.84,2.34,2.34,0,0,1,.45-2c.54-.48,1.32-.8,1.36-1.24s0-1.2.45-1.4a18.6,18.6,0,0,1,2.69-1.2c.7-.16.79.68,1.36.44s.7-.52.7-.92v-.92s.21-1,1.65-1v15.57Z"/><path class="cls-7" d="M69.7,135.37l.55-4s.19-1.74-.73-2.17a3.63,3.63,0,0,0-1.14-.25.82.82,0,0,1-.62-.84,2.34,2.34,0,0,0-.45-2c-.54-.48-1.32-.8-1.36-1.24s0-1.2-.45-1.4a18.6,18.6,0,0,0-2.69-1.2c-.7-.16-.79.68-1.36.44s-.7-.52-.7-.92v-.92s-.21-1-1.65-1v15.57Z"/><path class="cls-4" d="M65.84,133.29c-.31-.2-.82-.41-.82-.63s.45-.47.66-.84a2.39,2.39,0,0,0-.37-2.46,3.12,3.12,0,0,0-2.89-.61c-.76.38-1.3-1-.43-1.55s.13-2,.13-2-.48-1.29-3-1.29-3,1.28-3,1.28-.74,1.36.13,1.95.33,1.91-.43,1.53a3.1,3.1,0,0,0-2.89.57,2.26,2.26,0,0,0-.37,2.39c.21.37.66.47.66.68s-.51.73-.82.93c-.67.43-.46,2.08-.46,2.08H66.31S66.51,133.71,65.84,133.29Z"/><path class="cls-2" d="M306.54,125.26h-7.75v0H283.56c.93,0,1.95-3.19,3.09-5.09a227,227,0,0,0,12.16-22.41c1.3-2.54,2.53-4.18,3.85-4.18s2.88,1.84,4.32,4.67a205.91,205.91,0,0,0,11.61,21.88c1.14,1.9,2.16,5.13,3.09,5.13H306.54Z"/><path class="cls-7" d="M338.71,124.11h25.4s3.33-11.18,2.73-20S365,74.38,354.57,57.06s-13.48-24.87-13.48-24.87H338.6Z"/><path class="cls-7" d="M338.73,124.11h-25.4s-3.33-11.18-2.73-20,1.82-29.76,12.27-47.08,13.48-24.87,13.48-24.87h2.49Z"/><rect class="cls-8" x="307.94" y="122.28" width="58.62" height="9.83" transform="translate(674.49 254.38) rotate(-180)"/><rect class="cls-8" x="322.49" y="116.26" width="32.7" height="13.27" transform="translate(677.67 245.79) rotate(-180)"/><path class="cls-4" d="M337.39,50.61a1.34,1.34,0,0,1,2.43,0c2.55,5.44,7.24,19.31,7.33,41.07.07,18.13.08,25.29,0,27.62a1.35,1.35,0,0,1-1.35,1.3l-7.17,0h-7a1.35,1.35,0,0,1-1.35-1.3c-.08-2.33-.29-8.56-.27-26.95C330,70.62,334.83,56,337.39,50.61Z"/><rect class="cls-4" x="324.76" y="120.63" width="27.68" height="7.6" transform="translate(677.2 248.85) rotate(-180)"/><polygon class="cls-4" points="324.76 120.63 352.44 120.63 343.18 113.03 334.02 113.03 324.76 120.63"/><rect class="cls-8" x="331.43" y="134.09" width="25.77" height="28.55" transform="translate(688.64 296.73) rotate(-180)"/><rect class="cls-4" x="357.21" y="135.53" width="10.86" height="22.9" transform="translate(725.27 293.96) rotate(-180)"/><rect class="cls-4" x="308.95" y="135.53" width="22.48" height="27.11" transform="translate(640.38 298.17) rotate(-180)"/><rect class="cls-1" x="357.86" y="146.98" width="5.36" height="10.79" transform="translate(721.08 304.75) rotate(-180)"/><rect class="cls-4" x="358.02" y="150.63" width="1.32" height="6.98" transform="translate(717.36 308.23) rotate(-180)"/><rect class="cls-4" x="368.06" y="143.95" width="1.47" height="15.45" transform="translate(737.6 303.36) rotate(-180)"/><polygon class="cls-4" points="368.06 162.64 370.84 162.64 369.53 159.41 368.06 159.41 368.06 162.64"/><polygon class="cls-4" points="368.06 139.97 371.52 139.97 369.53 143.95 368.06 143.95 368.06 139.97"/><rect class="cls-8" x="357.21" y="158.43" width="10.86" height="4.22" transform="translate(725.27 321.07) rotate(-180)"/><rect class="cls-4" x="324.5" y="134.09" width="6.93" height="24.34" transform="translate(655.93 292.52) rotate(-180)"/><rect class="cls-10" x="308.95" y="135.53" width="15.54" height="27.11" transform="translate(633.45 298.17) rotate(-180)"/><rect class="cls-1" x="314.38" y="146.98" width="7.98" height="10.79" transform="translate(636.75 304.75) rotate(-180)"/><rect class="cls-7" x="308.15" y="132.11" width="58.62" height="3.97" transform="translate(674.91 268.18) rotate(-180)"/><polygon class="cls-4" points="371.52 139.97 369.62 129.13 366.55 128.22 366.55 139.97 371.52 139.97"/><rect class="cls-8" x="334.5" y="138.52" width="13.2" height="19.09" transform="translate(682.2 296.12) rotate(-180)"/><rect class="cls-1" x="337.17" y="139.97" width="7.31" height="15.32" transform="translate(681.66 295.25) rotate(-180)"/><polygon class="cls-4" points="351.31 135.53 350.04 139.1 331.44 139.1 330.09 135.53 351.31 135.53"/><path class="cls-7" d="M351.33,135.53l.55-4s.19-1.74-.73-2.17a3.63,3.63,0,0,0-1.14-.25.82.82,0,0,1-.62-.84,2.34,2.34,0,0,0-.45-2c-.54-.48-1.32-.8-1.36-1.24s0-1.2-.45-1.4a18.6,18.6,0,0,0-2.69-1.2c-.7-.16-.79.68-1.36.44s-.7-.52-.7-.92V121s-.21-1-1.65-1v15.57Z"/><path class="cls-7" d="M330.08,135.53l-.55-4s-.19-1.74.73-2.17a3.63,3.63,0,0,1,1.14-.25.82.82,0,0,0,.62-.84,2.34,2.34,0,0,1,.45-2c.54-.48,1.32-.8,1.36-1.24s0-1.2.45-1.4a18.6,18.6,0,0,1,2.69-1.2c.7-.16.79.68,1.36.44s.7-.52.7-.92V121s.21-1,1.65-1v15.57Z"/><path class="cls-4" d="M333.94,133.45c.31-.2.82-.41.82-.63s-.45-.47-.66-.84a2.39,2.39,0,0,1,.37-2.46,3.12,3.12,0,0,1,2.89-.61c.76.38,1.3-1,.43-1.55s-.13-2-.13-2,.48-1.29,3-1.29,3,1.28,3,1.28.74,1.36-.13,1.95-.33,1.91.43,1.53a3.1,3.1,0,0,1,2.89.57,2.26,2.26,0,0,1,.37,2.39c-.21.37-.66.47-.66.68s.51.73.82.93c.67.43.46,2.08.46,2.08H333.47S333.27,133.87,333.94,133.45Z"/><rect class="cls-1" x="1.5" y="209.24" width="161.24" height="36.63"/><rect class="cls-2" x="39.49" y="239.87" width="70.43" height="38.69"/><rect class="cls-2" x="108.35" y="237.99" width="50.48" height="40.57"/><rect class="cls-2" x="240.41" y="237.99" width="50.48" height="40.57"/><rect class="cls-2" x="1.5" y="240.7" width="37.99" height="37.86"/><rect class="cls-3" x="45.01" y="184.05" width="69.86" height="2.7"/><rect class="cls-4" x="90.31" y="135.83" width="25.81" height="27.09"/><rect class="cls-2" x="33.31" y="186.85" width="81.57" height="13.63"/><rect class="cls-2" x="6.95" y="192.2" width="38.07" height="8.28"/><rect class="cls-11" x="33.31" y="186.75" width="81.57" height="10.33"/><rect class="cls-12" x="6.95" y="192.67" width="38.07" height="7.81"/><rect class="cls-7" x="45.01" y="165.34" width="71.11" height="18.71"/><rect class="cls-7" x="1.5" y="200.48" width="113.38" height="11.07"/><rect class="cls-3" x="6.95" y="189.97" width="38.07" height="2.7"/><rect class="cls-3" x="1.5" y="211.55" width="111.11" height="2.7"/><polygon class="cls-3" points="115.43 165.34 90.58 165.34 66.86 162.64 115.43 162.64 115.43 165.34"/><polygon class="cls-3" points="284.02 165.34 308.87 165.34 332.59 162.64 284.02 162.64 284.02 165.34"/><rect class="cls-7" x="6.95" y="171.21" width="38.07" height="18.71"/><path class="cls-4" d="M208.8,205.09a6.2,6.2,0,0,1-.91-2.25c0-.46-.1-1.25-.71-1.15s-.86.79-1.27.74-.56-.44-.61-1.15-.15-1.74-.66-2a2,2,0,0,0-1.26,0,1.46,1.46,0,0,0-1.35-1.61c-.73,0-.68-1.07-1.19-1.39a2.78,2.78,0,0,0-2.2,0c-.51.31-.45,1.38-1.19,1.38a1.46,1.46,0,0,0-1.35,1.6,1.94,1.94,0,0,0-1.26,0c-.51.25-.61,1.27-.66,2s-.2,1.07-.61,1.12-.66-.71-1.27-.81-.71.56-.71,1a6.9,6.9,0,0,1-.91,2.53c-.61,1.17.36,6,.36,6h17.4S209.41,206.26,208.8,205.09Z"/><path class="cls-8" d="M207.87,206a4.93,4.93,0,0,1-.82-2c0-.36-.09-1.08-.64-1s-.78.57-1.14.53-.5-.37-.55-.93-.14-1.38-.59-1.58a2,2,0,0,0-1.13,0,1.18,1.18,0,0,0-1.22-1.26c-.66,0-.61-.84-1.06-1.09a2.84,2.84,0,0,0-2,0c-.46.24-.41,1.08-1.06,1.08a1.17,1.17,0,0,0-1.22,1.25,2,2,0,0,0-1.13,0c-.46.2-.55,1-.59,1.55s-.18.83-.55.87-.59-.56-1.14-.64-.64.44-.64.79a6.09,6.09,0,0,1-.82,2.38c-.55.91.32,5.08.32,5.08h15.63S208.42,206.9,207.87,206Z"/><rect class="cls-2" x="108.78" y="196.87" width="181.49" height="10.08"/><rect class="cls-2" x="111.16" y="133.67" width="176.74" height="19.56"/><rect class="cls-7" x="115.01" y="153.23" width="169.92" height="25.07"/><rect class="cls-7" x="109.97" y="181.23" width="179.11" height="15.64"/><rect class="cls-13" x="115.01" y="153.23" width="169.92" height="25.07" transform="translate(399.94 331.53) rotate(-180)"/><rect class="cls-1" x="108.78" y="185.3" width="2.93" height="22"/><rect class="cls-1" x="287.34" y="185.29" width="2.93" height="22.01"/><rect class="cls-1" x="109.97" y="178.3" width="179.11" height="2.93"/><rect class="cls-3" x="108.78" y="206.96" width="181.49" height="2.7"/><polygon class="cls-1" points="287.43 107.29 288.46 153.23 282.59 153.23 282.59 125.39 287.43 107.29"/><rect class="cls-2" x="147.57" y="130.95" width="104.11" height="4.88"/><rect class="cls-14" x="147.57" y="130.95" width="104.11" height="4.43"/><rect class="cls-2" x="147.57" y="119.72" width="104.11" height="11.23"/><rect class="cls-2" x="162.94" y="117.32" width="73.36" height="2.98"/><rect class="cls-15" x="162.94" y="117.32" width="73.36" height="4.15"/><rect class="cls-2" x="162.94" y="105.05" width="73.36" height="12.27"/><path class="cls-7" d="M199.63,105.05H173.22s-3.46-12.6-2.83-22.52S172.28,49,183.14,29.47s14-28,14-28h2.59Z"/><path class="cls-7" d="M199.62,105.05H226s3.46-12.6,2.83-22.52S227,49,216.11,29.47s-14-28-14-28H199.5Z"/><path class="cls-4" d="M198.27,25.37c.49-1.46,1.95-1.46,2.43,0,2.55,7.67,7.24,27.21,7.33,57.87.07,25.56.08,35.65,0,38.93,0,1-.62,1.83-1.35,1.83l-7.17,0h-7c-.73,0-1.32-.81-1.35-1.83-.08-3.28-.29-12.06-.27-38C190.92,53.58,195.72,33,198.27,25.37Z"/><path class="cls-4" d="M177.54,159.7v-2.89a31.57,31.57,0,0,1-1.45-3.64,1.61,1.61,0,0,1,.15-1s-.8-.32-.86-1a2.29,2.29,0,0,1,.3-1.56s-2.75-2.34-2.75-3.53c0-.52.64-.81,1.12-.81l.09-2.93s-.29-4.74-.16-6a1.4,1.4,0,0,1-.57-1.13c0-.8,1.88-.36,3.39-.8a4.4,4.4,0,0,0,2.94-2c.41-.88.49-1.29.94-1.37l.1-1.09s0-.49.41-.62,1.94-.34,1.94-.34,2.36-7.57,7.57-7.48,9,0,9,0V159.7Z"/><path class="cls-4" d="M221.93,159.7v-2.89a31.57,31.57,0,0,0,1.45-3.64,1.61,1.61,0,0,0-.15-1s.8-.32.86-1a2.29,2.29,0,0,0-.3-1.56s2.75-2.34,2.75-3.53c0-.52-.64-.81-1.12-.81l-.09-2.93s.29-4.74.16-6a1.4,1.4,0,0,0,.57-1.13c0-.8-1.88-.36-3.39-.8a4.4,4.4,0,0,1-2.94-2c-.41-.88-.49-1.29-.94-1.37l-.1-1.09s0-.49-.41-.62-1.94-.34-1.94-.34-2.36-7.57-7.57-7.48-9,0-9,0V159.7Z"/><path class="cls-8" d="M179,159.7v-2.83a31.83,31.83,0,0,1-1.36-3.57,1.64,1.64,0,0,1,.14-1s-.75-.31-.81-.95a2.33,2.33,0,0,1,.28-1.53s-2.57-2.29-2.57-3.46c0-.51.6-.8,1-.8l.09-2.87s-.27-4.65-.15-5.83a1.39,1.39,0,0,1-.54-1.1c0-.79,1.76-.35,3.17-.79a4.12,4.12,0,0,0,2.75-2c.38-.87.46-1.26.88-1.34l.09-1.07s0-.48.39-.61a18.21,18.21,0,0,1,1.81-.34s2.21-7.42,7.08-7.33,8.44,0,8.44,0v37.4Z"/><path class="cls-8" d="M220.47,159.7v-2.83a31.83,31.83,0,0,0,1.36-3.57,1.64,1.64,0,0,0-.14-1s.75-.31.81-.95a2.33,2.33,0,0,0-.28-1.53s2.57-2.29,2.57-3.46c0-.51-.6-.8-1-.8l-.09-2.87s.27-4.65.15-5.83a1.39,1.39,0,0,0,.54-1.1c0-.79-1.76-.35-3.17-.79a4.12,4.12,0,0,1-2.75-2c-.38-.87-.46-1.26-.88-1.34l-.09-1.07s0-.48-.39-.61a18.21,18.21,0,0,0-1.81-.34s-2.21-7.42-7.08-7.33-8.44,0-8.44,0v37.4Z"/><path class="cls-7" d="M177,204.31h-21.1v-5.82s.64-4.86,2.48-5.25,2.27.14,3,0,.46-1.1.71-1.49a1.24,1.24,0,0,1,1.38-.53s.64-3.12,1.45-3,1,.23,1.14.14.17-.74.83-.76,4.73-6.38,10.12-6.38Z"/><path class="cls-4" d="M177,204.31h-16v-4.4s.48-3.67,1.88-4,1.72.11,2.25,0,.35-.83.54-1.13a.94.94,0,0,1,1-.4s.48-2.36,1.1-2.25.78.17.86.1.13-.56.63-.57,3.58-4.83,7.65-4.83Z"/><polygon class="cls-8" points="177.95 204.27 155.34 204.31 159.9 209.87 159.87 233.75 177.95 233.75 177.95 204.27"/><rect class="cls-4" x="159.88" y="209.86" width="3.77" height="22.6" transform="translate(323.54 442.33) rotate(-180)"/><polygon class="cls-4" points="164.78 208.5 163.65 209.87 160.16 209.87 159.03 208.5 159.03 206.63 164.78 206.63 164.78 208.5"/><rect class="cls-16" x="159.89" y="230.89" width="17.91" height="3.15" transform="translate(337.7 464.94) rotate(-180)"/><rect class="cls-1" x="164.33" y="209.24" width="10.87" height="21.65" transform="translate(339.53 440.13) rotate(-180)"/><rect class="cls-8" x="159.16" y="215.36" width="21.21" height="9.86" transform="translate(390.05 50.52) rotate(90)"/><rect class="cls-17" x="166.59" y="211.41" width="6.34" height="19.48" transform="translate(339.53 442.3) rotate(-180)"/><rect class="cls-8" x="159.89" y="209.86" width="3.5" height="20.74" transform="translate(323.29 440.46) rotate(-180)"/><polygon class="cls-8" points="164.51 208.5 163.39 209.87 159.9 209.87 158.77 208.5 158.77 206.63 164.51 206.63 164.51 208.5"/><polygon class="cls-4" points="177.03 206.85 177.03 206.63 157.24 206.63 157.42 206.85 177.03 206.85"/><polygon class="cls-4" points="177.03 205.93 177.03 205.71 156.49 205.71 156.67 205.93 177.03 205.93"/><polygon class="cls-4" points="177.03 205.09 177.03 204.87 155.8 204.87 155.98 205.09 177.03 205.09"/><path class="cls-7" d="M222.7,204.31h21.1v-5.82s-.64-4.86-2.48-5.25-2.27.14-3,0-.46-1.1-.71-1.49a1.24,1.24,0,0,0-1.38-.53s-.64-3.12-1.45-3-1,.23-1.14.14-.17-.74-.83-.76-4.73-6.38-10.12-6.38Z"/><path class="cls-4" d="M222.7,204.31h16v-4.4s-.48-3.67-1.88-4-1.72.11-2.25,0-.35-.83-.54-1.13a.94.94,0,0,0-1-.4s-.48-2.36-1.1-2.25-.78.17-.86.1-.13-.56-.63-.57-3.58-4.83-7.65-4.83Z"/><rect class="cls-7" x="182.18" y="230.11" width="35.78" height="2.35"/><path class="cls-4" d="M225.21,158.46s-2.52-1-3.66,0c0,0-1.12,1.31-2.16.16s-1.49-1.49-1.61-1.89-.44-2.74-.82-2.87-1.42,0-1.49-.37.06-1.56-.09-1.59l-5.09-1.35.06-.54s.19-.64-.19-.81a9.77,9.77,0,0,1-2.78-2.47c-.35-.51-2.23-1.76-7.64-1.76s-7.29,1.25-7.64,1.76a9.77,9.77,0,0,1-2.78,2.47c-.38.17-.19.81-.19.81l.06.54-5.09,1.35c-.16,0,0,1.22-.09,1.59s-1.11.24-1.49.37-.7,2.47-.82,2.87-.57.74-1.61,1.89-2.16-.16-2.16-.16c-1.15-1-3.66,0-3.66,0-.88.41-.76,2.87-.76,2.87l1.52,19.9h49.44l1.52-19.9S226.09,158.87,225.21,158.46Z"/><path class="cls-8" d="M224.37,159.47s-2.43-.95-3.54,0c0,0-1.08,1.25-2.09.15s-1.44-1.42-1.56-1.81-.43-2.62-.79-2.75-1.38,0-1.44-.36.06-1.49-.09-1.52l-4.92-1.29.06-.52s.18-.61-.18-.78a9.42,9.42,0,0,1-2.69-2.36c-.34-.48-2.15-1.68-7.39-1.68s-7.05,1.2-7.39,1.68a9.42,9.42,0,0,1-2.69,2.36c-.37.16-.18.78-.18.78l.06.52-4.92,1.29c-.15,0,0,1.16-.09,1.52s-1.07.23-1.44.36-.67,2.36-.79,2.75-.55.71-1.56,1.81-2.09-.15-2.09-.15c-1.11-.95-3.54,0-3.54,0-.85.39-.73,2.74-.73,2.74l1.47,19h47.8l1.47-19S225.22,159.87,224.37,159.47Z"/><polygon class="cls-7" points="198.38 278.56 137.28 278.56 137.28 275.94 143.94 273.55 143.94 259 137.28 250.93 137.28 246.14 198.38 246.14 263.29 246.14 263.29 250.93 256.64 259 256.64 273.55 263.29 275.94 263.29 278.56 198.38 278.56"/><rect class="cls-4" x="172.19" y="232.07" width="54.17" height="13.8"/><polygon class="cls-1" points="198.97 166.38 200.47 166.38 221.43 185.91 217.95 234.04 181.47 234.04 178.38 185.91 198.97 166.38"/><rect class="cls-16" x="177.03" y="191.42" width="5.69" height="36.8"/><polygon class="cls-8" points="175.2 231.48 177.03 228.21 182.72 228.21 184.55 231.48 184.55 235.92 175.2 235.92 175.2 231.48"/><polygon class="cls-8" points="175.2 189.19 177.03 191.42 182.72 191.42 184.55 189.19 184.55 186.15 175.2 186.15 175.2 189.19"/><polygon class="cls-8" points="221.78 204.27 244.39 204.31 239.84 209.87 239.86 233.75 221.78 233.75 221.78 204.27"/><rect class="cls-4" x="236.08" y="209.86" width="3.77" height="22.6"/><polygon class="cls-4" points="234.96 208.5 236.08 209.87 239.58 209.87 240.7 208.5 240.7 206.63 234.96 206.63 234.96 208.5"/><rect class="cls-16" x="221.92" y="230.89" width="17.91" height="3.15"/><rect class="cls-2" x="155.98" y="233.75" width="16.21" height="12.12"/><rect class="cls-2" x="226.36" y="233.75" width="16.26" height="12.12"/><polygon class="cls-4" points="198.88 278.56 153.69 278.56 153.69 275.56 158.61 272.84 158.61 256.23 153.69 247.01 153.69 241.55 198.88 241.55 246.88 241.55 246.88 247.01 241.96 256.23 241.96 272.84 246.88 275.56 246.88 278.56 198.88 278.56"/><rect class="cls-1" x="224.53" y="209.24" width="10.87" height="21.65"/><rect class="cls-8" x="219.36" y="215.36" width="21.21" height="9.86" transform="translate(450.25 -9.68) rotate(90)"/><rect class="cls-17" x="226.79" y="211.41" width="6.34" height="19.48"/><rect class="cls-8" x="236.34" y="209.86" width="3.5" height="20.74"/><polygon class="cls-8" points="235.22 208.5 236.34 209.87 239.84 209.87 240.96 208.5 240.96 206.63 235.22 206.63 235.22 208.5"/><rect class="cls-16" x="217.01" y="191.42" width="5.69" height="36.8"/><polygon class="cls-8" points="215.18 231.48 217.01 228.21 222.7 228.21 224.53 231.48 224.53 235.92 215.18 235.92 215.18 231.48"/><polygon class="cls-8" points="215.18 189.19 217.01 191.42 222.7 191.42 224.53 189.19 224.53 186.15 215.18 186.15 215.18 189.19"/><polygon class="cls-4" points="222.7 206.85 222.7 206.63 242.49 206.63 242.31 206.85 222.7 206.85"/><polygon class="cls-4" points="222.7 205.93 222.7 205.71 243.24 205.71 243.06 205.93 222.7 205.93"/><polygon class="cls-4" points="222.7 205.09 222.7 204.87 243.93 204.87 243.75 205.09 222.7 205.09"/><rect class="cls-1" x="185.55" y="192.77" width="28.55" height="37.34"/><rect class="cls-17" x="188.56" y="195.9" width="23.01" height="34.21"/><path class="cls-4" d="M222.8,180.68s-6.64-11.61-10.39-16.24-12.5-3.69-12.5-3.69-8.75-.94-12.5,3.69S177,180.68,177,180.68s-2.51,0-2.41,1.76a23,23,0,0,0,.61,3.71h9.35s2.25-2.67,1.83-4.54c0-.62,2.06-2.94,4.49-4.5s5.6-2.74,6.29-3.68a17.35,17.35,0,0,0,2.73-7.06,17.39,17.39,0,0,0,2.73,7.06c.69.94,3.86,2.13,6.29,3.68s4.49,3.87,4.49,4.49c-.42,1.87,1.77,4.54,1.77,4.54h9.35a19.88,19.88,0,0,0,.67-3.71C225.31,180.67,222.8,180.68,222.8,180.68Z"/><rect class="cls-7" x="143.11" y="213.83" width="3.81" height="19.78"/><polygon class="cls-7" points="141.94 235.46 143.11 233.6 146.92 233.6 148.09 235.46 148.09 238 141.94 238 141.94 235.46"/><polygon class="cls-7" points="141.89 212.06 143.11 213.83 146.92 213.83 148.09 212.06 148.09 209.65 141.89 209.65 141.89 212.06"/><rect class="cls-7" x="110" y="213.83" width="3.81" height="19.78"/><polygon class="cls-7" points="108.83 235.46 110 233.6 113.81 233.6 114.98 235.46 114.98 238 108.83 238 108.83 235.46"/><polygon class="cls-7" points="108.78 212.06 110 213.83 113.81 213.83 114.98 212.06 114.98 209.65 108.78 209.65 108.78 212.06"/><rect class="cls-7" x="81.09" y="215.72" width="3.81" height="19.78"/><polygon class="cls-7" points="79.92 237.36 81.08 235.5 84.9 235.5 86.07 237.36 86.07 239.89 79.92 239.89 79.92 237.36"/><polygon class="cls-7" points="79.87 213.96 81.08 215.72 84.9 215.72 86.07 213.96 86.07 211.55 79.87 211.55 79.87 213.96"/><rect class="cls-7" x="46.95" y="215.72" width="3.81" height="19.78"/><polygon class="cls-7" points="45.78 237.36 46.95 235.5 50.77 235.5 51.94 237.36 51.94 239.89 45.78 239.89 45.78 237.36"/><polygon class="cls-7" points="45.74 213.96 46.95 215.72 50.77 215.72 51.94 213.96 51.94 211.55 45.74 211.55 45.74 213.96"/><rect class="cls-7" x="21.93" y="218.14" width="3.81" height="18.43"/><polygon class="cls-7" points="20.76 238.3 21.93 236.57 25.74 236.57 26.91 238.3 26.91 240.66 20.76 240.66 20.76 238.3"/><polygon class="cls-7" points="20.71 216.49 21.93 218.14 25.74 218.14 26.91 216.49 26.91 214.25 20.71 214.25 20.71 216.49"/><rect class="cls-7" x="2.71" y="218.14" width="3.81" height="18.43"/><polygon class="cls-7" points="1.54 238.3 2.71 236.57 6.53 236.57 7.7 238.3 7.7 240.66 1.54 240.66 1.54 238.3"/><polygon class="cls-7" points="1.5 216.49 2.71 218.14 6.53 218.14 7.7 216.49 7.7 214.25 1.5 214.25 1.5 216.49"/><rect class="cls-7" x="90.91" y="147.02" width="21.73" height="11.18"/><rect class="cls-4" x="91.41" y="147.76" width="8.57" height="9.93"/><rect class="cls-4" x="102.71" y="147.76" width="8.57" height="9.93"/><polygon class="cls-1" points="111.63 107.29 110.6 153.23 116.47 153.23 116.47 125.39 111.63 107.29"/><path class="cls-4" d="M211.34,106.55l-1.29-.67s1.16-1.73,0-2.44-7.55-3.7-7.55-3.7a4.27,4.27,0,0,0-5.53,0s-6.39,3-7.55,3.7,0,2.44,0,2.44l-1.29.67c-1.29.67-1,2.66-1,2.66l4.08,13.26h17.13l4.09-13.26S212.63,107.22,211.34,106.55Z"/></svg>