<svg id="Layer_1" data-name="Layer 1" xmlns="http://www.w3.org/2000/svg" xmlns:xlink="http://www.w3.org/1999/xlink" viewBox="0 0 328 352"><defs><style>.cls-1{fill:#e38620;}.cls-2{fill:#f3d632;}.cls-3{fill:#e7963d;}.cls-4{fill:url(#linear-gradient);}.cls-5{fill:url(#linear-gradient-2);}.cls-6{fill:#415947;}.cls-7{fill:url(#linear-gradient-3);}.cls-8{fill:url(#linear-gradient-4);}.cls-9{fill:url(#linear-gradient-5);}</style><linearGradient id="linear-gradient" x1="142.6" y1="121.08" x2="177.85" y2="156.33" gradientUnits="userSpaceOnUse"><stop offset="0.47" stop-color="#84e895" stop-opacity="0"/><stop offset="0.52" stop-color="#95e586" stop-opacity="0.16"/><stop offset="0.59" stop-color="#aee170" stop-opacity="0.38"/><stop offset="0.66" stop-color="#c3de5d" stop-opacity="0.57"/><stop offset="0.73" stop-color="#d4db4d" stop-opacity="0.72"/><stop offset="0.8" stop-color="#e2d941" stop-opacity="0.84"/><stop offset="0.87" stop-color="#ebd739" stop-opacity="0.93"/><stop offset="0.94" stop-color="#f1d634" stop-opacity="0.98"/><stop offset="1" stop-color="#f3d632"/></linearGradient><linearGradient id="linear-gradient-2" x1="293.71" y1="235.64" x2="293.71" y2="224.43" gradientUnits="userSpaceOnUse"><stop offset="0.11" stop-color="#e38620" stop-opacity="0"/><stop offset="0.12" stop-color="#e38821" stop-opacity="0.03"/><stop offset="0.22" stop-color="#e79a25" stop-opacity="0.25"/><stop offset="0.32" stop-color="#eaaa28" stop-opacity="0.45"/><stop offset="0.43" stop-color="#edb82b" stop-opacity="0.62"/><stop offset="0.53" stop-color="#efc32e" stop-opacity="0.76"/><stop offset="0.64" stop-color="#f1cb30" stop-opacity="0.86"/><stop offset="0.75" stop-color="#f2d131" stop-opacity="0.94"/><stop offset="0.87" stop-color="#f3d532" stop-opacity="0.99"/><stop offset="1" stop-color="#f3d632"/></linearGradient><linearGradient id="linear-gradient-3" x1="-1635.24" y1="224.43" x2="-1635.24" y2="214.23" gradientTransform="matrix(-1, 0, 0, 1, -1544.21, 0)" xlink:href="#linear-gradient-2"/><linearGradient id="linear-gradient-4" x1="-1578.24" y1="234.63" x2="-1578.24" y2="224.43" gradientTransform="matrix(-1, 0, 0, 1, -1544.21, 0)" xlink:href="#linear-gradient-2"/><linearGradient id="linear-gradient-5" x1="236.45" y1="224.43" x2="236.45" y2="214.23" xlink:href="#linear-gradient-2"/></defs><title>siemreap</title><rect class="cls-1" x="119.41" y="90.47" width="74.85" height="73.55"/><rect class="cls-2" x="119.41" y="135.11" width="74.85" height="29.81"/><rect class="cls-3" x="133.8" y="96.92" width="53.71" height="58.6" rx="10.42" ry="10.42"/><path class="cls-3" d="M159.51,124.63l-.78-8.6H154.4l.32,8.31s-9.54,4.31-8.7,8.91c0,0,3.27,6,5.19,6.62,2.21.66,12.73-3.81,12.73-3.81Z"/><path class="cls-3" d="M166.87,127.83l.88-9.53,1.6-2.09,2.9,11.29s10.74,4.78,9.79,9.95c0,0-3.68,6.76-5.84,7.41-2.49.75-10.35-14.71-10.35-14.71Z"/><path class="cls-1" d="M183.78,129.88h-.62a5.25,5.25,0,0,1-.42,1.19,9.23,9.23,0,0,1-1.4,4.11,4.4,4.4,0,0,1-.92,1.51,1.76,1.76,0,0,1-1.49.6h0s-.08,0-.12,0l-.29-.07A1.38,1.38,0,0,1,178,137a5,5,0,0,1-.65-.44,3.64,3.64,0,0,0-1.28-.35,2.54,2.54,0,0,0-1.33.7l-.11.15a1.47,1.47,0,0,1-.74.47,1.51,1.51,0,0,1-1.79-.3,1.75,1.75,0,0,1-.26-.17,2,2,0,0,1-.18-2.48l0-.06a2.7,2.7,0,0,1,.15-.25,3.7,3.7,0,0,0,.69-2.5l-.09,0a24.09,24.09,0,0,0-3.75-1.35,5.87,5.87,0,0,1-2-.49h-4.32a1.51,1.51,0,0,1-.91.34,13.54,13.54,0,0,0-3.55.6c-.94.29-5.73,2.42-1.88,3.39,1.45.36,1.6,2.83,0,3.09s-2.43,1.23-4.24.74a13.3,13.3,0,0,1-4-2.23c-2.18-1.67-5.38-2.84-6.12-5.68a1.49,1.49,0,0,1,0-.24h-1.18a10.63,10.63,0,0,0,.31,4.26c.47,1.22,1.15,2.34,1.57,3.59.47,1.43-1.78,2-2.25.62s-1.39-2.75-1.79-4.23a14.57,14.57,0,0,1-.17-4.24h-4.3v1.8c0,13.12,8.05,24.41,21.17,24.41h13c11.75,0,19.57-8.45,19.57-19.87A13.69,13.69,0,0,1,183.78,129.88Z"/><path class="cls-4" d="M183.78,129.88h-.62a5.25,5.25,0,0,1-.42,1.19,9.23,9.23,0,0,1-1.4,4.11,4.4,4.4,0,0,1-.92,1.51,1.76,1.76,0,0,1-1.49.6h0s-.08,0-.12,0l-.29-.07A1.38,1.38,0,0,1,178,137a5,5,0,0,1-.65-.44,3.64,3.64,0,0,0-1.28-.35,2.54,2.54,0,0,0-1.33.7l-.11.15a1.47,1.47,0,0,1-.74.47,1.51,1.51,0,0,1-1.79-.3,1.75,1.75,0,0,1-.26-.17,2,2,0,0,1-.18-2.48l0-.06a2.7,2.7,0,0,1,.15-.25,3.7,3.7,0,0,0,.69-2.5l-.09,0a24.09,24.09,0,0,0-3.75-1.35,5.87,5.87,0,0,1-2-.49h-4.32a1.51,1.51,0,0,1-.91.34,13.54,13.54,0,0,0-3.55.6c-.94.29-5.73,2.42-1.88,3.39,1.45.36,1.6,2.83,0,3.09s-2.43,1.23-4.24.74a13.3,13.3,0,0,1-4-2.23c-2.18-1.67-5.38-2.84-6.12-5.68a1.49,1.49,0,0,1,0-.24h-1.18a10.63,10.63,0,0,0,.31,4.26c.47,1.22,1.15,2.34,1.57,3.59.47,1.43-1.78,2-2.25.62s-1.39-2.75-1.79-4.23a14.57,14.57,0,0,1-.17-4.24h-4.3v1.8c0,17.14,8.05,24.41,21.17,24.41l16.65-.24c11.75,0,15.89-9.33,15.89-19.63A13.69,13.69,0,0,1,183.78,129.88Z"/><path class="cls-2" d="M147.23,113.94s8.22-1,12.23,2.07c0,0-1.28,7.59-4.19,12.48l-2.54-2.28-.38,4.63-2.45-.47,1-1.41s-5.92-3-8.18-5.36c0,0,3,.28,3.57-.38a4.1,4.1,0,0,0-2.26-1.11l0-.58,6,0s0-2.3-1.36-2.3a6.71,6.71,0,0,0-4.48,1.6,6,6,0,0,1-1.73.62s3.08-2.59,4.07-2.8h2.75a9,9,0,0,1,3.29,1.73V118.5A12.25,12.25,0,0,0,147.23,113.94Z"/><path class="cls-2" d="M176.21,113.94s-8.25-1-12.26,2.05c0,0,1.31,7.61,4.23,12.5l2.54-2.28.38,4.63,2.45-.47-1-1.41s5.92-3,8.18-5.36c0,0-3,.28-3.57-.38a4.1,4.1,0,0,1,2.26-1.11l0-.58-6,0s0-2.3,1.36-2.3a6.71,6.71,0,0,1,4.48,1.6,6,6,0,0,0,1.73.62s-3.08-2.59-4.07-2.8h-2.75a9,9,0,0,0-3.29,1.73V118.5A12.25,12.25,0,0,1,176.21,113.94Z"/><ellipse class="cls-2" cx="161.72" cy="133.79" rx="9.89" ry="3.19"/><rect class="cls-1" x="150.17" y="140.13" width="23.11" height="3.53"/><path class="cls-1" d="M168.33,23.72s1.31-3.6.67-5.26a8.89,8.89,0,0,0-4.9-4.68v-6A9.54,9.54,0,0,0,159.65,5s-.45-4-3.51-4c-2.91,0-3.3,4-3.3,4a8.79,8.79,0,0,0-4.35,2.83v6c-2.29,1.11-4.49,2.91-4.88,4.88S144.76,24,144.76,24c-17.89,6.4-25.35,66.46-25.35,66.46h74.85S186.22,30.12,168.33,23.72Z"/><rect class="cls-2" x="66.23" y="97.75" width="53.36" height="67.17"/><path class="cls-2" d="M66.23,97.75s8.65-50.48,26.18-50.48,27.17,50.48,27.17,50.48Z"/><rect class="cls-3" x="132.8" y="41.81" width="6.42" height="28.83"/><rect class="cls-3" x="128.83" y="54.42" width="10.39" height="16.23"/><rect class="cls-3" x="174.48" y="41.81" width="6.42" height="28.83" transform="translate(355.38 112.46) rotate(-180)"/><rect class="cls-3" x="174.48" y="54.42" width="10.39" height="16.23" transform="translate(359.35 125.07) rotate(-180)"/><rect class="cls-2" x="148.75" y="57.64" width="16.2" height="7.52"/><rect class="cls-3" x="139.27" y="74.9" width="35.21" height="11.5"/><rect class="cls-2" x="149.61" y="40.85" width="14.48" height="10.16"/><rect class="cls-3" x="139.22" y="64.93" width="35.25" height="11.44"/><rect class="cls-3" x="140.86" y="49.75" width="31.99" height="9.34"/><rect class="cls-3" x="144.94" y="26.75" width="23.81" height="14.71"/><path class="cls-1" d="M171,130.58c0-1.05-3.6-3.51-4.18-6.65s-3.74-9.79-3.74-9.79h-2.79s-3.17,6.65-3.74,9.79-4.18,5.78-4.18,6.83c0,0-.89,1.92-.48,3,.33.84,7.2.81,9.8.79s9.46,0,9.8-.86C171.91,132.61,171,130.58,171,130.58Z"/><path class="cls-3" d="M127.83,110.9V93.85l-8.75-1.35-3.18,1.35v20.51h-2v37.76H133.8V126l-4.48-8.84A13.74,13.74,0,0,1,127.83,110.9Z"/><path class="cls-2" d="M68.53,95.68s-7.37.74-6.83,13.51c.61,8.86-.06,12.06-1.17,13.66s-4.34,4.1-4.45,5.9,2.45,3.6,3.78,3.5a28.53,28.53,0,0,1,3.12,0l-.67,6.3s-1.55.8-1.66,1.7-.22,2.7.89,3.6.45,3.8,0,5.6.67,3.4,1.67,3.4,6.32-.32,6.32-.32Z"/><path class="cls-1" d="M92.87,155.84h0a4.78,4.78,0,0,1-4.54-5V110.4c0-2.72,3.3-9.53,5.8-9.53l0,4.58c2.5,0,3.3,2.23,3.3,5v40.49A4.78,4.78,0,0,1,92.87,155.84Z"/><path class="cls-2" d="M89.23,117s.11-6.8,2.76-7a3.06,3.06,0,0,1,3.3,2.1,24.62,24.62,0,0,1,0,8c-.79,3.38-5.51,8.6-5.51,8.6Z"/><rect class="cls-1" x="84.72" y="78.57" width="16.39" height="9.7"/><rect class="cls-1" x="84.72" y="68.41" width="16.39" height="6.7"/><path class="cls-1" d="M74.73,67.43a23.51,23.51,0,0,1,2.62-6.12c3.09-2.48,10.41-4.83,15.54-4.83s11.88,2.32,14.87,4.83a16.75,16.75,0,0,1,2.84,6.12s-9-3.76-17.94-3.76S74.73,67.43,74.73,67.43Z"/><rect class="cls-2" x="194.26" y="97.75" width="53.36" height="67.17" transform="translate(441.87 262.67) rotate(-180)"/><path class="cls-2" d="M247.61,97.75S239,47.27,221.43,47.27s-27.17,50.48-27.17,50.48Z"/><path class="cls-2" d="M246.28,95.68s7.37.74,6.83,13.51c-.61,8.86.06,12.06,1.17,13.66s4.34,4.1,4.45,5.9-2.45,3.6-3.78,3.5a28.53,28.53,0,0,0-3.12,0l.67,6.3s1.55.8,1.66,1.7.22,2.7-.89,3.6-.45,3.8,0,5.6-.67,3.4-1.67,3.4-6.32-.32-6.32-.32Z"/><path class="cls-1" d="M221.94,155.84h0a4.78,4.78,0,0,0,4.54-5V110.4c0-2.72-3.3-9.53-5.8-9.53l0,4.58c-2.5,0-3.3,2.23-3.3,5v40.49A4.78,4.78,0,0,0,221.94,155.84Z"/><path class="cls-2" d="M225.58,117s-.11-6.8-2.76-7a3.06,3.06,0,0,0-3.3,2.1,24.62,24.62,0,0,0,0,8c.79,3.38,5.51,8.6,5.51,8.6Z"/><rect class="cls-1" x="213.7" y="78.57" width="16.39" height="9.7" transform="translate(443.8 166.84) rotate(-180)"/><rect class="cls-1" x="213.7" y="68.41" width="16.39" height="6.7" transform="translate(443.8 143.52) rotate(-180)"/><path class="cls-1" d="M240.09,67.43a23.51,23.51,0,0,0-2.62-6.12c-3.09-2.48-10.41-4.83-15.54-4.83S210,58.81,207.06,61.31a16.75,16.75,0,0,0-2.84,6.12s9-3.76,17.94-3.76S240.09,67.43,240.09,67.43Z"/><path class="cls-3" d="M119.41,92.46v8s23-12.14,40-12.14,34.84,12.14,34.84,12.14v-8s-18.06-10.21-35-10.21S119.41,92.46,119.41,92.46Z"/><polygon class="cls-1" points="258.5 198.68 188.4 198.68 164.77 181.8 139.88 198.68 56.12 198.68 56.12 164.92 258.5 164.92 258.5 198.68"/><polygon class="cls-1" points="326.33 330.53 211.82 329.8 211.82 214.24 321.46 212.53 326.33 224.69 326.33 330.53"/><polygon class="cls-5" points="326.33 235.64 264.57 234.63 261.09 224.43 326.33 224.69 326.33 230.78 326.33 235.64"/><rect class="cls-2" x="56.11" y="175.55" width="202.38" height="10.13"/><polygon class="cls-1" points="219.53 329.8 205.22 329.8 205.22 219.33 163.94 177.3 122.26 219.33 122.26 329.8 107.7 329.8 107.7 164.92 219.53 164.92 219.53 329.8"/><path class="cls-6" d="M209.66,265h51.43s-7.32-29.66-21.46-29.66h-30Z"/><rect class="cls-6" x="240.91" y="265.01" width="6.84" height="64.79"/><rect class="cls-6" x="254.24" y="265.01" width="6.84" height="64.79"/><polygon class="cls-6" points="257.75 214.44 211.95 214.44 205.22 196.18 251.02 196.18 257.75 214.44"/><polygon class="cls-1" points="1.67 329.8 115.67 329.8 115.67 214.24 6.33 214.24 3.17 224.43 1.67 231.21 1.67 329.8"/><polygon class="cls-7" points="66.39 224.43 115.67 224.43 115.67 214.24 68.01 214.24 66.39 215.73 66.39 224.43"/><polygon class="cls-8" points="1.67 234.63 62.91 234.63 66.39 224.43 3.17 224.43 1.67 231.21 1.67 234.63"/><polygon class="cls-6" points="3.17 224.43 66.28 224.43 75.77 198.68 11.16 198.68 3.17 224.43"/><polygon class="cls-6" points="69.73 214.44 115.53 214.44 122.26 196.18 76.46 196.18 69.73 214.44"/><path class="cls-6" d="M118.7,265H67.26s7.32-29.66,21.46-29.66h30Z"/><rect class="cls-6" x="80.6" y="265.01" width="6.84" height="64.79" transform="translate(168.04 594.81) rotate(-180)"/><rect class="cls-6" x="67.26" y="265.01" width="6.84" height="64.79" transform="translate(141.37 594.81) rotate(-180)"/><rect class="cls-2" x="213.47" y="329.8" width="112.86" height="21.2"/><polygon class="cls-9" points="261.09 224.43 211.82 224.43 211.82 214.24 259.47 214.24 261.09 215.73 261.09 224.43"/><rect class="cls-2" x="1.9" y="329.8" width="113.02" height="21.2"/><path class="cls-3" d="M163.94,148.81h0a9.11,9.11,0,0,0-4,1.36s-12.41,5.82-18.44,8.35-6.58,5.8-6.58,5.8l-6.22,21.33H198l-6.14-21.25s-.58-2.78-6.5-5.56c-6.12-2.87-16.95-8.67-16.95-8.67a10.1,10.1,0,0,0-4.16-1.32"/><path class="cls-6" d="M213.46,228.93s0-.64,0-.79c0-34.81-22.27-63.22-49.51-63.22s-49.55,28.51-49.55,63.32c0,.15,0,.7,0,.7V351h17.14V235.48c0-10.16,7.06-18.82,16.25-21.79,1.17-15.8,8.2-27.93,16.29-27.93s14.9,12.13,16.06,27.93a23.22,23.22,0,0,1,16.17,21.79V351h17.14V228.93Z"/><polygon class="cls-6" points="326.33 224.69 261.2 224.43 251.71 198.68 316.32 198.68 326.33 224.69"/></svg>