<svg id="Layer_1" data-name="Layer 1" xmlns="http://www.w3.org/2000/svg" xmlns:xlink="http://www.w3.org/1999/xlink" viewBox="0 0 362 224"><defs><style>.cls-1{fill:#faeeab;}.cls-2{fill:#f3d632;}.cls-3{fill:#f9eb9d;}.cls-4{fill:#e38620;}.cls-5{fill:#e7963d;}.cls-6{fill:url(#linear-gradient);}.cls-7{fill:url(#linear-gradient-2);}.cls-8{fill:url(#linear-gradient-3);}.cls-9{fill:url(#linear-gradient-4);}.cls-10{fill:url(#linear-gradient-5);}.cls-11{fill:url(#linear-gradient-6);}.cls-12{fill:url(#linear-gradient-7);}.cls-13{fill:url(#linear-gradient-8);}.cls-14{fill:url(#linear-gradient-9);}.cls-15{fill:url(#linear-gradient-10);}.cls-16{fill:url(#linear-gradient-11);}.cls-17{fill:url(#linear-gradient-12);}.cls-18{fill:url(#linear-gradient-13);}.cls-19{fill:url(#linear-gradient-14);}.cls-20{fill:url(#linear-gradient-15);}.cls-21{fill:url(#linear-gradient-16);}.cls-22{fill:url(#linear-gradient-17);}.cls-23{fill:url(#linear-gradient-18);}</style><linearGradient id="linear-gradient" x1="264.13" y1="185.23" x2="264.13" y2="178.88" gradientUnits="userSpaceOnUse"><stop offset="0.35" stop-color="#f5d5b1" stop-opacity="0"/><stop offset="0.44" stop-color="#f6dbb0" stop-opacity="0.22"/><stop offset="0.55" stop-color="#f7e0ae" stop-opacity="0.46"/><stop offset="0.66" stop-color="#f8e5ad" stop-opacity="0.65"/><stop offset="0.76" stop-color="#f9e9ac" stop-opacity="0.8"/><stop offset="0.86" stop-color="#faecac" stop-opacity="0.91"/><stop offset="0.94" stop-color="#faedab" stop-opacity="0.98"/><stop offset="1" stop-color="#faeeab"/></linearGradient><linearGradient id="linear-gradient-2" x1="264.13" y1="193.11" x2="264.13" y2="186.76" xlink:href="#linear-gradient"/><linearGradient id="linear-gradient-3" x1="312.35" y1="178.29" x2="312.35" y2="174.21" xlink:href="#linear-gradient"/><linearGradient id="linear-gradient-4" x1="315.53" y1="183.58" x2="315.53" y2="180.41" xlink:href="#linear-gradient"/><linearGradient id="linear-gradient-5" x1="321.88" y1="195.74" x2="321.88" y2="191.46" xlink:href="#linear-gradient"/><linearGradient id="linear-gradient-6" x1="324.42" y1="200.9" x2="324.42" y2="198.06" xlink:href="#linear-gradient"/><linearGradient id="linear-gradient-7" x1="319.05" y1="189.63" x2="319.05" y2="185.58" xlink:href="#linear-gradient"/><linearGradient id="linear-gradient-8" x1="716.32" y1="185.23" x2="716.32" y2="178.88" gradientTransform="matrix(1, 0, 0, -1, -615.52, 364.12)" xlink:href="#linear-gradient"/><linearGradient id="linear-gradient-9" x1="716.32" y1="193.11" x2="716.32" y2="186.76" gradientTransform="matrix(1, 0, 0, -1, -615.52, 379.87)" xlink:href="#linear-gradient"/><linearGradient id="linear-gradient-10" x1="764.54" y1="178.29" x2="764.54" y2="174.21" gradientTransform="matrix(1, 0, 0, -1, -711.96, 352.5)" xlink:href="#linear-gradient"/><linearGradient id="linear-gradient-11" x1="767.73" y1="183.58" x2="767.73" y2="180.41" gradientTransform="matrix(1, 0, 0, -1, -718.33, 363.99)" xlink:href="#linear-gradient"/><linearGradient id="linear-gradient-12" x1="774.08" y1="195.74" x2="774.08" y2="191.46" gradientTransform="matrix(1, 0, 0, -1, -731.03, 387.2)" xlink:href="#linear-gradient"/><linearGradient id="linear-gradient-13" x1="776.61" y1="200.9" x2="776.61" y2="198.06" gradientTransform="matrix(1, 0, 0, -1, -736.1, 398.97)" xlink:href="#linear-gradient"/><linearGradient id="linear-gradient-14" x1="771.24" y1="189.63" x2="771.24" y2="185.58" gradientTransform="matrix(1, 0, 0, -1, -725.36, 375.21)" xlink:href="#linear-gradient"/><linearGradient id="linear-gradient-15" x1="126.13" y1="207.25" x2="126.13" y2="203.97" xlink:href="#linear-gradient"/><linearGradient id="linear-gradient-16" x1="149.84" y1="210.4" x2="149.84" y2="207" xlink:href="#linear-gradient"/><linearGradient id="linear-gradient-17" x1="84.82" y1="207.25" x2="84.82" y2="203.97" gradientTransform="matrix(1, 0, 0, -1, 149.9, 411.21)" xlink:href="#linear-gradient"/><linearGradient id="linear-gradient-18" x1="108.53" y1="210.4" x2="108.53" y2="207" gradientTransform="matrix(1, 0, 0, -1, 102.49, 417.4)" xlink:href="#linear-gradient"/></defs><title>siemreap</title><rect class="cls-1" x="2" y="195.74" width="358" height="27.3"/><rect class="cls-2" x="142.37" y="120.78" width="77.56" height="61.03"/><rect class="cls-3" x="139.48" y="112.49" width="80.35" height="9.36"/><polygon class="cls-1" points="135.03 173.7 224.77 173.7 232.62 186.38 128.12 186.38 135.03 173.7"/><rect class="cls-1" x="157.64" y="115.94" width="8.57" height="64.8"/><rect class="cls-1" x="193.87" y="115.94" width="8.57" height="64.8"/><rect class="cls-1" x="134.74" y="122.48" width="9.69" height="53.48"/><rect class="cls-1" x="133.39" y="112.54" width="12.51" height="6.54"/><polygon class="cls-1" points="134.74 122.48 133.39 119.08 145.9 119.08 144.43 122.48 134.74 122.48"/><rect class="cls-1" x="215.09" y="122.48" width="9.69" height="53.48"/><rect class="cls-1" x="213.74" y="112.54" width="12.51" height="6.54"/><polygon class="cls-1" points="215.09 122.48 213.74 119.08 226.25 119.08 224.77 122.48 215.09 122.48"/><polygon class="cls-1" points="294.17 185.89 310.93 185.89 308.17 174.21 292.24 174.21 292.24 182.96 294.17 185.89"/><path class="cls-4" d="M320.7,114.93V107h3.15v-10H320.7S307.58,75.68,303,75.68c0,0-9.05,5.91-12,13l-1.87.5s-1.25-2.87-2.25-2.87-1.75,3.25-1.75,3.25-6.62.33-6.74,5.72,0,19.62,0,19.62Z"/><ellipse class="cls-5" cx="302.89" cy="108.88" rx="8.57" ry="25.35"/><rect class="cls-4" x="289.64" y="120.25" width="48.43" height="53.95"/><rect class="cls-4" x="230.72" y="105.49" width="58.92" height="68.71"/><rect class="cls-1" x="289.64" y="114.93" width="50.66" height="5.33"/><polygon class="cls-1" points="289.64 105.49 230.72 105.49 230.72 94.11 294.09 94.11 289.64 105.49"/><rect class="cls-1" x="294.09" y="125.8" width="30.81" height="48.41"/><rect class="cls-1" x="240.52" y="130.49" width="39.76" height="43.71"/><rect class="cls-3" x="299.56" y="130.49" width="20.22" height="39.43"/><rect class="cls-5" x="230.85" y="174.21" width="65.14" height="4.68"/><rect class="cls-5" x="230.85" y="178.88" width="66.55" height="6.35"/><rect class="cls-5" x="230.85" y="178.88" width="66.55" height="6.35"/><rect class="cls-5" x="230.85" y="185.23" width="66.55" height="12.93"/><rect class="cls-5" x="230.85" y="186.76" width="66.55" height="6.35"/><rect class="cls-5" x="230.85" y="174.21" width="65.14" height="4.68"/><rect class="cls-6" x="230.85" y="178.88" width="66.55" height="6.35"/><rect class="cls-5" x="230.85" y="185.23" width="66.55" height="12.93"/><rect class="cls-7" x="230.85" y="186.76" width="66.55" height="6.35"/><rect class="cls-1" x="324.42" y="179.66" width="16.5" height="4.68"/><rect class="cls-5" x="297.08" y="185.58" width="24.8" height="12.49"/><rect class="cls-4" x="301.48" y="174.21" width="21.73" height="4.08"/><rect class="cls-8" x="301.48" y="174.21" width="21.73" height="4.08"/><rect class="cls-4" x="305.08" y="180.41" width="20.91" height="3.17"/><rect class="cls-5" x="319.49" y="188.75" width="24.8" height="9.31"/><rect class="cls-9" x="305.08" y="180.41" width="20.91" height="3.17"/><rect class="cls-4" x="311.87" y="191.46" width="20.03" height="4.28"/><rect class="cls-4" x="313.93" y="198.06" width="20.97" height="2.84"/><polygon class="cls-4" points="354.73 185.88 340.91 181.99 340.91 184.17 325.01 184.33 325.01 188.9 343.91 188.9 354.73 185.88"/><polygon class="cls-1" points="338.04 185.89 354.77 185.89 354.77 198.06 344.3 198.06 344.3 188.75 338.04 185.89"/><rect class="cls-4" x="309.98" y="185.58" width="18.13" height="4.05"/><rect class="cls-10" x="311.87" y="191.46" width="20.03" height="4.28"/><rect class="cls-11" x="313.93" y="198.06" width="20.97" height="2.84"/><polyline class="cls-4" points="301.48 178.29 305.08 180.41 325.99 180.41 323.21 178.29 301.48 178.29"/><polygon class="cls-4" points="305.08 183.58 309.98 185.58 328.11 185.58 325.99 183.58 305.08 183.58"/><polygon class="cls-4" points="309.98 189.63 311.87 191.46 331.89 191.46 328.11 189.63 309.98 189.63"/><polygon class="cls-4" points="311.87 195.74 313.93 198.06 334.9 198.06 331.89 195.74 311.87 195.74"/><rect class="cls-12" x="309.98" y="185.58" width="18.13" height="4.05"/><polygon class="cls-1" points="325.01 179.66 340.65 179.66 338.07 174.21 323.21 174.21 323.21 178.29 325.01 179.66"/><polygon class="cls-1" points="70.77 185.89 54 185.89 56.76 174.21 72.69 174.21 72.69 182.96 70.77 185.89"/><path class="cls-4" d="M44.23,114.93V107H41.08v-10h3.15S57.35,75.68,61.91,75.68c0,0,9.05,5.91,12,13l1.87.5s1.25-2.87,2.25-2.87,1.75,3.25,1.75,3.25,6.62.33,6.74,5.72,0,19.62,0,19.62Z"/><ellipse class="cls-5" cx="62.04" cy="108.88" rx="8.57" ry="25.35"/><rect class="cls-4" x="26.86" y="120.25" width="48.43" height="53.95" transform="translate(102.15 294.46) rotate(-180)"/><rect class="cls-4" x="75.29" y="105.49" width="58.92" height="68.71" transform="translate(209.5 279.7) rotate(-180)"/><rect class="cls-1" x="24.63" y="114.93" width="50.66" height="5.33" transform="translate(99.92 235.18) rotate(-180)"/><polygon class="cls-1" points="75.29 105.49 134.21 105.49 134.21 94.11 70.84 94.11 75.29 105.49"/><rect class="cls-1" x="40.04" y="125.8" width="30.81" height="48.41" transform="translate(110.88 300) rotate(-180)"/><rect class="cls-1" x="84.65" y="130.49" width="39.76" height="43.71" transform="translate(209.06 304.7) rotate(-180)"/><rect class="cls-3" x="45.14" y="130.49" width="20.22" height="39.43" transform="translate(110.51 300.41) rotate(-180)"/><rect class="cls-5" x="68.94" y="174.21" width="65.14" height="4.68" transform="translate(203.02 353.09) rotate(-180)"/><rect class="cls-5" x="67.53" y="178.88" width="66.55" height="6.35" transform="translate(201.61 364.12) rotate(-180)"/><rect class="cls-5" x="67.53" y="178.88" width="66.55" height="6.35" transform="translate(201.61 364.12) rotate(-180)"/><rect class="cls-5" x="67.53" y="185.23" width="66.55" height="12.93" transform="translate(201.61 383.4) rotate(-180)"/><rect class="cls-5" x="67.53" y="186.76" width="66.55" height="6.35" transform="translate(201.61 379.87) rotate(-180)"/><rect class="cls-5" x="68.94" y="174.21" width="65.14" height="4.68" transform="translate(203.02 353.09) rotate(-180)"/><rect class="cls-13" x="67.53" y="178.88" width="66.55" height="6.35" transform="translate(201.61 364.12) rotate(-180)"/><rect class="cls-5" x="67.53" y="185.23" width="66.55" height="12.93" transform="translate(201.61 383.4) rotate(-180)"/><rect class="cls-14" x="67.53" y="186.76" width="66.55" height="6.35" transform="translate(201.61 379.87) rotate(-180)"/><rect class="cls-1" x="24.02" y="179.66" width="16.5" height="4.68" transform="translate(64.53 363.99) rotate(-180)"/><rect class="cls-5" x="43.05" y="185.58" width="24.8" height="12.49" transform="translate(110.9 383.64) rotate(-180)"/><rect class="cls-4" x="41.72" y="174.21" width="21.73" height="4.08" transform="translate(105.17 352.5) rotate(-180)"/><rect class="cls-15" x="41.72" y="174.21" width="21.73" height="4.08" transform="translate(105.17 352.5) rotate(-180)"/><rect class="cls-4" x="38.94" y="180.41" width="20.91" height="3.17" transform="translate(98.79 363.99) rotate(-180)"/><rect class="cls-5" x="20.63" y="188.75" width="24.8" height="9.31" transform="translate(66.07 386.82) rotate(-180)"/><rect class="cls-16" x="38.94" y="180.41" width="20.91" height="3.17" transform="translate(98.79 363.99) rotate(-180)"/><rect class="cls-4" x="33.04" y="191.46" width="20.03" height="4.28" transform="translate(86.1 387.2) rotate(-180)"/><rect class="cls-4" x="30.03" y="198.06" width="20.97" height="2.84" transform="translate(81.03 398.97) rotate(-180)"/><polygon class="cls-4" points="10.2 185.88 24.02 181.99 24.02 184.17 39.92 184.33 39.92 188.9 21.02 188.9 10.2 185.88"/><polygon class="cls-1" points="26.89 185.89 10.16 185.89 10.16 198.06 20.64 198.06 20.64 188.75 26.89 185.89"/><rect class="cls-4" x="36.82" y="185.58" width="18.13" height="4.05" transform="translate(91.77 375.21) rotate(-180)"/><rect class="cls-17" x="33.04" y="191.46" width="20.03" height="4.28" transform="translate(86.1 387.2) rotate(-180)"/><rect class="cls-18" x="30.03" y="198.06" width="20.97" height="2.84" transform="translate(81.03 398.97) rotate(-180)"/><polyline class="cls-4" points="63.45 178.29 59.85 180.41 38.94 180.41 41.72 178.29 63.45 178.29"/><polygon class="cls-4" points="59.85 183.58 54.95 185.58 36.82 185.58 38.94 183.58 59.85 183.58"/><polygon class="cls-4" points="54.95 189.63 53.06 191.46 33.04 191.46 36.82 189.63 54.95 189.63"/><polygon class="cls-4" points="53.06 195.74 51 198.06 30.03 198.06 33.04 195.74 53.06 195.74"/><rect class="cls-19" x="36.82" y="185.58" width="18.13" height="4.05" transform="translate(91.77 375.21) rotate(-180)"/><polygon class="cls-1" points="39.92 179.66 24.28 179.66 26.86 174.21 41.72 174.21 41.72 178.29 39.92 179.66"/><rect class="cls-5" x="129.27" y="124.22" width="11.2" height="63.1"/><rect class="cls-5" x="127.72" y="112.49" width="14.47" height="7.72"/><polygon class="cls-5" points="129.27 124.22 127.72 120.2 142.19 120.2 140.48 124.22 129.27 124.22"/><rect class="cls-5" x="148.95" y="124.22" width="11.2" height="63.1"/><rect class="cls-5" x="147.4" y="112.49" width="14.47" height="7.72"/><polygon class="cls-5" points="148.95 124.22 147.4 120.2 161.87 120.2 160.16 124.22 148.95 124.22"/><rect class="cls-5" x="200.17" y="124.22" width="11.2" height="63.1"/><rect class="cls-5" x="198.61" y="112.49" width="14.47" height="7.72"/><polygon class="cls-5" points="200.17 124.22 198.61 120.2 213.08 120.2 211.37 124.22 200.17 124.22"/><rect class="cls-5" x="219.85" y="124.22" width="11.2" height="63.1"/><rect class="cls-5" x="218.29" y="112.49" width="14.47" height="7.72"/><polygon class="cls-5" points="219.85 124.22 218.29 120.2 232.76 120.2 231.05 124.22 219.85 124.22"/><polygon class="cls-5" points="121.66 191.7 131.06 191.7 122.11 200.64 112.71 200.64 121.66 191.7"/><rect class="cls-4" x="112.71" y="200.64" width="27.52" height="3.32"/><rect class="cls-4" x="113.5" y="203.97" width="25.26" height="3.28"/><rect class="cls-20" x="113.5" y="203.97" width="25.26" height="3.28"/><polygon class="cls-5" points="162.33 203.97 160.63 208.65 200.11 208.65 198.41 203.97 162.33 203.97"/><rect class="cls-4" x="111.73" y="207.25" width="27.03" height="4.46"/><rect class="cls-4" x="136.42" y="203.57" width="26.05" height="3.44"/><rect class="cls-4" x="137.21" y="207" width="25.26" height="3.39"/><rect class="cls-21" x="137.21" y="207" width="25.26" height="3.39"/><rect class="cls-4" x="135.44" y="210.4" width="27.03" height="4.61"/><polygon class="cls-5" points="239.19 191.7 229.67 191.7 238.61 200.64 248.13 200.64 239.19 191.7"/><rect class="cls-4" x="218.29" y="200.64" width="29.84" height="3.32" transform="translate(466.43 404.61) rotate(-180)"/><rect class="cls-4" x="222.09" y="203.97" width="25.26" height="3.28" transform="translate(469.43 411.21) rotate(-180)"/><rect class="cls-22" x="222.09" y="203.97" width="25.26" height="3.28" transform="translate(469.43 411.21) rotate(-180)"/><rect class="cls-4" x="222.09" y="207.25" width="27.03" height="4.46" transform="translate(471.21 418.96) rotate(-180)"/><rect class="cls-4" x="198.38" y="203.57" width="26.05" height="3.44" transform="translate(422.81 410.57) rotate(-180)"/><rect class="cls-4" x="198.38" y="207" width="25.26" height="3.39" transform="translate(422.02 417.4) rotate(-180)"/><rect class="cls-23" x="198.38" y="207" width="25.26" height="3.39" transform="translate(422.02 417.4) rotate(-180)"/><rect class="cls-4" x="198.38" y="210.4" width="27.03" height="4.61" transform="translate(423.79 425.41) rotate(-180)"/><rect class="cls-5" x="120.23" y="196.17" width="119.61" height="4.47"/><polygon class="cls-5" points="222.89 203.97 136.42 203.97 141.14 199.02 218.16 199.02 222.89 203.97"/><rect class="cls-4" x="160.63" y="216.52" width="39.49" height="6.52"/><rect class="cls-4" x="162.33" y="208.01" width="36.07" height="6.52"/><polygon class="cls-5" points="162.33 214.54 160.63 216.52 200.11 216.52 198.41 214.54 162.33 214.54"/><polygon class="cls-1" points="221.88 84.29 237.3 60.88 241.97 66.57 246.09 63.95 252.21 88.33 222.11 88.33 221.88 84.29"/><polygon class="cls-1" points="214.68 69.17 178.28 26.44 178.28 26.27 178.28 26.36 178.28 26.27 178.28 26.44 141.87 69.17 118.41 95.56 118.41 99.56 179.96 99.56 180.11 99.56 238.15 99.56 238.15 95.56 214.68 69.17"/><ellipse class="cls-4" cx="244.29" cy="86.34" rx="7.92" ry="7.73"/><path class="cls-4" d="M245.08,90.32s3,5.81-3.62,13.38-6.92,8.84-9.79,8.84-10.87-16.64-10.87-16.64,9.33,2.23,10.85.19-.74-6.11-.76-8.73a7.29,7.29,0,0,1,3.81-6.81,21.78,21.78,0,0,1,9.59-1.92C247.74,78.8,245.08,90.32,245.08,90.32Z"/><polygon class="cls-1" points="138.26 84.29 122.84 60.88 118.17 66.57 114.05 63.95 107.93 88.33 138.03 88.33 138.26 84.29"/><ellipse class="cls-4" cx="115.85" cy="86.34" rx="7.92" ry="7.73"/><path class="cls-4" d="M115.06,90.32s-3,5.81,3.62,13.38,6.92,8.84,9.79,8.84,10.87-16.64,10.87-16.64-9.33,2.23-10.85.19.74-6.11.76-8.73a7.29,7.29,0,0,0-3.81-6.81,21.78,21.78,0,0,0-9.59-1.92C112.4,78.8,115.06,90.32,115.06,90.32Z"/><path class="cls-4" d="M179.91,48.53l31.66,32,23.37,23.62c3,3.05.94,8.38-3.27,8.38H128.15c-4.21,0-6.29-5.33-3.27-8.38l23.37-23.62Z"/><polygon class="cls-5" points="179.91 75.61 199.39 94.07 218.87 112.53 179.91 112.53 140.95 112.53 160.43 94.07 179.91 75.61"/><path class="cls-1" d="M194,34.86a14,14,0,0,1-28,0C166,27.31,174.24,1,180,1,185.45,1,194,27.31,194,34.86Z"/><polygon class="cls-5" points="179.91 75.61 168.21 60.35 180 42.5 191.57 60.31 179.91 75.61"/><rect class="cls-4" x="126.58" y="186.03" width="107.55" height="10.56"/></svg>