<svg id="Layer_1" data-name="Layer 1" xmlns="http://www.w3.org/2000/svg" xmlns:xlink="http://www.w3.org/1999/xlink" viewBox="0 0 412 194"><defs><style>.cls-1{fill:#1a1a1a;}.cls-2{fill:#eebc78;}.cls-18,.cls-3{fill:#f5eebd;}.cls-4{fill:#f1e6a0;}.cls-5{fill:#f3f3f3;}.cls-6{fill:#faf6db;}.cls-7{fill:#ebb162;}.cls-8{fill:#fcf9e9;}.cls-9{fill:#f1f1f1;}.cls-10{fill:#fff;}.cls-11{fill:url(#linear-gradient);}.cls-12{fill:url(#linear-gradient-2);}.cls-13{fill:url(#linear-gradient-3);}.cls-14{fill:url(#linear-gradient-4);}.cls-15{fill:url(#linear-gradient-5);}.cls-16{fill:url(#linear-gradient-6);}.cls-17{fill:url(#linear-gradient-7);}.cls-18{opacity:0.5;}.cls-19{fill:url(#linear-gradient-8);}.cls-20{fill:url(#linear-gradient-9);}.cls-21{fill:url(#linear-gradient-10);}.cls-22{fill:url(#linear-gradient-11);}.cls-23{fill:url(#linear-gradient-12);}.cls-24{fill:url(#linear-gradient-13);}.cls-25{fill:url(#linear-gradient-14);}</style><linearGradient id="linear-gradient" x1="16.71" y1="178.05" x2="16.71" y2="136.83" gradientUnits="userSpaceOnUse"><stop offset="0.58" stop-color="#faf6db" stop-opacity="0"/><stop offset="0.74" stop-color="#faf6db" stop-opacity="0.01"/><stop offset="0.79" stop-color="#faf6da" stop-opacity="0.04"/><stop offset="0.83" stop-color="#faf5d8" stop-opacity="0.08"/><stop offset="0.87" stop-color="#f9f5d6" stop-opacity="0.15"/><stop offset="0.9" stop-color="#f9f4d4" stop-opacity="0.24"/><stop offset="0.92" stop-color="#f8f3d0" stop-opacity="0.35"/><stop offset="0.94" stop-color="#f8f2cc" stop-opacity="0.49"/><stop offset="0.96" stop-color="#f7f1c8" stop-opacity="0.64"/><stop offset="0.98" stop-color="#f6f0c3" stop-opacity="0.81"/><stop offset="1" stop-color="#f5eebd" stop-opacity="0.99"/><stop offset="1" stop-color="#f5eebd"/></linearGradient><linearGradient id="linear-gradient-2" x1="22.84" y1="157.44" x2="10.59" y2="157.44" gradientUnits="userSpaceOnUse"><stop offset="0.59" stop-color="#fcf9e9" stop-opacity="0"/><stop offset="0.69" stop-color="#fcf9e9" stop-opacity="0.01"/><stop offset="0.74" stop-color="#fcf9e7" stop-opacity="0.04"/><stop offset="0.79" stop-color="#fbf8e4" stop-opacity="0.1"/><stop offset="0.83" stop-color="#fbf7e1" stop-opacity="0.19"/><stop offset="0.87" stop-color="#faf6dc" stop-opacity="0.29"/><stop offset="0.9" stop-color="#f9f4d6" stop-opacity="0.43"/><stop offset="0.93" stop-color="#f8f3cf" stop-opacity="0.58"/><stop offset="0.97" stop-color="#f7f1c7" stop-opacity="0.77"/><stop offset="1" stop-color="#f5eebe" stop-opacity="0.97"/><stop offset="1" stop-color="#f5eebd"/></linearGradient><linearGradient id="linear-gradient-3" x1="16.26" y1="141.67" x2="16.26" y2="140.4" gradientUnits="userSpaceOnUse"><stop offset="0" stop-color="#f1e6a0" stop-opacity="0"/><stop offset="0.1" stop-color="#f1e6a2" stop-opacity="0.02"/><stop offset="0.23" stop-color="#f1e7a8" stop-opacity="0.09"/><stop offset="0.37" stop-color="#f1e9b1" stop-opacity="0.21"/><stop offset="0.53" stop-color="#f2ebbf" stop-opacity="0.37"/><stop offset="0.71" stop-color="#f2edd0" stop-opacity="0.58"/><stop offset="0.88" stop-color="#f3f1e4" stop-opacity="0.82"/><stop offset="1" stop-color="#f3f3f3"/></linearGradient><linearGradient id="linear-gradient-4" x1="-1165.07" y1="178.05" x2="-1165.07" y2="136.83" gradientTransform="matrix(1, 0, 0, -1, 1269.13, 314.88)" xlink:href="#linear-gradient"/><linearGradient id="linear-gradient-5" x1="-1158.95" y1="157.44" x2="-1171.2" y2="157.44" gradientTransform="matrix(1, 0, 0, -1, 1269.13, 314.88)" gradientUnits="userSpaceOnUse"><stop offset="0.59" stop-color="#fcf9e9" stop-opacity="0"/><stop offset="0.69" stop-color="#fcf9e8" stop-opacity="0.01"/><stop offset="0.74" stop-color="#fcf8e6" stop-opacity="0.05"/><stop offset="0.79" stop-color="#fbf7e1" stop-opacity="0.11"/><stop offset="0.83" stop-color="#faf5db" stop-opacity="0.19"/><stop offset="0.87" stop-color="#f9f3d3" stop-opacity="0.3"/><stop offset="0.9" stop-color="#f7f1c9" stop-opacity="0.43"/><stop offset="0.94" stop-color="#f5eebe" stop-opacity="0.59"/><stop offset="0.97" stop-color="#f3eab0" stop-opacity="0.78"/><stop offset="1" stop-color="#f1e6a1" stop-opacity="0.98"/><stop offset="1" stop-color="#f1e6a0"/></linearGradient><linearGradient id="linear-gradient-6" x1="-1165.53" y1="141.67" x2="-1165.53" y2="140.4" gradientTransform="matrix(1, 0, 0, -1, 1270.04, 282.07)" xlink:href="#linear-gradient-3"/><linearGradient id="linear-gradient-7" x1="57.24" y1="129.7" x2="57.24" y2="126.67" gradientUnits="userSpaceOnUse"><stop offset="0.32" stop-color="#fcf9e9" stop-opacity="0"/><stop offset="0.38" stop-color="#fcf9e9" stop-opacity="0.04"/><stop offset="0.48" stop-color="#fbf8ea" stop-opacity="0.14"/><stop offset="0.6" stop-color="#f9f7ec" stop-opacity="0.3"/><stop offset="0.74" stop-color="#f7f6ee" stop-opacity="0.52"/><stop offset="0.9" stop-color="#f5f4f1" stop-opacity="0.8"/><stop offset="1" stop-color="#f3f3f3"/></linearGradient><linearGradient id="linear-gradient-8" x1="31.68" y1="178.05" x2="31.68" y2="136.83" gradientTransform="matrix(1, 0, 0, -1, 363.6, 314.88)" xlink:href="#linear-gradient"/><linearGradient id="linear-gradient-9" x1="37.81" y1="157.44" x2="25.56" y2="157.44" gradientTransform="matrix(1, 0, 0, -1, 363.6, 314.88)" xlink:href="#linear-gradient-2"/><linearGradient id="linear-gradient-10" x1="31.23" y1="141.67" x2="31.23" y2="140.4" gradientTransform="matrix(1, 0, 0, -1, 364.51, 282.07)" xlink:href="#linear-gradient-3"/><linearGradient id="linear-gradient-11" x1="-1180.04" y1="178.05" x2="-1180.04" y2="136.83" gradientTransform="translate(1487.98)" xlink:href="#linear-gradient"/><linearGradient id="linear-gradient-12" x1="-1173.92" y1="157.44" x2="-1186.17" y2="157.44" gradientTransform="translate(1487.98)" xlink:href="#linear-gradient-5"/><linearGradient id="linear-gradient-13" x1="-1180.5" y1="141.67" x2="-1180.5" y2="140.4" gradientTransform="translate(1487.98)" xlink:href="#linear-gradient-3"/><linearGradient id="linear-gradient-14" x1="72.21" y1="129.7" x2="72.21" y2="126.67" gradientTransform="matrix(1, 0, 0, -1, 282.56, 256.37)" xlink:href="#linear-gradient-7"/></defs><title>rome</title><path class="cls-1" d="M344.6,13.68a2.15,2.15,0,0,1,1.84,2.53,6.93,6.93,0,0,1-.9,1.94c-.35.23-.12.9.41,2,.17.47-.38,1.25-.15,1.28s.46-.24.68,0,.31.64.31,1.54.32,2.19.2,2.42-.67.76-.9.32.26-1.08.26-1.08l.12-1.57s0-.7-.38-.12-.7.9-1.2.64-.58-.44-2,.7l-.67.44a11.47,11.47,0,0,1-.26,2.13,11.36,11.36,0,0,0-.15,2.42h-.64l.2-3.59L338.9,29.1l-2.48.15s.87-.44.9-.85a14.29,14.29,0,0,1,0-2.51,1.47,1.47,0,0,1-.44-1c0-.55-.26.17-.32.55a2.94,2.94,0,0,1-.73,1.2c-.23.23-.1,1.49-.1,1.49l.46.85-1,0-2.78-.1A13.19,13.19,0,0,0,333,25.9a21.87,21.87,0,0,1-.67-2.1c-.08-.74-.38-3.15.74-3.91a7.65,7.65,0,0,0,3-4c.62-1.95,0-2.76.8-3.42s2-1.3,2.54-.5c0,.31-.22.52.06,1s-.18.6-.2.85a1.13,1.13,0,0,1-.22.91c-.1.2.27.34.07.87a2.19,2.19,0,0,1-.59.85l-.06.27a3,3,0,0,1,1.2,2.16v1l.93-.1S343.74,13.88,344.6,13.68Z"/><path class="cls-1" d="M330.61,29.25V27s1.48-.3,1.38-1.48a1,1,0,0,0-.69-.7V23.62S331,23,329.69,23l-.8-9.37a1.65,1.65,0,0,1-.59-1.23c-.05-.86,0-2.68.54-2.95S331,8,331.08,7a12.28,12.28,0,0,0,.06-2.54c-.08-.54-.74-1.25-.64-.31s.54.79.18,1.76S330.5,7.38,329.46,8l-.64.41s-.64-.15-.82.36-.59.23-.66-.05.38-.15.38-.15.2-.54.64-.56,1.15-.15,1.3-.66-.31-.84-.31-1.35-.23-1.33.46-1.73,1.71-1.43,1.76-1.89-.61-.2-.61-.2a4.72,4.72,0,0,0-1.45,1.63,7.33,7.33,0,0,1-1.4,2.68c-.48.72-.72,1.8-.87,1.86s-.28.08-.29,0a1.24,1.24,0,0,1,.11-.72c.17-.44.17-1.47-.23-1.43s-1.5.27-1.42,1,.45.53.46.78.16.81,0,.84-.38-.68-.72-1.29-1.59-3.74-5-4.67,0,.44,0,.44-2.58-1-1.42-.17c.53.21.9.43.6.37s-.72-.15-.52.06a9.17,9.17,0,0,0,1.6.73s.52.37-.08.23-1.11-.2-.54.08,2.68,1.12,2.8,3.47a2.8,2.8,0,0,0,1.92,2.78s-.2,1-.64,2.68a5.24,5.24,0,0,0-.32,2.15.92.92,0,0,0-.79,1,11.83,11.83,0,0,1,.23,2.24s-1.65.87-1.6,2.12-.3,3,.33,3.9a7.44,7.44,0,0,0,.21,1.81c0,.42,0,2.25,0,2.25Z"/><path class="cls-1" d="M317.36,14.05s.75.52.52,3.43a3.35,3.35,0,0,1,1,2.26s1.74.8,1.74,2.31.33,2.68-.61,4.23a8.29,8.29,0,0,0-1,3.53l-.36-.56A3.14,3.14,0,0,1,319,27c.35-1.5-.26-2.14-.47-1.53a11,11,0,0,0-.78,3.46h-.61l-.14.33a1.64,1.64,0,0,1-.46-.83c-.07-.46-1-1.36-1-2.46,0,0-.71.93-.89.39s.21-.78.14-1-.34-.46-.19-.93-.42-2-.2-2.46a10.15,10.15,0,0,1,1.28-3.28,1.26,1.26,0,0,0,.3-1.3c-.16-.26-.34-.24-.34-.64a.81.81,0,0,0-.26-.65c-.1-.11,0-.94,0-.94l-.11-.29-.25-.45.11-.27.6.16a.78.78,0,0,1,.41-.14c.28,0,.26-1.05.73-.76a.88.88,0,0,1,.4.81Z"/><path class="cls-1" d="M67.21,13.68a2.15,2.15,0,0,0-1.84,2.53,6.93,6.93,0,0,0,.9,1.94c.35.23.12.9-.41,2-.17.47.38,1.25.15,1.28s-.46-.24-.68,0S65,22,65,22.95s-.32,2.19-.2,2.42.67.76.9.32-.26-1.08-.26-1.08L65.33,23s0-.7.38-.12.7.9,1.2.64.58-.44,2,.7l.67.44a11.47,11.47,0,0,0,.26,2.13A11.36,11.36,0,0,1,70,29.25h.64l-.2-3.59,2.51,3.44,2.48.15s-.87-.44-.9-.85a14.29,14.29,0,0,0,0-2.51,1.47,1.47,0,0,0,.44-1c0-.55.26.17.32.55a2.94,2.94,0,0,0,.73,1.2c.23.23.1,1.49.1,1.49l-.46.85,1,0,2.78-.1a13.19,13.19,0,0,1-.59-3.07,21.87,21.87,0,0,0,.67-2.1c.08-.74.38-3.15-.74-3.91a7.65,7.65,0,0,1-3-4c-.62-1.95,0-2.76-.8-3.42s-2-1.3-2.54-.5c0,.31.22.52-.06,1s.18.6.2.85a1.13,1.13,0,0,0,.22.91c.1.2-.27.34-.07.87a2.19,2.19,0,0,0,.59.85l.06.27a3,3,0,0,0-1.2,2.16v1l-.93-.1S68.07,13.88,67.21,13.68Z"/><path class="cls-1" d="M81.19,29.25V27s-1.48-.3-1.38-1.48a1,1,0,0,1,.69-.7V23.62s.28-.59,1.62-.59l.8-9.37a1.65,1.65,0,0,0,.59-1.23c.05-.86,0-2.68-.54-2.95S80.84,8,80.73,7a12.28,12.28,0,0,1-.06-2.54c.08-.54.74-1.25.64-.31s-.54.79-.18,1.76S81.31,7.38,82.35,8l.64.41s.64-.15.82.36.59.23.66-.05-.38-.15-.38-.15S83.88,8,83.45,8s-1.15-.15-1.3-.66.31-.84.31-1.35.23-1.33-.46-1.73-1.71-1.43-1.76-1.89.61-.2.61-.2A4.72,4.72,0,0,1,82.3,3.81a7.33,7.33,0,0,0,1.4,2.68c.48.72.72,1.8.87,1.86s.28.08.29,0a1.24,1.24,0,0,0-.11-.72c-.17-.44-.17-1.47.23-1.43s1.5.27,1.42,1S86,7.73,86,8s-.16.81,0,.84.38-.68.72-1.29,1.59-3.74,5-4.67,0,.44,0,.44,2.58-1,1.42-.17c-.53.21-.9.43-.6.37s.72-.15.52.06a9.17,9.17,0,0,1-1.6.73s-.52.37.08.23,1.11-.2.54.08-2.68,1.12-2.8,3.47a2.8,2.8,0,0,1-1.92,2.78s.2,1,.64,2.68a5.24,5.24,0,0,1,.32,2.15.92.92,0,0,1,.79,1,11.83,11.83,0,0,0-.23,2.24s1.65.87,1.6,2.12.3,3-.33,3.9a7.44,7.44,0,0,1-.21,1.81c0,.42,0,2.25,0,2.25Z"/><path class="cls-1" d="M94.45,14.05s-.75.52-.52,3.43a3.35,3.35,0,0,0-1,2.26s-1.74.8-1.74,2.31-.33,2.68.61,4.23a8.29,8.29,0,0,1,1,3.53l.36-.56A3.14,3.14,0,0,0,92.77,27c-.35-1.5.26-2.14.47-1.53A11,11,0,0,1,94,28.92h.61l.14.33a1.64,1.64,0,0,0,.46-.83c.07-.46,1-1.36,1-2.46,0,0,.71.93.89.39s-.21-.78-.14-1,.34-.46.19-.93.42-2,.2-2.46a10.15,10.15,0,0,0-1.28-3.28,1.26,1.26,0,0,1-.3-1.3c.16-.26.34-.24.34-.64a.81.81,0,0,1,.26-.65c.1-.11,0-.94,0-.94l.11-.29.25-.45-.11-.27-.6.16a.78.78,0,0,0-.41-.14c-.28,0-.26-1.05-.73-.76a.88.88,0,0,0-.4.81Z"/><rect class="cls-2" x="191.92" y="46.89" width="30.17" height="7.39"/><rect class="cls-3" x="4.38" y="170.29" width="403.24" height="21.6" transform="translate(412 362.18) rotate(-180)"/><path class="cls-4" d="M107.5,89.16s103,6,196.25.16V134.4s-117.93,7.11-196.25,0Z"/><path class="cls-4" d="M107.5,49.07s103,6,196.25.16V94.31s-117.93,7.11-196.25,0Z"/><path class="cls-3" d="M107.5,52.09s103,6,196.25.16V97.33s-117.93,7.11-196.25,0Z"/><path class="cls-4" d="M107.5,66.46s103,6,196.25.16V111.7s-117.93,7.11-196.25,0Z"/><path class="cls-3" d="M107.5,69.49s103,6,196.25.16v45.08s-117.93,7.11-196.25,0Z"/><path class="cls-5" d="M107.5,78.57s103,6,196.25.16v45.08s-117.93,7.11-196.25,0Z"/><path class="cls-4" d="M107.5,77.06s103,6,196.25.16V122.3s-117.93,7.11-196.25,0Z"/><path class="cls-6" d="M107.5,74.79s103,6,196.25.16V120s-117.93,7.11-196.25,0Z"/><rect class="cls-4" x="108.06" y="119.99" width="6" height="0.81"/><polygon class="cls-4" points="114.06 119.99 108.06 119.99 108.94 119.16 113.19 119.16 114.06 119.99"/><path class="cls-4" d="M113.17,81.73a8.7,8.7,0,0,0-4.21,0c-.75.3-.29.54,0,.67v36.44h4.28V82.41C113.46,82.27,113.92,82,113.17,81.73Z"/><rect class="cls-4" x="109.07" y="79.34" width="3.98" height="2.56"/><rect class="cls-4" x="108.54" y="76.9" width="4.93" height="2.44"/><rect class="cls-5" x="108.63" y="118.81" width="4.85" height="0.35" rx="0.18" ry="0.18"/><rect class="cls-4" x="118.65" y="120.75" width="6" height="0.81"/><polygon class="cls-4" points="124.65 120.75 118.65 120.75 119.53 119.92 123.78 119.92 124.65 120.75"/><path class="cls-4" d="M123.76,82.49a8.7,8.7,0,0,0-4.21,0c-.75.3-.29.6,0,.74v36.5h4.28V83.23C124,83.09,124.51,82.79,123.76,82.49Z"/><rect class="cls-4" x="119.66" y="80.1" width="3.98" height="2.56"/><rect class="cls-4" x="119.13" y="77.66" width="4.93" height="2.44"/><rect class="cls-5" x="119.22" y="119.57" width="4.85" height="0.35" rx="0.18" ry="0.18"/><rect class="cls-4" x="129.24" y="121.51" width="6" height="0.81"/><polygon class="cls-4" points="135.24 121.51 129.24 121.51 130.12 120.67 134.37 120.67 135.24 121.51"/><path class="cls-4" d="M134.35,83.25a8.7,8.7,0,0,0-4.21,0c-.75.3-.29.66,0,.8v36.56h4.28V84C134.64,83.91,135.1,83.55,134.35,83.25Z"/><rect class="cls-4" x="130.25" y="80.85" width="3.98" height="2.56"/><rect class="cls-4" x="129.72" y="78.41" width="4.93" height="2.44"/><rect class="cls-5" x="129.82" y="120.32" width="4.85" height="0.35" rx="0.18" ry="0.18"/><rect class="cls-4" x="140.59" y="122.26" width="6" height="0.81"/><polygon class="cls-4" points="146.59 122.26 140.59 122.26 141.46 121.43 145.71 121.43 146.59 122.26"/><path class="cls-4" d="M145.69,84a8.7,8.7,0,0,0-4.21,0c-.75.3-.29.73,0,.86v36.62h4.28V84.86C146,84.73,146.45,84.3,145.69,84Z"/><rect class="cls-4" x="141.6" y="81.61" width="3.98" height="2.56"/><rect class="cls-4" x="141.07" y="79.17" width="4.93" height="2.44"/><rect class="cls-5" x="141.16" y="121.08" width="4.85" height="0.35" rx="0.18" ry="0.18"/><rect class="cls-4" x="152.69" y="122.26" width="6" height="0.81"/><polygon class="cls-4" points="158.69 122.26 152.69 122.26 153.57 121.43 157.82 121.43 158.69 122.26"/><path class="cls-4" d="M157.8,84a8.7,8.7,0,0,0-4.21,0c-.75.3-.29.73,0,.86v36.62h4.28V84.86C158.09,84.73,158.55,84.3,157.8,84Z"/><rect class="cls-4" x="153.7" y="81.61" width="3.98" height="2.56"/><rect class="cls-4" x="153.17" y="79.17" width="4.93" height="2.44"/><rect class="cls-5" x="153.27" y="121.08" width="4.85" height="0.35" rx="0.18" ry="0.18"/><rect class="cls-4" x="163.28" y="122.26" width="6" height="0.81"/><polygon class="cls-4" points="169.28 122.26 163.28 122.26 164.16 121.43 168.41 121.43 169.28 122.26"/><path class="cls-4" d="M168.39,84a8.7,8.7,0,0,0-4.21,0c-.75.3-.29.73,0,.86v36.62h4.28V84.86C168.68,84.73,169.14,84.3,168.39,84Z"/><rect class="cls-4" x="164.29" y="81.61" width="3.98" height="2.56"/><rect class="cls-4" x="163.76" y="79.17" width="4.93" height="2.44"/><rect class="cls-5" x="163.86" y="121.08" width="4.85" height="0.35" rx="0.18" ry="0.18"/><rect class="cls-4" x="175.38" y="123.02" width="6" height="0.81"/><polygon class="cls-4" points="181.39 123.02 175.38 123.02 176.26 122.19 180.51 122.19 181.39 123.02"/><path class="cls-4" d="M180.49,84.76a8.7,8.7,0,0,0-4.21,0c-.75.3-.29.79,0,.92v36.69h4.28V85.68C180.78,85.55,181.24,85.06,180.49,84.76Z"/><rect class="cls-4" x="176.4" y="82.36" width="3.98" height="2.56"/><rect class="cls-4" x="175.87" y="79.93" width="4.93" height="2.44"/><rect class="cls-5" x="175.96" y="121.84" width="4.85" height="0.35" rx="0.18" ry="0.18"/><rect class="cls-4" x="185.97" y="123.02" width="6" height="0.81"/><polygon class="cls-4" points="191.98 123.02 185.97 123.02 186.85 122.19 191.1 122.19 191.98 123.02"/><path class="cls-4" d="M191.08,84.76a8.7,8.7,0,0,0-4.21,0c-.75.3-.29.79,0,.92v36.69h4.28V85.68C191.38,85.55,191.84,85.06,191.08,84.76Z"/><rect class="cls-4" x="186.99" y="82.36" width="3.98" height="2.56"/><rect class="cls-4" x="186.46" y="79.93" width="4.93" height="2.44"/><rect class="cls-5" x="186.55" y="121.84" width="4.85" height="0.35" rx="0.18" ry="0.18"/><rect class="cls-4" x="297.93" y="119.99" width="6" height="0.81" transform="translate(601.87 240.8) rotate(-180)"/><polygon class="cls-4" points="297.93 119.99 303.94 119.99 303.06 119.16 298.81 119.16 297.93 119.99"/><path class="cls-4" d="M298.8,82.41v36.44h4.28V82.41c.27-.13.73-.49,0-.79a12,12,0,0,0-4.21,0C298.07,81.89,298.53,82.27,298.8,82.41Z"/><rect class="cls-4" x="298.94" y="79.34" width="3.98" height="2.56" transform="translate(601.87 161.23) rotate(-180)"/><rect class="cls-4" x="298.52" y="76.9" width="4.93" height="2.44" transform="translate(601.97 156.24) rotate(-180)"/><rect class="cls-5" x="298.51" y="118.81" width="4.85" height="0.35" rx="0.18" ry="0.18" transform="translate(601.87 237.97) rotate(-180)"/><rect class="cls-4" x="287.34" y="120.75" width="6" height="0.81" transform="translate(580.69 242.31) rotate(-180)"/><polygon class="cls-4" points="287.34 120.75 293.34 120.75 292.47 119.92 288.22 119.92 287.34 120.75"/><path class="cls-4" d="M288.21,83.23v36.5h4.28V83.23c.27-.13.73-.52,0-.82a10.93,10.93,0,0,0-4.21,0C287.48,82.68,287.94,83.09,288.21,83.23Z"/><rect class="cls-4" x="288.35" y="80.1" width="3.98" height="2.56" transform="translate(580.69 162.75) rotate(-180)"/><rect class="cls-4" x="287.93" y="77.66" width="4.93" height="2.44" transform="translate(580.79 157.75) rotate(-180)"/><rect class="cls-5" x="287.92" y="119.57" width="4.85" height="0.35" rx="0.18" ry="0.18" transform="translate(580.69 239.48) rotate(-180)"/><rect class="cls-4" x="276.75" y="121.51" width="6" height="0.81" transform="translate(559.5 243.83) rotate(-180)"/><polygon class="cls-4" points="276.75 121.51 282.75 121.51 281.88 120.67 277.63 120.67 276.75 121.51"/><path class="cls-4" d="M277.62,84v36.56h4.28V84c.27-.13.73-.55,0-.85a10,10,0,0,0-4.21,0C276.89,83.48,277.35,83.91,277.62,84Z"/><rect class="cls-4" x="277.76" y="80.85" width="3.98" height="2.56" transform="translate(559.5 164.26) rotate(-180)"/><rect class="cls-4" x="277.34" y="78.41" width="4.93" height="2.44" transform="translate(559.61 159.26) rotate(-180)"/><rect class="cls-5" x="277.33" y="120.32" width="4.85" height="0.35" rx="0.18" ry="0.18" transform="translate(559.5 240.99) rotate(180)"/><rect class="cls-4" x="265.4" y="121.51" width="6" height="0.81" transform="translate(536.81 243.83) rotate(-180)"/><polygon class="cls-4" points="265.4 121.51 271.41 121.51 270.53 120.67 266.28 120.67 265.4 121.51"/><path class="cls-4" d="M266.27,84v36.56h4.28V84c.27-.13.73-.55,0-.85a10,10,0,0,0-4.21,0C265.55,83.48,266,83.91,266.27,84Z"/><rect class="cls-4" x="266.42" y="80.85" width="3.98" height="2.56" transform="translate(536.81 164.26) rotate(-180)"/><rect class="cls-4" x="265.99" y="78.41" width="4.93" height="2.44" transform="translate(536.91 159.26) rotate(-180)"/><rect class="cls-5" x="265.98" y="120.32" width="4.85" height="0.35" rx="0.18" ry="0.18" transform="translate(536.81 240.99) rotate(-180)"/><rect class="cls-4" x="253.3" y="121.51" width="6" height="0.81" transform="translate(512.6 243.83) rotate(-180)"/><polygon class="cls-4" points="253.3 121.51 259.3 121.51 258.43 120.67 254.18 120.67 253.3 121.51"/><path class="cls-4" d="M254.17,84v36.56h4.28V84c.27-.13.73-.55,0-.85a10,10,0,0,0-4.21,0C253.44,83.48,253.9,83.91,254.17,84Z"/><rect class="cls-4" x="254.31" y="80.85" width="3.98" height="2.56" transform="translate(512.6 164.26) rotate(-180)"/><rect class="cls-4" x="253.89" y="78.41" width="4.93" height="2.44" transform="translate(512.71 159.26) rotate(-180)"/><rect class="cls-5" x="253.88" y="120.32" width="4.85" height="0.35" rx="0.18" ry="0.18" transform="translate(512.6 240.99) rotate(180)"/><rect class="cls-4" x="242.71" y="122.26" width="6" height="0.81" transform="translate(491.42 245.34) rotate(-180)"/><polygon class="cls-4" points="242.71 122.26 248.71 122.26 247.84 121.43 243.59 121.43 242.71 122.26"/><path class="cls-4" d="M243.58,84.86v36.62h4.28V84.86c.27-.13.73-.58,0-.88a9.23,9.23,0,0,0-4.21,0C242.85,84.27,243.31,84.73,243.58,84.86Z"/><rect class="cls-4" x="243.72" y="81.61" width="3.98" height="2.56" transform="translate(491.42 165.77) rotate(-180)"/><rect class="cls-4" x="243.3" y="79.17" width="4.93" height="2.44" transform="translate(491.53 160.78) rotate(-180)"/><rect class="cls-5" x="243.29" y="121.08" width="4.85" height="0.35" rx="0.18" ry="0.18" transform="translate(491.42 242.51) rotate(-180)"/><rect class="cls-4" x="230.61" y="123.02" width="6" height="0.81" transform="translate(467.22 246.85) rotate(-180)"/><polygon class="cls-4" points="230.61 123.02 236.61 123.02 235.73 122.19 231.48 122.19 230.61 123.02"/><path class="cls-4" d="M231.48,85.68v36.69h4.28V85.68c.27-.13.73-.61,0-.92a8.57,8.57,0,0,0-4.21,0C230.75,85.07,231.21,85.55,231.48,85.68Z"/><rect class="cls-4" x="231.62" y="82.36" width="3.98" height="2.56" transform="translate(467.22 167.29) rotate(-180)"/><rect class="cls-4" x="231.19" y="79.93" width="4.93" height="2.44" transform="translate(467.32 162.29) rotate(-180)"/><rect class="cls-5" x="231.18" y="121.84" width="4.85" height="0.35" rx="0.18" ry="0.18" transform="translate(467.22 244.02) rotate(180)"/><rect class="cls-4" x="220.02" y="123.02" width="6" height="0.81" transform="translate(446.03 246.85) rotate(-180)"/><polygon class="cls-4" points="220.02 123.02 226.02 123.02 225.14 122.19 220.89 122.19 220.02 123.02"/><path class="cls-4" d="M220.88,85.68v36.69h4.28V85.68c.27-.13.73-.61,0-.92a8.57,8.57,0,0,0-4.21,0C220.16,85.07,220.62,85.55,220.88,85.68Z"/><rect class="cls-4" x="221.03" y="82.36" width="3.98" height="2.56" transform="translate(446.03 167.29) rotate(-180)"/><rect class="cls-4" x="220.6" y="79.93" width="4.93" height="2.44" transform="translate(446.14 162.29) rotate(-180)"/><rect class="cls-5" x="220.59" y="121.84" width="4.85" height="0.35" rx="0.18" ry="0.18" transform="translate(446.03 244.02) rotate(180)"/><rect class="cls-4" x="197.32" y="123.02" width="6" height="0.81"/><polygon class="cls-4" points="203.32 123.02 197.32 123.02 198.2 122.19 202.45 122.19 203.32 123.02"/><path class="cls-4" d="M202.43,84.76a8.7,8.7,0,0,0-4.21,0c-.75.3-.29.79,0,.92v36.69h4.28V85.68C202.72,85.55,203.18,85.06,202.43,84.76Z"/><rect class="cls-4" x="198.33" y="82.36" width="3.98" height="2.56"/><rect class="cls-4" x="197.81" y="79.93" width="4.93" height="2.44"/><rect class="cls-5" x="197.9" y="121.84" width="4.85" height="0.35" rx="0.18" ry="0.18"/><rect class="cls-4" x="208.67" y="123.02" width="6" height="0.81"/><polygon class="cls-4" points="214.67 123.02 208.67 123.02 209.54 122.19 213.8 122.19 214.67 123.02"/><path class="cls-4" d="M213.78,84.76a8.7,8.7,0,0,0-4.21,0c-.75.3-.29.79,0,.92v36.69h4.28V85.68C214.07,85.55,214.53,85.06,213.78,84.76Z"/><rect class="cls-4" x="209.68" y="82.36" width="3.98" height="2.56"/><rect class="cls-4" x="209.15" y="79.93" width="4.93" height="2.44"/><rect class="cls-5" x="209.24" y="121.84" width="4.85" height="0.35" rx="0.18" ry="0.18"/><rect class="cls-7" x="55.02" y="65.4" width="38.76" height="20.43"/><rect class="cls-5" x="96.69" y="63.05" width="5.56" height="8.29"/><rect class="cls-5" x="89.48" y="120.13" width="9.01" height="6.15"/><polygon class="cls-5" points="100.94 71.07 97.08 65.74 97.08 129.86 100.94 129.86 100.94 71.07"/><path class="cls-8" d="M107.5,74.79s103,6,196.25.16v3.47s-117.93,7.11-196.25,0Z"/><rect class="cls-2" x="59.28" y="115.95" width="6" height="0.84"/><rect class="cls-2" x="59.28" y="116.79" width="6" height="2.14"/><rect class="cls-2" x="59.03" y="118.93" width="6.51" height="1.91"/><polygon class="cls-2" points="65.28 115.95 59.28 115.95 60.16 115.09 64.41 115.09 65.28 115.95"/><path class="cls-2" d="M64.39,76.58a5.75,5.75,0,0,0-2.11-.26,5.76,5.76,0,0,0-2.11.26c-.75.31-.29.61,0,.74v37.12h4.28V77.32C64.68,77.19,65.14,76.89,64.39,76.58Z"/><rect class="cls-2" x="60.29" y="74.12" width="3.98" height="2.63"/><rect class="cls-2" x="59.76" y="71.61" width="4.93" height="2.51"/><rect class="cls-2" x="59.86" y="114.73" width="4.85" height="0.36" rx="0.18" ry="0.18"/><rect class="cls-2" x="59.2" y="118.03" width="6.17" height="0.89"/><rect class="cls-2" x="71.38" y="115.95" width="6" height="0.84"/><rect class="cls-2" x="71.38" y="116.79" width="6" height="2.14"/><rect class="cls-2" x="71.13" y="118.93" width="6.51" height="1.91"/><polygon class="cls-2" points="77.39 115.95 71.39 115.95 72.26 115.09 76.51 115.09 77.39 115.95"/><path class="cls-2" d="M76.49,76.58a8.56,8.56,0,0,0-4.21,0c-.75.31-.29.61,0,.74v37.12h4.28V77.32C76.79,77.19,77.24,76.89,76.49,76.58Z"/><rect class="cls-2" x="72.4" y="74.12" width="3.98" height="2.63"/><rect class="cls-2" x="71.87" y="71.61" width="4.93" height="2.51"/><rect class="cls-2" x="71.96" y="114.73" width="4.85" height="0.36" rx="0.18" ry="0.18"/><rect class="cls-2" x="71.3" y="118.03" width="6.17" height="0.89"/><rect class="cls-2" x="83.49" y="115.95" width="6" height="0.84"/><rect class="cls-2" x="83.49" y="116.79" width="6" height="2.14"/><rect class="cls-2" x="83.23" y="118.93" width="6.51" height="1.91"/><polygon class="cls-2" points="89.49 115.95 83.49 115.95 84.36 115.09 88.61 115.09 89.49 115.95"/><path class="cls-2" d="M88.6,76.58a8.56,8.56,0,0,0-4.21,0c-.75.31-.29.61,0,.74v37.12h4.28V77.32C88.89,77.19,89.35,76.89,88.6,76.58Z"/><rect class="cls-2" x="84.5" y="74.12" width="3.98" height="2.63"/><rect class="cls-2" x="83.97" y="71.61" width="4.93" height="2.51"/><rect class="cls-2" x="84.06" y="114.73" width="4.85" height="0.36" rx="0.18" ry="0.18"/><rect class="cls-2" x="83.4" y="118.03" width="6.17" height="0.89"/><polygon class="cls-9" points="93.76 123.86 95.57 124.96 95.57 127.59 91.03 127.59 91.03 123.86 93.76 123.86"/><rect class="cls-9" x="91.63" y="126.04" width="4.79" height="46.93"/><rect class="cls-4" x="10.53" y="127.58" width="12.33" height="4.65"/><rect class="cls-10" x="93.57" y="130.03" width="226.52" height="47.82"/><rect class="cls-10" x="22.84" y="126.65" width="68.8" height="51.4"/><rect class="cls-6" x="5.34" y="126.61" width="5.19" height="6.85"/><rect class="cls-10" x="4.38" y="136.83" width="18.46" height="41.22"/><rect class="cls-11" x="10.59" y="136.83" width="12.25" height="41.22"/><polygon class="cls-9" points="1.95 135.19 22.84 135.19 22.84 136.83 3.99 136.83 1.95 135.19"/><rect class="cls-4" x="1.95" y="132.86" width="20.89" height="2.32"/><polygon class="cls-5" points="1 132.23 22.84 132.23 22.84 132.86 1.95 132.86 1 132.23"/><polygon class="cls-5" points="22.86 134.11 17.07 134.11 19.11 135.76 22.86 135.76 22.86 134.11"/><rect class="cls-4" x="17.07" y="131.79" width="5.79" height="2.32"/><polygon class="cls-5" points="22.86 131.16 16.12 131.16 17.07 131.79 22.86 131.79 22.86 131.16"/><rect class="cls-4" x="4.88" y="125.47" width="5.99" height="1.14"/><rect class="cls-4" x="5.55" y="124.96" width="4.72" height="0.52"/><rect class="cls-6" x="12.71" y="149.42" width="6.41" height="13.29"/><rect class="cls-9" x="14.15" y="151.59" width="3.52" height="8.51"/><rect class="cls-3" x="28.85" y="172" width="55.6" height="1.11"/><path class="cls-6" d="M11.91,147.25s3.25-.41,4-2.06V148Z"/><path class="cls-6" d="M19.92,147.25s-3.25-.41-4-2.06V148Z"/><polygon class="cls-3" points="48.37 178.04 42.52 178.04 43.86 175.29 47.21 175.29 48.37 178.04"/><rect class="cls-6" x="12.14" y="148.21" width="7.54" height="0.99"/><polygon class="cls-3" points="70.76 178.04 64.91 178.04 66.26 175.29 69.6 175.29 70.76 178.04"/><rect class="cls-12" x="10.59" y="136.83" width="12.25" height="41.22"/><rect class="cls-5" x="28.85" y="173.1" width="55.86" height="0.15"/><rect class="cls-5" x="28.85" y="171.69" width="55.86" height="0.3"/><rect class="cls-4" x="47.61" y="150.09" width="18.29" height="27.95"/><polygon class="cls-6" points="19.12 149.42 12.71 149.42 12.14 149.2 19.68 149.2 19.12 149.42"/><rect class="cls-3" x="50.97" y="153.15" width="11.86" height="24.89"/><rect class="cls-6" x="11.91" y="147.25" width="8.01" height="0.96"/><ellipse class="cls-6" cx="15.92" cy="146.46" rx="1.06" ry="1.27"/><rect class="cls-4" x="4.38" y="136.83" width="6.21" height="3.87"/><rect class="cls-2" x="52.91" y="155.6" width="8.05" height="22.44"/><rect class="cls-4" x="10.53" y="140.4" width="11.46" height="1.27"/><rect class="cls-3" x="4.38" y="143.41" width="6.21" height="34.63"/><rect class="cls-6" x="43.66" y="134.93" width="26.37" height="11.58"/><rect class="cls-6" x="95.11" y="126.61" width="5.19" height="6.85" transform="translate(195.42 260.07) rotate(-180)"/><rect class="cls-4" x="94.77" y="125.47" width="5.99" height="1.14" transform="translate(195.53 252.08) rotate(-180)"/><rect class="cls-4" x="95.37" y="124.96" width="4.72" height="0.52" transform="translate(195.46 250.43) rotate(-180)"/><polygon class="cls-3" points="70.02 134.93 43.66 134.93 42.44 132.86 71.24 132.86 70.02 134.93"/><polygon class="cls-3" points="70.23 148.58 43.86 148.58 42.65 146.51 71.44 146.51 70.23 148.58"/><rect class="cls-6" x="43.99" y="148.58" width="3.1" height="1.51"/><rect class="cls-13" x="10.53" y="140.4" width="11.46" height="1.27"/><rect class="cls-6" x="43.86" y="152.04" width="3.34" height="23.25"/><rect class="cls-3" x="43.48" y="150.09" width="4.12" height="2.52"/><rect class="cls-6" x="66.39" y="148.58" width="3.1" height="1.51"/><rect class="cls-6" x="66.26" y="152.04" width="3.34" height="23.25"/><rect class="cls-3" x="65.88" y="150.09" width="4.12" height="2.52"/><rect class="cls-2" x="19.43" y="135.76" width="3.4" height="1.07"/><rect class="cls-4" x="19.69" y="136.83" width="3.17" height="2.9"/><rect class="cls-3" x="18.75" y="140.33" width="4.11" height="0.54"/><polygon class="cls-3" points="19.68 139.73 22.86 139.73 22.86 140.33 18.75 140.33 19.68 139.73"/><rect class="cls-4" x="20.3" y="140.87" width="2.56" height="1.73"/><path class="cls-3" d="M20,160.73s0-12.83.33-18.13h2.56v18.13Z"/><path class="cls-3" d="M20,161.55a24.52,24.52,0,0,0-.28,6.89h3.26v-6.89Z"/><rect class="cls-4" x="19.92" y="160.73" width="2.92" height="1.1"/><rect class="cls-4" x="19.69" y="168.44" width="3.26" height="1.88"/><polygon class="cls-4" points="19.68 170.32 22.95 170.32 22.95 171.16 18.75 171.16 19.68 170.32"/><rect class="cls-3" x="18.75" y="171.16" width="4.2" height="6.89"/><polygon class="cls-3" points="10.89 141.41 4.08 141.41 3.71 140.33 11.26 140.33 10.89 141.41"/><rect class="cls-4" x="4.38" y="141.41" width="6.21" height="2"/><rect class="cls-4" x="91.63" y="127.58" width="18.61" height="4.65" transform="translate(201.88 259.82) rotate(-180)"/><rect class="cls-6" x="110.24" y="126.61" width="5.19" height="6.85" transform="translate(225.68 260.07) rotate(-180)"/><rect class="cls-10" x="97.94" y="136.83" width="18.46" height="41.22" transform="translate(214.33 314.88) rotate(-180)"/><rect class="cls-14" x="97.94" y="136.83" width="12.25" height="41.22" transform="translate(208.12 314.88) rotate(-180)"/><polygon class="cls-9" points="118.82 135.19 97.94 135.19 97.94 136.83 116.78 136.83 118.82 135.19"/><rect class="cls-4" x="97.94" y="132.86" width="20.89" height="2.32" transform="translate(216.76 268.05) rotate(-180)"/><polygon class="cls-5" points="119.77 132.23 97.94 132.23 97.94 132.86 118.82 132.86 119.77 132.23"/><polygon class="cls-5" points="93.81 134.11 103.7 134.11 101.66 135.76 93.81 135.76 93.81 134.11"/><rect class="cls-5" x="93.81" y="131.79" width="9.89" height="2.32"/><polygon class="cls-5" points="97.92 131.16 104.65 131.16 103.7 131.79 97.92 131.79 97.92 131.16"/><polygon class="cls-5" points="99.62 131.16 92.89 131.16 93.84 131.79 99.62 131.79 99.62 131.16"/><rect class="cls-4" x="109.9" y="125.47" width="5.99" height="1.14" transform="translate(225.79 252.08) rotate(-180)"/><rect class="cls-4" x="110.5" y="124.96" width="4.72" height="0.52" transform="translate(225.72 250.43) rotate(-180)"/><rect class="cls-6" x="101.66" y="149.42" width="6.41" height="13.29" transform="translate(209.72 312.13) rotate(-180)"/><rect class="cls-9" x="103.1" y="151.59" width="3.52" height="8.51" transform="translate(209.72 311.7) rotate(-180)"/><path class="cls-6" d="M108.86,147.25s-3.25-.41-4-2.06V148Z"/><path class="cls-6" d="M100.85,147.25s3.25-.41,4-2.06V148Z"/><rect class="cls-6" x="101.09" y="148.21" width="7.54" height="0.99" transform="translate(209.72 297.41) rotate(-180)"/><rect class="cls-15" x="97.94" y="136.83" width="12.25" height="41.22" transform="translate(208.12 314.88) rotate(-180)"/><polygon class="cls-6" points="101.66 149.42 108.06 149.42 108.63 149.2 101.09 149.2 101.66 149.42"/><rect class="cls-6" x="100.85" y="147.25" width="8.01" height="0.96" transform="translate(209.72 295.46) rotate(-180)"/><ellipse class="cls-6" cx="104.86" cy="146.46" rx="1.06" ry="1.27"/><rect class="cls-4" x="110.19" y="136.83" width="6.21" height="3.87" transform="translate(226.58 277.53) rotate(-180)"/><rect class="cls-4" x="98.78" y="140.4" width="11.46" height="1.27" transform="translate(209.03 282.07) rotate(-180)"/><rect class="cls-3" x="110.19" y="143.41" width="6.21" height="34.63" transform="translate(226.58 321.46) rotate(-180)"/><rect class="cls-16" x="98.78" y="140.4" width="11.46" height="1.27" transform="translate(209.03 282.07) rotate(-180)"/><rect class="cls-2" x="94.06" y="135.76" width="7.53" height="1.07" transform="translate(195.66 272.59) rotate(-180)"/><rect class="cls-4" x="94.33" y="136.83" width="7" height="2.9" transform="translate(195.66 276.56) rotate(-180)"/><rect class="cls-3" x="94.06" y="140.33" width="7.96" height="0.54" transform="translate(196.09 281.21) rotate(-180)"/><polygon class="cls-3" points="101.09 139.73 94.06 139.73 93.05 140.33 102.03 140.33 101.09 139.73"/><rect class="cls-4" x="95.27" y="140.87" width="5.2" height="1.73" transform="translate(195.75 283.47) rotate(-180)"/><polygon class="cls-4" points="94.7 141.74 100.47 141.74 100.47 140.87 94.06 140.87 94.7 141.74"/><polygon class="cls-4" points="101.06 141.74 95.28 141.74 95.28 140.87 101.69 140.87 101.06 141.74"/><path class="cls-3" d="M100.81,160.73s0-12.83-.33-18.13H97.92v18.13Z"/><path class="cls-3" d="M100.81,161.55a24.52,24.52,0,0,1,.28,6.89H97.83v-6.89Z"/><path class="cls-3" d="M94.94,160.73s0-12.83.33-18.13h2.65v18.13Z"/><path class="cls-3" d="M94.94,161.55a24.52,24.52,0,0,0-.28,6.89h3.26v-6.89Z"/><rect class="cls-4" x="94.87" y="160.73" width="5.98" height="1.1" transform="translate(195.73 322.56) rotate(-180)"/><rect class="cls-4" x="94.67" y="168.44" width="6.42" height="1.88" transform="translate(195.76 338.76) rotate(-180)"/><polygon class="cls-4" points="101.09 170.32 97.83 170.32 97.83 171.16 102.03 171.16 101.09 170.32"/><polyline class="cls-4" points="94.69 170.32 97.95 170.32 97.95 171.16 93.75 171.16"/><rect class="cls-3" x="91.63" y="172.97" width="10.39" height="5.08" transform="translate(193.66 351.02) rotate(-180)"/><rect class="cls-4" x="93.75" y="171.16" width="8.28" height="1.81"/><polygon class="cls-3" points="109.89 141.41 116.69 141.41 117.07 140.33 109.51 140.33 109.89 141.41"/><rect class="cls-4" x="110.19" y="141.41" width="6.21" height="2" transform="translate(226.58 284.83) rotate(-180)"/><rect class="cls-3" x="44.44" y="138.23" width="2.8" height="6.67" rx="1.4" ry="1.4"/><rect class="cls-3" x="43.99" y="143.34" width="3.7" height="2.41"/><ellipse class="cls-3" cx="45.85" cy="137.81" rx="0.48" ry="0.67"/><rect class="cls-3" x="66.45" y="138.23" width="2.8" height="6.67" rx="1.4" ry="1.4"/><rect class="cls-3" x="66" y="143.33" width="3.7" height="2.41"/><ellipse class="cls-3" cx="67.85" cy="137.81" rx="0.48" ry="0.67"/><rect class="cls-2" x="51.09" y="136.85" width="2.23" height="7.73"/><rect class="cls-2" x="55.63" y="136.85" width="2.23" height="7.73"/><rect class="cls-2" x="60.17" y="136.85" width="2.23" height="7.73"/><rect class="cls-3" x="49.38" y="137.06" width="1.41" height="7.41"/><rect class="cls-4" x="49.08" y="136.13" width="2.02" height="0.44"/><polygon class="cls-4" points="51.09 136.57 49.08 136.57 49.38 137.06 50.79 137.06 51.09 136.57"/><rect class="cls-4" x="49.08" y="144.85" width="2.02" height="0.44"/><polygon class="cls-4" points="51.09 144.85 49.08 144.85 49.38 144.37 50.79 144.37 51.09 144.85"/><rect class="cls-3" x="53.77" y="137.06" width="1.41" height="7.41"/><rect class="cls-4" x="53.47" y="136.13" width="2.02" height="0.44"/><polygon class="cls-4" points="55.49 136.57 53.47 136.57 53.77 137.06 55.19 137.06 55.49 136.57"/><rect class="cls-4" x="53.47" y="144.85" width="2.02" height="0.44"/><polygon class="cls-4" points="55.49 144.85 53.47 144.85 53.77 144.37 55.19 144.37 55.49 144.85"/><rect class="cls-3" x="58.31" y="137.06" width="1.41" height="7.41"/><rect class="cls-4" x="58.01" y="136.13" width="2.02" height="0.44"/><polygon class="cls-4" points="60.03 136.57 58.01 136.57 58.31 137.06 59.73 137.06 60.03 136.57"/><rect class="cls-4" x="58.01" y="144.85" width="2.02" height="0.44"/><polygon class="cls-4" points="60.03 144.85 58.01 144.85 58.31 144.37 59.73 144.37 60.03 144.85"/><rect class="cls-3" x="62.71" y="137.06" width="1.41" height="7.41"/><rect class="cls-4" x="62.41" y="136.13" width="2.02" height="0.44"/><polygon class="cls-4" points="64.42 136.57 62.41 136.57 62.71 137.06 64.12 137.06 64.42 136.57"/><rect class="cls-4" x="62.41" y="144.85" width="2.02" height="0.44"/><polygon class="cls-4" points="64.42 144.85 62.41 144.85 62.71 144.37 64.12 144.37 64.42 144.85"/><polygon class="cls-10" points="48.03 146.51 43.66 146.51 43.99 145.75 47.7 145.75 48.03 146.51"/><polygon class="cls-10" points="70.03 146.51 65.67 146.51 66 145.75 69.7 145.75 70.03 146.51"/><polygon class="cls-4" points="21.28 176.95 29.59 176.95 29.82 177.91 21.04 177.91 21.28 176.95"/><polygon class="cls-4" points="84.08 176.95 92.39 176.95 92.63 177.91 83.84 177.91 84.08 176.95"/><rect class="cls-3" x="21.28" y="173.25" width="8.3" height="3.7"/><rect class="cls-5" x="21.28" y="173.1" width="8.3" height="0.15"/><rect class="cls-3" x="21.28" y="172" width="8.3" height="1.11"/><rect class="cls-5" x="21.28" y="171.69" width="8.3" height="0.3"/><rect class="cls-4" x="21.4" y="170.44" width="8.06" height="1.26"/><polygon class="cls-4" points="29.46 170.44 21.41 170.44 22.25 169.18 28.62 169.18 29.46 170.44"/><rect class="cls-4" x="22.26" y="136.85" width="6.36" height="32.34"/><rect class="cls-5" x="22.26" y="134.93" width="6.36" height="1.91"/><polygon class="cls-5" points="28.62 134.93 22.26 134.93 21.49 133.17 29.4 133.17 28.62 134.93"/><rect class="cls-3" x="84.07" y="173.25" width="8.3" height="3.7"/><rect class="cls-9" x="48.99" y="116.37" width="50.83" height="5.17"/><rect class="cls-5" x="84.07" y="173.1" width="8.3" height="0.15"/><rect class="cls-4" x="89.73" y="112.92" width="6" height="0.84"/><rect class="cls-5" x="89.73" y="113.76" width="6" height="2.14"/><rect class="cls-4" x="89.48" y="115.9" width="6.51" height="1.91"/><polygon class="cls-4" points="95.73 112.92 89.73 112.92 90.61 112.06 94.86 112.06 95.73 112.92"/><path class="cls-4" d="M94.84,73.56a8.56,8.56,0,0,0-4.21,0c-.75.31-.29.8,0,.94V111.8h4.28V74.49C95.13,74.36,95.59,73.86,94.84,73.56Z"/><rect class="cls-4" x="90.74" y="71.1" width="3.98" height="2.63"/><rect class="cls-4" x="90.22" y="68.59" width="4.93" height="2.51"/><rect class="cls-5" x="90.31" y="111.7" width="4.85" height="0.36" rx="0.18" ry="0.18"/><rect class="cls-5" x="89.65" y="115.01" width="6.17" height="0.89"/><rect class="cls-3" x="84.07" y="172" width="8.3" height="1.11"/><rect class="cls-3" x="51.78" y="44.22" width="56.88" height="19.36"/><rect class="cls-5" x="84.07" y="171.69" width="8.3" height="0.3"/><rect class="cls-4" x="84.19" y="170.44" width="8.06" height="1.26"/><polygon class="cls-4" points="92.25 170.44 84.19 170.44 85.03 169.18 91.41 169.18 92.25 170.44"/><rect class="cls-4" x="53.42" y="112.92" width="6" height="0.84"/><rect class="cls-5" x="53.42" y="113.76" width="6" height="2.14"/><rect class="cls-4" x="53.17" y="115.9" width="6.51" height="1.91"/><polygon class="cls-4" points="59.42 112.92 53.42 112.92 54.3 112.06 58.55 112.06 59.42 112.92"/><path class="cls-4" d="M58.53,73.56a5.75,5.75,0,0,0-2.11-.26,5.76,5.76,0,0,0-2.11.26c-.75.31-.29.8,0,.94V111.8h4.28V74.49C58.82,74.36,59.28,73.86,58.53,73.56Z"/><rect class="cls-4" x="54.43" y="71.1" width="3.98" height="2.63"/><rect class="cls-4" x="53.91" y="68.59" width="4.93" height="2.51"/><rect class="cls-5" x="54" y="111.7" width="4.85" height="0.36" rx="0.18" ry="0.18"/><rect class="cls-5" x="53.34" y="115.01" width="6.17" height="0.89"/><rect class="cls-4" x="65.52" y="112.92" width="6" height="0.84"/><rect class="cls-5" x="65.52" y="113.76" width="6" height="2.14"/><rect class="cls-4" x="65.27" y="115.9" width="6.51" height="1.91"/><polygon class="cls-4" points="71.53 112.92 65.53 112.92 66.4 112.06 70.65 112.06 71.53 112.92"/><path class="cls-4" d="M70.63,73.56a5.75,5.75,0,0,0-2.11-.26,5.76,5.76,0,0,0-2.11.26c-.75.31-.29.8,0,.94V111.8h4.28V74.49C70.93,74.36,71.39,73.86,70.63,73.56Z"/><rect class="cls-4" x="66.54" y="71.1" width="3.98" height="2.63"/><rect class="cls-4" x="66.01" y="68.59" width="4.93" height="2.51"/><rect class="cls-5" x="66.1" y="111.7" width="4.85" height="0.36" rx="0.18" ry="0.18"/><rect class="cls-5" x="65.44" y="115.01" width="6.17" height="0.89"/><rect class="cls-4" x="77.63" y="112.92" width="6" height="0.84"/><rect class="cls-5" x="77.63" y="113.76" width="6" height="2.14"/><rect class="cls-4" x="77.37" y="115.9" width="6.51" height="1.91"/><polygon class="cls-4" points="83.63 112.92 77.63 112.92 78.5 112.06 82.75 112.06 83.63 112.92"/><path class="cls-4" d="M82.74,73.56a8.56,8.56,0,0,0-4.21,0c-.75.31-.29.8,0,.94V111.8h4.28V74.49C83,74.36,83.49,73.86,82.74,73.56Z"/><rect class="cls-4" x="78.64" y="71.1" width="3.98" height="2.63"/><rect class="cls-4" x="78.11" y="68.59" width="4.93" height="2.51"/><rect class="cls-5" x="78.2" y="111.7" width="4.85" height="0.36" rx="0.18" ry="0.18"/><rect class="cls-5" x="77.54" y="115.01" width="6.17" height="0.89"/><rect class="cls-4" x="85.05" y="136.85" width="6.36" height="32.34"/><rect class="cls-5" x="85.05" y="134.93" width="6.36" height="1.91"/><polygon class="cls-5" points="91.41 134.93 85.05 134.93 84.27 133.17 92.19 133.17 91.41 134.93"/><rect class="cls-6" x="22.51" y="129.7" width="69.12" height="0.73"/><polygon class="cls-5" points="93.76 123.86 20.71 123.86 19.96 123.13 94.52 123.13 93.76 123.86"/><rect class="cls-6" x="22.51" y="125.92" width="69.12" height="0.73"/><rect class="cls-17" x="22.84" y="126.67" width="68.8" height="3.03"/><rect class="cls-3" x="21.11" y="123.86" width="72.25" height="2.05"/><rect class="cls-3" x="23.41" y="119.39" width="67.61" height="3.74"/><polygon class="cls-3" points="52.05 60.76 52.05 121.49 57.33 121.49 57.33 68.68 92.54 68.68 92.54 121.49 96.94 121.49 96.94 60.76 52.05 60.76"/><rect class="cls-4" x="51.02" y="59.46" width="46.73" height="1.56"/><path class="cls-5" d="M51.78,55.4s-.92,0-1.5-1.8A2.31,2.31,0,0,0,47.81,52s1,.62.7,2.45a5.74,5.74,0,0,0,.9,3.64Z"/><path class="cls-5" d="M97.47,55.4s.92,0,1.5-1.8a2.31,2.31,0,0,1,2.47-1.6s-1,.62-.7,2.45a5.74,5.74,0,0,1-.9,3.64Z"/><polygon class="cls-4" points="46.93 37.16 48.4 40.65 51.78 44.22 80.22 44.22 80.22 37.16 46.93 37.16"/><polygon class="cls-4" points="113.5 37.16 112.03 40.65 108.66 44.22 80.22 44.22 80.22 37.16 113.5 37.16"/><rect class="cls-5" x="72.92" y="41.08" width="3.12" height="8.4" rx="1.56" ry="1.56"/><polygon class="cls-4" points="74.61 46.39 99.82 56.34 99.82 58.1 49.41 58.1 49.41 56.34 74.61 46.39"/><polygon class="cls-4" points="74.61 48.58 99.82 58.1 49.41 58.1 74.61 48.58"/><path class="cls-18" d="M74.61,48.61,49.41,58.12H99.82Zm0,.88,20.54,7.75H54.07Z"/><rect class="cls-4" x="49.18" y="58.1" width="50.86" height="1.36"/><rect class="cls-3" x="100.94" y="71.1" width="7.92" height="44"/><rect class="cls-3" x="100.94" y="115.09" width="7.92" height="3.84"/><rect class="cls-4" x="100.94" y="118.93" width="8.38" height="1.91"/><rect class="cls-5" x="100.94" y="120.83" width="7.92" height="6.76"/><rect class="cls-5" x="101.68" y="65.4" width="7.17" height="5.69"/><rect class="cls-5" x="101.84" y="64.18" width="7.76" height="1.22"/><polygon class="cls-5" points="101.84 62.68 110.25 62.68 109.6 64.19 101.84 64.19 101.84 62.68"/><rect class="cls-5" x="52.4" y="35.26" width="55.64" height="1.89"/><polygon class="cls-5" points="108.04 35.27 52.4 35.27 51.62 34.59 51.62 33.91 108.81 33.91 108.81 34.59 108.04 35.27"/><rect class="cls-5" x="56.96" y="33.42" width="46.53" height="1.58"/><polygon class="cls-5" points="103.48 33.42 56.96 33.42 56.31 32.85 56.31 32.28 104.13 32.28 104.13 32.85 103.48 33.42"/><rect class="cls-5" x="62.09" y="31.64" width="36.26" height="1.23"/><polygon class="cls-5" points="98.35 31.64 62.09 31.64 61.59 31.19 61.59 30.75 98.85 30.75 98.85 31.19 98.35 31.64"/><rect class="cls-5" x="65.86" y="29.65" width="28.71" height="1.23"/><polygon class="cls-5" points="94.57 29.65 65.86 29.65 65.46 29.2 65.46 28.76 94.97 28.76 94.97 29.2 94.57 29.65"/><rect class="cls-7" x="318.23" y="65.4" width="38.76" height="20.43" transform="translate(675.21 151.24) rotate(-180)"/><rect class="cls-5" x="309.75" y="63.05" width="5.56" height="8.29" transform="translate(625.07 134.38) rotate(-180)"/><rect class="cls-5" x="313.52" y="120.13" width="9.01" height="6.15" transform="translate(636.04 246.41) rotate(-180)"/><polygon class="cls-5" points="311.06 71.07 314.92 65.74 314.92 129.86 311.06 129.86 311.06 71.07"/><rect class="cls-2" x="346.72" y="115.95" width="6" height="0.84" transform="translate(699.44 232.73) rotate(-180)"/><rect class="cls-2" x="346.72" y="116.79" width="6" height="2.14" transform="translate(699.44 235.71) rotate(-180)"/><rect class="cls-2" x="346.46" y="118.93" width="6.51" height="1.91" transform="translate(699.44 239.76) rotate(-180)"/><polygon class="cls-2" points="346.72 115.95 352.72 115.95 351.84 115.09 347.59 115.09 346.72 115.95"/><path class="cls-2" d="M347.59,77.32v37.12h4.28V77.32c.27-.14.73-.51,0-.81a10.25,10.25,0,0,0-4.21,0C346.86,76.8,347.32,77.19,347.59,77.32Z"/><rect class="cls-2" x="347.73" y="74.12" width="3.98" height="2.63" transform="translate(699.44 150.87) rotate(-180)"/><rect class="cls-2" x="347.3" y="71.61" width="4.93" height="2.51" transform="translate(699.54 145.73) rotate(-180)"/><rect class="cls-2" x="347.29" y="114.73" width="4.85" height="0.36" rx="0.18" ry="0.18" transform="translate(699.44 229.82) rotate(-180)"/><rect class="cls-2" x="346.63" y="118.03" width="6.17" height="0.89" transform="translate(699.44 236.96) rotate(-180)"/><rect class="cls-2" x="334.61" y="115.95" width="6" height="0.84" transform="translate(675.23 232.73) rotate(-180)"/><rect class="cls-2" x="334.61" y="116.79" width="6" height="2.14" transform="translate(675.23 235.71) rotate(-180)"/><rect class="cls-2" x="334.36" y="118.93" width="6.51" height="1.91" transform="translate(675.23 239.76) rotate(-180)"/><polygon class="cls-2" points="334.61 115.95 340.62 115.95 339.74 115.09 335.49 115.09 334.61 115.95"/><path class="cls-2" d="M335.48,77.32v37.12h4.28V77.32c.27-.14.73-.51,0-.81a10.25,10.25,0,0,0-4.21,0C334.76,76.8,335.21,77.19,335.48,77.32Z"/><rect class="cls-2" x="335.62" y="74.12" width="3.98" height="2.63" transform="translate(675.23 150.87) rotate(-180)"/><rect class="cls-2" x="335.2" y="71.61" width="4.93" height="2.51" transform="translate(675.33 145.73) rotate(-180)"/><rect class="cls-2" x="335.19" y="114.73" width="4.85" height="0.36" rx="0.18" ry="0.18" transform="translate(675.23 229.82) rotate(180)"/><rect class="cls-2" x="334.53" y="118.03" width="6.17" height="0.89" transform="translate(675.23 236.96) rotate(-180)"/><rect class="cls-2" x="322.51" y="115.95" width="6" height="0.84" transform="translate(651.02 232.73) rotate(-180)"/><rect class="cls-2" x="322.51" y="116.79" width="6" height="2.14" transform="translate(651.02 235.71) rotate(-180)"/><rect class="cls-2" x="322.25" y="118.93" width="6.51" height="1.91" transform="translate(651.02 239.76) rotate(-180)"/><polygon class="cls-2" points="322.51 115.95 328.51 115.95 327.64 115.09 323.38 115.09 322.51 115.95"/><path class="cls-2" d="M323.38,77.32v37.12h4.28V77.32c.27-.14.73-.51,0-.81a10.25,10.25,0,0,0-4.21,0C322.65,76.8,323.11,77.19,323.38,77.32Z"/><rect class="cls-2" x="323.52" y="74.12" width="3.98" height="2.63" transform="translate(651.02 150.87) rotate(-180)"/><rect class="cls-2" x="323.1" y="71.61" width="4.93" height="2.51" transform="translate(651.12 145.73) rotate(-180)"/><rect class="cls-2" x="323.08" y="114.73" width="4.85" height="0.36" rx="0.18" ry="0.18" transform="translate(651.02 229.82) rotate(-180)"/><rect class="cls-2" x="322.43" y="118.03" width="6.17" height="0.89" transform="translate(651.02 236.96) rotate(-180)"/><polygon class="cls-9" points="318.24 123.86 316.43 124.96 316.43 127.59 320.97 127.59 320.97 123.86 318.24 123.86"/><rect class="cls-9" x="315.57" y="126.04" width="4.79" height="46.93" transform="translate(635.94 299.01) rotate(-180)"/><rect class="cls-4" x="389.14" y="127.58" width="12.33" height="4.65" transform="translate(790.61 259.82) rotate(-180)"/><rect class="cls-10" x="320.37" y="126.65" width="68.8" height="51.4" transform="translate(709.53 304.69) rotate(-180)"/><rect class="cls-6" x="401.47" y="126.61" width="5.19" height="6.85" transform="translate(808.13 260.07) rotate(-180)"/><rect class="cls-10" x="389.16" y="136.83" width="18.46" height="41.22" transform="translate(796.78 314.88) rotate(-180)"/><rect class="cls-19" x="389.16" y="136.83" width="12.25" height="41.22" transform="translate(790.57 314.88) rotate(-180)"/><polygon class="cls-9" points="410.05 135.19 389.16 135.19 389.16 136.83 408.01 136.83 410.05 135.19"/><rect class="cls-4" x="389.16" y="132.86" width="20.89" height="2.32" transform="translate(799.21 268.05) rotate(-180)"/><polygon class="cls-5" points="411 132.23 389.16 132.23 389.16 132.86 410.05 132.86 411 132.23"/><polygon class="cls-5" points="389.14 134.11 394.93 134.11 392.89 135.76 389.14 135.76 389.14 134.11"/><rect class="cls-4" x="389.14" y="131.79" width="5.79" height="2.32"/><polygon class="cls-5" points="389.14 131.16 395.88 131.16 394.93 131.79 389.14 131.79 389.14 131.16"/><rect class="cls-4" x="401.13" y="125.47" width="5.99" height="1.14" transform="translate(808.24 252.08) rotate(-180)"/><rect class="cls-4" x="401.73" y="124.96" width="4.72" height="0.52" transform="translate(808.18 250.43) rotate(-180)"/><rect class="cls-6" x="392.88" y="149.42" width="6.41" height="13.29" transform="translate(792.17 312.13) rotate(-180)"/><rect class="cls-9" x="394.33" y="151.59" width="3.52" height="8.51" transform="translate(792.17 311.7) rotate(-180)"/><rect class="cls-3" x="327.55" y="172" width="55.6" height="1.11" transform="translate(710.71 345.1) rotate(-180)"/><path class="cls-6" d="M400.09,147.25s-3.25-.41-4-2.06V148Z"/><path class="cls-6" d="M392.08,147.25s3.25-.41,4-2.06V148Z"/><polygon class="cls-3" points="363.63 178.04 369.48 178.04 368.14 175.29 364.79 175.29 363.63 178.04"/><rect class="cls-6" x="392.31" y="148.21" width="7.54" height="0.99" transform="translate(792.17 297.41) rotate(-180)"/><polygon class="cls-3" points="341.24 178.04 347.09 178.04 345.74 175.29 342.4 175.29 341.24 178.04"/><rect class="cls-20" x="389.16" y="136.83" width="12.25" height="41.22" transform="translate(790.57 314.88) rotate(-180)"/><rect class="cls-5" x="327.3" y="173.1" width="55.86" height="0.15" transform="translate(710.45 346.36) rotate(-180)"/><rect class="cls-5" x="327.3" y="171.69" width="55.86" height="0.3" transform="translate(710.45 343.69) rotate(-180)"/><rect class="cls-4" x="346.11" y="150.09" width="18.29" height="27.95" transform="translate(710.5 328.14) rotate(-180)"/><polygon class="cls-6" points="392.88 149.42 399.29 149.42 399.86 149.2 392.31 149.2 392.88 149.42"/><rect class="cls-3" x="349.17" y="153.15" width="11.86" height="24.89" transform="translate(710.19 331.2) rotate(-180)"/><rect class="cls-6" x="392.08" y="147.25" width="8.01" height="0.96" transform="translate(792.17 295.46) rotate(-180)"/><ellipse class="cls-6" cx="396.08" cy="146.46" rx="1.06" ry="1.27"/><rect class="cls-4" x="401.41" y="136.83" width="6.21" height="3.87" transform="translate(809.03 277.53) rotate(-180)"/><rect class="cls-2" x="351.04" y="155.6" width="8.05" height="22.44" transform="translate(710.14 333.65) rotate(-180)"/><rect class="cls-4" x="390.01" y="140.4" width="11.46" height="1.27" transform="translate(791.48 282.07) rotate(-180)"/><rect class="cls-3" x="401.41" y="143.41" width="6.21" height="34.63" transform="translate(809.03 321.46) rotate(-180)"/><rect class="cls-6" x="341.97" y="134.93" width="26.37" height="11.58" transform="translate(710.31 281.44) rotate(-180)"/><rect class="cls-6" x="311.69" y="126.61" width="5.19" height="6.85"/><rect class="cls-4" x="311.24" y="125.47" width="5.99" height="1.14"/><rect class="cls-4" x="311.91" y="124.96" width="4.72" height="0.52"/><polygon class="cls-3" points="341.98 134.93 368.34 134.93 369.56 132.86 340.76 132.86 341.98 134.93"/><polygon class="cls-3" points="341.77 148.58 368.14 148.58 369.36 146.51 340.56 146.51 341.77 148.58"/><rect class="cls-6" x="364.9" y="148.58" width="3.1" height="1.51" transform="translate(732.91 298.67) rotate(-180)"/><rect class="cls-21" x="390.01" y="140.4" width="11.46" height="1.27" transform="translate(791.48 282.07) rotate(-180)"/><rect class="cls-6" x="364.79" y="152.04" width="3.34" height="23.25" transform="translate(732.93 327.32) rotate(-180)"/><rect class="cls-3" x="364.39" y="150.09" width="4.12" height="2.52" transform="translate(732.91 302.71) rotate(-180)"/><rect class="cls-6" x="342.51" y="148.58" width="3.1" height="1.51" transform="translate(688.12 298.67) rotate(-180)"/><rect class="cls-6" x="342.4" y="152.04" width="3.34" height="23.25" transform="translate(688.14 327.32) rotate(-180)"/><rect class="cls-3" x="342" y="150.09" width="4.12" height="2.52" transform="translate(688.12 302.71) rotate(-180)"/><rect class="cls-2" x="389.16" y="135.76" width="3.4" height="1.07" transform="translate(781.73 272.59) rotate(-180)"/><rect class="cls-4" x="389.14" y="136.83" width="3.17" height="2.9" transform="translate(781.46 276.56) rotate(-180)"/><rect class="cls-3" x="389.14" y="140.33" width="4.11" height="0.54" transform="translate(782.4 281.21) rotate(-180)"/><polygon class="cls-3" points="392.31 139.73 389.14 139.73 389.14 140.33 393.25 140.33 392.31 139.73"/><rect class="cls-4" x="389.14" y="140.87" width="2.56" height="1.73" transform="translate(780.84 283.47) rotate(-180)"/><path class="cls-3" d="M392,160.73s0-12.83-.33-18.13h-2.56v18.13Z"/><path class="cls-3" d="M392,161.55a24.52,24.52,0,0,1,.28,6.89h-3.26v-6.89Z"/><rect class="cls-4" x="389.16" y="160.73" width="2.92" height="1.1" transform="translate(781.24 322.56) rotate(-180)"/><rect class="cls-4" x="389.05" y="168.44" width="3.26" height="1.88" transform="translate(781.37 338.76) rotate(-180)"/><polygon class="cls-4" points="392.31 170.32 389.05 170.32 389.05 171.16 393.25 171.16 392.31 170.32"/><rect class="cls-3" x="389.05" y="171.16" width="4.2" height="6.89" transform="translate(782.31 349.21) rotate(-180)"/><polygon class="cls-3" points="401.11 141.41 407.92 141.41 408.29 140.33 400.74 140.33 401.11 141.41"/><rect class="cls-4" x="401.41" y="141.41" width="6.21" height="2" transform="translate(809.03 284.83) rotate(-180)"/><rect class="cls-4" x="301.76" y="127.58" width="18.61" height="4.65"/><rect class="cls-6" x="296.57" y="126.61" width="5.19" height="6.85"/><rect class="cls-10" x="295.6" y="136.83" width="18.46" height="41.22"/><rect class="cls-22" x="301.81" y="136.83" width="12.25" height="41.22"/><polygon class="cls-9" points="293.18 135.19 314.06 135.19 314.06 136.83 295.22 136.83 293.18 135.19"/><rect class="cls-4" x="293.18" y="132.86" width="20.89" height="2.32"/><polygon class="cls-5" points="292.23 132.23 314.06 132.23 314.06 132.86 293.18 132.86 292.23 132.23"/><polygon class="cls-5" points="318.19 134.11 308.3 134.11 310.34 135.76 318.19 135.76 318.19 134.11"/><rect class="cls-5" x="308.3" y="131.79" width="9.89" height="2.32"/><polygon class="cls-5" points="314.08 131.16 307.35 131.16 308.3 131.79 314.08 131.79 314.08 131.16"/><polygon class="cls-5" points="312.38 131.16 319.11 131.16 318.16 131.79 312.38 131.79 312.38 131.16"/><rect class="cls-4" x="296.11" y="125.47" width="5.99" height="1.14"/><rect class="cls-4" x="296.78" y="124.96" width="4.72" height="0.52"/><rect class="cls-6" x="303.93" y="149.42" width="6.41" height="13.29"/><rect class="cls-9" x="305.38" y="151.59" width="3.52" height="8.51"/><path class="cls-6" d="M303.14,147.25s3.25-.41,4-2.06V148Z"/><path class="cls-6" d="M311.15,147.25s-3.25-.41-4-2.06V148Z"/><rect class="cls-6" x="303.37" y="148.21" width="7.54" height="0.99"/><rect class="cls-23" x="301.81" y="136.83" width="12.25" height="41.22"/><polygon class="cls-6" points="310.34 149.42 303.94 149.42 303.37 149.2 310.91 149.2 310.34 149.42"/><rect class="cls-6" x="303.14" y="147.25" width="8.01" height="0.96"/><ellipse class="cls-6" cx="307.14" cy="146.46" rx="1.06" ry="1.27"/><rect class="cls-4" x="295.6" y="136.83" width="6.21" height="3.87"/><rect class="cls-4" x="301.76" y="140.4" width="11.46" height="1.27"/><rect class="cls-3" x="295.6" y="143.41" width="6.21" height="34.63"/><rect class="cls-24" x="301.76" y="140.4" width="11.46" height="1.27"/><rect class="cls-2" x="310.41" y="135.76" width="7.53" height="1.07"/><rect class="cls-4" x="310.67" y="136.83" width="7" height="2.9"/><rect class="cls-3" x="309.97" y="140.33" width="7.96" height="0.54"/><polygon class="cls-3" points="310.91 139.73 317.94 139.73 318.95 140.33 309.98 140.33 310.91 139.73"/><rect class="cls-4" x="311.53" y="140.87" width="5.2" height="1.73"/><polygon class="cls-4" points="317.3 141.74 311.53 141.74 311.53 140.87 317.94 140.87 317.3 141.74"/><polygon class="cls-4" points="310.94 141.74 316.72 141.74 316.72 140.87 310.31 140.87 310.94 141.74"/><path class="cls-3" d="M311.19,160.73s0-12.83.33-18.13h2.56v18.13Z"/><path class="cls-3" d="M311.19,161.55a24.52,24.52,0,0,0-.28,6.89h3.26v-6.89Z"/><path class="cls-3" d="M317.06,160.73s0-12.83-.33-18.13h-2.65v18.13Z"/><path class="cls-3" d="M317.06,161.55a24.52,24.52,0,0,1,.28,6.89h-3.26v-6.89Z"/><rect class="cls-4" x="311.15" y="160.73" width="5.98" height="1.1"/><rect class="cls-4" x="310.91" y="168.44" width="6.42" height="1.88"/><polygon class="cls-4" points="310.91 170.32 314.17 170.32 314.17 171.16 309.97 171.16 310.91 170.32"/><polyline class="cls-4" points="317.31 170.32 314.05 170.32 314.05 171.16 318.25 171.16"/><rect class="cls-3" x="309.97" y="172.97" width="10.39" height="5.08"/><rect class="cls-4" x="309.97" y="171.16" width="8.28" height="1.81" transform="translate(628.22 344.13) rotate(-180)"/><polygon class="cls-3" points="302.11 141.41 295.31 141.41 294.93 140.33 302.49 140.33 302.11 141.41"/><rect class="cls-4" x="295.6" y="141.41" width="6.21" height="2"/><rect class="cls-3" x="364.75" y="138.23" width="2.8" height="6.67" rx="1.4" ry="1.4" transform="translate(732.31 283.14) rotate(-180)"/><rect class="cls-3" x="364.3" y="143.34" width="3.7" height="2.41" transform="translate(732.31 289.09) rotate(-180)"/><ellipse class="cls-3" cx="366.15" cy="137.81" rx="0.48" ry="0.67"/><rect class="cls-3" x="342.75" y="138.23" width="2.8" height="6.67" rx="1.4" ry="1.4" transform="translate(688.3 283.13) rotate(180)"/><rect class="cls-3" x="342.3" y="143.33" width="3.7" height="2.41" transform="translate(688.3 289.08) rotate(-180)"/><ellipse class="cls-3" cx="344.15" cy="137.81" rx="0.48" ry="0.67"/><rect class="cls-2" x="358.67" y="136.85" width="2.23" height="7.73" transform="translate(719.58 281.42) rotate(-180)"/><rect class="cls-2" x="354.13" y="136.85" width="2.23" height="7.73" transform="translate(710.5 281.42) rotate(-180)"/><rect class="cls-2" x="349.59" y="136.85" width="2.23" height="7.73" transform="translate(701.42 281.42) rotate(-180)"/><rect class="cls-3" x="361.21" y="137.06" width="1.41" height="7.41" transform="translate(723.83 281.52) rotate(-180)"/><rect class="cls-4" x="360.91" y="136.13" width="2.02" height="0.44" transform="translate(723.83 272.71) rotate(-180)"/><polygon class="cls-4" points="360.9 136.57 362.92 136.57 362.62 137.06 361.21 137.06 360.9 136.57"/><rect class="cls-4" x="360.91" y="144.85" width="2.02" height="0.44" transform="translate(723.83 290.14) rotate(-180)"/><polygon class="cls-4" points="360.9 144.85 362.92 144.85 362.62 144.37 361.21 144.37 360.9 144.85"/><rect class="cls-3" x="356.81" y="137.06" width="1.41" height="7.41" transform="translate(715.04 281.52) rotate(-180)"/><rect class="cls-4" x="356.51" y="136.13" width="2.02" height="0.44" transform="translate(715.04 272.71) rotate(-180)"/><polygon class="cls-4" points="356.51 136.57 358.53 136.57 358.23 137.06 356.81 137.06 356.51 136.57"/><rect class="cls-4" x="356.51" y="144.85" width="2.02" height="0.44" transform="translate(715.04 290.14) rotate(-180)"/><polygon class="cls-4" points="356.51 144.85 358.53 144.85 358.23 144.37 356.81 144.37 356.51 144.85"/><rect class="cls-3" x="352.27" y="137.06" width="1.41" height="7.41" transform="translate(705.96 281.52) rotate(-180)"/><rect class="cls-4" x="351.97" y="136.13" width="2.02" height="0.44" transform="translate(705.96 272.71) rotate(-180)"/><polygon class="cls-4" points="351.97 136.57 353.99 136.57 353.69 137.06 352.27 137.06 351.97 136.57"/><rect class="cls-4" x="351.97" y="144.85" width="2.02" height="0.44" transform="translate(705.96 290.14) rotate(-180)"/><polygon class="cls-4" points="351.97 144.85 353.99 144.85 353.69 144.37 352.27 144.37 351.97 144.85"/><rect class="cls-3" x="347.88" y="137.06" width="1.41" height="7.41" transform="translate(697.17 281.52) rotate(-180)"/><rect class="cls-4" x="347.58" y="136.13" width="2.02" height="0.44" transform="translate(697.17 272.71) rotate(-180)"/><polygon class="cls-4" points="347.58 136.57 349.6 136.57 349.29 137.06 347.88 137.06 347.58 136.57"/><rect class="cls-4" x="347.58" y="144.85" width="2.02" height="0.44" transform="translate(697.17 290.14) rotate(-180)"/><polygon class="cls-4" points="347.58 144.85 349.6 144.85 349.29 144.37 347.88 144.37 347.58 144.85"/><polygon class="cls-10" points="363.97 146.51 368.34 146.51 368 145.75 364.3 145.75 363.97 146.51"/><polygon class="cls-10" points="341.97 146.51 346.33 146.51 346 145.75 342.3 145.75 341.97 146.51"/><polygon class="cls-4" points="390.72 176.95 382.41 176.95 382.18 177.91 390.96 177.91 390.72 176.95"/><polygon class="cls-4" points="327.92 176.95 319.61 176.95 319.38 177.91 328.16 177.91 327.92 176.95"/><rect class="cls-3" x="382.41" y="173.25" width="8.3" height="3.7" transform="translate(773.13 350.2) rotate(-180)"/><rect class="cls-5" x="382.41" y="173.1" width="8.3" height="0.15" transform="translate(773.13 346.36) rotate(-180)"/><rect class="cls-3" x="382.41" y="172" width="8.3" height="1.11" transform="translate(773.13 345.1) rotate(-180)"/><rect class="cls-5" x="382.41" y="171.69" width="8.3" height="0.3" transform="translate(773.13 343.69) rotate(-180)"/><rect class="cls-4" x="382.54" y="170.44" width="8.06" height="1.26" transform="translate(773.13 342.13) rotate(-180)"/><polygon class="cls-4" points="382.54 170.44 390.6 170.44 389.75 169.18 383.38 169.18 382.54 170.44"/><rect class="cls-4" x="383.38" y="136.85" width="6.36" height="32.34" transform="translate(773.11 306.03) rotate(-180)"/><rect class="cls-5" x="383.38" y="134.93" width="6.36" height="1.91" transform="translate(773.11 271.78) rotate(-180)"/><polygon class="cls-5" points="383.38 134.93 389.74 134.93 390.51 133.17 382.6 133.17 383.38 134.93"/><rect class="cls-3" x="319.63" y="173.25" width="8.3" height="3.7" transform="translate(647.56 350.2) rotate(-180)"/><rect class="cls-9" x="312.18" y="116.37" width="50.83" height="5.17" transform="translate(675.19 237.91) rotate(-180)"/><rect class="cls-5" x="319.63" y="173.1" width="8.3" height="0.15" transform="translate(647.56 346.36) rotate(-180)"/><rect class="cls-4" x="316.27" y="112.92" width="6" height="0.84" transform="translate(638.53 226.68) rotate(-180)"/><rect class="cls-5" x="316.27" y="113.76" width="6" height="2.14" transform="translate(638.53 229.66) rotate(-180)"/><rect class="cls-4" x="316.01" y="115.9" width="6.51" height="1.91" transform="translate(638.53 233.71) rotate(-180)"/><polygon class="cls-4" points="316.27 112.92 322.27 112.92 321.39 112.06 317.14 112.06 316.27 112.92"/><path class="cls-4" d="M317.13,74.49V111.8h4.28V74.49c.27-.14.73-.6,0-.91a8.09,8.09,0,0,0-4.21,0C316.41,73.89,316.87,74.36,317.13,74.49Z"/><rect class="cls-4" x="317.28" y="71.1" width="3.98" height="2.63" transform="translate(638.53 144.82) rotate(-180)"/><rect class="cls-4" x="316.85" y="68.59" width="4.93" height="2.51" transform="translate(638.64 139.68) rotate(-180)"/><rect class="cls-5" x="316.84" y="111.7" width="4.85" height="0.36" rx="0.18" ry="0.18" transform="translate(638.53 223.77) rotate(-180)"/><rect class="cls-5" x="316.18" y="115.01" width="6.17" height="0.89" transform="translate(638.54 230.91) rotate(-180)"/><rect class="cls-3" x="319.63" y="172" width="8.3" height="1.11" transform="translate(647.56 345.1) rotate(-180)"/><rect class="cls-3" x="303.34" y="44.22" width="56.88" height="19.36" transform="translate(663.56 107.8) rotate(-180)"/><rect class="cls-5" x="319.63" y="171.69" width="8.3" height="0.3" transform="translate(647.56 343.69) rotate(-180)"/><rect class="cls-4" x="319.75" y="170.44" width="8.06" height="1.26" transform="translate(647.56 342.13) rotate(-180)"/><polygon class="cls-4" points="319.75 170.44 327.81 170.44 326.96 169.18 320.59 169.18 319.75 170.44"/><rect class="cls-4" x="352.58" y="112.92" width="6" height="0.84" transform="translate(711.15 226.68) rotate(-180)"/><rect class="cls-5" x="352.58" y="113.76" width="6" height="2.14" transform="translate(711.15 229.66) rotate(-180)"/><rect class="cls-4" x="352.32" y="115.9" width="6.51" height="1.91" transform="translate(711.15 233.71) rotate(-180)"/><polygon class="cls-4" points="352.58 112.92 358.58 112.92 357.7 112.06 353.45 112.06 352.58 112.92"/><path class="cls-4" d="M353.44,74.49V111.8h4.28V74.49c.27-.14.73-.6,0-.91a8.09,8.09,0,0,0-4.21,0C352.72,73.89,353.18,74.36,353.44,74.49Z"/><rect class="cls-4" x="353.59" y="71.1" width="3.98" height="2.63" transform="translate(711.15 144.82) rotate(-180)"/><rect class="cls-4" x="353.16" y="68.59" width="4.93" height="2.51" transform="translate(711.26 139.68) rotate(-180)"/><rect class="cls-5" x="353.15" y="111.7" width="4.85" height="0.36" rx="0.18" ry="0.18" transform="translate(711.15 223.77) rotate(-180)"/><rect class="cls-5" x="352.49" y="115.01" width="6.17" height="0.89" transform="translate(711.16 230.91) rotate(-180)"/><rect class="cls-4" x="340.47" y="112.92" width="6" height="0.84" transform="translate(686.95 226.68) rotate(-180)"/><rect class="cls-5" x="340.47" y="113.76" width="6" height="2.14" transform="translate(686.95 229.66) rotate(-180)"/><rect class="cls-4" x="340.22" y="115.9" width="6.51" height="1.91" transform="translate(686.95 233.71) rotate(-180)"/><polygon class="cls-4" points="340.47 112.92 346.48 112.92 345.6 112.06 341.35 112.06 340.47 112.92"/><path class="cls-4" d="M341.34,74.49V111.8h4.28V74.49c.27-.14.73-.6,0-.91a8.09,8.09,0,0,0-4.21,0C340.61,73.89,341.07,74.36,341.34,74.49Z"/><rect class="cls-4" x="341.48" y="71.1" width="3.98" height="2.63" transform="translate(686.95 144.82) rotate(-180)"/><rect class="cls-4" x="341.06" y="68.59" width="4.93" height="2.51" transform="translate(687.05 139.68) rotate(-180)"/><rect class="cls-5" x="341.05" y="111.7" width="4.85" height="0.36" rx="0.18" ry="0.18" transform="translate(686.95 223.77) rotate(-180)"/><rect class="cls-5" x="340.39" y="115.01" width="6.17" height="0.89" transform="translate(686.95 230.91) rotate(-180)"/><rect class="cls-4" x="328.37" y="112.92" width="6" height="0.84" transform="translate(662.74 226.68) rotate(-180)"/><rect class="cls-5" x="328.37" y="113.76" width="6" height="2.14" transform="translate(662.74 229.66) rotate(-180)"/><rect class="cls-4" x="328.11" y="115.9" width="6.51" height="1.91" transform="translate(662.74 233.71) rotate(-180)"/><polygon class="cls-4" points="328.37 112.92 334.37 112.92 333.5 112.06 329.25 112.06 328.37 112.92"/><path class="cls-4" d="M329.24,74.49V111.8h4.28V74.49c.27-.14.73-.6,0-.91a8.09,8.09,0,0,0-4.21,0C328.51,73.89,329,74.36,329.24,74.49Z"/><rect class="cls-4" x="329.38" y="71.1" width="3.98" height="2.63" transform="translate(662.74 144.82) rotate(-180)"/><rect class="cls-4" x="328.96" y="68.59" width="4.93" height="2.51" transform="translate(662.84 139.68) rotate(-180)"/><rect class="cls-5" x="328.94" y="111.7" width="4.85" height="0.36" rx="0.18" ry="0.18" transform="translate(662.74 223.77) rotate(-180)"/><rect class="cls-5" x="328.29" y="115.01" width="6.17" height="0.89" transform="translate(662.74 230.91) rotate(-180)"/><rect class="cls-4" x="320.59" y="136.85" width="6.36" height="32.34" transform="translate(647.54 306.03) rotate(-180)"/><rect class="cls-5" x="320.59" y="134.93" width="6.36" height="1.91" transform="translate(647.54 271.78) rotate(-180)"/><polygon class="cls-5" points="320.59 134.93 326.95 134.93 327.73 133.17 319.81 133.17 320.59 134.93"/><rect class="cls-6" x="320.37" y="129.7" width="69.12" height="0.73" transform="translate(709.85 260.13) rotate(-180)"/><polygon class="cls-5" points="318.24 123.86 391.29 123.86 392.04 123.13 317.48 123.13 318.24 123.86"/><rect class="cls-6" x="320.37" y="125.92" width="69.12" height="0.73" transform="translate(709.85 252.56) rotate(-180)"/><rect class="cls-25" x="320.37" y="126.67" width="68.8" height="3.03" transform="translate(709.53 256.37) rotate(-180)"/><rect class="cls-3" x="318.64" y="123.86" width="72.25" height="2.05" transform="translate(709.53 249.78) rotate(-180)"/><rect class="cls-3" x="320.97" y="119.39" width="67.61" height="3.74" transform="translate(709.56 242.53) rotate(-180)"/><polygon class="cls-3" points="360.07 60.76 360.07 121.49 354.79 121.49 354.79 68.68 319.59 68.68 319.59 121.49 315.19 121.49 315.19 60.76 360.07 60.76"/><rect class="cls-4" x="314.25" y="59.46" width="46.73" height="1.56" transform="translate(675.23 120.48) rotate(-180)"/><path class="cls-5" d="M360.22,55.4s.92,0,1.5-1.8a2.31,2.31,0,0,1,2.47-1.6s-1,.62-.7,2.45a5.74,5.74,0,0,1-.9,3.64Z"/><path class="cls-5" d="M314.53,55.4s-.92,0-1.5-1.8a2.31,2.31,0,0,0-2.47-1.6s1,.62.7,2.45a5.74,5.74,0,0,0,.9,3.64Z"/><polygon class="cls-4" points="365.07 37.16 363.6 40.65 360.22 44.22 331.78 44.22 331.78 37.16 365.07 37.16"/><polygon class="cls-4" points="298.5 37.16 299.96 40.65 303.34 44.22 331.78 44.22 331.78 37.16 298.5 37.16"/><rect class="cls-5" x="335.96" y="41.08" width="3.12" height="8.4" rx="1.56" ry="1.56" transform="translate(675.04 90.57) rotate(180)"/><polygon class="cls-4" points="337.39 46.39 312.18 56.34 312.18 58.1 362.59 58.1 362.59 56.34 337.39 46.39"/><polygon class="cls-4" points="337.39 48.58 312.18 58.1 362.59 58.1 337.39 48.58"/><path class="cls-18" d="M312.18,58.12h50.41l-25.21-9.51Zm45.75-.88H316.85l20.54-7.75Z"/><rect class="cls-4" x="311.96" y="58.1" width="50.86" height="1.36" transform="translate(674.77 117.56) rotate(-180)"/><rect class="cls-3" x="303.15" y="71.1" width="7.92" height="44" transform="translate(614.21 186.19) rotate(-180)"/><rect class="cls-3" x="303.15" y="115.09" width="7.92" height="3.84" transform="translate(614.21 234.02) rotate(-180)"/><rect class="cls-4" x="302.68" y="118.93" width="8.38" height="1.91" transform="translate(613.74 239.76) rotate(-180)"/><rect class="cls-5" x="303.15" y="120.83" width="7.92" height="6.76" transform="translate(614.21 248.43) rotate(-180)"/><rect class="cls-5" x="303.15" y="65.4" width="7.17" height="5.69" transform="translate(613.46 136.5) rotate(-180)"/><rect class="cls-5" x="302.4" y="64.18" width="7.76" height="1.22" transform="translate(612.55 129.59) rotate(-180)"/><polygon class="cls-5" points="310.16 62.68 301.75 62.68 302.4 64.19 310.16 64.19 310.16 62.68"/><rect class="cls-5" x="303.96" y="35.26" width="55.64" height="1.89" transform="translate(663.56 72.42) rotate(-180)"/><polygon class="cls-5" points="303.96 35.27 359.6 35.27 360.38 34.59 360.38 33.91 303.19 33.91 303.19 34.59 303.96 35.27"/><rect class="cls-5" x="308.52" y="33.42" width="46.53" height="1.58" transform="translate(663.56 68.42) rotate(-180)"/><polygon class="cls-5" points="308.52 33.42 355.04 33.42 355.69 32.85 355.69 32.28 307.87 32.28 307.87 32.85 308.52 33.42"/><rect class="cls-5" x="313.65" y="31.64" width="36.26" height="1.23" transform="translate(663.56 64.51) rotate(-180)"/><polygon class="cls-5" points="313.65 31.64 349.91 31.64 350.41 31.19 350.41 30.75 313.15 30.75 313.15 31.19 313.65 31.64"/><rect class="cls-5" x="317.43" y="29.65" width="28.71" height="1.23" transform="translate(663.56 60.53) rotate(-180)"/><polygon class="cls-5" points="317.43 29.65 346.14 29.65 346.54 29.2 346.54 28.76 317.03 28.76 317.03 29.2 317.43 29.65"/><path class="cls-1" d="M210.27,101.24l.35-5.72a13.16,13.16,0,0,0,.63-2.9A13.86,13.86,0,0,0,212.45,89s.14,1.79.91,1.65,2.18-2,1.48-2.69a2,2,0,0,0-1.19-.71s.12-5.27-1-7.17.2-4.43,0-5.27-1.4-3-2.38-3.23a5.32,5.32,0,0,0-2,0,6.91,6.91,0,0,0,.49-2.81,1.45,1.45,0,0,0-1.12-1.41,2.6,2.6,0,0,0,.42-1.62,1.27,1.27,0,0,0-.77-1s-.07-1.77-.55-2.13-.56.47-.45.88.74,1.1.45,1.34-2,.77-2,2.38.36,1.45.82,1.1.14,1.45.47,1.92.6.85.08,1.12-2.22.47-2.41,1.15c-.55.74-2.71,3.86-2.63,4.74s.22,3.67.63,3.7-.25.3-.63,1.53a13.63,13.63,0,0,0-.66,3.94c.08.82-1.7,1-1.51,1.7s1.21,2.41,1.67,2.27,2-4,2-4,.16,2.44-.33,3.29,2,10.66,2,10.66l2.1.21L206,90.78l2.87.36.46,10.1Z"/><rect class="cls-9" x="170.25" y="140.91" width="3.78" height="11.82"/><rect class="cls-9" x="177.05" y="140.91" width="3.78" height="11.82"/><rect class="cls-9" x="183.11" y="140.91" width="3.78" height="11.82"/><rect class="cls-9" x="226.98" y="140.91" width="3.78" height="11.82"/><rect class="cls-9" x="233.79" y="140.91" width="3.78" height="11.82"/><rect class="cls-9" x="239.84" y="140.91" width="3.78" height="11.82"/><rect class="cls-3" x="103.1" y="174.49" width="207.2" height="3.55" transform="translate(413.4 352.54) rotate(-180)"/><path class="cls-5" d="M259,146.64v22.8c-.12,0-.1-.19-.22-.2-39.49-2.62-86.3-.8-103.69,0V146.34c43.12-4.95,86.86-1.48,103.69.26Z"/><path class="cls-4" d="M147.76,151.8v22.69s67.16-4.25,118.22,0V152S205.36,143.9,147.76,151.8Z"/><path class="cls-3" d="M147.76,154.07v22.69s67.16-4.25,118.22,0V154.24S205.36,146.17,147.76,154.07Z"/><path class="cls-4" d="M147.76,165.41v12.29s66.83-4.25,117.88,0V165.58S205.36,157.52,147.76,165.41Z"/><rect class="cls-5" x="196.57" y="150.32" width="19.93" height="25.57"/><rect class="cls-4" x="199.95" y="152.77" width="13.16" height="23.12"/><path class="cls-5" d="M206.58,143.18l-11.08,4.5v.75h22.16v-.75Z"/><rect class="cls-5" x="201.33" y="154.24" width="10.51" height="21.66"/><rect class="cls-3" x="196.13" y="149.54" width="21" height="0.78"/><rect class="cls-3" x="195.5" y="148.43" width="22.16" height="1.11"/><path class="cls-3" d="M206.58,145l-10.25,3.75h20.62Zm0,.8,5.92,2.2H200.79Z"/><polygon class="cls-4" points="200.79 148.01 206.58 145.81 212.5 148.01 200.79 148.01"/><rect class="cls-4" x="103.1" y="168.42" width="5.85" height="0.66"/><rect class="cls-4" x="108.59" y="165.6" width="5.85" height="0.66"/><rect class="cls-4" x="113.09" y="163.02" width="5.85" height="0.66"/><rect class="cls-4" x="135.24" y="156.65" width="5.85" height="0.66"/><rect class="cls-4" x="139.31" y="154.54" width="5.85" height="0.66"/><rect class="cls-4" x="143.46" y="152.17" width="5.85" height="0.66"/><rect class="cls-4" x="117.54" y="158.65" width="18.14" height="0.69"/><rect class="cls-4" x="147.76" y="143.79" width="7.28" height="7.56"/><rect class="cls-3" x="103.1" y="169.08" width="44.66" height="7.68"/><rect class="cls-3" x="108.83" y="166.26" width="38.94" height="2.83"/><rect class="cls-3" x="113.3" y="163.68" width="34.46" height="2.58"/><rect class="cls-3" x="117.71" y="159.35" width="30.05" height="4.34"/><rect class="cls-3" x="135.48" y="157.31" width="12.28" height="3.36"/><rect class="cls-6" x="78.74" y="173.37" width="21.03" height="4.68"/><rect class="cls-3" x="139.56" y="155.2" width="8.2" height="2.11"/><rect class="cls-3" x="143.66" y="152.83" width="4.1" height="2.37"/><rect class="cls-3" x="146.39" y="150.92" width="8.66" height="3.09"/><path class="cls-5" d="M265.41,147.39c-.73-.09-3-.38-6.54-.75v0C262.39,147,264.69,147.28,265.41,147.39Z"/><rect class="cls-6" x="98.5" y="169.44" width="4.6" height="3.93"/><rect class="cls-3" x="97.95" y="173.37" width="5.7" height="1.52"/><polygon class="cls-4" points="103.34 169.51 98.27 169.51 97.78 168.42 103.83 168.42 103.34 169.51"/><rect class="cls-4" x="97.63" y="174.89" width="6.35" height="3.16"/><rect class="cls-5" x="98.5" y="167.56" width="4.6" height="0.86"/><rect class="cls-6" x="74.49" y="172.34" width="4.6" height="3.93"/><rect class="cls-3" x="73.94" y="176.28" width="5.7" height="1.77"/><polygon class="cls-4" points="79.33 172.42 74.27 172.42 73.77 171.33 79.82 171.33 79.33 172.42"/><rect class="cls-5" x="74.49" y="170.46" width="4.6" height="0.86"/><rect class="cls-4" x="304.45" y="168.42" width="5.85" height="0.66" transform="translate(614.74 337.5) rotate(-180)"/><rect class="cls-4" x="298.96" y="165.6" width="5.85" height="0.66" transform="translate(603.77 331.85) rotate(-180)"/><rect class="cls-4" x="294.45" y="163.02" width="5.85" height="0.66" transform="translate(594.76 326.7) rotate(-180)"/><rect class="cls-4" x="272.3" y="156.65" width="5.85" height="0.66" transform="translate(550.46 313.95) rotate(-180)"/><rect class="cls-4" x="268.24" y="154.54" width="5.85" height="0.66" transform="translate(542.33 309.74) rotate(-180)"/><rect class="cls-4" x="264.09" y="152.17" width="5.85" height="0.66" transform="translate(534.02 305) rotate(-180)"/><rect class="cls-4" x="277.72" y="158.65" width="18.14" height="0.69" transform="translate(573.57 318) rotate(-180)"/><rect class="cls-4" x="258.35" y="143.79" width="7.28" height="7.56" transform="translate(523.99 295.15) rotate(-180)"/><rect class="cls-3" x="265.64" y="169.08" width="44.66" height="7.68" transform="translate(575.93 345.84) rotate(-180)"/><rect class="cls-3" x="265.64" y="166.26" width="38.94" height="2.83" transform="translate(570.21 335.34) rotate(-180)"/><rect class="cls-3" x="265.64" y="163.68" width="34.46" height="2.58" transform="translate(565.73 329.94) rotate(-180)"/><rect class="cls-3" x="265.64" y="159.35" width="30.05" height="4.34" transform="translate(561.32 323.03) rotate(-180)"/><rect class="cls-3" x="265.64" y="157.31" width="12.28" height="3.36" transform="translate(543.55 317.97) rotate(-180)"/><rect class="cls-6" x="313.63" y="173.37" width="21.03" height="4.68" transform="translate(648.29 351.41) rotate(-180)"/><rect class="cls-3" x="265.64" y="155.2" width="8.2" height="2.11" transform="translate(539.47 312.51) rotate(-180)"/><rect class="cls-3" x="265.64" y="152.83" width="4.1" height="2.37" transform="translate(535.37 308.03) rotate(-180)"/><rect class="cls-3" x="258.35" y="150.92" width="8.66" height="3.09" transform="translate(525.36 304.94) rotate(-180)"/><rect class="cls-6" x="310.3" y="169.44" width="4.6" height="3.93" transform="translate(625.2 342.81) rotate(-180)"/><rect class="cls-3" x="309.75" y="173.37" width="5.7" height="1.52" transform="translate(625.2 348.26) rotate(-180)"/><polygon class="cls-4" points="310.06 169.51 315.13 169.51 315.62 168.42 309.57 168.42 310.06 169.51"/><rect class="cls-4" x="309.42" y="174.89" width="6.35" height="3.16" transform="translate(625.2 352.94) rotate(-180)"/><rect class="cls-5" x="310.3" y="167.56" width="4.6" height="0.86" transform="translate(625.2 335.98) rotate(-180)"/><rect class="cls-6" x="334.31" y="172.34" width="4.6" height="3.93" transform="translate(673.21 348.62) rotate(-180)"/><rect class="cls-3" x="333.76" y="176.28" width="5.7" height="1.77" transform="translate(673.21 354.32) rotate(-180)"/><polygon class="cls-4" points="334.07 172.42 339.13 172.42 339.62 171.33 333.58 171.33 334.07 172.42"/><rect class="cls-5" x="334.31" y="170.46" width="4.6" height="0.86" transform="translate(673.21 341.79) rotate(-180)"/><rect class="cls-4" x="118.65" y="168.42" width="29.11" height="9.28"/><rect class="cls-4" x="265.64" y="168.42" width="29.11" height="9.28"/><path class="cls-3" d="M197.12,124.47s-1-5.07-.81-5.26.94.15.81-.39-.27-2,.31-2.39.37-.68.37-.68-.44-.22-.44-1.36c.12-.39,1-.34,1-.34v-.82h1.88v-.49s1.42-1,6.71-1,6.46,1.06,6.46,1.06v.35l2.13,0V114a4.48,4.48,0,0,1,1.3.27l-.41.22a14.47,14.47,0,0,1-.2,2c.61.22.83,1.44.75,2.31.7.05.17,1.22.17,1.61s-.75,4.13-.75,4.13Z"/><rect class="cls-5" x="197.12" y="124.47" width="19.29" height="2.24"/><rect class="cls-4" x="196.61" y="125.79" width="20.7" height="2.24"/><path class="cls-5" d="M195.47,131.13s-.74-.95-.58-1.62a8.13,8.13,0,0,1,1.67-2.09v-.62h2s2.55-1.12,8.15-1a32.73,32.73,0,0,1,8.64,1.12h1.87v.62s1.7,1,1.54,2a7.45,7.45,0,0,1-1.08,2.37H195.47Z"/><rect class="cls-7" x="200.77" y="101.53" width="12.16" height="1.39"/><rect class="cls-5" x="199.55" y="102.35" width="14.81" height="4.39" rx="1" ry="1"/><rect class="cls-4" x="193.84" y="131.13" width="26.07" height="8.41"/><rect class="cls-7" x="202.52" y="100.32" width="8.83" height="1.35"/><rect class="cls-5" x="195.47" y="139.54" width="22.59" height="4.93"/><path class="cls-3" d="M202.23,103.38s-1.37.17-.78-.77,2.28-1.71,4.86-1.71h2.25s3,.14,3.75,1.76c.26.4.19.9-.62.72S202.23,103.38,202.23,103.38Z"/><rect class="cls-4" x="198.94" y="124.23" width="15.71" height="2.49"/><path class="cls-4" d="M201,105.72s1.25-.38,1.25-1.42v-.92s-.24-1,4.73-1v4.39Z"/><path class="cls-4" d="M212.93,105.72s-1.25-.38-1.25-1.42v-.92s.24-1-4.73-1v4.39Z"/><path class="cls-4" d="M198.94,124.23a35,35,0,0,1,15.71,0"/><path class="cls-4" d="M196.93,114v-1.5l-.6-1-.39-5h2s2.05-1.28,9.06-1.28v7l-6.71,1h-1.88V114Z"/><path class="cls-4" d="M217,114v-1.5l.6-1,.39-5h-2s-2.05-1.28-9.06-1.28v7l6.71,1h1.88V114Z"/></svg>