<svg id="Layer_1" data-name="Layer 1" xmlns="http://www.w3.org/2000/svg" viewBox="0 0 340 214"><defs><style>.cls-1,.cls-6{fill:#f1e6a0;}.cls-2{fill:#8a0000;}.cls-3{fill:#84e895;}.cls-4,.cls-5{fill:#ebb162;}.cls-5,.cls-6{opacity:0.5;}</style></defs><title>rome</title><rect class="cls-1" x="178.71" y="87.25" width="11.94" height="5.46"/><rect class="cls-2" x="190.65" y="84.77" width="4.37" height="8.52"/><path class="cls-3" d="M5.49,174.53l-.05.19H5.06l-.17,4.86a4.87,4.87,0,0,0-1.45,3.71,6,6,0,0,0,2,3.59V212.6H333.23l4.77-.33-1.47-78.66s-.84-10-13.5-18.74S302.95,101,278.82,94.28c-24.13-5.91-29.14-6.2-29.14-6.2l-.3-.77s-12.06-2.41-24.89-3.56c0,0-4.48-.27-10.74-.47v2.06h-.89V83.27s-4.22-.17-7.14-.17c-.47,0-.9,2.12-.9,2.12v2.63s.17,1.79-.18,2A4.17,4.17,0,0,0,203.8,92c-1.22,0-20.77.2-20.77.2s-17.53.61-22.19,1.17C159,90.24,152.78,80,151.31,78.34a13.21,13.21,0,0,0-1.84.16l-1.25-1.41-8.15,1-.1.2-.4,0v.36l.68.91-10.59,1.55-6.95-19,.68-.63s-3.71-3.49-4.78-4.37c.08-.41.15-1.64.15-1.64V55l2-.45v-3l-1.53-1.19-.23-.53.87-.15v-.56l0-.2.18-.64-.14-.2V46.32l-.5-.67-.19-8.58H119V36.2a58,58,0,0,0-4.84-5.15c-.73.14-2,.53-2,.53l-.74-.66L106.82,32,93.36,10.54,88,6.83l-2.12-.28a3,3,0,0,0-.38-1.67A50.92,50.92,0,0,0,78,.84c-.67.17-3.49,1.52-3.49,1.52a3.7,3.7,0,0,0-.74.86c-.43.14-4.3,1.88-4.3,1.88s-14,6.84-21.57,12.11S28.34,32.9,21.75,40.81,11.38,55.46,8.56,64.62,5.74,77.07,6.12,78.53a4.71,4.71,0,0,0,2,0S5.36,92.06,7.72,104c-2.36,6.63-4.22,14.11-.82,22.35C6.9,133.58,7,138,7,138s-2.87,3.13-3.92,9.86c-.33,2.68,2.43,8.69,2.43,8.69Zm283.82-70.4-.36,1,.2,6.11-1.82-.61-.16-7.13Zm-22.37,16.53s3.59,1.62,4.09,3.52c-.43.54-.19,1.3-.37,1.58s-.8.74-1,1.39,0,1-.17,1.15a3.3,3.3,0,0,1-2.35,1.21S265.49,126.62,266.94,120.66ZM248.62,94.28l5.36.89v8.21l-5.36-1.06ZM192.3,135.39c1-2.58,4.59-5.09,10.22-4.87s8.44,5.3,8.44,5.3l-1.68,8.5h-17Zm-18.77-4.47a10.56,10.56,0,0,1,4-.33c2.12.26,3.77,3.13,3.77,3.13l.22,6.16-8,0ZM90.4,75.4s.52-7.53,6.77-10.14c6-2.53,5.75.48,5.75.48V86.23L90.4,89.81ZM67.12,84.49s.3-5.76,2.5-8a7.25,7.25,0,0,1,4.2-2.33,12.06,12.06,0,0,1,.49,3.1V95.17l-7.91,3.09ZM49.29,93.61s.31-6.64,2.68-8v17.88l-2.68,1.27Z"/><path class="cls-4" d="M174.26,139.86v-8.94a8.14,8.14,0,0,1,3.63-.33c2.11.26,3.59,3.13,3.59,3.13l-.32-6.35s.71-9.29-10.07-8.71c-6.88,0-8.54,8.36-8.54,8.36v12.84l19.65,0Z"/><polygon class="cls-1" points="165.4 140.76 152.73 141.31 152.24 141.09 152.08 125.56 152.08 116.87 152.47 112.57 154.52 109.18 165.4 140.76"/><path class="cls-1" d="M8.11,78.55s9.52-25.11,26.4-39.28,26.43-20.53,44.13-28l1.87-.59,5.38-4.17s.21-1.34-.64-1.87S79.74,1.25,78,.84a17.86,17.86,0,0,0-3.5,1.52s-.64.47-.74.86c-.42.17-4.3,1.88-4.3,1.88s-14.23,7-21.57,12.11A142.24,142.24,0,0,0,33.83,28.58,163.59,163.59,0,0,0,21.75,40.8a73.77,73.77,0,0,0-9.62,14.57,54.18,54.18,0,0,0-4.39,12c-1.1,4.36-2.17,7.91-1.61,11.14C6.45,79.41,8.11,78.55,8.11,78.55Z"/><path class="cls-5" d="M90.76,75.4s.34-7.53,6.59-10.14c3.88-1.63,5.05-1,5.46-.28-.54-2.81-2.44-6.8-9.25-5.27C83.37,62,83.44,72.17,83.44,72.17V91.59l7.32-2Z"/><polygon class="cls-1" points="49.75 40.65 49.75 49.58 43.89 52.65 43.89 44.02 49.75 40.65"/><polygon class="cls-1" points="22.55 64.42 23.07 71.87 20.98 74.55 20.53 67.23 22.55 64.42"/><path class="cls-4" d="M18,125.15l5.37-5.22V105s.62-6.58-3.11-4.3c-1.93,1.24-2,9.53-2,9.53Z"/><path class="cls-4" d="M27.53,117.19l7.57-4.88V95.17s-.52-6.86-3.59-3.95-4.19,5.38-4.35,10.49-.1,15.88-.1,15.88Z"/><path class="cls-4" d="M13.13,130V116.62s.2-5.67,1.52-7.42,1.4,0,1.4,0v17.25Z"/><path class="cls-4" d="M114.2,145.1l23.44-2.75V117.52s1.1-9.42-11-10.2c-11.76,0-12.47,12.85-12.47,12.85Z"/><path class="cls-4" d="M101.71,146.28,82,149.6V126.45s.26-9.87,7.5-12c10.82-3,12.17,6.46,12.24,7.87S101.71,146.28,101.71,146.28Z"/><path class="cls-4" d="M58.54,154.87l13.18-3.29V129.14s1.4-9.09-6.59-7.94-6.59,13.2-6.59,13.2Z"/><path class="cls-4" d="M38.74,160.2,50,156.68V136.29s.06-9.75-6.26-7.16c-4.07,1.7-5,11.71-5,11.71Z"/><path class="cls-4" d="M25.53,164.37l8.29-2.67V142.54s-.93-9.8-4.59-6.57-3.69,11-3.69,11Z"/><path class="cls-4" d="M16.22,168.05l5.22-2L22,147.92s.3-8-2.9-6.24-2.9,11.84-2.9,11.84Z"/><path class="cls-4" d="M10.2,171.33l3-2.43.49-15.63s-.36-6.95-1.19-6.38-2.31,4.21-2.31,10Z"/><polygon class="cls-2" points="154.51 109.14 165.4 140.82 167.28 140.82 157.74 113.6 158.61 112.72 155.21 108.03 154.51 109.14"/><path class="cls-2" d="M151.84,141.31h.89l-.22-23.41s1.86-1.37,1.84-2h-1.9s0-4,1.9-5.93l-.25-.27,1.4-1.32-.28-.39a10.19,10.19,0,0,0-3.52,7.64C151.63,120.65,151.84,141.31,151.84,141.31Z"/><polygon class="cls-2" points="117.75 57.72 126.5 81.78 129.66 81.15 122.71 62.12 123.39 61.49 120.9 59.17 119.65 58.03 119.14 57.58 118.61 57.12 117.75 56.79 117.75 57.72"/><polygon class="cls-2" points="88.01 6.83 104.27 32.77 106.83 32.03 93.36 10.54 88.01 6.83"/><path class="cls-2" d="M114.17,31.05,113.94,54l3.81,2.81.86.33,0-.27,0-.27,0-.52,0-.57V55l2-.45v-3l-1.53-1.19-.13-.53,1-.16v-.56l-.19-.19.13-.64-.14-.2V46.79l.13,0v-.43l-.56-.79-.25-8.69h.18V36.2A62.47,62.47,0,0,0,114.17,31.05Z"/><polygon class="cls-1" points="111.86 37.96 111.86 33.49 112.05 32.65 112.21 31.58 111.46 30.92 111.11 31 111.11 38.2 111.86 37.96"/><path class="cls-4" d="M178.9,212.6V185.94a13.41,13.41,0,1,0-26.82,0V212.6Z"/><path class="cls-4" d="M218.55,212.6V189a11.16,11.16,0,0,0-3.82-8.2,13.57,13.57,0,0,0-9.09-3.41c-7,0-12.81,5.22-12.81,11.61v23.6Z"/><path class="cls-4" d="M250,212.6V189a12.47,12.47,0,0,0-3.05-8.2,9.71,9.71,0,0,0-7.26-3.41c-5.61,0-10.24,5.22-10.24,11.61v23.6Z"/><path class="cls-4" d="M267.45,163.67V143.52c0-4.77,2.78-8.67,6.15-8.67a5.46,5.46,0,0,1,4.36,2.55,10.72,10.72,0,0,1,1.83,6.12v21.29Z"/><path class="cls-4" d="M284.76,165.64V144.83c0-4.53,2.43-8.23,5.39-8.23A4.72,4.72,0,0,1,294,139a10.78,10.78,0,0,1,1.61,5.81v22.22Z"/><path class="cls-4" d="M299.88,165V147.65c0-3.78,1.82-6.87,4-6.87a3.52,3.52,0,0,1,2.86,2,9.79,9.79,0,0,1,1.2,4.85v18.56Z"/><path class="cls-4" d="M311.43,166V150.23c0-3.43,1.62-6.23,3.58-6.23a3.13,3.13,0,0,1,2.54,1.83,9,9,0,0,1,1.07,4.4v16.83Z"/><path class="cls-4" d="M321.63,174.57V156.72c0-3.88,0-7.21,1.79-7.05.49,0,.95.79,1.27,2.07a21.24,21.24,0,0,1,.53,5v18.17Z"/><path class="cls-4" d="M327.89,175.47V158.4c0-3.71,0-6.9,1.26-6.75.34,0,.67.76.89,2a27.33,27.33,0,0,1,.38,4.77v17.38Z"/><path class="cls-4" d="M332.63,174.9V160.51c0-3.13,0-5.82,1-5.69.29,0,.55.64.74,1.67a23.41,23.41,0,0,1,.31,4v14.66Z"/><path class="cls-4" d="M309.42,212.6v-18.4a14.91,14.91,0,0,0-1.11-5.88c-.67-1.51-1.53-2.44-2.63-2.44-2.44,0-3.71,3.74-3.71,8.32v18.4Z"/><path class="cls-4" d="M319.2,212.6V195a15.51,15.51,0,0,0-1-5.63c-.58-1.45-1.33-2.34-2.3-2.34-2.13,0-3.24,3.58-3.24,8V212.6Z"/><path class="cls-4" d="M324.2,212.6l1.91-.11V195.41a21.3,21.3,0,0,0-.63-5.39c-.38-1.39-.87-2.24-1.49-2.24-1.38,0-2.1,3.43-2.1,7.63V212.6Z"/><path class="cls-4" d="M328.31,212.27V196.13c0-3.91.56-7.11,1.63-7.11.48,0,.86.8,1.15,2.09a23.64,23.64,0,0,1,.49,5V212Z"/><path class="cls-4" d="M332.88,211.88V196.61c0-3.7,0-6.73,1.19-6.73.35,0,.63.76.84,2a28.77,28.77,0,0,1,.35,4.75v15.05Z"/><path class="cls-4" d="M294.69,212.6V193a14.61,14.61,0,0,0-1.41-6.5c-.86-1.67-2.06-2.7-3.36-2.7-4.47,0-4.74,4.14-4.74,9.21V212.6Z"/><path class="cls-4" d="M138.62,212.6V186.48a13.64,13.64,0,0,0-3.71-9.31,12.16,12.16,0,0,0-8.83-3.87c-6.82,0-12.45,5.93-12.45,13.19V212.6Z"/><path class="cls-4" d="M102.41,212.6V188.76a14.27,14.27,0,0,0-3-8.89,9.34,9.34,0,0,0-7.21-3.7c-5.57,0-10.17,5.66-10.17,12.59V212.6Z"/><path class="cls-4" d="M73.27,212.6V190.15a15.84,15.84,0,0,0-2.15-8.2c-1.3-2.11-3.14-3.41-5.11-3.41-3.95,0-7.2,5.22-7.2,11.61V212.6Z"/><path class="cls-4" d="M50.73,212.6V192.26a14.65,14.65,0,0,0-1.8-7.26c-1.09-1.87-2.63-3-4.28-3-3.31,0-6,4.62-6,10.29V212.6Z"/><path class="cls-4" d="M33.79,212.6V193.82a16.46,16.46,0,0,0-1.23-6.51c-.75-1.67-1.8-2.71-2.92-2.71-2.26,0-4.12,4.14-4.12,9.21V212.6Z"/><path class="cls-4" d="M21.53,212.6V195a18.82,18.82,0,0,0-.36-5.13c-.41-1.57-1.27-3-1.89-3C18,186.8,17,190.22,17,195V212.6Z"/><path class="cls-1" d="M194.09,212.6h14.3l-.12-3.41-13.14-29.26c-1.12,2.64-1,8.21-1,8.21Z"/><path class="cls-1" d="M194.26,212.6l.87-32.68a9.86,9.86,0,0,1,2.19-3,4.1,4.1,0,0,1,.46-1.91l-4.4-4.9a21,21,0,0,0-4.24,12.14c0,6,.36,25.23.45,30.34Z"/><polygon class="cls-1" points="248.62 94.28 248.62 92.49 255.83 93.77 255.83 103.7 253.98 103.38 253.98 95.17 248.62 94.28"/><path class="cls-4" d="M237.24,147v-8.94s.86-7.49-3.69-9.31c-5.46-2-2,7.77-2,7.77l.56,9.65Z"/><polygon class="cls-1" points="287.16 103.49 287.16 101.7 287.16 101 291.1 103.16 291.31 111.79 289.14 111.22 288.94 105.11 289.31 104.14 287.16 103.49"/><path class="cls-1" d="M230,120.76l10,30.13-11.12-.55-.37-19.75S227.78,122.45,230,120.76Z"/><path class="cls-4" d="M245.73,151.29l15,1V139.86s.11-7.55-4.39-9-7.33.3-8.1,1.72a15.9,15.9,0,0,0-2.07,7.22C246.06,143,245.73,151.29,245.73,151.29Z"/><path class="cls-6" d="M266.94,120.67a8.31,8.31,0,0,0-.36,1.46c0,.42-.11.91-.13,1.36A21.16,21.16,0,0,1,266.94,120.67Z"/><path class="cls-6" d="M275.25,116.54c-3.55-1.54-7.35,1.9-7.35,1.9a21.54,21.54,0,0,0-.88,2.23s3.54,1.62,4,3.52c-.43.54-.22,1.3-.39,1.58s-.81.74-1,1.39,0,1-.18,1.15a2.33,2.33,0,0,1-2,1.21l12.2,2.72V122A8.52,8.52,0,0,0,275.25,116.54Z"/><path class="cls-5" d="M67.12,84.49s.3-5.76,2.5-8a7.25,7.25,0,0,1,4.2-2.33v0c-.73-2.75-2.44-6.06-7.17-4.05-7.52,3.2-8.14,11.76-8.14,11.76v19.48l8-3.18Z"/><path class="cls-5" d="M74.31,77.25v0Z"/><path class="cls-4" d="M49.75,94.28s0-5.89,1.46-7.75v-.3s-.29-8.64-6.49-5c-4.57,2.9-5.23,12.26-5.23,12.26v15.79l10.25-4.61Z"/><path class="cls-4" d="M202.29,130.53c5.63.22,8.56,5.74,8.56,5.74l-1.57,8.94H198.1l19.6-.42-.59-16.43s.33-12.14-13.63-11.4c-8.92,0-11.64,10.72-11.64,10.72v7.71C193.3,132.81,196.66,130.31,202.29,130.53Z"/><path class="cls-1" d="M126.5,81.78l-12,2V64.78s.73-7,3.21-8Z"/><path class="cls-1" d="M268.57,212.6,261.18,184s-1.64,1.59-1.68,5.25c0,2.7.57,16.41.89,23.39Z"/><path class="cls-1" d="M260.58,212.6c0-8.44.11-27.1.5-28.35a3.31,3.31,0,0,1,1.71-2.11l-4.33-6.23-1.59-1.59.71,38.28Z"/><path class="cls-1" d="M111.86,38s-32.4,9-59.89,23.4c-20.89,11-37.41,31.09-39.17,33.28a4.25,4.25,0,0,0-.29.41,74.9,74.9,0,0,0-4.79,9c-2.66,6.08-4.64,15.25-.82,22.35,0,0-3-12,5.74-25.58C16.45,94.91,23.08,88,29.56,82.18,37.64,75,44.66,70,56.88,63.81s30.59-15.36,54.78-20.68Z"/><path class="cls-1" d="M149.35,83.83S99.19,88.16,60.88,104s-54.3,34-54.3,34-8,8.83-1.29,18.55A15.72,15.72,0,0,1,9.4,139.89a143.69,143.69,0,0,1,34.9-24.51c14.42-7.09,31.47-14.3,66.74-20.24S149.35,89,149.35,89Z"/></svg>