<svg id="Layer_1" data-name="Layer 1" xmlns="http://www.w3.org/2000/svg" viewBox="0 0 358 327"><defs><style>.cls-1{fill:#9a2424;}.cls-2{fill:#8a0000;}.cls-3{fill:#f3eaae;}.cls-4{fill:#f1c891;}.cls-5{fill:#ebb162;}.cls-6{fill:#f7e1c3;}.cls-7{fill:#f1e6a0;}.cls-8{fill:#ad4d4d;}.cls-9{fill:#a8efb4;}.cls-10{fill:#99eca7;}.cls-11{fill:#84e895;}</style></defs><title>rome</title><rect class="cls-1" x="48.82" y="170.83" width="260.36" height="148.22"/><rect class="cls-1" x="21.39" y="109.19" width="315.22" height="39.41"/><rect class="cls-2" x="15.22" y="315.34" width="321.72" height="6.5"/><rect class="cls-2" x="10.42" y="319.01" width="331.32" height="6.5"/><ellipse class="cls-3" cx="179" cy="83.36" rx="78.73" ry="30.64"/><polygon class="cls-1" points="299.61 93.13 58.39 93.13 49.25 82.45 308.75 82.45 299.61 93.13"/><rect class="cls-3" x="58.39" y="93.13" width="241.21" height="42.1"/><polygon class="cls-4" points="179 65.43 355.85 146.47 2.15 146.47 179 65.43"/><polygon class="cls-5" points="179 71.91 342.89 146.47 15.11 146.47 179 71.91"/><polygon class="cls-6" points="179 82.45 323.82 146.47 34.18 146.47 179 82.45"/><polygon class="cls-3" points="338.93 157.06 19.07 157.06 2.15 146.47 355.85 146.47 338.93 157.06"/><rect class="cls-5" x="19.09" y="157.06" width="319.91" height="18.41"/><rect class="cls-7" x="316.34" y="175.47" width="14.01" height="134.31"/><polygon class="cls-3" points="330.35 194.5 316.34 194.5 314.5 175.47 332.18 175.47 330.35 194.5"/><rect class="cls-3" x="315.99" y="309.77" width="14.71" height="5.57"/><rect class="cls-3" x="315.49" y="315.34" width="15.71" height="3.71"/><rect class="cls-7" x="275.1" y="175.47" width="14.01" height="134.31"/><polygon class="cls-3" points="289.11 194.5 275.1 194.5 273.25 175.47 290.94 175.47 289.11 194.5"/><rect class="cls-3" x="274.75" y="309.77" width="14.71" height="5.57"/><rect class="cls-3" x="274.25" y="315.34" width="15.71" height="3.71"/><rect class="cls-7" x="233.86" y="175.47" width="14.01" height="134.31"/><polygon class="cls-3" points="247.87 194.5 233.86 194.5 232.02 175.47 249.7 175.47 247.87 194.5"/><rect class="cls-3" x="233.51" y="309.77" width="14.71" height="5.57"/><rect class="cls-3" x="233.01" y="315.34" width="15.71" height="3.71"/><rect class="cls-7" x="192.62" y="175.47" width="14.01" height="134.31"/><polygon class="cls-3" points="206.63 194.5 192.62 194.5 190.78 175.47 208.46 175.47 206.63 194.5"/><rect class="cls-3" x="192.27" y="309.77" width="14.71" height="5.57"/><rect class="cls-3" x="191.77" y="315.34" width="15.71" height="3.71"/><rect class="cls-7" x="151.38" y="175.47" width="14.01" height="134.31"/><polygon class="cls-3" points="165.39 194.5 151.38 194.5 149.54 175.47 167.22 175.47 165.39 194.5"/><rect class="cls-3" x="151.03" y="309.77" width="14.71" height="5.57"/><rect class="cls-3" x="150.53" y="315.34" width="15.71" height="3.71"/><rect class="cls-7" x="110.14" y="175.47" width="14.01" height="134.31"/><polygon class="cls-3" points="124.15 194.5 110.14 194.5 108.3 175.47 125.98 175.47 124.15 194.5"/><rect class="cls-3" x="109.79" y="309.77" width="14.71" height="5.57"/><rect class="cls-3" x="109.29" y="315.34" width="15.71" height="3.71"/><rect class="cls-7" x="68.9" y="175.47" width="14.01" height="134.31"/><polygon class="cls-3" points="82.92 194.5 68.9 194.5 67.06 175.47 84.75 175.47 82.92 194.5"/><rect class="cls-3" x="68.55" y="309.77" width="14.71" height="5.57"/><rect class="cls-3" x="68.05" y="315.34" width="15.71" height="3.71"/><rect class="cls-7" x="27.66" y="175.47" width="14.01" height="134.31"/><polygon class="cls-3" points="41.67 194.5 27.66 194.5 25.82 175.47 43.51 175.47 41.67 194.5"/><rect class="cls-3" x="27.31" y="309.77" width="14.71" height="5.57"/><rect class="cls-3" x="26.81" y="315.34" width="15.71" height="3.71"/><polygon class="cls-1" points="15.21 109.19 21.39 109.19 21.39 118.89 15.21 109.19"/><polygon class="cls-1" points="342.81 109.19 336.63 109.19 336.63 118.89 342.81 109.19"/><rect class="cls-8" x="164.64" y="171.94" width="19.32" height="14.49"/><rect class="cls-5" x="161.28" y="186.43" width="26.05" height="7.2"/><rect class="cls-8" x="156.4" y="201.02" width="35.8" height="6.16"/><polygon class="cls-8" points="192.2 201.02 156.4 201.02 161.28 193.63 187.32 193.63 192.2 201.02"/><path class="cls-5" d="M96.43,276v-5.59s-2.85-.26-1.74-6,12.88-7.3,13.68.63c-.32,2.66-3.48,1.25-1.4,10.84"/><path class="cls-5" d="M254.15,276v-5.59s3.33-.26,2.22-6-12.64-7.3-13.44.63c.32,2.66,3.12,1.25,1,10.84"/><ellipse class="cls-2" cx="174.06" cy="208.66" rx="26.27" ry="2.33"/><rect class="cls-2" x="152.27" y="208.66" width="43.64" height="44.74"/><path class="cls-5" d="M77.08,283H280.92a3.63,3.63,0,0,1,3.63,3.63v11.48a10.13,10.13,0,0,1-10.13,10.13H83.58a10.13,10.13,0,0,1-10.13-10.13V286.66A3.63,3.63,0,0,1,77.08,283Z"/><path class="cls-2" d="M275.51,275.81h-193c-5,0-9.06,3.59-9.06,8V287H85.86v2.29H266v-2.31h18.56v-3.16C284.55,279.4,280.48,275.81,275.51,275.81Z"/><path class="cls-8" d="M275.51,275.81h-193a9.63,9.63,0,0,0-6.5,2.44.9.9,0,0,0,.6,1.57h9V281h45a2.12,2.12,0,0,0,2.12,2.12h84.12a1.45,1.45,0,0,0,1.45-1.45h42.63v-1.13h21.24a.91.91,0,0,0,.71-1.47A9.46,9.46,0,0,0,275.51,275.81Z"/><path class="cls-8" d="M272.7,304.91,179,304.23h-1.83l-93.61.69S77,311.43,77,318.12c3.56,1.31,15.74,2,15.74,2v3.53h44.17s.29,1.83,14.24,1.83h54c13.95,0,14.24-1.83,14.24-1.83h45.74v-3.53s11.33-.71,14.89-2C280,311.43,272.7,304.91,272.7,304.91Z"/><path class="cls-8" d="M216.49,283.16v-8.9a24.78,24.78,0,0,0-24.71-24.71H156.4a24.78,24.78,0,0,0-24.71,24.71v8.9Z"/><rect class="cls-2" x="164.64" y="152.54" width="19.32" height="19.41"/><rect class="cls-9" x="156.4" y="201.82" width="35.8" height="1.13"/><polygon class="cls-9" points="168.25 26.45 180.34 26.45 183.96 152.54 164.64 152.54 168.25 26.45"/><polygon class="cls-10" points="170.96 15.96 177.63 15.96 180.34 26.45 168.25 26.45 170.96 15.96"/><rect class="cls-11" x="170.96" y="2.23" width="6.67" height="13.73"/><rect class="cls-11" x="168.44" y="4.92" width="11.62" height="1.86"/></svg>