<svg id="Layer_1" data-name="Layer 1" xmlns="http://www.w3.org/2000/svg" xmlns:xlink="http://www.w3.org/1999/xlink" viewBox="0 0 422 206"><defs><style>.cls-1,.cls-20{fill:#ebb162;}.cls-2{fill:#ad4d4d;}.cls-3{fill:#f3eaae;}.cls-4{fill:url(#linear-gradient);}.cls-5{fill:#8a0000;}.cls-6{fill:url(#linear-gradient-2);}.cls-7{fill:url(#linear-gradient-3);}.cls-8{fill:url(#linear-gradient-4);}.cls-9{fill:url(#linear-gradient-5);}.cls-10{fill:#f1e6a0;}.cls-11{fill:#84e895;}.cls-12{fill:url(#linear-gradient-6);}.cls-13{fill:url(#linear-gradient-7);}.cls-14{fill:url(#linear-gradient-8);}.cls-15{fill:url(#linear-gradient-9);}.cls-16{fill:#95eba4;}.cls-17{fill:url(#linear-gradient-10);}.cls-18{fill:url(#linear-gradient-11);}.cls-19{fill:url(#linear-gradient-12);}.cls-20{opacity:0.75;}.cls-21{fill:url(#linear-gradient-13);}.cls-22{fill:url(#linear-gradient-14);}.cls-23{fill:url(#linear-gradient-15);}.cls-24{fill:url(#linear-gradient-16);}.cls-25{fill:url(#linear-gradient-17);}.cls-26{fill:url(#linear-gradient-18);}.cls-27{fill:url(#linear-gradient-19);}.cls-28{fill:url(#linear-gradient-20);}.cls-29{fill:url(#linear-gradient-21);}.cls-30{fill:url(#linear-gradient-22);}.cls-31{fill:url(#linear-gradient-23);}.cls-32{fill:url(#linear-gradient-24);}.cls-33{fill:url(#linear-gradient-25);}.cls-34{fill:url(#linear-gradient-26);}.cls-35{fill:url(#linear-gradient-27);}.cls-36{fill:url(#linear-gradient-28);}.cls-37{fill:url(#linear-gradient-29);}.cls-38{fill:url(#linear-gradient-30);}.cls-39{fill:url(#linear-gradient-31);}.cls-40{fill:url(#linear-gradient-32);}.cls-41{fill:url(#linear-gradient-33);}</style><linearGradient id="linear-gradient" x1="-154.08" y1="58.05" x2="-156.9" y2="57.56" gradientTransform="matrix(-1, 0, 0, 1, 51.97, 0)" gradientUnits="userSpaceOnUse"><stop offset="0" stop-color="#ad4d4d" stop-opacity="0"/><stop offset="0.14" stop-color="#ab4a4a" stop-opacity="0.04"/><stop offset="0.32" stop-color="#a74040" stop-opacity="0.17"/><stop offset="0.53" stop-color="#a03030" stop-opacity="0.37"/><stop offset="0.77" stop-color="#961a1a" stop-opacity="0.66"/><stop offset="1" stop-color="#8a0000"/></linearGradient><linearGradient id="linear-gradient-2" x1="-127.12" y1="58.05" x2="-129.93" y2="57.56" xlink:href="#linear-gradient"/><linearGradient id="linear-gradient-3" x1="-99.28" y1="58.05" x2="-102.1" y2="57.56" xlink:href="#linear-gradient"/><linearGradient id="linear-gradient-4" x1="-209.75" y1="58.05" x2="-212.56" y2="57.56" xlink:href="#linear-gradient"/><linearGradient id="linear-gradient-5" x1="-181.92" y1="58.05" x2="-184.73" y2="57.56" xlink:href="#linear-gradient"/><linearGradient id="linear-gradient-6" x1="-252.79" y1="92.92" x2="-252.79" y2="86.19" gradientTransform="matrix(1, 0, 0, -1, 393.96, 179.12)" gradientUnits="userSpaceOnUse"><stop offset="0.32" stop-color="#f1e6a0" stop-opacity="0"/><stop offset="0.47" stop-color="#f0e6a0" stop-opacity="0.01"/><stop offset="0.56" stop-color="#ede6a0" stop-opacity="0.05"/><stop offset="0.64" stop-color="#e7e7a0" stop-opacity="0.11"/><stop offset="0.71" stop-color="#dee7a1" stop-opacity="0.2"/><stop offset="0.78" stop-color="#d4e8a1" stop-opacity="0.32"/><stop offset="0.84" stop-color="#c6e8a2" stop-opacity="0.46"/><stop offset="0.9" stop-color="#b7e9a3" stop-opacity="0.63"/><stop offset="0.96" stop-color="#a5eaa3" stop-opacity="0.82"/><stop offset="1" stop-color="#95eba4"/></linearGradient><linearGradient id="linear-gradient-7" x1="-254.12" y1="95.75" x2="-260.39" y2="92.13" gradientTransform="matrix(-1, 0, 0, 1, -111.61, 0)" gradientUnits="userSpaceOnUse"><stop offset="0" stop-color="#8a0000" stop-opacity="0"/><stop offset="0.42" stop-color="#b76547" stop-opacity="0.44"/><stop offset="0.82" stop-color="#e1c287" stop-opacity="0.84"/><stop offset="1" stop-color="#f1e6a0"/></linearGradient><linearGradient id="linear-gradient-8" x1="281.61" y1="93.08" x2="281.61" y2="86.35" gradientTransform="matrix(1, 0, 0, 1, 0, 0)" xlink:href="#linear-gradient-6"/><linearGradient id="linear-gradient-9" x1="280.28" y1="95.9" x2="274" y2="92.28" gradientTransform="matrix(1, 0, 0, 1, 0, 0)" xlink:href="#linear-gradient-7"/><linearGradient id="linear-gradient-10" x1="416.02" y1="191.49" x2="416.02" y2="201.39" gradientUnits="userSpaceOnUse"><stop offset="0.48" stop-color="#ebb162" stop-opacity="0"/><stop offset="1" stop-color="#8a0000"/></linearGradient><linearGradient id="linear-gradient-11" x1="-214.97" y1="-1325.45" x2="-214.97" y2="-1315.54" gradientTransform="translate(630.99 1516.94)" gradientUnits="userSpaceOnUse"><stop offset="0.69" stop-color="#ebb162" stop-opacity="0"/><stop offset="0.8" stop-color="#e9ae60" stop-opacity="0.02"/><stop offset="0.85" stop-color="#e4a55b" stop-opacity="0.07"/><stop offset="0.88" stop-color="#db9452" stop-opacity="0.16"/><stop offset="0.92" stop-color="#ce7d45" stop-opacity="0.3"/><stop offset="0.95" stop-color="#be5e34" stop-opacity="0.47"/><stop offset="0.97" stop-color="#a9381f" stop-opacity="0.68"/><stop offset="0.99" stop-color="#910d07" stop-opacity="0.93"/><stop offset="1" stop-color="#8a0000"/></linearGradient><linearGradient id="linear-gradient-12" x1="-214.97" y1="-1296.48" x2="-214.97" y2="-1286.58" gradientTransform="translate(630.99 1459.01)" gradientUnits="userSpaceOnUse"><stop offset="0" stop-color="#ebb162" stop-opacity="0"/><stop offset="0.21" stop-color="#e9ad60" stop-opacity="0.02"/><stop offset="0.37" stop-color="#e2a058" stop-opacity="0.1"/><stop offset="0.53" stop-color="#d68a4c" stop-opacity="0.22"/><stop offset="0.68" stop-color="#c56b3b" stop-opacity="0.4"/><stop offset="0.82" stop-color="#af4325" stop-opacity="0.62"/><stop offset="0.95" stop-color="#94130a" stop-opacity="0.89"/><stop offset="1" stop-color="#8a0000"/></linearGradient><linearGradient id="linear-gradient-13" x1="416.02" y1="201.39" x2="416.02" y2="203.13" gradientUnits="userSpaceOnUse"><stop offset="0.48" stop-color="#ad4d4d" stop-opacity="0"/><stop offset="1" stop-color="#8a0000"/></linearGradient><linearGradient id="linear-gradient-14" x1="376.88" y1="191.49" x2="376.88" y2="201.39" xlink:href="#linear-gradient-10"/><linearGradient id="linear-gradient-15" x1="-175.82" y1="-1325.45" x2="-175.82" y2="-1315.54" gradientTransform="translate(552.7 1516.94)" xlink:href="#linear-gradient-11"/><linearGradient id="linear-gradient-16" x1="376.88" y1="201.39" x2="376.88" y2="203.13" xlink:href="#linear-gradient-13"/><linearGradient id="linear-gradient-17" x1="363.58" y1="81.17" x2="358.43" y2="80.26" gradientUnits="userSpaceOnUse"><stop offset="0" stop-color="#8a0000" stop-opacity="0"/><stop offset="0.29" stop-color="#8b0202" stop-opacity="0.01"/><stop offset="0.43" stop-color="#8e0907" stop-opacity="0.04"/><stop offset="0.54" stop-color="#941610" stop-opacity="0.09"/><stop offset="0.63" stop-color="#9c281e" stop-opacity="0.17"/><stop offset="0.71" stop-color="#a63f2f" stop-opacity="0.27"/><stop offset="0.78" stop-color="#b35b44" stop-opacity="0.39"/><stop offset="0.85" stop-color="#c27d5d" stop-opacity="0.54"/><stop offset="0.91" stop-color="#d4a57b" stop-opacity="0.7"/><stop offset="0.97" stop-color="#e7d09b" stop-opacity="0.89"/><stop offset="1" stop-color="#f3eaae"/></linearGradient><linearGradient id="linear-gradient-18" x1="363.58" y1="81.17" x2="358.43" y2="80.26" gradientTransform="matrix(1, 0, 0, 1, 0, 0)" xlink:href="#linear-gradient"/><linearGradient id="linear-gradient-19" x1="322.96" y1="81.17" x2="317.81" y2="80.26" gradientTransform="matrix(1, 0, 0, 1, 0, 0)" xlink:href="#linear-gradient"/><linearGradient id="linear-gradient-20" x1="43.97" y1="191.49" x2="43.97" y2="201.39" gradientTransform="matrix(1, 0, 0, -1, -35.97, 392.89)" xlink:href="#linear-gradient-10"/><linearGradient id="linear-gradient-21" x1="157.09" y1="-1325.45" x2="157.09" y2="-1315.54" gradientTransform="matrix(1, 0, 0, -1, -149.08, -1124.05)" xlink:href="#linear-gradient-11"/><linearGradient id="linear-gradient-22" x1="157.09" y1="-1296.48" x2="157.09" y2="-1286.58" gradientTransform="matrix(1, 0, 0, -1, -149.08, -1124.05)" xlink:href="#linear-gradient-12"/><linearGradient id="linear-gradient-23" x1="43.97" y1="201.39" x2="43.97" y2="203.13" gradientTransform="matrix(-1, 0, 0, 1, 51.97, 0)" xlink:href="#linear-gradient-13"/><linearGradient id="linear-gradient-24" x1="4.83" y1="191.49" x2="4.83" y2="201.39" gradientTransform="matrix(1, 0, 0, -1, 42.32, 392.89)" xlink:href="#linear-gradient-10"/><linearGradient id="linear-gradient-25" x1="196.23" y1="-1325.45" x2="196.23" y2="-1315.54" gradientTransform="matrix(1, 0, 0, -1, -149.08, -1124.05)" xlink:href="#linear-gradient-11"/><linearGradient id="linear-gradient-26" x1="4.83" y1="201.39" x2="4.83" y2="203.13" gradientTransform="matrix(-1, 0, 0, 1, 51.97, 0)" xlink:href="#linear-gradient-13"/><linearGradient id="linear-gradient-27" x1="-8.47" y1="81.17" x2="-13.62" y2="80.26" gradientTransform="matrix(-1, 0, 0, 1, 51.97, 0)" xlink:href="#linear-gradient-17"/><linearGradient id="linear-gradient-28" x1="-8.47" y1="81.17" x2="-13.62" y2="80.26" xlink:href="#linear-gradient"/><linearGradient id="linear-gradient-29" x1="-49.09" y1="81.17" x2="-54.24" y2="80.26" xlink:href="#linear-gradient"/><linearGradient id="linear-gradient-30" x1="217.51" y1="181.55" x2="217.51" y2="179.93" gradientUnits="userSpaceOnUse"><stop offset="0" stop-color="#ad4d4d" stop-opacity="0"/><stop offset="0.16" stop-color="#ae4f4e" stop-opacity="0.01"/><stop offset="0.29" stop-color="#b15652" stop-opacity="0.06"/><stop offset="0.41" stop-color="#b66159" stop-opacity="0.13"/><stop offset="0.53" stop-color="#bd7163" stop-opacity="0.23"/><stop offset="0.64" stop-color="#c68570" stop-opacity="0.36"/><stop offset="0.75" stop-color="#d19e7f" stop-opacity="0.52"/><stop offset="0.86" stop-color="#debb91" stop-opacity="0.7"/><stop offset="0.96" stop-color="#eddda6" stop-opacity="0.92"/><stop offset="1" stop-color="#f3eaae"/></linearGradient><linearGradient id="linear-gradient-31" x1="227.08" y1="181.55" x2="227.08" y2="179.93" xlink:href="#linear-gradient-30"/><linearGradient id="linear-gradient-32" x1="192.29" y1="181.55" x2="192.29" y2="179.93" xlink:href="#linear-gradient-30"/><linearGradient id="linear-gradient-33" x1="201.86" y1="181.55" x2="201.86" y2="179.93" xlink:href="#linear-gradient-30"/></defs><title>rome</title><rect class="cls-1" x="141.82" y="30.11" width="139.19" height="70.72"/><rect class="cls-2" x="206.37" y="50.18" width="8.95" height="14.3" transform="translate(421.7 114.67) rotate(-180)"/><rect class="cls-1" x="207.86" y="51.86" width="6.16" height="12.62" transform="translate(421.89 116.34) rotate(-180)"/><polygon class="cls-2" points="207.86 51.86 214.03 51.86 214.41 51.11 207.19 51.11 207.86 51.86"/><path class="cls-3" d="M211.74,52.61a.34.34,0,0,1,.31-.23c.24,0,.21.18.41.18s.17-.18.41-.18a.34.34,0,0,1,.31.24h.41V64h-.41a.33.33,0,0,1-.31.19c-.24,0-.21-.21-.41-.21s-.17.21-.41.21a.33.33,0,0,1-.31-.19h-.48V52.61Z"/><path class="cls-3" d="M208.77,52.61a.34.34,0,0,1,.31-.23c.24,0,.21.18.41.18s.17-.18.41-.18a.34.34,0,0,1,.31.24h.41V64h-.41a.33.33,0,0,1-.31.19c-.24,0-.21-.21-.41-.21s-.17.21-.41.21a.33.33,0,0,1-.31-.19h-.48V52.61Z"/><polygon class="cls-2" points="207.19 51.11 207.19 64.48 207.86 64.48 207.86 51.86 207.19 51.11"/><polygon class="cls-4" points="207.19 51.11 207.19 64.48 207.86 64.48 207.86 51.86 207.19 51.11"/><ellipse class="cls-2" cx="210.85" cy="44.19" rx="5.07" ry="6.7"/><ellipse class="cls-5" cx="210.7" cy="43.33" rx="3.75" ry="5.11"/><rect class="cls-2" x="205.93" y="64.48" width="9.84" height="1.65"/><rect class="cls-3" x="205.93" y="66.14" width="9.84" height="0.79"/><rect class="cls-2" x="179.41" y="50.18" width="8.95" height="14.3" transform="translate(367.77 114.67) rotate(-180)"/><rect class="cls-1" x="180.9" y="51.86" width="6.16" height="12.62" transform="translate(367.96 116.34) rotate(-180)"/><polygon class="cls-2" points="180.9 51.86 187.06 51.86 187.44 51.11 180.22 51.11 180.9 51.86"/><path class="cls-3" d="M184.77,52.61a.34.34,0,0,1,.31-.23c.24,0,.21.18.41.18s.17-.18.41-.18a.34.34,0,0,1,.31.24h.41V64h-.41a.33.33,0,0,1-.31.19c-.24,0-.21-.21-.41-.21s-.17.21-.41.21a.33.33,0,0,1-.31-.19h-.48V52.61Z"/><path class="cls-3" d="M181.8,52.61a.34.34,0,0,1,.31-.23c.24,0,.21.18.41.18s.17-.18.41-.18a.34.34,0,0,1,.31.24h.41V64h-.41a.33.33,0,0,1-.31.19c-.24,0-.21-.21-.41-.21s-.17.21-.41.21a.33.33,0,0,1-.31-.19h-.48V52.61Z"/><polygon class="cls-2" points="180.22 51.11 180.22 64.48 180.9 64.48 180.9 51.86 180.22 51.11"/><polygon class="cls-6" points="180.22 51.11 180.22 64.48 180.9 64.48 180.9 51.86 180.22 51.11"/><ellipse class="cls-2" cx="183.88" cy="44.19" rx="5.07" ry="6.7"/><ellipse class="cls-5" cx="183.74" cy="43.33" rx="3.75" ry="5.11"/><rect class="cls-2" x="178.97" y="64.48" width="9.84" height="1.65"/><rect class="cls-3" x="178.97" y="66.14" width="9.84" height="0.79"/><rect class="cls-2" x="151.58" y="50.18" width="8.95" height="14.3" transform="translate(312.1 114.67) rotate(-180)"/><rect class="cls-1" x="153.06" y="51.86" width="6.16" height="12.62" transform="translate(312.29 116.34) rotate(-180)"/><polygon class="cls-2" points="153.06 51.86 159.23 51.86 159.61 51.11 152.39 51.11 153.06 51.86"/><path class="cls-3" d="M156.94,52.61a.34.34,0,0,1,.31-.23c.24,0,.21.18.41.18s.17-.18.41-.18a.34.34,0,0,1,.31.24h.41V64h-.41a.33.33,0,0,1-.31.19c-.24,0-.21-.21-.41-.21s-.17.21-.41.21a.33.33,0,0,1-.31-.19h-.48V52.61Z"/><path class="cls-3" d="M154,52.61a.34.34,0,0,1,.31-.23c.24,0,.21.18.41.18s.17-.18.41-.18a.34.34,0,0,1,.31.24h.41V64h-.41a.33.33,0,0,1-.31.19c-.24,0-.21-.21-.41-.21s-.17.21-.41.21A.33.33,0,0,1,154,64h-.48V52.61Z"/><polygon class="cls-2" points="152.39 51.11 152.39 64.48 153.06 64.48 153.06 51.86 152.39 51.11"/><polygon class="cls-7" points="152.39 51.11 152.39 64.48 153.06 64.48 153.06 51.86 152.39 51.11"/><ellipse class="cls-2" cx="156.05" cy="44.19" rx="5.07" ry="6.7"/><ellipse class="cls-5" cx="155.9" cy="43.33" rx="3.75" ry="5.11"/><rect class="cls-2" x="151.13" y="64.48" width="9.84" height="1.65"/><rect class="cls-3" x="151.13" y="66.14" width="9.84" height="0.79"/><rect class="cls-2" x="262.04" y="50.18" width="8.95" height="14.3" transform="translate(533.03 114.67) rotate(-180)"/><rect class="cls-1" x="263.53" y="51.86" width="6.16" height="12.62" transform="translate(533.22 116.34) rotate(-180)"/><polygon class="cls-2" points="263.53 51.86 269.69 51.86 270.07 51.11 262.86 51.11 263.53 51.86"/><path class="cls-3" d="M267.41,52.61a.34.34,0,0,1,.31-.23c.24,0,.21.18.41.18s.17-.18.41-.18a.34.34,0,0,1,.31.24h.41V64h-.41a.33.33,0,0,1-.31.19c-.24,0-.21-.21-.41-.21s-.17.21-.41.21a.33.33,0,0,1-.31-.19h-.48V52.61Z"/><path class="cls-3" d="M264.43,52.61a.34.34,0,0,1,.31-.23c.24,0,.21.18.41.18s.17-.18.41-.18a.34.34,0,0,1,.31.24h.41V64h-.41a.33.33,0,0,1-.31.19c-.24,0-.21-.21-.41-.21s-.17.21-.41.21a.33.33,0,0,1-.31-.19H264V52.61Z"/><polygon class="cls-2" points="262.86 51.11 262.86 64.48 263.53 64.48 263.53 51.86 262.86 51.11"/><polygon class="cls-8" points="262.86 51.11 262.86 64.48 263.53 64.48 263.53 51.86 262.86 51.11"/><ellipse class="cls-2" cx="266.52" cy="44.19" rx="5.07" ry="6.7"/><ellipse class="cls-5" cx="266.37" cy="43.33" rx="3.75" ry="5.11"/><rect class="cls-2" x="261.6" y="64.48" width="9.84" height="1.65"/><rect class="cls-3" x="261.6" y="66.14" width="9.84" height="0.79"/><rect class="cls-2" x="234.21" y="50.18" width="8.95" height="14.3" transform="translate(477.37 114.67) rotate(-180)"/><rect class="cls-1" x="235.7" y="51.86" width="6.16" height="12.62" transform="translate(477.55 116.34) rotate(-180)"/><polygon class="cls-2" points="235.69 51.86 241.86 51.86 242.24 51.11 235.02 51.11 235.69 51.86"/><path class="cls-3" d="M239.57,52.61a.34.34,0,0,1,.31-.23c.24,0,.21.18.41.18s.17-.18.41-.18a.34.34,0,0,1,.31.24h.41V64H241a.33.33,0,0,1-.31.19c-.24,0-.21-.21-.41-.21s-.17.21-.41.21a.33.33,0,0,1-.31-.19h-.48V52.61Z"/><path class="cls-3" d="M236.6,52.61a.34.34,0,0,1,.31-.23c.24,0,.21.18.41.18s.17-.18.41-.18a.34.34,0,0,1,.31.24h.41V64H238a.33.33,0,0,1-.31.19c-.24,0-.21-.21-.41-.21s-.17.21-.41.21a.33.33,0,0,1-.31-.19h-.48V52.61Z"/><polygon class="cls-2" points="235.02 51.11 235.02 64.48 235.69 64.48 235.69 51.86 235.02 51.11"/><polygon class="cls-9" points="235.02 51.11 235.02 64.48 235.69 64.48 235.69 51.86 235.02 51.11"/><ellipse class="cls-2" cx="238.68" cy="44.19" rx="5.07" ry="6.7"/><ellipse class="cls-5" cx="238.54" cy="43.33" rx="3.75" ry="5.11"/><rect class="cls-2" x="233.76" y="64.48" width="9.84" height="1.65"/><rect class="cls-3" x="233.76" y="66.14" width="9.84" height="0.79"/><polygon class="cls-3" points="174.03 67.35 171.11 67.35 171.11 66.45 167.48 66.45 167.48 67.35 164.56 67.35 164.56 65.44 174.03 65.44 174.03 67.35"/><polygon class="cls-2" points="174.03 66.36 171.11 66.36 171.11 65.91 167.48 65.91 167.48 66.36 164.56 66.36 164.56 50.31 174.03 50.31 174.03 66.36"/><path class="cls-3" d="M172.18,64.34v-8.9a2.87,2.87,0,0,0-5.75,0v8.9Z"/><rect class="cls-10" x="166.44" y="52.57" width="5.75" height="7.73" rx="2" ry="2"/><ellipse class="cls-5" cx="169.28" cy="54.57" rx="0.49" ry="0.72"/><path class="cls-5" d="M168.87,58.28h.72c.69-.47.85,0,1.19-1.19v-.3a1.2,1.2,0,0,0-1.19-1.19h-.72a1.2,1.2,0,0,0-1.19,1.19v.3C168,57.78,168.13,57.88,168.87,58.28Z"/><rect class="cls-5" x="168.4" y="57.22" width="2.12" height="2.73" transform="translate(338.92 117.17) rotate(-180)"/><path class="cls-5" d="M167.61,57.09s-.21,2.83.27,3.09.21-.23.21-.23a9.24,9.24,0,0,1-.08-2.4"/><path class="cls-5" d="M170.52,60a10.58,10.58,0,0,0-.17,4.11h-2.71a7.3,7.3,0,0,1,.3-1.91,6,6,0,0,0,.47-2.2C169.46,59.93,170.52,60,170.52,60Z"/><rect class="cls-5" x="169.08" y="55.1" width="0.38" height="0.68" transform="translate(338.54 110.88) rotate(-180)"/><rect class="cls-2" x="166.24" y="48.85" width="6.11" height="1.47"/><rect class="cls-5" x="166.55" y="49.14" width="5.5" height="1.17"/><polygon class="cls-5" points="172.35 48.85 166.24 48.85 165.36 48.24 173.23 48.24 172.35 48.85"/><polygon class="cls-2" points="169.34 45.53 172.26 48.24 166.43 48.24 169.34 45.53"/><polygon class="cls-3" points="201.87 67.35 198.95 67.35 198.94 66.45 195.32 66.45 195.32 67.35 192.4 67.35 192.4 65.44 201.87 65.44 201.87 67.35"/><polygon class="cls-2" points="201.87 66.36 198.94 66.36 198.94 65.91 195.32 65.91 195.32 66.36 192.4 66.36 192.4 50.31 201.87 50.31 201.87 66.36"/><path class="cls-3" d="M200,64.34v-8.9a2.87,2.87,0,0,0-5.75,0v8.9Z"/><rect class="cls-10" x="194.27" y="52.57" width="5.75" height="7.73" rx="2" ry="2"/><ellipse class="cls-5" cx="196.97" cy="54.57" rx="0.49" ry="0.72"/><path class="cls-5" d="M197.38,58.28h-.72c-.69-.47-.85,0-1.19-1.19v-.3a1.2,1.2,0,0,1,1.19-1.19h.72a1.2,1.2,0,0,1,1.19,1.19v.3C198.25,57.78,198.13,57.88,197.38,58.28Z"/><rect class="cls-5" x="195.73" y="57.22" width="2.12" height="2.73"/><path class="cls-5" d="M198.5,57.09s.21,2.83-.27,3.09S198,60,198,60a9.24,9.24,0,0,0,.08-2.4"/><path class="cls-5" d="M195.73,60a10.58,10.58,0,0,1,.17,4.11h2.71a7.3,7.3,0,0,0-.3-1.91,6,6,0,0,1-.47-2.2C196.79,59.93,195.73,60,195.73,60Z"/><rect class="cls-5" x="196.79" y="55.1" width="0.38" height="0.68"/><rect class="cls-2" x="194.07" y="48.85" width="6.11" height="1.47"/><rect class="cls-5" x="194.38" y="49.14" width="5.5" height="1.17"/><polygon class="cls-5" points="200.19 48.85 194.07 48.85 193.2 48.24 201.06 48.24 200.19 48.85"/><polygon class="cls-2" points="197.18 45.53 200.09 48.24 194.26 48.24 197.18 45.53"/><polygon class="cls-3" points="229.7 67.35 226.78 67.35 226.78 66.45 223.15 66.45 223.15 67.35 220.23 67.35 220.23 65.44 229.7 65.44 229.7 67.35"/><polygon class="cls-2" points="229.7 66.36 226.78 66.36 226.78 65.91 223.15 65.91 223.15 66.36 220.23 66.36 220.23 50.31 229.7 50.31 229.7 66.36"/><path class="cls-3" d="M227.85,64.34v-8.9a2.87,2.87,0,0,0-5.75,0v8.9Z"/><rect class="cls-10" x="222.11" y="52.57" width="5.75" height="7.73" rx="2" ry="2"/><ellipse class="cls-5" cx="224.8" cy="54.57" rx="0.49" ry="0.72"/><path class="cls-5" d="M225.21,58.28h-.72c-.69-.47-.85,0-1.19-1.19v-.3a1.2,1.2,0,0,1,1.19-1.19h.72a1.2,1.2,0,0,1,1.19,1.19v.3C226.09,57.78,226,57.88,225.21,58.28Z"/><rect class="cls-5" x="223.57" y="57.22" width="2.12" height="2.73"/><path class="cls-5" d="M226.34,57.09s.21,2.83-.27,3.09-.21-.23-.21-.23a9.24,9.24,0,0,0,.08-2.4"/><path class="cls-5" d="M223.39,57.13a1.5,1.5,0,0,1-.87-.7,2.22,2.22,0,0,1-.3-1.24c.1-.54.3-.08.3-.08a1.88,1.88,0,0,0,1.14,1.74"/><path class="cls-5" d="M223.57,60a10.58,10.58,0,0,1,.17,4.11h2.71a7.3,7.3,0,0,0-.3-1.91,6,6,0,0,1-.47-2.2C224.63,59.93,223.57,60,223.57,60Z"/><rect class="cls-5" x="224.63" y="55.1" width="0.38" height="0.68"/><rect class="cls-2" x="221.91" y="48.85" width="6.11" height="1.47"/><rect class="cls-5" x="222.22" y="49.14" width="5.5" height="1.17"/><polygon class="cls-5" points="228.02 48.85 221.91 48.85 221.03 48.24 228.9 48.24 228.02 48.85"/><polygon class="cls-2" points="225.01 45.53 227.93 48.24 222.09 48.24 225.01 45.53"/><polygon class="cls-3" points="257.53 67.35 254.62 67.35 254.61 66.45 250.99 66.45 250.99 67.35 248.06 67.35 248.06 65.44 257.53 65.44 257.53 67.35"/><polygon class="cls-2" points="257.53 66.36 254.61 66.36 254.61 65.91 250.99 65.91 250.99 66.36 248.06 66.36 248.06 50.31 257.53 50.31 257.53 66.36"/><path class="cls-3" d="M255.69,64.34v-8.9a2.87,2.87,0,0,0-5.75,0v8.9Z"/><rect class="cls-10" x="249.94" y="52.57" width="5.75" height="7.73" rx="2" ry="2"/><ellipse class="cls-5" cx="252.64" cy="54.57" rx="0.49" ry="0.72"/><path class="cls-5" d="M253,58.28h-.72c-.69-.47-.85,0-1.19-1.19v-.3a1.2,1.2,0,0,1,1.19-1.19H253a1.2,1.2,0,0,1,1.19,1.19v.3C253.92,57.78,253.8,57.88,253,58.28Z"/><rect class="cls-5" x="251.4" y="57.22" width="2.12" height="2.73"/><path class="cls-5" d="M254.17,57.09s.21,2.83-.27,3.09-.21-.23-.21-.23a9.24,9.24,0,0,0,.08-2.4"/><path class="cls-5" d="M251.4,60a10.58,10.58,0,0,1,.17,4.11h2.71a7.3,7.3,0,0,0-.3-1.91,6,6,0,0,1-.47-2.2C252.46,59.93,251.4,60,251.4,60Z"/><rect class="cls-5" x="252.46" y="55.1" width="0.38" height="0.68"/><rect class="cls-2" x="249.74" y="48.85" width="6.11" height="1.47"/><rect class="cls-5" x="250.05" y="49.14" width="5.5" height="1.17"/><polygon class="cls-5" points="255.85 48.85 249.74 48.85 248.87 48.24 256.73 48.24 255.85 48.85"/><polygon class="cls-2" points="252.84 45.53 255.76 48.24 249.93 48.24 252.84 45.53"/><polygon class="cls-5" points="309.17 21.41 125.35 21.41 127.91 28.86 304.85 28.86 309.17 21.41"/><polygon class="cls-1" points="138.39 28.86 281.01 28.86 281.01 30.11 140.26 30.11 138.39 28.86"/><polygon class="cls-5" points="129.78 28.87 121.59 28.87 118.55 22.75 129.78 22.75 129.78 28.87"/><rect class="cls-11" x="143.16" y="20.75" width="0.57" height="9.3" transform="translate(-1.76 37.05) rotate(-14.63)"/><polygon class="cls-11" points="129.78 28.87 128.87 29.34 124.22 20.11 125.71 20.7 129.78 28.87"/><polygon class="cls-11" points="123.07 30.96 122.34 31.34 117.67 22 118.97 22.8 123.07 30.96"/><rect class="cls-11" x="144.3" y="29.82" width="0.59" height="17.12"/><rect class="cls-11" x="279.14" y="20.75" width="0.57" height="9.3" transform="translate(543.38 120.54) rotate(-165.37)"/><rect class="cls-11" x="277.98" y="29.82" width="0.59" height="17.12" transform="translate(556.54 76.77) rotate(-180)"/><polygon class="cls-11" points="297.7 21.41 125.99 21.41 124.22 20.11 299.45 20.11 297.7 21.41"/><polygon class="cls-11" points="126.09 23.07 118.6 23.07 117.67 22 126.09 22 126.09 23.07"/><polygon class="cls-11" points="293.9 28.87 294.81 29.34 299.45 20.11 297.96 20.7 293.9 28.87"/><polygon class="cls-11" points="304.46 29.95 305.19 30.33 309.85 20.99 308.55 21.79 304.46 29.95"/><polygon class="cls-11" points="298.4 22.05 308.59 22.05 309.85 20.99 298.4 20.99 298.4 22.05"/><rect class="cls-3" x="142.19" y="68.86" width="138.85" height="1.82"/><rect class="cls-2" x="197.51" y="78.3" width="28.53" height="22.54"/><path class="cls-5" d="M197.51,78.3s0-4.35,11.27-6.59V78.3Z"/><path class="cls-5" d="M226,78.3s0-4.35-11.27-6.59V78.3Z"/><ellipse class="cls-2" cx="211.77" cy="70.44" rx="0.8" ry="1.1"/><rect class="cls-2" x="211.45" y="70.97" width="0.67" height="1.64"/><path class="cls-2" d="M212.43,75.58l1.86-1.28a1.18,1.18,0,0,0-.25-1.2,3.09,3.09,0,0,0-2.5-1.3v3.77Z"/><path class="cls-2" d="M210.75,75.58l-1.81-1.28a1.07,1.07,0,0,1,.17-1.2,2.9,2.9,0,0,1,2.42-1.3v3.77Z"/><rect class="cls-2" x="210.58" y="77" width="2.02" height="1"/><ellipse class="cls-2" cx="211.59" cy="76.01" rx="1.09" ry="0.55"/><ellipse class="cls-2" cx="211.59" cy="77" rx="1.01" ry="0.55"/><rect class="cls-3" x="201.14" y="83.46" width="20.96" height="17.41"/><rect class="cls-5" x="204.32" y="90.77" width="14.25" height="10.1"/><polygon class="cls-10" points="224.59 79.59 198.56 79.59 197.51 78.3 226.03 78.3 224.59 79.59"/><polygon class="cls-5" points="222.05 83.46 201.13 83.46 198.59 79.95 224.59 79.95 222.05 83.46"/><rect class="cls-1" x="198.56" y="79.59" width="26.04" height="0.36"/><circle class="cls-5" cx="211.44" cy="90.77" r="6.1"/><rect class="cls-2" x="249.54" y="78.3" width="28.53" height="22.54"/><path class="cls-5" d="M249.54,78.3s0-4.35,11.27-6.59V78.3Z"/><path class="cls-5" d="M278.07,78.3s0-4.35-11.27-6.59V78.3Z"/><ellipse class="cls-2" cx="263.8" cy="70.44" rx="0.8" ry="1.1"/><rect class="cls-2" x="263.48" y="70.97" width="0.67" height="1.64"/><path class="cls-2" d="M264.47,75.58l1.86-1.28a1.18,1.18,0,0,0-.25-1.2,3.09,3.09,0,0,0-2.5-1.3v3.77Z"/><path class="cls-2" d="M262.78,75.58,261,74.29a1.07,1.07,0,0,1,.17-1.2,2.9,2.9,0,0,1,2.42-1.3v3.77Z"/><rect class="cls-2" x="262.62" y="77" width="2.02" height="1"/><ellipse class="cls-2" cx="263.63" cy="76.01" rx="1.09" ry="0.55"/><ellipse class="cls-2" cx="263.63" cy="77" rx="1.01" ry="0.55"/><rect class="cls-3" x="253.17" y="83.46" width="20.96" height="17.41"/><rect class="cls-5" x="256.35" y="90.77" width="14.25" height="10.1"/><polygon class="cls-10" points="276.63 79.59 250.59 79.59 249.54 78.3 278.07 78.3 276.63 79.59"/><polygon class="cls-5" points="274.08 83.46 253.16 83.46 250.63 79.95 276.63 79.95 274.08 83.46"/><rect class="cls-1" x="250.59" y="79.59" width="26.04" height="0.36"/><circle class="cls-5" cx="263.48" cy="90.77" r="6.1"/><rect class="cls-2" x="145.16" y="78.3" width="28.53" height="22.54"/><path class="cls-5" d="M145.16,78.3s0-4.35,11.27-6.59V78.3Z"/><path class="cls-5" d="M173.69,78.3s0-4.35-11.27-6.59V78.3Z"/><ellipse class="cls-2" cx="159.43" cy="70.44" rx="0.8" ry="1.1"/><rect class="cls-2" x="159.11" y="70.97" width="0.67" height="1.64"/><path class="cls-2" d="M160.09,75.58l1.86-1.28a1.18,1.18,0,0,0-.25-1.2,3.09,3.09,0,0,0-2.5-1.3v3.77Z"/><path class="cls-2" d="M158.4,75.58l-1.81-1.28a1.07,1.07,0,0,1,.17-1.2,2.9,2.9,0,0,1,2.42-1.3v3.77Z"/><rect class="cls-2" x="158.24" y="77" width="2.02" height="1"/><ellipse class="cls-2" cx="159.25" cy="76.01" rx="1.09" ry="0.55"/><ellipse class="cls-2" cx="159.25" cy="77" rx="1.01" ry="0.55"/><rect class="cls-3" x="148.79" y="83.46" width="20.96" height="17.41"/><rect class="cls-5" x="151.97" y="90.77" width="14.25" height="10.1"/><polygon class="cls-10" points="172.25 79.59 146.21 79.59 145.16 78.3 173.69 78.3 172.25 79.59"/><polygon class="cls-5" points="169.71 83.46 148.78 83.46 146.25 79.95 172.25 79.95 169.71 83.46"/><rect class="cls-1" x="146.21" y="79.59" width="26.04" height="0.36"/><circle class="cls-5" cx="159.1" cy="90.77" r="6.1"/><rect class="cls-10" x="136.99" y="86.19" width="8.35" height="14.49" transform="translate(282.34 186.87) rotate(-180)"/><rect class="cls-12" x="136.99" y="86.19" width="8.35" height="6.73" transform="translate(282.34 179.12) rotate(-180)"/><polygon class="cls-10" points="146.54 84.08 136.99 84.08 136.99 86.19 145.35 86.19 146.54 84.08"/><polygon class="cls-3" points="146.54 84.08 145.35 86.19 147.69 91.55 149.61 90.47 146.54 84.08"/><polygon class="cls-3" points="147.69 91.55 147.67 100.68 145.35 100.68 145.35 86.19 147.69 91.55"/><polygon class="cls-13" points="147.69 91.55 147.67 100.68 145.35 100.68 145.35 86.19 147.69 91.55"/><polygon class="cls-11" points="146.75 83.64 136.99 83.64 136.99 84.08 146.52 84.08 146.75 83.64"/><polygon class="cls-11" points="146.75 83.64 146.52 84.08 149.61 90.47 150.08 90.47 146.75 83.64"/><rect class="cls-10" x="277.43" y="86.35" width="8.35" height="14.49"/><rect class="cls-14" x="277.43" y="86.35" width="8.35" height="6.73"/><polygon class="cls-10" points="276.24 84.23 285.78 84.23 285.78 86.35 277.43 86.35 276.24 84.23"/><polygon class="cls-3" points="276.24 84.23 277.43 86.35 275.09 91.7 273.17 90.62 276.24 84.23"/><polygon class="cls-3" points="275.09 91.7 275.11 100.83 277.43 100.83 277.43 86.35 275.09 91.7"/><polygon class="cls-15" points="275.09 91.7 275.11 100.83 277.43 100.83 277.43 86.35 275.09 91.7"/><polygon class="cls-11" points="276.03 83.8 285.78 83.8 285.78 84.23 276.26 84.23 276.03 83.8"/><polygon class="cls-11" points="276.03 83.8 276.26 84.23 273.17 90.62 272.7 90.62 276.03 83.8"/><rect class="cls-5" x="233.29" y="81.12" width="9.84" height="9.45"/><path class="cls-10" d="M243.14,100.66V87.52a4.92,4.92,0,0,0-9.84,0v13.14Z"/><path class="cls-3" d="M243,86.27c-.39,3.79-2,8-6.36,7.44a5.31,5.31,0,0,1-3.32-1.86v8.81h9.84V87.52A4.87,4.87,0,0,0,243,86.27Z"/><rect class="cls-5" x="230.33" y="79.18" width="2.96" height="21.48"/><ellipse class="cls-10" cx="238.18" cy="76.4" rx="3.2" ry="4.17"/><rect class="cls-5" x="243.14" y="79.18" width="2.96" height="21.48"/><rect class="cls-3" x="233.29" y="80.02" width="9.84" height="1.1"/><rect class="cls-3" x="243.14" y="78.03" width="2.96" height="1.14"/><rect class="cls-10" x="243.79" y="73.11" width="1.56" height="1.01"/><rect class="cls-3" x="230.33" y="78.03" width="2.96" height="1.14"/><rect class="cls-3" x="231.53" y="76.36" width="0.78" height="0.59"/><path class="cls-3" d="M245.88,75c0,.64-.58,1.62-1.3,1.62s-1.3-1-1.3-1.62a1.31,1.31,0,0,1,2.61,0Z"/><polygon class="cls-5" points="233.62 77.64 230.08 77.64 230.6 76.62 233.1 76.62 233.62 77.64"/><rect class="cls-3" x="244.18" y="76.36" width="0.78" height="0.59"/><polygon class="cls-3" points="233.29 78.03 230.33 78.03 230.08 77.64 233.62 77.64 233.29 78.03"/><polygon class="cls-5" points="246.42 77.64 242.89 77.64 243.41 76.62 245.91 76.62 246.42 77.64"/><polygon class="cls-3" points="246.1 78.03 243.14 78.03 242.89 77.64 246.42 77.64 246.1 78.03"/><path class="cls-5" d="M245.1,73l.62-.91s-.91-1.39-2.28,0l.67.91Z"/><rect class="cls-10" x="231.14" y="73.11" width="1.56" height="1.01"/><path class="cls-3" d="M233.22,75c0,.64-.58,1.62-1.3,1.62s-1.3-1-1.3-1.62a1.31,1.31,0,0,1,2.61,0Z"/><path class="cls-5" d="M232.37,73l.62-.91s-.91-1.39-2.28,0l.67.91Z"/><polygon class="cls-10" points="231.14 73.11 231.83 72.78 232 72.78 232.7 73.11 231.14 73.11"/><polygon class="cls-10" points="243.72 73.11 244.41 72.78 244.58 72.78 245.28 73.11 243.72 73.11"/><ellipse class="cls-1" cx="238.04" cy="86.38" rx="0.7" ry="1"/><path class="cls-2" d="M238.65,85.92a1.58,1.58,0,0,1,0,.32c0,.55-.31,1-.7,1a.76.76,0,0,1-.63-.57.74.74,0,0,0,.67.72c.38,0,.7-.45.7-1A1.21,1.21,0,0,0,238.65,85.92Z"/><polygon class="cls-2" points="238.35 88.07 237.6 88.07 237.6 87.16 238.04 87.34 238.57 87.03 238.35 88.07"/><path class="cls-1" d="M238.08,95.13h-.32a2.33,2.33,0,0,1-2.29-2.1l.25-3.37a3,3,0,0,1,1.72-2l1.07,0c1.12,0,1.61.92,1.61,2v3.43A2,2,0,0,1,238.08,95.13Z"/><rect class="cls-5" x="181.11" y="81.12" width="9.84" height="9.45"/><path class="cls-10" d="M190.95,100.66V87.52a4.92,4.92,0,0,0-9.84,0v13.14Z"/><path class="cls-3" d="M190.78,86.27c-.39,3.79-2,8-6.36,7.44a5.31,5.31,0,0,1-3.32-1.86v8.81h9.84V87.52A4.87,4.87,0,0,0,190.78,86.27Z"/><rect class="cls-5" x="178.14" y="79.18" width="2.96" height="21.48"/><ellipse class="cls-10" cx="185.99" cy="76.4" rx="3.2" ry="4.17"/><rect class="cls-5" x="190.95" y="79.18" width="2.96" height="21.48"/><rect class="cls-3" x="181.11" y="80.02" width="9.84" height="1.1"/><rect class="cls-3" x="190.95" y="78.03" width="2.96" height="1.14"/><rect class="cls-10" x="191.6" y="73.11" width="1.56" height="1.01"/><rect class="cls-3" x="178.14" y="78.03" width="2.96" height="1.14"/><rect class="cls-3" x="179.34" y="76.36" width="0.78" height="0.59"/><path class="cls-3" d="M193.69,75c0,.64-.58,1.62-1.3,1.62s-1.3-1-1.3-1.62a1.31,1.31,0,0,1,2.61,0Z"/><polygon class="cls-5" points="181.43 77.64 177.89 77.64 178.41 76.62 180.91 76.62 181.43 77.64"/><rect class="cls-3" x="192" y="76.36" width="0.78" height="0.59"/><polygon class="cls-3" points="181.1 78.03 178.14 78.03 177.89 77.64 181.43 77.64 181.1 78.03"/><polygon class="cls-5" points="194.24 77.64 190.7 77.64 191.22 76.62 193.72 76.62 194.24 77.64"/><polygon class="cls-3" points="193.91 78.03 190.95 78.03 190.7 77.64 194.24 77.64 193.91 78.03"/><path class="cls-5" d="M192.91,73l.62-.91s-.91-1.39-2.28,0l.67.91Z"/><rect class="cls-10" x="178.95" y="73.11" width="1.56" height="1.01"/><path class="cls-3" d="M181,75c0,.64-.58,1.62-1.3,1.62s-1.3-1-1.3-1.62A1.31,1.31,0,0,1,181,75Z"/><path class="cls-5" d="M180.19,73l.62-.91s-.91-1.39-2.28,0l.67.91Z"/><polygon class="cls-10" points="178.95 73.11 179.64 72.78 179.81 72.78 180.51 73.11 178.95 73.11"/><polygon class="cls-10" points="191.53 73.11 192.22 72.78 192.39 72.78 193.09 73.11 191.53 73.11"/><ellipse class="cls-1" cx="185.85" cy="86.38" rx="0.7" ry="1"/><path class="cls-2" d="M186.46,85.92a1.58,1.58,0,0,1,0,.32c0,.55-.31,1-.7,1a.76.76,0,0,1-.63-.57.74.74,0,0,0,.67.72c.38,0,.7-.45.7-1A1.21,1.21,0,0,0,186.46,85.92Z"/><polygon class="cls-2" points="186.16 88.07 185.41 88.07 185.41 87.16 185.85 87.34 186.38 87.03 186.16 88.07"/><path class="cls-1" d="M185.89,95.13h-.32a2.33,2.33,0,0,1-2.29-2.1l.25-3.37a3,3,0,0,1,1.72-2l1.07,0c1.12,0,1.61.92,1.61,2v3.43A2,2,0,0,1,185.89,95.13Z"/><rect class="cls-5" x="132.86" y="93.16" width="154.03" height="0.87"/><rect class="cls-3" x="132.86" y="94.03" width="154.03" height="1.44"/><rect class="cls-2" x="132.86" y="95.46" width="154.03" height="6.74"/><rect class="cls-1" x="135.6" y="99.17" width="154.47" height="90.59"/><rect class="cls-16" x="211.04" y="65.58" width="1.74" height="149.14" transform="translate(352.07 -71.76) rotate(90)"/><path class="cls-2" d="M226.19,150.64v39.12H200.64V150.64c0-6.75,4.83-12.28,12.07-12.28a14,14,0,0,1,9.46,3.61A12,12,0,0,1,226.19,150.64Z"/><path class="cls-10" d="M223.87,151.75v38H201.8v-38c0-6.23,4.34-11.33,10.5-11.33a11.62,11.62,0,0,1,11.57,11.33Z"/><path class="cls-2" d="M256.39,150.64v39.12H228.51V150.64c0-6.75,6.81-12.28,14.06-12.28A14.45,14.45,0,0,1,252.2,142,12.13,12.13,0,0,1,256.39,150.64Z"/><path class="cls-10" d="M254.06,151.75v38H232v-38a11.41,11.41,0,0,1,11.32-11.33,10.58,10.58,0,0,1,7.68,3.33A11.14,11.14,0,0,1,254.06,151.75Z"/><path class="cls-2" d="M287.75,150.64v39.12H262.19V150.64a12.38,12.38,0,0,1,12.71-12.28A13.21,13.21,0,0,1,284,142,11.66,11.66,0,0,1,287.75,150.64Z"/><path class="cls-10" d="M285.42,151.75v38H262.19v-38c0-6.23,5.55-11.33,11.71-11.33a11.58,11.58,0,0,1,11.52,11.33Z"/><rect class="cls-5" x="160.21" y="105.71" width="8.52" height="17.03"/><rect class="cls-5" x="191.19" y="105.71" width="8.52" height="17.03"/><rect class="cls-5" x="223.89" y="105.71" width="8.52" height="17.03"/><rect class="cls-5" x="254.87" y="105.71" width="8.52" height="17.03"/><path class="cls-2" d="M161.15,150.64v39.12H135.6V150.64c0-6.75,5.94-12.28,13.18-12.28a12.63,12.63,0,0,1,8.9,3.61A11.46,11.46,0,0,1,161.15,150.64Z"/><path class="cls-10" d="M161.15,151.75v38H136.76v-38a11.66,11.66,0,0,1,11.61-11.33,13,13,0,0,1,8.7,3.33C159.11,145.8,161.15,148.63,161.15,151.75Z"/><rect class="cls-3" x="135.9" y="104.07" width="152.42" height="2.8"/><rect class="cls-3" x="135.9" y="101.13" width="152.42" height="0.95"/><path class="cls-2" d="M193.67,150.64v39.12H168.12V150.64a12.13,12.13,0,0,1,12.41-12.28,13.58,13.58,0,0,1,9.29,3.61A11.8,11.8,0,0,1,193.67,150.64Z"/><path class="cls-10" d="M191.34,151.75v38H169.28v-38c0-6.23,4.68-11.33,10.84-11.33a11.13,11.13,0,0,1,7.92,3.33A11.34,11.34,0,0,1,191.34,151.75Z"/><rect class="cls-5" x="136.62" y="122.74" width="149.87" height="3.23"/><rect class="cls-5" x="137.36" y="130.53" width="149.12" height="5.6"/><rect class="cls-1" x="137.73" y="181.78" width="148.75" height="7.73"/><rect class="cls-16" x="286.48" y="107.79" width="1.46" height="81.71"/><rect class="cls-16" x="135.89" y="107.79" width="1.46" height="81.71"/><rect class="cls-2" x="161.93" y="105.71" width="5.09" height="17.19"/><polygon class="cls-3" points="167.82 124.77 161.13 124.77 161.93 122.74 167.01 122.74 167.82 124.77"/><polygon class="cls-10" points="167.01 105.71 161.93 105.71 160.79 104.07 168.16 104.07 167.01 105.71"/><path class="cls-5" d="M218.06,112c.5-3.26,0-4.8-.24-5.24s-.66-.1-1.26-.64a.75.75,0,0,0-1.1,0c-1.71-.91-1.37-1.49-1.37-1.49,0-.41.64-1.05.64-1.66s-1-1.48-1.66-1.48c-.51-1.1-1.27-.88-1.27-.88s-.76-.22-1.27.88c-.62,0-1.66.87-1.66,1.48s.64,1.25.64,1.66c0,0,.34.58-1.37,1.49a.76.76,0,0,0-1.11,0c-.6.54-1,.2-1.27.64s-.78,2-.27,5.24-.62,5.17-4.92,6.16v1.74h22.37v-1.74C218.62,117.19,217.56,115.28,218.06,112Z"/><rect class="cls-5" x="160.79" y="101.79" width="7.37" height="2.28"/><rect class="cls-2" x="192.91" y="105.71" width="5.09" height="17.19"/><polygon class="cls-3" points="198.8 124.77 192.11 124.77 192.91 122.74 197.99 122.74 198.8 124.77"/><polygon class="cls-10" points="197.99 105.71 192.91 105.71 191.77 104.07 199.14 104.07 197.99 105.71"/><rect class="cls-5" x="191.77" y="101.79" width="7.37" height="2.28"/><rect class="cls-2" x="225.61" y="105.71" width="5.09" height="17.19"/><polygon class="cls-3" points="231.5 124.77 224.81 124.77 225.61 122.74 230.69 122.74 231.5 124.77"/><rect class="cls-5" x="224.47" y="101.79" width="7.37" height="2.28"/><rect class="cls-2" x="256.59" y="105.71" width="5.09" height="17.19"/><polygon class="cls-3" points="262.48 124.77 255.79 124.77 256.59 122.74 261.67 122.74 262.48 124.77"/><polygon class="cls-10" points="261.67 105.71 256.59 105.71 255.45 104.07 262.82 104.07 261.67 105.71"/><polygon class="cls-10" points="230.69 105.71 225.61 105.71 224.47 104.07 231.84 104.07 230.69 105.71"/><rect class="cls-5" x="255.45" y="101.79" width="7.37" height="2.28"/><ellipse class="cls-2" cx="211.8" cy="112.02" rx="4.32" ry="5.4"/><rect class="cls-2" x="200.56" y="119.59" width="22.38" height="3.01"/><ellipse class="cls-1" cx="211.8" cy="111.7" rx="3.29" ry="4.11"/><rect class="cls-2" x="134.29" y="189.51" width="156.22" height="15.36"/><rect class="cls-1" x="288.51" y="40.29" width="90.39" height="164.57"/><rect class="cls-1" x="378.9" y="163.89" width="33.24" height="40.97"/><rect class="cls-1" x="412.14" y="162.53" width="7.76" height="42.34"/><rect class="cls-2" x="412.14" y="191.49" width="7.76" height="9.9"/><rect class="cls-17" x="412.14" y="191.49" width="7.76" height="9.9"/><rect class="cls-18" x="412.14" y="191.49" width="7.76" height="9.9" transform="translate(832.04 392.89) rotate(180)"/><rect class="cls-19" x="412.14" y="162.53" width="7.76" height="9.9" transform="translate(832.04 334.96) rotate(180)"/><rect class="cls-2" x="378.9" y="160.36" width="33.24" height="3.53"/><rect class="cls-2" x="412.14" y="160.36" width="8.86" height="2.17"/><rect class="cls-1" x="412.86" y="159.25" width="5.35" height="1.12"/><rect class="cls-2" x="412.86" y="158.69" width="5.35" height="0.56"/><rect class="cls-1" x="413.48" y="154.8" width="4.1" height="3.89"/><polygon class="cls-20" points="417.58 154.8 413.48 154.8 412.74 154.32 418.32 154.32 417.58 154.8"/><rect class="cls-20" x="412.74" y="154.01" width="5.58" height="0.31"/><polygon class="cls-20" points="414.35 139.53 416.71 139.53 417.58 154.01 413.48 154.01 414.35 139.53"/><polygon class="cls-16" points="393.82 28.86 381.45 39.03 380.44 39.03 389.84 31.32 393.82 28.86"/><polygon class="cls-20" points="415.75 137.81 415.31 137.81 414.35 139.53 416.71 139.53 415.75 137.81"/><polygon class="cls-5" points="283.16 31.32 389.84 31.32 379.85 40.29 288.51 40.29 283.16 31.32"/><rect class="cls-2" x="383.84" y="169.48" width="15.94" height="12.25"/><rect class="cls-16" x="386.35" y="171.54" width="10.92" height="7.97"/><rect class="cls-2" x="411.24" y="188.97" width="9.57" height="0.81"/><rect class="cls-2" x="411.24" y="203.13" width="9.57" height="1.74"/><polygon class="cls-2" points="412.14 201.4 419.9 201.4 420.81 203.13 411.24 203.13 412.14 201.4"/><polygon class="cls-21" points="412.14 201.4 419.9 201.4 420.81 203.13 411.24 203.13 412.14 201.4"/><polyline class="cls-2" points="411.24 204.87 411.24 203.13 420.81 203.13"/><polygon class="cls-2" points="411.24 189.79 420.81 189.79 419.9 191.49 412.14 191.49 411.24 189.79"/><rect class="cls-2" x="373" y="191.49" width="7.76" height="9.9"/><rect class="cls-22" x="373" y="191.49" width="7.76" height="9.9"/><rect class="cls-23" x="373" y="191.49" width="7.76" height="9.9" transform="translate(753.76 392.89) rotate(180)"/><rect class="cls-2" x="372.09" y="188.97" width="9.57" height="0.81"/><rect class="cls-2" x="372.09" y="203.13" width="9.57" height="1.74"/><polygon class="cls-2" points="373 201.4 380.76 201.4 381.66 203.13 372.1 203.13 373 201.4"/><polygon class="cls-24" points="373 201.4 380.76 201.4 381.66 203.13 372.1 203.13 373 201.4"/><polyline class="cls-2" points="372.1 204.87 372.1 203.13 381.66 203.13"/><polygon class="cls-2" points="372.1 189.79 381.66 189.79 380.76 191.49 373 191.49 372.1 189.79"/><rect class="cls-2" x="305.92" y="192.77" width="15.54" height="8.82"/><rect class="cls-16" x="307.83" y="193.85" width="11.72" height="6.65"/><rect class="cls-5" x="348.59" y="191.49" width="11.2" height="12.51"/><rect class="cls-2" x="288.17" y="126.13" width="87.42" height="4.35"/><rect class="cls-2" x="288.17" y="101.62" width="87.42" height="2.77"/><rect class="cls-2" x="288.17" y="187.14" width="87.42" height="4.35"/><rect class="cls-3" x="297.16" y="130.23" width="74.36" height="2.64"/><rect class="cls-3" x="295.93" y="104.14" width="76.81" height="2.64"/><rect class="cls-3" x="363.65" y="94.85" width="8.14" height="0.93"/><rect class="cls-3" x="345.92" y="93.97" width="17.73" height="1.54"/><rect class="cls-3" x="323.24" y="94.85" width="22.33" height="0.77"/><rect class="cls-3" x="362.99" y="95.5" width="0.65" height="1.26"/><rect class="cls-3" x="345.57" y="94.85" width="0.72" height="1.87"/><rect class="cls-3" x="345.04" y="153.24" width="17.67" height="25.56"/><rect class="cls-10" x="348.8" y="155.9" width="10.73" height="22.91"/><rect class="cls-5" x="353.59" y="155.9" width="1.19" height="22.91"/><polygon class="cls-10" points="362.72 153.24 345.04 153.24 344.35 151.14 363.41 151.14 362.72 153.24"/><polygon class="cls-2" points="362.72 149.93 345.04 149.93 344.35 151.14 363.41 151.14 362.72 149.93"/><polygon class="cls-2" points="345.04 149.93 343.11 151.68 344.35 151.14 345.04 149.93"/><polygon class="cls-16" points="343.11 151.68 345.04 153.24 344.35 151.14 343.11 151.68"/><polygon class="cls-2" points="362.72 149.93 364.65 151.68 363.41 151.14 362.72 149.93"/><polygon class="cls-16" points="364.65 151.68 362.72 153.24 363.41 151.14 364.65 151.68"/><rect class="cls-3" x="305.03" y="153.24" width="17.67" height="25.56"/><rect class="cls-10" x="308.78" y="155.9" width="10.73" height="22.91"/><rect class="cls-5" x="313.58" y="155.9" width="1.19" height="22.91"/><polygon class="cls-10" points="322.7 153.24 305.03 153.24 304.34 151.14 323.4 151.14 322.7 153.24"/><polygon class="cls-2" points="322.7 149.93 305.03 149.93 304.34 151.14 323.4 151.14 322.7 149.93"/><polygon class="cls-2" points="305.03 149.93 303.1 151.68 304.34 151.14 305.03 149.93"/><polygon class="cls-16" points="303.1 151.68 305.03 153.24 304.34 151.14 303.1 151.68"/><polygon class="cls-2" points="322.7 149.93 324.64 151.68 323.4 151.14 322.7 149.93"/><polygon class="cls-16" points="324.64 151.68 322.7 153.24 323.4 151.14 324.64 151.68"/><rect class="cls-5" x="296.22" y="54.32" width="77.09" height="1.57"/><rect class="cls-3" x="295.82" y="94.86" width="9.52" height="0.93" transform="translate(601.16 190.64) rotate(-180)"/><rect class="cls-3" x="383.76" y="181.58" width="16.67" height="0.58"/><rect class="cls-10" x="288.4" y="40.32" width="2.32" height="14"/><rect class="cls-3" x="297.44" y="180.79" width="72.79" height="0.46"/><rect class="cls-2" x="289.84" y="52.15" width="83.47" height="2.17"/><rect class="cls-2" x="295.82" y="93.08" width="9.52" height="1.78" transform="translate(601.16 187.94) rotate(-180)"/><rect class="cls-5" x="371.11" y="129.33" width="7.83" height="54.35"/><rect class="cls-2" x="370.23" y="130.78" width="10.02" height="4.19"/><rect class="cls-2" x="370.23" y="136.87" width="10.02" height="4.19"/><rect class="cls-2" x="370.23" y="142.95" width="10.02" height="4.19"/><rect class="cls-2" x="370.23" y="149.04" width="10.02" height="4.19"/><rect class="cls-2" x="370.23" y="155.13" width="10.02" height="4.19"/><rect class="cls-2" x="370.23" y="161.22" width="10.02" height="4.19"/><rect class="cls-2" x="370.23" y="167.31" width="10.02" height="4.19"/><rect class="cls-2" x="370.23" y="173.4" width="10.02" height="4.19"/><rect class="cls-2" x="370.23" y="179.49" width="10.02" height="4.19"/><polygon class="cls-5" points="380.25 184.15 370.23 184.15 371.11 183.68 378.94 183.68 380.25 184.15"/><rect class="cls-3" x="371.11" y="128.05" width="7.83" height="1.28"/><polygon class="cls-3" points="378.94 128.05 371.11 128.05 369.35 126.35 380.7 126.35 378.94 128.05"/><rect class="cls-16" x="372" y="106.15" width="7.22" height="20.2"/><rect class="cls-2" x="371.11" y="106.15" width="8.21" height="2.93"/><rect class="cls-2" x="371.95" y="109.45" width="7.37" height="3.1"/><rect class="cls-2" x="371.11" y="112.88" width="8.21" height="3.37"/><rect class="cls-2" x="371.11" y="120.05" width="8.21" height="3.37"/><rect class="cls-2" x="371.95" y="116.63" width="7.37" height="3.1"/><path class="cls-2" d="M371.48,123.85h7.91a.37.37,0,0,1,.37.37v2.12a0,0,0,0,1,0,0h-8.66a0,0,0,0,1,0,0v-2.12A.37.37,0,0,1,371.48,123.85Z"/><rect class="cls-2" x="370.23" y="184.15" width="10.02" height="5.44"/><rect class="cls-3" x="372" y="105.36" width="6.94" height="0.79"/><polygon class="cls-10" points="378.91 105.36 371.97 105.36 371.11 103.81 380.7 103.81 378.91 105.36"/><rect class="cls-5" x="372.23" y="92.94" width="0.87" height="6.69"/><rect class="cls-2" x="371.11" y="101.11" width="9.9" height="2.69"/><rect class="cls-2" x="372.39" y="92.94" width="7.18" height="1.67"/><polygon class="cls-10" points="379 95.5 372.39 95.5 372.39 94.61 379.58 94.61 379 95.5"/><rect class="cls-5" x="371.35" y="99.63" width="0.87" height="1.48"/><rect class="cls-2" x="371.52" y="99.63" width="7.41" height="1.48"/><rect class="cls-2" x="372.39" y="95.5" width="6.61" height="4.13"/><rect class="cls-5" x="372.56" y="52.15" width="0.71" height="40.79"/><rect class="cls-2" x="372.78" y="52.15" width="6.22" height="40.79"/><rect class="cls-5" x="289.46" y="129.33" width="7.83" height="54.35" transform="translate(586.75 313.01) rotate(-180)"/><rect class="cls-2" x="288.15" y="130.78" width="10.02" height="4.19" transform="translate(586.32 265.75) rotate(-180)"/><rect class="cls-2" x="288.15" y="136.87" width="10.02" height="4.19" transform="translate(586.32 277.92) rotate(-180)"/><rect class="cls-2" x="288.15" y="142.95" width="10.02" height="4.19" transform="translate(586.32 290.1) rotate(-180)"/><rect class="cls-2" x="288.15" y="149.04" width="10.02" height="4.19" transform="translate(586.32 302.28) rotate(-180)"/><rect class="cls-2" x="288.15" y="155.13" width="10.02" height="4.19" transform="translate(586.32 314.46) rotate(-180)"/><rect class="cls-2" x="288.15" y="161.22" width="10.02" height="4.19" transform="translate(586.32 326.63) rotate(-180)"/><rect class="cls-2" x="288.15" y="167.31" width="10.02" height="4.19" transform="translate(586.32 338.81) rotate(-180)"/><rect class="cls-2" x="288.15" y="173.4" width="10.02" height="4.19" transform="translate(586.32 350.99) rotate(-180)"/><rect class="cls-2" x="288.15" y="179.49" width="10.02" height="4.19" transform="translate(586.32 363.17) rotate(-180)"/><polygon class="cls-5" points="288.15 184.15 298.17 184.15 297.29 183.68 289.46 183.68 288.15 184.15"/><rect class="cls-3" x="289.46" y="128.05" width="7.83" height="1.28" transform="translate(586.75 257.38) rotate(-180)"/><polygon class="cls-3" points="289.46 128.05 297.29 128.05 299.04 126.35 287.7 126.35 289.46 128.05"/><rect class="cls-16" x="289.18" y="106.15" width="7.22" height="20.2" transform="translate(585.58 232.49) rotate(-180)"/><rect class="cls-2" x="289.08" y="106.15" width="8.21" height="2.93" transform="translate(586.37 215.23) rotate(-180)"/><rect class="cls-2" x="289.08" y="109.45" width="7.37" height="3.1" transform="translate(585.53 222.01) rotate(-180)"/><rect class="cls-2" x="289.08" y="112.88" width="8.21" height="3.37" transform="translate(586.37 229.13) rotate(-180)"/><rect class="cls-2" x="289.08" y="120.05" width="8.21" height="3.37" transform="translate(586.37 243.46) rotate(-180)"/><rect class="cls-2" x="289.08" y="116.63" width="7.37" height="3.1" transform="translate(585.53 236.36) rotate(-180)"/><path class="cls-2" d="M288.63,123.85h8.66a0,0,0,0,1,0,0V126a.37.37,0,0,1-.37.37H289a.37.37,0,0,1-.37-.37v-2.12A0,0,0,0,1,288.63,123.85Z" transform="translate(585.92 250.19) rotate(-180)"/><rect class="cls-2" x="288.15" y="184.15" width="10.02" height="5.44" transform="translate(586.32 373.75) rotate(-180)"/><rect class="cls-3" x="289.46" y="105.36" width="6.94" height="0.79" transform="translate(585.86 211.51) rotate(-180)"/><polygon class="cls-10" points="289.49 105.36 296.43 105.36 297.29 103.81 287.7 103.81 289.49 105.36"/><rect class="cls-5" x="295.74" y="92.94" width="0.87" height="6.69" transform="translate(592.35 192.57) rotate(-180)"/><rect class="cls-2" x="287.39" y="101.11" width="9.9" height="2.69" transform="translate(584.68 204.92) rotate(-180)"/><rect class="cls-2" x="289.27" y="92.94" width="7.18" height="1.67" transform="translate(585.72 187.55) rotate(-180)"/><polygon class="cls-10" points="290.08 95.5 296.45 95.5 296.45 94.61 289.26 94.61 290.08 95.5"/><rect class="cls-5" x="296.18" y="99.63" width="0.87" height="1.48" transform="translate(593.22 200.75) rotate(-180)"/><rect class="cls-2" x="289.46" y="99.63" width="7.41" height="1.48" transform="translate(586.34 200.75) rotate(-180)"/><rect class="cls-2" x="289.84" y="95.5" width="6.61" height="4.13" transform="translate(586.29 195.13) rotate(-180)"/><rect class="cls-5" x="295.57" y="52.15" width="0.71" height="40.79" transform="translate(591.85 145.09) rotate(-180)"/><rect class="cls-2" x="289.84" y="52.15" width="6.22" height="40.79" transform="translate(585.9 145.09) rotate(-180)"/><rect class="cls-3" x="287.39" y="101.11" width="9.9" height="0.75" transform="translate(584.68 202.97) rotate(-180)"/><rect class="cls-5" x="289.84" y="48.2" width="89.16" height="3.95"/><rect class="cls-5" x="289.84" y="41.59" width="89.16" height="5.39"/><polygon class="cls-3" points="288.1 46.98 380.32 46.98 379 48.2 289.84 48.2 288.1 46.98"/><polygon class="cls-3" points="286.96 39.04 381.45 39.04 379 41.59 289.84 41.59 286.96 39.04"/><rect class="cls-3" x="304.72" y="181.02" width="17.77" height="2.9"/><rect class="cls-3" x="344.71" y="181.02" width="17.77" height="2.9"/><rect class="cls-3" x="304.68" y="178.79" width="0.35" height="2.23"/><rect class="cls-3" x="344.69" y="178.79" width="0.35" height="2.23"/><rect class="cls-2" x="345.92" y="92.94" width="18.11" height="1.03"/><rect class="cls-2" x="363.65" y="93.08" width="8.14" height="1.78"/><rect class="cls-3" x="305.34" y="93.97" width="17.9" height="1.54" transform="translate(628.58 189.47) rotate(-180)"/><rect class="cls-3" x="305.01" y="95.51" width="0.65" height="1.26" transform="translate(610.68 192.27) rotate(-180)"/><rect class="cls-3" x="322.52" y="94.86" width="0.72" height="1.87" transform="translate(645.76 191.58) rotate(-180)"/><rect class="cls-2" x="305.13" y="92.94" width="18.11" height="1.03" transform="translate(628.37 186.9) rotate(-180)"/><rect class="cls-2" x="323.24" y="93.08" width="22.68" height="1.78"/><rect class="cls-5" x="346.62" y="66.77" width="16.38" height="26.17"/><rect class="cls-2" x="348.99" y="69.83" width="11.28" height="23.11"/><polygon class="cls-2" points="360.27 69.83 348.99 69.83 348.29 68.45 361.51 68.45 360.27 69.83"/><path class="cls-3" d="M353.17,71.21a.62.62,0,0,0-.57-.42c-.43,0-.39.32-.75.32s-.32-.34-.76-.34a.63.63,0,0,0-.57.43h-.75V92.09h.75a.61.61,0,0,0,.57.35c.43,0,.39-.38.76-.38s.32.38.75.38a.61.61,0,0,0,.57-.35H354V71.21Z"/><path class="cls-3" d="M358.62,71.21a.62.62,0,0,0-.57-.42c-.43,0-.39.32-.75.32s-.32-.34-.76-.34a.63.63,0,0,0-.57.43h-.75V92.09H356a.61.61,0,0,0,.57.35c.43,0,.39-.38.76-.38s.32.38.75.38a.61.61,0,0,0,.57-.35h.87V71.21Z"/><polygon class="cls-5" points="361.51 68.45 361.51 92.94 360.27 92.94 360.27 69.83 361.51 68.45"/><polygon class="cls-25" points="361.51 68.45 361.51 92.94 360.27 92.94 360.27 69.83 361.51 68.45"/><rect class="cls-2" x="346.62" y="66.77" width="16.38" height="26.17"/><rect class="cls-1" x="348.99" y="69.83" width="11.28" height="23.11"/><polygon class="cls-2" points="360.27 69.83 348.99 69.83 348.29 68.45 361.51 68.45 360.27 69.83"/><path class="cls-3" d="M353.17,71.21a.62.62,0,0,0-.57-.42c-.43,0-.39.32-.75.32s-.32-.34-.76-.34a.63.63,0,0,0-.57.43h-.75V92.09h.75a.61.61,0,0,0,.57.35c.43,0,.39-.38.76-.38s.32.38.75.38a.61.61,0,0,0,.57-.35H354V71.21Z"/><path class="cls-3" d="M358.62,71.21a.62.62,0,0,0-.57-.42c-.43,0-.39.32-.75.32s-.32-.34-.76-.34a.63.63,0,0,0-.57.43h-.75V92.09H356a.61.61,0,0,0,.57.35c.43,0,.39-.38.76-.38s.32.38.75.38a.61.61,0,0,0,.57-.35h.87V71.21Z"/><polygon class="cls-2" points="361.51 68.45 361.51 92.94 360.27 92.94 360.27 69.83 361.51 68.45"/><polygon class="cls-26" points="361.51 68.45 361.51 92.94 360.27 92.94 360.27 69.83 361.51 68.45"/><rect class="cls-2" x="306" y="66.77" width="16.38" height="26.17"/><rect class="cls-1" x="308.37" y="69.83" width="11.28" height="23.11"/><polygon class="cls-2" points="319.65 69.83 308.37 69.83 307.67 68.45 320.89 68.45 319.65 69.83"/><path class="cls-3" d="M312.55,71.21a.62.62,0,0,0-.57-.42c-.43,0-.39.32-.75.32s-.32-.34-.76-.34a.63.63,0,0,0-.57.43h-.75V92.09h.75a.61.61,0,0,0,.57.35c.43,0,.39-.38.76-.38s.32.38.75.38a.61.61,0,0,0,.57-.35h.87V71.21Z"/><path class="cls-3" d="M318,71.21a.62.62,0,0,0-.57-.42c-.43,0-.39.32-.75.32s-.32-.34-.76-.34a.63.63,0,0,0-.57.43h-.75V92.09h.75a.61.61,0,0,0,.57.35c.43,0,.39-.38.76-.38s.32.38.75.38a.61.61,0,0,0,.57-.35h.87V71.21Z"/><polygon class="cls-2" points="320.89 68.45 320.89 92.94 319.65 92.94 319.65 69.83 320.89 68.45"/><polygon class="cls-27" points="320.89 68.45 320.89 92.94 319.65 92.94 319.65 69.83 320.89 68.45"/><ellipse class="cls-2" cx="314.34" cy="61.07" rx="5.07" ry="6.7"/><path class="cls-1" d="M316.12,61.37a2.42,2.42,0,0,0-2-1.07h-.44a2.46,2.46,0,0,0-2.45,2.45v0a3,3,0,0,0,3.38,1.88c1.09-.28,1.45-1.32,1.58-2.4C316.18,62,316.15,61.67,316.12,61.37Z"/><rect class="cls-1" x="313.34" y="59.68" width="1.11" height="1.26"/><ellipse class="cls-1" cx="314.08" cy="58.69" rx="1.02" ry="1.44"/><ellipse class="cls-5" cx="314.48" cy="60.22" rx="3.75" ry="5.11"/><ellipse class="cls-2" cx="355.22" cy="61.07" rx="5.07" ry="6.7"/><path class="cls-1" d="M357,61.37a2.42,2.42,0,0,0-2-1.07h-.44a2.46,2.46,0,0,0-2.45,2.45v0a3,3,0,0,0,3.38,1.88c1.09-.28,1.45-1.32,1.58-2.4C357.06,62,357,61.67,357,61.37Z"/><rect class="cls-1" x="354.23" y="59.68" width="1.11" height="1.26"/><ellipse class="cls-1" cx="354.97" cy="58.69" rx="1.02" ry="1.44"/><ellipse class="cls-5" cx="355.36" cy="60.22" rx="3.75" ry="5.11"/><polygon class="cls-16" points="389.84 31.32 283.16 31.32 281.37 28.86 393.82 28.86 389.84 31.32"/><rect class="cls-1" x="329.46" y="26.91" width="9.57" height="2.05"/><path class="cls-3" d="M329.32,6.84h-.87L326.23,11a5.63,5.63,0,0,0,1,1.45,3.79,3.79,0,0,1,.08,1.23s-1,1-.27,1.56.68.65.74,1.18a2.23,2.23,0,0,0,.6,1.07V29h2.56s-.39-12.62-.36-13.46-.08-1.15.65-1.6a7.25,7.25,0,0,0,1.56-2.29l-.27-3.44Z"/><path class="cls-5" d="M338.37,12.06h.71a3.12,3.12,0,0,1,.56-1.57l.57-.87s.64-.53.3-1.06a3.08,3.08,0,0,0-1.32-.87s-1.15,0-1,1S338.37,12.06,338.37,12.06Z"/><path class="cls-2" d="M338.69,14.16l.76-4.09.68-2.15.45-1.38s-.4-.35-1-.9A1.38,1.38,0,0,0,338,4.8l-7,.42-1.91,1.13a9.36,9.36,0,0,1,.81,3.27c0,.57,1.55-.16,1.55-.16s.88-.3.65,1.65c-.46,1.6-1,3-1,3Z"/><rect class="cls-1" x="329.93" y="13.74" width="8.78" height="13.17"/><path class="cls-2" d="M337.2,4.8s0-.57-.9-.66-.94-.37-1-.77a2.36,2.36,0,0,0-1-2A1.83,1.83,0,0,0,331.8,2c-.29.86-.53,2-.53,2s-.08.46-.82.78a1.17,1.17,0,0,0-.73,1l3.69-.59Z"/><rect class="cls-1" x="333.41" y="7.92" width="3.8" height="5.19" transform="translate(670.61 21.04) rotate(-180)"/><polygon class="cls-5" points="333.41 7.92 337.21 7.92 337.82 6.72 332.82 6.72 333.41 7.92"/><rect class="cls-1" x="332.82" y="5.98" width="5" height="0.73" transform="translate(670.64 12.7) rotate(-180)"/><polygon class="cls-5" points="337.2 13.12 336.3 14.16 332.8 14.16 333.41 13.12 337.2 13.12"/><rect class="cls-5" x="332.82" y="14.16" width="3.48" height="3.04" transform="translate(669.11 31.36) rotate(-180)"/><rect class="cls-3" x="332.82" y="5.64" width="5" height="0.34" transform="translate(670.64 11.63) rotate(-180)"/><rect class="cls-5" x="332.82" y="4.8" width="5" height="0.84" transform="translate(670.64 10.44) rotate(-180)"/><path class="cls-11" d="M283.16,31.32l-1.82-2.46-5.07,13.41,2.19,1-6.33,14.43a1.22,1.22,0,0,0,1.13.72L280,44.27Z"/><path class="cls-5" d="M279.81,100.78h8.7V39.9L277.77,63.16s1.86,1.61,1.86,5.32S279.81,100.78,279.81,100.78Z"/><path class="cls-10" d="M277.77,63.16s-4.29-2.22-4.51-4.72L280,44.27l-2.25-1.42,5.39-11.53,2.13,2.73,3.23,5.84Z"/><path class="cls-2" d="M415.54,174.09s-2.07.46-2.4,1.95-.37,2.11,0,2.49.78.07,1.07.83c0,0-.48-.2-.41,1.68s.63,1.52.63,1.52a6.5,6.5,0,0,1,.07,2c-.13,1.09.13,2.47.46,2.41l1.32-.23v-4.22s.63-.33.63.23a14.75,14.75,0,0,1-.36,3.26c-.26.73.08,1,.08,1s1.08-.28,1.18-.28a11.17,11.17,0,0,0,.55-2.66,15.47,15.47,0,0,0-.26-2.12s1.74-.31.71-3.63-1.2-4.17-1.2-4.17Z"/><path class="cls-5" d="M414.72,176l-.17,1.85s-.36-.39-.36-.63A5.83,5.83,0,0,1,414.72,176Z"/><rect class="cls-2" x="415.12" y="186.54" width="0.93" height="1.55"/><rect class="cls-2" x="413.65" y="187.79" width="6.65" height="1.2"/><path class="cls-2" d="M416,187s1.74.47,1.79.87-2.25.24-2.25.24Z"/><path class="cls-2" d="M416.6,186.67l.15,1.73,2.16.07a1.41,1.41,0,0,0-.38-1.11c-.46-.43-.78-.69-.78-.69Z"/><path class="cls-2" d="M417.49,176l.8.64,1.25-.64s.34-.16,0-.76-.65-1.09-1.14-1.17a8.07,8.07,0,0,0-1.44,0Z"/><path class="cls-2" d="M419.33,175.59a15.49,15.49,0,0,0,.65,2.52c.37,1,.67,2,.19,2.49a1,1,0,0,1-1.18.07.82.82,0,0,1,.41-1c.33-.32-1-3.4-1-3.4Z"/><path class="cls-2" d="M415,172.34a1.46,1.46,0,0,1,1.65-1c1.31.17,1,1,1,1l-.32.23s.12,1-.26,1.28a1.05,1.05,0,0,1-1.28-.17c-.12-.23-.17-.93-.46-1.13Z"/><path class="cls-5" d="M417.09,173.84s0,.86-.57.83c-.32,0-.53-.53-1.17-.52a1.13,1.13,0,0,1,.5-.32A4.59,4.59,0,0,1,417.09,173.84Z"/><path class="cls-5" d="M416.44,173.89a9.58,9.58,0,0,0-.87-1.2.48.48,0,0,0-.33-.44l-.19.1a2.5,2.5,0,0,1,.61.86,1.39,1.39,0,0,0,.27.77C416.12,174.09,416.44,173.89,416.44,173.89Z"/><path class="cls-5" d="M415,172.34a1.44,1.44,0,0,1,1.65-1c1.31.2,1,1,1,1l-.16.12s.34-.79-.82-.95a1.23,1.23,0,0,0-1.44.73"/><rect class="cls-3" x="376.61" y="172.44" width="1.29" height="1.44"/><path class="cls-16" d="M375.24,182.69a4.36,4.36,0,0,1-.27,2.79,3,3,0,0,0,0,2.65s.19-.67.58-.7a12.73,12.73,0,0,0,2,.24c.77-.09,1.08-1,1.11-1.23a8.83,8.83,0,0,0,.82-1.93c0-.65.13-2.6-.49-3S375.24,182.69,375.24,182.69Z"/><path class="cls-3" d="M375.33,182.69a4.36,4.36,0,0,1-.27,2.79,3,3,0,0,0,0,2.65s.19-.67.58-.7a12.73,12.73,0,0,0,2,.24c.77-.09,1.08-1,1.11-1.23a8.83,8.83,0,0,0,.82-1.93c0-.65.13-2.6-.49-3S375.33,182.69,375.33,182.69Z"/><path class="cls-5" d="M379.39,176.67a2.32,2.32,0,0,0,2,.28c.74-.56,1.12-.61,1.23-.42s.16.95-.95,1.34a3.25,3.25,0,0,1-1,.22s.08,2.48-1.08,3.08S379.39,176.67,379.39,176.67Z"/><path class="cls-16" d="M376.91,184.6h-.4c-1.34,0-2.43-2.36-2.43-3.74v-4.45c0-1.39,1.09-3,2.43-3h.4c1.34,0,2.49,1.75,2.49,3.14l-.06,4.92C378,183.42,378.25,184.6,376.91,184.6Z"/><path class="cls-5" d="M377.14,184.6h-.4c-1.34,0-2.43-2.36-2.43-3.74v-4.45c0-1.39,1.09-3,2.43-3h.4c1.34,0,2.49,1.75,2.49,3.14l-.06,4.92C378.18,183.42,378.48,184.6,377.14,184.6Z"/><ellipse class="cls-3" cx="377.3" cy="172.04" rx="0.96" ry="1.17"/><path class="cls-5" d="M375.84,186.8s-.07.77.23,1,.4.19.35.33-1.46.14-1.46.14a2,2,0,0,1,.21-1.4C375.57,186.42,375.84,186.8,375.84,186.8Z"/><rect class="cls-5" x="374.51" y="187.92" width="6.65" height="1.2"/><path class="cls-3" d="M376.14,173.51s.77.68,1,.68h.26s.92-.5.73-.61A13.88,13.88,0,0,0,376.14,173.51Z"/><polygon class="cls-3" points="376.61 173.35 376.14 173.51 377.3 173.88 377.9 173.54 377.3 173.21 376.61 173.35"/><rect class="cls-16" x="376.57" y="172.44" width="1.29" height="1.44"/><ellipse class="cls-16" cx="377.25" cy="172.04" rx="0.96" ry="1.17"/><polygon class="cls-16" points="376.5 173.35 376.03 173.51 377.19 173.88 377.79 173.54 377.19 173.21 376.5 173.35"/><rect class="cls-3" x="376.61" y="172.44" width="1.29" height="1.44"/><ellipse class="cls-3" cx="377.3" cy="172.04" rx="0.96" ry="1.17"/><path class="cls-3" d="M376.09,173.53s.82.66,1.08.66h.26s.92-.5.73-.61A14.29,14.29,0,0,0,376.09,173.53Z"/><polygon class="cls-3" points="376.61 173.35 376.09 173.53 377.3 173.88 377.9 173.54 377.3 173.21 376.61 173.35"/><path class="cls-3" d="M374.85,177.57s1.24,1.1.77,1.88,0,.6,0,.6a5.93,5.93,0,0,0,.11,3.13,2.61,2.61,0,0,1-.9-1.95Z"/><path class="cls-5" d="M379.34,181.77a10,10,0,0,1-1.19,3.79c-.19.44-.2.66,0,.53a9,9,0,0,0,1.59-2.75A9.59,9.59,0,0,0,379.34,181.77Z"/><path class="cls-5" d="M377.3,187s-.15,1.3.31,1.3h1.6s.58-.11-.32-.36a1.3,1.3,0,0,1-1-.95S377.69,186.66,377.3,187Z"/><path class="cls-3" d="M380.65,178.1s.09,2-.72,2.8c-.21,0,.19-.55.19-.55a4.61,4.61,0,0,0,.31-2.25Z"/><rect class="cls-1" x="45.13" y="40.29" width="90.39" height="164.57" transform="translate(180.64 245.16) rotate(-180)"/><rect class="cls-1" x="11.88" y="163.89" width="33.24" height="40.97" transform="translate(57.01 368.76) rotate(-180)"/><rect class="cls-1" x="4.12" y="162.53" width="7.76" height="42.34" transform="translate(16 367.4) rotate(-180)"/><rect class="cls-2" x="4.12" y="191.49" width="7.76" height="9.9" transform="translate(16 392.89) rotate(-180)"/><rect class="cls-28" x="4.12" y="191.49" width="7.76" height="9.9" transform="translate(16 392.89) rotate(-180)"/><rect class="cls-29" x="4.12" y="191.49" width="7.76" height="9.9"/><rect class="cls-30" x="4.12" y="162.53" width="7.76" height="9.9"/><rect class="cls-2" x="11.88" y="160.36" width="33.24" height="3.53" transform="translate(57.01 324.26) rotate(-180)"/><rect class="cls-2" x="3.02" y="160.36" width="8.86" height="2.17" transform="translate(14.9 322.89) rotate(-180)"/><rect class="cls-1" x="5.81" y="159.25" width="5.35" height="1.12" transform="translate(16.98 319.61) rotate(-180)"/><rect class="cls-2" x="5.81" y="158.69" width="5.35" height="0.56" transform="translate(16.98 317.93) rotate(-180)"/><rect class="cls-1" x="6.44" y="154.8" width="4.1" height="3.89" transform="translate(16.98 313.49) rotate(-180)"/><polygon class="cls-20" points="6.44 154.8 10.54 154.8 11.28 154.32 5.7 154.32 6.44 154.8"/><rect class="cls-20" x="5.7" y="154.01" width="5.58" height="0.31" transform="translate(16.98 308.33) rotate(-180)"/><polygon class="cls-20" points="9.67 139.53 7.31 139.53 6.44 154.01 10.54 154.01 9.67 139.53"/><polygon class="cls-16" points="30.21 28.86 42.57 39.03 43.58 39.03 34.18 31.32 30.21 28.86"/><polygon class="cls-20" points="8.27 137.81 8.71 137.81 9.67 139.53 7.31 139.53 8.27 137.81"/><polygon class="cls-5" points="140.87 31.32 34.18 31.32 44.17 40.29 135.51 40.29 140.87 31.32"/><rect class="cls-2" x="24.24" y="169.48" width="15.94" height="12.25" transform="translate(64.42 351.2) rotate(-180)"/><rect class="cls-16" x="26.75" y="171.54" width="10.92" height="7.97" transform="translate(64.42 351.05) rotate(-180)"/><rect class="cls-2" x="3.22" y="188.97" width="9.57" height="0.81" transform="translate(16 378.76) rotate(-180)"/><rect class="cls-2" x="3.22" y="203.13" width="9.57" height="1.74" transform="translate(16 408) rotate(-180)"/><polygon class="cls-2" points="11.88 201.4 4.12 201.4 3.22 203.13 12.79 203.13 11.88 201.4"/><polygon class="cls-31" points="11.88 201.4 4.12 201.4 3.22 203.13 12.79 203.13 11.88 201.4"/><polyline class="cls-2" points="12.79 204.87 12.79 203.13 3.22 203.13"/><polygon class="cls-2" points="12.79 189.79 3.22 189.79 4.12 191.49 11.88 191.49 12.79 189.79"/><rect class="cls-2" x="43.26" y="191.49" width="7.76" height="9.9" transform="translate(94.29 392.89) rotate(-180)"/><rect class="cls-32" x="43.26" y="191.49" width="7.76" height="9.9" transform="translate(94.29 392.89) rotate(-180)"/><rect class="cls-33" x="43.26" y="191.49" width="7.76" height="9.9"/><rect class="cls-2" x="42.36" y="188.97" width="9.57" height="0.81" transform="translate(94.29 378.76) rotate(-180)"/><rect class="cls-2" x="42.36" y="203.13" width="9.57" height="1.74" transform="translate(94.29 408) rotate(-180)"/><polygon class="cls-2" points="51.02 201.4 43.26 201.4 42.36 203.13 51.93 203.13 51.02 201.4"/><polygon class="cls-34" points="51.02 201.4 43.26 201.4 42.36 203.13 51.93 203.13 51.02 201.4"/><polyline class="cls-2" points="51.93 204.87 51.93 203.13 42.36 203.13"/><polygon class="cls-2" points="51.93 189.79 42.36 189.79 43.26 191.49 51.02 191.49 51.93 189.79"/><rect class="cls-2" x="102.56" y="192.77" width="15.54" height="8.82" transform="translate(220.66 394.35) rotate(-180)"/><rect class="cls-16" x="104.47" y="193.85" width="11.72" height="6.65" transform="translate(220.66 394.35) rotate(-180)"/><rect class="cls-5" x="64.24" y="191.49" width="11.2" height="12.51" transform="translate(139.67 395.49) rotate(-180)"/><rect class="cls-2" x="48.43" y="126.13" width="84.6" height="4.35" transform="translate(181.46 256.62) rotate(-180)"/><rect class="cls-2" x="48.43" y="101.62" width="87.42" height="2.77" transform="translate(184.28 206.01) rotate(-180)"/><rect class="cls-2" x="48.43" y="187.14" width="87.42" height="4.35" transform="translate(184.28 378.63) rotate(-180)"/><rect class="cls-3" x="52.5" y="130.23" width="74.36" height="2.64" transform="translate(179.36 263.1) rotate(-180)"/><rect class="cls-3" x="51.28" y="104.14" width="76.81" height="2.64" transform="translate(179.38 210.92) rotate(-180)"/><rect class="cls-3" x="52.24" y="94.85" width="8.14" height="0.93" transform="translate(112.61 190.64) rotate(-180)"/><rect class="cls-3" x="60.38" y="93.97" width="17.73" height="1.54" transform="translate(138.48 189.47) rotate(-180)"/><rect class="cls-3" x="78.45" y="94.85" width="22.33" height="0.77" transform="translate(179.24 190.48) rotate(-180)"/><rect class="cls-3" x="60.38" y="95.5" width="0.65" height="1.26" transform="translate(121.4 192.26) rotate(-180)"/><rect class="cls-3" x="77.73" y="94.85" width="0.72" height="1.87" transform="translate(156.19 191.57) rotate(-180)"/><rect class="cls-3" x="61.3" y="153.24" width="17.67" height="25.56" transform="translate(140.28 332.03) rotate(-180)"/><rect class="cls-10" x="64.5" y="155.9" width="10.73" height="22.91" transform="translate(139.73 334.71) rotate(-180)"/><rect class="cls-5" x="69.24" y="155.9" width="1.19" height="22.91" transform="translate(139.66 334.71) rotate(-180)"/><polygon class="cls-10" points="61.3 153.24 78.98 153.24 79.67 151.14 60.61 151.14 61.3 153.24"/><polygon class="cls-2" points="61.3 149.93 78.98 149.93 79.67 151.14 60.61 151.14 61.3 149.93"/><polygon class="cls-2" points="78.98 149.93 80.91 151.68 79.67 151.14 78.98 149.93"/><polygon class="cls-16" points="80.91 151.68 78.98 153.24 79.67 151.14 80.91 151.68"/><polygon class="cls-2" points="61.3 149.93 59.37 151.68 60.61 151.14 61.3 149.93"/><polygon class="cls-16" points="59.37 151.68 61.3 153.24 60.61 151.14 59.37 151.68"/><rect class="cls-3" x="101.32" y="153.24" width="17.67" height="25.56" transform="translate(220.31 332.03) rotate(-180)"/><rect class="cls-10" x="104.51" y="155.9" width="10.73" height="22.91" transform="translate(219.75 334.71) rotate(-180)"/><rect class="cls-5" x="109.25" y="155.9" width="1.19" height="22.91" transform="translate(219.69 334.71) rotate(-180)"/><polygon class="cls-10" points="101.32 153.24 118.99 153.24 119.68 151.14 100.62 151.14 101.32 153.24"/><polygon class="cls-2" points="101.32 149.93 118.99 149.93 119.68 151.14 100.62 151.14 101.32 149.93"/><polygon class="cls-2" points="118.99 149.93 120.92 151.68 119.68 151.14 118.99 149.93"/><polygon class="cls-16" points="120.92 151.68 118.99 153.24 119.68 151.14 120.92 151.68"/><polygon class="cls-2" points="101.32 149.93 99.38 151.68 100.63 151.14 101.32 149.93"/><polygon class="cls-16" points="99.38 151.68 101.32 153.24 100.62 151.14 99.38 151.68"/><rect class="cls-5" x="50.71" y="54.32" width="77.09" height="1.57" transform="translate(178.51 110.21) rotate(-180)"/><rect class="cls-3" x="118.68" y="94.86" width="9.52" height="0.93"/><rect class="cls-3" x="23.6" y="181.58" width="16.67" height="0.58" transform="translate(63.86 363.74) rotate(-180)"/><rect class="cls-10" x="133.3" y="40.32" width="2.32" height="14" transform="translate(268.92 94.63) rotate(-180)"/><rect class="cls-3" x="53.79" y="180.79" width="72.79" height="0.46" transform="translate(180.38 362.04) rotate(-180)"/><rect class="cls-2" x="50.71" y="52.15" width="83.47" height="2.17" transform="translate(184.89 106.47) rotate(-180)"/><rect class="cls-2" x="118.68" y="93.08" width="9.52" height="1.78"/><rect class="cls-5" x="45.09" y="129.33" width="7.83" height="54.35" transform="translate(98 313.01) rotate(-180)"/><rect class="cls-2" x="43.77" y="130.78" width="10.02" height="4.19" transform="translate(97.56 265.75) rotate(-180)"/><rect class="cls-2" x="43.77" y="136.87" width="10.02" height="4.19" transform="translate(97.56 277.92) rotate(-180)"/><rect class="cls-2" x="43.77" y="142.95" width="10.02" height="4.19" transform="translate(97.56 290.1) rotate(-180)"/><rect class="cls-2" x="43.77" y="149.04" width="10.02" height="4.19" transform="translate(97.56 302.28) rotate(-180)"/><rect class="cls-2" x="43.77" y="155.13" width="10.02" height="4.19" transform="translate(97.56 314.46) rotate(-180)"/><rect class="cls-2" x="43.77" y="161.22" width="10.02" height="4.19" transform="translate(97.56 326.63) rotate(-180)"/><rect class="cls-2" x="43.77" y="167.31" width="10.02" height="4.19" transform="translate(97.56 338.81) rotate(-180)"/><rect class="cls-2" x="43.77" y="173.4" width="10.02" height="4.19" transform="translate(97.56 350.99) rotate(-180)"/><rect class="cls-2" x="43.77" y="179.49" width="10.02" height="4.19" transform="translate(97.56 363.17) rotate(-180)"/><polygon class="cls-5" points="43.77 184.15 53.79 184.15 52.91 183.68 45.09 183.68 43.77 184.15"/><rect class="cls-3" x="45.09" y="128.05" width="7.83" height="1.28" transform="translate(98 257.38) rotate(-180)"/><polygon class="cls-3" points="45.09 128.05 52.91 128.05 54.67 126.35 43.32 126.35 45.09 128.05"/><rect class="cls-16" x="44.8" y="106.15" width="7.22" height="20.2" transform="translate(96.83 232.49) rotate(-180)"/><rect class="cls-2" x="44.71" y="106.15" width="8.21" height="2.93" transform="translate(97.62 215.23) rotate(-180)"/><rect class="cls-2" x="44.71" y="109.45" width="7.37" height="3.1" transform="translate(96.78 222.01) rotate(-180)"/><rect class="cls-2" x="44.71" y="112.88" width="8.21" height="3.37" transform="translate(97.62 229.13) rotate(-180)"/><rect class="cls-2" x="44.71" y="120.05" width="8.21" height="3.37" transform="translate(97.62 243.46) rotate(-180)"/><rect class="cls-2" x="44.71" y="116.63" width="7.37" height="3.1" transform="translate(96.78 236.36) rotate(-180)"/><path class="cls-2" d="M44.25,123.85h8.66a0,0,0,0,1,0,0V126a.37.37,0,0,1-.37.37H44.63a.37.37,0,0,1-.37-.37v-2.12A0,0,0,0,1,44.25,123.85Z" transform="translate(97.17 250.19) rotate(-180)"/><rect class="cls-2" x="43.77" y="184.15" width="10.02" height="5.44" transform="translate(97.56 373.75) rotate(-180)"/><rect class="cls-3" x="45.09" y="105.36" width="6.94" height="0.79" transform="translate(97.11 211.51) rotate(-180)"/><polygon class="cls-10" points="45.11 105.36 52.05 105.36 52.91 103.81 43.32 103.81 45.11 105.36"/><rect class="cls-5" x="50.92" y="92.94" width="0.87" height="6.69" transform="translate(102.71 192.57) rotate(-180)"/><rect class="cls-2" x="43.02" y="101.11" width="9.9" height="2.69" transform="translate(95.93 204.92) rotate(-180)"/><rect class="cls-2" x="44.44" y="92.94" width="7.18" height="1.67" transform="translate(96.07 187.55) rotate(-180)"/><polygon class="cls-10" points="45.02 95.5 51.63 95.5 51.63 94.61 44.44 94.61 45.02 95.5"/><rect class="cls-5" x="51.8" y="99.63" width="0.87" height="1.48" transform="translate(104.47 200.75) rotate(-180)"/><rect class="cls-2" x="45.09" y="99.63" width="7.41" height="1.48" transform="translate(97.59 200.75) rotate(-180)"/><rect class="cls-2" x="45.02" y="95.5" width="6.61" height="4.13" transform="translate(96.65 195.13) rotate(-180)"/><rect class="cls-5" x="50.75" y="52.15" width="0.71" height="40.79" transform="translate(102.21 145.09) rotate(-180)"/><rect class="cls-2" x="45.02" y="52.15" width="6.22" height="40.79" transform="translate(96.26 145.09) rotate(-180)"/><rect class="cls-5" x="126.73" y="129.33" width="7.83" height="54.35"/><rect class="cls-2" x="125.85" y="130.78" width="10.02" height="4.19"/><rect class="cls-2" x="125.85" y="136.87" width="10.02" height="4.19"/><rect class="cls-2" x="125.85" y="142.95" width="10.02" height="4.19"/><rect class="cls-2" x="125.85" y="149.04" width="10.02" height="4.19"/><rect class="cls-2" x="125.85" y="155.13" width="10.02" height="4.19"/><rect class="cls-2" x="125.85" y="161.22" width="10.02" height="4.19"/><rect class="cls-2" x="125.85" y="167.31" width="10.02" height="4.19"/><rect class="cls-2" x="125.85" y="173.4" width="10.02" height="4.19"/><rect class="cls-2" x="125.85" y="179.49" width="10.02" height="4.19"/><polygon class="cls-5" points="135.87 184.15 125.85 184.15 126.73 183.68 134.56 183.68 135.87 184.15"/><rect class="cls-3" x="126.73" y="128.05" width="7.83" height="1.28"/><polygon class="cls-3" points="134.56 128.05 126.73 128.05 124.98 126.35 136.33 126.35 134.56 128.05"/><rect class="cls-16" x="127.62" y="106.15" width="7.22" height="20.2"/><rect class="cls-2" x="126.73" y="106.15" width="8.21" height="2.93"/><rect class="cls-2" x="127.57" y="109.45" width="7.37" height="3.1"/><rect class="cls-2" x="126.73" y="112.88" width="8.21" height="3.37"/><rect class="cls-2" x="126.73" y="120.05" width="8.21" height="3.37"/><rect class="cls-2" x="127.57" y="116.63" width="7.37" height="3.1"/><path class="cls-2" d="M127.11,123.85H135a.37.37,0,0,1,.37.37v2.12a0,0,0,0,1,0,0h-8.66a0,0,0,0,1,0,0v-2.12A.37.37,0,0,1,127.11,123.85Z"/><rect class="cls-2" x="125.85" y="184.15" width="10.02" height="5.44"/><rect class="cls-3" x="127.62" y="105.36" width="6.94" height="0.79"/><polygon class="cls-10" points="134.53 105.36 127.59 105.36 126.73 103.81 136.33 103.81 134.53 105.36"/><rect class="cls-5" x="127.41" y="92.94" width="0.87" height="6.69"/><rect class="cls-2" x="126.73" y="101.11" width="9.9" height="2.69"/><rect class="cls-2" x="127.57" y="92.94" width="7.18" height="1.67"/><polygon class="cls-10" points="133.95 95.5 127.57 95.5 127.57 94.61 134.76 94.61 133.95 95.5"/><rect class="cls-5" x="126.98" y="99.63" width="0.87" height="1.48"/><rect class="cls-2" x="127.15" y="99.63" width="7.41" height="1.48"/><rect class="cls-2" x="127.57" y="95.5" width="6.61" height="4.13"/><rect class="cls-5" x="127.74" y="52.15" width="0.71" height="40.79"/><rect class="cls-2" x="127.96" y="52.15" width="6.22" height="40.79"/><rect class="cls-3" x="126.73" y="101.11" width="9.9" height="0.75"/><rect class="cls-5" x="45.02" y="48.2" width="89.16" height="3.95" transform="translate(179.2 100.35) rotate(-180)"/><rect class="cls-5" x="45.02" y="41.59" width="89.16" height="5.39" transform="translate(179.2 88.57) rotate(-180)"/><polygon class="cls-3" points="135.93 46.98 43.7 46.98 45.02 48.2 134.18 48.2 135.93 46.98"/><polygon class="cls-3" points="137.06 39.04 42.57 39.04 45.02 41.59 134.18 41.59 137.06 39.04"/><rect class="cls-3" x="101.54" y="181.02" width="17.77" height="2.9" transform="translate(220.84 364.94) rotate(-180)"/><rect class="cls-3" x="61.54" y="181.02" width="17.77" height="2.9" transform="translate(140.86 364.94) rotate(-180)"/><rect class="cls-3" x="118.99" y="178.79" width="0.35" height="2.23" transform="translate(238.34 359.81) rotate(-180)"/><rect class="cls-3" x="78.98" y="178.79" width="0.35" height="2.23" transform="translate(158.31 359.81) rotate(-180)"/><rect class="cls-2" x="59.99" y="92.94" width="18.11" height="1.03" transform="translate(138.09 186.9) rotate(-180)"/><rect class="cls-2" x="52.24" y="93.08" width="8.14" height="1.78" transform="translate(112.61 187.93) rotate(-180)"/><rect class="cls-3" x="100.78" y="93.97" width="17.9" height="1.54"/><rect class="cls-3" x="118.36" y="95.51" width="0.65" height="1.26"/><rect class="cls-3" x="100.78" y="94.86" width="0.72" height="1.87"/><rect class="cls-2" x="100.78" y="92.94" width="18.11" height="1.03"/><rect class="cls-2" x="78.1" y="93.08" width="22.68" height="1.78" transform="translate(178.88 187.93) rotate(-180)"/><rect class="cls-5" x="61.03" y="66.77" width="16.38" height="26.17" transform="translate(138.44 159.71) rotate(-180)"/><rect class="cls-2" x="63.75" y="69.83" width="11.28" height="23.11" transform="translate(138.78 162.77) rotate(-180)"/><polygon class="cls-2" points="63.75 69.83 75.03 69.83 75.73 68.45 62.52 68.45 63.75 69.83"/><path class="cls-3" d="M70.85,71.21a.62.62,0,0,1,.57-.42c.43,0,.39.32.75.32s.32-.34.76-.34a.63.63,0,0,1,.57.43h.75V92.09H73.5a.61.61,0,0,1-.57.35c-.43,0-.39-.38-.76-.38s-.32.38-.75.38a.61.61,0,0,1-.57-.35H70V71.21Z"/><path class="cls-3" d="M65.41,71.21A.62.62,0,0,1,66,70.8c.43,0,.39.32.75.32s.32-.34.76-.34a.63.63,0,0,1,.57.43h.75V92.09h-.75a.61.61,0,0,1-.57.35c-.43,0-.39-.38-.76-.38s-.32.38-.75.38a.61.61,0,0,1-.57-.35h-.87V71.21Z"/><polygon class="cls-5" points="62.52 68.45 62.52 92.94 63.75 92.94 63.75 69.83 62.52 68.45"/><polygon class="cls-35" points="62.52 68.45 62.52 92.94 63.75 92.94 63.75 69.83 62.52 68.45"/><rect class="cls-2" x="61.03" y="66.77" width="16.38" height="26.17" transform="translate(138.44 159.71) rotate(-180)"/><rect class="cls-1" x="63.75" y="69.83" width="11.28" height="23.11" transform="translate(138.78 162.77) rotate(-180)"/><polygon class="cls-2" points="63.75 69.83 75.03 69.83 75.73 68.45 62.52 68.45 63.75 69.83"/><path class="cls-3" d="M70.85,71.21a.62.62,0,0,1,.57-.42c.43,0,.39.32.75.32s.32-.34.76-.34a.63.63,0,0,1,.57.43h.75V92.09H73.5a.61.61,0,0,1-.57.35c-.43,0-.39-.38-.76-.38s-.32.38-.75.38a.61.61,0,0,1-.57-.35H70V71.21Z"/><path class="cls-3" d="M65.41,71.21A.62.62,0,0,1,66,70.8c.43,0,.39.32.75.32s.32-.34.76-.34a.63.63,0,0,1,.57.43h.75V92.09h-.75a.61.61,0,0,1-.57.35c-.43,0-.39-.38-.76-.38s-.32.38-.75.38a.61.61,0,0,1-.57-.35h-.87V71.21Z"/><polygon class="cls-2" points="62.52 68.45 62.52 92.94 63.75 92.94 63.75 69.83 62.52 68.45"/><polygon class="cls-36" points="62.52 68.45 62.52 92.94 63.75 92.94 63.75 69.83 62.52 68.45"/><rect class="cls-2" x="101.65" y="66.77" width="16.38" height="26.17" transform="translate(219.67 159.71) rotate(-180)"/><rect class="cls-1" x="104.37" y="69.83" width="11.28" height="23.11" transform="translate(220.02 162.77) rotate(-180)"/><polygon class="cls-2" points="104.37 69.83 115.65 69.83 116.35 68.45 103.14 68.45 104.37 69.83"/><path class="cls-3" d="M111.47,71.21a.62.62,0,0,1,.57-.42c.43,0,.39.32.75.32s.32-.34.76-.34a.63.63,0,0,1,.57.43h.75V92.09h-.75a.61.61,0,0,1-.57.35c-.43,0-.39-.38-.76-.38s-.32.38-.75.38a.61.61,0,0,1-.57-.35h-.87V71.21Z"/><path class="cls-3" d="M106,71.21a.62.62,0,0,1,.57-.42c.43,0,.39.32.75.32s.32-.34.76-.34a.63.63,0,0,1,.57.43h.75V92.09h-.75a.61.61,0,0,1-.57.35c-.43,0-.39-.38-.76-.38s-.32.38-.75.38a.61.61,0,0,1-.57-.35h-.87V71.21Z"/><polygon class="cls-2" points="103.14 68.45 103.14 92.94 104.37 92.94 104.37 69.83 103.14 68.45"/><polygon class="cls-37" points="103.14 68.45 103.14 92.94 104.37 92.94 104.37 69.83 103.14 68.45"/><ellipse class="cls-2" cx="109.68" cy="61.07" rx="5.07" ry="6.7"/><path class="cls-1" d="M107.9,61.37a2.42,2.42,0,0,1,2-1.07h.44a2.46,2.46,0,0,1,2.45,2.45v0a3,3,0,0,1-3.38,1.88c-1.09-.28-1.45-1.32-1.58-2.4C107.84,62,107.87,61.67,107.9,61.37Z"/><rect class="cls-1" x="109.57" y="59.68" width="1.11" height="1.26" transform="translate(220.24 120.63) rotate(-180)"/><ellipse class="cls-1" cx="109.94" cy="58.69" rx="1.02" ry="1.44"/><ellipse class="cls-5" cx="109.54" cy="60.22" rx="3.75" ry="5.11"/><ellipse class="cls-2" cx="68.8" cy="61.07" rx="5.07" ry="6.7"/><path class="cls-1" d="M67,61.37a2.42,2.42,0,0,1,2-1.07h.44a2.46,2.46,0,0,1,2.45,2.45v0a3,3,0,0,1-3.38,1.88c-1.09-.28-1.45-1.32-1.58-2.4C67,62,67,61.67,67,61.37Z"/><rect class="cls-1" x="68.69" y="59.68" width="1.11" height="1.26" transform="translate(138.48 120.63) rotate(-180)"/><ellipse class="cls-1" cx="69.06" cy="58.69" rx="1.02" ry="1.44"/><ellipse class="cls-5" cx="68.66" cy="60.22" rx="3.75" ry="5.11"/><polygon class="cls-16" points="34.18 31.32 140.87 31.32 142.66 28.86 30.21 28.86 34.18 31.32"/><rect class="cls-1" x="85" y="26.91" width="9.57" height="2.05" transform="translate(179.56 55.87) rotate(-180)"/><path class="cls-3" d="M94.71,6.84h.87L97.79,11a5.63,5.63,0,0,1-1,1.45,3.79,3.79,0,0,0-.08,1.23s1,1,.27,1.56-.68.65-.74,1.18a2.23,2.23,0,0,1-.6,1.07V29H93.08s.39-12.62.36-13.46.08-1.15-.65-1.6a7.25,7.25,0,0,1-1.56-2.29l.27-3.44Z"/><path class="cls-5" d="M85.65,12.06h-.71a3.12,3.12,0,0,0-.56-1.57l-.57-.87s-.64-.53-.3-1.06a3.08,3.08,0,0,1,1.32-.87s1.15,0,1,1S85.65,12.06,85.65,12.06Z"/><path class="cls-2" d="M85.33,14.16l-.76-4.09-.68-2.15-.45-1.38s.4-.35,1-.9A1.38,1.38,0,0,1,86,4.8l7,.42L94.9,6.35a9.36,9.36,0,0,0-.81,3.27c0,.57-1.55-.16-1.55-.16s-.88-.3-.65,1.65c.46,1.6,1,3,1,3Z"/><rect class="cls-1" x="85.31" y="13.74" width="8.78" height="13.17" transform="translate(179.41 40.64) rotate(-180)"/><path class="cls-2" d="M86.82,4.8s0-.57.9-.66.94-.37,1-.77a2.36,2.36,0,0,1,1-2A1.83,1.83,0,0,1,92.23,2c.29.86.53,2,.53,2s.08.46.82.78a1.17,1.17,0,0,1,.73,1l-3.69-.59Z"/><rect class="cls-1" x="86.81" y="7.92" width="3.8" height="5.19"/><polygon class="cls-5" points="90.62 7.92 86.81 7.92 86.2 6.72 91.2 6.72 90.62 7.92"/><rect class="cls-1" x="86.2" y="5.98" width="5" height="0.73"/><polygon class="cls-5" points="86.83 13.12 87.73 14.16 91.23 14.16 90.62 13.12 86.83 13.12"/><rect class="cls-5" x="87.73" y="14.16" width="3.48" height="3.04"/><rect class="cls-3" x="86.2" y="5.64" width="5" height="0.34"/><rect class="cls-5" x="86.2" y="4.8" width="5" height="0.84"/><path class="cls-11" d="M140.87,31.32l1.79-2.46,5.07,13.41-2.19,1,6.33,14.43a1.22,1.22,0,0,1-1.13.72L144,44.27Z"/><path class="cls-5" d="M144.18,100.78h-8.7V39.9l10.74,23.26s-1.86,1.61-1.86,5.32S144.18,100.78,144.18,100.78Z"/><path class="cls-10" d="M146.22,63.16s4.29-2.22,4.51-4.72L144,44.27l2.25-1.42-5.36-11.53-2.16,2.73-3.23,5.84Z"/><path class="cls-2" d="M5.87,174.09s2.07.46,2.4,1.95.37,2.11,0,2.49-.78.07-1.07.83c0,0,.48-.2.41,1.68S7,182.56,7,182.56a6.5,6.5,0,0,0-.07,2c.13,1.09-.13,2.47-.46,2.41l-1.32-.23v-4.22s-.63-.33-.63.23A14.75,14.75,0,0,0,4.88,186c.26.73-.08,1-.08,1s-1.08-.28-1.18-.28A11.17,11.17,0,0,1,3.08,184a15.47,15.47,0,0,1,.26-2.12s-1.74-.31-.71-3.63,1.2-4.17,1.2-4.17Z"/><path class="cls-5" d="M6.69,176l.17,1.85s.36-.39.36-.63A5.83,5.83,0,0,0,6.69,176Z"/><rect class="cls-2" x="5.36" y="186.54" width="0.93" height="1.55" transform="translate(11.66 374.64) rotate(-180)"/><rect class="cls-2" x="1.11" y="187.79" width="6.65" height="1.2" transform="translate(8.87 376.78) rotate(-180)"/><path class="cls-2" d="M5.36,187s-1.74.47-1.79.87,2.25.24,2.25.24Z"/><path class="cls-2" d="M4.81,186.67l-.15,1.73-2.16.07a1.41,1.41,0,0,1,.38-1.11c.46-.43.78-.69.78-.69Z"/><path class="cls-2" d="M3.92,176l-.8.64L1.87,176s-.34-.16,0-.76.65-1.09,1.14-1.17a8.07,8.07,0,0,1,1.44,0Z"/><path class="cls-2" d="M2.08,175.59a15.49,15.49,0,0,1-.65,2.52c-.37,1-.67,2-.19,2.49a1,1,0,0,0,1.18.07.82.82,0,0,0-.41-1c-.33-.32,1-3.4,1-3.4Z"/><path class="cls-2" d="M6.37,172.34a1.46,1.46,0,0,0-1.65-1c-1.31.17-1,1-1,1l.32.23s-.12,1,.26,1.28a1.05,1.05,0,0,0,1.28-.17c.12-.23.17-.93.46-1.13Z"/><path class="cls-5" d="M4.32,173.84s0,.86.57.83c.32,0,.53-.53,1.17-.52a1.13,1.13,0,0,0-.5-.32A4.59,4.59,0,0,0,4.32,173.84Z"/><path class="cls-5" d="M5,173.89a9.58,9.58,0,0,1,.87-1.2.48.48,0,0,1,.33-.44l.19.1a2.5,2.5,0,0,0-.61.86,1.39,1.39,0,0,1-.27.77C5.29,174.09,5,173.89,5,173.89Z"/><path class="cls-5" d="M6.37,172.34a1.44,1.44,0,0,0-1.65-1c-1.31.2-1,1-1,1l.16.12s-.34-.79.82-.95a1.23,1.23,0,0,1,1.44.73"/><rect class="cls-3" x="43.51" y="172.44" width="1.29" height="1.44" transform="translate(88.32 346.32) rotate(-180)"/><path class="cls-16" d="M46.17,182.69a4.36,4.36,0,0,0,.27,2.79,3,3,0,0,1,0,2.65s-.19-.67-.58-.7a12.73,12.73,0,0,1-2,.24c-.77-.09-1.08-1-1.11-1.23a8.83,8.83,0,0,1-.82-1.93c0-.65-.13-2.6.49-3S46.17,182.69,46.17,182.69Z"/><path class="cls-3" d="M46.08,182.69a4.36,4.36,0,0,0,.27,2.79,3,3,0,0,1,0,2.65s-.19-.67-.58-.7a12.73,12.73,0,0,1-2,.24c-.77-.09-1.08-1-1.11-1.23a8.83,8.83,0,0,1-.82-1.93c0-.65-.13-2.6.49-3S46.08,182.69,46.08,182.69Z"/><path class="cls-5" d="M42,176.67a2.32,2.32,0,0,1-2,.28c-.74-.56-1.12-.61-1.23-.42s-.16.95.95,1.34a3.25,3.25,0,0,0,1,.22s-.08,2.48,1.08,3.08S42,176.67,42,176.67Z"/><path class="cls-16" d="M44.5,184.6h.4c1.34,0,2.43-2.36,2.43-3.74v-4.45c0-1.39-1.09-3-2.43-3h-.4c-1.34,0-2.49,1.75-2.49,3.14l.06,4.92C43.46,183.42,43.16,184.6,44.5,184.6Z"/><path class="cls-5" d="M44.27,184.6h.4c1.34,0,2.43-2.36,2.43-3.74v-4.45c0-1.39-1.09-3-2.43-3h-.4c-1.34,0-2.49,1.75-2.49,3.14l.06,4.92C43.23,183.42,42.94,184.6,44.27,184.6Z"/><ellipse class="cls-3" cx="44.11" cy="172.04" rx="0.96" ry="1.17"/><path class="cls-5" d="M45.57,186.8s.07.77-.23,1-.4.19-.35.33,1.46.14,1.46.14a2,2,0,0,0-.21-1.4C45.84,186.42,45.57,186.8,45.57,186.8Z"/><rect class="cls-5" x="40.25" y="187.92" width="6.65" height="1.2" transform="translate(87.16 377.04) rotate(-180)"/><path class="cls-3" d="M45.27,173.51s-.77.68-1,.68H44s-.92-.5-.73-.61A13.88,13.88,0,0,1,45.27,173.51Z"/><polygon class="cls-3" points="44.8 173.35 45.27 173.51 44.11 173.88 43.51 173.54 44.11 173.21 44.8 173.35"/><rect class="cls-16" x="43.55" y="172.44" width="1.29" height="1.44" transform="translate(88.39 346.32) rotate(-180)"/><ellipse class="cls-16" cx="44.16" cy="172.04" rx="0.96" ry="1.17"/><polygon class="cls-16" points="44.92 173.35 45.39 173.51 44.22 173.88 43.63 173.54 44.22 173.21 44.92 173.35"/><rect class="cls-3" x="43.51" y="172.44" width="1.29" height="1.44" transform="translate(88.32 346.32) rotate(-180)"/><ellipse class="cls-3" cx="44.11" cy="172.04" rx="0.96" ry="1.17"/><path class="cls-3" d="M45.32,173.53s-.82.66-1.08.66H44s-.92-.5-.73-.61A14.29,14.29,0,0,1,45.32,173.53Z"/><polygon class="cls-3" points="44.8 173.35 45.32 173.53 44.11 173.88 43.51 173.54 44.11 173.21 44.8 173.35"/><path class="cls-3" d="M45,177.57a2.39,2.39,0,0,0,0,1.88l.36.6a17.92,17.92,0,0,1-.69,3.13,5.11,5.11,0,0,0,.32-1.95Z"/><path class="cls-5" d="M42.07,181.77a10,10,0,0,0,1.19,3.79c.19.44.2.66,0,.53a9,9,0,0,1-1.59-2.75A9.59,9.59,0,0,1,42.07,181.77Z"/><path class="cls-5" d="M44.11,187s.15,1.3-.31,1.3H42.2s-.58-.11.32-.36a1.3,1.3,0,0,0,1-.95S43.72,186.66,44.11,187Z"/><path class="cls-3" d="M40.77,178.1s-.09,2,.72,2.8c.21,0-.19-.55-.19-.55A4.61,4.61,0,0,1,41,178.1Z"/><rect class="cls-2" x="291.84" y="197.88" width="3.15" height="3.68"/><polygon class="cls-2" points="295.89 202.68 290.83 202.68 291.83 201.54 294.99 201.56 295.89 202.68"/><rect class="cls-2" x="290.83" y="202.68" width="5.06" height="1.44"/><rect class="cls-1" x="258.29" y="187.49" width="4.02" height="7.59"/><rect class="cls-1" x="157.39" y="187.49" width="4.02" height="7.59"/><rect class="cls-2" x="225.07" y="179.93" width="4.02" height="5.81"/><polygon class="cls-5" points="296.54 204.84 290.83 204.84 290.83 204.12 295.89 204.12 296.54 204.84"/><polygon class="cls-3" points="229.94 178.13 229.94 179.91 292.66 197.8 292.66 196.03 229.94 178.13"/><polygon class="cls-3" points="187.95 178.13 187.95 179.91 125.23 197.8 125.23 196.03 187.95 178.13"/><polygon class="cls-3" points="294.87 197.88 291.83 197.88 291.57 197.45 295.13 197.45 294.87 197.88"/><rect class="cls-3" x="291.57" y="196.57" width="3.57" height="0.88"/><polygon class="cls-3" points="295.88 196.03 290.82 196.03 290.17 195.14 296.53 195.14 295.88 196.03"/><polygon class="cls-3" points="295.13 196.57 291.57 196.57 291.13 196.03 295.57 196.03 295.13 196.57"/><polygon class="cls-5" points="295 197.88 291.95 197.88 291.69 197.45 295.25 197.45 295 197.88"/><rect class="cls-5" x="291.69" y="196.57" width="3.57" height="0.88"/><polygon class="cls-5" points="296 196.03 290.94 196.03 290.29 195.14 296.66 195.14 296 196.03"/><polygon class="cls-5" points="295.25 196.57 291.69 196.57 291.25 196.03 295.69 196.03 295.25 196.57"/><rect class="cls-2" x="123.9" y="197.88" width="3.15" height="3.68" transform="translate(250.95 399.44) rotate(-180)"/><polygon class="cls-2" points="123 202.68 128.06 202.68 127.06 201.54 123.9 201.56 123 202.68"/><rect class="cls-2" x="123" y="202.68" width="5.06" height="1.44" transform="translate(251.06 406.81) rotate(-180)"/><polygon class="cls-5" points="122.35 204.84 128.06 204.84 128.06 204.12 123 204.12 122.35 204.84"/><polygon class="cls-3" points="124.02 197.88 127.06 197.88 127.33 197.45 123.76 197.45 124.02 197.88"/><rect class="cls-3" x="123.76" y="196.57" width="3.57" height="0.88" transform="translate(251.08 394.02) rotate(-180)"/><polygon class="cls-3" points="123.01 196.03 128.07 196.03 128.72 195.14 122.36 195.14 123.01 196.03"/><polygon class="cls-3" points="123.76 196.57 127.33 196.57 127.76 196.03 123.33 196.03 123.76 196.57"/><polygon class="cls-5" points="123.9 197.88 126.94 197.88 127.2 197.45 123.64 197.45 123.9 197.88"/><rect class="cls-5" x="123.64" y="196.57" width="3.57" height="0.88" transform="translate(250.84 394.02) rotate(-180)"/><polygon class="cls-5" points="122.89 196.03 127.95 196.03 128.6 195.14 122.23 195.14 122.89 196.03"/><polygon class="cls-5" points="123.64 196.57 127.2 196.57 127.64 196.03 123.2 196.03 123.64 196.57"/><rect class="cls-1" x="188.33" y="187.49" width="41.98" height="17.36"/><polygon class="cls-1" points="291.2 204.85 230.31 204.85 230.31 187.49 291.2 204.85 291.2 204.85"/><polygon class="cls-1" points="127.43 204.85 188.33 204.85 188.33 187.49 127.43 204.85 127.43 204.85"/><polygon class="cls-5" points="230.31 185.31 230.31 187.49 291.2 204.85 291.2 202.68 230.31 185.31"/><rect class="cls-2" x="215.51" y="179.93" width="4.02" height="5.81"/><polygon class="cls-5" points="188.33 185.31 188.33 187.49 127.43 204.85 127.43 202.68 188.33 185.31"/><rect class="cls-2" x="199.85" y="179.93" width="4.02" height="5.81"/><rect class="cls-2" x="190.28" y="179.93" width="4.02" height="5.81"/><rect class="cls-5" x="188.33" y="185.32" width="41.98" height="2.18"/><rect class="cls-3" x="187.95" y="178.13" width="41.98" height="1.8"/><polygon class="cls-3" points="291.25 196.03 290.88 196.03 290.82 196.03 290.88 196.1 291.31 196.1 291.25 196.03"/><polygon class="cls-5" points="219.52 179.93 215.51 179.93 214.67 178.13 220.37 178.13 219.52 179.93"/><polygon class="cls-2" points="215.51 179.93 216.12 181.55 218.82 181.55 219.52 179.93 215.51 179.93"/><polygon class="cls-38" points="215.51 179.93 216.12 181.55 218.82 181.55 219.52 179.93 215.51 179.93"/><polygon class="cls-5" points="229.09 179.93 225.07 179.93 224.24 178.13 229.94 178.13 229.09 179.93"/><polygon class="cls-2" points="225.07 179.93 225.69 181.55 228.39 181.55 229.09 179.93 225.07 179.93"/><polygon class="cls-39" points="225.07 179.93 225.69 181.55 228.39 181.55 229.09 179.93 225.07 179.93"/><polygon class="cls-5" points="194.3 179.93 190.28 179.93 189.44 178.13 195.14 178.13 194.3 179.93"/><polygon class="cls-2" points="190.28 179.93 190.9 181.55 193.6 181.55 194.3 179.93 190.28 179.93"/><polygon class="cls-40" points="190.28 179.93 190.9 181.55 193.6 181.55 194.3 179.93 190.28 179.93"/><polygon class="cls-5" points="203.87 179.93 199.85 179.93 199.01 178.13 204.71 178.13 203.87 179.93"/><polygon class="cls-2" points="199.85 179.93 200.47 181.55 203.17 181.55 203.87 179.93 199.85 179.93"/><polygon class="cls-41" points="199.85 179.93 200.47 181.55 203.17 181.55 203.87 179.93 199.85 179.93"/><rect class="cls-3" x="125.41" y="128.25" width="173.25" height="2.28"/><polygon class="cls-3" points="298.66 128.25 125.41 128.25 123.89 125.97 300.16 125.97 298.66 128.25"/></svg>