<svg id="Layer_1" data-name="Layer 1" xmlns="http://www.w3.org/2000/svg" viewBox="0 0 253 209"><defs><style>.cls-1{fill:#00385d;}.cls-2{fill:#ffeb7a;}.cls-3{fill:#4d4d4d;}.cls-4{fill:#ff5c5c;}.cls-5{fill:#09f;}.cls-6{fill:#ffd800;}.cls-7{fill:#f2f2f2;}.cls-8{fill:#1a1a1a;}</style></defs><title>Untitled-1</title><polygon class="cls-1" points="85.37 125.66 59.13 125.66 72.25 114.53 72.52 114.77 85.37 125.66"/><rect class="cls-1" x="59.13" y="125.35" width="26.23" height="15.63"/><polygon class="cls-2" points="85.37 125.66 72.6 125.66 72.6 114.68 72.52 114.68 85.37 125.66"/><rect class="cls-2" x="51.16" y="134.64" width="42.54" height="28.68"/><rect class="cls-2" x="48.52" y="163.47" width="49.67" height="38.27"/><rect class="cls-3" x="51.97" y="138.66" width="9.79" height="2.42"/><rect class="cls-4" x="71.02" y="138.66" width="21.01" height="2.42"/><rect class="cls-3" x="64.68" y="138.66" width="4.2" height="2.42"/><rect class="cls-3" x="51.97" y="144.77" width="9.79" height="2.42"/><rect class="cls-4" x="71.02" y="144.77" width="21.01" height="2.42"/><rect class="cls-3" x="64.68" y="144.77" width="4.2" height="2.42"/><rect class="cls-3" x="51.97" y="150.9" width="9.79" height="2.42"/><rect class="cls-4" x="71.02" y="150.9" width="21.01" height="2.42"/><rect class="cls-3" x="64.68" y="150.9" width="4.2" height="2.42"/><rect class="cls-3" x="51.97" y="157.02" width="9.79" height="2.42"/><rect class="cls-4" x="71.02" y="157.02" width="21.01" height="2.42"/><rect class="cls-3" x="64.68" y="157.02" width="4.2" height="2.42"/><rect class="cls-4" x="51.97" y="167.84" width="7.76" height="2.61"/><rect class="cls-4" x="51.97" y="173.6" width="7.76" height="2.61"/><rect class="cls-4" x="51.97" y="179.36" width="7.76" height="2.61"/><rect class="cls-4" x="51.97" y="185.12" width="7.76" height="2.61"/><rect class="cls-4" x="51.97" y="190.88" width="7.76" height="2.61"/><rect class="cls-4" x="51.97" y="196.63" width="7.76" height="2.61"/><rect class="cls-4" x="62.87" y="163.33" width="1.05" height="38.42"/><rect class="cls-4" x="69.06" y="167.5" width="15.02" height="2.34"/><rect class="cls-4" x="69.06" y="173.74" width="15.02" height="2.34"/><rect class="cls-4" x="69.06" y="179.96" width="15.02" height="2.34"/><rect class="cls-4" x="69.06" y="186.2" width="15.02" height="2.34"/><rect class="cls-4" x="69.06" y="192.43" width="15.02" height="2.34"/><rect class="cls-4" x="69.06" y="198.18" width="15.02" height="2.34"/><rect class="cls-3" x="86.62" y="167.09" width="3.68" height="2.05"/><rect class="cls-3" x="86.62" y="172.3" width="3.68" height="2.05"/><rect class="cls-3" x="86.62" y="177.51" width="3.68" height="2.05"/><rect class="cls-3" x="86.62" y="182.72" width="3.68" height="2.05"/><rect class="cls-3" x="86.62" y="187.92" width="3.68" height="2.05"/><rect class="cls-3" x="86.62" y="193.13" width="3.68" height="2.05"/><rect class="cls-3" x="86.62" y="198.34" width="3.68" height="2.05"/><rect class="cls-3" x="91.86" y="167.08" width="3.68" height="2.05"/><rect class="cls-3" x="91.86" y="172.28" width="3.68" height="2.05"/><rect class="cls-3" x="91.86" y="177.49" width="3.68" height="2.05"/><rect class="cls-3" x="91.86" y="182.7" width="3.68" height="2.05"/><rect class="cls-3" x="91.86" y="187.91" width="3.68" height="2.05"/><rect class="cls-3" x="91.86" y="193.11" width="3.68" height="2.05"/><rect class="cls-3" x="91.86" y="198.32" width="3.68" height="2.05"/><rect class="cls-4" x="100.08" y="74.57" width="29.11" height="131.42"/><rect class="cls-5" x="96.84" y="84.91" width="35.67" height="121.08"/><path class="cls-4" d="M129.45,100.3H100.61c4-11.16,7.5-22.46,5.27-35.43h17.93C122,75.69,124.9,87.77,129.45,100.3Z"/><polygon class="cls-1" points="118.92 97.65 110.54 97.65 106.65 104.82 106.65 205.84 123.12 205.84 123.12 104.82 118.92 97.65"/><rect class="cls-3" x="96.84" y="84.91" width="35.67" height="3.4"/><rect class="cls-3" x="100.08" y="74.57" width="29.92" height="3.4"/><rect class="cls-6" x="123.73" y="119.59" width="8.24" height="2.56"/><rect class="cls-6" x="123.73" y="128.15" width="8.24" height="2.56"/><rect class="cls-6" x="113.55" y="42.47" width="2.15" height="32.1"/><rect class="cls-6" x="123.73" y="136.71" width="8.24" height="2.56"/><rect class="cls-6" x="123.73" y="145.26" width="8.24" height="2.56"/><rect class="cls-6" x="123.73" y="153.82" width="8.24" height="2.56"/><rect class="cls-6" x="123.73" y="162.38" width="8.24" height="2.56"/><rect class="cls-6" x="123.73" y="170.94" width="8.24" height="2.56"/><rect class="cls-6" x="123.73" y="179.49" width="8.24" height="2.56"/><rect class="cls-6" x="123.73" y="188.05" width="8.24" height="2.56"/><rect class="cls-6" x="123.73" y="196.61" width="8.24" height="2.56"/><rect class="cls-6" x="97.31" y="119.59" width="8.24" height="2.56"/><rect class="cls-6" x="97.31" y="128.15" width="8.24" height="2.56"/><rect class="cls-6" x="97.31" y="136.71" width="8.24" height="2.56"/><rect class="cls-6" x="97.31" y="145.26" width="8.24" height="2.56"/><rect class="cls-6" x="97.31" y="153.82" width="8.24" height="2.56"/><rect class="cls-6" x="97.31" y="162.38" width="8.24" height="2.56"/><rect class="cls-6" x="97.31" y="170.94" width="8.24" height="2.56"/><rect class="cls-6" x="97.31" y="179.49" width="8.24" height="2.56"/><rect class="cls-6" x="97.31" y="188.05" width="8.24" height="2.56"/><rect class="cls-6" x="97.31" y="196.61" width="8.24" height="2.56"/><rect class="cls-5" x="110.92" y="119.77" width="8.24" height="2.56"/><rect class="cls-5" x="110.92" y="128.33" width="8.24" height="2.56"/><rect class="cls-5" x="110.92" y="136.88" width="8.24" height="2.56"/><rect class="cls-5" x="110.92" y="145.44" width="8.24" height="2.56"/><rect class="cls-5" x="110.92" y="154" width="8.24" height="2.56"/><rect class="cls-5" x="110.92" y="162.56" width="8.24" height="2.56"/><rect class="cls-5" x="110.92" y="171.11" width="8.24" height="2.56"/><rect class="cls-5" x="110.92" y="179.67" width="8.24" height="2.56"/><rect class="cls-5" x="110.92" y="188.23" width="8.24" height="2.56"/><rect class="cls-5" x="110.92" y="196.79" width="8.24" height="2.56"/><rect class="cls-5" x="110.92" y="105.17" width="8.24" height="11.88"/><rect class="cls-6" x="103.48" y="79.51" width="4.31" height="4.31"/><rect class="cls-6" x="109.58" y="79.51" width="4.31" height="4.31"/><rect class="cls-6" x="115.71" y="79.51" width="4.31" height="4.31"/><rect class="cls-6" x="121.65" y="79.51" width="4.31" height="4.31"/><polygon class="cls-4" points="191.22 64.15 191.22 209.13 118.73 209.13 118.73 64.15 127.52 64.15 127.52 28.46 134.1 28.46 134.1 1 175.84 1 175.84 28.46 181.33 28.46 181.33 64.15 191.22 64.15"/><rect class="cls-5" x="151.11" y="18.8" width="7.56" height="5.2"/><rect class="cls-5" x="150.49" y="38.21" width="8.68" height="5.96"/><rect class="cls-5" x="150.49" y="47.69" width="8.68" height="5.96"/><rect class="cls-5" x="150.49" y="76.17" width="8.68" height="5.96"/><rect class="cls-5" x="150.49" y="85.66" width="8.68" height="5.96"/><rect class="cls-5" x="150.49" y="95.15" width="8.68" height="5.96"/><rect class="cls-5" x="150.49" y="104.64" width="8.68" height="5.96"/><rect class="cls-5" x="150.49" y="114.13" width="8.68" height="5.96"/><rect class="cls-5" x="150.49" y="123.62" width="8.68" height="5.96"/><rect class="cls-5" x="150.49" y="133.11" width="8.68" height="5.96"/><rect class="cls-5" x="150.49" y="142.59" width="8.68" height="5.96"/><rect class="cls-5" x="150.49" y="152.08" width="8.68" height="5.96"/><rect class="cls-5" x="150.49" y="161.57" width="8.68" height="5.96"/><rect class="cls-5" x="150.49" y="171.07" width="8.68" height="5.96"/><rect class="cls-5" x="150.49" y="180.56" width="8.68" height="5.96"/><rect class="cls-7" x="146.15" y="190.05" width="8.68" height="19.04"/><rect class="cls-7" x="154.83" y="190.05" width="8.68" height="19.04"/><rect class="cls-8" x="164.18" y="27.55" width="17.44" height="35.61"/><rect class="cls-8" x="127.72" y="27.98" width="17.44" height="35.17"/><rect class="cls-5" x="133.89" y="70.06" width="8.81" height="2.85"/><rect class="cls-5" x="133.89" y="75.76" width="8.81" height="2.85"/><rect class="cls-5" x="133.89" y="81.46" width="8.81" height="2.85"/><rect class="cls-5" x="133.89" y="87.17" width="8.81" height="2.85"/><rect class="cls-5" x="133.89" y="92.87" width="8.81" height="2.85"/><rect class="cls-5" x="133.89" y="98.57" width="8.81" height="2.85"/><rect class="cls-5" x="133.89" y="104.27" width="8.81" height="2.85"/><rect class="cls-5" x="133.89" y="109.97" width="8.81" height="2.85"/><rect class="cls-5" x="133.89" y="115.68" width="8.81" height="2.85"/><rect class="cls-5" x="133.89" y="121.38" width="8.81" height="2.85"/><rect class="cls-5" x="133.89" y="127.08" width="8.81" height="2.85"/><rect class="cls-5" x="133.89" y="132.79" width="8.81" height="2.85"/><rect class="cls-5" x="133.89" y="138.49" width="8.81" height="2.85"/><rect class="cls-5" x="133.89" y="144.19" width="8.81" height="2.85"/><rect class="cls-5" x="133.89" y="149.89" width="8.81" height="2.85"/><rect class="cls-5" x="133.89" y="155.59" width="8.81" height="2.85"/><rect class="cls-5" x="133.89" y="161.29" width="8.81" height="2.85"/><rect class="cls-5" x="133.89" y="167" width="8.81" height="2.85"/><rect class="cls-5" x="133.89" y="172.7" width="8.81" height="2.85"/><rect class="cls-5" x="133.89" y="178.4" width="8.81" height="2.85"/><rect class="cls-5" x="133.89" y="184.11" width="8.81" height="2.85"/><rect class="cls-5" x="133.89" y="189.81" width="8.81" height="2.85"/><rect class="cls-5" x="133.89" y="195.51" width="8.81" height="2.85"/><rect class="cls-5" x="167" y="68.98" width="9.22" height="2.98"/><rect class="cls-5" x="167" y="74.94" width="9.22" height="2.98"/><rect class="cls-5" x="167" y="80.91" width="9.22" height="2.98"/><rect class="cls-5" x="167" y="86.88" width="9.22" height="2.98"/><rect class="cls-5" x="167" y="92.84" width="9.22" height="2.98"/><rect class="cls-5" x="167" y="98.8" width="9.22" height="2.98"/><rect class="cls-5" x="167" y="104.77" width="9.22" height="2.98"/><rect class="cls-5" x="167" y="110.74" width="9.22" height="2.98"/><rect class="cls-5" x="167" y="116.7" width="9.22" height="2.98"/><rect class="cls-5" x="167" y="122.67" width="9.22" height="2.98"/><rect class="cls-5" x="167" y="128.64" width="9.22" height="2.98"/><rect class="cls-5" x="167" y="134.6" width="9.22" height="2.98"/><rect class="cls-5" x="167" y="140.56" width="9.22" height="2.98"/><rect class="cls-5" x="167" y="146.53" width="9.22" height="2.98"/><rect class="cls-5" x="167" y="152.49" width="9.22" height="2.98"/><rect class="cls-5" x="167" y="158.46" width="9.22" height="2.98"/><rect class="cls-5" x="167" y="164.42" width="9.22" height="2.98"/><rect class="cls-5" x="167" y="170.39" width="9.22" height="2.98"/><rect class="cls-5" x="167" y="176.35" width="9.22" height="2.98"/><rect class="cls-5" x="167" y="182.32" width="9.22" height="2.98"/><rect class="cls-5" x="167" y="188.28" width="9.22" height="2.98"/><rect class="cls-5" x="167" y="194.25" width="9.22" height="2.98"/><rect class="cls-5" x="167" y="200.21" width="9.22" height="2.98"/><rect class="cls-5" x="133.69" y="200.21" width="9.22" height="2.98"/><rect class="cls-7" x="133.69" y="35.88" width="9.22" height="18.98"/><rect class="cls-7" x="136.46" y="20.93" width="8.04" height="2.6"/><rect class="cls-7" x="167" y="35.88" width="9.22" height="18.98"/><rect class="cls-7" x="165.5" y="20.93" width="8.04" height="2.6"/><rect class="cls-3" x="122.45" y="70.03" width="4.46" height="5.9"/><rect class="cls-3" x="122.45" y="79.19" width="4.46" height="5.9"/><rect class="cls-3" x="122.45" y="88.37" width="4.46" height="5.9"/><rect class="cls-3" x="122.45" y="97.54" width="4.46" height="5.9"/><rect class="cls-3" x="122.45" y="106.7" width="4.46" height="5.9"/><rect class="cls-3" x="122.45" y="115.87" width="4.46" height="5.9"/><rect class="cls-3" x="122.45" y="125.04" width="4.46" height="5.9"/><rect class="cls-3" x="122.45" y="134.21" width="4.46" height="5.9"/><rect class="cls-3" x="122.45" y="143.38" width="4.46" height="5.9"/><rect class="cls-3" x="122.45" y="152.55" width="4.46" height="5.9"/><rect class="cls-3" x="122.45" y="162.52" width="4.46" height="5.9"/><rect class="cls-3" x="122.45" y="172.49" width="4.46" height="5.9"/><rect class="cls-8" x="118.45" y="63.18" width="72.76" height="3.55"/><rect class="cls-3" x="122.45" y="182.46" width="4.46" height="5.9"/><rect class="cls-3" x="182.27" y="70.03" width="4.46" height="5.9"/><rect class="cls-3" x="182.27" y="79.19" width="4.46" height="5.9"/><rect class="cls-3" x="182.27" y="88.37" width="4.46" height="5.9"/><rect class="cls-3" x="182.27" y="97.54" width="4.46" height="5.9"/><rect class="cls-3" x="182.27" y="106.7" width="4.46" height="5.9"/><rect class="cls-3" x="182.27" y="115.87" width="4.46" height="5.9"/><rect class="cls-3" x="182.27" y="125.04" width="4.46" height="5.9"/><rect class="cls-3" x="182.27" y="134.21" width="4.46" height="5.9"/><rect class="cls-3" x="182.27" y="143.38" width="4.46" height="5.9"/><rect class="cls-3" x="182.27" y="152.55" width="4.46" height="5.9"/><rect class="cls-3" x="182.27" y="162.52" width="4.46" height="5.9"/><rect class="cls-3" x="182.27" y="172.49" width="4.46" height="5.9"/><rect class="cls-3" x="182.27" y="182.46" width="4.46" height="5.9"/><rect class="cls-5" x="150.52" y="3.49" width="8.04" height="9.92"/><rect class="cls-5" x="138.86" y="3.49" width="8.04" height="9.92"/><rect class="cls-5" x="161.48" y="3.49" width="8.04" height="9.92"/><rect class="cls-8" x="136.44" y="11.86" width="37.12" height="3.1"/><polygon class="cls-8" points="191.22 185.44 191.22 209.13 179.34 209.13 191.22 185.44"/><polygon class="cls-8" points="131.48 209.13 118.73 209.13 118.73 183.12 131.48 209.13"/><rect class="cls-8" x="177.45" y="64.1" width="3.09" height="144.99"/><rect class="cls-8" x="129.54" y="64.1" width="3.09" height="144.99"/><polygon class="cls-2" points="251.07 64.15 251.07 209.13 178.59 209.13 178.59 64.15 187.37 64.15 187.37 28.46 193.96 28.46 193.96 1 235.7 1 235.7 28.46 241.19 28.46 241.19 64.15 251.07 64.15"/><rect class="cls-5" x="210.29" y="18.8" width="7.56" height="5.2"/><rect class="cls-5" x="210.35" y="38.21" width="8.68" height="5.96"/><rect class="cls-5" x="210.35" y="47.69" width="8.68" height="5.96"/><rect class="cls-5" x="210.35" y="76.17" width="8.68" height="5.96"/><rect class="cls-5" x="210.35" y="85.66" width="8.68" height="5.96"/><rect class="cls-5" x="210.35" y="95.15" width="8.68" height="5.96"/><rect class="cls-5" x="210.35" y="104.64" width="8.68" height="5.96"/><rect class="cls-5" x="210.35" y="114.13" width="8.68" height="5.96"/><rect class="cls-5" x="210.35" y="123.62" width="8.68" height="5.96"/><rect class="cls-5" x="210.35" y="133.11" width="8.68" height="5.96"/><rect class="cls-5" x="210.35" y="142.59" width="8.68" height="5.96"/><rect class="cls-5" x="210.35" y="152.08" width="8.68" height="5.96"/><rect class="cls-5" x="210.35" y="161.57" width="8.68" height="5.96"/><rect class="cls-5" x="210.35" y="171.07" width="8.68" height="5.96"/><rect class="cls-5" x="210.35" y="180.56" width="8.68" height="5.96"/><rect class="cls-7" x="206.01" y="190.05" width="8.68" height="19.04"/><rect class="cls-7" x="214.69" y="190.05" width="8.68" height="19.04"/><rect class="cls-8" x="224.03" y="27.55" width="17.44" height="35.61"/><rect class="cls-8" x="187.58" y="27.98" width="17.44" height="35.17"/><rect class="cls-5" x="193.75" y="70.06" width="8.81" height="2.85"/><rect class="cls-5" x="193.75" y="75.76" width="8.81" height="2.85"/><rect class="cls-5" x="193.75" y="81.46" width="8.81" height="2.85"/><rect class="cls-5" x="193.75" y="87.17" width="8.81" height="2.85"/><rect class="cls-5" x="193.75" y="92.87" width="8.81" height="2.85"/><rect class="cls-5" x="193.75" y="98.57" width="8.81" height="2.85"/><rect class="cls-5" x="193.75" y="104.27" width="8.81" height="2.85"/><rect class="cls-5" x="193.75" y="109.97" width="8.81" height="2.85"/><rect class="cls-5" x="193.75" y="115.68" width="8.81" height="2.85"/><rect class="cls-5" x="193.75" y="121.38" width="8.81" height="2.85"/><rect class="cls-5" x="193.75" y="127.08" width="8.81" height="2.85"/><rect class="cls-5" x="193.75" y="132.79" width="8.81" height="2.85"/><rect class="cls-5" x="193.75" y="138.49" width="8.81" height="2.85"/><rect class="cls-5" x="193.75" y="144.19" width="8.81" height="2.85"/><rect class="cls-5" x="193.75" y="149.89" width="8.81" height="2.85"/><rect class="cls-5" x="193.75" y="155.59" width="8.81" height="2.85"/><rect class="cls-5" x="193.75" y="161.29" width="8.81" height="2.85"/><rect class="cls-5" x="193.75" y="167" width="8.81" height="2.85"/><rect class="cls-5" x="193.75" y="172.7" width="8.81" height="2.85"/><rect class="cls-5" x="193.75" y="178.4" width="8.81" height="2.85"/><rect class="cls-5" x="193.75" y="184.11" width="8.81" height="2.85"/><rect class="cls-5" x="193.75" y="189.81" width="8.81" height="2.85"/><rect class="cls-5" x="193.75" y="195.51" width="8.81" height="2.85"/><rect class="cls-5" x="226.86" y="68.98" width="9.22" height="2.98"/><rect class="cls-5" x="226.86" y="74.94" width="9.22" height="2.98"/><rect class="cls-5" x="226.86" y="80.91" width="9.22" height="2.98"/><rect class="cls-5" x="226.86" y="86.88" width="9.22" height="2.98"/><rect class="cls-5" x="226.86" y="92.84" width="9.22" height="2.98"/><rect class="cls-5" x="226.86" y="98.8" width="9.22" height="2.98"/><rect class="cls-5" x="226.86" y="104.77" width="9.22" height="2.98"/><rect class="cls-5" x="226.86" y="110.74" width="9.22" height="2.98"/><rect class="cls-5" x="226.86" y="116.7" width="9.22" height="2.98"/><rect class="cls-5" x="226.86" y="122.67" width="9.22" height="2.98"/><rect class="cls-5" x="226.86" y="128.64" width="9.22" height="2.98"/><rect class="cls-5" x="226.86" y="134.6" width="9.22" height="2.98"/><rect class="cls-5" x="226.86" y="140.56" width="9.22" height="2.98"/><rect class="cls-5" x="226.86" y="146.53" width="9.22" height="2.98"/><rect class="cls-5" x="226.86" y="152.49" width="9.22" height="2.98"/><rect class="cls-5" x="226.86" y="158.46" width="9.22" height="2.98"/><rect class="cls-5" x="226.86" y="164.42" width="9.22" height="2.98"/><rect class="cls-5" x="226.86" y="170.39" width="9.22" height="2.98"/><rect class="cls-5" x="226.86" y="176.35" width="9.22" height="2.98"/><rect class="cls-5" x="226.86" y="182.32" width="9.22" height="2.98"/><rect class="cls-5" x="226.86" y="188.28" width="9.22" height="2.98"/><rect class="cls-5" x="226.86" y="194.25" width="9.22" height="2.98"/><rect class="cls-5" x="226.86" y="200.21" width="9.22" height="2.98"/><rect class="cls-5" x="193.55" y="200.21" width="9.22" height="2.98"/><rect class="cls-7" x="193.55" y="35.88" width="9.22" height="18.98"/><rect class="cls-7" x="195.64" y="20.93" width="8.04" height="2.6"/><rect class="cls-7" x="226.86" y="35.88" width="9.22" height="18.98"/><rect class="cls-7" x="224.69" y="20.93" width="8.04" height="2.6"/><rect class="cls-3" x="182.31" y="70.03" width="4.46" height="5.9"/><rect class="cls-3" x="182.31" y="79.19" width="4.46" height="5.9"/><rect class="cls-3" x="182.31" y="88.37" width="4.46" height="5.9"/><rect class="cls-3" x="182.31" y="97.54" width="4.46" height="5.9"/><rect class="cls-3" x="182.31" y="106.7" width="4.46" height="5.9"/><rect class="cls-3" x="182.31" y="115.87" width="4.46" height="5.9"/><rect class="cls-3" x="182.31" y="125.04" width="4.46" height="5.9"/><rect class="cls-3" x="182.31" y="134.21" width="4.46" height="5.9"/><rect class="cls-3" x="182.31" y="143.38" width="4.46" height="5.9"/><rect class="cls-3" x="182.31" y="152.55" width="4.46" height="5.9"/><rect class="cls-3" x="182.31" y="162.52" width="4.46" height="5.9"/><rect class="cls-3" x="182.31" y="172.49" width="4.46" height="5.9"/><rect class="cls-8" x="178.31" y="63.18" width="72.76" height="3.55"/><rect class="cls-3" x="182.31" y="182.46" width="4.46" height="5.9"/><rect class="cls-3" x="242.12" y="70.03" width="4.46" height="5.9"/><rect class="cls-3" x="242.12" y="79.19" width="4.46" height="5.9"/><rect class="cls-3" x="242.12" y="88.37" width="4.46" height="5.9"/><rect class="cls-3" x="242.12" y="97.54" width="4.46" height="5.9"/><rect class="cls-3" x="242.12" y="106.7" width="4.46" height="5.9"/><rect class="cls-3" x="242.12" y="115.87" width="4.46" height="5.9"/><rect class="cls-3" x="242.12" y="125.04" width="4.46" height="5.9"/><rect class="cls-3" x="242.12" y="134.21" width="4.46" height="5.9"/><rect class="cls-3" x="242.12" y="143.38" width="4.46" height="5.9"/><rect class="cls-3" x="242.12" y="152.55" width="4.46" height="5.9"/><rect class="cls-3" x="242.12" y="162.52" width="4.46" height="5.9"/><rect class="cls-3" x="242.12" y="172.49" width="4.46" height="5.9"/><rect class="cls-3" x="242.12" y="182.46" width="4.46" height="5.9"/><rect class="cls-5" x="209.71" y="3.49" width="8.04" height="9.92"/><rect class="cls-5" x="198.04" y="3.49" width="8.04" height="9.92"/><rect class="cls-5" x="220.67" y="3.49" width="8.04" height="9.92"/><rect class="cls-8" x="195.63" y="11.86" width="37.12" height="3.1"/><polygon class="cls-8" points="251.07 185.44 251.07 209.13 239.2 209.13 251.07 185.44"/><polygon class="cls-8" points="191.34 209.13 178.59 209.13 178.59 183.12 191.34 209.13"/><rect class="cls-8" x="237.31" y="64.1" width="3.09" height="144.99"/><rect class="cls-8" x="189.39" y="64.1" width="3.09" height="144.99"/><path class="cls-3" d="M58.79,161.56c-30.41,0-55.17,21.16-56.11,47.57h112.2c-.94-26.41-25.71-47.57-56.11-47.57"/><path class="cls-5" d="M98.88,208.4c-.68-18.87-18.36-34-40.09-34s-39.41,15.12-40.09,34Z"/><path class="cls-1" d="M52,185.52c-.1,2.75-2.88,5.32-6.28,5.32s-6.17-2.58-6.28-5.32h1.79a4.55,4.55,0,0,0,9,0Z"/><path class="cls-1" d="M63,185.52c-.1,2.75-2.88,5.32-6.28,5.32s-6.17-2.58-6.27-5.32h1.79a4.55,4.55,0,0,0,9,0Z"/><path class="cls-3" d="M145,161.11c-30.41,0-55.17,21.16-56.11,47.57H201.1c-.94-26.41-25.71-47.57-56.11-47.57"/><path class="cls-5" d="M185.09,208.95c-.68-18.87-18.36-34-40.09-34s-39.41,15.12-40.09,34Z"/><path class="cls-8" d="M138.22,186.07c-.1,2.75-2.88,5.32-6.28,5.32s-6.17-2.58-6.28-5.32h1.79a4.55,4.55,0,0,0,9,0Z"/><path class="cls-8" d="M149.17,186.07c-.1,2.75-2.88,5.32-6.28,5.32s-6.17-2.58-6.27-5.32h1.79a4.55,4.55,0,0,0,9,0Z"/><path class="cls-8" d="M166,194.85c-.1,2.75-2.88,5.32-6.28,5.32s-6.17-2.58-6.28-5.32h1.79a4.55,4.55,0,0,0,9,0Z"/><path class="cls-8" d="M177,194.85c-.1,2.75-2.88,5.32-6.28,5.32s-6.17-2.58-6.27-5.32h1.79a4.55,4.55,0,0,0,9,0Z"/><polygon class="cls-1" points="200.69 103.14 174.46 103.14 187.58 92.02 187.84 92.26 200.69 103.14"/><rect class="cls-1" x="174.46" y="102.83" width="26.23" height="15.63"/><polygon class="cls-2" points="200.69 103.14 187.92 103.14 187.92 92.16 187.84 92.16 200.69 103.14"/><rect class="cls-2" x="166.48" y="112.13" width="42.54" height="28.68"/><rect class="cls-2" x="163.85" y="140.96" width="49.67" height="68.33"/><rect class="cls-3" x="167.3" y="116.14" width="9.79" height="2.42"/><rect class="cls-4" x="186.34" y="116.14" width="21.01" height="2.42"/><rect class="cls-3" x="180" y="116.14" width="4.2" height="2.42"/><rect class="cls-3" x="167.3" y="122.26" width="9.79" height="2.42"/><rect class="cls-4" x="186.34" y="122.26" width="21.01" height="2.42"/><rect class="cls-3" x="180" y="122.26" width="4.2" height="2.42"/><rect class="cls-3" x="167.3" y="128.38" width="9.79" height="2.42"/><rect class="cls-4" x="186.34" y="128.38" width="21.01" height="2.42"/><rect class="cls-3" x="180" y="128.38" width="4.2" height="2.42"/><rect class="cls-3" x="167.3" y="134.5" width="9.79" height="2.42"/><rect class="cls-4" x="186.34" y="134.5" width="21.01" height="2.42"/><rect class="cls-3" x="180" y="134.5" width="4.2" height="2.42"/><rect class="cls-4" x="167.3" y="145.32" width="7.76" height="2.61"/><rect class="cls-4" x="167.3" y="151.08" width="7.76" height="2.61"/><rect class="cls-4" x="167.3" y="156.84" width="7.76" height="2.61"/><rect class="cls-4" x="167.3" y="162.6" width="7.76" height="2.61"/><rect class="cls-4" x="167.3" y="168.36" width="7.76" height="2.61"/><rect class="cls-4" x="167.3" y="174.12" width="7.76" height="2.61"/><rect class="cls-4" x="167.3" y="179.88" width="7.76" height="2.61"/><rect class="cls-4" x="167.3" y="185.63" width="7.76" height="2.61"/><rect class="cls-4" x="167.3" y="191.39" width="7.76" height="2.61"/><rect class="cls-4" x="167.3" y="197.15" width="7.76" height="2.61"/><rect class="cls-4" x="178.19" y="140.82" width="1.05" height="68.47"/><rect class="cls-4" x="184.38" y="144.99" width="15.02" height="2.34"/><rect class="cls-4" x="184.38" y="151.22" width="15.02" height="2.34"/><rect class="cls-4" x="184.38" y="157.45" width="15.02" height="2.34"/><rect class="cls-4" x="184.38" y="163.68" width="15.02" height="2.34"/><rect class="cls-4" x="184.38" y="169.92" width="15.02" height="2.34"/><rect class="cls-4" x="184.38" y="175.66" width="15.02" height="2.34"/><rect class="cls-4" x="184.38" y="181.41" width="15.02" height="2.34"/><rect class="cls-4" x="184.38" y="187.15" width="15.02" height="2.34"/><rect class="cls-4" x="184.38" y="192.9" width="15.02" height="2.34"/><rect class="cls-4" x="184.38" y="198.65" width="15.02" height="2.34"/><rect class="cls-3" x="201.95" y="144.58" width="3.68" height="2.05"/><rect class="cls-3" x="201.95" y="149.78" width="3.68" height="2.05"/><rect class="cls-3" x="201.95" y="154.99" width="3.68" height="2.05"/><rect class="cls-3" x="201.95" y="160.2" width="3.68" height="2.05"/><rect class="cls-3" x="201.95" y="165.41" width="3.68" height="2.05"/><rect class="cls-3" x="201.95" y="170.62" width="3.68" height="2.05"/><rect class="cls-3" x="201.95" y="175.82" width="3.68" height="2.05"/><rect class="cls-3" x="201.95" y="181.03" width="3.68" height="2.05"/><rect class="cls-3" x="201.95" y="186.24" width="3.68" height="2.05"/><rect class="cls-3" x="201.95" y="191.45" width="3.68" height="2.05"/><rect class="cls-3" x="207.18" y="144.56" width="3.68" height="2.05"/><rect class="cls-3" x="207.18" y="149.77" width="3.68" height="2.05"/><rect class="cls-3" x="207.18" y="154.97" width="3.68" height="2.05"/><rect class="cls-3" x="207.18" y="160.18" width="3.68" height="2.05"/><rect class="cls-3" x="207.18" y="165.39" width="3.68" height="2.05"/><rect class="cls-3" x="207.18" y="170.6" width="3.68" height="2.05"/><rect class="cls-3" x="207.18" y="175.81" width="3.68" height="2.05"/><rect class="cls-3" x="207.18" y="181.01" width="3.68" height="2.05"/><rect class="cls-3" x="207.18" y="186.22" width="3.68" height="2.05"/><rect class="cls-3" x="207.18" y="191.43" width="3.68" height="2.05"/><rect class="cls-3" x="201.95" y="196.63" width="3.68" height="2.05"/><rect class="cls-3" x="207.18" y="196.62" width="3.68" height="2.05"/><rect class="cls-3" x="201.95" y="201.82" width="3.68" height="2.05"/><rect class="cls-3" x="207.18" y="201.8" width="3.68" height="2.05"/><path class="cls-7" d="M63.42,197.33h9a2.82,2.82,0,0,1,2.78,3.29h0l-13.7.26c-.15,0-.23-.31-.13-.52l1-2.11C62.63,197.67,63,197.33,63.42,197.33Z"/><rect class="cls-3" x="79" y="201.25" width="2.02" height="0.75" rx="0.37" ry="0.37"/><path class="cls-8" d="M65.32,199.53c0-1,1.48-1.81,3.26-1.81s3.24.81,3.26,1.81Z"/><path class="cls-8" d="M62.42,199.61a2.27,2.27,0,0,1,.83-1.33.86.86,0,0,1,1.4.68v.65Z"/><path class="cls-7" d="M59.23,202.93H79.45l-.9-2.45-22.38-.19c-.24,0-.37.23-.22.39l1.56,1.58A2.43,2.43,0,0,0,59.23,202.93Z"/><rect class="cls-7" x="79" y="201.78" width="2.02" height="1.15"/><rect class="cls-8" x="70.79" y="200.76" width="1.47" height="1.47" rx="0.67" ry="0.67"/><path class="cls-8" d="M70.12,202.22h0a.31.31,0,0,1-.31-.31v-.85a.31.31,0,0,1,.31-.31h0a.31.31,0,0,1,.31.31v.85A.31.31,0,0,1,70.12,202.22Z"/><rect class="cls-8" x="55.62" y="199.6" width="9.31" height="0.14"/><polygon class="cls-8" points="55.62 199.65 55.74 200.32 55.71 200.47 55.71 200.47 55.8 200.47 55.97 200.42 55.96 200.32 55.74 199.6 55.62 199.65"/><rect class="cls-8" x="56.27" y="199.6" width="0.14" height="0.82"/><rect class="cls-8" x="56.84" y="199.6" width="0.14" height="0.82"/><rect class="cls-8" x="57.42" y="199.6" width="0.14" height="0.82"/><rect class="cls-8" x="57.99" y="199.6" width="0.14" height="0.82"/><rect class="cls-8" x="58.56" y="199.6" width="0.14" height="0.82"/><rect class="cls-8" x="59.13" y="199.6" width="0.14" height="0.82"/><rect class="cls-8" x="59.7" y="199.6" width="0.14" height="0.82"/><rect class="cls-8" x="60.28" y="199.6" width="0.14" height="0.82"/><rect class="cls-8" x="60.85" y="199.6" width="0.14" height="0.82"/><rect class="cls-8" x="61.42" y="199.6" width="0.14" height="0.82"/><rect class="cls-8" x="61.99" y="199.6" width="0.14" height="0.82"/><rect class="cls-8" x="62.57" y="199.6" width="0.14" height="0.82"/><rect class="cls-8" x="63.14" y="199.6" width="0.14" height="0.82"/><rect class="cls-8" x="63.71" y="199.6" width="0.14" height="0.82"/><rect class="cls-8" x="64.28" y="199.6" width="0.14" height="0.82"/><rect class="cls-8" x="64.86" y="199.6" width="0.14" height="0.82"/><rect class="cls-7" x="77.61" y="197.61" width="0.31" height="3.14"/><path class="cls-7" d="M78.21,197.83H63.93a1.35,1.35,0,0,1,1.35-1.35H76.87a1.35,1.35,0,0,1,1.34,1.35Z"/><rect class="cls-8" x="64.32" y="196.1" width="9.31" height="0.09"/><polygon class="cls-8" points="64.32 196.13 64.52 196.56 64.54 196.64 64.54 196.64 64.56 196.64 64.71 196.62 64.68 196.56 64.45 196.1 64.32 196.13"/><rect class="cls-8" x="64.98" y="196.1" width="0.14" height="0.52"/><rect class="cls-8" x="65.55" y="196.1" width="0.14" height="0.52"/><rect class="cls-8" x="66.12" y="196.1" width="0.14" height="0.52"/><rect class="cls-8" x="66.69" y="196.1" width="0.14" height="0.52"/><rect class="cls-8" x="67.27" y="196.1" width="0.14" height="0.52"/><rect class="cls-8" x="67.84" y="196.1" width="0.14" height="0.52"/><rect class="cls-8" x="68.41" y="196.1" width="0.14" height="0.52"/><rect class="cls-8" x="68.98" y="196.1" width="0.14" height="0.52"/><rect class="cls-8" x="69.55" y="196.1" width="0.14" height="0.52"/><rect class="cls-8" x="70.13" y="196.1" width="0.14" height="0.52"/><rect class="cls-8" x="70.7" y="196.1" width="0.14" height="0.52"/><rect class="cls-8" x="71.27" y="196.1" width="0.14" height="0.52"/><rect class="cls-8" x="71.84" y="196.1" width="0.14" height="0.52"/><rect class="cls-8" x="72.41" y="196.1" width="0.14" height="0.52"/><rect class="cls-8" x="72.99" y="196.1" width="0.14" height="0.52"/><rect class="cls-8" x="73.56" y="196.1" width="0.14" height="0.52"/><path class="cls-7" d="M72.58,195.11H64.41V195a.93.93,0,0,1,.93-.93h6.31a.93.93,0,0,1,.93.93h0v.07Z"/><rect class="cls-7" x="69.56" y="195.68" width="2.44" height="0.55" transform="translate(-136.55 216.58) rotate(-75.82)"/><rect class="cls-7" x="64.56" y="195.8" width="2.44" height="0.29" transform="translate(-140.31 211.72) rotate(-75.82)"/><rect class="cls-7" x="62.98" y="196.11" width="2.87" height="0.31" transform="translate(-141.65 210.64) rotate(-75.82)"/><rect class="cls-7" x="70.66" y="195.69" width="2.44" height="0.55" transform="translate(-135.72 217.66) rotate(-75.82)"/><rect class="cls-7" x="83.1" y="202.22" width="3.6" height="0.81" rx="0.41" ry="0.41"/><path class="cls-7" d="M85.13,202.2H82.94a.2.2,0,0,1-.2-.2h0a.2.2,0,0,1,.2-.2h2.19a.2.2,0,0,1,.2.2h0A.2.2,0,0,1,85.13,202.2Z"/></svg>