<svg xmlns="http://www.w3.org/2000/svg" xmlns:xlink="http://www.w3.org/1999/xlink" viewBox="0 0 159 1065"><defs><style>.cls-1{isolation:isolate;}.cls-2{fill:#f2f2f2;}.cls-3{fill:#4d4d4d;}.cls-4{fill:#b9e3ff;}.cls-10,.cls-11,.cls-12,.cls-5,.cls-6,.cls-7,.cls-8,.cls-9{mix-blend-mode:multiply;}.cls-5{fill:url(#linear-gradient);}.cls-6{fill:url(#linear-gradient-2);}.cls-7{fill:url(#linear-gradient-3);}.cls-8{fill:url(#linear-gradient-4);}.cls-9{fill:url(#linear-gradient-5);}.cls-10{fill:url(#linear-gradient-6);}.cls-11{fill:url(#linear-gradient-7);}.cls-12{fill:url(#linear-gradient-8);}</style><linearGradient id="linear-gradient" x1="652.75" y1="593.38" x2="652.75" y2="582.91" gradientTransform="matrix(1, 0, 0, -1, -619.64, 1132.64)" gradientUnits="userSpaceOnUse"><stop offset="0" stop-color="#fff"/><stop offset="0.37" stop-color="#fdfdfd"/><stop offset="0.5" stop-color="#f7f7f7" stop-opacity="0.98"/><stop offset="0.6" stop-color="#ececec" stop-opacity="0.95"/><stop offset="0.68" stop-color="#dcdcdc" stop-opacity="0.91"/><stop offset="0.75" stop-color="#c7c7c7" stop-opacity="0.85"/><stop offset="0.81" stop-color="#adadad" stop-opacity="0.79"/><stop offset="0.86" stop-color="#8f8f8f" stop-opacity="0.71"/><stop offset="0.91" stop-color="#6b6b6b" stop-opacity="0.61"/><stop offset="0.96" stop-color="#444" stop-opacity="0.51"/><stop offset="1" stop-color="#1a1a1a" stop-opacity="0.4"/></linearGradient><linearGradient id="linear-gradient-2" x1="916.75" y1="544.38" x2="916.75" y2="534.25" gradientTransform="matrix(1, 0, 0, -1, -834.81, 819.81)" xlink:href="#linear-gradient"/><linearGradient id="linear-gradient-3" x1="970.25" y1="572.38" x2="970.25" y2="566.25" gradientTransform="translate(-918.31 -342.31)" xlink:href="#linear-gradient"/><linearGradient id="linear-gradient-4" x1="190.75" y1="893.38" x2="190.75" y2="882.91" gradientTransform="translate(-57.64 118.36)" xlink:href="#linear-gradient"/><linearGradient id="linear-gradient-5" x1="191.75" y1="787.38" x2="191.75" y2="776.91" gradientTransform="matrix(1, 0, 0, -1, -164.64, 1787.64)" xlink:href="#linear-gradient"/><linearGradient id="linear-gradient-6" x1="332.75" y1="787.38" x2="332.75" y2="776.91" gradientTransform="matrix(1, 0, 0, -1, -305.64, 1646.64)" xlink:href="#linear-gradient"/><linearGradient id="linear-gradient-7" x1="332.75" y1="681.38" x2="332.75" y2="670.91" gradientTransform="translate(-199.64 188.36)" xlink:href="#linear-gradient"/><linearGradient id="linear-gradient-8" x1="466.75" y1="576.38" x2="466.75" y2="565.91" gradientTransform="matrix(1, 0, 0, -1, -420.64, 1301.64)" xlink:href="#linear-gradient"/></defs><title>landmark</title><g class="cls-1"><g id="Layer_1" data-name="Layer 1"><rect class="cls-2" y="834" width="37" height="227"/><rect class="cls-3" x="52" y="1027" width="60" height="37"/><rect class="cls-2" x="108" y="724" width="37" height="187"/><rect class="cls-2" x="89" y="541" width="37" height="308"/><rect class="cls-2" x="70" y="343" width="37" height="308"/><rect class="cls-2" x="37" y="275" width="37" height="308"/><rect class="cls-2" x="46" y="219" width="41" height="308"/><rect class="cls-2" x="11" y="662" width="37" height="187"/><rect class="cls-2" x="22" y="480" width="68" height="342"/><rect class="cls-2" x="122" y="877" width="37" height="187"/><rect class="cls-2" x="32" y="818" width="108" height="246"/><path class="cls-3" d="M112,1065H52v-36q30,15.34,60,0Z"/><rect class="cls-2" x="46" y="184" width="35" height="35"/><rect class="cls-2" x="55" y="90" width="11" height="94"/><rect class="cls-2" x="65" y="124" width="10" height="60"/><rect class="cls-2" x="65" width="3" height="125"/><rect class="cls-3" x="67" y="73" width="4" height="51"/><rect class="cls-3" x="67" y="219" width="4" height="56"/><rect class="cls-3" x="71" y="163" width="4" height="56"/><rect class="cls-3" x="62" y="128" width="4" height="56"/><rect class="cls-3" x="42" y="275" width="4" height="73"/><rect class="cls-3" x="77" y="270" width="4" height="73"/><rect class="cls-2" x="58" y="50" width="8" height="41"/><path class="cls-3" d="M107,437c-22.6-11.26-46.74-10.07-72,0V420c22.67-7.89,46.22-10.52,72,0Z"/><rect class="cls-3" x="11" y="788" width="134" height="12"/><rect class="cls-3" y="929" width="159" height="19"/><rect class="cls-3" x="67" y="1020" width="29" height="3"/><rect class="cls-3" x="67" y="1013" width="29" height="3"/><rect class="cls-3" x="67" y="1006" width="29" height="3"/><rect class="cls-3" x="67" y="999" width="29" height="3"/><rect class="cls-3" x="67" y="992" width="29" height="3"/><rect class="cls-3" x="67" y="985" width="29" height="3"/><rect class="cls-3" x="67" y="978" width="29" height="3"/><rect class="cls-3" x="67" y="971" width="29" height="3"/><rect class="cls-3" x="67" y="964" width="29" height="3"/><rect class="cls-3" x="67" y="957" width="29" height="3"/><rect class="cls-3" x="67" y="950" width="29" height="3"/><rect class="cls-3" x="103" y="1020" width="19" height="3"/><rect class="cls-3" x="103" y="1013" width="19" height="3"/><rect class="cls-3" x="103" y="1006" width="19" height="3"/><rect class="cls-3" x="103" y="999" width="19" height="3"/><rect class="cls-3" x="103" y="992" width="19" height="3"/><rect class="cls-3" x="103" y="985" width="19" height="3"/><rect class="cls-3" x="103" y="978" width="19" height="3"/><rect class="cls-3" x="103" y="971" width="19" height="3"/><rect class="cls-3" x="103" y="964" width="19" height="3"/><rect class="cls-3" x="103" y="957" width="19" height="3"/><rect class="cls-3" x="103" y="950" width="19" height="3"/><rect class="cls-3" x="140" y="1020" width="19" height="3"/><rect class="cls-3" x="140" y="1013" width="19" height="3"/><rect class="cls-3" x="140" y="1006" width="19" height="3"/><rect class="cls-3" x="140" y="999" width="19" height="3"/><rect class="cls-3" x="140" y="992" width="19" height="3"/><rect class="cls-3" x="140" y="985" width="19" height="3"/><rect class="cls-3" x="140" y="978" width="19" height="3"/><rect class="cls-3" x="140" y="971" width="19" height="3"/><rect class="cls-3" x="140" y="964" width="19" height="3"/><rect class="cls-3" x="140" y="957" width="19" height="3"/><rect class="cls-3" x="140" y="950" width="19" height="3"/><rect class="cls-3" y="1018" width="19" height="3"/><rect class="cls-3" y="1011" width="19" height="3"/><rect class="cls-3" y="1004" width="19" height="3"/><rect class="cls-3" y="997" width="19" height="3"/><rect class="cls-3" y="990" width="19" height="3"/><rect class="cls-3" y="983" width="19" height="3"/><rect class="cls-3" y="976" width="19" height="3"/><rect class="cls-3" y="969" width="19" height="3"/><rect class="cls-3" y="962" width="19" height="3"/><rect class="cls-3" y="955" width="19" height="3"/><rect class="cls-3" y="948" width="19" height="3"/><rect class="cls-3" x="32" y="1018" width="19" height="3"/><rect class="cls-3" x="32" y="1011" width="19" height="3"/><rect class="cls-3" x="32" y="1004" width="19" height="3"/><rect class="cls-3" x="32" y="997" width="19" height="3"/><rect class="cls-3" x="32" y="990" width="19" height="3"/><rect class="cls-3" x="32" y="983" width="19" height="3"/><rect class="cls-3" x="32" y="976" width="19" height="3"/><rect class="cls-3" x="32" y="969" width="19" height="3"/><rect class="cls-3" x="32" y="962" width="19" height="3"/><rect class="cls-3" x="32" y="955" width="19" height="3"/><rect class="cls-3" x="32" y="948" width="19" height="3"/><rect class="cls-3" y="922" width="30" height="3"/><rect class="cls-3" y="915" width="30" height="3"/><rect class="cls-3" y="908" width="30" height="3"/><rect class="cls-3" y="901" width="30" height="3"/><rect class="cls-3" y="894" width="30" height="3"/><rect class="cls-3" y="887" width="30" height="3"/><rect class="cls-3" y="880" width="30" height="3"/><rect class="cls-3" y="873" width="30" height="3"/><rect class="cls-3" y="866" width="30" height="3"/><rect class="cls-3" y="859" width="30" height="3"/><rect class="cls-3" y="852" width="30" height="3"/><rect class="cls-3" y="845" width="30" height="3"/><rect class="cls-3" y="838" width="30" height="3"/><rect class="cls-3" x="128" y="924" width="30" height="3"/><rect class="cls-3" x="128" y="917" width="30" height="3"/><rect class="cls-3" x="128" y="910" width="30" height="3"/><rect class="cls-3" x="128" y="903" width="30" height="3"/><rect class="cls-3" x="128" y="896" width="30" height="3"/><rect class="cls-3" x="128" y="889" width="30" height="3"/><rect class="cls-3" x="128" y="882" width="30" height="3"/><rect class="cls-3" x="112" y="780" width="30" height="3"/><rect class="cls-3" x="112" y="773" width="30" height="3"/><rect class="cls-3" x="112" y="766" width="30" height="3"/><rect class="cls-3" x="112" y="759" width="30" height="3"/><rect class="cls-3" x="112" y="752" width="30" height="3"/><rect class="cls-3" x="112" y="746" width="30" height="3"/><rect class="cls-3" x="112" y="740" width="30" height="3"/><rect class="cls-3" x="112" y="734" width="30" height="3"/><rect class="cls-3" x="14" y="781" width="30" height="3"/><rect class="cls-3" x="14" y="774" width="30" height="3"/><rect class="cls-3" x="14" y="767" width="30" height="3"/><rect class="cls-3" x="14" y="760" width="30" height="3"/><rect class="cls-3" x="14" y="753" width="30" height="3"/><rect class="cls-3" x="14" y="747" width="30" height="3"/><rect class="cls-3" x="14" y="741" width="30" height="3"/><rect class="cls-3" x="14" y="735" width="30" height="3"/><rect class="cls-3" x="15" y="728" width="30" height="3"/><rect class="cls-3" x="15" y="721" width="30" height="3"/><rect class="cls-3" x="15" y="714" width="30" height="3"/><rect class="cls-3" x="15" y="707" width="30" height="3"/><rect class="cls-3" x="15" y="700" width="30" height="3"/><rect class="cls-3" x="15" y="694" width="30" height="3"/><rect class="cls-3" x="15" y="688" width="30" height="3"/><rect class="cls-3" x="15" y="682" width="30" height="3"/><rect class="cls-3" x="15" y="677" width="30" height="3"/><rect class="cls-3" x="15" y="672" width="30" height="3"/><rect class="cls-3" x="15" y="667" width="30" height="3"/><rect class="cls-3" x="107" y="592" width="17" height="3"/><rect class="cls-3" x="107" y="578" width="17" height="3"/><rect class="cls-3" x="107" y="566" width="17" height="3"/><rect class="cls-3" x="107" y="555" width="17" height="3"/><rect class="cls-3" x="107" y="545" width="17" height="3"/><rect class="cls-3" x="37" y="922" width="14" height="3"/><rect class="cls-3" x="37" y="910" width="14" height="3"/><rect class="cls-3" x="37" y="898" width="14" height="3"/><rect class="cls-3" x="37" y="886" width="14" height="3"/><rect class="cls-3" x="37" y="874" width="14" height="3"/><rect class="cls-3" x="37" y="862" width="14" height="3"/><rect class="cls-3" x="37" y="850" width="14" height="3"/><rect class="cls-3" x="37" y="838" width="14" height="3"/><rect class="cls-3" x="56" y="922" width="14" height="3"/><rect class="cls-3" x="56" y="916" width="14" height="3"/><rect class="cls-3" x="56" y="910" width="14" height="3"/><rect class="cls-3" x="56" y="904" width="14" height="3"/><rect class="cls-3" x="56" y="898" width="14" height="3"/><rect class="cls-3" x="56" y="892" width="14" height="3"/><rect class="cls-3" x="56" y="886" width="14" height="3"/><rect class="cls-3" x="56" y="880" width="14" height="3"/><rect class="cls-3" x="56" y="874" width="14" height="3"/><rect class="cls-3" x="56" y="868" width="14" height="3"/><rect class="cls-3" x="56" y="862" width="14" height="3"/><rect class="cls-3" x="56" y="856" width="14" height="3"/><rect class="cls-3" x="56" y="850" width="14" height="3"/><rect class="cls-3" x="56" y="844" width="14" height="3"/><rect class="cls-3" x="56" y="838" width="14" height="3"/><rect class="cls-3" x="56" y="832" width="14" height="3"/><rect class="cls-3" x="56" y="826" width="14" height="3"/><rect class="cls-3" x="56" y="820" width="14" height="3"/><rect class="cls-4" x="40" y="811" width="82" height="3"/><rect class="cls-3" x="39" y="804" width="82" height="3"/><rect class="cls-3" x="75" y="922" width="14" height="3"/><rect class="cls-3" x="75" y="916" width="14" height="3"/><rect class="cls-3" x="75" y="910" width="14" height="3"/><rect class="cls-3" x="75" y="904" width="14" height="3"/><rect class="cls-3" x="75" y="898" width="14" height="3"/><rect class="cls-3" x="75" y="892" width="14" height="3"/><rect class="cls-3" x="75" y="886" width="14" height="3"/><rect class="cls-3" x="75" y="880" width="14" height="3"/><rect class="cls-3" x="75" y="874" width="14" height="3"/><rect class="cls-3" x="75" y="868" width="14" height="3"/><rect class="cls-3" x="75" y="862" width="14" height="3"/><rect class="cls-3" x="75" y="856" width="14" height="3"/><rect class="cls-3" x="75" y="850" width="14" height="3"/><rect class="cls-3" x="75" y="844" width="14" height="3"/><rect class="cls-3" x="75" y="838" width="14" height="3"/><rect class="cls-3" x="75" y="832" width="14" height="3"/><rect class="cls-3" x="75" y="826" width="14" height="3"/><rect class="cls-3" x="75" y="820" width="14" height="3"/><rect class="cls-3" x="94" y="922" width="14" height="3"/><rect class="cls-3" x="94" y="916" width="14" height="3"/><rect class="cls-3" x="94" y="910" width="14" height="3"/><rect class="cls-3" x="94" y="904" width="14" height="3"/><rect class="cls-3" x="94" y="898" width="14" height="3"/><rect class="cls-3" x="94" y="892" width="14" height="3"/><rect class="cls-3" x="94" y="886" width="14" height="3"/><rect class="cls-3" x="94" y="880" width="14" height="3"/><rect class="cls-3" x="94" y="874" width="14" height="3"/><rect class="cls-3" x="94" y="868" width="14" height="3"/><rect class="cls-3" x="94" y="862" width="14" height="3"/><rect class="cls-3" x="94" y="856" width="14" height="3"/><rect class="cls-3" x="94" y="850" width="14" height="3"/><rect class="cls-3" x="94" y="844" width="14" height="3"/><rect class="cls-3" x="94" y="838" width="14" height="3"/><rect class="cls-3" x="94" y="832" width="14" height="3"/><rect class="cls-3" x="94" y="826" width="14" height="3"/><rect class="cls-3" x="94" y="820" width="14" height="3"/><rect class="cls-3" x="53" y="781" width="14" height="3"/><rect class="cls-3" x="53" y="775" width="14" height="3"/><rect class="cls-3" x="53" y="769" width="14" height="3"/><rect class="cls-3" x="53" y="763" width="14" height="3"/><rect class="cls-3" x="53" y="757" width="14" height="3"/><rect class="cls-3" x="53" y="751" width="14" height="3"/><rect class="cls-3" x="53" y="745" width="14" height="3"/><rect class="cls-3" x="53" y="739" width="14" height="3"/><rect class="cls-3" x="53" y="733" width="14" height="3"/><rect class="cls-3" x="53" y="727" width="14" height="3"/><rect class="cls-3" x="53" y="721" width="14" height="3"/><rect class="cls-3" x="53" y="715" width="14" height="3"/><rect class="cls-3" x="53" y="709" width="14" height="3"/><rect class="cls-3" x="53" y="703" width="14" height="3"/><rect class="cls-3" x="53" y="697" width="14" height="3"/><rect class="cls-3" x="53" y="691" width="14" height="3"/><rect class="cls-3" x="53" y="685" width="14" height="3"/><rect class="cls-3" x="53" y="679" width="14" height="3"/><rect class="cls-3" x="72" y="781" width="14" height="3"/><rect class="cls-3" x="72" y="775" width="14" height="3"/><rect class="cls-3" x="72" y="769" width="14" height="3"/><rect class="cls-3" x="72" y="763" width="14" height="3"/><rect class="cls-3" x="72" y="757" width="14" height="3"/><rect class="cls-3" x="72" y="751" width="14" height="3"/><rect class="cls-3" x="72" y="745" width="14" height="3"/><rect class="cls-3" x="72" y="739" width="14" height="3"/><rect class="cls-3" x="72" y="733" width="14" height="3"/><rect class="cls-3" x="72" y="727" width="14" height="3"/><rect class="cls-3" x="72" y="721" width="14" height="3"/><rect class="cls-3" x="72" y="715" width="14" height="3"/><rect class="cls-3" x="72" y="709" width="14" height="3"/><rect class="cls-3" x="72" y="703" width="14" height="3"/><rect class="cls-3" x="72" y="697" width="14" height="3"/><rect class="cls-3" x="72" y="691" width="14" height="3"/><rect class="cls-3" x="72" y="685" width="14" height="3"/><rect class="cls-3" x="72" y="679" width="14" height="3"/><rect class="cls-3" x="91" y="781" width="14" height="3"/><rect class="cls-3" x="91" y="775" width="14" height="3"/><rect class="cls-3" x="91" y="769" width="14" height="3"/><rect class="cls-3" x="91" y="763" width="14" height="3"/><rect class="cls-3" x="91" y="757" width="14" height="3"/><rect class="cls-3" x="91" y="751" width="14" height="3"/><rect class="cls-3" x="91" y="745" width="14" height="3"/><rect class="cls-3" x="91" y="739" width="14" height="3"/><rect class="cls-3" x="91" y="733" width="14" height="3"/><rect class="cls-3" x="91" y="727" width="14" height="3"/><rect class="cls-3" x="91" y="721" width="14" height="3"/><rect class="cls-3" x="91" y="715" width="14" height="3"/><rect class="cls-3" x="91" y="709" width="14" height="3"/><rect class="cls-3" x="91" y="703" width="14" height="3"/><rect class="cls-3" x="91" y="697" width="14" height="3"/><rect class="cls-3" x="91" y="691" width="14" height="3"/><rect class="cls-3" x="91" y="685" width="14" height="3"/><rect class="cls-3" x="91" y="679" width="14" height="3"/><rect class="cls-3" x="109" y="720" width="14" height="3"/><rect class="cls-3" x="109" y="714" width="14" height="3"/><rect class="cls-3" x="109" y="708" width="14" height="3"/><rect class="cls-3" x="109" y="702" width="14" height="3"/><rect class="cls-3" x="109" y="696" width="14" height="3"/><rect class="cls-3" x="109" y="690" width="14" height="3"/><rect class="cls-3" x="109" y="684" width="14" height="3"/><rect class="cls-3" x="109" y="678" width="14" height="3"/><rect class="cls-3" x="109" y="672" width="14" height="3"/><rect class="cls-3" x="109" y="666" width="14" height="3"/><rect class="cls-3" x="109" y="660" width="14" height="3"/><rect class="cls-3" x="109" y="654" width="14" height="3"/><rect class="cls-3" x="109" y="648" width="14" height="3"/><rect class="cls-3" x="109" y="642" width="14" height="3"/><rect class="cls-3" x="109" y="636" width="14" height="3"/><rect class="cls-3" x="109" y="630" width="14" height="3"/><rect class="cls-3" x="109" y="624" width="14" height="3"/><rect class="cls-3" x="91" y="666" width="14" height="3"/><rect class="cls-3" x="91" y="660" width="14" height="3"/><rect class="cls-3" x="91" y="654" width="14" height="3"/><rect class="cls-3" x="91" y="648" width="14" height="3"/><rect class="cls-3" x="91" y="642" width="14" height="3"/><rect class="cls-3" x="91" y="636" width="14" height="3"/><rect class="cls-3" x="91" y="630" width="14" height="3"/><rect class="cls-3" x="91" y="624" width="14" height="3"/><rect class="cls-3" x="73" y="666" width="14" height="3"/><rect class="cls-3" x="73" y="660" width="14" height="3"/><rect class="cls-3" x="73" y="654" width="14" height="3"/><rect class="cls-3" x="73" y="648" width="14" height="3"/><rect class="cls-3" x="73" y="642" width="14" height="3"/><rect class="cls-3" x="73" y="636" width="14" height="3"/><rect class="cls-3" x="73" y="630" width="14" height="3"/><rect class="cls-3" x="73" y="624" width="14" height="3"/><rect class="cls-3" x="55" y="666" width="14" height="3"/><rect class="cls-3" x="55" y="660" width="14" height="3"/><rect class="cls-3" x="55" y="654" width="14" height="3"/><rect class="cls-3" x="55" y="648" width="14" height="3"/><rect class="cls-3" x="55" y="642" width="14" height="3"/><rect class="cls-3" x="55" y="636" width="14" height="3"/><rect class="cls-3" x="55" y="630" width="14" height="3"/><rect class="cls-3" x="55" y="624" width="14" height="3"/><rect class="cls-3" x="46" y="575" width="14" height="3"/><rect class="cls-3" x="46" y="569" width="14" height="3"/><rect class="cls-3" x="46" y="563" width="14" height="3"/><rect class="cls-3" x="65" y="575" width="14" height="3"/><rect class="cls-3" x="65" y="569" width="14" height="3"/><rect class="cls-3" x="65" y="563" width="14" height="3"/><rect class="cls-3" x="83" y="575" width="14" height="3"/><rect class="cls-3" x="83" y="569" width="14" height="3"/><rect class="cls-3" x="83" y="563" width="14" height="3"/><rect class="cls-3" x="83" y="542" width="14" height="3"/><rect class="cls-3" x="83" y="536" width="14" height="3"/><polyline class="cls-3" points="97 530 97 533 83 533 83 530"/><rect class="cls-3" x="64" y="542" width="14" height="3"/><rect class="cls-3" x="64" y="536" width="14" height="3"/><rect class="cls-3" x="64" y="530" width="14" height="3"/><rect class="cls-3" x="46" y="542" width="14" height="3"/><rect class="cls-3" x="46" y="536" width="14" height="3"/><rect class="cls-3" x="46" y="530" width="14" height="3"/><rect class="cls-3" x="46" y="512" width="14" height="3"/><rect class="cls-3" x="46" y="506" width="14" height="3"/><rect class="cls-3" x="46" y="500" width="14" height="3"/><rect class="cls-3" x="64" y="512" width="14" height="3"/><rect class="cls-3" x="64" y="506" width="14" height="3"/><rect class="cls-3" x="64" y="500" width="14" height="3"/><rect class="cls-3" x="82" y="512" width="14" height="3"/><rect class="cls-3" x="82" y="506" width="14" height="3"/><rect class="cls-3" x="82" y="500" width="14" height="3"/><rect class="cls-3" x="46" y="482" width="14" height="3"/><rect class="cls-3" x="46" y="476" width="14" height="3"/><rect class="cls-3" x="46" y="470" width="14" height="3"/><rect class="cls-3" x="64" y="482" width="14" height="3"/><rect class="cls-3" x="64" y="476" width="14" height="3"/><rect class="cls-3" x="64" y="470" width="14" height="3"/><rect class="cls-3" x="82" y="482" width="14" height="3"/><rect class="cls-3" x="82" y="476" width="14" height="3"/><rect class="cls-3" x="82" y="470" width="14" height="3"/><rect class="cls-3" x="46" y="452" width="14" height="3"/><rect class="cls-3" x="46" y="446" width="14" height="3"/><rect class="cls-3" x="46" y="440" width="14" height="3"/><rect class="cls-3" x="64" y="452" width="14" height="3"/><rect class="cls-3" x="64" y="446" width="14" height="3"/><rect class="cls-3" x="64" y="440" width="14" height="3"/><rect class="cls-3" x="82" y="452" width="14" height="3"/><rect class="cls-3" x="82" y="446" width="14" height="3"/><rect class="cls-3" x="82" y="440" width="14" height="3"/><rect class="cls-3" x="57" y="406" width="14" height="3"/><rect class="cls-3" x="57" y="400" width="14" height="3"/><rect class="cls-3" x="57" y="394" width="14" height="3"/><rect class="cls-3" x="75" y="406" width="14" height="3"/><rect class="cls-3" x="75" y="400" width="14" height="3"/><rect class="cls-3" x="75" y="394" width="14" height="3"/><rect class="cls-3" x="93" y="406" width="14" height="3"/><rect class="cls-3" x="93" y="400" width="14" height="3"/><rect class="cls-3" x="93" y="394" width="14" height="3"/><rect class="cls-3" x="58" y="384" width="14" height="3"/><rect class="cls-3" x="58" y="378" width="14" height="3"/><rect class="cls-3" x="58" y="372" width="14" height="3"/><rect class="cls-3" x="76" y="384" width="14" height="3"/><rect class="cls-3" x="76" y="378" width="14" height="3"/><rect class="cls-3" x="76" y="372" width="14" height="3"/><rect class="cls-3" x="94" y="384" width="14" height="3"/><rect class="cls-3" x="94" y="378" width="14" height="3"/><rect class="cls-3" x="94" y="372" width="14" height="3"/><rect class="cls-3" x="58" y="363" width="14" height="3"/><rect class="cls-3" x="58" y="357" width="14" height="3"/><rect class="cls-3" x="58" y="351" width="14" height="3"/><rect class="cls-3" x="38" y="406" width="14" height="3"/><rect class="cls-3" x="38" y="400" width="14" height="3"/><rect class="cls-3" x="38" y="394" width="14" height="3"/><rect class="cls-3" x="39" y="384" width="14" height="3"/><rect class="cls-3" x="39" y="378" width="14" height="3"/><rect class="cls-3" x="39" y="372" width="14" height="3"/><rect class="cls-3" x="39" y="363" width="14" height="3"/><rect class="cls-3" x="39" y="357" width="14" height="3"/><rect class="cls-3" x="39" y="351" width="14" height="3"/><rect class="cls-3" x="76" y="363" width="14" height="3"/><rect class="cls-3" x="76" y="357" width="14" height="3"/><rect class="cls-3" x="76" y="351" width="14" height="3"/><rect class="cls-3" x="94" y="363" width="14" height="3"/><rect class="cls-3" x="94" y="357" width="14" height="3"/><rect class="cls-3" x="94" y="351" width="14" height="3"/><rect class="cls-3" x="24" y="595" width="14" height="3"/><rect class="cls-3" x="24" y="589" width="14" height="3"/><rect class="cls-3" x="24" y="583" width="14" height="3"/><rect class="cls-3" x="24" y="577" width="14" height="3"/><rect class="cls-3" x="24" y="571" width="14" height="3"/><rect class="cls-3" x="24" y="565" width="14" height="3"/><rect class="cls-3" x="24" y="559" width="14" height="3"/><rect class="cls-3" x="24" y="553" width="14" height="3"/><rect class="cls-3" x="24" y="547" width="14" height="3"/><rect class="cls-3" x="24" y="541" width="14" height="3"/><rect class="cls-3" x="24" y="535" width="14" height="3"/><rect class="cls-3" x="24" y="529" width="14" height="3"/><rect class="cls-3" x="24" y="523" width="14" height="3"/><rect class="cls-3" x="24" y="517" width="14" height="3"/><rect class="cls-3" x="24" y="511" width="14" height="3"/><rect class="cls-3" x="24" y="505" width="14" height="3"/><rect class="cls-3" x="24" y="499" width="14" height="3"/><rect class="cls-3" x="24" y="493" width="14" height="3"/><rect class="cls-3" x="24" y="487" width="14" height="3"/><rect class="cls-3" x="24" y="481" width="14" height="3"/><rect class="cls-3" x="26" y="660" width="14" height="3"/><rect class="cls-3" x="26" y="654" width="14" height="3"/><rect class="cls-3" x="26" y="648" width="14" height="3"/><rect class="cls-3" x="26" y="642" width="14" height="3"/><rect class="cls-3" x="26" y="636" width="14" height="3"/><rect class="cls-3" x="26" y="630" width="14" height="3"/><rect class="cls-3" x="26" y="624" width="14" height="3"/><rect class="cls-3" x="113" y="922" width="14" height="3"/><rect class="cls-3" x="113" y="910" width="14" height="3"/><rect class="cls-3" x="113" y="898" width="14" height="3"/><rect class="cls-3" x="113" y="886" width="14" height="3"/><rect class="cls-3" x="113" y="874" width="14" height="3"/><rect class="cls-3" x="113" y="862" width="14" height="3"/><rect class="cls-3" x="113" y="850" width="14" height="3"/><rect class="cls-5" x="-30.39" y="539.27" width="127" height="10.46" transform="translate(-511.39 577.61) rotate(-90)"/><rect class="cls-6" x="20.44" y="275.44" width="123" height="10.12" transform="translate(-198.56 362.44) rotate(-90)"/><rect class="cls-7" x="8.94" y="223.94" width="86" height="6.12" transform="translate(-175.06 278.94) rotate(-90)"/><rect class="cls-3" x="113" y="838" width="14" height="3"/><rect class="cls-3" x="113" y="820" width="14" height="3"/><rect class="cls-3" x="37" y="820" width="14" height="3"/><rect class="cls-8" x="74.61" y="1001.27" width="117" height="10.46" transform="translate(-873.39 1139.61) rotate(-90)"/><rect class="cls-9" x="-30.39" y="1000.27" width="115" height="10.46" transform="translate(-978.39 1032.61) rotate(-90)"/><rect class="cls-10" x="-37.39" y="859.27" width="129" height="10.46" transform="translate(-837.39 891.61) rotate(-90)"/><rect class="cls-11" x="68.61" y="859.27" width="129" height="10.46" transform="translate(-731.39 997.61) rotate(-90)"/><rect class="cls-12" x="-12.39" y="725.27" width="117" height="10.46" transform="translate(-684.39 776.61) rotate(-90)"/><path class="cls-3" d="M126,621a213.86,213.86,0,0,0-104,0V606a197.51,197.51,0,0,1,104,0Z"/></g></g></svg>