<svg id="Layer_1" data-name="Layer 1" xmlns="http://www.w3.org/2000/svg" viewBox="0 0 139 369"><defs><style>.cls-1{fill:#ffeb7a;}.cls-2{fill:#4d4d4d;}.cls-3{fill:#09f;}</style></defs><title>Untitled-1</title><path class="cls-1" d="M98.38,138.17c.07.13.13.83.21.83H85.45a8.21,8.21,0,0,1-.19-.83A456.1,456.1,0,0,0,48.53,75.06c0,4.55.84,29.24,2,62.78v.34C53.29,214.54,58,335.42,59.16,365.8c.05,1.35.1,3.21.13,3.21H42.78l-1.34-3.23-5.59-16.32L38,138.12v-.39l-.11-84.14S71.57,87,98.38,138.17Z"/><path class="cls-1" d="M115.32,365.77a15.37,15.37,0,0,1-1,3.23H32V139H85.45c18.05,36,28,72.72,33.14,103.88.12.73.23,1.24.35,2,.51,3.23,1,6.31,1.37,9.44.1.74.2,1.28.28,2C127.61,313.29,118.54,353.77,115.32,365.77Z"/><path class="cls-2" d="M111.58,365.77a16.35,16.35,0,0,1-.92,3.23H35V139H84.49c0,1,.07-.41.11-.32C134.57,254.28,116.27,346.55,111.58,365.77Z"/><path class="cls-3" d="M111.58,365.77a16.35,16.35,0,0,1-.92,3.23H35V353L84.5,138.2C134.48,253.84,116.27,346.55,111.58,365.77Z"/><path class="cls-1" d="M134.63,344.15v.06A141.1,141.1,0,0,1,129.87,366c-.29.91-.59,1.79-.9,2.63-1.57.42-9.34,1-9.34,1s0-.09,0-.14c.13-.38.49-1.57,1-3.51C125.8,346.75,146,253.77,90.76,138l-.19-.39A454.35,454.35,0,0,0,53.84,74.77c0,4.55.84,29.35,2,62.89V138C58.6,214.41,63.29,335.59,64.47,366c.05,1.35.1,2.53.13,3.51H48.14L46.8,366l-6.1-16.42,1.64-211.47v-.39l.39-84.36s34.19,33.2,61,84.36c11.67,22.27,20.49,49.25,27.7,80a289,289,0,0,1,7.6,75.93A463.06,463.06,0,0,1,134.63,344.15Z"/><rect class="cls-1" x="54.31" y="154.22" width="51.37" height="7.16" transform="translate(-7.24 3.88) rotate(-2.66)"/><path class="cls-1" d="M109.11,208l-64,4.15L45,209.94l63.82-4.13Z"/><path class="cls-1" d="M106.43,197.27l-64,4.15-.14-2.21,63.82-4.13Z"/><path class="cls-1" d="M104.64,186.55,42.17,190.7,42,188.49l62.27-4.13Z"/><path class="cls-1" d="M101,175.83,43.49,180l-.13-2.21,57.28-4.13Z"/><path class="cls-1" d="M96.72,166l-54.47,4.15-.12-2.21,54.29-4.13Z"/><path class="cls-1" d="M88.68,148.12l-45.42,4.15-.1-2.21,45.28-4.13Z"/><rect class="cls-1" x="31.4" y="69.17" width="3.8" height="71.46"/><polygon class="cls-1" points="40.46 138.12 36.96 138.12 36.96 9.74 40.46 3.86 40.46 138.12"/><rect class="cls-1" x="33.3" y="121.48" width="10.06" height="1.78"/><rect class="cls-1" x="33.3" y="110.78" width="10.06" height="1.78"/><rect class="cls-1" x="33.3" y="100.08" width="10.06" height="1.78"/><rect class="cls-1" x="33.3" y="89.38" width="10.06" height="1.78"/><rect class="cls-1" x="33.3" y="78.68" width="10.06" height="1.78"/><path class="cls-3" d="M74,148.29v4c-1,2.74-5,3.43-8.11,3.49-.61,0-1.28.25-1.82.22H60.94L3,152.46V146H57.8c3.78,0,6.68.28,8.15.3,6-.08,7.37,1.1,7.6,1.86h.23S74,148.26,74,148.29Z"/><path class="cls-1" d="M73.52,148.86q-.51.2-1,.45C67.66,144.9,61.41,151,61.41,151L3,147.87l-3.81-.2c.42-1.54,4.42-3.42,4.42-3.42s36.58,1.36,54.15,1.91c3.78.12,6.68.21,8.15.22,6-.08,7.37,1.06,7.6,1.82A.89.89,0,0,1,73.52,148.86Z"/><path class="cls-1" d="M73.62,152.26v.07c-1.13,2.71-4.81,3.41-7.9,3.49H64a26.91,26.91,0,0,1-3-.29L2.93,152.47H2.06V151H3c7.06.33,53.81,2.56,59.37,2.69,10.71,3.34,10.1-4.37,10.1-4.37a1.88,1.88,0,0,1,1.09-1.1h0v.11A6.08,6.08,0,0,1,73.62,152.26Z"/><path class="cls-1" d="M76.29,196.47C65.41,214.61,55,228.35,53,227.17s5.27-16.83,16.15-35,21.29-31.88,23.26-30.7h0c-.73-.2-9.83,13.81-20.41,31.45s-18.71,32.5-18.08,32.88,9.78-13.7,20.43-31.44c10.48-17.47,18.51-32,18.16-32.79C94.21,163.11,87,178.58,76.29,196.47Z"/><rect class="cls-1" x="59.24" y="213.67" width="0.91" height="4.73" rx="0.45" ry="0.45" transform="translate(-156.26 156.05) rotate(-59.03)"/><rect class="cls-1" x="62.21" y="208.71" width="0.91" height="4.73" rx="0.45" ry="0.45" transform="translate(-150.57 156.19) rotate(-59.03)"/><rect class="cls-1" x="65.19" y="203.77" width="0.91" height="4.73" rx="0.45" ry="0.45" transform="translate(-144.88 156.35) rotate(-59.03)"/><rect class="cls-1" x="68.15" y="198.81" width="0.91" height="4.73" rx="0.45" ry="0.45" transform="translate(-139.2 156.48) rotate(-59.03)"/><rect class="cls-1" x="72.77" y="194.2" width="0.91" height="4.73" rx="0.45" ry="0.45" transform="translate(-133.2 159.28) rotate(-59.33)"/><rect class="cls-1" x="74.1" y="188.9" width="0.91" height="4.73" rx="0.45" ry="0.45" transform="matrix(0.51, -0.86, 0.86, 0.51, -127.81, 156.77)"/><rect class="cls-1" x="77.07" y="183.96" width="0.91" height="4.73" rx="0.45" ry="0.45" transform="translate(-122.13 156.92) rotate(-59.03)"/><rect class="cls-1" x="80.04" y="179" width="0.91" height="4.73" rx="0.45" ry="0.45" transform="translate(-116.44 157.06) rotate(-59.03)"/><rect class="cls-1" x="83.01" y="174.06" width="0.91" height="4.73" rx="0.45" ry="0.45" transform="translate(-110.76 157.2) rotate(-59.03)"/><rect class="cls-1" x="85.98" y="169.11" width="0.91" height="4.73" rx="0.45" ry="0.45" transform="translate(-105.07 157.35) rotate(-59.03)"/></svg>