<svg id="Layer_1" data-name="Layer 1" xmlns="http://www.w3.org/2000/svg" viewBox="0 0 83 406"><defs><style>.cls-1{fill:#00385d;}.cls-2{fill:#ffd800;}.cls-3{fill:#1a1a1a;}.cls-4{fill:#4d4d4d;}.cls-5{fill:#ff5c5c;}.cls-6{fill:none;}</style></defs><title>Untitled-1</title><path class="cls-1" d="M39.66,277l-8,128.7L1.6,384.7h0l.35-.08L-1,382.27v-.12c0-.67-.32-4.15-.13-9.71l-.18-1.19c.1-2.94.11-6.4.25-10.29v-1.19c.12-3.18.22-6.62.35-10.28V348.3c.12-3.28.25-6.71.38-10.27v-1.19c.13-3.32.25-6.76.4-10.27v-1.19c.14-3.35.28-6.79.43-10.26v-1.19c.15-3.7.3-7.45.47-11.23v-1.18c.15-3.4.29-6.83.45-10.25l.06-1.19c.17-3.82.34-7.64.53-11.41v-1.19c.17-3.37.32-6.71.49-10l.06-1.19c.19-3.7.37-7.33.57-10.87l.06-1.19c.23-4.08.45-8,.68-11.82A6.73,6.73,0,0,1,4,241.23c.23-3.71.45-7.24.67-10.55l.09-1.18c.25-3.68.51-7.07.76-10.12a11.31,11.31,0,0,1,.1-1.17c.75-8.71,1.47-14.37,2.17-15.41q5.15,10.71,9.34,19.88l.22.45C33.83,259,39.66,277,39.66,277Z"/><rect class="cls-2" x="67.81" y="7.74" width="1.71" height="21.32"/><rect class="cls-2" x="16.36" y="15.71" width="1.71" height="21.32"/><path class="cls-2" d="M77.2,363.61v4.69c-.13,13.76-.29,21.84-.29,21.84s-39.77,12.48-45.24,15.6C17.4,362.49,9.52,241.85,5.54,154.23v-.66c-.07-1.43-.13-2.85-.2-4.27-.07-1.57-.14-3.12-.21-4.66C2.89,93.31,2,55.5,2,55.5l5.72-1.36C18.12,51.66,40.4,46.3,56.65,42.25,71.87,88.84,76.18,202,77.15,286.69l.06,4.68C77.43,320.43,77.35,345.84,77.2,363.61Z"/><polyline class="cls-3" points="75.25 30.41 77.34 45.48 56.58 42.26 7.69 54.15 8.57 36.5 54.46 24.31 75.25 30.41"/><rect class="cls-2" x="1.98" y="18.4" width="2.09" height="38.7"/><rect class="cls-2" x="55.48" y="0.61" width="2.72" height="41.88" transform="translate(-1.54 4.6) rotate(-4.57)"/><rect class="cls-2" x="62.5" y="29.16" width="37.31" height="1.11" transform="matrix(0.05, -1, 1, 0.05, 47.08, 109.14)"/><rect class="cls-2" x="61.05" y="12.26" width="0.79" height="13.53" transform="translate(33.3 76.87) rotate(-81.26)"/><rect class="cls-2" x="67.74" y="-0.7" width="0.79" height="29.3" transform="matrix(0.15, -0.99, 0.99, 0.15, 43.99, 79.17)"/><rect class="cls-2" x="67.79" y="-6.56" width="0.79" height="29.89" transform="translate(47.78 73.98) rotate(-79.74)"/><rect class="cls-2" x="74.54" y="14.62" width="0.79" height="13.53" transform="translate(42.41 92.21) rotate(-81.26)"/><rect class="cls-2" x="2.05" y="11.92" width="53.27" height="0.64" transform="translate(-2.39 9.55) rotate(-18.16)"/><rect class="cls-2" x="1.34" y="19.14" width="53.27" height="0.64" transform="translate(-4.67 9.69) rotate(-18.16)"/><rect class="cls-2" x="1.34" y="23.97" width="53.27" height="0.64" transform="translate(-6.18 9.93) rotate(-18.16)"/><rect class="cls-3" x="1.59" y="55" width="57.78" height="0.65" transform="translate(-9.22 6.2) rotate(-10.09)"/><rect class="cls-3" x="1.58" y="68.73" width="58.54" height="0.65" transform="translate(-11.62 6.47) rotate(-10.09)"/><rect class="cls-3" x="2.69" y="81.23" width="58.75" height="0.65" transform="translate(-13.79 6.88) rotate(-10.09)"/><rect class="cls-3" x="2.68" y="94.21" width="60.17" height="0.65" transform="translate(-16.05 7.2) rotate(-10.09)"/><rect class="cls-3" x="3.65" y="107.58" width="60.95" height="0.65" transform="translate(-18.38 7.65) rotate(-10.09)"/><rect class="cls-3" x="3.8" y="121.03" width="62.7" height="0.65" transform="translate(-20.72 8.04) rotate(-10.09)"/><rect class="cls-3" x="4.36" y="134.44" width="63.91" height="0.65" transform="translate(-23.05 8.45) rotate(-10.09)"/><path class="cls-3" d="M69,142.93,5.44,154.24v-.66l63.48-11.3Z"/><path class="cls-3" d="M71,154.74,6.06,166.82v-.7l64.86-12.06Z"/><path class="cls-3" d="M73.54,182.2,7,194.28v-.7l66.41-12.06Z"/><path class="cls-3" d="M72.56,167.49,6.07,179.57v-.7l66.41-12.06Z"/><path class="cls-3" d="M74.66,194.75,8.19,206.67v.73l66.47-11.93Z"/><path class="cls-3" d="M75.19,207.4,9,219.71v.74l66.21-12.31Z"/><path class="cls-3" d="M75.63,220.07l-65.88,12v.72l65.88-12Z"/><path class="cls-3" d="M76,232.74,10.93,244.56v.71L76,233.44Z"/><polygon class="cls-3" points="11.47 257.21 76.35 245.42 76.37 246.13 11.53 257.92 11.47 257.21"/><polygon class="cls-3" points="12.43 269.79 76.63 258.12 76.65 258.83 12.48 270.49 12.43 269.79"/><polygon class="cls-3" points="13.45 282.35 76.86 270.83 76.87 271.54 13.51 283.05 13.45 282.35"/><polygon class="cls-3" points="14.54 294.9 77.04 283.55 77.05 284.26 14.61 295.6 14.54 294.9"/><polygon class="cls-3" points="15.71 307.44 77.19 296.27 77.35 296.24 77.46 296.93 77.19 296.98 15.78 308.13 15.71 307.44"/><polygon class="cls-3" points="17 319.95 77.28 309.01 77.35 308.99 77.46 309.67 77.28 309.7 17.07 320.65 17 319.95"/><polygon class="cls-3" points="18.38 332.44 77.33 321.75 77.35 321.74 77.46 322.42 77.33 322.45 18.47 333.14 18.38 332.44"/><polygon class="cls-3" points="19.91 344.68 77.33 334 77.35 334 77.46 334.93 77.33 335.07 20 345.43 19.91 344.68"/><polygon class="cls-3" points="21.62 357.35 77.29 347.24 77.35 347.23 77.46 347.92 77.29 347.95 21.71 358.05 21.62 357.35"/><polygon class="cls-3" points="23.53 369.76 77.23 360 77.35 359.98 77.46 360.67 77.23 360.7 23.65 370.44 23.53 369.76"/><polygon class="cls-3" points="25.75 382.1 77.11 372.78 77.35 372.73 77.46 373.41 77.1 373.48 25.89 382.79 25.75 382.1"/><polygon class="cls-3" points="28.42 394.36 76.93 385.55 77.35 385.48 77.46 386.16 76.92 386.26 28.59 395.05 28.42 394.36"/><polygon class="cls-1" points="80.55 46.02 79.47 65.01 79.4 66.16 79.21 69.67 79.23 72.4 79 79.66 79 86.23 77.32 118.71 77.01 123.37 74.13 184.94 56.44 42.26 80.55 46.02"/><polygon class="cls-3" points="1.55 384.78 28.02 395.05 28.42 394 -1.93 382.23 1.55 384.78"/><polygon class="cls-3" points="-1.55 371.33 26.9 382.38 26.49 383.42 -1.6 372.52 -1.55 371.33"/><polygon class="cls-3" points="-1.14 359.86 24.39 369.77 23.99 370.81 -1.18 361.05 -1.14 359.86"/><polygon class="cls-3" points="-0.72 348.4 22.12 357.11 21.75 358.05 -0.76 349.46 -0.72 348.4"/><polygon class="cls-3" points="-0.28 336.94 20.4 344.81 20.06 345.66 -0.32 337.92 -0.28 336.94"/><polygon class="cls-3" points="0.16 325.49 18.87 332.37 18.56 333.14 0.13 326.36 0.16 325.49"/><polygon class="cls-3" points="0.64 314.05 17.47 319.97 17.18 320.65 0.6 314.81 0.64 314.05"/><polygon class="cls-3" points="1.15 301.64 16.18 307.46 15.92 308.13 1.12 302.4 1.15 301.64"/><polygon class="cls-3" points="1.66 290.21 15.01 294.98 14.75 295.6 1.62 290.92 1.66 290.21"/><polygon class="cls-3" points="2.24 277.61 13.92 282.38 13.67 283.05 2.21 278.37 2.24 277.61"/><path class="cls-3" d="M12.56,271.41l-9.81-3.8.06-1.19,9.65,3.75Z"/><polygon class="cls-3" points="11.59 258.73 3.38 255.55 3.44 254.37 11.49 257.5 11.59 258.73"/><polygon class="cls-3" points="10.6 245.07 4.11 242.55 4.18 241.37 10.52 243.84 10.6 245.07"/><polygon class="cls-3" points="9.78 232.74 4.85 230.82 4.94 229.65 9.7 231.49 9.78 232.74"/><polygon class="cls-3" points="9.01 220.81 5.7 219.53 5.57 218.36 8.95 219.69 9.01 220.81"/><polygon class="cls-3" points="80.6 49.44 57.62 50.18 57.63 50.83 80.56 50.1 80.6 49.44"/><polygon class="cls-3" points="79.99 62.22 59.21 63.58 59.01 63.59 59.06 64.24 59.29 64.22 79.96 62.87 79.99 62.22"/><polygon class="cls-3" points="79.39 74.38 60.77 75 60.74 75 60.78 77 60.85 77 79.36 75.41 79.39 74.38"/><polygon class="cls-3" points="78.78 88.04 62.36 89.1 61.77 89.14 61.81 89.79 62.44 89.75 78.75 88.68 78.78 88.04"/><polygon class="cls-3" points="78.11 102.18 64.14 103.09 64.11 102.44 78.14 101.52 78.11 102.18"/><polygon class="cls-3" points="77.51 114.8 65.64 115.57 65.53 115.58 65.57 116.23 65.71 116.22 77.48 115.45 77.51 114.8"/><polygon class="cls-3" points="76.87 128.4 67.29 129.03 67.12 129.03 67.16 129.68 67.37 129.67 76.84 129.04 76.87 128.4"/><rect class="cls-4" x="58.7" y="54.24" width="3.52" height="4.6" transform="translate(-5.99 7.18) rotate(-6.48)"/><rect class="cls-5" x="58.13" y="55.66" width="1.01" height="4.58" transform="translate(-6.04 6.83) rotate(-6.34)"/><rect class="cls-4" x="67.14" y="53.38" width="3.52" height="4.6" transform="translate(-5.84 8.13) rotate(-6.48)"/><rect class="cls-5" x="69.65" y="53.25" width="1.01" height="4.6" transform="translate(-5.82 8.27) rotate(-6.48)"/><rect class="cls-4" x="75.58" y="52.54" width="3.52" height="4.6" transform="translate(-5.69 9.08) rotate(-6.48)"/><rect class="cls-5" x="78.09" y="52.4" width="1.01" height="4.6" transform="translate(-5.67 9.22) rotate(-6.48)"/><rect class="cls-4" x="60.71" y="66.72" width="3.52" height="4.6" transform="translate(-7.39 7.49) rotate(-6.48)"/><rect class="cls-5" x="60.09" y="68.09" width="1.01" height="4.58" transform="translate(-7.4 7.12) rotate(-6.34)"/><rect class="cls-4" x="69.16" y="65.87" width="3.52" height="4.6" transform="translate(-7.24 8.44) rotate(-6.48)"/><rect class="cls-5" x="68.5" y="67.27" width="1.01" height="4.58" transform="translate(-7.26 8.05) rotate(-6.34)"/><polygon class="cls-4" points="79.47 65.01 79.4 66.16 79.21 69.67 77.85 69.83 77.34 65.25 79.47 65.01"/><rect class="cls-4" x="62.72" y="79.19" width="3.52" height="4.6" transform="translate(-8.78 7.8) rotate(-6.48)"/><rect class="cls-5" x="65.23" y="79.05" width="1.01" height="4.6" transform="translate(-8.76 7.94) rotate(-6.48)"/><rect class="cls-4" x="71.16" y="78.33" width="3.52" height="4.6" transform="translate(-8.63 8.74) rotate(-6.48)"/><rect class="cls-5" x="73.67" y="78.19" width="1.01" height="4.6" transform="translate(-8.61 8.88) rotate(-6.48)"/><rect class="cls-4" x="65.13" y="92.64" width="3.52" height="4.6" transform="translate(-10.29 8.16) rotate(-6.48)"/><rect class="cls-5" x="64.42" y="93.95" width="1.01" height="4.58" transform="translate(-10.23 7.76) rotate(-6.34)"/><rect class="cls-4" x="73.57" y="91.78" width="3.52" height="4.6" transform="translate(-10.14 9.1) rotate(-6.48)"/><rect class="cls-5" x="72.83" y="93.12" width="1.01" height="4.58" transform="translate(-10.09 8.68) rotate(-6.34)"/><rect class="cls-4" x="65.14" y="106.03" width="3.52" height="4.6" transform="translate(-11.8 8.24) rotate(-6.48)"/><rect class="cls-5" x="67.64" y="105.89" width="1.01" height="4.6" transform="translate(-11.78 8.38) rotate(-6.48)"/><rect class="cls-4" x="73.58" y="105.19" width="3.52" height="4.6" transform="translate(-11.65 9.19) rotate(-6.48)"/><rect class="cls-5" x="76.08" y="105.05" width="1.01" height="4.6" transform="translate(-11.63 9.33) rotate(-6.48)"/><rect class="cls-4" x="67.57" y="119.48" width="3.52" height="4.6" transform="translate(-13.3 8.6) rotate(-6.48)"/><rect class="cls-5" x="70.06" y="119.34" width="1.01" height="4.6" transform="translate(-13.28 8.74) rotate(-6.48)"/><polygon class="cls-4" points="77.14 118.71 76.92 123.37 76.28 123.45 75.76 118.87 77.14 118.71"/><rect class="cls-4" x="69.78" y="132.73" width="3.52" height="4.6" transform="translate(-14.78 8.94) rotate(-6.48)"/><rect class="cls-5" x="72.27" y="132.59" width="1.01" height="4.6" transform="translate(-14.76 9.08) rotate(-6.48)"/><rect class="cls-4" x="3" y="378.96" width="4.6" height="3.52" transform="translate(-354.84 257.12) rotate(-70.26)"/><rect class="cls-5" x="4.18" y="380.63" width="4.6" height="1.01" transform="translate(-354.44 258.51) rotate(-70.26)"/><rect class="cls-4" x="10.94" y="381.92" width="4.6" height="3.52" transform="translate(-352.36 266.55) rotate(-70.26)"/><rect class="cls-5" x="12.14" y="383.59" width="4.6" height="1.01" transform="translate(-351.96 267.95) rotate(-70.26)"/><rect class="cls-4" x="18.89" y="384.89" width="4.6" height="3.52" transform="translate(-349.89 276) rotate(-70.26)"/><rect class="cls-5" x="20.07" y="386.56" width="4.6" height="1.01" transform="translate(-349.5 277.38) rotate(-70.26)"/><rect class="cls-4" x="1.46" y="366.46" width="4.6" height="3.52" transform="translate(-344.09 247.39) rotate(-70.26)"/><rect class="cls-5" x="2.64" y="368.14" width="4.6" height="1.01" transform="translate(-343.71 248.79) rotate(-70.26)"/><rect class="cls-4" x="9.4" y="369.42" width="4.6" height="3.52" transform="translate(-341.62 256.83) rotate(-70.26)"/><rect class="cls-5" x="10.59" y="371.1" width="4.6" height="1.01" transform="translate(-341.23 258.23) rotate(-70.26)"/><rect class="cls-4" x="17.35" y="372.38" width="4.6" height="3.52" transform="translate(-339.14 266.28) rotate(-70.26)"/><rect class="cls-5" x="18.52" y="374.07" width="4.6" height="1.01" transform="translate(-338.77 267.66) rotate(-70.26)"/><rect class="cls-4" x="-0.08" y="353.97" width="4.6" height="3.52" transform="translate(-333.36 237.67) rotate(-70.26)"/><rect class="cls-5" x="1.1" y="355.64" width="4.6" height="1.01" transform="translate(-332.96 239.06) rotate(-70.26)"/><rect class="cls-4" x="7.86" y="356.93" width="4.6" height="3.52" transform="translate(-330.88 247.11) rotate(-70.26)"/><rect class="cls-5" x="9.05" y="358.61" width="4.6" height="1.01" transform="translate(-330.49 248.51) rotate(-70.26)"/><rect class="cls-4" x="15.81" y="359.9" width="4.6" height="3.52" transform="translate(-328.41 256.56) rotate(-70.26)"/><rect class="cls-5" x="16.99" y="361.57" width="4.6" height="1.01" transform="translate(-328.02 257.93) rotate(-70.26)"/><rect class="cls-4" x="6.33" y="344.43" width="4.6" height="3.52" transform="translate(-320.13 237.39) rotate(-70.26)"/><rect class="cls-5" x="7.52" y="346.11" width="4.6" height="1.01" transform="translate(-319.75 238.79) rotate(-70.26)"/><rect class="cls-4" x="14.27" y="347.4" width="4.6" height="3.52" transform="translate(-317.67 246.83) rotate(-70.26)"/><rect class="cls-5" x="15.46" y="349.08" width="4.6" height="1.01" transform="translate(-317.29 248.23) rotate(-70.26)"/><rect class="cls-4" x="4.79" y="331.95" width="4.6" height="3.52" transform="translate(-309.4 227.67) rotate(-70.26)"/><rect class="cls-5" x="5.97" y="333.63" width="4.6" height="1.01" transform="translate(-309.02 229.06) rotate(-70.26)"/><rect class="cls-4" x="12.73" y="334.91" width="4.6" height="3.52" transform="translate(-306.93 237.11) rotate(-70.26)"/><rect class="cls-5" x="13.91" y="336.6" width="4.6" height="1.01" transform="translate(-306.55 238.51) rotate(-70.26)"/><rect class="cls-4" x="3.25" y="319.44" width="4.6" height="3.52" transform="translate(-298.65 217.94) rotate(-70.26)"/><rect class="cls-5" x="4.42" y="321.13" width="4.6" height="1.01" transform="translate(-298.28 219.33) rotate(-70.26)"/><rect class="cls-4" x="11.19" y="322.42" width="4.6" height="3.52" transform="translate(-296.19 227.39) rotate(-70.26)"/><rect class="cls-5" x="12.38" y="324.09" width="4.6" height="1.01" transform="translate(-295.8 228.78) rotate(-70.26)"/><rect class="cls-4" x="1.71" y="306.96" width="4.6" height="3.52" transform="translate(-287.92 208.22) rotate(-70.26)"/><rect class="cls-5" x="2.89" y="308.63" width="4.6" height="1.01" transform="translate(-287.54 209.61) rotate(-70.26)"/><rect class="cls-4" x="9.67" y="309.92" width="4.6" height="3.52" transform="translate(-285.44 217.67) rotate(-70.26)"/><rect class="cls-5" x="10.84" y="311.6" width="4.6" height="1.01" transform="translate(-285.07 219.06) rotate(-70.26)"/><rect class="cls-5" x="1.35" y="296.14" width="4.6" height="1.01" transform="translate(-276.8 199.88) rotate(-70.26)"/><rect class="cls-4" x="8.12" y="297.43" width="4.6" height="3.52" transform="translate(-274.71 207.95) rotate(-70.26)"/><rect class="cls-5" x="9.3" y="299.1" width="4.6" height="1.01" transform="translate(-274.32 209.33) rotate(-70.26)"/><rect class="cls-4" x="6.58" y="284.94" width="4.6" height="3.52" transform="translate(-263.97 198.23) rotate(-70.26)"/><rect class="cls-5" x="7.76" y="286.61" width="4.6" height="1.01" transform="translate(-263.58 199.61) rotate(-70.26)"/><rect class="cls-4" x="5.05" y="272.44" width="4.6" height="3.52" transform="translate(-253.22 188.5) rotate(-70.26)"/><rect class="cls-5" x="6.22" y="274.12" width="4.6" height="1.01" transform="translate(-252.84 189.88) rotate(-70.26)"/><rect class="cls-4" x="3.5" y="259.94" width="4.6" height="3.52" transform="translate(-242.48 178.78) rotate(-70.26)"/><rect class="cls-5" x="4.68" y="261.62" width="4.6" height="1.01" transform="translate(-242.1 180.16) rotate(-70.26)"/><rect class="cls-4" x="4.15" y="247.55" width="4.6" height="3.52" transform="translate(-230.39 171.17) rotate(-70.26)"/><rect class="cls-5" x="5.33" y="249.23" width="4.6" height="1.01" transform="translate(-230.01 172.56) rotate(-70.26)"/><rect class="cls-4" x="4.15" y="236.08" width="4.6" height="3.52" transform="translate(-219.6 163.58) rotate(-70.26)"/><rect class="cls-5" x="5.33" y="237.76" width="4.6" height="1.01" transform="translate(-219.21 164.97) rotate(-70.26)"/><rect class="cls-4" x="2.09" y="64.14" width="3.52" height="4.6" transform="translate(-12.56 1.94) rotate(-10.96)"/><rect class="cls-5" x="3.35" y="63.72" width="1.01" height="4.59" transform="translate(-12.49 1.94) rotate(-10.97)"/><rect class="cls-4" x="9.2" y="62.44" width="3.51" height="4.59" transform="translate(-12.12 3.27) rotate(-10.97)"/><rect class="cls-5" x="12.91" y="62.39" width="1.01" height="4.6" transform="translate(-12.05 3.73) rotate(-10.96)"/><rect class="cls-4" x="18.77" y="61.12" width="3.52" height="4.6" transform="translate(-11.68 5.06) rotate(-10.96)"/><rect class="cls-5" x="21.26" y="60.88" width="1.01" height="4.6" transform="translate(-11.61 5.29) rotate(-10.96)"/><rect class="cls-4" x="27.12" y="59.62" width="3.52" height="4.6" transform="translate(-11.25 6.62) rotate(-10.96)"/><rect class="cls-5" x="29.6" y="59.38" width="1.01" height="4.6" transform="translate(-11.18 6.85) rotate(-10.96)"/><rect class="cls-4" x="35.46" y="58.11" width="3.52" height="4.6" transform="translate(-10.81 8.18) rotate(-10.96)"/><rect class="cls-5" x="37.95" y="57.87" width="1.01" height="4.6" transform="translate(-10.74 8.41) rotate(-10.96)"/><rect class="cls-4" x="43.81" y="56.6" width="3.52" height="4.6" transform="translate(-10.37 9.74) rotate(-10.96)"/><rect class="cls-5" x="46.29" y="56.36" width="1.01" height="4.6" transform="translate(-10.3 9.97) rotate(-10.96)"/><rect class="cls-4" x="52.17" y="55.1" width="3.52" height="4.6" transform="translate(-9.93 11.3) rotate(-10.96)"/><rect class="cls-5" x="54.64" y="54.86" width="1.01" height="4.6" transform="translate(-9.86 11.53) rotate(-10.96)"/><rect class="cls-4" x="4.08" y="76.61" width="3.52" height="4.6" transform="translate(-14.9 2.55) rotate(-10.96)"/><rect class="cls-5" x="6.57" y="76.37" width="1.01" height="4.6" transform="translate(-14.83 2.78) rotate(-10.96)"/><rect class="cls-4" x="12.43" y="75.1" width="3.52" height="4.6" transform="translate(-14.46 4.11) rotate(-10.96)"/><rect class="cls-5" x="14.92" y="74.86" width="1.01" height="4.6" transform="translate(-14.39 4.34) rotate(-10.96)"/><rect class="cls-4" x="20.78" y="73.59" width="3.52" height="4.6" transform="translate(-14.02 5.67) rotate(-10.96)"/><rect class="cls-5" x="23.27" y="73.36" width="1.01" height="4.6" transform="translate(-13.95 5.9) rotate(-10.96)"/><rect class="cls-4" x="29.13" y="72.09" width="3.52" height="4.6" transform="translate(-13.58 7.23) rotate(-10.96)"/><rect class="cls-5" x="31.61" y="71.85" width="1.01" height="4.6" transform="translate(-13.51 7.46) rotate(-10.96)"/><rect class="cls-4" x="37.47" y="70.58" width="3.52" height="4.6" transform="translate(-13.14 8.79) rotate(-10.96)"/><rect class="cls-5" x="39.96" y="70.34" width="1.01" height="4.6" transform="translate(-13.07 9.02) rotate(-10.96)"/><rect class="cls-4" x="45.82" y="69.08" width="3.52" height="4.6" transform="translate(-12.7 10.35) rotate(-10.96)"/><rect class="cls-5" x="48.3" y="68.84" width="1.01" height="4.6" transform="translate(-12.64 10.58) rotate(-10.96)"/><rect class="cls-4" x="52.86" y="67.38" width="3.51" height="4.59" transform="translate(-12.26 11.67) rotate(-10.97)"/><rect class="cls-5" x="56.65" y="67.33" width="1.01" height="4.6" transform="translate(-12.2 12.14) rotate(-10.96)"/><rect class="cls-4" x="6.1" y="89.08" width="3.52" height="4.6" transform="translate(-17.23 3.16) rotate(-10.96)"/><rect class="cls-5" x="8.59" y="88.84" width="1.01" height="4.6" transform="translate(-17.16 3.39) rotate(-10.96)"/><rect class="cls-4" x="13.22" y="87.34" width="3.51" height="4.59" transform="translate(-16.79 4.49) rotate(-10.97)"/><rect class="cls-5" x="16.92" y="87.34" width="1.01" height="4.6" transform="translate(-16.73 4.95) rotate(-10.96)"/><rect class="cls-4" x="22.79" y="86.07" width="3.52" height="4.6" transform="translate(-16.35 6.28) rotate(-10.96)"/><rect class="cls-5" x="25.27" y="85.83" width="1.01" height="4.6" transform="translate(-16.29 6.51) rotate(-10.96)"/><rect class="cls-4" x="31.13" y="84.56" width="3.52" height="4.6" transform="translate(-15.91 7.84) rotate(-10.96)"/><rect class="cls-5" x="33.62" y="84.32" width="1.01" height="4.6" transform="translate(-15.85 8.07) rotate(-10.96)"/><rect class="cls-4" x="39.48" y="83.06" width="3.52" height="4.6" transform="translate(-15.48 9.4) rotate(-10.96)"/><rect class="cls-5" x="41.96" y="82.82" width="1.01" height="4.6" transform="translate(-15.41 9.63) rotate(-10.96)"/><rect class="cls-4" x="47.83" y="81.55" width="3.52" height="4.6" transform="translate(-15.04 10.96) rotate(-10.96)"/><rect class="cls-5" x="50.32" y="81.31" width="1.01" height="4.6" transform="translate(-14.97 11.19) rotate(-10.96)"/><rect class="cls-4" x="54.87" y="79.83" width="3.51" height="4.59" transform="translate(-14.6 12.28) rotate(-10.97)"/><rect class="cls-5" x="58.67" y="79.81" width="1.01" height="4.6" transform="translate(-14.53 12.75) rotate(-10.96)"/><rect class="cls-4" x="8.11" y="102.53" width="3.52" height="4.6" transform="translate(-19.75 3.79) rotate(-10.96)"/><rect class="cls-5" x="10.59" y="102.3" width="1.01" height="4.6" transform="translate(-19.69 4.02) rotate(-10.96)"/><rect class="cls-4" x="16.46" y="101.03" width="3.52" height="4.6" transform="translate(-19.31 5.35) rotate(-10.96)"/><rect class="cls-5" x="18.93" y="100.79" width="1.01" height="4.6" transform="translate(-19.25 5.58) rotate(-10.96)"/><rect class="cls-4" x="24.79" y="99.52" width="3.52" height="4.6" transform="translate(-18.87 6.91) rotate(-10.96)"/><rect class="cls-5" x="27.28" y="99.28" width="1.01" height="4.6" transform="translate(-18.81 7.14) rotate(-10.96)"/><rect class="cls-4" x="33.14" y="98.02" width="3.52" height="4.6" transform="translate(-18.44 8.47) rotate(-10.96)"/><rect class="cls-5" x="35.63" y="97.78" width="1.01" height="4.6" transform="translate(-18.37 8.7) rotate(-10.96)"/><rect class="cls-4" x="41.49" y="96.51" width="3.52" height="4.6" transform="translate(-18 10.03) rotate(-10.96)"/><rect class="cls-5" x="43.97" y="96.28" width="1.01" height="4.6" transform="translate(-17.93 10.25) rotate(-10.96)"/><rect class="cls-4" x="49.83" y="95" width="3.52" height="4.6" transform="translate(-17.56 11.58) rotate(-10.96)"/><rect class="cls-5" x="52.33" y="94.77" width="1.01" height="4.6" transform="translate(-17.49 11.82) rotate(-10.96)"/><rect class="cls-4" x="58.19" y="93.5" width="3.52" height="4.6" transform="translate(-17.12 13.14) rotate(-10.96)"/><rect class="cls-5" x="60.68" y="93.26" width="1.01" height="4.6" transform="translate(-17.05 13.38) rotate(-10.96)"/><rect class="cls-4" x="10.12" y="116" width="3.52" height="4.6" transform="translate(-22.27 4.42) rotate(-10.96)"/><rect class="cls-5" x="12.59" y="115.76" width="1.01" height="4.6" transform="translate(-22.21 4.64) rotate(-10.96)"/><rect class="cls-4" x="18.46" y="114.49" width="3.52" height="4.6" transform="translate(-21.84 5.97) rotate(-10.96)"/><rect class="cls-5" x="19.7" y="113.97" width="1.01" height="4.59" transform="translate(-21.76 5.97) rotate(-10.97)"/><rect class="cls-4" x="26.8" y="112.98" width="3.52" height="4.6" transform="translate(-21.4 7.53) rotate(-10.96)"/><rect class="cls-5" x="29.29" y="112.74" width="1.01" height="4.6" transform="translate(-21.33 7.76) rotate(-10.96)"/><rect class="cls-4" x="35.15" y="111.47" width="3.52" height="4.6" transform="translate(-20.96 9.09) rotate(-10.96)"/><rect class="cls-5" x="37.63" y="111.23" width="1.01" height="4.6" transform="translate(-20.89 9.32) rotate(-10.96)"/><rect class="cls-4" x="43.49" y="109.96" width="3.52" height="4.6" transform="translate(-20.52 10.65) rotate(-10.96)"/><rect class="cls-5" x="45.99" y="109.73" width="1.01" height="4.6" transform="translate(-20.45 10.88) rotate(-10.96)"/><rect class="cls-4" x="51.85" y="108.46" width="3.52" height="4.6" transform="translate(-20.08 12.21) rotate(-10.96)"/><rect class="cls-5" x="54.34" y="108.22" width="1.01" height="4.6" transform="translate(-20.01 12.44) rotate(-10.96)"/><rect class="cls-4" x="60.2" y="106.95" width="3.52" height="4.6" transform="translate(-19.64 13.77) rotate(-10.96)"/><rect class="cls-5" x="61.35" y="106.45" width="1.01" height="4.59" transform="translate(-19.57 13.76) rotate(-10.97)"/><polygon class="cls-4" points="4.68 135.82 7.69 135.23 6.82 130.71 4.49 131.17 4.68 135.82"/><rect class="cls-5" x="6.26" y="130.71" width="1.01" height="4.6" transform="translate(-25.16 3.71) rotate(-10.96)"/><rect class="cls-4" x="12.12" y="129.44" width="3.52" height="4.6" transform="translate(-24.79 5.04) rotate(-10.96)"/><rect class="cls-5" x="13.37" y="128.89" width="1.01" height="4.59" transform="translate(-24.72 5.04) rotate(-10.97)"/><rect class="cls-4" x="20.47" y="127.94" width="3.52" height="4.6" transform="translate(-24.36 6.6) rotate(-10.96)"/><rect class="cls-5" x="22.95" y="127.7" width="1.01" height="4.6" transform="translate(-24.29 6.83) rotate(-10.96)"/><rect class="cls-4" x="28.81" y="126.43" width="3.52" height="4.6" transform="translate(-23.92 8.16) rotate(-10.96)"/><rect class="cls-5" x="31.29" y="126.19" width="1.01" height="4.6" transform="translate(-23.85 8.39) rotate(-10.96)"/><rect class="cls-4" x="37.16" y="124.92" width="3.52" height="4.6" transform="translate(-23.48 9.72) rotate(-10.96)"/><rect class="cls-5" x="39.65" y="124.69" width="1.01" height="4.6" transform="translate(-23.41 9.95) rotate(-10.96)"/><rect class="cls-4" x="45.51" y="123.42" width="3.52" height="4.6" transform="translate(-23.04 11.28) rotate(-10.96)"/><rect class="cls-5" x="48" y="123.18" width="1.01" height="4.6" transform="translate(-22.97 11.51) rotate(-10.96)"/><rect class="cls-4" x="53.86" y="121.91" width="3.52" height="4.6" transform="translate(-22.6 12.84) rotate(-10.96)"/><rect class="cls-5" x="56.34" y="121.67" width="1.01" height="4.6" transform="translate(-22.53 13.07) rotate(-10.96)"/><rect class="cls-4" x="62.21" y="120.41" width="3.52" height="4.6" transform="translate(-22.16 14.4) rotate(-10.96)"/><rect class="cls-5" x="64.68" y="120.17" width="1.01" height="4.6" transform="translate(-22.1 14.63) rotate(-10.96)"/><path class="cls-4" d="M8.15,148.75l-2.89.57c-.07-1.57-.14-3.12-.21-4.66l2.22-.43Z"/><rect class="cls-5" x="6.72" y="144.23" width="1.01" height="4.6" transform="translate(-27.73 4.05) rotate(-10.96)"/><rect class="cls-4" x="12.58" y="142.97" width="3.52" height="4.6" transform="translate(-27.36 5.38) rotate(-10.96)"/><rect class="cls-5" x="15.06" y="142.73" width="1.01" height="4.6" transform="translate(-27.29 5.61) rotate(-10.96)"/><rect class="cls-4" x="20.93" y="141.46" width="3.52" height="4.6" transform="translate(-26.92 6.94) rotate(-10.96)"/><rect class="cls-5" x="22.15" y="140.89" width="1.01" height="4.59" transform="translate(-26.84 6.93) rotate(-10.97)"/><rect class="cls-4" x="29.26" y="139.94" width="3.52" height="4.6" transform="translate(-26.48 8.49) rotate(-10.96)"/><rect class="cls-5" x="31.76" y="139.71" width="1.01" height="4.6" transform="translate(-26.41 8.72) rotate(-10.96)"/><rect class="cls-4" x="37.62" y="138.44" width="3.52" height="4.6" transform="translate(-26.04 10.05) rotate(-10.96)"/><rect class="cls-5" x="40.11" y="138.2" width="1.01" height="4.6" transform="translate(-25.97 10.28) rotate(-10.96)"/><rect class="cls-4" x="45.97" y="136.93" width="3.52" height="4.6" transform="translate(-25.6 11.61) rotate(-10.96)"/><rect class="cls-5" x="48.45" y="136.69" width="1.01" height="4.6" transform="translate(-25.53 11.84) rotate(-10.96)"/><rect class="cls-4" x="53" y="135.12" width="3.51" height="4.59" transform="translate(-25.15 12.93) rotate(-10.97)"/><rect class="cls-5" x="56.8" y="135.19" width="1.01" height="4.6" transform="translate(-25.09 13.4) rotate(-10.96)"/><rect class="cls-4" x="62.66" y="133.92" width="3.52" height="4.6" transform="translate(-24.72 14.73) rotate(-10.96)"/><rect class="cls-5" x="65.14" y="133.68" width="1.01" height="4.6" transform="translate(-24.66 14.96) rotate(-10.96)"/><polygon class="cls-4" points="5.66 158.14 6.73 157.93 7.73 157.74 8.6 162.26 7.61 162.46 5.88 162.79 5.66 158.14"/><rect class="cls-5" x="7.17" y="157.74" width="1.01" height="4.6" transform="translate(-30.29 4.38) rotate(-10.96)"/><rect class="cls-4" x="13.03" y="156.47" width="3.52" height="4.6" transform="translate(-29.92 5.71) rotate(-10.96)"/><rect class="cls-5" x="15.51" y="156.23" width="1.01" height="4.6" transform="translate(-29.85 5.94) rotate(-10.96)"/><rect class="cls-4" x="21.38" y="154.96" width="3.52" height="4.6" transform="translate(-29.48 7.27) rotate(-10.96)"/><rect class="cls-5" x="23.86" y="154.72" width="1.01" height="4.6" transform="translate(-29.41 7.5) rotate(-10.96)"/><rect class="cls-4" x="29.73" y="153.46" width="3.52" height="4.6" transform="translate(-29.04 8.83) rotate(-10.96)"/><rect class="cls-5" x="32.21" y="153.22" width="1.01" height="4.6" transform="translate(-28.97 9.06) rotate(-10.96)"/><rect class="cls-4" x="38.08" y="151.95" width="3.52" height="4.6" transform="translate(-28.6 10.39) rotate(-10.96)"/><rect class="cls-5" x="40.56" y="151.71" width="1.01" height="4.6" transform="translate(-28.53 10.62) rotate(-10.96)"/><rect class="cls-4" x="46.42" y="150.44" width="3.52" height="4.6" transform="translate(-28.16 11.95) rotate(-10.96)"/><rect class="cls-5" x="48.91" y="150.2" width="1.01" height="4.6" transform="translate(-28.09 12.18) rotate(-10.96)"/><rect class="cls-4" x="54.77" y="148.94" width="3.52" height="4.6" transform="translate(-27.72 13.51) rotate(-10.96)"/><rect class="cls-5" x="57.25" y="148.7" width="1.01" height="4.6" transform="translate(-27.65 13.73) rotate(-10.96)"/><rect class="cls-4" x="63.12" y="147.43" width="3.52" height="4.6" transform="translate(-27.28 15.07) rotate(-10.96)"/><rect class="cls-5" x="65.59" y="147.19" width="1.01" height="4.6" transform="translate(-27.22 15.29) rotate(-10.96)"/><rect class="cls-4" x="6.7" y="169.61" width="3.52" height="4.6" transform="translate(-32.53 4.74) rotate(-10.96)"/><rect class="cls-5" x="9.18" y="169.37" width="1.01" height="4.6" transform="translate(-32.46 4.97) rotate(-10.96)"/><rect class="cls-4" x="15.04" y="168.1" width="3.52" height="4.6" transform="translate(-32.09 6.3) rotate(-10.96)"/><rect class="cls-5" x="17.53" y="167.86" width="1.01" height="4.6" transform="translate(-32.02 6.53) rotate(-10.96)"/><rect class="cls-4" x="23.39" y="166.59" width="3.52" height="4.6" transform="translate(-31.65 7.86) rotate(-10.96)"/><rect class="cls-5" x="25.87" y="166.36" width="1.01" height="4.6" transform="translate(-31.59 8.09) rotate(-10.96)"/><rect class="cls-4" x="31.74" y="165.09" width="3.52" height="4.6" transform="translate(-31.21 9.42) rotate(-10.96)"/><rect class="cls-5" x="34.22" y="164.85" width="1.01" height="4.6" transform="translate(-31.15 9.65) rotate(-10.96)"/><rect class="cls-4" x="40.08" y="163.58" width="3.52" height="4.6" transform="translate(-30.77 10.98) rotate(-10.96)"/><rect class="cls-5" x="42.57" y="163.34" width="1.01" height="4.6" transform="translate(-30.71 11.21) rotate(-10.96)"/><rect class="cls-4" x="48.43" y="162.08" width="3.52" height="4.6" transform="translate(-30.34 12.54) rotate(-10.96)"/><rect class="cls-5" x="50.91" y="161.84" width="1.01" height="4.6" transform="translate(-30.27 12.77) rotate(-10.96)"/><rect class="cls-4" x="56.77" y="160.57" width="3.52" height="4.6" transform="translate(-29.9 14.1) rotate(-10.96)"/><rect class="cls-5" x="59.26" y="160.33" width="1.01" height="4.6" transform="translate(-29.83 14.33) rotate(-10.96)"/><rect class="cls-4" x="65.11" y="159.06" width="3.52" height="4.6" transform="translate(-29.46 15.66) rotate(-10.96)"/><rect class="cls-5" x="67.61" y="158.83" width="1.01" height="4.6" transform="translate(-29.39 15.89) rotate(-10.96)"/><rect class="cls-4" x="8.7" y="182.23" width="3.52" height="4.6" transform="translate(-34.89 5.35) rotate(-10.96)"/><rect class="cls-5" x="9.95" y="181.59" width="1.01" height="4.59" transform="translate(-34.81 5.35) rotate(-10.97)"/><rect class="cls-4" x="17.05" y="180.71" width="3.52" height="4.6" transform="translate(-34.45 6.91) rotate(-10.96)"/><rect class="cls-5" x="19.54" y="180.47" width="1.01" height="4.6" transform="translate(-34.38 7.14) rotate(-10.96)"/><rect class="cls-4" x="25.4" y="179.21" width="3.52" height="4.6" transform="translate(-34.01 8.47) rotate(-10.96)"/><rect class="cls-5" x="26.62" y="178.58" width="1.01" height="4.59" transform="translate(-33.93 8.47) rotate(-10.97)"/><rect class="cls-4" x="33.74" y="177.7" width="3.52" height="4.6" transform="translate(-33.57 10.03) rotate(-10.96)"/><rect class="cls-5" x="36.23" y="177.46" width="1.01" height="4.6" transform="translate(-33.51 10.26) rotate(-10.96)"/><rect class="cls-4" x="42.09" y="176.19" width="3.52" height="4.6" transform="translate(-33.14 11.59) rotate(-10.96)"/><rect class="cls-5" x="44.59" y="175.96" width="1.01" height="4.6" transform="translate(-33.07 11.82) rotate(-10.96)"/><rect class="cls-4" x="50.44" y="174.69" width="3.52" height="4.6" transform="translate(-32.7 13.15) rotate(-10.96)"/><rect class="cls-5" x="52.92" y="174.45" width="1.01" height="4.6" transform="translate(-32.63 13.38) rotate(-10.96)"/><rect class="cls-4" x="58.77" y="173.18" width="3.52" height="4.6" transform="translate(-32.26 14.71) rotate(-10.96)"/><rect class="cls-5" x="59.94" y="172.56" width="1.01" height="4.59" transform="translate(-32.18 14.7) rotate(-10.97)"/><rect class="cls-4" x="67.13" y="171.68" width="3.52" height="4.6" transform="translate(-31.82 16.27) rotate(-10.96)"/><rect class="cls-5" x="69.62" y="171.44" width="1.01" height="4.6" transform="translate(-31.75 16.5) rotate(-10.96)"/><line class="cls-6" x1="5.86" y1="197.42" x2="6.74" y2="201.94"/><polyline class="cls-5" points="5.86 197.42 6.74 201.94 5.74 202.13"/><rect class="cls-4" x="11.17" y="196.15" width="3.52" height="4.6" transform="translate(-37.49 6.08) rotate(-10.96)"/><rect class="cls-5" x="13.65" y="195.91" width="1.01" height="4.6" transform="translate(-37.43 6.31) rotate(-10.96)"/><rect class="cls-4" x="19.51" y="194.65" width="3.52" height="4.6" transform="translate(-37.06 7.64) rotate(-10.96)"/><rect class="cls-5" x="22" y="194.4" width="1.01" height="4.6" transform="translate(-36.99 7.87) rotate(-10.96)"/><rect class="cls-4" x="27.86" y="193.15" width="3.52" height="4.6" transform="translate(-36.62 9.2) rotate(-10.96)"/><rect class="cls-5" x="29.08" y="192.48" width="1.01" height="4.59" transform="translate(-36.53 9.19) rotate(-10.97)"/><rect class="cls-4" x="36.21" y="191.63" width="3.52" height="4.6" transform="translate(-36.18 10.76) rotate(-10.96)"/><rect class="cls-5" x="38.69" y="191.39" width="1.01" height="4.6" transform="translate(-36.11 10.98) rotate(-10.96)"/><rect class="cls-4" x="44.55" y="190.12" width="3.52" height="4.6" transform="translate(-35.74 12.32) rotate(-10.96)"/><rect class="cls-5" x="47.04" y="189.89" width="1.01" height="4.6" transform="translate(-35.67 12.54) rotate(-10.96)"/><rect class="cls-4" x="52.9" y="188.62" width="3.52" height="4.6" transform="translate(-35.3 13.87) rotate(-10.96)"/><rect class="cls-5" x="55.39" y="188.38" width="1.01" height="4.6" transform="translate(-35.23 14.1) rotate(-10.96)"/><rect class="cls-4" x="61.25" y="187.11" width="3.52" height="4.6" transform="translate(-34.86 15.43) rotate(-10.96)"/><rect class="cls-5" x="63.73" y="186.87" width="1.01" height="4.6" transform="translate(-34.79 15.66) rotate(-10.96)"/><rect class="cls-4" x="69.59" y="185.61" width="3.52" height="4.6" transform="translate(-34.42 16.99) rotate(-10.96)"/><rect class="cls-5" x="70.74" y="184.97" width="1.01" height="4.59" transform="translate(-34.34 16.98) rotate(-10.97)"/><rect class="cls-4" x="12.65" y="210.08" width="3.52" height="4.6" transform="translate(-40.12 6.61) rotate(-10.96)"/><rect class="cls-5" x="15.13" y="209.84" width="1.01" height="4.6" transform="translate(-40.05 6.84) rotate(-10.96)"/><rect class="cls-4" x="21" y="208.57" width="3.52" height="4.6" transform="translate(-39.68 8.17) rotate(-10.96)"/><rect class="cls-5" x="23.49" y="208.34" width="1.01" height="4.6" transform="translate(-39.61 8.4) rotate(-10.96)"/><rect class="cls-4" x="29.34" y="207.07" width="3.52" height="4.6" transform="translate(-39.24 9.73) rotate(-10.96)"/><rect class="cls-5" x="31.84" y="206.83" width="1.01" height="4.6" transform="translate(-39.17 9.96) rotate(-10.96)"/><rect class="cls-4" x="37.7" y="205.56" width="3.52" height="4.6" transform="translate(-38.8 11.29) rotate(-10.96)"/><rect class="cls-5" x="40.17" y="205.32" width="1.01" height="4.6" transform="translate(-38.73 11.52) rotate(-10.96)"/><rect class="cls-4" x="46.04" y="204.06" width="3.52" height="4.6" transform="translate(-38.36 12.85) rotate(-10.96)"/><rect class="cls-5" x="48.52" y="203.82" width="1.01" height="4.6" transform="translate(-38.29 13.08) rotate(-10.96)"/><rect class="cls-4" x="54.38" y="202.55" width="3.52" height="4.6" transform="translate(-37.92 14.41) rotate(-10.96)"/><rect class="cls-5" x="56.87" y="202.31" width="1.01" height="4.6" transform="translate(-37.85 14.64) rotate(-10.96)"/><rect class="cls-4" x="62.73" y="201.04" width="3.52" height="4.6" transform="translate(-37.48 15.97) rotate(-10.96)"/><rect class="cls-5" x="65.21" y="200.81" width="1.01" height="4.6" transform="translate(-37.42 16.2) rotate(-10.96)"/><rect class="cls-4" x="71.08" y="199.53" width="3.52" height="4.6" transform="translate(-37.04 17.53) rotate(-10.96)"/><rect class="cls-5" x="73.56" y="199.29" width="1.01" height="4.6" transform="translate(-36.98 17.76) rotate(-10.96)"/><rect class="cls-4" x="12.13" y="223.37" width="3.52" height="4.6" transform="translate(-42.65 6.76) rotate(-10.96)"/><rect class="cls-5" x="13.37" y="222.65" width="1.01" height="4.59" transform="translate(-42.56 6.75) rotate(-10.97)"/><rect class="cls-4" x="20.48" y="221.86" width="3.52" height="4.6" transform="translate(-42.21 8.32) rotate(-10.96)"/><rect class="cls-5" x="22.96" y="221.62" width="1.01" height="4.6" transform="translate(-42.14 8.55) rotate(-10.96)"/><rect class="cls-4" x="28.82" y="220.35" width="3.52" height="4.6" transform="translate(-41.77 9.87) rotate(-10.96)"/><rect class="cls-5" x="30.02" y="219.64" width="1.01" height="4.59" transform="translate(-41.68 9.87) rotate(-10.97)"/><rect class="cls-4" x="37.17" y="218.84" width="3.52" height="4.6" transform="translate(-41.33 11.43) rotate(-10.96)"/><rect class="cls-5" x="39.65" y="218.61" width="1.01" height="4.6" transform="translate(-41.27 11.66) rotate(-10.96)"/><rect class="cls-4" x="45.51" y="217.34" width="3.52" height="4.6" transform="translate(-40.9 12.99) rotate(-10.96)"/><rect class="cls-5" x="48" y="217.1" width="1.01" height="4.6" transform="translate(-40.83 13.22) rotate(-10.96)"/><rect class="cls-4" x="53.86" y="215.83" width="3.52" height="4.6" transform="translate(-40.46 14.55) rotate(-10.96)"/><rect class="cls-5" x="56.35" y="215.59" width="1.01" height="4.6" transform="translate(-40.39 14.78) rotate(-10.96)"/><rect class="cls-4" x="62.22" y="214.33" width="3.52" height="4.6" transform="translate(-40.02 16.11) rotate(-10.96)"/><rect class="cls-5" x="64.7" y="214.09" width="1.01" height="4.6" transform="translate(-39.95 16.34) rotate(-10.96)"/><rect class="cls-4" x="70.56" y="212.82" width="3.52" height="4.6" transform="translate(-39.58 17.67) rotate(-10.96)"/><rect class="cls-5" x="71.69" y="212.13" width="1.01" height="4.59" transform="translate(-39.49 17.66) rotate(-10.97)"/><rect class="cls-4" x="11.6" y="236.64" width="3.52" height="4.6" transform="translate(-45.19 6.9) rotate(-10.96)"/><rect class="cls-5" x="14.09" y="236.41" width="1.01" height="4.6" transform="translate(-45.12 7.13) rotate(-10.96)"/><rect class="cls-4" x="19.95" y="235.14" width="3.52" height="4.6" transform="translate(-44.75 8.46) rotate(-10.96)"/><rect class="cls-5" x="21.17" y="234.41" width="1.01" height="4.59" transform="translate(-44.66 8.45) rotate(-10.97)"/><rect class="cls-4" x="28.29" y="233.63" width="3.52" height="4.6" transform="translate(-44.31 10.02) rotate(-10.96)"/><rect class="cls-5" x="30.79" y="233.39" width="1.01" height="4.6" transform="translate(-44.24 10.25) rotate(-10.96)"/><rect class="cls-4" x="36.65" y="232.12" width="3.52" height="4.6" transform="translate(-43.87 11.58) rotate(-10.96)"/><rect class="cls-5" x="39.14" y="231.88" width="1.01" height="4.6" transform="translate(-43.8 11.81) rotate(-10.96)"/><rect class="cls-4" x="45" y="230.61" width="3.52" height="4.6" transform="translate(-43.43 13.14) rotate(-10.96)"/><rect class="cls-5" x="47.48" y="230.38" width="1.01" height="4.6" transform="translate(-43.36 13.37) rotate(-10.96)"/><rect class="cls-4" x="53.35" y="229.1" width="3.52" height="4.6" transform="translate(-42.99 14.7) rotate(-10.96)"/><rect class="cls-5" x="55.82" y="228.88" width="1.01" height="4.6" transform="translate(-42.92 14.93) rotate(-10.96)"/><rect class="cls-4" x="61.68" y="227.61" width="3.52" height="4.6" transform="translate(-42.55 16.25) rotate(-10.96)"/><rect class="cls-5" x="64.17" y="227.37" width="1.01" height="4.6" transform="translate(-42.49 16.49) rotate(-10.96)"/><rect class="cls-4" x="70.03" y="226.1" width="3.52" height="4.6" transform="translate(-42.11 17.82) rotate(-10.96)"/><rect class="cls-5" x="72.51" y="225.86" width="1.01" height="4.6" transform="translate(-42.05 18.04) rotate(-10.96)"/><rect class="cls-4" x="11.09" y="248.95" width="3.52" height="4.6" transform="translate(-47.53 7.03) rotate(-10.96)"/><rect class="cls-5" x="12.31" y="248.19" width="1.01" height="4.59" transform="translate(-47.44 7.02) rotate(-10.97)"/><rect class="cls-4" x="19.43" y="247.44" width="3.52" height="4.6" transform="translate(-47.09 8.58) rotate(-10.96)"/><rect class="cls-5" x="21.91" y="247.2" width="1.01" height="4.6" transform="translate(-47.03 8.81) rotate(-10.96)"/><rect class="cls-4" x="27.77" y="245.93" width="3.52" height="4.6" transform="translate(-46.66 10.14) rotate(-10.96)"/><rect class="cls-5" x="28.99" y="245.18" width="1.01" height="4.59" transform="translate(-46.56 10.14) rotate(-10.97)"/><rect class="cls-4" x="36.12" y="244.43" width="3.52" height="4.6" transform="translate(-46.22 11.7) rotate(-10.96)"/><rect class="cls-5" x="38.61" y="244.19" width="1.01" height="4.6" transform="translate(-46.15 11.93) rotate(-10.96)"/><rect class="cls-4" x="44.47" y="242.92" width="3.52" height="4.6" transform="translate(-45.78 13.26) rotate(-10.96)"/><rect class="cls-5" x="46.96" y="242.68" width="1.01" height="4.6" transform="translate(-45.71 13.49) rotate(-10.96)"/><rect class="cls-4" x="52.82" y="241.41" width="3.52" height="4.6" transform="translate(-45.34 14.82) rotate(-10.96)"/><rect class="cls-5" x="55.31" y="241.18" width="1.01" height="4.6" transform="translate(-45.27 15.05) rotate(-10.96)"/><rect class="cls-4" x="61.17" y="239.91" width="3.52" height="4.6" transform="translate(-44.9 16.38) rotate(-10.96)"/><rect class="cls-5" x="63.64" y="239.67" width="1.01" height="4.6" transform="translate(-44.83 16.61) rotate(-10.96)"/><rect class="cls-4" x="69.52" y="238.39" width="3.52" height="4.6" transform="translate(-44.46 17.94) rotate(-10.96)"/><rect class="cls-5" x="71.99" y="238.15" width="1.01" height="4.6" transform="translate(-44.39 18.17) rotate(-10.96)"/><rect class="cls-4" x="12.44" y="261.03" width="3.52" height="4.6" transform="translate(-49.81 7.5) rotate(-10.96)"/><rect class="cls-5" x="14.93" y="260.79" width="1.01" height="4.6" transform="translate(-49.74 7.73) rotate(-10.96)"/><rect class="cls-4" x="20.79" y="259.53" width="3.52" height="4.6" transform="translate(-49.37 9.06) rotate(-10.96)"/><rect class="cls-5" x="23.28" y="259.29" width="1.01" height="4.6" transform="translate(-49.3 9.29) rotate(-10.96)"/><rect class="cls-4" x="29.14" y="258.02" width="3.52" height="4.6" transform="translate(-48.93 10.62) rotate(-10.96)"/><rect class="cls-5" x="31.63" y="257.78" width="1.01" height="4.6" transform="translate(-48.86 10.85) rotate(-10.96)"/><rect class="cls-4" x="37.49" y="256.51" width="3.52" height="4.6" transform="translate(-48.49 12.18) rotate(-10.96)"/><rect class="cls-5" x="39.98" y="256.28" width="1.01" height="4.6" transform="translate(-48.42 12.41) rotate(-10.96)"/><rect class="cls-4" x="45.84" y="255.01" width="3.52" height="4.6" transform="translate(-48.05 13.74) rotate(-10.96)"/><rect class="cls-5" x="48.32" y="254.77" width="1.01" height="4.6" transform="translate(-47.98 13.97) rotate(-10.96)"/><rect class="cls-4" x="54.18" y="253.5" width="3.52" height="4.6" transform="translate(-47.61 15.3) rotate(-10.96)"/><rect class="cls-5" x="56.66" y="253.26" width="1.01" height="4.6" transform="translate(-47.55 15.53) rotate(-10.96)"/><rect class="cls-4" x="62.52" y="251.99" width="3.52" height="4.6" transform="translate(-47.17 16.86) rotate(-10.96)"/><rect class="cls-5" x="65.01" y="251.75" width="1.01" height="4.6" transform="translate(-47.11 17.09) rotate(-10.96)"/><rect class="cls-4" x="70.87" y="250.48" width="3.52" height="4.6" transform="translate(-46.74 18.42) rotate(-10.96)"/><rect class="cls-5" x="73.35" y="250.24" width="1.01" height="4.6" transform="translate(-46.67 18.65) rotate(-10.96)"/><rect class="cls-4" x="13.81" y="273.12" width="3.52" height="4.6" transform="translate(-52.08 7.98) rotate(-10.96)"/><rect class="cls-5" x="15.04" y="272.32" width="1.01" height="4.59" transform="translate(-51.98 7.98) rotate(-10.97)"/><rect class="cls-4" x="22.16" y="271.61" width="3.52" height="4.6" transform="translate(-51.64 9.54) rotate(-10.96)"/><rect class="cls-5" x="24.65" y="271.37" width="1.01" height="4.6" transform="translate(-51.57 9.77) rotate(-10.96)"/><rect class="cls-4" x="30.51" y="270.11" width="3.52" height="4.6" transform="translate(-51.2 11.1) rotate(-10.96)"/><rect class="cls-5" x="31.71" y="269.32" width="1.01" height="4.59" transform="translate(-51.11 11.1) rotate(-10.97)"/><rect class="cls-4" x="38.85" y="268.6" width="3.52" height="4.6" transform="translate(-50.76 12.66) rotate(-10.96)"/><rect class="cls-5" x="41.34" y="268.36" width="1.01" height="4.6" transform="translate(-50.7 12.89) rotate(-10.96)"/><rect class="cls-4" x="47.2" y="267.09" width="3.52" height="4.6" transform="translate(-50.32 14.22) rotate(-10.96)"/><rect class="cls-5" x="49.68" y="266.86" width="1.01" height="4.6" transform="translate(-50.26 14.45) rotate(-10.96)"/><rect class="cls-4" x="55.54" y="265.59" width="3.52" height="4.6" transform="translate(-49.89 15.78) rotate(-10.96)"/><rect class="cls-5" x="58.03" y="265.35" width="1.01" height="4.6" transform="translate(-49.82 16.01) rotate(-10.96)"/><rect class="cls-4" x="63.88" y="264.07" width="3.52" height="4.6" transform="translate(-49.45 17.34) rotate(-10.96)"/><rect class="cls-5" x="66.38" y="263.83" width="1.01" height="4.6" transform="translate(-49.38 17.57) rotate(-10.96)"/><rect class="cls-4" x="72.24" y="262.57" width="3.52" height="4.6" transform="translate(-49.01 18.9) rotate(-10.96)"/><rect class="cls-5" x="74.73" y="262.33" width="1.01" height="4.6" transform="translate(-48.94 19.13) rotate(-10.96)"/><rect class="cls-4" x="15.18" y="285.21" width="3.52" height="4.6" transform="translate(-54.35 8.46) rotate(-10.96)"/><rect class="cls-5" x="17.66" y="284.97" width="1.01" height="4.6" transform="translate(-54.29 8.69) rotate(-10.96)"/><rect class="cls-4" x="23.52" y="283.7" width="3.52" height="4.6" transform="translate(-53.91 10.02) rotate(-10.96)"/><rect class="cls-5" x="26.01" y="283.46" width="1.01" height="4.6" transform="translate(-53.85 10.25) rotate(-10.96)"/><rect class="cls-4" x="31.87" y="282.19" width="3.52" height="4.6" transform="translate(-53.47 11.58) rotate(-10.96)"/><rect class="cls-5" x="34.35" y="281.96" width="1.01" height="4.6" transform="translate(-53.41 11.81) rotate(-10.96)"/><rect class="cls-4" x="40.22" y="280.69" width="3.52" height="4.6" transform="translate(-53.04 13.14) rotate(-10.96)"/><rect class="cls-5" x="42.7" y="280.45" width="1.01" height="4.6" transform="translate(-52.97 13.37) rotate(-10.96)"/><rect class="cls-4" x="48.55" y="279.18" width="3.52" height="4.6" transform="translate(-52.6 14.7) rotate(-10.96)"/><rect class="cls-5" x="51.05" y="278.94" width="1.01" height="4.6" transform="translate(-52.53 14.93) rotate(-10.96)"/><rect class="cls-4" x="56.91" y="277.67" width="3.52" height="4.6" transform="translate(-52.16 16.26) rotate(-10.96)"/><rect class="cls-5" x="59.4" y="277.43" width="1.01" height="4.6" transform="translate(-52.09 16.49) rotate(-10.96)"/><rect class="cls-4" x="65.26" y="276.16" width="3.52" height="4.6" transform="translate(-51.72 17.82) rotate(-10.96)"/><rect class="cls-5" x="67.74" y="275.92" width="1.01" height="4.6" transform="translate(-51.65 18.05) rotate(-10.96)"/><polygon class="cls-4" points="76.94 276.01 76.64 274.43 75.64 274.63 73.18 275.1 74.05 279.62 76.51 279.15 76.98 279.05 76.94 276.01"/><polygon class="cls-5" points="76.94 276.01 76.64 274.43 75.64 274.63 76.51 279.15 76.98 279.05 76.94 276.01"/><rect class="cls-4" x="16.54" y="297.29" width="3.52" height="4.6" transform="translate(-56.63 8.94) rotate(-10.96)"/><rect class="cls-5" x="17.76" y="296.45" width="1.01" height="4.59" transform="translate(-56.53 8.94) rotate(-10.97)"/><rect class="cls-4" x="24.89" y="295.79" width="3.52" height="4.6" transform="translate(-56.19 10.5) rotate(-10.96)"/><rect class="cls-5" x="26.09" y="294.95" width="1.01" height="4.59" transform="translate(-56.09 10.49) rotate(-10.97)"/><rect class="cls-4" x="33.22" y="294.28" width="3.52" height="4.6" transform="translate(-55.75 12.06) rotate(-10.96)"/><rect class="cls-5" x="34.42" y="293.45" width="1.01" height="4.59" transform="translate(-55.65 12.05) rotate(-10.97)"/><rect class="cls-4" x="41.58" y="292.77" width="3.52" height="4.6" transform="translate(-55.31 13.62) rotate(-10.96)"/><rect class="cls-5" x="44.06" y="292.54" width="1.01" height="4.6" transform="translate(-55.24 13.85) rotate(-10.96)"/><rect class="cls-4" x="49.93" y="291.27" width="3.52" height="4.6" transform="translate(-54.87 15.18) rotate(-10.96)"/><rect class="cls-5" x="52.41" y="291.02" width="1.01" height="4.6" transform="translate(-54.8 15.41) rotate(-10.96)"/><rect class="cls-4" x="58.27" y="289.75" width="3.52" height="4.6" transform="translate(-54.43 16.74) rotate(-10.96)"/><rect class="cls-5" x="60.76" y="289.51" width="1.01" height="4.6" transform="translate(-54.36 16.97) rotate(-10.96)"/><rect class="cls-4" x="65.27" y="287.67" width="3.51" height="4.59" transform="translate(-53.97 18.06) rotate(-10.97)"/><rect class="cls-5" x="69.1" y="288.01" width="1.01" height="4.6" transform="translate(-53.93 18.53) rotate(-10.96)"/><path class="cls-4" d="M77.14,291.38l-1.73.33-.87-4.52,2.54-.49Z"/><rect class="cls-4" x="17.9" y="310.36" width="3.52" height="4.6" transform="translate(-59.09 9.44) rotate(-10.96)"/><rect class="cls-5" x="20.39" y="310.12" width="1.01" height="4.6" transform="translate(-59.02 9.67) rotate(-10.96)"/><rect class="cls-4" x="26.25" y="308.85" width="3.52" height="4.6" transform="translate(-58.65 11) rotate(-10.96)"/><rect class="cls-5" x="28.74" y="308.62" width="1.01" height="4.6" transform="translate(-58.58 11.23) rotate(-10.96)"/><rect class="cls-4" x="34.59" y="307.34" width="3.52" height="4.6" transform="translate(-58.21 12.56) rotate(-10.96)"/><rect class="cls-5" x="35.78" y="306.49" width="1.01" height="4.59" transform="translate(-58.11 12.55) rotate(-10.97)"/><rect class="cls-4" x="42.94" y="305.83" width="3.52" height="4.6" transform="translate(-57.77 14.12) rotate(-10.96)"/><rect class="cls-5" x="45.43" y="305.59" width="1.01" height="4.6" transform="translate(-57.7 14.35) rotate(-10.96)"/><rect class="cls-4" x="51.29" y="304.33" width="3.52" height="4.6" transform="translate(-57.33 15.68) rotate(-10.96)"/><rect class="cls-5" x="53.77" y="304.1" width="1.01" height="4.6" transform="translate(-57.26 15.91) rotate(-10.96)"/><rect class="cls-4" x="59.64" y="302.82" width="3.52" height="4.6" transform="translate(-56.89 17.24) rotate(-10.96)"/><rect class="cls-5" x="62.12" y="302.59" width="1.01" height="4.6" transform="translate(-56.82 17.47) rotate(-10.96)"/><rect class="cls-4" x="67.98" y="301.32" width="3.52" height="4.6" transform="translate(-56.45 18.8) rotate(-10.96)"/><rect class="cls-5" x="70.47" y="301.09" width="1.01" height="4.6" transform="translate(-56.39 19.03) rotate(-10.96)"/><rect class="cls-4" x="19.26" y="323.43" width="3.52" height="4.6" transform="translate(-61.54 9.94) rotate(-10.96)"/><rect class="cls-5" x="21.75" y="323.19" width="1.01" height="4.6" transform="translate(-61.48 10.17) rotate(-10.96)"/><rect class="cls-4" x="27.61" y="321.92" width="3.52" height="4.6" transform="translate(-61.11 11.5) rotate(-10.96)"/><rect class="cls-5" x="30.1" y="321.68" width="1.01" height="4.6" transform="translate(-61.04 11.73) rotate(-10.96)"/><rect class="cls-4" x="35.96" y="320.42" width="3.52" height="4.6" transform="translate(-60.67 13.06) rotate(-10.96)"/><rect class="cls-5" x="38.45" y="320.18" width="1.01" height="4.6" transform="translate(-60.6 13.29) rotate(-10.96)"/><rect class="cls-4" x="44.31" y="318.91" width="3.52" height="4.6" transform="translate(-60.23 14.62) rotate(-10.96)"/><rect class="cls-5" x="46.79" y="318.67" width="1.01" height="4.6" transform="translate(-60.16 14.85) rotate(-10.96)"/><rect class="cls-4" x="52.65" y="317.4" width="3.52" height="4.6" transform="translate(-59.79 16.18) rotate(-10.96)"/><rect class="cls-5" x="55.14" y="317.17" width="1.01" height="4.6" transform="translate(-59.72 16.41) rotate(-10.96)"/><rect class="cls-4" x="61" y="315.9" width="3.52" height="4.6" transform="translate(-59.35 17.74) rotate(-10.96)"/><rect class="cls-5" x="63.48" y="315.66" width="1.01" height="4.6" transform="translate(-59.28 17.96) rotate(-10.96)"/><rect class="cls-4" x="69.34" y="314.39" width="3.52" height="4.6" transform="translate(-58.91 19.29) rotate(-10.96)"/><rect class="cls-5" x="71.83" y="314.15" width="1.01" height="4.6" transform="translate(-58.84 19.52) rotate(-10.96)"/><rect class="cls-4" x="20.63" y="336.5" width="3.52" height="4.6" transform="translate(-64 10.44) rotate(-10.96)"/><rect class="cls-5" x="23.11" y="336.26" width="1.01" height="4.6" transform="translate(-63.94 10.67) rotate(-10.96)"/><rect class="cls-4" x="28.97" y="334.99" width="3.52" height="4.6" transform="translate(-63.57 12) rotate(-10.96)"/><rect class="cls-5" x="31.46" y="334.75" width="1.01" height="4.6" transform="translate(-63.5 12.23) rotate(-10.96)"/><rect class="cls-4" x="37.32" y="333.48" width="3.52" height="4.6" transform="translate(-63.13 13.56) rotate(-10.96)"/><rect class="cls-5" x="38.51" y="332.59" width="1.01" height="4.59" transform="translate(-63.03 13.55) rotate(-10.97)"/><rect class="cls-4" x="45.68" y="331.98" width="3.52" height="4.6" transform="translate(-62.69 15.12) rotate(-10.96)"/><rect class="cls-5" x="48.15" y="331.74" width="1.01" height="4.6" transform="translate(-62.62 15.34) rotate(-10.96)"/><rect class="cls-4" x="54.02" y="330.47" width="3.52" height="4.6" transform="translate(-62.25 16.67) rotate(-10.96)"/><rect class="cls-5" x="56.5" y="330.23" width="1.01" height="4.6" transform="translate(-62.18 16.9) rotate(-10.96)"/><rect class="cls-4" x="62.36" y="328.97" width="3.52" height="4.6" transform="translate(-61.81 18.23) rotate(-10.96)"/><rect class="cls-5" x="64.85" y="328.72" width="1.01" height="4.6" transform="translate(-61.74 18.46) rotate(-10.96)"/><rect class="cls-4" x="70.71" y="327.45" width="3.52" height="4.6" transform="translate(-61.37 19.79) rotate(-10.96)"/><rect class="cls-5" x="73.19" y="327.21" width="1.01" height="4.6" transform="translate(-61.3 20.02) rotate(-10.96)"/><rect class="cls-4" x="22" y="347.6" width="3.52" height="4.6" transform="translate(-66.09 10.9) rotate(-10.96)"/><rect class="cls-5" x="24.47" y="347.36" width="1.01" height="4.6" transform="translate(-66.02 11.13) rotate(-10.96)"/><rect class="cls-4" x="30.34" y="346.1" width="3.52" height="4.6" transform="translate(-65.65 12.46) rotate(-10.96)"/><rect class="cls-5" x="32.82" y="345.86" width="1.01" height="4.6" transform="translate(-65.59 12.69) rotate(-10.96)"/><rect class="cls-4" x="38.68" y="344.59" width="3.52" height="4.6" transform="translate(-65.21 14.02) rotate(-10.96)"/><rect class="cls-5" x="41.17" y="344.35" width="1.01" height="4.6" transform="translate(-65.15 14.25) rotate(-10.96)"/><rect class="cls-4" x="47.03" y="343.08" width="3.52" height="4.6" transform="translate(-64.77 15.58) rotate(-10.96)"/><rect class="cls-5" x="49.52" y="342.85" width="1.01" height="4.6" transform="translate(-64.71 15.81) rotate(-10.96)"/><rect class="cls-4" x="55.38" y="341.58" width="3.52" height="4.6" transform="translate(-64.34 17.14) rotate(-10.96)"/><rect class="cls-5" x="57.87" y="341.34" width="1.01" height="4.6" transform="translate(-64.27 17.37) rotate(-10.96)"/><rect class="cls-4" x="63.72" y="340.07" width="3.52" height="4.6" transform="translate(-63.9 18.69) rotate(-10.96)"/><rect class="cls-5" x="66.22" y="339.83" width="1.01" height="4.6" transform="translate(-63.83 18.93) rotate(-10.96)"/><rect class="cls-4" x="72.08" y="338.57" width="3.52" height="4.6" transform="translate(-63.46 20.26) rotate(-10.96)"/><rect class="cls-5" x="74.56" y="338.33" width="1.01" height="4.6" transform="translate(-63.39 20.48) rotate(-10.96)"/><rect class="cls-4" x="23.35" y="361.65" width="3.52" height="4.6" transform="translate(-68.74 11.41) rotate(-10.96)"/><rect class="cls-5" x="25.85" y="361.41" width="1.01" height="4.6" transform="translate(-68.67 11.64) rotate(-10.96)"/><rect class="cls-4" x="31.7" y="360.14" width="3.52" height="4.6" transform="translate(-68.3 12.97) rotate(-10.96)"/><rect class="cls-5" x="32.89" y="359.2" width="1.01" height="4.59" transform="translate(-68.19 12.96) rotate(-10.97)"/><rect class="cls-4" x="40.06" y="358.64" width="3.52" height="4.6" transform="translate(-67.86 14.53) rotate(-10.96)"/><rect class="cls-5" x="41.23" y="357.69" width="1.01" height="4.59" transform="translate(-67.75 14.52) rotate(-10.97)"/><rect class="cls-4" x="48.4" y="357.12" width="3.52" height="4.6" transform="translate(-67.42 16.09) rotate(-10.96)"/><rect class="cls-5" x="50.88" y="356.88" width="1.01" height="4.6" transform="translate(-67.35 16.32) rotate(-10.96)"/><rect class="cls-4" x="56.74" y="355.62" width="3.52" height="4.6" transform="translate(-66.98 17.65) rotate(-10.96)"/><rect class="cls-5" x="59.22" y="355.38" width="1.01" height="4.6" transform="translate(-66.91 17.88) rotate(-10.96)"/><rect class="cls-4" x="65.09" y="354.11" width="3.52" height="4.6" transform="translate(-66.54 19.21) rotate(-10.96)"/><rect class="cls-5" x="67.57" y="353.87" width="1.01" height="4.6" transform="translate(-66.48 19.44) rotate(-10.96)"/><rect class="cls-4" x="73.43" y="352.6" width="3.52" height="4.6" transform="translate(-66.1 20.77) rotate(-10.96)"/><rect class="cls-5" x="75.93" y="352.37" width="1.01" height="4.6" transform="translate(-66.04 21) rotate(-10.96)"/><rect class="cls-4" x="24.72" y="372.76" width="3.52" height="4.6" transform="translate(-70.82 11.88) rotate(-10.96)"/><rect class="cls-5" x="27.2" y="372.52" width="1.01" height="4.6" transform="translate(-70.76 12.1) rotate(-10.96)"/><rect class="cls-4" x="33.06" y="371.25" width="3.52" height="4.6" transform="translate(-70.39 13.43) rotate(-10.96)"/><rect class="cls-5" x="35.55" y="371.01" width="1.01" height="4.6" transform="translate(-70.32 13.66) rotate(-10.96)"/><rect class="cls-4" x="41.41" y="369.74" width="3.52" height="4.6" transform="translate(-69.95 14.99) rotate(-10.96)"/><rect class="cls-5" x="43.9" y="369.51" width="1.01" height="4.6" transform="translate(-69.88 15.22) rotate(-10.96)"/><rect class="cls-4" x="49.75" y="368.24" width="3.52" height="4.6" transform="translate(-69.51 16.55) rotate(-10.96)"/><rect class="cls-5" x="52.25" y="368" width="1.01" height="4.6" transform="translate(-69.44 16.78) rotate(-10.96)"/><rect class="cls-4" x="58.11" y="366.72" width="3.52" height="4.6" transform="translate(-69.07 18.11) rotate(-10.96)"/><rect class="cls-5" x="60.6" y="366.48" width="1.01" height="4.6" transform="translate(-69 18.34) rotate(-10.96)"/><rect class="cls-4" x="66.46" y="365.22" width="3.52" height="4.6" transform="translate(-68.63 19.67) rotate(-10.96)"/><rect class="cls-5" x="68.93" y="364.98" width="1.01" height="4.6" transform="translate(-68.56 19.9) rotate(-10.96)"/><path class="cls-4" d="M77.2,363.61v4.69l-1.9.37-.87-4.52,2.46-.48Z"/><path class="cls-5" d="M77.2,363.61v1.84l-.34-1.77Z"/><rect class="cls-4" x="28.04" y="385.45" width="3.52" height="4.6" transform="translate(-73.18 12.74) rotate(-10.96)"/><rect class="cls-5" x="30.53" y="385.21" width="1.01" height="4.6" transform="translate(-73.11 12.97) rotate(-10.96)"/><rect class="cls-4" x="35.08" y="383.19" width="3.51" height="4.59" transform="translate(-72.7 14.06) rotate(-10.97)"/><rect class="cls-5" x="38.88" y="383.7" width="1.01" height="4.6" transform="translate(-72.67 14.53) rotate(-10.96)"/><rect class="cls-4" x="44.73" y="382.43" width="3.52" height="4.6" transform="translate(-72.3 15.86) rotate(-10.96)"/><rect class="cls-5" x="45.9" y="381.44" width="1.01" height="4.59" transform="translate(-72.19 15.85) rotate(-10.97)"/><rect class="cls-4" x="53.09" y="380.93" width="3.52" height="4.6" transform="translate(-71.86 17.42) rotate(-10.96)"/><rect class="cls-5" x="55.57" y="380.69" width="1.01" height="4.6" transform="translate(-71.79 17.65) rotate(-10.96)"/><rect class="cls-4" x="61.43" y="379.42" width="3.52" height="4.6" transform="translate(-71.42 18.98) rotate(-10.96)"/><rect class="cls-5" x="63.92" y="379.18" width="1.01" height="4.6" transform="translate(-71.35 19.21) rotate(-10.96)"/><rect class="cls-4" x="69.78" y="377.91" width="3.52" height="4.6" transform="translate(-70.98 20.54) rotate(-10.96)"/><rect class="cls-5" x="72.26" y="377.68" width="1.01" height="4.6" transform="translate(-70.92 20.77) rotate(-10.96)"/></svg>