<?xml version="1.0" encoding="utf-8"?>
<!-- Generator: Adobe Illustrator 20.1.0, SVG Export Plug-In . SVG Version: 6.00 Build 0)  -->
<!DOCTYPE svg PUBLIC "-//W3C//DTD SVG 1.1//EN" "http://www.w3.org/Graphics/SVG/1.1/DTD/svg11.dtd">
<svg version="1.1" id="Layer_1" xmlns="http://www.w3.org/2000/svg" xmlns:xlink="http://www.w3.org/1999/xlink" x="0px" y="0px"
	 viewBox="0 0 333.9 378.9" style="enable-background:new 0 0 333.9 378.9;" xml:space="preserve">
<style type="text/css">
	.st0{fill:#E54D4D;}
	.st1{fill:#F4B3B3;}
	.st2{fill:#6EA6FC;}
	.st3{fill:#DD1514;}
	.st4{fill:#E86463;}
	.st5{fill:#213B5C;}
	.st6{fill:#4D627D;}
	.st7{fill:#DA0100;}
	.st8{fill:#405673;}
	.st9{fill:#5697FB;}
	.st10{fill:#F19C9C;}
</style>
<title>london</title>
<rect x="75.4" y="10.4" class="st0" width="2.3" height="169.6"/>
<path class="st1" d="M198.8,98.3c-2.3-2.3-5-4.2-8-5.6c-3.7-2.9-9.7-9.6-9.7-21.6h-5c0,14-8.1,20.7-11.3,22.8
	c-0.4,0.2-0.7,0.4-1,0.6l-0.2,0.1l0,0c-8.1,5.2-13,14.1-13,23.7v12.8l8-2.6H207v-10.2C207,110.8,204.1,103.6,198.8,98.3z"/>
<path class="st2" d="M77.5,10.4c0,0,35.9,15,38.3,18.8c-3.4,5.3-5.1,7.7-9.9,11.2c-1.4-3.5-1-6.6-4-6.9s-7.2,0.9-10.8,0.2
	S85.7,32,77.8,33L77.5,10.4z"/>
<polygon class="st3" points="19.8,102 4,105.5 4,378.9 19.8,378.9 "/>
<rect x="58.8" y="169.6" class="st3" width="231.1" height="209.3"/>
<rect x="19.8" y="101.9" class="st3" width="38.9" height="277"/>
<rect x="55.4" y="101.9" class="st4" width="3.4" height="277"/>
<rect x="19.8" y="102" class="st4" width="3.4" height="277"/>
<polygon class="st4" points="19.8,378.9 13.8,376.8 13.8,103.3 19.8,102 "/>
<rect x="289.8" y="97.7" class="st3" width="38.9" height="281.2"/>
<rect x="58.8" y="153.1" class="st3" width="9.6" height="16.5"/>
<rect x="73.3" y="153.1" class="st3" width="21.2" height="16.5"/>
<rect x="100" y="153.1" class="st3" width="21.2" height="16.5"/>
<rect x="148.4" y="125.5" class="st5" width="61.8" height="44.1"/>
<rect x="124.2" y="153.1" class="st3" width="21.2" height="16.5"/>
<rect x="148.4" y="153.1" class="st3" width="21.2" height="16.5"/>
<rect x="172.7" y="153.1" class="st3" width="21.2" height="16.5"/>
<rect x="196.9" y="153.1" class="st3" width="21.2" height="16.5"/>
<rect x="221.2" y="153.1" class="st3" width="21.2" height="16.5"/>
<rect x="245.4" y="153.1" class="st3" width="21.2" height="16.5"/>
<rect x="103.4" y="198.1" class="st4" width="12.2" height="67.4"/>
<rect x="105.2" y="182" class="st4" width="8.7" height="16.1"/>
<rect x="163.4" y="182" class="st4" width="8.7" height="16.1"/>
<rect x="221.6" y="182" class="st4" width="8.7" height="16.1"/>
<rect x="277.3" y="182" class="st4" width="8.7" height="16.1"/>
<rect x="58.8" y="182" class="st6" width="46.5" height="4"/>
<rect x="115.7" y="200.1" class="st6" width="46.5" height="4"/>
<rect x="173.7" y="200.1" class="st6" width="46.5" height="4"/>
<rect x="230.2" y="202.1" class="st6" width="46.5" height="4"/>
<rect x="279.4" y="204.1" class="st6" width="46.5" height="4"/>
<rect x="58.8" y="236.5" class="st6" width="46.5" height="4"/>
<rect x="115.7" y="236.5" class="st6" width="46.5" height="4"/>
<rect x="161.6" y="198.1" class="st4" width="12.2" height="67.4"/>
<rect x="275.5" y="198.1" class="st4" width="12.2" height="67.4"/>
<rect x="325.8" y="182" class="st4" width="2.9" height="16.1"/>
<rect x="324" y="198.1" class="st4" width="4.7" height="67.4"/>
<rect x="219.8" y="198.1" class="st4" width="12.2" height="67.4"/>
<polygon class="st3" points="289.8,97.7 269,101.9 269,169.6 289.8,169.6 "/>
<polygon class="st4" points="271.7,101.4 269,101.9 269,169.6 271.6,169.6 "/>
<rect x="321.6" y="97.7" class="st4" width="7.1" height="71.9"/>
<polygon class="st4" points="289.8,159.7 282.7,159.7 282.7,99.2 286.3,98.4 289.8,97.7 "/>
<rect x="296" y="100.1" class="st4" width="12.4" height="13.6"/>
<path class="st5" d="M304.9,106.5v6.5h-5.2v-6.5c0.1-1.4,1.3-2.5,2.8-2.5C303.7,104.1,304.8,105.2,304.9,106.5z"/>
<rect x="296.8" y="163.1" class="st4" width="12.4" height="16"/>
<path class="st5" d="M306.6,168.4v8.9h-7.1v-8.9c0-2,1.6-3.6,3.6-3.6S306.6,166.4,306.6,168.4z"/>
<rect x="34.9" y="238.5" class="st7" width="9.8" height="16.9"/>
<path class="st5" d="M42.6,244.1v9.4H37v-9.4c0-2.1,1.3-3.8,2.8-3.8S42.6,242,42.6,244.1z"/>
<path class="st4" d="M314.6,248.2v-16.6c0-4.7-4.6-8.6-8-8.6s-7.9,3.9-7.9,8.6v16.6H314.6z"/>
<path class="st5" d="M309.3,231.7v13h-7.1v-13c0-2.8,1.6-5.2,3.6-5.2S309.3,228.9,309.3,231.7z"/>
<path class="st4" d="M258.9,245.8v-16.6c0-4.7-4.6-8.6-8-8.6s-7.9,3.9-7.9,8.6v16.6H258.9z"/>
<path class="st5" d="M253.5,229.3v13h-7.1v-13c0-2.8,1.6-5.2,3.6-5.2S253.5,226.5,253.5,229.3z"/>
<path class="st4" d="M203.1,245.8v-16.6c0-4.7-4.6-8.6-8-8.6s-7.9,3.9-7.9,8.6v16.6H203.1z"/>
<path class="st5" d="M197.8,229.3v13h-7.1v-13c0-2.8,1.6-5.2,3.6-5.2S197.8,226.5,197.8,229.3z"/>
<path class="st4" d="M203.1,289.4v-16.6c0-4.7-4.6-8.6-8-8.6s-7.9,3.9-7.9,8.6v16.6H203.1z"/>
<path class="st5" d="M198.9,274.8v13h-8.2v-13c0-2.8,1.9-5.2,4.1-5.2S198.9,272,198.9,274.8z"/>
<path class="st4" d="M258.9,291.8v-16.6c0-4.7-4.6-8.6-8-8.6s-7.9,3.9-7.9,8.6v16.6L258.9,291.8z"/>
<path class="st5" d="M254.6,277.2v13h-8.2v-13c0-2.8,1.9-5.2,4.1-5.2S254.6,274.4,254.6,277.2z"/>
<path class="st4" d="M118.6,309.4V276c0-10,8.1-18.2,18.2-18.2c10,0,18.2,8.1,18.2,18.2v33.4h2.4V276c0-11.4-9.2-20.6-20.6-20.6
	s-20.6,9.2-20.6,20.6v33.4L118.6,309.4z"/>
<path class="st4" d="M235,309.4V276c0-10,8.2-18.2,18.2-18.2c10,0,18.2,8.1,18.2,18.2v33.4h2.4V276c0-11.4-9.2-20.6-20.6-20.6
	c-11.4,0-20.6,9.2-20.6,20.6v33.4L235,309.4z"/>
<path class="st4" d="M291.1,311.8v-33.4c0-10,7-18.2,15.7-18.2s15.7,8.1,15.7,18.2v33.4h2.1v-33.4c0-11.3-8-20.6-17.8-20.6
	S289,267,289,278.4v33.4L291.1,311.8z"/>
<path class="st4" d="M176.8,309.4V276c0-10,8.2-18.2,18.2-18.2c10,0,18.2,8.1,18.2,18.2v33.4h2.4V276c0-11.4-9.2-20.6-20.6-20.6
	c-11.4,0-20.6,9.2-20.6,20.6v33.4L176.8,309.4z"/>
<path class="st4" d="M314.6,291.8v-16.6c0-4.7-4.6-8.6-8-8.6s-7.9,3.9-7.9,8.6v16.6L314.6,291.8z"/>
<path class="st5" d="M310.4,277.2v13h-8.2v-13c0-2.8,1.9-5.2,4.1-5.2S310.4,274.4,310.4,277.2z"/>
<path class="st4" d="M314.6,354.8v-16.6c0-4.7-4.6-8.6-8-8.6s-7.9,3.9-7.9,8.6v16.6L314.6,354.8z"/>
<path class="st5" d="M310.4,340.2v13h-8.2v-13c0-2.8,1.9-5.2,4.1-5.2S310.4,337.4,310.4,340.2z"/>
<path class="st4" d="M261.3,352.4v-16.6c0-4.7-4.6-8.6-8-8.6s-7.9,3.9-7.9,8.6v16.6L261.3,352.4z"/>
<path class="st5" d="M257,337.8v13h-8.2v-13c0-2.8,1.9-5.2,4.1-5.2S257,335,257,337.8z"/>
<path class="st4" d="M203.1,352.4v-16.6c0-4.7-4.6-8.6-8-8.6s-7.9,3.9-7.9,8.6v16.6L203.1,352.4z"/>
<path class="st5" d="M198.9,337.8v13h-8.2v-13c0-2.8,1.9-5.2,4.1-5.2S198.9,335,198.9,337.8z"/>
<polygon class="st4" points="273.7,102.9 278.9,101.9 278.9,114.1 273.7,115 "/>
<path class="st4" d="M146.7,353.1v-24.4c0-5.2-4.2-9.4-9.4-9.4s-9.4,4.2-9.4,9.4v24.4H146.7z"/>
<path class="st5" d="M142.9,349.5v-21.3c0-3.4-2.7-6.1-6.1-6.1c-3.4,0-6.1,2.7-6.1,6.1v21.3H142.9z"/>
<path class="st4" d="M144.5,289v-19.7c0-4.2-3.4-7.6-7.6-7.6s-7.6,3.4-7.6,7.6V289L144.5,289z"/>
<path class="st5" d="M141.4,286.1v-15.7c-0.4-2.7-3-4.6-5.7-4.1c-2.1,0.3-3.8,2-4.1,4.1v15.7H141.4z"/>
<path class="st4" d="M86.3,289v-19.7c0-4.2-3.4-7.6-7.6-7.6s-7.6,3.4-7.6,7.6V289L86.3,289z"/>
<path class="st5" d="M83.2,286.1v-15.7c-0.4-2.7-3-4.6-5.7-4.1c-2.1,0.3-3.8,2-4.1,4.1v15.7H83.2z"/>
<path class="st4" d="M93.6,374.9v-45.7c0-7.9-6.4-14.2-14.2-14.2s-14.2,6.4-14.2,14.2v45.8L93.6,374.9z"/>
<path class="st5" d="M89.7,371.6v-42c0-5.7-4.6-10.3-10.3-10.3S69,323.9,69,329.6v42H89.7z"/>
<rect x="63.3" y="331.1" class="st8" width="6.5" height="4"/>
<path class="st4" d="M61.2,307v-33.4c0-10,8.1-18.2,18.2-18.2c10,0,18.2,8.1,18.2,18.2V307h2.4v-33.4c0-11.4-9.2-20.6-20.6-20.6
	c-11.4,0-20.6,9.2-20.6,20.6V307H61.2z"/>
<rect x="115.5" y="306.8" class="st6" width="46.5" height="4"/>
<rect x="58.8" y="306.8" class="st6" width="47.5" height="4"/>
<rect x="230.2" y="306.8" class="st6" width="46.5" height="4"/>
<rect x="279.4" y="306.8" class="st6" width="46.5" height="4"/>
<rect x="173.7" y="306.8" class="st6" width="46.5" height="4"/>
<rect x="77.3" y="314" class="st8" width="4" height="6.5"/>
<rect x="88.4" y="331.1" class="st8" width="6.5" height="4"/>
<rect x="100" y="265.5" class="st4" width="19.2" height="113.4"/>
<rect x="158.1" y="265.5" class="st4" width="19.2" height="113.4"/>
<rect x="216.3" y="265.5" class="st4" width="19.2" height="113.4"/>
<rect x="272.1" y="265.5" class="st4" width="19.2" height="113.4"/>
<rect x="320.5" y="265.5" class="st4" width="8.2" height="113.4"/>
<path class="st1" d="M315.8,91.2v6.5h-26l-8,1.6H277l-6.4,2.1V91.2c0-7.7,3.9-14.8,10.4-18.9l0.1-0.1l0.8-0.5c2.5-1.7,9-7,9-18.2h4
	c0,9.7,4.9,15,7.8,17.3C310.6,74.4,315.7,82.4,315.8,91.2L315.8,91.2z"/>
<path class="st9" d="M298.1,46.6c0-2.3-2.3-4.1-5.2-4.1s-5.2,1.9-5.2,4.1c0.1,1.8,1.4,3.3,3.1,3.8v3.1h4.1v-3.1
	C296.7,49.9,298,48.4,298.1,46.6z"/>
<rect x="292.1" y="21.8" class="st9" width="1.6" height="18.4"/>
<rect x="292.1" y="10.6" class="st10" width="1.6" height="11.2"/>
<rect x="286" y="28.1" class="st9" width="13.8" height="0.9"/>
<path class="st0" d="M296.8,43.8L296.8,43.8l-0.1-0.1l-0.2-0.2c-3.1-2.4-2.8-3.4-2.8-3.4h-1.6c0,0,0.4,0.9-2.8,3.4l-0.2,0.2
	l-0.1,0.1l0,0c-0.8,0.7-1.3,1.7-1.3,2.7c0,0.1,0,0.2,0.1,0.3H298c0-0.1,0-0.2,0.1-0.3C298.1,45.5,297.6,44.5,296.8,43.8z"/>
<rect x="293.7" y="12.7" class="st0" width="8.3" height="9.1"/>
<rect x="283.2" y="16.5" class="st0" width="8.9" height="1.1"/>
<rect x="284.4" y="15.1" class="st0" width="1.3" height="3.9"/>
<rect x="283.2" y="26.7" class="st0" width="2.8" height="3.7"/>
<rect x="299.8" y="26.7" class="st0" width="2.8" height="3.7"/>
<path class="st0" d="M290.9,5.7h4c0.6,0,1,0.5,1,1v2.9c0,0.6-0.5,1-1,1h-4c-0.6,0-1-0.5-1-1V6.7C289.9,6.1,290.3,5.7,290.9,5.7z"/>
<path class="st1" d="M49.2,74.8c-2-2-4.3-3.6-6.9-4.8c-3.1-2.5-8.4-8.2-8.4-18.6h-4.3c0,12-7,17.8-9.7,19.5l-0.9,0.6l-0.1,0l0,0
	C12,75.9,7.8,83.6,7.8,91.9v11l6.9-2.2h41.6v-8.8C56.3,85.4,53.8,79.3,49.2,74.8z"/>
<path class="st9" d="M37.3,43.9c0-2.5-2.5-4.5-5.6-4.5s-5.6,2-5.6,4.4c0.1,1.9,1.5,3.6,3.4,4.1v3.3h4.4V48
	C35.8,47.5,37.2,45.9,37.3,43.9z"/>
<rect x="30.9" y="17.3" class="st9" width="1.7" height="19.8"/>
<rect x="30.9" y="5.3" class="st10" width="1.7" height="12"/>
<rect x="24.3" y="24.1" class="st9" width="14.9" height="0.9"/>
<path class="st0" d="M35.9,41L35.9,41l-0.1-0.1l-0.2-0.2c-3.4-2.6-3-3.6-3-3.6h-1.7c0,0,0.4,1-3,3.6l-0.2,0.2L27.6,41l0,0
	c-0.9,0.7-1.4,1.8-1.4,2.9c0,0.1,0,0.2,0.1,0.3h11c0-0.1,0-0.2,0.1-0.3C37.3,42.8,36.8,41.7,35.9,41z"/>
<rect x="32.6" y="7.6" class="st0" width="8.9" height="9.7"/>
<rect x="21.3" y="11.6" class="st0" width="9.6" height="1.2"/>
<rect x="22.7" y="10.1" class="st0" width="1.4" height="4.2"/>
<rect x="21.3" y="22.5" class="st0" width="3" height="4"/>
<rect x="39.2" y="22.5" class="st0" width="3" height="4"/>
<path class="st0" d="M29.5,0H34c0.6,0,1,0.5,1,1v3.2c0,0.6-0.5,1-1,1h-4.5c-0.6,0-1-0.5-1-1V1C28.5,0.5,29,0,29.5,0z"/>
<polygon class="st1" points="0,99.1 9.2,93.2 56.3,91.9 64,95.9 31.7,98.4 1.4,101.4 "/>
<polygon class="st5" points="4,105.5 0,99.1 13.8,94.9 64,95.9 58.8,101.9 19.8,102 "/>
<polygon class="st1" points="265.1,95.2 273,88.4 315.1,85.7 333.9,91.7 295.5,93.7 "/>
<polygon class="st5" points="333.9,91.7 328.7,97.7 289.8,97.7 281.9,99.3 269,101.9 265.1,95.2 270.6,94 280.7,91.7 "/>
<path class="st9" d="M184.9,62.5c0-2.9-2.9-5.2-6.5-5.2s-6.5,2.3-6.5,5.2c0,2.1,1.6,4,3.9,4.8v3.9h5.1v-3.9
	C183.3,66.4,184.9,64.6,184.9,62.5z"/>
<rect x="177.4" y="33.8" class="st9" width="2" height="23"/>
<rect x="177.4" y="24.7" class="st10" width="2" height="14"/>
<rect x="169.8" y="46.6" class="st9" width="17.3" height="1.1"/>
<path class="st0" d="M183.3,59L183.3,59l-0.1-0.1l-0.3-0.2c-3.9-3.1-3.4-4.2-3.4-4.2h-2c0,0,0.5,1.2-3.5,4.2l-0.3,0.2l-0.1,0.1l0,0
	c-1,0.9-1.6,2.1-1.6,3.4c0,0.1,0,0.3,0.1,0.4h12.9c0-0.1,0.1-0.3,0.1-0.4C184.9,61.1,184.3,59.9,183.3,59z"/>
<rect x="179.4" y="27.3" class="st0" width="10.4" height="11.3"/>
<rect x="166.2" y="32.1" class="st0" width="11.2" height="1.4"/>
<rect x="167.8" y="30.3" class="st0" width="1.6" height="4.9"/>
<rect x="166.2" y="44.8" class="st0" width="3.5" height="4.6"/>
<rect x="187.1" y="44.8" class="st0" width="3.5" height="4.6"/>
<path class="st0" d="M175.9,20h5c0.7,0,1.3,0.6,1.3,1.3v3.6c0,0.7-0.6,1.3-1.3,1.3h-5c-0.7,0-1.3-0.6-1.3-1.3v-3.6
	C174.6,20.6,175.2,20,175.9,20z"/>
<path class="st0" d="M74.8,7.3h3.6c0.4,0,0.6,0.3,0.6,0.7v1.9c0,0.4-0.3,0.7-0.6,0.7h-3.6c-0.4,0-0.6-0.3-0.6-0.7V7.9
	C74.1,7.6,74.4,7.3,74.8,7.3z"/>
<rect x="76.1" y="3.7" class="st0" width="1" height="4.6"/>
<path class="st5" d="M147.6,116.8c0,0,7.6-3.1,31.8-3.1s29.4,1.7,30.9,2.3s-2.4,3.1-2.4,3.1v2.8c0,0-7.8-3.2-28.5-3.2
	c-20.8,0-29.5,2.7-29.5,2.7v-2.4C149.8,119.1,146.7,117.7,147.6,116.8z"/>
</svg>
