<?xml version="1.0" encoding="utf-8"?>
<!-- Generator: Adobe Illustrator 20.1.0, SVG Export Plug-In . SVG Version: 6.00 Build 0)  -->
<!DOCTYPE svg PUBLIC "-//W3C//DTD SVG 1.1//EN" "http://www.w3.org/Graphics/SVG/1.1/DTD/svg11.dtd">
<svg version="1.1" id="Layer_1" xmlns="http://www.w3.org/2000/svg" xmlns:xlink="http://www.w3.org/1999/xlink" x="0px" y="0px"
	 viewBox="0 0 460 242" style="enable-background:new 0 0 460 242;" xml:space="preserve">
<style type="text/css">
	.st0{fill:#DA0100;}
	.st1{fill:#213B5C;}
	.st2{fill:none;stroke:#DA0100;stroke-miterlimit:10;}
	.st3{fill:none;stroke:#DA0100;stroke-width:0.5;stroke-miterlimit:10;}
	.st4{fill:#5697FB;}
	.st5{fill:#405673;}
</style>
<title>london</title>
<path class="st0" d="M143.8,200.8V242c0-15.1,40.2-27.4,86.2-27.4s86.2,12.3,86.2,27.4v-41.2H143.8z"/>
<rect x="127.9" y="81.6" class="st0" width="204.2" height="19.4"/>
<polygon class="st1" points="101.5,0 117.6,72.4 85.4,72.4 "/>
<rect x="75" y="48.7" class="st0" width="14.2" height="20.1"/>
<rect x="80.2" y="62.1" class="st0" width="42.5" height="6.7"/>
<rect x="113.7" y="48.7" class="st0" width="14.2" height="20.1"/>
<polygon class="st1" points="82.1,16.6 89.2,48.7 75,48.7 "/>
<polygon class="st1" points="120.8,16.6 127.9,48.7 113.7,48.7 "/>
<path class="st0" d="M94.3,63.1v-8.6c0.9-2.2,2.2-5.4,3.5-9.2c2.5-7.4,3.1-11.3,3.6-11.3s1,5.7,0,29.1H94.3z"/>
<path class="st0" d="M108.7,63.1v-8.6c-0.9-2.2-2.2-5.4-3.5-9.2c-2.5-7.4-3.1-11.3-3.6-11.3s-1.1,5.7-0.3,29.1H108.7z"/>
<polygon class="st1" points="358.6,0 374.6,72.4 342.5,72.4 "/>
<rect x="332.1" y="48.7" class="st0" width="14.2" height="20.1"/>
<rect x="337.3" y="62.1" class="st0" width="42.5" height="6.7"/>
<rect x="370.8" y="48.7" class="st0" width="14.2" height="20.1"/>
<polygon class="st1" points="339.2,16.6 346.4,48.7 332.1,48.7 "/>
<polygon class="st1" points="377.9,16.6 385,48.7 370.8,48.7 "/>
<path class="st0" d="M351.4,63.1v-8.6c1-2.2,2.2-5.4,3.5-9.2c2.5-7.4,3.1-11.3,3.6-11.3s1,5.7,0,29.1H351.4z"/>
<path class="st0" d="M365.8,63.1v-8.6c-1-2.2-2.2-5.4-3.5-9.2c-2.5-7.4-3.1-11.3-3.6-11.3s-1.1,5.7-0.3,29.1H365.8z"/>
<path class="st2" d="M-1.3,160.2C29,144,55,121,78.4,94.7"/>
<path class="st2" d="M-1.5,220.8c22.5,0.2,43.5,0.2,65.8,0"/>
<line class="st3" x1="3.5" y1="158" x2="3.3" y2="221"/>
<line class="st3" x1="24.8" y1="144" x2="24.8" y2="221"/>
<line class="st3" x1="46.2" y1="127.1" x2="46.2" y2="221"/>
<line class="st3" x1="67.6" y1="106.8" x2="67.6" y2="219.2"/>
<rect x="75" y="68.8" class="st4" width="52.9" height="132"/>
<path class="st2" d="M462.5,159.8c-15.3-8.3-29.7-18-43.2-29c-9.9-8-19.3-16.7-28-25.9c-3.1-3.3-6.2-6.7-9.2-10.2"/>
<path class="st2" d="M462.4,221.6c-22.4,0.4-44.4,0.4-66.4,0"/>
<line class="st3" x1="457" y1="157" x2="457" y2="222"/>
<line class="st3" x1="435.5" y1="143" x2="435.5" y2="222"/>
<line class="st3" x1="414" y1="126" x2="414" y2="222"/>
<line class="st3" x1="392.5" y1="106" x2="392.5" y2="218"/>
<rect x="59.1" y="200.8" class="st1" width="84.7" height="41.2"/>
<rect x="332.1" y="68.8" class="st4" width="52.9" height="132"/>
<rect x="316.2" y="200.8" class="st1" width="84.7" height="41.2"/>
<rect x="75" y="94.7" class="st5" width="52.9" height="6.3"/>
<rect x="75" y="122" class="st5" width="52.9" height="1.9"/>
<rect x="75" y="128.8" class="st5" width="52.9" height="1.9"/>
<rect x="75" y="153.2" class="st5" width="52.9" height="1.9"/>
<rect x="75" y="159.9" class="st5" width="52.9" height="1.9"/>
<rect x="75" y="189.1" class="st5" width="52.9" height="11.7"/>
<rect x="332.1" y="94.7" class="st5" width="52.9" height="6.3"/>
<rect x="332.1" y="122" class="st5" width="52.9" height="1.9"/>
<rect x="332.1" y="128.8" class="st5" width="52.9" height="1.9"/>
<rect x="332.1" y="153.2" class="st5" width="52.9" height="1.9"/>
<rect x="332.1" y="159.9" class="st5" width="52.9" height="1.9"/>
<rect x="332.1" y="189.1" class="st5" width="52.9" height="11.7"/>
</svg>
