<?xml version="1.0" encoding="utf-8"?>
<!-- Generator: Adobe Illustrator 20.1.0, SVG Export Plug-In . SVG Version: 6.00 Build 0)  -->
<!DOCTYPE svg PUBLIC "-//W3C//DTD SVG 1.1//EN" "http://www.w3.org/Graphics/SVG/1.1/DTD/svg11.dtd">
<svg version="1.1" id="Layer_1" xmlns="http://www.w3.org/2000/svg" xmlns:xlink="http://www.w3.org/1999/xlink" x="0px" y="0px"
	 viewBox="0 0 336.6 354.2" style="enable-background:new 0 0 336.6 354.2;" xml:space="preserve">
<style type="text/css">
	.st0{fill:#5697FB;}
	.st1{fill:none;stroke:#DA0100;stroke-width:0.4;stroke-linecap:square;stroke-linejoin:bevel;}
	.st2{fill:#C4E1FD;}
	.st3{fill:#FFFFFF;}
	.st4{fill:#EA6C6B;}
	.st5{fill:none;stroke:#C4E1FD;stroke-width:0.6;stroke-miterlimit:10;}
	.st6{fill:none;stroke:#EA6C6B;stroke-width:0.5;stroke-miterlimit:10;}
	.st7{fill:none;stroke:#EA6C6B;stroke-miterlimit:10;}
</style>
<title>london</title>
<path class="st0" d="M141.8,329.2c-1.1-0.2-1.9-1.3-1.8-2.4c3.5-26,7.4-52.6,11.7-79.7s8.9-53.5,13.7-79.2c0.1-0.5,0.4-1,0.9-1.4
	c0.5-0.3,1-0.5,1.6-0.4l0,0c1.1,0.2,1.9,1.3,1.8,2.4c-2.3,25.3-5.6,52.2-10.1,80.4c-4.5,27.8-9.7,54-15.3,78.4
	C143.9,328.5,142.9,329.2,141.8,329.2z"/>
<path class="st0" d="M197.6,329.2c1.1-0.2,1.9-1.3,1.8-2.4c-3.5-26-7.4-52.6-11.7-79.7s-8.9-53.5-13.7-79.2c-0.1-0.5-0.4-1-0.9-1.4
	c-0.5-0.3-1-0.5-1.6-0.4l0,0c-1.1,0.2-1.9,1.3-1.8,2.4c2.3,25.3,5.6,52.2,10.1,80.4c4.5,27.8,9.7,54,15.3,78.4
	C195.5,328.5,196.5,329.2,197.6,329.2z"/>
<polygon class="st1" points="107.4,48.5 105.4,25.7 118.7,43.3 118.7,20.7 131.6,39.3 133.4,16.9 143.8,36.5 147.7,14.4 156.1,34.9 
	161.9,13.2 168.4,34.3 176.3,13.2 181.4,34.9 190.1,14.5 193.6,36.6 204.3,17.1 205.7,39.5 218.7,21.2 217.7,43.5 232.1,26.3 
	228.9,48.5 244.7,32.6 239.9,54.6 256.8,40 250.2,61.6 268.4,48.6 259.8,69.7 278.6,57.8 268.5,78.4 288.6,68.6 276.1,87.6 
	297.3,80 283.2,98 304.9,92.1 289.1,108.9 311.2,105 293.7,119.5 316.5,118.7 297.6,131.5 320,131.5 300.2,143.8 322.6,146.1 
	301.9,156.2 323.7,161.1 301.9,168.6 323.3,175.6 300.8,181.1 321.4,190.3 298.5,193.6 318.1,204.7 294.7,206.5 313.2,219.2 
	290.1,218 306.5,233.7 284.1,229.3 298.6,247.1 276.8,240.3 290,258.7 268.1,250.9 280.2,269.6 258.8,260.2 268.1,280.6 
	248.4,268.6 253.5,291.1 237.3,275.9 238.9,299.4 225.1,282.3 226.9,304.7 212,287.5 211.4,310 198.7,291.2 195.8,313.5 
	185.4,293.6 180.2,315.4 171.2,294.6 164,315.8 157.3,294.2 147.1,314.5 143.6,292.4 131.6,311.6 129.9,289.1 116.3,307.2 
	116.9,284.6 100.3,300.6 104.3,278.7 86.4,293.1 92.4,271.5 73.5,284.4 81.6,263.4 60.1,273 71.8,254.3 49.6,262 62.9,244.2 
	40,249.7 55.4,233.8 31.8,236.8 48.5,221.9 25.1,223.1 43.2,209.8 19.6,208 39.2,197.5 15.8,193.1 36.5,184.6 13.7,178.8 
	35.1,171.6 13,164.5 35,159 13.8,148.9 36.1,146.5 16.2,134.1 38.5,134 20.2,118.9 42.3,121.5 25.4,105.2 47.1,109.9 32.2,91.6 
	53.2,98.6 39.8,79.5 60,88.4 48.5,68.1 68.2,78.4 58.9,57.1 77.1,69.4 69.7,47.5 86.6,61.6 81.4,39 97.3,54.3 92.7,32.2 "/>
<rect x="51.1" y="327.6" class="st2" width="236.2" height="26.6"/>
<path class="st2" d="M167.7,148.5h4.2c2.3,0,4.1,1.8,4.1,4.1v14.9c0,2.3-1.8,4.1-4.1,4.1h-4.2c-2.3,0-4.1-1.8-4.1-4.1v-14.9
	C163.5,150.3,165.4,148.5,167.7,148.5z"/>
<rect x="325.6" y="163.6" transform="matrix(0.824 -0.5666 0.5666 0.824 -37.0391 214.0906)" class="st3" width="1" height="6.1"/>
<rect x="322.6" y="173.7" transform="matrix(0.9533 -0.3019 0.3019 0.9533 -37.4 106.4268)" class="st3" width="6.1" height="1"/>
<circle class="st0" cx="331.1" cy="171.7" r="5.5"/>
<path class="st4" d="M336.4,170.2c0-0.1,0-0.1,0-0.2H326c0,0.1,0,0.1,0,0.2H336.4z"/>
<path class="st4" d="M326,173.4c0.9,2.9,4,4.4,6.9,3.5c1.7-0.5,3-1.9,3.5-3.5H326z"/>
<path class="st4" d="M327.6,167.5l-0.2,0.2c0,2.2,0,4.4,0,6.7h0.2C327.6,172.1,327.6,169.8,327.6,167.5z"/>
<path class="st4" d="M331.2,166.2H331c0,0.4,0,3.4,0,3.8s0,3.3,0,3.7h0.2C331.2,171.2,331.2,168.7,331.2,166.2z"/>
<path class="st4" d="M334.8,167.6l0.2,0.2c0,2.2,0,4.4,0,6.7h-0.2C334.8,172.1,334.8,169.9,334.8,167.6z"/>
<rect x="322.6" y="134.9" transform="matrix(0.6494 -0.7604 0.7604 0.6494 8.3432 294.0439)" class="st3" width="1" height="6.1"/>
<rect x="321.6" y="144.9" transform="matrix(0.8428 -0.5382 0.5382 0.8428 -27.234 197.5382)" class="st3" width="6.1" height="1"/>
<ellipse transform="matrix(1 -9.250113e-03 9.250113e-03 1 -1.295 3.0517)" class="st0" cx="329.3" cy="141.5" rx="5.5" ry="5.5"/>
<path class="st4" d="M334.5,140c0-0.1,0-0.1,0-0.2l-10.4,0.1c0,0.1,0,0.1,0,0.2L334.5,140z"/>
<path class="st4" d="M324.1,143.3c0.9,2.9,4,4.4,6.9,3.5c1.7-0.6,3-1.9,3.5-3.6L324.1,143.3z"/>
<path class="st4" d="M325.7,137.4l-0.2,0.2l0.1,6.7h0.2C325.7,142,325.7,139.7,325.7,137.4z"/>
<path class="st4" d="M329.3,136.1h-0.2v3.8v3.7h0.2C329.3,141,329.3,138.5,329.3,136.1z"/>
<path class="st4" d="M332.8,137.4l0.2,0.2c0,2.2,0,4.4,0,6.7h-0.2C332.9,141.9,332.8,139.7,332.8,137.4z"/>
<rect x="315.2" y="106.2" transform="matrix(0.5588 -0.8293 0.8293 0.5588 48.729 309.9712)" class="st3" width="1" height="6.1"/>
<rect x="315" y="115.9" transform="matrix(0.7762 -0.6305 0.6305 0.7762 -2.2143 226.6155)" class="st3" width="6.1" height="1"/>
<ellipse transform="matrix(0.9992 -3.960861e-02 3.960861e-02 0.9992 -4.1857 12.851)" class="st0" cx="322.2" cy="112.1" rx="5.5" ry="5.5"/>
<path class="st4" d="M327.4,110.4c0-0.1,0-0.1-0.1-0.2l-10.4,0.4c0,0.1,0,0.1,0,0.2L327.4,110.4z"/>
<path class="st4" d="M317.1,114c1,2.8,4.2,4.3,7,3.2c1.7-0.6,2.9-2,3.4-3.7L317.1,114z"/>
<path class="st4" d="M318.5,108.1l-0.2,0.2l0.3,6.6h0.2L318.5,108.1z"/>
<path class="st4" d="M322.1,106.6h-0.2l0.2,3.8l0.2,3.7h0.2C322.3,111.6,322.2,109.1,322.1,106.6z"/>
<path class="st4" d="M325.7,107.8l0.2,0.2l0.2,6.6h-0.2L325.7,107.8z"/>
<rect x="301.9" y="80.9" transform="matrix(0.2756 -0.9613 0.9613 0.2756 138.4052 351.4954)" class="st3" width="1" height="6.1"/>
<rect x="303.9" y="89.5" transform="matrix(0.5438 -0.8392 0.8392 0.5438 64.4481 298.6484)" class="st3" width="6.1" height="1"/>
<ellipse transform="matrix(0.9999 -1.291508e-02 1.291508e-02 0.9999 -1.0673 4.0046)" class="st0" cx="309.5" cy="84.6" rx="5.5" ry="5.5"/>
<path class="st4" d="M314.8,83.1c0-0.1,0-0.1,0-0.2L304.3,83c0,0.1,0,0.1,0,0.2L314.8,83.1z"/>
<path class="st4" d="M304.4,86.4c1,2.9,4,4.4,6.9,3.4c1.7-0.6,3-1.9,3.5-3.6L304.4,86.4z"/>
<path class="st4" d="M305.9,80.5l-0.2,0.2l0.1,6.7h0.2L305.9,80.5z"/>
<path class="st4" d="M309.6,79.1h-0.2l0.1,3.8l0.1,3.7h0.2C309.6,84.1,309.6,81.6,309.6,79.1z"/>
<path class="st4" d="M313.1,80.5l0.2,0.2c0,2.2,0,4.4,0.1,6.7h-0.2L313.1,80.5z"/>
<rect x="285.7" y="58.6" transform="matrix(0.1149 -0.9934 0.9934 0.1149 192.07 338.8073)" class="st3" width="1" height="6.1"/>
<rect x="288.5" y="66.4" transform="matrix(0.3994 -0.9168 0.9168 0.3994 113.7402 307.4891)" class="st3" width="6.1" height="1"/>
<circle class="st0" cx="293.3" cy="61.1" r="5.5"/>
<path class="st4" d="M298.5,59.6c0-0.1,0-0.1,0-0.2h-10.4c0,0.1,0,0.1,0,0.2H298.5z"/>
<path class="st4" d="M288.1,62.8c0.9,2.9,4,4.4,6.9,3.5c1.7-0.5,3-1.9,3.5-3.5H288.1z"/>
<path class="st4" d="M289.7,57l-0.2,0.2c0,2.2,0,4.4,0,6.7h0.2C289.7,61.5,289.7,59.2,289.7,57z"/>
<path class="st4" d="M293.4,55.7h-0.2c0,0.4,0,3.4,0,3.8s0,3.3,0,3.7h0.2C293.4,60.6,293.4,58.1,293.4,55.7z"/>
<path class="st4" d="M296.9,57l0.2,0.2c0,2.2,0,4.4,0,6.7h-0.2C296.9,61.6,296.9,59.3,296.9,57z"/>
<rect x="262.6" y="42.9" transform="matrix(0.9954 -9.567198e-02 9.567198e-02 0.9954 -2.932 25.6169)" class="st3" width="6.1" height="1"/>
<rect x="269.1" y="46.9" transform="matrix(0.1985 -0.9801 0.9801 0.1985 171.5849 304.7056)" class="st3" width="6.1" height="1"/>
<ellipse transform="matrix(1.832498e-02 -0.9998 0.9998 1.832498e-02 226.1199 313.1899)" class="st0" cx="272.6" cy="41.4" rx="5.5" ry="5.5"/>
<path class="st4" d="M277.8,40c0-0.1,0-0.1,0-0.2l-10.4-0.2c0,0.1,0,0.1,0,0.2L277.8,40z"/>
<path class="st4" d="M267.3,43c0.9,2.9,3.9,4.5,6.8,3.7c1.7-0.5,3-1.8,3.6-3.5L267.3,43z"/>
<path class="st4" d="M269.1,37.2l-0.2,0.2l-0.1,6.7h0.2L269.1,37.2z"/>
<path class="st4" d="M272.8,36h-0.2l-0.1,3.8l-0.1,3.7h0.2C272.7,40.9,272.7,38.4,272.8,36z"/>
<path class="st4" d="M276.2,37.4l0.2,0.2l-0.1,6.7h-0.2L276.2,37.4z"/>
<rect x="233.4" y="26.1" transform="matrix(0.976 -0.2178 0.2178 0.976 -0.1103 52.1439)" class="st3" width="6.1" height="1"/>
<rect x="240.3" y="29.3" transform="matrix(7.619696e-02 -0.9971 0.9971 7.619696e-02 195.059 270.2272)" class="st3" width="6.1" height="1"/>
<ellipse transform="matrix(1.745241e-02 -0.9998 0.9998 1.745241e-02 215.0268 266.4015)" class="st0" cx="243.1" cy="23.8" rx="5.5" ry="5.5"/>
<path class="st4" d="M248.3,22.4c0-0.1,0-0.1,0-0.2L237.9,22c0,0.1,0,0.1,0,0.2L248.3,22.4z"/>
<path class="st4" d="M237.9,25.4c0.9,2.9,3.9,4.5,6.8,3.6c1.7-0.5,3-1.8,3.6-3.5L237.9,25.4z"/>
<path class="st4" d="M239.6,19.6l-0.2,0.2l-0.1,6.7h0.2L239.6,19.6z"/>
<path class="st4" d="M243.3,18.3h-0.2l-0.1,3.8l0,3.7h0.2C243.2,23.3,243.2,20.8,243.3,18.3z"/>
<path class="st4" d="M246.8,19.7l0.2,0.2l-0.1,6.7h-0.2L246.8,19.7z"/>
<rect x="207.1" y="16.1" transform="matrix(0.9175 -0.3976 0.3976 0.9175 10.7264 84.9287)" class="st3" width="6.1" height="1"/>
<rect x="217" y="15.5" transform="matrix(0.9936 -0.113 0.113 0.9936 -0.6987 24.7002)" class="st3" width="1" height="6.1"/>
<ellipse transform="matrix(0.9999 -1.221700e-02 1.221700e-02 0.9999 -0.1384 2.6406)" class="st0" cx="216.1" cy="12.6" rx="5.5" ry="5.5"/>
<path class="st4" d="M221.3,11.1c0-0.1,0-0.1,0-0.2L210.9,11c0,0.1,0,0.1,0,0.2L221.3,11.1z"/>
<path class="st4" d="M210.9,14.4c0.9,2.9,4,4.4,6.9,3.5c1.7-0.6,3-1.9,3.5-3.6L210.9,14.4z"/>
<path class="st4" d="M212.5,8.5l-0.2,0.2l0.1,6.7h0.2L212.5,8.5z"/>
<path class="st4" d="M216.1,7.2h-0.2L216,11l0.1,3.7h0.2C216.2,12.1,216.1,9.6,216.1,7.2z"/>
<path class="st4" d="M219.6,8.5l0.2,0.2c0,2.2,0,4.4,0.1,6.7h-0.2L219.6,8.5z"/>
<rect x="176.9" y="10.8" transform="matrix(0.82 -0.5724 0.5724 0.82 25.9151 105.0141)" class="st3" width="6.1" height="1"/>
<rect x="187" y="8.7" transform="matrix(0.9512 -0.3087 0.3087 0.9512 5.5398 58.4432)" class="st3" width="1" height="6.1"/>
<ellipse transform="matrix(0.9999 -9.999500e-03 9.999500e-03 0.9999 -4.554578e-02 1.8512)" class="st0" cx="185.1" cy="5.5" rx="5.5" ry="5.5"/>
<path class="st4" d="M190.1,4.7c0-0.1,0-0.1-0.1-0.2l-10.4,0.1c0,0.1,0,0.1,0,0.2L190.1,4.7z"/>
<path class="st4" d="M179.7,8c0.9,2.9,4,4.4,6.9,3.5c1.7-0.5,3-1.9,3.5-3.6L179.7,8z"/>
<path class="st4" d="M181.3,2.1l-0.2,0.2c0,2.2,0,4.4,0.1,6.7h0.2C181.3,6.6,181.3,4.4,181.3,2.1z"/>
<path class="st4" d="M185,0.8h-0.2v3.8v3.7h0.2C185,5.7,185,3.2,185,0.8z"/>
<path class="st4" d="M188.5,2.1l0.2,0.2c0,2.2,0,4.4,0,6.7h-0.2C188.5,6.6,188.5,4.4,188.5,2.1z"/>
<rect x="147.1" y="11.9" transform="matrix(0.6747 -0.7381 0.7381 0.6747 39.6959 114.8056)" class="st3" width="6.1" height="1"/>
<rect x="157" y="7.9" transform="matrix(0.8601 -0.5101 0.5101 0.8601 16.4504 81.8712)" class="st3" width="1" height="6.1"/>
<ellipse transform="matrix(1 -5.934085e-03 5.934085e-03 1 -3.476990e-02 0.9134)" class="st0" cx="153.9" cy="6.3" rx="5.5" ry="5.5"/>
<path class="st4" d="M159.1,4.8c0-0.1,0-0.1-0.1-0.2l-10.4,0.1c0,0.1,0,0.1-0.1,0.2L159.1,4.8z"/>
<path class="st4" d="M148.7,8c0.9,2.9,4,4.4,6.9,3.5c1.7-0.5,3-1.9,3.5-3.5L148.7,8z"/>
<path class="st4" d="M150.3,2.2l-0.2,0.2c0,2.2,0,4.4,0.1,6.7h0.1C150.3,6.7,150.3,4.4,150.3,2.2z"/>
<path class="st4" d="M154,0.8h-0.2v3.8v3.7h0.2C154,5.8,154,3.3,154,0.8z"/>
<path class="st4" d="M157.5,2.2l0.2,0.2c0,2.2,0,4.4,0,6.7h-0.2C157.5,6.7,157.5,4.5,157.5,2.2z"/>
<rect x="118.3" y="17.9" transform="matrix(0.4661 -0.8847 0.8847 0.4661 48.5506 117.2065)" class="st3" width="6.1" height="1"/>
<rect x="127.8" y="12.2" transform="matrix(0.7036 -0.7106 0.7106 0.7036 27.1745 95.6952)" class="st3" width="1" height="6.1"/>
<ellipse transform="matrix(0.999 -4.431684e-02 4.431684e-02 0.999 -0.3916 5.4854)" class="st0" cx="123.5" cy="11.6" rx="5.5" ry="5.5"/>
<path class="st4" d="M128.7,9.9c0-0.1,0-0.1-0.1-0.2l-10.3,0.5c0,0.1,0,0.1,0,0.2L128.7,9.9z"/>
<path class="st4" d="M118.4,13.5c1,2.8,4.2,4.3,7,3.2c1.7-0.6,2.9-2,3.4-3.7L118.4,13.5z"/>
<path class="st4" d="M119.8,7.6l-0.2,0.2l0.3,6.6h0.2L119.8,7.6z"/>
<path class="st4" d="M123.4,6.1h-0.2l0.2,3.8l0.2,3.7h0.2C123.6,11.1,123.5,8.6,123.4,6.1z"/>
<path class="st4" d="M126.9,7.3l0.2,0.2l0.3,6.6h-0.2L126.9,7.3z"/>
<rect x="89.9" y="29.5" transform="matrix(0.3445 -0.9388 0.9388 0.3445 32.8045 106.9209)" class="st3" width="6.1" height="1"/>
<rect x="98.9" y="22.9" transform="matrix(0.6031 -0.7977 0.7977 0.6031 18.732 89.6052)" class="st3" width="1" height="6.1"/>
<circle class="st0" cx="94.2" cy="23" r="5.5"/>
<path class="st4" d="M99.4,21.5c0-0.1,0-0.1-0.1-0.2H89c0,0.1,0,0.1-0.1,0.2H99.4z"/>
<path class="st4" d="M89,24.6c0.9,2.9,4,4.4,6.9,3.5c1.7-0.5,3-1.9,3.5-3.5H89z"/>
<path class="st4" d="M90.6,18.8L90.4,19c0,2.2,0,4.4,0,6.7h0.2C90.6,23.3,90.6,21.1,90.6,18.8z"/>
<path class="st4" d="M94.3,17.5h-0.2c0,0.4,0,3.4,0,3.8s0,3.3,0,3.7h0.2C94.3,22.5,94.3,20,94.3,17.5z"/>
<path class="st4" d="M97.8,18.8L98,19c0,2.2,0,4.4,0,6.7h-0.2C97.8,23.4,97.8,21.1,97.8,18.8z"/>
<rect x="65.1" y="45.9" transform="matrix(0.206 -0.9785 0.9785 0.206 8.6251 103.4959)" class="st3" width="6.1" height="1"/>
<rect x="73.4" y="38.5" transform="matrix(0.4822 -0.8761 0.8761 0.4822 1.8821 86.2382)" class="st3" width="1" height="6.1"/>
<ellipse transform="matrix(4.710640e-02 -0.9989 0.9989 4.710640e-02 25.8147 105.6707)" class="st0" cx="68.3" cy="39.3" rx="5.5" ry="5.5"/>
<path class="st4" d="M73.6,38.1c0-0.1,0-0.1,0-0.2l-10.4-0.5c0,0.1,0,0.1-0.1,0.2L73.6,38.1z"/>
<path class="st4" d="M63,40.7c0.8,2.9,3.8,4.6,6.7,3.8c1.7-0.5,3.1-1.7,3.7-3.4L63,40.7z"/>
<path class="st4" d="M64.9,35l-0.2,0.2l-0.3,6.7h0.2L64.9,35z"/>
<path class="st4" d="M68.7,33.8h-0.2l-0.2,3.8l-0.2,3.7h0.2L68.7,33.8z"/>
<path class="st4" d="M72.1,35.3l0.2,0.2l-0.3,6.7h-0.2L72.1,35.3z"/>
<rect x="47.2" y="63.7" transform="matrix(0.9992 -3.995728e-02 3.995728e-02 0.9992 -2.6273 1.9594)" class="st3" width="1" height="6.1"/>
<rect x="51.6" y="57.5" transform="matrix(0.2529 -0.9675 0.9675 0.2529 -19.6483 95.6742)" class="st3" width="1" height="6.1"/>
<ellipse transform="matrix(5.338165e-02 -0.9986 0.9986 5.338165e-02 -16.0017 102.6254)" class="st0" cx="46.1" cy="59.8" rx="5.5" ry="5.5"/>
<path class="st4" d="M51.5,58.5c0-0.1,0-0.1,0-0.2l-10.4-0.6c0,0.1,0,0.1-0.1,0.2L51.5,58.5z"/>
<path class="st4" d="M40.9,61.2c0.8,2.9,3.7,4.7,6.7,3.9c1.7-0.4,3.1-1.7,3.7-3.3L40.9,61.2z"/>
<path class="st4" d="M42.8,55.4l-0.2,0.2l-0.3,6.7h0.2L42.8,55.4z"/>
<path class="st4" d="M46.5,54.3h-0.2l-0.2,3.8l-0.2,3.7h0.2L46.5,54.3z"/>
<path class="st4" d="M50,55.8l0.2,0.2l-0.4,6.7h-0.2L50,55.8z"/>
<rect x="29.9" y="86.5" transform="matrix(0.9887 -0.1498 0.1498 0.9887 -13.0751 5.5719)" class="st3" width="1" height="6.1"/>
<rect x="33.8" y="80.1" transform="matrix(0.1447 -0.9895 0.9895 0.1447 -52.9091 105.014)" class="st3" width="1" height="6.1"/>
<ellipse transform="matrix(0.9999 -1.134440e-02 1.134440e-02 0.9999 -0.9397 0.3261)" class="st0" cx="28.3" cy="83" rx="5.5" ry="5.5"/>
<path class="st4" d="M33.5,81.4c0-0.1,0-0.1-0.1-0.2l-10.4,0.1c0,0.1,0,0.1,0,0.2L33.5,81.4z"/>
<path class="st4" d="M23.1,84.7c1,2.9,4,4.4,6.9,3.4c1.7-0.6,3-1.9,3.5-3.6L23.1,84.7z"/>
<path class="st4" d="M24.7,78.9L24.5,79l0.1,6.7h0.2L24.7,78.9z"/>
<path class="st4" d="M28.3,77.5h-0.2l0.1,3.8l0.1,3.7h0.2C28.3,82.5,28.3,80,28.3,77.5z"/>
<path class="st4" d="M31.8,78.8L32,79c0,2.2,0,4.4,0.1,6.7h-0.2L31.8,78.8z"/>
<rect x="18.7" y="114.9" transform="matrix(0.8674 -0.4976 0.4976 0.8674 -56.1373 25.1933)" class="st3" width="1" height="6.1"/>
<rect x="17.2" y="109.9" transform="matrix(0.9748 -0.2233 0.2233 0.9748 -24.1402 7.3116)" class="st3" width="6.1" height="1"/>
<ellipse transform="matrix(1 -1.047197e-03 1.047197e-03 1 -0.1178 1.535586e-02)" class="st0" cx="14.6" cy="112.5" rx="5.5" ry="5.5"/>
<path class="st4" d="M19.8,111c0-0.1,0-0.1-0.1-0.2H9.4c0,0.1,0,0.1-0.1,0.2H19.8z"/>
<path class="st4" d="M9.4,114.2c0.9,2.9,4,4.4,6.9,3.5c1.7-0.5,3-1.9,3.5-3.5H9.4z"/>
<path class="st4" d="M11,108.3l-0.2,0.2c0,2.2,0,4.4,0,6.7H11C11,112.9,11,110.6,11,108.3z"/>
<path class="st4" d="M14.7,107h-0.2v7.5h0.2C14.7,112,14.7,109.5,14.7,107z"/>
<path class="st4" d="M18.2,108.4l0.2,0.2c0,2.2,0,4.4,0,6.7h-0.2C18.2,112.9,18.2,110.6,18.2,108.4z"/>
<rect x="11" y="145.7" transform="matrix(0.895 -0.446 0.446 0.895 -65.1184 20.7324)" class="st3" width="1" height="6.1"/>
<rect x="9.9" y="140.8" transform="matrix(0.9861 -0.1659 0.1659 0.9861 -23.2584 4.1105)" class="st3" width="6.1" height="1"/>
<ellipse transform="matrix(0.9984 -5.738978e-02 5.738978e-02 0.9984 -8.1943 0.6494)" class="st0" cx="7.2" cy="143" rx="5.5" ry="5.5"/>
<path class="st4" d="M12.3,141.2c0-0.1,0-0.1-0.1-0.2l-10.4,0.6c0,0.1,0,0.1,0,0.2L12.3,141.2z"/>
<path class="st4" d="M2.1,145c1.1,2.8,4.2,4.2,7,3.1c1.7-0.6,2.9-2,3.3-3.7L2.1,145z"/>
<path class="st4" d="M3.4,139l-0.2,0.2l0.4,6.6h0.2L3.4,139z"/>
<path class="st4" d="M7,137.5H6.8l0.2,3.8l0.2,3.7h0.2L7,137.5z"/>
<path class="st4" d="M10.6,138.7l0.2,0.2l0.4,6.6H11L10.6,138.7z"/>
<rect x="10.7" y="176.5" transform="matrix(0.7409 -0.6716 0.6716 0.7409 -117.6553 54.0017)" class="st3" width="1" height="6.1"/>
<rect x="7.6" y="171.5" transform="matrix(0.9045 -0.4266 0.4266 0.9045 -72.3388 20.9483)" class="st3" width="6.1" height="1"/>
<ellipse transform="matrix(1 -1.396262e-03 1.396262e-03 1 -0.2446 7.822268e-03)" class="st0" cx="5.5" cy="175.2" rx="5.5" ry="5.5"/>
<path class="st4" d="M10.7,173.7c0-0.1,0-0.1-0.1-0.2H0.3c0,0.1,0,0.1,0,0.2H10.7z"/>
<path class="st4" d="M0.3,176.9c0.9,2.9,4,4.4,6.9,3.5c1.7-0.5,3-1.9,3.5-3.5H0.3z"/>
<path class="st4" d="M1.9,171l-0.2,0.2c0,2.2,0,4.4,0,6.7h0.2C1.9,175.6,1.9,173.3,1.9,171z"/>
<path class="st4" d="M5.6,169.7H5.4v3.8v3.7h0.2C5.6,174.7,5.6,172.2,5.6,169.7z"/>
<path class="st4" d="M9.1,171l0.2,0.2c0,2.2,0,4.4,0,6.7H9.1C9.1,175.6,9.1,173.3,9.1,171z"/>
<rect x="17.4" y="206.3" transform="matrix(0.6104 -0.7921 0.7921 0.6104 -158.8205 95.7279)" class="st3" width="1" height="6.1"/>
<rect x="13" y="201.4" transform="matrix(0.8147 -0.5799 0.5799 0.8147 -114.1291 46.6935)" class="st3" width="6.1" height="1"/>
<ellipse transform="matrix(0.9954 -9.601948e-02 9.601948e-02 0.9954 -19.7292 2.0627)" class="st0" cx="11.6" cy="206" rx="5.5" ry="5.5"/>
<path class="st4" d="M16.6,204c0-0.1,0-0.1-0.1-0.2l-10.3,1c0,0.1,0,0.1,0,0.2L16.6,204z"/>
<path class="st4" d="M6.6,208.2c1.2,2.8,4.4,4,7.2,2.8c1.6-0.7,2.8-2.1,3.2-3.8L6.6,208.2z"/>
<path class="st4" d="M7.6,202.2l-0.2,0.2l0.7,6.6h0.2L7.6,202.2z"/>
<path class="st4" d="M11.1,200.6H11l0.4,3.8l0.4,3.7h0.2L11.1,200.6z"/>
<path class="st4" d="M14.8,201.6l0.2,0.2l0.6,6.6h-0.2L14.8,201.6z"/>
<rect x="28.1" y="233.7" transform="matrix(0.4647 -0.8855 0.8855 0.4647 -194.3158 152.0968)" class="st3" width="1" height="6.1"/>
<rect x="22.5" y="229.4" transform="matrix(0.7025 -0.7117 0.7117 0.7025 -155.9956 86.5315)" class="st3" width="6.1" height="1"/>
<ellipse transform="matrix(0.9872 -0.1595 0.1595 0.9872 -37.2492 6.597)" class="st0" cx="22.5" cy="235.3" rx="5.5" ry="5.5"/>
<path class="st4" d="M26.8,232.3c0-0.1-0.1-0.1-0.1-0.2l-10.2,1.6c0,0.1,0,0.1,0,0.2L26.8,232.3z"/>
<path class="st4" d="M17,237.1c1.4,2.7,4.6,3.8,7.3,2.4c1.6-0.8,2.7-2.3,2.9-4L17,237.1z"/>
<path class="st4" d="M17.7,231.1l-0.2,0.2l1.1,6.6h0.2L17.7,231.1z"/>
<path class="st4" d="M21.1,229.2h-0.2l0.6,3.8l0.6,3.6h0.2L21.1,229.2z"/>
<path class="st4" d="M24.7,230l0.2,0.1l1,6.6h-0.2L24.7,230z"/>
<rect x="46.8" y="259.8" transform="matrix(0.1064 -0.9943 0.9943 0.1064 -219.0433 281.8889)" class="st3" width="1" height="6.1"/>
<rect x="38.4" y="257.2" transform="matrix(0.3903 -0.9207 0.9207 0.3903 -212.0577 195.2484)" class="st3" width="6.1" height="1"/>
<ellipse transform="matrix(0.9999 -1.361315e-02 1.361315e-02 0.9999 -3.5809 0.5718)" class="st0" cx="40.2" cy="263.3" rx="5.5" ry="5.5"/>
<path class="st4" d="M45.4,261.8c0-0.1,0-0.1-0.1-0.2L35,261.7c0,0.1,0,0.1,0,0.2L45.4,261.8z"/>
<path class="st4" d="M35,265.1c1,2.9,4,4.4,6.9,3.4c1.7-0.6,3-1.9,3.5-3.6L35,265.1z"/>
<path class="st4" d="M36.6,259.2l-0.2,0.2l0.1,6.7h0.2L36.6,259.2z"/>
<path class="st4" d="M40.2,257.8H40l0.1,3.8l0.1,3.7h0.2C40.3,262.8,40.3,260.3,40.2,257.8z"/>
<path class="st4" d="M43.8,259.2l0.2,0.2c0,2.2,0,4.4,0.1,6.7h-0.2L43.8,259.2z"/>
<rect x="67.7" y="283.6" transform="matrix(0.9969 -7.845910e-02 7.845910e-02 0.9969 -22.0717 6.4263)" class="st3" width="6.1" height="1"/>
<rect x="61.4" y="279.4" transform="matrix(0.2156 -0.9765 0.9765 0.2156 -222.759 282.4484)" class="st3" width="6.1" height="1"/>
<ellipse transform="matrix(0.9978 -6.592560e-02 6.592560e-02 0.9978 -18.709 4.8285)" class="st0" cx="63.8" cy="285.9" rx="5.5" ry="5.5"/>
<path class="st4" d="M69,284.1c0-0.1,0-0.1-0.1-0.2l-10.4,0.7c0,0.1,0,0.1,0,0.2L69,284.1z"/>
<path class="st4" d="M58.8,287.9c1.1,2.8,4.3,4.2,7.1,3.1c1.6-0.6,2.9-2,3.3-3.8L58.8,287.9z"/>
<path class="st4" d="M60,282l-0.2,0.2l0.5,6.6h0.2L60,282z"/>
<path class="st4" d="M63.6,280.4h-0.2l0.3,3.8l0.2,3.7h0.2L63.6,280.4z"/>
<path class="st4" d="M67.2,281.5l0.2,0.2l0.4,6.6h-0.2L67.2,281.5z"/>
<rect x="93" y="299.6" transform="matrix(0.944 -0.33 0.33 0.944 -93.6536 48.4971)" class="st3" width="6.1" height="1"/>
<rect x="88.3" y="294.6" transform="matrix(0.9992 -4.065499e-02 4.065499e-02 0.9992 -12.0279 3.8575)" class="st3" width="1" height="6.1"/>
<ellipse transform="matrix(0.983 -0.1834 0.1834 0.983 -54.1719 21.6237)" class="st0" cx="89.8" cy="303.6" rx="5.5" ry="5.5"/>
<path class="st4" d="M94.7,301.2l-0.1-0.2l-10.2,1.9c0,0.1,0,0.1,0,0.2L94.7,301.2z"/>
<path class="st4" d="M85,306.2c1.4,2.7,4.7,3.6,7.4,2.2c1.6-0.8,2.6-2.4,2.8-4.1L85,306.2z"/>
<path class="st4" d="M85.6,300.2l-0.2,0.2l1.2,6.5h0.2L85.6,300.2z"/>
<path class="st4" d="M88.9,298.2h-0.2l0.7,3.7l0.7,3.6h0.2L88.9,298.2z"/>
<path class="st4" d="M92.6,298.9l0.2,0.1l1.2,6.5h-0.2L92.6,298.9z"/>
<rect x="123.3" y="311.7" transform="matrix(0.8442 -0.536 0.536 0.8442 -147.6664 116.3391)" class="st3" width="6.1" height="1"/>
<rect x="118.3" y="308.4" transform="matrix(0.9638 -0.2667 0.2667 0.9638 -78.7802 42.965)" class="st3" width="1" height="6.1"/>
<ellipse transform="matrix(0.9839 -0.1785 0.1785 0.9839 -54.6339 26.7023)" class="st0" cx="121.1" cy="317" rx="5.5" ry="5.5"/>
<path class="st4" d="M126,314.7l-0.1-0.2l-10.2,1.9c0,0.1,0,0.1,0,0.2L126,314.7z"/>
<path class="st4" d="M116.3,319.6c1.4,2.7,4.7,3.7,7.4,2.3c1.6-0.8,2.6-2.4,2.9-4.1L116.3,319.6z"/>
<path class="st4" d="M116.9,313.6l-0.2,0.2l1.2,6.5h0.2L116.9,313.6z"/>
<path class="st4" d="M120.2,311.6H120l0.7,3.7l0.7,3.6h0.2L120.2,311.6z"/>
<path class="st4" d="M123.9,312.4l0.2,0.1l1.2,6.6h-0.2L123.9,312.4z"/>
<rect x="155.7" y="317.4" transform="matrix(0.8198 -0.5727 0.5727 0.8198 -153.4655 148.235)" class="st3" width="6.1" height="1"/>
<rect x="150.5" y="315.1" transform="matrix(0.9507 -0.3102 0.3102 0.9507 -91.2452 62.5352)" class="st3" width="1" height="6.1"/>
<ellipse transform="matrix(0.9927 -0.1205 0.1205 0.9927 -37.7951 20.8714)" class="st0" cx="153.7" cy="323" rx="5.5" ry="5.5"/>
<path class="st4" d="M158.7,320.9c0-0.1,0-0.1-0.1-0.2l-10.4,1.2c0,0.1,0,0.1,0,0.2L158.7,320.9z"/>
<path class="st4" d="M148.8,325.3c1.3,2.7,4.5,3.9,7.2,2.7c1.6-0.7,2.8-2.2,3.1-3.9L148.8,325.3z"/>
<path class="st4" d="M149.7,319.3l-0.2,0.2l0.8,6.6h0.2L149.7,319.3z"/>
<path class="st4" d="M153.2,317.5H153l0.5,3.8l0.4,3.6h0.2L153.2,317.5z"/>
<path class="st4" d="M156.8,318.5l0.2,0.2l0.8,6.6h-0.2L156.8,318.5z"/>
<rect x="188.7" y="315.4" transform="matrix(0.5489 -0.8359 0.8359 0.5489 -177.5641 302.8332)" class="st3" width="6.1" height="1"/>
<rect x="184.1" y="315.3" transform="matrix(0.7686 -0.6397 0.6397 0.7686 -160.9247 191.7688)" class="st3" width="1" height="6.1"/>
<ellipse transform="matrix(0.9916 -0.1291 0.1291 0.9916 -40.0666 27.1098)" class="st0" cx="189" cy="322.5" rx="5.5" ry="5.5"/>
<path class="st4" d="M194,320.3c0-0.1,0-0.1-0.1-0.2l-10.3,1.4c0,0.1,0,0.1,0,0.2L194,320.3z"/>
<path class="st4" d="M184.1,324.8c1.3,2.7,4.5,3.9,7.2,2.6c1.6-0.7,2.7-2.2,3.1-4L184.1,324.8z"/>
<path class="st4" d="M185,318.8l-0.2,0.2l0.9,6.6h0.2L185,318.8z"/>
<path class="st4" d="M188.4,317h-0.2l0.5,3.8l0.5,3.6h0.2L188.4,317z"/>
<path class="st4" d="M192.1,317.9l0.2,0.2l0.8,6.6H193L192.1,317.9z"/>
<rect x="219.2" y="308.1" transform="matrix(0.4554 -0.8903 0.8903 0.4554 -153.7151 365.9086)" class="st3" width="6.1" height="1"/>
<rect x="214.8" y="308.8" transform="matrix(0.695 -0.719 0.719 0.695 -158.543 249.906)" class="st3" width="1" height="6.1"/>
<ellipse transform="matrix(0.9953 -9.654064e-02 9.654064e-02 0.9953 -29.4226 22.7264)" class="st0" cx="220.1" cy="315.4" rx="5.5" ry="5.5"/>
<path class="st4" d="M225.2,313.5c0-0.1,0-0.1-0.1-0.2l-10.3,1c0,0.1,0,0.1,0,0.2L225.2,313.5z"/>
<path class="st4" d="M215.1,317.6c1.2,2.8,4.4,4,7.2,2.8c1.6-0.7,2.8-2.1,3.2-3.8L215.1,317.6z"/>
<path class="st4" d="M216.2,311.6l-0.2,0.2l0.7,6.6h0.2L216.2,311.6z"/>
<path class="st4" d="M219.7,310h-0.2l0.4,3.8l0.4,3.7h0.2L219.7,310z"/>
<path class="st4" d="M223.3,311l0.2,0.2l0.6,6.6H224L223.3,311z"/>
<rect x="246.2" y="294.7" transform="matrix(0.1961 -0.9806 0.9806 0.1961 -89.1051 481.7086)" class="st3" width="6.1" height="1"/>
<rect x="243" y="297.1" transform="matrix(0.4733 -0.8809 0.8809 0.4733 -136.1543 372.5814)" class="st3" width="1" height="6.1"/>
<ellipse transform="matrix(0.9993 -3.699253e-02 3.699253e-02 0.9993 -11.0144 9.4224)" class="st0" cx="249.1" cy="302.4" rx="5.5" ry="5.5"/>
<path class="st4" d="M254.3,300.6c0-0.1,0-0.1-0.1-0.2l-10.4,0.4c0,0.1,0,0.1,0,0.2L254.3,300.6z"/>
<path class="st4" d="M244,304.2c1,2.8,4.1,4.3,7,3.3c1.7-0.6,2.9-2,3.4-3.7L244,304.2z"/>
<path class="st4" d="M245.4,298.3l-0.2,0.2l0.3,6.6h0.2L245.4,298.3z"/>
<path class="st4" d="M249,296.9h-0.2l0.1,3.8l0.1,3.7h0.2C249.2,301.8,249.1,299.3,249,296.9z"/>
<path class="st4" d="M252.6,298.1l0.2,0.2l0.2,6.7h-0.2L252.6,298.1z"/>
<rect x="274.3" y="275.7" transform="matrix(6.982913e-02 -0.9976 0.9976 6.982913e-02 -17.5464 533.6483)" class="st3" width="6.1" height="1"/>
<rect x="271.1" y="278" transform="matrix(0.3574 -0.934 0.934 0.3574 -87.9663 434.2167)" class="st3" width="1" height="6.1"/>
<ellipse transform="matrix(0.9756 -0.2193 0.2193 0.9756 -55.1929 67.7241)" class="st0" cx="277.4" cy="282.4" rx="5.5" ry="5.5"/>
<path class="st4" d="M282.2,279.8l-0.1-0.2l-10.1,2.3c0,0.1,0,0.1,0,0.2L282.2,279.8z"/>
<path class="st4" d="M272.7,285.2c1.5,2.6,4.9,3.5,7.5,1.9c1.5-0.9,2.5-2.5,2.7-4.2L272.7,285.2z"/>
<path class="st4" d="M273,279.2l-0.1,0.2l1.5,6.5h0.2L273,279.2z"/>
<path class="st4" d="M276.3,277.1h-0.2l0.8,3.7l0.8,3.6h0.2L276.3,277.1z"/>
<path class="st4" d="M280,277.6l0.2,0.1l1.4,6.5h-0.2L280,277.6z"/>
<rect x="297.3" y="248.7" transform="matrix(0.973 -0.2309 0.2309 0.973 -50.0905 75.5542)" class="st3" width="1" height="6.1"/>
<rect x="294.1" y="255.6" transform="matrix(6.261627e-02 -0.998 0.998 6.261627e-02 18.0159 536.4492)" class="st3" width="1" height="6.1"/>
<ellipse transform="matrix(0.998 -6.348726e-02 6.348726e-02 0.998 -15.7895 19.608)" class="st0" cx="300.6" cy="258.3" rx="5.5" ry="5.5"/>
<path class="st4" d="M305.8,256.5c0-0.1,0-0.1-0.1-0.2l-10.4,0.7c0,0.1,0,0.1,0,0.2L305.8,256.5z"/>
<path class="st4" d="M295.6,260.3c1.1,2.8,4.3,4.2,7.1,3.1c1.6-0.6,2.9-2,3.3-3.7L295.6,260.3z"/>
<path class="st4" d="M296.8,254.3l-0.2,0.2l0.4,6.6h0.2L296.8,254.3z"/>
<path class="st4" d="M300.4,252.8h-0.2l0.2,3.8l0.2,3.7h0.2L300.4,252.8z"/>
<path class="st4" d="M304,253.9l0.2,0.2l0.4,6.6h-0.2L304,253.9z"/>
<line class="st5" x1="35" y1="159" x2="301.9" y2="160.1"/>
<rect x="311.1" y="222.9" transform="matrix(0.9132 -0.4075 0.4075 0.9132 -65.0063 146.6158)" class="st3" width="1" height="6.1"/>
<rect x="306.7" y="232.8" transform="matrix(0.9923 -0.1236 0.1236 0.9923 -26.4602 40.0779)" class="st3" width="6.1" height="1"/>
<ellipse transform="matrix(0.1817 -0.9834 0.9834 0.1817 30.3288 500.1225)" class="st0" cx="315.7" cy="231.8" rx="5.5" ry="5.5"/>
<path class="st4" d="M321.1,231.3c0-0.1,0-0.1,0-0.2l-10.2-1.9l-0.1,0.2L321.1,231.3z"/>
<path class="st4" d="M310.3,232.5c0.4,3,3.1,5.1,6.1,4.7c1.8-0.2,3.3-1.3,4.1-2.8L310.3,232.5z"/>
<path class="st4" d="M312.9,227.1l-0.2,0.1l-1.2,6.5h0.2L312.9,227.1z"/>
<path class="st4" d="M316.8,226.5h-0.2l-0.7,3.7l-0.7,3.6h0.2L316.8,226.5z"/>
<path class="st4" d="M320,228.4l0.2,0.2l-1.2,6.5h-0.2L320,228.4z"/>
<rect x="322" y="193.6" transform="matrix(0.8438 -0.5367 0.5367 0.8438 -55.1793 203.8)" class="st3" width="1" height="6.1"/>
<rect x="320.6" y="203" transform="matrix(0.9627 -0.2707 0.2707 0.9627 -43.0103 95.2097)" class="st3" width="6.1" height="1"/>
<ellipse transform="matrix(3.577167e-02 -0.9994 0.9994 3.577167e-02 113.8295 521.7694)" class="st0" cx="327.3" cy="201.9" rx="5.5" ry="5.5"/>
<path class="st4" d="M332.6,200.6c0-0.1,0-0.1,0-0.2l-10.4-0.4c0,0.1,0,0.1-0.1,0.2L332.6,200.6z"/>
<path class="st4" d="M322.1,203.4c0.8,2.9,3.8,4.6,6.7,3.8c1.7-0.5,3.1-1.7,3.7-3.4L322.1,203.4z"/>
<path class="st4" d="M323.9,197.6l-0.2,0.2l-0.2,6.7h0.2L323.9,197.6z"/>
<path class="st4" d="M327.6,196.4h-0.2l-0.1,3.8l-0.1,3.7h0.2C327.4,201.4,327.5,198.9,327.6,196.4z"/>
<path class="st4" d="M331.1,197.9l0.2,0.2l-0.3,6.6h-0.2L331.1,197.9z"/>
<ellipse class="st6" cx="168.4" cy="164.5" rx="133.5" ry="130.1"/>
<ellipse class="st7" cx="168.4" cy="164.5" rx="155.3" ry="151.4"/>
<line class="st5" x1="169.8" y1="34.9" x2="169.8" y2="294"/>
<line class="st5" x1="56.4" y1="93.6" x2="285.7" y2="227.2"/>
<line class="st5" x1="232.8" y1="50.2" x2="101.7" y2="277.2"/>
<line class="st5" x1="41.3" y1="124.1" x2="298.3" y2="194.6"/>
<line class="st5" x1="202.3" y1="38.6" x2="134.5" y2="289.9"/>
<line class="st5" x1="78.4" y1="68" x2="264.1" y2="255.2"/>
<line class="st5" x1="105.2" y1="50" x2="237.7" y2="275.9"/>
<line class="st5" x1="136.2" y1="38.3" x2="205.7" y2="290.7"/>
<line class="st5" x1="259.7" y1="69.6" x2="73.6" y2="255.7"/>
<line class="st5" x1="281.4" y1="95.2" x2="52.4" y2="229"/>
<line class="st5" x1="295.8" y1="125.6" x2="38.6" y2="195.9"/>
</svg>
